<?xml version="1.0" encoding="utf-8" standalone="no"?>
<!DOCTYPE svg PUBLIC "-//W3C//DTD SVG 1.1//EN"
  "http://www.w3.org/Graphics/SVG/1.1/DTD/svg11.dtd">
<svg xmlns:xlink="http://www.w3.org/1999/xlink" width="819.645375pt" height="369.807875pt" viewBox="0 0 819.645375 369.807875" xmlns="http://www.w3.org/2000/svg" version="1.1">
 <metadata>
  <rdf:RDF xmlns:dc="http://purl.org/dc/elements/1.1/" xmlns:cc="http://creativecommons.org/ns#" xmlns:rdf="http://www.w3.org/1999/02/22-rdf-syntax-ns#">
   <cc:Work>
    <dc:type rdf:resource="http://purl.org/dc/dcmitype/StillImage"/>
    <dc:date>2025-05-16T17:43:23.673849</dc:date>
    <dc:format>image/svg+xml</dc:format>
    <dc:creator>
     <cc:Agent>
      <dc:title>Matplotlib v3.10.1, https://matplotlib.org/</dc:title>
     </cc:Agent>
    </dc:creator>
   </cc:Work>
  </rdf:RDF>
 </metadata>
 <defs>
  <style type="text/css">*{stroke-linejoin: round; stroke-linecap: butt}</style>
 </defs>
 <g id="figure_1">
  <g id="patch_1">
   <path d="M 0 369.807875 
L 819.645375 369.807875 
L 819.645375 0 
L 0 0 
z
" style="fill: #ffffff"/>
  </g>
  <g id="axes_1">
   <g id="patch_2">
    <path d="M 231.262688 311.6435 
L 588.382688 311.6435 
L 588.382688 45.5315 
L 231.262688 45.5315 
z
" style="fill: #ffffff"/>
   </g>
   <g id="matplotlib.axis_1">
    <g id="xtick_1">
     <g id="line2d_1">
      <path d="M 231.262688 311.6435 
L 231.262688 45.5315 
" clip-path="url(#p224917f22b)" style="fill: none; stroke: #b0b0b0; stroke-opacity: 0.3; stroke-width: 0.8; stroke-linecap: square"/>
     </g>
     <g id="line2d_2">
      <defs>
       <path id="m7fceb1fc1f" d="M 0 0 
L 0 3.5 
" style="stroke: #000000; stroke-width: 0.8"/>
      </defs>
      <g>
       <use xlink:href="#m7fceb1fc1f" x="231.262688" y="311.6435" style="stroke: #000000; stroke-width: 0.8"/>
      </g>
     </g>
     <g id="text_1">
      <!-- 0 -->
      <g transform="translate(225.762688 333.91975) scale(0.22 -0.22)">
       <defs>
        <path id="TimesNewRomanPSMT-30" d="M 231 2094 
Q 231 2819 450 3342 
Q 669 3866 1031 4122 
Q 1313 4325 1613 4325 
Q 2100 4325 2488 3828 
Q 2972 3213 2972 2159 
Q 2972 1422 2759 906 
Q 2547 391 2217 158 
Q 1888 -75 1581 -75 
Q 975 -75 572 641 
Q 231 1244 231 2094 
z
M 844 2016 
Q 844 1141 1059 588 
Q 1238 122 1591 122 
Q 1759 122 1940 273 
Q 2122 425 2216 781 
Q 2359 1319 2359 2297 
Q 2359 3022 2209 3506 
Q 2097 3866 1919 4016 
Q 1791 4119 1609 4119 
Q 1397 4119 1231 3928 
Q 1006 3669 925 3112 
Q 844 2556 844 2016 
z
" transform="scale(0.015625)"/>
       </defs>
       <use xlink:href="#TimesNewRomanPSMT-30"/>
      </g>
     </g>
    </g>
    <g id="xtick_2">
     <g id="line2d_3">
      <path d="M 369.146857 311.6435 
L 369.146857 45.5315 
" clip-path="url(#p224917f22b)" style="fill: none; stroke: #b0b0b0; stroke-opacity: 0.3; stroke-width: 0.8; stroke-linecap: square"/>
     </g>
     <g id="line2d_4">
      <g>
       <use xlink:href="#m7fceb1fc1f" x="369.146857" y="311.6435" style="stroke: #000000; stroke-width: 0.8"/>
      </g>
     </g>
     <g id="text_2">
      <!-- 2000 -->
      <g transform="translate(347.146857 333.91975) scale(0.22 -0.22)">
       <defs>
        <path id="TimesNewRomanPSMT-32" d="M 2934 816 
L 2638 0 
L 138 0 
L 138 116 
Q 1241 1122 1691 1759 
Q 2141 2397 2141 2925 
Q 2141 3328 1894 3587 
Q 1647 3847 1303 3847 
Q 991 3847 742 3664 
Q 494 3481 375 3128 
L 259 3128 
Q 338 3706 661 4015 
Q 984 4325 1469 4325 
Q 1984 4325 2329 3994 
Q 2675 3663 2675 3213 
Q 2675 2891 2525 2569 
Q 2294 2063 1775 1497 
Q 997 647 803 472 
L 1909 472 
Q 2247 472 2383 497 
Q 2519 522 2628 598 
Q 2738 675 2819 816 
L 2934 816 
z
" transform="scale(0.015625)"/>
       </defs>
       <use xlink:href="#TimesNewRomanPSMT-32"/>
       <use xlink:href="#TimesNewRomanPSMT-30" transform="translate(50 0)"/>
       <use xlink:href="#TimesNewRomanPSMT-30" transform="translate(100 0)"/>
       <use xlink:href="#TimesNewRomanPSMT-30" transform="translate(150 0)"/>
      </g>
     </g>
    </g>
    <g id="xtick_3">
     <g id="line2d_5">
      <path d="M 507.031027 311.6435 
L 507.031027 45.5315 
" clip-path="url(#p224917f22b)" style="fill: none; stroke: #b0b0b0; stroke-opacity: 0.3; stroke-width: 0.8; stroke-linecap: square"/>
     </g>
     <g id="line2d_6">
      <g>
       <use xlink:href="#m7fceb1fc1f" x="507.031027" y="311.6435" style="stroke: #000000; stroke-width: 0.8"/>
      </g>
     </g>
     <g id="text_3">
      <!-- 4000 -->
      <g transform="translate(485.031027 333.91975) scale(0.22 -0.22)">
       <defs>
        <path id="TimesNewRomanPSMT-34" d="M 2978 1563 
L 2978 1119 
L 2409 1119 
L 2409 0 
L 1894 0 
L 1894 1119 
L 100 1119 
L 100 1519 
L 2066 4325 
L 2409 4325 
L 2409 1563 
L 2978 1563 
z
M 1894 1563 
L 1894 3666 
L 406 1563 
L 1894 1563 
z
" transform="scale(0.015625)"/>
       </defs>
       <use xlink:href="#TimesNewRomanPSMT-34"/>
       <use xlink:href="#TimesNewRomanPSMT-30" transform="translate(50 0)"/>
       <use xlink:href="#TimesNewRomanPSMT-30" transform="translate(100 0)"/>
       <use xlink:href="#TimesNewRomanPSMT-30" transform="translate(150 0)"/>
      </g>
     </g>
    </g>
    <g id="text_4">
     <!-- Number of iterations -->
     <g transform="translate(318.180656 357.901937) scale(0.22 -0.22)">
      <defs>
       <path id="TimesNewRomanPSMT-4e" d="M -84 4238 
L 1066 4238 
L 3656 1059 
L 3656 3503 
Q 3656 3894 3569 3991 
Q 3453 4122 3203 4122 
L 3056 4122 
L 3056 4238 
L 4531 4238 
L 4531 4122 
L 4381 4122 
Q 4113 4122 4000 3959 
Q 3931 3859 3931 3503 
L 3931 -69 
L 3819 -69 
L 1025 3344 
L 1025 734 
Q 1025 344 1109 247 
Q 1228 116 1475 116 
L 1625 116 
L 1625 0 
L 150 0 
L 150 116 
L 297 116 
Q 569 116 681 278 
Q 750 378 750 734 
L 750 3681 
Q 566 3897 470 3965 
Q 375 4034 191 4094 
Q 100 4122 -84 4122 
L -84 4238 
z
" transform="scale(0.015625)"/>
       <path id="TimesNewRomanPSMT-75" d="M 2709 2863 
L 2709 1128 
Q 2709 631 2732 520 
Q 2756 409 2807 365 
Q 2859 322 2928 322 
Q 3025 322 3147 375 
L 3191 266 
L 2334 -88 
L 2194 -88 
L 2194 519 
Q 1825 119 1631 15 
Q 1438 -88 1222 -88 
Q 981 -88 804 51 
Q 628 191 559 409 
Q 491 628 491 1028 
L 491 2306 
Q 491 2509 447 2587 
Q 403 2666 317 2708 
Q 231 2750 6 2747 
L 6 2863 
L 1009 2863 
L 1009 947 
Q 1009 547 1148 422 
Q 1288 297 1484 297 
Q 1619 297 1789 381 
Q 1959 466 2194 703 
L 2194 2325 
Q 2194 2569 2105 2655 
Q 2016 2741 1734 2747 
L 1734 2863 
L 2709 2863 
z
" transform="scale(0.015625)"/>
       <path id="TimesNewRomanPSMT-6d" d="M 1050 2338 
Q 1363 2650 1419 2697 
Q 1559 2816 1721 2881 
Q 1884 2947 2044 2947 
Q 2313 2947 2506 2790 
Q 2700 2634 2766 2338 
Q 3088 2713 3309 2830 
Q 3531 2947 3766 2947 
Q 3994 2947 4170 2830 
Q 4347 2713 4450 2447 
Q 4519 2266 4519 1878 
L 4519 647 
Q 4519 378 4559 278 
Q 4591 209 4675 161 
Q 4759 113 4950 113 
L 4950 0 
L 3538 0 
L 3538 113 
L 3597 113 
Q 3781 113 3884 184 
Q 3956 234 3988 344 
Q 4000 397 4000 647 
L 4000 1878 
Q 4000 2228 3916 2372 
Q 3794 2572 3525 2572 
Q 3359 2572 3192 2489 
Q 3025 2406 2788 2181 
L 2781 2147 
L 2788 2013 
L 2788 647 
Q 2788 353 2820 281 
Q 2853 209 2943 161 
Q 3034 113 3253 113 
L 3253 0 
L 1806 0 
L 1806 113 
Q 2044 113 2133 169 
Q 2222 225 2256 338 
Q 2272 391 2272 647 
L 2272 1878 
Q 2272 2228 2169 2381 
Q 2031 2581 1784 2581 
Q 1616 2581 1450 2491 
Q 1191 2353 1050 2181 
L 1050 647 
Q 1050 366 1089 281 
Q 1128 197 1204 155 
Q 1281 113 1516 113 
L 1516 0 
L 100 0 
L 100 113 
Q 297 113 375 155 
Q 453 197 493 289 
Q 534 381 534 647 
L 534 1741 
Q 534 2213 506 2350 
Q 484 2453 437 2492 
Q 391 2531 309 2531 
Q 222 2531 100 2484 
L 53 2597 
L 916 2947 
L 1050 2947 
L 1050 2338 
z
" transform="scale(0.015625)"/>
       <path id="TimesNewRomanPSMT-62" d="M 984 2369 
Q 1400 2947 1881 2947 
Q 2322 2947 2650 2570 
Q 2978 2194 2978 1541 
Q 2978 778 2472 313 
Q 2038 -88 1503 -88 
Q 1253 -88 995 3 
Q 738 94 469 275 
L 469 3241 
Q 469 3728 445 3840 
Q 422 3953 372 3993 
Q 322 4034 247 4034 
Q 159 4034 28 3984 
L -16 4094 
L 844 4444 
L 984 4444 
L 984 2369 
z
M 984 2169 
L 984 456 
Q 1144 300 1314 220 
Q 1484 141 1663 141 
Q 1947 141 2192 453 
Q 2438 766 2438 1363 
Q 2438 1913 2192 2208 
Q 1947 2503 1634 2503 
Q 1469 2503 1303 2419 
Q 1178 2356 984 2169 
z
" transform="scale(0.015625)"/>
       <path id="TimesNewRomanPSMT-65" d="M 681 1784 
Q 678 1147 991 784 
Q 1303 422 1725 422 
Q 2006 422 2214 576 
Q 2422 731 2563 1106 
L 2659 1044 
Q 2594 616 2278 264 
Q 1963 -88 1488 -88 
Q 972 -88 605 314 
Q 238 716 238 1394 
Q 238 2128 614 2539 
Q 991 2950 1559 2950 
Q 2041 2950 2350 2633 
Q 2659 2316 2659 1784 
L 681 1784 
z
M 681 1966 
L 2006 1966 
Q 1991 2241 1941 2353 
Q 1863 2528 1708 2628 
Q 1553 2728 1384 2728 
Q 1125 2728 920 2526 
Q 716 2325 681 1966 
z
" transform="scale(0.015625)"/>
       <path id="TimesNewRomanPSMT-72" d="M 1038 2947 
L 1038 2303 
Q 1397 2947 1775 2947 
Q 1947 2947 2059 2842 
Q 2172 2738 2172 2600 
Q 2172 2478 2090 2393 
Q 2009 2309 1897 2309 
Q 1788 2309 1652 2417 
Q 1516 2525 1450 2525 
Q 1394 2525 1328 2463 
Q 1188 2334 1038 2041 
L 1038 669 
Q 1038 431 1097 309 
Q 1138 225 1241 169 
Q 1344 113 1538 113 
L 1538 0 
L 72 0 
L 72 113 
Q 291 113 397 181 
Q 475 231 506 341 
Q 522 394 522 644 
L 522 1753 
Q 522 2253 501 2348 
Q 481 2444 426 2487 
Q 372 2531 291 2531 
Q 194 2531 72 2484 
L 41 2597 
L 906 2947 
L 1038 2947 
z
" transform="scale(0.015625)"/>
       <path id="TimesNewRomanPSMT-20" transform="scale(0.015625)"/>
       <path id="TimesNewRomanPSMT-6f" d="M 1600 2947 
Q 2250 2947 2644 2453 
Q 2978 2031 2978 1484 
Q 2978 1100 2793 706 
Q 2609 313 2286 112 
Q 1963 -88 1566 -88 
Q 919 -88 538 428 
Q 216 863 216 1403 
Q 216 1797 411 2186 
Q 606 2575 925 2761 
Q 1244 2947 1600 2947 
z
M 1503 2744 
Q 1338 2744 1170 2645 
Q 1003 2547 900 2300 
Q 797 2053 797 1666 
Q 797 1041 1045 587 
Q 1294 134 1700 134 
Q 2003 134 2200 384 
Q 2397 634 2397 1244 
Q 2397 2006 2069 2444 
Q 1847 2744 1503 2744 
z
" transform="scale(0.015625)"/>
       <path id="TimesNewRomanPSMT-66" d="M 1319 2638 
L 1319 756 
Q 1319 356 1406 250 
Q 1522 113 1716 113 
L 1975 113 
L 1975 0 
L 266 0 
L 266 113 
L 394 113 
Q 519 113 622 175 
Q 725 238 764 344 
Q 803 450 803 756 
L 803 2638 
L 247 2638 
L 247 2863 
L 803 2863 
L 803 3050 
Q 803 3478 940 3775 
Q 1078 4072 1361 4255 
Q 1644 4438 1997 4438 
Q 2325 4438 2600 4225 
Q 2781 4084 2781 3909 
Q 2781 3816 2700 3733 
Q 2619 3650 2525 3650 
Q 2453 3650 2373 3701 
Q 2294 3753 2178 3923 
Q 2063 4094 1966 4153 
Q 1869 4213 1750 4213 
Q 1606 4213 1506 4136 
Q 1406 4059 1362 3898 
Q 1319 3738 1319 3069 
L 1319 2863 
L 2056 2863 
L 2056 2638 
L 1319 2638 
z
" transform="scale(0.015625)"/>
       <path id="TimesNewRomanPSMT-69" d="M 928 4444 
Q 1059 4444 1151 4351 
Q 1244 4259 1244 4128 
Q 1244 3997 1151 3903 
Q 1059 3809 928 3809 
Q 797 3809 703 3903 
Q 609 3997 609 4128 
Q 609 4259 701 4351 
Q 794 4444 928 4444 
z
M 1188 2947 
L 1188 647 
Q 1188 378 1227 289 
Q 1266 200 1342 156 
Q 1419 113 1622 113 
L 1622 0 
L 231 0 
L 231 113 
Q 441 113 512 153 
Q 584 194 626 287 
Q 669 381 669 647 
L 669 1750 
Q 669 2216 641 2353 
Q 619 2453 572 2492 
Q 525 2531 444 2531 
Q 356 2531 231 2484 
L 188 2597 
L 1050 2947 
L 1188 2947 
z
" transform="scale(0.015625)"/>
       <path id="TimesNewRomanPSMT-74" d="M 1031 3803 
L 1031 2863 
L 1700 2863 
L 1700 2644 
L 1031 2644 
L 1031 788 
Q 1031 509 1111 412 
Q 1191 316 1316 316 
Q 1419 316 1516 380 
Q 1613 444 1666 569 
L 1788 569 
Q 1678 263 1478 108 
Q 1278 -47 1066 -47 
Q 922 -47 784 33 
Q 647 113 581 261 
Q 516 409 516 719 
L 516 2644 
L 63 2644 
L 63 2747 
Q 234 2816 414 2980 
Q 594 3144 734 3369 
Q 806 3488 934 3803 
L 1031 3803 
z
" transform="scale(0.015625)"/>
       <path id="TimesNewRomanPSMT-61" d="M 1822 413 
Q 1381 72 1269 19 
Q 1100 -59 909 -59 
Q 613 -59 420 144 
Q 228 347 228 678 
Q 228 888 322 1041 
Q 450 1253 767 1440 
Q 1084 1628 1822 1897 
L 1822 2009 
Q 1822 2438 1686 2597 
Q 1550 2756 1291 2756 
Q 1094 2756 978 2650 
Q 859 2544 859 2406 
L 866 2225 
Q 866 2081 792 2003 
Q 719 1925 600 1925 
Q 484 1925 411 2006 
Q 338 2088 338 2228 
Q 338 2497 613 2722 
Q 888 2947 1384 2947 
Q 1766 2947 2009 2819 
Q 2194 2722 2281 2516 
Q 2338 2381 2338 1966 
L 2338 994 
Q 2338 584 2353 492 
Q 2369 400 2405 369 
Q 2441 338 2488 338 
Q 2538 338 2575 359 
Q 2641 400 2828 588 
L 2828 413 
Q 2478 -56 2159 -56 
Q 2006 -56 1915 50 
Q 1825 156 1822 413 
z
M 1822 616 
L 1822 1706 
Q 1350 1519 1213 1441 
Q 966 1303 859 1153 
Q 753 1003 753 825 
Q 753 600 887 451 
Q 1022 303 1197 303 
Q 1434 303 1822 616 
z
" transform="scale(0.015625)"/>
       <path id="TimesNewRomanPSMT-6e" d="M 1034 2341 
Q 1538 2947 1994 2947 
Q 2228 2947 2397 2830 
Q 2566 2713 2666 2444 
Q 2734 2256 2734 1869 
L 2734 647 
Q 2734 375 2778 278 
Q 2813 200 2889 156 
Q 2966 113 3172 113 
L 3172 0 
L 1756 0 
L 1756 113 
L 1816 113 
Q 2016 113 2095 173 
Q 2175 234 2206 353 
Q 2219 400 2219 647 
L 2219 1819 
Q 2219 2209 2117 2386 
Q 2016 2563 1775 2563 
Q 1403 2563 1034 2156 
L 1034 647 
Q 1034 356 1069 288 
Q 1113 197 1189 155 
Q 1266 113 1500 113 
L 1500 0 
L 84 0 
L 84 113 
L 147 113 
Q 366 113 442 223 
Q 519 334 519 647 
L 519 1709 
Q 519 2225 495 2337 
Q 472 2450 423 2490 
Q 375 2531 294 2531 
Q 206 2531 84 2484 
L 38 2597 
L 900 2947 
L 1034 2947 
L 1034 2341 
z
" transform="scale(0.015625)"/>
       <path id="TimesNewRomanPSMT-73" d="M 2050 2947 
L 2050 1972 
L 1947 1972 
Q 1828 2431 1642 2597 
Q 1456 2763 1169 2763 
Q 950 2763 815 2647 
Q 681 2531 681 2391 
Q 681 2216 781 2091 
Q 878 1963 1175 1819 
L 1631 1597 
Q 2266 1288 2266 781 
Q 2266 391 1970 151 
Q 1675 -88 1309 -88 
Q 1047 -88 709 6 
Q 606 38 541 38 
Q 469 38 428 -44 
L 325 -44 
L 325 978 
L 428 978 
Q 516 541 762 319 
Q 1009 97 1316 97 
Q 1531 97 1667 223 
Q 1803 350 1803 528 
Q 1803 744 1651 891 
Q 1500 1038 1047 1263 
Q 594 1488 453 1669 
Q 313 1847 313 2119 
Q 313 2472 555 2709 
Q 797 2947 1181 2947 
Q 1350 2947 1591 2875 
Q 1750 2828 1803 2828 
Q 1853 2828 1881 2850 
Q 1909 2872 1947 2947 
L 2050 2947 
z
" transform="scale(0.015625)"/>
      </defs>
      <use xlink:href="#TimesNewRomanPSMT-4e"/>
      <use xlink:href="#TimesNewRomanPSMT-75" transform="translate(72.216797 0)"/>
      <use xlink:href="#TimesNewRomanPSMT-6d" transform="translate(122.216797 0)"/>
      <use xlink:href="#TimesNewRomanPSMT-62" transform="translate(200 0)"/>
      <use xlink:href="#TimesNewRomanPSMT-65" transform="translate(250 0)"/>
      <use xlink:href="#TimesNewRomanPSMT-72" transform="translate(294.384766 0)"/>
      <use xlink:href="#TimesNewRomanPSMT-20" transform="translate(327.685547 0)"/>
      <use xlink:href="#TimesNewRomanPSMT-6f" transform="translate(352.685547 0)"/>
      <use xlink:href="#TimesNewRomanPSMT-66" transform="translate(402.685547 0)"/>
      <use xlink:href="#TimesNewRomanPSMT-20" transform="translate(435.986328 0)"/>
      <use xlink:href="#TimesNewRomanPSMT-69" transform="translate(460.986328 0)"/>
      <use xlink:href="#TimesNewRomanPSMT-74" transform="translate(488.769531 0)"/>
      <use xlink:href="#TimesNewRomanPSMT-65" transform="translate(516.552734 0)"/>
      <use xlink:href="#TimesNewRomanPSMT-72" transform="translate(560.9375 0)"/>
      <use xlink:href="#TimesNewRomanPSMT-61" transform="translate(594.238281 0)"/>
      <use xlink:href="#TimesNewRomanPSMT-74" transform="translate(638.623047 0)"/>
      <use xlink:href="#TimesNewRomanPSMT-69" transform="translate(666.40625 0)"/>
      <use xlink:href="#TimesNewRomanPSMT-6f" transform="translate(694.189453 0)"/>
      <use xlink:href="#TimesNewRomanPSMT-6e" transform="translate(744.189453 0)"/>
      <use xlink:href="#TimesNewRomanPSMT-73" transform="translate(794.189453 0)"/>
     </g>
    </g>
   </g>
   <g id="matplotlib.axis_2">
    <g id="ytick_1">
     <g id="line2d_7">
      <path d="M 231.262688 311.6435 
L 588.382688 311.6435 
" clip-path="url(#p224917f22b)" style="fill: none; stroke: #b0b0b0; stroke-opacity: 0.3; stroke-width: 0.8; stroke-linecap: square"/>
     </g>
     <g id="line2d_8">
      <defs>
       <path id="ma44c9228d3" d="M 0 0 
L -3.5 0 
" style="stroke: #000000; stroke-width: 0.8"/>
      </defs>
      <g>
       <use xlink:href="#ma44c9228d3" x="231.262688" y="311.6435" style="stroke: #000000; stroke-width: 0.8"/>
      </g>
     </g>
     <g id="text_5">
      <!-- 0.0 -->
      <g transform="translate(196.762688 319.281625) scale(0.22 -0.22)">
       <defs>
        <path id="TimesNewRomanPSMT-2e" d="M 800 606 
Q 947 606 1047 504 
Q 1147 403 1147 259 
Q 1147 116 1045 14 
Q 944 -88 800 -88 
Q 656 -88 554 14 
Q 453 116 453 259 
Q 453 406 554 506 
Q 656 606 800 606 
z
" transform="scale(0.015625)"/>
       </defs>
       <use xlink:href="#TimesNewRomanPSMT-30"/>
       <use xlink:href="#TimesNewRomanPSMT-2e" transform="translate(50 0)"/>
       <use xlink:href="#TimesNewRomanPSMT-30" transform="translate(75 0)"/>
      </g>
     </g>
    </g>
    <g id="ytick_2">
     <g id="line2d_9">
      <path d="M 231.262688 236.03913 
L 588.382688 236.03913 
" clip-path="url(#p224917f22b)" style="fill: none; stroke: #b0b0b0; stroke-opacity: 0.3; stroke-width: 0.8; stroke-linecap: square"/>
     </g>
     <g id="line2d_10">
      <g>
       <use xlink:href="#ma44c9228d3" x="231.262688" y="236.03913" style="stroke: #000000; stroke-width: 0.8"/>
      </g>
     </g>
     <g id="text_6">
      <!-- 0.1 -->
      <g transform="translate(196.762688 243.677255) scale(0.22 -0.22)">
       <defs>
        <path id="TimesNewRomanPSMT-31" d="M 750 3822 
L 1781 4325 
L 1884 4325 
L 1884 747 
Q 1884 391 1914 303 
Q 1944 216 2037 169 
Q 2131 122 2419 116 
L 2419 0 
L 825 0 
L 825 116 
Q 1125 122 1212 167 
Q 1300 213 1334 289 
Q 1369 366 1369 747 
L 1369 3034 
Q 1369 3497 1338 3628 
Q 1316 3728 1258 3775 
Q 1200 3822 1119 3822 
Q 1003 3822 797 3725 
L 750 3822 
z
" transform="scale(0.015625)"/>
       </defs>
       <use xlink:href="#TimesNewRomanPSMT-30"/>
       <use xlink:href="#TimesNewRomanPSMT-2e" transform="translate(50 0)"/>
       <use xlink:href="#TimesNewRomanPSMT-31" transform="translate(75 0)"/>
      </g>
     </g>
    </g>
    <g id="ytick_3">
     <g id="line2d_11">
      <path d="M 231.262688 160.434759 
L 588.382688 160.434759 
" clip-path="url(#p224917f22b)" style="fill: none; stroke: #b0b0b0; stroke-opacity: 0.3; stroke-width: 0.8; stroke-linecap: square"/>
     </g>
     <g id="line2d_12">
      <g>
       <use xlink:href="#ma44c9228d3" x="231.262688" y="160.434759" style="stroke: #000000; stroke-width: 0.8"/>
      </g>
     </g>
     <g id="text_7">
      <!-- 0.2 -->
      <g transform="translate(196.762688 168.072884) scale(0.22 -0.22)">
       <use xlink:href="#TimesNewRomanPSMT-30"/>
       <use xlink:href="#TimesNewRomanPSMT-2e" transform="translate(50 0)"/>
       <use xlink:href="#TimesNewRomanPSMT-32" transform="translate(75 0)"/>
      </g>
     </g>
    </g>
    <g id="ytick_4">
     <g id="line2d_13">
      <path d="M 231.262688 84.830389 
L 588.382688 84.830389 
" clip-path="url(#p224917f22b)" style="fill: none; stroke: #b0b0b0; stroke-opacity: 0.3; stroke-width: 0.8; stroke-linecap: square"/>
     </g>
     <g id="line2d_14">
      <g>
       <use xlink:href="#ma44c9228d3" x="231.262688" y="84.830389" style="stroke: #000000; stroke-width: 0.8"/>
      </g>
     </g>
     <g id="text_8">
      <!-- 0.3 -->
      <g transform="translate(196.762688 92.468514) scale(0.22 -0.22)">
       <defs>
        <path id="TimesNewRomanPSMT-33" d="M 325 3431 
Q 506 3859 782 4092 
Q 1059 4325 1472 4325 
Q 1981 4325 2253 3994 
Q 2459 3747 2459 3466 
Q 2459 3003 1878 2509 
Q 2269 2356 2469 2072 
Q 2669 1788 2669 1403 
Q 2669 853 2319 450 
Q 1863 -75 997 -75 
Q 569 -75 414 31 
Q 259 138 259 259 
Q 259 350 332 419 
Q 406 488 509 488 
Q 588 488 669 463 
Q 722 447 909 348 
Q 1097 250 1169 231 
Q 1284 197 1416 197 
Q 1734 197 1970 444 
Q 2206 691 2206 1028 
Q 2206 1275 2097 1509 
Q 2016 1684 1919 1775 
Q 1784 1900 1550 2001 
Q 1316 2103 1072 2103 
L 972 2103 
L 972 2197 
Q 1219 2228 1467 2375 
Q 1716 2522 1828 2728 
Q 1941 2934 1941 3181 
Q 1941 3503 1739 3701 
Q 1538 3900 1238 3900 
Q 753 3900 428 3381 
L 325 3431 
z
" transform="scale(0.015625)"/>
       </defs>
       <use xlink:href="#TimesNewRomanPSMT-30"/>
       <use xlink:href="#TimesNewRomanPSMT-2e" transform="translate(50 0)"/>
       <use xlink:href="#TimesNewRomanPSMT-33" transform="translate(75 0)"/>
      </g>
     </g>
    </g>
    <g id="text_9">
     <!-- Loss -->
     <g transform="translate(188.05675 199.368906) rotate(-90) scale(0.22 -0.22)">
      <defs>
       <path id="TimesNewRomanPSMT-4c" d="M 3669 1172 
L 3772 1150 
L 3409 0 
L 128 0 
L 128 116 
L 288 116 
Q 556 116 672 291 
Q 738 391 738 753 
L 738 3488 
Q 738 3884 650 3984 
Q 528 4122 288 4122 
L 128 4122 
L 128 4238 
L 2047 4238 
L 2047 4122 
Q 1709 4125 1573 4059 
Q 1438 3994 1388 3894 
Q 1338 3794 1338 3416 
L 1338 753 
Q 1338 494 1388 397 
Q 1425 331 1503 300 
Q 1581 269 1991 269 
L 2300 269 
Q 2788 269 2984 341 
Q 3181 413 3343 595 
Q 3506 778 3669 1172 
z
" transform="scale(0.015625)"/>
      </defs>
      <use xlink:href="#TimesNewRomanPSMT-4c"/>
      <use xlink:href="#TimesNewRomanPSMT-6f" transform="translate(61.083984 0)"/>
      <use xlink:href="#TimesNewRomanPSMT-73" transform="translate(111.083984 0)"/>
      <use xlink:href="#TimesNewRomanPSMT-73" transform="translate(150 0)"/>
     </g>
    </g>
   </g>
   <g id="line2d_15">
    <path d="M 231.262688 122.769579 
L 231.953442 122.590665 
L 232.644196 122.715897 
L 234.716459 122.617906 
L 236.788722 122.675452 
L 237.479477 122.883985 
L 238.170231 123.480516 
L 238.860985 126.263977 
L 239.55174 129.758274 
L 240.242494 134.222421 
L 240.933248 143.781979 
L 241.624003 144.52918 
L 242.314757 147.075506 
L 243.005511 145.24424 
L 243.696266 152.148509 
L 244.38702 148.171636 
L 245.077775 152.117313 
L 245.768529 153.870461 
L 246.459283 154.843477 
L 247.150038 157.08694 
L 247.840792 157.613025 
L 248.531546 158.652938 
L 249.222301 164.183574 
L 249.913055 162.625969 
L 250.603809 165.091754 
L 251.294564 168.283989 
L 251.985318 167.324628 
L 252.676072 173.44241 
L 253.366827 171.34145 
L 254.057581 171.615347 
L 254.748335 174.19262 
L 255.43909 178.267157 
L 256.820599 183.141496 
L 257.511353 180.459709 
L 258.202107 185.352784 
L 258.892862 193.427278 
L 259.583616 192.080324 
L 260.27437 185.787841 
L 260.965125 188.994901 
L 261.655879 191.308979 
L 262.346633 194.874545 
L 263.037388 192.412072 
L 263.728142 194.678123 
L 264.418896 195.389668 
L 265.109651 197.730706 
L 265.800405 199.524546 
L 266.491159 205.463898 
L 267.181914 200.054382 
L 268.563423 202.215334 
L 269.254177 202.478923 
L 269.944931 208.966532 
L 270.635686 211.488928 
L 271.32644 208.597483 
L 272.017194 208.463204 
L 272.707949 215.434178 
L 273.398703 212.471723 
L 274.089457 213.765424 
L 274.780212 209.226426 
L 275.470966 218.679594 
L 276.16172 215.615796 
L 276.852475 218.983424 
L 277.543229 219.870921 
L 278.233983 217.462282 
L 278.924738 218.081559 
L 279.615492 213.112225 
L 280.306246 226.093082 
L 280.997001 221.995061 
L 281.687755 216.967629 
L 282.37851 216.280666 
L 283.069264 221.235388 
L 283.760018 227.807447 
L 284.450773 229.959515 
L 285.141527 223.755711 
L 285.832281 225.808628 
L 286.523036 226.613179 
L 287.21379 226.104128 
L 287.904544 231.695262 
L 288.595299 232.152158 
L 289.286053 233.875986 
L 289.976807 231.508293 
L 290.667562 229.966224 
L 291.358316 231.361887 
L 292.04907 240.372962 
L 292.739825 232.057507 
L 293.430579 239.041459 
L 294.121334 237.698589 
L 294.812088 237.260569 
L 295.502842 233.103137 
L 296.193597 236.719005 
L 296.884351 237.459807 
L 297.575105 234.055621 
L 298.26586 238.718927 
L 298.956614 238.348914 
L 299.647368 240.353326 
L 300.338123 240.968806 
L 301.028877 238.610239 
L 301.719631 238.138236 
L 302.410386 236.19995 
L 303.10114 231.68821 
L 303.791894 239.833922 
L 304.482649 231.677778 
L 305.173403 242.359489 
L 305.864158 241.001483 
L 306.554912 235.582633 
L 307.245666 244.856177 
L 307.936421 242.941217 
L 308.627175 239.404622 
L 309.317929 245.13373 
L 310.008684 241.354647 
L 310.699438 242.711003 
L 311.390192 241.162749 
L 312.080947 238.835574 
L 312.771701 234.968629 
L 313.462455 218.291409 
L 314.15321 228.234313 
L 314.843964 215.895371 
L 315.534718 235.444659 
L 316.225473 241.972944 
L 316.916227 243.633007 
L 317.606982 243.922648 
L 318.297736 247.594096 
L 318.98849 238.71112 
L 319.679245 239.717139 
L 320.369999 244.091299 
L 321.060753 245.35483 
L 321.751508 240.129832 
L 322.442262 245.261745 
L 323.823771 234.640328 
L 324.514525 244.012027 
L 325.205279 240.818857 
L 325.896034 246.85864 
L 326.586788 249.010545 
L 327.277542 242.186563 
L 327.968297 246.57462 
L 328.659051 241.522943 
L 329.349805 246.287885 
L 330.04056 250.013353 
L 330.731314 245.872522 
L 331.422069 240.624801 
L 332.112823 246.052224 
L 332.803577 239.557613 
L 333.494332 248.201786 
L 334.185086 241.371597 
L 334.87584 248.090321 
L 335.566595 249.643408 
L 336.257349 244.000118 
L 336.948103 247.70297 
L 337.638858 223.105628 
L 338.329612 224.294589 
L 339.020366 240.867035 
L 339.711121 234.729735 
L 340.401875 240.87411 
L 341.092629 242.579834 
L 341.783384 245.261429 
L 342.474138 245.973098 
L 343.164893 248.366173 
L 343.855647 243.802734 
L 344.546401 246.043634 
L 345.237156 243.460086 
L 345.92791 252.009208 
L 346.618664 250.224257 
L 347.309419 248.105305 
L 348.000173 250.231152 
L 348.690927 244.7491 
L 349.381682 245.10298 
L 350.072436 246.936098 
L 350.76319 251.281705 
L 351.453945 250.30616 
L 352.144699 249.53236 
L 352.835453 247.203202 
L 353.526208 249.449657 
L 354.216962 248.068065 
L 354.907717 249.862502 
L 355.598471 249.069854 
L 356.289225 245.009033 
L 356.97998 249.226417 
L 357.670734 247.305232 
L 358.361488 247.0381 
L 359.052243 248.515227 
L 359.742997 252.593814 
L 360.433751 244.806038 
L 361.124506 249.511343 
L 361.81526 249.827775 
L 362.506014 242.323889 
L 363.196769 218.633437 
L 363.887523 225.154934 
L 364.578277 238.365588 
L 365.269032 240.582779 
L 365.959786 247.683756 
L 366.65054 245.448754 
L 367.341295 254.469727 
L 368.032049 244.955109 
L 368.722804 246.975974 
L 369.413558 250.386678 
L 370.104312 250.924232 
L 370.795067 250.087218 
L 371.485821 247.283912 
L 372.176575 254.961845 
L 372.86733 255.340572 
L 373.558084 251.648501 
L 374.248838 246.502884 
L 374.939593 251.597799 
L 375.630347 240.798398 
L 376.321101 247.970649 
L 377.70261 253.848174 
L 378.393364 258.594048 
L 379.084119 253.932714 
L 379.774873 250.578435 
L 380.465628 255.166293 
L 381.156382 251.013813 
L 381.847136 208.240319 
L 382.537891 243.405446 
L 383.228645 248.241566 
L 383.919399 240.550328 
L 384.610154 252.392289 
L 385.300908 253.107152 
L 385.991662 252.663364 
L 386.682417 253.49844 
L 387.373171 252.023065 
L 388.063925 256.170927 
L 388.75468 255.871186 
L 389.445434 250.875 
L 390.136188 252.465343 
L 390.826943 257.302764 
L 391.517697 259.224484 
L 392.208452 249.147803 
L 392.899206 192.502402 
L 393.58996 221.525835 
L 394.280715 233.166615 
L 394.971469 253.196598 
L 395.662223 252.981368 
L 396.352978 254.866152 
L 397.043732 255.024371 
L 397.734486 257.165754 
L 398.425241 244.135665 
L 399.115995 256.074192 
L 399.806749 258.562875 
L 400.497504 258.773627 
L 401.188258 257.052317 
L 401.879012 266.889211 
L 402.569767 264.491216 
L 403.260521 265.451746 
L 403.951276 254.627089 
L 404.64203 257.596675 
L 405.332784 258.351786 
L 406.023539 241.735915 
L 406.714293 251.933349 
L 407.405047 240.652696 
L 408.095802 255.17814 
L 408.786556 252.420302 
L 409.47731 257.072111 
L 410.168065 263.053503 
L 410.858819 259.356459 
L 411.549573 262.173082 
L 412.240328 262.330371 
L 412.931082 265.091746 
L 413.621836 257.037226 
L 414.312591 263.180577 
L 415.003345 242.609035 
L 415.694099 255.558849 
L 416.384854 264.929353 
L 417.075608 259.888779 
L 417.766363 266.318 
L 418.457117 260.909258 
L 419.147871 263.718446 
L 419.838626 256.188947 
L 420.52938 268.513713 
L 421.220134 259.477821 
L 421.910889 265.316997 
L 422.601643 268.533946 
L 423.292397 270.946627 
L 423.983152 274.255833 
L 424.673906 274.309569 
L 425.36466 246.247654 
L 426.055415 251.652597 
L 426.746169 267.145415 
L 427.436923 263.151764 
L 428.127678 266.222642 
L 428.818432 265.581017 
L 429.509187 272.290722 
L 430.199941 272.125716 
L 430.890695 273.187324 
L 431.58145 267.15674 
L 432.272204 237.536737 
L 432.962958 265.15501 
L 433.653713 269.56165 
L 434.344467 269.517217 
L 435.035221 271.375766 
L 435.725976 275.824185 
L 436.41673 274.915064 
L 437.107484 273.433851 
L 437.798239 276.926542 
L 438.488993 278.16019 
L 439.179747 276.135624 
L 439.870502 275.248322 
L 440.561256 228.889787 
L 441.252011 224.231483 
L 441.942765 253.001416 
L 442.633519 272.92669 
L 443.324274 260.738484 
L 444.015028 264.647071 
L 444.705782 265.668457 
L 445.396537 275.66891 
L 446.087291 277.340641 
L 446.778045 276.850483 
L 447.4688 281.714695 
L 448.159554 280.568589 
L 448.850308 278.053141 
L 449.541063 281.913457 
L 450.231817 273.291436 
L 450.922571 198.556487 
L 451.613326 222.182227 
L 452.30408 252.934417 
L 453.685589 277.162178 
L 454.376343 278.194793 
L 455.067098 282.808383 
L 455.757852 275.683001 
L 456.448606 277.34868 
L 457.139361 280.31434 
L 457.830115 264.988939 
L 458.520869 266.119224 
L 459.211624 268.041459 
L 459.902378 280.304905 
L 460.593132 279.437462 
L 461.283887 271.75692 
L 461.974641 283.582327 
L 462.665395 287.672194 
L 463.35615 287.437378 
L 464.046904 285.56306 
L 465.428413 290.059982 
L 466.119167 289.210053 
L 466.809922 293.039048 
L 468.882185 266.891875 
L 469.572939 276.880473 
L 470.263693 285.251481 
L 470.954448 288.99502 
L 471.645202 290.938526 
L 472.335956 288.685062 
L 473.026711 273.89694 
L 473.717465 183.72524 
L 474.408219 213.146417 
L 475.098974 205.088304 
L 475.789728 260.265022 
L 476.480482 269.983257 
L 477.171237 283.21519 
L 477.861991 289.343819 
L 478.552746 289.596175 
L 479.934254 288.684984 
L 480.625009 291.49211 
L 481.315763 289.108324 
L 482.006517 292.671401 
L 482.697272 289.428716 
L 483.388026 289.406925 
L 484.07878 294.562395 
L 484.769535 287.940422 
L 485.460289 292.537183 
L 486.151043 292.424412 
L 486.841798 294.376423 
L 487.532552 289.829629 
L 488.223306 223.388606 
L 488.914061 248.078374 
L 489.604815 238.395505 
L 490.29557 274.276385 
L 490.986324 261.681504 
L 491.677078 276.910694 
L 492.367833 287.340635 
L 493.058587 287.841417 
L 493.749341 290.300703 
L 494.440096 288.572021 
L 495.13085 291.900392 
L 495.821604 292.228686 
L 496.512359 293.987768 
L 497.203113 292.425575 
L 497.893867 289.290174 
L 498.584622 289.004385 
L 499.275376 292.636462 
L 499.96613 288.831255 
L 500.656885 290.867661 
L 501.347639 225.708198 
L 502.038393 257.926818 
L 502.729148 280.497929 
L 503.419902 286.314627 
L 504.110657 284.105015 
L 504.801411 289.428212 
L 505.492165 287.69098 
L 506.18292 287.558524 
L 506.873674 286.156313 
L 507.564428 268.970912 
L 508.255183 283.697093 
L 508.945937 286.706538 
L 509.636691 286.751858 
L 510.327446 286.341051 
L 511.0182 289.270286 
L 511.708954 286.641587 
L 512.399709 290.169356 
L 513.090463 292.24524 
L 513.781217 280.001234 
L 514.471972 289.556825 
L 515.162726 293.473843 
L 515.853481 281.480045 
L 516.544235 285.103238 
L 517.234989 281.392678 
L 517.925744 280.866044 
L 518.616498 275.618382 
L 519.307252 291.069534 
L 519.998007 291.21175 
L 520.688761 291.737058 
L 521.379515 290.815302 
L 522.07027 288.074092 
L 522.761024 278.671063 
L 523.451778 232.788931 
L 524.142533 229.408239 
L 524.833287 264.088447 
L 525.524041 281.37252 
L 526.214796 281.356638 
L 526.90555 282.467056 
L 527.596305 286.775006 
L 528.287059 292.887118 
L 528.977813 290.685594 
L 529.668568 295.0359 
L 530.359322 291.699941 
L 531.050076 292.679697 
L 531.740831 292.571668 
L 533.122339 294.54624 
L 533.813094 292.050982 
L 534.503848 296.010212 
L 535.194602 294.026422 
L 536.576111 291.322296 
L 537.266865 293.219647 
L 537.95762 294.724532 
L 539.339129 293.724952 
L 540.029883 294.448058 
L 540.720637 290.833055 
L 541.411392 295.878705 
L 542.102146 293.503285 
L 542.7929 296.152883 
L 543.483655 294.27384 
L 544.174409 297.0803 
L 544.865163 290.947214 
L 545.555918 292.018966 
L 546.246672 294.112346 
L 546.937426 294.623826 
L 547.628181 293.489616 
L 548.318935 294.272534 
L 549.009689 294.077037 
L 549.700444 294.994768 
L 550.391198 293.160255 
L 551.081952 289.561319 
L 551.772707 292.965343 
L 552.463461 295.644798 
L 553.154216 292.387791 
L 553.84497 292.03288 
L 554.535724 293.1183 
L 555.226479 293.772919 
L 555.917233 293.232848 
L 556.607987 293.334291 
L 557.298742 294.650215 
L 557.989496 294.96898 
L 558.68025 289.89478 
L 559.371005 292.963922 
L 560.061759 293.996782 
L 560.752513 289.588274 
L 561.443268 292.156411 
L 562.134022 296.572375 
L 562.824776 291.537033 
L 563.515531 294.413202 
L 564.206285 293.978305 
L 564.89704 294.846686 
L 565.587794 290.890398 
L 566.278548 291.693694 
L 566.969303 292.013931 
L 567.660057 294.319543 
L 568.350811 291.751425 
L 569.041566 294.110153 
L 569.73232 294.743398 
L 570.423074 294.838835 
L 571.113829 293.682617 
L 571.804583 294.729341 
L 572.495337 296.297354 
L 573.186092 292.941475 
L 573.876846 292.341464 
L 575.258355 295.352713 
L 575.949109 293.87159 
L 576.639864 293.792093 
L 577.330618 293.991292 
L 578.021372 293.075705 
L 578.712127 294.315214 
L 579.402881 297.386929 
L 580.093635 292.197474 
L 580.78439 293.177856 
L 581.475144 293.566768 
L 582.165898 293.817064 
L 582.856653 297.686345 
L 583.547407 293.915582 
L 584.928916 296.891691 
L 585.61967 296.174771 
L 586.310424 294.579404 
L 587.001179 295.553447 
L 587.691933 292.746925 
L 588.382688 294.627535 
L 588.382688 294.627535 
" clip-path="url(#p224917f22b)" style="fill: none; stroke: #ffa500; stroke-width: 1.5; stroke-linecap: square"/>
   </g>
   <g id="line2d_16">
    <path d="M 231.262688 122.595059 
L 235.407214 122.635379 
L 236.788722 122.685997 
L 237.479477 122.869328 
L 238.170231 123.646339 
L 238.860985 126.647492 
L 239.55174 131.093005 
L 240.242494 134.604088 
L 240.933248 139.331498 
L 241.624003 141.915293 
L 243.005511 145.994743 
L 243.696266 147.002807 
L 244.38702 148.55924 
L 245.077775 149.476106 
L 245.768529 150.10612 
L 246.459283 151.651276 
L 247.150038 150.573442 
L 247.840792 152.532992 
L 248.531546 152.86483 
L 249.913055 152.689544 
L 250.603809 152.363665 
L 251.294564 152.568964 
L 251.985318 153.552536 
L 252.676072 152.390422 
L 253.366827 153.457902 
L 254.057581 153.205332 
L 254.748335 152.415579 
L 255.43909 152.272546 
L 256.129844 151.960446 
L 256.820599 147.600476 
L 257.511353 150.782548 
L 258.202107 150.007126 
L 258.892862 148.772087 
L 259.583616 149.245988 
L 260.27437 147.926624 
L 260.965125 148.128273 
L 262.346633 146.653845 
L 263.037388 143.606208 
L 263.728142 147.371721 
L 264.418896 144.342256 
L 265.109651 143.369804 
L 265.800405 143.21439 
L 266.491159 142.199769 
L 267.181914 140.176882 
L 267.872668 136.618786 
L 268.563423 141.130069 
L 269.254177 141.604951 
L 269.944931 137.563006 
L 270.635686 135.062837 
L 271.32644 136.124504 
L 272.017194 139.436462 
L 272.707949 133.301398 
L 273.398703 133.308056 
L 274.089457 134.222624 
L 275.470966 134.026507 
L 276.16172 131.195187 
L 276.852475 130.257907 
L 277.543229 134.87251 
L 278.233983 127.585595 
L 278.924738 129.797018 
L 279.615492 132.916396 
L 280.306246 129.151728 
L 280.997001 126.881564 
L 282.37851 129.550486 
L 283.069264 128.766264 
L 283.760018 125.624997 
L 284.450773 125.367615 
L 285.141527 120.602792 
L 285.832281 123.707209 
L 286.523036 124.09167 
L 287.21379 123.232812 
L 287.904544 124.106676 
L 288.595299 122.856248 
L 289.286053 123.561551 
L 289.976807 122.141199 
L 290.667562 122.949969 
L 291.358316 122.535575 
L 292.04907 119.982895 
L 292.739825 120.400366 
L 293.430579 120.266864 
L 294.121334 117.015855 
L 294.812088 117.141898 
L 295.502842 117.908657 
L 296.193597 119.569165 
L 296.884351 118.589367 
L 297.575105 118.262475 
L 298.26586 116.129114 
L 298.956614 115.677102 
L 299.647368 113.296499 
L 300.338123 115.508564 
L 301.028877 115.147626 
L 301.719631 113.004508 
L 302.410386 111.611747 
L 303.10114 118.671113 
L 303.791894 116.452221 
L 304.482649 119.749465 
L 305.173403 111.906283 
L 305.864158 117.669099 
L 306.554912 115.158734 
L 307.245666 114.19374 
L 307.936421 113.756442 
L 308.627175 113.514562 
L 309.317929 112.373842 
L 310.008684 113.788775 
L 310.699438 110.645626 
L 311.390192 110.189603 
L 312.080947 112.538234 
L 312.771701 111.395801 
L 313.462455 115.429567 
L 314.843964 121.048337 
L 315.534718 116.580968 
L 316.225473 116.979894 
L 316.916227 113.826088 
L 317.606982 112.563312 
L 318.297736 111.961869 
L 318.98849 109.386838 
L 319.679245 110.454646 
L 320.369999 111.112463 
L 321.060753 108.131453 
L 321.751508 109.495757 
L 322.442262 106.854032 
L 323.133016 106.595254 
L 323.823771 111.73806 
L 324.514525 109.767897 
L 325.205279 113.729944 
L 325.896034 107.317896 
L 326.586788 110.958931 
L 327.277542 110.281105 
L 327.968297 109.399118 
L 328.659051 111.016883 
L 329.349805 107.991891 
L 330.04056 106.296279 
L 330.731314 107.914134 
L 331.422069 109.867984 
L 332.112823 105.600292 
L 332.803577 106.857637 
L 333.494332 107.404508 
L 334.185086 108.395189 
L 334.87584 108.142269 
L 335.566595 107.436413 
L 336.257349 109.688855 
L 336.948103 105.728633 
L 337.638858 109.634531 
L 338.329612 116.263201 
L 339.020366 108.927662 
L 339.711121 117.610809 
L 340.401875 113.910289 
L 341.092629 113.414791 
L 341.783384 110.88034 
L 342.474138 110.494347 
L 343.164893 108.601828 
L 343.855647 109.806765 
L 344.546401 108.844249 
L 345.237156 108.755338 
L 345.92791 108.83972 
L 347.309419 107.275468 
L 348.000173 107.935651 
L 348.690927 106.398641 
L 349.381682 107.458584 
L 350.072436 105.120634 
L 350.76319 107.958904 
L 351.453945 105.488354 
L 352.144699 107.416044 
L 352.835453 106.597935 
L 353.526208 104.976205 
L 354.216962 107.36875 
L 354.907717 106.259124 
L 355.598471 103.502959 
L 356.289225 105.479228 
L 356.97998 102.977358 
L 357.670734 104.246308 
L 358.361488 103.566814 
L 359.052243 104.006952 
L 359.742997 101.691623 
L 360.433751 105.849292 
L 361.124506 104.05001 
L 361.81526 105.057477 
L 362.506014 102.079081 
L 363.196769 104.869268 
L 363.887523 105.698734 
L 364.578277 107.756388 
L 365.269032 112.143701 
L 365.959786 107.651052 
L 366.65054 110.243747 
L 367.341295 110.145148 
L 368.032049 108.008182 
L 368.722804 106.493658 
L 369.413558 107.847011 
L 370.104312 106.186481 
L 370.795067 107.47109 
L 371.485821 105.013022 
L 372.176575 104.617092 
L 372.86733 104.583497 
L 373.558084 105.549911 
L 374.248838 106.832221 
L 374.939593 102.805891 
L 375.630347 100.8782 
L 376.321101 101.752031 
L 377.011856 102.25386 
L 377.70261 107.035729 
L 378.393364 104.483681 
L 379.084119 103.490319 
L 379.774873 104.177766 
L 380.465628 103.160497 
L 381.156382 98.28244 
L 381.847136 96.509205 
L 383.228645 106.244703 
L 383.919399 110.17685 
L 384.610154 107.800911 
L 385.300908 107.203253 
L 385.991662 105.238633 
L 386.682417 105.591167 
L 387.373171 106.231364 
L 388.063925 103.993816 
L 388.75468 102.822632 
L 389.445434 101.104781 
L 390.136188 100.088346 
L 390.826943 99.949167 
L 391.517697 100.981306 
L 392.208452 97.543801 
L 392.899206 97.588684 
L 393.58996 84.73284 
L 394.280715 101.582749 
L 394.971469 107.761976 
L 395.662223 108.202429 
L 396.352978 105.180073 
L 397.734486 102.50117 
L 398.425241 103.708472 
L 399.115995 100.673476 
L 399.806749 101.23346 
L 400.497504 101.355966 
L 401.188258 99.745073 
L 401.879012 99.910367 
L 402.569767 97.212425 
L 403.260521 97.109612 
L 403.951276 97.709523 
L 404.64203 94.17851 
L 405.332784 91.384357 
L 406.023539 97.961429 
L 406.714293 98.106354 
L 407.405047 100.145645 
L 408.095802 99.930375 
L 408.786556 105.889241 
L 409.47731 101.234091 
L 410.168065 98.427816 
L 410.858819 97.295229 
L 411.549573 99.236484 
L 412.240328 96.784995 
L 412.931082 97.339369 
L 413.621836 93.885506 
L 414.312591 95.66888 
L 415.003345 94.419804 
L 415.694099 93.949879 
L 416.384854 95.290412 
L 417.075608 96.206467 
L 417.766363 94.633023 
L 418.457117 96.95608 
L 419.147871 93.492595 
L 419.838626 93.600207 
L 421.220134 92.245682 
L 421.910889 91.961646 
L 422.601643 90.341019 
L 423.292397 89.01351 
L 423.983152 89.592218 
L 424.673906 88.714084 
L 425.36466 86.99959 
L 426.055415 90.108513 
L 426.746169 90.800399 
L 427.436923 90.754163 
L 428.127678 91.384402 
L 428.818432 86.750432 
L 429.509187 88.001424 
L 430.199941 87.417353 
L 430.890695 84.404866 
L 431.58145 86.788015 
L 432.272204 90.793301 
L 432.962958 91.449744 
L 433.653713 88.744254 
L 434.344467 90.525803 
L 435.035221 87.674058 
L 435.725976 88.003902 
L 436.41673 83.676794 
L 437.107484 85.004709 
L 437.798239 84.681535 
L 439.179747 81.944026 
L 439.870502 81.583224 
L 440.561256 78.663748 
L 441.252011 87.776195 
L 441.942765 91.463872 
L 442.633519 87.343629 
L 443.324274 84.624935 
L 444.015028 89.313093 
L 444.705782 89.662112 
L 445.396537 85.044703 
L 446.778045 83.53944 
L 447.4688 81.060395 
L 448.850308 78.609199 
L 449.541063 79.010964 
L 450.231817 76.921225 
L 450.922571 75.86741 
L 451.613326 87.872496 
L 452.30408 93.854029 
L 452.994835 91.489716 
L 453.685589 86.485435 
L 454.376343 83.005908 
L 455.067098 80.698916 
L 455.757852 78.841142 
L 456.448606 77.649973 
L 457.139361 78.94258 
L 457.830115 76.723823 
L 458.520869 81.181436 
L 459.211624 84.806564 
L 459.902378 82.270446 
L 460.593132 76.916087 
L 461.283887 79.256787 
L 461.974641 76.84554 
L 462.665395 76.521487 
L 463.35615 74.866837 
L 464.046904 74.076082 
L 464.737658 72.843724 
L 465.428413 70.873561 
L 466.119167 71.713256 
L 467.500676 68.223544 
L 468.19143 74.366698 
L 468.882185 74.958745 
L 469.572939 74.099222 
L 470.263693 70.187534 
L 470.954448 70.019198 
L 471.645202 69.980759 
L 472.335956 68.891997 
L 473.026711 65.434213 
L 473.717465 81.075513 
L 474.408219 82.081155 
L 475.098974 82.115246 
L 475.789728 84.711187 
L 476.480482 85.99904 
L 477.171237 75.937484 
L 477.861991 75.856594 
L 479.2435 71.735382 
L 479.934254 71.27028 
L 480.625009 70.126472 
L 482.006517 68.532546 
L 482.697272 68.726117 
L 483.388026 67.027621 
L 484.07878 66.666345 
L 485.460289 65.102612 
L 486.151043 65.470624 
L 486.841798 63.951887 
L 488.223306 66.5264 
L 488.914061 71.620357 
L 489.604815 71.002353 
L 490.29557 79.900815 
L 490.986324 68.845469 
L 491.677078 76.026485 
L 492.367833 70.161622 
L 493.058587 69.450787 
L 493.749341 68.044461 
L 494.440096 67.74659 
L 495.13085 66.035228 
L 495.821604 66.332716 
L 496.512359 65.656152 
L 497.203113 63.261939 
L 497.893867 62.820225 
L 498.584622 64.706479 
L 499.275376 63.183911 
L 499.96613 63.779699 
L 500.656885 62.385405 
L 501.347639 72.210962 
L 502.038393 79.298741 
L 502.729148 67.611174 
L 503.419902 71.292924 
L 504.110657 65.57195 
L 504.801411 65.87408 
L 505.492165 65.731386 
L 506.18292 64.713329 
L 506.873674 62.773291 
L 507.564428 62.479768 
L 508.255183 66.577232 
L 508.945937 66.519685 
L 510.327446 61.230602 
L 511.0182 62.26015 
L 511.708954 64.577417 
L 512.399709 60.369862 
L 513.090463 62.304898 
L 513.781217 61.995806 
L 514.471972 58.961554 
L 515.162726 61.233531 
L 516.544235 60.834109 
L 517.234989 62.282705 
L 517.925744 59.540915 
L 518.616498 59.89809 
L 519.307252 58.928139 
L 519.998007 58.878276 
L 520.688761 57.68758 
L 521.379515 59.419424 
L 522.07027 56.967056 
L 522.761024 56.12646 
L 523.451778 65.318782 
L 524.142533 80.476549 
L 524.833287 72.424001 
L 525.524041 68.274331 
L 526.214796 63.020105 
L 526.90555 64.067611 
L 527.596305 66.139798 
L 528.287059 63.451635 
L 528.977813 61.961085 
L 529.668568 61.353739 
L 530.359322 60.904138 
L 531.050076 60.810157 
L 532.431585 60.489281 
L 533.122339 60.746009 
L 533.813094 60.562217 
L 534.503848 59.668648 
L 535.194602 59.764138 
L 535.885357 60.027896 
L 536.576111 60.164823 
L 537.266865 59.600828 
L 538.648374 59.83739 
L 540.029883 59.200098 
L 541.411392 59.165828 
L 542.102146 59.020182 
L 543.483655 58.919419 
L 544.174409 58.500935 
L 544.865163 57.614036 
L 545.555918 58.185647 
L 546.246672 58.045769 
L 546.937426 58.549559 
L 547.628181 57.788793 
L 548.318935 57.762543 
L 549.009689 57.933853 
L 549.700444 57.087827 
L 550.391198 57.638866 
L 551.081952 57.442456 
L 551.772707 57.925584 
L 552.463461 57.56717 
L 553.154216 57.597114 
L 554.535724 58.123414 
L 555.226479 56.879948 
L 555.917233 57.059707 
L 556.607987 56.963451 
L 557.298742 57.381124 
L 557.989496 56.65001 
L 558.68025 56.867938 
L 559.371005 56.39887 
L 560.061759 56.606276 
L 560.752513 56.586223 
L 562.134022 55.90015 
L 562.824776 55.915652 
L 564.206285 55.5343 
L 564.89704 56.488389 
L 565.587794 55.425179 
L 566.278548 55.859142 
L 566.969303 55.265 
L 567.660057 55.910042 
L 569.041566 54.636226 
L 569.73232 54.675769 
L 570.423074 55.32917 
L 571.113829 55.574632 
L 571.804583 54.823488 
L 572.495337 54.845546 
L 573.186092 54.481026 
L 573.876846 54.991035 
L 574.5676 55.157523 
L 575.258355 55.105474 
L 575.949109 54.616375 
L 576.639864 53.785963 
L 578.021372 54.80402 
L 578.712127 54.150078 
L 579.402881 54.151588 
L 580.093635 54.340946 
L 580.78439 54.328373 
L 581.475144 54.506532 
L 582.165898 54.237682 
L 582.856653 54.345204 
L 583.547407 54.596141 
L 584.238161 53.195629 
L 584.928916 53.500034 
L 585.61967 53.091937 
L 586.310424 53.957611 
L 587.691933 53.479508 
L 588.382688 54.182276 
L 588.382688 54.182276 
" clip-path="url(#p224917f22b)" style="fill: none; stroke: #008000; stroke-width: 1.5; stroke-linecap: square"/>
   </g>
   <g id="patch_3">
    <path d="M 231.262688 311.6435 
L 231.262688 45.5315 
" style="fill: none; stroke: #000000; stroke-width: 0.8; stroke-linejoin: miter; stroke-linecap: square"/>
   </g>
   <g id="patch_4">
    <path d="M 588.382688 311.6435 
L 588.382688 45.5315 
" style="fill: none; stroke: #000000; stroke-width: 0.8; stroke-linejoin: miter; stroke-linecap: square"/>
   </g>
   <g id="patch_5">
    <path d="M 231.262688 311.6435 
L 588.382688 311.6435 
" style="fill: none; stroke: #000000; stroke-width: 0.8; stroke-linejoin: miter; stroke-linecap: square"/>
   </g>
   <g id="patch_6">
    <path d="M 231.262688 45.5315 
L 588.382688 45.5315 
" style="fill: none; stroke: #000000; stroke-width: 0.8; stroke-linejoin: miter; stroke-linecap: square"/>
   </g>
   <g id="text_10">
    <!-- Loss of the 16_05_25_CINIC10_torch_model_(3072+128*15+1)_ct+(D=0) -->
    <g transform="translate(7.2 25.5315) scale(0.264 -0.264)">
     <defs>
      <path id="TimesNewRomanPSMT-68" d="M 1041 4444 
L 1041 2350 
Q 1388 2731 1591 2839 
Q 1794 2947 1997 2947 
Q 2241 2947 2416 2812 
Q 2591 2678 2675 2391 
Q 2734 2191 2734 1659 
L 2734 647 
Q 2734 375 2778 275 
Q 2809 200 2884 156 
Q 2959 113 3159 113 
L 3159 0 
L 1753 0 
L 1753 113 
L 1819 113 
Q 2019 113 2097 173 
Q 2175 234 2206 353 
Q 2216 403 2216 647 
L 2216 1659 
Q 2216 2128 2167 2275 
Q 2119 2422 2012 2495 
Q 1906 2569 1756 2569 
Q 1603 2569 1437 2487 
Q 1272 2406 1041 2159 
L 1041 647 
Q 1041 353 1073 281 
Q 1106 209 1195 161 
Q 1284 113 1503 113 
L 1503 0 
L 84 0 
L 84 113 
Q 275 113 384 172 
Q 447 203 484 290 
Q 522 378 522 647 
L 522 3238 
Q 522 3728 498 3840 
Q 475 3953 426 3993 
Q 378 4034 297 4034 
Q 231 4034 84 3984 
L 41 4094 
L 897 4444 
L 1041 4444 
z
" transform="scale(0.015625)"/>
      <path id="TimesNewRomanPSMT-36" d="M 2869 4325 
L 2869 4209 
Q 2456 4169 2195 4045 
Q 1934 3922 1679 3669 
Q 1425 3416 1258 3105 
Q 1091 2794 978 2366 
Q 1428 2675 1881 2675 
Q 2316 2675 2634 2325 
Q 2953 1975 2953 1425 
Q 2953 894 2631 456 
Q 2244 -75 1606 -75 
Q 1172 -75 869 213 
Q 275 772 275 1663 
Q 275 2231 503 2743 
Q 731 3256 1154 3653 
Q 1578 4050 1965 4187 
Q 2353 4325 2688 4325 
L 2869 4325 
z
M 925 2138 
Q 869 1716 869 1456 
Q 869 1156 980 804 
Q 1091 453 1309 247 
Q 1469 100 1697 100 
Q 1969 100 2183 356 
Q 2397 613 2397 1088 
Q 2397 1622 2184 2012 
Q 1972 2403 1581 2403 
Q 1463 2403 1327 2353 
Q 1191 2303 925 2138 
z
" transform="scale(0.015625)"/>
      <path id="TimesNewRomanPSMT-5f" d="M 3256 -1381 
L -53 -1381 
L -53 -1119 
L 3256 -1119 
L 3256 -1381 
z
" transform="scale(0.015625)"/>
      <path id="TimesNewRomanPSMT-35" d="M 2778 4238 
L 2534 3706 
L 1259 3706 
L 981 3138 
Q 1809 3016 2294 2522 
Q 2709 2097 2709 1522 
Q 2709 1188 2573 903 
Q 2438 619 2231 419 
Q 2025 219 1772 97 
Q 1413 -75 1034 -75 
Q 653 -75 479 54 
Q 306 184 306 341 
Q 306 428 378 495 
Q 450 563 559 563 
Q 641 563 702 538 
Q 763 513 909 409 
Q 1144 247 1384 247 
Q 1750 247 2026 523 
Q 2303 800 2303 1197 
Q 2303 1581 2056 1914 
Q 1809 2247 1375 2428 
Q 1034 2569 447 2591 
L 1259 4238 
L 2778 4238 
z
" transform="scale(0.015625)"/>
      <path id="TimesNewRomanPSMT-43" d="M 3853 4334 
L 3950 2894 
L 3853 2894 
Q 3659 3541 3300 3825 
Q 2941 4109 2438 4109 
Q 2016 4109 1675 3895 
Q 1334 3681 1139 3212 
Q 944 2744 944 2047 
Q 944 1472 1128 1050 
Q 1313 628 1683 403 
Q 2053 178 2528 178 
Q 2941 178 3256 354 
Q 3572 531 3950 1056 
L 4047 994 
Q 3728 428 3303 165 
Q 2878 -97 2294 -97 
Q 1241 -97 663 684 
Q 231 1266 231 2053 
Q 231 2688 515 3219 
Q 800 3750 1298 4042 
Q 1797 4334 2388 4334 
Q 2847 4334 3294 4109 
Q 3425 4041 3481 4041 
Q 3566 4041 3628 4100 
Q 3709 4184 3744 4334 
L 3853 4334 
z
" transform="scale(0.015625)"/>
      <path id="TimesNewRomanPSMT-49" d="M 1975 116 
L 1975 0 
L 159 0 
L 159 116 
L 309 116 
Q 572 116 691 269 
Q 766 369 766 750 
L 766 3488 
Q 766 3809 725 3913 
Q 694 3991 597 4047 
Q 459 4122 309 4122 
L 159 4122 
L 159 4238 
L 1975 4238 
L 1975 4122 
L 1822 4122 
Q 1563 4122 1444 3969 
Q 1366 3869 1366 3488 
L 1366 750 
Q 1366 428 1406 325 
Q 1438 247 1538 191 
Q 1672 116 1822 116 
L 1975 116 
z
" transform="scale(0.015625)"/>
      <path id="TimesNewRomanPSMT-63" d="M 2631 1088 
Q 2516 522 2178 217 
Q 1841 -88 1431 -88 
Q 944 -88 581 321 
Q 219 731 219 1428 
Q 219 2103 620 2525 
Q 1022 2947 1584 2947 
Q 2006 2947 2278 2723 
Q 2550 2500 2550 2259 
Q 2550 2141 2473 2067 
Q 2397 1994 2259 1994 
Q 2075 1994 1981 2113 
Q 1928 2178 1911 2362 
Q 1894 2547 1784 2644 
Q 1675 2738 1481 2738 
Q 1169 2738 978 2506 
Q 725 2200 725 1697 
Q 725 1184 976 792 
Q 1228 400 1656 400 
Q 1963 400 2206 609 
Q 2378 753 2541 1131 
L 2631 1088 
z
" transform="scale(0.015625)"/>
      <path id="TimesNewRomanPSMT-64" d="M 2222 322 
Q 2013 103 1813 7 
Q 1613 -88 1381 -88 
Q 913 -88 563 304 
Q 213 697 213 1313 
Q 213 1928 600 2439 
Q 988 2950 1597 2950 
Q 1975 2950 2222 2709 
L 2222 3238 
Q 2222 3728 2198 3840 
Q 2175 3953 2125 3993 
Q 2075 4034 2000 4034 
Q 1919 4034 1784 3984 
L 1744 4094 
L 2597 4444 
L 2738 4444 
L 2738 1134 
Q 2738 631 2761 520 
Q 2784 409 2836 365 
Q 2888 322 2956 322 
Q 3041 322 3181 375 
L 3216 266 
L 2366 -88 
L 2222 -88 
L 2222 322 
z
M 2222 541 
L 2222 2016 
Q 2203 2228 2109 2403 
Q 2016 2578 1861 2667 
Q 1706 2756 1559 2756 
Q 1284 2756 1069 2509 
Q 784 2184 784 1559 
Q 784 928 1059 592 
Q 1334 256 1672 256 
Q 1956 256 2222 541 
z
" transform="scale(0.015625)"/>
      <path id="TimesNewRomanPSMT-6c" d="M 1184 4444 
L 1184 647 
Q 1184 378 1223 290 
Q 1263 203 1344 158 
Q 1425 113 1647 113 
L 1647 0 
L 244 0 
L 244 113 
Q 441 113 512 153 
Q 584 194 625 287 
Q 666 381 666 647 
L 666 3247 
Q 666 3731 644 3842 
Q 622 3953 573 3993 
Q 525 4034 450 4034 
Q 369 4034 244 3984 
L 191 4094 
L 1044 4444 
L 1184 4444 
z
" transform="scale(0.015625)"/>
      <path id="TimesNewRomanPSMT-28" d="M 1988 -1253 
L 1988 -1369 
Q 1516 -1131 1200 -813 
Q 750 -359 506 256 
Q 263 872 263 1534 
Q 263 2503 741 3301 
Q 1219 4100 1988 4444 
L 1988 4313 
Q 1603 4100 1356 3731 
Q 1109 3363 987 2797 
Q 866 2231 866 1616 
Q 866 947 969 400 
Q 1050 -31 1165 -292 
Q 1281 -553 1476 -793 
Q 1672 -1034 1988 -1253 
z
" transform="scale(0.015625)"/>
      <path id="TimesNewRomanPSMT-37" d="M 644 4238 
L 2916 4238 
L 2916 4119 
L 1503 -88 
L 1153 -88 
L 2419 3728 
L 1253 3728 
Q 900 3728 750 3644 
Q 488 3500 328 3200 
L 238 3234 
L 644 4238 
z
" transform="scale(0.015625)"/>
      <path id="TimesNewRomanPSMT-2b" d="M 1672 441 
L 1672 2000 
L 116 2000 
L 116 2256 
L 1672 2256 
L 1672 3809 
L 1922 3809 
L 1922 2256 
L 3484 2256 
L 3484 2000 
L 1922 2000 
L 1922 441 
L 1672 441 
z
" transform="scale(0.015625)"/>
      <path id="TimesNewRomanPSMT-38" d="M 1228 2134 
Q 725 2547 579 2797 
Q 434 3047 434 3316 
Q 434 3728 753 4026 
Q 1072 4325 1600 4325 
Q 2113 4325 2425 4047 
Q 2738 3769 2738 3413 
Q 2738 3175 2569 2928 
Q 2400 2681 1866 2347 
Q 2416 1922 2594 1678 
Q 2831 1359 2831 1006 
Q 2831 559 2490 242 
Q 2150 -75 1597 -75 
Q 994 -75 656 303 
Q 388 606 388 966 
Q 388 1247 577 1523 
Q 766 1800 1228 2134 
z
M 1719 2469 
Q 2094 2806 2194 3001 
Q 2294 3197 2294 3444 
Q 2294 3772 2109 3958 
Q 1925 4144 1606 4144 
Q 1288 4144 1088 3959 
Q 888 3775 888 3528 
Q 888 3366 970 3203 
Q 1053 3041 1206 2894 
L 1719 2469 
z
M 1375 2016 
Q 1116 1797 991 1539 
Q 866 1281 866 981 
Q 866 578 1086 336 
Q 1306 94 1647 94 
Q 1984 94 2187 284 
Q 2391 475 2391 747 
Q 2391 972 2272 1150 
Q 2050 1481 1375 2016 
z
" transform="scale(0.015625)"/>
      <path id="TimesNewRomanPSMT-2a" d="M 1544 3263 
Q 1531 3478 1456 3691 
Q 1350 3997 1350 4113 
Q 1350 4275 1426 4359 
Q 1503 4444 1616 4444 
Q 1713 4444 1784 4359 
Q 1856 4275 1856 4119 
Q 1856 3978 1773 3726 
Q 1691 3475 1672 3263 
Q 1844 3372 1981 3528 
Q 2194 3775 2297 3834 
Q 2400 3894 2506 3894 
Q 2609 3894 2679 3823 
Q 2750 3753 2750 3656 
Q 2750 3541 2647 3450 
Q 2544 3359 2131 3269 
Q 1891 3216 1731 3147 
Q 1894 3063 2128 3019 
Q 2506 2950 2623 2847 
Q 2741 2744 2741 2622 
Q 2741 2528 2670 2459 
Q 2600 2391 2506 2391 
Q 2413 2391 2298 2456 
Q 2184 2522 1991 2750 
Q 1863 2903 1672 3038 
Q 1678 2859 1744 2650 
Q 1856 2281 1856 2147 
Q 1856 2022 1781 1936 
Q 1706 1850 1622 1850 
Q 1506 1850 1413 1941 
Q 1347 2006 1347 2150 
Q 1347 2300 1419 2511 
Q 1491 2722 1509 2801 
Q 1528 2881 1544 3038 
Q 1359 2916 1222 2766 
Q 994 2509 878 2441 
Q 797 2391 709 2391 
Q 603 2391 528 2462 
Q 453 2534 453 2622 
Q 453 2700 517 2786 
Q 581 2872 709 2928 
Q 794 2966 1094 3028 
Q 1288 3069 1472 3147 
Q 1303 3231 1069 3278 
Q 684 3359 594 3425 
Q 453 3528 453 3675 
Q 453 3759 523 3829 
Q 594 3900 688 3900 
Q 791 3900 906 3834 
Q 1022 3769 1194 3570 
Q 1366 3372 1544 3263 
z
" transform="scale(0.015625)"/>
      <path id="TimesNewRomanPSMT-29" d="M 144 4313 
L 144 4444 
Q 619 4209 934 3891 
Q 1381 3434 1625 2820 
Q 1869 2206 1869 1541 
Q 1869 572 1392 -226 
Q 916 -1025 144 -1369 
L 144 -1253 
Q 528 -1038 776 -670 
Q 1025 -303 1145 264 
Q 1266 831 1266 1447 
Q 1266 2113 1163 2663 
Q 1084 3094 967 3353 
Q 850 3613 656 3853 
Q 463 4094 144 4313 
z
" transform="scale(0.015625)"/>
      <path id="TimesNewRomanPSMT-44" d="M 109 0 
L 109 116 
L 269 116 
Q 538 116 650 288 
Q 719 391 719 750 
L 719 3488 
Q 719 3884 631 3984 
Q 509 4122 269 4122 
L 109 4122 
L 109 4238 
L 1834 4238 
Q 2784 4238 3279 4022 
Q 3775 3806 4076 3303 
Q 4378 2800 4378 2141 
Q 4378 1256 3841 663 
Q 3238 0 2003 0 
L 109 0 
z
M 1319 306 
Q 1716 219 1984 219 
Q 2709 219 3187 728 
Q 3666 1238 3666 2109 
Q 3666 2988 3187 3494 
Q 2709 4000 1959 4000 
Q 1678 4000 1319 3909 
L 1319 306 
z
" transform="scale(0.015625)"/>
      <path id="TimesNewRomanPSMT-3d" d="M 116 2759 
L 3488 2759 
L 3488 2503 
L 116 2503 
L 116 2759 
z
M 116 1741 
L 3488 1741 
L 3488 1484 
L 116 1484 
L 116 1741 
z
" transform="scale(0.015625)"/>
     </defs>
     <use xlink:href="#TimesNewRomanPSMT-4c"/>
     <use xlink:href="#TimesNewRomanPSMT-6f" transform="translate(61.083984 0)"/>
     <use xlink:href="#TimesNewRomanPSMT-73" transform="translate(111.083984 0)"/>
     <use xlink:href="#TimesNewRomanPSMT-73" transform="translate(150 0)"/>
     <use xlink:href="#TimesNewRomanPSMT-20" transform="translate(188.916016 0)"/>
     <use xlink:href="#TimesNewRomanPSMT-6f" transform="translate(213.916016 0)"/>
     <use xlink:href="#TimesNewRomanPSMT-66" transform="translate(263.916016 0)"/>
     <use xlink:href="#TimesNewRomanPSMT-20" transform="translate(297.216797 0)"/>
     <use xlink:href="#TimesNewRomanPSMT-74" transform="translate(322.216797 0)"/>
     <use xlink:href="#TimesNewRomanPSMT-68" transform="translate(350 0)"/>
     <use xlink:href="#TimesNewRomanPSMT-65" transform="translate(400 0)"/>
     <use xlink:href="#TimesNewRomanPSMT-20" transform="translate(444.384766 0)"/>
     <use xlink:href="#TimesNewRomanPSMT-31" transform="translate(469.384766 0)"/>
     <use xlink:href="#TimesNewRomanPSMT-36" transform="translate(519.384766 0)"/>
     <use xlink:href="#TimesNewRomanPSMT-5f" transform="translate(569.384766 0)"/>
     <use xlink:href="#TimesNewRomanPSMT-30" transform="translate(619.384766 0)"/>
     <use xlink:href="#TimesNewRomanPSMT-35" transform="translate(669.384766 0)"/>
     <use xlink:href="#TimesNewRomanPSMT-5f" transform="translate(719.384766 0)"/>
     <use xlink:href="#TimesNewRomanPSMT-32" transform="translate(769.384766 0)"/>
     <use xlink:href="#TimesNewRomanPSMT-35" transform="translate(819.384766 0)"/>
     <use xlink:href="#TimesNewRomanPSMT-5f" transform="translate(869.384766 0)"/>
     <use xlink:href="#TimesNewRomanPSMT-43" transform="translate(919.384766 0)"/>
     <use xlink:href="#TimesNewRomanPSMT-49" transform="translate(986.083984 0)"/>
     <use xlink:href="#TimesNewRomanPSMT-4e" transform="translate(1019.384766 0)"/>
     <use xlink:href="#TimesNewRomanPSMT-49" transform="translate(1091.601562 0)"/>
     <use xlink:href="#TimesNewRomanPSMT-43" transform="translate(1124.902344 0)"/>
     <use xlink:href="#TimesNewRomanPSMT-31" transform="translate(1191.601562 0)"/>
     <use xlink:href="#TimesNewRomanPSMT-30" transform="translate(1241.601562 0)"/>
     <use xlink:href="#TimesNewRomanPSMT-5f" transform="translate(1291.601562 0)"/>
     <use xlink:href="#TimesNewRomanPSMT-74" transform="translate(1341.601562 0)"/>
     <use xlink:href="#TimesNewRomanPSMT-6f" transform="translate(1369.384766 0)"/>
     <use xlink:href="#TimesNewRomanPSMT-72" transform="translate(1419.384766 0)"/>
     <use xlink:href="#TimesNewRomanPSMT-63" transform="translate(1452.685547 0)"/>
     <use xlink:href="#TimesNewRomanPSMT-68" transform="translate(1497.070312 0)"/>
     <use xlink:href="#TimesNewRomanPSMT-5f" transform="translate(1547.070312 0)"/>
     <use xlink:href="#TimesNewRomanPSMT-6d" transform="translate(1597.070312 0)"/>
     <use xlink:href="#TimesNewRomanPSMT-6f" transform="translate(1674.853516 0)"/>
     <use xlink:href="#TimesNewRomanPSMT-64" transform="translate(1724.853516 0)"/>
     <use xlink:href="#TimesNewRomanPSMT-65" transform="translate(1774.853516 0)"/>
     <use xlink:href="#TimesNewRomanPSMT-6c" transform="translate(1819.238281 0)"/>
     <use xlink:href="#TimesNewRomanPSMT-5f" transform="translate(1847.021484 0)"/>
     <use xlink:href="#TimesNewRomanPSMT-28" transform="translate(1897.021484 0)"/>
     <use xlink:href="#TimesNewRomanPSMT-33" transform="translate(1930.322266 0)"/>
     <use xlink:href="#TimesNewRomanPSMT-30" transform="translate(1980.322266 0)"/>
     <use xlink:href="#TimesNewRomanPSMT-37" transform="translate(2030.322266 0)"/>
     <use xlink:href="#TimesNewRomanPSMT-32" transform="translate(2080.322266 0)"/>
     <use xlink:href="#TimesNewRomanPSMT-2b" transform="translate(2130.322266 0)"/>
     <use xlink:href="#TimesNewRomanPSMT-31" transform="translate(2186.71875 0)"/>
     <use xlink:href="#TimesNewRomanPSMT-32" transform="translate(2236.71875 0)"/>
     <use xlink:href="#TimesNewRomanPSMT-38" transform="translate(2286.71875 0)"/>
     <use xlink:href="#TimesNewRomanPSMT-2a" transform="translate(2336.71875 0)"/>
     <use xlink:href="#TimesNewRomanPSMT-31" transform="translate(2386.71875 0)"/>
     <use xlink:href="#TimesNewRomanPSMT-35" transform="translate(2436.71875 0)"/>
     <use xlink:href="#TimesNewRomanPSMT-2b" transform="translate(2486.71875 0)"/>
     <use xlink:href="#TimesNewRomanPSMT-31" transform="translate(2543.115234 0)"/>
     <use xlink:href="#TimesNewRomanPSMT-29" transform="translate(2593.115234 0)"/>
     <use xlink:href="#TimesNewRomanPSMT-5f" transform="translate(2626.416016 0)"/>
     <use xlink:href="#TimesNewRomanPSMT-63" transform="translate(2676.416016 0)"/>
     <use xlink:href="#TimesNewRomanPSMT-74" transform="translate(2720.800781 0)"/>
     <use xlink:href="#TimesNewRomanPSMT-2b" transform="translate(2748.583984 0)"/>
     <use xlink:href="#TimesNewRomanPSMT-28" transform="translate(2804.980469 0)"/>
     <use xlink:href="#TimesNewRomanPSMT-44" transform="translate(2838.28125 0)"/>
     <use xlink:href="#TimesNewRomanPSMT-3d" transform="translate(2910.498047 0)"/>
     <use xlink:href="#TimesNewRomanPSMT-30" transform="translate(2966.894531 0)"/>
     <use xlink:href="#TimesNewRomanPSMT-29" transform="translate(3016.894531 0)"/>
    </g>
   </g>
   <g id="legend_1">
    <g id="patch_7">
     <path d="M 372.425188 213.014062 
L 572.982688 213.014062 
Q 577.382688 213.014062 577.382688 208.614062 
L 577.382688 148.560937 
Q 577.382688 144.160937 572.982688 144.160937 
L 372.425188 144.160937 
Q 368.025188 144.160937 368.025188 148.560937 
L 368.025188 208.614062 
Q 368.025188 213.014062 372.425188 213.014062 
z
" style="fill: #ffffff; opacity: 0.8; stroke: #cccccc; stroke-linejoin: miter"/>
    </g>
    <g id="line2d_17">
     <path d="M 376.825188 160.660937 
L 398.825188 160.660937 
L 420.825188 160.660937 
" style="fill: none; stroke: #ffa500; stroke-width: 1.5; stroke-linecap: square"/>
    </g>
    <g id="text_11">
     <!-- Training loss -->
     <g transform="translate(438.425188 168.360937) scale(0.22 -0.22)">
      <defs>
       <path id="TimesNewRomanPSMT-54" d="M 3703 4238 
L 3750 3244 
L 3631 3244 
Q 3597 3506 3538 3619 
Q 3441 3800 3280 3886 
Q 3119 3972 2856 3972 
L 2259 3972 
L 2259 734 
Q 2259 344 2344 247 
Q 2463 116 2709 116 
L 2856 116 
L 2856 0 
L 1059 0 
L 1059 116 
L 1209 116 
Q 1478 116 1591 278 
Q 1659 378 1659 734 
L 1659 3972 
L 1150 3972 
Q 853 3972 728 3928 
Q 566 3869 450 3700 
Q 334 3531 313 3244 
L 194 3244 
L 244 4238 
L 3703 4238 
z
" transform="scale(0.015625)"/>
       <path id="TimesNewRomanPSMT-67" d="M 966 1044 
Q 703 1172 562 1401 
Q 422 1631 422 1909 
Q 422 2334 742 2640 
Q 1063 2947 1563 2947 
Q 1972 2947 2272 2747 
L 2878 2747 
Q 3013 2747 3034 2739 
Q 3056 2731 3066 2713 
Q 3084 2684 3084 2613 
Q 3084 2531 3069 2500 
Q 3059 2484 3036 2475 
Q 3013 2466 2878 2466 
L 2506 2466 
Q 2681 2241 2681 1891 
Q 2681 1491 2375 1206 
Q 2069 922 1553 922 
Q 1341 922 1119 984 
Q 981 866 932 777 
Q 884 688 884 625 
Q 884 572 936 522 
Q 988 472 1138 450 
Q 1225 438 1575 428 
Q 2219 413 2409 384 
Q 2700 344 2873 169 
Q 3047 -6 3047 -263 
Q 3047 -616 2716 -925 
Q 2228 -1381 1444 -1381 
Q 841 -1381 425 -1109 
Q 191 -953 191 -784 
Q 191 -709 225 -634 
Q 278 -519 444 -313 
Q 466 -284 763 25 
Q 600 122 533 198 
Q 466 275 466 372 
Q 466 481 555 628 
Q 644 775 966 1044 
z
M 1509 2797 
Q 1278 2797 1122 2612 
Q 966 2428 966 2047 
Q 966 1553 1178 1281 
Q 1341 1075 1591 1075 
Q 1828 1075 1981 1253 
Q 2134 1431 2134 1813 
Q 2134 2309 1919 2591 
Q 1759 2797 1509 2797 
z
M 934 0 
Q 788 -159 713 -296 
Q 638 -434 638 -550 
Q 638 -700 819 -813 
Q 1131 -1006 1722 -1006 
Q 2284 -1006 2551 -807 
Q 2819 -609 2819 -384 
Q 2819 -222 2659 -153 
Q 2497 -84 2016 -72 
Q 1313 -53 934 0 
z
" transform="scale(0.015625)"/>
      </defs>
      <use xlink:href="#TimesNewRomanPSMT-54"/>
      <use xlink:href="#TimesNewRomanPSMT-72" transform="translate(57.583984 0)"/>
      <use xlink:href="#TimesNewRomanPSMT-61" transform="translate(90.884766 0)"/>
      <use xlink:href="#TimesNewRomanPSMT-69" transform="translate(135.269531 0)"/>
      <use xlink:href="#TimesNewRomanPSMT-6e" transform="translate(163.052734 0)"/>
      <use xlink:href="#TimesNewRomanPSMT-69" transform="translate(213.052734 0)"/>
      <use xlink:href="#TimesNewRomanPSMT-6e" transform="translate(240.835938 0)"/>
      <use xlink:href="#TimesNewRomanPSMT-67" transform="translate(290.835938 0)"/>
      <use xlink:href="#TimesNewRomanPSMT-20" transform="translate(340.835938 0)"/>
      <use xlink:href="#TimesNewRomanPSMT-6c" transform="translate(365.835938 0)"/>
      <use xlink:href="#TimesNewRomanPSMT-6f" transform="translate(393.619141 0)"/>
      <use xlink:href="#TimesNewRomanPSMT-73" transform="translate(443.619141 0)"/>
      <use xlink:href="#TimesNewRomanPSMT-73" transform="translate(482.535156 0)"/>
     </g>
    </g>
    <g id="line2d_18">
     <path d="M 376.825188 191.808125 
L 398.825188 191.808125 
L 420.825188 191.808125 
" style="fill: none; stroke: #008000; stroke-width: 1.5; stroke-linecap: square"/>
    </g>
    <g id="text_12">
     <!-- Validation loss -->
     <g transform="translate(438.425188 199.508125) scale(0.22 -0.22)">
      <defs>
       <path id="TimesNewRomanPSMT-56" d="M 4544 4238 
L 4544 4122 
Q 4319 4081 4203 3978 
Q 4038 3825 3909 3509 
L 2431 -97 
L 2316 -97 
L 728 3556 
Q 606 3838 556 3900 
Q 478 3997 364 4051 
Q 250 4106 56 4122 
L 56 4238 
L 1788 4238 
L 1788 4122 
Q 1494 4094 1406 4022 
Q 1319 3950 1319 3838 
Q 1319 3681 1463 3350 
L 2541 866 
L 3541 3319 
Q 3688 3681 3688 3822 
Q 3688 3913 3597 3995 
Q 3506 4078 3291 4113 
Q 3275 4116 3238 4122 
L 3238 4238 
L 4544 4238 
z
" transform="scale(0.015625)"/>
      </defs>
      <use xlink:href="#TimesNewRomanPSMT-56"/>
      <use xlink:href="#TimesNewRomanPSMT-61" transform="translate(61.091797 0)"/>
      <use xlink:href="#TimesNewRomanPSMT-6c" transform="translate(105.476562 0)"/>
      <use xlink:href="#TimesNewRomanPSMT-69" transform="translate(133.259766 0)"/>
      <use xlink:href="#TimesNewRomanPSMT-64" transform="translate(161.042969 0)"/>
      <use xlink:href="#TimesNewRomanPSMT-61" transform="translate(211.042969 0)"/>
      <use xlink:href="#TimesNewRomanPSMT-74" transform="translate(255.427734 0)"/>
      <use xlink:href="#TimesNewRomanPSMT-69" transform="translate(283.210938 0)"/>
      <use xlink:href="#TimesNewRomanPSMT-6f" transform="translate(310.994141 0)"/>
      <use xlink:href="#TimesNewRomanPSMT-6e" transform="translate(360.994141 0)"/>
      <use xlink:href="#TimesNewRomanPSMT-20" transform="translate(410.994141 0)"/>
      <use xlink:href="#TimesNewRomanPSMT-6c" transform="translate(435.994141 0)"/>
      <use xlink:href="#TimesNewRomanPSMT-6f" transform="translate(463.777344 0)"/>
      <use xlink:href="#TimesNewRomanPSMT-73" transform="translate(513.777344 0)"/>
      <use xlink:href="#TimesNewRomanPSMT-73" transform="translate(552.693359 0)"/>
     </g>
    </g>
   </g>
  </g>
 </g>
 <defs>
  <clipPath id="p224917f22b">
   <rect x="231.262688" y="45.5315" width="357.12" height="266.112"/>
  </clipPath>
 </defs>
</svg>
