<?xml version="1.0" encoding="utf-8" standalone="no"?>
<!DOCTYPE svg PUBLIC "-//W3C//DTD SVG 1.1//EN"
  "http://www.w3.org/Graphics/SVG/1.1/DTD/svg11.dtd">
<svg xmlns:xlink="http://www.w3.org/1999/xlink" width="921.075pt" height="383.265687pt" viewBox="0 0 921.075 383.265687" xmlns="http://www.w3.org/2000/svg" version="1.1">
 <metadata>
  <rdf:RDF xmlns:dc="http://purl.org/dc/elements/1.1/" xmlns:cc="http://creativecommons.org/ns#" xmlns:rdf="http://www.w3.org/1999/02/22-rdf-syntax-ns#">
   <cc:Work>
    <dc:type rdf:resource="http://purl.org/dc/dcmitype/StillImage"/>
    <dc:date>2025-05-15T15:28:50.150433</dc:date>
    <dc:format>image/svg+xml</dc:format>
    <dc:creator>
     <cc:Agent>
      <dc:title>Matplotlib v3.10.1, https://matplotlib.org/</dc:title>
     </cc:Agent>
    </dc:creator>
   </cc:Work>
  </rdf:RDF>
 </metadata>
 <defs>
  <style type="text/css">*{stroke-linejoin: round; stroke-linecap: butt}</style>
 </defs>
 <g id="figure_1">
  <g id="patch_1">
   <path d="M 0 383.265687 
L 921.075 383.265687 
L 921.075 0 
L 0 0 
z
" style="fill: #ffffff"/>
  </g>
  <g id="axes_1">
   <g id="patch_2">
    <path d="M 281.9775 311.6435 
L 639.0975 311.6435 
L 639.0975 45.5315 
L 281.9775 45.5315 
z
" style="fill: #ffffff"/>
   </g>
   <g id="matplotlib.axis_1">
    <g id="xtick_1">
     <g id="line2d_1">
      <path d="M 281.9775 311.6435 
L 281.9775 45.5315 
" clip-path="url(#p1044e92305)" style="fill: none; stroke: #b0b0b0; stroke-opacity: 0.3; stroke-width: 0.8; stroke-linecap: square"/>
     </g>
     <g id="line2d_2">
      <defs>
       <path id="m41304fae1b" d="M 0 0 
L 0 3.5 
" style="stroke: #000000; stroke-width: 0.8"/>
      </defs>
      <g>
       <use xlink:href="#m41304fae1b" x="281.9775" y="311.6435" style="stroke: #000000; stroke-width: 0.8"/>
      </g>
     </g>
     <g id="text_1">
      <!-- 0.00 -->
      <g transform="translate(262.7275 333.91975) scale(0.22 -0.22)">
       <defs>
        <path id="TimesNewRomanPSMT-30" d="M 231 2094 
Q 231 2819 450 3342 
Q 669 3866 1031 4122 
Q 1313 4325 1613 4325 
Q 2100 4325 2488 3828 
Q 2972 3213 2972 2159 
Q 2972 1422 2759 906 
Q 2547 391 2217 158 
Q 1888 -75 1581 -75 
Q 975 -75 572 641 
Q 231 1244 231 2094 
z
M 844 2016 
Q 844 1141 1059 588 
Q 1238 122 1591 122 
Q 1759 122 1940 273 
Q 2122 425 2216 781 
Q 2359 1319 2359 2297 
Q 2359 3022 2209 3506 
Q 2097 3866 1919 4016 
Q 1791 4119 1609 4119 
Q 1397 4119 1231 3928 
Q 1006 3669 925 3112 
Q 844 2556 844 2016 
z
" transform="scale(0.015625)"/>
        <path id="TimesNewRomanPSMT-2e" d="M 800 606 
Q 947 606 1047 504 
Q 1147 403 1147 259 
Q 1147 116 1045 14 
Q 944 -88 800 -88 
Q 656 -88 554 14 
Q 453 116 453 259 
Q 453 406 554 506 
Q 656 606 800 606 
z
" transform="scale(0.015625)"/>
       </defs>
       <use xlink:href="#TimesNewRomanPSMT-30"/>
       <use xlink:href="#TimesNewRomanPSMT-2e" transform="translate(50 0)"/>
       <use xlink:href="#TimesNewRomanPSMT-30" transform="translate(75 0)"/>
       <use xlink:href="#TimesNewRomanPSMT-30" transform="translate(125 0)"/>
      </g>
     </g>
    </g>
    <g id="xtick_2">
     <g id="line2d_3">
      <path d="M 358.833373 311.6435 
L 358.833373 45.5315 
" clip-path="url(#p1044e92305)" style="fill: none; stroke: #b0b0b0; stroke-opacity: 0.3; stroke-width: 0.8; stroke-linecap: square"/>
     </g>
     <g id="line2d_4">
      <g>
       <use xlink:href="#m41304fae1b" x="358.833373" y="311.6435" style="stroke: #000000; stroke-width: 0.8"/>
      </g>
     </g>
     <g id="text_2">
      <!-- 0.25 -->
      <g transform="translate(339.583373 333.91975) scale(0.22 -0.22)">
       <defs>
        <path id="TimesNewRomanPSMT-32" d="M 2934 816 
L 2638 0 
L 138 0 
L 138 116 
Q 1241 1122 1691 1759 
Q 2141 2397 2141 2925 
Q 2141 3328 1894 3587 
Q 1647 3847 1303 3847 
Q 991 3847 742 3664 
Q 494 3481 375 3128 
L 259 3128 
Q 338 3706 661 4015 
Q 984 4325 1469 4325 
Q 1984 4325 2329 3994 
Q 2675 3663 2675 3213 
Q 2675 2891 2525 2569 
Q 2294 2063 1775 1497 
Q 997 647 803 472 
L 1909 472 
Q 2247 472 2383 497 
Q 2519 522 2628 598 
Q 2738 675 2819 816 
L 2934 816 
z
" transform="scale(0.015625)"/>
        <path id="TimesNewRomanPSMT-35" d="M 2778 4238 
L 2534 3706 
L 1259 3706 
L 981 3138 
Q 1809 3016 2294 2522 
Q 2709 2097 2709 1522 
Q 2709 1188 2573 903 
Q 2438 619 2231 419 
Q 2025 219 1772 97 
Q 1413 -75 1034 -75 
Q 653 -75 479 54 
Q 306 184 306 341 
Q 306 428 378 495 
Q 450 563 559 563 
Q 641 563 702 538 
Q 763 513 909 409 
Q 1144 247 1384 247 
Q 1750 247 2026 523 
Q 2303 800 2303 1197 
Q 2303 1581 2056 1914 
Q 1809 2247 1375 2428 
Q 1034 2569 447 2591 
L 1259 4238 
L 2778 4238 
z
" transform="scale(0.015625)"/>
       </defs>
       <use xlink:href="#TimesNewRomanPSMT-30"/>
       <use xlink:href="#TimesNewRomanPSMT-2e" transform="translate(50 0)"/>
       <use xlink:href="#TimesNewRomanPSMT-32" transform="translate(75 0)"/>
       <use xlink:href="#TimesNewRomanPSMT-35" transform="translate(125 0)"/>
      </g>
     </g>
    </g>
    <g id="xtick_3">
     <g id="line2d_5">
      <path d="M 435.689246 311.6435 
L 435.689246 45.5315 
" clip-path="url(#p1044e92305)" style="fill: none; stroke: #b0b0b0; stroke-opacity: 0.3; stroke-width: 0.8; stroke-linecap: square"/>
     </g>
     <g id="line2d_6">
      <g>
       <use xlink:href="#m41304fae1b" x="435.689246" y="311.6435" style="stroke: #000000; stroke-width: 0.8"/>
      </g>
     </g>
     <g id="text_3">
      <!-- 0.50 -->
      <g transform="translate(416.439246 333.91975) scale(0.22 -0.22)">
       <use xlink:href="#TimesNewRomanPSMT-30"/>
       <use xlink:href="#TimesNewRomanPSMT-2e" transform="translate(50 0)"/>
       <use xlink:href="#TimesNewRomanPSMT-35" transform="translate(75 0)"/>
       <use xlink:href="#TimesNewRomanPSMT-30" transform="translate(125 0)"/>
      </g>
     </g>
    </g>
    <g id="xtick_4">
     <g id="line2d_7">
      <path d="M 512.545118 311.6435 
L 512.545118 45.5315 
" clip-path="url(#p1044e92305)" style="fill: none; stroke: #b0b0b0; stroke-opacity: 0.3; stroke-width: 0.8; stroke-linecap: square"/>
     </g>
     <g id="line2d_8">
      <g>
       <use xlink:href="#m41304fae1b" x="512.545118" y="311.6435" style="stroke: #000000; stroke-width: 0.8"/>
      </g>
     </g>
     <g id="text_4">
      <!-- 0.75 -->
      <g transform="translate(493.295118 333.91975) scale(0.22 -0.22)">
       <defs>
        <path id="TimesNewRomanPSMT-37" d="M 644 4238 
L 2916 4238 
L 2916 4119 
L 1503 -88 
L 1153 -88 
L 2419 3728 
L 1253 3728 
Q 900 3728 750 3644 
Q 488 3500 328 3200 
L 238 3234 
L 644 4238 
z
" transform="scale(0.015625)"/>
       </defs>
       <use xlink:href="#TimesNewRomanPSMT-30"/>
       <use xlink:href="#TimesNewRomanPSMT-2e" transform="translate(50 0)"/>
       <use xlink:href="#TimesNewRomanPSMT-37" transform="translate(75 0)"/>
       <use xlink:href="#TimesNewRomanPSMT-35" transform="translate(125 0)"/>
      </g>
     </g>
    </g>
    <g id="xtick_5">
     <g id="line2d_9">
      <path d="M 589.400991 311.6435 
L 589.400991 45.5315 
" clip-path="url(#p1044e92305)" style="fill: none; stroke: #b0b0b0; stroke-opacity: 0.3; stroke-width: 0.8; stroke-linecap: square"/>
     </g>
     <g id="line2d_10">
      <g>
       <use xlink:href="#m41304fae1b" x="589.400991" y="311.6435" style="stroke: #000000; stroke-width: 0.8"/>
      </g>
     </g>
     <g id="text_5">
      <!-- 1.00 -->
      <g transform="translate(570.150991 333.91975) scale(0.22 -0.22)">
       <defs>
        <path id="TimesNewRomanPSMT-31" d="M 750 3822 
L 1781 4325 
L 1884 4325 
L 1884 747 
Q 1884 391 1914 303 
Q 1944 216 2037 169 
Q 2131 122 2419 116 
L 2419 0 
L 825 0 
L 825 116 
Q 1125 122 1212 167 
Q 1300 213 1334 289 
Q 1369 366 1369 747 
L 1369 3034 
Q 1369 3497 1338 3628 
Q 1316 3728 1258 3775 
Q 1200 3822 1119 3822 
Q 1003 3822 797 3725 
L 750 3822 
z
" transform="scale(0.015625)"/>
       </defs>
       <use xlink:href="#TimesNewRomanPSMT-31"/>
       <use xlink:href="#TimesNewRomanPSMT-2e" transform="translate(50 0)"/>
       <use xlink:href="#TimesNewRomanPSMT-30" transform="translate(75 0)"/>
       <use xlink:href="#TimesNewRomanPSMT-30" transform="translate(125 0)"/>
      </g>
     </g>
    </g>
    <g id="text_6">
     <!-- $\kappa  = \frac{ln(n)}{ln(d)}$ -->
     <g transform="translate(428.5275 364.185687) scale(0.22 -0.22)">
      <defs>
       <path id="STIXGeneral-Italic-3ba" d="M 979 1440 
L 998 1446 
Q 1850 2541 2464 2790 
Q 2547 2822 2630 2822 
Q 2797 2822 2886 2736 
Q 2976 2650 2976 2522 
Q 2976 2387 2893 2307 
Q 2810 2227 2682 2227 
Q 2605 2227 2502 2288 
Q 2400 2349 2336 2349 
Q 2170 2349 1990 2205 
Q 1811 2061 1414 1645 
L 2042 544 
Q 2202 262 2310 182 
Q 2419 102 2624 102 
L 2624 0 
Q 2374 -83 2182 -83 
Q 1786 -83 1555 326 
L 960 1350 
L 576 0 
L 90 0 
L 640 1978 
Q 730 2317 730 2406 
Q 730 2560 518 2560 
L 339 2560 
L 339 2650 
Q 678 2694 1306 2822 
L 1325 2803 
L 979 1440 
z
" transform="scale(0.015625)"/>
       <path id="STIXGeneral-Regular-3d" d="M 4077 2048 
L 307 2048 
L 307 2470 
L 4077 2470 
L 4077 2048 
z
M 4077 768 
L 307 768 
L 307 1190 
L 4077 1190 
L 4077 768 
z
" transform="scale(0.015625)"/>
       <path id="STIXGeneral-Italic-6c" d="M 1786 4339 
L 806 595 
Q 755 410 755 320 
Q 755 205 864 205 
Q 1037 205 1293 570 
L 1453 794 
L 1542 730 
Q 1254 275 1046 102 
Q 838 -70 576 -70 
Q 262 -70 262 288 
Q 262 397 288 480 
L 1165 3834 
Q 1184 3898 1184 3955 
Q 1184 4096 870 4096 
L 755 4096 
L 755 4198 
Q 1203 4250 1747 4371 
L 1786 4339 
z
" transform="scale(0.015625)"/>
       <path id="STIXGeneral-Italic-6e" d="M 2944 749 
L 3034 666 
Q 2707 218 2534 80 
Q 2362 -58 2138 -58 
Q 2010 -58 1923 28 
Q 1837 115 1837 288 
Q 1837 390 1939 768 
L 2221 1805 
Q 2310 2150 2310 2310 
Q 2310 2496 2157 2496 
Q 1971 2496 1750 2275 
Q 1530 2054 1210 1587 
Q 998 1274 899 1024 
Q 800 774 570 0 
L 90 0 
L 704 2240 
Q 717 2304 717 2349 
Q 717 2445 630 2480 
Q 544 2515 301 2522 
L 301 2624 
Q 550 2675 857 2729 
Q 1165 2784 1338 2822 
L 1363 2810 
L 934 1414 
Q 1408 2170 1753 2496 
Q 2099 2822 2413 2822 
Q 2611 2822 2720 2716 
Q 2829 2611 2829 2432 
Q 2829 2272 2765 2048 
L 2406 749 
Q 2317 429 2317 358 
Q 2317 243 2419 243 
Q 2541 243 2810 582 
Q 2854 634 2944 749 
z
" transform="scale(0.015625)"/>
       <path id="STIXGeneral-Regular-28" d="M 1946 -1030 
L 1869 -1133 
Q 1126 -710 716 32 
Q 307 774 307 1613 
Q 307 3386 1888 4326 
L 1946 4224 
Q 1293 3667 1075 3126 
Q 858 2586 858 1632 
Q 858 685 1082 96 
Q 1306 -493 1946 -1030 
z
" transform="scale(0.015625)"/>
       <path id="STIXGeneral-Regular-29" d="M 186 4224 
L 262 4326 
Q 992 3891 1408 3148 
Q 1824 2406 1824 1581 
Q 1824 -166 243 -1133 
L 186 -1030 
Q 845 -486 1059 54 
Q 1274 595 1274 1562 
Q 1274 2534 1059 3120 
Q 845 3706 186 4224 
z
" transform="scale(0.015625)"/>
       <path id="STIXGeneral-Italic-64" d="M 3334 4371 
L 3373 4333 
L 3123 3360 
L 2739 1958 
Q 2323 429 2323 384 
Q 2323 256 2438 256 
Q 2522 256 2614 336 
Q 2707 416 2963 710 
L 3040 646 
Q 2547 -83 2099 -83 
Q 1978 -83 1907 -6 
Q 1837 70 1837 205 
Q 1837 397 1920 774 
Q 1645 307 1379 118 
Q 1114 -70 781 -70 
Q 461 -70 278 125 
Q 96 320 96 678 
Q 96 1440 713 2131 
Q 1331 2822 1965 2822 
Q 2163 2822 2256 2732 
Q 2349 2643 2381 2451 
L 2387 2451 
L 2675 3494 
Q 2765 3808 2765 3949 
Q 2765 4051 2694 4076 
Q 2624 4102 2355 4115 
L 2355 4224 
Q 2848 4269 3334 4371 
z
M 2278 2310 
Q 2278 2477 2185 2576 
Q 2093 2675 1978 2675 
Q 1677 2675 1395 2381 
Q 1075 2042 864 1571 
Q 653 1101 653 704 
Q 653 486 752 361 
Q 851 237 1024 237 
Q 1312 237 1606 550 
Q 1901 864 2089 1350 
Q 2278 1837 2278 2310 
z
" transform="scale(0.015625)"/>
      </defs>
      <use xlink:href="#STIXGeneral-Italic-3ba" transform="translate(0 0.003125)"/>
      <use xlink:href="#STIXGeneral-Regular-3d" transform="translate(58.83999 0.003125)"/>
      <use xlink:href="#STIXGeneral-Italic-6c" transform="translate(141.779971 50.192188) scale(0.7)"/>
      <use xlink:href="#STIXGeneral-Italic-6e" transform="translate(161.239963 50.192188) scale(0.7)"/>
      <use xlink:href="#STIXGeneral-Regular-28" transform="translate(196.239952 50.192188) scale(0.7)"/>
      <use xlink:href="#STIXGeneral-Italic-6e" transform="translate(219.549944 50.192188) scale(0.7)"/>
      <use xlink:href="#STIXGeneral-Regular-29" transform="translate(254.549933 50.192188) scale(0.7)"/>
      <use xlink:href="#STIXGeneral-Italic-6c" transform="translate(141.779971 -41.257812) scale(0.7)"/>
      <use xlink:href="#STIXGeneral-Italic-6e" transform="translate(161.239963 -41.257812) scale(0.7)"/>
      <use xlink:href="#STIXGeneral-Regular-28" transform="translate(196.239952 -41.257812) scale(0.7)"/>
      <use xlink:href="#STIXGeneral-Italic-64" transform="translate(219.549944 -41.257812) scale(0.7)"/>
      <use xlink:href="#STIXGeneral-Regular-29" transform="translate(254.549933 -41.257812) scale(0.7)"/>
      <path d="M 141.779971 12.8 
L 141.779971 19.05 
L 277.859924 19.05 
L 277.859924 12.8 
L 141.779971 12.8 
z
"/>
     </g>
    </g>
   </g>
   <g id="matplotlib.axis_2">
    <g id="ytick_1">
     <g id="line2d_11">
      <path d="M 281.9775 311.6435 
L 639.0975 311.6435 
" clip-path="url(#p1044e92305)" style="fill: none; stroke: #b0b0b0; stroke-opacity: 0.3; stroke-width: 0.8; stroke-linecap: square"/>
     </g>
     <g id="line2d_12">
      <defs>
       <path id="mbc984d1e29" d="M 0 0 
L -3.5 0 
" style="stroke: #000000; stroke-width: 0.8"/>
      </defs>
      <g>
       <use xlink:href="#mbc984d1e29" x="281.9775" y="311.6435" style="stroke: #000000; stroke-width: 0.8"/>
      </g>
     </g>
     <g id="text_7">
      <!-- 0.00 -->
      <g transform="translate(236.4775 319.281625) scale(0.22 -0.22)">
       <use xlink:href="#TimesNewRomanPSMT-30"/>
       <use xlink:href="#TimesNewRomanPSMT-2e" transform="translate(50 0)"/>
       <use xlink:href="#TimesNewRomanPSMT-30" transform="translate(75 0)"/>
       <use xlink:href="#TimesNewRomanPSMT-30" transform="translate(125 0)"/>
      </g>
     </g>
    </g>
    <g id="ytick_2">
     <g id="line2d_13">
      <path d="M 281.9775 224.979255 
L 639.0975 224.979255 
" clip-path="url(#p1044e92305)" style="fill: none; stroke: #b0b0b0; stroke-opacity: 0.3; stroke-width: 0.8; stroke-linecap: square"/>
     </g>
     <g id="line2d_14">
      <g>
       <use xlink:href="#mbc984d1e29" x="281.9775" y="224.979255" style="stroke: #000000; stroke-width: 0.8"/>
      </g>
     </g>
     <g id="text_8">
      <!-- 0.05 -->
      <g transform="translate(236.4775 232.61738) scale(0.22 -0.22)">
       <use xlink:href="#TimesNewRomanPSMT-30"/>
       <use xlink:href="#TimesNewRomanPSMT-2e" transform="translate(50 0)"/>
       <use xlink:href="#TimesNewRomanPSMT-30" transform="translate(75 0)"/>
       <use xlink:href="#TimesNewRomanPSMT-35" transform="translate(125 0)"/>
      </g>
     </g>
    </g>
    <g id="ytick_3">
     <g id="line2d_15">
      <path d="M 281.9775 138.315009 
L 639.0975 138.315009 
" clip-path="url(#p1044e92305)" style="fill: none; stroke: #b0b0b0; stroke-opacity: 0.3; stroke-width: 0.8; stroke-linecap: square"/>
     </g>
     <g id="line2d_16">
      <g>
       <use xlink:href="#mbc984d1e29" x="281.9775" y="138.315009" style="stroke: #000000; stroke-width: 0.8"/>
      </g>
     </g>
     <g id="text_9">
      <!-- 0.10 -->
      <g transform="translate(236.4775 145.953134) scale(0.22 -0.22)">
       <use xlink:href="#TimesNewRomanPSMT-30"/>
       <use xlink:href="#TimesNewRomanPSMT-2e" transform="translate(50 0)"/>
       <use xlink:href="#TimesNewRomanPSMT-31" transform="translate(75 0)"/>
       <use xlink:href="#TimesNewRomanPSMT-30" transform="translate(125 0)"/>
      </g>
     </g>
    </g>
    <g id="ytick_4">
     <g id="line2d_17">
      <path d="M 281.9775 51.650764 
L 639.0975 51.650764 
" clip-path="url(#p1044e92305)" style="fill: none; stroke: #b0b0b0; stroke-opacity: 0.3; stroke-width: 0.8; stroke-linecap: square"/>
     </g>
     <g id="line2d_18">
      <g>
       <use xlink:href="#mbc984d1e29" x="281.9775" y="51.650764" style="stroke: #000000; stroke-width: 0.8"/>
      </g>
     </g>
     <g id="text_10">
      <!-- 0.15 -->
      <g transform="translate(236.4775 59.288889) scale(0.22 -0.22)">
       <use xlink:href="#TimesNewRomanPSMT-30"/>
       <use xlink:href="#TimesNewRomanPSMT-2e" transform="translate(50 0)"/>
       <use xlink:href="#TimesNewRomanPSMT-31" transform="translate(75 0)"/>
       <use xlink:href="#TimesNewRomanPSMT-35" transform="translate(125 0)"/>
      </g>
     </g>
    </g>
    <g id="text_11">
     <!-- Loss -->
     <g transform="translate(227.771563 199.368906) rotate(-90) scale(0.22 -0.22)">
      <defs>
       <path id="TimesNewRomanPSMT-4c" d="M 3669 1172 
L 3772 1150 
L 3409 0 
L 128 0 
L 128 116 
L 288 116 
Q 556 116 672 291 
Q 738 391 738 753 
L 738 3488 
Q 738 3884 650 3984 
Q 528 4122 288 4122 
L 128 4122 
L 128 4238 
L 2047 4238 
L 2047 4122 
Q 1709 4125 1573 4059 
Q 1438 3994 1388 3894 
Q 1338 3794 1338 3416 
L 1338 753 
Q 1338 494 1388 397 
Q 1425 331 1503 300 
Q 1581 269 1991 269 
L 2300 269 
Q 2788 269 2984 341 
Q 3181 413 3343 595 
Q 3506 778 3669 1172 
z
" transform="scale(0.015625)"/>
       <path id="TimesNewRomanPSMT-6f" d="M 1600 2947 
Q 2250 2947 2644 2453 
Q 2978 2031 2978 1484 
Q 2978 1100 2793 706 
Q 2609 313 2286 112 
Q 1963 -88 1566 -88 
Q 919 -88 538 428 
Q 216 863 216 1403 
Q 216 1797 411 2186 
Q 606 2575 925 2761 
Q 1244 2947 1600 2947 
z
M 1503 2744 
Q 1338 2744 1170 2645 
Q 1003 2547 900 2300 
Q 797 2053 797 1666 
Q 797 1041 1045 587 
Q 1294 134 1700 134 
Q 2003 134 2200 384 
Q 2397 634 2397 1244 
Q 2397 2006 2069 2444 
Q 1847 2744 1503 2744 
z
" transform="scale(0.015625)"/>
       <path id="TimesNewRomanPSMT-73" d="M 2050 2947 
L 2050 1972 
L 1947 1972 
Q 1828 2431 1642 2597 
Q 1456 2763 1169 2763 
Q 950 2763 815 2647 
Q 681 2531 681 2391 
Q 681 2216 781 2091 
Q 878 1963 1175 1819 
L 1631 1597 
Q 2266 1288 2266 781 
Q 2266 391 1970 151 
Q 1675 -88 1309 -88 
Q 1047 -88 709 6 
Q 606 38 541 38 
Q 469 38 428 -44 
L 325 -44 
L 325 978 
L 428 978 
Q 516 541 762 319 
Q 1009 97 1316 97 
Q 1531 97 1667 223 
Q 1803 350 1803 528 
Q 1803 744 1651 891 
Q 1500 1038 1047 1263 
Q 594 1488 453 1669 
Q 313 1847 313 2119 
Q 313 2472 555 2709 
Q 797 2947 1181 2947 
Q 1350 2947 1591 2875 
Q 1750 2828 1803 2828 
Q 1853 2828 1881 2850 
Q 1909 2872 1947 2947 
L 2050 2947 
z
" transform="scale(0.015625)"/>
      </defs>
      <use xlink:href="#TimesNewRomanPSMT-4c"/>
      <use xlink:href="#TimesNewRomanPSMT-6f" transform="translate(61.083984 0)"/>
      <use xlink:href="#TimesNewRomanPSMT-73" transform="translate(111.083984 0)"/>
      <use xlink:href="#TimesNewRomanPSMT-73" transform="translate(150 0)"/>
     </g>
    </g>
   </g>
   <g id="line2d_19">
    <path d="M 281.9775 86.18059 
L 388.444339 93.632446 
L 417.128946 106.064462 
L 434.404377 107.530677 
L 446.805479 110.196367 
L 456.486033 110.051137 
L 464.427559 113.442903 
L 471.160728 112.532919 
L 477.005158 114.038999 
L 482.168344 115.532127 
L 486.792649 118.148602 
L 490.980005 119.627265 
L 494.805904 114.833726 
L 498.327821 120.056177 
L 501.590525 121.918102 
L 504.62957 118.735697 
L 507.473662 121.931894 
L 510.146314 120.408122 
L 512.667024 123.182071 
L 515.052143 122.548614 
L 517.315516 127.934544 
L 519.46897 126.104904 
L 521.52269 125.434643 
L 523.485506 127.779977 
L 525.365125 131.084238 
L 527.168314 127.653562 
L 530.568624 130.976703 
L 532.175767 131.461403 
L 533.726704 129.72889 
L 535.225234 127.267808 
L 536.674783 130.343414 
L 538.078452 129.846768 
L 539.439057 134.655134 
L 540.75916 137.297811 
L 542.041105 132.689794 
L 543.287035 132.114657 
L 544.498919 134.338095 
L 545.678567 137.432827 
L 546.827652 136.646818 
L 547.947715 134.022826 
L 549.040188 132.827302 
L 550.106396 135.935606 
L 551.147574 135.327849 
L 552.164869 135.697201 
L 553.159353 132.340626 
L 554.132026 137.048623 
L 555.083824 132.443589 
L 556.015626 132.788315 
L 556.928252 139.57966 
L 557.822478 133.760531 
L 558.69903 139.387009 
L 559.558593 141.572778 
L 560.401814 139.997685 
L 561.229302 145.293863 
L 562.041634 143.276893 
L 562.839354 137.293124 
L 563.62298 143.093295 
L 564.393 143.340094 
L 565.14988 144.614962 
L 565.894059 149.533393 
L 566.625957 146.260707 
L 567.345974 140.118276 
L 568.054488 140.270971 
L 569.438439 149.512666 
L 570.11455 149.24022 
L 570.780509 152.761268 
L 571.436616 147.694701 
L 572.083158 150.47171 
L 572.720411 144.44495 
L 573.348637 145.839324 
L 573.968088 145.103731 
L 574.579007 149.082114 
L 575.181625 147.327453 
L 576.36284 149.755049 
L 576.941857 148.444151 
L 577.513411 152.482171 
L 578.077693 153.733045 
L 578.634886 151.305721 
L 579.185166 143.234858 
L 579.728702 144.450709 
L 580.265658 153.890363 
L 580.79619 159.564507 
L 581.320452 159.498504 
L 582.350742 147.3843 
L 582.857048 150.913458 
L 583.35764 158.257664 
L 583.852645 153.600457 
L 584.342186 154.04741 
L 585.30535 161.504587 
L 585.779201 155.933987 
L 586.248042 148.12657 
L 586.711979 157.830844 
L 587.171113 150.477625 
L 587.625543 155.60902 
L 588.075364 166.481183 
L 588.961546 157.465495 
L 589.398085 151.014549 
L 589.830369 158.011059 
L 590.25848 159.802086 
L 590.682498 152.03465 
L 591.102501 162.772766 
L 591.518563 160.456114 
L 591.930759 156.698353 
L 592.339159 166.057268 
L 592.743833 165.001176 
L 593.144848 161.942461 
L 593.54227 154.096418 
L 593.936162 161.654273 
L 594.326586 161.5514 
L 594.713604 158.348411 
L 595.097274 159.996648 
L 595.477653 158.572933 
L 596.228762 165.943651 
L 596.5996 165.083645 
L 596.967363 161.203627 
L 597.332101 164.010183 
L 597.693865 163.101917 
L 598.052701 163.051023 
L 598.408657 164.542923 
L 598.76178 172.600794 
L 599.4597 166.939642 
L 599.804585 166.360734 
L 600.146808 152.900339 
L 600.486411 166.74251 
L 600.823434 175.044261 
L 601.157914 173.034484 
L 601.489891 173.795324 
L 601.819402 178.852426 
L 602.146483 159.148561 
L 602.471169 157.808219 
L 602.793495 180.997463 
L 603.431205 164.96224 
L 603.746654 160.304104 
L 604.059875 179.330023 
L 604.370899 174.279353 
L 604.679758 167.049139 
L 604.986481 179.462017 
L 605.291097 165.075005 
L 605.593635 169.524982 
L 605.894123 177.915839 
L 606.192589 169.138066 
L 606.783563 177.448457 
L 607.076123 178.275235 
L 607.366766 159.238261 
L 607.942399 169.400839 
L 608.227438 167.269839 
L 608.510657 182.277135 
L 609.071726 174.909116 
L 609.349621 179.059643 
L 609.625786 180.018442 
L 610.173009 167.395066 
L 610.713563 175.512367 
L 610.98139 167.760093 
L 611.247608 177.169256 
L 611.512239 177.359505 
L 611.7753 184.788672 
L 612.036809 177.710623 
L 612.296786 180.818605 
L 612.555248 181.192322 
L 612.812212 174.217547 
L 613.067696 176.362753 
L 613.321717 175.812036 
L 613.574291 168.281159 
L 613.825435 171.45978 
L 614.075165 183.609006 
L 614.323496 180.474086 
L 614.570445 175.368286 
L 614.816027 174.51502 
L 615.060256 169.284162 
L 615.303148 182.901655 
L 615.544716 178.066326 
L 615.784976 187.968972 
L 616.023942 169.247667 
L 616.261627 176.716918 
L 616.498045 177.455224 
L 616.733209 189.723271 
L 617.19983 176.60139 
L 617.890684 186.218353 
L 618.118597 178.342775 
L 618.345346 190.708595 
L 618.570941 191.798186 
L 618.795394 190.331855 
L 619.018717 184.587072 
L 619.240922 173.183383 
L 619.462018 187.76351 
L 619.682018 194.540056 
L 619.900932 174.193191 
L 620.118771 184.48939 
L 620.335545 177.724286 
L 620.551265 184.084627 
L 620.979582 177.729194 
L 621.1922 184.06567 
L 621.403803 185.441887 
L 621.614401 181.064216 
L 621.824004 191.360544 
L 622.032621 191.238391 
L 622.240261 193.50606 
L 622.446934 183.775557 
L 622.652648 181.24137 
L 623.061236 189.057439 
L 623.264127 187.132417 
L 623.466094 173.332965 
L 623.86729 195.280634 
L 624.066535 192.884652 
L 624.264889 182.203655 
L 624.46236 185.631761 
L 624.658955 184.626085 
L 624.854683 194.452912 
L 625.049551 195.668027 
L 625.436737 184.366307 
L 625.62907 171.864917 
L 625.820573 199.123369 
L 626.011252 198.242739 
L 626.390168 179.567731 
L 626.578419 192.147561 
L 626.765875 190.1769 
L 627.138425 196.29606 
L 627.323534 193.853652 
L 627.507873 189.163657 
L 627.691449 187.430975 
L 627.874268 191.337415 
L 628.056337 181.827277 
L 628.237661 196.14321 
L 628.418247 200.01588 
L 628.598101 195.402464 
L 628.955635 177.17809 
L 629.31031 201.651578 
L 629.662172 192.168197 
L 630.011263 197.580213 
L 630.184784 187.582753 
L 630.357629 185.381475 
L 630.70131 197.505893 
L 630.872158 189.185288 
L 631.042349 191.417947 
L 631.21189 191.555532 
L 631.380786 181.773723 
L 631.716659 196.248046 
L 631.883647 190.929992 
L 632.050008 197.867459 
L 632.215748 198.693256 
L 632.380871 201.512081 
L 632.545381 199.078919 
L 632.709283 203.105885 
L 632.872582 195.593372 
L 633.035281 203.702763 
L 633.197386 201.356274 
L 633.358901 190.621632 
L 633.51983 194.065622 
L 633.680176 200.151709 
L 633.839946 198.552378 
L 633.999141 199.871683 
L 634.157768 196.223574 
L 634.473328 201.032339 
L 634.630271 195.057338 
L 634.78666 203.235348 
L 634.942499 195.582007 
L 635.252545 203.618893 
L 635.406759 201.462388 
L 635.560439 191.109767 
L 635.713588 197.876809 
L 635.86621 194.723951 
L 636.018308 198.676791 
L 636.169887 187.991791 
L 636.471499 201.878876 
L 636.621539 196.893448 
L 636.771074 202.812402 
L 636.920106 199.627247 
L 637.068638 204.810434 
L 637.216675 187.179178 
L 637.36422 196.962486 
L 637.511276 192.469894 
L 637.657845 204.344316 
L 637.803932 196.938208 
L 637.949539 197.982212 
L 638.094669 201.198361 
L 638.239327 196.024363 
L 638.527233 202.110489 
L 638.670489 191.758217 
L 638.813283 204.733208 
L 638.955619 192.892607 
L 639.0975 196.238593 
L 639.0975 196.238593 
" clip-path="url(#p1044e92305)" style="fill: none; stroke: #ffa500; stroke-width: 1.5; stroke-linecap: square"/>
   </g>
   <g id="line2d_20">
    <path d="M 281.9775 88.071144 
L 388.444339 94.632066 
L 417.128946 106.007499 
L 434.404377 106.836383 
L 446.805479 109.358237 
L 456.486033 109.90938 
L 464.427559 112.702609 
L 471.160728 111.870381 
L 477.005158 113.461732 
L 482.168344 114.390324 
L 486.792649 116.216193 
L 490.980005 118.306798 
L 494.805904 112.901097 
L 498.327821 117.77748 
L 501.590525 117.245876 
L 504.62957 115.621943 
L 507.473662 118.002674 
L 510.146314 115.991038 
L 512.667024 118.722086 
L 515.052143 117.295672 
L 517.315516 121.137762 
L 519.46897 118.802075 
L 521.52269 119.918811 
L 523.485506 121.12734 
L 525.365125 121.656271 
L 527.168314 121.64164 
L 528.901048 120.787832 
L 530.568624 122.052821 
L 532.175767 122.732445 
L 533.726704 117.168496 
L 535.225234 115.776898 
L 536.674783 117.568868 
L 538.078452 116.247135 
L 539.439057 121.098955 
L 540.75916 123.242947 
L 542.041105 119.477128 
L 543.287035 119.163847 
L 544.498919 121.568185 
L 545.678567 122.283271 
L 546.827652 120.904652 
L 547.947715 116.302717 
L 549.040188 115.969691 
L 550.106396 117.924725 
L 551.147574 116.754073 
L 552.164869 117.44253 
L 553.159353 113.666108 
L 554.132026 117.701339 
L 555.083824 113.928843 
L 556.015626 114.749436 
L 556.928252 116.718456 
L 557.822478 113.972002 
L 559.558593 118.579477 
L 560.401814 118.040977 
L 561.229302 120.411286 
L 562.041634 117.28928 
L 562.839354 112.535928 
L 563.62298 116.814691 
L 564.393 116.491532 
L 565.14988 115.518606 
L 565.894059 120.451513 
L 566.625957 116.585313 
L 567.345974 110.234799 
L 568.054488 110.284596 
L 568.751861 115.127441 
L 569.438439 116.301554 
L 570.11455 115.666316 
L 570.780509 119.6299 
L 571.436616 115.987383 
L 572.083158 117.337875 
L 572.720411 112.335607 
L 573.348637 111.514149 
L 573.968088 111.957124 
L 575.181625 111.767779 
L 575.776165 111.327503 
L 576.36284 111.69324 
L 576.941857 113.311516 
L 577.513411 113.727656 
L 578.077693 113.913166 
L 578.634886 110.266955 
L 579.728702 105.048416 
L 580.265658 113.552956 
L 580.79619 113.945812 
L 581.320452 113.954839 
L 582.350742 104.308678 
L 582.857048 108.110644 
L 583.35764 112.999011 
L 583.852645 109.102644 
L 584.342186 110.014564 
L 584.826383 113.675768 
L 585.30535 112.165181 
L 585.779201 111.127491 
L 586.248042 102.352494 
L 586.711979 107.538554 
L 587.171113 104.857819 
L 587.625543 105.061976 
L 588.075364 111.223636 
L 588.520669 109.011639 
L 589.398085 101.94591 
L 589.830369 104.649723 
L 590.25848 105.598087 
L 590.682498 102.422294 
L 591.102501 110.026432 
L 591.518563 108.775016 
L 591.930759 105.517439 
L 592.339159 108.899145 
L 592.743833 106.541647 
L 593.144848 102.963403 
L 593.54227 102.071137 
L 593.936162 106.162699 
L 594.326586 106.292446 
L 594.713604 100.943928 
L 595.097274 102.509709 
L 595.477653 100.692673 
L 595.854798 102.611988 
L 596.228762 106.163048 
L 596.5996 102.149009 
L 596.967363 100.749637 
L 597.332101 101.371936 
L 597.693865 100.048924 
L 598.052701 103.839552 
L 598.408657 103.811761 
L 598.76178 107.374573 
L 599.804585 100.649567 
L 600.146808 94.073407 
L 600.486411 99.761976 
L 600.823434 102.823945 
L 601.157914 103.333815 
L 601.489891 102.626826 
L 601.819402 103.645687 
L 602.146483 99.516404 
L 602.471169 92.661728 
L 602.793495 105.329437 
L 603.431205 93.030267 
L 603.746654 94.247875 
L 604.059875 102.738842 
L 604.370899 97.184359 
L 604.679758 96.13719 
L 604.986481 101.379452 
L 605.291097 95.046036 
L 605.593635 92.618182 
L 605.894123 102.804393 
L 606.192589 92.381262 
L 606.489061 95.976759 
L 606.783563 97.207061 
L 607.076123 97.188336 
L 607.366766 90.733619 
L 607.655516 91.093093 
L 607.942399 96.902924 
L 608.227438 91.036194 
L 608.510657 96.930663 
L 608.792078 94.332022 
L 609.071726 94.278842 
L 609.349621 93.599825 
L 609.625786 94.420535 
L 609.900241 90.355963 
L 610.173009 93.944732 
L 610.44411 95.092539 
L 610.713563 93.71117 
L 610.98139 90.724141 
L 611.247608 94.263733 
L 611.512239 93.310294 
L 611.7753 96.217825 
L 612.036809 92.02605 
L 612.555248 95.631414 
L 612.812212 90.619641 
L 613.067696 91.179023 
L 613.321717 91.318649 
L 613.574291 86.398087 
L 613.825435 86.413041 
L 614.075165 95.217456 
L 614.323496 90.5326 
L 614.570445 91.055487 
L 614.816027 92.424731 
L 615.060256 85.859884 
L 615.303148 91.128451 
L 615.544716 87.744266 
L 615.784976 95.745548 
L 616.023942 90.745087 
L 616.261627 95.053035 
L 616.498045 91.667068 
L 616.733209 92.335702 
L 616.967133 90.780291 
L 617.19983 87.514888 
L 617.431312 89.726174 
L 617.661593 84.227815 
L 617.890684 88.298585 
L 618.118597 86.87296 
L 618.570941 90.446568 
L 618.795394 88.907325 
L 619.018717 84.299333 
L 619.240922 83.47648 
L 619.682018 89.788781 
L 619.900932 85.745853 
L 620.118771 86.428099 
L 620.335545 79.885722 
L 620.551265 88.492889 
L 620.765941 88.152864 
L 621.1922 83.626669 
L 621.403803 83.023354 
L 621.614401 81.197576 
L 621.824004 87.151695 
L 622.032621 83.013875 
L 622.240261 86.339406 
L 622.446934 83.989371 
L 622.652648 85.900175 
L 623.061236 84.541909 
L 623.264127 84.567091 
L 623.466094 78.59355 
L 623.86729 84.225826 
L 624.066535 80.844172 
L 624.264889 81.822173 
L 624.46236 79.580823 
L 624.658955 81.115934 
L 624.854683 87.775156 
L 625.049551 86.493857 
L 625.243567 82.666799 
L 625.436737 81.598297 
L 625.62907 76.225436 
L 625.820573 82.367944 
L 626.011252 83.654512 
L 626.201115 82.958888 
L 626.390168 75.523587 
L 626.765875 80.379217 
L 626.952541 81.664674 
L 627.138425 80.439345 
L 627.323534 87.531418 
L 627.691449 80.157484 
L 627.874268 76.18393 
L 628.056337 76.019794 
L 628.237661 80.377951 
L 628.418247 78.713469 
L 628.598101 79.232688 
L 628.777228 77.502034 
L 628.955635 74.686529 
L 629.133327 77.2358 
L 629.31031 82.7877 
L 629.48659 83.97013 
L 629.662172 83.809376 
L 629.837061 81.212814 
L 630.011263 80.673165 
L 630.184784 78.847438 
L 630.357629 75.714636 
L 630.529803 80.67567 
L 630.872158 76.965019 
L 631.042349 81.430725 
L 631.21189 82.341212 
L 631.380786 77.96079 
L 631.54904 80.185172 
L 631.716659 77.898287 
L 631.883647 73.175076 
L 632.050008 78.300996 
L 632.215748 76.902232 
L 632.380871 80.610868 
L 632.545381 81.779144 
L 633.035281 73.145064 
L 633.51983 77.181768 
L 633.680176 72.886991 
L 633.839946 73.102474 
L 633.999141 71.934921 
L 634.315829 77.256772 
L 634.473328 78.295753 
L 634.630271 74.472002 
L 634.78666 75.056127 
L 634.942499 73.64406 
L 635.097793 69.902803 
L 635.252545 72.759918 
L 635.406759 78.064025 
L 635.560439 78.530013 
L 635.713588 75.728015 
L 636.018308 77.056295 
L 636.169887 62.864349 
L 636.320949 75.139835 
L 636.471499 75.846126 
L 636.621539 78.680616 
L 636.920106 74.342061 
L 637.216675 65.041749 
L 637.657845 73.80595 
L 637.949539 70.169787 
L 638.094669 71.068212 
L 638.239327 74.886437 
L 638.383514 73.66994 
L 638.527233 74.152303 
L 638.670489 70.032072 
L 638.813283 73.477728 
L 639.0975 69.849417 
L 639.0975 69.849417 
" clip-path="url(#p1044e92305)" style="fill: none; stroke: #008000; stroke-width: 1.5; stroke-linecap: square"/>
   </g>
   <g id="patch_3">
    <path d="M 281.9775 311.6435 
L 281.9775 45.5315 
" style="fill: none; stroke: #000000; stroke-width: 0.8; stroke-linejoin: miter; stroke-linecap: square"/>
   </g>
   <g id="patch_4">
    <path d="M 639.0975 311.6435 
L 639.0975 45.5315 
" style="fill: none; stroke: #000000; stroke-width: 0.8; stroke-linejoin: miter; stroke-linecap: square"/>
   </g>
   <g id="patch_5">
    <path d="M 281.9775 311.6435 
L 639.0975 311.6435 
" style="fill: none; stroke: #000000; stroke-width: 0.8; stroke-linejoin: miter; stroke-linecap: square"/>
   </g>
   <g id="patch_6">
    <path d="M 281.9775 45.5315 
L 639.0975 45.5315 
" style="fill: none; stroke: #000000; stroke-width: 0.8; stroke-linejoin: miter; stroke-linecap: square"/>
   </g>
   <g id="text_12">
    <!-- Loss of the 15_05_25_CINIC10_model_(1024+512+512+1)_ct+(Rot+Noise)_save_2 -->
    <g transform="translate(7.2 25.5315) scale(0.264 -0.264)">
     <defs>
      <path id="TimesNewRomanPSMT-20" transform="scale(0.015625)"/>
      <path id="TimesNewRomanPSMT-66" d="M 1319 2638 
L 1319 756 
Q 1319 356 1406 250 
Q 1522 113 1716 113 
L 1975 113 
L 1975 0 
L 266 0 
L 266 113 
L 394 113 
Q 519 113 622 175 
Q 725 238 764 344 
Q 803 450 803 756 
L 803 2638 
L 247 2638 
L 247 2863 
L 803 2863 
L 803 3050 
Q 803 3478 940 3775 
Q 1078 4072 1361 4255 
Q 1644 4438 1997 4438 
Q 2325 4438 2600 4225 
Q 2781 4084 2781 3909 
Q 2781 3816 2700 3733 
Q 2619 3650 2525 3650 
Q 2453 3650 2373 3701 
Q 2294 3753 2178 3923 
Q 2063 4094 1966 4153 
Q 1869 4213 1750 4213 
Q 1606 4213 1506 4136 
Q 1406 4059 1362 3898 
Q 1319 3738 1319 3069 
L 1319 2863 
L 2056 2863 
L 2056 2638 
L 1319 2638 
z
" transform="scale(0.015625)"/>
      <path id="TimesNewRomanPSMT-74" d="M 1031 3803 
L 1031 2863 
L 1700 2863 
L 1700 2644 
L 1031 2644 
L 1031 788 
Q 1031 509 1111 412 
Q 1191 316 1316 316 
Q 1419 316 1516 380 
Q 1613 444 1666 569 
L 1788 569 
Q 1678 263 1478 108 
Q 1278 -47 1066 -47 
Q 922 -47 784 33 
Q 647 113 581 261 
Q 516 409 516 719 
L 516 2644 
L 63 2644 
L 63 2747 
Q 234 2816 414 2980 
Q 594 3144 734 3369 
Q 806 3488 934 3803 
L 1031 3803 
z
" transform="scale(0.015625)"/>
      <path id="TimesNewRomanPSMT-68" d="M 1041 4444 
L 1041 2350 
Q 1388 2731 1591 2839 
Q 1794 2947 1997 2947 
Q 2241 2947 2416 2812 
Q 2591 2678 2675 2391 
Q 2734 2191 2734 1659 
L 2734 647 
Q 2734 375 2778 275 
Q 2809 200 2884 156 
Q 2959 113 3159 113 
L 3159 0 
L 1753 0 
L 1753 113 
L 1819 113 
Q 2019 113 2097 173 
Q 2175 234 2206 353 
Q 2216 403 2216 647 
L 2216 1659 
Q 2216 2128 2167 2275 
Q 2119 2422 2012 2495 
Q 1906 2569 1756 2569 
Q 1603 2569 1437 2487 
Q 1272 2406 1041 2159 
L 1041 647 
Q 1041 353 1073 281 
Q 1106 209 1195 161 
Q 1284 113 1503 113 
L 1503 0 
L 84 0 
L 84 113 
Q 275 113 384 172 
Q 447 203 484 290 
Q 522 378 522 647 
L 522 3238 
Q 522 3728 498 3840 
Q 475 3953 426 3993 
Q 378 4034 297 4034 
Q 231 4034 84 3984 
L 41 4094 
L 897 4444 
L 1041 4444 
z
" transform="scale(0.015625)"/>
      <path id="TimesNewRomanPSMT-65" d="M 681 1784 
Q 678 1147 991 784 
Q 1303 422 1725 422 
Q 2006 422 2214 576 
Q 2422 731 2563 1106 
L 2659 1044 
Q 2594 616 2278 264 
Q 1963 -88 1488 -88 
Q 972 -88 605 314 
Q 238 716 238 1394 
Q 238 2128 614 2539 
Q 991 2950 1559 2950 
Q 2041 2950 2350 2633 
Q 2659 2316 2659 1784 
L 681 1784 
z
M 681 1966 
L 2006 1966 
Q 1991 2241 1941 2353 
Q 1863 2528 1708 2628 
Q 1553 2728 1384 2728 
Q 1125 2728 920 2526 
Q 716 2325 681 1966 
z
" transform="scale(0.015625)"/>
      <path id="TimesNewRomanPSMT-5f" d="M 3256 -1381 
L -53 -1381 
L -53 -1119 
L 3256 -1119 
L 3256 -1381 
z
" transform="scale(0.015625)"/>
      <path id="TimesNewRomanPSMT-43" d="M 3853 4334 
L 3950 2894 
L 3853 2894 
Q 3659 3541 3300 3825 
Q 2941 4109 2438 4109 
Q 2016 4109 1675 3895 
Q 1334 3681 1139 3212 
Q 944 2744 944 2047 
Q 944 1472 1128 1050 
Q 1313 628 1683 403 
Q 2053 178 2528 178 
Q 2941 178 3256 354 
Q 3572 531 3950 1056 
L 4047 994 
Q 3728 428 3303 165 
Q 2878 -97 2294 -97 
Q 1241 -97 663 684 
Q 231 1266 231 2053 
Q 231 2688 515 3219 
Q 800 3750 1298 4042 
Q 1797 4334 2388 4334 
Q 2847 4334 3294 4109 
Q 3425 4041 3481 4041 
Q 3566 4041 3628 4100 
Q 3709 4184 3744 4334 
L 3853 4334 
z
" transform="scale(0.015625)"/>
      <path id="TimesNewRomanPSMT-49" d="M 1975 116 
L 1975 0 
L 159 0 
L 159 116 
L 309 116 
Q 572 116 691 269 
Q 766 369 766 750 
L 766 3488 
Q 766 3809 725 3913 
Q 694 3991 597 4047 
Q 459 4122 309 4122 
L 159 4122 
L 159 4238 
L 1975 4238 
L 1975 4122 
L 1822 4122 
Q 1563 4122 1444 3969 
Q 1366 3869 1366 3488 
L 1366 750 
Q 1366 428 1406 325 
Q 1438 247 1538 191 
Q 1672 116 1822 116 
L 1975 116 
z
" transform="scale(0.015625)"/>
      <path id="TimesNewRomanPSMT-4e" d="M -84 4238 
L 1066 4238 
L 3656 1059 
L 3656 3503 
Q 3656 3894 3569 3991 
Q 3453 4122 3203 4122 
L 3056 4122 
L 3056 4238 
L 4531 4238 
L 4531 4122 
L 4381 4122 
Q 4113 4122 4000 3959 
Q 3931 3859 3931 3503 
L 3931 -69 
L 3819 -69 
L 1025 3344 
L 1025 734 
Q 1025 344 1109 247 
Q 1228 116 1475 116 
L 1625 116 
L 1625 0 
L 150 0 
L 150 116 
L 297 116 
Q 569 116 681 278 
Q 750 378 750 734 
L 750 3681 
Q 566 3897 470 3965 
Q 375 4034 191 4094 
Q 100 4122 -84 4122 
L -84 4238 
z
" transform="scale(0.015625)"/>
      <path id="TimesNewRomanPSMT-6d" d="M 1050 2338 
Q 1363 2650 1419 2697 
Q 1559 2816 1721 2881 
Q 1884 2947 2044 2947 
Q 2313 2947 2506 2790 
Q 2700 2634 2766 2338 
Q 3088 2713 3309 2830 
Q 3531 2947 3766 2947 
Q 3994 2947 4170 2830 
Q 4347 2713 4450 2447 
Q 4519 2266 4519 1878 
L 4519 647 
Q 4519 378 4559 278 
Q 4591 209 4675 161 
Q 4759 113 4950 113 
L 4950 0 
L 3538 0 
L 3538 113 
L 3597 113 
Q 3781 113 3884 184 
Q 3956 234 3988 344 
Q 4000 397 4000 647 
L 4000 1878 
Q 4000 2228 3916 2372 
Q 3794 2572 3525 2572 
Q 3359 2572 3192 2489 
Q 3025 2406 2788 2181 
L 2781 2147 
L 2788 2013 
L 2788 647 
Q 2788 353 2820 281 
Q 2853 209 2943 161 
Q 3034 113 3253 113 
L 3253 0 
L 1806 0 
L 1806 113 
Q 2044 113 2133 169 
Q 2222 225 2256 338 
Q 2272 391 2272 647 
L 2272 1878 
Q 2272 2228 2169 2381 
Q 2031 2581 1784 2581 
Q 1616 2581 1450 2491 
Q 1191 2353 1050 2181 
L 1050 647 
Q 1050 366 1089 281 
Q 1128 197 1204 155 
Q 1281 113 1516 113 
L 1516 0 
L 100 0 
L 100 113 
Q 297 113 375 155 
Q 453 197 493 289 
Q 534 381 534 647 
L 534 1741 
Q 534 2213 506 2350 
Q 484 2453 437 2492 
Q 391 2531 309 2531 
Q 222 2531 100 2484 
L 53 2597 
L 916 2947 
L 1050 2947 
L 1050 2338 
z
" transform="scale(0.015625)"/>
      <path id="TimesNewRomanPSMT-64" d="M 2222 322 
Q 2013 103 1813 7 
Q 1613 -88 1381 -88 
Q 913 -88 563 304 
Q 213 697 213 1313 
Q 213 1928 600 2439 
Q 988 2950 1597 2950 
Q 1975 2950 2222 2709 
L 2222 3238 
Q 2222 3728 2198 3840 
Q 2175 3953 2125 3993 
Q 2075 4034 2000 4034 
Q 1919 4034 1784 3984 
L 1744 4094 
L 2597 4444 
L 2738 4444 
L 2738 1134 
Q 2738 631 2761 520 
Q 2784 409 2836 365 
Q 2888 322 2956 322 
Q 3041 322 3181 375 
L 3216 266 
L 2366 -88 
L 2222 -88 
L 2222 322 
z
M 2222 541 
L 2222 2016 
Q 2203 2228 2109 2403 
Q 2016 2578 1861 2667 
Q 1706 2756 1559 2756 
Q 1284 2756 1069 2509 
Q 784 2184 784 1559 
Q 784 928 1059 592 
Q 1334 256 1672 256 
Q 1956 256 2222 541 
z
" transform="scale(0.015625)"/>
      <path id="TimesNewRomanPSMT-6c" d="M 1184 4444 
L 1184 647 
Q 1184 378 1223 290 
Q 1263 203 1344 158 
Q 1425 113 1647 113 
L 1647 0 
L 244 0 
L 244 113 
Q 441 113 512 153 
Q 584 194 625 287 
Q 666 381 666 647 
L 666 3247 
Q 666 3731 644 3842 
Q 622 3953 573 3993 
Q 525 4034 450 4034 
Q 369 4034 244 3984 
L 191 4094 
L 1044 4444 
L 1184 4444 
z
" transform="scale(0.015625)"/>
      <path id="TimesNewRomanPSMT-28" d="M 1988 -1253 
L 1988 -1369 
Q 1516 -1131 1200 -813 
Q 750 -359 506 256 
Q 263 872 263 1534 
Q 263 2503 741 3301 
Q 1219 4100 1988 4444 
L 1988 4313 
Q 1603 4100 1356 3731 
Q 1109 3363 987 2797 
Q 866 2231 866 1616 
Q 866 947 969 400 
Q 1050 -31 1165 -292 
Q 1281 -553 1476 -793 
Q 1672 -1034 1988 -1253 
z
" transform="scale(0.015625)"/>
      <path id="TimesNewRomanPSMT-34" d="M 2978 1563 
L 2978 1119 
L 2409 1119 
L 2409 0 
L 1894 0 
L 1894 1119 
L 100 1119 
L 100 1519 
L 2066 4325 
L 2409 4325 
L 2409 1563 
L 2978 1563 
z
M 1894 1563 
L 1894 3666 
L 406 1563 
L 1894 1563 
z
" transform="scale(0.015625)"/>
      <path id="TimesNewRomanPSMT-2b" d="M 1672 441 
L 1672 2000 
L 116 2000 
L 116 2256 
L 1672 2256 
L 1672 3809 
L 1922 3809 
L 1922 2256 
L 3484 2256 
L 3484 2000 
L 1922 2000 
L 1922 441 
L 1672 441 
z
" transform="scale(0.015625)"/>
      <path id="TimesNewRomanPSMT-29" d="M 144 4313 
L 144 4444 
Q 619 4209 934 3891 
Q 1381 3434 1625 2820 
Q 1869 2206 1869 1541 
Q 1869 572 1392 -226 
Q 916 -1025 144 -1369 
L 144 -1253 
Q 528 -1038 776 -670 
Q 1025 -303 1145 264 
Q 1266 831 1266 1447 
Q 1266 2113 1163 2663 
Q 1084 3094 967 3353 
Q 850 3613 656 3853 
Q 463 4094 144 4313 
z
" transform="scale(0.015625)"/>
      <path id="TimesNewRomanPSMT-63" d="M 2631 1088 
Q 2516 522 2178 217 
Q 1841 -88 1431 -88 
Q 944 -88 581 321 
Q 219 731 219 1428 
Q 219 2103 620 2525 
Q 1022 2947 1584 2947 
Q 2006 2947 2278 2723 
Q 2550 2500 2550 2259 
Q 2550 2141 2473 2067 
Q 2397 1994 2259 1994 
Q 2075 1994 1981 2113 
Q 1928 2178 1911 2362 
Q 1894 2547 1784 2644 
Q 1675 2738 1481 2738 
Q 1169 2738 978 2506 
Q 725 2200 725 1697 
Q 725 1184 976 792 
Q 1228 400 1656 400 
Q 1963 400 2206 609 
Q 2378 753 2541 1131 
L 2631 1088 
z
" transform="scale(0.015625)"/>
      <path id="TimesNewRomanPSMT-52" d="M 4325 0 
L 3194 0 
L 1759 1981 
Q 1600 1975 1500 1975 
Q 1459 1975 1412 1976 
Q 1366 1978 1316 1981 
L 1316 750 
Q 1316 350 1403 253 
Q 1522 116 1759 116 
L 1925 116 
L 1925 0 
L 109 0 
L 109 116 
L 269 116 
Q 538 116 653 291 
Q 719 388 719 750 
L 719 3488 
Q 719 3888 631 3984 
Q 509 4122 269 4122 
L 109 4122 
L 109 4238 
L 1653 4238 
Q 2328 4238 2648 4139 
Q 2969 4041 3192 3777 
Q 3416 3513 3416 3147 
Q 3416 2756 3161 2468 
Q 2906 2181 2372 2063 
L 3247 847 
Q 3547 428 3762 290 
Q 3978 153 4325 116 
L 4325 0 
z
M 1316 2178 
Q 1375 2178 1419 2176 
Q 1463 2175 1491 2175 
Q 2097 2175 2405 2437 
Q 2713 2700 2713 3106 
Q 2713 3503 2464 3751 
Q 2216 4000 1806 4000 
Q 1625 4000 1316 3941 
L 1316 2178 
z
" transform="scale(0.015625)"/>
      <path id="TimesNewRomanPSMT-69" d="M 928 4444 
Q 1059 4444 1151 4351 
Q 1244 4259 1244 4128 
Q 1244 3997 1151 3903 
Q 1059 3809 928 3809 
Q 797 3809 703 3903 
Q 609 3997 609 4128 
Q 609 4259 701 4351 
Q 794 4444 928 4444 
z
M 1188 2947 
L 1188 647 
Q 1188 378 1227 289 
Q 1266 200 1342 156 
Q 1419 113 1622 113 
L 1622 0 
L 231 0 
L 231 113 
Q 441 113 512 153 
Q 584 194 626 287 
Q 669 381 669 647 
L 669 1750 
Q 669 2216 641 2353 
Q 619 2453 572 2492 
Q 525 2531 444 2531 
Q 356 2531 231 2484 
L 188 2597 
L 1050 2947 
L 1188 2947 
z
" transform="scale(0.015625)"/>
      <path id="TimesNewRomanPSMT-61" d="M 1822 413 
Q 1381 72 1269 19 
Q 1100 -59 909 -59 
Q 613 -59 420 144 
Q 228 347 228 678 
Q 228 888 322 1041 
Q 450 1253 767 1440 
Q 1084 1628 1822 1897 
L 1822 2009 
Q 1822 2438 1686 2597 
Q 1550 2756 1291 2756 
Q 1094 2756 978 2650 
Q 859 2544 859 2406 
L 866 2225 
Q 866 2081 792 2003 
Q 719 1925 600 1925 
Q 484 1925 411 2006 
Q 338 2088 338 2228 
Q 338 2497 613 2722 
Q 888 2947 1384 2947 
Q 1766 2947 2009 2819 
Q 2194 2722 2281 2516 
Q 2338 2381 2338 1966 
L 2338 994 
Q 2338 584 2353 492 
Q 2369 400 2405 369 
Q 2441 338 2488 338 
Q 2538 338 2575 359 
Q 2641 400 2828 588 
L 2828 413 
Q 2478 -56 2159 -56 
Q 2006 -56 1915 50 
Q 1825 156 1822 413 
z
M 1822 616 
L 1822 1706 
Q 1350 1519 1213 1441 
Q 966 1303 859 1153 
Q 753 1003 753 825 
Q 753 600 887 451 
Q 1022 303 1197 303 
Q 1434 303 1822 616 
z
" transform="scale(0.015625)"/>
      <path id="TimesNewRomanPSMT-76" d="M 53 2863 
L 1400 2863 
L 1400 2747 
L 1313 2747 
Q 1191 2747 1127 2687 
Q 1063 2628 1063 2528 
Q 1063 2419 1128 2269 
L 1794 688 
L 2463 2328 
Q 2534 2503 2534 2594 
Q 2534 2638 2509 2666 
Q 2475 2713 2422 2730 
Q 2369 2747 2206 2747 
L 2206 2863 
L 3141 2863 
L 3141 2747 
Q 2978 2734 2916 2681 
Q 2806 2588 2719 2369 
L 1703 -88 
L 1575 -88 
L 553 2328 
Q 484 2497 421 2570 
Q 359 2644 263 2694 
Q 209 2722 53 2747 
L 53 2863 
z
" transform="scale(0.015625)"/>
     </defs>
     <use xlink:href="#TimesNewRomanPSMT-4c"/>
     <use xlink:href="#TimesNewRomanPSMT-6f" transform="translate(61.083984 0)"/>
     <use xlink:href="#TimesNewRomanPSMT-73" transform="translate(111.083984 0)"/>
     <use xlink:href="#TimesNewRomanPSMT-73" transform="translate(150 0)"/>
     <use xlink:href="#TimesNewRomanPSMT-20" transform="translate(188.916016 0)"/>
     <use xlink:href="#TimesNewRomanPSMT-6f" transform="translate(213.916016 0)"/>
     <use xlink:href="#TimesNewRomanPSMT-66" transform="translate(263.916016 0)"/>
     <use xlink:href="#TimesNewRomanPSMT-20" transform="translate(297.216797 0)"/>
     <use xlink:href="#TimesNewRomanPSMT-74" transform="translate(322.216797 0)"/>
     <use xlink:href="#TimesNewRomanPSMT-68" transform="translate(350 0)"/>
     <use xlink:href="#TimesNewRomanPSMT-65" transform="translate(400 0)"/>
     <use xlink:href="#TimesNewRomanPSMT-20" transform="translate(444.384766 0)"/>
     <use xlink:href="#TimesNewRomanPSMT-31" transform="translate(469.384766 0)"/>
     <use xlink:href="#TimesNewRomanPSMT-35" transform="translate(519.384766 0)"/>
     <use xlink:href="#TimesNewRomanPSMT-5f" transform="translate(569.384766 0)"/>
     <use xlink:href="#TimesNewRomanPSMT-30" transform="translate(619.384766 0)"/>
     <use xlink:href="#TimesNewRomanPSMT-35" transform="translate(669.384766 0)"/>
     <use xlink:href="#TimesNewRomanPSMT-5f" transform="translate(719.384766 0)"/>
     <use xlink:href="#TimesNewRomanPSMT-32" transform="translate(769.384766 0)"/>
     <use xlink:href="#TimesNewRomanPSMT-35" transform="translate(819.384766 0)"/>
     <use xlink:href="#TimesNewRomanPSMT-5f" transform="translate(869.384766 0)"/>
     <use xlink:href="#TimesNewRomanPSMT-43" transform="translate(919.384766 0)"/>
     <use xlink:href="#TimesNewRomanPSMT-49" transform="translate(986.083984 0)"/>
     <use xlink:href="#TimesNewRomanPSMT-4e" transform="translate(1019.384766 0)"/>
     <use xlink:href="#TimesNewRomanPSMT-49" transform="translate(1091.601562 0)"/>
     <use xlink:href="#TimesNewRomanPSMT-43" transform="translate(1124.902344 0)"/>
     <use xlink:href="#TimesNewRomanPSMT-31" transform="translate(1191.601562 0)"/>
     <use xlink:href="#TimesNewRomanPSMT-30" transform="translate(1241.601562 0)"/>
     <use xlink:href="#TimesNewRomanPSMT-5f" transform="translate(1291.601562 0)"/>
     <use xlink:href="#TimesNewRomanPSMT-6d" transform="translate(1341.601562 0)"/>
     <use xlink:href="#TimesNewRomanPSMT-6f" transform="translate(1419.384766 0)"/>
     <use xlink:href="#TimesNewRomanPSMT-64" transform="translate(1469.384766 0)"/>
     <use xlink:href="#TimesNewRomanPSMT-65" transform="translate(1519.384766 0)"/>
     <use xlink:href="#TimesNewRomanPSMT-6c" transform="translate(1563.769531 0)"/>
     <use xlink:href="#TimesNewRomanPSMT-5f" transform="translate(1591.552734 0)"/>
     <use xlink:href="#TimesNewRomanPSMT-28" transform="translate(1641.552734 0)"/>
     <use xlink:href="#TimesNewRomanPSMT-31" transform="translate(1674.853516 0)"/>
     <use xlink:href="#TimesNewRomanPSMT-30" transform="translate(1724.853516 0)"/>
     <use xlink:href="#TimesNewRomanPSMT-32" transform="translate(1774.853516 0)"/>
     <use xlink:href="#TimesNewRomanPSMT-34" transform="translate(1824.853516 0)"/>
     <use xlink:href="#TimesNewRomanPSMT-2b" transform="translate(1874.853516 0)"/>
     <use xlink:href="#TimesNewRomanPSMT-35" transform="translate(1931.25 0)"/>
     <use xlink:href="#TimesNewRomanPSMT-31" transform="translate(1981.25 0)"/>
     <use xlink:href="#TimesNewRomanPSMT-32" transform="translate(2031.25 0)"/>
     <use xlink:href="#TimesNewRomanPSMT-2b" transform="translate(2081.25 0)"/>
     <use xlink:href="#TimesNewRomanPSMT-35" transform="translate(2137.646484 0)"/>
     <use xlink:href="#TimesNewRomanPSMT-31" transform="translate(2187.646484 0)"/>
     <use xlink:href="#TimesNewRomanPSMT-32" transform="translate(2237.646484 0)"/>
     <use xlink:href="#TimesNewRomanPSMT-2b" transform="translate(2287.646484 0)"/>
     <use xlink:href="#TimesNewRomanPSMT-31" transform="translate(2344.042969 0)"/>
     <use xlink:href="#TimesNewRomanPSMT-29" transform="translate(2394.042969 0)"/>
     <use xlink:href="#TimesNewRomanPSMT-5f" transform="translate(2427.34375 0)"/>
     <use xlink:href="#TimesNewRomanPSMT-63" transform="translate(2477.34375 0)"/>
     <use xlink:href="#TimesNewRomanPSMT-74" transform="translate(2521.728516 0)"/>
     <use xlink:href="#TimesNewRomanPSMT-2b" transform="translate(2549.511719 0)"/>
     <use xlink:href="#TimesNewRomanPSMT-28" transform="translate(2605.908203 0)"/>
     <use xlink:href="#TimesNewRomanPSMT-52" transform="translate(2639.208984 0)"/>
     <use xlink:href="#TimesNewRomanPSMT-6f" transform="translate(2705.908203 0)"/>
     <use xlink:href="#TimesNewRomanPSMT-74" transform="translate(2755.908203 0)"/>
     <use xlink:href="#TimesNewRomanPSMT-2b" transform="translate(2783.691406 0)"/>
     <use xlink:href="#TimesNewRomanPSMT-4e" transform="translate(2840.087891 0)"/>
     <use xlink:href="#TimesNewRomanPSMT-6f" transform="translate(2912.304688 0)"/>
     <use xlink:href="#TimesNewRomanPSMT-69" transform="translate(2962.304688 0)"/>
     <use xlink:href="#TimesNewRomanPSMT-73" transform="translate(2990.087891 0)"/>
     <use xlink:href="#TimesNewRomanPSMT-65" transform="translate(3029.003906 0)"/>
     <use xlink:href="#TimesNewRomanPSMT-29" transform="translate(3073.388672 0)"/>
     <use xlink:href="#TimesNewRomanPSMT-5f" transform="translate(3106.689453 0)"/>
     <use xlink:href="#TimesNewRomanPSMT-73" transform="translate(3156.689453 0)"/>
     <use xlink:href="#TimesNewRomanPSMT-61" transform="translate(3195.605469 0)"/>
     <use xlink:href="#TimesNewRomanPSMT-76" transform="translate(3239.990234 0)"/>
     <use xlink:href="#TimesNewRomanPSMT-65" transform="translate(3289.990234 0)"/>
     <use xlink:href="#TimesNewRomanPSMT-5f" transform="translate(3334.375 0)"/>
     <use xlink:href="#TimesNewRomanPSMT-32" transform="translate(3384.375 0)"/>
    </g>
   </g>
   <g id="legend_1">
    <g id="patch_7">
     <path d="M 297.3775 300.6435 
L 497.935 300.6435 
Q 502.335 300.6435 502.335 296.2435 
L 502.335 236.190375 
Q 502.335 231.790375 497.935 231.790375 
L 297.3775 231.790375 
Q 292.9775 231.790375 292.9775 236.190375 
L 292.9775 296.2435 
Q 292.9775 300.6435 297.3775 300.6435 
z
" style="fill: #ffffff; opacity: 0.8; stroke: #cccccc; stroke-linejoin: miter"/>
    </g>
    <g id="line2d_21">
     <path d="M 301.7775 248.290375 
L 323.7775 248.290375 
L 345.7775 248.290375 
" style="fill: none; stroke: #ffa500; stroke-width: 1.5; stroke-linecap: square"/>
    </g>
    <g id="text_13">
     <!-- Training loss -->
     <g transform="translate(363.3775 255.990375) scale(0.22 -0.22)">
      <defs>
       <path id="TimesNewRomanPSMT-54" d="M 3703 4238 
L 3750 3244 
L 3631 3244 
Q 3597 3506 3538 3619 
Q 3441 3800 3280 3886 
Q 3119 3972 2856 3972 
L 2259 3972 
L 2259 734 
Q 2259 344 2344 247 
Q 2463 116 2709 116 
L 2856 116 
L 2856 0 
L 1059 0 
L 1059 116 
L 1209 116 
Q 1478 116 1591 278 
Q 1659 378 1659 734 
L 1659 3972 
L 1150 3972 
Q 853 3972 728 3928 
Q 566 3869 450 3700 
Q 334 3531 313 3244 
L 194 3244 
L 244 4238 
L 3703 4238 
z
" transform="scale(0.015625)"/>
       <path id="TimesNewRomanPSMT-72" d="M 1038 2947 
L 1038 2303 
Q 1397 2947 1775 2947 
Q 1947 2947 2059 2842 
Q 2172 2738 2172 2600 
Q 2172 2478 2090 2393 
Q 2009 2309 1897 2309 
Q 1788 2309 1652 2417 
Q 1516 2525 1450 2525 
Q 1394 2525 1328 2463 
Q 1188 2334 1038 2041 
L 1038 669 
Q 1038 431 1097 309 
Q 1138 225 1241 169 
Q 1344 113 1538 113 
L 1538 0 
L 72 0 
L 72 113 
Q 291 113 397 181 
Q 475 231 506 341 
Q 522 394 522 644 
L 522 1753 
Q 522 2253 501 2348 
Q 481 2444 426 2487 
Q 372 2531 291 2531 
Q 194 2531 72 2484 
L 41 2597 
L 906 2947 
L 1038 2947 
z
" transform="scale(0.015625)"/>
       <path id="TimesNewRomanPSMT-6e" d="M 1034 2341 
Q 1538 2947 1994 2947 
Q 2228 2947 2397 2830 
Q 2566 2713 2666 2444 
Q 2734 2256 2734 1869 
L 2734 647 
Q 2734 375 2778 278 
Q 2813 200 2889 156 
Q 2966 113 3172 113 
L 3172 0 
L 1756 0 
L 1756 113 
L 1816 113 
Q 2016 113 2095 173 
Q 2175 234 2206 353 
Q 2219 400 2219 647 
L 2219 1819 
Q 2219 2209 2117 2386 
Q 2016 2563 1775 2563 
Q 1403 2563 1034 2156 
L 1034 647 
Q 1034 356 1069 288 
Q 1113 197 1189 155 
Q 1266 113 1500 113 
L 1500 0 
L 84 0 
L 84 113 
L 147 113 
Q 366 113 442 223 
Q 519 334 519 647 
L 519 1709 
Q 519 2225 495 2337 
Q 472 2450 423 2490 
Q 375 2531 294 2531 
Q 206 2531 84 2484 
L 38 2597 
L 900 2947 
L 1034 2947 
L 1034 2341 
z
" transform="scale(0.015625)"/>
       <path id="TimesNewRomanPSMT-67" d="M 966 1044 
Q 703 1172 562 1401 
Q 422 1631 422 1909 
Q 422 2334 742 2640 
Q 1063 2947 1563 2947 
Q 1972 2947 2272 2747 
L 2878 2747 
Q 3013 2747 3034 2739 
Q 3056 2731 3066 2713 
Q 3084 2684 3084 2613 
Q 3084 2531 3069 2500 
Q 3059 2484 3036 2475 
Q 3013 2466 2878 2466 
L 2506 2466 
Q 2681 2241 2681 1891 
Q 2681 1491 2375 1206 
Q 2069 922 1553 922 
Q 1341 922 1119 984 
Q 981 866 932 777 
Q 884 688 884 625 
Q 884 572 936 522 
Q 988 472 1138 450 
Q 1225 438 1575 428 
Q 2219 413 2409 384 
Q 2700 344 2873 169 
Q 3047 -6 3047 -263 
Q 3047 -616 2716 -925 
Q 2228 -1381 1444 -1381 
Q 841 -1381 425 -1109 
Q 191 -953 191 -784 
Q 191 -709 225 -634 
Q 278 -519 444 -313 
Q 466 -284 763 25 
Q 600 122 533 198 
Q 466 275 466 372 
Q 466 481 555 628 
Q 644 775 966 1044 
z
M 1509 2797 
Q 1278 2797 1122 2612 
Q 966 2428 966 2047 
Q 966 1553 1178 1281 
Q 1341 1075 1591 1075 
Q 1828 1075 1981 1253 
Q 2134 1431 2134 1813 
Q 2134 2309 1919 2591 
Q 1759 2797 1509 2797 
z
M 934 0 
Q 788 -159 713 -296 
Q 638 -434 638 -550 
Q 638 -700 819 -813 
Q 1131 -1006 1722 -1006 
Q 2284 -1006 2551 -807 
Q 2819 -609 2819 -384 
Q 2819 -222 2659 -153 
Q 2497 -84 2016 -72 
Q 1313 -53 934 0 
z
" transform="scale(0.015625)"/>
      </defs>
      <use xlink:href="#TimesNewRomanPSMT-54"/>
      <use xlink:href="#TimesNewRomanPSMT-72" transform="translate(57.583984 0)"/>
      <use xlink:href="#TimesNewRomanPSMT-61" transform="translate(90.884766 0)"/>
      <use xlink:href="#TimesNewRomanPSMT-69" transform="translate(135.269531 0)"/>
      <use xlink:href="#TimesNewRomanPSMT-6e" transform="translate(163.052734 0)"/>
      <use xlink:href="#TimesNewRomanPSMT-69" transform="translate(213.052734 0)"/>
      <use xlink:href="#TimesNewRomanPSMT-6e" transform="translate(240.835938 0)"/>
      <use xlink:href="#TimesNewRomanPSMT-67" transform="translate(290.835938 0)"/>
      <use xlink:href="#TimesNewRomanPSMT-20" transform="translate(340.835938 0)"/>
      <use xlink:href="#TimesNewRomanPSMT-6c" transform="translate(365.835938 0)"/>
      <use xlink:href="#TimesNewRomanPSMT-6f" transform="translate(393.619141 0)"/>
      <use xlink:href="#TimesNewRomanPSMT-73" transform="translate(443.619141 0)"/>
      <use xlink:href="#TimesNewRomanPSMT-73" transform="translate(482.535156 0)"/>
     </g>
    </g>
    <g id="line2d_22">
     <path d="M 301.7775 279.437562 
L 323.7775 279.437562 
L 345.7775 279.437562 
" style="fill: none; stroke: #008000; stroke-width: 1.5; stroke-linecap: square"/>
    </g>
    <g id="text_14">
     <!-- Validation loss -->
     <g transform="translate(363.3775 287.137562) scale(0.22 -0.22)">
      <defs>
       <path id="TimesNewRomanPSMT-56" d="M 4544 4238 
L 4544 4122 
Q 4319 4081 4203 3978 
Q 4038 3825 3909 3509 
L 2431 -97 
L 2316 -97 
L 728 3556 
Q 606 3838 556 3900 
Q 478 3997 364 4051 
Q 250 4106 56 4122 
L 56 4238 
L 1788 4238 
L 1788 4122 
Q 1494 4094 1406 4022 
Q 1319 3950 1319 3838 
Q 1319 3681 1463 3350 
L 2541 866 
L 3541 3319 
Q 3688 3681 3688 3822 
Q 3688 3913 3597 3995 
Q 3506 4078 3291 4113 
Q 3275 4116 3238 4122 
L 3238 4238 
L 4544 4238 
z
" transform="scale(0.015625)"/>
      </defs>
      <use xlink:href="#TimesNewRomanPSMT-56"/>
      <use xlink:href="#TimesNewRomanPSMT-61" transform="translate(61.091797 0)"/>
      <use xlink:href="#TimesNewRomanPSMT-6c" transform="translate(105.476562 0)"/>
      <use xlink:href="#TimesNewRomanPSMT-69" transform="translate(133.259766 0)"/>
      <use xlink:href="#TimesNewRomanPSMT-64" transform="translate(161.042969 0)"/>
      <use xlink:href="#TimesNewRomanPSMT-61" transform="translate(211.042969 0)"/>
      <use xlink:href="#TimesNewRomanPSMT-74" transform="translate(255.427734 0)"/>
      <use xlink:href="#TimesNewRomanPSMT-69" transform="translate(283.210938 0)"/>
      <use xlink:href="#TimesNewRomanPSMT-6f" transform="translate(310.994141 0)"/>
      <use xlink:href="#TimesNewRomanPSMT-6e" transform="translate(360.994141 0)"/>
      <use xlink:href="#TimesNewRomanPSMT-20" transform="translate(410.994141 0)"/>
      <use xlink:href="#TimesNewRomanPSMT-6c" transform="translate(435.994141 0)"/>
      <use xlink:href="#TimesNewRomanPSMT-6f" transform="translate(463.777344 0)"/>
      <use xlink:href="#TimesNewRomanPSMT-73" transform="translate(513.777344 0)"/>
      <use xlink:href="#TimesNewRomanPSMT-73" transform="translate(552.693359 0)"/>
     </g>
    </g>
   </g>
  </g>
 </g>
 <defs>
  <clipPath id="p1044e92305">
   <rect x="281.9775" y="45.5315" width="357.12" height="266.112"/>
  </clipPath>
 </defs>
</svg>
