<?xml version="1.0" encoding="utf-8" standalone="no"?>
<!DOCTYPE svg PUBLIC "-//W3C//DTD SVG 1.1//EN"
  "http://www.w3.org/Graphics/SVG/1.1/DTD/svg11.dtd">
<svg xmlns:xlink="http://www.w3.org/1999/xlink" width="1164.39225pt" height="369.807875pt" viewBox="0 0 1164.39225 369.807875" xmlns="http://www.w3.org/2000/svg" version="1.1">
 <metadata>
  <rdf:RDF xmlns:dc="http://purl.org/dc/elements/1.1/" xmlns:cc="http://creativecommons.org/ns#" xmlns:rdf="http://www.w3.org/1999/02/22-rdf-syntax-ns#">
   <cc:Work>
    <dc:type rdf:resource="http://purl.org/dc/dcmitype/StillImage"/>
    <dc:date>2025-06-04T09:51:58.912536</dc:date>
    <dc:format>image/svg+xml</dc:format>
    <dc:creator>
     <cc:Agent>
      <dc:title>Matplotlib v3.10.1, https://matplotlib.org/</dc:title>
     </cc:Agent>
    </dc:creator>
   </cc:Work>
  </rdf:RDF>
 </metadata>
 <defs>
  <style type="text/css">*{stroke-linejoin: round; stroke-linecap: butt}</style>
 </defs>
 <g id="figure_1">
  <g id="patch_1">
   <path d="M 0 369.807875 
L 1164.39225 369.807875 
L 1164.39225 0 
L 0 0 
z
" style="fill: #ffffff"/>
  </g>
  <g id="axes_1">
   <g id="patch_2">
    <path d="M 403.636125 311.6435 
L 760.756125 311.6435 
L 760.756125 45.5315 
L 403.636125 45.5315 
z
" style="fill: #ffffff"/>
   </g>
   <g id="matplotlib.axis_1">
    <g id="xtick_1">
     <g id="line2d_1">
      <path d="M 403.636125 311.6435 
L 403.636125 45.5315 
" clip-path="url(#pece4556a1a)" style="fill: none; stroke: #b0b0b0; stroke-opacity: 0.3; stroke-width: 0.8; stroke-linecap: square"/>
     </g>
     <g id="line2d_2">
      <defs>
       <path id="m5c26c1964a" d="M 0 0 
L 0 3.5 
" style="stroke: #000000; stroke-width: 0.8"/>
      </defs>
      <g>
       <use xlink:href="#m5c26c1964a" x="403.636125" y="311.6435" style="stroke: #000000; stroke-width: 0.8"/>
      </g>
     </g>
     <g id="text_1">
      <!-- 0 -->
      <g transform="translate(398.136125 333.91975) scale(0.22 -0.22)">
       <defs>
        <path id="TimesNewRomanPSMT-30" d="M 231 2094 
Q 231 2819 450 3342 
Q 669 3866 1031 4122 
Q 1313 4325 1613 4325 
Q 2100 4325 2488 3828 
Q 2972 3213 2972 2159 
Q 2972 1422 2759 906 
Q 2547 391 2217 158 
Q 1888 -75 1581 -75 
Q 975 -75 572 641 
Q 231 1244 231 2094 
z
M 844 2016 
Q 844 1141 1059 588 
Q 1238 122 1591 122 
Q 1759 122 1940 273 
Q 2122 425 2216 781 
Q 2359 1319 2359 2297 
Q 2359 3022 2209 3506 
Q 2097 3866 1919 4016 
Q 1791 4119 1609 4119 
Q 1397 4119 1231 3928 
Q 1006 3669 925 3112 
Q 844 2556 844 2016 
z
" transform="scale(0.015625)"/>
       </defs>
       <use xlink:href="#TimesNewRomanPSMT-30"/>
      </g>
     </g>
    </g>
    <g id="xtick_2">
     <g id="line2d_3">
      <path d="M 525.188201 311.6435 
L 525.188201 45.5315 
" clip-path="url(#pece4556a1a)" style="fill: none; stroke: #b0b0b0; stroke-opacity: 0.3; stroke-width: 0.8; stroke-linecap: square"/>
     </g>
     <g id="line2d_4">
      <g>
       <use xlink:href="#m5c26c1964a" x="525.188201" y="311.6435" style="stroke: #000000; stroke-width: 0.8"/>
      </g>
     </g>
     <g id="text_2">
      <!-- 5000 -->
      <g transform="translate(503.188201 333.91975) scale(0.22 -0.22)">
       <defs>
        <path id="TimesNewRomanPSMT-35" d="M 2778 4238 
L 2534 3706 
L 1259 3706 
L 981 3138 
Q 1809 3016 2294 2522 
Q 2709 2097 2709 1522 
Q 2709 1188 2573 903 
Q 2438 619 2231 419 
Q 2025 219 1772 97 
Q 1413 -75 1034 -75 
Q 653 -75 479 54 
Q 306 184 306 341 
Q 306 428 378 495 
Q 450 563 559 563 
Q 641 563 702 538 
Q 763 513 909 409 
Q 1144 247 1384 247 
Q 1750 247 2026 523 
Q 2303 800 2303 1197 
Q 2303 1581 2056 1914 
Q 1809 2247 1375 2428 
Q 1034 2569 447 2591 
L 1259 4238 
L 2778 4238 
z
" transform="scale(0.015625)"/>
       </defs>
       <use xlink:href="#TimesNewRomanPSMT-35"/>
       <use xlink:href="#TimesNewRomanPSMT-30" transform="translate(50 0)"/>
       <use xlink:href="#TimesNewRomanPSMT-30" transform="translate(100 0)"/>
       <use xlink:href="#TimesNewRomanPSMT-30" transform="translate(150 0)"/>
      </g>
     </g>
    </g>
    <g id="xtick_3">
     <g id="line2d_5">
      <path d="M 646.740277 311.6435 
L 646.740277 45.5315 
" clip-path="url(#pece4556a1a)" style="fill: none; stroke: #b0b0b0; stroke-opacity: 0.3; stroke-width: 0.8; stroke-linecap: square"/>
     </g>
     <g id="line2d_6">
      <g>
       <use xlink:href="#m5c26c1964a" x="646.740277" y="311.6435" style="stroke: #000000; stroke-width: 0.8"/>
      </g>
     </g>
     <g id="text_3">
      <!-- 10000 -->
      <g transform="translate(619.240277 333.91975) scale(0.22 -0.22)">
       <defs>
        <path id="TimesNewRomanPSMT-31" d="M 750 3822 
L 1781 4325 
L 1884 4325 
L 1884 747 
Q 1884 391 1914 303 
Q 1944 216 2037 169 
Q 2131 122 2419 116 
L 2419 0 
L 825 0 
L 825 116 
Q 1125 122 1212 167 
Q 1300 213 1334 289 
Q 1369 366 1369 747 
L 1369 3034 
Q 1369 3497 1338 3628 
Q 1316 3728 1258 3775 
Q 1200 3822 1119 3822 
Q 1003 3822 797 3725 
L 750 3822 
z
" transform="scale(0.015625)"/>
       </defs>
       <use xlink:href="#TimesNewRomanPSMT-31"/>
       <use xlink:href="#TimesNewRomanPSMT-30" transform="translate(50 0)"/>
       <use xlink:href="#TimesNewRomanPSMT-30" transform="translate(100 0)"/>
       <use xlink:href="#TimesNewRomanPSMT-30" transform="translate(150 0)"/>
       <use xlink:href="#TimesNewRomanPSMT-30" transform="translate(200 0)"/>
      </g>
     </g>
    </g>
    <g id="text_4">
     <!-- Number of iterations -->
     <g transform="translate(490.554094 357.901937) scale(0.22 -0.22)">
      <defs>
       <path id="TimesNewRomanPSMT-4e" d="M -84 4238 
L 1066 4238 
L 3656 1059 
L 3656 3503 
Q 3656 3894 3569 3991 
Q 3453 4122 3203 4122 
L 3056 4122 
L 3056 4238 
L 4531 4238 
L 4531 4122 
L 4381 4122 
Q 4113 4122 4000 3959 
Q 3931 3859 3931 3503 
L 3931 -69 
L 3819 -69 
L 1025 3344 
L 1025 734 
Q 1025 344 1109 247 
Q 1228 116 1475 116 
L 1625 116 
L 1625 0 
L 150 0 
L 150 116 
L 297 116 
Q 569 116 681 278 
Q 750 378 750 734 
L 750 3681 
Q 566 3897 470 3965 
Q 375 4034 191 4094 
Q 100 4122 -84 4122 
L -84 4238 
z
" transform="scale(0.015625)"/>
       <path id="TimesNewRomanPSMT-75" d="M 2709 2863 
L 2709 1128 
Q 2709 631 2732 520 
Q 2756 409 2807 365 
Q 2859 322 2928 322 
Q 3025 322 3147 375 
L 3191 266 
L 2334 -88 
L 2194 -88 
L 2194 519 
Q 1825 119 1631 15 
Q 1438 -88 1222 -88 
Q 981 -88 804 51 
Q 628 191 559 409 
Q 491 628 491 1028 
L 491 2306 
Q 491 2509 447 2587 
Q 403 2666 317 2708 
Q 231 2750 6 2747 
L 6 2863 
L 1009 2863 
L 1009 947 
Q 1009 547 1148 422 
Q 1288 297 1484 297 
Q 1619 297 1789 381 
Q 1959 466 2194 703 
L 2194 2325 
Q 2194 2569 2105 2655 
Q 2016 2741 1734 2747 
L 1734 2863 
L 2709 2863 
z
" transform="scale(0.015625)"/>
       <path id="TimesNewRomanPSMT-6d" d="M 1050 2338 
Q 1363 2650 1419 2697 
Q 1559 2816 1721 2881 
Q 1884 2947 2044 2947 
Q 2313 2947 2506 2790 
Q 2700 2634 2766 2338 
Q 3088 2713 3309 2830 
Q 3531 2947 3766 2947 
Q 3994 2947 4170 2830 
Q 4347 2713 4450 2447 
Q 4519 2266 4519 1878 
L 4519 647 
Q 4519 378 4559 278 
Q 4591 209 4675 161 
Q 4759 113 4950 113 
L 4950 0 
L 3538 0 
L 3538 113 
L 3597 113 
Q 3781 113 3884 184 
Q 3956 234 3988 344 
Q 4000 397 4000 647 
L 4000 1878 
Q 4000 2228 3916 2372 
Q 3794 2572 3525 2572 
Q 3359 2572 3192 2489 
Q 3025 2406 2788 2181 
L 2781 2147 
L 2788 2013 
L 2788 647 
Q 2788 353 2820 281 
Q 2853 209 2943 161 
Q 3034 113 3253 113 
L 3253 0 
L 1806 0 
L 1806 113 
Q 2044 113 2133 169 
Q 2222 225 2256 338 
Q 2272 391 2272 647 
L 2272 1878 
Q 2272 2228 2169 2381 
Q 2031 2581 1784 2581 
Q 1616 2581 1450 2491 
Q 1191 2353 1050 2181 
L 1050 647 
Q 1050 366 1089 281 
Q 1128 197 1204 155 
Q 1281 113 1516 113 
L 1516 0 
L 100 0 
L 100 113 
Q 297 113 375 155 
Q 453 197 493 289 
Q 534 381 534 647 
L 534 1741 
Q 534 2213 506 2350 
Q 484 2453 437 2492 
Q 391 2531 309 2531 
Q 222 2531 100 2484 
L 53 2597 
L 916 2947 
L 1050 2947 
L 1050 2338 
z
" transform="scale(0.015625)"/>
       <path id="TimesNewRomanPSMT-62" d="M 984 2369 
Q 1400 2947 1881 2947 
Q 2322 2947 2650 2570 
Q 2978 2194 2978 1541 
Q 2978 778 2472 313 
Q 2038 -88 1503 -88 
Q 1253 -88 995 3 
Q 738 94 469 275 
L 469 3241 
Q 469 3728 445 3840 
Q 422 3953 372 3993 
Q 322 4034 247 4034 
Q 159 4034 28 3984 
L -16 4094 
L 844 4444 
L 984 4444 
L 984 2369 
z
M 984 2169 
L 984 456 
Q 1144 300 1314 220 
Q 1484 141 1663 141 
Q 1947 141 2192 453 
Q 2438 766 2438 1363 
Q 2438 1913 2192 2208 
Q 1947 2503 1634 2503 
Q 1469 2503 1303 2419 
Q 1178 2356 984 2169 
z
" transform="scale(0.015625)"/>
       <path id="TimesNewRomanPSMT-65" d="M 681 1784 
Q 678 1147 991 784 
Q 1303 422 1725 422 
Q 2006 422 2214 576 
Q 2422 731 2563 1106 
L 2659 1044 
Q 2594 616 2278 264 
Q 1963 -88 1488 -88 
Q 972 -88 605 314 
Q 238 716 238 1394 
Q 238 2128 614 2539 
Q 991 2950 1559 2950 
Q 2041 2950 2350 2633 
Q 2659 2316 2659 1784 
L 681 1784 
z
M 681 1966 
L 2006 1966 
Q 1991 2241 1941 2353 
Q 1863 2528 1708 2628 
Q 1553 2728 1384 2728 
Q 1125 2728 920 2526 
Q 716 2325 681 1966 
z
" transform="scale(0.015625)"/>
       <path id="TimesNewRomanPSMT-72" d="M 1038 2947 
L 1038 2303 
Q 1397 2947 1775 2947 
Q 1947 2947 2059 2842 
Q 2172 2738 2172 2600 
Q 2172 2478 2090 2393 
Q 2009 2309 1897 2309 
Q 1788 2309 1652 2417 
Q 1516 2525 1450 2525 
Q 1394 2525 1328 2463 
Q 1188 2334 1038 2041 
L 1038 669 
Q 1038 431 1097 309 
Q 1138 225 1241 169 
Q 1344 113 1538 113 
L 1538 0 
L 72 0 
L 72 113 
Q 291 113 397 181 
Q 475 231 506 341 
Q 522 394 522 644 
L 522 1753 
Q 522 2253 501 2348 
Q 481 2444 426 2487 
Q 372 2531 291 2531 
Q 194 2531 72 2484 
L 41 2597 
L 906 2947 
L 1038 2947 
z
" transform="scale(0.015625)"/>
       <path id="TimesNewRomanPSMT-20" transform="scale(0.015625)"/>
       <path id="TimesNewRomanPSMT-6f" d="M 1600 2947 
Q 2250 2947 2644 2453 
Q 2978 2031 2978 1484 
Q 2978 1100 2793 706 
Q 2609 313 2286 112 
Q 1963 -88 1566 -88 
Q 919 -88 538 428 
Q 216 863 216 1403 
Q 216 1797 411 2186 
Q 606 2575 925 2761 
Q 1244 2947 1600 2947 
z
M 1503 2744 
Q 1338 2744 1170 2645 
Q 1003 2547 900 2300 
Q 797 2053 797 1666 
Q 797 1041 1045 587 
Q 1294 134 1700 134 
Q 2003 134 2200 384 
Q 2397 634 2397 1244 
Q 2397 2006 2069 2444 
Q 1847 2744 1503 2744 
z
" transform="scale(0.015625)"/>
       <path id="TimesNewRomanPSMT-66" d="M 1319 2638 
L 1319 756 
Q 1319 356 1406 250 
Q 1522 113 1716 113 
L 1975 113 
L 1975 0 
L 266 0 
L 266 113 
L 394 113 
Q 519 113 622 175 
Q 725 238 764 344 
Q 803 450 803 756 
L 803 2638 
L 247 2638 
L 247 2863 
L 803 2863 
L 803 3050 
Q 803 3478 940 3775 
Q 1078 4072 1361 4255 
Q 1644 4438 1997 4438 
Q 2325 4438 2600 4225 
Q 2781 4084 2781 3909 
Q 2781 3816 2700 3733 
Q 2619 3650 2525 3650 
Q 2453 3650 2373 3701 
Q 2294 3753 2178 3923 
Q 2063 4094 1966 4153 
Q 1869 4213 1750 4213 
Q 1606 4213 1506 4136 
Q 1406 4059 1362 3898 
Q 1319 3738 1319 3069 
L 1319 2863 
L 2056 2863 
L 2056 2638 
L 1319 2638 
z
" transform="scale(0.015625)"/>
       <path id="TimesNewRomanPSMT-69" d="M 928 4444 
Q 1059 4444 1151 4351 
Q 1244 4259 1244 4128 
Q 1244 3997 1151 3903 
Q 1059 3809 928 3809 
Q 797 3809 703 3903 
Q 609 3997 609 4128 
Q 609 4259 701 4351 
Q 794 4444 928 4444 
z
M 1188 2947 
L 1188 647 
Q 1188 378 1227 289 
Q 1266 200 1342 156 
Q 1419 113 1622 113 
L 1622 0 
L 231 0 
L 231 113 
Q 441 113 512 153 
Q 584 194 626 287 
Q 669 381 669 647 
L 669 1750 
Q 669 2216 641 2353 
Q 619 2453 572 2492 
Q 525 2531 444 2531 
Q 356 2531 231 2484 
L 188 2597 
L 1050 2947 
L 1188 2947 
z
" transform="scale(0.015625)"/>
       <path id="TimesNewRomanPSMT-74" d="M 1031 3803 
L 1031 2863 
L 1700 2863 
L 1700 2644 
L 1031 2644 
L 1031 788 
Q 1031 509 1111 412 
Q 1191 316 1316 316 
Q 1419 316 1516 380 
Q 1613 444 1666 569 
L 1788 569 
Q 1678 263 1478 108 
Q 1278 -47 1066 -47 
Q 922 -47 784 33 
Q 647 113 581 261 
Q 516 409 516 719 
L 516 2644 
L 63 2644 
L 63 2747 
Q 234 2816 414 2980 
Q 594 3144 734 3369 
Q 806 3488 934 3803 
L 1031 3803 
z
" transform="scale(0.015625)"/>
       <path id="TimesNewRomanPSMT-61" d="M 1822 413 
Q 1381 72 1269 19 
Q 1100 -59 909 -59 
Q 613 -59 420 144 
Q 228 347 228 678 
Q 228 888 322 1041 
Q 450 1253 767 1440 
Q 1084 1628 1822 1897 
L 1822 2009 
Q 1822 2438 1686 2597 
Q 1550 2756 1291 2756 
Q 1094 2756 978 2650 
Q 859 2544 859 2406 
L 866 2225 
Q 866 2081 792 2003 
Q 719 1925 600 1925 
Q 484 1925 411 2006 
Q 338 2088 338 2228 
Q 338 2497 613 2722 
Q 888 2947 1384 2947 
Q 1766 2947 2009 2819 
Q 2194 2722 2281 2516 
Q 2338 2381 2338 1966 
L 2338 994 
Q 2338 584 2353 492 
Q 2369 400 2405 369 
Q 2441 338 2488 338 
Q 2538 338 2575 359 
Q 2641 400 2828 588 
L 2828 413 
Q 2478 -56 2159 -56 
Q 2006 -56 1915 50 
Q 1825 156 1822 413 
z
M 1822 616 
L 1822 1706 
Q 1350 1519 1213 1441 
Q 966 1303 859 1153 
Q 753 1003 753 825 
Q 753 600 887 451 
Q 1022 303 1197 303 
Q 1434 303 1822 616 
z
" transform="scale(0.015625)"/>
       <path id="TimesNewRomanPSMT-6e" d="M 1034 2341 
Q 1538 2947 1994 2947 
Q 2228 2947 2397 2830 
Q 2566 2713 2666 2444 
Q 2734 2256 2734 1869 
L 2734 647 
Q 2734 375 2778 278 
Q 2813 200 2889 156 
Q 2966 113 3172 113 
L 3172 0 
L 1756 0 
L 1756 113 
L 1816 113 
Q 2016 113 2095 173 
Q 2175 234 2206 353 
Q 2219 400 2219 647 
L 2219 1819 
Q 2219 2209 2117 2386 
Q 2016 2563 1775 2563 
Q 1403 2563 1034 2156 
L 1034 647 
Q 1034 356 1069 288 
Q 1113 197 1189 155 
Q 1266 113 1500 113 
L 1500 0 
L 84 0 
L 84 113 
L 147 113 
Q 366 113 442 223 
Q 519 334 519 647 
L 519 1709 
Q 519 2225 495 2337 
Q 472 2450 423 2490 
Q 375 2531 294 2531 
Q 206 2531 84 2484 
L 38 2597 
L 900 2947 
L 1034 2947 
L 1034 2341 
z
" transform="scale(0.015625)"/>
       <path id="TimesNewRomanPSMT-73" d="M 2050 2947 
L 2050 1972 
L 1947 1972 
Q 1828 2431 1642 2597 
Q 1456 2763 1169 2763 
Q 950 2763 815 2647 
Q 681 2531 681 2391 
Q 681 2216 781 2091 
Q 878 1963 1175 1819 
L 1631 1597 
Q 2266 1288 2266 781 
Q 2266 391 1970 151 
Q 1675 -88 1309 -88 
Q 1047 -88 709 6 
Q 606 38 541 38 
Q 469 38 428 -44 
L 325 -44 
L 325 978 
L 428 978 
Q 516 541 762 319 
Q 1009 97 1316 97 
Q 1531 97 1667 223 
Q 1803 350 1803 528 
Q 1803 744 1651 891 
Q 1500 1038 1047 1263 
Q 594 1488 453 1669 
Q 313 1847 313 2119 
Q 313 2472 555 2709 
Q 797 2947 1181 2947 
Q 1350 2947 1591 2875 
Q 1750 2828 1803 2828 
Q 1853 2828 1881 2850 
Q 1909 2872 1947 2947 
L 2050 2947 
z
" transform="scale(0.015625)"/>
      </defs>
      <use xlink:href="#TimesNewRomanPSMT-4e"/>
      <use xlink:href="#TimesNewRomanPSMT-75" transform="translate(72.216797 0)"/>
      <use xlink:href="#TimesNewRomanPSMT-6d" transform="translate(122.216797 0)"/>
      <use xlink:href="#TimesNewRomanPSMT-62" transform="translate(200 0)"/>
      <use xlink:href="#TimesNewRomanPSMT-65" transform="translate(250 0)"/>
      <use xlink:href="#TimesNewRomanPSMT-72" transform="translate(294.384766 0)"/>
      <use xlink:href="#TimesNewRomanPSMT-20" transform="translate(327.685547 0)"/>
      <use xlink:href="#TimesNewRomanPSMT-6f" transform="translate(352.685547 0)"/>
      <use xlink:href="#TimesNewRomanPSMT-66" transform="translate(402.685547 0)"/>
      <use xlink:href="#TimesNewRomanPSMT-20" transform="translate(435.986328 0)"/>
      <use xlink:href="#TimesNewRomanPSMT-69" transform="translate(460.986328 0)"/>
      <use xlink:href="#TimesNewRomanPSMT-74" transform="translate(488.769531 0)"/>
      <use xlink:href="#TimesNewRomanPSMT-65" transform="translate(516.552734 0)"/>
      <use xlink:href="#TimesNewRomanPSMT-72" transform="translate(560.9375 0)"/>
      <use xlink:href="#TimesNewRomanPSMT-61" transform="translate(594.238281 0)"/>
      <use xlink:href="#TimesNewRomanPSMT-74" transform="translate(638.623047 0)"/>
      <use xlink:href="#TimesNewRomanPSMT-69" transform="translate(666.40625 0)"/>
      <use xlink:href="#TimesNewRomanPSMT-6f" transform="translate(694.189453 0)"/>
      <use xlink:href="#TimesNewRomanPSMT-6e" transform="translate(744.189453 0)"/>
      <use xlink:href="#TimesNewRomanPSMT-73" transform="translate(794.189453 0)"/>
     </g>
    </g>
   </g>
   <g id="matplotlib.axis_2">
    <g id="ytick_1">
     <g id="line2d_7">
      <path d="M 403.636125 311.6435 
L 760.756125 311.6435 
" clip-path="url(#pece4556a1a)" style="fill: none; stroke: #b0b0b0; stroke-opacity: 0.3; stroke-width: 0.8; stroke-linecap: square"/>
     </g>
     <g id="line2d_8">
      <defs>
       <path id="m0ae0009216" d="M 0 0 
L -3.5 0 
" style="stroke: #000000; stroke-width: 0.8"/>
      </defs>
      <g>
       <use xlink:href="#m0ae0009216" x="403.636125" y="311.6435" style="stroke: #000000; stroke-width: 0.8"/>
      </g>
     </g>
     <g id="text_5">
      <!-- 0.0 -->
      <g transform="translate(369.136125 319.281625) scale(0.22 -0.22)">
       <defs>
        <path id="TimesNewRomanPSMT-2e" d="M 800 606 
Q 947 606 1047 504 
Q 1147 403 1147 259 
Q 1147 116 1045 14 
Q 944 -88 800 -88 
Q 656 -88 554 14 
Q 453 116 453 259 
Q 453 406 554 506 
Q 656 606 800 606 
z
" transform="scale(0.015625)"/>
       </defs>
       <use xlink:href="#TimesNewRomanPSMT-30"/>
       <use xlink:href="#TimesNewRomanPSMT-2e" transform="translate(50 0)"/>
       <use xlink:href="#TimesNewRomanPSMT-30" transform="translate(75 0)"/>
      </g>
     </g>
    </g>
    <g id="ytick_2">
     <g id="line2d_9">
      <path d="M 403.636125 285.0323 
L 760.756125 285.0323 
" clip-path="url(#pece4556a1a)" style="fill: none; stroke: #b0b0b0; stroke-opacity: 0.3; stroke-width: 0.8; stroke-linecap: square"/>
     </g>
     <g id="line2d_10">
      <g>
       <use xlink:href="#m0ae0009216" x="403.636125" y="285.0323" style="stroke: #000000; stroke-width: 0.8"/>
      </g>
     </g>
     <g id="text_6">
      <!-- 0.1 -->
      <g transform="translate(369.136125 292.670425) scale(0.22 -0.22)">
       <use xlink:href="#TimesNewRomanPSMT-30"/>
       <use xlink:href="#TimesNewRomanPSMT-2e" transform="translate(50 0)"/>
       <use xlink:href="#TimesNewRomanPSMT-31" transform="translate(75 0)"/>
      </g>
     </g>
    </g>
    <g id="ytick_3">
     <g id="line2d_11">
      <path d="M 403.636125 258.4211 
L 760.756125 258.4211 
" clip-path="url(#pece4556a1a)" style="fill: none; stroke: #b0b0b0; stroke-opacity: 0.3; stroke-width: 0.8; stroke-linecap: square"/>
     </g>
     <g id="line2d_12">
      <g>
       <use xlink:href="#m0ae0009216" x="403.636125" y="258.4211" style="stroke: #000000; stroke-width: 0.8"/>
      </g>
     </g>
     <g id="text_7">
      <!-- 0.2 -->
      <g transform="translate(369.136125 266.059225) scale(0.22 -0.22)">
       <defs>
        <path id="TimesNewRomanPSMT-32" d="M 2934 816 
L 2638 0 
L 138 0 
L 138 116 
Q 1241 1122 1691 1759 
Q 2141 2397 2141 2925 
Q 2141 3328 1894 3587 
Q 1647 3847 1303 3847 
Q 991 3847 742 3664 
Q 494 3481 375 3128 
L 259 3128 
Q 338 3706 661 4015 
Q 984 4325 1469 4325 
Q 1984 4325 2329 3994 
Q 2675 3663 2675 3213 
Q 2675 2891 2525 2569 
Q 2294 2063 1775 1497 
Q 997 647 803 472 
L 1909 472 
Q 2247 472 2383 497 
Q 2519 522 2628 598 
Q 2738 675 2819 816 
L 2934 816 
z
" transform="scale(0.015625)"/>
       </defs>
       <use xlink:href="#TimesNewRomanPSMT-30"/>
       <use xlink:href="#TimesNewRomanPSMT-2e" transform="translate(50 0)"/>
       <use xlink:href="#TimesNewRomanPSMT-32" transform="translate(75 0)"/>
      </g>
     </g>
    </g>
    <g id="ytick_4">
     <g id="line2d_13">
      <path d="M 403.636125 231.8099 
L 760.756125 231.8099 
" clip-path="url(#pece4556a1a)" style="fill: none; stroke: #b0b0b0; stroke-opacity: 0.3; stroke-width: 0.8; stroke-linecap: square"/>
     </g>
     <g id="line2d_14">
      <g>
       <use xlink:href="#m0ae0009216" x="403.636125" y="231.8099" style="stroke: #000000; stroke-width: 0.8"/>
      </g>
     </g>
     <g id="text_8">
      <!-- 0.3 -->
      <g transform="translate(369.136125 239.448025) scale(0.22 -0.22)">
       <defs>
        <path id="TimesNewRomanPSMT-33" d="M 325 3431 
Q 506 3859 782 4092 
Q 1059 4325 1472 4325 
Q 1981 4325 2253 3994 
Q 2459 3747 2459 3466 
Q 2459 3003 1878 2509 
Q 2269 2356 2469 2072 
Q 2669 1788 2669 1403 
Q 2669 853 2319 450 
Q 1863 -75 997 -75 
Q 569 -75 414 31 
Q 259 138 259 259 
Q 259 350 332 419 
Q 406 488 509 488 
Q 588 488 669 463 
Q 722 447 909 348 
Q 1097 250 1169 231 
Q 1284 197 1416 197 
Q 1734 197 1970 444 
Q 2206 691 2206 1028 
Q 2206 1275 2097 1509 
Q 2016 1684 1919 1775 
Q 1784 1900 1550 2001 
Q 1316 2103 1072 2103 
L 972 2103 
L 972 2197 
Q 1219 2228 1467 2375 
Q 1716 2522 1828 2728 
Q 1941 2934 1941 3181 
Q 1941 3503 1739 3701 
Q 1538 3900 1238 3900 
Q 753 3900 428 3381 
L 325 3431 
z
" transform="scale(0.015625)"/>
       </defs>
       <use xlink:href="#TimesNewRomanPSMT-30"/>
       <use xlink:href="#TimesNewRomanPSMT-2e" transform="translate(50 0)"/>
       <use xlink:href="#TimesNewRomanPSMT-33" transform="translate(75 0)"/>
      </g>
     </g>
    </g>
    <g id="ytick_5">
     <g id="line2d_15">
      <path d="M 403.636125 205.1987 
L 760.756125 205.1987 
" clip-path="url(#pece4556a1a)" style="fill: none; stroke: #b0b0b0; stroke-opacity: 0.3; stroke-width: 0.8; stroke-linecap: square"/>
     </g>
     <g id="line2d_16">
      <g>
       <use xlink:href="#m0ae0009216" x="403.636125" y="205.1987" style="stroke: #000000; stroke-width: 0.8"/>
      </g>
     </g>
     <g id="text_9">
      <!-- 0.4 -->
      <g transform="translate(369.136125 212.836825) scale(0.22 -0.22)">
       <defs>
        <path id="TimesNewRomanPSMT-34" d="M 2978 1563 
L 2978 1119 
L 2409 1119 
L 2409 0 
L 1894 0 
L 1894 1119 
L 100 1119 
L 100 1519 
L 2066 4325 
L 2409 4325 
L 2409 1563 
L 2978 1563 
z
M 1894 1563 
L 1894 3666 
L 406 1563 
L 1894 1563 
z
" transform="scale(0.015625)"/>
       </defs>
       <use xlink:href="#TimesNewRomanPSMT-30"/>
       <use xlink:href="#TimesNewRomanPSMT-2e" transform="translate(50 0)"/>
       <use xlink:href="#TimesNewRomanPSMT-34" transform="translate(75 0)"/>
      </g>
     </g>
    </g>
    <g id="ytick_6">
     <g id="line2d_17">
      <path d="M 403.636125 178.5875 
L 760.756125 178.5875 
" clip-path="url(#pece4556a1a)" style="fill: none; stroke: #b0b0b0; stroke-opacity: 0.3; stroke-width: 0.8; stroke-linecap: square"/>
     </g>
     <g id="line2d_18">
      <g>
       <use xlink:href="#m0ae0009216" x="403.636125" y="178.5875" style="stroke: #000000; stroke-width: 0.8"/>
      </g>
     </g>
     <g id="text_10">
      <!-- 0.5 -->
      <g transform="translate(369.136125 186.225625) scale(0.22 -0.22)">
       <use xlink:href="#TimesNewRomanPSMT-30"/>
       <use xlink:href="#TimesNewRomanPSMT-2e" transform="translate(50 0)"/>
       <use xlink:href="#TimesNewRomanPSMT-35" transform="translate(75 0)"/>
      </g>
     </g>
    </g>
    <g id="ytick_7">
     <g id="line2d_19">
      <path d="M 403.636125 151.9763 
L 760.756125 151.9763 
" clip-path="url(#pece4556a1a)" style="fill: none; stroke: #b0b0b0; stroke-opacity: 0.3; stroke-width: 0.8; stroke-linecap: square"/>
     </g>
     <g id="line2d_20">
      <g>
       <use xlink:href="#m0ae0009216" x="403.636125" y="151.9763" style="stroke: #000000; stroke-width: 0.8"/>
      </g>
     </g>
     <g id="text_11">
      <!-- 0.6 -->
      <g transform="translate(369.136125 159.614425) scale(0.22 -0.22)">
       <defs>
        <path id="TimesNewRomanPSMT-36" d="M 2869 4325 
L 2869 4209 
Q 2456 4169 2195 4045 
Q 1934 3922 1679 3669 
Q 1425 3416 1258 3105 
Q 1091 2794 978 2366 
Q 1428 2675 1881 2675 
Q 2316 2675 2634 2325 
Q 2953 1975 2953 1425 
Q 2953 894 2631 456 
Q 2244 -75 1606 -75 
Q 1172 -75 869 213 
Q 275 772 275 1663 
Q 275 2231 503 2743 
Q 731 3256 1154 3653 
Q 1578 4050 1965 4187 
Q 2353 4325 2688 4325 
L 2869 4325 
z
M 925 2138 
Q 869 1716 869 1456 
Q 869 1156 980 804 
Q 1091 453 1309 247 
Q 1469 100 1697 100 
Q 1969 100 2183 356 
Q 2397 613 2397 1088 
Q 2397 1622 2184 2012 
Q 1972 2403 1581 2403 
Q 1463 2403 1327 2353 
Q 1191 2303 925 2138 
z
" transform="scale(0.015625)"/>
       </defs>
       <use xlink:href="#TimesNewRomanPSMT-30"/>
       <use xlink:href="#TimesNewRomanPSMT-2e" transform="translate(50 0)"/>
       <use xlink:href="#TimesNewRomanPSMT-36" transform="translate(75 0)"/>
      </g>
     </g>
    </g>
    <g id="ytick_8">
     <g id="line2d_21">
      <path d="M 403.636125 125.3651 
L 760.756125 125.3651 
" clip-path="url(#pece4556a1a)" style="fill: none; stroke: #b0b0b0; stroke-opacity: 0.3; stroke-width: 0.8; stroke-linecap: square"/>
     </g>
     <g id="line2d_22">
      <g>
       <use xlink:href="#m0ae0009216" x="403.636125" y="125.3651" style="stroke: #000000; stroke-width: 0.8"/>
      </g>
     </g>
     <g id="text_12">
      <!-- 0.7 -->
      <g transform="translate(369.136125 133.003225) scale(0.22 -0.22)">
       <defs>
        <path id="TimesNewRomanPSMT-37" d="M 644 4238 
L 2916 4238 
L 2916 4119 
L 1503 -88 
L 1153 -88 
L 2419 3728 
L 1253 3728 
Q 900 3728 750 3644 
Q 488 3500 328 3200 
L 238 3234 
L 644 4238 
z
" transform="scale(0.015625)"/>
       </defs>
       <use xlink:href="#TimesNewRomanPSMT-30"/>
       <use xlink:href="#TimesNewRomanPSMT-2e" transform="translate(50 0)"/>
       <use xlink:href="#TimesNewRomanPSMT-37" transform="translate(75 0)"/>
      </g>
     </g>
    </g>
    <g id="ytick_9">
     <g id="line2d_23">
      <path d="M 403.636125 98.7539 
L 760.756125 98.7539 
" clip-path="url(#pece4556a1a)" style="fill: none; stroke: #b0b0b0; stroke-opacity: 0.3; stroke-width: 0.8; stroke-linecap: square"/>
     </g>
     <g id="line2d_24">
      <g>
       <use xlink:href="#m0ae0009216" x="403.636125" y="98.7539" style="stroke: #000000; stroke-width: 0.8"/>
      </g>
     </g>
     <g id="text_13">
      <!-- 0.8 -->
      <g transform="translate(369.136125 106.392025) scale(0.22 -0.22)">
       <defs>
        <path id="TimesNewRomanPSMT-38" d="M 1228 2134 
Q 725 2547 579 2797 
Q 434 3047 434 3316 
Q 434 3728 753 4026 
Q 1072 4325 1600 4325 
Q 2113 4325 2425 4047 
Q 2738 3769 2738 3413 
Q 2738 3175 2569 2928 
Q 2400 2681 1866 2347 
Q 2416 1922 2594 1678 
Q 2831 1359 2831 1006 
Q 2831 559 2490 242 
Q 2150 -75 1597 -75 
Q 994 -75 656 303 
Q 388 606 388 966 
Q 388 1247 577 1523 
Q 766 1800 1228 2134 
z
M 1719 2469 
Q 2094 2806 2194 3001 
Q 2294 3197 2294 3444 
Q 2294 3772 2109 3958 
Q 1925 4144 1606 4144 
Q 1288 4144 1088 3959 
Q 888 3775 888 3528 
Q 888 3366 970 3203 
Q 1053 3041 1206 2894 
L 1719 2469 
z
M 1375 2016 
Q 1116 1797 991 1539 
Q 866 1281 866 981 
Q 866 578 1086 336 
Q 1306 94 1647 94 
Q 1984 94 2187 284 
Q 2391 475 2391 747 
Q 2391 972 2272 1150 
Q 2050 1481 1375 2016 
z
" transform="scale(0.015625)"/>
       </defs>
       <use xlink:href="#TimesNewRomanPSMT-30"/>
       <use xlink:href="#TimesNewRomanPSMT-2e" transform="translate(50 0)"/>
       <use xlink:href="#TimesNewRomanPSMT-38" transform="translate(75 0)"/>
      </g>
     </g>
    </g>
    <g id="ytick_10">
     <g id="line2d_25">
      <path d="M 403.636125 72.1427 
L 760.756125 72.1427 
" clip-path="url(#pece4556a1a)" style="fill: none; stroke: #b0b0b0; stroke-opacity: 0.3; stroke-width: 0.8; stroke-linecap: square"/>
     </g>
     <g id="line2d_26">
      <g>
       <use xlink:href="#m0ae0009216" x="403.636125" y="72.1427" style="stroke: #000000; stroke-width: 0.8"/>
      </g>
     </g>
     <g id="text_14">
      <!-- 0.9 -->
      <g transform="translate(369.136125 79.780825) scale(0.22 -0.22)">
       <defs>
        <path id="TimesNewRomanPSMT-39" d="M 338 -88 
L 338 28 
Q 744 34 1094 217 
Q 1444 400 1770 856 
Q 2097 1313 2225 1859 
Q 1734 1544 1338 1544 
Q 891 1544 572 1889 
Q 253 2234 253 2806 
Q 253 3363 572 3797 
Q 956 4325 1575 4325 
Q 2097 4325 2469 3894 
Q 2925 3359 2925 2575 
Q 2925 1869 2578 1258 
Q 2231 647 1613 244 
Q 1109 -88 516 -88 
L 338 -88 
z
M 2275 2091 
Q 2331 2497 2331 2741 
Q 2331 3044 2228 3395 
Q 2125 3747 1936 3934 
Q 1747 4122 1506 4122 
Q 1228 4122 1018 3872 
Q 809 3622 809 3128 
Q 809 2469 1088 2097 
Q 1291 1828 1588 1828 
Q 1731 1828 1928 1897 
Q 2125 1966 2275 2091 
z
" transform="scale(0.015625)"/>
       </defs>
       <use xlink:href="#TimesNewRomanPSMT-30"/>
       <use xlink:href="#TimesNewRomanPSMT-2e" transform="translate(50 0)"/>
       <use xlink:href="#TimesNewRomanPSMT-39" transform="translate(75 0)"/>
      </g>
     </g>
    </g>
    <g id="ytick_11">
     <g id="line2d_27">
      <path d="M 403.636125 45.5315 
L 760.756125 45.5315 
" clip-path="url(#pece4556a1a)" style="fill: none; stroke: #b0b0b0; stroke-opacity: 0.3; stroke-width: 0.8; stroke-linecap: square"/>
     </g>
     <g id="line2d_28">
      <g>
       <use xlink:href="#m0ae0009216" x="403.636125" y="45.5315" style="stroke: #000000; stroke-width: 0.8"/>
      </g>
     </g>
     <g id="text_15">
      <!-- 1.0 -->
      <g transform="translate(369.136125 53.169625) scale(0.22 -0.22)">
       <use xlink:href="#TimesNewRomanPSMT-31"/>
       <use xlink:href="#TimesNewRomanPSMT-2e" transform="translate(50 0)"/>
       <use xlink:href="#TimesNewRomanPSMT-30" transform="translate(75 0)"/>
      </g>
     </g>
    </g>
    <g id="text_16">
     <!-- Accuracy -->
     <g transform="translate(360.388938 220.726094) rotate(-90) scale(0.22 -0.22)">
      <defs>
       <path id="TimesNewRomanPSMT-41" d="M 2928 1419 
L 1288 1419 
L 1000 750 
Q 894 503 894 381 
Q 894 284 986 211 
Q 1078 138 1384 116 
L 1384 0 
L 50 0 
L 50 116 
Q 316 163 394 238 
Q 553 388 747 847 
L 2238 4334 
L 2347 4334 
L 3822 809 
Q 4000 384 4145 257 
Q 4291 131 4550 116 
L 4550 0 
L 2878 0 
L 2878 116 
Q 3131 128 3220 200 
Q 3309 272 3309 375 
Q 3309 513 3184 809 
L 2928 1419 
z
M 2841 1650 
L 2122 3363 
L 1384 1650 
L 2841 1650 
z
" transform="scale(0.015625)"/>
       <path id="TimesNewRomanPSMT-63" d="M 2631 1088 
Q 2516 522 2178 217 
Q 1841 -88 1431 -88 
Q 944 -88 581 321 
Q 219 731 219 1428 
Q 219 2103 620 2525 
Q 1022 2947 1584 2947 
Q 2006 2947 2278 2723 
Q 2550 2500 2550 2259 
Q 2550 2141 2473 2067 
Q 2397 1994 2259 1994 
Q 2075 1994 1981 2113 
Q 1928 2178 1911 2362 
Q 1894 2547 1784 2644 
Q 1675 2738 1481 2738 
Q 1169 2738 978 2506 
Q 725 2200 725 1697 
Q 725 1184 976 792 
Q 1228 400 1656 400 
Q 1963 400 2206 609 
Q 2378 753 2541 1131 
L 2631 1088 
z
" transform="scale(0.015625)"/>
       <path id="TimesNewRomanPSMT-79" d="M 38 2863 
L 1372 2863 
L 1372 2747 
L 1306 2747 
Q 1166 2747 1095 2686 
Q 1025 2625 1025 2534 
Q 1025 2413 1128 2197 
L 1825 753 
L 2466 2334 
Q 2519 2463 2519 2588 
Q 2519 2644 2497 2672 
Q 2472 2706 2419 2726 
Q 2366 2747 2231 2747 
L 2231 2863 
L 3163 2863 
L 3163 2747 
Q 3047 2734 2984 2696 
Q 2922 2659 2847 2556 
Q 2819 2513 2741 2316 
L 1575 -541 
Q 1406 -956 1132 -1168 
Q 859 -1381 606 -1381 
Q 422 -1381 303 -1275 
Q 184 -1169 184 -1031 
Q 184 -900 270 -820 
Q 356 -741 506 -741 
Q 609 -741 788 -809 
Q 913 -856 944 -856 
Q 1038 -856 1148 -759 
Q 1259 -663 1372 -384 
L 1575 113 
L 547 2272 
Q 500 2369 397 2513 
Q 319 2622 269 2659 
Q 197 2709 38 2747 
L 38 2863 
z
" transform="scale(0.015625)"/>
      </defs>
      <use xlink:href="#TimesNewRomanPSMT-41"/>
      <use xlink:href="#TimesNewRomanPSMT-63" transform="translate(72.216797 0)"/>
      <use xlink:href="#TimesNewRomanPSMT-63" transform="translate(116.601562 0)"/>
      <use xlink:href="#TimesNewRomanPSMT-75" transform="translate(160.986328 0)"/>
      <use xlink:href="#TimesNewRomanPSMT-72" transform="translate(210.986328 0)"/>
      <use xlink:href="#TimesNewRomanPSMT-61" transform="translate(244.287109 0)"/>
      <use xlink:href="#TimesNewRomanPSMT-63" transform="translate(288.671875 0)"/>
      <use xlink:href="#TimesNewRomanPSMT-79" transform="translate(333.056641 0)"/>
     </g>
    </g>
   </g>
   <g id="line2d_29">
    <path d="M 403.636125 176.844463 
L 403.879395 169.624842 
L 404.122665 166.12814 
L 404.365934 169.225687 
L 404.609204 163.062522 
L 404.852474 162.155085 
L 405.095744 162.037996 
L 405.339013 163.065187 
L 405.582283 159.190601 
L 405.825553 159.712175 
L 406.068823 157.98511 
L 406.312092 160.930973 
L 406.555362 157.165482 
L 406.798632 157.38104 
L 407.041902 157.23467 
L 407.285171 156.441658 
L 407.528441 158.485398 
L 407.771711 162.780441 
L 408.014981 160.121989 
L 408.25825 156.109026 
L 408.50152 155.763071 
L 408.74479 159.821286 
L 408.98806 155.840253 
L 409.231329 157.599247 
L 409.474599 157.090965 
L 409.717869 158.245905 
L 409.961139 157.49813 
L 410.204408 158.309763 
L 410.447678 157.224027 
L 410.690948 157.075008 
L 410.934218 155.85621 
L 411.177487 156.675837 
L 411.420757 154.954086 
L 411.664027 157.530059 
L 411.907297 155.111099 
L 412.150566 158.871261 
L 412.393836 159.79467 
L 412.637106 155.193595 
L 412.880376 155.526227 
L 413.123645 155.015296 
L 413.366915 156.721074 
L 413.610185 161.790509 
L 413.853455 155.097791 
L 414.096724 154.459128 
L 414.339994 154.866277 
L 414.826534 154.491057 
L 415.069803 157.649813 
L 415.313073 154.395253 
L 415.556343 155.792351 
L 415.799613 154.043984 
L 416.042882 156.875423 
L 416.286152 157.495465 
L 416.529422 154.754517 
L 416.772692 154.073265 
L 417.015962 155.036582 
L 417.259231 155.3373 
L 417.502501 157.822783 
L 417.745771 154.717258 
L 418.23231 154.863612 
L 418.47558 155.765736 
L 418.71885 154.898206 
L 418.96212 155.355922 
L 419.448659 154.576217 
L 419.691929 155.031268 
L 419.935199 154.656048 
L 420.421738 155.635338 
L 420.665008 155.268112 
L 421.151547 155.063198 
L 421.394817 157.945187 
L 421.638087 155.113764 
L 421.881357 154.121167 
L 422.124626 154.387275 
L 422.367896 155.113764 
L 422.611166 154.448485 
L 422.854436 156.385778 
L 423.097705 156.532132 
L 423.340975 159.068182 
L 423.584245 154.078578 
L 423.827515 153.878993 
L 424.070784 154.903536 
L 424.314054 154.078578 
L 424.557324 154.041336 
L 424.800594 159.746769 
L 425.043863 153.791184 
L 425.287133 153.203071 
L 425.530403 153.530389 
L 425.773673 154.475084 
L 426.016942 157.306523 
L 426.260212 156.018536 
L 426.503482 153.916252 
L 426.746752 155.427774 
L 426.990021 154.310109 
L 427.233291 155.507605 
L 427.476561 154.456463 
L 427.719831 154.584196 
L 427.9631 154.185025 
L 428.20637 153.447893 
L 428.44964 155.10577 
L 428.69291 153.093975 
L 428.936179 154.091886 
L 429.422719 153.253637 
L 429.665989 154.959416 
L 429.909259 158.607817 
L 430.395798 152.218467 
L 430.639068 153.165828 
L 430.882338 151.476006 
L 431.125607 152.404745 
L 431.368877 154.105194 
L 431.612147 153.549026 
L 431.855417 151.648976 
L 432.098686 151.845912 
L 432.341956 151.523907 
L 432.585226 152.335557 
L 432.828496 156.037174 
L 433.071765 155.691218 
L 433.315035 150.653729 
L 433.558305 149.850058 
L 433.801575 154.267521 
L 434.044844 149.610565 
L 434.288114 149.251318 
L 434.774654 147.633348 
L 435.017923 149.062375 
L 435.261193 147.337975 
L 435.504463 146.821715 
L 435.747733 147.111774 
L 435.991002 146.446495 
L 436.234272 146.555606 
L 436.477542 146.406572 
L 436.720812 148.021876 
L 436.964081 144.785953 
L 437.207351 146.002087 
L 437.450621 145.001511 
L 437.693891 148.298628 
L 437.93716 143.178643 
L 438.18043 143.239837 
L 438.4237 143.458059 
L 438.66697 144.227121 
L 438.910239 142.752857 
L 439.396779 141.842755 
L 439.883318 139.024624 
L 440.126588 138.872941 
L 440.369858 138.202348 
L 440.613128 141.983795 
L 441.099667 136.006924 
L 441.342937 137.819149 
L 441.586207 135.248506 
L 441.829476 133.952541 
L 442.072746 135.756772 
L 442.316016 133.26596 
L 442.559286 133.359099 
L 443.045825 130.548962 
L 443.289095 131.041272 
L 443.532365 128.396111 
L 443.775635 135.304386 
L 444.018904 127.89051 
L 444.262174 130.485088 
L 444.505444 130.149791 
L 444.991983 124.739731 
L 445.235253 124.484266 
L 445.965062 119.154053 
L 446.208332 119.614417 
L 446.938141 115.018671 
L 447.181411 117.892682 
L 447.424681 113.93027 
L 447.667951 114.497081 
L 447.91122 111.71356 
L 448.15449 113.158544 
L 448.39776 109.052427 
L 448.64103 109.778916 
L 448.884299 109.712393 
L 449.127569 109.768273 
L 449.370839 113.781251 
L 449.614109 110.375008 
L 449.857378 105.361453 
L 450.100648 107.442452 
L 450.343918 104.161292 
L 450.587188 105.430657 
L 451.073727 102.39432 
L 451.316997 106.290193 
L 451.560267 99.291443 
L 451.803536 102.814777 
L 452.046806 104.573771 
L 452.290076 99.469743 
L 452.533346 99.488364 
L 452.776615 98.466502 
L 453.019885 99.640048 
L 453.263155 97.875724 
L 453.749694 98.091282 
L 453.992964 95.156062 
L 454.236234 96.249792 
L 454.479504 98.610207 
L 454.722774 94.498777 
L 454.966043 95.65635 
L 455.209313 93.173532 
L 455.452583 94.517398 
L 455.695853 98.618186 
L 455.939122 95.222601 
L 456.182392 95.674987 
L 456.425662 93.005875 
L 456.912201 91.177694 
L 457.155471 90.174453 
L 457.398741 90.815781 
L 457.88528 89.612955 
L 458.12855 88.396822 
L 458.37182 90.531036 
L 458.61509 87.092879 
L 458.858359 88.543176 
L 459.101629 88.84123 
L 459.588169 87.090214 
L 459.831438 87.063598 
L 460.074708 89.160569 
L 460.317978 89.147262 
L 460.561248 87.566551 
L 461.047787 89.378776 
L 461.291057 87.382938 
L 461.777596 85.307253 
L 462.020866 85.586685 
L 462.264136 85.347177 
L 462.507406 87.143429 
L 462.750675 85.277989 
L 463.237215 84.500949 
L 463.480485 84.476998 
L 463.723754 85.243395 
L 464.210294 84.487641 
L 464.453564 84.564807 
L 464.940103 86.933201 
L 465.183373 85.44298 
L 465.426643 87.760807 
L 465.669912 85.914003 
L 465.913182 86.251965 
L 466.399722 83.473742 
L 466.642991 83.263513 
L 466.886261 84.298699 
L 467.129531 83.68397 
L 467.372801 84.586094 
L 467.616071 84.069833 
L 467.85934 84.125729 
L 468.10261 83.843648 
L 468.34588 84.657946 
L 468.58915 82.875001 
L 468.832419 82.129891 
L 469.318959 83.574875 
L 469.562229 83.726558 
L 469.805498 83.119824 
L 470.048768 83.939452 
L 470.292038 82.45188 
L 470.535308 85.549427 
L 470.778577 84.194917 
L 471.021847 83.888885 
L 471.265117 85.246059 
L 471.508387 81.427353 
L 471.751656 81.296955 
L 472.238196 85.56007 
L 472.481466 82.483809 
L 472.724735 83.159731 
L 472.968005 82.169799 
L 473.454545 81.986186 
L 473.697814 81.81853 
L 473.941084 84.099114 
L 474.184354 81.799908 
L 474.427624 82.545019 
L 474.670893 81.147937 
L 474.914163 81.262362 
L 475.157433 81.869096 
L 475.400703 81.001567 
L 475.643972 81.020204 
L 476.130512 82.435907 
L 476.373782 83.000069 
L 476.617051 80.719485 
L 476.860321 80.376211 
L 477.103591 82.047395 
L 477.346861 81.403402 
L 477.59013 81.805222 
L 477.8334 80.889806 
L 478.07667 80.916406 
L 478.31994 81.09737 
L 478.563209 80.450712 
L 478.806479 82.393335 
L 479.779558 80.450712 
L 480.022828 81.352836 
L 480.266098 80.546516 
L 480.509368 81.073419 
L 480.752637 79.886566 
L 480.995907 81.64556 
L 481.239177 80.77803 
L 481.482447 83.316744 
L 481.725716 80.570467 
L 481.968986 81.352836 
L 482.212256 79.934452 
L 482.698795 82.089968 
L 482.942065 80.410805 
L 483.185335 80.916406 
L 483.428605 80.413453 
L 483.915144 80.165982 
L 484.158414 80.221862 
L 484.401684 80.775366 
L 484.644953 79.947759 
L 484.888223 79.857285 
L 485.131493 79.258529 
L 485.374763 79.213292 
L 485.618032 79.716245 
L 485.861302 79.521989 
L 486.104572 80.203225 
L 486.347842 81.661532 
L 486.591111 81.384765 
L 486.834381 79.849307 
L 487.077651 81.251718 
L 487.320921 79.090889 
L 487.56419 80.317666 
L 488.05073 78.516084 
L 488.294 79.689629 
L 488.537269 79.176034 
L 488.780539 81.100035 
L 489.023809 80.17929 
L 489.267079 78.518748 
L 489.753618 80.530543 
L 490.240158 78.542699 
L 490.726697 79.452801 
L 490.969967 78.44956 
L 491.213237 79.588512 
L 491.456506 79.524654 
L 491.699776 78.412302 
L 491.943046 79.580534 
L 492.186316 82.459858 
L 492.429585 82.457193 
L 492.672855 80.360238 
L 493.159395 79.066938 
L 493.402665 79.356997 
L 493.645934 78.798165 
L 493.889204 79.716245 
L 494.132474 79.39957 
L 494.375744 79.6577 
L 494.619013 78.48149 
L 495.105553 78.633173 
L 495.348823 82.422599 
L 495.592092 79.319739 
L 495.835362 78.436253 
L 496.078632 78.414966 
L 496.565171 79.120153 
L 496.808441 78.816786 
L 497.051711 78.846066 
L 497.294981 79.064273 
L 497.53825 78.979113 
L 497.78152 79.28781 
L 498.02479 78.577293 
L 498.26806 80.016947 
L 498.511329 79.314425 
L 498.997869 78.872666 
L 499.241139 79.231929 
L 499.484408 79.061609 
L 499.727678 79.112175 
L 499.970948 78.188765 
L 500.700757 78.904611 
L 500.944027 78.095627 
L 501.187297 78.510754 
L 501.430566 78.095627 
L 501.917106 79.655035 
L 502.160376 79.503352 
L 502.403645 79.721574 
L 502.646915 79.223935 
L 502.890185 79.354333 
L 503.133455 78.987107 
L 503.376724 80.575796 
L 503.619994 78.603893 
L 504.106534 78.013131 
L 504.349803 79.458115 
L 504.593073 78.553342 
L 504.836343 78.827429 
L 505.322882 79.758833 
L 505.566152 79.136126 
L 505.809422 81.198487 
L 506.539231 77.981202 
L 506.782501 78.24731 
L 507.025771 81.001567 
L 507.269041 78.414966 
L 507.51231 79.221286 
L 507.75558 79.298453 
L 507.99885 78.063697 
L 508.728659 79.285145 
L 508.971929 79.000399 
L 509.215199 79.28781 
L 509.458468 78.556007 
L 509.701738 78.933876 
L 509.945008 78.164815 
L 510.188278 78.577293 
L 510.431547 79.846642 
L 510.674817 78.811473 
L 510.918087 78.923233 
L 511.161357 78.180787 
L 511.891166 79.580534 
L 512.134436 78.553342 
L 512.377705 77.007226 
L 512.620975 78.178122 
L 512.864245 77.917327 
L 513.107515 78.928562 
L 513.350784 78.896617 
L 513.594054 77.5022 
L 513.837324 77.574053 
L 514.080594 77.438326 
L 514.567133 78.526727 
L 514.810403 78.231338 
L 515.053673 77.326565 
L 515.296942 78.444231 
L 515.540212 78.074341 
L 515.783482 77.938614 
L 516.026752 78.500111 
L 516.270021 78.074341 
L 516.513291 78.736955 
L 516.756561 78.183436 
L 516.999831 77.252048 
L 517.2431 77.632597 
L 517.48637 78.577293 
L 517.97291 77.699121 
L 518.216179 78.806143 
L 518.459449 78.784857 
L 519.189259 77.462277 
L 519.432528 80.599747 
L 519.675798 78.356422 
L 519.919068 77.755001 
L 520.162338 78.705026 
L 520.405607 77.78693 
L 520.648877 78.305855 
L 520.892147 78.404308 
L 521.135417 78.949848 
L 521.378686 77.379781 
L 521.621956 78.558656 
L 521.865226 77.970559 
L 522.108496 80.469349 
L 522.351765 78.194079 
L 522.595035 79.2266 
L 522.838305 78.556007 
L 523.081575 78.558656 
L 523.324844 78.210052 
L 523.568114 78.542699 
L 523.811384 78.601244 
L 524.054654 80.349595 
L 524.297923 77.925322 
L 524.541193 77.917327 
L 524.784463 77.635246 
L 525.027733 78.231338 
L 525.271002 77.590009 
L 525.514272 77.542108 
L 526.000812 77.9333 
L 526.244081 78.662438 
L 526.487351 78.971135 
L 526.730621 80.14468 
L 526.973891 78.484154 
L 527.21716 78.457539 
L 527.46043 79.197336 
L 527.7037 78.513419 
L 527.94697 78.526727 
L 528.190239 78.356422 
L 528.433509 78.800829 
L 528.676779 79.85995 
L 528.920049 78.30852 
L 529.163318 78.183436 
L 529.406588 78.234003 
L 529.649858 77.092386 
L 529.893128 77.180195 
L 530.136397 77.661862 
L 530.379667 77.491557 
L 530.622937 77.866777 
L 530.866207 77.220119 
L 531.109476 78.124891 
L 531.352746 78.074341 
L 531.596016 76.719831 
L 531.839286 77.550102 
L 532.082556 77.845475 
L 532.325825 77.275999 
L 532.569095 78.210052 
L 532.812365 77.954586 
L 533.055635 77.201482 
L 533.298904 77.081743 
L 533.542174 77.701785 
L 533.785444 77.87209 
L 534.028714 78.550678 
L 534.271983 78.540035 
L 534.515253 77.286642 
L 534.758523 77.515508 
L 535.001793 77.954586 
L 535.245062 77.547437 
L 535.488332 78.702361 
L 535.731602 78.715669 
L 536.218141 77.052463 
L 536.947951 78.524062 
L 537.19122 77.946608 
L 537.43449 77.736379 
L 537.67776 79.237243 
L 537.92103 77.480914 
L 538.164299 81.123986 
L 538.407569 81.725391 
L 538.650839 78.489468 
L 538.894109 81.810551 
L 539.137378 78.316498 
L 539.380648 77.270685 
L 539.867188 79.186692 
L 540.110457 77.685813 
L 540.596997 79.559248 
L 540.840267 78.01846 
L 541.083536 78.689053 
L 541.326806 78.130221 
L 541.570076 78.518748 
L 541.813346 78.268596 
L 542.056615 77.699121 
L 542.299885 77.909349 
L 542.543155 77.712428 
L 542.786425 78.811473 
L 543.029694 83.65737 
L 543.272964 77.967894 
L 543.516234 77.997158 
L 543.759504 78.470847 
L 544.002774 77.78693 
L 544.246043 78.353757 
L 544.489313 77.456963 
L 544.732583 80.453377 
L 544.975853 79.750839 
L 545.462392 77.044484 
L 545.705662 77.78693 
L 545.948932 76.871515 
L 546.192201 77.935965 
L 546.435471 77.222784 
L 546.678741 78.069011 
L 546.922011 77.935965 
L 547.16528 77.103029 
L 547.40855 77.800238 
L 547.65182 77.643241 
L 548.138359 78.079654 
L 548.381629 79.019036 
L 548.624899 79.263859 
L 548.868169 77.124315 
L 549.111438 77.073749 
L 549.597978 78.494797 
L 549.841248 79.058944 
L 550.327787 76.799662 
L 550.571057 77.430347 
L 550.814327 77.624603 
L 551.057596 77.566058 
L 551.300866 77.313258 
L 551.787406 77.566058 
L 552.030675 77.158909 
L 552.273945 77.488892 
L 552.517215 77.129645 
L 553.003754 77.826853 
L 553.247024 77.81621 
L 553.490294 78.444231 
L 553.733564 77.640576 
L 553.976833 77.999823 
L 554.220103 77.797573 
L 554.463373 78.457539 
L 554.706643 79.567226 
L 554.949912 77.888063 
L 555.193182 77.853469 
L 555.436452 77.35583 
L 555.679722 77.339873 
L 556.166261 77.999823 
L 556.409531 77.699121 
L 556.652801 77.78693 
L 556.896071 78.077005 
L 557.13934 78.651795 
L 557.38261 77.84814 
L 557.62588 77.930635 
L 557.86915 77.5022 
L 558.112419 77.345187 
L 558.355689 77.627268 
L 558.598959 78.079654 
L 558.842229 80.03292 
L 559.085498 78.883309 
L 559.328768 78.391016 
L 559.572038 78.340449 
L 559.815308 77.629933 
L 560.058577 77.909349 
L 560.301847 78.414966 
L 560.545117 78.321828 
L 560.788387 77.845475 
L 561.031656 79.319739 
L 561.274926 78.034417 
L 561.518196 77.582031 
L 561.761466 77.866777 
L 562.004735 77.49687 
L 562.248005 78.606558 
L 562.491275 78.885974 
L 562.734545 76.850228 
L 562.977814 77.132294 
L 563.221084 77.861447 
L 563.464354 76.884822 
L 563.950893 77.584696 
L 564.194163 77.462277 
L 564.437433 79.133461 
L 564.680703 78.617201 
L 564.923972 77.390424 
L 565.167242 77.491557 
L 565.410512 78.617201 
L 565.653782 77.653884 
L 565.897051 80.131388 
L 566.140321 77.922657 
L 566.383591 78.319163 
L 566.626861 77.363824 
L 566.87013 77.909349 
L 567.1134 77.257378 
L 567.35667 77.278664 
L 567.59994 76.895465 
L 567.843209 77.387775 
L 568.086479 77.345187 
L 568.573019 77.691142 
L 568.816288 77.47292 
L 569.059558 78.039747 
L 569.302828 76.938038 
L 569.546098 77.113672 
L 569.789368 77.866777 
L 570.032637 77.755001 
L 570.275907 78.132885 
L 570.519177 79.25588 
L 570.762447 78.119578 
L 571.248986 78.119578 
L 571.492256 78.452209 
L 571.735526 77.914663 
L 571.978795 78.444231 
L 572.222065 78.340449 
L 572.708605 78.534705 
L 572.951874 77.414375 
L 573.195144 77.547437 
L 573.438414 77.448969 
L 573.681684 77.598003 
L 573.924953 77.347852 
L 574.168223 77.305279 
L 574.411493 78.603893 
L 574.654763 77.834832 
L 574.898032 78.872666 
L 575.141302 77.888063 
L 575.384572 78.665103 
L 575.627842 77.874755 
L 575.871111 77.475584 
L 576.357651 78.752928 
L 576.84419 77.912014 
L 577.08746 77.906684 
L 577.33073 77.409061 
L 577.574 77.66984 
L 577.817269 78.367065 
L 578.060539 77.967894 
L 578.790348 77.853469 
L 579.033618 78.56665 
L 579.276888 77.217454 
L 579.520158 77.919992 
L 579.763427 77.733715 
L 580.006697 77.401067 
L 580.249967 77.656548 
L 580.493237 77.049798 
L 580.979776 78.657124 
L 581.223046 78.691718 
L 581.466316 78.585272 
L 581.709585 78.002488 
L 581.952855 79.617792 
L 582.196125 78.391016 
L 582.682665 79.080246 
L 582.925934 77.608647 
L 583.169204 78.002488 
L 583.412474 78.697032 
L 583.655744 78.404308 
L 583.899013 77.32923 
L 584.142283 78.24731 
L 584.628823 77.76033 
L 584.872092 78.582607 
L 585.115362 78.111599 
L 585.358632 77.297285 
L 585.601902 77.688478 
L 585.845171 77.61929 
L 586.088441 77.837496 
L 586.331711 77.29995 
L 586.574981 77.582031 
L 586.81825 77.103029 
L 587.06152 76.988604 
L 587.30479 77.986515 
L 587.54806 77.582031 
L 587.791329 77.962564 
L 588.034599 77.491557 
L 588.277869 77.283977 
L 588.521139 78.377708 
L 588.764408 77.792259 
L 589.007678 77.821524 
L 589.250948 77.448969 
L 589.494218 77.281328 
L 589.737487 78.44956 
L 589.980757 78.904611 
L 590.224027 77.350516 
L 590.953836 77.302615 
L 591.197106 78.029104 
L 591.440376 77.321236 
L 592.170185 77.651219 
L 592.413455 78.345779 
L 592.656724 77.824189 
L 592.899994 77.566058 
L 593.143264 77.858783 
L 593.386534 77.095051 
L 593.629803 77.084408 
L 594.116343 78.151507 
L 594.359613 77.762979 
L 594.602882 78.260618 
L 594.846152 79.434164 
L 595.332692 76.932708 
L 595.575962 77.778952 
L 595.819231 77.667191 
L 596.062501 78.329806 
L 596.305771 77.206811 
L 596.549041 77.645889 
L 596.79231 76.674594 
L 597.03558 77.214789 
L 597.27885 76.983275 
L 597.52212 78.010466 
L 597.765389 77.603317 
L 598.008659 78.090297 
L 598.251929 77.999823 
L 598.738468 77.076414 
L 599.711547 78.098291 
L 599.954817 78.582607 
L 600.198087 77.592674 
L 600.441357 77.100364 
L 600.684626 77.475584 
L 600.927896 78.697032 
L 601.171166 78.806143 
L 601.414436 78.212716 
L 601.657705 77.305279 
L 601.900975 77.464941 
L 602.144245 77.401067 
L 602.387515 78.414966 
L 602.874054 77.637911 
L 603.117324 76.693215 
L 603.360594 76.286066 
L 603.603863 76.818283 
L 604.090403 77.087057 
L 604.820212 79.503352 
L 605.063482 78.130221 
L 605.306752 78.720983 
L 605.550021 78.545348 
L 605.793291 77.281328 
L 606.036561 76.972632 
L 606.279831 78.343114 
L 606.5231 78.569299 
L 606.76637 78.393664 
L 607.25291 77.478249 
L 607.496179 76.871515 
L 607.739449 76.839569 
L 607.982719 77.888063 
L 608.225989 77.595339 
L 608.469259 78.494797 
L 608.955798 77.297285 
L 609.199068 77.371802 
L 609.442338 77.063106 
L 609.685607 77.536794 
L 609.928877 78.324477 
L 610.172147 77.861447 
L 610.415417 77.997158 
L 610.658686 77.661862 
L 611.145226 77.518157 
L 611.388496 78.59325 
L 611.875035 76.866185 
L 612.118305 77.61396 
L 612.361575 78.763571 
L 612.604844 77.810881 
L 612.848114 77.475584 
L 613.091384 78.103605 
L 613.334654 77.919992 
L 613.577923 78.603893 
L 613.821193 78.244646 
L 614.064463 77.648554 
L 614.307733 77.574053 
L 614.551002 77.699121 
L 614.794272 78.007801 
L 615.037542 76.842234 
L 615.280812 76.847564 
L 615.524081 77.313258 
L 616.010621 76.86885 
L 616.253891 76.975296 
L 616.49716 78.979113 
L 616.74043 78.763571 
L 617.22697 77.433012 
L 617.470239 77.712428 
L 617.713509 78.33512 
L 617.956779 77.927971 
L 618.200049 77.973208 
L 618.443318 77.61396 
L 618.686588 77.688478 
L 618.929858 78.417615 
L 619.173128 77.61929 
L 619.416397 77.422369 
L 619.659667 77.919992 
L 619.902937 77.555415 
L 620.146207 77.478249 
L 620.389476 77.268021 
L 620.632746 77.616625 
L 620.876016 77.739028 
L 621.119286 78.478825 
L 621.362556 77.313258 
L 621.605825 77.84814 
L 621.849095 77.249383 
L 622.092365 77.18819 
L 622.578904 78.617201 
L 622.822174 77.778952 
L 623.065444 77.752336 
L 623.308714 77.081743 
L 623.795253 78.311169 
L 624.038523 77.574053 
L 624.525062 77.768309 
L 624.768332 78.255289 
L 625.011602 77.611295 
L 625.254872 77.818875 
L 625.741411 78.657124 
L 625.984681 77.560745 
L 626.227951 77.507514 
L 626.47122 76.991253 
L 626.71449 78.212716 
L 626.95776 78.05039 
L 627.20103 79.689629 
L 627.444299 78.888639 
L 627.930839 79.833335 
L 628.417378 77.132294 
L 628.660648 77.555415 
L 628.903918 78.524062 
L 629.147188 76.906109 
L 629.390457 77.739028 
L 629.633727 77.640576 
L 629.876997 77.41171 
L 630.120267 78.391016 
L 630.363536 78.430923 
L 630.606806 77.84814 
L 630.850076 78.337784 
L 631.093346 77.246734 
L 631.336615 77.185525 
L 631.579885 77.962564 
L 632.066425 78.234003 
L 632.309694 77.840161 
L 632.552964 79.378284 
L 632.796234 77.44632 
L 633.039504 77.611295 
L 633.282774 78.159485 
L 633.526043 77.983851 
L 634.012583 76.682572 
L 634.255853 77.656548 
L 634.499122 76.948681 
L 634.742392 77.193503 
L 634.985662 78.090297 
L 635.228932 77.409061 
L 635.472201 77.403732 
L 635.715471 77.61396 
L 635.958741 79.588512 
L 636.202011 77.755001 
L 636.44528 77.512843 
L 636.68855 77.571388 
L 636.93182 81.182531 
L 637.17509 77.87742 
L 637.661629 77.252048 
L 638.148169 78.500111 
L 638.634708 77.230762 
L 638.877978 77.451633 
L 639.121248 79.628436 
L 639.364517 77.914663 
L 639.607787 77.100364 
L 639.851057 77.951921 
L 640.094327 77.478249 
L 640.337596 77.579366 
L 640.580866 76.943367 
L 640.824136 77.116337 
L 641.067406 78.651795 
L 641.310675 81.145272 
L 641.553945 77.704434 
L 641.797215 77.778952 
L 642.040485 77.640576 
L 642.283754 77.209476 
L 642.527024 77.576701 
L 643.013564 77.265356 
L 643.256833 78.832759 
L 643.500103 77.869426 
L 643.743373 77.951921 
L 643.986643 77.249383 
L 644.229912 77.842826 
L 644.473182 76.799662 
L 644.716452 77.898706 
L 644.959722 78.026439 
L 645.202991 77.033841 
L 645.446261 77.523486 
L 645.932801 76.932708 
L 646.176071 77.401067 
L 646.41934 77.454298 
L 646.66261 76.451058 
L 646.90588 76.820948 
L 647.14915 77.794924 
L 647.635689 76.903444 
L 647.878959 77.393089 
L 648.122229 77.32923 
L 648.365498 78.321828 
L 648.608768 77.345187 
L 648.852038 76.876828 
L 649.095308 77.494206 
L 649.338577 77.230762 
L 649.581847 77.699121 
L 649.825117 77.885398 
L 650.311656 77.24407 
L 650.554926 76.951346 
L 650.798196 76.930059 
L 651.041466 77.943943 
L 651.528005 77.438326 
L 651.771275 78.414966 
L 652.014545 78.385686 
L 652.257814 77.778952 
L 652.501084 78.119578 
L 652.744354 77.158909 
L 652.987624 77.768309 
L 653.230893 77.550102 
L 653.474163 77.587345 
L 653.717433 78.305855 
L 653.960703 78.19143 
L 654.203972 77.66984 
L 654.447242 76.770382 
L 654.690512 77.526151 
L 654.933782 76.903444 
L 655.177051 77.914663 
L 655.663591 77.374467 
L 655.906861 77.707099 
L 656.15013 77.459612 
L 656.3934 77.736379 
L 656.63667 78.236667 
L 656.87994 77.526151 
L 657.123209 77.547437 
L 657.853019 77.209476 
L 658.096288 77.683148 
L 658.339558 77.212141 
L 659.069368 77.294636 
L 659.312637 77.66984 
L 659.555907 77.435661 
L 659.799177 77.858783 
L 660.042447 77.797573 
L 660.285716 77.100364 
L 660.528986 76.762403 
L 660.772256 78.542699 
L 661.258795 80.384189 
L 661.502065 79.85995 
L 661.745335 77.752336 
L 661.988605 77.560745 
L 662.231874 76.916752 
L 662.475144 77.076414 
L 662.718414 76.796997 
L 662.961684 77.137623 
L 663.204953 76.690551 
L 663.448223 76.828926 
L 663.934763 77.621939 
L 664.178032 76.794332 
L 664.421302 77.119002 
L 664.664572 77.137623 
L 664.907842 78.130221 
L 665.151111 78.33512 
L 665.394381 77.510178 
L 665.637651 77.265356 
L 665.880921 77.345187 
L 666.12419 77.092386 
L 666.36746 77.278664 
L 666.854 76.977961 
L 667.340539 77.566058 
L 667.583809 77.73105 
L 667.827079 77.579366 
L 668.070348 78.212716 
L 668.313618 78.10627 
L 668.556888 77.220119 
L 668.800158 77.283977 
L 669.043427 76.602741 
L 669.286697 77.648554 
L 669.529967 77.406396 
L 669.773237 77.35583 
L 670.016506 77.166888 
L 670.503046 77.166888 
L 670.746316 77.590009 
L 670.989585 77.387775 
L 671.232855 78.441566 
L 671.476125 77.480914 
L 671.719395 78.103605 
L 671.962665 78.21803 
L 672.205934 78.768884 
L 672.449204 78.273926 
L 672.692474 78.430923 
L 672.935744 77.268021 
L 673.179013 77.991845 
L 673.422283 79.612463 
L 673.665553 77.611295 
L 673.908823 77.725736 
L 674.395362 78.556007 
L 674.638632 77.744358 
L 674.881902 79.189341 
L 675.125171 78.44956 
L 675.368441 78.188765 
L 675.611711 77.523486 
L 675.854981 77.377116 
L 676.09825 77.55808 
L 676.34152 78.05039 
L 676.58479 77.970559 
L 676.82806 78.186101 
L 677.071329 80.03292 
L 677.314599 77.092386 
L 677.557869 77.531464 
L 678.044408 77.802902 
L 678.530948 77.587345 
L 679.017487 79.125483 
L 679.260757 77.142937 
L 679.990566 78.768884 
L 680.233836 78.790171 
L 680.477106 79.162742 
L 680.720376 78.13555 
L 680.963645 78.05039 
L 681.206915 77.76033 
L 681.450185 77.113672 
L 681.693455 77.286642 
L 681.936724 76.629341 
L 682.666534 78.406972 
L 682.909803 77.768309 
L 683.153073 78.731626 
L 683.396343 78.776879 
L 683.639613 77.142937 
L 684.126152 79.295788 
L 684.612692 76.874179 
L 684.855962 78.585272 
L 685.099231 77.475584 
L 685.342501 78.992421 
L 685.585771 77.914663 
L 685.829041 78.090297 
L 686.07231 77.249383 
L 686.55885 77.363824 
L 687.045389 77.715093 
L 687.531929 76.839569 
L 687.775199 76.919416 
L 688.018468 77.611295 
L 688.261738 78.755577 
L 688.505008 78.380373 
L 688.748278 78.697032 
L 688.991547 81.193174 
L 689.234817 78.122242 
L 689.478087 77.890712 
L 689.721357 77.228097 
L 689.964626 77.321236 
L 690.207896 76.961989 
L 690.694436 76.650643 
L 690.937705 76.81297 
L 691.180975 76.754425 
L 691.424245 77.222784 
L 691.667515 77.307928 
L 691.910784 76.589433 
L 692.154054 77.361159 
L 692.640594 77.015204 
L 692.883863 77.174882 
L 693.127133 77.491557 
L 693.613673 76.754425 
L 693.856942 77.060457 
L 694.100212 78.973799 
L 694.343482 79.146769 
L 694.586752 77.571388 
L 694.830021 78.30319 
L 695.316561 77.430347 
L 695.559831 77.997158 
L 696.28964 77.651219 
L 696.53291 77.129645 
L 696.776179 76.900779 
L 697.019449 77.180195 
L 697.262719 77.081743 
L 697.505989 78.087648 
L 697.749259 77.981202 
L 697.992528 77.105694 
L 698.479068 78.736955 
L 698.722338 77.87209 
L 698.965607 77.770973 
L 699.208877 78.723647 
L 699.695417 77.829518 
L 699.938686 77.949257 
L 700.181956 78.747598 
L 700.425226 77.890712 
L 700.668496 77.603317 
L 700.911765 77.129645 
L 701.155035 79.420856 
L 701.398305 77.121651 
L 701.641575 77.720407 
L 701.884844 77.778952 
L 702.128114 77.297285 
L 702.371384 77.566058 
L 702.614654 77.052463 
L 702.857923 76.00665 
L 703.344463 76.826278 
L 703.587733 77.67517 
L 703.831002 77.039155 
L 704.317542 77.959916 
L 704.560812 77.696456 
L 704.804081 77.190838 
L 705.047351 77.374467 
L 705.290621 76.770382 
L 705.533891 77.574053 
L 705.77716 76.882158 
L 706.02043 76.693215 
L 706.2637 77.164239 
L 706.50697 77.220119 
L 706.750239 77.156245 
L 707.236779 78.130221 
L 707.480049 77.73105 
L 707.723318 78.069011 
L 707.966588 78.707691 
L 708.209858 78.643816 
L 708.453128 78.21803 
L 708.696397 79.122818 
L 708.939667 77.917327 
L 709.182937 77.808232 
L 709.426207 78.172793 
L 709.669476 77.715093 
L 709.912746 76.632006 
L 710.156016 77.246734 
L 710.399286 77.254713 
L 710.642556 77.741693 
L 710.885825 77.063106 
L 711.129095 76.719831 
L 711.372365 77.568723 
L 711.615635 77.305279 
L 711.858904 77.448969 
L 712.102174 78.595915 
L 712.588714 76.938038 
L 712.831983 77.494206 
L 713.075253 76.770382 
L 713.318523 77.060457 
L 713.561793 77.108343 
L 714.048332 77.970559 
L 714.534872 76.613384 
L 714.778141 76.914087 
L 715.021411 76.993918 
L 715.264681 77.5288 
L 715.507951 77.230762 
L 715.75122 77.755001 
L 715.99449 77.523486 
L 716.23776 76.927395 
L 716.724299 76.908773 
L 716.967569 77.164239 
L 717.210839 76.823613 
L 717.454109 77.060457 
L 717.697378 76.592098 
L 717.940648 78.319163 
L 718.183918 77.488892 
L 718.427188 77.270685 
L 718.670457 77.683148 
L 718.913727 77.23874 
L 719.643536 78.811473 
L 719.886806 77.818875 
L 720.373346 78.047725 
L 720.616615 77.198833 
L 720.859885 77.576701 
L 721.103155 77.542108 
L 721.589694 78.830094 
L 721.832964 76.860871 
L 722.076234 76.560153 
L 722.319504 78.069011 
L 722.562774 77.983851 
L 723.049313 77.073749 
L 723.779122 77.004561 
L 724.022392 77.598003 
L 724.508932 76.786354 
L 724.752201 77.366473 
L 724.995471 77.582031 
L 725.238741 78.119578 
L 725.482011 77.249383 
L 725.72528 76.815634 
L 725.96855 77.289307 
L 726.21182 76.985939 
L 726.45509 78.375043 
L 726.698359 77.478249 
L 726.941629 77.837496 
L 727.184899 78.803478 
L 727.428169 77.90402 
L 727.671438 78.73962 
L 727.914708 77.268021 
L 728.157978 76.794332 
L 728.401248 76.637335 
L 728.644517 77.254713 
L 728.887787 77.419704 
L 729.131057 77.914663 
L 729.374327 77.853469 
L 729.617596 78.372378 
L 729.860866 77.012555 
L 730.104136 76.573461 
L 730.347406 78.058368 
L 730.590675 77.61929 
L 730.833945 76.37654 
L 731.077215 76.895465 
L 731.320485 77.747022 
L 731.563754 78.037082 
L 732.050294 77.24407 
L 732.293564 77.35583 
L 732.536833 77.063106 
L 732.780103 77.18819 
L 733.023373 77.512843 
L 733.266643 76.866185 
L 733.509912 77.281328 
L 733.753182 78.351092 
L 733.996452 78.074341 
L 734.239722 78.510754 
L 734.482991 77.970559 
L 734.726261 77.797573 
L 734.969531 76.632006 
L 735.212801 77.893377 
L 735.456071 77.331879 
L 735.69934 77.810881 
L 735.94261 79.176034 
L 736.18588 77.206811 
L 736.672419 76.988604 
L 736.915689 78.002488 
L 737.158959 77.840161 
L 737.402229 79.066938 
L 737.645498 77.61396 
L 737.888768 76.972632 
L 738.132038 76.999247 
L 738.375308 77.286642 
L 738.618577 78.167479 
L 738.861847 77.363824 
L 739.105117 78.673081 
L 739.591656 76.717166 
L 740.078196 77.393089 
L 740.808005 77.060457 
L 741.051275 77.919992 
L 741.537814 77.18819 
L 741.781084 76.685237 
L 742.024354 77.100364 
L 742.267624 78.406972 
L 742.510893 77.943943 
L 742.754163 78.417615 
L 742.997433 80.426761 
L 743.483972 77.845475 
L 743.727242 78.590601 
L 743.970512 80.078157 
L 744.213782 77.797573 
L 744.457051 78.627844 
L 744.700321 77.230762 
L 745.186861 77.587345 
L 745.43013 76.858207 
L 745.6734 77.762979 
L 745.91667 77.04182 
L 746.15994 77.233427 
L 746.403209 76.858207 
L 746.646479 77.595339 
L 746.889749 76.935373 
L 747.133019 77.582031 
L 747.376288 77.401067 
L 747.619558 77.970559 
L 747.862828 77.430347 
L 748.106098 77.563394 
L 748.349368 78.263283 
L 748.592637 78.24731 
L 748.835907 77.563394 
L 749.079177 77.661862 
L 749.322447 78.827429 
L 749.565716 78.928562 
L 749.808986 78.313833 
L 750.052256 77.268021 
L 750.295526 77.749687 
L 750.538795 77.254713 
L 750.782065 77.544772 
L 751.025335 77.289307 
L 751.268605 77.488892 
L 751.511874 77.494206 
L 751.755144 77.770973 
L 751.998414 78.324477 
L 752.241684 77.281328 
L 752.484953 77.499535 
L 752.971493 76.770382 
L 753.458032 76.908773 
L 753.701302 76.669264 
L 753.944572 76.661286 
L 754.187842 77.41704 
L 754.431111 76.501608 
L 754.674381 77.475584 
L 754.917651 77.350516 
L 755.40419 77.470255 
L 755.64746 77.672505 
L 756.134 79.367641 
L 756.377269 79.992997 
L 756.620539 77.914663 
L 756.863809 77.161574 
L 757.107079 76.911422 
L 757.350348 77.033841 
L 757.593618 77.323901 
L 757.836888 76.357919 
L 758.080158 77.246734 
L 758.566697 76.32066 
L 758.809967 77.305279 
L 759.053237 76.701194 
L 759.539776 77.451633 
L 759.783046 77.196168 
L 760.026316 77.736379 
L 760.269585 76.860871 
L 760.512855 76.810305 
L 760.756125 77.023198 
L 760.756125 77.023198 
" clip-path="url(#pece4556a1a)" style="fill: none; stroke: #1f77b4; stroke-width: 1.5; stroke-linecap: square"/>
   </g>
   <g id="patch_3">
    <path d="M 403.636125 311.6435 
L 403.636125 45.5315 
" style="fill: none; stroke: #000000; stroke-width: 0.8; stroke-linejoin: miter; stroke-linecap: square"/>
   </g>
   <g id="patch_4">
    <path d="M 760.756125 311.6435 
L 760.756125 45.5315 
" style="fill: none; stroke: #000000; stroke-width: 0.8; stroke-linejoin: miter; stroke-linecap: square"/>
   </g>
   <g id="patch_5">
    <path d="M 403.636125 311.6435 
L 760.756125 311.6435 
" style="fill: none; stroke: #000000; stroke-width: 0.8; stroke-linejoin: miter; stroke-linecap: square"/>
   </g>
   <g id="patch_6">
    <path d="M 403.636125 45.5315 
L 760.756125 45.5315 
" style="fill: none; stroke: #000000; stroke-width: 0.8; stroke-linejoin: miter; stroke-linecap: square"/>
   </g>
   <g id="text_17">
    <!-- Accuracy of the 03_06_25_teacher_(d-100_k-1_n-10e6)_torch_model_(100+2048.3+1) on the validation set -->
    <g transform="translate(7.2 25.5315) scale(0.264 -0.264)">
     <defs>
      <path id="TimesNewRomanPSMT-68" d="M 1041 4444 
L 1041 2350 
Q 1388 2731 1591 2839 
Q 1794 2947 1997 2947 
Q 2241 2947 2416 2812 
Q 2591 2678 2675 2391 
Q 2734 2191 2734 1659 
L 2734 647 
Q 2734 375 2778 275 
Q 2809 200 2884 156 
Q 2959 113 3159 113 
L 3159 0 
L 1753 0 
L 1753 113 
L 1819 113 
Q 2019 113 2097 173 
Q 2175 234 2206 353 
Q 2216 403 2216 647 
L 2216 1659 
Q 2216 2128 2167 2275 
Q 2119 2422 2012 2495 
Q 1906 2569 1756 2569 
Q 1603 2569 1437 2487 
Q 1272 2406 1041 2159 
L 1041 647 
Q 1041 353 1073 281 
Q 1106 209 1195 161 
Q 1284 113 1503 113 
L 1503 0 
L 84 0 
L 84 113 
Q 275 113 384 172 
Q 447 203 484 290 
Q 522 378 522 647 
L 522 3238 
Q 522 3728 498 3840 
Q 475 3953 426 3993 
Q 378 4034 297 4034 
Q 231 4034 84 3984 
L 41 4094 
L 897 4444 
L 1041 4444 
z
" transform="scale(0.015625)"/>
      <path id="TimesNewRomanPSMT-5f" d="M 3256 -1381 
L -53 -1381 
L -53 -1119 
L 3256 -1119 
L 3256 -1381 
z
" transform="scale(0.015625)"/>
      <path id="TimesNewRomanPSMT-28" d="M 1988 -1253 
L 1988 -1369 
Q 1516 -1131 1200 -813 
Q 750 -359 506 256 
Q 263 872 263 1534 
Q 263 2503 741 3301 
Q 1219 4100 1988 4444 
L 1988 4313 
Q 1603 4100 1356 3731 
Q 1109 3363 987 2797 
Q 866 2231 866 1616 
Q 866 947 969 400 
Q 1050 -31 1165 -292 
Q 1281 -553 1476 -793 
Q 1672 -1034 1988 -1253 
z
" transform="scale(0.015625)"/>
      <path id="TimesNewRomanPSMT-64" d="M 2222 322 
Q 2013 103 1813 7 
Q 1613 -88 1381 -88 
Q 913 -88 563 304 
Q 213 697 213 1313 
Q 213 1928 600 2439 
Q 988 2950 1597 2950 
Q 1975 2950 2222 2709 
L 2222 3238 
Q 2222 3728 2198 3840 
Q 2175 3953 2125 3993 
Q 2075 4034 2000 4034 
Q 1919 4034 1784 3984 
L 1744 4094 
L 2597 4444 
L 2738 4444 
L 2738 1134 
Q 2738 631 2761 520 
Q 2784 409 2836 365 
Q 2888 322 2956 322 
Q 3041 322 3181 375 
L 3216 266 
L 2366 -88 
L 2222 -88 
L 2222 322 
z
M 2222 541 
L 2222 2016 
Q 2203 2228 2109 2403 
Q 2016 2578 1861 2667 
Q 1706 2756 1559 2756 
Q 1284 2756 1069 2509 
Q 784 2184 784 1559 
Q 784 928 1059 592 
Q 1334 256 1672 256 
Q 1956 256 2222 541 
z
" transform="scale(0.015625)"/>
      <path id="TimesNewRomanPSMT-2d" d="M 259 1672 
L 1875 1672 
L 1875 1200 
L 259 1200 
L 259 1672 
z
" transform="scale(0.015625)"/>
      <path id="TimesNewRomanPSMT-6b" d="M 1047 4444 
L 1047 1594 
L 1775 2259 
Q 2006 2472 2044 2528 
Q 2069 2566 2069 2603 
Q 2069 2666 2017 2711 
Q 1966 2756 1847 2763 
L 1847 2863 
L 3091 2863 
L 3091 2763 
Q 2834 2756 2664 2684 
Q 2494 2613 2291 2428 
L 1556 1750 
L 2291 822 
Q 2597 438 2703 334 
Q 2853 188 2966 144 
Q 3044 113 3238 113 
L 3238 0 
L 1847 0 
L 1847 113 
Q 1966 116 2008 148 
Q 2050 181 2050 241 
Q 2050 313 1925 472 
L 1047 1594 
L 1047 644 
Q 1047 366 1086 278 
Q 1125 191 1197 153 
Q 1269 116 1509 113 
L 1509 0 
L 53 0 
L 53 113 
Q 272 113 381 166 
Q 447 200 481 272 
Q 528 375 528 628 
L 528 3234 
Q 528 3731 506 3842 
Q 484 3953 434 3995 
Q 384 4038 303 4038 
Q 238 4038 106 3984 
L 53 4094 
L 903 4444 
L 1047 4444 
z
" transform="scale(0.015625)"/>
      <path id="TimesNewRomanPSMT-29" d="M 144 4313 
L 144 4444 
Q 619 4209 934 3891 
Q 1381 3434 1625 2820 
Q 1869 2206 1869 1541 
Q 1869 572 1392 -226 
Q 916 -1025 144 -1369 
L 144 -1253 
Q 528 -1038 776 -670 
Q 1025 -303 1145 264 
Q 1266 831 1266 1447 
Q 1266 2113 1163 2663 
Q 1084 3094 967 3353 
Q 850 3613 656 3853 
Q 463 4094 144 4313 
z
" transform="scale(0.015625)"/>
      <path id="TimesNewRomanPSMT-6c" d="M 1184 4444 
L 1184 647 
Q 1184 378 1223 290 
Q 1263 203 1344 158 
Q 1425 113 1647 113 
L 1647 0 
L 244 0 
L 244 113 
Q 441 113 512 153 
Q 584 194 625 287 
Q 666 381 666 647 
L 666 3247 
Q 666 3731 644 3842 
Q 622 3953 573 3993 
Q 525 4034 450 4034 
Q 369 4034 244 3984 
L 191 4094 
L 1044 4444 
L 1184 4444 
z
" transform="scale(0.015625)"/>
      <path id="TimesNewRomanPSMT-2b" d="M 1672 441 
L 1672 2000 
L 116 2000 
L 116 2256 
L 1672 2256 
L 1672 3809 
L 1922 3809 
L 1922 2256 
L 3484 2256 
L 3484 2000 
L 1922 2000 
L 1922 441 
L 1672 441 
z
" transform="scale(0.015625)"/>
      <path id="TimesNewRomanPSMT-76" d="M 53 2863 
L 1400 2863 
L 1400 2747 
L 1313 2747 
Q 1191 2747 1127 2687 
Q 1063 2628 1063 2528 
Q 1063 2419 1128 2269 
L 1794 688 
L 2463 2328 
Q 2534 2503 2534 2594 
Q 2534 2638 2509 2666 
Q 2475 2713 2422 2730 
Q 2369 2747 2206 2747 
L 2206 2863 
L 3141 2863 
L 3141 2747 
Q 2978 2734 2916 2681 
Q 2806 2588 2719 2369 
L 1703 -88 
L 1575 -88 
L 553 2328 
Q 484 2497 421 2570 
Q 359 2644 263 2694 
Q 209 2722 53 2747 
L 53 2863 
z
" transform="scale(0.015625)"/>
     </defs>
     <use xlink:href="#TimesNewRomanPSMT-41"/>
     <use xlink:href="#TimesNewRomanPSMT-63" transform="translate(72.216797 0)"/>
     <use xlink:href="#TimesNewRomanPSMT-63" transform="translate(116.601562 0)"/>
     <use xlink:href="#TimesNewRomanPSMT-75" transform="translate(160.986328 0)"/>
     <use xlink:href="#TimesNewRomanPSMT-72" transform="translate(210.986328 0)"/>
     <use xlink:href="#TimesNewRomanPSMT-61" transform="translate(244.287109 0)"/>
     <use xlink:href="#TimesNewRomanPSMT-63" transform="translate(288.671875 0)"/>
     <use xlink:href="#TimesNewRomanPSMT-79" transform="translate(333.056641 0)"/>
     <use xlink:href="#TimesNewRomanPSMT-20" transform="translate(383.056641 0)"/>
     <use xlink:href="#TimesNewRomanPSMT-6f" transform="translate(408.056641 0)"/>
     <use xlink:href="#TimesNewRomanPSMT-66" transform="translate(458.056641 0)"/>
     <use xlink:href="#TimesNewRomanPSMT-20" transform="translate(491.357422 0)"/>
     <use xlink:href="#TimesNewRomanPSMT-74" transform="translate(516.357422 0)"/>
     <use xlink:href="#TimesNewRomanPSMT-68" transform="translate(544.140625 0)"/>
     <use xlink:href="#TimesNewRomanPSMT-65" transform="translate(594.140625 0)"/>
     <use xlink:href="#TimesNewRomanPSMT-20" transform="translate(638.525391 0)"/>
     <use xlink:href="#TimesNewRomanPSMT-30" transform="translate(663.525391 0)"/>
     <use xlink:href="#TimesNewRomanPSMT-33" transform="translate(713.525391 0)"/>
     <use xlink:href="#TimesNewRomanPSMT-5f" transform="translate(763.525391 0)"/>
     <use xlink:href="#TimesNewRomanPSMT-30" transform="translate(813.525391 0)"/>
     <use xlink:href="#TimesNewRomanPSMT-36" transform="translate(863.525391 0)"/>
     <use xlink:href="#TimesNewRomanPSMT-5f" transform="translate(913.525391 0)"/>
     <use xlink:href="#TimesNewRomanPSMT-32" transform="translate(963.525391 0)"/>
     <use xlink:href="#TimesNewRomanPSMT-35" transform="translate(1013.525391 0)"/>
     <use xlink:href="#TimesNewRomanPSMT-5f" transform="translate(1063.525391 0)"/>
     <use xlink:href="#TimesNewRomanPSMT-74" transform="translate(1113.525391 0)"/>
     <use xlink:href="#TimesNewRomanPSMT-65" transform="translate(1141.308594 0)"/>
     <use xlink:href="#TimesNewRomanPSMT-61" transform="translate(1185.693359 0)"/>
     <use xlink:href="#TimesNewRomanPSMT-63" transform="translate(1230.078125 0)"/>
     <use xlink:href="#TimesNewRomanPSMT-68" transform="translate(1274.462891 0)"/>
     <use xlink:href="#TimesNewRomanPSMT-65" transform="translate(1324.462891 0)"/>
     <use xlink:href="#TimesNewRomanPSMT-72" transform="translate(1368.847656 0)"/>
     <use xlink:href="#TimesNewRomanPSMT-5f" transform="translate(1402.148438 0)"/>
     <use xlink:href="#TimesNewRomanPSMT-28" transform="translate(1452.148438 0)"/>
     <use xlink:href="#TimesNewRomanPSMT-64" transform="translate(1485.449219 0)"/>
     <use xlink:href="#TimesNewRomanPSMT-2d" transform="translate(1535.449219 0)"/>
     <use xlink:href="#TimesNewRomanPSMT-31" transform="translate(1568.75 0)"/>
     <use xlink:href="#TimesNewRomanPSMT-30" transform="translate(1618.75 0)"/>
     <use xlink:href="#TimesNewRomanPSMT-30" transform="translate(1668.75 0)"/>
     <use xlink:href="#TimesNewRomanPSMT-5f" transform="translate(1718.75 0)"/>
     <use xlink:href="#TimesNewRomanPSMT-6b" transform="translate(1768.75 0)"/>
     <use xlink:href="#TimesNewRomanPSMT-2d" transform="translate(1818.75 0)"/>
     <use xlink:href="#TimesNewRomanPSMT-31" transform="translate(1852.050781 0)"/>
     <use xlink:href="#TimesNewRomanPSMT-5f" transform="translate(1902.050781 0)"/>
     <use xlink:href="#TimesNewRomanPSMT-6e" transform="translate(1952.050781 0)"/>
     <use xlink:href="#TimesNewRomanPSMT-2d" transform="translate(2002.050781 0)"/>
     <use xlink:href="#TimesNewRomanPSMT-31" transform="translate(2035.351562 0)"/>
     <use xlink:href="#TimesNewRomanPSMT-30" transform="translate(2085.351562 0)"/>
     <use xlink:href="#TimesNewRomanPSMT-65" transform="translate(2135.351562 0)"/>
     <use xlink:href="#TimesNewRomanPSMT-36" transform="translate(2179.736328 0)"/>
     <use xlink:href="#TimesNewRomanPSMT-29" transform="translate(2229.736328 0)"/>
     <use xlink:href="#TimesNewRomanPSMT-5f" transform="translate(2263.037109 0)"/>
     <use xlink:href="#TimesNewRomanPSMT-74" transform="translate(2313.037109 0)"/>
     <use xlink:href="#TimesNewRomanPSMT-6f" transform="translate(2340.820312 0)"/>
     <use xlink:href="#TimesNewRomanPSMT-72" transform="translate(2390.820312 0)"/>
     <use xlink:href="#TimesNewRomanPSMT-63" transform="translate(2424.121094 0)"/>
     <use xlink:href="#TimesNewRomanPSMT-68" transform="translate(2468.505859 0)"/>
     <use xlink:href="#TimesNewRomanPSMT-5f" transform="translate(2518.505859 0)"/>
     <use xlink:href="#TimesNewRomanPSMT-6d" transform="translate(2568.505859 0)"/>
     <use xlink:href="#TimesNewRomanPSMT-6f" transform="translate(2646.289062 0)"/>
     <use xlink:href="#TimesNewRomanPSMT-64" transform="translate(2696.289062 0)"/>
     <use xlink:href="#TimesNewRomanPSMT-65" transform="translate(2746.289062 0)"/>
     <use xlink:href="#TimesNewRomanPSMT-6c" transform="translate(2790.673828 0)"/>
     <use xlink:href="#TimesNewRomanPSMT-5f" transform="translate(2818.457031 0)"/>
     <use xlink:href="#TimesNewRomanPSMT-28" transform="translate(2868.457031 0)"/>
     <use xlink:href="#TimesNewRomanPSMT-31" transform="translate(2901.757812 0)"/>
     <use xlink:href="#TimesNewRomanPSMT-30" transform="translate(2951.757812 0)"/>
     <use xlink:href="#TimesNewRomanPSMT-30" transform="translate(3001.757812 0)"/>
     <use xlink:href="#TimesNewRomanPSMT-2b" transform="translate(3051.757812 0)"/>
     <use xlink:href="#TimesNewRomanPSMT-32" transform="translate(3108.154297 0)"/>
     <use xlink:href="#TimesNewRomanPSMT-30" transform="translate(3158.154297 0)"/>
     <use xlink:href="#TimesNewRomanPSMT-34" transform="translate(3208.154297 0)"/>
     <use xlink:href="#TimesNewRomanPSMT-38" transform="translate(3258.154297 0)"/>
     <use xlink:href="#TimesNewRomanPSMT-2e" transform="translate(3308.154297 0)"/>
     <use xlink:href="#TimesNewRomanPSMT-33" transform="translate(3333.154297 0)"/>
     <use xlink:href="#TimesNewRomanPSMT-2b" transform="translate(3383.154297 0)"/>
     <use xlink:href="#TimesNewRomanPSMT-31" transform="translate(3439.550781 0)"/>
     <use xlink:href="#TimesNewRomanPSMT-29" transform="translate(3489.550781 0)"/>
     <use xlink:href="#TimesNewRomanPSMT-20" transform="translate(3522.851562 0)"/>
     <use xlink:href="#TimesNewRomanPSMT-6f" transform="translate(3547.851562 0)"/>
     <use xlink:href="#TimesNewRomanPSMT-6e" transform="translate(3597.851562 0)"/>
     <use xlink:href="#TimesNewRomanPSMT-20" transform="translate(3647.851562 0)"/>
     <use xlink:href="#TimesNewRomanPSMT-74" transform="translate(3672.851562 0)"/>
     <use xlink:href="#TimesNewRomanPSMT-68" transform="translate(3700.634766 0)"/>
     <use xlink:href="#TimesNewRomanPSMT-65" transform="translate(3750.634766 0)"/>
     <use xlink:href="#TimesNewRomanPSMT-20" transform="translate(3795.019531 0)"/>
     <use xlink:href="#TimesNewRomanPSMT-76" transform="translate(3820.019531 0)"/>
     <use xlink:href="#TimesNewRomanPSMT-61" transform="translate(3870.019531 0)"/>
     <use xlink:href="#TimesNewRomanPSMT-6c" transform="translate(3914.404297 0)"/>
     <use xlink:href="#TimesNewRomanPSMT-69" transform="translate(3942.1875 0)"/>
     <use xlink:href="#TimesNewRomanPSMT-64" transform="translate(3969.970703 0)"/>
     <use xlink:href="#TimesNewRomanPSMT-61" transform="translate(4019.970703 0)"/>
     <use xlink:href="#TimesNewRomanPSMT-74" transform="translate(4064.355469 0)"/>
     <use xlink:href="#TimesNewRomanPSMT-69" transform="translate(4092.138672 0)"/>
     <use xlink:href="#TimesNewRomanPSMT-6f" transform="translate(4119.921875 0)"/>
     <use xlink:href="#TimesNewRomanPSMT-6e" transform="translate(4169.921875 0)"/>
     <use xlink:href="#TimesNewRomanPSMT-20" transform="translate(4219.921875 0)"/>
     <use xlink:href="#TimesNewRomanPSMT-73" transform="translate(4244.921875 0)"/>
     <use xlink:href="#TimesNewRomanPSMT-65" transform="translate(4283.837891 0)"/>
     <use xlink:href="#TimesNewRomanPSMT-74" transform="translate(4328.222656 0)"/>
    </g>
   </g>
   <g id="legend_1">
    <g id="patch_7">
     <path d="M 419.036125 300.6435 
L 656.206438 300.6435 
Q 660.606438 300.6435 660.606438 296.2435 
L 660.606438 267.296312 
Q 660.606438 262.896312 656.206438 262.896312 
L 419.036125 262.896312 
Q 414.636125 262.896312 414.636125 267.296312 
L 414.636125 296.2435 
Q 414.636125 300.6435 419.036125 300.6435 
z
" style="fill: #ffffff; opacity: 0.8; stroke: #cccccc; stroke-linejoin: miter"/>
    </g>
    <g id="line2d_30">
     <path d="M 423.436125 279.396312 
L 445.436125 279.396312 
L 467.436125 279.396312 
" style="fill: none; stroke: #1f77b4; stroke-width: 1.5; stroke-linecap: square"/>
    </g>
    <g id="text_18">
     <!-- Best accuracy 0.89 -->
     <g transform="translate(485.036125 287.096312) scale(0.22 -0.22)">
      <defs>
       <path id="TimesNewRomanPSMT-42" d="M 2956 2163 
Q 3397 2069 3616 1863 
Q 3919 1575 3919 1159 
Q 3919 844 3719 555 
Q 3519 266 3170 133 
Q 2822 0 2106 0 
L 106 0 
L 106 116 
L 266 116 
Q 531 116 647 284 
Q 719 394 719 750 
L 719 3488 
Q 719 3881 628 3984 
Q 506 4122 266 4122 
L 106 4122 
L 106 4238 
L 1938 4238 
Q 2450 4238 2759 4163 
Q 3228 4050 3475 3764 
Q 3722 3478 3722 3106 
Q 3722 2788 3528 2536 
Q 3334 2284 2956 2163 
z
M 1319 2331 
Q 1434 2309 1582 2298 
Q 1731 2288 1909 2288 
Q 2366 2288 2595 2386 
Q 2825 2484 2947 2687 
Q 3069 2891 3069 3131 
Q 3069 3503 2766 3765 
Q 2463 4028 1881 4028 
Q 1569 4028 1319 3959 
L 1319 2331 
z
M 1319 306 
Q 1681 222 2034 222 
Q 2600 222 2897 476 
Q 3194 731 3194 1106 
Q 3194 1353 3059 1581 
Q 2925 1809 2622 1940 
Q 2319 2072 1872 2072 
Q 1678 2072 1540 2065 
Q 1403 2059 1319 2044 
L 1319 306 
z
" transform="scale(0.015625)"/>
      </defs>
      <use xlink:href="#TimesNewRomanPSMT-42"/>
      <use xlink:href="#TimesNewRomanPSMT-65" transform="translate(66.699219 0)"/>
      <use xlink:href="#TimesNewRomanPSMT-73" transform="translate(111.083984 0)"/>
      <use xlink:href="#TimesNewRomanPSMT-74" transform="translate(150 0)"/>
      <use xlink:href="#TimesNewRomanPSMT-20" transform="translate(177.783203 0)"/>
      <use xlink:href="#TimesNewRomanPSMT-61" transform="translate(202.783203 0)"/>
      <use xlink:href="#TimesNewRomanPSMT-63" transform="translate(247.167969 0)"/>
      <use xlink:href="#TimesNewRomanPSMT-63" transform="translate(291.552734 0)"/>
      <use xlink:href="#TimesNewRomanPSMT-75" transform="translate(335.9375 0)"/>
      <use xlink:href="#TimesNewRomanPSMT-72" transform="translate(385.9375 0)"/>
      <use xlink:href="#TimesNewRomanPSMT-61" transform="translate(419.238281 0)"/>
      <use xlink:href="#TimesNewRomanPSMT-63" transform="translate(463.623047 0)"/>
      <use xlink:href="#TimesNewRomanPSMT-79" transform="translate(508.007812 0)"/>
      <use xlink:href="#TimesNewRomanPSMT-20" transform="translate(558.007812 0)"/>
      <use xlink:href="#TimesNewRomanPSMT-30" transform="translate(583.007812 0)"/>
      <use xlink:href="#TimesNewRomanPSMT-2e" transform="translate(633.007812 0)"/>
      <use xlink:href="#TimesNewRomanPSMT-38" transform="translate(658.007812 0)"/>
      <use xlink:href="#TimesNewRomanPSMT-39" transform="translate(708.007812 0)"/>
     </g>
    </g>
   </g>
  </g>
 </g>
 <defs>
  <clipPath id="pece4556a1a">
   <rect x="403.636125" y="45.5315" width="357.12" height="266.112"/>
  </clipPath>
 </defs>
</svg>
