<?xml version="1.0" encoding="utf-8" standalone="no"?>
<!DOCTYPE svg PUBLIC "-//W3C//DTD SVG 1.1//EN"
  "http://www.w3.org/Graphics/SVG/1.1/DTD/svg11.dtd">
<svg xmlns:xlink="http://www.w3.org/1999/xlink" width="1097.785875pt" height="383.265687pt" viewBox="0 0 1097.785875 383.265687" xmlns="http://www.w3.org/2000/svg" version="1.1">
 <metadata>
  <rdf:RDF xmlns:dc="http://purl.org/dc/elements/1.1/" xmlns:cc="http://creativecommons.org/ns#" xmlns:rdf="http://www.w3.org/1999/02/22-rdf-syntax-ns#">
   <cc:Work>
    <dc:type rdf:resource="http://purl.org/dc/dcmitype/StillImage"/>
    <dc:date>2025-07-22T04:55:49.919075</dc:date>
    <dc:format>image/svg+xml</dc:format>
    <dc:creator>
     <cc:Agent>
      <dc:title>Matplotlib v3.10.3, https://matplotlib.org/</dc:title>
     </cc:Agent>
    </dc:creator>
   </cc:Work>
  </rdf:RDF>
 </metadata>
 <defs>
  <style type="text/css">*{stroke-linejoin: round; stroke-linecap: butt}</style>
 </defs>
 <g id="figure_1">
  <g id="patch_1">
   <path d="M 0 383.265687 
L 1097.785875 383.265687 
L 1097.785875 0 
L 0 0 
z
" style="fill: #ffffff"/>
  </g>
  <g id="axes_1">
   <g id="patch_2">
    <path d="M 370.332938 311.6435 
L 727.452937 311.6435 
L 727.452937 45.5315 
L 370.332938 45.5315 
z
" style="fill: #ffffff"/>
   </g>
   <g id="matplotlib.axis_1">
    <g id="xtick_1">
     <g id="line2d_1">
      <path d="M 370.332938 311.6435 
L 370.332938 45.5315 
" clip-path="url(#p467dcc9f3f)" style="fill: none; stroke: #b0b0b0; stroke-opacity: 0.3; stroke-width: 0.8; stroke-linecap: square"/>
     </g>
     <g id="line2d_2">
      <defs>
       <path id="maa2e961e27" d="M 0 0 
L 0 3.5 
" style="stroke: #000000; stroke-width: 0.8"/>
      </defs>
      <g>
       <use xlink:href="#maa2e961e27" x="370.332938" y="311.6435" style="stroke: #000000; stroke-width: 0.8"/>
      </g>
     </g>
     <g id="text_1">
      <!-- 0.0 -->
      <g transform="translate(356.582938 333.91975) scale(0.22 -0.22)">
       <defs>
        <path id="TimesNewRomanPSMT-30" d="M 231 2094 
Q 231 2819 450 3342 
Q 669 3866 1031 4122 
Q 1313 4325 1613 4325 
Q 2100 4325 2488 3828 
Q 2972 3213 2972 2159 
Q 2972 1422 2759 906 
Q 2547 391 2217 158 
Q 1888 -75 1581 -75 
Q 975 -75 572 641 
Q 231 1244 231 2094 
z
M 844 2016 
Q 844 1141 1059 588 
Q 1238 122 1591 122 
Q 1759 122 1940 273 
Q 2122 425 2216 781 
Q 2359 1319 2359 2297 
Q 2359 3022 2209 3506 
Q 2097 3866 1919 4016 
Q 1791 4119 1609 4119 
Q 1397 4119 1231 3928 
Q 1006 3669 925 3112 
Q 844 2556 844 2016 
z
" transform="scale(0.015625)"/>
        <path id="TimesNewRomanPSMT-2e" d="M 800 606 
Q 947 606 1047 504 
Q 1147 403 1147 259 
Q 1147 116 1045 14 
Q 944 -88 800 -88 
Q 656 -88 554 14 
Q 453 116 453 259 
Q 453 406 554 506 
Q 656 606 800 606 
z
" transform="scale(0.015625)"/>
       </defs>
       <use xlink:href="#TimesNewRomanPSMT-30"/>
       <use xlink:href="#TimesNewRomanPSMT-2e" transform="translate(50 0)"/>
       <use xlink:href="#TimesNewRomanPSMT-30" transform="translate(75 0)"/>
      </g>
     </g>
    </g>
    <g id="xtick_2">
     <g id="line2d_3">
      <path d="M 468.471904 311.6435 
L 468.471904 45.5315 
" clip-path="url(#p467dcc9f3f)" style="fill: none; stroke: #b0b0b0; stroke-opacity: 0.3; stroke-width: 0.8; stroke-linecap: square"/>
     </g>
     <g id="line2d_4">
      <g>
       <use xlink:href="#maa2e961e27" x="468.471904" y="311.6435" style="stroke: #000000; stroke-width: 0.8"/>
      </g>
     </g>
     <g id="text_2">
      <!-- 0.5 -->
      <g transform="translate(454.721904 333.91975) scale(0.22 -0.22)">
       <defs>
        <path id="TimesNewRomanPSMT-35" d="M 2778 4238 
L 2534 3706 
L 1259 3706 
L 981 3138 
Q 1809 3016 2294 2522 
Q 2709 2097 2709 1522 
Q 2709 1188 2573 903 
Q 2438 619 2231 419 
Q 2025 219 1772 97 
Q 1413 -75 1034 -75 
Q 653 -75 479 54 
Q 306 184 306 341 
Q 306 428 378 495 
Q 450 563 559 563 
Q 641 563 702 538 
Q 763 513 909 409 
Q 1144 247 1384 247 
Q 1750 247 2026 523 
Q 2303 800 2303 1197 
Q 2303 1581 2056 1914 
Q 1809 2247 1375 2428 
Q 1034 2569 447 2591 
L 1259 4238 
L 2778 4238 
z
" transform="scale(0.015625)"/>
       </defs>
       <use xlink:href="#TimesNewRomanPSMT-30"/>
       <use xlink:href="#TimesNewRomanPSMT-2e" transform="translate(50 0)"/>
       <use xlink:href="#TimesNewRomanPSMT-35" transform="translate(75 0)"/>
      </g>
     </g>
    </g>
    <g id="xtick_3">
     <g id="line2d_5">
      <path d="M 566.61087 311.6435 
L 566.61087 45.5315 
" clip-path="url(#p467dcc9f3f)" style="fill: none; stroke: #b0b0b0; stroke-opacity: 0.3; stroke-width: 0.8; stroke-linecap: square"/>
     </g>
     <g id="line2d_6">
      <g>
       <use xlink:href="#maa2e961e27" x="566.61087" y="311.6435" style="stroke: #000000; stroke-width: 0.8"/>
      </g>
     </g>
     <g id="text_3">
      <!-- 1.0 -->
      <g transform="translate(552.86087 333.91975) scale(0.22 -0.22)">
       <defs>
        <path id="TimesNewRomanPSMT-31" d="M 750 3822 
L 1781 4325 
L 1884 4325 
L 1884 747 
Q 1884 391 1914 303 
Q 1944 216 2037 169 
Q 2131 122 2419 116 
L 2419 0 
L 825 0 
L 825 116 
Q 1125 122 1212 167 
Q 1300 213 1334 289 
Q 1369 366 1369 747 
L 1369 3034 
Q 1369 3497 1338 3628 
Q 1316 3728 1258 3775 
Q 1200 3822 1119 3822 
Q 1003 3822 797 3725 
L 750 3822 
z
" transform="scale(0.015625)"/>
       </defs>
       <use xlink:href="#TimesNewRomanPSMT-31"/>
       <use xlink:href="#TimesNewRomanPSMT-2e" transform="translate(50 0)"/>
       <use xlink:href="#TimesNewRomanPSMT-30" transform="translate(75 0)"/>
      </g>
     </g>
    </g>
    <g id="xtick_4">
     <g id="line2d_7">
      <path d="M 664.749836 311.6435 
L 664.749836 45.5315 
" clip-path="url(#p467dcc9f3f)" style="fill: none; stroke: #b0b0b0; stroke-opacity: 0.3; stroke-width: 0.8; stroke-linecap: square"/>
     </g>
     <g id="line2d_8">
      <g>
       <use xlink:href="#maa2e961e27" x="664.749836" y="311.6435" style="stroke: #000000; stroke-width: 0.8"/>
      </g>
     </g>
     <g id="text_4">
      <!-- 1.5 -->
      <g transform="translate(650.999836 333.91975) scale(0.22 -0.22)">
       <use xlink:href="#TimesNewRomanPSMT-31"/>
       <use xlink:href="#TimesNewRomanPSMT-2e" transform="translate(50 0)"/>
       <use xlink:href="#TimesNewRomanPSMT-35" transform="translate(75 0)"/>
      </g>
     </g>
    </g>
    <g id="text_5">
     <!-- $\kappa  = \frac{ln(n)}{ln(d)}$ -->
     <g transform="translate(516.882938 364.185687) scale(0.22 -0.22)">
      <defs>
       <path id="STIXGeneral-Italic-3ba" d="M 979 1440 
L 998 1446 
Q 1850 2541 2464 2790 
Q 2547 2822 2630 2822 
Q 2797 2822 2886 2736 
Q 2976 2650 2976 2522 
Q 2976 2387 2893 2307 
Q 2810 2227 2682 2227 
Q 2605 2227 2502 2288 
Q 2400 2349 2336 2349 
Q 2170 2349 1990 2205 
Q 1811 2061 1414 1645 
L 2042 544 
Q 2202 262 2310 182 
Q 2419 102 2624 102 
L 2624 0 
Q 2374 -83 2182 -83 
Q 1786 -83 1555 326 
L 960 1350 
L 576 0 
L 90 0 
L 640 1978 
Q 730 2317 730 2406 
Q 730 2560 518 2560 
L 339 2560 
L 339 2650 
Q 678 2694 1306 2822 
L 1325 2803 
L 979 1440 
z
" transform="scale(0.015625)"/>
       <path id="STIXGeneral-Regular-3d" d="M 4077 2048 
L 307 2048 
L 307 2470 
L 4077 2470 
L 4077 2048 
z
M 4077 768 
L 307 768 
L 307 1190 
L 4077 1190 
L 4077 768 
z
" transform="scale(0.015625)"/>
       <path id="STIXGeneral-Italic-6c" d="M 1786 4339 
L 806 595 
Q 755 410 755 320 
Q 755 205 864 205 
Q 1037 205 1293 570 
L 1453 794 
L 1542 730 
Q 1254 275 1046 102 
Q 838 -70 576 -70 
Q 262 -70 262 288 
Q 262 397 288 480 
L 1165 3834 
Q 1184 3898 1184 3955 
Q 1184 4096 870 4096 
L 755 4096 
L 755 4198 
Q 1203 4250 1747 4371 
L 1786 4339 
z
" transform="scale(0.015625)"/>
       <path id="STIXGeneral-Italic-6e" d="M 2944 749 
L 3034 666 
Q 2707 218 2534 80 
Q 2362 -58 2138 -58 
Q 2010 -58 1923 28 
Q 1837 115 1837 288 
Q 1837 390 1939 768 
L 2221 1805 
Q 2310 2150 2310 2310 
Q 2310 2496 2157 2496 
Q 1971 2496 1750 2275 
Q 1530 2054 1210 1587 
Q 998 1274 899 1024 
Q 800 774 570 0 
L 90 0 
L 704 2240 
Q 717 2304 717 2349 
Q 717 2445 630 2480 
Q 544 2515 301 2522 
L 301 2624 
Q 550 2675 857 2729 
Q 1165 2784 1338 2822 
L 1363 2810 
L 934 1414 
Q 1408 2170 1753 2496 
Q 2099 2822 2413 2822 
Q 2611 2822 2720 2716 
Q 2829 2611 2829 2432 
Q 2829 2272 2765 2048 
L 2406 749 
Q 2317 429 2317 358 
Q 2317 243 2419 243 
Q 2541 243 2810 582 
Q 2854 634 2944 749 
z
" transform="scale(0.015625)"/>
       <path id="STIXGeneral-Regular-28" d="M 1946 -1030 
L 1869 -1133 
Q 1126 -710 716 32 
Q 307 774 307 1613 
Q 307 3386 1888 4326 
L 1946 4224 
Q 1293 3667 1075 3126 
Q 858 2586 858 1632 
Q 858 685 1082 96 
Q 1306 -493 1946 -1030 
z
" transform="scale(0.015625)"/>
       <path id="STIXGeneral-Regular-29" d="M 186 4224 
L 262 4326 
Q 992 3891 1408 3148 
Q 1824 2406 1824 1581 
Q 1824 -166 243 -1133 
L 186 -1030 
Q 845 -486 1059 54 
Q 1274 595 1274 1562 
Q 1274 2534 1059 3120 
Q 845 3706 186 4224 
z
" transform="scale(0.015625)"/>
       <path id="STIXGeneral-Italic-64" d="M 3334 4371 
L 3373 4333 
L 3123 3360 
L 2739 1958 
Q 2323 429 2323 384 
Q 2323 256 2438 256 
Q 2522 256 2614 336 
Q 2707 416 2963 710 
L 3040 646 
Q 2547 -83 2099 -83 
Q 1978 -83 1907 -6 
Q 1837 70 1837 205 
Q 1837 397 1920 774 
Q 1645 307 1379 118 
Q 1114 -70 781 -70 
Q 461 -70 278 125 
Q 96 320 96 678 
Q 96 1440 713 2131 
Q 1331 2822 1965 2822 
Q 2163 2822 2256 2732 
Q 2349 2643 2381 2451 
L 2387 2451 
L 2675 3494 
Q 2765 3808 2765 3949 
Q 2765 4051 2694 4076 
Q 2624 4102 2355 4115 
L 2355 4224 
Q 2848 4269 3334 4371 
z
M 2278 2310 
Q 2278 2477 2185 2576 
Q 2093 2675 1978 2675 
Q 1677 2675 1395 2381 
Q 1075 2042 864 1571 
Q 653 1101 653 704 
Q 653 486 752 361 
Q 851 237 1024 237 
Q 1312 237 1606 550 
Q 1901 864 2089 1350 
Q 2278 1837 2278 2310 
z
" transform="scale(0.015625)"/>
      </defs>
      <use xlink:href="#STIXGeneral-Italic-3ba" transform="translate(0 0.003125)"/>
      <use xlink:href="#STIXGeneral-Regular-3d" transform="translate(58.83999 0.003125)"/>
      <use xlink:href="#STIXGeneral-Italic-6c" transform="translate(141.779971 50.192188) scale(0.7)"/>
      <use xlink:href="#STIXGeneral-Italic-6e" transform="translate(161.239963 50.192188) scale(0.7)"/>
      <use xlink:href="#STIXGeneral-Regular-28" transform="translate(196.239952 50.192188) scale(0.7)"/>
      <use xlink:href="#STIXGeneral-Italic-6e" transform="translate(219.549944 50.192188) scale(0.7)"/>
      <use xlink:href="#STIXGeneral-Regular-29" transform="translate(254.549933 50.192188) scale(0.7)"/>
      <use xlink:href="#STIXGeneral-Italic-6c" transform="translate(141.779971 -41.257812) scale(0.7)"/>
      <use xlink:href="#STIXGeneral-Italic-6e" transform="translate(161.239963 -41.257812) scale(0.7)"/>
      <use xlink:href="#STIXGeneral-Regular-28" transform="translate(196.239952 -41.257812) scale(0.7)"/>
      <use xlink:href="#STIXGeneral-Italic-64" transform="translate(219.549944 -41.257812) scale(0.7)"/>
      <use xlink:href="#STIXGeneral-Regular-29" transform="translate(254.549933 -41.257812) scale(0.7)"/>
      <path d="M 141.779971 12.8 
L 141.779971 19.05 
L 277.859924 19.05 
L 277.859924 12.8 
L 141.779971 12.8 
z
"/>
     </g>
    </g>
   </g>
   <g id="matplotlib.axis_2">
    <g id="ytick_1">
     <g id="line2d_9">
      <path d="M 370.332938 311.6435 
L 727.452937 311.6435 
" clip-path="url(#p467dcc9f3f)" style="fill: none; stroke: #b0b0b0; stroke-opacity: 0.3; stroke-width: 0.8; stroke-linecap: square"/>
     </g>
     <g id="line2d_10">
      <defs>
       <path id="m48a55460d9" d="M 0 0 
L -3.5 0 
" style="stroke: #000000; stroke-width: 0.8"/>
      </defs>
      <g>
       <use xlink:href="#m48a55460d9" x="370.332938" y="311.6435" style="stroke: #000000; stroke-width: 0.8"/>
      </g>
     </g>
     <g id="text_6">
      <!-- 0.0 -->
      <g transform="translate(335.832938 319.281625) scale(0.22 -0.22)">
       <use xlink:href="#TimesNewRomanPSMT-30"/>
       <use xlink:href="#TimesNewRomanPSMT-2e" transform="translate(50 0)"/>
       <use xlink:href="#TimesNewRomanPSMT-30" transform="translate(75 0)"/>
      </g>
     </g>
    </g>
    <g id="ytick_2">
     <g id="line2d_11">
      <path d="M 370.332938 285.0323 
L 727.452937 285.0323 
" clip-path="url(#p467dcc9f3f)" style="fill: none; stroke: #b0b0b0; stroke-opacity: 0.3; stroke-width: 0.8; stroke-linecap: square"/>
     </g>
     <g id="line2d_12">
      <g>
       <use xlink:href="#m48a55460d9" x="370.332938" y="285.0323" style="stroke: #000000; stroke-width: 0.8"/>
      </g>
     </g>
     <g id="text_7">
      <!-- 0.1 -->
      <g transform="translate(335.832938 292.670425) scale(0.22 -0.22)">
       <use xlink:href="#TimesNewRomanPSMT-30"/>
       <use xlink:href="#TimesNewRomanPSMT-2e" transform="translate(50 0)"/>
       <use xlink:href="#TimesNewRomanPSMT-31" transform="translate(75 0)"/>
      </g>
     </g>
    </g>
    <g id="ytick_3">
     <g id="line2d_13">
      <path d="M 370.332938 258.4211 
L 727.452937 258.4211 
" clip-path="url(#p467dcc9f3f)" style="fill: none; stroke: #b0b0b0; stroke-opacity: 0.3; stroke-width: 0.8; stroke-linecap: square"/>
     </g>
     <g id="line2d_14">
      <g>
       <use xlink:href="#m48a55460d9" x="370.332938" y="258.4211" style="stroke: #000000; stroke-width: 0.8"/>
      </g>
     </g>
     <g id="text_8">
      <!-- 0.2 -->
      <g transform="translate(335.832938 266.059225) scale(0.22 -0.22)">
       <defs>
        <path id="TimesNewRomanPSMT-32" d="M 2934 816 
L 2638 0 
L 138 0 
L 138 116 
Q 1241 1122 1691 1759 
Q 2141 2397 2141 2925 
Q 2141 3328 1894 3587 
Q 1647 3847 1303 3847 
Q 991 3847 742 3664 
Q 494 3481 375 3128 
L 259 3128 
Q 338 3706 661 4015 
Q 984 4325 1469 4325 
Q 1984 4325 2329 3994 
Q 2675 3663 2675 3213 
Q 2675 2891 2525 2569 
Q 2294 2063 1775 1497 
Q 997 647 803 472 
L 1909 472 
Q 2247 472 2383 497 
Q 2519 522 2628 598 
Q 2738 675 2819 816 
L 2934 816 
z
" transform="scale(0.015625)"/>
       </defs>
       <use xlink:href="#TimesNewRomanPSMT-30"/>
       <use xlink:href="#TimesNewRomanPSMT-2e" transform="translate(50 0)"/>
       <use xlink:href="#TimesNewRomanPSMT-32" transform="translate(75 0)"/>
      </g>
     </g>
    </g>
    <g id="ytick_4">
     <g id="line2d_15">
      <path d="M 370.332938 231.8099 
L 727.452937 231.8099 
" clip-path="url(#p467dcc9f3f)" style="fill: none; stroke: #b0b0b0; stroke-opacity: 0.3; stroke-width: 0.8; stroke-linecap: square"/>
     </g>
     <g id="line2d_16">
      <g>
       <use xlink:href="#m48a55460d9" x="370.332938" y="231.8099" style="stroke: #000000; stroke-width: 0.8"/>
      </g>
     </g>
     <g id="text_9">
      <!-- 0.3 -->
      <g transform="translate(335.832938 239.448025) scale(0.22 -0.22)">
       <defs>
        <path id="TimesNewRomanPSMT-33" d="M 325 3431 
Q 506 3859 782 4092 
Q 1059 4325 1472 4325 
Q 1981 4325 2253 3994 
Q 2459 3747 2459 3466 
Q 2459 3003 1878 2509 
Q 2269 2356 2469 2072 
Q 2669 1788 2669 1403 
Q 2669 853 2319 450 
Q 1863 -75 997 -75 
Q 569 -75 414 31 
Q 259 138 259 259 
Q 259 350 332 419 
Q 406 488 509 488 
Q 588 488 669 463 
Q 722 447 909 348 
Q 1097 250 1169 231 
Q 1284 197 1416 197 
Q 1734 197 1970 444 
Q 2206 691 2206 1028 
Q 2206 1275 2097 1509 
Q 2016 1684 1919 1775 
Q 1784 1900 1550 2001 
Q 1316 2103 1072 2103 
L 972 2103 
L 972 2197 
Q 1219 2228 1467 2375 
Q 1716 2522 1828 2728 
Q 1941 2934 1941 3181 
Q 1941 3503 1739 3701 
Q 1538 3900 1238 3900 
Q 753 3900 428 3381 
L 325 3431 
z
" transform="scale(0.015625)"/>
       </defs>
       <use xlink:href="#TimesNewRomanPSMT-30"/>
       <use xlink:href="#TimesNewRomanPSMT-2e" transform="translate(50 0)"/>
       <use xlink:href="#TimesNewRomanPSMT-33" transform="translate(75 0)"/>
      </g>
     </g>
    </g>
    <g id="ytick_5">
     <g id="line2d_17">
      <path d="M 370.332938 205.1987 
L 727.452937 205.1987 
" clip-path="url(#p467dcc9f3f)" style="fill: none; stroke: #b0b0b0; stroke-opacity: 0.3; stroke-width: 0.8; stroke-linecap: square"/>
     </g>
     <g id="line2d_18">
      <g>
       <use xlink:href="#m48a55460d9" x="370.332938" y="205.1987" style="stroke: #000000; stroke-width: 0.8"/>
      </g>
     </g>
     <g id="text_10">
      <!-- 0.4 -->
      <g transform="translate(335.832938 212.836825) scale(0.22 -0.22)">
       <defs>
        <path id="TimesNewRomanPSMT-34" d="M 2978 1563 
L 2978 1119 
L 2409 1119 
L 2409 0 
L 1894 0 
L 1894 1119 
L 100 1119 
L 100 1519 
L 2066 4325 
L 2409 4325 
L 2409 1563 
L 2978 1563 
z
M 1894 1563 
L 1894 3666 
L 406 1563 
L 1894 1563 
z
" transform="scale(0.015625)"/>
       </defs>
       <use xlink:href="#TimesNewRomanPSMT-30"/>
       <use xlink:href="#TimesNewRomanPSMT-2e" transform="translate(50 0)"/>
       <use xlink:href="#TimesNewRomanPSMT-34" transform="translate(75 0)"/>
      </g>
     </g>
    </g>
    <g id="ytick_6">
     <g id="line2d_19">
      <path d="M 370.332938 178.5875 
L 727.452937 178.5875 
" clip-path="url(#p467dcc9f3f)" style="fill: none; stroke: #b0b0b0; stroke-opacity: 0.3; stroke-width: 0.8; stroke-linecap: square"/>
     </g>
     <g id="line2d_20">
      <g>
       <use xlink:href="#m48a55460d9" x="370.332938" y="178.5875" style="stroke: #000000; stroke-width: 0.8"/>
      </g>
     </g>
     <g id="text_11">
      <!-- 0.5 -->
      <g transform="translate(335.832938 186.225625) scale(0.22 -0.22)">
       <use xlink:href="#TimesNewRomanPSMT-30"/>
       <use xlink:href="#TimesNewRomanPSMT-2e" transform="translate(50 0)"/>
       <use xlink:href="#TimesNewRomanPSMT-35" transform="translate(75 0)"/>
      </g>
     </g>
    </g>
    <g id="ytick_7">
     <g id="line2d_21">
      <path d="M 370.332938 151.9763 
L 727.452937 151.9763 
" clip-path="url(#p467dcc9f3f)" style="fill: none; stroke: #b0b0b0; stroke-opacity: 0.3; stroke-width: 0.8; stroke-linecap: square"/>
     </g>
     <g id="line2d_22">
      <g>
       <use xlink:href="#m48a55460d9" x="370.332938" y="151.9763" style="stroke: #000000; stroke-width: 0.8"/>
      </g>
     </g>
     <g id="text_12">
      <!-- 0.6 -->
      <g transform="translate(335.832938 159.614425) scale(0.22 -0.22)">
       <defs>
        <path id="TimesNewRomanPSMT-36" d="M 2869 4325 
L 2869 4209 
Q 2456 4169 2195 4045 
Q 1934 3922 1679 3669 
Q 1425 3416 1258 3105 
Q 1091 2794 978 2366 
Q 1428 2675 1881 2675 
Q 2316 2675 2634 2325 
Q 2953 1975 2953 1425 
Q 2953 894 2631 456 
Q 2244 -75 1606 -75 
Q 1172 -75 869 213 
Q 275 772 275 1663 
Q 275 2231 503 2743 
Q 731 3256 1154 3653 
Q 1578 4050 1965 4187 
Q 2353 4325 2688 4325 
L 2869 4325 
z
M 925 2138 
Q 869 1716 869 1456 
Q 869 1156 980 804 
Q 1091 453 1309 247 
Q 1469 100 1697 100 
Q 1969 100 2183 356 
Q 2397 613 2397 1088 
Q 2397 1622 2184 2012 
Q 1972 2403 1581 2403 
Q 1463 2403 1327 2353 
Q 1191 2303 925 2138 
z
" transform="scale(0.015625)"/>
       </defs>
       <use xlink:href="#TimesNewRomanPSMT-30"/>
       <use xlink:href="#TimesNewRomanPSMT-2e" transform="translate(50 0)"/>
       <use xlink:href="#TimesNewRomanPSMT-36" transform="translate(75 0)"/>
      </g>
     </g>
    </g>
    <g id="ytick_8">
     <g id="line2d_23">
      <path d="M 370.332938 125.3651 
L 727.452937 125.3651 
" clip-path="url(#p467dcc9f3f)" style="fill: none; stroke: #b0b0b0; stroke-opacity: 0.3; stroke-width: 0.8; stroke-linecap: square"/>
     </g>
     <g id="line2d_24">
      <g>
       <use xlink:href="#m48a55460d9" x="370.332938" y="125.3651" style="stroke: #000000; stroke-width: 0.8"/>
      </g>
     </g>
     <g id="text_13">
      <!-- 0.7 -->
      <g transform="translate(335.832938 133.003225) scale(0.22 -0.22)">
       <defs>
        <path id="TimesNewRomanPSMT-37" d="M 644 4238 
L 2916 4238 
L 2916 4119 
L 1503 -88 
L 1153 -88 
L 2419 3728 
L 1253 3728 
Q 900 3728 750 3644 
Q 488 3500 328 3200 
L 238 3234 
L 644 4238 
z
" transform="scale(0.015625)"/>
       </defs>
       <use xlink:href="#TimesNewRomanPSMT-30"/>
       <use xlink:href="#TimesNewRomanPSMT-2e" transform="translate(50 0)"/>
       <use xlink:href="#TimesNewRomanPSMT-37" transform="translate(75 0)"/>
      </g>
     </g>
    </g>
    <g id="ytick_9">
     <g id="line2d_25">
      <path d="M 370.332938 98.7539 
L 727.452937 98.7539 
" clip-path="url(#p467dcc9f3f)" style="fill: none; stroke: #b0b0b0; stroke-opacity: 0.3; stroke-width: 0.8; stroke-linecap: square"/>
     </g>
     <g id="line2d_26">
      <g>
       <use xlink:href="#m48a55460d9" x="370.332938" y="98.7539" style="stroke: #000000; stroke-width: 0.8"/>
      </g>
     </g>
     <g id="text_14">
      <!-- 0.8 -->
      <g transform="translate(335.832938 106.392025) scale(0.22 -0.22)">
       <defs>
        <path id="TimesNewRomanPSMT-38" d="M 1228 2134 
Q 725 2547 579 2797 
Q 434 3047 434 3316 
Q 434 3728 753 4026 
Q 1072 4325 1600 4325 
Q 2113 4325 2425 4047 
Q 2738 3769 2738 3413 
Q 2738 3175 2569 2928 
Q 2400 2681 1866 2347 
Q 2416 1922 2594 1678 
Q 2831 1359 2831 1006 
Q 2831 559 2490 242 
Q 2150 -75 1597 -75 
Q 994 -75 656 303 
Q 388 606 388 966 
Q 388 1247 577 1523 
Q 766 1800 1228 2134 
z
M 1719 2469 
Q 2094 2806 2194 3001 
Q 2294 3197 2294 3444 
Q 2294 3772 2109 3958 
Q 1925 4144 1606 4144 
Q 1288 4144 1088 3959 
Q 888 3775 888 3528 
Q 888 3366 970 3203 
Q 1053 3041 1206 2894 
L 1719 2469 
z
M 1375 2016 
Q 1116 1797 991 1539 
Q 866 1281 866 981 
Q 866 578 1086 336 
Q 1306 94 1647 94 
Q 1984 94 2187 284 
Q 2391 475 2391 747 
Q 2391 972 2272 1150 
Q 2050 1481 1375 2016 
z
" transform="scale(0.015625)"/>
       </defs>
       <use xlink:href="#TimesNewRomanPSMT-30"/>
       <use xlink:href="#TimesNewRomanPSMT-2e" transform="translate(50 0)"/>
       <use xlink:href="#TimesNewRomanPSMT-38" transform="translate(75 0)"/>
      </g>
     </g>
    </g>
    <g id="ytick_10">
     <g id="line2d_27">
      <path d="M 370.332938 72.1427 
L 727.452937 72.1427 
" clip-path="url(#p467dcc9f3f)" style="fill: none; stroke: #b0b0b0; stroke-opacity: 0.3; stroke-width: 0.8; stroke-linecap: square"/>
     </g>
     <g id="line2d_28">
      <g>
       <use xlink:href="#m48a55460d9" x="370.332938" y="72.1427" style="stroke: #000000; stroke-width: 0.8"/>
      </g>
     </g>
     <g id="text_15">
      <!-- 0.9 -->
      <g transform="translate(335.832938 79.780825) scale(0.22 -0.22)">
       <defs>
        <path id="TimesNewRomanPSMT-39" d="M 338 -88 
L 338 28 
Q 744 34 1094 217 
Q 1444 400 1770 856 
Q 2097 1313 2225 1859 
Q 1734 1544 1338 1544 
Q 891 1544 572 1889 
Q 253 2234 253 2806 
Q 253 3363 572 3797 
Q 956 4325 1575 4325 
Q 2097 4325 2469 3894 
Q 2925 3359 2925 2575 
Q 2925 1869 2578 1258 
Q 2231 647 1613 244 
Q 1109 -88 516 -88 
L 338 -88 
z
M 2275 2091 
Q 2331 2497 2331 2741 
Q 2331 3044 2228 3395 
Q 2125 3747 1936 3934 
Q 1747 4122 1506 4122 
Q 1228 4122 1018 3872 
Q 809 3622 809 3128 
Q 809 2469 1088 2097 
Q 1291 1828 1588 1828 
Q 1731 1828 1928 1897 
Q 2125 1966 2275 2091 
z
" transform="scale(0.015625)"/>
       </defs>
       <use xlink:href="#TimesNewRomanPSMT-30"/>
       <use xlink:href="#TimesNewRomanPSMT-2e" transform="translate(50 0)"/>
       <use xlink:href="#TimesNewRomanPSMT-39" transform="translate(75 0)"/>
      </g>
     </g>
    </g>
    <g id="ytick_11">
     <g id="line2d_29">
      <path d="M 370.332938 45.5315 
L 727.452937 45.5315 
" clip-path="url(#p467dcc9f3f)" style="fill: none; stroke: #b0b0b0; stroke-opacity: 0.3; stroke-width: 0.8; stroke-linecap: square"/>
     </g>
     <g id="line2d_30">
      <g>
       <use xlink:href="#m48a55460d9" x="370.332938" y="45.5315" style="stroke: #000000; stroke-width: 0.8"/>
      </g>
     </g>
     <g id="text_16">
      <!-- 1.0 -->
      <g transform="translate(335.832938 53.169625) scale(0.22 -0.22)">
       <use xlink:href="#TimesNewRomanPSMT-31"/>
       <use xlink:href="#TimesNewRomanPSMT-2e" transform="translate(50 0)"/>
       <use xlink:href="#TimesNewRomanPSMT-30" transform="translate(75 0)"/>
      </g>
     </g>
    </g>
    <g id="text_17">
     <!-- Accuracy -->
     <g transform="translate(327.08575 220.726094) rotate(-90) scale(0.22 -0.22)">
      <defs>
       <path id="TimesNewRomanPSMT-41" d="M 2928 1419 
L 1288 1419 
L 1000 750 
Q 894 503 894 381 
Q 894 284 986 211 
Q 1078 138 1384 116 
L 1384 0 
L 50 0 
L 50 116 
Q 316 163 394 238 
Q 553 388 747 847 
L 2238 4334 
L 2347 4334 
L 3822 809 
Q 4000 384 4145 257 
Q 4291 131 4550 116 
L 4550 0 
L 2878 0 
L 2878 116 
Q 3131 128 3220 200 
Q 3309 272 3309 375 
Q 3309 513 3184 809 
L 2928 1419 
z
M 2841 1650 
L 2122 3363 
L 1384 1650 
L 2841 1650 
z
" transform="scale(0.015625)"/>
       <path id="TimesNewRomanPSMT-63" d="M 2631 1088 
Q 2516 522 2178 217 
Q 1841 -88 1431 -88 
Q 944 -88 581 321 
Q 219 731 219 1428 
Q 219 2103 620 2525 
Q 1022 2947 1584 2947 
Q 2006 2947 2278 2723 
Q 2550 2500 2550 2259 
Q 2550 2141 2473 2067 
Q 2397 1994 2259 1994 
Q 2075 1994 1981 2113 
Q 1928 2178 1911 2362 
Q 1894 2547 1784 2644 
Q 1675 2738 1481 2738 
Q 1169 2738 978 2506 
Q 725 2200 725 1697 
Q 725 1184 976 792 
Q 1228 400 1656 400 
Q 1963 400 2206 609 
Q 2378 753 2541 1131 
L 2631 1088 
z
" transform="scale(0.015625)"/>
       <path id="TimesNewRomanPSMT-75" d="M 2709 2863 
L 2709 1128 
Q 2709 631 2732 520 
Q 2756 409 2807 365 
Q 2859 322 2928 322 
Q 3025 322 3147 375 
L 3191 266 
L 2334 -88 
L 2194 -88 
L 2194 519 
Q 1825 119 1631 15 
Q 1438 -88 1222 -88 
Q 981 -88 804 51 
Q 628 191 559 409 
Q 491 628 491 1028 
L 491 2306 
Q 491 2509 447 2587 
Q 403 2666 317 2708 
Q 231 2750 6 2747 
L 6 2863 
L 1009 2863 
L 1009 947 
Q 1009 547 1148 422 
Q 1288 297 1484 297 
Q 1619 297 1789 381 
Q 1959 466 2194 703 
L 2194 2325 
Q 2194 2569 2105 2655 
Q 2016 2741 1734 2747 
L 1734 2863 
L 2709 2863 
z
" transform="scale(0.015625)"/>
       <path id="TimesNewRomanPSMT-72" d="M 1038 2947 
L 1038 2303 
Q 1397 2947 1775 2947 
Q 1947 2947 2059 2842 
Q 2172 2738 2172 2600 
Q 2172 2478 2090 2393 
Q 2009 2309 1897 2309 
Q 1788 2309 1652 2417 
Q 1516 2525 1450 2525 
Q 1394 2525 1328 2463 
Q 1188 2334 1038 2041 
L 1038 669 
Q 1038 431 1097 309 
Q 1138 225 1241 169 
Q 1344 113 1538 113 
L 1538 0 
L 72 0 
L 72 113 
Q 291 113 397 181 
Q 475 231 506 341 
Q 522 394 522 644 
L 522 1753 
Q 522 2253 501 2348 
Q 481 2444 426 2487 
Q 372 2531 291 2531 
Q 194 2531 72 2484 
L 41 2597 
L 906 2947 
L 1038 2947 
z
" transform="scale(0.015625)"/>
       <path id="TimesNewRomanPSMT-61" d="M 1822 413 
Q 1381 72 1269 19 
Q 1100 -59 909 -59 
Q 613 -59 420 144 
Q 228 347 228 678 
Q 228 888 322 1041 
Q 450 1253 767 1440 
Q 1084 1628 1822 1897 
L 1822 2009 
Q 1822 2438 1686 2597 
Q 1550 2756 1291 2756 
Q 1094 2756 978 2650 
Q 859 2544 859 2406 
L 866 2225 
Q 866 2081 792 2003 
Q 719 1925 600 1925 
Q 484 1925 411 2006 
Q 338 2088 338 2228 
Q 338 2497 613 2722 
Q 888 2947 1384 2947 
Q 1766 2947 2009 2819 
Q 2194 2722 2281 2516 
Q 2338 2381 2338 1966 
L 2338 994 
Q 2338 584 2353 492 
Q 2369 400 2405 369 
Q 2441 338 2488 338 
Q 2538 338 2575 359 
Q 2641 400 2828 588 
L 2828 413 
Q 2478 -56 2159 -56 
Q 2006 -56 1915 50 
Q 1825 156 1822 413 
z
M 1822 616 
L 1822 1706 
Q 1350 1519 1213 1441 
Q 966 1303 859 1153 
Q 753 1003 753 825 
Q 753 600 887 451 
Q 1022 303 1197 303 
Q 1434 303 1822 616 
z
" transform="scale(0.015625)"/>
       <path id="TimesNewRomanPSMT-79" d="M 38 2863 
L 1372 2863 
L 1372 2747 
L 1306 2747 
Q 1166 2747 1095 2686 
Q 1025 2625 1025 2534 
Q 1025 2413 1128 2197 
L 1825 753 
L 2466 2334 
Q 2519 2463 2519 2588 
Q 2519 2644 2497 2672 
Q 2472 2706 2419 2726 
Q 2366 2747 2231 2747 
L 2231 2863 
L 3163 2863 
L 3163 2747 
Q 3047 2734 2984 2696 
Q 2922 2659 2847 2556 
Q 2819 2513 2741 2316 
L 1575 -541 
Q 1406 -956 1132 -1168 
Q 859 -1381 606 -1381 
Q 422 -1381 303 -1275 
Q 184 -1169 184 -1031 
Q 184 -900 270 -820 
Q 356 -741 506 -741 
Q 609 -741 788 -809 
Q 913 -856 944 -856 
Q 1038 -856 1148 -759 
Q 1259 -663 1372 -384 
L 1575 113 
L 547 2272 
Q 500 2369 397 2513 
Q 319 2622 269 2659 
Q 197 2709 38 2747 
L 38 2863 
z
" transform="scale(0.015625)"/>
      </defs>
      <use xlink:href="#TimesNewRomanPSMT-41"/>
      <use xlink:href="#TimesNewRomanPSMT-63" transform="translate(72.216797 0)"/>
      <use xlink:href="#TimesNewRomanPSMT-63" transform="translate(116.601562 0)"/>
      <use xlink:href="#TimesNewRomanPSMT-75" transform="translate(160.986328 0)"/>
      <use xlink:href="#TimesNewRomanPSMT-72" transform="translate(210.986328 0)"/>
      <use xlink:href="#TimesNewRomanPSMT-61" transform="translate(244.287109 0)"/>
      <use xlink:href="#TimesNewRomanPSMT-63" transform="translate(288.671875 0)"/>
      <use xlink:href="#TimesNewRomanPSMT-79" transform="translate(333.056641 0)"/>
     </g>
    </g>
   </g>
   <g id="line2d_31">
    <path d="M 370.332938 177.52305 
L 438.234804 179.385834 
L 456.545335 170.338023 
L 467.573792 165.015788 
L 475.490782 160.624925 
L 481.671055 162.221609 
L 486.741152 160.22577 
L 491.039833 160.624925 
L 494.771135 159.294367 
L 498.067519 159.427429 
L 501.019871 158.895212 
L 503.693263 157.830762 
L 506.135891 157.03242 
L 508.384447 157.564637 
L 510.467513 158.229932 
L 512.407787 158.629087 
L 514.223596 158.76215 
L 517.539301 158.09687 
L 519.062083 156.766311 
L 520.507138 156.500203 
L 521.882016 156.500203 
L 523.193218 155.96797 
L 524.446384 155.834923 
L 525.646433 154.90352 
L 526.797686 154.504349 
L 527.903957 153.306852 
L 528.968628 153.706023 
L 529.994716 153.17379 
L 530.984919 153.306852 
L 531.941663 153.306852 
L 532.867135 151.444061 
L 533.763315 151.177952 
L 534.632 151.044906 
L 535.474828 150.645735 
L 536.293293 150.113502 
L 537.088765 149.847393 
L 537.862499 149.182114 
L 538.615653 148.383772 
L 540.064405 148.117664 
L 540.761902 146.920167 
L 541.44263 146.387934 
L 542.107377 146.654059 
L 542.756876 147.319338 
L 543.391811 147.053214 
L 544.620504 147.053214 
L 545.215419 147.186276 
L 545.798092 146.654059 
L 546.369017 146.920167 
L 548.015814 146.920167 
L 548.54413 146.654059 
L 549.57208 147.319338 
L 550.072392 147.319338 
L 550.564018 147.452384 
L 551.047253 147.319338 
L 551.522381 147.585447 
L 552.449368 147.053214 
L 553.346968 146.387934 
L 553.785319 146.520997 
L 555.880722 145.855717 
L 556.281818 145.988779 
L 558.57594 144.525158 
L 559.301125 144.791267 
L 560.008201 144.25905 
L 560.355226 144.791267 
L 560.69805 144.791267 
L 561.036774 145.3235 
L 561.371493 145.456546 
L 562.672154 144.525158 
L 562.988194 144.392096 
L 563.609886 144.392096 
L 563.915687 144.791267 
L 564.813762 144.125988 
L 565.106901 144.125988 
L 565.684228 144.392096 
L 565.968537 144.392096 
L 566.250019 144.525158 
L 566.528732 144.392096 
L 567.078059 144.392096 
L 567.616932 144.791267 
L 567.882571 144.25905 
L 568.145741 144.392096 
L 568.406488 144.392096 
L 568.664856 143.992925 
L 568.920888 143.992925 
L 569.426109 144.525158 
L 569.67538 144.525158 
L 570.167432 144.25905 
L 570.410289 143.992925 
L 570.651081 143.992925 
L 571.126607 144.25905 
L 572.054353 144.25905 
L 572.281617 143.992925 
L 572.507071 144.392096 
L 572.730745 144.392096 
L 572.952665 144.125988 
L 573.17286 144.392096 
L 573.608179 144.392096 
L 574.24886 144.658205 
L 574.45924 144.525158 
L 575.081159 144.525158 
L 575.285467 144.392096 
L 575.488311 144.525158 
L 575.689712 144.25905 
L 576.088268 144.924329 
L 576.675777 144.658205 
L 576.868936 144.924329 
L 577.060785 144.791267 
L 577.251344 145.057376 
L 577.440629 145.057376 
L 577.628657 144.791267 
L 577.815445 145.190438 
L 578.001009 144.924329 
L 578.185364 145.057376 
L 578.368527 144.791267 
L 578.550513 144.924329 
L 578.731337 145.3235 
L 578.911014 144.658205 
L 579.618531 144.125988 
L 579.792683 144.25905 
L 580.308801 143.859879 
L 580.478771 144.25905 
L 580.647727 143.327646 
L 580.815681 143.726817 
L 580.982644 143.726817 
L 581.313647 143.327646 
L 581.477708 143.992925 
L 581.640824 143.59377 
L 582.284053 143.992925 
L 582.60027 143.859879 
L 582.757064 144.125988 
L 583.222303 143.726817 
L 583.375699 144.25905 
L 583.680022 143.859879 
L 583.830965 143.1946 
L 584.130459 143.061537 
L 584.279027 143.061537 
L 584.426819 143.327646 
L 584.720109 143.061537 
L 584.865623 143.59377 
L 585.010393 142.662367 
L 585.297731 143.061537 
L 585.582183 142.52932 
L 585.723344 142.52932 
L 586.003573 142.795429 
L 586.142655 142.396258 
L 586.418785 142.795429 
L 586.692248 142.396258 
L 587.097555 142.662367 
L 587.231378 142.662367 
L 587.497141 142.795429 
L 587.629094 141.864041 
L 587.760434 142.52932 
L 587.891168 142.52932 
L 588.150839 142.13015 
L 588.279787 142.52932 
L 588.40815 142.396258 
L 588.535935 142.52932 
L 588.789786 142.263212 
L 588.915863 142.795429 
L 589.290762 142.52932 
L 589.537965 142.795429 
L 589.660762 142.396258 
L 589.783028 142.795429 
L 589.904769 142.795429 
L 590.146692 142.662367 
L 590.266883 142.662367 
L 590.505745 142.795429 
L 590.742609 142.795429 
L 590.860302 142.662367 
L 590.977508 142.928491 
L 591.210475 142.795429 
L 591.326243 142.795429 
L 591.44154 142.928491 
L 591.55637 142.795429 
L 591.670735 143.327646 
L 591.784641 143.1946 
L 591.89809 142.662367 
L 592.011087 142.928491 
L 592.123635 142.662367 
L 592.235737 142.795429 
L 592.347397 142.396258 
L 592.789685 143.327646 
L 593.008265 142.662367 
L 593.225171 143.460708 
L 593.760276 142.928491 
L 593.971518 143.1946 
L 594.076551 143.061537 
L 594.181197 143.1946 
L 594.285456 143.061537 
L 594.389334 143.460708 
L 594.595952 142.928491 
L 594.801074 143.1946 
L 594.90308 142.795429 
L 595.105997 143.061537 
L 595.30747 142.662367 
L 595.50752 142.928491 
L 595.903428 142.52932 
L 596.001547 142.52932 
L 596.099326 142.662367 
L 596.196769 142.396258 
L 596.293878 142.52932 
L 596.390655 143.061537 
L 596.487102 142.928491 
L 596.583222 143.061537 
L 596.774489 142.662367 
L 596.86964 142.662367 
L 597.058988 142.13015 
L 597.15319 142.52932 
L 597.247079 142.13015 
L 597.340658 142.662367 
L 597.526893 142.396258 
L 597.803968 142.396258 
L 597.895728 142.662367 
L 597.987191 141.997087 
L 598.169235 142.263212 
L 598.259821 142.396258 
L 598.350117 141.730979 
L 598.440126 141.864041 
L 598.52985 142.263212 
L 598.70845 141.864041 
L 598.885931 142.13015 
L 598.974256 141.997087 
L 599.062306 141.597917 
L 599.150083 141.997087 
L 599.411794 141.46487 
L 599.584934 141.864041 
L 599.671108 141.198762 
L 599.842675 141.864041 
L 600.013208 141.331808 
L 600.09809 141.46487 
L 600.18272 141.864041 
L 600.267097 141.198762 
L 600.351223 141.331808 
L 600.51873 140.932637 
L 600.602113 141.198762 
L 600.685251 140.932637 
L 600.768146 141.46487 
L 600.933212 141.065699 
L 601.015385 141.198762 
L 601.097321 141.597917 
L 601.341715 140.932637 
L 601.584017 141.198762 
L 601.664326 140.799591 
L 601.824264 141.198762 
L 601.983304 141.065699 
L 602.06249 141.065699 
L 602.141455 140.799591 
L 602.220201 141.46487 
L 602.298728 140.666529 
L 602.455132 141.597917 
L 602.533012 141.597917 
L 602.610677 141.46487 
L 602.688131 140.799591 
L 602.765373 141.331808 
L 602.842405 141.198762 
L 602.919228 140.932637 
L 603.072251 141.730979 
L 603.224452 141.331808 
L 603.300247 141.864041 
L 603.375839 141.730979 
L 603.451231 141.730979 
L 603.526422 142.13015 
L 603.676207 141.597917 
L 603.750804 141.864041 
L 603.825205 141.730979 
L 603.899411 141.730979 
L 603.973422 141.597917 
L 604.047241 141.198762 
L 604.120868 141.331808 
L 604.26755 141.864041 
L 604.340608 141.46487 
L 604.413477 141.597917 
L 604.486159 141.730979 
L 604.558655 141.331808 
L 604.703092 141.730979 
L 604.775036 141.46487 
L 604.846797 141.597917 
L 604.918377 141.864041 
L 604.989776 141.331808 
L 605.060995 141.46487 
L 605.132036 141.730979 
L 605.273586 141.331808 
L 605.344096 141.46487 
L 605.414431 141.864041 
L 605.55458 141.46487 
L 605.694038 141.864041 
L 605.832813 141.331808 
L 605.970911 141.730979 
L 606.039708 141.597917 
L 606.108338 141.730979 
L 606.176803 141.198762 
L 606.245102 141.46487 
L 606.313237 141.997087 
L 606.381209 141.864041 
L 606.449017 140.932637 
L 606.58415 141.997087 
L 606.71864 141.997087 
L 606.785647 140.932637 
L 606.919186 142.13015 
L 606.98572 141.46487 
L 607.052098 141.730979 
L 607.118321 142.263212 
L 607.316066 141.331808 
L 607.381675 142.263212 
L 607.447133 141.46487 
L 607.512439 142.396258 
L 607.577595 141.864041 
L 607.642602 142.263212 
L 607.70746 141.864041 
L 607.77217 142.13015 
L 607.836732 142.396258 
L 607.965416 141.997087 
L 608.093518 142.52932 
L 608.284591 142.13015 
L 608.347997 142.396258 
L 608.411261 142.263212 
L 608.474384 142.13015 
L 608.662912 142.52932 
L 608.725477 142.662367 
L 608.787904 141.997087 
L 608.850194 142.13015 
L 608.974364 142.263212 
L 609.036246 142.263212 
L 609.097992 142.662367 
L 609.159604 142.52932 
L 609.221083 142.13015 
L 609.282428 142.662367 
L 609.34364 142.13015 
L 609.46567 142.795429 
L 609.526488 142.263212 
L 609.647734 142.928491 
L 609.768463 142.396258 
L 609.828635 142.795429 
L 609.888679 142.795429 
L 610.068052 142.928491 
L 610.127592 142.396258 
L 610.187006 142.52932 
L 610.305462 142.52932 
L 610.364505 143.061537 
L 610.423425 142.795429 
L 610.482223 142.263212 
L 610.657886 143.1946 
L 610.7162 142.263212 
L 610.774393 142.52932 
L 610.890422 143.59377 
L 610.948259 142.396258 
L 611.005978 142.795429 
L 611.06358 142.928491 
L 611.178433 142.52932 
L 611.235685 142.52932 
L 611.292822 142.396258 
L 611.40675 143.327646 
L 611.463543 142.928491 
L 611.520222 142.396258 
L 611.576788 142.52932 
L 611.633241 143.460708 
L 611.745811 142.52932 
L 611.801929 142.52932 
L 611.857935 143.1946 
L 611.969617 142.396258 
L 612.080861 142.396258 
L 612.136319 142.928491 
L 612.191669 142.52932 
L 612.24691 142.263212 
L 612.302044 142.795429 
L 612.357072 142.52932 
L 612.411992 142.263212 
L 612.466806 142.52932 
L 612.521514 142.795429 
L 612.576117 142.52932 
L 612.630614 142.13015 
L 612.685007 142.52932 
L 612.847562 142.662367 
L 612.90154 142.662367 
L 613.116429 142.396258 
L 613.169898 142.396258 
L 613.223266 142.13015 
L 613.276533 142.662367 
L 613.3297 142.263212 
L 613.382768 142.13015 
L 613.541377 142.662367 
L 613.59405 142.396258 
L 613.646625 142.928491 
L 613.699102 142.52932 
L 613.751483 142.662367 
L 613.803767 142.263212 
L 613.855954 142.662367 
L 613.908046 142.662367 
L 613.960042 142.52932 
L 614.011942 142.795429 
L 614.063748 142.662367 
L 614.115459 142.396258 
L 614.167075 142.662367 
L 614.218598 142.662367 
L 614.372607 142.795429 
L 614.474815 142.795429 
L 614.525782 142.928491 
L 614.62744 142.263212 
L 614.678133 143.061537 
L 614.728735 142.52932 
L 614.880001 142.263212 
L 614.980398 143.327646 
L 615.030463 143.061537 
L 615.130329 142.13015 
L 615.18013 142.662367 
L 615.229844 141.997087 
L 615.27947 142.662367 
L 615.32901 143.1946 
L 615.378463 142.662367 
L 615.42783 141.864041 
L 615.477111 142.396258 
L 615.575417 141.997087 
L 615.624442 142.263212 
L 615.673383 141.730979 
L 615.868303 143.1946 
L 615.965262 141.597917 
L 616.013618 142.662367 
L 616.15819 143.061537 
L 616.302029 142.662367 
L 616.349813 142.928491 
L 616.397517 142.795429 
L 616.492684 142.795429 
L 616.729211 141.198762 
L 616.823272 142.52932 
L 616.870185 142.396258 
L 616.917021 141.597917 
L 617.010461 141.730979 
L 617.150045 142.13015 
L 617.196421 141.46487 
L 617.24272 141.997087 
L 617.335093 142.13015 
L 617.51894 141.864041 
L 617.610418 142.263212 
L 617.701601 141.864041 
L 617.837828 142.263212 
L 618.01845 141.997087 
L 618.063426 141.997087 
L 618.197927 142.13015 
L 618.242619 142.13015 
L 618.287241 141.864041 
L 618.376274 141.997087 
L 618.420686 142.263212 
L 618.465028 141.997087 
L 618.509301 141.997087 
L 618.553504 142.263212 
L 618.597639 141.997087 
L 618.641706 141.997087 
L 618.773494 142.263212 
L 618.817288 142.13015 
L 618.861014 142.52932 
L 618.904672 142.13015 
L 618.948263 141.864041 
L 619.035245 141.997087 
L 619.078636 142.13015 
L 619.121961 141.864041 
L 619.165219 142.13015 
L 619.251538 142.13015 
L 619.337595 142.263212 
L 619.380525 141.864041 
L 619.466191 142.263212 
L 619.508927 142.13015 
L 619.63675 142.263212 
L 619.67923 142.13015 
L 619.721646 142.263212 
L 619.890677 142.52932 
L 619.932778 142.52932 
L 620.016792 142.928491 
L 620.058706 142.263212 
L 620.100558 142.795429 
L 620.142348 142.795429 
L 620.225743 142.263212 
L 620.350378 142.928491 
L 620.433164 142.928491 
L 620.55689 142.52932 
L 620.680079 142.928491 
L 620.802734 142.662367 
L 620.965452 143.061537 
L 621.08688 142.928491 
L 621.207789 142.928491 
L 621.247978 142.795429 
L 621.28811 142.928491 
L 621.328185 142.928491 
L 621.368203 143.061537 
L 621.487919 142.662367 
L 621.527713 142.928491 
L 621.607132 142.795429 
L 621.646758 142.795429 
L 621.804711 143.061537 
L 621.961788 142.795429 
L 622.000921 142.795429 
L 622.04 143.327646 
L 622.117998 143.061537 
L 622.156916 143.061537 
L 622.195781 143.1946 
L 622.273351 142.928491 
L 622.389309 143.1946 
L 622.581523 142.928491 
L 622.61981 142.928491 
L 622.734361 143.1946 
L 622.886378 143.061537 
L 622.924255 143.061537 
L 622.999858 142.928491 
L 623.037584 143.061537 
L 623.075259 143.327646 
L 623.15046 143.1946 
L 623.300266 143.327646 
L 623.374872 143.327646 
L 623.560533 143.59377 
L 623.59752 143.59377 
L 623.708191 143.460708 
L 623.81843 143.59377 
L 623.964753 143.327646 
L 624.110322 143.460708 
L 624.182828 143.460708 
L 624.219011 143.327646 
L 624.255148 143.59377 
L 624.291239 143.59377 
L 624.435144 143.327646 
L 624.578322 143.59377 
L 624.64964 143.1946 
L 624.756282 143.327646 
L 624.897849 143.726817 
L 625.143901 143.1946 
L 625.283549 143.460708 
L 625.318353 143.59377 
L 625.387834 143.460708 
L 625.491737 143.460708 
L 625.526286 143.061537 
L 625.59526 143.1946 
L 625.664065 143.061537 
L 625.732704 143.327646 
L 625.869484 143.1946 
L 625.903577 143.327646 
L 625.971638 143.1946 
L 626.141079 143.1946 
L 626.208573 143.061537 
L 626.242259 143.327646 
L 626.309512 143.061537 
L 626.343079 143.061537 
L 626.47695 143.327646 
L 626.510319 143.327646 
L 626.61019 143.1946 
L 626.775864 143.460708 
L 626.841864 142.928491 
L 626.907709 143.327646 
L 626.940575 143.327646 
L 626.973402 142.928491 
L 627.038943 143.1946 
L 627.104333 143.061537 
L 627.136971 143.327646 
L 627.169571 142.928491 
L 627.23466 143.1946 
L 627.364391 143.460708 
L 627.49353 143.1946 
L 627.65413 142.52932 
L 627.718116 143.1946 
L 627.781958 142.928491 
L 627.813824 143.061537 
L 627.845656 142.928491 
L 627.909211 143.061537 
L 628.004276 142.662367 
L 628.099024 142.662367 
L 628.193456 143.061537 
L 628.224863 142.928491 
L 628.256236 142.662367 
L 628.318877 142.795429 
L 628.41258 143.061537 
L 628.568065 142.52932 
L 628.660948 142.928491 
L 628.691842 142.662367 
L 628.722701 142.662367 
L 628.876498 143.061537 
L 628.968376 143.1946 
L 628.998936 142.662367 
L 629.120848 143.061537 
L 629.242236 142.795429 
L 629.363107 142.928491 
L 629.483464 142.795429 
L 629.543451 142.662367 
L 629.573397 142.928491 
L 629.663045 142.52932 
L 629.692865 142.928491 
L 629.752411 142.52932 
L 629.782137 142.52932 
L 629.871128 142.662367 
L 629.989349 142.52932 
L 630.018828 142.928491 
L 630.107079 142.795429 
L 630.34108 142.795429 
L 630.486355 142.52932 
L 630.659707 142.928491 
L 630.717256 142.52932 
L 630.774688 142.662367 
L 630.80336 142.928491 
L 630.832004 142.396258 
L 630.860618 142.795429 
L 630.889204 142.263212 
L 630.917761 142.928491 
L 630.974788 142.662367 
L 631.031701 142.396258 
L 631.088499 142.795429 
L 631.145184 142.662367 
L 631.173484 142.662367 
L 631.229999 142.795429 
L 631.258215 142.396258 
L 631.342693 142.795429 
L 631.370796 142.662367 
L 631.454939 142.662367 
L 631.482931 142.52932 
L 631.538833 142.662367 
L 631.594624 142.928491 
L 631.622479 142.52932 
L 631.650306 142.52932 
L 631.816697 142.795429 
L 631.844334 142.52932 
L 631.871944 142.928491 
L 631.927084 142.795429 
L 631.954613 142.928491 
L 631.982116 142.52932 
L 632.009592 142.662367 
L 632.064465 142.662367 
L 632.091861 142.52932 
L 632.173892 142.662367 
L 632.228447 142.662367 
L 632.364377 142.396258 
L 632.445623 142.52932 
L 632.418567 142.263212 
L 632.472653 142.396258 
L 632.526637 142.396258 
L 632.580517 142.52932 
L 632.607419 142.263212 
L 632.634295 142.662367 
L 632.714772 142.263212 
L 632.79502 142.52932 
L 632.821719 142.263212 
L 632.875042 142.396258 
L 632.901665 142.13015 
L 632.928264 142.263212 
L 632.954838 142.263212 
L 633.113758 141.997087 
L 633.271792 142.396258 
L 633.350479 142.52932 
L 633.402816 142.263212 
L 633.428948 142.263212 
L 633.533237 142.52932 
L 633.559249 142.396258 
L 633.585237 142.396258 
L 633.637143 141.997087 
L 633.66306 142.13015 
L 633.688953 142.52932 
L 633.766491 142.13015 
L 633.895252 142.662367 
L 633.920934 142.13015 
L 633.99784 142.396258 
L 634.151029 142.396258 
L 634.201908 142.52932 
L 634.227314 142.396258 
L 634.252696 142.263212 
L 634.278056 142.52932 
L 634.328708 142.396258 
L 634.429741 142.795429 
L 634.454943 142.795429 
L 634.50528 142.928491 
L 634.555527 142.662367 
L 634.680757 142.795429 
L 634.805435 142.13015 
L 634.830305 142.396258 
L 634.979068 142.795429 
L 635.102443 142.396258 
L 635.200757 142.662367 
L 635.274269 142.396258 
L 635.323172 142.52932 
L 635.396367 142.662367 
L 635.420724 142.396258 
L 635.493668 142.795429 
L 635.542193 142.52932 
L 635.566425 142.662367 
L 635.590636 142.263212 
L 635.614826 142.396258 
L 635.638995 142.396258 
L 635.663144 142.795429 
L 635.735467 142.52932 
L 635.831612 142.396258 
L 635.951335 142.662367 
L 636.022927 142.263212 
L 636.070554 142.396258 
L 636.118102 143.061537 
L 636.165569 142.52932 
L 636.212958 142.662367 
L 636.236622 142.396258 
L 636.354649 142.662367 
L 636.378195 142.52932 
L 636.401722 142.795429 
L 636.42523 142.662367 
L 636.448717 142.795429 
L 636.472186 142.52932 
L 636.495635 142.662367 
L 636.565865 142.795429 
L 636.612589 142.52932 
L 636.68253 142.795429 
L 636.705806 142.662367 
L 636.752299 142.795429 
L 636.775518 142.52932 
L 636.891324 142.795429 
L 636.983629 142.396258 
L 637.075635 143.061537 
L 637.098589 142.52932 
L 637.121525 142.396258 
L 637.144443 142.795429 
L 637.213084 142.795429 
L 637.304348 143.1946 
L 637.418016 142.52932 
L 637.463356 142.396258 
L 637.553818 143.061537 
L 637.598941 143.061537 
L 637.711435 142.662367 
L 637.80111 143.061537 
L 637.823484 142.795429 
L 637.86818 142.52932 
L 637.935091 142.795429 
L 638.001845 142.795429 
L 638.04626 143.327646 
L 638.112753 142.795429 
L 638.134882 142.795429 
L 638.179089 142.928491 
L 638.201167 142.396258 
L 638.245271 143.327646 
L 638.311298 142.795429 
L 638.333273 142.795429 
L 638.377172 143.327646 
L 638.399096 143.1946 
L 638.421003 142.263212 
L 638.486622 143.061537 
L 638.508462 143.327646 
L 638.530284 142.795429 
L 638.573879 143.1946 
L 638.682573 142.662367 
L 638.704262 142.928491 
L 638.769229 143.061537 
L 638.834047 142.52932 
L 638.96324 142.795429 
L 638.984715 142.795429 
L 639.027616 143.061537 
L 639.070452 142.662367 
L 639.091846 143.1946 
L 639.17726 142.795429 
L 639.262418 143.061537 
L 639.241152 142.662367 
L 639.283667 142.928491 
L 639.368506 142.662367 
L 639.389675 142.928491 
L 639.474197 143.061537 
L 639.453091 142.662367 
L 639.495288 142.928491 
L 639.516364 142.795429 
L 639.579496 143.061537 
L 639.600509 142.928491 
L 639.621506 142.928491 
L 639.663454 143.061537 
L 639.70534 142.928491 
L 639.809784 142.662367 
L 639.830627 142.795429 
L 639.913845 143.1946 
L 639.934611 142.795429 
L 639.955362 142.795429 
L 640.07955 143.061537 
L 640.141441 142.795429 
L 640.182626 142.928491 
L 640.203196 142.928491 
L 640.305824 142.795429 
L 640.326305 143.061537 
L 640.40808 142.928491 
L 640.469258 142.795429 
L 640.44888 143.061537 
L 640.509969 142.928491 
L 640.530303 142.928491 
L 640.591217 142.662367 
L 640.570927 143.061537 
L 640.611493 142.795429 
L 640.672233 143.061537 
L 640.712654 142.795429 
L 640.732843 142.795429 
L 640.773177 143.061537 
L 640.833572 142.52932 
L 640.933944 142.928491 
L 640.953975 142.662367 
L 640.973993 142.662367 
L 640.993997 142.928491 
L 641.033961 142.263212 
L 641.073869 142.52932 
L 641.153518 142.263212 
L 641.133627 142.662367 
L 641.173395 142.52932 
L 641.252764 142.52932 
L 641.371402 142.795429 
L 641.430535 142.52932 
L 641.469889 142.795429 
L 641.489545 142.928491 
L 641.509188 142.795429 
L 641.626759 142.396258 
L 641.743844 143.1946 
L 641.763311 143.061537 
L 641.841046 143.1946 
L 641.860447 142.662367 
L 641.879834 143.327646 
L 641.899208 142.396258 
L 641.95725 142.662367 
L 641.976571 142.662367 
L 642.092221 142.795429 
L 642.11145 142.795429 
L 642.207401 142.662367 
L 642.24569 142.52932 
L 642.341188 143.061537 
L 642.417355 142.396258 
L 642.455362 142.795429 
L 642.474346 142.795429 
L 642.512276 142.928491 
L 642.531222 142.52932 
L 642.550156 142.52932 
L 642.70117 142.928491 
L 642.83265 142.396258 
L 642.870103 142.795429 
L 642.944863 142.662367 
L 642.963522 142.662367 
L 643.056633 142.396258 
L 643.093792 142.52932 
L 643.130902 142.795429 
L 643.149439 142.263212 
L 643.186476 142.52932 
L 643.241941 142.662367 
L 643.297298 142.396258 
L 643.352547 142.662367 
L 643.38932 142.396258 
L 643.44439 142.662367 
L 643.481044 142.263212 
L 643.499353 142.662367 
L 643.590722 142.52932 
L 643.645401 142.52932 
L 643.736301 142.263212 
L 643.754446 142.52932 
L 643.844996 142.52932 
L 643.863072 142.263212 
L 643.899188 142.662367 
L 643.953276 142.396258 
L 644.007261 142.662367 
L 644.061143 142.396258 
L 644.114923 142.263212 
L 644.132827 142.662367 
L 644.15072 142.396258 
L 644.168601 142.662367 
L 644.186471 142.263212 
L 644.257839 142.396258 
L 644.275653 142.396258 
L 644.311247 142.52932 
L 644.382301 142.263212 
L 644.400037 142.52932 
L 644.453178 142.13015 
L 644.470869 142.263212 
L 644.541525 142.396258 
L 644.594401 142.13015 
L 644.682309 142.396258 
L 644.699858 142.13015 
L 644.717396 142.13015 
L 644.769945 142.662367 
L 644.822397 142.13015 
L 644.839859 142.13015 
L 644.85731 142.795429 
L 644.944407 142.13015 
L 644.979171 142.52932 
L 645.031237 142.263212 
L 645.048571 141.997087 
L 645.083208 142.662367 
L 645.117802 142.396258 
L 645.221331 142.662367 
L 645.341638 142.52932 
L 645.461437 142.662367 
L 645.47851 142.662367 
L 645.529666 142.52932 
L 645.563719 142.662367 
L 645.682584 142.795429 
L 645.699524 142.795429 
L 645.716454 142.928491 
L 645.733374 142.52932 
L 645.800952 142.795429 
L 645.868369 142.928491 
L 645.918827 142.662367 
L 646.036213 142.928491 
L 646.103074 143.061537 
L 646.136445 142.795429 
L 646.252934 142.928491 
L 646.286129 142.928491 
L 646.302712 142.795429 
L 646.335849 143.061537 
L 646.352402 142.928491 
L 646.368946 143.1946 
L 646.451522 143.061537 
L 646.468009 142.795429 
L 646.550297 143.061537 
L 646.599555 142.795429 
L 646.6651 143.1946 
L 646.681462 143.1946 
L 646.795736 142.928491 
L 646.90955 143.1946 
L 646.925772 143.1946 
L 646.974382 142.928491 
L 647.039065 143.327646 
L 647.167991 143.061537 
L 647.216188 142.795429 
L 647.280322 143.460708 
L 647.376252 142.928491 
L 647.392209 143.1946 
L 647.471858 143.59377 
L 647.503655 143.327646 
L 647.535417 143.061537 
L 647.567143 143.59377 
L 647.598833 143.327646 
L 647.693692 143.726817 
L 647.709471 143.061537 
L 647.80396 143.726817 
L 647.819678 143.726817 
L 647.913801 143.1946 
L 647.960746 143.460708 
L 647.976376 143.726817 
L 648.069981 143.460708 
L 648.116668 143.460708 
L 648.163277 143.59377 
L 648.194308 143.460708 
L 648.20981 143.1946 
L 648.225304 143.726817 
L 648.302648 143.327646 
L 648.410575 143.726817 
L 648.533418 143.1946 
L 648.548736 143.1946 
L 648.564046 142.928491 
L 648.609926 143.726817 
L 648.640471 143.460708 
L 648.762323 142.928491 
L 648.701463 143.726817 
L 648.777518 143.061537 
L 648.792704 143.59377 
L 648.838215 142.795429 
L 648.883653 142.928491 
L 648.929019 143.859879 
L 648.944124 142.795429 
L 649.004466 143.327646 
L 649.049638 142.662367 
L 649.124765 143.061537 
L 649.154761 142.795429 
L 649.169746 143.327646 
L 649.22961 142.928491 
L 649.289347 143.327646 
L 649.274424 142.795429 
L 649.348958 143.1946 
L 649.467806 142.928491 
L 649.512246 143.327646 
L 649.57139 143.061537 
L 649.68931 142.795429 
L 649.704016 143.327646 
L 649.806741 143.061537 
L 649.894495 142.928491 
L 649.996533 143.327646 
L 650.112699 142.662367 
L 650.213955 143.460708 
L 650.242819 142.928491 
L 650.28606 142.795429 
L 650.300459 143.061537 
L 650.415387 143.327646 
L 650.486982 143.460708 
L 650.529851 142.795429 
L 650.686488 143.59377 
L 650.700685 143.460708 
L 650.842262 143.061537 
L 650.96908 143.726817 
L 651.081332 143.1946 
L 651.179189 143.460708 
L 651.221024 143.1946 
L 651.234955 143.726817 
L 651.276708 143.460708 
L 651.38775 143.726817 
L 651.484555 143.1946 
L 651.512153 143.460708 
L 651.525942 143.460708 
L 651.622277 143.726817 
L 651.567269 143.1946 
L 651.636012 143.59377 
L 651.690887 143.726817 
L 651.731974 143.460708 
L 651.80032 143.327646 
L 651.841248 143.726817 
L 651.950102 143.1946 
L 651.963679 143.59377 
L 652.045007 143.327646 
L 652.058539 143.726817 
L 652.166562 143.1946 
L 652.274175 143.726817 
L 652.287598 143.327646 
L 652.314424 143.859879 
L 652.38138 143.726817 
L 652.394752 143.859879 
L 652.434831 143.59377 
L 652.461519 143.59377 
L 652.568018 143.327646 
L 652.488181 143.726817 
L 652.581303 143.460708 
L 652.621118 143.59377 
L 652.647631 143.1946 
L 652.687354 143.460708 
L 652.700582 143.460708 
L 652.819362 143.1946 
L 652.924526 143.460708 
L 653.029302 143.327646 
L 653.042372 143.460708 
L 653.094591 143.061537 
L 653.133692 143.327646 
L 653.19874 143.327646 
L 653.250672 142.795429 
L 653.289558 143.460708 
L 653.341323 142.928491 
L 653.418794 143.460708 
L 653.45745 143.061537 
L 653.470324 142.795429 
L 653.483192 143.327646 
L 653.560276 143.1946 
L 653.573103 143.1946 
L 653.585924 143.327646 
L 653.59874 143.061537 
L 653.66273 143.061537 
L 653.675511 143.061537 
L 653.713818 143.460708 
L 653.803001 143.327646 
L 653.891905 143.061537 
L 653.828431 143.460708 
L 653.904582 143.1946 
L 653.967886 143.460708 
L 653.929921 142.928491 
L 653.98053 142.928491 
L 654.043664 142.928491 
L 654.106657 143.460708 
L 654.156952 143.327646 
L 654.282298 143.061537 
L 654.294802 143.327646 
L 654.307301 142.795429 
L 654.382177 143.061537 
L 654.394637 143.061537 
L 654.494121 143.1946 
L 654.605625 142.928491 
L 654.704372 143.327646 
L 654.716691 143.061537 
L 654.790494 143.327646 
L 654.741313 142.795429 
L 654.827323 143.1946 
L 654.8886 142.795429 
L 654.937525 143.1946 
L 654.986366 142.795429 
L 654.961956 143.327646 
L 655.059471 142.928491 
L 655.132387 142.795429 
L 655.180893 143.460708 
L 655.28973 142.795429 
L 655.301797 143.061537 
L 655.350015 142.795429 
L 655.422188 143.1946 
L 655.434199 143.1946 
L 655.458205 143.327646 
L 655.530103 143.1946 
L 655.613753 143.061537 
L 655.637608 143.1946 
L 655.685258 143.1946 
L 655.804032 143.061537 
L 655.898694 143.1946 
L 655.910505 143.061537 
L 655.92231 143.061537 
L 655.934111 143.327646 
L 656.016578 142.928491 
L 656.02834 143.1946 
L 656.110534 143.327646 
L 656.145687 142.928491 
L 656.250884 143.1946 
L 656.262549 143.061537 
L 656.297514 143.061537 
L 656.309159 143.327646 
L 656.332436 142.662367 
L 656.40215 143.061537 
L 656.471694 142.795429 
L 656.517962 142.928491 
L 656.564154 142.928491 
L 656.57569 143.061537 
L 656.656312 142.795429 
L 656.667811 142.928491 
L 656.725235 143.061537 
L 656.782543 142.795429 
L 656.896812 143.061537 
L 656.965152 142.795429 
L 657.010621 142.928491 
L 657.021977 142.928491 
L 657.101341 142.795429 
L 657.078688 143.061537 
L 657.11266 142.928491 
L 657.16919 143.1946 
L 657.180483 142.662367 
L 657.191771 142.795429 
L 657.203054 142.662367 
L 657.236877 142.928491 
L 657.281913 142.928491 
L 657.315642 142.928491 
L 657.394188 142.662367 
L 657.38298 143.1946 
L 657.41659 142.928491 
L 657.438974 142.928491 
L 657.56177 143.1946 
L 657.595168 142.928491 
L 657.684037 143.061537 
L 657.805778 143.1946 
L 657.89399 142.928491 
L 657.916 143.061537 
L 657.959968 143.061537 
L 657.9929 143.327646 
L 658.069592 143.1946 
L 658.156987 143.061537 
L 658.167892 143.327646 
L 658.178793 143.1946 
L 658.18969 143.1946 
L 658.29843 142.928491 
L 658.309281 143.061537 
L 658.320128 143.061537 
L 658.3743 142.795429 
L 658.439171 142.928491 
L 658.482335 143.327646 
L 658.536198 142.928491 
L 658.557715 143.327646 
L 658.632894 142.795429 
L 658.643618 143.460708 
L 658.739949 142.795429 
L 658.761311 142.795429 
L 658.878517 142.928491 
L 658.952851 142.795429 
L 658.910398 143.327646 
L 658.974053 142.928491 
L 659.069268 142.662367 
L 659.079828 143.1946 
L 659.195726 142.662367 
L 659.206238 142.662367 
L 659.237753 143.061537 
L 659.332087 142.928491 
L 659.353007 142.928491 
L 659.415676 142.795429 
L 659.446959 142.928491 
L 659.53021 142.795429 
L 659.540599 143.061537 
L 659.65463 142.795429 
L 659.768204 143.061537 
L 659.881323 142.795429 
L 659.901842 142.795429 
L 660.01443 143.061537 
L 660.065459 142.662367 
L 660.126573 142.795429 
L 660.146915 142.795429 
L 660.1774 143.061537 
L 660.187555 142.662367 
L 660.248405 142.662367 
L 660.258535 142.662367 
L 660.319233 142.795429 
L 660.339437 142.52932 
L 660.369716 142.662367 
L 660.389884 142.662367 
L 660.520627 142.396258 
L 660.580768 142.662367 
L 660.64078 142.52932 
L 660.670739 142.52932 
L 660.7206 142.662367 
L 660.780317 142.396258 
L 660.849828 142.662367 
L 660.899375 142.52932 
L 660.97847 142.396258 
L 660.988341 142.662367 
L 660.998209 142.52932 
L 661.037646 142.662367 
L 661.047497 142.263212 
L 661.086866 142.263212 
L 661.096699 142.263212 
L 661.165439 142.662367 
L 661.204644 142.396258 
L 661.214437 142.396258 
L 661.282892 142.263212 
L 661.292658 142.662367 
L 661.31218 142.396258 
L 661.321935 142.662367 
L 661.331688 142.263212 
L 661.409586 142.263212 
L 661.477571 142.263212 
L 661.496966 142.662367 
L 661.593739 142.52932 
L 661.622707 142.263212 
L 661.69981 142.52932 
L 661.728669 142.52932 
L 661.815072 142.263212 
L 661.834236 142.52932 
L 661.843814 142.52932 
L 661.891653 142.13015 
L 661.948954 142.52932 
L 661.958492 142.52932 
L 662.006138 142.13015 
L 662.082205 142.263212 
L 662.091699 142.263212 
L 662.167537 142.52932 
L 662.186465 142.13015 
L 662.195924 142.263212 
L 662.233729 142.13015 
L 662.214833 142.396258 
L 662.299767 142.263212 
L 662.309188 142.263212 
L 662.40323 142.396258 
L 662.412617 142.263212 
L 662.459506 142.263212 
L 662.468874 142.13015 
L 662.487602 142.396258 
L 662.553051 142.396258 
L 662.599707 142.396258 
L 662.618349 142.263212 
L 662.674199 142.52932 
L 662.702083 142.396258 
L 662.748495 142.396258 
L 662.822596 142.52932 
L 662.841091 142.263212 
L 662.850334 142.396258 
L 662.859574 142.263212 
L 662.868811 142.52932 
L 662.951809 142.52932 
L 663.016195 142.52932 
L 663.034564 142.396258 
L 663.126231 142.662367 
L 663.244957 142.52932 
L 663.254069 142.52932 
L 663.345029 142.795429 
L 663.326861 142.396258 
L 663.372261 142.662367 
L 663.399466 142.662367 
L 663.408528 142.795429 
L 663.417588 142.396258 
L 663.489961 142.662367 
L 663.571161 142.396258 
L 663.598176 142.662367 
L 663.66111 142.662367 
L 663.69701 142.263212 
L 663.786561 142.396258 
L 663.795501 142.396258 
L 663.89365 142.662367 
L 663.982582 142.263212 
L 663.929256 142.795429 
L 664.000335 142.662367 
L 664.018077 142.662367 
L 664.133129 142.263212 
L 664.088934 142.795429 
L 664.14196 142.396258 
L 664.150788 142.396258 
L 664.230117 142.795429 
L 664.256511 142.662367 
L 664.291664 142.795429 
L 664.3706 142.396258 
L 664.449316 143.061537 
L 664.484231 142.52932 
L 664.536523 142.52932 
L 664.632142 142.928491 
L 664.640818 142.795429 
L 664.753373 142.52932 
L 664.874087 142.928491 
L 664.994289 142.662367 
L 665.113982 142.795429 
L 665.13104 142.795429 
L 665.199169 142.662367 
L 665.207674 143.1946 
L 665.224675 143.061537 
L 665.267134 142.662367 
L 665.326471 143.1946 
L 665.411022 142.662367 
L 665.436338 142.928491 
L 665.453203 142.928491 
L 665.461631 142.662367 
L 665.470057 143.061537 
L 665.56258 142.795429 
L 665.6799 143.061537 
L 665.780075 142.795429 
L 665.788407 142.928491 
L 665.813388 142.928491 
L 665.838347 142.795429 
L 665.871592 143.061537 
L 665.913093 143.061537 
L 665.937964 143.1946 
L 665.954533 142.662367 
L 666.004181 142.928491 
L 666.028973 142.662367 
L 666.053743 143.1946 
L 666.086736 143.1946 
L 666.11969 143.327646 
L 666.144381 142.662367 
L 666.177268 143.061537 
L 666.185484 142.662367 
L 666.226528 143.327646 
L 666.28389 142.928491 
L 666.332964 142.795429 
L 666.398265 143.1946 
L 666.414567 143.1946 
L 666.495935 142.928491 
L 666.528417 143.061537 
L 666.617551 143.1946 
L 666.57707 142.928491 
L 666.62564 143.061537 
L 666.69027 142.795429 
L 666.674126 143.1946 
L 666.72253 143.1946 
L 666.770851 143.1946 
L 666.835151 142.928491 
L 666.88328 143.061537 
L 666.995265 143.1946 
L 667.074984 143.460708 
L 667.106809 143.061537 
L 667.122708 143.327646 
L 667.162416 142.928491 
L 667.225834 143.1946 
L 667.29701 142.928491 
L 667.304908 143.460708 
L 667.328587 143.327646 
L 667.375885 143.460708 
L 667.383761 142.928491 
L 667.430967 143.1946 
L 667.438828 143.1946 
L 667.446686 142.928491 
L 667.548641 143.1946 
L 667.572117 143.1946 
L 667.595574 143.061537 
L 667.689207 143.327646 
L 667.712567 143.327646 
L 667.720349 143.1946 
L 667.728129 143.460708 
L 667.821326 143.327646 
L 667.929669 143.460708 
L 668.014505 143.327646 
L 667.968262 143.726817 
L 668.029903 143.59377 
L 668.122113 143.726817 
L 668.129784 143.460708 
L 668.137452 143.59377 
L 668.145119 143.460708 
L 668.152783 143.726817 
L 668.236955 143.59377 
L 668.351333 143.726817 
L 668.374153 143.59377 
L 668.412146 143.859879 
L 668.450088 143.859879 
L 668.457671 143.859879 
L 668.5485 143.59377 
L 668.56361 143.859879 
L 668.60135 143.859879 
L 668.62397 143.59377 
L 668.706755 143.859879 
L 668.826739 143.859879 
L 668.938764 143.726817 
L 669.065192 144.125988 
L 669.109679 143.726817 
L 669.17628 143.992925 
L 669.18367 144.125988 
L 669.257468 143.59377 
L 669.272204 143.726817 
L 669.375146 143.460708 
L 669.301654 143.992925 
L 669.382484 143.726817 
L 669.433802 143.992925 
L 669.4704 143.327646 
L 669.477714 143.859879 
L 669.543455 143.1946 
L 669.594482 143.327646 
L 669.638146 143.859879 
L 669.681743 143.1946 
L 669.703516 143.460708 
L 669.768736 143.061537 
L 669.718023 143.859879 
L 669.819359 143.1946 
L 669.826583 143.1946 
L 669.855463 143.859879 
L 669.920334 142.928491 
L 669.941924 143.59377 
L 669.956309 143.1946 
L 670.056798 143.460708 
L 670.063962 143.460708 
L 670.128357 143.061537 
L 670.078284 143.59377 
L 670.178342 143.327646 
L 670.206865 143.061537 
L 670.285155 143.460708 
L 670.391567 143.061537 
L 670.398647 143.1946 
L 670.44109 143.460708 
L 670.412802 142.928491 
L 670.497581 143.061537 
L 670.504634 143.061537 
L 670.511686 142.928491 
L 670.518736 143.327646 
L 670.610226 143.061537 
L 670.694417 143.327646 
L 670.631298 142.928491 
L 670.715426 143.061537 
L 670.722426 143.061537 
L 670.729423 142.928491 
L 670.743414 143.1946 
L 670.820236 143.061537 
L 670.910759 143.1946 
L 670.834182 142.928491 
L 670.917711 143.061537 
L 670.931608 143.1946 
L 671.035623 142.928491 
L 671.042544 142.928491 
L 671.146152 143.061537 
L 671.063296 142.795429 
L 671.153046 142.928491 
L 671.208136 142.795429 
L 671.166829 143.061537 
L 671.256252 142.928491 
L 671.311142 143.061537 
L 671.304286 142.662367 
L 671.352239 142.662367 
L 671.359083 142.662367 
L 671.42743 143.061537 
L 671.46836 142.662367 
L 671.536444 142.928491 
L 671.550041 142.52932 
L 671.570425 142.662367 
L 671.577216 142.52932 
L 671.59758 143.061537 
L 671.658585 142.795429 
L 671.665355 143.061537 
L 671.705942 142.52932 
L 671.759968 142.662367 
L 671.773458 142.795429 
L 671.874431 142.52932 
L 671.88115 142.52932 
L 671.954951 142.928491 
L 671.995126 142.662367 
L 672.001816 142.662367 
L 672.061957 142.928491 
L 672.115308 142.52932 
L 672.155256 142.52932 
L 672.234983 142.928491 
L 672.261508 142.52932 
L 672.288009 142.52932 
L 672.294631 142.795429 
L 672.393766 142.52932 
L 672.413551 142.52932 
L 672.420143 142.795429 
L 672.518841 142.52932 
L 672.525408 142.52932 
L 672.604101 142.662367 
L 672.630284 142.52932 
L 672.669512 142.52932 
L 672.689106 142.928491 
L 672.780364 142.52932 
L 672.793377 142.52932 
L 672.910226 142.928491 
L 673.020142 142.52932 
L 673.13606 142.795429 
L 673.200255 142.396258 
L 673.245105 142.52932 
L 673.264305 142.52932 
L 673.334592 142.795429 
L 673.372857 142.662367 
L 673.37923 142.662367 
L 673.404706 142.52932 
L 673.391971 142.795429 
L 673.487344 142.662367 
L 673.500036 142.662367 
L 673.538079 142.52932 
L 673.614011 142.928491 
L 673.733821 142.662367 
L 673.815506 143.061537 
L 673.796677 142.52932 
L 673.840593 142.928491 
L 673.934469 142.396258 
L 673.953207 142.662367 
L 673.95945 142.662367 
L 674.040488 142.928491 
L 674.059156 142.52932 
L 674.158511 142.928491 
L 674.170906 142.662367 
L 674.2328 142.662367 
L 674.288389 142.928491 
L 674.343869 142.52932 
L 674.442232 142.795429 
L 674.460637 142.662367 
L 674.564707 142.52932 
L 674.491286 142.795429 
L 674.570817 142.662367 
L 674.576926 142.662367 
L 674.631844 142.795429 
L 674.607449 142.52932 
L 674.686656 142.662367 
L 674.747433 142.396258 
L 674.704903 142.795429 
L 674.795962 142.52932 
L 674.862553 142.795429 
L 674.910884 142.662367 
L 674.91692 142.662367 
L 675.007301 142.795429 
L 674.989248 142.52932 
L 675.025343 142.662367 
L 675.031354 142.662367 
L 675.145327 142.795429 
L 675.258844 142.662367 
L 675.360027 142.795429 
L 675.365967 142.662367 
L 675.371907 142.662367 
L 675.48452 142.795429 
L 675.50226 142.795429 
L 675.614358 142.662367 
L 675.620245 142.662367 
L 675.679054 142.928491 
L 675.731877 142.795429 
L 675.83723 142.662367 
L 675.749463 142.928491 
L 675.843071 142.795429 
L 675.85475 142.795429 
L 675.942192 142.662367 
L 675.883927 142.928491 
L 675.965464 142.795429 
L 676.02356 142.795429 
L 676.093119 142.52932 
L 676.035165 142.928491 
L 676.133617 142.795429 
L 676.168283 142.795429 
L 676.174056 142.52932 
L 676.202906 142.928491 
L 676.277779 142.662367 
L 676.381124 142.928491 
L 676.386854 142.795429 
L 676.409764 142.795429 
L 676.524035 142.928491 
L 676.637847 142.795429 
L 676.643525 142.795429 
L 676.677573 143.061537 
L 676.756859 142.928491 
L 676.824642 142.795429 
L 676.77382 143.061537 
L 676.858473 143.061537 
L 676.864107 143.061537 
L 676.965338 142.795429 
L 676.970951 143.061537 
L 677.010213 143.061537 
L 677.122091 142.795429 
L 677.23909 143.061537 
L 677.350069 142.928491 
L 677.383278 143.1946 
L 677.466131 143.061537 
L 677.47716 143.061537 
L 677.493695 143.1946 
L 677.58172 142.928491 
L 677.647559 143.327646 
L 677.691367 143.061537 
L 677.696838 143.061537 
L 677.729644 143.1946 
L 677.811491 142.928491 
L 677.871362 143.327646 
L 677.920254 142.928491 
L 677.936532 142.928491 
L 678.012375 143.1946 
L 678.044817 142.928491 
L 678.082619 142.928491 
L 678.195723 143.1946 
L 678.238691 142.795429 
L 678.308377 142.928491 
L 678.31373 142.928491 
L 678.319082 142.795429 
L 678.345829 143.1946 
L 678.420585 142.928491 
L 678.425917 142.928491 
L 678.452562 143.1946 
L 678.447235 142.795429 
L 678.532349 142.928491 
L 678.558895 142.928491 
L 678.643675 143.061537 
L 678.574811 142.795429 
L 678.66483 142.928491 
L 678.670117 142.928491 
L 678.722926 143.061537 
L 678.780903 142.928491 
L 678.796694 142.928491 
L 678.875519 142.795429 
L 678.886012 143.061537 
L 678.906987 142.928491 
L 678.912228 142.928491 
L 678.975049 143.061537 
L 679.022073 142.928491 
L 679.027293 142.928491 
L 679.100274 143.061537 
L 679.074231 142.795429 
L 679.131494 142.928491 
L 679.209393 142.795429 
L 679.240493 142.928491 
L 679.266383 142.928491 
L 679.369709 142.795429 
L 679.374866 142.928491 
L 679.390329 142.928491 
L 679.482934 142.795429 
L 679.498338 142.928491 
L 679.518865 142.928491 
L 679.549627 143.061537 
L 679.626386 142.795429 
L 679.738591 142.928491 
L 679.830066 143.061537 
L 679.850353 142.795429 
L 679.860491 142.795429 
L 679.936414 143.061537 
L 679.971774 142.928491 
L 680.08765 142.795429 
L 680.198046 143.061537 
L 680.203053 142.928491 
L 680.293042 142.662367 
L 680.313001 142.928491 
L 680.372793 142.928491 
L 680.382746 142.795429 
L 680.477125 142.928491 
L 680.482084 143.061537 
L 680.586016 142.928491 
L 680.635373 142.928491 
L 680.650164 142.52932 
L 680.69941 143.061537 
L 680.74857 142.662367 
L 680.763302 143.1946 
L 680.856424 142.795429 
L 680.929726 142.662367 
L 680.900428 143.061537 
L 680.954117 143.061537 
L 680.963868 143.061537 
L 680.968742 143.1946 
L 680.993101 142.662367 
L 681.061192 143.061537 
L 681.06605 142.662367 
L 681.104879 143.1946 
L 681.172703 142.928491 
L 681.240365 143.1946 
L 681.211387 142.795429 
L 681.283777 142.928491 
L 681.327122 143.1946 
L 681.399217 142.795429 
L 681.518968 143.061537 
L 681.638216 142.795429 
L 681.642975 142.795429 
L 681.657249 142.662367 
L 681.756963 142.928491 
L 681.842154 142.662367 
L 681.86105 142.795429 
L 681.884653 143.1946 
L 681.94122 142.52932 
L 681.969461 142.662367 
L 681.974166 142.662367 
L 681.978869 142.52932 
L 682.049325 143.061537 
L 682.082145 142.662367 
L 682.100882 142.662367 
L 682.180377 142.928491 
L 682.189715 142.52932 
L 682.208381 142.795429 
L 682.301527 142.52932 
L 682.227034 142.928491 
L 682.315473 142.795429 
L 682.324766 142.795429 
L 682.375824 142.52932 
L 682.334056 142.928491 
L 682.431419 142.662367 
L 682.542283 142.928491 
L 682.643529 142.662367 
L 682.657307 142.795429 
L 682.661898 142.795429 
L 682.666488 142.662367 
L 682.721516 143.061537 
L 682.771865 142.795429 
L 682.85862 143.061537 
L 682.831253 142.662367 
L 682.885962 142.928491 
L 682.985988 142.662367 
L 682.908726 143.061537 
L 682.9996 142.795429 
L 683.076615 142.795429 
L 683.189493 142.662367 
L 683.216517 142.928491 
L 683.301922 142.795429 
L 683.310897 142.795429 
L 683.422847 142.662367 
L 683.427316 142.662367 
L 683.538807 142.795429 
L 683.556605 142.795429 
L 683.667589 142.662367 
L 683.685306 142.52932 
L 683.782553 142.795429 
L 683.800198 142.795429 
L 683.914626 142.52932 
L 684.032968 142.795429 
L 684.063569 142.662367 
L 684.067937 142.928491 
L 684.137747 142.795429 
L 684.237798 143.061537 
L 684.246481 142.795429 
L 684.250822 142.795429 
L 684.367769 143.061537 
L 684.479931 142.928491 
L 684.587362 143.061537 
L 684.673014 142.928491 
L 684.694386 143.061537 
L 684.707202 143.061537 
L 684.80952 142.928491 
L 684.81803 143.061537 
L 684.83079 143.061537 
L 684.941136 142.928491 
L 685.051054 143.1946 
L 685.055273 143.061537 
L 685.063709 143.061537 
L 685.164749 142.928491 
L 685.080574 143.1946 
L 685.168952 143.1946 
L 685.173153 143.1946 
L 685.261243 142.928491 
L 685.282176 143.061537 
L 685.298911 142.928491 
L 685.403285 143.460708 
L 685.407452 143.1946 
L 685.453248 143.59377 
L 685.511427 143.460708 
L 685.544618 143.460708 
L 685.606748 143.327646 
L 685.652223 143.460708 
L 686.277283 143.460708 
L 686.382144 143.327646 
L 686.386169 143.460708 
L 686.390194 143.460708 
L 686.502657 143.327646 
L 686.991467 143.327646 
L 687.101572 143.1946 
L 687.215159 143.327646 
L 687.219068 143.327646 
L 687.297129 143.460708 
L 687.332186 143.1946 
L 687.339971 143.1946 
L 687.417699 143.460708 
L 687.42934 143.061537 
L 687.448731 143.327646 
L 687.541623 143.061537 
L 687.560937 143.1946 
L 687.564799 143.327646 
L 687.587955 142.928491 
L 687.668854 143.1946 
L 687.768696 143.061537 
L 687.776361 143.1946 
L 687.799345 143.1946 
L 687.902544 143.061537 
L 687.910173 143.1946 
L 687.913987 143.1946 
L 688.028167 143.061537 
L 688.895946 143.061537 
L 689.013579 143.327646 
L 689.123419 143.061537 
L 689.232834 143.327646 
L 689.29828 143.1946 
L 689.258303 143.460708 
L 689.338201 143.460708 
L 690.645761 143.460708 
L 690.759808 143.327646 
L 691.024146 143.327646 
L 691.136683 143.1946 
L 692.917358 143.1946 
L 693.028997 143.327646 
L 693.314066 143.327646 
L 693.427295 143.1946 
L 694.292841 143.1946 
L 694.399198 143.327646 
L 694.402231 143.1946 
L 694.405263 143.1946 
L 694.517241 143.327646 
L 697.693947 143.327646 
L 697.812495 143.726817 
L 697.817871 143.726817 
L 697.930548 143.59377 
L 698.042778 143.726817 
L 699.439841 143.726817 
L 699.551314 143.859879 
L 702.188281 143.859879 
L 702.300937 143.726817 
L 702.305525 143.726817 
L 702.316994 143.859879 
L 702.415431 143.726817 
L 704.466874 143.726817 
L 704.579305 143.859879 
L 705.779337 143.859879 
L 705.852297 143.726817 
L 705.888707 143.859879 
L 705.892749 143.859879 
L 706.003697 143.59377 
L 706.00571 143.726817 
L 706.007723 143.726817 
L 706.120226 143.59377 
L 706.126241 143.59377 
L 706.238276 143.726817 
L 706.242269 143.726817 
L 706.353846 143.59377 
L 706.461024 143.726817 
L 706.463005 143.59377 
L 706.621034 143.59377 
L 706.623003 143.726817 
L 706.707575 143.460708 
L 706.729169 143.460708 
L 706.817337 143.460708 
L 706.928625 143.59377 
L 707.02977 143.59377 
L 707.031711 143.726817 
L 707.140227 143.59377 
L 707.279139 143.59377 
L 707.390547 143.726817 
L 707.392464 143.726817 
L 707.40013 143.59377 
L 707.503427 143.726817 
L 707.566368 143.726817 
L 707.65577 143.859879 
L 707.676654 143.726817 
L 707.746784 143.726817 
L 707.826183 143.859879 
L 707.856371 143.726817 
L 707.860142 143.726817 
L 707.961778 143.859879 
L 707.97117 143.726817 
L 707.978682 143.726817 
L 708.061178 143.992925 
L 708.091117 143.859879 
L 708.096727 143.859879 
L 708.208695 143.992925 
L 708.214282 143.992925 
L 708.323932 143.859879 
L 708.427616 143.992925 
L 708.435007 143.859879 
L 708.436855 143.859879 
L 708.547489 143.992925 
L 708.659525 143.859879 
L 708.77112 143.992925 
L 708.876821 144.125988 
L 708.882277 143.859879 
L 708.884096 143.859879 
L 708.996623 144.125988 
L 709.1069 143.992925 
L 709.216749 144.125988 
L 709.324383 143.992925 
L 709.326173 144.125988 
L 709.327964 144.125988 
L 709.440527 143.992925 
L 709.552644 144.125988 
L 709.655473 143.992925 
L 709.66255 144.125988 
L 710.435675 144.125988 
L 710.547357 143.992925 
L 711.121113 143.992925 
L 711.233478 144.125988 
L 712.312326 144.125988 
L 712.424886 144.25905 
L 712.431304 144.25905 
L 712.432909 144.125988 
L 712.541795 144.25905 
L 714.132798 144.25905 
L 714.244383 144.125988 
L 717.889604 144.125988 
L 718.001849 143.992925 
L 727.062302 143.992925 
L 727.174055 144.125988 
L 727.26352 144.125988 
L 727.37543 143.992925 
L 727.452937 143.992925 
L 727.452937 143.992925 
" clip-path="url(#p467dcc9f3f)" style="fill: none; stroke: #1f77b4; stroke-width: 1.5; stroke-linecap: square"/>
   </g>
   <g id="patch_3">
    <path d="M 370.332938 311.6435 
L 370.332938 45.5315 
" style="fill: none; stroke: #000000; stroke-width: 0.8; stroke-linejoin: miter; stroke-linecap: square"/>
   </g>
   <g id="patch_4">
    <path d="M 727.452937 311.6435 
L 727.452937 45.5315 
" style="fill: none; stroke: #000000; stroke-width: 0.8; stroke-linejoin: miter; stroke-linecap: square"/>
   </g>
   <g id="patch_5">
    <path d="M 370.332938 311.6435 
L 727.452937 311.6435 
" style="fill: none; stroke: #000000; stroke-width: 0.8; stroke-linejoin: miter; stroke-linecap: square"/>
   </g>
   <g id="patch_6">
    <path d="M 370.332938 45.5315 
L 727.452937 45.5315 
" style="fill: none; stroke: #000000; stroke-width: 0.8; stroke-linejoin: miter; stroke-linecap: square"/>
   </g>
   <g id="text_18">
    <!-- Accuracy of the 18_07_25_CIFAR10_torch_model_(1024+512-512.2-1)_cat-dog on the validation set -->
    <g transform="translate(7.2 25.5315) scale(0.264 -0.264)">
     <defs>
      <path id="TimesNewRomanPSMT-20" transform="scale(0.015625)"/>
      <path id="TimesNewRomanPSMT-6f" d="M 1600 2947 
Q 2250 2947 2644 2453 
Q 2978 2031 2978 1484 
Q 2978 1100 2793 706 
Q 2609 313 2286 112 
Q 1963 -88 1566 -88 
Q 919 -88 538 428 
Q 216 863 216 1403 
Q 216 1797 411 2186 
Q 606 2575 925 2761 
Q 1244 2947 1600 2947 
z
M 1503 2744 
Q 1338 2744 1170 2645 
Q 1003 2547 900 2300 
Q 797 2053 797 1666 
Q 797 1041 1045 587 
Q 1294 134 1700 134 
Q 2003 134 2200 384 
Q 2397 634 2397 1244 
Q 2397 2006 2069 2444 
Q 1847 2744 1503 2744 
z
" transform="scale(0.015625)"/>
      <path id="TimesNewRomanPSMT-66" d="M 1319 2638 
L 1319 756 
Q 1319 356 1406 250 
Q 1522 113 1716 113 
L 1975 113 
L 1975 0 
L 266 0 
L 266 113 
L 394 113 
Q 519 113 622 175 
Q 725 238 764 344 
Q 803 450 803 756 
L 803 2638 
L 247 2638 
L 247 2863 
L 803 2863 
L 803 3050 
Q 803 3478 940 3775 
Q 1078 4072 1361 4255 
Q 1644 4438 1997 4438 
Q 2325 4438 2600 4225 
Q 2781 4084 2781 3909 
Q 2781 3816 2700 3733 
Q 2619 3650 2525 3650 
Q 2453 3650 2373 3701 
Q 2294 3753 2178 3923 
Q 2063 4094 1966 4153 
Q 1869 4213 1750 4213 
Q 1606 4213 1506 4136 
Q 1406 4059 1362 3898 
Q 1319 3738 1319 3069 
L 1319 2863 
L 2056 2863 
L 2056 2638 
L 1319 2638 
z
" transform="scale(0.015625)"/>
      <path id="TimesNewRomanPSMT-74" d="M 1031 3803 
L 1031 2863 
L 1700 2863 
L 1700 2644 
L 1031 2644 
L 1031 788 
Q 1031 509 1111 412 
Q 1191 316 1316 316 
Q 1419 316 1516 380 
Q 1613 444 1666 569 
L 1788 569 
Q 1678 263 1478 108 
Q 1278 -47 1066 -47 
Q 922 -47 784 33 
Q 647 113 581 261 
Q 516 409 516 719 
L 516 2644 
L 63 2644 
L 63 2747 
Q 234 2816 414 2980 
Q 594 3144 734 3369 
Q 806 3488 934 3803 
L 1031 3803 
z
" transform="scale(0.015625)"/>
      <path id="TimesNewRomanPSMT-68" d="M 1041 4444 
L 1041 2350 
Q 1388 2731 1591 2839 
Q 1794 2947 1997 2947 
Q 2241 2947 2416 2812 
Q 2591 2678 2675 2391 
Q 2734 2191 2734 1659 
L 2734 647 
Q 2734 375 2778 275 
Q 2809 200 2884 156 
Q 2959 113 3159 113 
L 3159 0 
L 1753 0 
L 1753 113 
L 1819 113 
Q 2019 113 2097 173 
Q 2175 234 2206 353 
Q 2216 403 2216 647 
L 2216 1659 
Q 2216 2128 2167 2275 
Q 2119 2422 2012 2495 
Q 1906 2569 1756 2569 
Q 1603 2569 1437 2487 
Q 1272 2406 1041 2159 
L 1041 647 
Q 1041 353 1073 281 
Q 1106 209 1195 161 
Q 1284 113 1503 113 
L 1503 0 
L 84 0 
L 84 113 
Q 275 113 384 172 
Q 447 203 484 290 
Q 522 378 522 647 
L 522 3238 
Q 522 3728 498 3840 
Q 475 3953 426 3993 
Q 378 4034 297 4034 
Q 231 4034 84 3984 
L 41 4094 
L 897 4444 
L 1041 4444 
z
" transform="scale(0.015625)"/>
      <path id="TimesNewRomanPSMT-65" d="M 681 1784 
Q 678 1147 991 784 
Q 1303 422 1725 422 
Q 2006 422 2214 576 
Q 2422 731 2563 1106 
L 2659 1044 
Q 2594 616 2278 264 
Q 1963 -88 1488 -88 
Q 972 -88 605 314 
Q 238 716 238 1394 
Q 238 2128 614 2539 
Q 991 2950 1559 2950 
Q 2041 2950 2350 2633 
Q 2659 2316 2659 1784 
L 681 1784 
z
M 681 1966 
L 2006 1966 
Q 1991 2241 1941 2353 
Q 1863 2528 1708 2628 
Q 1553 2728 1384 2728 
Q 1125 2728 920 2526 
Q 716 2325 681 1966 
z
" transform="scale(0.015625)"/>
      <path id="TimesNewRomanPSMT-5f" d="M 3256 -1381 
L -53 -1381 
L -53 -1119 
L 3256 -1119 
L 3256 -1381 
z
" transform="scale(0.015625)"/>
      <path id="TimesNewRomanPSMT-43" d="M 3853 4334 
L 3950 2894 
L 3853 2894 
Q 3659 3541 3300 3825 
Q 2941 4109 2438 4109 
Q 2016 4109 1675 3895 
Q 1334 3681 1139 3212 
Q 944 2744 944 2047 
Q 944 1472 1128 1050 
Q 1313 628 1683 403 
Q 2053 178 2528 178 
Q 2941 178 3256 354 
Q 3572 531 3950 1056 
L 4047 994 
Q 3728 428 3303 165 
Q 2878 -97 2294 -97 
Q 1241 -97 663 684 
Q 231 1266 231 2053 
Q 231 2688 515 3219 
Q 800 3750 1298 4042 
Q 1797 4334 2388 4334 
Q 2847 4334 3294 4109 
Q 3425 4041 3481 4041 
Q 3566 4041 3628 4100 
Q 3709 4184 3744 4334 
L 3853 4334 
z
" transform="scale(0.015625)"/>
      <path id="TimesNewRomanPSMT-49" d="M 1975 116 
L 1975 0 
L 159 0 
L 159 116 
L 309 116 
Q 572 116 691 269 
Q 766 369 766 750 
L 766 3488 
Q 766 3809 725 3913 
Q 694 3991 597 4047 
Q 459 4122 309 4122 
L 159 4122 
L 159 4238 
L 1975 4238 
L 1975 4122 
L 1822 4122 
Q 1563 4122 1444 3969 
Q 1366 3869 1366 3488 
L 1366 750 
Q 1366 428 1406 325 
Q 1438 247 1538 191 
Q 1672 116 1822 116 
L 1975 116 
z
" transform="scale(0.015625)"/>
      <path id="TimesNewRomanPSMT-46" d="M 1309 4006 
L 1309 2341 
L 2081 2341 
Q 2347 2341 2470 2458 
Q 2594 2575 2634 2922 
L 2750 2922 
L 2750 1488 
L 2634 1488 
Q 2631 1734 2570 1850 
Q 2509 1966 2401 2023 
Q 2294 2081 2081 2081 
L 1309 2081 
L 1309 750 
Q 1309 428 1350 325 
Q 1381 247 1481 191 
Q 1619 116 1769 116 
L 1922 116 
L 1922 0 
L 103 0 
L 103 116 
L 253 116 
Q 516 116 634 269 
Q 709 369 709 750 
L 709 3488 
Q 709 3809 669 3913 
Q 638 3991 541 4047 
Q 406 4122 253 4122 
L 103 4122 
L 103 4238 
L 3256 4238 
L 3297 3306 
L 3188 3306 
Q 3106 3603 2998 3742 
Q 2891 3881 2733 3943 
Q 2575 4006 2244 4006 
L 1309 4006 
z
" transform="scale(0.015625)"/>
      <path id="TimesNewRomanPSMT-52" d="M 4325 0 
L 3194 0 
L 1759 1981 
Q 1600 1975 1500 1975 
Q 1459 1975 1412 1976 
Q 1366 1978 1316 1981 
L 1316 750 
Q 1316 350 1403 253 
Q 1522 116 1759 116 
L 1925 116 
L 1925 0 
L 109 0 
L 109 116 
L 269 116 
Q 538 116 653 291 
Q 719 388 719 750 
L 719 3488 
Q 719 3888 631 3984 
Q 509 4122 269 4122 
L 109 4122 
L 109 4238 
L 1653 4238 
Q 2328 4238 2648 4139 
Q 2969 4041 3192 3777 
Q 3416 3513 3416 3147 
Q 3416 2756 3161 2468 
Q 2906 2181 2372 2063 
L 3247 847 
Q 3547 428 3762 290 
Q 3978 153 4325 116 
L 4325 0 
z
M 1316 2178 
Q 1375 2178 1419 2176 
Q 1463 2175 1491 2175 
Q 2097 2175 2405 2437 
Q 2713 2700 2713 3106 
Q 2713 3503 2464 3751 
Q 2216 4000 1806 4000 
Q 1625 4000 1316 3941 
L 1316 2178 
z
" transform="scale(0.015625)"/>
      <path id="TimesNewRomanPSMT-6d" d="M 1050 2338 
Q 1363 2650 1419 2697 
Q 1559 2816 1721 2881 
Q 1884 2947 2044 2947 
Q 2313 2947 2506 2790 
Q 2700 2634 2766 2338 
Q 3088 2713 3309 2830 
Q 3531 2947 3766 2947 
Q 3994 2947 4170 2830 
Q 4347 2713 4450 2447 
Q 4519 2266 4519 1878 
L 4519 647 
Q 4519 378 4559 278 
Q 4591 209 4675 161 
Q 4759 113 4950 113 
L 4950 0 
L 3538 0 
L 3538 113 
L 3597 113 
Q 3781 113 3884 184 
Q 3956 234 3988 344 
Q 4000 397 4000 647 
L 4000 1878 
Q 4000 2228 3916 2372 
Q 3794 2572 3525 2572 
Q 3359 2572 3192 2489 
Q 3025 2406 2788 2181 
L 2781 2147 
L 2788 2013 
L 2788 647 
Q 2788 353 2820 281 
Q 2853 209 2943 161 
Q 3034 113 3253 113 
L 3253 0 
L 1806 0 
L 1806 113 
Q 2044 113 2133 169 
Q 2222 225 2256 338 
Q 2272 391 2272 647 
L 2272 1878 
Q 2272 2228 2169 2381 
Q 2031 2581 1784 2581 
Q 1616 2581 1450 2491 
Q 1191 2353 1050 2181 
L 1050 647 
Q 1050 366 1089 281 
Q 1128 197 1204 155 
Q 1281 113 1516 113 
L 1516 0 
L 100 0 
L 100 113 
Q 297 113 375 155 
Q 453 197 493 289 
Q 534 381 534 647 
L 534 1741 
Q 534 2213 506 2350 
Q 484 2453 437 2492 
Q 391 2531 309 2531 
Q 222 2531 100 2484 
L 53 2597 
L 916 2947 
L 1050 2947 
L 1050 2338 
z
" transform="scale(0.015625)"/>
      <path id="TimesNewRomanPSMT-64" d="M 2222 322 
Q 2013 103 1813 7 
Q 1613 -88 1381 -88 
Q 913 -88 563 304 
Q 213 697 213 1313 
Q 213 1928 600 2439 
Q 988 2950 1597 2950 
Q 1975 2950 2222 2709 
L 2222 3238 
Q 2222 3728 2198 3840 
Q 2175 3953 2125 3993 
Q 2075 4034 2000 4034 
Q 1919 4034 1784 3984 
L 1744 4094 
L 2597 4444 
L 2738 4444 
L 2738 1134 
Q 2738 631 2761 520 
Q 2784 409 2836 365 
Q 2888 322 2956 322 
Q 3041 322 3181 375 
L 3216 266 
L 2366 -88 
L 2222 -88 
L 2222 322 
z
M 2222 541 
L 2222 2016 
Q 2203 2228 2109 2403 
Q 2016 2578 1861 2667 
Q 1706 2756 1559 2756 
Q 1284 2756 1069 2509 
Q 784 2184 784 1559 
Q 784 928 1059 592 
Q 1334 256 1672 256 
Q 1956 256 2222 541 
z
" transform="scale(0.015625)"/>
      <path id="TimesNewRomanPSMT-6c" d="M 1184 4444 
L 1184 647 
Q 1184 378 1223 290 
Q 1263 203 1344 158 
Q 1425 113 1647 113 
L 1647 0 
L 244 0 
L 244 113 
Q 441 113 512 153 
Q 584 194 625 287 
Q 666 381 666 647 
L 666 3247 
Q 666 3731 644 3842 
Q 622 3953 573 3993 
Q 525 4034 450 4034 
Q 369 4034 244 3984 
L 191 4094 
L 1044 4444 
L 1184 4444 
z
" transform="scale(0.015625)"/>
      <path id="TimesNewRomanPSMT-28" d="M 1988 -1253 
L 1988 -1369 
Q 1516 -1131 1200 -813 
Q 750 -359 506 256 
Q 263 872 263 1534 
Q 263 2503 741 3301 
Q 1219 4100 1988 4444 
L 1988 4313 
Q 1603 4100 1356 3731 
Q 1109 3363 987 2797 
Q 866 2231 866 1616 
Q 866 947 969 400 
Q 1050 -31 1165 -292 
Q 1281 -553 1476 -793 
Q 1672 -1034 1988 -1253 
z
" transform="scale(0.015625)"/>
      <path id="TimesNewRomanPSMT-2b" d="M 1672 441 
L 1672 2000 
L 116 2000 
L 116 2256 
L 1672 2256 
L 1672 3809 
L 1922 3809 
L 1922 2256 
L 3484 2256 
L 3484 2000 
L 1922 2000 
L 1922 441 
L 1672 441 
z
" transform="scale(0.015625)"/>
      <path id="TimesNewRomanPSMT-2d" d="M 259 1672 
L 1875 1672 
L 1875 1200 
L 259 1200 
L 259 1672 
z
" transform="scale(0.015625)"/>
      <path id="TimesNewRomanPSMT-29" d="M 144 4313 
L 144 4444 
Q 619 4209 934 3891 
Q 1381 3434 1625 2820 
Q 1869 2206 1869 1541 
Q 1869 572 1392 -226 
Q 916 -1025 144 -1369 
L 144 -1253 
Q 528 -1038 776 -670 
Q 1025 -303 1145 264 
Q 1266 831 1266 1447 
Q 1266 2113 1163 2663 
Q 1084 3094 967 3353 
Q 850 3613 656 3853 
Q 463 4094 144 4313 
z
" transform="scale(0.015625)"/>
      <path id="TimesNewRomanPSMT-67" d="M 966 1044 
Q 703 1172 562 1401 
Q 422 1631 422 1909 
Q 422 2334 742 2640 
Q 1063 2947 1563 2947 
Q 1972 2947 2272 2747 
L 2878 2747 
Q 3013 2747 3034 2739 
Q 3056 2731 3066 2713 
Q 3084 2684 3084 2613 
Q 3084 2531 3069 2500 
Q 3059 2484 3036 2475 
Q 3013 2466 2878 2466 
L 2506 2466 
Q 2681 2241 2681 1891 
Q 2681 1491 2375 1206 
Q 2069 922 1553 922 
Q 1341 922 1119 984 
Q 981 866 932 777 
Q 884 688 884 625 
Q 884 572 936 522 
Q 988 472 1138 450 
Q 1225 438 1575 428 
Q 2219 413 2409 384 
Q 2700 344 2873 169 
Q 3047 -6 3047 -263 
Q 3047 -616 2716 -925 
Q 2228 -1381 1444 -1381 
Q 841 -1381 425 -1109 
Q 191 -953 191 -784 
Q 191 -709 225 -634 
Q 278 -519 444 -313 
Q 466 -284 763 25 
Q 600 122 533 198 
Q 466 275 466 372 
Q 466 481 555 628 
Q 644 775 966 1044 
z
M 1509 2797 
Q 1278 2797 1122 2612 
Q 966 2428 966 2047 
Q 966 1553 1178 1281 
Q 1341 1075 1591 1075 
Q 1828 1075 1981 1253 
Q 2134 1431 2134 1813 
Q 2134 2309 1919 2591 
Q 1759 2797 1509 2797 
z
M 934 0 
Q 788 -159 713 -296 
Q 638 -434 638 -550 
Q 638 -700 819 -813 
Q 1131 -1006 1722 -1006 
Q 2284 -1006 2551 -807 
Q 2819 -609 2819 -384 
Q 2819 -222 2659 -153 
Q 2497 -84 2016 -72 
Q 1313 -53 934 0 
z
" transform="scale(0.015625)"/>
      <path id="TimesNewRomanPSMT-6e" d="M 1034 2341 
Q 1538 2947 1994 2947 
Q 2228 2947 2397 2830 
Q 2566 2713 2666 2444 
Q 2734 2256 2734 1869 
L 2734 647 
Q 2734 375 2778 278 
Q 2813 200 2889 156 
Q 2966 113 3172 113 
L 3172 0 
L 1756 0 
L 1756 113 
L 1816 113 
Q 2016 113 2095 173 
Q 2175 234 2206 353 
Q 2219 400 2219 647 
L 2219 1819 
Q 2219 2209 2117 2386 
Q 2016 2563 1775 2563 
Q 1403 2563 1034 2156 
L 1034 647 
Q 1034 356 1069 288 
Q 1113 197 1189 155 
Q 1266 113 1500 113 
L 1500 0 
L 84 0 
L 84 113 
L 147 113 
Q 366 113 442 223 
Q 519 334 519 647 
L 519 1709 
Q 519 2225 495 2337 
Q 472 2450 423 2490 
Q 375 2531 294 2531 
Q 206 2531 84 2484 
L 38 2597 
L 900 2947 
L 1034 2947 
L 1034 2341 
z
" transform="scale(0.015625)"/>
      <path id="TimesNewRomanPSMT-76" d="M 53 2863 
L 1400 2863 
L 1400 2747 
L 1313 2747 
Q 1191 2747 1127 2687 
Q 1063 2628 1063 2528 
Q 1063 2419 1128 2269 
L 1794 688 
L 2463 2328 
Q 2534 2503 2534 2594 
Q 2534 2638 2509 2666 
Q 2475 2713 2422 2730 
Q 2369 2747 2206 2747 
L 2206 2863 
L 3141 2863 
L 3141 2747 
Q 2978 2734 2916 2681 
Q 2806 2588 2719 2369 
L 1703 -88 
L 1575 -88 
L 553 2328 
Q 484 2497 421 2570 
Q 359 2644 263 2694 
Q 209 2722 53 2747 
L 53 2863 
z
" transform="scale(0.015625)"/>
      <path id="TimesNewRomanPSMT-69" d="M 928 4444 
Q 1059 4444 1151 4351 
Q 1244 4259 1244 4128 
Q 1244 3997 1151 3903 
Q 1059 3809 928 3809 
Q 797 3809 703 3903 
Q 609 3997 609 4128 
Q 609 4259 701 4351 
Q 794 4444 928 4444 
z
M 1188 2947 
L 1188 647 
Q 1188 378 1227 289 
Q 1266 200 1342 156 
Q 1419 113 1622 113 
L 1622 0 
L 231 0 
L 231 113 
Q 441 113 512 153 
Q 584 194 626 287 
Q 669 381 669 647 
L 669 1750 
Q 669 2216 641 2353 
Q 619 2453 572 2492 
Q 525 2531 444 2531 
Q 356 2531 231 2484 
L 188 2597 
L 1050 2947 
L 1188 2947 
z
" transform="scale(0.015625)"/>
      <path id="TimesNewRomanPSMT-73" d="M 2050 2947 
L 2050 1972 
L 1947 1972 
Q 1828 2431 1642 2597 
Q 1456 2763 1169 2763 
Q 950 2763 815 2647 
Q 681 2531 681 2391 
Q 681 2216 781 2091 
Q 878 1963 1175 1819 
L 1631 1597 
Q 2266 1288 2266 781 
Q 2266 391 1970 151 
Q 1675 -88 1309 -88 
Q 1047 -88 709 6 
Q 606 38 541 38 
Q 469 38 428 -44 
L 325 -44 
L 325 978 
L 428 978 
Q 516 541 762 319 
Q 1009 97 1316 97 
Q 1531 97 1667 223 
Q 1803 350 1803 528 
Q 1803 744 1651 891 
Q 1500 1038 1047 1263 
Q 594 1488 453 1669 
Q 313 1847 313 2119 
Q 313 2472 555 2709 
Q 797 2947 1181 2947 
Q 1350 2947 1591 2875 
Q 1750 2828 1803 2828 
Q 1853 2828 1881 2850 
Q 1909 2872 1947 2947 
L 2050 2947 
z
" transform="scale(0.015625)"/>
     </defs>
     <use xlink:href="#TimesNewRomanPSMT-41"/>
     <use xlink:href="#TimesNewRomanPSMT-63" transform="translate(72.216797 0)"/>
     <use xlink:href="#TimesNewRomanPSMT-63" transform="translate(116.601562 0)"/>
     <use xlink:href="#TimesNewRomanPSMT-75" transform="translate(160.986328 0)"/>
     <use xlink:href="#TimesNewRomanPSMT-72" transform="translate(210.986328 0)"/>
     <use xlink:href="#TimesNewRomanPSMT-61" transform="translate(244.287109 0)"/>
     <use xlink:href="#TimesNewRomanPSMT-63" transform="translate(288.671875 0)"/>
     <use xlink:href="#TimesNewRomanPSMT-79" transform="translate(333.056641 0)"/>
     <use xlink:href="#TimesNewRomanPSMT-20" transform="translate(383.056641 0)"/>
     <use xlink:href="#TimesNewRomanPSMT-6f" transform="translate(408.056641 0)"/>
     <use xlink:href="#TimesNewRomanPSMT-66" transform="translate(458.056641 0)"/>
     <use xlink:href="#TimesNewRomanPSMT-20" transform="translate(491.357422 0)"/>
     <use xlink:href="#TimesNewRomanPSMT-74" transform="translate(516.357422 0)"/>
     <use xlink:href="#TimesNewRomanPSMT-68" transform="translate(544.140625 0)"/>
     <use xlink:href="#TimesNewRomanPSMT-65" transform="translate(594.140625 0)"/>
     <use xlink:href="#TimesNewRomanPSMT-20" transform="translate(638.525391 0)"/>
     <use xlink:href="#TimesNewRomanPSMT-31" transform="translate(663.525391 0)"/>
     <use xlink:href="#TimesNewRomanPSMT-38" transform="translate(713.525391 0)"/>
     <use xlink:href="#TimesNewRomanPSMT-5f" transform="translate(763.525391 0)"/>
     <use xlink:href="#TimesNewRomanPSMT-30" transform="translate(813.525391 0)"/>
     <use xlink:href="#TimesNewRomanPSMT-37" transform="translate(863.525391 0)"/>
     <use xlink:href="#TimesNewRomanPSMT-5f" transform="translate(913.525391 0)"/>
     <use xlink:href="#TimesNewRomanPSMT-32" transform="translate(963.525391 0)"/>
     <use xlink:href="#TimesNewRomanPSMT-35" transform="translate(1013.525391 0)"/>
     <use xlink:href="#TimesNewRomanPSMT-5f" transform="translate(1063.525391 0)"/>
     <use xlink:href="#TimesNewRomanPSMT-43" transform="translate(1113.525391 0)"/>
     <use xlink:href="#TimesNewRomanPSMT-49" transform="translate(1180.224609 0)"/>
     <use xlink:href="#TimesNewRomanPSMT-46" transform="translate(1213.525391 0)"/>
     <use xlink:href="#TimesNewRomanPSMT-41" transform="translate(1261.765625 0)"/>
     <use xlink:href="#TimesNewRomanPSMT-52" transform="translate(1333.982422 0)"/>
     <use xlink:href="#TimesNewRomanPSMT-31" transform="translate(1400.681641 0)"/>
     <use xlink:href="#TimesNewRomanPSMT-30" transform="translate(1450.681641 0)"/>
     <use xlink:href="#TimesNewRomanPSMT-5f" transform="translate(1500.681641 0)"/>
     <use xlink:href="#TimesNewRomanPSMT-74" transform="translate(1550.681641 0)"/>
     <use xlink:href="#TimesNewRomanPSMT-6f" transform="translate(1578.464844 0)"/>
     <use xlink:href="#TimesNewRomanPSMT-72" transform="translate(1628.464844 0)"/>
     <use xlink:href="#TimesNewRomanPSMT-63" transform="translate(1661.765625 0)"/>
     <use xlink:href="#TimesNewRomanPSMT-68" transform="translate(1706.150391 0)"/>
     <use xlink:href="#TimesNewRomanPSMT-5f" transform="translate(1756.150391 0)"/>
     <use xlink:href="#TimesNewRomanPSMT-6d" transform="translate(1806.150391 0)"/>
     <use xlink:href="#TimesNewRomanPSMT-6f" transform="translate(1883.933594 0)"/>
     <use xlink:href="#TimesNewRomanPSMT-64" transform="translate(1933.933594 0)"/>
     <use xlink:href="#TimesNewRomanPSMT-65" transform="translate(1983.933594 0)"/>
     <use xlink:href="#TimesNewRomanPSMT-6c" transform="translate(2028.318359 0)"/>
     <use xlink:href="#TimesNewRomanPSMT-5f" transform="translate(2056.101562 0)"/>
     <use xlink:href="#TimesNewRomanPSMT-28" transform="translate(2106.101562 0)"/>
     <use xlink:href="#TimesNewRomanPSMT-31" transform="translate(2139.402344 0)"/>
     <use xlink:href="#TimesNewRomanPSMT-30" transform="translate(2189.402344 0)"/>
     <use xlink:href="#TimesNewRomanPSMT-32" transform="translate(2239.402344 0)"/>
     <use xlink:href="#TimesNewRomanPSMT-34" transform="translate(2289.402344 0)"/>
     <use xlink:href="#TimesNewRomanPSMT-2b" transform="translate(2339.402344 0)"/>
     <use xlink:href="#TimesNewRomanPSMT-35" transform="translate(2395.798828 0)"/>
     <use xlink:href="#TimesNewRomanPSMT-31" transform="translate(2445.798828 0)"/>
     <use xlink:href="#TimesNewRomanPSMT-32" transform="translate(2495.798828 0)"/>
     <use xlink:href="#TimesNewRomanPSMT-2d" transform="translate(2545.798828 0)"/>
     <use xlink:href="#TimesNewRomanPSMT-35" transform="translate(2579.099609 0)"/>
     <use xlink:href="#TimesNewRomanPSMT-31" transform="translate(2629.099609 0)"/>
     <use xlink:href="#TimesNewRomanPSMT-32" transform="translate(2679.099609 0)"/>
     <use xlink:href="#TimesNewRomanPSMT-2e" transform="translate(2729.099609 0)"/>
     <use xlink:href="#TimesNewRomanPSMT-32" transform="translate(2754.099609 0)"/>
     <use xlink:href="#TimesNewRomanPSMT-2d" transform="translate(2804.099609 0)"/>
     <use xlink:href="#TimesNewRomanPSMT-31" transform="translate(2837.400391 0)"/>
     <use xlink:href="#TimesNewRomanPSMT-29" transform="translate(2887.400391 0)"/>
     <use xlink:href="#TimesNewRomanPSMT-5f" transform="translate(2920.701172 0)"/>
     <use xlink:href="#TimesNewRomanPSMT-63" transform="translate(2970.701172 0)"/>
     <use xlink:href="#TimesNewRomanPSMT-61" transform="translate(3015.085938 0)"/>
     <use xlink:href="#TimesNewRomanPSMT-74" transform="translate(3059.470703 0)"/>
     <use xlink:href="#TimesNewRomanPSMT-2d" transform="translate(3087.253906 0)"/>
     <use xlink:href="#TimesNewRomanPSMT-64" transform="translate(3120.554688 0)"/>
     <use xlink:href="#TimesNewRomanPSMT-6f" transform="translate(3170.554688 0)"/>
     <use xlink:href="#TimesNewRomanPSMT-67" transform="translate(3220.554688 0)"/>
     <use xlink:href="#TimesNewRomanPSMT-20" transform="translate(3270.554688 0)"/>
     <use xlink:href="#TimesNewRomanPSMT-6f" transform="translate(3295.554688 0)"/>
     <use xlink:href="#TimesNewRomanPSMT-6e" transform="translate(3345.554688 0)"/>
     <use xlink:href="#TimesNewRomanPSMT-20" transform="translate(3395.554688 0)"/>
     <use xlink:href="#TimesNewRomanPSMT-74" transform="translate(3420.554688 0)"/>
     <use xlink:href="#TimesNewRomanPSMT-68" transform="translate(3448.337891 0)"/>
     <use xlink:href="#TimesNewRomanPSMT-65" transform="translate(3498.337891 0)"/>
     <use xlink:href="#TimesNewRomanPSMT-20" transform="translate(3542.722656 0)"/>
     <use xlink:href="#TimesNewRomanPSMT-76" transform="translate(3567.722656 0)"/>
     <use xlink:href="#TimesNewRomanPSMT-61" transform="translate(3617.722656 0)"/>
     <use xlink:href="#TimesNewRomanPSMT-6c" transform="translate(3662.107422 0)"/>
     <use xlink:href="#TimesNewRomanPSMT-69" transform="translate(3689.890625 0)"/>
     <use xlink:href="#TimesNewRomanPSMT-64" transform="translate(3717.673828 0)"/>
     <use xlink:href="#TimesNewRomanPSMT-61" transform="translate(3767.673828 0)"/>
     <use xlink:href="#TimesNewRomanPSMT-74" transform="translate(3812.058594 0)"/>
     <use xlink:href="#TimesNewRomanPSMT-69" transform="translate(3839.841797 0)"/>
     <use xlink:href="#TimesNewRomanPSMT-6f" transform="translate(3867.625 0)"/>
     <use xlink:href="#TimesNewRomanPSMT-6e" transform="translate(3917.625 0)"/>
     <use xlink:href="#TimesNewRomanPSMT-20" transform="translate(3967.625 0)"/>
     <use xlink:href="#TimesNewRomanPSMT-73" transform="translate(3992.625 0)"/>
     <use xlink:href="#TimesNewRomanPSMT-65" transform="translate(4031.541016 0)"/>
     <use xlink:href="#TimesNewRomanPSMT-74" transform="translate(4075.925781 0)"/>
    </g>
   </g>
   <g id="legend_1">
    <g id="patch_7">
     <path d="M 474.882625 94.278687 
L 712.052937 94.278687 
Q 716.452937 94.278687 716.452937 89.878687 
L 716.452937 60.9315 
Q 716.452937 56.5315 712.052937 56.5315 
L 474.882625 56.5315 
Q 470.482625 56.5315 470.482625 60.9315 
L 470.482625 89.878687 
Q 470.482625 94.278687 474.882625 94.278687 
z
" style="fill: #ffffff; opacity: 0.8; stroke: #cccccc; stroke-linejoin: miter"/>
    </g>
    <g id="line2d_32">
     <path d="M 479.282625 73.0315 
L 501.282625 73.0315 
L 523.282625 73.0315 
" style="fill: none; stroke: #1f77b4; stroke-width: 1.5; stroke-linecap: square"/>
    </g>
    <g id="text_19">
     <!-- Best accuracy 0.64 -->
     <g transform="translate(540.882625 80.7315) scale(0.22 -0.22)">
      <defs>
       <path id="TimesNewRomanPSMT-42" d="M 2956 2163 
Q 3397 2069 3616 1863 
Q 3919 1575 3919 1159 
Q 3919 844 3719 555 
Q 3519 266 3170 133 
Q 2822 0 2106 0 
L 106 0 
L 106 116 
L 266 116 
Q 531 116 647 284 
Q 719 394 719 750 
L 719 3488 
Q 719 3881 628 3984 
Q 506 4122 266 4122 
L 106 4122 
L 106 4238 
L 1938 4238 
Q 2450 4238 2759 4163 
Q 3228 4050 3475 3764 
Q 3722 3478 3722 3106 
Q 3722 2788 3528 2536 
Q 3334 2284 2956 2163 
z
M 1319 2331 
Q 1434 2309 1582 2298 
Q 1731 2288 1909 2288 
Q 2366 2288 2595 2386 
Q 2825 2484 2947 2687 
Q 3069 2891 3069 3131 
Q 3069 3503 2766 3765 
Q 2463 4028 1881 4028 
Q 1569 4028 1319 3959 
L 1319 2331 
z
M 1319 306 
Q 1681 222 2034 222 
Q 2600 222 2897 476 
Q 3194 731 3194 1106 
Q 3194 1353 3059 1581 
Q 2925 1809 2622 1940 
Q 2319 2072 1872 2072 
Q 1678 2072 1540 2065 
Q 1403 2059 1319 2044 
L 1319 306 
z
" transform="scale(0.015625)"/>
      </defs>
      <use xlink:href="#TimesNewRomanPSMT-42"/>
      <use xlink:href="#TimesNewRomanPSMT-65" transform="translate(66.699219 0)"/>
      <use xlink:href="#TimesNewRomanPSMT-73" transform="translate(111.083984 0)"/>
      <use xlink:href="#TimesNewRomanPSMT-74" transform="translate(150 0)"/>
      <use xlink:href="#TimesNewRomanPSMT-20" transform="translate(177.783203 0)"/>
      <use xlink:href="#TimesNewRomanPSMT-61" transform="translate(202.783203 0)"/>
      <use xlink:href="#TimesNewRomanPSMT-63" transform="translate(247.167969 0)"/>
      <use xlink:href="#TimesNewRomanPSMT-63" transform="translate(291.552734 0)"/>
      <use xlink:href="#TimesNewRomanPSMT-75" transform="translate(335.9375 0)"/>
      <use xlink:href="#TimesNewRomanPSMT-72" transform="translate(385.9375 0)"/>
      <use xlink:href="#TimesNewRomanPSMT-61" transform="translate(419.238281 0)"/>
      <use xlink:href="#TimesNewRomanPSMT-63" transform="translate(463.623047 0)"/>
      <use xlink:href="#TimesNewRomanPSMT-79" transform="translate(508.007812 0)"/>
      <use xlink:href="#TimesNewRomanPSMT-20" transform="translate(558.007812 0)"/>
      <use xlink:href="#TimesNewRomanPSMT-30" transform="translate(583.007812 0)"/>
      <use xlink:href="#TimesNewRomanPSMT-2e" transform="translate(633.007812 0)"/>
      <use xlink:href="#TimesNewRomanPSMT-36" transform="translate(658.007812 0)"/>
      <use xlink:href="#TimesNewRomanPSMT-34" transform="translate(708.007812 0)"/>
     </g>
    </g>
   </g>
  </g>
 </g>
 <defs>
  <clipPath id="p467dcc9f3f">
   <rect x="370.332938" y="45.5315" width="357.12" height="266.112"/>
  </clipPath>
 </defs>
</svg>
