<?xml version="1.0" encoding="utf-8" standalone="no"?>
<!DOCTYPE svg PUBLIC "-//W3C//DTD SVG 1.1//EN"
  "http://www.w3.org/Graphics/SVG/1.1/DTD/svg11.dtd">
<svg xmlns:xlink="http://www.w3.org/1999/xlink" width="1083.249375pt" height="383.265687pt" viewBox="0 0 1083.249375 383.265687" xmlns="http://www.w3.org/2000/svg" version="1.1">
 <metadata>
  <rdf:RDF xmlns:dc="http://purl.org/dc/elements/1.1/" xmlns:cc="http://creativecommons.org/ns#" xmlns:rdf="http://www.w3.org/1999/02/22-rdf-syntax-ns#">
   <cc:Work>
    <dc:type rdf:resource="http://purl.org/dc/dcmitype/StillImage"/>
    <dc:date>2025-07-13T22:04:03.715402</dc:date>
    <dc:format>image/svg+xml</dc:format>
    <dc:creator>
     <cc:Agent>
      <dc:title>Matplotlib v3.10.3, https://matplotlib.org/</dc:title>
     </cc:Agent>
    </dc:creator>
   </cc:Work>
  </rdf:RDF>
 </metadata>
 <defs>
  <style type="text/css">*{stroke-linejoin: round; stroke-linecap: butt}</style>
 </defs>
 <g id="figure_1">
  <g id="patch_1">
   <path d="M -0 383.265687 
L 1083.249375 383.265687 
L 1083.249375 0 
L -0 0 
z
" style="fill: #ffffff"/>
  </g>
  <g id="axes_1">
   <g id="patch_2">
    <path d="M 363.064687 311.6435 
L 720.184688 311.6435 
L 720.184688 45.5315 
L 363.064687 45.5315 
z
" style="fill: #ffffff"/>
   </g>
   <g id="matplotlib.axis_1">
    <g id="xtick_1">
     <g id="line2d_1">
      <path d="M 363.064687 311.6435 
L 363.064687 45.5315 
" clip-path="url(#pc0432d6cd9)" style="fill: none; stroke: #b0b0b0; stroke-opacity: 0.3; stroke-width: 0.8; stroke-linecap: square"/>
     </g>
     <g id="line2d_2">
      <defs>
       <path id="m12fe99933f" d="M 0 0 
L 0 3.5 
" style="stroke: #000000; stroke-width: 0.8"/>
      </defs>
      <g>
       <use xlink:href="#m12fe99933f" x="363.064687" y="311.6435" style="stroke: #000000; stroke-width: 0.8"/>
      </g>
     </g>
     <g id="text_1">
      <!-- 0.0 -->
      <g transform="translate(349.314687 333.91975) scale(0.22 -0.22)">
       <defs>
        <path id="TimesNewRomanPSMT-30" d="M 231 2094 
Q 231 2819 450 3342 
Q 669 3866 1031 4122 
Q 1313 4325 1613 4325 
Q 2100 4325 2488 3828 
Q 2972 3213 2972 2159 
Q 2972 1422 2759 906 
Q 2547 391 2217 158 
Q 1888 -75 1581 -75 
Q 975 -75 572 641 
Q 231 1244 231 2094 
z
M 844 2016 
Q 844 1141 1059 588 
Q 1238 122 1591 122 
Q 1759 122 1940 273 
Q 2122 425 2216 781 
Q 2359 1319 2359 2297 
Q 2359 3022 2209 3506 
Q 2097 3866 1919 4016 
Q 1791 4119 1609 4119 
Q 1397 4119 1231 3928 
Q 1006 3669 925 3112 
Q 844 2556 844 2016 
z
" transform="scale(0.015625)"/>
        <path id="TimesNewRomanPSMT-2e" d="M 800 606 
Q 947 606 1047 504 
Q 1147 403 1147 259 
Q 1147 116 1045 14 
Q 944 -88 800 -88 
Q 656 -88 554 14 
Q 453 116 453 259 
Q 453 406 554 506 
Q 656 606 800 606 
z
" transform="scale(0.015625)"/>
       </defs>
       <use xlink:href="#TimesNewRomanPSMT-30"/>
       <use xlink:href="#TimesNewRomanPSMT-2e" transform="translate(50 0)"/>
       <use xlink:href="#TimesNewRomanPSMT-30" transform="translate(75 0)"/>
      </g>
     </g>
    </g>
    <g id="xtick_2">
     <g id="line2d_3">
      <path d="M 489.382359 311.6435 
L 489.382359 45.5315 
" clip-path="url(#pc0432d6cd9)" style="fill: none; stroke: #b0b0b0; stroke-opacity: 0.3; stroke-width: 0.8; stroke-linecap: square"/>
     </g>
     <g id="line2d_4">
      <g>
       <use xlink:href="#m12fe99933f" x="489.382359" y="311.6435" style="stroke: #000000; stroke-width: 0.8"/>
      </g>
     </g>
     <g id="text_2">
      <!-- 0.5 -->
      <g transform="translate(475.632359 333.91975) scale(0.22 -0.22)">
       <defs>
        <path id="TimesNewRomanPSMT-35" d="M 2778 4238 
L 2534 3706 
L 1259 3706 
L 981 3138 
Q 1809 3016 2294 2522 
Q 2709 2097 2709 1522 
Q 2709 1188 2573 903 
Q 2438 619 2231 419 
Q 2025 219 1772 97 
Q 1413 -75 1034 -75 
Q 653 -75 479 54 
Q 306 184 306 341 
Q 306 428 378 495 
Q 450 563 559 563 
Q 641 563 702 538 
Q 763 513 909 409 
Q 1144 247 1384 247 
Q 1750 247 2026 523 
Q 2303 800 2303 1197 
Q 2303 1581 2056 1914 
Q 1809 2247 1375 2428 
Q 1034 2569 447 2591 
L 1259 4238 
L 2778 4238 
z
" transform="scale(0.015625)"/>
       </defs>
       <use xlink:href="#TimesNewRomanPSMT-30"/>
       <use xlink:href="#TimesNewRomanPSMT-2e" transform="translate(50 0)"/>
       <use xlink:href="#TimesNewRomanPSMT-35" transform="translate(75 0)"/>
      </g>
     </g>
    </g>
    <g id="xtick_3">
     <g id="line2d_5">
      <path d="M 615.70003 311.6435 
L 615.70003 45.5315 
" clip-path="url(#pc0432d6cd9)" style="fill: none; stroke: #b0b0b0; stroke-opacity: 0.3; stroke-width: 0.8; stroke-linecap: square"/>
     </g>
     <g id="line2d_6">
      <g>
       <use xlink:href="#m12fe99933f" x="615.70003" y="311.6435" style="stroke: #000000; stroke-width: 0.8"/>
      </g>
     </g>
     <g id="text_3">
      <!-- 1.0 -->
      <g transform="translate(601.95003 333.91975) scale(0.22 -0.22)">
       <defs>
        <path id="TimesNewRomanPSMT-31" d="M 750 3822 
L 1781 4325 
L 1884 4325 
L 1884 747 
Q 1884 391 1914 303 
Q 1944 216 2037 169 
Q 2131 122 2419 116 
L 2419 0 
L 825 0 
L 825 116 
Q 1125 122 1212 167 
Q 1300 213 1334 289 
Q 1369 366 1369 747 
L 1369 3034 
Q 1369 3497 1338 3628 
Q 1316 3728 1258 3775 
Q 1200 3822 1119 3822 
Q 1003 3822 797 3725 
L 750 3822 
z
" transform="scale(0.015625)"/>
       </defs>
       <use xlink:href="#TimesNewRomanPSMT-31"/>
       <use xlink:href="#TimesNewRomanPSMT-2e" transform="translate(50 0)"/>
       <use xlink:href="#TimesNewRomanPSMT-30" transform="translate(75 0)"/>
      </g>
     </g>
    </g>
    <g id="text_4">
     <!-- $\kappa  = \frac{ln(n)}{ln(d)}$ -->
     <g transform="translate(509.614688 364.185687) scale(0.22 -0.22)">
      <defs>
       <path id="STIXGeneral-Italic-3ba" d="M 979 1440 
L 998 1446 
Q 1850 2541 2464 2790 
Q 2547 2822 2630 2822 
Q 2797 2822 2886 2736 
Q 2976 2650 2976 2522 
Q 2976 2387 2893 2307 
Q 2810 2227 2682 2227 
Q 2605 2227 2502 2288 
Q 2400 2349 2336 2349 
Q 2170 2349 1990 2205 
Q 1811 2061 1414 1645 
L 2042 544 
Q 2202 262 2310 182 
Q 2419 102 2624 102 
L 2624 0 
Q 2374 -83 2182 -83 
Q 1786 -83 1555 326 
L 960 1350 
L 576 0 
L 90 0 
L 640 1978 
Q 730 2317 730 2406 
Q 730 2560 518 2560 
L 339 2560 
L 339 2650 
Q 678 2694 1306 2822 
L 1325 2803 
L 979 1440 
z
" transform="scale(0.015625)"/>
       <path id="STIXGeneral-Regular-3d" d="M 4077 2048 
L 307 2048 
L 307 2470 
L 4077 2470 
L 4077 2048 
z
M 4077 768 
L 307 768 
L 307 1190 
L 4077 1190 
L 4077 768 
z
" transform="scale(0.015625)"/>
       <path id="STIXGeneral-Italic-6c" d="M 1786 4339 
L 806 595 
Q 755 410 755 320 
Q 755 205 864 205 
Q 1037 205 1293 570 
L 1453 794 
L 1542 730 
Q 1254 275 1046 102 
Q 838 -70 576 -70 
Q 262 -70 262 288 
Q 262 397 288 480 
L 1165 3834 
Q 1184 3898 1184 3955 
Q 1184 4096 870 4096 
L 755 4096 
L 755 4198 
Q 1203 4250 1747 4371 
L 1786 4339 
z
" transform="scale(0.015625)"/>
       <path id="STIXGeneral-Italic-6e" d="M 2944 749 
L 3034 666 
Q 2707 218 2534 80 
Q 2362 -58 2138 -58 
Q 2010 -58 1923 28 
Q 1837 115 1837 288 
Q 1837 390 1939 768 
L 2221 1805 
Q 2310 2150 2310 2310 
Q 2310 2496 2157 2496 
Q 1971 2496 1750 2275 
Q 1530 2054 1210 1587 
Q 998 1274 899 1024 
Q 800 774 570 0 
L 90 0 
L 704 2240 
Q 717 2304 717 2349 
Q 717 2445 630 2480 
Q 544 2515 301 2522 
L 301 2624 
Q 550 2675 857 2729 
Q 1165 2784 1338 2822 
L 1363 2810 
L 934 1414 
Q 1408 2170 1753 2496 
Q 2099 2822 2413 2822 
Q 2611 2822 2720 2716 
Q 2829 2611 2829 2432 
Q 2829 2272 2765 2048 
L 2406 749 
Q 2317 429 2317 358 
Q 2317 243 2419 243 
Q 2541 243 2810 582 
Q 2854 634 2944 749 
z
" transform="scale(0.015625)"/>
       <path id="STIXGeneral-Regular-28" d="M 1946 -1030 
L 1869 -1133 
Q 1126 -710 716 32 
Q 307 774 307 1613 
Q 307 3386 1888 4326 
L 1946 4224 
Q 1293 3667 1075 3126 
Q 858 2586 858 1632 
Q 858 685 1082 96 
Q 1306 -493 1946 -1030 
z
" transform="scale(0.015625)"/>
       <path id="STIXGeneral-Regular-29" d="M 186 4224 
L 262 4326 
Q 992 3891 1408 3148 
Q 1824 2406 1824 1581 
Q 1824 -166 243 -1133 
L 186 -1030 
Q 845 -486 1059 54 
Q 1274 595 1274 1562 
Q 1274 2534 1059 3120 
Q 845 3706 186 4224 
z
" transform="scale(0.015625)"/>
       <path id="STIXGeneral-Italic-64" d="M 3334 4371 
L 3373 4333 
L 3123 3360 
L 2739 1958 
Q 2323 429 2323 384 
Q 2323 256 2438 256 
Q 2522 256 2614 336 
Q 2707 416 2963 710 
L 3040 646 
Q 2547 -83 2099 -83 
Q 1978 -83 1907 -6 
Q 1837 70 1837 205 
Q 1837 397 1920 774 
Q 1645 307 1379 118 
Q 1114 -70 781 -70 
Q 461 -70 278 125 
Q 96 320 96 678 
Q 96 1440 713 2131 
Q 1331 2822 1965 2822 
Q 2163 2822 2256 2732 
Q 2349 2643 2381 2451 
L 2387 2451 
L 2675 3494 
Q 2765 3808 2765 3949 
Q 2765 4051 2694 4076 
Q 2624 4102 2355 4115 
L 2355 4224 
Q 2848 4269 3334 4371 
z
M 2278 2310 
Q 2278 2477 2185 2576 
Q 2093 2675 1978 2675 
Q 1677 2675 1395 2381 
Q 1075 2042 864 1571 
Q 653 1101 653 704 
Q 653 486 752 361 
Q 851 237 1024 237 
Q 1312 237 1606 550 
Q 1901 864 2089 1350 
Q 2278 1837 2278 2310 
z
" transform="scale(0.015625)"/>
      </defs>
      <use xlink:href="#STIXGeneral-Italic-3ba" transform="translate(0 0.003125)"/>
      <use xlink:href="#STIXGeneral-Regular-3d" transform="translate(58.83999 0.003125)"/>
      <use xlink:href="#STIXGeneral-Italic-6c" transform="translate(141.779971 50.192188) scale(0.7)"/>
      <use xlink:href="#STIXGeneral-Italic-6e" transform="translate(161.239963 50.192188) scale(0.7)"/>
      <use xlink:href="#STIXGeneral-Regular-28" transform="translate(196.239952 50.192188) scale(0.7)"/>
      <use xlink:href="#STIXGeneral-Italic-6e" transform="translate(219.549944 50.192188) scale(0.7)"/>
      <use xlink:href="#STIXGeneral-Regular-29" transform="translate(254.549933 50.192188) scale(0.7)"/>
      <use xlink:href="#STIXGeneral-Italic-6c" transform="translate(141.779971 -41.257812) scale(0.7)"/>
      <use xlink:href="#STIXGeneral-Italic-6e" transform="translate(161.239963 -41.257812) scale(0.7)"/>
      <use xlink:href="#STIXGeneral-Regular-28" transform="translate(196.239952 -41.257812) scale(0.7)"/>
      <use xlink:href="#STIXGeneral-Italic-64" transform="translate(219.549944 -41.257812) scale(0.7)"/>
      <use xlink:href="#STIXGeneral-Regular-29" transform="translate(254.549933 -41.257812) scale(0.7)"/>
      <path d="M 141.779971 12.8 
L 141.779971 19.05 
L 277.859924 19.05 
L 277.859924 12.8 
L 141.779971 12.8 
z
"/>
     </g>
    </g>
   </g>
   <g id="matplotlib.axis_2">
    <g id="ytick_1">
     <g id="line2d_7">
      <path d="M 363.064687 311.6435 
L 720.184688 311.6435 
" clip-path="url(#pc0432d6cd9)" style="fill: none; stroke: #b0b0b0; stroke-opacity: 0.3; stroke-width: 0.8; stroke-linecap: square"/>
     </g>
     <g id="line2d_8">
      <defs>
       <path id="meec2ca94c2" d="M 0 0 
L -3.5 0 
" style="stroke: #000000; stroke-width: 0.8"/>
      </defs>
      <g>
       <use xlink:href="#meec2ca94c2" x="363.064687" y="311.6435" style="stroke: #000000; stroke-width: 0.8"/>
      </g>
     </g>
     <g id="text_5">
      <!-- 0.0 -->
      <g transform="translate(328.564687 319.281625) scale(0.22 -0.22)">
       <use xlink:href="#TimesNewRomanPSMT-30"/>
       <use xlink:href="#TimesNewRomanPSMT-2e" transform="translate(50 0)"/>
       <use xlink:href="#TimesNewRomanPSMT-30" transform="translate(75 0)"/>
      </g>
     </g>
    </g>
    <g id="ytick_2">
     <g id="line2d_9">
      <path d="M 363.064687 285.0323 
L 720.184688 285.0323 
" clip-path="url(#pc0432d6cd9)" style="fill: none; stroke: #b0b0b0; stroke-opacity: 0.3; stroke-width: 0.8; stroke-linecap: square"/>
     </g>
     <g id="line2d_10">
      <g>
       <use xlink:href="#meec2ca94c2" x="363.064687" y="285.0323" style="stroke: #000000; stroke-width: 0.8"/>
      </g>
     </g>
     <g id="text_6">
      <!-- 0.1 -->
      <g transform="translate(328.564687 292.670425) scale(0.22 -0.22)">
       <use xlink:href="#TimesNewRomanPSMT-30"/>
       <use xlink:href="#TimesNewRomanPSMT-2e" transform="translate(50 0)"/>
       <use xlink:href="#TimesNewRomanPSMT-31" transform="translate(75 0)"/>
      </g>
     </g>
    </g>
    <g id="ytick_3">
     <g id="line2d_11">
      <path d="M 363.064687 258.4211 
L 720.184688 258.4211 
" clip-path="url(#pc0432d6cd9)" style="fill: none; stroke: #b0b0b0; stroke-opacity: 0.3; stroke-width: 0.8; stroke-linecap: square"/>
     </g>
     <g id="line2d_12">
      <g>
       <use xlink:href="#meec2ca94c2" x="363.064687" y="258.4211" style="stroke: #000000; stroke-width: 0.8"/>
      </g>
     </g>
     <g id="text_7">
      <!-- 0.2 -->
      <g transform="translate(328.564687 266.059225) scale(0.22 -0.22)">
       <defs>
        <path id="TimesNewRomanPSMT-32" d="M 2934 816 
L 2638 0 
L 138 0 
L 138 116 
Q 1241 1122 1691 1759 
Q 2141 2397 2141 2925 
Q 2141 3328 1894 3587 
Q 1647 3847 1303 3847 
Q 991 3847 742 3664 
Q 494 3481 375 3128 
L 259 3128 
Q 338 3706 661 4015 
Q 984 4325 1469 4325 
Q 1984 4325 2329 3994 
Q 2675 3663 2675 3213 
Q 2675 2891 2525 2569 
Q 2294 2063 1775 1497 
Q 997 647 803 472 
L 1909 472 
Q 2247 472 2383 497 
Q 2519 522 2628 598 
Q 2738 675 2819 816 
L 2934 816 
z
" transform="scale(0.015625)"/>
       </defs>
       <use xlink:href="#TimesNewRomanPSMT-30"/>
       <use xlink:href="#TimesNewRomanPSMT-2e" transform="translate(50 0)"/>
       <use xlink:href="#TimesNewRomanPSMT-32" transform="translate(75 0)"/>
      </g>
     </g>
    </g>
    <g id="ytick_4">
     <g id="line2d_13">
      <path d="M 363.064687 231.8099 
L 720.184688 231.8099 
" clip-path="url(#pc0432d6cd9)" style="fill: none; stroke: #b0b0b0; stroke-opacity: 0.3; stroke-width: 0.8; stroke-linecap: square"/>
     </g>
     <g id="line2d_14">
      <g>
       <use xlink:href="#meec2ca94c2" x="363.064687" y="231.8099" style="stroke: #000000; stroke-width: 0.8"/>
      </g>
     </g>
     <g id="text_8">
      <!-- 0.3 -->
      <g transform="translate(328.564687 239.448025) scale(0.22 -0.22)">
       <defs>
        <path id="TimesNewRomanPSMT-33" d="M 325 3431 
Q 506 3859 782 4092 
Q 1059 4325 1472 4325 
Q 1981 4325 2253 3994 
Q 2459 3747 2459 3466 
Q 2459 3003 1878 2509 
Q 2269 2356 2469 2072 
Q 2669 1788 2669 1403 
Q 2669 853 2319 450 
Q 1863 -75 997 -75 
Q 569 -75 414 31 
Q 259 138 259 259 
Q 259 350 332 419 
Q 406 488 509 488 
Q 588 488 669 463 
Q 722 447 909 348 
Q 1097 250 1169 231 
Q 1284 197 1416 197 
Q 1734 197 1970 444 
Q 2206 691 2206 1028 
Q 2206 1275 2097 1509 
Q 2016 1684 1919 1775 
Q 1784 1900 1550 2001 
Q 1316 2103 1072 2103 
L 972 2103 
L 972 2197 
Q 1219 2228 1467 2375 
Q 1716 2522 1828 2728 
Q 1941 2934 1941 3181 
Q 1941 3503 1739 3701 
Q 1538 3900 1238 3900 
Q 753 3900 428 3381 
L 325 3431 
z
" transform="scale(0.015625)"/>
       </defs>
       <use xlink:href="#TimesNewRomanPSMT-30"/>
       <use xlink:href="#TimesNewRomanPSMT-2e" transform="translate(50 0)"/>
       <use xlink:href="#TimesNewRomanPSMT-33" transform="translate(75 0)"/>
      </g>
     </g>
    </g>
    <g id="ytick_5">
     <g id="line2d_15">
      <path d="M 363.064687 205.1987 
L 720.184688 205.1987 
" clip-path="url(#pc0432d6cd9)" style="fill: none; stroke: #b0b0b0; stroke-opacity: 0.3; stroke-width: 0.8; stroke-linecap: square"/>
     </g>
     <g id="line2d_16">
      <g>
       <use xlink:href="#meec2ca94c2" x="363.064687" y="205.1987" style="stroke: #000000; stroke-width: 0.8"/>
      </g>
     </g>
     <g id="text_9">
      <!-- 0.4 -->
      <g transform="translate(328.564687 212.836825) scale(0.22 -0.22)">
       <defs>
        <path id="TimesNewRomanPSMT-34" d="M 2978 1563 
L 2978 1119 
L 2409 1119 
L 2409 0 
L 1894 0 
L 1894 1119 
L 100 1119 
L 100 1519 
L 2066 4325 
L 2409 4325 
L 2409 1563 
L 2978 1563 
z
M 1894 1563 
L 1894 3666 
L 406 1563 
L 1894 1563 
z
" transform="scale(0.015625)"/>
       </defs>
       <use xlink:href="#TimesNewRomanPSMT-30"/>
       <use xlink:href="#TimesNewRomanPSMT-2e" transform="translate(50 0)"/>
       <use xlink:href="#TimesNewRomanPSMT-34" transform="translate(75 0)"/>
      </g>
     </g>
    </g>
    <g id="ytick_6">
     <g id="line2d_17">
      <path d="M 363.064687 178.5875 
L 720.184688 178.5875 
" clip-path="url(#pc0432d6cd9)" style="fill: none; stroke: #b0b0b0; stroke-opacity: 0.3; stroke-width: 0.8; stroke-linecap: square"/>
     </g>
     <g id="line2d_18">
      <g>
       <use xlink:href="#meec2ca94c2" x="363.064687" y="178.5875" style="stroke: #000000; stroke-width: 0.8"/>
      </g>
     </g>
     <g id="text_10">
      <!-- 0.5 -->
      <g transform="translate(328.564687 186.225625) scale(0.22 -0.22)">
       <use xlink:href="#TimesNewRomanPSMT-30"/>
       <use xlink:href="#TimesNewRomanPSMT-2e" transform="translate(50 0)"/>
       <use xlink:href="#TimesNewRomanPSMT-35" transform="translate(75 0)"/>
      </g>
     </g>
    </g>
    <g id="ytick_7">
     <g id="line2d_19">
      <path d="M 363.064687 151.9763 
L 720.184688 151.9763 
" clip-path="url(#pc0432d6cd9)" style="fill: none; stroke: #b0b0b0; stroke-opacity: 0.3; stroke-width: 0.8; stroke-linecap: square"/>
     </g>
     <g id="line2d_20">
      <g>
       <use xlink:href="#meec2ca94c2" x="363.064687" y="151.9763" style="stroke: #000000; stroke-width: 0.8"/>
      </g>
     </g>
     <g id="text_11">
      <!-- 0.6 -->
      <g transform="translate(328.564687 159.614425) scale(0.22 -0.22)">
       <defs>
        <path id="TimesNewRomanPSMT-36" d="M 2869 4325 
L 2869 4209 
Q 2456 4169 2195 4045 
Q 1934 3922 1679 3669 
Q 1425 3416 1258 3105 
Q 1091 2794 978 2366 
Q 1428 2675 1881 2675 
Q 2316 2675 2634 2325 
Q 2953 1975 2953 1425 
Q 2953 894 2631 456 
Q 2244 -75 1606 -75 
Q 1172 -75 869 213 
Q 275 772 275 1663 
Q 275 2231 503 2743 
Q 731 3256 1154 3653 
Q 1578 4050 1965 4187 
Q 2353 4325 2688 4325 
L 2869 4325 
z
M 925 2138 
Q 869 1716 869 1456 
Q 869 1156 980 804 
Q 1091 453 1309 247 
Q 1469 100 1697 100 
Q 1969 100 2183 356 
Q 2397 613 2397 1088 
Q 2397 1622 2184 2012 
Q 1972 2403 1581 2403 
Q 1463 2403 1327 2353 
Q 1191 2303 925 2138 
z
" transform="scale(0.015625)"/>
       </defs>
       <use xlink:href="#TimesNewRomanPSMT-30"/>
       <use xlink:href="#TimesNewRomanPSMT-2e" transform="translate(50 0)"/>
       <use xlink:href="#TimesNewRomanPSMT-36" transform="translate(75 0)"/>
      </g>
     </g>
    </g>
    <g id="ytick_8">
     <g id="line2d_21">
      <path d="M 363.064687 125.3651 
L 720.184688 125.3651 
" clip-path="url(#pc0432d6cd9)" style="fill: none; stroke: #b0b0b0; stroke-opacity: 0.3; stroke-width: 0.8; stroke-linecap: square"/>
     </g>
     <g id="line2d_22">
      <g>
       <use xlink:href="#meec2ca94c2" x="363.064687" y="125.3651" style="stroke: #000000; stroke-width: 0.8"/>
      </g>
     </g>
     <g id="text_12">
      <!-- 0.7 -->
      <g transform="translate(328.564687 133.003225) scale(0.22 -0.22)">
       <defs>
        <path id="TimesNewRomanPSMT-37" d="M 644 4238 
L 2916 4238 
L 2916 4119 
L 1503 -88 
L 1153 -88 
L 2419 3728 
L 1253 3728 
Q 900 3728 750 3644 
Q 488 3500 328 3200 
L 238 3234 
L 644 4238 
z
" transform="scale(0.015625)"/>
       </defs>
       <use xlink:href="#TimesNewRomanPSMT-30"/>
       <use xlink:href="#TimesNewRomanPSMT-2e" transform="translate(50 0)"/>
       <use xlink:href="#TimesNewRomanPSMT-37" transform="translate(75 0)"/>
      </g>
     </g>
    </g>
    <g id="ytick_9">
     <g id="line2d_23">
      <path d="M 363.064687 98.7539 
L 720.184688 98.7539 
" clip-path="url(#pc0432d6cd9)" style="fill: none; stroke: #b0b0b0; stroke-opacity: 0.3; stroke-width: 0.8; stroke-linecap: square"/>
     </g>
     <g id="line2d_24">
      <g>
       <use xlink:href="#meec2ca94c2" x="363.064687" y="98.7539" style="stroke: #000000; stroke-width: 0.8"/>
      </g>
     </g>
     <g id="text_13">
      <!-- 0.8 -->
      <g transform="translate(328.564687 106.392025) scale(0.22 -0.22)">
       <defs>
        <path id="TimesNewRomanPSMT-38" d="M 1228 2134 
Q 725 2547 579 2797 
Q 434 3047 434 3316 
Q 434 3728 753 4026 
Q 1072 4325 1600 4325 
Q 2113 4325 2425 4047 
Q 2738 3769 2738 3413 
Q 2738 3175 2569 2928 
Q 2400 2681 1866 2347 
Q 2416 1922 2594 1678 
Q 2831 1359 2831 1006 
Q 2831 559 2490 242 
Q 2150 -75 1597 -75 
Q 994 -75 656 303 
Q 388 606 388 966 
Q 388 1247 577 1523 
Q 766 1800 1228 2134 
z
M 1719 2469 
Q 2094 2806 2194 3001 
Q 2294 3197 2294 3444 
Q 2294 3772 2109 3958 
Q 1925 4144 1606 4144 
Q 1288 4144 1088 3959 
Q 888 3775 888 3528 
Q 888 3366 970 3203 
Q 1053 3041 1206 2894 
L 1719 2469 
z
M 1375 2016 
Q 1116 1797 991 1539 
Q 866 1281 866 981 
Q 866 578 1086 336 
Q 1306 94 1647 94 
Q 1984 94 2187 284 
Q 2391 475 2391 747 
Q 2391 972 2272 1150 
Q 2050 1481 1375 2016 
z
" transform="scale(0.015625)"/>
       </defs>
       <use xlink:href="#TimesNewRomanPSMT-30"/>
       <use xlink:href="#TimesNewRomanPSMT-2e" transform="translate(50 0)"/>
       <use xlink:href="#TimesNewRomanPSMT-38" transform="translate(75 0)"/>
      </g>
     </g>
    </g>
    <g id="ytick_10">
     <g id="line2d_25">
      <path d="M 363.064687 72.1427 
L 720.184688 72.1427 
" clip-path="url(#pc0432d6cd9)" style="fill: none; stroke: #b0b0b0; stroke-opacity: 0.3; stroke-width: 0.8; stroke-linecap: square"/>
     </g>
     <g id="line2d_26">
      <g>
       <use xlink:href="#meec2ca94c2" x="363.064687" y="72.1427" style="stroke: #000000; stroke-width: 0.8"/>
      </g>
     </g>
     <g id="text_14">
      <!-- 0.9 -->
      <g transform="translate(328.564687 79.780825) scale(0.22 -0.22)">
       <defs>
        <path id="TimesNewRomanPSMT-39" d="M 338 -88 
L 338 28 
Q 744 34 1094 217 
Q 1444 400 1770 856 
Q 2097 1313 2225 1859 
Q 1734 1544 1338 1544 
Q 891 1544 572 1889 
Q 253 2234 253 2806 
Q 253 3363 572 3797 
Q 956 4325 1575 4325 
Q 2097 4325 2469 3894 
Q 2925 3359 2925 2575 
Q 2925 1869 2578 1258 
Q 2231 647 1613 244 
Q 1109 -88 516 -88 
L 338 -88 
z
M 2275 2091 
Q 2331 2497 2331 2741 
Q 2331 3044 2228 3395 
Q 2125 3747 1936 3934 
Q 1747 4122 1506 4122 
Q 1228 4122 1018 3872 
Q 809 3622 809 3128 
Q 809 2469 1088 2097 
Q 1291 1828 1588 1828 
Q 1731 1828 1928 1897 
Q 2125 1966 2275 2091 
z
" transform="scale(0.015625)"/>
       </defs>
       <use xlink:href="#TimesNewRomanPSMT-30"/>
       <use xlink:href="#TimesNewRomanPSMT-2e" transform="translate(50 0)"/>
       <use xlink:href="#TimesNewRomanPSMT-39" transform="translate(75 0)"/>
      </g>
     </g>
    </g>
    <g id="ytick_11">
     <g id="line2d_27">
      <path d="M 363.064687 45.5315 
L 720.184688 45.5315 
" clip-path="url(#pc0432d6cd9)" style="fill: none; stroke: #b0b0b0; stroke-opacity: 0.3; stroke-width: 0.8; stroke-linecap: square"/>
     </g>
     <g id="line2d_28">
      <g>
       <use xlink:href="#meec2ca94c2" x="363.064687" y="45.5315" style="stroke: #000000; stroke-width: 0.8"/>
      </g>
     </g>
     <g id="text_15">
      <!-- 1.0 -->
      <g transform="translate(328.564687 53.169625) scale(0.22 -0.22)">
       <use xlink:href="#TimesNewRomanPSMT-31"/>
       <use xlink:href="#TimesNewRomanPSMT-2e" transform="translate(50 0)"/>
       <use xlink:href="#TimesNewRomanPSMT-30" transform="translate(75 0)"/>
      </g>
     </g>
    </g>
    <g id="text_16">
     <!-- Accuracy -->
     <g transform="translate(319.8175 220.726094) rotate(-90) scale(0.22 -0.22)">
      <defs>
       <path id="TimesNewRomanPSMT-41" d="M 2928 1419 
L 1288 1419 
L 1000 750 
Q 894 503 894 381 
Q 894 284 986 211 
Q 1078 138 1384 116 
L 1384 0 
L 50 0 
L 50 116 
Q 316 163 394 238 
Q 553 388 747 847 
L 2238 4334 
L 2347 4334 
L 3822 809 
Q 4000 384 4145 257 
Q 4291 131 4550 116 
L 4550 0 
L 2878 0 
L 2878 116 
Q 3131 128 3220 200 
Q 3309 272 3309 375 
Q 3309 513 3184 809 
L 2928 1419 
z
M 2841 1650 
L 2122 3363 
L 1384 1650 
L 2841 1650 
z
" transform="scale(0.015625)"/>
       <path id="TimesNewRomanPSMT-63" d="M 2631 1088 
Q 2516 522 2178 217 
Q 1841 -88 1431 -88 
Q 944 -88 581 321 
Q 219 731 219 1428 
Q 219 2103 620 2525 
Q 1022 2947 1584 2947 
Q 2006 2947 2278 2723 
Q 2550 2500 2550 2259 
Q 2550 2141 2473 2067 
Q 2397 1994 2259 1994 
Q 2075 1994 1981 2113 
Q 1928 2178 1911 2362 
Q 1894 2547 1784 2644 
Q 1675 2738 1481 2738 
Q 1169 2738 978 2506 
Q 725 2200 725 1697 
Q 725 1184 976 792 
Q 1228 400 1656 400 
Q 1963 400 2206 609 
Q 2378 753 2541 1131 
L 2631 1088 
z
" transform="scale(0.015625)"/>
       <path id="TimesNewRomanPSMT-75" d="M 2709 2863 
L 2709 1128 
Q 2709 631 2732 520 
Q 2756 409 2807 365 
Q 2859 322 2928 322 
Q 3025 322 3147 375 
L 3191 266 
L 2334 -88 
L 2194 -88 
L 2194 519 
Q 1825 119 1631 15 
Q 1438 -88 1222 -88 
Q 981 -88 804 51 
Q 628 191 559 409 
Q 491 628 491 1028 
L 491 2306 
Q 491 2509 447 2587 
Q 403 2666 317 2708 
Q 231 2750 6 2747 
L 6 2863 
L 1009 2863 
L 1009 947 
Q 1009 547 1148 422 
Q 1288 297 1484 297 
Q 1619 297 1789 381 
Q 1959 466 2194 703 
L 2194 2325 
Q 2194 2569 2105 2655 
Q 2016 2741 1734 2747 
L 1734 2863 
L 2709 2863 
z
" transform="scale(0.015625)"/>
       <path id="TimesNewRomanPSMT-72" d="M 1038 2947 
L 1038 2303 
Q 1397 2947 1775 2947 
Q 1947 2947 2059 2842 
Q 2172 2738 2172 2600 
Q 2172 2478 2090 2393 
Q 2009 2309 1897 2309 
Q 1788 2309 1652 2417 
Q 1516 2525 1450 2525 
Q 1394 2525 1328 2463 
Q 1188 2334 1038 2041 
L 1038 669 
Q 1038 431 1097 309 
Q 1138 225 1241 169 
Q 1344 113 1538 113 
L 1538 0 
L 72 0 
L 72 113 
Q 291 113 397 181 
Q 475 231 506 341 
Q 522 394 522 644 
L 522 1753 
Q 522 2253 501 2348 
Q 481 2444 426 2487 
Q 372 2531 291 2531 
Q 194 2531 72 2484 
L 41 2597 
L 906 2947 
L 1038 2947 
z
" transform="scale(0.015625)"/>
       <path id="TimesNewRomanPSMT-61" d="M 1822 413 
Q 1381 72 1269 19 
Q 1100 -59 909 -59 
Q 613 -59 420 144 
Q 228 347 228 678 
Q 228 888 322 1041 
Q 450 1253 767 1440 
Q 1084 1628 1822 1897 
L 1822 2009 
Q 1822 2438 1686 2597 
Q 1550 2756 1291 2756 
Q 1094 2756 978 2650 
Q 859 2544 859 2406 
L 866 2225 
Q 866 2081 792 2003 
Q 719 1925 600 1925 
Q 484 1925 411 2006 
Q 338 2088 338 2228 
Q 338 2497 613 2722 
Q 888 2947 1384 2947 
Q 1766 2947 2009 2819 
Q 2194 2722 2281 2516 
Q 2338 2381 2338 1966 
L 2338 994 
Q 2338 584 2353 492 
Q 2369 400 2405 369 
Q 2441 338 2488 338 
Q 2538 338 2575 359 
Q 2641 400 2828 588 
L 2828 413 
Q 2478 -56 2159 -56 
Q 2006 -56 1915 50 
Q 1825 156 1822 413 
z
M 1822 616 
L 1822 1706 
Q 1350 1519 1213 1441 
Q 966 1303 859 1153 
Q 753 1003 753 825 
Q 753 600 887 451 
Q 1022 303 1197 303 
Q 1434 303 1822 616 
z
" transform="scale(0.015625)"/>
       <path id="TimesNewRomanPSMT-79" d="M 38 2863 
L 1372 2863 
L 1372 2747 
L 1306 2747 
Q 1166 2747 1095 2686 
Q 1025 2625 1025 2534 
Q 1025 2413 1128 2197 
L 1825 753 
L 2466 2334 
Q 2519 2463 2519 2588 
Q 2519 2644 2497 2672 
Q 2472 2706 2419 2726 
Q 2366 2747 2231 2747 
L 2231 2863 
L 3163 2863 
L 3163 2747 
Q 3047 2734 2984 2696 
Q 2922 2659 2847 2556 
Q 2819 2513 2741 2316 
L 1575 -541 
Q 1406 -956 1132 -1168 
Q 859 -1381 606 -1381 
Q 422 -1381 303 -1275 
Q 184 -1169 184 -1031 
Q 184 -900 270 -820 
Q 356 -741 506 -741 
Q 609 -741 788 -809 
Q 913 -856 944 -856 
Q 1038 -856 1148 -759 
Q 1259 -663 1372 -384 
L 1575 113 
L 547 2272 
Q 500 2369 397 2513 
Q 319 2622 269 2659 
Q 197 2709 38 2747 
L 38 2863 
z
" transform="scale(0.015625)"/>
      </defs>
      <use xlink:href="#TimesNewRomanPSMT-41"/>
      <use xlink:href="#TimesNewRomanPSMT-63" transform="translate(72.216797 0)"/>
      <use xlink:href="#TimesNewRomanPSMT-63" transform="translate(116.601562 0)"/>
      <use xlink:href="#TimesNewRomanPSMT-75" transform="translate(160.986328 0)"/>
      <use xlink:href="#TimesNewRomanPSMT-72" transform="translate(210.986328 0)"/>
      <use xlink:href="#TimesNewRomanPSMT-61" transform="translate(244.287109 0)"/>
      <use xlink:href="#TimesNewRomanPSMT-63" transform="translate(288.671875 0)"/>
      <use xlink:href="#TimesNewRomanPSMT-79" transform="translate(333.056641 0)"/>
     </g>
    </g>
   </g>
   <g id="line2d_29">
    <path d="M 363.064687 168.756139 
L 450.48057 116.938215 
L 474.049439 113.804012 
L 488.244797 110.921135 
L 498.435146 108.659173 
L 506.390056 107.387762 
L 512.915995 105.125799 
L 518.449003 102.642093 
L 523.251709 101.001061 
L 531.294695 94.58481 
L 534.735717 93.476011 
L 537.879713 92.648103 
L 540.77391 91.228847 
L 543.455098 90.533986 
L 545.952493 89.395621 
L 548.289685 88.745125 
L 550.485994 88.641644 
L 552.557443 88.212907 
L 554.517468 88.345954 
L 561.447785 86.202286 
L 562.992408 86.882349 
L 564.474224 85.655271 
L 565.898142 86.512744 
L 567.268516 86.364899 
L 569.86375 85.285666 
L 571.095207 85.433511 
L 572.286412 84.827363 
L 573.439915 85.492642 
L 574.558028 85.862247 
L 575.642859 85.167402 
L 576.696333 85.167402 
L 577.72021 84.442991 
L 579.685518 84.605603 
L 580.62981 85.152619 
L 581.550253 85.241317 
L 582.448023 84.738666 
L 584.179828 84.871728 
L 585.015819 84.176867 
L 585.833064 85.078705 
L 586.632386 84.457774 
L 587.414554 84.679534 
L 588.180288 83.925541 
L 588.930266 84.605603 
L 589.665122 83.74813 
L 590.385454 84.176867 
L 591.091825 84.162084 
L 591.784766 84.827363 
L 592.464779 84.81258 
L 593.132336 84.531689 
L 593.787886 84.516906 
L 594.431854 83.910758 
L 595.064641 84.398626 
L 595.686629 83.866409 
L 596.29818 83.895975 
L 596.89964 84.088169 
L 597.491335 85.55179 
L 598.073577 84.324712 
L 598.646664 83.718564 
L 599.21088 85.285666 
L 599.766495 83.866409 
L 600.313766 83.629867 
L 600.852942 84.117735 
L 601.384258 84.250797 
L 601.907939 83.629867 
L 602.424203 83.585518 
L 602.933256 84.117735 
L 603.435297 83.940324 
L 603.930516 84.694317 
L 604.419097 84.428208 
L 604.901216 83.940324 
L 605.37704 84.856945 
L 605.846732 85.344813 
L 606.310448 84.516906 
L 606.768338 83.999471 
L 607.220548 84.176867 
L 607.667215 85.492642 
L 608.108475 84.472557 
L 608.544456 84.147301 
L 608.975284 84.694317 
L 609.401078 83.895975 
L 609.821956 83.999471 
L 610.238029 84.694317 
L 610.649406 83.910758 
L 611.458486 83.940324 
L 611.85639 84.162084 
L 613.024682 84.516906 
L 613.405937 84.19165 
L 613.783244 84.975208 
L 614.156686 85.389162 
L 614.52634 84.649968 
L 615.254588 83.910758 
L 615.613327 84.531689 
L 616.320383 86.350116 
L 616.668833 84.576037 
L 617.013984 85.137836 
L 617.355896 84.295146 
L 617.694631 84.383843 
L 618.030246 83.881192 
L 618.3628 83.777712 
L 618.692346 84.442991 
L 619.01894 84.635185 
L 619.342633 84.162084 
L 619.98152 86.246635 
L 620.296813 84.339495 
L 620.609401 84.058603 
L 620.919332 85.152619 
L 621.226649 84.117735 
L 621.531396 84.679534 
L 621.833617 83.807278 
L 622.133352 84.753448 
L 622.430642 85.300464 
L 623.018046 84.102952 
L 623.308235 84.354278 
L 623.596132 84.236014 
L 623.881773 85.389162 
L 624.165193 83.910758 
L 624.446426 84.014254 
L 624.725505 85.063906 
L 625.002464 84.26558 
L 625.277334 84.04382 
L 625.550146 84.694317 
L 626.089721 84.117735 
L 626.621424 84.413425 
L 626.884395 85.33003 
L 627.145482 84.19165 
L 627.404712 85.137836 
L 627.662111 84.014254 
L 627.917705 85.152619 
L 628.171519 84.236014 
L 628.673906 84.531689 
L 628.922527 84.442991 
L 629.169462 84.886511 
L 629.658371 84.162084 
L 629.900388 83.999471 
L 630.140808 85.729201 
L 630.379653 85.463077 
L 630.616943 84.635185 
L 630.852698 84.723883 
L 631.086937 83.999471 
L 631.319681 84.7091 
L 631.550949 85.019557 
L 631.780758 84.398626 
L 632.009127 84.206448 
L 632.236074 84.753448 
L 632.908558 84.413425 
L 633.12999 85.196968 
L 633.350084 84.502123 
L 633.568858 84.827363 
L 634.002505 84.649968 
L 634.217409 84.605603 
L 634.431053 84.398626 
L 634.643452 85.196968 
L 634.854621 84.81258 
L 635.064573 84.945642 
L 635.273322 84.472557 
L 635.480883 84.842146 
L 635.687269 84.26558 
L 635.892492 86.246635 
L 636.096567 84.162084 
L 636.299505 85.418728 
L 636.501319 84.531689 
L 636.702022 84.59082 
L 636.901626 84.842146 
L 637.297584 84.442991 
L 637.493962 84.930859 
L 637.883571 84.457774 
L 638.076825 84.856945 
L 638.269059 84.797797 
L 638.460285 84.413425 
L 638.650513 84.605603 
L 638.839753 84.516906 
L 639.028016 84.664751 
L 639.215311 85.152619 
L 639.401649 84.901294 
L 639.587039 85.507441 
L 639.955014 84.413425 
L 640.137617 84.531689 
L 640.319311 85.389162 
L 640.500103 85.196968 
L 640.859018 84.502123 
L 641.037159 85.315247 
L 641.214434 84.576037 
L 641.39085 84.649968 
L 641.566417 84.989991 
L 641.915034 84.309929 
L 642.088099 85.596139 
L 642.260347 84.102952 
L 642.60242 84.81258 
L 642.77226 84.102952 
L 642.941312 84.886511 
L 643.277082 85.182185 
L 643.609787 84.605603 
L 643.939483 84.48734 
L 644.103219 84.442991 
L 644.428501 85.152619 
L 644.590059 85.241317 
L 644.750905 84.605603 
L 644.911044 85.004774 
L 645.229227 84.664751 
L 645.544656 84.945642 
L 645.701352 84.664751 
L 646.012739 85.10827 
L 646.474887 84.516906 
L 646.627643 84.561255 
L 646.779762 85.019557 
L 646.931248 84.916077 
L 647.082108 85.241317 
L 647.232345 85.10827 
L 647.381966 84.81258 
L 647.530975 84.856945 
L 647.827178 85.359596 
L 647.974382 84.783014 
L 648.120994 85.019557 
L 648.412459 84.309929 
L 648.557323 84.635185 
L 648.701612 84.457774 
L 648.845333 84.7091 
L 649.131086 84.442991 
L 649.414616 84.930859 
L 649.835818 84.768231 
L 650.113939 85.182185 
L 650.389954 85.433511 
L 650.663894 84.945642 
L 650.800096 84.620386 
L 650.935791 84.605603 
L 651.070982 84.723883 
L 651.205674 84.635185 
L 651.473574 84.871728 
L 651.606789 85.049123 
L 652.396013 84.531689 
L 652.784308 84.930859 
L 652.912825 84.59082 
L 653.168509 84.7091 
L 653.295682 84.354278 
L 653.422412 84.975208 
L 654.173677 84.620386 
L 654.420696 84.901294 
L 654.543581 84.457774 
L 654.666053 84.827363 
L 654.788115 84.457774 
L 654.909769 84.48734 
L 655.031018 84.930859 
L 655.151866 84.81258 
L 655.272314 84.871728 
L 655.512023 84.516906 
L 655.631289 84.960425 
L 655.750165 84.413425 
L 655.868656 84.886511 
L 655.986762 84.605603 
L 656.104487 84.930859 
L 656.221833 84.576037 
L 656.57162 84.797797 
L 656.687474 84.561255 
L 656.802961 84.753448 
L 656.918083 84.324712 
L 657.032842 84.81258 
L 657.147241 84.502123 
L 657.261283 84.576037 
L 657.374968 84.369061 
L 657.488301 84.753448 
L 657.601281 84.442991 
L 657.713913 84.856945 
L 657.826198 84.576037 
L 657.938138 84.886511 
L 658.049735 84.19165 
L 658.38249 85.123053 
L 658.492737 85.049123 
L 658.712235 84.19165 
L 658.93042 84.620386 
L 659.147306 84.472557 
L 659.362909 84.428208 
L 659.790326 84.576037 
L 659.896402 84.797797 
L 660.107631 84.354278 
L 660.212789 84.783014 
L 660.317644 84.620386 
L 660.526453 84.723883 
L 660.630411 84.221231 
L 660.837441 85.063906 
L 660.940517 84.561255 
L 661.043302 84.694317 
L 661.145798 85.10827 
L 661.34993 84.280363 
L 661.552924 85.049123 
L 661.754795 84.975208 
L 661.955553 84.132518 
L 662.055519 84.827363 
L 662.155212 84.81258 
L 662.452664 84.7091 
L 662.551277 84.635185 
L 662.649625 84.901294 
L 662.845527 84.576037 
L 662.943085 84.738666 
L 663.137421 84.635185 
L 663.234202 84.339495 
L 663.426995 85.078705 
L 663.714287 84.442991 
L 663.80955 84.989991 
L 663.904565 84.502123 
L 663.999332 84.989991 
L 664.188131 84.576037 
L 664.282165 84.797797 
L 664.469509 84.516906 
L 664.562821 84.649968 
L 664.748731 84.797797 
L 664.841331 84.620386 
L 664.933697 84.679534 
L 665.02583 84.635185 
L 665.11773 85.078705 
L 665.209399 84.679534 
L 665.300838 84.871728 
L 665.392048 84.428208 
L 665.483031 84.723883 
L 665.573787 84.620386 
L 665.664317 84.856945 
L 665.754623 84.649968 
L 665.844706 84.7091 
L 665.934567 84.7091 
L 666.024207 84.48734 
L 666.202829 84.960425 
L 666.291812 84.48734 
L 666.380579 84.886511 
L 666.557466 84.48734 
L 666.733499 84.989991 
L 666.908686 84.457774 
L 666.995965 84.768231 
L 667.169898 84.531689 
L 667.256554 84.635185 
L 667.343005 84.546472 
L 667.429251 84.916077 
L 667.515293 84.221231 
L 667.601133 84.768231 
L 667.686771 84.7091 
L 667.772209 84.428208 
L 667.942485 85.049123 
L 668.027326 84.428208 
L 668.196417 84.797797 
L 668.364728 84.324712 
L 668.448592 124.788521 
L 668.532264 123.206637 
L 669.112652 113.168299 
L 669.521628 102.302053 
L 669.683943 94.215205 
L 670.006418 85.684836 
L 670.086593 86.305767 
L 670.326066 88.77469 
L 670.405542 85.448294 
L 670.484845 86.39448 
L 670.563975 86.379682 
L 670.721723 85.522224 
L 670.800342 85.418728 
L 670.878791 85.758767 
L 671.035185 85.004774 
L 671.268525 85.448294 
L 671.345974 85.211751 
L 671.423259 85.300464 
L 671.500381 85.581356 
L 671.654136 85.063906 
L 671.883559 85.418728 
L 671.959714 85.537007 
L 672.035709 85.152619 
L 672.111547 85.418728 
L 672.187227 85.285666 
L 672.41333 85.241317 
L 672.488386 85.152619 
L 672.638038 85.359596 
L 672.712634 85.078705 
L 672.861369 85.241317 
L 673.0095 85.285666 
L 673.157032 85.10827 
L 673.230574 85.418728 
L 673.303968 85.093488 
L 673.377215 85.241317 
L 673.741257 84.945642 
L 673.95795 85.226534 
L 674.029895 85.167402 
L 674.173362 85.374379 
L 674.244884 85.152619 
L 674.316265 85.33003 
L 674.458611 84.975208 
L 674.529576 85.063906 
L 674.600403 84.871728 
L 674.671093 84.989991 
L 674.741646 84.901294 
L 675.022499 85.226534 
L 675.092376 84.960425 
L 675.162118 85.241317 
L 675.231728 85.137836 
L 675.301205 85.167402 
L 675.439763 84.975208 
L 675.577796 84.989991 
L 675.646617 85.004774 
L 675.715308 85.152619 
L 675.852303 85.004774 
L 675.988786 85.167402 
L 676.124759 84.989991 
L 676.260227 85.196968 
L 676.327772 85.152619 
L 676.395193 84.945642 
L 676.462489 84.989991 
L 676.59671 85.004774 
L 676.730438 85.093488 
L 676.996431 84.916077 
L 677.062628 85.063906 
L 677.128704 84.945642 
L 677.19466 84.930859 
L 677.326216 85.226534 
L 677.522664 84.945642 
L 677.782959 85.167402 
L 677.912412 84.975208 
L 677.976967 85.123053 
L 678.041408 84.975208 
L 678.105734 85.241317 
L 678.169948 85.049123 
L 678.298037 85.226534 
L 678.489329 84.916077 
L 678.552871 84.81258 
L 678.616302 84.960425 
L 678.679624 84.930859 
L 678.742835 84.886511 
L 678.805937 85.078705 
L 678.868929 84.871728 
L 678.931813 84.916077 
L 679.057257 84.81258 
L 679.119817 85.063906 
L 679.18227 84.945642 
L 679.431018 84.916077 
L 679.49294 84.768231 
L 679.678079 85.019557 
L 679.862282 84.842146 
L 679.984569 84.901294 
L 680.045559 84.753448 
L 680.106447 84.827363 
L 680.227919 84.783014 
L 680.288503 84.886511 
L 680.348987 84.81258 
L 680.589924 84.886511 
L 680.769587 84.753448 
L 680.888872 85.10827 
L 681.067071 84.842146 
L 681.362147 84.842146 
L 681.538053 84.694317 
L 681.5965 84.842146 
L 681.654853 84.797797 
L 682.060732 84.635185 
L 682.118348 84.768231 
L 682.175873 84.605603 
L 682.233307 84.694317 
L 682.405067 84.797797 
L 682.576023 84.753448 
L 682.63283 84.856945 
L 682.689549 84.576037 
L 682.74618 84.753448 
L 682.915546 84.546472 
L 683.084129 84.945642 
L 683.196086 84.723883 
L 683.3077 84.797797 
L 683.363379 84.620386 
L 683.418974 84.679534 
L 683.585249 84.783014 
L 683.640506 84.738666 
L 683.69568 85.078705 
L 683.75077 84.856945 
L 683.805777 84.7091 
L 683.860701 84.768231 
L 683.915542 84.886511 
L 684.024978 84.561255 
L 684.079573 84.856945 
L 684.134086 84.827363 
L 684.242869 84.635185 
L 684.297139 84.783014 
L 684.351328 84.635185 
L 684.405436 84.738666 
L 684.459465 84.516906 
L 684.513413 84.546472 
L 684.621071 84.827363 
L 684.674781 84.753448 
L 684.781964 84.649968 
L 684.835438 84.827363 
L 684.888833 84.768231 
L 684.94215 84.635185 
L 684.99539 84.664751 
L 685.154642 84.901294 
L 685.313202 84.502123 
L 685.365903 84.7091 
L 685.418527 84.679534 
L 685.471075 84.48734 
L 685.523548 84.679534 
L 685.680515 84.635185 
L 685.732687 84.797797 
L 685.784785 84.679534 
L 685.836808 84.635185 
L 685.888757 84.738666 
L 685.992434 84.546472 
L 686.044162 84.59082 
L 686.301707 84.664751 
L 686.404217 84.871728 
L 686.557445 84.546472 
L 686.71003 84.783014 
L 686.760751 84.546472 
L 686.8114 84.768231 
L 686.86198 84.842146 
L 686.912489 84.576037 
L 686.962929 84.664751 
L 687.013299 85.492642 
L 687.063599 84.856945 
L 687.11383 84.886511 
L 687.163992 84.797797 
L 687.214084 84.694317 
L 687.264109 84.886511 
L 687.314064 84.664751 
L 687.363951 84.783014 
L 687.41377 84.753448 
L 687.56282 84.635185 
L 687.612368 84.886511 
L 687.661849 84.7091 
L 687.711263 84.472557 
L 687.76061 84.679534 
L 687.859103 84.605603 
L 687.957332 84.694317 
L 688.006347 84.546472 
L 688.055296 84.664751 
L 688.104179 84.635185 
L 688.20175 84.768231 
L 688.299061 84.502123 
L 688.396112 84.871728 
L 688.444541 84.797797 
L 688.541206 84.679534 
L 688.733771 85.03434 
L 688.781753 84.738666 
L 688.877529 84.827363 
L 688.925323 84.842146 
L 689.020723 84.664751 
L 689.115874 84.81258 
L 689.163357 84.531689 
L 689.210778 84.620386 
L 689.352671 84.886511 
L 689.399846 84.723883 
L 689.494014 84.753448 
L 689.681622 84.723883 
L 689.728374 84.871728 
L 689.821698 84.827363 
L 689.86827 84.635185 
L 689.914783 84.768231 
L 690.007631 84.679534 
L 690.053967 84.768231 
L 690.284765 84.856945 
L 690.33075 84.768231 
L 690.376677 84.842146 
L 690.422546 84.871728 
L 690.468358 84.753448 
L 690.559808 84.797797 
L 690.696555 84.797797 
L 690.923333 84.886511 
L 691.01365 84.59082 
L 691.058725 84.635185 
L 691.103744 84.753448 
L 691.193616 84.679534 
L 691.283267 84.59082 
L 691.32801 84.871728 
L 691.417332 84.842146 
L 691.46191 84.871728 
L 691.639682 84.561255 
L 691.772444 84.901294 
L 691.948711 84.531689 
L 692.12413 85.019557 
L 692.211524 84.502123 
L 692.255142 84.59082 
L 692.342223 84.546472 
L 692.385686 84.768231 
L 692.472455 84.694317 
L 692.602224 84.930859 
L 692.645377 84.856945 
L 692.817483 84.605603 
L 692.860382 85.03434 
L 692.903232 84.930859 
L 692.946031 84.502123 
L 692.988779 84.842146 
L 693.074127 84.856945 
L 693.201774 84.723883 
L 693.328976 84.694317 
L 693.371279 84.916077 
L 693.413532 84.81258 
L 693.497891 84.694317 
L 693.539998 84.723883 
L 693.624066 84.842146 
L 693.666027 84.59082 
L 693.70794 84.679534 
L 693.833391 84.856945 
L 693.875112 84.694317 
L 693.916785 84.930859 
L 694.041521 84.664751 
L 694.083004 84.768231 
L 694.289718 84.723883 
L 694.454248 84.649968 
L 694.536236 85.004774 
L 694.577161 84.723883 
L 694.618039 84.679534 
L 694.658872 84.871728 
L 694.740402 84.783014 
L 694.781098 84.620386 
L 694.862354 84.7091 
L 695.064706 84.664751 
L 695.145334 84.768231 
L 695.185581 85.522224 
L 695.225783 84.457774 
L 695.265941 108.733103 
L 695.346125 95.619694 
L 695.466071 85.936162 
L 695.505966 86.143139 
L 695.545817 89.750443 
L 695.585624 85.270883 
L 695.625388 85.743984 
L 695.665108 85.167402 
L 695.704786 85.640488 
L 695.74442 85.167402 
L 695.784011 86.069224 
L 695.823559 85.123053 
L 695.863064 85.743984 
L 695.981324 84.694317 
L 696.020659 85.123053 
L 696.099201 84.916077 
L 696.138409 84.989991 
L 696.177575 84.827363 
L 696.216698 84.916077 
L 696.372774 84.783014 
L 696.411689 84.975208 
L 696.450562 84.871728 
L 696.528185 84.738666 
L 696.566934 84.916077 
L 696.605642 84.723883 
L 696.644309 84.738666 
L 696.760065 84.901294 
L 696.875454 84.576037 
L 696.913836 84.901294 
L 696.990479 84.871728 
L 697.219446 84.649968 
L 697.371295 84.916077 
L 697.522515 84.827363 
L 697.560222 84.916077 
L 697.635519 84.842146 
L 697.785648 84.723883 
L 697.823084 84.916077 
L 697.89784 84.768231 
L 697.935161 84.827363 
L 697.972444 84.753448 
L 698.121195 84.723883 
L 698.269341 84.842146 
L 698.306283 84.620386 
L 698.343189 84.916077 
L 698.453681 84.916077 
L 698.490437 84.768231 
L 698.563838 84.871728 
L 698.783161 84.738666 
L 698.928646 84.960425 
L 699.001171 84.842146 
L 699.109689 84.7091 
L 699.217885 85.10827 
L 699.289838 84.694317 
L 699.361648 84.842146 
L 699.433318 84.7091 
L 699.4691 84.753448 
L 699.754099 85.196968 
L 699.789567 85.123053 
L 699.825001 84.827363 
L 699.895767 84.916077 
L 700.001657 84.975208 
L 700.036886 84.753448 
L 700.107241 84.975208 
L 700.142368 85.019557 
L 700.177461 84.768231 
L 700.247546 85.049123 
L 700.387313 84.901294 
L 700.56127 84.989991 
L 700.595963 84.886511 
L 700.630622 84.842146 
L 700.665248 85.03434 
L 700.734402 84.871728 
L 700.803425 84.916077 
L 700.837887 84.842146 
L 701.009713 84.901294 
L 701.078217 84.856945 
L 701.112421 85.049123 
L 701.21484 84.856945 
L 701.248916 84.930859 
L 701.28296 85.004774 
L 701.316972 84.945642 
L 701.452705 84.738666 
L 701.554174 84.975208 
L 701.621663 84.783014 
L 701.655361 85.078705 
L 701.722663 84.81258 
L 701.789842 84.989991 
L 701.856896 84.901294 
L 701.923828 84.945642 
L 701.957248 84.738666 
L 702.023995 85.03434 
L 702.057324 84.886511 
L 702.090621 84.768231 
L 702.123888 84.945642 
L 702.157125 84.945642 
L 702.223508 84.81258 
L 702.256655 85.03434 
L 702.289771 84.7091 
L 702.322857 84.975208 
L 702.388939 84.81258 
L 702.421935 84.856945 
L 702.553622 84.989991 
L 702.652076 84.797797 
L 702.717564 84.856945 
L 702.750264 84.81258 
L 702.782935 84.945642 
L 702.880772 84.930859 
L 703.010814 84.768231 
L 703.075662 84.827363 
L 703.140394 84.783014 
L 703.172718 84.738666 
L 703.205012 84.901294 
L 703.301724 84.856945 
L 703.430276 84.930859 
L 703.494382 84.81258 
L 703.526393 84.842146 
L 703.558376 84.930859 
L 703.654156 84.871728 
L 703.71787 84.827363 
L 703.749685 84.901294 
L 703.781473 84.989991 
L 703.844965 84.842146 
L 704.160776 84.842146 
L 704.192208 84.989991 
L 704.254989 84.916077 
L 704.41147 84.797797 
L 704.536173 84.901294 
L 704.567282 84.856945 
L 704.753382 84.827363 
L 704.784307 84.901294 
L 704.846077 84.827363 
L 704.876923 84.723883 
L 704.907743 84.901294 
L 704.938537 85.063906 
L 704.969305 84.871728 
L 705.000046 84.871728 
L 705.092117 84.960425 
L 705.122755 84.916077 
L 705.153368 84.768231 
L 705.214517 84.886511 
L 706.857115 84.81258 
L 706.886306 84.768231 
L 706.915474 84.856945 
L 706.944618 84.842146 
L 706.973738 84.886511 
L 707.002836 84.797797 
L 707.060962 84.827363 
L 707.292541 84.886511 
L 707.379005 84.797797 
L 707.407781 84.916077 
L 707.465265 84.842146 
L 707.522658 84.886511 
L 707.579961 84.797797 
L 707.637174 84.886511 
L 707.694298 84.856945 
L 707.893527 84.753448 
L 707.9219 84.827363 
L 708.063433 84.960425 
L 708.119893 84.783014 
L 708.204419 84.856945 
L 708.316816 84.753448 
L 708.372885 84.827363 
L 708.540576 84.960425 
L 708.651943 84.856945 
L 708.679732 84.886511 
L 708.790675 84.856945 
L 708.818358 84.975208 
L 708.901281 84.842146 
L 709.011553 84.886511 
L 709.148925 84.945642 
L 709.36765 84.930859 
L 709.394898 84.797797 
L 709.476522 84.886511 
L 709.639222 84.797797 
L 709.666269 84.842146 
L 709.693295 84.886511 
L 709.720301 84.81258 
L 709.747287 84.738666 
L 709.8012 84.842146 
L 709.828126 84.81258 
L 709.908786 84.842146 
L 709.935633 84.930859 
L 710.016056 84.856945 
L 710.069573 84.901294 
L 710.096302 84.842146 
L 710.123011 84.783014 
L 710.149701 84.81258 
L 710.176371 84.945642 
L 710.256265 84.901294 
L 711.434122 84.945642 
L 711.537002 84.783014 
L 711.690778 84.975208 
L 711.716345 84.842146 
L 711.792937 84.960425 
L 711.920234 84.886511 
L 711.94564 84.975208 
L 711.971028 84.989991 
L 711.996399 84.827363 
L 712.072405 84.945642 
L 712.122988 84.871728 
L 712.148253 84.886511 
L 712.173501 85.03434 
L 712.198731 84.871728 
L 712.274317 84.975208 
L 712.399947 84.81258 
L 712.425021 84.856945 
L 712.500139 84.916077 
L 712.525145 84.886511 
L 712.674817 84.81258 
L 712.699702 84.916077 
L 712.799076 84.856945 
L 712.898178 84.945642 
L 712.997013 84.797797 
L 713.021679 84.81258 
L 713.09558 84.916077 
L 713.144763 84.842146 
L 713.754024 84.871728 
L 713.778184 84.975208 
L 713.802328 84.827363 
L 713.874664 84.916077 
L 713.898744 84.797797 
L 713.970889 84.871728 
L 714.018906 84.930859 
L 714.042891 84.81258 
L 714.06686 84.827363 
L 714.281877 84.901294 
L 714.353268 84.753448 
L 714.400785 84.827363 
L 714.471943 84.871728 
L 714.448239 84.797797 
L 714.495632 84.856945 
L 714.613846 84.753448 
L 714.802194 84.930859 
L 714.825669 84.842146 
L 714.919419 84.916077 
L 714.966203 84.694317 
L 715.012928 84.856945 
L 715.036268 84.960425 
L 715.082903 84.753448 
L 715.106198 84.901294 
L 715.222451 84.842146 
L 715.268848 84.738666 
L 715.315187 84.975208 
L 715.338334 84.738666 
L 715.384585 84.871728 
L 715.407688 108.570475 
L 715.47691 89.573032 
L 715.522984 93.002925 
L 715.591988 85.625705 
L 715.68379 86.838 
L 715.637918 85.433511 
L 715.706704 86.719721 
L 715.798218 84.856945 
L 715.866702 85.196968 
L 715.980558 84.827363 
L 716.003287 84.871728 
L 716.026002 84.694317 
L 716.071388 84.768231 
L 716.139362 84.916077 
L 716.116718 84.723883 
L 716.161992 84.723883 
L 716.184607 84.605603 
L 716.207209 84.768231 
L 716.27493 84.7091 
L 716.342526 84.783014 
L 716.36503 84.472557 
L 716.409997 84.81258 
L 716.477343 84.664751 
L 716.611662 84.472557 
L 716.634001 84.664751 
L 716.723218 84.546472 
L 716.812218 84.620386 
L 716.923163 84.472557 
L 716.945311 84.649968 
L 716.967446 84.398626 
L 717.033771 84.48734 
L 717.055852 84.635185 
L 717.07792 84.413425 
L 717.144044 84.576037 
L 717.166059 84.546472 
L 717.188061 84.738666 
L 717.210049 84.48734 
L 717.275934 84.561255 
L 717.363596 84.723883 
L 717.494694 84.48734 
L 717.581832 84.664751 
L 717.603584 84.635185 
L 717.690462 84.546472 
L 717.71215 84.576037 
L 717.79877 85.226534 
L 717.842003 85.078705 
L 717.949861 84.797797 
L 717.971395 84.81258 
L 718.057402 84.797797 
L 718.143206 84.649968 
L 718.164626 84.679534 
L 718.186033 84.827363 
L 718.250179 84.679534 
L 718.271535 84.635185 
L 718.29288 84.797797 
L 718.335531 84.723883 
L 718.399414 84.679534 
L 718.441941 84.81258 
L 718.548041 84.679534 
L 718.569225 84.783014 
L 718.653834 84.753448 
L 718.717162 84.649968 
L 718.738247 84.783014 
L 718.780381 84.694317 
L 718.801429 84.738666 
L 718.90649 84.635185 
L 718.990321 84.561255 
L 719.032164 84.768231 
L 719.219867 84.679534 
L 719.240663 84.723883 
L 719.261447 84.871728 
L 719.302981 84.679534 
L 719.344467 84.738666 
L 719.385906 84.635185 
L 719.427297 84.842146 
L 719.50994 84.605603 
L 719.530572 84.694317 
L 719.592396 84.768231 
L 719.633554 84.738666 
L 719.674666 84.694317 
L 719.695205 84.871728 
L 719.715731 84.664751 
L 719.777243 84.694317 
L 719.838651 84.738666 
L 719.859097 84.635185 
L 719.879532 84.871728 
L 719.961157 84.856945 
L 720.062932 84.649968 
L 720.164423 84.901294 
L 720.184688 84.605603 
L 720.184688 84.605603 
" clip-path="url(#pc0432d6cd9)" style="fill: none; stroke: #1f77b4; stroke-width: 1.5; stroke-linecap: square"/>
   </g>
   <g id="patch_3">
    <path d="M 363.064687 311.6435 
L 363.064687 45.5315 
" style="fill: none; stroke: #000000; stroke-width: 0.8; stroke-linejoin: miter; stroke-linecap: square"/>
   </g>
   <g id="patch_4">
    <path d="M 720.184688 311.6435 
L 720.184688 45.5315 
" style="fill: none; stroke: #000000; stroke-width: 0.8; stroke-linejoin: miter; stroke-linecap: square"/>
   </g>
   <g id="patch_5">
    <path d="M 363.064687 311.6435 
L 720.184688 311.6435 
" style="fill: none; stroke: #000000; stroke-width: 0.8; stroke-linejoin: miter; stroke-linecap: square"/>
   </g>
   <g id="patch_6">
    <path d="M 363.064687 45.5315 
L 720.184688 45.5315 
" style="fill: none; stroke: #000000; stroke-width: 0.8; stroke-linejoin: miter; stroke-linecap: square"/>
   </g>
   <g id="text_17">
    <!-- Accuracy of the 09_07_25_CINIC10_torch_model_(1024+8192.1+1)_car-plane on the validation set -->
    <g transform="translate(7.2 25.5315) scale(0.264 -0.264)">
     <defs>
      <path id="TimesNewRomanPSMT-20" transform="scale(0.015625)"/>
      <path id="TimesNewRomanPSMT-6f" d="M 1600 2947 
Q 2250 2947 2644 2453 
Q 2978 2031 2978 1484 
Q 2978 1100 2793 706 
Q 2609 313 2286 112 
Q 1963 -88 1566 -88 
Q 919 -88 538 428 
Q 216 863 216 1403 
Q 216 1797 411 2186 
Q 606 2575 925 2761 
Q 1244 2947 1600 2947 
z
M 1503 2744 
Q 1338 2744 1170 2645 
Q 1003 2547 900 2300 
Q 797 2053 797 1666 
Q 797 1041 1045 587 
Q 1294 134 1700 134 
Q 2003 134 2200 384 
Q 2397 634 2397 1244 
Q 2397 2006 2069 2444 
Q 1847 2744 1503 2744 
z
" transform="scale(0.015625)"/>
      <path id="TimesNewRomanPSMT-66" d="M 1319 2638 
L 1319 756 
Q 1319 356 1406 250 
Q 1522 113 1716 113 
L 1975 113 
L 1975 0 
L 266 0 
L 266 113 
L 394 113 
Q 519 113 622 175 
Q 725 238 764 344 
Q 803 450 803 756 
L 803 2638 
L 247 2638 
L 247 2863 
L 803 2863 
L 803 3050 
Q 803 3478 940 3775 
Q 1078 4072 1361 4255 
Q 1644 4438 1997 4438 
Q 2325 4438 2600 4225 
Q 2781 4084 2781 3909 
Q 2781 3816 2700 3733 
Q 2619 3650 2525 3650 
Q 2453 3650 2373 3701 
Q 2294 3753 2178 3923 
Q 2063 4094 1966 4153 
Q 1869 4213 1750 4213 
Q 1606 4213 1506 4136 
Q 1406 4059 1362 3898 
Q 1319 3738 1319 3069 
L 1319 2863 
L 2056 2863 
L 2056 2638 
L 1319 2638 
z
" transform="scale(0.015625)"/>
      <path id="TimesNewRomanPSMT-74" d="M 1031 3803 
L 1031 2863 
L 1700 2863 
L 1700 2644 
L 1031 2644 
L 1031 788 
Q 1031 509 1111 412 
Q 1191 316 1316 316 
Q 1419 316 1516 380 
Q 1613 444 1666 569 
L 1788 569 
Q 1678 263 1478 108 
Q 1278 -47 1066 -47 
Q 922 -47 784 33 
Q 647 113 581 261 
Q 516 409 516 719 
L 516 2644 
L 63 2644 
L 63 2747 
Q 234 2816 414 2980 
Q 594 3144 734 3369 
Q 806 3488 934 3803 
L 1031 3803 
z
" transform="scale(0.015625)"/>
      <path id="TimesNewRomanPSMT-68" d="M 1041 4444 
L 1041 2350 
Q 1388 2731 1591 2839 
Q 1794 2947 1997 2947 
Q 2241 2947 2416 2812 
Q 2591 2678 2675 2391 
Q 2734 2191 2734 1659 
L 2734 647 
Q 2734 375 2778 275 
Q 2809 200 2884 156 
Q 2959 113 3159 113 
L 3159 0 
L 1753 0 
L 1753 113 
L 1819 113 
Q 2019 113 2097 173 
Q 2175 234 2206 353 
Q 2216 403 2216 647 
L 2216 1659 
Q 2216 2128 2167 2275 
Q 2119 2422 2012 2495 
Q 1906 2569 1756 2569 
Q 1603 2569 1437 2487 
Q 1272 2406 1041 2159 
L 1041 647 
Q 1041 353 1073 281 
Q 1106 209 1195 161 
Q 1284 113 1503 113 
L 1503 0 
L 84 0 
L 84 113 
Q 275 113 384 172 
Q 447 203 484 290 
Q 522 378 522 647 
L 522 3238 
Q 522 3728 498 3840 
Q 475 3953 426 3993 
Q 378 4034 297 4034 
Q 231 4034 84 3984 
L 41 4094 
L 897 4444 
L 1041 4444 
z
" transform="scale(0.015625)"/>
      <path id="TimesNewRomanPSMT-65" d="M 681 1784 
Q 678 1147 991 784 
Q 1303 422 1725 422 
Q 2006 422 2214 576 
Q 2422 731 2563 1106 
L 2659 1044 
Q 2594 616 2278 264 
Q 1963 -88 1488 -88 
Q 972 -88 605 314 
Q 238 716 238 1394 
Q 238 2128 614 2539 
Q 991 2950 1559 2950 
Q 2041 2950 2350 2633 
Q 2659 2316 2659 1784 
L 681 1784 
z
M 681 1966 
L 2006 1966 
Q 1991 2241 1941 2353 
Q 1863 2528 1708 2628 
Q 1553 2728 1384 2728 
Q 1125 2728 920 2526 
Q 716 2325 681 1966 
z
" transform="scale(0.015625)"/>
      <path id="TimesNewRomanPSMT-5f" d="M 3256 -1381 
L -53 -1381 
L -53 -1119 
L 3256 -1119 
L 3256 -1381 
z
" transform="scale(0.015625)"/>
      <path id="TimesNewRomanPSMT-43" d="M 3853 4334 
L 3950 2894 
L 3853 2894 
Q 3659 3541 3300 3825 
Q 2941 4109 2438 4109 
Q 2016 4109 1675 3895 
Q 1334 3681 1139 3212 
Q 944 2744 944 2047 
Q 944 1472 1128 1050 
Q 1313 628 1683 403 
Q 2053 178 2528 178 
Q 2941 178 3256 354 
Q 3572 531 3950 1056 
L 4047 994 
Q 3728 428 3303 165 
Q 2878 -97 2294 -97 
Q 1241 -97 663 684 
Q 231 1266 231 2053 
Q 231 2688 515 3219 
Q 800 3750 1298 4042 
Q 1797 4334 2388 4334 
Q 2847 4334 3294 4109 
Q 3425 4041 3481 4041 
Q 3566 4041 3628 4100 
Q 3709 4184 3744 4334 
L 3853 4334 
z
" transform="scale(0.015625)"/>
      <path id="TimesNewRomanPSMT-49" d="M 1975 116 
L 1975 0 
L 159 0 
L 159 116 
L 309 116 
Q 572 116 691 269 
Q 766 369 766 750 
L 766 3488 
Q 766 3809 725 3913 
Q 694 3991 597 4047 
Q 459 4122 309 4122 
L 159 4122 
L 159 4238 
L 1975 4238 
L 1975 4122 
L 1822 4122 
Q 1563 4122 1444 3969 
Q 1366 3869 1366 3488 
L 1366 750 
Q 1366 428 1406 325 
Q 1438 247 1538 191 
Q 1672 116 1822 116 
L 1975 116 
z
" transform="scale(0.015625)"/>
      <path id="TimesNewRomanPSMT-4e" d="M -84 4238 
L 1066 4238 
L 3656 1059 
L 3656 3503 
Q 3656 3894 3569 3991 
Q 3453 4122 3203 4122 
L 3056 4122 
L 3056 4238 
L 4531 4238 
L 4531 4122 
L 4381 4122 
Q 4113 4122 4000 3959 
Q 3931 3859 3931 3503 
L 3931 -69 
L 3819 -69 
L 1025 3344 
L 1025 734 
Q 1025 344 1109 247 
Q 1228 116 1475 116 
L 1625 116 
L 1625 0 
L 150 0 
L 150 116 
L 297 116 
Q 569 116 681 278 
Q 750 378 750 734 
L 750 3681 
Q 566 3897 470 3965 
Q 375 4034 191 4094 
Q 100 4122 -84 4122 
L -84 4238 
z
" transform="scale(0.015625)"/>
      <path id="TimesNewRomanPSMT-6d" d="M 1050 2338 
Q 1363 2650 1419 2697 
Q 1559 2816 1721 2881 
Q 1884 2947 2044 2947 
Q 2313 2947 2506 2790 
Q 2700 2634 2766 2338 
Q 3088 2713 3309 2830 
Q 3531 2947 3766 2947 
Q 3994 2947 4170 2830 
Q 4347 2713 4450 2447 
Q 4519 2266 4519 1878 
L 4519 647 
Q 4519 378 4559 278 
Q 4591 209 4675 161 
Q 4759 113 4950 113 
L 4950 0 
L 3538 0 
L 3538 113 
L 3597 113 
Q 3781 113 3884 184 
Q 3956 234 3988 344 
Q 4000 397 4000 647 
L 4000 1878 
Q 4000 2228 3916 2372 
Q 3794 2572 3525 2572 
Q 3359 2572 3192 2489 
Q 3025 2406 2788 2181 
L 2781 2147 
L 2788 2013 
L 2788 647 
Q 2788 353 2820 281 
Q 2853 209 2943 161 
Q 3034 113 3253 113 
L 3253 0 
L 1806 0 
L 1806 113 
Q 2044 113 2133 169 
Q 2222 225 2256 338 
Q 2272 391 2272 647 
L 2272 1878 
Q 2272 2228 2169 2381 
Q 2031 2581 1784 2581 
Q 1616 2581 1450 2491 
Q 1191 2353 1050 2181 
L 1050 647 
Q 1050 366 1089 281 
Q 1128 197 1204 155 
Q 1281 113 1516 113 
L 1516 0 
L 100 0 
L 100 113 
Q 297 113 375 155 
Q 453 197 493 289 
Q 534 381 534 647 
L 534 1741 
Q 534 2213 506 2350 
Q 484 2453 437 2492 
Q 391 2531 309 2531 
Q 222 2531 100 2484 
L 53 2597 
L 916 2947 
L 1050 2947 
L 1050 2338 
z
" transform="scale(0.015625)"/>
      <path id="TimesNewRomanPSMT-64" d="M 2222 322 
Q 2013 103 1813 7 
Q 1613 -88 1381 -88 
Q 913 -88 563 304 
Q 213 697 213 1313 
Q 213 1928 600 2439 
Q 988 2950 1597 2950 
Q 1975 2950 2222 2709 
L 2222 3238 
Q 2222 3728 2198 3840 
Q 2175 3953 2125 3993 
Q 2075 4034 2000 4034 
Q 1919 4034 1784 3984 
L 1744 4094 
L 2597 4444 
L 2738 4444 
L 2738 1134 
Q 2738 631 2761 520 
Q 2784 409 2836 365 
Q 2888 322 2956 322 
Q 3041 322 3181 375 
L 3216 266 
L 2366 -88 
L 2222 -88 
L 2222 322 
z
M 2222 541 
L 2222 2016 
Q 2203 2228 2109 2403 
Q 2016 2578 1861 2667 
Q 1706 2756 1559 2756 
Q 1284 2756 1069 2509 
Q 784 2184 784 1559 
Q 784 928 1059 592 
Q 1334 256 1672 256 
Q 1956 256 2222 541 
z
" transform="scale(0.015625)"/>
      <path id="TimesNewRomanPSMT-6c" d="M 1184 4444 
L 1184 647 
Q 1184 378 1223 290 
Q 1263 203 1344 158 
Q 1425 113 1647 113 
L 1647 0 
L 244 0 
L 244 113 
Q 441 113 512 153 
Q 584 194 625 287 
Q 666 381 666 647 
L 666 3247 
Q 666 3731 644 3842 
Q 622 3953 573 3993 
Q 525 4034 450 4034 
Q 369 4034 244 3984 
L 191 4094 
L 1044 4444 
L 1184 4444 
z
" transform="scale(0.015625)"/>
      <path id="TimesNewRomanPSMT-28" d="M 1988 -1253 
L 1988 -1369 
Q 1516 -1131 1200 -813 
Q 750 -359 506 256 
Q 263 872 263 1534 
Q 263 2503 741 3301 
Q 1219 4100 1988 4444 
L 1988 4313 
Q 1603 4100 1356 3731 
Q 1109 3363 987 2797 
Q 866 2231 866 1616 
Q 866 947 969 400 
Q 1050 -31 1165 -292 
Q 1281 -553 1476 -793 
Q 1672 -1034 1988 -1253 
z
" transform="scale(0.015625)"/>
      <path id="TimesNewRomanPSMT-2b" d="M 1672 441 
L 1672 2000 
L 116 2000 
L 116 2256 
L 1672 2256 
L 1672 3809 
L 1922 3809 
L 1922 2256 
L 3484 2256 
L 3484 2000 
L 1922 2000 
L 1922 441 
L 1672 441 
z
" transform="scale(0.015625)"/>
      <path id="TimesNewRomanPSMT-29" d="M 144 4313 
L 144 4444 
Q 619 4209 934 3891 
Q 1381 3434 1625 2820 
Q 1869 2206 1869 1541 
Q 1869 572 1392 -226 
Q 916 -1025 144 -1369 
L 144 -1253 
Q 528 -1038 776 -670 
Q 1025 -303 1145 264 
Q 1266 831 1266 1447 
Q 1266 2113 1163 2663 
Q 1084 3094 967 3353 
Q 850 3613 656 3853 
Q 463 4094 144 4313 
z
" transform="scale(0.015625)"/>
      <path id="TimesNewRomanPSMT-2d" d="M 259 1672 
L 1875 1672 
L 1875 1200 
L 259 1200 
L 259 1672 
z
" transform="scale(0.015625)"/>
      <path id="TimesNewRomanPSMT-70" d="M -6 2578 
L 875 2934 
L 994 2934 
L 994 2266 
Q 1216 2644 1439 2795 
Q 1663 2947 1909 2947 
Q 2341 2947 2628 2609 
Q 2981 2197 2981 1534 
Q 2981 794 2556 309 
Q 2206 -88 1675 -88 
Q 1444 -88 1275 -22 
Q 1150 25 994 166 
L 994 -706 
Q 994 -1000 1030 -1079 
Q 1066 -1159 1155 -1206 
Q 1244 -1253 1478 -1253 
L 1478 -1369 
L -22 -1369 
L -22 -1253 
L 56 -1253 
Q 228 -1256 350 -1188 
Q 409 -1153 442 -1076 
Q 475 -1000 475 -688 
L 475 2019 
Q 475 2297 450 2372 
Q 425 2447 370 2484 
Q 316 2522 222 2522 
Q 147 2522 31 2478 
L -6 2578 
z
M 994 2081 
L 994 1013 
Q 994 666 1022 556 
Q 1066 375 1236 237 
Q 1406 100 1666 100 
Q 1978 100 2172 344 
Q 2425 663 2425 1241 
Q 2425 1897 2138 2250 
Q 1938 2494 1663 2494 
Q 1513 2494 1366 2419 
Q 1253 2363 994 2081 
z
" transform="scale(0.015625)"/>
      <path id="TimesNewRomanPSMT-6e" d="M 1034 2341 
Q 1538 2947 1994 2947 
Q 2228 2947 2397 2830 
Q 2566 2713 2666 2444 
Q 2734 2256 2734 1869 
L 2734 647 
Q 2734 375 2778 278 
Q 2813 200 2889 156 
Q 2966 113 3172 113 
L 3172 0 
L 1756 0 
L 1756 113 
L 1816 113 
Q 2016 113 2095 173 
Q 2175 234 2206 353 
Q 2219 400 2219 647 
L 2219 1819 
Q 2219 2209 2117 2386 
Q 2016 2563 1775 2563 
Q 1403 2563 1034 2156 
L 1034 647 
Q 1034 356 1069 288 
Q 1113 197 1189 155 
Q 1266 113 1500 113 
L 1500 0 
L 84 0 
L 84 113 
L 147 113 
Q 366 113 442 223 
Q 519 334 519 647 
L 519 1709 
Q 519 2225 495 2337 
Q 472 2450 423 2490 
Q 375 2531 294 2531 
Q 206 2531 84 2484 
L 38 2597 
L 900 2947 
L 1034 2947 
L 1034 2341 
z
" transform="scale(0.015625)"/>
      <path id="TimesNewRomanPSMT-76" d="M 53 2863 
L 1400 2863 
L 1400 2747 
L 1313 2747 
Q 1191 2747 1127 2687 
Q 1063 2628 1063 2528 
Q 1063 2419 1128 2269 
L 1794 688 
L 2463 2328 
Q 2534 2503 2534 2594 
Q 2534 2638 2509 2666 
Q 2475 2713 2422 2730 
Q 2369 2747 2206 2747 
L 2206 2863 
L 3141 2863 
L 3141 2747 
Q 2978 2734 2916 2681 
Q 2806 2588 2719 2369 
L 1703 -88 
L 1575 -88 
L 553 2328 
Q 484 2497 421 2570 
Q 359 2644 263 2694 
Q 209 2722 53 2747 
L 53 2863 
z
" transform="scale(0.015625)"/>
      <path id="TimesNewRomanPSMT-69" d="M 928 4444 
Q 1059 4444 1151 4351 
Q 1244 4259 1244 4128 
Q 1244 3997 1151 3903 
Q 1059 3809 928 3809 
Q 797 3809 703 3903 
Q 609 3997 609 4128 
Q 609 4259 701 4351 
Q 794 4444 928 4444 
z
M 1188 2947 
L 1188 647 
Q 1188 378 1227 289 
Q 1266 200 1342 156 
Q 1419 113 1622 113 
L 1622 0 
L 231 0 
L 231 113 
Q 441 113 512 153 
Q 584 194 626 287 
Q 669 381 669 647 
L 669 1750 
Q 669 2216 641 2353 
Q 619 2453 572 2492 
Q 525 2531 444 2531 
Q 356 2531 231 2484 
L 188 2597 
L 1050 2947 
L 1188 2947 
z
" transform="scale(0.015625)"/>
      <path id="TimesNewRomanPSMT-73" d="M 2050 2947 
L 2050 1972 
L 1947 1972 
Q 1828 2431 1642 2597 
Q 1456 2763 1169 2763 
Q 950 2763 815 2647 
Q 681 2531 681 2391 
Q 681 2216 781 2091 
Q 878 1963 1175 1819 
L 1631 1597 
Q 2266 1288 2266 781 
Q 2266 391 1970 151 
Q 1675 -88 1309 -88 
Q 1047 -88 709 6 
Q 606 38 541 38 
Q 469 38 428 -44 
L 325 -44 
L 325 978 
L 428 978 
Q 516 541 762 319 
Q 1009 97 1316 97 
Q 1531 97 1667 223 
Q 1803 350 1803 528 
Q 1803 744 1651 891 
Q 1500 1038 1047 1263 
Q 594 1488 453 1669 
Q 313 1847 313 2119 
Q 313 2472 555 2709 
Q 797 2947 1181 2947 
Q 1350 2947 1591 2875 
Q 1750 2828 1803 2828 
Q 1853 2828 1881 2850 
Q 1909 2872 1947 2947 
L 2050 2947 
z
" transform="scale(0.015625)"/>
     </defs>
     <use xlink:href="#TimesNewRomanPSMT-41"/>
     <use xlink:href="#TimesNewRomanPSMT-63" transform="translate(72.216797 0)"/>
     <use xlink:href="#TimesNewRomanPSMT-63" transform="translate(116.601562 0)"/>
     <use xlink:href="#TimesNewRomanPSMT-75" transform="translate(160.986328 0)"/>
     <use xlink:href="#TimesNewRomanPSMT-72" transform="translate(210.986328 0)"/>
     <use xlink:href="#TimesNewRomanPSMT-61" transform="translate(244.287109 0)"/>
     <use xlink:href="#TimesNewRomanPSMT-63" transform="translate(288.671875 0)"/>
     <use xlink:href="#TimesNewRomanPSMT-79" transform="translate(333.056641 0)"/>
     <use xlink:href="#TimesNewRomanPSMT-20" transform="translate(383.056641 0)"/>
     <use xlink:href="#TimesNewRomanPSMT-6f" transform="translate(408.056641 0)"/>
     <use xlink:href="#TimesNewRomanPSMT-66" transform="translate(458.056641 0)"/>
     <use xlink:href="#TimesNewRomanPSMT-20" transform="translate(491.357422 0)"/>
     <use xlink:href="#TimesNewRomanPSMT-74" transform="translate(516.357422 0)"/>
     <use xlink:href="#TimesNewRomanPSMT-68" transform="translate(544.140625 0)"/>
     <use xlink:href="#TimesNewRomanPSMT-65" transform="translate(594.140625 0)"/>
     <use xlink:href="#TimesNewRomanPSMT-20" transform="translate(638.525391 0)"/>
     <use xlink:href="#TimesNewRomanPSMT-30" transform="translate(663.525391 0)"/>
     <use xlink:href="#TimesNewRomanPSMT-39" transform="translate(713.525391 0)"/>
     <use xlink:href="#TimesNewRomanPSMT-5f" transform="translate(763.525391 0)"/>
     <use xlink:href="#TimesNewRomanPSMT-30" transform="translate(813.525391 0)"/>
     <use xlink:href="#TimesNewRomanPSMT-37" transform="translate(863.525391 0)"/>
     <use xlink:href="#TimesNewRomanPSMT-5f" transform="translate(913.525391 0)"/>
     <use xlink:href="#TimesNewRomanPSMT-32" transform="translate(963.525391 0)"/>
     <use xlink:href="#TimesNewRomanPSMT-35" transform="translate(1013.525391 0)"/>
     <use xlink:href="#TimesNewRomanPSMT-5f" transform="translate(1063.525391 0)"/>
     <use xlink:href="#TimesNewRomanPSMT-43" transform="translate(1113.525391 0)"/>
     <use xlink:href="#TimesNewRomanPSMT-49" transform="translate(1180.224609 0)"/>
     <use xlink:href="#TimesNewRomanPSMT-4e" transform="translate(1213.525391 0)"/>
     <use xlink:href="#TimesNewRomanPSMT-49" transform="translate(1285.742188 0)"/>
     <use xlink:href="#TimesNewRomanPSMT-43" transform="translate(1319.042969 0)"/>
     <use xlink:href="#TimesNewRomanPSMT-31" transform="translate(1385.742188 0)"/>
     <use xlink:href="#TimesNewRomanPSMT-30" transform="translate(1435.742188 0)"/>
     <use xlink:href="#TimesNewRomanPSMT-5f" transform="translate(1485.742188 0)"/>
     <use xlink:href="#TimesNewRomanPSMT-74" transform="translate(1535.742188 0)"/>
     <use xlink:href="#TimesNewRomanPSMT-6f" transform="translate(1563.525391 0)"/>
     <use xlink:href="#TimesNewRomanPSMT-72" transform="translate(1613.525391 0)"/>
     <use xlink:href="#TimesNewRomanPSMT-63" transform="translate(1646.826172 0)"/>
     <use xlink:href="#TimesNewRomanPSMT-68" transform="translate(1691.210938 0)"/>
     <use xlink:href="#TimesNewRomanPSMT-5f" transform="translate(1741.210938 0)"/>
     <use xlink:href="#TimesNewRomanPSMT-6d" transform="translate(1791.210938 0)"/>
     <use xlink:href="#TimesNewRomanPSMT-6f" transform="translate(1868.994141 0)"/>
     <use xlink:href="#TimesNewRomanPSMT-64" transform="translate(1918.994141 0)"/>
     <use xlink:href="#TimesNewRomanPSMT-65" transform="translate(1968.994141 0)"/>
     <use xlink:href="#TimesNewRomanPSMT-6c" transform="translate(2013.378906 0)"/>
     <use xlink:href="#TimesNewRomanPSMT-5f" transform="translate(2041.162109 0)"/>
     <use xlink:href="#TimesNewRomanPSMT-28" transform="translate(2091.162109 0)"/>
     <use xlink:href="#TimesNewRomanPSMT-31" transform="translate(2124.462891 0)"/>
     <use xlink:href="#TimesNewRomanPSMT-30" transform="translate(2174.462891 0)"/>
     <use xlink:href="#TimesNewRomanPSMT-32" transform="translate(2224.462891 0)"/>
     <use xlink:href="#TimesNewRomanPSMT-34" transform="translate(2274.462891 0)"/>
     <use xlink:href="#TimesNewRomanPSMT-2b" transform="translate(2324.462891 0)"/>
     <use xlink:href="#TimesNewRomanPSMT-38" transform="translate(2380.859375 0)"/>
     <use xlink:href="#TimesNewRomanPSMT-31" transform="translate(2430.859375 0)"/>
     <use xlink:href="#TimesNewRomanPSMT-39" transform="translate(2480.859375 0)"/>
     <use xlink:href="#TimesNewRomanPSMT-32" transform="translate(2530.859375 0)"/>
     <use xlink:href="#TimesNewRomanPSMT-2e" transform="translate(2580.859375 0)"/>
     <use xlink:href="#TimesNewRomanPSMT-31" transform="translate(2605.859375 0)"/>
     <use xlink:href="#TimesNewRomanPSMT-2b" transform="translate(2655.859375 0)"/>
     <use xlink:href="#TimesNewRomanPSMT-31" transform="translate(2712.255859 0)"/>
     <use xlink:href="#TimesNewRomanPSMT-29" transform="translate(2762.255859 0)"/>
     <use xlink:href="#TimesNewRomanPSMT-5f" transform="translate(2795.556641 0)"/>
     <use xlink:href="#TimesNewRomanPSMT-63" transform="translate(2845.556641 0)"/>
     <use xlink:href="#TimesNewRomanPSMT-61" transform="translate(2889.941406 0)"/>
     <use xlink:href="#TimesNewRomanPSMT-72" transform="translate(2934.326172 0)"/>
     <use xlink:href="#TimesNewRomanPSMT-2d" transform="translate(2965.626953 0)"/>
     <use xlink:href="#TimesNewRomanPSMT-70" transform="translate(2998.927734 0)"/>
     <use xlink:href="#TimesNewRomanPSMT-6c" transform="translate(3048.927734 0)"/>
     <use xlink:href="#TimesNewRomanPSMT-61" transform="translate(3076.710938 0)"/>
     <use xlink:href="#TimesNewRomanPSMT-6e" transform="translate(3121.095703 0)"/>
     <use xlink:href="#TimesNewRomanPSMT-65" transform="translate(3171.095703 0)"/>
     <use xlink:href="#TimesNewRomanPSMT-20" transform="translate(3215.480469 0)"/>
     <use xlink:href="#TimesNewRomanPSMT-6f" transform="translate(3240.480469 0)"/>
     <use xlink:href="#TimesNewRomanPSMT-6e" transform="translate(3290.480469 0)"/>
     <use xlink:href="#TimesNewRomanPSMT-20" transform="translate(3340.480469 0)"/>
     <use xlink:href="#TimesNewRomanPSMT-74" transform="translate(3365.480469 0)"/>
     <use xlink:href="#TimesNewRomanPSMT-68" transform="translate(3393.263672 0)"/>
     <use xlink:href="#TimesNewRomanPSMT-65" transform="translate(3443.263672 0)"/>
     <use xlink:href="#TimesNewRomanPSMT-20" transform="translate(3487.648438 0)"/>
     <use xlink:href="#TimesNewRomanPSMT-76" transform="translate(3512.648438 0)"/>
     <use xlink:href="#TimesNewRomanPSMT-61" transform="translate(3562.648438 0)"/>
     <use xlink:href="#TimesNewRomanPSMT-6c" transform="translate(3607.033203 0)"/>
     <use xlink:href="#TimesNewRomanPSMT-69" transform="translate(3634.816406 0)"/>
     <use xlink:href="#TimesNewRomanPSMT-64" transform="translate(3662.599609 0)"/>
     <use xlink:href="#TimesNewRomanPSMT-61" transform="translate(3712.599609 0)"/>
     <use xlink:href="#TimesNewRomanPSMT-74" transform="translate(3756.984375 0)"/>
     <use xlink:href="#TimesNewRomanPSMT-69" transform="translate(3784.767578 0)"/>
     <use xlink:href="#TimesNewRomanPSMT-6f" transform="translate(3812.550781 0)"/>
     <use xlink:href="#TimesNewRomanPSMT-6e" transform="translate(3862.550781 0)"/>
     <use xlink:href="#TimesNewRomanPSMT-20" transform="translate(3912.550781 0)"/>
     <use xlink:href="#TimesNewRomanPSMT-73" transform="translate(3937.550781 0)"/>
     <use xlink:href="#TimesNewRomanPSMT-65" transform="translate(3976.466797 0)"/>
     <use xlink:href="#TimesNewRomanPSMT-74" transform="translate(4020.851562 0)"/>
    </g>
   </g>
   <g id="legend_1">
    <g id="patch_7">
     <path d="M 378.464687 300.6435 
L 615.635 300.6435 
Q 620.035 300.6435 620.035 296.2435 
L 620.035 267.296312 
Q 620.035 262.896312 615.635 262.896312 
L 378.464687 262.896312 
Q 374.064687 262.896312 374.064687 267.296312 
L 374.064687 296.2435 
Q 374.064687 300.6435 378.464687 300.6435 
z
" style="fill: #ffffff; opacity: 0.8; stroke: #cccccc; stroke-linejoin: miter"/>
    </g>
    <g id="line2d_30">
     <path d="M 382.864688 279.396312 
L 404.864688 279.396312 
L 426.864688 279.396312 
" style="fill: none; stroke: #1f77b4; stroke-width: 1.5; stroke-linecap: square"/>
    </g>
    <g id="text_18">
     <!-- Best accuracy 0.86 -->
     <g transform="translate(444.464688 287.096312) scale(0.22 -0.22)">
      <defs>
       <path id="TimesNewRomanPSMT-42" d="M 2956 2163 
Q 3397 2069 3616 1863 
Q 3919 1575 3919 1159 
Q 3919 844 3719 555 
Q 3519 266 3170 133 
Q 2822 0 2106 0 
L 106 0 
L 106 116 
L 266 116 
Q 531 116 647 284 
Q 719 394 719 750 
L 719 3488 
Q 719 3881 628 3984 
Q 506 4122 266 4122 
L 106 4122 
L 106 4238 
L 1938 4238 
Q 2450 4238 2759 4163 
Q 3228 4050 3475 3764 
Q 3722 3478 3722 3106 
Q 3722 2788 3528 2536 
Q 3334 2284 2956 2163 
z
M 1319 2331 
Q 1434 2309 1582 2298 
Q 1731 2288 1909 2288 
Q 2366 2288 2595 2386 
Q 2825 2484 2947 2687 
Q 3069 2891 3069 3131 
Q 3069 3503 2766 3765 
Q 2463 4028 1881 4028 
Q 1569 4028 1319 3959 
L 1319 2331 
z
M 1319 306 
Q 1681 222 2034 222 
Q 2600 222 2897 476 
Q 3194 731 3194 1106 
Q 3194 1353 3059 1581 
Q 2925 1809 2622 1940 
Q 2319 2072 1872 2072 
Q 1678 2072 1540 2065 
Q 1403 2059 1319 2044 
L 1319 306 
z
" transform="scale(0.015625)"/>
      </defs>
      <use xlink:href="#TimesNewRomanPSMT-42"/>
      <use xlink:href="#TimesNewRomanPSMT-65" transform="translate(66.699219 0)"/>
      <use xlink:href="#TimesNewRomanPSMT-73" transform="translate(111.083984 0)"/>
      <use xlink:href="#TimesNewRomanPSMT-74" transform="translate(150 0)"/>
      <use xlink:href="#TimesNewRomanPSMT-20" transform="translate(177.783203 0)"/>
      <use xlink:href="#TimesNewRomanPSMT-61" transform="translate(202.783203 0)"/>
      <use xlink:href="#TimesNewRomanPSMT-63" transform="translate(247.167969 0)"/>
      <use xlink:href="#TimesNewRomanPSMT-63" transform="translate(291.552734 0)"/>
      <use xlink:href="#TimesNewRomanPSMT-75" transform="translate(335.9375 0)"/>
      <use xlink:href="#TimesNewRomanPSMT-72" transform="translate(385.9375 0)"/>
      <use xlink:href="#TimesNewRomanPSMT-61" transform="translate(419.238281 0)"/>
      <use xlink:href="#TimesNewRomanPSMT-63" transform="translate(463.623047 0)"/>
      <use xlink:href="#TimesNewRomanPSMT-79" transform="translate(508.007812 0)"/>
      <use xlink:href="#TimesNewRomanPSMT-20" transform="translate(558.007812 0)"/>
      <use xlink:href="#TimesNewRomanPSMT-30" transform="translate(583.007812 0)"/>
      <use xlink:href="#TimesNewRomanPSMT-2e" transform="translate(633.007812 0)"/>
      <use xlink:href="#TimesNewRomanPSMT-38" transform="translate(658.007812 0)"/>
      <use xlink:href="#TimesNewRomanPSMT-36" transform="translate(708.007812 0)"/>
     </g>
    </g>
   </g>
  </g>
 </g>
 <defs>
  <clipPath id="pc0432d6cd9">
   <rect x="363.064687" y="45.5315" width="357.12" height="266.112"/>
  </clipPath>
 </defs>
</svg>
