<?xml version="1.0" encoding="utf-8" standalone="no"?>
<!DOCTYPE svg PUBLIC "-//W3C//DTD SVG 1.1//EN"
  "http://www.w3.org/Graphics/SVG/1.1/DTD/svg11.dtd">
<svg xmlns:xlink="http://www.w3.org/1999/xlink" width="812.03475pt" height="383.265687pt" viewBox="0 0 812.03475 383.265687" xmlns="http://www.w3.org/2000/svg" version="1.1">
 <metadata>
  <rdf:RDF xmlns:dc="http://purl.org/dc/elements/1.1/" xmlns:cc="http://creativecommons.org/ns#" xmlns:rdf="http://www.w3.org/1999/02/22-rdf-syntax-ns#">
   <cc:Work>
    <dc:type rdf:resource="http://purl.org/dc/dcmitype/StillImage"/>
    <dc:date>2025-07-13T22:04:03.968621</dc:date>
    <dc:format>image/svg+xml</dc:format>
    <dc:creator>
     <cc:Agent>
      <dc:title>Matplotlib v3.10.3, https://matplotlib.org/</dc:title>
     </cc:Agent>
    </dc:creator>
   </cc:Work>
  </rdf:RDF>
 </metadata>
 <defs>
  <style type="text/css">*{stroke-linejoin: round; stroke-linecap: butt}</style>
 </defs>
 <g id="figure_1">
  <g id="patch_1">
   <path d="M 0 383.265687 
L 812.03475 383.265687 
L 812.03475 0 
L 0 0 
z
" style="fill: #ffffff"/>
  </g>
  <g id="axes_1">
   <g id="patch_2">
    <path d="M 227.457375 311.6435 
L 584.577375 311.6435 
L 584.577375 45.5315 
L 227.457375 45.5315 
z
" style="fill: #ffffff"/>
   </g>
   <g id="matplotlib.axis_1">
    <g id="xtick_1">
     <g id="line2d_1">
      <path d="M 227.457375 311.6435 
L 227.457375 45.5315 
" clip-path="url(#pc208d8d769)" style="fill: none; stroke: #b0b0b0; stroke-opacity: 0.3; stroke-width: 0.8; stroke-linecap: square"/>
     </g>
     <g id="line2d_2">
      <defs>
       <path id="m1dfb0c8b7f" d="M 0 0 
L 0 3.5 
" style="stroke: #000000; stroke-width: 0.8"/>
      </defs>
      <g>
       <use xlink:href="#m1dfb0c8b7f" x="227.457375" y="311.6435" style="stroke: #000000; stroke-width: 0.8"/>
      </g>
     </g>
     <g id="text_1">
      <!-- 0.0 -->
      <g transform="translate(213.707375 333.91975) scale(0.22 -0.22)">
       <defs>
        <path id="TimesNewRomanPSMT-30" d="M 231 2094 
Q 231 2819 450 3342 
Q 669 3866 1031 4122 
Q 1313 4325 1613 4325 
Q 2100 4325 2488 3828 
Q 2972 3213 2972 2159 
Q 2972 1422 2759 906 
Q 2547 391 2217 158 
Q 1888 -75 1581 -75 
Q 975 -75 572 641 
Q 231 1244 231 2094 
z
M 844 2016 
Q 844 1141 1059 588 
Q 1238 122 1591 122 
Q 1759 122 1940 273 
Q 2122 425 2216 781 
Q 2359 1319 2359 2297 
Q 2359 3022 2209 3506 
Q 2097 3866 1919 4016 
Q 1791 4119 1609 4119 
Q 1397 4119 1231 3928 
Q 1006 3669 925 3112 
Q 844 2556 844 2016 
z
" transform="scale(0.015625)"/>
        <path id="TimesNewRomanPSMT-2e" d="M 800 606 
Q 947 606 1047 504 
Q 1147 403 1147 259 
Q 1147 116 1045 14 
Q 944 -88 800 -88 
Q 656 -88 554 14 
Q 453 116 453 259 
Q 453 406 554 506 
Q 656 606 800 606 
z
" transform="scale(0.015625)"/>
       </defs>
       <use xlink:href="#TimesNewRomanPSMT-30"/>
       <use xlink:href="#TimesNewRomanPSMT-2e" transform="translate(50 0)"/>
       <use xlink:href="#TimesNewRomanPSMT-30" transform="translate(75 0)"/>
      </g>
     </g>
    </g>
    <g id="xtick_2">
     <g id="line2d_3">
      <path d="M 353.775762 311.6435 
L 353.775762 45.5315 
" clip-path="url(#pc208d8d769)" style="fill: none; stroke: #b0b0b0; stroke-opacity: 0.3; stroke-width: 0.8; stroke-linecap: square"/>
     </g>
     <g id="line2d_4">
      <g>
       <use xlink:href="#m1dfb0c8b7f" x="353.775762" y="311.6435" style="stroke: #000000; stroke-width: 0.8"/>
      </g>
     </g>
     <g id="text_2">
      <!-- 0.5 -->
      <g transform="translate(340.025762 333.91975) scale(0.22 -0.22)">
       <defs>
        <path id="TimesNewRomanPSMT-35" d="M 2778 4238 
L 2534 3706 
L 1259 3706 
L 981 3138 
Q 1809 3016 2294 2522 
Q 2709 2097 2709 1522 
Q 2709 1188 2573 903 
Q 2438 619 2231 419 
Q 2025 219 1772 97 
Q 1413 -75 1034 -75 
Q 653 -75 479 54 
Q 306 184 306 341 
Q 306 428 378 495 
Q 450 563 559 563 
Q 641 563 702 538 
Q 763 513 909 409 
Q 1144 247 1384 247 
Q 1750 247 2026 523 
Q 2303 800 2303 1197 
Q 2303 1581 2056 1914 
Q 1809 2247 1375 2428 
Q 1034 2569 447 2591 
L 1259 4238 
L 2778 4238 
z
" transform="scale(0.015625)"/>
       </defs>
       <use xlink:href="#TimesNewRomanPSMT-30"/>
       <use xlink:href="#TimesNewRomanPSMT-2e" transform="translate(50 0)"/>
       <use xlink:href="#TimesNewRomanPSMT-35" transform="translate(75 0)"/>
      </g>
     </g>
    </g>
    <g id="xtick_3">
     <g id="line2d_5">
      <path d="M 480.09415 311.6435 
L 480.09415 45.5315 
" clip-path="url(#pc208d8d769)" style="fill: none; stroke: #b0b0b0; stroke-opacity: 0.3; stroke-width: 0.8; stroke-linecap: square"/>
     </g>
     <g id="line2d_6">
      <g>
       <use xlink:href="#m1dfb0c8b7f" x="480.09415" y="311.6435" style="stroke: #000000; stroke-width: 0.8"/>
      </g>
     </g>
     <g id="text_3">
      <!-- 1.0 -->
      <g transform="translate(466.34415 333.91975) scale(0.22 -0.22)">
       <defs>
        <path id="TimesNewRomanPSMT-31" d="M 750 3822 
L 1781 4325 
L 1884 4325 
L 1884 747 
Q 1884 391 1914 303 
Q 1944 216 2037 169 
Q 2131 122 2419 116 
L 2419 0 
L 825 0 
L 825 116 
Q 1125 122 1212 167 
Q 1300 213 1334 289 
Q 1369 366 1369 747 
L 1369 3034 
Q 1369 3497 1338 3628 
Q 1316 3728 1258 3775 
Q 1200 3822 1119 3822 
Q 1003 3822 797 3725 
L 750 3822 
z
" transform="scale(0.015625)"/>
       </defs>
       <use xlink:href="#TimesNewRomanPSMT-31"/>
       <use xlink:href="#TimesNewRomanPSMT-2e" transform="translate(50 0)"/>
       <use xlink:href="#TimesNewRomanPSMT-30" transform="translate(75 0)"/>
      </g>
     </g>
    </g>
    <g id="text_4">
     <!-- $\kappa  = \frac{ln(n)}{ln(d)}$ -->
     <g transform="translate(374.007375 364.185687) scale(0.22 -0.22)">
      <defs>
       <path id="STIXGeneral-Italic-3ba" d="M 979 1440 
L 998 1446 
Q 1850 2541 2464 2790 
Q 2547 2822 2630 2822 
Q 2797 2822 2886 2736 
Q 2976 2650 2976 2522 
Q 2976 2387 2893 2307 
Q 2810 2227 2682 2227 
Q 2605 2227 2502 2288 
Q 2400 2349 2336 2349 
Q 2170 2349 1990 2205 
Q 1811 2061 1414 1645 
L 2042 544 
Q 2202 262 2310 182 
Q 2419 102 2624 102 
L 2624 0 
Q 2374 -83 2182 -83 
Q 1786 -83 1555 326 
L 960 1350 
L 576 0 
L 90 0 
L 640 1978 
Q 730 2317 730 2406 
Q 730 2560 518 2560 
L 339 2560 
L 339 2650 
Q 678 2694 1306 2822 
L 1325 2803 
L 979 1440 
z
" transform="scale(0.015625)"/>
       <path id="STIXGeneral-Regular-3d" d="M 4077 2048 
L 307 2048 
L 307 2470 
L 4077 2470 
L 4077 2048 
z
M 4077 768 
L 307 768 
L 307 1190 
L 4077 1190 
L 4077 768 
z
" transform="scale(0.015625)"/>
       <path id="STIXGeneral-Italic-6c" d="M 1786 4339 
L 806 595 
Q 755 410 755 320 
Q 755 205 864 205 
Q 1037 205 1293 570 
L 1453 794 
L 1542 730 
Q 1254 275 1046 102 
Q 838 -70 576 -70 
Q 262 -70 262 288 
Q 262 397 288 480 
L 1165 3834 
Q 1184 3898 1184 3955 
Q 1184 4096 870 4096 
L 755 4096 
L 755 4198 
Q 1203 4250 1747 4371 
L 1786 4339 
z
" transform="scale(0.015625)"/>
       <path id="STIXGeneral-Italic-6e" d="M 2944 749 
L 3034 666 
Q 2707 218 2534 80 
Q 2362 -58 2138 -58 
Q 2010 -58 1923 28 
Q 1837 115 1837 288 
Q 1837 390 1939 768 
L 2221 1805 
Q 2310 2150 2310 2310 
Q 2310 2496 2157 2496 
Q 1971 2496 1750 2275 
Q 1530 2054 1210 1587 
Q 998 1274 899 1024 
Q 800 774 570 0 
L 90 0 
L 704 2240 
Q 717 2304 717 2349 
Q 717 2445 630 2480 
Q 544 2515 301 2522 
L 301 2624 
Q 550 2675 857 2729 
Q 1165 2784 1338 2822 
L 1363 2810 
L 934 1414 
Q 1408 2170 1753 2496 
Q 2099 2822 2413 2822 
Q 2611 2822 2720 2716 
Q 2829 2611 2829 2432 
Q 2829 2272 2765 2048 
L 2406 749 
Q 2317 429 2317 358 
Q 2317 243 2419 243 
Q 2541 243 2810 582 
Q 2854 634 2944 749 
z
" transform="scale(0.015625)"/>
       <path id="STIXGeneral-Regular-28" d="M 1946 -1030 
L 1869 -1133 
Q 1126 -710 716 32 
Q 307 774 307 1613 
Q 307 3386 1888 4326 
L 1946 4224 
Q 1293 3667 1075 3126 
Q 858 2586 858 1632 
Q 858 685 1082 96 
Q 1306 -493 1946 -1030 
z
" transform="scale(0.015625)"/>
       <path id="STIXGeneral-Regular-29" d="M 186 4224 
L 262 4326 
Q 992 3891 1408 3148 
Q 1824 2406 1824 1581 
Q 1824 -166 243 -1133 
L 186 -1030 
Q 845 -486 1059 54 
Q 1274 595 1274 1562 
Q 1274 2534 1059 3120 
Q 845 3706 186 4224 
z
" transform="scale(0.015625)"/>
       <path id="STIXGeneral-Italic-64" d="M 3334 4371 
L 3373 4333 
L 3123 3360 
L 2739 1958 
Q 2323 429 2323 384 
Q 2323 256 2438 256 
Q 2522 256 2614 336 
Q 2707 416 2963 710 
L 3040 646 
Q 2547 -83 2099 -83 
Q 1978 -83 1907 -6 
Q 1837 70 1837 205 
Q 1837 397 1920 774 
Q 1645 307 1379 118 
Q 1114 -70 781 -70 
Q 461 -70 278 125 
Q 96 320 96 678 
Q 96 1440 713 2131 
Q 1331 2822 1965 2822 
Q 2163 2822 2256 2732 
Q 2349 2643 2381 2451 
L 2387 2451 
L 2675 3494 
Q 2765 3808 2765 3949 
Q 2765 4051 2694 4076 
Q 2624 4102 2355 4115 
L 2355 4224 
Q 2848 4269 3334 4371 
z
M 2278 2310 
Q 2278 2477 2185 2576 
Q 2093 2675 1978 2675 
Q 1677 2675 1395 2381 
Q 1075 2042 864 1571 
Q 653 1101 653 704 
Q 653 486 752 361 
Q 851 237 1024 237 
Q 1312 237 1606 550 
Q 1901 864 2089 1350 
Q 2278 1837 2278 2310 
z
" transform="scale(0.015625)"/>
      </defs>
      <use xlink:href="#STIXGeneral-Italic-3ba" transform="translate(0 0.003125)"/>
      <use xlink:href="#STIXGeneral-Regular-3d" transform="translate(58.83999 0.003125)"/>
      <use xlink:href="#STIXGeneral-Italic-6c" transform="translate(141.779971 50.192188) scale(0.7)"/>
      <use xlink:href="#STIXGeneral-Italic-6e" transform="translate(161.239963 50.192188) scale(0.7)"/>
      <use xlink:href="#STIXGeneral-Regular-28" transform="translate(196.239952 50.192188) scale(0.7)"/>
      <use xlink:href="#STIXGeneral-Italic-6e" transform="translate(219.549944 50.192188) scale(0.7)"/>
      <use xlink:href="#STIXGeneral-Regular-29" transform="translate(254.549933 50.192188) scale(0.7)"/>
      <use xlink:href="#STIXGeneral-Italic-6c" transform="translate(141.779971 -41.257812) scale(0.7)"/>
      <use xlink:href="#STIXGeneral-Italic-6e" transform="translate(161.239963 -41.257812) scale(0.7)"/>
      <use xlink:href="#STIXGeneral-Regular-28" transform="translate(196.239952 -41.257812) scale(0.7)"/>
      <use xlink:href="#STIXGeneral-Italic-64" transform="translate(219.549944 -41.257812) scale(0.7)"/>
      <use xlink:href="#STIXGeneral-Regular-29" transform="translate(254.549933 -41.257812) scale(0.7)"/>
      <path d="M 141.779971 12.8 
L 141.779971 19.05 
L 277.859924 19.05 
L 277.859924 12.8 
L 141.779971 12.8 
z
"/>
     </g>
    </g>
   </g>
   <g id="matplotlib.axis_2">
    <g id="ytick_1">
     <g id="line2d_7">
      <path d="M 227.457375 311.6435 
L 584.577375 311.6435 
" clip-path="url(#pc208d8d769)" style="fill: none; stroke: #b0b0b0; stroke-opacity: 0.3; stroke-width: 0.8; stroke-linecap: square"/>
     </g>
     <g id="line2d_8">
      <defs>
       <path id="m28bf719222" d="M 0 0 
L -3.5 0 
" style="stroke: #000000; stroke-width: 0.8"/>
      </defs>
      <g>
       <use xlink:href="#m28bf719222" x="227.457375" y="311.6435" style="stroke: #000000; stroke-width: 0.8"/>
      </g>
     </g>
     <g id="text_5">
      <!-- 0.0 -->
      <g transform="translate(192.957375 319.281625) scale(0.22 -0.22)">
       <use xlink:href="#TimesNewRomanPSMT-30"/>
       <use xlink:href="#TimesNewRomanPSMT-2e" transform="translate(50 0)"/>
       <use xlink:href="#TimesNewRomanPSMT-30" transform="translate(75 0)"/>
      </g>
     </g>
    </g>
    <g id="ytick_2">
     <g id="line2d_9">
      <path d="M 227.457375 224.471955 
L 584.577375 224.471955 
" clip-path="url(#pc208d8d769)" style="fill: none; stroke: #b0b0b0; stroke-opacity: 0.3; stroke-width: 0.8; stroke-linecap: square"/>
     </g>
     <g id="line2d_10">
      <g>
       <use xlink:href="#m28bf719222" x="227.457375" y="224.471955" style="stroke: #000000; stroke-width: 0.8"/>
      </g>
     </g>
     <g id="text_6">
      <!-- 0.1 -->
      <g transform="translate(192.957375 232.11008) scale(0.22 -0.22)">
       <use xlink:href="#TimesNewRomanPSMT-30"/>
       <use xlink:href="#TimesNewRomanPSMT-2e" transform="translate(50 0)"/>
       <use xlink:href="#TimesNewRomanPSMT-31" transform="translate(75 0)"/>
      </g>
     </g>
    </g>
    <g id="ytick_3">
     <g id="line2d_11">
      <path d="M 227.457375 137.300411 
L 584.577375 137.300411 
" clip-path="url(#pc208d8d769)" style="fill: none; stroke: #b0b0b0; stroke-opacity: 0.3; stroke-width: 0.8; stroke-linecap: square"/>
     </g>
     <g id="line2d_12">
      <g>
       <use xlink:href="#m28bf719222" x="227.457375" y="137.300411" style="stroke: #000000; stroke-width: 0.8"/>
      </g>
     </g>
     <g id="text_7">
      <!-- 0.2 -->
      <g transform="translate(192.957375 144.938536) scale(0.22 -0.22)">
       <defs>
        <path id="TimesNewRomanPSMT-32" d="M 2934 816 
L 2638 0 
L 138 0 
L 138 116 
Q 1241 1122 1691 1759 
Q 2141 2397 2141 2925 
Q 2141 3328 1894 3587 
Q 1647 3847 1303 3847 
Q 991 3847 742 3664 
Q 494 3481 375 3128 
L 259 3128 
Q 338 3706 661 4015 
Q 984 4325 1469 4325 
Q 1984 4325 2329 3994 
Q 2675 3663 2675 3213 
Q 2675 2891 2525 2569 
Q 2294 2063 1775 1497 
Q 997 647 803 472 
L 1909 472 
Q 2247 472 2383 497 
Q 2519 522 2628 598 
Q 2738 675 2819 816 
L 2934 816 
z
" transform="scale(0.015625)"/>
       </defs>
       <use xlink:href="#TimesNewRomanPSMT-30"/>
       <use xlink:href="#TimesNewRomanPSMT-2e" transform="translate(50 0)"/>
       <use xlink:href="#TimesNewRomanPSMT-32" transform="translate(75 0)"/>
      </g>
     </g>
    </g>
    <g id="ytick_4">
     <g id="line2d_13">
      <path d="M 227.457375 50.128866 
L 584.577375 50.128866 
" clip-path="url(#pc208d8d769)" style="fill: none; stroke: #b0b0b0; stroke-opacity: 0.3; stroke-width: 0.8; stroke-linecap: square"/>
     </g>
     <g id="line2d_14">
      <g>
       <use xlink:href="#m28bf719222" x="227.457375" y="50.128866" style="stroke: #000000; stroke-width: 0.8"/>
      </g>
     </g>
     <g id="text_8">
      <!-- 0.3 -->
      <g transform="translate(192.957375 57.766991) scale(0.22 -0.22)">
       <defs>
        <path id="TimesNewRomanPSMT-33" d="M 325 3431 
Q 506 3859 782 4092 
Q 1059 4325 1472 4325 
Q 1981 4325 2253 3994 
Q 2459 3747 2459 3466 
Q 2459 3003 1878 2509 
Q 2269 2356 2469 2072 
Q 2669 1788 2669 1403 
Q 2669 853 2319 450 
Q 1863 -75 997 -75 
Q 569 -75 414 31 
Q 259 138 259 259 
Q 259 350 332 419 
Q 406 488 509 488 
Q 588 488 669 463 
Q 722 447 909 348 
Q 1097 250 1169 231 
Q 1284 197 1416 197 
Q 1734 197 1970 444 
Q 2206 691 2206 1028 
Q 2206 1275 2097 1509 
Q 2016 1684 1919 1775 
Q 1784 1900 1550 2001 
Q 1316 2103 1072 2103 
L 972 2103 
L 972 2197 
Q 1219 2228 1467 2375 
Q 1716 2522 1828 2728 
Q 1941 2934 1941 3181 
Q 1941 3503 1739 3701 
Q 1538 3900 1238 3900 
Q 753 3900 428 3381 
L 325 3431 
z
" transform="scale(0.015625)"/>
       </defs>
       <use xlink:href="#TimesNewRomanPSMT-30"/>
       <use xlink:href="#TimesNewRomanPSMT-2e" transform="translate(50 0)"/>
       <use xlink:href="#TimesNewRomanPSMT-33" transform="translate(75 0)"/>
      </g>
     </g>
    </g>
    <g id="text_9">
     <!-- Loss -->
     <g transform="translate(184.251438 199.368906) rotate(-90) scale(0.22 -0.22)">
      <defs>
       <path id="TimesNewRomanPSMT-4c" d="M 3669 1172 
L 3772 1150 
L 3409 0 
L 128 0 
L 128 116 
L 288 116 
Q 556 116 672 291 
Q 738 391 738 753 
L 738 3488 
Q 738 3884 650 3984 
Q 528 4122 288 4122 
L 128 4122 
L 128 4238 
L 2047 4238 
L 2047 4122 
Q 1709 4125 1573 4059 
Q 1438 3994 1388 3894 
Q 1338 3794 1338 3416 
L 1338 753 
Q 1338 494 1388 397 
Q 1425 331 1503 300 
Q 1581 269 1991 269 
L 2300 269 
Q 2788 269 2984 341 
Q 3181 413 3343 595 
Q 3506 778 3669 1172 
z
" transform="scale(0.015625)"/>
       <path id="TimesNewRomanPSMT-6f" d="M 1600 2947 
Q 2250 2947 2644 2453 
Q 2978 2031 2978 1484 
Q 2978 1100 2793 706 
Q 2609 313 2286 112 
Q 1963 -88 1566 -88 
Q 919 -88 538 428 
Q 216 863 216 1403 
Q 216 1797 411 2186 
Q 606 2575 925 2761 
Q 1244 2947 1600 2947 
z
M 1503 2744 
Q 1338 2744 1170 2645 
Q 1003 2547 900 2300 
Q 797 2053 797 1666 
Q 797 1041 1045 587 
Q 1294 134 1700 134 
Q 2003 134 2200 384 
Q 2397 634 2397 1244 
Q 2397 2006 2069 2444 
Q 1847 2744 1503 2744 
z
" transform="scale(0.015625)"/>
       <path id="TimesNewRomanPSMT-73" d="M 2050 2947 
L 2050 1972 
L 1947 1972 
Q 1828 2431 1642 2597 
Q 1456 2763 1169 2763 
Q 950 2763 815 2647 
Q 681 2531 681 2391 
Q 681 2216 781 2091 
Q 878 1963 1175 1819 
L 1631 1597 
Q 2266 1288 2266 781 
Q 2266 391 1970 151 
Q 1675 -88 1309 -88 
Q 1047 -88 709 6 
Q 606 38 541 38 
Q 469 38 428 -44 
L 325 -44 
L 325 978 
L 428 978 
Q 516 541 762 319 
Q 1009 97 1316 97 
Q 1531 97 1667 223 
Q 1803 350 1803 528 
Q 1803 744 1651 891 
Q 1500 1038 1047 1263 
Q 594 1488 453 1669 
Q 313 1847 313 2119 
Q 313 2472 555 2709 
Q 797 2947 1181 2947 
Q 1350 2947 1591 2875 
Q 1750 2828 1803 2828 
Q 1853 2828 1881 2850 
Q 1909 2872 1947 2947 
L 2050 2947 
z
" transform="scale(0.015625)"/>
      </defs>
      <use xlink:href="#TimesNewRomanPSMT-4c"/>
      <use xlink:href="#TimesNewRomanPSMT-6f" transform="translate(61.083984 0)"/>
      <use xlink:href="#TimesNewRomanPSMT-73" transform="translate(111.083984 0)"/>
      <use xlink:href="#TimesNewRomanPSMT-73" transform="translate(150 0)"/>
     </g>
    </g>
   </g>
   <g id="line2d_15">
    <path d="M 227.457375 94.39563 
L 314.871912 160.533349 
L 338.440827 171.010479 
L 352.636234 174.96114 
L 362.826626 174.305102 
L 370.781571 178.670417 
L 377.307541 184.750342 
L 382.840575 191.405406 
L 387.643305 193.445912 
L 391.886229 195.943742 
L 395.686331 197.69649 
L 399.127371 206.417306 
L 402.271383 206.521034 
L 405.165595 210.282327 
L 407.846798 214.296436 
L 410.344206 221.890933 
L 412.681411 223.635815 
L 414.877731 226.608291 
L 416.949191 224.193555 
L 418.909227 222.741542 
L 420.769216 231.367748 
L 422.538878 227.384703 
L 424.22658 234.894495 
L 425.839581 238.585034 
L 427.384213 239.831221 
L 428.866037 238.654664 
L 430.289962 239.050937 
L 431.660344 240.468892 
L 432.981062 244.290924 
L 434.255593 246.225227 
L 435.487056 249.234801 
L 436.678268 250.365472 
L 437.831777 252.587565 
L 438.949896 251.011216 
L 440.034733 252.916312 
L 441.088212 251.768729 
L 442.112095 254.709633 
L 443.107999 258.447103 
L 444.077414 255.398528 
L 445.021711 258.677908 
L 445.94216 261.305036 
L 446.839935 260.083578 
L 447.716126 259.099693 
L 448.571749 265.501184 
L 449.407744 264.855028 
L 450.224994 266.131065 
L 451.806493 262.314378 
L 452.572232 267.310424 
L 453.322213 268.406266 
L 454.057073 272.462829 
L 454.777409 267.641015 
L 455.483784 273.502855 
L 456.17673 272.824744 
L 456.856746 271.215262 
L 457.524307 268.495709 
L 458.179861 276.291599 
L 458.823832 272.426565 
L 459.456622 275.897843 
L 460.078614 275.295471 
L 460.690169 277.12048 
L 461.88333 274.695295 
L 462.465575 279.119121 
L 463.038666 281.387068 
L 463.602885 281.526819 
L 464.158502 281.95001 
L 464.705777 281.796074 
L 465.244956 280.927315 
L 465.776274 285.411612 
L 466.299959 283.353981 
L 466.816225 282.725715 
L 467.325281 283.870479 
L 467.827325 283.598237 
L 468.322547 281.072902 
L 468.811131 285.489279 
L 469.293252 283.349386 
L 469.769079 286.424796 
L 470.238773 286.453969 
L 470.702492 288.334839 
L 471.160385 285.309876 
L 471.612597 285.891043 
L 472.059267 287.57311 
L 472.500529 287.643523 
L 472.936513 292.830254 
L 473.367343 288.481979 
L 473.79314 290.021613 
L 474.21402 288.586566 
L 474.630095 290.185038 
L 475.041474 289.969708 
L 475.448262 293.213029 
L 475.85056 294.250906 
L 476.248465 291.980394 
L 477.031477 296.089627 
L 477.416764 293.922982 
L 477.798021 295.837069 
L 478.175331 294.802526 
L 478.548774 294.910088 
L 478.918431 295.355242 
L 479.284376 294.67898 
L 479.646683 295.493587 
L 480.005424 298.491215 
L 480.712484 293.922003 
L 481.060936 296.890499 
L 481.406088 296.51453 
L 481.748002 297.310768 
L 482.086739 298.988765 
L 482.422356 299.861425 
L 482.754912 298.529531 
L 483.411055 297.217705 
L 483.73475 298.622921 
L 484.373641 297.275867 
L 484.688936 301.712738 
L 485.001526 299.036689 
L 485.311458 301.083854 
L 485.618777 296.306181 
L 485.923526 301.214146 
L 486.225748 299.586088 
L 486.525485 300.263436 
L 486.822777 299.792994 
L 487.117664 299.024022 
L 487.410184 299.290443 
L 487.700375 302.147847 
L 488.273916 298.469908 
L 488.557337 299.841262 
L 488.838572 301.876367 
L 489.117653 299.747996 
L 489.394613 300.799357 
L 489.669485 300.116204 
L 490.213086 301.686945 
L 490.481876 300.363855 
L 490.748699 302.191987 
L 491.013582 301.304299 
L 491.276554 301.874034 
L 491.537643 303.175205 
L 491.796874 301.739472 
L 492.054275 302.6756 
L 492.309871 304.382344 
L 492.563687 301.871571 
L 492.815747 300.582641 
L 493.066076 304.223951 
L 493.314698 304.243313 
L 493.561635 303.782734 
L 493.806911 304.658063 
L 494.050546 302.37202 
L 494.292565 304.254335 
L 494.532986 302.271486 
L 495.009124 304.187291 
L 495.24488 304.206509 
L 495.479121 302.40956 
L 495.943135 304.400837 
L 496.172945 304.074226 
L 496.401315 304.269964 
L 496.628264 303.480693 
L 496.853808 305.805596 
L 497.077965 305.097903 
L 497.300751 304.976418 
L 497.522185 303.458969 
L 497.742281 303.566798 
L 497.961056 305.180258 
L 498.178525 304.964122 
L 498.394705 304.149988 
L 498.60961 306.089377 
L 498.823255 304.840771 
L 499.035656 306.122147 
L 499.456779 304.363207 
L 499.66553 305.977427 
L 499.873092 305.873873 
L 500.079478 303.732536 
L 500.284703 305.584682 
L 500.488778 305.915028 
L 500.691718 305.060291 
L 500.893533 306.224996 
L 501.094237 305.72865 
L 501.293842 304.460691 
L 501.49236 304.08789 
L 501.689803 306.422799 
L 502.081508 304.366832 
L 502.275793 306.186835 
L 502.469048 305.869445 
L 502.661283 306.981424 
L 502.85251 305.618168 
L 503.231981 306.286903 
L 503.420244 307.37047 
L 503.607541 306.51433 
L 503.79388 306.430003 
L 503.979271 307.46839 
L 504.163723 307.840795 
L 504.347247 307.257992 
L 504.529852 307.33542 
L 504.711546 304.554207 
L 504.892339 306.897532 
L 505.07224 306.833406 
L 505.429399 306.183259 
L 505.606674 307.129028 
L 505.783092 306.587237 
L 505.95866 307.667887 
L 506.133386 305.404845 
L 506.307278 305.638156 
L 506.480345 305.103281 
L 506.652594 307.169239 
L 506.824032 307.736345 
L 506.994669 306.721232 
L 507.164509 307.281723 
L 507.333563 308.431929 
L 507.669335 307.508364 
L 508.002041 307.094819 
L 508.167263 308.411256 
L 508.331739 305.308386 
L 508.495476 308.027774 
L 508.65848 305.642182 
L 508.982319 307.921138 
L 509.303306 308.993553 
L 509.462745 306.252781 
L 509.62149 306.567588 
L 509.779547 307.834787 
L 509.936921 306.760779 
L 510.093618 306.843728 
L 510.249645 305.916696 
L 510.405007 308.263437 
L 510.559709 306.906476 
L 510.713757 307.624472 
L 510.867157 305.975585 
L 511.019914 307.735809 
L 511.172034 307.136153 
L 511.323521 305.217686 
L 511.62462 307.748199 
L 511.774242 307.053408 
L 512.071655 308.274986 
L 512.219456 307.642872 
L 512.366661 306.408585 
L 512.513273 307.775443 
L 512.659298 306.582365 
L 512.80474 306.789127 
L 512.949605 308.477262 
L 513.093895 307.994303 
L 513.237617 308.583031 
L 513.380774 308.572151 
L 513.523372 307.643736 
L 513.806903 308.319676 
L 513.947846 308.522045 
L 514.367434 306.603015 
L 514.644499 307.549624 
L 514.782246 305.678395 
L 515.056188 307.7236 
L 515.192391 307.671786 
L 515.328086 308.105069 
L 515.463278 307.214148 
L 515.597971 307.722746 
L 515.732168 307.705699 
L 515.865872 307.208436 
L 515.999088 307.188231 
L 516.131819 306.200432 
L 516.264068 307.942696 
L 516.395839 307.728394 
L 516.527135 306.704943 
L 516.65796 308.947816 
L 516.918209 307.426964 
L 517.176614 308.468934 
L 517.305132 307.262974 
L 517.433199 308.762675 
L 517.560817 307.540571 
L 517.68799 307.513322 
L 517.814721 308.982873 
L 518.066869 305.129327 
L 518.192292 307.820383 
L 518.317284 305.919909 
L 518.44185 306.631714 
L 518.68971 309.247791 
L 518.813011 307.686977 
L 518.935897 309.281888 
L 519.058369 308.115086 
L 519.180432 308.331774 
L 519.302087 306.886878 
L 519.423337 309.790119 
L 519.664634 307.639849 
L 519.784686 307.840577 
L 519.904344 305.951601 
L 520.142488 308.379743 
L 520.260979 308.111228 
L 520.496812 308.623819 
L 520.731128 306.677552 
L 520.847724 306.910374 
L 520.963948 307.925602 
L 521.195289 307.671019 
L 521.310412 307.668833 
L 521.425172 308.892803 
L 521.539572 308.909115 
L 521.653614 308.630195 
L 521.7673 306.721009 
L 521.880633 307.922214 
L 521.993615 307.910079 
L 522.106247 308.669574 
L 522.218532 307.687412 
L 522.553327 308.41196 
L 522.774828 307.918656 
L 522.885075 308.408066 
L 522.99499 308.214046 
L 523.104575 307.472891 
L 523.213831 307.71591 
L 523.32276 309.418427 
L 523.539648 308.16828 
L 523.647609 308.223407 
L 523.755252 309.436895 
L 523.969588 307.509243 
L 524.076286 307.486315 
L 524.182671 309.412175 
L 524.288748 308.713225 
L 524.394516 307.029873 
L 524.605137 309.446248 
L 524.918803 307.995678 
L 525.022761 307.762527 
L 525.126424 308.961319 
L 525.229793 307.814107 
L 525.435655 308.001412 
L 525.538152 309.183305 
L 525.640361 308.480176 
L 525.843923 310.014712 
L 526.046355 307.752479 
L 526.247669 308.497703 
L 526.347911 306.794847 
L 526.447877 309.344378 
L 526.54757 308.998821 
L 526.646992 309.791529 
L 526.845024 307.78276 
L 527.041986 309.233505 
L 527.14007 309.497089 
L 527.23789 309.005389 
L 527.432746 309.460778 
L 527.529785 306.581639 
L 527.723091 309.247433 
L 527.819361 308.291178 
L 527.915378 308.78147 
L 528.011142 308.055668 
L 528.106655 308.2967 
L 528.296934 308.065915 
L 528.486224 308.539216 
L 528.580502 308.082785 
L 528.674536 309.278129 
L 528.768329 308.798893 
L 528.861881 307.589511 
L 528.955193 307.838782 
L 529.048267 309.290806 
L 529.233705 307.35618 
L 529.326072 308.080884 
L 529.418205 307.117206 
L 529.510106 309.294507 
L 529.601775 308.58162 
L 529.693215 309.797446 
L 529.784425 307.599983 
L 529.875408 308.581675 
L 530.056696 307.849975 
L 530.237086 308.584374 
L 530.326948 307.134733 
L 530.506009 309.790917 
L 530.59521 307.13681 
L 530.684194 309.795571 
L 530.772961 306.901526 
L 530.94985 308.833058 
L 531.037973 308.115282 
L 531.125884 309.088737 
L 531.213583 308.829193 
L 531.388351 308.124538 
L 531.475422 309.081669 
L 531.562285 308.837483 
L 531.648942 308.850123 
L 531.735393 307.634862 
L 531.821639 309.57382 
L 531.907682 308.835026 
L 532.079161 309.582271 
L 532.164599 309.091369 
L 532.249837 309.5667 
L 532.504362 307.647525 
L 532.58881 308.858518 
L 532.757122 307.696295 
L 532.840987 54.613272 
L 532.924659 68.277315 
L 533.00814 67.263686 
L 533.091431 60.976889 
L 533.174531 66.345973 
L 533.422701 99.141786 
L 533.50505 99.232427 
L 533.587214 119.45067 
L 533.669193 113.408129 
L 533.995277 185.763386 
L 534.398822 283.998829 
L 534.478997 282.462867 
L 534.638821 292.882165 
L 534.718471 291.9779 
L 534.956382 303.892911 
L 535.11413 304.574537 
L 535.192749 307.171497 
L 535.271199 307.00379 
L 535.349481 305.769979 
L 535.427594 306.48448 
L 535.505541 309.378454 
L 535.583321 307.045195 
L 535.660936 309.545248 
L 535.815671 307.603403 
L 535.969752 307.760805 
L 536.123184 309.100605 
L 536.275973 306.823908 
L 536.352128 308.844149 
L 536.428124 308.363306 
L 536.579643 308.400383 
L 536.655167 306.700173 
L 536.730534 307.718507 
L 536.805747 307.023358 
L 536.880804 309.484676 
L 536.955707 307.724603 
L 537.030456 308.269853 
L 537.105053 309.683158 
L 537.179497 309.167045 
L 537.253789 307.278668 
L 537.32793 308.272009 
L 537.401921 306.637085 
L 537.475762 308.360152 
L 537.549453 307.827158 
L 537.622996 309.11086 
L 537.69639 308.541378 
L 537.842738 308.354989 
L 537.915692 309.546968 
L 537.9885 307.15366 
L 538.061163 308.387392 
L 538.133682 307.909547 
L 538.206056 310.110093 
L 538.278287 307.662311 
L 538.350375 308.390193 
L 538.422321 308.908371 
L 538.494126 307.911237 
L 538.565789 309.611915 
L 538.637311 309.367315 
L 538.708693 309.362204 
L 538.779936 307.462895 
L 538.922005 308.663689 
L 538.992832 307.92717 
L 539.134076 308.679347 
L 539.204493 308.6604 
L 539.274774 309.890268 
L 539.34492 309.152153 
L 539.414931 306.501711 
L 539.554551 309.197488 
L 539.693638 308.471057 
L 539.762983 307.744062 
L 539.832197 308.969116 
L 539.901279 307.525963 
L 540.039052 309.943992 
L 540.107744 307.791069 
L 540.176306 308.97665 
L 540.313045 307.304242 
L 540.381223 309.231042 
L 540.517197 306.341523 
L 540.652666 308.517824 
L 540.720212 306.323994 
L 540.787633 309.003 
L 540.854929 308.521248 
L 540.922102 308.763237 
L 540.98915 307.309127 
L 541.122879 308.526588 
L 541.18956 308.511369 
L 541.322557 309.000724 
L 541.388874 308.050836 
L 541.521147 310.456666 
L 541.587104 309.7573 
L 541.718661 308.048138 
L 541.784262 308.298029 
L 541.849745 309.027635 
L 541.91511 308.071933 
L 541.980359 308.535868 
L 542.045491 308.799838 
L 542.175406 308.546682 
L 542.240191 309.516462 
L 542.30486 307.833027 
L 542.369415 310.011621 
L 542.562397 306.637084 
L 542.690487 309.537761 
L 542.754363 308.327425 
L 542.818128 308.07468 
L 542.881781 308.824455 
L 542.945323 307.835372 
L 543.008755 308.090739 
L 543.135288 308.582183 
L 543.19839 306.653164 
L 543.261383 308.575312 
L 543.324267 308.33245 
L 543.387043 308.342767 
L 543.512272 309.06204 
L 543.574725 307.614869 
L 543.699312 310.528716 
L 543.761446 309.796818 
L 543.823474 308.575151 
L 543.885397 309.31303 
L 543.947215 309.556207 
L 544.008928 308.584161 
L 544.070537 309.315391 
L 544.254741 308.59879 
L 544.377029 308.821103 
L 544.559694 307.866529 
L 544.62038 309.076771 
L 544.680965 307.387805 
L 544.741449 309.331129 
L 544.801833 309.086628 
L 544.922302 308.843827 
L 544.982387 309.577262 
L 545.162051 308.610601 
L 545.221743 308.125144 
L 545.281337 309.095456 
L 545.340834 308.366193 
L 545.400234 308.112744 
L 545.459537 308.371035 
L 545.518744 310.073312 
L 545.577855 308.852046 
L 545.63687 308.611673 
L 545.754615 309.584948 
L 545.930521 307.409525 
L 546.047322 310.318987 
L 546.221825 307.650208 
L 546.279808 308.874998 
L 546.337698 308.151377 
L 546.395497 307.42036 
L 546.453204 309.599637 
L 546.51082 307.907874 
L 546.568345 309.121181 
L 546.625779 307.662713 
L 546.740377 309.353044 
L 546.854615 308.390575 
L 546.968497 309.600394 
L 547.025305 308.887772 
L 547.082024 309.356702 
L 547.138655 309.354223 
L 547.195198 309.603122 
L 547.251654 307.671661 
L 547.308022 309.107762 
L 547.364304 307.665341 
L 547.420498 308.880037 
L 547.476606 308.887845 
L 547.532628 310.330096 
L 547.588564 308.160959 
L 547.644414 308.403144 
L 547.700179 308.157138 
L 547.755858 308.641591 
L 547.866963 307.437541 
L 548.088161 309.592843 
L 548.143251 308.641331 
L 548.198258 309.858995 
L 548.253183 308.162347 
L 548.308024 309.369684 
L 548.417461 310.103211 
L 548.52657 308.168432 
L 548.581002 310.095315 
L 548.635353 308.884867 
L 548.689623 309.372363 
L 548.85195 307.928093 
L 549.013557 309.140559 
L 549.067268 308.894459 
L 549.120899 307.438343 
L 549.174451 307.441579 
L 549.227925 309.628247 
L 549.281321 308.9052 
L 549.387878 308.16798 
L 549.44104 308.657428 
L 549.494124 306.724746 
L 549.547131 309.140534 
L 549.600062 307.933695 
L 549.811017 309.866994 
L 549.916039 307.942953 
L 549.968437 309.880238 
L 550.020759 307.204544 
L 550.073007 309.154989 
L 550.229301 307.940677 
L 550.333126 310.603849 
L 550.436656 307.702294 
L 550.488311 309.637437 
L 550.539893 308.677169 
L 550.642839 309.394724 
L 550.694203 308.430042 
L 550.745494 310.478163 
L 550.796714 308.89985 
L 550.847861 308.415633 
L 550.898937 308.670777 
L 550.949942 308.662742 
L 551.000875 308.907724 
L 551.051737 308.676566 
L 551.102528 307.94211 
L 551.153249 309.159801 
L 551.203899 308.433357 
L 551.254479 308.672035 
L 551.304988 308.193718 
L 551.456099 309.870231 
L 551.556492 308.429751 
L 551.606585 309.884309 
L 551.65661 307.457125 
L 551.706565 308.435806 
L 551.905707 309.162767 
L 552.004871 308.194475 
L 552.103766 309.162718 
L 552.153113 308.924528 
L 552.202394 308.439752 
L 552.251608 309.40529 
L 552.300755 308.43812 
L 552.496685 309.895503 
L 552.594257 308.199919 
L 552.740126 309.892335 
L 552.788619 307.231745 
L 552.837049 309.171757 
L 552.885413 310.136237 
L 552.933714 309.170796 
L 552.981951 309.6527 
L 553.12628 308.20211 
L 553.174263 310.619236 
L 553.222183 308.932014 
L 553.270039 306.993464 
L 553.317834 309.415332 
L 553.365565 310.382568 
L 553.460841 308.931251 
L 553.555869 309.901137 
L 553.792359 306.996531 
L 553.839474 307.965732 
L 553.980453 309.417262 
L 554.027325 309.658189 
L 554.074137 307.240101 
L 554.120889 309.901761 
L 554.167581 308.44924 
L 554.214213 309.173467 
L 554.260786 309.907856 
L 554.307299 308.455674 
L 554.353753 310.146928 
L 554.400148 308.933407 
L 554.492761 308.695545 
L 554.538979 309.909293 
L 554.585139 306.758815 
L 554.63124 309.182559 
L 554.677284 309.906106 
L 554.769196 308.21474 
L 554.906631 309.666871 
L 554.952328 307.729968 
L 554.997967 308.941026 
L 555.04355 310.150098 
L 555.089076 308.939935 
L 555.134544 309.182575 
L 555.179957 307.976747 
L 555.225312 309.182743 
L 555.270611 309.668517 
L 555.315854 309.426938 
L 555.406172 307.731776 
L 555.451248 309.428036 
L 555.496267 307.731942 
L 555.541231 307.732828 
L 555.630993 309.670006 
L 555.720534 307.247899 
L 555.854435 309.672495 
L 555.94343 307.97517 
L 555.987846 308.704293 
L 556.076516 308.946931 
L 556.12077 308.463896 
L 556.164971 309.915375 
L 556.253211 309.430869 
L 556.297252 308.45861 
L 556.385173 308.466449 
L 556.429054 309.6719 
L 556.472883 309.189223 
L 556.560382 309.429656 
L 556.604053 308.705606 
L 556.734753 309.915052 
L 556.778216 307.735564 
L 556.821626 308.220439 
L 556.864986 310.159314 
L 556.908293 306.528894 
L 556.95155 308.464314 
L 557.081012 308.706207 
L 557.124064 308.46738 
L 557.167065 307.536747 
L 557.210015 308.222202 
L 557.338564 308.947726 
L 557.381313 309.189198 
L 557.466661 308.223691 
L 557.50926 309.190807 
L 557.551809 308.223947 
L 557.594309 307.982798 
L 557.636759 309.434951 
L 557.721512 308.95243 
L 557.848272 309.677329 
L 557.932535 308.710769 
L 558.058564 309.680492 
L 558.26765 307.016366 
L 558.309324 310.406448 
L 558.392529 309.679861 
L 558.475544 309.921556 
L 558.516981 308.228801 
L 558.55837 308.95344 
L 558.599713 308.228993 
L 558.641009 307.745616 
L 558.764617 309.924199 
L 558.805727 307.985813 
L 558.887807 308.714978 
L 559.010582 309.68283 
L 559.132945 308.47109 
L 559.214293 309.926668 
L 559.254898 309.443034 
L 559.335975 308.473612 
L 559.376445 309.443259 
L 559.416871 307.989019 
L 559.537879 309.198541 
L 559.578127 307.969218 
L 559.618329 309.639104 
L 559.658488 129.154907 
L 559.738672 243.730463 
L 559.978172 302.155658 
L 560.097335 307.619711 
L 560.136969 307.793938 
L 560.17656 308.623821 
L 560.255614 308.115155 
L 560.373874 311.041268 
L 560.53096 307.919767 
L 560.570126 308.872365 
L 560.60925 307.910317 
L 560.648332 308.406868 
L 560.804242 309.863579 
L 560.920738 307.702929 
L 560.998196 307.447222 
L 561.07549 309.636723 
L 561.114075 309.145616 
L 561.15262 309.389683 
L 561.191124 310.118436 
L 561.229587 309.637105 
L 561.306392 307.213283 
L 561.344734 309.152692 
L 561.421297 308.434501 
L 561.459518 308.916543 
L 561.497699 309.160616 
L 561.53584 307.462045 
L 561.573942 309.395686 
L 561.612003 309.882938 
L 561.688008 307.467183 
L 561.72595 308.673181 
L 561.763854 308.679702 
L 561.839542 307.471829 
L 561.877327 310.125283 
L 561.952781 308.92668 
L 561.990449 308.197515 
L 562.065669 308.205554 
L 562.178209 309.40449 
L 562.253042 308.68464 
L 562.290402 309.4154 
L 562.327723 308.444105 
L 562.402251 307.231497 
L 562.513757 309.172843 
L 562.55085 309.17432 
L 562.624924 309.659139 
L 562.661904 309.175563 
L 562.698847 309.180872 
L 562.883001 307.723924 
L 563.06623 309.423094 
L 563.139265 309.66452 
L 563.175727 307.971298 
L 563.284896 309.90692 
L 563.321213 309.665525 
L 563.357494 307.481461 
L 563.429947 308.937039 
L 563.502257 308.694304 
L 563.610454 309.662914 
L 563.71833 308.217275 
L 563.754218 309.672729 
L 563.825888 308.700801 
L 563.86167 308.463321 
L 563.897417 307.253965 
L 563.933129 309.911082 
L 564.004449 309.181853 
L 564.040056 309.185334 
L 564.075629 310.395532 
L 564.14667 309.17891 
L 564.182139 309.377567 
L 564.217574 308.937226 
L 564.252974 309.422723 
L 564.288339 309.908078 
L 564.429459 307.977274 
L 564.464654 309.915055 
L 564.534942 308.219504 
L 564.570035 308.440292 
L 564.675113 310.395409 
L 564.710071 309.672062 
L 564.744996 309.429164 
L 564.779888 310.39863 
L 564.814746 307.979647 
L 564.919121 308.220164 
L 564.953847 308.219523 
L 565.092418 309.187772 
L 565.126979 308.459047 
L 565.161507 308.705713 
L 565.196003 309.916527 
L 565.230465 309.912208 
L 565.264896 307.498197 
L 565.333658 310.159419 
L 565.43656 308.225047 
L 565.470796 308.949093 
L 565.505 310.402064 
L 565.573312 308.710454 
L 565.60742 306.77158 
L 565.675541 307.984196 
L 565.777483 309.196256 
L 565.743534 307.737904 
L 565.8114 309.194044 
L 565.879141 308.468983 
L 565.912964 309.4348 
L 565.980516 308.951325 
L 566.014246 308.706607 
L 566.08161 309.679627 
L 566.115246 308.225952 
L 566.182425 308.469497 
L 566.282961 309.681973 
L 566.316412 308.468169 
L 566.383221 309.198235 
L 566.483206 307.743471 
L 566.516474 309.679472 
L 566.616094 309.194301 
L 566.715443 308.710294 
L 566.781525 310.164668 
L 566.814522 308.712775 
L 566.847488 309.197623 
L 566.880425 308.472064 
L 566.913332 308.95676 
L 566.946209 308.95694 
L 566.979057 309.924753 
L 567.044664 308.71219 
L 567.077423 309.199711 
L 567.110153 308.229326 
L 567.142853 308.230844 
L 567.175524 307.987439 
L 567.273362 309.926495 
L 567.305916 307.503399 
L 567.370937 309.1982 
L 567.403405 309.440908 
L 567.435843 307.503262 
L 567.500633 309.685046 
L 567.565309 308.47242 
L 567.597603 309.199364 
L 567.629869 309.199953 
L 567.662107 307.506314 
L 567.726497 307.98811 
L 567.758649 310.411837 
L 567.822869 308.231463 
L 567.982924 310.411745 
L 568.04675 308.474846 
L 568.14228 308.957699 
L 568.205828 310.168124 
L 568.23756 308.958998 
L 568.332592 308.47453 
L 568.427376 308.232448 
L 568.458916 309.930607 
L 568.584804 307.99275 
L 568.616209 309.929445 
L 568.678936 308.962183 
L 568.71026 307.50625 
L 568.741556 309.687947 
L 568.772825 307.750103 
L 568.835284 307.508853 
L 568.928772 309.688273 
L 568.959881 307.508643 
L 569.022021 308.477952 
L 569.207805 309.929586 
L 569.238678 307.025947 
L 569.269524 309.930863 
L 569.331138 307.751633 
L 569.423364 309.447172 
L 569.454054 308.477368 
L 569.515358 309.690288 
L 569.545971 308.477622 
L 569.576558 308.720824 
L 569.607119 309.931524 
L 569.637655 308.235305 
L 569.668166 308.721637 
L 569.698651 308.721732 
L 569.72911 310.174921 
L 569.759544 308.479145 
L 569.789953 307.510642 
L 569.820336 307.752804 
L 569.971874 310.172739 
L 570.092652 307.26937 
L 570.122784 309.931825 
L 570.213031 309.448118 
L 570.273072 308.723213 
L 570.303055 309.690522 
L 570.362948 309.207686 
L 570.392858 307.997013 
L 570.482439 308.721841 
L 570.512251 309.692699 
L 570.571802 308.723966 
L 570.631255 308.480292 
L 570.660945 309.692168 
L 570.690611 308.722066 
L 570.749871 310.175845 
L 570.779465 308.965365 
L 570.809035 309.933913 
L 570.838581 308.238336 
L 570.897601 309.20733 
L 571.015355 307.51172 
L 571.132729 309.20945 
L 571.162014 308.239814 
L 571.191275 309.450388 
L 571.220513 310.420672 
L 571.249727 309.934785 
L 571.278918 307.513004 
L 571.308086 310.419434 
L 571.366351 309.209607 
L 571.424523 307.51462 
L 571.453575 309.692457 
L 571.54059 308.482597 
L 571.598485 309.451583 
L 571.627398 307.998931 
L 571.656288 308.966384 
L 571.742821 307.998626 
L 571.714 309.693929 
L 571.77162 308.724813 
L 571.915274 310.179196 
L 571.943937 307.756663 
L 572.029791 309.693742 
L 572.172432 307.999588 
L 572.25775 311.147258 
L 572.314518 309.694287 
L 572.342869 309.69449 
L 572.371198 308.241985 
L 572.456052 309.452328 
L 572.484293 309.693969 
L 572.540709 310.178136 
L 572.597039 307.274304 
L 572.737482 309.937307 
L 572.765506 308.9682 
L 572.821489 310.179934 
L 572.849448 310.421865 
L 572.988924 308.727755 
L 573.016755 310.907341 
L 573.100122 310.422904 
L 573.210981 307.758926 
L 573.238643 307.759781 
L 573.349083 310.422381 
L 573.431693 308.24349 
L 573.486663 308.728174 
L 573.514117 307.759435 
L 573.54155 309.696446 
L 573.568963 308.971168 
L 573.596355 308.970086 
L 573.623726 309.696521 
L 573.651077 308.244405 
L 573.705718 309.453971 
L 573.733007 308.002447 
L 573.814753 308.243352 
L 573.896316 310.1821 
L 573.923463 309.696688 
L 574.004784 308.002699 
L 574.03185 308.728421 
L 574.112929 309.697785 
L 574.085923 308.48638 
L 574.139916 308.728942 
L 574.166882 308.487122 
L 574.193829 307.03455 
L 574.220755 310.665956 
L 574.247662 309.455449 
L 574.35509 310.908334 
L 574.301416 309.21386 
L 574.381898 309.697242 
L 574.435454 307.276332 
L 574.488932 309.697365 
L 574.542332 308.00265 
L 574.595653 308.729356 
L 574.75515 310.424054 
L 574.781666 309.455407 
L 574.808162 307.761525 
L 574.887534 309.455994 
L 574.993096 308.245455 
L 575.019438 308.488612 
L 575.045762 308.245995 
L 575.072067 309.456732 
L 575.177096 309.213772 
L 575.25567 310.182768 
L 575.281824 307.761674 
L 575.360172 309.940418 
L 575.386251 310.183157 
L 575.412311 309.457051 
L 575.49038 309.941368 
L 575.516366 308.488336 
L 575.646018 309.94122 
L 575.749409 307.278323 
L 575.775211 310.909632 
L 575.852507 308.488805 
L 575.92964 309.94112 
L 575.903947 308.246611 
L 575.955315 309.699151 
L 576.00661 308.004689 
L 576.083418 308.73089 
L 576.160064 309.457458 
L 576.185577 308.004938 
L 576.262009 308.731376 
L 576.28745 308.731258 
L 576.312874 309.458036 
L 576.363669 308.489168 
L 576.38904 308.489356 
L 576.414393 307.278697 
L 576.465047 308.973319 
L 576.490347 309.700118 
L 576.566143 309.215847 
L 576.591373 309.215402 
L 576.616586 309.700607 
L 576.641782 308.973837 
L 576.692121 309.215766 
L 576.717264 307.520797 
L 576.767499 309.700361 
L 576.79259 310.426932 
L 576.817664 308.005809 
L 576.842721 309.458673 
L 576.892783 307.762864 
L 576.942777 308.973924 
L 576.967748 309.459043 
L 577.017639 309.216724 
L 577.117216 308.490074 
L 577.166903 309.458264 
L 577.241307 308.974597 
L 577.266074 308.73212 
L 577.290825 309.700777 
L 577.364976 308.974171 
L 577.38966 308.974692 
L 577.46361 308.24846 
L 577.488227 308.490141 
L 577.512827 309.943132 
L 577.537411 308.005933 
L 577.586529 309.701609 
L 577.660081 307.521963 
L 577.709034 308.732737 
L 577.757921 309.943042 
L 577.806743 308.974963 
L 577.831129 308.00608 
L 577.879853 308.974864 
L 577.928512 307.280011 
L 577.952817 309.701567 
L 577.977105 307.280112 
L 578.049875 308.248595 
L 578.098307 310.185853 
L 578.122499 308.975441 
L 578.146675 307.764493 
L 578.170835 309.217565 
L 578.219107 309.217315 
L 578.243219 308.975135 
L 578.267316 309.943659 
L 578.291396 308.00659 
L 578.339508 309.217522 
L 578.411559 309.70185 
L 578.435544 308.490834 
L 578.459513 310.186359 
L 578.555233 309.217525 
L 578.602999 310.670344 
L 578.674531 306.312099 
L 578.793439 309.460215 
L 578.817175 308.491575 
L 578.840894 310.186562 
L 578.888288 308.975955 
L 578.911961 309.460223 
L 578.935619 308.975342 
L 578.959262 307.765169 
L 579.006502 309.943969 
L 579.030099 309.944505 
L 579.05368 310.428732 
L 579.077247 309.45995 
L 579.17136 307.765518 
L 579.194851 308.491505 
L 579.241786 310.428773 
L 579.265231 307.523307 
L 579.335476 310.186948 
L 579.428926 308.249704 
L 579.452251 310.186984 
L 579.522137 308.976272 
L 579.591889 307.765092 
L 579.61511 309.944499 
L 579.707847 308.249827 
L 579.754127 309.46006 
L 579.777245 308.97624 
L 579.800348 145.163139 
L 579.86957 249.952124 
L 580.007622 307.290909 
L 580.030579 305.44581 
L 580.099366 306.440939 
L 580.19088 309.699751 
L 580.282165 309.40499 
L 580.395951 306.508865 
L 580.441366 309.421581 
L 580.509382 307.485593 
L 580.577272 309.186881 
L 580.599874 308.950389 
L 580.690142 307.251955 
L 580.667596 309.189388 
L 580.712674 308.220595 
L 580.757696 309.674283 
L 580.802663 307.97839 
L 580.825125 309.19076 
L 580.89243 307.501223 
L 580.937231 308.95127 
L 580.959611 308.711216 
L 580.981977 309.435171 
L 581.004329 308.952767 
L 581.026668 309.680315 
L 581.093602 308.957603 
L 581.115886 308.954245 
L 581.138156 307.983897 
L 581.160413 310.890349 
L 581.182657 309.43802 
L 581.204886 310.403851 
L 581.249305 308.952294 
L 581.29367 309.680393 
L 581.315832 308.469426 
L 581.33798 309.683773 
L 581.404346 309.682519 
L 581.47059 307.989259 
L 581.536715 308.958504 
L 581.55873 308.957923 
L 581.580731 308.714744 
L 581.602719 309.442533 
L 581.646656 309.201342 
L 581.668605 309.201188 
L 581.69054 308.717787 
L 581.712462 309.926882 
L 581.756267 309.440984 
L 581.77815 310.170184 
L 581.843719 308.95765 
L 581.865549 308.717022 
L 581.887366 306.779149 
L 581.930962 309.685876 
L 581.974505 308.476858 
L 581.996257 308.231561 
L 582.017996 310.169547 
L 582.104823 309.443761 
L 582.148159 308.234413 
L 582.191444 310.170071 
L 582.213067 308.715073 
L 582.277859 310.173377 
L 582.32099 309.445631 
L 582.36407 307.994119 
L 582.407099 309.688324 
L 582.428594 310.171502 
L 582.450077 309.446718 
L 582.471547 309.690117 
L 582.535882 306.783456 
L 582.578709 309.20539 
L 582.621486 309.204756 
L 582.706888 307.509143 
L 582.664212 309.930893 
L 582.749515 307.994783 
L 582.77081 309.934669 
L 582.855864 309.932041 
L 582.919524 307.993813 
L 582.961903 309.449125 
L 583.004232 309.690017 
L 583.130927 307.753952 
L 583.29917 309.932848 
L 583.48752 306.787315 
L 583.34111 310.660581 
L 583.508388 308.725074 
L 583.529244 309.936106 
L 583.550088 308.240659 
L 583.612549 309.451562 
L 583.633345 309.209302 
L 583.65413 309.937038 
L 583.674902 309.935098 
L 583.695663 310.420738 
L 583.716412 307.756147 
L 583.79929 307.756977 
L 583.861326 309.210394 
L 583.902624 307.514207 
L 583.923256 308.968936 
L 583.964484 308.000418 
L 583.98508 309.452435 
L 584.005665 309.210232 
L 584.026239 310.178885 
L 584.046801 307.030827 
L 584.087889 308.969797 
L 584.128932 307.273956 
L 584.149436 309.211783 
L 584.169928 308.24301 
L 584.231336 307.515369 
L 584.272218 310.422147 
L 584.394587 308.726653 
L 584.455618 308.72581 
L 584.475939 309.697061 
L 584.55711 308.7271 
L 584.577375 309.210254 
L 584.577375 309.210254 
" clip-path="url(#pc208d8d769)" style="fill: none; stroke: #ffa500; stroke-width: 1.5; stroke-linecap: square"/>
   </g>
   <g id="line2d_16">
    <path d="M 227.457375 94.310535 
L 314.871912 159.414532 
L 338.440827 165.200178 
L 352.636234 171.095067 
L 362.826626 175.102675 
L 370.781571 177.838668 
L 377.307541 181.15892 
L 387.643305 187.168468 
L 395.686331 194.094183 
L 399.127371 196.846894 
L 402.271383 199.577575 
L 405.165595 201.296979 
L 407.846798 203.321598 
L 410.344206 205.588655 
L 416.949191 209.633271 
L 418.909227 209.69777 
L 420.769216 211.174808 
L 424.22658 213.484361 
L 425.839581 214.01505 
L 427.384213 214.204684 
L 428.866037 215.949872 
L 430.289962 213.400006 
L 431.660344 214.796119 
L 432.981062 216.910023 
L 434.255593 217.148303 
L 435.487056 217.19352 
L 436.678268 217.076763 
L 437.831777 217.133774 
L 438.949896 216.580386 
L 440.034733 217.791813 
L 441.088212 217.529658 
L 442.112095 218.439006 
L 443.107999 218.680599 
L 444.077414 217.966601 
L 445.021711 217.050492 
L 445.94216 216.620693 
L 446.839935 218.22045 
L 447.716126 217.902387 
L 448.571749 218.002998 
L 449.407744 219.009436 
L 450.224994 217.795184 
L 451.024321 218.905864 
L 451.806493 218.116371 
L 452.572232 219.429597 
L 453.322213 218.352521 
L 454.057073 219.526025 
L 454.777409 218.42034 
L 455.483784 219.122978 
L 456.17673 217.637127 
L 456.856746 218.004498 
L 457.524307 217.739783 
L 458.179861 218.815833 
L 458.823832 219.220777 
L 459.456622 217.597444 
L 460.078614 219.050782 
L 460.690169 219.161369 
L 461.291631 218.752425 
L 461.88333 215.706357 
L 462.465575 218.131172 
L 463.038666 218.969701 
L 463.602885 216.960571 
L 464.158502 219.196395 
L 464.705777 219.159264 
L 465.244956 218.139317 
L 465.776274 218.338239 
L 466.299959 218.7541 
L 466.816225 218.996362 
L 467.325281 217.978889 
L 467.827325 218.494153 
L 468.322547 216.822395 
L 469.293252 218.275701 
L 469.769079 216.751102 
L 470.238773 215.718418 
L 470.702492 217.275822 
L 471.160385 217.256864 
L 471.612597 217.902517 
L 472.059267 214.34755 
L 472.500529 216.833319 
L 472.936513 217.883318 
L 473.367343 216.493031 
L 473.79314 217.672933 
L 474.21402 217.53258 
L 474.630095 216.766007 
L 475.041474 217.658709 
L 475.448262 217.908784 
L 475.85056 217.995016 
L 476.248465 217.771582 
L 477.416764 216.627298 
L 477.798021 217.220304 
L 478.175331 215.205849 
L 478.548774 215.180078 
L 478.918431 216.678893 
L 479.284376 217.082842 
L 480.005424 217.059877 
L 480.712484 211.905218 
L 481.060936 216.314379 
L 481.406088 214.884104 
L 481.748002 216.175183 
L 482.422356 217.194949 
L 482.754912 216.938229 
L 483.411055 216.041098 
L 483.73475 216.150107 
L 484.373641 212.790516 
L 484.688936 215.765531 
L 485.001526 216.453751 
L 485.311458 215.268069 
L 485.618777 215.72373 
L 485.923526 215.186085 
L 486.225748 216.354225 
L 486.525485 215.37335 
L 486.822777 213.212521 
L 487.410184 216.180924 
L 487.700375 215.579338 
L 487.988274 215.39464 
L 488.273916 213.805956 
L 488.557337 215.820808 
L 488.838572 215.830446 
L 489.117653 213.939483 
L 489.394613 215.335881 
L 489.669485 215.525094 
L 489.942299 214.834588 
L 490.213086 214.694209 
L 490.481876 215.273375 
L 490.748699 215.400699 
L 491.013582 214.739978 
L 491.276554 213.498448 
L 491.537643 214.970036 
L 491.796874 213.875983 
L 492.054275 215.194535 
L 492.309871 213.986596 
L 492.563687 215.003017 
L 492.815747 214.53221 
L 493.066076 214.390552 
L 493.314698 214.748538 
L 493.561635 214.22789 
L 494.050546 214.718493 
L 494.292565 214.435431 
L 494.532986 212.299354 
L 494.771832 212.587859 
L 495.009124 214.283291 
L 495.24488 213.42203 
L 495.479121 214.589461 
L 495.943135 213.385926 
L 496.172945 214.096014 
L 496.401315 214.053414 
L 496.628264 213.345937 
L 496.853808 213.865793 
L 497.300751 214.014244 
L 497.522185 212.859653 
L 497.742281 213.853362 
L 498.178525 213.441937 
L 498.60961 213.61199 
L 499.035656 213.064882 
L 499.246825 212.634693 
L 499.456779 212.857867 
L 499.66553 213.613633 
L 499.873092 213.054393 
L 500.079478 213.631461 
L 500.284703 210.530928 
L 500.488778 213.505741 
L 500.691718 212.17809 
L 500.893533 213.201305 
L 501.293842 212.622626 
L 501.49236 213.050827 
L 501.689803 213.04443 
L 501.886181 212.641714 
L 502.081508 212.714046 
L 502.275793 212.908007 
L 502.469048 212.357099 
L 502.85251 212.604921 
L 503.042739 212.641558 
L 503.231981 212.82336 
L 503.420244 212.313597 
L 503.607541 212.253345 
L 503.79388 212.469719 
L 503.979271 211.63773 
L 504.347247 212.516358 
L 504.529852 212.403245 
L 504.711546 211.534743 
L 505.07224 212.162483 
L 505.251257 212.438291 
L 505.429399 211.496664 
L 505.606674 212.2291 
L 505.783092 211.923962 
L 506.133386 212.351482 
L 506.307278 211.992703 
L 506.480345 209.026411 
L 506.652594 212.501894 
L 506.824032 211.805276 
L 506.994669 211.580511 
L 507.164509 212.208525 
L 507.501835 211.244679 
L 507.669335 211.101917 
L 507.836068 211.687578 
L 508.167263 211.912408 
L 508.495476 211.811388 
L 508.820759 211.012484 
L 508.982319 210.707852 
L 509.143166 211.573789 
L 509.303306 211.270255 
L 509.779547 211.32526 
L 509.936921 211.107236 
L 510.093618 211.514667 
L 510.249645 211.344069 
L 510.405007 210.801916 
L 510.559709 211.254889 
L 510.713757 211.053992 
L 510.867157 211.35574 
L 511.019914 211.297436 
L 511.172034 210.698182 
L 511.323521 210.912055 
L 511.474381 209.967746 
L 511.62462 210.641086 
L 511.923252 210.61147 
L 512.071655 210.366642 
L 512.219456 209.894933 
L 512.366661 210.546756 
L 512.513273 210.594311 
L 512.659298 211.114614 
L 512.949605 211.163293 
L 513.237617 210.733819 
L 513.523372 211.106204 
L 513.665413 210.522167 
L 513.806903 210.432759 
L 514.228107 210.619166 
L 514.367434 210.017729 
L 514.50623 210.021328 
L 514.782246 209.715599 
L 515.056188 210.225348 
L 515.192391 210.578152 
L 515.328086 210.575463 
L 515.463278 210.388796 
L 515.597971 210.522972 
L 515.732168 210.305754 
L 515.865872 210.384068 
L 515.999088 209.69779 
L 516.395839 210.416178 
L 516.527135 210.125562 
L 516.65796 210.408365 
L 516.788317 210.279443 
L 516.918209 210.477346 
L 517.176614 209.857789 
L 517.305132 210.21445 
L 517.560817 210.173422 
L 517.68799 210.345184 
L 517.814721 209.701057 
L 518.066869 210.007136 
L 518.192292 209.952139 
L 518.317284 210.188815 
L 518.44185 210.057776 
L 518.565991 210.103902 
L 518.813011 209.749034 
L 518.935897 210.184386 
L 519.058369 209.966914 
L 519.180432 209.997005 
L 519.302087 210.147138 
L 519.544185 209.675506 
L 519.664634 209.66731 
L 519.904344 209.915683 
L 520.023611 209.483364 
L 520.142488 209.80574 
L 520.260979 209.508097 
L 520.379086 209.659211 
L 520.496812 209.35217 
L 520.614158 209.658302 
L 520.847724 209.272868 
L 520.963948 209.667076 
L 521.079802 209.628965 
L 521.310412 209.676818 
L 521.425172 209.296743 
L 521.653614 209.726666 
L 521.7673 209.725165 
L 521.880633 209.206388 
L 521.993615 209.510909 
L 522.106247 209.248136 
L 522.218532 209.354703 
L 522.330473 209.201906 
L 522.44207 209.596965 
L 522.774828 208.646505 
L 522.885075 208.596203 
L 523.104575 209.630588 
L 523.32276 208.943953 
L 523.539648 209.195158 
L 523.647609 209.165503 
L 523.862578 209.0432 
L 524.076286 209.137894 
L 524.288748 208.663268 
L 524.499979 209.073797 
L 524.709992 209.0092 
L 524.814547 208.635658 
L 524.918803 208.779323 
L 525.022761 209.145876 
L 525.229793 208.536379 
L 525.332869 208.845369 
L 525.538152 208.153843 
L 525.742284 208.962054 
L 525.843923 208.64442 
L 525.94528 207.93239 
L 526.046355 208.074366 
L 526.147151 207.929156 
L 526.347911 208.883253 
L 526.447877 208.360851 
L 526.54757 208.515024 
L 526.646992 208.454032 
L 526.746142 208.202365 
L 526.943638 208.619688 
L 527.041986 208.278815 
L 527.14007 208.352609 
L 527.23789 208.680141 
L 527.529785 208.451629 
L 527.626567 208.83095 
L 527.819361 207.964124 
L 527.915378 208.51646 
L 528.011142 208.476296 
L 528.106655 208.595897 
L 528.201918 208.134703 
L 528.296934 208.469717 
L 528.391702 208.11479 
L 528.580502 208.409562 
L 528.674536 208.04136 
L 528.861881 208.278309 
L 528.955193 208.338574 
L 529.141104 208.048354 
L 529.233705 208.15205 
L 529.326072 208.078932 
L 529.418205 208.316797 
L 529.510106 207.839437 
L 529.601775 208.135969 
L 529.693215 207.98316 
L 529.784425 208.351908 
L 529.875408 207.981413 
L 529.966165 208.34529 
L 530.056696 207.925473 
L 530.147003 208.166046 
L 530.326948 208.059779 
L 530.416588 208.227266 
L 530.506009 207.911275 
L 530.59521 207.955167 
L 530.684194 208.082952 
L 530.772961 207.779159 
L 530.94985 208.096098 
L 531.125884 207.682685 
L 531.301072 208.085245 
L 531.388351 207.817302 
L 531.562285 208.046179 
L 531.648942 207.81221 
L 531.735393 207.910671 
L 531.821639 207.636286 
L 531.907682 208.108659 
L 531.993523 207.610028 
L 532.164599 208.020076 
L 532.334877 207.512437 
L 532.419718 207.94599 
L 532.58881 207.608417 
L 532.673063 207.696941 
L 532.757122 207.21736 
L 532.840987 54.248654 
L 532.924659 58.860057 
L 533.340165 79.58188 
L 533.914029 137.138831 
L 534.157231 180.663692 
L 534.318469 198.380534 
L 534.398822 203.735609 
L 534.478997 199.428818 
L 534.558997 200.044407 
L 534.638821 201.238941 
L 534.718471 196.122751 
L 534.797947 205.398144 
L 534.877251 203.401621 
L 534.956382 203.867271 
L 535.11413 205.826163 
L 535.192749 206.159002 
L 535.271199 205.082153 
L 535.349481 206.527087 
L 535.427594 206.464373 
L 535.505541 206.655619 
L 535.583321 206.520183 
L 535.660936 205.832983 
L 535.815671 206.711227 
L 535.892793 205.751447 
L 536.046548 206.782189 
L 536.123184 206.160632 
L 536.199658 206.214097 
L 536.275973 206.015077 
L 536.352128 206.09634 
L 536.428124 206.764075 
L 536.503962 205.910719 
L 536.579643 206.256885 
L 536.730534 206.568069 
L 536.805747 206.139128 
L 536.880804 206.209512 
L 536.955707 206.648819 
L 537.030456 206.452397 
L 537.105053 206.472271 
L 537.179497 206.370082 
L 537.253789 206.514552 
L 537.401921 206.194684 
L 537.475762 206.565777 
L 537.549453 206.524177 
L 537.622996 206.130509 
L 537.69639 206.35254 
L 537.769638 206.192885 
L 537.9885 206.500036 
L 538.061163 206.476934 
L 538.133682 206.296983 
L 538.278287 206.679682 
L 538.350375 206.203316 
L 538.422321 206.27318 
L 538.494126 206.292937 
L 538.708693 206.032587 
L 538.779936 206.522781 
L 538.85104 206.453521 
L 538.992832 206.402017 
L 539.063523 206.20757 
L 539.134076 206.314831 
L 539.204493 206.442824 
L 539.274774 206.366646 
L 539.414931 206.191683 
L 539.484808 206.363217 
L 539.762983 206.050389 
L 539.970231 206.419566 
L 540.107744 206.152059 
L 540.24474 206.364419 
L 540.381223 205.936269 
L 540.449273 206.03955 
L 540.517197 206.206569 
L 540.584994 206.091086 
L 540.652666 205.945304 
L 540.720212 206.0195 
L 540.787633 206.182201 
L 540.854929 206.060547 
L 540.922102 206.199958 
L 540.98915 206.147343 
L 541.18956 206.010193 
L 541.25612 206.344545 
L 541.322557 206.187566 
L 541.455071 205.830963 
L 541.521147 206.074277 
L 541.587104 206.032607 
L 541.784262 205.897021 
L 541.91511 206.130509 
L 542.175406 205.813732 
L 542.240191 205.988085 
L 542.30486 205.882096 
L 542.369415 205.729904 
L 542.433856 205.922507 
L 542.498184 205.601788 
L 542.626498 205.915973 
L 542.690487 205.743647 
L 542.754363 205.807328 
L 542.945323 205.955617 
L 543.072076 205.71179 
L 543.135288 205.895625 
L 543.19839 205.770198 
L 543.261383 205.876329 
L 543.324267 205.827982 
L 543.449711 205.942349 
L 543.512272 205.553467 
L 543.574725 205.701483 
L 543.699312 205.818915 
L 543.761446 205.691526 
L 543.823474 205.834093 
L 543.885397 205.80023 
L 544.070537 205.651863 
L 544.254741 205.868782 
L 544.315936 205.732729 
L 544.377029 205.839913 
L 544.438019 205.832158 
L 544.498907 205.662397 
L 544.559694 205.802996 
L 544.982387 205.524013 
L 545.102261 205.686623 
L 545.162051 205.621129 
L 545.281337 205.472087 
L 545.518744 205.544491 
L 545.577855 205.343776 
L 545.63687 205.396111 
L 545.813345 205.698326 
L 545.988969 205.470717 
L 546.105583 205.501028 
L 546.163751 205.446881 
L 546.279808 205.671594 
L 546.395497 205.427487 
L 546.453204 205.489298 
L 546.625779 205.49693 
L 546.683123 205.376906 
L 546.740377 205.48935 
L 546.911601 205.422948 
L 546.968497 205.448745 
L 547.025305 205.351485 
L 547.082024 205.656968 
L 547.138655 205.427254 
L 547.308022 205.559085 
L 547.476606 205.129032 
L 547.532628 205.200878 
L 547.644414 205.454636 
L 547.700179 205.290369 
L 547.755858 205.447387 
L 547.811453 205.320453 
L 547.866963 205.369151 
L 547.97773 205.334826 
L 548.032987 205.530397 
L 548.088161 205.142542 
L 548.143251 205.334709 
L 548.253183 205.154862 
L 548.308024 205.212003 
L 548.417461 205.41868 
L 548.472056 205.135423 
L 548.52657 205.205814 
L 548.635353 205.400722 
L 548.797921 205.108944 
L 548.959768 205.55802 
L 549.013557 205.323512 
L 549.281321 204.979698 
L 549.334638 205.105528 
L 549.44104 205.026084 
L 549.547131 204.816783 
L 549.705692 205.063799 
L 549.758393 205.13693 
L 549.811017 205.058077 
L 550.020759 204.954017 
L 550.177277 205.17156 
L 550.281251 205.056966 
L 550.333126 205.179146 
L 550.384928 205.126298 
L 550.847861 204.744509 
L 550.898937 204.651425 
L 550.949942 204.851237 
L 551.000875 204.776086 
L 551.051737 204.786114 
L 551.102528 204.673105 
L 551.153249 204.875606 
L 551.203899 204.827733 
L 551.254479 204.744755 
L 551.304988 204.977321 
L 551.355428 204.792148 
L 551.405798 203.363763 
L 551.456099 204.536831 
L 551.606585 204.830006 
L 551.65661 204.643073 
L 551.756453 204.725297 
L 551.856024 204.58136 
L 551.955323 204.772664 
L 552.054352 204.623719 
L 552.202394 204.863532 
L 552.251608 204.779899 
L 552.300755 204.875703 
L 552.349837 204.909502 
L 552.496685 204.456387 
L 552.545504 204.598954 
L 552.691568 204.635604 
L 552.788619 204.31682 
L 552.837049 204.403571 
L 552.933714 204.524913 
L 552.981951 204.706034 
L 553.078234 204.379885 
L 553.12628 204.448509 
L 553.174263 204.428362 
L 553.222183 204.281164 
L 553.270039 204.42742 
L 553.413234 204.484594 
L 553.508386 204.362557 
L 553.555869 204.528934 
L 553.60329 204.425706 
L 553.745184 204.278586 
L 554.074137 204.54747 
L 554.214213 204.018612 
L 554.260786 204.375202 
L 554.353753 204.323822 
L 554.63124 204.224835 
L 554.815065 204.006707 
L 554.906631 204.287204 
L 554.952328 204.090282 
L 554.997967 204.144462 
L 555.134544 204.193666 
L 555.270611 204.045144 
L 555.315854 204.186743 
L 555.451248 204.297375 
L 555.496267 204.143228 
L 555.541231 204.164161 
L 555.58614 204.295537 
L 555.630993 204.154626 
L 555.675791 204.166732 
L 555.720534 203.979572 
L 555.765223 204.411501 
L 555.809856 204.112598 
L 555.987846 204.235207 
L 556.076516 204.105759 
L 556.164971 203.965524 
L 556.297252 204.224978 
L 556.341239 204.188938 
L 556.516659 203.707441 
L 556.647672 204.202772 
L 556.691238 204.147664 
L 556.734753 204.320321 
L 556.778216 204.126205 
L 556.821626 204.197167 
L 556.994755 203.937525 
L 557.081012 203.860393 
L 557.124064 203.913371 
L 557.210015 204.103246 
L 557.252915 203.560113 
L 557.295765 203.603264 
L 557.381313 203.937895 
L 557.424012 203.675227 
L 557.466661 203.854242 
L 557.50926 203.995582 
L 557.594309 203.954223 
L 557.636759 203.842149 
L 557.721512 204.042942 
L 557.763814 203.890756 
L 557.848272 203.971097 
L 558.016603 203.734901 
L 558.058564 204.016339 
L 558.100478 203.886755 
L 558.225929 203.780111 
L 558.26765 203.821255 
L 558.392529 203.717754 
L 558.43406 203.896049 
L 558.516981 203.786989 
L 558.599713 203.830907 
L 558.641009 203.68037 
L 558.682258 203.850599 
L 558.84679 204.034667 
L 558.928778 203.485377 
L 558.969703 203.555041 
L 559.010582 203.720684 
L 559.051415 203.514578 
L 559.416871 203.659132 
L 559.457252 203.611298 
L 559.497588 203.671005 
L 559.537879 203.731043 
L 559.578127 201.987725 
L 559.618329 203.856392 
L 559.658488 111.578327 
L 559.738672 168.494165 
L 559.898513 199.213737 
L 559.938365 188.915682 
L 559.978172 200.850644 
L 560.017936 200.241108 
L 560.057657 201.716178 
L 560.097335 200.20792 
L 560.136969 201.485899 
L 560.17656 200.502251 
L 560.216109 202.63054 
L 560.295077 201.845853 
L 560.373874 202.661079 
L 560.413209 202.178412 
L 560.452502 202.220018 
L 560.570126 202.556798 
L 560.687372 202.33191 
L 560.765327 202.524324 
L 560.804242 202.318803 
L 560.843115 202.394052 
L 560.881947 202.533742 
L 560.920738 202.466534 
L 560.959488 202.37901 
L 560.998196 202.647621 
L 561.036863 202.493292 
L 561.15262 202.336067 
L 561.26801 202.652791 
L 561.306392 202.308048 
L 561.383035 202.438957 
L 561.497699 202.430332 
L 561.612003 202.594455 
L 561.650025 202.30632 
L 561.72595 202.493435 
L 561.877327 202.33443 
L 561.990449 202.470366 
L 562.140734 202.403781 
L 562.178209 202.498306 
L 562.215645 202.300202 
L 562.253042 202.4056 
L 562.55085 202.423759 
L 562.661904 202.370073 
L 562.698847 202.508516 
L 562.735752 202.283108 
L 562.77262 202.417277 
L 562.919721 202.452544 
L 563.06623 202.371476 
L 563.212153 202.41855 
L 563.284896 202.442074 
L 563.321213 202.244204 
L 563.46612 202.44401 
L 563.538358 202.260948 
L 563.574424 202.493565 
L 563.610454 202.14286 
L 563.646448 202.478926 
L 563.754218 202.358136 
L 563.790071 202.401508 
L 563.86167 202.291382 
L 563.897417 202.461416 
L 563.968807 202.417316 
L 564.075629 202.181374 
L 564.111167 202.707516 
L 564.14667 201.919595 
L 564.182139 201.851802 
L 564.217574 202.610095 
L 564.288339 202.268936 
L 564.394231 202.178568 
L 564.429459 202.392389 
L 564.499815 202.353447 
L 564.534942 202.157629 
L 564.570035 202.471093 
L 564.605095 202.285706 
L 564.640121 202.204105 
L 564.675113 202.325116 
L 564.710071 202.293331 
L 564.849571 202.250725 
L 564.919121 202.383933 
L 564.953847 202.219186 
L 565.023198 202.332897 
L 565.057825 202.221719 
L 565.092418 202.217368 
L 565.230465 202.364189 
L 565.333658 202.224798 
L 565.367991 202.234254 
L 565.402292 202.383102 
L 565.43656 202.161097 
L 565.470796 202.322142 
L 565.573312 202.219212 
L 565.60742 202.399105 
L 565.641496 202.08577 
L 565.675541 202.251842 
L 565.845286 202.394221 
L 565.946756 202.068962 
L 566.014246 202.397157 
L 566.08161 202.297526 
L 566.115246 202.324532 
L 566.148851 202.150212 
L 566.215968 202.275977 
L 566.383221 202.201105 
L 566.41658 202.063467 
L 566.449908 202.262766 
L 566.516474 202.172359 
L 566.582917 202.230241 
L 566.64924 202.121791 
L 566.682357 202.344964 
L 566.715443 202.063909 
L 566.781525 202.220836 
L 566.979057 202.209223 
L 567.011875 202.299579 
L 567.077423 202.216277 
L 567.273362 202.178737 
L 567.370937 202.139482 
L 567.403405 202.303398 
L 567.468253 202.152238 
L 567.500633 202.172151 
L 567.532985 202.313114 
L 567.565309 202.218836 
L 567.597603 202.002936 
L 567.662107 202.215757 
L 567.822869 202.096422 
L 567.854936 202.219368 
L 567.918986 202.136612 
L 567.950969 202.118257 
L 567.982924 202.214107 
L 568.04675 202.145899 
L 568.174067 202.158889 
L 568.300942 202.024927 
L 568.395809 202.213965 
L 568.521915 202.006911 
L 568.553373 202.324519 
L 568.647586 202.200572 
L 568.71026 202.058791 
L 568.804068 202.130623 
L 568.835284 202.169514 
L 568.866473 201.967176 
L 568.897636 202.21677 
L 568.959881 202.068481 
L 569.022021 202.163045 
L 569.053051 201.97723 
L 569.115031 202.189012 
L 569.145982 202.083367 
L 569.176907 201.988245 
L 569.207805 202.174191 
L 569.238678 202.062259 
L 569.269524 202.175723 
L 569.300344 202.108762 
L 569.331138 201.884705 
L 569.392648 202.056401 
L 569.423364 202.044684 
L 569.484719 201.934975 
L 569.545971 202.22989 
L 569.607119 201.989907 
L 569.668166 202.156901 
L 569.698651 202.028967 
L 569.759544 202.0451 
L 569.820336 201.997273 
L 569.881027 202.154901 
L 569.941617 202.072625 
L 570.002106 202.125571 
L 570.062495 202.025538 
L 570.092652 202.167852 
L 570.122784 201.88399 
L 570.182974 202.07912 
L 570.213031 202.114036 
L 570.243064 202.05909 
L 570.362948 202.022329 
L 570.482439 202.115815 
L 570.512251 201.937365 
L 570.60154 202.000975 
L 570.631255 202.179334 
L 570.660945 201.861999 
L 570.720253 202.048789 
L 571.074089 202.031097 
L 571.103421 201.756602 
L 571.162014 201.976359 
L 571.220513 201.891862 
L 571.249727 202.072248 
L 571.308086 201.835981 
L 571.395449 201.875794 
L 571.511608 201.99726 
L 571.54059 201.822368 
L 571.627398 201.921894 
L 571.685155 201.968488 
L 571.714 201.771384 
L 571.800396 201.818965 
L 571.886588 201.950562 
L 571.943937 201.894772 
L 572.029791 201.785335 
L 572.001195 201.984036 
L 572.058364 201.850906 
L 572.086914 201.983257 
L 572.143949 201.85027 
L 572.229333 201.92318 
L 572.25775 201.823979 
L 572.371198 201.992765 
L 572.399504 201.898344 
L 572.568885 201.789777 
L 572.625171 201.949406 
L 572.681369 201.846918 
L 572.821489 201.929116 
L 572.849448 201.762187 
L 572.877386 201.944873 
L 572.933198 201.80656 
L 573.016755 201.729843 
L 573.100122 201.930298 
L 573.155593 201.72631 
L 573.210981 201.863896 
L 573.349083 201.867702 
L 573.404177 201.663739 
L 573.486663 201.742651 
L 573.514117 201.831383 
L 573.568963 201.781347 
L 573.596355 201.714399 
L 573.651077 201.760005 
L 573.678408 201.85479 
L 573.733007 201.714516 
L 573.760276 201.70993 
L 573.787525 201.876184 
L 573.869149 201.77467 
L 573.896316 201.823693 
L 573.923463 201.736039 
L 573.95059 201.779723 
L 574.03185 201.843242 
L 574.085923 201.605104 
L 574.193829 201.811236 
L 574.220755 201.786153 
L 574.35509 201.635279 
L 574.381898 201.822823 
L 574.462203 201.721244 
L 574.515642 201.777671 
L 574.542332 201.646853 
L 574.569002 201.519282 
L 574.595653 201.693524 
L 574.622284 201.833032 
L 574.675489 201.673339 
L 574.702062 201.817328 
L 574.75515 201.637306 
L 574.834638 201.669468 
L 574.887534 201.840268 
L 574.940353 201.719997 
L 575.019438 201.619198 
L 575.045762 201.647528 
L 575.098352 201.800831 
L 575.124619 201.674547 
L 575.177096 201.53939 
L 575.203306 201.651373 
L 575.281824 201.636487 
L 575.334075 201.827005 
L 575.438353 201.574436 
L 575.49038 201.61208 
L 575.516366 201.663415 
L 575.568282 201.541196 
L 575.723589 201.705579 
L 575.775211 201.639774 
L 575.82676 201.472922 
L 575.878236 201.630993 
L 576.083418 201.49003 
L 576.134533 201.651308 
L 576.160064 201.602156 
L 576.185577 201.439059 
L 576.262009 201.63007 
L 576.312874 201.561278 
L 576.33828 201.412196 
L 576.38904 201.64532 
L 576.414393 201.496018 
L 576.51563 201.686614 
L 576.540895 201.609664 
L 576.591373 201.446242 
L 576.616586 201.632668 
L 576.66696 201.502318 
L 576.692121 201.413768 
L 576.74239 201.545248 
L 576.79259 201.611976 
L 576.817664 201.545716 
L 576.867761 201.431434 
L 576.942777 201.493745 
L 577.092347 201.414197 
L 577.117216 201.348482 
L 577.142068 201.442553 
L 577.191721 201.45714 
L 577.315559 201.406883 
L 577.340276 201.441371 
L 577.38966 201.549782 
L 577.414326 201.264674 
L 577.512827 201.34456 
L 577.561978 201.495966 
L 577.63558 201.395219 
L 577.660081 201.350002 
L 577.709034 201.443605 
L 577.733486 201.445969 
L 577.78234 201.381177 
L 577.855499 201.485094 
L 577.879853 201.288406 
L 577.977105 201.349366 
L 578.122499 201.443189 
L 578.146675 201.536714 
L 578.219107 201.39479 
L 578.363541 201.312073 
L 578.459513 201.316112 
L 578.531327 201.400077 
L 578.579124 201.238292 
L 578.745922 201.330024 
L 578.769689 201.196491 
L 578.840894 201.359575 
L 578.959262 201.256594 
L 579.006502 201.350743 
L 579.05368 201.250307 
L 579.124334 201.118112 
L 579.194851 201.186087 
L 579.218326 201.27274 
L 579.288661 201.130894 
L 579.312076 201.081495 
L 579.335476 201.154223 
L 579.475562 201.34491 
L 579.522137 201.138675 
L 579.591889 201.182541 
L 579.661508 201.270909 
L 579.707847 201.002895 
L 579.730994 201.420159 
L 579.754127 201.375371 
L 579.777245 201.270974 
L 579.800348 110.51817 
L 579.86957 180.664758 
L 579.984649 197.350967 
L 579.915646 176.279452 
L 580.007622 196.850609 
L 580.030579 198.900195 
L 580.076452 194.7082 
L 580.122266 197.488033 
L 580.304951 200.151013 
L 580.327722 200.008985 
L 580.350479 200.167899 
L 580.395951 200.149064 
L 580.418665 200.337582 
L 580.509382 200.231431 
L 580.532026 200.130775 
L 580.577272 200.321059 
L 580.599874 200.203945 
L 580.622462 200.329528 
L 580.667596 200.171614 
L 580.712674 200.252123 
L 580.757696 200.403309 
L 580.802663 200.098847 
L 580.825125 200.339491 
L 580.914837 200.262035 
L 580.981977 200.199944 
L 581.004329 200.269088 
L 581.138156 200.141167 
L 581.182657 200.280545 
L 581.249305 200.18563 
L 581.33798 200.086286 
L 581.360116 200.290988 
L 581.448522 200.108823 
L 581.492645 200.244629 
L 581.55873 200.162262 
L 581.624694 200.067853 
L 581.602719 200.211427 
L 581.646656 200.113603 
L 581.734371 200.214908 
L 581.756267 200.083545 
L 581.843719 200.113083 
L 581.887366 200.229418 
L 581.95274 200.160989 
L 582.083136 200.087338 
L 582.104823 200.26132 
L 582.126498 199.960819 
L 582.148159 200.15591 
L 582.191444 199.346153 
L 582.213067 200.225975 
L 582.234677 199.779498 
L 582.256274 200.208946 
L 582.342536 200.201412 
L 582.407099 200.059735 
L 582.450077 200.076219 
L 582.471547 200.172796 
L 582.557302 200.111758 
L 582.578709 199.920876 
L 582.621486 200.179135 
L 582.664212 200.040056 
L 582.706888 199.994501 
L 582.813361 200.121617 
L 582.834619 200.005945 
L 582.855864 200.132334 
L 582.919524 200.03034 
L 583.004232 200.136659 
L 583.025379 200.032522 
L 583.17306 200.164937 
L 583.194109 200.010349 
L 583.278182 200.025092 
L 583.383001 200.114616 
L 583.320146 200.009517 
L 583.403929 200.094027 
L 583.445749 199.986617 
L 583.508388 200.012778 
L 583.529244 200.152649 
L 583.57092 200.002009 
L 583.612549 200.049226 
L 583.757875 199.96169 
L 583.778589 200.108913 
L 583.881981 200.056332 
L 583.964484 200.131113 
L 583.98508 199.966691 
L 584.087889 200.011297 
L 584.190409 200.113551 
L 584.272218 199.935762 
L 584.251783 200.138971 
L 584.313053 200.059943 
L 584.394587 199.99406 
L 584.374221 200.120487 
L 584.435286 200.02126 
L 584.536835 200.081389 
L 584.55711 199.964365 
L 584.577375 200.124176 
L 584.577375 200.124176 
" clip-path="url(#pc208d8d769)" style="fill: none; stroke: #008000; stroke-width: 1.5; stroke-linecap: square"/>
   </g>
   <g id="patch_3">
    <path d="M 227.457375 311.6435 
L 227.457375 45.5315 
" style="fill: none; stroke: #000000; stroke-width: 0.8; stroke-linejoin: miter; stroke-linecap: square"/>
   </g>
   <g id="patch_4">
    <path d="M 584.577375 311.6435 
L 584.577375 45.5315 
" style="fill: none; stroke: #000000; stroke-width: 0.8; stroke-linejoin: miter; stroke-linecap: square"/>
   </g>
   <g id="patch_5">
    <path d="M 227.457375 311.6435 
L 584.577375 311.6435 
" style="fill: none; stroke: #000000; stroke-width: 0.8; stroke-linejoin: miter; stroke-linecap: square"/>
   </g>
   <g id="patch_6">
    <path d="M 227.457375 45.5315 
L 584.577375 45.5315 
" style="fill: none; stroke: #000000; stroke-width: 0.8; stroke-linejoin: miter; stroke-linecap: square"/>
   </g>
   <g id="text_10">
    <!-- Loss of the 09_07_25_CINIC10_torch_model_(1024+8192.1+1)_car-plane -->
    <g transform="translate(7.2 25.5315) scale(0.264 -0.264)">
     <defs>
      <path id="TimesNewRomanPSMT-20" transform="scale(0.015625)"/>
      <path id="TimesNewRomanPSMT-66" d="M 1319 2638 
L 1319 756 
Q 1319 356 1406 250 
Q 1522 113 1716 113 
L 1975 113 
L 1975 0 
L 266 0 
L 266 113 
L 394 113 
Q 519 113 622 175 
Q 725 238 764 344 
Q 803 450 803 756 
L 803 2638 
L 247 2638 
L 247 2863 
L 803 2863 
L 803 3050 
Q 803 3478 940 3775 
Q 1078 4072 1361 4255 
Q 1644 4438 1997 4438 
Q 2325 4438 2600 4225 
Q 2781 4084 2781 3909 
Q 2781 3816 2700 3733 
Q 2619 3650 2525 3650 
Q 2453 3650 2373 3701 
Q 2294 3753 2178 3923 
Q 2063 4094 1966 4153 
Q 1869 4213 1750 4213 
Q 1606 4213 1506 4136 
Q 1406 4059 1362 3898 
Q 1319 3738 1319 3069 
L 1319 2863 
L 2056 2863 
L 2056 2638 
L 1319 2638 
z
" transform="scale(0.015625)"/>
      <path id="TimesNewRomanPSMT-74" d="M 1031 3803 
L 1031 2863 
L 1700 2863 
L 1700 2644 
L 1031 2644 
L 1031 788 
Q 1031 509 1111 412 
Q 1191 316 1316 316 
Q 1419 316 1516 380 
Q 1613 444 1666 569 
L 1788 569 
Q 1678 263 1478 108 
Q 1278 -47 1066 -47 
Q 922 -47 784 33 
Q 647 113 581 261 
Q 516 409 516 719 
L 516 2644 
L 63 2644 
L 63 2747 
Q 234 2816 414 2980 
Q 594 3144 734 3369 
Q 806 3488 934 3803 
L 1031 3803 
z
" transform="scale(0.015625)"/>
      <path id="TimesNewRomanPSMT-68" d="M 1041 4444 
L 1041 2350 
Q 1388 2731 1591 2839 
Q 1794 2947 1997 2947 
Q 2241 2947 2416 2812 
Q 2591 2678 2675 2391 
Q 2734 2191 2734 1659 
L 2734 647 
Q 2734 375 2778 275 
Q 2809 200 2884 156 
Q 2959 113 3159 113 
L 3159 0 
L 1753 0 
L 1753 113 
L 1819 113 
Q 2019 113 2097 173 
Q 2175 234 2206 353 
Q 2216 403 2216 647 
L 2216 1659 
Q 2216 2128 2167 2275 
Q 2119 2422 2012 2495 
Q 1906 2569 1756 2569 
Q 1603 2569 1437 2487 
Q 1272 2406 1041 2159 
L 1041 647 
Q 1041 353 1073 281 
Q 1106 209 1195 161 
Q 1284 113 1503 113 
L 1503 0 
L 84 0 
L 84 113 
Q 275 113 384 172 
Q 447 203 484 290 
Q 522 378 522 647 
L 522 3238 
Q 522 3728 498 3840 
Q 475 3953 426 3993 
Q 378 4034 297 4034 
Q 231 4034 84 3984 
L 41 4094 
L 897 4444 
L 1041 4444 
z
" transform="scale(0.015625)"/>
      <path id="TimesNewRomanPSMT-65" d="M 681 1784 
Q 678 1147 991 784 
Q 1303 422 1725 422 
Q 2006 422 2214 576 
Q 2422 731 2563 1106 
L 2659 1044 
Q 2594 616 2278 264 
Q 1963 -88 1488 -88 
Q 972 -88 605 314 
Q 238 716 238 1394 
Q 238 2128 614 2539 
Q 991 2950 1559 2950 
Q 2041 2950 2350 2633 
Q 2659 2316 2659 1784 
L 681 1784 
z
M 681 1966 
L 2006 1966 
Q 1991 2241 1941 2353 
Q 1863 2528 1708 2628 
Q 1553 2728 1384 2728 
Q 1125 2728 920 2526 
Q 716 2325 681 1966 
z
" transform="scale(0.015625)"/>
      <path id="TimesNewRomanPSMT-39" d="M 338 -88 
L 338 28 
Q 744 34 1094 217 
Q 1444 400 1770 856 
Q 2097 1313 2225 1859 
Q 1734 1544 1338 1544 
Q 891 1544 572 1889 
Q 253 2234 253 2806 
Q 253 3363 572 3797 
Q 956 4325 1575 4325 
Q 2097 4325 2469 3894 
Q 2925 3359 2925 2575 
Q 2925 1869 2578 1258 
Q 2231 647 1613 244 
Q 1109 -88 516 -88 
L 338 -88 
z
M 2275 2091 
Q 2331 2497 2331 2741 
Q 2331 3044 2228 3395 
Q 2125 3747 1936 3934 
Q 1747 4122 1506 4122 
Q 1228 4122 1018 3872 
Q 809 3622 809 3128 
Q 809 2469 1088 2097 
Q 1291 1828 1588 1828 
Q 1731 1828 1928 1897 
Q 2125 1966 2275 2091 
z
" transform="scale(0.015625)"/>
      <path id="TimesNewRomanPSMT-5f" d="M 3256 -1381 
L -53 -1381 
L -53 -1119 
L 3256 -1119 
L 3256 -1381 
z
" transform="scale(0.015625)"/>
      <path id="TimesNewRomanPSMT-37" d="M 644 4238 
L 2916 4238 
L 2916 4119 
L 1503 -88 
L 1153 -88 
L 2419 3728 
L 1253 3728 
Q 900 3728 750 3644 
Q 488 3500 328 3200 
L 238 3234 
L 644 4238 
z
" transform="scale(0.015625)"/>
      <path id="TimesNewRomanPSMT-43" d="M 3853 4334 
L 3950 2894 
L 3853 2894 
Q 3659 3541 3300 3825 
Q 2941 4109 2438 4109 
Q 2016 4109 1675 3895 
Q 1334 3681 1139 3212 
Q 944 2744 944 2047 
Q 944 1472 1128 1050 
Q 1313 628 1683 403 
Q 2053 178 2528 178 
Q 2941 178 3256 354 
Q 3572 531 3950 1056 
L 4047 994 
Q 3728 428 3303 165 
Q 2878 -97 2294 -97 
Q 1241 -97 663 684 
Q 231 1266 231 2053 
Q 231 2688 515 3219 
Q 800 3750 1298 4042 
Q 1797 4334 2388 4334 
Q 2847 4334 3294 4109 
Q 3425 4041 3481 4041 
Q 3566 4041 3628 4100 
Q 3709 4184 3744 4334 
L 3853 4334 
z
" transform="scale(0.015625)"/>
      <path id="TimesNewRomanPSMT-49" d="M 1975 116 
L 1975 0 
L 159 0 
L 159 116 
L 309 116 
Q 572 116 691 269 
Q 766 369 766 750 
L 766 3488 
Q 766 3809 725 3913 
Q 694 3991 597 4047 
Q 459 4122 309 4122 
L 159 4122 
L 159 4238 
L 1975 4238 
L 1975 4122 
L 1822 4122 
Q 1563 4122 1444 3969 
Q 1366 3869 1366 3488 
L 1366 750 
Q 1366 428 1406 325 
Q 1438 247 1538 191 
Q 1672 116 1822 116 
L 1975 116 
z
" transform="scale(0.015625)"/>
      <path id="TimesNewRomanPSMT-4e" d="M -84 4238 
L 1066 4238 
L 3656 1059 
L 3656 3503 
Q 3656 3894 3569 3991 
Q 3453 4122 3203 4122 
L 3056 4122 
L 3056 4238 
L 4531 4238 
L 4531 4122 
L 4381 4122 
Q 4113 4122 4000 3959 
Q 3931 3859 3931 3503 
L 3931 -69 
L 3819 -69 
L 1025 3344 
L 1025 734 
Q 1025 344 1109 247 
Q 1228 116 1475 116 
L 1625 116 
L 1625 0 
L 150 0 
L 150 116 
L 297 116 
Q 569 116 681 278 
Q 750 378 750 734 
L 750 3681 
Q 566 3897 470 3965 
Q 375 4034 191 4094 
Q 100 4122 -84 4122 
L -84 4238 
z
" transform="scale(0.015625)"/>
      <path id="TimesNewRomanPSMT-72" d="M 1038 2947 
L 1038 2303 
Q 1397 2947 1775 2947 
Q 1947 2947 2059 2842 
Q 2172 2738 2172 2600 
Q 2172 2478 2090 2393 
Q 2009 2309 1897 2309 
Q 1788 2309 1652 2417 
Q 1516 2525 1450 2525 
Q 1394 2525 1328 2463 
Q 1188 2334 1038 2041 
L 1038 669 
Q 1038 431 1097 309 
Q 1138 225 1241 169 
Q 1344 113 1538 113 
L 1538 0 
L 72 0 
L 72 113 
Q 291 113 397 181 
Q 475 231 506 341 
Q 522 394 522 644 
L 522 1753 
Q 522 2253 501 2348 
Q 481 2444 426 2487 
Q 372 2531 291 2531 
Q 194 2531 72 2484 
L 41 2597 
L 906 2947 
L 1038 2947 
z
" transform="scale(0.015625)"/>
      <path id="TimesNewRomanPSMT-63" d="M 2631 1088 
Q 2516 522 2178 217 
Q 1841 -88 1431 -88 
Q 944 -88 581 321 
Q 219 731 219 1428 
Q 219 2103 620 2525 
Q 1022 2947 1584 2947 
Q 2006 2947 2278 2723 
Q 2550 2500 2550 2259 
Q 2550 2141 2473 2067 
Q 2397 1994 2259 1994 
Q 2075 1994 1981 2113 
Q 1928 2178 1911 2362 
Q 1894 2547 1784 2644 
Q 1675 2738 1481 2738 
Q 1169 2738 978 2506 
Q 725 2200 725 1697 
Q 725 1184 976 792 
Q 1228 400 1656 400 
Q 1963 400 2206 609 
Q 2378 753 2541 1131 
L 2631 1088 
z
" transform="scale(0.015625)"/>
      <path id="TimesNewRomanPSMT-6d" d="M 1050 2338 
Q 1363 2650 1419 2697 
Q 1559 2816 1721 2881 
Q 1884 2947 2044 2947 
Q 2313 2947 2506 2790 
Q 2700 2634 2766 2338 
Q 3088 2713 3309 2830 
Q 3531 2947 3766 2947 
Q 3994 2947 4170 2830 
Q 4347 2713 4450 2447 
Q 4519 2266 4519 1878 
L 4519 647 
Q 4519 378 4559 278 
Q 4591 209 4675 161 
Q 4759 113 4950 113 
L 4950 0 
L 3538 0 
L 3538 113 
L 3597 113 
Q 3781 113 3884 184 
Q 3956 234 3988 344 
Q 4000 397 4000 647 
L 4000 1878 
Q 4000 2228 3916 2372 
Q 3794 2572 3525 2572 
Q 3359 2572 3192 2489 
Q 3025 2406 2788 2181 
L 2781 2147 
L 2788 2013 
L 2788 647 
Q 2788 353 2820 281 
Q 2853 209 2943 161 
Q 3034 113 3253 113 
L 3253 0 
L 1806 0 
L 1806 113 
Q 2044 113 2133 169 
Q 2222 225 2256 338 
Q 2272 391 2272 647 
L 2272 1878 
Q 2272 2228 2169 2381 
Q 2031 2581 1784 2581 
Q 1616 2581 1450 2491 
Q 1191 2353 1050 2181 
L 1050 647 
Q 1050 366 1089 281 
Q 1128 197 1204 155 
Q 1281 113 1516 113 
L 1516 0 
L 100 0 
L 100 113 
Q 297 113 375 155 
Q 453 197 493 289 
Q 534 381 534 647 
L 534 1741 
Q 534 2213 506 2350 
Q 484 2453 437 2492 
Q 391 2531 309 2531 
Q 222 2531 100 2484 
L 53 2597 
L 916 2947 
L 1050 2947 
L 1050 2338 
z
" transform="scale(0.015625)"/>
      <path id="TimesNewRomanPSMT-64" d="M 2222 322 
Q 2013 103 1813 7 
Q 1613 -88 1381 -88 
Q 913 -88 563 304 
Q 213 697 213 1313 
Q 213 1928 600 2439 
Q 988 2950 1597 2950 
Q 1975 2950 2222 2709 
L 2222 3238 
Q 2222 3728 2198 3840 
Q 2175 3953 2125 3993 
Q 2075 4034 2000 4034 
Q 1919 4034 1784 3984 
L 1744 4094 
L 2597 4444 
L 2738 4444 
L 2738 1134 
Q 2738 631 2761 520 
Q 2784 409 2836 365 
Q 2888 322 2956 322 
Q 3041 322 3181 375 
L 3216 266 
L 2366 -88 
L 2222 -88 
L 2222 322 
z
M 2222 541 
L 2222 2016 
Q 2203 2228 2109 2403 
Q 2016 2578 1861 2667 
Q 1706 2756 1559 2756 
Q 1284 2756 1069 2509 
Q 784 2184 784 1559 
Q 784 928 1059 592 
Q 1334 256 1672 256 
Q 1956 256 2222 541 
z
" transform="scale(0.015625)"/>
      <path id="TimesNewRomanPSMT-6c" d="M 1184 4444 
L 1184 647 
Q 1184 378 1223 290 
Q 1263 203 1344 158 
Q 1425 113 1647 113 
L 1647 0 
L 244 0 
L 244 113 
Q 441 113 512 153 
Q 584 194 625 287 
Q 666 381 666 647 
L 666 3247 
Q 666 3731 644 3842 
Q 622 3953 573 3993 
Q 525 4034 450 4034 
Q 369 4034 244 3984 
L 191 4094 
L 1044 4444 
L 1184 4444 
z
" transform="scale(0.015625)"/>
      <path id="TimesNewRomanPSMT-28" d="M 1988 -1253 
L 1988 -1369 
Q 1516 -1131 1200 -813 
Q 750 -359 506 256 
Q 263 872 263 1534 
Q 263 2503 741 3301 
Q 1219 4100 1988 4444 
L 1988 4313 
Q 1603 4100 1356 3731 
Q 1109 3363 987 2797 
Q 866 2231 866 1616 
Q 866 947 969 400 
Q 1050 -31 1165 -292 
Q 1281 -553 1476 -793 
Q 1672 -1034 1988 -1253 
z
" transform="scale(0.015625)"/>
      <path id="TimesNewRomanPSMT-34" d="M 2978 1563 
L 2978 1119 
L 2409 1119 
L 2409 0 
L 1894 0 
L 1894 1119 
L 100 1119 
L 100 1519 
L 2066 4325 
L 2409 4325 
L 2409 1563 
L 2978 1563 
z
M 1894 1563 
L 1894 3666 
L 406 1563 
L 1894 1563 
z
" transform="scale(0.015625)"/>
      <path id="TimesNewRomanPSMT-2b" d="M 1672 441 
L 1672 2000 
L 116 2000 
L 116 2256 
L 1672 2256 
L 1672 3809 
L 1922 3809 
L 1922 2256 
L 3484 2256 
L 3484 2000 
L 1922 2000 
L 1922 441 
L 1672 441 
z
" transform="scale(0.015625)"/>
      <path id="TimesNewRomanPSMT-38" d="M 1228 2134 
Q 725 2547 579 2797 
Q 434 3047 434 3316 
Q 434 3728 753 4026 
Q 1072 4325 1600 4325 
Q 2113 4325 2425 4047 
Q 2738 3769 2738 3413 
Q 2738 3175 2569 2928 
Q 2400 2681 1866 2347 
Q 2416 1922 2594 1678 
Q 2831 1359 2831 1006 
Q 2831 559 2490 242 
Q 2150 -75 1597 -75 
Q 994 -75 656 303 
Q 388 606 388 966 
Q 388 1247 577 1523 
Q 766 1800 1228 2134 
z
M 1719 2469 
Q 2094 2806 2194 3001 
Q 2294 3197 2294 3444 
Q 2294 3772 2109 3958 
Q 1925 4144 1606 4144 
Q 1288 4144 1088 3959 
Q 888 3775 888 3528 
Q 888 3366 970 3203 
Q 1053 3041 1206 2894 
L 1719 2469 
z
M 1375 2016 
Q 1116 1797 991 1539 
Q 866 1281 866 981 
Q 866 578 1086 336 
Q 1306 94 1647 94 
Q 1984 94 2187 284 
Q 2391 475 2391 747 
Q 2391 972 2272 1150 
Q 2050 1481 1375 2016 
z
" transform="scale(0.015625)"/>
      <path id="TimesNewRomanPSMT-29" d="M 144 4313 
L 144 4444 
Q 619 4209 934 3891 
Q 1381 3434 1625 2820 
Q 1869 2206 1869 1541 
Q 1869 572 1392 -226 
Q 916 -1025 144 -1369 
L 144 -1253 
Q 528 -1038 776 -670 
Q 1025 -303 1145 264 
Q 1266 831 1266 1447 
Q 1266 2113 1163 2663 
Q 1084 3094 967 3353 
Q 850 3613 656 3853 
Q 463 4094 144 4313 
z
" transform="scale(0.015625)"/>
      <path id="TimesNewRomanPSMT-61" d="M 1822 413 
Q 1381 72 1269 19 
Q 1100 -59 909 -59 
Q 613 -59 420 144 
Q 228 347 228 678 
Q 228 888 322 1041 
Q 450 1253 767 1440 
Q 1084 1628 1822 1897 
L 1822 2009 
Q 1822 2438 1686 2597 
Q 1550 2756 1291 2756 
Q 1094 2756 978 2650 
Q 859 2544 859 2406 
L 866 2225 
Q 866 2081 792 2003 
Q 719 1925 600 1925 
Q 484 1925 411 2006 
Q 338 2088 338 2228 
Q 338 2497 613 2722 
Q 888 2947 1384 2947 
Q 1766 2947 2009 2819 
Q 2194 2722 2281 2516 
Q 2338 2381 2338 1966 
L 2338 994 
Q 2338 584 2353 492 
Q 2369 400 2405 369 
Q 2441 338 2488 338 
Q 2538 338 2575 359 
Q 2641 400 2828 588 
L 2828 413 
Q 2478 -56 2159 -56 
Q 2006 -56 1915 50 
Q 1825 156 1822 413 
z
M 1822 616 
L 1822 1706 
Q 1350 1519 1213 1441 
Q 966 1303 859 1153 
Q 753 1003 753 825 
Q 753 600 887 451 
Q 1022 303 1197 303 
Q 1434 303 1822 616 
z
" transform="scale(0.015625)"/>
      <path id="TimesNewRomanPSMT-2d" d="M 259 1672 
L 1875 1672 
L 1875 1200 
L 259 1200 
L 259 1672 
z
" transform="scale(0.015625)"/>
      <path id="TimesNewRomanPSMT-70" d="M -6 2578 
L 875 2934 
L 994 2934 
L 994 2266 
Q 1216 2644 1439 2795 
Q 1663 2947 1909 2947 
Q 2341 2947 2628 2609 
Q 2981 2197 2981 1534 
Q 2981 794 2556 309 
Q 2206 -88 1675 -88 
Q 1444 -88 1275 -22 
Q 1150 25 994 166 
L 994 -706 
Q 994 -1000 1030 -1079 
Q 1066 -1159 1155 -1206 
Q 1244 -1253 1478 -1253 
L 1478 -1369 
L -22 -1369 
L -22 -1253 
L 56 -1253 
Q 228 -1256 350 -1188 
Q 409 -1153 442 -1076 
Q 475 -1000 475 -688 
L 475 2019 
Q 475 2297 450 2372 
Q 425 2447 370 2484 
Q 316 2522 222 2522 
Q 147 2522 31 2478 
L -6 2578 
z
M 994 2081 
L 994 1013 
Q 994 666 1022 556 
Q 1066 375 1236 237 
Q 1406 100 1666 100 
Q 1978 100 2172 344 
Q 2425 663 2425 1241 
Q 2425 1897 2138 2250 
Q 1938 2494 1663 2494 
Q 1513 2494 1366 2419 
Q 1253 2363 994 2081 
z
" transform="scale(0.015625)"/>
      <path id="TimesNewRomanPSMT-6e" d="M 1034 2341 
Q 1538 2947 1994 2947 
Q 2228 2947 2397 2830 
Q 2566 2713 2666 2444 
Q 2734 2256 2734 1869 
L 2734 647 
Q 2734 375 2778 278 
Q 2813 200 2889 156 
Q 2966 113 3172 113 
L 3172 0 
L 1756 0 
L 1756 113 
L 1816 113 
Q 2016 113 2095 173 
Q 2175 234 2206 353 
Q 2219 400 2219 647 
L 2219 1819 
Q 2219 2209 2117 2386 
Q 2016 2563 1775 2563 
Q 1403 2563 1034 2156 
L 1034 647 
Q 1034 356 1069 288 
Q 1113 197 1189 155 
Q 1266 113 1500 113 
L 1500 0 
L 84 0 
L 84 113 
L 147 113 
Q 366 113 442 223 
Q 519 334 519 647 
L 519 1709 
Q 519 2225 495 2337 
Q 472 2450 423 2490 
Q 375 2531 294 2531 
Q 206 2531 84 2484 
L 38 2597 
L 900 2947 
L 1034 2947 
L 1034 2341 
z
" transform="scale(0.015625)"/>
     </defs>
     <use xlink:href="#TimesNewRomanPSMT-4c"/>
     <use xlink:href="#TimesNewRomanPSMT-6f" transform="translate(61.083984 0)"/>
     <use xlink:href="#TimesNewRomanPSMT-73" transform="translate(111.083984 0)"/>
     <use xlink:href="#TimesNewRomanPSMT-73" transform="translate(150 0)"/>
     <use xlink:href="#TimesNewRomanPSMT-20" transform="translate(188.916016 0)"/>
     <use xlink:href="#TimesNewRomanPSMT-6f" transform="translate(213.916016 0)"/>
     <use xlink:href="#TimesNewRomanPSMT-66" transform="translate(263.916016 0)"/>
     <use xlink:href="#TimesNewRomanPSMT-20" transform="translate(297.216797 0)"/>
     <use xlink:href="#TimesNewRomanPSMT-74" transform="translate(322.216797 0)"/>
     <use xlink:href="#TimesNewRomanPSMT-68" transform="translate(350 0)"/>
     <use xlink:href="#TimesNewRomanPSMT-65" transform="translate(400 0)"/>
     <use xlink:href="#TimesNewRomanPSMT-20" transform="translate(444.384766 0)"/>
     <use xlink:href="#TimesNewRomanPSMT-30" transform="translate(469.384766 0)"/>
     <use xlink:href="#TimesNewRomanPSMT-39" transform="translate(519.384766 0)"/>
     <use xlink:href="#TimesNewRomanPSMT-5f" transform="translate(569.384766 0)"/>
     <use xlink:href="#TimesNewRomanPSMT-30" transform="translate(619.384766 0)"/>
     <use xlink:href="#TimesNewRomanPSMT-37" transform="translate(669.384766 0)"/>
     <use xlink:href="#TimesNewRomanPSMT-5f" transform="translate(719.384766 0)"/>
     <use xlink:href="#TimesNewRomanPSMT-32" transform="translate(769.384766 0)"/>
     <use xlink:href="#TimesNewRomanPSMT-35" transform="translate(819.384766 0)"/>
     <use xlink:href="#TimesNewRomanPSMT-5f" transform="translate(869.384766 0)"/>
     <use xlink:href="#TimesNewRomanPSMT-43" transform="translate(919.384766 0)"/>
     <use xlink:href="#TimesNewRomanPSMT-49" transform="translate(986.083984 0)"/>
     <use xlink:href="#TimesNewRomanPSMT-4e" transform="translate(1019.384766 0)"/>
     <use xlink:href="#TimesNewRomanPSMT-49" transform="translate(1091.601562 0)"/>
     <use xlink:href="#TimesNewRomanPSMT-43" transform="translate(1124.902344 0)"/>
     <use xlink:href="#TimesNewRomanPSMT-31" transform="translate(1191.601562 0)"/>
     <use xlink:href="#TimesNewRomanPSMT-30" transform="translate(1241.601562 0)"/>
     <use xlink:href="#TimesNewRomanPSMT-5f" transform="translate(1291.601562 0)"/>
     <use xlink:href="#TimesNewRomanPSMT-74" transform="translate(1341.601562 0)"/>
     <use xlink:href="#TimesNewRomanPSMT-6f" transform="translate(1369.384766 0)"/>
     <use xlink:href="#TimesNewRomanPSMT-72" transform="translate(1419.384766 0)"/>
     <use xlink:href="#TimesNewRomanPSMT-63" transform="translate(1452.685547 0)"/>
     <use xlink:href="#TimesNewRomanPSMT-68" transform="translate(1497.070312 0)"/>
     <use xlink:href="#TimesNewRomanPSMT-5f" transform="translate(1547.070312 0)"/>
     <use xlink:href="#TimesNewRomanPSMT-6d" transform="translate(1597.070312 0)"/>
     <use xlink:href="#TimesNewRomanPSMT-6f" transform="translate(1674.853516 0)"/>
     <use xlink:href="#TimesNewRomanPSMT-64" transform="translate(1724.853516 0)"/>
     <use xlink:href="#TimesNewRomanPSMT-65" transform="translate(1774.853516 0)"/>
     <use xlink:href="#TimesNewRomanPSMT-6c" transform="translate(1819.238281 0)"/>
     <use xlink:href="#TimesNewRomanPSMT-5f" transform="translate(1847.021484 0)"/>
     <use xlink:href="#TimesNewRomanPSMT-28" transform="translate(1897.021484 0)"/>
     <use xlink:href="#TimesNewRomanPSMT-31" transform="translate(1930.322266 0)"/>
     <use xlink:href="#TimesNewRomanPSMT-30" transform="translate(1980.322266 0)"/>
     <use xlink:href="#TimesNewRomanPSMT-32" transform="translate(2030.322266 0)"/>
     <use xlink:href="#TimesNewRomanPSMT-34" transform="translate(2080.322266 0)"/>
     <use xlink:href="#TimesNewRomanPSMT-2b" transform="translate(2130.322266 0)"/>
     <use xlink:href="#TimesNewRomanPSMT-38" transform="translate(2186.71875 0)"/>
     <use xlink:href="#TimesNewRomanPSMT-31" transform="translate(2236.71875 0)"/>
     <use xlink:href="#TimesNewRomanPSMT-39" transform="translate(2286.71875 0)"/>
     <use xlink:href="#TimesNewRomanPSMT-32" transform="translate(2336.71875 0)"/>
     <use xlink:href="#TimesNewRomanPSMT-2e" transform="translate(2386.71875 0)"/>
     <use xlink:href="#TimesNewRomanPSMT-31" transform="translate(2411.71875 0)"/>
     <use xlink:href="#TimesNewRomanPSMT-2b" transform="translate(2461.71875 0)"/>
     <use xlink:href="#TimesNewRomanPSMT-31" transform="translate(2518.115234 0)"/>
     <use xlink:href="#TimesNewRomanPSMT-29" transform="translate(2568.115234 0)"/>
     <use xlink:href="#TimesNewRomanPSMT-5f" transform="translate(2601.416016 0)"/>
     <use xlink:href="#TimesNewRomanPSMT-63" transform="translate(2651.416016 0)"/>
     <use xlink:href="#TimesNewRomanPSMT-61" transform="translate(2695.800781 0)"/>
     <use xlink:href="#TimesNewRomanPSMT-72" transform="translate(2740.185547 0)"/>
     <use xlink:href="#TimesNewRomanPSMT-2d" transform="translate(2771.486328 0)"/>
     <use xlink:href="#TimesNewRomanPSMT-70" transform="translate(2804.787109 0)"/>
     <use xlink:href="#TimesNewRomanPSMT-6c" transform="translate(2854.787109 0)"/>
     <use xlink:href="#TimesNewRomanPSMT-61" transform="translate(2882.570312 0)"/>
     <use xlink:href="#TimesNewRomanPSMT-6e" transform="translate(2926.955078 0)"/>
     <use xlink:href="#TimesNewRomanPSMT-65" transform="translate(2976.955078 0)"/>
    </g>
   </g>
   <g id="legend_1">
    <g id="patch_7">
     <path d="M 305.738625 125.384625 
L 506.296125 125.384625 
Q 510.696125 125.384625 510.696125 120.984625 
L 510.696125 60.9315 
Q 510.696125 56.5315 506.296125 56.5315 
L 305.738625 56.5315 
Q 301.338625 56.5315 301.338625 60.9315 
L 301.338625 120.984625 
Q 301.338625 125.384625 305.738625 125.384625 
z
" style="fill: #ffffff; opacity: 0.8; stroke: #cccccc; stroke-linejoin: miter"/>
    </g>
    <g id="line2d_17">
     <path d="M 310.138625 73.0315 
L 332.138625 73.0315 
L 354.138625 73.0315 
" style="fill: none; stroke: #ffa500; stroke-width: 1.5; stroke-linecap: square"/>
    </g>
    <g id="text_11">
     <!-- Training loss -->
     <g transform="translate(371.738625 80.7315) scale(0.22 -0.22)">
      <defs>
       <path id="TimesNewRomanPSMT-54" d="M 3703 4238 
L 3750 3244 
L 3631 3244 
Q 3597 3506 3538 3619 
Q 3441 3800 3280 3886 
Q 3119 3972 2856 3972 
L 2259 3972 
L 2259 734 
Q 2259 344 2344 247 
Q 2463 116 2709 116 
L 2856 116 
L 2856 0 
L 1059 0 
L 1059 116 
L 1209 116 
Q 1478 116 1591 278 
Q 1659 378 1659 734 
L 1659 3972 
L 1150 3972 
Q 853 3972 728 3928 
Q 566 3869 450 3700 
Q 334 3531 313 3244 
L 194 3244 
L 244 4238 
L 3703 4238 
z
" transform="scale(0.015625)"/>
       <path id="TimesNewRomanPSMT-69" d="M 928 4444 
Q 1059 4444 1151 4351 
Q 1244 4259 1244 4128 
Q 1244 3997 1151 3903 
Q 1059 3809 928 3809 
Q 797 3809 703 3903 
Q 609 3997 609 4128 
Q 609 4259 701 4351 
Q 794 4444 928 4444 
z
M 1188 2947 
L 1188 647 
Q 1188 378 1227 289 
Q 1266 200 1342 156 
Q 1419 113 1622 113 
L 1622 0 
L 231 0 
L 231 113 
Q 441 113 512 153 
Q 584 194 626 287 
Q 669 381 669 647 
L 669 1750 
Q 669 2216 641 2353 
Q 619 2453 572 2492 
Q 525 2531 444 2531 
Q 356 2531 231 2484 
L 188 2597 
L 1050 2947 
L 1188 2947 
z
" transform="scale(0.015625)"/>
       <path id="TimesNewRomanPSMT-67" d="M 966 1044 
Q 703 1172 562 1401 
Q 422 1631 422 1909 
Q 422 2334 742 2640 
Q 1063 2947 1563 2947 
Q 1972 2947 2272 2747 
L 2878 2747 
Q 3013 2747 3034 2739 
Q 3056 2731 3066 2713 
Q 3084 2684 3084 2613 
Q 3084 2531 3069 2500 
Q 3059 2484 3036 2475 
Q 3013 2466 2878 2466 
L 2506 2466 
Q 2681 2241 2681 1891 
Q 2681 1491 2375 1206 
Q 2069 922 1553 922 
Q 1341 922 1119 984 
Q 981 866 932 777 
Q 884 688 884 625 
Q 884 572 936 522 
Q 988 472 1138 450 
Q 1225 438 1575 428 
Q 2219 413 2409 384 
Q 2700 344 2873 169 
Q 3047 -6 3047 -263 
Q 3047 -616 2716 -925 
Q 2228 -1381 1444 -1381 
Q 841 -1381 425 -1109 
Q 191 -953 191 -784 
Q 191 -709 225 -634 
Q 278 -519 444 -313 
Q 466 -284 763 25 
Q 600 122 533 198 
Q 466 275 466 372 
Q 466 481 555 628 
Q 644 775 966 1044 
z
M 1509 2797 
Q 1278 2797 1122 2612 
Q 966 2428 966 2047 
Q 966 1553 1178 1281 
Q 1341 1075 1591 1075 
Q 1828 1075 1981 1253 
Q 2134 1431 2134 1813 
Q 2134 2309 1919 2591 
Q 1759 2797 1509 2797 
z
M 934 0 
Q 788 -159 713 -296 
Q 638 -434 638 -550 
Q 638 -700 819 -813 
Q 1131 -1006 1722 -1006 
Q 2284 -1006 2551 -807 
Q 2819 -609 2819 -384 
Q 2819 -222 2659 -153 
Q 2497 -84 2016 -72 
Q 1313 -53 934 0 
z
" transform="scale(0.015625)"/>
      </defs>
      <use xlink:href="#TimesNewRomanPSMT-54"/>
      <use xlink:href="#TimesNewRomanPSMT-72" transform="translate(57.583984 0)"/>
      <use xlink:href="#TimesNewRomanPSMT-61" transform="translate(90.884766 0)"/>
      <use xlink:href="#TimesNewRomanPSMT-69" transform="translate(135.269531 0)"/>
      <use xlink:href="#TimesNewRomanPSMT-6e" transform="translate(163.052734 0)"/>
      <use xlink:href="#TimesNewRomanPSMT-69" transform="translate(213.052734 0)"/>
      <use xlink:href="#TimesNewRomanPSMT-6e" transform="translate(240.835938 0)"/>
      <use xlink:href="#TimesNewRomanPSMT-67" transform="translate(290.835938 0)"/>
      <use xlink:href="#TimesNewRomanPSMT-20" transform="translate(340.835938 0)"/>
      <use xlink:href="#TimesNewRomanPSMT-6c" transform="translate(365.835938 0)"/>
      <use xlink:href="#TimesNewRomanPSMT-6f" transform="translate(393.619141 0)"/>
      <use xlink:href="#TimesNewRomanPSMT-73" transform="translate(443.619141 0)"/>
      <use xlink:href="#TimesNewRomanPSMT-73" transform="translate(482.535156 0)"/>
     </g>
    </g>
    <g id="line2d_18">
     <path d="M 310.138625 104.178687 
L 332.138625 104.178687 
L 354.138625 104.178687 
" style="fill: none; stroke: #008000; stroke-width: 1.5; stroke-linecap: square"/>
    </g>
    <g id="text_12">
     <!-- Validation loss -->
     <g transform="translate(371.738625 111.878687) scale(0.22 -0.22)">
      <defs>
       <path id="TimesNewRomanPSMT-56" d="M 4544 4238 
L 4544 4122 
Q 4319 4081 4203 3978 
Q 4038 3825 3909 3509 
L 2431 -97 
L 2316 -97 
L 728 3556 
Q 606 3838 556 3900 
Q 478 3997 364 4051 
Q 250 4106 56 4122 
L 56 4238 
L 1788 4238 
L 1788 4122 
Q 1494 4094 1406 4022 
Q 1319 3950 1319 3838 
Q 1319 3681 1463 3350 
L 2541 866 
L 3541 3319 
Q 3688 3681 3688 3822 
Q 3688 3913 3597 3995 
Q 3506 4078 3291 4113 
Q 3275 4116 3238 4122 
L 3238 4238 
L 4544 4238 
z
" transform="scale(0.015625)"/>
      </defs>
      <use xlink:href="#TimesNewRomanPSMT-56"/>
      <use xlink:href="#TimesNewRomanPSMT-61" transform="translate(61.091797 0)"/>
      <use xlink:href="#TimesNewRomanPSMT-6c" transform="translate(105.476562 0)"/>
      <use xlink:href="#TimesNewRomanPSMT-69" transform="translate(133.259766 0)"/>
      <use xlink:href="#TimesNewRomanPSMT-64" transform="translate(161.042969 0)"/>
      <use xlink:href="#TimesNewRomanPSMT-61" transform="translate(211.042969 0)"/>
      <use xlink:href="#TimesNewRomanPSMT-74" transform="translate(255.427734 0)"/>
      <use xlink:href="#TimesNewRomanPSMT-69" transform="translate(283.210938 0)"/>
      <use xlink:href="#TimesNewRomanPSMT-6f" transform="translate(310.994141 0)"/>
      <use xlink:href="#TimesNewRomanPSMT-6e" transform="translate(360.994141 0)"/>
      <use xlink:href="#TimesNewRomanPSMT-20" transform="translate(410.994141 0)"/>
      <use xlink:href="#TimesNewRomanPSMT-6c" transform="translate(435.994141 0)"/>
      <use xlink:href="#TimesNewRomanPSMT-6f" transform="translate(463.777344 0)"/>
      <use xlink:href="#TimesNewRomanPSMT-73" transform="translate(513.777344 0)"/>
      <use xlink:href="#TimesNewRomanPSMT-73" transform="translate(552.693359 0)"/>
     </g>
    </g>
   </g>
  </g>
 </g>
 <defs>
  <clipPath id="pc208d8d769">
   <rect x="227.457375" y="45.5315" width="357.12" height="266.112"/>
  </clipPath>
 </defs>
</svg>
