<?xml version="1.0" encoding="utf-8" standalone="no"?>
<!DOCTYPE svg PUBLIC "-//W3C//DTD SVG 1.1//EN"
  "http://www.w3.org/Graphics/SVG/1.1/DTD/svg11.dtd">
<svg xmlns:xlink="http://www.w3.org/1999/xlink" width="1143.251625pt" height="383.265687pt" viewBox="0 0 1143.251625 383.265687" xmlns="http://www.w3.org/2000/svg" version="1.1">
 <metadata>
  <rdf:RDF xmlns:dc="http://purl.org/dc/elements/1.1/" xmlns:cc="http://creativecommons.org/ns#" xmlns:rdf="http://www.w3.org/1999/02/22-rdf-syntax-ns#">
   <cc:Work>
    <dc:type rdf:resource="http://purl.org/dc/dcmitype/StillImage"/>
    <dc:date>2025-07-11T00:57:29.125767</dc:date>
    <dc:format>image/svg+xml</dc:format>
    <dc:creator>
     <cc:Agent>
      <dc:title>Matplotlib v3.10.1, https://matplotlib.org/</dc:title>
     </cc:Agent>
    </dc:creator>
   </cc:Work>
  </rdf:RDF>
 </metadata>
 <defs>
  <style type="text/css">*{stroke-linejoin: round; stroke-linecap: butt}</style>
 </defs>
 <g id="figure_1">
  <g id="patch_1">
   <path d="M -0 383.265687 
L 1143.251625 383.265687 
L 1143.251625 0 
L -0 0 
z
" style="fill: #ffffff"/>
  </g>
  <g id="axes_1">
   <g id="patch_2">
    <path d="M 393.065812 311.6435 
L 750.185813 311.6435 
L 750.185813 45.5315 
L 393.065812 45.5315 
z
" style="fill: #ffffff"/>
   </g>
   <g id="matplotlib.axis_1">
    <g id="xtick_1">
     <g id="line2d_1">
      <path d="M 393.065812 311.6435 
L 393.065812 45.5315 
" clip-path="url(#pba3ba4dbbe)" style="fill: none; stroke: #b0b0b0; stroke-opacity: 0.3; stroke-width: 0.8; stroke-linecap: square"/>
     </g>
     <g id="line2d_2">
      <defs>
       <path id="m43fec66c81" d="M 0 0 
L 0 3.5 
" style="stroke: #000000; stroke-width: 0.8"/>
      </defs>
      <g>
       <use xlink:href="#m43fec66c81" x="393.065812" y="311.6435" style="stroke: #000000; stroke-width: 0.8"/>
      </g>
     </g>
     <g id="text_1">
      <!-- 0.0 -->
      <g transform="translate(379.315812 333.91975) scale(0.22 -0.22)">
       <defs>
        <path id="TimesNewRomanPSMT-30" d="M 231 2094 
Q 231 2819 450 3342 
Q 669 3866 1031 4122 
Q 1313 4325 1613 4325 
Q 2100 4325 2488 3828 
Q 2972 3213 2972 2159 
Q 2972 1422 2759 906 
Q 2547 391 2217 158 
Q 1888 -75 1581 -75 
Q 975 -75 572 641 
Q 231 1244 231 2094 
z
M 844 2016 
Q 844 1141 1059 588 
Q 1238 122 1591 122 
Q 1759 122 1940 273 
Q 2122 425 2216 781 
Q 2359 1319 2359 2297 
Q 2359 3022 2209 3506 
Q 2097 3866 1919 4016 
Q 1791 4119 1609 4119 
Q 1397 4119 1231 3928 
Q 1006 3669 925 3112 
Q 844 2556 844 2016 
z
" transform="scale(0.015625)"/>
        <path id="TimesNewRomanPSMT-2e" d="M 800 606 
Q 947 606 1047 504 
Q 1147 403 1147 259 
Q 1147 116 1045 14 
Q 944 -88 800 -88 
Q 656 -88 554 14 
Q 453 116 453 259 
Q 453 406 554 506 
Q 656 606 800 606 
z
" transform="scale(0.015625)"/>
       </defs>
       <use xlink:href="#TimesNewRomanPSMT-30"/>
       <use xlink:href="#TimesNewRomanPSMT-2e" transform="translate(50 0)"/>
       <use xlink:href="#TimesNewRomanPSMT-30" transform="translate(75 0)"/>
      </g>
     </g>
    </g>
    <g id="xtick_2">
     <g id="line2d_3">
      <path d="M 503.324636 311.6435 
L 503.324636 45.5315 
" clip-path="url(#pba3ba4dbbe)" style="fill: none; stroke: #b0b0b0; stroke-opacity: 0.3; stroke-width: 0.8; stroke-linecap: square"/>
     </g>
     <g id="line2d_4">
      <g>
       <use xlink:href="#m43fec66c81" x="503.324636" y="311.6435" style="stroke: #000000; stroke-width: 0.8"/>
      </g>
     </g>
     <g id="text_2">
      <!-- 0.5 -->
      <g transform="translate(489.574636 333.91975) scale(0.22 -0.22)">
       <defs>
        <path id="TimesNewRomanPSMT-35" d="M 2778 4238 
L 2534 3706 
L 1259 3706 
L 981 3138 
Q 1809 3016 2294 2522 
Q 2709 2097 2709 1522 
Q 2709 1188 2573 903 
Q 2438 619 2231 419 
Q 2025 219 1772 97 
Q 1413 -75 1034 -75 
Q 653 -75 479 54 
Q 306 184 306 341 
Q 306 428 378 495 
Q 450 563 559 563 
Q 641 563 702 538 
Q 763 513 909 409 
Q 1144 247 1384 247 
Q 1750 247 2026 523 
Q 2303 800 2303 1197 
Q 2303 1581 2056 1914 
Q 1809 2247 1375 2428 
Q 1034 2569 447 2591 
L 1259 4238 
L 2778 4238 
z
" transform="scale(0.015625)"/>
       </defs>
       <use xlink:href="#TimesNewRomanPSMT-30"/>
       <use xlink:href="#TimesNewRomanPSMT-2e" transform="translate(50 0)"/>
       <use xlink:href="#TimesNewRomanPSMT-35" transform="translate(75 0)"/>
      </g>
     </g>
    </g>
    <g id="xtick_3">
     <g id="line2d_5">
      <path d="M 613.58346 311.6435 
L 613.58346 45.5315 
" clip-path="url(#pba3ba4dbbe)" style="fill: none; stroke: #b0b0b0; stroke-opacity: 0.3; stroke-width: 0.8; stroke-linecap: square"/>
     </g>
     <g id="line2d_6">
      <g>
       <use xlink:href="#m43fec66c81" x="613.58346" y="311.6435" style="stroke: #000000; stroke-width: 0.8"/>
      </g>
     </g>
     <g id="text_3">
      <!-- 1.0 -->
      <g transform="translate(599.83346 333.91975) scale(0.22 -0.22)">
       <defs>
        <path id="TimesNewRomanPSMT-31" d="M 750 3822 
L 1781 4325 
L 1884 4325 
L 1884 747 
Q 1884 391 1914 303 
Q 1944 216 2037 169 
Q 2131 122 2419 116 
L 2419 0 
L 825 0 
L 825 116 
Q 1125 122 1212 167 
Q 1300 213 1334 289 
Q 1369 366 1369 747 
L 1369 3034 
Q 1369 3497 1338 3628 
Q 1316 3728 1258 3775 
Q 1200 3822 1119 3822 
Q 1003 3822 797 3725 
L 750 3822 
z
" transform="scale(0.015625)"/>
       </defs>
       <use xlink:href="#TimesNewRomanPSMT-31"/>
       <use xlink:href="#TimesNewRomanPSMT-2e" transform="translate(50 0)"/>
       <use xlink:href="#TimesNewRomanPSMT-30" transform="translate(75 0)"/>
      </g>
     </g>
    </g>
    <g id="xtick_4">
     <g id="line2d_7">
      <path d="M 723.842284 311.6435 
L 723.842284 45.5315 
" clip-path="url(#pba3ba4dbbe)" style="fill: none; stroke: #b0b0b0; stroke-opacity: 0.3; stroke-width: 0.8; stroke-linecap: square"/>
     </g>
     <g id="line2d_8">
      <g>
       <use xlink:href="#m43fec66c81" x="723.842284" y="311.6435" style="stroke: #000000; stroke-width: 0.8"/>
      </g>
     </g>
     <g id="text_4">
      <!-- 1.5 -->
      <g transform="translate(710.092284 333.91975) scale(0.22 -0.22)">
       <use xlink:href="#TimesNewRomanPSMT-31"/>
       <use xlink:href="#TimesNewRomanPSMT-2e" transform="translate(50 0)"/>
       <use xlink:href="#TimesNewRomanPSMT-35" transform="translate(75 0)"/>
      </g>
     </g>
    </g>
    <g id="text_5">
     <!-- $\kappa  = \frac{ln(n)}{ln(d)}$ -->
     <g transform="translate(539.615813 364.185687) scale(0.22 -0.22)">
      <defs>
       <path id="STIXGeneral-Italic-3ba" d="M 979 1440 
L 998 1446 
Q 1850 2541 2464 2790 
Q 2547 2822 2630 2822 
Q 2797 2822 2886 2736 
Q 2976 2650 2976 2522 
Q 2976 2387 2893 2307 
Q 2810 2227 2682 2227 
Q 2605 2227 2502 2288 
Q 2400 2349 2336 2349 
Q 2170 2349 1990 2205 
Q 1811 2061 1414 1645 
L 2042 544 
Q 2202 262 2310 182 
Q 2419 102 2624 102 
L 2624 0 
Q 2374 -83 2182 -83 
Q 1786 -83 1555 326 
L 960 1350 
L 576 0 
L 90 0 
L 640 1978 
Q 730 2317 730 2406 
Q 730 2560 518 2560 
L 339 2560 
L 339 2650 
Q 678 2694 1306 2822 
L 1325 2803 
L 979 1440 
z
" transform="scale(0.015625)"/>
       <path id="STIXGeneral-Regular-3d" d="M 4077 2048 
L 307 2048 
L 307 2470 
L 4077 2470 
L 4077 2048 
z
M 4077 768 
L 307 768 
L 307 1190 
L 4077 1190 
L 4077 768 
z
" transform="scale(0.015625)"/>
       <path id="STIXGeneral-Italic-6c" d="M 1786 4339 
L 806 595 
Q 755 410 755 320 
Q 755 205 864 205 
Q 1037 205 1293 570 
L 1453 794 
L 1542 730 
Q 1254 275 1046 102 
Q 838 -70 576 -70 
Q 262 -70 262 288 
Q 262 397 288 480 
L 1165 3834 
Q 1184 3898 1184 3955 
Q 1184 4096 870 4096 
L 755 4096 
L 755 4198 
Q 1203 4250 1747 4371 
L 1786 4339 
z
" transform="scale(0.015625)"/>
       <path id="STIXGeneral-Italic-6e" d="M 2944 749 
L 3034 666 
Q 2707 218 2534 80 
Q 2362 -58 2138 -58 
Q 2010 -58 1923 28 
Q 1837 115 1837 288 
Q 1837 390 1939 768 
L 2221 1805 
Q 2310 2150 2310 2310 
Q 2310 2496 2157 2496 
Q 1971 2496 1750 2275 
Q 1530 2054 1210 1587 
Q 998 1274 899 1024 
Q 800 774 570 0 
L 90 0 
L 704 2240 
Q 717 2304 717 2349 
Q 717 2445 630 2480 
Q 544 2515 301 2522 
L 301 2624 
Q 550 2675 857 2729 
Q 1165 2784 1338 2822 
L 1363 2810 
L 934 1414 
Q 1408 2170 1753 2496 
Q 2099 2822 2413 2822 
Q 2611 2822 2720 2716 
Q 2829 2611 2829 2432 
Q 2829 2272 2765 2048 
L 2406 749 
Q 2317 429 2317 358 
Q 2317 243 2419 243 
Q 2541 243 2810 582 
Q 2854 634 2944 749 
z
" transform="scale(0.015625)"/>
       <path id="STIXGeneral-Regular-28" d="M 1946 -1030 
L 1869 -1133 
Q 1126 -710 716 32 
Q 307 774 307 1613 
Q 307 3386 1888 4326 
L 1946 4224 
Q 1293 3667 1075 3126 
Q 858 2586 858 1632 
Q 858 685 1082 96 
Q 1306 -493 1946 -1030 
z
" transform="scale(0.015625)"/>
       <path id="STIXGeneral-Regular-29" d="M 186 4224 
L 262 4326 
Q 992 3891 1408 3148 
Q 1824 2406 1824 1581 
Q 1824 -166 243 -1133 
L 186 -1030 
Q 845 -486 1059 54 
Q 1274 595 1274 1562 
Q 1274 2534 1059 3120 
Q 845 3706 186 4224 
z
" transform="scale(0.015625)"/>
       <path id="STIXGeneral-Italic-64" d="M 3334 4371 
L 3373 4333 
L 3123 3360 
L 2739 1958 
Q 2323 429 2323 384 
Q 2323 256 2438 256 
Q 2522 256 2614 336 
Q 2707 416 2963 710 
L 3040 646 
Q 2547 -83 2099 -83 
Q 1978 -83 1907 -6 
Q 1837 70 1837 205 
Q 1837 397 1920 774 
Q 1645 307 1379 118 
Q 1114 -70 781 -70 
Q 461 -70 278 125 
Q 96 320 96 678 
Q 96 1440 713 2131 
Q 1331 2822 1965 2822 
Q 2163 2822 2256 2732 
Q 2349 2643 2381 2451 
L 2387 2451 
L 2675 3494 
Q 2765 3808 2765 3949 
Q 2765 4051 2694 4076 
Q 2624 4102 2355 4115 
L 2355 4224 
Q 2848 4269 3334 4371 
z
M 2278 2310 
Q 2278 2477 2185 2576 
Q 2093 2675 1978 2675 
Q 1677 2675 1395 2381 
Q 1075 2042 864 1571 
Q 653 1101 653 704 
Q 653 486 752 361 
Q 851 237 1024 237 
Q 1312 237 1606 550 
Q 1901 864 2089 1350 
Q 2278 1837 2278 2310 
z
" transform="scale(0.015625)"/>
      </defs>
      <use xlink:href="#STIXGeneral-Italic-3ba" transform="translate(0 0.003125)"/>
      <use xlink:href="#STIXGeneral-Regular-3d" transform="translate(58.83999 0.003125)"/>
      <use xlink:href="#STIXGeneral-Italic-6c" transform="translate(141.779971 50.192188) scale(0.7)"/>
      <use xlink:href="#STIXGeneral-Italic-6e" transform="translate(161.239963 50.192188) scale(0.7)"/>
      <use xlink:href="#STIXGeneral-Regular-28" transform="translate(196.239952 50.192188) scale(0.7)"/>
      <use xlink:href="#STIXGeneral-Italic-6e" transform="translate(219.549944 50.192188) scale(0.7)"/>
      <use xlink:href="#STIXGeneral-Regular-29" transform="translate(254.549933 50.192188) scale(0.7)"/>
      <use xlink:href="#STIXGeneral-Italic-6c" transform="translate(141.779971 -41.257812) scale(0.7)"/>
      <use xlink:href="#STIXGeneral-Italic-6e" transform="translate(161.239963 -41.257812) scale(0.7)"/>
      <use xlink:href="#STIXGeneral-Regular-28" transform="translate(196.239952 -41.257812) scale(0.7)"/>
      <use xlink:href="#STIXGeneral-Italic-64" transform="translate(219.549944 -41.257812) scale(0.7)"/>
      <use xlink:href="#STIXGeneral-Regular-29" transform="translate(254.549933 -41.257812) scale(0.7)"/>
      <path d="M 141.779971 12.8 
L 141.779971 19.05 
L 277.859924 19.05 
L 277.859924 12.8 
L 141.779971 12.8 
z
"/>
     </g>
    </g>
   </g>
   <g id="matplotlib.axis_2">
    <g id="ytick_1">
     <g id="line2d_9">
      <path d="M 393.065812 311.6435 
L 750.185813 311.6435 
" clip-path="url(#pba3ba4dbbe)" style="fill: none; stroke: #b0b0b0; stroke-opacity: 0.3; stroke-width: 0.8; stroke-linecap: square"/>
     </g>
     <g id="line2d_10">
      <defs>
       <path id="m78ef8f1b27" d="M 0 0 
L -3.5 0 
" style="stroke: #000000; stroke-width: 0.8"/>
      </defs>
      <g>
       <use xlink:href="#m78ef8f1b27" x="393.065812" y="311.6435" style="stroke: #000000; stroke-width: 0.8"/>
      </g>
     </g>
     <g id="text_6">
      <!-- 0.0 -->
      <g transform="translate(358.565812 319.281625) scale(0.22 -0.22)">
       <use xlink:href="#TimesNewRomanPSMT-30"/>
       <use xlink:href="#TimesNewRomanPSMT-2e" transform="translate(50 0)"/>
       <use xlink:href="#TimesNewRomanPSMT-30" transform="translate(75 0)"/>
      </g>
     </g>
    </g>
    <g id="ytick_2">
     <g id="line2d_11">
      <path d="M 393.065812 285.0323 
L 750.185813 285.0323 
" clip-path="url(#pba3ba4dbbe)" style="fill: none; stroke: #b0b0b0; stroke-opacity: 0.3; stroke-width: 0.8; stroke-linecap: square"/>
     </g>
     <g id="line2d_12">
      <g>
       <use xlink:href="#m78ef8f1b27" x="393.065812" y="285.0323" style="stroke: #000000; stroke-width: 0.8"/>
      </g>
     </g>
     <g id="text_7">
      <!-- 0.1 -->
      <g transform="translate(358.565812 292.670425) scale(0.22 -0.22)">
       <use xlink:href="#TimesNewRomanPSMT-30"/>
       <use xlink:href="#TimesNewRomanPSMT-2e" transform="translate(50 0)"/>
       <use xlink:href="#TimesNewRomanPSMT-31" transform="translate(75 0)"/>
      </g>
     </g>
    </g>
    <g id="ytick_3">
     <g id="line2d_13">
      <path d="M 393.065812 258.4211 
L 750.185813 258.4211 
" clip-path="url(#pba3ba4dbbe)" style="fill: none; stroke: #b0b0b0; stroke-opacity: 0.3; stroke-width: 0.8; stroke-linecap: square"/>
     </g>
     <g id="line2d_14">
      <g>
       <use xlink:href="#m78ef8f1b27" x="393.065812" y="258.4211" style="stroke: #000000; stroke-width: 0.8"/>
      </g>
     </g>
     <g id="text_8">
      <!-- 0.2 -->
      <g transform="translate(358.565812 266.059225) scale(0.22 -0.22)">
       <defs>
        <path id="TimesNewRomanPSMT-32" d="M 2934 816 
L 2638 0 
L 138 0 
L 138 116 
Q 1241 1122 1691 1759 
Q 2141 2397 2141 2925 
Q 2141 3328 1894 3587 
Q 1647 3847 1303 3847 
Q 991 3847 742 3664 
Q 494 3481 375 3128 
L 259 3128 
Q 338 3706 661 4015 
Q 984 4325 1469 4325 
Q 1984 4325 2329 3994 
Q 2675 3663 2675 3213 
Q 2675 2891 2525 2569 
Q 2294 2063 1775 1497 
Q 997 647 803 472 
L 1909 472 
Q 2247 472 2383 497 
Q 2519 522 2628 598 
Q 2738 675 2819 816 
L 2934 816 
z
" transform="scale(0.015625)"/>
       </defs>
       <use xlink:href="#TimesNewRomanPSMT-30"/>
       <use xlink:href="#TimesNewRomanPSMT-2e" transform="translate(50 0)"/>
       <use xlink:href="#TimesNewRomanPSMT-32" transform="translate(75 0)"/>
      </g>
     </g>
    </g>
    <g id="ytick_4">
     <g id="line2d_15">
      <path d="M 393.065812 231.8099 
L 750.185813 231.8099 
" clip-path="url(#pba3ba4dbbe)" style="fill: none; stroke: #b0b0b0; stroke-opacity: 0.3; stroke-width: 0.8; stroke-linecap: square"/>
     </g>
     <g id="line2d_16">
      <g>
       <use xlink:href="#m78ef8f1b27" x="393.065812" y="231.8099" style="stroke: #000000; stroke-width: 0.8"/>
      </g>
     </g>
     <g id="text_9">
      <!-- 0.3 -->
      <g transform="translate(358.565812 239.448025) scale(0.22 -0.22)">
       <defs>
        <path id="TimesNewRomanPSMT-33" d="M 325 3431 
Q 506 3859 782 4092 
Q 1059 4325 1472 4325 
Q 1981 4325 2253 3994 
Q 2459 3747 2459 3466 
Q 2459 3003 1878 2509 
Q 2269 2356 2469 2072 
Q 2669 1788 2669 1403 
Q 2669 853 2319 450 
Q 1863 -75 997 -75 
Q 569 -75 414 31 
Q 259 138 259 259 
Q 259 350 332 419 
Q 406 488 509 488 
Q 588 488 669 463 
Q 722 447 909 348 
Q 1097 250 1169 231 
Q 1284 197 1416 197 
Q 1734 197 1970 444 
Q 2206 691 2206 1028 
Q 2206 1275 2097 1509 
Q 2016 1684 1919 1775 
Q 1784 1900 1550 2001 
Q 1316 2103 1072 2103 
L 972 2103 
L 972 2197 
Q 1219 2228 1467 2375 
Q 1716 2522 1828 2728 
Q 1941 2934 1941 3181 
Q 1941 3503 1739 3701 
Q 1538 3900 1238 3900 
Q 753 3900 428 3381 
L 325 3431 
z
" transform="scale(0.015625)"/>
       </defs>
       <use xlink:href="#TimesNewRomanPSMT-30"/>
       <use xlink:href="#TimesNewRomanPSMT-2e" transform="translate(50 0)"/>
       <use xlink:href="#TimesNewRomanPSMT-33" transform="translate(75 0)"/>
      </g>
     </g>
    </g>
    <g id="ytick_5">
     <g id="line2d_17">
      <path d="M 393.065812 205.1987 
L 750.185813 205.1987 
" clip-path="url(#pba3ba4dbbe)" style="fill: none; stroke: #b0b0b0; stroke-opacity: 0.3; stroke-width: 0.8; stroke-linecap: square"/>
     </g>
     <g id="line2d_18">
      <g>
       <use xlink:href="#m78ef8f1b27" x="393.065812" y="205.1987" style="stroke: #000000; stroke-width: 0.8"/>
      </g>
     </g>
     <g id="text_10">
      <!-- 0.4 -->
      <g transform="translate(358.565812 212.836825) scale(0.22 -0.22)">
       <defs>
        <path id="TimesNewRomanPSMT-34" d="M 2978 1563 
L 2978 1119 
L 2409 1119 
L 2409 0 
L 1894 0 
L 1894 1119 
L 100 1119 
L 100 1519 
L 2066 4325 
L 2409 4325 
L 2409 1563 
L 2978 1563 
z
M 1894 1563 
L 1894 3666 
L 406 1563 
L 1894 1563 
z
" transform="scale(0.015625)"/>
       </defs>
       <use xlink:href="#TimesNewRomanPSMT-30"/>
       <use xlink:href="#TimesNewRomanPSMT-2e" transform="translate(50 0)"/>
       <use xlink:href="#TimesNewRomanPSMT-34" transform="translate(75 0)"/>
      </g>
     </g>
    </g>
    <g id="ytick_6">
     <g id="line2d_19">
      <path d="M 393.065812 178.5875 
L 750.185813 178.5875 
" clip-path="url(#pba3ba4dbbe)" style="fill: none; stroke: #b0b0b0; stroke-opacity: 0.3; stroke-width: 0.8; stroke-linecap: square"/>
     </g>
     <g id="line2d_20">
      <g>
       <use xlink:href="#m78ef8f1b27" x="393.065812" y="178.5875" style="stroke: #000000; stroke-width: 0.8"/>
      </g>
     </g>
     <g id="text_11">
      <!-- 0.5 -->
      <g transform="translate(358.565812 186.225625) scale(0.22 -0.22)">
       <use xlink:href="#TimesNewRomanPSMT-30"/>
       <use xlink:href="#TimesNewRomanPSMT-2e" transform="translate(50 0)"/>
       <use xlink:href="#TimesNewRomanPSMT-35" transform="translate(75 0)"/>
      </g>
     </g>
    </g>
    <g id="ytick_7">
     <g id="line2d_21">
      <path d="M 393.065812 151.9763 
L 750.185813 151.9763 
" clip-path="url(#pba3ba4dbbe)" style="fill: none; stroke: #b0b0b0; stroke-opacity: 0.3; stroke-width: 0.8; stroke-linecap: square"/>
     </g>
     <g id="line2d_22">
      <g>
       <use xlink:href="#m78ef8f1b27" x="393.065812" y="151.9763" style="stroke: #000000; stroke-width: 0.8"/>
      </g>
     </g>
     <g id="text_12">
      <!-- 0.6 -->
      <g transform="translate(358.565812 159.614425) scale(0.22 -0.22)">
       <defs>
        <path id="TimesNewRomanPSMT-36" d="M 2869 4325 
L 2869 4209 
Q 2456 4169 2195 4045 
Q 1934 3922 1679 3669 
Q 1425 3416 1258 3105 
Q 1091 2794 978 2366 
Q 1428 2675 1881 2675 
Q 2316 2675 2634 2325 
Q 2953 1975 2953 1425 
Q 2953 894 2631 456 
Q 2244 -75 1606 -75 
Q 1172 -75 869 213 
Q 275 772 275 1663 
Q 275 2231 503 2743 
Q 731 3256 1154 3653 
Q 1578 4050 1965 4187 
Q 2353 4325 2688 4325 
L 2869 4325 
z
M 925 2138 
Q 869 1716 869 1456 
Q 869 1156 980 804 
Q 1091 453 1309 247 
Q 1469 100 1697 100 
Q 1969 100 2183 356 
Q 2397 613 2397 1088 
Q 2397 1622 2184 2012 
Q 1972 2403 1581 2403 
Q 1463 2403 1327 2353 
Q 1191 2303 925 2138 
z
" transform="scale(0.015625)"/>
       </defs>
       <use xlink:href="#TimesNewRomanPSMT-30"/>
       <use xlink:href="#TimesNewRomanPSMT-2e" transform="translate(50 0)"/>
       <use xlink:href="#TimesNewRomanPSMT-36" transform="translate(75 0)"/>
      </g>
     </g>
    </g>
    <g id="ytick_8">
     <g id="line2d_23">
      <path d="M 393.065812 125.3651 
L 750.185813 125.3651 
" clip-path="url(#pba3ba4dbbe)" style="fill: none; stroke: #b0b0b0; stroke-opacity: 0.3; stroke-width: 0.8; stroke-linecap: square"/>
     </g>
     <g id="line2d_24">
      <g>
       <use xlink:href="#m78ef8f1b27" x="393.065812" y="125.3651" style="stroke: #000000; stroke-width: 0.8"/>
      </g>
     </g>
     <g id="text_13">
      <!-- 0.7 -->
      <g transform="translate(358.565812 133.003225) scale(0.22 -0.22)">
       <defs>
        <path id="TimesNewRomanPSMT-37" d="M 644 4238 
L 2916 4238 
L 2916 4119 
L 1503 -88 
L 1153 -88 
L 2419 3728 
L 1253 3728 
Q 900 3728 750 3644 
Q 488 3500 328 3200 
L 238 3234 
L 644 4238 
z
" transform="scale(0.015625)"/>
       </defs>
       <use xlink:href="#TimesNewRomanPSMT-30"/>
       <use xlink:href="#TimesNewRomanPSMT-2e" transform="translate(50 0)"/>
       <use xlink:href="#TimesNewRomanPSMT-37" transform="translate(75 0)"/>
      </g>
     </g>
    </g>
    <g id="ytick_9">
     <g id="line2d_25">
      <path d="M 393.065812 98.7539 
L 750.185813 98.7539 
" clip-path="url(#pba3ba4dbbe)" style="fill: none; stroke: #b0b0b0; stroke-opacity: 0.3; stroke-width: 0.8; stroke-linecap: square"/>
     </g>
     <g id="line2d_26">
      <g>
       <use xlink:href="#m78ef8f1b27" x="393.065812" y="98.7539" style="stroke: #000000; stroke-width: 0.8"/>
      </g>
     </g>
     <g id="text_14">
      <!-- 0.8 -->
      <g transform="translate(358.565812 106.392025) scale(0.22 -0.22)">
       <defs>
        <path id="TimesNewRomanPSMT-38" d="M 1228 2134 
Q 725 2547 579 2797 
Q 434 3047 434 3316 
Q 434 3728 753 4026 
Q 1072 4325 1600 4325 
Q 2113 4325 2425 4047 
Q 2738 3769 2738 3413 
Q 2738 3175 2569 2928 
Q 2400 2681 1866 2347 
Q 2416 1922 2594 1678 
Q 2831 1359 2831 1006 
Q 2831 559 2490 242 
Q 2150 -75 1597 -75 
Q 994 -75 656 303 
Q 388 606 388 966 
Q 388 1247 577 1523 
Q 766 1800 1228 2134 
z
M 1719 2469 
Q 2094 2806 2194 3001 
Q 2294 3197 2294 3444 
Q 2294 3772 2109 3958 
Q 1925 4144 1606 4144 
Q 1288 4144 1088 3959 
Q 888 3775 888 3528 
Q 888 3366 970 3203 
Q 1053 3041 1206 2894 
L 1719 2469 
z
M 1375 2016 
Q 1116 1797 991 1539 
Q 866 1281 866 981 
Q 866 578 1086 336 
Q 1306 94 1647 94 
Q 1984 94 2187 284 
Q 2391 475 2391 747 
Q 2391 972 2272 1150 
Q 2050 1481 1375 2016 
z
" transform="scale(0.015625)"/>
       </defs>
       <use xlink:href="#TimesNewRomanPSMT-30"/>
       <use xlink:href="#TimesNewRomanPSMT-2e" transform="translate(50 0)"/>
       <use xlink:href="#TimesNewRomanPSMT-38" transform="translate(75 0)"/>
      </g>
     </g>
    </g>
    <g id="ytick_10">
     <g id="line2d_27">
      <path d="M 393.065812 72.1427 
L 750.185813 72.1427 
" clip-path="url(#pba3ba4dbbe)" style="fill: none; stroke: #b0b0b0; stroke-opacity: 0.3; stroke-width: 0.8; stroke-linecap: square"/>
     </g>
     <g id="line2d_28">
      <g>
       <use xlink:href="#m78ef8f1b27" x="393.065812" y="72.1427" style="stroke: #000000; stroke-width: 0.8"/>
      </g>
     </g>
     <g id="text_15">
      <!-- 0.9 -->
      <g transform="translate(358.565812 79.780825) scale(0.22 -0.22)">
       <defs>
        <path id="TimesNewRomanPSMT-39" d="M 338 -88 
L 338 28 
Q 744 34 1094 217 
Q 1444 400 1770 856 
Q 2097 1313 2225 1859 
Q 1734 1544 1338 1544 
Q 891 1544 572 1889 
Q 253 2234 253 2806 
Q 253 3363 572 3797 
Q 956 4325 1575 4325 
Q 2097 4325 2469 3894 
Q 2925 3359 2925 2575 
Q 2925 1869 2578 1258 
Q 2231 647 1613 244 
Q 1109 -88 516 -88 
L 338 -88 
z
M 2275 2091 
Q 2331 2497 2331 2741 
Q 2331 3044 2228 3395 
Q 2125 3747 1936 3934 
Q 1747 4122 1506 4122 
Q 1228 4122 1018 3872 
Q 809 3622 809 3128 
Q 809 2469 1088 2097 
Q 1291 1828 1588 1828 
Q 1731 1828 1928 1897 
Q 2125 1966 2275 2091 
z
" transform="scale(0.015625)"/>
       </defs>
       <use xlink:href="#TimesNewRomanPSMT-30"/>
       <use xlink:href="#TimesNewRomanPSMT-2e" transform="translate(50 0)"/>
       <use xlink:href="#TimesNewRomanPSMT-39" transform="translate(75 0)"/>
      </g>
     </g>
    </g>
    <g id="ytick_11">
     <g id="line2d_29">
      <path d="M 393.065812 45.5315 
L 750.185813 45.5315 
" clip-path="url(#pba3ba4dbbe)" style="fill: none; stroke: #b0b0b0; stroke-opacity: 0.3; stroke-width: 0.8; stroke-linecap: square"/>
     </g>
     <g id="line2d_30">
      <g>
       <use xlink:href="#m78ef8f1b27" x="393.065812" y="45.5315" style="stroke: #000000; stroke-width: 0.8"/>
      </g>
     </g>
     <g id="text_16">
      <!-- 1.0 -->
      <g transform="translate(358.565812 53.169625) scale(0.22 -0.22)">
       <use xlink:href="#TimesNewRomanPSMT-31"/>
       <use xlink:href="#TimesNewRomanPSMT-2e" transform="translate(50 0)"/>
       <use xlink:href="#TimesNewRomanPSMT-30" transform="translate(75 0)"/>
      </g>
     </g>
    </g>
    <g id="text_17">
     <!-- Accuracy -->
     <g transform="translate(349.818625 220.726094) rotate(-90) scale(0.22 -0.22)">
      <defs>
       <path id="TimesNewRomanPSMT-41" d="M 2928 1419 
L 1288 1419 
L 1000 750 
Q 894 503 894 381 
Q 894 284 986 211 
Q 1078 138 1384 116 
L 1384 0 
L 50 0 
L 50 116 
Q 316 163 394 238 
Q 553 388 747 847 
L 2238 4334 
L 2347 4334 
L 3822 809 
Q 4000 384 4145 257 
Q 4291 131 4550 116 
L 4550 0 
L 2878 0 
L 2878 116 
Q 3131 128 3220 200 
Q 3309 272 3309 375 
Q 3309 513 3184 809 
L 2928 1419 
z
M 2841 1650 
L 2122 3363 
L 1384 1650 
L 2841 1650 
z
" transform="scale(0.015625)"/>
       <path id="TimesNewRomanPSMT-63" d="M 2631 1088 
Q 2516 522 2178 217 
Q 1841 -88 1431 -88 
Q 944 -88 581 321 
Q 219 731 219 1428 
Q 219 2103 620 2525 
Q 1022 2947 1584 2947 
Q 2006 2947 2278 2723 
Q 2550 2500 2550 2259 
Q 2550 2141 2473 2067 
Q 2397 1994 2259 1994 
Q 2075 1994 1981 2113 
Q 1928 2178 1911 2362 
Q 1894 2547 1784 2644 
Q 1675 2738 1481 2738 
Q 1169 2738 978 2506 
Q 725 2200 725 1697 
Q 725 1184 976 792 
Q 1228 400 1656 400 
Q 1963 400 2206 609 
Q 2378 753 2541 1131 
L 2631 1088 
z
" transform="scale(0.015625)"/>
       <path id="TimesNewRomanPSMT-75" d="M 2709 2863 
L 2709 1128 
Q 2709 631 2732 520 
Q 2756 409 2807 365 
Q 2859 322 2928 322 
Q 3025 322 3147 375 
L 3191 266 
L 2334 -88 
L 2194 -88 
L 2194 519 
Q 1825 119 1631 15 
Q 1438 -88 1222 -88 
Q 981 -88 804 51 
Q 628 191 559 409 
Q 491 628 491 1028 
L 491 2306 
Q 491 2509 447 2587 
Q 403 2666 317 2708 
Q 231 2750 6 2747 
L 6 2863 
L 1009 2863 
L 1009 947 
Q 1009 547 1148 422 
Q 1288 297 1484 297 
Q 1619 297 1789 381 
Q 1959 466 2194 703 
L 2194 2325 
Q 2194 2569 2105 2655 
Q 2016 2741 1734 2747 
L 1734 2863 
L 2709 2863 
z
" transform="scale(0.015625)"/>
       <path id="TimesNewRomanPSMT-72" d="M 1038 2947 
L 1038 2303 
Q 1397 2947 1775 2947 
Q 1947 2947 2059 2842 
Q 2172 2738 2172 2600 
Q 2172 2478 2090 2393 
Q 2009 2309 1897 2309 
Q 1788 2309 1652 2417 
Q 1516 2525 1450 2525 
Q 1394 2525 1328 2463 
Q 1188 2334 1038 2041 
L 1038 669 
Q 1038 431 1097 309 
Q 1138 225 1241 169 
Q 1344 113 1538 113 
L 1538 0 
L 72 0 
L 72 113 
Q 291 113 397 181 
Q 475 231 506 341 
Q 522 394 522 644 
L 522 1753 
Q 522 2253 501 2348 
Q 481 2444 426 2487 
Q 372 2531 291 2531 
Q 194 2531 72 2484 
L 41 2597 
L 906 2947 
L 1038 2947 
z
" transform="scale(0.015625)"/>
       <path id="TimesNewRomanPSMT-61" d="M 1822 413 
Q 1381 72 1269 19 
Q 1100 -59 909 -59 
Q 613 -59 420 144 
Q 228 347 228 678 
Q 228 888 322 1041 
Q 450 1253 767 1440 
Q 1084 1628 1822 1897 
L 1822 2009 
Q 1822 2438 1686 2597 
Q 1550 2756 1291 2756 
Q 1094 2756 978 2650 
Q 859 2544 859 2406 
L 866 2225 
Q 866 2081 792 2003 
Q 719 1925 600 1925 
Q 484 1925 411 2006 
Q 338 2088 338 2228 
Q 338 2497 613 2722 
Q 888 2947 1384 2947 
Q 1766 2947 2009 2819 
Q 2194 2722 2281 2516 
Q 2338 2381 2338 1966 
L 2338 994 
Q 2338 584 2353 492 
Q 2369 400 2405 369 
Q 2441 338 2488 338 
Q 2538 338 2575 359 
Q 2641 400 2828 588 
L 2828 413 
Q 2478 -56 2159 -56 
Q 2006 -56 1915 50 
Q 1825 156 1822 413 
z
M 1822 616 
L 1822 1706 
Q 1350 1519 1213 1441 
Q 966 1303 859 1153 
Q 753 1003 753 825 
Q 753 600 887 451 
Q 1022 303 1197 303 
Q 1434 303 1822 616 
z
" transform="scale(0.015625)"/>
       <path id="TimesNewRomanPSMT-79" d="M 38 2863 
L 1372 2863 
L 1372 2747 
L 1306 2747 
Q 1166 2747 1095 2686 
Q 1025 2625 1025 2534 
Q 1025 2413 1128 2197 
L 1825 753 
L 2466 2334 
Q 2519 2463 2519 2588 
Q 2519 2644 2497 2672 
Q 2472 2706 2419 2726 
Q 2366 2747 2231 2747 
L 2231 2863 
L 3163 2863 
L 3163 2747 
Q 3047 2734 2984 2696 
Q 2922 2659 2847 2556 
Q 2819 2513 2741 2316 
L 1575 -541 
Q 1406 -956 1132 -1168 
Q 859 -1381 606 -1381 
Q 422 -1381 303 -1275 
Q 184 -1169 184 -1031 
Q 184 -900 270 -820 
Q 356 -741 506 -741 
Q 609 -741 788 -809 
Q 913 -856 944 -856 
Q 1038 -856 1148 -759 
Q 1259 -663 1372 -384 
L 1575 113 
L 547 2272 
Q 500 2369 397 2513 
Q 319 2622 269 2659 
Q 197 2709 38 2747 
L 38 2863 
z
" transform="scale(0.015625)"/>
      </defs>
      <use xlink:href="#TimesNewRomanPSMT-41"/>
      <use xlink:href="#TimesNewRomanPSMT-63" transform="translate(72.216797 0)"/>
      <use xlink:href="#TimesNewRomanPSMT-63" transform="translate(116.601562 0)"/>
      <use xlink:href="#TimesNewRomanPSMT-75" transform="translate(160.986328 0)"/>
      <use xlink:href="#TimesNewRomanPSMT-72" transform="translate(210.986328 0)"/>
      <use xlink:href="#TimesNewRomanPSMT-61" transform="translate(244.287109 0)"/>
      <use xlink:href="#TimesNewRomanPSMT-63" transform="translate(288.671875 0)"/>
      <use xlink:href="#TimesNewRomanPSMT-79" transform="translate(333.056641 0)"/>
     </g>
    </g>
   </g>
   <g id="line2d_31">
    <path d="M 393.065812 178.454438 
L 469.356241 156.899358 
L 502.31869 140.666529 
L 511.213428 136.142635 
L 518.156961 130.687338 
L 523.85321 128.691484 
L 528.682772 129.223717 
L 532.874883 128.425376 
L 536.578365 125.365087 
L 539.895326 125.365087 
L 542.898877 124.300637 
L 545.643164 124.433699 
L 548.169412 123.236203 
L 550.509732 122.437861 
L 552.689625 122.70397 
L 554.729683 121.905628 
L 556.646769 121.373411 
L 558.454869 121.240349 
L 560.165711 121.373411 
L 561.789226 121.373411 
L 563.333898 119.776744 
L 564.807031 119.111464 
L 566.214959 118.84534 
L 567.563212 117.780906 
L 568.856641 117.381735 
L 570.099533 117.647843 
L 571.295689 117.780906 
L 573.560986 116.849502 
L 574.635885 117.913952 
L 575.67565 117.780906 
L 578.605386 117.115626 
L 579.52493 116.317285 
L 580.41864 117.647843 
L 581.287928 116.716456 
L 582.134095 117.248673 
L 582.958337 116.849502 
L 583.761763 117.115626 
L 584.545399 116.849502 
L 586.057036 116.849502 
L 586.786746 115.785052 
L 588.197797 115.252835 
L 588.880527 115.652005 
L 589.548912 115.652005 
L 590.203544 115.119772 
L 590.844977 114.986726 
L 591.473732 115.385897 
L 592.090301 114.587555 
L 592.695148 115.252835 
L 593.28871 114.188384 
L 593.8714 114.986726 
L 594.443609 114.321447 
L 595.005708 114.055338 
L 595.558048 113.656167 
L 596.100962 114.587555 
L 596.634766 113.390043 
L 597.159761 113.656167 
L 598.184454 113.390043 
L 598.684684 113.523105 
L 599.177171 112.724764 
L 599.662149 113.523105 
L 600.139846 113.656167 
L 600.610475 113.123934 
L 601.074244 112.857826 
L 601.531349 112.857826 
L 601.98198 112.724764 
L 602.426316 112.724764 
L 602.864532 113.256997 
L 603.723261 111.128096 
L 604.144087 111.527267 
L 604.559419 112.458655 
L 604.969399 112.857826 
L 605.374162 111.660329 
L 605.77384 111.527267 
L 606.16856 110.99505 
L 606.558442 111.261158 
L 606.943604 110.99505 
L 607.324158 111.527267 
L 607.700214 110.462817 
L 608.071877 111.261158 
L 608.439248 110.99505 
L 609.161503 110.063646 
L 609.516574 110.99505 
L 609.867725 110.063646 
L 610.215043 111.128096 
L 610.558609 110.196708 
L 611.234809 110.196708 
L 611.567594 110.063646 
L 611.896934 110.462817 
L 612.2229 110.329755 
L 612.545559 110.329755 
L 612.86498 111.793376 
L 613.181224 110.329755 
L 613.494357 110.329755 
L 614.111524 109.9306 
L 614.415675 109.797537 
L 615.015391 110.329755 
L 615.311062 110.329755 
L 615.60401 109.132258 
L 616.181937 109.797537 
L 616.46701 108.86615 
L 616.749552 109.9306 
L 617.029606 110.462817 
L 617.307217 109.398367 
L 617.582426 109.26532 
L 617.855275 109.26532 
L 618.125803 108.067808 
L 618.394051 108.600041 
L 618.660056 108.600041 
L 618.923855 109.531429 
L 619.185484 109.531429 
L 619.44498 108.466979 
L 619.702376 109.398367 
L 619.957706 109.132258 
L 620.211003 108.466979 
L 620.4623 109.132258 
L 620.711627 110.728925 
L 620.959015 108.86615 
L 621.204495 109.132258 
L 621.448094 108.466979 
L 621.929769 108.733087 
L 622.167898 108.999196 
L 622.404259 109.9306 
L 622.638876 108.333917 
L 622.871776 108.999196 
L 623.332522 107.801699 
L 623.560417 107.801699 
L 623.786691 108.600041 
L 624.011367 110.063646 
L 624.456014 108.999196 
L 624.676028 109.132258 
L 624.894532 108.20087 
L 625.111545 108.466979 
L 625.327087 108.466979 
L 625.54118 108.600041 
L 625.753841 108.86615 
L 625.96509 109.531429 
L 626.174945 109.531429 
L 626.383425 108.466979 
L 626.590548 108.466979 
L 626.796331 108.733087 
L 627.000792 108.600041 
L 627.405813 108.999196 
L 627.606406 108.999196 
L 627.805743 108.86615 
L 628.003838 108.20087 
L 628.396366 108.067808 
L 628.590828 108.999196 
L 628.784109 108.733087 
L 628.976223 108.20087 
L 629.167184 108.333917 
L 629.357006 107.535591 
L 629.545701 108.333917 
L 629.733284 108.600041 
L 629.919767 109.132258 
L 630.105164 107.934762 
L 630.289487 108.20087 
L 630.472747 108.20087 
L 631.195413 108.600041 
L 631.550681 107.801699 
L 631.726839 108.86615 
L 631.902026 108.067808 
L 632.076254 108.20087 
L 632.249534 107.801699 
L 632.421874 107.801699 
L 632.763779 108.466979 
L 632.933364 107.934762 
L 633.102049 108.067808 
L 633.269845 107.535591 
L 633.43676 107.668637 
L 633.602804 108.333917 
L 633.932315 107.934762 
L 634.095799 107.934762 
L 634.258447 108.466979 
L 634.420269 107.934762 
L 634.581271 107.003358 
L 634.741462 107.801699 
L 634.900851 107.269482 
L 635.059446 107.801699 
L 635.217254 107.269482 
L 635.53054 107.269482 
L 635.686034 107.402529 
L 636.148007 107.13642 
L 636.300519 107.801699 
L 636.753717 106.604187 
L 636.90336 107.668637 
L 637.20055 107.269482 
L 637.494989 107.003358 
L 637.641194 107.13642 
L 637.786729 106.338078 
L 638.075817 107.535591 
L 638.219383 105.938908 
L 638.362303 106.870311 
L 638.787251 106.471141 
L 638.927648 106.604187 
L 639.067429 106.07197 
L 639.34516 107.269482 
L 639.483122 105.938908 
L 639.620489 106.604187 
L 639.757264 106.604187 
L 639.893454 106.737249 
L 640.029064 106.338078 
L 640.164098 106.737249 
L 640.298561 106.07197 
L 640.432459 107.003358 
L 640.698575 106.07197 
L 640.830803 106.07197 
L 641.22422 107.003358 
L 641.483822 105.672799 
L 641.741322 106.338078 
L 641.869295 105.539753 
L 641.996755 106.338078 
L 642.250153 106.338078 
L 642.376099 105.40669 
L 642.626505 106.471141 
L 642.750973 106.338078 
L 642.874956 106.471141 
L 643.244032 106.205032 
L 643.366112 106.338078 
L 643.487725 107.269482 
L 643.729566 105.40669 
L 643.8498 106.07197 
L 643.969582 105.938908 
L 644.088914 106.338078 
L 644.326244 106.07197 
L 644.444249 107.535591 
L 644.561817 105.00752 
L 644.678953 105.805861 
L 644.795658 105.805861 
L 644.911938 105.938908 
L 645.143229 105.539753 
L 645.258247 105.40669 
L 645.372851 105.00752 
L 645.487043 105.672799 
L 645.600827 105.672799 
L 645.939758 105.273628 
L 646.051937 105.938908 
L 646.163722 105.273628 
L 646.38612 106.205032 
L 646.496739 106.07197 
L 646.71683 106.205032 
L 646.826307 106.205032 
L 647.044137 105.00752 
L 647.152495 105.40669 
L 647.475373 104.874473 
L 647.582275 105.00752 
L 647.795007 105.805861 
L 648.006327 105.140582 
L 648.216251 105.539753 
L 648.4248 105.00752 
L 648.528564 106.07197 
L 648.63199 105.805861 
L 648.83784 105.00752 
L 648.940268 105.273628 
L 649.042366 105.140582 
L 649.144139 105.40669 
L 649.245586 105.140582 
L 649.346712 106.07197 
L 649.447516 105.938908 
L 649.648173 104.741411 
L 649.748029 105.140582 
L 649.847572 104.741411 
L 650.045728 105.40669 
L 650.144346 104.741411 
L 650.242659 104.874473 
L 650.340669 105.938908 
L 650.438377 105.805861 
L 650.535787 105.00752 
L 650.729716 105.805861 
L 650.92247 105.805861 
L 651.114064 106.870311 
L 651.209429 105.140582 
L 651.30451 105.273628 
L 651.399307 105.140582 
L 651.493823 105.672799 
L 651.588059 105.539753 
L 651.775697 104.475303 
L 651.869103 107.003358 
L 651.962235 105.273628 
L 652.055096 105.672799 
L 652.147686 105.40669 
L 652.240007 105.539753 
L 652.423851 105.40669 
L 652.515375 105.40669 
L 652.606637 105.00752 
L 652.878864 105.672799 
L 652.96909 106.870311 
L 653.14878 105.672799 
L 653.238246 105.140582 
L 653.416426 105.672799 
L 653.593614 105.140582 
L 653.681839 105.805861 
L 653.76982 105.672799 
L 654.032313 105.672799 
L 654.206113 105.539753 
L 654.55089 106.07197 
L 654.636503 104.475303 
L 654.721887 105.805861 
L 654.807042 105.672799 
L 654.976672 105.938908 
L 655.061149 105.539753 
L 655.145402 105.805861 
L 655.229433 105.672799 
L 655.396831 105.273628 
L 655.563353 105.805861 
L 655.646288 105.672799 
L 655.729008 105.938908 
L 655.893805 105.40669 
L 655.975884 105.539753 
L 656.139411 105.938908 
L 656.22086 105.938908 
L 656.302101 104.741411 
L 656.383135 105.539753 
L 656.463963 105.40669 
L 656.625006 105.805861 
L 656.785238 105.805861 
L 656.944667 106.07197 
L 657.103301 105.40669 
L 657.261148 105.805861 
L 657.339778 105.539753 
L 657.496459 105.938908 
L 657.574511 105.140582 
L 657.730043 105.805861 
L 657.807525 105.938908 
L 657.884818 105.40669 
L 657.961924 105.938908 
L 658.115578 105.672799 
L 658.192128 105.805861 
L 658.268493 107.402529 
L 658.344676 105.273628 
L 658.420677 105.40669 
L 658.496497 105.805861 
L 658.722878 105.273628 
L 659.096637 105.273628 
L 659.170865 105.672799 
L 659.24492 107.402529 
L 659.318802 105.273628 
L 659.392514 105.805861 
L 659.539427 105.40669 
L 659.61263 105.40669 
L 659.758533 105.140582 
L 659.831234 105.273628 
L 659.903769 104.874473 
L 660.048345 106.205032 
L 660.120388 106.205032 
L 660.192268 105.672799 
L 660.263985 105.938908 
L 660.335542 106.338078 
L 660.406938 106.07197 
L 660.478174 105.273628 
L 660.549251 105.539753 
L 660.620169 106.07197 
L 660.69093 105.805861 
L 660.761533 105.539753 
L 660.902272 106.604187 
L 661.042391 105.140582 
L 661.320791 105.938908 
L 661.459083 105.672799 
L 661.596776 106.471141 
L 661.802205 104.608349 
L 661.870388 104.608349 
L 662.006316 105.00752 
L 662.074063 104.608349 
L 662.209126 105.539753 
L 662.276443 105.40669 
L 662.343617 105.00752 
L 662.410651 105.140582 
L 662.610907 106.205032 
L 662.67738 105.40669 
L 662.743715 105.539753 
L 662.809911 105.40669 
L 662.941892 106.205032 
L 663.007678 104.475303 
L 663.073328 105.672799 
L 663.138842 105.40669 
L 663.204223 104.741411 
L 663.269469 104.874473 
L 663.334581 104.874473 
L 663.464408 104.608349 
L 663.529123 104.874473 
L 663.593707 104.608349 
L 663.65816 104.874473 
L 663.722482 104.34224 
L 663.786675 105.938908 
L 663.850739 105.539753 
L 663.97848 104.741411 
L 664.042159 105.00752 
L 664.169136 104.475303 
L 664.232435 105.140582 
L 664.295608 105.00752 
L 664.358656 105.00752 
L 664.421579 104.475303 
L 664.484378 105.00752 
L 664.547053 106.604187 
L 664.609605 104.608349 
L 664.672035 105.805861 
L 664.734342 105.273628 
L 664.796527 105.539753 
L 664.858591 105.40669 
L 664.920534 105.539753 
L 665.350792 104.741411 
L 665.594065 106.604187 
L 665.715008 104.874473 
L 665.835493 105.672799 
L 665.895565 105.539753 
L 665.955523 105.672799 
L 666.075102 106.205032 
L 666.194233 104.741411 
L 666.31292 105.539753 
L 666.372098 105.273628 
L 666.431166 104.475303 
L 666.490124 104.608349 
L 666.548974 106.205032 
L 666.607715 104.741411 
L 666.666347 105.805861 
L 666.957899 104.874473 
L 667.015891 104.608349 
L 667.246804 105.672799 
L 667.361635 104.608349 
L 667.418896 106.604187 
L 667.476054 106.338078 
L 667.533109 104.741411 
L 667.590062 106.205032 
L 667.703663 105.539753 
L 667.760312 105.539753 
L 667.81686 106.07197 
L 667.873308 105.938908 
L 667.929656 106.07197 
L 667.985904 105.938908 
L 668.042053 105.938908 
L 668.321321 106.471141 
L 668.487712 106.07197 
L 668.542983 106.205032 
L 668.598158 107.269482 
L 668.653238 106.471141 
L 668.708222 105.273628 
L 668.763112 106.338078 
L 668.981728 105.40669 
L 669.090475 105.00752 
L 669.306861 106.737249 
L 669.414504 105.140582 
L 669.468189 105.539753 
L 669.628704 106.737249 
L 669.735266 105.40669 
L 669.788413 106.07197 
L 669.841472 106.737249 
L 669.894442 106.205032 
L 670.052826 106.737249 
L 670.157979 105.140582 
L 670.210425 105.805861 
L 670.367248 106.471141 
L 670.419351 106.737249 
L 670.471368 106.471141 
L 670.523301 106.471141 
L 670.575149 107.003358 
L 670.678592 105.273628 
L 670.730188 106.205032 
L 670.884475 106.338078 
L 670.98692 106.205032 
L 671.038018 106.338078 
L 671.089035 107.003358 
L 671.13997 106.338078 
L 671.241596 105.40669 
L 671.292287 106.07197 
L 671.342898 105.539753 
L 671.443879 104.741411 
L 671.494249 106.471141 
L 671.54454 105.40669 
L 671.644884 106.205032 
L 671.744912 105.40669 
L 671.794809 105.539753 
L 671.94403 105.140582 
L 672.043124 105.672799 
L 672.14191 105.00752 
L 672.24039 106.07197 
L 672.289516 105.40669 
L 672.338566 106.07197 
L 672.387541 106.07197 
L 672.43644 105.805861 
L 672.485265 106.471141 
L 672.534014 105.938908 
L 672.63129 105.273628 
L 672.679816 105.40669 
L 672.776648 105.672799 
L 672.873185 104.874473 
L 672.969431 105.938908 
L 673.017445 105.40669 
L 673.065386 106.07197 
L 673.113256 106.205032 
L 673.161053 105.672799 
L 673.208779 105.805861 
L 673.304016 106.205032 
L 673.351528 105.672799 
L 673.398969 106.471141 
L 673.44634 106.205032 
L 673.49364 105.273628 
L 673.540869 105.938908 
L 673.588029 106.07197 
L 673.635119 105.938908 
L 673.72909 105.938908 
L 673.869529 105.40669 
L 673.962812 105.938908 
L 674.00935 105.140582 
L 674.055821 105.273628 
L 674.102224 106.338078 
L 674.14856 105.273628 
L 674.241029 106.07197 
L 674.287163 105.805861 
L 674.379231 105.938908 
L 674.425165 105.273628 
L 674.516835 105.40669 
L 674.562571 105.805861 
L 674.608241 105.273628 
L 674.653846 105.140582 
L 674.79027 105.938908 
L 674.971263 105.140582 
L 675.016351 105.539753 
L 675.061375 105.273628 
L 675.151232 105.00752 
L 675.196066 105.938908 
L 675.240836 105.40669 
L 675.285544 105.40669 
L 675.419291 105.938908 
L 675.463749 105.805861 
L 675.508145 106.338078 
L 675.552479 105.938908 
L 675.596751 105.00752 
L 675.685111 105.273628 
L 675.729199 104.874473 
L 675.773226 105.40669 
L 675.861098 104.874473 
L 675.904943 104.076132 
L 675.948727 106.338078 
L 675.992452 105.40669 
L 676.079721 105.539753 
L 676.123266 105.00752 
L 676.166752 105.805861 
L 676.253545 105.672799 
L 676.383292 105.938908 
L 676.512512 105.539753 
L 676.555469 105.40669 
L 676.64121 105.805861 
L 676.683993 105.539753 
L 676.769389 106.205032 
L 676.812 105.805861 
L 676.897053 104.874473 
L 676.939494 105.140582 
L 676.981879 105.273628 
L 677.06648 104.608349 
L 677.150856 105.539753 
L 677.19296 105.273628 
L 677.277002 105.140582 
L 677.360822 105.672799 
L 677.444422 105.672799 
L 677.48614 105.805861 
L 677.527803 105.672799 
L 677.652466 105.672799 
L 677.735304 106.205032 
L 677.776642 104.874473 
L 677.817927 105.140582 
L 677.859158 105.805861 
L 677.941461 105.40669 
L 678.023551 106.07197 
L 678.064516 105.672799 
L 678.14629 105.00752 
L 678.309209 105.938908 
L 678.390357 104.874473 
L 678.430853 105.00752 
L 678.471298 105.140582 
L 678.511692 105.00752 
L 678.592325 104.475303 
L 678.632566 105.672799 
L 678.712894 105.140582 
L 678.872944 104.741411 
L 678.912832 104.874473 
L 679.032194 105.805861 
L 679.071882 105.672799 
L 679.11152 105.805861 
L 679.230141 104.874473 
L 679.269583 105.140582 
L 679.308976 105.672799 
L 679.387617 105.40669 
L 679.466063 105.273628 
L 679.505214 105.805861 
L 679.544317 104.741411 
L 679.622378 105.539753 
L 679.700249 105.539753 
L 679.816698 105.805861 
L 679.971304 104.608349 
L 680.048326 105.539753 
L 680.086768 105.273628 
L 680.201813 104.608349 
L 680.27828 105.00752 
L 680.316445 105.140582 
L 680.392637 104.475303 
L 680.468647 105.539753 
L 680.506584 105.140582 
L 680.582322 105.539753 
L 680.620124 105.40669 
L 680.657881 105.273628 
L 680.733261 105.805861 
L 680.770884 105.40669 
L 680.845996 105.140582 
L 680.920932 105.805861 
L 680.958334 131.884835 
L 680.995692 102.745573 
L 681.033006 106.604187 
L 681.107503 103.543899 
L 681.144686 104.475303 
L 681.181826 105.539753 
L 681.255976 105.40669 
L 681.292986 105.40669 
L 681.366878 105.539753 
L 681.403759 105.40669 
L 681.477394 105.40669 
L 681.624155 105.273628 
L 681.951911 105.273628 
L 682.13255 105.00752 
L 682.276326 105.00752 
L 682.419455 104.874473 
L 684.020759 104.874473 
L 684.156267 104.741411 
L 684.190054 104.741411 
L 684.324845 104.874473 
L 684.592726 104.874473 
L 684.725825 105.00752 
L 685.220045 105.00752 
L 685.350551 104.874473 
L 685.609967 104.874473 
L 685.738886 104.741411 
L 686.090744 104.741411 
L 686.217733 104.608349 
L 686.344217 104.741411 
L 686.501619 104.741411 
L 686.626982 104.608349 
L 686.782995 104.608349 
L 686.907256 104.475303 
L 687.123552 104.475303 
L 687.215802 104.34224 
L 687.277154 104.608349 
L 687.338388 104.475303 
L 687.85417 104.475303 
L 687.974325 104.608349 
L 688.391329 104.608349 
L 688.538944 104.34224 
L 688.568385 104.475303 
L 688.597799 104.209194 
L 688.715183 104.209194 
L 688.832136 104.076132 
L 688.94866 104.076132 
L 689.064759 104.209194 
L 689.180436 104.076132 
L 689.295693 104.209194 
L 689.410535 104.209194 
L 689.439181 104.34224 
L 689.496395 104.209194 
L 689.610516 104.076132 
L 689.724228 104.34224 
L 689.752593 104.209194 
L 689.978606 104.209194 
L 690.006745 104.34224 
L 690.062948 104.076132 
L 690.091013 104.076132 
L 690.175058 104.34224 
L 690.147068 103.94307 
L 690.203024 104.209194 
L 690.314643 104.076132 
L 690.564361 104.874473 
L 690.647167 104.076132 
L 690.702251 104.608349 
L 690.729758 105.273628 
L 690.75724 103.27779 
L 690.784699 113.390043 
L 690.866934 103.410852 
L 690.894299 105.273628 
L 690.976252 103.94307 
L 691.085194 104.34224 
L 691.112372 104.076132 
L 691.624381 104.076132 
L 691.651102 104.209194 
L 691.731131 104.076132 
L 691.864066 103.810023 
L 692.154582 103.810023 
L 692.285763 103.94307 
L 692.416406 103.94307 
L 692.520535 103.810023 
L 692.598408 103.94307 
L 692.624324 103.810023 
L 692.830892 103.810023 
L 692.959319 103.94307 
L 693.036128 103.94307 
L 693.163731 104.076132 
L 693.518321 104.076132 
L 693.644008 104.209194 
L 693.769201 104.076132 
L 693.893903 104.076132 
L 694.018118 103.94307 
L 694.850159 103.94307 
L 694.970704 104.076132 
L 695.114756 104.076132 
L 695.25816 103.810023 
L 695.543041 103.810023 
L 695.660993 103.676961 
L 696.290486 103.676961 
L 696.405704 103.543899 
L 696.839766 103.543899 
L 696.953015 103.27779 
L 696.998202 103.27779 
L 697.13338 103.144744 
L 697.402024 103.144744 
L 697.5355 103.27779 
L 697.668418 103.27779 
L 697.778761 103.144744 
L 697.932601 103.410852 
L 698.368087 103.410852 
L 698.432899 103.27779 
L 698.476034 103.410852 
L 699.221575 103.410852 
L 699.326668 103.543899 
L 699.452324 103.410852 
L 699.577486 103.410852 
L 699.681413 103.543899 
L 699.722888 103.27779 
L 699.785001 103.410852 
L 699.888253 103.543899 
L 700.032245 103.011682 
L 700.15515 104.608349 
L 700.216425 111.660329 
L 700.196013 103.011682 
L 700.25721 105.938908 
L 700.338622 102.878619 
L 700.37925 103.011682 
L 700.521042 103.27779 
L 700.601783 103.27779 
L 700.722512 103.144744 
L 701.14149 103.144744 
L 701.260192 103.27779 
L 702.480529 103.27779 
L 702.594347 103.144744 
L 704.930233 103.144744 
L 705.053162 103.011682 
L 705.193073 103.011682 
L 705.314992 103.144744 
L 706.475654 103.144744 
L 706.592765 103.011682 
L 706.858839 103.011682 
L 706.925011 103.144744 
L 706.941533 103.011682 
L 707.056944 102.878619 
L 707.122706 102.878619 
L 707.204718 103.011682 
L 707.221095 102.745573 
L 707.319181 102.878619 
L 707.384403 102.878619 
L 707.481987 103.011682 
L 707.498222 102.878619 
L 707.546877 103.144744 
L 707.563079 103.144744 
L 707.579273 103.144744 
L 707.611635 103.27779 
L 707.692398 103.011682 
L 707.821193 103.27779 
L 707.885396 103.410852 
L 707.917448 103.144744 
L 707.981457 103.011682 
L 708.013413 104.209194 
L 708.029379 111.128096 
L 708.10909 107.003358 
L 708.204479 101.947231 
L 708.236212 102.080294 
L 708.299584 101.814185 
L 708.347029 102.080294 
L 708.362829 102.080294 
L 708.504673 102.346402 
L 708.520394 102.346402 
L 708.661539 102.612511 
L 708.708449 102.612511 
L 708.817636 102.878619 
L 708.833203 102.745573 
L 709.019423 102.745573 
L 709.142966 102.878619 
L 709.829099 102.878619 
L 709.949544 102.745573 
L 710.009596 102.745573 
L 710.12936 103.011682 
L 710.144299 102.878619 
L 710.233786 103.011682 
L 710.293304 103.011682 
L 710.412008 102.878619 
L 711.04256 102.878619 
L 711.158505 102.745573 
L 711.187426 102.745573 
L 711.302845 102.878619 
L 711.575301 102.878619 
L 711.689324 102.745573 
L 711.760382 102.745573 
L 711.887887 103.011682 
L 712.183428 103.011682 
L 712.295296 103.144744 
L 712.642371 103.144744 
L 712.766397 103.011682 
L 713.108398 103.011682 
L 713.244175 102.745573 
L 713.954278 102.745573 
L 714.086501 103.011682 
L 714.713629 103.011682 
L 714.816959 103.144744 
L 714.932805 102.878619 
L 714.945651 102.878619 
L 715.061031 103.011682 
L 715.073825 102.878619 
L 715.16324 103.011682 
L 715.252405 103.27779 
L 715.188741 102.878619 
L 715.265123 103.011682 
L 715.277835 103.011682 
L 715.303244 103.810023 
L 715.417337 178.5875 
L 715.631734 178.5875 
L 715.707061 177.52305 
L 715.73213 175.39415 
L 715.832209 103.810023 
L 715.869658 103.94307 
L 715.894599 104.209194 
L 715.931975 103.410852 
L 715.99417 102.745573 
L 716.043838 103.144744 
L 716.068643 103.144744 
L 716.21707 103.676961 
L 716.352522 103.410852 
L 716.413901 103.410852 
L 716.4874 102.878619 
L 716.536305 103.27779 
L 716.572935 103.27779 
L 716.69473 103.410852 
L 716.706884 103.410852 
L 716.779709 103.676961 
L 716.81606 103.410852 
L 716.912792 103.410852 
L 716.961048 103.676961 
L 717.033295 103.543899 
L 717.117377 103.543899 
L 717.213198 103.410852 
L 717.225156 103.543899 
L 717.272941 103.543899 
L 717.320654 103.410852 
L 717.368295 103.676961 
L 717.498944 103.94307 
L 717.593625 103.94307 
L 717.652657 104.209194 
L 717.699805 103.94307 
L 717.711581 103.94307 
L 717.829102 103.810023 
L 717.8877 103.810023 
L 718.016236 103.543899 
L 718.027896 103.676961 
L 718.051202 103.410852 
L 718.109392 103.410852 
L 718.155868 103.410852 
L 718.271762 103.676961 
L 718.306448 103.410852 
L 718.375707 103.676961 
L 718.467818 103.676961 
L 718.594037 103.94307 
L 718.753958 103.94307 
L 718.82225 104.209194 
L 718.867697 104.076132 
L 718.924415 104.076132 
L 719.060126 103.676961 
L 719.172777 103.810023 
L 719.19526 103.810023 
L 719.251397 103.94307 
L 719.262613 103.676961 
L 719.285032 103.676961 
L 719.307435 103.676961 
L 719.419216 103.543899 
L 719.575053 103.543899 
L 719.696962 103.410852 
L 719.796361 103.410852 
L 719.92841 103.676961 
L 719.983269 103.676961 
L 720.114547 103.94307 
L 720.375488 103.94307 
L 720.44039 103.810023 
L 720.472792 103.94307 
L 720.602069 104.209194 
L 720.805689 104.209194 
L 720.912337 103.810023 
L 720.922982 103.94307 
L 721.082232 103.27779 
L 721.113987 103.27779 
L 721.124565 103.410852 
L 721.14571 102.745573 
L 721.166841 132.017897 
L 721.251226 103.543899 
L 721.261758 103.676961 
L 721.282812 102.745573 
L 721.314367 103.011682 
L 721.324879 103.011682 
L 721.461213 103.410852 
L 721.576117 103.27779 
L 721.804689 103.27779 
L 721.928676 103.543899 
L 721.949294 103.543899 
L 722.062453 103.676961 
L 722.195668 103.676961 
L 722.307956 103.810023 
L 722.551579 103.810023 
L 722.672694 103.676961 
L 722.803384 103.676961 
L 722.93354 103.94307 
L 722.94353 103.94307 
L 723.063165 103.810023 
L 723.102944 103.810023 
L 723.202173 103.676961 
L 723.212079 103.810023 
L 723.566655 103.810023 
L 723.683974 103.676961 
L 723.927008 103.676961 
L 724.043008 103.810023 
L 724.091217 103.810023 
L 724.206621 103.676961 
L 724.843378 103.676961 
L 724.95609 103.543899 
L 725.002936 103.543899 
L 725.115086 103.410852 
L 725.73409 103.410852 
L 725.861927 103.676961 
L 725.916557 103.676961 
L 726.034602 103.810023 
L 726.043664 103.810023 
L 726.161239 103.94307 
L 726.377166 103.94307 
L 726.386131 103.810023 
L 726.395094 104.076132 
L 726.475645 104.076132 
L 726.538155 104.076132 
L 726.609445 103.676961 
L 726.65392 103.810023 
L 726.662807 104.608349 
L 726.671692 177.389988 
L 726.724951 102.745573 
L 726.769265 103.27779 
L 726.884194 102.878619 
L 727.0075 103.144744 
L 727.025077 103.144744 
L 727.139087 103.011682 
L 727.270131 103.011682 
L 727.383267 103.144744 
L 727.496003 103.144744 
L 727.60834 103.27779 
L 727.780397 103.27779 
L 727.900285 103.144744 
L 728.121742 103.144744 
L 728.240353 103.27779 
L 728.509815 103.27779 
L 728.601918 103.543899 
L 728.626991 103.410852 
L 729.12434 103.410852 
L 729.239278 103.543899 
L 729.719148 103.543899 
L 729.831961 103.676961 
L 730.191888 103.676961 
L 730.310964 103.543899 
L 730.390101 103.543899 
L 730.405905 103.676961 
L 730.500564 103.543899 
L 730.961916 103.543899 
L 731.07815 103.676961 
L 731.485475 103.676961 
L 731.584594 103.543899 
L 731.592205 103.676961 
L 731.630237 103.676961 
L 731.713746 103.410852 
L 731.736483 103.676961 
L 731.759204 103.676961 
L 731.812157 103.543899 
L 731.819714 103.810023 
L 731.857475 103.810023 
L 731.872566 103.810023 
L 731.917799 106.205032 
L 731.932862 103.543899 
L 731.940391 100.749735 
L 731.947918 107.269482 
L 732.045608 102.878619 
L 732.05311 102.878619 
L 732.105576 103.011682 
L 732.142999 102.745573 
L 732.150479 102.745573 
L 732.225175 102.745573 
L 732.336892 102.878619 
L 732.366617 102.878619 
L 732.463032 103.27779 
L 732.477839 103.144744 
L 732.52222 103.144744 
L 732.640265 103.011682 
L 732.91888 103.011682 
L 733.057278 103.543899 
L 733.224011 103.543899 
L 733.339485 103.676961 
L 733.35389 103.676961 
L 733.389874 103.810023 
L 733.397066 103.543899 
L 733.454542 103.543899 
L 733.483242 103.543899 
L 733.504749 103.410852 
L 733.569185 103.810023 
L 733.576336 103.810023 
L 733.726147 103.810023 
L 733.846907 104.076132 
L 733.953081 104.076132 
L 734.065945 103.94307 
L 734.101132 103.94307 
L 734.108165 104.076132 
L 734.199452 103.94307 
L 734.304458 103.810023 
L 734.346363 104.076132 
L 734.416083 103.94307 
L 734.527319 103.94307 
L 734.645082 103.810023 
L 734.893032 103.810023 
L 735.009452 103.676961 
L 735.036783 103.676961 
L 735.152678 103.810023 
L 735.389965 103.810023 
L 735.504584 103.676961 
L 735.531493 103.676961 
L 735.645603 103.543899 
L 735.879256 103.543899 
L 735.932422 103.676961 
L 735.965606 103.410852 
L 735.97887 103.410852 
L 736.084782 103.410852 
L 736.236415 102.479464 
L 736.249567 102.479464 
L 736.374235 102.878619 
L 736.380783 102.878619 
L 736.504939 103.144744 
L 736.550559 103.144744 
L 736.654588 103.410852 
L 736.667567 103.27779 
L 736.758278 103.27779 
L 736.874526 103.011682 
L 736.906742 103.543899 
L 736.913181 103.011682 
L 736.919619 114.986726 
L 736.964649 102.346402 
L 737.02245 103.011682 
L 737.035281 102.745573 
L 737.131346 103.011682 
L 737.16969 103.011682 
L 737.26535 103.27779 
L 737.284448 103.144744 
L 737.322609 103.144744 
L 737.436817 103.27779 
L 737.487445 103.27779 
L 737.50641 103.144744 
L 737.594763 103.27779 
L 737.989342 103.27779 
L 738.101186 103.410852 
L 738.249702 103.410852 
L 738.354483 103.144744 
L 738.366788 103.27779 
L 740.357635 103.27779 
L 740.455709 103.144744 
L 740.467227 103.27779 
L 740.702437 103.27779 
L 740.816546 103.410852 
L 741.03223 103.410852 
L 741.145164 103.543899 
L 741.257698 103.410852 
L 741.330633 103.410852 
L 741.436929 103.543899 
L 741.526168 103.410852 
L 741.542872 103.543899 
L 741.548438 103.543899 
L 741.581815 103.676961 
L 741.665103 103.144744 
L 741.709435 103.676961 
L 741.748174 102.878619 
L 741.753705 126.296491 
L 741.84206 102.745573 
L 741.858599 102.878619 
L 741.91917 103.27779 
L 741.979626 103.144744 
L 741.990605 103.144744 
L 742.007068 103.011682 
L 742.100194 103.144744 
L 742.122066 103.144744 
L 742.242096 103.543899 
L 742.35625 103.410852 
L 742.372524 103.410852 
L 742.491615 103.144744 
L 742.529414 103.144744 
L 742.615644 103.011682 
L 742.637165 103.144744 
L 742.701641 103.144744 
L 742.819508 103.410852 
L 742.888952 103.410852 
L 743.006129 103.144744 
L 744.015998 103.144744 
L 744.129104 103.27779 
L 745.193941 103.27779 
L 745.307888 103.144744 
L 745.534565 103.144744 
L 745.647301 103.011682 
L 745.74013 103.011682 
L 745.852141 103.144744 
L 745.876439 103.144744 
L 745.987972 103.011682 
L 745.997652 103.011682 
L 746.103938 103.543899 
L 746.094291 102.878619 
L 746.118405 103.410852 
L 746.176204 103.011682 
L 746.161764 103.543899 
L 746.185826 103.27779 
L 746.200255 111.527267 
L 746.195447 102.346402 
L 746.296282 102.878619 
L 746.301075 103.011682 
L 746.344186 102.479464 
L 746.396798 102.612511 
L 746.401577 102.612511 
L 746.520809 102.878619 
L 746.558869 102.878619 
L 746.644338 103.27779 
L 746.677515 103.144744 
L 746.833452 103.144744 
L 746.951079 102.878619 
L 746.965165 102.878619 
L 747.07763 102.745573 
L 747.454291 102.745573 
L 747.56965 102.878619 
L 747.725869 102.878619 
L 747.844815 103.144744 
L 748.486712 103.144744 
L 748.598394 103.011682 
L 748.842721 103.011682 
L 748.957572 102.878619 
L 749.16852 102.878619 
L 749.282202 103.011682 
L 749.74582 103.011682 
L 749.857461 103.144744 
L 750.105105 103.144744 
L 750.18157 102.878619 
L 750.185813 103.011682 
" clip-path="url(#pba3ba4dbbe)" style="fill: none; stroke: #1f77b4; stroke-width: 1.5; stroke-linecap: square"/>
   </g>
   <g id="patch_3">
    <path d="M 393.065812 311.6435 
L 393.065812 45.5315 
" style="fill: none; stroke: #000000; stroke-width: 0.8; stroke-linejoin: miter; stroke-linecap: square"/>
   </g>
   <g id="patch_4">
    <path d="M 750.185813 311.6435 
L 750.185813 45.5315 
" style="fill: none; stroke: #000000; stroke-width: 0.8; stroke-linejoin: miter; stroke-linecap: square"/>
   </g>
   <g id="patch_5">
    <path d="M 393.065812 311.6435 
L 750.185813 311.6435 
" style="fill: none; stroke: #000000; stroke-width: 0.8; stroke-linejoin: miter; stroke-linecap: square"/>
   </g>
   <g id="patch_6">
    <path d="M 393.065812 45.5315 
L 750.185813 45.5315 
" style="fill: none; stroke: #000000; stroke-width: 0.8; stroke-linejoin: miter; stroke-linecap: square"/>
   </g>
   <g id="text_18">
    <!-- Accuracy of the 09_07_25_CIFAR10_torch_model_(1024+2048-2048.0-1)_elk-horse on the validation set -->
    <g transform="translate(7.2 25.5315) scale(0.264 -0.264)">
     <defs>
      <path id="TimesNewRomanPSMT-20" transform="scale(0.015625)"/>
      <path id="TimesNewRomanPSMT-6f" d="M 1600 2947 
Q 2250 2947 2644 2453 
Q 2978 2031 2978 1484 
Q 2978 1100 2793 706 
Q 2609 313 2286 112 
Q 1963 -88 1566 -88 
Q 919 -88 538 428 
Q 216 863 216 1403 
Q 216 1797 411 2186 
Q 606 2575 925 2761 
Q 1244 2947 1600 2947 
z
M 1503 2744 
Q 1338 2744 1170 2645 
Q 1003 2547 900 2300 
Q 797 2053 797 1666 
Q 797 1041 1045 587 
Q 1294 134 1700 134 
Q 2003 134 2200 384 
Q 2397 634 2397 1244 
Q 2397 2006 2069 2444 
Q 1847 2744 1503 2744 
z
" transform="scale(0.015625)"/>
      <path id="TimesNewRomanPSMT-66" d="M 1319 2638 
L 1319 756 
Q 1319 356 1406 250 
Q 1522 113 1716 113 
L 1975 113 
L 1975 0 
L 266 0 
L 266 113 
L 394 113 
Q 519 113 622 175 
Q 725 238 764 344 
Q 803 450 803 756 
L 803 2638 
L 247 2638 
L 247 2863 
L 803 2863 
L 803 3050 
Q 803 3478 940 3775 
Q 1078 4072 1361 4255 
Q 1644 4438 1997 4438 
Q 2325 4438 2600 4225 
Q 2781 4084 2781 3909 
Q 2781 3816 2700 3733 
Q 2619 3650 2525 3650 
Q 2453 3650 2373 3701 
Q 2294 3753 2178 3923 
Q 2063 4094 1966 4153 
Q 1869 4213 1750 4213 
Q 1606 4213 1506 4136 
Q 1406 4059 1362 3898 
Q 1319 3738 1319 3069 
L 1319 2863 
L 2056 2863 
L 2056 2638 
L 1319 2638 
z
" transform="scale(0.015625)"/>
      <path id="TimesNewRomanPSMT-74" d="M 1031 3803 
L 1031 2863 
L 1700 2863 
L 1700 2644 
L 1031 2644 
L 1031 788 
Q 1031 509 1111 412 
Q 1191 316 1316 316 
Q 1419 316 1516 380 
Q 1613 444 1666 569 
L 1788 569 
Q 1678 263 1478 108 
Q 1278 -47 1066 -47 
Q 922 -47 784 33 
Q 647 113 581 261 
Q 516 409 516 719 
L 516 2644 
L 63 2644 
L 63 2747 
Q 234 2816 414 2980 
Q 594 3144 734 3369 
Q 806 3488 934 3803 
L 1031 3803 
z
" transform="scale(0.015625)"/>
      <path id="TimesNewRomanPSMT-68" d="M 1041 4444 
L 1041 2350 
Q 1388 2731 1591 2839 
Q 1794 2947 1997 2947 
Q 2241 2947 2416 2812 
Q 2591 2678 2675 2391 
Q 2734 2191 2734 1659 
L 2734 647 
Q 2734 375 2778 275 
Q 2809 200 2884 156 
Q 2959 113 3159 113 
L 3159 0 
L 1753 0 
L 1753 113 
L 1819 113 
Q 2019 113 2097 173 
Q 2175 234 2206 353 
Q 2216 403 2216 647 
L 2216 1659 
Q 2216 2128 2167 2275 
Q 2119 2422 2012 2495 
Q 1906 2569 1756 2569 
Q 1603 2569 1437 2487 
Q 1272 2406 1041 2159 
L 1041 647 
Q 1041 353 1073 281 
Q 1106 209 1195 161 
Q 1284 113 1503 113 
L 1503 0 
L 84 0 
L 84 113 
Q 275 113 384 172 
Q 447 203 484 290 
Q 522 378 522 647 
L 522 3238 
Q 522 3728 498 3840 
Q 475 3953 426 3993 
Q 378 4034 297 4034 
Q 231 4034 84 3984 
L 41 4094 
L 897 4444 
L 1041 4444 
z
" transform="scale(0.015625)"/>
      <path id="TimesNewRomanPSMT-65" d="M 681 1784 
Q 678 1147 991 784 
Q 1303 422 1725 422 
Q 2006 422 2214 576 
Q 2422 731 2563 1106 
L 2659 1044 
Q 2594 616 2278 264 
Q 1963 -88 1488 -88 
Q 972 -88 605 314 
Q 238 716 238 1394 
Q 238 2128 614 2539 
Q 991 2950 1559 2950 
Q 2041 2950 2350 2633 
Q 2659 2316 2659 1784 
L 681 1784 
z
M 681 1966 
L 2006 1966 
Q 1991 2241 1941 2353 
Q 1863 2528 1708 2628 
Q 1553 2728 1384 2728 
Q 1125 2728 920 2526 
Q 716 2325 681 1966 
z
" transform="scale(0.015625)"/>
      <path id="TimesNewRomanPSMT-5f" d="M 3256 -1381 
L -53 -1381 
L -53 -1119 
L 3256 -1119 
L 3256 -1381 
z
" transform="scale(0.015625)"/>
      <path id="TimesNewRomanPSMT-43" d="M 3853 4334 
L 3950 2894 
L 3853 2894 
Q 3659 3541 3300 3825 
Q 2941 4109 2438 4109 
Q 2016 4109 1675 3895 
Q 1334 3681 1139 3212 
Q 944 2744 944 2047 
Q 944 1472 1128 1050 
Q 1313 628 1683 403 
Q 2053 178 2528 178 
Q 2941 178 3256 354 
Q 3572 531 3950 1056 
L 4047 994 
Q 3728 428 3303 165 
Q 2878 -97 2294 -97 
Q 1241 -97 663 684 
Q 231 1266 231 2053 
Q 231 2688 515 3219 
Q 800 3750 1298 4042 
Q 1797 4334 2388 4334 
Q 2847 4334 3294 4109 
Q 3425 4041 3481 4041 
Q 3566 4041 3628 4100 
Q 3709 4184 3744 4334 
L 3853 4334 
z
" transform="scale(0.015625)"/>
      <path id="TimesNewRomanPSMT-49" d="M 1975 116 
L 1975 0 
L 159 0 
L 159 116 
L 309 116 
Q 572 116 691 269 
Q 766 369 766 750 
L 766 3488 
Q 766 3809 725 3913 
Q 694 3991 597 4047 
Q 459 4122 309 4122 
L 159 4122 
L 159 4238 
L 1975 4238 
L 1975 4122 
L 1822 4122 
Q 1563 4122 1444 3969 
Q 1366 3869 1366 3488 
L 1366 750 
Q 1366 428 1406 325 
Q 1438 247 1538 191 
Q 1672 116 1822 116 
L 1975 116 
z
" transform="scale(0.015625)"/>
      <path id="TimesNewRomanPSMT-46" d="M 1309 4006 
L 1309 2341 
L 2081 2341 
Q 2347 2341 2470 2458 
Q 2594 2575 2634 2922 
L 2750 2922 
L 2750 1488 
L 2634 1488 
Q 2631 1734 2570 1850 
Q 2509 1966 2401 2023 
Q 2294 2081 2081 2081 
L 1309 2081 
L 1309 750 
Q 1309 428 1350 325 
Q 1381 247 1481 191 
Q 1619 116 1769 116 
L 1922 116 
L 1922 0 
L 103 0 
L 103 116 
L 253 116 
Q 516 116 634 269 
Q 709 369 709 750 
L 709 3488 
Q 709 3809 669 3913 
Q 638 3991 541 4047 
Q 406 4122 253 4122 
L 103 4122 
L 103 4238 
L 3256 4238 
L 3297 3306 
L 3188 3306 
Q 3106 3603 2998 3742 
Q 2891 3881 2733 3943 
Q 2575 4006 2244 4006 
L 1309 4006 
z
" transform="scale(0.015625)"/>
      <path id="TimesNewRomanPSMT-52" d="M 4325 0 
L 3194 0 
L 1759 1981 
Q 1600 1975 1500 1975 
Q 1459 1975 1412 1976 
Q 1366 1978 1316 1981 
L 1316 750 
Q 1316 350 1403 253 
Q 1522 116 1759 116 
L 1925 116 
L 1925 0 
L 109 0 
L 109 116 
L 269 116 
Q 538 116 653 291 
Q 719 388 719 750 
L 719 3488 
Q 719 3888 631 3984 
Q 509 4122 269 4122 
L 109 4122 
L 109 4238 
L 1653 4238 
Q 2328 4238 2648 4139 
Q 2969 4041 3192 3777 
Q 3416 3513 3416 3147 
Q 3416 2756 3161 2468 
Q 2906 2181 2372 2063 
L 3247 847 
Q 3547 428 3762 290 
Q 3978 153 4325 116 
L 4325 0 
z
M 1316 2178 
Q 1375 2178 1419 2176 
Q 1463 2175 1491 2175 
Q 2097 2175 2405 2437 
Q 2713 2700 2713 3106 
Q 2713 3503 2464 3751 
Q 2216 4000 1806 4000 
Q 1625 4000 1316 3941 
L 1316 2178 
z
" transform="scale(0.015625)"/>
      <path id="TimesNewRomanPSMT-6d" d="M 1050 2338 
Q 1363 2650 1419 2697 
Q 1559 2816 1721 2881 
Q 1884 2947 2044 2947 
Q 2313 2947 2506 2790 
Q 2700 2634 2766 2338 
Q 3088 2713 3309 2830 
Q 3531 2947 3766 2947 
Q 3994 2947 4170 2830 
Q 4347 2713 4450 2447 
Q 4519 2266 4519 1878 
L 4519 647 
Q 4519 378 4559 278 
Q 4591 209 4675 161 
Q 4759 113 4950 113 
L 4950 0 
L 3538 0 
L 3538 113 
L 3597 113 
Q 3781 113 3884 184 
Q 3956 234 3988 344 
Q 4000 397 4000 647 
L 4000 1878 
Q 4000 2228 3916 2372 
Q 3794 2572 3525 2572 
Q 3359 2572 3192 2489 
Q 3025 2406 2788 2181 
L 2781 2147 
L 2788 2013 
L 2788 647 
Q 2788 353 2820 281 
Q 2853 209 2943 161 
Q 3034 113 3253 113 
L 3253 0 
L 1806 0 
L 1806 113 
Q 2044 113 2133 169 
Q 2222 225 2256 338 
Q 2272 391 2272 647 
L 2272 1878 
Q 2272 2228 2169 2381 
Q 2031 2581 1784 2581 
Q 1616 2581 1450 2491 
Q 1191 2353 1050 2181 
L 1050 647 
Q 1050 366 1089 281 
Q 1128 197 1204 155 
Q 1281 113 1516 113 
L 1516 0 
L 100 0 
L 100 113 
Q 297 113 375 155 
Q 453 197 493 289 
Q 534 381 534 647 
L 534 1741 
Q 534 2213 506 2350 
Q 484 2453 437 2492 
Q 391 2531 309 2531 
Q 222 2531 100 2484 
L 53 2597 
L 916 2947 
L 1050 2947 
L 1050 2338 
z
" transform="scale(0.015625)"/>
      <path id="TimesNewRomanPSMT-64" d="M 2222 322 
Q 2013 103 1813 7 
Q 1613 -88 1381 -88 
Q 913 -88 563 304 
Q 213 697 213 1313 
Q 213 1928 600 2439 
Q 988 2950 1597 2950 
Q 1975 2950 2222 2709 
L 2222 3238 
Q 2222 3728 2198 3840 
Q 2175 3953 2125 3993 
Q 2075 4034 2000 4034 
Q 1919 4034 1784 3984 
L 1744 4094 
L 2597 4444 
L 2738 4444 
L 2738 1134 
Q 2738 631 2761 520 
Q 2784 409 2836 365 
Q 2888 322 2956 322 
Q 3041 322 3181 375 
L 3216 266 
L 2366 -88 
L 2222 -88 
L 2222 322 
z
M 2222 541 
L 2222 2016 
Q 2203 2228 2109 2403 
Q 2016 2578 1861 2667 
Q 1706 2756 1559 2756 
Q 1284 2756 1069 2509 
Q 784 2184 784 1559 
Q 784 928 1059 592 
Q 1334 256 1672 256 
Q 1956 256 2222 541 
z
" transform="scale(0.015625)"/>
      <path id="TimesNewRomanPSMT-6c" d="M 1184 4444 
L 1184 647 
Q 1184 378 1223 290 
Q 1263 203 1344 158 
Q 1425 113 1647 113 
L 1647 0 
L 244 0 
L 244 113 
Q 441 113 512 153 
Q 584 194 625 287 
Q 666 381 666 647 
L 666 3247 
Q 666 3731 644 3842 
Q 622 3953 573 3993 
Q 525 4034 450 4034 
Q 369 4034 244 3984 
L 191 4094 
L 1044 4444 
L 1184 4444 
z
" transform="scale(0.015625)"/>
      <path id="TimesNewRomanPSMT-28" d="M 1988 -1253 
L 1988 -1369 
Q 1516 -1131 1200 -813 
Q 750 -359 506 256 
Q 263 872 263 1534 
Q 263 2503 741 3301 
Q 1219 4100 1988 4444 
L 1988 4313 
Q 1603 4100 1356 3731 
Q 1109 3363 987 2797 
Q 866 2231 866 1616 
Q 866 947 969 400 
Q 1050 -31 1165 -292 
Q 1281 -553 1476 -793 
Q 1672 -1034 1988 -1253 
z
" transform="scale(0.015625)"/>
      <path id="TimesNewRomanPSMT-2b" d="M 1672 441 
L 1672 2000 
L 116 2000 
L 116 2256 
L 1672 2256 
L 1672 3809 
L 1922 3809 
L 1922 2256 
L 3484 2256 
L 3484 2000 
L 1922 2000 
L 1922 441 
L 1672 441 
z
" transform="scale(0.015625)"/>
      <path id="TimesNewRomanPSMT-2d" d="M 259 1672 
L 1875 1672 
L 1875 1200 
L 259 1200 
L 259 1672 
z
" transform="scale(0.015625)"/>
      <path id="TimesNewRomanPSMT-29" d="M 144 4313 
L 144 4444 
Q 619 4209 934 3891 
Q 1381 3434 1625 2820 
Q 1869 2206 1869 1541 
Q 1869 572 1392 -226 
Q 916 -1025 144 -1369 
L 144 -1253 
Q 528 -1038 776 -670 
Q 1025 -303 1145 264 
Q 1266 831 1266 1447 
Q 1266 2113 1163 2663 
Q 1084 3094 967 3353 
Q 850 3613 656 3853 
Q 463 4094 144 4313 
z
" transform="scale(0.015625)"/>
      <path id="TimesNewRomanPSMT-6b" d="M 1047 4444 
L 1047 1594 
L 1775 2259 
Q 2006 2472 2044 2528 
Q 2069 2566 2069 2603 
Q 2069 2666 2017 2711 
Q 1966 2756 1847 2763 
L 1847 2863 
L 3091 2863 
L 3091 2763 
Q 2834 2756 2664 2684 
Q 2494 2613 2291 2428 
L 1556 1750 
L 2291 822 
Q 2597 438 2703 334 
Q 2853 188 2966 144 
Q 3044 113 3238 113 
L 3238 0 
L 1847 0 
L 1847 113 
Q 1966 116 2008 148 
Q 2050 181 2050 241 
Q 2050 313 1925 472 
L 1047 1594 
L 1047 644 
Q 1047 366 1086 278 
Q 1125 191 1197 153 
Q 1269 116 1509 113 
L 1509 0 
L 53 0 
L 53 113 
Q 272 113 381 166 
Q 447 200 481 272 
Q 528 375 528 628 
L 528 3234 
Q 528 3731 506 3842 
Q 484 3953 434 3995 
Q 384 4038 303 4038 
Q 238 4038 106 3984 
L 53 4094 
L 903 4444 
L 1047 4444 
z
" transform="scale(0.015625)"/>
      <path id="TimesNewRomanPSMT-73" d="M 2050 2947 
L 2050 1972 
L 1947 1972 
Q 1828 2431 1642 2597 
Q 1456 2763 1169 2763 
Q 950 2763 815 2647 
Q 681 2531 681 2391 
Q 681 2216 781 2091 
Q 878 1963 1175 1819 
L 1631 1597 
Q 2266 1288 2266 781 
Q 2266 391 1970 151 
Q 1675 -88 1309 -88 
Q 1047 -88 709 6 
Q 606 38 541 38 
Q 469 38 428 -44 
L 325 -44 
L 325 978 
L 428 978 
Q 516 541 762 319 
Q 1009 97 1316 97 
Q 1531 97 1667 223 
Q 1803 350 1803 528 
Q 1803 744 1651 891 
Q 1500 1038 1047 1263 
Q 594 1488 453 1669 
Q 313 1847 313 2119 
Q 313 2472 555 2709 
Q 797 2947 1181 2947 
Q 1350 2947 1591 2875 
Q 1750 2828 1803 2828 
Q 1853 2828 1881 2850 
Q 1909 2872 1947 2947 
L 2050 2947 
z
" transform="scale(0.015625)"/>
      <path id="TimesNewRomanPSMT-6e" d="M 1034 2341 
Q 1538 2947 1994 2947 
Q 2228 2947 2397 2830 
Q 2566 2713 2666 2444 
Q 2734 2256 2734 1869 
L 2734 647 
Q 2734 375 2778 278 
Q 2813 200 2889 156 
Q 2966 113 3172 113 
L 3172 0 
L 1756 0 
L 1756 113 
L 1816 113 
Q 2016 113 2095 173 
Q 2175 234 2206 353 
Q 2219 400 2219 647 
L 2219 1819 
Q 2219 2209 2117 2386 
Q 2016 2563 1775 2563 
Q 1403 2563 1034 2156 
L 1034 647 
Q 1034 356 1069 288 
Q 1113 197 1189 155 
Q 1266 113 1500 113 
L 1500 0 
L 84 0 
L 84 113 
L 147 113 
Q 366 113 442 223 
Q 519 334 519 647 
L 519 1709 
Q 519 2225 495 2337 
Q 472 2450 423 2490 
Q 375 2531 294 2531 
Q 206 2531 84 2484 
L 38 2597 
L 900 2947 
L 1034 2947 
L 1034 2341 
z
" transform="scale(0.015625)"/>
      <path id="TimesNewRomanPSMT-76" d="M 53 2863 
L 1400 2863 
L 1400 2747 
L 1313 2747 
Q 1191 2747 1127 2687 
Q 1063 2628 1063 2528 
Q 1063 2419 1128 2269 
L 1794 688 
L 2463 2328 
Q 2534 2503 2534 2594 
Q 2534 2638 2509 2666 
Q 2475 2713 2422 2730 
Q 2369 2747 2206 2747 
L 2206 2863 
L 3141 2863 
L 3141 2747 
Q 2978 2734 2916 2681 
Q 2806 2588 2719 2369 
L 1703 -88 
L 1575 -88 
L 553 2328 
Q 484 2497 421 2570 
Q 359 2644 263 2694 
Q 209 2722 53 2747 
L 53 2863 
z
" transform="scale(0.015625)"/>
      <path id="TimesNewRomanPSMT-69" d="M 928 4444 
Q 1059 4444 1151 4351 
Q 1244 4259 1244 4128 
Q 1244 3997 1151 3903 
Q 1059 3809 928 3809 
Q 797 3809 703 3903 
Q 609 3997 609 4128 
Q 609 4259 701 4351 
Q 794 4444 928 4444 
z
M 1188 2947 
L 1188 647 
Q 1188 378 1227 289 
Q 1266 200 1342 156 
Q 1419 113 1622 113 
L 1622 0 
L 231 0 
L 231 113 
Q 441 113 512 153 
Q 584 194 626 287 
Q 669 381 669 647 
L 669 1750 
Q 669 2216 641 2353 
Q 619 2453 572 2492 
Q 525 2531 444 2531 
Q 356 2531 231 2484 
L 188 2597 
L 1050 2947 
L 1188 2947 
z
" transform="scale(0.015625)"/>
     </defs>
     <use xlink:href="#TimesNewRomanPSMT-41"/>
     <use xlink:href="#TimesNewRomanPSMT-63" transform="translate(72.216797 0)"/>
     <use xlink:href="#TimesNewRomanPSMT-63" transform="translate(116.601562 0)"/>
     <use xlink:href="#TimesNewRomanPSMT-75" transform="translate(160.986328 0)"/>
     <use xlink:href="#TimesNewRomanPSMT-72" transform="translate(210.986328 0)"/>
     <use xlink:href="#TimesNewRomanPSMT-61" transform="translate(244.287109 0)"/>
     <use xlink:href="#TimesNewRomanPSMT-63" transform="translate(288.671875 0)"/>
     <use xlink:href="#TimesNewRomanPSMT-79" transform="translate(333.056641 0)"/>
     <use xlink:href="#TimesNewRomanPSMT-20" transform="translate(383.056641 0)"/>
     <use xlink:href="#TimesNewRomanPSMT-6f" transform="translate(408.056641 0)"/>
     <use xlink:href="#TimesNewRomanPSMT-66" transform="translate(458.056641 0)"/>
     <use xlink:href="#TimesNewRomanPSMT-20" transform="translate(491.357422 0)"/>
     <use xlink:href="#TimesNewRomanPSMT-74" transform="translate(516.357422 0)"/>
     <use xlink:href="#TimesNewRomanPSMT-68" transform="translate(544.140625 0)"/>
     <use xlink:href="#TimesNewRomanPSMT-65" transform="translate(594.140625 0)"/>
     <use xlink:href="#TimesNewRomanPSMT-20" transform="translate(638.525391 0)"/>
     <use xlink:href="#TimesNewRomanPSMT-30" transform="translate(663.525391 0)"/>
     <use xlink:href="#TimesNewRomanPSMT-39" transform="translate(713.525391 0)"/>
     <use xlink:href="#TimesNewRomanPSMT-5f" transform="translate(763.525391 0)"/>
     <use xlink:href="#TimesNewRomanPSMT-30" transform="translate(813.525391 0)"/>
     <use xlink:href="#TimesNewRomanPSMT-37" transform="translate(863.525391 0)"/>
     <use xlink:href="#TimesNewRomanPSMT-5f" transform="translate(913.525391 0)"/>
     <use xlink:href="#TimesNewRomanPSMT-32" transform="translate(963.525391 0)"/>
     <use xlink:href="#TimesNewRomanPSMT-35" transform="translate(1013.525391 0)"/>
     <use xlink:href="#TimesNewRomanPSMT-5f" transform="translate(1063.525391 0)"/>
     <use xlink:href="#TimesNewRomanPSMT-43" transform="translate(1113.525391 0)"/>
     <use xlink:href="#TimesNewRomanPSMT-49" transform="translate(1180.224609 0)"/>
     <use xlink:href="#TimesNewRomanPSMT-46" transform="translate(1213.525391 0)"/>
     <use xlink:href="#TimesNewRomanPSMT-41" transform="translate(1261.765625 0)"/>
     <use xlink:href="#TimesNewRomanPSMT-52" transform="translate(1333.982422 0)"/>
     <use xlink:href="#TimesNewRomanPSMT-31" transform="translate(1400.681641 0)"/>
     <use xlink:href="#TimesNewRomanPSMT-30" transform="translate(1450.681641 0)"/>
     <use xlink:href="#TimesNewRomanPSMT-5f" transform="translate(1500.681641 0)"/>
     <use xlink:href="#TimesNewRomanPSMT-74" transform="translate(1550.681641 0)"/>
     <use xlink:href="#TimesNewRomanPSMT-6f" transform="translate(1578.464844 0)"/>
     <use xlink:href="#TimesNewRomanPSMT-72" transform="translate(1628.464844 0)"/>
     <use xlink:href="#TimesNewRomanPSMT-63" transform="translate(1661.765625 0)"/>
     <use xlink:href="#TimesNewRomanPSMT-68" transform="translate(1706.150391 0)"/>
     <use xlink:href="#TimesNewRomanPSMT-5f" transform="translate(1756.150391 0)"/>
     <use xlink:href="#TimesNewRomanPSMT-6d" transform="translate(1806.150391 0)"/>
     <use xlink:href="#TimesNewRomanPSMT-6f" transform="translate(1883.933594 0)"/>
     <use xlink:href="#TimesNewRomanPSMT-64" transform="translate(1933.933594 0)"/>
     <use xlink:href="#TimesNewRomanPSMT-65" transform="translate(1983.933594 0)"/>
     <use xlink:href="#TimesNewRomanPSMT-6c" transform="translate(2028.318359 0)"/>
     <use xlink:href="#TimesNewRomanPSMT-5f" transform="translate(2056.101562 0)"/>
     <use xlink:href="#TimesNewRomanPSMT-28" transform="translate(2106.101562 0)"/>
     <use xlink:href="#TimesNewRomanPSMT-31" transform="translate(2139.402344 0)"/>
     <use xlink:href="#TimesNewRomanPSMT-30" transform="translate(2189.402344 0)"/>
     <use xlink:href="#TimesNewRomanPSMT-32" transform="translate(2239.402344 0)"/>
     <use xlink:href="#TimesNewRomanPSMT-34" transform="translate(2289.402344 0)"/>
     <use xlink:href="#TimesNewRomanPSMT-2b" transform="translate(2339.402344 0)"/>
     <use xlink:href="#TimesNewRomanPSMT-32" transform="translate(2395.798828 0)"/>
     <use xlink:href="#TimesNewRomanPSMT-30" transform="translate(2445.798828 0)"/>
     <use xlink:href="#TimesNewRomanPSMT-34" transform="translate(2495.798828 0)"/>
     <use xlink:href="#TimesNewRomanPSMT-38" transform="translate(2545.798828 0)"/>
     <use xlink:href="#TimesNewRomanPSMT-2d" transform="translate(2595.798828 0)"/>
     <use xlink:href="#TimesNewRomanPSMT-32" transform="translate(2629.099609 0)"/>
     <use xlink:href="#TimesNewRomanPSMT-30" transform="translate(2679.099609 0)"/>
     <use xlink:href="#TimesNewRomanPSMT-34" transform="translate(2729.099609 0)"/>
     <use xlink:href="#TimesNewRomanPSMT-38" transform="translate(2779.099609 0)"/>
     <use xlink:href="#TimesNewRomanPSMT-2e" transform="translate(2829.099609 0)"/>
     <use xlink:href="#TimesNewRomanPSMT-30" transform="translate(2854.099609 0)"/>
     <use xlink:href="#TimesNewRomanPSMT-2d" transform="translate(2904.099609 0)"/>
     <use xlink:href="#TimesNewRomanPSMT-31" transform="translate(2937.400391 0)"/>
     <use xlink:href="#TimesNewRomanPSMT-29" transform="translate(2987.400391 0)"/>
     <use xlink:href="#TimesNewRomanPSMT-5f" transform="translate(3020.701172 0)"/>
     <use xlink:href="#TimesNewRomanPSMT-65" transform="translate(3070.701172 0)"/>
     <use xlink:href="#TimesNewRomanPSMT-6c" transform="translate(3115.085938 0)"/>
     <use xlink:href="#TimesNewRomanPSMT-6b" transform="translate(3142.869141 0)"/>
     <use xlink:href="#TimesNewRomanPSMT-2d" transform="translate(3192.869141 0)"/>
     <use xlink:href="#TimesNewRomanPSMT-68" transform="translate(3226.169922 0)"/>
     <use xlink:href="#TimesNewRomanPSMT-6f" transform="translate(3276.169922 0)"/>
     <use xlink:href="#TimesNewRomanPSMT-72" transform="translate(3326.169922 0)"/>
     <use xlink:href="#TimesNewRomanPSMT-73" transform="translate(3359.470703 0)"/>
     <use xlink:href="#TimesNewRomanPSMT-65" transform="translate(3398.386719 0)"/>
     <use xlink:href="#TimesNewRomanPSMT-20" transform="translate(3442.771484 0)"/>
     <use xlink:href="#TimesNewRomanPSMT-6f" transform="translate(3467.771484 0)"/>
     <use xlink:href="#TimesNewRomanPSMT-6e" transform="translate(3517.771484 0)"/>
     <use xlink:href="#TimesNewRomanPSMT-20" transform="translate(3567.771484 0)"/>
     <use xlink:href="#TimesNewRomanPSMT-74" transform="translate(3592.771484 0)"/>
     <use xlink:href="#TimesNewRomanPSMT-68" transform="translate(3620.554688 0)"/>
     <use xlink:href="#TimesNewRomanPSMT-65" transform="translate(3670.554688 0)"/>
     <use xlink:href="#TimesNewRomanPSMT-20" transform="translate(3714.939453 0)"/>
     <use xlink:href="#TimesNewRomanPSMT-76" transform="translate(3739.939453 0)"/>
     <use xlink:href="#TimesNewRomanPSMT-61" transform="translate(3789.939453 0)"/>
     <use xlink:href="#TimesNewRomanPSMT-6c" transform="translate(3834.324219 0)"/>
     <use xlink:href="#TimesNewRomanPSMT-69" transform="translate(3862.107422 0)"/>
     <use xlink:href="#TimesNewRomanPSMT-64" transform="translate(3889.890625 0)"/>
     <use xlink:href="#TimesNewRomanPSMT-61" transform="translate(3939.890625 0)"/>
     <use xlink:href="#TimesNewRomanPSMT-74" transform="translate(3984.275391 0)"/>
     <use xlink:href="#TimesNewRomanPSMT-69" transform="translate(4012.058594 0)"/>
     <use xlink:href="#TimesNewRomanPSMT-6f" transform="translate(4039.841797 0)"/>
     <use xlink:href="#TimesNewRomanPSMT-6e" transform="translate(4089.841797 0)"/>
     <use xlink:href="#TimesNewRomanPSMT-20" transform="translate(4139.841797 0)"/>
     <use xlink:href="#TimesNewRomanPSMT-73" transform="translate(4164.841797 0)"/>
     <use xlink:href="#TimesNewRomanPSMT-65" transform="translate(4203.757812 0)"/>
     <use xlink:href="#TimesNewRomanPSMT-74" transform="translate(4248.142578 0)"/>
    </g>
   </g>
   <g id="legend_1">
    <g id="patch_7">
     <path d="M 497.6155 94.278687 
L 734.785813 94.278687 
Q 739.185813 94.278687 739.185813 89.878687 
L 739.185813 60.9315 
Q 739.185813 56.5315 734.785813 56.5315 
L 497.6155 56.5315 
Q 493.2155 56.5315 493.2155 60.9315 
L 493.2155 89.878687 
Q 493.2155 94.278687 497.6155 94.278687 
z
" style="fill: #ffffff; opacity: 0.8; stroke: #cccccc; stroke-linejoin: miter"/>
    </g>
    <g id="line2d_32">
     <path d="M 502.0155 73.0315 
L 524.0155 73.0315 
L 546.0155 73.0315 
" style="fill: none; stroke: #1f77b4; stroke-width: 1.5; stroke-linecap: square"/>
    </g>
    <g id="text_19">
     <!-- Best accuracy 0.79 -->
     <g transform="translate(563.6155 80.7315) scale(0.22 -0.22)">
      <defs>
       <path id="TimesNewRomanPSMT-42" d="M 2956 2163 
Q 3397 2069 3616 1863 
Q 3919 1575 3919 1159 
Q 3919 844 3719 555 
Q 3519 266 3170 133 
Q 2822 0 2106 0 
L 106 0 
L 106 116 
L 266 116 
Q 531 116 647 284 
Q 719 394 719 750 
L 719 3488 
Q 719 3881 628 3984 
Q 506 4122 266 4122 
L 106 4122 
L 106 4238 
L 1938 4238 
Q 2450 4238 2759 4163 
Q 3228 4050 3475 3764 
Q 3722 3478 3722 3106 
Q 3722 2788 3528 2536 
Q 3334 2284 2956 2163 
z
M 1319 2331 
Q 1434 2309 1582 2298 
Q 1731 2288 1909 2288 
Q 2366 2288 2595 2386 
Q 2825 2484 2947 2687 
Q 3069 2891 3069 3131 
Q 3069 3503 2766 3765 
Q 2463 4028 1881 4028 
Q 1569 4028 1319 3959 
L 1319 2331 
z
M 1319 306 
Q 1681 222 2034 222 
Q 2600 222 2897 476 
Q 3194 731 3194 1106 
Q 3194 1353 3059 1581 
Q 2925 1809 2622 1940 
Q 2319 2072 1872 2072 
Q 1678 2072 1540 2065 
Q 1403 2059 1319 2044 
L 1319 306 
z
" transform="scale(0.015625)"/>
      </defs>
      <use xlink:href="#TimesNewRomanPSMT-42"/>
      <use xlink:href="#TimesNewRomanPSMT-65" transform="translate(66.699219 0)"/>
      <use xlink:href="#TimesNewRomanPSMT-73" transform="translate(111.083984 0)"/>
      <use xlink:href="#TimesNewRomanPSMT-74" transform="translate(150 0)"/>
      <use xlink:href="#TimesNewRomanPSMT-20" transform="translate(177.783203 0)"/>
      <use xlink:href="#TimesNewRomanPSMT-61" transform="translate(202.783203 0)"/>
      <use xlink:href="#TimesNewRomanPSMT-63" transform="translate(247.167969 0)"/>
      <use xlink:href="#TimesNewRomanPSMT-63" transform="translate(291.552734 0)"/>
      <use xlink:href="#TimesNewRomanPSMT-75" transform="translate(335.9375 0)"/>
      <use xlink:href="#TimesNewRomanPSMT-72" transform="translate(385.9375 0)"/>
      <use xlink:href="#TimesNewRomanPSMT-61" transform="translate(419.238281 0)"/>
      <use xlink:href="#TimesNewRomanPSMT-63" transform="translate(463.623047 0)"/>
      <use xlink:href="#TimesNewRomanPSMT-79" transform="translate(508.007812 0)"/>
      <use xlink:href="#TimesNewRomanPSMT-20" transform="translate(558.007812 0)"/>
      <use xlink:href="#TimesNewRomanPSMT-30" transform="translate(583.007812 0)"/>
      <use xlink:href="#TimesNewRomanPSMT-2e" transform="translate(633.007812 0)"/>
      <use xlink:href="#TimesNewRomanPSMT-37" transform="translate(658.007812 0)"/>
      <use xlink:href="#TimesNewRomanPSMT-39" transform="translate(708.007812 0)"/>
     </g>
    </g>
   </g>
  </g>
 </g>
 <defs>
  <clipPath id="pba3ba4dbbe">
   <rect x="393.065812" y="45.5315" width="357.12" height="266.112"/>
  </clipPath>
 </defs>
</svg>
