<?xml version="1.0" encoding="utf-8" standalone="no"?>
<!DOCTYPE svg PUBLIC "-//W3C//DTD SVG 1.1//EN"
  "http://www.w3.org/Graphics/SVG/1.1/DTD/svg11.dtd">
<svg xmlns:xlink="http://www.w3.org/1999/xlink" width="659.380875pt" height="369.807875pt" viewBox="0 0 659.380875 369.807875" xmlns="http://www.w3.org/2000/svg" version="1.1">
 <metadata>
  <rdf:RDF xmlns:dc="http://purl.org/dc/elements/1.1/" xmlns:cc="http://creativecommons.org/ns#" xmlns:rdf="http://www.w3.org/1999/02/22-rdf-syntax-ns#">
   <cc:Work>
    <dc:type rdf:resource="http://purl.org/dc/dcmitype/StillImage"/>
    <dc:date>2025-05-14T17:23:24.027401</dc:date>
    <dc:format>image/svg+xml</dc:format>
    <dc:creator>
     <cc:Agent>
      <dc:title>Matplotlib v3.10.1, https://matplotlib.org/</dc:title>
     </cc:Agent>
    </dc:creator>
   </cc:Work>
  </rdf:RDF>
 </metadata>
 <defs>
  <style type="text/css">*{stroke-linejoin: round; stroke-linecap: butt}</style>
 </defs>
 <g id="figure_1">
  <g id="patch_1">
   <path d="M 0 369.807875 
L 659.380875 369.807875 
L 659.380875 0 
L 0 0 
z
" style="fill: #ffffff"/>
  </g>
  <g id="axes_1">
   <g id="patch_2">
    <path d="M 151.130438 311.6435 
L 508.250438 311.6435 
L 508.250438 45.5315 
L 151.130438 45.5315 
z
" style="fill: #ffffff"/>
   </g>
   <g id="matplotlib.axis_1">
    <g id="xtick_1">
     <g id="line2d_1">
      <path d="M 151.130438 311.6435 
L 151.130438 45.5315 
" clip-path="url(#p857b515078)" style="fill: none; stroke: #b0b0b0; stroke-opacity: 0.3; stroke-width: 0.8; stroke-linecap: square"/>
     </g>
     <g id="line2d_2">
      <defs>
       <path id="m80a02a72c9" d="M 0 0 
L 0 3.5 
" style="stroke: #000000; stroke-width: 0.8"/>
      </defs>
      <g>
       <use xlink:href="#m80a02a72c9" x="151.130438" y="311.6435" style="stroke: #000000; stroke-width: 0.8"/>
      </g>
     </g>
     <g id="text_1">
      <!-- 0 -->
      <g transform="translate(145.630438 333.91975) scale(0.22 -0.22)">
       <defs>
        <path id="TimesNewRomanPSMT-30" d="M 231 2094 
Q 231 2819 450 3342 
Q 669 3866 1031 4122 
Q 1313 4325 1613 4325 
Q 2100 4325 2488 3828 
Q 2972 3213 2972 2159 
Q 2972 1422 2759 906 
Q 2547 391 2217 158 
Q 1888 -75 1581 -75 
Q 975 -75 572 641 
Q 231 1244 231 2094 
z
M 844 2016 
Q 844 1141 1059 588 
Q 1238 122 1591 122 
Q 1759 122 1940 273 
Q 2122 425 2216 781 
Q 2359 1319 2359 2297 
Q 2359 3022 2209 3506 
Q 2097 3866 1919 4016 
Q 1791 4119 1609 4119 
Q 1397 4119 1231 3928 
Q 1006 3669 925 3112 
Q 844 2556 844 2016 
z
" transform="scale(0.015625)"/>
       </defs>
       <use xlink:href="#TimesNewRomanPSMT-30"/>
      </g>
     </g>
    </g>
    <g id="xtick_2">
     <g id="line2d_3">
      <path d="M 225.716904 311.6435 
L 225.716904 45.5315 
" clip-path="url(#p857b515078)" style="fill: none; stroke: #b0b0b0; stroke-opacity: 0.3; stroke-width: 0.8; stroke-linecap: square"/>
     </g>
     <g id="line2d_4">
      <g>
       <use xlink:href="#m80a02a72c9" x="225.716904" y="311.6435" style="stroke: #000000; stroke-width: 0.8"/>
      </g>
     </g>
     <g id="text_2">
      <!-- 2500 -->
      <g transform="translate(203.716904 333.91975) scale(0.22 -0.22)">
       <defs>
        <path id="TimesNewRomanPSMT-32" d="M 2934 816 
L 2638 0 
L 138 0 
L 138 116 
Q 1241 1122 1691 1759 
Q 2141 2397 2141 2925 
Q 2141 3328 1894 3587 
Q 1647 3847 1303 3847 
Q 991 3847 742 3664 
Q 494 3481 375 3128 
L 259 3128 
Q 338 3706 661 4015 
Q 984 4325 1469 4325 
Q 1984 4325 2329 3994 
Q 2675 3663 2675 3213 
Q 2675 2891 2525 2569 
Q 2294 2063 1775 1497 
Q 997 647 803 472 
L 1909 472 
Q 2247 472 2383 497 
Q 2519 522 2628 598 
Q 2738 675 2819 816 
L 2934 816 
z
" transform="scale(0.015625)"/>
        <path id="TimesNewRomanPSMT-35" d="M 2778 4238 
L 2534 3706 
L 1259 3706 
L 981 3138 
Q 1809 3016 2294 2522 
Q 2709 2097 2709 1522 
Q 2709 1188 2573 903 
Q 2438 619 2231 419 
Q 2025 219 1772 97 
Q 1413 -75 1034 -75 
Q 653 -75 479 54 
Q 306 184 306 341 
Q 306 428 378 495 
Q 450 563 559 563 
Q 641 563 702 538 
Q 763 513 909 409 
Q 1144 247 1384 247 
Q 1750 247 2026 523 
Q 2303 800 2303 1197 
Q 2303 1581 2056 1914 
Q 1809 2247 1375 2428 
Q 1034 2569 447 2591 
L 1259 4238 
L 2778 4238 
z
" transform="scale(0.015625)"/>
       </defs>
       <use xlink:href="#TimesNewRomanPSMT-32"/>
       <use xlink:href="#TimesNewRomanPSMT-35" transform="translate(50 0)"/>
       <use xlink:href="#TimesNewRomanPSMT-30" transform="translate(100 0)"/>
       <use xlink:href="#TimesNewRomanPSMT-30" transform="translate(150 0)"/>
      </g>
     </g>
    </g>
    <g id="xtick_3">
     <g id="line2d_5">
      <path d="M 300.30337 311.6435 
L 300.30337 45.5315 
" clip-path="url(#p857b515078)" style="fill: none; stroke: #b0b0b0; stroke-opacity: 0.3; stroke-width: 0.8; stroke-linecap: square"/>
     </g>
     <g id="line2d_6">
      <g>
       <use xlink:href="#m80a02a72c9" x="300.30337" y="311.6435" style="stroke: #000000; stroke-width: 0.8"/>
      </g>
     </g>
     <g id="text_3">
      <!-- 5000 -->
      <g transform="translate(278.30337 333.91975) scale(0.22 -0.22)">
       <use xlink:href="#TimesNewRomanPSMT-35"/>
       <use xlink:href="#TimesNewRomanPSMT-30" transform="translate(50 0)"/>
       <use xlink:href="#TimesNewRomanPSMT-30" transform="translate(100 0)"/>
       <use xlink:href="#TimesNewRomanPSMT-30" transform="translate(150 0)"/>
      </g>
     </g>
    </g>
    <g id="xtick_4">
     <g id="line2d_7">
      <path d="M 374.889836 311.6435 
L 374.889836 45.5315 
" clip-path="url(#p857b515078)" style="fill: none; stroke: #b0b0b0; stroke-opacity: 0.3; stroke-width: 0.8; stroke-linecap: square"/>
     </g>
     <g id="line2d_8">
      <g>
       <use xlink:href="#m80a02a72c9" x="374.889836" y="311.6435" style="stroke: #000000; stroke-width: 0.8"/>
      </g>
     </g>
     <g id="text_4">
      <!-- 7500 -->
      <g transform="translate(352.889836 333.91975) scale(0.22 -0.22)">
       <defs>
        <path id="TimesNewRomanPSMT-37" d="M 644 4238 
L 2916 4238 
L 2916 4119 
L 1503 -88 
L 1153 -88 
L 2419 3728 
L 1253 3728 
Q 900 3728 750 3644 
Q 488 3500 328 3200 
L 238 3234 
L 644 4238 
z
" transform="scale(0.015625)"/>
       </defs>
       <use xlink:href="#TimesNewRomanPSMT-37"/>
       <use xlink:href="#TimesNewRomanPSMT-35" transform="translate(50 0)"/>
       <use xlink:href="#TimesNewRomanPSMT-30" transform="translate(100 0)"/>
       <use xlink:href="#TimesNewRomanPSMT-30" transform="translate(150 0)"/>
      </g>
     </g>
    </g>
    <g id="xtick_5">
     <g id="line2d_9">
      <path d="M 449.476302 311.6435 
L 449.476302 45.5315 
" clip-path="url(#p857b515078)" style="fill: none; stroke: #b0b0b0; stroke-opacity: 0.3; stroke-width: 0.8; stroke-linecap: square"/>
     </g>
     <g id="line2d_10">
      <g>
       <use xlink:href="#m80a02a72c9" x="449.476302" y="311.6435" style="stroke: #000000; stroke-width: 0.8"/>
      </g>
     </g>
     <g id="text_5">
      <!-- 10000 -->
      <g transform="translate(421.976302 333.91975) scale(0.22 -0.22)">
       <defs>
        <path id="TimesNewRomanPSMT-31" d="M 750 3822 
L 1781 4325 
L 1884 4325 
L 1884 747 
Q 1884 391 1914 303 
Q 1944 216 2037 169 
Q 2131 122 2419 116 
L 2419 0 
L 825 0 
L 825 116 
Q 1125 122 1212 167 
Q 1300 213 1334 289 
Q 1369 366 1369 747 
L 1369 3034 
Q 1369 3497 1338 3628 
Q 1316 3728 1258 3775 
Q 1200 3822 1119 3822 
Q 1003 3822 797 3725 
L 750 3822 
z
" transform="scale(0.015625)"/>
       </defs>
       <use xlink:href="#TimesNewRomanPSMT-31"/>
       <use xlink:href="#TimesNewRomanPSMT-30" transform="translate(50 0)"/>
       <use xlink:href="#TimesNewRomanPSMT-30" transform="translate(100 0)"/>
       <use xlink:href="#TimesNewRomanPSMT-30" transform="translate(150 0)"/>
       <use xlink:href="#TimesNewRomanPSMT-30" transform="translate(200 0)"/>
      </g>
     </g>
    </g>
    <g id="text_6">
     <!-- Number of iterations -->
     <g transform="translate(238.048406 357.901937) scale(0.22 -0.22)">
      <defs>
       <path id="TimesNewRomanPSMT-4e" d="M -84 4238 
L 1066 4238 
L 3656 1059 
L 3656 3503 
Q 3656 3894 3569 3991 
Q 3453 4122 3203 4122 
L 3056 4122 
L 3056 4238 
L 4531 4238 
L 4531 4122 
L 4381 4122 
Q 4113 4122 4000 3959 
Q 3931 3859 3931 3503 
L 3931 -69 
L 3819 -69 
L 1025 3344 
L 1025 734 
Q 1025 344 1109 247 
Q 1228 116 1475 116 
L 1625 116 
L 1625 0 
L 150 0 
L 150 116 
L 297 116 
Q 569 116 681 278 
Q 750 378 750 734 
L 750 3681 
Q 566 3897 470 3965 
Q 375 4034 191 4094 
Q 100 4122 -84 4122 
L -84 4238 
z
" transform="scale(0.015625)"/>
       <path id="TimesNewRomanPSMT-75" d="M 2709 2863 
L 2709 1128 
Q 2709 631 2732 520 
Q 2756 409 2807 365 
Q 2859 322 2928 322 
Q 3025 322 3147 375 
L 3191 266 
L 2334 -88 
L 2194 -88 
L 2194 519 
Q 1825 119 1631 15 
Q 1438 -88 1222 -88 
Q 981 -88 804 51 
Q 628 191 559 409 
Q 491 628 491 1028 
L 491 2306 
Q 491 2509 447 2587 
Q 403 2666 317 2708 
Q 231 2750 6 2747 
L 6 2863 
L 1009 2863 
L 1009 947 
Q 1009 547 1148 422 
Q 1288 297 1484 297 
Q 1619 297 1789 381 
Q 1959 466 2194 703 
L 2194 2325 
Q 2194 2569 2105 2655 
Q 2016 2741 1734 2747 
L 1734 2863 
L 2709 2863 
z
" transform="scale(0.015625)"/>
       <path id="TimesNewRomanPSMT-6d" d="M 1050 2338 
Q 1363 2650 1419 2697 
Q 1559 2816 1721 2881 
Q 1884 2947 2044 2947 
Q 2313 2947 2506 2790 
Q 2700 2634 2766 2338 
Q 3088 2713 3309 2830 
Q 3531 2947 3766 2947 
Q 3994 2947 4170 2830 
Q 4347 2713 4450 2447 
Q 4519 2266 4519 1878 
L 4519 647 
Q 4519 378 4559 278 
Q 4591 209 4675 161 
Q 4759 113 4950 113 
L 4950 0 
L 3538 0 
L 3538 113 
L 3597 113 
Q 3781 113 3884 184 
Q 3956 234 3988 344 
Q 4000 397 4000 647 
L 4000 1878 
Q 4000 2228 3916 2372 
Q 3794 2572 3525 2572 
Q 3359 2572 3192 2489 
Q 3025 2406 2788 2181 
L 2781 2147 
L 2788 2013 
L 2788 647 
Q 2788 353 2820 281 
Q 2853 209 2943 161 
Q 3034 113 3253 113 
L 3253 0 
L 1806 0 
L 1806 113 
Q 2044 113 2133 169 
Q 2222 225 2256 338 
Q 2272 391 2272 647 
L 2272 1878 
Q 2272 2228 2169 2381 
Q 2031 2581 1784 2581 
Q 1616 2581 1450 2491 
Q 1191 2353 1050 2181 
L 1050 647 
Q 1050 366 1089 281 
Q 1128 197 1204 155 
Q 1281 113 1516 113 
L 1516 0 
L 100 0 
L 100 113 
Q 297 113 375 155 
Q 453 197 493 289 
Q 534 381 534 647 
L 534 1741 
Q 534 2213 506 2350 
Q 484 2453 437 2492 
Q 391 2531 309 2531 
Q 222 2531 100 2484 
L 53 2597 
L 916 2947 
L 1050 2947 
L 1050 2338 
z
" transform="scale(0.015625)"/>
       <path id="TimesNewRomanPSMT-62" d="M 984 2369 
Q 1400 2947 1881 2947 
Q 2322 2947 2650 2570 
Q 2978 2194 2978 1541 
Q 2978 778 2472 313 
Q 2038 -88 1503 -88 
Q 1253 -88 995 3 
Q 738 94 469 275 
L 469 3241 
Q 469 3728 445 3840 
Q 422 3953 372 3993 
Q 322 4034 247 4034 
Q 159 4034 28 3984 
L -16 4094 
L 844 4444 
L 984 4444 
L 984 2369 
z
M 984 2169 
L 984 456 
Q 1144 300 1314 220 
Q 1484 141 1663 141 
Q 1947 141 2192 453 
Q 2438 766 2438 1363 
Q 2438 1913 2192 2208 
Q 1947 2503 1634 2503 
Q 1469 2503 1303 2419 
Q 1178 2356 984 2169 
z
" transform="scale(0.015625)"/>
       <path id="TimesNewRomanPSMT-65" d="M 681 1784 
Q 678 1147 991 784 
Q 1303 422 1725 422 
Q 2006 422 2214 576 
Q 2422 731 2563 1106 
L 2659 1044 
Q 2594 616 2278 264 
Q 1963 -88 1488 -88 
Q 972 -88 605 314 
Q 238 716 238 1394 
Q 238 2128 614 2539 
Q 991 2950 1559 2950 
Q 2041 2950 2350 2633 
Q 2659 2316 2659 1784 
L 681 1784 
z
M 681 1966 
L 2006 1966 
Q 1991 2241 1941 2353 
Q 1863 2528 1708 2628 
Q 1553 2728 1384 2728 
Q 1125 2728 920 2526 
Q 716 2325 681 1966 
z
" transform="scale(0.015625)"/>
       <path id="TimesNewRomanPSMT-72" d="M 1038 2947 
L 1038 2303 
Q 1397 2947 1775 2947 
Q 1947 2947 2059 2842 
Q 2172 2738 2172 2600 
Q 2172 2478 2090 2393 
Q 2009 2309 1897 2309 
Q 1788 2309 1652 2417 
Q 1516 2525 1450 2525 
Q 1394 2525 1328 2463 
Q 1188 2334 1038 2041 
L 1038 669 
Q 1038 431 1097 309 
Q 1138 225 1241 169 
Q 1344 113 1538 113 
L 1538 0 
L 72 0 
L 72 113 
Q 291 113 397 181 
Q 475 231 506 341 
Q 522 394 522 644 
L 522 1753 
Q 522 2253 501 2348 
Q 481 2444 426 2487 
Q 372 2531 291 2531 
Q 194 2531 72 2484 
L 41 2597 
L 906 2947 
L 1038 2947 
z
" transform="scale(0.015625)"/>
       <path id="TimesNewRomanPSMT-20" transform="scale(0.015625)"/>
       <path id="TimesNewRomanPSMT-6f" d="M 1600 2947 
Q 2250 2947 2644 2453 
Q 2978 2031 2978 1484 
Q 2978 1100 2793 706 
Q 2609 313 2286 112 
Q 1963 -88 1566 -88 
Q 919 -88 538 428 
Q 216 863 216 1403 
Q 216 1797 411 2186 
Q 606 2575 925 2761 
Q 1244 2947 1600 2947 
z
M 1503 2744 
Q 1338 2744 1170 2645 
Q 1003 2547 900 2300 
Q 797 2053 797 1666 
Q 797 1041 1045 587 
Q 1294 134 1700 134 
Q 2003 134 2200 384 
Q 2397 634 2397 1244 
Q 2397 2006 2069 2444 
Q 1847 2744 1503 2744 
z
" transform="scale(0.015625)"/>
       <path id="TimesNewRomanPSMT-66" d="M 1319 2638 
L 1319 756 
Q 1319 356 1406 250 
Q 1522 113 1716 113 
L 1975 113 
L 1975 0 
L 266 0 
L 266 113 
L 394 113 
Q 519 113 622 175 
Q 725 238 764 344 
Q 803 450 803 756 
L 803 2638 
L 247 2638 
L 247 2863 
L 803 2863 
L 803 3050 
Q 803 3478 940 3775 
Q 1078 4072 1361 4255 
Q 1644 4438 1997 4438 
Q 2325 4438 2600 4225 
Q 2781 4084 2781 3909 
Q 2781 3816 2700 3733 
Q 2619 3650 2525 3650 
Q 2453 3650 2373 3701 
Q 2294 3753 2178 3923 
Q 2063 4094 1966 4153 
Q 1869 4213 1750 4213 
Q 1606 4213 1506 4136 
Q 1406 4059 1362 3898 
Q 1319 3738 1319 3069 
L 1319 2863 
L 2056 2863 
L 2056 2638 
L 1319 2638 
z
" transform="scale(0.015625)"/>
       <path id="TimesNewRomanPSMT-69" d="M 928 4444 
Q 1059 4444 1151 4351 
Q 1244 4259 1244 4128 
Q 1244 3997 1151 3903 
Q 1059 3809 928 3809 
Q 797 3809 703 3903 
Q 609 3997 609 4128 
Q 609 4259 701 4351 
Q 794 4444 928 4444 
z
M 1188 2947 
L 1188 647 
Q 1188 378 1227 289 
Q 1266 200 1342 156 
Q 1419 113 1622 113 
L 1622 0 
L 231 0 
L 231 113 
Q 441 113 512 153 
Q 584 194 626 287 
Q 669 381 669 647 
L 669 1750 
Q 669 2216 641 2353 
Q 619 2453 572 2492 
Q 525 2531 444 2531 
Q 356 2531 231 2484 
L 188 2597 
L 1050 2947 
L 1188 2947 
z
" transform="scale(0.015625)"/>
       <path id="TimesNewRomanPSMT-74" d="M 1031 3803 
L 1031 2863 
L 1700 2863 
L 1700 2644 
L 1031 2644 
L 1031 788 
Q 1031 509 1111 412 
Q 1191 316 1316 316 
Q 1419 316 1516 380 
Q 1613 444 1666 569 
L 1788 569 
Q 1678 263 1478 108 
Q 1278 -47 1066 -47 
Q 922 -47 784 33 
Q 647 113 581 261 
Q 516 409 516 719 
L 516 2644 
L 63 2644 
L 63 2747 
Q 234 2816 414 2980 
Q 594 3144 734 3369 
Q 806 3488 934 3803 
L 1031 3803 
z
" transform="scale(0.015625)"/>
       <path id="TimesNewRomanPSMT-61" d="M 1822 413 
Q 1381 72 1269 19 
Q 1100 -59 909 -59 
Q 613 -59 420 144 
Q 228 347 228 678 
Q 228 888 322 1041 
Q 450 1253 767 1440 
Q 1084 1628 1822 1897 
L 1822 2009 
Q 1822 2438 1686 2597 
Q 1550 2756 1291 2756 
Q 1094 2756 978 2650 
Q 859 2544 859 2406 
L 866 2225 
Q 866 2081 792 2003 
Q 719 1925 600 1925 
Q 484 1925 411 2006 
Q 338 2088 338 2228 
Q 338 2497 613 2722 
Q 888 2947 1384 2947 
Q 1766 2947 2009 2819 
Q 2194 2722 2281 2516 
Q 2338 2381 2338 1966 
L 2338 994 
Q 2338 584 2353 492 
Q 2369 400 2405 369 
Q 2441 338 2488 338 
Q 2538 338 2575 359 
Q 2641 400 2828 588 
L 2828 413 
Q 2478 -56 2159 -56 
Q 2006 -56 1915 50 
Q 1825 156 1822 413 
z
M 1822 616 
L 1822 1706 
Q 1350 1519 1213 1441 
Q 966 1303 859 1153 
Q 753 1003 753 825 
Q 753 600 887 451 
Q 1022 303 1197 303 
Q 1434 303 1822 616 
z
" transform="scale(0.015625)"/>
       <path id="TimesNewRomanPSMT-6e" d="M 1034 2341 
Q 1538 2947 1994 2947 
Q 2228 2947 2397 2830 
Q 2566 2713 2666 2444 
Q 2734 2256 2734 1869 
L 2734 647 
Q 2734 375 2778 278 
Q 2813 200 2889 156 
Q 2966 113 3172 113 
L 3172 0 
L 1756 0 
L 1756 113 
L 1816 113 
Q 2016 113 2095 173 
Q 2175 234 2206 353 
Q 2219 400 2219 647 
L 2219 1819 
Q 2219 2209 2117 2386 
Q 2016 2563 1775 2563 
Q 1403 2563 1034 2156 
L 1034 647 
Q 1034 356 1069 288 
Q 1113 197 1189 155 
Q 1266 113 1500 113 
L 1500 0 
L 84 0 
L 84 113 
L 147 113 
Q 366 113 442 223 
Q 519 334 519 647 
L 519 1709 
Q 519 2225 495 2337 
Q 472 2450 423 2490 
Q 375 2531 294 2531 
Q 206 2531 84 2484 
L 38 2597 
L 900 2947 
L 1034 2947 
L 1034 2341 
z
" transform="scale(0.015625)"/>
       <path id="TimesNewRomanPSMT-73" d="M 2050 2947 
L 2050 1972 
L 1947 1972 
Q 1828 2431 1642 2597 
Q 1456 2763 1169 2763 
Q 950 2763 815 2647 
Q 681 2531 681 2391 
Q 681 2216 781 2091 
Q 878 1963 1175 1819 
L 1631 1597 
Q 2266 1288 2266 781 
Q 2266 391 1970 151 
Q 1675 -88 1309 -88 
Q 1047 -88 709 6 
Q 606 38 541 38 
Q 469 38 428 -44 
L 325 -44 
L 325 978 
L 428 978 
Q 516 541 762 319 
Q 1009 97 1316 97 
Q 1531 97 1667 223 
Q 1803 350 1803 528 
Q 1803 744 1651 891 
Q 1500 1038 1047 1263 
Q 594 1488 453 1669 
Q 313 1847 313 2119 
Q 313 2472 555 2709 
Q 797 2947 1181 2947 
Q 1350 2947 1591 2875 
Q 1750 2828 1803 2828 
Q 1853 2828 1881 2850 
Q 1909 2872 1947 2947 
L 2050 2947 
z
" transform="scale(0.015625)"/>
      </defs>
      <use xlink:href="#TimesNewRomanPSMT-4e"/>
      <use xlink:href="#TimesNewRomanPSMT-75" transform="translate(72.216797 0)"/>
      <use xlink:href="#TimesNewRomanPSMT-6d" transform="translate(122.216797 0)"/>
      <use xlink:href="#TimesNewRomanPSMT-62" transform="translate(200 0)"/>
      <use xlink:href="#TimesNewRomanPSMT-65" transform="translate(250 0)"/>
      <use xlink:href="#TimesNewRomanPSMT-72" transform="translate(294.384766 0)"/>
      <use xlink:href="#TimesNewRomanPSMT-20" transform="translate(327.685547 0)"/>
      <use xlink:href="#TimesNewRomanPSMT-6f" transform="translate(352.685547 0)"/>
      <use xlink:href="#TimesNewRomanPSMT-66" transform="translate(402.685547 0)"/>
      <use xlink:href="#TimesNewRomanPSMT-20" transform="translate(435.986328 0)"/>
      <use xlink:href="#TimesNewRomanPSMT-69" transform="translate(460.986328 0)"/>
      <use xlink:href="#TimesNewRomanPSMT-74" transform="translate(488.769531 0)"/>
      <use xlink:href="#TimesNewRomanPSMT-65" transform="translate(516.552734 0)"/>
      <use xlink:href="#TimesNewRomanPSMT-72" transform="translate(560.9375 0)"/>
      <use xlink:href="#TimesNewRomanPSMT-61" transform="translate(594.238281 0)"/>
      <use xlink:href="#TimesNewRomanPSMT-74" transform="translate(638.623047 0)"/>
      <use xlink:href="#TimesNewRomanPSMT-69" transform="translate(666.40625 0)"/>
      <use xlink:href="#TimesNewRomanPSMT-6f" transform="translate(694.189453 0)"/>
      <use xlink:href="#TimesNewRomanPSMT-6e" transform="translate(744.189453 0)"/>
      <use xlink:href="#TimesNewRomanPSMT-73" transform="translate(794.189453 0)"/>
     </g>
    </g>
   </g>
   <g id="matplotlib.axis_2">
    <g id="ytick_1">
     <g id="line2d_11">
      <path d="M 151.130438 311.6435 
L 508.250438 311.6435 
" clip-path="url(#p857b515078)" style="fill: none; stroke: #b0b0b0; stroke-opacity: 0.3; stroke-width: 0.8; stroke-linecap: square"/>
     </g>
     <g id="line2d_12">
      <defs>
       <path id="m609a8e03c0" d="M 0 0 
L -3.5 0 
" style="stroke: #000000; stroke-width: 0.8"/>
      </defs>
      <g>
       <use xlink:href="#m609a8e03c0" x="151.130438" y="311.6435" style="stroke: #000000; stroke-width: 0.8"/>
      </g>
     </g>
     <g id="text_7">
      <!-- 0.00 -->
      <g transform="translate(105.630438 319.281625) scale(0.22 -0.22)">
       <defs>
        <path id="TimesNewRomanPSMT-2e" d="M 800 606 
Q 947 606 1047 504 
Q 1147 403 1147 259 
Q 1147 116 1045 14 
Q 944 -88 800 -88 
Q 656 -88 554 14 
Q 453 116 453 259 
Q 453 406 554 506 
Q 656 606 800 606 
z
" transform="scale(0.015625)"/>
       </defs>
       <use xlink:href="#TimesNewRomanPSMT-30"/>
       <use xlink:href="#TimesNewRomanPSMT-2e" transform="translate(50 0)"/>
       <use xlink:href="#TimesNewRomanPSMT-30" transform="translate(75 0)"/>
       <use xlink:href="#TimesNewRomanPSMT-30" transform="translate(125 0)"/>
      </g>
     </g>
    </g>
    <g id="ytick_2">
     <g id="line2d_13">
      <path d="M 151.130438 226.238383 
L 508.250438 226.238383 
" clip-path="url(#p857b515078)" style="fill: none; stroke: #b0b0b0; stroke-opacity: 0.3; stroke-width: 0.8; stroke-linecap: square"/>
     </g>
     <g id="line2d_14">
      <g>
       <use xlink:href="#m609a8e03c0" x="151.130438" y="226.238383" style="stroke: #000000; stroke-width: 0.8"/>
      </g>
     </g>
     <g id="text_8">
      <!-- 0.05 -->
      <g transform="translate(105.630438 233.876508) scale(0.22 -0.22)">
       <use xlink:href="#TimesNewRomanPSMT-30"/>
       <use xlink:href="#TimesNewRomanPSMT-2e" transform="translate(50 0)"/>
       <use xlink:href="#TimesNewRomanPSMT-30" transform="translate(75 0)"/>
       <use xlink:href="#TimesNewRomanPSMT-35" transform="translate(125 0)"/>
      </g>
     </g>
    </g>
    <g id="ytick_3">
     <g id="line2d_15">
      <path d="M 151.130438 140.833267 
L 508.250438 140.833267 
" clip-path="url(#p857b515078)" style="fill: none; stroke: #b0b0b0; stroke-opacity: 0.3; stroke-width: 0.8; stroke-linecap: square"/>
     </g>
     <g id="line2d_16">
      <g>
       <use xlink:href="#m609a8e03c0" x="151.130438" y="140.833267" style="stroke: #000000; stroke-width: 0.8"/>
      </g>
     </g>
     <g id="text_9">
      <!-- 0.10 -->
      <g transform="translate(105.630438 148.471392) scale(0.22 -0.22)">
       <use xlink:href="#TimesNewRomanPSMT-30"/>
       <use xlink:href="#TimesNewRomanPSMT-2e" transform="translate(50 0)"/>
       <use xlink:href="#TimesNewRomanPSMT-31" transform="translate(75 0)"/>
       <use xlink:href="#TimesNewRomanPSMT-30" transform="translate(125 0)"/>
      </g>
     </g>
    </g>
    <g id="ytick_4">
     <g id="line2d_17">
      <path d="M 151.130438 55.42815 
L 508.250438 55.42815 
" clip-path="url(#p857b515078)" style="fill: none; stroke: #b0b0b0; stroke-opacity: 0.3; stroke-width: 0.8; stroke-linecap: square"/>
     </g>
     <g id="line2d_18">
      <g>
       <use xlink:href="#m609a8e03c0" x="151.130438" y="55.42815" style="stroke: #000000; stroke-width: 0.8"/>
      </g>
     </g>
     <g id="text_10">
      <!-- 0.15 -->
      <g transform="translate(105.630438 63.066275) scale(0.22 -0.22)">
       <use xlink:href="#TimesNewRomanPSMT-30"/>
       <use xlink:href="#TimesNewRomanPSMT-2e" transform="translate(50 0)"/>
       <use xlink:href="#TimesNewRomanPSMT-31" transform="translate(75 0)"/>
       <use xlink:href="#TimesNewRomanPSMT-35" transform="translate(125 0)"/>
      </g>
     </g>
    </g>
    <g id="text_11">
     <!-- Loss -->
     <g transform="translate(96.9245 199.368906) rotate(-90) scale(0.22 -0.22)">
      <defs>
       <path id="TimesNewRomanPSMT-4c" d="M 3669 1172 
L 3772 1150 
L 3409 0 
L 128 0 
L 128 116 
L 288 116 
Q 556 116 672 291 
Q 738 391 738 753 
L 738 3488 
Q 738 3884 650 3984 
Q 528 4122 288 4122 
L 128 4122 
L 128 4238 
L 2047 4238 
L 2047 4122 
Q 1709 4125 1573 4059 
Q 1438 3994 1388 3894 
Q 1338 3794 1338 3416 
L 1338 753 
Q 1338 494 1388 397 
Q 1425 331 1503 300 
Q 1581 269 1991 269 
L 2300 269 
Q 2788 269 2984 341 
Q 3181 413 3343 595 
Q 3506 778 3669 1172 
z
" transform="scale(0.015625)"/>
      </defs>
      <use xlink:href="#TimesNewRomanPSMT-4c"/>
      <use xlink:href="#TimesNewRomanPSMT-6f" transform="translate(61.083984 0)"/>
      <use xlink:href="#TimesNewRomanPSMT-73" transform="translate(111.083984 0)"/>
      <use xlink:href="#TimesNewRomanPSMT-73" transform="translate(150 0)"/>
     </g>
    </g>
   </g>
   <g id="line2d_19">
    <path d="M 151.130438 95.392201 
L 151.429033 107.874642 
L 151.727628 113.010107 
L 152.026223 111.145022 
L 152.324819 113.018443 
L 152.623414 112.39909 
L 152.922009 113.594921 
L 153.220605 116.447979 
L 153.5192 114.932054 
L 153.817795 114.99071 
L 154.116391 113.909262 
L 154.414986 116.287805 
L 154.713581 117.020194 
L 155.609367 115.314914 
L 155.907963 116.418378 
L 156.206558 119.025218 
L 156.505153 117.26748 
L 156.803749 116.912058 
L 157.102344 117.786142 
L 157.400939 117.913113 
L 157.699534 118.864765 
L 158.296725 118.834425 
L 158.59532 117.344029 
L 158.893916 120.607817 
L 159.192511 118.633959 
L 159.491106 119.777244 
L 159.789702 119.70352 
L 160.088297 119.217985 
L 160.386892 119.089003 
L 160.685488 119.778262 
L 160.984083 97.747976 
L 161.282678 114.827711 
L 161.581274 119.565949 
L 161.879869 119.594723 
L 162.178464 118.465692 
L 162.47706 124.558765 
L 162.775655 124.102232 
L 163.07425 127.784501 
L 163.372846 128.173724 
L 163.671441 125.360538 
L 163.970036 127.66346 
L 164.567227 126.445994 
L 164.865822 128.009286 
L 165.164417 131.013342 
L 165.463013 128.979264 
L 165.761608 129.941847 
L 166.060203 129.834144 
L 166.358799 135.060132 
L 166.657394 132.796024 
L 166.955989 131.916862 
L 167.254585 133.675886 
L 167.55318 132.973201 
L 167.851775 131.543191 
L 168.150371 132.938496 
L 168.448966 137.054861 
L 168.747561 137.615495 
L 169.046157 130.240471 
L 169.643347 136.288123 
L 169.941943 138.209039 
L 170.240538 134.309353 
L 170.539133 137.610353 
L 170.837728 136.129502 
L 171.136324 136.375872 
L 171.434919 139.071466 
L 172.03211 136.890194 
L 172.330705 137.895665 
L 172.6293 138.247435 
L 172.927896 141.309484 
L 173.226491 139.040286 
L 173.525086 138.020893 
L 173.823682 142.275046 
L 174.122277 140.316829 
L 174.420872 140.363102 
L 174.719468 138.473264 
L 175.018063 138.641544 
L 175.316658 143.010489 
L 175.615254 142.616672 
L 175.913849 141.685345 
L 176.212444 142.781835 
L 176.51104 140.607944 
L 176.809635 144.818624 
L 177.10823 146.603101 
L 177.406825 135.388383 
L 177.705421 143.658846 
L 178.004016 145.171844 
L 178.302611 142.408685 
L 178.601207 141.929589 
L 178.899802 143.506333 
L 179.198397 146.400472 
L 179.496993 141.582796 
L 179.795588 146.309949 
L 180.094183 143.821196 
L 180.392779 142.337328 
L 180.691374 146.066456 
L 180.989969 147.245565 
L 181.288565 145.289614 
L 181.58716 144.171031 
L 181.885755 140.436507 
L 182.184351 145.301513 
L 182.482946 145.277218 
L 182.781541 148.545613 
L 183.080136 150.049054 
L 183.378732 144.374894 
L 183.677327 151.077699 
L 183.975922 143.256629 
L 184.274518 148.335425 
L 184.573113 148.586986 
L 185.170304 150.816962 
L 185.468899 148.301025 
L 185.767494 148.003318 
L 186.06609 147.154139 
L 186.364685 143.784455 
L 186.66328 153.024004 
L 187.260471 146.877404 
L 187.559066 151.425867 
L 187.857662 151.551565 
L 188.156257 151.037026 
L 188.454852 151.555536 
L 188.753448 150.466045 
L 189.052043 150.448547 
L 189.350638 148.089386 
L 189.649233 150.767673 
L 189.947829 151.400707 
L 190.246424 155.888681 
L 190.843615 144.825394 
L 191.14221 149.305695 
L 191.440805 149.574857 
L 192.037996 157.245349 
L 192.336591 150.876305 
L 192.635187 149.673588 
L 192.933782 153.687582 
L 193.232377 152.19716 
L 193.530973 153.917293 
L 194.128163 154.61672 
L 194.426759 152.544857 
L 194.725354 149.416197 
L 195.023949 151.676665 
L 195.322545 155.790714 
L 195.62114 155.365679 
L 195.919735 156.644016 
L 196.21833 155.618857 
L 196.516926 153.100833 
L 196.815521 160.980559 
L 197.114116 151.529574 
L 197.412712 154.70233 
L 197.711307 162.448506 
L 198.009902 150.508348 
L 198.607093 161.486992 
L 198.905688 161.84408 
L 199.502879 160.666727 
L 199.801474 159.044346 
L 200.10007 165.380136 
L 200.398665 157.202054 
L 200.69726 161.310897 
L 200.995856 153.985226 
L 201.294451 162.564494 
L 201.593046 154.137344 
L 201.891642 157.59932 
L 202.190237 155.370528 
L 202.488832 156.613129 
L 203.086023 161.76155 
L 203.384618 159.267859 
L 203.683213 158.001001 
L 203.981809 154.715795 
L 204.280404 155.191073 
L 204.578999 159.078376 
L 204.877595 153.673201 
L 205.17619 165.44275 
L 205.474785 165.72007 
L 205.773381 154.701338 
L 206.071976 161.587632 
L 206.370571 161.172294 
L 206.669167 160.446039 
L 206.967762 165.179798 
L 207.266357 164.91612 
L 207.564953 169.144312 
L 207.863548 165.164743 
L 208.162143 163.609569 
L 208.460739 166.505044 
L 208.759334 161.207648 
L 209.057929 158.164637 
L 209.356524 160.243996 
L 209.65512 157.412624 
L 209.953715 160.111527 
L 210.25231 165.964403 
L 210.849501 164.624369 
L 211.148096 167.643187 
L 211.446692 166.005738 
L 211.745287 160.177183 
L 212.043882 165.493782 
L 212.342478 160.908133 
L 212.641073 164.911094 
L 212.939668 163.621698 
L 213.238264 164.615193 
L 213.536859 155.320869 
L 213.835454 168.146324 
L 214.13405 165.228476 
L 214.432645 166.301944 
L 214.73124 160.550446 
L 215.328431 162.017642 
L 215.627026 157.858568 
L 216.224217 171.041722 
L 216.522812 164.539535 
L 216.821407 168.290895 
L 217.120003 169.499301 
L 217.418598 162.660552 
L 217.717193 164.68795 
L 218.015789 167.991088 
L 218.314384 164.982323 
L 218.612979 164.437126 
L 219.21017 180.013063 
L 219.508765 168.17492 
L 219.807361 176.334231 
L 220.404551 168.103169 
L 220.703147 167.301752 
L 221.001742 169.797212 
L 221.300337 176.205835 
L 221.598932 173.766231 
L 221.897528 174.143122 
L 222.196123 169.965301 
L 222.494718 168.446297 
L 222.793314 175.053183 
L 223.091909 169.184845 
L 223.390504 171.835363 
L 223.6891 173.085714 
L 223.987695 170.085146 
L 224.28629 176.945898 
L 224.584886 170.400721 
L 224.883481 173.451915 
L 225.182076 169.730615 
L 225.480672 175.70798 
L 226.077862 162.74713 
L 226.376458 168.235205 
L 226.675053 160.233624 
L 226.973648 174.961146 
L 227.272244 176.315434 
L 227.570839 170.727992 
L 227.869434 180.566367 
L 228.168029 168.183879 
L 228.466625 173.343372 
L 228.76522 175.540488 
L 229.063815 173.860826 
L 229.661006 166.341078 
L 229.959601 166.712509 
L 230.556792 177.694653 
L 230.855387 173.128806 
L 231.153983 177.087033 
L 231.452578 191.132575 
L 231.751173 185.404723 
L 232.049769 170.73447 
L 232.348364 179.182478 
L 232.646959 175.925231 
L 232.945555 174.586775 
L 233.24415 180.200637 
L 233.542745 179.619361 
L 233.841341 183.275528 
L 234.139936 170.400937 
L 234.438531 175.001107 
L 235.035722 172.983904 
L 235.334317 180.855764 
L 235.632912 170.799158 
L 235.931508 178.192215 
L 236.230103 172.069184 
L 236.528698 182.323546 
L 237.125889 178.420818 
L 237.424484 173.103684 
L 237.72308 170.467954 
L 238.021675 176.483218 
L 238.32027 185.26523 
L 238.618866 169.065179 
L 238.917461 179.450457 
L 239.216056 174.157197 
L 239.813247 180.932033 
L 240.111842 189.451729 
L 241.007628 167.759188 
L 241.306223 170.321563 
L 241.604819 177.597411 
L 241.903414 167.393191 
L 242.202009 174.113177 
L 242.500605 185.462997 
L 242.7992 177.451681 
L 243.097795 176.133396 
L 243.396391 183.056596 
L 243.694986 184.686728 
L 243.993581 188.97934 
L 244.292177 177.838639 
L 244.590772 176.123113 
L 244.889367 192.779976 
L 245.486558 175.681942 
L 245.785153 194.465035 
L 246.083749 178.500371 
L 246.382344 186.002455 
L 246.680939 181.885276 
L 246.979534 189.548386 
L 247.27813 182.160597 
L 247.576725 190.909826 
L 247.87532 183.788935 
L 248.173916 188.833559 
L 248.472511 179.106171 
L 248.771106 194.700663 
L 249.069702 186.748881 
L 249.368297 193.228313 
L 249.666892 185.16697 
L 249.965488 184.294667 
L 250.264083 191.516962 
L 250.562678 168.063526 
L 250.861274 166.916614 
L 251.159869 179.103282 
L 251.458464 179.918138 
L 252.055655 196.976428 
L 252.35425 185.299489 
L 252.652846 181.659065 
L 252.951441 186.707444 
L 253.250036 177.823965 
L 253.548631 198.515146 
L 253.847227 166.914934 
L 254.145822 194.698092 
L 254.444417 185.41955 
L 254.743013 200.471988 
L 255.041608 170.214611 
L 255.340203 183.362042 
L 255.638799 181.751483 
L 255.937394 193.23628 
L 256.235989 183.973174 
L 256.534585 190.777154 
L 256.83318 190.337293 
L 257.131775 165.110516 
L 257.430371 177.275001 
L 257.728966 183.07295 
L 258.027561 185.842854 
L 258.326157 192.350958 
L 258.624752 172.243662 
L 258.923347 184.949425 
L 259.221943 179.99092 
L 259.520538 209.623739 
L 260.416324 190.03326 
L 260.714919 194.177737 
L 261.013514 168.049718 
L 261.610705 200.654446 
L 261.9093 197.36224 
L 262.207896 198.716973 
L 262.506491 186.929264 
L 262.805086 183.801126 
L 263.103682 177.753665 
L 263.402277 200.238333 
L 263.700872 203.004278 
L 264.298063 199.350682 
L 264.596658 179.408409 
L 264.895254 176.906649 
L 265.193849 199.3777 
L 265.492444 187.125988 
L 265.79104 196.496161 
L 266.089635 182.805875 
L 266.38823 177.407953 
L 266.686825 204.532319 
L 266.985421 198.37802 
L 267.284016 195.240452 
L 267.582611 190.844502 
L 267.881207 189.132781 
L 268.179802 190.886613 
L 268.478397 194.855505 
L 268.776993 195.15465 
L 269.075588 204.827252 
L 269.374183 183.510673 
L 269.672779 185.733267 
L 269.971374 183.824072 
L 270.269969 202.376653 
L 270.568565 197.659821 
L 270.86716 201.903181 
L 271.165755 202.102693 
L 271.464351 181.708239 
L 271.762946 202.332569 
L 272.061541 194.153939 
L 272.360136 208.333414 
L 272.658732 199.33905 
L 272.957327 197.038965 
L 273.255922 184.872724 
L 273.554518 184.952174 
L 273.853113 217.249166 
L 274.151708 179.135658 
L 274.450304 183.267612 
L 274.748899 192.108292 
L 275.047494 190.808791 
L 275.34609 198.992155 
L 275.644685 187.044578 
L 276.241876 205.502411 
L 276.540471 206.137386 
L 276.839066 197.963904 
L 277.137662 208.810264 
L 277.734852 198.365904 
L 278.033448 192.781974 
L 278.332043 216.741309 
L 278.630638 198.12712 
L 278.929233 213.59216 
L 279.227829 176.46082 
L 279.526424 201.321778 
L 279.825019 194.999287 
L 280.123615 201.064489 
L 280.42221 197.737731 
L 280.720805 183.605242 
L 281.019401 199.245512 
L 281.317996 196.020284 
L 281.616591 176.539927 
L 281.915187 196.340098 
L 282.213782 207.868456 
L 282.512377 209.667097 
L 282.810973 218.545097 
L 283.109568 223.396447 
L 283.408163 217.940704 
L 283.706759 220.698937 
L 284.005354 219.174403 
L 284.303949 219.811637 
L 284.602545 216.801918 
L 284.90114 221.696894 
L 285.199735 220.503047 
L 285.49833 217.018839 
L 285.796926 212.218203 
L 286.095521 213.232284 
L 286.692712 225.563478 
L 286.991307 221.88119 
L 287.289902 224.848842 
L 287.588498 214.842212 
L 287.887093 212.411523 
L 288.185688 221.960596 
L 288.484284 218.157383 
L 288.782879 218.151306 
L 289.081474 219.840259 
L 289.38007 225.625767 
L 289.678665 224.362645 
L 289.97726 226.994385 
L 290.275856 221.289587 
L 290.574451 228.034828 
L 290.873046 219.929693 
L 291.171642 227.459272 
L 291.768832 216.839168 
L 292.067427 218.186227 
L 292.366023 209.888351 
L 292.963213 223.644 
L 293.261809 223.85242 
L 293.560404 221.008302 
L 293.858999 222.349838 
L 294.157595 220.426803 
L 294.45619 225.603604 
L 294.754785 218.969439 
L 295.053381 228.289909 
L 295.351976 227.377913 
L 295.650571 229.54061 
L 295.949167 227.091563 
L 296.247762 228.162435 
L 296.546357 225.728418 
L 296.844953 224.292535 
L 297.143548 206.970262 
L 297.442143 219.60904 
L 297.740739 212.881424 
L 298.039334 219.938092 
L 298.337929 220.231492 
L 298.636524 235.446847 
L 298.93512 223.091549 
L 299.233715 229.992364 
L 299.53231 225.757784 
L 299.830906 224.626768 
L 300.129501 219.930692 
L 300.428096 218.731284 
L 300.726692 226.525457 
L 301.025287 224.443686 
L 301.323882 220.924627 
L 301.622478 233.221148 
L 301.921073 232.45394 
L 302.219668 232.707347 
L 302.518264 221.370354 
L 302.816859 234.507528 
L 303.115454 221.674056 
L 303.41405 226.308173 
L 303.712645 220.406225 
L 304.01124 224.226969 
L 304.309835 231.466871 
L 304.907026 238.722878 
L 305.205621 221.565042 
L 305.504217 236.416367 
L 305.802812 228.078276 
L 306.101407 228.544175 
L 306.400003 219.122155 
L 307.295789 230.638958 
L 307.594384 232.077431 
L 307.892979 235.060399 
L 308.191575 231.144691 
L 308.49017 230.039954 
L 308.788765 219.860417 
L 309.385956 227.217605 
L 309.684551 226.056052 
L 309.983147 234.637897 
L 310.281742 236.000005 
L 310.580337 233.9553 
L 310.878932 239.227892 
L 311.177528 235.757313 
L 311.476123 229.651578 
L 311.774718 217.721454 
L 312.073314 225.938428 
L 312.371909 228.535521 
L 312.670504 233.505665 
L 312.9691 232.593217 
L 313.267695 230.503232 
L 313.56629 234.966841 
L 313.864886 232.603436 
L 314.163481 234.697501 
L 314.462076 235.968316 
L 314.760672 234.547463 
L 315.059267 235.967075 
L 315.656458 231.946515 
L 315.955053 238.270991 
L 316.552244 229.890006 
L 316.850839 237.750903 
L 317.149434 235.985115 
L 317.448029 221.862845 
L 317.746625 223.622308 
L 318.04522 233.635308 
L 318.343815 230.179759 
L 318.642411 230.243792 
L 318.941006 225.130839 
L 319.239601 232.820771 
L 319.538197 235.337821 
L 319.836792 239.759981 
L 320.135387 235.000273 
L 320.433983 238.411216 
L 320.732578 233.987586 
L 321.329769 245.811897 
L 321.628364 243.452691 
L 321.926959 235.781442 
L 322.225555 239.330549 
L 322.52415 233.148589 
L 322.822745 240.537478 
L 323.121341 238.360374 
L 323.419936 210.664042 
L 323.718531 231.624633 
L 324.017126 230.849923 
L 324.315722 239.126444 
L 324.614317 239.454249 
L 324.912912 227.572187 
L 325.211508 230.904875 
L 325.510103 240.918747 
L 325.808698 234.899951 
L 326.107294 242.970827 
L 326.405889 242.402284 
L 326.704484 229.73694 
L 327.00308 232.009879 
L 327.301675 236.874579 
L 327.60027 235.043021 
L 328.197461 241.229913 
L 328.496056 238.634984 
L 328.794652 245.24194 
L 329.093247 241.51427 
L 329.391842 241.668966 
L 329.690438 245.084732 
L 329.989033 240.917761 
L 330.287628 243.0589 
L 330.586223 237.304978 
L 330.884819 245.863489 
L 331.183414 225.228342 
L 331.482009 234.563855 
L 331.780605 234.775093 
L 332.0792 242.046665 
L 332.377795 242.165134 
L 332.676391 246.931472 
L 332.974986 240.530765 
L 333.273581 241.961812 
L 333.572177 242.107465 
L 333.870772 236.856196 
L 334.169367 237.61685 
L 334.467963 231.317088 
L 334.766558 233.639292 
L 335.065153 245.823815 
L 335.363749 245.075047 
L 335.662344 245.097681 
L 335.960939 244.444119 
L 336.259534 239.214103 
L 336.55813 246.294779 
L 336.856725 244.13072 
L 337.15532 246.159657 
L 337.453916 240.221502 
L 337.752511 239.53405 
L 338.051106 243.953003 
L 338.349702 244.071701 
L 338.648297 232.059391 
L 338.946892 228.764799 
L 339.245488 238.81216 
L 339.544083 238.753873 
L 339.842678 241.956817 
L 340.439869 236.712191 
L 340.738464 242.613229 
L 341.03706 239.10206 
L 341.335655 244.09557 
L 341.63425 255.523835 
L 342.231441 244.643986 
L 342.530036 248.918851 
L 342.828631 249.597478 
L 343.127227 223.054369 
L 343.425822 241.4843 
L 343.724417 241.651161 
L 344.023013 240.186905 
L 344.321608 239.713275 
L 344.620203 245.70777 
L 344.918799 243.96606 
L 345.217394 250.787557 
L 345.515989 250.293329 
L 345.814585 247.11015 
L 346.11318 228.820381 
L 346.411775 247.190816 
L 346.710371 248.20064 
L 347.008966 251.189392 
L 347.307561 245.458887 
L 347.606157 248.394615 
L 347.904752 247.00498 
L 348.203347 249.974687 
L 348.800538 243.228326 
L 349.099133 236.064973 
L 349.397728 237.600694 
L 349.696324 235.752484 
L 349.994919 244.119368 
L 350.293514 246.458185 
L 350.59211 250.691836 
L 350.890705 246.399835 
L 351.1893 247.860922 
L 351.487896 250.008692 
L 351.786491 229.171463 
L 352.085086 244.314635 
L 352.383682 217.730032 
L 352.682277 245.055754 
L 352.980872 230.152811 
L 353.279468 225.709507 
L 353.578063 238.624764 
L 353.876658 229.151775 
L 354.175254 225.100792 
L 354.473849 232.604524 
L 354.772444 234.53405 
L 355.07104 229.2512 
L 355.369635 242.148832 
L 355.66823 225.185385 
L 355.966825 239.937017 
L 356.265421 220.592405 
L 356.564016 230.918442 
L 356.862611 234.796238 
L 357.161207 244.134455 
L 357.459802 242.903346 
L 357.758397 244.806725 
L 358.056993 239.998224 
L 358.355588 222.999869 
L 358.952779 244.496806 
L 359.549969 233.672724 
L 359.848565 244.477519 
L 360.14716 244.451577 
L 360.445755 231.278515 
L 360.744351 233.618719 
L 361.042946 223.587222 
L 361.341541 241.042199 
L 361.640136 234.668338 
L 361.938732 234.162956 
L 362.237327 239.079337 
L 362.535922 225.36776 
L 362.834518 233.588991 
L 363.133113 226.089159 
L 363.431708 230.240617 
L 363.730304 238.775578 
L 364.028899 236.216614 
L 364.327494 239.214567 
L 364.62609 237.550113 
L 364.924685 232.903797 
L 365.22328 231.559334 
L 365.521876 238.673977 
L 365.820471 249.547323 
L 366.119066 234.590294 
L 366.417662 225.495621 
L 366.716257 243.368634 
L 367.014852 237.060899 
L 367.313448 246.33033 
L 367.612043 226.170252 
L 368.209233 246.28022 
L 368.507829 233.534013 
L 369.105019 254.45479 
L 369.70221 240.814792 
L 370.000805 212.666196 
L 370.299401 243.472207 
L 370.597996 218.57643 
L 370.896591 248.201371 
L 371.195187 240.542868 
L 371.493782 240.326583 
L 371.792377 233.873418 
L 372.090973 247.488301 
L 372.389568 236.55544 
L 372.688163 252.990737 
L 372.986759 241.694049 
L 373.285354 241.484122 
L 373.583949 250.737384 
L 373.882545 239.740312 
L 374.18114 246.444123 
L 374.479735 225.315136 
L 374.77833 251.892396 
L 375.076926 252.352632 
L 375.375521 243.097053 
L 375.674116 246.169673 
L 375.972712 258.287042 
L 376.569902 248.387609 
L 376.868498 239.735222 
L 377.167093 241.524566 
L 377.465688 262.183343 
L 377.764284 222.654132 
L 378.062879 251.82751 
L 378.361474 243.082698 
L 378.66007 260.237995 
L 378.958665 242.778519 
L 379.25726 239.718779 
L 379.555856 258.959642 
L 379.854451 241.909971 
L 380.153046 254.823199 
L 380.451642 250.609649 
L 380.750237 258.23551 
L 381.048832 233.81867 
L 381.347427 244.612998 
L 381.646023 239.368034 
L 381.944618 242.585829 
L 382.541809 236.181394 
L 382.840404 237.982949 
L 383.138999 248.208746 
L 383.437595 246.639154 
L 383.73619 236.292565 
L 384.034785 249.04427 
L 384.333381 249.673753 
L 384.930571 257.051494 
L 385.229167 237.33869 
L 385.527762 239.041533 
L 385.826357 238.951335 
L 386.124953 260.761487 
L 386.423548 243.04128 
L 386.722143 254.335945 
L 387.020739 249.247389 
L 387.319334 249.497143 
L 387.617929 255.461355 
L 388.21512 250.89925 
L 388.513715 261.354017 
L 388.81231 248.178044 
L 389.110906 256.882304 
L 389.409501 236.098329 
L 389.708096 224.149402 
L 390.006692 236.929111 
L 390.305287 255.433663 
L 390.603882 230.273438 
L 391.201073 273.743832 
L 391.499668 248.418464 
L 391.798264 258.12444 
L 392.096859 256.02827 
L 392.395454 263.055699 
L 392.69405 261.815312 
L 392.992645 257.299607 
L 393.589835 272.334 
L 393.888431 267.247897 
L 394.187026 271.546808 
L 394.485621 258.923675 
L 394.784217 263.749266 
L 395.381407 268.610412 
L 395.680003 265.214582 
L 395.978598 249.414925 
L 396.277193 257.680698 
L 396.575789 271.769357 
L 396.874384 263.505461 
L 397.172979 264.773121 
L 397.471575 267.000147 
L 397.77017 273.509658 
L 398.068765 258.771273 
L 398.367361 268.066905 
L 398.665956 272.302891 
L 398.964551 255.570675 
L 399.263147 268.507478 
L 399.561742 266.589136 
L 399.860337 253.920041 
L 400.158932 266.545784 
L 400.457528 263.460458 
L 400.756123 252.798124 
L 401.054718 270.39012 
L 401.353314 257.616277 
L 401.950504 269.038549 
L 402.2491 257.136245 
L 402.547695 266.930441 
L 402.84629 266.138391 
L 403.144886 271.361675 
L 403.443481 271.275113 
L 403.742076 270.816389 
L 404.339267 261.197836 
L 404.637862 264.575245 
L 404.936458 266.660251 
L 405.235053 264.438106 
L 405.533648 268.397739 
L 405.832244 262.701607 
L 406.130839 271.089869 
L 406.429434 268.572882 
L 406.728029 270.485663 
L 407.026625 265.534172 
L 407.32522 272.025711 
L 407.623815 273.769632 
L 407.922411 273.16206 
L 408.221006 264.278476 
L 408.519601 278.688813 
L 408.818197 254.976742 
L 409.116792 275.608784 
L 409.415387 273.501573 
L 409.713983 266.59926 
L 410.012578 265.873918 
L 410.311173 244.192035 
L 410.609769 241.61477 
L 410.908364 254.598757 
L 411.206959 260.610709 
L 411.505555 260.49803 
L 411.80415 267.949669 
L 412.102745 232.555159 
L 412.401341 265.412566 
L 412.699936 263.76129 
L 412.998531 276.70927 
L 413.297126 247.276134 
L 413.894317 271.951796 
L 414.192912 271.197613 
L 414.491508 268.364838 
L 414.790103 269.863904 
L 415.088698 279.04636 
L 415.685889 267.370748 
L 415.984484 278.986075 
L 416.28308 266.497844 
L 416.581675 267.509427 
L 417.178866 276.956931 
L 417.477461 267.119743 
L 417.776056 276.17511 
L 418.074652 270.691957 
L 418.373247 268.513173 
L 418.671842 278.683417 
L 418.970438 269.691083 
L 419.269033 274.572041 
L 419.567628 270.43672 
L 419.866223 281.07517 
L 420.164819 274.105152 
L 420.463414 277.225422 
L 420.762009 270.718316 
L 421.060605 275.374619 
L 421.3592 268.350441 
L 421.657795 268.286259 
L 421.956391 279.751199 
L 422.254986 279.463008 
L 422.553581 269.00652 
L 422.852177 280.486735 
L 423.150772 271.284938 
L 423.449367 270.126878 
L 423.747963 276.335296 
L 424.046558 267.848342 
L 424.345153 281.356852 
L 424.643749 278.042378 
L 424.942344 261.662122 
L 425.539534 278.499728 
L 425.83813 262.411443 
L 426.136725 274.04881 
L 426.43532 262.708537 
L 426.733916 276.088202 
L 427.032511 266.880522 
L 427.331106 280.371301 
L 427.928297 268.413189 
L 428.226892 281.794505 
L 428.525488 267.213889 
L 428.824083 277.62908 
L 429.421274 274.717949 
L 429.719869 275.768595 
L 430.018464 279.821586 
L 430.31706 281.533738 
L 430.615655 279.319035 
L 430.91425 280.137008 
L 431.511441 265.275369 
L 431.810036 281.70842 
L 432.108631 276.191781 
L 432.407227 253.733778 
L 432.705822 280.126315 
L 433.004417 284.944389 
L 433.303013 212.582323 
L 433.900203 284.596756 
L 434.198799 283.71404 
L 434.497394 245.858259 
L 434.795989 266.850847 
L 435.094585 249.604229 
L 435.39318 283.483585 
L 435.691775 281.882402 
L 435.990371 232.688213 
L 436.288966 251.815586 
L 436.587561 282.255377 
L 436.886157 271.296885 
L 437.184752 246.567085 
L 437.483347 282.003385 
L 437.781943 286.769109 
L 438.080538 236.042644 
L 438.379133 275.671932 
L 438.677728 256.478726 
L 438.976324 272.702196 
L 439.274919 269.285927 
L 439.573514 231.446267 
L 439.87211 277.775124 
L 440.170705 274.555872 
L 440.4693 241.404117 
L 440.767896 275.351126 
L 441.066491 272.968377 
L 441.365086 247.823787 
L 441.663682 283.115176 
L 441.962277 276.518556 
L 442.260872 233.004927 
L 442.559468 279.655513 
L 442.858063 284.149809 
L 443.156658 276.232674 
L 443.455254 282.616837 
L 443.753849 286.39316 
L 444.052444 280.652267 
L 444.35104 270.41863 
L 444.649635 282.514813 
L 444.94823 283.565666 
L 445.246825 269.92424 
L 445.545421 283.456379 
L 445.844016 282.8927 
L 446.142611 278.81726 
L 446.441207 254.1317 
L 446.739802 284.397719 
L 447.038397 282.120191 
L 447.336993 268.660363 
L 447.934183 282.488673 
L 448.232779 285.372648 
L 448.531374 265.598215 
L 448.829969 282.86412 
L 449.128565 260.763046 
L 449.725755 288.673519 
L 450.024351 267.064717 
L 450.322946 219.52614 
L 450.920136 287.379767 
L 451.218732 285.826737 
L 451.517327 286.029476 
L 451.815922 230.959102 
L 452.114518 268.06588 
L 452.711708 288.148608 
L 453.010304 282.050107 
L 453.308899 200.084955 
L 453.607494 287.321075 
L 454.204685 257.299435 
L 454.50328 257.321261 
L 454.801876 273.030017 
L 455.100471 248.004787 
L 455.399066 284.265734 
L 455.697662 284.473377 
L 455.996257 283.709191 
L 456.294852 274.966905 
L 456.593448 253.561247 
L 456.892043 287.505467 
L 457.190638 287.303288 
L 457.489233 285.820108 
L 457.787829 286.526599 
L 458.086424 278.540869 
L 458.385019 280.354534 
L 458.683615 260.853464 
L 458.98221 285.509595 
L 459.280805 286.701168 
L 459.579401 262.716497 
L 459.877996 213.653341 
L 460.176591 289.692696 
L 460.475187 287.940619 
L 460.773782 267.371145 
L 461.072377 279.50657 
L 461.370973 284.468751 
L 461.669568 278.366534 
L 461.968163 275.601654 
L 462.266759 285.743537 
L 462.565354 281.273227 
L 462.863949 281.989676 
L 463.162545 288.659192 
L 463.46114 271.91601 
L 463.759735 265.46524 
L 464.05833 267.448846 
L 464.356926 282.719084 
L 464.655521 269.756016 
L 464.954116 282.661583 
L 465.252712 288.72206 
L 465.551307 285.008992 
L 465.849902 286.202029 
L 466.148498 288.817467 
L 466.447093 265.908817 
L 466.745688 256.980475 
L 467.044284 289.225989 
L 467.342879 290.961775 
L 467.641474 259.27756 
L 467.94007 250.887268 
L 468.238665 278.586127 
L 468.53726 290.916738 
L 468.835856 270.56776 
L 469.134451 286.580279 
L 469.433046 290.257608 
L 469.731642 291.074732 
L 470.030237 275.42031 
L 470.328832 281.060013 
L 470.627427 281.764741 
L 470.926023 290.882774 
L 471.224618 289.051719 
L 471.523213 290.772847 
L 471.821809 287.825742 
L 472.418999 275.172076 
L 472.717595 290.894807 
L 473.01619 289.46147 
L 473.314785 291.021767 
L 473.613381 287.773436 
L 473.911976 285.770211 
L 474.210571 288.56989 
L 474.509167 288.124281 
L 474.807762 290.666455 
L 475.106357 283.516406 
L 475.404953 261.440365 
L 475.703548 286.207681 
L 476.002143 294.398326 
L 476.300739 290.488964 
L 476.599334 201.5451 
L 476.897929 289.135681 
L 477.196524 286.152406 
L 477.793715 294.200505 
L 478.09231 286.552338 
L 478.390906 289.1312 
L 478.689501 292.694185 
L 478.988096 283.253683 
L 479.286692 290.55165 
L 479.585287 291.285514 
L 479.883882 287.098671 
L 480.182478 293.007878 
L 480.481073 295.008975 
L 480.779668 292.938655 
L 481.078264 294.927706 
L 481.376859 287.79918 
L 481.675454 292.933916 
L 481.97405 292.341291 
L 482.272645 284.907813 
L 482.57124 283.607037 
L 482.869835 280.786966 
L 483.168431 283.388099 
L 483.467026 287.31146 
L 483.765621 293.688641 
L 484.064217 294.522096 
L 484.362812 294.104903 
L 484.661407 291.53469 
L 484.960003 290.835389 
L 485.258598 273.873857 
L 485.557193 291.675251 
L 485.855789 288.975477 
L 486.154384 283.10265 
L 486.452979 293.625824 
L 486.751575 293.945767 
L 487.348765 291.351359 
L 487.647361 292.396854 
L 487.945956 268.477018 
L 488.244551 275.49733 
L 488.543147 294.035 
L 488.841742 294.442719 
L 489.140337 294.474244 
L 489.438932 270.047606 
L 489.737528 293.138253 
L 490.036123 278.798263 
L 490.334718 283.00445 
L 490.633314 236.497192 
L 490.931909 254.43451 
L 491.230504 292.926737 
L 491.5291 293.291927 
L 491.827695 291.82769 
L 492.12629 295.658496 
L 492.424886 295.455764 
L 492.723481 288.136944 
L 493.022076 285.779064 
L 493.320672 289.520813 
L 493.619267 270.947505 
L 493.917862 213.249095 
L 494.216458 295.371934 
L 494.515053 294.587861 
L 494.813648 202.385243 
L 495.112244 295.716481 
L 495.410839 292.425227 
L 495.709434 277.785958 
L 496.008029 296.245808 
L 496.60522 292.704024 
L 496.903815 279.317813 
L 497.202411 284.470217 
L 497.501006 283.255067 
L 497.799601 287.688477 
L 498.098197 296.010631 
L 498.396792 296.522339 
L 498.695387 294.948706 
L 498.993983 282.682954 
L 499.292578 293.871829 
L 499.591173 291.595969 
L 499.889769 295.647119 
L 500.188364 296.7521 
L 500.486959 292.790145 
L 500.785555 269.332066 
L 501.08415 296.936044 
L 501.382745 297.164321 
L 501.681341 275.602545 
L 502.278531 297.973676 
L 502.577126 296.986012 
L 502.875722 284.393042 
L 503.174317 279.669433 
L 503.472912 295.263979 
L 503.771508 297.567219 
L 504.070103 293.726128 
L 504.368698 286.835227 
L 504.667294 295.471613 
L 504.965889 291.58094 
L 505.56308 275.540761 
L 505.861675 295.842355 
L 506.16027 295.693008 
L 506.458866 298.310193 
L 506.757461 297.876486 
L 507.056056 297.867876 
L 507.354652 252.110939 
L 507.653247 297.156783 
L 507.951842 298.595819 
L 508.250438 220.581696 
L 508.250438 220.581696 
" clip-path="url(#p857b515078)" style="fill: none; stroke: #ffa500; stroke-width: 1.5; stroke-linecap: square"/>
   </g>
   <g id="line2d_20">
    <path d="M 151.130438 94.657279 
L 151.429033 105.915763 
L 151.727628 107.929454 
L 152.324819 110.053826 
L 152.922009 111.306036 
L 154.116391 112.996261 
L 155.609367 114.23848 
L 155.907963 114.374054 
L 156.505153 114.776042 
L 157.400939 115.396235 
L 160.685488 116.948952 
L 160.984083 97.122094 
L 161.282678 113.970692 
L 161.581274 115.92541 
L 161.879869 116.572023 
L 162.178464 115.808251 
L 162.47706 119.5646 
L 162.775655 120.996238 
L 163.07425 121.822242 
L 163.372846 121.912001 
L 163.671441 119.607067 
L 164.268631 121.992533 
L 164.865822 121.190277 
L 165.164417 122.627795 
L 165.463013 122.680316 
L 165.761608 122.063279 
L 166.060203 120.882935 
L 166.358799 124.584637 
L 166.657394 123.181378 
L 166.955989 122.924001 
L 167.55318 125.179658 
L 167.851775 126.261054 
L 168.150371 124.283264 
L 168.448966 125.6332 
L 168.747561 125.448922 
L 169.046157 118.52394 
L 169.643347 125.44359 
L 169.941943 126.22948 
L 170.240538 123.953894 
L 170.539133 124.31746 
L 171.136324 124.694886 
L 171.434919 124.630847 
L 171.733514 127.003764 
L 172.03211 121.760761 
L 172.330705 125.605049 
L 172.6293 124.729985 
L 172.927896 125.521271 
L 173.226491 124.591828 
L 173.525086 124.202757 
L 173.823682 125.780724 
L 174.122277 124.543709 
L 174.420872 124.167887 
L 174.719468 119.561074 
L 175.316658 126.656628 
L 175.913849 124.493758 
L 176.212444 125.639499 
L 176.51104 124.524378 
L 177.10823 129.483902 
L 177.406825 120.442323 
L 177.705421 124.407843 
L 178.004016 126.621732 
L 178.302611 123.608551 
L 178.601207 123.465698 
L 178.899802 124.828003 
L 179.198397 124.582423 
L 179.496993 125.38188 
L 179.795588 127.434182 
L 180.094183 124.577243 
L 180.392779 123.18554 
L 180.989969 127.690733 
L 181.288565 124.589257 
L 181.58716 124.925207 
L 181.885755 122.701659 
L 182.482946 126.906828 
L 182.781541 126.738484 
L 183.080136 128.6707 
L 183.378732 123.062349 
L 183.677327 127.415513 
L 183.975922 123.094279 
L 184.573113 126.162463 
L 184.871708 128.98863 
L 185.170304 129.450228 
L 185.767494 123.522038 
L 186.06609 124.758186 
L 186.364685 121.533507 
L 186.66328 125.988774 
L 186.961876 125.013248 
L 187.260471 121.824584 
L 187.857662 125.438665 
L 188.156257 126.460527 
L 188.454852 126.584647 
L 188.753448 124.530817 
L 189.052043 124.008808 
L 189.350638 127.038176 
L 189.649233 123.880094 
L 189.947829 125.346679 
L 190.246424 123.640342 
L 190.545019 122.901361 
L 190.843615 121.469518 
L 191.14221 123.593521 
L 191.440805 121.73079 
L 191.739401 121.519508 
L 192.037996 127.307122 
L 192.336591 120.747018 
L 192.635187 121.079583 
L 193.232377 125.677067 
L 193.530973 123.986053 
L 193.829568 123.433449 
L 194.128163 123.154233 
L 194.426759 124.44816 
L 194.725354 120.847276 
L 195.023949 120.275048 
L 195.322545 125.290008 
L 195.62114 126.534353 
L 195.919735 124.42683 
L 196.516926 123.512887 
L 196.815521 126.813747 
L 197.114116 121.806869 
L 197.412712 122.120408 
L 197.711307 126.006553 
L 198.009902 119.603949 
L 198.308498 123.320783 
L 198.607093 125.302684 
L 198.905688 126.254997 
L 199.204284 124.544804 
L 199.502879 127.446718 
L 199.801474 124.51566 
L 200.10007 126.576413 
L 200.398665 121.221075 
L 200.69726 125.636814 
L 200.995856 120.239414 
L 201.294451 123.861946 
L 201.593046 119.783735 
L 202.787427 121.783134 
L 203.086023 123.479519 
L 203.384618 121.984592 
L 203.683213 122.390168 
L 203.981809 120.17577 
L 204.280404 120.215756 
L 204.578999 119.619845 
L 204.877595 116.478115 
L 205.17619 126.554015 
L 205.474785 127.326797 
L 205.773381 119.676273 
L 206.071976 124.879481 
L 206.370571 122.264674 
L 206.669167 121.556948 
L 207.564953 126.412231 
L 207.863548 121.985012 
L 208.162143 124.536366 
L 208.460739 124.61588 
L 208.759334 121.206668 
L 209.057929 119.619157 
L 209.356524 119.921116 
L 209.65512 119.460943 
L 209.953715 116.922468 
L 210.25231 121.941946 
L 210.550906 122.553893 
L 210.849501 122.323317 
L 211.148096 124.725951 
L 211.745287 119.642663 
L 212.043882 122.99313 
L 212.342478 118.587954 
L 212.641073 121.284452 
L 213.238264 119.608735 
L 213.536859 115.804636 
L 213.835454 122.748072 
L 214.13405 121.705529 
L 214.432645 121.696111 
L 215.029835 117.876729 
L 215.328431 117.861648 
L 215.627026 115.643368 
L 216.224217 123.028535 
L 216.522812 119.341736 
L 216.821407 122.406789 
L 217.418598 117.147483 
L 218.015789 119.918163 
L 218.314384 118.899253 
L 218.911575 124.757474 
L 219.21017 128.565568 
L 219.508765 122.838111 
L 219.807361 124.59646 
L 220.404551 119.436636 
L 220.703147 119.112063 
L 221.001742 118.968981 
L 221.300337 127.320905 
L 221.598932 121.939185 
L 221.897528 125.43192 
L 222.196123 120.714833 
L 222.494718 119.124573 
L 222.793314 121.898167 
L 223.091909 120.323727 
L 223.390504 121.248729 
L 223.6891 121.450696 
L 223.987695 122.312156 
L 224.28629 123.918285 
L 224.584886 119.379317 
L 224.883481 122.17802 
L 225.182076 117.136895 
L 225.480672 123.523908 
L 226.077862 115.419028 
L 226.376458 116.564069 
L 226.675053 108.231412 
L 226.973648 119.682509 
L 227.272244 122.215652 
L 227.570839 115.776308 
L 227.869434 126.881808 
L 228.168029 114.339171 
L 228.466625 118.641163 
L 228.76522 118.987765 
L 229.063815 118.322533 
L 229.661006 114.219073 
L 230.258197 118.071518 
L 230.556792 124.701211 
L 230.855387 117.149328 
L 231.153983 120.978243 
L 231.452578 130.127983 
L 231.751173 125.13299 
L 232.049769 114.10311 
L 232.348364 119.303378 
L 232.646959 118.237534 
L 232.945555 118.38745 
L 233.24415 120.927707 
L 233.542745 122.305067 
L 233.841341 124.754585 
L 234.139936 115.392761 
L 234.438531 115.266337 
L 234.737126 116.791858 
L 235.035722 113.629079 
L 235.334317 118.779574 
L 235.632912 114.528794 
L 235.931508 118.928155 
L 236.230103 115.188885 
L 236.528698 121.742855 
L 236.827294 120.616522 
L 237.125889 116.344323 
L 237.424484 116.154 
L 237.72308 110.545102 
L 238.32027 124.087737 
L 238.618866 110.7467 
L 238.917461 117.642017 
L 239.216056 115.254171 
L 239.813247 116.191556 
L 240.111842 124.010666 
L 240.410438 118.328234 
L 241.007628 111.193026 
L 241.306223 110.32141 
L 241.604819 114.051937 
L 241.903414 106.813378 
L 242.500605 120.063867 
L 242.7992 115.857731 
L 243.097795 114.918475 
L 243.396391 117.265164 
L 243.694986 120.609993 
L 243.993581 121.534894 
L 244.292177 114.015909 
L 244.590772 114.380799 
L 244.889367 124.270551 
L 245.187963 116.889876 
L 245.486558 113.111396 
L 245.785153 126.560302 
L 246.083749 112.462149 
L 246.382344 119.937316 
L 246.680939 114.038893 
L 246.979534 120.551134 
L 247.27813 113.048566 
L 247.576725 119.47101 
L 247.87532 114.323963 
L 248.173916 117.73245 
L 248.472511 113.900672 
L 248.771106 122.782484 
L 249.069702 119.441192 
L 249.368297 120.711104 
L 249.965488 116.245465 
L 250.264083 121.061219 
L 250.562678 103.627043 
L 250.861274 102.984807 
L 251.75706 118.481485 
L 252.055655 122.592186 
L 252.652846 109.430858 
L 252.951441 118.837416 
L 253.250036 110.124534 
L 253.548631 125.432747 
L 253.847227 101.255538 
L 254.145822 121.152556 
L 254.444417 112.286309 
L 254.743013 123.51332 
L 255.041608 103.616798 
L 255.340203 111.753545 
L 255.638799 111.356318 
L 255.937394 119.240408 
L 256.235989 109.740631 
L 256.534585 116.611004 
L 256.83318 115.355511 
L 257.131775 97.660597 
L 257.430371 107.364722 
L 258.027561 112.011076 
L 258.326157 115.950175 
L 258.624752 103.372427 
L 258.923347 111.868044 
L 259.221943 106.877137 
L 259.520538 126.559296 
L 260.117728 120.23356 
L 260.416324 113.530895 
L 260.714919 117.267556 
L 261.013514 98.627138 
L 261.31211 112.092346 
L 261.610705 119.465754 
L 261.9093 118.05304 
L 262.207896 118.752595 
L 262.506491 109.827857 
L 263.103682 105.101378 
L 263.402277 117.313727 
L 263.700872 122.078653 
L 263.999468 119.171992 
L 264.298063 119.516685 
L 264.596658 104.620971 
L 264.895254 103.146865 
L 265.193849 118.837619 
L 265.492444 109.528571 
L 265.79104 114.947427 
L 266.38823 103.682899 
L 266.686825 120.260438 
L 266.985421 115.504104 
L 267.284016 114.68515 
L 267.881207 111.413255 
L 268.179802 109.907129 
L 268.478397 113.694187 
L 268.776993 113.134151 
L 269.075588 119.873366 
L 269.374183 105.737912 
L 269.672779 107.401552 
L 269.971374 103.613324 
L 270.269969 115.983073 
L 270.568565 113.738551 
L 270.86716 115.299438 
L 271.165755 116.069395 
L 271.464351 104.533172 
L 271.762946 120.050326 
L 272.061541 110.655579 
L 272.360136 118.104976 
L 272.658732 113.38668 
L 272.957327 112.422353 
L 273.255922 104.860532 
L 273.554518 104.50833 
L 273.853113 125.830191 
L 274.151708 100.148472 
L 274.748899 107.543756 
L 275.047494 107.600745 
L 275.34609 113.865827 
L 275.644685 104.991359 
L 276.241876 118.15597 
L 276.540471 117.336915 
L 276.839066 108.657465 
L 277.137662 116.083942 
L 277.436257 116.753679 
L 278.033448 107.638797 
L 278.332043 122.865383 
L 278.630638 111.65582 
L 278.929233 120.980241 
L 279.227829 98.952742 
L 279.526424 110.855077 
L 279.825019 108.879018 
L 280.123615 112.77621 
L 280.42221 111.524305 
L 280.720805 98.723286 
L 281.019401 109.347933 
L 281.317996 108.990781 
L 281.616591 96.941838 
L 282.213782 116.569172 
L 282.512377 116.616781 
L 282.810973 118.151707 
L 283.109568 122.614661 
L 283.408163 117.068618 
L 283.706759 117.198681 
L 284.005354 117.150372 
L 284.303949 116.275931 
L 284.602545 113.348221 
L 284.90114 119.505206 
L 285.199735 115.124247 
L 285.49833 112.960182 
L 286.095521 117.041549 
L 286.394116 116.628172 
L 286.692712 121.746558 
L 286.991307 118.334814 
L 287.289902 120.292674 
L 287.588498 113.693207 
L 287.887093 113.226099 
L 288.185688 118.723528 
L 288.484284 114.671202 
L 289.081474 112.456307 
L 289.38007 120.531599 
L 289.678665 118.417955 
L 289.97726 120.665671 
L 290.275856 115.446046 
L 290.574451 119.620901 
L 290.873046 113.200761 
L 291.171642 119.973701 
L 291.470237 112.81407 
L 291.768832 112.154489 
L 292.067427 110.986413 
L 292.366023 108.220455 
L 292.963213 117.529566 
L 293.261809 117.658853 
L 293.560404 112.098811 
L 293.858999 114.250138 
L 294.157595 111.765101 
L 294.45619 117.181144 
L 294.754785 109.171419 
L 295.053381 118.539835 
L 295.351976 116.269097 
L 295.650571 117.84938 
L 295.949167 115.855415 
L 296.247762 117.033379 
L 296.546357 116.946038 
L 296.844953 114.497843 
L 297.143548 106.730059 
L 297.442143 112.257649 
L 297.740739 110.776492 
L 298.039334 113.100401 
L 298.337929 112.095082 
L 298.636524 121.644722 
L 298.93512 112.922855 
L 299.233715 116.806264 
L 299.53231 112.304075 
L 299.830906 111.890837 
L 300.129501 110.617985 
L 300.428096 113.874494 
L 300.726692 114.627258 
L 301.025287 112.837462 
L 301.323882 107.34702 
L 301.622478 115.350598 
L 301.921073 118.157332 
L 302.219668 116.925688 
L 302.518264 107.286684 
L 302.816859 120.605424 
L 303.115454 110.606188 
L 303.41405 115.038739 
L 303.712645 109.808297 
L 304.01124 110.377483 
L 304.608431 117.939062 
L 304.907026 121.395069 
L 305.205621 107.350354 
L 305.504217 120.056333 
L 305.802812 112.294721 
L 306.101407 113.276101 
L 306.400003 110.619627 
L 306.997193 112.963567 
L 307.295789 113.204235 
L 307.594384 113.851841 
L 307.892979 116.594001 
L 308.191575 111.652256 
L 308.49017 114.745804 
L 308.788765 108.501809 
L 309.087361 112.540136 
L 309.385956 112.997992 
L 309.684551 110.866875 
L 309.983147 118.060052 
L 310.281742 115.800373 
L 310.580337 115.004378 
L 310.878932 117.350927 
L 311.476123 108.333732 
L 311.774718 108.323296 
L 312.073314 112.534638 
L 312.371909 113.101533 
L 312.670504 112.866261 
L 312.9691 111.845226 
L 313.267695 109.260338 
L 313.56629 113.035229 
L 313.864886 109.638756 
L 314.163481 113.076921 
L 314.462076 112.366472 
L 314.760672 112.481009 
L 315.059267 111.345029 
L 315.357862 111.556554 
L 315.656458 109.688032 
L 315.955053 112.213845 
L 316.552244 108.349805 
L 316.850839 111.239553 
L 317.149434 115.476067 
L 317.448029 106.457078 
L 317.746625 107.041689 
L 318.04522 112.033754 
L 318.343815 110.522029 
L 318.642411 112.695957 
L 318.941006 107.764864 
L 319.239601 112.931204 
L 319.538197 110.625048 
L 319.836792 113.429122 
L 320.135387 111.068893 
L 320.433983 111.394331 
L 320.732578 109.06439 
L 321.031173 115.593252 
L 321.329769 118.979989 
L 321.628364 115.600162 
L 321.926959 109.437222 
L 322.225555 112.674615 
L 322.52415 106.453859 
L 322.822745 112.878517 
L 323.121341 109.86881 
L 323.419936 99.625457 
L 323.718531 110.368116 
L 324.017126 109.575557 
L 324.315722 113.192005 
L 324.614317 111.145811 
L 324.912912 101.097922 
L 325.211508 103.354012 
L 325.510103 111.487144 
L 325.808698 106.599512 
L 326.405889 113.464985 
L 326.704484 108.673462 
L 327.00308 108.094871 
L 327.301675 111.457238 
L 327.60027 108.839477 
L 327.898866 107.772334 
L 328.197461 109.660302 
L 328.496056 109.093114 
L 328.794652 113.569291 
L 329.093247 107.886846 
L 329.391842 110.493903 
L 329.690438 111.889908 
L 329.989033 107.628412 
L 330.287628 109.853564 
L 330.586223 104.38687 
L 330.884819 113.988548 
L 331.183414 104.599247 
L 331.482009 108.592001 
L 331.780605 108.798282 
L 332.0792 106.42427 
L 332.377795 108.064837 
L 332.676391 112.181545 
L 332.974986 106.648279 
L 333.273581 106.718312 
L 333.572177 107.526563 
L 333.870772 103.062171 
L 334.169367 105.467757 
L 334.467963 105.155732 
L 334.766558 105.557058 
L 335.065153 112.012934 
L 335.363749 110.35908 
L 335.662344 111.140759 
L 336.259534 103.571454 
L 336.55813 109.125299 
L 336.856725 108.92832 
L 337.15532 108.167246 
L 337.453916 104.954223 
L 337.752511 104.069767 
L 338.051106 106.641191 
L 338.349702 107.355699 
L 338.648297 101.614192 
L 338.946892 104.76964 
L 339.245488 110.270683 
L 339.842678 108.51927 
L 340.141274 108.461174 
L 340.439869 108.723502 
L 340.738464 110.017416 
L 341.03706 101.073207 
L 341.63425 114.032377 
L 342.231441 106.07581 
L 342.530036 109.735667 
L 342.828631 111.018433 
L 343.127227 99.336378 
L 343.425822 111.465204 
L 343.724417 105.302849 
L 344.023013 101.979171 
L 344.321608 100.751981 
L 344.620203 103.916084 
L 344.918799 103.859731 
L 345.217394 108.548947 
L 345.515989 109.547877 
L 346.11318 101.499514 
L 346.411775 111.418384 
L 346.710371 110.265529 
L 347.008966 109.990538 
L 347.307561 104.032823 
L 347.606157 106.346665 
L 347.904752 104.348971 
L 348.203347 107.486882 
L 348.800538 102.901526 
L 349.099133 102.275949 
L 349.397728 106.525661 
L 349.696324 104.00219 
L 349.994919 107.045927 
L 350.293514 106.356388 
L 350.59211 107.447698 
L 351.1893 101.427763 
L 351.487896 108.594635 
L 351.786491 99.110231 
L 352.085086 108.760561 
L 352.383682 98.482109 
L 352.682277 110.968902 
L 353.279468 100.077039 
L 353.578063 109.515234 
L 353.876658 101.217117 
L 354.175254 99.138916 
L 354.772444 105.477709 
L 355.07104 102.636627 
L 355.369635 109.021706 
L 355.66823 99.908962 
L 355.966825 106.801657 
L 356.265421 96.76064 
L 356.862611 102.800237 
L 357.161207 109.333362 
L 357.459802 107.668487 
L 357.758397 108.268344 
L 358.056993 106.563585 
L 358.355588 98.099071 
L 358.654183 102.723357 
L 358.952779 109.95792 
L 359.251374 104.374907 
L 359.549969 102.785029 
L 360.14716 106.942118 
L 360.445755 98.356678 
L 360.744351 103.542934 
L 361.042946 96.555899 
L 361.341541 106.880166 
L 361.938732 101.078132 
L 362.237327 106.834453 
L 362.535922 96.120785 
L 362.834518 101.40128 
L 363.133113 97.780607 
L 363.730304 104.405336 
L 364.028899 103.122825 
L 364.327494 104.569009 
L 364.924685 101.228354 
L 365.22328 100.853741 
L 365.521876 99.481242 
L 365.820471 107.190918 
L 366.417662 97.735377 
L 366.716257 106.582306 
L 367.014852 104.28852 
L 367.313448 107.404886 
L 367.612043 94.532739 
L 367.910638 102.62245 
L 368.209233 105.044199 
L 368.507829 97.519691 
L 369.105019 108.847813 
L 369.403615 104.286853 
L 369.70221 104.992033 
L 370.000805 88.201302 
L 370.299401 105.905111 
L 370.597996 91.125462 
L 370.896591 107.984215 
L 371.195187 102.271762 
L 371.493782 101.74624 
L 371.792377 100.134664 
L 372.090973 108.203414 
L 372.389568 99.610656 
L 372.688163 110.267209 
L 372.986759 102.959482 
L 373.285354 104.620373 
L 373.583949 109.697832 
L 373.882545 102.113103 
L 374.18114 105.594715 
L 374.479735 91.837501 
L 374.77833 103.431324 
L 375.076926 106.976339 
L 375.375521 102.825206 
L 375.674116 100.282951 
L 375.972712 107.816419 
L 376.271307 103.570512 
L 376.569902 102.918019 
L 376.868498 103.707639 
L 377.167093 101.275671 
L 377.465688 114.925564 
L 377.764284 92.465292 
L 378.062879 106.650824 
L 378.361474 103.6921 
L 378.66007 112.037394 
L 378.958665 100.035449 
L 379.25726 97.662124 
L 379.555856 110.600588 
L 379.854451 102.134229 
L 380.153046 107.959221 
L 380.451642 101.57782 
L 380.750237 107.264222 
L 381.048832 97.627687 
L 381.347427 100.670151 
L 381.646023 102.291374 
L 381.944618 99.433442 
L 382.243213 101.226407 
L 382.541809 98.939952 
L 382.840404 99.420588 
L 383.138999 104.680352 
L 383.437595 105.158494 
L 383.73619 98.08721 
L 384.034785 104.422643 
L 384.333381 103.244616 
L 384.930571 109.504506 
L 385.229167 99.220275 
L 385.527762 99.645272 
L 385.826357 97.737922 
L 386.124953 111.822726 
L 386.423548 97.969186 
L 386.722143 104.027147 
L 387.020739 100.886677 
L 387.319334 101.790477 
L 387.617929 106.866638 
L 387.916524 104.737392 
L 388.21512 101.47046 
L 388.513715 107.333352 
L 388.81231 100.467903 
L 389.110906 106.464103 
L 389.409501 95.249615 
L 389.708096 89.174791 
L 390.305287 106.191187 
L 390.603882 93.580273 
L 390.902478 105.777962 
L 391.201073 110.884106 
L 391.499668 94.862912 
L 391.798264 105.168102 
L 392.096859 101.515308 
L 392.395454 103.121107 
L 392.992645 93.765824 
L 393.589835 105.684652 
L 393.888431 99.443432 
L 394.187026 106.36877 
L 394.485621 94.719944 
L 395.082812 103.050717 
L 395.381407 102.045781 
L 395.680003 98.661779 
L 395.978598 96.757688 
L 396.575789 111.521226 
L 396.874384 101.446598 
L 397.471575 98.80322 
L 397.77017 105.114104 
L 398.068765 93.457668 
L 398.367361 100.586895 
L 398.665956 103.008886 
L 398.964551 90.045681 
L 399.263147 100.340245 
L 399.561742 100.256353 
L 399.860337 97.378505 
L 400.158932 105.819132 
L 400.756123 95.412716 
L 401.054718 103.387164 
L 401.353314 92.8382 
L 401.651909 95.579049 
L 401.950504 102.179229 
L 402.2491 90.040031 
L 402.547695 99.058065 
L 402.84629 98.46643 
L 403.144886 103.169288 
L 403.443481 102.183072 
L 403.742076 101.586626 
L 404.040672 98.930585 
L 404.339267 99.536398 
L 404.637862 99.408816 
L 404.936458 100.663571 
L 405.235053 97.970306 
L 405.533648 99.404973 
L 405.832244 95.249386 
L 406.130839 101.085717 
L 406.429434 96.997427 
L 406.728029 97.582712 
L 407.026625 94.897375 
L 407.32522 100.609408 
L 407.623815 101.747398 
L 407.922411 101.926166 
L 408.221006 94.685354 
L 408.519601 107.213253 
L 408.818197 94.432685 
L 409.116792 110.224525 
L 409.415387 102.345181 
L 409.713983 99.314298 
L 410.012578 100.616331 
L 410.311173 94.658119 
L 410.609769 93.825205 
L 410.908364 101.693884 
L 411.206959 103.256171 
L 411.505555 104.016953 
L 411.80415 107.469893 
L 412.102745 89.055113 
L 412.401341 102.091672 
L 412.699936 102.086352 
L 412.998531 111.569179 
L 413.297126 93.759282 
L 413.595722 101.183036 
L 413.894317 103.11608 
L 414.192912 97.536642 
L 414.491508 94.546026 
L 414.790103 95.917799 
L 415.088698 105.79191 
L 415.685889 92.617194 
L 415.984484 104.523907 
L 416.28308 90.085973 
L 417.178866 102.815203 
L 417.477461 92.592632 
L 417.776056 100.229577 
L 418.373247 93.75577 
L 418.671842 105.056556 
L 418.970438 94.010526 
L 419.269033 98.891528 
L 419.567628 94.732568 
L 419.866223 104.432366 
L 420.164819 96.435584 
L 420.463414 102.194233 
L 420.762009 96.928119 
L 421.060605 95.749862 
L 421.3592 92.448137 
L 421.657795 92.067161 
L 421.956391 103.916211 
L 422.254986 102.015008 
L 422.553581 92.976942 
L 422.852177 101.644557 
L 423.150772 94.787852 
L 423.449367 94.4743 
L 423.747963 100.88842 
L 424.046558 91.368306 
L 424.345153 105.385112 
L 424.643749 99.066312 
L 424.942344 87.625892 
L 425.240939 99.872959 
L 425.539534 102.412007 
L 425.83813 90.960477 
L 426.136725 102.526328 
L 426.43532 95.008959 
L 426.733916 102.486774 
L 427.032511 89.453549 
L 427.331106 103.409218 
L 427.928297 91.328218 
L 428.226892 102.880133 
L 428.525488 89.394168 
L 428.824083 97.719724 
L 429.421274 95.757956 
L 429.719869 96.253444 
L 430.018464 100.09791 
L 430.31706 100.408408 
L 430.615655 100.894415 
L 430.91425 101.627096 
L 431.511441 88.525162 
L 431.810036 105.394492 
L 432.407227 89.829944 
L 432.705822 105.400422 
L 433.004417 109.785224 
L 433.303013 75.842663 
L 433.900203 111.640204 
L 434.198799 110.474687 
L 434.497394 89.332827 
L 434.795989 102.229473 
L 435.094585 93.925438 
L 435.39318 109.8879 
L 435.691775 108.611408 
L 435.990371 85.205085 
L 436.288966 95.04383 
L 436.587561 111.310401 
L 436.886157 103.327719 
L 437.184752 87.563635 
L 437.483347 109.625788 
L 437.781943 111.359257 
L 438.080538 86.693356 
L 438.379133 106.773621 
L 438.677728 97.158721 
L 438.976324 104.646067 
L 439.274919 101.872155 
L 439.573514 83.656212 
L 439.87211 108.493511 
L 440.170705 105.545044 
L 440.4693 87.047454 
L 440.767896 107.268803 
L 441.066491 104.837943 
L 441.365086 90.860448 
L 441.663682 110.42989 
L 441.962277 105.022564 
L 442.260872 78.952526 
L 442.559468 101.846168 
L 442.858063 102.288803 
L 443.156658 90.756117 
L 443.455254 99.325255 
L 443.753849 103.097359 
L 444.35104 88.509432 
L 444.649635 97.788344 
L 444.94823 98.121062 
L 445.246825 86.729728 
L 445.545421 99.229107 
L 445.844016 97.693635 
L 446.142611 97.23546 
L 446.441207 87.932827 
L 446.739802 102.698248 
L 447.038397 98.638006 
L 447.336993 84.978022 
L 448.232779 101.005299 
L 448.531374 84.830345 
L 448.829969 99.754197 
L 449.128565 85.224302 
L 449.725755 109.188243 
L 450.024351 98.378783 
L 450.322946 78.016986 
L 450.920136 110.167791 
L 451.218732 109.353889 
L 451.517327 109.714401 
L 451.815922 81.339633 
L 452.114518 100.01907 
L 452.711708 109.652704 
L 453.010304 107.169042 
L 453.308899 69.841958 
L 453.607494 109.746485 
L 454.204685 92.483923 
L 454.50328 93.4103 
L 454.801876 102.344964 
L 455.100471 89.488471 
L 455.399066 108.79888 
L 455.996257 107.418007 
L 456.294852 100.544771 
L 456.593448 86.111889 
L 456.892043 108.333592 
L 457.190638 109.283067 
L 457.489233 107.788433 
L 457.787829 108.56441 
L 458.086424 104.131032 
L 458.385019 105.031943 
L 458.683615 94.79027 
L 458.98221 106.447508 
L 459.280805 108.41709 
L 459.579401 94.918551 
L 459.877996 74.107679 
L 460.176591 109.185367 
L 460.475187 108.562208 
L 460.773782 97.316655 
L 461.072377 104.547209 
L 461.370973 107.81171 
L 461.669568 104.274623 
L 461.968163 103.86108 
L 462.266759 107.26496 
L 462.565354 104.245798 
L 462.863949 105.350382 
L 463.162545 108.707187 
L 463.46114 99.157076 
L 463.759735 97.890079 
L 464.05833 97.254525 
L 464.356926 106.486871 
L 464.655521 97.541453 
L 465.252712 107.705928 
L 465.551307 104.957876 
L 465.849902 105.677424 
L 466.148498 108.362914 
L 466.447093 95.150426 
L 466.745688 91.155267 
L 467.044284 108.110003 
L 467.342879 108.41569 
L 467.641474 91.866008 
L 467.94007 87.331761 
L 468.53726 102.702957 
L 468.835856 79.333858 
L 469.134451 96.07077 
L 469.731642 101.776733 
L 470.030237 81.964345 
L 470.328832 87.258457 
L 470.627427 90.481279 
L 470.926023 103.469312 
L 471.224618 95.986827 
L 471.523213 98.66995 
L 471.821809 95.756862 
L 472.120404 88.006283 
L 472.418999 85.748246 
L 472.717595 101.75987 
L 473.01619 96.435991 
L 473.314785 99.561634 
L 473.911976 92.928659 
L 474.509167 95.879798 
L 474.807762 99.889338 
L 475.404953 84.640239 
L 475.703548 101.51499 
L 476.002143 107.008626 
L 476.300739 107.903505 
L 476.599334 66.455271 
L 476.897929 105.928095 
L 477.196524 104.686143 
L 477.49512 107.68703 
L 477.793715 103.537284 
L 478.09231 93.707588 
L 478.689501 100.760457 
L 478.988096 88.544837 
L 479.286692 96.262836 
L 479.585287 98.224438 
L 479.883882 92.132523 
L 480.182478 103.965818 
L 480.481073 104.084988 
L 480.779668 99.94214 
L 481.078264 106.348535 
L 481.376859 104.812897 
L 481.97405 99.111071 
L 482.272645 90.875618 
L 482.57124 87.383023 
L 482.869835 87.29628 
L 483.168431 88.400698 
L 483.467026 92.757591 
L 483.765621 102.265157 
L 484.064217 104.990175 
L 484.362812 99.911113 
L 484.661407 100.187733 
L 484.960003 97.265978 
L 485.258598 77.729192 
L 485.557193 97.168316 
L 486.154384 88.437783 
L 486.452979 99.750493 
L 486.751575 99.737423 
L 487.05017 95.864272 
L 487.348765 106.71018 
L 487.647361 106.681546 
L 487.945956 95.671646 
L 488.244551 98.125974 
L 488.543147 106.701895 
L 488.841742 104.82052 
L 489.140337 106.449595 
L 489.438932 94.229623 
L 489.737528 106.422883 
L 490.036123 99.956915 
L 490.334718 102.60868 
L 490.633314 79.840622 
L 490.931909 87.728798 
L 491.230504 106.942436 
L 491.827695 105.266566 
L 492.12629 106.311336 
L 492.424886 106.072526 
L 492.723481 103.723967 
L 493.022076 104.195478 
L 493.320672 104.969813 
L 493.619267 94.721624 
L 493.917862 70.043212 
L 494.216458 105.902171 
L 494.515053 106.278617 
L 494.813648 62.612523 
L 495.112244 101.587288 
L 495.410839 95.641154 
L 495.709434 80.080539 
L 496.008029 102.652382 
L 496.60522 94.857134 
L 496.903815 81.70348 
L 497.202411 86.743752 
L 497.501006 83.864873 
L 497.799601 90.437398 
L 498.098197 101.823909 
L 498.695387 99.447504 
L 498.993983 84.337708 
L 499.292578 94.753134 
L 499.591173 93.622067 
L 499.889769 98.177452 
L 500.188364 101.002499 
L 500.486959 94.289131 
L 500.785555 72.56751 
L 501.08415 104.032797 
L 501.382745 105.208419 
L 501.681341 95.253229 
L 501.979936 104.187308 
L 502.278531 105.422095 
L 502.577126 105.084325 
L 502.875722 100.182248 
L 503.174317 98.287688 
L 503.472912 103.847552 
L 503.771508 101.542364 
L 504.070103 94.156345 
L 504.368698 89.694205 
L 504.667294 98.115691 
L 504.965889 91.708685 
L 505.264484 81.277554 
L 505.56308 77.423352 
L 505.861675 98.732691 
L 506.16027 99.371312 
L 506.458866 103.460671 
L 506.757461 103.677732 
L 507.056056 104.863243 
L 507.354652 83.35872 
L 507.653247 105.322117 
L 507.951842 104.817899 
L 508.250438 69.443979 
L 508.250438 69.443979 
" clip-path="url(#p857b515078)" style="fill: none; stroke: #008000; stroke-width: 1.5; stroke-linecap: square"/>
   </g>
   <g id="patch_3">
    <path d="M 151.130438 311.6435 
L 151.130438 45.5315 
" style="fill: none; stroke: #000000; stroke-width: 0.8; stroke-linejoin: miter; stroke-linecap: square"/>
   </g>
   <g id="patch_4">
    <path d="M 508.250438 311.6435 
L 508.250438 45.5315 
" style="fill: none; stroke: #000000; stroke-width: 0.8; stroke-linejoin: miter; stroke-linecap: square"/>
   </g>
   <g id="patch_5">
    <path d="M 151.130438 311.6435 
L 508.250438 311.6435 
" style="fill: none; stroke: #000000; stroke-width: 0.8; stroke-linejoin: miter; stroke-linecap: square"/>
   </g>
   <g id="patch_6">
    <path d="M 151.130438 45.5315 
L 508.250438 45.5315 
" style="fill: none; stroke: #000000; stroke-width: 0.8; stroke-linejoin: miter; stroke-linecap: square"/>
   </g>
   <g id="text_12">
    <!-- Loss of the 14_05_25_CINIC10_model_(1024+512+1)_1_ct -->
    <g transform="translate(7.2 25.5315) scale(0.264 -0.264)">
     <defs>
      <path id="TimesNewRomanPSMT-68" d="M 1041 4444 
L 1041 2350 
Q 1388 2731 1591 2839 
Q 1794 2947 1997 2947 
Q 2241 2947 2416 2812 
Q 2591 2678 2675 2391 
Q 2734 2191 2734 1659 
L 2734 647 
Q 2734 375 2778 275 
Q 2809 200 2884 156 
Q 2959 113 3159 113 
L 3159 0 
L 1753 0 
L 1753 113 
L 1819 113 
Q 2019 113 2097 173 
Q 2175 234 2206 353 
Q 2216 403 2216 647 
L 2216 1659 
Q 2216 2128 2167 2275 
Q 2119 2422 2012 2495 
Q 1906 2569 1756 2569 
Q 1603 2569 1437 2487 
Q 1272 2406 1041 2159 
L 1041 647 
Q 1041 353 1073 281 
Q 1106 209 1195 161 
Q 1284 113 1503 113 
L 1503 0 
L 84 0 
L 84 113 
Q 275 113 384 172 
Q 447 203 484 290 
Q 522 378 522 647 
L 522 3238 
Q 522 3728 498 3840 
Q 475 3953 426 3993 
Q 378 4034 297 4034 
Q 231 4034 84 3984 
L 41 4094 
L 897 4444 
L 1041 4444 
z
" transform="scale(0.015625)"/>
      <path id="TimesNewRomanPSMT-34" d="M 2978 1563 
L 2978 1119 
L 2409 1119 
L 2409 0 
L 1894 0 
L 1894 1119 
L 100 1119 
L 100 1519 
L 2066 4325 
L 2409 4325 
L 2409 1563 
L 2978 1563 
z
M 1894 1563 
L 1894 3666 
L 406 1563 
L 1894 1563 
z
" transform="scale(0.015625)"/>
      <path id="TimesNewRomanPSMT-5f" d="M 3256 -1381 
L -53 -1381 
L -53 -1119 
L 3256 -1119 
L 3256 -1381 
z
" transform="scale(0.015625)"/>
      <path id="TimesNewRomanPSMT-43" d="M 3853 4334 
L 3950 2894 
L 3853 2894 
Q 3659 3541 3300 3825 
Q 2941 4109 2438 4109 
Q 2016 4109 1675 3895 
Q 1334 3681 1139 3212 
Q 944 2744 944 2047 
Q 944 1472 1128 1050 
Q 1313 628 1683 403 
Q 2053 178 2528 178 
Q 2941 178 3256 354 
Q 3572 531 3950 1056 
L 4047 994 
Q 3728 428 3303 165 
Q 2878 -97 2294 -97 
Q 1241 -97 663 684 
Q 231 1266 231 2053 
Q 231 2688 515 3219 
Q 800 3750 1298 4042 
Q 1797 4334 2388 4334 
Q 2847 4334 3294 4109 
Q 3425 4041 3481 4041 
Q 3566 4041 3628 4100 
Q 3709 4184 3744 4334 
L 3853 4334 
z
" transform="scale(0.015625)"/>
      <path id="TimesNewRomanPSMT-49" d="M 1975 116 
L 1975 0 
L 159 0 
L 159 116 
L 309 116 
Q 572 116 691 269 
Q 766 369 766 750 
L 766 3488 
Q 766 3809 725 3913 
Q 694 3991 597 4047 
Q 459 4122 309 4122 
L 159 4122 
L 159 4238 
L 1975 4238 
L 1975 4122 
L 1822 4122 
Q 1563 4122 1444 3969 
Q 1366 3869 1366 3488 
L 1366 750 
Q 1366 428 1406 325 
Q 1438 247 1538 191 
Q 1672 116 1822 116 
L 1975 116 
z
" transform="scale(0.015625)"/>
      <path id="TimesNewRomanPSMT-64" d="M 2222 322 
Q 2013 103 1813 7 
Q 1613 -88 1381 -88 
Q 913 -88 563 304 
Q 213 697 213 1313 
Q 213 1928 600 2439 
Q 988 2950 1597 2950 
Q 1975 2950 2222 2709 
L 2222 3238 
Q 2222 3728 2198 3840 
Q 2175 3953 2125 3993 
Q 2075 4034 2000 4034 
Q 1919 4034 1784 3984 
L 1744 4094 
L 2597 4444 
L 2738 4444 
L 2738 1134 
Q 2738 631 2761 520 
Q 2784 409 2836 365 
Q 2888 322 2956 322 
Q 3041 322 3181 375 
L 3216 266 
L 2366 -88 
L 2222 -88 
L 2222 322 
z
M 2222 541 
L 2222 2016 
Q 2203 2228 2109 2403 
Q 2016 2578 1861 2667 
Q 1706 2756 1559 2756 
Q 1284 2756 1069 2509 
Q 784 2184 784 1559 
Q 784 928 1059 592 
Q 1334 256 1672 256 
Q 1956 256 2222 541 
z
" transform="scale(0.015625)"/>
      <path id="TimesNewRomanPSMT-6c" d="M 1184 4444 
L 1184 647 
Q 1184 378 1223 290 
Q 1263 203 1344 158 
Q 1425 113 1647 113 
L 1647 0 
L 244 0 
L 244 113 
Q 441 113 512 153 
Q 584 194 625 287 
Q 666 381 666 647 
L 666 3247 
Q 666 3731 644 3842 
Q 622 3953 573 3993 
Q 525 4034 450 4034 
Q 369 4034 244 3984 
L 191 4094 
L 1044 4444 
L 1184 4444 
z
" transform="scale(0.015625)"/>
      <path id="TimesNewRomanPSMT-28" d="M 1988 -1253 
L 1988 -1369 
Q 1516 -1131 1200 -813 
Q 750 -359 506 256 
Q 263 872 263 1534 
Q 263 2503 741 3301 
Q 1219 4100 1988 4444 
L 1988 4313 
Q 1603 4100 1356 3731 
Q 1109 3363 987 2797 
Q 866 2231 866 1616 
Q 866 947 969 400 
Q 1050 -31 1165 -292 
Q 1281 -553 1476 -793 
Q 1672 -1034 1988 -1253 
z
" transform="scale(0.015625)"/>
      <path id="TimesNewRomanPSMT-2b" d="M 1672 441 
L 1672 2000 
L 116 2000 
L 116 2256 
L 1672 2256 
L 1672 3809 
L 1922 3809 
L 1922 2256 
L 3484 2256 
L 3484 2000 
L 1922 2000 
L 1922 441 
L 1672 441 
z
" transform="scale(0.015625)"/>
      <path id="TimesNewRomanPSMT-29" d="M 144 4313 
L 144 4444 
Q 619 4209 934 3891 
Q 1381 3434 1625 2820 
Q 1869 2206 1869 1541 
Q 1869 572 1392 -226 
Q 916 -1025 144 -1369 
L 144 -1253 
Q 528 -1038 776 -670 
Q 1025 -303 1145 264 
Q 1266 831 1266 1447 
Q 1266 2113 1163 2663 
Q 1084 3094 967 3353 
Q 850 3613 656 3853 
Q 463 4094 144 4313 
z
" transform="scale(0.015625)"/>
      <path id="TimesNewRomanPSMT-63" d="M 2631 1088 
Q 2516 522 2178 217 
Q 1841 -88 1431 -88 
Q 944 -88 581 321 
Q 219 731 219 1428 
Q 219 2103 620 2525 
Q 1022 2947 1584 2947 
Q 2006 2947 2278 2723 
Q 2550 2500 2550 2259 
Q 2550 2141 2473 2067 
Q 2397 1994 2259 1994 
Q 2075 1994 1981 2113 
Q 1928 2178 1911 2362 
Q 1894 2547 1784 2644 
Q 1675 2738 1481 2738 
Q 1169 2738 978 2506 
Q 725 2200 725 1697 
Q 725 1184 976 792 
Q 1228 400 1656 400 
Q 1963 400 2206 609 
Q 2378 753 2541 1131 
L 2631 1088 
z
" transform="scale(0.015625)"/>
     </defs>
     <use xlink:href="#TimesNewRomanPSMT-4c"/>
     <use xlink:href="#TimesNewRomanPSMT-6f" transform="translate(61.083984 0)"/>
     <use xlink:href="#TimesNewRomanPSMT-73" transform="translate(111.083984 0)"/>
     <use xlink:href="#TimesNewRomanPSMT-73" transform="translate(150 0)"/>
     <use xlink:href="#TimesNewRomanPSMT-20" transform="translate(188.916016 0)"/>
     <use xlink:href="#TimesNewRomanPSMT-6f" transform="translate(213.916016 0)"/>
     <use xlink:href="#TimesNewRomanPSMT-66" transform="translate(263.916016 0)"/>
     <use xlink:href="#TimesNewRomanPSMT-20" transform="translate(297.216797 0)"/>
     <use xlink:href="#TimesNewRomanPSMT-74" transform="translate(322.216797 0)"/>
     <use xlink:href="#TimesNewRomanPSMT-68" transform="translate(350 0)"/>
     <use xlink:href="#TimesNewRomanPSMT-65" transform="translate(400 0)"/>
     <use xlink:href="#TimesNewRomanPSMT-20" transform="translate(444.384766 0)"/>
     <use xlink:href="#TimesNewRomanPSMT-31" transform="translate(469.384766 0)"/>
     <use xlink:href="#TimesNewRomanPSMT-34" transform="translate(519.384766 0)"/>
     <use xlink:href="#TimesNewRomanPSMT-5f" transform="translate(569.384766 0)"/>
     <use xlink:href="#TimesNewRomanPSMT-30" transform="translate(619.384766 0)"/>
     <use xlink:href="#TimesNewRomanPSMT-35" transform="translate(669.384766 0)"/>
     <use xlink:href="#TimesNewRomanPSMT-5f" transform="translate(719.384766 0)"/>
     <use xlink:href="#TimesNewRomanPSMT-32" transform="translate(769.384766 0)"/>
     <use xlink:href="#TimesNewRomanPSMT-35" transform="translate(819.384766 0)"/>
     <use xlink:href="#TimesNewRomanPSMT-5f" transform="translate(869.384766 0)"/>
     <use xlink:href="#TimesNewRomanPSMT-43" transform="translate(919.384766 0)"/>
     <use xlink:href="#TimesNewRomanPSMT-49" transform="translate(986.083984 0)"/>
     <use xlink:href="#TimesNewRomanPSMT-4e" transform="translate(1019.384766 0)"/>
     <use xlink:href="#TimesNewRomanPSMT-49" transform="translate(1091.601562 0)"/>
     <use xlink:href="#TimesNewRomanPSMT-43" transform="translate(1124.902344 0)"/>
     <use xlink:href="#TimesNewRomanPSMT-31" transform="translate(1191.601562 0)"/>
     <use xlink:href="#TimesNewRomanPSMT-30" transform="translate(1241.601562 0)"/>
     <use xlink:href="#TimesNewRomanPSMT-5f" transform="translate(1291.601562 0)"/>
     <use xlink:href="#TimesNewRomanPSMT-6d" transform="translate(1341.601562 0)"/>
     <use xlink:href="#TimesNewRomanPSMT-6f" transform="translate(1419.384766 0)"/>
     <use xlink:href="#TimesNewRomanPSMT-64" transform="translate(1469.384766 0)"/>
     <use xlink:href="#TimesNewRomanPSMT-65" transform="translate(1519.384766 0)"/>
     <use xlink:href="#TimesNewRomanPSMT-6c" transform="translate(1563.769531 0)"/>
     <use xlink:href="#TimesNewRomanPSMT-5f" transform="translate(1591.552734 0)"/>
     <use xlink:href="#TimesNewRomanPSMT-28" transform="translate(1641.552734 0)"/>
     <use xlink:href="#TimesNewRomanPSMT-31" transform="translate(1674.853516 0)"/>
     <use xlink:href="#TimesNewRomanPSMT-30" transform="translate(1724.853516 0)"/>
     <use xlink:href="#TimesNewRomanPSMT-32" transform="translate(1774.853516 0)"/>
     <use xlink:href="#TimesNewRomanPSMT-34" transform="translate(1824.853516 0)"/>
     <use xlink:href="#TimesNewRomanPSMT-2b" transform="translate(1874.853516 0)"/>
     <use xlink:href="#TimesNewRomanPSMT-35" transform="translate(1931.25 0)"/>
     <use xlink:href="#TimesNewRomanPSMT-31" transform="translate(1981.25 0)"/>
     <use xlink:href="#TimesNewRomanPSMT-32" transform="translate(2031.25 0)"/>
     <use xlink:href="#TimesNewRomanPSMT-2b" transform="translate(2081.25 0)"/>
     <use xlink:href="#TimesNewRomanPSMT-31" transform="translate(2137.646484 0)"/>
     <use xlink:href="#TimesNewRomanPSMT-29" transform="translate(2187.646484 0)"/>
     <use xlink:href="#TimesNewRomanPSMT-5f" transform="translate(2220.947266 0)"/>
     <use xlink:href="#TimesNewRomanPSMT-31" transform="translate(2270.947266 0)"/>
     <use xlink:href="#TimesNewRomanPSMT-5f" transform="translate(2320.947266 0)"/>
     <use xlink:href="#TimesNewRomanPSMT-63" transform="translate(2370.947266 0)"/>
     <use xlink:href="#TimesNewRomanPSMT-74" transform="translate(2415.332031 0)"/>
    </g>
   </g>
   <g id="legend_1">
    <g id="patch_7">
     <path d="M 292.292937 213.014062 
L 492.850438 213.014062 
Q 497.250438 213.014062 497.250438 208.614062 
L 497.250438 148.560937 
Q 497.250438 144.160937 492.850438 144.160937 
L 292.292937 144.160937 
Q 287.892938 144.160937 287.892938 148.560937 
L 287.892938 208.614062 
Q 287.892938 213.014062 292.292937 213.014062 
z
" style="fill: #ffffff; opacity: 0.8; stroke: #cccccc; stroke-linejoin: miter"/>
    </g>
    <g id="line2d_21">
     <path d="M 296.692938 160.660937 
L 318.692938 160.660937 
L 340.692938 160.660937 
" style="fill: none; stroke: #ffa500; stroke-width: 1.5; stroke-linecap: square"/>
    </g>
    <g id="text_13">
     <!-- Training loss -->
     <g transform="translate(358.292938 168.360937) scale(0.22 -0.22)">
      <defs>
       <path id="TimesNewRomanPSMT-54" d="M 3703 4238 
L 3750 3244 
L 3631 3244 
Q 3597 3506 3538 3619 
Q 3441 3800 3280 3886 
Q 3119 3972 2856 3972 
L 2259 3972 
L 2259 734 
Q 2259 344 2344 247 
Q 2463 116 2709 116 
L 2856 116 
L 2856 0 
L 1059 0 
L 1059 116 
L 1209 116 
Q 1478 116 1591 278 
Q 1659 378 1659 734 
L 1659 3972 
L 1150 3972 
Q 853 3972 728 3928 
Q 566 3869 450 3700 
Q 334 3531 313 3244 
L 194 3244 
L 244 4238 
L 3703 4238 
z
" transform="scale(0.015625)"/>
       <path id="TimesNewRomanPSMT-67" d="M 966 1044 
Q 703 1172 562 1401 
Q 422 1631 422 1909 
Q 422 2334 742 2640 
Q 1063 2947 1563 2947 
Q 1972 2947 2272 2747 
L 2878 2747 
Q 3013 2747 3034 2739 
Q 3056 2731 3066 2713 
Q 3084 2684 3084 2613 
Q 3084 2531 3069 2500 
Q 3059 2484 3036 2475 
Q 3013 2466 2878 2466 
L 2506 2466 
Q 2681 2241 2681 1891 
Q 2681 1491 2375 1206 
Q 2069 922 1553 922 
Q 1341 922 1119 984 
Q 981 866 932 777 
Q 884 688 884 625 
Q 884 572 936 522 
Q 988 472 1138 450 
Q 1225 438 1575 428 
Q 2219 413 2409 384 
Q 2700 344 2873 169 
Q 3047 -6 3047 -263 
Q 3047 -616 2716 -925 
Q 2228 -1381 1444 -1381 
Q 841 -1381 425 -1109 
Q 191 -953 191 -784 
Q 191 -709 225 -634 
Q 278 -519 444 -313 
Q 466 -284 763 25 
Q 600 122 533 198 
Q 466 275 466 372 
Q 466 481 555 628 
Q 644 775 966 1044 
z
M 1509 2797 
Q 1278 2797 1122 2612 
Q 966 2428 966 2047 
Q 966 1553 1178 1281 
Q 1341 1075 1591 1075 
Q 1828 1075 1981 1253 
Q 2134 1431 2134 1813 
Q 2134 2309 1919 2591 
Q 1759 2797 1509 2797 
z
M 934 0 
Q 788 -159 713 -296 
Q 638 -434 638 -550 
Q 638 -700 819 -813 
Q 1131 -1006 1722 -1006 
Q 2284 -1006 2551 -807 
Q 2819 -609 2819 -384 
Q 2819 -222 2659 -153 
Q 2497 -84 2016 -72 
Q 1313 -53 934 0 
z
" transform="scale(0.015625)"/>
      </defs>
      <use xlink:href="#TimesNewRomanPSMT-54"/>
      <use xlink:href="#TimesNewRomanPSMT-72" transform="translate(57.583984 0)"/>
      <use xlink:href="#TimesNewRomanPSMT-61" transform="translate(90.884766 0)"/>
      <use xlink:href="#TimesNewRomanPSMT-69" transform="translate(135.269531 0)"/>
      <use xlink:href="#TimesNewRomanPSMT-6e" transform="translate(163.052734 0)"/>
      <use xlink:href="#TimesNewRomanPSMT-69" transform="translate(213.052734 0)"/>
      <use xlink:href="#TimesNewRomanPSMT-6e" transform="translate(240.835938 0)"/>
      <use xlink:href="#TimesNewRomanPSMT-67" transform="translate(290.835938 0)"/>
      <use xlink:href="#TimesNewRomanPSMT-20" transform="translate(340.835938 0)"/>
      <use xlink:href="#TimesNewRomanPSMT-6c" transform="translate(365.835938 0)"/>
      <use xlink:href="#TimesNewRomanPSMT-6f" transform="translate(393.619141 0)"/>
      <use xlink:href="#TimesNewRomanPSMT-73" transform="translate(443.619141 0)"/>
      <use xlink:href="#TimesNewRomanPSMT-73" transform="translate(482.535156 0)"/>
     </g>
    </g>
    <g id="line2d_22">
     <path d="M 296.692938 191.808125 
L 318.692938 191.808125 
L 340.692938 191.808125 
" style="fill: none; stroke: #008000; stroke-width: 1.5; stroke-linecap: square"/>
    </g>
    <g id="text_14">
     <!-- Validation loss -->
     <g transform="translate(358.292938 199.508125) scale(0.22 -0.22)">
      <defs>
       <path id="TimesNewRomanPSMT-56" d="M 4544 4238 
L 4544 4122 
Q 4319 4081 4203 3978 
Q 4038 3825 3909 3509 
L 2431 -97 
L 2316 -97 
L 728 3556 
Q 606 3838 556 3900 
Q 478 3997 364 4051 
Q 250 4106 56 4122 
L 56 4238 
L 1788 4238 
L 1788 4122 
Q 1494 4094 1406 4022 
Q 1319 3950 1319 3838 
Q 1319 3681 1463 3350 
L 2541 866 
L 3541 3319 
Q 3688 3681 3688 3822 
Q 3688 3913 3597 3995 
Q 3506 4078 3291 4113 
Q 3275 4116 3238 4122 
L 3238 4238 
L 4544 4238 
z
" transform="scale(0.015625)"/>
      </defs>
      <use xlink:href="#TimesNewRomanPSMT-56"/>
      <use xlink:href="#TimesNewRomanPSMT-61" transform="translate(61.091797 0)"/>
      <use xlink:href="#TimesNewRomanPSMT-6c" transform="translate(105.476562 0)"/>
      <use xlink:href="#TimesNewRomanPSMT-69" transform="translate(133.259766 0)"/>
      <use xlink:href="#TimesNewRomanPSMT-64" transform="translate(161.042969 0)"/>
      <use xlink:href="#TimesNewRomanPSMT-61" transform="translate(211.042969 0)"/>
      <use xlink:href="#TimesNewRomanPSMT-74" transform="translate(255.427734 0)"/>
      <use xlink:href="#TimesNewRomanPSMT-69" transform="translate(283.210938 0)"/>
      <use xlink:href="#TimesNewRomanPSMT-6f" transform="translate(310.994141 0)"/>
      <use xlink:href="#TimesNewRomanPSMT-6e" transform="translate(360.994141 0)"/>
      <use xlink:href="#TimesNewRomanPSMT-20" transform="translate(410.994141 0)"/>
      <use xlink:href="#TimesNewRomanPSMT-6c" transform="translate(435.994141 0)"/>
      <use xlink:href="#TimesNewRomanPSMT-6f" transform="translate(463.777344 0)"/>
      <use xlink:href="#TimesNewRomanPSMT-73" transform="translate(513.777344 0)"/>
      <use xlink:href="#TimesNewRomanPSMT-73" transform="translate(552.693359 0)"/>
     </g>
    </g>
   </g>
  </g>
 </g>
 <defs>
  <clipPath id="p857b515078">
   <rect x="151.130438" y="45.5315" width="357.12" height="266.112"/>
  </clipPath>
 </defs>
</svg>
