<?xml version="1.0" encoding="utf-8" standalone="no"?>
<!DOCTYPE svg PUBLIC "-//W3C//DTD SVG 1.1//EN"
  "http://www.w3.org/Graphics/SVG/1.1/DTD/svg11.dtd">
<svg xmlns:xlink="http://www.w3.org/1999/xlink" width="1149.348375pt" height="369.807875pt" viewBox="0 0 1149.348375 369.807875" xmlns="http://www.w3.org/2000/svg" version="1.1">
 <metadata>
  <rdf:RDF xmlns:dc="http://purl.org/dc/elements/1.1/" xmlns:cc="http://creativecommons.org/ns#" xmlns:rdf="http://www.w3.org/1999/02/22-rdf-syntax-ns#">
   <cc:Work>
    <dc:type rdf:resource="http://purl.org/dc/dcmitype/StillImage"/>
    <dc:date>2025-07-11T05:10:49.911544</dc:date>
    <dc:format>image/svg+xml</dc:format>
    <dc:creator>
     <cc:Agent>
      <dc:title>Matplotlib v3.10.1, https://matplotlib.org/</dc:title>
     </cc:Agent>
    </dc:creator>
   </cc:Work>
  </rdf:RDF>
 </metadata>
 <defs>
  <style type="text/css">*{stroke-linejoin: round; stroke-linecap: butt}</style>
 </defs>
 <g id="figure_1">
  <g id="patch_1">
   <path d="M 0 369.807875 
L 1149.348375 369.807875 
L 1149.348375 0 
L 0 0 
z
" style="fill: #ffffff"/>
  </g>
  <g id="axes_1">
   <g id="patch_2">
    <path d="M 396.114187 311.6435 
L 753.234187 311.6435 
L 753.234187 45.5315 
L 396.114187 45.5315 
z
" style="fill: #ffffff"/>
   </g>
   <g id="matplotlib.axis_1">
    <g id="xtick_1">
     <g id="line2d_1">
      <path d="M 396.114187 311.6435 
L 396.114187 45.5315 
" clip-path="url(#pb840e2c0b2)" style="fill: none; stroke: #b0b0b0; stroke-opacity: 0.3; stroke-width: 0.8; stroke-linecap: square"/>
     </g>
     <g id="line2d_2">
      <defs>
       <path id="m3ce63a7da7" d="M 0 0 
L 0 3.5 
" style="stroke: #000000; stroke-width: 0.8"/>
      </defs>
      <g>
       <use xlink:href="#m3ce63a7da7" x="396.114187" y="311.6435" style="stroke: #000000; stroke-width: 0.8"/>
      </g>
     </g>
     <g id="text_1">
      <!-- 0 -->
      <g transform="translate(390.614187 333.91975) scale(0.22 -0.22)">
       <defs>
        <path id="TimesNewRomanPSMT-30" d="M 231 2094 
Q 231 2819 450 3342 
Q 669 3866 1031 4122 
Q 1313 4325 1613 4325 
Q 2100 4325 2488 3828 
Q 2972 3213 2972 2159 
Q 2972 1422 2759 906 
Q 2547 391 2217 158 
Q 1888 -75 1581 -75 
Q 975 -75 572 641 
Q 231 1244 231 2094 
z
M 844 2016 
Q 844 1141 1059 588 
Q 1238 122 1591 122 
Q 1759 122 1940 273 
Q 2122 425 2216 781 
Q 2359 1319 2359 2297 
Q 2359 3022 2209 3506 
Q 2097 3866 1919 4016 
Q 1791 4119 1609 4119 
Q 1397 4119 1231 3928 
Q 1006 3669 925 3112 
Q 844 2556 844 2016 
z
" transform="scale(0.015625)"/>
       </defs>
       <use xlink:href="#TimesNewRomanPSMT-30"/>
      </g>
     </g>
    </g>
    <g id="xtick_2">
     <g id="line2d_3">
      <path d="M 491.346187 311.6435 
L 491.346187 45.5315 
" clip-path="url(#pb840e2c0b2)" style="fill: none; stroke: #b0b0b0; stroke-opacity: 0.3; stroke-width: 0.8; stroke-linecap: square"/>
     </g>
     <g id="line2d_4">
      <g>
       <use xlink:href="#m3ce63a7da7" x="491.346187" y="311.6435" style="stroke: #000000; stroke-width: 0.8"/>
      </g>
     </g>
     <g id="text_2">
      <!-- 20000 -->
      <g transform="translate(463.846187 333.91975) scale(0.22 -0.22)">
       <defs>
        <path id="TimesNewRomanPSMT-32" d="M 2934 816 
L 2638 0 
L 138 0 
L 138 116 
Q 1241 1122 1691 1759 
Q 2141 2397 2141 2925 
Q 2141 3328 1894 3587 
Q 1647 3847 1303 3847 
Q 991 3847 742 3664 
Q 494 3481 375 3128 
L 259 3128 
Q 338 3706 661 4015 
Q 984 4325 1469 4325 
Q 1984 4325 2329 3994 
Q 2675 3663 2675 3213 
Q 2675 2891 2525 2569 
Q 2294 2063 1775 1497 
Q 997 647 803 472 
L 1909 472 
Q 2247 472 2383 497 
Q 2519 522 2628 598 
Q 2738 675 2819 816 
L 2934 816 
z
" transform="scale(0.015625)"/>
       </defs>
       <use xlink:href="#TimesNewRomanPSMT-32"/>
       <use xlink:href="#TimesNewRomanPSMT-30" transform="translate(50 0)"/>
       <use xlink:href="#TimesNewRomanPSMT-30" transform="translate(100 0)"/>
       <use xlink:href="#TimesNewRomanPSMT-30" transform="translate(150 0)"/>
       <use xlink:href="#TimesNewRomanPSMT-30" transform="translate(200 0)"/>
      </g>
     </g>
    </g>
    <g id="xtick_3">
     <g id="line2d_5">
      <path d="M 586.578188 311.6435 
L 586.578188 45.5315 
" clip-path="url(#pb840e2c0b2)" style="fill: none; stroke: #b0b0b0; stroke-opacity: 0.3; stroke-width: 0.8; stroke-linecap: square"/>
     </g>
     <g id="line2d_6">
      <g>
       <use xlink:href="#m3ce63a7da7" x="586.578188" y="311.6435" style="stroke: #000000; stroke-width: 0.8"/>
      </g>
     </g>
     <g id="text_3">
      <!-- 40000 -->
      <g transform="translate(559.078188 333.91975) scale(0.22 -0.22)">
       <defs>
        <path id="TimesNewRomanPSMT-34" d="M 2978 1563 
L 2978 1119 
L 2409 1119 
L 2409 0 
L 1894 0 
L 1894 1119 
L 100 1119 
L 100 1519 
L 2066 4325 
L 2409 4325 
L 2409 1563 
L 2978 1563 
z
M 1894 1563 
L 1894 3666 
L 406 1563 
L 1894 1563 
z
" transform="scale(0.015625)"/>
       </defs>
       <use xlink:href="#TimesNewRomanPSMT-34"/>
       <use xlink:href="#TimesNewRomanPSMT-30" transform="translate(50 0)"/>
       <use xlink:href="#TimesNewRomanPSMT-30" transform="translate(100 0)"/>
       <use xlink:href="#TimesNewRomanPSMT-30" transform="translate(150 0)"/>
       <use xlink:href="#TimesNewRomanPSMT-30" transform="translate(200 0)"/>
      </g>
     </g>
    </g>
    <g id="xtick_4">
     <g id="line2d_7">
      <path d="M 681.810187 311.6435 
L 681.810187 45.5315 
" clip-path="url(#pb840e2c0b2)" style="fill: none; stroke: #b0b0b0; stroke-opacity: 0.3; stroke-width: 0.8; stroke-linecap: square"/>
     </g>
     <g id="line2d_8">
      <g>
       <use xlink:href="#m3ce63a7da7" x="681.810187" y="311.6435" style="stroke: #000000; stroke-width: 0.8"/>
      </g>
     </g>
     <g id="text_4">
      <!-- 60000 -->
      <g transform="translate(654.310187 333.91975) scale(0.22 -0.22)">
       <defs>
        <path id="TimesNewRomanPSMT-36" d="M 2869 4325 
L 2869 4209 
Q 2456 4169 2195 4045 
Q 1934 3922 1679 3669 
Q 1425 3416 1258 3105 
Q 1091 2794 978 2366 
Q 1428 2675 1881 2675 
Q 2316 2675 2634 2325 
Q 2953 1975 2953 1425 
Q 2953 894 2631 456 
Q 2244 -75 1606 -75 
Q 1172 -75 869 213 
Q 275 772 275 1663 
Q 275 2231 503 2743 
Q 731 3256 1154 3653 
Q 1578 4050 1965 4187 
Q 2353 4325 2688 4325 
L 2869 4325 
z
M 925 2138 
Q 869 1716 869 1456 
Q 869 1156 980 804 
Q 1091 453 1309 247 
Q 1469 100 1697 100 
Q 1969 100 2183 356 
Q 2397 613 2397 1088 
Q 2397 1622 2184 2012 
Q 1972 2403 1581 2403 
Q 1463 2403 1327 2353 
Q 1191 2303 925 2138 
z
" transform="scale(0.015625)"/>
       </defs>
       <use xlink:href="#TimesNewRomanPSMT-36"/>
       <use xlink:href="#TimesNewRomanPSMT-30" transform="translate(50 0)"/>
       <use xlink:href="#TimesNewRomanPSMT-30" transform="translate(100 0)"/>
       <use xlink:href="#TimesNewRomanPSMT-30" transform="translate(150 0)"/>
       <use xlink:href="#TimesNewRomanPSMT-30" transform="translate(200 0)"/>
      </g>
     </g>
    </g>
    <g id="text_5">
     <!-- Number of iterations -->
     <g transform="translate(483.032156 357.901937) scale(0.22 -0.22)">
      <defs>
       <path id="TimesNewRomanPSMT-4e" d="M -84 4238 
L 1066 4238 
L 3656 1059 
L 3656 3503 
Q 3656 3894 3569 3991 
Q 3453 4122 3203 4122 
L 3056 4122 
L 3056 4238 
L 4531 4238 
L 4531 4122 
L 4381 4122 
Q 4113 4122 4000 3959 
Q 3931 3859 3931 3503 
L 3931 -69 
L 3819 -69 
L 1025 3344 
L 1025 734 
Q 1025 344 1109 247 
Q 1228 116 1475 116 
L 1625 116 
L 1625 0 
L 150 0 
L 150 116 
L 297 116 
Q 569 116 681 278 
Q 750 378 750 734 
L 750 3681 
Q 566 3897 470 3965 
Q 375 4034 191 4094 
Q 100 4122 -84 4122 
L -84 4238 
z
" transform="scale(0.015625)"/>
       <path id="TimesNewRomanPSMT-75" d="M 2709 2863 
L 2709 1128 
Q 2709 631 2732 520 
Q 2756 409 2807 365 
Q 2859 322 2928 322 
Q 3025 322 3147 375 
L 3191 266 
L 2334 -88 
L 2194 -88 
L 2194 519 
Q 1825 119 1631 15 
Q 1438 -88 1222 -88 
Q 981 -88 804 51 
Q 628 191 559 409 
Q 491 628 491 1028 
L 491 2306 
Q 491 2509 447 2587 
Q 403 2666 317 2708 
Q 231 2750 6 2747 
L 6 2863 
L 1009 2863 
L 1009 947 
Q 1009 547 1148 422 
Q 1288 297 1484 297 
Q 1619 297 1789 381 
Q 1959 466 2194 703 
L 2194 2325 
Q 2194 2569 2105 2655 
Q 2016 2741 1734 2747 
L 1734 2863 
L 2709 2863 
z
" transform="scale(0.015625)"/>
       <path id="TimesNewRomanPSMT-6d" d="M 1050 2338 
Q 1363 2650 1419 2697 
Q 1559 2816 1721 2881 
Q 1884 2947 2044 2947 
Q 2313 2947 2506 2790 
Q 2700 2634 2766 2338 
Q 3088 2713 3309 2830 
Q 3531 2947 3766 2947 
Q 3994 2947 4170 2830 
Q 4347 2713 4450 2447 
Q 4519 2266 4519 1878 
L 4519 647 
Q 4519 378 4559 278 
Q 4591 209 4675 161 
Q 4759 113 4950 113 
L 4950 0 
L 3538 0 
L 3538 113 
L 3597 113 
Q 3781 113 3884 184 
Q 3956 234 3988 344 
Q 4000 397 4000 647 
L 4000 1878 
Q 4000 2228 3916 2372 
Q 3794 2572 3525 2572 
Q 3359 2572 3192 2489 
Q 3025 2406 2788 2181 
L 2781 2147 
L 2788 2013 
L 2788 647 
Q 2788 353 2820 281 
Q 2853 209 2943 161 
Q 3034 113 3253 113 
L 3253 0 
L 1806 0 
L 1806 113 
Q 2044 113 2133 169 
Q 2222 225 2256 338 
Q 2272 391 2272 647 
L 2272 1878 
Q 2272 2228 2169 2381 
Q 2031 2581 1784 2581 
Q 1616 2581 1450 2491 
Q 1191 2353 1050 2181 
L 1050 647 
Q 1050 366 1089 281 
Q 1128 197 1204 155 
Q 1281 113 1516 113 
L 1516 0 
L 100 0 
L 100 113 
Q 297 113 375 155 
Q 453 197 493 289 
Q 534 381 534 647 
L 534 1741 
Q 534 2213 506 2350 
Q 484 2453 437 2492 
Q 391 2531 309 2531 
Q 222 2531 100 2484 
L 53 2597 
L 916 2947 
L 1050 2947 
L 1050 2338 
z
" transform="scale(0.015625)"/>
       <path id="TimesNewRomanPSMT-62" d="M 984 2369 
Q 1400 2947 1881 2947 
Q 2322 2947 2650 2570 
Q 2978 2194 2978 1541 
Q 2978 778 2472 313 
Q 2038 -88 1503 -88 
Q 1253 -88 995 3 
Q 738 94 469 275 
L 469 3241 
Q 469 3728 445 3840 
Q 422 3953 372 3993 
Q 322 4034 247 4034 
Q 159 4034 28 3984 
L -16 4094 
L 844 4444 
L 984 4444 
L 984 2369 
z
M 984 2169 
L 984 456 
Q 1144 300 1314 220 
Q 1484 141 1663 141 
Q 1947 141 2192 453 
Q 2438 766 2438 1363 
Q 2438 1913 2192 2208 
Q 1947 2503 1634 2503 
Q 1469 2503 1303 2419 
Q 1178 2356 984 2169 
z
" transform="scale(0.015625)"/>
       <path id="TimesNewRomanPSMT-65" d="M 681 1784 
Q 678 1147 991 784 
Q 1303 422 1725 422 
Q 2006 422 2214 576 
Q 2422 731 2563 1106 
L 2659 1044 
Q 2594 616 2278 264 
Q 1963 -88 1488 -88 
Q 972 -88 605 314 
Q 238 716 238 1394 
Q 238 2128 614 2539 
Q 991 2950 1559 2950 
Q 2041 2950 2350 2633 
Q 2659 2316 2659 1784 
L 681 1784 
z
M 681 1966 
L 2006 1966 
Q 1991 2241 1941 2353 
Q 1863 2528 1708 2628 
Q 1553 2728 1384 2728 
Q 1125 2728 920 2526 
Q 716 2325 681 1966 
z
" transform="scale(0.015625)"/>
       <path id="TimesNewRomanPSMT-72" d="M 1038 2947 
L 1038 2303 
Q 1397 2947 1775 2947 
Q 1947 2947 2059 2842 
Q 2172 2738 2172 2600 
Q 2172 2478 2090 2393 
Q 2009 2309 1897 2309 
Q 1788 2309 1652 2417 
Q 1516 2525 1450 2525 
Q 1394 2525 1328 2463 
Q 1188 2334 1038 2041 
L 1038 669 
Q 1038 431 1097 309 
Q 1138 225 1241 169 
Q 1344 113 1538 113 
L 1538 0 
L 72 0 
L 72 113 
Q 291 113 397 181 
Q 475 231 506 341 
Q 522 394 522 644 
L 522 1753 
Q 522 2253 501 2348 
Q 481 2444 426 2487 
Q 372 2531 291 2531 
Q 194 2531 72 2484 
L 41 2597 
L 906 2947 
L 1038 2947 
z
" transform="scale(0.015625)"/>
       <path id="TimesNewRomanPSMT-20" transform="scale(0.015625)"/>
       <path id="TimesNewRomanPSMT-6f" d="M 1600 2947 
Q 2250 2947 2644 2453 
Q 2978 2031 2978 1484 
Q 2978 1100 2793 706 
Q 2609 313 2286 112 
Q 1963 -88 1566 -88 
Q 919 -88 538 428 
Q 216 863 216 1403 
Q 216 1797 411 2186 
Q 606 2575 925 2761 
Q 1244 2947 1600 2947 
z
M 1503 2744 
Q 1338 2744 1170 2645 
Q 1003 2547 900 2300 
Q 797 2053 797 1666 
Q 797 1041 1045 587 
Q 1294 134 1700 134 
Q 2003 134 2200 384 
Q 2397 634 2397 1244 
Q 2397 2006 2069 2444 
Q 1847 2744 1503 2744 
z
" transform="scale(0.015625)"/>
       <path id="TimesNewRomanPSMT-66" d="M 1319 2638 
L 1319 756 
Q 1319 356 1406 250 
Q 1522 113 1716 113 
L 1975 113 
L 1975 0 
L 266 0 
L 266 113 
L 394 113 
Q 519 113 622 175 
Q 725 238 764 344 
Q 803 450 803 756 
L 803 2638 
L 247 2638 
L 247 2863 
L 803 2863 
L 803 3050 
Q 803 3478 940 3775 
Q 1078 4072 1361 4255 
Q 1644 4438 1997 4438 
Q 2325 4438 2600 4225 
Q 2781 4084 2781 3909 
Q 2781 3816 2700 3733 
Q 2619 3650 2525 3650 
Q 2453 3650 2373 3701 
Q 2294 3753 2178 3923 
Q 2063 4094 1966 4153 
Q 1869 4213 1750 4213 
Q 1606 4213 1506 4136 
Q 1406 4059 1362 3898 
Q 1319 3738 1319 3069 
L 1319 2863 
L 2056 2863 
L 2056 2638 
L 1319 2638 
z
" transform="scale(0.015625)"/>
       <path id="TimesNewRomanPSMT-69" d="M 928 4444 
Q 1059 4444 1151 4351 
Q 1244 4259 1244 4128 
Q 1244 3997 1151 3903 
Q 1059 3809 928 3809 
Q 797 3809 703 3903 
Q 609 3997 609 4128 
Q 609 4259 701 4351 
Q 794 4444 928 4444 
z
M 1188 2947 
L 1188 647 
Q 1188 378 1227 289 
Q 1266 200 1342 156 
Q 1419 113 1622 113 
L 1622 0 
L 231 0 
L 231 113 
Q 441 113 512 153 
Q 584 194 626 287 
Q 669 381 669 647 
L 669 1750 
Q 669 2216 641 2353 
Q 619 2453 572 2492 
Q 525 2531 444 2531 
Q 356 2531 231 2484 
L 188 2597 
L 1050 2947 
L 1188 2947 
z
" transform="scale(0.015625)"/>
       <path id="TimesNewRomanPSMT-74" d="M 1031 3803 
L 1031 2863 
L 1700 2863 
L 1700 2644 
L 1031 2644 
L 1031 788 
Q 1031 509 1111 412 
Q 1191 316 1316 316 
Q 1419 316 1516 380 
Q 1613 444 1666 569 
L 1788 569 
Q 1678 263 1478 108 
Q 1278 -47 1066 -47 
Q 922 -47 784 33 
Q 647 113 581 261 
Q 516 409 516 719 
L 516 2644 
L 63 2644 
L 63 2747 
Q 234 2816 414 2980 
Q 594 3144 734 3369 
Q 806 3488 934 3803 
L 1031 3803 
z
" transform="scale(0.015625)"/>
       <path id="TimesNewRomanPSMT-61" d="M 1822 413 
Q 1381 72 1269 19 
Q 1100 -59 909 -59 
Q 613 -59 420 144 
Q 228 347 228 678 
Q 228 888 322 1041 
Q 450 1253 767 1440 
Q 1084 1628 1822 1897 
L 1822 2009 
Q 1822 2438 1686 2597 
Q 1550 2756 1291 2756 
Q 1094 2756 978 2650 
Q 859 2544 859 2406 
L 866 2225 
Q 866 2081 792 2003 
Q 719 1925 600 1925 
Q 484 1925 411 2006 
Q 338 2088 338 2228 
Q 338 2497 613 2722 
Q 888 2947 1384 2947 
Q 1766 2947 2009 2819 
Q 2194 2722 2281 2516 
Q 2338 2381 2338 1966 
L 2338 994 
Q 2338 584 2353 492 
Q 2369 400 2405 369 
Q 2441 338 2488 338 
Q 2538 338 2575 359 
Q 2641 400 2828 588 
L 2828 413 
Q 2478 -56 2159 -56 
Q 2006 -56 1915 50 
Q 1825 156 1822 413 
z
M 1822 616 
L 1822 1706 
Q 1350 1519 1213 1441 
Q 966 1303 859 1153 
Q 753 1003 753 825 
Q 753 600 887 451 
Q 1022 303 1197 303 
Q 1434 303 1822 616 
z
" transform="scale(0.015625)"/>
       <path id="TimesNewRomanPSMT-6e" d="M 1034 2341 
Q 1538 2947 1994 2947 
Q 2228 2947 2397 2830 
Q 2566 2713 2666 2444 
Q 2734 2256 2734 1869 
L 2734 647 
Q 2734 375 2778 278 
Q 2813 200 2889 156 
Q 2966 113 3172 113 
L 3172 0 
L 1756 0 
L 1756 113 
L 1816 113 
Q 2016 113 2095 173 
Q 2175 234 2206 353 
Q 2219 400 2219 647 
L 2219 1819 
Q 2219 2209 2117 2386 
Q 2016 2563 1775 2563 
Q 1403 2563 1034 2156 
L 1034 647 
Q 1034 356 1069 288 
Q 1113 197 1189 155 
Q 1266 113 1500 113 
L 1500 0 
L 84 0 
L 84 113 
L 147 113 
Q 366 113 442 223 
Q 519 334 519 647 
L 519 1709 
Q 519 2225 495 2337 
Q 472 2450 423 2490 
Q 375 2531 294 2531 
Q 206 2531 84 2484 
L 38 2597 
L 900 2947 
L 1034 2947 
L 1034 2341 
z
" transform="scale(0.015625)"/>
       <path id="TimesNewRomanPSMT-73" d="M 2050 2947 
L 2050 1972 
L 1947 1972 
Q 1828 2431 1642 2597 
Q 1456 2763 1169 2763 
Q 950 2763 815 2647 
Q 681 2531 681 2391 
Q 681 2216 781 2091 
Q 878 1963 1175 1819 
L 1631 1597 
Q 2266 1288 2266 781 
Q 2266 391 1970 151 
Q 1675 -88 1309 -88 
Q 1047 -88 709 6 
Q 606 38 541 38 
Q 469 38 428 -44 
L 325 -44 
L 325 978 
L 428 978 
Q 516 541 762 319 
Q 1009 97 1316 97 
Q 1531 97 1667 223 
Q 1803 350 1803 528 
Q 1803 744 1651 891 
Q 1500 1038 1047 1263 
Q 594 1488 453 1669 
Q 313 1847 313 2119 
Q 313 2472 555 2709 
Q 797 2947 1181 2947 
Q 1350 2947 1591 2875 
Q 1750 2828 1803 2828 
Q 1853 2828 1881 2850 
Q 1909 2872 1947 2947 
L 2050 2947 
z
" transform="scale(0.015625)"/>
      </defs>
      <use xlink:href="#TimesNewRomanPSMT-4e"/>
      <use xlink:href="#TimesNewRomanPSMT-75" transform="translate(72.216797 0)"/>
      <use xlink:href="#TimesNewRomanPSMT-6d" transform="translate(122.216797 0)"/>
      <use xlink:href="#TimesNewRomanPSMT-62" transform="translate(200 0)"/>
      <use xlink:href="#TimesNewRomanPSMT-65" transform="translate(250 0)"/>
      <use xlink:href="#TimesNewRomanPSMT-72" transform="translate(294.384766 0)"/>
      <use xlink:href="#TimesNewRomanPSMT-20" transform="translate(327.685547 0)"/>
      <use xlink:href="#TimesNewRomanPSMT-6f" transform="translate(352.685547 0)"/>
      <use xlink:href="#TimesNewRomanPSMT-66" transform="translate(402.685547 0)"/>
      <use xlink:href="#TimesNewRomanPSMT-20" transform="translate(435.986328 0)"/>
      <use xlink:href="#TimesNewRomanPSMT-69" transform="translate(460.986328 0)"/>
      <use xlink:href="#TimesNewRomanPSMT-74" transform="translate(488.769531 0)"/>
      <use xlink:href="#TimesNewRomanPSMT-65" transform="translate(516.552734 0)"/>
      <use xlink:href="#TimesNewRomanPSMT-72" transform="translate(560.9375 0)"/>
      <use xlink:href="#TimesNewRomanPSMT-61" transform="translate(594.238281 0)"/>
      <use xlink:href="#TimesNewRomanPSMT-74" transform="translate(638.623047 0)"/>
      <use xlink:href="#TimesNewRomanPSMT-69" transform="translate(666.40625 0)"/>
      <use xlink:href="#TimesNewRomanPSMT-6f" transform="translate(694.189453 0)"/>
      <use xlink:href="#TimesNewRomanPSMT-6e" transform="translate(744.189453 0)"/>
      <use xlink:href="#TimesNewRomanPSMT-73" transform="translate(794.189453 0)"/>
     </g>
    </g>
   </g>
   <g id="matplotlib.axis_2">
    <g id="ytick_1">
     <g id="line2d_9">
      <path d="M 396.114187 311.6435 
L 753.234187 311.6435 
" clip-path="url(#pb840e2c0b2)" style="fill: none; stroke: #b0b0b0; stroke-opacity: 0.3; stroke-width: 0.8; stroke-linecap: square"/>
     </g>
     <g id="line2d_10">
      <defs>
       <path id="m773f6b9b0e" d="M 0 0 
L -3.5 0 
" style="stroke: #000000; stroke-width: 0.8"/>
      </defs>
      <g>
       <use xlink:href="#m773f6b9b0e" x="396.114187" y="311.6435" style="stroke: #000000; stroke-width: 0.8"/>
      </g>
     </g>
     <g id="text_6">
      <!-- 0.0 -->
      <g transform="translate(361.614187 319.281625) scale(0.22 -0.22)">
       <defs>
        <path id="TimesNewRomanPSMT-2e" d="M 800 606 
Q 947 606 1047 504 
Q 1147 403 1147 259 
Q 1147 116 1045 14 
Q 944 -88 800 -88 
Q 656 -88 554 14 
Q 453 116 453 259 
Q 453 406 554 506 
Q 656 606 800 606 
z
" transform="scale(0.015625)"/>
       </defs>
       <use xlink:href="#TimesNewRomanPSMT-30"/>
       <use xlink:href="#TimesNewRomanPSMT-2e" transform="translate(50 0)"/>
       <use xlink:href="#TimesNewRomanPSMT-30" transform="translate(75 0)"/>
      </g>
     </g>
    </g>
    <g id="ytick_2">
     <g id="line2d_11">
      <path d="M 396.114187 285.0323 
L 753.234187 285.0323 
" clip-path="url(#pb840e2c0b2)" style="fill: none; stroke: #b0b0b0; stroke-opacity: 0.3; stroke-width: 0.8; stroke-linecap: square"/>
     </g>
     <g id="line2d_12">
      <g>
       <use xlink:href="#m773f6b9b0e" x="396.114187" y="285.0323" style="stroke: #000000; stroke-width: 0.8"/>
      </g>
     </g>
     <g id="text_7">
      <!-- 0.1 -->
      <g transform="translate(361.614187 292.670425) scale(0.22 -0.22)">
       <defs>
        <path id="TimesNewRomanPSMT-31" d="M 750 3822 
L 1781 4325 
L 1884 4325 
L 1884 747 
Q 1884 391 1914 303 
Q 1944 216 2037 169 
Q 2131 122 2419 116 
L 2419 0 
L 825 0 
L 825 116 
Q 1125 122 1212 167 
Q 1300 213 1334 289 
Q 1369 366 1369 747 
L 1369 3034 
Q 1369 3497 1338 3628 
Q 1316 3728 1258 3775 
Q 1200 3822 1119 3822 
Q 1003 3822 797 3725 
L 750 3822 
z
" transform="scale(0.015625)"/>
       </defs>
       <use xlink:href="#TimesNewRomanPSMT-30"/>
       <use xlink:href="#TimesNewRomanPSMT-2e" transform="translate(50 0)"/>
       <use xlink:href="#TimesNewRomanPSMT-31" transform="translate(75 0)"/>
      </g>
     </g>
    </g>
    <g id="ytick_3">
     <g id="line2d_13">
      <path d="M 396.114187 258.4211 
L 753.234187 258.4211 
" clip-path="url(#pb840e2c0b2)" style="fill: none; stroke: #b0b0b0; stroke-opacity: 0.3; stroke-width: 0.8; stroke-linecap: square"/>
     </g>
     <g id="line2d_14">
      <g>
       <use xlink:href="#m773f6b9b0e" x="396.114187" y="258.4211" style="stroke: #000000; stroke-width: 0.8"/>
      </g>
     </g>
     <g id="text_8">
      <!-- 0.2 -->
      <g transform="translate(361.614187 266.059225) scale(0.22 -0.22)">
       <use xlink:href="#TimesNewRomanPSMT-30"/>
       <use xlink:href="#TimesNewRomanPSMT-2e" transform="translate(50 0)"/>
       <use xlink:href="#TimesNewRomanPSMT-32" transform="translate(75 0)"/>
      </g>
     </g>
    </g>
    <g id="ytick_4">
     <g id="line2d_15">
      <path d="M 396.114187 231.8099 
L 753.234187 231.8099 
" clip-path="url(#pb840e2c0b2)" style="fill: none; stroke: #b0b0b0; stroke-opacity: 0.3; stroke-width: 0.8; stroke-linecap: square"/>
     </g>
     <g id="line2d_16">
      <g>
       <use xlink:href="#m773f6b9b0e" x="396.114187" y="231.8099" style="stroke: #000000; stroke-width: 0.8"/>
      </g>
     </g>
     <g id="text_9">
      <!-- 0.3 -->
      <g transform="translate(361.614187 239.448025) scale(0.22 -0.22)">
       <defs>
        <path id="TimesNewRomanPSMT-33" d="M 325 3431 
Q 506 3859 782 4092 
Q 1059 4325 1472 4325 
Q 1981 4325 2253 3994 
Q 2459 3747 2459 3466 
Q 2459 3003 1878 2509 
Q 2269 2356 2469 2072 
Q 2669 1788 2669 1403 
Q 2669 853 2319 450 
Q 1863 -75 997 -75 
Q 569 -75 414 31 
Q 259 138 259 259 
Q 259 350 332 419 
Q 406 488 509 488 
Q 588 488 669 463 
Q 722 447 909 348 
Q 1097 250 1169 231 
Q 1284 197 1416 197 
Q 1734 197 1970 444 
Q 2206 691 2206 1028 
Q 2206 1275 2097 1509 
Q 2016 1684 1919 1775 
Q 1784 1900 1550 2001 
Q 1316 2103 1072 2103 
L 972 2103 
L 972 2197 
Q 1219 2228 1467 2375 
Q 1716 2522 1828 2728 
Q 1941 2934 1941 3181 
Q 1941 3503 1739 3701 
Q 1538 3900 1238 3900 
Q 753 3900 428 3381 
L 325 3431 
z
" transform="scale(0.015625)"/>
       </defs>
       <use xlink:href="#TimesNewRomanPSMT-30"/>
       <use xlink:href="#TimesNewRomanPSMT-2e" transform="translate(50 0)"/>
       <use xlink:href="#TimesNewRomanPSMT-33" transform="translate(75 0)"/>
      </g>
     </g>
    </g>
    <g id="ytick_5">
     <g id="line2d_17">
      <path d="M 396.114187 205.1987 
L 753.234187 205.1987 
" clip-path="url(#pb840e2c0b2)" style="fill: none; stroke: #b0b0b0; stroke-opacity: 0.3; stroke-width: 0.8; stroke-linecap: square"/>
     </g>
     <g id="line2d_18">
      <g>
       <use xlink:href="#m773f6b9b0e" x="396.114187" y="205.1987" style="stroke: #000000; stroke-width: 0.8"/>
      </g>
     </g>
     <g id="text_10">
      <!-- 0.4 -->
      <g transform="translate(361.614187 212.836825) scale(0.22 -0.22)">
       <use xlink:href="#TimesNewRomanPSMT-30"/>
       <use xlink:href="#TimesNewRomanPSMT-2e" transform="translate(50 0)"/>
       <use xlink:href="#TimesNewRomanPSMT-34" transform="translate(75 0)"/>
      </g>
     </g>
    </g>
    <g id="ytick_6">
     <g id="line2d_19">
      <path d="M 396.114187 178.5875 
L 753.234187 178.5875 
" clip-path="url(#pb840e2c0b2)" style="fill: none; stroke: #b0b0b0; stroke-opacity: 0.3; stroke-width: 0.8; stroke-linecap: square"/>
     </g>
     <g id="line2d_20">
      <g>
       <use xlink:href="#m773f6b9b0e" x="396.114187" y="178.5875" style="stroke: #000000; stroke-width: 0.8"/>
      </g>
     </g>
     <g id="text_11">
      <!-- 0.5 -->
      <g transform="translate(361.614187 186.225625) scale(0.22 -0.22)">
       <defs>
        <path id="TimesNewRomanPSMT-35" d="M 2778 4238 
L 2534 3706 
L 1259 3706 
L 981 3138 
Q 1809 3016 2294 2522 
Q 2709 2097 2709 1522 
Q 2709 1188 2573 903 
Q 2438 619 2231 419 
Q 2025 219 1772 97 
Q 1413 -75 1034 -75 
Q 653 -75 479 54 
Q 306 184 306 341 
Q 306 428 378 495 
Q 450 563 559 563 
Q 641 563 702 538 
Q 763 513 909 409 
Q 1144 247 1384 247 
Q 1750 247 2026 523 
Q 2303 800 2303 1197 
Q 2303 1581 2056 1914 
Q 1809 2247 1375 2428 
Q 1034 2569 447 2591 
L 1259 4238 
L 2778 4238 
z
" transform="scale(0.015625)"/>
       </defs>
       <use xlink:href="#TimesNewRomanPSMT-30"/>
       <use xlink:href="#TimesNewRomanPSMT-2e" transform="translate(50 0)"/>
       <use xlink:href="#TimesNewRomanPSMT-35" transform="translate(75 0)"/>
      </g>
     </g>
    </g>
    <g id="ytick_7">
     <g id="line2d_21">
      <path d="M 396.114187 151.9763 
L 753.234187 151.9763 
" clip-path="url(#pb840e2c0b2)" style="fill: none; stroke: #b0b0b0; stroke-opacity: 0.3; stroke-width: 0.8; stroke-linecap: square"/>
     </g>
     <g id="line2d_22">
      <g>
       <use xlink:href="#m773f6b9b0e" x="396.114187" y="151.9763" style="stroke: #000000; stroke-width: 0.8"/>
      </g>
     </g>
     <g id="text_12">
      <!-- 0.6 -->
      <g transform="translate(361.614187 159.614425) scale(0.22 -0.22)">
       <use xlink:href="#TimesNewRomanPSMT-30"/>
       <use xlink:href="#TimesNewRomanPSMT-2e" transform="translate(50 0)"/>
       <use xlink:href="#TimesNewRomanPSMT-36" transform="translate(75 0)"/>
      </g>
     </g>
    </g>
    <g id="ytick_8">
     <g id="line2d_23">
      <path d="M 396.114187 125.3651 
L 753.234187 125.3651 
" clip-path="url(#pb840e2c0b2)" style="fill: none; stroke: #b0b0b0; stroke-opacity: 0.3; stroke-width: 0.8; stroke-linecap: square"/>
     </g>
     <g id="line2d_24">
      <g>
       <use xlink:href="#m773f6b9b0e" x="396.114187" y="125.3651" style="stroke: #000000; stroke-width: 0.8"/>
      </g>
     </g>
     <g id="text_13">
      <!-- 0.7 -->
      <g transform="translate(361.614187 133.003225) scale(0.22 -0.22)">
       <defs>
        <path id="TimesNewRomanPSMT-37" d="M 644 4238 
L 2916 4238 
L 2916 4119 
L 1503 -88 
L 1153 -88 
L 2419 3728 
L 1253 3728 
Q 900 3728 750 3644 
Q 488 3500 328 3200 
L 238 3234 
L 644 4238 
z
" transform="scale(0.015625)"/>
       </defs>
       <use xlink:href="#TimesNewRomanPSMT-30"/>
       <use xlink:href="#TimesNewRomanPSMT-2e" transform="translate(50 0)"/>
       <use xlink:href="#TimesNewRomanPSMT-37" transform="translate(75 0)"/>
      </g>
     </g>
    </g>
    <g id="ytick_9">
     <g id="line2d_25">
      <path d="M 396.114187 98.7539 
L 753.234187 98.7539 
" clip-path="url(#pb840e2c0b2)" style="fill: none; stroke: #b0b0b0; stroke-opacity: 0.3; stroke-width: 0.8; stroke-linecap: square"/>
     </g>
     <g id="line2d_26">
      <g>
       <use xlink:href="#m773f6b9b0e" x="396.114187" y="98.7539" style="stroke: #000000; stroke-width: 0.8"/>
      </g>
     </g>
     <g id="text_14">
      <!-- 0.8 -->
      <g transform="translate(361.614187 106.392025) scale(0.22 -0.22)">
       <defs>
        <path id="TimesNewRomanPSMT-38" d="M 1228 2134 
Q 725 2547 579 2797 
Q 434 3047 434 3316 
Q 434 3728 753 4026 
Q 1072 4325 1600 4325 
Q 2113 4325 2425 4047 
Q 2738 3769 2738 3413 
Q 2738 3175 2569 2928 
Q 2400 2681 1866 2347 
Q 2416 1922 2594 1678 
Q 2831 1359 2831 1006 
Q 2831 559 2490 242 
Q 2150 -75 1597 -75 
Q 994 -75 656 303 
Q 388 606 388 966 
Q 388 1247 577 1523 
Q 766 1800 1228 2134 
z
M 1719 2469 
Q 2094 2806 2194 3001 
Q 2294 3197 2294 3444 
Q 2294 3772 2109 3958 
Q 1925 4144 1606 4144 
Q 1288 4144 1088 3959 
Q 888 3775 888 3528 
Q 888 3366 970 3203 
Q 1053 3041 1206 2894 
L 1719 2469 
z
M 1375 2016 
Q 1116 1797 991 1539 
Q 866 1281 866 981 
Q 866 578 1086 336 
Q 1306 94 1647 94 
Q 1984 94 2187 284 
Q 2391 475 2391 747 
Q 2391 972 2272 1150 
Q 2050 1481 1375 2016 
z
" transform="scale(0.015625)"/>
       </defs>
       <use xlink:href="#TimesNewRomanPSMT-30"/>
       <use xlink:href="#TimesNewRomanPSMT-2e" transform="translate(50 0)"/>
       <use xlink:href="#TimesNewRomanPSMT-38" transform="translate(75 0)"/>
      </g>
     </g>
    </g>
    <g id="ytick_10">
     <g id="line2d_27">
      <path d="M 396.114187 72.1427 
L 753.234187 72.1427 
" clip-path="url(#pb840e2c0b2)" style="fill: none; stroke: #b0b0b0; stroke-opacity: 0.3; stroke-width: 0.8; stroke-linecap: square"/>
     </g>
     <g id="line2d_28">
      <g>
       <use xlink:href="#m773f6b9b0e" x="396.114187" y="72.1427" style="stroke: #000000; stroke-width: 0.8"/>
      </g>
     </g>
     <g id="text_15">
      <!-- 0.9 -->
      <g transform="translate(361.614187 79.780825) scale(0.22 -0.22)">
       <defs>
        <path id="TimesNewRomanPSMT-39" d="M 338 -88 
L 338 28 
Q 744 34 1094 217 
Q 1444 400 1770 856 
Q 2097 1313 2225 1859 
Q 1734 1544 1338 1544 
Q 891 1544 572 1889 
Q 253 2234 253 2806 
Q 253 3363 572 3797 
Q 956 4325 1575 4325 
Q 2097 4325 2469 3894 
Q 2925 3359 2925 2575 
Q 2925 1869 2578 1258 
Q 2231 647 1613 244 
Q 1109 -88 516 -88 
L 338 -88 
z
M 2275 2091 
Q 2331 2497 2331 2741 
Q 2331 3044 2228 3395 
Q 2125 3747 1936 3934 
Q 1747 4122 1506 4122 
Q 1228 4122 1018 3872 
Q 809 3622 809 3128 
Q 809 2469 1088 2097 
Q 1291 1828 1588 1828 
Q 1731 1828 1928 1897 
Q 2125 1966 2275 2091 
z
" transform="scale(0.015625)"/>
       </defs>
       <use xlink:href="#TimesNewRomanPSMT-30"/>
       <use xlink:href="#TimesNewRomanPSMT-2e" transform="translate(50 0)"/>
       <use xlink:href="#TimesNewRomanPSMT-39" transform="translate(75 0)"/>
      </g>
     </g>
    </g>
    <g id="ytick_11">
     <g id="line2d_29">
      <path d="M 396.114187 45.5315 
L 753.234187 45.5315 
" clip-path="url(#pb840e2c0b2)" style="fill: none; stroke: #b0b0b0; stroke-opacity: 0.3; stroke-width: 0.8; stroke-linecap: square"/>
     </g>
     <g id="line2d_30">
      <g>
       <use xlink:href="#m773f6b9b0e" x="396.114187" y="45.5315" style="stroke: #000000; stroke-width: 0.8"/>
      </g>
     </g>
     <g id="text_16">
      <!-- 1.0 -->
      <g transform="translate(361.614187 53.169625) scale(0.22 -0.22)">
       <use xlink:href="#TimesNewRomanPSMT-31"/>
       <use xlink:href="#TimesNewRomanPSMT-2e" transform="translate(50 0)"/>
       <use xlink:href="#TimesNewRomanPSMT-30" transform="translate(75 0)"/>
      </g>
     </g>
    </g>
    <g id="text_17">
     <!-- Accuracy -->
     <g transform="translate(352.867 220.726094) rotate(-90) scale(0.22 -0.22)">
      <defs>
       <path id="TimesNewRomanPSMT-41" d="M 2928 1419 
L 1288 1419 
L 1000 750 
Q 894 503 894 381 
Q 894 284 986 211 
Q 1078 138 1384 116 
L 1384 0 
L 50 0 
L 50 116 
Q 316 163 394 238 
Q 553 388 747 847 
L 2238 4334 
L 2347 4334 
L 3822 809 
Q 4000 384 4145 257 
Q 4291 131 4550 116 
L 4550 0 
L 2878 0 
L 2878 116 
Q 3131 128 3220 200 
Q 3309 272 3309 375 
Q 3309 513 3184 809 
L 2928 1419 
z
M 2841 1650 
L 2122 3363 
L 1384 1650 
L 2841 1650 
z
" transform="scale(0.015625)"/>
       <path id="TimesNewRomanPSMT-63" d="M 2631 1088 
Q 2516 522 2178 217 
Q 1841 -88 1431 -88 
Q 944 -88 581 321 
Q 219 731 219 1428 
Q 219 2103 620 2525 
Q 1022 2947 1584 2947 
Q 2006 2947 2278 2723 
Q 2550 2500 2550 2259 
Q 2550 2141 2473 2067 
Q 2397 1994 2259 1994 
Q 2075 1994 1981 2113 
Q 1928 2178 1911 2362 
Q 1894 2547 1784 2644 
Q 1675 2738 1481 2738 
Q 1169 2738 978 2506 
Q 725 2200 725 1697 
Q 725 1184 976 792 
Q 1228 400 1656 400 
Q 1963 400 2206 609 
Q 2378 753 2541 1131 
L 2631 1088 
z
" transform="scale(0.015625)"/>
       <path id="TimesNewRomanPSMT-79" d="M 38 2863 
L 1372 2863 
L 1372 2747 
L 1306 2747 
Q 1166 2747 1095 2686 
Q 1025 2625 1025 2534 
Q 1025 2413 1128 2197 
L 1825 753 
L 2466 2334 
Q 2519 2463 2519 2588 
Q 2519 2644 2497 2672 
Q 2472 2706 2419 2726 
Q 2366 2747 2231 2747 
L 2231 2863 
L 3163 2863 
L 3163 2747 
Q 3047 2734 2984 2696 
Q 2922 2659 2847 2556 
Q 2819 2513 2741 2316 
L 1575 -541 
Q 1406 -956 1132 -1168 
Q 859 -1381 606 -1381 
Q 422 -1381 303 -1275 
Q 184 -1169 184 -1031 
Q 184 -900 270 -820 
Q 356 -741 506 -741 
Q 609 -741 788 -809 
Q 913 -856 944 -856 
Q 1038 -856 1148 -759 
Q 1259 -663 1372 -384 
L 1575 113 
L 547 2272 
Q 500 2369 397 2513 
Q 319 2622 269 2659 
Q 197 2709 38 2747 
L 38 2863 
z
" transform="scale(0.015625)"/>
      </defs>
      <use xlink:href="#TimesNewRomanPSMT-41"/>
      <use xlink:href="#TimesNewRomanPSMT-63" transform="translate(72.216797 0)"/>
      <use xlink:href="#TimesNewRomanPSMT-63" transform="translate(116.601562 0)"/>
      <use xlink:href="#TimesNewRomanPSMT-75" transform="translate(160.986328 0)"/>
      <use xlink:href="#TimesNewRomanPSMT-72" transform="translate(210.986328 0)"/>
      <use xlink:href="#TimesNewRomanPSMT-61" transform="translate(244.287109 0)"/>
      <use xlink:href="#TimesNewRomanPSMT-63" transform="translate(288.671875 0)"/>
      <use xlink:href="#TimesNewRomanPSMT-79" transform="translate(333.056641 0)"/>
     </g>
    </g>
   </g>
   <g id="line2d_31">
    <path d="M 396.114187 178.5875 
L 396.352299 123.236203 
L 396.590411 116.317285 
L 396.685656 116.450331 
L 396.733278 116.317285 
L 396.97139 113.390043 
L 397.019012 114.188384 
L 397.161879 111.926438 
L 397.304746 111.926438 
L 397.352369 111.793376 
L 397.399991 112.192546 
L 397.495236 111.128096 
L 397.542858 111.527267 
L 397.685725 110.462817 
L 397.876214 109.26532 
L 397.923837 109.398367 
L 397.971459 109.26532 
L 398.019081 109.26532 
L 398.257193 107.801699 
L 398.304816 108.20087 
L 398.447683 108.067808 
L 398.542927 108.20087 
L 398.781039 106.870311 
L 398.828661 106.870311 
L 398.876284 107.003358 
L 398.923906 106.870311 
L 398.971528 106.737249 
L 399.066773 107.402529 
L 399.114396 107.13642 
L 399.257263 107.269482 
L 399.352507 107.003358 
L 399.495374 106.07197 
L 399.590619 106.07197 
L 399.733486 106.205032 
L 399.828731 105.938908 
L 399.876353 106.338078 
L 399.923975 106.07197 
L 400.114465 105.40669 
L 400.162087 105.539753 
L 400.20971 105.40669 
L 400.304954 104.874473 
L 400.352577 105.00752 
L 400.447821 105.539753 
L 400.495444 105.273628 
L 400.590688 105.140582 
L 400.638311 105.672799 
L 400.685933 105.140582 
L 400.876422 105.672799 
L 400.971667 105.40669 
L 401.01929 105.938908 
L 401.066912 105.40669 
L 401.114534 105.40669 
L 401.209779 105.938908 
L 401.257401 105.00752 
L 401.305024 105.40669 
L 401.352646 105.672799 
L 401.447891 104.874473 
L 401.543135 105.938908 
L 401.686002 104.608349 
L 401.733625 105.140582 
L 401.781247 104.874473 
L 401.828869 104.874473 
L 401.876492 105.00752 
L 401.924114 104.874473 
L 401.971737 104.608349 
L 402.019359 104.874473 
L 402.066981 104.741411 
L 402.114604 104.874473 
L 402.162226 105.00752 
L 402.305093 104.209194 
L 402.352715 104.34224 
L 402.400338 104.209194 
L 402.543205 103.676961 
L 402.590827 103.94307 
L 402.638449 103.410852 
L 402.686072 104.209194 
L 402.733694 103.27779 
L 402.876561 103.810023 
L 402.924183 103.011682 
L 403.019428 103.27779 
L 403.067051 103.810023 
L 403.114673 103.144744 
L 403.209918 102.612511 
L 403.305162 103.810023 
L 403.400407 102.612511 
L 403.448029 103.543899 
L 403.495652 103.410852 
L 403.590896 102.612511 
L 403.638519 102.878619 
L 403.781386 103.011682 
L 403.829008 102.346402 
L 403.87663 102.745573 
L 403.924253 103.27779 
L 403.971875 103.011682 
L 404.019498 102.080294 
L 404.06712 102.878619 
L 404.114742 103.144744 
L 404.162365 102.878619 
L 404.209987 101.947231 
L 404.257609 102.346402 
L 404.352854 102.878619 
L 404.448099 101.681123 
L 404.495721 102.21334 
L 404.543343 101.548061 
L 404.590966 101.681123 
L 404.638588 102.479464 
L 404.68621 101.814185 
L 404.733833 101.415014 
L 404.781455 101.814185 
L 404.829077 102.479464 
L 404.8767 102.346402 
L 404.924322 101.415014 
L 404.971945 101.548061 
L 405.067189 102.479464 
L 405.162434 101.281952 
L 405.257679 102.21334 
L 405.352923 101.148906 
L 405.400546 101.681123 
L 405.448168 102.346402 
L 405.49579 102.080294 
L 405.591035 101.415014 
L 405.68628 101.947231 
L 405.733902 101.814185 
L 405.781524 101.548061 
L 405.829147 101.947231 
L 405.924392 101.814185 
L 405.972014 101.814185 
L 406.019636 101.947231 
L 406.114881 101.548061 
L 406.257748 101.947231 
L 406.352993 101.281952 
L 406.400615 102.080294 
L 406.448237 101.814185 
L 406.543482 101.548061 
L 406.591104 101.015843 
L 406.686349 102.080294 
L 406.781594 101.015843 
L 406.829216 101.415014 
L 406.924461 101.947231 
L 407.019706 101.148906 
L 407.11495 101.814185 
L 407.210195 101.148906 
L 407.353062 101.814185 
L 407.448307 101.281952 
L 407.591174 101.947231 
L 407.638796 101.415014 
L 407.686418 101.947231 
L 407.734041 101.947231 
L 407.781663 101.548061 
L 407.876908 101.681123 
L 407.92453 101.814185 
L 407.972153 101.415014 
L 408.019775 101.814185 
L 408.067397 101.814185 
L 408.210264 101.415014 
L 408.257887 101.947231 
L 408.305509 101.415014 
L 408.448376 101.947231 
L 408.495998 101.681123 
L 408.591243 101.681123 
L 408.686488 101.947231 
L 408.781733 101.548061 
L 408.829355 101.814185 
L 408.876977 101.947231 
L 409.019844 101.148906 
L 409.115089 101.947231 
L 409.162711 101.681123 
L 409.210334 101.947231 
L 409.257956 101.015843 
L 409.305578 101.947231 
L 409.353201 102.21334 
L 409.448445 101.281952 
L 409.496068 101.814185 
L 409.638935 102.080294 
L 409.686557 101.015843 
L 409.734179 101.947231 
L 409.829424 102.21334 
L 409.924669 100.882781 
L 409.972291 101.814185 
L 410.019914 102.080294 
L 410.067536 101.947231 
L 410.162781 100.749735 
L 410.258025 101.814185 
L 410.35327 101.281952 
L 410.400892 102.21334 
L 410.448515 101.281952 
L 410.543759 101.015843 
L 410.639004 101.814185 
L 410.781871 100.749735 
L 410.829494 100.749735 
L 410.877116 101.681123 
L 410.924738 100.882781 
L 411.019983 100.616673 
L 411.115228 101.015843 
L 411.258095 100.217502 
L 411.353339 100.882781 
L 411.400962 100.749735 
L 411.543829 100.350564 
L 411.591451 100.749735 
L 411.639073 100.350564 
L 411.686696 100.350564 
L 411.829563 100.749735 
L 411.877185 100.48361 
L 411.924808 100.616673 
L 411.97243 100.616673 
L 412.020052 100.48361 
L 412.067675 100.749735 
L 412.115297 100.48361 
L 412.162919 100.616673 
L 412.210542 100.48361 
L 412.258164 100.48361 
L 412.305786 100.749735 
L 412.353409 100.48361 
L 412.448653 100.48361 
L 412.496276 100.882781 
L 412.543898 100.749735 
L 412.639143 100.350564 
L 412.686765 100.48361 
L 412.734388 100.882781 
L 412.78201 100.084456 
L 412.877255 100.350564 
L 412.972499 100.616673 
L 413.115366 100.217502 
L 413.210611 100.616673 
L 413.353478 100.350564 
L 413.4011 100.616673 
L 413.448723 100.48361 
L 413.59159 100.350564 
L 413.639212 100.350564 
L 413.686835 100.217502 
L 413.734457 100.350564 
L 413.924946 100.350564 
L 413.972569 100.217502 
L 414.020191 100.350564 
L 414.115436 100.616673 
L 414.21068 100.350564 
L 414.305925 100.48361 
L 414.353547 100.350564 
L 414.40117 100.48361 
L 414.496414 100.749735 
L 414.544037 100.616673 
L 414.591659 100.217502 
L 414.639282 100.616673 
L 414.734526 100.217502 
L 414.829771 100.749735 
L 414.877393 100.217502 
L 414.972638 100.350564 
L 415.067883 100.749735 
L 415.258372 99.951393 
L 415.305994 100.350564 
L 415.353617 100.217502 
L 415.448861 99.951393 
L 415.496484 100.217502 
L 415.544106 100.084456 
L 415.591729 99.818331 
L 415.639351 100.217502 
L 415.734596 100.084456 
L 415.782218 100.350564 
L 415.925085 99.818331 
L 415.972707 99.818331 
L 416.02033 100.217502 
L 416.115574 100.084456 
L 416.306064 99.552223 
L 416.448931 99.951393 
L 416.591798 99.951393 
L 416.63942 99.552223 
L 416.687043 99.818331 
L 416.734665 99.818331 
L 416.782287 99.419176 
L 416.82991 99.951393 
L 416.925154 99.951393 
L 417.020399 99.419176 
L 417.068021 99.818331 
L 417.115644 99.818331 
L 417.163266 99.286114 
L 417.210888 99.951393 
L 417.258511 99.951393 
L 417.401378 99.552223 
L 417.544245 99.951393 
L 417.734734 99.685285 
L 417.877601 99.685285 
L 417.925224 99.419176 
L 417.972846 99.685285 
L 418.020468 99.818331 
L 418.068091 99.685285 
L 418.210958 99.552223 
L 418.25858 99.685285 
L 418.353825 99.419176 
L 418.496692 99.552223 
L 418.591937 99.153052 
L 418.734804 99.552223 
L 418.877671 99.286114 
L 418.972915 99.685285 
L 419.020538 99.419176 
L 419.163405 99.419176 
L 419.211027 99.685285 
L 419.258649 99.419176 
L 419.353894 99.419176 
L 419.496761 99.685285 
L 419.639628 99.552223 
L 419.687251 99.552223 
L 419.734873 99.685285 
L 419.782495 99.552223 
L 420.068229 99.552223 
L 420.115852 99.419176 
L 420.163474 99.552223 
L 420.211096 99.552223 
L 420.401586 99.286114 
L 420.449208 99.419176 
L 420.496831 99.286114 
L 420.592075 99.286114 
L 420.639698 99.153052 
L 420.68732 99.286114 
L 420.734942 99.286114 
L 420.877809 99.153052 
L 420.925432 99.153052 
L 420.973054 99.286114 
L 421.020676 99.153052 
L 421.30641 99.153052 
L 421.401655 99.286114 
L 421.4969 99.153052 
L 421.592145 99.286114 
L 421.735012 99.153052 
L 421.830256 99.153052 
L 421.925501 99.552223 
L 421.973123 99.419176 
L 422.020746 99.153052 
L 422.068368 99.552223 
L 422.163613 99.419176 
L 422.211235 99.419176 
L 422.401725 99.153052 
L 422.496969 99.419176 
L 422.639836 99.286114 
L 422.782703 99.419176 
L 422.830326 99.419176 
L 422.877948 99.153052 
L 422.92557 99.286114 
L 422.973193 99.419176 
L 423.020815 99.153052 
L 423.068437 99.419176 
L 423.163682 99.286114 
L 423.211304 99.419176 
L 423.258927 99.286114 
L 423.544661 99.286114 
L 423.687528 99.419176 
L 423.73515 99.419176 
L 423.830395 99.286114 
L 423.878017 99.419176 
L 423.92564 99.286114 
L 424.068507 99.286114 
L 424.211374 99.153052 
L 424.258996 99.153052 
L 424.306618 99.286114 
L 424.354241 99.153052 
L 424.401863 99.020005 
L 424.449486 99.153052 
L 424.497108 99.286114 
L 424.54473 99.153052 
L 424.592353 99.153052 
L 424.73522 99.020005 
L 424.925709 99.286114 
L 425.068576 99.153052 
L 425.116198 99.153052 
L 425.163821 99.286114 
L 425.211443 99.020005 
L 425.259065 99.419176 
L 425.306688 99.153052 
L 425.5448 99.153052 
L 425.592422 99.020005 
L 425.640044 99.153052 
L 425.687667 99.153052 
L 425.735289 99.020005 
L 425.782911 99.153052 
L 426.021023 99.153052 
L 426.211512 99.419176 
L 426.35438 99.020005 
L 426.402002 99.020005 
L 426.449624 99.419176 
L 426.497247 99.020005 
L 426.544869 99.020005 
L 426.640114 99.419176 
L 426.687736 99.020005 
L 426.735358 99.419176 
L 426.782981 99.286114 
L 426.830603 99.419176 
L 427.068715 99.419176 
L 427.163959 99.153052 
L 427.259204 99.552223 
L 427.306827 99.419176 
L 427.402071 99.552223 
L 427.497316 99.286114 
L 427.544938 99.685285 
L 427.592561 99.419176 
L 427.640183 99.020005 
L 427.687805 99.286114 
L 427.78305 99.818331 
L 427.830672 99.419176 
L 427.878295 99.419176 
L 427.925917 99.685285 
L 427.973539 99.552223 
L 428.402141 99.552223 
L 428.545008 99.419176 
L 429.116476 99.419176 
L 429.164098 99.552223 
L 429.211721 99.419176 
L 429.259343 99.419176 
L 429.40221 99.552223 
L 429.545077 99.552223 
L 429.687944 99.419176 
L 429.783189 99.419176 
L 429.830811 99.153052 
L 429.878433 99.419176 
L 430.0213 99.419176 
L 430.116545 99.153052 
L 430.164167 99.286114 
L 430.21179 99.153052 
L 430.259412 99.153052 
L 430.402279 99.286114 
L 430.497524 99.153052 
L 430.640391 99.286114 
L 430.688013 99.286114 
L 430.83088 99.153052 
L 430.878503 99.419176 
L 430.926125 99.020005 
L 431.02137 99.153052 
L 431.068992 99.020005 
L 431.116614 99.153052 
L 431.259482 99.153052 
L 431.307104 99.020005 
L 431.449971 99.419176 
L 431.497593 99.552223 
L 431.545216 99.153052 
L 431.592838 99.419176 
L 431.688083 99.419176 
L 431.83095 99.286114 
L 431.973817 99.552223 
L 432.021439 99.552223 
L 432.116684 99.419176 
L 432.164306 99.685285 
L 432.211929 99.419176 
L 432.259551 99.286114 
L 432.307173 99.685285 
L 432.354796 99.286114 
L 432.402418 99.286114 
L 432.45004 99.818331 
L 432.497663 99.286114 
L 432.592907 99.552223 
L 432.735774 99.419176 
L 433.164376 99.419176 
L 433.307243 99.552223 
L 433.45011 99.286114 
L 433.640599 99.286114 
L 433.688221 99.419176 
L 433.735844 99.286114 
L 433.783466 99.286114 
L 433.831088 99.419176 
L 433.878711 99.286114 
L 433.926333 99.153052 
L 433.973955 99.286114 
L 434.021578 99.286114 
L 434.0692 99.153052 
L 434.116823 99.286114 
L 434.164445 99.286114 
L 434.212067 99.419176 
L 434.25969 99.286114 
L 434.307312 99.286114 
L 434.450179 99.419176 
L 434.497801 99.419176 
L 434.545424 99.153052 
L 434.593046 99.419176 
L 434.735913 99.020005 
L 434.87878 99.286114 
L 435.021647 99.286114 
L 435.164514 99.153052 
L 435.212137 99.153052 
L 435.259759 99.286114 
L 435.307381 99.020005 
L 435.355004 99.286114 
L 435.497871 99.153052 
L 435.545493 99.153052 
L 435.68836 99.286114 
L 435.831227 99.286114 
L 435.974094 99.419176 
L 436.021717 99.419176 
L 436.212206 99.153052 
L 436.259828 99.153052 
L 436.307451 99.419176 
L 436.355073 99.286114 
L 436.450318 99.153052 
L 436.640807 99.419176 
L 436.736052 99.419176 
L 436.831296 99.286114 
L 436.974163 99.419176 
L 437.069408 99.286114 
L 437.212275 99.419176 
L 437.355142 99.286114 
L 437.545632 99.286114 
L 437.593254 99.419176 
L 437.640876 99.286114 
L 437.688499 99.286114 
L 437.831366 99.419176 
L 437.974233 99.419176 
L 438.1171 99.286114 
L 438.164722 99.286114 
L 438.307589 99.419176 
L 438.450456 99.286114 
L 438.498079 99.286114 
L 438.640946 99.552223 
L 438.73619 99.286114 
L 438.879057 99.419176 
L 439.021925 99.419176 
L 439.117169 99.286114 
L 439.164792 99.419176 
L 439.212414 99.286114 
L 439.450526 99.286114 
L 439.54577 99.419176 
L 439.641015 99.153052 
L 439.688637 99.419176 
L 439.73626 99.286114 
L 439.879127 98.886943 
L 439.926749 99.020005 
L 439.974372 99.020005 
L 440.069616 98.753897 
L 440.307728 99.419176 
L 440.35535 99.286114 
L 440.402973 99.286114 
L 440.593462 99.552223 
L 441.069686 99.552223 
L 441.212553 99.685285 
L 441.260175 99.552223 
L 441.307797 99.685285 
L 442.831713 99.685285 
L 442.97458 99.818331 
L 443.069824 99.818331 
L 443.212691 99.685285 
L 443.403181 99.951393 
L 443.59367 99.951393 
L 443.688915 99.818331 
L 443.831782 99.951393 
L 444.212761 99.951393 
L 444.308005 99.552223 
L 444.450872 99.951393 
L 444.593739 99.818331 
L 444.641362 99.951393 
L 444.688984 99.685285 
L 444.736606 99.951393 
L 444.831851 99.818331 
L 444.879474 99.951393 
L 444.927096 99.818331 
L 445.069963 99.818331 
L 445.21283 99.685285 
L 445.260452 99.685285 
L 445.355697 99.818331 
L 445.450942 99.685285 
L 445.498564 99.818331 
L 445.546186 99.685285 
L 445.689053 99.685285 
L 445.736676 99.552223 
L 445.879543 99.818331 
L 446.02241 99.818331 
L 446.070032 99.685285 
L 446.212899 99.951393 
L 446.260522 99.951393 
L 446.308144 99.818331 
L 446.355766 99.951393 
L 446.546256 99.951393 
L 446.593878 99.818331 
L 446.6415 99.951393 
L 446.879612 99.951393 
L 446.927235 100.084456 
L 446.974857 99.951393 
L 447.45108 99.951393 
L 447.498703 100.084456 
L 447.546325 99.951393 
L 447.689192 99.951393 
L 447.832059 100.084456 
L 447.927304 100.084456 
L 447.974926 99.951393 
L 448.022549 100.084456 
L 448.070171 100.084456 
L 448.117793 99.951393 
L 448.165416 100.084456 
L 448.213038 100.217502 
L 448.26066 100.084456 
L 448.308283 100.084456 
L 448.355905 100.217502 
L 448.403527 100.084456 
L 448.498772 100.084456 
L 448.641639 100.217502 
L 448.784506 100.084456 
L 450.87989 100.084456 
L 450.927512 99.951393 
L 450.975134 100.084456 
L 451.546602 100.084456 
L 451.594225 100.350564 
L 451.641847 100.217502 
L 451.68947 100.084456 
L 451.737092 100.217502 
L 451.784714 100.350564 
L 451.832337 100.084456 
L 451.879959 100.217502 
L 452.118071 100.217502 
L 452.165693 100.350564 
L 452.213315 100.217502 
L 452.356182 100.217502 
L 452.499049 100.350564 
L 452.641917 100.217502 
L 452.689539 100.217502 
L 452.784784 100.350564 
L 452.832406 100.217502 
L 452.880028 100.350564 
L 452.927651 100.350564 
L 452.975273 100.217502 
L 453.022895 100.350564 
L 453.261007 100.350564 
L 453.308629 100.084456 
L 453.356252 100.350564 
L 453.451496 100.350564 
L 453.594364 100.217502 
L 453.689608 100.350564 
L 453.832475 100.217502 
L 455.737369 100.217502 
L 455.784992 100.084456 
L 455.832614 100.217502 
L 455.880236 100.217502 
L 455.927859 100.084456 
L 455.975481 100.217502 
L 456.118348 100.217502 
L 456.213593 100.084456 
L 456.35646 100.217502 
L 456.404082 100.217502 
L 456.546949 100.084456 
L 456.689816 100.217502 
L 456.832683 100.084456 
L 456.927928 100.084456 
L 457.070795 100.217502 
L 457.118417 100.217502 
L 457.213662 100.084456 
L 457.356529 100.217502 
L 457.451774 100.217502 
L 457.594641 100.084456 
L 457.737508 100.217502 
L 457.97562 100.217502 
L 458.023242 100.48361 
L 458.070864 100.350564 
L 458.213731 100.217502 
L 458.308976 100.217502 
L 458.404221 100.48361 
L 458.547088 100.217502 
L 459.070934 100.217502 
L 459.213801 100.350564 
L 459.309045 100.084456 
L 459.356668 100.350564 
L 459.40429 100.217502 
L 459.642402 100.217502 
L 459.785269 100.084456 
L 459.832891 100.084456 
L 459.880514 100.217502 
L 459.928136 100.084456 
L 459.975758 100.084456 
L 460.071003 100.217502 
L 460.21387 100.084456 
L 460.40436 100.084456 
L 460.499604 100.217502 
L 460.547227 99.951393 
L 460.594849 100.084456 
L 460.690094 100.217502 
L 460.832961 99.951393 
L 460.975828 100.217502 
L 461.118695 99.818331 
L 461.213939 100.217502 
L 461.261562 100.084456 
L 461.404429 100.217502 
L 461.499674 100.217502 
L 461.642541 100.084456 
L 461.880652 100.084456 
L 462.023519 100.217502 
L 462.166386 100.084456 
L 462.214009 100.084456 
L 462.261631 99.818331 
L 462.309254 100.084456 
L 462.356876 100.084456 
L 462.499743 99.685285 
L 462.64261 100.084456 
L 462.737855 100.084456 
L 462.785477 99.685285 
L 462.833099 100.084456 
L 462.928344 100.084456 
L 462.975966 99.818331 
L 463.023589 99.951393 
L 463.118833 100.084456 
L 463.214078 99.818331 
L 463.309323 100.084456 
L 463.499812 99.685285 
L 463.642679 99.818331 
L 463.737924 99.818331 
L 463.880791 99.951393 
L 463.976036 99.818331 
L 464.118903 99.951393 
L 464.309392 99.685285 
L 464.357015 99.685285 
L 464.499882 99.818331 
L 464.547504 99.818331 
L 464.690371 100.217502 
L 464.737993 99.818331 
L 464.88086 102.21334 
L 464.928483 100.084456 
L 464.976105 100.350564 
L 465.023727 102.346402 
L 465.07135 101.281952 
L 465.118972 99.552223 
L 465.166594 100.350564 
L 465.214217 100.350564 
L 465.261839 100.48361 
L 465.404706 99.818331 
L 465.547573 99.685285 
L 465.642818 99.685285 
L 465.88093 100.084456 
L 466.023797 100.084456 
L 466.214286 100.350564 
L 466.309531 100.350564 
L 466.785754 101.415014 
L 466.928621 100.749735 
L 467.071488 100.616673 
L 467.3096 100.616673 
L 467.404845 100.882781 
L 467.452467 100.749735 
L 467.642957 100.749735 
L 467.785824 100.616673 
L 467.881068 100.616673 
L 468.023935 100.48361 
L 468.11918 100.48361 
L 468.262047 100.350564 
L 469.309739 100.350564 
L 469.452606 100.217502 
L 470.119319 100.217502 
L 470.309808 99.951393 
L 471.738479 99.951393 
L 471.786101 100.084456 
L 471.928968 99.818331 
L 472.881415 99.818331 
L 473.024282 99.951393 
L 473.262394 99.951393 
L 473.405261 99.818331 
L 474.40533 99.818331 
L 474.548197 99.951393 
L 474.976799 99.951393 
L 475.119666 99.818331 
L 477.977007 99.818331 
L 478.119874 99.951393 
L 478.262741 99.951393 
L 478.405608 100.084456 
L 482.691619 100.084456 
L 482.834486 100.217502 
L 485.596582 100.217502 
L 485.73945 100.084456 
L 488.215812 100.084456 
L 488.358679 100.217502 
L 492.311334 100.217502 
L 492.454201 100.084456 
L 495.025808 100.084456 
L 495.168675 100.217502 
L 495.930632 100.217502 
L 496.073499 100.350564 
L 496.168744 100.350564 
L 496.311611 100.48361 
L 497.121191 100.48361 
L 497.264058 100.350564 
L 498.502239 100.350564 
L 498.645106 100.217502 
L 502.645384 100.217502 
L 502.788251 100.084456 
L 503.78832 100.084456 
L 503.931187 100.217502 
L 511.979364 100.217502 
L 512.122231 100.084456 
L 514.312859 100.084456 
L 514.455726 100.217502 
L 518.313137 100.217502 
L 518.360759 100.084456 
L 518.408381 100.217502 
L 518.551248 100.217502 
L 518.646493 100.084456 
L 518.694115 100.217502 
L 518.741738 100.084456 
L 520.456142 100.084456 
L 520.599009 99.951393 
L 522.075302 99.951393 
L 522.265792 99.685285 
L 526.551803 99.685285 
L 526.69467 99.552223 
L 531.075926 99.552223 
L 531.218793 99.685285 
L 531.837884 99.685285 
L 531.980751 99.552223 
L 534.361869 99.552223 
L 534.504736 99.685285 
L 535.171448 99.685285 
L 535.219071 99.552223 
L 535.266693 99.685285 
L 535.314316 99.685285 
L 535.457183 99.552223 
L 536.028651 99.552223 
L 536.123895 99.419176 
L 536.266763 99.552223 
L 536.40963 99.419176 
L 537.647811 99.419176 
L 537.790678 99.286114 
L 538.981236 99.286114 
L 539.124103 99.419176 
L 541.124242 99.419176 
L 541.267109 99.286114 
L 541.362354 99.286114 
L 541.409976 99.419176 
L 541.457599 99.286114 
L 544.076828 99.286114 
L 544.219695 99.419176 
L 545.267387 99.419176 
L 545.315009 99.286114 
L 545.362631 99.419176 
L 545.505498 99.419176 
L 545.600743 99.286114 
L 545.74361 99.419176 
L 546.743679 99.419176 
L 546.791302 99.286114 
L 546.838924 99.419176 
L 547.029414 99.419176 
L 547.077036 99.286114 
L 547.124658 99.419176 
L 547.172281 99.419176 
L 547.315148 99.286114 
L 549.839132 99.286114 
L 549.934377 99.419176 
L 550.077244 99.286114 
L 550.124866 99.286114 
L 550.267733 99.419176 
L 550.60109 99.419176 
L 550.743957 99.552223 
L 550.839202 99.552223 
L 550.982069 99.685285 
L 561.887587 99.685285 
L 561.982831 99.818331 
L 562.030454 99.685285 
L 562.078076 99.818331 
L 568.554716 99.818331 
L 568.602338 99.951393 
L 568.64996 99.818331 
L 568.697583 99.818331 
L 568.84045 99.951393 
L 568.888072 99.951393 
L 568.935694 99.818331 
L 568.983317 99.951393 
L 569.030939 99.951393 
L 569.078561 99.818331 
L 569.126184 99.951393 
L 569.507163 99.951393 
L 569.602407 100.084456 
L 569.745274 99.951393 
L 569.792897 99.951393 
L 569.935764 100.084456 
L 570.078631 99.951393 
L 571.0787 99.951393 
L 571.221567 100.084456 
L 584.127224 100.084456 
L 584.270091 100.217502 
L 584.46058 100.217502 
L 584.603447 100.350564 
L 585.794006 100.350564 
L 585.936873 100.48361 
L 591.7468 100.48361 
L 591.842045 100.616673 
L 591.889667 100.48361 
L 591.937289 100.616673 
L 593.699316 100.616673 
L 593.842183 100.749735 
L 595.366098 100.749735 
L 595.413721 100.616673 
L 595.508965 100.882781 
L 595.556588 126.828708 
L 595.60421 101.947231 
L 595.651833 104.874473 
L 595.699455 102.479464 
L 595.842322 99.818331 
L 595.889944 99.552223 
L 595.937567 99.685285 
L 595.985189 99.951393 
L 596.032811 99.685285 
L 596.128056 99.419176 
L 596.318545 100.084456 
L 596.41379 99.951393 
L 596.509035 99.685285 
L 596.556657 99.818331 
L 596.699524 100.48361 
L 596.842391 100.350564 
L 597.032881 100.350564 
L 597.22337 100.084456 
L 597.270992 100.084456 
L 597.413859 99.685285 
L 597.556727 99.951393 
L 597.604349 99.818331 
L 597.651971 99.951393 
L 597.794838 99.951393 
L 597.985328 99.685285 
L 598.03295 99.685285 
L 598.175817 99.818331 
L 598.318684 99.685285 
L 598.413929 99.685285 
L 598.556796 99.818331 
L 599.175886 99.818331 
L 599.318753 99.685285 
L 599.604488 99.685285 
L 599.747355 99.818331 
L 600.414067 99.818331 
L 600.556935 99.951393 
L 601.033158 99.951393 
L 601.176025 100.217502 
L 601.318892 100.217502 
L 601.461759 100.350564 
L 601.557004 100.350564 
L 601.699871 100.48361 
L 604.747701 100.48361 
L 604.890568 100.350564 
L 605.890638 100.350564 
L 606.033505 100.217502 
L 606.604973 100.217502 
L 606.795462 100.48361 
L 608.795601 100.48361 
L 608.938468 100.350564 
L 609.890915 100.350564 
L 610.033782 100.217502 
L 610.510006 100.217502 
L 610.652873 100.084456 
L 612.081543 100.084456 
L 612.129165 99.951393 
L 612.176788 100.084456 
L 612.748256 100.084456 
L 612.891123 100.217502 
L 614.891262 100.217502 
L 615.034129 100.084456 
L 615.891331 100.084456 
L 616.034198 100.217502 
L 616.558044 100.217502 
L 616.700911 100.350564 
L 618.70105 100.350564 
L 618.843917 100.48361 
L 620.510699 100.48361 
L 620.653566 100.616673 
L 620.844055 100.616673 
L 620.891678 100.48361 
L 620.9393 100.616673 
L 621.12979 100.616673 
L 621.177412 100.48361 
L 621.225034 100.616673 
L 621.320279 100.616673 
L 621.463146 101.281952 
L 621.510768 101.015843 
L 621.558391 102.21334 
L 621.606013 101.415014 
L 621.701258 100.749735 
L 621.796502 101.548061 
L 621.891747 100.749735 
L 621.93937 100.882781 
L 622.034614 100.882781 
L 622.177481 100.616673 
L 622.320348 100.749735 
L 622.415593 100.749735 
L 622.55846 100.616673 
L 622.939439 100.616673 
L 623.129928 100.882781 
L 623.225173 100.749735 
L 623.36804 101.015843 
L 623.463285 101.015843 
L 623.606152 100.882781 
L 623.891886 100.882781 
L 624.034753 100.749735 
L 624.129998 100.749735 
L 624.272865 100.616673 
L 625.320556 100.616673 
L 625.463423 100.749735 
L 625.844402 100.749735 
L 625.987269 100.616673 
L 626.225381 100.616673 
L 626.368248 100.48361 
L 626.749227 100.48361 
L 626.892094 100.350564 
L 629.0351 100.350564 
L 629.177967 100.217502 
L 629.320834 100.217502 
L 629.463701 100.084456 
L 629.987547 100.084456 
L 630.130414 99.951393 
L 631.797196 99.951393 
L 631.844818 100.217502 
L 631.892441 100.084456 
L 632.559153 100.084456 
L 632.702021 100.217502 
L 633.082999 100.217502 
L 633.225866 100.350564 
L 633.463978 100.350564 
L 633.606845 100.48361 
L 637.511878 100.48361 
L 637.654745 100.350564 
L 638.273835 100.350564 
L 638.416703 100.48361 
L 639.797751 100.48361 
L 639.940618 100.616673 
L 640.321596 100.616673 
L 640.464464 100.48361 
L 640.893065 100.48361 
L 641.035932 100.616673 
L 641.750267 100.616673 
L 641.893134 100.749735 
L 641.940756 100.749735 
L 642.036001 100.616673 
L 642.178868 100.749735 
L 642.512225 100.749735 
L 642.655092 100.882781 
L 643.131315 100.882781 
L 643.274182 100.749735 
L 644.798097 100.749735 
L 644.940964 100.882781 
L 645.512433 100.882781 
L 645.6553 101.015843 
L 645.702922 101.015843 
L 645.845789 101.148906 
L 645.988656 101.148906 
L 646.131523 101.015843 
L 646.750614 101.015843 
L 646.893481 100.882781 
L 647.560194 100.882781 
L 647.703061 100.749735 
L 647.845928 100.882781 
L 649.417465 100.882781 
L 649.560332 100.749735 
L 650.560402 100.749735 
L 650.703269 100.882781 
L 653.084386 100.882781 
L 653.227253 101.015843 
L 655.036903 101.015843 
L 655.17977 101.281952 
L 655.513126 101.281952 
L 655.655993 101.148906 
L 658.418089 101.148906 
L 658.560956 101.281952 
L 659.799137 101.281952 
L 659.942005 101.148906 
L 661.656409 101.148906 
L 661.799276 101.281952 
L 662.370744 101.281952 
L 662.513611 101.148906 
L 663.418436 101.148906 
L 663.561303 101.281952 
L 664.51375 101.281952 
L 664.656617 101.148906 
L 665.751931 101.148906 
L 665.894798 101.015843 
L 666.085288 101.015843 
L 666.228155 101.148906 
L 666.799623 101.148906 
L 666.94249 101.015843 
L 668.180671 101.015843 
L 668.323538 101.148906 
L 669.37123 101.148906 
L 669.514097 101.281952 
L 674.990667 101.281952 
L 675.181156 101.015843 
L 677.038428 101.015843 
L 677.181295 101.148906 
L 679.324301 101.148906 
L 679.467168 101.015843 
L 680.419615 101.015843 
L 680.562482 101.148906 
L 684.134158 101.148906 
L 684.277025 101.015843 
L 691.087021 101.015843 
L 691.229888 100.882781 
L 692.658559 100.882781 
L 692.801426 101.015843 
L 696.039746 101.015843 
L 696.182613 100.882781 
L 696.611214 100.882781 
L 696.754081 101.015843 
L 697.801773 101.015843 
L 697.94464 100.882781 
L 698.706597 100.882781 
L 698.849464 100.749735 
L 698.944709 100.749735 
L 699.087576 100.882781 
L 725.232246 100.882781 
L 725.375113 101.015843 
L 733.947136 101.015843 
L 734.090003 101.148906 
L 739.09035 101.148906 
L 739.233217 101.015843 
L 740.185664 101.015843 
L 740.328531 101.148906 
L 752.234118 101.148906 
L 752.376985 101.015843 
L 753.234187 101.015843 
L 753.234187 101.015843 
" clip-path="url(#pb840e2c0b2)" style="fill: none; stroke: #1f77b4; stroke-width: 1.5; stroke-linecap: square"/>
   </g>
   <g id="patch_3">
    <path d="M 396.114187 311.6435 
L 396.114187 45.5315 
" style="fill: none; stroke: #000000; stroke-width: 0.8; stroke-linejoin: miter; stroke-linecap: square"/>
   </g>
   <g id="patch_4">
    <path d="M 753.234187 311.6435 
L 753.234187 45.5315 
" style="fill: none; stroke: #000000; stroke-width: 0.8; stroke-linejoin: miter; stroke-linecap: square"/>
   </g>
   <g id="patch_5">
    <path d="M 396.114187 311.6435 
L 753.234187 311.6435 
" style="fill: none; stroke: #000000; stroke-width: 0.8; stroke-linejoin: miter; stroke-linecap: square"/>
   </g>
   <g id="patch_6">
    <path d="M 396.114187 45.5315 
L 753.234187 45.5315 
" style="fill: none; stroke: #000000; stroke-width: 0.8; stroke-linejoin: miter; stroke-linecap: square"/>
   </g>
   <g id="text_18">
    <!-- Accuracy of the 09_07_25_CIFAR10_torch_model_(1024+2048-2048.1+1)_elk-horse on the validation set -->
    <g transform="translate(7.2 25.5315) scale(0.264 -0.264)">
     <defs>
      <path id="TimesNewRomanPSMT-68" d="M 1041 4444 
L 1041 2350 
Q 1388 2731 1591 2839 
Q 1794 2947 1997 2947 
Q 2241 2947 2416 2812 
Q 2591 2678 2675 2391 
Q 2734 2191 2734 1659 
L 2734 647 
Q 2734 375 2778 275 
Q 2809 200 2884 156 
Q 2959 113 3159 113 
L 3159 0 
L 1753 0 
L 1753 113 
L 1819 113 
Q 2019 113 2097 173 
Q 2175 234 2206 353 
Q 2216 403 2216 647 
L 2216 1659 
Q 2216 2128 2167 2275 
Q 2119 2422 2012 2495 
Q 1906 2569 1756 2569 
Q 1603 2569 1437 2487 
Q 1272 2406 1041 2159 
L 1041 647 
Q 1041 353 1073 281 
Q 1106 209 1195 161 
Q 1284 113 1503 113 
L 1503 0 
L 84 0 
L 84 113 
Q 275 113 384 172 
Q 447 203 484 290 
Q 522 378 522 647 
L 522 3238 
Q 522 3728 498 3840 
Q 475 3953 426 3993 
Q 378 4034 297 4034 
Q 231 4034 84 3984 
L 41 4094 
L 897 4444 
L 1041 4444 
z
" transform="scale(0.015625)"/>
      <path id="TimesNewRomanPSMT-5f" d="M 3256 -1381 
L -53 -1381 
L -53 -1119 
L 3256 -1119 
L 3256 -1381 
z
" transform="scale(0.015625)"/>
      <path id="TimesNewRomanPSMT-43" d="M 3853 4334 
L 3950 2894 
L 3853 2894 
Q 3659 3541 3300 3825 
Q 2941 4109 2438 4109 
Q 2016 4109 1675 3895 
Q 1334 3681 1139 3212 
Q 944 2744 944 2047 
Q 944 1472 1128 1050 
Q 1313 628 1683 403 
Q 2053 178 2528 178 
Q 2941 178 3256 354 
Q 3572 531 3950 1056 
L 4047 994 
Q 3728 428 3303 165 
Q 2878 -97 2294 -97 
Q 1241 -97 663 684 
Q 231 1266 231 2053 
Q 231 2688 515 3219 
Q 800 3750 1298 4042 
Q 1797 4334 2388 4334 
Q 2847 4334 3294 4109 
Q 3425 4041 3481 4041 
Q 3566 4041 3628 4100 
Q 3709 4184 3744 4334 
L 3853 4334 
z
" transform="scale(0.015625)"/>
      <path id="TimesNewRomanPSMT-49" d="M 1975 116 
L 1975 0 
L 159 0 
L 159 116 
L 309 116 
Q 572 116 691 269 
Q 766 369 766 750 
L 766 3488 
Q 766 3809 725 3913 
Q 694 3991 597 4047 
Q 459 4122 309 4122 
L 159 4122 
L 159 4238 
L 1975 4238 
L 1975 4122 
L 1822 4122 
Q 1563 4122 1444 3969 
Q 1366 3869 1366 3488 
L 1366 750 
Q 1366 428 1406 325 
Q 1438 247 1538 191 
Q 1672 116 1822 116 
L 1975 116 
z
" transform="scale(0.015625)"/>
      <path id="TimesNewRomanPSMT-46" d="M 1309 4006 
L 1309 2341 
L 2081 2341 
Q 2347 2341 2470 2458 
Q 2594 2575 2634 2922 
L 2750 2922 
L 2750 1488 
L 2634 1488 
Q 2631 1734 2570 1850 
Q 2509 1966 2401 2023 
Q 2294 2081 2081 2081 
L 1309 2081 
L 1309 750 
Q 1309 428 1350 325 
Q 1381 247 1481 191 
Q 1619 116 1769 116 
L 1922 116 
L 1922 0 
L 103 0 
L 103 116 
L 253 116 
Q 516 116 634 269 
Q 709 369 709 750 
L 709 3488 
Q 709 3809 669 3913 
Q 638 3991 541 4047 
Q 406 4122 253 4122 
L 103 4122 
L 103 4238 
L 3256 4238 
L 3297 3306 
L 3188 3306 
Q 3106 3603 2998 3742 
Q 2891 3881 2733 3943 
Q 2575 4006 2244 4006 
L 1309 4006 
z
" transform="scale(0.015625)"/>
      <path id="TimesNewRomanPSMT-52" d="M 4325 0 
L 3194 0 
L 1759 1981 
Q 1600 1975 1500 1975 
Q 1459 1975 1412 1976 
Q 1366 1978 1316 1981 
L 1316 750 
Q 1316 350 1403 253 
Q 1522 116 1759 116 
L 1925 116 
L 1925 0 
L 109 0 
L 109 116 
L 269 116 
Q 538 116 653 291 
Q 719 388 719 750 
L 719 3488 
Q 719 3888 631 3984 
Q 509 4122 269 4122 
L 109 4122 
L 109 4238 
L 1653 4238 
Q 2328 4238 2648 4139 
Q 2969 4041 3192 3777 
Q 3416 3513 3416 3147 
Q 3416 2756 3161 2468 
Q 2906 2181 2372 2063 
L 3247 847 
Q 3547 428 3762 290 
Q 3978 153 4325 116 
L 4325 0 
z
M 1316 2178 
Q 1375 2178 1419 2176 
Q 1463 2175 1491 2175 
Q 2097 2175 2405 2437 
Q 2713 2700 2713 3106 
Q 2713 3503 2464 3751 
Q 2216 4000 1806 4000 
Q 1625 4000 1316 3941 
L 1316 2178 
z
" transform="scale(0.015625)"/>
      <path id="TimesNewRomanPSMT-64" d="M 2222 322 
Q 2013 103 1813 7 
Q 1613 -88 1381 -88 
Q 913 -88 563 304 
Q 213 697 213 1313 
Q 213 1928 600 2439 
Q 988 2950 1597 2950 
Q 1975 2950 2222 2709 
L 2222 3238 
Q 2222 3728 2198 3840 
Q 2175 3953 2125 3993 
Q 2075 4034 2000 4034 
Q 1919 4034 1784 3984 
L 1744 4094 
L 2597 4444 
L 2738 4444 
L 2738 1134 
Q 2738 631 2761 520 
Q 2784 409 2836 365 
Q 2888 322 2956 322 
Q 3041 322 3181 375 
L 3216 266 
L 2366 -88 
L 2222 -88 
L 2222 322 
z
M 2222 541 
L 2222 2016 
Q 2203 2228 2109 2403 
Q 2016 2578 1861 2667 
Q 1706 2756 1559 2756 
Q 1284 2756 1069 2509 
Q 784 2184 784 1559 
Q 784 928 1059 592 
Q 1334 256 1672 256 
Q 1956 256 2222 541 
z
" transform="scale(0.015625)"/>
      <path id="TimesNewRomanPSMT-6c" d="M 1184 4444 
L 1184 647 
Q 1184 378 1223 290 
Q 1263 203 1344 158 
Q 1425 113 1647 113 
L 1647 0 
L 244 0 
L 244 113 
Q 441 113 512 153 
Q 584 194 625 287 
Q 666 381 666 647 
L 666 3247 
Q 666 3731 644 3842 
Q 622 3953 573 3993 
Q 525 4034 450 4034 
Q 369 4034 244 3984 
L 191 4094 
L 1044 4444 
L 1184 4444 
z
" transform="scale(0.015625)"/>
      <path id="TimesNewRomanPSMT-28" d="M 1988 -1253 
L 1988 -1369 
Q 1516 -1131 1200 -813 
Q 750 -359 506 256 
Q 263 872 263 1534 
Q 263 2503 741 3301 
Q 1219 4100 1988 4444 
L 1988 4313 
Q 1603 4100 1356 3731 
Q 1109 3363 987 2797 
Q 866 2231 866 1616 
Q 866 947 969 400 
Q 1050 -31 1165 -292 
Q 1281 -553 1476 -793 
Q 1672 -1034 1988 -1253 
z
" transform="scale(0.015625)"/>
      <path id="TimesNewRomanPSMT-2b" d="M 1672 441 
L 1672 2000 
L 116 2000 
L 116 2256 
L 1672 2256 
L 1672 3809 
L 1922 3809 
L 1922 2256 
L 3484 2256 
L 3484 2000 
L 1922 2000 
L 1922 441 
L 1672 441 
z
" transform="scale(0.015625)"/>
      <path id="TimesNewRomanPSMT-2d" d="M 259 1672 
L 1875 1672 
L 1875 1200 
L 259 1200 
L 259 1672 
z
" transform="scale(0.015625)"/>
      <path id="TimesNewRomanPSMT-29" d="M 144 4313 
L 144 4444 
Q 619 4209 934 3891 
Q 1381 3434 1625 2820 
Q 1869 2206 1869 1541 
Q 1869 572 1392 -226 
Q 916 -1025 144 -1369 
L 144 -1253 
Q 528 -1038 776 -670 
Q 1025 -303 1145 264 
Q 1266 831 1266 1447 
Q 1266 2113 1163 2663 
Q 1084 3094 967 3353 
Q 850 3613 656 3853 
Q 463 4094 144 4313 
z
" transform="scale(0.015625)"/>
      <path id="TimesNewRomanPSMT-6b" d="M 1047 4444 
L 1047 1594 
L 1775 2259 
Q 2006 2472 2044 2528 
Q 2069 2566 2069 2603 
Q 2069 2666 2017 2711 
Q 1966 2756 1847 2763 
L 1847 2863 
L 3091 2863 
L 3091 2763 
Q 2834 2756 2664 2684 
Q 2494 2613 2291 2428 
L 1556 1750 
L 2291 822 
Q 2597 438 2703 334 
Q 2853 188 2966 144 
Q 3044 113 3238 113 
L 3238 0 
L 1847 0 
L 1847 113 
Q 1966 116 2008 148 
Q 2050 181 2050 241 
Q 2050 313 1925 472 
L 1047 1594 
L 1047 644 
Q 1047 366 1086 278 
Q 1125 191 1197 153 
Q 1269 116 1509 113 
L 1509 0 
L 53 0 
L 53 113 
Q 272 113 381 166 
Q 447 200 481 272 
Q 528 375 528 628 
L 528 3234 
Q 528 3731 506 3842 
Q 484 3953 434 3995 
Q 384 4038 303 4038 
Q 238 4038 106 3984 
L 53 4094 
L 903 4444 
L 1047 4444 
z
" transform="scale(0.015625)"/>
      <path id="TimesNewRomanPSMT-76" d="M 53 2863 
L 1400 2863 
L 1400 2747 
L 1313 2747 
Q 1191 2747 1127 2687 
Q 1063 2628 1063 2528 
Q 1063 2419 1128 2269 
L 1794 688 
L 2463 2328 
Q 2534 2503 2534 2594 
Q 2534 2638 2509 2666 
Q 2475 2713 2422 2730 
Q 2369 2747 2206 2747 
L 2206 2863 
L 3141 2863 
L 3141 2747 
Q 2978 2734 2916 2681 
Q 2806 2588 2719 2369 
L 1703 -88 
L 1575 -88 
L 553 2328 
Q 484 2497 421 2570 
Q 359 2644 263 2694 
Q 209 2722 53 2747 
L 53 2863 
z
" transform="scale(0.015625)"/>
     </defs>
     <use xlink:href="#TimesNewRomanPSMT-41"/>
     <use xlink:href="#TimesNewRomanPSMT-63" transform="translate(72.216797 0)"/>
     <use xlink:href="#TimesNewRomanPSMT-63" transform="translate(116.601562 0)"/>
     <use xlink:href="#TimesNewRomanPSMT-75" transform="translate(160.986328 0)"/>
     <use xlink:href="#TimesNewRomanPSMT-72" transform="translate(210.986328 0)"/>
     <use xlink:href="#TimesNewRomanPSMT-61" transform="translate(244.287109 0)"/>
     <use xlink:href="#TimesNewRomanPSMT-63" transform="translate(288.671875 0)"/>
     <use xlink:href="#TimesNewRomanPSMT-79" transform="translate(333.056641 0)"/>
     <use xlink:href="#TimesNewRomanPSMT-20" transform="translate(383.056641 0)"/>
     <use xlink:href="#TimesNewRomanPSMT-6f" transform="translate(408.056641 0)"/>
     <use xlink:href="#TimesNewRomanPSMT-66" transform="translate(458.056641 0)"/>
     <use xlink:href="#TimesNewRomanPSMT-20" transform="translate(491.357422 0)"/>
     <use xlink:href="#TimesNewRomanPSMT-74" transform="translate(516.357422 0)"/>
     <use xlink:href="#TimesNewRomanPSMT-68" transform="translate(544.140625 0)"/>
     <use xlink:href="#TimesNewRomanPSMT-65" transform="translate(594.140625 0)"/>
     <use xlink:href="#TimesNewRomanPSMT-20" transform="translate(638.525391 0)"/>
     <use xlink:href="#TimesNewRomanPSMT-30" transform="translate(663.525391 0)"/>
     <use xlink:href="#TimesNewRomanPSMT-39" transform="translate(713.525391 0)"/>
     <use xlink:href="#TimesNewRomanPSMT-5f" transform="translate(763.525391 0)"/>
     <use xlink:href="#TimesNewRomanPSMT-30" transform="translate(813.525391 0)"/>
     <use xlink:href="#TimesNewRomanPSMT-37" transform="translate(863.525391 0)"/>
     <use xlink:href="#TimesNewRomanPSMT-5f" transform="translate(913.525391 0)"/>
     <use xlink:href="#TimesNewRomanPSMT-32" transform="translate(963.525391 0)"/>
     <use xlink:href="#TimesNewRomanPSMT-35" transform="translate(1013.525391 0)"/>
     <use xlink:href="#TimesNewRomanPSMT-5f" transform="translate(1063.525391 0)"/>
     <use xlink:href="#TimesNewRomanPSMT-43" transform="translate(1113.525391 0)"/>
     <use xlink:href="#TimesNewRomanPSMT-49" transform="translate(1180.224609 0)"/>
     <use xlink:href="#TimesNewRomanPSMT-46" transform="translate(1213.525391 0)"/>
     <use xlink:href="#TimesNewRomanPSMT-41" transform="translate(1261.765625 0)"/>
     <use xlink:href="#TimesNewRomanPSMT-52" transform="translate(1333.982422 0)"/>
     <use xlink:href="#TimesNewRomanPSMT-31" transform="translate(1400.681641 0)"/>
     <use xlink:href="#TimesNewRomanPSMT-30" transform="translate(1450.681641 0)"/>
     <use xlink:href="#TimesNewRomanPSMT-5f" transform="translate(1500.681641 0)"/>
     <use xlink:href="#TimesNewRomanPSMT-74" transform="translate(1550.681641 0)"/>
     <use xlink:href="#TimesNewRomanPSMT-6f" transform="translate(1578.464844 0)"/>
     <use xlink:href="#TimesNewRomanPSMT-72" transform="translate(1628.464844 0)"/>
     <use xlink:href="#TimesNewRomanPSMT-63" transform="translate(1661.765625 0)"/>
     <use xlink:href="#TimesNewRomanPSMT-68" transform="translate(1706.150391 0)"/>
     <use xlink:href="#TimesNewRomanPSMT-5f" transform="translate(1756.150391 0)"/>
     <use xlink:href="#TimesNewRomanPSMT-6d" transform="translate(1806.150391 0)"/>
     <use xlink:href="#TimesNewRomanPSMT-6f" transform="translate(1883.933594 0)"/>
     <use xlink:href="#TimesNewRomanPSMT-64" transform="translate(1933.933594 0)"/>
     <use xlink:href="#TimesNewRomanPSMT-65" transform="translate(1983.933594 0)"/>
     <use xlink:href="#TimesNewRomanPSMT-6c" transform="translate(2028.318359 0)"/>
     <use xlink:href="#TimesNewRomanPSMT-5f" transform="translate(2056.101562 0)"/>
     <use xlink:href="#TimesNewRomanPSMT-28" transform="translate(2106.101562 0)"/>
     <use xlink:href="#TimesNewRomanPSMT-31" transform="translate(2139.402344 0)"/>
     <use xlink:href="#TimesNewRomanPSMT-30" transform="translate(2189.402344 0)"/>
     <use xlink:href="#TimesNewRomanPSMT-32" transform="translate(2239.402344 0)"/>
     <use xlink:href="#TimesNewRomanPSMT-34" transform="translate(2289.402344 0)"/>
     <use xlink:href="#TimesNewRomanPSMT-2b" transform="translate(2339.402344 0)"/>
     <use xlink:href="#TimesNewRomanPSMT-32" transform="translate(2395.798828 0)"/>
     <use xlink:href="#TimesNewRomanPSMT-30" transform="translate(2445.798828 0)"/>
     <use xlink:href="#TimesNewRomanPSMT-34" transform="translate(2495.798828 0)"/>
     <use xlink:href="#TimesNewRomanPSMT-38" transform="translate(2545.798828 0)"/>
     <use xlink:href="#TimesNewRomanPSMT-2d" transform="translate(2595.798828 0)"/>
     <use xlink:href="#TimesNewRomanPSMT-32" transform="translate(2629.099609 0)"/>
     <use xlink:href="#TimesNewRomanPSMT-30" transform="translate(2679.099609 0)"/>
     <use xlink:href="#TimesNewRomanPSMT-34" transform="translate(2729.099609 0)"/>
     <use xlink:href="#TimesNewRomanPSMT-38" transform="translate(2779.099609 0)"/>
     <use xlink:href="#TimesNewRomanPSMT-2e" transform="translate(2829.099609 0)"/>
     <use xlink:href="#TimesNewRomanPSMT-31" transform="translate(2854.099609 0)"/>
     <use xlink:href="#TimesNewRomanPSMT-2b" transform="translate(2904.099609 0)"/>
     <use xlink:href="#TimesNewRomanPSMT-31" transform="translate(2960.496094 0)"/>
     <use xlink:href="#TimesNewRomanPSMT-29" transform="translate(3010.496094 0)"/>
     <use xlink:href="#TimesNewRomanPSMT-5f" transform="translate(3043.796875 0)"/>
     <use xlink:href="#TimesNewRomanPSMT-65" transform="translate(3093.796875 0)"/>
     <use xlink:href="#TimesNewRomanPSMT-6c" transform="translate(3138.181641 0)"/>
     <use xlink:href="#TimesNewRomanPSMT-6b" transform="translate(3165.964844 0)"/>
     <use xlink:href="#TimesNewRomanPSMT-2d" transform="translate(3215.964844 0)"/>
     <use xlink:href="#TimesNewRomanPSMT-68" transform="translate(3249.265625 0)"/>
     <use xlink:href="#TimesNewRomanPSMT-6f" transform="translate(3299.265625 0)"/>
     <use xlink:href="#TimesNewRomanPSMT-72" transform="translate(3349.265625 0)"/>
     <use xlink:href="#TimesNewRomanPSMT-73" transform="translate(3382.566406 0)"/>
     <use xlink:href="#TimesNewRomanPSMT-65" transform="translate(3421.482422 0)"/>
     <use xlink:href="#TimesNewRomanPSMT-20" transform="translate(3465.867188 0)"/>
     <use xlink:href="#TimesNewRomanPSMT-6f" transform="translate(3490.867188 0)"/>
     <use xlink:href="#TimesNewRomanPSMT-6e" transform="translate(3540.867188 0)"/>
     <use xlink:href="#TimesNewRomanPSMT-20" transform="translate(3590.867188 0)"/>
     <use xlink:href="#TimesNewRomanPSMT-74" transform="translate(3615.867188 0)"/>
     <use xlink:href="#TimesNewRomanPSMT-68" transform="translate(3643.650391 0)"/>
     <use xlink:href="#TimesNewRomanPSMT-65" transform="translate(3693.650391 0)"/>
     <use xlink:href="#TimesNewRomanPSMT-20" transform="translate(3738.035156 0)"/>
     <use xlink:href="#TimesNewRomanPSMT-76" transform="translate(3763.035156 0)"/>
     <use xlink:href="#TimesNewRomanPSMT-61" transform="translate(3813.035156 0)"/>
     <use xlink:href="#TimesNewRomanPSMT-6c" transform="translate(3857.419922 0)"/>
     <use xlink:href="#TimesNewRomanPSMT-69" transform="translate(3885.203125 0)"/>
     <use xlink:href="#TimesNewRomanPSMT-64" transform="translate(3912.986328 0)"/>
     <use xlink:href="#TimesNewRomanPSMT-61" transform="translate(3962.986328 0)"/>
     <use xlink:href="#TimesNewRomanPSMT-74" transform="translate(4007.371094 0)"/>
     <use xlink:href="#TimesNewRomanPSMT-69" transform="translate(4035.154297 0)"/>
     <use xlink:href="#TimesNewRomanPSMT-6f" transform="translate(4062.9375 0)"/>
     <use xlink:href="#TimesNewRomanPSMT-6e" transform="translate(4112.9375 0)"/>
     <use xlink:href="#TimesNewRomanPSMT-20" transform="translate(4162.9375 0)"/>
     <use xlink:href="#TimesNewRomanPSMT-73" transform="translate(4187.9375 0)"/>
     <use xlink:href="#TimesNewRomanPSMT-65" transform="translate(4226.853516 0)"/>
     <use xlink:href="#TimesNewRomanPSMT-74" transform="translate(4271.238281 0)"/>
    </g>
   </g>
   <g id="legend_1">
    <g id="patch_7">
     <path d="M 511.663875 94.278687 
L 737.834187 94.278687 
Q 742.234187 94.278687 742.234187 89.878687 
L 742.234187 60.9315 
Q 742.234187 56.5315 737.834187 56.5315 
L 511.663875 56.5315 
Q 507.263875 56.5315 507.263875 60.9315 
L 507.263875 89.878687 
Q 507.263875 94.278687 511.663875 94.278687 
z
" style="fill: #ffffff; opacity: 0.8; stroke: #cccccc; stroke-linejoin: miter"/>
    </g>
    <g id="line2d_32">
     <path d="M 516.063875 73.0315 
L 538.063875 73.0315 
L 560.063875 73.0315 
" style="fill: none; stroke: #1f77b4; stroke-width: 1.5; stroke-linecap: square"/>
    </g>
    <g id="text_19">
     <!-- Best accuracy 0.8 -->
     <g transform="translate(577.663875 80.7315) scale(0.22 -0.22)">
      <defs>
       <path id="TimesNewRomanPSMT-42" d="M 2956 2163 
Q 3397 2069 3616 1863 
Q 3919 1575 3919 1159 
Q 3919 844 3719 555 
Q 3519 266 3170 133 
Q 2822 0 2106 0 
L 106 0 
L 106 116 
L 266 116 
Q 531 116 647 284 
Q 719 394 719 750 
L 719 3488 
Q 719 3881 628 3984 
Q 506 4122 266 4122 
L 106 4122 
L 106 4238 
L 1938 4238 
Q 2450 4238 2759 4163 
Q 3228 4050 3475 3764 
Q 3722 3478 3722 3106 
Q 3722 2788 3528 2536 
Q 3334 2284 2956 2163 
z
M 1319 2331 
Q 1434 2309 1582 2298 
Q 1731 2288 1909 2288 
Q 2366 2288 2595 2386 
Q 2825 2484 2947 2687 
Q 3069 2891 3069 3131 
Q 3069 3503 2766 3765 
Q 2463 4028 1881 4028 
Q 1569 4028 1319 3959 
L 1319 2331 
z
M 1319 306 
Q 1681 222 2034 222 
Q 2600 222 2897 476 
Q 3194 731 3194 1106 
Q 3194 1353 3059 1581 
Q 2925 1809 2622 1940 
Q 2319 2072 1872 2072 
Q 1678 2072 1540 2065 
Q 1403 2059 1319 2044 
L 1319 306 
z
" transform="scale(0.015625)"/>
      </defs>
      <use xlink:href="#TimesNewRomanPSMT-42"/>
      <use xlink:href="#TimesNewRomanPSMT-65" transform="translate(66.699219 0)"/>
      <use xlink:href="#TimesNewRomanPSMT-73" transform="translate(111.083984 0)"/>
      <use xlink:href="#TimesNewRomanPSMT-74" transform="translate(150 0)"/>
      <use xlink:href="#TimesNewRomanPSMT-20" transform="translate(177.783203 0)"/>
      <use xlink:href="#TimesNewRomanPSMT-61" transform="translate(202.783203 0)"/>
      <use xlink:href="#TimesNewRomanPSMT-63" transform="translate(247.167969 0)"/>
      <use xlink:href="#TimesNewRomanPSMT-63" transform="translate(291.552734 0)"/>
      <use xlink:href="#TimesNewRomanPSMT-75" transform="translate(335.9375 0)"/>
      <use xlink:href="#TimesNewRomanPSMT-72" transform="translate(385.9375 0)"/>
      <use xlink:href="#TimesNewRomanPSMT-61" transform="translate(419.238281 0)"/>
      <use xlink:href="#TimesNewRomanPSMT-63" transform="translate(463.623047 0)"/>
      <use xlink:href="#TimesNewRomanPSMT-79" transform="translate(508.007812 0)"/>
      <use xlink:href="#TimesNewRomanPSMT-20" transform="translate(558.007812 0)"/>
      <use xlink:href="#TimesNewRomanPSMT-30" transform="translate(583.007812 0)"/>
      <use xlink:href="#TimesNewRomanPSMT-2e" transform="translate(633.007812 0)"/>
      <use xlink:href="#TimesNewRomanPSMT-38" transform="translate(658.007812 0)"/>
     </g>
    </g>
   </g>
  </g>
 </g>
 <defs>
  <clipPath id="pb840e2c0b2">
   <rect x="396.114187" y="45.5315" width="357.12" height="266.112"/>
  </clipPath>
 </defs>
</svg>
