<?xml version="1.0" encoding="utf-8" standalone="no"?>
<!DOCTYPE svg PUBLIC "-//W3C//DTD SVG 1.1//EN"
  "http://www.w3.org/Graphics/SVG/1.1/DTD/svg11.dtd">
<svg xmlns:xlink="http://www.w3.org/1999/xlink" width="830.205375pt" height="383.265687pt" viewBox="0 0 830.205375 383.265687" xmlns="http://www.w3.org/2000/svg" version="1.1">
 <metadata>
  <rdf:RDF xmlns:dc="http://purl.org/dc/elements/1.1/" xmlns:cc="http://creativecommons.org/ns#" xmlns:rdf="http://www.w3.org/1999/02/22-rdf-syntax-ns#">
   <cc:Work>
    <dc:type rdf:resource="http://purl.org/dc/dcmitype/StillImage"/>
    <dc:date>2025-05-26T13:20:40.216655</dc:date>
    <dc:format>image/svg+xml</dc:format>
    <dc:creator>
     <cc:Agent>
      <dc:title>Matplotlib v3.10.1, https://matplotlib.org/</dc:title>
     </cc:Agent>
    </dc:creator>
   </cc:Work>
  </rdf:RDF>
 </metadata>
 <defs>
  <style type="text/css">*{stroke-linejoin: round; stroke-linecap: butt}</style>
 </defs>
 <g id="figure_1">
  <g id="patch_1">
   <path d="M 0 383.265687 
L 830.205375 383.265687 
L 830.205375 0 
L 0 0 
z
" style="fill: #ffffff"/>
  </g>
  <g id="axes_1">
   <g id="patch_2">
    <path d="M 236.542687 311.6435 
L 593.662687 311.6435 
L 593.662687 45.5315 
L 236.542687 45.5315 
z
" style="fill: #ffffff"/>
   </g>
   <g id="matplotlib.axis_1">
    <g id="xtick_1">
     <g id="line2d_1">
      <path d="M 236.542687 311.6435 
L 236.542687 45.5315 
" clip-path="url(#paebfd3123e)" style="fill: none; stroke: #b0b0b0; stroke-opacity: 0.3; stroke-width: 0.8; stroke-linecap: square"/>
     </g>
     <g id="line2d_2">
      <defs>
       <path id="m2b0d2aee21" d="M 0 0 
L 0 3.5 
" style="stroke: #000000; stroke-width: 0.8"/>
      </defs>
      <g>
       <use xlink:href="#m2b0d2aee21" x="236.542687" y="311.6435" style="stroke: #000000; stroke-width: 0.8"/>
      </g>
     </g>
     <g id="text_1">
      <!-- 0.0 -->
      <g transform="translate(222.792687 333.91975) scale(0.22 -0.22)">
       <defs>
        <path id="TimesNewRomanPSMT-30" d="M 231 2094 
Q 231 2819 450 3342 
Q 669 3866 1031 4122 
Q 1313 4325 1613 4325 
Q 2100 4325 2488 3828 
Q 2972 3213 2972 2159 
Q 2972 1422 2759 906 
Q 2547 391 2217 158 
Q 1888 -75 1581 -75 
Q 975 -75 572 641 
Q 231 1244 231 2094 
z
M 844 2016 
Q 844 1141 1059 588 
Q 1238 122 1591 122 
Q 1759 122 1940 273 
Q 2122 425 2216 781 
Q 2359 1319 2359 2297 
Q 2359 3022 2209 3506 
Q 2097 3866 1919 4016 
Q 1791 4119 1609 4119 
Q 1397 4119 1231 3928 
Q 1006 3669 925 3112 
Q 844 2556 844 2016 
z
" transform="scale(0.015625)"/>
        <path id="TimesNewRomanPSMT-2e" d="M 800 606 
Q 947 606 1047 504 
Q 1147 403 1147 259 
Q 1147 116 1045 14 
Q 944 -88 800 -88 
Q 656 -88 554 14 
Q 453 116 453 259 
Q 453 406 554 506 
Q 656 606 800 606 
z
" transform="scale(0.015625)"/>
       </defs>
       <use xlink:href="#TimesNewRomanPSMT-30"/>
       <use xlink:href="#TimesNewRomanPSMT-2e" transform="translate(50 0)"/>
       <use xlink:href="#TimesNewRomanPSMT-30" transform="translate(75 0)"/>
      </g>
     </g>
    </g>
    <g id="xtick_2">
     <g id="line2d_3">
      <path d="M 365.052782 311.6435 
L 365.052782 45.5315 
" clip-path="url(#paebfd3123e)" style="fill: none; stroke: #b0b0b0; stroke-opacity: 0.3; stroke-width: 0.8; stroke-linecap: square"/>
     </g>
     <g id="line2d_4">
      <g>
       <use xlink:href="#m2b0d2aee21" x="365.052782" y="311.6435" style="stroke: #000000; stroke-width: 0.8"/>
      </g>
     </g>
     <g id="text_2">
      <!-- 0.5 -->
      <g transform="translate(351.302782 333.91975) scale(0.22 -0.22)">
       <defs>
        <path id="TimesNewRomanPSMT-35" d="M 2778 4238 
L 2534 3706 
L 1259 3706 
L 981 3138 
Q 1809 3016 2294 2522 
Q 2709 2097 2709 1522 
Q 2709 1188 2573 903 
Q 2438 619 2231 419 
Q 2025 219 1772 97 
Q 1413 -75 1034 -75 
Q 653 -75 479 54 
Q 306 184 306 341 
Q 306 428 378 495 
Q 450 563 559 563 
Q 641 563 702 538 
Q 763 513 909 409 
Q 1144 247 1384 247 
Q 1750 247 2026 523 
Q 2303 800 2303 1197 
Q 2303 1581 2056 1914 
Q 1809 2247 1375 2428 
Q 1034 2569 447 2591 
L 1259 4238 
L 2778 4238 
z
" transform="scale(0.015625)"/>
       </defs>
       <use xlink:href="#TimesNewRomanPSMT-30"/>
       <use xlink:href="#TimesNewRomanPSMT-2e" transform="translate(50 0)"/>
       <use xlink:href="#TimesNewRomanPSMT-35" transform="translate(75 0)"/>
      </g>
     </g>
    </g>
    <g id="xtick_3">
     <g id="line2d_5">
      <path d="M 493.562877 311.6435 
L 493.562877 45.5315 
" clip-path="url(#paebfd3123e)" style="fill: none; stroke: #b0b0b0; stroke-opacity: 0.3; stroke-width: 0.8; stroke-linecap: square"/>
     </g>
     <g id="line2d_6">
      <g>
       <use xlink:href="#m2b0d2aee21" x="493.562877" y="311.6435" style="stroke: #000000; stroke-width: 0.8"/>
      </g>
     </g>
     <g id="text_3">
      <!-- 1.0 -->
      <g transform="translate(479.812877 333.91975) scale(0.22 -0.22)">
       <defs>
        <path id="TimesNewRomanPSMT-31" d="M 750 3822 
L 1781 4325 
L 1884 4325 
L 1884 747 
Q 1884 391 1914 303 
Q 1944 216 2037 169 
Q 2131 122 2419 116 
L 2419 0 
L 825 0 
L 825 116 
Q 1125 122 1212 167 
Q 1300 213 1334 289 
Q 1369 366 1369 747 
L 1369 3034 
Q 1369 3497 1338 3628 
Q 1316 3728 1258 3775 
Q 1200 3822 1119 3822 
Q 1003 3822 797 3725 
L 750 3822 
z
" transform="scale(0.015625)"/>
       </defs>
       <use xlink:href="#TimesNewRomanPSMT-31"/>
       <use xlink:href="#TimesNewRomanPSMT-2e" transform="translate(50 0)"/>
       <use xlink:href="#TimesNewRomanPSMT-30" transform="translate(75 0)"/>
      </g>
     </g>
    </g>
    <g id="text_4">
     <!-- $\kappa  = \frac{ln(n)}{ln(d)}$ -->
     <g transform="translate(383.092688 364.185687) scale(0.22 -0.22)">
      <defs>
       <path id="STIXGeneral-Italic-3ba" d="M 979 1440 
L 998 1446 
Q 1850 2541 2464 2790 
Q 2547 2822 2630 2822 
Q 2797 2822 2886 2736 
Q 2976 2650 2976 2522 
Q 2976 2387 2893 2307 
Q 2810 2227 2682 2227 
Q 2605 2227 2502 2288 
Q 2400 2349 2336 2349 
Q 2170 2349 1990 2205 
Q 1811 2061 1414 1645 
L 2042 544 
Q 2202 262 2310 182 
Q 2419 102 2624 102 
L 2624 0 
Q 2374 -83 2182 -83 
Q 1786 -83 1555 326 
L 960 1350 
L 576 0 
L 90 0 
L 640 1978 
Q 730 2317 730 2406 
Q 730 2560 518 2560 
L 339 2560 
L 339 2650 
Q 678 2694 1306 2822 
L 1325 2803 
L 979 1440 
z
" transform="scale(0.015625)"/>
       <path id="STIXGeneral-Regular-3d" d="M 4077 2048 
L 307 2048 
L 307 2470 
L 4077 2470 
L 4077 2048 
z
M 4077 768 
L 307 768 
L 307 1190 
L 4077 1190 
L 4077 768 
z
" transform="scale(0.015625)"/>
       <path id="STIXGeneral-Italic-6c" d="M 1786 4339 
L 806 595 
Q 755 410 755 320 
Q 755 205 864 205 
Q 1037 205 1293 570 
L 1453 794 
L 1542 730 
Q 1254 275 1046 102 
Q 838 -70 576 -70 
Q 262 -70 262 288 
Q 262 397 288 480 
L 1165 3834 
Q 1184 3898 1184 3955 
Q 1184 4096 870 4096 
L 755 4096 
L 755 4198 
Q 1203 4250 1747 4371 
L 1786 4339 
z
" transform="scale(0.015625)"/>
       <path id="STIXGeneral-Italic-6e" d="M 2944 749 
L 3034 666 
Q 2707 218 2534 80 
Q 2362 -58 2138 -58 
Q 2010 -58 1923 28 
Q 1837 115 1837 288 
Q 1837 390 1939 768 
L 2221 1805 
Q 2310 2150 2310 2310 
Q 2310 2496 2157 2496 
Q 1971 2496 1750 2275 
Q 1530 2054 1210 1587 
Q 998 1274 899 1024 
Q 800 774 570 0 
L 90 0 
L 704 2240 
Q 717 2304 717 2349 
Q 717 2445 630 2480 
Q 544 2515 301 2522 
L 301 2624 
Q 550 2675 857 2729 
Q 1165 2784 1338 2822 
L 1363 2810 
L 934 1414 
Q 1408 2170 1753 2496 
Q 2099 2822 2413 2822 
Q 2611 2822 2720 2716 
Q 2829 2611 2829 2432 
Q 2829 2272 2765 2048 
L 2406 749 
Q 2317 429 2317 358 
Q 2317 243 2419 243 
Q 2541 243 2810 582 
Q 2854 634 2944 749 
z
" transform="scale(0.015625)"/>
       <path id="STIXGeneral-Regular-28" d="M 1946 -1030 
L 1869 -1133 
Q 1126 -710 716 32 
Q 307 774 307 1613 
Q 307 3386 1888 4326 
L 1946 4224 
Q 1293 3667 1075 3126 
Q 858 2586 858 1632 
Q 858 685 1082 96 
Q 1306 -493 1946 -1030 
z
" transform="scale(0.015625)"/>
       <path id="STIXGeneral-Regular-29" d="M 186 4224 
L 262 4326 
Q 992 3891 1408 3148 
Q 1824 2406 1824 1581 
Q 1824 -166 243 -1133 
L 186 -1030 
Q 845 -486 1059 54 
Q 1274 595 1274 1562 
Q 1274 2534 1059 3120 
Q 845 3706 186 4224 
z
" transform="scale(0.015625)"/>
       <path id="STIXGeneral-Italic-64" d="M 3334 4371 
L 3373 4333 
L 3123 3360 
L 2739 1958 
Q 2323 429 2323 384 
Q 2323 256 2438 256 
Q 2522 256 2614 336 
Q 2707 416 2963 710 
L 3040 646 
Q 2547 -83 2099 -83 
Q 1978 -83 1907 -6 
Q 1837 70 1837 205 
Q 1837 397 1920 774 
Q 1645 307 1379 118 
Q 1114 -70 781 -70 
Q 461 -70 278 125 
Q 96 320 96 678 
Q 96 1440 713 2131 
Q 1331 2822 1965 2822 
Q 2163 2822 2256 2732 
Q 2349 2643 2381 2451 
L 2387 2451 
L 2675 3494 
Q 2765 3808 2765 3949 
Q 2765 4051 2694 4076 
Q 2624 4102 2355 4115 
L 2355 4224 
Q 2848 4269 3334 4371 
z
M 2278 2310 
Q 2278 2477 2185 2576 
Q 2093 2675 1978 2675 
Q 1677 2675 1395 2381 
Q 1075 2042 864 1571 
Q 653 1101 653 704 
Q 653 486 752 361 
Q 851 237 1024 237 
Q 1312 237 1606 550 
Q 1901 864 2089 1350 
Q 2278 1837 2278 2310 
z
" transform="scale(0.015625)"/>
      </defs>
      <use xlink:href="#STIXGeneral-Italic-3ba" transform="translate(0 0.003125)"/>
      <use xlink:href="#STIXGeneral-Regular-3d" transform="translate(58.83999 0.003125)"/>
      <use xlink:href="#STIXGeneral-Italic-6c" transform="translate(141.779971 50.192188) scale(0.7)"/>
      <use xlink:href="#STIXGeneral-Italic-6e" transform="translate(161.239963 50.192188) scale(0.7)"/>
      <use xlink:href="#STIXGeneral-Regular-28" transform="translate(196.239952 50.192188) scale(0.7)"/>
      <use xlink:href="#STIXGeneral-Italic-6e" transform="translate(219.549944 50.192188) scale(0.7)"/>
      <use xlink:href="#STIXGeneral-Regular-29" transform="translate(254.549933 50.192188) scale(0.7)"/>
      <use xlink:href="#STIXGeneral-Italic-6c" transform="translate(141.779971 -41.257812) scale(0.7)"/>
      <use xlink:href="#STIXGeneral-Italic-6e" transform="translate(161.239963 -41.257812) scale(0.7)"/>
      <use xlink:href="#STIXGeneral-Regular-28" transform="translate(196.239952 -41.257812) scale(0.7)"/>
      <use xlink:href="#STIXGeneral-Italic-64" transform="translate(219.549944 -41.257812) scale(0.7)"/>
      <use xlink:href="#STIXGeneral-Regular-29" transform="translate(254.549933 -41.257812) scale(0.7)"/>
      <path d="M 141.779971 12.8 
L 141.779971 19.05 
L 277.859924 19.05 
L 277.859924 12.8 
L 141.779971 12.8 
z
"/>
     </g>
    </g>
   </g>
   <g id="matplotlib.axis_2">
    <g id="ytick_1">
     <g id="line2d_7">
      <path d="M 236.542687 311.6435 
L 593.662687 311.6435 
" clip-path="url(#paebfd3123e)" style="fill: none; stroke: #b0b0b0; stroke-opacity: 0.3; stroke-width: 0.8; stroke-linecap: square"/>
     </g>
     <g id="line2d_8">
      <defs>
       <path id="md7681447da" d="M 0 0 
L -3.5 0 
" style="stroke: #000000; stroke-width: 0.8"/>
      </defs>
      <g>
       <use xlink:href="#md7681447da" x="236.542687" y="311.6435" style="stroke: #000000; stroke-width: 0.8"/>
      </g>
     </g>
     <g id="text_5">
      <!-- 0.00 -->
      <g transform="translate(191.042687 319.281625) scale(0.22 -0.22)">
       <use xlink:href="#TimesNewRomanPSMT-30"/>
       <use xlink:href="#TimesNewRomanPSMT-2e" transform="translate(50 0)"/>
       <use xlink:href="#TimesNewRomanPSMT-30" transform="translate(75 0)"/>
       <use xlink:href="#TimesNewRomanPSMT-30" transform="translate(125 0)"/>
      </g>
     </g>
    </g>
    <g id="ytick_2">
     <g id="line2d_9">
      <path d="M 236.542687 260.479159 
L 593.662687 260.479159 
" clip-path="url(#paebfd3123e)" style="fill: none; stroke: #b0b0b0; stroke-opacity: 0.3; stroke-width: 0.8; stroke-linecap: square"/>
     </g>
     <g id="line2d_10">
      <g>
       <use xlink:href="#md7681447da" x="236.542687" y="260.479159" style="stroke: #000000; stroke-width: 0.8"/>
      </g>
     </g>
     <g id="text_6">
      <!-- 0.05 -->
      <g transform="translate(191.042687 268.117284) scale(0.22 -0.22)">
       <use xlink:href="#TimesNewRomanPSMT-30"/>
       <use xlink:href="#TimesNewRomanPSMT-2e" transform="translate(50 0)"/>
       <use xlink:href="#TimesNewRomanPSMT-30" transform="translate(75 0)"/>
       <use xlink:href="#TimesNewRomanPSMT-35" transform="translate(125 0)"/>
      </g>
     </g>
    </g>
    <g id="ytick_3">
     <g id="line2d_11">
      <path d="M 236.542687 209.314817 
L 593.662687 209.314817 
" clip-path="url(#paebfd3123e)" style="fill: none; stroke: #b0b0b0; stroke-opacity: 0.3; stroke-width: 0.8; stroke-linecap: square"/>
     </g>
     <g id="line2d_12">
      <g>
       <use xlink:href="#md7681447da" x="236.542687" y="209.314817" style="stroke: #000000; stroke-width: 0.8"/>
      </g>
     </g>
     <g id="text_7">
      <!-- 0.10 -->
      <g transform="translate(191.042687 216.952942) scale(0.22 -0.22)">
       <use xlink:href="#TimesNewRomanPSMT-30"/>
       <use xlink:href="#TimesNewRomanPSMT-2e" transform="translate(50 0)"/>
       <use xlink:href="#TimesNewRomanPSMT-31" transform="translate(75 0)"/>
       <use xlink:href="#TimesNewRomanPSMT-30" transform="translate(125 0)"/>
      </g>
     </g>
    </g>
    <g id="ytick_4">
     <g id="line2d_13">
      <path d="M 236.542687 158.150476 
L 593.662687 158.150476 
" clip-path="url(#paebfd3123e)" style="fill: none; stroke: #b0b0b0; stroke-opacity: 0.3; stroke-width: 0.8; stroke-linecap: square"/>
     </g>
     <g id="line2d_14">
      <g>
       <use xlink:href="#md7681447da" x="236.542687" y="158.150476" style="stroke: #000000; stroke-width: 0.8"/>
      </g>
     </g>
     <g id="text_8">
      <!-- 0.15 -->
      <g transform="translate(191.042687 165.788601) scale(0.22 -0.22)">
       <use xlink:href="#TimesNewRomanPSMT-30"/>
       <use xlink:href="#TimesNewRomanPSMT-2e" transform="translate(50 0)"/>
       <use xlink:href="#TimesNewRomanPSMT-31" transform="translate(75 0)"/>
       <use xlink:href="#TimesNewRomanPSMT-35" transform="translate(125 0)"/>
      </g>
     </g>
    </g>
    <g id="ytick_5">
     <g id="line2d_15">
      <path d="M 236.542687 106.986134 
L 593.662687 106.986134 
" clip-path="url(#paebfd3123e)" style="fill: none; stroke: #b0b0b0; stroke-opacity: 0.3; stroke-width: 0.8; stroke-linecap: square"/>
     </g>
     <g id="line2d_16">
      <g>
       <use xlink:href="#md7681447da" x="236.542687" y="106.986134" style="stroke: #000000; stroke-width: 0.8"/>
      </g>
     </g>
     <g id="text_9">
      <!-- 0.20 -->
      <g transform="translate(191.042687 114.624259) scale(0.22 -0.22)">
       <defs>
        <path id="TimesNewRomanPSMT-32" d="M 2934 816 
L 2638 0 
L 138 0 
L 138 116 
Q 1241 1122 1691 1759 
Q 2141 2397 2141 2925 
Q 2141 3328 1894 3587 
Q 1647 3847 1303 3847 
Q 991 3847 742 3664 
Q 494 3481 375 3128 
L 259 3128 
Q 338 3706 661 4015 
Q 984 4325 1469 4325 
Q 1984 4325 2329 3994 
Q 2675 3663 2675 3213 
Q 2675 2891 2525 2569 
Q 2294 2063 1775 1497 
Q 997 647 803 472 
L 1909 472 
Q 2247 472 2383 497 
Q 2519 522 2628 598 
Q 2738 675 2819 816 
L 2934 816 
z
" transform="scale(0.015625)"/>
       </defs>
       <use xlink:href="#TimesNewRomanPSMT-30"/>
       <use xlink:href="#TimesNewRomanPSMT-2e" transform="translate(50 0)"/>
       <use xlink:href="#TimesNewRomanPSMT-32" transform="translate(75 0)"/>
       <use xlink:href="#TimesNewRomanPSMT-30" transform="translate(125 0)"/>
      </g>
     </g>
    </g>
    <g id="ytick_6">
     <g id="line2d_17">
      <path d="M 236.542687 55.821793 
L 593.662687 55.821793 
" clip-path="url(#paebfd3123e)" style="fill: none; stroke: #b0b0b0; stroke-opacity: 0.3; stroke-width: 0.8; stroke-linecap: square"/>
     </g>
     <g id="line2d_18">
      <g>
       <use xlink:href="#md7681447da" x="236.542687" y="55.821793" style="stroke: #000000; stroke-width: 0.8"/>
      </g>
     </g>
     <g id="text_10">
      <!-- 0.25 -->
      <g transform="translate(191.042687 63.459918) scale(0.22 -0.22)">
       <use xlink:href="#TimesNewRomanPSMT-30"/>
       <use xlink:href="#TimesNewRomanPSMT-2e" transform="translate(50 0)"/>
       <use xlink:href="#TimesNewRomanPSMT-32" transform="translate(75 0)"/>
       <use xlink:href="#TimesNewRomanPSMT-35" transform="translate(125 0)"/>
      </g>
     </g>
    </g>
    <g id="text_11">
     <!-- Loss -->
     <g transform="translate(182.33675 199.368906) rotate(-90) scale(0.22 -0.22)">
      <defs>
       <path id="TimesNewRomanPSMT-4c" d="M 3669 1172 
L 3772 1150 
L 3409 0 
L 128 0 
L 128 116 
L 288 116 
Q 556 116 672 291 
Q 738 391 738 753 
L 738 3488 
Q 738 3884 650 3984 
Q 528 4122 288 4122 
L 128 4122 
L 128 4238 
L 2047 4238 
L 2047 4122 
Q 1709 4125 1573 4059 
Q 1438 3994 1388 3894 
Q 1338 3794 1338 3416 
L 1338 753 
Q 1338 494 1388 397 
Q 1425 331 1503 300 
Q 1581 269 1991 269 
L 2300 269 
Q 2788 269 2984 341 
Q 3181 413 3343 595 
Q 3506 778 3669 1172 
z
" transform="scale(0.015625)"/>
       <path id="TimesNewRomanPSMT-6f" d="M 1600 2947 
Q 2250 2947 2644 2453 
Q 2978 2031 2978 1484 
Q 2978 1100 2793 706 
Q 2609 313 2286 112 
Q 1963 -88 1566 -88 
Q 919 -88 538 428 
Q 216 863 216 1403 
Q 216 1797 411 2186 
Q 606 2575 925 2761 
Q 1244 2947 1600 2947 
z
M 1503 2744 
Q 1338 2744 1170 2645 
Q 1003 2547 900 2300 
Q 797 2053 797 1666 
Q 797 1041 1045 587 
Q 1294 134 1700 134 
Q 2003 134 2200 384 
Q 2397 634 2397 1244 
Q 2397 2006 2069 2444 
Q 1847 2744 1503 2744 
z
" transform="scale(0.015625)"/>
       <path id="TimesNewRomanPSMT-73" d="M 2050 2947 
L 2050 1972 
L 1947 1972 
Q 1828 2431 1642 2597 
Q 1456 2763 1169 2763 
Q 950 2763 815 2647 
Q 681 2531 681 2391 
Q 681 2216 781 2091 
Q 878 1963 1175 1819 
L 1631 1597 
Q 2266 1288 2266 781 
Q 2266 391 1970 151 
Q 1675 -88 1309 -88 
Q 1047 -88 709 6 
Q 606 38 541 38 
Q 469 38 428 -44 
L 325 -44 
L 325 978 
L 428 978 
Q 516 541 762 319 
Q 1009 97 1316 97 
Q 1531 97 1667 223 
Q 1803 350 1803 528 
Q 1803 744 1651 891 
Q 1500 1038 1047 1263 
Q 594 1488 453 1669 
Q 313 1847 313 2119 
Q 313 2472 555 2709 
Q 797 2947 1181 2947 
Q 1350 2947 1591 2875 
Q 1750 2828 1803 2828 
Q 1853 2828 1881 2850 
Q 1909 2872 1947 2947 
L 2050 2947 
z
" transform="scale(0.015625)"/>
      </defs>
      <use xlink:href="#TimesNewRomanPSMT-4c"/>
      <use xlink:href="#TimesNewRomanPSMT-6f" transform="translate(61.083984 0)"/>
      <use xlink:href="#TimesNewRomanPSMT-73" transform="translate(111.083984 0)"/>
      <use xlink:href="#TimesNewRomanPSMT-73" transform="translate(150 0)"/>
     </g>
    </g>
   </g>
   <g id="line2d_19">
    <path d="M 236.542687 55.764368 
L 325.476992 72.257588 
L 349.45499 86.080703 
L 374.263976 104.936229 
L 382.356961 106.92061 
L 388.996172 111.311593 
L 394.625216 115.232215 
L 399.511282 117.561997 
L 403.827828 120.183797 
L 407.693868 125.603131 
L 411.194615 124.635772 
L 414.39318 128.027817 
L 417.337611 126.44765 
L 420.065336 132.072407 
L 422.606078 135.577243 
L 424.983836 132.148984 
L 427.218265 133.89133 
L 429.325667 133.319936 
L 431.319712 138.881367 
L 433.211974 136.661113 
L 435.012341 140.636431 
L 436.729327 139.639902 
L 438.370315 136.6342 
L 439.941748 141.905825 
L 441.449283 145.897016 
L 442.897915 144.225879 
L 444.292074 143.657 
L 445.635709 150.006167 
L 446.932353 147.205964 
L 448.185183 150.64784 
L 449.397064 154.311516 
L 450.570587 149.891608 
L 451.708107 151.306652 
L 452.811767 149.492868 
L 453.883525 148.417507 
L 454.925173 155.548813 
L 455.938358 154.674666 
L 456.924592 154.582888 
L 457.885274 156.298169 
L 458.821693 156.360137 
L 459.735045 158.063814 
L 460.62644 162.121289 
L 461.496908 157.756442 
L 462.347409 163.455808 
L 463.178839 160.378226 
L 463.992034 162.315703 
L 464.787778 167.981783 
L 465.566803 166.478589 
L 466.329797 167.531581 
L 467.077407 167.874878 
L 467.810242 167.965544 
L 468.528873 170.489999 
L 469.233842 168.07745 
L 469.925657 171.344064 
L 470.604801 171.497247 
L 471.271729 173.768049 
L 471.926873 170.943022 
L 472.570643 177.53898 
L 473.203427 177.552399 
L 473.825593 174.990921 
L 474.437491 177.082649 
L 475.039456 178.606992 
L 475.631804 178.433361 
L 476.214838 177.349827 
L 476.788847 180.381939 
L 477.354105 178.134848 
L 477.910875 178.645433 
L 479.532717 184.203144 
L 480.057941 181.098938 
L 480.57583 182.890231 
L 481.086584 185.620712 
L 481.590399 182.932697 
L 482.08746 183.12208 
L 482.577946 188.092538 
L 483.062029 187.671773 
L 483.539873 188.217718 
L 484.011638 189.306086 
L 484.477476 191.323502 
L 484.937534 190.116297 
L 485.391954 193.32615 
L 485.840872 188.788228 
L 486.28442 190.487666 
L 487.155911 196.14138 
L 487.584093 199.804926 
L 488.007388 195.649344 
L 488.425905 193.468362 
L 488.83975 195.795353 
L 489.249028 193.754821 
L 489.653838 200.049506 
L 490.054276 197.995198 
L 490.450436 200.437336 
L 490.842408 196.099699 
L 491.230279 201.565235 
L 491.614136 203.026908 
L 491.994059 201.073047 
L 492.370129 203.465308 
L 492.742424 199.938584 
L 493.475983 202.927559 
L 493.837391 205.458914 
L 494.195311 206.761008 
L 494.549808 209.906993 
L 494.900949 204.764215 
L 495.248796 204.15807 
L 495.59341 210.438125 
L 495.934851 208.63307 
L 496.273176 208.618821 
L 496.608442 207.607487 
L 496.940704 209.165567 
L 497.596428 207.629497 
L 497.919992 210.919113 
L 498.240757 210.81769 
L 498.55877 210.507527 
L 498.87408 214.211755 
L 499.186731 213.279643 
L 499.496768 214.988946 
L 499.804234 211.748033 
L 500.411622 215.599468 
L 500.711625 213.685 
L 501.009221 213.824559 
L 501.304447 216.064758 
L 501.597341 219.653443 
L 501.887939 216.393706 
L 502.462392 218.180013 
L 502.746315 220.295947 
L 503.028081 218.705998 
L 503.307722 220.19338 
L 503.585269 221.048535 
L 503.860755 221.355519 
L 504.405661 224.189596 
L 504.67514 221.777764 
L 504.942675 223.120036 
L 505.208294 222.095009 
L 505.472023 221.842888 
L 505.73389 222.590155 
L 505.993921 224.125447 
L 506.25214 227.661625 
L 506.508574 224.510882 
L 506.763247 228.186017 
L 507.016182 222.603741 
L 507.267404 223.42285 
L 507.516935 228.749803 
L 507.764798 227.55161 
L 508.011016 228.495311 
L 508.255609 227.580032 
L 508.498599 230.424333 
L 508.740007 228.256601 
L 508.979854 231.640808 
L 509.21816 229.629652 
L 509.454943 228.817802 
L 509.690224 232.464606 
L 509.924022 232.724 
L 510.156355 233.706515 
L 510.387241 232.967947 
L 510.844745 230.26627 
L 511.071397 235.348574 
L 511.296672 234.947998 
L 511.520587 235.525179 
L 511.743158 233.956227 
L 511.9644 233.546348 
L 512.184331 235.060415 
L 512.402965 233.773515 
L 512.836403 235.210693 
L 513.051236 237.592387 
L 513.477205 238.628774 
L 513.688369 236.065169 
L 513.898336 237.706451 
L 514.107122 237.875477 
L 514.314738 241.336916 
L 514.521199 240.329897 
L 514.930702 241.347483 
L 515.133771 242.290178 
L 515.335733 243.797741 
L 515.536601 241.487622 
L 515.736387 242.445359 
L 515.935102 241.227839 
L 516.132758 244.302814 
L 516.329367 242.226883 
L 516.524938 245.743887 
L 516.719483 242.530893 
L 516.913012 242.932248 
L 517.297067 247.507253 
L 517.677185 244.837368 
L 517.865793 246.306323 
L 518.053446 245.418278 
L 518.240154 246.678104 
L 518.425927 246.003235 
L 518.610774 249.361818 
L 518.794704 246.909014 
L 518.977726 247.731252 
L 519.159849 247.153229 
L 519.521433 250.022003 
L 519.700912 248.811405 
L 519.879526 252.300494 
L 520.057284 253.190792 
L 520.234193 250.040605 
L 520.410263 252.72472 
L 520.5855 252.120855 
L 520.759913 252.20435 
L 520.93351 251.533907 
L 521.106298 253.449077 
L 521.278284 249.669488 
L 521.449477 252.927479 
L 521.619882 253.876059 
L 521.789508 253.684908 
L 522.12645 256.602976 
L 522.29378 252.570634 
L 522.460357 254.19953 
L 522.62619 257.471065 
L 522.791285 257.716084 
L 522.955648 258.200026 
L 523.444409 252.973982 
L 523.766708 258.240911 
L 523.926812 258.332129 
L 524.086229 257.34584 
L 524.40302 259.310508 
L 524.560406 257.397222 
L 524.717128 259.35403 
L 524.873189 257.421554 
L 525.028597 260.869572 
L 525.183356 261.579782 
L 525.337471 258.50515 
L 525.490949 258.536294 
L 525.643794 260.223278 
L 525.796012 263.711631 
L 525.947607 261.185952 
L 526.098586 262.537542 
L 526.248952 259.967189 
L 526.39871 263.385964 
L 526.547866 263.993817 
L 526.844391 261.746436 
L 526.991769 263.158717 
L 527.138563 263.165972 
L 527.284778 264.219052 
L 527.430419 262.969926 
L 527.575491 265.91918 
L 527.719997 263.849349 
L 527.863942 265.774642 
L 528.150166 264.367931 
L 528.292454 265.576874 
L 528.434198 264.377053 
L 528.575402 264.964694 
L 528.716071 269.425544 
L 528.856208 269.559427 
L 528.995817 270.301315 
L 529.273468 266.801964 
L 529.411518 269.696191 
L 529.549056 267.461001 
L 529.686086 267.133322 
L 529.822611 269.153959 
L 529.958635 267.169072 
L 530.094163 269.632507 
L 530.229196 268.260848 
L 530.36374 269.133252 
L 530.497797 270.749935 
L 530.631371 269.32276 
L 530.764466 270.511335 
L 530.897085 268.886377 
L 531.029231 272.316176 
L 531.160908 270.573651 
L 531.422867 273.708253 
L 531.682989 270.449859 
L 532.197821 274.181347 
L 532.32542 273.148627 
L 532.452581 273.293553 
L 532.579308 271.247391 
L 532.831469 274.402685 
L 532.95691 274.177077 
L 533.081927 278.561454 
L 533.330705 274.820748 
L 533.454471 274.972505 
L 533.823308 273.67799 
L 533.945443 277.122405 
L 534.067178 277.115917 
L 534.43 274.870072 
L 534.550157 278.120221 
L 534.669925 278.295697 
L 534.789307 277.018546 
L 534.908307 279.333872 
L 535.026925 277.580978 
L 535.145166 278.759878 
L 535.26303 278.134021 
L 535.380522 276.62135 
L 535.497642 278.309653 
L 535.614393 278.275143 
L 535.846799 280.099991 
L 535.962457 278.196176 
L 536.077756 279.036072 
L 536.192698 276.837603 
L 536.421518 280.637533 
L 536.648935 279.459723 
L 536.874966 280.256396 
L 536.987466 280.506056 
L 537.099627 281.158111 
L 537.211449 280.08391 
L 537.434086 281.685594 
L 537.544906 280.1489 
L 537.765556 282.78047 
L 537.984901 282.433541 
L 538.202956 282.542383 
L 538.311505 281.267955 
L 538.527654 282.731268 
L 538.635257 282.686861 
L 538.74255 283.864189 
L 538.849532 281.633053 
L 539.168641 285.342447 
L 539.274403 284.209867 
L 539.379864 284.486506 
L 539.485026 285.38022 
L 539.589891 284.808039 
L 539.69446 285.059439 
L 539.902718 284.037336 
L 540.00641 285.651923 
L 540.109813 284.829384 
L 540.212928 285.798515 
L 540.315757 284.774163 
L 540.418302 286.245073 
L 540.520564 283.93008 
L 540.622545 284.201512 
L 540.724246 286.671086 
L 540.825668 284.920397 
L 540.926815 286.343763 
L 541.027686 286.196178 
L 541.128283 287.504928 
L 541.228608 286.133998 
L 541.428448 287.997209 
L 541.627217 285.826378 
L 541.923386 288.512982 
L 542.021586 287.554236 
L 542.217208 288.253399 
L 542.314634 287.369894 
L 542.508721 289.504351 
L 542.605384 288.420471 
L 542.797959 289.478978 
L 542.893873 290.468032 
L 542.989539 290.366409 
L 543.084959 288.807866 
L 543.180134 289.570448 
L 543.275065 288.77473 
L 543.369754 288.792035 
L 543.652379 291.496933 
L 543.74611 289.932872 
L 544.025892 290.551278 
L 544.118685 289.340385 
L 544.39568 291.896429 
L 544.5792 289.33258 
L 544.761816 292.798274 
L 544.852788 291.031879 
L 545.034066 292.264569 
L 545.124373 290.034811 
L 545.30433 292.819223 
L 545.393983 290.732157 
L 545.483419 292.764173 
L 545.661646 290.684366 
L 545.75044 293.206438 
L 545.839021 292.95967 
L 545.927392 291.614182 
L 546.015552 293.417227 
L 546.103503 293.263615 
L 546.191246 292.466226 
L 546.278782 293.372207 
L 546.366112 292.053889 
L 546.453236 293.423403 
L 546.540157 292.619872 
L 546.626874 293.232105 
L 546.713388 294.810385 
L 546.799702 294.556234 
L 546.885814 294.68925 
L 546.971728 295.959635 
L 547.14296 293.495616 
L 547.22828 295.335892 
L 547.313404 293.217373 
L 547.398334 294.780171 
L 547.483069 294.645886 
L 547.651961 293.86453 
L 547.73612 296.341957 
L 547.820087 295.840785 
L 547.903866 296.023411 
L 547.987455 294.300788 
L 548.070856 296.254631 
L 548.15407 293.684758 
L 548.237098 294.336796 
L 548.31994 294.379441 
L 548.402598 294.257609 
L 548.485071 297.075275 
L 548.567362 296.542948 
L 548.649471 297.407531 
L 548.731398 295.697859 
L 548.813144 296.242203 
L 548.894711 295.429838 
L 549.057308 296.546967 
L 549.219195 295.890825 
L 549.299874 294.22201 
L 549.460708 297.210263 
L 549.540864 295.701402 
L 549.700658 296.694155 
L 549.780298 296.833601 
L 549.859767 299.026324 
L 550.018195 297.180904 
L 550.097157 297.29757 
L 550.17595 297.692467 
L 550.254576 297.014719 
L 550.333036 299.411742 
L 550.411331 296.849619 
L 550.48946 298.758198 
L 550.567425 298.070661 
L 550.645227 297.824667 
L 550.722865 296.168259 
L 550.877657 298.027643 
L 550.954811 297.605914 
L 551.031804 299.623862 
L 551.185314 297.159872 
L 551.261831 299.055923 
L 551.414393 298.144184 
L 551.490439 298.000787 
L 551.56633 298.456315 
L 551.717647 296.969713 
L 551.943471 299.543638 
L 552.018441 298.90673 
L 552.09326 299.66648 
L 552.167928 298.244137 
L 552.391035 301.37864 
L 552.465106 298.364766 
L 552.53903 299.296175 
L 552.612807 297.724672 
L 552.686437 300.419848 
L 552.759921 299.312864 
L 552.906454 299.143601 
L 553.052411 299.388151 
L 553.125174 299.352051 
L 553.270274 300.607989 
L 553.342611 299.554197 
L 553.414808 300.703748 
L 553.486864 298.17052 
L 553.702197 301.730678 
L 553.773697 301.674775 
L 553.987376 299.769273 
L 554.058329 299.482466 
L 554.129147 299.885519 
L 554.199829 301.033726 
L 554.270378 300.280099 
L 554.340792 301.654154 
L 554.411073 299.09177 
L 554.481221 300.11772 
L 554.551236 300.081723 
L 554.690872 301.552052 
L 554.829984 300.264334 
L 554.899344 300.916719 
L 554.968575 299.619267 
L 555.037677 301.444269 
L 555.106651 300.862296 
L 555.312805 301.444434 
L 555.51782 300.329142 
L 555.585907 300.32397 
L 555.721707 301.115987 
L 555.924479 300.707667 
L 555.991824 302.952849 
L 556.059047 300.923111 
L 556.259988 302.851041 
L 556.326727 301.137015 
L 556.393346 301.956954 
L 556.526226 301.69068 
L 556.592488 301.166277 
L 556.658632 303.073383 
L 556.724658 301.735817 
L 556.790566 302.225874 
L 556.856358 302.06321 
L 556.922033 302.925658 
L 556.987592 301.631394 
L 557.053036 302.72768 
L 557.118364 302.333378 
L 557.183577 303.048693 
L 557.31366 302.069669 
L 557.378531 303.786957 
L 557.443288 303.244787 
L 557.507933 302.758757 
L 557.572465 301.296356 
L 557.701194 303.874531 
L 557.765391 302.259118 
L 557.829477 303.025259 
L 557.893452 303.855437 
L 557.957317 302.864322 
L 558.021073 304.483716 
L 558.084719 302.510365 
L 558.148256 303.286723 
L 558.211684 302.509365 
L 558.275004 302.771182 
L 558.401321 304.281502 
L 558.464318 303.107981 
L 558.527209 303.353235 
L 558.589992 304.433111 
L 558.715242 303.242772 
L 558.777709 304.306468 
L 558.84007 303.025573 
L 558.902327 303.196496 
L 559.026528 302.766156 
L 559.150315 303.881936 
L 559.212053 301.637452 
L 559.396655 304.124437 
L 559.457985 302.670267 
L 559.580342 304.068709 
L 559.641369 303.57285 
L 559.763123 304.834422 
L 559.884479 302.669941 
L 559.945008 303.260472 
L 560.005438 304.13284 
L 560.065771 303.456342 
L 560.126005 303.992665 
L 560.186141 303.317989 
L 560.24618 304.594101 
L 560.306123 303.88366 
L 560.365968 303.20447 
L 560.425717 305.092476 
L 560.48537 303.333021 
L 560.544927 303.928895 
L 560.604388 304.501887 
L 560.663754 304.369117 
L 560.723026 304.485889 
L 560.782203 304.003912 
L 560.900274 304.866376 
L 560.959169 303.593219 
L 561.01797 305.622898 
L 561.076678 303.102095 
L 561.135294 303.599211 
L 561.252248 306.020928 
L 561.485054 303.612419 
L 561.543028 305.787361 
L 561.600912 304.13916 
L 561.774022 306.101769 
L 561.831547 305.419165 
L 562.003586 304.033757 
L 562.060756 306.070841 
L 562.117837 305.382097 
L 562.174831 304.81801 
L 562.345289 305.587069 
L 562.458494 306.099838 
L 562.571354 304.355328 
L 562.683872 305.867803 
L 562.85201 303.647067 
L 563.01939 305.007826 
L 563.130559 305.689314 
L 563.296689 304.985331 
L 563.40703 306.399498 
L 563.462078 306.187793 
L 563.571929 305.360861 
L 563.736098 306.322559 
L 563.790659 304.425961 
L 563.845141 304.805043 
L 564.008107 306.609596 
L 564.062271 306.086736 
L 564.116355 306.738011 
L 564.278136 304.509882 
L 564.331907 304.727214 
L 564.385599 305.962782 
L 564.439214 305.869756 
L 564.492752 305.309053 
L 564.546212 305.794305 
L 564.599596 305.496259 
L 564.812365 308.103212 
L 564.865367 307.239815 
L 564.918293 305.490057 
L 564.971144 306.636123 
L 565.02392 307.134316 
L 565.07662 306.934719 
L 565.129246 304.711629 
L 565.181797 305.893955 
L 565.234274 306.178444 
L 565.286677 305.313896 
L 565.339006 305.386312 
L 565.391261 307.01617 
L 565.443442 305.459162 
L 565.495551 304.613047 
L 565.547586 306.539809 
L 565.599548 305.662327 
L 565.651437 306.175115 
L 565.754999 306.098524 
L 565.806671 306.546025 
L 565.858272 305.10084 
L 565.909801 305.962374 
L 565.961258 306.447914 
L 566.012644 305.799954 
L 566.063959 306.223104 
L 566.115203 306.193347 
L 566.166377 307.325941 
L 566.217479 306.808337 
L 566.319474 306.37529 
L 566.370366 307.852703 
L 566.421189 307.620786 
L 566.471942 305.751569 
L 566.522626 307.084602 
L 566.57324 307.222661 
L 566.623786 307.729234 
L 566.674263 306.143183 
L 566.724671 307.222258 
L 566.825282 306.384096 
L 566.875485 306.993842 
L 566.92562 306.373163 
L 566.975688 306.91139 
L 567.025688 306.11495 
L 567.075621 306.71584 
L 567.175286 306.060805 
L 567.225018 306.843866 
L 567.324282 306.6675 
L 567.373815 306.544719 
L 567.472682 307.650835 
L 567.620491 305.558244 
L 567.66963 308.123311 
L 567.767713 307.666224 
L 567.816657 308.103023 
L 567.914352 306.383586 
L 567.963103 307.287799 
L 568.01179 307.204388 
L 568.060414 306.805764 
L 568.108973 306.924815 
L 568.205902 307.843228 
L 568.302579 307.410777 
L 568.350823 307.505228 
L 568.399004 307.984376 
L 568.447122 306.829113 
L 568.495179 308.039096 
L 568.638975 306.721849 
L 568.73453 307.635916 
L 568.782215 306.366062 
L 568.829839 308.371691 
L 568.877403 306.800782 
L 568.924905 307.054597 
L 568.972346 306.389936 
L 569.019727 308.433288 
L 569.067047 307.809923 
L 569.302747 306.431961 
L 569.490234 308.130438 
L 569.536958 308.075321 
L 569.583623 306.754713 
L 569.676778 307.2015 
L 569.723268 306.811466 
L 569.769699 307.669941 
L 569.816073 307.022283 
L 569.862388 307.059637 
L 570.047074 308.425685 
L 570.184987 307.150416 
L 570.413708 308.786576 
L 570.459283 307.008548 
L 570.504803 307.938797 
L 570.550267 308.540154 
L 570.595675 306.724969 
L 570.641027 307.053394 
L 570.686324 308.670092 
L 570.776753 308.40239 
L 570.866961 307.76136 
L 570.911983 308.547949 
L 570.956951 308.003975 
L 571.091527 306.890085 
L 571.136277 308.433501 
L 571.225616 307.97477 
L 571.403651 306.826604 
L 571.448027 308.02117 
L 571.536619 307.669266 
L 571.669111 308.975815 
L 571.713171 308.92679 
L 571.801132 307.874486 
L 571.845035 308.859542 
L 571.932684 308.531134 
L 571.976432 307.203441 
L 572.063772 307.741107 
L 572.237837 309.193071 
L 572.281226 308.488889 
L 572.367852 308.692957 
L 572.497412 308.188091 
L 572.540499 308.75277 
L 572.583535 308.041064 
L 572.669458 307.765923 
L 572.712345 308.753671 
L 572.755183 307.765742 
L 572.797971 307.625039 
L 572.84071 308.502711 
L 572.92604 308.299414 
L 572.968632 308.296655 
L 573.011174 308.888928 
L 573.053668 307.674078 
L 573.13851 307.84224 
L 573.180858 308.58343 
L 573.223158 307.672345 
L 573.26541 308.386843 
L 573.307614 308.167407 
L 573.34977 309.443126 
L 573.391877 307.874122 
L 573.433938 308.997109 
L 573.47595 307.796052 
L 573.559832 308.220231 
L 573.601703 308.850583 
L 573.643525 307.831094 
L 573.685301 308.332856 
L 573.72703 307.456457 
L 573.768712 308.790093 
L 573.810347 308.027361 
L 573.851935 307.913124 
L 574.017824 309.410328 
L 574.05918 307.772527 
L 574.100491 308.253113 
L 574.182973 309.537675 
L 574.265273 307.816239 
L 574.306355 309.308994 
L 574.388382 308.558311 
L 574.429327 309.408892 
L 574.470227 308.038617 
L 574.592658 309.189014 
L 574.755273 307.610293 
L 574.836314 307.598884 
L 574.876768 309.449255 
L 574.917178 307.544508 
L 574.957544 309.786125 
L 575.078379 308.630391 
L 575.11857 308.899304 
L 575.158717 308.909618 
L 575.198821 307.916066 
L 575.278899 308.234968 
L 575.438539 308.83009 
L 575.478341 308.804713 
L 575.518101 307.847549 
L 575.597494 308.280641 
L 575.75577 309.408138 
L 575.795234 309.278649 
L 575.834656 308.719501 
L 575.913374 309.04044 
L 575.95267 308.754608 
L 576.070311 310.16865 
L 576.226586 307.772923 
L 576.343362 309.056671 
L 576.382205 307.91441 
L 576.421008 309.070599 
L 576.459771 308.913178 
L 576.498493 307.796834 
L 576.537175 307.944779 
L 576.575816 309.363309 
L 576.614417 307.61433 
L 576.652978 308.493012 
L 576.768421 309.327863 
L 576.845183 308.094569 
L 576.883505 309.353946 
L 576.96003 308.82421 
L 576.998233 307.971195 
L 577.036397 309.664934 
L 577.112608 308.84209 
L 577.150654 307.822225 
L 577.188662 308.971922 
L 577.226631 309.271916 
L 577.26456 308.565794 
L 577.302451 309.13195 
L 577.340304 309.288074 
L 577.415893 307.704919 
L 577.45363 308.707926 
L 577.491328 308.722534 
L 577.528988 309.436018 
L 577.604194 309.170459 
L 577.679248 308.897708 
L 577.716717 309.463547 
L 577.754149 308.312419 
L 577.791544 309.012968 
L 577.8289 309.58946 
L 577.866219 308.269715 
L 577.940745 308.720758 
L 578.089348 309.736107 
L 578.126406 308.452817 
L 578.200411 309.351364 
L 578.237358 309.877608 
L 578.274269 309.056367 
L 578.311142 309.202111 
L 578.347979 308.496496 
L 578.38478 309.067454 
L 578.421544 310.05474 
L 578.494963 309.636418 
L 578.531618 309.219406 
L 578.568237 309.225355 
L 578.604819 309.95137 
L 578.641366 308.793506 
L 578.677876 309.5016 
L 578.714351 308.938766 
L 578.75079 309.254549 
L 578.787193 309.539402 
L 578.82356 307.256311 
L 578.896188 309.528721 
L 579.041019 308.960803 
L 579.113222 309.391258 
L 579.221265 308.695015 
L 579.257209 309.395411 
L 579.328994 308.981932 
L 579.400639 309.28742 
L 579.43641 308.834417 
L 579.472147 309.424874 
L 579.507849 309.296053 
L 579.543517 309.567207 
L 579.57915 309.007208 
L 579.685845 308.575123 
L 579.756805 309.725318 
L 579.792235 309.553919 
L 579.82763 308.587423 
L 579.862992 309.721345 
L 579.89832 308.741625 
L 579.933614 309.440858 
L 580.004102 309.23461 
L 580.074456 308.447805 
L 580.109583 309.010266 
L 580.179738 308.888248 
L 580.214765 309.442309 
L 580.284721 308.595371 
L 580.31965 310.040868 
L 580.424239 310.033636 
L 580.563233 309.038667 
L 580.5979 309.327607 
L 580.632535 309.482382 
L 580.667138 308.924895 
L 580.701708 309.632691 
L 580.736246 309.329968 
L 580.805226 309.479263 
L 580.839668 308.670933 
L 580.977117 310.212023 
L 581.045651 308.787646 
L 581.07987 310.336541 
L 581.114058 308.934838 
L 581.148214 309.070206 
L 581.182339 310.215131 
L 581.250495 308.79594 
L 581.386432 309.934468 
L 581.454214 308.815167 
L 581.488059 308.197629 
L 581.521873 309.227185 
L 581.589408 310.374313 
L 581.623129 308.536033 
L 581.690481 309.494045 
L 581.791279 309.255535 
L 581.824817 310.385825 
L 581.858325 308.986702 
L 581.925251 309.527006 
L 581.958669 310.815711 
L 582.025414 309.267073 
L 582.058741 309.121336 
L 582.125306 308.689299 
L 582.191752 310.261963 
L 582.324288 309.270469 
L 582.42338 310.263938 
L 582.555092 308.743219 
L 582.587947 310.271748 
L 582.65357 310.135837 
L 582.719077 308.461066 
L 582.784468 309.57783 
L 582.947444 308.722274 
L 583.109707 310.24662 
L 583.206724 309.294128 
L 583.239007 309.312239 
L 583.335688 309.16058 
L 583.367859 310.005347 
L 583.464204 309.305875 
L 583.496264 310.562487 
L 583.592277 310.025726 
L 583.751748 309.104245 
L 583.878833 310.307469 
L 583.910536 309.1598 
L 583.942212 310.727838 
L 583.973862 310.025331 
L 584.005484 310.173026 
L 584.037079 310.023102 
L 584.131704 308.754844 
L 584.288877 310.464525 
L 584.35156 310.46946 
L 584.414137 308.761004 
L 584.445386 310.04247 
L 584.538976 309.766609 
L 584.57012 309.76111 
L 584.63233 309.193673 
L 584.725449 309.067257 
L 584.756437 310.481638 
L 584.849246 309.196099 
L 584.880131 309.483955 
L 584.91099 310.049575 
L 584.972631 309.772441 
L 585.034169 309.354906 
L 585.064901 309.778509 
L 585.126286 309.498944 
L 585.187571 310.070909 
L 585.309837 308.936562 
L 585.401273 310.783734 
L 585.492483 309.932751 
L 585.522837 309.224718 
L 585.553166 309.941869 
L 585.61375 309.51352 
L 585.70444 310.369512 
L 585.794909 308.804678 
L 585.825016 309.512995 
L 585.885157 309.086269 
L 585.915192 310.087189 
L 585.945201 308.67198 
L 585.975187 309.230302 
L 586.005148 309.238702 
L 586.035086 310.518142 
L 586.124752 309.812837 
L 586.18441 308.812435 
L 586.214203 309.992794 
L 586.273717 309.219296 
L 586.303438 310.661304 
L 586.392459 309.949504 
L 586.451688 309.529774 
L 586.599347 310.672148 
L 586.746421 309.252109 
L 586.775766 309.962201 
L 586.805087 310.24855 
L 586.834386 309.811536 
L 586.863661 309.117764 
L 586.892914 309.53872 
L 586.922143 310.53903 
L 586.951349 309.396434 
L 586.980532 310.392369 
L 587.067944 309.550071 
L 587.097036 309.828422 
L 587.213175 310.40554 
L 587.271108 309.40756 
L 587.357838 309.548642 
L 587.386704 309.54817 
L 587.415546 309.837491 
L 587.444367 308.842244 
L 587.473164 310.124206 
L 587.50194 309.832601 
L 587.588133 310.837116 
L 587.702746 308.701579 
L 587.788474 309.839704 
L 587.817006 309.557333 
L 587.845516 308.56113 
L 587.90247 309.838879 
L 587.930915 309.989377 
L 587.959338 309.849021 
L 587.987738 309.2773 
L 588.016118 309.991467 
L 588.129417 310.417959 
L 588.157688 310.417413 
L 588.214166 308.71704 
L 588.270557 308.968666 
L 588.411162 310.276666 
L 588.439219 309.704712 
L 588.467254 310.286596 
L 588.495269 309.710086 
L 588.523263 310.704004 
L 588.579186 309.4244 
L 588.607116 309.277926 
L 588.746453 310.270134 
L 588.774258 309.280716 
L 588.829804 310.707291 
L 588.857546 309.714192 
L 588.912968 310.419491 
L 588.940649 309.143713 
L 588.995947 310.569157 
L 589.023565 310.133518 
L 589.106296 309.144565 
L 589.133832 310.28538 
L 589.161348 307.868212 
L 589.216318 309.438133 
L 589.298621 310.575069 
L 589.353389 309.719 
L 589.380742 309.299025 
L 589.408075 310.004532 
L 589.435388 309.864886 
L 589.462681 310.004199 
L 589.489954 311.000454 
L 589.517207 310.152922 
L 589.544439 308.873827 
L 589.626018 309.3024 
L 589.653171 309.29893 
L 589.788639 310.297112 
L 589.842688 309.868323 
L 589.869682 310.723739 
L 589.896658 309.591392 
L 589.923613 310.157273 
L 590.03124 309.446238 
L 590.111756 309.163478 
L 590.165336 310.442547 
L 590.218839 309.732681 
L 590.298949 309.875755 
L 590.325614 310.443075 
L 590.378886 309.877316 
L 590.405494 309.1706 
L 590.485202 309.452721 
L 590.538246 310.303454 
L 590.617669 310.168217 
L 590.696923 309.453973 
L 590.670524 310.733201 
L 590.723303 310.021893 
L 590.749665 310.02006 
L 590.802332 310.160755 
L 590.854924 309.165351 
L 590.986079 310.591946 
L 591.116772 309.168256 
L 591.220996 310.168684 
L 591.247006 309.313434 
L 591.298972 309.741489 
L 591.376784 311.020275 
L 591.402686 309.59916 
L 591.428569 310.451645 
L 591.454434 309.458882 
L 591.50611 310.171768 
L 591.609246 309.460545 
L 591.712097 310.740271 
L 591.763416 310.090785 
L 591.814663 308.326402 
L 591.84026 310.169816 
L 591.86584 310.032412 
L 591.916946 310.314042 
L 591.942473 310.005715 
L 591.967982 302.007534 
L 592.044405 309.880948 
L 592.069844 310.117717 
L 592.095266 309.712922 
L 592.12067 309.141679 
L 592.196779 309.874984 
L 592.247431 310.305419 
L 592.323281 309.027055 
L 592.348529 310.145981 
L 592.373761 310.73065 
L 592.398975 309.02732 
L 592.424172 310.450119 
L 592.449352 309.454411 
L 592.549902 309.869351 
L 592.574997 309.173597 
L 592.65018 309.880776 
L 592.675207 309.740941 
L 592.700217 309.884714 
L 592.72521 310.31196 
L 592.775147 309.599365 
L 592.80009 310.02325 
L 592.825016 309.875704 
L 592.949396 310.730976 
L 593.12283 309.459748 
L 593.221573 310.599801 
L 593.246217 309.746127 
L 593.270845 308.893406 
L 593.295457 310.169912 
L 593.344632 310.029883 
L 593.369195 310.600197 
L 593.393741 309.605425 
L 593.467284 310.307789 
L 593.565114 310.599288 
L 593.589532 309.172916 
L 593.613933 310.316559 
L 593.662687 309.888571 
" clip-path="url(#paebfd3123e)" style="fill: none; stroke: #ffa500; stroke-width: 1.5; stroke-linecap: square"/>
   </g>
   <g id="line2d_20">
    <path d="M 236.542687 57.89324 
L 325.476992 74.317325 
L 349.45499 87.264799 
L 363.896748 97.103416 
L 374.263976 104.322598 
L 382.356961 109.448481 
L 388.996172 113.175604 
L 394.625216 116.042686 
L 411.194615 123.95328 
L 417.337611 126.780868 
L 435.012341 135.763896 
L 441.449283 139.243542 
L 444.292074 140.589527 
L 445.635709 141.472076 
L 446.932353 142.07232 
L 448.185183 142.875242 
L 449.397064 143.465239 
L 453.883525 146.263338 
L 454.925173 146.655475 
L 456.924592 147.945058 
L 457.885274 148.695145 
L 458.821693 149.129474 
L 459.735045 149.741108 
L 460.62644 150.172951 
L 462.347409 151.599341 
L 464.787778 153.084375 
L 465.566803 153.716518 
L 466.329797 154.090646 
L 469.233842 156.132436 
L 471.926873 157.646152 
L 473.825593 159.016992 
L 475.631804 160.100176 
L 476.788847 160.94067 
L 477.910875 161.206811 
L 478.459409 161.854812 
L 481.086584 163.431838 
L 481.590399 163.39936 
L 482.577946 164.309553 
L 483.062029 164.56685 
L 483.539873 164.380381 
L 484.477476 165.383496 
L 485.391954 165.616885 
L 485.840872 166.036148 
L 486.28442 166.287301 
L 486.722726 166.354804 
L 487.155911 166.688556 
L 487.584093 166.710955 
L 488.007388 167.041734 
L 490.054276 167.848773 
L 490.450436 168.147317 
L 490.842408 168.144786 
L 491.230279 168.469983 
L 491.614136 168.423736 
L 491.994059 168.724658 
L 492.370129 168.452052 
L 492.742424 169.075259 
L 493.837391 169.326076 
L 494.195311 169.650054 
L 494.900949 169.919535 
L 495.248796 169.598393 
L 495.59341 170.008828 
L 495.934851 170.139947 
L 496.273176 170.412127 
L 496.940704 170.472509 
L 497.270015 170.647543 
L 497.919992 170.425896 
L 498.55877 170.885856 
L 498.87408 170.751627 
L 499.186731 171.132755 
L 499.804234 171.330005 
L 500.711625 171.474817 
L 501.009221 171.404706 
L 501.597341 171.798901 
L 502.176278 171.781122 
L 502.462392 172.023842 
L 502.746315 171.654486 
L 503.028081 172.106579 
L 503.307722 172.134422 
L 503.585269 171.894034 
L 503.860755 172.334981 
L 504.134209 171.709959 
L 504.405661 172.397498 
L 504.67514 172.288062 
L 504.942675 172.015562 
L 505.208294 172.454572 
L 505.472023 172.500667 
L 505.73389 172.666217 
L 506.25214 172.804304 
L 506.508574 172.446201 
L 506.763247 172.698116 
L 507.016182 172.579195 
L 507.267404 172.663457 
L 507.516935 173.0566 
L 508.011016 172.852732 
L 508.255609 172.884387 
L 508.498599 172.659202 
L 508.740007 172.621494 
L 508.979854 173.105394 
L 509.454943 173.283462 
L 509.690224 173.476565 
L 509.924022 173.196304 
L 510.156355 173.149294 
L 510.387241 173.416091 
L 510.616698 173.298238 
L 510.844745 173.045713 
L 511.071397 173.394957 
L 511.296672 173.40839 
L 511.520587 173.150574 
L 511.743158 173.578209 
L 512.184331 173.283325 
L 512.402965 173.299275 
L 512.620317 173.50424 
L 512.836403 172.997757 
L 513.051236 173.335702 
L 513.477205 173.391938 
L 513.688369 172.979521 
L 513.898336 173.695071 
L 514.107122 173.624564 
L 514.314738 173.753716 
L 514.521199 173.633194 
L 514.726516 173.764892 
L 514.930702 173.202677 
L 515.133771 173.684031 
L 515.335733 173.393188 
L 515.736387 173.587739 
L 515.935102 173.469993 
L 516.132758 173.665322 
L 516.329367 172.808878 
L 516.524938 173.898619 
L 516.719483 173.143362 
L 516.913012 173.754829 
L 517.105537 173.68795 
L 517.297067 173.447182 
L 517.865793 173.474796 
L 518.053446 173.605259 
L 518.240154 173.375531 
L 518.425927 173.787475 
L 518.610774 173.646948 
L 518.977726 173.87291 
L 519.521433 173.529369 
L 519.700912 173.737537 
L 520.057284 173.260666 
L 520.234193 173.746991 
L 520.759913 173.769818 
L 520.93351 173.543138 
L 521.106298 173.999363 
L 521.449477 173.575891 
L 521.619882 173.72017 
L 521.789508 173.617641 
L 521.958362 173.851517 
L 522.12645 173.85873 
L 522.29378 173.254521 
L 522.460357 173.733039 
L 522.791285 173.408009 
L 523.119285 173.720017 
L 523.282204 173.466593 
L 523.444409 173.665169 
L 523.605909 173.647634 
L 523.766708 173.799369 
L 523.926812 172.970509 
L 524.244963 173.717638 
L 524.40302 173.267375 
L 524.560406 173.620279 
L 524.717128 173.264219 
L 524.873189 173.521715 
L 525.028597 173.550351 
L 525.183356 173.135143 
L 525.337471 173.581091 
L 525.643794 173.418241 
L 525.947607 173.490029 
L 526.098586 173.227364 
L 526.248952 173.444269 
L 526.39871 173.240508 
L 526.696425 173.280077 
L 526.844391 173.112302 
L 526.991769 173.349487 
L 527.138563 173.060397 
L 527.430419 173.528973 
L 527.719997 173.156963 
L 527.863942 173.394377 
L 528.00733 173.040803 
L 528.150166 173.297369 
L 528.434198 173.130508 
L 528.575402 173.29595 
L 528.716071 172.663304 
L 528.995817 173.268199 
L 529.134903 172.89564 
L 529.273468 173.402733 
L 529.549056 172.626556 
L 529.822611 173.091884 
L 529.958635 172.811288 
L 530.094163 173.050684 
L 530.36374 172.923575 
L 530.764466 173.02159 
L 530.897085 172.604645 
L 531.029231 172.984735 
L 531.553156 172.883305 
L 531.682989 172.343383 
L 531.812369 172.900413 
L 532.069782 172.775927 
L 532.197821 172.331474 
L 532.579308 172.686375 
L 532.705603 172.179145 
L 532.95691 172.760633 
L 533.081927 172.482614 
L 533.206525 172.772085 
L 533.330705 172.377264 
L 533.454471 172.687595 
L 533.577825 172.462455 
L 533.70077 172.532993 
L 533.945443 172.295397 
L 534.067178 172.527672 
L 534.188513 172.416589 
L 534.43 172.449434 
L 534.669925 172.188309 
L 534.789307 172.381533 
L 534.908307 172.326793 
L 535.026925 171.847924 
L 535.26303 172.371942 
L 535.380522 172.281719 
L 535.497642 171.913964 
L 535.730778 172.355246 
L 536.192698 171.94969 
L 536.307285 172.29712 
L 536.648935 171.715204 
L 536.874966 172.009173 
L 537.099627 171.996319 
L 537.322935 171.914543 
L 537.434086 171.966463 
L 537.875391 171.409097 
L 538.311505 172.001244 
L 538.419737 171.170341 
L 538.527654 171.929197 
L 538.635257 171.687818 
L 538.74255 170.98224 
L 538.849532 171.772949 
L 539.168641 171.405712 
L 539.274403 171.670039 
L 539.379864 171.604487 
L 539.485026 171.186931 
L 539.69446 171.643995 
L 539.798735 171.045703 
L 540.00641 171.467665 
L 540.109813 171.499976 
L 540.315757 171.227781 
L 540.418302 171.41878 
L 540.520564 171.206373 
L 540.622545 171.351337 
L 540.724246 171.277368 
L 540.825668 171.468443 
L 541.027686 170.789915 
L 541.228608 171.152303 
L 541.428448 170.777107 
L 541.627217 171.101603 
L 541.824925 170.416198 
L 541.923386 171.09529 
L 542.021586 171.037942 
L 542.217208 170.859782 
L 542.314634 170.575465 
L 542.411804 170.62583 
L 542.605384 170.602896 
L 542.701797 170.898482 
L 542.797959 170.701643 
L 542.893873 170.749507 
L 543.084959 170.821296 
L 543.180134 170.90911 
L 543.275065 170.525344 
L 543.464202 170.759846 
L 543.652379 170.015491 
L 543.74611 170.619608 
L 544.025892 170.184258 
L 544.118685 170.387928 
L 544.211247 170.064804 
L 544.303578 170.094157 
L 544.39568 170.407186 
L 544.67062 170.088591 
L 544.852788 170.112256 
L 544.943538 169.864641 
L 545.034066 170.197189 
L 545.30433 169.547525 
L 545.393983 169.846908 
L 545.483419 169.6664 
L 545.57264 169.994418 
L 545.75044 169.452346 
L 545.839021 169.883076 
L 545.927392 169.848265 
L 546.015552 169.689608 
L 546.103503 169.128308 
L 546.191246 169.812935 
L 546.278782 169.408965 
L 546.366112 169.693008 
L 546.540157 169.486151 
L 546.626874 169.546199 
L 546.713388 169.866227 
L 546.971728 169.606078 
L 547.057443 169.83381 
L 547.313404 168.949614 
L 547.567611 169.613397 
L 547.820087 168.896962 
L 547.903866 169.644077 
L 547.987455 169.423405 
L 548.070856 169.034333 
L 548.15407 169.166413 
L 548.237098 168.811619 
L 548.31994 169.415812 
L 548.402598 169.321243 
L 548.567362 168.628702 
L 548.649471 168.79881 
L 548.813144 168.709258 
L 548.976098 168.984761 
L 549.057308 168.965107 
L 549.13834 168.642028 
L 549.460708 169.078202 
L 549.700658 168.747058 
L 549.859767 168.486177 
L 549.939066 168.842527 
L 550.097157 168.652458 
L 550.17595 168.856067 
L 550.254576 168.460728 
L 550.411331 168.718452 
L 550.48946 168.441058 
L 550.567425 168.552507 
L 550.800342 168.573412 
L 550.877657 168.637896 
L 551.185314 168.264697 
L 551.33819 168.21168 
L 551.414393 168.046405 
L 551.642066 168.237114 
L 551.717647 168.209697 
L 551.868349 167.924816 
L 552.018441 168.282218 
L 552.316815 168.065617 
L 552.391035 167.450857 
L 552.53903 167.864006 
L 552.686437 167.774103 
L 552.83326 167.509395 
L 552.906454 167.015781 
L 553.125174 167.713461 
L 553.197795 167.760166 
L 553.342611 167.069897 
L 553.414808 167.572294 
L 553.486864 167.476002 
L 553.558781 167.19478 
L 553.630558 167.55209 
L 553.702197 167.39973 
L 553.773697 167.696292 
L 553.916286 167.297324 
L 554.129147 167.617154 
L 554.270378 166.877892 
L 554.340792 166.953828 
L 554.481221 167.335627 
L 554.551236 166.959455 
L 554.62112 167.208 
L 554.690872 167.111906 
L 554.760493 167.099189 
L 554.829984 167.289821 
L 554.899344 167.209296 
L 555.312805 166.691743 
L 555.449607 167.048657 
L 555.51782 166.608335 
L 555.585907 166.949513 
L 555.653869 166.857673 
L 555.721707 166.564024 
L 555.789421 166.71428 
L 555.857011 166.798358 
L 555.924479 166.727744 
L 556.059047 166.132547 
L 556.193128 166.769356 
L 556.459846 166.00736 
L 556.526226 166.168639 
L 556.658632 166.427035 
L 556.724658 166.436062 
L 556.790566 166.641698 
L 556.856358 166.438273 
L 556.922033 165.698142 
L 556.987592 166.103484 
L 557.118364 166.379125 
L 557.183577 166.267463 
L 557.248675 165.972807 
L 557.31366 166.161503 
L 557.378531 166.371379 
L 557.443288 166.22274 
L 557.636885 165.942677 
L 557.701194 165.953762 
L 557.765391 165.81874 
L 557.829477 165.950941 
L 557.893452 165.800945 
L 557.957317 166.136466 
L 558.021073 166.076144 
L 558.211684 165.574967 
L 558.275004 165.674233 
L 558.401321 165.700018 
L 558.464318 165.458029 
L 558.527209 165.588294 
L 558.589992 165.707382 
L 558.65267 165.352253 
L 558.715242 165.736461 
L 558.777709 165.597108 
L 559.026528 165.574556 
L 559.150315 165.08785 
L 559.273689 165.671321 
L 559.396655 165.397464 
L 559.457985 165.491225 
L 559.519214 165.386653 
L 559.580342 165.200381 
L 559.641369 165.274152 
L 559.702296 165.347556 
L 559.763123 164.898818 
L 559.82385 165.04456 
L 559.884479 165.259818 
L 559.945008 165.109655 
L 560.005438 165.138611 
L 560.126005 164.985321 
L 560.186141 165.279382 
L 560.24618 165.172096 
L 560.425717 164.581306 
L 560.544927 164.954352 
L 560.723026 164.505385 
L 560.782203 164.924618 
L 560.841285 164.775293 
L 560.959169 164.711129 
L 561.01797 164.61569 
L 561.076678 164.767775 
L 561.135294 164.687707 
L 561.193817 164.682447 
L 561.252248 164.435289 
L 561.310587 164.756934 
L 561.368834 164.671407 
L 561.42699 164.488231 
L 561.485054 164.678924 
L 561.543028 164.652057 
L 561.716409 164.167318 
L 561.831547 164.287565 
L 561.888982 164.535866 
L 561.946328 164.480348 
L 562.060756 164.347872 
L 562.117837 164.490777 
L 562.174831 163.904074 
L 562.231738 164.329879 
L 562.288557 164.310178 
L 562.401934 163.966896 
L 562.458494 164.132354 
L 562.514967 163.959516 
L 562.627655 164.222791 
L 562.683872 163.980193 
L 562.740003 164.03992 
L 562.907888 163.952197 
L 563.01939 163.570505 
L 563.075016 163.970388 
L 563.130559 163.874874 
L 563.186018 163.912796 
L 563.351901 163.705207 
L 563.462078 163.746774 
L 563.517044 163.311469 
L 563.571929 163.637033 
L 563.790659 163.413769 
L 563.899543 163.5883 
L 563.953865 163.527841 
L 564.116355 163.307459 
L 564.17036 163.118321 
L 564.224287 163.277954 
L 564.278136 163.295901 
L 564.439214 163.011629 
L 564.492752 163.204397 
L 564.546212 162.881212 
L 564.599596 163.00521 
L 564.652903 163.011111 
L 564.706133 163.316303 
L 564.759287 163.150372 
L 564.918293 162.963125 
L 565.07662 162.620575 
L 565.181797 162.907896 
L 565.234274 162.856479 
L 565.286677 162.634283 
L 565.339006 162.748858 
L 565.391261 162.834766 
L 565.547586 162.31552 
L 565.651437 162.495418 
L 565.703254 162.191492 
L 565.858272 162.700475 
L 565.909801 162.416982 
L 566.012644 162.438817 
L 566.063959 162.321543 
L 566.115203 162.534941 
L 566.217479 162.496104 
L 566.319474 161.886849 
L 566.370366 162.251371 
L 566.421189 162.169153 
L 566.471942 162.284948 
L 566.522626 162.294081 
L 566.623786 161.904186 
L 566.674263 162.087987 
L 566.724671 162.125223 
L 566.77501 162.022695 
L 566.825282 162.183944 
L 566.875485 162.127495 
L 567.025688 161.802648 
L 567.075621 161.85899 
L 567.125487 161.932166 
L 567.175286 161.819543 
L 567.274683 161.670355 
L 567.423282 161.774561 
L 567.620491 161.198348 
L 567.66963 161.642314 
L 567.718704 161.376859 
L 567.767713 161.365423 
L 567.865537 161.684978 
L 568.01179 161.20306 
L 568.060414 161.256093 
L 568.108973 161.573057 
L 568.15747 161.413134 
L 568.205902 161.062121 
L 568.254272 161.130494 
L 568.350823 161.355786 
L 568.399004 160.988442 
L 568.447122 161.138865 
L 568.591105 161.358515 
L 568.782215 160.737397 
L 568.829839 160.916318 
L 568.924905 161.327927 
L 568.972346 161.153885 
L 569.114307 160.826858 
L 569.161507 161.120934 
L 569.255727 161.096521 
L 569.443451 160.763745 
L 569.536958 160.862005 
L 569.583623 160.961514 
L 569.63023 160.844713 
L 569.676778 160.517777 
L 569.723268 160.624835 
L 569.769699 160.713777 
L 569.816073 160.463082 
L 569.862388 160.638405 
L 569.908646 160.93332 
L 569.954846 160.687428 
L 570.047074 160.357794 
L 570.093102 160.568706 
L 570.139073 160.555212 
L 570.322389 160.138738 
L 570.368076 160.385027 
L 570.413708 160.146576 
L 570.595675 160.477431 
L 570.731566 160.062376 
L 570.866961 160.252505 
L 570.911983 160.182638 
L 570.956951 160.337117 
L 571.001864 159.919241 
L 571.091527 160.082015 
L 571.136277 159.884079 
L 571.180974 160.154642 
L 571.359223 159.746967 
L 571.448027 160.186892 
L 571.492349 159.959649 
L 571.580836 159.614949 
L 571.625 159.394659 
L 571.713171 159.929701 
L 571.757177 159.898976 
L 571.932684 159.490417 
L 572.063772 159.721793 
L 572.281226 159.219976 
L 572.454276 159.496928 
L 572.497412 159.522271 
L 572.583535 159.108939 
L 572.669458 159.154332 
L 572.755183 159.120024 
L 572.84071 159.433938 
L 572.883399 159.030883 
L 572.968632 159.228545 
L 573.053668 159.317076 
L 573.13851 158.93116 
L 573.180858 158.804402 
L 573.223158 159.088293 
L 573.307614 158.924466 
L 573.391877 158.983629 
L 573.433938 158.688486 
L 573.47595 158.891622 
L 573.517915 159.011579 
L 573.685301 158.600519 
L 573.851935 158.884791 
L 573.893477 158.669044 
L 574.100491 158.268872 
L 574.141755 158.519948 
L 574.182973 158.699037 
L 574.224146 158.613755 
L 574.265273 158.447245 
L 574.306355 158.642208 
L 574.347391 158.758871 
L 574.470227 158.080023 
L 574.511082 158.556742 
L 574.592658 158.207467 
L 574.633379 157.887957 
L 574.714686 158.017612 
L 574.795815 158.514443 
L 574.876768 158.445018 
L 575.078379 157.911043 
L 575.278899 158.363425 
L 575.318873 157.992331 
L 575.398693 158.113966 
L 575.438539 157.94372 
L 575.518101 157.990806 
L 575.557819 157.962841 
L 575.597494 157.78459 
L 575.637126 157.94343 
L 575.676716 158.040363 
L 575.716264 157.965906 
L 575.75577 157.745722 
L 575.834656 157.886798 
L 575.95267 157.932878 
L 575.991925 157.740538 
L 576.031139 157.751639 
L 576.070311 157.949133 
L 576.148531 157.796163 
L 576.343362 157.617119 
L 576.382205 157.667835 
L 576.421008 157.772315 
L 576.537175 157.428667 
L 576.652978 157.784087 
L 576.72998 157.339954 
L 576.768421 157.590283 
L 576.806822 157.687581 
L 576.845183 157.266427 
L 576.921787 157.322083 
L 576.96003 157.407747 
L 576.998233 157.254106 
L 577.036397 157.242365 
L 577.074522 157.531105 
L 577.150654 157.372112 
L 577.302451 157.389022 
L 577.45363 157.031499 
L 577.491328 157.332086 
L 577.528988 157.170714 
L 577.56661 157.025567 
L 577.604194 157.227742 
L 577.64174 157.147064 
L 577.791544 156.749865 
L 577.866219 156.902423 
L 577.940745 156.908065 
L 577.977952 156.75816 
L 578.015121 156.890102 
L 578.052253 157.019986 
L 578.126406 156.893686 
L 578.200411 156.760478 
L 578.237358 156.966938 
L 578.274269 156.630716 
L 578.347979 156.935237 
L 578.421544 156.819458 
L 578.494963 156.334459 
L 578.531618 156.618014 
L 578.568237 156.723394 
L 578.604819 156.568732 
L 578.641366 156.622131 
L 578.677876 156.632576 
L 578.787193 156.399508 
L 578.82356 156.514006 
L 578.896188 156.659276 
L 578.968674 156.22574 
L 579.041019 156.300898 
L 579.221265 156.276806 
L 579.257209 156.455133 
L 579.293119 156.174003 
L 579.328994 156.367167 
L 579.43641 156.16955 
L 579.472147 156.315918 
L 579.507849 156.002263 
L 579.57915 156.22112 
L 579.721342 155.816662 
L 579.82763 156.252851 
L 579.862992 156.075728 
L 580.004102 155.456211 
L 580.039296 156.114184 
L 580.109583 156.039301 
L 580.214765 155.7514 
L 580.24976 155.871174 
L 580.284721 155.777291 
L 580.31965 156.066534 
L 580.389408 155.826894 
L 580.424239 155.928081 
L 580.459036 155.509092 
L 580.528533 155.591752 
L 580.563233 155.870458 
L 580.5979 155.200728 
L 580.667138 155.724548 
L 580.770752 155.441359 
L 580.805226 155.803793 
L 580.874078 155.702438 
L 581.0114 155.29426 
L 581.045651 155.502184 
L 581.07987 155.720462 
L 581.114058 155.552899 
L 581.182339 155.138958 
L 581.250495 155.403467 
L 581.352495 155.297127 
L 581.420339 155.177048 
L 581.454214 155.390613 
L 581.521873 155.156402 
L 581.555656 154.952808 
L 581.589408 155.209663 
L 581.623129 155.351974 
L 581.65682 155.326525 
L 581.690481 155.142541 
L 581.72411 155.440399 
L 581.791279 155.192707 
L 581.858325 155.069914 
L 581.891803 155.281452 
L 581.925251 154.944574 
L 581.992056 154.854701 
L 582.025414 155.165993 
L 582.092039 155.045197 
L 582.191752 154.689472 
L 582.25808 155.05616 
L 582.291199 154.993322 
L 582.42338 154.444617 
L 582.522208 154.914642 
L 582.555092 154.555441 
L 582.65357 154.649476 
L 582.686338 154.772087 
L 582.751787 154.732975 
L 582.88234 154.258209 
L 582.914906 154.574379 
L 582.979953 154.56244 
L 583.012434 154.27579 
L 583.109707 154.321992 
L 583.206724 154.500807 
L 583.239007 154.101244 
L 583.303489 154.549692 
L 583.335688 154.163167 
L 583.432117 154.375985 
L 583.464204 154.189119 
L 583.496264 153.961845 
L 583.5603 154.033008 
L 583.592277 154.129301 
L 583.656148 153.660557 
L 583.688042 154.153377 
L 583.719909 154.142536 
L 583.751748 154.236724 
L 583.78356 153.471083 
L 583.847103 154.250813 
L 583.910536 154.031895 
L 583.942212 153.91116 
L 583.973862 154.05059 
L 584.005484 154.113717 
L 584.131704 153.708756 
L 584.163192 153.753845 
L 584.257495 154.067942 
L 584.226087 153.670239 
L 584.320231 153.936411 
L 584.35156 153.964788 
L 584.382861 153.872644 
L 584.414137 153.864699 
L 584.445386 153.689635 
L 584.538976 153.770313 
L 584.57012 153.916543 
L 584.63233 153.731888 
L 584.663395 153.882143 
L 584.818335 153.306098 
L 584.880131 153.833044 
L 584.941823 153.665772 
L 585.003413 153.502296 
L 585.034169 153.521921 
L 585.064901 153.659627 
L 585.126286 153.4675 
L 585.187571 153.583249 
L 585.248754 153.321377 
L 585.279308 153.617633 
L 585.340341 153.426299 
L 585.370819 153.361769 
L 585.401273 153.502266 
L 585.431701 153.772478 
L 585.462105 153.502586 
L 585.522837 153.145764 
L 585.58347 153.248963 
L 585.644004 153.161561 
L 585.734621 153.44536 
L 585.855099 153.047886 
L 585.945201 153.238594 
L 586.005148 152.952905 
L 586.064999 153.1735 
L 586.124752 152.866189 
L 586.154593 152.886209 
L 586.18441 153.117677 
L 586.243972 152.800759 
L 586.303438 152.411992 
L 586.362809 152.590365 
L 586.422085 152.961627 
L 586.481267 152.846457 
L 586.569862 152.505249 
L 586.599347 152.79318 
L 586.628809 152.907008 
L 586.658247 152.460969 
L 586.746421 152.558679 
L 586.805087 152.948178 
L 586.863661 152.607382 
L 586.951349 152.814604 
L 586.922143 152.548707 
L 586.980532 152.714378 
L 587.097036 152.375396 
L 587.155151 152.765596 
L 587.184174 152.527054 
L 587.242153 152.335781 
L 587.271108 152.635179 
L 587.357838 152.591356 
L 587.386704 152.621684 
L 587.415546 152.327471 
L 587.50194 152.404047 
L 587.559424 152.248013 
L 587.588133 152.422498 
L 587.616819 152.453223 
L 587.731344 151.942333 
L 587.75992 152.312055 
L 587.817006 152.212042 
L 587.845516 151.628663 
L 587.90247 152.408805 
L 588.016118 151.940808 
L 588.044475 152.176285 
L 588.072811 152.22758 
L 588.101125 152.142663 
L 588.129417 152.193119 
L 588.185938 151.93419 
L 588.214166 152.05122 
L 588.242372 151.343782 
L 588.270557 152.471825 
L 588.298721 152.173175 
L 588.326863 152.374588 
L 588.354984 151.72093 
L 588.439219 152.012459 
L 588.579186 151.733799 
L 588.635026 151.951589 
L 588.690781 151.568448 
L 588.746453 151.804093 
L 588.802041 151.585739 
L 588.857546 151.677244 
L 588.885268 151.385333 
L 588.995947 151.914825 
L 589.07874 151.182715 
L 589.106296 151.685005 
L 589.133832 151.805892 
L 589.161348 151.632292 
L 589.188843 151.641334 
L 589.216318 151.241177 
L 589.271207 151.746104 
L 589.298621 151.321352 
L 589.353389 151.71759 
L 589.408075 151.33198 
L 589.489954 151.135476 
L 589.544439 151.519562 
L 589.707418 151.2162 
L 589.842688 151.426472 
L 589.869682 151.112025 
L 589.977466 151.148849 
L 590.004363 151.230305 
L 590.03124 151.040953 
L 590.058098 150.954709 
L 590.084937 151.219219 
L 590.111756 151.368285 
L 590.138556 151.150008 
L 590.165336 150.978863 
L 590.192097 151.184072 
L 590.218839 151.063749 
L 590.245562 151.210345 
L 590.272265 150.895043 
L 590.298949 150.870006 
L 590.35226 151.154521 
L 590.405494 150.865005 
L 590.432082 150.968906 
L 590.485202 150.930251 
L 590.511733 150.70008 
L 590.538246 151.034961 
L 590.564739 150.945042 
L 590.617669 150.879826 
L 590.644106 151.033466 
L 590.776008 150.36854 
L 590.907442 151.231952 
L 591.038412 150.308355 
L 591.09067 150.570807 
L 591.116772 150.406538 
L 591.142856 150.138674 
L 591.220996 150.463063 
L 591.350865 150.352194 
L 591.454434 150.671734 
L 591.557714 150.29393 
L 591.583489 150.4426 
L 591.634986 150.280329 
L 591.686411 150.447449 
L 591.712097 150.504751 
L 591.763416 149.848821 
L 591.814663 150.017054 
L 591.84026 150.432658 
L 591.891402 149.97654 
L 591.916946 150.146801 
L 591.942473 149.5916 
L 591.967982 135.282466 
L 592.044405 149.874911 
L 592.069844 148.676604 
L 592.12067 149.955452 
L 592.146057 149.953515 
L 592.398975 150.147197 
L 592.65018 150.16365 
L 592.72521 150.242803 
L 592.775147 150.21958 
L 592.899694 150.203844 
L 592.949396 150.266941 
L 593.023824 150.201176 
L 593.14754 150.215646 
L 593.270845 150.221181 
L 593.344632 150.202594 
L 593.369195 150.292665 
L 593.393741 150.184159 
L 593.442786 150.208281 
L 593.662687 150.175864 
L 593.662687 150.175864 
" clip-path="url(#paebfd3123e)" style="fill: none; stroke: #008000; stroke-width: 1.5; stroke-linecap: square"/>
   </g>
   <g id="patch_3">
    <path d="M 236.542687 311.6435 
L 236.542687 45.5315 
" style="fill: none; stroke: #000000; stroke-width: 0.8; stroke-linejoin: miter; stroke-linecap: square"/>
   </g>
   <g id="patch_4">
    <path d="M 593.662687 311.6435 
L 593.662687 45.5315 
" style="fill: none; stroke: #000000; stroke-width: 0.8; stroke-linejoin: miter; stroke-linecap: square"/>
   </g>
   <g id="patch_5">
    <path d="M 236.542687 311.6435 
L 593.662687 311.6435 
" style="fill: none; stroke: #000000; stroke-width: 0.8; stroke-linejoin: miter; stroke-linecap: square"/>
   </g>
   <g id="patch_6">
    <path d="M 236.542687 45.5315 
L 593.662687 45.5315 
" style="fill: none; stroke: #000000; stroke-width: 0.8; stroke-linejoin: miter; stroke-linecap: square"/>
   </g>
   <g id="text_12">
    <!-- Loss of the 26_05_25_CINIC10_torch_model_(1024+2048-2048.2+1)_ct-pb -->
    <g transform="translate(7.2 25.5315) scale(0.264 -0.264)">
     <defs>
      <path id="TimesNewRomanPSMT-20" transform="scale(0.015625)"/>
      <path id="TimesNewRomanPSMT-66" d="M 1319 2638 
L 1319 756 
Q 1319 356 1406 250 
Q 1522 113 1716 113 
L 1975 113 
L 1975 0 
L 266 0 
L 266 113 
L 394 113 
Q 519 113 622 175 
Q 725 238 764 344 
Q 803 450 803 756 
L 803 2638 
L 247 2638 
L 247 2863 
L 803 2863 
L 803 3050 
Q 803 3478 940 3775 
Q 1078 4072 1361 4255 
Q 1644 4438 1997 4438 
Q 2325 4438 2600 4225 
Q 2781 4084 2781 3909 
Q 2781 3816 2700 3733 
Q 2619 3650 2525 3650 
Q 2453 3650 2373 3701 
Q 2294 3753 2178 3923 
Q 2063 4094 1966 4153 
Q 1869 4213 1750 4213 
Q 1606 4213 1506 4136 
Q 1406 4059 1362 3898 
Q 1319 3738 1319 3069 
L 1319 2863 
L 2056 2863 
L 2056 2638 
L 1319 2638 
z
" transform="scale(0.015625)"/>
      <path id="TimesNewRomanPSMT-74" d="M 1031 3803 
L 1031 2863 
L 1700 2863 
L 1700 2644 
L 1031 2644 
L 1031 788 
Q 1031 509 1111 412 
Q 1191 316 1316 316 
Q 1419 316 1516 380 
Q 1613 444 1666 569 
L 1788 569 
Q 1678 263 1478 108 
Q 1278 -47 1066 -47 
Q 922 -47 784 33 
Q 647 113 581 261 
Q 516 409 516 719 
L 516 2644 
L 63 2644 
L 63 2747 
Q 234 2816 414 2980 
Q 594 3144 734 3369 
Q 806 3488 934 3803 
L 1031 3803 
z
" transform="scale(0.015625)"/>
      <path id="TimesNewRomanPSMT-68" d="M 1041 4444 
L 1041 2350 
Q 1388 2731 1591 2839 
Q 1794 2947 1997 2947 
Q 2241 2947 2416 2812 
Q 2591 2678 2675 2391 
Q 2734 2191 2734 1659 
L 2734 647 
Q 2734 375 2778 275 
Q 2809 200 2884 156 
Q 2959 113 3159 113 
L 3159 0 
L 1753 0 
L 1753 113 
L 1819 113 
Q 2019 113 2097 173 
Q 2175 234 2206 353 
Q 2216 403 2216 647 
L 2216 1659 
Q 2216 2128 2167 2275 
Q 2119 2422 2012 2495 
Q 1906 2569 1756 2569 
Q 1603 2569 1437 2487 
Q 1272 2406 1041 2159 
L 1041 647 
Q 1041 353 1073 281 
Q 1106 209 1195 161 
Q 1284 113 1503 113 
L 1503 0 
L 84 0 
L 84 113 
Q 275 113 384 172 
Q 447 203 484 290 
Q 522 378 522 647 
L 522 3238 
Q 522 3728 498 3840 
Q 475 3953 426 3993 
Q 378 4034 297 4034 
Q 231 4034 84 3984 
L 41 4094 
L 897 4444 
L 1041 4444 
z
" transform="scale(0.015625)"/>
      <path id="TimesNewRomanPSMT-65" d="M 681 1784 
Q 678 1147 991 784 
Q 1303 422 1725 422 
Q 2006 422 2214 576 
Q 2422 731 2563 1106 
L 2659 1044 
Q 2594 616 2278 264 
Q 1963 -88 1488 -88 
Q 972 -88 605 314 
Q 238 716 238 1394 
Q 238 2128 614 2539 
Q 991 2950 1559 2950 
Q 2041 2950 2350 2633 
Q 2659 2316 2659 1784 
L 681 1784 
z
M 681 1966 
L 2006 1966 
Q 1991 2241 1941 2353 
Q 1863 2528 1708 2628 
Q 1553 2728 1384 2728 
Q 1125 2728 920 2526 
Q 716 2325 681 1966 
z
" transform="scale(0.015625)"/>
      <path id="TimesNewRomanPSMT-36" d="M 2869 4325 
L 2869 4209 
Q 2456 4169 2195 4045 
Q 1934 3922 1679 3669 
Q 1425 3416 1258 3105 
Q 1091 2794 978 2366 
Q 1428 2675 1881 2675 
Q 2316 2675 2634 2325 
Q 2953 1975 2953 1425 
Q 2953 894 2631 456 
Q 2244 -75 1606 -75 
Q 1172 -75 869 213 
Q 275 772 275 1663 
Q 275 2231 503 2743 
Q 731 3256 1154 3653 
Q 1578 4050 1965 4187 
Q 2353 4325 2688 4325 
L 2869 4325 
z
M 925 2138 
Q 869 1716 869 1456 
Q 869 1156 980 804 
Q 1091 453 1309 247 
Q 1469 100 1697 100 
Q 1969 100 2183 356 
Q 2397 613 2397 1088 
Q 2397 1622 2184 2012 
Q 1972 2403 1581 2403 
Q 1463 2403 1327 2353 
Q 1191 2303 925 2138 
z
" transform="scale(0.015625)"/>
      <path id="TimesNewRomanPSMT-5f" d="M 3256 -1381 
L -53 -1381 
L -53 -1119 
L 3256 -1119 
L 3256 -1381 
z
" transform="scale(0.015625)"/>
      <path id="TimesNewRomanPSMT-43" d="M 3853 4334 
L 3950 2894 
L 3853 2894 
Q 3659 3541 3300 3825 
Q 2941 4109 2438 4109 
Q 2016 4109 1675 3895 
Q 1334 3681 1139 3212 
Q 944 2744 944 2047 
Q 944 1472 1128 1050 
Q 1313 628 1683 403 
Q 2053 178 2528 178 
Q 2941 178 3256 354 
Q 3572 531 3950 1056 
L 4047 994 
Q 3728 428 3303 165 
Q 2878 -97 2294 -97 
Q 1241 -97 663 684 
Q 231 1266 231 2053 
Q 231 2688 515 3219 
Q 800 3750 1298 4042 
Q 1797 4334 2388 4334 
Q 2847 4334 3294 4109 
Q 3425 4041 3481 4041 
Q 3566 4041 3628 4100 
Q 3709 4184 3744 4334 
L 3853 4334 
z
" transform="scale(0.015625)"/>
      <path id="TimesNewRomanPSMT-49" d="M 1975 116 
L 1975 0 
L 159 0 
L 159 116 
L 309 116 
Q 572 116 691 269 
Q 766 369 766 750 
L 766 3488 
Q 766 3809 725 3913 
Q 694 3991 597 4047 
Q 459 4122 309 4122 
L 159 4122 
L 159 4238 
L 1975 4238 
L 1975 4122 
L 1822 4122 
Q 1563 4122 1444 3969 
Q 1366 3869 1366 3488 
L 1366 750 
Q 1366 428 1406 325 
Q 1438 247 1538 191 
Q 1672 116 1822 116 
L 1975 116 
z
" transform="scale(0.015625)"/>
      <path id="TimesNewRomanPSMT-4e" d="M -84 4238 
L 1066 4238 
L 3656 1059 
L 3656 3503 
Q 3656 3894 3569 3991 
Q 3453 4122 3203 4122 
L 3056 4122 
L 3056 4238 
L 4531 4238 
L 4531 4122 
L 4381 4122 
Q 4113 4122 4000 3959 
Q 3931 3859 3931 3503 
L 3931 -69 
L 3819 -69 
L 1025 3344 
L 1025 734 
Q 1025 344 1109 247 
Q 1228 116 1475 116 
L 1625 116 
L 1625 0 
L 150 0 
L 150 116 
L 297 116 
Q 569 116 681 278 
Q 750 378 750 734 
L 750 3681 
Q 566 3897 470 3965 
Q 375 4034 191 4094 
Q 100 4122 -84 4122 
L -84 4238 
z
" transform="scale(0.015625)"/>
      <path id="TimesNewRomanPSMT-72" d="M 1038 2947 
L 1038 2303 
Q 1397 2947 1775 2947 
Q 1947 2947 2059 2842 
Q 2172 2738 2172 2600 
Q 2172 2478 2090 2393 
Q 2009 2309 1897 2309 
Q 1788 2309 1652 2417 
Q 1516 2525 1450 2525 
Q 1394 2525 1328 2463 
Q 1188 2334 1038 2041 
L 1038 669 
Q 1038 431 1097 309 
Q 1138 225 1241 169 
Q 1344 113 1538 113 
L 1538 0 
L 72 0 
L 72 113 
Q 291 113 397 181 
Q 475 231 506 341 
Q 522 394 522 644 
L 522 1753 
Q 522 2253 501 2348 
Q 481 2444 426 2487 
Q 372 2531 291 2531 
Q 194 2531 72 2484 
L 41 2597 
L 906 2947 
L 1038 2947 
z
" transform="scale(0.015625)"/>
      <path id="TimesNewRomanPSMT-63" d="M 2631 1088 
Q 2516 522 2178 217 
Q 1841 -88 1431 -88 
Q 944 -88 581 321 
Q 219 731 219 1428 
Q 219 2103 620 2525 
Q 1022 2947 1584 2947 
Q 2006 2947 2278 2723 
Q 2550 2500 2550 2259 
Q 2550 2141 2473 2067 
Q 2397 1994 2259 1994 
Q 2075 1994 1981 2113 
Q 1928 2178 1911 2362 
Q 1894 2547 1784 2644 
Q 1675 2738 1481 2738 
Q 1169 2738 978 2506 
Q 725 2200 725 1697 
Q 725 1184 976 792 
Q 1228 400 1656 400 
Q 1963 400 2206 609 
Q 2378 753 2541 1131 
L 2631 1088 
z
" transform="scale(0.015625)"/>
      <path id="TimesNewRomanPSMT-6d" d="M 1050 2338 
Q 1363 2650 1419 2697 
Q 1559 2816 1721 2881 
Q 1884 2947 2044 2947 
Q 2313 2947 2506 2790 
Q 2700 2634 2766 2338 
Q 3088 2713 3309 2830 
Q 3531 2947 3766 2947 
Q 3994 2947 4170 2830 
Q 4347 2713 4450 2447 
Q 4519 2266 4519 1878 
L 4519 647 
Q 4519 378 4559 278 
Q 4591 209 4675 161 
Q 4759 113 4950 113 
L 4950 0 
L 3538 0 
L 3538 113 
L 3597 113 
Q 3781 113 3884 184 
Q 3956 234 3988 344 
Q 4000 397 4000 647 
L 4000 1878 
Q 4000 2228 3916 2372 
Q 3794 2572 3525 2572 
Q 3359 2572 3192 2489 
Q 3025 2406 2788 2181 
L 2781 2147 
L 2788 2013 
L 2788 647 
Q 2788 353 2820 281 
Q 2853 209 2943 161 
Q 3034 113 3253 113 
L 3253 0 
L 1806 0 
L 1806 113 
Q 2044 113 2133 169 
Q 2222 225 2256 338 
Q 2272 391 2272 647 
L 2272 1878 
Q 2272 2228 2169 2381 
Q 2031 2581 1784 2581 
Q 1616 2581 1450 2491 
Q 1191 2353 1050 2181 
L 1050 647 
Q 1050 366 1089 281 
Q 1128 197 1204 155 
Q 1281 113 1516 113 
L 1516 0 
L 100 0 
L 100 113 
Q 297 113 375 155 
Q 453 197 493 289 
Q 534 381 534 647 
L 534 1741 
Q 534 2213 506 2350 
Q 484 2453 437 2492 
Q 391 2531 309 2531 
Q 222 2531 100 2484 
L 53 2597 
L 916 2947 
L 1050 2947 
L 1050 2338 
z
" transform="scale(0.015625)"/>
      <path id="TimesNewRomanPSMT-64" d="M 2222 322 
Q 2013 103 1813 7 
Q 1613 -88 1381 -88 
Q 913 -88 563 304 
Q 213 697 213 1313 
Q 213 1928 600 2439 
Q 988 2950 1597 2950 
Q 1975 2950 2222 2709 
L 2222 3238 
Q 2222 3728 2198 3840 
Q 2175 3953 2125 3993 
Q 2075 4034 2000 4034 
Q 1919 4034 1784 3984 
L 1744 4094 
L 2597 4444 
L 2738 4444 
L 2738 1134 
Q 2738 631 2761 520 
Q 2784 409 2836 365 
Q 2888 322 2956 322 
Q 3041 322 3181 375 
L 3216 266 
L 2366 -88 
L 2222 -88 
L 2222 322 
z
M 2222 541 
L 2222 2016 
Q 2203 2228 2109 2403 
Q 2016 2578 1861 2667 
Q 1706 2756 1559 2756 
Q 1284 2756 1069 2509 
Q 784 2184 784 1559 
Q 784 928 1059 592 
Q 1334 256 1672 256 
Q 1956 256 2222 541 
z
" transform="scale(0.015625)"/>
      <path id="TimesNewRomanPSMT-6c" d="M 1184 4444 
L 1184 647 
Q 1184 378 1223 290 
Q 1263 203 1344 158 
Q 1425 113 1647 113 
L 1647 0 
L 244 0 
L 244 113 
Q 441 113 512 153 
Q 584 194 625 287 
Q 666 381 666 647 
L 666 3247 
Q 666 3731 644 3842 
Q 622 3953 573 3993 
Q 525 4034 450 4034 
Q 369 4034 244 3984 
L 191 4094 
L 1044 4444 
L 1184 4444 
z
" transform="scale(0.015625)"/>
      <path id="TimesNewRomanPSMT-28" d="M 1988 -1253 
L 1988 -1369 
Q 1516 -1131 1200 -813 
Q 750 -359 506 256 
Q 263 872 263 1534 
Q 263 2503 741 3301 
Q 1219 4100 1988 4444 
L 1988 4313 
Q 1603 4100 1356 3731 
Q 1109 3363 987 2797 
Q 866 2231 866 1616 
Q 866 947 969 400 
Q 1050 -31 1165 -292 
Q 1281 -553 1476 -793 
Q 1672 -1034 1988 -1253 
z
" transform="scale(0.015625)"/>
      <path id="TimesNewRomanPSMT-34" d="M 2978 1563 
L 2978 1119 
L 2409 1119 
L 2409 0 
L 1894 0 
L 1894 1119 
L 100 1119 
L 100 1519 
L 2066 4325 
L 2409 4325 
L 2409 1563 
L 2978 1563 
z
M 1894 1563 
L 1894 3666 
L 406 1563 
L 1894 1563 
z
" transform="scale(0.015625)"/>
      <path id="TimesNewRomanPSMT-2b" d="M 1672 441 
L 1672 2000 
L 116 2000 
L 116 2256 
L 1672 2256 
L 1672 3809 
L 1922 3809 
L 1922 2256 
L 3484 2256 
L 3484 2000 
L 1922 2000 
L 1922 441 
L 1672 441 
z
" transform="scale(0.015625)"/>
      <path id="TimesNewRomanPSMT-38" d="M 1228 2134 
Q 725 2547 579 2797 
Q 434 3047 434 3316 
Q 434 3728 753 4026 
Q 1072 4325 1600 4325 
Q 2113 4325 2425 4047 
Q 2738 3769 2738 3413 
Q 2738 3175 2569 2928 
Q 2400 2681 1866 2347 
Q 2416 1922 2594 1678 
Q 2831 1359 2831 1006 
Q 2831 559 2490 242 
Q 2150 -75 1597 -75 
Q 994 -75 656 303 
Q 388 606 388 966 
Q 388 1247 577 1523 
Q 766 1800 1228 2134 
z
M 1719 2469 
Q 2094 2806 2194 3001 
Q 2294 3197 2294 3444 
Q 2294 3772 2109 3958 
Q 1925 4144 1606 4144 
Q 1288 4144 1088 3959 
Q 888 3775 888 3528 
Q 888 3366 970 3203 
Q 1053 3041 1206 2894 
L 1719 2469 
z
M 1375 2016 
Q 1116 1797 991 1539 
Q 866 1281 866 981 
Q 866 578 1086 336 
Q 1306 94 1647 94 
Q 1984 94 2187 284 
Q 2391 475 2391 747 
Q 2391 972 2272 1150 
Q 2050 1481 1375 2016 
z
" transform="scale(0.015625)"/>
      <path id="TimesNewRomanPSMT-2d" d="M 259 1672 
L 1875 1672 
L 1875 1200 
L 259 1200 
L 259 1672 
z
" transform="scale(0.015625)"/>
      <path id="TimesNewRomanPSMT-29" d="M 144 4313 
L 144 4444 
Q 619 4209 934 3891 
Q 1381 3434 1625 2820 
Q 1869 2206 1869 1541 
Q 1869 572 1392 -226 
Q 916 -1025 144 -1369 
L 144 -1253 
Q 528 -1038 776 -670 
Q 1025 -303 1145 264 
Q 1266 831 1266 1447 
Q 1266 2113 1163 2663 
Q 1084 3094 967 3353 
Q 850 3613 656 3853 
Q 463 4094 144 4313 
z
" transform="scale(0.015625)"/>
      <path id="TimesNewRomanPSMT-70" d="M -6 2578 
L 875 2934 
L 994 2934 
L 994 2266 
Q 1216 2644 1439 2795 
Q 1663 2947 1909 2947 
Q 2341 2947 2628 2609 
Q 2981 2197 2981 1534 
Q 2981 794 2556 309 
Q 2206 -88 1675 -88 
Q 1444 -88 1275 -22 
Q 1150 25 994 166 
L 994 -706 
Q 994 -1000 1030 -1079 
Q 1066 -1159 1155 -1206 
Q 1244 -1253 1478 -1253 
L 1478 -1369 
L -22 -1369 
L -22 -1253 
L 56 -1253 
Q 228 -1256 350 -1188 
Q 409 -1153 442 -1076 
Q 475 -1000 475 -688 
L 475 2019 
Q 475 2297 450 2372 
Q 425 2447 370 2484 
Q 316 2522 222 2522 
Q 147 2522 31 2478 
L -6 2578 
z
M 994 2081 
L 994 1013 
Q 994 666 1022 556 
Q 1066 375 1236 237 
Q 1406 100 1666 100 
Q 1978 100 2172 344 
Q 2425 663 2425 1241 
Q 2425 1897 2138 2250 
Q 1938 2494 1663 2494 
Q 1513 2494 1366 2419 
Q 1253 2363 994 2081 
z
" transform="scale(0.015625)"/>
      <path id="TimesNewRomanPSMT-62" d="M 984 2369 
Q 1400 2947 1881 2947 
Q 2322 2947 2650 2570 
Q 2978 2194 2978 1541 
Q 2978 778 2472 313 
Q 2038 -88 1503 -88 
Q 1253 -88 995 3 
Q 738 94 469 275 
L 469 3241 
Q 469 3728 445 3840 
Q 422 3953 372 3993 
Q 322 4034 247 4034 
Q 159 4034 28 3984 
L -16 4094 
L 844 4444 
L 984 4444 
L 984 2369 
z
M 984 2169 
L 984 456 
Q 1144 300 1314 220 
Q 1484 141 1663 141 
Q 1947 141 2192 453 
Q 2438 766 2438 1363 
Q 2438 1913 2192 2208 
Q 1947 2503 1634 2503 
Q 1469 2503 1303 2419 
Q 1178 2356 984 2169 
z
" transform="scale(0.015625)"/>
     </defs>
     <use xlink:href="#TimesNewRomanPSMT-4c"/>
     <use xlink:href="#TimesNewRomanPSMT-6f" transform="translate(61.083984 0)"/>
     <use xlink:href="#TimesNewRomanPSMT-73" transform="translate(111.083984 0)"/>
     <use xlink:href="#TimesNewRomanPSMT-73" transform="translate(150 0)"/>
     <use xlink:href="#TimesNewRomanPSMT-20" transform="translate(188.916016 0)"/>
     <use xlink:href="#TimesNewRomanPSMT-6f" transform="translate(213.916016 0)"/>
     <use xlink:href="#TimesNewRomanPSMT-66" transform="translate(263.916016 0)"/>
     <use xlink:href="#TimesNewRomanPSMT-20" transform="translate(297.216797 0)"/>
     <use xlink:href="#TimesNewRomanPSMT-74" transform="translate(322.216797 0)"/>
     <use xlink:href="#TimesNewRomanPSMT-68" transform="translate(350 0)"/>
     <use xlink:href="#TimesNewRomanPSMT-65" transform="translate(400 0)"/>
     <use xlink:href="#TimesNewRomanPSMT-20" transform="translate(444.384766 0)"/>
     <use xlink:href="#TimesNewRomanPSMT-32" transform="translate(469.384766 0)"/>
     <use xlink:href="#TimesNewRomanPSMT-36" transform="translate(519.384766 0)"/>
     <use xlink:href="#TimesNewRomanPSMT-5f" transform="translate(569.384766 0)"/>
     <use xlink:href="#TimesNewRomanPSMT-30" transform="translate(619.384766 0)"/>
     <use xlink:href="#TimesNewRomanPSMT-35" transform="translate(669.384766 0)"/>
     <use xlink:href="#TimesNewRomanPSMT-5f" transform="translate(719.384766 0)"/>
     <use xlink:href="#TimesNewRomanPSMT-32" transform="translate(769.384766 0)"/>
     <use xlink:href="#TimesNewRomanPSMT-35" transform="translate(819.384766 0)"/>
     <use xlink:href="#TimesNewRomanPSMT-5f" transform="translate(869.384766 0)"/>
     <use xlink:href="#TimesNewRomanPSMT-43" transform="translate(919.384766 0)"/>
     <use xlink:href="#TimesNewRomanPSMT-49" transform="translate(986.083984 0)"/>
     <use xlink:href="#TimesNewRomanPSMT-4e" transform="translate(1019.384766 0)"/>
     <use xlink:href="#TimesNewRomanPSMT-49" transform="translate(1091.601562 0)"/>
     <use xlink:href="#TimesNewRomanPSMT-43" transform="translate(1124.902344 0)"/>
     <use xlink:href="#TimesNewRomanPSMT-31" transform="translate(1191.601562 0)"/>
     <use xlink:href="#TimesNewRomanPSMT-30" transform="translate(1241.601562 0)"/>
     <use xlink:href="#TimesNewRomanPSMT-5f" transform="translate(1291.601562 0)"/>
     <use xlink:href="#TimesNewRomanPSMT-74" transform="translate(1341.601562 0)"/>
     <use xlink:href="#TimesNewRomanPSMT-6f" transform="translate(1369.384766 0)"/>
     <use xlink:href="#TimesNewRomanPSMT-72" transform="translate(1419.384766 0)"/>
     <use xlink:href="#TimesNewRomanPSMT-63" transform="translate(1452.685547 0)"/>
     <use xlink:href="#TimesNewRomanPSMT-68" transform="translate(1497.070312 0)"/>
     <use xlink:href="#TimesNewRomanPSMT-5f" transform="translate(1547.070312 0)"/>
     <use xlink:href="#TimesNewRomanPSMT-6d" transform="translate(1597.070312 0)"/>
     <use xlink:href="#TimesNewRomanPSMT-6f" transform="translate(1674.853516 0)"/>
     <use xlink:href="#TimesNewRomanPSMT-64" transform="translate(1724.853516 0)"/>
     <use xlink:href="#TimesNewRomanPSMT-65" transform="translate(1774.853516 0)"/>
     <use xlink:href="#TimesNewRomanPSMT-6c" transform="translate(1819.238281 0)"/>
     <use xlink:href="#TimesNewRomanPSMT-5f" transform="translate(1847.021484 0)"/>
     <use xlink:href="#TimesNewRomanPSMT-28" transform="translate(1897.021484 0)"/>
     <use xlink:href="#TimesNewRomanPSMT-31" transform="translate(1930.322266 0)"/>
     <use xlink:href="#TimesNewRomanPSMT-30" transform="translate(1980.322266 0)"/>
     <use xlink:href="#TimesNewRomanPSMT-32" transform="translate(2030.322266 0)"/>
     <use xlink:href="#TimesNewRomanPSMT-34" transform="translate(2080.322266 0)"/>
     <use xlink:href="#TimesNewRomanPSMT-2b" transform="translate(2130.322266 0)"/>
     <use xlink:href="#TimesNewRomanPSMT-32" transform="translate(2186.71875 0)"/>
     <use xlink:href="#TimesNewRomanPSMT-30" transform="translate(2236.71875 0)"/>
     <use xlink:href="#TimesNewRomanPSMT-34" transform="translate(2286.71875 0)"/>
     <use xlink:href="#TimesNewRomanPSMT-38" transform="translate(2336.71875 0)"/>
     <use xlink:href="#TimesNewRomanPSMT-2d" transform="translate(2386.71875 0)"/>
     <use xlink:href="#TimesNewRomanPSMT-32" transform="translate(2420.019531 0)"/>
     <use xlink:href="#TimesNewRomanPSMT-30" transform="translate(2470.019531 0)"/>
     <use xlink:href="#TimesNewRomanPSMT-34" transform="translate(2520.019531 0)"/>
     <use xlink:href="#TimesNewRomanPSMT-38" transform="translate(2570.019531 0)"/>
     <use xlink:href="#TimesNewRomanPSMT-2e" transform="translate(2620.019531 0)"/>
     <use xlink:href="#TimesNewRomanPSMT-32" transform="translate(2645.019531 0)"/>
     <use xlink:href="#TimesNewRomanPSMT-2b" transform="translate(2695.019531 0)"/>
     <use xlink:href="#TimesNewRomanPSMT-31" transform="translate(2751.416016 0)"/>
     <use xlink:href="#TimesNewRomanPSMT-29" transform="translate(2801.416016 0)"/>
     <use xlink:href="#TimesNewRomanPSMT-5f" transform="translate(2834.716797 0)"/>
     <use xlink:href="#TimesNewRomanPSMT-63" transform="translate(2884.716797 0)"/>
     <use xlink:href="#TimesNewRomanPSMT-74" transform="translate(2929.101562 0)"/>
     <use xlink:href="#TimesNewRomanPSMT-2d" transform="translate(2956.884766 0)"/>
     <use xlink:href="#TimesNewRomanPSMT-70" transform="translate(2990.185547 0)"/>
     <use xlink:href="#TimesNewRomanPSMT-62" transform="translate(3040.185547 0)"/>
    </g>
   </g>
   <g id="legend_1">
    <g id="patch_7">
     <path d="M 251.942688 300.6435 
L 452.500188 300.6435 
Q 456.900188 300.6435 456.900188 296.2435 
L 456.900188 236.190375 
Q 456.900188 231.790375 452.500188 231.790375 
L 251.942688 231.790375 
Q 247.542687 231.790375 247.542687 236.190375 
L 247.542687 296.2435 
Q 247.542687 300.6435 251.942688 300.6435 
z
" style="fill: #ffffff; opacity: 0.8; stroke: #cccccc; stroke-linejoin: miter"/>
    </g>
    <g id="line2d_21">
     <path d="M 256.342688 248.290375 
L 278.342688 248.290375 
L 300.342688 248.290375 
" style="fill: none; stroke: #ffa500; stroke-width: 1.5; stroke-linecap: square"/>
    </g>
    <g id="text_13">
     <!-- Training loss -->
     <g transform="translate(317.942688 255.990375) scale(0.22 -0.22)">
      <defs>
       <path id="TimesNewRomanPSMT-54" d="M 3703 4238 
L 3750 3244 
L 3631 3244 
Q 3597 3506 3538 3619 
Q 3441 3800 3280 3886 
Q 3119 3972 2856 3972 
L 2259 3972 
L 2259 734 
Q 2259 344 2344 247 
Q 2463 116 2709 116 
L 2856 116 
L 2856 0 
L 1059 0 
L 1059 116 
L 1209 116 
Q 1478 116 1591 278 
Q 1659 378 1659 734 
L 1659 3972 
L 1150 3972 
Q 853 3972 728 3928 
Q 566 3869 450 3700 
Q 334 3531 313 3244 
L 194 3244 
L 244 4238 
L 3703 4238 
z
" transform="scale(0.015625)"/>
       <path id="TimesNewRomanPSMT-61" d="M 1822 413 
Q 1381 72 1269 19 
Q 1100 -59 909 -59 
Q 613 -59 420 144 
Q 228 347 228 678 
Q 228 888 322 1041 
Q 450 1253 767 1440 
Q 1084 1628 1822 1897 
L 1822 2009 
Q 1822 2438 1686 2597 
Q 1550 2756 1291 2756 
Q 1094 2756 978 2650 
Q 859 2544 859 2406 
L 866 2225 
Q 866 2081 792 2003 
Q 719 1925 600 1925 
Q 484 1925 411 2006 
Q 338 2088 338 2228 
Q 338 2497 613 2722 
Q 888 2947 1384 2947 
Q 1766 2947 2009 2819 
Q 2194 2722 2281 2516 
Q 2338 2381 2338 1966 
L 2338 994 
Q 2338 584 2353 492 
Q 2369 400 2405 369 
Q 2441 338 2488 338 
Q 2538 338 2575 359 
Q 2641 400 2828 588 
L 2828 413 
Q 2478 -56 2159 -56 
Q 2006 -56 1915 50 
Q 1825 156 1822 413 
z
M 1822 616 
L 1822 1706 
Q 1350 1519 1213 1441 
Q 966 1303 859 1153 
Q 753 1003 753 825 
Q 753 600 887 451 
Q 1022 303 1197 303 
Q 1434 303 1822 616 
z
" transform="scale(0.015625)"/>
       <path id="TimesNewRomanPSMT-69" d="M 928 4444 
Q 1059 4444 1151 4351 
Q 1244 4259 1244 4128 
Q 1244 3997 1151 3903 
Q 1059 3809 928 3809 
Q 797 3809 703 3903 
Q 609 3997 609 4128 
Q 609 4259 701 4351 
Q 794 4444 928 4444 
z
M 1188 2947 
L 1188 647 
Q 1188 378 1227 289 
Q 1266 200 1342 156 
Q 1419 113 1622 113 
L 1622 0 
L 231 0 
L 231 113 
Q 441 113 512 153 
Q 584 194 626 287 
Q 669 381 669 647 
L 669 1750 
Q 669 2216 641 2353 
Q 619 2453 572 2492 
Q 525 2531 444 2531 
Q 356 2531 231 2484 
L 188 2597 
L 1050 2947 
L 1188 2947 
z
" transform="scale(0.015625)"/>
       <path id="TimesNewRomanPSMT-6e" d="M 1034 2341 
Q 1538 2947 1994 2947 
Q 2228 2947 2397 2830 
Q 2566 2713 2666 2444 
Q 2734 2256 2734 1869 
L 2734 647 
Q 2734 375 2778 278 
Q 2813 200 2889 156 
Q 2966 113 3172 113 
L 3172 0 
L 1756 0 
L 1756 113 
L 1816 113 
Q 2016 113 2095 173 
Q 2175 234 2206 353 
Q 2219 400 2219 647 
L 2219 1819 
Q 2219 2209 2117 2386 
Q 2016 2563 1775 2563 
Q 1403 2563 1034 2156 
L 1034 647 
Q 1034 356 1069 288 
Q 1113 197 1189 155 
Q 1266 113 1500 113 
L 1500 0 
L 84 0 
L 84 113 
L 147 113 
Q 366 113 442 223 
Q 519 334 519 647 
L 519 1709 
Q 519 2225 495 2337 
Q 472 2450 423 2490 
Q 375 2531 294 2531 
Q 206 2531 84 2484 
L 38 2597 
L 900 2947 
L 1034 2947 
L 1034 2341 
z
" transform="scale(0.015625)"/>
       <path id="TimesNewRomanPSMT-67" d="M 966 1044 
Q 703 1172 562 1401 
Q 422 1631 422 1909 
Q 422 2334 742 2640 
Q 1063 2947 1563 2947 
Q 1972 2947 2272 2747 
L 2878 2747 
Q 3013 2747 3034 2739 
Q 3056 2731 3066 2713 
Q 3084 2684 3084 2613 
Q 3084 2531 3069 2500 
Q 3059 2484 3036 2475 
Q 3013 2466 2878 2466 
L 2506 2466 
Q 2681 2241 2681 1891 
Q 2681 1491 2375 1206 
Q 2069 922 1553 922 
Q 1341 922 1119 984 
Q 981 866 932 777 
Q 884 688 884 625 
Q 884 572 936 522 
Q 988 472 1138 450 
Q 1225 438 1575 428 
Q 2219 413 2409 384 
Q 2700 344 2873 169 
Q 3047 -6 3047 -263 
Q 3047 -616 2716 -925 
Q 2228 -1381 1444 -1381 
Q 841 -1381 425 -1109 
Q 191 -953 191 -784 
Q 191 -709 225 -634 
Q 278 -519 444 -313 
Q 466 -284 763 25 
Q 600 122 533 198 
Q 466 275 466 372 
Q 466 481 555 628 
Q 644 775 966 1044 
z
M 1509 2797 
Q 1278 2797 1122 2612 
Q 966 2428 966 2047 
Q 966 1553 1178 1281 
Q 1341 1075 1591 1075 
Q 1828 1075 1981 1253 
Q 2134 1431 2134 1813 
Q 2134 2309 1919 2591 
Q 1759 2797 1509 2797 
z
M 934 0 
Q 788 -159 713 -296 
Q 638 -434 638 -550 
Q 638 -700 819 -813 
Q 1131 -1006 1722 -1006 
Q 2284 -1006 2551 -807 
Q 2819 -609 2819 -384 
Q 2819 -222 2659 -153 
Q 2497 -84 2016 -72 
Q 1313 -53 934 0 
z
" transform="scale(0.015625)"/>
      </defs>
      <use xlink:href="#TimesNewRomanPSMT-54"/>
      <use xlink:href="#TimesNewRomanPSMT-72" transform="translate(57.583984 0)"/>
      <use xlink:href="#TimesNewRomanPSMT-61" transform="translate(90.884766 0)"/>
      <use xlink:href="#TimesNewRomanPSMT-69" transform="translate(135.269531 0)"/>
      <use xlink:href="#TimesNewRomanPSMT-6e" transform="translate(163.052734 0)"/>
      <use xlink:href="#TimesNewRomanPSMT-69" transform="translate(213.052734 0)"/>
      <use xlink:href="#TimesNewRomanPSMT-6e" transform="translate(240.835938 0)"/>
      <use xlink:href="#TimesNewRomanPSMT-67" transform="translate(290.835938 0)"/>
      <use xlink:href="#TimesNewRomanPSMT-20" transform="translate(340.835938 0)"/>
      <use xlink:href="#TimesNewRomanPSMT-6c" transform="translate(365.835938 0)"/>
      <use xlink:href="#TimesNewRomanPSMT-6f" transform="translate(393.619141 0)"/>
      <use xlink:href="#TimesNewRomanPSMT-73" transform="translate(443.619141 0)"/>
      <use xlink:href="#TimesNewRomanPSMT-73" transform="translate(482.535156 0)"/>
     </g>
    </g>
    <g id="line2d_22">
     <path d="M 256.342688 279.437562 
L 278.342688 279.437562 
L 300.342688 279.437562 
" style="fill: none; stroke: #008000; stroke-width: 1.5; stroke-linecap: square"/>
    </g>
    <g id="text_14">
     <!-- Validation loss -->
     <g transform="translate(317.942688 287.137562) scale(0.22 -0.22)">
      <defs>
       <path id="TimesNewRomanPSMT-56" d="M 4544 4238 
L 4544 4122 
Q 4319 4081 4203 3978 
Q 4038 3825 3909 3509 
L 2431 -97 
L 2316 -97 
L 728 3556 
Q 606 3838 556 3900 
Q 478 3997 364 4051 
Q 250 4106 56 4122 
L 56 4238 
L 1788 4238 
L 1788 4122 
Q 1494 4094 1406 4022 
Q 1319 3950 1319 3838 
Q 1319 3681 1463 3350 
L 2541 866 
L 3541 3319 
Q 3688 3681 3688 3822 
Q 3688 3913 3597 3995 
Q 3506 4078 3291 4113 
Q 3275 4116 3238 4122 
L 3238 4238 
L 4544 4238 
z
" transform="scale(0.015625)"/>
      </defs>
      <use xlink:href="#TimesNewRomanPSMT-56"/>
      <use xlink:href="#TimesNewRomanPSMT-61" transform="translate(61.091797 0)"/>
      <use xlink:href="#TimesNewRomanPSMT-6c" transform="translate(105.476562 0)"/>
      <use xlink:href="#TimesNewRomanPSMT-69" transform="translate(133.259766 0)"/>
      <use xlink:href="#TimesNewRomanPSMT-64" transform="translate(161.042969 0)"/>
      <use xlink:href="#TimesNewRomanPSMT-61" transform="translate(211.042969 0)"/>
      <use xlink:href="#TimesNewRomanPSMT-74" transform="translate(255.427734 0)"/>
      <use xlink:href="#TimesNewRomanPSMT-69" transform="translate(283.210938 0)"/>
      <use xlink:href="#TimesNewRomanPSMT-6f" transform="translate(310.994141 0)"/>
      <use xlink:href="#TimesNewRomanPSMT-6e" transform="translate(360.994141 0)"/>
      <use xlink:href="#TimesNewRomanPSMT-20" transform="translate(410.994141 0)"/>
      <use xlink:href="#TimesNewRomanPSMT-6c" transform="translate(435.994141 0)"/>
      <use xlink:href="#TimesNewRomanPSMT-6f" transform="translate(463.777344 0)"/>
      <use xlink:href="#TimesNewRomanPSMT-73" transform="translate(513.777344 0)"/>
      <use xlink:href="#TimesNewRomanPSMT-73" transform="translate(552.693359 0)"/>
     </g>
    </g>
   </g>
  </g>
 </g>
 <defs>
  <clipPath id="paebfd3123e">
   <rect x="236.542687" y="45.5315" width="357.12" height="266.112"/>
  </clipPath>
 </defs>
</svg>
