<?xml version="1.0" encoding="utf-8" standalone="no"?>
<!DOCTYPE svg PUBLIC "-//W3C//DTD SVG 1.1//EN"
  "http://www.w3.org/Graphics/SVG/1.1/DTD/svg11.dtd">
<svg xmlns:xlink="http://www.w3.org/1999/xlink" width="687.224625pt" height="369.807875pt" viewBox="0 0 687.224625 369.807875" xmlns="http://www.w3.org/2000/svg" version="1.1">
 <metadata>
  <rdf:RDF xmlns:dc="http://purl.org/dc/elements/1.1/" xmlns:cc="http://creativecommons.org/ns#" xmlns:rdf="http://www.w3.org/1999/02/22-rdf-syntax-ns#">
   <cc:Work>
    <dc:type rdf:resource="http://purl.org/dc/dcmitype/StillImage"/>
    <dc:date>2025-05-21T10:13:00.023290</dc:date>
    <dc:format>image/svg+xml</dc:format>
    <dc:creator>
     <cc:Agent>
      <dc:title>Matplotlib v3.10.1, https://matplotlib.org/</dc:title>
     </cc:Agent>
    </dc:creator>
   </cc:Work>
  </rdf:RDF>
 </metadata>
 <defs>
  <style type="text/css">*{stroke-linejoin: round; stroke-linecap: butt}</style>
 </defs>
 <g id="figure_1">
  <g id="patch_1">
   <path d="M 0 369.807875 
L 687.224625 369.807875 
L 687.224625 0 
L 0 0 
z
" style="fill: #ffffff"/>
  </g>
  <g id="axes_1">
   <g id="patch_2">
    <path d="M 165.052313 311.6435 
L 522.172312 311.6435 
L 522.172312 45.5315 
L 165.052313 45.5315 
z
" style="fill: #ffffff"/>
   </g>
   <g id="matplotlib.axis_1">
    <g id="xtick_1">
     <g id="line2d_1">
      <path d="M 165.052313 311.6435 
L 165.052313 45.5315 
" clip-path="url(#pd0cf717775)" style="fill: none; stroke: #b0b0b0; stroke-opacity: 0.3; stroke-width: 0.8; stroke-linecap: square"/>
     </g>
     <g id="line2d_2">
      <defs>
       <path id="m0488813006" d="M 0 0 
L 0 3.5 
" style="stroke: #000000; stroke-width: 0.8"/>
      </defs>
      <g>
       <use xlink:href="#m0488813006" x="165.052313" y="311.6435" style="stroke: #000000; stroke-width: 0.8"/>
      </g>
     </g>
     <g id="text_1">
      <!-- 0 -->
      <g transform="translate(159.552313 333.91975) scale(0.22 -0.22)">
       <defs>
        <path id="TimesNewRomanPSMT-30" d="M 231 2094 
Q 231 2819 450 3342 
Q 669 3866 1031 4122 
Q 1313 4325 1613 4325 
Q 2100 4325 2488 3828 
Q 2972 3213 2972 2159 
Q 2972 1422 2759 906 
Q 2547 391 2217 158 
Q 1888 -75 1581 -75 
Q 975 -75 572 641 
Q 231 1244 231 2094 
z
M 844 2016 
Q 844 1141 1059 588 
Q 1238 122 1591 122 
Q 1759 122 1940 273 
Q 2122 425 2216 781 
Q 2359 1319 2359 2297 
Q 2359 3022 2209 3506 
Q 2097 3866 1919 4016 
Q 1791 4119 1609 4119 
Q 1397 4119 1231 3928 
Q 1006 3669 925 3112 
Q 844 2556 844 2016 
z
" transform="scale(0.015625)"/>
       </defs>
       <use xlink:href="#TimesNewRomanPSMT-30"/>
      </g>
     </g>
    </g>
    <g id="xtick_2">
     <g id="line2d_3">
      <path d="M 249.919233 311.6435 
L 249.919233 45.5315 
" clip-path="url(#pd0cf717775)" style="fill: none; stroke: #b0b0b0; stroke-opacity: 0.3; stroke-width: 0.8; stroke-linecap: square"/>
     </g>
     <g id="line2d_4">
      <g>
       <use xlink:href="#m0488813006" x="249.919233" y="311.6435" style="stroke: #000000; stroke-width: 0.8"/>
      </g>
     </g>
     <g id="text_2">
      <!-- 2500 -->
      <g transform="translate(227.919233 333.91975) scale(0.22 -0.22)">
       <defs>
        <path id="TimesNewRomanPSMT-32" d="M 2934 816 
L 2638 0 
L 138 0 
L 138 116 
Q 1241 1122 1691 1759 
Q 2141 2397 2141 2925 
Q 2141 3328 1894 3587 
Q 1647 3847 1303 3847 
Q 991 3847 742 3664 
Q 494 3481 375 3128 
L 259 3128 
Q 338 3706 661 4015 
Q 984 4325 1469 4325 
Q 1984 4325 2329 3994 
Q 2675 3663 2675 3213 
Q 2675 2891 2525 2569 
Q 2294 2063 1775 1497 
Q 997 647 803 472 
L 1909 472 
Q 2247 472 2383 497 
Q 2519 522 2628 598 
Q 2738 675 2819 816 
L 2934 816 
z
" transform="scale(0.015625)"/>
        <path id="TimesNewRomanPSMT-35" d="M 2778 4238 
L 2534 3706 
L 1259 3706 
L 981 3138 
Q 1809 3016 2294 2522 
Q 2709 2097 2709 1522 
Q 2709 1188 2573 903 
Q 2438 619 2231 419 
Q 2025 219 1772 97 
Q 1413 -75 1034 -75 
Q 653 -75 479 54 
Q 306 184 306 341 
Q 306 428 378 495 
Q 450 563 559 563 
Q 641 563 702 538 
Q 763 513 909 409 
Q 1144 247 1384 247 
Q 1750 247 2026 523 
Q 2303 800 2303 1197 
Q 2303 1581 2056 1914 
Q 1809 2247 1375 2428 
Q 1034 2569 447 2591 
L 1259 4238 
L 2778 4238 
z
" transform="scale(0.015625)"/>
       </defs>
       <use xlink:href="#TimesNewRomanPSMT-32"/>
       <use xlink:href="#TimesNewRomanPSMT-35" transform="translate(50 0)"/>
       <use xlink:href="#TimesNewRomanPSMT-30" transform="translate(100 0)"/>
       <use xlink:href="#TimesNewRomanPSMT-30" transform="translate(150 0)"/>
      </g>
     </g>
    </g>
    <g id="xtick_3">
     <g id="line2d_5">
      <path d="M 334.786153 311.6435 
L 334.786153 45.5315 
" clip-path="url(#pd0cf717775)" style="fill: none; stroke: #b0b0b0; stroke-opacity: 0.3; stroke-width: 0.8; stroke-linecap: square"/>
     </g>
     <g id="line2d_6">
      <g>
       <use xlink:href="#m0488813006" x="334.786153" y="311.6435" style="stroke: #000000; stroke-width: 0.8"/>
      </g>
     </g>
     <g id="text_3">
      <!-- 5000 -->
      <g transform="translate(312.786153 333.91975) scale(0.22 -0.22)">
       <use xlink:href="#TimesNewRomanPSMT-35"/>
       <use xlink:href="#TimesNewRomanPSMT-30" transform="translate(50 0)"/>
       <use xlink:href="#TimesNewRomanPSMT-30" transform="translate(100 0)"/>
       <use xlink:href="#TimesNewRomanPSMT-30" transform="translate(150 0)"/>
      </g>
     </g>
    </g>
    <g id="xtick_4">
     <g id="line2d_7">
      <path d="M 419.653073 311.6435 
L 419.653073 45.5315 
" clip-path="url(#pd0cf717775)" style="fill: none; stroke: #b0b0b0; stroke-opacity: 0.3; stroke-width: 0.8; stroke-linecap: square"/>
     </g>
     <g id="line2d_8">
      <g>
       <use xlink:href="#m0488813006" x="419.653073" y="311.6435" style="stroke: #000000; stroke-width: 0.8"/>
      </g>
     </g>
     <g id="text_4">
      <!-- 7500 -->
      <g transform="translate(397.653073 333.91975) scale(0.22 -0.22)">
       <defs>
        <path id="TimesNewRomanPSMT-37" d="M 644 4238 
L 2916 4238 
L 2916 4119 
L 1503 -88 
L 1153 -88 
L 2419 3728 
L 1253 3728 
Q 900 3728 750 3644 
Q 488 3500 328 3200 
L 238 3234 
L 644 4238 
z
" transform="scale(0.015625)"/>
       </defs>
       <use xlink:href="#TimesNewRomanPSMT-37"/>
       <use xlink:href="#TimesNewRomanPSMT-35" transform="translate(50 0)"/>
       <use xlink:href="#TimesNewRomanPSMT-30" transform="translate(100 0)"/>
       <use xlink:href="#TimesNewRomanPSMT-30" transform="translate(150 0)"/>
      </g>
     </g>
    </g>
    <g id="xtick_5">
     <g id="line2d_9">
      <path d="M 504.519993 311.6435 
L 504.519993 45.5315 
" clip-path="url(#pd0cf717775)" style="fill: none; stroke: #b0b0b0; stroke-opacity: 0.3; stroke-width: 0.8; stroke-linecap: square"/>
     </g>
     <g id="line2d_10">
      <g>
       <use xlink:href="#m0488813006" x="504.519993" y="311.6435" style="stroke: #000000; stroke-width: 0.8"/>
      </g>
     </g>
     <g id="text_5">
      <!-- 10000 -->
      <g transform="translate(477.019993 333.91975) scale(0.22 -0.22)">
       <defs>
        <path id="TimesNewRomanPSMT-31" d="M 750 3822 
L 1781 4325 
L 1884 4325 
L 1884 747 
Q 1884 391 1914 303 
Q 1944 216 2037 169 
Q 2131 122 2419 116 
L 2419 0 
L 825 0 
L 825 116 
Q 1125 122 1212 167 
Q 1300 213 1334 289 
Q 1369 366 1369 747 
L 1369 3034 
Q 1369 3497 1338 3628 
Q 1316 3728 1258 3775 
Q 1200 3822 1119 3822 
Q 1003 3822 797 3725 
L 750 3822 
z
" transform="scale(0.015625)"/>
       </defs>
       <use xlink:href="#TimesNewRomanPSMT-31"/>
       <use xlink:href="#TimesNewRomanPSMT-30" transform="translate(50 0)"/>
       <use xlink:href="#TimesNewRomanPSMT-30" transform="translate(100 0)"/>
       <use xlink:href="#TimesNewRomanPSMT-30" transform="translate(150 0)"/>
       <use xlink:href="#TimesNewRomanPSMT-30" transform="translate(200 0)"/>
      </g>
     </g>
    </g>
    <g id="text_6">
     <!-- Number of iterations -->
     <g transform="translate(251.970281 357.901937) scale(0.22 -0.22)">
      <defs>
       <path id="TimesNewRomanPSMT-4e" d="M -84 4238 
L 1066 4238 
L 3656 1059 
L 3656 3503 
Q 3656 3894 3569 3991 
Q 3453 4122 3203 4122 
L 3056 4122 
L 3056 4238 
L 4531 4238 
L 4531 4122 
L 4381 4122 
Q 4113 4122 4000 3959 
Q 3931 3859 3931 3503 
L 3931 -69 
L 3819 -69 
L 1025 3344 
L 1025 734 
Q 1025 344 1109 247 
Q 1228 116 1475 116 
L 1625 116 
L 1625 0 
L 150 0 
L 150 116 
L 297 116 
Q 569 116 681 278 
Q 750 378 750 734 
L 750 3681 
Q 566 3897 470 3965 
Q 375 4034 191 4094 
Q 100 4122 -84 4122 
L -84 4238 
z
" transform="scale(0.015625)"/>
       <path id="TimesNewRomanPSMT-75" d="M 2709 2863 
L 2709 1128 
Q 2709 631 2732 520 
Q 2756 409 2807 365 
Q 2859 322 2928 322 
Q 3025 322 3147 375 
L 3191 266 
L 2334 -88 
L 2194 -88 
L 2194 519 
Q 1825 119 1631 15 
Q 1438 -88 1222 -88 
Q 981 -88 804 51 
Q 628 191 559 409 
Q 491 628 491 1028 
L 491 2306 
Q 491 2509 447 2587 
Q 403 2666 317 2708 
Q 231 2750 6 2747 
L 6 2863 
L 1009 2863 
L 1009 947 
Q 1009 547 1148 422 
Q 1288 297 1484 297 
Q 1619 297 1789 381 
Q 1959 466 2194 703 
L 2194 2325 
Q 2194 2569 2105 2655 
Q 2016 2741 1734 2747 
L 1734 2863 
L 2709 2863 
z
" transform="scale(0.015625)"/>
       <path id="TimesNewRomanPSMT-6d" d="M 1050 2338 
Q 1363 2650 1419 2697 
Q 1559 2816 1721 2881 
Q 1884 2947 2044 2947 
Q 2313 2947 2506 2790 
Q 2700 2634 2766 2338 
Q 3088 2713 3309 2830 
Q 3531 2947 3766 2947 
Q 3994 2947 4170 2830 
Q 4347 2713 4450 2447 
Q 4519 2266 4519 1878 
L 4519 647 
Q 4519 378 4559 278 
Q 4591 209 4675 161 
Q 4759 113 4950 113 
L 4950 0 
L 3538 0 
L 3538 113 
L 3597 113 
Q 3781 113 3884 184 
Q 3956 234 3988 344 
Q 4000 397 4000 647 
L 4000 1878 
Q 4000 2228 3916 2372 
Q 3794 2572 3525 2572 
Q 3359 2572 3192 2489 
Q 3025 2406 2788 2181 
L 2781 2147 
L 2788 2013 
L 2788 647 
Q 2788 353 2820 281 
Q 2853 209 2943 161 
Q 3034 113 3253 113 
L 3253 0 
L 1806 0 
L 1806 113 
Q 2044 113 2133 169 
Q 2222 225 2256 338 
Q 2272 391 2272 647 
L 2272 1878 
Q 2272 2228 2169 2381 
Q 2031 2581 1784 2581 
Q 1616 2581 1450 2491 
Q 1191 2353 1050 2181 
L 1050 647 
Q 1050 366 1089 281 
Q 1128 197 1204 155 
Q 1281 113 1516 113 
L 1516 0 
L 100 0 
L 100 113 
Q 297 113 375 155 
Q 453 197 493 289 
Q 534 381 534 647 
L 534 1741 
Q 534 2213 506 2350 
Q 484 2453 437 2492 
Q 391 2531 309 2531 
Q 222 2531 100 2484 
L 53 2597 
L 916 2947 
L 1050 2947 
L 1050 2338 
z
" transform="scale(0.015625)"/>
       <path id="TimesNewRomanPSMT-62" d="M 984 2369 
Q 1400 2947 1881 2947 
Q 2322 2947 2650 2570 
Q 2978 2194 2978 1541 
Q 2978 778 2472 313 
Q 2038 -88 1503 -88 
Q 1253 -88 995 3 
Q 738 94 469 275 
L 469 3241 
Q 469 3728 445 3840 
Q 422 3953 372 3993 
Q 322 4034 247 4034 
Q 159 4034 28 3984 
L -16 4094 
L 844 4444 
L 984 4444 
L 984 2369 
z
M 984 2169 
L 984 456 
Q 1144 300 1314 220 
Q 1484 141 1663 141 
Q 1947 141 2192 453 
Q 2438 766 2438 1363 
Q 2438 1913 2192 2208 
Q 1947 2503 1634 2503 
Q 1469 2503 1303 2419 
Q 1178 2356 984 2169 
z
" transform="scale(0.015625)"/>
       <path id="TimesNewRomanPSMT-65" d="M 681 1784 
Q 678 1147 991 784 
Q 1303 422 1725 422 
Q 2006 422 2214 576 
Q 2422 731 2563 1106 
L 2659 1044 
Q 2594 616 2278 264 
Q 1963 -88 1488 -88 
Q 972 -88 605 314 
Q 238 716 238 1394 
Q 238 2128 614 2539 
Q 991 2950 1559 2950 
Q 2041 2950 2350 2633 
Q 2659 2316 2659 1784 
L 681 1784 
z
M 681 1966 
L 2006 1966 
Q 1991 2241 1941 2353 
Q 1863 2528 1708 2628 
Q 1553 2728 1384 2728 
Q 1125 2728 920 2526 
Q 716 2325 681 1966 
z
" transform="scale(0.015625)"/>
       <path id="TimesNewRomanPSMT-72" d="M 1038 2947 
L 1038 2303 
Q 1397 2947 1775 2947 
Q 1947 2947 2059 2842 
Q 2172 2738 2172 2600 
Q 2172 2478 2090 2393 
Q 2009 2309 1897 2309 
Q 1788 2309 1652 2417 
Q 1516 2525 1450 2525 
Q 1394 2525 1328 2463 
Q 1188 2334 1038 2041 
L 1038 669 
Q 1038 431 1097 309 
Q 1138 225 1241 169 
Q 1344 113 1538 113 
L 1538 0 
L 72 0 
L 72 113 
Q 291 113 397 181 
Q 475 231 506 341 
Q 522 394 522 644 
L 522 1753 
Q 522 2253 501 2348 
Q 481 2444 426 2487 
Q 372 2531 291 2531 
Q 194 2531 72 2484 
L 41 2597 
L 906 2947 
L 1038 2947 
z
" transform="scale(0.015625)"/>
       <path id="TimesNewRomanPSMT-20" transform="scale(0.015625)"/>
       <path id="TimesNewRomanPSMT-6f" d="M 1600 2947 
Q 2250 2947 2644 2453 
Q 2978 2031 2978 1484 
Q 2978 1100 2793 706 
Q 2609 313 2286 112 
Q 1963 -88 1566 -88 
Q 919 -88 538 428 
Q 216 863 216 1403 
Q 216 1797 411 2186 
Q 606 2575 925 2761 
Q 1244 2947 1600 2947 
z
M 1503 2744 
Q 1338 2744 1170 2645 
Q 1003 2547 900 2300 
Q 797 2053 797 1666 
Q 797 1041 1045 587 
Q 1294 134 1700 134 
Q 2003 134 2200 384 
Q 2397 634 2397 1244 
Q 2397 2006 2069 2444 
Q 1847 2744 1503 2744 
z
" transform="scale(0.015625)"/>
       <path id="TimesNewRomanPSMT-66" d="M 1319 2638 
L 1319 756 
Q 1319 356 1406 250 
Q 1522 113 1716 113 
L 1975 113 
L 1975 0 
L 266 0 
L 266 113 
L 394 113 
Q 519 113 622 175 
Q 725 238 764 344 
Q 803 450 803 756 
L 803 2638 
L 247 2638 
L 247 2863 
L 803 2863 
L 803 3050 
Q 803 3478 940 3775 
Q 1078 4072 1361 4255 
Q 1644 4438 1997 4438 
Q 2325 4438 2600 4225 
Q 2781 4084 2781 3909 
Q 2781 3816 2700 3733 
Q 2619 3650 2525 3650 
Q 2453 3650 2373 3701 
Q 2294 3753 2178 3923 
Q 2063 4094 1966 4153 
Q 1869 4213 1750 4213 
Q 1606 4213 1506 4136 
Q 1406 4059 1362 3898 
Q 1319 3738 1319 3069 
L 1319 2863 
L 2056 2863 
L 2056 2638 
L 1319 2638 
z
" transform="scale(0.015625)"/>
       <path id="TimesNewRomanPSMT-69" d="M 928 4444 
Q 1059 4444 1151 4351 
Q 1244 4259 1244 4128 
Q 1244 3997 1151 3903 
Q 1059 3809 928 3809 
Q 797 3809 703 3903 
Q 609 3997 609 4128 
Q 609 4259 701 4351 
Q 794 4444 928 4444 
z
M 1188 2947 
L 1188 647 
Q 1188 378 1227 289 
Q 1266 200 1342 156 
Q 1419 113 1622 113 
L 1622 0 
L 231 0 
L 231 113 
Q 441 113 512 153 
Q 584 194 626 287 
Q 669 381 669 647 
L 669 1750 
Q 669 2216 641 2353 
Q 619 2453 572 2492 
Q 525 2531 444 2531 
Q 356 2531 231 2484 
L 188 2597 
L 1050 2947 
L 1188 2947 
z
" transform="scale(0.015625)"/>
       <path id="TimesNewRomanPSMT-74" d="M 1031 3803 
L 1031 2863 
L 1700 2863 
L 1700 2644 
L 1031 2644 
L 1031 788 
Q 1031 509 1111 412 
Q 1191 316 1316 316 
Q 1419 316 1516 380 
Q 1613 444 1666 569 
L 1788 569 
Q 1678 263 1478 108 
Q 1278 -47 1066 -47 
Q 922 -47 784 33 
Q 647 113 581 261 
Q 516 409 516 719 
L 516 2644 
L 63 2644 
L 63 2747 
Q 234 2816 414 2980 
Q 594 3144 734 3369 
Q 806 3488 934 3803 
L 1031 3803 
z
" transform="scale(0.015625)"/>
       <path id="TimesNewRomanPSMT-61" d="M 1822 413 
Q 1381 72 1269 19 
Q 1100 -59 909 -59 
Q 613 -59 420 144 
Q 228 347 228 678 
Q 228 888 322 1041 
Q 450 1253 767 1440 
Q 1084 1628 1822 1897 
L 1822 2009 
Q 1822 2438 1686 2597 
Q 1550 2756 1291 2756 
Q 1094 2756 978 2650 
Q 859 2544 859 2406 
L 866 2225 
Q 866 2081 792 2003 
Q 719 1925 600 1925 
Q 484 1925 411 2006 
Q 338 2088 338 2228 
Q 338 2497 613 2722 
Q 888 2947 1384 2947 
Q 1766 2947 2009 2819 
Q 2194 2722 2281 2516 
Q 2338 2381 2338 1966 
L 2338 994 
Q 2338 584 2353 492 
Q 2369 400 2405 369 
Q 2441 338 2488 338 
Q 2538 338 2575 359 
Q 2641 400 2828 588 
L 2828 413 
Q 2478 -56 2159 -56 
Q 2006 -56 1915 50 
Q 1825 156 1822 413 
z
M 1822 616 
L 1822 1706 
Q 1350 1519 1213 1441 
Q 966 1303 859 1153 
Q 753 1003 753 825 
Q 753 600 887 451 
Q 1022 303 1197 303 
Q 1434 303 1822 616 
z
" transform="scale(0.015625)"/>
       <path id="TimesNewRomanPSMT-6e" d="M 1034 2341 
Q 1538 2947 1994 2947 
Q 2228 2947 2397 2830 
Q 2566 2713 2666 2444 
Q 2734 2256 2734 1869 
L 2734 647 
Q 2734 375 2778 278 
Q 2813 200 2889 156 
Q 2966 113 3172 113 
L 3172 0 
L 1756 0 
L 1756 113 
L 1816 113 
Q 2016 113 2095 173 
Q 2175 234 2206 353 
Q 2219 400 2219 647 
L 2219 1819 
Q 2219 2209 2117 2386 
Q 2016 2563 1775 2563 
Q 1403 2563 1034 2156 
L 1034 647 
Q 1034 356 1069 288 
Q 1113 197 1189 155 
Q 1266 113 1500 113 
L 1500 0 
L 84 0 
L 84 113 
L 147 113 
Q 366 113 442 223 
Q 519 334 519 647 
L 519 1709 
Q 519 2225 495 2337 
Q 472 2450 423 2490 
Q 375 2531 294 2531 
Q 206 2531 84 2484 
L 38 2597 
L 900 2947 
L 1034 2947 
L 1034 2341 
z
" transform="scale(0.015625)"/>
       <path id="TimesNewRomanPSMT-73" d="M 2050 2947 
L 2050 1972 
L 1947 1972 
Q 1828 2431 1642 2597 
Q 1456 2763 1169 2763 
Q 950 2763 815 2647 
Q 681 2531 681 2391 
Q 681 2216 781 2091 
Q 878 1963 1175 1819 
L 1631 1597 
Q 2266 1288 2266 781 
Q 2266 391 1970 151 
Q 1675 -88 1309 -88 
Q 1047 -88 709 6 
Q 606 38 541 38 
Q 469 38 428 -44 
L 325 -44 
L 325 978 
L 428 978 
Q 516 541 762 319 
Q 1009 97 1316 97 
Q 1531 97 1667 223 
Q 1803 350 1803 528 
Q 1803 744 1651 891 
Q 1500 1038 1047 1263 
Q 594 1488 453 1669 
Q 313 1847 313 2119 
Q 313 2472 555 2709 
Q 797 2947 1181 2947 
Q 1350 2947 1591 2875 
Q 1750 2828 1803 2828 
Q 1853 2828 1881 2850 
Q 1909 2872 1947 2947 
L 2050 2947 
z
" transform="scale(0.015625)"/>
      </defs>
      <use xlink:href="#TimesNewRomanPSMT-4e"/>
      <use xlink:href="#TimesNewRomanPSMT-75" transform="translate(72.216797 0)"/>
      <use xlink:href="#TimesNewRomanPSMT-6d" transform="translate(122.216797 0)"/>
      <use xlink:href="#TimesNewRomanPSMT-62" transform="translate(200 0)"/>
      <use xlink:href="#TimesNewRomanPSMT-65" transform="translate(250 0)"/>
      <use xlink:href="#TimesNewRomanPSMT-72" transform="translate(294.384766 0)"/>
      <use xlink:href="#TimesNewRomanPSMT-20" transform="translate(327.685547 0)"/>
      <use xlink:href="#TimesNewRomanPSMT-6f" transform="translate(352.685547 0)"/>
      <use xlink:href="#TimesNewRomanPSMT-66" transform="translate(402.685547 0)"/>
      <use xlink:href="#TimesNewRomanPSMT-20" transform="translate(435.986328 0)"/>
      <use xlink:href="#TimesNewRomanPSMT-69" transform="translate(460.986328 0)"/>
      <use xlink:href="#TimesNewRomanPSMT-74" transform="translate(488.769531 0)"/>
      <use xlink:href="#TimesNewRomanPSMT-65" transform="translate(516.552734 0)"/>
      <use xlink:href="#TimesNewRomanPSMT-72" transform="translate(560.9375 0)"/>
      <use xlink:href="#TimesNewRomanPSMT-61" transform="translate(594.238281 0)"/>
      <use xlink:href="#TimesNewRomanPSMT-74" transform="translate(638.623047 0)"/>
      <use xlink:href="#TimesNewRomanPSMT-69" transform="translate(666.40625 0)"/>
      <use xlink:href="#TimesNewRomanPSMT-6f" transform="translate(694.189453 0)"/>
      <use xlink:href="#TimesNewRomanPSMT-6e" transform="translate(744.189453 0)"/>
      <use xlink:href="#TimesNewRomanPSMT-73" transform="translate(794.189453 0)"/>
     </g>
    </g>
   </g>
   <g id="matplotlib.axis_2">
    <g id="ytick_1">
     <g id="line2d_11">
      <path d="M 165.052313 311.6435 
L 522.172312 311.6435 
" clip-path="url(#pd0cf717775)" style="fill: none; stroke: #b0b0b0; stroke-opacity: 0.3; stroke-width: 0.8; stroke-linecap: square"/>
     </g>
     <g id="line2d_12">
      <defs>
       <path id="mab4af332ca" d="M 0 0 
L -3.5 0 
" style="stroke: #000000; stroke-width: 0.8"/>
      </defs>
      <g>
       <use xlink:href="#mab4af332ca" x="165.052313" y="311.6435" style="stroke: #000000; stroke-width: 0.8"/>
      </g>
     </g>
     <g id="text_7">
      <!-- 0.0 -->
      <g transform="translate(130.552313 319.281625) scale(0.22 -0.22)">
       <defs>
        <path id="TimesNewRomanPSMT-2e" d="M 800 606 
Q 947 606 1047 504 
Q 1147 403 1147 259 
Q 1147 116 1045 14 
Q 944 -88 800 -88 
Q 656 -88 554 14 
Q 453 116 453 259 
Q 453 406 554 506 
Q 656 606 800 606 
z
" transform="scale(0.015625)"/>
       </defs>
       <use xlink:href="#TimesNewRomanPSMT-30"/>
       <use xlink:href="#TimesNewRomanPSMT-2e" transform="translate(50 0)"/>
       <use xlink:href="#TimesNewRomanPSMT-30" transform="translate(75 0)"/>
      </g>
     </g>
    </g>
    <g id="ytick_2">
     <g id="line2d_13">
      <path d="M 165.052313 231.766413 
L 522.172312 231.766413 
" clip-path="url(#pd0cf717775)" style="fill: none; stroke: #b0b0b0; stroke-opacity: 0.3; stroke-width: 0.8; stroke-linecap: square"/>
     </g>
     <g id="line2d_14">
      <g>
       <use xlink:href="#mab4af332ca" x="165.052313" y="231.766413" style="stroke: #000000; stroke-width: 0.8"/>
      </g>
     </g>
     <g id="text_8">
      <!-- 0.1 -->
      <g transform="translate(130.552313 239.404538) scale(0.22 -0.22)">
       <use xlink:href="#TimesNewRomanPSMT-30"/>
       <use xlink:href="#TimesNewRomanPSMT-2e" transform="translate(50 0)"/>
       <use xlink:href="#TimesNewRomanPSMT-31" transform="translate(75 0)"/>
      </g>
     </g>
    </g>
    <g id="ytick_3">
     <g id="line2d_15">
      <path d="M 165.052313 151.889325 
L 522.172312 151.889325 
" clip-path="url(#pd0cf717775)" style="fill: none; stroke: #b0b0b0; stroke-opacity: 0.3; stroke-width: 0.8; stroke-linecap: square"/>
     </g>
     <g id="line2d_16">
      <g>
       <use xlink:href="#mab4af332ca" x="165.052313" y="151.889325" style="stroke: #000000; stroke-width: 0.8"/>
      </g>
     </g>
     <g id="text_9">
      <!-- 0.2 -->
      <g transform="translate(130.552313 159.52745) scale(0.22 -0.22)">
       <use xlink:href="#TimesNewRomanPSMT-30"/>
       <use xlink:href="#TimesNewRomanPSMT-2e" transform="translate(50 0)"/>
       <use xlink:href="#TimesNewRomanPSMT-32" transform="translate(75 0)"/>
      </g>
     </g>
    </g>
    <g id="ytick_4">
     <g id="line2d_17">
      <path d="M 165.052313 72.012238 
L 522.172312 72.012238 
" clip-path="url(#pd0cf717775)" style="fill: none; stroke: #b0b0b0; stroke-opacity: 0.3; stroke-width: 0.8; stroke-linecap: square"/>
     </g>
     <g id="line2d_18">
      <g>
       <use xlink:href="#mab4af332ca" x="165.052313" y="72.012238" style="stroke: #000000; stroke-width: 0.8"/>
      </g>
     </g>
     <g id="text_10">
      <!-- 0.3 -->
      <g transform="translate(130.552313 79.650363) scale(0.22 -0.22)">
       <defs>
        <path id="TimesNewRomanPSMT-33" d="M 325 3431 
Q 506 3859 782 4092 
Q 1059 4325 1472 4325 
Q 1981 4325 2253 3994 
Q 2459 3747 2459 3466 
Q 2459 3003 1878 2509 
Q 2269 2356 2469 2072 
Q 2669 1788 2669 1403 
Q 2669 853 2319 450 
Q 1863 -75 997 -75 
Q 569 -75 414 31 
Q 259 138 259 259 
Q 259 350 332 419 
Q 406 488 509 488 
Q 588 488 669 463 
Q 722 447 909 348 
Q 1097 250 1169 231 
Q 1284 197 1416 197 
Q 1734 197 1970 444 
Q 2206 691 2206 1028 
Q 2206 1275 2097 1509 
Q 2016 1684 1919 1775 
Q 1784 1900 1550 2001 
Q 1316 2103 1072 2103 
L 972 2103 
L 972 2197 
Q 1219 2228 1467 2375 
Q 1716 2522 1828 2728 
Q 1941 2934 1941 3181 
Q 1941 3503 1739 3701 
Q 1538 3900 1238 3900 
Q 753 3900 428 3381 
L 325 3431 
z
" transform="scale(0.015625)"/>
       </defs>
       <use xlink:href="#TimesNewRomanPSMT-30"/>
       <use xlink:href="#TimesNewRomanPSMT-2e" transform="translate(50 0)"/>
       <use xlink:href="#TimesNewRomanPSMT-33" transform="translate(75 0)"/>
      </g>
     </g>
    </g>
    <g id="text_11">
     <!-- Loss -->
     <g transform="translate(121.846375 199.368906) rotate(-90) scale(0.22 -0.22)">
      <defs>
       <path id="TimesNewRomanPSMT-4c" d="M 3669 1172 
L 3772 1150 
L 3409 0 
L 128 0 
L 128 116 
L 288 116 
Q 556 116 672 291 
Q 738 391 738 753 
L 738 3488 
Q 738 3884 650 3984 
Q 528 4122 288 4122 
L 128 4122 
L 128 4238 
L 2047 4238 
L 2047 4122 
Q 1709 4125 1573 4059 
Q 1438 3994 1388 3894 
Q 1338 3794 1338 3416 
L 1338 753 
Q 1338 494 1388 397 
Q 1425 331 1503 300 
Q 1581 269 1991 269 
L 2300 269 
Q 2788 269 2984 341 
Q 3181 413 3343 595 
Q 3506 778 3669 1172 
z
" transform="scale(0.015625)"/>
      </defs>
      <use xlink:href="#TimesNewRomanPSMT-4c"/>
      <use xlink:href="#TimesNewRomanPSMT-6f" transform="translate(61.083984 0)"/>
      <use xlink:href="#TimesNewRomanPSMT-73" transform="translate(111.083984 0)"/>
      <use xlink:href="#TimesNewRomanPSMT-73" transform="translate(150 0)"/>
     </g>
    </g>
   </g>
   <g id="line2d_19">
    <path d="M 165.052313 105.403415 
L 165.392103 126.186176 
L 165.731894 134.921671 
L 166.411475 146.822249 
L 166.751266 144.465532 
L 167.091057 148.290389 
L 167.430847 149.514525 
L 167.770638 148.860976 
L 168.110429 153.990098 
L 168.450219 154.949175 
L 168.79001 158.450424 
L 169.129801 152.399219 
L 169.469591 156.839489 
L 169.809382 157.605565 
L 170.149173 164.282312 
L 170.488963 165.169735 
L 170.828754 164.670218 
L 171.168545 164.902533 
L 171.508335 164.320543 
L 171.848126 165.076883 
L 172.187917 167.506528 
L 172.527707 166.512957 
L 172.867498 167.277997 
L 173.547079 172.985015 
L 174.226661 172.252766 
L 174.566451 173.744176 
L 175.246033 173.061013 
L 175.585823 178.111982 
L 175.925614 179.044505 
L 176.265405 175.860425 
L 176.605195 182.58921 
L 176.944986 180.043229 
L 177.284777 184.152238 
L 177.624567 180.808389 
L 178.304149 186.008938 
L 178.64394 183.674098 
L 178.98373 182.14166 
L 179.323521 179.553627 
L 179.663312 185.37266 
L 180.003102 185.977979 
L 180.342893 183.93824 
L 180.682684 189.68093 
L 181.022474 183.421869 
L 181.362265 189.181163 
L 182.041846 184.19567 
L 182.381637 187.133759 
L 182.721428 187.781832 
L 183.401009 193.623564 
L 183.7408 195.293715 
L 184.08059 189.391494 
L 184.420381 192.380336 
L 184.760172 197.644493 
L 185.099962 197.711528 
L 185.439753 197.155164 
L 185.779544 195.952441 
L 186.119334 192.049657 
L 186.798916 199.021447 
L 187.138706 198.94871 
L 187.478497 197.859383 
L 187.818288 199.479316 
L 188.158078 199.323225 
L 188.497869 196.998538 
L 189.17745 203.113506 
L 189.517241 199.777465 
L 189.857032 197.873987 
L 190.196822 203.003299 
L 190.536613 203.849754 
L 190.876404 197.435292 
L 191.216195 205.723213 
L 191.555985 204.849466 
L 191.895776 200.338566 
L 192.235567 201.669885 
L 192.915148 205.557731 
L 193.254939 202.78522 
L 193.594729 202.038854 
L 193.93452 206.400555 
L 194.274311 208.954344 
L 194.614101 209.5841 
L 194.953892 207.489621 
L 195.293683 214.032951 
L 195.633473 210.186015 
L 195.973264 207.812741 
L 196.313055 208.050734 
L 196.652845 214.911668 
L 196.992636 212.769453 
L 197.332427 211.400117 
L 197.672217 210.899398 
L 198.012008 209.263741 
L 198.351799 211.943674 
L 198.691589 211.13238 
L 199.03138 215.985468 
L 199.371171 215.640459 
L 199.710961 218.8075 
L 200.050752 219.490431 
L 200.390543 212.14462 
L 201.070124 214.931623 
L 201.409915 219.067168 
L 201.749705 215.226391 
L 202.089496 214.554262 
L 202.429287 211.378788 
L 202.769077 211.982601 
L 203.108868 221.247536 
L 203.448659 219.962857 
L 203.78845 214.426964 
L 204.12824 220.678103 
L 204.468031 215.669436 
L 204.807822 219.312594 
L 205.147612 216.276344 
L 205.487403 221.556207 
L 205.827194 222.131674 
L 206.166984 219.621443 
L 206.506775 222.834589 
L 206.846566 221.684308 
L 207.186356 218.345863 
L 207.526147 224.743512 
L 207.865938 221.509179 
L 208.545519 225.707916 
L 208.88531 222.769148 
L 209.2251 218.744178 
L 209.564891 222.078231 
L 209.904682 222.277082 
L 210.584263 227.433866 
L 210.924054 222.214808 
L 211.263844 225.110392 
L 211.603635 223.951518 
L 212.283216 226.516049 
L 212.623007 224.921022 
L 212.962798 226.746407 
L 213.302588 225.746575 
L 213.642379 226.887078 
L 213.98217 231.489265 
L 214.32196 230.074967 
L 214.661751 226.871039 
L 215.001542 229.024567 
L 215.341332 226.17642 
L 215.681123 229.930344 
L 216.020914 225.889038 
L 216.360705 233.029469 
L 216.700495 228.87848 
L 217.040286 230.157089 
L 217.380077 229.157739 
L 217.719867 231.437792 
L 218.059658 229.791845 
L 218.399449 229.207213 
L 218.739239 229.386627 
L 219.07903 233.241639 
L 219.418821 232.214438 
L 220.098402 234.456848 
L 220.438193 230.705139 
L 220.777983 239.359618 
L 221.117774 234.704792 
L 221.457565 232.716043 
L 221.797355 229.522239 
L 222.137146 236.384483 
L 222.476937 230.776334 
L 222.816727 234.164115 
L 223.156518 233.092958 
L 224.17589 235.071345 
L 224.515681 237.240352 
L 224.855471 237.412666 
L 225.195262 237.789045 
L 225.874843 238.283824 
L 226.214634 239.522809 
L 226.554425 232.757935 
L 226.894215 237.522509 
L 227.234006 237.874321 
L 227.573797 240.40437 
L 227.913587 235.572623 
L 228.253378 239.901235 
L 228.593169 234.364538 
L 228.93296 235.05699 
L 229.612541 240.207334 
L 229.952332 240.799108 
L 230.292122 236.241473 
L 230.971704 241.541445 
L 231.311494 241.422877 
L 231.651285 242.036439 
L 231.991076 244.192793 
L 232.330866 241.297197 
L 232.670657 245.174342 
L 233.010448 233.560016 
L 233.690029 245.318882 
L 234.02982 242.662439 
L 234.36961 242.36263 
L 234.709401 238.999368 
L 235.049192 245.219953 
L 235.388982 240.946433 
L 235.728773 241.560769 
L 236.068564 249.389427 
L 236.408354 246.372727 
L 236.748145 241.822971 
L 237.427726 249.291623 
L 237.767517 244.202435 
L 238.107308 247.91877 
L 238.447098 244.077386 
L 238.786889 244.197078 
L 239.12668 244.855329 
L 239.46647 248.849893 
L 239.806261 245.577597 
L 240.146052 247.292067 
L 240.485842 243.8613 
L 240.825633 246.594872 
L 241.165424 239.030076 
L 241.505214 242.074027 
L 241.845005 250.150016 
L 242.184796 247.375362 
L 242.524587 250.897875 
L 242.864377 248.634242 
L 243.204168 249.293998 
L 243.543959 247.342957 
L 243.883749 253.531007 
L 244.563331 246.013994 
L 244.903121 251.343181 
L 245.242912 248.888952 
L 245.582703 248.837128 
L 245.922493 249.261992 
L 246.262284 249.458438 
L 246.602075 245.256256 
L 246.941865 249.605584 
L 247.281656 249.444905 
L 247.621447 250.544808 
L 247.961237 248.443413 
L 248.301028 252.236592 
L 248.640819 250.416771 
L 248.980609 250.846021 
L 249.3204 250.263543 
L 249.660191 252.022446 
L 249.999981 252.784278 
L 250.339772 252.435443 
L 250.679563 247.223544 
L 251.019353 248.196238 
L 251.359144 256.170054 
L 251.698935 247.052956 
L 252.038725 250.570511 
L 252.378516 251.305004 
L 252.718307 250.199679 
L 253.058097 255.055827 
L 253.397888 253.563072 
L 253.737679 257.411646 
L 254.077469 251.108956 
L 254.41726 252.067777 
L 254.757051 252.139145 
L 255.096842 255.598378 
L 255.436632 255.548452 
L 255.776423 252.287987 
L 256.116214 253.000704 
L 256.456004 254.741324 
L 256.795795 252.832853 
L 257.135586 256.49352 
L 257.475376 258.309615 
L 257.815167 253.718485 
L 258.154958 254.536778 
L 258.494748 256.046963 
L 258.834539 259.28864 
L 259.51412 255.668734 
L 259.853911 256.816253 
L 260.193702 253.736148 
L 260.533492 253.211261 
L 260.873283 253.801845 
L 261.213074 253.022968 
L 261.552864 253.434352 
L 261.892655 256.617747 
L 262.232446 252.51378 
L 262.572236 256.982485 
L 263.251818 260.131083 
L 263.591608 254.652763 
L 263.931399 254.634064 
L 264.27119 256.114689 
L 264.61098 255.770275 
L 264.950771 259.091325 
L 265.290562 260.070178 
L 265.630352 262.370911 
L 265.970143 260.093304 
L 266.309934 256.924156 
L 266.649724 254.945674 
L 267.329306 257.713835 
L 267.669097 261.437449 
L 268.008887 261.640769 
L 268.348678 262.186218 
L 268.688469 261.823207 
L 269.028259 259.676409 
L 269.36805 264.3624 
L 269.707841 260.582823 
L 270.047631 259.254188 
L 270.387422 259.828941 
L 270.727213 256.810689 
L 271.067003 258.943714 
L 271.406794 262.959013 
L 271.746585 261.536502 
L 272.086375 263.827261 
L 272.426166 260.898814 
L 272.765957 261.580357 
L 273.105747 257.329012 
L 273.445538 263.913588 
L 273.785329 264.459418 
L 274.125119 257.773961 
L 274.46491 260.820435 
L 274.804701 260.791315 
L 275.144491 260.254519 
L 275.484282 263.516207 
L 275.824073 260.792875 
L 276.163863 265.060152 
L 276.503654 260.038624 
L 276.843445 264.545129 
L 277.183235 265.798947 
L 277.523026 267.658338 
L 277.862817 261.047501 
L 278.202607 263.551624 
L 278.542398 263.892217 
L 278.882189 260.759851 
L 279.221979 264.347194 
L 279.56177 263.199678 
L 279.901561 263.671001 
L 280.581142 266.244019 
L 280.920933 264.607067 
L 281.260724 263.611405 
L 281.600514 265.25085 
L 281.940305 265.462094 
L 282.280096 264.067245 
L 282.619886 264.667497 
L 282.959677 262.787928 
L 283.299468 263.48385 
L 283.639258 262.174801 
L 283.979049 266.460087 
L 284.65863 261.465497 
L 284.998421 265.681433 
L 285.338212 263.036202 
L 285.678002 266.29534 
L 286.017793 267.745989 
L 286.357584 267.294409 
L 286.697374 266.034241 
L 287.037165 266.876705 
L 287.376956 262.545948 
L 287.716746 265.062143 
L 288.056537 269.701755 
L 288.396328 269.124082 
L 288.736118 261.192576 
L 289.075909 266.175311 
L 289.4157 267.117825 
L 289.75549 268.799194 
L 290.095281 267.346085 
L 290.435072 270.529858 
L 290.774862 269.930541 
L 291.114653 267.020774 
L 291.794234 268.811213 
L 292.134025 270.948815 
L 292.473816 270.322384 
L 292.813607 269.402237 
L 293.153397 270.92382 
L 293.493188 268.580945 
L 293.832979 264.58791 
L 294.172769 269.722278 
L 294.51256 267.957037 
L 294.852351 268.040998 
L 295.192141 270.73899 
L 295.531932 265.750977 
L 295.871723 266.668668 
L 296.211513 268.102323 
L 296.551304 272.316381 
L 297.230885 272.135979 
L 297.570676 265.889812 
L 297.910467 269.600645 
L 298.250257 269.510138 
L 298.590048 269.00888 
L 298.929839 270.813236 
L 299.269629 271.678392 
L 299.60942 268.449076 
L 299.949211 268.293092 
L 300.289001 271.513216 
L 300.628792 266.901346 
L 300.968583 270.698599 
L 301.308373 267.951508 
L 301.987955 270.880807 
L 302.667536 270.869312 
L 303.007327 272.71724 
L 303.347117 264.605312 
L 303.686908 269.583214 
L 304.026699 271.60514 
L 304.366489 268.909267 
L 304.70628 274.467731 
L 305.046071 270.943784 
L 305.385862 271.913153 
L 306.065443 269.237764 
L 306.405234 268.711017 
L 306.745024 273.000618 
L 307.084815 269.465714 
L 307.424606 271.154493 
L 307.764396 269.976143 
L 308.104187 273.440437 
L 308.443978 274.545845 
L 308.783768 272.323353 
L 309.123559 273.613986 
L 309.46335 275.408365 
L 309.80314 275.339395 
L 310.482722 271.616603 
L 310.822512 266.947597 
L 311.162303 270.653303 
L 311.841884 274.625179 
L 312.181675 272.416196 
L 312.521466 271.640568 
L 312.861256 273.459945 
L 313.201047 270.644659 
L 313.540838 274.669596 
L 313.880628 273.103325 
L 314.220419 269.827732 
L 314.56021 276.316245 
L 314.9 273.247475 
L 315.579582 274.018324 
L 315.919372 275.114171 
L 316.259163 275.302598 
L 316.598954 272.61505 
L 316.938744 277.622063 
L 317.618326 271.539081 
L 318.297907 277.954515 
L 318.637698 274.991452 
L 318.977489 277.740619 
L 319.317279 273.859769 
L 319.996861 276.327517 
L 320.336651 275.399378 
L 320.676442 275.154003 
L 321.016233 274.686245 
L 321.356023 272.629119 
L 321.695814 275.856748 
L 322.035605 271.597892 
L 322.375395 275.000557 
L 322.715186 275.32269 
L 323.394767 274.016598 
L 323.734558 273.716119 
L 324.074349 273.851675 
L 324.414139 276.317983 
L 324.75393 275.368053 
L 325.093721 273.221111 
L 325.433511 273.766081 
L 326.113093 276.707746 
L 326.452883 276.537229 
L 327.132465 277.468636 
L 327.472255 276.641574 
L 327.812046 276.425669 
L 328.151837 277.079289 
L 328.491627 276.68384 
L 329.171209 279.771529 
L 329.510999 278.452848 
L 329.85079 271.819527 
L 330.190581 273.66282 
L 330.530371 269.973408 
L 330.870162 273.490577 
L 331.209953 272.267521 
L 331.549744 276.043821 
L 331.889534 276.51141 
L 332.569116 278.634869 
L 332.908906 275.946146 
L 333.248697 275.643319 
L 333.588488 276.649551 
L 333.928278 276.81143 
L 334.268069 275.838344 
L 334.60786 279.94335 
L 334.94765 281.047493 
L 335.287441 274.59272 
L 335.627232 273.711942 
L 335.967022 280.028144 
L 336.646604 274.791705 
L 336.986394 281.217474 
L 337.326185 275.607135 
L 337.665976 280.661524 
L 338.005766 280.508762 
L 338.345557 279.97005 
L 338.685348 279.793796 
L 339.025138 275.146287 
L 339.364929 279.703155 
L 339.70472 280.166312 
L 340.04451 279.555705 
L 340.384301 282.095244 
L 340.724092 280.235428 
L 341.063882 277.18369 
L 341.403673 282.185487 
L 341.743464 279.08002 
L 342.083254 280.209903 
L 342.423045 276.758466 
L 342.762836 277.238769 
L 343.102626 281.026166 
L 343.442417 283.353273 
L 343.782208 280.29154 
L 344.121999 279.921452 
L 344.461789 279.882134 
L 344.80158 283.384803 
L 345.141371 280.243132 
L 345.820952 277.566603 
L 346.160743 281.21215 
L 346.500533 281.340678 
L 346.840324 278.790956 
L 347.180115 284.801523 
L 347.859696 279.285388 
L 348.199487 282.255507 
L 348.539277 276.480368 
L 348.879068 282.073959 
L 349.218859 281.655811 
L 349.558649 279.882581 
L 349.89844 279.014449 
L 350.238231 284.066427 
L 350.578021 277.668647 
L 350.917812 281.190315 
L 351.257603 279.091179 
L 351.597393 279.16022 
L 351.937184 279.512103 
L 352.276975 280.634737 
L 352.616765 283.17191 
L 352.956556 282.468189 
L 353.296347 283.748928 
L 353.975928 280.590245 
L 354.315719 283.076278 
L 354.655509 281.852719 
L 354.9953 275.322535 
L 355.335091 277.811092 
L 355.674881 281.744215 
L 356.014672 280.115827 
L 356.354463 282.608511 
L 356.694254 279.011205 
L 357.034044 276.922779 
L 357.373835 281.269084 
L 357.713626 274.263262 
L 358.053416 283.145022 
L 358.393207 280.684778 
L 358.732998 281.099046 
L 359.072788 281.981083 
L 359.412579 278.87928 
L 359.75237 277.049208 
L 360.431951 285.894716 
L 360.771742 280.394724 
L 361.111532 281.95704 
L 361.451323 280.320091 
L 361.791114 281.896902 
L 362.130904 279.342396 
L 362.470695 284.922011 
L 362.810486 286.416247 
L 363.150276 280.505031 
L 363.490067 279.99529 
L 364.509439 286.103827 
L 364.84923 284.223779 
L 365.18902 284.655169 
L 365.528811 285.580052 
L 365.868602 281.191723 
L 366.208392 284.969059 
L 366.548183 282.955955 
L 367.227764 284.498462 
L 367.567555 281.396385 
L 367.907346 282.687241 
L 368.247136 282.785846 
L 368.586927 282.3072 
L 368.926718 286.530027 
L 369.266509 279.870488 
L 369.606299 281.163457 
L 369.94609 280.42201 
L 370.285881 272.950341 
L 370.625671 280.983064 
L 370.965462 280.280274 
L 371.305253 280.462827 
L 371.645043 287.225346 
L 372.324625 283.009433 
L 372.664415 285.282127 
L 373.343997 283.372543 
L 373.683787 285.312622 
L 374.363369 282.804485 
L 374.703159 283.530982 
L 375.04295 283.903159 
L 375.382741 285.43837 
L 375.722531 283.92996 
L 376.062322 286.722284 
L 376.402113 285.35581 
L 377.081694 281.643956 
L 377.421485 283.216259 
L 377.761275 281.136566 
L 378.101066 285.074031 
L 378.440857 282.906315 
L 378.780647 282.740952 
L 379.120438 281.422749 
L 380.13981 287.887219 
L 380.479601 283.604573 
L 380.819391 283.940268 
L 381.159182 281.21773 
L 381.498973 286.980164 
L 381.838763 285.76917 
L 382.178554 282.9451 
L 382.518345 281.190892 
L 382.858136 282.653536 
L 383.197926 286.144653 
L 383.537717 287.852638 
L 384.217298 284.773198 
L 384.557089 284.655761 
L 384.89688 281.17721 
L 385.23667 284.212966 
L 385.576461 285.164892 
L 385.916252 283.092585 
L 386.256042 284.861516 
L 386.595833 285.724556 
L 386.935624 283.58554 
L 387.275414 283.092763 
L 387.615205 288.616064 
L 387.954996 283.409992 
L 388.294786 284.001915 
L 388.634577 288.454363 
L 388.974368 283.139945 
L 389.314158 285.558711 
L 389.653949 289.309949 
L 390.33353 285.162818 
L 390.673321 285.610708 
L 391.013112 285.692247 
L 391.352902 285.295199 
L 391.692693 283.253731 
L 392.032484 285.324905 
L 392.372274 290.604303 
L 392.712065 286.008317 
L 393.051856 287.074052 
L 393.391646 287.666909 
L 393.731437 289.724987 
L 394.071228 284.565194 
L 394.411018 285.774729 
L 394.750809 280.447607 
L 395.0906 286.218309 
L 395.430391 283.610003 
L 395.770181 284.271336 
L 396.109972 285.415921 
L 396.449763 288.095002 
L 396.789553 284.879349 
L 397.129344 287.928097 
L 397.469135 288.50548 
L 397.808925 283.237767 
L 398.148716 287.023936 
L 398.488507 286.483497 
L 398.828297 288.129454 
L 399.168088 286.643869 
L 399.507879 283.933219 
L 399.847669 284.417991 
L 400.18746 287.576466 
L 400.527251 283.005407 
L 400.867041 287.294326 
L 401.206832 286.820244 
L 401.546623 288.046063 
L 401.886413 285.867016 
L 402.226204 289.105815 
L 402.565995 285.105656 
L 402.905785 287.686678 
L 403.245576 287.96395 
L 403.585367 283.495215 
L 403.925157 287.959824 
L 404.264948 285.712704 
L 404.604739 282.394898 
L 404.944529 285.93836 
L 405.28432 285.675452 
L 405.624111 284.71986 
L 405.963901 288.64239 
L 406.303692 283.840831 
L 406.643483 287.753397 
L 406.983273 289.130416 
L 407.323064 287.678891 
L 407.662855 291.057661 
L 408.002646 286.758819 
L 408.342436 287.257349 
L 408.682227 284.597873 
L 409.361808 291.078922 
L 409.701599 284.618803 
L 410.04139 283.393468 
L 410.38118 289.046439 
L 410.720971 289.099033 
L 411.060762 285.535602 
L 411.400552 287.026852 
L 411.740343 285.096494 
L 412.080134 289.227564 
L 412.419924 282.748448 
L 412.759715 286.322546 
L 413.099506 286.694708 
L 413.439296 283.006684 
L 413.779087 288.431039 
L 414.118878 287.21729 
L 414.458668 284.396364 
L 414.798459 285.05332 
L 415.13825 287.006606 
L 415.47804 285.0275 
L 415.817831 285.349267 
L 416.157622 288.08617 
L 416.497412 287.694979 
L 416.837203 286.990179 
L 417.176994 289.243591 
L 417.856575 287.03539 
L 418.196366 287.688446 
L 418.536156 288.759458 
L 418.875947 286.918245 
L 419.215738 286.629625 
L 419.555528 284.874689 
L 419.895319 288.215915 
L 420.23511 284.197115 
L 420.574901 288.837789 
L 420.914691 284.620818 
L 421.254482 283.561095 
L 421.594273 284.653526 
L 421.934063 286.988367 
L 422.273854 287.391275 
L 422.613645 289.463038 
L 422.953435 287.726565 
L 423.293226 285.012456 
L 423.633017 288.027666 
L 424.312598 283.540754 
L 424.652389 288.53142 
L 424.992179 290.173063 
L 425.33197 289.546005 
L 425.671761 289.401018 
L 426.011551 287.689691 
L 426.351342 289.084219 
L 426.691133 288.669946 
L 427.030923 285.744097 
L 427.370714 289.215169 
L 427.710505 289.817291 
L 428.050295 286.814248 
L 428.390086 287.85843 
L 428.729877 288.500075 
L 429.069667 285.373224 
L 429.409458 285.051291 
L 429.749249 287.174602 
L 430.089039 288.530716 
L 430.42883 290.76765 
L 430.768621 288.179333 
L 431.108411 288.499694 
L 431.448202 289.429148 
L 431.787993 288.288547 
L 432.127783 288.317814 
L 432.467574 290.992567 
L 432.807365 289.178558 
L 433.147156 284.598212 
L 433.486946 289.198105 
L 433.826737 289.875387 
L 434.166528 288.735293 
L 434.506318 288.940805 
L 434.846109 290.981006 
L 435.1859 287.723524 
L 435.52569 285.623443 
L 435.865481 287.993138 
L 436.205272 285.730969 
L 436.545062 291.88753 
L 436.884853 289.198166 
L 437.224644 285.308111 
L 437.564434 286.625066 
L 438.244016 288.181043 
L 438.923597 291.015025 
L 439.603178 287.174799 
L 439.942969 290.171771 
L 440.28276 286.379265 
L 440.62255 288.069843 
L 440.962341 287.617805 
L 441.641922 287.500542 
L 441.981713 288.268209 
L 442.321504 293.418971 
L 442.661294 288.338587 
L 443.001085 287.403682 
L 443.340876 284.979586 
L 443.680666 286.39925 
L 444.020457 289.568962 
L 444.360248 289.989428 
L 444.700038 289.322835 
L 445.37962 284.110511 
L 445.719411 287.258696 
L 446.059201 287.818525 
L 446.398992 289.45933 
L 446.738783 287.492652 
L 447.078573 288.203162 
L 447.418364 288.143826 
L 447.758155 289.869763 
L 448.097945 290.275015 
L 448.437736 285.757687 
L 448.777527 294.313931 
L 449.117317 288.54294 
L 449.457108 289.468035 
L 449.796899 291.557807 
L 450.47648 290.094663 
L 450.816271 286.871922 
L 451.156061 291.323642 
L 451.495852 288.552577 
L 451.835643 292.825719 
L 452.175433 289.666075 
L 452.515224 290.93012 
L 452.855015 288.160694 
L 453.194805 290.345613 
L 453.534596 288.850113 
L 453.874387 290.057006 
L 454.553968 286.855541 
L 454.893759 262.84005 
L 455.233549 284.417173 
L 455.57334 279.896852 
L 455.913131 283.318958 
L 456.252921 288.350454 
L 456.592712 288.276795 
L 456.932503 292.525312 
L 457.272293 291.423923 
L 457.612084 284.982279 
L 457.951875 287.612967 
L 458.291665 291.796346 
L 458.631456 289.423164 
L 458.971247 289.674931 
L 459.311038 293.57653 
L 459.650828 291.13497 
L 459.990619 290.261431 
L 460.33041 292.127706 
L 460.6702 292.628712 
L 461.009991 291.07322 
L 461.349782 290.697409 
L 461.689572 290.031544 
L 462.029363 289.111324 
L 462.369154 288.637962 
L 462.708944 290.99892 
L 463.048735 289.885241 
L 463.388526 290.471445 
L 463.728316 289.528425 
L 464.068107 285.614156 
L 464.407898 291.19197 
L 464.747688 288.506438 
L 465.087479 287.472922 
L 465.42727 291.484642 
L 465.76706 287.881677 
L 466.106851 289.751134 
L 466.446642 288.714628 
L 466.786432 291.611848 
L 467.126223 288.014257 
L 467.466014 285.962332 
L 467.805804 290.106215 
L 468.145595 288.433923 
L 468.485386 289.278983 
L 468.825176 292.174657 
L 469.164967 291.721102 
L 469.504758 286.976558 
L 470.184339 289.103704 
L 470.52413 292.714281 
L 470.86392 287.342224 
L 471.203711 289.069316 
L 471.543502 292.730475 
L 472.223083 289.425751 
L 472.562874 289.687262 
L 472.902665 292.313144 
L 473.242455 288.747146 
L 473.582246 287.053129 
L 473.922037 288.000148 
L 474.261827 286.070196 
L 474.601618 290.607471 
L 474.941409 290.407135 
L 475.281199 287.244362 
L 475.62099 290.631891 
L 476.300571 279.794409 
L 476.640362 289.004237 
L 476.980153 283.441924 
L 477.319943 287.764581 
L 477.659734 293.865582 
L 477.999525 288.236268 
L 478.339315 292.770302 
L 478.679106 290.502664 
L 479.018897 290.530056 
L 479.358687 290.89479 
L 479.698478 289.901173 
L 480.038269 292.049596 
L 480.378059 289.790635 
L 480.71785 292.924511 
L 481.057641 293.295414 
L 481.397431 288.811172 
L 481.737222 293.437642 
L 482.077013 292.697732 
L 482.416803 289.419601 
L 482.756594 288.906149 
L 483.096385 294.176824 
L 483.436175 290.142632 
L 483.775966 290.802018 
L 484.115757 293.232055 
L 484.455548 289.384181 
L 484.795338 287.553428 
L 485.135129 288.872458 
L 485.47492 293.978468 
L 486.154501 288.422019 
L 486.494292 290.429802 
L 487.513664 290.157211 
L 488.193245 292.660947 
L 488.533036 292.351491 
L 488.872826 288.468109 
L 489.212617 293.882002 
L 489.552408 290.705788 
L 489.892198 292.657778 
L 490.231989 290.294222 
L 490.91157 293.96625 
L 491.251361 290.031187 
L 491.591152 289.795772 
L 491.930942 292.440168 
L 492.270733 291.279027 
L 492.610524 292.105349 
L 492.950314 290.044363 
L 493.290105 291.098591 
L 493.629896 291.599344 
L 493.969686 290.511557 
L 494.309477 291.961268 
L 494.649268 289.535996 
L 494.989058 290.272528 
L 495.328849 289.333537 
L 495.66864 291.403548 
L 496.00843 290.815963 
L 496.348221 291.881146 
L 496.688012 287.512101 
L 497.027803 292.754244 
L 497.367593 291.495181 
L 497.707384 290.927263 
L 498.047175 291.891831 
L 498.386965 291.403906 
L 498.726756 291.561904 
L 499.066547 294.084151 
L 499.406337 291.213219 
L 499.746128 286.64489 
L 500.085919 222.743582 
L 500.425709 235.812425 
L 500.7655 263.852022 
L 501.105291 281.662373 
L 501.445081 286.909086 
L 501.784872 290.192897 
L 502.464453 287.628528 
L 502.804244 293.049855 
L 503.144035 291.323114 
L 503.823616 291.46075 
L 504.163407 291.531263 
L 504.842988 289.222321 
L 505.182779 291.43827 
L 505.522569 290.366276 
L 505.86236 293.463191 
L 506.202151 289.155898 
L 506.541941 291.379336 
L 506.881732 292.803398 
L 507.221523 289.997957 
L 507.561313 290.554896 
L 507.901104 292.694563 
L 508.240895 290.718207 
L 508.580685 293.349473 
L 508.920476 291.891742 
L 509.260267 289.532073 
L 509.600058 289.25727 
L 509.939848 292.629478 
L 510.279639 287.896679 
L 510.95922 293.321215 
L 511.299011 291.265977 
L 511.638802 292.3364 
L 512.318383 289.631336 
L 512.658174 291.645218 
L 512.997964 292.462057 
L 513.337755 291.077044 
L 513.677546 290.276836 
L 514.017336 290.186117 
L 514.357127 288.635452 
L 514.696918 286.041752 
L 515.036708 292.580884 
L 515.376499 294.166558 
L 515.71629 291.24364 
L 516.395871 292.270669 
L 516.735662 287.039125 
L 517.075452 286.154818 
L 517.415243 290.688913 
L 517.755034 287.743663 
L 518.094824 291.540887 
L 518.434615 290.463211 
L 518.774406 290.683563 
L 519.114196 291.055707 
L 519.453987 289.12667 
L 519.793778 293.049704 
L 520.133568 290.131576 
L 520.473359 292.027895 
L 520.81315 290.301419 
L 521.15294 291.699945 
L 521.492731 291.901678 
L 521.832522 290.507334 
L 522.172312 291.803582 
L 522.172312 291.803582 
" clip-path="url(#pd0cf717775)" style="fill: none; stroke: #ffa500; stroke-width: 1.5; stroke-linecap: square"/>
   </g>
   <g id="line2d_20">
    <path d="M 165.052313 115.493808 
L 165.392103 128.578673 
L 165.731894 134.697104 
L 166.411475 140.874585 
L 167.091057 143.940174 
L 167.430847 144.167371 
L 167.770638 145.223442 
L 168.110429 145.217908 
L 168.79001 146.511008 
L 169.129801 146.182638 
L 169.469591 147.216642 
L 169.809382 147.626247 
L 170.149173 147.228628 
L 170.488963 147.99005 
L 170.828754 147.984563 
L 171.168545 147.407822 
L 171.508335 147.392408 
L 171.848126 148.009713 
L 172.187917 148.214438 
L 172.527707 147.598026 
L 172.867498 147.958794 
L 173.207289 147.716076 
L 173.547079 147.798966 
L 174.566451 147.302781 
L 174.906242 146.050019 
L 175.246033 145.414658 
L 175.585823 147.050065 
L 175.925614 145.638415 
L 176.265405 145.584401 
L 176.605195 146.329386 
L 176.944986 146.246639 
L 177.624567 145.001006 
L 177.964358 144.18732 
L 178.304149 145.46666 
L 178.64394 145.458876 
L 178.98373 144.220159 
L 179.323521 143.891231 
L 179.663312 145.291264 
L 180.003102 144.293801 
L 180.342893 144.472411 
L 180.682684 143.487042 
L 181.022474 144.314333 
L 181.362265 144.330842 
L 182.041846 143.865473 
L 182.381637 142.729904 
L 183.061218 142.574968 
L 183.401009 142.008689 
L 183.7408 142.196953 
L 184.420381 140.901401 
L 185.099962 140.149382 
L 185.439753 141.428104 
L 185.779544 141.099949 
L 186.119334 141.242899 
L 186.459125 140.761236 
L 186.798916 140.875668 
L 187.138706 140.154512 
L 187.478497 139.778044 
L 187.818288 139.081408 
L 188.158078 138.105394 
L 188.497869 138.954276 
L 188.83766 139.10907 
L 189.17745 138.963465 
L 189.517241 137.893135 
L 189.857032 137.833312 
L 190.196822 138.001056 
L 190.536613 137.894587 
L 190.876404 137.656058 
L 191.216195 135.948807 
L 191.555985 136.044111 
L 191.895776 137.329712 
L 192.575357 136.846443 
L 192.915148 137.013436 
L 193.254939 135.969815 
L 193.594729 135.5497 
L 193.93452 135.435781 
L 194.274311 134.371342 
L 194.614101 135.837137 
L 194.953892 135.459955 
L 195.293683 133.91102 
L 195.633473 133.815704 
L 195.973264 134.459064 
L 196.313055 134.642686 
L 196.652845 133.741455 
L 196.992636 134.612024 
L 197.332427 133.807074 
L 197.672217 133.529577 
L 198.012008 133.80836 
L 198.691589 131.727509 
L 199.371171 132.511392 
L 199.710961 132.091717 
L 200.050752 132.208613 
L 200.390543 130.994046 
L 200.730333 131.608769 
L 201.070124 130.892862 
L 201.749705 128.588802 
L 202.089496 130.16466 
L 202.429287 130.199095 
L 202.769077 130.368897 
L 203.448659 129.063859 
L 203.78845 130.255632 
L 204.12824 128.237151 
L 204.468031 128.9846 
L 204.807822 128.94963 
L 205.147612 128.223785 
L 205.487403 128.239472 
L 205.827194 123.318075 
L 206.166984 127.525815 
L 206.506775 127.451626 
L 206.846566 125.788236 
L 207.186356 127.355334 
L 207.526147 126.96819 
L 207.865938 125.966109 
L 208.205728 126.475267 
L 208.545519 125.845809 
L 208.88531 126.100834 
L 209.2251 123.696447 
L 209.564891 125.481482 
L 209.904682 125.555623 
L 210.244472 125.029825 
L 210.584263 123.791049 
L 210.924054 124.028506 
L 211.263844 122.518719 
L 211.603635 125.131343 
L 211.943426 123.567827 
L 212.283216 124.219103 
L 212.623007 123.201179 
L 212.962798 123.255538 
L 213.302588 123.106494 
L 213.642379 123.483057 
L 213.98217 122.061825 
L 214.32196 122.488344 
L 214.661751 122.247828 
L 215.001542 123.35195 
L 215.341332 121.236403 
L 216.020914 122.709554 
L 216.360705 120.875849 
L 216.700495 120.772713 
L 217.040286 121.263017 
L 217.380077 121.124102 
L 217.719867 119.902263 
L 218.059658 121.131291 
L 218.399449 121.232201 
L 218.739239 119.643952 
L 219.07903 120.066638 
L 219.418821 119.904965 
L 219.758611 118.585536 
L 220.098402 119.776024 
L 220.438193 118.604342 
L 220.777983 118.98594 
L 221.117774 117.924679 
L 221.457565 118.392869 
L 221.797355 118.437908 
L 222.137146 117.144832 
L 222.476937 118.942412 
L 223.156518 115.922921 
L 223.496309 117.824209 
L 223.836099 117.693983 
L 224.17589 117.436565 
L 224.515681 117.483437 
L 224.855471 114.764702 
L 225.195262 114.796018 
L 225.535053 116.983016 
L 225.874843 117.304565 
L 226.214634 116.256921 
L 226.894215 115.001552 
L 227.573797 115.498212 
L 227.913587 113.333746 
L 228.253378 114.915615 
L 228.593169 113.072841 
L 228.93296 115.307199 
L 229.27275 114.259234 
L 229.612541 113.888229 
L 229.952332 114.405469 
L 230.292122 113.353397 
L 230.631913 113.089266 
L 230.971704 113.255367 
L 231.311494 110.44222 
L 231.651285 114.179081 
L 231.991076 113.393176 
L 232.330866 111.867582 
L 232.670657 113.029979 
L 233.010448 113.791437 
L 233.350238 109.980089 
L 233.690029 112.511966 
L 234.02982 110.268609 
L 234.36961 112.298207 
L 234.709401 112.50136 
L 235.049192 110.271894 
L 235.388982 112.262189 
L 235.728773 111.869367 
L 236.068564 109.320137 
L 236.408354 111.688257 
L 236.748145 109.776245 
L 237.087936 110.459622 
L 237.427726 107.919818 
L 237.767517 111.474915 
L 238.107308 108.959607 
L 238.447098 110.500543 
L 238.786889 108.406302 
L 239.12668 108.319508 
L 239.46647 109.78103 
L 239.806261 110.085261 
L 240.146052 109.741609 
L 240.485842 108.398732 
L 240.825633 109.344418 
L 241.165424 107.240441 
L 241.505214 109.012978 
L 241.845005 108.784162 
L 242.184796 108.71746 
L 242.524587 109.161356 
L 242.864377 107.905131 
L 243.204168 107.596829 
L 243.543959 108.37695 
L 243.883749 107.864876 
L 244.22354 105.81277 
L 244.563331 108.791875 
L 244.903121 108.138803 
L 245.242912 105.928583 
L 245.582703 108.189674 
L 246.262284 106.46789 
L 246.602075 106.605294 
L 246.941865 106.09391 
L 247.281656 107.599709 
L 247.621447 105.318383 
L 247.961237 106.719464 
L 248.301028 106.284566 
L 248.640819 106.680804 
L 249.3204 103.402824 
L 249.660191 105.442218 
L 249.999981 105.646062 
L 250.679563 104.778052 
L 251.019353 105.464881 
L 251.359144 104.779647 
L 251.698935 103.810584 
L 252.038725 105.043837 
L 252.378516 105.219734 
L 252.718307 104.420569 
L 253.058097 103.10614 
L 253.397888 103.340597 
L 253.737679 104.000859 
L 254.077469 104.377624 
L 254.41726 104.086582 
L 254.757051 101.306084 
L 255.096842 103.922207 
L 255.776423 102.287502 
L 256.116214 103.751452 
L 256.456004 103.119375 
L 256.795795 103.672871 
L 257.135586 103.556082 
L 257.475376 102.648556 
L 257.815167 102.67924 
L 258.154958 102.28624 
L 258.494748 102.323757 
L 258.834539 101.11169 
L 259.17433 101.883694 
L 259.51412 102.059495 
L 259.853911 102.502939 
L 260.193702 101.206792 
L 260.533492 100.613494 
L 260.873283 101.981914 
L 261.213074 98.791633 
L 261.552864 101.166633 
L 262.232446 101.033871 
L 262.572236 100.530604 
L 262.912027 100.935912 
L 263.251818 101.018516 
L 263.591608 99.207629 
L 263.931399 101.595031 
L 264.27119 101.743171 
L 264.61098 98.14025 
L 264.950771 99.783216 
L 265.290562 99.250407 
L 265.970143 99.992106 
L 266.309934 99.203463 
L 266.649724 100.410436 
L 266.989515 94.673733 
L 267.329306 98.32536 
L 267.669097 98.700506 
L 268.008887 99.776788 
L 268.348678 98.990644 
L 268.688469 99.046158 
L 269.36805 98.179648 
L 269.707841 96.646877 
L 270.047631 93.631564 
L 270.387422 98.291747 
L 270.727213 96.264446 
L 271.067003 98.063597 
L 271.406794 96.754643 
L 271.746585 98.398442 
L 272.086375 97.460182 
L 272.765957 97.368532 
L 273.105747 97.019333 
L 273.445538 97.218583 
L 274.125119 95.162454 
L 274.46491 91.971506 
L 274.804701 97.43502 
L 275.144491 97.309614 
L 275.484282 96.548776 
L 275.824073 97.05866 
L 276.163863 93.77042 
L 276.503654 96.359524 
L 276.843445 96.02287 
L 277.183235 93.773753 
L 277.523026 93.091899 
L 277.862817 96.409467 
L 278.202607 96.688798 
L 278.542398 94.932353 
L 278.882189 95.441452 
L 279.56177 93.911775 
L 279.901561 92.467036 
L 280.241352 95.892227 
L 280.581142 94.935757 
L 280.920933 94.584368 
L 281.600514 94.377739 
L 281.940305 94.580797 
L 282.280096 93.513109 
L 282.619886 95.746539 
L 282.959677 93.648037 
L 283.299468 94.694039 
L 283.639258 94.813708 
L 283.979049 94.342102 
L 284.31884 94.323487 
L 284.65863 93.961838 
L 284.998421 94.832895 
L 285.338212 94.16342 
L 285.678002 95.220277 
L 286.017793 92.983205 
L 286.357584 93.438527 
L 286.697374 92.322038 
L 287.037165 92.80638 
L 287.376956 92.383646 
L 287.716746 94.270496 
L 288.056537 93.783751 
L 288.396328 92.028663 
L 288.736118 92.564661 
L 289.075909 88.522319 
L 289.4157 91.971435 
L 289.75549 92.994584 
L 290.095281 92.528311 
L 290.435072 91.819391 
L 290.774862 91.959223 
L 291.114653 91.186101 
L 291.454444 91.969816 
L 291.794234 90.194446 
L 292.134025 90.85197 
L 292.473816 92.409975 
L 293.493188 90.047354 
L 293.832979 90.554667 
L 294.172769 90.709187 
L 294.51256 91.548107 
L 294.852351 92.066037 
L 295.531932 90.597159 
L 295.871723 88.996781 
L 296.211513 89.262305 
L 296.551304 91.164866 
L 296.891095 90.886179 
L 297.230885 90.958904 
L 297.570676 89.382569 
L 297.910467 88.83543 
L 298.250257 88.909845 
L 298.590048 89.592674 
L 298.929839 88.89411 
L 299.269629 90.147312 
L 299.60942 89.258472 
L 299.949211 89.591079 
L 300.289001 90.109985 
L 300.628792 88.875446 
L 300.968583 88.196259 
L 301.308373 88.275888 
L 301.648164 88.208805 
L 301.987955 88.826812 
L 302.327745 86.694483 
L 302.667536 87.955231 
L 303.007327 85.610345 
L 303.347117 87.441372 
L 303.686908 88.225706 
L 304.366489 85.53474 
L 305.046071 86.434887 
L 305.385862 86.080927 
L 305.725652 88.616207 
L 306.065443 88.204853 
L 306.405234 88.417862 
L 306.745024 87.766718 
L 307.084815 88.657938 
L 307.424606 88.115679 
L 307.764396 87.825231 
L 308.104187 88.436216 
L 308.443978 87.916834 
L 308.783768 87.9449 
L 309.123559 89.042321 
L 309.80314 87.434206 
L 310.482722 87.574324 
L 310.822512 86.162341 
L 311.162303 87.543115 
L 311.502094 86.852288 
L 311.841884 87.142569 
L 312.181675 86.932773 
L 312.521466 85.487558 
L 312.861256 85.780362 
L 313.201047 83.07785 
L 313.540838 85.517505 
L 313.880628 86.206666 
L 314.220419 86.127966 
L 314.56021 87.004736 
L 314.9 85.682356 
L 315.239791 86.854144 
L 315.579582 84.926921 
L 315.919372 85.112125 
L 316.259163 85.702209 
L 316.598954 84.84684 
L 316.938744 86.642278 
L 317.278535 85.45604 
L 317.618326 83.750157 
L 318.297907 85.263979 
L 318.637698 84.389946 
L 319.317279 85.397836 
L 319.65707 83.995756 
L 320.336651 85.490557 
L 320.676442 85.582398 
L 321.016233 86.078951 
L 321.356023 84.82244 
L 321.695814 84.276633 
L 322.035605 83.111391 
L 322.375395 85.709875 
L 322.715186 85.317088 
L 323.054977 82.596865 
L 323.394767 84.581078 
L 323.734558 84.802396 
L 324.074349 83.378962 
L 324.414139 80.705802 
L 325.093721 82.630121 
L 325.433511 83.169548 
L 325.773302 83.998874 
L 326.113093 83.499893 
L 326.452883 83.973736 
L 326.792674 82.221671 
L 327.132465 83.44933 
L 327.472255 82.646309 
L 327.812046 82.954967 
L 328.151837 82.349267 
L 328.491627 83.101941 
L 328.831418 83.494513 
L 329.171209 81.453405 
L 329.510999 83.381557 
L 329.85079 83.08392 
L 330.190581 81.524297 
L 330.530371 77.871718 
L 331.209953 83.920531 
L 331.549744 82.737816 
L 332.229325 79.671584 
L 332.569116 79.745427 
L 332.908906 79.283487 
L 333.588488 82.169514 
L 333.928278 82.021874 
L 334.268069 82.41854 
L 334.60786 82.509714 
L 334.94765 81.297362 
L 335.287441 81.37311 
L 335.627232 81.891754 
L 335.967022 80.496268 
L 336.646604 82.170371 
L 336.986394 82.221409 
L 337.326185 81.215948 
L 337.665976 82.550707 
L 338.345557 81.511632 
L 338.685348 82.266591 
L 339.364929 78.946143 
L 340.04451 81.454738 
L 340.724092 79.555533 
L 341.743464 81.74728 
L 342.083254 80.368958 
L 342.423045 80.147879 
L 342.762836 80.55421 
L 343.102626 79.893948 
L 343.442417 80.106315 
L 343.782208 80.141904 
L 344.121999 80.055562 
L 344.461789 78.90027 
L 345.141371 79.412916 
L 345.481161 79.970601 
L 345.820952 79.849766 
L 346.160743 79.124159 
L 346.500533 80.676545 
L 346.840324 80.012903 
L 347.180115 79.594859 
L 347.519905 79.366686 
L 347.859696 78.162904 
L 348.199487 77.964416 
L 348.539277 79.566769 
L 348.879068 79.719646 
L 349.218859 78.502818 
L 349.558649 79.078024 
L 349.89844 78.943382 
L 350.238231 79.924538 
L 350.917812 77.82206 
L 351.257603 78.009098 
L 351.597393 79.466192 
L 351.937184 77.405064 
L 352.276975 77.607004 
L 352.616765 78.492249 
L 352.956556 78.588089 
L 353.296347 77.635856 
L 353.636137 77.652043 
L 353.975928 77.974676 
L 354.315719 78.951214 
L 354.655509 78.742132 
L 354.9953 75.018328 
L 355.335091 77.672635 
L 355.674881 78.770841 
L 356.014672 78.201444 
L 356.354463 78.042521 
L 356.694254 78.359701 
L 357.034044 76.106489 
L 357.713626 77.765356 
L 358.053416 76.923961 
L 358.393207 78.832949 
L 358.732998 78.136123 
L 359.072788 77.027132 
L 359.412579 77.52628 
L 359.75237 76.520486 
L 360.431951 75.839799 
L 360.771742 76.375107 
L 361.111532 77.662065 
L 361.791114 75.946542 
L 362.130904 77.023681 
L 362.470695 77.356144 
L 362.810486 76.637108 
L 363.150276 76.952075 
L 363.490067 74.133464 
L 363.829858 75.53026 
L 364.84923 75.422898 
L 365.18902 75.118215 
L 365.528811 76.281457 
L 365.868602 75.96392 
L 366.208392 76.765751 
L 366.548183 76.529556 
L 367.227764 76.724996 
L 367.567555 75.315156 
L 367.907346 75.767836 
L 368.247136 75.725891 
L 368.586927 76.285338 
L 368.926718 76.137626 
L 369.266509 76.200639 
L 369.606299 75.265284 
L 369.94609 71.210016 
L 370.285881 76.753777 
L 370.625671 76.521105 
L 370.965462 76.131008 
L 371.305253 75.292541 
L 371.984834 75.648667 
L 372.324625 75.91988 
L 372.664415 74.962815 
L 373.343997 75.543686 
L 373.683787 74.438742 
L 374.023578 75.981488 
L 374.363369 75.679566 
L 374.703159 75.648738 
L 375.382741 73.547546 
L 376.062322 74.430101 
L 376.402113 74.191739 
L 376.741903 74.677937 
L 377.081694 74.02915 
L 377.421485 75.496028 
L 377.761275 75.730533 
L 378.101066 74.599499 
L 378.780647 75.238598 
L 379.120438 75.777977 
L 379.460229 74.523656 
L 379.800019 75.137902 
L 380.13981 74.602142 
L 380.819391 74.736046 
L 381.159182 74.299958 
L 381.498973 74.1442 
L 381.838763 71.698023 
L 382.518345 73.726657 
L 382.858136 72.843673 
L 383.197926 73.570471 
L 383.537717 72.537728 
L 383.877508 74.341117 
L 384.217298 74.321716 
L 384.557089 72.921231 
L 384.89688 72.494189 
L 385.23667 73.218677 
L 385.576461 72.790207 
L 385.916252 71.938075 
L 386.256042 73.57785 
L 386.935624 72.609096 
L 387.275414 72.823843 
L 387.615205 73.549308 
L 388.294786 71.979258 
L 388.634577 73.850253 
L 388.974368 71.978044 
L 389.314158 72.171747 
L 389.653949 73.053611 
L 389.99374 72.446888 
L 390.33353 73.925407 
L 390.673321 74.526631 
L 391.013112 71.832427 
L 391.352902 70.460437 
L 391.692693 72.461909 
L 392.032484 69.957766 
L 392.372274 73.775981 
L 392.712065 73.45242 
L 393.051856 72.187577 
L 393.391646 69.040003 
L 393.731437 71.351609 
L 394.071228 70.903928 
L 394.411018 73.841326 
L 394.750809 73.28107 
L 395.0906 71.454805 
L 395.430391 71.052592 
L 395.770181 71.582925 
L 396.109972 71.520031 
L 396.449763 72.538347 
L 396.789553 72.525254 
L 397.469135 71.014003 
L 397.808925 71.172737 
L 398.148716 70.069126 
L 398.488507 71.244557 
L 398.828297 71.613633 
L 399.168088 70.906118 
L 399.507879 70.560252 
L 399.847669 71.697213 
L 400.18746 70.544945 
L 400.527251 71.695095 
L 400.867041 70.572821 
L 401.206832 72.309817 
L 401.886413 72.019203 
L 402.226204 72.249923 
L 402.565995 70.674874 
L 402.905785 71.062971 
L 403.585367 72.29751 
L 403.925157 70.434084 
L 404.264948 70.675755 
L 404.604739 69.582024 
L 405.28432 71.584067 
L 405.624111 71.583901 
L 405.963901 70.942659 
L 406.303692 71.45271 
L 406.643483 71.262125 
L 406.983273 69.910203 
L 407.323064 70.408494 
L 407.662855 69.218661 
L 408.002646 70.726793 
L 408.342436 70.094408 
L 408.682227 70.793258 
L 409.701599 71.252532 
L 410.04139 70.899905 
L 410.38118 70.217076 
L 410.720971 71.097417 
L 411.060762 69.850309 
L 411.400552 70.776808 
L 411.740343 70.505357 
L 412.080134 69.970025 
L 412.419924 71.414598 
L 412.759715 70.904309 
L 413.099506 69.431432 
L 413.439296 70.973558 
L 413.779087 70.280088 
L 414.118878 68.961374 
L 414.458668 70.673898 
L 414.798459 69.849428 
L 415.13825 70.871243 
L 415.47804 70.045559 
L 415.817831 68.924714 
L 416.157622 68.783049 
L 416.497412 69.440668 
L 416.837203 68.129548 
L 417.176994 69.600378 
L 417.516784 69.989117 
L 418.196366 69.579453 
L 418.536156 69.498848 
L 419.215738 68.55359 
L 419.555528 70.311035 
L 419.895319 71.182259 
L 420.23511 70.130449 
L 420.574901 70.029872 
L 420.914691 67.156033 
L 421.254482 67.265371 
L 421.594273 67.698816 
L 421.934063 69.132819 
L 422.953435 69.061761 
L 423.293226 69.706692 
L 423.972807 67.623234 
L 424.312598 69.115513 
L 424.652389 68.042087 
L 424.992179 68.520668 
L 425.33197 67.577386 
L 425.671761 69.363801 
L 426.011551 69.484303 
L 426.691133 68.896171 
L 427.030923 68.37248 
L 427.370714 67.495519 
L 427.710505 67.618735 
L 428.050295 68.201963 
L 428.390086 68.261524 
L 428.729877 67.723645 
L 429.069667 69.466926 
L 429.409458 69.789129 
L 429.749249 68.086817 
L 430.089039 68.935331 
L 430.42883 68.400451 
L 430.768621 68.694565 
L 431.108411 68.757339 
L 431.787993 68.477295 
L 432.127783 67.174554 
L 432.467574 67.90535 
L 432.807365 67.445171 
L 433.147156 67.710052 
L 433.486946 69.445525 
L 433.826737 67.750902 
L 434.166528 68.470153 
L 434.506318 68.236148 
L 434.846109 68.241171 
L 435.1859 64.872541 
L 435.52569 68.346223 
L 435.865481 69.707144 
L 436.205272 66.045376 
L 436.545062 67.489282 
L 436.884853 67.66437 
L 437.224644 68.008094 
L 437.564434 67.230996 
L 437.904225 67.654181 
L 438.244016 67.174768 
L 438.583806 67.163698 
L 438.923597 67.767566 
L 439.263388 67.677201 
L 439.603178 67.815057 
L 439.942969 67.703958 
L 440.28276 68.205867 
L 440.62255 68.112741 
L 440.962341 66.267955 
L 441.302132 67.272703 
L 441.641922 67.043577 
L 441.981713 67.251206 
L 442.661294 68.206201 
L 443.001085 66.344061 
L 443.680666 67.097544 
L 444.020457 67.342285 
L 444.700038 66.132646 
L 445.039829 67.39837 
L 445.37962 66.997562 
L 445.719411 67.867095 
L 446.059201 66.064444 
L 447.078573 67.611665 
L 447.418364 66.951094 
L 447.758155 67.402251 
L 448.097945 67.44898 
L 448.437736 66.664884 
L 448.777527 67.03865 
L 449.117317 66.168926 
L 449.457108 66.480988 
L 449.796899 65.591482 
L 450.136689 65.932706 
L 450.47648 66.694307 
L 450.816271 64.686955 
L 451.156061 67.590859 
L 451.495852 65.893071 
L 451.835643 66.680024 
L 452.515224 66.259933 
L 452.855015 66.26955 
L 453.194805 66.87387 
L 453.874387 65.795207 
L 454.214177 65.604551 
L 454.553968 67.246826 
L 454.893759 66.160689 
L 455.233549 60.826271 
L 455.57334 67.025342 
L 456.252921 67.053694 
L 456.592712 66.712447 
L 456.932503 65.770736 
L 457.272293 65.626571 
L 457.612084 66.10189 
L 457.951875 66.307972 
L 458.291665 65.889238 
L 458.631456 64.228728 
L 458.971247 66.555784 
L 459.311038 65.152395 
L 459.650828 65.939348 
L 459.990619 66.290356 
L 460.33041 65.702581 
L 460.6702 65.89538 
L 461.009991 66.399384 
L 461.349782 65.478407 
L 461.689572 65.418442 
L 462.029363 65.576461 
L 462.369154 65.32434 
L 462.708944 65.286299 
L 463.048735 65.967962 
L 463.388526 65.383639 
L 463.728316 65.938991 
L 464.068107 64.944908 
L 464.407898 65.043081 
L 464.747688 65.853744 
L 465.087479 64.397983 
L 465.42727 65.313032 
L 465.76706 65.545348 
L 466.106851 64.768821 
L 466.446642 66.103723 
L 466.786432 63.745006 
L 467.126223 65.756191 
L 467.466014 65.935515 
L 467.805804 65.589959 
L 468.145595 65.576342 
L 468.485386 64.469066 
L 468.825176 65.47905 
L 469.164967 66.090892 
L 469.844548 64.861876 
L 470.184339 64.091443 
L 470.52413 64.747611 
L 471.203711 65.285133 
L 471.543502 64.500179 
L 471.883293 64.216064 
L 472.223083 65.855339 
L 472.562874 64.181522 
L 472.902665 64.116582 
L 473.242455 65.122924 
L 473.582246 64.236084 
L 474.261827 64.837499 
L 474.601618 66.316708 
L 474.941409 65.276682 
L 475.281199 65.554632 
L 475.62099 62.808604 
L 475.960781 65.75212 
L 476.300571 67.545249 
L 476.640362 60.734978 
L 476.980153 64.806172 
L 477.319943 64.402173 
L 477.659734 63.689564 
L 477.999525 64.637083 
L 478.339315 64.991781 
L 478.679106 64.079279 
L 479.018897 64.208494 
L 479.358687 63.768049 
L 479.698478 64.47735 
L 480.038269 64.175738 
L 480.378059 64.845879 
L 480.71785 64.500822 
L 481.057641 64.635607 
L 481.397431 63.984725 
L 481.737222 64.535887 
L 482.077013 64.332138 
L 482.416803 63.774429 
L 482.756594 64.610612 
L 483.096385 63.841655 
L 483.775966 64.369798 
L 484.115757 63.6699 
L 484.455548 63.926283 
L 484.795338 64.386247 
L 485.135129 64.330186 
L 485.47492 63.833061 
L 485.81471 63.079317 
L 486.154501 63.076389 
L 486.494292 65.653757 
L 486.834082 64.406886 
L 487.173873 64.330519 
L 487.513664 64.009053 
L 487.853454 64.317807 
L 488.193245 64.329305 
L 488.533036 63.563443 
L 488.872826 63.632883 
L 489.212617 64.372916 
L 489.552408 63.484958 
L 489.892198 63.954278 
L 490.231989 63.406853 
L 490.57178 64.557121 
L 490.91157 62.753399 
L 491.251361 64.184641 
L 491.591152 62.686387 
L 491.930942 63.952802 
L 492.270733 63.286327 
L 492.610524 63.927402 
L 492.950314 62.945817 
L 493.290105 63.65995 
L 493.629896 62.860166 
L 493.969686 63.352981 
L 494.309477 64.228823 
L 494.649268 63.59201 
L 495.328849 63.178656 
L 495.66864 63.386285 
L 496.00843 63.063819 
L 496.688012 63.380262 
L 497.027803 62.634492 
L 497.367593 64.186379 
L 497.707384 62.60076 
L 498.047175 63.345745 
L 498.386965 63.298158 
L 498.726756 62.631897 
L 499.066547 62.767444 
L 499.406337 62.390203 
L 499.746128 64.012148 
L 500.085919 64.876159 
L 500.425709 53.519209 
L 500.7655 64.411171 
L 501.105291 64.770678 
L 501.445081 58.698512 
L 501.784872 63.499693 
L 502.124663 63.99777 
L 502.464453 62.844645 
L 502.804244 62.84524 
L 503.144035 63.151875 
L 503.823616 62.923226 
L 504.163407 63.097385 
L 504.503197 62.861903 
L 505.182779 63.216149 
L 505.522569 63.171205 
L 505.86236 63.333461 
L 506.202151 62.781061 
L 506.541941 62.486495 
L 506.881732 62.712597 
L 507.221523 63.084768 
L 507.561313 62.291982 
L 508.240895 62.876115 
L 508.580685 62.598832 
L 508.920476 62.68246 
L 509.260267 62.452263 
L 509.600058 62.582359 
L 509.939848 62.439599 
L 510.61943 62.940342 
L 510.95922 62.600712 
L 511.299011 62.767563 
L 511.638802 62.124013 
L 511.978592 62.780942 
L 512.318383 63.008329 
L 512.658174 63.029968 
L 512.997964 62.328404 
L 513.337755 61.915098 
L 513.677546 62.552626 
L 514.017336 62.725357 
L 514.357127 62.678746 
L 514.696918 62.861118 
L 515.036708 62.093423 
L 515.71629 62.248395 
L 516.05608 62.672961 
L 516.735662 62.513276 
L 517.755034 62.110706 
L 518.094824 62.414365 
L 518.434615 62.048883 
L 518.774406 61.993751 
L 519.114196 62.130083 
L 519.453987 61.999607 
L 519.793778 62.21114 
L 520.133568 61.368602 
L 520.473359 62.324334 
L 521.15294 62.046098 
L 521.492731 61.995274 
L 521.832522 62.239468 
L 522.172312 62.261774 
L 522.172312 62.261774 
" clip-path="url(#pd0cf717775)" style="fill: none; stroke: #008000; stroke-width: 1.5; stroke-linecap: square"/>
   </g>
   <g id="patch_3">
    <path d="M 165.052313 311.6435 
L 165.052313 45.5315 
" style="fill: none; stroke: #000000; stroke-width: 0.8; stroke-linejoin: miter; stroke-linecap: square"/>
   </g>
   <g id="patch_4">
    <path d="M 522.172312 311.6435 
L 522.172312 45.5315 
" style="fill: none; stroke: #000000; stroke-width: 0.8; stroke-linejoin: miter; stroke-linecap: square"/>
   </g>
   <g id="patch_5">
    <path d="M 165.052313 311.6435 
L 522.172312 311.6435 
" style="fill: none; stroke: #000000; stroke-width: 0.8; stroke-linejoin: miter; stroke-linecap: square"/>
   </g>
   <g id="patch_6">
    <path d="M 165.052313 45.5315 
L 522.172312 45.5315 
" style="fill: none; stroke: #000000; stroke-width: 0.8; stroke-linejoin: miter; stroke-linecap: square"/>
   </g>
   <g id="text_12">
    <!-- Loss of the 21_05_25_CINIC10_torch_model_(3072+16+1)_ct -->
    <g transform="translate(7.2 25.5315) scale(0.264 -0.264)">
     <defs>
      <path id="TimesNewRomanPSMT-68" d="M 1041 4444 
L 1041 2350 
Q 1388 2731 1591 2839 
Q 1794 2947 1997 2947 
Q 2241 2947 2416 2812 
Q 2591 2678 2675 2391 
Q 2734 2191 2734 1659 
L 2734 647 
Q 2734 375 2778 275 
Q 2809 200 2884 156 
Q 2959 113 3159 113 
L 3159 0 
L 1753 0 
L 1753 113 
L 1819 113 
Q 2019 113 2097 173 
Q 2175 234 2206 353 
Q 2216 403 2216 647 
L 2216 1659 
Q 2216 2128 2167 2275 
Q 2119 2422 2012 2495 
Q 1906 2569 1756 2569 
Q 1603 2569 1437 2487 
Q 1272 2406 1041 2159 
L 1041 647 
Q 1041 353 1073 281 
Q 1106 209 1195 161 
Q 1284 113 1503 113 
L 1503 0 
L 84 0 
L 84 113 
Q 275 113 384 172 
Q 447 203 484 290 
Q 522 378 522 647 
L 522 3238 
Q 522 3728 498 3840 
Q 475 3953 426 3993 
Q 378 4034 297 4034 
Q 231 4034 84 3984 
L 41 4094 
L 897 4444 
L 1041 4444 
z
" transform="scale(0.015625)"/>
      <path id="TimesNewRomanPSMT-5f" d="M 3256 -1381 
L -53 -1381 
L -53 -1119 
L 3256 -1119 
L 3256 -1381 
z
" transform="scale(0.015625)"/>
      <path id="TimesNewRomanPSMT-43" d="M 3853 4334 
L 3950 2894 
L 3853 2894 
Q 3659 3541 3300 3825 
Q 2941 4109 2438 4109 
Q 2016 4109 1675 3895 
Q 1334 3681 1139 3212 
Q 944 2744 944 2047 
Q 944 1472 1128 1050 
Q 1313 628 1683 403 
Q 2053 178 2528 178 
Q 2941 178 3256 354 
Q 3572 531 3950 1056 
L 4047 994 
Q 3728 428 3303 165 
Q 2878 -97 2294 -97 
Q 1241 -97 663 684 
Q 231 1266 231 2053 
Q 231 2688 515 3219 
Q 800 3750 1298 4042 
Q 1797 4334 2388 4334 
Q 2847 4334 3294 4109 
Q 3425 4041 3481 4041 
Q 3566 4041 3628 4100 
Q 3709 4184 3744 4334 
L 3853 4334 
z
" transform="scale(0.015625)"/>
      <path id="TimesNewRomanPSMT-49" d="M 1975 116 
L 1975 0 
L 159 0 
L 159 116 
L 309 116 
Q 572 116 691 269 
Q 766 369 766 750 
L 766 3488 
Q 766 3809 725 3913 
Q 694 3991 597 4047 
Q 459 4122 309 4122 
L 159 4122 
L 159 4238 
L 1975 4238 
L 1975 4122 
L 1822 4122 
Q 1563 4122 1444 3969 
Q 1366 3869 1366 3488 
L 1366 750 
Q 1366 428 1406 325 
Q 1438 247 1538 191 
Q 1672 116 1822 116 
L 1975 116 
z
" transform="scale(0.015625)"/>
      <path id="TimesNewRomanPSMT-63" d="M 2631 1088 
Q 2516 522 2178 217 
Q 1841 -88 1431 -88 
Q 944 -88 581 321 
Q 219 731 219 1428 
Q 219 2103 620 2525 
Q 1022 2947 1584 2947 
Q 2006 2947 2278 2723 
Q 2550 2500 2550 2259 
Q 2550 2141 2473 2067 
Q 2397 1994 2259 1994 
Q 2075 1994 1981 2113 
Q 1928 2178 1911 2362 
Q 1894 2547 1784 2644 
Q 1675 2738 1481 2738 
Q 1169 2738 978 2506 
Q 725 2200 725 1697 
Q 725 1184 976 792 
Q 1228 400 1656 400 
Q 1963 400 2206 609 
Q 2378 753 2541 1131 
L 2631 1088 
z
" transform="scale(0.015625)"/>
      <path id="TimesNewRomanPSMT-64" d="M 2222 322 
Q 2013 103 1813 7 
Q 1613 -88 1381 -88 
Q 913 -88 563 304 
Q 213 697 213 1313 
Q 213 1928 600 2439 
Q 988 2950 1597 2950 
Q 1975 2950 2222 2709 
L 2222 3238 
Q 2222 3728 2198 3840 
Q 2175 3953 2125 3993 
Q 2075 4034 2000 4034 
Q 1919 4034 1784 3984 
L 1744 4094 
L 2597 4444 
L 2738 4444 
L 2738 1134 
Q 2738 631 2761 520 
Q 2784 409 2836 365 
Q 2888 322 2956 322 
Q 3041 322 3181 375 
L 3216 266 
L 2366 -88 
L 2222 -88 
L 2222 322 
z
M 2222 541 
L 2222 2016 
Q 2203 2228 2109 2403 
Q 2016 2578 1861 2667 
Q 1706 2756 1559 2756 
Q 1284 2756 1069 2509 
Q 784 2184 784 1559 
Q 784 928 1059 592 
Q 1334 256 1672 256 
Q 1956 256 2222 541 
z
" transform="scale(0.015625)"/>
      <path id="TimesNewRomanPSMT-6c" d="M 1184 4444 
L 1184 647 
Q 1184 378 1223 290 
Q 1263 203 1344 158 
Q 1425 113 1647 113 
L 1647 0 
L 244 0 
L 244 113 
Q 441 113 512 153 
Q 584 194 625 287 
Q 666 381 666 647 
L 666 3247 
Q 666 3731 644 3842 
Q 622 3953 573 3993 
Q 525 4034 450 4034 
Q 369 4034 244 3984 
L 191 4094 
L 1044 4444 
L 1184 4444 
z
" transform="scale(0.015625)"/>
      <path id="TimesNewRomanPSMT-28" d="M 1988 -1253 
L 1988 -1369 
Q 1516 -1131 1200 -813 
Q 750 -359 506 256 
Q 263 872 263 1534 
Q 263 2503 741 3301 
Q 1219 4100 1988 4444 
L 1988 4313 
Q 1603 4100 1356 3731 
Q 1109 3363 987 2797 
Q 866 2231 866 1616 
Q 866 947 969 400 
Q 1050 -31 1165 -292 
Q 1281 -553 1476 -793 
Q 1672 -1034 1988 -1253 
z
" transform="scale(0.015625)"/>
      <path id="TimesNewRomanPSMT-2b" d="M 1672 441 
L 1672 2000 
L 116 2000 
L 116 2256 
L 1672 2256 
L 1672 3809 
L 1922 3809 
L 1922 2256 
L 3484 2256 
L 3484 2000 
L 1922 2000 
L 1922 441 
L 1672 441 
z
" transform="scale(0.015625)"/>
      <path id="TimesNewRomanPSMT-36" d="M 2869 4325 
L 2869 4209 
Q 2456 4169 2195 4045 
Q 1934 3922 1679 3669 
Q 1425 3416 1258 3105 
Q 1091 2794 978 2366 
Q 1428 2675 1881 2675 
Q 2316 2675 2634 2325 
Q 2953 1975 2953 1425 
Q 2953 894 2631 456 
Q 2244 -75 1606 -75 
Q 1172 -75 869 213 
Q 275 772 275 1663 
Q 275 2231 503 2743 
Q 731 3256 1154 3653 
Q 1578 4050 1965 4187 
Q 2353 4325 2688 4325 
L 2869 4325 
z
M 925 2138 
Q 869 1716 869 1456 
Q 869 1156 980 804 
Q 1091 453 1309 247 
Q 1469 100 1697 100 
Q 1969 100 2183 356 
Q 2397 613 2397 1088 
Q 2397 1622 2184 2012 
Q 1972 2403 1581 2403 
Q 1463 2403 1327 2353 
Q 1191 2303 925 2138 
z
" transform="scale(0.015625)"/>
      <path id="TimesNewRomanPSMT-29" d="M 144 4313 
L 144 4444 
Q 619 4209 934 3891 
Q 1381 3434 1625 2820 
Q 1869 2206 1869 1541 
Q 1869 572 1392 -226 
Q 916 -1025 144 -1369 
L 144 -1253 
Q 528 -1038 776 -670 
Q 1025 -303 1145 264 
Q 1266 831 1266 1447 
Q 1266 2113 1163 2663 
Q 1084 3094 967 3353 
Q 850 3613 656 3853 
Q 463 4094 144 4313 
z
" transform="scale(0.015625)"/>
     </defs>
     <use xlink:href="#TimesNewRomanPSMT-4c"/>
     <use xlink:href="#TimesNewRomanPSMT-6f" transform="translate(61.083984 0)"/>
     <use xlink:href="#TimesNewRomanPSMT-73" transform="translate(111.083984 0)"/>
     <use xlink:href="#TimesNewRomanPSMT-73" transform="translate(150 0)"/>
     <use xlink:href="#TimesNewRomanPSMT-20" transform="translate(188.916016 0)"/>
     <use xlink:href="#TimesNewRomanPSMT-6f" transform="translate(213.916016 0)"/>
     <use xlink:href="#TimesNewRomanPSMT-66" transform="translate(263.916016 0)"/>
     <use xlink:href="#TimesNewRomanPSMT-20" transform="translate(297.216797 0)"/>
     <use xlink:href="#TimesNewRomanPSMT-74" transform="translate(322.216797 0)"/>
     <use xlink:href="#TimesNewRomanPSMT-68" transform="translate(350 0)"/>
     <use xlink:href="#TimesNewRomanPSMT-65" transform="translate(400 0)"/>
     <use xlink:href="#TimesNewRomanPSMT-20" transform="translate(444.384766 0)"/>
     <use xlink:href="#TimesNewRomanPSMT-32" transform="translate(469.384766 0)"/>
     <use xlink:href="#TimesNewRomanPSMT-31" transform="translate(519.384766 0)"/>
     <use xlink:href="#TimesNewRomanPSMT-5f" transform="translate(569.384766 0)"/>
     <use xlink:href="#TimesNewRomanPSMT-30" transform="translate(619.384766 0)"/>
     <use xlink:href="#TimesNewRomanPSMT-35" transform="translate(669.384766 0)"/>
     <use xlink:href="#TimesNewRomanPSMT-5f" transform="translate(719.384766 0)"/>
     <use xlink:href="#TimesNewRomanPSMT-32" transform="translate(769.384766 0)"/>
     <use xlink:href="#TimesNewRomanPSMT-35" transform="translate(819.384766 0)"/>
     <use xlink:href="#TimesNewRomanPSMT-5f" transform="translate(869.384766 0)"/>
     <use xlink:href="#TimesNewRomanPSMT-43" transform="translate(919.384766 0)"/>
     <use xlink:href="#TimesNewRomanPSMT-49" transform="translate(986.083984 0)"/>
     <use xlink:href="#TimesNewRomanPSMT-4e" transform="translate(1019.384766 0)"/>
     <use xlink:href="#TimesNewRomanPSMT-49" transform="translate(1091.601562 0)"/>
     <use xlink:href="#TimesNewRomanPSMT-43" transform="translate(1124.902344 0)"/>
     <use xlink:href="#TimesNewRomanPSMT-31" transform="translate(1191.601562 0)"/>
     <use xlink:href="#TimesNewRomanPSMT-30" transform="translate(1241.601562 0)"/>
     <use xlink:href="#TimesNewRomanPSMT-5f" transform="translate(1291.601562 0)"/>
     <use xlink:href="#TimesNewRomanPSMT-74" transform="translate(1341.601562 0)"/>
     <use xlink:href="#TimesNewRomanPSMT-6f" transform="translate(1369.384766 0)"/>
     <use xlink:href="#TimesNewRomanPSMT-72" transform="translate(1419.384766 0)"/>
     <use xlink:href="#TimesNewRomanPSMT-63" transform="translate(1452.685547 0)"/>
     <use xlink:href="#TimesNewRomanPSMT-68" transform="translate(1497.070312 0)"/>
     <use xlink:href="#TimesNewRomanPSMT-5f" transform="translate(1547.070312 0)"/>
     <use xlink:href="#TimesNewRomanPSMT-6d" transform="translate(1597.070312 0)"/>
     <use xlink:href="#TimesNewRomanPSMT-6f" transform="translate(1674.853516 0)"/>
     <use xlink:href="#TimesNewRomanPSMT-64" transform="translate(1724.853516 0)"/>
     <use xlink:href="#TimesNewRomanPSMT-65" transform="translate(1774.853516 0)"/>
     <use xlink:href="#TimesNewRomanPSMT-6c" transform="translate(1819.238281 0)"/>
     <use xlink:href="#TimesNewRomanPSMT-5f" transform="translate(1847.021484 0)"/>
     <use xlink:href="#TimesNewRomanPSMT-28" transform="translate(1897.021484 0)"/>
     <use xlink:href="#TimesNewRomanPSMT-33" transform="translate(1930.322266 0)"/>
     <use xlink:href="#TimesNewRomanPSMT-30" transform="translate(1980.322266 0)"/>
     <use xlink:href="#TimesNewRomanPSMT-37" transform="translate(2030.322266 0)"/>
     <use xlink:href="#TimesNewRomanPSMT-32" transform="translate(2080.322266 0)"/>
     <use xlink:href="#TimesNewRomanPSMT-2b" transform="translate(2130.322266 0)"/>
     <use xlink:href="#TimesNewRomanPSMT-31" transform="translate(2186.71875 0)"/>
     <use xlink:href="#TimesNewRomanPSMT-36" transform="translate(2236.71875 0)"/>
     <use xlink:href="#TimesNewRomanPSMT-2b" transform="translate(2286.71875 0)"/>
     <use xlink:href="#TimesNewRomanPSMT-31" transform="translate(2343.115234 0)"/>
     <use xlink:href="#TimesNewRomanPSMT-29" transform="translate(2393.115234 0)"/>
     <use xlink:href="#TimesNewRomanPSMT-5f" transform="translate(2426.416016 0)"/>
     <use xlink:href="#TimesNewRomanPSMT-63" transform="translate(2476.416016 0)"/>
     <use xlink:href="#TimesNewRomanPSMT-74" transform="translate(2520.800781 0)"/>
    </g>
   </g>
   <g id="legend_1">
    <g id="patch_7">
     <path d="M 306.214812 213.014062 
L 506.772312 213.014062 
Q 511.172312 213.014062 511.172312 208.614062 
L 511.172312 148.560937 
Q 511.172312 144.160937 506.772312 144.160937 
L 306.214812 144.160937 
Q 301.814812 144.160937 301.814812 148.560937 
L 301.814812 208.614062 
Q 301.814812 213.014062 306.214812 213.014062 
z
" style="fill: #ffffff; opacity: 0.8; stroke: #cccccc; stroke-linejoin: miter"/>
    </g>
    <g id="line2d_21">
     <path d="M 310.614812 160.660937 
L 332.614812 160.660937 
L 354.614812 160.660937 
" style="fill: none; stroke: #ffa500; stroke-width: 1.5; stroke-linecap: square"/>
    </g>
    <g id="text_13">
     <!-- Training loss -->
     <g transform="translate(372.214812 168.360937) scale(0.22 -0.22)">
      <defs>
       <path id="TimesNewRomanPSMT-54" d="M 3703 4238 
L 3750 3244 
L 3631 3244 
Q 3597 3506 3538 3619 
Q 3441 3800 3280 3886 
Q 3119 3972 2856 3972 
L 2259 3972 
L 2259 734 
Q 2259 344 2344 247 
Q 2463 116 2709 116 
L 2856 116 
L 2856 0 
L 1059 0 
L 1059 116 
L 1209 116 
Q 1478 116 1591 278 
Q 1659 378 1659 734 
L 1659 3972 
L 1150 3972 
Q 853 3972 728 3928 
Q 566 3869 450 3700 
Q 334 3531 313 3244 
L 194 3244 
L 244 4238 
L 3703 4238 
z
" transform="scale(0.015625)"/>
       <path id="TimesNewRomanPSMT-67" d="M 966 1044 
Q 703 1172 562 1401 
Q 422 1631 422 1909 
Q 422 2334 742 2640 
Q 1063 2947 1563 2947 
Q 1972 2947 2272 2747 
L 2878 2747 
Q 3013 2747 3034 2739 
Q 3056 2731 3066 2713 
Q 3084 2684 3084 2613 
Q 3084 2531 3069 2500 
Q 3059 2484 3036 2475 
Q 3013 2466 2878 2466 
L 2506 2466 
Q 2681 2241 2681 1891 
Q 2681 1491 2375 1206 
Q 2069 922 1553 922 
Q 1341 922 1119 984 
Q 981 866 932 777 
Q 884 688 884 625 
Q 884 572 936 522 
Q 988 472 1138 450 
Q 1225 438 1575 428 
Q 2219 413 2409 384 
Q 2700 344 2873 169 
Q 3047 -6 3047 -263 
Q 3047 -616 2716 -925 
Q 2228 -1381 1444 -1381 
Q 841 -1381 425 -1109 
Q 191 -953 191 -784 
Q 191 -709 225 -634 
Q 278 -519 444 -313 
Q 466 -284 763 25 
Q 600 122 533 198 
Q 466 275 466 372 
Q 466 481 555 628 
Q 644 775 966 1044 
z
M 1509 2797 
Q 1278 2797 1122 2612 
Q 966 2428 966 2047 
Q 966 1553 1178 1281 
Q 1341 1075 1591 1075 
Q 1828 1075 1981 1253 
Q 2134 1431 2134 1813 
Q 2134 2309 1919 2591 
Q 1759 2797 1509 2797 
z
M 934 0 
Q 788 -159 713 -296 
Q 638 -434 638 -550 
Q 638 -700 819 -813 
Q 1131 -1006 1722 -1006 
Q 2284 -1006 2551 -807 
Q 2819 -609 2819 -384 
Q 2819 -222 2659 -153 
Q 2497 -84 2016 -72 
Q 1313 -53 934 0 
z
" transform="scale(0.015625)"/>
      </defs>
      <use xlink:href="#TimesNewRomanPSMT-54"/>
      <use xlink:href="#TimesNewRomanPSMT-72" transform="translate(57.583984 0)"/>
      <use xlink:href="#TimesNewRomanPSMT-61" transform="translate(90.884766 0)"/>
      <use xlink:href="#TimesNewRomanPSMT-69" transform="translate(135.269531 0)"/>
      <use xlink:href="#TimesNewRomanPSMT-6e" transform="translate(163.052734 0)"/>
      <use xlink:href="#TimesNewRomanPSMT-69" transform="translate(213.052734 0)"/>
      <use xlink:href="#TimesNewRomanPSMT-6e" transform="translate(240.835938 0)"/>
      <use xlink:href="#TimesNewRomanPSMT-67" transform="translate(290.835938 0)"/>
      <use xlink:href="#TimesNewRomanPSMT-20" transform="translate(340.835938 0)"/>
      <use xlink:href="#TimesNewRomanPSMT-6c" transform="translate(365.835938 0)"/>
      <use xlink:href="#TimesNewRomanPSMT-6f" transform="translate(393.619141 0)"/>
      <use xlink:href="#TimesNewRomanPSMT-73" transform="translate(443.619141 0)"/>
      <use xlink:href="#TimesNewRomanPSMT-73" transform="translate(482.535156 0)"/>
     </g>
    </g>
    <g id="line2d_22">
     <path d="M 310.614812 191.808125 
L 332.614812 191.808125 
L 354.614812 191.808125 
" style="fill: none; stroke: #008000; stroke-width: 1.5; stroke-linecap: square"/>
    </g>
    <g id="text_14">
     <!-- Validation loss -->
     <g transform="translate(372.214812 199.508125) scale(0.22 -0.22)">
      <defs>
       <path id="TimesNewRomanPSMT-56" d="M 4544 4238 
L 4544 4122 
Q 4319 4081 4203 3978 
Q 4038 3825 3909 3509 
L 2431 -97 
L 2316 -97 
L 728 3556 
Q 606 3838 556 3900 
Q 478 3997 364 4051 
Q 250 4106 56 4122 
L 56 4238 
L 1788 4238 
L 1788 4122 
Q 1494 4094 1406 4022 
Q 1319 3950 1319 3838 
Q 1319 3681 1463 3350 
L 2541 866 
L 3541 3319 
Q 3688 3681 3688 3822 
Q 3688 3913 3597 3995 
Q 3506 4078 3291 4113 
Q 3275 4116 3238 4122 
L 3238 4238 
L 4544 4238 
z
" transform="scale(0.015625)"/>
      </defs>
      <use xlink:href="#TimesNewRomanPSMT-56"/>
      <use xlink:href="#TimesNewRomanPSMT-61" transform="translate(61.091797 0)"/>
      <use xlink:href="#TimesNewRomanPSMT-6c" transform="translate(105.476562 0)"/>
      <use xlink:href="#TimesNewRomanPSMT-69" transform="translate(133.259766 0)"/>
      <use xlink:href="#TimesNewRomanPSMT-64" transform="translate(161.042969 0)"/>
      <use xlink:href="#TimesNewRomanPSMT-61" transform="translate(211.042969 0)"/>
      <use xlink:href="#TimesNewRomanPSMT-74" transform="translate(255.427734 0)"/>
      <use xlink:href="#TimesNewRomanPSMT-69" transform="translate(283.210938 0)"/>
      <use xlink:href="#TimesNewRomanPSMT-6f" transform="translate(310.994141 0)"/>
      <use xlink:href="#TimesNewRomanPSMT-6e" transform="translate(360.994141 0)"/>
      <use xlink:href="#TimesNewRomanPSMT-20" transform="translate(410.994141 0)"/>
      <use xlink:href="#TimesNewRomanPSMT-6c" transform="translate(435.994141 0)"/>
      <use xlink:href="#TimesNewRomanPSMT-6f" transform="translate(463.777344 0)"/>
      <use xlink:href="#TimesNewRomanPSMT-73" transform="translate(513.777344 0)"/>
      <use xlink:href="#TimesNewRomanPSMT-73" transform="translate(552.693359 0)"/>
     </g>
    </g>
   </g>
  </g>
 </g>
 <defs>
  <clipPath id="pd0cf717775">
   <rect x="165.052313" y="45.5315" width="357.12" height="266.112"/>
  </clipPath>
 </defs>
</svg>
