<?xml version="1.0" encoding="utf-8" standalone="no"?>
<!DOCTYPE svg PUBLIC "-//W3C//DTD SVG 1.1//EN"
  "http://www.w3.org/Graphics/SVG/1.1/DTD/svg11.dtd">
<svg xmlns:xlink="http://www.w3.org/1999/xlink" width="1143.251625pt" height="369.807875pt" viewBox="0 0 1143.251625 369.807875" xmlns="http://www.w3.org/2000/svg" version="1.1">
 <metadata>
  <rdf:RDF xmlns:dc="http://purl.org/dc/elements/1.1/" xmlns:cc="http://creativecommons.org/ns#" xmlns:rdf="http://www.w3.org/1999/02/22-rdf-syntax-ns#">
   <cc:Work>
    <dc:type rdf:resource="http://purl.org/dc/dcmitype/StillImage"/>
    <dc:date>2025-07-11T20:56:07.765988</dc:date>
    <dc:format>image/svg+xml</dc:format>
    <dc:creator>
     <cc:Agent>
      <dc:title>Matplotlib v3.10.1, https://matplotlib.org/</dc:title>
     </cc:Agent>
    </dc:creator>
   </cc:Work>
  </rdf:RDF>
 </metadata>
 <defs>
  <style type="text/css">*{stroke-linejoin: round; stroke-linecap: butt}</style>
 </defs>
 <g id="figure_1">
  <g id="patch_1">
   <path d="M -0 369.807875 
L 1143.251625 369.807875 
L 1143.251625 0 
L -0 0 
z
" style="fill: #ffffff"/>
  </g>
  <g id="axes_1">
   <g id="patch_2">
    <path d="M 393.065812 311.6435 
L 750.185813 311.6435 
L 750.185813 45.5315 
L 393.065812 45.5315 
z
" style="fill: #ffffff"/>
   </g>
   <g id="matplotlib.axis_1">
    <g id="xtick_1">
     <g id="line2d_1">
      <path d="M 393.065812 311.6435 
L 393.065812 45.5315 
" clip-path="url(#p04962dbc99)" style="fill: none; stroke: #b0b0b0; stroke-opacity: 0.3; stroke-width: 0.8; stroke-linecap: square"/>
     </g>
     <g id="line2d_2">
      <defs>
       <path id="m9888700d70" d="M 0 0 
L 0 3.5 
" style="stroke: #000000; stroke-width: 0.8"/>
      </defs>
      <g>
       <use xlink:href="#m9888700d70" x="393.065812" y="311.6435" style="stroke: #000000; stroke-width: 0.8"/>
      </g>
     </g>
     <g id="text_1">
      <!-- 0 -->
      <g transform="translate(387.565812 333.91975) scale(0.22 -0.22)">
       <defs>
        <path id="TimesNewRomanPSMT-30" d="M 231 2094 
Q 231 2819 450 3342 
Q 669 3866 1031 4122 
Q 1313 4325 1613 4325 
Q 2100 4325 2488 3828 
Q 2972 3213 2972 2159 
Q 2972 1422 2759 906 
Q 2547 391 2217 158 
Q 1888 -75 1581 -75 
Q 975 -75 572 641 
Q 231 1244 231 2094 
z
M 844 2016 
Q 844 1141 1059 588 
Q 1238 122 1591 122 
Q 1759 122 1940 273 
Q 2122 425 2216 781 
Q 2359 1319 2359 2297 
Q 2359 3022 2209 3506 
Q 2097 3866 1919 4016 
Q 1791 4119 1609 4119 
Q 1397 4119 1231 3928 
Q 1006 3669 925 3112 
Q 844 2556 844 2016 
z
" transform="scale(0.015625)"/>
       </defs>
       <use xlink:href="#TimesNewRomanPSMT-30"/>
      </g>
     </g>
    </g>
    <g id="xtick_2">
     <g id="line2d_3">
      <path d="M 512.105813 311.6435 
L 512.105813 45.5315 
" clip-path="url(#p04962dbc99)" style="fill: none; stroke: #b0b0b0; stroke-opacity: 0.3; stroke-width: 0.8; stroke-linecap: square"/>
     </g>
     <g id="line2d_4">
      <g>
       <use xlink:href="#m9888700d70" x="512.105813" y="311.6435" style="stroke: #000000; stroke-width: 0.8"/>
      </g>
     </g>
     <g id="text_2">
      <!-- 10000 -->
      <g transform="translate(484.605813 333.91975) scale(0.22 -0.22)">
       <defs>
        <path id="TimesNewRomanPSMT-31" d="M 750 3822 
L 1781 4325 
L 1884 4325 
L 1884 747 
Q 1884 391 1914 303 
Q 1944 216 2037 169 
Q 2131 122 2419 116 
L 2419 0 
L 825 0 
L 825 116 
Q 1125 122 1212 167 
Q 1300 213 1334 289 
Q 1369 366 1369 747 
L 1369 3034 
Q 1369 3497 1338 3628 
Q 1316 3728 1258 3775 
Q 1200 3822 1119 3822 
Q 1003 3822 797 3725 
L 750 3822 
z
" transform="scale(0.015625)"/>
       </defs>
       <use xlink:href="#TimesNewRomanPSMT-31"/>
       <use xlink:href="#TimesNewRomanPSMT-30" transform="translate(50 0)"/>
       <use xlink:href="#TimesNewRomanPSMT-30" transform="translate(100 0)"/>
       <use xlink:href="#TimesNewRomanPSMT-30" transform="translate(150 0)"/>
       <use xlink:href="#TimesNewRomanPSMT-30" transform="translate(200 0)"/>
      </g>
     </g>
    </g>
    <g id="xtick_3">
     <g id="line2d_5">
      <path d="M 631.145813 311.6435 
L 631.145813 45.5315 
" clip-path="url(#p04962dbc99)" style="fill: none; stroke: #b0b0b0; stroke-opacity: 0.3; stroke-width: 0.8; stroke-linecap: square"/>
     </g>
     <g id="line2d_6">
      <g>
       <use xlink:href="#m9888700d70" x="631.145813" y="311.6435" style="stroke: #000000; stroke-width: 0.8"/>
      </g>
     </g>
     <g id="text_3">
      <!-- 20000 -->
      <g transform="translate(603.645813 333.91975) scale(0.22 -0.22)">
       <defs>
        <path id="TimesNewRomanPSMT-32" d="M 2934 816 
L 2638 0 
L 138 0 
L 138 116 
Q 1241 1122 1691 1759 
Q 2141 2397 2141 2925 
Q 2141 3328 1894 3587 
Q 1647 3847 1303 3847 
Q 991 3847 742 3664 
Q 494 3481 375 3128 
L 259 3128 
Q 338 3706 661 4015 
Q 984 4325 1469 4325 
Q 1984 4325 2329 3994 
Q 2675 3663 2675 3213 
Q 2675 2891 2525 2569 
Q 2294 2063 1775 1497 
Q 997 647 803 472 
L 1909 472 
Q 2247 472 2383 497 
Q 2519 522 2628 598 
Q 2738 675 2819 816 
L 2934 816 
z
" transform="scale(0.015625)"/>
       </defs>
       <use xlink:href="#TimesNewRomanPSMT-32"/>
       <use xlink:href="#TimesNewRomanPSMT-30" transform="translate(50 0)"/>
       <use xlink:href="#TimesNewRomanPSMT-30" transform="translate(100 0)"/>
       <use xlink:href="#TimesNewRomanPSMT-30" transform="translate(150 0)"/>
       <use xlink:href="#TimesNewRomanPSMT-30" transform="translate(200 0)"/>
      </g>
     </g>
    </g>
    <g id="xtick_4">
     <g id="line2d_7">
      <path d="M 750.185813 311.6435 
L 750.185813 45.5315 
" clip-path="url(#p04962dbc99)" style="fill: none; stroke: #b0b0b0; stroke-opacity: 0.3; stroke-width: 0.8; stroke-linecap: square"/>
     </g>
     <g id="line2d_8">
      <g>
       <use xlink:href="#m9888700d70" x="750.185813" y="311.6435" style="stroke: #000000; stroke-width: 0.8"/>
      </g>
     </g>
     <g id="text_4">
      <!-- 30000 -->
      <g transform="translate(722.685813 333.91975) scale(0.22 -0.22)">
       <defs>
        <path id="TimesNewRomanPSMT-33" d="M 325 3431 
Q 506 3859 782 4092 
Q 1059 4325 1472 4325 
Q 1981 4325 2253 3994 
Q 2459 3747 2459 3466 
Q 2459 3003 1878 2509 
Q 2269 2356 2469 2072 
Q 2669 1788 2669 1403 
Q 2669 853 2319 450 
Q 1863 -75 997 -75 
Q 569 -75 414 31 
Q 259 138 259 259 
Q 259 350 332 419 
Q 406 488 509 488 
Q 588 488 669 463 
Q 722 447 909 348 
Q 1097 250 1169 231 
Q 1284 197 1416 197 
Q 1734 197 1970 444 
Q 2206 691 2206 1028 
Q 2206 1275 2097 1509 
Q 2016 1684 1919 1775 
Q 1784 1900 1550 2001 
Q 1316 2103 1072 2103 
L 972 2103 
L 972 2197 
Q 1219 2228 1467 2375 
Q 1716 2522 1828 2728 
Q 1941 2934 1941 3181 
Q 1941 3503 1739 3701 
Q 1538 3900 1238 3900 
Q 753 3900 428 3381 
L 325 3431 
z
" transform="scale(0.015625)"/>
       </defs>
       <use xlink:href="#TimesNewRomanPSMT-33"/>
       <use xlink:href="#TimesNewRomanPSMT-30" transform="translate(50 0)"/>
       <use xlink:href="#TimesNewRomanPSMT-30" transform="translate(100 0)"/>
       <use xlink:href="#TimesNewRomanPSMT-30" transform="translate(150 0)"/>
       <use xlink:href="#TimesNewRomanPSMT-30" transform="translate(200 0)"/>
      </g>
     </g>
    </g>
    <g id="text_5">
     <!-- Number of iterations -->
     <g transform="translate(479.983781 357.901937) scale(0.22 -0.22)">
      <defs>
       <path id="TimesNewRomanPSMT-4e" d="M -84 4238 
L 1066 4238 
L 3656 1059 
L 3656 3503 
Q 3656 3894 3569 3991 
Q 3453 4122 3203 4122 
L 3056 4122 
L 3056 4238 
L 4531 4238 
L 4531 4122 
L 4381 4122 
Q 4113 4122 4000 3959 
Q 3931 3859 3931 3503 
L 3931 -69 
L 3819 -69 
L 1025 3344 
L 1025 734 
Q 1025 344 1109 247 
Q 1228 116 1475 116 
L 1625 116 
L 1625 0 
L 150 0 
L 150 116 
L 297 116 
Q 569 116 681 278 
Q 750 378 750 734 
L 750 3681 
Q 566 3897 470 3965 
Q 375 4034 191 4094 
Q 100 4122 -84 4122 
L -84 4238 
z
" transform="scale(0.015625)"/>
       <path id="TimesNewRomanPSMT-75" d="M 2709 2863 
L 2709 1128 
Q 2709 631 2732 520 
Q 2756 409 2807 365 
Q 2859 322 2928 322 
Q 3025 322 3147 375 
L 3191 266 
L 2334 -88 
L 2194 -88 
L 2194 519 
Q 1825 119 1631 15 
Q 1438 -88 1222 -88 
Q 981 -88 804 51 
Q 628 191 559 409 
Q 491 628 491 1028 
L 491 2306 
Q 491 2509 447 2587 
Q 403 2666 317 2708 
Q 231 2750 6 2747 
L 6 2863 
L 1009 2863 
L 1009 947 
Q 1009 547 1148 422 
Q 1288 297 1484 297 
Q 1619 297 1789 381 
Q 1959 466 2194 703 
L 2194 2325 
Q 2194 2569 2105 2655 
Q 2016 2741 1734 2747 
L 1734 2863 
L 2709 2863 
z
" transform="scale(0.015625)"/>
       <path id="TimesNewRomanPSMT-6d" d="M 1050 2338 
Q 1363 2650 1419 2697 
Q 1559 2816 1721 2881 
Q 1884 2947 2044 2947 
Q 2313 2947 2506 2790 
Q 2700 2634 2766 2338 
Q 3088 2713 3309 2830 
Q 3531 2947 3766 2947 
Q 3994 2947 4170 2830 
Q 4347 2713 4450 2447 
Q 4519 2266 4519 1878 
L 4519 647 
Q 4519 378 4559 278 
Q 4591 209 4675 161 
Q 4759 113 4950 113 
L 4950 0 
L 3538 0 
L 3538 113 
L 3597 113 
Q 3781 113 3884 184 
Q 3956 234 3988 344 
Q 4000 397 4000 647 
L 4000 1878 
Q 4000 2228 3916 2372 
Q 3794 2572 3525 2572 
Q 3359 2572 3192 2489 
Q 3025 2406 2788 2181 
L 2781 2147 
L 2788 2013 
L 2788 647 
Q 2788 353 2820 281 
Q 2853 209 2943 161 
Q 3034 113 3253 113 
L 3253 0 
L 1806 0 
L 1806 113 
Q 2044 113 2133 169 
Q 2222 225 2256 338 
Q 2272 391 2272 647 
L 2272 1878 
Q 2272 2228 2169 2381 
Q 2031 2581 1784 2581 
Q 1616 2581 1450 2491 
Q 1191 2353 1050 2181 
L 1050 647 
Q 1050 366 1089 281 
Q 1128 197 1204 155 
Q 1281 113 1516 113 
L 1516 0 
L 100 0 
L 100 113 
Q 297 113 375 155 
Q 453 197 493 289 
Q 534 381 534 647 
L 534 1741 
Q 534 2213 506 2350 
Q 484 2453 437 2492 
Q 391 2531 309 2531 
Q 222 2531 100 2484 
L 53 2597 
L 916 2947 
L 1050 2947 
L 1050 2338 
z
" transform="scale(0.015625)"/>
       <path id="TimesNewRomanPSMT-62" d="M 984 2369 
Q 1400 2947 1881 2947 
Q 2322 2947 2650 2570 
Q 2978 2194 2978 1541 
Q 2978 778 2472 313 
Q 2038 -88 1503 -88 
Q 1253 -88 995 3 
Q 738 94 469 275 
L 469 3241 
Q 469 3728 445 3840 
Q 422 3953 372 3993 
Q 322 4034 247 4034 
Q 159 4034 28 3984 
L -16 4094 
L 844 4444 
L 984 4444 
L 984 2369 
z
M 984 2169 
L 984 456 
Q 1144 300 1314 220 
Q 1484 141 1663 141 
Q 1947 141 2192 453 
Q 2438 766 2438 1363 
Q 2438 1913 2192 2208 
Q 1947 2503 1634 2503 
Q 1469 2503 1303 2419 
Q 1178 2356 984 2169 
z
" transform="scale(0.015625)"/>
       <path id="TimesNewRomanPSMT-65" d="M 681 1784 
Q 678 1147 991 784 
Q 1303 422 1725 422 
Q 2006 422 2214 576 
Q 2422 731 2563 1106 
L 2659 1044 
Q 2594 616 2278 264 
Q 1963 -88 1488 -88 
Q 972 -88 605 314 
Q 238 716 238 1394 
Q 238 2128 614 2539 
Q 991 2950 1559 2950 
Q 2041 2950 2350 2633 
Q 2659 2316 2659 1784 
L 681 1784 
z
M 681 1966 
L 2006 1966 
Q 1991 2241 1941 2353 
Q 1863 2528 1708 2628 
Q 1553 2728 1384 2728 
Q 1125 2728 920 2526 
Q 716 2325 681 1966 
z
" transform="scale(0.015625)"/>
       <path id="TimesNewRomanPSMT-72" d="M 1038 2947 
L 1038 2303 
Q 1397 2947 1775 2947 
Q 1947 2947 2059 2842 
Q 2172 2738 2172 2600 
Q 2172 2478 2090 2393 
Q 2009 2309 1897 2309 
Q 1788 2309 1652 2417 
Q 1516 2525 1450 2525 
Q 1394 2525 1328 2463 
Q 1188 2334 1038 2041 
L 1038 669 
Q 1038 431 1097 309 
Q 1138 225 1241 169 
Q 1344 113 1538 113 
L 1538 0 
L 72 0 
L 72 113 
Q 291 113 397 181 
Q 475 231 506 341 
Q 522 394 522 644 
L 522 1753 
Q 522 2253 501 2348 
Q 481 2444 426 2487 
Q 372 2531 291 2531 
Q 194 2531 72 2484 
L 41 2597 
L 906 2947 
L 1038 2947 
z
" transform="scale(0.015625)"/>
       <path id="TimesNewRomanPSMT-20" transform="scale(0.015625)"/>
       <path id="TimesNewRomanPSMT-6f" d="M 1600 2947 
Q 2250 2947 2644 2453 
Q 2978 2031 2978 1484 
Q 2978 1100 2793 706 
Q 2609 313 2286 112 
Q 1963 -88 1566 -88 
Q 919 -88 538 428 
Q 216 863 216 1403 
Q 216 1797 411 2186 
Q 606 2575 925 2761 
Q 1244 2947 1600 2947 
z
M 1503 2744 
Q 1338 2744 1170 2645 
Q 1003 2547 900 2300 
Q 797 2053 797 1666 
Q 797 1041 1045 587 
Q 1294 134 1700 134 
Q 2003 134 2200 384 
Q 2397 634 2397 1244 
Q 2397 2006 2069 2444 
Q 1847 2744 1503 2744 
z
" transform="scale(0.015625)"/>
       <path id="TimesNewRomanPSMT-66" d="M 1319 2638 
L 1319 756 
Q 1319 356 1406 250 
Q 1522 113 1716 113 
L 1975 113 
L 1975 0 
L 266 0 
L 266 113 
L 394 113 
Q 519 113 622 175 
Q 725 238 764 344 
Q 803 450 803 756 
L 803 2638 
L 247 2638 
L 247 2863 
L 803 2863 
L 803 3050 
Q 803 3478 940 3775 
Q 1078 4072 1361 4255 
Q 1644 4438 1997 4438 
Q 2325 4438 2600 4225 
Q 2781 4084 2781 3909 
Q 2781 3816 2700 3733 
Q 2619 3650 2525 3650 
Q 2453 3650 2373 3701 
Q 2294 3753 2178 3923 
Q 2063 4094 1966 4153 
Q 1869 4213 1750 4213 
Q 1606 4213 1506 4136 
Q 1406 4059 1362 3898 
Q 1319 3738 1319 3069 
L 1319 2863 
L 2056 2863 
L 2056 2638 
L 1319 2638 
z
" transform="scale(0.015625)"/>
       <path id="TimesNewRomanPSMT-69" d="M 928 4444 
Q 1059 4444 1151 4351 
Q 1244 4259 1244 4128 
Q 1244 3997 1151 3903 
Q 1059 3809 928 3809 
Q 797 3809 703 3903 
Q 609 3997 609 4128 
Q 609 4259 701 4351 
Q 794 4444 928 4444 
z
M 1188 2947 
L 1188 647 
Q 1188 378 1227 289 
Q 1266 200 1342 156 
Q 1419 113 1622 113 
L 1622 0 
L 231 0 
L 231 113 
Q 441 113 512 153 
Q 584 194 626 287 
Q 669 381 669 647 
L 669 1750 
Q 669 2216 641 2353 
Q 619 2453 572 2492 
Q 525 2531 444 2531 
Q 356 2531 231 2484 
L 188 2597 
L 1050 2947 
L 1188 2947 
z
" transform="scale(0.015625)"/>
       <path id="TimesNewRomanPSMT-74" d="M 1031 3803 
L 1031 2863 
L 1700 2863 
L 1700 2644 
L 1031 2644 
L 1031 788 
Q 1031 509 1111 412 
Q 1191 316 1316 316 
Q 1419 316 1516 380 
Q 1613 444 1666 569 
L 1788 569 
Q 1678 263 1478 108 
Q 1278 -47 1066 -47 
Q 922 -47 784 33 
Q 647 113 581 261 
Q 516 409 516 719 
L 516 2644 
L 63 2644 
L 63 2747 
Q 234 2816 414 2980 
Q 594 3144 734 3369 
Q 806 3488 934 3803 
L 1031 3803 
z
" transform="scale(0.015625)"/>
       <path id="TimesNewRomanPSMT-61" d="M 1822 413 
Q 1381 72 1269 19 
Q 1100 -59 909 -59 
Q 613 -59 420 144 
Q 228 347 228 678 
Q 228 888 322 1041 
Q 450 1253 767 1440 
Q 1084 1628 1822 1897 
L 1822 2009 
Q 1822 2438 1686 2597 
Q 1550 2756 1291 2756 
Q 1094 2756 978 2650 
Q 859 2544 859 2406 
L 866 2225 
Q 866 2081 792 2003 
Q 719 1925 600 1925 
Q 484 1925 411 2006 
Q 338 2088 338 2228 
Q 338 2497 613 2722 
Q 888 2947 1384 2947 
Q 1766 2947 2009 2819 
Q 2194 2722 2281 2516 
Q 2338 2381 2338 1966 
L 2338 994 
Q 2338 584 2353 492 
Q 2369 400 2405 369 
Q 2441 338 2488 338 
Q 2538 338 2575 359 
Q 2641 400 2828 588 
L 2828 413 
Q 2478 -56 2159 -56 
Q 2006 -56 1915 50 
Q 1825 156 1822 413 
z
M 1822 616 
L 1822 1706 
Q 1350 1519 1213 1441 
Q 966 1303 859 1153 
Q 753 1003 753 825 
Q 753 600 887 451 
Q 1022 303 1197 303 
Q 1434 303 1822 616 
z
" transform="scale(0.015625)"/>
       <path id="TimesNewRomanPSMT-6e" d="M 1034 2341 
Q 1538 2947 1994 2947 
Q 2228 2947 2397 2830 
Q 2566 2713 2666 2444 
Q 2734 2256 2734 1869 
L 2734 647 
Q 2734 375 2778 278 
Q 2813 200 2889 156 
Q 2966 113 3172 113 
L 3172 0 
L 1756 0 
L 1756 113 
L 1816 113 
Q 2016 113 2095 173 
Q 2175 234 2206 353 
Q 2219 400 2219 647 
L 2219 1819 
Q 2219 2209 2117 2386 
Q 2016 2563 1775 2563 
Q 1403 2563 1034 2156 
L 1034 647 
Q 1034 356 1069 288 
Q 1113 197 1189 155 
Q 1266 113 1500 113 
L 1500 0 
L 84 0 
L 84 113 
L 147 113 
Q 366 113 442 223 
Q 519 334 519 647 
L 519 1709 
Q 519 2225 495 2337 
Q 472 2450 423 2490 
Q 375 2531 294 2531 
Q 206 2531 84 2484 
L 38 2597 
L 900 2947 
L 1034 2947 
L 1034 2341 
z
" transform="scale(0.015625)"/>
       <path id="TimesNewRomanPSMT-73" d="M 2050 2947 
L 2050 1972 
L 1947 1972 
Q 1828 2431 1642 2597 
Q 1456 2763 1169 2763 
Q 950 2763 815 2647 
Q 681 2531 681 2391 
Q 681 2216 781 2091 
Q 878 1963 1175 1819 
L 1631 1597 
Q 2266 1288 2266 781 
Q 2266 391 1970 151 
Q 1675 -88 1309 -88 
Q 1047 -88 709 6 
Q 606 38 541 38 
Q 469 38 428 -44 
L 325 -44 
L 325 978 
L 428 978 
Q 516 541 762 319 
Q 1009 97 1316 97 
Q 1531 97 1667 223 
Q 1803 350 1803 528 
Q 1803 744 1651 891 
Q 1500 1038 1047 1263 
Q 594 1488 453 1669 
Q 313 1847 313 2119 
Q 313 2472 555 2709 
Q 797 2947 1181 2947 
Q 1350 2947 1591 2875 
Q 1750 2828 1803 2828 
Q 1853 2828 1881 2850 
Q 1909 2872 1947 2947 
L 2050 2947 
z
" transform="scale(0.015625)"/>
      </defs>
      <use xlink:href="#TimesNewRomanPSMT-4e"/>
      <use xlink:href="#TimesNewRomanPSMT-75" transform="translate(72.216797 0)"/>
      <use xlink:href="#TimesNewRomanPSMT-6d" transform="translate(122.216797 0)"/>
      <use xlink:href="#TimesNewRomanPSMT-62" transform="translate(200 0)"/>
      <use xlink:href="#TimesNewRomanPSMT-65" transform="translate(250 0)"/>
      <use xlink:href="#TimesNewRomanPSMT-72" transform="translate(294.384766 0)"/>
      <use xlink:href="#TimesNewRomanPSMT-20" transform="translate(327.685547 0)"/>
      <use xlink:href="#TimesNewRomanPSMT-6f" transform="translate(352.685547 0)"/>
      <use xlink:href="#TimesNewRomanPSMT-66" transform="translate(402.685547 0)"/>
      <use xlink:href="#TimesNewRomanPSMT-20" transform="translate(435.986328 0)"/>
      <use xlink:href="#TimesNewRomanPSMT-69" transform="translate(460.986328 0)"/>
      <use xlink:href="#TimesNewRomanPSMT-74" transform="translate(488.769531 0)"/>
      <use xlink:href="#TimesNewRomanPSMT-65" transform="translate(516.552734 0)"/>
      <use xlink:href="#TimesNewRomanPSMT-72" transform="translate(560.9375 0)"/>
      <use xlink:href="#TimesNewRomanPSMT-61" transform="translate(594.238281 0)"/>
      <use xlink:href="#TimesNewRomanPSMT-74" transform="translate(638.623047 0)"/>
      <use xlink:href="#TimesNewRomanPSMT-69" transform="translate(666.40625 0)"/>
      <use xlink:href="#TimesNewRomanPSMT-6f" transform="translate(694.189453 0)"/>
      <use xlink:href="#TimesNewRomanPSMT-6e" transform="translate(744.189453 0)"/>
      <use xlink:href="#TimesNewRomanPSMT-73" transform="translate(794.189453 0)"/>
     </g>
    </g>
   </g>
   <g id="matplotlib.axis_2">
    <g id="ytick_1">
     <g id="line2d_9">
      <path d="M 393.065812 311.6435 
L 750.185813 311.6435 
" clip-path="url(#p04962dbc99)" style="fill: none; stroke: #b0b0b0; stroke-opacity: 0.3; stroke-width: 0.8; stroke-linecap: square"/>
     </g>
     <g id="line2d_10">
      <defs>
       <path id="m925b972582" d="M 0 0 
L -3.5 0 
" style="stroke: #000000; stroke-width: 0.8"/>
      </defs>
      <g>
       <use xlink:href="#m925b972582" x="393.065812" y="311.6435" style="stroke: #000000; stroke-width: 0.8"/>
      </g>
     </g>
     <g id="text_6">
      <!-- 0.0 -->
      <g transform="translate(358.565812 319.281625) scale(0.22 -0.22)">
       <defs>
        <path id="TimesNewRomanPSMT-2e" d="M 800 606 
Q 947 606 1047 504 
Q 1147 403 1147 259 
Q 1147 116 1045 14 
Q 944 -88 800 -88 
Q 656 -88 554 14 
Q 453 116 453 259 
Q 453 406 554 506 
Q 656 606 800 606 
z
" transform="scale(0.015625)"/>
       </defs>
       <use xlink:href="#TimesNewRomanPSMT-30"/>
       <use xlink:href="#TimesNewRomanPSMT-2e" transform="translate(50 0)"/>
       <use xlink:href="#TimesNewRomanPSMT-30" transform="translate(75 0)"/>
      </g>
     </g>
    </g>
    <g id="ytick_2">
     <g id="line2d_11">
      <path d="M 393.065812 285.0323 
L 750.185813 285.0323 
" clip-path="url(#p04962dbc99)" style="fill: none; stroke: #b0b0b0; stroke-opacity: 0.3; stroke-width: 0.8; stroke-linecap: square"/>
     </g>
     <g id="line2d_12">
      <g>
       <use xlink:href="#m925b972582" x="393.065812" y="285.0323" style="stroke: #000000; stroke-width: 0.8"/>
      </g>
     </g>
     <g id="text_7">
      <!-- 0.1 -->
      <g transform="translate(358.565812 292.670425) scale(0.22 -0.22)">
       <use xlink:href="#TimesNewRomanPSMT-30"/>
       <use xlink:href="#TimesNewRomanPSMT-2e" transform="translate(50 0)"/>
       <use xlink:href="#TimesNewRomanPSMT-31" transform="translate(75 0)"/>
      </g>
     </g>
    </g>
    <g id="ytick_3">
     <g id="line2d_13">
      <path d="M 393.065812 258.4211 
L 750.185813 258.4211 
" clip-path="url(#p04962dbc99)" style="fill: none; stroke: #b0b0b0; stroke-opacity: 0.3; stroke-width: 0.8; stroke-linecap: square"/>
     </g>
     <g id="line2d_14">
      <g>
       <use xlink:href="#m925b972582" x="393.065812" y="258.4211" style="stroke: #000000; stroke-width: 0.8"/>
      </g>
     </g>
     <g id="text_8">
      <!-- 0.2 -->
      <g transform="translate(358.565812 266.059225) scale(0.22 -0.22)">
       <use xlink:href="#TimesNewRomanPSMT-30"/>
       <use xlink:href="#TimesNewRomanPSMT-2e" transform="translate(50 0)"/>
       <use xlink:href="#TimesNewRomanPSMT-32" transform="translate(75 0)"/>
      </g>
     </g>
    </g>
    <g id="ytick_4">
     <g id="line2d_15">
      <path d="M 393.065812 231.8099 
L 750.185813 231.8099 
" clip-path="url(#p04962dbc99)" style="fill: none; stroke: #b0b0b0; stroke-opacity: 0.3; stroke-width: 0.8; stroke-linecap: square"/>
     </g>
     <g id="line2d_16">
      <g>
       <use xlink:href="#m925b972582" x="393.065812" y="231.8099" style="stroke: #000000; stroke-width: 0.8"/>
      </g>
     </g>
     <g id="text_9">
      <!-- 0.3 -->
      <g transform="translate(358.565812 239.448025) scale(0.22 -0.22)">
       <use xlink:href="#TimesNewRomanPSMT-30"/>
       <use xlink:href="#TimesNewRomanPSMT-2e" transform="translate(50 0)"/>
       <use xlink:href="#TimesNewRomanPSMT-33" transform="translate(75 0)"/>
      </g>
     </g>
    </g>
    <g id="ytick_5">
     <g id="line2d_17">
      <path d="M 393.065812 205.1987 
L 750.185813 205.1987 
" clip-path="url(#p04962dbc99)" style="fill: none; stroke: #b0b0b0; stroke-opacity: 0.3; stroke-width: 0.8; stroke-linecap: square"/>
     </g>
     <g id="line2d_18">
      <g>
       <use xlink:href="#m925b972582" x="393.065812" y="205.1987" style="stroke: #000000; stroke-width: 0.8"/>
      </g>
     </g>
     <g id="text_10">
      <!-- 0.4 -->
      <g transform="translate(358.565812 212.836825) scale(0.22 -0.22)">
       <defs>
        <path id="TimesNewRomanPSMT-34" d="M 2978 1563 
L 2978 1119 
L 2409 1119 
L 2409 0 
L 1894 0 
L 1894 1119 
L 100 1119 
L 100 1519 
L 2066 4325 
L 2409 4325 
L 2409 1563 
L 2978 1563 
z
M 1894 1563 
L 1894 3666 
L 406 1563 
L 1894 1563 
z
" transform="scale(0.015625)"/>
       </defs>
       <use xlink:href="#TimesNewRomanPSMT-30"/>
       <use xlink:href="#TimesNewRomanPSMT-2e" transform="translate(50 0)"/>
       <use xlink:href="#TimesNewRomanPSMT-34" transform="translate(75 0)"/>
      </g>
     </g>
    </g>
    <g id="ytick_6">
     <g id="line2d_19">
      <path d="M 393.065812 178.5875 
L 750.185813 178.5875 
" clip-path="url(#p04962dbc99)" style="fill: none; stroke: #b0b0b0; stroke-opacity: 0.3; stroke-width: 0.8; stroke-linecap: square"/>
     </g>
     <g id="line2d_20">
      <g>
       <use xlink:href="#m925b972582" x="393.065812" y="178.5875" style="stroke: #000000; stroke-width: 0.8"/>
      </g>
     </g>
     <g id="text_11">
      <!-- 0.5 -->
      <g transform="translate(358.565812 186.225625) scale(0.22 -0.22)">
       <defs>
        <path id="TimesNewRomanPSMT-35" d="M 2778 4238 
L 2534 3706 
L 1259 3706 
L 981 3138 
Q 1809 3016 2294 2522 
Q 2709 2097 2709 1522 
Q 2709 1188 2573 903 
Q 2438 619 2231 419 
Q 2025 219 1772 97 
Q 1413 -75 1034 -75 
Q 653 -75 479 54 
Q 306 184 306 341 
Q 306 428 378 495 
Q 450 563 559 563 
Q 641 563 702 538 
Q 763 513 909 409 
Q 1144 247 1384 247 
Q 1750 247 2026 523 
Q 2303 800 2303 1197 
Q 2303 1581 2056 1914 
Q 1809 2247 1375 2428 
Q 1034 2569 447 2591 
L 1259 4238 
L 2778 4238 
z
" transform="scale(0.015625)"/>
       </defs>
       <use xlink:href="#TimesNewRomanPSMT-30"/>
       <use xlink:href="#TimesNewRomanPSMT-2e" transform="translate(50 0)"/>
       <use xlink:href="#TimesNewRomanPSMT-35" transform="translate(75 0)"/>
      </g>
     </g>
    </g>
    <g id="ytick_7">
     <g id="line2d_21">
      <path d="M 393.065812 151.9763 
L 750.185813 151.9763 
" clip-path="url(#p04962dbc99)" style="fill: none; stroke: #b0b0b0; stroke-opacity: 0.3; stroke-width: 0.8; stroke-linecap: square"/>
     </g>
     <g id="line2d_22">
      <g>
       <use xlink:href="#m925b972582" x="393.065812" y="151.9763" style="stroke: #000000; stroke-width: 0.8"/>
      </g>
     </g>
     <g id="text_12">
      <!-- 0.6 -->
      <g transform="translate(358.565812 159.614425) scale(0.22 -0.22)">
       <defs>
        <path id="TimesNewRomanPSMT-36" d="M 2869 4325 
L 2869 4209 
Q 2456 4169 2195 4045 
Q 1934 3922 1679 3669 
Q 1425 3416 1258 3105 
Q 1091 2794 978 2366 
Q 1428 2675 1881 2675 
Q 2316 2675 2634 2325 
Q 2953 1975 2953 1425 
Q 2953 894 2631 456 
Q 2244 -75 1606 -75 
Q 1172 -75 869 213 
Q 275 772 275 1663 
Q 275 2231 503 2743 
Q 731 3256 1154 3653 
Q 1578 4050 1965 4187 
Q 2353 4325 2688 4325 
L 2869 4325 
z
M 925 2138 
Q 869 1716 869 1456 
Q 869 1156 980 804 
Q 1091 453 1309 247 
Q 1469 100 1697 100 
Q 1969 100 2183 356 
Q 2397 613 2397 1088 
Q 2397 1622 2184 2012 
Q 1972 2403 1581 2403 
Q 1463 2403 1327 2353 
Q 1191 2303 925 2138 
z
" transform="scale(0.015625)"/>
       </defs>
       <use xlink:href="#TimesNewRomanPSMT-30"/>
       <use xlink:href="#TimesNewRomanPSMT-2e" transform="translate(50 0)"/>
       <use xlink:href="#TimesNewRomanPSMT-36" transform="translate(75 0)"/>
      </g>
     </g>
    </g>
    <g id="ytick_8">
     <g id="line2d_23">
      <path d="M 393.065812 125.3651 
L 750.185813 125.3651 
" clip-path="url(#p04962dbc99)" style="fill: none; stroke: #b0b0b0; stroke-opacity: 0.3; stroke-width: 0.8; stroke-linecap: square"/>
     </g>
     <g id="line2d_24">
      <g>
       <use xlink:href="#m925b972582" x="393.065812" y="125.3651" style="stroke: #000000; stroke-width: 0.8"/>
      </g>
     </g>
     <g id="text_13">
      <!-- 0.7 -->
      <g transform="translate(358.565812 133.003225) scale(0.22 -0.22)">
       <defs>
        <path id="TimesNewRomanPSMT-37" d="M 644 4238 
L 2916 4238 
L 2916 4119 
L 1503 -88 
L 1153 -88 
L 2419 3728 
L 1253 3728 
Q 900 3728 750 3644 
Q 488 3500 328 3200 
L 238 3234 
L 644 4238 
z
" transform="scale(0.015625)"/>
       </defs>
       <use xlink:href="#TimesNewRomanPSMT-30"/>
       <use xlink:href="#TimesNewRomanPSMT-2e" transform="translate(50 0)"/>
       <use xlink:href="#TimesNewRomanPSMT-37" transform="translate(75 0)"/>
      </g>
     </g>
    </g>
    <g id="ytick_9">
     <g id="line2d_25">
      <path d="M 393.065812 98.7539 
L 750.185813 98.7539 
" clip-path="url(#p04962dbc99)" style="fill: none; stroke: #b0b0b0; stroke-opacity: 0.3; stroke-width: 0.8; stroke-linecap: square"/>
     </g>
     <g id="line2d_26">
      <g>
       <use xlink:href="#m925b972582" x="393.065812" y="98.7539" style="stroke: #000000; stroke-width: 0.8"/>
      </g>
     </g>
     <g id="text_14">
      <!-- 0.8 -->
      <g transform="translate(358.565812 106.392025) scale(0.22 -0.22)">
       <defs>
        <path id="TimesNewRomanPSMT-38" d="M 1228 2134 
Q 725 2547 579 2797 
Q 434 3047 434 3316 
Q 434 3728 753 4026 
Q 1072 4325 1600 4325 
Q 2113 4325 2425 4047 
Q 2738 3769 2738 3413 
Q 2738 3175 2569 2928 
Q 2400 2681 1866 2347 
Q 2416 1922 2594 1678 
Q 2831 1359 2831 1006 
Q 2831 559 2490 242 
Q 2150 -75 1597 -75 
Q 994 -75 656 303 
Q 388 606 388 966 
Q 388 1247 577 1523 
Q 766 1800 1228 2134 
z
M 1719 2469 
Q 2094 2806 2194 3001 
Q 2294 3197 2294 3444 
Q 2294 3772 2109 3958 
Q 1925 4144 1606 4144 
Q 1288 4144 1088 3959 
Q 888 3775 888 3528 
Q 888 3366 970 3203 
Q 1053 3041 1206 2894 
L 1719 2469 
z
M 1375 2016 
Q 1116 1797 991 1539 
Q 866 1281 866 981 
Q 866 578 1086 336 
Q 1306 94 1647 94 
Q 1984 94 2187 284 
Q 2391 475 2391 747 
Q 2391 972 2272 1150 
Q 2050 1481 1375 2016 
z
" transform="scale(0.015625)"/>
       </defs>
       <use xlink:href="#TimesNewRomanPSMT-30"/>
       <use xlink:href="#TimesNewRomanPSMT-2e" transform="translate(50 0)"/>
       <use xlink:href="#TimesNewRomanPSMT-38" transform="translate(75 0)"/>
      </g>
     </g>
    </g>
    <g id="ytick_10">
     <g id="line2d_27">
      <path d="M 393.065812 72.1427 
L 750.185813 72.1427 
" clip-path="url(#p04962dbc99)" style="fill: none; stroke: #b0b0b0; stroke-opacity: 0.3; stroke-width: 0.8; stroke-linecap: square"/>
     </g>
     <g id="line2d_28">
      <g>
       <use xlink:href="#m925b972582" x="393.065812" y="72.1427" style="stroke: #000000; stroke-width: 0.8"/>
      </g>
     </g>
     <g id="text_15">
      <!-- 0.9 -->
      <g transform="translate(358.565812 79.780825) scale(0.22 -0.22)">
       <defs>
        <path id="TimesNewRomanPSMT-39" d="M 338 -88 
L 338 28 
Q 744 34 1094 217 
Q 1444 400 1770 856 
Q 2097 1313 2225 1859 
Q 1734 1544 1338 1544 
Q 891 1544 572 1889 
Q 253 2234 253 2806 
Q 253 3363 572 3797 
Q 956 4325 1575 4325 
Q 2097 4325 2469 3894 
Q 2925 3359 2925 2575 
Q 2925 1869 2578 1258 
Q 2231 647 1613 244 
Q 1109 -88 516 -88 
L 338 -88 
z
M 2275 2091 
Q 2331 2497 2331 2741 
Q 2331 3044 2228 3395 
Q 2125 3747 1936 3934 
Q 1747 4122 1506 4122 
Q 1228 4122 1018 3872 
Q 809 3622 809 3128 
Q 809 2469 1088 2097 
Q 1291 1828 1588 1828 
Q 1731 1828 1928 1897 
Q 2125 1966 2275 2091 
z
" transform="scale(0.015625)"/>
       </defs>
       <use xlink:href="#TimesNewRomanPSMT-30"/>
       <use xlink:href="#TimesNewRomanPSMT-2e" transform="translate(50 0)"/>
       <use xlink:href="#TimesNewRomanPSMT-39" transform="translate(75 0)"/>
      </g>
     </g>
    </g>
    <g id="ytick_11">
     <g id="line2d_29">
      <path d="M 393.065812 45.5315 
L 750.185813 45.5315 
" clip-path="url(#p04962dbc99)" style="fill: none; stroke: #b0b0b0; stroke-opacity: 0.3; stroke-width: 0.8; stroke-linecap: square"/>
     </g>
     <g id="line2d_30">
      <g>
       <use xlink:href="#m925b972582" x="393.065812" y="45.5315" style="stroke: #000000; stroke-width: 0.8"/>
      </g>
     </g>
     <g id="text_16">
      <!-- 1.0 -->
      <g transform="translate(358.565812 53.169625) scale(0.22 -0.22)">
       <use xlink:href="#TimesNewRomanPSMT-31"/>
       <use xlink:href="#TimesNewRomanPSMT-2e" transform="translate(50 0)"/>
       <use xlink:href="#TimesNewRomanPSMT-30" transform="translate(75 0)"/>
      </g>
     </g>
    </g>
    <g id="text_17">
     <!-- Accuracy -->
     <g transform="translate(349.818625 220.726094) rotate(-90) scale(0.22 -0.22)">
      <defs>
       <path id="TimesNewRomanPSMT-41" d="M 2928 1419 
L 1288 1419 
L 1000 750 
Q 894 503 894 381 
Q 894 284 986 211 
Q 1078 138 1384 116 
L 1384 0 
L 50 0 
L 50 116 
Q 316 163 394 238 
Q 553 388 747 847 
L 2238 4334 
L 2347 4334 
L 3822 809 
Q 4000 384 4145 257 
Q 4291 131 4550 116 
L 4550 0 
L 2878 0 
L 2878 116 
Q 3131 128 3220 200 
Q 3309 272 3309 375 
Q 3309 513 3184 809 
L 2928 1419 
z
M 2841 1650 
L 2122 3363 
L 1384 1650 
L 2841 1650 
z
" transform="scale(0.015625)"/>
       <path id="TimesNewRomanPSMT-63" d="M 2631 1088 
Q 2516 522 2178 217 
Q 1841 -88 1431 -88 
Q 944 -88 581 321 
Q 219 731 219 1428 
Q 219 2103 620 2525 
Q 1022 2947 1584 2947 
Q 2006 2947 2278 2723 
Q 2550 2500 2550 2259 
Q 2550 2141 2473 2067 
Q 2397 1994 2259 1994 
Q 2075 1994 1981 2113 
Q 1928 2178 1911 2362 
Q 1894 2547 1784 2644 
Q 1675 2738 1481 2738 
Q 1169 2738 978 2506 
Q 725 2200 725 1697 
Q 725 1184 976 792 
Q 1228 400 1656 400 
Q 1963 400 2206 609 
Q 2378 753 2541 1131 
L 2631 1088 
z
" transform="scale(0.015625)"/>
       <path id="TimesNewRomanPSMT-79" d="M 38 2863 
L 1372 2863 
L 1372 2747 
L 1306 2747 
Q 1166 2747 1095 2686 
Q 1025 2625 1025 2534 
Q 1025 2413 1128 2197 
L 1825 753 
L 2466 2334 
Q 2519 2463 2519 2588 
Q 2519 2644 2497 2672 
Q 2472 2706 2419 2726 
Q 2366 2747 2231 2747 
L 2231 2863 
L 3163 2863 
L 3163 2747 
Q 3047 2734 2984 2696 
Q 2922 2659 2847 2556 
Q 2819 2513 2741 2316 
L 1575 -541 
Q 1406 -956 1132 -1168 
Q 859 -1381 606 -1381 
Q 422 -1381 303 -1275 
Q 184 -1169 184 -1031 
Q 184 -900 270 -820 
Q 356 -741 506 -741 
Q 609 -741 788 -809 
Q 913 -856 944 -856 
Q 1038 -856 1148 -759 
Q 1259 -663 1372 -384 
L 1575 113 
L 547 2272 
Q 500 2369 397 2513 
Q 319 2622 269 2659 
Q 197 2709 38 2747 
L 38 2863 
z
" transform="scale(0.015625)"/>
      </defs>
      <use xlink:href="#TimesNewRomanPSMT-41"/>
      <use xlink:href="#TimesNewRomanPSMT-63" transform="translate(72.216797 0)"/>
      <use xlink:href="#TimesNewRomanPSMT-63" transform="translate(116.601562 0)"/>
      <use xlink:href="#TimesNewRomanPSMT-75" transform="translate(160.986328 0)"/>
      <use xlink:href="#TimesNewRomanPSMT-72" transform="translate(210.986328 0)"/>
      <use xlink:href="#TimesNewRomanPSMT-61" transform="translate(244.287109 0)"/>
      <use xlink:href="#TimesNewRomanPSMT-63" transform="translate(288.671875 0)"/>
      <use xlink:href="#TimesNewRomanPSMT-79" transform="translate(333.056641 0)"/>
     </g>
    </g>
   </g>
   <g id="line2d_31">
    <path d="M 393.065812 169.672744 
L 393.184892 160.491879 
L 393.423052 128.026205 
L 393.89937 117.913952 
L 394.01845 117.780906 
L 394.375689 114.587555 
L 394.494769 114.321447 
L 394.732928 114.720617 
L 395.328327 113.256997 
L 395.447406 113.523105 
L 395.804645 112.325609 
L 395.923725 112.724764 
L 396.042805 112.192546 
L 396.161885 112.591717 
L 396.519124 111.394205 
L 396.638203 111.527267 
L 397.114522 109.9306 
L 397.352681 110.861988 
L 397.471761 109.531429 
L 397.709921 112.192546 
L 397.829 109.398367 
L 397.94808 109.664475 
L 398.06716 110.462817 
L 398.186239 109.664475 
L 398.305319 110.728925 
L 398.662558 108.86615 
L 398.900717 111.261158 
L 399.019797 110.99505 
L 399.257957 108.067808 
L 399.377036 110.063646 
L 399.615196 109.398367 
L 399.734275 107.801699 
L 399.972435 109.797537 
L 400.091514 109.26532 
L 400.210594 109.9306 
L 400.329674 108.733087 
L 400.448753 109.531429 
L 400.567833 109.26532 
L 400.686913 109.398367 
L 400.805993 109.132258 
L 400.925072 109.398367 
L 401.044152 109.132258 
L 401.163232 109.26532 
L 401.401391 106.870311 
L 401.520471 109.132258 
L 401.63955 108.999196 
L 401.75863 107.402529 
L 401.87771 108.600041 
L 401.996789 108.333917 
L 402.115869 107.003358 
L 402.234949 108.600041 
L 402.354029 108.600041 
L 402.473108 107.269482 
L 402.592188 108.733087 
L 402.711268 108.466979 
L 402.830347 109.398367 
L 402.949427 109.132258 
L 403.068507 108.20087 
L 403.187586 108.600041 
L 403.306666 107.003358 
L 403.425746 107.003358 
L 403.663905 108.466979 
L 403.902065 108.333917 
L 404.021144 108.86615 
L 404.140224 108.333917 
L 404.259304 108.333917 
L 404.378383 109.398367 
L 404.616543 106.604187 
L 404.735622 108.333917 
L 404.973782 108.333917 
L 405.092862 107.934762 
L 405.211941 108.067808 
L 405.450101 107.402529 
L 405.56918 108.20087 
L 405.68826 107.934762 
L 405.80734 106.338078 
L 405.926419 107.668637 
L 406.164579 106.870311 
L 406.283658 107.003358 
L 406.402738 106.338078 
L 406.521818 106.604187 
L 406.879057 108.20087 
L 407.117216 106.471141 
L 407.593535 108.067808 
L 407.712615 106.604187 
L 407.831694 106.737249 
L 407.950774 107.269482 
L 408.427093 106.205032 
L 408.784332 107.801699 
L 409.022491 106.338078 
L 409.141571 106.205032 
L 409.260651 107.402529 
L 409.61789 106.471141 
L 409.73697 106.870311 
L 409.856049 106.338078 
L 410.094209 106.471141 
L 410.332368 106.471141 
L 410.570527 106.870311 
L 410.689607 106.737249 
L 410.808687 106.870311 
L 410.927766 106.737249 
L 411.046846 106.205032 
L 411.165926 106.471141 
L 411.285006 107.535591 
L 411.642245 106.737249 
L 411.880404 107.801699 
L 411.999484 106.205032 
L 412.118563 107.003358 
L 412.356723 106.205032 
L 412.475802 106.471141 
L 412.713962 106.205032 
L 412.833042 106.338078 
L 413.071201 107.003358 
L 413.190281 106.338078 
L 413.30936 106.338078 
L 413.42844 106.604187 
L 413.54752 106.205032 
L 413.666599 106.205032 
L 413.904759 106.870311 
L 414.023839 106.338078 
L 414.142918 106.338078 
L 414.261998 106.604187 
L 414.500157 105.672799 
L 414.619237 105.805861 
L 414.738317 107.003358 
L 414.857396 106.870311 
L 414.976476 106.07197 
L 415.095556 106.604187 
L 415.214635 106.471141 
L 415.452795 105.805861 
L 415.571875 105.672799 
L 415.810034 106.604187 
L 416.048193 105.539753 
L 416.167273 106.205032 
L 416.405432 105.805861 
L 416.524512 105.938908 
L 416.643592 106.338078 
L 416.762671 105.539753 
L 416.881751 106.338078 
L 417.119911 105.40669 
L 417.23899 106.205032 
L 417.35807 106.205032 
L 417.47715 105.805861 
L 417.596229 106.205032 
L 417.715309 105.40669 
L 417.834389 106.205032 
L 418.072548 105.273628 
L 418.191628 106.205032 
L 418.310707 105.938908 
L 418.429787 106.07197 
L 418.667947 105.273628 
L 418.787026 105.672799 
L 418.906106 105.539753 
L 419.025186 106.07197 
L 419.144265 105.805861 
L 419.263345 106.07197 
L 419.382425 105.539753 
L 419.501504 105.539753 
L 419.739664 105.805861 
L 419.858743 105.672799 
L 419.977823 106.338078 
L 420.096903 105.539753 
L 420.335062 105.805861 
L 420.454142 104.475303 
L 420.692301 106.338078 
L 420.811381 105.539753 
L 420.930461 105.805861 
L 421.04954 104.475303 
L 421.16862 106.07197 
L 421.406779 104.34224 
L 421.644939 106.471141 
L 421.764019 104.34224 
L 421.883098 106.07197 
L 422.002178 104.741411 
L 422.121258 105.805861 
L 422.240337 104.209194 
L 422.359417 104.475303 
L 422.597576 106.471141 
L 422.835736 105.273628 
L 422.954816 105.140582 
L 423.073895 105.672799 
L 423.192975 105.140582 
L 423.312055 105.805861 
L 423.431134 105.672799 
L 423.550214 105.938908 
L 423.669294 105.00752 
L 423.788373 105.40669 
L 424.026533 104.741411 
L 424.145612 105.805861 
L 424.264692 104.475303 
L 424.502852 105.40669 
L 424.621931 103.94307 
L 424.860091 105.805861 
L 424.97917 105.672799 
L 425.09825 105.938908 
L 425.336409 104.34224 
L 425.455489 105.140582 
L 425.574569 104.475303 
L 425.693648 105.273628 
L 425.812728 105.140582 
L 425.931808 104.076132 
L 426.050888 104.076132 
L 426.169967 105.00752 
L 426.289047 104.874473 
L 426.408127 104.475303 
L 426.646286 105.539753 
L 427.003525 105.00752 
L 427.122605 105.40669 
L 427.241684 105.40669 
L 427.479844 104.608349 
L 427.598924 105.140582 
L 427.718003 104.874473 
L 428.075242 105.273628 
L 428.194322 104.874473 
L 428.313402 104.874473 
L 428.432481 104.209194 
L 428.670641 105.40669 
L 428.78972 105.273628 
L 429.14696 104.076132 
L 429.266039 104.741411 
L 429.385119 104.34224 
L 429.623278 105.140582 
L 429.742358 105.140582 
L 429.980517 103.810023 
L 430.218677 104.874473 
L 430.337756 104.874473 
L 430.456836 105.140582 
L 430.575916 105.805861 
L 430.694996 104.076132 
L 430.933155 105.00752 
L 431.052235 104.874473 
L 431.290394 104.076132 
L 431.409474 104.741411 
L 431.528553 103.94307 
L 431.647633 105.140582 
L 431.766713 104.874473 
L 431.885792 105.273628 
L 432.243032 104.076132 
L 432.481191 105.00752 
L 432.600271 105.00752 
L 432.71935 105.40669 
L 432.83843 104.076132 
L 432.95751 104.076132 
L 433.314749 105.00752 
L 433.552908 104.874473 
L 433.671988 106.205032 
L 433.791068 103.676961 
L 434.148307 104.874473 
L 434.386466 103.676961 
L 434.505546 104.34224 
L 434.743705 103.810023 
L 434.981865 104.34224 
L 435.100944 103.810023 
L 435.220024 104.741411 
L 435.458183 103.810023 
L 435.577263 104.608349 
L 435.815422 104.608349 
L 435.934502 105.00752 
L 436.053582 104.741411 
L 436.172661 104.874473 
L 436.410821 104.608349 
L 436.529901 105.00752 
L 436.64898 106.604187 
L 436.76806 103.94307 
L 437.006219 104.741411 
L 437.125299 103.676961 
L 437.363458 104.741411 
L 437.482538 104.608349 
L 437.839777 105.140582 
L 438.077937 103.810023 
L 438.197016 103.94307 
L 438.316096 103.676961 
L 438.554255 105.140582 
L 438.792415 103.810023 
L 439.030574 103.94307 
L 439.149654 103.676961 
L 439.387813 103.94307 
L 439.506893 105.140582 
L 439.625973 105.00752 
L 439.745052 105.140582 
L 439.864132 104.874473 
L 439.983212 104.209194 
L 440.221371 106.07197 
L 440.340451 103.543899 
L 440.45953 103.810023 
L 440.57861 105.140582 
L 440.816769 103.410852 
L 440.935849 103.543899 
L 441.054929 103.94307 
L 441.293088 105.539753 
L 441.531248 103.810023 
L 441.650327 103.410852 
L 442.007566 105.539753 
L 442.126646 105.140582 
L 442.364805 103.410852 
L 442.483885 103.94307 
L 442.602965 105.140582 
L 442.722045 105.140582 
L 442.841124 104.874473 
L 443.079284 103.27779 
L 443.198363 103.144744 
L 443.555602 105.938908 
L 443.793762 103.27779 
L 443.912842 105.140582 
L 444.270081 103.144744 
L 444.38916 103.144744 
L 444.62732 103.543899 
L 444.865479 105.00752 
L 444.984559 105.938908 
L 445.103638 103.011682 
L 445.222718 103.144744 
L 445.341798 104.874473 
L 445.460878 104.741411 
L 445.579957 103.810023 
L 445.699037 104.076132 
L 445.937196 105.672799 
L 446.056276 102.745573 
L 446.175356 102.745573 
L 446.294435 104.741411 
L 446.413515 104.741411 
L 446.532595 103.94307 
L 446.889834 105.539753 
L 447.008914 102.878619 
L 447.127993 103.011682 
L 447.366153 104.874473 
L 447.604312 104.874473 
L 447.723392 104.741411 
L 447.842471 105.00752 
L 447.961551 104.475303 
L 448.080631 104.475303 
L 448.31879 105.40669 
L 448.43787 102.878619 
L 448.55695 103.144744 
L 448.676029 104.209194 
L 448.795109 104.209194 
L 448.914189 103.543899 
L 449.152348 105.273628 
L 449.271428 105.00752 
L 449.390507 102.346402 
L 449.628667 104.209194 
L 449.866826 103.410852 
L 449.985906 103.543899 
L 450.224065 105.938908 
L 450.343145 102.479464 
L 450.462225 103.810023 
L 450.581304 103.676961 
L 450.700384 102.878619 
L 451.057623 104.209194 
L 451.295782 104.475303 
L 451.533942 104.209194 
L 451.653022 104.34224 
L 451.891181 105.140582 
L 452.12934 102.479464 
L 452.3675 103.011682 
L 452.486579 102.745573 
L 452.605659 102.080294 
L 452.724739 102.479464 
L 452.843819 104.608349 
L 452.962898 102.479464 
L 453.201058 103.27779 
L 453.439217 102.878619 
L 453.558297 102.21334 
L 453.677376 102.612511 
L 453.796456 102.612511 
L 454.034615 104.475303 
L 454.272775 103.676961 
L 454.510934 105.140582 
L 454.749094 102.479464 
L 455.106333 103.810023 
L 455.225412 103.810023 
L 455.344492 104.741411 
L 455.463572 104.741411 
L 455.701731 102.479464 
L 455.820811 102.479464 
L 456.05897 102.745573 
L 456.17805 102.612511 
L 456.416209 105.40669 
L 456.654369 102.479464 
L 456.773448 103.676961 
L 457.011608 102.479464 
L 457.130687 102.479464 
L 457.249767 102.21334 
L 457.487927 102.612511 
L 457.607006 102.612511 
L 457.964245 104.608349 
L 458.202405 102.21334 
L 458.440564 102.479464 
L 458.559644 102.21334 
L 458.678723 102.612511 
L 458.916883 102.080294 
L 459.035963 102.080294 
L 459.155042 104.475303 
L 459.274122 102.612511 
L 459.393202 103.676961 
L 459.512281 102.479464 
L 459.631361 102.479464 
L 459.86952 103.676961 
L 460.10768 103.27779 
L 460.226759 103.94307 
L 460.345839 103.94307 
L 460.583999 103.011682 
L 460.703078 103.543899 
L 460.822158 105.40669 
L 461.060317 102.080294 
L 461.179397 103.27779 
L 461.298477 102.080294 
L 461.417556 102.346402 
L 461.536636 103.410852 
L 461.655716 103.27779 
L 461.893875 103.543899 
L 462.012955 104.34224 
L 462.370194 102.080294 
L 462.489274 101.814185 
L 462.608353 102.080294 
L 462.727433 104.076132 
L 462.965592 101.947231 
L 463.203752 102.745573 
L 463.441911 104.608349 
L 463.680071 102.346402 
L 463.79915 102.21334 
L 463.91823 101.681123 
L 464.156389 102.346402 
L 464.275469 101.947231 
L 464.513628 103.543899 
L 464.632708 101.814185 
L 464.870868 101.947231 
L 464.989947 101.947231 
L 465.109027 102.21334 
L 465.228107 101.548061 
L 465.347186 103.543899 
L 465.466266 103.144744 
L 465.585346 101.681123 
L 465.704425 101.947231 
L 465.942585 103.810023 
L 466.061664 103.543899 
L 466.180744 103.810023 
L 466.299824 103.144744 
L 466.537983 104.076132 
L 466.657063 105.140582 
L 466.895222 101.814185 
L 467.014302 103.410852 
L 467.252461 101.947231 
L 467.371541 101.947231 
L 467.6097 101.814185 
L 467.84786 103.676961 
L 467.96694 103.676961 
L 468.086019 103.543899 
L 468.205099 102.745573 
L 468.324179 103.410852 
L 468.443258 105.672799 
L 468.681418 101.814185 
L 468.800497 103.410852 
L 468.919577 101.947231 
L 469.038657 101.947231 
L 469.276816 103.410852 
L 469.395896 103.410852 
L 469.514976 103.676961 
L 469.753135 103.543899 
L 469.872215 103.543899 
L 469.991294 103.410852 
L 470.110374 103.810023 
L 470.229454 105.273628 
L 470.348533 101.947231 
L 470.467613 101.947231 
L 470.586693 103.410852 
L 470.824852 101.814185 
L 471.063012 101.415014 
L 471.182091 101.814185 
L 471.301171 103.543899 
L 471.420251 103.144744 
L 471.53933 101.947231 
L 471.896569 101.947231 
L 472.015649 102.346402 
L 472.253808 103.94307 
L 472.372888 103.410852 
L 472.491968 101.947231 
L 472.849207 101.947231 
L 472.968287 102.346402 
L 473.206446 103.94307 
L 473.563685 101.947231 
L 473.801845 106.604187 
L 473.920924 102.080294 
L 474.040004 103.810023 
L 474.159084 102.080294 
L 474.278163 103.011682 
L 474.516323 102.080294 
L 474.635402 101.947231 
L 474.754482 102.21334 
L 474.873562 102.080294 
L 474.992641 103.011682 
L 475.111721 103.011682 
L 475.230801 103.27779 
L 475.349881 103.94307 
L 475.58804 103.27779 
L 475.826199 101.814185 
L 476.064359 102.080294 
L 476.183438 101.281952 
L 476.302518 108.333917 
L 476.421598 101.947231 
L 476.540677 101.947231 
L 476.659757 101.814185 
L 476.778837 102.745573 
L 476.897917 102.080294 
L 477.016996 102.745573 
L 477.136076 102.080294 
L 477.255156 102.21334 
L 477.493315 101.947231 
L 478.565032 101.947231 
L 478.803192 102.080294 
L 481.065706 102.080294 
L 481.303865 101.947231 
L 483.32822 101.947231 
L 483.4473 101.681123 
L 483.566379 101.947231 
L 483.685459 101.814185 
L 483.923618 102.080294 
L 484.042698 102.080294 
L 484.280858 101.548061 
L 484.399937 101.947231 
L 484.519017 101.947231 
L 484.757176 101.548061 
L 484.876256 100.48361 
L 484.995336 103.94307 
L 485.114415 101.415014 
L 485.233495 103.144744 
L 485.352575 101.947231 
L 485.471654 101.947231 
L 486.186133 103.676961 
L 486.305212 103.011682 
L 486.424292 103.144744 
L 486.662451 104.076132 
L 486.900611 101.681123 
L 487.01969 101.947231 
L 487.37693 103.810023 
L 487.615089 101.281952 
L 487.734169 101.681123 
L 487.972328 101.681123 
L 488.210487 103.543899 
L 488.329567 103.810023 
L 488.686806 101.548061 
L 488.805886 101.281952 
L 488.924966 101.548061 
L 489.044045 103.810023 
L 489.282205 101.281952 
L 489.758523 104.209194 
L 489.996683 101.681123 
L 490.234842 103.144744 
L 490.353922 103.144744 
L 490.830241 103.676961 
L 491.0684 101.415014 
L 491.18748 101.814185 
L 491.306559 101.548061 
L 491.544719 103.410852 
L 491.782878 103.144744 
L 491.901958 103.27779 
L 492.140117 104.209194 
L 492.259197 101.681123 
L 492.378277 103.144744 
L 492.497356 103.011682 
L 492.616436 101.681123 
L 492.854595 101.947231 
L 492.973675 101.415014 
L 493.092755 101.947231 
L 493.211835 101.548061 
L 493.449994 103.27779 
L 493.569074 103.410852 
L 493.688153 102.878619 
L 493.807233 103.144744 
L 493.926313 104.076132 
L 494.045392 104.076132 
L 494.164472 101.415014 
L 494.402631 103.011682 
L 494.640791 101.947231 
L 494.759871 101.947231 
L 494.87895 101.548061 
L 494.99803 101.548061 
L 495.11711 101.415014 
L 495.593428 104.608349 
L 495.712508 101.681123 
L 495.831588 103.144744 
L 495.950667 102.346402 
L 496.188827 103.011682 
L 496.307907 102.080294 
L 496.546066 102.346402 
L 496.903305 101.814185 
L 497.022385 101.814185 
L 497.141464 101.947231 
L 497.379624 101.814185 
L 497.736863 103.810023 
L 497.855943 103.27779 
L 498.094102 101.947231 
L 498.213182 101.814185 
L 498.451341 102.080294 
L 498.6895 101.148906 
L 498.92766 103.27779 
L 499.046739 101.947231 
L 499.165819 103.011682 
L 499.284899 103.011682 
L 499.403979 102.21334 
L 499.642138 102.878619 
L 499.761218 104.209194 
L 499.999377 101.947231 
L 500.237536 102.346402 
L 500.475696 104.209194 
L 500.713855 101.947231 
L 500.952015 102.346402 
L 501.071094 102.878619 
L 501.190174 103.94307 
L 501.547413 101.814185 
L 501.785572 102.346402 
L 502.023732 101.947231 
L 502.142811 101.548061 
L 502.380971 103.011682 
L 502.500051 101.947231 
L 502.61913 103.011682 
L 502.85729 102.21334 
L 503.214529 102.878619 
L 503.333608 102.878619 
L 503.452688 102.745573 
L 503.571768 102.878619 
L 503.929007 102.346402 
L 504.048087 103.27779 
L 504.167166 106.07197 
L 504.286246 101.148906 
L 504.405326 103.410852 
L 504.524405 101.681123 
L 504.643485 106.604187 
L 504.762565 99.951393 
L 504.881644 106.338078 
L 505.000724 102.080294 
L 505.119804 102.080294 
L 505.238884 102.745573 
L 505.357963 101.947231 
L 505.596123 102.080294 
L 505.715202 101.947231 
L 505.953362 102.21334 
L 506.54876 102.21334 
L 506.78692 102.080294 
L 507.739557 102.080294 
L 507.977716 102.21334 
L 509.882992 102.21334 
L 510.121151 102.346402 
L 516.670534 102.346402 
L 516.908693 102.479464 
L 520.838323 102.479464 
L 520.957403 102.612511 
L 521.195562 102.479464 
L 522.624519 102.479464 
L 522.862678 102.346402 
L 528.221264 102.346402 
L 528.459424 102.479464 
L 529.650221 102.479464 
L 529.88838 102.612511 
L 531.317336 102.612511 
L 531.555496 102.745573 
L 531.793655 102.745573 
L 532.031815 102.612511 
L 532.269974 102.612511 
L 532.508133 102.479464 
L 535.366046 102.479464 
L 535.604205 102.612511 
L 536.318683 102.612511 
L 536.556843 102.479464 
L 537.033162 102.479464 
L 537.271321 102.346402 
L 539.057516 102.346402 
L 539.295676 102.479464 
L 544.297023 102.479464 
L 544.416103 102.346402 
L 544.773342 102.612511 
L 544.892421 102.612511 
L 545.011501 102.745573 
L 545.130581 103.144744 
L 545.24966 102.612511 
L 545.36874 102.612511 
L 545.48782 102.878619 
L 545.6069 103.94307 
L 545.845059 101.681123 
L 545.964139 102.612511 
L 546.083218 102.080294 
L 546.202298 102.612511 
L 546.559537 102.080294 
L 546.678617 102.080294 
L 546.797696 101.814185 
L 546.916776 101.947231 
L 547.035856 101.814185 
L 547.154936 101.947231 
L 547.274015 101.415014 
L 547.393095 101.415014 
L 547.631254 102.745573 
L 547.869414 103.011682 
L 548.226653 101.548061 
L 548.345732 100.350564 
L 548.464812 161.9555 
L 548.583892 101.814185 
L 548.702972 100.882781 
L 548.822051 104.34224 
L 548.941131 104.34224 
L 549.060211 101.015843 
L 549.17929 102.479464 
L 549.29837 102.479464 
L 549.41745 102.080294 
L 549.536529 102.479464 
L 549.893768 102.479464 
L 550.131928 102.346402 
L 550.608247 102.346402 
L 550.846406 102.479464 
L 555.490514 102.479464 
L 555.728673 102.612511 
L 561.563578 102.612511 
L 561.801738 102.479464 
L 564.183332 102.479464 
L 564.421491 102.612511 
L 570.613635 102.612511 
L 570.851794 102.479464 
L 574.781424 102.479464 
L 575.019584 102.612511 
L 578.472895 102.612511 
L 578.711054 102.479464 
L 579.663692 102.479464 
L 579.901851 102.612511 
L 580.735409 102.612511 
L 580.973568 102.479464 
L 581.688047 102.479464 
L 581.926206 102.346402 
L 582.045286 102.346402 
L 582.283445 102.21334 
L 585.022278 102.21334 
L 585.260437 102.080294 
L 586.570314 102.080294 
L 586.808473 102.21334 
L 588.23743 102.21334 
L 588.475589 102.346402 
L 589.190067 102.346402 
L 589.309147 102.21334 
L 589.547306 102.346402 
L 589.666386 102.21334 
L 589.785466 102.346402 
L 589.904545 102.080294 
L 590.142705 102.21334 
L 590.261784 102.080294 
L 590.499944 102.21334 
L 590.619024 102.080294 
L 590.738103 102.21334 
L 590.976263 102.080294 
L 591.095342 102.080294 
L 591.333502 102.21334 
L 591.452581 102.21334 
L 591.571661 101.814185 
L 591.690741 101.814185 
L 591.9289 102.080294 
L 592.04798 102.080294 
L 592.16706 100.48361 
L 592.286139 117.514781 
L 592.405219 103.810023 
L 592.524299 110.99505 
L 592.762458 101.015843 
L 592.881538 103.810023 
L 593.000617 103.410852 
L 593.119697 101.281952 
L 593.357857 102.479464 
L 593.476936 102.21334 
L 593.834175 102.479464 
L 594.072335 102.346402 
L 594.786813 102.346402 
L 595.024972 102.21334 
L 597.882885 102.21334 
L 598.121044 102.080294 
L 616.697476 102.080294 
L 616.935636 102.21334 
L 617.054715 102.21334 
L 617.411955 101.947231 
L 617.650114 101.947231 
L 617.888273 102.080294 
L 625.509374 102.080294 
L 625.747533 101.947231 
L 628.248207 101.947231 
L 628.486366 102.080294 
L 631.225199 102.080294 
L 631.463358 102.21334 
L 631.939677 102.21334 
L 632.177837 102.080294 
L 632.892315 102.080294 
L 633.130474 101.947231 
L 636.941024 101.947231 
L 637.179184 101.814185 
L 639.084459 101.814185 
L 639.322618 101.947231 
L 640.394335 101.947231 
L 640.632495 101.814185 
L 640.870654 101.947231 
L 640.989734 101.814185 
L 641.108814 101.947231 
L 641.346973 101.814185 
L 641.466053 101.947231 
L 641.704212 101.814185 
L 642.061451 101.814185 
L 642.180531 101.947231 
L 642.41869 101.814185 
L 642.65685 101.947231 
L 642.775929 101.947231 
L 643.014089 101.681123 
L 643.252248 101.814185 
L 643.371328 101.814185 
L 643.609487 102.080294 
L 643.847646 101.947231 
L 643.966726 102.080294 
L 644.085806 101.947231 
L 644.323965 102.080294 
L 644.443045 102.080294 
L 644.562125 102.21334 
L 644.800284 102.080294 
L 645.038443 102.080294 
L 645.157523 102.479464 
L 645.395682 102.479464 
L 645.633842 103.011682 
L 645.752922 102.346402 
L 646.110161 103.410852 
L 646.22924 101.814185 
L 646.34832 101.814185 
L 646.4674 102.479464 
L 646.705559 101.415014 
L 646.824639 101.415014 
L 646.943718 101.681123 
L 647.062798 101.415014 
L 647.181878 101.814185 
L 647.300958 101.548061 
L 647.658197 103.543899 
L 647.777276 172.067753 
L 648.015436 115.385897 
L 648.253595 103.27779 
L 648.372675 103.94307 
L 648.610834 100.217502 
L 648.848994 102.21334 
L 649.206233 101.548061 
L 649.325312 101.947231 
L 649.444392 101.947231 
L 649.801631 101.681123 
L 650.39703 101.681123 
L 650.635189 101.548061 
L 650.754269 101.548061 
L 650.992428 101.681123 
L 651.230587 101.548061 
L 651.349667 101.548061 
L 651.587827 101.415014 
L 652.302305 101.415014 
L 652.897703 101.947231 
L 653.612181 101.947231 
L 653.850341 102.080294 
L 653.96942 102.080294 
L 654.20758 101.947231 
L 657.541811 101.947231 
L 657.779971 101.814185 
L 660.399724 101.814185 
L 660.637883 101.681123 
L 661.82868 101.681123 
L 662.06684 101.548061 
L 678.380757 101.548061 
L 678.618917 101.415014 
L 680.524192 101.415014 
L 680.762351 101.548061 
L 684.096583 101.548061 
L 684.334742 101.415014 
L 686.835416 101.415014 
L 687.073575 101.281952 
L 687.907133 101.281952 
L 688.145292 101.415014 
L 688.621611 101.415014 
L 688.740691 101.281952 
L 688.97885 101.415014 
L 691.955843 101.415014 
L 692.194002 101.548061 
L 698.981544 101.548061 
L 699.100624 101.415014 
L 699.219704 101.548061 
L 699.457863 101.415014 
L 702.553935 101.415014 
L 702.673015 101.281952 
L 702.911174 101.548061 
L 703.030254 101.415014 
L 703.149334 101.548061 
L 703.268413 101.415014 
L 703.506573 101.548061 
L 704.340131 101.548061 
L 704.45921 101.415014 
L 704.57829 101.548061 
L 704.816449 101.415014 
L 705.054609 101.415014 
L 705.173688 101.548061 
L 705.292768 101.415014 
L 705.411848 101.814185 
L 705.530928 101.681123 
L 705.888167 102.21334 
L 706.007246 102.21334 
L 706.126326 102.479464 
L 706.245406 102.21334 
L 706.364485 101.148906 
L 706.483565 101.548061 
L 706.602645 102.612511 
L 706.721724 107.934762 
L 706.840804 178.454438 
L 706.959884 176.4586 
L 707.198043 117.913952 
L 707.317123 110.462817 
L 707.436203 110.329755 
L 707.674362 101.548061 
L 707.793442 101.148906 
L 707.912521 102.346402 
L 708.031601 101.814185 
L 708.150681 100.217502 
L 708.26976 100.217502 
L 708.38884 100.350564 
L 708.50792 100.749735 
L 708.627 100.749735 
L 708.746079 100.882781 
L 708.984239 100.749735 
L 709.222398 101.148906 
L 709.341478 101.148906 
L 709.698717 100.882781 
L 710.651354 100.882781 
L 710.889514 101.015843 
L 711.127673 100.882781 
L 711.246753 100.882781 
L 711.603992 100.616673 
L 711.842151 100.616673 
L 712.31847 101.015843 
L 713.628347 101.015843 
L 713.866506 100.882781 
L 714.104665 101.015843 
L 714.223745 101.015843 
L 714.461905 100.882781 
L 715.295462 100.882781 
L 715.533622 101.015843 
L 715.771781 100.882781 
L 716.009941 100.882781 
L 716.2481 101.015843 
L 717.319817 101.015843 
L 717.677056 101.281952 
L 719.106013 101.281952 
L 719.463252 101.548061 
L 723.511961 101.548061 
L 723.750121 101.681123 
L 724.464599 101.681123 
L 724.702758 101.814185 
L 726.131714 101.814185 
L 726.369874 101.681123 
L 729.465946 101.681123 
L 729.704105 101.814185 
L 734.705452 101.814185 
L 734.943612 101.947231 
L 736.134409 101.947231 
L 736.253488 101.814185 
L 736.491648 101.947231 
L 737.087046 101.947231 
L 737.206126 101.814185 
L 737.325206 101.947231 
L 737.563365 101.814185 
L 738.635082 101.814185 
L 738.873242 101.947231 
L 738.992321 101.814185 
L 739.230481 101.947231 
L 739.46864 101.814185 
L 739.706799 101.814185 
L 739.944959 101.947231 
L 740.659437 101.947231 
L 740.778517 101.814185 
L 740.897596 101.947231 
L 741.135756 101.814185 
L 741.373915 101.814185 
L 741.492995 101.947231 
L 741.612075 101.814185 
L 741.850234 101.947231 
L 747.08974 101.947231 
L 747.3279 102.080294 
L 748.637776 102.080294 
L 748.875936 102.21334 
L 750.185813 102.21334 
L 750.185813 102.21334 
" clip-path="url(#p04962dbc99)" style="fill: none; stroke: #1f77b4; stroke-width: 1.5; stroke-linecap: square"/>
   </g>
   <g id="patch_3">
    <path d="M 393.065812 311.6435 
L 393.065812 45.5315 
" style="fill: none; stroke: #000000; stroke-width: 0.8; stroke-linejoin: miter; stroke-linecap: square"/>
   </g>
   <g id="patch_4">
    <path d="M 750.185813 311.6435 
L 750.185813 45.5315 
" style="fill: none; stroke: #000000; stroke-width: 0.8; stroke-linejoin: miter; stroke-linecap: square"/>
   </g>
   <g id="patch_5">
    <path d="M 393.065812 311.6435 
L 750.185813 311.6435 
" style="fill: none; stroke: #000000; stroke-width: 0.8; stroke-linejoin: miter; stroke-linecap: square"/>
   </g>
   <g id="patch_6">
    <path d="M 393.065812 45.5315 
L 750.185813 45.5315 
" style="fill: none; stroke: #000000; stroke-width: 0.8; stroke-linejoin: miter; stroke-linecap: square"/>
   </g>
   <g id="text_18">
    <!-- Accuracy of the 09_07_25_CIFAR10_torch_model_(1024+8192-8192.0-1)_elk-horse on the validation set -->
    <g transform="translate(7.2 25.5315) scale(0.264 -0.264)">
     <defs>
      <path id="TimesNewRomanPSMT-68" d="M 1041 4444 
L 1041 2350 
Q 1388 2731 1591 2839 
Q 1794 2947 1997 2947 
Q 2241 2947 2416 2812 
Q 2591 2678 2675 2391 
Q 2734 2191 2734 1659 
L 2734 647 
Q 2734 375 2778 275 
Q 2809 200 2884 156 
Q 2959 113 3159 113 
L 3159 0 
L 1753 0 
L 1753 113 
L 1819 113 
Q 2019 113 2097 173 
Q 2175 234 2206 353 
Q 2216 403 2216 647 
L 2216 1659 
Q 2216 2128 2167 2275 
Q 2119 2422 2012 2495 
Q 1906 2569 1756 2569 
Q 1603 2569 1437 2487 
Q 1272 2406 1041 2159 
L 1041 647 
Q 1041 353 1073 281 
Q 1106 209 1195 161 
Q 1284 113 1503 113 
L 1503 0 
L 84 0 
L 84 113 
Q 275 113 384 172 
Q 447 203 484 290 
Q 522 378 522 647 
L 522 3238 
Q 522 3728 498 3840 
Q 475 3953 426 3993 
Q 378 4034 297 4034 
Q 231 4034 84 3984 
L 41 4094 
L 897 4444 
L 1041 4444 
z
" transform="scale(0.015625)"/>
      <path id="TimesNewRomanPSMT-5f" d="M 3256 -1381 
L -53 -1381 
L -53 -1119 
L 3256 -1119 
L 3256 -1381 
z
" transform="scale(0.015625)"/>
      <path id="TimesNewRomanPSMT-43" d="M 3853 4334 
L 3950 2894 
L 3853 2894 
Q 3659 3541 3300 3825 
Q 2941 4109 2438 4109 
Q 2016 4109 1675 3895 
Q 1334 3681 1139 3212 
Q 944 2744 944 2047 
Q 944 1472 1128 1050 
Q 1313 628 1683 403 
Q 2053 178 2528 178 
Q 2941 178 3256 354 
Q 3572 531 3950 1056 
L 4047 994 
Q 3728 428 3303 165 
Q 2878 -97 2294 -97 
Q 1241 -97 663 684 
Q 231 1266 231 2053 
Q 231 2688 515 3219 
Q 800 3750 1298 4042 
Q 1797 4334 2388 4334 
Q 2847 4334 3294 4109 
Q 3425 4041 3481 4041 
Q 3566 4041 3628 4100 
Q 3709 4184 3744 4334 
L 3853 4334 
z
" transform="scale(0.015625)"/>
      <path id="TimesNewRomanPSMT-49" d="M 1975 116 
L 1975 0 
L 159 0 
L 159 116 
L 309 116 
Q 572 116 691 269 
Q 766 369 766 750 
L 766 3488 
Q 766 3809 725 3913 
Q 694 3991 597 4047 
Q 459 4122 309 4122 
L 159 4122 
L 159 4238 
L 1975 4238 
L 1975 4122 
L 1822 4122 
Q 1563 4122 1444 3969 
Q 1366 3869 1366 3488 
L 1366 750 
Q 1366 428 1406 325 
Q 1438 247 1538 191 
Q 1672 116 1822 116 
L 1975 116 
z
" transform="scale(0.015625)"/>
      <path id="TimesNewRomanPSMT-46" d="M 1309 4006 
L 1309 2341 
L 2081 2341 
Q 2347 2341 2470 2458 
Q 2594 2575 2634 2922 
L 2750 2922 
L 2750 1488 
L 2634 1488 
Q 2631 1734 2570 1850 
Q 2509 1966 2401 2023 
Q 2294 2081 2081 2081 
L 1309 2081 
L 1309 750 
Q 1309 428 1350 325 
Q 1381 247 1481 191 
Q 1619 116 1769 116 
L 1922 116 
L 1922 0 
L 103 0 
L 103 116 
L 253 116 
Q 516 116 634 269 
Q 709 369 709 750 
L 709 3488 
Q 709 3809 669 3913 
Q 638 3991 541 4047 
Q 406 4122 253 4122 
L 103 4122 
L 103 4238 
L 3256 4238 
L 3297 3306 
L 3188 3306 
Q 3106 3603 2998 3742 
Q 2891 3881 2733 3943 
Q 2575 4006 2244 4006 
L 1309 4006 
z
" transform="scale(0.015625)"/>
      <path id="TimesNewRomanPSMT-52" d="M 4325 0 
L 3194 0 
L 1759 1981 
Q 1600 1975 1500 1975 
Q 1459 1975 1412 1976 
Q 1366 1978 1316 1981 
L 1316 750 
Q 1316 350 1403 253 
Q 1522 116 1759 116 
L 1925 116 
L 1925 0 
L 109 0 
L 109 116 
L 269 116 
Q 538 116 653 291 
Q 719 388 719 750 
L 719 3488 
Q 719 3888 631 3984 
Q 509 4122 269 4122 
L 109 4122 
L 109 4238 
L 1653 4238 
Q 2328 4238 2648 4139 
Q 2969 4041 3192 3777 
Q 3416 3513 3416 3147 
Q 3416 2756 3161 2468 
Q 2906 2181 2372 2063 
L 3247 847 
Q 3547 428 3762 290 
Q 3978 153 4325 116 
L 4325 0 
z
M 1316 2178 
Q 1375 2178 1419 2176 
Q 1463 2175 1491 2175 
Q 2097 2175 2405 2437 
Q 2713 2700 2713 3106 
Q 2713 3503 2464 3751 
Q 2216 4000 1806 4000 
Q 1625 4000 1316 3941 
L 1316 2178 
z
" transform="scale(0.015625)"/>
      <path id="TimesNewRomanPSMT-64" d="M 2222 322 
Q 2013 103 1813 7 
Q 1613 -88 1381 -88 
Q 913 -88 563 304 
Q 213 697 213 1313 
Q 213 1928 600 2439 
Q 988 2950 1597 2950 
Q 1975 2950 2222 2709 
L 2222 3238 
Q 2222 3728 2198 3840 
Q 2175 3953 2125 3993 
Q 2075 4034 2000 4034 
Q 1919 4034 1784 3984 
L 1744 4094 
L 2597 4444 
L 2738 4444 
L 2738 1134 
Q 2738 631 2761 520 
Q 2784 409 2836 365 
Q 2888 322 2956 322 
Q 3041 322 3181 375 
L 3216 266 
L 2366 -88 
L 2222 -88 
L 2222 322 
z
M 2222 541 
L 2222 2016 
Q 2203 2228 2109 2403 
Q 2016 2578 1861 2667 
Q 1706 2756 1559 2756 
Q 1284 2756 1069 2509 
Q 784 2184 784 1559 
Q 784 928 1059 592 
Q 1334 256 1672 256 
Q 1956 256 2222 541 
z
" transform="scale(0.015625)"/>
      <path id="TimesNewRomanPSMT-6c" d="M 1184 4444 
L 1184 647 
Q 1184 378 1223 290 
Q 1263 203 1344 158 
Q 1425 113 1647 113 
L 1647 0 
L 244 0 
L 244 113 
Q 441 113 512 153 
Q 584 194 625 287 
Q 666 381 666 647 
L 666 3247 
Q 666 3731 644 3842 
Q 622 3953 573 3993 
Q 525 4034 450 4034 
Q 369 4034 244 3984 
L 191 4094 
L 1044 4444 
L 1184 4444 
z
" transform="scale(0.015625)"/>
      <path id="TimesNewRomanPSMT-28" d="M 1988 -1253 
L 1988 -1369 
Q 1516 -1131 1200 -813 
Q 750 -359 506 256 
Q 263 872 263 1534 
Q 263 2503 741 3301 
Q 1219 4100 1988 4444 
L 1988 4313 
Q 1603 4100 1356 3731 
Q 1109 3363 987 2797 
Q 866 2231 866 1616 
Q 866 947 969 400 
Q 1050 -31 1165 -292 
Q 1281 -553 1476 -793 
Q 1672 -1034 1988 -1253 
z
" transform="scale(0.015625)"/>
      <path id="TimesNewRomanPSMT-2b" d="M 1672 441 
L 1672 2000 
L 116 2000 
L 116 2256 
L 1672 2256 
L 1672 3809 
L 1922 3809 
L 1922 2256 
L 3484 2256 
L 3484 2000 
L 1922 2000 
L 1922 441 
L 1672 441 
z
" transform="scale(0.015625)"/>
      <path id="TimesNewRomanPSMT-2d" d="M 259 1672 
L 1875 1672 
L 1875 1200 
L 259 1200 
L 259 1672 
z
" transform="scale(0.015625)"/>
      <path id="TimesNewRomanPSMT-29" d="M 144 4313 
L 144 4444 
Q 619 4209 934 3891 
Q 1381 3434 1625 2820 
Q 1869 2206 1869 1541 
Q 1869 572 1392 -226 
Q 916 -1025 144 -1369 
L 144 -1253 
Q 528 -1038 776 -670 
Q 1025 -303 1145 264 
Q 1266 831 1266 1447 
Q 1266 2113 1163 2663 
Q 1084 3094 967 3353 
Q 850 3613 656 3853 
Q 463 4094 144 4313 
z
" transform="scale(0.015625)"/>
      <path id="TimesNewRomanPSMT-6b" d="M 1047 4444 
L 1047 1594 
L 1775 2259 
Q 2006 2472 2044 2528 
Q 2069 2566 2069 2603 
Q 2069 2666 2017 2711 
Q 1966 2756 1847 2763 
L 1847 2863 
L 3091 2863 
L 3091 2763 
Q 2834 2756 2664 2684 
Q 2494 2613 2291 2428 
L 1556 1750 
L 2291 822 
Q 2597 438 2703 334 
Q 2853 188 2966 144 
Q 3044 113 3238 113 
L 3238 0 
L 1847 0 
L 1847 113 
Q 1966 116 2008 148 
Q 2050 181 2050 241 
Q 2050 313 1925 472 
L 1047 1594 
L 1047 644 
Q 1047 366 1086 278 
Q 1125 191 1197 153 
Q 1269 116 1509 113 
L 1509 0 
L 53 0 
L 53 113 
Q 272 113 381 166 
Q 447 200 481 272 
Q 528 375 528 628 
L 528 3234 
Q 528 3731 506 3842 
Q 484 3953 434 3995 
Q 384 4038 303 4038 
Q 238 4038 106 3984 
L 53 4094 
L 903 4444 
L 1047 4444 
z
" transform="scale(0.015625)"/>
      <path id="TimesNewRomanPSMT-76" d="M 53 2863 
L 1400 2863 
L 1400 2747 
L 1313 2747 
Q 1191 2747 1127 2687 
Q 1063 2628 1063 2528 
Q 1063 2419 1128 2269 
L 1794 688 
L 2463 2328 
Q 2534 2503 2534 2594 
Q 2534 2638 2509 2666 
Q 2475 2713 2422 2730 
Q 2369 2747 2206 2747 
L 2206 2863 
L 3141 2863 
L 3141 2747 
Q 2978 2734 2916 2681 
Q 2806 2588 2719 2369 
L 1703 -88 
L 1575 -88 
L 553 2328 
Q 484 2497 421 2570 
Q 359 2644 263 2694 
Q 209 2722 53 2747 
L 53 2863 
z
" transform="scale(0.015625)"/>
     </defs>
     <use xlink:href="#TimesNewRomanPSMT-41"/>
     <use xlink:href="#TimesNewRomanPSMT-63" transform="translate(72.216797 0)"/>
     <use xlink:href="#TimesNewRomanPSMT-63" transform="translate(116.601562 0)"/>
     <use xlink:href="#TimesNewRomanPSMT-75" transform="translate(160.986328 0)"/>
     <use xlink:href="#TimesNewRomanPSMT-72" transform="translate(210.986328 0)"/>
     <use xlink:href="#TimesNewRomanPSMT-61" transform="translate(244.287109 0)"/>
     <use xlink:href="#TimesNewRomanPSMT-63" transform="translate(288.671875 0)"/>
     <use xlink:href="#TimesNewRomanPSMT-79" transform="translate(333.056641 0)"/>
     <use xlink:href="#TimesNewRomanPSMT-20" transform="translate(383.056641 0)"/>
     <use xlink:href="#TimesNewRomanPSMT-6f" transform="translate(408.056641 0)"/>
     <use xlink:href="#TimesNewRomanPSMT-66" transform="translate(458.056641 0)"/>
     <use xlink:href="#TimesNewRomanPSMT-20" transform="translate(491.357422 0)"/>
     <use xlink:href="#TimesNewRomanPSMT-74" transform="translate(516.357422 0)"/>
     <use xlink:href="#TimesNewRomanPSMT-68" transform="translate(544.140625 0)"/>
     <use xlink:href="#TimesNewRomanPSMT-65" transform="translate(594.140625 0)"/>
     <use xlink:href="#TimesNewRomanPSMT-20" transform="translate(638.525391 0)"/>
     <use xlink:href="#TimesNewRomanPSMT-30" transform="translate(663.525391 0)"/>
     <use xlink:href="#TimesNewRomanPSMT-39" transform="translate(713.525391 0)"/>
     <use xlink:href="#TimesNewRomanPSMT-5f" transform="translate(763.525391 0)"/>
     <use xlink:href="#TimesNewRomanPSMT-30" transform="translate(813.525391 0)"/>
     <use xlink:href="#TimesNewRomanPSMT-37" transform="translate(863.525391 0)"/>
     <use xlink:href="#TimesNewRomanPSMT-5f" transform="translate(913.525391 0)"/>
     <use xlink:href="#TimesNewRomanPSMT-32" transform="translate(963.525391 0)"/>
     <use xlink:href="#TimesNewRomanPSMT-35" transform="translate(1013.525391 0)"/>
     <use xlink:href="#TimesNewRomanPSMT-5f" transform="translate(1063.525391 0)"/>
     <use xlink:href="#TimesNewRomanPSMT-43" transform="translate(1113.525391 0)"/>
     <use xlink:href="#TimesNewRomanPSMT-49" transform="translate(1180.224609 0)"/>
     <use xlink:href="#TimesNewRomanPSMT-46" transform="translate(1213.525391 0)"/>
     <use xlink:href="#TimesNewRomanPSMT-41" transform="translate(1261.765625 0)"/>
     <use xlink:href="#TimesNewRomanPSMT-52" transform="translate(1333.982422 0)"/>
     <use xlink:href="#TimesNewRomanPSMT-31" transform="translate(1400.681641 0)"/>
     <use xlink:href="#TimesNewRomanPSMT-30" transform="translate(1450.681641 0)"/>
     <use xlink:href="#TimesNewRomanPSMT-5f" transform="translate(1500.681641 0)"/>
     <use xlink:href="#TimesNewRomanPSMT-74" transform="translate(1550.681641 0)"/>
     <use xlink:href="#TimesNewRomanPSMT-6f" transform="translate(1578.464844 0)"/>
     <use xlink:href="#TimesNewRomanPSMT-72" transform="translate(1628.464844 0)"/>
     <use xlink:href="#TimesNewRomanPSMT-63" transform="translate(1661.765625 0)"/>
     <use xlink:href="#TimesNewRomanPSMT-68" transform="translate(1706.150391 0)"/>
     <use xlink:href="#TimesNewRomanPSMT-5f" transform="translate(1756.150391 0)"/>
     <use xlink:href="#TimesNewRomanPSMT-6d" transform="translate(1806.150391 0)"/>
     <use xlink:href="#TimesNewRomanPSMT-6f" transform="translate(1883.933594 0)"/>
     <use xlink:href="#TimesNewRomanPSMT-64" transform="translate(1933.933594 0)"/>
     <use xlink:href="#TimesNewRomanPSMT-65" transform="translate(1983.933594 0)"/>
     <use xlink:href="#TimesNewRomanPSMT-6c" transform="translate(2028.318359 0)"/>
     <use xlink:href="#TimesNewRomanPSMT-5f" transform="translate(2056.101562 0)"/>
     <use xlink:href="#TimesNewRomanPSMT-28" transform="translate(2106.101562 0)"/>
     <use xlink:href="#TimesNewRomanPSMT-31" transform="translate(2139.402344 0)"/>
     <use xlink:href="#TimesNewRomanPSMT-30" transform="translate(2189.402344 0)"/>
     <use xlink:href="#TimesNewRomanPSMT-32" transform="translate(2239.402344 0)"/>
     <use xlink:href="#TimesNewRomanPSMT-34" transform="translate(2289.402344 0)"/>
     <use xlink:href="#TimesNewRomanPSMT-2b" transform="translate(2339.402344 0)"/>
     <use xlink:href="#TimesNewRomanPSMT-38" transform="translate(2395.798828 0)"/>
     <use xlink:href="#TimesNewRomanPSMT-31" transform="translate(2445.798828 0)"/>
     <use xlink:href="#TimesNewRomanPSMT-39" transform="translate(2495.798828 0)"/>
     <use xlink:href="#TimesNewRomanPSMT-32" transform="translate(2545.798828 0)"/>
     <use xlink:href="#TimesNewRomanPSMT-2d" transform="translate(2595.798828 0)"/>
     <use xlink:href="#TimesNewRomanPSMT-38" transform="translate(2629.099609 0)"/>
     <use xlink:href="#TimesNewRomanPSMT-31" transform="translate(2679.099609 0)"/>
     <use xlink:href="#TimesNewRomanPSMT-39" transform="translate(2729.099609 0)"/>
     <use xlink:href="#TimesNewRomanPSMT-32" transform="translate(2779.099609 0)"/>
     <use xlink:href="#TimesNewRomanPSMT-2e" transform="translate(2829.099609 0)"/>
     <use xlink:href="#TimesNewRomanPSMT-30" transform="translate(2854.099609 0)"/>
     <use xlink:href="#TimesNewRomanPSMT-2d" transform="translate(2904.099609 0)"/>
     <use xlink:href="#TimesNewRomanPSMT-31" transform="translate(2937.400391 0)"/>
     <use xlink:href="#TimesNewRomanPSMT-29" transform="translate(2987.400391 0)"/>
     <use xlink:href="#TimesNewRomanPSMT-5f" transform="translate(3020.701172 0)"/>
     <use xlink:href="#TimesNewRomanPSMT-65" transform="translate(3070.701172 0)"/>
     <use xlink:href="#TimesNewRomanPSMT-6c" transform="translate(3115.085938 0)"/>
     <use xlink:href="#TimesNewRomanPSMT-6b" transform="translate(3142.869141 0)"/>
     <use xlink:href="#TimesNewRomanPSMT-2d" transform="translate(3192.869141 0)"/>
     <use xlink:href="#TimesNewRomanPSMT-68" transform="translate(3226.169922 0)"/>
     <use xlink:href="#TimesNewRomanPSMT-6f" transform="translate(3276.169922 0)"/>
     <use xlink:href="#TimesNewRomanPSMT-72" transform="translate(3326.169922 0)"/>
     <use xlink:href="#TimesNewRomanPSMT-73" transform="translate(3359.470703 0)"/>
     <use xlink:href="#TimesNewRomanPSMT-65" transform="translate(3398.386719 0)"/>
     <use xlink:href="#TimesNewRomanPSMT-20" transform="translate(3442.771484 0)"/>
     <use xlink:href="#TimesNewRomanPSMT-6f" transform="translate(3467.771484 0)"/>
     <use xlink:href="#TimesNewRomanPSMT-6e" transform="translate(3517.771484 0)"/>
     <use xlink:href="#TimesNewRomanPSMT-20" transform="translate(3567.771484 0)"/>
     <use xlink:href="#TimesNewRomanPSMT-74" transform="translate(3592.771484 0)"/>
     <use xlink:href="#TimesNewRomanPSMT-68" transform="translate(3620.554688 0)"/>
     <use xlink:href="#TimesNewRomanPSMT-65" transform="translate(3670.554688 0)"/>
     <use xlink:href="#TimesNewRomanPSMT-20" transform="translate(3714.939453 0)"/>
     <use xlink:href="#TimesNewRomanPSMT-76" transform="translate(3739.939453 0)"/>
     <use xlink:href="#TimesNewRomanPSMT-61" transform="translate(3789.939453 0)"/>
     <use xlink:href="#TimesNewRomanPSMT-6c" transform="translate(3834.324219 0)"/>
     <use xlink:href="#TimesNewRomanPSMT-69" transform="translate(3862.107422 0)"/>
     <use xlink:href="#TimesNewRomanPSMT-64" transform="translate(3889.890625 0)"/>
     <use xlink:href="#TimesNewRomanPSMT-61" transform="translate(3939.890625 0)"/>
     <use xlink:href="#TimesNewRomanPSMT-74" transform="translate(3984.275391 0)"/>
     <use xlink:href="#TimesNewRomanPSMT-69" transform="translate(4012.058594 0)"/>
     <use xlink:href="#TimesNewRomanPSMT-6f" transform="translate(4039.841797 0)"/>
     <use xlink:href="#TimesNewRomanPSMT-6e" transform="translate(4089.841797 0)"/>
     <use xlink:href="#TimesNewRomanPSMT-20" transform="translate(4139.841797 0)"/>
     <use xlink:href="#TimesNewRomanPSMT-73" transform="translate(4164.841797 0)"/>
     <use xlink:href="#TimesNewRomanPSMT-65" transform="translate(4203.757812 0)"/>
     <use xlink:href="#TimesNewRomanPSMT-74" transform="translate(4248.142578 0)"/>
    </g>
   </g>
   <g id="legend_1">
    <g id="patch_7">
     <path d="M 508.6155 94.278687 
L 734.785813 94.278687 
Q 739.185813 94.278687 739.185813 89.878687 
L 739.185813 60.9315 
Q 739.185813 56.5315 734.785813 56.5315 
L 508.6155 56.5315 
Q 504.2155 56.5315 504.2155 60.9315 
L 504.2155 89.878687 
Q 504.2155 94.278687 508.6155 94.278687 
z
" style="fill: #ffffff; opacity: 0.8; stroke: #cccccc; stroke-linejoin: miter"/>
    </g>
    <g id="line2d_32">
     <path d="M 513.0155 73.0315 
L 535.0155 73.0315 
L 557.0155 73.0315 
" style="fill: none; stroke: #1f77b4; stroke-width: 1.5; stroke-linecap: square"/>
    </g>
    <g id="text_19">
     <!-- Best accuracy 0.8 -->
     <g transform="translate(574.6155 80.7315) scale(0.22 -0.22)">
      <defs>
       <path id="TimesNewRomanPSMT-42" d="M 2956 2163 
Q 3397 2069 3616 1863 
Q 3919 1575 3919 1159 
Q 3919 844 3719 555 
Q 3519 266 3170 133 
Q 2822 0 2106 0 
L 106 0 
L 106 116 
L 266 116 
Q 531 116 647 284 
Q 719 394 719 750 
L 719 3488 
Q 719 3881 628 3984 
Q 506 4122 266 4122 
L 106 4122 
L 106 4238 
L 1938 4238 
Q 2450 4238 2759 4163 
Q 3228 4050 3475 3764 
Q 3722 3478 3722 3106 
Q 3722 2788 3528 2536 
Q 3334 2284 2956 2163 
z
M 1319 2331 
Q 1434 2309 1582 2298 
Q 1731 2288 1909 2288 
Q 2366 2288 2595 2386 
Q 2825 2484 2947 2687 
Q 3069 2891 3069 3131 
Q 3069 3503 2766 3765 
Q 2463 4028 1881 4028 
Q 1569 4028 1319 3959 
L 1319 2331 
z
M 1319 306 
Q 1681 222 2034 222 
Q 2600 222 2897 476 
Q 3194 731 3194 1106 
Q 3194 1353 3059 1581 
Q 2925 1809 2622 1940 
Q 2319 2072 1872 2072 
Q 1678 2072 1540 2065 
Q 1403 2059 1319 2044 
L 1319 306 
z
" transform="scale(0.015625)"/>
      </defs>
      <use xlink:href="#TimesNewRomanPSMT-42"/>
      <use xlink:href="#TimesNewRomanPSMT-65" transform="translate(66.699219 0)"/>
      <use xlink:href="#TimesNewRomanPSMT-73" transform="translate(111.083984 0)"/>
      <use xlink:href="#TimesNewRomanPSMT-74" transform="translate(150 0)"/>
      <use xlink:href="#TimesNewRomanPSMT-20" transform="translate(177.783203 0)"/>
      <use xlink:href="#TimesNewRomanPSMT-61" transform="translate(202.783203 0)"/>
      <use xlink:href="#TimesNewRomanPSMT-63" transform="translate(247.167969 0)"/>
      <use xlink:href="#TimesNewRomanPSMT-63" transform="translate(291.552734 0)"/>
      <use xlink:href="#TimesNewRomanPSMT-75" transform="translate(335.9375 0)"/>
      <use xlink:href="#TimesNewRomanPSMT-72" transform="translate(385.9375 0)"/>
      <use xlink:href="#TimesNewRomanPSMT-61" transform="translate(419.238281 0)"/>
      <use xlink:href="#TimesNewRomanPSMT-63" transform="translate(463.623047 0)"/>
      <use xlink:href="#TimesNewRomanPSMT-79" transform="translate(508.007812 0)"/>
      <use xlink:href="#TimesNewRomanPSMT-20" transform="translate(558.007812 0)"/>
      <use xlink:href="#TimesNewRomanPSMT-30" transform="translate(583.007812 0)"/>
      <use xlink:href="#TimesNewRomanPSMT-2e" transform="translate(633.007812 0)"/>
      <use xlink:href="#TimesNewRomanPSMT-38" transform="translate(658.007812 0)"/>
     </g>
    </g>
   </g>
  </g>
 </g>
 <defs>
  <clipPath id="p04962dbc99">
   <rect x="393.065812" y="45.5315" width="357.12" height="266.112"/>
  </clipPath>
 </defs>
</svg>
