<?xml version="1.0" encoding="utf-8" standalone="no"?>
<!DOCTYPE svg PUBLIC "-//W3C//DTD SVG 1.1//EN"
  "http://www.w3.org/Graphics/SVG/1.1/DTD/svg11.dtd">
<svg xmlns:xlink="http://www.w3.org/1999/xlink" width="1219.885875pt" height="383.265687pt" viewBox="0 0 1219.885875 383.265687" xmlns="http://www.w3.org/2000/svg" version="1.1">
 <metadata>
  <rdf:RDF xmlns:dc="http://purl.org/dc/elements/1.1/" xmlns:cc="http://creativecommons.org/ns#" xmlns:rdf="http://www.w3.org/1999/02/22-rdf-syntax-ns#">
   <cc:Work>
    <dc:type rdf:resource="http://purl.org/dc/dcmitype/StillImage"/>
    <dc:date>2025-06-06T16:47:10.186167</dc:date>
    <dc:format>image/svg+xml</dc:format>
    <dc:creator>
     <cc:Agent>
      <dc:title>Matplotlib v3.10.1, https://matplotlib.org/</dc:title>
     </cc:Agent>
    </dc:creator>
   </cc:Work>
  </rdf:RDF>
 </metadata>
 <defs>
  <style type="text/css">*{stroke-linejoin: round; stroke-linecap: butt}</style>
 </defs>
 <g id="figure_1">
  <g id="patch_1">
   <path d="M -0 383.265687 
L 1219.885875 383.265687 
L 1219.885875 0 
L -0 0 
z
" style="fill: #ffffff"/>
  </g>
  <g id="axes_1">
   <g id="patch_2">
    <path d="M 431.382938 311.6435 
L 788.502938 311.6435 
L 788.502938 45.5315 
L 431.382938 45.5315 
z
" style="fill: #ffffff"/>
   </g>
   <g id="matplotlib.axis_1">
    <g id="xtick_1">
     <g id="line2d_1">
      <path d="M 431.382938 311.6435 
L 431.382938 45.5315 
" clip-path="url(#p733dbf8e11)" style="fill: none; stroke: #b0b0b0; stroke-opacity: 0.3; stroke-width: 0.8; stroke-linecap: square"/>
     </g>
     <g id="line2d_2">
      <defs>
       <path id="m6848461ca8" d="M 0 0 
L 0 3.5 
" style="stroke: #000000; stroke-width: 0.8"/>
      </defs>
      <g>
       <use xlink:href="#m6848461ca8" x="431.382938" y="311.6435" style="stroke: #000000; stroke-width: 0.8"/>
      </g>
     </g>
     <g id="text_1">
      <!-- 0 -->
      <g transform="translate(425.882938 333.91975) scale(0.22 -0.22)">
       <defs>
        <path id="TimesNewRomanPSMT-30" d="M 231 2094 
Q 231 2819 450 3342 
Q 669 3866 1031 4122 
Q 1313 4325 1613 4325 
Q 2100 4325 2488 3828 
Q 2972 3213 2972 2159 
Q 2972 1422 2759 906 
Q 2547 391 2217 158 
Q 1888 -75 1581 -75 
Q 975 -75 572 641 
Q 231 1244 231 2094 
z
M 844 2016 
Q 844 1141 1059 588 
Q 1238 122 1591 122 
Q 1759 122 1940 273 
Q 2122 425 2216 781 
Q 2359 1319 2359 2297 
Q 2359 3022 2209 3506 
Q 2097 3866 1919 4016 
Q 1791 4119 1609 4119 
Q 1397 4119 1231 3928 
Q 1006 3669 925 3112 
Q 844 2556 844 2016 
z
" transform="scale(0.015625)"/>
       </defs>
       <use xlink:href="#TimesNewRomanPSMT-30"/>
      </g>
     </g>
    </g>
    <g id="xtick_2">
     <g id="line2d_3">
      <path d="M 563.241201 311.6435 
L 563.241201 45.5315 
" clip-path="url(#p733dbf8e11)" style="fill: none; stroke: #b0b0b0; stroke-opacity: 0.3; stroke-width: 0.8; stroke-linecap: square"/>
     </g>
     <g id="line2d_4">
      <g>
       <use xlink:href="#m6848461ca8" x="563.241201" y="311.6435" style="stroke: #000000; stroke-width: 0.8"/>
      </g>
     </g>
     <g id="text_2">
      <!-- 1 -->
      <g transform="translate(557.741201 333.91975) scale(0.22 -0.22)">
       <defs>
        <path id="TimesNewRomanPSMT-31" d="M 750 3822 
L 1781 4325 
L 1884 4325 
L 1884 747 
Q 1884 391 1914 303 
Q 1944 216 2037 169 
Q 2131 122 2419 116 
L 2419 0 
L 825 0 
L 825 116 
Q 1125 122 1212 167 
Q 1300 213 1334 289 
Q 1369 366 1369 747 
L 1369 3034 
Q 1369 3497 1338 3628 
Q 1316 3728 1258 3775 
Q 1200 3822 1119 3822 
Q 1003 3822 797 3725 
L 750 3822 
z
" transform="scale(0.015625)"/>
       </defs>
       <use xlink:href="#TimesNewRomanPSMT-31"/>
      </g>
     </g>
    </g>
    <g id="xtick_3">
     <g id="line2d_5">
      <path d="M 695.099465 311.6435 
L 695.099465 45.5315 
" clip-path="url(#p733dbf8e11)" style="fill: none; stroke: #b0b0b0; stroke-opacity: 0.3; stroke-width: 0.8; stroke-linecap: square"/>
     </g>
     <g id="line2d_6">
      <g>
       <use xlink:href="#m6848461ca8" x="695.099465" y="311.6435" style="stroke: #000000; stroke-width: 0.8"/>
      </g>
     </g>
     <g id="text_3">
      <!-- 2 -->
      <g transform="translate(689.599465 333.91975) scale(0.22 -0.22)">
       <defs>
        <path id="TimesNewRomanPSMT-32" d="M 2934 816 
L 2638 0 
L 138 0 
L 138 116 
Q 1241 1122 1691 1759 
Q 2141 2397 2141 2925 
Q 2141 3328 1894 3587 
Q 1647 3847 1303 3847 
Q 991 3847 742 3664 
Q 494 3481 375 3128 
L 259 3128 
Q 338 3706 661 4015 
Q 984 4325 1469 4325 
Q 1984 4325 2329 3994 
Q 2675 3663 2675 3213 
Q 2675 2891 2525 2569 
Q 2294 2063 1775 1497 
Q 997 647 803 472 
L 1909 472 
Q 2247 472 2383 497 
Q 2519 522 2628 598 
Q 2738 675 2819 816 
L 2934 816 
z
" transform="scale(0.015625)"/>
       </defs>
       <use xlink:href="#TimesNewRomanPSMT-32"/>
      </g>
     </g>
    </g>
    <g id="text_4">
     <!-- $\kappa  = \frac{ln(n)}{ln(d)}$ -->
     <g transform="translate(577.932938 364.185687) scale(0.22 -0.22)">
      <defs>
       <path id="STIXGeneral-Italic-3ba" d="M 979 1440 
L 998 1446 
Q 1850 2541 2464 2790 
Q 2547 2822 2630 2822 
Q 2797 2822 2886 2736 
Q 2976 2650 2976 2522 
Q 2976 2387 2893 2307 
Q 2810 2227 2682 2227 
Q 2605 2227 2502 2288 
Q 2400 2349 2336 2349 
Q 2170 2349 1990 2205 
Q 1811 2061 1414 1645 
L 2042 544 
Q 2202 262 2310 182 
Q 2419 102 2624 102 
L 2624 0 
Q 2374 -83 2182 -83 
Q 1786 -83 1555 326 
L 960 1350 
L 576 0 
L 90 0 
L 640 1978 
Q 730 2317 730 2406 
Q 730 2560 518 2560 
L 339 2560 
L 339 2650 
Q 678 2694 1306 2822 
L 1325 2803 
L 979 1440 
z
" transform="scale(0.015625)"/>
       <path id="STIXGeneral-Regular-3d" d="M 4077 2048 
L 307 2048 
L 307 2470 
L 4077 2470 
L 4077 2048 
z
M 4077 768 
L 307 768 
L 307 1190 
L 4077 1190 
L 4077 768 
z
" transform="scale(0.015625)"/>
       <path id="STIXGeneral-Italic-6c" d="M 1786 4339 
L 806 595 
Q 755 410 755 320 
Q 755 205 864 205 
Q 1037 205 1293 570 
L 1453 794 
L 1542 730 
Q 1254 275 1046 102 
Q 838 -70 576 -70 
Q 262 -70 262 288 
Q 262 397 288 480 
L 1165 3834 
Q 1184 3898 1184 3955 
Q 1184 4096 870 4096 
L 755 4096 
L 755 4198 
Q 1203 4250 1747 4371 
L 1786 4339 
z
" transform="scale(0.015625)"/>
       <path id="STIXGeneral-Italic-6e" d="M 2944 749 
L 3034 666 
Q 2707 218 2534 80 
Q 2362 -58 2138 -58 
Q 2010 -58 1923 28 
Q 1837 115 1837 288 
Q 1837 390 1939 768 
L 2221 1805 
Q 2310 2150 2310 2310 
Q 2310 2496 2157 2496 
Q 1971 2496 1750 2275 
Q 1530 2054 1210 1587 
Q 998 1274 899 1024 
Q 800 774 570 0 
L 90 0 
L 704 2240 
Q 717 2304 717 2349 
Q 717 2445 630 2480 
Q 544 2515 301 2522 
L 301 2624 
Q 550 2675 857 2729 
Q 1165 2784 1338 2822 
L 1363 2810 
L 934 1414 
Q 1408 2170 1753 2496 
Q 2099 2822 2413 2822 
Q 2611 2822 2720 2716 
Q 2829 2611 2829 2432 
Q 2829 2272 2765 2048 
L 2406 749 
Q 2317 429 2317 358 
Q 2317 243 2419 243 
Q 2541 243 2810 582 
Q 2854 634 2944 749 
z
" transform="scale(0.015625)"/>
       <path id="STIXGeneral-Regular-28" d="M 1946 -1030 
L 1869 -1133 
Q 1126 -710 716 32 
Q 307 774 307 1613 
Q 307 3386 1888 4326 
L 1946 4224 
Q 1293 3667 1075 3126 
Q 858 2586 858 1632 
Q 858 685 1082 96 
Q 1306 -493 1946 -1030 
z
" transform="scale(0.015625)"/>
       <path id="STIXGeneral-Regular-29" d="M 186 4224 
L 262 4326 
Q 992 3891 1408 3148 
Q 1824 2406 1824 1581 
Q 1824 -166 243 -1133 
L 186 -1030 
Q 845 -486 1059 54 
Q 1274 595 1274 1562 
Q 1274 2534 1059 3120 
Q 845 3706 186 4224 
z
" transform="scale(0.015625)"/>
       <path id="STIXGeneral-Italic-64" d="M 3334 4371 
L 3373 4333 
L 3123 3360 
L 2739 1958 
Q 2323 429 2323 384 
Q 2323 256 2438 256 
Q 2522 256 2614 336 
Q 2707 416 2963 710 
L 3040 646 
Q 2547 -83 2099 -83 
Q 1978 -83 1907 -6 
Q 1837 70 1837 205 
Q 1837 397 1920 774 
Q 1645 307 1379 118 
Q 1114 -70 781 -70 
Q 461 -70 278 125 
Q 96 320 96 678 
Q 96 1440 713 2131 
Q 1331 2822 1965 2822 
Q 2163 2822 2256 2732 
Q 2349 2643 2381 2451 
L 2387 2451 
L 2675 3494 
Q 2765 3808 2765 3949 
Q 2765 4051 2694 4076 
Q 2624 4102 2355 4115 
L 2355 4224 
Q 2848 4269 3334 4371 
z
M 2278 2310 
Q 2278 2477 2185 2576 
Q 2093 2675 1978 2675 
Q 1677 2675 1395 2381 
Q 1075 2042 864 1571 
Q 653 1101 653 704 
Q 653 486 752 361 
Q 851 237 1024 237 
Q 1312 237 1606 550 
Q 1901 864 2089 1350 
Q 2278 1837 2278 2310 
z
" transform="scale(0.015625)"/>
      </defs>
      <use xlink:href="#STIXGeneral-Italic-3ba" transform="translate(0 0.003125)"/>
      <use xlink:href="#STIXGeneral-Regular-3d" transform="translate(58.83999 0.003125)"/>
      <use xlink:href="#STIXGeneral-Italic-6c" transform="translate(141.779971 50.192188) scale(0.7)"/>
      <use xlink:href="#STIXGeneral-Italic-6e" transform="translate(161.239963 50.192188) scale(0.7)"/>
      <use xlink:href="#STIXGeneral-Regular-28" transform="translate(196.239952 50.192188) scale(0.7)"/>
      <use xlink:href="#STIXGeneral-Italic-6e" transform="translate(219.549944 50.192188) scale(0.7)"/>
      <use xlink:href="#STIXGeneral-Regular-29" transform="translate(254.549933 50.192188) scale(0.7)"/>
      <use xlink:href="#STIXGeneral-Italic-6c" transform="translate(141.779971 -41.257812) scale(0.7)"/>
      <use xlink:href="#STIXGeneral-Italic-6e" transform="translate(161.239963 -41.257812) scale(0.7)"/>
      <use xlink:href="#STIXGeneral-Regular-28" transform="translate(196.239952 -41.257812) scale(0.7)"/>
      <use xlink:href="#STIXGeneral-Italic-64" transform="translate(219.549944 -41.257812) scale(0.7)"/>
      <use xlink:href="#STIXGeneral-Regular-29" transform="translate(254.549933 -41.257812) scale(0.7)"/>
      <path d="M 141.779971 12.8 
L 141.779971 19.05 
L 277.859924 19.05 
L 277.859924 12.8 
L 141.779971 12.8 
z
"/>
     </g>
    </g>
   </g>
   <g id="matplotlib.axis_2">
    <g id="ytick_1">
     <g id="line2d_7">
      <path d="M 431.382938 311.6435 
L 788.502938 311.6435 
" clip-path="url(#p733dbf8e11)" style="fill: none; stroke: #b0b0b0; stroke-opacity: 0.3; stroke-width: 0.8; stroke-linecap: square"/>
     </g>
     <g id="line2d_8">
      <defs>
       <path id="m1ff82ad2ac" d="M 0 0 
L -3.5 0 
" style="stroke: #000000; stroke-width: 0.8"/>
      </defs>
      <g>
       <use xlink:href="#m1ff82ad2ac" x="431.382938" y="311.6435" style="stroke: #000000; stroke-width: 0.8"/>
      </g>
     </g>
     <g id="text_5">
      <!-- 0.0 -->
      <g transform="translate(396.882938 319.281625) scale(0.22 -0.22)">
       <defs>
        <path id="TimesNewRomanPSMT-2e" d="M 800 606 
Q 947 606 1047 504 
Q 1147 403 1147 259 
Q 1147 116 1045 14 
Q 944 -88 800 -88 
Q 656 -88 554 14 
Q 453 116 453 259 
Q 453 406 554 506 
Q 656 606 800 606 
z
" transform="scale(0.015625)"/>
       </defs>
       <use xlink:href="#TimesNewRomanPSMT-30"/>
       <use xlink:href="#TimesNewRomanPSMT-2e" transform="translate(50 0)"/>
       <use xlink:href="#TimesNewRomanPSMT-30" transform="translate(75 0)"/>
      </g>
     </g>
    </g>
    <g id="ytick_2">
     <g id="line2d_9">
      <path d="M 431.382938 285.0323 
L 788.502938 285.0323 
" clip-path="url(#p733dbf8e11)" style="fill: none; stroke: #b0b0b0; stroke-opacity: 0.3; stroke-width: 0.8; stroke-linecap: square"/>
     </g>
     <g id="line2d_10">
      <g>
       <use xlink:href="#m1ff82ad2ac" x="431.382938" y="285.0323" style="stroke: #000000; stroke-width: 0.8"/>
      </g>
     </g>
     <g id="text_6">
      <!-- 0.1 -->
      <g transform="translate(396.882938 292.670425) scale(0.22 -0.22)">
       <use xlink:href="#TimesNewRomanPSMT-30"/>
       <use xlink:href="#TimesNewRomanPSMT-2e" transform="translate(50 0)"/>
       <use xlink:href="#TimesNewRomanPSMT-31" transform="translate(75 0)"/>
      </g>
     </g>
    </g>
    <g id="ytick_3">
     <g id="line2d_11">
      <path d="M 431.382938 258.4211 
L 788.502938 258.4211 
" clip-path="url(#p733dbf8e11)" style="fill: none; stroke: #b0b0b0; stroke-opacity: 0.3; stroke-width: 0.8; stroke-linecap: square"/>
     </g>
     <g id="line2d_12">
      <g>
       <use xlink:href="#m1ff82ad2ac" x="431.382938" y="258.4211" style="stroke: #000000; stroke-width: 0.8"/>
      </g>
     </g>
     <g id="text_7">
      <!-- 0.2 -->
      <g transform="translate(396.882938 266.059225) scale(0.22 -0.22)">
       <use xlink:href="#TimesNewRomanPSMT-30"/>
       <use xlink:href="#TimesNewRomanPSMT-2e" transform="translate(50 0)"/>
       <use xlink:href="#TimesNewRomanPSMT-32" transform="translate(75 0)"/>
      </g>
     </g>
    </g>
    <g id="ytick_4">
     <g id="line2d_13">
      <path d="M 431.382938 231.8099 
L 788.502938 231.8099 
" clip-path="url(#p733dbf8e11)" style="fill: none; stroke: #b0b0b0; stroke-opacity: 0.3; stroke-width: 0.8; stroke-linecap: square"/>
     </g>
     <g id="line2d_14">
      <g>
       <use xlink:href="#m1ff82ad2ac" x="431.382938" y="231.8099" style="stroke: #000000; stroke-width: 0.8"/>
      </g>
     </g>
     <g id="text_8">
      <!-- 0.3 -->
      <g transform="translate(396.882938 239.448025) scale(0.22 -0.22)">
       <defs>
        <path id="TimesNewRomanPSMT-33" d="M 325 3431 
Q 506 3859 782 4092 
Q 1059 4325 1472 4325 
Q 1981 4325 2253 3994 
Q 2459 3747 2459 3466 
Q 2459 3003 1878 2509 
Q 2269 2356 2469 2072 
Q 2669 1788 2669 1403 
Q 2669 853 2319 450 
Q 1863 -75 997 -75 
Q 569 -75 414 31 
Q 259 138 259 259 
Q 259 350 332 419 
Q 406 488 509 488 
Q 588 488 669 463 
Q 722 447 909 348 
Q 1097 250 1169 231 
Q 1284 197 1416 197 
Q 1734 197 1970 444 
Q 2206 691 2206 1028 
Q 2206 1275 2097 1509 
Q 2016 1684 1919 1775 
Q 1784 1900 1550 2001 
Q 1316 2103 1072 2103 
L 972 2103 
L 972 2197 
Q 1219 2228 1467 2375 
Q 1716 2522 1828 2728 
Q 1941 2934 1941 3181 
Q 1941 3503 1739 3701 
Q 1538 3900 1238 3900 
Q 753 3900 428 3381 
L 325 3431 
z
" transform="scale(0.015625)"/>
       </defs>
       <use xlink:href="#TimesNewRomanPSMT-30"/>
       <use xlink:href="#TimesNewRomanPSMT-2e" transform="translate(50 0)"/>
       <use xlink:href="#TimesNewRomanPSMT-33" transform="translate(75 0)"/>
      </g>
     </g>
    </g>
    <g id="ytick_5">
     <g id="line2d_15">
      <path d="M 431.382938 205.1987 
L 788.502938 205.1987 
" clip-path="url(#p733dbf8e11)" style="fill: none; stroke: #b0b0b0; stroke-opacity: 0.3; stroke-width: 0.8; stroke-linecap: square"/>
     </g>
     <g id="line2d_16">
      <g>
       <use xlink:href="#m1ff82ad2ac" x="431.382938" y="205.1987" style="stroke: #000000; stroke-width: 0.8"/>
      </g>
     </g>
     <g id="text_9">
      <!-- 0.4 -->
      <g transform="translate(396.882938 212.836825) scale(0.22 -0.22)">
       <defs>
        <path id="TimesNewRomanPSMT-34" d="M 2978 1563 
L 2978 1119 
L 2409 1119 
L 2409 0 
L 1894 0 
L 1894 1119 
L 100 1119 
L 100 1519 
L 2066 4325 
L 2409 4325 
L 2409 1563 
L 2978 1563 
z
M 1894 1563 
L 1894 3666 
L 406 1563 
L 1894 1563 
z
" transform="scale(0.015625)"/>
       </defs>
       <use xlink:href="#TimesNewRomanPSMT-30"/>
       <use xlink:href="#TimesNewRomanPSMT-2e" transform="translate(50 0)"/>
       <use xlink:href="#TimesNewRomanPSMT-34" transform="translate(75 0)"/>
      </g>
     </g>
    </g>
    <g id="ytick_6">
     <g id="line2d_17">
      <path d="M 431.382938 178.5875 
L 788.502938 178.5875 
" clip-path="url(#p733dbf8e11)" style="fill: none; stroke: #b0b0b0; stroke-opacity: 0.3; stroke-width: 0.8; stroke-linecap: square"/>
     </g>
     <g id="line2d_18">
      <g>
       <use xlink:href="#m1ff82ad2ac" x="431.382938" y="178.5875" style="stroke: #000000; stroke-width: 0.8"/>
      </g>
     </g>
     <g id="text_10">
      <!-- 0.5 -->
      <g transform="translate(396.882938 186.225625) scale(0.22 -0.22)">
       <defs>
        <path id="TimesNewRomanPSMT-35" d="M 2778 4238 
L 2534 3706 
L 1259 3706 
L 981 3138 
Q 1809 3016 2294 2522 
Q 2709 2097 2709 1522 
Q 2709 1188 2573 903 
Q 2438 619 2231 419 
Q 2025 219 1772 97 
Q 1413 -75 1034 -75 
Q 653 -75 479 54 
Q 306 184 306 341 
Q 306 428 378 495 
Q 450 563 559 563 
Q 641 563 702 538 
Q 763 513 909 409 
Q 1144 247 1384 247 
Q 1750 247 2026 523 
Q 2303 800 2303 1197 
Q 2303 1581 2056 1914 
Q 1809 2247 1375 2428 
Q 1034 2569 447 2591 
L 1259 4238 
L 2778 4238 
z
" transform="scale(0.015625)"/>
       </defs>
       <use xlink:href="#TimesNewRomanPSMT-30"/>
       <use xlink:href="#TimesNewRomanPSMT-2e" transform="translate(50 0)"/>
       <use xlink:href="#TimesNewRomanPSMT-35" transform="translate(75 0)"/>
      </g>
     </g>
    </g>
    <g id="ytick_7">
     <g id="line2d_19">
      <path d="M 431.382938 151.9763 
L 788.502938 151.9763 
" clip-path="url(#p733dbf8e11)" style="fill: none; stroke: #b0b0b0; stroke-opacity: 0.3; stroke-width: 0.8; stroke-linecap: square"/>
     </g>
     <g id="line2d_20">
      <g>
       <use xlink:href="#m1ff82ad2ac" x="431.382938" y="151.9763" style="stroke: #000000; stroke-width: 0.8"/>
      </g>
     </g>
     <g id="text_11">
      <!-- 0.6 -->
      <g transform="translate(396.882938 159.614425) scale(0.22 -0.22)">
       <defs>
        <path id="TimesNewRomanPSMT-36" d="M 2869 4325 
L 2869 4209 
Q 2456 4169 2195 4045 
Q 1934 3922 1679 3669 
Q 1425 3416 1258 3105 
Q 1091 2794 978 2366 
Q 1428 2675 1881 2675 
Q 2316 2675 2634 2325 
Q 2953 1975 2953 1425 
Q 2953 894 2631 456 
Q 2244 -75 1606 -75 
Q 1172 -75 869 213 
Q 275 772 275 1663 
Q 275 2231 503 2743 
Q 731 3256 1154 3653 
Q 1578 4050 1965 4187 
Q 2353 4325 2688 4325 
L 2869 4325 
z
M 925 2138 
Q 869 1716 869 1456 
Q 869 1156 980 804 
Q 1091 453 1309 247 
Q 1469 100 1697 100 
Q 1969 100 2183 356 
Q 2397 613 2397 1088 
Q 2397 1622 2184 2012 
Q 1972 2403 1581 2403 
Q 1463 2403 1327 2353 
Q 1191 2303 925 2138 
z
" transform="scale(0.015625)"/>
       </defs>
       <use xlink:href="#TimesNewRomanPSMT-30"/>
       <use xlink:href="#TimesNewRomanPSMT-2e" transform="translate(50 0)"/>
       <use xlink:href="#TimesNewRomanPSMT-36" transform="translate(75 0)"/>
      </g>
     </g>
    </g>
    <g id="ytick_8">
     <g id="line2d_21">
      <path d="M 431.382938 125.3651 
L 788.502938 125.3651 
" clip-path="url(#p733dbf8e11)" style="fill: none; stroke: #b0b0b0; stroke-opacity: 0.3; stroke-width: 0.8; stroke-linecap: square"/>
     </g>
     <g id="line2d_22">
      <g>
       <use xlink:href="#m1ff82ad2ac" x="431.382938" y="125.3651" style="stroke: #000000; stroke-width: 0.8"/>
      </g>
     </g>
     <g id="text_12">
      <!-- 0.7 -->
      <g transform="translate(396.882938 133.003225) scale(0.22 -0.22)">
       <defs>
        <path id="TimesNewRomanPSMT-37" d="M 644 4238 
L 2916 4238 
L 2916 4119 
L 1503 -88 
L 1153 -88 
L 2419 3728 
L 1253 3728 
Q 900 3728 750 3644 
Q 488 3500 328 3200 
L 238 3234 
L 644 4238 
z
" transform="scale(0.015625)"/>
       </defs>
       <use xlink:href="#TimesNewRomanPSMT-30"/>
       <use xlink:href="#TimesNewRomanPSMT-2e" transform="translate(50 0)"/>
       <use xlink:href="#TimesNewRomanPSMT-37" transform="translate(75 0)"/>
      </g>
     </g>
    </g>
    <g id="ytick_9">
     <g id="line2d_23">
      <path d="M 431.382938 98.7539 
L 788.502938 98.7539 
" clip-path="url(#p733dbf8e11)" style="fill: none; stroke: #b0b0b0; stroke-opacity: 0.3; stroke-width: 0.8; stroke-linecap: square"/>
     </g>
     <g id="line2d_24">
      <g>
       <use xlink:href="#m1ff82ad2ac" x="431.382938" y="98.7539" style="stroke: #000000; stroke-width: 0.8"/>
      </g>
     </g>
     <g id="text_13">
      <!-- 0.8 -->
      <g transform="translate(396.882938 106.392025) scale(0.22 -0.22)">
       <defs>
        <path id="TimesNewRomanPSMT-38" d="M 1228 2134 
Q 725 2547 579 2797 
Q 434 3047 434 3316 
Q 434 3728 753 4026 
Q 1072 4325 1600 4325 
Q 2113 4325 2425 4047 
Q 2738 3769 2738 3413 
Q 2738 3175 2569 2928 
Q 2400 2681 1866 2347 
Q 2416 1922 2594 1678 
Q 2831 1359 2831 1006 
Q 2831 559 2490 242 
Q 2150 -75 1597 -75 
Q 994 -75 656 303 
Q 388 606 388 966 
Q 388 1247 577 1523 
Q 766 1800 1228 2134 
z
M 1719 2469 
Q 2094 2806 2194 3001 
Q 2294 3197 2294 3444 
Q 2294 3772 2109 3958 
Q 1925 4144 1606 4144 
Q 1288 4144 1088 3959 
Q 888 3775 888 3528 
Q 888 3366 970 3203 
Q 1053 3041 1206 2894 
L 1719 2469 
z
M 1375 2016 
Q 1116 1797 991 1539 
Q 866 1281 866 981 
Q 866 578 1086 336 
Q 1306 94 1647 94 
Q 1984 94 2187 284 
Q 2391 475 2391 747 
Q 2391 972 2272 1150 
Q 2050 1481 1375 2016 
z
" transform="scale(0.015625)"/>
       </defs>
       <use xlink:href="#TimesNewRomanPSMT-30"/>
       <use xlink:href="#TimesNewRomanPSMT-2e" transform="translate(50 0)"/>
       <use xlink:href="#TimesNewRomanPSMT-38" transform="translate(75 0)"/>
      </g>
     </g>
    </g>
    <g id="ytick_10">
     <g id="line2d_25">
      <path d="M 431.382938 72.1427 
L 788.502938 72.1427 
" clip-path="url(#p733dbf8e11)" style="fill: none; stroke: #b0b0b0; stroke-opacity: 0.3; stroke-width: 0.8; stroke-linecap: square"/>
     </g>
     <g id="line2d_26">
      <g>
       <use xlink:href="#m1ff82ad2ac" x="431.382938" y="72.1427" style="stroke: #000000; stroke-width: 0.8"/>
      </g>
     </g>
     <g id="text_14">
      <!-- 0.9 -->
      <g transform="translate(396.882938 79.780825) scale(0.22 -0.22)">
       <defs>
        <path id="TimesNewRomanPSMT-39" d="M 338 -88 
L 338 28 
Q 744 34 1094 217 
Q 1444 400 1770 856 
Q 2097 1313 2225 1859 
Q 1734 1544 1338 1544 
Q 891 1544 572 1889 
Q 253 2234 253 2806 
Q 253 3363 572 3797 
Q 956 4325 1575 4325 
Q 2097 4325 2469 3894 
Q 2925 3359 2925 2575 
Q 2925 1869 2578 1258 
Q 2231 647 1613 244 
Q 1109 -88 516 -88 
L 338 -88 
z
M 2275 2091 
Q 2331 2497 2331 2741 
Q 2331 3044 2228 3395 
Q 2125 3747 1936 3934 
Q 1747 4122 1506 4122 
Q 1228 4122 1018 3872 
Q 809 3622 809 3128 
Q 809 2469 1088 2097 
Q 1291 1828 1588 1828 
Q 1731 1828 1928 1897 
Q 2125 1966 2275 2091 
z
" transform="scale(0.015625)"/>
       </defs>
       <use xlink:href="#TimesNewRomanPSMT-30"/>
       <use xlink:href="#TimesNewRomanPSMT-2e" transform="translate(50 0)"/>
       <use xlink:href="#TimesNewRomanPSMT-39" transform="translate(75 0)"/>
      </g>
     </g>
    </g>
    <g id="ytick_11">
     <g id="line2d_27">
      <path d="M 431.382938 45.5315 
L 788.502938 45.5315 
" clip-path="url(#p733dbf8e11)" style="fill: none; stroke: #b0b0b0; stroke-opacity: 0.3; stroke-width: 0.8; stroke-linecap: square"/>
     </g>
     <g id="line2d_28">
      <g>
       <use xlink:href="#m1ff82ad2ac" x="431.382938" y="45.5315" style="stroke: #000000; stroke-width: 0.8"/>
      </g>
     </g>
     <g id="text_15">
      <!-- 1.0 -->
      <g transform="translate(396.882938 53.169625) scale(0.22 -0.22)">
       <use xlink:href="#TimesNewRomanPSMT-31"/>
       <use xlink:href="#TimesNewRomanPSMT-2e" transform="translate(50 0)"/>
       <use xlink:href="#TimesNewRomanPSMT-30" transform="translate(75 0)"/>
      </g>
     </g>
    </g>
    <g id="text_16">
     <!-- Accuracy -->
     <g transform="translate(388.13575 220.726094) rotate(-90) scale(0.22 -0.22)">
      <defs>
       <path id="TimesNewRomanPSMT-41" d="M 2928 1419 
L 1288 1419 
L 1000 750 
Q 894 503 894 381 
Q 894 284 986 211 
Q 1078 138 1384 116 
L 1384 0 
L 50 0 
L 50 116 
Q 316 163 394 238 
Q 553 388 747 847 
L 2238 4334 
L 2347 4334 
L 3822 809 
Q 4000 384 4145 257 
Q 4291 131 4550 116 
L 4550 0 
L 2878 0 
L 2878 116 
Q 3131 128 3220 200 
Q 3309 272 3309 375 
Q 3309 513 3184 809 
L 2928 1419 
z
M 2841 1650 
L 2122 3363 
L 1384 1650 
L 2841 1650 
z
" transform="scale(0.015625)"/>
       <path id="TimesNewRomanPSMT-63" d="M 2631 1088 
Q 2516 522 2178 217 
Q 1841 -88 1431 -88 
Q 944 -88 581 321 
Q 219 731 219 1428 
Q 219 2103 620 2525 
Q 1022 2947 1584 2947 
Q 2006 2947 2278 2723 
Q 2550 2500 2550 2259 
Q 2550 2141 2473 2067 
Q 2397 1994 2259 1994 
Q 2075 1994 1981 2113 
Q 1928 2178 1911 2362 
Q 1894 2547 1784 2644 
Q 1675 2738 1481 2738 
Q 1169 2738 978 2506 
Q 725 2200 725 1697 
Q 725 1184 976 792 
Q 1228 400 1656 400 
Q 1963 400 2206 609 
Q 2378 753 2541 1131 
L 2631 1088 
z
" transform="scale(0.015625)"/>
       <path id="TimesNewRomanPSMT-75" d="M 2709 2863 
L 2709 1128 
Q 2709 631 2732 520 
Q 2756 409 2807 365 
Q 2859 322 2928 322 
Q 3025 322 3147 375 
L 3191 266 
L 2334 -88 
L 2194 -88 
L 2194 519 
Q 1825 119 1631 15 
Q 1438 -88 1222 -88 
Q 981 -88 804 51 
Q 628 191 559 409 
Q 491 628 491 1028 
L 491 2306 
Q 491 2509 447 2587 
Q 403 2666 317 2708 
Q 231 2750 6 2747 
L 6 2863 
L 1009 2863 
L 1009 947 
Q 1009 547 1148 422 
Q 1288 297 1484 297 
Q 1619 297 1789 381 
Q 1959 466 2194 703 
L 2194 2325 
Q 2194 2569 2105 2655 
Q 2016 2741 1734 2747 
L 1734 2863 
L 2709 2863 
z
" transform="scale(0.015625)"/>
       <path id="TimesNewRomanPSMT-72" d="M 1038 2947 
L 1038 2303 
Q 1397 2947 1775 2947 
Q 1947 2947 2059 2842 
Q 2172 2738 2172 2600 
Q 2172 2478 2090 2393 
Q 2009 2309 1897 2309 
Q 1788 2309 1652 2417 
Q 1516 2525 1450 2525 
Q 1394 2525 1328 2463 
Q 1188 2334 1038 2041 
L 1038 669 
Q 1038 431 1097 309 
Q 1138 225 1241 169 
Q 1344 113 1538 113 
L 1538 0 
L 72 0 
L 72 113 
Q 291 113 397 181 
Q 475 231 506 341 
Q 522 394 522 644 
L 522 1753 
Q 522 2253 501 2348 
Q 481 2444 426 2487 
Q 372 2531 291 2531 
Q 194 2531 72 2484 
L 41 2597 
L 906 2947 
L 1038 2947 
z
" transform="scale(0.015625)"/>
       <path id="TimesNewRomanPSMT-61" d="M 1822 413 
Q 1381 72 1269 19 
Q 1100 -59 909 -59 
Q 613 -59 420 144 
Q 228 347 228 678 
Q 228 888 322 1041 
Q 450 1253 767 1440 
Q 1084 1628 1822 1897 
L 1822 2009 
Q 1822 2438 1686 2597 
Q 1550 2756 1291 2756 
Q 1094 2756 978 2650 
Q 859 2544 859 2406 
L 866 2225 
Q 866 2081 792 2003 
Q 719 1925 600 1925 
Q 484 1925 411 2006 
Q 338 2088 338 2228 
Q 338 2497 613 2722 
Q 888 2947 1384 2947 
Q 1766 2947 2009 2819 
Q 2194 2722 2281 2516 
Q 2338 2381 2338 1966 
L 2338 994 
Q 2338 584 2353 492 
Q 2369 400 2405 369 
Q 2441 338 2488 338 
Q 2538 338 2575 359 
Q 2641 400 2828 588 
L 2828 413 
Q 2478 -56 2159 -56 
Q 2006 -56 1915 50 
Q 1825 156 1822 413 
z
M 1822 616 
L 1822 1706 
Q 1350 1519 1213 1441 
Q 966 1303 859 1153 
Q 753 1003 753 825 
Q 753 600 887 451 
Q 1022 303 1197 303 
Q 1434 303 1822 616 
z
" transform="scale(0.015625)"/>
       <path id="TimesNewRomanPSMT-79" d="M 38 2863 
L 1372 2863 
L 1372 2747 
L 1306 2747 
Q 1166 2747 1095 2686 
Q 1025 2625 1025 2534 
Q 1025 2413 1128 2197 
L 1825 753 
L 2466 2334 
Q 2519 2463 2519 2588 
Q 2519 2644 2497 2672 
Q 2472 2706 2419 2726 
Q 2366 2747 2231 2747 
L 2231 2863 
L 3163 2863 
L 3163 2747 
Q 3047 2734 2984 2696 
Q 2922 2659 2847 2556 
Q 2819 2513 2741 2316 
L 1575 -541 
Q 1406 -956 1132 -1168 
Q 859 -1381 606 -1381 
Q 422 -1381 303 -1275 
Q 184 -1169 184 -1031 
Q 184 -900 270 -820 
Q 356 -741 506 -741 
Q 609 -741 788 -809 
Q 913 -856 944 -856 
Q 1038 -856 1148 -759 
Q 1259 -663 1372 -384 
L 1575 113 
L 547 2272 
Q 500 2369 397 2513 
Q 319 2622 269 2659 
Q 197 2709 38 2747 
L 38 2863 
z
" transform="scale(0.015625)"/>
      </defs>
      <use xlink:href="#TimesNewRomanPSMT-41"/>
      <use xlink:href="#TimesNewRomanPSMT-63" transform="translate(72.216797 0)"/>
      <use xlink:href="#TimesNewRomanPSMT-63" transform="translate(116.601562 0)"/>
      <use xlink:href="#TimesNewRomanPSMT-75" transform="translate(160.986328 0)"/>
      <use xlink:href="#TimesNewRomanPSMT-72" transform="translate(210.986328 0)"/>
      <use xlink:href="#TimesNewRomanPSMT-61" transform="translate(244.287109 0)"/>
      <use xlink:href="#TimesNewRomanPSMT-63" transform="translate(288.671875 0)"/>
      <use xlink:href="#TimesNewRomanPSMT-79" transform="translate(333.056641 0)"/>
     </g>
    </g>
   </g>
   <g id="line2d_29">
    <path d="M 431.382938 178.494361 
L 500.04205 177.440554 
L 518.556752 176.825841 
L 529.708181 175.921053 
L 537.713447 174.917812 
L 549.089262 173.720316 
L 560.54192 171.644631 
L 566.230393 170.598818 
L 568.700256 170.039985 
L 570.973884 169.188428 
L 575.042085 167.972295 
L 576.878141 167.487963 
L 578.603523 166.782776 
L 580.230817 166.50336 
L 584.621953 164.563402 
L 585.947776 164.310585 
L 589.592435 163.094452 
L 590.711041 162.431837 
L 591.787583 161.976786 
L 594.793768 161.335458 
L 596.635731 160.787268 
L 600.780622 159.762741 
L 601.542174 159.717504 
L 603.00708 158.961735 
L 604.400672 158.52797 
L 605.729572 158.259197 
L 606.999521 157.987775 
L 607.61398 157.870685 
L 608.804698 157.4928 
L 610.502784 157.26395 
L 611.047148 157.226692 
L 613.623765 156.343206 
L 618.170962 155.611387 
L 618.999751 155.297377 
L 619.405319 155.390516 
L 620.199619 155.273426 
L 620.972477 155.254805 
L 621.725021 155.127072 
L 624.551745 154.429847 
L 626.186473 154.485743 
L 626.815097 154.38461 
L 627.430215 154.326066 
L 629.200047 153.921581 
L 629.484668 153.865701 
L 629.766488 153.934889 
L 630.595677 153.719331 
L 631.135423 153.772562 
L 631.401527 153.740617 
L 631.665182 153.58362 
L 632.185317 153.636835 
L 632.441884 153.596928 
L 632.696172 153.698045 
L 633.445761 153.490481 
L 633.934802 153.586285 
L 634.41563 153.610236 
L 635.122064 153.557004 
L 636.705632 153.753925 
L 637.142447 153.719331 
L 638.414276 153.663451 
L 638.620862 153.75659 
L 640.221987 153.360084 
L 640.800055 153.434601 
L 642.467369 153.024787 
L 643.872073 152.902368 
L 644.212739 152.782614 
L 644.381564 152.753349 
L 644.5494 152.843823 
L 645.047083 152.801251 
L 645.37413 152.915676 
L 646.175768 152.732063 
L 647.413461 152.819872 
L 647.564478 152.958248 
L 647.864142 152.987528 
L 648.160703 152.992842 
L 648.454223 152.939627 
L 648.888938 152.918341 
L 649.032388 152.819872 
L 649.175123 152.939627 
L 652.019075 152.455295 
L 652.275756 152.460625 
L 652.530158 152.428696 
L 652.907571 152.599001 
L 653.156444 152.439339 
L 654.130852 152.548434 
L 656.097518 152.694804 
L 656.320255 152.532478 
L 656.760597 152.57505 
L 656.978254 152.476597 
L 657.408666 152.449982 
L 658.042392 152.537791 
L 658.250554 152.343535 
L 658.559988 152.553764 
L 658.967432 152.708112 
L 659.169001 152.60433 
L 659.36916 152.583028 
L 663.103871 152.194516 
L 663.278407 152.234424 
L 663.71015 152.26104 
L 663.966106 152.495219 
L 664.219793 152.487241 
L 664.471252 152.436674 
L 664.720523 152.492554 
L 665.776299 152.167901 
L 666.014509 152.186522 
L 666.32907 152.19983 
L 666.871371 152.28499 
L 667.176708 152.388772 
L 668.656379 152.654881 
L 668.800226 152.697469 
L 669.085769 152.606979 
L 669.227481 152.532478 
L 669.508816 152.375464 
L 669.856641 152.386108 
L 669.925702 152.455295 
L 670.063327 152.28499 
L 670.26853 152.364821 
L 670.40452 152.40208 
L 670.607302 152.505862 
L 671.008607 152.447317 
L 671.535079 152.46329 
L 671.987932 152.556428 
L 672.370472 152.628281 
L 672.496857 152.713426 
L 672.622688 152.670853 
L 672.810402 152.756014 
L 672.934865 152.72142 
L 673.05879 152.761327 
L 673.305041 152.734712 
L 673.670491 152.638924 
L 673.851482 152.460625 
L 674.210067 152.508527 
L 674.446653 152.452647 
L 675.316838 152.465939 
L 675.430889 152.505862 
L 676.105821 152.3728 
L 676.216779 152.364821 
L 676.327309 152.473933 
L 676.437413 152.420701 
L 676.65636 152.487241 
L 676.819479 152.3728 
L 676.873646 152.420701 
L 676.927711 152.330227 
L 677.196513 152.215802 
L 678.605988 152.447317 
L 678.758398 152.561742 
L 679.160902 152.825202 
L 679.360052 152.676167 
L 680.094765 152.500548 
L 680.335539 152.758663 
L 680.526711 152.790608 
L 680.574305 152.83851 
L 680.62182 152.771971 
L 680.952237 152.580379 
L 681.139349 152.455295 
L 681.371532 152.306277 
L 681.509943 152.444652 
L 681.555932 152.354178 
L 681.647689 152.415388 
L 681.830325 152.407394 
L 681.966541 152.338206 
L 682.102113 152.354178 
L 682.147161 152.271683 
L 682.192139 152.303612 
L 682.326649 152.335557 
L 682.371345 152.221116 
L 682.415972 152.28499 
L 682.814516 152.40208 
L 682.989881 152.359508 
L 683.164178 152.287655 
L 683.250931 152.194516 
L 683.294209 152.271683 
L 683.466669 152.263704 
L 683.680794 152.135971 
L 683.765998 152.197165 
L 683.808505 152.159922 
L 683.850949 152.112021 
L 683.89333 152.175879 
L 683.935648 152.226446 
L 683.977904 152.159922 
L 684.146307 152.146615 
L 684.355428 152.274347 
L 684.521632 152.165236 
L 684.728039 152.119999 
L 684.851172 152.202495 
L 684.973779 152.17323 
L 685.217428 152.141285 
L 685.338479 152.17323 
L 685.378716 152.250396 
L 685.459021 152.194516 
L 685.499089 152.215802 
L 685.618958 152.106691 
L 685.738328 152.117334 
L 685.975583 152.253061 
L 686.054234 152.189187 
L 686.093478 152.274347 
L 686.288897 152.215802 
L 686.444277 152.362157 
L 686.560262 152.348865 
L 686.637325 152.524483 
L 686.71418 152.46329 
L 687.019558 152.484576 
L 687.095396 152.40208 
L 687.13324 152.460625 
L 687.171034 152.484576 
L 687.208778 152.383459 
L 687.620712 152.330227 
L 687.769048 152.202495 
L 687.879799 152.213138 
L 688.100023 152.215802 
L 688.209503 152.106691 
L 688.245904 152.066784 
L 688.282258 152.114685 
L 688.46334 152.194516 
L 688.643285 152.074762 
L 688.714947 152.112021 
L 688.822105 152.133307 
L 688.893322 152.141285 
L 688.964362 152.22911 
L 689.035226 152.186522 
L 689.316942 151.949694 
L 689.491617 152.098713 
L 689.734386 151.981623 
L 689.90654 152.130642 
L 690.111769 151.978958 
L 690.179853 152.034838 
L 690.213834 152.010888 
L 690.247775 151.947029 
L 690.281676 151.973645 
L 690.450581 152.213138 
L 690.618495 152.237089 
L 690.78543 152.191852 
L 691.050519 152.306277 
L 691.247737 152.085405 
L 691.280475 152.117334 
L 691.378465 152.191852 
L 691.411054 152.146615 
L 691.734919 152.135971 
L 691.831369 152.127977 
L 691.863447 152.202495 
L 691.927495 152.157258 
L 692.086991 152.008239 
L 692.434786 152.130642 
L 692.466195 152.050811 
L 692.49757 151.973645 
L 692.560217 152.056141 
L 692.840443 152.167901 
L 692.964113 152.146615 
L 693.056516 152.245067 
L 693.087251 152.19983 
L 693.240433 152.146615 
L 693.270971 152.213138 
L 693.362391 152.170565 
L 693.392799 152.119999 
L 693.45352 152.207824 
L 693.483831 152.242418 
L 693.544359 152.14395 
L 693.874994 152.22911 
L 694.053744 152.364821 
L 694.142702 152.410058 
L 694.349203 152.476597 
L 694.40793 152.593687 
L 694.466538 152.516505 
L 694.786752 152.543121 
L 694.931128 152.737377 
L 694.959916 152.69214 
L 695.13204 152.606979 
L 695.27469 152.633595 
L 695.35994 152.537791 
L 695.529683 152.418053 
L 695.557875 152.439339 
L 695.586041 152.412723 
L 695.642288 152.511191 
L 695.754452 152.51384 
L 695.81037 152.569736 
L 695.921879 152.404745 
L 696.060657 152.553764 
L 696.226308 152.362157 
L 696.281312 152.524483 
L 696.391005 152.567072 
L 696.554761 152.391437 
L 696.581963 152.431345 
L 696.609139 152.511191 
L 696.663414 152.431345 
L 696.717586 152.31692 
L 696.771656 152.439339 
L 696.933256 152.492554 
L 697.120643 152.708112 
L 697.28029 152.569736 
L 697.675557 152.628281 
L 697.753959 152.686826 
L 697.780046 152.652232 
L 697.96199 152.572385 
L 697.987888 152.652232 
L 698.091245 152.670853 
L 698.117027 152.628281 
L 698.296848 152.556428 
L 698.37357 152.71609 
L 698.399099 152.596336 
L 698.577163 152.503197 
L 698.602511 152.537791 
L 699.179397 152.524483 
L 699.253793 152.399415 
L 699.278549 152.545785 
L 699.500394 152.386108 
L 699.524938 152.492554 
L 699.598443 152.391437 
L 699.67176 152.223781 
L 699.744889 152.300963 
L 699.842106 152.218467 
L 699.866359 152.253061 
L 700.059644 152.391437 
L 700.203756 152.298298 
L 700.227704 152.34087 
L 700.275541 152.242418 
L 700.347147 152.258375 
L 700.560895 152.537791 
L 700.678958 152.29032 
L 700.749563 152.343535 
L 700.77306 152.375464 
L 700.796537 152.263704 
L 700.819995 152.282326 
L 700.983664 152.186522 
L 701.169576 152.436674 
L 701.19273 152.330227 
L 701.262081 152.25571 
L 701.285161 152.348865 
L 701.4462 152.31692 
L 701.720177 152.306277 
L 702.148682 152.447317 
L 702.282678 152.245067 
L 702.30495 152.300963 
L 702.482504 152.481911 
L 702.504621 152.460625 
L 702.702908 152.186522 
L 702.724856 152.19983 
L 702.790598 152.258375 
L 702.812478 152.122664 
L 702.878019 152.327563 
L 702.92163 152.527148 
L 703.030367 152.649567 
L 703.052065 152.583028 
L 703.160309 152.412723 
L 703.181909 152.503197 
L 703.268145 152.588358 
L 703.289664 152.545785 
L 703.332653 152.410058 
L 703.418437 152.468603 
L 703.439843 152.489889 
L 703.461233 152.404745 
L 703.482607 152.386108 
L 703.610517 152.266369 
L 703.716674 152.434009 
L 703.759027 152.569736 
L 703.843545 152.540456 
L 704.116519 152.351514 
L 704.13741 152.444652 
L 704.22082 152.367486 
L 704.262435 152.415388 
L 704.366206 152.332892 
L 704.510858 152.388772 
L 704.572628 152.135971 
L 704.654782 152.234424 
L 704.797987 152.322249 
L 704.98106 152.106691 
L 705.00133 152.119999 
L 705.082265 152.151928 
L 705.283606 152.473933 
L 705.363748 152.465939 
L 705.323705 152.407394 
L 705.383748 152.431345 
L 705.503459 152.364821 
L 705.523362 152.415388 
L 705.563127 152.479246 
L 705.582988 152.378129 
L 705.602836 152.378129 
L 705.682091 152.215802 
L 705.741388 152.295633 
L 705.879273 152.218467 
L 705.918547 152.332892 
L 705.977357 152.221116 
L 706.055583 152.069432 
L 706.094616 152.141285 
L 706.269609 152.303612 
L 706.308351 152.194516 
L 706.366367 152.133307 
L 706.462799 152.010888 
L 706.501281 152.061454 
L 706.635563 151.97098 
L 706.654695 151.981623 
L 706.712014 152.117334 
L 706.769218 152.186522 
L 706.807291 152.058789 
L 706.940149 151.963002 
L 707.015791 152.149279 
L 707.072393 152.010888 
L 707.18526 151.880506 
L 707.222784 151.917749 
L 707.31638 152.008239 
L 707.353732 151.952343 
L 707.428292 151.896463 
L 707.465499 152.000245 
L 707.539768 152.119999 
L 707.576831 152.072097 
L 707.632335 151.88582 
L 707.687731 152.053476 
L 707.779821 151.920414 
L 707.798204 151.981623 
L 707.834934 152.069432 
L 707.908252 151.984288 
L 708.145249 152.016217 
L 708.199663 152.074762 
L 708.235881 152.024195 
L 708.344263 151.907106 
L 708.362287 151.931057 
L 708.506071 152.112021 
L 708.59557 152.178544 
L 708.631292 152.090734 
L 708.649136 152.154593 
L 708.702602 152.042833 
L 708.73819 152.08274 
L 708.79149 152.053476 
L 708.809234 152.119999 
L 708.880103 152.175879 
L 708.915472 152.112021 
L 709.021316 152.306277 
L 709.056511 152.245067 
L 709.161836 152.085405 
L 709.179353 152.125328 
L 709.266775 152.26104 
L 709.284228 152.22911 
L 709.30167 152.077427 
L 709.406099 152.090734 
L 709.458171 152.018882 
L 709.510148 152.042833 
L 709.613821 152.178544 
L 709.631064 152.106691 
L 709.7343 151.899127 
L 709.75147 151.936386 
L 709.837166 152.016217 
L 709.785779 151.883155 
L 709.854274 151.976294 
L 709.939664 151.784702 
L 710.007792 151.875177 
L 710.075759 151.827275 
L 710.160491 152.013552 
L 710.228096 151.928408 
L 710.278696 152.016217 
L 710.396415 152.106691 
L 710.530362 151.896463 
L 710.563751 151.90977 
L 710.597101 151.957672 
L 710.647053 151.867198 
L 710.696918 151.723493 
L 710.746697 151.819296 
L 710.796389 151.994931 
L 710.862512 151.88582 
L 711.059968 151.611733 
L 711.092745 151.792681 
L 711.174525 151.744779 
L 711.288625 151.523907 
L 711.321142 151.558501 
L 711.369848 151.611733 
L 711.386065 151.550523 
L 711.402273 151.755422 
L 711.499327 151.638332 
L 711.724516 151.396175 
L 711.740534 151.409483 
L 711.900217 151.460049 
L 712.027325 151.345608 
L 712.090668 151.555837 
L 712.153871 151.497292 
L 712.16965 151.345608 
L 712.264142 151.433433 
L 712.295571 151.56648 
L 712.389649 151.542545 
L 712.467812 151.390861 
L 712.514607 151.444077 
L 712.561327 151.542545 
L 712.639023 151.462698 
L 712.731981 151.247156 
L 712.793786 151.300371 
L 712.901625 151.207232 
L 712.932361 151.268442 
L 713.085551 151.42279 
L 713.177073 151.244491 
L 713.237926 151.350938 
L 713.253119 151.369559 
L 713.283481 151.255134 
L 713.298649 151.295058 
L 713.344108 151.241826 
L 713.389494 151.377553 
L 713.480051 151.606403 
L 713.570323 151.523907 
L 713.705199 151.329652 
L 713.615352 151.547858 
L 713.720146 151.436098 
L 714.164969 151.39351 
L 714.297079 151.625025 
L 714.559485 151.457384 
L 714.689792 151.598425 
L 714.704234 151.56648 
L 714.747516 151.460049 
L 714.805124 151.619711 
L 714.93432 151.484 
L 715.034404 151.60109 
L 715.091439 151.529237 
L 715.261863 151.233848 
L 715.276019 151.249821 
L 715.318447 151.175303 
L 715.459418 151.007647 
L 715.669582 150.957096 
L 715.711431 150.765489 
L 715.767134 150.989026 
L 715.850485 151.058214 
L 715.794945 150.96241 
L 715.864354 151.01829 
L 715.988868 150.67768 
L 716.016464 150.773468 
L 716.085339 150.619135 
L 716.126585 150.685658 
L 716.154049 150.784111 
L 716.181486 150.659043 
L 716.236283 150.690972 
L 716.345563 150.78944 
L 716.372818 150.749517 
L 716.42725 150.669686 
L 716.549345 150.549947 
L 716.589928 150.637757 
L 716.657439 150.595184 
L 716.697869 150.611141 
L 716.684399 150.643086 
L 716.711333 150.643086 
L 716.751688 150.632427 
L 716.818819 150.725566 
L 716.965955 150.30246 
L 716.992626 150.326411 
L 717.085779 150.438171 
L 717.12561 150.41422 
L 717.19187 150.435506 
L 717.218332 150.368983 
L 717.244769 150.251894 
L 717.29757 150.416885 
L 717.323934 150.323746 
L 717.350274 150.368983 
L 717.389738 150.214635 
L 717.455391 150.326411 
L 717.533977 150.30246 
L 717.560124 150.387605 
L 717.612347 150.411556 
L 717.690504 150.262537 
L 717.833239 150.361005 
L 718.155016 150.001742 
L 718.167812 149.895311 
L 718.180603 150.009736 
L 718.257225 150.01505 
L 718.409859 150.108188 
L 718.422541 149.951191 
L 718.460556 150.18537 
L 718.511164 150.009736 
L 718.523802 150.121496 
L 718.586908 149.860717 
L 718.612112 149.916597 
L 718.712706 150.076259 
L 718.68759 149.868695 
L 718.737799 150.041665 
L 718.775398 149.828772 
L 718.862936 149.967148 
L 718.887898 150.01505 
L 718.925301 149.959169 
L 719.062026 149.717012 
L 719.123958 149.637181 
L 719.185757 149.834101 
L 719.272052 149.63983 
L 719.321247 149.685082 
L 719.333533 149.719676 
L 719.382622 149.602587 
L 719.419384 149.653137 
L 719.480549 149.690396 
L 719.565962 149.759584 
L 719.504979 149.674424 
L 719.578143 149.690396 
L 719.723912 149.52274 
L 719.760239 149.594593 
L 719.748135 149.493475 
L 719.832754 149.554685 
L 720.156819 149.333813 
L 719.856885 149.63983 
L 720.168751 149.357764 
L 720.216431 149.464195 
L 720.252138 149.32317 
L 720.264031 149.336462 
L 720.287801 149.235345 
L 720.347141 149.426952 
L 720.358994 149.40565 
L 720.382686 149.429601 
L 720.406358 149.357764 
L 720.477258 149.251318 
L 720.500852 149.312511 
L 720.559752 149.498805 
L 720.606785 149.37905 
L 720.712329 149.214059 
L 720.73573 149.245988 
L 720.770796 149.312511 
L 720.805819 149.131563 
L 720.864096 149.206081 
L 720.933872 149.041089 
L 720.968697 149.131563 
L 721.003479 149.030446 
L 721.107573 148.836174 
L 721.119115 148.846817 
L 721.22279 149.075683 
L 721.234286 149.038425 
L 721.326091 148.828196 
L 721.348996 148.900049 
L 721.451843 149.150185 
L 721.474648 149.104948 
L 721.622439 148.900049 
L 721.66776 148.830861 
L 721.72431 148.942621 
L 721.837078 148.721749 
L 721.84833 148.852147 
L 721.949402 148.769651 
L 722.10592 148.43169 
L 722.139349 148.559423 
L 722.194976 148.381124 
L 722.438462 147.992596 
L 722.460495 148.067113 
L 722.526492 148.059135 
L 722.581373 148.162917 
L 722.603296 148.205489 
L 722.712661 148.048492 
L 722.75629 148.019211 
L 722.734483 147.968661 
L 722.767187 147.984617 
L 722.886779 147.651986 
L 722.897627 147.715844 
L 723.210425 147.372569 
L 723.264012 147.428449 
L 723.338866 147.473686 
L 723.30681 147.327316 
L 723.370887 147.433763 
L 723.50923 147.263458 
L 723.519844 147.337975 
L 723.530454 147.383212 
L 723.562261 147.226199 
L 723.615194 147.343289 
L 723.699684 147.180962 
L 723.741836 147.210227 
L 723.752364 147.25548 
L 723.804948 147.095802 
L 723.815453 147.007992 
L 723.846945 147.146368 
L 723.920292 147.045251 
L 723.951669 147.167654 
L 724.014321 146.989355 
L 724.211817 146.643416 
L 724.232527 146.685988 
L 724.242876 146.768484 
L 724.335853 146.648745 
L 724.428529 146.720582 
L 724.449083 146.6168 
L 724.592548 146.446495 
L 724.612985 146.526326 
L 724.674207 146.310768 
L 724.694586 146.44383 
L 724.83683 146.217629 
L 724.867219 146.369313 
L 724.917796 146.201673 
L 724.968284 146.326741 
L 725.068993 146.305454 
L 724.988454 146.276174 
L 725.079045 146.268196 
L 725.527748 145.424617 
L 725.557413 145.555015 
L 725.577172 145.685412 
L 725.63637 145.395353 
L 725.774022 145.155844 
L 725.656075 145.40866 
L 725.783829 145.209075 
L 726.057072 145.326165 
L 726.076489 145.264955 
L 726.289222 144.83119 
L 726.346966 144.86312 
L 726.375795 144.772646 
L 726.462107 144.812569 
L 726.509946 144.666199 
L 726.557706 144.857806 
L 726.605386 144.620962 
L 726.643472 144.527823 
L 726.728983 144.389447 
L 726.766906 144.416063 
L 726.795315 144.365496 
L 726.852049 144.479921 
L 726.899241 144.501208 
L 726.870935 144.429371 
L 726.90867 144.424041 
L 727.030968 144.184548 
L 727.040354 144.195191 
L 727.077867 144.227121 
L 727.068493 144.144625 
L 727.087237 144.155268 
L 727.227429 143.796021 
L 727.124689 144.163246 
L 727.236751 143.811977 
L 727.32051 143.891824 
L 727.283314 143.753432 
L 727.357658 143.846571 
L 727.515001 143.476681 
L 727.616352 143.271782 
L 727.551897 143.500632 
L 727.662303 143.372899 
L 727.70818 143.404828 
L 727.717346 143.309025 
L 727.753983 143.332976 
L 727.845371 142.995014 
L 727.772284 143.359591 
L 727.900064 143.168 
L 727.909169 143.186621 
L 727.936468 143.082839 
L 727.96374 143.090818 
L 728.117797 142.635767 
L 728.144897 142.760835 
L 728.235048 142.96575 
L 728.289002 142.877925 
L 728.503808 142.454819 
L 728.521636 142.489413 
L 728.530546 142.545293 
L 728.601725 142.337729 
L 728.734711 142.063626 
L 728.752396 142.100885 
L 728.867082 142.247239 
L 728.928646 141.935894 
L 728.990078 141.978466 
L 729.016366 142.023719 
L 729.025124 141.874684 
L 729.060126 141.680428 
L 729.138725 141.770902 
L 729.173588 141.810826 
L 729.191004 141.685742 
L 729.251877 141.486172 
L 729.295278 141.683093 
L 729.30395 141.685742 
L 729.31262 141.600597 
L 729.537116 141.142881 
L 729.597258 141.164168 
L 729.60584 141.087001 
L 729.802505 140.706452 
L 729.811025 140.722425 
L 729.83657 140.618643 
L 729.879095 140.674523 
L 730.006291 140.395106 
L 730.09921 140.413728 
L 730.057012 140.328583 
L 730.107643 140.368491 
L 730.267386 140.051816 
L 730.275769 140.134311 
L 730.342744 139.804344 
L 730.401219 139.62338 
L 730.459575 139.743135 
L 730.575931 139.724498 
L 730.584224 139.695233 
L 730.73309 139.439768 
L 730.741337 139.492983 
L 730.799005 139.245496 
L 730.807233 139.288084 
L 730.938572 138.99003 
L 731.240006 138.36201 
L 731.296679 138.433862 
L 731.31285 138.484429 
L 731.33709 138.338059 
L 731.393572 138.063972 
L 731.466027 138.130495 
L 731.570362 137.835106 
L 731.634379 137.856392 
L 731.642371 137.888337 
L 731.690277 137.744632 
L 731.7142 137.763253 
L 731.833517 137.470529 
L 731.738103 137.827128 
L 731.85732 137.510453 
L 731.86525 137.574311 
L 731.944431 137.345461 
L 732.172826 137.084666 
L 732.29025 136.733397 
L 732.329285 136.783964 
L 732.344884 136.762678 
L 732.360474 136.898389 
L 732.368266 136.978236 
L 732.453839 136.773321 
L 732.484893 136.640258 
L 732.624221 136.161257 
L 732.631942 136.235774 
L 732.785919 136.110706 
L 732.647377 136.286341 
L 732.793596 136.124014 
L 732.808944 136.182559 
L 732.824284 135.977644 
L 732.870254 136.030875 
L 733.015342 135.7142 
L 733.159699 135.386882 
L 733.030572 135.730157 
L 733.174852 135.421476 
L 733.2807 135.16601 
L 733.536142 134.450164 
L 733.318408 135.213912 
L 733.566045 134.479429 
L 733.573516 134.551282 
L 733.633212 134.295816 
L 733.67046 134.41557 
L 733.729955 134.410241 
L 733.744809 134.314453 
L 734.069672 133.556035 
L 734.077012 133.598607 
L 734.106356 133.494826 
L 734.208822 133.00783 
L 734.252624 133.050418 
L 734.376367 132.765672 
L 734.514038 132.446348 
L 734.571808 132.587373 
L 734.615058 132.382474 
L 734.629461 132.401095 
L 735.079467 131.31271 
L 735.150251 131.413827 
L 735.234961 130.87628 
L 735.263142 131.153032 
L 735.340497 130.886923 
L 735.361557 130.940139 
L 735.710307 130.179072 
L 735.744949 130.205672 
L 735.765714 129.966179 
L 735.814109 129.716027 
L 735.883101 129.865061 
L 735.917535 130.035367 
L 735.979413 129.731999 
L 735.98628 129.734664 
L 735.993145 129.694741 
L 736.000009 129.686762 
L 736.136939 129.194453 
L 736.18471 129.095984 
L 736.259618 129.303564 
L 737.011368 127.270467 
L 737.017992 127.289089 
L 737.103964 126.945798 
L 737.15015 127.062888 
L 738.552447 123.616736 
L 738.590088 123.85358 
L 738.621418 123.965357 
L 738.646457 123.795036 
L 738.765093 123.395865 
L 738.771324 123.441118 
L 738.777553 123.504976 
L 738.796232 123.22556 
L 738.858408 123.233538 
L 739.000903 122.871626 
L 739.019437 122.994045 
L 739.037959 122.762531 
L 739.105771 122.90622 
L 739.240915 122.355366 
L 739.253169 122.424569 
L 739.763168 121.00885 
L 739.277662 122.493757 
L 739.769185 121.022158 
L 739.781215 121.056752 
L 739.799251 120.849172 
L 739.847292 120.63363 
L 739.925186 120.678867 
L 739.943131 120.758698 
L 739.967041 120.428715 
L 739.973016 120.450017 
L 740.110083 120.042852 
L 740.169473 120.167936 
L 740.216897 120.356879 
L 740.187266 120.143985 
L 740.293793 120.274383 
L 740.40581 119.824646 
L 740.305605 120.300983 
L 740.441093 119.867234 
L 740.493936 119.699578 
L 740.505665 119.723528 
L 740.634375 119.356287 
L 740.640212 119.388232 
L 740.646048 119.412167 
L 740.71016 119.265813 
L 740.721802 119.316379 
L 740.861131 118.305145 
L 740.890073 118.432877 
L 741.01131 118.656414 
L 741.14924 118.172098 
L 741.05736 118.717623 
L 741.160705 118.180077 
L 741.183619 118.283858 
L 741.217957 118.148147 
L 741.423125 116.942657 
L 741.440156 117.014509 
L 741.457177 116.838875 
L 741.462848 116.849518 
L 741.576041 116.503578 
L 741.479855 116.86549 
L 741.604269 116.511557 
L 741.609912 116.543486 
L 741.677533 116.309306 
L 741.688788 116.362538 
L 741.857081 115.888849 
L 741.862673 115.896828 
L 741.873855 116.032555 
L 741.93528 115.577504 
L 741.940857 115.582817 
L 742.124308 114.872301 
L 742.152001 114.992056 
L 742.223879 115.258164 
L 742.268022 115.119788 
L 742.273535 115.090508 
L 742.317601 115.247521 
L 742.367095 115.183663 
L 742.824957 113.887682 
L 742.884376 113.938248 
L 742.90056 114.087267 
L 742.938287 113.78923 
L 742.98672 113.871725 
L 743.013592 113.650854 
L 743.163611 113.070719 
L 743.190318 113.086691 
L 743.195656 113.171852 
L 743.286256 112.857842 
L 743.403079 112.450692 
L 743.408377 112.503908 
L 743.503589 112.099423 
L 743.545803 112.12071 
L 743.666825 111.673637 
L 743.672075 111.702917 
L 743.776878 111.218586 
L 743.698312 111.769441 
L 743.803019 111.311725 
L 744.026851 110.425574 
L 744.068302 110.59323 
L 744.094178 110.651775 
L 744.140697 110.398958 
L 744.361915 109.906649 
L 744.156186 110.412266 
L 744.367039 109.909314 
L 744.372163 109.967858 
L 744.438684 109.651183 
L 744.464227 109.826818 
L 744.632248 109.134923 
L 744.637324 109.20944 
L 744.682969 108.810269 
L 744.723482 108.842199 
L 744.733601 108.852858 
L 744.743716 108.786319 
L 744.779093 108.448357 
L 744.85979 108.642629 
L 744.879928 108.743746 
L 744.900053 108.509567 
L 744.920163 108.267409 
L 745.020504 108.40312 
L 745.025511 108.461665 
L 745.075541 108.035879 
L 745.100524 108.038543 
L 745.105518 108.057181 
L 745.130474 107.780413 
L 745.14045 107.785743 
L 745.225109 107.620751 
L 745.165376 107.881546 
L 745.249961 107.785743 
L 745.274792 107.998636 
L 745.354105 107.647367 
L 745.398623 107.791056 
L 745.423325 107.530277 
L 745.428263 107.546234 
L 745.571091 106.713314 
L 745.585826 106.798459 
L 745.595645 106.878306 
L 745.639789 106.64944 
L 745.786446 106.276885 
L 745.659387 106.7346 
L 745.791321 106.319457 
L 745.796196 106.3035 
L 745.815687 106.540344 
L 745.840032 106.519042 
L 745.903232 106.681369 
L 745.864356 106.460498 
L 745.937205 106.471141 
L 746.038884 106.024084 
L 746.072697 106.109229 
L 746.077524 106.082629 
L 746.130569 106.346073 
L 746.145019 106.284863 
L 746.149834 106.322122 
L 746.173896 105.976182 
L 746.226763 106.074635 
L 746.284325 105.622248 
L 746.370451 105.691436 
L 746.380005 105.707409 
L 746.413417 105.494516 
L 746.58464 104.536512 
L 746.589382 104.680217 
L 746.669869 104.302333 
L 746.688775 104.366207 
L 746.693499 104.352899 
L 746.731266 104.531199 
L 746.745416 104.446038 
L 746.764271 104.650937 
L 746.797239 104.299668 
L 746.853666 104.467324 
L 746.86306 104.507248 
L 746.886531 104.286376 
L 747.050291 103.748829 
L 747.115534 103.647696 
L 747.189915 103.456105 
L 747.21312 103.68762 
L 747.227033 103.618432 
L 747.245575 103.676977 
L 747.277993 103.42949 
L 747.342719 103.128787 
L 747.402692 103.232569 
L 747.439535 103.059599 
L 747.476332 102.897257 
L 747.536025 103.224575 
L 747.545198 103.088864 
L 747.554368 103.118144 
L 747.558951 103.056934 
L 747.586438 102.85202 
L 747.659608 103.064913 
L 747.668741 103.025005 
L 747.696123 102.841377 
L 747.705244 102.873322 
L 747.787207 103.011697 
L 747.83264 102.538009 
L 747.846256 102.615191 
L 747.859866 102.439557 
L 747.873469 102.447535 
L 748.00012 102.098931 
L 748.054228 102.239971 
L 748.09924 102.043051 
L 748.233854 101.478889 
L 748.148672 102.114888 
L 748.24728 101.505504 
L 748.265173 101.548077 
L 748.318783 101.356469 
L 748.381201 101.319227 
L 748.363381 101.49751 
L 748.40346 101.438965 
L 748.40791 101.484202 
L 748.479013 101.111647 
L 748.576492 101.260682 
L 748.487889 101.031816 
L 748.60302 101.103669 
L 748.735291 100.472983 
L 748.744087 100.563457 
L 748.788029 100.667239 
L 748.814361 100.355894 
L 748.853815 100.558144 
L 748.884463 100.659261 
L 748.910707 100.417103 
L 748.932559 100.507577 
L 749.045919 99.892864 
L 749.05897 99.996646 
L 749.085055 100.108406 
L 749.154498 99.709236 
L 749.210797 99.653356 
L 749.189157 99.818347 
L 749.228097 99.775775 
L 749.331681 99.813033 
L 749.258348 99.616097 
L 749.335989 99.762467 
L 749.357518 99.76778 
L 749.460636 99.411198 
L 749.640202 98.788491 
L 749.648725 98.958812 
L 749.657245 99.030664 
L 749.733814 98.698017 
L 749.814414 98.610207 
L 749.776263 98.807128 
L 749.82712 98.76454 
L 749.831354 98.857679 
L 749.920123 98.47448 
L 750.113613 97.660182 
L 750.180609 97.766629 
L 750.201513 97.622923 
L 750.29331 96.98426 
L 750.347415 97.154565 
L 750.438746 97.322221 
L 750.376507 96.957644 
L 750.459463 97.162543 
L 750.513255 96.843219 
L 750.60406 96.952315 
L 750.624657 97.072069 
L 750.698685 96.795317 
L 750.833907 96.35091 
L 750.727422 96.840554 
L 750.837995 96.414768 
L 750.948142 96.683541 
L 750.97663 96.550495 
L 751.118645 96.111401 
L 751.151007 96.433405 
L 751.203518 96.06085 
L 751.30825 95.696273 
L 751.324329 95.885216 
L 751.344415 95.941096 
L 751.364487 95.688295 
L 751.476629 95.496688 
L 751.432625 95.818692 
L 751.480626 95.53926 
L 751.484622 95.579184 
L 751.532536 95.382263 
L 751.580369 95.430165 
L 751.735278 95.19865 
L 751.774863 95.267838 
L 751.86176 94.889953 
L 751.91692 94.599894 
L 751.995537 94.788836 
L 752.011235 94.818101 
L 752.062192 94.67706 
L 752.214523 94.269911 
L 752.081767 94.770199 
L 752.222313 94.357736 
L 752.241779 94.597229 
L 752.315629 94.176772 
L 752.323391 94.277889 
L 752.547595 93.455613 
L 752.562993 93.479564 
L 752.605294 93.588659 
L 752.586074 93.413025 
L 752.624502 93.421019 
L 752.727999 92.92338 
L 752.747124 93.029826 
L 752.873031 93.202796 
L 752.754771 92.995232 
L 752.876838 93.130959 
L 752.880644 93.085706 
L 752.926279 93.365139 
L 752.983221 93.184175 
L 753.002176 93.343837 
L 753.051402 93.021848 
L 753.175981 92.713151 
L 753.081653 93.045799 
L 753.194809 92.832906 
L 753.221148 93.051113 
L 753.28126 92.670579 
L 753.378675 92.167626 
L 753.427258 92.290045 
L 753.475759 92.590748 
L 753.434725 92.247457 
L 753.542778 92.290045 
L 753.561367 92.420427 
L 753.650426 91.797736 
L 753.65413 91.757812 
L 753.742901 91.991992 
L 753.746594 91.960063 
L 753.750286 92.007964 
L 753.824033 91.723219 
L 753.8498 91.904183 
L 754.536877 90.427254 
L 753.864514 91.960063 
L 754.551242 90.56563 
L 754.612211 90.781188 
L 754.651593 90.528371 
L 754.662324 90.634817 
L 754.687348 90.576273 
L 754.744462 89.982846 
L 754.812138 90.299521 
L 754.840586 90.437897 
L 754.915126 90.248955 
L 754.978864 90.012126 
L 755.03893 90.075985 
L 755.067153 90.243641 
L 755.127035 89.940274 
L 755.144624 90.038726 
L 755.267441 89.623599 
L 755.288443 89.724716 
L 755.29544 89.589005 
L 755.298938 89.631577 
L 755.379273 89.386754 
L 755.354847 89.698116 
L 755.417614 89.503844 
L 755.521922 89.088717 
L 755.542737 89.269665 
L 755.556606 89.424013 
L 755.605095 89.248379 
L 755.660409 89.322896 
L 755.781039 88.838565 
L 755.798231 88.905088 
L 755.822281 88.867845 
L 755.853174 89.054123 
L 755.880606 89.14991 
L 755.935392 88.790663 
L 755.949072 88.881137 
L 756.078707 88.487296 
L 755.976412 88.89711 
L 756.082111 88.532533 
L 756.112724 88.644309 
L 756.12632 88.455367 
L 756.133115 88.455367 
L 756.245007 87.981678 
L 756.255157 88.026931 
L 756.359834 88.178615 
L 756.285587 87.997651 
L 756.376681 88.080147 
L 756.477558 87.720899 
L 756.497691 87.835324 
L 756.574736 87.907177 
L 756.524513 87.734207 
L 756.60817 87.853946 
L 756.72488 87.595831 
L 756.758139 87.534622 
L 756.738188 87.686305 
L 756.817907 87.62776 
L 756.821224 87.691619 
L 756.887479 87.244562 
L 756.910633 87.374944 
L 756.913939 87.305756 
L 756.976682 87.529292 
L 757.019532 87.393581 
L 757.098473 87.563886 
L 757.121456 87.295113 
L 757.137861 87.132786 
L 757.206662 87.460104 
L 757.236097 87.201974 
L 757.288352 87.377609 
L 757.317703 87.058285 
L 757.333996 87.060934 
L 757.340511 86.957152 
L 757.412076 87.188666 
L 757.444546 86.986432 
L 757.493183 87.220611 
L 757.544971 86.927887 
L 757.554671 86.959816 
L 757.635375 86.770874 
L 757.561135 86.975789 
L 757.680471 86.824105 
L 757.686907 86.885299 
L 757.747981 86.475485 
L 757.776865 86.635163 
L 757.876133 86.217371 
L 757.898501 86.262608 
L 757.927233 86.209377 
L 757.914467 86.350417 
L 757.943184 86.342439 
L 757.946373 86.408962 
L 757.994165 86.169469 
L 758.048233 86.222684 
L 758.1022 85.953911 
L 758.162395 86.100281 
L 758.29186 85.719732 
L 758.181378 86.18809 
L 758.295011 85.741018 
L 758.395641 85.480239 
L 758.417607 85.637236 
L 758.420743 85.685138 
L 758.505301 85.371127 
L 758.549048 85.56007 
L 758.614544 85.29661 
L 758.636342 85.408386 
L 758.695426 85.214114 
L 758.726474 85.347177 
L 758.763687 85.070425 
L 758.732679 85.392414 
L 758.816323 85.317912 
L 758.918223 85.599977 
L 758.834877 85.299275 
L 758.933631 85.570713 
L 758.958266 85.482888 
L 759.087255 84.974621 
L 759.102572 85.070425 
L 759.108696 85.112997 
L 759.197356 84.884147 
L 759.264432 84.735113 
L 759.313116 84.764393 
L 759.331351 84.924055 
L 759.395083 84.759063 
L 759.422354 84.761728 
L 759.525141 84.474333 
L 759.53721 84.618023 
L 759.627561 84.735113 
L 759.588444 84.410459 
L 759.642592 84.594088 
L 759.777516 84.083141 
L 759.786488 84.165637 
L 759.801436 84.218868 
L 759.837279 83.944765 
L 759.864132 83.971381 
L 759.953459 83.88622 
L 759.914785 84.240154 
L 759.971291 83.920814 
L 759.974262 83.992667 
L 760.051398 83.707921 
L 760.07213 83.798411 
L 760.163763 83.48705 
L 760.125372 83.928793 
L 760.190311 83.545594 
L 760.207997 83.457785 
L 760.213889 83.361981 
L 760.281568 83.63342 
L 760.313879 83.51633 
L 760.387179 83.734537 
L 760.433993 83.62809 
L 760.565247 83.338031 
L 760.439839 83.636084 
L 760.568157 83.39924 
L 760.573976 83.497693 
L 760.652417 83.154418 
L 760.669819 83.20232 
L 760.701696 83.303437 
L 760.791339 82.8271 
L 760.811542 83.016042 
L 760.843262 82.787176 
L 760.906595 82.93886 
L 760.920969 82.805813 
L 761.007064 83.173039 
L 761.047154 83.231584 
L 761.107183 82.992091 
L 761.110038 83.005399 
L 761.221177 82.664773 
L 761.121457 83.018691 
L 761.232551 82.699367 
L 761.280842 82.946854 
L 761.334718 82.582277 
L 761.399802 82.207057 
L 761.459097 82.33479 
L 761.605396 81.922311 
L 761.639051 82.073995 
L 761.641854 82.087303 
L 761.683864 81.853124 
L 761.70904 81.911668 
L 761.720222 81.807886 
L 761.792801 82.089968 
L 761.815096 82.02078 
L 761.831806 81.948927 
L 761.820667 82.060687 
L 761.845724 82.07666 
L 761.848506 82.143183 
L 761.912433 81.767979 
L 761.942957 81.879739 
L 762.067488 81.435331 
L 762.081291 81.544443 
L 762.163972 81.201152 
L 762.166724 81.243724 
L 762.293027 81.576372 
L 762.342299 81.414045 
L 762.410592 81.323571 
L 762.350503 81.467261 
L 762.459662 81.358165 
L 762.462386 81.384765 
L 762.497769 81.21446 
L 762.562979 81.304934 
L 762.665925 81.190509 
L 762.614498 81.430002 
L 762.676739 81.21446 
L 762.690252 81.392759 
L 762.755025 81.084062 
L 762.779278 81.100035 
L 762.935079 80.72748 
L 762.787357 81.185179 
L 762.945792 80.743436 
L 763.001974 81.038825 
L 763.058045 80.879163 
L 763.148595 80.700864 
L 763.106019 80.948351 
L 763.177829 80.775366 
L 763.20438 80.879163 
L 763.217646 81.004231 
L 763.297114 80.597082 
L 763.299759 80.655627 
L 763.307693 80.684891 
L 763.460653 80.229841 
L 763.536828 80.562488 
L 763.578768 80.357573 
L 763.665077 80.253791 
L 763.631108 80.474663 
L 763.685962 80.360238 
L 763.751127 80.376211 
L 763.714653 80.165982 
L 763.777152 80.251127 
L 763.784955 80.176625 
L 763.878423 80.466685 
L 763.891381 80.522565 
L 763.927631 80.189933 
L 763.945739 80.253791 
L 763.974171 80.288385 
L 764.082471 79.910517 
L 764.141605 79.870593 
L 764.205742 80.104773 
L 764.315724 79.649722 
L 764.215991 80.112751 
L 764.338691 79.838664 
L 764.486254 79.551253 
L 764.35909 79.97171 
L 764.488792 79.580534 
L 764.564814 79.285145 
L 764.597694 79.644392 
L 764.602749 79.708267 
L 764.688551 79.426185 
L 764.701147 79.474087 
L 764.771583 79.60182 
L 764.741418 79.391591 
L 764.794187 79.460779 
L 764.916939 79.082895 
L 764.824297 79.593842 
L 764.921938 79.112175 
L 765.029208 79.356997 
L 764.949417 79.005728 
L 765.046633 79.28781 
L 765.252435 78.840737 
L 765.309204 78.949848 
L 765.38554 79.176034 
L 765.410122 78.91259 
L 765.417492 78.96847 
L 765.422405 78.891304 
L 765.449408 79.261194 
L 765.525372 78.981778 
L 765.562057 79.128148 
L 765.627971 78.705026 
L 765.63041 78.784857 
L 765.635286 78.85671 
L 765.66209 78.48149 
L 765.735063 78.681075 
L 765.935993 78.010466 
L 765.744779 78.713004 
L 766.037134 78.271261 
L 766.056358 78.42561 
L 766.121146 78.122242 
L 766.135523 78.178122 
L 766.19296 78.265932 
L 766.26698 77.728385 
L 766.388339 78.071676 
L 766.414447 78.260618 
L 766.440532 77.965229 
L 766.442902 77.973208 
L 766.530459 77.813546 
L 766.447642 78.077005 
L 766.558799 77.943943 
L 766.565879 78.026439 
L 766.624816 77.76033 
L 766.657767 77.866777 
L 766.75405 77.560745 
L 766.721209 78.005153 
L 766.770456 77.720407 
L 766.83365 77.550102 
L 766.805581 77.912014 
L 766.882704 77.629933 
L 766.913029 77.717742 
L 766.987538 77.5022 
L 767.152166 77.148266 
L 767.017752 77.667191 
L 767.154478 77.150931 
L 767.244499 77.486227 
L 767.276745 77.35583 
L 767.354907 77.108343 
L 767.299756 77.390424 
L 767.405368 77.172217 
L 767.416824 77.23874 
L 767.46489 77.039155 
L 767.467177 77.063106 
L 767.583565 76.799662 
L 767.487751 77.180195 
L 767.592673 76.858207 
L 767.672249 76.887471 
L 767.635899 76.653292 
L 767.683599 76.791684 
L 767.722155 76.703858 
L 767.753868 76.890136 
L 767.79233 76.823613 
L 767.826224 76.935373 
L 767.848797 76.632006 
L 767.900649 76.781025 
L 767.999583 76.482987 
L 768.017535 76.629341 
L 768.113831 76.594747 
L 768.026506 76.701194 
L 768.127242 76.669264 
L 768.209805 76.820948 
L 768.167437 76.581455 
L 768.240982 76.799662 
L 768.360923 76.565483 
L 768.29213 76.847564 
L 768.363139 76.594747 
L 768.449445 76.693215 
L 768.389723 76.451058 
L 768.4627 76.554839 
L 768.577318 76.278088 
L 768.623476 76.544196 
L 768.687097 76.328638 
L 768.702432 76.137047 
L 768.735266 76.440415 
L 768.798639 76.296709 
L 769.119892 75.870923 
L 768.816096 76.397826 
L 769.139312 76.035914 
L 769.143625 76.094459 
L 769.214708 75.812378 
L 769.244812 75.916176 
L 769.358488 75.668689 
L 769.311356 75.942775 
L 769.364909 75.689975 
L 769.518583 76.003985 
L 769.382025 75.540956 
L 769.558999 75.77247 
L 769.614212 75.596836 
L 769.590866 75.807064 
L 769.673554 75.60215 
L 769.698949 75.753833 
L 769.747559 75.559577 
L 769.789762 75.708596 
L 769.93069 75.264188 
L 769.976813 75.421201 
L 770.029137 75.594171 
L 770.001941 75.322733 
L 770.087626 75.450466 
L 770.191774 75.179044 
L 770.108486 75.567556 
L 770.206325 75.31209 
L 770.220868 75.421201 
L 770.247857 75.133807 
L 770.303831 75.184357 
L 770.365895 74.939535 
L 770.316254 75.242902 
L 770.421639 75.104526 
L 770.43195 75.131142 
L 770.495795 74.91027 
L 770.524581 75.056625 
L 770.543072 75.077911 
L 770.659901 74.859704 
L 770.759954 75.008723 
L 770.725282 74.849061 
L 770.772182 74.907606 
L 770.792549 74.835753 
L 770.851533 75.120499 
L 770.867783 75.059289 
L 770.896198 75.20033 
L 770.969137 74.811802 
L 770.97116 74.843731 
L 771.031796 74.439247 
L 771.114459 74.551007 
L 771.218957 74.734636 
L 771.144642 74.399324 
L 771.22698 74.62286 
L 771.32907 74.335465 
L 771.347049 74.415296 
L 771.424825 74.500457 
L 771.365016 74.290228 
L 771.454682 74.354087 
L 771.544069 74.10395 
L 771.466617 74.359416 
L 771.565876 74.244991 
L 771.56984 74.324822 
L 771.666768 74.101286 
L 771.672692 74.165144 
L 771.674666 74.133215 
L 771.76337 74.404653 
L 771.783044 74.167809 
L 771.79091 74.197089 
L 771.84395 73.875085 
L 771.885135 74.069357 
L 772.006384 73.853799 
L 771.912559 74.157166 
L 772.008336 73.875085 
L 772.039541 73.808562 
L 772.080446 74.069357 
L 772.117405 73.893722 
L 772.121292 73.954916 
L 772.204749 73.678164 
L 772.224123 73.779281 
L 772.309212 73.688807 
L 772.330445 73.909679 
L 772.343948 73.978867 
L 772.363228 73.813891 
L 772.403674 73.824534 
L 772.436373 73.707444 
L 772.482474 73.922987 
L 772.517001 73.739374 
L 772.555316 73.50253 
L 772.534249 73.797918 
L 772.629882 73.627598 
L 772.696636 73.678164 
L 772.730905 73.374797 
L 772.825885 73.467936 
L 772.768935 73.294966 
L 772.839157 73.316252 
L 772.937557 73.24175 
L 772.882722 73.505194 
L 772.950777 73.276344 
L 772.956441 73.353511 
L 773.022439 73.164568 
L 773.056321 73.185854 
L 773.073247 73.087402 
L 773.159603 73.38544 
L 773.163351 73.332225 
L 773.172721 73.459957 
L 773.204554 73.260372 
L 773.277451 73.438671 
L 773.283051 73.459957 
L 773.338988 73.199162 
L 773.365055 73.244399 
L 773.378079 73.111353 
L 773.446825 73.345532 
L 773.474648 73.260372 
L 773.561651 73.366818 
L 773.493181 73.185854 
L 773.58567 73.257707 
L 773.587516 73.265685 
L 773.641019 73.0395 
L 773.661288 73.103359 
L 773.666813 73.058122 
L 773.725682 73.249729 
L 773.733032 73.228443 
L 773.80643 73.308274 
L 773.789932 73.140617 
L 773.833906 73.172547 
L 773.927126 72.794678 
L 773.959956 72.815964 
L 773.961778 72.823942 
L 774.000029 72.581785 
L 774.016407 72.6084 
L 774.021864 72.507267 
L 774.116288 72.821294 
L 774.121727 72.768062 
L 774.125351 72.826607 
L 774.186903 72.528569 
L 774.228466 72.677588 
L 774.304209 72.419458 
L 774.251932 72.799992 
L 774.349199 72.565812 
L 774.397709 72.805321 
L 774.356391 72.51791 
L 774.46047 72.621708 
L 774.517731 72.334298 
L 774.553461 72.629686 
L 774.573094 72.573806 
L 774.674612 72.78137 
L 774.59093 72.440744 
L 774.685277 72.589763 
L 774.727898 72.313011 
L 774.768684 72.624357 
L 774.805873 72.46736 
L 774.874809 72.507267 
L 774.887165 72.289061 
L 774.910097 72.305033 
L 775.087639 72.581785 
L 775.117414 72.427436 
L 775.225745 72.084162 
L 775.122665 72.443409 
L 775.243179 72.179949 
L 775.305855 72.049568 
L 775.258861 72.238494 
L 775.351036 72.1773 
L 775.456758 72.307682 
L 775.404812 72.08681 
L 775.465407 72.257131 
L 775.480967 72.251802 
L 775.491336 72.137377 
L 775.587934 72.017622 
L 775.54485 72.238494 
L 775.601707 72.126734 
L 775.60687 72.166657 
L 775.692786 71.865939 
L 775.699649 71.799416 
L 775.778446 72.022952 
L 775.781867 72.006979 
L 775.786998 72.132063 
L 775.845083 71.91917 
L 775.891125 71.980364 
L 775.940496 71.818037 
L 775.911565 72.062859 
L 775.989782 71.991023 
L 776.061011 72.070854 
L 775.999968 71.897884 
L 776.101634 72.03093 
L 776.202941 71.738206 
L 776.216421 71.908527 
L 776.239997 71.759492 
L 776.297171 72.08681 
L 776.327393 71.895219 
L 776.340815 71.961742 
L 776.364289 71.687655 
L 776.377693 71.7462 
L 776.459661 71.42686 
L 776.386068 71.762157 
L 776.493049 71.480076 
L 776.536397 71.432174 
L 776.621234 71.812723 
L 776.627877 71.905862 
L 776.674337 71.692969 
L 776.719066 71.416217 
L 776.788506 71.530642 
L 776.902222 71.71692 
L 776.844596 71.413553 
L 776.903867 71.629111 
L 776.926883 71.317749 
L 777.018765 71.535972 
L 777.087483 71.674348 
L 777.031866 71.480076 
L 777.123412 71.485405 
L 777.204903 71.219297 
L 777.243936 71.365651 
L 777.349384 71.413553 
L 777.266681 71.203324 
L 777.352623 71.389602 
L 777.44315 71.13945 
L 777.40762 71.456125 
L 777.465737 71.28582 
L 777.497974 71.349678 
L 777.555908 71.107521 
L 777.563946 71.144779 
L 777.679432 70.993096 
L 777.580013 71.22994 
L 777.685834 71.017047 
L 777.727414 71.227275 
L 777.746584 71.006404 
L 777.797642 71.059619 
L 777.805612 71.150109 
L 777.869289 70.955837 
L 777.90584 71.064948 
L 777.907428 71.011717 
L 777.994638 71.315084 
L 778.01363 71.171395 
L 778.210721 70.583282 
L 778.02154 71.216632 
L 778.264096 70.70835 
L 778.323633 71.110185 
L 778.390854 71.006404 
L 778.482833 70.59126 
L 778.517054 70.692393 
L 778.563654 70.506116 
L 778.619474 70.716344 
L 778.6427 70.790846 
L 778.682914 70.577968 
L 778.727702 70.649805 
L 778.809375 70.721658 
L 778.778582 70.519423 
L 778.829373 70.607233 
L 778.860111 70.79884 
L 778.941407 70.516759 
L 778.982734 70.649805 
L 778.964374 70.506116 
L 779.053005 70.572639 
L 779.142884 70.383696 
L 779.065209 70.588611 
L 779.16721 70.412977 
L 779.212764 70.495473 
L 779.252186 70.319838 
L 779.255216 70.327816 
L 779.283987 70.216056 
L 779.3354 70.458214 
L 779.364091 70.349103 
L 779.401798 70.460879 
L 779.451496 70.224035 
L 779.466538 70.240007 
L 779.47105 70.186776 
L 779.531133 70.439577 
L 779.573116 70.330481 
L 779.592587 70.482165 
L 779.674819 70.098966 
L 779.677805 70.136209 
L 779.758305 70.439577 
L 779.79847 70.242656 
L 779.931948 69.928646 
L 779.991073 70.093637 
L 779.999931 70.189441 
L 780.070698 69.936624 
L 780.101603 70.10428 
L 780.122188 69.941953 
L 780.214639 70.112258 
L 780.220499 70.152182 
L 780.292184 69.856793 
L 780.317013 69.960575 
L 780.427749 69.782291 
L 780.338903 70.120253 
L 780.432111 69.894052 
L 780.446648 70.093637 
L 780.525018 69.795599 
L 780.543852 69.939289 
L 780.620512 69.737054 
L 780.564122 69.989855 
L 780.658044 69.81955 
L 780.679675 69.867436 
L 780.754535 69.611971 
L 780.755973 69.635921 
L 780.857865 69.529475 
L 780.803376 69.745033 
L 780.872187 69.56142 
L 780.969387 69.761005 
L 780.880777 69.505524 
L 780.990784 69.585371 
L 781.079055 69.516167 
L 781.009315 69.681158 
L 781.103211 69.585371 
L 781.148626 69.715752 
L 781.176973 69.425693 
L 781.203878 69.502875 
L 781.205293 69.494881 
L 781.288673 69.646564 
L 781.33943 69.72906 
L 781.32393 69.540118 
L 781.397127 69.627943 
L 781.48836 69.404407 
L 781.40556 69.662537 
L 781.520573 69.41505 
L 781.647671 69.638586 
L 781.542961 69.343197 
L 781.651851 69.603992 
L 781.696405 69.699796 
L 781.724215 69.441665 
L 781.736721 69.516167 
L 781.808872 69.340548 
L 781.768656 69.627943 
L 781.843495 69.593349 
L 781.847646 69.665202 
L 781.923659 69.348527 
L 781.95125 69.433687 
L 781.952629 69.468281 
L 782.044861 69.164914 
L 782.051732 69.167563 
L 782.070962 69.06911 
L 782.094296 69.292647 
L 782.172394 69.56142 
L 782.118982 69.210151 
L 782.205214 69.337884 
L 782.231169 69.151606 
L 782.317065 69.274009 
L 782.323871 69.348527 
L 782.34292 69.103704 
L 782.425769 69.223459 
L 782.478613 69.026522 
L 782.508379 69.332554 
L 782.531359 69.236751 
L 782.594796 69.449644 
L 782.635215 69.194178 
L 782.711854 68.880168 
L 782.750766 68.965328 
L 782.752107 68.959999 
L 782.808368 69.178206 
L 782.81372 69.148941 
L 782.896554 69.244745 
L 782.84715 68.986615 
L 782.921891 69.114347 
L 782.956526 69.24208 
L 783.107895 68.874838 
L 783.185922 69.250058 
L 783.220239 69.074424 
L 783.338713 68.741792 
L 783.340027 68.7551 
L 783.440996 69.005236 
L 783.392522 68.747106 
L 783.460623 68.925405 
L 783.553347 68.632681 
L 783.469779 68.975971 
L 783.588529 68.699204 
L 783.614562 68.864195 
L 783.649669 68.627367 
L 783.700304 68.744457 
L 783.810352 68.494305 
L 783.704195 68.773721 
L 783.828437 68.643324 
L 783.937995 68.818958 
L 783.859413 68.515591 
L 783.941854 68.7551 
L 784.013795 68.574136 
L 783.955999 68.874838 
L 784.056104 68.731149 
L 784.09963 68.917427 
L 784.146922 68.635346 
L 784.160967 68.640659 
L 784.167348 68.616708 
L 784.21198 68.848239 
L 784.246363 68.826937 
L 784.248908 68.856217 
L 784.321352 68.478332 
L 784.341654 68.499634 
L 784.446742 68.845574 
L 784.3518 68.449068 
L 784.492202 68.760414 
L 784.584165 68.246818 
L 784.608052 68.475684 
L 784.675834 68.685912 
L 784.714673 68.374551 
L 784.715925 68.398501 
L 784.720932 68.302698 
L 784.76221 68.574136 
L 784.822145 68.422452 
L 784.850819 68.49164 
L 784.895643 68.252147 
L 784.930458 68.345286 
L 785.0594 68.401166 
L 785.165588 68.619373 
L 785.087837 68.369237 
L 785.17175 68.520921 
L 785.187764 68.627367 
L 785.188995 68.653967 
L 785.264015 68.331978 
L 785.294705 68.563493 
L 785.374343 68.355929 
L 785.298385 68.574136 
L 785.415913 68.473019 
L 785.417134 68.488976 
L 785.500088 68.188273 
L 785.508614 68.252147 
L 785.525658 68.119085 
L 785.605871 68.411809 
L 785.616792 68.29472 
L 785.647106 68.438425 
L 785.695541 68.148365 
L 785.724563 68.238839 
L 785.740271 68.334643 
L 785.798195 68.068519 
L 785.827113 68.188273 
L 785.853596 68.012638 
L 785.919695 68.334643 
L 785.930497 68.324 
L 785.940095 68.390523 
L 786.02753 68.055227 
L 786.031118 68.119085 
L 786.047854 67.980709 
L 786.100388 68.257461 
L 786.1433 68.041919 
L 786.180199 68.20691 
L 786.200415 67.999331 
L 786.253857 68.071183 
L 786.316672 68.132393 
L 786.324958 68.254796 
L 786.410048 67.999331 
L 786.427743 68.185608 
L 786.506648 68.00466 
L 786.435997 68.193602 
L 786.539559 68.127063 
L 786.577125 68.198916 
L 786.601751 67.938137 
L 786.641577 68.00466 
L 786.752563 67.890235 
L 786.6486 68.103113 
L 786.758393 67.900878 
L 786.780534 67.839669 
L 786.874733 68.127063 
L 786.982507 67.970066 
L 786.930409 68.188273 
L 786.990603 68.009974 
L 787.087573 68.036589 
L 787.052978 67.781124 
L 787.095639 67.906192 
L 787.154337 67.829026 
L 787.191105 68.06587 
L 787.196846 68.023282 
L 787.222092 68.103113 
L 787.249608 67.799745 
L 787.304561 68.020633 
L 787.411872 67.725244 
L 787.359408 68.031276 
L 787.420986 67.786453 
L 787.484705 67.940786 
L 787.533536 67.852976 
L 787.578885 67.74653 
L 787.597005 67.962088 
L 787.652425 67.847647 
L 787.653555 67.871598 
L 787.734792 67.632105 
L 787.758443 67.770481 
L 787.84724 67.616132 
L 787.823662 67.898214 
L 787.875283 67.703958 
L 787.959248 67.781124 
L 787.982714 67.530972 
L 788.037393 67.794432 
L 788.096419 67.653391 
L 788.212999 67.847647 
L 788.104206 67.560252 
L 788.215215 67.810404 
L 788.325795 67.504372 
L 788.33021 67.554923 
L 788.423854 67.754508 
L 788.353374 67.421876 
L 788.446943 67.711936 
L 788.496356 67.443163 
L 788.502938 67.491064 
" clip-path="url(#p733dbf8e11)" style="fill: none; stroke: #1f77b4; stroke-width: 1.5; stroke-linecap: square"/>
   </g>
   <g id="patch_3">
    <path d="M 431.382938 311.6435 
L 431.382938 45.5315 
" style="fill: none; stroke: #000000; stroke-width: 0.8; stroke-linejoin: miter; stroke-linecap: square"/>
   </g>
   <g id="patch_4">
    <path d="M 788.502938 311.6435 
L 788.502938 45.5315 
" style="fill: none; stroke: #000000; stroke-width: 0.8; stroke-linejoin: miter; stroke-linecap: square"/>
   </g>
   <g id="patch_5">
    <path d="M 431.382938 311.6435 
L 788.502938 311.6435 
" style="fill: none; stroke: #000000; stroke-width: 0.8; stroke-linejoin: miter; stroke-linecap: square"/>
   </g>
   <g id="patch_6">
    <path d="M 431.382938 45.5315 
L 788.502938 45.5315 
" style="fill: none; stroke: #000000; stroke-width: 0.8; stroke-linejoin: miter; stroke-linecap: square"/>
   </g>
   <g id="text_17">
    <!-- Accuracy of the 03_06_25_teacher_(d-100_k-1_n-10e6)_torch_model_(100+2048-2048.1-1) on the validation set -->
    <g transform="translate(7.2 25.5315) scale(0.264 -0.264)">
     <defs>
      <path id="TimesNewRomanPSMT-20" transform="scale(0.015625)"/>
      <path id="TimesNewRomanPSMT-6f" d="M 1600 2947 
Q 2250 2947 2644 2453 
Q 2978 2031 2978 1484 
Q 2978 1100 2793 706 
Q 2609 313 2286 112 
Q 1963 -88 1566 -88 
Q 919 -88 538 428 
Q 216 863 216 1403 
Q 216 1797 411 2186 
Q 606 2575 925 2761 
Q 1244 2947 1600 2947 
z
M 1503 2744 
Q 1338 2744 1170 2645 
Q 1003 2547 900 2300 
Q 797 2053 797 1666 
Q 797 1041 1045 587 
Q 1294 134 1700 134 
Q 2003 134 2200 384 
Q 2397 634 2397 1244 
Q 2397 2006 2069 2444 
Q 1847 2744 1503 2744 
z
" transform="scale(0.015625)"/>
      <path id="TimesNewRomanPSMT-66" d="M 1319 2638 
L 1319 756 
Q 1319 356 1406 250 
Q 1522 113 1716 113 
L 1975 113 
L 1975 0 
L 266 0 
L 266 113 
L 394 113 
Q 519 113 622 175 
Q 725 238 764 344 
Q 803 450 803 756 
L 803 2638 
L 247 2638 
L 247 2863 
L 803 2863 
L 803 3050 
Q 803 3478 940 3775 
Q 1078 4072 1361 4255 
Q 1644 4438 1997 4438 
Q 2325 4438 2600 4225 
Q 2781 4084 2781 3909 
Q 2781 3816 2700 3733 
Q 2619 3650 2525 3650 
Q 2453 3650 2373 3701 
Q 2294 3753 2178 3923 
Q 2063 4094 1966 4153 
Q 1869 4213 1750 4213 
Q 1606 4213 1506 4136 
Q 1406 4059 1362 3898 
Q 1319 3738 1319 3069 
L 1319 2863 
L 2056 2863 
L 2056 2638 
L 1319 2638 
z
" transform="scale(0.015625)"/>
      <path id="TimesNewRomanPSMT-74" d="M 1031 3803 
L 1031 2863 
L 1700 2863 
L 1700 2644 
L 1031 2644 
L 1031 788 
Q 1031 509 1111 412 
Q 1191 316 1316 316 
Q 1419 316 1516 380 
Q 1613 444 1666 569 
L 1788 569 
Q 1678 263 1478 108 
Q 1278 -47 1066 -47 
Q 922 -47 784 33 
Q 647 113 581 261 
Q 516 409 516 719 
L 516 2644 
L 63 2644 
L 63 2747 
Q 234 2816 414 2980 
Q 594 3144 734 3369 
Q 806 3488 934 3803 
L 1031 3803 
z
" transform="scale(0.015625)"/>
      <path id="TimesNewRomanPSMT-68" d="M 1041 4444 
L 1041 2350 
Q 1388 2731 1591 2839 
Q 1794 2947 1997 2947 
Q 2241 2947 2416 2812 
Q 2591 2678 2675 2391 
Q 2734 2191 2734 1659 
L 2734 647 
Q 2734 375 2778 275 
Q 2809 200 2884 156 
Q 2959 113 3159 113 
L 3159 0 
L 1753 0 
L 1753 113 
L 1819 113 
Q 2019 113 2097 173 
Q 2175 234 2206 353 
Q 2216 403 2216 647 
L 2216 1659 
Q 2216 2128 2167 2275 
Q 2119 2422 2012 2495 
Q 1906 2569 1756 2569 
Q 1603 2569 1437 2487 
Q 1272 2406 1041 2159 
L 1041 647 
Q 1041 353 1073 281 
Q 1106 209 1195 161 
Q 1284 113 1503 113 
L 1503 0 
L 84 0 
L 84 113 
Q 275 113 384 172 
Q 447 203 484 290 
Q 522 378 522 647 
L 522 3238 
Q 522 3728 498 3840 
Q 475 3953 426 3993 
Q 378 4034 297 4034 
Q 231 4034 84 3984 
L 41 4094 
L 897 4444 
L 1041 4444 
z
" transform="scale(0.015625)"/>
      <path id="TimesNewRomanPSMT-65" d="M 681 1784 
Q 678 1147 991 784 
Q 1303 422 1725 422 
Q 2006 422 2214 576 
Q 2422 731 2563 1106 
L 2659 1044 
Q 2594 616 2278 264 
Q 1963 -88 1488 -88 
Q 972 -88 605 314 
Q 238 716 238 1394 
Q 238 2128 614 2539 
Q 991 2950 1559 2950 
Q 2041 2950 2350 2633 
Q 2659 2316 2659 1784 
L 681 1784 
z
M 681 1966 
L 2006 1966 
Q 1991 2241 1941 2353 
Q 1863 2528 1708 2628 
Q 1553 2728 1384 2728 
Q 1125 2728 920 2526 
Q 716 2325 681 1966 
z
" transform="scale(0.015625)"/>
      <path id="TimesNewRomanPSMT-5f" d="M 3256 -1381 
L -53 -1381 
L -53 -1119 
L 3256 -1119 
L 3256 -1381 
z
" transform="scale(0.015625)"/>
      <path id="TimesNewRomanPSMT-28" d="M 1988 -1253 
L 1988 -1369 
Q 1516 -1131 1200 -813 
Q 750 -359 506 256 
Q 263 872 263 1534 
Q 263 2503 741 3301 
Q 1219 4100 1988 4444 
L 1988 4313 
Q 1603 4100 1356 3731 
Q 1109 3363 987 2797 
Q 866 2231 866 1616 
Q 866 947 969 400 
Q 1050 -31 1165 -292 
Q 1281 -553 1476 -793 
Q 1672 -1034 1988 -1253 
z
" transform="scale(0.015625)"/>
      <path id="TimesNewRomanPSMT-64" d="M 2222 322 
Q 2013 103 1813 7 
Q 1613 -88 1381 -88 
Q 913 -88 563 304 
Q 213 697 213 1313 
Q 213 1928 600 2439 
Q 988 2950 1597 2950 
Q 1975 2950 2222 2709 
L 2222 3238 
Q 2222 3728 2198 3840 
Q 2175 3953 2125 3993 
Q 2075 4034 2000 4034 
Q 1919 4034 1784 3984 
L 1744 4094 
L 2597 4444 
L 2738 4444 
L 2738 1134 
Q 2738 631 2761 520 
Q 2784 409 2836 365 
Q 2888 322 2956 322 
Q 3041 322 3181 375 
L 3216 266 
L 2366 -88 
L 2222 -88 
L 2222 322 
z
M 2222 541 
L 2222 2016 
Q 2203 2228 2109 2403 
Q 2016 2578 1861 2667 
Q 1706 2756 1559 2756 
Q 1284 2756 1069 2509 
Q 784 2184 784 1559 
Q 784 928 1059 592 
Q 1334 256 1672 256 
Q 1956 256 2222 541 
z
" transform="scale(0.015625)"/>
      <path id="TimesNewRomanPSMT-2d" d="M 259 1672 
L 1875 1672 
L 1875 1200 
L 259 1200 
L 259 1672 
z
" transform="scale(0.015625)"/>
      <path id="TimesNewRomanPSMT-6b" d="M 1047 4444 
L 1047 1594 
L 1775 2259 
Q 2006 2472 2044 2528 
Q 2069 2566 2069 2603 
Q 2069 2666 2017 2711 
Q 1966 2756 1847 2763 
L 1847 2863 
L 3091 2863 
L 3091 2763 
Q 2834 2756 2664 2684 
Q 2494 2613 2291 2428 
L 1556 1750 
L 2291 822 
Q 2597 438 2703 334 
Q 2853 188 2966 144 
Q 3044 113 3238 113 
L 3238 0 
L 1847 0 
L 1847 113 
Q 1966 116 2008 148 
Q 2050 181 2050 241 
Q 2050 313 1925 472 
L 1047 1594 
L 1047 644 
Q 1047 366 1086 278 
Q 1125 191 1197 153 
Q 1269 116 1509 113 
L 1509 0 
L 53 0 
L 53 113 
Q 272 113 381 166 
Q 447 200 481 272 
Q 528 375 528 628 
L 528 3234 
Q 528 3731 506 3842 
Q 484 3953 434 3995 
Q 384 4038 303 4038 
Q 238 4038 106 3984 
L 53 4094 
L 903 4444 
L 1047 4444 
z
" transform="scale(0.015625)"/>
      <path id="TimesNewRomanPSMT-6e" d="M 1034 2341 
Q 1538 2947 1994 2947 
Q 2228 2947 2397 2830 
Q 2566 2713 2666 2444 
Q 2734 2256 2734 1869 
L 2734 647 
Q 2734 375 2778 278 
Q 2813 200 2889 156 
Q 2966 113 3172 113 
L 3172 0 
L 1756 0 
L 1756 113 
L 1816 113 
Q 2016 113 2095 173 
Q 2175 234 2206 353 
Q 2219 400 2219 647 
L 2219 1819 
Q 2219 2209 2117 2386 
Q 2016 2563 1775 2563 
Q 1403 2563 1034 2156 
L 1034 647 
Q 1034 356 1069 288 
Q 1113 197 1189 155 
Q 1266 113 1500 113 
L 1500 0 
L 84 0 
L 84 113 
L 147 113 
Q 366 113 442 223 
Q 519 334 519 647 
L 519 1709 
Q 519 2225 495 2337 
Q 472 2450 423 2490 
Q 375 2531 294 2531 
Q 206 2531 84 2484 
L 38 2597 
L 900 2947 
L 1034 2947 
L 1034 2341 
z
" transform="scale(0.015625)"/>
      <path id="TimesNewRomanPSMT-29" d="M 144 4313 
L 144 4444 
Q 619 4209 934 3891 
Q 1381 3434 1625 2820 
Q 1869 2206 1869 1541 
Q 1869 572 1392 -226 
Q 916 -1025 144 -1369 
L 144 -1253 
Q 528 -1038 776 -670 
Q 1025 -303 1145 264 
Q 1266 831 1266 1447 
Q 1266 2113 1163 2663 
Q 1084 3094 967 3353 
Q 850 3613 656 3853 
Q 463 4094 144 4313 
z
" transform="scale(0.015625)"/>
      <path id="TimesNewRomanPSMT-6d" d="M 1050 2338 
Q 1363 2650 1419 2697 
Q 1559 2816 1721 2881 
Q 1884 2947 2044 2947 
Q 2313 2947 2506 2790 
Q 2700 2634 2766 2338 
Q 3088 2713 3309 2830 
Q 3531 2947 3766 2947 
Q 3994 2947 4170 2830 
Q 4347 2713 4450 2447 
Q 4519 2266 4519 1878 
L 4519 647 
Q 4519 378 4559 278 
Q 4591 209 4675 161 
Q 4759 113 4950 113 
L 4950 0 
L 3538 0 
L 3538 113 
L 3597 113 
Q 3781 113 3884 184 
Q 3956 234 3988 344 
Q 4000 397 4000 647 
L 4000 1878 
Q 4000 2228 3916 2372 
Q 3794 2572 3525 2572 
Q 3359 2572 3192 2489 
Q 3025 2406 2788 2181 
L 2781 2147 
L 2788 2013 
L 2788 647 
Q 2788 353 2820 281 
Q 2853 209 2943 161 
Q 3034 113 3253 113 
L 3253 0 
L 1806 0 
L 1806 113 
Q 2044 113 2133 169 
Q 2222 225 2256 338 
Q 2272 391 2272 647 
L 2272 1878 
Q 2272 2228 2169 2381 
Q 2031 2581 1784 2581 
Q 1616 2581 1450 2491 
Q 1191 2353 1050 2181 
L 1050 647 
Q 1050 366 1089 281 
Q 1128 197 1204 155 
Q 1281 113 1516 113 
L 1516 0 
L 100 0 
L 100 113 
Q 297 113 375 155 
Q 453 197 493 289 
Q 534 381 534 647 
L 534 1741 
Q 534 2213 506 2350 
Q 484 2453 437 2492 
Q 391 2531 309 2531 
Q 222 2531 100 2484 
L 53 2597 
L 916 2947 
L 1050 2947 
L 1050 2338 
z
" transform="scale(0.015625)"/>
      <path id="TimesNewRomanPSMT-6c" d="M 1184 4444 
L 1184 647 
Q 1184 378 1223 290 
Q 1263 203 1344 158 
Q 1425 113 1647 113 
L 1647 0 
L 244 0 
L 244 113 
Q 441 113 512 153 
Q 584 194 625 287 
Q 666 381 666 647 
L 666 3247 
Q 666 3731 644 3842 
Q 622 3953 573 3993 
Q 525 4034 450 4034 
Q 369 4034 244 3984 
L 191 4094 
L 1044 4444 
L 1184 4444 
z
" transform="scale(0.015625)"/>
      <path id="TimesNewRomanPSMT-2b" d="M 1672 441 
L 1672 2000 
L 116 2000 
L 116 2256 
L 1672 2256 
L 1672 3809 
L 1922 3809 
L 1922 2256 
L 3484 2256 
L 3484 2000 
L 1922 2000 
L 1922 441 
L 1672 441 
z
" transform="scale(0.015625)"/>
      <path id="TimesNewRomanPSMT-76" d="M 53 2863 
L 1400 2863 
L 1400 2747 
L 1313 2747 
Q 1191 2747 1127 2687 
Q 1063 2628 1063 2528 
Q 1063 2419 1128 2269 
L 1794 688 
L 2463 2328 
Q 2534 2503 2534 2594 
Q 2534 2638 2509 2666 
Q 2475 2713 2422 2730 
Q 2369 2747 2206 2747 
L 2206 2863 
L 3141 2863 
L 3141 2747 
Q 2978 2734 2916 2681 
Q 2806 2588 2719 2369 
L 1703 -88 
L 1575 -88 
L 553 2328 
Q 484 2497 421 2570 
Q 359 2644 263 2694 
Q 209 2722 53 2747 
L 53 2863 
z
" transform="scale(0.015625)"/>
      <path id="TimesNewRomanPSMT-69" d="M 928 4444 
Q 1059 4444 1151 4351 
Q 1244 4259 1244 4128 
Q 1244 3997 1151 3903 
Q 1059 3809 928 3809 
Q 797 3809 703 3903 
Q 609 3997 609 4128 
Q 609 4259 701 4351 
Q 794 4444 928 4444 
z
M 1188 2947 
L 1188 647 
Q 1188 378 1227 289 
Q 1266 200 1342 156 
Q 1419 113 1622 113 
L 1622 0 
L 231 0 
L 231 113 
Q 441 113 512 153 
Q 584 194 626 287 
Q 669 381 669 647 
L 669 1750 
Q 669 2216 641 2353 
Q 619 2453 572 2492 
Q 525 2531 444 2531 
Q 356 2531 231 2484 
L 188 2597 
L 1050 2947 
L 1188 2947 
z
" transform="scale(0.015625)"/>
      <path id="TimesNewRomanPSMT-73" d="M 2050 2947 
L 2050 1972 
L 1947 1972 
Q 1828 2431 1642 2597 
Q 1456 2763 1169 2763 
Q 950 2763 815 2647 
Q 681 2531 681 2391 
Q 681 2216 781 2091 
Q 878 1963 1175 1819 
L 1631 1597 
Q 2266 1288 2266 781 
Q 2266 391 1970 151 
Q 1675 -88 1309 -88 
Q 1047 -88 709 6 
Q 606 38 541 38 
Q 469 38 428 -44 
L 325 -44 
L 325 978 
L 428 978 
Q 516 541 762 319 
Q 1009 97 1316 97 
Q 1531 97 1667 223 
Q 1803 350 1803 528 
Q 1803 744 1651 891 
Q 1500 1038 1047 1263 
Q 594 1488 453 1669 
Q 313 1847 313 2119 
Q 313 2472 555 2709 
Q 797 2947 1181 2947 
Q 1350 2947 1591 2875 
Q 1750 2828 1803 2828 
Q 1853 2828 1881 2850 
Q 1909 2872 1947 2947 
L 2050 2947 
z
" transform="scale(0.015625)"/>
     </defs>
     <use xlink:href="#TimesNewRomanPSMT-41"/>
     <use xlink:href="#TimesNewRomanPSMT-63" transform="translate(72.216797 0)"/>
     <use xlink:href="#TimesNewRomanPSMT-63" transform="translate(116.601562 0)"/>
     <use xlink:href="#TimesNewRomanPSMT-75" transform="translate(160.986328 0)"/>
     <use xlink:href="#TimesNewRomanPSMT-72" transform="translate(210.986328 0)"/>
     <use xlink:href="#TimesNewRomanPSMT-61" transform="translate(244.287109 0)"/>
     <use xlink:href="#TimesNewRomanPSMT-63" transform="translate(288.671875 0)"/>
     <use xlink:href="#TimesNewRomanPSMT-79" transform="translate(333.056641 0)"/>
     <use xlink:href="#TimesNewRomanPSMT-20" transform="translate(383.056641 0)"/>
     <use xlink:href="#TimesNewRomanPSMT-6f" transform="translate(408.056641 0)"/>
     <use xlink:href="#TimesNewRomanPSMT-66" transform="translate(458.056641 0)"/>
     <use xlink:href="#TimesNewRomanPSMT-20" transform="translate(491.357422 0)"/>
     <use xlink:href="#TimesNewRomanPSMT-74" transform="translate(516.357422 0)"/>
     <use xlink:href="#TimesNewRomanPSMT-68" transform="translate(544.140625 0)"/>
     <use xlink:href="#TimesNewRomanPSMT-65" transform="translate(594.140625 0)"/>
     <use xlink:href="#TimesNewRomanPSMT-20" transform="translate(638.525391 0)"/>
     <use xlink:href="#TimesNewRomanPSMT-30" transform="translate(663.525391 0)"/>
     <use xlink:href="#TimesNewRomanPSMT-33" transform="translate(713.525391 0)"/>
     <use xlink:href="#TimesNewRomanPSMT-5f" transform="translate(763.525391 0)"/>
     <use xlink:href="#TimesNewRomanPSMT-30" transform="translate(813.525391 0)"/>
     <use xlink:href="#TimesNewRomanPSMT-36" transform="translate(863.525391 0)"/>
     <use xlink:href="#TimesNewRomanPSMT-5f" transform="translate(913.525391 0)"/>
     <use xlink:href="#TimesNewRomanPSMT-32" transform="translate(963.525391 0)"/>
     <use xlink:href="#TimesNewRomanPSMT-35" transform="translate(1013.525391 0)"/>
     <use xlink:href="#TimesNewRomanPSMT-5f" transform="translate(1063.525391 0)"/>
     <use xlink:href="#TimesNewRomanPSMT-74" transform="translate(1113.525391 0)"/>
     <use xlink:href="#TimesNewRomanPSMT-65" transform="translate(1141.308594 0)"/>
     <use xlink:href="#TimesNewRomanPSMT-61" transform="translate(1185.693359 0)"/>
     <use xlink:href="#TimesNewRomanPSMT-63" transform="translate(1230.078125 0)"/>
     <use xlink:href="#TimesNewRomanPSMT-68" transform="translate(1274.462891 0)"/>
     <use xlink:href="#TimesNewRomanPSMT-65" transform="translate(1324.462891 0)"/>
     <use xlink:href="#TimesNewRomanPSMT-72" transform="translate(1368.847656 0)"/>
     <use xlink:href="#TimesNewRomanPSMT-5f" transform="translate(1402.148438 0)"/>
     <use xlink:href="#TimesNewRomanPSMT-28" transform="translate(1452.148438 0)"/>
     <use xlink:href="#TimesNewRomanPSMT-64" transform="translate(1485.449219 0)"/>
     <use xlink:href="#TimesNewRomanPSMT-2d" transform="translate(1535.449219 0)"/>
     <use xlink:href="#TimesNewRomanPSMT-31" transform="translate(1568.75 0)"/>
     <use xlink:href="#TimesNewRomanPSMT-30" transform="translate(1618.75 0)"/>
     <use xlink:href="#TimesNewRomanPSMT-30" transform="translate(1668.75 0)"/>
     <use xlink:href="#TimesNewRomanPSMT-5f" transform="translate(1718.75 0)"/>
     <use xlink:href="#TimesNewRomanPSMT-6b" transform="translate(1768.75 0)"/>
     <use xlink:href="#TimesNewRomanPSMT-2d" transform="translate(1818.75 0)"/>
     <use xlink:href="#TimesNewRomanPSMT-31" transform="translate(1852.050781 0)"/>
     <use xlink:href="#TimesNewRomanPSMT-5f" transform="translate(1902.050781 0)"/>
     <use xlink:href="#TimesNewRomanPSMT-6e" transform="translate(1952.050781 0)"/>
     <use xlink:href="#TimesNewRomanPSMT-2d" transform="translate(2002.050781 0)"/>
     <use xlink:href="#TimesNewRomanPSMT-31" transform="translate(2035.351562 0)"/>
     <use xlink:href="#TimesNewRomanPSMT-30" transform="translate(2085.351562 0)"/>
     <use xlink:href="#TimesNewRomanPSMT-65" transform="translate(2135.351562 0)"/>
     <use xlink:href="#TimesNewRomanPSMT-36" transform="translate(2179.736328 0)"/>
     <use xlink:href="#TimesNewRomanPSMT-29" transform="translate(2229.736328 0)"/>
     <use xlink:href="#TimesNewRomanPSMT-5f" transform="translate(2263.037109 0)"/>
     <use xlink:href="#TimesNewRomanPSMT-74" transform="translate(2313.037109 0)"/>
     <use xlink:href="#TimesNewRomanPSMT-6f" transform="translate(2340.820312 0)"/>
     <use xlink:href="#TimesNewRomanPSMT-72" transform="translate(2390.820312 0)"/>
     <use xlink:href="#TimesNewRomanPSMT-63" transform="translate(2424.121094 0)"/>
     <use xlink:href="#TimesNewRomanPSMT-68" transform="translate(2468.505859 0)"/>
     <use xlink:href="#TimesNewRomanPSMT-5f" transform="translate(2518.505859 0)"/>
     <use xlink:href="#TimesNewRomanPSMT-6d" transform="translate(2568.505859 0)"/>
     <use xlink:href="#TimesNewRomanPSMT-6f" transform="translate(2646.289062 0)"/>
     <use xlink:href="#TimesNewRomanPSMT-64" transform="translate(2696.289062 0)"/>
     <use xlink:href="#TimesNewRomanPSMT-65" transform="translate(2746.289062 0)"/>
     <use xlink:href="#TimesNewRomanPSMT-6c" transform="translate(2790.673828 0)"/>
     <use xlink:href="#TimesNewRomanPSMT-5f" transform="translate(2818.457031 0)"/>
     <use xlink:href="#TimesNewRomanPSMT-28" transform="translate(2868.457031 0)"/>
     <use xlink:href="#TimesNewRomanPSMT-31" transform="translate(2901.757812 0)"/>
     <use xlink:href="#TimesNewRomanPSMT-30" transform="translate(2951.757812 0)"/>
     <use xlink:href="#TimesNewRomanPSMT-30" transform="translate(3001.757812 0)"/>
     <use xlink:href="#TimesNewRomanPSMT-2b" transform="translate(3051.757812 0)"/>
     <use xlink:href="#TimesNewRomanPSMT-32" transform="translate(3108.154297 0)"/>
     <use xlink:href="#TimesNewRomanPSMT-30" transform="translate(3158.154297 0)"/>
     <use xlink:href="#TimesNewRomanPSMT-34" transform="translate(3208.154297 0)"/>
     <use xlink:href="#TimesNewRomanPSMT-38" transform="translate(3258.154297 0)"/>
     <use xlink:href="#TimesNewRomanPSMT-2d" transform="translate(3308.154297 0)"/>
     <use xlink:href="#TimesNewRomanPSMT-32" transform="translate(3341.455078 0)"/>
     <use xlink:href="#TimesNewRomanPSMT-30" transform="translate(3391.455078 0)"/>
     <use xlink:href="#TimesNewRomanPSMT-34" transform="translate(3441.455078 0)"/>
     <use xlink:href="#TimesNewRomanPSMT-38" transform="translate(3491.455078 0)"/>
     <use xlink:href="#TimesNewRomanPSMT-2e" transform="translate(3541.455078 0)"/>
     <use xlink:href="#TimesNewRomanPSMT-31" transform="translate(3566.455078 0)"/>
     <use xlink:href="#TimesNewRomanPSMT-2d" transform="translate(3616.455078 0)"/>
     <use xlink:href="#TimesNewRomanPSMT-31" transform="translate(3649.755859 0)"/>
     <use xlink:href="#TimesNewRomanPSMT-29" transform="translate(3699.755859 0)"/>
     <use xlink:href="#TimesNewRomanPSMT-20" transform="translate(3733.056641 0)"/>
     <use xlink:href="#TimesNewRomanPSMT-6f" transform="translate(3758.056641 0)"/>
     <use xlink:href="#TimesNewRomanPSMT-6e" transform="translate(3808.056641 0)"/>
     <use xlink:href="#TimesNewRomanPSMT-20" transform="translate(3858.056641 0)"/>
     <use xlink:href="#TimesNewRomanPSMT-74" transform="translate(3883.056641 0)"/>
     <use xlink:href="#TimesNewRomanPSMT-68" transform="translate(3910.839844 0)"/>
     <use xlink:href="#TimesNewRomanPSMT-65" transform="translate(3960.839844 0)"/>
     <use xlink:href="#TimesNewRomanPSMT-20" transform="translate(4005.224609 0)"/>
     <use xlink:href="#TimesNewRomanPSMT-76" transform="translate(4030.224609 0)"/>
     <use xlink:href="#TimesNewRomanPSMT-61" transform="translate(4080.224609 0)"/>
     <use xlink:href="#TimesNewRomanPSMT-6c" transform="translate(4124.609375 0)"/>
     <use xlink:href="#TimesNewRomanPSMT-69" transform="translate(4152.392578 0)"/>
     <use xlink:href="#TimesNewRomanPSMT-64" transform="translate(4180.175781 0)"/>
     <use xlink:href="#TimesNewRomanPSMT-61" transform="translate(4230.175781 0)"/>
     <use xlink:href="#TimesNewRomanPSMT-74" transform="translate(4274.560547 0)"/>
     <use xlink:href="#TimesNewRomanPSMT-69" transform="translate(4302.34375 0)"/>
     <use xlink:href="#TimesNewRomanPSMT-6f" transform="translate(4330.126953 0)"/>
     <use xlink:href="#TimesNewRomanPSMT-6e" transform="translate(4380.126953 0)"/>
     <use xlink:href="#TimesNewRomanPSMT-20" transform="translate(4430.126953 0)"/>
     <use xlink:href="#TimesNewRomanPSMT-73" transform="translate(4455.126953 0)"/>
     <use xlink:href="#TimesNewRomanPSMT-65" transform="translate(4494.042969 0)"/>
     <use xlink:href="#TimesNewRomanPSMT-74" transform="translate(4538.427734 0)"/>
    </g>
   </g>
   <g id="legend_1">
    <g id="patch_7">
     <path d="M 446.782938 94.278687 
L 683.95325 94.278687 
Q 688.35325 94.278687 688.35325 89.878687 
L 688.35325 60.9315 
Q 688.35325 56.5315 683.95325 56.5315 
L 446.782938 56.5315 
Q 442.382938 56.5315 442.382938 60.9315 
L 442.382938 89.878687 
Q 442.382938 94.278687 446.782938 94.278687 
z
" style="fill: #ffffff; opacity: 0.8; stroke: #cccccc; stroke-linejoin: miter"/>
    </g>
    <g id="line2d_30">
     <path d="M 451.182938 73.0315 
L 473.182938 73.0315 
L 495.182938 73.0315 
" style="fill: none; stroke: #1f77b4; stroke-width: 1.5; stroke-linecap: square"/>
    </g>
    <g id="text_18">
     <!-- Best accuracy 0.92 -->
     <g transform="translate(512.782938 80.7315) scale(0.22 -0.22)">
      <defs>
       <path id="TimesNewRomanPSMT-42" d="M 2956 2163 
Q 3397 2069 3616 1863 
Q 3919 1575 3919 1159 
Q 3919 844 3719 555 
Q 3519 266 3170 133 
Q 2822 0 2106 0 
L 106 0 
L 106 116 
L 266 116 
Q 531 116 647 284 
Q 719 394 719 750 
L 719 3488 
Q 719 3881 628 3984 
Q 506 4122 266 4122 
L 106 4122 
L 106 4238 
L 1938 4238 
Q 2450 4238 2759 4163 
Q 3228 4050 3475 3764 
Q 3722 3478 3722 3106 
Q 3722 2788 3528 2536 
Q 3334 2284 2956 2163 
z
M 1319 2331 
Q 1434 2309 1582 2298 
Q 1731 2288 1909 2288 
Q 2366 2288 2595 2386 
Q 2825 2484 2947 2687 
Q 3069 2891 3069 3131 
Q 3069 3503 2766 3765 
Q 2463 4028 1881 4028 
Q 1569 4028 1319 3959 
L 1319 2331 
z
M 1319 306 
Q 1681 222 2034 222 
Q 2600 222 2897 476 
Q 3194 731 3194 1106 
Q 3194 1353 3059 1581 
Q 2925 1809 2622 1940 
Q 2319 2072 1872 2072 
Q 1678 2072 1540 2065 
Q 1403 2059 1319 2044 
L 1319 306 
z
" transform="scale(0.015625)"/>
      </defs>
      <use xlink:href="#TimesNewRomanPSMT-42"/>
      <use xlink:href="#TimesNewRomanPSMT-65" transform="translate(66.699219 0)"/>
      <use xlink:href="#TimesNewRomanPSMT-73" transform="translate(111.083984 0)"/>
      <use xlink:href="#TimesNewRomanPSMT-74" transform="translate(150 0)"/>
      <use xlink:href="#TimesNewRomanPSMT-20" transform="translate(177.783203 0)"/>
      <use xlink:href="#TimesNewRomanPSMT-61" transform="translate(202.783203 0)"/>
      <use xlink:href="#TimesNewRomanPSMT-63" transform="translate(247.167969 0)"/>
      <use xlink:href="#TimesNewRomanPSMT-63" transform="translate(291.552734 0)"/>
      <use xlink:href="#TimesNewRomanPSMT-75" transform="translate(335.9375 0)"/>
      <use xlink:href="#TimesNewRomanPSMT-72" transform="translate(385.9375 0)"/>
      <use xlink:href="#TimesNewRomanPSMT-61" transform="translate(419.238281 0)"/>
      <use xlink:href="#TimesNewRomanPSMT-63" transform="translate(463.623047 0)"/>
      <use xlink:href="#TimesNewRomanPSMT-79" transform="translate(508.007812 0)"/>
      <use xlink:href="#TimesNewRomanPSMT-20" transform="translate(558.007812 0)"/>
      <use xlink:href="#TimesNewRomanPSMT-30" transform="translate(583.007812 0)"/>
      <use xlink:href="#TimesNewRomanPSMT-2e" transform="translate(633.007812 0)"/>
      <use xlink:href="#TimesNewRomanPSMT-39" transform="translate(658.007812 0)"/>
      <use xlink:href="#TimesNewRomanPSMT-32" transform="translate(708.007812 0)"/>
     </g>
    </g>
   </g>
  </g>
 </g>
 <defs>
  <clipPath id="p733dbf8e11">
   <rect x="431.382938" y="45.5315" width="357.12" height="266.112"/>
  </clipPath>
 </defs>
</svg>
