<?xml version="1.0" encoding="utf-8" standalone="no"?>
<!DOCTYPE svg PUBLIC "-//W3C//DTD SVG 1.1//EN"
  "http://www.w3.org/Graphics/SVG/1.1/DTD/svg11.dtd">
<svg xmlns:xlink="http://www.w3.org/1999/xlink" width="1019.295375pt" height="383.265687pt" viewBox="0 0 1019.295375 383.265687" xmlns="http://www.w3.org/2000/svg" version="1.1">
 <metadata>
  <rdf:RDF xmlns:dc="http://purl.org/dc/elements/1.1/" xmlns:cc="http://creativecommons.org/ns#" xmlns:rdf="http://www.w3.org/1999/02/22-rdf-syntax-ns#">
   <cc:Work>
    <dc:type rdf:resource="http://purl.org/dc/dcmitype/StillImage"/>
    <dc:date>2025-05-27T15:33:25.920797</dc:date>
    <dc:format>image/svg+xml</dc:format>
    <dc:creator>
     <cc:Agent>
      <dc:title>Matplotlib v3.10.1, https://matplotlib.org/</dc:title>
     </cc:Agent>
    </dc:creator>
   </cc:Work>
  </rdf:RDF>
 </metadata>
 <defs>
  <style type="text/css">*{stroke-linejoin: round; stroke-linecap: butt}</style>
 </defs>
 <g id="figure_1">
  <g id="patch_1">
   <path d="M 0 383.265687 
L 1019.295375 383.265687 
L 1019.295375 0 
L 0 0 
z
" style="fill: #ffffff"/>
  </g>
  <g id="axes_1">
   <g id="patch_2">
    <path d="M 331.087688 311.6435 
L 688.207688 311.6435 
L 688.207688 45.5315 
L 331.087688 45.5315 
z
" style="fill: #ffffff"/>
   </g>
   <g id="matplotlib.axis_1">
    <g id="xtick_1">
     <g id="line2d_1">
      <path d="M 331.087688 311.6435 
L 331.087688 45.5315 
" clip-path="url(#p60af0e5fb7)" style="fill: none; stroke: #b0b0b0; stroke-opacity: 0.3; stroke-width: 0.8; stroke-linecap: square"/>
     </g>
     <g id="line2d_2">
      <defs>
       <path id="m2ecb5693b9" d="M 0 0 
L 0 3.5 
" style="stroke: #000000; stroke-width: 0.8"/>
      </defs>
      <g>
       <use xlink:href="#m2ecb5693b9" x="331.087688" y="311.6435" style="stroke: #000000; stroke-width: 0.8"/>
      </g>
     </g>
     <g id="text_1">
      <!-- 0.0 -->
      <g transform="translate(317.337688 333.91975) scale(0.22 -0.22)">
       <defs>
        <path id="TimesNewRomanPSMT-30" d="M 231 2094 
Q 231 2819 450 3342 
Q 669 3866 1031 4122 
Q 1313 4325 1613 4325 
Q 2100 4325 2488 3828 
Q 2972 3213 2972 2159 
Q 2972 1422 2759 906 
Q 2547 391 2217 158 
Q 1888 -75 1581 -75 
Q 975 -75 572 641 
Q 231 1244 231 2094 
z
M 844 2016 
Q 844 1141 1059 588 
Q 1238 122 1591 122 
Q 1759 122 1940 273 
Q 2122 425 2216 781 
Q 2359 1319 2359 2297 
Q 2359 3022 2209 3506 
Q 2097 3866 1919 4016 
Q 1791 4119 1609 4119 
Q 1397 4119 1231 3928 
Q 1006 3669 925 3112 
Q 844 2556 844 2016 
z
" transform="scale(0.015625)"/>
        <path id="TimesNewRomanPSMT-2e" d="M 800 606 
Q 947 606 1047 504 
Q 1147 403 1147 259 
Q 1147 116 1045 14 
Q 944 -88 800 -88 
Q 656 -88 554 14 
Q 453 116 453 259 
Q 453 406 554 506 
Q 656 606 800 606 
z
" transform="scale(0.015625)"/>
       </defs>
       <use xlink:href="#TimesNewRomanPSMT-30"/>
       <use xlink:href="#TimesNewRomanPSMT-2e" transform="translate(50 0)"/>
       <use xlink:href="#TimesNewRomanPSMT-30" transform="translate(75 0)"/>
      </g>
     </g>
    </g>
    <g id="xtick_2">
     <g id="line2d_3">
      <path d="M 440.498222 311.6435 
L 440.498222 45.5315 
" clip-path="url(#p60af0e5fb7)" style="fill: none; stroke: #b0b0b0; stroke-opacity: 0.3; stroke-width: 0.8; stroke-linecap: square"/>
     </g>
     <g id="line2d_4">
      <g>
       <use xlink:href="#m2ecb5693b9" x="440.498222" y="311.6435" style="stroke: #000000; stroke-width: 0.8"/>
      </g>
     </g>
     <g id="text_2">
      <!-- 0.5 -->
      <g transform="translate(426.748222 333.91975) scale(0.22 -0.22)">
       <defs>
        <path id="TimesNewRomanPSMT-35" d="M 2778 4238 
L 2534 3706 
L 1259 3706 
L 981 3138 
Q 1809 3016 2294 2522 
Q 2709 2097 2709 1522 
Q 2709 1188 2573 903 
Q 2438 619 2231 419 
Q 2025 219 1772 97 
Q 1413 -75 1034 -75 
Q 653 -75 479 54 
Q 306 184 306 341 
Q 306 428 378 495 
Q 450 563 559 563 
Q 641 563 702 538 
Q 763 513 909 409 
Q 1144 247 1384 247 
Q 1750 247 2026 523 
Q 2303 800 2303 1197 
Q 2303 1581 2056 1914 
Q 1809 2247 1375 2428 
Q 1034 2569 447 2591 
L 1259 4238 
L 2778 4238 
z
" transform="scale(0.015625)"/>
       </defs>
       <use xlink:href="#TimesNewRomanPSMT-30"/>
       <use xlink:href="#TimesNewRomanPSMT-2e" transform="translate(50 0)"/>
       <use xlink:href="#TimesNewRomanPSMT-35" transform="translate(75 0)"/>
      </g>
     </g>
    </g>
    <g id="xtick_3">
     <g id="line2d_5">
      <path d="M 549.908756 311.6435 
L 549.908756 45.5315 
" clip-path="url(#p60af0e5fb7)" style="fill: none; stroke: #b0b0b0; stroke-opacity: 0.3; stroke-width: 0.8; stroke-linecap: square"/>
     </g>
     <g id="line2d_6">
      <g>
       <use xlink:href="#m2ecb5693b9" x="549.908756" y="311.6435" style="stroke: #000000; stroke-width: 0.8"/>
      </g>
     </g>
     <g id="text_3">
      <!-- 1.0 -->
      <g transform="translate(536.158756 333.91975) scale(0.22 -0.22)">
       <defs>
        <path id="TimesNewRomanPSMT-31" d="M 750 3822 
L 1781 4325 
L 1884 4325 
L 1884 747 
Q 1884 391 1914 303 
Q 1944 216 2037 169 
Q 2131 122 2419 116 
L 2419 0 
L 825 0 
L 825 116 
Q 1125 122 1212 167 
Q 1300 213 1334 289 
Q 1369 366 1369 747 
L 1369 3034 
Q 1369 3497 1338 3628 
Q 1316 3728 1258 3775 
Q 1200 3822 1119 3822 
Q 1003 3822 797 3725 
L 750 3822 
z
" transform="scale(0.015625)"/>
       </defs>
       <use xlink:href="#TimesNewRomanPSMT-31"/>
       <use xlink:href="#TimesNewRomanPSMT-2e" transform="translate(50 0)"/>
       <use xlink:href="#TimesNewRomanPSMT-30" transform="translate(75 0)"/>
      </g>
     </g>
    </g>
    <g id="xtick_4">
     <g id="line2d_7">
      <path d="M 659.31929 311.6435 
L 659.31929 45.5315 
" clip-path="url(#p60af0e5fb7)" style="fill: none; stroke: #b0b0b0; stroke-opacity: 0.3; stroke-width: 0.8; stroke-linecap: square"/>
     </g>
     <g id="line2d_8">
      <g>
       <use xlink:href="#m2ecb5693b9" x="659.31929" y="311.6435" style="stroke: #000000; stroke-width: 0.8"/>
      </g>
     </g>
     <g id="text_4">
      <!-- 1.5 -->
      <g transform="translate(645.56929 333.91975) scale(0.22 -0.22)">
       <use xlink:href="#TimesNewRomanPSMT-31"/>
       <use xlink:href="#TimesNewRomanPSMT-2e" transform="translate(50 0)"/>
       <use xlink:href="#TimesNewRomanPSMT-35" transform="translate(75 0)"/>
      </g>
     </g>
    </g>
    <g id="text_5">
     <!-- $\kappa  = \frac{ln(n)}{ln(d)}$ -->
     <g transform="translate(477.637688 364.185687) scale(0.22 -0.22)">
      <defs>
       <path id="STIXGeneral-Italic-3ba" d="M 979 1440 
L 998 1446 
Q 1850 2541 2464 2790 
Q 2547 2822 2630 2822 
Q 2797 2822 2886 2736 
Q 2976 2650 2976 2522 
Q 2976 2387 2893 2307 
Q 2810 2227 2682 2227 
Q 2605 2227 2502 2288 
Q 2400 2349 2336 2349 
Q 2170 2349 1990 2205 
Q 1811 2061 1414 1645 
L 2042 544 
Q 2202 262 2310 182 
Q 2419 102 2624 102 
L 2624 0 
Q 2374 -83 2182 -83 
Q 1786 -83 1555 326 
L 960 1350 
L 576 0 
L 90 0 
L 640 1978 
Q 730 2317 730 2406 
Q 730 2560 518 2560 
L 339 2560 
L 339 2650 
Q 678 2694 1306 2822 
L 1325 2803 
L 979 1440 
z
" transform="scale(0.015625)"/>
       <path id="STIXGeneral-Regular-3d" d="M 4077 2048 
L 307 2048 
L 307 2470 
L 4077 2470 
L 4077 2048 
z
M 4077 768 
L 307 768 
L 307 1190 
L 4077 1190 
L 4077 768 
z
" transform="scale(0.015625)"/>
       <path id="STIXGeneral-Italic-6c" d="M 1786 4339 
L 806 595 
Q 755 410 755 320 
Q 755 205 864 205 
Q 1037 205 1293 570 
L 1453 794 
L 1542 730 
Q 1254 275 1046 102 
Q 838 -70 576 -70 
Q 262 -70 262 288 
Q 262 397 288 480 
L 1165 3834 
Q 1184 3898 1184 3955 
Q 1184 4096 870 4096 
L 755 4096 
L 755 4198 
Q 1203 4250 1747 4371 
L 1786 4339 
z
" transform="scale(0.015625)"/>
       <path id="STIXGeneral-Italic-6e" d="M 2944 749 
L 3034 666 
Q 2707 218 2534 80 
Q 2362 -58 2138 -58 
Q 2010 -58 1923 28 
Q 1837 115 1837 288 
Q 1837 390 1939 768 
L 2221 1805 
Q 2310 2150 2310 2310 
Q 2310 2496 2157 2496 
Q 1971 2496 1750 2275 
Q 1530 2054 1210 1587 
Q 998 1274 899 1024 
Q 800 774 570 0 
L 90 0 
L 704 2240 
Q 717 2304 717 2349 
Q 717 2445 630 2480 
Q 544 2515 301 2522 
L 301 2624 
Q 550 2675 857 2729 
Q 1165 2784 1338 2822 
L 1363 2810 
L 934 1414 
Q 1408 2170 1753 2496 
Q 2099 2822 2413 2822 
Q 2611 2822 2720 2716 
Q 2829 2611 2829 2432 
Q 2829 2272 2765 2048 
L 2406 749 
Q 2317 429 2317 358 
Q 2317 243 2419 243 
Q 2541 243 2810 582 
Q 2854 634 2944 749 
z
" transform="scale(0.015625)"/>
       <path id="STIXGeneral-Regular-28" d="M 1946 -1030 
L 1869 -1133 
Q 1126 -710 716 32 
Q 307 774 307 1613 
Q 307 3386 1888 4326 
L 1946 4224 
Q 1293 3667 1075 3126 
Q 858 2586 858 1632 
Q 858 685 1082 96 
Q 1306 -493 1946 -1030 
z
" transform="scale(0.015625)"/>
       <path id="STIXGeneral-Regular-29" d="M 186 4224 
L 262 4326 
Q 992 3891 1408 3148 
Q 1824 2406 1824 1581 
Q 1824 -166 243 -1133 
L 186 -1030 
Q 845 -486 1059 54 
Q 1274 595 1274 1562 
Q 1274 2534 1059 3120 
Q 845 3706 186 4224 
z
" transform="scale(0.015625)"/>
       <path id="STIXGeneral-Italic-64" d="M 3334 4371 
L 3373 4333 
L 3123 3360 
L 2739 1958 
Q 2323 429 2323 384 
Q 2323 256 2438 256 
Q 2522 256 2614 336 
Q 2707 416 2963 710 
L 3040 646 
Q 2547 -83 2099 -83 
Q 1978 -83 1907 -6 
Q 1837 70 1837 205 
Q 1837 397 1920 774 
Q 1645 307 1379 118 
Q 1114 -70 781 -70 
Q 461 -70 278 125 
Q 96 320 96 678 
Q 96 1440 713 2131 
Q 1331 2822 1965 2822 
Q 2163 2822 2256 2732 
Q 2349 2643 2381 2451 
L 2387 2451 
L 2675 3494 
Q 2765 3808 2765 3949 
Q 2765 4051 2694 4076 
Q 2624 4102 2355 4115 
L 2355 4224 
Q 2848 4269 3334 4371 
z
M 2278 2310 
Q 2278 2477 2185 2576 
Q 2093 2675 1978 2675 
Q 1677 2675 1395 2381 
Q 1075 2042 864 1571 
Q 653 1101 653 704 
Q 653 486 752 361 
Q 851 237 1024 237 
Q 1312 237 1606 550 
Q 1901 864 2089 1350 
Q 2278 1837 2278 2310 
z
" transform="scale(0.015625)"/>
      </defs>
      <use xlink:href="#STIXGeneral-Italic-3ba" transform="translate(0 0.003125)"/>
      <use xlink:href="#STIXGeneral-Regular-3d" transform="translate(58.83999 0.003125)"/>
      <use xlink:href="#STIXGeneral-Italic-6c" transform="translate(141.779971 50.192188) scale(0.7)"/>
      <use xlink:href="#STIXGeneral-Italic-6e" transform="translate(161.239963 50.192188) scale(0.7)"/>
      <use xlink:href="#STIXGeneral-Regular-28" transform="translate(196.239952 50.192188) scale(0.7)"/>
      <use xlink:href="#STIXGeneral-Italic-6e" transform="translate(219.549944 50.192188) scale(0.7)"/>
      <use xlink:href="#STIXGeneral-Regular-29" transform="translate(254.549933 50.192188) scale(0.7)"/>
      <use xlink:href="#STIXGeneral-Italic-6c" transform="translate(141.779971 -41.257812) scale(0.7)"/>
      <use xlink:href="#STIXGeneral-Italic-6e" transform="translate(161.239963 -41.257812) scale(0.7)"/>
      <use xlink:href="#STIXGeneral-Regular-28" transform="translate(196.239952 -41.257812) scale(0.7)"/>
      <use xlink:href="#STIXGeneral-Italic-64" transform="translate(219.549944 -41.257812) scale(0.7)"/>
      <use xlink:href="#STIXGeneral-Regular-29" transform="translate(254.549933 -41.257812) scale(0.7)"/>
      <path d="M 141.779971 12.8 
L 141.779971 19.05 
L 277.859924 19.05 
L 277.859924 12.8 
L 141.779971 12.8 
z
"/>
     </g>
    </g>
   </g>
   <g id="matplotlib.axis_2">
    <g id="ytick_1">
     <g id="line2d_9">
      <path d="M 331.087688 311.6435 
L 688.207688 311.6435 
" clip-path="url(#p60af0e5fb7)" style="fill: none; stroke: #b0b0b0; stroke-opacity: 0.3; stroke-width: 0.8; stroke-linecap: square"/>
     </g>
     <g id="line2d_10">
      <defs>
       <path id="mbe0ddfe38f" d="M 0 0 
L -3.5 0 
" style="stroke: #000000; stroke-width: 0.8"/>
      </defs>
      <g>
       <use xlink:href="#mbe0ddfe38f" x="331.087688" y="311.6435" style="stroke: #000000; stroke-width: 0.8"/>
      </g>
     </g>
     <g id="text_6">
      <!-- 0.0 -->
      <g transform="translate(296.587688 319.281625) scale(0.22 -0.22)">
       <use xlink:href="#TimesNewRomanPSMT-30"/>
       <use xlink:href="#TimesNewRomanPSMT-2e" transform="translate(50 0)"/>
       <use xlink:href="#TimesNewRomanPSMT-30" transform="translate(75 0)"/>
      </g>
     </g>
    </g>
    <g id="ytick_2">
     <g id="line2d_11">
      <path d="M 331.087688 285.0323 
L 688.207688 285.0323 
" clip-path="url(#p60af0e5fb7)" style="fill: none; stroke: #b0b0b0; stroke-opacity: 0.3; stroke-width: 0.8; stroke-linecap: square"/>
     </g>
     <g id="line2d_12">
      <g>
       <use xlink:href="#mbe0ddfe38f" x="331.087688" y="285.0323" style="stroke: #000000; stroke-width: 0.8"/>
      </g>
     </g>
     <g id="text_7">
      <!-- 0.1 -->
      <g transform="translate(296.587688 292.670425) scale(0.22 -0.22)">
       <use xlink:href="#TimesNewRomanPSMT-30"/>
       <use xlink:href="#TimesNewRomanPSMT-2e" transform="translate(50 0)"/>
       <use xlink:href="#TimesNewRomanPSMT-31" transform="translate(75 0)"/>
      </g>
     </g>
    </g>
    <g id="ytick_3">
     <g id="line2d_13">
      <path d="M 331.087688 258.4211 
L 688.207688 258.4211 
" clip-path="url(#p60af0e5fb7)" style="fill: none; stroke: #b0b0b0; stroke-opacity: 0.3; stroke-width: 0.8; stroke-linecap: square"/>
     </g>
     <g id="line2d_14">
      <g>
       <use xlink:href="#mbe0ddfe38f" x="331.087688" y="258.4211" style="stroke: #000000; stroke-width: 0.8"/>
      </g>
     </g>
     <g id="text_8">
      <!-- 0.2 -->
      <g transform="translate(296.587688 266.059225) scale(0.22 -0.22)">
       <defs>
        <path id="TimesNewRomanPSMT-32" d="M 2934 816 
L 2638 0 
L 138 0 
L 138 116 
Q 1241 1122 1691 1759 
Q 2141 2397 2141 2925 
Q 2141 3328 1894 3587 
Q 1647 3847 1303 3847 
Q 991 3847 742 3664 
Q 494 3481 375 3128 
L 259 3128 
Q 338 3706 661 4015 
Q 984 4325 1469 4325 
Q 1984 4325 2329 3994 
Q 2675 3663 2675 3213 
Q 2675 2891 2525 2569 
Q 2294 2063 1775 1497 
Q 997 647 803 472 
L 1909 472 
Q 2247 472 2383 497 
Q 2519 522 2628 598 
Q 2738 675 2819 816 
L 2934 816 
z
" transform="scale(0.015625)"/>
       </defs>
       <use xlink:href="#TimesNewRomanPSMT-30"/>
       <use xlink:href="#TimesNewRomanPSMT-2e" transform="translate(50 0)"/>
       <use xlink:href="#TimesNewRomanPSMT-32" transform="translate(75 0)"/>
      </g>
     </g>
    </g>
    <g id="ytick_4">
     <g id="line2d_15">
      <path d="M 331.087688 231.8099 
L 688.207688 231.8099 
" clip-path="url(#p60af0e5fb7)" style="fill: none; stroke: #b0b0b0; stroke-opacity: 0.3; stroke-width: 0.8; stroke-linecap: square"/>
     </g>
     <g id="line2d_16">
      <g>
       <use xlink:href="#mbe0ddfe38f" x="331.087688" y="231.8099" style="stroke: #000000; stroke-width: 0.8"/>
      </g>
     </g>
     <g id="text_9">
      <!-- 0.3 -->
      <g transform="translate(296.587688 239.448025) scale(0.22 -0.22)">
       <defs>
        <path id="TimesNewRomanPSMT-33" d="M 325 3431 
Q 506 3859 782 4092 
Q 1059 4325 1472 4325 
Q 1981 4325 2253 3994 
Q 2459 3747 2459 3466 
Q 2459 3003 1878 2509 
Q 2269 2356 2469 2072 
Q 2669 1788 2669 1403 
Q 2669 853 2319 450 
Q 1863 -75 997 -75 
Q 569 -75 414 31 
Q 259 138 259 259 
Q 259 350 332 419 
Q 406 488 509 488 
Q 588 488 669 463 
Q 722 447 909 348 
Q 1097 250 1169 231 
Q 1284 197 1416 197 
Q 1734 197 1970 444 
Q 2206 691 2206 1028 
Q 2206 1275 2097 1509 
Q 2016 1684 1919 1775 
Q 1784 1900 1550 2001 
Q 1316 2103 1072 2103 
L 972 2103 
L 972 2197 
Q 1219 2228 1467 2375 
Q 1716 2522 1828 2728 
Q 1941 2934 1941 3181 
Q 1941 3503 1739 3701 
Q 1538 3900 1238 3900 
Q 753 3900 428 3381 
L 325 3431 
z
" transform="scale(0.015625)"/>
       </defs>
       <use xlink:href="#TimesNewRomanPSMT-30"/>
       <use xlink:href="#TimesNewRomanPSMT-2e" transform="translate(50 0)"/>
       <use xlink:href="#TimesNewRomanPSMT-33" transform="translate(75 0)"/>
      </g>
     </g>
    </g>
    <g id="ytick_5">
     <g id="line2d_17">
      <path d="M 331.087688 205.1987 
L 688.207688 205.1987 
" clip-path="url(#p60af0e5fb7)" style="fill: none; stroke: #b0b0b0; stroke-opacity: 0.3; stroke-width: 0.8; stroke-linecap: square"/>
     </g>
     <g id="line2d_18">
      <g>
       <use xlink:href="#mbe0ddfe38f" x="331.087688" y="205.1987" style="stroke: #000000; stroke-width: 0.8"/>
      </g>
     </g>
     <g id="text_10">
      <!-- 0.4 -->
      <g transform="translate(296.587688 212.836825) scale(0.22 -0.22)">
       <defs>
        <path id="TimesNewRomanPSMT-34" d="M 2978 1563 
L 2978 1119 
L 2409 1119 
L 2409 0 
L 1894 0 
L 1894 1119 
L 100 1119 
L 100 1519 
L 2066 4325 
L 2409 4325 
L 2409 1563 
L 2978 1563 
z
M 1894 1563 
L 1894 3666 
L 406 1563 
L 1894 1563 
z
" transform="scale(0.015625)"/>
       </defs>
       <use xlink:href="#TimesNewRomanPSMT-30"/>
       <use xlink:href="#TimesNewRomanPSMT-2e" transform="translate(50 0)"/>
       <use xlink:href="#TimesNewRomanPSMT-34" transform="translate(75 0)"/>
      </g>
     </g>
    </g>
    <g id="ytick_6">
     <g id="line2d_19">
      <path d="M 331.087688 178.5875 
L 688.207688 178.5875 
" clip-path="url(#p60af0e5fb7)" style="fill: none; stroke: #b0b0b0; stroke-opacity: 0.3; stroke-width: 0.8; stroke-linecap: square"/>
     </g>
     <g id="line2d_20">
      <g>
       <use xlink:href="#mbe0ddfe38f" x="331.087688" y="178.5875" style="stroke: #000000; stroke-width: 0.8"/>
      </g>
     </g>
     <g id="text_11">
      <!-- 0.5 -->
      <g transform="translate(296.587688 186.225625) scale(0.22 -0.22)">
       <use xlink:href="#TimesNewRomanPSMT-30"/>
       <use xlink:href="#TimesNewRomanPSMT-2e" transform="translate(50 0)"/>
       <use xlink:href="#TimesNewRomanPSMT-35" transform="translate(75 0)"/>
      </g>
     </g>
    </g>
    <g id="ytick_7">
     <g id="line2d_21">
      <path d="M 331.087688 151.9763 
L 688.207688 151.9763 
" clip-path="url(#p60af0e5fb7)" style="fill: none; stroke: #b0b0b0; stroke-opacity: 0.3; stroke-width: 0.8; stroke-linecap: square"/>
     </g>
     <g id="line2d_22">
      <g>
       <use xlink:href="#mbe0ddfe38f" x="331.087688" y="151.9763" style="stroke: #000000; stroke-width: 0.8"/>
      </g>
     </g>
     <g id="text_12">
      <!-- 0.6 -->
      <g transform="translate(296.587688 159.614425) scale(0.22 -0.22)">
       <defs>
        <path id="TimesNewRomanPSMT-36" d="M 2869 4325 
L 2869 4209 
Q 2456 4169 2195 4045 
Q 1934 3922 1679 3669 
Q 1425 3416 1258 3105 
Q 1091 2794 978 2366 
Q 1428 2675 1881 2675 
Q 2316 2675 2634 2325 
Q 2953 1975 2953 1425 
Q 2953 894 2631 456 
Q 2244 -75 1606 -75 
Q 1172 -75 869 213 
Q 275 772 275 1663 
Q 275 2231 503 2743 
Q 731 3256 1154 3653 
Q 1578 4050 1965 4187 
Q 2353 4325 2688 4325 
L 2869 4325 
z
M 925 2138 
Q 869 1716 869 1456 
Q 869 1156 980 804 
Q 1091 453 1309 247 
Q 1469 100 1697 100 
Q 1969 100 2183 356 
Q 2397 613 2397 1088 
Q 2397 1622 2184 2012 
Q 1972 2403 1581 2403 
Q 1463 2403 1327 2353 
Q 1191 2303 925 2138 
z
" transform="scale(0.015625)"/>
       </defs>
       <use xlink:href="#TimesNewRomanPSMT-30"/>
       <use xlink:href="#TimesNewRomanPSMT-2e" transform="translate(50 0)"/>
       <use xlink:href="#TimesNewRomanPSMT-36" transform="translate(75 0)"/>
      </g>
     </g>
    </g>
    <g id="ytick_8">
     <g id="line2d_23">
      <path d="M 331.087688 125.3651 
L 688.207688 125.3651 
" clip-path="url(#p60af0e5fb7)" style="fill: none; stroke: #b0b0b0; stroke-opacity: 0.3; stroke-width: 0.8; stroke-linecap: square"/>
     </g>
     <g id="line2d_24">
      <g>
       <use xlink:href="#mbe0ddfe38f" x="331.087688" y="125.3651" style="stroke: #000000; stroke-width: 0.8"/>
      </g>
     </g>
     <g id="text_13">
      <!-- 0.7 -->
      <g transform="translate(296.587688 133.003225) scale(0.22 -0.22)">
       <defs>
        <path id="TimesNewRomanPSMT-37" d="M 644 4238 
L 2916 4238 
L 2916 4119 
L 1503 -88 
L 1153 -88 
L 2419 3728 
L 1253 3728 
Q 900 3728 750 3644 
Q 488 3500 328 3200 
L 238 3234 
L 644 4238 
z
" transform="scale(0.015625)"/>
       </defs>
       <use xlink:href="#TimesNewRomanPSMT-30"/>
       <use xlink:href="#TimesNewRomanPSMT-2e" transform="translate(50 0)"/>
       <use xlink:href="#TimesNewRomanPSMT-37" transform="translate(75 0)"/>
      </g>
     </g>
    </g>
    <g id="ytick_9">
     <g id="line2d_25">
      <path d="M 331.087688 98.7539 
L 688.207688 98.7539 
" clip-path="url(#p60af0e5fb7)" style="fill: none; stroke: #b0b0b0; stroke-opacity: 0.3; stroke-width: 0.8; stroke-linecap: square"/>
     </g>
     <g id="line2d_26">
      <g>
       <use xlink:href="#mbe0ddfe38f" x="331.087688" y="98.7539" style="stroke: #000000; stroke-width: 0.8"/>
      </g>
     </g>
     <g id="text_14">
      <!-- 0.8 -->
      <g transform="translate(296.587688 106.392025) scale(0.22 -0.22)">
       <defs>
        <path id="TimesNewRomanPSMT-38" d="M 1228 2134 
Q 725 2547 579 2797 
Q 434 3047 434 3316 
Q 434 3728 753 4026 
Q 1072 4325 1600 4325 
Q 2113 4325 2425 4047 
Q 2738 3769 2738 3413 
Q 2738 3175 2569 2928 
Q 2400 2681 1866 2347 
Q 2416 1922 2594 1678 
Q 2831 1359 2831 1006 
Q 2831 559 2490 242 
Q 2150 -75 1597 -75 
Q 994 -75 656 303 
Q 388 606 388 966 
Q 388 1247 577 1523 
Q 766 1800 1228 2134 
z
M 1719 2469 
Q 2094 2806 2194 3001 
Q 2294 3197 2294 3444 
Q 2294 3772 2109 3958 
Q 1925 4144 1606 4144 
Q 1288 4144 1088 3959 
Q 888 3775 888 3528 
Q 888 3366 970 3203 
Q 1053 3041 1206 2894 
L 1719 2469 
z
M 1375 2016 
Q 1116 1797 991 1539 
Q 866 1281 866 981 
Q 866 578 1086 336 
Q 1306 94 1647 94 
Q 1984 94 2187 284 
Q 2391 475 2391 747 
Q 2391 972 2272 1150 
Q 2050 1481 1375 2016 
z
" transform="scale(0.015625)"/>
       </defs>
       <use xlink:href="#TimesNewRomanPSMT-30"/>
       <use xlink:href="#TimesNewRomanPSMT-2e" transform="translate(50 0)"/>
       <use xlink:href="#TimesNewRomanPSMT-38" transform="translate(75 0)"/>
      </g>
     </g>
    </g>
    <g id="ytick_10">
     <g id="line2d_27">
      <path d="M 331.087688 72.1427 
L 688.207688 72.1427 
" clip-path="url(#p60af0e5fb7)" style="fill: none; stroke: #b0b0b0; stroke-opacity: 0.3; stroke-width: 0.8; stroke-linecap: square"/>
     </g>
     <g id="line2d_28">
      <g>
       <use xlink:href="#mbe0ddfe38f" x="331.087688" y="72.1427" style="stroke: #000000; stroke-width: 0.8"/>
      </g>
     </g>
     <g id="text_15">
      <!-- 0.9 -->
      <g transform="translate(296.587688 79.780825) scale(0.22 -0.22)">
       <defs>
        <path id="TimesNewRomanPSMT-39" d="M 338 -88 
L 338 28 
Q 744 34 1094 217 
Q 1444 400 1770 856 
Q 2097 1313 2225 1859 
Q 1734 1544 1338 1544 
Q 891 1544 572 1889 
Q 253 2234 253 2806 
Q 253 3363 572 3797 
Q 956 4325 1575 4325 
Q 2097 4325 2469 3894 
Q 2925 3359 2925 2575 
Q 2925 1869 2578 1258 
Q 2231 647 1613 244 
Q 1109 -88 516 -88 
L 338 -88 
z
M 2275 2091 
Q 2331 2497 2331 2741 
Q 2331 3044 2228 3395 
Q 2125 3747 1936 3934 
Q 1747 4122 1506 4122 
Q 1228 4122 1018 3872 
Q 809 3622 809 3128 
Q 809 2469 1088 2097 
Q 1291 1828 1588 1828 
Q 1731 1828 1928 1897 
Q 2125 1966 2275 2091 
z
" transform="scale(0.015625)"/>
       </defs>
       <use xlink:href="#TimesNewRomanPSMT-30"/>
       <use xlink:href="#TimesNewRomanPSMT-2e" transform="translate(50 0)"/>
       <use xlink:href="#TimesNewRomanPSMT-39" transform="translate(75 0)"/>
      </g>
     </g>
    </g>
    <g id="ytick_11">
     <g id="line2d_29">
      <path d="M 331.087688 45.5315 
L 688.207688 45.5315 
" clip-path="url(#p60af0e5fb7)" style="fill: none; stroke: #b0b0b0; stroke-opacity: 0.3; stroke-width: 0.8; stroke-linecap: square"/>
     </g>
     <g id="line2d_30">
      <g>
       <use xlink:href="#mbe0ddfe38f" x="331.087688" y="45.5315" style="stroke: #000000; stroke-width: 0.8"/>
      </g>
     </g>
     <g id="text_16">
      <!-- 1.0 -->
      <g transform="translate(296.587688 53.169625) scale(0.22 -0.22)">
       <use xlink:href="#TimesNewRomanPSMT-31"/>
       <use xlink:href="#TimesNewRomanPSMT-2e" transform="translate(50 0)"/>
       <use xlink:href="#TimesNewRomanPSMT-30" transform="translate(75 0)"/>
      </g>
     </g>
    </g>
    <g id="text_17">
     <!-- Accuracy -->
     <g transform="translate(287.8405 220.726094) rotate(-90) scale(0.22 -0.22)">
      <defs>
       <path id="TimesNewRomanPSMT-41" d="M 2928 1419 
L 1288 1419 
L 1000 750 
Q 894 503 894 381 
Q 894 284 986 211 
Q 1078 138 1384 116 
L 1384 0 
L 50 0 
L 50 116 
Q 316 163 394 238 
Q 553 388 747 847 
L 2238 4334 
L 2347 4334 
L 3822 809 
Q 4000 384 4145 257 
Q 4291 131 4550 116 
L 4550 0 
L 2878 0 
L 2878 116 
Q 3131 128 3220 200 
Q 3309 272 3309 375 
Q 3309 513 3184 809 
L 2928 1419 
z
M 2841 1650 
L 2122 3363 
L 1384 1650 
L 2841 1650 
z
" transform="scale(0.015625)"/>
       <path id="TimesNewRomanPSMT-63" d="M 2631 1088 
Q 2516 522 2178 217 
Q 1841 -88 1431 -88 
Q 944 -88 581 321 
Q 219 731 219 1428 
Q 219 2103 620 2525 
Q 1022 2947 1584 2947 
Q 2006 2947 2278 2723 
Q 2550 2500 2550 2259 
Q 2550 2141 2473 2067 
Q 2397 1994 2259 1994 
Q 2075 1994 1981 2113 
Q 1928 2178 1911 2362 
Q 1894 2547 1784 2644 
Q 1675 2738 1481 2738 
Q 1169 2738 978 2506 
Q 725 2200 725 1697 
Q 725 1184 976 792 
Q 1228 400 1656 400 
Q 1963 400 2206 609 
Q 2378 753 2541 1131 
L 2631 1088 
z
" transform="scale(0.015625)"/>
       <path id="TimesNewRomanPSMT-75" d="M 2709 2863 
L 2709 1128 
Q 2709 631 2732 520 
Q 2756 409 2807 365 
Q 2859 322 2928 322 
Q 3025 322 3147 375 
L 3191 266 
L 2334 -88 
L 2194 -88 
L 2194 519 
Q 1825 119 1631 15 
Q 1438 -88 1222 -88 
Q 981 -88 804 51 
Q 628 191 559 409 
Q 491 628 491 1028 
L 491 2306 
Q 491 2509 447 2587 
Q 403 2666 317 2708 
Q 231 2750 6 2747 
L 6 2863 
L 1009 2863 
L 1009 947 
Q 1009 547 1148 422 
Q 1288 297 1484 297 
Q 1619 297 1789 381 
Q 1959 466 2194 703 
L 2194 2325 
Q 2194 2569 2105 2655 
Q 2016 2741 1734 2747 
L 1734 2863 
L 2709 2863 
z
" transform="scale(0.015625)"/>
       <path id="TimesNewRomanPSMT-72" d="M 1038 2947 
L 1038 2303 
Q 1397 2947 1775 2947 
Q 1947 2947 2059 2842 
Q 2172 2738 2172 2600 
Q 2172 2478 2090 2393 
Q 2009 2309 1897 2309 
Q 1788 2309 1652 2417 
Q 1516 2525 1450 2525 
Q 1394 2525 1328 2463 
Q 1188 2334 1038 2041 
L 1038 669 
Q 1038 431 1097 309 
Q 1138 225 1241 169 
Q 1344 113 1538 113 
L 1538 0 
L 72 0 
L 72 113 
Q 291 113 397 181 
Q 475 231 506 341 
Q 522 394 522 644 
L 522 1753 
Q 522 2253 501 2348 
Q 481 2444 426 2487 
Q 372 2531 291 2531 
Q 194 2531 72 2484 
L 41 2597 
L 906 2947 
L 1038 2947 
z
" transform="scale(0.015625)"/>
       <path id="TimesNewRomanPSMT-61" d="M 1822 413 
Q 1381 72 1269 19 
Q 1100 -59 909 -59 
Q 613 -59 420 144 
Q 228 347 228 678 
Q 228 888 322 1041 
Q 450 1253 767 1440 
Q 1084 1628 1822 1897 
L 1822 2009 
Q 1822 2438 1686 2597 
Q 1550 2756 1291 2756 
Q 1094 2756 978 2650 
Q 859 2544 859 2406 
L 866 2225 
Q 866 2081 792 2003 
Q 719 1925 600 1925 
Q 484 1925 411 2006 
Q 338 2088 338 2228 
Q 338 2497 613 2722 
Q 888 2947 1384 2947 
Q 1766 2947 2009 2819 
Q 2194 2722 2281 2516 
Q 2338 2381 2338 1966 
L 2338 994 
Q 2338 584 2353 492 
Q 2369 400 2405 369 
Q 2441 338 2488 338 
Q 2538 338 2575 359 
Q 2641 400 2828 588 
L 2828 413 
Q 2478 -56 2159 -56 
Q 2006 -56 1915 50 
Q 1825 156 1822 413 
z
M 1822 616 
L 1822 1706 
Q 1350 1519 1213 1441 
Q 966 1303 859 1153 
Q 753 1003 753 825 
Q 753 600 887 451 
Q 1022 303 1197 303 
Q 1434 303 1822 616 
z
" transform="scale(0.015625)"/>
       <path id="TimesNewRomanPSMT-79" d="M 38 2863 
L 1372 2863 
L 1372 2747 
L 1306 2747 
Q 1166 2747 1095 2686 
Q 1025 2625 1025 2534 
Q 1025 2413 1128 2197 
L 1825 753 
L 2466 2334 
Q 2519 2463 2519 2588 
Q 2519 2644 2497 2672 
Q 2472 2706 2419 2726 
Q 2366 2747 2231 2747 
L 2231 2863 
L 3163 2863 
L 3163 2747 
Q 3047 2734 2984 2696 
Q 2922 2659 2847 2556 
Q 2819 2513 2741 2316 
L 1575 -541 
Q 1406 -956 1132 -1168 
Q 859 -1381 606 -1381 
Q 422 -1381 303 -1275 
Q 184 -1169 184 -1031 
Q 184 -900 270 -820 
Q 356 -741 506 -741 
Q 609 -741 788 -809 
Q 913 -856 944 -856 
Q 1038 -856 1148 -759 
Q 1259 -663 1372 -384 
L 1575 113 
L 547 2272 
Q 500 2369 397 2513 
Q 319 2622 269 2659 
Q 197 2709 38 2747 
L 38 2863 
z
" transform="scale(0.015625)"/>
      </defs>
      <use xlink:href="#TimesNewRomanPSMT-41"/>
      <use xlink:href="#TimesNewRomanPSMT-63" transform="translate(72.216797 0)"/>
      <use xlink:href="#TimesNewRomanPSMT-63" transform="translate(116.601562 0)"/>
      <use xlink:href="#TimesNewRomanPSMT-75" transform="translate(160.986328 0)"/>
      <use xlink:href="#TimesNewRomanPSMT-72" transform="translate(210.986328 0)"/>
      <use xlink:href="#TimesNewRomanPSMT-61" transform="translate(244.287109 0)"/>
      <use xlink:href="#TimesNewRomanPSMT-63" transform="translate(288.671875 0)"/>
      <use xlink:href="#TimesNewRomanPSMT-79" transform="translate(333.056641 0)"/>
     </g>
    </g>
   </g>
   <g id="line2d_31">
    <path d="M 331.087688 159.116972 
L 406.790848 147.881137 
L 427.204521 141.952754 
L 439.499675 140.193459 
L 448.325977 138.581993 
L 455.216088 136.571372 
L 460.868511 134.693797 
L 465.660915 133.644146 
L 469.820774 133.156262 
L 473.495761 132.195308 
L 476.787203 132.180525 
L 479.767645 131.145641 
L 482.490819 129.962927 
L 484.99763 129.770733 
L 487.319944 128.987174 
L 489.483066 128.46974 
L 491.507428 127.686182 
L 493.409765 127.242662 
L 495.203954 126.621747 
L 496.901633 126.326057 
L 498.512657 125.734692 
L 500.045445 126.104297 
L 501.507244 125.468584 
L 502.904341 125.098995 
L 504.24222 124.551979 
L 505.525698 124.167591 
L 506.759028 124.241521 
L 507.945981 122.925745 
L 510.19385 123.265769 
L 511.260479 122.659621 
L 513.291354 122.659621 
L 514.259811 121.60997 
L 515.19944 121.831729 
L 517.861343 120.575085 
L 518.701 120.929907 
L 519.518901 120.885543 
L 520.316146 119.673263 
L 521.093752 119.717612 
L 521.852664 119.968938 
L 523.317856 119.155813 
L 524.71805 119.614132 
L 525.395527 118.874922 
L 526.05877 118.327922 
L 526.708366 118.623596 
L 527.344863 118.313139 
L 527.968781 118.682728 
L 528.580607 118.283557 
L 529.1808 118.534899 
L 529.769795 117.736557 
L 530.348002 118.505317 
L 530.915809 118.091379 
L 531.473583 118.07658 
L 532.021674 118.59403 
L 532.560411 117.987883 
L 533.611064 117.928751 
L 534.123562 117.20434 
L 534.627873 117.366952 
L 535.124255 118.534899 
L 535.612952 117.514797 
L 536.0942 117.588712 
L 536.568221 117.366952 
L 537.035229 118.135728 
L 537.49543 117.041712 
L 537.949019 117.056495 
L 538.396182 117.337386 
L 539.271944 116.864301 
L 539.700881 117.219123 
L 540.124067 117.174758 
L 540.541655 118.194859 
L 540.953792 116.805169 
L 541.360617 116.657324 
L 541.762266 117.056495 
L 542.550552 116.376432 
L 543.319633 117.041712 
L 544.070423 116.879084 
L 544.439226 116.746021 
L 544.803771 115.977262 
L 545.520469 116.479913 
L 545.872808 116.184238 
L 546.221257 116.317285 
L 546.565903 116.568626 
L 546.906826 117.189541 
L 547.244107 115.977262 
L 547.577823 117.041712 
L 547.908048 115.962479 
L 548.558312 116.775603 
L 548.878489 115.62244 
L 549.195452 116.302502 
L 549.509264 115.711153 
L 549.819987 115.903347 
L 550.127682 116.68689 
L 550.432406 116.332084 
L 550.734217 116.435564 
L 551.03317 116.346866 
L 551.329319 116.938215 
L 552.201452 115.504176 
L 552.48689 116.46513 
L 552.76977 116.02161 
L 553.050138 115.371114 
L 553.328038 116.612975 
L 553.603512 116.450347 
L 553.876604 116.642541 
L 554.147354 117.52958 
L 554.415801 116.24337 
L 554.681985 115.977262 
L 554.945943 116.539045 
L 555.207712 115.208486 
L 555.467329 115.844199 
L 555.724828 115.637222 
L 555.980244 116.612975 
L 556.23361 115.755502 
L 556.484958 116.006827 
L 556.98173 115.371114 
L 557.470806 115.592874 
L 557.95242 115.489393 
L 558.1905 115.755502 
L 558.426798 115.060657 
L 558.894152 115.341548 
L 559.12526 115.356331 
L 559.354688 115.962479 
L 559.582461 115.962479 
L 559.808603 115.47461 
L 560.033136 115.282416 
L 560.256083 115.25285 
L 560.697309 115.755502 
L 561.347797 114.912811 
L 561.561681 115.430246 
L 561.774126 115.090222 
L 561.985151 115.459827 
L 562.194775 115.459827 
L 562.609892 114.868463 
L 562.815421 115.637222 
L 563.019621 115.267633 
L 563.222509 115.385897 
L 563.424101 115.001509 
L 563.624414 115.385897 
L 563.823464 115.075439 
L 564.021267 115.105005 
L 564.217838 115.489393 
L 564.607345 114.883246 
L 564.800312 115.001509 
L 564.992106 114.720617 
L 565.182742 115.326765 
L 565.372234 115.149354 
L 565.560594 115.445029 
L 565.747838 114.557989 
L 565.933978 114.927594 
L 566.119027 114.705835 
L 566.302997 115.829416 
L 566.667752 114.247532 
L 566.848561 114.986726 
L 567.028341 114.661486 
L 567.207103 114.7354 
L 567.384858 115.090222 
L 567.737393 114.1884 
L 567.912195 114.676269 
L 568.086035 114.691052 
L 568.258923 114.484075 
L 568.601883 114.927594 
L 568.771976 114.262315 
L 568.941158 114.543206 
L 569.109438 115.075439 
L 569.276825 114.63192 
L 569.44333 116.051176 
L 569.608961 114.646703 
L 569.937638 114.572772 
L 570.100703 114.691052 
L 570.262929 115.016308 
L 570.424327 114.676269 
L 570.584903 115.977262 
L 570.744666 114.868463 
L 571.061788 114.676269 
L 571.219162 115.193703 
L 571.375756 114.838897 
L 571.686632 114.868463 
L 571.84093 114.661486 
L 571.994477 114.720617 
L 572.299348 115.17892 
L 572.450687 115.977262 
L 572.601304 114.898028 
L 572.900398 114.528424 
L 573.04889 114.779749 
L 573.196686 114.617137 
L 573.343793 114.898028 
L 573.490219 114.41016 
L 573.635968 114.85368 
L 573.781047 114.764966 
L 574.069221 114.942377 
L 574.212327 114.809331 
L 574.354788 115.652005 
L 574.637795 114.720617 
L 574.918287 115.193703 
L 575.057604 114.572772 
L 575.196309 115.119788 
L 575.334407 114.676269 
L 575.471904 115.016308 
L 575.608805 114.691052 
L 575.745114 115.105005 
L 575.880837 114.809331 
L 576.01598 115.119788 
L 576.284541 114.676269 
L 576.41797 114.868463 
L 576.550837 115.385897 
L 576.814906 114.883246 
L 576.946116 114.942377 
L 577.076784 114.809331 
L 577.206913 116.02161 
L 577.465572 114.764966 
L 577.722129 115.40068 
L 577.84963 114.469292 
L 578.103098 114.912811 
L 578.229073 114.838897 
L 578.354547 114.942377 
L 578.604008 114.764966 
L 578.728004 114.971943 
L 578.974543 114.912811 
L 579.097095 115.17892 
L 579.340779 114.7354 
L 579.46192 114.912811 
L 579.582598 115.62244 
L 579.702816 115.445029 
L 579.822577 115.001509 
L 579.941887 115.341548 
L 580.179161 115.149354 
L 580.297133 115.031091 
L 580.414665 115.17892 
L 580.531762 115.681587 
L 580.76466 115.311982 
L 580.880468 115.17892 
L 580.995853 115.282416 
L 581.110817 115.060657 
L 581.225365 115.223269 
L 581.339498 115.105005 
L 581.45322 114.794532 
L 581.679442 115.341548 
L 582.015765 114.868463 
L 582.127081 115.415463 
L 582.238006 114.898028 
L 582.348543 115.031091 
L 582.458694 114.705835 
L 582.677849 115.090222 
L 582.786859 114.794532 
L 582.895494 115.208486 
L 583.003756 114.942377 
L 583.111648 115.105005 
L 583.219173 114.986726 
L 583.433129 115.031091 
L 583.539566 115.518959 
L 583.856741 115.164137 
L 583.961762 115.548525 
L 584.066435 114.95716 
L 584.170761 115.430246 
L 584.274744 114.912811 
L 584.378386 114.986726 
L 584.481688 115.208486 
L 584.584654 115.075439 
L 584.687285 115.740719 
L 584.789583 114.838897 
L 584.891551 115.548525 
L 584.99319 114.971943 
L 585.195493 115.267633 
L 585.29616 115.62244 
L 585.396507 114.927594 
L 585.59625 115.149354 
L 585.794737 115.001509 
L 585.893514 115.25285 
L 586.090146 114.986726 
L 586.188005 115.060657 
L 586.285561 114.912811 
L 586.479774 115.282416 
L 586.576434 114.898028 
L 586.864652 115.445029 
L 586.960143 116.346866 
L 587.150262 114.986726 
L 587.244894 114.676269 
L 587.339243 115.607657 
L 587.433311 115.016308 
L 587.5271 115.548525 
L 587.62061 115.105005 
L 587.713845 115.652005 
L 587.899492 115.149354 
L 587.991908 115.25285 
L 588.084054 115.075439 
L 588.267543 115.681587 
L 588.358889 115.341548 
L 588.449972 115.592874 
L 588.540792 115.297199 
L 588.631352 115.62244 
L 588.721653 115.533742 
L 588.811697 115.755502 
L 588.991017 115.193703 
L 589.080296 115.578091 
L 589.258101 114.927594 
L 589.34663 115.533742 
L 589.434911 115.371114 
L 589.610735 115.430246 
L 589.698282 115.459827 
L 589.872649 115.311982 
L 590.218522 115.533742 
L 590.304401 114.971943 
L 590.475462 115.637222 
L 590.560646 115.563308 
L 590.645601 115.548525 
L 590.730328 115.977262 
L 590.814828 115.341548 
L 590.899103 115.637222 
L 591.06698 115.060657 
L 591.150585 115.740719 
L 591.233969 115.563308 
L 591.317133 115.47461 
L 591.400079 115.563308 
L 591.482808 115.060657 
L 591.56532 115.297199 
L 591.647617 115.267633 
L 591.729701 115.430246 
L 591.811571 115.903347 
L 591.974678 115.385897 
L 592.055916 115.459827 
L 592.136946 115.504176 
L 592.217768 115.223269 
L 592.298384 115.47461 
L 592.378795 115.282416 
L 592.539004 115.518959 
L 592.618805 115.282416 
L 592.698405 115.518959 
L 592.777804 115.489393 
L 592.857004 115.459827 
L 592.936007 115.637222 
L 593.014811 115.356331 
L 593.250052 115.666788 
L 593.328078 116.13989 
L 593.405912 115.371114 
L 593.483554 115.548525 
L 593.561005 115.711153 
L 593.638267 115.415463 
L 593.868925 115.844199 
L 594.021766 115.149354 
L 594.097909 115.563308 
L 594.17387 115.193703 
L 594.249648 115.297199 
L 594.400661 115.371114 
L 594.550955 115.371114 
L 594.700537 115.548525 
L 594.775063 115.459827 
L 594.849414 115.548525 
L 594.92359 115.40068 
L 594.997591 115.69637 
L 595.145077 115.533742 
L 595.218562 115.770285 
L 595.291877 115.711153 
L 595.365021 115.829416 
L 595.437997 115.341548 
L 595.510804 115.992044 
L 595.583444 115.504176 
L 595.655917 115.711153 
L 595.728224 115.947696 
L 595.800365 115.829416 
L 595.872343 115.445029 
L 595.944156 115.740719 
L 596.015807 115.62244 
L 596.087295 115.69637 
L 596.158622 116.02161 
L 596.229788 115.563308 
L 596.300794 115.932913 
L 596.37164 115.785068 
L 596.442328 115.459827 
L 596.583231 115.785068 
L 596.793413 115.311982 
L 596.932761 115.504176 
L 597.002204 115.445029 
L 597.140636 115.725936 
L 597.209624 115.740719 
L 597.278463 115.385897 
L 597.415691 115.962479 
L 597.484081 115.62244 
L 597.62042 115.977262 
L 597.688369 115.903347 
L 597.756173 115.637222 
L 597.823831 115.888548 
L 597.891344 115.504176 
L 597.958713 115.62244 
L 598.159963 115.652005 
L 598.226762 115.637222 
L 598.359937 115.992044 
L 598.426315 115.740719 
L 598.492553 115.932913 
L 598.558653 115.785068 
L 598.624615 115.666788 
L 598.690439 115.755502 
L 598.756126 115.888548 
L 598.887091 115.267633 
L 598.952371 115.992044 
L 599.017516 115.873765 
L 599.147404 115.992044 
L 599.341239 115.62244 
L 599.405587 115.992044 
L 599.469804 115.829416 
L 599.533891 115.977262 
L 599.597848 115.903347 
L 599.661676 115.69637 
L 599.725375 115.962479 
L 599.788946 115.785068 
L 599.852389 115.25285 
L 599.915705 115.947696 
L 599.978894 115.844199 
L 600.041956 115.607657 
L 600.104893 115.69637 
L 600.167705 115.947696 
L 600.355394 115.40068 
L 600.479903 115.962479 
L 600.541974 115.814633 
L 600.603923 115.903347 
L 600.665751 115.563308 
L 600.727458 115.652005 
L 600.850511 116.302502 
L 600.911858 116.095525 
L 600.973086 115.637222 
L 601.156061 116.539045 
L 601.277458 115.637222 
L 601.337982 115.578091 
L 601.39839 116.036393 
L 601.458682 115.903347 
L 601.51886 116.095525 
L 601.578923 115.992044 
L 601.698708 115.47461 
L 601.75843 116.13989 
L 601.81804 115.858982 
L 601.877537 115.91813 
L 601.936922 116.169455 
L 602.114411 115.711153 
L 602.173352 116.272936 
L 602.232184 116.213804 
L 602.290907 115.415463 
L 602.34952 116.391215 
L 602.408025 115.977262 
L 602.466422 115.799851 
L 602.524711 116.110324 
L 602.582892 115.888548 
L 602.640966 115.888548 
L 602.756795 116.006827 
L 602.872201 115.666788 
L 602.929746 116.199021 
L 602.987187 116.065959 
L 603.044523 115.725936 
L 603.101755 116.080742 
L 603.158883 115.666788 
L 603.215909 115.755502 
L 603.272831 116.199021 
L 603.329651 116.006827 
L 603.386369 115.666788 
L 603.555914 116.199021 
L 603.724553 115.533742 
L 603.836481 116.02161 
L 603.892297 116.006827 
L 603.948014 115.652005 
L 604.003632 115.91813 
L 604.059153 116.065959 
L 604.114577 116.036393 
L 604.169903 115.681587 
L 604.225133 116.006827 
L 604.280266 115.992044 
L 604.335303 116.317285 
L 604.390244 115.903347 
L 604.44509 116.110324 
L 604.49984 115.932913 
L 604.609058 116.228587 
L 604.663525 115.858982 
L 604.717898 116.213804 
L 604.880459 116.006827 
L 604.93446 116.435564 
L 605.042187 115.740719 
L 605.095912 116.006827 
L 605.149547 115.681587 
L 605.20309 116.065959 
L 605.256543 115.666788 
L 605.363178 116.110324 
L 605.416361 115.725936 
L 605.469454 115.858982 
L 605.575373 116.317285 
L 605.6282 116.13989 
L 605.680938 115.69637 
L 605.733589 115.992044 
L 605.786151 116.095525 
L 605.838627 115.592874 
L 605.891015 116.006827 
L 605.943317 116.154673 
L 605.995532 115.814633 
L 606.047661 115.844199 
L 606.099703 116.125107 
L 606.151661 115.69637 
L 606.203533 116.006827 
L 606.255319 115.785068 
L 606.307021 116.46513 
L 606.358639 116.125107 
L 606.410172 115.992044 
L 606.461621 116.154673 
L 606.564269 116.479913 
L 606.666583 116.080742 
L 606.717617 116.228587 
L 606.870223 115.814633 
L 607.022096 116.524262 
L 607.072558 115.681587 
L 607.12294 116.287719 
L 607.173242 116.051176 
L 607.223463 116.287719 
L 607.273605 116.672107 
L 607.423554 115.977262 
L 607.473379 116.346866 
L 607.523126 116.02161 
L 607.572794 115.755502 
L 607.721332 116.302502 
L 607.77069 116.184238 
L 607.81997 116.450347 
L 607.869174 116.184238 
L 607.918302 115.829416 
L 607.967353 116.287719 
L 608.065227 116.199021 
L 608.162798 115.711153 
L 608.211471 116.006827 
L 608.308592 116.361649 
L 608.357041 115.932913 
L 608.405415 116.02161 
L 608.453716 116.361649 
L 608.501943 116.006827 
L 608.550096 116.051176 
L 608.598176 115.947696 
L 608.646182 115.977262 
L 608.694116 116.184238 
L 608.789766 115.62244 
L 608.837482 115.888548 
L 608.885127 115.69637 
L 608.932699 115.829416 
L 608.980201 116.287719 
L 609.02763 115.814633 
L 609.074989 115.711153 
L 609.21664 116.213804 
L 609.263716 116.213804 
L 609.357658 115.652005 
L 609.404524 115.932913 
L 609.451321 116.450347 
L 609.498049 116.287719 
L 609.637818 115.814633 
L 609.730655 116.583409 
L 609.776972 116.258153 
L 609.82322 115.858982 
L 609.869401 116.24337 
L 609.96156 116.02161 
L 610.007539 115.652005 
L 610.053452 115.977262 
L 610.099297 115.829416 
L 610.190789 116.302502 
L 610.236436 116.125107 
L 610.282016 116.199021 
L 610.372981 115.962479 
L 610.418365 115.992044 
L 610.463684 116.184238 
L 610.508938 115.977262 
L 610.689308 116.302502 
L 610.73424 116.24337 
L 610.779108 115.947696 
L 610.823913 116.184238 
L 610.913331 116.13989 
L 610.957946 116.361649 
L 611.002497 115.770285 
L 611.046986 115.962479 
L 611.091412 116.272936 
L 611.135776 115.888548 
L 611.224317 115.814633 
L 611.31261 116.376432 
L 611.356664 116.228587 
L 611.400657 116.317285 
L 611.444588 115.992044 
L 611.488459 116.435564 
L 611.532268 116.006827 
L 611.576017 116.13989 
L 611.619706 115.91813 
L 611.706902 116.13989 
L 611.750409 115.873765 
L 611.793857 116.036393 
L 611.923843 116.228587 
L 611.967053 116.184238 
L 612.096329 115.962479 
L 612.18222 116.287719 
L 612.225078 116.080742 
L 612.267878 116.051176 
L 612.31062 116.361649 
L 612.353304 116.287719 
L 612.481012 115.755502 
L 612.523466 116.272936 
L 612.565864 116.169455 
L 612.650488 115.873765 
L 612.692716 116.051176 
L 612.734887 116.317285 
L 612.777002 115.903347 
L 612.81906 116.13989 
L 612.90301 115.681587 
L 612.944901 116.095525 
L 613.070242 116.036393 
L 613.153527 115.666788 
L 613.195087 116.24337 
L 613.278044 116.036393 
L 613.319441 116.199021 
L 613.360784 115.740719 
L 613.443307 115.947696 
L 613.525615 115.844199 
L 613.648676 116.258153 
L 613.812014 115.814633 
L 613.852717 115.91813 
L 613.893368 116.154673 
L 613.974512 116.080742 
L 614.055449 116.184238 
L 614.095839 116.332084 
L 614.136178 116.199021 
L 614.176466 115.992044 
L 614.216702 116.258153 
L 614.256886 116.125107 
L 614.29702 116.169455 
L 614.377135 115.992044 
L 614.417116 116.169455 
L 614.496927 116.125107 
L 614.536757 115.888548 
L 614.576537 116.346866 
L 614.616267 115.799851 
L 614.655946 116.169455 
L 614.695576 116.302502 
L 614.735157 116.065959 
L 614.774687 116.213804 
L 614.814168 116.199021 
L 614.8536 115.932913 
L 614.932317 116.080742 
L 614.971602 116.213804 
L 615.010837 116.036393 
L 615.089163 115.962479 
L 615.128253 116.272936 
L 615.206289 116.02161 
L 615.284132 115.903347 
L 615.322981 116.125107 
L 615.400538 116.080742 
L 615.477904 115.932913 
L 615.593598 116.361649 
L 615.555081 115.858982 
L 615.632069 116.24337 
L 615.747201 116.051176 
L 615.785486 116.228587 
L 615.823724 116.199021 
L 615.900061 115.932913 
L 615.93816 116.450347 
L 616.014222 116.361649 
L 616.127971 115.903347 
L 616.165796 115.962479 
L 616.279002 116.272936 
L 616.316647 115.947696 
L 616.354247 116.24337 
L 616.391803 116.317285 
L 616.429314 115.977262 
L 616.46678 116.065959 
L 616.504202 116.494696 
L 616.54158 115.69637 
L 616.578914 116.24337 
L 616.616203 116.080742 
L 616.69065 116.110324 
L 616.727808 116.272936 
L 616.764922 116.006827 
L 616.839019 115.873765 
L 616.876003 116.479913 
L 616.94984 115.977262 
L 616.986694 116.13989 
L 617.023505 116.080742 
L 617.060274 115.91813 
L 617.096999 115.947696 
L 617.133682 116.272936 
L 617.170322 115.992044 
L 617.20692 115.829416 
L 617.243475 115.977262 
L 617.316459 115.740719 
L 617.389275 116.420781 
L 617.461923 115.91813 
L 617.498184 116.13989 
L 617.534404 116.287719 
L 617.570583 116.006827 
L 617.678869 116.332084 
L 617.750855 116.199021 
L 617.786786 115.932913 
L 617.822677 116.332084 
L 617.858526 116.332084 
L 617.894335 115.785068 
L 617.965832 116.184238 
L 618.001519 116.184238 
L 618.037166 116.332084 
L 618.072773 116.272936 
L 618.10834 116.110324 
L 618.143867 116.287719 
L 618.179354 116.317285 
L 618.285576 116.169455 
L 618.356193 116.228587 
L 618.391442 116.080742 
L 618.496955 116.583409 
L 618.602115 116.080742 
L 618.637091 116.154673 
L 618.811392 116.006827 
L 618.915512 116.376432 
L 618.950142 116.24337 
L 619.26012 116.080742 
L 619.294374 116.169455 
L 619.328592 115.873765 
L 619.362773 116.184238 
L 619.396916 116.065959 
L 619.431023 116.332084 
L 619.465093 116.051176 
L 619.499126 116.065959 
L 619.533123 116.184238 
L 619.567083 115.977262 
L 619.601006 116.13989 
L 619.668744 116.184238 
L 619.702559 116.065959 
L 619.770079 116.302502 
L 619.87109 116.184238 
L 619.904688 115.962479 
L 619.938251 116.435564 
L 619.971778 116.405998 
L 620.00527 116.509479 
L 620.138882 116.051176 
L 620.172197 116.361649 
L 620.238722 116.184238 
L 620.271932 115.91813 
L 620.305107 116.213804 
L 620.338247 116.169455 
L 620.371352 116.228587 
L 620.404422 116.095525 
L 620.47046 115.962479 
L 620.503427 116.02161 
L 620.569258 116.405998 
L 620.667748 116.24337 
L 620.700509 116.154673 
L 620.733237 116.553843 
L 620.798591 116.228587 
L 620.928894 115.962479 
L 621.02627 116.332084 
L 621.058662 115.962479 
L 621.123347 116.287719 
L 621.187899 116.095525 
L 621.220125 116.258153 
L 621.28448 116.199021 
L 621.316608 116.332084 
L 621.380767 115.992044 
L 621.412797 116.095525 
L 621.476761 116.598192 
L 621.572464 116.435564 
L 621.604301 116.479913 
L 621.636105 116.391215 
L 621.667878 116.361649 
L 621.731327 116.583409 
L 621.794649 115.888548 
L 621.920913 116.346866 
L 621.952401 116.24337 
L 622.015281 116.332084 
L 622.046675 116.539045 
L 622.109368 116.479913 
L 622.171937 116.258153 
L 622.265559 116.346866 
L 622.389957 116.598192 
L 622.544769 116.125107 
L 622.606482 116.154673 
L 622.637294 116.169455 
L 622.668075 116.095525 
L 622.698826 116.065959 
L 622.729547 116.302502 
L 622.7909 116.199021 
L 622.821532 115.977262 
L 622.91325 116.095525 
L 622.943763 116.110324 
L 623.004702 116.450347 
L 623.065523 116.332084 
L 623.09589 116.154673 
L 623.156536 116.199021 
L 623.277479 116.405998 
L 623.307643 116.095525 
L 623.397961 116.272936 
L 623.45803 116.376432 
L 623.488021 116.405998 
L 623.607704 116.13989 
L 623.726934 116.553843 
L 623.845716 116.095525 
L 623.875342 116.213804 
L 623.993568 116.494696 
L 624.023055 116.272936 
L 624.052515 115.992044 
L 624.111352 116.494696 
L 624.14073 116.125107 
L 624.257968 116.46513 
L 624.28721 116.420781 
L 624.316424 116.13989 
L 624.345612 133.71806 
L 624.403906 120.042852 
L 624.520172 116.376432 
L 624.549172 116.524262 
L 624.578145 116.287719 
L 624.636012 116.568626 
L 624.664906 116.46513 
L 624.981003 116.524262 
L 625.009583 116.583409 
L 625.038136 116.405998 
L 625.066665 116.361649 
L 625.095167 116.583409 
L 625.18052 116.509479 
L 625.237294 116.346866 
L 625.293966 116.420781 
L 625.407006 116.553843 
L 625.435203 116.420781 
L 625.519643 116.553843 
L 625.715795 116.302502 
L 625.743718 116.420781 
L 625.827337 116.376432 
L 625.910736 116.199021 
L 625.966213 116.317285 
L 626.324457 116.258153 
L 626.379212 116.287719 
L 626.461168 116.065959 
L 626.624443 116.272936 
L 626.705765 116.110324 
L 626.759864 116.169455 
L 626.786878 116.287719 
L 626.840838 116.228587 
L 626.921605 116.258153 
L 626.948482 116.110324 
L 627.082522 116.405998 
L 627.215996 116.13989 
L 627.295811 116.199021 
L 627.322371 116.051176 
L 627.401917 116.125107 
L 627.613065 116.051176 
L 627.63936 116.110324 
L 627.796669 116.199021 
L 627.822811 116.228587 
L 627.87503 116.154673 
L 627.97921 116.02161 
L 628.083048 116.228587 
L 628.108954 116.095525 
L 628.186545 116.13989 
L 628.341158 116.154673 
L 628.366853 116.065959 
L 628.392527 116.228587 
L 628.443814 116.184238 
L 628.699002 116.095525 
L 628.851131 116.361649 
L 629.00253 116.125107 
L 629.052836 116.494696 
L 629.103061 116.24337 
L 629.203273 116.006827 
L 629.352997 116.287719 
L 629.402747 116.154673 
L 629.427593 116.346866 
L 629.502014 116.184238 
L 629.526782 116.272936 
L 629.576259 116.332084 
L 629.600969 116.184238 
L 629.699615 116.258153 
L 629.748823 116.169455 
L 629.797954 116.228587 
L 629.895988 116.405998 
L 629.920449 116.361649 
L 629.993718 116.199021 
L 630.018103 116.405998 
L 630.04247 116.332084 
L 630.139748 116.346866 
L 630.164021 116.479913 
L 630.236727 116.272936 
L 630.357534 116.405998 
L 630.38164 116.272936 
L 630.429797 116.539045 
L 630.453848 116.317285 
L 630.47788 116.805169 
L 630.549869 116.391215 
L 630.573828 116.272936 
L 630.621693 116.287719 
L 630.645598 116.539045 
L 630.693354 116.213804 
L 630.741038 116.405998 
L 630.836191 116.302502 
L 630.859934 116.405998 
L 630.88366 116.405998 
L 630.95473 116.169455 
L 631.002021 116.199021 
L 631.02564 116.228587 
L 631.049241 116.494696 
L 631.11994 116.317285 
L 631.143471 116.199021 
L 631.166984 116.346866 
L 631.23742 116.272936 
L 631.260863 116.199021 
L 631.307699 116.332084 
L 631.33109 116.287719 
L 631.401161 116.228587 
L 631.424483 116.376432 
L 631.540838 116.125107 
L 631.656765 116.391215 
L 631.679899 116.376432 
L 631.703016 116.169455 
L 631.795317 116.287719 
L 631.910315 116.376432 
L 631.841367 116.258153 
L 631.933265 116.317285 
L 632.024896 116.435564 
L 632.047762 116.169455 
L 632.093445 116.479913 
L 632.139062 116.302502 
L 632.161846 116.24337 
L 632.207364 116.405998 
L 632.275519 116.46513 
L 632.298204 116.213804 
L 632.388784 116.405998 
L 632.433976 116.287719 
L 632.479104 116.332084 
L 632.501644 116.435564 
L 632.546675 116.258153 
L 632.591643 116.376432 
L 632.636546 116.509479 
L 632.703781 116.272936 
L 632.860109 116.435564 
L 632.882378 116.391215 
L 632.904632 116.405998 
L 632.949093 116.435564 
L 633.015666 116.169455 
L 633.148394 116.420781 
L 633.214549 116.24337 
L 633.258575 116.258153 
L 633.280566 116.450347 
L 633.3245 116.228587 
L 633.368374 116.361649 
L 633.412187 116.302502 
L 633.43407 116.598192 
L 633.477792 116.199021 
L 633.49963 116.287719 
L 633.565054 116.169455 
L 633.586832 116.184238 
L 633.673793 116.420781 
L 633.695496 116.228587 
L 633.717184 116.095525 
L 633.760516 116.346866 
L 633.782159 116.302502 
L 633.825402 116.405998 
L 633.847001 116.287719 
L 633.868585 116.213804 
L 633.91171 116.435564 
L 633.93325 116.332084 
L 633.954775 116.450347 
L 633.997782 116.272936 
L 634.019264 116.302502 
L 634.105044 116.346866 
L 634.147847 116.184238 
L 634.2546 116.391215 
L 634.275908 116.184238 
L 634.360994 116.391215 
L 634.467031 116.391215 
L 634.551605 116.24337 
L 634.509346 116.46513 
L 634.593807 116.317285 
L 634.657004 116.391215 
L 634.678042 116.317285 
L 634.699066 116.199021 
L 634.762053 116.435564 
L 634.950264 116.169455 
L 634.991937 116.420781 
L 635.075118 116.361649 
L 635.178787 116.46513 
L 635.19948 116.657324 
L 635.240825 116.346866 
L 635.261477 116.539045 
L 635.282116 116.361649 
L 635.323353 116.568626 
L 635.385109 116.435564 
L 635.446743 116.213804 
L 635.467261 116.450347 
L 635.487766 116.361649 
L 635.569652 116.642541 
L 635.528736 116.332084 
L 635.590091 116.332084 
L 635.610516 116.24337 
L 635.671713 116.420781 
L 635.814045 116.568626 
L 635.834326 116.494696 
L 635.874848 116.612975 
L 635.935535 116.346866 
L 635.955738 116.612975 
L 635.975928 116.332084 
L 636.036421 116.494696 
L 636.116898 116.302502 
L 636.136985 116.346866 
L 636.15706 116.494696 
L 636.237231 116.435564 
L 636.257242 116.24337 
L 636.27724 116.479913 
L 636.337159 116.450347 
L 636.377041 116.332084 
L 636.396964 116.583409 
L 636.456656 116.287719 
L 636.476528 116.479913 
L 636.516236 116.317285 
L 636.536071 116.494696 
L 636.595501 116.361649 
L 636.615286 116.287719 
L 636.674567 116.46513 
L 636.714026 116.332084 
L 636.753436 116.612975 
L 636.773122 116.332084 
L 636.871371 116.361649 
L 636.930174 116.346866 
L 636.969315 116.642541 
L 636.988867 116.376432 
L 637.086447 116.405998 
L 637.125395 116.583409 
L 637.183727 116.346866 
L 637.280708 116.657324 
L 637.319417 116.46513 
L 637.415983 116.213804 
L 637.396693 116.524262 
L 637.435261 116.361649 
L 637.493023 116.539045 
L 637.569876 116.479913 
L 637.70392 116.184238 
L 637.627393 116.524262 
L 637.723023 116.287719 
L 637.818363 116.494696 
L 637.780262 116.184238 
L 637.837397 116.346866 
L 637.856419 116.154673 
L 637.894429 116.627758 
L 637.913417 116.494696 
L 637.932394 116.553843 
L 637.989255 116.420781 
L 638.008185 116.228587 
L 638.083796 116.479913 
L 638.159226 116.391215 
L 638.178055 116.583409 
L 638.25326 116.346866 
L 638.290795 116.376432 
L 638.347015 116.760804 
L 638.384439 116.361649 
L 638.403135 116.524262 
L 638.421819 116.110324 
L 638.477806 116.849518 
L 638.515076 116.450347 
L 638.533694 116.228587 
L 638.570898 116.509479 
L 638.626621 116.332084 
L 638.682247 116.568626 
L 638.719276 116.361649 
L 638.737774 116.302502 
L 638.756262 116.420781 
L 638.811659 116.361649 
L 638.86696 116.524262 
L 638.940543 116.46513 
L 638.958912 116.420781 
L 638.977271 116.065959 
L 639.013956 116.553843 
L 639.050598 116.332084 
L 639.087198 116.612975 
L 639.178513 116.553843 
L 639.342216 116.376432 
L 639.396596 116.213804 
L 639.468956 116.553843 
L 639.541152 116.228587 
L 639.59519 116.450347 
L 639.613182 116.361649 
L 639.649136 116.553843 
L 639.70299 116.391215 
L 639.720921 116.509479 
L 639.792543 116.391215 
L 639.810423 116.272936 
L 639.828293 116.509479 
L 639.899672 116.391215 
L 639.935302 116.287719 
L 640.112847 116.612975 
L 640.130546 116.110324 
L 640.218896 116.391215 
L 640.307 116.657324 
L 640.342173 116.479913 
L 640.359744 116.494696 
L 640.4124 116.213804 
L 640.464969 116.524262 
L 640.482473 116.376432 
L 640.51745 116.612975 
L 640.58729 116.376432 
L 640.622152 116.598192 
L 640.726507 116.46513 
L 640.795886 116.376432 
L 640.813207 116.46513 
L 640.847821 116.731238 
L 640.89967 116.332084 
L 640.934189 116.539045 
L 640.985896 116.258153 
L 641.071888 116.302502 
L 641.089058 116.553843 
L 641.191884 116.494696 
L 641.226085 116.302502 
L 641.260249 116.553843 
L 641.277317 116.46513 
L 641.362519 116.332084 
L 641.396536 116.627758 
L 641.498367 116.332084 
L 641.532238 116.509479 
L 641.566072 116.598192 
L 641.59987 116.494696 
L 641.633632 116.287719 
L 641.701048 116.405998 
L 641.71788 116.672107 
L 641.818681 116.612975 
L 641.83545 116.627758 
L 641.85221 116.583409 
L 641.919161 116.361649 
L 641.969282 116.479913 
L 642.035986 116.524262 
L 642.002651 116.346866 
L 642.052639 116.46513 
L 642.135778 116.346866 
L 642.102549 116.627758 
L 642.152379 116.435564 
L 642.251804 116.539045 
L 642.235255 116.361649 
L 642.268345 116.450347 
L 642.317915 116.509479 
L 642.400358 116.361649 
L 642.466158 116.627758 
L 642.499007 116.435564 
L 642.548216 116.420781 
L 642.564602 116.46513 
L 642.646404 116.701673 
L 642.613709 116.361649 
L 642.679066 116.598192 
L 642.776849 116.317285 
L 642.727995 116.819952 
L 642.793117 116.46513 
L 642.809376 116.598192 
L 642.84187 116.302502 
L 642.87433 116.524262 
L 642.890547 116.287719 
L 642.922958 116.627758 
L 642.987679 116.420781 
L 643.003838 116.287719 
L 643.036132 116.46513 
L 643.084512 116.332084 
L 643.132817 116.539045 
L 643.213162 116.450347 
L 643.229207 116.435564 
L 643.245243 116.731238 
L 643.293304 116.332084 
L 643.325303 116.405998 
L 643.35727 116.450347 
L 643.373242 116.24337 
L 643.437047 116.612975 
L 643.468901 116.361649 
L 643.500724 116.405998 
L 643.516623 116.568626 
L 643.564272 116.332084 
L 643.595998 116.376432 
L 643.675175 116.169455 
L 643.627693 116.391215 
L 643.70679 116.24337 
L 643.785689 116.494696 
L 643.832934 116.405998 
L 643.848667 116.24337 
L 643.895818 116.598192 
L 643.927213 116.450347 
L 644.021211 116.598192 
L 643.989909 116.13989 
L 644.03685 116.583409 
L 644.052481 116.184238 
L 644.146108 116.361649 
L 644.192817 116.272936 
L 644.317038 116.568626 
L 644.363495 116.272936 
L 644.425332 116.598192 
L 644.440772 116.405998 
L 644.456205 116.627758 
L 644.548643 116.539045 
L 644.671475 116.302502 
L 644.748003 116.746021 
L 644.793831 116.583409 
L 644.839592 116.524262 
L 644.854831 116.553843 
L 644.870063 116.405998 
L 644.885287 116.642541 
L 644.900504 116.494696 
L 644.915714 149.788262 
L 644.976479 116.46513 
L 645.006818 116.701673 
L 645.021977 116.790386 
L 645.067409 116.509479 
L 645.082538 116.598192 
L 645.188242 116.361649 
L 645.203314 116.391215 
L 645.233436 116.46513 
L 645.293593 116.332084 
L 645.413566 116.24337 
L 645.547992 116.420781 
L 645.443488 116.228587 
L 645.562893 116.376432 
L 645.681848 116.199021 
L 645.711517 116.346866 
L 645.770772 116.110324 
L 645.785568 116.095525 
L 645.800357 116.169455 
L 645.815139 116.169455 
L 645.888948 116.110324 
L 645.93315 116.213804 
L 646.021369 116.435564 
L 646.036048 116.494696 
L 646.050721 116.184238 
L 646.065386 116.213804 
L 646.080045 116.13989 
L 646.138612 116.302502 
L 646.167855 116.228587 
L 646.255422 116.420781 
L 646.269993 116.154673 
L 646.357277 116.642541 
L 646.42983 116.539045 
L 646.44432 116.539045 
L 646.458804 116.657324 
L 646.502216 116.376432 
L 646.531125 116.479913 
L 646.588862 116.332084 
L 646.660885 116.435564 
L 646.689648 116.479913 
L 646.775781 116.24337 
L 646.81876 116.524262 
L 646.890261 116.420781 
L 647.004327 116.524262 
L 647.046996 116.46513 
L 647.061206 116.332084 
L 647.089607 116.568626 
L 647.146333 116.450347 
L 647.259479 116.568626 
L 647.344074 116.391215 
L 647.315901 116.612975 
L 647.358151 116.524262 
L 647.372221 116.672107 
L 647.386286 116.479913 
L 647.470542 116.583409 
L 647.540584 116.494696 
L 647.568557 116.672107 
L 647.680203 116.450347 
L 647.694131 116.524262 
L 647.763679 116.672107 
L 647.735878 116.494696 
L 647.805334 116.583409 
L 647.874638 116.68689 
L 647.860789 116.524262 
L 647.88848 116.568626 
L 647.902317 116.450347 
L 647.916147 116.627758 
L 647.999002 116.494696 
L 648.109139 116.672107 
L 648.136613 116.598192 
L 648.232585 116.524262 
L 648.246271 116.627758 
L 648.259952 116.716456 
L 648.328265 116.479913 
L 648.518762 116.612975 
L 648.532325 116.553843 
L 648.586518 116.450347 
L 648.572979 116.583409 
L 648.667635 116.524262 
L 648.775467 116.627758 
L 648.708115 116.450347 
L 648.78892 116.583409 
L 648.909742 116.450347 
L 649.043447 116.627758 
L 649.083449 116.539045 
L 649.136706 116.657324 
L 649.150006 116.583409 
L 649.189872 116.598192 
L 649.176589 116.539045 
L 649.20315 116.568626 
L 649.295939 116.46513 
L 649.309172 116.479913 
L 649.401649 116.627758 
L 649.414838 116.583409 
L 649.428022 116.46513 
L 649.533292 116.479913 
L 649.585796 116.46513 
L 649.598908 116.568626 
L 649.625117 116.509479 
L 649.729733 116.598192 
L 649.677468 116.46513 
L 649.742785 116.583409 
L 649.794942 116.494696 
L 649.860017 116.509479 
L 649.963859 116.553843 
L 649.937931 116.420781 
L 649.976816 116.524262 
L 650.067361 116.553843 
L 650.002712 116.435564 
L 650.080275 116.539045 
L 650.157647 116.494696 
L 650.183396 116.553843 
L 650.209123 116.479913 
L 650.311825 116.642541 
L 650.363051 116.509479 
L 650.388633 116.68689 
L 650.426967 116.598192 
L 650.478006 116.553843 
L 650.452497 116.672107 
L 650.503495 116.642541 
L 650.592544 116.760804 
L 650.54169 116.539045 
L 650.605245 116.627758 
L 650.706668 116.731238 
L 650.719323 116.790386 
L 650.744618 116.568626 
L 650.782522 116.731238 
L 650.795147 116.553843 
L 650.895963 116.672107 
L 650.908542 116.553843 
L 650.933686 116.760804 
L 650.996458 116.598192 
L 651.121628 116.775603 
L 651.159083 116.805169 
L 651.246305 116.539045 
L 651.358094 116.746021 
L 651.420028 116.583409 
L 651.494189 116.701673 
L 651.543534 116.642541 
L 651.605106 116.805169 
L 651.703372 116.672107 
L 651.75239 116.893867 
L 651.813557 116.716456 
L 651.898991 116.627758 
L 651.862405 116.834735 
L 651.923359 116.68689 
L 652.03278 116.805169 
L 651.996348 116.598192 
L 652.044914 116.790386 
L 652.093406 116.642541 
L 652.069169 116.819952 
L 652.129726 116.775603 
L 652.141823 116.864301 
L 652.178087 116.657324 
L 652.21431 116.716456 
L 652.286631 116.612975 
L 652.274589 116.805169 
L 652.310701 116.701673 
L 652.322729 116.908649 
L 652.370796 116.642541 
L 652.41879 116.790386 
L 652.502604 116.627758 
L 652.52651 116.657324 
L 652.538457 116.908649 
L 652.621954 116.539045 
L 652.633864 116.790386 
L 652.740855 116.657324 
L 652.705231 116.834735 
L 652.75272 116.746021 
L 652.835653 116.598192 
L 652.823819 116.760804 
L 652.87113 116.672107 
L 653.00087 116.819952 
L 653.012638 116.598192 
L 653.106625 116.760804 
L 653.118354 116.760804 
L 653.130079 116.583409 
L 653.188636 116.864301 
L 653.235403 116.672107 
L 653.31708 116.775603 
L 653.270433 116.598192 
L 653.328731 116.701673 
L 653.398546 116.598192 
L 653.386921 116.716456 
L 653.445003 116.612975 
L 653.468207 116.790386 
L 653.52614 116.539045 
L 653.537714 116.68689 
L 653.630154 116.46513 
L 653.607069 116.775603 
L 653.64169 116.642541 
L 653.722323 116.849518 
L 653.687791 116.568626 
L 653.745324 116.731238 
L 653.837158 116.539045 
L 653.860075 116.612975 
L 653.871527 116.642541 
L 653.882975 116.509479 
L 653.894419 117.455665 
L 653.905859 132.25444 
L 653.962996 116.524262 
L 653.997228 116.627758 
L 654.099704 116.24337 
L 654.133788 116.287719 
L 654.190515 116.346866 
L 654.247139 116.317285 
L 654.292365 116.080742 
L 654.360084 116.228587 
L 654.405149 116.184238 
L 654.416405 116.110324 
L 654.45015 116.228587 
L 654.506311 116.228587 
L 654.584769 116.24337 
L 654.551168 116.184238 
L 654.618334 116.199021 
L 654.718816 116.110324 
L 654.741102 116.13989 
L 655.630713 116.213804 
L 655.749613 116.272936 
L 655.878815 116.361649 
L 655.943218 116.332084 
L 655.996786 116.435564 
L 656.114319 116.317285 
L 656.124982 116.420781 
L 656.199523 116.420781 
L 656.167599 116.317285 
L 656.220788 116.391215 
L 656.305706 116.361649 
L 656.252659 116.420781 
L 656.3269 116.391215 
L 656.390396 116.450347 
L 656.432656 116.420781 
L 656.517006 116.346866 
L 656.527534 116.450347 
L 656.538059 116.450347 
L 656.580122 116.494696 
L 656.590629 116.346866 
L 656.622129 116.405998 
L 656.705975 116.346866 
L 656.71644 116.420781 
L 656.779158 116.494696 
L 656.73736 116.317285 
L 656.831329 116.435564 
L 657.008065 116.46513 
L 657.090894 116.317285 
L 657.039151 116.479913 
L 657.121899 116.405998 
L 657.430285 116.302502 
L 657.440513 116.287719 
L 657.450737 116.332084 
L 657.481391 116.494696 
L 657.562989 116.420781 
L 657.634214 116.361649 
L 657.684992 116.435564 
L 657.776185 116.287719 
L 657.806525 116.346866 
L 658.118337 116.361649 
L 658.148349 116.494696 
L 658.228244 116.420781 
L 658.307936 116.553843 
L 658.248186 116.391215 
L 658.347707 116.479913 
L 658.357642 116.420781 
L 658.437009 116.568626 
L 658.446916 116.524262 
L 658.45682 116.524262 
L 658.46672 116.405998 
L 658.506292 116.583409 
L 658.575423 116.420781 
L 658.605004 116.46513 
L 658.634558 116.553843 
L 658.703409 116.405998 
L 658.723053 116.524262 
L 658.811301 116.450347 
L 658.791712 116.598192 
L 658.821091 116.539045 
L 658.909066 116.583409 
L 658.860222 116.435564 
L 658.918826 116.524262 
L 658.938337 116.568626 
L 659.016259 116.450347 
L 659.055148 116.612975 
L 659.123089 116.524262 
L 659.181208 116.612975 
L 659.229559 116.524262 
L 659.354925 116.642541 
L 659.431827 116.494696 
L 659.470208 116.568626 
L 659.54683 116.612975 
L 659.518119 116.376432 
L 659.565957 116.509479 
L 659.699518 116.612975 
L 659.709037 116.450347 
L 659.785082 116.68689 
L 659.804065 116.68689 
L 659.879882 116.553843 
L 659.927175 116.568626 
L 660.012125 116.509479 
L 660.030972 116.642541 
L 660.096847 116.46513 
L 660.143816 116.627758 
L 660.228186 116.657324 
L 660.181342 116.524262 
L 660.246904 116.583409 
L 660.377622 116.657324 
L 660.452075 116.805169 
L 660.405562 116.568626 
L 660.49852 116.760804 
L 660.572689 116.583409 
L 660.618956 116.612975 
L 660.665156 116.775603 
L 660.674388 116.583409 
L 660.738935 116.68689 
L 660.803351 116.568626 
L 660.78496 116.716456 
L 660.849282 116.627758 
L 660.93179 116.701673 
L 660.867636 116.539045 
L 660.959244 116.642541 
L 661.004949 116.509479 
L 660.995813 116.731238 
L 661.077939 116.524262 
L 661.178026 116.775603 
L 661.096161 116.509479 
L 661.223416 116.716456 
L 661.341124 116.553843 
L 661.440381 116.479913 
L 661.467397 116.68689 
L 661.52136 116.524262 
L 661.593167 116.568626 
L 661.637964 116.790386 
L 661.620053 116.539045 
L 661.718438 116.701673 
L 661.807615 116.509479 
L 661.834318 116.539045 
L 661.843215 116.701673 
L 661.887658 116.46513 
L 661.940908 116.568626 
L 661.976358 116.509479 
L 662.06481 116.775603 
L 662.091297 116.672107 
L 662.232188 116.479913 
L 662.372453 116.642541 
L 662.398683 116.583409 
L 662.407422 116.524262 
L 662.468525 116.672107 
L 662.503388 116.539045 
L 662.546912 116.672107 
L 662.572998 116.450347 
L 662.607746 116.509479 
L 662.616427 116.509479 
L 662.720413 116.672107 
L 662.685789 116.420781 
L 662.729063 116.612975 
L 662.789547 116.760804 
L 662.746356 116.494696 
L 662.815433 116.627758 
L 662.901568 116.46513 
L 662.85853 116.642541 
L 662.918767 116.568626 
L 662.927362 116.775603 
L 663.013193 116.539045 
L 663.030331 116.583409 
L 663.081689 116.819952 
L 663.141502 116.420781 
L 663.167102 116.746021 
L 663.252283 116.657324 
L 663.277793 116.68689 
L 663.303282 116.509479 
L 663.328751 116.524262 
L 663.523331 116.775603 
L 663.413498 116.450347 
L 663.531764 116.746021 
L 663.565473 116.539045 
L 663.582313 116.760804 
L 663.649588 116.627758 
L 663.775341 116.864301 
L 663.691561 116.583409 
L 663.783707 116.760804 
L 663.808791 116.524262 
L 663.892261 116.627758 
L 663.942238 116.760804 
L 663.983824 116.509479 
L 663.992135 116.598192 
L 664.00875 116.450347 
L 664.058542 116.731238 
L 664.099976 116.598192 
L 664.108256 116.834735 
L 664.141356 116.553843 
L 664.215702 116.746021 
L 664.248689 116.553843 
L 664.281642 116.834735 
L 664.322784 116.583409 
L 664.380293 116.760804 
L 664.347443 116.539045 
L 664.437697 116.657324 
L 664.470453 116.805169 
L 664.51135 116.568626 
L 664.519523 116.553843 
L 664.535863 116.68689 
L 664.552194 116.627758 
L 664.601137 116.46513 
L 664.67441 116.879084 
L 664.77995 116.509479 
L 664.812352 116.583409 
L 664.820448 116.790386 
L 664.877058 116.539045 
L 664.917432 116.642541 
L 664.925501 116.553843 
L 664.981923 116.834735 
L 665.01412 116.672107 
L 665.030205 116.834735 
L 665.094467 116.568626 
L 665.118531 116.746021 
L 665.190614 116.539045 
L 665.214606 116.775603 
L 665.222599 116.746021 
L 665.23059 116.819952 
L 665.302418 116.612975 
L 665.326324 116.746021 
L 665.342252 116.509479 
L 665.350212 116.805169 
L 665.445585 116.627758 
L 665.532758 116.509479 
L 665.556491 116.938215 
L 665.651243 116.568626 
L 665.667008 116.760804 
L 665.698513 116.553843 
L 665.76143 116.834735 
L 665.784991 116.68689 
L 665.871233 116.775603 
L 665.808535 116.553843 
L 665.894713 116.746021 
L 665.902536 116.568626 
L 665.980656 116.760804 
L 666.004055 116.672107 
L 666.050799 116.583409 
L 666.066366 116.775603 
L 666.105248 116.716456 
L 666.128554 116.716456 
L 666.136319 116.553843 
L 666.151843 116.805169 
L 666.23709 116.760804 
L 666.298944 116.568626 
L 666.314388 116.790386 
L 666.352966 116.68689 
L 666.391497 116.568626 
L 666.453049 116.746021 
L 666.460735 116.627758 
L 666.491458 116.746021 
L 666.560477 116.598192 
L 666.58345 116.701673 
L 666.675174 116.583409 
L 666.606406 116.746021 
L 666.690436 116.657324 
L 666.698064 116.790386 
L 666.713314 116.583409 
L 666.79706 116.701673 
L 666.888167 116.775603 
L 666.918478 116.553843 
L 666.933622 116.849518 
L 667.031884 116.716456 
L 667.062057 116.524262 
L 667.12984 116.760804 
L 667.137363 116.68689 
L 667.227494 116.834735 
L 667.204986 116.568626 
L 667.242491 116.627758 
L 667.294924 116.539045 
L 667.287439 116.716456 
L 667.309889 116.716456 
L 667.317369 116.805169 
L 667.339798 116.568626 
L 667.414445 116.642541 
L 667.444255 116.583409 
L 667.436805 116.790386 
L 667.481478 116.627758 
L 667.533516 116.760804 
L 667.585468 116.657324 
L 667.652138 116.746021 
L 667.659538 116.583409 
L 667.748192 116.819952 
L 667.674331 116.553843 
L 667.770317 116.760804 
L 667.792427 116.583409 
L 667.799793 116.819952 
L 667.888055 116.657324 
L 667.895399 116.642541 
L 667.910082 116.775603 
L 667.917421 116.672107 
L 667.983395 116.938215 
L 667.976071 116.598192 
L 668.027301 116.819952 
L 668.034613 116.568626 
L 668.1368 116.701673 
L 668.216858 116.805169 
L 668.151371 116.612975 
L 668.24592 116.746021 
L 668.253182 116.627758 
L 668.260441 116.834735 
L 668.347427 116.790386 
L 668.361901 116.879084 
L 668.398058 116.672107 
L 668.448608 116.805169 
L 668.535077 116.834735 
L 668.563848 116.598192 
L 668.599774 116.908649 
L 668.678669 116.731238 
L 668.743072 116.805169 
L 668.714465 116.642541 
L 668.778795 116.657324 
L 668.785935 116.627758 
L 668.80021 116.834735 
L 668.864366 116.672107 
L 668.899952 116.819952 
L 668.892838 116.627758 
L 668.978101 116.731238 
L 669.027731 116.68689 
L 669.013559 116.893867 
L 669.07021 116.805169 
L 669.098497 116.775603 
L 669.190256 116.790386 
L 669.211393 116.642541 
L 669.295801 116.834735 
L 669.323887 116.701673 
L 669.379983 116.627758 
L 669.372977 116.879084 
L 669.421991 116.672107 
L 669.526765 116.834735 
L 669.498859 116.568626 
L 669.533738 116.790386 
L 669.568578 116.612975 
L 669.617289 116.819952 
L 669.638143 116.672107 
L 669.742203 116.849518 
L 669.721419 116.657324 
L 669.756052 116.834735 
L 669.866625 116.672107 
L 669.873523 116.701673 
L 669.880419 116.864301 
L 669.914879 116.627758 
L 669.983686 116.760804 
L 670.052343 116.68689 
L 669.997429 116.834735 
L 670.086616 116.701673 
L 670.120851 116.879084 
L 670.127694 116.657324 
L 670.196039 116.760804 
L 670.20969 116.642541 
L 670.223335 116.879084 
L 670.311887 116.701673 
L 670.373046 116.672107 
L 670.379834 116.879084 
L 670.481483 116.790386 
L 670.555817 116.68689 
L 670.569314 116.864301 
L 670.582805 116.775603 
L 670.589548 116.834735 
L 670.616507 116.68689 
L 670.690524 116.775603 
L 670.757663 116.746021 
L 670.764369 116.657324 
L 670.811271 116.805169 
L 670.864788 116.731238 
L 670.878154 116.893867 
L 670.958226 116.672107 
L 670.971552 116.790386 
L 670.978212 116.68689 
L 671.058032 116.849518 
L 671.077955 116.775603 
L 671.097866 116.864301 
L 671.117764 116.68689 
L 671.184001 116.819952 
L 671.203845 116.672107 
L 671.236891 116.849518 
L 671.296286 116.746021 
L 671.408173 116.864301 
L 671.31606 116.657324 
L 671.414742 116.834735 
L 671.532756 116.68689 
L 671.62424 116.893867 
L 671.643809 116.731238 
L 671.65033 116.657324 
L 671.676398 116.805169 
L 671.754473 116.68689 
L 671.799928 116.834735 
L 671.832356 116.657324 
L 671.864751 116.760804 
L 671.8777 116.657324 
L 671.910048 116.864301 
L 671.968191 116.760804 
L 672.051987 116.701673 
L 672.084157 116.834735 
L 672.141981 116.849518 
L 672.206106 116.68689 
L 672.333966 116.849518 
L 672.404068 116.731238 
L 672.384965 116.893867 
L 672.448598 116.746021 
L 672.512104 116.701673 
L 672.467664 116.805169 
L 672.53747 116.760804 
L 672.543809 116.864301 
L 672.594471 116.68689 
L 672.645051 116.731238 
L 672.852843 116.805169 
L 672.921805 116.701673 
L 672.971864 116.879084 
L 673.021844 116.879084 
L 673.040566 116.760804 
L 673.071745 116.68689 
L 673.109119 116.819952 
L 673.14023 116.819952 
L 673.455826 116.731238 
L 673.461983 116.68689 
L 673.511193 116.849518 
L 673.560327 116.775603 
L 673.658366 116.746021 
L 673.682829 116.849518 
L 673.780489 116.760804 
L 673.695053 116.879084 
L 673.804857 116.805169 
L 673.90214 116.908649 
L 673.877848 116.775603 
L 673.91428 116.849518 
L 673.962791 116.716456 
L 673.956731 116.879084 
L 674.023325 116.819952 
L 674.029372 116.967781 
L 674.101847 116.746021 
L 674.131995 116.805169 
L 674.222269 116.760804 
L 674.144047 116.908649 
L 674.246298 116.790386 
L 674.288306 116.893867 
L 674.336246 116.746021 
L 674.354205 116.849518 
L 674.372153 116.731238 
L 674.443846 116.879084 
L 674.461743 116.805169 
L 674.47367 116.879084 
L 674.574861 116.864301 
L 674.634234 116.790386 
L 674.652024 116.923432 
L 674.687574 116.834735 
L 674.764463 116.879084 
L 674.711252 116.805169 
L 674.799887 116.819952 
L 674.858838 116.746021 
L 674.888273 116.879084 
L 674.90592 116.775603 
L 674.94706 116.893867 
L 675.011599 116.731238 
L 675.040892 116.760804 
L 675.046747 116.893867 
L 675.064306 116.746021 
L 675.151957 116.864301 
L 675.256816 116.760804 
L 675.175289 116.879084 
L 675.262632 116.805169 
L 675.349734 116.746021 
L 675.378714 116.879084 
L 675.459719 116.716456 
L 675.494372 116.760804 
L 675.57508 116.879084 
L 675.528986 116.746021 
L 675.598102 116.775603 
L 675.615358 116.701673 
L 675.672807 116.893867 
L 675.701493 116.834735 
L 675.787394 116.864301 
L 675.735882 116.716456 
L 675.804546 116.805169 
L 675.833113 116.760804 
L 675.878765 116.923432 
L 675.895868 116.834735 
L 675.95281 116.731238 
L 676.009649 116.908649 
L 676.094717 116.746021 
L 676.049376 116.923432 
L 676.117363 116.834735 
L 676.123022 116.923432 
L 676.196497 116.760804 
L 676.224711 116.805169 
L 676.32045 116.760804 
L 676.264168 116.864301 
L 676.326073 116.819952 
L 676.399077 116.864301 
L 676.421506 116.746021 
L 676.432714 116.819952 
L 676.511062 116.746021 
L 676.49429 116.879084 
L 676.550164 116.775603 
L 676.555745 116.938215 
L 676.561326 116.760804 
L 676.661615 116.849518 
L 676.678299 116.775603 
L 676.728298 116.864301 
L 676.778218 116.790386 
L 676.800379 116.923432 
L 676.805917 116.731238 
L 676.894391 116.819952 
L 676.977111 116.775603 
L 676.938535 116.893867 
L 676.988124 116.819952 
L 677.048626 116.893867 
L 677.026639 116.746021 
L 677.092556 116.834735 
L 677.098042 116.760804 
L 677.130944 116.893867 
L 677.202112 116.834735 
L 677.474351 116.879084 
L 677.479772 116.952998 
L 677.56638 116.805169 
L 677.57719 116.864301 
L 677.663531 116.790386 
L 677.62039 116.938215 
L 677.690465 116.805169 
L 677.749638 116.790386 
L 677.722755 116.893867 
L 677.776498 116.819952 
L 677.819426 116.893867 
L 677.814063 116.760804 
L 677.889061 116.879084 
L 677.931837 116.790386 
L 677.969219 116.923432 
L 678.001225 116.805169 
L 678.054496 116.760804 
L 678.123615 116.982564 
L 678.240242 116.819952 
L 678.319514 116.938215 
L 678.330068 116.805169 
L 678.356439 116.893867 
L 678.445936 116.819952 
L 678.393321 116.908649 
L 678.466957 116.864301 
L 678.550903 116.908649 
L 678.508958 116.819952 
L 678.587559 116.879084 
L 685.535474 116.908649 
L 685.539674 116.997363 
L 685.577443 116.864301 
L 685.644477 116.923432 
L 685.748933 116.967781 
L 685.715545 116.879084 
L 685.757275 116.938215 
L 685.823929 116.879084 
L 685.819767 116.997363 
L 685.869671 116.908649 
L 685.931941 116.879084 
L 685.981669 116.938215 
L 686.08089 116.893867 
L 686.006504 116.967781 
L 686.097397 116.908649 
L 688.126549 116.879084 
L 688.130417 116.790386 
L 688.188388 116.938215 
L 688.207688 116.923432 
" clip-path="url(#p60af0e5fb7)" style="fill: none; stroke: #1f77b4; stroke-width: 1.5; stroke-linecap: square"/>
   </g>
   <g id="patch_3">
    <path d="M 331.087688 311.6435 
L 331.087688 45.5315 
" style="fill: none; stroke: #000000; stroke-width: 0.8; stroke-linejoin: miter; stroke-linecap: square"/>
   </g>
   <g id="patch_4">
    <path d="M 688.207688 311.6435 
L 688.207688 45.5315 
" style="fill: none; stroke: #000000; stroke-width: 0.8; stroke-linejoin: miter; stroke-linecap: square"/>
   </g>
   <g id="patch_5">
    <path d="M 331.087688 311.6435 
L 688.207688 311.6435 
" style="fill: none; stroke: #000000; stroke-width: 0.8; stroke-linejoin: miter; stroke-linecap: square"/>
   </g>
   <g id="patch_6">
    <path d="M 331.087688 45.5315 
L 688.207688 45.5315 
" style="fill: none; stroke: #000000; stroke-width: 0.8; stroke-linejoin: miter; stroke-linecap: square"/>
   </g>
   <g id="text_18">
    <!-- Accuracy of the 26_05_25_CINIC10_torch_model_(1024+2048.1+1)_e-h on the validation set -->
    <g transform="translate(7.2 25.5315) scale(0.264 -0.264)">
     <defs>
      <path id="TimesNewRomanPSMT-20" transform="scale(0.015625)"/>
      <path id="TimesNewRomanPSMT-6f" d="M 1600 2947 
Q 2250 2947 2644 2453 
Q 2978 2031 2978 1484 
Q 2978 1100 2793 706 
Q 2609 313 2286 112 
Q 1963 -88 1566 -88 
Q 919 -88 538 428 
Q 216 863 216 1403 
Q 216 1797 411 2186 
Q 606 2575 925 2761 
Q 1244 2947 1600 2947 
z
M 1503 2744 
Q 1338 2744 1170 2645 
Q 1003 2547 900 2300 
Q 797 2053 797 1666 
Q 797 1041 1045 587 
Q 1294 134 1700 134 
Q 2003 134 2200 384 
Q 2397 634 2397 1244 
Q 2397 2006 2069 2444 
Q 1847 2744 1503 2744 
z
" transform="scale(0.015625)"/>
      <path id="TimesNewRomanPSMT-66" d="M 1319 2638 
L 1319 756 
Q 1319 356 1406 250 
Q 1522 113 1716 113 
L 1975 113 
L 1975 0 
L 266 0 
L 266 113 
L 394 113 
Q 519 113 622 175 
Q 725 238 764 344 
Q 803 450 803 756 
L 803 2638 
L 247 2638 
L 247 2863 
L 803 2863 
L 803 3050 
Q 803 3478 940 3775 
Q 1078 4072 1361 4255 
Q 1644 4438 1997 4438 
Q 2325 4438 2600 4225 
Q 2781 4084 2781 3909 
Q 2781 3816 2700 3733 
Q 2619 3650 2525 3650 
Q 2453 3650 2373 3701 
Q 2294 3753 2178 3923 
Q 2063 4094 1966 4153 
Q 1869 4213 1750 4213 
Q 1606 4213 1506 4136 
Q 1406 4059 1362 3898 
Q 1319 3738 1319 3069 
L 1319 2863 
L 2056 2863 
L 2056 2638 
L 1319 2638 
z
" transform="scale(0.015625)"/>
      <path id="TimesNewRomanPSMT-74" d="M 1031 3803 
L 1031 2863 
L 1700 2863 
L 1700 2644 
L 1031 2644 
L 1031 788 
Q 1031 509 1111 412 
Q 1191 316 1316 316 
Q 1419 316 1516 380 
Q 1613 444 1666 569 
L 1788 569 
Q 1678 263 1478 108 
Q 1278 -47 1066 -47 
Q 922 -47 784 33 
Q 647 113 581 261 
Q 516 409 516 719 
L 516 2644 
L 63 2644 
L 63 2747 
Q 234 2816 414 2980 
Q 594 3144 734 3369 
Q 806 3488 934 3803 
L 1031 3803 
z
" transform="scale(0.015625)"/>
      <path id="TimesNewRomanPSMT-68" d="M 1041 4444 
L 1041 2350 
Q 1388 2731 1591 2839 
Q 1794 2947 1997 2947 
Q 2241 2947 2416 2812 
Q 2591 2678 2675 2391 
Q 2734 2191 2734 1659 
L 2734 647 
Q 2734 375 2778 275 
Q 2809 200 2884 156 
Q 2959 113 3159 113 
L 3159 0 
L 1753 0 
L 1753 113 
L 1819 113 
Q 2019 113 2097 173 
Q 2175 234 2206 353 
Q 2216 403 2216 647 
L 2216 1659 
Q 2216 2128 2167 2275 
Q 2119 2422 2012 2495 
Q 1906 2569 1756 2569 
Q 1603 2569 1437 2487 
Q 1272 2406 1041 2159 
L 1041 647 
Q 1041 353 1073 281 
Q 1106 209 1195 161 
Q 1284 113 1503 113 
L 1503 0 
L 84 0 
L 84 113 
Q 275 113 384 172 
Q 447 203 484 290 
Q 522 378 522 647 
L 522 3238 
Q 522 3728 498 3840 
Q 475 3953 426 3993 
Q 378 4034 297 4034 
Q 231 4034 84 3984 
L 41 4094 
L 897 4444 
L 1041 4444 
z
" transform="scale(0.015625)"/>
      <path id="TimesNewRomanPSMT-65" d="M 681 1784 
Q 678 1147 991 784 
Q 1303 422 1725 422 
Q 2006 422 2214 576 
Q 2422 731 2563 1106 
L 2659 1044 
Q 2594 616 2278 264 
Q 1963 -88 1488 -88 
Q 972 -88 605 314 
Q 238 716 238 1394 
Q 238 2128 614 2539 
Q 991 2950 1559 2950 
Q 2041 2950 2350 2633 
Q 2659 2316 2659 1784 
L 681 1784 
z
M 681 1966 
L 2006 1966 
Q 1991 2241 1941 2353 
Q 1863 2528 1708 2628 
Q 1553 2728 1384 2728 
Q 1125 2728 920 2526 
Q 716 2325 681 1966 
z
" transform="scale(0.015625)"/>
      <path id="TimesNewRomanPSMT-5f" d="M 3256 -1381 
L -53 -1381 
L -53 -1119 
L 3256 -1119 
L 3256 -1381 
z
" transform="scale(0.015625)"/>
      <path id="TimesNewRomanPSMT-43" d="M 3853 4334 
L 3950 2894 
L 3853 2894 
Q 3659 3541 3300 3825 
Q 2941 4109 2438 4109 
Q 2016 4109 1675 3895 
Q 1334 3681 1139 3212 
Q 944 2744 944 2047 
Q 944 1472 1128 1050 
Q 1313 628 1683 403 
Q 2053 178 2528 178 
Q 2941 178 3256 354 
Q 3572 531 3950 1056 
L 4047 994 
Q 3728 428 3303 165 
Q 2878 -97 2294 -97 
Q 1241 -97 663 684 
Q 231 1266 231 2053 
Q 231 2688 515 3219 
Q 800 3750 1298 4042 
Q 1797 4334 2388 4334 
Q 2847 4334 3294 4109 
Q 3425 4041 3481 4041 
Q 3566 4041 3628 4100 
Q 3709 4184 3744 4334 
L 3853 4334 
z
" transform="scale(0.015625)"/>
      <path id="TimesNewRomanPSMT-49" d="M 1975 116 
L 1975 0 
L 159 0 
L 159 116 
L 309 116 
Q 572 116 691 269 
Q 766 369 766 750 
L 766 3488 
Q 766 3809 725 3913 
Q 694 3991 597 4047 
Q 459 4122 309 4122 
L 159 4122 
L 159 4238 
L 1975 4238 
L 1975 4122 
L 1822 4122 
Q 1563 4122 1444 3969 
Q 1366 3869 1366 3488 
L 1366 750 
Q 1366 428 1406 325 
Q 1438 247 1538 191 
Q 1672 116 1822 116 
L 1975 116 
z
" transform="scale(0.015625)"/>
      <path id="TimesNewRomanPSMT-4e" d="M -84 4238 
L 1066 4238 
L 3656 1059 
L 3656 3503 
Q 3656 3894 3569 3991 
Q 3453 4122 3203 4122 
L 3056 4122 
L 3056 4238 
L 4531 4238 
L 4531 4122 
L 4381 4122 
Q 4113 4122 4000 3959 
Q 3931 3859 3931 3503 
L 3931 -69 
L 3819 -69 
L 1025 3344 
L 1025 734 
Q 1025 344 1109 247 
Q 1228 116 1475 116 
L 1625 116 
L 1625 0 
L 150 0 
L 150 116 
L 297 116 
Q 569 116 681 278 
Q 750 378 750 734 
L 750 3681 
Q 566 3897 470 3965 
Q 375 4034 191 4094 
Q 100 4122 -84 4122 
L -84 4238 
z
" transform="scale(0.015625)"/>
      <path id="TimesNewRomanPSMT-6d" d="M 1050 2338 
Q 1363 2650 1419 2697 
Q 1559 2816 1721 2881 
Q 1884 2947 2044 2947 
Q 2313 2947 2506 2790 
Q 2700 2634 2766 2338 
Q 3088 2713 3309 2830 
Q 3531 2947 3766 2947 
Q 3994 2947 4170 2830 
Q 4347 2713 4450 2447 
Q 4519 2266 4519 1878 
L 4519 647 
Q 4519 378 4559 278 
Q 4591 209 4675 161 
Q 4759 113 4950 113 
L 4950 0 
L 3538 0 
L 3538 113 
L 3597 113 
Q 3781 113 3884 184 
Q 3956 234 3988 344 
Q 4000 397 4000 647 
L 4000 1878 
Q 4000 2228 3916 2372 
Q 3794 2572 3525 2572 
Q 3359 2572 3192 2489 
Q 3025 2406 2788 2181 
L 2781 2147 
L 2788 2013 
L 2788 647 
Q 2788 353 2820 281 
Q 2853 209 2943 161 
Q 3034 113 3253 113 
L 3253 0 
L 1806 0 
L 1806 113 
Q 2044 113 2133 169 
Q 2222 225 2256 338 
Q 2272 391 2272 647 
L 2272 1878 
Q 2272 2228 2169 2381 
Q 2031 2581 1784 2581 
Q 1616 2581 1450 2491 
Q 1191 2353 1050 2181 
L 1050 647 
Q 1050 366 1089 281 
Q 1128 197 1204 155 
Q 1281 113 1516 113 
L 1516 0 
L 100 0 
L 100 113 
Q 297 113 375 155 
Q 453 197 493 289 
Q 534 381 534 647 
L 534 1741 
Q 534 2213 506 2350 
Q 484 2453 437 2492 
Q 391 2531 309 2531 
Q 222 2531 100 2484 
L 53 2597 
L 916 2947 
L 1050 2947 
L 1050 2338 
z
" transform="scale(0.015625)"/>
      <path id="TimesNewRomanPSMT-64" d="M 2222 322 
Q 2013 103 1813 7 
Q 1613 -88 1381 -88 
Q 913 -88 563 304 
Q 213 697 213 1313 
Q 213 1928 600 2439 
Q 988 2950 1597 2950 
Q 1975 2950 2222 2709 
L 2222 3238 
Q 2222 3728 2198 3840 
Q 2175 3953 2125 3993 
Q 2075 4034 2000 4034 
Q 1919 4034 1784 3984 
L 1744 4094 
L 2597 4444 
L 2738 4444 
L 2738 1134 
Q 2738 631 2761 520 
Q 2784 409 2836 365 
Q 2888 322 2956 322 
Q 3041 322 3181 375 
L 3216 266 
L 2366 -88 
L 2222 -88 
L 2222 322 
z
M 2222 541 
L 2222 2016 
Q 2203 2228 2109 2403 
Q 2016 2578 1861 2667 
Q 1706 2756 1559 2756 
Q 1284 2756 1069 2509 
Q 784 2184 784 1559 
Q 784 928 1059 592 
Q 1334 256 1672 256 
Q 1956 256 2222 541 
z
" transform="scale(0.015625)"/>
      <path id="TimesNewRomanPSMT-6c" d="M 1184 4444 
L 1184 647 
Q 1184 378 1223 290 
Q 1263 203 1344 158 
Q 1425 113 1647 113 
L 1647 0 
L 244 0 
L 244 113 
Q 441 113 512 153 
Q 584 194 625 287 
Q 666 381 666 647 
L 666 3247 
Q 666 3731 644 3842 
Q 622 3953 573 3993 
Q 525 4034 450 4034 
Q 369 4034 244 3984 
L 191 4094 
L 1044 4444 
L 1184 4444 
z
" transform="scale(0.015625)"/>
      <path id="TimesNewRomanPSMT-28" d="M 1988 -1253 
L 1988 -1369 
Q 1516 -1131 1200 -813 
Q 750 -359 506 256 
Q 263 872 263 1534 
Q 263 2503 741 3301 
Q 1219 4100 1988 4444 
L 1988 4313 
Q 1603 4100 1356 3731 
Q 1109 3363 987 2797 
Q 866 2231 866 1616 
Q 866 947 969 400 
Q 1050 -31 1165 -292 
Q 1281 -553 1476 -793 
Q 1672 -1034 1988 -1253 
z
" transform="scale(0.015625)"/>
      <path id="TimesNewRomanPSMT-2b" d="M 1672 441 
L 1672 2000 
L 116 2000 
L 116 2256 
L 1672 2256 
L 1672 3809 
L 1922 3809 
L 1922 2256 
L 3484 2256 
L 3484 2000 
L 1922 2000 
L 1922 441 
L 1672 441 
z
" transform="scale(0.015625)"/>
      <path id="TimesNewRomanPSMT-29" d="M 144 4313 
L 144 4444 
Q 619 4209 934 3891 
Q 1381 3434 1625 2820 
Q 1869 2206 1869 1541 
Q 1869 572 1392 -226 
Q 916 -1025 144 -1369 
L 144 -1253 
Q 528 -1038 776 -670 
Q 1025 -303 1145 264 
Q 1266 831 1266 1447 
Q 1266 2113 1163 2663 
Q 1084 3094 967 3353 
Q 850 3613 656 3853 
Q 463 4094 144 4313 
z
" transform="scale(0.015625)"/>
      <path id="TimesNewRomanPSMT-2d" d="M 259 1672 
L 1875 1672 
L 1875 1200 
L 259 1200 
L 259 1672 
z
" transform="scale(0.015625)"/>
      <path id="TimesNewRomanPSMT-6e" d="M 1034 2341 
Q 1538 2947 1994 2947 
Q 2228 2947 2397 2830 
Q 2566 2713 2666 2444 
Q 2734 2256 2734 1869 
L 2734 647 
Q 2734 375 2778 278 
Q 2813 200 2889 156 
Q 2966 113 3172 113 
L 3172 0 
L 1756 0 
L 1756 113 
L 1816 113 
Q 2016 113 2095 173 
Q 2175 234 2206 353 
Q 2219 400 2219 647 
L 2219 1819 
Q 2219 2209 2117 2386 
Q 2016 2563 1775 2563 
Q 1403 2563 1034 2156 
L 1034 647 
Q 1034 356 1069 288 
Q 1113 197 1189 155 
Q 1266 113 1500 113 
L 1500 0 
L 84 0 
L 84 113 
L 147 113 
Q 366 113 442 223 
Q 519 334 519 647 
L 519 1709 
Q 519 2225 495 2337 
Q 472 2450 423 2490 
Q 375 2531 294 2531 
Q 206 2531 84 2484 
L 38 2597 
L 900 2947 
L 1034 2947 
L 1034 2341 
z
" transform="scale(0.015625)"/>
      <path id="TimesNewRomanPSMT-76" d="M 53 2863 
L 1400 2863 
L 1400 2747 
L 1313 2747 
Q 1191 2747 1127 2687 
Q 1063 2628 1063 2528 
Q 1063 2419 1128 2269 
L 1794 688 
L 2463 2328 
Q 2534 2503 2534 2594 
Q 2534 2638 2509 2666 
Q 2475 2713 2422 2730 
Q 2369 2747 2206 2747 
L 2206 2863 
L 3141 2863 
L 3141 2747 
Q 2978 2734 2916 2681 
Q 2806 2588 2719 2369 
L 1703 -88 
L 1575 -88 
L 553 2328 
Q 484 2497 421 2570 
Q 359 2644 263 2694 
Q 209 2722 53 2747 
L 53 2863 
z
" transform="scale(0.015625)"/>
      <path id="TimesNewRomanPSMT-69" d="M 928 4444 
Q 1059 4444 1151 4351 
Q 1244 4259 1244 4128 
Q 1244 3997 1151 3903 
Q 1059 3809 928 3809 
Q 797 3809 703 3903 
Q 609 3997 609 4128 
Q 609 4259 701 4351 
Q 794 4444 928 4444 
z
M 1188 2947 
L 1188 647 
Q 1188 378 1227 289 
Q 1266 200 1342 156 
Q 1419 113 1622 113 
L 1622 0 
L 231 0 
L 231 113 
Q 441 113 512 153 
Q 584 194 626 287 
Q 669 381 669 647 
L 669 1750 
Q 669 2216 641 2353 
Q 619 2453 572 2492 
Q 525 2531 444 2531 
Q 356 2531 231 2484 
L 188 2597 
L 1050 2947 
L 1188 2947 
z
" transform="scale(0.015625)"/>
      <path id="TimesNewRomanPSMT-73" d="M 2050 2947 
L 2050 1972 
L 1947 1972 
Q 1828 2431 1642 2597 
Q 1456 2763 1169 2763 
Q 950 2763 815 2647 
Q 681 2531 681 2391 
Q 681 2216 781 2091 
Q 878 1963 1175 1819 
L 1631 1597 
Q 2266 1288 2266 781 
Q 2266 391 1970 151 
Q 1675 -88 1309 -88 
Q 1047 -88 709 6 
Q 606 38 541 38 
Q 469 38 428 -44 
L 325 -44 
L 325 978 
L 428 978 
Q 516 541 762 319 
Q 1009 97 1316 97 
Q 1531 97 1667 223 
Q 1803 350 1803 528 
Q 1803 744 1651 891 
Q 1500 1038 1047 1263 
Q 594 1488 453 1669 
Q 313 1847 313 2119 
Q 313 2472 555 2709 
Q 797 2947 1181 2947 
Q 1350 2947 1591 2875 
Q 1750 2828 1803 2828 
Q 1853 2828 1881 2850 
Q 1909 2872 1947 2947 
L 2050 2947 
z
" transform="scale(0.015625)"/>
     </defs>
     <use xlink:href="#TimesNewRomanPSMT-41"/>
     <use xlink:href="#TimesNewRomanPSMT-63" transform="translate(72.216797 0)"/>
     <use xlink:href="#TimesNewRomanPSMT-63" transform="translate(116.601562 0)"/>
     <use xlink:href="#TimesNewRomanPSMT-75" transform="translate(160.986328 0)"/>
     <use xlink:href="#TimesNewRomanPSMT-72" transform="translate(210.986328 0)"/>
     <use xlink:href="#TimesNewRomanPSMT-61" transform="translate(244.287109 0)"/>
     <use xlink:href="#TimesNewRomanPSMT-63" transform="translate(288.671875 0)"/>
     <use xlink:href="#TimesNewRomanPSMT-79" transform="translate(333.056641 0)"/>
     <use xlink:href="#TimesNewRomanPSMT-20" transform="translate(383.056641 0)"/>
     <use xlink:href="#TimesNewRomanPSMT-6f" transform="translate(408.056641 0)"/>
     <use xlink:href="#TimesNewRomanPSMT-66" transform="translate(458.056641 0)"/>
     <use xlink:href="#TimesNewRomanPSMT-20" transform="translate(491.357422 0)"/>
     <use xlink:href="#TimesNewRomanPSMT-74" transform="translate(516.357422 0)"/>
     <use xlink:href="#TimesNewRomanPSMT-68" transform="translate(544.140625 0)"/>
     <use xlink:href="#TimesNewRomanPSMT-65" transform="translate(594.140625 0)"/>
     <use xlink:href="#TimesNewRomanPSMT-20" transform="translate(638.525391 0)"/>
     <use xlink:href="#TimesNewRomanPSMT-32" transform="translate(663.525391 0)"/>
     <use xlink:href="#TimesNewRomanPSMT-36" transform="translate(713.525391 0)"/>
     <use xlink:href="#TimesNewRomanPSMT-5f" transform="translate(763.525391 0)"/>
     <use xlink:href="#TimesNewRomanPSMT-30" transform="translate(813.525391 0)"/>
     <use xlink:href="#TimesNewRomanPSMT-35" transform="translate(863.525391 0)"/>
     <use xlink:href="#TimesNewRomanPSMT-5f" transform="translate(913.525391 0)"/>
     <use xlink:href="#TimesNewRomanPSMT-32" transform="translate(963.525391 0)"/>
     <use xlink:href="#TimesNewRomanPSMT-35" transform="translate(1013.525391 0)"/>
     <use xlink:href="#TimesNewRomanPSMT-5f" transform="translate(1063.525391 0)"/>
     <use xlink:href="#TimesNewRomanPSMT-43" transform="translate(1113.525391 0)"/>
     <use xlink:href="#TimesNewRomanPSMT-49" transform="translate(1180.224609 0)"/>
     <use xlink:href="#TimesNewRomanPSMT-4e" transform="translate(1213.525391 0)"/>
     <use xlink:href="#TimesNewRomanPSMT-49" transform="translate(1285.742188 0)"/>
     <use xlink:href="#TimesNewRomanPSMT-43" transform="translate(1319.042969 0)"/>
     <use xlink:href="#TimesNewRomanPSMT-31" transform="translate(1385.742188 0)"/>
     <use xlink:href="#TimesNewRomanPSMT-30" transform="translate(1435.742188 0)"/>
     <use xlink:href="#TimesNewRomanPSMT-5f" transform="translate(1485.742188 0)"/>
     <use xlink:href="#TimesNewRomanPSMT-74" transform="translate(1535.742188 0)"/>
     <use xlink:href="#TimesNewRomanPSMT-6f" transform="translate(1563.525391 0)"/>
     <use xlink:href="#TimesNewRomanPSMT-72" transform="translate(1613.525391 0)"/>
     <use xlink:href="#TimesNewRomanPSMT-63" transform="translate(1646.826172 0)"/>
     <use xlink:href="#TimesNewRomanPSMT-68" transform="translate(1691.210938 0)"/>
     <use xlink:href="#TimesNewRomanPSMT-5f" transform="translate(1741.210938 0)"/>
     <use xlink:href="#TimesNewRomanPSMT-6d" transform="translate(1791.210938 0)"/>
     <use xlink:href="#TimesNewRomanPSMT-6f" transform="translate(1868.994141 0)"/>
     <use xlink:href="#TimesNewRomanPSMT-64" transform="translate(1918.994141 0)"/>
     <use xlink:href="#TimesNewRomanPSMT-65" transform="translate(1968.994141 0)"/>
     <use xlink:href="#TimesNewRomanPSMT-6c" transform="translate(2013.378906 0)"/>
     <use xlink:href="#TimesNewRomanPSMT-5f" transform="translate(2041.162109 0)"/>
     <use xlink:href="#TimesNewRomanPSMT-28" transform="translate(2091.162109 0)"/>
     <use xlink:href="#TimesNewRomanPSMT-31" transform="translate(2124.462891 0)"/>
     <use xlink:href="#TimesNewRomanPSMT-30" transform="translate(2174.462891 0)"/>
     <use xlink:href="#TimesNewRomanPSMT-32" transform="translate(2224.462891 0)"/>
     <use xlink:href="#TimesNewRomanPSMT-34" transform="translate(2274.462891 0)"/>
     <use xlink:href="#TimesNewRomanPSMT-2b" transform="translate(2324.462891 0)"/>
     <use xlink:href="#TimesNewRomanPSMT-32" transform="translate(2380.859375 0)"/>
     <use xlink:href="#TimesNewRomanPSMT-30" transform="translate(2430.859375 0)"/>
     <use xlink:href="#TimesNewRomanPSMT-34" transform="translate(2480.859375 0)"/>
     <use xlink:href="#TimesNewRomanPSMT-38" transform="translate(2530.859375 0)"/>
     <use xlink:href="#TimesNewRomanPSMT-2e" transform="translate(2580.859375 0)"/>
     <use xlink:href="#TimesNewRomanPSMT-31" transform="translate(2605.859375 0)"/>
     <use xlink:href="#TimesNewRomanPSMT-2b" transform="translate(2655.859375 0)"/>
     <use xlink:href="#TimesNewRomanPSMT-31" transform="translate(2712.255859 0)"/>
     <use xlink:href="#TimesNewRomanPSMT-29" transform="translate(2762.255859 0)"/>
     <use xlink:href="#TimesNewRomanPSMT-5f" transform="translate(2795.556641 0)"/>
     <use xlink:href="#TimesNewRomanPSMT-65" transform="translate(2845.556641 0)"/>
     <use xlink:href="#TimesNewRomanPSMT-2d" transform="translate(2889.941406 0)"/>
     <use xlink:href="#TimesNewRomanPSMT-68" transform="translate(2923.242188 0)"/>
     <use xlink:href="#TimesNewRomanPSMT-20" transform="translate(2973.242188 0)"/>
     <use xlink:href="#TimesNewRomanPSMT-6f" transform="translate(2998.242188 0)"/>
     <use xlink:href="#TimesNewRomanPSMT-6e" transform="translate(3048.242188 0)"/>
     <use xlink:href="#TimesNewRomanPSMT-20" transform="translate(3098.242188 0)"/>
     <use xlink:href="#TimesNewRomanPSMT-74" transform="translate(3123.242188 0)"/>
     <use xlink:href="#TimesNewRomanPSMT-68" transform="translate(3151.025391 0)"/>
     <use xlink:href="#TimesNewRomanPSMT-65" transform="translate(3201.025391 0)"/>
     <use xlink:href="#TimesNewRomanPSMT-20" transform="translate(3245.410156 0)"/>
     <use xlink:href="#TimesNewRomanPSMT-76" transform="translate(3270.410156 0)"/>
     <use xlink:href="#TimesNewRomanPSMT-61" transform="translate(3320.410156 0)"/>
     <use xlink:href="#TimesNewRomanPSMT-6c" transform="translate(3364.794922 0)"/>
     <use xlink:href="#TimesNewRomanPSMT-69" transform="translate(3392.578125 0)"/>
     <use xlink:href="#TimesNewRomanPSMT-64" transform="translate(3420.361328 0)"/>
     <use xlink:href="#TimesNewRomanPSMT-61" transform="translate(3470.361328 0)"/>
     <use xlink:href="#TimesNewRomanPSMT-74" transform="translate(3514.746094 0)"/>
     <use xlink:href="#TimesNewRomanPSMT-69" transform="translate(3542.529297 0)"/>
     <use xlink:href="#TimesNewRomanPSMT-6f" transform="translate(3570.3125 0)"/>
     <use xlink:href="#TimesNewRomanPSMT-6e" transform="translate(3620.3125 0)"/>
     <use xlink:href="#TimesNewRomanPSMT-20" transform="translate(3670.3125 0)"/>
     <use xlink:href="#TimesNewRomanPSMT-73" transform="translate(3695.3125 0)"/>
     <use xlink:href="#TimesNewRomanPSMT-65" transform="translate(3734.228516 0)"/>
     <use xlink:href="#TimesNewRomanPSMT-74" transform="translate(3778.613281 0)"/>
    </g>
   </g>
   <g id="legend_1">
    <g id="patch_7">
     <path d="M 435.637375 94.278687 
L 672.807688 94.278687 
Q 677.207688 94.278687 677.207688 89.878687 
L 677.207688 60.9315 
Q 677.207688 56.5315 672.807688 56.5315 
L 435.637375 56.5315 
Q 431.237375 56.5315 431.237375 60.9315 
L 431.237375 89.878687 
Q 431.237375 94.278687 435.637375 94.278687 
z
" style="fill: #ffffff; opacity: 0.8; stroke: #cccccc; stroke-linejoin: miter"/>
    </g>
    <g id="line2d_32">
     <path d="M 440.037375 73.0315 
L 462.037375 73.0315 
L 484.037375 73.0315 
" style="fill: none; stroke: #1f77b4; stroke-width: 1.5; stroke-linecap: square"/>
    </g>
    <g id="text_19">
     <!-- Best accuracy 0.74 -->
     <g transform="translate(501.637375 80.7315) scale(0.22 -0.22)">
      <defs>
       <path id="TimesNewRomanPSMT-42" d="M 2956 2163 
Q 3397 2069 3616 1863 
Q 3919 1575 3919 1159 
Q 3919 844 3719 555 
Q 3519 266 3170 133 
Q 2822 0 2106 0 
L 106 0 
L 106 116 
L 266 116 
Q 531 116 647 284 
Q 719 394 719 750 
L 719 3488 
Q 719 3881 628 3984 
Q 506 4122 266 4122 
L 106 4122 
L 106 4238 
L 1938 4238 
Q 2450 4238 2759 4163 
Q 3228 4050 3475 3764 
Q 3722 3478 3722 3106 
Q 3722 2788 3528 2536 
Q 3334 2284 2956 2163 
z
M 1319 2331 
Q 1434 2309 1582 2298 
Q 1731 2288 1909 2288 
Q 2366 2288 2595 2386 
Q 2825 2484 2947 2687 
Q 3069 2891 3069 3131 
Q 3069 3503 2766 3765 
Q 2463 4028 1881 4028 
Q 1569 4028 1319 3959 
L 1319 2331 
z
M 1319 306 
Q 1681 222 2034 222 
Q 2600 222 2897 476 
Q 3194 731 3194 1106 
Q 3194 1353 3059 1581 
Q 2925 1809 2622 1940 
Q 2319 2072 1872 2072 
Q 1678 2072 1540 2065 
Q 1403 2059 1319 2044 
L 1319 306 
z
" transform="scale(0.015625)"/>
      </defs>
      <use xlink:href="#TimesNewRomanPSMT-42"/>
      <use xlink:href="#TimesNewRomanPSMT-65" transform="translate(66.699219 0)"/>
      <use xlink:href="#TimesNewRomanPSMT-73" transform="translate(111.083984 0)"/>
      <use xlink:href="#TimesNewRomanPSMT-74" transform="translate(150 0)"/>
      <use xlink:href="#TimesNewRomanPSMT-20" transform="translate(177.783203 0)"/>
      <use xlink:href="#TimesNewRomanPSMT-61" transform="translate(202.783203 0)"/>
      <use xlink:href="#TimesNewRomanPSMT-63" transform="translate(247.167969 0)"/>
      <use xlink:href="#TimesNewRomanPSMT-63" transform="translate(291.552734 0)"/>
      <use xlink:href="#TimesNewRomanPSMT-75" transform="translate(335.9375 0)"/>
      <use xlink:href="#TimesNewRomanPSMT-72" transform="translate(385.9375 0)"/>
      <use xlink:href="#TimesNewRomanPSMT-61" transform="translate(419.238281 0)"/>
      <use xlink:href="#TimesNewRomanPSMT-63" transform="translate(463.623047 0)"/>
      <use xlink:href="#TimesNewRomanPSMT-79" transform="translate(508.007812 0)"/>
      <use xlink:href="#TimesNewRomanPSMT-20" transform="translate(558.007812 0)"/>
      <use xlink:href="#TimesNewRomanPSMT-30" transform="translate(583.007812 0)"/>
      <use xlink:href="#TimesNewRomanPSMT-2e" transform="translate(633.007812 0)"/>
      <use xlink:href="#TimesNewRomanPSMT-37" transform="translate(658.007812 0)"/>
      <use xlink:href="#TimesNewRomanPSMT-34" transform="translate(708.007812 0)"/>
     </g>
    </g>
   </g>
  </g>
 </g>
 <defs>
  <clipPath id="p60af0e5fb7">
   <rect x="331.087688" y="45.5315" width="357.12" height="266.112"/>
  </clipPath>
 </defs>
</svg>
