<?xml version="1.0" encoding="utf-8" standalone="no"?>
<!DOCTYPE svg PUBLIC "-//W3C//DTD SVG 1.1//EN"
  "http://www.w3.org/Graphics/SVG/1.1/DTD/svg11.dtd">
<svg xmlns:xlink="http://www.w3.org/1999/xlink" width="812.599875pt" height="383.265687pt" viewBox="0 0 812.599875 383.265687" xmlns="http://www.w3.org/2000/svg" version="1.1">
 <metadata>
  <rdf:RDF xmlns:dc="http://purl.org/dc/elements/1.1/" xmlns:cc="http://creativecommons.org/ns#" xmlns:rdf="http://www.w3.org/1999/02/22-rdf-syntax-ns#">
   <cc:Work>
    <dc:type rdf:resource="http://purl.org/dc/dcmitype/StillImage"/>
    <dc:date>2025-07-11T05:08:12.725780</dc:date>
    <dc:format>image/svg+xml</dc:format>
    <dc:creator>
     <cc:Agent>
      <dc:title>Matplotlib v3.10.3, https://matplotlib.org/</dc:title>
     </cc:Agent>
    </dc:creator>
   </cc:Work>
  </rdf:RDF>
 </metadata>
 <defs>
  <style type="text/css">*{stroke-linejoin: round; stroke-linecap: butt}</style>
 </defs>
 <g id="figure_1">
  <g id="patch_1">
   <path d="M -0 383.265687 
L 812.599875 383.265687 
L 812.599875 0 
L -0 0 
z
" style="fill: #ffffff"/>
  </g>
  <g id="axes_1">
   <g id="patch_2">
    <path d="M 227.739937 311.6435 
L 584.859938 311.6435 
L 584.859938 45.5315 
L 227.739937 45.5315 
z
" style="fill: #ffffff"/>
   </g>
   <g id="matplotlib.axis_1">
    <g id="xtick_1">
     <g id="line2d_1">
      <path d="M 227.739937 311.6435 
L 227.739937 45.5315 
" clip-path="url(#p20e94630a1)" style="fill: none; stroke: #b0b0b0; stroke-opacity: 0.3; stroke-width: 0.8; stroke-linecap: square"/>
     </g>
     <g id="line2d_2">
      <defs>
       <path id="mbd12b0e561" d="M 0 0 
L 0 3.5 
" style="stroke: #000000; stroke-width: 0.8"/>
      </defs>
      <g>
       <use xlink:href="#mbd12b0e561" x="227.739937" y="311.6435" style="stroke: #000000; stroke-width: 0.8"/>
      </g>
     </g>
     <g id="text_1">
      <!-- 0.0 -->
      <g transform="translate(213.989937 333.91975) scale(0.22 -0.22)">
       <defs>
        <path id="TimesNewRomanPSMT-30" d="M 231 2094 
Q 231 2819 450 3342 
Q 669 3866 1031 4122 
Q 1313 4325 1613 4325 
Q 2100 4325 2488 3828 
Q 2972 3213 2972 2159 
Q 2972 1422 2759 906 
Q 2547 391 2217 158 
Q 1888 -75 1581 -75 
Q 975 -75 572 641 
Q 231 1244 231 2094 
z
M 844 2016 
Q 844 1141 1059 588 
Q 1238 122 1591 122 
Q 1759 122 1940 273 
Q 2122 425 2216 781 
Q 2359 1319 2359 2297 
Q 2359 3022 2209 3506 
Q 2097 3866 1919 4016 
Q 1791 4119 1609 4119 
Q 1397 4119 1231 3928 
Q 1006 3669 925 3112 
Q 844 2556 844 2016 
z
" transform="scale(0.015625)"/>
        <path id="TimesNewRomanPSMT-2e" d="M 800 606 
Q 947 606 1047 504 
Q 1147 403 1147 259 
Q 1147 116 1045 14 
Q 944 -88 800 -88 
Q 656 -88 554 14 
Q 453 116 453 259 
Q 453 406 554 506 
Q 656 606 800 606 
z
" transform="scale(0.015625)"/>
       </defs>
       <use xlink:href="#TimesNewRomanPSMT-30"/>
       <use xlink:href="#TimesNewRomanPSMT-2e" transform="translate(50 0)"/>
       <use xlink:href="#TimesNewRomanPSMT-30" transform="translate(75 0)"/>
      </g>
     </g>
    </g>
    <g id="xtick_2">
     <g id="line2d_3">
      <path d="M 354.058325 311.6435 
L 354.058325 45.5315 
" clip-path="url(#p20e94630a1)" style="fill: none; stroke: #b0b0b0; stroke-opacity: 0.3; stroke-width: 0.8; stroke-linecap: square"/>
     </g>
     <g id="line2d_4">
      <g>
       <use xlink:href="#mbd12b0e561" x="354.058325" y="311.6435" style="stroke: #000000; stroke-width: 0.8"/>
      </g>
     </g>
     <g id="text_2">
      <!-- 0.5 -->
      <g transform="translate(340.308325 333.91975) scale(0.22 -0.22)">
       <defs>
        <path id="TimesNewRomanPSMT-35" d="M 2778 4238 
L 2534 3706 
L 1259 3706 
L 981 3138 
Q 1809 3016 2294 2522 
Q 2709 2097 2709 1522 
Q 2709 1188 2573 903 
Q 2438 619 2231 419 
Q 2025 219 1772 97 
Q 1413 -75 1034 -75 
Q 653 -75 479 54 
Q 306 184 306 341 
Q 306 428 378 495 
Q 450 563 559 563 
Q 641 563 702 538 
Q 763 513 909 409 
Q 1144 247 1384 247 
Q 1750 247 2026 523 
Q 2303 800 2303 1197 
Q 2303 1581 2056 1914 
Q 1809 2247 1375 2428 
Q 1034 2569 447 2591 
L 1259 4238 
L 2778 4238 
z
" transform="scale(0.015625)"/>
       </defs>
       <use xlink:href="#TimesNewRomanPSMT-30"/>
       <use xlink:href="#TimesNewRomanPSMT-2e" transform="translate(50 0)"/>
       <use xlink:href="#TimesNewRomanPSMT-35" transform="translate(75 0)"/>
      </g>
     </g>
    </g>
    <g id="xtick_3">
     <g id="line2d_5">
      <path d="M 480.376712 311.6435 
L 480.376712 45.5315 
" clip-path="url(#p20e94630a1)" style="fill: none; stroke: #b0b0b0; stroke-opacity: 0.3; stroke-width: 0.8; stroke-linecap: square"/>
     </g>
     <g id="line2d_6">
      <g>
       <use xlink:href="#mbd12b0e561" x="480.376712" y="311.6435" style="stroke: #000000; stroke-width: 0.8"/>
      </g>
     </g>
     <g id="text_3">
      <!-- 1.0 -->
      <g transform="translate(466.626712 333.91975) scale(0.22 -0.22)">
       <defs>
        <path id="TimesNewRomanPSMT-31" d="M 750 3822 
L 1781 4325 
L 1884 4325 
L 1884 747 
Q 1884 391 1914 303 
Q 1944 216 2037 169 
Q 2131 122 2419 116 
L 2419 0 
L 825 0 
L 825 116 
Q 1125 122 1212 167 
Q 1300 213 1334 289 
Q 1369 366 1369 747 
L 1369 3034 
Q 1369 3497 1338 3628 
Q 1316 3728 1258 3775 
Q 1200 3822 1119 3822 
Q 1003 3822 797 3725 
L 750 3822 
z
" transform="scale(0.015625)"/>
       </defs>
       <use xlink:href="#TimesNewRomanPSMT-31"/>
       <use xlink:href="#TimesNewRomanPSMT-2e" transform="translate(50 0)"/>
       <use xlink:href="#TimesNewRomanPSMT-30" transform="translate(75 0)"/>
      </g>
     </g>
    </g>
    <g id="text_4">
     <!-- $\kappa  = \frac{ln(n)}{ln(d)}$ -->
     <g transform="translate(374.289938 364.185687) scale(0.22 -0.22)">
      <defs>
       <path id="STIXGeneral-Italic-3ba" d="M 979 1440 
L 998 1446 
Q 1850 2541 2464 2790 
Q 2547 2822 2630 2822 
Q 2797 2822 2886 2736 
Q 2976 2650 2976 2522 
Q 2976 2387 2893 2307 
Q 2810 2227 2682 2227 
Q 2605 2227 2502 2288 
Q 2400 2349 2336 2349 
Q 2170 2349 1990 2205 
Q 1811 2061 1414 1645 
L 2042 544 
Q 2202 262 2310 182 
Q 2419 102 2624 102 
L 2624 0 
Q 2374 -83 2182 -83 
Q 1786 -83 1555 326 
L 960 1350 
L 576 0 
L 90 0 
L 640 1978 
Q 730 2317 730 2406 
Q 730 2560 518 2560 
L 339 2560 
L 339 2650 
Q 678 2694 1306 2822 
L 1325 2803 
L 979 1440 
z
" transform="scale(0.015625)"/>
       <path id="STIXGeneral-Regular-3d" d="M 4077 2048 
L 307 2048 
L 307 2470 
L 4077 2470 
L 4077 2048 
z
M 4077 768 
L 307 768 
L 307 1190 
L 4077 1190 
L 4077 768 
z
" transform="scale(0.015625)"/>
       <path id="STIXGeneral-Italic-6c" d="M 1786 4339 
L 806 595 
Q 755 410 755 320 
Q 755 205 864 205 
Q 1037 205 1293 570 
L 1453 794 
L 1542 730 
Q 1254 275 1046 102 
Q 838 -70 576 -70 
Q 262 -70 262 288 
Q 262 397 288 480 
L 1165 3834 
Q 1184 3898 1184 3955 
Q 1184 4096 870 4096 
L 755 4096 
L 755 4198 
Q 1203 4250 1747 4371 
L 1786 4339 
z
" transform="scale(0.015625)"/>
       <path id="STIXGeneral-Italic-6e" d="M 2944 749 
L 3034 666 
Q 2707 218 2534 80 
Q 2362 -58 2138 -58 
Q 2010 -58 1923 28 
Q 1837 115 1837 288 
Q 1837 390 1939 768 
L 2221 1805 
Q 2310 2150 2310 2310 
Q 2310 2496 2157 2496 
Q 1971 2496 1750 2275 
Q 1530 2054 1210 1587 
Q 998 1274 899 1024 
Q 800 774 570 0 
L 90 0 
L 704 2240 
Q 717 2304 717 2349 
Q 717 2445 630 2480 
Q 544 2515 301 2522 
L 301 2624 
Q 550 2675 857 2729 
Q 1165 2784 1338 2822 
L 1363 2810 
L 934 1414 
Q 1408 2170 1753 2496 
Q 2099 2822 2413 2822 
Q 2611 2822 2720 2716 
Q 2829 2611 2829 2432 
Q 2829 2272 2765 2048 
L 2406 749 
Q 2317 429 2317 358 
Q 2317 243 2419 243 
Q 2541 243 2810 582 
Q 2854 634 2944 749 
z
" transform="scale(0.015625)"/>
       <path id="STIXGeneral-Regular-28" d="M 1946 -1030 
L 1869 -1133 
Q 1126 -710 716 32 
Q 307 774 307 1613 
Q 307 3386 1888 4326 
L 1946 4224 
Q 1293 3667 1075 3126 
Q 858 2586 858 1632 
Q 858 685 1082 96 
Q 1306 -493 1946 -1030 
z
" transform="scale(0.015625)"/>
       <path id="STIXGeneral-Regular-29" d="M 186 4224 
L 262 4326 
Q 992 3891 1408 3148 
Q 1824 2406 1824 1581 
Q 1824 -166 243 -1133 
L 186 -1030 
Q 845 -486 1059 54 
Q 1274 595 1274 1562 
Q 1274 2534 1059 3120 
Q 845 3706 186 4224 
z
" transform="scale(0.015625)"/>
       <path id="STIXGeneral-Italic-64" d="M 3334 4371 
L 3373 4333 
L 3123 3360 
L 2739 1958 
Q 2323 429 2323 384 
Q 2323 256 2438 256 
Q 2522 256 2614 336 
Q 2707 416 2963 710 
L 3040 646 
Q 2547 -83 2099 -83 
Q 1978 -83 1907 -6 
Q 1837 70 1837 205 
Q 1837 397 1920 774 
Q 1645 307 1379 118 
Q 1114 -70 781 -70 
Q 461 -70 278 125 
Q 96 320 96 678 
Q 96 1440 713 2131 
Q 1331 2822 1965 2822 
Q 2163 2822 2256 2732 
Q 2349 2643 2381 2451 
L 2387 2451 
L 2675 3494 
Q 2765 3808 2765 3949 
Q 2765 4051 2694 4076 
Q 2624 4102 2355 4115 
L 2355 4224 
Q 2848 4269 3334 4371 
z
M 2278 2310 
Q 2278 2477 2185 2576 
Q 2093 2675 1978 2675 
Q 1677 2675 1395 2381 
Q 1075 2042 864 1571 
Q 653 1101 653 704 
Q 653 486 752 361 
Q 851 237 1024 237 
Q 1312 237 1606 550 
Q 1901 864 2089 1350 
Q 2278 1837 2278 2310 
z
" transform="scale(0.015625)"/>
      </defs>
      <use xlink:href="#STIXGeneral-Italic-3ba" transform="translate(0 0.003125)"/>
      <use xlink:href="#STIXGeneral-Regular-3d" transform="translate(58.83999 0.003125)"/>
      <use xlink:href="#STIXGeneral-Italic-6c" transform="translate(141.779971 50.192188) scale(0.7)"/>
      <use xlink:href="#STIXGeneral-Italic-6e" transform="translate(161.239963 50.192188) scale(0.7)"/>
      <use xlink:href="#STIXGeneral-Regular-28" transform="translate(196.239952 50.192188) scale(0.7)"/>
      <use xlink:href="#STIXGeneral-Italic-6e" transform="translate(219.549944 50.192188) scale(0.7)"/>
      <use xlink:href="#STIXGeneral-Regular-29" transform="translate(254.549933 50.192188) scale(0.7)"/>
      <use xlink:href="#STIXGeneral-Italic-6c" transform="translate(141.779971 -41.257812) scale(0.7)"/>
      <use xlink:href="#STIXGeneral-Italic-6e" transform="translate(161.239963 -41.257812) scale(0.7)"/>
      <use xlink:href="#STIXGeneral-Regular-28" transform="translate(196.239952 -41.257812) scale(0.7)"/>
      <use xlink:href="#STIXGeneral-Italic-64" transform="translate(219.549944 -41.257812) scale(0.7)"/>
      <use xlink:href="#STIXGeneral-Regular-29" transform="translate(254.549933 -41.257812) scale(0.7)"/>
      <path d="M 141.779971 12.8 
L 141.779971 19.05 
L 277.859924 19.05 
L 277.859924 12.8 
L 141.779971 12.8 
z
"/>
     </g>
    </g>
   </g>
   <g id="matplotlib.axis_2">
    <g id="ytick_1">
     <g id="line2d_7">
      <path d="M 227.739937 311.6435 
L 584.859938 311.6435 
" clip-path="url(#p20e94630a1)" style="fill: none; stroke: #b0b0b0; stroke-opacity: 0.3; stroke-width: 0.8; stroke-linecap: square"/>
     </g>
     <g id="line2d_8">
      <defs>
       <path id="m517a2f99df" d="M 0 0 
L -3.5 0 
" style="stroke: #000000; stroke-width: 0.8"/>
      </defs>
      <g>
       <use xlink:href="#m517a2f99df" x="227.739937" y="311.6435" style="stroke: #000000; stroke-width: 0.8"/>
      </g>
     </g>
     <g id="text_5">
      <!-- 0.0 -->
      <g transform="translate(193.239937 319.281625) scale(0.22 -0.22)">
       <use xlink:href="#TimesNewRomanPSMT-30"/>
       <use xlink:href="#TimesNewRomanPSMT-2e" transform="translate(50 0)"/>
       <use xlink:href="#TimesNewRomanPSMT-30" transform="translate(75 0)"/>
      </g>
     </g>
    </g>
    <g id="ytick_2">
     <g id="line2d_9">
      <path d="M 227.739937 254.485637 
L 584.859938 254.485637 
" clip-path="url(#p20e94630a1)" style="fill: none; stroke: #b0b0b0; stroke-opacity: 0.3; stroke-width: 0.8; stroke-linecap: square"/>
     </g>
     <g id="line2d_10">
      <g>
       <use xlink:href="#m517a2f99df" x="227.739937" y="254.485637" style="stroke: #000000; stroke-width: 0.8"/>
      </g>
     </g>
     <g id="text_6">
      <!-- 0.1 -->
      <g transform="translate(193.239937 262.123762) scale(0.22 -0.22)">
       <use xlink:href="#TimesNewRomanPSMT-30"/>
       <use xlink:href="#TimesNewRomanPSMT-2e" transform="translate(50 0)"/>
       <use xlink:href="#TimesNewRomanPSMT-31" transform="translate(75 0)"/>
      </g>
     </g>
    </g>
    <g id="ytick_3">
     <g id="line2d_11">
      <path d="M 227.739937 197.327774 
L 584.859938 197.327774 
" clip-path="url(#p20e94630a1)" style="fill: none; stroke: #b0b0b0; stroke-opacity: 0.3; stroke-width: 0.8; stroke-linecap: square"/>
     </g>
     <g id="line2d_12">
      <g>
       <use xlink:href="#m517a2f99df" x="227.739937" y="197.327774" style="stroke: #000000; stroke-width: 0.8"/>
      </g>
     </g>
     <g id="text_7">
      <!-- 0.2 -->
      <g transform="translate(193.239937 204.965899) scale(0.22 -0.22)">
       <defs>
        <path id="TimesNewRomanPSMT-32" d="M 2934 816 
L 2638 0 
L 138 0 
L 138 116 
Q 1241 1122 1691 1759 
Q 2141 2397 2141 2925 
Q 2141 3328 1894 3587 
Q 1647 3847 1303 3847 
Q 991 3847 742 3664 
Q 494 3481 375 3128 
L 259 3128 
Q 338 3706 661 4015 
Q 984 4325 1469 4325 
Q 1984 4325 2329 3994 
Q 2675 3663 2675 3213 
Q 2675 2891 2525 2569 
Q 2294 2063 1775 1497 
Q 997 647 803 472 
L 1909 472 
Q 2247 472 2383 497 
Q 2519 522 2628 598 
Q 2738 675 2819 816 
L 2934 816 
z
" transform="scale(0.015625)"/>
       </defs>
       <use xlink:href="#TimesNewRomanPSMT-30"/>
       <use xlink:href="#TimesNewRomanPSMT-2e" transform="translate(50 0)"/>
       <use xlink:href="#TimesNewRomanPSMT-32" transform="translate(75 0)"/>
      </g>
     </g>
    </g>
    <g id="ytick_4">
     <g id="line2d_13">
      <path d="M 227.739937 140.16991 
L 584.859938 140.16991 
" clip-path="url(#p20e94630a1)" style="fill: none; stroke: #b0b0b0; stroke-opacity: 0.3; stroke-width: 0.8; stroke-linecap: square"/>
     </g>
     <g id="line2d_14">
      <g>
       <use xlink:href="#m517a2f99df" x="227.739937" y="140.16991" style="stroke: #000000; stroke-width: 0.8"/>
      </g>
     </g>
     <g id="text_8">
      <!-- 0.3 -->
      <g transform="translate(193.239937 147.808035) scale(0.22 -0.22)">
       <defs>
        <path id="TimesNewRomanPSMT-33" d="M 325 3431 
Q 506 3859 782 4092 
Q 1059 4325 1472 4325 
Q 1981 4325 2253 3994 
Q 2459 3747 2459 3466 
Q 2459 3003 1878 2509 
Q 2269 2356 2469 2072 
Q 2669 1788 2669 1403 
Q 2669 853 2319 450 
Q 1863 -75 997 -75 
Q 569 -75 414 31 
Q 259 138 259 259 
Q 259 350 332 419 
Q 406 488 509 488 
Q 588 488 669 463 
Q 722 447 909 348 
Q 1097 250 1169 231 
Q 1284 197 1416 197 
Q 1734 197 1970 444 
Q 2206 691 2206 1028 
Q 2206 1275 2097 1509 
Q 2016 1684 1919 1775 
Q 1784 1900 1550 2001 
Q 1316 2103 1072 2103 
L 972 2103 
L 972 2197 
Q 1219 2228 1467 2375 
Q 1716 2522 1828 2728 
Q 1941 2934 1941 3181 
Q 1941 3503 1739 3701 
Q 1538 3900 1238 3900 
Q 753 3900 428 3381 
L 325 3431 
z
" transform="scale(0.015625)"/>
       </defs>
       <use xlink:href="#TimesNewRomanPSMT-30"/>
       <use xlink:href="#TimesNewRomanPSMT-2e" transform="translate(50 0)"/>
       <use xlink:href="#TimesNewRomanPSMT-33" transform="translate(75 0)"/>
      </g>
     </g>
    </g>
    <g id="ytick_5">
     <g id="line2d_15">
      <path d="M 227.739937 83.012047 
L 584.859938 83.012047 
" clip-path="url(#p20e94630a1)" style="fill: none; stroke: #b0b0b0; stroke-opacity: 0.3; stroke-width: 0.8; stroke-linecap: square"/>
     </g>
     <g id="line2d_16">
      <g>
       <use xlink:href="#m517a2f99df" x="227.739937" y="83.012047" style="stroke: #000000; stroke-width: 0.8"/>
      </g>
     </g>
     <g id="text_9">
      <!-- 0.4 -->
      <g transform="translate(193.239937 90.650172) scale(0.22 -0.22)">
       <defs>
        <path id="TimesNewRomanPSMT-34" d="M 2978 1563 
L 2978 1119 
L 2409 1119 
L 2409 0 
L 1894 0 
L 1894 1119 
L 100 1119 
L 100 1519 
L 2066 4325 
L 2409 4325 
L 2409 1563 
L 2978 1563 
z
M 1894 1563 
L 1894 3666 
L 406 1563 
L 1894 1563 
z
" transform="scale(0.015625)"/>
       </defs>
       <use xlink:href="#TimesNewRomanPSMT-30"/>
       <use xlink:href="#TimesNewRomanPSMT-2e" transform="translate(50 0)"/>
       <use xlink:href="#TimesNewRomanPSMT-34" transform="translate(75 0)"/>
      </g>
     </g>
    </g>
    <g id="text_10">
     <!-- Loss -->
     <g transform="translate(184.534 199.368906) rotate(-90) scale(0.22 -0.22)">
      <defs>
       <path id="TimesNewRomanPSMT-4c" d="M 3669 1172 
L 3772 1150 
L 3409 0 
L 128 0 
L 128 116 
L 288 116 
Q 556 116 672 291 
Q 738 391 738 753 
L 738 3488 
Q 738 3884 650 3984 
Q 528 4122 288 4122 
L 128 4122 
L 128 4238 
L 2047 4238 
L 2047 4122 
Q 1709 4125 1573 4059 
Q 1438 3994 1388 3894 
Q 1338 3794 1338 3416 
L 1338 753 
Q 1338 494 1388 397 
Q 1425 331 1503 300 
Q 1581 269 1991 269 
L 2300 269 
Q 2788 269 2984 341 
Q 3181 413 3343 595 
Q 3506 778 3669 1172 
z
" transform="scale(0.015625)"/>
       <path id="TimesNewRomanPSMT-6f" d="M 1600 2947 
Q 2250 2947 2644 2453 
Q 2978 2031 2978 1484 
Q 2978 1100 2793 706 
Q 2609 313 2286 112 
Q 1963 -88 1566 -88 
Q 919 -88 538 428 
Q 216 863 216 1403 
Q 216 1797 411 2186 
Q 606 2575 925 2761 
Q 1244 2947 1600 2947 
z
M 1503 2744 
Q 1338 2744 1170 2645 
Q 1003 2547 900 2300 
Q 797 2053 797 1666 
Q 797 1041 1045 587 
Q 1294 134 1700 134 
Q 2003 134 2200 384 
Q 2397 634 2397 1244 
Q 2397 2006 2069 2444 
Q 1847 2744 1503 2744 
z
" transform="scale(0.015625)"/>
       <path id="TimesNewRomanPSMT-73" d="M 2050 2947 
L 2050 1972 
L 1947 1972 
Q 1828 2431 1642 2597 
Q 1456 2763 1169 2763 
Q 950 2763 815 2647 
Q 681 2531 681 2391 
Q 681 2216 781 2091 
Q 878 1963 1175 1819 
L 1631 1597 
Q 2266 1288 2266 781 
Q 2266 391 1970 151 
Q 1675 -88 1309 -88 
Q 1047 -88 709 6 
Q 606 38 541 38 
Q 469 38 428 -44 
L 325 -44 
L 325 978 
L 428 978 
Q 516 541 762 319 
Q 1009 97 1316 97 
Q 1531 97 1667 223 
Q 1803 350 1803 528 
Q 1803 744 1651 891 
Q 1500 1038 1047 1263 
Q 594 1488 453 1669 
Q 313 1847 313 2119 
Q 313 2472 555 2709 
Q 797 2947 1181 2947 
Q 1350 2947 1591 2875 
Q 1750 2828 1803 2828 
Q 1853 2828 1881 2850 
Q 1909 2872 1947 2947 
L 2050 2947 
z
" transform="scale(0.015625)"/>
      </defs>
      <use xlink:href="#TimesNewRomanPSMT-4c"/>
      <use xlink:href="#TimesNewRomanPSMT-6f" transform="translate(61.083984 0)"/>
      <use xlink:href="#TimesNewRomanPSMT-73" transform="translate(111.083984 0)"/>
      <use xlink:href="#TimesNewRomanPSMT-73" transform="translate(150 0)"/>
     </g>
    </g>
   </g>
   <g id="line2d_17">
    <path d="M 227.739937 168.750682 
L 315.154475 182.311889 
L 352.918797 188.390042 
L 363.109188 191.414588 
L 371.064134 194.943241 
L 383.123138 199.507924 
L 387.925868 203.1187 
L 392.168791 206.780553 
L 395.968894 207.161893 
L 399.409934 208.949258 
L 402.553946 210.034297 
L 405.448158 213.670036 
L 408.12936 214.662953 
L 410.626769 216.325507 
L 412.963973 217.352986 
L 415.160294 220.346802 
L 417.231754 222.933097 
L 419.191789 220.739564 
L 421.051778 221.425674 
L 422.82144 223.169083 
L 424.509143 228.055869 
L 426.122143 227.218008 
L 427.666775 230.082431 
L 429.1486 231.513216 
L 430.572525 232.384336 
L 431.942906 234.260417 
L 433.263625 234.934927 
L 434.538155 233.951567 
L 435.769618 239.49117 
L 436.96083 239.184883 
L 438.114339 239.749888 
L 439.232459 244.189888 
L 442.394658 245.254783 
L 443.390562 245.88425 
L 444.359976 245.636489 
L 445.304273 250.211146 
L 446.224722 247.063952 
L 447.122497 249.550259 
L 448.854311 253.471827 
L 449.690307 254.89995 
L 450.507557 254.509629 
L 451.306883 257.863198 
L 452.089055 251.732383 
L 452.854794 254.178936 
L 453.604776 257.702807 
L 454.339636 258.286732 
L 455.059972 260.648518 
L 455.766347 260.448513 
L 456.459292 260.892114 
L 457.806869 264.211384 
L 458.462423 259.550044 
L 459.106394 262.078715 
L 459.739185 263.188798 
L 460.361176 266.926637 
L 460.972731 264.956787 
L 461.574194 266.81818 
L 462.165892 269.260312 
L 462.748138 268.942451 
L 463.321228 270.354085 
L 463.885447 266.924193 
L 464.441065 272.815202 
L 464.98834 273.115527 
L 465.527518 270.587613 
L 466.058837 274.873435 
L 466.582521 275.695569 
L 467.098788 276.28861 
L 467.607844 273.003905 
L 468.109887 273.60242 
L 469.093694 278.272346 
L 469.575814 276.843744 
L 470.051641 276.224787 
L 470.521336 277.65489 
L 470.985055 278.554333 
L 471.442948 280.174082 
L 471.89516 279.438344 
L 472.341829 280.794704 
L 472.783091 281.439095 
L 473.219075 283.608727 
L 473.649905 281.205039 
L 474.075702 273.516379 
L 474.496582 282.496695 
L 474.912658 280.517759 
L 475.324037 283.81361 
L 475.730824 284.462208 
L 476.133122 284.241209 
L 476.531028 284.912631 
L 476.924636 284.859265 
L 477.31404 283.924012 
L 477.699327 285.259934 
L 478.080583 287.189767 
L 478.457893 287.189803 
L 478.831337 286.925231 
L 479.200993 284.541129 
L 479.566938 284.992084 
L 479.929245 287.339222 
L 480.643231 289.05588 
L 480.995046 286.996987 
L 481.343498 288.182619 
L 481.68865 290.937558 
L 482.030565 291.559981 
L 482.704919 290.210371 
L 483.037474 291.919732 
L 483.367022 290.253562 
L 483.693618 291.674921 
L 484.017313 291.413092 
L 484.338158 291.732307 
L 484.656204 292.680511 
L 485.59402 294.363994 
L 485.901339 294.335459 
L 486.206088 293.909756 
L 486.508311 293.070272 
L 486.808048 294.253753 
L 487.400226 293.70911 
L 487.692746 294.021544 
L 487.982937 295.457442 
L 488.270836 295.729927 
L 488.556479 296.271007 
L 488.8399 295.333168 
L 489.121134 294.982876 
L 489.400215 297.256129 
L 489.677175 296.409055 
L 489.952047 296.933599 
L 490.224861 298.026025 
L 490.495648 298.551148 
L 490.764439 295.769905 
L 491.031261 296.85768 
L 491.559117 298.149038 
L 491.820205 297.084559 
L 492.079437 296.785339 
L 492.336838 297.676397 
L 492.592433 299.004161 
L 492.846249 298.921354 
L 493.098309 299.30491 
L 493.348639 297.62889 
L 493.59726 298.170342 
L 493.844198 300.730447 
L 494.089473 288.040395 
L 494.333109 286.165688 
L 494.815549 299.882689 
L 495.054395 300.154539 
L 495.291686 301.548626 
L 495.527442 301.309225 
L 495.761683 300.321425 
L 495.994429 301.110648 
L 496.225697 299.727451 
L 496.455508 300.064772 
L 496.683878 300.887988 
L 496.910826 300.804303 
L 497.13637 300.523964 
L 497.360527 302.436251 
L 497.583314 302.593612 
L 498.024843 301.828744 
L 498.243618 301.451623 
L 498.677267 301.992795 
L 498.892172 302.116436 
L 499.105818 303.62561 
L 499.318218 303.263939 
L 499.739341 302.026616 
L 499.948092 303.018467 
L 500.155654 302.784053 
L 500.362041 303.248936 
L 500.567265 304.226662 
L 500.771341 303.033822 
L 500.97428 304.263645 
L 501.176096 303.167767 
L 501.576405 303.51753 
L 501.774923 303.349803 
L 501.972365 305.445934 
L 502.36407 303.171057 
L 502.558355 304.41273 
L 502.75161 304.077889 
L 502.943846 304.684417 
L 503.135073 304.528154 
L 503.325302 304.891367 
L 503.514543 304.583112 
L 503.702807 304.500723 
L 503.890103 303.59879 
L 504.076442 304.942094 
L 504.446286 304.763253 
L 504.62981 305.447068 
L 505.174902 304.792049 
L 505.533819 304.768569 
L 505.711961 305.512748 
L 505.889237 304.814811 
L 506.065654 304.85192 
L 506.241222 305.249191 
L 506.589841 303.850596 
L 506.762907 305.10046 
L 506.935156 304.980366 
L 507.106595 305.361213 
L 507.277231 306.677718 
L 507.447072 304.525515 
L 507.784398 305.565589 
L 507.951897 305.84315 
L 508.11863 306.480101 
L 508.284604 306.205035 
L 508.449825 306.393804 
L 508.614301 306.134712 
L 508.778038 305.593532 
L 508.941043 306.212249 
L 509.103322 305.938302 
L 509.425728 306.563933 
L 509.585868 305.370824 
L 509.745308 306.716203 
L 509.904052 306.254205 
L 510.062109 306.409769 
L 510.219483 305.994471 
L 510.376181 306.816487 
L 510.532207 306.978873 
L 510.687569 306.972316 
L 510.842271 306.672698 
L 510.99632 306.640407 
L 511.14972 306.466605 
L 511.302477 307.374463 
L 511.606084 306.318323 
L 512.056804 307.762302 
L 512.205814 307.056315 
L 512.354217 307.24343 
L 512.502019 306.369265 
L 512.649223 307.95118 
L 512.795836 307.732185 
L 512.941861 307.091718 
L 513.087303 307.59841 
L 513.232167 307.641708 
L 513.52018 308.068455 
L 513.805934 307.21019 
L 513.947975 307.357134 
L 514.089466 307.712721 
L 514.370808 307.265029 
L 514.51067 307.113326 
L 514.649996 308.059609 
L 514.788792 307.412568 
L 514.927062 308.85109 
L 515.202037 307.420371 
L 515.610649 308.418756 
L 515.880534 307.646648 
L 516.01473 307.55737 
L 516.148435 308.185171 
L 516.414381 307.1099 
L 516.678401 308.608394 
L 516.809697 308.415259 
L 516.940522 307.275332 
L 517.070879 308.19636 
L 517.587694 308.09782 
L 517.715761 309.239246 
L 517.84338 308.977635 
L 517.970553 307.921424 
L 518.097284 308.772235 
L 518.223576 308.256871 
L 518.474854 309.019355 
L 518.599847 308.435952 
L 518.724412 308.720431 
L 518.848553 307.406619 
L 518.972273 308.693552 
L 519.095574 308.128179 
L 519.340932 309.01951 
L 519.462994 308.83173 
L 519.584649 308.590607 
L 519.7059 309.383251 
L 519.826748 308.768631 
L 519.947197 309.06554 
L 520.067249 308.111144 
L 520.186907 309.249367 
L 520.425051 308.722043 
L 520.543541 309.680045 
L 520.779374 309.156351 
L 520.89672 309.191835 
L 521.01369 307.882921 
L 521.130286 309.421211 
L 521.24651 308.911007 
L 521.362364 309.228407 
L 521.477852 309.184356 
L 521.592974 308.065407 
L 521.822135 308.828096 
L 521.936177 308.504888 
L 522.049863 309.674954 
L 522.276177 307.794611 
L 522.388809 309.007151 
L 522.501095 308.891136 
L 522.613035 308.510735 
L 522.83589 309.503735 
L 523.05739 309.323047 
L 523.167638 308.649692 
L 523.277553 309.917048 
L 523.496393 308.27298 
L 523.713928 309.563984 
L 523.82221 309.087277 
L 524.037814 309.836939 
L 524.14514 309.630667 
L 524.252151 308.683398 
L 524.465234 309.505657 
L 524.57131 308.824139 
L 524.782541 309.344426 
L 524.887699 308.687274 
L 525.201365 310.612788 
L 525.408987 308.732291 
L 525.512355 309.075371 
L 525.615432 308.940099 
L 525.718217 309.971112 
L 525.922923 308.929928 
L 526.024847 309.277741 
L 526.126486 309.868088 
L 526.227842 308.649463 
L 526.328918 309.930435 
L 526.630473 309.468651 
L 526.73044 310.267202 
L 526.830133 310.236032 
L 527.028705 309.323387 
L 527.226201 309.478863 
L 527.324549 309.989816 
L 527.422632 309.92966 
L 527.520453 308.860761 
L 527.715309 309.933972 
L 527.812348 309.017183 
L 528.005654 309.887235 
L 528.101924 309.760737 
L 528.19794 310.205395 
L 528.293704 310.030363 
L 528.484481 308.605958 
L 528.674264 310.260811 
L 528.768787 310.370534 
L 528.863064 309.91158 
L 528.957099 310.067552 
L 529.050892 309.722489 
L 529.144443 309.759527 
L 529.237756 309.61117 
L 529.423667 310.246914 
L 529.516268 309.270891 
L 529.608634 310.088616 
L 529.700767 309.467602 
L 529.792668 309.711167 
L 529.884338 309.162869 
L 529.975777 309.937694 
L 530.066988 309.766083 
L 530.157971 310.416596 
L 530.248727 309.489508 
L 530.429565 310.777992 
L 530.60951 308.489537 
L 530.699151 309.925825 
L 530.788571 309.691641 
L 530.966757 310.339844 
L 531.055524 310.473556 
L 531.144075 310.344358 
L 531.232412 309.438556 
L 531.320536 309.58173 
L 531.408446 310.357648 
L 531.583634 309.252193 
L 531.670914 309.152061 
L 531.757984 309.802465 
L 531.844848 309.727872 
L 531.931504 309.685397 
L 532.017955 308.80417 
L 532.104202 309.95508 
L 532.190245 151.534316 
L 532.447162 291.503442 
L 532.5324 288.587982 
L 532.70228 308.244262 
L 532.955626 309.640998 
L 533.039684 308.856127 
L 533.123549 309.047187 
L 533.207222 309.24669 
L 533.290703 309.197742 
L 533.373993 310.156797 
L 533.457094 309.544745 
L 533.540005 310.365352 
L 533.622728 309.694324 
L 533.705264 310.513403 
L 533.787613 309.876722 
L 533.869777 310.068742 
L 533.951756 310.069753 
L 534.03355 309.115898 
L 534.277839 310.756856 
L 534.358907 310.897895 
L 534.439794 309.355785 
L 534.520502 309.784769 
L 534.601032 310.122378 
L 534.681384 309.799533 
L 534.76156 310.579212 
L 534.841559 309.34259 
L 534.921384 309.813134 
L 535.08051 310.136844 
L 535.238944 309.967828 
L 535.396693 310.80479 
L 535.553762 310.131431 
L 535.710157 310.484127 
L 535.788103 310.310228 
L 535.865884 309.368219 
L 536.020948 310.82971 
L 536.098233 309.702983 
L 536.175355 310.155994 
L 536.252314 309.876344 
L 536.329111 310.821593 
L 536.405746 310.522648 
L 536.482221 310.353384 
L 536.558535 309.70032 
L 536.63469 310.197886 
L 536.786525 309.737507 
L 536.862205 310.215704 
L 536.937729 309.917485 
L 537.013097 310.212971 
L 537.088309 309.881117 
L 537.163366 310.510264 
L 537.238269 309.88377 
L 537.462059 310.359168 
L 537.536351 309.892093 
L 537.610493 310.072192 
L 537.684483 310.372128 
L 537.832015 309.433896 
L 537.978953 310.862892 
L 538.0522 310.081661 
L 538.1253 310.218029 
L 538.198254 310.23699 
L 538.271063 309.60059 
L 538.343726 309.909193 
L 538.56085 310.545912 
L 538.632938 309.583421 
L 538.704884 310.873179 
L 538.776688 310.714696 
L 538.848351 309.927604 
L 538.991256 310.409488 
L 539.062498 309.602484 
L 539.133602 310.724997 
L 539.204568 310.242592 
L 539.275395 310.736816 
L 539.487055 309.131233 
L 539.697493 310.581176 
L 539.76737 310.084293 
L 539.906723 310.893628 
L 540.045546 310.124691 
L 540.114759 310.5762 
L 540.183842 309.946932 
L 540.252793 310.258477 
L 540.321615 310.900584 
L 540.390306 309.478033 
L 540.527302 310.757396 
L 540.595608 309.958277 
L 540.663785 310.265157 
L 540.799759 309.784578 
L 540.867557 310.127965 
L 540.935228 309.917631 
L 541.002774 309.954719 
L 541.137492 310.750062 
L 541.271713 310.458063 
L 541.338639 309.971815 
L 541.405442 310.273532 
L 541.60512 309.328172 
L 541.737633 310.125522 
L 541.80371 309.981999 
L 541.869667 310.290625 
L 542.066824 309.345467 
L 542.132307 310.768418 
L 542.197673 309.936293 
L 542.262921 310.767708 
L 542.328053 310.292245 
L 542.457969 310.617278 
L 542.522753 309.985301 
L 542.651978 311.103086 
L 542.716419 310.137321 
L 542.780746 310.309459 
L 542.84496 310.147789 
L 542.973049 310.624892 
L 543.036926 309.679921 
L 543.10069 310.946798 
L 543.164343 309.976435 
L 543.227885 310.945494 
L 543.354638 309.838742 
L 543.480952 310.627768 
L 543.543945 310.17203 
L 543.60683 310.312119 
L 543.669606 310.47532 
L 543.732274 309.996768 
L 543.794834 310.009972 
L 543.919634 310.172445 
L 544.044008 310.004535 
L 544.106037 310.649019 
L 544.16796 310.640589 
L 544.229777 310.468046 
L 544.291491 309.551001 
L 544.353099 310.175252 
L 544.414604 310.335214 
L 544.476006 309.541145 
L 544.537304 310.959668 
L 544.598499 310.029741 
L 544.720581 310.808478 
L 544.902942 310.024381 
L 545.024011 310.815387 
L 545.144679 310.335754 
L 545.204864 310.805139 
L 545.264949 310.490002 
L 545.324936 310.339748 
L 545.444614 310.662693 
L 545.504305 310.339539 
L 545.563899 310.518117 
L 545.623396 310.666527 
L 545.682796 309.569596 
L 545.7421 309.880587 
L 545.801306 310.351373 
L 545.919433 309.713646 
L 546.154543 310.820951 
L 546.213084 310.824807 
L 546.271531 309.882671 
L 546.329885 310.666007 
L 546.388146 310.041533 
L 546.446313 310.047712 
L 546.504388 310.827613 
L 546.620261 309.10196 
L 546.735767 310.681959 
L 546.793382 309.738664 
L 546.850907 310.213429 
L 547.022939 311.003191 
L 547.080103 309.726192 
L 547.137178 310.21522 
L 547.194163 310.048753 
L 547.25106 309.418432 
L 547.421218 310.51894 
L 547.477761 310.052158 
L 547.590585 311.00654 
L 547.815191 309.428471 
L 547.871127 310.682864 
L 547.926977 310.382343 
L 547.982741 310.062225 
L 548.038421 310.218221 
L 548.204951 310.864915 
L 548.260292 310.544734 
L 548.315549 309.744075 
L 548.370723 310.544051 
L 548.425814 310.06178 
L 548.480821 310.386228 
L 548.535745 310.392618 
L 548.590587 310.225479 
L 548.645346 311.023868 
L 548.700023 310.234628 
L 548.809132 309.605054 
L 548.972185 310.394598 
L 549.026375 310.39764 
L 549.080484 310.87554 
L 549.134513 310.08644 
L 549.188461 311.191596 
L 549.24233 310.561907 
L 549.34983 309.919408 
L 549.403461 310.399321 
L 549.510488 309.767823 
L 549.563883 310.712697 
L 549.617201 310.090405 
L 549.67044 309.93752 
L 549.723602 310.567723 
L 549.776687 310.405222 
L 549.829694 310.081273 
L 549.882624 310.728294 
L 549.935478 309.76181 
L 549.988255 310.884267 
L 550.09358 310.873639 
L 550.198602 310.408534 
L 550.355569 309.619626 
L 550.511863 310.886246 
L 550.66749 310.09796 
L 550.719219 311.056968 
L 550.770874 309.786184 
L 550.822456 310.729909 
L 551.079276 310.105238 
L 551.283437 311.372257 
L 551.385091 310.421231 
L 551.435811 310.900421 
L 551.486461 309.954664 
L 551.537041 310.422502 
L 551.587551 310.422538 
L 551.637991 310.902612 
L 551.788892 309.480829 
L 551.989128 310.742059 
L 552.039015 311.061778 
L 552.088835 310.425365 
L 552.138586 310.745367 
L 552.188269 310.901214 
L 552.287434 309.635308 
L 552.435676 310.590505 
L 552.484956 310.436237 
L 552.53417 309.484421 
L 552.583318 309.961579 
L 552.730364 310.916145 
L 552.779248 310.283783 
L 552.828066 310.755937 
L 552.876819 310.757318 
L 552.925507 310.123433 
L 552.97413 310.600345 
L 553.022688 310.440629 
L 553.071182 310.921865 
L 553.119611 310.439779 
L 553.216277 311.235067 
L 553.312687 310.442509 
L 553.360796 310.917612 
L 553.408842 310.135744 
L 553.456825 310.28585 
L 553.504745 310.443867 
L 553.552602 309.652982 
L 553.600396 310.605393 
L 553.695797 311.240723 
L 553.790948 310.294638 
L 553.885852 310.447707 
L 553.980509 309.969715 
L 554.027746 310.920704 
L 554.074922 310.61014 
L 554.122036 309.806942 
L 554.16909 310.606311 
L 554.263015 309.970336 
L 554.309887 310.930184 
L 554.356699 309.492786 
L 554.403451 310.769215 
L 554.450143 310.765983 
L 554.589862 310.457984 
L 554.636316 310.772915 
L 554.68271 310.472033 
L 554.729046 309.975524 
L 554.775323 310.511544 
L 554.821542 310.455306 
L 554.867701 310.130982 
L 554.913803 310.294151 
L 554.959846 310.600539 
L 555.005831 309.502682 
L 555.051758 310.613876 
L 555.097628 310.614685 
L 555.143439 311.248883 
L 555.189194 310.771392 
L 555.23489 310.926384 
L 555.371638 310.459747 
L 555.417107 310.461267 
L 555.462519 310.29843 
L 555.507875 310.783619 
L 555.553174 310.779025 
L 555.598417 310.300384 
L 555.643604 310.940347 
L 555.688735 310.939882 
L 555.73381 309.985769 
L 555.823794 310.303504 
L 555.868702 311.094816 
L 555.913555 310.623074 
L 555.958354 310.308016 
L 556.003097 311.090414 
L 556.047785 310.458314 
L 556.092419 310.464142 
L 556.136998 309.667038 
L 556.181522 310.941088 
L 556.270408 310.310267 
L 556.31477 311.102223 
L 556.359078 310.627742 
L 556.403333 310.465015 
L 556.447533 310.786509 
L 556.49168 309.831943 
L 556.535774 309.993231 
L 556.579814 310.78452 
L 556.667736 310.629657 
L 556.711617 311.106221 
L 556.755445 310.15012 
L 556.799221 310.785545 
L 556.842945 310.944437 
L 556.973801 309.519486 
L 557.017315 310.948137 
L 557.104189 310.151593 
L 557.234112 310.79307 
L 557.277317 310.156244 
L 557.320471 310.950434 
L 557.406626 310.474971 
L 557.449627 311.274155 
L 557.492578 310.477125 
L 557.535478 309.996615 
L 557.578327 310.000473 
L 557.663875 310.634415 
L 557.706574 310.157497 
L 557.749223 310.79703 
L 557.834372 310.638435 
L 557.876871 310.950954 
L 558.004074 310.003376 
L 558.08863 310.799689 
L 558.130834 310.163277 
L 558.17299 310.164578 
L 558.215097 310.656313 
L 558.299165 310.480393 
L 558.341127 310.159967 
L 558.38304 310.63099 
L 558.424905 310.637144 
L 558.466722 310.160111 
L 558.508492 311.276232 
L 558.591887 310.801415 
L 558.675091 310.164621 
L 558.716623 310.801486 
L 558.799543 310.642458 
L 558.840933 310.800341 
L 558.882276 309.846474 
L 558.923572 310.959632 
L 558.964821 311.116172 
L 559.047179 309.851735 
L 559.088289 310.481457 
L 559.129352 310.325701 
L 559.21134 310.803001 
L 559.252265 310.009885 
L 559.293145 310.485698 
L 559.374765 310.963983 
L 559.415507 310.645807 
L 559.537461 310.961858 
L 559.699433 310.32858 
L 559.78015 311.125131 
L 559.820442 310.331317 
L 559.900892 310.649889 
L 560.021235 310.009044 
L 560.061261 310.172135 
L 560.141181 311.285995 
L 560.181076 310.809885 
L 560.220927 309.859029 
L 560.260735 310.809232 
L 560.300499 310.970047 
L 560.419531 310.175634 
L 560.459123 310.812535 
L 560.538177 310.492901 
L 560.577639 310.653248 
L 560.617059 309.857112 
L 560.695772 310.336072 
L 560.735064 309.861795 
L 560.813523 310.973208 
L 560.852689 310.494941 
L 560.891813 310.812752 
L 560.930894 309.704944 
L 560.969934 310.654932 
L 561.008933 310.65429 
L 561.086804 310.497285 
L 561.16451 310.336433 
L 561.203301 310.815884 
L 561.24205 310.497247 
L 561.280759 310.813728 
L 561.319426 310.815083 
L 561.358052 309.368599 
L 561.396638 310.807767 
L 561.473686 310.815182 
L 561.512149 311.133942 
L 561.550572 310.658602 
L 561.588954 310.499646 
L 561.703859 311.135518 
L 561.74208 309.865446 
L 561.818403 310.500362 
L 561.894566 310.976524 
L 561.932588 310.499879 
L 561.97057 310.818276 
L 562.008513 310.974979 
L 562.046416 310.659658 
L 562.08428 310.025675 
L 562.122105 310.819472 
L 562.15989 310.343556 
L 562.235343 310.979254 
L 562.273012 310.183837 
L 562.348232 310.661653 
L 562.385783 310.6606 
L 562.423296 310.184748 
L 562.460771 310.507009 
L 562.498207 310.661753 
L 562.535605 309.842263 
L 562.572964 183.459733 
L 562.647568 263.069017 
L 562.684813 260.359283 
L 562.79632 306.334074 
L 562.833413 302.852965 
L 562.907486 310.386878 
L 562.981409 310.011851 
L 563.018315 310.695631 
L 563.092014 310.524507 
L 563.128807 310.089443 
L 563.165564 310.56746 
L 563.238966 311.219747 
L 563.275612 310.115922 
L 563.348793 310.739969 
L 563.494715 309.977453 
L 563.531105 311.224717 
L 563.603775 310.285205 
L 563.640056 310.292069 
L 563.71251 310.925924 
L 563.748683 310.294418 
L 563.78482 310.298624 
L 563.820921 310.45328 
L 563.893016 309.825692 
L 564.000892 311.101174 
L 564.072633 309.674098 
L 564.10845 310.779655 
L 564.144233 310.944518 
L 564.287011 310.468248 
L 564.322619 310.150197 
L 564.358192 310.788604 
L 564.39373 310.943037 
L 564.429233 310.629315 
L 564.464702 310.62754 
L 564.606233 310.791874 
L 564.676793 310.476145 
L 564.712022 311.110427 
L 564.782378 310.950456 
L 564.957675 310.157452 
L 564.992634 310.320469 
L 565.097309 310.637325 
L 565.166925 310.319322 
L 565.201684 310.79615 
L 565.271102 310.641815 
L 565.340387 310.802984 
L 565.374981 309.213369 
L 565.44407 310.802522 
L 565.513028 310.640014 
L 565.547458 310.958159 
L 565.684854 310.16897 
L 565.821735 310.960777 
L 565.958103 309.69579 
L 566.060045 311.279715 
L 566.093963 310.646847 
L 566.229318 310.327003 
L 566.263079 310.33063 
L 566.330506 310.013721 
L 566.431414 309.869873 
L 566.49853 311.431804 
L 566.632394 310.013617 
L 566.665784 310.333827 
L 566.699143 310.327787 
L 566.832273 311.12704 
L 566.931803 309.85648 
L 566.964919 311.12671 
L 567.064088 310.811292 
L 567.097084 310.650951 
L 567.130051 311.286454 
L 567.162988 310.492316 
L 567.195895 310.173174 
L 567.228772 310.177092 
L 567.359985 310.809995 
L 567.425415 310.17577 
L 567.458086 310.812517 
L 567.490728 310.970137 
L 567.523341 310.176113 
L 567.588478 310.49604 
L 567.6535 310.336285 
L 567.685967 310.975225 
L 567.750815 310.021108 
L 567.815548 310.339475 
L 567.880166 309.701623 
L 567.94467 310.973262 
L 568.009059 310.496869 
L 568.073335 310.656684 
L 568.137498 310.814841 
L 568.169538 310.339072 
L 568.265487 310.812313 
L 568.297413 309.546499 
L 568.361184 310.341644 
L 568.393027 310.340695 
L 568.520122 311.13734 
L 568.646776 310.499011 
L 568.678371 311.133407 
L 568.741479 310.974395 
L 568.772992 310.025478 
L 568.835936 310.817291 
L 568.898771 310.97743 
L 568.961499 310.025416 
L 569.024118 310.342265 
L 569.117847 310.977192 
L 569.149036 310.818954 
L 569.242444 310.183577 
L 569.273527 310.979797 
L 569.366617 310.817891 
L 569.397594 310.343429 
L 569.45947 310.820156 
L 569.490368 310.820171 
L 569.552086 310.343672 
L 569.582906 310.818056 
L 569.6137 310.978185 
L 569.644468 310.185189 
L 569.736617 310.501371 
L 569.85912 310.979835 
L 569.981213 309.869345 
L 570.102899 310.662507 
L 570.193897 310.027814 
L 570.224179 310.98122 
L 570.314875 310.661447 
L 570.345057 309.551952 
L 570.405347 310.348109 
L 570.525626 310.981245 
L 570.585618 310.188527 
L 570.615577 310.823764 
L 570.645511 310.824155 
L 570.67542 310.664691 
L 570.705305 309.713156 
L 570.735166 310.824939 
L 570.765002 310.666201 
L 570.854364 309.872253 
L 570.943508 311.14264 
L 570.973174 310.348583 
L 571.002816 310.188645 
L 571.121143 311.142665 
L 571.239088 309.713547 
L 571.268514 311.14399 
L 571.356652 310.823718 
L 571.473838 310.348976 
L 571.561481 310.985274 
L 571.590648 310.667427 
L 571.648914 310.826032 
L 571.678011 310.350751 
L 571.765165 310.98462 
L 571.79417 309.871595 
L 571.881047 310.667362 
L 571.90996 310.667048 
L 571.996562 310.986057 
L 572.025384 310.032902 
L 572.111712 310.827321 
L 572.169151 311.144243 
L 572.312353 310.510418 
L 572.369477 310.192662 
L 572.426511 311.14513 
L 572.454995 310.510982 
L 572.483456 310.034703 
L 572.511896 311.463717 
L 572.540313 309.555953 
L 572.597081 310.985076 
L 572.682067 309.398816 
L 572.738615 310.035967 
L 572.851447 310.988559 
L 572.879601 310.986971 
L 572.991999 310.034726 
L 573.159949 311.14718 
L 573.187865 310.670347 
L 573.243634 311.14616 
L 573.271486 310.352573 
L 573.299318 311.147022 
L 573.382684 310.988502 
L 573.410431 310.193705 
L 573.493544 310.354191 
L 573.521206 310.354422 
L 573.604067 310.989431 
L 573.659203 310.671881 
L 573.68674 310.671378 
L 573.714256 310.989267 
L 573.741751 309.877823 
L 573.769226 311.148443 
L 573.824113 310.354618 
L 573.878918 309.877421 
L 574.01557 311.465895 
L 574.070087 310.037883 
L 574.151711 310.197301 
L 574.260259 310.990213 
L 574.314413 310.35519 
L 574.341459 310.673579 
L 574.395492 310.514426 
L 574.422478 311.14994 
L 574.530224 309.87917 
L 574.557111 310.991606 
L 574.637653 310.832408 
L 574.691249 310.831774 
L 574.824894 309.879382 
L 574.851565 310.99153 
L 574.931459 310.831641 
L 574.984625 311.150085 
L 575.037713 310.514547 
L 575.143658 311.309396 
L 575.170096 310.514233 
L 575.249296 310.991963 
L 575.275658 311.150965 
L 575.302001 310.674446 
L 575.328325 310.675074 
L 575.380915 310.992666 
L 575.407182 309.880354 
L 575.43343 310.992854 
L 575.51206 310.674966 
L 575.616637 310.040362 
L 575.564386 310.834513 
L 575.668814 310.358069 
L 575.772943 310.834463 
L 575.850845 310.993463 
L 575.876775 310.199567 
L 575.928581 310.993156 
L 576.006151 310.675333 
L 576.031972 310.199602 
L 576.083557 311.151542 
L 576.109323 310.35807 
L 576.18651 311.152945 
L 576.212203 310.041054 
L 576.314793 310.359106 
L 576.340396 310.358271 
L 576.36598 311.152543 
L 576.417095 310.041239 
L 576.468139 310.994359 
L 576.493634 310.993389 
L 576.570013 310.041958 
L 576.595437 310.51744 
L 576.696956 310.359201 
L 576.722291 311.312469 
L 576.747609 309.407031 
L 576.823458 310.359752 
L 576.873936 310.995545 
L 576.949522 310.836044 
L 576.974683 311.153676 
L 576.999826 310.518378 
L 577.024953 310.677993 
L 577.100227 310.041896 
L 577.150323 310.201534 
L 577.200351 310.993631 
L 577.25031 309.879483 
L 577.350024 311.148565 
L 577.37491 310.517761 
L 577.399779 310.517325 
L 577.424631 311.152528 
L 577.474284 310.201094 
L 577.499085 310.677911 
L 577.548637 310.835224 
L 577.573387 310.359574 
L 577.696889 311.154188 
L 577.819974 310.518729 
L 577.893625 311.472381 
L 577.918143 310.360812 
L 578.040484 310.837452 
L 578.162415 310.043131 
L 578.186753 310.996228 
L 578.283941 310.520411 
L 578.38087 311.31339 
L 578.332437 310.20247 
L 578.429238 311.155408 
L 578.525782 309.727239 
L 578.50167 311.314186 
L 578.549878 310.520176 
L 578.573958 311.155789 
L 578.646104 310.997246 
L 578.742076 310.044246 
L 578.766029 311.155596 
L 578.861687 310.997402 
L 578.909421 311.473363 
L 578.933265 310.680553 
L 578.957093 311.156461 
L 579.076002 310.521529 
L 579.123457 310.839153 
L 579.147161 310.045354 
L 579.218182 310.680595 
L 579.289064 310.522513 
L 579.336243 310.99872 
L 579.406896 310.681108 
L 579.430417 311.157408 
L 579.500888 310.839425 
L 579.618039 309.728807 
L 579.688149 311.124499 
L 579.734814 51.331675 
L 579.8047 69.921215 
L 579.851216 65.947403 
L 579.920879 74.611322 
L 579.944071 69.977718 
L 579.967247 82.886143 
L 580.059807 124.06951 
L 580.290184 300.080226 
L 580.381929 299.924544 
L 580.541928 310.75842 
L 580.610285 310.552436 
L 580.633042 309.936976 
L 580.701228 310.788503 
L 580.723928 310.419106 
L 580.791945 310.732647 
L 580.814589 309.522096 
L 580.905024 310.398911 
L 580.927598 310.213547 
L 580.950158 310.257963 
L 580.972704 310.884486 
L 580.995236 310.104571 
L 581.017754 310.421332 
L 581.085225 310.903163 
L 581.107688 309.323227 
L 581.1974 310.747282 
L 581.219794 310.631438 
L 581.242173 309.472538 
L 581.309231 310.755069 
L 581.331556 310.591215 
L 581.353867 310.768973 
L 581.376165 309.811135 
L 581.420719 310.82075 
L 581.442976 310.450355 
L 581.465219 310.920148 
L 581.509665 310.281719 
L 581.531867 310.439394 
L 581.620543 309.658215 
L 581.576232 310.768876 
L 581.642678 310.138332 
L 581.686908 311.413047 
L 581.775208 311.256628 
L 581.951167 309.987624 
L 581.995025 310.30727 
L 582.148112 311.268027 
L 582.191733 310.628782 
L 582.257067 310.633079 
L 582.278819 310.792294 
L 582.300559 309.834735 
L 582.343998 311.266088 
L 582.365698 310.47292 
L 582.387386 311.27115 
L 582.45237 310.002028 
L 582.474006 311.112153 
L 582.495629 309.980549 
L 582.581993 310.003348 
L 582.603552 311.274195 
L 582.625099 310.001057 
L 582.689661 310.796925 
L 582.711157 310.798344 
L 582.75411 310.165406 
L 582.797012 310.959045 
L 582.818445 310.32168 
L 582.925418 311.119669 
L 582.946775 310.646841 
L 582.989451 310.962098 
L 583.074654 310.16876 
L 583.159659 311.281335 
L 583.202087 310.964321 
L 583.265636 309.693118 
L 583.244465 311.283118 
L 583.329075 310.170552 
L 583.413489 311.285555 
L 583.434562 310.174131 
L 583.602708 310.967788 
L 583.665564 310.333919 
L 583.686492 310.971968 
L 583.707407 310.337633 
L 583.770083 310.972001 
L 583.790951 309.858839 
L 583.874303 310.179187 
L 583.936692 310.653836 
L 583.957465 310.018381 
L 583.978226 310.498255 
L 583.998975 310.17867 
L 584.040437 310.972807 
L 584.061151 310.654199 
L 584.081853 310.658477 
L 584.102543 310.179781 
L 584.123221 310.816186 
L 584.164543 310.815411 
L 584.185186 310.973565 
L 584.226438 310.50126 
L 584.247046 310.657921 
L 584.288228 310.026122 
L 584.308801 310.498963 
L 584.390979 311.13499 
L 584.411494 310.341213 
L 584.534345 310.980031 
L 584.55478 310.65978 
L 584.575204 310.343089 
L 584.595616 311.136226 
L 584.636406 310.500699 
L 584.697505 310.980065 
L 584.67715 310.340547 
L 584.717849 310.343357 
L 584.738181 310.343815 
L 584.778812 310.977105 
L 584.839673 310.342681 
L 584.859938 310.502886 
L 584.859938 310.502886 
" clip-path="url(#p20e94630a1)" style="fill: none; stroke: #ffa500; stroke-width: 1.5; stroke-linecap: square"/>
   </g>
   <g id="line2d_18">
    <path d="M 227.739937 168.692543 
L 315.154475 181.011519 
L 338.72339 184.733367 
L 363.109188 189.645884 
L 371.064134 191.523838 
L 377.590103 192.464655 
L 383.123138 194.15759 
L 387.925868 194.806242 
L 392.168791 196.797543 
L 395.968894 197.663519 
L 399.409934 197.265043 
L 402.553946 197.459516 
L 405.448158 198.767321 
L 408.12936 199.770867 
L 410.626769 200.464771 
L 412.963973 200.52853 
L 415.160294 202.163898 
L 417.231754 201.421889 
L 419.191789 200.124023 
L 421.051778 202.027342 
L 422.82144 203.377776 
L 424.509143 203.12525 
L 426.122143 203.658741 
L 427.666775 203.885434 
L 429.1486 204.739887 
L 430.572525 204.692957 
L 431.942906 205.162978 
L 433.263625 204.596968 
L 434.538155 205.122427 
L 435.769618 205.18456 
L 436.96083 205.531474 
L 438.114339 205.243218 
L 439.232459 205.516705 
L 440.317296 205.659947 
L 442.394658 205.101271 
L 443.390562 205.989477 
L 444.359976 204.036111 
L 445.304273 205.533688 
L 447.122497 205.987288 
L 447.998689 205.368446 
L 448.854311 205.738007 
L 449.690307 205.191681 
L 450.507557 206.304596 
L 451.306883 206.061498 
L 452.089055 204.993758 
L 452.854794 203.378738 
L 453.604776 205.622182 
L 454.339636 206.389955 
L 455.059972 204.844162 
L 455.766347 205.897806 
L 457.139308 205.670432 
L 457.806869 205.957861 
L 458.462423 201.777695 
L 459.106394 204.78714 
L 460.361176 205.762153 
L 460.972731 203.730557 
L 461.574194 204.066799 
L 462.165892 205.55769 
L 463.321228 204.59351 
L 463.885447 202.508818 
L 464.441065 205.62535 
L 464.98834 206.212108 
L 466.058837 205.110009 
L 466.582521 205.457868 
L 467.098788 204.921226 
L 467.607844 204.626191 
L 468.109887 205.522275 
L 468.60511 205.780405 
L 469.093694 205.059639 
L 469.575814 205.369971 
L 470.051641 204.666707 
L 470.521336 204.276288 
L 470.985055 205.714789 
L 471.442948 205.711902 
L 471.89516 205.132018 
L 472.341829 205.000947 
L 472.783091 205.086732 
L 473.219075 205.353243 
L 473.649905 204.893426 
L 474.075702 198.527 
L 474.496582 203.025496 
L 474.912658 203.231263 
L 475.324037 203.808405 
L 475.730824 204.922478 
L 476.133122 203.82377 
L 476.531028 205.098928 
L 476.924636 204.485666 
L 477.31404 203.609358 
L 477.699327 204.896943 
L 478.080583 204.365071 
L 478.457893 204.996211 
L 479.200993 203.491437 
L 479.929245 202.762452 
L 480.643231 204.210893 
L 480.995046 202.829167 
L 482.030565 204.202111 
L 482.369301 203.507969 
L 482.704919 204.438906 
L 483.037474 203.729041 
L 483.367022 202.662298 
L 483.693618 203.487647 
L 484.017313 203.851587 
L 484.338158 203.757293 
L 484.656204 203.4785 
L 484.971498 203.470758 
L 485.59402 203.135785 
L 485.901339 203.543818 
L 486.206088 202.931833 
L 486.508311 203.53755 
L 486.808048 202.426968 
L 487.10534 202.903258 
L 487.400226 201.831796 
L 487.692746 201.979569 
L 487.982937 203.473705 
L 488.270836 202.416833 
L 488.556479 202.895294 
L 488.8399 202.851005 
L 489.121134 202.507583 
L 489.400215 203.066089 
L 489.677175 202.082635 
L 489.952047 202.907235 
L 490.224861 202.402336 
L 490.495648 202.986155 
L 490.764439 202.973116 
L 491.031261 202.42495 
L 491.296145 201.561835 
L 491.559117 202.869879 
L 491.820205 201.47082 
L 492.079437 202.005376 
L 492.336838 201.384482 
L 492.592433 202.605616 
L 492.846249 202.074093 
L 493.348639 202.273659 
L 493.59726 201.032875 
L 493.844198 202.399526 
L 494.089473 192.727981 
L 494.333109 189.939897 
L 494.815549 201.585538 
L 495.054395 200.401028 
L 495.291686 201.624377 
L 495.527442 201.423013 
L 495.761683 201.714633 
L 495.994429 201.173358 
L 496.225697 201.138684 
L 496.455508 201.399012 
L 496.910826 200.353434 
L 497.13637 201.64802 
L 497.360527 200.907306 
L 497.583314 200.965044 
L 497.804747 201.430449 
L 498.243618 200.447515 
L 498.461088 200.689249 
L 498.677267 201.23159 
L 498.892172 200.763392 
L 499.105818 200.886882 
L 499.318218 200.831725 
L 499.529388 200.949696 
L 499.739341 200.380144 
L 499.948092 200.696259 
L 500.567265 200.238333 
L 500.97428 200.209664 
L 501.176096 199.957223 
L 501.3768 200.338128 
L 501.576405 200.195951 
L 501.774923 200.351935 
L 501.972365 200.028648 
L 502.168744 200.063415 
L 502.36407 199.399237 
L 502.558355 200.061558 
L 503.325302 199.452835 
L 503.514543 199.502882 
L 503.890103 198.532886 
L 504.076442 198.34911 
L 504.446286 199.786658 
L 504.62981 199.330162 
L 504.812414 199.699629 
L 504.994109 199.567519 
L 505.174902 198.92741 
L 505.354802 198.938925 
L 505.533819 199.364989 
L 505.711961 199.084143 
L 505.889237 199.27854 
L 506.241222 198.516524 
L 506.415948 198.512001 
L 506.589841 197.5383 
L 506.762907 198.869229 
L 506.935156 198.199659 
L 507.106595 198.347134 
L 507.277231 198.940254 
L 507.616125 198.373095 
L 507.784398 198.768752 
L 507.951897 198.777158 
L 508.11863 198.55411 
L 508.284604 198.916619 
L 508.778038 198.555413 
L 508.941043 198.602922 
L 509.103322 197.995903 
L 509.425728 198.813092 
L 509.585868 198.165471 
L 509.904052 198.397547 
L 510.062109 198.265429 
L 510.219483 197.882752 
L 510.532207 198.412044 
L 510.687569 198.095 
L 510.842271 198.207997 
L 510.99632 197.294615 
L 511.14972 197.383338 
L 511.454596 197.828404 
L 511.606084 197.595169 
L 511.756944 197.874763 
L 512.056804 197.48178 
L 512.205814 197.937977 
L 512.502019 197.014169 
L 512.795836 197.873723 
L 513.232167 197.367947 
L 513.376458 196.921664 
L 513.663337 197.571508 
L 513.805934 196.913028 
L 514.230408 197.487026 
L 514.51067 196.695286 
L 514.788792 196.926408 
L 514.927062 196.746977 
L 515.064809 197.199793 
L 515.202037 196.77912 
L 515.33875 197.278704 
L 515.474953 196.9133 
L 515.610649 196.876804 
L 515.745841 196.975799 
L 515.880534 196.532173 
L 516.01473 196.956934 
L 516.148435 196.213349 
L 516.28165 196.533851 
L 516.54663 196.591793 
L 516.809697 195.955679 
L 516.940522 196.475926 
L 517.070879 196.51858 
L 517.200772 195.756752 
L 517.330203 196.581454 
L 517.587694 196.054572 
L 517.84338 196.478285 
L 517.970553 195.859912 
L 518.097284 196.127845 
L 518.223576 195.70989 
L 518.349431 196.167041 
L 518.599847 195.613254 
L 518.724412 195.822198 
L 518.848553 195.258649 
L 519.218459 195.918467 
L 519.462994 196.12104 
L 519.584649 195.804788 
L 519.7059 195.871546 
L 519.826748 195.779935 
L 519.947197 195.98916 
L 520.067249 195.611993 
L 520.186907 195.762058 
L 520.425051 195.752893 
L 520.543541 195.370395 
L 520.661648 195.513927 
L 520.779374 195.358888 
L 521.24651 195.421243 
L 521.362364 195.077395 
L 521.592974 195.550883 
L 521.822135 194.254967 
L 522.049863 195.227425 
L 522.501095 195.033259 
L 522.613035 195.280709 
L 522.83589 195.226063 
L 523.05739 194.852891 
L 523.167638 194.827271 
L 523.496393 195.220339 
L 523.605323 194.767361 
L 523.82221 195.135764 
L 523.930172 194.978119 
L 524.252151 194.520695 
L 524.358848 194.684361 
L 524.465234 194.991287 
L 524.57131 193.487646 
L 524.782541 194.212884 
L 525.201365 194.787487 
L 525.408987 194.316163 
L 525.512355 194.566739 
L 525.615432 194.428096 
L 525.718217 194.844953 
L 525.922923 194.005269 
L 526.126486 194.530532 
L 526.328918 194.347157 
L 526.530232 194.350147 
L 526.73044 194.162794 
L 526.830133 194.252744 
L 527.127587 193.829449 
L 527.520453 194.112364 
L 527.909129 193.838639 
L 528.293704 193.739797 
L 528.579496 193.356966 
L 528.768787 193.805286 
L 529.144443 193.552938 
L 529.237756 193.128689 
L 529.33083 193.569615 
L 529.423667 193.546695 
L 529.516268 193.536926 
L 529.608634 193.059563 
L 529.700767 193.249403 
L 529.792668 192.747068 
L 529.975777 193.538612 
L 530.066988 192.377269 
L 530.157971 193.125759 
L 530.248727 193.0404 
L 530.429565 193.014073 
L 530.519649 192.966079 
L 530.60951 193.073957 
L 530.699151 192.951191 
L 530.788571 193.199569 
L 530.877773 192.944615 
L 530.966757 193.104457 
L 531.232412 192.949726 
L 531.320536 192.918612 
L 531.408446 193.028893 
L 531.496146 192.709805 
L 531.583634 193.121415 
L 531.670914 192.044732 
L 531.844848 192.980302 
L 531.931504 192.294695 
L 532.017955 192.705632 
L 532.104202 191.82613 
L 532.190245 106.338332 
L 532.447162 182.284361 
L 532.5324 173.458411 
L 532.70228 190.155791 
L 532.871373 189.986461 
L 532.955626 190.449233 
L 533.039684 189.6339 
L 533.207222 190.616988 
L 533.373993 191.46013 
L 533.457094 191.616096 
L 533.622728 191.590596 
L 533.951756 191.453946 
L 534.277839 191.597222 
L 534.520502 191.576636 
L 534.601032 191.650404 
L 534.76156 191.452098 
L 534.841559 191.517765 
L 534.921384 191.347302 
L 535.001034 191.464661 
L 535.08051 191.395978 
L 535.317904 191.525278 
L 535.396693 191.363366 
L 535.475312 191.447226 
L 535.632043 191.390187 
L 535.788103 191.527441 
L 536.020948 191.309776 
L 536.252314 191.522101 
L 536.329111 191.336758 
L 536.405746 191.407212 
L 536.786525 191.416913 
L 536.937729 191.285127 
L 537.088309 191.378927 
L 537.238269 191.333982 
L 537.536351 191.159209 
L 537.684483 191.316768 
L 537.832015 191.287018 
L 537.978953 191.211658 
L 538.0522 191.379983 
L 538.271063 191.097093 
L 538.343726 191.207246 
L 538.416244 191.143299 
L 538.488619 191.174651 
L 538.56085 190.987979 
L 538.704884 191.263204 
L 538.991256 190.906564 
L 539.062498 191.114783 
L 539.133602 191.076447 
L 539.275395 191.083764 
L 539.346085 191.041987 
L 539.416638 191.158911 
L 539.487055 191.085493 
L 539.627482 191.066721 
L 539.697493 191.16874 
L 539.906723 190.946109 
L 540.114759 191.04145 
L 540.458869 190.825386 
L 540.527302 190.633341 
L 540.731836 190.856006 
L 540.867557 190.884751 
L 540.935228 190.33914 
L 541.002774 190.646296 
L 541.271713 190.874965 
L 541.338639 190.519364 
L 541.405442 190.814501 
L 541.472123 190.744899 
L 541.869667 190.691173 
L 541.935505 190.724347 
L 542.066824 190.557776 
L 542.262921 190.600201 
L 542.457969 190.456584 
L 542.909061 190.56775 
L 543.036926 190.324874 
L 543.227885 190.460408 
L 543.291317 190.563364 
L 543.41785 190.325828 
L 543.60683 190.443195 
L 543.732274 190.229567 
L 543.794834 190.331901 
L 543.919634 190.366327 
L 544.044008 190.184093 
L 544.106037 190.299016 
L 544.229777 190.384963 
L 544.414604 190.276096 
L 544.537304 190.271096 
L 544.598499 190.178975 
L 544.720581 190.361251 
L 544.902942 190.260212 
L 545.384824 190.186853 
L 545.563899 190.166608 
L 545.7421 190.128119 
L 545.860417 190.128153 
L 545.919433 189.950016 
L 545.978352 190.153883 
L 546.037177 190.132769 
L 546.213084 189.994067 
L 546.271531 189.942989 
L 546.446313 190.038577 
L 546.56237 189.905624 
L 546.620261 190.06872 
L 546.678059 190.016952 
L 547.080103 189.996809 
L 547.364586 189.653873 
L 547.477761 189.868549 
L 547.534217 189.786043 
L 547.646866 189.911603 
L 547.703061 189.798205 
L 547.759169 189.84746 
L 547.982741 189.799168 
L 548.315549 189.773752 
L 548.370723 189.624889 
L 548.425814 189.678462 
L 548.480821 189.844377 
L 548.535745 189.774902 
L 548.645346 189.594091 
L 548.700023 189.797745 
L 548.754619 189.614958 
L 548.917915 189.726474 
L 548.972185 189.492549 
L 549.026375 189.631464 
L 549.134513 189.461223 
L 549.24233 189.648107 
L 549.29612 189.517096 
L 549.34983 189.633244 
L 549.563883 189.60231 
L 550.198602 189.395649 
L 550.250999 189.537068 
L 550.303322 189.407726 
L 550.355569 189.439853 
L 550.407742 189.164314 
L 550.45984 189.317334 
L 550.822456 189.285249 
L 550.873965 189.181748 
L 550.925401 189.304234 
L 550.976765 189.371213 
L 551.028057 189.285215 
L 551.079276 189.190215 
L 551.130424 189.243694 
L 551.1815 189.321984 
L 551.232504 189.22114 
L 551.334299 189.22953 
L 551.385091 189.092471 
L 551.435811 189.221737 
L 551.537041 189.329394 
L 551.637991 188.99753 
L 551.688361 189.022315 
L 551.738661 189.129751 
L 551.788892 189.094481 
L 551.889148 188.981799 
L 551.939172 189.03125 
L 551.989128 189.124513 
L 552.039015 188.950737 
L 552.088835 188.969849 
L 552.188269 189.091432 
L 552.237885 189.051742 
L 552.287434 188.972635 
L 552.336915 189.046879 
L 552.386329 189.095904 
L 552.435676 188.934299 
L 552.484956 189.017231 
L 553.167976 188.904429 
L 553.790948 188.700272 
L 553.838431 188.652303 
L 553.885852 188.72062 
L 554.027746 188.789651 
L 554.16909 188.388696 
L 554.263015 188.672089 
L 554.309887 188.572114 
L 554.356699 188.481448 
L 554.403451 188.553112 
L 554.496776 188.712809 
L 554.543348 188.484676 
L 554.589862 188.599045 
L 554.636316 188.637049 
L 554.68271 188.504641 
L 554.729046 188.600783 
L 554.913803 188.601226 
L 554.959846 188.369754 
L 555.005831 188.514359 
L 555.051758 188.621956 
L 555.097628 188.526002 
L 555.143439 188.550012 
L 555.189194 188.386022 
L 555.23489 188.613507 
L 555.462519 188.422501 
L 555.688735 188.305262 
L 555.73381 188.484404 
L 555.77883 188.40734 
L 555.868702 188.434059 
L 555.958354 188.149934 
L 556.092419 188.251919 
L 556.136998 188.048273 
L 556.181522 188.095807 
L 556.225992 188.320354 
L 556.31477 188.244892 
L 556.447533 188.287887 
L 556.535774 188.337866 
L 556.579814 188.104674 
L 556.623801 188.142371 
L 556.667736 188.061713 
L 556.711617 188.04513 
L 556.755445 188.176763 
L 556.799221 188.132465 
L 556.973801 188.005806 
L 557.104189 188.006803 
L 557.277317 187.898864 
L 557.320471 187.816793 
L 557.363574 187.938733 
L 557.449627 187.972947 
L 557.578327 187.783039 
L 557.535478 188.030889 
L 557.621126 187.843988 
L 557.663875 188.01503 
L 557.749223 187.901965 
L 557.791822 187.84754 
L 557.919322 187.994955 
L 558.046377 187.775161 
L 558.257155 187.784419 
L 558.299165 187.760298 
L 558.424905 187.529704 
L 558.591887 187.733904 
L 558.716623 187.520667 
L 558.758106 187.679036 
L 558.840933 187.605626 
L 558.882276 187.607909 
L 559.006023 187.264445 
L 559.088289 187.507892 
L 559.129352 187.488983 
L 559.21134 187.394196 
L 559.252265 187.443604 
L 559.618537 187.365382 
L 559.820442 187.345196 
L 559.860689 187.401802 
L 559.900892 187.353202 
L 559.94105 187.165305 
L 560.021235 187.200924 
L 560.101243 187.13035 
L 560.181076 187.42605 
L 560.260735 187.090439 
L 560.340219 187.166906 
L 560.379897 187.220973 
L 560.459123 187.158006 
L 560.498671 187.116834 
L 560.538177 187.217907 
L 560.577639 187.228579 
L 560.617059 187.06757 
L 560.695772 187.134123 
L 561.086804 186.931074 
L 561.125678 187.033314 
L 561.16451 186.981589 
L 561.358052 186.515069 
L 561.435182 186.669502 
L 561.473686 186.82374 
L 561.550572 186.673736 
L 561.627296 186.845587 
L 561.703859 186.731985 
L 561.818403 186.749896 
L 562.423296 186.591442 
L 562.460771 186.652085 
L 562.498207 186.490224 
L 562.535605 185.616531 
L 562.572964 138.129373 
L 562.647568 166.191676 
L 562.684813 162.68757 
L 562.79632 182.983554 
L 562.833413 180.131387 
L 563.128807 184.990893 
L 563.165564 185.011471 
L 563.202283 184.869489 
L 563.238966 185.040463 
L 563.275612 184.940216 
L 563.494715 184.961177 
L 563.531105 184.822721 
L 563.567458 185.044194 
L 563.603775 184.940735 
L 563.748683 184.969915 
L 563.820921 184.912807 
L 563.856986 185.056671 
L 563.893016 184.85334 
L 563.92901 185.089871 
L 563.964969 184.944917 
L 564.000892 185.073586 
L 564.072633 185.016717 
L 566.431414 184.903805 
L 566.49853 184.53645 
L 566.532043 184.771601 
L 566.632394 185.003447 
L 566.665784 184.957667 
L 566.799036 185.044926 
L 566.86548 184.886822 
L 566.931803 184.94295 
L 566.964919 185.032269 
L 567.031062 184.977121 
L 568.265487 185.040386 
L 568.297413 184.922483 
L 568.361184 184.983023 
L 568.45663 184.993227 
L 568.583504 184.980638 
L 568.867367 184.937856 
L 569.055388 184.96552 
L 569.149036 184.992605 
L 569.242444 184.930131 
L 569.366617 185.004146 
L 569.52124 184.945539 
L 569.828533 184.984565 
L 569.85912 184.897153 
L 569.950728 184.949798 
L 570.465536 184.962607 
L 570.705305 184.970256 
L 570.854364 184.945215 
L 575.354629 184.705184 
L 575.380915 184.604341 
L 575.459659 184.680288 
L 575.564386 184.585509 
L 575.616637 184.642974 
L 575.798929 184.697655 
L 575.850845 184.744559 
L 575.928581 184.60595 
L 576.057774 184.668935 
L 576.289172 184.607841 
L 576.595437 184.550359 
L 576.620843 184.497663 
L 576.671602 184.558297 
L 576.696956 184.643196 
L 576.77291 184.520744 
L 576.848706 184.551023 
L 576.899149 184.5125 
L 577.050061 184.490142 
L 577.150323 184.493021 
L 577.175346 184.23156 
L 577.225339 184.514109 
L 577.275264 184.311784 
L 577.300201 184.166055 
L 577.325121 184.321042 
L 577.37491 184.307942 
L 577.399779 184.428469 
L 577.449466 184.161702 
L 577.474284 184.139915 
L 577.499085 184.261081 
L 577.647538 184.378746 
L 577.746173 184.256482 
L 577.77079 184.284018 
L 578.308197 184.30336 
L 578.332437 184.214901 
L 578.429238 184.248569 
L 578.477542 184.260902 
L 578.50167 184.151354 
L 578.573958 184.336177 
L 578.742076 184.142011 
L 578.766029 184.179035 
L 578.789967 184.252956 
L 578.861687 184.228971 
L 578.909421 184.309203 
L 578.980906 184.164598 
L 579.123457 184.259957 
L 579.147161 184.233843 
L 579.312661 184.128852 
L 579.336243 184.23254 
L 579.430417 184.158398 
L 579.571224 184.035529 
L 579.641424 184.14253 
L 579.664794 184.039932 
L 579.688149 183.037025 
L 579.711489 51.247286 
L 579.8047 61.736762 
L 580.036689 91.820415 
L 580.267212 178.483815 
L 580.290184 178.785357 
L 580.336085 172.850114 
L 580.404829 173.372234 
L 580.541928 182.187376 
L 580.610285 182.246366 
L 580.701228 181.328376 
L 580.791945 182.145191 
L 580.837219 182.001812 
L 580.859835 181.987009 
L 580.927598 181.900466 
L 580.950158 182.108933 
L 580.972704 181.800747 
L 581.062749 181.888295 
L 581.085225 181.886294 
L 581.1974 182.431079 
L 581.219794 181.591846 
L 581.309231 181.963383 
L 581.376165 181.916726 
L 581.420719 182.073042 
L 581.509665 181.907851 
L 581.531867 181.960683 
L 581.554057 182.026853 
L 581.598394 181.816317 
L 581.620543 181.914222 
L 581.6648 181.826171 
L 581.686908 182.021998 
L 581.709003 181.874889 
L 581.775208 181.861492 
L 581.841292 182.016258 
L 581.951167 181.900688 
L 582.082582 182.00688 
L 582.235302 181.897766 
L 582.257067 182.026521 
L 582.343998 181.971159 
L 582.387386 182.033309 
L 582.474006 181.990876 
L 582.495629 182.063383 
L 582.517239 181.782563 
L 582.538837 181.768569 
L 582.668153 181.982257 
L 582.73264 181.941851 
L 582.775567 181.989122 
L 582.839864 182.071151 
L 582.882666 182.028769 
L 583.117181 181.871644 
L 583.138426 182.058631 
L 583.223282 182.002162 
L 583.413489 181.945122 
L 583.560745 182.019204 
L 583.686492 181.933879 
L 583.770083 181.988883 
L 583.790951 181.96794 
L 583.915907 181.955394 
L 583.936692 182.024298 
L 584.040437 181.986652 
L 584.288228 181.977717 
L 584.329363 182.053197 
L 584.411494 182.012535 
L 584.534345 181.997664 
L 584.819397 182.039688 
L 584.839673 181.985315 
L 584.859938 182.008166 
" clip-path="url(#p20e94630a1)" style="fill: none; stroke: #008000; stroke-width: 1.5; stroke-linecap: square"/>
   </g>
   <g id="patch_3">
    <path d="M 227.739937 311.6435 
L 227.739937 45.5315 
" style="fill: none; stroke: #000000; stroke-width: 0.8; stroke-linejoin: miter; stroke-linecap: square"/>
   </g>
   <g id="patch_4">
    <path d="M 584.859938 311.6435 
L 584.859938 45.5315 
" style="fill: none; stroke: #000000; stroke-width: 0.8; stroke-linejoin: miter; stroke-linecap: square"/>
   </g>
   <g id="patch_5">
    <path d="M 227.739937 311.6435 
L 584.859938 311.6435 
" style="fill: none; stroke: #000000; stroke-width: 0.8; stroke-linejoin: miter; stroke-linecap: square"/>
   </g>
   <g id="patch_6">
    <path d="M 227.739937 45.5315 
L 584.859938 45.5315 
" style="fill: none; stroke: #000000; stroke-width: 0.8; stroke-linejoin: miter; stroke-linecap: square"/>
   </g>
   <g id="text_11">
    <!-- Loss of the 09_07_25_CINIC10_torch_model_(1024+8192.1+1)_elk-horse -->
    <g transform="translate(7.2 25.5315) scale(0.264 -0.264)">
     <defs>
      <path id="TimesNewRomanPSMT-20" transform="scale(0.015625)"/>
      <path id="TimesNewRomanPSMT-66" d="M 1319 2638 
L 1319 756 
Q 1319 356 1406 250 
Q 1522 113 1716 113 
L 1975 113 
L 1975 0 
L 266 0 
L 266 113 
L 394 113 
Q 519 113 622 175 
Q 725 238 764 344 
Q 803 450 803 756 
L 803 2638 
L 247 2638 
L 247 2863 
L 803 2863 
L 803 3050 
Q 803 3478 940 3775 
Q 1078 4072 1361 4255 
Q 1644 4438 1997 4438 
Q 2325 4438 2600 4225 
Q 2781 4084 2781 3909 
Q 2781 3816 2700 3733 
Q 2619 3650 2525 3650 
Q 2453 3650 2373 3701 
Q 2294 3753 2178 3923 
Q 2063 4094 1966 4153 
Q 1869 4213 1750 4213 
Q 1606 4213 1506 4136 
Q 1406 4059 1362 3898 
Q 1319 3738 1319 3069 
L 1319 2863 
L 2056 2863 
L 2056 2638 
L 1319 2638 
z
" transform="scale(0.015625)"/>
      <path id="TimesNewRomanPSMT-74" d="M 1031 3803 
L 1031 2863 
L 1700 2863 
L 1700 2644 
L 1031 2644 
L 1031 788 
Q 1031 509 1111 412 
Q 1191 316 1316 316 
Q 1419 316 1516 380 
Q 1613 444 1666 569 
L 1788 569 
Q 1678 263 1478 108 
Q 1278 -47 1066 -47 
Q 922 -47 784 33 
Q 647 113 581 261 
Q 516 409 516 719 
L 516 2644 
L 63 2644 
L 63 2747 
Q 234 2816 414 2980 
Q 594 3144 734 3369 
Q 806 3488 934 3803 
L 1031 3803 
z
" transform="scale(0.015625)"/>
      <path id="TimesNewRomanPSMT-68" d="M 1041 4444 
L 1041 2350 
Q 1388 2731 1591 2839 
Q 1794 2947 1997 2947 
Q 2241 2947 2416 2812 
Q 2591 2678 2675 2391 
Q 2734 2191 2734 1659 
L 2734 647 
Q 2734 375 2778 275 
Q 2809 200 2884 156 
Q 2959 113 3159 113 
L 3159 0 
L 1753 0 
L 1753 113 
L 1819 113 
Q 2019 113 2097 173 
Q 2175 234 2206 353 
Q 2216 403 2216 647 
L 2216 1659 
Q 2216 2128 2167 2275 
Q 2119 2422 2012 2495 
Q 1906 2569 1756 2569 
Q 1603 2569 1437 2487 
Q 1272 2406 1041 2159 
L 1041 647 
Q 1041 353 1073 281 
Q 1106 209 1195 161 
Q 1284 113 1503 113 
L 1503 0 
L 84 0 
L 84 113 
Q 275 113 384 172 
Q 447 203 484 290 
Q 522 378 522 647 
L 522 3238 
Q 522 3728 498 3840 
Q 475 3953 426 3993 
Q 378 4034 297 4034 
Q 231 4034 84 3984 
L 41 4094 
L 897 4444 
L 1041 4444 
z
" transform="scale(0.015625)"/>
      <path id="TimesNewRomanPSMT-65" d="M 681 1784 
Q 678 1147 991 784 
Q 1303 422 1725 422 
Q 2006 422 2214 576 
Q 2422 731 2563 1106 
L 2659 1044 
Q 2594 616 2278 264 
Q 1963 -88 1488 -88 
Q 972 -88 605 314 
Q 238 716 238 1394 
Q 238 2128 614 2539 
Q 991 2950 1559 2950 
Q 2041 2950 2350 2633 
Q 2659 2316 2659 1784 
L 681 1784 
z
M 681 1966 
L 2006 1966 
Q 1991 2241 1941 2353 
Q 1863 2528 1708 2628 
Q 1553 2728 1384 2728 
Q 1125 2728 920 2526 
Q 716 2325 681 1966 
z
" transform="scale(0.015625)"/>
      <path id="TimesNewRomanPSMT-39" d="M 338 -88 
L 338 28 
Q 744 34 1094 217 
Q 1444 400 1770 856 
Q 2097 1313 2225 1859 
Q 1734 1544 1338 1544 
Q 891 1544 572 1889 
Q 253 2234 253 2806 
Q 253 3363 572 3797 
Q 956 4325 1575 4325 
Q 2097 4325 2469 3894 
Q 2925 3359 2925 2575 
Q 2925 1869 2578 1258 
Q 2231 647 1613 244 
Q 1109 -88 516 -88 
L 338 -88 
z
M 2275 2091 
Q 2331 2497 2331 2741 
Q 2331 3044 2228 3395 
Q 2125 3747 1936 3934 
Q 1747 4122 1506 4122 
Q 1228 4122 1018 3872 
Q 809 3622 809 3128 
Q 809 2469 1088 2097 
Q 1291 1828 1588 1828 
Q 1731 1828 1928 1897 
Q 2125 1966 2275 2091 
z
" transform="scale(0.015625)"/>
      <path id="TimesNewRomanPSMT-5f" d="M 3256 -1381 
L -53 -1381 
L -53 -1119 
L 3256 -1119 
L 3256 -1381 
z
" transform="scale(0.015625)"/>
      <path id="TimesNewRomanPSMT-37" d="M 644 4238 
L 2916 4238 
L 2916 4119 
L 1503 -88 
L 1153 -88 
L 2419 3728 
L 1253 3728 
Q 900 3728 750 3644 
Q 488 3500 328 3200 
L 238 3234 
L 644 4238 
z
" transform="scale(0.015625)"/>
      <path id="TimesNewRomanPSMT-43" d="M 3853 4334 
L 3950 2894 
L 3853 2894 
Q 3659 3541 3300 3825 
Q 2941 4109 2438 4109 
Q 2016 4109 1675 3895 
Q 1334 3681 1139 3212 
Q 944 2744 944 2047 
Q 944 1472 1128 1050 
Q 1313 628 1683 403 
Q 2053 178 2528 178 
Q 2941 178 3256 354 
Q 3572 531 3950 1056 
L 4047 994 
Q 3728 428 3303 165 
Q 2878 -97 2294 -97 
Q 1241 -97 663 684 
Q 231 1266 231 2053 
Q 231 2688 515 3219 
Q 800 3750 1298 4042 
Q 1797 4334 2388 4334 
Q 2847 4334 3294 4109 
Q 3425 4041 3481 4041 
Q 3566 4041 3628 4100 
Q 3709 4184 3744 4334 
L 3853 4334 
z
" transform="scale(0.015625)"/>
      <path id="TimesNewRomanPSMT-49" d="M 1975 116 
L 1975 0 
L 159 0 
L 159 116 
L 309 116 
Q 572 116 691 269 
Q 766 369 766 750 
L 766 3488 
Q 766 3809 725 3913 
Q 694 3991 597 4047 
Q 459 4122 309 4122 
L 159 4122 
L 159 4238 
L 1975 4238 
L 1975 4122 
L 1822 4122 
Q 1563 4122 1444 3969 
Q 1366 3869 1366 3488 
L 1366 750 
Q 1366 428 1406 325 
Q 1438 247 1538 191 
Q 1672 116 1822 116 
L 1975 116 
z
" transform="scale(0.015625)"/>
      <path id="TimesNewRomanPSMT-4e" d="M -84 4238 
L 1066 4238 
L 3656 1059 
L 3656 3503 
Q 3656 3894 3569 3991 
Q 3453 4122 3203 4122 
L 3056 4122 
L 3056 4238 
L 4531 4238 
L 4531 4122 
L 4381 4122 
Q 4113 4122 4000 3959 
Q 3931 3859 3931 3503 
L 3931 -69 
L 3819 -69 
L 1025 3344 
L 1025 734 
Q 1025 344 1109 247 
Q 1228 116 1475 116 
L 1625 116 
L 1625 0 
L 150 0 
L 150 116 
L 297 116 
Q 569 116 681 278 
Q 750 378 750 734 
L 750 3681 
Q 566 3897 470 3965 
Q 375 4034 191 4094 
Q 100 4122 -84 4122 
L -84 4238 
z
" transform="scale(0.015625)"/>
      <path id="TimesNewRomanPSMT-72" d="M 1038 2947 
L 1038 2303 
Q 1397 2947 1775 2947 
Q 1947 2947 2059 2842 
Q 2172 2738 2172 2600 
Q 2172 2478 2090 2393 
Q 2009 2309 1897 2309 
Q 1788 2309 1652 2417 
Q 1516 2525 1450 2525 
Q 1394 2525 1328 2463 
Q 1188 2334 1038 2041 
L 1038 669 
Q 1038 431 1097 309 
Q 1138 225 1241 169 
Q 1344 113 1538 113 
L 1538 0 
L 72 0 
L 72 113 
Q 291 113 397 181 
Q 475 231 506 341 
Q 522 394 522 644 
L 522 1753 
Q 522 2253 501 2348 
Q 481 2444 426 2487 
Q 372 2531 291 2531 
Q 194 2531 72 2484 
L 41 2597 
L 906 2947 
L 1038 2947 
z
" transform="scale(0.015625)"/>
      <path id="TimesNewRomanPSMT-63" d="M 2631 1088 
Q 2516 522 2178 217 
Q 1841 -88 1431 -88 
Q 944 -88 581 321 
Q 219 731 219 1428 
Q 219 2103 620 2525 
Q 1022 2947 1584 2947 
Q 2006 2947 2278 2723 
Q 2550 2500 2550 2259 
Q 2550 2141 2473 2067 
Q 2397 1994 2259 1994 
Q 2075 1994 1981 2113 
Q 1928 2178 1911 2362 
Q 1894 2547 1784 2644 
Q 1675 2738 1481 2738 
Q 1169 2738 978 2506 
Q 725 2200 725 1697 
Q 725 1184 976 792 
Q 1228 400 1656 400 
Q 1963 400 2206 609 
Q 2378 753 2541 1131 
L 2631 1088 
z
" transform="scale(0.015625)"/>
      <path id="TimesNewRomanPSMT-6d" d="M 1050 2338 
Q 1363 2650 1419 2697 
Q 1559 2816 1721 2881 
Q 1884 2947 2044 2947 
Q 2313 2947 2506 2790 
Q 2700 2634 2766 2338 
Q 3088 2713 3309 2830 
Q 3531 2947 3766 2947 
Q 3994 2947 4170 2830 
Q 4347 2713 4450 2447 
Q 4519 2266 4519 1878 
L 4519 647 
Q 4519 378 4559 278 
Q 4591 209 4675 161 
Q 4759 113 4950 113 
L 4950 0 
L 3538 0 
L 3538 113 
L 3597 113 
Q 3781 113 3884 184 
Q 3956 234 3988 344 
Q 4000 397 4000 647 
L 4000 1878 
Q 4000 2228 3916 2372 
Q 3794 2572 3525 2572 
Q 3359 2572 3192 2489 
Q 3025 2406 2788 2181 
L 2781 2147 
L 2788 2013 
L 2788 647 
Q 2788 353 2820 281 
Q 2853 209 2943 161 
Q 3034 113 3253 113 
L 3253 0 
L 1806 0 
L 1806 113 
Q 2044 113 2133 169 
Q 2222 225 2256 338 
Q 2272 391 2272 647 
L 2272 1878 
Q 2272 2228 2169 2381 
Q 2031 2581 1784 2581 
Q 1616 2581 1450 2491 
Q 1191 2353 1050 2181 
L 1050 647 
Q 1050 366 1089 281 
Q 1128 197 1204 155 
Q 1281 113 1516 113 
L 1516 0 
L 100 0 
L 100 113 
Q 297 113 375 155 
Q 453 197 493 289 
Q 534 381 534 647 
L 534 1741 
Q 534 2213 506 2350 
Q 484 2453 437 2492 
Q 391 2531 309 2531 
Q 222 2531 100 2484 
L 53 2597 
L 916 2947 
L 1050 2947 
L 1050 2338 
z
" transform="scale(0.015625)"/>
      <path id="TimesNewRomanPSMT-64" d="M 2222 322 
Q 2013 103 1813 7 
Q 1613 -88 1381 -88 
Q 913 -88 563 304 
Q 213 697 213 1313 
Q 213 1928 600 2439 
Q 988 2950 1597 2950 
Q 1975 2950 2222 2709 
L 2222 3238 
Q 2222 3728 2198 3840 
Q 2175 3953 2125 3993 
Q 2075 4034 2000 4034 
Q 1919 4034 1784 3984 
L 1744 4094 
L 2597 4444 
L 2738 4444 
L 2738 1134 
Q 2738 631 2761 520 
Q 2784 409 2836 365 
Q 2888 322 2956 322 
Q 3041 322 3181 375 
L 3216 266 
L 2366 -88 
L 2222 -88 
L 2222 322 
z
M 2222 541 
L 2222 2016 
Q 2203 2228 2109 2403 
Q 2016 2578 1861 2667 
Q 1706 2756 1559 2756 
Q 1284 2756 1069 2509 
Q 784 2184 784 1559 
Q 784 928 1059 592 
Q 1334 256 1672 256 
Q 1956 256 2222 541 
z
" transform="scale(0.015625)"/>
      <path id="TimesNewRomanPSMT-6c" d="M 1184 4444 
L 1184 647 
Q 1184 378 1223 290 
Q 1263 203 1344 158 
Q 1425 113 1647 113 
L 1647 0 
L 244 0 
L 244 113 
Q 441 113 512 153 
Q 584 194 625 287 
Q 666 381 666 647 
L 666 3247 
Q 666 3731 644 3842 
Q 622 3953 573 3993 
Q 525 4034 450 4034 
Q 369 4034 244 3984 
L 191 4094 
L 1044 4444 
L 1184 4444 
z
" transform="scale(0.015625)"/>
      <path id="TimesNewRomanPSMT-28" d="M 1988 -1253 
L 1988 -1369 
Q 1516 -1131 1200 -813 
Q 750 -359 506 256 
Q 263 872 263 1534 
Q 263 2503 741 3301 
Q 1219 4100 1988 4444 
L 1988 4313 
Q 1603 4100 1356 3731 
Q 1109 3363 987 2797 
Q 866 2231 866 1616 
Q 866 947 969 400 
Q 1050 -31 1165 -292 
Q 1281 -553 1476 -793 
Q 1672 -1034 1988 -1253 
z
" transform="scale(0.015625)"/>
      <path id="TimesNewRomanPSMT-2b" d="M 1672 441 
L 1672 2000 
L 116 2000 
L 116 2256 
L 1672 2256 
L 1672 3809 
L 1922 3809 
L 1922 2256 
L 3484 2256 
L 3484 2000 
L 1922 2000 
L 1922 441 
L 1672 441 
z
" transform="scale(0.015625)"/>
      <path id="TimesNewRomanPSMT-38" d="M 1228 2134 
Q 725 2547 579 2797 
Q 434 3047 434 3316 
Q 434 3728 753 4026 
Q 1072 4325 1600 4325 
Q 2113 4325 2425 4047 
Q 2738 3769 2738 3413 
Q 2738 3175 2569 2928 
Q 2400 2681 1866 2347 
Q 2416 1922 2594 1678 
Q 2831 1359 2831 1006 
Q 2831 559 2490 242 
Q 2150 -75 1597 -75 
Q 994 -75 656 303 
Q 388 606 388 966 
Q 388 1247 577 1523 
Q 766 1800 1228 2134 
z
M 1719 2469 
Q 2094 2806 2194 3001 
Q 2294 3197 2294 3444 
Q 2294 3772 2109 3958 
Q 1925 4144 1606 4144 
Q 1288 4144 1088 3959 
Q 888 3775 888 3528 
Q 888 3366 970 3203 
Q 1053 3041 1206 2894 
L 1719 2469 
z
M 1375 2016 
Q 1116 1797 991 1539 
Q 866 1281 866 981 
Q 866 578 1086 336 
Q 1306 94 1647 94 
Q 1984 94 2187 284 
Q 2391 475 2391 747 
Q 2391 972 2272 1150 
Q 2050 1481 1375 2016 
z
" transform="scale(0.015625)"/>
      <path id="TimesNewRomanPSMT-29" d="M 144 4313 
L 144 4444 
Q 619 4209 934 3891 
Q 1381 3434 1625 2820 
Q 1869 2206 1869 1541 
Q 1869 572 1392 -226 
Q 916 -1025 144 -1369 
L 144 -1253 
Q 528 -1038 776 -670 
Q 1025 -303 1145 264 
Q 1266 831 1266 1447 
Q 1266 2113 1163 2663 
Q 1084 3094 967 3353 
Q 850 3613 656 3853 
Q 463 4094 144 4313 
z
" transform="scale(0.015625)"/>
      <path id="TimesNewRomanPSMT-6b" d="M 1047 4444 
L 1047 1594 
L 1775 2259 
Q 2006 2472 2044 2528 
Q 2069 2566 2069 2603 
Q 2069 2666 2017 2711 
Q 1966 2756 1847 2763 
L 1847 2863 
L 3091 2863 
L 3091 2763 
Q 2834 2756 2664 2684 
Q 2494 2613 2291 2428 
L 1556 1750 
L 2291 822 
Q 2597 438 2703 334 
Q 2853 188 2966 144 
Q 3044 113 3238 113 
L 3238 0 
L 1847 0 
L 1847 113 
Q 1966 116 2008 148 
Q 2050 181 2050 241 
Q 2050 313 1925 472 
L 1047 1594 
L 1047 644 
Q 1047 366 1086 278 
Q 1125 191 1197 153 
Q 1269 116 1509 113 
L 1509 0 
L 53 0 
L 53 113 
Q 272 113 381 166 
Q 447 200 481 272 
Q 528 375 528 628 
L 528 3234 
Q 528 3731 506 3842 
Q 484 3953 434 3995 
Q 384 4038 303 4038 
Q 238 4038 106 3984 
L 53 4094 
L 903 4444 
L 1047 4444 
z
" transform="scale(0.015625)"/>
      <path id="TimesNewRomanPSMT-2d" d="M 259 1672 
L 1875 1672 
L 1875 1200 
L 259 1200 
L 259 1672 
z
" transform="scale(0.015625)"/>
     </defs>
     <use xlink:href="#TimesNewRomanPSMT-4c"/>
     <use xlink:href="#TimesNewRomanPSMT-6f" transform="translate(61.083984 0)"/>
     <use xlink:href="#TimesNewRomanPSMT-73" transform="translate(111.083984 0)"/>
     <use xlink:href="#TimesNewRomanPSMT-73" transform="translate(150 0)"/>
     <use xlink:href="#TimesNewRomanPSMT-20" transform="translate(188.916016 0)"/>
     <use xlink:href="#TimesNewRomanPSMT-6f" transform="translate(213.916016 0)"/>
     <use xlink:href="#TimesNewRomanPSMT-66" transform="translate(263.916016 0)"/>
     <use xlink:href="#TimesNewRomanPSMT-20" transform="translate(297.216797 0)"/>
     <use xlink:href="#TimesNewRomanPSMT-74" transform="translate(322.216797 0)"/>
     <use xlink:href="#TimesNewRomanPSMT-68" transform="translate(350 0)"/>
     <use xlink:href="#TimesNewRomanPSMT-65" transform="translate(400 0)"/>
     <use xlink:href="#TimesNewRomanPSMT-20" transform="translate(444.384766 0)"/>
     <use xlink:href="#TimesNewRomanPSMT-30" transform="translate(469.384766 0)"/>
     <use xlink:href="#TimesNewRomanPSMT-39" transform="translate(519.384766 0)"/>
     <use xlink:href="#TimesNewRomanPSMT-5f" transform="translate(569.384766 0)"/>
     <use xlink:href="#TimesNewRomanPSMT-30" transform="translate(619.384766 0)"/>
     <use xlink:href="#TimesNewRomanPSMT-37" transform="translate(669.384766 0)"/>
     <use xlink:href="#TimesNewRomanPSMT-5f" transform="translate(719.384766 0)"/>
     <use xlink:href="#TimesNewRomanPSMT-32" transform="translate(769.384766 0)"/>
     <use xlink:href="#TimesNewRomanPSMT-35" transform="translate(819.384766 0)"/>
     <use xlink:href="#TimesNewRomanPSMT-5f" transform="translate(869.384766 0)"/>
     <use xlink:href="#TimesNewRomanPSMT-43" transform="translate(919.384766 0)"/>
     <use xlink:href="#TimesNewRomanPSMT-49" transform="translate(986.083984 0)"/>
     <use xlink:href="#TimesNewRomanPSMT-4e" transform="translate(1019.384766 0)"/>
     <use xlink:href="#TimesNewRomanPSMT-49" transform="translate(1091.601562 0)"/>
     <use xlink:href="#TimesNewRomanPSMT-43" transform="translate(1124.902344 0)"/>
     <use xlink:href="#TimesNewRomanPSMT-31" transform="translate(1191.601562 0)"/>
     <use xlink:href="#TimesNewRomanPSMT-30" transform="translate(1241.601562 0)"/>
     <use xlink:href="#TimesNewRomanPSMT-5f" transform="translate(1291.601562 0)"/>
     <use xlink:href="#TimesNewRomanPSMT-74" transform="translate(1341.601562 0)"/>
     <use xlink:href="#TimesNewRomanPSMT-6f" transform="translate(1369.384766 0)"/>
     <use xlink:href="#TimesNewRomanPSMT-72" transform="translate(1419.384766 0)"/>
     <use xlink:href="#TimesNewRomanPSMT-63" transform="translate(1452.685547 0)"/>
     <use xlink:href="#TimesNewRomanPSMT-68" transform="translate(1497.070312 0)"/>
     <use xlink:href="#TimesNewRomanPSMT-5f" transform="translate(1547.070312 0)"/>
     <use xlink:href="#TimesNewRomanPSMT-6d" transform="translate(1597.070312 0)"/>
     <use xlink:href="#TimesNewRomanPSMT-6f" transform="translate(1674.853516 0)"/>
     <use xlink:href="#TimesNewRomanPSMT-64" transform="translate(1724.853516 0)"/>
     <use xlink:href="#TimesNewRomanPSMT-65" transform="translate(1774.853516 0)"/>
     <use xlink:href="#TimesNewRomanPSMT-6c" transform="translate(1819.238281 0)"/>
     <use xlink:href="#TimesNewRomanPSMT-5f" transform="translate(1847.021484 0)"/>
     <use xlink:href="#TimesNewRomanPSMT-28" transform="translate(1897.021484 0)"/>
     <use xlink:href="#TimesNewRomanPSMT-31" transform="translate(1930.322266 0)"/>
     <use xlink:href="#TimesNewRomanPSMT-30" transform="translate(1980.322266 0)"/>
     <use xlink:href="#TimesNewRomanPSMT-32" transform="translate(2030.322266 0)"/>
     <use xlink:href="#TimesNewRomanPSMT-34" transform="translate(2080.322266 0)"/>
     <use xlink:href="#TimesNewRomanPSMT-2b" transform="translate(2130.322266 0)"/>
     <use xlink:href="#TimesNewRomanPSMT-38" transform="translate(2186.71875 0)"/>
     <use xlink:href="#TimesNewRomanPSMT-31" transform="translate(2236.71875 0)"/>
     <use xlink:href="#TimesNewRomanPSMT-39" transform="translate(2286.71875 0)"/>
     <use xlink:href="#TimesNewRomanPSMT-32" transform="translate(2336.71875 0)"/>
     <use xlink:href="#TimesNewRomanPSMT-2e" transform="translate(2386.71875 0)"/>
     <use xlink:href="#TimesNewRomanPSMT-31" transform="translate(2411.71875 0)"/>
     <use xlink:href="#TimesNewRomanPSMT-2b" transform="translate(2461.71875 0)"/>
     <use xlink:href="#TimesNewRomanPSMT-31" transform="translate(2518.115234 0)"/>
     <use xlink:href="#TimesNewRomanPSMT-29" transform="translate(2568.115234 0)"/>
     <use xlink:href="#TimesNewRomanPSMT-5f" transform="translate(2601.416016 0)"/>
     <use xlink:href="#TimesNewRomanPSMT-65" transform="translate(2651.416016 0)"/>
     <use xlink:href="#TimesNewRomanPSMT-6c" transform="translate(2695.800781 0)"/>
     <use xlink:href="#TimesNewRomanPSMT-6b" transform="translate(2723.583984 0)"/>
     <use xlink:href="#TimesNewRomanPSMT-2d" transform="translate(2773.583984 0)"/>
     <use xlink:href="#TimesNewRomanPSMT-68" transform="translate(2806.884766 0)"/>
     <use xlink:href="#TimesNewRomanPSMT-6f" transform="translate(2856.884766 0)"/>
     <use xlink:href="#TimesNewRomanPSMT-72" transform="translate(2906.884766 0)"/>
     <use xlink:href="#TimesNewRomanPSMT-73" transform="translate(2940.185547 0)"/>
     <use xlink:href="#TimesNewRomanPSMT-65" transform="translate(2979.101562 0)"/>
    </g>
   </g>
   <g id="legend_1">
    <g id="patch_7">
     <path d="M 243.139938 125.384625 
L 443.697438 125.384625 
Q 448.097438 125.384625 448.097438 120.984625 
L 448.097438 60.9315 
Q 448.097438 56.5315 443.697438 56.5315 
L 243.139938 56.5315 
Q 238.739937 56.5315 238.739937 60.9315 
L 238.739937 120.984625 
Q 238.739937 125.384625 243.139938 125.384625 
z
" style="fill: #ffffff; opacity: 0.8; stroke: #cccccc; stroke-linejoin: miter"/>
    </g>
    <g id="line2d_19">
     <path d="M 247.539938 73.0315 
L 269.539938 73.0315 
L 291.539938 73.0315 
" style="fill: none; stroke: #ffa500; stroke-width: 1.5; stroke-linecap: square"/>
    </g>
    <g id="text_12">
     <!-- Training loss -->
     <g transform="translate(309.139938 80.7315) scale(0.22 -0.22)">
      <defs>
       <path id="TimesNewRomanPSMT-54" d="M 3703 4238 
L 3750 3244 
L 3631 3244 
Q 3597 3506 3538 3619 
Q 3441 3800 3280 3886 
Q 3119 3972 2856 3972 
L 2259 3972 
L 2259 734 
Q 2259 344 2344 247 
Q 2463 116 2709 116 
L 2856 116 
L 2856 0 
L 1059 0 
L 1059 116 
L 1209 116 
Q 1478 116 1591 278 
Q 1659 378 1659 734 
L 1659 3972 
L 1150 3972 
Q 853 3972 728 3928 
Q 566 3869 450 3700 
Q 334 3531 313 3244 
L 194 3244 
L 244 4238 
L 3703 4238 
z
" transform="scale(0.015625)"/>
       <path id="TimesNewRomanPSMT-61" d="M 1822 413 
Q 1381 72 1269 19 
Q 1100 -59 909 -59 
Q 613 -59 420 144 
Q 228 347 228 678 
Q 228 888 322 1041 
Q 450 1253 767 1440 
Q 1084 1628 1822 1897 
L 1822 2009 
Q 1822 2438 1686 2597 
Q 1550 2756 1291 2756 
Q 1094 2756 978 2650 
Q 859 2544 859 2406 
L 866 2225 
Q 866 2081 792 2003 
Q 719 1925 600 1925 
Q 484 1925 411 2006 
Q 338 2088 338 2228 
Q 338 2497 613 2722 
Q 888 2947 1384 2947 
Q 1766 2947 2009 2819 
Q 2194 2722 2281 2516 
Q 2338 2381 2338 1966 
L 2338 994 
Q 2338 584 2353 492 
Q 2369 400 2405 369 
Q 2441 338 2488 338 
Q 2538 338 2575 359 
Q 2641 400 2828 588 
L 2828 413 
Q 2478 -56 2159 -56 
Q 2006 -56 1915 50 
Q 1825 156 1822 413 
z
M 1822 616 
L 1822 1706 
Q 1350 1519 1213 1441 
Q 966 1303 859 1153 
Q 753 1003 753 825 
Q 753 600 887 451 
Q 1022 303 1197 303 
Q 1434 303 1822 616 
z
" transform="scale(0.015625)"/>
       <path id="TimesNewRomanPSMT-69" d="M 928 4444 
Q 1059 4444 1151 4351 
Q 1244 4259 1244 4128 
Q 1244 3997 1151 3903 
Q 1059 3809 928 3809 
Q 797 3809 703 3903 
Q 609 3997 609 4128 
Q 609 4259 701 4351 
Q 794 4444 928 4444 
z
M 1188 2947 
L 1188 647 
Q 1188 378 1227 289 
Q 1266 200 1342 156 
Q 1419 113 1622 113 
L 1622 0 
L 231 0 
L 231 113 
Q 441 113 512 153 
Q 584 194 626 287 
Q 669 381 669 647 
L 669 1750 
Q 669 2216 641 2353 
Q 619 2453 572 2492 
Q 525 2531 444 2531 
Q 356 2531 231 2484 
L 188 2597 
L 1050 2947 
L 1188 2947 
z
" transform="scale(0.015625)"/>
       <path id="TimesNewRomanPSMT-6e" d="M 1034 2341 
Q 1538 2947 1994 2947 
Q 2228 2947 2397 2830 
Q 2566 2713 2666 2444 
Q 2734 2256 2734 1869 
L 2734 647 
Q 2734 375 2778 278 
Q 2813 200 2889 156 
Q 2966 113 3172 113 
L 3172 0 
L 1756 0 
L 1756 113 
L 1816 113 
Q 2016 113 2095 173 
Q 2175 234 2206 353 
Q 2219 400 2219 647 
L 2219 1819 
Q 2219 2209 2117 2386 
Q 2016 2563 1775 2563 
Q 1403 2563 1034 2156 
L 1034 647 
Q 1034 356 1069 288 
Q 1113 197 1189 155 
Q 1266 113 1500 113 
L 1500 0 
L 84 0 
L 84 113 
L 147 113 
Q 366 113 442 223 
Q 519 334 519 647 
L 519 1709 
Q 519 2225 495 2337 
Q 472 2450 423 2490 
Q 375 2531 294 2531 
Q 206 2531 84 2484 
L 38 2597 
L 900 2947 
L 1034 2947 
L 1034 2341 
z
" transform="scale(0.015625)"/>
       <path id="TimesNewRomanPSMT-67" d="M 966 1044 
Q 703 1172 562 1401 
Q 422 1631 422 1909 
Q 422 2334 742 2640 
Q 1063 2947 1563 2947 
Q 1972 2947 2272 2747 
L 2878 2747 
Q 3013 2747 3034 2739 
Q 3056 2731 3066 2713 
Q 3084 2684 3084 2613 
Q 3084 2531 3069 2500 
Q 3059 2484 3036 2475 
Q 3013 2466 2878 2466 
L 2506 2466 
Q 2681 2241 2681 1891 
Q 2681 1491 2375 1206 
Q 2069 922 1553 922 
Q 1341 922 1119 984 
Q 981 866 932 777 
Q 884 688 884 625 
Q 884 572 936 522 
Q 988 472 1138 450 
Q 1225 438 1575 428 
Q 2219 413 2409 384 
Q 2700 344 2873 169 
Q 3047 -6 3047 -263 
Q 3047 -616 2716 -925 
Q 2228 -1381 1444 -1381 
Q 841 -1381 425 -1109 
Q 191 -953 191 -784 
Q 191 -709 225 -634 
Q 278 -519 444 -313 
Q 466 -284 763 25 
Q 600 122 533 198 
Q 466 275 466 372 
Q 466 481 555 628 
Q 644 775 966 1044 
z
M 1509 2797 
Q 1278 2797 1122 2612 
Q 966 2428 966 2047 
Q 966 1553 1178 1281 
Q 1341 1075 1591 1075 
Q 1828 1075 1981 1253 
Q 2134 1431 2134 1813 
Q 2134 2309 1919 2591 
Q 1759 2797 1509 2797 
z
M 934 0 
Q 788 -159 713 -296 
Q 638 -434 638 -550 
Q 638 -700 819 -813 
Q 1131 -1006 1722 -1006 
Q 2284 -1006 2551 -807 
Q 2819 -609 2819 -384 
Q 2819 -222 2659 -153 
Q 2497 -84 2016 -72 
Q 1313 -53 934 0 
z
" transform="scale(0.015625)"/>
      </defs>
      <use xlink:href="#TimesNewRomanPSMT-54"/>
      <use xlink:href="#TimesNewRomanPSMT-72" transform="translate(57.583984 0)"/>
      <use xlink:href="#TimesNewRomanPSMT-61" transform="translate(90.884766 0)"/>
      <use xlink:href="#TimesNewRomanPSMT-69" transform="translate(135.269531 0)"/>
      <use xlink:href="#TimesNewRomanPSMT-6e" transform="translate(163.052734 0)"/>
      <use xlink:href="#TimesNewRomanPSMT-69" transform="translate(213.052734 0)"/>
      <use xlink:href="#TimesNewRomanPSMT-6e" transform="translate(240.835938 0)"/>
      <use xlink:href="#TimesNewRomanPSMT-67" transform="translate(290.835938 0)"/>
      <use xlink:href="#TimesNewRomanPSMT-20" transform="translate(340.835938 0)"/>
      <use xlink:href="#TimesNewRomanPSMT-6c" transform="translate(365.835938 0)"/>
      <use xlink:href="#TimesNewRomanPSMT-6f" transform="translate(393.619141 0)"/>
      <use xlink:href="#TimesNewRomanPSMT-73" transform="translate(443.619141 0)"/>
      <use xlink:href="#TimesNewRomanPSMT-73" transform="translate(482.535156 0)"/>
     </g>
    </g>
    <g id="line2d_20">
     <path d="M 247.539938 104.178687 
L 269.539938 104.178687 
L 291.539938 104.178687 
" style="fill: none; stroke: #008000; stroke-width: 1.5; stroke-linecap: square"/>
    </g>
    <g id="text_13">
     <!-- Validation loss -->
     <g transform="translate(309.139938 111.878687) scale(0.22 -0.22)">
      <defs>
       <path id="TimesNewRomanPSMT-56" d="M 4544 4238 
L 4544 4122 
Q 4319 4081 4203 3978 
Q 4038 3825 3909 3509 
L 2431 -97 
L 2316 -97 
L 728 3556 
Q 606 3838 556 3900 
Q 478 3997 364 4051 
Q 250 4106 56 4122 
L 56 4238 
L 1788 4238 
L 1788 4122 
Q 1494 4094 1406 4022 
Q 1319 3950 1319 3838 
Q 1319 3681 1463 3350 
L 2541 866 
L 3541 3319 
Q 3688 3681 3688 3822 
Q 3688 3913 3597 3995 
Q 3506 4078 3291 4113 
Q 3275 4116 3238 4122 
L 3238 4238 
L 4544 4238 
z
" transform="scale(0.015625)"/>
      </defs>
      <use xlink:href="#TimesNewRomanPSMT-56"/>
      <use xlink:href="#TimesNewRomanPSMT-61" transform="translate(61.091797 0)"/>
      <use xlink:href="#TimesNewRomanPSMT-6c" transform="translate(105.476562 0)"/>
      <use xlink:href="#TimesNewRomanPSMT-69" transform="translate(133.259766 0)"/>
      <use xlink:href="#TimesNewRomanPSMT-64" transform="translate(161.042969 0)"/>
      <use xlink:href="#TimesNewRomanPSMT-61" transform="translate(211.042969 0)"/>
      <use xlink:href="#TimesNewRomanPSMT-74" transform="translate(255.427734 0)"/>
      <use xlink:href="#TimesNewRomanPSMT-69" transform="translate(283.210938 0)"/>
      <use xlink:href="#TimesNewRomanPSMT-6f" transform="translate(310.994141 0)"/>
      <use xlink:href="#TimesNewRomanPSMT-6e" transform="translate(360.994141 0)"/>
      <use xlink:href="#TimesNewRomanPSMT-20" transform="translate(410.994141 0)"/>
      <use xlink:href="#TimesNewRomanPSMT-6c" transform="translate(435.994141 0)"/>
      <use xlink:href="#TimesNewRomanPSMT-6f" transform="translate(463.777344 0)"/>
      <use xlink:href="#TimesNewRomanPSMT-73" transform="translate(513.777344 0)"/>
      <use xlink:href="#TimesNewRomanPSMT-73" transform="translate(552.693359 0)"/>
     </g>
    </g>
   </g>
  </g>
 </g>
 <defs>
  <clipPath id="p20e94630a1">
   <rect x="227.739937" y="45.5315" width="357.12" height="266.112"/>
  </clipPath>
 </defs>
</svg>
