<?xml version="1.0" encoding="utf-8" standalone="no"?>
<!DOCTYPE svg PUBLIC "-//W3C//DTD SVG 1.1//EN"
  "http://www.w3.org/Graphics/SVG/1.1/DTD/svg11.dtd">
<svg xmlns:xlink="http://www.w3.org/1999/xlink" width="1091.4375pt" height="369.807875pt" viewBox="0 0 1091.4375 369.807875" xmlns="http://www.w3.org/2000/svg" version="1.1">
 <metadata>
  <rdf:RDF xmlns:dc="http://purl.org/dc/elements/1.1/" xmlns:cc="http://creativecommons.org/ns#" xmlns:rdf="http://www.w3.org/1999/02/22-rdf-syntax-ns#">
   <cc:Work>
    <dc:type rdf:resource="http://purl.org/dc/dcmitype/StillImage"/>
    <dc:date>2025-05-16T12:35:20.930387</dc:date>
    <dc:format>image/svg+xml</dc:format>
    <dc:creator>
     <cc:Agent>
      <dc:title>Matplotlib v3.10.1, https://matplotlib.org/</dc:title>
     </cc:Agent>
    </dc:creator>
   </cc:Work>
  </rdf:RDF>
 </metadata>
 <defs>
  <style type="text/css">*{stroke-linejoin: round; stroke-linecap: butt}</style>
 </defs>
 <g id="figure_1">
  <g id="patch_1">
   <path d="M 0 369.807875 
L 1091.4375 369.807875 
L 1091.4375 0 
L 0 0 
z
" style="fill: #ffffff"/>
  </g>
  <g id="axes_1">
   <g id="patch_2">
    <path d="M 367.15875 311.6435 
L 724.27875 311.6435 
L 724.27875 45.5315 
L 367.15875 45.5315 
z
" style="fill: #ffffff"/>
   </g>
   <g id="matplotlib.axis_1">
    <g id="xtick_1">
     <g id="line2d_1">
      <path d="M 367.15875 311.6435 
L 367.15875 45.5315 
" clip-path="url(#p60d137bf2a)" style="fill: none; stroke: #b0b0b0; stroke-opacity: 0.3; stroke-width: 0.8; stroke-linecap: square"/>
     </g>
     <g id="line2d_2">
      <defs>
       <path id="med285dbb1b" d="M 0 0 
L 0 3.5 
" style="stroke: #000000; stroke-width: 0.8"/>
      </defs>
      <g>
       <use xlink:href="#med285dbb1b" x="367.15875" y="311.6435" style="stroke: #000000; stroke-width: 0.8"/>
      </g>
     </g>
     <g id="text_1">
      <!-- 0 -->
      <g transform="translate(361.65875 333.91975) scale(0.22 -0.22)">
       <defs>
        <path id="TimesNewRomanPSMT-30" d="M 231 2094 
Q 231 2819 450 3342 
Q 669 3866 1031 4122 
Q 1313 4325 1613 4325 
Q 2100 4325 2488 3828 
Q 2972 3213 2972 2159 
Q 2972 1422 2759 906 
Q 2547 391 2217 158 
Q 1888 -75 1581 -75 
Q 975 -75 572 641 
Q 231 1244 231 2094 
z
M 844 2016 
Q 844 1141 1059 588 
Q 1238 122 1591 122 
Q 1759 122 1940 273 
Q 2122 425 2216 781 
Q 2359 1319 2359 2297 
Q 2359 3022 2209 3506 
Q 2097 3866 1919 4016 
Q 1791 4119 1609 4119 
Q 1397 4119 1231 3928 
Q 1006 3669 925 3112 
Q 844 2556 844 2016 
z
" transform="scale(0.015625)"/>
       </defs>
       <use xlink:href="#TimesNewRomanPSMT-30"/>
      </g>
     </g>
    </g>
    <g id="xtick_2">
     <g id="line2d_3">
      <path d="M 449.748944 311.6435 
L 449.748944 45.5315 
" clip-path="url(#p60d137bf2a)" style="fill: none; stroke: #b0b0b0; stroke-opacity: 0.3; stroke-width: 0.8; stroke-linecap: square"/>
     </g>
     <g id="line2d_4">
      <g>
       <use xlink:href="#med285dbb1b" x="449.748944" y="311.6435" style="stroke: #000000; stroke-width: 0.8"/>
      </g>
     </g>
     <g id="text_2">
      <!-- 2500 -->
      <g transform="translate(427.748944 333.91975) scale(0.22 -0.22)">
       <defs>
        <path id="TimesNewRomanPSMT-32" d="M 2934 816 
L 2638 0 
L 138 0 
L 138 116 
Q 1241 1122 1691 1759 
Q 2141 2397 2141 2925 
Q 2141 3328 1894 3587 
Q 1647 3847 1303 3847 
Q 991 3847 742 3664 
Q 494 3481 375 3128 
L 259 3128 
Q 338 3706 661 4015 
Q 984 4325 1469 4325 
Q 1984 4325 2329 3994 
Q 2675 3663 2675 3213 
Q 2675 2891 2525 2569 
Q 2294 2063 1775 1497 
Q 997 647 803 472 
L 1909 472 
Q 2247 472 2383 497 
Q 2519 522 2628 598 
Q 2738 675 2819 816 
L 2934 816 
z
" transform="scale(0.015625)"/>
        <path id="TimesNewRomanPSMT-35" d="M 2778 4238 
L 2534 3706 
L 1259 3706 
L 981 3138 
Q 1809 3016 2294 2522 
Q 2709 2097 2709 1522 
Q 2709 1188 2573 903 
Q 2438 619 2231 419 
Q 2025 219 1772 97 
Q 1413 -75 1034 -75 
Q 653 -75 479 54 
Q 306 184 306 341 
Q 306 428 378 495 
Q 450 563 559 563 
Q 641 563 702 538 
Q 763 513 909 409 
Q 1144 247 1384 247 
Q 1750 247 2026 523 
Q 2303 800 2303 1197 
Q 2303 1581 2056 1914 
Q 1809 2247 1375 2428 
Q 1034 2569 447 2591 
L 1259 4238 
L 2778 4238 
z
" transform="scale(0.015625)"/>
       </defs>
       <use xlink:href="#TimesNewRomanPSMT-32"/>
       <use xlink:href="#TimesNewRomanPSMT-35" transform="translate(50 0)"/>
       <use xlink:href="#TimesNewRomanPSMT-30" transform="translate(100 0)"/>
       <use xlink:href="#TimesNewRomanPSMT-30" transform="translate(150 0)"/>
      </g>
     </g>
    </g>
    <g id="xtick_3">
     <g id="line2d_5">
      <path d="M 532.339139 311.6435 
L 532.339139 45.5315 
" clip-path="url(#p60d137bf2a)" style="fill: none; stroke: #b0b0b0; stroke-opacity: 0.3; stroke-width: 0.8; stroke-linecap: square"/>
     </g>
     <g id="line2d_6">
      <g>
       <use xlink:href="#med285dbb1b" x="532.339139" y="311.6435" style="stroke: #000000; stroke-width: 0.8"/>
      </g>
     </g>
     <g id="text_3">
      <!-- 5000 -->
      <g transform="translate(510.339139 333.91975) scale(0.22 -0.22)">
       <use xlink:href="#TimesNewRomanPSMT-35"/>
       <use xlink:href="#TimesNewRomanPSMT-30" transform="translate(50 0)"/>
       <use xlink:href="#TimesNewRomanPSMT-30" transform="translate(100 0)"/>
       <use xlink:href="#TimesNewRomanPSMT-30" transform="translate(150 0)"/>
      </g>
     </g>
    </g>
    <g id="xtick_4">
     <g id="line2d_7">
      <path d="M 614.929333 311.6435 
L 614.929333 45.5315 
" clip-path="url(#p60d137bf2a)" style="fill: none; stroke: #b0b0b0; stroke-opacity: 0.3; stroke-width: 0.8; stroke-linecap: square"/>
     </g>
     <g id="line2d_8">
      <g>
       <use xlink:href="#med285dbb1b" x="614.929333" y="311.6435" style="stroke: #000000; stroke-width: 0.8"/>
      </g>
     </g>
     <g id="text_4">
      <!-- 7500 -->
      <g transform="translate(592.929333 333.91975) scale(0.22 -0.22)">
       <defs>
        <path id="TimesNewRomanPSMT-37" d="M 644 4238 
L 2916 4238 
L 2916 4119 
L 1503 -88 
L 1153 -88 
L 2419 3728 
L 1253 3728 
Q 900 3728 750 3644 
Q 488 3500 328 3200 
L 238 3234 
L 644 4238 
z
" transform="scale(0.015625)"/>
       </defs>
       <use xlink:href="#TimesNewRomanPSMT-37"/>
       <use xlink:href="#TimesNewRomanPSMT-35" transform="translate(50 0)"/>
       <use xlink:href="#TimesNewRomanPSMT-30" transform="translate(100 0)"/>
       <use xlink:href="#TimesNewRomanPSMT-30" transform="translate(150 0)"/>
      </g>
     </g>
    </g>
    <g id="xtick_5">
     <g id="line2d_9">
      <path d="M 697.519527 311.6435 
L 697.519527 45.5315 
" clip-path="url(#p60d137bf2a)" style="fill: none; stroke: #b0b0b0; stroke-opacity: 0.3; stroke-width: 0.8; stroke-linecap: square"/>
     </g>
     <g id="line2d_10">
      <g>
       <use xlink:href="#med285dbb1b" x="697.519527" y="311.6435" style="stroke: #000000; stroke-width: 0.8"/>
      </g>
     </g>
     <g id="text_5">
      <!-- 10000 -->
      <g transform="translate(670.019527 333.91975) scale(0.22 -0.22)">
       <defs>
        <path id="TimesNewRomanPSMT-31" d="M 750 3822 
L 1781 4325 
L 1884 4325 
L 1884 747 
Q 1884 391 1914 303 
Q 1944 216 2037 169 
Q 2131 122 2419 116 
L 2419 0 
L 825 0 
L 825 116 
Q 1125 122 1212 167 
Q 1300 213 1334 289 
Q 1369 366 1369 747 
L 1369 3034 
Q 1369 3497 1338 3628 
Q 1316 3728 1258 3775 
Q 1200 3822 1119 3822 
Q 1003 3822 797 3725 
L 750 3822 
z
" transform="scale(0.015625)"/>
       </defs>
       <use xlink:href="#TimesNewRomanPSMT-31"/>
       <use xlink:href="#TimesNewRomanPSMT-30" transform="translate(50 0)"/>
       <use xlink:href="#TimesNewRomanPSMT-30" transform="translate(100 0)"/>
       <use xlink:href="#TimesNewRomanPSMT-30" transform="translate(150 0)"/>
       <use xlink:href="#TimesNewRomanPSMT-30" transform="translate(200 0)"/>
      </g>
     </g>
    </g>
    <g id="text_6">
     <!-- Number of iterations -->
     <g transform="translate(454.076719 357.901937) scale(0.22 -0.22)">
      <defs>
       <path id="TimesNewRomanPSMT-4e" d="M -84 4238 
L 1066 4238 
L 3656 1059 
L 3656 3503 
Q 3656 3894 3569 3991 
Q 3453 4122 3203 4122 
L 3056 4122 
L 3056 4238 
L 4531 4238 
L 4531 4122 
L 4381 4122 
Q 4113 4122 4000 3959 
Q 3931 3859 3931 3503 
L 3931 -69 
L 3819 -69 
L 1025 3344 
L 1025 734 
Q 1025 344 1109 247 
Q 1228 116 1475 116 
L 1625 116 
L 1625 0 
L 150 0 
L 150 116 
L 297 116 
Q 569 116 681 278 
Q 750 378 750 734 
L 750 3681 
Q 566 3897 470 3965 
Q 375 4034 191 4094 
Q 100 4122 -84 4122 
L -84 4238 
z
" transform="scale(0.015625)"/>
       <path id="TimesNewRomanPSMT-75" d="M 2709 2863 
L 2709 1128 
Q 2709 631 2732 520 
Q 2756 409 2807 365 
Q 2859 322 2928 322 
Q 3025 322 3147 375 
L 3191 266 
L 2334 -88 
L 2194 -88 
L 2194 519 
Q 1825 119 1631 15 
Q 1438 -88 1222 -88 
Q 981 -88 804 51 
Q 628 191 559 409 
Q 491 628 491 1028 
L 491 2306 
Q 491 2509 447 2587 
Q 403 2666 317 2708 
Q 231 2750 6 2747 
L 6 2863 
L 1009 2863 
L 1009 947 
Q 1009 547 1148 422 
Q 1288 297 1484 297 
Q 1619 297 1789 381 
Q 1959 466 2194 703 
L 2194 2325 
Q 2194 2569 2105 2655 
Q 2016 2741 1734 2747 
L 1734 2863 
L 2709 2863 
z
" transform="scale(0.015625)"/>
       <path id="TimesNewRomanPSMT-6d" d="M 1050 2338 
Q 1363 2650 1419 2697 
Q 1559 2816 1721 2881 
Q 1884 2947 2044 2947 
Q 2313 2947 2506 2790 
Q 2700 2634 2766 2338 
Q 3088 2713 3309 2830 
Q 3531 2947 3766 2947 
Q 3994 2947 4170 2830 
Q 4347 2713 4450 2447 
Q 4519 2266 4519 1878 
L 4519 647 
Q 4519 378 4559 278 
Q 4591 209 4675 161 
Q 4759 113 4950 113 
L 4950 0 
L 3538 0 
L 3538 113 
L 3597 113 
Q 3781 113 3884 184 
Q 3956 234 3988 344 
Q 4000 397 4000 647 
L 4000 1878 
Q 4000 2228 3916 2372 
Q 3794 2572 3525 2572 
Q 3359 2572 3192 2489 
Q 3025 2406 2788 2181 
L 2781 2147 
L 2788 2013 
L 2788 647 
Q 2788 353 2820 281 
Q 2853 209 2943 161 
Q 3034 113 3253 113 
L 3253 0 
L 1806 0 
L 1806 113 
Q 2044 113 2133 169 
Q 2222 225 2256 338 
Q 2272 391 2272 647 
L 2272 1878 
Q 2272 2228 2169 2381 
Q 2031 2581 1784 2581 
Q 1616 2581 1450 2491 
Q 1191 2353 1050 2181 
L 1050 647 
Q 1050 366 1089 281 
Q 1128 197 1204 155 
Q 1281 113 1516 113 
L 1516 0 
L 100 0 
L 100 113 
Q 297 113 375 155 
Q 453 197 493 289 
Q 534 381 534 647 
L 534 1741 
Q 534 2213 506 2350 
Q 484 2453 437 2492 
Q 391 2531 309 2531 
Q 222 2531 100 2484 
L 53 2597 
L 916 2947 
L 1050 2947 
L 1050 2338 
z
" transform="scale(0.015625)"/>
       <path id="TimesNewRomanPSMT-62" d="M 984 2369 
Q 1400 2947 1881 2947 
Q 2322 2947 2650 2570 
Q 2978 2194 2978 1541 
Q 2978 778 2472 313 
Q 2038 -88 1503 -88 
Q 1253 -88 995 3 
Q 738 94 469 275 
L 469 3241 
Q 469 3728 445 3840 
Q 422 3953 372 3993 
Q 322 4034 247 4034 
Q 159 4034 28 3984 
L -16 4094 
L 844 4444 
L 984 4444 
L 984 2369 
z
M 984 2169 
L 984 456 
Q 1144 300 1314 220 
Q 1484 141 1663 141 
Q 1947 141 2192 453 
Q 2438 766 2438 1363 
Q 2438 1913 2192 2208 
Q 1947 2503 1634 2503 
Q 1469 2503 1303 2419 
Q 1178 2356 984 2169 
z
" transform="scale(0.015625)"/>
       <path id="TimesNewRomanPSMT-65" d="M 681 1784 
Q 678 1147 991 784 
Q 1303 422 1725 422 
Q 2006 422 2214 576 
Q 2422 731 2563 1106 
L 2659 1044 
Q 2594 616 2278 264 
Q 1963 -88 1488 -88 
Q 972 -88 605 314 
Q 238 716 238 1394 
Q 238 2128 614 2539 
Q 991 2950 1559 2950 
Q 2041 2950 2350 2633 
Q 2659 2316 2659 1784 
L 681 1784 
z
M 681 1966 
L 2006 1966 
Q 1991 2241 1941 2353 
Q 1863 2528 1708 2628 
Q 1553 2728 1384 2728 
Q 1125 2728 920 2526 
Q 716 2325 681 1966 
z
" transform="scale(0.015625)"/>
       <path id="TimesNewRomanPSMT-72" d="M 1038 2947 
L 1038 2303 
Q 1397 2947 1775 2947 
Q 1947 2947 2059 2842 
Q 2172 2738 2172 2600 
Q 2172 2478 2090 2393 
Q 2009 2309 1897 2309 
Q 1788 2309 1652 2417 
Q 1516 2525 1450 2525 
Q 1394 2525 1328 2463 
Q 1188 2334 1038 2041 
L 1038 669 
Q 1038 431 1097 309 
Q 1138 225 1241 169 
Q 1344 113 1538 113 
L 1538 0 
L 72 0 
L 72 113 
Q 291 113 397 181 
Q 475 231 506 341 
Q 522 394 522 644 
L 522 1753 
Q 522 2253 501 2348 
Q 481 2444 426 2487 
Q 372 2531 291 2531 
Q 194 2531 72 2484 
L 41 2597 
L 906 2947 
L 1038 2947 
z
" transform="scale(0.015625)"/>
       <path id="TimesNewRomanPSMT-20" transform="scale(0.015625)"/>
       <path id="TimesNewRomanPSMT-6f" d="M 1600 2947 
Q 2250 2947 2644 2453 
Q 2978 2031 2978 1484 
Q 2978 1100 2793 706 
Q 2609 313 2286 112 
Q 1963 -88 1566 -88 
Q 919 -88 538 428 
Q 216 863 216 1403 
Q 216 1797 411 2186 
Q 606 2575 925 2761 
Q 1244 2947 1600 2947 
z
M 1503 2744 
Q 1338 2744 1170 2645 
Q 1003 2547 900 2300 
Q 797 2053 797 1666 
Q 797 1041 1045 587 
Q 1294 134 1700 134 
Q 2003 134 2200 384 
Q 2397 634 2397 1244 
Q 2397 2006 2069 2444 
Q 1847 2744 1503 2744 
z
" transform="scale(0.015625)"/>
       <path id="TimesNewRomanPSMT-66" d="M 1319 2638 
L 1319 756 
Q 1319 356 1406 250 
Q 1522 113 1716 113 
L 1975 113 
L 1975 0 
L 266 0 
L 266 113 
L 394 113 
Q 519 113 622 175 
Q 725 238 764 344 
Q 803 450 803 756 
L 803 2638 
L 247 2638 
L 247 2863 
L 803 2863 
L 803 3050 
Q 803 3478 940 3775 
Q 1078 4072 1361 4255 
Q 1644 4438 1997 4438 
Q 2325 4438 2600 4225 
Q 2781 4084 2781 3909 
Q 2781 3816 2700 3733 
Q 2619 3650 2525 3650 
Q 2453 3650 2373 3701 
Q 2294 3753 2178 3923 
Q 2063 4094 1966 4153 
Q 1869 4213 1750 4213 
Q 1606 4213 1506 4136 
Q 1406 4059 1362 3898 
Q 1319 3738 1319 3069 
L 1319 2863 
L 2056 2863 
L 2056 2638 
L 1319 2638 
z
" transform="scale(0.015625)"/>
       <path id="TimesNewRomanPSMT-69" d="M 928 4444 
Q 1059 4444 1151 4351 
Q 1244 4259 1244 4128 
Q 1244 3997 1151 3903 
Q 1059 3809 928 3809 
Q 797 3809 703 3903 
Q 609 3997 609 4128 
Q 609 4259 701 4351 
Q 794 4444 928 4444 
z
M 1188 2947 
L 1188 647 
Q 1188 378 1227 289 
Q 1266 200 1342 156 
Q 1419 113 1622 113 
L 1622 0 
L 231 0 
L 231 113 
Q 441 113 512 153 
Q 584 194 626 287 
Q 669 381 669 647 
L 669 1750 
Q 669 2216 641 2353 
Q 619 2453 572 2492 
Q 525 2531 444 2531 
Q 356 2531 231 2484 
L 188 2597 
L 1050 2947 
L 1188 2947 
z
" transform="scale(0.015625)"/>
       <path id="TimesNewRomanPSMT-74" d="M 1031 3803 
L 1031 2863 
L 1700 2863 
L 1700 2644 
L 1031 2644 
L 1031 788 
Q 1031 509 1111 412 
Q 1191 316 1316 316 
Q 1419 316 1516 380 
Q 1613 444 1666 569 
L 1788 569 
Q 1678 263 1478 108 
Q 1278 -47 1066 -47 
Q 922 -47 784 33 
Q 647 113 581 261 
Q 516 409 516 719 
L 516 2644 
L 63 2644 
L 63 2747 
Q 234 2816 414 2980 
Q 594 3144 734 3369 
Q 806 3488 934 3803 
L 1031 3803 
z
" transform="scale(0.015625)"/>
       <path id="TimesNewRomanPSMT-61" d="M 1822 413 
Q 1381 72 1269 19 
Q 1100 -59 909 -59 
Q 613 -59 420 144 
Q 228 347 228 678 
Q 228 888 322 1041 
Q 450 1253 767 1440 
Q 1084 1628 1822 1897 
L 1822 2009 
Q 1822 2438 1686 2597 
Q 1550 2756 1291 2756 
Q 1094 2756 978 2650 
Q 859 2544 859 2406 
L 866 2225 
Q 866 2081 792 2003 
Q 719 1925 600 1925 
Q 484 1925 411 2006 
Q 338 2088 338 2228 
Q 338 2497 613 2722 
Q 888 2947 1384 2947 
Q 1766 2947 2009 2819 
Q 2194 2722 2281 2516 
Q 2338 2381 2338 1966 
L 2338 994 
Q 2338 584 2353 492 
Q 2369 400 2405 369 
Q 2441 338 2488 338 
Q 2538 338 2575 359 
Q 2641 400 2828 588 
L 2828 413 
Q 2478 -56 2159 -56 
Q 2006 -56 1915 50 
Q 1825 156 1822 413 
z
M 1822 616 
L 1822 1706 
Q 1350 1519 1213 1441 
Q 966 1303 859 1153 
Q 753 1003 753 825 
Q 753 600 887 451 
Q 1022 303 1197 303 
Q 1434 303 1822 616 
z
" transform="scale(0.015625)"/>
       <path id="TimesNewRomanPSMT-6e" d="M 1034 2341 
Q 1538 2947 1994 2947 
Q 2228 2947 2397 2830 
Q 2566 2713 2666 2444 
Q 2734 2256 2734 1869 
L 2734 647 
Q 2734 375 2778 278 
Q 2813 200 2889 156 
Q 2966 113 3172 113 
L 3172 0 
L 1756 0 
L 1756 113 
L 1816 113 
Q 2016 113 2095 173 
Q 2175 234 2206 353 
Q 2219 400 2219 647 
L 2219 1819 
Q 2219 2209 2117 2386 
Q 2016 2563 1775 2563 
Q 1403 2563 1034 2156 
L 1034 647 
Q 1034 356 1069 288 
Q 1113 197 1189 155 
Q 1266 113 1500 113 
L 1500 0 
L 84 0 
L 84 113 
L 147 113 
Q 366 113 442 223 
Q 519 334 519 647 
L 519 1709 
Q 519 2225 495 2337 
Q 472 2450 423 2490 
Q 375 2531 294 2531 
Q 206 2531 84 2484 
L 38 2597 
L 900 2947 
L 1034 2947 
L 1034 2341 
z
" transform="scale(0.015625)"/>
       <path id="TimesNewRomanPSMT-73" d="M 2050 2947 
L 2050 1972 
L 1947 1972 
Q 1828 2431 1642 2597 
Q 1456 2763 1169 2763 
Q 950 2763 815 2647 
Q 681 2531 681 2391 
Q 681 2216 781 2091 
Q 878 1963 1175 1819 
L 1631 1597 
Q 2266 1288 2266 781 
Q 2266 391 1970 151 
Q 1675 -88 1309 -88 
Q 1047 -88 709 6 
Q 606 38 541 38 
Q 469 38 428 -44 
L 325 -44 
L 325 978 
L 428 978 
Q 516 541 762 319 
Q 1009 97 1316 97 
Q 1531 97 1667 223 
Q 1803 350 1803 528 
Q 1803 744 1651 891 
Q 1500 1038 1047 1263 
Q 594 1488 453 1669 
Q 313 1847 313 2119 
Q 313 2472 555 2709 
Q 797 2947 1181 2947 
Q 1350 2947 1591 2875 
Q 1750 2828 1803 2828 
Q 1853 2828 1881 2850 
Q 1909 2872 1947 2947 
L 2050 2947 
z
" transform="scale(0.015625)"/>
      </defs>
      <use xlink:href="#TimesNewRomanPSMT-4e"/>
      <use xlink:href="#TimesNewRomanPSMT-75" transform="translate(72.216797 0)"/>
      <use xlink:href="#TimesNewRomanPSMT-6d" transform="translate(122.216797 0)"/>
      <use xlink:href="#TimesNewRomanPSMT-62" transform="translate(200 0)"/>
      <use xlink:href="#TimesNewRomanPSMT-65" transform="translate(250 0)"/>
      <use xlink:href="#TimesNewRomanPSMT-72" transform="translate(294.384766 0)"/>
      <use xlink:href="#TimesNewRomanPSMT-20" transform="translate(327.685547 0)"/>
      <use xlink:href="#TimesNewRomanPSMT-6f" transform="translate(352.685547 0)"/>
      <use xlink:href="#TimesNewRomanPSMT-66" transform="translate(402.685547 0)"/>
      <use xlink:href="#TimesNewRomanPSMT-20" transform="translate(435.986328 0)"/>
      <use xlink:href="#TimesNewRomanPSMT-69" transform="translate(460.986328 0)"/>
      <use xlink:href="#TimesNewRomanPSMT-74" transform="translate(488.769531 0)"/>
      <use xlink:href="#TimesNewRomanPSMT-65" transform="translate(516.552734 0)"/>
      <use xlink:href="#TimesNewRomanPSMT-72" transform="translate(560.9375 0)"/>
      <use xlink:href="#TimesNewRomanPSMT-61" transform="translate(594.238281 0)"/>
      <use xlink:href="#TimesNewRomanPSMT-74" transform="translate(638.623047 0)"/>
      <use xlink:href="#TimesNewRomanPSMT-69" transform="translate(666.40625 0)"/>
      <use xlink:href="#TimesNewRomanPSMT-6f" transform="translate(694.189453 0)"/>
      <use xlink:href="#TimesNewRomanPSMT-6e" transform="translate(744.189453 0)"/>
      <use xlink:href="#TimesNewRomanPSMT-73" transform="translate(794.189453 0)"/>
     </g>
    </g>
   </g>
   <g id="matplotlib.axis_2">
    <g id="ytick_1">
     <g id="line2d_11">
      <path d="M 367.15875 311.6435 
L 724.27875 311.6435 
" clip-path="url(#p60d137bf2a)" style="fill: none; stroke: #b0b0b0; stroke-opacity: 0.3; stroke-width: 0.8; stroke-linecap: square"/>
     </g>
     <g id="line2d_12">
      <defs>
       <path id="m0a6579182f" d="M 0 0 
L -3.5 0 
" style="stroke: #000000; stroke-width: 0.8"/>
      </defs>
      <g>
       <use xlink:href="#m0a6579182f" x="367.15875" y="311.6435" style="stroke: #000000; stroke-width: 0.8"/>
      </g>
     </g>
     <g id="text_7">
      <!-- 0.0 -->
      <g transform="translate(332.65875 319.281625) scale(0.22 -0.22)">
       <defs>
        <path id="TimesNewRomanPSMT-2e" d="M 800 606 
Q 947 606 1047 504 
Q 1147 403 1147 259 
Q 1147 116 1045 14 
Q 944 -88 800 -88 
Q 656 -88 554 14 
Q 453 116 453 259 
Q 453 406 554 506 
Q 656 606 800 606 
z
" transform="scale(0.015625)"/>
       </defs>
       <use xlink:href="#TimesNewRomanPSMT-30"/>
       <use xlink:href="#TimesNewRomanPSMT-2e" transform="translate(50 0)"/>
       <use xlink:href="#TimesNewRomanPSMT-30" transform="translate(75 0)"/>
      </g>
     </g>
    </g>
    <g id="ytick_2">
     <g id="line2d_13">
      <path d="M 367.15875 285.0323 
L 724.27875 285.0323 
" clip-path="url(#p60d137bf2a)" style="fill: none; stroke: #b0b0b0; stroke-opacity: 0.3; stroke-width: 0.8; stroke-linecap: square"/>
     </g>
     <g id="line2d_14">
      <g>
       <use xlink:href="#m0a6579182f" x="367.15875" y="285.0323" style="stroke: #000000; stroke-width: 0.8"/>
      </g>
     </g>
     <g id="text_8">
      <!-- 0.1 -->
      <g transform="translate(332.65875 292.670425) scale(0.22 -0.22)">
       <use xlink:href="#TimesNewRomanPSMT-30"/>
       <use xlink:href="#TimesNewRomanPSMT-2e" transform="translate(50 0)"/>
       <use xlink:href="#TimesNewRomanPSMT-31" transform="translate(75 0)"/>
      </g>
     </g>
    </g>
    <g id="ytick_3">
     <g id="line2d_15">
      <path d="M 367.15875 258.4211 
L 724.27875 258.4211 
" clip-path="url(#p60d137bf2a)" style="fill: none; stroke: #b0b0b0; stroke-opacity: 0.3; stroke-width: 0.8; stroke-linecap: square"/>
     </g>
     <g id="line2d_16">
      <g>
       <use xlink:href="#m0a6579182f" x="367.15875" y="258.4211" style="stroke: #000000; stroke-width: 0.8"/>
      </g>
     </g>
     <g id="text_9">
      <!-- 0.2 -->
      <g transform="translate(332.65875 266.059225) scale(0.22 -0.22)">
       <use xlink:href="#TimesNewRomanPSMT-30"/>
       <use xlink:href="#TimesNewRomanPSMT-2e" transform="translate(50 0)"/>
       <use xlink:href="#TimesNewRomanPSMT-32" transform="translate(75 0)"/>
      </g>
     </g>
    </g>
    <g id="ytick_4">
     <g id="line2d_17">
      <path d="M 367.15875 231.8099 
L 724.27875 231.8099 
" clip-path="url(#p60d137bf2a)" style="fill: none; stroke: #b0b0b0; stroke-opacity: 0.3; stroke-width: 0.8; stroke-linecap: square"/>
     </g>
     <g id="line2d_18">
      <g>
       <use xlink:href="#m0a6579182f" x="367.15875" y="231.8099" style="stroke: #000000; stroke-width: 0.8"/>
      </g>
     </g>
     <g id="text_10">
      <!-- 0.3 -->
      <g transform="translate(332.65875 239.448025) scale(0.22 -0.22)">
       <defs>
        <path id="TimesNewRomanPSMT-33" d="M 325 3431 
Q 506 3859 782 4092 
Q 1059 4325 1472 4325 
Q 1981 4325 2253 3994 
Q 2459 3747 2459 3466 
Q 2459 3003 1878 2509 
Q 2269 2356 2469 2072 
Q 2669 1788 2669 1403 
Q 2669 853 2319 450 
Q 1863 -75 997 -75 
Q 569 -75 414 31 
Q 259 138 259 259 
Q 259 350 332 419 
Q 406 488 509 488 
Q 588 488 669 463 
Q 722 447 909 348 
Q 1097 250 1169 231 
Q 1284 197 1416 197 
Q 1734 197 1970 444 
Q 2206 691 2206 1028 
Q 2206 1275 2097 1509 
Q 2016 1684 1919 1775 
Q 1784 1900 1550 2001 
Q 1316 2103 1072 2103 
L 972 2103 
L 972 2197 
Q 1219 2228 1467 2375 
Q 1716 2522 1828 2728 
Q 1941 2934 1941 3181 
Q 1941 3503 1739 3701 
Q 1538 3900 1238 3900 
Q 753 3900 428 3381 
L 325 3431 
z
" transform="scale(0.015625)"/>
       </defs>
       <use xlink:href="#TimesNewRomanPSMT-30"/>
       <use xlink:href="#TimesNewRomanPSMT-2e" transform="translate(50 0)"/>
       <use xlink:href="#TimesNewRomanPSMT-33" transform="translate(75 0)"/>
      </g>
     </g>
    </g>
    <g id="ytick_5">
     <g id="line2d_19">
      <path d="M 367.15875 205.1987 
L 724.27875 205.1987 
" clip-path="url(#p60d137bf2a)" style="fill: none; stroke: #b0b0b0; stroke-opacity: 0.3; stroke-width: 0.8; stroke-linecap: square"/>
     </g>
     <g id="line2d_20">
      <g>
       <use xlink:href="#m0a6579182f" x="367.15875" y="205.1987" style="stroke: #000000; stroke-width: 0.8"/>
      </g>
     </g>
     <g id="text_11">
      <!-- 0.4 -->
      <g transform="translate(332.65875 212.836825) scale(0.22 -0.22)">
       <defs>
        <path id="TimesNewRomanPSMT-34" d="M 2978 1563 
L 2978 1119 
L 2409 1119 
L 2409 0 
L 1894 0 
L 1894 1119 
L 100 1119 
L 100 1519 
L 2066 4325 
L 2409 4325 
L 2409 1563 
L 2978 1563 
z
M 1894 1563 
L 1894 3666 
L 406 1563 
L 1894 1563 
z
" transform="scale(0.015625)"/>
       </defs>
       <use xlink:href="#TimesNewRomanPSMT-30"/>
       <use xlink:href="#TimesNewRomanPSMT-2e" transform="translate(50 0)"/>
       <use xlink:href="#TimesNewRomanPSMT-34" transform="translate(75 0)"/>
      </g>
     </g>
    </g>
    <g id="ytick_6">
     <g id="line2d_21">
      <path d="M 367.15875 178.5875 
L 724.27875 178.5875 
" clip-path="url(#p60d137bf2a)" style="fill: none; stroke: #b0b0b0; stroke-opacity: 0.3; stroke-width: 0.8; stroke-linecap: square"/>
     </g>
     <g id="line2d_22">
      <g>
       <use xlink:href="#m0a6579182f" x="367.15875" y="178.5875" style="stroke: #000000; stroke-width: 0.8"/>
      </g>
     </g>
     <g id="text_12">
      <!-- 0.5 -->
      <g transform="translate(332.65875 186.225625) scale(0.22 -0.22)">
       <use xlink:href="#TimesNewRomanPSMT-30"/>
       <use xlink:href="#TimesNewRomanPSMT-2e" transform="translate(50 0)"/>
       <use xlink:href="#TimesNewRomanPSMT-35" transform="translate(75 0)"/>
      </g>
     </g>
    </g>
    <g id="ytick_7">
     <g id="line2d_23">
      <path d="M 367.15875 151.9763 
L 724.27875 151.9763 
" clip-path="url(#p60d137bf2a)" style="fill: none; stroke: #b0b0b0; stroke-opacity: 0.3; stroke-width: 0.8; stroke-linecap: square"/>
     </g>
     <g id="line2d_24">
      <g>
       <use xlink:href="#m0a6579182f" x="367.15875" y="151.9763" style="stroke: #000000; stroke-width: 0.8"/>
      </g>
     </g>
     <g id="text_13">
      <!-- 0.6 -->
      <g transform="translate(332.65875 159.614425) scale(0.22 -0.22)">
       <defs>
        <path id="TimesNewRomanPSMT-36" d="M 2869 4325 
L 2869 4209 
Q 2456 4169 2195 4045 
Q 1934 3922 1679 3669 
Q 1425 3416 1258 3105 
Q 1091 2794 978 2366 
Q 1428 2675 1881 2675 
Q 2316 2675 2634 2325 
Q 2953 1975 2953 1425 
Q 2953 894 2631 456 
Q 2244 -75 1606 -75 
Q 1172 -75 869 213 
Q 275 772 275 1663 
Q 275 2231 503 2743 
Q 731 3256 1154 3653 
Q 1578 4050 1965 4187 
Q 2353 4325 2688 4325 
L 2869 4325 
z
M 925 2138 
Q 869 1716 869 1456 
Q 869 1156 980 804 
Q 1091 453 1309 247 
Q 1469 100 1697 100 
Q 1969 100 2183 356 
Q 2397 613 2397 1088 
Q 2397 1622 2184 2012 
Q 1972 2403 1581 2403 
Q 1463 2403 1327 2353 
Q 1191 2303 925 2138 
z
" transform="scale(0.015625)"/>
       </defs>
       <use xlink:href="#TimesNewRomanPSMT-30"/>
       <use xlink:href="#TimesNewRomanPSMT-2e" transform="translate(50 0)"/>
       <use xlink:href="#TimesNewRomanPSMT-36" transform="translate(75 0)"/>
      </g>
     </g>
    </g>
    <g id="ytick_8">
     <g id="line2d_25">
      <path d="M 367.15875 125.3651 
L 724.27875 125.3651 
" clip-path="url(#p60d137bf2a)" style="fill: none; stroke: #b0b0b0; stroke-opacity: 0.3; stroke-width: 0.8; stroke-linecap: square"/>
     </g>
     <g id="line2d_26">
      <g>
       <use xlink:href="#m0a6579182f" x="367.15875" y="125.3651" style="stroke: #000000; stroke-width: 0.8"/>
      </g>
     </g>
     <g id="text_14">
      <!-- 0.7 -->
      <g transform="translate(332.65875 133.003225) scale(0.22 -0.22)">
       <use xlink:href="#TimesNewRomanPSMT-30"/>
       <use xlink:href="#TimesNewRomanPSMT-2e" transform="translate(50 0)"/>
       <use xlink:href="#TimesNewRomanPSMT-37" transform="translate(75 0)"/>
      </g>
     </g>
    </g>
    <g id="ytick_9">
     <g id="line2d_27">
      <path d="M 367.15875 98.7539 
L 724.27875 98.7539 
" clip-path="url(#p60d137bf2a)" style="fill: none; stroke: #b0b0b0; stroke-opacity: 0.3; stroke-width: 0.8; stroke-linecap: square"/>
     </g>
     <g id="line2d_28">
      <g>
       <use xlink:href="#m0a6579182f" x="367.15875" y="98.7539" style="stroke: #000000; stroke-width: 0.8"/>
      </g>
     </g>
     <g id="text_15">
      <!-- 0.8 -->
      <g transform="translate(332.65875 106.392025) scale(0.22 -0.22)">
       <defs>
        <path id="TimesNewRomanPSMT-38" d="M 1228 2134 
Q 725 2547 579 2797 
Q 434 3047 434 3316 
Q 434 3728 753 4026 
Q 1072 4325 1600 4325 
Q 2113 4325 2425 4047 
Q 2738 3769 2738 3413 
Q 2738 3175 2569 2928 
Q 2400 2681 1866 2347 
Q 2416 1922 2594 1678 
Q 2831 1359 2831 1006 
Q 2831 559 2490 242 
Q 2150 -75 1597 -75 
Q 994 -75 656 303 
Q 388 606 388 966 
Q 388 1247 577 1523 
Q 766 1800 1228 2134 
z
M 1719 2469 
Q 2094 2806 2194 3001 
Q 2294 3197 2294 3444 
Q 2294 3772 2109 3958 
Q 1925 4144 1606 4144 
Q 1288 4144 1088 3959 
Q 888 3775 888 3528 
Q 888 3366 970 3203 
Q 1053 3041 1206 2894 
L 1719 2469 
z
M 1375 2016 
Q 1116 1797 991 1539 
Q 866 1281 866 981 
Q 866 578 1086 336 
Q 1306 94 1647 94 
Q 1984 94 2187 284 
Q 2391 475 2391 747 
Q 2391 972 2272 1150 
Q 2050 1481 1375 2016 
z
" transform="scale(0.015625)"/>
       </defs>
       <use xlink:href="#TimesNewRomanPSMT-30"/>
       <use xlink:href="#TimesNewRomanPSMT-2e" transform="translate(50 0)"/>
       <use xlink:href="#TimesNewRomanPSMT-38" transform="translate(75 0)"/>
      </g>
     </g>
    </g>
    <g id="ytick_10">
     <g id="line2d_29">
      <path d="M 367.15875 72.1427 
L 724.27875 72.1427 
" clip-path="url(#p60d137bf2a)" style="fill: none; stroke: #b0b0b0; stroke-opacity: 0.3; stroke-width: 0.8; stroke-linecap: square"/>
     </g>
     <g id="line2d_30">
      <g>
       <use xlink:href="#m0a6579182f" x="367.15875" y="72.1427" style="stroke: #000000; stroke-width: 0.8"/>
      </g>
     </g>
     <g id="text_16">
      <!-- 0.9 -->
      <g transform="translate(332.65875 79.780825) scale(0.22 -0.22)">
       <defs>
        <path id="TimesNewRomanPSMT-39" d="M 338 -88 
L 338 28 
Q 744 34 1094 217 
Q 1444 400 1770 856 
Q 2097 1313 2225 1859 
Q 1734 1544 1338 1544 
Q 891 1544 572 1889 
Q 253 2234 253 2806 
Q 253 3363 572 3797 
Q 956 4325 1575 4325 
Q 2097 4325 2469 3894 
Q 2925 3359 2925 2575 
Q 2925 1869 2578 1258 
Q 2231 647 1613 244 
Q 1109 -88 516 -88 
L 338 -88 
z
M 2275 2091 
Q 2331 2497 2331 2741 
Q 2331 3044 2228 3395 
Q 2125 3747 1936 3934 
Q 1747 4122 1506 4122 
Q 1228 4122 1018 3872 
Q 809 3622 809 3128 
Q 809 2469 1088 2097 
Q 1291 1828 1588 1828 
Q 1731 1828 1928 1897 
Q 2125 1966 2275 2091 
z
" transform="scale(0.015625)"/>
       </defs>
       <use xlink:href="#TimesNewRomanPSMT-30"/>
       <use xlink:href="#TimesNewRomanPSMT-2e" transform="translate(50 0)"/>
       <use xlink:href="#TimesNewRomanPSMT-39" transform="translate(75 0)"/>
      </g>
     </g>
    </g>
    <g id="ytick_11">
     <g id="line2d_31">
      <path d="M 367.15875 45.5315 
L 724.27875 45.5315 
" clip-path="url(#p60d137bf2a)" style="fill: none; stroke: #b0b0b0; stroke-opacity: 0.3; stroke-width: 0.8; stroke-linecap: square"/>
     </g>
     <g id="line2d_32">
      <g>
       <use xlink:href="#m0a6579182f" x="367.15875" y="45.5315" style="stroke: #000000; stroke-width: 0.8"/>
      </g>
     </g>
     <g id="text_17">
      <!-- 1.0 -->
      <g transform="translate(332.65875 53.169625) scale(0.22 -0.22)">
       <use xlink:href="#TimesNewRomanPSMT-31"/>
       <use xlink:href="#TimesNewRomanPSMT-2e" transform="translate(50 0)"/>
       <use xlink:href="#TimesNewRomanPSMT-30" transform="translate(75 0)"/>
      </g>
     </g>
    </g>
    <g id="text_18">
     <!-- Accuracy -->
     <g transform="translate(323.911563 220.726094) rotate(-90) scale(0.22 -0.22)">
      <defs>
       <path id="TimesNewRomanPSMT-41" d="M 2928 1419 
L 1288 1419 
L 1000 750 
Q 894 503 894 381 
Q 894 284 986 211 
Q 1078 138 1384 116 
L 1384 0 
L 50 0 
L 50 116 
Q 316 163 394 238 
Q 553 388 747 847 
L 2238 4334 
L 2347 4334 
L 3822 809 
Q 4000 384 4145 257 
Q 4291 131 4550 116 
L 4550 0 
L 2878 0 
L 2878 116 
Q 3131 128 3220 200 
Q 3309 272 3309 375 
Q 3309 513 3184 809 
L 2928 1419 
z
M 2841 1650 
L 2122 3363 
L 1384 1650 
L 2841 1650 
z
" transform="scale(0.015625)"/>
       <path id="TimesNewRomanPSMT-63" d="M 2631 1088 
Q 2516 522 2178 217 
Q 1841 -88 1431 -88 
Q 944 -88 581 321 
Q 219 731 219 1428 
Q 219 2103 620 2525 
Q 1022 2947 1584 2947 
Q 2006 2947 2278 2723 
Q 2550 2500 2550 2259 
Q 2550 2141 2473 2067 
Q 2397 1994 2259 1994 
Q 2075 1994 1981 2113 
Q 1928 2178 1911 2362 
Q 1894 2547 1784 2644 
Q 1675 2738 1481 2738 
Q 1169 2738 978 2506 
Q 725 2200 725 1697 
Q 725 1184 976 792 
Q 1228 400 1656 400 
Q 1963 400 2206 609 
Q 2378 753 2541 1131 
L 2631 1088 
z
" transform="scale(0.015625)"/>
       <path id="TimesNewRomanPSMT-79" d="M 38 2863 
L 1372 2863 
L 1372 2747 
L 1306 2747 
Q 1166 2747 1095 2686 
Q 1025 2625 1025 2534 
Q 1025 2413 1128 2197 
L 1825 753 
L 2466 2334 
Q 2519 2463 2519 2588 
Q 2519 2644 2497 2672 
Q 2472 2706 2419 2726 
Q 2366 2747 2231 2747 
L 2231 2863 
L 3163 2863 
L 3163 2747 
Q 3047 2734 2984 2696 
Q 2922 2659 2847 2556 
Q 2819 2513 2741 2316 
L 1575 -541 
Q 1406 -956 1132 -1168 
Q 859 -1381 606 -1381 
Q 422 -1381 303 -1275 
Q 184 -1169 184 -1031 
Q 184 -900 270 -820 
Q 356 -741 506 -741 
Q 609 -741 788 -809 
Q 913 -856 944 -856 
Q 1038 -856 1148 -759 
Q 1259 -663 1372 -384 
L 1575 113 
L 547 2272 
Q 500 2369 397 2513 
Q 319 2622 269 2659 
Q 197 2709 38 2747 
L 38 2863 
z
" transform="scale(0.015625)"/>
      </defs>
      <use xlink:href="#TimesNewRomanPSMT-41"/>
      <use xlink:href="#TimesNewRomanPSMT-63" transform="translate(72.216797 0)"/>
      <use xlink:href="#TimesNewRomanPSMT-63" transform="translate(116.601562 0)"/>
      <use xlink:href="#TimesNewRomanPSMT-75" transform="translate(160.986328 0)"/>
      <use xlink:href="#TimesNewRomanPSMT-72" transform="translate(210.986328 0)"/>
      <use xlink:href="#TimesNewRomanPSMT-61" transform="translate(244.287109 0)"/>
      <use xlink:href="#TimesNewRomanPSMT-63" transform="translate(288.671875 0)"/>
      <use xlink:href="#TimesNewRomanPSMT-79" transform="translate(333.056641 0)"/>
     </g>
    </g>
   </g>
   <g id="line2d_33">
    <path d="M 367.15875 178.454438 
L 367.489417 174.063591 
L 367.820083 156.899374 
L 368.15075 148.250726 
L 368.481417 144.25905 
L 368.812083 143.726833 
L 369.473417 134.146797 
L 369.804083 133.082347 
L 370.13475 128.159283 
L 370.465417 125.764274 
L 370.796083 124.83287 
L 371.12675 125.098995 
L 371.457417 121.772582 
L 372.11875 123.901482 
L 372.449417 122.837032 
L 372.780083 120.575085 
L 373.11075 120.841194 
L 373.441417 120.575085 
L 373.772083 120.575085 
L 374.10275 119.776744 
L 374.433417 122.171753 
L 374.764083 120.042852 
L 375.09475 119.510635 
L 375.425417 119.510635 
L 375.756083 120.708148 
L 376.08675 119.510635 
L 376.417417 118.978418 
L 376.748083 119.377573 
L 377.07875 118.978418 
L 377.409417 118.978418 
L 377.740083 119.244527 
L 378.07075 118.313139 
L 378.401417 119.111464 
L 378.732083 119.377573 
L 379.06275 118.579247 
L 379.393417 118.446185 
L 379.724083 119.510635 
L 380.05475 118.446185 
L 380.385417 118.845356 
L 380.716083 118.845356 
L 381.04675 117.514797 
L 381.377417 119.909806 
L 382.03875 117.115626 
L 382.369417 118.047014 
L 383.03075 117.115626 
L 383.361417 118.579247 
L 383.692083 118.047014 
L 384.02275 116.849518 
L 384.353417 117.647859 
L 384.684083 117.248689 
L 385.01475 117.514797 
L 385.345417 116.982564 
L 385.676083 117.248689 
L 386.00675 117.780906 
L 386.668083 117.248689 
L 386.99875 117.647859 
L 387.329417 116.184238 
L 387.660083 117.115626 
L 387.99075 117.514797 
L 388.652083 116.184238 
L 388.98275 116.982564 
L 389.313417 116.849518 
L 389.644083 116.982564 
L 389.97475 117.248689 
L 390.305417 117.115626 
L 390.636083 117.647859 
L 390.96675 117.381735 
L 391.297417 116.583409 
L 391.628083 116.583409 
L 391.95875 116.317285 
L 392.289417 116.716456 
L 392.620083 117.913968 
L 392.95075 116.450347 
L 393.281417 117.647859 
L 393.612083 117.115626 
L 393.94275 117.115626 
L 394.273417 116.317285 
L 394.604083 116.982564 
L 394.93475 116.184238 
L 395.265417 116.982564 
L 395.596083 115.652005 
L 396.257417 115.91813 
L 396.588083 116.849518 
L 396.91875 116.982564 
L 397.249417 115.518959 
L 397.580083 116.184238 
L 397.91075 118.579247 
L 398.241417 116.716456 
L 398.572083 115.91813 
L 398.90275 116.450347 
L 399.233417 115.91813 
L 399.564083 115.785068 
L 399.89475 115.785068 
L 400.225417 115.91813 
L 400.88675 115.518959 
L 401.548083 116.849518 
L 401.87875 116.849518 
L 402.209417 115.385897 
L 402.540083 116.716456 
L 402.87075 115.518959 
L 403.532083 117.647859 
L 403.86275 115.652005 
L 404.193417 116.583409 
L 404.524083 117.913968 
L 404.85475 116.450347 
L 405.185417 117.115626 
L 405.516083 115.91813 
L 405.84675 115.385897 
L 406.177417 116.317285 
L 406.508083 115.91813 
L 406.83875 117.647859 
L 407.169417 116.184238 
L 407.500083 115.91813 
L 407.83075 117.780906 
L 408.161417 116.583409 
L 408.492083 116.317285 
L 408.82275 115.518959 
L 409.153417 116.716456 
L 409.484083 117.115626 
L 409.81475 116.716456 
L 410.145417 118.047014 
L 410.476083 116.317285 
L 410.80675 117.514797 
L 411.137417 117.248689 
L 411.468083 116.450347 
L 411.79875 116.849518 
L 412.129417 115.385897 
L 412.460083 117.115626 
L 412.79075 116.051176 
L 413.121417 116.583409 
L 413.452083 117.514797 
L 413.78275 116.583409 
L 414.113417 116.317285 
L 414.444083 118.712294 
L 414.77475 116.184238 
L 415.105417 116.583409 
L 415.436083 115.652005 
L 415.76675 115.518959 
L 416.097417 116.716456 
L 416.428083 117.248689 
L 416.75875 117.514797 
L 417.089417 117.514797 
L 417.420083 115.91813 
L 417.75075 117.514797 
L 418.081417 116.450347 
L 418.412083 116.450347 
L 418.74275 116.051176 
L 419.073417 117.115626 
L 419.404083 115.91813 
L 419.73475 115.91813 
L 420.065417 116.317285 
L 420.396083 115.91813 
L 420.72675 116.716456 
L 421.057417 115.91813 
L 421.71875 117.115626 
L 422.380083 115.518959 
L 422.71075 117.381735 
L 423.041417 115.652005 
L 423.372083 115.785068 
L 423.70275 118.047014 
L 424.033417 117.913968 
L 424.364083 115.785068 
L 424.69475 116.450347 
L 425.025417 114.85368 
L 425.68675 118.712294 
L 426.348083 115.652005 
L 426.67875 115.785068 
L 427.009417 116.450347 
L 427.340083 116.450347 
L 427.67075 116.317285 
L 428.001417 114.055338 
L 428.332083 116.583409 
L 428.66275 116.317285 
L 428.993417 116.716456 
L 429.324083 116.051176 
L 429.65475 115.91813 
L 429.985417 116.982564 
L 430.316083 115.652005 
L 430.64675 114.986726 
L 430.977417 114.720617 
L 431.308083 114.1884 
L 431.63875 116.450347 
L 431.969417 116.450347 
L 432.300083 115.785068 
L 432.63075 116.716456 
L 432.961417 118.047014 
L 433.292083 115.385897 
L 433.62275 116.583409 
L 433.953417 116.317285 
L 434.284083 116.982564 
L 434.61475 116.450347 
L 434.945417 115.518959 
L 435.276083 119.776744 
L 435.60675 117.381735 
L 435.937417 117.647859 
L 436.268083 117.115626 
L 436.59875 117.381735 
L 436.929417 115.119788 
L 437.260083 116.450347 
L 437.59075 114.85368 
L 437.921417 117.647859 
L 438.252083 116.450347 
L 438.58275 116.184238 
L 438.913417 116.184238 
L 439.57475 114.85368 
L 439.905417 117.115626 
L 440.236083 115.785068 
L 440.56675 115.119788 
L 440.897417 115.652005 
L 441.228083 114.986726 
L 441.889417 120.042852 
L 442.55075 116.716456 
L 442.881417 116.716456 
L 443.212083 117.248689 
L 443.54275 115.25285 
L 443.873417 116.184238 
L 444.204083 114.85368 
L 444.53475 116.184238 
L 444.865417 116.184238 
L 445.196083 116.051176 
L 445.52675 115.385897 
L 445.857417 116.583409 
L 446.188083 116.716456 
L 446.51875 114.720617 
L 446.849417 118.047014 
L 447.180083 115.385897 
L 447.51075 116.450347 
L 447.841417 116.184238 
L 448.172083 116.317285 
L 448.50275 115.785068 
L 449.164083 117.514797 
L 449.49475 116.450347 
L 449.825417 116.051176 
L 450.156083 117.647859 
L 450.48675 115.518959 
L 450.817417 115.25285 
L 451.148083 115.652005 
L 451.47875 116.450347 
L 451.809417 116.849518 
L 452.140083 115.652005 
L 452.47075 115.119788 
L 452.801417 116.450347 
L 453.132083 116.184238 
L 453.46275 115.518959 
L 453.793417 116.849518 
L 454.124083 114.587571 
L 454.45475 116.849518 
L 454.785417 114.454509 
L 455.116083 118.047014 
L 455.44675 115.518959 
L 455.777417 115.385897 
L 456.108083 115.518959 
L 456.43875 115.785068 
L 456.769417 115.518959 
L 457.100083 115.91813 
L 457.43075 115.652005 
L 457.761417 116.583409 
L 458.092083 116.317285 
L 458.753417 116.982564 
L 459.084083 116.849518 
L 459.41475 116.583409 
L 459.745417 115.652005 
L 460.076083 118.047014 
L 460.40675 115.25285 
L 460.737417 116.583409 
L 461.068083 116.317285 
L 461.39875 114.986726 
L 461.729417 115.518959 
L 462.060083 118.313139 
L 462.39075 115.91813 
L 462.721417 115.652005 
L 463.052083 115.119788 
L 463.38275 117.115626 
L 463.713417 116.450347 
L 464.044083 116.716456 
L 464.37475 115.25285 
L 464.705417 116.051176 
L 465.36675 116.450347 
L 465.697417 115.652005 
L 466.028083 116.982564 
L 466.35875 115.25285 
L 466.689417 115.91813 
L 467.020083 116.317285 
L 467.35075 114.454509 
L 467.681417 114.454509 
L 468.34275 116.184238 
L 468.673417 116.716456 
L 469.004083 115.91813 
L 469.33475 115.91813 
L 469.665417 114.321447 
L 469.996083 115.385897 
L 470.32675 117.381735 
L 470.657417 115.785068 
L 470.988083 118.579247 
L 471.31875 116.450347 
L 471.649417 117.780906 
L 471.980083 116.184238 
L 472.31075 116.849518 
L 473.964083 115.385897 
L 474.29475 116.051176 
L 474.625417 115.652005 
L 474.956083 116.716456 
L 475.28675 115.25285 
L 475.617417 118.579247 
L 475.948083 116.184238 
L 476.27875 115.385897 
L 476.609417 117.115626 
L 476.940083 115.25285 
L 477.27075 116.716456 
L 477.601417 115.385897 
L 477.932083 116.184238 
L 478.26275 116.051176 
L 478.593417 117.381735 
L 479.25475 115.385897 
L 479.585417 115.385897 
L 480.24675 115.785068 
L 480.577417 115.785068 
L 480.908083 115.25285 
L 481.23875 115.652005 
L 481.569417 115.518959 
L 481.900083 114.720617 
L 482.23075 116.184238 
L 482.561417 116.982564 
L 482.892083 115.119788 
L 483.553417 117.115626 
L 484.21475 115.25285 
L 484.876083 115.518959 
L 485.20675 116.450347 
L 485.537417 118.047014 
L 485.868083 115.518959 
L 486.19875 117.913968 
L 486.529417 116.583409 
L 486.860083 116.849518 
L 487.19075 116.450347 
L 487.521417 117.381735 
L 487.852083 116.317285 
L 488.513417 114.986726 
L 488.844083 116.450347 
L 489.17475 117.248689 
L 489.505417 115.91813 
L 489.836083 115.119788 
L 490.16675 115.518959 
L 490.497417 116.849518 
L 490.828083 116.317285 
L 491.15875 116.184238 
L 491.489417 116.450347 
L 491.820083 116.184238 
L 492.15075 115.518959 
L 492.481417 115.652005 
L 492.812083 116.450347 
L 493.14275 115.785068 
L 493.473417 116.849518 
L 493.804083 116.450347 
L 494.13475 116.849518 
L 494.465417 116.450347 
L 494.796083 114.321447 
L 495.457417 116.982564 
L 495.788083 115.119788 
L 496.11875 116.716456 
L 496.449417 115.518959 
L 496.780083 117.115626 
L 497.11075 117.381735 
L 497.441417 115.518959 
L 497.772083 115.385897 
L 498.10275 116.716456 
L 498.433417 115.91813 
L 498.764083 117.115626 
L 499.09475 117.115626 
L 500.08675 116.317285 
L 500.417417 117.381735 
L 500.748083 115.785068 
L 501.07875 115.785068 
L 501.409417 115.91813 
L 501.740083 115.91813 
L 502.07075 116.982564 
L 502.401417 116.716456 
L 502.732083 116.051176 
L 503.06275 117.381735 
L 503.393417 116.583409 
L 503.724083 116.716456 
L 504.05475 118.047014 
L 504.385417 116.982564 
L 504.716083 117.115626 
L 505.04675 116.184238 
L 505.377417 118.446185 
L 505.708083 117.115626 
L 506.03875 116.982564 
L 506.369417 116.716456 
L 506.700083 115.785068 
L 507.03075 117.381735 
L 507.692083 117.115626 
L 508.02275 119.244527 
L 508.353417 117.780906 
L 508.684083 117.647859 
L 509.01475 116.450347 
L 509.345417 117.514797 
L 509.676083 117.248689 
L 510.00675 117.913968 
L 510.337417 116.982564 
L 510.668083 118.047014 
L 510.99875 116.450347 
L 511.329417 117.248689 
L 511.660083 117.514797 
L 511.99075 116.716456 
L 512.321417 117.115626 
L 512.652083 116.051176 
L 512.98275 118.047014 
L 513.313417 116.716456 
L 513.644083 116.450347 
L 513.97475 117.913968 
L 514.305417 116.583409 
L 514.636083 117.647859 
L 514.96675 117.248689 
L 515.297417 116.583409 
L 515.628083 117.115626 
L 515.95875 115.91813 
L 516.289417 117.248689 
L 516.620083 116.450347 
L 516.95075 116.849518 
L 517.281417 118.579247 
L 517.612083 118.712294 
L 517.94275 116.716456 
L 518.273417 117.115626 
L 518.604083 116.184238 
L 519.265417 118.446185 
L 519.92675 116.450347 
L 520.257417 117.381735 
L 520.588083 117.913968 
L 520.91875 116.849518 
L 521.249417 118.180077 
L 521.580083 117.381735 
L 521.91075 118.047014 
L 522.241417 116.583409 
L 522.572083 117.514797 
L 522.90275 116.982564 
L 523.564083 116.982564 
L 523.89475 116.317285 
L 524.225417 116.317285 
L 524.556083 118.446185 
L 524.88675 117.381735 
L 525.217417 116.716456 
L 525.548083 116.849518 
L 525.87875 116.317285 
L 526.209417 117.913968 
L 526.540083 118.845356 
L 526.87075 116.982564 
L 527.201417 119.510635 
L 527.532083 116.051176 
L 527.86275 118.845356 
L 528.193417 117.647859 
L 528.524083 117.514797 
L 528.85475 117.780906 
L 529.516083 117.115626 
L 529.84675 118.579247 
L 530.177417 117.248689 
L 530.508083 117.647859 
L 530.83875 117.381735 
L 531.169417 118.047014 
L 531.500083 118.047014 
L 531.83075 117.514797 
L 532.161417 117.514797 
L 532.492083 117.647859 
L 532.82275 117.647859 
L 533.153417 116.716456 
L 533.484083 117.647859 
L 533.81475 117.780906 
L 534.145417 118.047014 
L 534.476083 117.647859 
L 534.80675 116.982564 
L 535.137417 118.579247 
L 535.468083 117.115626 
L 535.79875 117.780906 
L 536.129417 117.248689 
L 536.460083 118.180077 
L 536.79075 116.982564 
L 537.121417 117.913968 
L 537.452083 118.313139 
L 537.78275 117.647859 
L 538.113417 117.647859 
L 538.444083 117.514797 
L 538.77475 116.982564 
L 539.105417 117.647859 
L 539.436083 116.450347 
L 539.76675 117.913968 
L 540.428083 118.180077 
L 540.75875 116.849518 
L 541.089417 117.647859 
L 541.420083 118.047014 
L 542.081417 116.450347 
L 542.412083 117.913968 
L 542.74275 117.780906 
L 543.073417 117.115626 
L 543.404083 118.579247 
L 543.73475 118.579247 
L 544.065417 118.180077 
L 544.396083 118.579247 
L 544.72675 118.579247 
L 545.057417 118.313139 
L 545.71875 119.111464 
L 546.049417 117.248689 
L 546.380083 117.115626 
L 546.71075 118.047014 
L 547.041417 117.913968 
L 547.372083 117.514797 
L 547.70275 118.579247 
L 548.033417 118.047014 
L 548.364083 118.313139 
L 548.69475 118.313139 
L 549.025417 117.913968 
L 549.356083 118.180077 
L 549.68675 116.982564 
L 550.017417 118.712294 
L 550.348083 118.978418 
L 550.67875 118.180077 
L 551.009417 118.047014 
L 551.340083 117.780906 
L 551.67075 118.180077 
L 552.001417 116.982564 
L 552.332083 118.579247 
L 552.66275 117.780906 
L 552.993417 118.047014 
L 553.324083 116.849518 
L 553.65475 117.913968 
L 553.985417 117.780906 
L 554.316083 118.712294 
L 554.64675 118.712294 
L 554.977417 117.780906 
L 555.308083 117.514797 
L 555.63875 117.514797 
L 555.969417 118.978418 
L 556.300083 117.780906 
L 556.63075 118.712294 
L 556.961417 118.712294 
L 557.292083 118.313139 
L 557.62275 117.647859 
L 557.953417 117.913968 
L 558.284083 117.913968 
L 558.61475 118.579247 
L 558.945417 118.712294 
L 559.276083 118.313139 
L 559.60675 117.381735 
L 559.937417 116.051176 
L 560.268083 118.313139 
L 560.59875 118.446185 
L 560.929417 117.780906 
L 561.260083 118.446185 
L 561.921417 117.514797 
L 562.252083 117.248689 
L 562.913417 118.446185 
L 563.244083 117.381735 
L 563.57475 118.446185 
L 564.236083 117.780906 
L 564.56675 116.583409 
L 564.897417 117.913968 
L 565.228083 117.381735 
L 565.55875 117.780906 
L 565.889417 118.978418 
L 566.220083 117.647859 
L 567.212083 118.712294 
L 567.54275 118.446185 
L 567.873417 117.913968 
L 568.204083 118.978418 
L 568.53475 117.514797 
L 568.865417 118.845356 
L 569.52675 116.583409 
L 569.857417 119.377573 
L 570.51875 117.248689 
L 570.849417 118.047014 
L 571.180083 117.913968 
L 571.51075 118.047014 
L 571.841417 118.845356 
L 572.172083 117.780906 
L 572.50275 117.381735 
L 572.833417 116.716456 
L 573.49475 118.180077 
L 573.825417 118.047014 
L 574.156083 118.712294 
L 574.48675 116.184238 
L 574.817417 116.184238 
L 575.148083 118.313139 
L 575.47875 119.111464 
L 575.809417 117.647859 
L 576.140083 118.579247 
L 576.47075 119.111464 
L 576.801417 116.849518 
L 577.132083 118.446185 
L 577.46275 118.047014 
L 577.793417 118.180077 
L 578.124083 117.514797 
L 578.45475 118.047014 
L 578.785417 117.115626 
L 579.116083 118.313139 
L 579.44675 118.180077 
L 579.777417 117.514797 
L 580.43875 117.780906 
L 580.769417 117.514797 
L 581.100083 116.317285 
L 581.43075 117.381735 
L 581.761417 117.514797 
L 582.092083 118.180077 
L 582.42275 117.913968 
L 582.753417 118.313139 
L 583.084083 117.115626 
L 583.41475 117.248689 
L 583.745417 118.180077 
L 584.076083 116.583409 
L 584.737417 118.180077 
L 585.068083 117.514797 
L 585.39875 117.248689 
L 585.729417 117.514797 
L 586.060083 118.047014 
L 586.39075 116.982564 
L 586.721417 118.047014 
L 587.052083 117.913968 
L 587.38275 118.313139 
L 587.713417 117.248689 
L 588.044083 118.446185 
L 588.37475 117.647859 
L 588.705417 118.978418 
L 589.036083 117.248689 
L 589.36675 117.647859 
L 589.697417 116.982564 
L 590.028083 117.381735 
L 590.35875 117.115626 
L 590.689417 117.514797 
L 591.020083 117.248689 
L 591.35075 118.180077 
L 591.681417 117.647859 
L 592.012083 118.180077 
L 592.34275 119.909806 
L 592.673417 117.514797 
L 593.004083 118.712294 
L 593.33475 117.248689 
L 593.665417 117.248689 
L 594.32675 118.180077 
L 594.657417 116.317285 
L 594.988083 117.780906 
L 595.31875 116.450347 
L 595.649417 116.716456 
L 595.980083 117.913968 
L 596.31075 117.913968 
L 596.641417 116.982564 
L 596.972083 118.845356 
L 597.633417 117.514797 
L 597.964083 118.180077 
L 598.29475 117.248689 
L 598.625417 117.780906 
L 598.956083 117.913968 
L 599.28675 116.849518 
L 599.617417 118.180077 
L 599.948083 116.317285 
L 600.27875 117.381735 
L 600.609417 118.047014 
L 600.940083 117.514797 
L 601.27075 118.313139 
L 601.601417 117.647859 
L 602.593417 116.716456 
L 602.924083 117.913968 
L 603.25475 117.381735 
L 603.585417 119.111464 
L 603.916083 117.381735 
L 604.24675 118.446185 
L 604.577417 118.579247 
L 604.908083 117.514797 
L 605.900083 118.579247 
L 606.23075 117.514797 
L 606.892083 118.712294 
L 607.22275 118.180077 
L 607.884083 116.849518 
L 608.21475 117.514797 
L 608.545417 117.647859 
L 608.876083 116.317285 
L 609.20675 117.647859 
L 609.537417 117.913968 
L 609.868083 117.381735 
L 610.529417 118.047014 
L 610.860083 117.514797 
L 611.19075 118.180077 
L 611.521417 116.982564 
L 611.852083 118.845356 
L 612.18275 117.913968 
L 612.513417 117.913968 
L 612.844083 118.579247 
L 613.17475 118.446185 
L 613.505417 116.051176 
L 613.836083 118.313139 
L 614.16675 118.446185 
L 614.497417 118.845356 
L 614.828083 118.446185 
L 615.15875 118.579247 
L 615.489417 116.716456 
L 615.820083 118.845356 
L 616.481417 117.381735 
L 616.812083 118.180077 
L 617.14275 117.913968 
L 617.473417 117.913968 
L 617.804083 117.780906 
L 618.13475 117.780906 
L 618.465417 117.115626 
L 618.796083 117.780906 
L 619.12675 117.248689 
L 619.788083 116.982564 
L 620.11875 117.248689 
L 620.449417 117.248689 
L 620.780083 117.913968 
L 621.11075 117.780906 
L 621.441417 117.115626 
L 621.772083 118.180077 
L 622.10275 117.780906 
L 622.433417 116.450347 
L 622.764083 117.780906 
L 623.09475 116.716456 
L 623.425417 117.115626 
L 623.756083 117.115626 
L 624.08675 116.716456 
L 624.417417 117.647859 
L 625.07875 117.248689 
L 625.409417 117.248689 
L 625.740083 116.716456 
L 626.07075 116.982564 
L 626.401417 118.180077 
L 626.732083 117.248689 
L 627.06275 117.647859 
L 627.393417 117.780906 
L 627.724083 118.047014 
L 628.05475 116.849518 
L 628.385417 116.982564 
L 628.716083 117.248689 
L 629.04675 116.716456 
L 629.377417 116.716456 
L 629.708083 116.317285 
L 630.03875 116.716456 
L 630.369417 116.849518 
L 630.700083 118.313139 
L 631.03075 116.982564 
L 631.361417 117.381735 
L 631.692083 116.849518 
L 632.02275 117.115626 
L 632.353417 119.111464 
L 632.684083 118.313139 
L 633.345417 117.647859 
L 633.676083 117.381735 
L 634.00675 117.780906 
L 634.337417 117.248689 
L 634.668083 118.579247 
L 634.99875 118.446185 
L 635.329417 117.115626 
L 635.660083 116.583409 
L 635.99075 118.313139 
L 636.321417 117.647859 
L 636.652083 118.180077 
L 636.98275 117.913968 
L 637.313417 119.111464 
L 637.644083 117.647859 
L 637.97475 117.115626 
L 638.305417 118.579247 
L 638.636083 117.381735 
L 638.96675 116.849518 
L 639.297417 117.913968 
L 639.628083 117.647859 
L 639.95875 116.849518 
L 640.289417 117.381735 
L 640.620083 118.446185 
L 640.95075 116.716456 
L 641.281417 118.180077 
L 641.612083 117.647859 
L 641.94275 116.849518 
L 642.273417 117.115626 
L 642.604083 116.716456 
L 642.93475 116.849518 
L 643.265417 117.248689 
L 643.596083 117.248689 
L 643.92675 118.047014 
L 644.257417 118.180077 
L 644.588083 117.381735 
L 644.91875 117.913968 
L 645.580083 118.313139 
L 645.91075 117.647859 
L 646.241417 118.313139 
L 646.90275 117.647859 
L 647.233417 117.647859 
L 647.564083 118.712294 
L 647.89475 117.780906 
L 648.225417 117.514797 
L 648.556083 117.780906 
L 648.88675 116.583409 
L 649.217417 117.647859 
L 649.548083 117.913968 
L 649.87875 117.514797 
L 650.209417 116.583409 
L 650.540083 117.115626 
L 650.87075 117.115626 
L 651.201417 116.849518 
L 651.532083 117.514797 
L 651.86275 117.248689 
L 652.193417 117.913968 
L 652.524083 117.381735 
L 652.85475 117.514797 
L 653.516083 116.849518 
L 653.84675 117.381735 
L 654.177417 118.180077 
L 654.508083 116.982564 
L 655.500083 116.982564 
L 655.83075 117.248689 
L 656.161417 116.982564 
L 656.492083 117.647859 
L 656.82275 116.317285 
L 657.153417 117.514797 
L 657.484083 117.381735 
L 657.81475 116.583409 
L 658.145417 117.780906 
L 658.476083 117.248689 
L 658.80675 117.514797 
L 659.137417 116.982564 
L 659.468083 117.381735 
L 659.79875 117.115626 
L 660.129417 117.115626 
L 660.460083 116.982564 
L 660.79075 117.647859 
L 661.121417 117.514797 
L 661.452083 118.047014 
L 661.78275 118.047014 
L 662.113417 117.647859 
L 662.444083 117.913968 
L 662.77475 118.845356 
L 663.436083 117.248689 
L 664.428083 118.047014 
L 664.75875 117.381735 
L 665.089417 118.313139 
L 665.420083 117.780906 
L 665.75075 117.913968 
L 666.081417 118.579247 
L 666.412083 116.982564 
L 666.74275 117.514797 
L 667.073417 116.716456 
L 667.73475 117.780906 
L 668.065417 117.248689 
L 669.057417 117.913968 
L 669.388083 117.381735 
L 669.71875 118.047014 
L 670.71075 116.982564 
L 671.372083 117.647859 
L 671.70275 117.780906 
L 672.033417 118.446185 
L 672.364083 117.381735 
L 672.69475 118.446185 
L 673.025417 117.381735 
L 673.356083 117.381735 
L 673.68675 116.982564 
L 674.017417 117.381735 
L 674.348083 116.982564 
L 674.67875 116.849518 
L 675.009417 118.446185 
L 675.340083 118.047014 
L 675.67075 117.248689 
L 676.001417 117.248689 
L 676.332083 118.712294 
L 676.66275 117.913968 
L 676.993417 118.180077 
L 677.65475 117.780906 
L 677.985417 117.913968 
L 678.316083 118.845356 
L 678.64675 117.514797 
L 678.977417 116.982564 
L 679.63875 117.647859 
L 679.969417 119.776744 
L 680.300083 118.712294 
L 680.63075 118.579247 
L 680.961417 118.978418 
L 681.292083 118.978418 
L 681.953417 116.849518 
L 682.284083 116.982564 
L 682.945417 117.647859 
L 683.276083 118.047014 
L 683.60675 117.115626 
L 683.937417 118.579247 
L 684.268083 117.780906 
L 684.59875 119.776744 
L 685.260083 117.115626 
L 685.59075 118.446185 
L 685.921417 117.514797 
L 686.252083 118.180077 
L 686.58275 117.913968 
L 686.913417 116.450347 
L 687.244083 118.446185 
L 687.57475 118.579247 
L 687.905417 118.845356 
L 688.236083 117.381735 
L 688.56675 118.313139 
L 688.897417 116.716456 
L 689.228083 117.913968 
L 689.55875 117.780906 
L 689.889417 118.579247 
L 690.220083 117.514797 
L 690.55075 117.248689 
L 690.881417 118.313139 
L 691.54275 118.712294 
L 691.873417 117.248689 
L 692.204083 117.913968 
L 692.53475 117.780906 
L 692.865417 118.845356 
L 693.196083 120.575085 
L 693.52675 118.712294 
L 693.857417 117.647859 
L 694.51875 118.446185 
L 694.849417 117.514797 
L 695.180083 118.845356 
L 695.51075 118.579247 
L 695.841417 117.248689 
L 696.50275 117.913968 
L 696.833417 117.780906 
L 697.164083 118.712294 
L 697.49475 118.047014 
L 697.825417 118.313139 
L 698.156083 116.982564 
L 698.48675 118.047014 
L 698.817417 117.115626 
L 699.148083 118.845356 
L 699.47875 117.647859 
L 699.809417 116.982564 
L 700.140083 117.913968 
L 700.47075 118.446185 
L 701.132083 117.647859 
L 701.46275 117.780906 
L 701.793417 117.381735 
L 702.124083 117.248689 
L 702.45475 117.647859 
L 702.785417 117.514797 
L 703.116083 118.180077 
L 703.44675 118.313139 
L 703.777417 118.047014 
L 704.108083 118.313139 
L 704.43875 117.248689 
L 704.769417 117.913968 
L 705.100083 118.180077 
L 705.43075 117.381735 
L 705.761417 118.047014 
L 706.092083 117.647859 
L 706.42275 118.712294 
L 706.753417 118.446185 
L 707.084083 118.579247 
L 707.41475 119.244527 
L 707.745417 118.180077 
L 708.076083 118.579247 
L 708.737417 117.381735 
L 709.068083 117.913968 
L 709.39875 117.514797 
L 709.729417 117.381735 
L 710.060083 118.446185 
L 710.39075 117.248689 
L 710.721417 117.115626 
L 711.052083 118.180077 
L 711.38275 117.115626 
L 711.713417 118.978418 
L 712.37475 117.514797 
L 712.705417 117.514797 
L 713.36675 118.845356 
L 713.697417 118.313139 
L 714.028083 118.047014 
L 714.35875 117.115626 
L 714.689417 117.514797 
L 715.35075 117.248689 
L 715.681417 117.248689 
L 716.012083 117.115626 
L 716.34275 117.647859 
L 716.673417 117.248689 
L 717.33475 117.647859 
L 717.665417 117.780906 
L 717.996083 117.780906 
L 718.32675 118.047014 
L 718.657417 117.780906 
L 718.988083 116.982564 
L 719.31875 117.647859 
L 719.649417 117.514797 
L 719.980083 118.579247 
L 720.31075 118.845356 
L 720.641417 118.446185 
L 720.972083 117.381735 
L 721.30275 117.514797 
L 721.633417 117.913968 
L 721.964083 117.381735 
L 722.29475 117.381735 
L 722.625417 117.248689 
L 722.956083 117.248689 
L 723.28675 116.849518 
L 723.948083 118.047014 
L 724.27875 116.716456 
L 724.27875 116.716456 
" clip-path="url(#p60d137bf2a)" style="fill: none; stroke: #1f77b4; stroke-width: 1.5; stroke-linecap: square"/>
   </g>
   <g id="patch_3">
    <path d="M 367.15875 311.6435 
L 367.15875 45.5315 
" style="fill: none; stroke: #000000; stroke-width: 0.8; stroke-linejoin: miter; stroke-linecap: square"/>
   </g>
   <g id="patch_4">
    <path d="M 724.27875 311.6435 
L 724.27875 45.5315 
" style="fill: none; stroke: #000000; stroke-width: 0.8; stroke-linejoin: miter; stroke-linecap: square"/>
   </g>
   <g id="patch_5">
    <path d="M 367.15875 311.6435 
L 724.27875 311.6435 
" style="fill: none; stroke: #000000; stroke-width: 0.8; stroke-linejoin: miter; stroke-linecap: square"/>
   </g>
   <g id="patch_6">
    <path d="M 367.15875 45.5315 
L 724.27875 45.5315 
" style="fill: none; stroke: #000000; stroke-width: 0.8; stroke-linejoin: miter; stroke-linecap: square"/>
   </g>
   <g id="text_19">
    <!-- Accuracy of the 16_05_25_CIFAR10_model_(1024+64*8+1)_elk_horse_save_5 on the validation set -->
    <g transform="translate(7.2 25.5315) scale(0.264 -0.264)">
     <defs>
      <path id="TimesNewRomanPSMT-68" d="M 1041 4444 
L 1041 2350 
Q 1388 2731 1591 2839 
Q 1794 2947 1997 2947 
Q 2241 2947 2416 2812 
Q 2591 2678 2675 2391 
Q 2734 2191 2734 1659 
L 2734 647 
Q 2734 375 2778 275 
Q 2809 200 2884 156 
Q 2959 113 3159 113 
L 3159 0 
L 1753 0 
L 1753 113 
L 1819 113 
Q 2019 113 2097 173 
Q 2175 234 2206 353 
Q 2216 403 2216 647 
L 2216 1659 
Q 2216 2128 2167 2275 
Q 2119 2422 2012 2495 
Q 1906 2569 1756 2569 
Q 1603 2569 1437 2487 
Q 1272 2406 1041 2159 
L 1041 647 
Q 1041 353 1073 281 
Q 1106 209 1195 161 
Q 1284 113 1503 113 
L 1503 0 
L 84 0 
L 84 113 
Q 275 113 384 172 
Q 447 203 484 290 
Q 522 378 522 647 
L 522 3238 
Q 522 3728 498 3840 
Q 475 3953 426 3993 
Q 378 4034 297 4034 
Q 231 4034 84 3984 
L 41 4094 
L 897 4444 
L 1041 4444 
z
" transform="scale(0.015625)"/>
      <path id="TimesNewRomanPSMT-5f" d="M 3256 -1381 
L -53 -1381 
L -53 -1119 
L 3256 -1119 
L 3256 -1381 
z
" transform="scale(0.015625)"/>
      <path id="TimesNewRomanPSMT-43" d="M 3853 4334 
L 3950 2894 
L 3853 2894 
Q 3659 3541 3300 3825 
Q 2941 4109 2438 4109 
Q 2016 4109 1675 3895 
Q 1334 3681 1139 3212 
Q 944 2744 944 2047 
Q 944 1472 1128 1050 
Q 1313 628 1683 403 
Q 2053 178 2528 178 
Q 2941 178 3256 354 
Q 3572 531 3950 1056 
L 4047 994 
Q 3728 428 3303 165 
Q 2878 -97 2294 -97 
Q 1241 -97 663 684 
Q 231 1266 231 2053 
Q 231 2688 515 3219 
Q 800 3750 1298 4042 
Q 1797 4334 2388 4334 
Q 2847 4334 3294 4109 
Q 3425 4041 3481 4041 
Q 3566 4041 3628 4100 
Q 3709 4184 3744 4334 
L 3853 4334 
z
" transform="scale(0.015625)"/>
      <path id="TimesNewRomanPSMT-49" d="M 1975 116 
L 1975 0 
L 159 0 
L 159 116 
L 309 116 
Q 572 116 691 269 
Q 766 369 766 750 
L 766 3488 
Q 766 3809 725 3913 
Q 694 3991 597 4047 
Q 459 4122 309 4122 
L 159 4122 
L 159 4238 
L 1975 4238 
L 1975 4122 
L 1822 4122 
Q 1563 4122 1444 3969 
Q 1366 3869 1366 3488 
L 1366 750 
Q 1366 428 1406 325 
Q 1438 247 1538 191 
Q 1672 116 1822 116 
L 1975 116 
z
" transform="scale(0.015625)"/>
      <path id="TimesNewRomanPSMT-46" d="M 1309 4006 
L 1309 2341 
L 2081 2341 
Q 2347 2341 2470 2458 
Q 2594 2575 2634 2922 
L 2750 2922 
L 2750 1488 
L 2634 1488 
Q 2631 1734 2570 1850 
Q 2509 1966 2401 2023 
Q 2294 2081 2081 2081 
L 1309 2081 
L 1309 750 
Q 1309 428 1350 325 
Q 1381 247 1481 191 
Q 1619 116 1769 116 
L 1922 116 
L 1922 0 
L 103 0 
L 103 116 
L 253 116 
Q 516 116 634 269 
Q 709 369 709 750 
L 709 3488 
Q 709 3809 669 3913 
Q 638 3991 541 4047 
Q 406 4122 253 4122 
L 103 4122 
L 103 4238 
L 3256 4238 
L 3297 3306 
L 3188 3306 
Q 3106 3603 2998 3742 
Q 2891 3881 2733 3943 
Q 2575 4006 2244 4006 
L 1309 4006 
z
" transform="scale(0.015625)"/>
      <path id="TimesNewRomanPSMT-52" d="M 4325 0 
L 3194 0 
L 1759 1981 
Q 1600 1975 1500 1975 
Q 1459 1975 1412 1976 
Q 1366 1978 1316 1981 
L 1316 750 
Q 1316 350 1403 253 
Q 1522 116 1759 116 
L 1925 116 
L 1925 0 
L 109 0 
L 109 116 
L 269 116 
Q 538 116 653 291 
Q 719 388 719 750 
L 719 3488 
Q 719 3888 631 3984 
Q 509 4122 269 4122 
L 109 4122 
L 109 4238 
L 1653 4238 
Q 2328 4238 2648 4139 
Q 2969 4041 3192 3777 
Q 3416 3513 3416 3147 
Q 3416 2756 3161 2468 
Q 2906 2181 2372 2063 
L 3247 847 
Q 3547 428 3762 290 
Q 3978 153 4325 116 
L 4325 0 
z
M 1316 2178 
Q 1375 2178 1419 2176 
Q 1463 2175 1491 2175 
Q 2097 2175 2405 2437 
Q 2713 2700 2713 3106 
Q 2713 3503 2464 3751 
Q 2216 4000 1806 4000 
Q 1625 4000 1316 3941 
L 1316 2178 
z
" transform="scale(0.015625)"/>
      <path id="TimesNewRomanPSMT-64" d="M 2222 322 
Q 2013 103 1813 7 
Q 1613 -88 1381 -88 
Q 913 -88 563 304 
Q 213 697 213 1313 
Q 213 1928 600 2439 
Q 988 2950 1597 2950 
Q 1975 2950 2222 2709 
L 2222 3238 
Q 2222 3728 2198 3840 
Q 2175 3953 2125 3993 
Q 2075 4034 2000 4034 
Q 1919 4034 1784 3984 
L 1744 4094 
L 2597 4444 
L 2738 4444 
L 2738 1134 
Q 2738 631 2761 520 
Q 2784 409 2836 365 
Q 2888 322 2956 322 
Q 3041 322 3181 375 
L 3216 266 
L 2366 -88 
L 2222 -88 
L 2222 322 
z
M 2222 541 
L 2222 2016 
Q 2203 2228 2109 2403 
Q 2016 2578 1861 2667 
Q 1706 2756 1559 2756 
Q 1284 2756 1069 2509 
Q 784 2184 784 1559 
Q 784 928 1059 592 
Q 1334 256 1672 256 
Q 1956 256 2222 541 
z
" transform="scale(0.015625)"/>
      <path id="TimesNewRomanPSMT-6c" d="M 1184 4444 
L 1184 647 
Q 1184 378 1223 290 
Q 1263 203 1344 158 
Q 1425 113 1647 113 
L 1647 0 
L 244 0 
L 244 113 
Q 441 113 512 153 
Q 584 194 625 287 
Q 666 381 666 647 
L 666 3247 
Q 666 3731 644 3842 
Q 622 3953 573 3993 
Q 525 4034 450 4034 
Q 369 4034 244 3984 
L 191 4094 
L 1044 4444 
L 1184 4444 
z
" transform="scale(0.015625)"/>
      <path id="TimesNewRomanPSMT-28" d="M 1988 -1253 
L 1988 -1369 
Q 1516 -1131 1200 -813 
Q 750 -359 506 256 
Q 263 872 263 1534 
Q 263 2503 741 3301 
Q 1219 4100 1988 4444 
L 1988 4313 
Q 1603 4100 1356 3731 
Q 1109 3363 987 2797 
Q 866 2231 866 1616 
Q 866 947 969 400 
Q 1050 -31 1165 -292 
Q 1281 -553 1476 -793 
Q 1672 -1034 1988 -1253 
z
" transform="scale(0.015625)"/>
      <path id="TimesNewRomanPSMT-2b" d="M 1672 441 
L 1672 2000 
L 116 2000 
L 116 2256 
L 1672 2256 
L 1672 3809 
L 1922 3809 
L 1922 2256 
L 3484 2256 
L 3484 2000 
L 1922 2000 
L 1922 441 
L 1672 441 
z
" transform="scale(0.015625)"/>
      <path id="TimesNewRomanPSMT-2a" d="M 1544 3263 
Q 1531 3478 1456 3691 
Q 1350 3997 1350 4113 
Q 1350 4275 1426 4359 
Q 1503 4444 1616 4444 
Q 1713 4444 1784 4359 
Q 1856 4275 1856 4119 
Q 1856 3978 1773 3726 
Q 1691 3475 1672 3263 
Q 1844 3372 1981 3528 
Q 2194 3775 2297 3834 
Q 2400 3894 2506 3894 
Q 2609 3894 2679 3823 
Q 2750 3753 2750 3656 
Q 2750 3541 2647 3450 
Q 2544 3359 2131 3269 
Q 1891 3216 1731 3147 
Q 1894 3063 2128 3019 
Q 2506 2950 2623 2847 
Q 2741 2744 2741 2622 
Q 2741 2528 2670 2459 
Q 2600 2391 2506 2391 
Q 2413 2391 2298 2456 
Q 2184 2522 1991 2750 
Q 1863 2903 1672 3038 
Q 1678 2859 1744 2650 
Q 1856 2281 1856 2147 
Q 1856 2022 1781 1936 
Q 1706 1850 1622 1850 
Q 1506 1850 1413 1941 
Q 1347 2006 1347 2150 
Q 1347 2300 1419 2511 
Q 1491 2722 1509 2801 
Q 1528 2881 1544 3038 
Q 1359 2916 1222 2766 
Q 994 2509 878 2441 
Q 797 2391 709 2391 
Q 603 2391 528 2462 
Q 453 2534 453 2622 
Q 453 2700 517 2786 
Q 581 2872 709 2928 
Q 794 2966 1094 3028 
Q 1288 3069 1472 3147 
Q 1303 3231 1069 3278 
Q 684 3359 594 3425 
Q 453 3528 453 3675 
Q 453 3759 523 3829 
Q 594 3900 688 3900 
Q 791 3900 906 3834 
Q 1022 3769 1194 3570 
Q 1366 3372 1544 3263 
z
" transform="scale(0.015625)"/>
      <path id="TimesNewRomanPSMT-29" d="M 144 4313 
L 144 4444 
Q 619 4209 934 3891 
Q 1381 3434 1625 2820 
Q 1869 2206 1869 1541 
Q 1869 572 1392 -226 
Q 916 -1025 144 -1369 
L 144 -1253 
Q 528 -1038 776 -670 
Q 1025 -303 1145 264 
Q 1266 831 1266 1447 
Q 1266 2113 1163 2663 
Q 1084 3094 967 3353 
Q 850 3613 656 3853 
Q 463 4094 144 4313 
z
" transform="scale(0.015625)"/>
      <path id="TimesNewRomanPSMT-6b" d="M 1047 4444 
L 1047 1594 
L 1775 2259 
Q 2006 2472 2044 2528 
Q 2069 2566 2069 2603 
Q 2069 2666 2017 2711 
Q 1966 2756 1847 2763 
L 1847 2863 
L 3091 2863 
L 3091 2763 
Q 2834 2756 2664 2684 
Q 2494 2613 2291 2428 
L 1556 1750 
L 2291 822 
Q 2597 438 2703 334 
Q 2853 188 2966 144 
Q 3044 113 3238 113 
L 3238 0 
L 1847 0 
L 1847 113 
Q 1966 116 2008 148 
Q 2050 181 2050 241 
Q 2050 313 1925 472 
L 1047 1594 
L 1047 644 
Q 1047 366 1086 278 
Q 1125 191 1197 153 
Q 1269 116 1509 113 
L 1509 0 
L 53 0 
L 53 113 
Q 272 113 381 166 
Q 447 200 481 272 
Q 528 375 528 628 
L 528 3234 
Q 528 3731 506 3842 
Q 484 3953 434 3995 
Q 384 4038 303 4038 
Q 238 4038 106 3984 
L 53 4094 
L 903 4444 
L 1047 4444 
z
" transform="scale(0.015625)"/>
      <path id="TimesNewRomanPSMT-76" d="M 53 2863 
L 1400 2863 
L 1400 2747 
L 1313 2747 
Q 1191 2747 1127 2687 
Q 1063 2628 1063 2528 
Q 1063 2419 1128 2269 
L 1794 688 
L 2463 2328 
Q 2534 2503 2534 2594 
Q 2534 2638 2509 2666 
Q 2475 2713 2422 2730 
Q 2369 2747 2206 2747 
L 2206 2863 
L 3141 2863 
L 3141 2747 
Q 2978 2734 2916 2681 
Q 2806 2588 2719 2369 
L 1703 -88 
L 1575 -88 
L 553 2328 
Q 484 2497 421 2570 
Q 359 2644 263 2694 
Q 209 2722 53 2747 
L 53 2863 
z
" transform="scale(0.015625)"/>
     </defs>
     <use xlink:href="#TimesNewRomanPSMT-41"/>
     <use xlink:href="#TimesNewRomanPSMT-63" transform="translate(72.216797 0)"/>
     <use xlink:href="#TimesNewRomanPSMT-63" transform="translate(116.601562 0)"/>
     <use xlink:href="#TimesNewRomanPSMT-75" transform="translate(160.986328 0)"/>
     <use xlink:href="#TimesNewRomanPSMT-72" transform="translate(210.986328 0)"/>
     <use xlink:href="#TimesNewRomanPSMT-61" transform="translate(244.287109 0)"/>
     <use xlink:href="#TimesNewRomanPSMT-63" transform="translate(288.671875 0)"/>
     <use xlink:href="#TimesNewRomanPSMT-79" transform="translate(333.056641 0)"/>
     <use xlink:href="#TimesNewRomanPSMT-20" transform="translate(383.056641 0)"/>
     <use xlink:href="#TimesNewRomanPSMT-6f" transform="translate(408.056641 0)"/>
     <use xlink:href="#TimesNewRomanPSMT-66" transform="translate(458.056641 0)"/>
     <use xlink:href="#TimesNewRomanPSMT-20" transform="translate(491.357422 0)"/>
     <use xlink:href="#TimesNewRomanPSMT-74" transform="translate(516.357422 0)"/>
     <use xlink:href="#TimesNewRomanPSMT-68" transform="translate(544.140625 0)"/>
     <use xlink:href="#TimesNewRomanPSMT-65" transform="translate(594.140625 0)"/>
     <use xlink:href="#TimesNewRomanPSMT-20" transform="translate(638.525391 0)"/>
     <use xlink:href="#TimesNewRomanPSMT-31" transform="translate(663.525391 0)"/>
     <use xlink:href="#TimesNewRomanPSMT-36" transform="translate(713.525391 0)"/>
     <use xlink:href="#TimesNewRomanPSMT-5f" transform="translate(763.525391 0)"/>
     <use xlink:href="#TimesNewRomanPSMT-30" transform="translate(813.525391 0)"/>
     <use xlink:href="#TimesNewRomanPSMT-35" transform="translate(863.525391 0)"/>
     <use xlink:href="#TimesNewRomanPSMT-5f" transform="translate(913.525391 0)"/>
     <use xlink:href="#TimesNewRomanPSMT-32" transform="translate(963.525391 0)"/>
     <use xlink:href="#TimesNewRomanPSMT-35" transform="translate(1013.525391 0)"/>
     <use xlink:href="#TimesNewRomanPSMT-5f" transform="translate(1063.525391 0)"/>
     <use xlink:href="#TimesNewRomanPSMT-43" transform="translate(1113.525391 0)"/>
     <use xlink:href="#TimesNewRomanPSMT-49" transform="translate(1180.224609 0)"/>
     <use xlink:href="#TimesNewRomanPSMT-46" transform="translate(1213.525391 0)"/>
     <use xlink:href="#TimesNewRomanPSMT-41" transform="translate(1261.765625 0)"/>
     <use xlink:href="#TimesNewRomanPSMT-52" transform="translate(1333.982422 0)"/>
     <use xlink:href="#TimesNewRomanPSMT-31" transform="translate(1400.681641 0)"/>
     <use xlink:href="#TimesNewRomanPSMT-30" transform="translate(1450.681641 0)"/>
     <use xlink:href="#TimesNewRomanPSMT-5f" transform="translate(1500.681641 0)"/>
     <use xlink:href="#TimesNewRomanPSMT-6d" transform="translate(1550.681641 0)"/>
     <use xlink:href="#TimesNewRomanPSMT-6f" transform="translate(1628.464844 0)"/>
     <use xlink:href="#TimesNewRomanPSMT-64" transform="translate(1678.464844 0)"/>
     <use xlink:href="#TimesNewRomanPSMT-65" transform="translate(1728.464844 0)"/>
     <use xlink:href="#TimesNewRomanPSMT-6c" transform="translate(1772.849609 0)"/>
     <use xlink:href="#TimesNewRomanPSMT-5f" transform="translate(1800.632812 0)"/>
     <use xlink:href="#TimesNewRomanPSMT-28" transform="translate(1850.632812 0)"/>
     <use xlink:href="#TimesNewRomanPSMT-31" transform="translate(1883.933594 0)"/>
     <use xlink:href="#TimesNewRomanPSMT-30" transform="translate(1933.933594 0)"/>
     <use xlink:href="#TimesNewRomanPSMT-32" transform="translate(1983.933594 0)"/>
     <use xlink:href="#TimesNewRomanPSMT-34" transform="translate(2033.933594 0)"/>
     <use xlink:href="#TimesNewRomanPSMT-2b" transform="translate(2083.933594 0)"/>
     <use xlink:href="#TimesNewRomanPSMT-36" transform="translate(2140.330078 0)"/>
     <use xlink:href="#TimesNewRomanPSMT-34" transform="translate(2190.330078 0)"/>
     <use xlink:href="#TimesNewRomanPSMT-2a" transform="translate(2240.330078 0)"/>
     <use xlink:href="#TimesNewRomanPSMT-38" transform="translate(2290.330078 0)"/>
     <use xlink:href="#TimesNewRomanPSMT-2b" transform="translate(2340.330078 0)"/>
     <use xlink:href="#TimesNewRomanPSMT-31" transform="translate(2396.726562 0)"/>
     <use xlink:href="#TimesNewRomanPSMT-29" transform="translate(2446.726562 0)"/>
     <use xlink:href="#TimesNewRomanPSMT-5f" transform="translate(2480.027344 0)"/>
     <use xlink:href="#TimesNewRomanPSMT-65" transform="translate(2530.027344 0)"/>
     <use xlink:href="#TimesNewRomanPSMT-6c" transform="translate(2574.412109 0)"/>
     <use xlink:href="#TimesNewRomanPSMT-6b" transform="translate(2602.195312 0)"/>
     <use xlink:href="#TimesNewRomanPSMT-5f" transform="translate(2652.195312 0)"/>
     <use xlink:href="#TimesNewRomanPSMT-68" transform="translate(2702.195312 0)"/>
     <use xlink:href="#TimesNewRomanPSMT-6f" transform="translate(2752.195312 0)"/>
     <use xlink:href="#TimesNewRomanPSMT-72" transform="translate(2802.195312 0)"/>
     <use xlink:href="#TimesNewRomanPSMT-73" transform="translate(2835.496094 0)"/>
     <use xlink:href="#TimesNewRomanPSMT-65" transform="translate(2874.412109 0)"/>
     <use xlink:href="#TimesNewRomanPSMT-5f" transform="translate(2918.796875 0)"/>
     <use xlink:href="#TimesNewRomanPSMT-73" transform="translate(2968.796875 0)"/>
     <use xlink:href="#TimesNewRomanPSMT-61" transform="translate(3007.712891 0)"/>
     <use xlink:href="#TimesNewRomanPSMT-76" transform="translate(3052.097656 0)"/>
     <use xlink:href="#TimesNewRomanPSMT-65" transform="translate(3102.097656 0)"/>
     <use xlink:href="#TimesNewRomanPSMT-5f" transform="translate(3146.482422 0)"/>
     <use xlink:href="#TimesNewRomanPSMT-35" transform="translate(3196.482422 0)"/>
     <use xlink:href="#TimesNewRomanPSMT-20" transform="translate(3246.482422 0)"/>
     <use xlink:href="#TimesNewRomanPSMT-6f" transform="translate(3271.482422 0)"/>
     <use xlink:href="#TimesNewRomanPSMT-6e" transform="translate(3321.482422 0)"/>
     <use xlink:href="#TimesNewRomanPSMT-20" transform="translate(3371.482422 0)"/>
     <use xlink:href="#TimesNewRomanPSMT-74" transform="translate(3396.482422 0)"/>
     <use xlink:href="#TimesNewRomanPSMT-68" transform="translate(3424.265625 0)"/>
     <use xlink:href="#TimesNewRomanPSMT-65" transform="translate(3474.265625 0)"/>
     <use xlink:href="#TimesNewRomanPSMT-20" transform="translate(3518.650391 0)"/>
     <use xlink:href="#TimesNewRomanPSMT-76" transform="translate(3543.650391 0)"/>
     <use xlink:href="#TimesNewRomanPSMT-61" transform="translate(3593.650391 0)"/>
     <use xlink:href="#TimesNewRomanPSMT-6c" transform="translate(3638.035156 0)"/>
     <use xlink:href="#TimesNewRomanPSMT-69" transform="translate(3665.818359 0)"/>
     <use xlink:href="#TimesNewRomanPSMT-64" transform="translate(3693.601562 0)"/>
     <use xlink:href="#TimesNewRomanPSMT-61" transform="translate(3743.601562 0)"/>
     <use xlink:href="#TimesNewRomanPSMT-74" transform="translate(3787.986328 0)"/>
     <use xlink:href="#TimesNewRomanPSMT-69" transform="translate(3815.769531 0)"/>
     <use xlink:href="#TimesNewRomanPSMT-6f" transform="translate(3843.552734 0)"/>
     <use xlink:href="#TimesNewRomanPSMT-6e" transform="translate(3893.552734 0)"/>
     <use xlink:href="#TimesNewRomanPSMT-20" transform="translate(3943.552734 0)"/>
     <use xlink:href="#TimesNewRomanPSMT-73" transform="translate(3968.552734 0)"/>
     <use xlink:href="#TimesNewRomanPSMT-65" transform="translate(4007.46875 0)"/>
     <use xlink:href="#TimesNewRomanPSMT-74" transform="translate(4051.853516 0)"/>
    </g>
   </g>
   <g id="legend_1">
    <g id="patch_7">
     <path d="M 471.708438 94.278687 
L 708.87875 94.278687 
Q 713.27875 94.278687 713.27875 89.878687 
L 713.27875 60.9315 
Q 713.27875 56.5315 708.87875 56.5315 
L 471.708438 56.5315 
Q 467.308438 56.5315 467.308438 60.9315 
L 467.308438 89.878687 
Q 467.308438 94.278687 471.708438 94.278687 
z
" style="fill: #ffffff; opacity: 0.8; stroke: #cccccc; stroke-linejoin: miter"/>
    </g>
    <g id="line2d_34">
     <path d="M 476.108438 73.0315 
L 498.108438 73.0315 
L 520.108438 73.0315 
" style="fill: none; stroke: #1f77b4; stroke-width: 1.5; stroke-linecap: square"/>
    </g>
    <g id="text_20">
     <!-- Best accuracy 0.74 -->
     <g transform="translate(537.708438 80.7315) scale(0.22 -0.22)">
      <defs>
       <path id="TimesNewRomanPSMT-42" d="M 2956 2163 
Q 3397 2069 3616 1863 
Q 3919 1575 3919 1159 
Q 3919 844 3719 555 
Q 3519 266 3170 133 
Q 2822 0 2106 0 
L 106 0 
L 106 116 
L 266 116 
Q 531 116 647 284 
Q 719 394 719 750 
L 719 3488 
Q 719 3881 628 3984 
Q 506 4122 266 4122 
L 106 4122 
L 106 4238 
L 1938 4238 
Q 2450 4238 2759 4163 
Q 3228 4050 3475 3764 
Q 3722 3478 3722 3106 
Q 3722 2788 3528 2536 
Q 3334 2284 2956 2163 
z
M 1319 2331 
Q 1434 2309 1582 2298 
Q 1731 2288 1909 2288 
Q 2366 2288 2595 2386 
Q 2825 2484 2947 2687 
Q 3069 2891 3069 3131 
Q 3069 3503 2766 3765 
Q 2463 4028 1881 4028 
Q 1569 4028 1319 3959 
L 1319 2331 
z
M 1319 306 
Q 1681 222 2034 222 
Q 2600 222 2897 476 
Q 3194 731 3194 1106 
Q 3194 1353 3059 1581 
Q 2925 1809 2622 1940 
Q 2319 2072 1872 2072 
Q 1678 2072 1540 2065 
Q 1403 2059 1319 2044 
L 1319 306 
z
" transform="scale(0.015625)"/>
      </defs>
      <use xlink:href="#TimesNewRomanPSMT-42"/>
      <use xlink:href="#TimesNewRomanPSMT-65" transform="translate(66.699219 0)"/>
      <use xlink:href="#TimesNewRomanPSMT-73" transform="translate(111.083984 0)"/>
      <use xlink:href="#TimesNewRomanPSMT-74" transform="translate(150 0)"/>
      <use xlink:href="#TimesNewRomanPSMT-20" transform="translate(177.783203 0)"/>
      <use xlink:href="#TimesNewRomanPSMT-61" transform="translate(202.783203 0)"/>
      <use xlink:href="#TimesNewRomanPSMT-63" transform="translate(247.167969 0)"/>
      <use xlink:href="#TimesNewRomanPSMT-63" transform="translate(291.552734 0)"/>
      <use xlink:href="#TimesNewRomanPSMT-75" transform="translate(335.9375 0)"/>
      <use xlink:href="#TimesNewRomanPSMT-72" transform="translate(385.9375 0)"/>
      <use xlink:href="#TimesNewRomanPSMT-61" transform="translate(419.238281 0)"/>
      <use xlink:href="#TimesNewRomanPSMT-63" transform="translate(463.623047 0)"/>
      <use xlink:href="#TimesNewRomanPSMT-79" transform="translate(508.007812 0)"/>
      <use xlink:href="#TimesNewRomanPSMT-20" transform="translate(558.007812 0)"/>
      <use xlink:href="#TimesNewRomanPSMT-30" transform="translate(583.007812 0)"/>
      <use xlink:href="#TimesNewRomanPSMT-2e" transform="translate(633.007812 0)"/>
      <use xlink:href="#TimesNewRomanPSMT-37" transform="translate(658.007812 0)"/>
      <use xlink:href="#TimesNewRomanPSMT-34" transform="translate(708.007812 0)"/>
     </g>
    </g>
   </g>
  </g>
 </g>
 <defs>
  <clipPath id="p60d137bf2a">
   <rect x="367.15875" y="45.5315" width="357.12" height="266.112"/>
  </clipPath>
 </defs>
</svg>
