<?xml version="1.0" encoding="utf-8" standalone="no"?>
<!DOCTYPE svg PUBLIC "-//W3C//DTD SVG 1.1//EN"
  "http://www.w3.org/Graphics/SVG/1.1/DTD/svg11.dtd">
<svg xmlns:xlink="http://www.w3.org/1999/xlink" width="1139.308125pt" height="383.265687pt" viewBox="0 0 1139.308125 383.265687" xmlns="http://www.w3.org/2000/svg" version="1.1">
 <metadata>
  <rdf:RDF xmlns:dc="http://purl.org/dc/elements/1.1/" xmlns:cc="http://creativecommons.org/ns#" xmlns:rdf="http://www.w3.org/1999/02/22-rdf-syntax-ns#">
   <cc:Work>
    <dc:type rdf:resource="http://purl.org/dc/dcmitype/StillImage"/>
    <dc:date>2025-07-12T01:08:10.878909</dc:date>
    <dc:format>image/svg+xml</dc:format>
    <dc:creator>
     <cc:Agent>
      <dc:title>Matplotlib v3.10.3, https://matplotlib.org/</dc:title>
     </cc:Agent>
    </dc:creator>
   </cc:Work>
  </rdf:RDF>
 </metadata>
 <defs>
  <style type="text/css">*{stroke-linejoin: round; stroke-linecap: butt}</style>
 </defs>
 <g id="figure_1">
  <g id="patch_1">
   <path d="M -0 383.265687 
L 1139.308125 383.265687 
L 1139.308125 0 
L -0 0 
z
" style="fill: #ffffff"/>
  </g>
  <g id="axes_1">
   <g id="patch_2">
    <path d="M 391.094063 311.6435 
L 748.214063 311.6435 
L 748.214063 45.5315 
L 391.094063 45.5315 
z
" style="fill: #ffffff"/>
   </g>
   <g id="matplotlib.axis_1">
    <g id="xtick_1">
     <g id="line2d_1">
      <path d="M 391.094063 311.6435 
L 391.094063 45.5315 
" clip-path="url(#p7ffe8addc4)" style="fill: none; stroke: #b0b0b0; stroke-opacity: 0.3; stroke-width: 0.8; stroke-linecap: square"/>
     </g>
     <g id="line2d_2">
      <defs>
       <path id="m2543ae4897" d="M 0 0 
L 0 3.5 
" style="stroke: #000000; stroke-width: 0.8"/>
      </defs>
      <g>
       <use xlink:href="#m2543ae4897" x="391.094063" y="311.6435" style="stroke: #000000; stroke-width: 0.8"/>
      </g>
     </g>
     <g id="text_1">
      <!-- 0.0 -->
      <g transform="translate(377.344063 333.91975) scale(0.22 -0.22)">
       <defs>
        <path id="TimesNewRomanPSMT-30" d="M 231 2094 
Q 231 2819 450 3342 
Q 669 3866 1031 4122 
Q 1313 4325 1613 4325 
Q 2100 4325 2488 3828 
Q 2972 3213 2972 2159 
Q 2972 1422 2759 906 
Q 2547 391 2217 158 
Q 1888 -75 1581 -75 
Q 975 -75 572 641 
Q 231 1244 231 2094 
z
M 844 2016 
Q 844 1141 1059 588 
Q 1238 122 1591 122 
Q 1759 122 1940 273 
Q 2122 425 2216 781 
Q 2359 1319 2359 2297 
Q 2359 3022 2209 3506 
Q 2097 3866 1919 4016 
Q 1791 4119 1609 4119 
Q 1397 4119 1231 3928 
Q 1006 3669 925 3112 
Q 844 2556 844 2016 
z
" transform="scale(0.015625)"/>
        <path id="TimesNewRomanPSMT-2e" d="M 800 606 
Q 947 606 1047 504 
Q 1147 403 1147 259 
Q 1147 116 1045 14 
Q 944 -88 800 -88 
Q 656 -88 554 14 
Q 453 116 453 259 
Q 453 406 554 506 
Q 656 606 800 606 
z
" transform="scale(0.015625)"/>
       </defs>
       <use xlink:href="#TimesNewRomanPSMT-30"/>
       <use xlink:href="#TimesNewRomanPSMT-2e" transform="translate(50 0)"/>
       <use xlink:href="#TimesNewRomanPSMT-30" transform="translate(75 0)"/>
      </g>
     </g>
    </g>
    <g id="xtick_2">
     <g id="line2d_3">
      <path d="M 517.411734 311.6435 
L 517.411734 45.5315 
" clip-path="url(#p7ffe8addc4)" style="fill: none; stroke: #b0b0b0; stroke-opacity: 0.3; stroke-width: 0.8; stroke-linecap: square"/>
     </g>
     <g id="line2d_4">
      <g>
       <use xlink:href="#m2543ae4897" x="517.411734" y="311.6435" style="stroke: #000000; stroke-width: 0.8"/>
      </g>
     </g>
     <g id="text_2">
      <!-- 0.5 -->
      <g transform="translate(503.661734 333.91975) scale(0.22 -0.22)">
       <defs>
        <path id="TimesNewRomanPSMT-35" d="M 2778 4238 
L 2534 3706 
L 1259 3706 
L 981 3138 
Q 1809 3016 2294 2522 
Q 2709 2097 2709 1522 
Q 2709 1188 2573 903 
Q 2438 619 2231 419 
Q 2025 219 1772 97 
Q 1413 -75 1034 -75 
Q 653 -75 479 54 
Q 306 184 306 341 
Q 306 428 378 495 
Q 450 563 559 563 
Q 641 563 702 538 
Q 763 513 909 409 
Q 1144 247 1384 247 
Q 1750 247 2026 523 
Q 2303 800 2303 1197 
Q 2303 1581 2056 1914 
Q 1809 2247 1375 2428 
Q 1034 2569 447 2591 
L 1259 4238 
L 2778 4238 
z
" transform="scale(0.015625)"/>
       </defs>
       <use xlink:href="#TimesNewRomanPSMT-30"/>
       <use xlink:href="#TimesNewRomanPSMT-2e" transform="translate(50 0)"/>
       <use xlink:href="#TimesNewRomanPSMT-35" transform="translate(75 0)"/>
      </g>
     </g>
    </g>
    <g id="xtick_3">
     <g id="line2d_5">
      <path d="M 643.729405 311.6435 
L 643.729405 45.5315 
" clip-path="url(#p7ffe8addc4)" style="fill: none; stroke: #b0b0b0; stroke-opacity: 0.3; stroke-width: 0.8; stroke-linecap: square"/>
     </g>
     <g id="line2d_6">
      <g>
       <use xlink:href="#m2543ae4897" x="643.729405" y="311.6435" style="stroke: #000000; stroke-width: 0.8"/>
      </g>
     </g>
     <g id="text_3">
      <!-- 1.0 -->
      <g transform="translate(629.979405 333.91975) scale(0.22 -0.22)">
       <defs>
        <path id="TimesNewRomanPSMT-31" d="M 750 3822 
L 1781 4325 
L 1884 4325 
L 1884 747 
Q 1884 391 1914 303 
Q 1944 216 2037 169 
Q 2131 122 2419 116 
L 2419 0 
L 825 0 
L 825 116 
Q 1125 122 1212 167 
Q 1300 213 1334 289 
Q 1369 366 1369 747 
L 1369 3034 
Q 1369 3497 1338 3628 
Q 1316 3728 1258 3775 
Q 1200 3822 1119 3822 
Q 1003 3822 797 3725 
L 750 3822 
z
" transform="scale(0.015625)"/>
       </defs>
       <use xlink:href="#TimesNewRomanPSMT-31"/>
       <use xlink:href="#TimesNewRomanPSMT-2e" transform="translate(50 0)"/>
       <use xlink:href="#TimesNewRomanPSMT-30" transform="translate(75 0)"/>
      </g>
     </g>
    </g>
    <g id="text_4">
     <!-- $\kappa  = \frac{ln(n)}{ln(d)}$ -->
     <g transform="translate(537.644063 364.185687) scale(0.22 -0.22)">
      <defs>
       <path id="STIXGeneral-Italic-3ba" d="M 979 1440 
L 998 1446 
Q 1850 2541 2464 2790 
Q 2547 2822 2630 2822 
Q 2797 2822 2886 2736 
Q 2976 2650 2976 2522 
Q 2976 2387 2893 2307 
Q 2810 2227 2682 2227 
Q 2605 2227 2502 2288 
Q 2400 2349 2336 2349 
Q 2170 2349 1990 2205 
Q 1811 2061 1414 1645 
L 2042 544 
Q 2202 262 2310 182 
Q 2419 102 2624 102 
L 2624 0 
Q 2374 -83 2182 -83 
Q 1786 -83 1555 326 
L 960 1350 
L 576 0 
L 90 0 
L 640 1978 
Q 730 2317 730 2406 
Q 730 2560 518 2560 
L 339 2560 
L 339 2650 
Q 678 2694 1306 2822 
L 1325 2803 
L 979 1440 
z
" transform="scale(0.015625)"/>
       <path id="STIXGeneral-Regular-3d" d="M 4077 2048 
L 307 2048 
L 307 2470 
L 4077 2470 
L 4077 2048 
z
M 4077 768 
L 307 768 
L 307 1190 
L 4077 1190 
L 4077 768 
z
" transform="scale(0.015625)"/>
       <path id="STIXGeneral-Italic-6c" d="M 1786 4339 
L 806 595 
Q 755 410 755 320 
Q 755 205 864 205 
Q 1037 205 1293 570 
L 1453 794 
L 1542 730 
Q 1254 275 1046 102 
Q 838 -70 576 -70 
Q 262 -70 262 288 
Q 262 397 288 480 
L 1165 3834 
Q 1184 3898 1184 3955 
Q 1184 4096 870 4096 
L 755 4096 
L 755 4198 
Q 1203 4250 1747 4371 
L 1786 4339 
z
" transform="scale(0.015625)"/>
       <path id="STIXGeneral-Italic-6e" d="M 2944 749 
L 3034 666 
Q 2707 218 2534 80 
Q 2362 -58 2138 -58 
Q 2010 -58 1923 28 
Q 1837 115 1837 288 
Q 1837 390 1939 768 
L 2221 1805 
Q 2310 2150 2310 2310 
Q 2310 2496 2157 2496 
Q 1971 2496 1750 2275 
Q 1530 2054 1210 1587 
Q 998 1274 899 1024 
Q 800 774 570 0 
L 90 0 
L 704 2240 
Q 717 2304 717 2349 
Q 717 2445 630 2480 
Q 544 2515 301 2522 
L 301 2624 
Q 550 2675 857 2729 
Q 1165 2784 1338 2822 
L 1363 2810 
L 934 1414 
Q 1408 2170 1753 2496 
Q 2099 2822 2413 2822 
Q 2611 2822 2720 2716 
Q 2829 2611 2829 2432 
Q 2829 2272 2765 2048 
L 2406 749 
Q 2317 429 2317 358 
Q 2317 243 2419 243 
Q 2541 243 2810 582 
Q 2854 634 2944 749 
z
" transform="scale(0.015625)"/>
       <path id="STIXGeneral-Regular-28" d="M 1946 -1030 
L 1869 -1133 
Q 1126 -710 716 32 
Q 307 774 307 1613 
Q 307 3386 1888 4326 
L 1946 4224 
Q 1293 3667 1075 3126 
Q 858 2586 858 1632 
Q 858 685 1082 96 
Q 1306 -493 1946 -1030 
z
" transform="scale(0.015625)"/>
       <path id="STIXGeneral-Regular-29" d="M 186 4224 
L 262 4326 
Q 992 3891 1408 3148 
Q 1824 2406 1824 1581 
Q 1824 -166 243 -1133 
L 186 -1030 
Q 845 -486 1059 54 
Q 1274 595 1274 1562 
Q 1274 2534 1059 3120 
Q 845 3706 186 4224 
z
" transform="scale(0.015625)"/>
       <path id="STIXGeneral-Italic-64" d="M 3334 4371 
L 3373 4333 
L 3123 3360 
L 2739 1958 
Q 2323 429 2323 384 
Q 2323 256 2438 256 
Q 2522 256 2614 336 
Q 2707 416 2963 710 
L 3040 646 
Q 2547 -83 2099 -83 
Q 1978 -83 1907 -6 
Q 1837 70 1837 205 
Q 1837 397 1920 774 
Q 1645 307 1379 118 
Q 1114 -70 781 -70 
Q 461 -70 278 125 
Q 96 320 96 678 
Q 96 1440 713 2131 
Q 1331 2822 1965 2822 
Q 2163 2822 2256 2732 
Q 2349 2643 2381 2451 
L 2387 2451 
L 2675 3494 
Q 2765 3808 2765 3949 
Q 2765 4051 2694 4076 
Q 2624 4102 2355 4115 
L 2355 4224 
Q 2848 4269 3334 4371 
z
M 2278 2310 
Q 2278 2477 2185 2576 
Q 2093 2675 1978 2675 
Q 1677 2675 1395 2381 
Q 1075 2042 864 1571 
Q 653 1101 653 704 
Q 653 486 752 361 
Q 851 237 1024 237 
Q 1312 237 1606 550 
Q 1901 864 2089 1350 
Q 2278 1837 2278 2310 
z
" transform="scale(0.015625)"/>
      </defs>
      <use xlink:href="#STIXGeneral-Italic-3ba" transform="translate(0 0.003125)"/>
      <use xlink:href="#STIXGeneral-Regular-3d" transform="translate(58.83999 0.003125)"/>
      <use xlink:href="#STIXGeneral-Italic-6c" transform="translate(141.779971 50.192188) scale(0.7)"/>
      <use xlink:href="#STIXGeneral-Italic-6e" transform="translate(161.239963 50.192188) scale(0.7)"/>
      <use xlink:href="#STIXGeneral-Regular-28" transform="translate(196.239952 50.192188) scale(0.7)"/>
      <use xlink:href="#STIXGeneral-Italic-6e" transform="translate(219.549944 50.192188) scale(0.7)"/>
      <use xlink:href="#STIXGeneral-Regular-29" transform="translate(254.549933 50.192188) scale(0.7)"/>
      <use xlink:href="#STIXGeneral-Italic-6c" transform="translate(141.779971 -41.257812) scale(0.7)"/>
      <use xlink:href="#STIXGeneral-Italic-6e" transform="translate(161.239963 -41.257812) scale(0.7)"/>
      <use xlink:href="#STIXGeneral-Regular-28" transform="translate(196.239952 -41.257812) scale(0.7)"/>
      <use xlink:href="#STIXGeneral-Italic-64" transform="translate(219.549944 -41.257812) scale(0.7)"/>
      <use xlink:href="#STIXGeneral-Regular-29" transform="translate(254.549933 -41.257812) scale(0.7)"/>
      <path d="M 141.779971 12.8 
L 141.779971 19.05 
L 277.859924 19.05 
L 277.859924 12.8 
L 141.779971 12.8 
z
"/>
     </g>
    </g>
   </g>
   <g id="matplotlib.axis_2">
    <g id="ytick_1">
     <g id="line2d_7">
      <path d="M 391.094063 311.6435 
L 748.214063 311.6435 
" clip-path="url(#p7ffe8addc4)" style="fill: none; stroke: #b0b0b0; stroke-opacity: 0.3; stroke-width: 0.8; stroke-linecap: square"/>
     </g>
     <g id="line2d_8">
      <defs>
       <path id="m23c29eb61f" d="M 0 0 
L -3.5 0 
" style="stroke: #000000; stroke-width: 0.8"/>
      </defs>
      <g>
       <use xlink:href="#m23c29eb61f" x="391.094063" y="311.6435" style="stroke: #000000; stroke-width: 0.8"/>
      </g>
     </g>
     <g id="text_5">
      <!-- 0.0 -->
      <g transform="translate(356.594063 319.281625) scale(0.22 -0.22)">
       <use xlink:href="#TimesNewRomanPSMT-30"/>
       <use xlink:href="#TimesNewRomanPSMT-2e" transform="translate(50 0)"/>
       <use xlink:href="#TimesNewRomanPSMT-30" transform="translate(75 0)"/>
      </g>
     </g>
    </g>
    <g id="ytick_2">
     <g id="line2d_9">
      <path d="M 391.094063 285.0323 
L 748.214063 285.0323 
" clip-path="url(#p7ffe8addc4)" style="fill: none; stroke: #b0b0b0; stroke-opacity: 0.3; stroke-width: 0.8; stroke-linecap: square"/>
     </g>
     <g id="line2d_10">
      <g>
       <use xlink:href="#m23c29eb61f" x="391.094063" y="285.0323" style="stroke: #000000; stroke-width: 0.8"/>
      </g>
     </g>
     <g id="text_6">
      <!-- 0.1 -->
      <g transform="translate(356.594063 292.670425) scale(0.22 -0.22)">
       <use xlink:href="#TimesNewRomanPSMT-30"/>
       <use xlink:href="#TimesNewRomanPSMT-2e" transform="translate(50 0)"/>
       <use xlink:href="#TimesNewRomanPSMT-31" transform="translate(75 0)"/>
      </g>
     </g>
    </g>
    <g id="ytick_3">
     <g id="line2d_11">
      <path d="M 391.094063 258.4211 
L 748.214063 258.4211 
" clip-path="url(#p7ffe8addc4)" style="fill: none; stroke: #b0b0b0; stroke-opacity: 0.3; stroke-width: 0.8; stroke-linecap: square"/>
     </g>
     <g id="line2d_12">
      <g>
       <use xlink:href="#m23c29eb61f" x="391.094063" y="258.4211" style="stroke: #000000; stroke-width: 0.8"/>
      </g>
     </g>
     <g id="text_7">
      <!-- 0.2 -->
      <g transform="translate(356.594063 266.059225) scale(0.22 -0.22)">
       <defs>
        <path id="TimesNewRomanPSMT-32" d="M 2934 816 
L 2638 0 
L 138 0 
L 138 116 
Q 1241 1122 1691 1759 
Q 2141 2397 2141 2925 
Q 2141 3328 1894 3587 
Q 1647 3847 1303 3847 
Q 991 3847 742 3664 
Q 494 3481 375 3128 
L 259 3128 
Q 338 3706 661 4015 
Q 984 4325 1469 4325 
Q 1984 4325 2329 3994 
Q 2675 3663 2675 3213 
Q 2675 2891 2525 2569 
Q 2294 2063 1775 1497 
Q 997 647 803 472 
L 1909 472 
Q 2247 472 2383 497 
Q 2519 522 2628 598 
Q 2738 675 2819 816 
L 2934 816 
z
" transform="scale(0.015625)"/>
       </defs>
       <use xlink:href="#TimesNewRomanPSMT-30"/>
       <use xlink:href="#TimesNewRomanPSMT-2e" transform="translate(50 0)"/>
       <use xlink:href="#TimesNewRomanPSMT-32" transform="translate(75 0)"/>
      </g>
     </g>
    </g>
    <g id="ytick_4">
     <g id="line2d_13">
      <path d="M 391.094063 231.8099 
L 748.214063 231.8099 
" clip-path="url(#p7ffe8addc4)" style="fill: none; stroke: #b0b0b0; stroke-opacity: 0.3; stroke-width: 0.8; stroke-linecap: square"/>
     </g>
     <g id="line2d_14">
      <g>
       <use xlink:href="#m23c29eb61f" x="391.094063" y="231.8099" style="stroke: #000000; stroke-width: 0.8"/>
      </g>
     </g>
     <g id="text_8">
      <!-- 0.3 -->
      <g transform="translate(356.594063 239.448025) scale(0.22 -0.22)">
       <defs>
        <path id="TimesNewRomanPSMT-33" d="M 325 3431 
Q 506 3859 782 4092 
Q 1059 4325 1472 4325 
Q 1981 4325 2253 3994 
Q 2459 3747 2459 3466 
Q 2459 3003 1878 2509 
Q 2269 2356 2469 2072 
Q 2669 1788 2669 1403 
Q 2669 853 2319 450 
Q 1863 -75 997 -75 
Q 569 -75 414 31 
Q 259 138 259 259 
Q 259 350 332 419 
Q 406 488 509 488 
Q 588 488 669 463 
Q 722 447 909 348 
Q 1097 250 1169 231 
Q 1284 197 1416 197 
Q 1734 197 1970 444 
Q 2206 691 2206 1028 
Q 2206 1275 2097 1509 
Q 2016 1684 1919 1775 
Q 1784 1900 1550 2001 
Q 1316 2103 1072 2103 
L 972 2103 
L 972 2197 
Q 1219 2228 1467 2375 
Q 1716 2522 1828 2728 
Q 1941 2934 1941 3181 
Q 1941 3503 1739 3701 
Q 1538 3900 1238 3900 
Q 753 3900 428 3381 
L 325 3431 
z
" transform="scale(0.015625)"/>
       </defs>
       <use xlink:href="#TimesNewRomanPSMT-30"/>
       <use xlink:href="#TimesNewRomanPSMT-2e" transform="translate(50 0)"/>
       <use xlink:href="#TimesNewRomanPSMT-33" transform="translate(75 0)"/>
      </g>
     </g>
    </g>
    <g id="ytick_5">
     <g id="line2d_15">
      <path d="M 391.094063 205.1987 
L 748.214063 205.1987 
" clip-path="url(#p7ffe8addc4)" style="fill: none; stroke: #b0b0b0; stroke-opacity: 0.3; stroke-width: 0.8; stroke-linecap: square"/>
     </g>
     <g id="line2d_16">
      <g>
       <use xlink:href="#m23c29eb61f" x="391.094063" y="205.1987" style="stroke: #000000; stroke-width: 0.8"/>
      </g>
     </g>
     <g id="text_9">
      <!-- 0.4 -->
      <g transform="translate(356.594063 212.836825) scale(0.22 -0.22)">
       <defs>
        <path id="TimesNewRomanPSMT-34" d="M 2978 1563 
L 2978 1119 
L 2409 1119 
L 2409 0 
L 1894 0 
L 1894 1119 
L 100 1119 
L 100 1519 
L 2066 4325 
L 2409 4325 
L 2409 1563 
L 2978 1563 
z
M 1894 1563 
L 1894 3666 
L 406 1563 
L 1894 1563 
z
" transform="scale(0.015625)"/>
       </defs>
       <use xlink:href="#TimesNewRomanPSMT-30"/>
       <use xlink:href="#TimesNewRomanPSMT-2e" transform="translate(50 0)"/>
       <use xlink:href="#TimesNewRomanPSMT-34" transform="translate(75 0)"/>
      </g>
     </g>
    </g>
    <g id="ytick_6">
     <g id="line2d_17">
      <path d="M 391.094063 178.5875 
L 748.214063 178.5875 
" clip-path="url(#p7ffe8addc4)" style="fill: none; stroke: #b0b0b0; stroke-opacity: 0.3; stroke-width: 0.8; stroke-linecap: square"/>
     </g>
     <g id="line2d_18">
      <g>
       <use xlink:href="#m23c29eb61f" x="391.094063" y="178.5875" style="stroke: #000000; stroke-width: 0.8"/>
      </g>
     </g>
     <g id="text_10">
      <!-- 0.5 -->
      <g transform="translate(356.594063 186.225625) scale(0.22 -0.22)">
       <use xlink:href="#TimesNewRomanPSMT-30"/>
       <use xlink:href="#TimesNewRomanPSMT-2e" transform="translate(50 0)"/>
       <use xlink:href="#TimesNewRomanPSMT-35" transform="translate(75 0)"/>
      </g>
     </g>
    </g>
    <g id="ytick_7">
     <g id="line2d_19">
      <path d="M 391.094063 151.9763 
L 748.214063 151.9763 
" clip-path="url(#p7ffe8addc4)" style="fill: none; stroke: #b0b0b0; stroke-opacity: 0.3; stroke-width: 0.8; stroke-linecap: square"/>
     </g>
     <g id="line2d_20">
      <g>
       <use xlink:href="#m23c29eb61f" x="391.094063" y="151.9763" style="stroke: #000000; stroke-width: 0.8"/>
      </g>
     </g>
     <g id="text_11">
      <!-- 0.6 -->
      <g transform="translate(356.594063 159.614425) scale(0.22 -0.22)">
       <defs>
        <path id="TimesNewRomanPSMT-36" d="M 2869 4325 
L 2869 4209 
Q 2456 4169 2195 4045 
Q 1934 3922 1679 3669 
Q 1425 3416 1258 3105 
Q 1091 2794 978 2366 
Q 1428 2675 1881 2675 
Q 2316 2675 2634 2325 
Q 2953 1975 2953 1425 
Q 2953 894 2631 456 
Q 2244 -75 1606 -75 
Q 1172 -75 869 213 
Q 275 772 275 1663 
Q 275 2231 503 2743 
Q 731 3256 1154 3653 
Q 1578 4050 1965 4187 
Q 2353 4325 2688 4325 
L 2869 4325 
z
M 925 2138 
Q 869 1716 869 1456 
Q 869 1156 980 804 
Q 1091 453 1309 247 
Q 1469 100 1697 100 
Q 1969 100 2183 356 
Q 2397 613 2397 1088 
Q 2397 1622 2184 2012 
Q 1972 2403 1581 2403 
Q 1463 2403 1327 2353 
Q 1191 2303 925 2138 
z
" transform="scale(0.015625)"/>
       </defs>
       <use xlink:href="#TimesNewRomanPSMT-30"/>
       <use xlink:href="#TimesNewRomanPSMT-2e" transform="translate(50 0)"/>
       <use xlink:href="#TimesNewRomanPSMT-36" transform="translate(75 0)"/>
      </g>
     </g>
    </g>
    <g id="ytick_8">
     <g id="line2d_21">
      <path d="M 391.094063 125.3651 
L 748.214063 125.3651 
" clip-path="url(#p7ffe8addc4)" style="fill: none; stroke: #b0b0b0; stroke-opacity: 0.3; stroke-width: 0.8; stroke-linecap: square"/>
     </g>
     <g id="line2d_22">
      <g>
       <use xlink:href="#m23c29eb61f" x="391.094063" y="125.3651" style="stroke: #000000; stroke-width: 0.8"/>
      </g>
     </g>
     <g id="text_12">
      <!-- 0.7 -->
      <g transform="translate(356.594063 133.003225) scale(0.22 -0.22)">
       <defs>
        <path id="TimesNewRomanPSMT-37" d="M 644 4238 
L 2916 4238 
L 2916 4119 
L 1503 -88 
L 1153 -88 
L 2419 3728 
L 1253 3728 
Q 900 3728 750 3644 
Q 488 3500 328 3200 
L 238 3234 
L 644 4238 
z
" transform="scale(0.015625)"/>
       </defs>
       <use xlink:href="#TimesNewRomanPSMT-30"/>
       <use xlink:href="#TimesNewRomanPSMT-2e" transform="translate(50 0)"/>
       <use xlink:href="#TimesNewRomanPSMT-37" transform="translate(75 0)"/>
      </g>
     </g>
    </g>
    <g id="ytick_9">
     <g id="line2d_23">
      <path d="M 391.094063 98.7539 
L 748.214063 98.7539 
" clip-path="url(#p7ffe8addc4)" style="fill: none; stroke: #b0b0b0; stroke-opacity: 0.3; stroke-width: 0.8; stroke-linecap: square"/>
     </g>
     <g id="line2d_24">
      <g>
       <use xlink:href="#m23c29eb61f" x="391.094063" y="98.7539" style="stroke: #000000; stroke-width: 0.8"/>
      </g>
     </g>
     <g id="text_13">
      <!-- 0.8 -->
      <g transform="translate(356.594063 106.392025) scale(0.22 -0.22)">
       <defs>
        <path id="TimesNewRomanPSMT-38" d="M 1228 2134 
Q 725 2547 579 2797 
Q 434 3047 434 3316 
Q 434 3728 753 4026 
Q 1072 4325 1600 4325 
Q 2113 4325 2425 4047 
Q 2738 3769 2738 3413 
Q 2738 3175 2569 2928 
Q 2400 2681 1866 2347 
Q 2416 1922 2594 1678 
Q 2831 1359 2831 1006 
Q 2831 559 2490 242 
Q 2150 -75 1597 -75 
Q 994 -75 656 303 
Q 388 606 388 966 
Q 388 1247 577 1523 
Q 766 1800 1228 2134 
z
M 1719 2469 
Q 2094 2806 2194 3001 
Q 2294 3197 2294 3444 
Q 2294 3772 2109 3958 
Q 1925 4144 1606 4144 
Q 1288 4144 1088 3959 
Q 888 3775 888 3528 
Q 888 3366 970 3203 
Q 1053 3041 1206 2894 
L 1719 2469 
z
M 1375 2016 
Q 1116 1797 991 1539 
Q 866 1281 866 981 
Q 866 578 1086 336 
Q 1306 94 1647 94 
Q 1984 94 2187 284 
Q 2391 475 2391 747 
Q 2391 972 2272 1150 
Q 2050 1481 1375 2016 
z
" transform="scale(0.015625)"/>
       </defs>
       <use xlink:href="#TimesNewRomanPSMT-30"/>
       <use xlink:href="#TimesNewRomanPSMT-2e" transform="translate(50 0)"/>
       <use xlink:href="#TimesNewRomanPSMT-38" transform="translate(75 0)"/>
      </g>
     </g>
    </g>
    <g id="ytick_10">
     <g id="line2d_25">
      <path d="M 391.094063 72.1427 
L 748.214063 72.1427 
" clip-path="url(#p7ffe8addc4)" style="fill: none; stroke: #b0b0b0; stroke-opacity: 0.3; stroke-width: 0.8; stroke-linecap: square"/>
     </g>
     <g id="line2d_26">
      <g>
       <use xlink:href="#m23c29eb61f" x="391.094063" y="72.1427" style="stroke: #000000; stroke-width: 0.8"/>
      </g>
     </g>
     <g id="text_14">
      <!-- 0.9 -->
      <g transform="translate(356.594063 79.780825) scale(0.22 -0.22)">
       <defs>
        <path id="TimesNewRomanPSMT-39" d="M 338 -88 
L 338 28 
Q 744 34 1094 217 
Q 1444 400 1770 856 
Q 2097 1313 2225 1859 
Q 1734 1544 1338 1544 
Q 891 1544 572 1889 
Q 253 2234 253 2806 
Q 253 3363 572 3797 
Q 956 4325 1575 4325 
Q 2097 4325 2469 3894 
Q 2925 3359 2925 2575 
Q 2925 1869 2578 1258 
Q 2231 647 1613 244 
Q 1109 -88 516 -88 
L 338 -88 
z
M 2275 2091 
Q 2331 2497 2331 2741 
Q 2331 3044 2228 3395 
Q 2125 3747 1936 3934 
Q 1747 4122 1506 4122 
Q 1228 4122 1018 3872 
Q 809 3622 809 3128 
Q 809 2469 1088 2097 
Q 1291 1828 1588 1828 
Q 1731 1828 1928 1897 
Q 2125 1966 2275 2091 
z
" transform="scale(0.015625)"/>
       </defs>
       <use xlink:href="#TimesNewRomanPSMT-30"/>
       <use xlink:href="#TimesNewRomanPSMT-2e" transform="translate(50 0)"/>
       <use xlink:href="#TimesNewRomanPSMT-39" transform="translate(75 0)"/>
      </g>
     </g>
    </g>
    <g id="ytick_11">
     <g id="line2d_27">
      <path d="M 391.094063 45.5315 
L 748.214063 45.5315 
" clip-path="url(#p7ffe8addc4)" style="fill: none; stroke: #b0b0b0; stroke-opacity: 0.3; stroke-width: 0.8; stroke-linecap: square"/>
     </g>
     <g id="line2d_28">
      <g>
       <use xlink:href="#m23c29eb61f" x="391.094063" y="45.5315" style="stroke: #000000; stroke-width: 0.8"/>
      </g>
     </g>
     <g id="text_15">
      <!-- 1.0 -->
      <g transform="translate(356.594063 53.169625) scale(0.22 -0.22)">
       <use xlink:href="#TimesNewRomanPSMT-31"/>
       <use xlink:href="#TimesNewRomanPSMT-2e" transform="translate(50 0)"/>
       <use xlink:href="#TimesNewRomanPSMT-30" transform="translate(75 0)"/>
      </g>
     </g>
    </g>
    <g id="text_16">
     <!-- Accuracy -->
     <g transform="translate(347.846875 220.726094) rotate(-90) scale(0.22 -0.22)">
      <defs>
       <path id="TimesNewRomanPSMT-41" d="M 2928 1419 
L 1288 1419 
L 1000 750 
Q 894 503 894 381 
Q 894 284 986 211 
Q 1078 138 1384 116 
L 1384 0 
L 50 0 
L 50 116 
Q 316 163 394 238 
Q 553 388 747 847 
L 2238 4334 
L 2347 4334 
L 3822 809 
Q 4000 384 4145 257 
Q 4291 131 4550 116 
L 4550 0 
L 2878 0 
L 2878 116 
Q 3131 128 3220 200 
Q 3309 272 3309 375 
Q 3309 513 3184 809 
L 2928 1419 
z
M 2841 1650 
L 2122 3363 
L 1384 1650 
L 2841 1650 
z
" transform="scale(0.015625)"/>
       <path id="TimesNewRomanPSMT-63" d="M 2631 1088 
Q 2516 522 2178 217 
Q 1841 -88 1431 -88 
Q 944 -88 581 321 
Q 219 731 219 1428 
Q 219 2103 620 2525 
Q 1022 2947 1584 2947 
Q 2006 2947 2278 2723 
Q 2550 2500 2550 2259 
Q 2550 2141 2473 2067 
Q 2397 1994 2259 1994 
Q 2075 1994 1981 2113 
Q 1928 2178 1911 2362 
Q 1894 2547 1784 2644 
Q 1675 2738 1481 2738 
Q 1169 2738 978 2506 
Q 725 2200 725 1697 
Q 725 1184 976 792 
Q 1228 400 1656 400 
Q 1963 400 2206 609 
Q 2378 753 2541 1131 
L 2631 1088 
z
" transform="scale(0.015625)"/>
       <path id="TimesNewRomanPSMT-75" d="M 2709 2863 
L 2709 1128 
Q 2709 631 2732 520 
Q 2756 409 2807 365 
Q 2859 322 2928 322 
Q 3025 322 3147 375 
L 3191 266 
L 2334 -88 
L 2194 -88 
L 2194 519 
Q 1825 119 1631 15 
Q 1438 -88 1222 -88 
Q 981 -88 804 51 
Q 628 191 559 409 
Q 491 628 491 1028 
L 491 2306 
Q 491 2509 447 2587 
Q 403 2666 317 2708 
Q 231 2750 6 2747 
L 6 2863 
L 1009 2863 
L 1009 947 
Q 1009 547 1148 422 
Q 1288 297 1484 297 
Q 1619 297 1789 381 
Q 1959 466 2194 703 
L 2194 2325 
Q 2194 2569 2105 2655 
Q 2016 2741 1734 2747 
L 1734 2863 
L 2709 2863 
z
" transform="scale(0.015625)"/>
       <path id="TimesNewRomanPSMT-72" d="M 1038 2947 
L 1038 2303 
Q 1397 2947 1775 2947 
Q 1947 2947 2059 2842 
Q 2172 2738 2172 2600 
Q 2172 2478 2090 2393 
Q 2009 2309 1897 2309 
Q 1788 2309 1652 2417 
Q 1516 2525 1450 2525 
Q 1394 2525 1328 2463 
Q 1188 2334 1038 2041 
L 1038 669 
Q 1038 431 1097 309 
Q 1138 225 1241 169 
Q 1344 113 1538 113 
L 1538 0 
L 72 0 
L 72 113 
Q 291 113 397 181 
Q 475 231 506 341 
Q 522 394 522 644 
L 522 1753 
Q 522 2253 501 2348 
Q 481 2444 426 2487 
Q 372 2531 291 2531 
Q 194 2531 72 2484 
L 41 2597 
L 906 2947 
L 1038 2947 
z
" transform="scale(0.015625)"/>
       <path id="TimesNewRomanPSMT-61" d="M 1822 413 
Q 1381 72 1269 19 
Q 1100 -59 909 -59 
Q 613 -59 420 144 
Q 228 347 228 678 
Q 228 888 322 1041 
Q 450 1253 767 1440 
Q 1084 1628 1822 1897 
L 1822 2009 
Q 1822 2438 1686 2597 
Q 1550 2756 1291 2756 
Q 1094 2756 978 2650 
Q 859 2544 859 2406 
L 866 2225 
Q 866 2081 792 2003 
Q 719 1925 600 1925 
Q 484 1925 411 2006 
Q 338 2088 338 2228 
Q 338 2497 613 2722 
Q 888 2947 1384 2947 
Q 1766 2947 2009 2819 
Q 2194 2722 2281 2516 
Q 2338 2381 2338 1966 
L 2338 994 
Q 2338 584 2353 492 
Q 2369 400 2405 369 
Q 2441 338 2488 338 
Q 2538 338 2575 359 
Q 2641 400 2828 588 
L 2828 413 
Q 2478 -56 2159 -56 
Q 2006 -56 1915 50 
Q 1825 156 1822 413 
z
M 1822 616 
L 1822 1706 
Q 1350 1519 1213 1441 
Q 966 1303 859 1153 
Q 753 1003 753 825 
Q 753 600 887 451 
Q 1022 303 1197 303 
Q 1434 303 1822 616 
z
" transform="scale(0.015625)"/>
       <path id="TimesNewRomanPSMT-79" d="M 38 2863 
L 1372 2863 
L 1372 2747 
L 1306 2747 
Q 1166 2747 1095 2686 
Q 1025 2625 1025 2534 
Q 1025 2413 1128 2197 
L 1825 753 
L 2466 2334 
Q 2519 2463 2519 2588 
Q 2519 2644 2497 2672 
Q 2472 2706 2419 2726 
Q 2366 2747 2231 2747 
L 2231 2863 
L 3163 2863 
L 3163 2747 
Q 3047 2734 2984 2696 
Q 2922 2659 2847 2556 
Q 2819 2513 2741 2316 
L 1575 -541 
Q 1406 -956 1132 -1168 
Q 859 -1381 606 -1381 
Q 422 -1381 303 -1275 
Q 184 -1169 184 -1031 
Q 184 -900 270 -820 
Q 356 -741 506 -741 
Q 609 -741 788 -809 
Q 913 -856 944 -856 
Q 1038 -856 1148 -759 
Q 1259 -663 1372 -384 
L 1575 113 
L 547 2272 
Q 500 2369 397 2513 
Q 319 2622 269 2659 
Q 197 2709 38 2747 
L 38 2863 
z
" transform="scale(0.015625)"/>
      </defs>
      <use xlink:href="#TimesNewRomanPSMT-41"/>
      <use xlink:href="#TimesNewRomanPSMT-63" transform="translate(72.216797 0)"/>
      <use xlink:href="#TimesNewRomanPSMT-63" transform="translate(116.601562 0)"/>
      <use xlink:href="#TimesNewRomanPSMT-75" transform="translate(160.986328 0)"/>
      <use xlink:href="#TimesNewRomanPSMT-72" transform="translate(210.986328 0)"/>
      <use xlink:href="#TimesNewRomanPSMT-61" transform="translate(244.287109 0)"/>
      <use xlink:href="#TimesNewRomanPSMT-63" transform="translate(288.671875 0)"/>
      <use xlink:href="#TimesNewRomanPSMT-79" transform="translate(333.056641 0)"/>
     </g>
    </g>
   </g>
   <g id="line2d_29">
    <path d="M 391.094063 178.5875 
L 478.509945 152.065007 
L 502.078814 147.230641 
L 516.274172 143.771181 
L 526.464521 142.248429 
L 534.419431 140.17866 
L 540.94537 139.498598 
L 546.478378 138.286318 
L 551.281084 137.901931 
L 555.523987 137.17752 
L 565.909088 135.107751 
L 568.803285 135.610402 
L 571.484473 134.767728 
L 573.981868 133.703278 
L 576.31906 133.821541 
L 580.586818 133.259758 
L 584.406822 132.343153 
L 586.176474 132.535331 
L 589.47716 131.722222 
L 591.021783 131.48568 
L 592.503599 131.441315 
L 593.927517 131.086509 
L 595.297891 131.071726 
L 596.618602 130.702121 
L 597.893125 130.894315 
L 599.124582 130.539493 
L 600.315787 130.495144 
L 601.46929 130.155121 
L 603.672234 129.75595 
L 604.725708 129.785516 
L 605.749585 129.652454 
L 606.745484 129.741167 
L 607.714893 129.46026 
L 609.579628 128.676717 
L 610.477398 128.558438 
L 611.353585 128.839345 
L 612.209203 128.558438 
L 613.045194 128.735849 
L 613.862439 128.573221 
L 614.661761 128.218415 
L 617.694497 127.878375 
L 618.414829 127.819244 
L 619.1212 127.893158 
L 619.814141 128.114918 
L 620.494154 127.30181 
L 621.161711 127.62705 
L 622.461229 127.272228 
L 623.094016 127.213096 
L 623.716004 126.946988 
L 624.929015 127.109616 
L 625.52071 126.813925 
L 626.676039 126.887856 
L 627.240255 125.986034 
L 627.79587 126.828708 
L 628.343141 126.666096 
L 628.882317 125.882537 
L 629.413633 126.207794 
L 629.937314 126.799142 
L 630.453578 125.808623 
L 630.962631 125.912103 
L 631.464672 126.266925 
L 632.448472 125.823406 
L 632.930591 125.852972 
L 633.406415 125.764258 
L 633.876107 125.320739 
L 634.339823 125.35032 
L 634.797713 125.601646 
L 635.69659 125.084196 
L 636.13785 125.084196 
L 637.004659 124.773738 
L 637.430453 125.305956 
L 637.851331 124.892018 
L 638.267404 125.172909 
L 638.678781 124.773738 
L 639.085566 124.862436 
L 639.487861 124.448482 
L 639.885765 124.389351 
L 640.279371 124.463281 
L 640.668772 124.965932 
L 641.435312 124.315436 
L 641.812619 124.892018 
L 642.186061 124.862436 
L 642.555715 124.699824 
L 642.921658 124.315436 
L 643.283963 124.478064 
L 643.642702 124.06411 
L 644.349758 124.404134 
L 644.698208 124.167591 
L 645.043359 124.492847 
L 645.385271 124.463281 
L 645.724006 124.019762 
L 646.059621 124.330219 
L 646.392175 123.753637 
L 647.048315 123.591025 
L 647.692851 124.123242 
L 648.010895 123.280552 
L 648.638776 123.798002 
L 648.948707 123.635374 
L 649.256024 123.3249 
L 649.560771 123.738854 
L 649.862992 123.650157 
L 650.162727 123.44318 
L 650.754902 123.901482 
L 651.047421 123.472746 
L 651.33761 123.295335 
L 651.911148 123.44318 
L 652.475801 122.896164 
L 652.75488 123.073575 
L 653.031839 123.487529 
L 653.306709 122.851815 
L 653.579521 122.881381 
L 653.850307 122.497009 
L 654.119096 123.310118 
L 654.385917 122.792683 
L 654.650799 123.073575 
L 655.174857 122.526575 
L 655.434087 122.763117 
L 655.691486 122.837032 
L 655.94708 123.088358 
L 656.200894 122.99966 
L 656.452953 122.393512 
L 656.703281 122.452644 
L 656.951902 122.792683 
L 657.444111 122.511792 
L 657.687746 122.393512 
L 658.170183 122.541358 
L 658.646318 122.851815 
L 659.580324 122.423078 
L 660.038502 122.570923 
L 660.265449 122.363947 
L 660.490992 122.349164 
L 660.715147 122.216101 
L 660.937933 121.93521 
L 661.379459 122.216101 
L 661.598233 121.905644 
L 661.815701 122.245667 
L 662.03188 122.15697 
L 662.246784 121.698667 
L 662.460428 122.275249 
L 662.672827 121.994342 
L 662.883996 121.949993 
L 663.093948 122.349164 
L 663.302697 122.053489 
L 663.510258 122.097838 
L 663.716644 122.023908 
L 663.921867 122.112621 
L 664.125942 121.861295 
L 664.530694 122.216101 
L 664.931001 121.698667 
L 665.129518 122.304815 
L 665.523337 121.787365 
L 665.718662 121.994342 
L 666.1062 121.669101 
L 666.298434 121.802148 
L 667.057391 121.565605 
L 667.244686 122.275249 
L 667.431024 121.49169 
L 667.616414 121.49169 
L 667.984389 121.772582 
L 668.166992 121.536039 
L 668.348686 121.728233 
L 668.529478 121.210799 
L 668.709377 121.373411 
L 668.888393 121.846512 
L 669.243809 121.417776 
L 669.420225 121.816931 
L 669.595792 121.314279 
L 669.770517 121.595171 
L 669.944409 121.358628 
L 670.117474 121.536039 
L 670.289722 121.388194 
L 670.46116 121.683884 
L 670.631795 121.521256 
L 670.801635 121.698667 
L 670.970687 120.841194 
L 671.306457 121.388194 
L 671.473189 121.402993 
L 671.804383 121.255148 
L 671.968858 121.240365 
L 672.132594 120.974256 
L 672.295598 121.196016 
L 672.78028 120.900326 
L 672.940419 120.855977 
L 673.099858 120.604651 
L 673.258602 120.752496 
L 673.416657 120.649 
L 673.574031 120.811628 
L 673.886753 120.649 
L 674.042114 120.486372 
L 674.196815 120.885543 
L 674.350863 120.575085 
L 674.504262 120.649 
L 674.657018 121.003822 
L 674.809137 120.353326 
L 674.960623 120.767279 
L 675.26172 120.515954 
L 675.708753 120.54552 
L 676.003757 120.116783 
L 676.150369 120.486372 
L 676.296393 120.264612 
L 676.586698 120.442023 
L 677.302502 120.146349 
L 677.443991 120.397674 
L 677.584933 120.353326 
L 677.725332 120.560302 
L 678.004519 120.575085 
L 678.281583 120.249829 
L 678.419329 120.42724 
L 678.556556 120.087217 
L 678.965166 120.161132 
L 679.100357 120.368109 
L 679.369245 119.954155 
L 679.502949 119.909806 
L 679.636164 120.279395 
L 680.032912 120.175915 
L 680.295032 120.264612 
L 680.425388 119.983721 
L 680.55528 120.20548 
L 680.813683 120.057635 
L 680.9422 119.909806 
L 681.197884 120.131566 
L 681.325057 119.821093 
L 681.451787 120.131566 
L 681.954347 119.717612 
L 682.203052 120.042852 
L 682.326771 119.924589 
L 682.572956 120.087217 
L 682.81749 119.761961 
L 682.939144 119.702829 
L 683.181241 119.983721 
L 683.301689 119.673263 
L 683.541398 120.102 
L 683.77954 119.850658 
L 684.251208 119.747178 
L 684.368177 119.421938 
L 684.484772 119.924589 
L 684.600995 119.510635 
L 684.716849 119.835876 
L 684.947458 119.673263 
L 685.062217 119.643697 
L 685.176616 119.835876 
L 685.290658 119.761961 
L 685.404343 119.495852 
L 685.517676 119.540201 
L 685.630656 119.791527 
L 686.07911 119.348007 
L 686.190366 119.614116 
L 686.411865 119.303658 
L 686.632027 119.569767 
L 686.74161 119.540201 
L 686.850866 119.348007 
L 686.959795 119.761961 
L 687.068399 119.377573 
L 687.176681 119.540201 
L 687.284642 119.303658 
L 687.392284 119.525418 
L 687.499609 119.36279 
L 687.606619 119.451504 
L 687.713316 119.200162 
L 687.819701 119.481069 
L 687.925777 119.170596 
L 688.031544 119.850658 
L 688.347019 119.155813 
L 688.451573 119.436721 
L 688.555828 119.081899 
L 688.763448 119.466286 
L 688.866816 119.421938 
L 688.969892 119.525418 
L 689.072677 119.214961 
L 689.277382 119.436721 
L 689.480943 119.36279 
L 689.582299 119.540201 
L 689.683374 119.333224 
L 689.884687 119.392356 
L 689.984928 119.303658 
L 690.084894 119.510635 
L 690.482039 119.185379 
L 690.777083 119.022767 
L 690.97246 119.096682 
L 691.069757 119.333224 
L 691.166796 119.25931 
L 691.263577 118.874922 
L 691.45637 119.111464 
L 691.64815 118.904488 
L 691.838925 119.421938 
L 691.93394 118.919271 
L 692.028707 119.170596 
L 692.217506 118.978402 
L 692.31154 119.111464 
L 692.498884 118.549681 
L 692.685269 118.919271 
L 692.870706 118.608813 
L 692.963072 119.067116 
L 693.055205 119.03755 
L 693.147105 119.067116 
L 693.330213 118.830573 
L 693.421423 119.126247 
L 693.512406 118.830573 
L 693.603162 119.03755 
L 693.783998 118.786224 
L 694.053582 118.978402 
L 694.143002 118.74186 
L 694.321187 118.963619 
L 694.498505 118.5201 
L 694.762874 118.874922 
L 694.850573 118.978402 
L 695.02534 118.874922 
L 695.37238 118.712294 
L 695.458626 118.948836 
L 695.630508 118.608813 
L 695.716146 118.771441 
L 695.886821 118.667945 
L 695.97186 118.786224 
L 696.056701 118.623596 
L 696.225792 118.756642 
L 696.310045 118.59403 
L 696.477967 119.03755 
L 696.561639 118.697511 
L 696.64512 118.845356 
L 696.81151 118.534883 
L 696.89442 118.919271 
L 696.977143 118.874922 
L 697.059678 118.608813 
L 697.142027 118.771441 
L 697.22419 118.697511 
L 697.306169 118.786224 
L 697.387963 118.653162 
L 697.469575 119.007984 
L 697.632251 118.889705 
L 697.713318 119.022767 
L 697.794204 118.756642 
L 697.874912 118.874922 
L 697.955441 118.81579 
L 698.035793 118.830573 
L 698.115968 119.081899 
L 698.275791 118.564464 
L 698.355441 118.978402 
L 698.51422 118.460968 
L 698.59335 118.919271 
L 698.672309 118.81579 
L 698.751098 118.549681 
L 698.829717 118.993201 
L 698.908166 118.727077 
L 698.986447 118.934053 
L 699.142506 118.5201 
L 699.220286 118.860139 
L 699.2979 118.342705 
L 699.375349 118.874922 
L 699.452634 118.786224 
L 699.606714 118.37227 
L 699.83662 118.904488 
L 699.912934 118.327922 
L 699.989089 118.801007 
L 700.065084 118.667945 
L 700.292126 118.5201 
L 700.367493 119.096682 
L 700.442705 118.416619 
L 700.517761 118.505317 
L 700.667413 118.608813 
L 700.742009 118.194859 
L 700.964885 118.860139 
L 701.038875 118.475751 
L 701.112716 118.564464 
L 701.186407 118.387053 
L 701.259949 118.667945 
L 701.40659 118.313123 
L 701.552644 118.549681 
L 701.770632 118.239208 
L 701.987325 118.608813 
L 702.131074 118.37227 
L 702.274259 118.446185 
L 702.487986 118.165294 
L 702.558951 118.549681 
L 702.629778 118.253991 
L 702.700468 118.786224 
L 702.771021 118.697511 
L 702.841437 118.638379 
L 702.911718 117.987883 
L 702.981863 118.682728 
L 703.051874 118.180077 
L 703.121751 118.446185 
L 703.33058 118.150511 
L 703.399925 118.357488 
L 703.469138 117.958317 
L 703.53822 118.460968 
L 703.607171 118.253991 
L 703.881678 118.460968 
L 703.949983 118.623596 
L 704.018161 118.180077 
L 704.086211 118.401836 
L 704.154134 118.549681 
L 704.221931 118.313123 
L 704.289602 118.638379 
L 704.357147 118.061797 
L 704.424568 118.431402 
L 704.491864 118.37227 
L 704.559036 118.490534 
L 704.626085 118.017448 
L 704.759813 118.505317 
L 704.826494 118.239208 
L 705.025806 118.608813 
L 705.224035 118.091363 
L 705.289873 118.239208 
L 705.355591 118.194859 
L 705.421192 118.194859 
L 705.617288 118.37227 
L 705.682419 118.209642 
L 705.747434 118.59403 
L 705.812334 118.505317 
L 705.877118 118.638379 
L 706.006342 118.357488 
L 706.070783 118.37227 
L 706.135109 117.913968 
L 706.199323 118.608813 
L 706.263424 118.401836 
L 706.327412 118.047014 
L 706.391287 118.534883 
L 706.455052 118.268774 
L 706.518704 118.401836 
L 706.582246 118.342705 
L 706.77221 118.180077 
L 706.835312 118.180077 
L 706.898304 118.387053 
L 706.961188 117.913968 
L 707.086632 118.623596 
L 707.149192 118.165294 
L 707.211645 118.29834 
L 707.273991 118.091363 
L 707.460393 118.460968 
L 707.522315 118.106146 
L 707.584132 118.505317 
L 707.645845 118.29834 
L 707.707454 118.401836 
L 707.768958 118.017448 
L 707.952852 118.505317 
L 708.074934 118.002666 
L 708.196608 118.401836 
L 708.257294 118.209642 
L 708.317878 117.943534 
L 708.378362 118.239208 
L 708.438746 117.662626 
L 708.499029 118.002666 
L 708.559214 118.549681 
L 708.619299 117.869603 
L 708.679285 118.37227 
L 708.739172 117.825255 
L 708.798962 118.239208 
L 708.858653 118.209642 
L 708.918247 118.490534 
L 709.096446 117.736557 
L 709.155653 118.327922 
L 709.214763 118.239208 
L 709.273778 118.224425 
L 709.332698 117.810472 
L 709.391522 118.342705 
L 709.450252 117.869603 
L 709.508887 117.884386 
L 709.625875 118.120945 
L 709.684228 118.74186 
L 709.742488 118.194859 
L 709.800656 118.475751 
L 709.974602 117.899185 
L 710.147723 118.180077 
L 710.262682 118.017448 
L 710.320025 118.150511 
L 710.377279 118.327922 
L 710.491517 117.928751 
L 710.548502 117.958317 
L 710.605398 118.002666 
L 710.662205 118.224425 
L 710.718924 117.869603 
L 710.775555 118.135728 
L 710.888553 118.37227 
L 711.057396 117.633061 
L 711.113504 118.165294 
L 711.169526 117.943534 
L 711.225461 118.061797 
L 711.337075 117.884386 
L 711.392754 118.283557 
L 711.448349 118.106146 
L 711.503858 117.795689 
L 711.559283 117.9731 
L 711.614624 117.928751 
L 711.669881 118.283557 
L 711.725055 118.194859 
L 711.890076 117.840037 
L 711.944917 118.357488 
L 711.999676 117.795689 
L 712.054353 118.032231 
L 712.108948 117.958317 
L 712.163461 118.180077 
L 712.326514 117.662626 
L 712.48884 118.150511 
L 712.542788 117.987883 
L 712.596657 118.431402 
L 712.650446 118.120945 
L 712.704156 118.165294 
L 712.757787 118.047014 
L 712.811339 118.239208 
L 712.971525 117.899185 
L 713.13101 117.958317 
L 713.236947 117.884386 
L 713.2898 118.106146 
L 713.342577 117.913968 
L 713.395278 117.899185 
L 713.447902 118.002666 
L 713.50045 118.401836 
L 713.657643 117.795689 
L 713.81416 118.401836 
L 713.866183 118.401836 
L 713.918132 117.810472 
L 713.970008 118.505317 
L 714.021809 118.017448 
L 714.073537 117.958317 
L 714.125192 118.564464 
L 714.176774 117.677425 
L 714.228282 118.047014 
L 714.382373 117.85482 
L 714.48474 118.5201 
L 714.535815 118.268774 
L 714.58682 118.239208 
L 714.637752 118.37227 
L 714.790126 117.810472 
L 714.840775 118.194859 
L 714.891355 117.899185 
L 715.042674 118.061797 
L 715.092974 118.017448 
L 715.143205 117.958317 
L 715.343439 118.460968 
L 715.492896 118.002666 
L 715.641743 118.608813 
L 715.691224 118.135728 
L 715.789985 118.194859 
L 715.839265 118.283557 
L 715.888478 117.869603 
L 715.937626 118.239208 
L 716.084671 117.958317 
L 716.133554 118.150511 
L 716.182373 118.047014 
L 716.279813 118.209642 
L 716.328436 118.032231 
L 716.376994 118.401836 
L 716.425487 118.224425 
L 716.473916 118.07658 
L 716.52228 118.786224 
L 716.570581 118.387053 
L 716.618818 118.327922 
L 716.66699 118.387053 
L 716.7151 118.032231 
L 716.763146 118.786224 
L 716.811128 118.37227 
L 716.859048 117.987883 
L 716.906904 118.268774 
L 716.954698 118.194859 
L 717.002429 118.608813 
L 717.050098 118.387053 
L 717.240153 118.047014 
L 717.334809 118.135728 
L 717.382046 118.431402 
L 717.429221 118.150511 
L 717.570381 118.224425 
L 717.757749 118.061797 
L 717.804441 118.327922 
L 717.897645 118.268774 
L 717.944158 118.209642 
L 717.990612 118.327922 
L 718.037006 118.490534 
L 718.083342 118.342705 
L 718.129619 118.150511 
L 718.175837 118.224425 
L 718.221996 118.653162 
L 718.268097 118.342705 
L 718.406052 118.07658 
L 718.543487 118.416619 
L 718.589183 118.342705 
L 718.634823 118.283557 
L 718.680405 117.869603 
L 718.72593 118.387053 
L 718.771399 118.032231 
L 718.907465 118.268774 
L 718.952708 117.825255 
L 718.997894 118.120945 
L 719.043025 118.180077 
L 719.0881 118.047014 
L 719.133119 118.07658 
L 719.178083 118.431402 
L 719.222991 118.047014 
L 719.312642 117.987883 
L 719.357385 118.401836 
L 719.446707 118.253991 
L 719.58028 118.638379 
L 719.669057 118.002666 
L 719.713365 118.283557 
L 719.757619 118.357488 
L 719.801819 118.07658 
L 719.890059 118.150511 
L 720.065901 118.07658 
L 720.10973 118.106146 
L 720.153505 117.928751 
L 720.240899 118.283557 
L 720.284517 118.135728 
L 720.328084 118.194859 
L 720.371598 117.825255 
L 720.415061 118.180077 
L 720.458471 118.165294 
L 720.50183 118.283557 
L 720.545138 118.032231 
L 720.588394 118.091363 
L 720.631599 118.327922 
L 720.674752 118.047014 
L 720.717855 117.958317 
L 720.803908 118.37227 
L 720.846858 118.253991 
L 720.889757 117.913968 
L 720.932607 118.283557 
L 721.018154 117.928751 
L 721.103502 118.106146 
L 721.18865 118.327922 
L 721.231149 117.840037 
L 721.273599 118.209642 
L 721.316 118.357488 
L 721.400654 118.313123 
L 721.485111 118.180077 
L 721.527266 118.357488 
L 721.569373 118.283557 
L 721.611431 117.958317 
L 721.695402 118.061797 
L 721.737315 118.283557 
L 721.77918 117.958317 
L 721.820997 118.017448 
L 721.862766 118.357488 
L 721.904487 117.899185 
L 722.070896 118.253991 
L 722.195205 117.795689 
L 722.236548 118.209642 
L 722.277844 118.120945 
L 722.319093 117.884386 
L 722.360295 118.268774 
L 722.44256 117.85482 
L 722.565611 117.9731 
L 722.729035 118.209642 
L 722.769777 117.884386 
L 722.851124 118.002666 
L 722.891729 118.047014 
L 722.93229 117.766123 
L 722.972805 118.07658 
L 723.013275 118.061797 
L 723.053701 117.810472 
L 723.094081 118.268774 
L 723.134417 117.75134 
L 723.174709 117.958317 
L 723.214956 118.047014 
L 723.255158 118.002666 
L 723.33543 117.840037 
L 723.3755 117.943534 
L 723.415526 118.106146 
L 723.455508 118.091363 
L 723.495446 117.943534 
L 723.535341 118.327922 
L 723.614999 118.047014 
L 723.654763 118.135728 
L 723.694483 117.913968 
L 723.734161 118.37227 
L 723.773795 118.032231 
L 723.813386 117.884386 
L 723.852934 118.061797 
L 723.892439 118.135728 
L 723.931902 118.017448 
L 724.089326 117.795689 
L 724.167784 117.943534 
L 724.20695 118.135728 
L 724.246073 118.07658 
L 724.285155 117.810472 
L 724.324195 118.253991 
L 724.363193 118.120945 
L 724.441064 118.180077 
L 724.518769 118.061797 
L 724.55756 118.224425 
L 724.596309 118.268774 
L 724.635017 118.091363 
L 724.673684 118.29834 
L 724.71231 118.180077 
L 724.750895 118.283557 
L 724.904829 117.780906 
L 725.019854 118.002666 
L 725.096336 118.032231 
L 725.134517 117.692208 
L 725.172658 117.899185 
L 725.21076 117.677425 
L 725.248821 117.884386 
L 725.286843 117.75134 
L 725.324825 117.987883 
L 725.40067 118.120945 
L 725.438534 117.913968 
L 725.514144 117.928751 
L 725.55189 118.017448 
L 725.589597 117.618278 
L 725.627265 117.840037 
L 725.702484 118.032231 
L 725.740036 117.958317 
L 725.777549 117.825255 
L 725.815023 117.958317 
L 725.852459 118.002666 
L 725.927215 117.559146 
L 725.964536 117.795689 
L 726.113439 118.091363 
L 726.224718 117.692208 
L 726.261736 117.85482 
L 726.335658 117.75134 
L 726.409431 117.677425 
L 726.446262 117.928751 
L 726.519812 117.677425 
L 726.556531 117.85482 
L 726.593213 117.692208 
L 726.629859 117.396518 
L 726.70304 117.573929 
L 726.739575 117.544363 
L 726.776073 117.913968 
L 726.848961 117.825255 
L 726.885351 117.52958 
L 726.958021 117.721774 
L 726.994301 117.913968 
L 727.030546 117.810472 
L 727.102927 117.52958 
L 727.139064 117.677425 
L 727.21123 117.943534 
L 727.24726 117.75134 
L 727.283254 117.618278 
L 727.319213 117.780906 
L 727.498475 118.150511 
L 727.534222 117.736557 
L 727.605611 117.780906 
L 727.67686 117.75134 
L 727.712433 117.884386 
L 727.818942 117.470448 
L 727.854376 117.943534 
L 727.925142 117.810472 
L 727.960473 117.840037 
L 728.031032 117.573929 
L 728.066261 117.987883 
L 728.136616 117.633061 
L 728.241895 117.544363 
L 728.311913 117.884386 
L 728.346871 117.396518 
L 728.416688 117.662626 
L 728.451546 117.633061 
L 728.55592 117.913968 
L 728.729216 117.411301 
L 728.867262 117.85482 
L 728.970455 117.52958 
L 729.039088 117.840037 
L 729.073356 117.381735 
L 729.141796 117.440867 
L 729.175968 117.514797 
L 729.210107 117.396518 
L 729.244215 117.470448 
L 729.278291 117.337386 
L 729.312335 117.780906 
L 729.380328 117.396518 
L 729.515934 118.253991 
L 729.549757 117.352169 
L 729.617309 117.810472 
L 729.718403 117.721774 
L 729.752038 117.52958 
L 729.819217 117.721774 
L 729.986623 117.426084 
L 730.020012 117.573929 
L 730.05337 117.174758 
L 730.086699 117.559146 
L 730.153263 117.85482 
L 730.1865 117.544363 
L 730.319146 117.263471 
L 730.517213 117.573929 
L 730.55012 117.633061 
L 730.582997 117.559146 
L 730.714209 117.352169 
L 730.779639 117.825255 
L 730.81231 117.52958 
L 730.877564 117.603495 
L 730.942701 117.396518 
L 731.007722 117.485231 
L 731.040189 117.426084 
L 731.105037 117.322603 
L 731.137418 117.603495 
L 731.234387 117.588712 
L 731.266653 117.263471 
L 731.36328 117.396518 
L 731.427556 117.470448 
L 731.459651 117.618278 
L 731.491718 117.603495 
L 731.555768 117.30782 
L 731.619706 117.426084 
L 731.77906 117.721774 
L 731.810848 117.500014 
L 731.906045 117.559146 
L 732.000993 117.352169 
L 732.032588 117.573929 
L 732.095695 117.381735 
L 732.158693 117.366952 
L 732.252987 117.692208 
L 732.221583 117.352169 
L 732.284364 117.440867 
L 732.378333 117.692208 
L 732.440845 117.500014 
L 732.50325 117.559146 
L 732.658796 117.130409 
L 732.72083 117.514797 
L 732.782757 117.426084 
L 732.813682 117.233906 
L 732.875452 117.352169 
L 732.937118 117.647843 
L 732.99868 117.514797 
L 733.029421 117.204324 
L 733.090828 117.381735 
L 733.243892 117.603495 
L 733.335423 117.174758 
L 733.396316 117.293037 
L 733.457107 117.381735 
L 733.517798 117.322603 
L 733.548105 117.278254 
L 733.638876 117.455665 
L 733.669083 117.352169 
L 733.759553 117.381735 
L 733.8498 117.736557 
L 733.879833 117.559146 
L 733.909841 117.322603 
L 733.999716 117.485231 
L 734.149018 117.263471 
L 734.238307 117.559146 
L 734.208568 117.219107 
L 734.268021 117.352169 
L 734.534366 117.52958 
L 734.652119 117.041712 
L 734.681498 117.293037 
L 734.769493 117.204324 
L 734.944849 117.470448 
L 734.973993 117.159975 
L 735.061285 117.278254 
L 735.090337 117.455665 
L 735.119365 117.100843 
L 735.148369 117.293037 
L 735.235246 117.337386 
L 735.264159 117.189541 
L 735.293049 117.396518 
L 735.35076 117.026929 
L 735.379582 117.30782 
L 735.437156 117.041712 
L 735.465909 117.204324 
L 735.580696 117.322603 
L 735.637954 117.130409 
L 735.695122 117.233906 
L 736.092808 117.322603 
L 736.177465 117.411301 
L 736.233794 117.08606 
L 736.290036 117.352169 
L 736.318124 117.337386 
L 736.346191 117.455665 
L 736.374236 117.426084 
L 736.458243 116.923432 
L 736.486202 117.08606 
L 736.51414 117.352169 
L 736.542056 117.056495 
L 736.597825 117.337386 
L 736.709107 117.130409 
L 736.76462 117.455665 
L 736.792346 117.248689 
L 736.82005 117.08606 
L 736.847733 117.293037 
L 736.875395 117.514797 
L 736.903036 116.997347 
L 737.040928 117.145192 
L 737.095939 117.470448 
L 737.150867 117.174758 
L 737.260476 117.248689 
L 737.205713 117.115626 
L 737.287827 117.233906 
L 737.342467 117.219107 
L 737.397025 117.485231 
L 737.424273 117.366952 
L 737.533064 116.982564 
L 737.587338 117.426084 
L 737.641531 117.233906 
L 737.695644 117.322603 
L 737.72267 117.130409 
L 737.803629 116.938215 
L 737.830575 117.381735 
L 737.911295 116.893867 
L 737.991836 117.026929 
L 738.045431 116.893867 
L 738.098948 117.30782 
L 738.125677 116.834735 
L 738.205746 117.248689 
L 738.28564 117.026929 
L 738.259028 117.396518 
L 738.338806 117.08606 
L 738.365359 117.30782 
L 738.418409 117.189541 
L 738.444904 116.893867 
L 738.497838 117.219107 
L 738.524276 117.219107 
L 738.550695 117.204324 
L 738.577095 116.938215 
L 738.603476 117.219107 
L 738.65618 117.026929 
L 738.708808 117.322603 
L 738.76136 117.174758 
L 738.787608 116.997347 
L 738.840047 117.263471 
L 738.866238 117.01213 
L 739.022991 117.352169 
L 739.153105 116.893867 
L 739.205021 117.337386 
L 739.282756 117.263471 
L 739.334488 117.455665 
L 739.360327 116.967781 
L 739.437732 117.041712 
L 739.489244 117.189541 
L 739.514973 116.908649 
L 739.566377 117.263471 
L 739.592051 117.026929 
L 739.694569 117.352169 
L 739.720153 117.100843 
L 739.74572 117.381735 
L 739.796799 117.263471 
L 739.847807 117.204324 
L 739.873284 117.071278 
L 739.949609 117.159975 
L 740.051127 116.982564 
L 740.12708 117.159975 
L 740.202876 117.204324 
L 740.278514 117.248689 
L 740.328853 116.923432 
L 740.454396 117.248689 
L 740.55452 116.893867 
L 740.579508 117.189541 
L 740.679289 117.08606 
L 740.778798 116.923432 
L 740.803633 116.952998 
L 740.828451 117.204324 
L 740.902803 116.849518 
L 740.927553 117.115626 
L 740.977004 117.189541 
L 741.026388 116.834735 
L 741.075705 117.08606 
L 741.149555 116.997347 
L 741.198705 116.864301 
L 741.24779 116.982564 
L 741.345761 117.30782 
L 741.443469 116.908649 
L 741.467855 116.952998 
L 741.492225 117.08606 
L 741.565237 117.026929 
L 741.638103 116.701673 
L 741.61383 117.056495 
L 741.686599 116.849518 
L 741.710823 116.819952 
L 741.759223 116.672107 
L 741.855831 117.189541 
L 741.928119 116.952998 
L 741.976231 116.967781 
L 742.000264 117.071278 
L 742.048281 116.997347 
L 742.120189 116.583409 
L 742.168049 116.908649 
L 742.191955 116.879084 
L 742.215845 117.115626 
L 742.311252 117.026929 
L 742.335064 116.716456 
L 742.43016 116.746021 
L 742.572339 117.071278 
L 742.619609 116.775587 
L 742.666818 116.938215 
L 742.690399 117.01213 
L 742.713965 116.997347 
L 742.737516 116.657324 
L 742.784573 117.174758 
L 742.831569 116.701673 
L 742.901949 117.041712 
L 742.948794 116.879084 
L 743.018948 116.938215 
L 743.065643 116.672107 
L 743.135573 116.997347 
L 743.205369 116.908649 
L 743.251826 116.819952 
L 743.298223 116.952998 
L 743.3214 117.130409 
L 743.390842 116.864301 
L 743.41396 116.834735 
L 743.437063 116.879084 
L 743.460151 116.967781 
L 743.483225 116.952998 
L 743.506285 116.68689 
L 743.552359 117.01213 
L 743.575375 116.908649 
L 743.644335 117.041712 
L 743.667293 116.834735 
L 743.690236 116.952998 
L 743.736079 116.657324 
L 743.804736 116.819952 
L 743.827593 117.056495 
L 743.918877 117.026929 
L 744.055377 116.834735 
L 744.078077 116.746021 
L 744.100763 116.879084 
L 744.123435 116.819952 
L 744.146093 116.967781 
L 744.168737 116.79037 
L 744.236584 116.938215 
L 744.461834 116.701673 
L 744.484283 116.775587 
L 744.506718 116.627758 
L 744.551546 116.997347 
L 744.573939 116.864301 
L 744.618685 116.79037 
L 744.641037 116.938215 
L 744.663376 117.145192 
L 744.685701 116.805169 
L 744.708012 116.908649 
L 744.730309 116.716456 
L 744.752593 116.938215 
L 744.79712 116.760804 
L 744.819363 117.115626 
L 744.886011 116.908649 
L 744.930376 116.997347 
L 745.018943 116.56861 
L 745.195434 117.056495 
L 745.28336 116.731238 
L 745.349166 116.893867 
L 745.371075 117.248689 
L 745.436723 116.657324 
L 745.654698 117.026929 
L 745.741525 116.805169 
L 745.78486 116.893867 
L 745.806509 117.01213 
L 745.849768 116.775587 
L 745.871378 116.864301 
L 745.892975 116.716456 
L 745.95769 116.893867 
L 745.979236 116.79037 
L 746.043799 116.79037 
L 746.022291 116.879084 
L 746.065294 116.834735 
L 746.129704 116.68689 
L 746.194001 117.01213 
L 746.279554 116.642541 
L 746.322255 116.849518 
L 746.364906 116.952998 
L 746.407507 116.864301 
L 746.471316 116.627758 
L 746.513793 116.805169 
L 746.577416 116.68689 
L 746.61977 116.79037 
L 746.704331 116.68689 
L 746.72544 116.967781 
L 746.767622 116.657324 
L 746.830804 116.908649 
L 746.851841 116.967781 
L 746.872865 116.819952 
L 746.893877 116.849518 
L 746.977804 116.642541 
L 746.956841 116.893867 
L 747.019696 116.775587 
L 747.040623 116.967781 
L 747.124214 116.849518 
L 747.207613 116.893867 
L 747.228433 116.805169 
L 747.290822 116.908649 
L 747.332356 116.834735 
L 747.415281 116.642541 
L 747.435982 116.716456 
L 747.477351 116.701673 
L 747.559947 116.938215 
L 747.621771 116.760804 
L 747.662929 116.864301 
L 747.683491 116.893867 
L 747.72458 116.775587 
L 747.745106 116.731238 
L 747.765622 117.041712 
L 747.847568 116.731238 
L 747.868026 116.657324 
L 747.888472 116.805169 
L 747.908907 116.997347 
L 747.92933 116.775587 
L 747.990532 116.79037 
L 748.092307 117.026929 
L 748.132937 116.923432 
L 748.153235 116.938215 
L 748.173522 116.775587 
L 748.193798 116.982564 
L 748.214063 116.952998 
" clip-path="url(#p7ffe8addc4)" style="fill: none; stroke: #1f77b4; stroke-width: 1.5; stroke-linecap: square"/>
   </g>
   <g id="patch_3">
    <path d="M 391.094063 311.6435 
L 391.094063 45.5315 
" style="fill: none; stroke: #000000; stroke-width: 0.8; stroke-linejoin: miter; stroke-linecap: square"/>
   </g>
   <g id="patch_4">
    <path d="M 748.214063 311.6435 
L 748.214063 45.5315 
" style="fill: none; stroke: #000000; stroke-width: 0.8; stroke-linejoin: miter; stroke-linecap: square"/>
   </g>
   <g id="patch_5">
    <path d="M 391.094063 311.6435 
L 748.214063 311.6435 
" style="fill: none; stroke: #000000; stroke-width: 0.8; stroke-linejoin: miter; stroke-linecap: square"/>
   </g>
   <g id="patch_6">
    <path d="M 391.094063 45.5315 
L 748.214063 45.5315 
" style="fill: none; stroke: #000000; stroke-width: 0.8; stroke-linejoin: miter; stroke-linecap: square"/>
   </g>
   <g id="text_17">
    <!-- Accuracy of the 09_07_25_CINIC10_torch_model_(1024+8192-8192.3-1)_elk-horse on the validation set -->
    <g transform="translate(7.2 25.5315) scale(0.264 -0.264)">
     <defs>
      <path id="TimesNewRomanPSMT-20" transform="scale(0.015625)"/>
      <path id="TimesNewRomanPSMT-6f" d="M 1600 2947 
Q 2250 2947 2644 2453 
Q 2978 2031 2978 1484 
Q 2978 1100 2793 706 
Q 2609 313 2286 112 
Q 1963 -88 1566 -88 
Q 919 -88 538 428 
Q 216 863 216 1403 
Q 216 1797 411 2186 
Q 606 2575 925 2761 
Q 1244 2947 1600 2947 
z
M 1503 2744 
Q 1338 2744 1170 2645 
Q 1003 2547 900 2300 
Q 797 2053 797 1666 
Q 797 1041 1045 587 
Q 1294 134 1700 134 
Q 2003 134 2200 384 
Q 2397 634 2397 1244 
Q 2397 2006 2069 2444 
Q 1847 2744 1503 2744 
z
" transform="scale(0.015625)"/>
      <path id="TimesNewRomanPSMT-66" d="M 1319 2638 
L 1319 756 
Q 1319 356 1406 250 
Q 1522 113 1716 113 
L 1975 113 
L 1975 0 
L 266 0 
L 266 113 
L 394 113 
Q 519 113 622 175 
Q 725 238 764 344 
Q 803 450 803 756 
L 803 2638 
L 247 2638 
L 247 2863 
L 803 2863 
L 803 3050 
Q 803 3478 940 3775 
Q 1078 4072 1361 4255 
Q 1644 4438 1997 4438 
Q 2325 4438 2600 4225 
Q 2781 4084 2781 3909 
Q 2781 3816 2700 3733 
Q 2619 3650 2525 3650 
Q 2453 3650 2373 3701 
Q 2294 3753 2178 3923 
Q 2063 4094 1966 4153 
Q 1869 4213 1750 4213 
Q 1606 4213 1506 4136 
Q 1406 4059 1362 3898 
Q 1319 3738 1319 3069 
L 1319 2863 
L 2056 2863 
L 2056 2638 
L 1319 2638 
z
" transform="scale(0.015625)"/>
      <path id="TimesNewRomanPSMT-74" d="M 1031 3803 
L 1031 2863 
L 1700 2863 
L 1700 2644 
L 1031 2644 
L 1031 788 
Q 1031 509 1111 412 
Q 1191 316 1316 316 
Q 1419 316 1516 380 
Q 1613 444 1666 569 
L 1788 569 
Q 1678 263 1478 108 
Q 1278 -47 1066 -47 
Q 922 -47 784 33 
Q 647 113 581 261 
Q 516 409 516 719 
L 516 2644 
L 63 2644 
L 63 2747 
Q 234 2816 414 2980 
Q 594 3144 734 3369 
Q 806 3488 934 3803 
L 1031 3803 
z
" transform="scale(0.015625)"/>
      <path id="TimesNewRomanPSMT-68" d="M 1041 4444 
L 1041 2350 
Q 1388 2731 1591 2839 
Q 1794 2947 1997 2947 
Q 2241 2947 2416 2812 
Q 2591 2678 2675 2391 
Q 2734 2191 2734 1659 
L 2734 647 
Q 2734 375 2778 275 
Q 2809 200 2884 156 
Q 2959 113 3159 113 
L 3159 0 
L 1753 0 
L 1753 113 
L 1819 113 
Q 2019 113 2097 173 
Q 2175 234 2206 353 
Q 2216 403 2216 647 
L 2216 1659 
Q 2216 2128 2167 2275 
Q 2119 2422 2012 2495 
Q 1906 2569 1756 2569 
Q 1603 2569 1437 2487 
Q 1272 2406 1041 2159 
L 1041 647 
Q 1041 353 1073 281 
Q 1106 209 1195 161 
Q 1284 113 1503 113 
L 1503 0 
L 84 0 
L 84 113 
Q 275 113 384 172 
Q 447 203 484 290 
Q 522 378 522 647 
L 522 3238 
Q 522 3728 498 3840 
Q 475 3953 426 3993 
Q 378 4034 297 4034 
Q 231 4034 84 3984 
L 41 4094 
L 897 4444 
L 1041 4444 
z
" transform="scale(0.015625)"/>
      <path id="TimesNewRomanPSMT-65" d="M 681 1784 
Q 678 1147 991 784 
Q 1303 422 1725 422 
Q 2006 422 2214 576 
Q 2422 731 2563 1106 
L 2659 1044 
Q 2594 616 2278 264 
Q 1963 -88 1488 -88 
Q 972 -88 605 314 
Q 238 716 238 1394 
Q 238 2128 614 2539 
Q 991 2950 1559 2950 
Q 2041 2950 2350 2633 
Q 2659 2316 2659 1784 
L 681 1784 
z
M 681 1966 
L 2006 1966 
Q 1991 2241 1941 2353 
Q 1863 2528 1708 2628 
Q 1553 2728 1384 2728 
Q 1125 2728 920 2526 
Q 716 2325 681 1966 
z
" transform="scale(0.015625)"/>
      <path id="TimesNewRomanPSMT-5f" d="M 3256 -1381 
L -53 -1381 
L -53 -1119 
L 3256 -1119 
L 3256 -1381 
z
" transform="scale(0.015625)"/>
      <path id="TimesNewRomanPSMT-43" d="M 3853 4334 
L 3950 2894 
L 3853 2894 
Q 3659 3541 3300 3825 
Q 2941 4109 2438 4109 
Q 2016 4109 1675 3895 
Q 1334 3681 1139 3212 
Q 944 2744 944 2047 
Q 944 1472 1128 1050 
Q 1313 628 1683 403 
Q 2053 178 2528 178 
Q 2941 178 3256 354 
Q 3572 531 3950 1056 
L 4047 994 
Q 3728 428 3303 165 
Q 2878 -97 2294 -97 
Q 1241 -97 663 684 
Q 231 1266 231 2053 
Q 231 2688 515 3219 
Q 800 3750 1298 4042 
Q 1797 4334 2388 4334 
Q 2847 4334 3294 4109 
Q 3425 4041 3481 4041 
Q 3566 4041 3628 4100 
Q 3709 4184 3744 4334 
L 3853 4334 
z
" transform="scale(0.015625)"/>
      <path id="TimesNewRomanPSMT-49" d="M 1975 116 
L 1975 0 
L 159 0 
L 159 116 
L 309 116 
Q 572 116 691 269 
Q 766 369 766 750 
L 766 3488 
Q 766 3809 725 3913 
Q 694 3991 597 4047 
Q 459 4122 309 4122 
L 159 4122 
L 159 4238 
L 1975 4238 
L 1975 4122 
L 1822 4122 
Q 1563 4122 1444 3969 
Q 1366 3869 1366 3488 
L 1366 750 
Q 1366 428 1406 325 
Q 1438 247 1538 191 
Q 1672 116 1822 116 
L 1975 116 
z
" transform="scale(0.015625)"/>
      <path id="TimesNewRomanPSMT-4e" d="M -84 4238 
L 1066 4238 
L 3656 1059 
L 3656 3503 
Q 3656 3894 3569 3991 
Q 3453 4122 3203 4122 
L 3056 4122 
L 3056 4238 
L 4531 4238 
L 4531 4122 
L 4381 4122 
Q 4113 4122 4000 3959 
Q 3931 3859 3931 3503 
L 3931 -69 
L 3819 -69 
L 1025 3344 
L 1025 734 
Q 1025 344 1109 247 
Q 1228 116 1475 116 
L 1625 116 
L 1625 0 
L 150 0 
L 150 116 
L 297 116 
Q 569 116 681 278 
Q 750 378 750 734 
L 750 3681 
Q 566 3897 470 3965 
Q 375 4034 191 4094 
Q 100 4122 -84 4122 
L -84 4238 
z
" transform="scale(0.015625)"/>
      <path id="TimesNewRomanPSMT-6d" d="M 1050 2338 
Q 1363 2650 1419 2697 
Q 1559 2816 1721 2881 
Q 1884 2947 2044 2947 
Q 2313 2947 2506 2790 
Q 2700 2634 2766 2338 
Q 3088 2713 3309 2830 
Q 3531 2947 3766 2947 
Q 3994 2947 4170 2830 
Q 4347 2713 4450 2447 
Q 4519 2266 4519 1878 
L 4519 647 
Q 4519 378 4559 278 
Q 4591 209 4675 161 
Q 4759 113 4950 113 
L 4950 0 
L 3538 0 
L 3538 113 
L 3597 113 
Q 3781 113 3884 184 
Q 3956 234 3988 344 
Q 4000 397 4000 647 
L 4000 1878 
Q 4000 2228 3916 2372 
Q 3794 2572 3525 2572 
Q 3359 2572 3192 2489 
Q 3025 2406 2788 2181 
L 2781 2147 
L 2788 2013 
L 2788 647 
Q 2788 353 2820 281 
Q 2853 209 2943 161 
Q 3034 113 3253 113 
L 3253 0 
L 1806 0 
L 1806 113 
Q 2044 113 2133 169 
Q 2222 225 2256 338 
Q 2272 391 2272 647 
L 2272 1878 
Q 2272 2228 2169 2381 
Q 2031 2581 1784 2581 
Q 1616 2581 1450 2491 
Q 1191 2353 1050 2181 
L 1050 647 
Q 1050 366 1089 281 
Q 1128 197 1204 155 
Q 1281 113 1516 113 
L 1516 0 
L 100 0 
L 100 113 
Q 297 113 375 155 
Q 453 197 493 289 
Q 534 381 534 647 
L 534 1741 
Q 534 2213 506 2350 
Q 484 2453 437 2492 
Q 391 2531 309 2531 
Q 222 2531 100 2484 
L 53 2597 
L 916 2947 
L 1050 2947 
L 1050 2338 
z
" transform="scale(0.015625)"/>
      <path id="TimesNewRomanPSMT-64" d="M 2222 322 
Q 2013 103 1813 7 
Q 1613 -88 1381 -88 
Q 913 -88 563 304 
Q 213 697 213 1313 
Q 213 1928 600 2439 
Q 988 2950 1597 2950 
Q 1975 2950 2222 2709 
L 2222 3238 
Q 2222 3728 2198 3840 
Q 2175 3953 2125 3993 
Q 2075 4034 2000 4034 
Q 1919 4034 1784 3984 
L 1744 4094 
L 2597 4444 
L 2738 4444 
L 2738 1134 
Q 2738 631 2761 520 
Q 2784 409 2836 365 
Q 2888 322 2956 322 
Q 3041 322 3181 375 
L 3216 266 
L 2366 -88 
L 2222 -88 
L 2222 322 
z
M 2222 541 
L 2222 2016 
Q 2203 2228 2109 2403 
Q 2016 2578 1861 2667 
Q 1706 2756 1559 2756 
Q 1284 2756 1069 2509 
Q 784 2184 784 1559 
Q 784 928 1059 592 
Q 1334 256 1672 256 
Q 1956 256 2222 541 
z
" transform="scale(0.015625)"/>
      <path id="TimesNewRomanPSMT-6c" d="M 1184 4444 
L 1184 647 
Q 1184 378 1223 290 
Q 1263 203 1344 158 
Q 1425 113 1647 113 
L 1647 0 
L 244 0 
L 244 113 
Q 441 113 512 153 
Q 584 194 625 287 
Q 666 381 666 647 
L 666 3247 
Q 666 3731 644 3842 
Q 622 3953 573 3993 
Q 525 4034 450 4034 
Q 369 4034 244 3984 
L 191 4094 
L 1044 4444 
L 1184 4444 
z
" transform="scale(0.015625)"/>
      <path id="TimesNewRomanPSMT-28" d="M 1988 -1253 
L 1988 -1369 
Q 1516 -1131 1200 -813 
Q 750 -359 506 256 
Q 263 872 263 1534 
Q 263 2503 741 3301 
Q 1219 4100 1988 4444 
L 1988 4313 
Q 1603 4100 1356 3731 
Q 1109 3363 987 2797 
Q 866 2231 866 1616 
Q 866 947 969 400 
Q 1050 -31 1165 -292 
Q 1281 -553 1476 -793 
Q 1672 -1034 1988 -1253 
z
" transform="scale(0.015625)"/>
      <path id="TimesNewRomanPSMT-2b" d="M 1672 441 
L 1672 2000 
L 116 2000 
L 116 2256 
L 1672 2256 
L 1672 3809 
L 1922 3809 
L 1922 2256 
L 3484 2256 
L 3484 2000 
L 1922 2000 
L 1922 441 
L 1672 441 
z
" transform="scale(0.015625)"/>
      <path id="TimesNewRomanPSMT-2d" d="M 259 1672 
L 1875 1672 
L 1875 1200 
L 259 1200 
L 259 1672 
z
" transform="scale(0.015625)"/>
      <path id="TimesNewRomanPSMT-29" d="M 144 4313 
L 144 4444 
Q 619 4209 934 3891 
Q 1381 3434 1625 2820 
Q 1869 2206 1869 1541 
Q 1869 572 1392 -226 
Q 916 -1025 144 -1369 
L 144 -1253 
Q 528 -1038 776 -670 
Q 1025 -303 1145 264 
Q 1266 831 1266 1447 
Q 1266 2113 1163 2663 
Q 1084 3094 967 3353 
Q 850 3613 656 3853 
Q 463 4094 144 4313 
z
" transform="scale(0.015625)"/>
      <path id="TimesNewRomanPSMT-6b" d="M 1047 4444 
L 1047 1594 
L 1775 2259 
Q 2006 2472 2044 2528 
Q 2069 2566 2069 2603 
Q 2069 2666 2017 2711 
Q 1966 2756 1847 2763 
L 1847 2863 
L 3091 2863 
L 3091 2763 
Q 2834 2756 2664 2684 
Q 2494 2613 2291 2428 
L 1556 1750 
L 2291 822 
Q 2597 438 2703 334 
Q 2853 188 2966 144 
Q 3044 113 3238 113 
L 3238 0 
L 1847 0 
L 1847 113 
Q 1966 116 2008 148 
Q 2050 181 2050 241 
Q 2050 313 1925 472 
L 1047 1594 
L 1047 644 
Q 1047 366 1086 278 
Q 1125 191 1197 153 
Q 1269 116 1509 113 
L 1509 0 
L 53 0 
L 53 113 
Q 272 113 381 166 
Q 447 200 481 272 
Q 528 375 528 628 
L 528 3234 
Q 528 3731 506 3842 
Q 484 3953 434 3995 
Q 384 4038 303 4038 
Q 238 4038 106 3984 
L 53 4094 
L 903 4444 
L 1047 4444 
z
" transform="scale(0.015625)"/>
      <path id="TimesNewRomanPSMT-73" d="M 2050 2947 
L 2050 1972 
L 1947 1972 
Q 1828 2431 1642 2597 
Q 1456 2763 1169 2763 
Q 950 2763 815 2647 
Q 681 2531 681 2391 
Q 681 2216 781 2091 
Q 878 1963 1175 1819 
L 1631 1597 
Q 2266 1288 2266 781 
Q 2266 391 1970 151 
Q 1675 -88 1309 -88 
Q 1047 -88 709 6 
Q 606 38 541 38 
Q 469 38 428 -44 
L 325 -44 
L 325 978 
L 428 978 
Q 516 541 762 319 
Q 1009 97 1316 97 
Q 1531 97 1667 223 
Q 1803 350 1803 528 
Q 1803 744 1651 891 
Q 1500 1038 1047 1263 
Q 594 1488 453 1669 
Q 313 1847 313 2119 
Q 313 2472 555 2709 
Q 797 2947 1181 2947 
Q 1350 2947 1591 2875 
Q 1750 2828 1803 2828 
Q 1853 2828 1881 2850 
Q 1909 2872 1947 2947 
L 2050 2947 
z
" transform="scale(0.015625)"/>
      <path id="TimesNewRomanPSMT-6e" d="M 1034 2341 
Q 1538 2947 1994 2947 
Q 2228 2947 2397 2830 
Q 2566 2713 2666 2444 
Q 2734 2256 2734 1869 
L 2734 647 
Q 2734 375 2778 278 
Q 2813 200 2889 156 
Q 2966 113 3172 113 
L 3172 0 
L 1756 0 
L 1756 113 
L 1816 113 
Q 2016 113 2095 173 
Q 2175 234 2206 353 
Q 2219 400 2219 647 
L 2219 1819 
Q 2219 2209 2117 2386 
Q 2016 2563 1775 2563 
Q 1403 2563 1034 2156 
L 1034 647 
Q 1034 356 1069 288 
Q 1113 197 1189 155 
Q 1266 113 1500 113 
L 1500 0 
L 84 0 
L 84 113 
L 147 113 
Q 366 113 442 223 
Q 519 334 519 647 
L 519 1709 
Q 519 2225 495 2337 
Q 472 2450 423 2490 
Q 375 2531 294 2531 
Q 206 2531 84 2484 
L 38 2597 
L 900 2947 
L 1034 2947 
L 1034 2341 
z
" transform="scale(0.015625)"/>
      <path id="TimesNewRomanPSMT-76" d="M 53 2863 
L 1400 2863 
L 1400 2747 
L 1313 2747 
Q 1191 2747 1127 2687 
Q 1063 2628 1063 2528 
Q 1063 2419 1128 2269 
L 1794 688 
L 2463 2328 
Q 2534 2503 2534 2594 
Q 2534 2638 2509 2666 
Q 2475 2713 2422 2730 
Q 2369 2747 2206 2747 
L 2206 2863 
L 3141 2863 
L 3141 2747 
Q 2978 2734 2916 2681 
Q 2806 2588 2719 2369 
L 1703 -88 
L 1575 -88 
L 553 2328 
Q 484 2497 421 2570 
Q 359 2644 263 2694 
Q 209 2722 53 2747 
L 53 2863 
z
" transform="scale(0.015625)"/>
      <path id="TimesNewRomanPSMT-69" d="M 928 4444 
Q 1059 4444 1151 4351 
Q 1244 4259 1244 4128 
Q 1244 3997 1151 3903 
Q 1059 3809 928 3809 
Q 797 3809 703 3903 
Q 609 3997 609 4128 
Q 609 4259 701 4351 
Q 794 4444 928 4444 
z
M 1188 2947 
L 1188 647 
Q 1188 378 1227 289 
Q 1266 200 1342 156 
Q 1419 113 1622 113 
L 1622 0 
L 231 0 
L 231 113 
Q 441 113 512 153 
Q 584 194 626 287 
Q 669 381 669 647 
L 669 1750 
Q 669 2216 641 2353 
Q 619 2453 572 2492 
Q 525 2531 444 2531 
Q 356 2531 231 2484 
L 188 2597 
L 1050 2947 
L 1188 2947 
z
" transform="scale(0.015625)"/>
     </defs>
     <use xlink:href="#TimesNewRomanPSMT-41"/>
     <use xlink:href="#TimesNewRomanPSMT-63" transform="translate(72.216797 0)"/>
     <use xlink:href="#TimesNewRomanPSMT-63" transform="translate(116.601562 0)"/>
     <use xlink:href="#TimesNewRomanPSMT-75" transform="translate(160.986328 0)"/>
     <use xlink:href="#TimesNewRomanPSMT-72" transform="translate(210.986328 0)"/>
     <use xlink:href="#TimesNewRomanPSMT-61" transform="translate(244.287109 0)"/>
     <use xlink:href="#TimesNewRomanPSMT-63" transform="translate(288.671875 0)"/>
     <use xlink:href="#TimesNewRomanPSMT-79" transform="translate(333.056641 0)"/>
     <use xlink:href="#TimesNewRomanPSMT-20" transform="translate(383.056641 0)"/>
     <use xlink:href="#TimesNewRomanPSMT-6f" transform="translate(408.056641 0)"/>
     <use xlink:href="#TimesNewRomanPSMT-66" transform="translate(458.056641 0)"/>
     <use xlink:href="#TimesNewRomanPSMT-20" transform="translate(491.357422 0)"/>
     <use xlink:href="#TimesNewRomanPSMT-74" transform="translate(516.357422 0)"/>
     <use xlink:href="#TimesNewRomanPSMT-68" transform="translate(544.140625 0)"/>
     <use xlink:href="#TimesNewRomanPSMT-65" transform="translate(594.140625 0)"/>
     <use xlink:href="#TimesNewRomanPSMT-20" transform="translate(638.525391 0)"/>
     <use xlink:href="#TimesNewRomanPSMT-30" transform="translate(663.525391 0)"/>
     <use xlink:href="#TimesNewRomanPSMT-39" transform="translate(713.525391 0)"/>
     <use xlink:href="#TimesNewRomanPSMT-5f" transform="translate(763.525391 0)"/>
     <use xlink:href="#TimesNewRomanPSMT-30" transform="translate(813.525391 0)"/>
     <use xlink:href="#TimesNewRomanPSMT-37" transform="translate(863.525391 0)"/>
     <use xlink:href="#TimesNewRomanPSMT-5f" transform="translate(913.525391 0)"/>
     <use xlink:href="#TimesNewRomanPSMT-32" transform="translate(963.525391 0)"/>
     <use xlink:href="#TimesNewRomanPSMT-35" transform="translate(1013.525391 0)"/>
     <use xlink:href="#TimesNewRomanPSMT-5f" transform="translate(1063.525391 0)"/>
     <use xlink:href="#TimesNewRomanPSMT-43" transform="translate(1113.525391 0)"/>
     <use xlink:href="#TimesNewRomanPSMT-49" transform="translate(1180.224609 0)"/>
     <use xlink:href="#TimesNewRomanPSMT-4e" transform="translate(1213.525391 0)"/>
     <use xlink:href="#TimesNewRomanPSMT-49" transform="translate(1285.742188 0)"/>
     <use xlink:href="#TimesNewRomanPSMT-43" transform="translate(1319.042969 0)"/>
     <use xlink:href="#TimesNewRomanPSMT-31" transform="translate(1385.742188 0)"/>
     <use xlink:href="#TimesNewRomanPSMT-30" transform="translate(1435.742188 0)"/>
     <use xlink:href="#TimesNewRomanPSMT-5f" transform="translate(1485.742188 0)"/>
     <use xlink:href="#TimesNewRomanPSMT-74" transform="translate(1535.742188 0)"/>
     <use xlink:href="#TimesNewRomanPSMT-6f" transform="translate(1563.525391 0)"/>
     <use xlink:href="#TimesNewRomanPSMT-72" transform="translate(1613.525391 0)"/>
     <use xlink:href="#TimesNewRomanPSMT-63" transform="translate(1646.826172 0)"/>
     <use xlink:href="#TimesNewRomanPSMT-68" transform="translate(1691.210938 0)"/>
     <use xlink:href="#TimesNewRomanPSMT-5f" transform="translate(1741.210938 0)"/>
     <use xlink:href="#TimesNewRomanPSMT-6d" transform="translate(1791.210938 0)"/>
     <use xlink:href="#TimesNewRomanPSMT-6f" transform="translate(1868.994141 0)"/>
     <use xlink:href="#TimesNewRomanPSMT-64" transform="translate(1918.994141 0)"/>
     <use xlink:href="#TimesNewRomanPSMT-65" transform="translate(1968.994141 0)"/>
     <use xlink:href="#TimesNewRomanPSMT-6c" transform="translate(2013.378906 0)"/>
     <use xlink:href="#TimesNewRomanPSMT-5f" transform="translate(2041.162109 0)"/>
     <use xlink:href="#TimesNewRomanPSMT-28" transform="translate(2091.162109 0)"/>
     <use xlink:href="#TimesNewRomanPSMT-31" transform="translate(2124.462891 0)"/>
     <use xlink:href="#TimesNewRomanPSMT-30" transform="translate(2174.462891 0)"/>
     <use xlink:href="#TimesNewRomanPSMT-32" transform="translate(2224.462891 0)"/>
     <use xlink:href="#TimesNewRomanPSMT-34" transform="translate(2274.462891 0)"/>
     <use xlink:href="#TimesNewRomanPSMT-2b" transform="translate(2324.462891 0)"/>
     <use xlink:href="#TimesNewRomanPSMT-38" transform="translate(2380.859375 0)"/>
     <use xlink:href="#TimesNewRomanPSMT-31" transform="translate(2430.859375 0)"/>
     <use xlink:href="#TimesNewRomanPSMT-39" transform="translate(2480.859375 0)"/>
     <use xlink:href="#TimesNewRomanPSMT-32" transform="translate(2530.859375 0)"/>
     <use xlink:href="#TimesNewRomanPSMT-2d" transform="translate(2580.859375 0)"/>
     <use xlink:href="#TimesNewRomanPSMT-38" transform="translate(2614.160156 0)"/>
     <use xlink:href="#TimesNewRomanPSMT-31" transform="translate(2664.160156 0)"/>
     <use xlink:href="#TimesNewRomanPSMT-39" transform="translate(2714.160156 0)"/>
     <use xlink:href="#TimesNewRomanPSMT-32" transform="translate(2764.160156 0)"/>
     <use xlink:href="#TimesNewRomanPSMT-2e" transform="translate(2814.160156 0)"/>
     <use xlink:href="#TimesNewRomanPSMT-33" transform="translate(2839.160156 0)"/>
     <use xlink:href="#TimesNewRomanPSMT-2d" transform="translate(2889.160156 0)"/>
     <use xlink:href="#TimesNewRomanPSMT-31" transform="translate(2922.460938 0)"/>
     <use xlink:href="#TimesNewRomanPSMT-29" transform="translate(2972.460938 0)"/>
     <use xlink:href="#TimesNewRomanPSMT-5f" transform="translate(3005.761719 0)"/>
     <use xlink:href="#TimesNewRomanPSMT-65" transform="translate(3055.761719 0)"/>
     <use xlink:href="#TimesNewRomanPSMT-6c" transform="translate(3100.146484 0)"/>
     <use xlink:href="#TimesNewRomanPSMT-6b" transform="translate(3127.929688 0)"/>
     <use xlink:href="#TimesNewRomanPSMT-2d" transform="translate(3177.929688 0)"/>
     <use xlink:href="#TimesNewRomanPSMT-68" transform="translate(3211.230469 0)"/>
     <use xlink:href="#TimesNewRomanPSMT-6f" transform="translate(3261.230469 0)"/>
     <use xlink:href="#TimesNewRomanPSMT-72" transform="translate(3311.230469 0)"/>
     <use xlink:href="#TimesNewRomanPSMT-73" transform="translate(3344.53125 0)"/>
     <use xlink:href="#TimesNewRomanPSMT-65" transform="translate(3383.447266 0)"/>
     <use xlink:href="#TimesNewRomanPSMT-20" transform="translate(3427.832031 0)"/>
     <use xlink:href="#TimesNewRomanPSMT-6f" transform="translate(3452.832031 0)"/>
     <use xlink:href="#TimesNewRomanPSMT-6e" transform="translate(3502.832031 0)"/>
     <use xlink:href="#TimesNewRomanPSMT-20" transform="translate(3552.832031 0)"/>
     <use xlink:href="#TimesNewRomanPSMT-74" transform="translate(3577.832031 0)"/>
     <use xlink:href="#TimesNewRomanPSMT-68" transform="translate(3605.615234 0)"/>
     <use xlink:href="#TimesNewRomanPSMT-65" transform="translate(3655.615234 0)"/>
     <use xlink:href="#TimesNewRomanPSMT-20" transform="translate(3700 0)"/>
     <use xlink:href="#TimesNewRomanPSMT-76" transform="translate(3725 0)"/>
     <use xlink:href="#TimesNewRomanPSMT-61" transform="translate(3775 0)"/>
     <use xlink:href="#TimesNewRomanPSMT-6c" transform="translate(3819.384766 0)"/>
     <use xlink:href="#TimesNewRomanPSMT-69" transform="translate(3847.167969 0)"/>
     <use xlink:href="#TimesNewRomanPSMT-64" transform="translate(3874.951172 0)"/>
     <use xlink:href="#TimesNewRomanPSMT-61" transform="translate(3924.951172 0)"/>
     <use xlink:href="#TimesNewRomanPSMT-74" transform="translate(3969.335938 0)"/>
     <use xlink:href="#TimesNewRomanPSMT-69" transform="translate(3997.119141 0)"/>
     <use xlink:href="#TimesNewRomanPSMT-6f" transform="translate(4024.902344 0)"/>
     <use xlink:href="#TimesNewRomanPSMT-6e" transform="translate(4074.902344 0)"/>
     <use xlink:href="#TimesNewRomanPSMT-20" transform="translate(4124.902344 0)"/>
     <use xlink:href="#TimesNewRomanPSMT-73" transform="translate(4149.902344 0)"/>
     <use xlink:href="#TimesNewRomanPSMT-65" transform="translate(4188.818359 0)"/>
     <use xlink:href="#TimesNewRomanPSMT-74" transform="translate(4233.203125 0)"/>
    </g>
   </g>
   <g id="legend_1">
    <g id="patch_7">
     <path d="M 495.64375 94.278687 
L 732.814063 94.278687 
Q 737.214063 94.278687 737.214063 89.878687 
L 737.214063 60.9315 
Q 737.214063 56.5315 732.814063 56.5315 
L 495.64375 56.5315 
Q 491.24375 56.5315 491.24375 60.9315 
L 491.24375 89.878687 
Q 491.24375 94.278687 495.64375 94.278687 
z
" style="fill: #ffffff; opacity: 0.8; stroke: #cccccc; stroke-linejoin: miter"/>
    </g>
    <g id="line2d_30">
     <path d="M 500.04375 73.0315 
L 522.04375 73.0315 
L 544.04375 73.0315 
" style="fill: none; stroke: #1f77b4; stroke-width: 1.5; stroke-linecap: square"/>
    </g>
    <g id="text_18">
     <!-- Best accuracy 0.73 -->
     <g transform="translate(561.64375 80.7315) scale(0.22 -0.22)">
      <defs>
       <path id="TimesNewRomanPSMT-42" d="M 2956 2163 
Q 3397 2069 3616 1863 
Q 3919 1575 3919 1159 
Q 3919 844 3719 555 
Q 3519 266 3170 133 
Q 2822 0 2106 0 
L 106 0 
L 106 116 
L 266 116 
Q 531 116 647 284 
Q 719 394 719 750 
L 719 3488 
Q 719 3881 628 3984 
Q 506 4122 266 4122 
L 106 4122 
L 106 4238 
L 1938 4238 
Q 2450 4238 2759 4163 
Q 3228 4050 3475 3764 
Q 3722 3478 3722 3106 
Q 3722 2788 3528 2536 
Q 3334 2284 2956 2163 
z
M 1319 2331 
Q 1434 2309 1582 2298 
Q 1731 2288 1909 2288 
Q 2366 2288 2595 2386 
Q 2825 2484 2947 2687 
Q 3069 2891 3069 3131 
Q 3069 3503 2766 3765 
Q 2463 4028 1881 4028 
Q 1569 4028 1319 3959 
L 1319 2331 
z
M 1319 306 
Q 1681 222 2034 222 
Q 2600 222 2897 476 
Q 3194 731 3194 1106 
Q 3194 1353 3059 1581 
Q 2925 1809 2622 1940 
Q 2319 2072 1872 2072 
Q 1678 2072 1540 2065 
Q 1403 2059 1319 2044 
L 1319 306 
z
" transform="scale(0.015625)"/>
      </defs>
      <use xlink:href="#TimesNewRomanPSMT-42"/>
      <use xlink:href="#TimesNewRomanPSMT-65" transform="translate(66.699219 0)"/>
      <use xlink:href="#TimesNewRomanPSMT-73" transform="translate(111.083984 0)"/>
      <use xlink:href="#TimesNewRomanPSMT-74" transform="translate(150 0)"/>
      <use xlink:href="#TimesNewRomanPSMT-20" transform="translate(177.783203 0)"/>
      <use xlink:href="#TimesNewRomanPSMT-61" transform="translate(202.783203 0)"/>
      <use xlink:href="#TimesNewRomanPSMT-63" transform="translate(247.167969 0)"/>
      <use xlink:href="#TimesNewRomanPSMT-63" transform="translate(291.552734 0)"/>
      <use xlink:href="#TimesNewRomanPSMT-75" transform="translate(335.9375 0)"/>
      <use xlink:href="#TimesNewRomanPSMT-72" transform="translate(385.9375 0)"/>
      <use xlink:href="#TimesNewRomanPSMT-61" transform="translate(419.238281 0)"/>
      <use xlink:href="#TimesNewRomanPSMT-63" transform="translate(463.623047 0)"/>
      <use xlink:href="#TimesNewRomanPSMT-79" transform="translate(508.007812 0)"/>
      <use xlink:href="#TimesNewRomanPSMT-20" transform="translate(558.007812 0)"/>
      <use xlink:href="#TimesNewRomanPSMT-30" transform="translate(583.007812 0)"/>
      <use xlink:href="#TimesNewRomanPSMT-2e" transform="translate(633.007812 0)"/>
      <use xlink:href="#TimesNewRomanPSMT-37" transform="translate(658.007812 0)"/>
      <use xlink:href="#TimesNewRomanPSMT-33" transform="translate(708.007812 0)"/>
     </g>
    </g>
   </g>
  </g>
 </g>
 <defs>
  <clipPath id="p7ffe8addc4">
   <rect x="391.094063" y="45.5315" width="357.12" height="266.112"/>
  </clipPath>
 </defs>
</svg>
