<?xml version="1.0" encoding="utf-8" standalone="no"?>
<!DOCTYPE svg PUBLIC "-//W3C//DTD SVG 1.1//EN"
  "http://www.w3.org/Graphics/SVG/1.1/DTD/svg11.dtd">
<svg xmlns:xlink="http://www.w3.org/1999/xlink" width="1064.74875pt" height="383.265687pt" viewBox="0 0 1064.74875 383.265687" xmlns="http://www.w3.org/2000/svg" version="1.1">
 <metadata>
  <rdf:RDF xmlns:dc="http://purl.org/dc/elements/1.1/" xmlns:cc="http://creativecommons.org/ns#" xmlns:rdf="http://www.w3.org/1999/02/22-rdf-syntax-ns#">
   <cc:Work>
    <dc:type rdf:resource="http://purl.org/dc/dcmitype/StillImage"/>
    <dc:date>2025-07-12T10:41:28.753201</dc:date>
    <dc:format>image/svg+xml</dc:format>
    <dc:creator>
     <cc:Agent>
      <dc:title>Matplotlib v3.10.3, https://matplotlib.org/</dc:title>
     </cc:Agent>
    </dc:creator>
   </cc:Work>
  </rdf:RDF>
 </metadata>
 <defs>
  <style type="text/css">*{stroke-linejoin: round; stroke-linecap: butt}</style>
 </defs>
 <g id="figure_1">
  <g id="patch_1">
   <path d="M 0 383.265687 
L 1064.74875 383.265687 
L 1064.74875 0 
L 0 0 
z
" style="fill: #ffffff"/>
  </g>
  <g id="axes_1">
   <g id="patch_2">
    <path d="M 353.814375 311.6435 
L 710.934375 311.6435 
L 710.934375 45.5315 
L 353.814375 45.5315 
z
" style="fill: #ffffff"/>
   </g>
   <g id="matplotlib.axis_1">
    <g id="xtick_1">
     <g id="line2d_1">
      <path d="M 353.814375 311.6435 
L 353.814375 45.5315 
" clip-path="url(#pb4b36edf10)" style="fill: none; stroke: #b0b0b0; stroke-opacity: 0.3; stroke-width: 0.8; stroke-linecap: square"/>
     </g>
     <g id="line2d_2">
      <defs>
       <path id="m6f5e896672" d="M 0 0 
L 0 3.5 
" style="stroke: #000000; stroke-width: 0.8"/>
      </defs>
      <g>
       <use xlink:href="#m6f5e896672" x="353.814375" y="311.6435" style="stroke: #000000; stroke-width: 0.8"/>
      </g>
     </g>
     <g id="text_1">
      <!-- 0.0 -->
      <g transform="translate(340.064375 333.91975) scale(0.22 -0.22)">
       <defs>
        <path id="TimesNewRomanPSMT-30" d="M 231 2094 
Q 231 2819 450 3342 
Q 669 3866 1031 4122 
Q 1313 4325 1613 4325 
Q 2100 4325 2488 3828 
Q 2972 3213 2972 2159 
Q 2972 1422 2759 906 
Q 2547 391 2217 158 
Q 1888 -75 1581 -75 
Q 975 -75 572 641 
Q 231 1244 231 2094 
z
M 844 2016 
Q 844 1141 1059 588 
Q 1238 122 1591 122 
Q 1759 122 1940 273 
Q 2122 425 2216 781 
Q 2359 1319 2359 2297 
Q 2359 3022 2209 3506 
Q 2097 3866 1919 4016 
Q 1791 4119 1609 4119 
Q 1397 4119 1231 3928 
Q 1006 3669 925 3112 
Q 844 2556 844 2016 
z
" transform="scale(0.015625)"/>
        <path id="TimesNewRomanPSMT-2e" d="M 800 606 
Q 947 606 1047 504 
Q 1147 403 1147 259 
Q 1147 116 1045 14 
Q 944 -88 800 -88 
Q 656 -88 554 14 
Q 453 116 453 259 
Q 453 406 554 506 
Q 656 606 800 606 
z
" transform="scale(0.015625)"/>
       </defs>
       <use xlink:href="#TimesNewRomanPSMT-30"/>
       <use xlink:href="#TimesNewRomanPSMT-2e" transform="translate(50 0)"/>
       <use xlink:href="#TimesNewRomanPSMT-30" transform="translate(75 0)"/>
      </g>
     </g>
    </g>
    <g id="xtick_2">
     <g id="line2d_3">
      <path d="M 469.329848 311.6435 
L 469.329848 45.5315 
" clip-path="url(#pb4b36edf10)" style="fill: none; stroke: #b0b0b0; stroke-opacity: 0.3; stroke-width: 0.8; stroke-linecap: square"/>
     </g>
     <g id="line2d_4">
      <g>
       <use xlink:href="#m6f5e896672" x="469.329848" y="311.6435" style="stroke: #000000; stroke-width: 0.8"/>
      </g>
     </g>
     <g id="text_2">
      <!-- 0.5 -->
      <g transform="translate(455.579848 333.91975) scale(0.22 -0.22)">
       <defs>
        <path id="TimesNewRomanPSMT-35" d="M 2778 4238 
L 2534 3706 
L 1259 3706 
L 981 3138 
Q 1809 3016 2294 2522 
Q 2709 2097 2709 1522 
Q 2709 1188 2573 903 
Q 2438 619 2231 419 
Q 2025 219 1772 97 
Q 1413 -75 1034 -75 
Q 653 -75 479 54 
Q 306 184 306 341 
Q 306 428 378 495 
Q 450 563 559 563 
Q 641 563 702 538 
Q 763 513 909 409 
Q 1144 247 1384 247 
Q 1750 247 2026 523 
Q 2303 800 2303 1197 
Q 2303 1581 2056 1914 
Q 1809 2247 1375 2428 
Q 1034 2569 447 2591 
L 1259 4238 
L 2778 4238 
z
" transform="scale(0.015625)"/>
       </defs>
       <use xlink:href="#TimesNewRomanPSMT-30"/>
       <use xlink:href="#TimesNewRomanPSMT-2e" transform="translate(50 0)"/>
       <use xlink:href="#TimesNewRomanPSMT-35" transform="translate(75 0)"/>
      </g>
     </g>
    </g>
    <g id="xtick_3">
     <g id="line2d_5">
      <path d="M 584.845321 311.6435 
L 584.845321 45.5315 
" clip-path="url(#pb4b36edf10)" style="fill: none; stroke: #b0b0b0; stroke-opacity: 0.3; stroke-width: 0.8; stroke-linecap: square"/>
     </g>
     <g id="line2d_6">
      <g>
       <use xlink:href="#m6f5e896672" x="584.845321" y="311.6435" style="stroke: #000000; stroke-width: 0.8"/>
      </g>
     </g>
     <g id="text_3">
      <!-- 1.0 -->
      <g transform="translate(571.095321 333.91975) scale(0.22 -0.22)">
       <defs>
        <path id="TimesNewRomanPSMT-31" d="M 750 3822 
L 1781 4325 
L 1884 4325 
L 1884 747 
Q 1884 391 1914 303 
Q 1944 216 2037 169 
Q 2131 122 2419 116 
L 2419 0 
L 825 0 
L 825 116 
Q 1125 122 1212 167 
Q 1300 213 1334 289 
Q 1369 366 1369 747 
L 1369 3034 
Q 1369 3497 1338 3628 
Q 1316 3728 1258 3775 
Q 1200 3822 1119 3822 
Q 1003 3822 797 3725 
L 750 3822 
z
" transform="scale(0.015625)"/>
       </defs>
       <use xlink:href="#TimesNewRomanPSMT-31"/>
       <use xlink:href="#TimesNewRomanPSMT-2e" transform="translate(50 0)"/>
       <use xlink:href="#TimesNewRomanPSMT-30" transform="translate(75 0)"/>
      </g>
     </g>
    </g>
    <g id="xtick_4">
     <g id="line2d_7">
      <path d="M 700.360795 311.6435 
L 700.360795 45.5315 
" clip-path="url(#pb4b36edf10)" style="fill: none; stroke: #b0b0b0; stroke-opacity: 0.3; stroke-width: 0.8; stroke-linecap: square"/>
     </g>
     <g id="line2d_8">
      <g>
       <use xlink:href="#m6f5e896672" x="700.360795" y="311.6435" style="stroke: #000000; stroke-width: 0.8"/>
      </g>
     </g>
     <g id="text_4">
      <!-- 1.5 -->
      <g transform="translate(686.610795 333.91975) scale(0.22 -0.22)">
       <use xlink:href="#TimesNewRomanPSMT-31"/>
       <use xlink:href="#TimesNewRomanPSMT-2e" transform="translate(50 0)"/>
       <use xlink:href="#TimesNewRomanPSMT-35" transform="translate(75 0)"/>
      </g>
     </g>
    </g>
    <g id="text_5">
     <!-- $\kappa  = \frac{ln(n)}{ln(d)}$ -->
     <g transform="translate(500.364375 364.185687) scale(0.22 -0.22)">
      <defs>
       <path id="STIXGeneral-Italic-3ba" d="M 979 1440 
L 998 1446 
Q 1850 2541 2464 2790 
Q 2547 2822 2630 2822 
Q 2797 2822 2886 2736 
Q 2976 2650 2976 2522 
Q 2976 2387 2893 2307 
Q 2810 2227 2682 2227 
Q 2605 2227 2502 2288 
Q 2400 2349 2336 2349 
Q 2170 2349 1990 2205 
Q 1811 2061 1414 1645 
L 2042 544 
Q 2202 262 2310 182 
Q 2419 102 2624 102 
L 2624 0 
Q 2374 -83 2182 -83 
Q 1786 -83 1555 326 
L 960 1350 
L 576 0 
L 90 0 
L 640 1978 
Q 730 2317 730 2406 
Q 730 2560 518 2560 
L 339 2560 
L 339 2650 
Q 678 2694 1306 2822 
L 1325 2803 
L 979 1440 
z
" transform="scale(0.015625)"/>
       <path id="STIXGeneral-Regular-3d" d="M 4077 2048 
L 307 2048 
L 307 2470 
L 4077 2470 
L 4077 2048 
z
M 4077 768 
L 307 768 
L 307 1190 
L 4077 1190 
L 4077 768 
z
" transform="scale(0.015625)"/>
       <path id="STIXGeneral-Italic-6c" d="M 1786 4339 
L 806 595 
Q 755 410 755 320 
Q 755 205 864 205 
Q 1037 205 1293 570 
L 1453 794 
L 1542 730 
Q 1254 275 1046 102 
Q 838 -70 576 -70 
Q 262 -70 262 288 
Q 262 397 288 480 
L 1165 3834 
Q 1184 3898 1184 3955 
Q 1184 4096 870 4096 
L 755 4096 
L 755 4198 
Q 1203 4250 1747 4371 
L 1786 4339 
z
" transform="scale(0.015625)"/>
       <path id="STIXGeneral-Italic-6e" d="M 2944 749 
L 3034 666 
Q 2707 218 2534 80 
Q 2362 -58 2138 -58 
Q 2010 -58 1923 28 
Q 1837 115 1837 288 
Q 1837 390 1939 768 
L 2221 1805 
Q 2310 2150 2310 2310 
Q 2310 2496 2157 2496 
Q 1971 2496 1750 2275 
Q 1530 2054 1210 1587 
Q 998 1274 899 1024 
Q 800 774 570 0 
L 90 0 
L 704 2240 
Q 717 2304 717 2349 
Q 717 2445 630 2480 
Q 544 2515 301 2522 
L 301 2624 
Q 550 2675 857 2729 
Q 1165 2784 1338 2822 
L 1363 2810 
L 934 1414 
Q 1408 2170 1753 2496 
Q 2099 2822 2413 2822 
Q 2611 2822 2720 2716 
Q 2829 2611 2829 2432 
Q 2829 2272 2765 2048 
L 2406 749 
Q 2317 429 2317 358 
Q 2317 243 2419 243 
Q 2541 243 2810 582 
Q 2854 634 2944 749 
z
" transform="scale(0.015625)"/>
       <path id="STIXGeneral-Regular-28" d="M 1946 -1030 
L 1869 -1133 
Q 1126 -710 716 32 
Q 307 774 307 1613 
Q 307 3386 1888 4326 
L 1946 4224 
Q 1293 3667 1075 3126 
Q 858 2586 858 1632 
Q 858 685 1082 96 
Q 1306 -493 1946 -1030 
z
" transform="scale(0.015625)"/>
       <path id="STIXGeneral-Regular-29" d="M 186 4224 
L 262 4326 
Q 992 3891 1408 3148 
Q 1824 2406 1824 1581 
Q 1824 -166 243 -1133 
L 186 -1030 
Q 845 -486 1059 54 
Q 1274 595 1274 1562 
Q 1274 2534 1059 3120 
Q 845 3706 186 4224 
z
" transform="scale(0.015625)"/>
       <path id="STIXGeneral-Italic-64" d="M 3334 4371 
L 3373 4333 
L 3123 3360 
L 2739 1958 
Q 2323 429 2323 384 
Q 2323 256 2438 256 
Q 2522 256 2614 336 
Q 2707 416 2963 710 
L 3040 646 
Q 2547 -83 2099 -83 
Q 1978 -83 1907 -6 
Q 1837 70 1837 205 
Q 1837 397 1920 774 
Q 1645 307 1379 118 
Q 1114 -70 781 -70 
Q 461 -70 278 125 
Q 96 320 96 678 
Q 96 1440 713 2131 
Q 1331 2822 1965 2822 
Q 2163 2822 2256 2732 
Q 2349 2643 2381 2451 
L 2387 2451 
L 2675 3494 
Q 2765 3808 2765 3949 
Q 2765 4051 2694 4076 
Q 2624 4102 2355 4115 
L 2355 4224 
Q 2848 4269 3334 4371 
z
M 2278 2310 
Q 2278 2477 2185 2576 
Q 2093 2675 1978 2675 
Q 1677 2675 1395 2381 
Q 1075 2042 864 1571 
Q 653 1101 653 704 
Q 653 486 752 361 
Q 851 237 1024 237 
Q 1312 237 1606 550 
Q 1901 864 2089 1350 
Q 2278 1837 2278 2310 
z
" transform="scale(0.015625)"/>
      </defs>
      <use xlink:href="#STIXGeneral-Italic-3ba" transform="translate(0 0.003125)"/>
      <use xlink:href="#STIXGeneral-Regular-3d" transform="translate(58.83999 0.003125)"/>
      <use xlink:href="#STIXGeneral-Italic-6c" transform="translate(141.779971 50.192188) scale(0.7)"/>
      <use xlink:href="#STIXGeneral-Italic-6e" transform="translate(161.239963 50.192188) scale(0.7)"/>
      <use xlink:href="#STIXGeneral-Regular-28" transform="translate(196.239952 50.192188) scale(0.7)"/>
      <use xlink:href="#STIXGeneral-Italic-6e" transform="translate(219.549944 50.192188) scale(0.7)"/>
      <use xlink:href="#STIXGeneral-Regular-29" transform="translate(254.549933 50.192188) scale(0.7)"/>
      <use xlink:href="#STIXGeneral-Italic-6c" transform="translate(141.779971 -41.257812) scale(0.7)"/>
      <use xlink:href="#STIXGeneral-Italic-6e" transform="translate(161.239963 -41.257812) scale(0.7)"/>
      <use xlink:href="#STIXGeneral-Regular-28" transform="translate(196.239952 -41.257812) scale(0.7)"/>
      <use xlink:href="#STIXGeneral-Italic-64" transform="translate(219.549944 -41.257812) scale(0.7)"/>
      <use xlink:href="#STIXGeneral-Regular-29" transform="translate(254.549933 -41.257812) scale(0.7)"/>
      <path d="M 141.779971 12.8 
L 141.779971 19.05 
L 277.859924 19.05 
L 277.859924 12.8 
L 141.779971 12.8 
z
"/>
     </g>
    </g>
   </g>
   <g id="matplotlib.axis_2">
    <g id="ytick_1">
     <g id="line2d_9">
      <path d="M 353.814375 311.6435 
L 710.934375 311.6435 
" clip-path="url(#pb4b36edf10)" style="fill: none; stroke: #b0b0b0; stroke-opacity: 0.3; stroke-width: 0.8; stroke-linecap: square"/>
     </g>
     <g id="line2d_10">
      <defs>
       <path id="m062dc0f830" d="M 0 0 
L -3.5 0 
" style="stroke: #000000; stroke-width: 0.8"/>
      </defs>
      <g>
       <use xlink:href="#m062dc0f830" x="353.814375" y="311.6435" style="stroke: #000000; stroke-width: 0.8"/>
      </g>
     </g>
     <g id="text_6">
      <!-- 0.0 -->
      <g transform="translate(319.314375 319.281625) scale(0.22 -0.22)">
       <use xlink:href="#TimesNewRomanPSMT-30"/>
       <use xlink:href="#TimesNewRomanPSMT-2e" transform="translate(50 0)"/>
       <use xlink:href="#TimesNewRomanPSMT-30" transform="translate(75 0)"/>
      </g>
     </g>
    </g>
    <g id="ytick_2">
     <g id="line2d_11">
      <path d="M 353.814375 285.0323 
L 710.934375 285.0323 
" clip-path="url(#pb4b36edf10)" style="fill: none; stroke: #b0b0b0; stroke-opacity: 0.3; stroke-width: 0.8; stroke-linecap: square"/>
     </g>
     <g id="line2d_12">
      <g>
       <use xlink:href="#m062dc0f830" x="353.814375" y="285.0323" style="stroke: #000000; stroke-width: 0.8"/>
      </g>
     </g>
     <g id="text_7">
      <!-- 0.1 -->
      <g transform="translate(319.314375 292.670425) scale(0.22 -0.22)">
       <use xlink:href="#TimesNewRomanPSMT-30"/>
       <use xlink:href="#TimesNewRomanPSMT-2e" transform="translate(50 0)"/>
       <use xlink:href="#TimesNewRomanPSMT-31" transform="translate(75 0)"/>
      </g>
     </g>
    </g>
    <g id="ytick_3">
     <g id="line2d_13">
      <path d="M 353.814375 258.4211 
L 710.934375 258.4211 
" clip-path="url(#pb4b36edf10)" style="fill: none; stroke: #b0b0b0; stroke-opacity: 0.3; stroke-width: 0.8; stroke-linecap: square"/>
     </g>
     <g id="line2d_14">
      <g>
       <use xlink:href="#m062dc0f830" x="353.814375" y="258.4211" style="stroke: #000000; stroke-width: 0.8"/>
      </g>
     </g>
     <g id="text_8">
      <!-- 0.2 -->
      <g transform="translate(319.314375 266.059225) scale(0.22 -0.22)">
       <defs>
        <path id="TimesNewRomanPSMT-32" d="M 2934 816 
L 2638 0 
L 138 0 
L 138 116 
Q 1241 1122 1691 1759 
Q 2141 2397 2141 2925 
Q 2141 3328 1894 3587 
Q 1647 3847 1303 3847 
Q 991 3847 742 3664 
Q 494 3481 375 3128 
L 259 3128 
Q 338 3706 661 4015 
Q 984 4325 1469 4325 
Q 1984 4325 2329 3994 
Q 2675 3663 2675 3213 
Q 2675 2891 2525 2569 
Q 2294 2063 1775 1497 
Q 997 647 803 472 
L 1909 472 
Q 2247 472 2383 497 
Q 2519 522 2628 598 
Q 2738 675 2819 816 
L 2934 816 
z
" transform="scale(0.015625)"/>
       </defs>
       <use xlink:href="#TimesNewRomanPSMT-30"/>
       <use xlink:href="#TimesNewRomanPSMT-2e" transform="translate(50 0)"/>
       <use xlink:href="#TimesNewRomanPSMT-32" transform="translate(75 0)"/>
      </g>
     </g>
    </g>
    <g id="ytick_4">
     <g id="line2d_15">
      <path d="M 353.814375 231.8099 
L 710.934375 231.8099 
" clip-path="url(#pb4b36edf10)" style="fill: none; stroke: #b0b0b0; stroke-opacity: 0.3; stroke-width: 0.8; stroke-linecap: square"/>
     </g>
     <g id="line2d_16">
      <g>
       <use xlink:href="#m062dc0f830" x="353.814375" y="231.8099" style="stroke: #000000; stroke-width: 0.8"/>
      </g>
     </g>
     <g id="text_9">
      <!-- 0.3 -->
      <g transform="translate(319.314375 239.448025) scale(0.22 -0.22)">
       <defs>
        <path id="TimesNewRomanPSMT-33" d="M 325 3431 
Q 506 3859 782 4092 
Q 1059 4325 1472 4325 
Q 1981 4325 2253 3994 
Q 2459 3747 2459 3466 
Q 2459 3003 1878 2509 
Q 2269 2356 2469 2072 
Q 2669 1788 2669 1403 
Q 2669 853 2319 450 
Q 1863 -75 997 -75 
Q 569 -75 414 31 
Q 259 138 259 259 
Q 259 350 332 419 
Q 406 488 509 488 
Q 588 488 669 463 
Q 722 447 909 348 
Q 1097 250 1169 231 
Q 1284 197 1416 197 
Q 1734 197 1970 444 
Q 2206 691 2206 1028 
Q 2206 1275 2097 1509 
Q 2016 1684 1919 1775 
Q 1784 1900 1550 2001 
Q 1316 2103 1072 2103 
L 972 2103 
L 972 2197 
Q 1219 2228 1467 2375 
Q 1716 2522 1828 2728 
Q 1941 2934 1941 3181 
Q 1941 3503 1739 3701 
Q 1538 3900 1238 3900 
Q 753 3900 428 3381 
L 325 3431 
z
" transform="scale(0.015625)"/>
       </defs>
       <use xlink:href="#TimesNewRomanPSMT-30"/>
       <use xlink:href="#TimesNewRomanPSMT-2e" transform="translate(50 0)"/>
       <use xlink:href="#TimesNewRomanPSMT-33" transform="translate(75 0)"/>
      </g>
     </g>
    </g>
    <g id="ytick_5">
     <g id="line2d_17">
      <path d="M 353.814375 205.1987 
L 710.934375 205.1987 
" clip-path="url(#pb4b36edf10)" style="fill: none; stroke: #b0b0b0; stroke-opacity: 0.3; stroke-width: 0.8; stroke-linecap: square"/>
     </g>
     <g id="line2d_18">
      <g>
       <use xlink:href="#m062dc0f830" x="353.814375" y="205.1987" style="stroke: #000000; stroke-width: 0.8"/>
      </g>
     </g>
     <g id="text_10">
      <!-- 0.4 -->
      <g transform="translate(319.314375 212.836825) scale(0.22 -0.22)">
       <defs>
        <path id="TimesNewRomanPSMT-34" d="M 2978 1563 
L 2978 1119 
L 2409 1119 
L 2409 0 
L 1894 0 
L 1894 1119 
L 100 1119 
L 100 1519 
L 2066 4325 
L 2409 4325 
L 2409 1563 
L 2978 1563 
z
M 1894 1563 
L 1894 3666 
L 406 1563 
L 1894 1563 
z
" transform="scale(0.015625)"/>
       </defs>
       <use xlink:href="#TimesNewRomanPSMT-30"/>
       <use xlink:href="#TimesNewRomanPSMT-2e" transform="translate(50 0)"/>
       <use xlink:href="#TimesNewRomanPSMT-34" transform="translate(75 0)"/>
      </g>
     </g>
    </g>
    <g id="ytick_6">
     <g id="line2d_19">
      <path d="M 353.814375 178.5875 
L 710.934375 178.5875 
" clip-path="url(#pb4b36edf10)" style="fill: none; stroke: #b0b0b0; stroke-opacity: 0.3; stroke-width: 0.8; stroke-linecap: square"/>
     </g>
     <g id="line2d_20">
      <g>
       <use xlink:href="#m062dc0f830" x="353.814375" y="178.5875" style="stroke: #000000; stroke-width: 0.8"/>
      </g>
     </g>
     <g id="text_11">
      <!-- 0.5 -->
      <g transform="translate(319.314375 186.225625) scale(0.22 -0.22)">
       <use xlink:href="#TimesNewRomanPSMT-30"/>
       <use xlink:href="#TimesNewRomanPSMT-2e" transform="translate(50 0)"/>
       <use xlink:href="#TimesNewRomanPSMT-35" transform="translate(75 0)"/>
      </g>
     </g>
    </g>
    <g id="ytick_7">
     <g id="line2d_21">
      <path d="M 353.814375 151.9763 
L 710.934375 151.9763 
" clip-path="url(#pb4b36edf10)" style="fill: none; stroke: #b0b0b0; stroke-opacity: 0.3; stroke-width: 0.8; stroke-linecap: square"/>
     </g>
     <g id="line2d_22">
      <g>
       <use xlink:href="#m062dc0f830" x="353.814375" y="151.9763" style="stroke: #000000; stroke-width: 0.8"/>
      </g>
     </g>
     <g id="text_12">
      <!-- 0.6 -->
      <g transform="translate(319.314375 159.614425) scale(0.22 -0.22)">
       <defs>
        <path id="TimesNewRomanPSMT-36" d="M 2869 4325 
L 2869 4209 
Q 2456 4169 2195 4045 
Q 1934 3922 1679 3669 
Q 1425 3416 1258 3105 
Q 1091 2794 978 2366 
Q 1428 2675 1881 2675 
Q 2316 2675 2634 2325 
Q 2953 1975 2953 1425 
Q 2953 894 2631 456 
Q 2244 -75 1606 -75 
Q 1172 -75 869 213 
Q 275 772 275 1663 
Q 275 2231 503 2743 
Q 731 3256 1154 3653 
Q 1578 4050 1965 4187 
Q 2353 4325 2688 4325 
L 2869 4325 
z
M 925 2138 
Q 869 1716 869 1456 
Q 869 1156 980 804 
Q 1091 453 1309 247 
Q 1469 100 1697 100 
Q 1969 100 2183 356 
Q 2397 613 2397 1088 
Q 2397 1622 2184 2012 
Q 1972 2403 1581 2403 
Q 1463 2403 1327 2353 
Q 1191 2303 925 2138 
z
" transform="scale(0.015625)"/>
       </defs>
       <use xlink:href="#TimesNewRomanPSMT-30"/>
       <use xlink:href="#TimesNewRomanPSMT-2e" transform="translate(50 0)"/>
       <use xlink:href="#TimesNewRomanPSMT-36" transform="translate(75 0)"/>
      </g>
     </g>
    </g>
    <g id="ytick_8">
     <g id="line2d_23">
      <path d="M 353.814375 125.3651 
L 710.934375 125.3651 
" clip-path="url(#pb4b36edf10)" style="fill: none; stroke: #b0b0b0; stroke-opacity: 0.3; stroke-width: 0.8; stroke-linecap: square"/>
     </g>
     <g id="line2d_24">
      <g>
       <use xlink:href="#m062dc0f830" x="353.814375" y="125.3651" style="stroke: #000000; stroke-width: 0.8"/>
      </g>
     </g>
     <g id="text_13">
      <!-- 0.7 -->
      <g transform="translate(319.314375 133.003225) scale(0.22 -0.22)">
       <defs>
        <path id="TimesNewRomanPSMT-37" d="M 644 4238 
L 2916 4238 
L 2916 4119 
L 1503 -88 
L 1153 -88 
L 2419 3728 
L 1253 3728 
Q 900 3728 750 3644 
Q 488 3500 328 3200 
L 238 3234 
L 644 4238 
z
" transform="scale(0.015625)"/>
       </defs>
       <use xlink:href="#TimesNewRomanPSMT-30"/>
       <use xlink:href="#TimesNewRomanPSMT-2e" transform="translate(50 0)"/>
       <use xlink:href="#TimesNewRomanPSMT-37" transform="translate(75 0)"/>
      </g>
     </g>
    </g>
    <g id="ytick_9">
     <g id="line2d_25">
      <path d="M 353.814375 98.7539 
L 710.934375 98.7539 
" clip-path="url(#pb4b36edf10)" style="fill: none; stroke: #b0b0b0; stroke-opacity: 0.3; stroke-width: 0.8; stroke-linecap: square"/>
     </g>
     <g id="line2d_26">
      <g>
       <use xlink:href="#m062dc0f830" x="353.814375" y="98.7539" style="stroke: #000000; stroke-width: 0.8"/>
      </g>
     </g>
     <g id="text_14">
      <!-- 0.8 -->
      <g transform="translate(319.314375 106.392025) scale(0.22 -0.22)">
       <defs>
        <path id="TimesNewRomanPSMT-38" d="M 1228 2134 
Q 725 2547 579 2797 
Q 434 3047 434 3316 
Q 434 3728 753 4026 
Q 1072 4325 1600 4325 
Q 2113 4325 2425 4047 
Q 2738 3769 2738 3413 
Q 2738 3175 2569 2928 
Q 2400 2681 1866 2347 
Q 2416 1922 2594 1678 
Q 2831 1359 2831 1006 
Q 2831 559 2490 242 
Q 2150 -75 1597 -75 
Q 994 -75 656 303 
Q 388 606 388 966 
Q 388 1247 577 1523 
Q 766 1800 1228 2134 
z
M 1719 2469 
Q 2094 2806 2194 3001 
Q 2294 3197 2294 3444 
Q 2294 3772 2109 3958 
Q 1925 4144 1606 4144 
Q 1288 4144 1088 3959 
Q 888 3775 888 3528 
Q 888 3366 970 3203 
Q 1053 3041 1206 2894 
L 1719 2469 
z
M 1375 2016 
Q 1116 1797 991 1539 
Q 866 1281 866 981 
Q 866 578 1086 336 
Q 1306 94 1647 94 
Q 1984 94 2187 284 
Q 2391 475 2391 747 
Q 2391 972 2272 1150 
Q 2050 1481 1375 2016 
z
" transform="scale(0.015625)"/>
       </defs>
       <use xlink:href="#TimesNewRomanPSMT-30"/>
       <use xlink:href="#TimesNewRomanPSMT-2e" transform="translate(50 0)"/>
       <use xlink:href="#TimesNewRomanPSMT-38" transform="translate(75 0)"/>
      </g>
     </g>
    </g>
    <g id="ytick_10">
     <g id="line2d_27">
      <path d="M 353.814375 72.1427 
L 710.934375 72.1427 
" clip-path="url(#pb4b36edf10)" style="fill: none; stroke: #b0b0b0; stroke-opacity: 0.3; stroke-width: 0.8; stroke-linecap: square"/>
     </g>
     <g id="line2d_28">
      <g>
       <use xlink:href="#m062dc0f830" x="353.814375" y="72.1427" style="stroke: #000000; stroke-width: 0.8"/>
      </g>
     </g>
     <g id="text_15">
      <!-- 0.9 -->
      <g transform="translate(319.314375 79.780825) scale(0.22 -0.22)">
       <defs>
        <path id="TimesNewRomanPSMT-39" d="M 338 -88 
L 338 28 
Q 744 34 1094 217 
Q 1444 400 1770 856 
Q 2097 1313 2225 1859 
Q 1734 1544 1338 1544 
Q 891 1544 572 1889 
Q 253 2234 253 2806 
Q 253 3363 572 3797 
Q 956 4325 1575 4325 
Q 2097 4325 2469 3894 
Q 2925 3359 2925 2575 
Q 2925 1869 2578 1258 
Q 2231 647 1613 244 
Q 1109 -88 516 -88 
L 338 -88 
z
M 2275 2091 
Q 2331 2497 2331 2741 
Q 2331 3044 2228 3395 
Q 2125 3747 1936 3934 
Q 1747 4122 1506 4122 
Q 1228 4122 1018 3872 
Q 809 3622 809 3128 
Q 809 2469 1088 2097 
Q 1291 1828 1588 1828 
Q 1731 1828 1928 1897 
Q 2125 1966 2275 2091 
z
" transform="scale(0.015625)"/>
       </defs>
       <use xlink:href="#TimesNewRomanPSMT-30"/>
       <use xlink:href="#TimesNewRomanPSMT-2e" transform="translate(50 0)"/>
       <use xlink:href="#TimesNewRomanPSMT-39" transform="translate(75 0)"/>
      </g>
     </g>
    </g>
    <g id="ytick_11">
     <g id="line2d_29">
      <path d="M 353.814375 45.5315 
L 710.934375 45.5315 
" clip-path="url(#pb4b36edf10)" style="fill: none; stroke: #b0b0b0; stroke-opacity: 0.3; stroke-width: 0.8; stroke-linecap: square"/>
     </g>
     <g id="line2d_30">
      <g>
       <use xlink:href="#m062dc0f830" x="353.814375" y="45.5315" style="stroke: #000000; stroke-width: 0.8"/>
      </g>
     </g>
     <g id="text_16">
      <!-- 1.0 -->
      <g transform="translate(319.314375 53.169625) scale(0.22 -0.22)">
       <use xlink:href="#TimesNewRomanPSMT-31"/>
       <use xlink:href="#TimesNewRomanPSMT-2e" transform="translate(50 0)"/>
       <use xlink:href="#TimesNewRomanPSMT-30" transform="translate(75 0)"/>
      </g>
     </g>
    </g>
    <g id="text_17">
     <!-- Accuracy -->
     <g transform="translate(310.567188 220.726094) rotate(-90) scale(0.22 -0.22)">
      <defs>
       <path id="TimesNewRomanPSMT-41" d="M 2928 1419 
L 1288 1419 
L 1000 750 
Q 894 503 894 381 
Q 894 284 986 211 
Q 1078 138 1384 116 
L 1384 0 
L 50 0 
L 50 116 
Q 316 163 394 238 
Q 553 388 747 847 
L 2238 4334 
L 2347 4334 
L 3822 809 
Q 4000 384 4145 257 
Q 4291 131 4550 116 
L 4550 0 
L 2878 0 
L 2878 116 
Q 3131 128 3220 200 
Q 3309 272 3309 375 
Q 3309 513 3184 809 
L 2928 1419 
z
M 2841 1650 
L 2122 3363 
L 1384 1650 
L 2841 1650 
z
" transform="scale(0.015625)"/>
       <path id="TimesNewRomanPSMT-63" d="M 2631 1088 
Q 2516 522 2178 217 
Q 1841 -88 1431 -88 
Q 944 -88 581 321 
Q 219 731 219 1428 
Q 219 2103 620 2525 
Q 1022 2947 1584 2947 
Q 2006 2947 2278 2723 
Q 2550 2500 2550 2259 
Q 2550 2141 2473 2067 
Q 2397 1994 2259 1994 
Q 2075 1994 1981 2113 
Q 1928 2178 1911 2362 
Q 1894 2547 1784 2644 
Q 1675 2738 1481 2738 
Q 1169 2738 978 2506 
Q 725 2200 725 1697 
Q 725 1184 976 792 
Q 1228 400 1656 400 
Q 1963 400 2206 609 
Q 2378 753 2541 1131 
L 2631 1088 
z
" transform="scale(0.015625)"/>
       <path id="TimesNewRomanPSMT-75" d="M 2709 2863 
L 2709 1128 
Q 2709 631 2732 520 
Q 2756 409 2807 365 
Q 2859 322 2928 322 
Q 3025 322 3147 375 
L 3191 266 
L 2334 -88 
L 2194 -88 
L 2194 519 
Q 1825 119 1631 15 
Q 1438 -88 1222 -88 
Q 981 -88 804 51 
Q 628 191 559 409 
Q 491 628 491 1028 
L 491 2306 
Q 491 2509 447 2587 
Q 403 2666 317 2708 
Q 231 2750 6 2747 
L 6 2863 
L 1009 2863 
L 1009 947 
Q 1009 547 1148 422 
Q 1288 297 1484 297 
Q 1619 297 1789 381 
Q 1959 466 2194 703 
L 2194 2325 
Q 2194 2569 2105 2655 
Q 2016 2741 1734 2747 
L 1734 2863 
L 2709 2863 
z
" transform="scale(0.015625)"/>
       <path id="TimesNewRomanPSMT-72" d="M 1038 2947 
L 1038 2303 
Q 1397 2947 1775 2947 
Q 1947 2947 2059 2842 
Q 2172 2738 2172 2600 
Q 2172 2478 2090 2393 
Q 2009 2309 1897 2309 
Q 1788 2309 1652 2417 
Q 1516 2525 1450 2525 
Q 1394 2525 1328 2463 
Q 1188 2334 1038 2041 
L 1038 669 
Q 1038 431 1097 309 
Q 1138 225 1241 169 
Q 1344 113 1538 113 
L 1538 0 
L 72 0 
L 72 113 
Q 291 113 397 181 
Q 475 231 506 341 
Q 522 394 522 644 
L 522 1753 
Q 522 2253 501 2348 
Q 481 2444 426 2487 
Q 372 2531 291 2531 
Q 194 2531 72 2484 
L 41 2597 
L 906 2947 
L 1038 2947 
z
" transform="scale(0.015625)"/>
       <path id="TimesNewRomanPSMT-61" d="M 1822 413 
Q 1381 72 1269 19 
Q 1100 -59 909 -59 
Q 613 -59 420 144 
Q 228 347 228 678 
Q 228 888 322 1041 
Q 450 1253 767 1440 
Q 1084 1628 1822 1897 
L 1822 2009 
Q 1822 2438 1686 2597 
Q 1550 2756 1291 2756 
Q 1094 2756 978 2650 
Q 859 2544 859 2406 
L 866 2225 
Q 866 2081 792 2003 
Q 719 1925 600 1925 
Q 484 1925 411 2006 
Q 338 2088 338 2228 
Q 338 2497 613 2722 
Q 888 2947 1384 2947 
Q 1766 2947 2009 2819 
Q 2194 2722 2281 2516 
Q 2338 2381 2338 1966 
L 2338 994 
Q 2338 584 2353 492 
Q 2369 400 2405 369 
Q 2441 338 2488 338 
Q 2538 338 2575 359 
Q 2641 400 2828 588 
L 2828 413 
Q 2478 -56 2159 -56 
Q 2006 -56 1915 50 
Q 1825 156 1822 413 
z
M 1822 616 
L 1822 1706 
Q 1350 1519 1213 1441 
Q 966 1303 859 1153 
Q 753 1003 753 825 
Q 753 600 887 451 
Q 1022 303 1197 303 
Q 1434 303 1822 616 
z
" transform="scale(0.015625)"/>
       <path id="TimesNewRomanPSMT-79" d="M 38 2863 
L 1372 2863 
L 1372 2747 
L 1306 2747 
Q 1166 2747 1095 2686 
Q 1025 2625 1025 2534 
Q 1025 2413 1128 2197 
L 1825 753 
L 2466 2334 
Q 2519 2463 2519 2588 
Q 2519 2644 2497 2672 
Q 2472 2706 2419 2726 
Q 2366 2747 2231 2747 
L 2231 2863 
L 3163 2863 
L 3163 2747 
Q 3047 2734 2984 2696 
Q 2922 2659 2847 2556 
Q 2819 2513 2741 2316 
L 1575 -541 
Q 1406 -956 1132 -1168 
Q 859 -1381 606 -1381 
Q 422 -1381 303 -1275 
Q 184 -1169 184 -1031 
Q 184 -900 270 -820 
Q 356 -741 506 -741 
Q 609 -741 788 -809 
Q 913 -856 944 -856 
Q 1038 -856 1148 -759 
Q 1259 -663 1372 -384 
L 1575 113 
L 547 2272 
Q 500 2369 397 2513 
Q 319 2622 269 2659 
Q 197 2709 38 2747 
L 38 2863 
z
" transform="scale(0.015625)"/>
      </defs>
      <use xlink:href="#TimesNewRomanPSMT-41"/>
      <use xlink:href="#TimesNewRomanPSMT-63" transform="translate(72.216797 0)"/>
      <use xlink:href="#TimesNewRomanPSMT-63" transform="translate(116.601562 0)"/>
      <use xlink:href="#TimesNewRomanPSMT-75" transform="translate(160.986328 0)"/>
      <use xlink:href="#TimesNewRomanPSMT-72" transform="translate(210.986328 0)"/>
      <use xlink:href="#TimesNewRomanPSMT-61" transform="translate(244.287109 0)"/>
      <use xlink:href="#TimesNewRomanPSMT-63" transform="translate(288.671875 0)"/>
      <use xlink:href="#TimesNewRomanPSMT-79" transform="translate(333.056641 0)"/>
     </g>
    </g>
   </g>
   <g id="line2d_31">
    <path d="M 353.814375 178.5875 
L 433.744685 164.099183 
L 468.27881 156.677614 
L 477.597633 155.19921 
L 484.872217 153.173806 
L 490.840047 153.646891 
L 500.291846 152.050224 
L 504.171897 151.473642 
L 507.646999 150.749231 
L 510.793749 151.606705 
L 513.668874 150.926626 
L 516.315563 152.62679 
L 518.767461 151.222317 
L 521.051283 151.059689 
L 523.188603 151.917162 
L 525.197088 151.798883 
L 527.091391 153.528612 
L 528.883799 150.926626 
L 530.584717 153.824302 
L 532.203033 153.336434 
L 533.746399 152.183271 
L 535.221452 151.325797 
L 536.633983 150.645735 
L 537.989078 151.798883 
L 539.291226 152.212836 
L 540.54441 152.30155 
L 541.752177 152.124139 
L 542.917707 152.966829 
L 544.043853 152.316333 
L 545.13319 150.172649 
L 546.188048 152.52331 
L 547.210544 151.458859 
L 548.202603 171.06245 
L 549.165987 157.431591 
L 550.102305 149.743913 
L 551.013037 150.645735 
L 551.899546 150.512689 
L 552.763085 151.133603 
L 553.604815 152.242418 
L 554.42581 153.69124 
L 555.227069 152.109356 
L 556.009516 151.517991 
L 556.774016 152.818984 
L 557.521373 157.416808 
L 558.25234 151.281448 
L 558.967619 151.01534 
L 559.66787 150.010021 
L 560.353712 151.680619 
L 561.025726 151.281448 
L 562.330422 152.138922 
L 562.964105 151.532774 
L 563.585965 151.34058 
L 564.196435 152.286767 
L 564.795925 151.133603 
L 565.384823 151.577123 
L 565.963496 151.56234 
L 566.532293 153.972132 
L 567.091547 151.473642 
L 567.641571 156.514986 
L 568.182667 152.981612 
L 568.715118 151.577123 
L 569.239197 151.739751 
L 569.755163 151.370162 
L 570.263263 152.242418 
L 570.763734 151.724968 
L 571.256801 151.991077 
L 571.74268 151.769317 
L 572.221578 151.11882 
L 572.693693 151.56234 
L 573.159213 152.774635 
L 573.618322 151.34058 
L 574.071192 152.242418 
L 574.517991 151.695402 
L 574.95888 151.887596 
L 575.394013 150.660518 
L 575.823539 151.887596 
L 576.2476 150.719665 
L 576.666333 151.281448 
L 577.891866 151.163185 
L 578.290563 151.34058 
L 579.07393 151.044906 
L 579.839308 151.872813 
L 580.215505 151.192751 
L 580.587504 151.251883 
L 580.955396 151.828464 
L 581.319272 152.183271 
L 582.387656 151.517991 
L 582.736307 151.606705 
L 583.081349 151.192751 
L 583.422855 151.089255 
L 583.760898 151.843247 
L 584.095547 152.198053 
L 584.426869 151.813681 
L 584.75493 152.065007 
L 585.079793 151.458859 
L 585.401521 151.444077 
L 585.720173 151.813681 
L 586.035807 151.517991 
L 586.658248 151.843247 
L 586.965163 151.917162 
L 587.269277 152.508527 
L 587.570642 151.56234 
L 587.869307 151.991077 
L 588.165318 151.665836 
L 588.458725 151.591922 
L 588.749571 151.355363 
L 589.0379 152.242418 
L 589.323757 151.606705 
L 589.88822 151.059689 
L 590.166907 151.724968 
L 590.717385 151.7841 
L 590.989253 151.325797 
L 591.526423 152.124139 
L 591.791797 151.577123 
L 592.055074 152.286767 
L 592.316288 151.813681 
L 592.575471 152.07979 
L 592.832653 151.488425 
L 593.087867 151.651053 
L 593.341141 151.577123 
L 593.592505 151.843247 
L 593.841988 151.207534 
L 594.089617 151.399728 
L 594.33542 151.769317 
L 594.579424 151.7841 
L 594.821654 151.991077 
L 595.062136 151.56234 
L 595.537958 151.665836 
L 595.773345 152.124139 
L 596.007082 151.444077 
L 596.469695 152.050224 
L 596.925975 151.488425 
L 597.151793 151.429294 
L 597.376093 151.769317 
L 597.598892 151.488425 
L 598.040073 151.547557 
L 598.258493 151.754534 
L 598.47549 151.104037 
L 598.691085 151.902379 
L 598.905293 151.488425 
L 599.118134 151.917162 
L 599.329624 151.503208 
L 599.53978 151.473642 
L 599.74862 151.798883 
L 599.95616 151.384945 
L 600.367401 151.606705 
L 600.773631 151.473642 
L 601.174969 151.710185 
L 601.37384 151.207534 
L 601.768058 151.532774 
L 601.963432 151.503208 
L 602.157668 151.281448 
L 602.350778 151.517991 
L 602.542776 151.325797 
L 602.923485 151.85803 
L 603.112221 151.621488 
L 603.299894 151.739751 
L 603.486517 151.355363 
L 604.040196 151.517991 
L 604.222731 151.414511 
L 604.764412 151.887596 
L 604.943034 151.517991 
L 605.297431 151.311014 
L 605.473226 151.222317 
L 605.648099 151.488425 
L 605.82206 151.532774 
L 606.16728 151.311014 
L 606.338559 151.621488 
L 606.678497 151.296231 
L 607.181992 151.517991 
L 607.348148 151.429294 
L 607.677994 151.606705 
L 607.841702 151.370162 
L 608.004609 151.710185 
L 608.328053 151.665836 
L 608.488606 151.429294 
L 608.807411 151.843247 
L 608.965676 151.458859 
L 609.436014 151.931945 
L 609.59133 151.503208 
L 609.745926 151.606705 
L 609.899807 151.414511 
L 610.205456 151.547557 
L 610.357235 151.591922 
L 610.508327 151.414511 
L 610.658736 151.710185 
L 610.80847 151.547557 
L 610.957535 151.680619 
L 611.105935 151.473642 
L 611.400769 151.843247 
L 611.693017 151.473642 
L 611.838186 151.503208 
L 611.982726 151.680619 
L 612.269937 151.56234 
L 612.41262 151.503208 
L 612.554695 151.710185 
L 613.117015 151.517991 
L 613.532616 151.56234 
L 613.670006 151.517991 
L 613.806831 151.754534 
L 614.213971 151.591922 
L 614.348586 151.739751 
L 614.616197 151.547557 
L 615.013627 151.606705 
L 615.275971 151.591922 
L 615.406373 151.606705 
L 615.536267 151.503208 
L 615.794546 151.577123 
L 616.050839 151.429294 
L 616.431621 151.754534 
L 616.683079 151.591922 
L 617.791742 151.591922 
L 617.912681 151.754534 
L 618.15325 151.591922 
L 618.272887 151.621488 
L 618.392096 151.281448 
L 618.864712 151.754534 
L 619.098531 151.444077 
L 619.214828 151.532774 
L 619.446212 151.414511 
L 619.561304 151.710185 
L 619.790304 151.473642 
L 620.017741 151.503208 
L 620.13088 151.444077 
L 620.356012 151.695402 
L 620.579634 151.591922 
L 620.690885 151.63627 
L 620.801765 151.517991 
L 620.912279 151.651053 
L 621.132212 151.503208 
L 621.241636 151.665836 
L 621.459414 151.473642 
L 621.675777 151.488425 
L 621.783435 151.414511 
L 621.997712 151.665836 
L 622.210621 151.444077 
L 622.422178 151.651053 
L 622.632401 151.429294 
L 622.737017 151.665836 
L 622.841306 151.517991 
L 622.94527 151.577123 
L 623.04891 151.414511 
L 623.152229 151.63627 
L 623.255229 151.414511 
L 623.357912 151.591922 
L 623.562333 151.488425 
L 623.866632 151.429294 
L 623.967451 151.577123 
L 624.268091 151.414511 
L 624.566043 151.56234 
L 624.763209 151.458859 
L 624.959215 151.665836 
L 625.25108 151.503208 
L 625.347803 151.813681 
L 625.540411 151.503208 
L 625.636299 151.517991 
L 625.731912 151.680619 
L 625.922319 151.429294 
L 626.017117 151.606705 
L 626.205906 151.503208 
L 626.393633 151.547557 
L 626.673254 151.695402 
L 626.765943 151.34058 
L 626.858374 151.606705 
L 627.042471 151.384945 
L 627.13414 151.651053 
L 627.225557 151.577123 
L 627.498314 151.517991 
L 627.58874 151.399728 
L 627.768857 151.665836 
L 627.858553 151.577123 
L 627.948007 151.2371 
L 628.126199 151.577123 
L 628.303443 151.399728 
L 628.391713 151.532774 
L 628.567555 151.473642 
L 628.82959 151.665836 
L 629.089582 151.414511 
L 629.175797 151.414511 
L 629.261789 151.56234 
L 629.433112 151.444077 
L 629.603558 151.665836 
L 629.857605 151.458859 
L 630.0259 151.488425 
L 630.193349 151.429294 
L 630.276759 151.695402 
L 630.608328 151.399728 
L 630.772884 151.444077 
L 630.936632 151.680619 
L 631.099579 151.370162 
L 631.423102 151.517991 
L 631.503494 151.665836 
L 631.743515 151.355363 
L 631.902574 151.503208 
L 631.98182 151.355363 
L 632.218432 151.473642 
L 632.531326 151.517991 
L 632.609092 151.384945 
L 632.686678 151.473642 
L 632.764083 151.370162 
L 632.841309 151.444077 
L 633.376938 151.606705 
L 633.452759 151.680619 
L 633.528407 151.414511 
L 633.603885 151.532774 
L 633.679191 151.547557 
L 633.754328 151.325797 
L 633.829296 151.370162 
L 633.978728 151.384945 
L 634.201627 151.887596 
L 634.349403 151.651053 
L 634.496526 151.665836 
L 634.788839 151.665836 
L 634.861518 151.710185 
L 634.934039 151.517991 
L 635.006403 151.547557 
L 635.150661 151.56234 
L 635.222556 151.813681 
L 635.294297 151.429294 
L 635.365883 151.577123 
L 635.508597 151.444077 
L 635.579725 151.577123 
L 635.650702 151.532774 
L 635.792204 151.532774 
L 635.86273 151.621488 
L 635.933108 151.547557 
L 636.143353 151.429294 
L 636.834743 151.503208 
L 636.9031 151.547557 
L 636.971316 151.429294 
L 637.039394 151.532774 
L 637.107333 151.577123 
L 637.310322 151.384945 
L 637.579065 151.577123 
L 637.911976 151.384945 
L 638.044214 151.56234 
L 638.175931 151.355363 
L 638.437811 151.488425 
L 638.502961 151.399728 
L 638.567984 151.488425 
L 638.632881 151.414511 
L 638.697651 151.591922 
L 638.762295 151.532774 
L 638.891209 151.370162 
L 638.95548 151.503208 
L 639.019627 151.414511 
L 639.083651 151.488425 
L 639.147552 151.414511 
L 639.274987 151.370162 
L 639.338523 151.429294 
L 639.401937 151.34058 
L 639.465232 151.34058 
L 639.528406 151.473642 
L 639.59146 151.414511 
L 639.654396 151.34058 
L 639.779912 151.56234 
L 639.842493 151.458859 
L 640.029535 151.34058 
L 640.09165 151.532774 
L 640.153649 151.399728 
L 640.215533 151.399728 
L 640.400498 164.720114 
L 640.461926 164.838377 
L 640.645533 159.989228 
L 640.706511 160.092708 
L 640.767378 157.387242 
L 640.828134 160.181422 
L 640.88878 155.716644 
L 640.949315 158.377778 
L 641.190363 151.488425 
L 641.310236 156.618482 
L 641.370011 153.572977 
L 641.42968 153.794737 
L 641.489241 159.708336 
L 641.608046 150.970991 
L 641.785464 152.818984 
L 641.903219 150.483107 
L 642.020561 154.888753 
L 642.13749 150.852712 
L 642.195801 154.238256 
L 642.254011 153.839085 
L 642.543543 151.384945 
L 642.716063 152.84855 
L 642.830582 151.133603 
L 642.887694 151.547557 
L 642.944708 151.355363 
L 643.058446 152.138922 
L 643.115169 151.665836 
L 643.171797 151.961511 
L 643.228328 152.094573 
L 643.284763 151.739751 
L 643.341103 152.271984 
L 643.397348 151.503208 
L 643.453498 152.153705 
L 643.509554 152.109356 
L 643.565515 152.390247 
L 643.621383 152.138922 
L 643.788427 151.458859 
L 643.843923 152.242418 
L 643.899326 151.931945 
L 644.009857 152.30155 
L 644.064986 151.902379 
L 644.120024 152.257201 
L 644.284593 151.931945 
L 644.339269 152.316333 
L 644.393856 152.065007 
L 644.448354 151.917162 
L 644.502762 152.493744 
L 644.557082 152.065007 
L 644.719513 152.183271 
L 644.773481 152.612007 
L 644.827362 152.109356 
L 644.881156 152.316333 
L 644.934863 152.257201 
L 644.988484 152.345899 
L 645.042019 152.40503 
L 645.095468 152.168488 
L 645.148831 152.40503 
L 645.202109 152.331116 
L 645.30841 152.020642 
L 645.361434 152.552875 
L 645.414374 151.85803 
L 645.467229 152.508527 
L 645.625295 152.212836 
L 645.677817 152.449379 
L 645.730257 152.316333 
L 645.83489 152.40503 
L 645.991226 152.198053 
L 646.095044 152.538093 
L 646.146832 152.316333 
L 646.198539 152.345899 
L 646.250167 152.538093 
L 646.301714 152.434596 
L 646.507112 152.271984 
L 646.558264 152.375464 
L 646.660333 152.124139 
L 646.711251 152.419813 
L 646.762091 152.40503 
L 646.812853 152.345899 
L 646.863539 152.567658 
L 646.914147 152.390247 
L 646.964679 152.508527 
L 647.015134 152.153705 
L 647.065513 152.30155 
L 647.166043 152.40503 
L 647.316272 152.271984 
L 647.41605 152.656356 
L 647.465827 152.493744 
L 647.51553 152.552875 
L 647.565159 152.508527 
L 647.664195 152.390247 
L 647.713603 152.538093 
L 647.762938 152.493744 
L 647.86139 152.434596 
L 647.910507 152.538093 
L 647.959551 152.478961 
L 648.106254 152.212836 
L 648.155011 152.30155 
L 648.203698 152.52331 
L 648.300858 152.493744 
L 648.542526 152.493744 
L 648.638705 152.375464 
L 648.68669 152.567658 
L 648.734607 152.478961 
L 648.925587 152.419813 
L 648.973161 152.62679 
L 649.115479 152.271984 
L 649.351333 152.641573 
L 649.538821 152.316333 
L 649.585529 152.434596 
L 649.632172 152.286767 
L 649.725261 152.52331 
L 649.771709 152.40503 
L 649.818092 152.271984 
L 649.86441 152.478961 
L 649.910664 152.360682 
L 650.049043 152.316333 
L 650.095042 152.242418 
L 650.186849 152.449379 
L 650.232658 152.271984 
L 650.278405 152.449379 
L 650.460764 152.360682 
L 650.596882 152.567658 
L 650.68732 152.331116 
L 650.732447 152.478961 
L 650.777513 152.419813 
L 650.822518 152.271984 
L 650.912346 152.345899 
L 650.957169 152.30155 
L 651.001933 152.390247 
L 651.046636 152.508527 
L 651.091279 152.360682 
L 651.313603 152.227619 
L 651.402119 152.478961 
L 651.490401 152.183271 
L 651.534454 152.257201 
L 651.622387 152.331116 
L 651.666266 152.242418 
L 651.710088 152.286767 
L 651.797558 152.419813 
L 651.841208 152.331116 
L 651.8848 152.419813 
L 651.971814 152.375464 
L 652.015236 152.271984 
L 652.058602 152.493744 
L 652.101911 152.316333 
L 652.317617 152.345899 
L 652.403509 152.62679 
L 652.446373 152.345899 
L 652.531935 152.493744 
L 652.617278 152.30155 
L 652.702403 152.612007 
L 652.744885 152.434596 
L 652.91427 152.434596 
L 652.956482 152.434596 
L 652.998641 152.286767 
L 653.040746 152.478961 
L 653.166745 152.434596 
L 653.25048 152.478961 
L 653.375689 152.316333 
L 653.458902 152.981612 
L 653.50043 155.391404 
L 653.541907 173.309614 
L 653.583332 161.142375 
L 653.871876 151.976294 
L 653.912893 153.262504 
L 653.95386 154.119977 
L 653.994777 151.680619 
L 654.07646 152.84855 
L 654.19861 155.480101 
L 654.239228 151.887596 
L 654.320315 152.745069 
L 654.360784 153.203372 
L 654.401205 152.774635 
L 654.441576 152.138922 
L 654.481899 153.040744 
L 654.562398 152.685938 
L 654.722816 154.193892 
L 654.802736 152.434596 
L 654.842624 153.247721 
L 654.882465 153.085093 
L 654.922258 152.40503 
L 654.962004 152.582441 
L 655.041353 153.173806 
L 655.120514 152.671139 
L 655.160024 152.685938 
L 655.278274 153.085093 
L 655.317598 153.099876 
L 655.356875 153.543395 
L 655.396107 153.159023 
L 655.513523 152.789418 
L 655.552571 152.952046 
L 655.591572 152.745069 
L 655.630528 152.84855 
L 655.669439 152.892899 
L 655.708304 152.804201 
L 655.747124 152.656356 
L 655.785898 153.203372 
L 655.824628 153.07031 
L 655.979098 152.493744 
L 656.017604 153.011178 
L 656.094483 152.745069 
L 656.132856 152.818984 
L 656.171184 152.656356 
L 656.514174 152.567658 
L 656.589918 152.759852 
L 656.665489 152.730286 
L 656.70321 152.804201 
L 656.740889 152.759852 
L 656.89118 152.612007 
L 656.928647 152.907697 
L 656.966072 152.597224 
L 657.003455 152.700721 
L 657.115354 152.62679 
L 657.15257 152.671139 
L 657.263969 152.715504 
L 657.374998 152.700721 
L 657.559227 152.552875 
L 657.632635 152.700721 
L 657.669278 152.508527 
L 657.742444 152.567658 
L 657.778967 152.700721 
L 657.81545 152.508527 
L 657.851893 152.567658 
L 657.924659 152.656356 
L 657.960983 152.567658 
L 658.142011 152.552875 
L 658.178099 152.641573 
L 658.250157 152.538093 
L 658.32206 152.478961 
L 658.357954 152.552875 
L 658.429625 152.493744 
L 658.572507 152.582441 
L 658.643719 152.700721 
L 658.714779 152.641573 
L 658.821086 152.700721 
L 658.856446 152.759852 
L 658.891769 152.62679 
L 658.962303 152.538093 
L 658.997514 152.597224 
L 659.032688 152.671139 
L 659.102924 152.612007 
L 659.173013 152.567658 
L 659.208002 152.745069 
L 659.277871 152.582441 
L 659.3824 152.641573 
L 659.521263 152.641573 
L 659.831608 152.612007 
L 659.900182 152.641573 
L 659.934417 152.582441 
L 659.968616 152.567658 
L 660.00278 152.715504 
L 660.105064 152.671139 
L 660.139089 152.700721 
L 660.173079 152.538093 
L 660.207034 152.730286 
L 660.240955 152.789418 
L 660.274842 152.641573 
L 660.308694 152.730286 
L 660.578279 152.641573 
L 660.611825 152.597224 
L 660.645337 152.641573 
L 660.678815 152.804201 
L 660.74567 152.656356 
L 660.812391 152.700721 
L 660.87898 152.597224 
L 660.912224 152.715504 
L 661.011758 152.685938 
L 661.044871 152.567658 
L 661.07795 152.715504 
L 661.110996 152.818984 
L 661.14401 152.567658 
L 661.176991 152.671139 
L 661.341409 152.656356 
L 661.374196 152.789418 
L 661.439672 152.745069 
L 661.50502 152.641573 
L 661.537646 152.818984 
L 661.602802 152.774635 
L 661.700299 152.52331 
L 661.732734 152.656356 
L 661.765138 152.597224 
L 661.797511 152.715504 
L 661.829852 152.656356 
L 661.862161 152.745069 
L 661.926687 152.656356 
L 662.023242 152.745069 
L 662.055365 152.538093 
L 662.119518 152.597224 
L 662.215517 152.538093 
L 662.247455 152.685938 
L 662.374903 152.656356 
L 662.438444 152.612007 
L 662.47017 152.656356 
L 662.565165 152.759852 
L 662.59677 152.52331 
L 662.691406 152.552875 
L 662.722892 152.656356 
L 662.785774 152.552875 
L 663.46976 152.641573 
L 663.623273 152.700721 
L 663.745577 152.597224 
L 663.776083 152.62679 
L 663.958534 152.567658 
L 664.139992 152.360682 
L 664.170139 166.346347 
L 664.230352 156.470637 
L 664.290456 152.464178 
L 664.320467 152.804201 
L 664.350452 157.017637 
L 664.41034 153.750372 
L 664.440244 153.735589 
L 664.47012 153.868651 
L 664.499971 152.227619 
L 664.559591 154.282605 
L 664.589361 152.434596 
L 664.678513 153.572977 
L 664.708177 153.277287 
L 664.737815 153.395566 
L 664.767426 152.84855 
L 664.797011 153.750372 
L 664.82657 152.996395 
L 664.973973 153.883434 
L 665.091428 153.366 
L 665.120727 153.794737 
L 665.179249 153.513829 
L 665.266838 153.543395 
L 665.325104 153.366 
L 665.354198 153.617326 
L 665.44133 153.484263 
L 665.730134 153.351217 
L 665.758878 153.410349 
L 665.787596 153.46948 
L 665.844959 153.247721 
L 665.902223 153.277287 
L 665.930819 153.528612 
L 665.987936 153.262504 
L 666.101877 153.055527 
L 666.215431 153.321635 
L 666.243759 153.262504 
L 666.328599 153.159023 
L 666.356831 153.232938 
L 666.46952 153.351217 
L 666.609848 153.159023 
L 666.805321 153.336434 
L 666.944245 153.203372 
L 667.027323 153.292069 
L 667.054969 153.277287 
L 667.192859 153.188589 
L 667.27532 153.321635 
L 667.330181 153.247721 
L 667.494224 153.232938 
L 667.521486 153.129457 
L 667.603139 153.232938 
L 667.765848 153.159023 
L 667.792889 153.188589 
L 667.819908 153.262504 
L 667.900834 153.188589 
L 668.00843 153.173806 
L 668.115681 153.114658 
L 668.14244 153.129457 
L 668.24926 153.232938 
L 668.275912 153.173806 
L 668.408852 153.07031 
L 668.435377 153.085093 
L 668.514824 153.159023 
L 668.541264 153.14424 
L 668.646817 153.14424 
L 670.090488 153.159023 
L 670.115708 153.351217 
L 670.140909 153.040744 
L 670.166091 153.203372 
L 670.316784 152.92248 
L 670.516654 152.892899 
L 670.640967 152.981612 
L 670.665774 152.84855 
L 670.740085 153.011178 
L 670.81423 152.92248 
L 670.838908 152.833767 
L 670.863568 152.952046 
L 670.93744 152.878116 
L 670.962027 153.011178 
L 671.035681 152.892899 
L 671.060196 152.878116 
L 671.084693 152.966829 
L 671.133633 152.981612 
L 671.182502 152.92248 
L 671.352979 152.907697 
L 671.425775 152.92248 
L 671.474217 153.040744 
L 671.546749 152.966829 
L 671.763402 152.92248 
L 671.787388 153.025961 
L 671.859242 152.981612 
L 671.883159 152.892899 
L 671.954807 152.937263 
L 672.073879 153.025961 
L 672.121389 152.863333 
L 672.216207 152.907697 
L 672.310756 152.804201 
L 672.35793 152.878116 
L 672.499052 152.937263 
L 673.195838 152.981612 
L 673.218815 153.099876 
L 673.310566 153.040744 
L 673.424901 152.966829 
L 673.538844 152.981612 
L 673.697713 152.952046 
L 673.833287 152.981612 
L 673.878356 153.07031 
L 673.968311 152.92248 
L 674.013198 152.878116 
L 674.080415 153.040744 
L 674.214444 152.878116 
L 674.259001 153.011178 
L 674.325725 152.996395 
L 674.436635 152.892899 
L 674.591292 153.025961 
L 674.613327 152.966829 
L 674.657354 153.085093 
L 674.679346 153.07031 
L 674.723286 153.07031 
L 674.745235 152.863333 
L 674.832884 152.907697 
L 674.85476 153.011178 
L 674.942122 152.892899 
L 675.181193 152.981612 
L 675.267705 152.878116 
L 675.246098 153.025961 
L 675.289297 152.892899 
L 675.375529 153.011178 
L 675.397052 152.966829 
L 675.739546 152.92248 
L 675.760835 153.129457 
L 675.845857 152.92248 
L 675.909481 152.892899 
L 675.930663 152.981612 
L 675.95183 153.055527 
L 675.972985 152.878116 
L 676.015253 152.937263 
L 676.2048 152.863333 
L 676.225795 152.804201 
L 676.267744 152.952046 
L 676.288699 152.92248 
L 676.414151 152.996395 
L 676.435014 152.981612 
L 676.476701 152.833767 
L 676.539134 152.937263 
L 676.559919 152.996395 
L 676.622196 152.907697 
L 676.746402 152.818984 
L 676.787702 152.907697 
L 676.82895 153.011178 
L 676.890727 152.92248 
L 676.911294 152.892899 
L 676.931848 153.011178 
L 676.95239 153.055527 
L 676.993435 152.92248 
L 677.03443 153.011178 
L 677.095827 152.878116 
L 677.197906 152.996395 
L 677.218284 152.92248 
L 677.279345 152.981612 
L 677.299673 153.07031 
L 677.319989 152.907697 
L 677.360585 152.937263 
L 677.421385 152.863333 
L 677.461857 152.996395 
L 677.582979 152.907697 
L 677.623255 152.818984 
L 677.663483 152.937263 
L 677.763841 153.011178 
L 677.883872 152.92248 
L 677.923787 152.981612 
L 678.003473 152.92248 
L 678.043245 152.863333 
L 678.122646 152.952046 
L 678.261145 152.84855 
L 678.280884 152.863333 
L 678.300611 152.966829 
L 678.379402 152.878116 
L 678.497241 152.892899 
L 678.536428 153.025961 
L 678.595123 152.863333 
L 678.925788 152.907697 
L 678.983801 160.166639 
L 679.041714 156.633265 
L 679.176454 151.828464 
L 679.214851 155.273125 
L 679.291513 154.445233 
L 679.406176 152.804201 
L 679.44431 154.681776 
L 679.463361 152.567658 
L 679.539454 154.179109 
L 679.577435 152.745069 
L 679.653269 153.410349 
L 679.710031 153.839085 
L 679.785564 152.449379 
L 679.842101 153.779954 
L 679.898543 152.52331 
L 680.02987 154.031279 
L 680.048589 153.986915 
L 680.067297 152.567658 
L 680.160681 153.839085 
L 680.216587 154.193892 
L 680.309554 152.449379 
L 680.346669 152.597224 
L 680.365211 152.996395 
L 680.402263 152.52331 
L 680.457765 152.685938 
L 680.642107 152.804201 
L 680.733897 152.789418 
L 680.715559 152.863333 
L 680.752224 152.833767 
L 680.861979 152.92248 
L 680.880237 152.907697 
L 680.971374 152.700721 
L 681.007759 152.833767 
L 681.171003 152.952046 
L 681.27939 152.892899 
L 681.351453 152.981612 
L 681.405397 152.952046 
L 681.53093 152.84855 
L 681.620308 152.804201 
L 681.638155 152.863333 
L 681.762816 152.92248 
L 681.780586 152.84855 
L 681.833842 152.818984 
L 681.851575 152.907697 
L 681.904717 152.84855 
L 681.922412 152.996395 
L 682.010747 152.774635 
L 682.046016 152.804201 
L 682.151599 152.818984 
L 682.379221 152.892899 
L 682.396666 152.937263 
L 682.448947 152.833767 
L 682.570617 152.789418 
L 683.980412 152.878116 
L 683.997039 152.907697 
L 684.030268 152.789418 
L 684.08005 152.84855 
L 684.393621 152.92248 
L 684.508408 152.981612 
L 684.426458 152.907697 
L 684.524774 152.966829 
L 684.541132 152.907697 
L 684.622801 152.937263 
L 684.72054 153.040744 
L 684.753056 153.025961 
L 684.801771 153.085093 
L 684.898988 152.937263 
L 684.979786 153.085093 
L 685.01205 153.011178 
L 685.140796 153.099876 
L 685.172905 152.966829 
L 685.253042 153.025961 
L 685.285044 152.966829 
L 685.332988 153.07031 
L 685.364912 153.040744 
L 685.44459 153.07031 
L 685.396806 152.996395 
L 685.476407 153.040744 
L 685.587531 152.996395 
L 685.714078 153.085093 
L 685.824413 152.952046 
L 685.871588 153.085093 
L 685.965738 153.055527 
L 686.059623 152.981612 
L 686.075245 153.011178 
L 686.09086 153.07031 
L 686.153245 152.981612 
L 686.168823 152.996395 
L 686.293185 152.966829 
L 686.447989 153.040744 
L 686.46343 152.996395 
L 686.50971 153.055527 
L 686.571316 152.907697 
L 686.632809 152.981612 
L 686.678855 152.952046 
L 686.786047 152.863333 
L 686.801332 152.92248 
L 686.892896 152.981612 
L 686.862403 152.892899 
L 686.908132 152.952046 
L 687.075272 152.878116 
L 687.090426 152.92248 
L 687.105572 152.952046 
L 687.150969 152.878116 
L 687.166088 152.907697 
L 687.256656 152.937263 
L 687.286791 152.84855 
L 687.346979 152.84855 
L 687.36201 152.878116 
L 687.377033 152.92248 
L 687.467031 152.84855 
L 687.571722 152.878116 
L 687.586651 152.84855 
L 687.601574 152.774635 
L 687.646301 152.863333 
L 687.705844 152.804201 
L 687.809789 152.907697 
L 687.824612 152.892899 
L 688.774228 152.833767 
L 688.788628 163.123431 
L 688.874899 152.730286 
L 688.889256 155.273125 
L 688.903606 151.769317 
L 688.98958 153.927783 
L 689.003888 153.839085 
L 689.075333 156.381924 
L 689.032484 152.30155 
L 689.089604 152.52331 
L 689.103869 151.754534 
L 689.1751 153.80952 
L 689.189328 152.774635 
L 689.203551 152.84855 
L 689.27457 154.193892 
L 689.260378 152.271984 
L 689.317109 153.159023 
L 689.359593 152.700721 
L 689.345438 153.602543 
L 689.373743 152.759852 
L 689.416156 154.075628 
L 689.486724 153.883434 
L 689.543071 154.297388 
L 689.599323 152.730286 
L 689.627413 152.434596 
L 689.725544 154.386085 
L 689.823387 152.050224 
L 689.851289 152.538093 
L 689.893099 153.454698 
L 689.920943 152.449379 
L 689.948763 153.188589 
L 690.032087 152.050224 
L 689.976561 154.622628 
L 690.059815 152.981612 
L 690.115202 152.198053 
L 690.129035 153.853868 
L 690.142862 153.395566 
L 690.198111 152.952046 
L 690.211909 153.986915 
L 690.280814 151.63627 
L 690.322089 152.124139 
L 690.335836 154.001713 
L 690.431906 153.380783 
L 690.514032 152.00586 
L 690.555019 152.271984 
L 690.60959 153.099876 
L 690.636842 151.710185 
L 690.677679 152.907697 
L 690.718465 151.458859 
L 690.732049 153.632109 
L 690.786332 152.892899 
L 690.840526 152.700721 
L 690.826986 153.247721 
L 690.854061 152.84855 
L 690.86759 153.114658 
L 690.908145 152.271984 
L 690.94865 152.538093 
L 690.989107 152.478961 
L 691.069873 152.552875 
L 691.244197 152.478961 
L 691.257569 152.508527 
L 691.337688 152.52331 
L 691.351022 152.478961 
L 691.404306 152.390247 
L 691.470792 152.449379 
L 691.669458 152.316333 
L 691.695858 152.345899 
L 691.853817 152.390247 
L 691.866947 152.375464 
L 691.906305 152.331116 
L 691.958709 152.419813 
L 691.971798 152.434596 
L 691.997959 152.331116 
L 692.0241 152.331116 
L 692.115431 152.331116 
L 692.07632 152.40503 
L 692.14148 152.360682 
L 692.206513 152.434596 
L 692.258448 152.390247 
L 693.69315 152.493744 
L 693.717995 152.419813 
L 693.780026 152.449379 
L 693.81719 152.40503 
L 693.891393 152.464178 
L 695.377245 152.567658 
L 695.530484 152.656356 
L 695.683023 152.641573 
L 695.81155 152.759852 
L 695.927965 152.671139 
L 695.9512 152.730286 
L 696.043975 152.685938 
L 696.124942 152.671139 
L 696.14804 152.700721 
L 698.055031 152.804201 
L 698.153011 152.892899 
L 698.174745 152.84855 
L 698.315674 152.833767 
L 698.45601 152.878116 
L 698.348112 152.804201 
L 698.46678 152.863333 
L 698.862866 152.759852 
L 698.958503 152.730286 
L 698.990322 152.759852 
L 699.390746 152.671139 
L 699.505766 152.62679 
L 699.599579 152.700721 
L 699.620391 152.671139 
L 700.361081 152.582441 
L 700.482945 152.552875 
L 700.513341 152.52331 
L 700.634651 152.582441 
L 700.765573 152.508527 
L 700.775622 152.538093 
L 700.905993 152.597224 
L 701.005932 152.52331 
L 701.01591 152.538093 
L 701.105573 152.582441 
L 701.115521 152.552875 
L 701.135407 152.493744 
L 701.22475 152.52331 
L 701.303965 152.52331 
L 701.333622 152.493744 
L 701.648334 152.390247 
L 701.677687 152.449379 
L 701.794839 152.360682 
L 702.163127 152.257201 
L 702.230528 152.331116 
L 702.278588 152.227619 
L 702.393651 152.316333 
L 702.403221 152.271984 
L 702.489234 152.345899 
L 702.508317 152.30155 
L 702.555979 152.360682 
L 702.613083 152.30155 
L 702.622591 152.242418 
L 702.717521 152.286767 
L 702.840526 152.331116 
L 702.897145 152.271984 
L 702.953669 152.30155 
L 703.532196 152.198053 
L 703.615347 152.168488 
L 703.569177 152.227619 
L 703.652237 152.198053 
L 703.762661 152.198053 
L 703.670666 152.168488 
L 703.771847 152.183271 
L 704.92718 152.094573 
L 705.042309 152.07979 
L 706.52926 152.183271 
L 706.571509 152.153705 
L 706.638995 152.153705 
L 706.823882 152.183271 
L 706.899222 152.30155 
L 706.941005 152.257201 
L 708.154626 152.168488 
L 708.28322 152.109356 
L 708.347332 152.065007 
L 708.403328 152.124139 
L 708.467209 152.168488 
L 708.523005 152.07979 
L 708.530968 152.109356 
L 708.554846 152.050224 
L 708.626378 152.07979 
L 708.753168 151.976294 
L 708.768983 152.020642 
L 708.776888 152.07979 
L 708.863715 151.946728 
L 710.934375 151.917162 
L 710.934375 151.917162 
" clip-path="url(#pb4b36edf10)" style="fill: none; stroke: #1f77b4; stroke-width: 1.5; stroke-linecap: square"/>
   </g>
   <g id="patch_3">
    <path d="M 353.814375 311.6435 
L 353.814375 45.5315 
" style="fill: none; stroke: #000000; stroke-width: 0.8; stroke-linejoin: miter; stroke-linecap: square"/>
   </g>
   <g id="patch_4">
    <path d="M 710.934375 311.6435 
L 710.934375 45.5315 
" style="fill: none; stroke: #000000; stroke-width: 0.8; stroke-linejoin: miter; stroke-linecap: square"/>
   </g>
   <g id="patch_5">
    <path d="M 353.814375 311.6435 
L 710.934375 311.6435 
" style="fill: none; stroke: #000000; stroke-width: 0.8; stroke-linejoin: miter; stroke-linecap: square"/>
   </g>
   <g id="patch_6">
    <path d="M 353.814375 45.5315 
L 710.934375 45.5315 
" style="fill: none; stroke: #000000; stroke-width: 0.8; stroke-linejoin: miter; stroke-linecap: square"/>
   </g>
   <g id="text_18">
    <!-- Accuracy of the 09_07_25_CINIC10_torch_model_(1024+2048.3+1)_cat-dog on the validation set -->
    <g transform="translate(7.2 25.5315) scale(0.264 -0.264)">
     <defs>
      <path id="TimesNewRomanPSMT-20" transform="scale(0.015625)"/>
      <path id="TimesNewRomanPSMT-6f" d="M 1600 2947 
Q 2250 2947 2644 2453 
Q 2978 2031 2978 1484 
Q 2978 1100 2793 706 
Q 2609 313 2286 112 
Q 1963 -88 1566 -88 
Q 919 -88 538 428 
Q 216 863 216 1403 
Q 216 1797 411 2186 
Q 606 2575 925 2761 
Q 1244 2947 1600 2947 
z
M 1503 2744 
Q 1338 2744 1170 2645 
Q 1003 2547 900 2300 
Q 797 2053 797 1666 
Q 797 1041 1045 587 
Q 1294 134 1700 134 
Q 2003 134 2200 384 
Q 2397 634 2397 1244 
Q 2397 2006 2069 2444 
Q 1847 2744 1503 2744 
z
" transform="scale(0.015625)"/>
      <path id="TimesNewRomanPSMT-66" d="M 1319 2638 
L 1319 756 
Q 1319 356 1406 250 
Q 1522 113 1716 113 
L 1975 113 
L 1975 0 
L 266 0 
L 266 113 
L 394 113 
Q 519 113 622 175 
Q 725 238 764 344 
Q 803 450 803 756 
L 803 2638 
L 247 2638 
L 247 2863 
L 803 2863 
L 803 3050 
Q 803 3478 940 3775 
Q 1078 4072 1361 4255 
Q 1644 4438 1997 4438 
Q 2325 4438 2600 4225 
Q 2781 4084 2781 3909 
Q 2781 3816 2700 3733 
Q 2619 3650 2525 3650 
Q 2453 3650 2373 3701 
Q 2294 3753 2178 3923 
Q 2063 4094 1966 4153 
Q 1869 4213 1750 4213 
Q 1606 4213 1506 4136 
Q 1406 4059 1362 3898 
Q 1319 3738 1319 3069 
L 1319 2863 
L 2056 2863 
L 2056 2638 
L 1319 2638 
z
" transform="scale(0.015625)"/>
      <path id="TimesNewRomanPSMT-74" d="M 1031 3803 
L 1031 2863 
L 1700 2863 
L 1700 2644 
L 1031 2644 
L 1031 788 
Q 1031 509 1111 412 
Q 1191 316 1316 316 
Q 1419 316 1516 380 
Q 1613 444 1666 569 
L 1788 569 
Q 1678 263 1478 108 
Q 1278 -47 1066 -47 
Q 922 -47 784 33 
Q 647 113 581 261 
Q 516 409 516 719 
L 516 2644 
L 63 2644 
L 63 2747 
Q 234 2816 414 2980 
Q 594 3144 734 3369 
Q 806 3488 934 3803 
L 1031 3803 
z
" transform="scale(0.015625)"/>
      <path id="TimesNewRomanPSMT-68" d="M 1041 4444 
L 1041 2350 
Q 1388 2731 1591 2839 
Q 1794 2947 1997 2947 
Q 2241 2947 2416 2812 
Q 2591 2678 2675 2391 
Q 2734 2191 2734 1659 
L 2734 647 
Q 2734 375 2778 275 
Q 2809 200 2884 156 
Q 2959 113 3159 113 
L 3159 0 
L 1753 0 
L 1753 113 
L 1819 113 
Q 2019 113 2097 173 
Q 2175 234 2206 353 
Q 2216 403 2216 647 
L 2216 1659 
Q 2216 2128 2167 2275 
Q 2119 2422 2012 2495 
Q 1906 2569 1756 2569 
Q 1603 2569 1437 2487 
Q 1272 2406 1041 2159 
L 1041 647 
Q 1041 353 1073 281 
Q 1106 209 1195 161 
Q 1284 113 1503 113 
L 1503 0 
L 84 0 
L 84 113 
Q 275 113 384 172 
Q 447 203 484 290 
Q 522 378 522 647 
L 522 3238 
Q 522 3728 498 3840 
Q 475 3953 426 3993 
Q 378 4034 297 4034 
Q 231 4034 84 3984 
L 41 4094 
L 897 4444 
L 1041 4444 
z
" transform="scale(0.015625)"/>
      <path id="TimesNewRomanPSMT-65" d="M 681 1784 
Q 678 1147 991 784 
Q 1303 422 1725 422 
Q 2006 422 2214 576 
Q 2422 731 2563 1106 
L 2659 1044 
Q 2594 616 2278 264 
Q 1963 -88 1488 -88 
Q 972 -88 605 314 
Q 238 716 238 1394 
Q 238 2128 614 2539 
Q 991 2950 1559 2950 
Q 2041 2950 2350 2633 
Q 2659 2316 2659 1784 
L 681 1784 
z
M 681 1966 
L 2006 1966 
Q 1991 2241 1941 2353 
Q 1863 2528 1708 2628 
Q 1553 2728 1384 2728 
Q 1125 2728 920 2526 
Q 716 2325 681 1966 
z
" transform="scale(0.015625)"/>
      <path id="TimesNewRomanPSMT-5f" d="M 3256 -1381 
L -53 -1381 
L -53 -1119 
L 3256 -1119 
L 3256 -1381 
z
" transform="scale(0.015625)"/>
      <path id="TimesNewRomanPSMT-43" d="M 3853 4334 
L 3950 2894 
L 3853 2894 
Q 3659 3541 3300 3825 
Q 2941 4109 2438 4109 
Q 2016 4109 1675 3895 
Q 1334 3681 1139 3212 
Q 944 2744 944 2047 
Q 944 1472 1128 1050 
Q 1313 628 1683 403 
Q 2053 178 2528 178 
Q 2941 178 3256 354 
Q 3572 531 3950 1056 
L 4047 994 
Q 3728 428 3303 165 
Q 2878 -97 2294 -97 
Q 1241 -97 663 684 
Q 231 1266 231 2053 
Q 231 2688 515 3219 
Q 800 3750 1298 4042 
Q 1797 4334 2388 4334 
Q 2847 4334 3294 4109 
Q 3425 4041 3481 4041 
Q 3566 4041 3628 4100 
Q 3709 4184 3744 4334 
L 3853 4334 
z
" transform="scale(0.015625)"/>
      <path id="TimesNewRomanPSMT-49" d="M 1975 116 
L 1975 0 
L 159 0 
L 159 116 
L 309 116 
Q 572 116 691 269 
Q 766 369 766 750 
L 766 3488 
Q 766 3809 725 3913 
Q 694 3991 597 4047 
Q 459 4122 309 4122 
L 159 4122 
L 159 4238 
L 1975 4238 
L 1975 4122 
L 1822 4122 
Q 1563 4122 1444 3969 
Q 1366 3869 1366 3488 
L 1366 750 
Q 1366 428 1406 325 
Q 1438 247 1538 191 
Q 1672 116 1822 116 
L 1975 116 
z
" transform="scale(0.015625)"/>
      <path id="TimesNewRomanPSMT-4e" d="M -84 4238 
L 1066 4238 
L 3656 1059 
L 3656 3503 
Q 3656 3894 3569 3991 
Q 3453 4122 3203 4122 
L 3056 4122 
L 3056 4238 
L 4531 4238 
L 4531 4122 
L 4381 4122 
Q 4113 4122 4000 3959 
Q 3931 3859 3931 3503 
L 3931 -69 
L 3819 -69 
L 1025 3344 
L 1025 734 
Q 1025 344 1109 247 
Q 1228 116 1475 116 
L 1625 116 
L 1625 0 
L 150 0 
L 150 116 
L 297 116 
Q 569 116 681 278 
Q 750 378 750 734 
L 750 3681 
Q 566 3897 470 3965 
Q 375 4034 191 4094 
Q 100 4122 -84 4122 
L -84 4238 
z
" transform="scale(0.015625)"/>
      <path id="TimesNewRomanPSMT-6d" d="M 1050 2338 
Q 1363 2650 1419 2697 
Q 1559 2816 1721 2881 
Q 1884 2947 2044 2947 
Q 2313 2947 2506 2790 
Q 2700 2634 2766 2338 
Q 3088 2713 3309 2830 
Q 3531 2947 3766 2947 
Q 3994 2947 4170 2830 
Q 4347 2713 4450 2447 
Q 4519 2266 4519 1878 
L 4519 647 
Q 4519 378 4559 278 
Q 4591 209 4675 161 
Q 4759 113 4950 113 
L 4950 0 
L 3538 0 
L 3538 113 
L 3597 113 
Q 3781 113 3884 184 
Q 3956 234 3988 344 
Q 4000 397 4000 647 
L 4000 1878 
Q 4000 2228 3916 2372 
Q 3794 2572 3525 2572 
Q 3359 2572 3192 2489 
Q 3025 2406 2788 2181 
L 2781 2147 
L 2788 2013 
L 2788 647 
Q 2788 353 2820 281 
Q 2853 209 2943 161 
Q 3034 113 3253 113 
L 3253 0 
L 1806 0 
L 1806 113 
Q 2044 113 2133 169 
Q 2222 225 2256 338 
Q 2272 391 2272 647 
L 2272 1878 
Q 2272 2228 2169 2381 
Q 2031 2581 1784 2581 
Q 1616 2581 1450 2491 
Q 1191 2353 1050 2181 
L 1050 647 
Q 1050 366 1089 281 
Q 1128 197 1204 155 
Q 1281 113 1516 113 
L 1516 0 
L 100 0 
L 100 113 
Q 297 113 375 155 
Q 453 197 493 289 
Q 534 381 534 647 
L 534 1741 
Q 534 2213 506 2350 
Q 484 2453 437 2492 
Q 391 2531 309 2531 
Q 222 2531 100 2484 
L 53 2597 
L 916 2947 
L 1050 2947 
L 1050 2338 
z
" transform="scale(0.015625)"/>
      <path id="TimesNewRomanPSMT-64" d="M 2222 322 
Q 2013 103 1813 7 
Q 1613 -88 1381 -88 
Q 913 -88 563 304 
Q 213 697 213 1313 
Q 213 1928 600 2439 
Q 988 2950 1597 2950 
Q 1975 2950 2222 2709 
L 2222 3238 
Q 2222 3728 2198 3840 
Q 2175 3953 2125 3993 
Q 2075 4034 2000 4034 
Q 1919 4034 1784 3984 
L 1744 4094 
L 2597 4444 
L 2738 4444 
L 2738 1134 
Q 2738 631 2761 520 
Q 2784 409 2836 365 
Q 2888 322 2956 322 
Q 3041 322 3181 375 
L 3216 266 
L 2366 -88 
L 2222 -88 
L 2222 322 
z
M 2222 541 
L 2222 2016 
Q 2203 2228 2109 2403 
Q 2016 2578 1861 2667 
Q 1706 2756 1559 2756 
Q 1284 2756 1069 2509 
Q 784 2184 784 1559 
Q 784 928 1059 592 
Q 1334 256 1672 256 
Q 1956 256 2222 541 
z
" transform="scale(0.015625)"/>
      <path id="TimesNewRomanPSMT-6c" d="M 1184 4444 
L 1184 647 
Q 1184 378 1223 290 
Q 1263 203 1344 158 
Q 1425 113 1647 113 
L 1647 0 
L 244 0 
L 244 113 
Q 441 113 512 153 
Q 584 194 625 287 
Q 666 381 666 647 
L 666 3247 
Q 666 3731 644 3842 
Q 622 3953 573 3993 
Q 525 4034 450 4034 
Q 369 4034 244 3984 
L 191 4094 
L 1044 4444 
L 1184 4444 
z
" transform="scale(0.015625)"/>
      <path id="TimesNewRomanPSMT-28" d="M 1988 -1253 
L 1988 -1369 
Q 1516 -1131 1200 -813 
Q 750 -359 506 256 
Q 263 872 263 1534 
Q 263 2503 741 3301 
Q 1219 4100 1988 4444 
L 1988 4313 
Q 1603 4100 1356 3731 
Q 1109 3363 987 2797 
Q 866 2231 866 1616 
Q 866 947 969 400 
Q 1050 -31 1165 -292 
Q 1281 -553 1476 -793 
Q 1672 -1034 1988 -1253 
z
" transform="scale(0.015625)"/>
      <path id="TimesNewRomanPSMT-2b" d="M 1672 441 
L 1672 2000 
L 116 2000 
L 116 2256 
L 1672 2256 
L 1672 3809 
L 1922 3809 
L 1922 2256 
L 3484 2256 
L 3484 2000 
L 1922 2000 
L 1922 441 
L 1672 441 
z
" transform="scale(0.015625)"/>
      <path id="TimesNewRomanPSMT-29" d="M 144 4313 
L 144 4444 
Q 619 4209 934 3891 
Q 1381 3434 1625 2820 
Q 1869 2206 1869 1541 
Q 1869 572 1392 -226 
Q 916 -1025 144 -1369 
L 144 -1253 
Q 528 -1038 776 -670 
Q 1025 -303 1145 264 
Q 1266 831 1266 1447 
Q 1266 2113 1163 2663 
Q 1084 3094 967 3353 
Q 850 3613 656 3853 
Q 463 4094 144 4313 
z
" transform="scale(0.015625)"/>
      <path id="TimesNewRomanPSMT-2d" d="M 259 1672 
L 1875 1672 
L 1875 1200 
L 259 1200 
L 259 1672 
z
" transform="scale(0.015625)"/>
      <path id="TimesNewRomanPSMT-67" d="M 966 1044 
Q 703 1172 562 1401 
Q 422 1631 422 1909 
Q 422 2334 742 2640 
Q 1063 2947 1563 2947 
Q 1972 2947 2272 2747 
L 2878 2747 
Q 3013 2747 3034 2739 
Q 3056 2731 3066 2713 
Q 3084 2684 3084 2613 
Q 3084 2531 3069 2500 
Q 3059 2484 3036 2475 
Q 3013 2466 2878 2466 
L 2506 2466 
Q 2681 2241 2681 1891 
Q 2681 1491 2375 1206 
Q 2069 922 1553 922 
Q 1341 922 1119 984 
Q 981 866 932 777 
Q 884 688 884 625 
Q 884 572 936 522 
Q 988 472 1138 450 
Q 1225 438 1575 428 
Q 2219 413 2409 384 
Q 2700 344 2873 169 
Q 3047 -6 3047 -263 
Q 3047 -616 2716 -925 
Q 2228 -1381 1444 -1381 
Q 841 -1381 425 -1109 
Q 191 -953 191 -784 
Q 191 -709 225 -634 
Q 278 -519 444 -313 
Q 466 -284 763 25 
Q 600 122 533 198 
Q 466 275 466 372 
Q 466 481 555 628 
Q 644 775 966 1044 
z
M 1509 2797 
Q 1278 2797 1122 2612 
Q 966 2428 966 2047 
Q 966 1553 1178 1281 
Q 1341 1075 1591 1075 
Q 1828 1075 1981 1253 
Q 2134 1431 2134 1813 
Q 2134 2309 1919 2591 
Q 1759 2797 1509 2797 
z
M 934 0 
Q 788 -159 713 -296 
Q 638 -434 638 -550 
Q 638 -700 819 -813 
Q 1131 -1006 1722 -1006 
Q 2284 -1006 2551 -807 
Q 2819 -609 2819 -384 
Q 2819 -222 2659 -153 
Q 2497 -84 2016 -72 
Q 1313 -53 934 0 
z
" transform="scale(0.015625)"/>
      <path id="TimesNewRomanPSMT-6e" d="M 1034 2341 
Q 1538 2947 1994 2947 
Q 2228 2947 2397 2830 
Q 2566 2713 2666 2444 
Q 2734 2256 2734 1869 
L 2734 647 
Q 2734 375 2778 278 
Q 2813 200 2889 156 
Q 2966 113 3172 113 
L 3172 0 
L 1756 0 
L 1756 113 
L 1816 113 
Q 2016 113 2095 173 
Q 2175 234 2206 353 
Q 2219 400 2219 647 
L 2219 1819 
Q 2219 2209 2117 2386 
Q 2016 2563 1775 2563 
Q 1403 2563 1034 2156 
L 1034 647 
Q 1034 356 1069 288 
Q 1113 197 1189 155 
Q 1266 113 1500 113 
L 1500 0 
L 84 0 
L 84 113 
L 147 113 
Q 366 113 442 223 
Q 519 334 519 647 
L 519 1709 
Q 519 2225 495 2337 
Q 472 2450 423 2490 
Q 375 2531 294 2531 
Q 206 2531 84 2484 
L 38 2597 
L 900 2947 
L 1034 2947 
L 1034 2341 
z
" transform="scale(0.015625)"/>
      <path id="TimesNewRomanPSMT-76" d="M 53 2863 
L 1400 2863 
L 1400 2747 
L 1313 2747 
Q 1191 2747 1127 2687 
Q 1063 2628 1063 2528 
Q 1063 2419 1128 2269 
L 1794 688 
L 2463 2328 
Q 2534 2503 2534 2594 
Q 2534 2638 2509 2666 
Q 2475 2713 2422 2730 
Q 2369 2747 2206 2747 
L 2206 2863 
L 3141 2863 
L 3141 2747 
Q 2978 2734 2916 2681 
Q 2806 2588 2719 2369 
L 1703 -88 
L 1575 -88 
L 553 2328 
Q 484 2497 421 2570 
Q 359 2644 263 2694 
Q 209 2722 53 2747 
L 53 2863 
z
" transform="scale(0.015625)"/>
      <path id="TimesNewRomanPSMT-69" d="M 928 4444 
Q 1059 4444 1151 4351 
Q 1244 4259 1244 4128 
Q 1244 3997 1151 3903 
Q 1059 3809 928 3809 
Q 797 3809 703 3903 
Q 609 3997 609 4128 
Q 609 4259 701 4351 
Q 794 4444 928 4444 
z
M 1188 2947 
L 1188 647 
Q 1188 378 1227 289 
Q 1266 200 1342 156 
Q 1419 113 1622 113 
L 1622 0 
L 231 0 
L 231 113 
Q 441 113 512 153 
Q 584 194 626 287 
Q 669 381 669 647 
L 669 1750 
Q 669 2216 641 2353 
Q 619 2453 572 2492 
Q 525 2531 444 2531 
Q 356 2531 231 2484 
L 188 2597 
L 1050 2947 
L 1188 2947 
z
" transform="scale(0.015625)"/>
      <path id="TimesNewRomanPSMT-73" d="M 2050 2947 
L 2050 1972 
L 1947 1972 
Q 1828 2431 1642 2597 
Q 1456 2763 1169 2763 
Q 950 2763 815 2647 
Q 681 2531 681 2391 
Q 681 2216 781 2091 
Q 878 1963 1175 1819 
L 1631 1597 
Q 2266 1288 2266 781 
Q 2266 391 1970 151 
Q 1675 -88 1309 -88 
Q 1047 -88 709 6 
Q 606 38 541 38 
Q 469 38 428 -44 
L 325 -44 
L 325 978 
L 428 978 
Q 516 541 762 319 
Q 1009 97 1316 97 
Q 1531 97 1667 223 
Q 1803 350 1803 528 
Q 1803 744 1651 891 
Q 1500 1038 1047 1263 
Q 594 1488 453 1669 
Q 313 1847 313 2119 
Q 313 2472 555 2709 
Q 797 2947 1181 2947 
Q 1350 2947 1591 2875 
Q 1750 2828 1803 2828 
Q 1853 2828 1881 2850 
Q 1909 2872 1947 2947 
L 2050 2947 
z
" transform="scale(0.015625)"/>
     </defs>
     <use xlink:href="#TimesNewRomanPSMT-41"/>
     <use xlink:href="#TimesNewRomanPSMT-63" transform="translate(72.216797 0)"/>
     <use xlink:href="#TimesNewRomanPSMT-63" transform="translate(116.601562 0)"/>
     <use xlink:href="#TimesNewRomanPSMT-75" transform="translate(160.986328 0)"/>
     <use xlink:href="#TimesNewRomanPSMT-72" transform="translate(210.986328 0)"/>
     <use xlink:href="#TimesNewRomanPSMT-61" transform="translate(244.287109 0)"/>
     <use xlink:href="#TimesNewRomanPSMT-63" transform="translate(288.671875 0)"/>
     <use xlink:href="#TimesNewRomanPSMT-79" transform="translate(333.056641 0)"/>
     <use xlink:href="#TimesNewRomanPSMT-20" transform="translate(383.056641 0)"/>
     <use xlink:href="#TimesNewRomanPSMT-6f" transform="translate(408.056641 0)"/>
     <use xlink:href="#TimesNewRomanPSMT-66" transform="translate(458.056641 0)"/>
     <use xlink:href="#TimesNewRomanPSMT-20" transform="translate(491.357422 0)"/>
     <use xlink:href="#TimesNewRomanPSMT-74" transform="translate(516.357422 0)"/>
     <use xlink:href="#TimesNewRomanPSMT-68" transform="translate(544.140625 0)"/>
     <use xlink:href="#TimesNewRomanPSMT-65" transform="translate(594.140625 0)"/>
     <use xlink:href="#TimesNewRomanPSMT-20" transform="translate(638.525391 0)"/>
     <use xlink:href="#TimesNewRomanPSMT-30" transform="translate(663.525391 0)"/>
     <use xlink:href="#TimesNewRomanPSMT-39" transform="translate(713.525391 0)"/>
     <use xlink:href="#TimesNewRomanPSMT-5f" transform="translate(763.525391 0)"/>
     <use xlink:href="#TimesNewRomanPSMT-30" transform="translate(813.525391 0)"/>
     <use xlink:href="#TimesNewRomanPSMT-37" transform="translate(863.525391 0)"/>
     <use xlink:href="#TimesNewRomanPSMT-5f" transform="translate(913.525391 0)"/>
     <use xlink:href="#TimesNewRomanPSMT-32" transform="translate(963.525391 0)"/>
     <use xlink:href="#TimesNewRomanPSMT-35" transform="translate(1013.525391 0)"/>
     <use xlink:href="#TimesNewRomanPSMT-5f" transform="translate(1063.525391 0)"/>
     <use xlink:href="#TimesNewRomanPSMT-43" transform="translate(1113.525391 0)"/>
     <use xlink:href="#TimesNewRomanPSMT-49" transform="translate(1180.224609 0)"/>
     <use xlink:href="#TimesNewRomanPSMT-4e" transform="translate(1213.525391 0)"/>
     <use xlink:href="#TimesNewRomanPSMT-49" transform="translate(1285.742188 0)"/>
     <use xlink:href="#TimesNewRomanPSMT-43" transform="translate(1319.042969 0)"/>
     <use xlink:href="#TimesNewRomanPSMT-31" transform="translate(1385.742188 0)"/>
     <use xlink:href="#TimesNewRomanPSMT-30" transform="translate(1435.742188 0)"/>
     <use xlink:href="#TimesNewRomanPSMT-5f" transform="translate(1485.742188 0)"/>
     <use xlink:href="#TimesNewRomanPSMT-74" transform="translate(1535.742188 0)"/>
     <use xlink:href="#TimesNewRomanPSMT-6f" transform="translate(1563.525391 0)"/>
     <use xlink:href="#TimesNewRomanPSMT-72" transform="translate(1613.525391 0)"/>
     <use xlink:href="#TimesNewRomanPSMT-63" transform="translate(1646.826172 0)"/>
     <use xlink:href="#TimesNewRomanPSMT-68" transform="translate(1691.210938 0)"/>
     <use xlink:href="#TimesNewRomanPSMT-5f" transform="translate(1741.210938 0)"/>
     <use xlink:href="#TimesNewRomanPSMT-6d" transform="translate(1791.210938 0)"/>
     <use xlink:href="#TimesNewRomanPSMT-6f" transform="translate(1868.994141 0)"/>
     <use xlink:href="#TimesNewRomanPSMT-64" transform="translate(1918.994141 0)"/>
     <use xlink:href="#TimesNewRomanPSMT-65" transform="translate(1968.994141 0)"/>
     <use xlink:href="#TimesNewRomanPSMT-6c" transform="translate(2013.378906 0)"/>
     <use xlink:href="#TimesNewRomanPSMT-5f" transform="translate(2041.162109 0)"/>
     <use xlink:href="#TimesNewRomanPSMT-28" transform="translate(2091.162109 0)"/>
     <use xlink:href="#TimesNewRomanPSMT-31" transform="translate(2124.462891 0)"/>
     <use xlink:href="#TimesNewRomanPSMT-30" transform="translate(2174.462891 0)"/>
     <use xlink:href="#TimesNewRomanPSMT-32" transform="translate(2224.462891 0)"/>
     <use xlink:href="#TimesNewRomanPSMT-34" transform="translate(2274.462891 0)"/>
     <use xlink:href="#TimesNewRomanPSMT-2b" transform="translate(2324.462891 0)"/>
     <use xlink:href="#TimesNewRomanPSMT-32" transform="translate(2380.859375 0)"/>
     <use xlink:href="#TimesNewRomanPSMT-30" transform="translate(2430.859375 0)"/>
     <use xlink:href="#TimesNewRomanPSMT-34" transform="translate(2480.859375 0)"/>
     <use xlink:href="#TimesNewRomanPSMT-38" transform="translate(2530.859375 0)"/>
     <use xlink:href="#TimesNewRomanPSMT-2e" transform="translate(2580.859375 0)"/>
     <use xlink:href="#TimesNewRomanPSMT-33" transform="translate(2605.859375 0)"/>
     <use xlink:href="#TimesNewRomanPSMT-2b" transform="translate(2655.859375 0)"/>
     <use xlink:href="#TimesNewRomanPSMT-31" transform="translate(2712.255859 0)"/>
     <use xlink:href="#TimesNewRomanPSMT-29" transform="translate(2762.255859 0)"/>
     <use xlink:href="#TimesNewRomanPSMT-5f" transform="translate(2795.556641 0)"/>
     <use xlink:href="#TimesNewRomanPSMT-63" transform="translate(2845.556641 0)"/>
     <use xlink:href="#TimesNewRomanPSMT-61" transform="translate(2889.941406 0)"/>
     <use xlink:href="#TimesNewRomanPSMT-74" transform="translate(2934.326172 0)"/>
     <use xlink:href="#TimesNewRomanPSMT-2d" transform="translate(2962.109375 0)"/>
     <use xlink:href="#TimesNewRomanPSMT-64" transform="translate(2995.410156 0)"/>
     <use xlink:href="#TimesNewRomanPSMT-6f" transform="translate(3045.410156 0)"/>
     <use xlink:href="#TimesNewRomanPSMT-67" transform="translate(3095.410156 0)"/>
     <use xlink:href="#TimesNewRomanPSMT-20" transform="translate(3145.410156 0)"/>
     <use xlink:href="#TimesNewRomanPSMT-6f" transform="translate(3170.410156 0)"/>
     <use xlink:href="#TimesNewRomanPSMT-6e" transform="translate(3220.410156 0)"/>
     <use xlink:href="#TimesNewRomanPSMT-20" transform="translate(3270.410156 0)"/>
     <use xlink:href="#TimesNewRomanPSMT-74" transform="translate(3295.410156 0)"/>
     <use xlink:href="#TimesNewRomanPSMT-68" transform="translate(3323.193359 0)"/>
     <use xlink:href="#TimesNewRomanPSMT-65" transform="translate(3373.193359 0)"/>
     <use xlink:href="#TimesNewRomanPSMT-20" transform="translate(3417.578125 0)"/>
     <use xlink:href="#TimesNewRomanPSMT-76" transform="translate(3442.578125 0)"/>
     <use xlink:href="#TimesNewRomanPSMT-61" transform="translate(3492.578125 0)"/>
     <use xlink:href="#TimesNewRomanPSMT-6c" transform="translate(3536.962891 0)"/>
     <use xlink:href="#TimesNewRomanPSMT-69" transform="translate(3564.746094 0)"/>
     <use xlink:href="#TimesNewRomanPSMT-64" transform="translate(3592.529297 0)"/>
     <use xlink:href="#TimesNewRomanPSMT-61" transform="translate(3642.529297 0)"/>
     <use xlink:href="#TimesNewRomanPSMT-74" transform="translate(3686.914062 0)"/>
     <use xlink:href="#TimesNewRomanPSMT-69" transform="translate(3714.697266 0)"/>
     <use xlink:href="#TimesNewRomanPSMT-6f" transform="translate(3742.480469 0)"/>
     <use xlink:href="#TimesNewRomanPSMT-6e" transform="translate(3792.480469 0)"/>
     <use xlink:href="#TimesNewRomanPSMT-20" transform="translate(3842.480469 0)"/>
     <use xlink:href="#TimesNewRomanPSMT-73" transform="translate(3867.480469 0)"/>
     <use xlink:href="#TimesNewRomanPSMT-65" transform="translate(3906.396484 0)"/>
     <use xlink:href="#TimesNewRomanPSMT-74" transform="translate(3950.78125 0)"/>
    </g>
   </g>
   <g id="legend_1">
    <g id="patch_7">
     <path d="M 458.364063 94.278687 
L 695.534375 94.278687 
Q 699.934375 94.278687 699.934375 89.878687 
L 699.934375 60.9315 
Q 699.934375 56.5315 695.534375 56.5315 
L 458.364063 56.5315 
Q 453.964063 56.5315 453.964063 60.9315 
L 453.964063 89.878687 
Q 453.964063 94.278687 458.364063 94.278687 
z
" style="fill: #ffffff; opacity: 0.8; stroke: #cccccc; stroke-linejoin: miter"/>
    </g>
    <g id="line2d_32">
     <path d="M 462.764063 73.0315 
L 484.764063 73.0315 
L 506.764063 73.0315 
" style="fill: none; stroke: #1f77b4; stroke-width: 1.5; stroke-linecap: square"/>
    </g>
    <g id="text_19">
     <!-- Best accuracy 0.61 -->
     <g transform="translate(524.364063 80.7315) scale(0.22 -0.22)">
      <defs>
       <path id="TimesNewRomanPSMT-42" d="M 2956 2163 
Q 3397 2069 3616 1863 
Q 3919 1575 3919 1159 
Q 3919 844 3719 555 
Q 3519 266 3170 133 
Q 2822 0 2106 0 
L 106 0 
L 106 116 
L 266 116 
Q 531 116 647 284 
Q 719 394 719 750 
L 719 3488 
Q 719 3881 628 3984 
Q 506 4122 266 4122 
L 106 4122 
L 106 4238 
L 1938 4238 
Q 2450 4238 2759 4163 
Q 3228 4050 3475 3764 
Q 3722 3478 3722 3106 
Q 3722 2788 3528 2536 
Q 3334 2284 2956 2163 
z
M 1319 2331 
Q 1434 2309 1582 2298 
Q 1731 2288 1909 2288 
Q 2366 2288 2595 2386 
Q 2825 2484 2947 2687 
Q 3069 2891 3069 3131 
Q 3069 3503 2766 3765 
Q 2463 4028 1881 4028 
Q 1569 4028 1319 3959 
L 1319 2331 
z
M 1319 306 
Q 1681 222 2034 222 
Q 2600 222 2897 476 
Q 3194 731 3194 1106 
Q 3194 1353 3059 1581 
Q 2925 1809 2622 1940 
Q 2319 2072 1872 2072 
Q 1678 2072 1540 2065 
Q 1403 2059 1319 2044 
L 1319 306 
z
" transform="scale(0.015625)"/>
      </defs>
      <use xlink:href="#TimesNewRomanPSMT-42"/>
      <use xlink:href="#TimesNewRomanPSMT-65" transform="translate(66.699219 0)"/>
      <use xlink:href="#TimesNewRomanPSMT-73" transform="translate(111.083984 0)"/>
      <use xlink:href="#TimesNewRomanPSMT-74" transform="translate(150 0)"/>
      <use xlink:href="#TimesNewRomanPSMT-20" transform="translate(177.783203 0)"/>
      <use xlink:href="#TimesNewRomanPSMT-61" transform="translate(202.783203 0)"/>
      <use xlink:href="#TimesNewRomanPSMT-63" transform="translate(247.167969 0)"/>
      <use xlink:href="#TimesNewRomanPSMT-63" transform="translate(291.552734 0)"/>
      <use xlink:href="#TimesNewRomanPSMT-75" transform="translate(335.9375 0)"/>
      <use xlink:href="#TimesNewRomanPSMT-72" transform="translate(385.9375 0)"/>
      <use xlink:href="#TimesNewRomanPSMT-61" transform="translate(419.238281 0)"/>
      <use xlink:href="#TimesNewRomanPSMT-63" transform="translate(463.623047 0)"/>
      <use xlink:href="#TimesNewRomanPSMT-79" transform="translate(508.007812 0)"/>
      <use xlink:href="#TimesNewRomanPSMT-20" transform="translate(558.007812 0)"/>
      <use xlink:href="#TimesNewRomanPSMT-30" transform="translate(583.007812 0)"/>
      <use xlink:href="#TimesNewRomanPSMT-2e" transform="translate(633.007812 0)"/>
      <use xlink:href="#TimesNewRomanPSMT-36" transform="translate(658.007812 0)"/>
      <use xlink:href="#TimesNewRomanPSMT-31" transform="translate(708.007812 0)"/>
     </g>
    </g>
   </g>
  </g>
 </g>
 <defs>
  <clipPath id="pb4b36edf10">
   <rect x="353.814375" y="45.5315" width="357.12" height="266.112"/>
  </clipPath>
 </defs>
</svg>
