<?xml version="1.0" encoding="utf-8" standalone="no"?>
<!DOCTYPE svg PUBLIC "-//W3C//DTD SVG 1.1//EN"
  "http://www.w3.org/Graphics/SVG/1.1/DTD/svg11.dtd">
<svg xmlns:xlink="http://www.w3.org/1999/xlink" width="1070.049375pt" height="369.807875pt" viewBox="0 0 1070.049375 369.807875" xmlns="http://www.w3.org/2000/svg" version="1.1">
 <metadata>
  <rdf:RDF xmlns:dc="http://purl.org/dc/elements/1.1/" xmlns:cc="http://creativecommons.org/ns#" xmlns:rdf="http://www.w3.org/1999/02/22-rdf-syntax-ns#">
   <cc:Work>
    <dc:type rdf:resource="http://purl.org/dc/dcmitype/StillImage"/>
    <dc:date>2025-07-13T10:49:23.263316</dc:date>
    <dc:format>image/svg+xml</dc:format>
    <dc:creator>
     <cc:Agent>
      <dc:title>Matplotlib v3.10.3, https://matplotlib.org/</dc:title>
     </cc:Agent>
    </dc:creator>
   </cc:Work>
  </rdf:RDF>
 </metadata>
 <defs>
  <style type="text/css">*{stroke-linejoin: round; stroke-linecap: butt}</style>
 </defs>
 <g id="figure_1">
  <g id="patch_1">
   <path d="M 0 369.807875 
L 1070.049375 369.807875 
L 1070.049375 0 
L 0 0 
z
" style="fill: #ffffff"/>
  </g>
  <g id="axes_1">
   <g id="patch_2">
    <path d="M 356.464687 311.6435 
L 713.584687 311.6435 
L 713.584687 45.5315 
L 356.464687 45.5315 
z
" style="fill: #ffffff"/>
   </g>
   <g id="matplotlib.axis_1">
    <g id="xtick_1">
     <g id="line2d_1">
      <path d="M 356.464687 311.6435 
L 356.464687 45.5315 
" clip-path="url(#pfe1184f750)" style="fill: none; stroke: #b0b0b0; stroke-opacity: 0.3; stroke-width: 0.8; stroke-linecap: square"/>
     </g>
     <g id="line2d_2">
      <defs>
       <path id="m48dd266701" d="M 0 0 
L 0 3.5 
" style="stroke: #000000; stroke-width: 0.8"/>
      </defs>
      <g>
       <use xlink:href="#m48dd266701" x="356.464687" y="311.6435" style="stroke: #000000; stroke-width: 0.8"/>
      </g>
     </g>
     <g id="text_1">
      <!-- 0 -->
      <g transform="translate(350.964687 333.91975) scale(0.22 -0.22)">
       <defs>
        <path id="TimesNewRomanPSMT-30" d="M 231 2094 
Q 231 2819 450 3342 
Q 669 3866 1031 4122 
Q 1313 4325 1613 4325 
Q 2100 4325 2488 3828 
Q 2972 3213 2972 2159 
Q 2972 1422 2759 906 
Q 2547 391 2217 158 
Q 1888 -75 1581 -75 
Q 975 -75 572 641 
Q 231 1244 231 2094 
z
M 844 2016 
Q 844 1141 1059 588 
Q 1238 122 1591 122 
Q 1759 122 1940 273 
Q 2122 425 2216 781 
Q 2359 1319 2359 2297 
Q 2359 3022 2209 3506 
Q 2097 3866 1919 4016 
Q 1791 4119 1609 4119 
Q 1397 4119 1231 3928 
Q 1006 3669 925 3112 
Q 844 2556 844 2016 
z
" transform="scale(0.015625)"/>
       </defs>
       <use xlink:href="#TimesNewRomanPSMT-30"/>
      </g>
     </g>
    </g>
    <g id="xtick_2">
     <g id="line2d_3">
      <path d="M 430.864687 311.6435 
L 430.864687 45.5315 
" clip-path="url(#pfe1184f750)" style="fill: none; stroke: #b0b0b0; stroke-opacity: 0.3; stroke-width: 0.8; stroke-linecap: square"/>
     </g>
     <g id="line2d_4">
      <g>
       <use xlink:href="#m48dd266701" x="430.864687" y="311.6435" style="stroke: #000000; stroke-width: 0.8"/>
      </g>
     </g>
     <g id="text_2">
      <!-- 25000 -->
      <g transform="translate(403.364687 333.91975) scale(0.22 -0.22)">
       <defs>
        <path id="TimesNewRomanPSMT-32" d="M 2934 816 
L 2638 0 
L 138 0 
L 138 116 
Q 1241 1122 1691 1759 
Q 2141 2397 2141 2925 
Q 2141 3328 1894 3587 
Q 1647 3847 1303 3847 
Q 991 3847 742 3664 
Q 494 3481 375 3128 
L 259 3128 
Q 338 3706 661 4015 
Q 984 4325 1469 4325 
Q 1984 4325 2329 3994 
Q 2675 3663 2675 3213 
Q 2675 2891 2525 2569 
Q 2294 2063 1775 1497 
Q 997 647 803 472 
L 1909 472 
Q 2247 472 2383 497 
Q 2519 522 2628 598 
Q 2738 675 2819 816 
L 2934 816 
z
" transform="scale(0.015625)"/>
        <path id="TimesNewRomanPSMT-35" d="M 2778 4238 
L 2534 3706 
L 1259 3706 
L 981 3138 
Q 1809 3016 2294 2522 
Q 2709 2097 2709 1522 
Q 2709 1188 2573 903 
Q 2438 619 2231 419 
Q 2025 219 1772 97 
Q 1413 -75 1034 -75 
Q 653 -75 479 54 
Q 306 184 306 341 
Q 306 428 378 495 
Q 450 563 559 563 
Q 641 563 702 538 
Q 763 513 909 409 
Q 1144 247 1384 247 
Q 1750 247 2026 523 
Q 2303 800 2303 1197 
Q 2303 1581 2056 1914 
Q 1809 2247 1375 2428 
Q 1034 2569 447 2591 
L 1259 4238 
L 2778 4238 
z
" transform="scale(0.015625)"/>
       </defs>
       <use xlink:href="#TimesNewRomanPSMT-32"/>
       <use xlink:href="#TimesNewRomanPSMT-35" transform="translate(50 0)"/>
       <use xlink:href="#TimesNewRomanPSMT-30" transform="translate(100 0)"/>
       <use xlink:href="#TimesNewRomanPSMT-30" transform="translate(150 0)"/>
       <use xlink:href="#TimesNewRomanPSMT-30" transform="translate(200 0)"/>
      </g>
     </g>
    </g>
    <g id="xtick_3">
     <g id="line2d_5">
      <path d="M 505.264687 311.6435 
L 505.264687 45.5315 
" clip-path="url(#pfe1184f750)" style="fill: none; stroke: #b0b0b0; stroke-opacity: 0.3; stroke-width: 0.8; stroke-linecap: square"/>
     </g>
     <g id="line2d_6">
      <g>
       <use xlink:href="#m48dd266701" x="505.264687" y="311.6435" style="stroke: #000000; stroke-width: 0.8"/>
      </g>
     </g>
     <g id="text_3">
      <!-- 50000 -->
      <g transform="translate(477.764687 333.91975) scale(0.22 -0.22)">
       <use xlink:href="#TimesNewRomanPSMT-35"/>
       <use xlink:href="#TimesNewRomanPSMT-30" transform="translate(50 0)"/>
       <use xlink:href="#TimesNewRomanPSMT-30" transform="translate(100 0)"/>
       <use xlink:href="#TimesNewRomanPSMT-30" transform="translate(150 0)"/>
       <use xlink:href="#TimesNewRomanPSMT-30" transform="translate(200 0)"/>
      </g>
     </g>
    </g>
    <g id="xtick_4">
     <g id="line2d_7">
      <path d="M 579.664688 311.6435 
L 579.664688 45.5315 
" clip-path="url(#pfe1184f750)" style="fill: none; stroke: #b0b0b0; stroke-opacity: 0.3; stroke-width: 0.8; stroke-linecap: square"/>
     </g>
     <g id="line2d_8">
      <g>
       <use xlink:href="#m48dd266701" x="579.664688" y="311.6435" style="stroke: #000000; stroke-width: 0.8"/>
      </g>
     </g>
     <g id="text_4">
      <!-- 75000 -->
      <g transform="translate(552.164688 333.91975) scale(0.22 -0.22)">
       <defs>
        <path id="TimesNewRomanPSMT-37" d="M 644 4238 
L 2916 4238 
L 2916 4119 
L 1503 -88 
L 1153 -88 
L 2419 3728 
L 1253 3728 
Q 900 3728 750 3644 
Q 488 3500 328 3200 
L 238 3234 
L 644 4238 
z
" transform="scale(0.015625)"/>
       </defs>
       <use xlink:href="#TimesNewRomanPSMT-37"/>
       <use xlink:href="#TimesNewRomanPSMT-35" transform="translate(50 0)"/>
       <use xlink:href="#TimesNewRomanPSMT-30" transform="translate(100 0)"/>
       <use xlink:href="#TimesNewRomanPSMT-30" transform="translate(150 0)"/>
       <use xlink:href="#TimesNewRomanPSMT-30" transform="translate(200 0)"/>
      </g>
     </g>
    </g>
    <g id="xtick_5">
     <g id="line2d_9">
      <path d="M 654.064687 311.6435 
L 654.064687 45.5315 
" clip-path="url(#pfe1184f750)" style="fill: none; stroke: #b0b0b0; stroke-opacity: 0.3; stroke-width: 0.8; stroke-linecap: square"/>
     </g>
     <g id="line2d_10">
      <g>
       <use xlink:href="#m48dd266701" x="654.064687" y="311.6435" style="stroke: #000000; stroke-width: 0.8"/>
      </g>
     </g>
     <g id="text_5">
      <!-- 100000 -->
      <g transform="translate(621.064687 333.91975) scale(0.22 -0.22)">
       <defs>
        <path id="TimesNewRomanPSMT-31" d="M 750 3822 
L 1781 4325 
L 1884 4325 
L 1884 747 
Q 1884 391 1914 303 
Q 1944 216 2037 169 
Q 2131 122 2419 116 
L 2419 0 
L 825 0 
L 825 116 
Q 1125 122 1212 167 
Q 1300 213 1334 289 
Q 1369 366 1369 747 
L 1369 3034 
Q 1369 3497 1338 3628 
Q 1316 3728 1258 3775 
Q 1200 3822 1119 3822 
Q 1003 3822 797 3725 
L 750 3822 
z
" transform="scale(0.015625)"/>
       </defs>
       <use xlink:href="#TimesNewRomanPSMT-31"/>
       <use xlink:href="#TimesNewRomanPSMT-30" transform="translate(50 0)"/>
       <use xlink:href="#TimesNewRomanPSMT-30" transform="translate(100 0)"/>
       <use xlink:href="#TimesNewRomanPSMT-30" transform="translate(150 0)"/>
       <use xlink:href="#TimesNewRomanPSMT-30" transform="translate(200 0)"/>
       <use xlink:href="#TimesNewRomanPSMT-30" transform="translate(250 0)"/>
      </g>
     </g>
    </g>
    <g id="text_6">
     <!-- Number of iterations -->
     <g transform="translate(443.382656 357.901937) scale(0.22 -0.22)">
      <defs>
       <path id="TimesNewRomanPSMT-4e" d="M -84 4238 
L 1066 4238 
L 3656 1059 
L 3656 3503 
Q 3656 3894 3569 3991 
Q 3453 4122 3203 4122 
L 3056 4122 
L 3056 4238 
L 4531 4238 
L 4531 4122 
L 4381 4122 
Q 4113 4122 4000 3959 
Q 3931 3859 3931 3503 
L 3931 -69 
L 3819 -69 
L 1025 3344 
L 1025 734 
Q 1025 344 1109 247 
Q 1228 116 1475 116 
L 1625 116 
L 1625 0 
L 150 0 
L 150 116 
L 297 116 
Q 569 116 681 278 
Q 750 378 750 734 
L 750 3681 
Q 566 3897 470 3965 
Q 375 4034 191 4094 
Q 100 4122 -84 4122 
L -84 4238 
z
" transform="scale(0.015625)"/>
       <path id="TimesNewRomanPSMT-75" d="M 2709 2863 
L 2709 1128 
Q 2709 631 2732 520 
Q 2756 409 2807 365 
Q 2859 322 2928 322 
Q 3025 322 3147 375 
L 3191 266 
L 2334 -88 
L 2194 -88 
L 2194 519 
Q 1825 119 1631 15 
Q 1438 -88 1222 -88 
Q 981 -88 804 51 
Q 628 191 559 409 
Q 491 628 491 1028 
L 491 2306 
Q 491 2509 447 2587 
Q 403 2666 317 2708 
Q 231 2750 6 2747 
L 6 2863 
L 1009 2863 
L 1009 947 
Q 1009 547 1148 422 
Q 1288 297 1484 297 
Q 1619 297 1789 381 
Q 1959 466 2194 703 
L 2194 2325 
Q 2194 2569 2105 2655 
Q 2016 2741 1734 2747 
L 1734 2863 
L 2709 2863 
z
" transform="scale(0.015625)"/>
       <path id="TimesNewRomanPSMT-6d" d="M 1050 2338 
Q 1363 2650 1419 2697 
Q 1559 2816 1721 2881 
Q 1884 2947 2044 2947 
Q 2313 2947 2506 2790 
Q 2700 2634 2766 2338 
Q 3088 2713 3309 2830 
Q 3531 2947 3766 2947 
Q 3994 2947 4170 2830 
Q 4347 2713 4450 2447 
Q 4519 2266 4519 1878 
L 4519 647 
Q 4519 378 4559 278 
Q 4591 209 4675 161 
Q 4759 113 4950 113 
L 4950 0 
L 3538 0 
L 3538 113 
L 3597 113 
Q 3781 113 3884 184 
Q 3956 234 3988 344 
Q 4000 397 4000 647 
L 4000 1878 
Q 4000 2228 3916 2372 
Q 3794 2572 3525 2572 
Q 3359 2572 3192 2489 
Q 3025 2406 2788 2181 
L 2781 2147 
L 2788 2013 
L 2788 647 
Q 2788 353 2820 281 
Q 2853 209 2943 161 
Q 3034 113 3253 113 
L 3253 0 
L 1806 0 
L 1806 113 
Q 2044 113 2133 169 
Q 2222 225 2256 338 
Q 2272 391 2272 647 
L 2272 1878 
Q 2272 2228 2169 2381 
Q 2031 2581 1784 2581 
Q 1616 2581 1450 2491 
Q 1191 2353 1050 2181 
L 1050 647 
Q 1050 366 1089 281 
Q 1128 197 1204 155 
Q 1281 113 1516 113 
L 1516 0 
L 100 0 
L 100 113 
Q 297 113 375 155 
Q 453 197 493 289 
Q 534 381 534 647 
L 534 1741 
Q 534 2213 506 2350 
Q 484 2453 437 2492 
Q 391 2531 309 2531 
Q 222 2531 100 2484 
L 53 2597 
L 916 2947 
L 1050 2947 
L 1050 2338 
z
" transform="scale(0.015625)"/>
       <path id="TimesNewRomanPSMT-62" d="M 984 2369 
Q 1400 2947 1881 2947 
Q 2322 2947 2650 2570 
Q 2978 2194 2978 1541 
Q 2978 778 2472 313 
Q 2038 -88 1503 -88 
Q 1253 -88 995 3 
Q 738 94 469 275 
L 469 3241 
Q 469 3728 445 3840 
Q 422 3953 372 3993 
Q 322 4034 247 4034 
Q 159 4034 28 3984 
L -16 4094 
L 844 4444 
L 984 4444 
L 984 2369 
z
M 984 2169 
L 984 456 
Q 1144 300 1314 220 
Q 1484 141 1663 141 
Q 1947 141 2192 453 
Q 2438 766 2438 1363 
Q 2438 1913 2192 2208 
Q 1947 2503 1634 2503 
Q 1469 2503 1303 2419 
Q 1178 2356 984 2169 
z
" transform="scale(0.015625)"/>
       <path id="TimesNewRomanPSMT-65" d="M 681 1784 
Q 678 1147 991 784 
Q 1303 422 1725 422 
Q 2006 422 2214 576 
Q 2422 731 2563 1106 
L 2659 1044 
Q 2594 616 2278 264 
Q 1963 -88 1488 -88 
Q 972 -88 605 314 
Q 238 716 238 1394 
Q 238 2128 614 2539 
Q 991 2950 1559 2950 
Q 2041 2950 2350 2633 
Q 2659 2316 2659 1784 
L 681 1784 
z
M 681 1966 
L 2006 1966 
Q 1991 2241 1941 2353 
Q 1863 2528 1708 2628 
Q 1553 2728 1384 2728 
Q 1125 2728 920 2526 
Q 716 2325 681 1966 
z
" transform="scale(0.015625)"/>
       <path id="TimesNewRomanPSMT-72" d="M 1038 2947 
L 1038 2303 
Q 1397 2947 1775 2947 
Q 1947 2947 2059 2842 
Q 2172 2738 2172 2600 
Q 2172 2478 2090 2393 
Q 2009 2309 1897 2309 
Q 1788 2309 1652 2417 
Q 1516 2525 1450 2525 
Q 1394 2525 1328 2463 
Q 1188 2334 1038 2041 
L 1038 669 
Q 1038 431 1097 309 
Q 1138 225 1241 169 
Q 1344 113 1538 113 
L 1538 0 
L 72 0 
L 72 113 
Q 291 113 397 181 
Q 475 231 506 341 
Q 522 394 522 644 
L 522 1753 
Q 522 2253 501 2348 
Q 481 2444 426 2487 
Q 372 2531 291 2531 
Q 194 2531 72 2484 
L 41 2597 
L 906 2947 
L 1038 2947 
z
" transform="scale(0.015625)"/>
       <path id="TimesNewRomanPSMT-20" transform="scale(0.015625)"/>
       <path id="TimesNewRomanPSMT-6f" d="M 1600 2947 
Q 2250 2947 2644 2453 
Q 2978 2031 2978 1484 
Q 2978 1100 2793 706 
Q 2609 313 2286 112 
Q 1963 -88 1566 -88 
Q 919 -88 538 428 
Q 216 863 216 1403 
Q 216 1797 411 2186 
Q 606 2575 925 2761 
Q 1244 2947 1600 2947 
z
M 1503 2744 
Q 1338 2744 1170 2645 
Q 1003 2547 900 2300 
Q 797 2053 797 1666 
Q 797 1041 1045 587 
Q 1294 134 1700 134 
Q 2003 134 2200 384 
Q 2397 634 2397 1244 
Q 2397 2006 2069 2444 
Q 1847 2744 1503 2744 
z
" transform="scale(0.015625)"/>
       <path id="TimesNewRomanPSMT-66" d="M 1319 2638 
L 1319 756 
Q 1319 356 1406 250 
Q 1522 113 1716 113 
L 1975 113 
L 1975 0 
L 266 0 
L 266 113 
L 394 113 
Q 519 113 622 175 
Q 725 238 764 344 
Q 803 450 803 756 
L 803 2638 
L 247 2638 
L 247 2863 
L 803 2863 
L 803 3050 
Q 803 3478 940 3775 
Q 1078 4072 1361 4255 
Q 1644 4438 1997 4438 
Q 2325 4438 2600 4225 
Q 2781 4084 2781 3909 
Q 2781 3816 2700 3733 
Q 2619 3650 2525 3650 
Q 2453 3650 2373 3701 
Q 2294 3753 2178 3923 
Q 2063 4094 1966 4153 
Q 1869 4213 1750 4213 
Q 1606 4213 1506 4136 
Q 1406 4059 1362 3898 
Q 1319 3738 1319 3069 
L 1319 2863 
L 2056 2863 
L 2056 2638 
L 1319 2638 
z
" transform="scale(0.015625)"/>
       <path id="TimesNewRomanPSMT-69" d="M 928 4444 
Q 1059 4444 1151 4351 
Q 1244 4259 1244 4128 
Q 1244 3997 1151 3903 
Q 1059 3809 928 3809 
Q 797 3809 703 3903 
Q 609 3997 609 4128 
Q 609 4259 701 4351 
Q 794 4444 928 4444 
z
M 1188 2947 
L 1188 647 
Q 1188 378 1227 289 
Q 1266 200 1342 156 
Q 1419 113 1622 113 
L 1622 0 
L 231 0 
L 231 113 
Q 441 113 512 153 
Q 584 194 626 287 
Q 669 381 669 647 
L 669 1750 
Q 669 2216 641 2353 
Q 619 2453 572 2492 
Q 525 2531 444 2531 
Q 356 2531 231 2484 
L 188 2597 
L 1050 2947 
L 1188 2947 
z
" transform="scale(0.015625)"/>
       <path id="TimesNewRomanPSMT-74" d="M 1031 3803 
L 1031 2863 
L 1700 2863 
L 1700 2644 
L 1031 2644 
L 1031 788 
Q 1031 509 1111 412 
Q 1191 316 1316 316 
Q 1419 316 1516 380 
Q 1613 444 1666 569 
L 1788 569 
Q 1678 263 1478 108 
Q 1278 -47 1066 -47 
Q 922 -47 784 33 
Q 647 113 581 261 
Q 516 409 516 719 
L 516 2644 
L 63 2644 
L 63 2747 
Q 234 2816 414 2980 
Q 594 3144 734 3369 
Q 806 3488 934 3803 
L 1031 3803 
z
" transform="scale(0.015625)"/>
       <path id="TimesNewRomanPSMT-61" d="M 1822 413 
Q 1381 72 1269 19 
Q 1100 -59 909 -59 
Q 613 -59 420 144 
Q 228 347 228 678 
Q 228 888 322 1041 
Q 450 1253 767 1440 
Q 1084 1628 1822 1897 
L 1822 2009 
Q 1822 2438 1686 2597 
Q 1550 2756 1291 2756 
Q 1094 2756 978 2650 
Q 859 2544 859 2406 
L 866 2225 
Q 866 2081 792 2003 
Q 719 1925 600 1925 
Q 484 1925 411 2006 
Q 338 2088 338 2228 
Q 338 2497 613 2722 
Q 888 2947 1384 2947 
Q 1766 2947 2009 2819 
Q 2194 2722 2281 2516 
Q 2338 2381 2338 1966 
L 2338 994 
Q 2338 584 2353 492 
Q 2369 400 2405 369 
Q 2441 338 2488 338 
Q 2538 338 2575 359 
Q 2641 400 2828 588 
L 2828 413 
Q 2478 -56 2159 -56 
Q 2006 -56 1915 50 
Q 1825 156 1822 413 
z
M 1822 616 
L 1822 1706 
Q 1350 1519 1213 1441 
Q 966 1303 859 1153 
Q 753 1003 753 825 
Q 753 600 887 451 
Q 1022 303 1197 303 
Q 1434 303 1822 616 
z
" transform="scale(0.015625)"/>
       <path id="TimesNewRomanPSMT-6e" d="M 1034 2341 
Q 1538 2947 1994 2947 
Q 2228 2947 2397 2830 
Q 2566 2713 2666 2444 
Q 2734 2256 2734 1869 
L 2734 647 
Q 2734 375 2778 278 
Q 2813 200 2889 156 
Q 2966 113 3172 113 
L 3172 0 
L 1756 0 
L 1756 113 
L 1816 113 
Q 2016 113 2095 173 
Q 2175 234 2206 353 
Q 2219 400 2219 647 
L 2219 1819 
Q 2219 2209 2117 2386 
Q 2016 2563 1775 2563 
Q 1403 2563 1034 2156 
L 1034 647 
Q 1034 356 1069 288 
Q 1113 197 1189 155 
Q 1266 113 1500 113 
L 1500 0 
L 84 0 
L 84 113 
L 147 113 
Q 366 113 442 223 
Q 519 334 519 647 
L 519 1709 
Q 519 2225 495 2337 
Q 472 2450 423 2490 
Q 375 2531 294 2531 
Q 206 2531 84 2484 
L 38 2597 
L 900 2947 
L 1034 2947 
L 1034 2341 
z
" transform="scale(0.015625)"/>
       <path id="TimesNewRomanPSMT-73" d="M 2050 2947 
L 2050 1972 
L 1947 1972 
Q 1828 2431 1642 2597 
Q 1456 2763 1169 2763 
Q 950 2763 815 2647 
Q 681 2531 681 2391 
Q 681 2216 781 2091 
Q 878 1963 1175 1819 
L 1631 1597 
Q 2266 1288 2266 781 
Q 2266 391 1970 151 
Q 1675 -88 1309 -88 
Q 1047 -88 709 6 
Q 606 38 541 38 
Q 469 38 428 -44 
L 325 -44 
L 325 978 
L 428 978 
Q 516 541 762 319 
Q 1009 97 1316 97 
Q 1531 97 1667 223 
Q 1803 350 1803 528 
Q 1803 744 1651 891 
Q 1500 1038 1047 1263 
Q 594 1488 453 1669 
Q 313 1847 313 2119 
Q 313 2472 555 2709 
Q 797 2947 1181 2947 
Q 1350 2947 1591 2875 
Q 1750 2828 1803 2828 
Q 1853 2828 1881 2850 
Q 1909 2872 1947 2947 
L 2050 2947 
z
" transform="scale(0.015625)"/>
      </defs>
      <use xlink:href="#TimesNewRomanPSMT-4e"/>
      <use xlink:href="#TimesNewRomanPSMT-75" transform="translate(72.216797 0)"/>
      <use xlink:href="#TimesNewRomanPSMT-6d" transform="translate(122.216797 0)"/>
      <use xlink:href="#TimesNewRomanPSMT-62" transform="translate(200 0)"/>
      <use xlink:href="#TimesNewRomanPSMT-65" transform="translate(250 0)"/>
      <use xlink:href="#TimesNewRomanPSMT-72" transform="translate(294.384766 0)"/>
      <use xlink:href="#TimesNewRomanPSMT-20" transform="translate(327.685547 0)"/>
      <use xlink:href="#TimesNewRomanPSMT-6f" transform="translate(352.685547 0)"/>
      <use xlink:href="#TimesNewRomanPSMT-66" transform="translate(402.685547 0)"/>
      <use xlink:href="#TimesNewRomanPSMT-20" transform="translate(435.986328 0)"/>
      <use xlink:href="#TimesNewRomanPSMT-69" transform="translate(460.986328 0)"/>
      <use xlink:href="#TimesNewRomanPSMT-74" transform="translate(488.769531 0)"/>
      <use xlink:href="#TimesNewRomanPSMT-65" transform="translate(516.552734 0)"/>
      <use xlink:href="#TimesNewRomanPSMT-72" transform="translate(560.9375 0)"/>
      <use xlink:href="#TimesNewRomanPSMT-61" transform="translate(594.238281 0)"/>
      <use xlink:href="#TimesNewRomanPSMT-74" transform="translate(638.623047 0)"/>
      <use xlink:href="#TimesNewRomanPSMT-69" transform="translate(666.40625 0)"/>
      <use xlink:href="#TimesNewRomanPSMT-6f" transform="translate(694.189453 0)"/>
      <use xlink:href="#TimesNewRomanPSMT-6e" transform="translate(744.189453 0)"/>
      <use xlink:href="#TimesNewRomanPSMT-73" transform="translate(794.189453 0)"/>
     </g>
    </g>
   </g>
   <g id="matplotlib.axis_2">
    <g id="ytick_1">
     <g id="line2d_11">
      <path d="M 356.464687 311.6435 
L 713.584687 311.6435 
" clip-path="url(#pfe1184f750)" style="fill: none; stroke: #b0b0b0; stroke-opacity: 0.3; stroke-width: 0.8; stroke-linecap: square"/>
     </g>
     <g id="line2d_12">
      <defs>
       <path id="m48e92dd6f9" d="M 0 0 
L -3.5 0 
" style="stroke: #000000; stroke-width: 0.8"/>
      </defs>
      <g>
       <use xlink:href="#m48e92dd6f9" x="356.464687" y="311.6435" style="stroke: #000000; stroke-width: 0.8"/>
      </g>
     </g>
     <g id="text_7">
      <!-- 0.0 -->
      <g transform="translate(321.964687 319.281625) scale(0.22 -0.22)">
       <defs>
        <path id="TimesNewRomanPSMT-2e" d="M 800 606 
Q 947 606 1047 504 
Q 1147 403 1147 259 
Q 1147 116 1045 14 
Q 944 -88 800 -88 
Q 656 -88 554 14 
Q 453 116 453 259 
Q 453 406 554 506 
Q 656 606 800 606 
z
" transform="scale(0.015625)"/>
       </defs>
       <use xlink:href="#TimesNewRomanPSMT-30"/>
       <use xlink:href="#TimesNewRomanPSMT-2e" transform="translate(50 0)"/>
       <use xlink:href="#TimesNewRomanPSMT-30" transform="translate(75 0)"/>
      </g>
     </g>
    </g>
    <g id="ytick_2">
     <g id="line2d_13">
      <path d="M 356.464687 285.0323 
L 713.584687 285.0323 
" clip-path="url(#pfe1184f750)" style="fill: none; stroke: #b0b0b0; stroke-opacity: 0.3; stroke-width: 0.8; stroke-linecap: square"/>
     </g>
     <g id="line2d_14">
      <g>
       <use xlink:href="#m48e92dd6f9" x="356.464687" y="285.0323" style="stroke: #000000; stroke-width: 0.8"/>
      </g>
     </g>
     <g id="text_8">
      <!-- 0.1 -->
      <g transform="translate(321.964687 292.670425) scale(0.22 -0.22)">
       <use xlink:href="#TimesNewRomanPSMT-30"/>
       <use xlink:href="#TimesNewRomanPSMT-2e" transform="translate(50 0)"/>
       <use xlink:href="#TimesNewRomanPSMT-31" transform="translate(75 0)"/>
      </g>
     </g>
    </g>
    <g id="ytick_3">
     <g id="line2d_15">
      <path d="M 356.464687 258.4211 
L 713.584687 258.4211 
" clip-path="url(#pfe1184f750)" style="fill: none; stroke: #b0b0b0; stroke-opacity: 0.3; stroke-width: 0.8; stroke-linecap: square"/>
     </g>
     <g id="line2d_16">
      <g>
       <use xlink:href="#m48e92dd6f9" x="356.464687" y="258.4211" style="stroke: #000000; stroke-width: 0.8"/>
      </g>
     </g>
     <g id="text_9">
      <!-- 0.2 -->
      <g transform="translate(321.964687 266.059225) scale(0.22 -0.22)">
       <use xlink:href="#TimesNewRomanPSMT-30"/>
       <use xlink:href="#TimesNewRomanPSMT-2e" transform="translate(50 0)"/>
       <use xlink:href="#TimesNewRomanPSMT-32" transform="translate(75 0)"/>
      </g>
     </g>
    </g>
    <g id="ytick_4">
     <g id="line2d_17">
      <path d="M 356.464687 231.8099 
L 713.584687 231.8099 
" clip-path="url(#pfe1184f750)" style="fill: none; stroke: #b0b0b0; stroke-opacity: 0.3; stroke-width: 0.8; stroke-linecap: square"/>
     </g>
     <g id="line2d_18">
      <g>
       <use xlink:href="#m48e92dd6f9" x="356.464687" y="231.8099" style="stroke: #000000; stroke-width: 0.8"/>
      </g>
     </g>
     <g id="text_10">
      <!-- 0.3 -->
      <g transform="translate(321.964687 239.448025) scale(0.22 -0.22)">
       <defs>
        <path id="TimesNewRomanPSMT-33" d="M 325 3431 
Q 506 3859 782 4092 
Q 1059 4325 1472 4325 
Q 1981 4325 2253 3994 
Q 2459 3747 2459 3466 
Q 2459 3003 1878 2509 
Q 2269 2356 2469 2072 
Q 2669 1788 2669 1403 
Q 2669 853 2319 450 
Q 1863 -75 997 -75 
Q 569 -75 414 31 
Q 259 138 259 259 
Q 259 350 332 419 
Q 406 488 509 488 
Q 588 488 669 463 
Q 722 447 909 348 
Q 1097 250 1169 231 
Q 1284 197 1416 197 
Q 1734 197 1970 444 
Q 2206 691 2206 1028 
Q 2206 1275 2097 1509 
Q 2016 1684 1919 1775 
Q 1784 1900 1550 2001 
Q 1316 2103 1072 2103 
L 972 2103 
L 972 2197 
Q 1219 2228 1467 2375 
Q 1716 2522 1828 2728 
Q 1941 2934 1941 3181 
Q 1941 3503 1739 3701 
Q 1538 3900 1238 3900 
Q 753 3900 428 3381 
L 325 3431 
z
" transform="scale(0.015625)"/>
       </defs>
       <use xlink:href="#TimesNewRomanPSMT-30"/>
       <use xlink:href="#TimesNewRomanPSMT-2e" transform="translate(50 0)"/>
       <use xlink:href="#TimesNewRomanPSMT-33" transform="translate(75 0)"/>
      </g>
     </g>
    </g>
    <g id="ytick_5">
     <g id="line2d_19">
      <path d="M 356.464687 205.1987 
L 713.584687 205.1987 
" clip-path="url(#pfe1184f750)" style="fill: none; stroke: #b0b0b0; stroke-opacity: 0.3; stroke-width: 0.8; stroke-linecap: square"/>
     </g>
     <g id="line2d_20">
      <g>
       <use xlink:href="#m48e92dd6f9" x="356.464687" y="205.1987" style="stroke: #000000; stroke-width: 0.8"/>
      </g>
     </g>
     <g id="text_11">
      <!-- 0.4 -->
      <g transform="translate(321.964687 212.836825) scale(0.22 -0.22)">
       <defs>
        <path id="TimesNewRomanPSMT-34" d="M 2978 1563 
L 2978 1119 
L 2409 1119 
L 2409 0 
L 1894 0 
L 1894 1119 
L 100 1119 
L 100 1519 
L 2066 4325 
L 2409 4325 
L 2409 1563 
L 2978 1563 
z
M 1894 1563 
L 1894 3666 
L 406 1563 
L 1894 1563 
z
" transform="scale(0.015625)"/>
       </defs>
       <use xlink:href="#TimesNewRomanPSMT-30"/>
       <use xlink:href="#TimesNewRomanPSMT-2e" transform="translate(50 0)"/>
       <use xlink:href="#TimesNewRomanPSMT-34" transform="translate(75 0)"/>
      </g>
     </g>
    </g>
    <g id="ytick_6">
     <g id="line2d_21">
      <path d="M 356.464687 178.5875 
L 713.584687 178.5875 
" clip-path="url(#pfe1184f750)" style="fill: none; stroke: #b0b0b0; stroke-opacity: 0.3; stroke-width: 0.8; stroke-linecap: square"/>
     </g>
     <g id="line2d_22">
      <g>
       <use xlink:href="#m48e92dd6f9" x="356.464687" y="178.5875" style="stroke: #000000; stroke-width: 0.8"/>
      </g>
     </g>
     <g id="text_12">
      <!-- 0.5 -->
      <g transform="translate(321.964687 186.225625) scale(0.22 -0.22)">
       <use xlink:href="#TimesNewRomanPSMT-30"/>
       <use xlink:href="#TimesNewRomanPSMT-2e" transform="translate(50 0)"/>
       <use xlink:href="#TimesNewRomanPSMT-35" transform="translate(75 0)"/>
      </g>
     </g>
    </g>
    <g id="ytick_7">
     <g id="line2d_23">
      <path d="M 356.464687 151.9763 
L 713.584687 151.9763 
" clip-path="url(#pfe1184f750)" style="fill: none; stroke: #b0b0b0; stroke-opacity: 0.3; stroke-width: 0.8; stroke-linecap: square"/>
     </g>
     <g id="line2d_24">
      <g>
       <use xlink:href="#m48e92dd6f9" x="356.464687" y="151.9763" style="stroke: #000000; stroke-width: 0.8"/>
      </g>
     </g>
     <g id="text_13">
      <!-- 0.6 -->
      <g transform="translate(321.964687 159.614425) scale(0.22 -0.22)">
       <defs>
        <path id="TimesNewRomanPSMT-36" d="M 2869 4325 
L 2869 4209 
Q 2456 4169 2195 4045 
Q 1934 3922 1679 3669 
Q 1425 3416 1258 3105 
Q 1091 2794 978 2366 
Q 1428 2675 1881 2675 
Q 2316 2675 2634 2325 
Q 2953 1975 2953 1425 
Q 2953 894 2631 456 
Q 2244 -75 1606 -75 
Q 1172 -75 869 213 
Q 275 772 275 1663 
Q 275 2231 503 2743 
Q 731 3256 1154 3653 
Q 1578 4050 1965 4187 
Q 2353 4325 2688 4325 
L 2869 4325 
z
M 925 2138 
Q 869 1716 869 1456 
Q 869 1156 980 804 
Q 1091 453 1309 247 
Q 1469 100 1697 100 
Q 1969 100 2183 356 
Q 2397 613 2397 1088 
Q 2397 1622 2184 2012 
Q 1972 2403 1581 2403 
Q 1463 2403 1327 2353 
Q 1191 2303 925 2138 
z
" transform="scale(0.015625)"/>
       </defs>
       <use xlink:href="#TimesNewRomanPSMT-30"/>
       <use xlink:href="#TimesNewRomanPSMT-2e" transform="translate(50 0)"/>
       <use xlink:href="#TimesNewRomanPSMT-36" transform="translate(75 0)"/>
      </g>
     </g>
    </g>
    <g id="ytick_8">
     <g id="line2d_25">
      <path d="M 356.464687 125.3651 
L 713.584687 125.3651 
" clip-path="url(#pfe1184f750)" style="fill: none; stroke: #b0b0b0; stroke-opacity: 0.3; stroke-width: 0.8; stroke-linecap: square"/>
     </g>
     <g id="line2d_26">
      <g>
       <use xlink:href="#m48e92dd6f9" x="356.464687" y="125.3651" style="stroke: #000000; stroke-width: 0.8"/>
      </g>
     </g>
     <g id="text_14">
      <!-- 0.7 -->
      <g transform="translate(321.964687 133.003225) scale(0.22 -0.22)">
       <use xlink:href="#TimesNewRomanPSMT-30"/>
       <use xlink:href="#TimesNewRomanPSMT-2e" transform="translate(50 0)"/>
       <use xlink:href="#TimesNewRomanPSMT-37" transform="translate(75 0)"/>
      </g>
     </g>
    </g>
    <g id="ytick_9">
     <g id="line2d_27">
      <path d="M 356.464687 98.7539 
L 713.584687 98.7539 
" clip-path="url(#pfe1184f750)" style="fill: none; stroke: #b0b0b0; stroke-opacity: 0.3; stroke-width: 0.8; stroke-linecap: square"/>
     </g>
     <g id="line2d_28">
      <g>
       <use xlink:href="#m48e92dd6f9" x="356.464687" y="98.7539" style="stroke: #000000; stroke-width: 0.8"/>
      </g>
     </g>
     <g id="text_15">
      <!-- 0.8 -->
      <g transform="translate(321.964687 106.392025) scale(0.22 -0.22)">
       <defs>
        <path id="TimesNewRomanPSMT-38" d="M 1228 2134 
Q 725 2547 579 2797 
Q 434 3047 434 3316 
Q 434 3728 753 4026 
Q 1072 4325 1600 4325 
Q 2113 4325 2425 4047 
Q 2738 3769 2738 3413 
Q 2738 3175 2569 2928 
Q 2400 2681 1866 2347 
Q 2416 1922 2594 1678 
Q 2831 1359 2831 1006 
Q 2831 559 2490 242 
Q 2150 -75 1597 -75 
Q 994 -75 656 303 
Q 388 606 388 966 
Q 388 1247 577 1523 
Q 766 1800 1228 2134 
z
M 1719 2469 
Q 2094 2806 2194 3001 
Q 2294 3197 2294 3444 
Q 2294 3772 2109 3958 
Q 1925 4144 1606 4144 
Q 1288 4144 1088 3959 
Q 888 3775 888 3528 
Q 888 3366 970 3203 
Q 1053 3041 1206 2894 
L 1719 2469 
z
M 1375 2016 
Q 1116 1797 991 1539 
Q 866 1281 866 981 
Q 866 578 1086 336 
Q 1306 94 1647 94 
Q 1984 94 2187 284 
Q 2391 475 2391 747 
Q 2391 972 2272 1150 
Q 2050 1481 1375 2016 
z
" transform="scale(0.015625)"/>
       </defs>
       <use xlink:href="#TimesNewRomanPSMT-30"/>
       <use xlink:href="#TimesNewRomanPSMT-2e" transform="translate(50 0)"/>
       <use xlink:href="#TimesNewRomanPSMT-38" transform="translate(75 0)"/>
      </g>
     </g>
    </g>
    <g id="ytick_10">
     <g id="line2d_29">
      <path d="M 356.464687 72.1427 
L 713.584687 72.1427 
" clip-path="url(#pfe1184f750)" style="fill: none; stroke: #b0b0b0; stroke-opacity: 0.3; stroke-width: 0.8; stroke-linecap: square"/>
     </g>
     <g id="line2d_30">
      <g>
       <use xlink:href="#m48e92dd6f9" x="356.464687" y="72.1427" style="stroke: #000000; stroke-width: 0.8"/>
      </g>
     </g>
     <g id="text_16">
      <!-- 0.9 -->
      <g transform="translate(321.964687 79.780825) scale(0.22 -0.22)">
       <defs>
        <path id="TimesNewRomanPSMT-39" d="M 338 -88 
L 338 28 
Q 744 34 1094 217 
Q 1444 400 1770 856 
Q 2097 1313 2225 1859 
Q 1734 1544 1338 1544 
Q 891 1544 572 1889 
Q 253 2234 253 2806 
Q 253 3363 572 3797 
Q 956 4325 1575 4325 
Q 2097 4325 2469 3894 
Q 2925 3359 2925 2575 
Q 2925 1869 2578 1258 
Q 2231 647 1613 244 
Q 1109 -88 516 -88 
L 338 -88 
z
M 2275 2091 
Q 2331 2497 2331 2741 
Q 2331 3044 2228 3395 
Q 2125 3747 1936 3934 
Q 1747 4122 1506 4122 
Q 1228 4122 1018 3872 
Q 809 3622 809 3128 
Q 809 2469 1088 2097 
Q 1291 1828 1588 1828 
Q 1731 1828 1928 1897 
Q 2125 1966 2275 2091 
z
" transform="scale(0.015625)"/>
       </defs>
       <use xlink:href="#TimesNewRomanPSMT-30"/>
       <use xlink:href="#TimesNewRomanPSMT-2e" transform="translate(50 0)"/>
       <use xlink:href="#TimesNewRomanPSMT-39" transform="translate(75 0)"/>
      </g>
     </g>
    </g>
    <g id="ytick_11">
     <g id="line2d_31">
      <path d="M 356.464687 45.5315 
L 713.584687 45.5315 
" clip-path="url(#pfe1184f750)" style="fill: none; stroke: #b0b0b0; stroke-opacity: 0.3; stroke-width: 0.8; stroke-linecap: square"/>
     </g>
     <g id="line2d_32">
      <g>
       <use xlink:href="#m48e92dd6f9" x="356.464687" y="45.5315" style="stroke: #000000; stroke-width: 0.8"/>
      </g>
     </g>
     <g id="text_17">
      <!-- 1.0 -->
      <g transform="translate(321.964687 53.169625) scale(0.22 -0.22)">
       <use xlink:href="#TimesNewRomanPSMT-31"/>
       <use xlink:href="#TimesNewRomanPSMT-2e" transform="translate(50 0)"/>
       <use xlink:href="#TimesNewRomanPSMT-30" transform="translate(75 0)"/>
      </g>
     </g>
    </g>
    <g id="text_18">
     <!-- Accuracy -->
     <g transform="translate(313.2175 220.726094) rotate(-90) scale(0.22 -0.22)">
      <defs>
       <path id="TimesNewRomanPSMT-41" d="M 2928 1419 
L 1288 1419 
L 1000 750 
Q 894 503 894 381 
Q 894 284 986 211 
Q 1078 138 1384 116 
L 1384 0 
L 50 0 
L 50 116 
Q 316 163 394 238 
Q 553 388 747 847 
L 2238 4334 
L 2347 4334 
L 3822 809 
Q 4000 384 4145 257 
Q 4291 131 4550 116 
L 4550 0 
L 2878 0 
L 2878 116 
Q 3131 128 3220 200 
Q 3309 272 3309 375 
Q 3309 513 3184 809 
L 2928 1419 
z
M 2841 1650 
L 2122 3363 
L 1384 1650 
L 2841 1650 
z
" transform="scale(0.015625)"/>
       <path id="TimesNewRomanPSMT-63" d="M 2631 1088 
Q 2516 522 2178 217 
Q 1841 -88 1431 -88 
Q 944 -88 581 321 
Q 219 731 219 1428 
Q 219 2103 620 2525 
Q 1022 2947 1584 2947 
Q 2006 2947 2278 2723 
Q 2550 2500 2550 2259 
Q 2550 2141 2473 2067 
Q 2397 1994 2259 1994 
Q 2075 1994 1981 2113 
Q 1928 2178 1911 2362 
Q 1894 2547 1784 2644 
Q 1675 2738 1481 2738 
Q 1169 2738 978 2506 
Q 725 2200 725 1697 
Q 725 1184 976 792 
Q 1228 400 1656 400 
Q 1963 400 2206 609 
Q 2378 753 2541 1131 
L 2631 1088 
z
" transform="scale(0.015625)"/>
       <path id="TimesNewRomanPSMT-79" d="M 38 2863 
L 1372 2863 
L 1372 2747 
L 1306 2747 
Q 1166 2747 1095 2686 
Q 1025 2625 1025 2534 
Q 1025 2413 1128 2197 
L 1825 753 
L 2466 2334 
Q 2519 2463 2519 2588 
Q 2519 2644 2497 2672 
Q 2472 2706 2419 2726 
Q 2366 2747 2231 2747 
L 2231 2863 
L 3163 2863 
L 3163 2747 
Q 3047 2734 2984 2696 
Q 2922 2659 2847 2556 
Q 2819 2513 2741 2316 
L 1575 -541 
Q 1406 -956 1132 -1168 
Q 859 -1381 606 -1381 
Q 422 -1381 303 -1275 
Q 184 -1169 184 -1031 
Q 184 -900 270 -820 
Q 356 -741 506 -741 
Q 609 -741 788 -809 
Q 913 -856 944 -856 
Q 1038 -856 1148 -759 
Q 1259 -663 1372 -384 
L 1575 113 
L 547 2272 
Q 500 2369 397 2513 
Q 319 2622 269 2659 
Q 197 2709 38 2747 
L 38 2863 
z
" transform="scale(0.015625)"/>
      </defs>
      <use xlink:href="#TimesNewRomanPSMT-41"/>
      <use xlink:href="#TimesNewRomanPSMT-63" transform="translate(72.216797 0)"/>
      <use xlink:href="#TimesNewRomanPSMT-63" transform="translate(116.601562 0)"/>
      <use xlink:href="#TimesNewRomanPSMT-75" transform="translate(160.986328 0)"/>
      <use xlink:href="#TimesNewRomanPSMT-72" transform="translate(210.986328 0)"/>
      <use xlink:href="#TimesNewRomanPSMT-61" transform="translate(244.287109 0)"/>
      <use xlink:href="#TimesNewRomanPSMT-63" transform="translate(288.671875 0)"/>
      <use xlink:href="#TimesNewRomanPSMT-79" transform="translate(333.056641 0)"/>
     </g>
    </g>
   </g>
   <g id="line2d_33">
    <path d="M 356.464687 189.409389 
L 356.583737 109.9306 
L 356.911125 89.898288 
L 357.178987 86.882349 
L 357.238512 86.069224 
L 357.298037 86.157922 
L 357.327799 88.966884 
L 357.387324 85.300464 
L 357.417087 85.965744 
L 357.476612 85.123053 
L 357.506374 84.797797 
L 357.536137 85.87703 
L 357.595662 85.670053 
L 357.625424 84.783014 
L 357.714712 85.019557 
L 357.744474 84.945642 
L 357.774237 85.241317 
L 357.803999 84.442991 
L 357.833762 85.019557 
L 357.863524 84.221231 
L 357.923049 85.2561 
L 357.952812 84.531689 
L 358.042099 85.77355 
L 358.071861 85.315247 
L 358.101624 84.472557 
L 358.131386 85.581356 
L 358.161149 84.753448 
L 358.250436 84.59082 
L 358.309961 86.527527 
L 358.458774 84.59082 
L 358.488536 84.635185 
L 358.518299 84.088169 
L 358.577824 84.901294 
L 358.667111 88.020714 
L 358.696874 86.261418 
L 358.845686 84.280363 
L 359.054023 85.47786 
L 359.173073 84.7091 
L 359.202836 85.2561 
L 359.292123 85.049123 
L 359.321886 85.300464 
L 359.351648 85.123053 
L 359.440936 84.531689 
L 359.470698 84.916077 
L 359.50046 84.856945 
L 359.589748 84.561255 
L 359.61951 85.847464 
L 359.679035 84.738666 
L 359.768323 84.856945 
L 359.827848 85.285666 
L 359.85761 84.916077 
L 359.887373 84.783014 
L 359.917135 85.315247 
L 359.97666 84.649968 
L 360.006423 85.182185 
L 360.065948 85.403945 
L 360.125473 85.610922 
L 360.184998 84.901294 
L 360.21476 85.47786 
L 360.304047 85.167402 
L 360.33381 85.152619 
L 360.363572 85.492642 
L 360.423097 85.078705 
L 360.45286 84.546472 
L 360.482622 86.453612 
L 360.542147 84.916077 
L 360.601672 85.182185 
L 360.631435 86.069224 
L 360.69096 85.167402 
L 360.750485 85.803116 
L 360.780247 84.679534 
L 360.869535 85.137836 
L 360.899297 85.004774 
L 361.018347 86.32055 
L 361.137397 85.078705 
L 361.286209 86.350116 
L 361.315972 84.916077 
L 361.405259 85.965744 
L 361.435022 85.196968 
L 361.464784 86.010093 
L 361.524309 85.492642 
L 361.554072 86.483178 
L 361.613597 85.891813 
L 361.643359 84.753448 
L 361.702884 85.581356 
L 361.762409 85.285666 
L 361.792171 85.817899 
L 361.821934 84.975208 
L 361.911221 85.55179 
L 361.940984 85.522224 
L 362.000509 85.684836 
L 362.060034 85.123053 
L 362.089796 85.99531 
L 362.179084 85.862247 
L 362.268371 85.47786 
L 362.298134 85.950961 
L 362.327896 85.093488 
L 362.387421 85.832682 
L 362.417184 85.847464 
L 362.476709 85.950961 
L 362.536233 85.196968 
L 362.714808 86.113573 
L 362.804096 85.374379 
L 362.774333 86.128356 
L 362.833858 85.55179 
L 362.863621 86.350116 
L 362.893383 85.522224 
L 362.923146 86.010093 
L 362.952908 85.167402 
L 362.982671 86.557093 
L 363.042196 85.655271 
L 363.071958 85.433511 
L 363.101721 86.350116 
L 363.161246 85.625705 
L 363.220771 85.374379 
L 363.250533 85.803116 
L 363.280295 85.344813 
L 363.33982 85.699619 
L 363.429108 85.610922 
L 363.488633 86.113573 
L 363.518395 85.99531 
L 363.57792 85.522224 
L 363.607683 86.024875 
L 363.637445 86.039658 
L 363.667208 86.571876 
L 363.726733 85.670053 
L 363.786258 85.492642 
L 363.81602 85.77355 
L 363.93507 86.09879 
L 363.964833 85.581356 
L 364.05412 85.596139 
L 364.17317 85.950961 
L 364.232695 85.670053 
L 364.262457 86.113573 
L 364.321982 85.640488 
L 364.470795 85.433511 
L 364.589845 86.069224 
L 364.619607 85.55179 
L 364.708895 85.625705 
L 364.798182 86.527527 
L 364.827944 86.231852 
L 364.857707 85.566573 
L 364.946994 85.803116 
L 365.036282 85.684836 
L 365.095807 86.113573 
L 365.185094 85.581356 
L 365.244619 86.172721 
L 365.274382 85.77355 
L 365.333907 85.803116 
L 365.363669 85.537007 
L 365.393432 85.862247 
L 365.482719 85.788333 
L 365.542244 85.758767 
L 365.572006 86.054441 
L 365.691056 85.300464 
L 365.839869 85.980527 
L 365.899394 86.32055 
L 365.958919 86.024875 
L 365.988681 86.069224 
L 366.018444 85.87703 
L 366.048206 86.172721 
L 366.107731 85.980527 
L 366.137494 86.054441 
L 366.167256 85.936162 
L 366.226781 86.128356 
L 366.256543 85.699619 
L 366.316068 85.684836 
L 366.405356 86.305767 
L 366.435118 85.847464 
L 366.524406 86.143139 
L 366.583931 85.714402 
L 366.673218 85.817899 
L 366.911318 85.980527 
L 367.030368 85.832682 
L 367.089893 85.803116 
L 367.149418 86.069224 
L 367.327993 85.670053 
L 367.41728 85.581356 
L 367.476805 85.950961 
L 367.625618 86.217069 
L 367.65538 85.832682 
L 367.744667 85.921379 
L 367.804192 85.743984 
L 367.833955 86.069224 
L 367.923242 85.847464 
L 367.953005 85.817899 
L 367.982767 86.172721 
L 368.01253 85.655271 
L 368.042292 85.743984 
L 368.25063 86.32055 
L 368.310155 85.743984 
L 368.36968 85.950961 
L 368.458967 86.157922 
L 368.429205 85.862247 
L 368.48873 86.054441 
L 368.607779 85.803116 
L 368.637542 86.202286 
L 368.697067 85.743984 
L 368.845879 86.054441 
L 368.935167 85.891813 
L 368.964929 85.921379 
L 368.994692 86.128356 
L 369.024454 86.09879 
L 369.054217 85.625705 
L 369.113742 86.261418 
L 369.143504 85.921379 
L 369.173267 85.847464 
L 369.232792 86.172721 
L 369.262554 85.743984 
L 369.500654 86.231852 
L 369.619704 85.522224 
L 369.738754 86.202286 
L 369.887566 85.936162 
L 369.917329 86.143139 
L 369.976854 85.906596 
L 370.006616 86.039658 
L 370.036378 86.054441 
L 370.066141 85.950961 
L 370.185191 85.803116 
L 370.125666 86.024875 
L 370.244716 85.891813 
L 370.274478 85.906596 
L 370.304241 86.172721 
L 370.334003 85.891813 
L 370.363766 86.039658 
L 370.453053 85.862247 
L 370.512578 86.39448 
L 370.572103 85.965744 
L 370.601866 85.980527 
L 370.661391 85.847464 
L 370.691153 85.936162 
L 370.720916 86.261418 
L 370.750678 85.891813 
L 370.810203 86.039658 
L 370.839965 86.290984 
L 370.869728 86.09879 
L 370.89949 85.625705 
L 370.959015 85.980527 
L 371.197115 86.010093 
L 371.25664 85.743984 
L 371.286403 86.113573 
L 371.316165 85.87703 
L 371.345928 86.276201 
L 371.37569 85.758767 
L 371.405453 85.921379 
L 371.435215 85.729201 
L 371.464978 85.936162 
L 371.524502 85.788333 
L 371.61379 85.714402 
L 371.643552 86.039658 
L 371.673315 85.87703 
L 371.703077 86.054441 
L 371.762602 85.906596 
L 371.822127 86.054441 
L 371.85189 86.157922 
L 371.941177 85.729201 
L 371.911415 86.187504 
L 371.97094 85.965744 
L 372.030465 85.817899 
L 372.060227 86.305767 
L 372.179277 85.743984 
L 372.268564 86.305767 
L 372.328089 103.47 
L 372.387614 89.602598 
L 372.417377 91.894126 
L 372.447139 90.607916 
L 372.476902 85.965744 
L 372.566189 86.601457 
L 372.625714 86.350116 
L 372.655477 87.133674 
L 372.774527 85.655271 
L 372.804289 85.817899 
L 373.042389 86.143139 
L 373.101914 86.010093 
L 373.250726 86.601457 
L 373.369776 86.172721 
L 373.429301 86.172721 
L 373.459064 86.350116 
L 373.548351 86.246635 
L 373.607876 86.069224 
L 373.637639 85.950961 
L 373.667401 86.143139 
L 373.697164 86.379682 
L 373.786451 86.231852 
L 373.875738 86.290984 
L 373.965026 86.128356 
L 374.024551 86.497961 
L 374.054313 85.950961 
L 374.262651 86.231852 
L 374.381701 85.921379 
L 374.411463 85.950961 
L 374.441226 86.468395 
L 374.500751 86.069224 
L 374.560275 86.039658 
L 374.6198 86.438829 
L 374.649563 86.069224 
L 374.679325 86.084007 
L 374.828138 86.39448 
L 375.006713 85.965744 
L 375.066238 86.276201 
L 375.155525 86.172721 
L 375.3341 86.069224 
L 375.363862 86.187504 
L 375.393625 85.891813 
L 375.482912 86.010093 
L 375.5722 85.950961 
L 375.542437 86.143139 
L 375.601962 85.965744 
L 375.631725 86.157922 
L 375.69125 86.010093 
L 375.750775 85.950961 
L 375.780537 86.128356 
L 375.869825 86.084007 
L 376.018637 86.113573 
L 376.107924 85.965744 
L 376.137687 86.024875 
L 376.197212 86.084007 
L 376.256737 86.039658 
L 376.286499 86.069224 
L 376.346024 85.99531 
L 376.375787 85.936162 
L 376.405549 86.010093 
L 376.435312 86.217069 
L 376.524599 86.128356 
L 376.643649 85.965744 
L 376.762699 86.143139 
L 376.822224 85.980527 
L 376.881749 86.024875 
L 376.911511 86.187504 
L 376.971036 85.980527 
L 377.060324 85.87703 
L 377.030561 86.084007 
L 377.119849 85.921379 
L 377.149611 86.113573 
L 377.238899 86.09879 
L 377.298424 85.77355 
L 377.328186 85.965744 
L 377.357949 86.157922 
L 377.387711 85.936162 
L 377.417474 86.039658 
L 377.506761 85.891813 
L 377.536523 86.084007 
L 377.596048 86.024875 
L 377.625811 85.832682 
L 377.685336 86.113573 
L 377.834148 85.950961 
L 377.863911 85.965744 
L 378.042486 86.157922 
L 378.102011 85.906596 
L 378.161536 85.936162 
L 378.191298 85.950961 
L 378.221061 86.113573 
L 378.310348 86.039658 
L 378.45916 85.936162 
L 378.69726 86.069224 
L 378.727023 85.950961 
L 378.756785 86.09879 
L 378.786548 86.09879 
L 378.81631 86.231852 
L 378.875835 86.09879 
L 379.024647 85.99531 
L 379.05441 86.172721 
L 379.143697 86.09879 
L 379.232985 86.039658 
L 379.262747 86.09879 
L 379.29251 86.290984 
L 379.322272 86.069224 
L 379.41156 85.921379 
L 379.441322 85.936162 
L 379.471085 86.010093 
L 379.500847 86.39448 
L 379.560372 85.980527 
L 379.679422 85.99531 
L 379.828234 85.862247 
L 379.857997 86.069224 
L 379.917522 85.936162 
L 379.977047 86.054441 
L 380.006809 85.906596 
L 380.036572 86.084007 
L 380.066334 85.817899 
L 380.096097 85.847464 
L 380.215147 85.950961 
L 380.244909 85.891813 
L 380.274672 85.862247 
L 380.304434 85.906596 
L 380.334197 85.980527 
L 380.423484 85.906596 
L 380.453247 85.950961 
L 380.512772 85.862247 
L 380.602059 85.906596 
L 380.631821 86.084007 
L 380.661584 85.758767 
L 380.691346 85.921379 
L 380.721109 85.936162 
L 380.750871 85.803116 
L 380.810396 85.936162 
L 380.840159 85.950961 
L 380.869921 85.817899 
L 380.929446 86.010093 
L 380.988971 85.862247 
L 381.078259 85.921379 
L 381.137784 86.010093 
L 381.256834 85.803116 
L 381.405646 85.936162 
L 381.465171 85.817899 
L 381.494933 85.684836 
L 381.524696 85.862247 
L 381.584221 85.788333 
L 381.703271 85.950961 
L 381.733033 85.906596 
L 381.881846 85.788333 
L 381.971133 85.950961 
L 382.000896 85.891813 
L 382.030658 85.87703 
L 382.06042 86.054441 
L 382.119945 85.965744 
L 382.209233 85.862247 
L 382.238995 85.965744 
L 382.328283 85.936162 
L 382.387808 85.906596 
L 382.447333 85.832682 
L 382.477095 85.936162 
L 382.596145 85.921379 
L 382.685433 85.743984 
L 382.715195 85.950961 
L 382.744958 85.729201 
L 382.804482 85.832682 
L 382.834245 85.714402 
L 382.89377 85.77355 
L 382.923532 85.862247 
L 382.953295 85.743984 
L 382.983057 85.832682 
L 383.102107 85.758767 
L 383.191395 85.906596 
L 383.221157 85.758767 
L 383.280682 85.847464 
L 383.340207 85.936162 
L 383.36997 85.758767 
L 383.399732 85.965744 
L 383.459257 85.862247 
L 383.48902 85.891813 
L 383.518782 85.817899 
L 383.637832 85.729201 
L 383.786644 85.950961 
L 383.875932 85.788333 
L 383.905694 85.906596 
L 384.114032 85.655271 
L 384.173557 85.758767 
L 384.203319 85.788333 
L 384.233082 85.655271 
L 384.322369 85.758767 
L 384.352131 85.891813 
L 384.381894 85.743984 
L 384.411656 85.832682 
L 384.530706 85.699619 
L 384.649756 85.891813 
L 384.679519 85.862247 
L 384.709281 85.891813 
L 384.739044 85.788333 
L 384.887856 85.684836 
L 384.947381 86.010093 
L 384.977144 107.890413 
L 385.066431 92.958576 
L 385.215243 86.217069 
L 385.274768 85.803116 
L 385.364056 87.473698 
L 385.393818 85.832682 
L 385.483106 86.690155 
L 385.512868 86.808418 
L 385.572393 86.290984 
L 385.631918 86.497961 
L 385.810493 86.32055 
L 385.840255 86.364899 
L 385.870018 86.187504 
L 385.89978 86.453612 
L 385.959305 86.32055 
L 385.989068 86.202286 
L 386.048593 86.261418 
L 386.108118 86.217069 
L 386.13788 86.350116 
L 386.197405 86.409263 
L 386.227168 86.157922 
L 386.346218 86.350116 
L 386.61408 86.143139 
L 386.673605 86.39448 
L 386.73313 86.335333 
L 386.881942 86.172721 
L 387.239092 86.143139 
L 387.268855 86.335333 
L 387.358142 86.187504 
L 387.477192 86.172721 
L 387.506954 86.113573 
L 387.536717 86.231852 
L 387.566479 86.276201 
L 387.596242 86.157922 
L 387.626004 86.217069 
L 387.715292 86.143139 
L 387.745054 86.172721 
L 387.804579 86.32055 
L 387.834342 86.084007 
L 387.864104 86.335333 
L 387.923629 86.217069 
L 387.953392 86.350116 
L 388.042679 86.276201 
L 388.072441 86.231852 
L 388.102204 86.290984 
L 388.191491 86.246635 
L 388.221254 86.364899 
L 388.251016 86.246635 
L 388.310541 86.364899 
L 388.518879 86.276201 
L 388.548641 86.364899 
L 388.578404 86.39448 
L 388.637929 86.409263 
L 388.697454 86.246635 
L 388.727216 86.409263 
L 388.816503 86.335333 
L 388.876028 86.261418 
L 388.965316 86.39448 
L 389.084366 86.187504 
L 389.233178 86.39448 
L 389.322466 86.231852 
L 389.352228 86.246635 
L 389.441516 86.379682 
L 389.471278 86.261418 
L 389.590328 86.305767 
L 389.679615 86.290984 
L 389.709378 86.202286 
L 389.798665 86.246635 
L 389.887953 86.32055 
L 389.97724 86.231852 
L 390.007003 86.276201 
L 390.036765 86.261418 
L 390.066528 86.350116 
L 390.155815 86.379682 
L 390.304627 86.202286 
L 390.45344 86.217069 
L 391.04869 86.217069 
L 391.137977 86.335333 
L 391.167739 86.261418 
L 391.286789 86.290984 
L 391.703464 86.202286 
L 393.846363 86.157922 
L 393.876125 86.335333 
L 393.905888 86.09879 
L 393.93565 86.143139 
L 394.143987 86.187504 
L 394.17375 86.054441 
L 394.263037 86.157922 
L 394.560662 86.09879 
L 394.590425 86.172721 
L 394.64995 86.054441 
L 394.679712 86.113573 
L 395.066624 86.187504 
L 395.096387 86.261418 
L 395.155912 86.157922 
L 395.215437 86.09879 
L 395.245199 86.143139 
L 395.334487 86.202286 
L 395.423774 86.069224 
L 395.453537 86.084007 
L 395.691636 86.128356 
L 395.721399 86.069224 
L 395.780924 86.187504 
L 395.899974 86.128356 
L 395.929736 86.172721 
L 396.048786 86.261418 
L 396.078549 86.217069 
L 396.227361 86.172721 
L 396.316648 86.246635 
L 396.346411 86.187504 
L 396.376173 86.113573 
L 396.465461 86.187504 
L 396.584511 86.157922 
L 396.614273 86.202286 
L 396.644036 86.128356 
L 396.673798 86.054441 
L 396.733323 86.084007 
L 396.763086 86.217069 
L 396.852373 86.157922 
L 397.001186 86.128356 
L 397.030948 86.024875 
L 397.090473 86.113573 
L 397.239285 86.246635 
L 397.269048 86.09879 
L 397.358335 86.172721 
L 397.477385 86.113573 
L 397.507148 86.217069 
L 397.566673 86.143139 
L 397.745248 86.113573 
L 397.834535 86.172721 
L 397.864297 86.128356 
L 398.01311 86.157922 
L 398.042872 86.010093 
L 398.102397 86.187504 
L 398.13216 86.113573 
L 398.221447 86.202286 
L 398.25121 86.172721 
L 399.471471 86.143139 
L 399.501234 86.054441 
L 399.560759 86.187504 
L 399.590521 86.09879 
L 399.769096 86.172721 
L 399.798859 86.084007 
L 399.828621 86.010093 
L 399.888146 86.09879 
L 400.066721 86.113573 
L 400.215533 86.054441 
L 400.275058 86.09879 
L 400.304821 86.157922 
L 400.334583 86.054441 
L 400.364346 85.950961 
L 400.423871 86.09879 
L 401.37627 86.084007 
L 401.406033 85.891813 
L 401.49532 86.010093 
L 401.554845 86.069224 
L 401.584607 85.99531 
L 401.61437 85.891813 
L 401.673895 85.936162 
L 401.73342 86.113573 
L 401.763182 85.980527 
L 401.792945 85.596139 
L 401.822707 86.054441 
L 401.882232 124.670242 
L 401.941757 122.881381 
L 402.20962 112.16298 
L 402.596532 86.172721 
L 402.626294 86.350116 
L 402.656057 88.937319 
L 402.685819 85.670053 
L 402.715582 86.571876 
L 402.804869 89.159078 
L 402.864394 87.813737 
L 402.953682 86.54231 
L 402.983444 87.473698 
L 403.013207 86.852783 
L 403.042969 87.60676 
L 403.102494 86.867566 
L 403.132256 87.118891 
L 403.162019 86.897132 
L 403.191781 86.61624 
L 403.221544 86.911915 
L 403.251306 86.867566 
L 403.281069 86.882349 
L 403.310831 86.364899 
L 403.400119 86.734504 
L 403.519169 86.971046 
L 403.548931 86.882349 
L 403.608456 86.985829 
L 403.727506 86.704938 
L 403.757269 86.911915 
L 403.787031 86.586658 
L 403.816794 86.61624 
L 403.906081 86.882349 
L 403.935843 86.838 
L 403.965606 86.749287 
L 403.995368 86.882349 
L 404.025131 87.178023 
L 404.084656 86.660589 
L 404.144181 86.926698 
L 404.173943 86.719721 
L 404.203706 86.631023 
L 404.233468 86.764069 
L 404.263231 86.867566 
L 404.292993 86.675372 
L 404.322756 86.704938 
L 404.352518 86.734504 
L 404.382281 87.074543 
L 404.412043 86.690155 
L 404.441806 86.823217 
L 404.471568 86.675372 
L 404.531093 86.734504 
L 404.560856 87.044977 
L 404.590618 86.61624 
L 404.62038 86.719721 
L 404.769193 86.704938 
L 404.798955 86.94148 
L 404.888243 86.852783 
L 404.97753 86.882349 
L 405.007293 87.000612 
L 405.037055 86.719721 
L 405.066818 86.61624 
L 405.126343 86.778852 
L 405.275155 86.793635 
L 405.45373 86.94148 
L 405.57278 86.645806 
L 405.721592 86.778852 
L 405.840642 86.823217 
L 405.959692 86.586658 
L 405.989455 86.94148 
L 406.078742 86.764069 
L 406.197792 86.601457 
L 406.257317 86.571876 
L 406.346604 86.808418 
L 406.495417 86.586658 
L 406.614467 86.690155 
L 406.673992 86.557093 
L 406.733517 86.660589 
L 406.763279 86.557093 
L 406.822804 86.631023 
L 406.971616 86.749287 
L 407.001379 86.586658 
L 407.031141 86.764069 
L 407.090666 86.631023 
L 407.179954 86.527527 
L 407.209716 86.571876 
L 407.299004 86.527527 
L 407.328766 86.631023 
L 407.924016 86.734504 
L 407.983541 86.690155 
L 408.043066 86.571876 
L 408.072828 86.645806 
L 408.132353 86.586658 
L 408.191878 86.734504 
L 408.281166 86.512744 
L 408.310928 86.61624 
L 408.45974 86.645806 
L 408.489503 86.734504 
L 408.519265 86.61624 
L 408.549028 86.645806 
L 408.608553 86.557093 
L 408.668078 86.660589 
L 408.69784 86.764069 
L 408.727603 86.61624 
L 408.757365 86.675372 
L 408.787128 86.453612 
L 408.876415 86.54231 
L 409.025228 86.571876 
L 409.05499 86.512744 
L 409.084753 86.675372 
L 409.114515 86.601457 
L 409.17404 86.852783 
L 409.203802 86.704938 
L 409.233565 86.557093 
L 409.29309 86.749287 
L 409.441902 86.631023 
L 409.501427 86.719721 
L 409.560952 86.660589 
L 409.590715 86.719721 
L 409.65024 86.660589 
L 409.76929 86.660589 
L 409.799052 86.764069 
L 409.888339 86.734504 
L 410.037152 86.675372 
L 410.185964 86.704938 
L 410.215727 86.61624 
L 410.305014 86.690155 
L 410.543114 86.61624 
L 410.721689 86.764069 
L 410.930026 86.690155 
L 410.959789 86.808418 
L 411.019314 86.734504 
L 411.049076 86.631023 
L 411.108601 86.719721 
L 411.138364 86.793635 
L 411.197889 86.764069 
L 411.257414 86.867566 
L 411.316939 86.631023 
L 411.555038 86.852783 
L 411.584801 86.778852 
L 411.614563 86.690155 
L 411.703851 86.749287 
L 412.5372 86.749287 
L 412.566963 86.571876 
L 412.65625 86.690155 
L 412.686013 86.61624 
L 412.745538 86.764069 
L 412.7753 86.690155 
L 412.864587 86.675372 
L 412.89435 86.808418 
L 412.953875 86.793635 
L 413.0134 86.645806 
L 413.072925 86.764069 
L 413.191975 86.675372 
L 413.311025 86.793635 
L 413.519362 86.675372 
L 413.697937 86.838 
L 413.876512 86.660589 
L 413.995562 86.571876 
L 414.084849 86.778852 
L 414.144374 86.764069 
L 414.352712 86.764069 
L 414.382474 86.793635 
L 414.441999 86.704938 
L 414.531286 86.675372 
L 414.561049 86.734504 
L 414.620574 86.61624 
L 414.858674 86.793635 
L 414.888436 86.704938 
L 414.947961 86.778852 
L 415.067011 86.823217 
L 415.096774 86.645806 
L 415.156298 86.808418 
L 415.186061 86.793635 
L 415.215823 86.645806 
L 415.275348 86.778852 
L 415.394398 86.793635 
L 415.424161 86.690155 
L 415.453923 86.823217 
L 415.513448 86.778852 
L 415.662261 86.793635 
L 415.751548 86.852783 
L 415.781311 86.675372 
L 415.811073 86.675372 
L 415.840836 86.838 
L 415.930123 86.734504 
L 415.989648 86.764069 
L 416.049173 86.734504 
L 416.13846 86.897132 
L 416.25751 86.690155 
L 416.287273 86.704938 
L 416.465848 86.793635 
L 416.61466 86.764069 
L 416.644422 86.838 
L 416.703947 86.808418 
L 416.73371 86.631023 
L 416.822997 86.749287 
L 416.882522 86.571876 
L 416.942047 86.704938 
L 416.97181 86.719721 
L 417.001572 86.512744 
L 417.031335 86.764069 
L 417.061097 86.764069 
L 417.09086 86.823217 
L 417.150385 86.719721 
L 417.388484 86.704938 
L 417.448009 86.734504 
L 417.477772 86.601457 
L 417.567059 86.645806 
L 417.656347 86.704938 
L 417.686109 86.571876 
L 417.715872 86.971046 
L 417.775397 86.571876 
L 417.834922 86.734504 
L 417.864684 86.675372 
L 417.924209 86.468395 
L 417.953972 86.719721 
L 418.073022 86.601457 
L 418.132546 86.690155 
L 418.162309 86.734504 
L 418.192071 86.645806 
L 418.221834 86.631023 
L 418.251596 86.527527 
L 418.311121 86.586658 
L 418.489696 86.704938 
L 418.519459 86.645806 
L 418.608746 86.704938 
L 418.668271 86.660589 
L 418.698034 86.571876 
L 418.787321 86.61624 
L 418.817084 86.571876 
L 418.846846 86.749287 
L 418.936133 86.61624 
L 419.055183 86.704938 
L 419.203996 86.645806 
L 419.352808 86.734504 
L 419.382571 86.675372 
L 419.442096 86.734504 
L 419.501621 86.660589 
L 419.561146 86.690155 
L 419.590908 86.793635 
L 419.680195 86.719721 
L 420.81117 86.675372 
L 420.840932 86.586658 
L 420.870695 86.749287 
L 420.93022 86.645806 
L 420.989745 86.704938 
L 421.019507 86.675372 
L 421.108795 86.61624 
L 421.257607 86.749287 
L 421.376657 86.61624 
L 421.406419 86.631023 
L 421.436182 86.690155 
L 421.495707 86.631023 
L 421.555232 86.527527 
L 421.614757 86.631023 
L 421.733807 86.734504 
L 421.882619 86.601457 
L 421.912381 86.571876 
L 421.971906 86.808418 
L 422.001669 86.586658 
L 422.061194 86.468395 
L 422.090956 86.61624 
L 422.239769 86.61624 
L 422.269531 86.497961 
L 422.358819 86.571876 
L 422.507631 86.675372 
L 422.567156 86.586658 
L 422.626681 86.631023 
L 423.013593 86.527527 
L 423.132643 86.660589 
L 423.162406 86.557093 
L 423.192168 86.690155 
L 423.221931 86.586658 
L 423.251693 86.719721 
L 423.311218 86.61624 
L 423.370743 86.586658 
L 423.400505 95.604911 
L 423.46003 87.843303 
L 423.489793 88.301605 
L 423.519555 86.852783 
L 423.549318 90.031335 
L 423.57908 89.099947 
L 423.608843 91.46539 
L 423.668368 87.532845 
L 423.69813 88.065062 
L 423.81718 86.246635 
L 423.846943 87.030178 
L 423.93623 86.54231 
L 423.965993 86.852783 
L 424.05528 86.704938 
L 424.17433 86.897132 
L 424.263617 86.61624 
L 424.29338 86.749287 
L 424.323142 86.704938 
L 424.352905 86.867566 
L 424.41243 86.704938 
L 424.442192 86.675372 
L 424.471955 86.823217 
L 424.53148 86.660589 
L 424.858867 86.704938 
L 424.948154 86.557093 
L 424.977917 86.631023 
L 425.156492 86.660589 
L 425.364829 86.631023 
L 425.573167 86.808418 
L 425.632692 86.645806 
L 425.692216 86.734504 
L 425.870791 86.808418 
L 425.900554 86.823217 
L 426.019604 86.690155 
L 426.346991 86.586658 
L 426.466041 86.631023 
L 426.704141 86.631023 
L 426.733903 86.571876 
L 426.793428 86.690155 
L 426.972003 86.571876 
L 427.031528 86.690155 
L 427.091053 86.645806 
L 427.269628 86.586658 
L 427.29939 86.704938 
L 427.388678 86.631023 
L 427.716065 86.497961 
L 427.745828 86.571876 
L 428.727989 86.645806 
L 428.757752 86.690155 
L 428.787514 86.424046 
L 428.847039 86.468395 
L 428.906564 86.424046 
L 428.966089 86.675372 
L 429.025614 86.424046 
L 429.085139 86.571876 
L 429.531576 86.335333 
L 429.561339 86.497961 
L 429.650626 86.409263 
L 429.918489 86.453612 
L 430.037539 86.335333 
L 430.067301 86.364899 
L 430.335163 86.32055 
L 430.364926 86.350116 
L 430.424451 86.276201 
L 430.573263 86.246635 
L 430.632788 86.305767 
L 430.692313 86.246635 
L 430.870888 86.364899 
L 430.90065 86.305767 
L 431.0197 86.261418 
L 431.198275 86.305767 
L 431.287563 86.246635 
L 431.317325 86.172721 
L 431.347088 86.246635 
L 431.37685 86.350116 
L 431.406613 86.172721 
L 431.466138 86.231852 
L 431.525663 86.128356 
L 431.644713 86.246635 
L 431.882812 86.217069 
L 431.912575 86.335333 
L 431.9721 86.172721 
L 432.031625 86.217069 
L 432.061387 86.084007 
L 432.120912 86.261418 
L 432.180437 86.069224 
L 432.269725 86.143139 
L 432.537587 86.202286 
L 432.597112 86.290984 
L 432.686399 86.09879 
L 432.835212 86.217069 
L 432.864974 86.054441 
L 432.954262 86.113573 
L 433.043549 86.202286 
L 433.073312 86.187504 
L 433.162599 86.113573 
L 433.192361 86.217069 
L 433.281649 86.143139 
L 433.370936 86.231852 
L 433.400699 86.187504 
L 433.519749 86.128356 
L 433.579274 86.246635 
L 433.638799 86.128356 
L 433.847136 86.261418 
L 433.995948 86.187504 
L 434.055473 86.261418 
L 434.114998 86.202286 
L 434.263811 86.364899 
L 434.293573 86.261418 
L 434.323336 87.651109 
L 434.353098 94.836135 
L 434.412623 87.518062 
L 434.442386 87.902434 
L 434.531673 86.024875 
L 434.501911 88.360753 
L 434.561436 86.911915 
L 434.710248 86.143139 
L 434.769773 86.586658 
L 434.829298 86.379682 
L 434.85906 86.143139 
L 434.888823 86.424046 
L 434.948348 86.246635 
L 435.275735 86.290984 
L 435.513835 86.261418 
L 435.632885 86.261418 
L 435.781697 86.231852 
L 435.990035 86.172721 
L 436.04956 86.379682 
L 436.079322 86.305767 
L 436.138847 86.054441 
L 436.168609 86.424046 
L 436.257897 86.335333 
L 436.347184 86.202286 
L 436.406709 86.261418 
L 436.525759 86.246635 
L 436.734097 86.231852 
L 436.823384 86.157922 
L 436.853147 86.172721 
L 437.001959 86.246635 
L 437.150771 86.113573 
L 437.329346 86.261418 
L 437.478159 86.231852 
L 437.805546 86.128356 
L 437.924596 86.202286 
L 438.073408 86.113573 
L 438.222221 86.187504 
L 438.281746 86.113573 
L 438.311508 86.143139 
L 438.371033 86.09879 
L 438.430558 86.172721 
L 438.549608 86.157922 
L 438.847233 86.113573 
L 439.115095 86.128356 
L 440.841319 86.217069 
L 440.900844 86.483178 
L 440.930606 86.010093 
L 440.960369 87.104109 
L 440.990131 87.044977 
L 441.019894 86.024875 
L 441.109181 86.246635 
L 441.198469 86.32055 
L 441.347281 85.832682 
L 441.525856 85.832682 
L 441.585381 85.99531 
L 441.615143 85.950961 
L 441.644906 85.847464 
L 441.734193 85.891813 
L 441.942531 85.788333 
L 441.972293 85.743984 
L 442.002056 85.980527 
L 442.091343 85.847464 
L 442.240155 85.77355 
L 442.269918 85.906596 
L 442.359205 85.847464 
L 443.222317 85.87703 
L 443.281842 85.980527 
L 443.311605 85.87703 
L 443.49018 85.891813 
L 443.668755 86.024875 
L 443.847329 85.906596 
L 443.877092 85.862247 
L 443.936617 85.906596 
L 444.115192 86.039658 
L 444.144954 85.99531 
L 444.174717 85.921379 
L 444.234242 86.024875 
L 444.264004 86.084007 
L 444.323529 85.965744 
L 444.472341 86.024875 
L 444.591391 85.87703 
L 444.621154 85.936162 
L 444.650916 86.024875 
L 444.710441 85.980527 
L 444.799729 85.87703 
L 444.859254 85.921379 
L 445.008066 85.921379 
L 445.246166 85.921379 
L 445.543791 85.950961 
L 445.662841 85.87703 
L 445.811653 85.906596 
L 445.841416 85.832682 
L 445.871178 85.921379 
L 445.900941 86.039658 
L 445.990228 85.965744 
L 446.13904 85.891813 
L 446.168803 85.99531 
L 446.228328 85.891813 
L 446.287853 85.862247 
L 446.317615 85.906596 
L 446.37714 85.980527 
L 446.436665 85.921379 
L 446.704527 85.87703 
L 446.764052 86.09879 
L 446.883102 85.950961 
L 447.121202 85.99531 
L 447.32954 85.87703 
L 447.448589 85.99531 
L 447.746214 85.965744 
L 447.924789 86.010093 
L 448.073602 85.921379 
L 448.162889 85.936162 
L 448.192651 85.99531 
L 448.222414 85.891813 
L 448.281939 85.965744 
L 448.341464 85.906596 
L 448.400989 85.99531 
L 448.460514 85.921379 
L 448.579564 85.936162 
L 448.728376 86.054441 
L 448.758139 85.862247 
L 448.847426 85.921379 
L 448.996238 85.936162 
L 449.115288 85.921379 
L 449.293863 85.99531 
L 449.412913 85.891813 
L 449.502201 86.054441 
L 449.531963 85.99531 
L 449.621251 86.024875 
L 449.651013 86.084007 
L 449.710538 85.965744 
L 449.7403 86.010093 
L 449.770063 85.950961 
L 449.799825 85.891813 
L 449.85935 85.965744 
L 449.918875 86.084007 
L 450.008163 85.965744 
L 450.037925 85.936162 
L 450.067688 86.010093 
L 450.246263 86.409263 
L 450.305788 86.350116 
L 450.484362 86.084007 
L 450.603412 86.187504 
L 450.633175 86.143139 
L 450.662937 86.128356 
L 450.6927 86.217069 
L 450.9308 86.231852 
L 451.109375 86.069224 
L 451.198662 86.157922 
L 451.1689 85.99531 
L 451.258187 86.069224 
L 451.496287 85.950961 
L 451.526049 86.143139 
L 451.615337 86.069224 
L 451.704624 85.99531 
L 451.764149 86.039658 
L 451.793912 86.084007 
L 451.823674 86.024875 
L 451.853437 85.950961 
L 451.942724 86.024875 
L 451.972486 85.965744 
L 452.002249 86.113573 
L 452.032011 86.039658 
L 452.180824 86.069224 
L 452.508211 86.157922 
L 452.657024 86.054441 
L 452.984411 86.187504 
L 453.014173 86.113573 
L 453.192748 86.024875 
L 453.222511 86.157922 
L 453.311798 86.09879 
L 453.341561 86.010093 
L 453.401086 86.128356 
L 453.639185 86.069224 
L 453.69871 85.99531 
L 453.758235 86.143139 
L 453.847523 86.054441 
L 453.877285 86.113573 
L 453.966573 85.99531 
L 453.93681 86.172721 
L 454.026098 86.084007 
L 454.145148 86.024875 
L 454.17491 86.084007 
L 454.29396 86.024875 
L 454.472535 86.010093 
L 454.502297 86.09879 
L 454.591585 86.039658 
L 454.621347 86.010093 
L 454.65111 86.157922 
L 454.710635 86.054441 
L 454.740397 85.99531 
L 454.829685 86.054441 
L 454.948735 86.039658 
L 455.008259 85.965744 
L 455.067784 86.054441 
L 455.246359 86.024875 
L 455.305884 86.069224 
L 455.335647 86.039658 
L 455.454697 86.024875 
L 455.633272 86.09879 
L 455.752321 86.054441 
L 455.871371 86.024875 
L 456.883296 86.024875 
L 456.913058 85.891813 
L 456.972583 86.024875 
L 457.091633 86.069224 
L 457.121396 85.936162 
L 457.210683 85.980527 
L 457.240445 86.039658 
L 457.29997 85.965744 
L 457.478545 85.906596 
L 457.508308 86.09879 
L 457.597595 85.965744 
L 457.716645 85.980527 
L 457.835695 85.906596 
L 457.865458 86.039658 
L 457.924983 85.87703 
L 458.103557 86.069224 
L 458.13332 85.936162 
L 458.163082 86.084007 
L 458.222607 85.965744 
L 458.37142 86.039658 
L 458.460707 85.950961 
L 458.49047 85.980527 
L 458.549995 85.921379 
L 458.579757 86.09879 
L 458.669045 86.010093 
L 458.788094 86.039658 
L 458.817857 86.128356 
L 458.847619 85.936162 
L 458.907144 86.054441 
L 458.936907 86.039658 
L 458.966669 85.87703 
L 458.996432 86.084007 
L 459.055957 85.936162 
L 459.175007 86.128356 
L 459.294057 85.965744 
L 459.472631 86.084007 
L 459.502394 85.832682 
L 459.591681 85.965744 
L 459.621444 85.906596 
L 459.651206 86.010093 
L 459.680969 86.143139 
L 459.710731 85.862247 
L 459.740494 85.862247 
L 459.770256 93.402096 
L 459.859544 89.750443 
L 459.948831 86.424046 
L 459.978594 86.660589 
L 460.038119 87.725039 
L 460.097644 86.94148 
L 460.157169 87.05976 
L 460.246456 86.438829 
L 460.276218 87.16324 
L 460.365506 86.823217 
L 460.425031 86.631023 
L 460.484556 86.527527 
L 460.514318 86.897132 
L 460.573843 86.512744 
L 460.841706 86.379682 
L 460.990518 86.409263 
L 461.13933 86.32055 
L 461.37743 86.32055 
L 461.556005 86.32055 
L 461.675055 86.305767 
L 461.794105 86.290984 
L 461.942917 86.305767 
L 462.002442 86.364899 
L 462.032205 86.335333 
L 462.061967 86.276201 
L 462.121492 86.350116 
L 462.21078 86.379682 
L 462.240542 86.335333 
L 462.300067 86.290984 
L 462.32983 86.350116 
L 462.508404 86.335333 
L 462.746504 86.290984 
L 462.835792 86.350116 
L 462.865554 86.261418 
L 462.954842 86.305767 
L 463.133417 86.202286 
L 463.163179 86.246635 
L 464.681066 86.350116 
L 464.800115 86.453612 
L 464.829878 86.335333 
L 464.85964 86.143139 
L 464.889403 86.468395 
L 464.919165 86.364899 
L 465.038215 86.379682 
L 465.306078 86.276201 
L 465.395365 86.202286 
L 465.425128 86.261418 
L 465.45489 86.305767 
L 465.484652 86.261418 
L 465.603702 86.187504 
L 465.69299 86.261418 
L 465.841802 86.143139 
L 465.990615 86.143139 
L 466.258477 86.09879 
L 466.377527 86.128356 
L 466.556102 86.054441 
L 466.883489 85.99531 
L 466.972777 86.069224 
L 467.002539 86.024875 
L 467.121589 85.965744 
L 467.240639 85.980527 
L 467.359689 85.906596 
L 467.389451 86.010093 
L 467.478739 85.936162 
L 467.597789 86.010093 
L 467.746601 85.950961 
L 467.835888 86.010093 
L 467.865651 85.980527 
L 468.014463 85.862247 
L 468.401376 85.965744 
L 468.639475 85.87703 
L 468.9371 85.906596 
L 469.026388 85.891813 
L 469.05615 85.921379 
L 469.621637 85.980527 
L 469.6514 86.039658 
L 469.710925 85.965744 
L 469.829975 85.965744 
L 469.949025 85.980527 
L 470.127599 85.980527 
L 470.246649 85.99531 
L 474.502684 86.09879 
L 474.562209 86.128356 
L 474.591971 86.039658 
L 474.800309 86.054441 
L 478.639669 85.980527 
L 478.728956 86.039658 
L 478.758719 85.862247 
L 478.818244 86.024875 
L 478.848006 85.803116 
L 478.877769 85.965744 
L 478.907531 85.891813 
L 478.996819 85.965744 
L 479.026581 85.965744 
L 479.056343 86.09879 
L 479.086106 85.891813 
L 479.115868 85.936162 
L 479.145631 85.891813 
L 479.205156 85.950961 
L 479.264681 85.936162 
L 479.324206 85.980527 
L 479.383731 85.862247 
L 479.473018 85.817899 
L 479.502781 86.069224 
L 479.592068 85.906596 
L 479.621831 86.084007 
L 479.651593 85.862247 
L 479.711118 86.010093 
L 479.830168 85.891813 
L 479.919455 86.039658 
L 479.949218 85.921379 
L 480.514705 85.950961 
L 480.544467 86.039658 
L 480.603992 85.936162 
L 480.663517 85.862247 
L 480.723042 86.084007 
L 480.782567 85.980527 
L 480.871855 85.758767 
L 480.93138 85.847464 
L 480.961142 86.010093 
L 481.05043 85.936162 
L 481.080192 86.039658 
L 481.109955 85.847464 
L 481.16948 85.99531 
L 481.348054 85.906596 
L 481.467104 86.084007 
L 481.586154 85.980527 
L 481.734967 86.010093 
L 481.764729 85.921379 
L 481.854017 85.965744 
L 481.973067 86.054441 
L 482.121879 85.965744 
L 482.330216 85.862247 
L 482.359979 86.084007 
L 482.449266 86.054441 
L 482.568316 85.891813 
L 482.746891 86.024875 
L 482.865941 85.950961 
L 482.955228 85.99531 
L 482.984991 85.936162 
L 483.104041 85.936162 
L 483.342141 85.906596 
L 483.431428 85.921379 
L 483.520716 85.817899 
L 483.490953 85.980527 
L 483.550478 85.862247 
L 483.758815 85.950961 
L 483.907628 85.862247 
L 483.996915 86.024875 
L 484.05644 85.980527 
L 484.086203 85.906596 
L 484.115965 86.010093 
L 484.145728 85.99531 
L 484.29454 86.010093 
L 484.324302 85.817899 
L 484.41359 85.950961 
L 484.592165 85.936162 
L 484.621927 85.99531 
L 484.681452 85.921379 
L 484.740977 85.862247 
L 484.77074 85.936162 
L 484.830265 85.862247 
L 484.860027 85.906596 
L 485.00884 85.832682 
L 485.157652 85.980527 
L 485.306464 85.965744 
L 486.467201 85.950961 
L 486.496964 85.832682 
L 486.556488 85.921379 
L 486.675538 86.024875 
L 486.794588 85.87703 
L 486.824351 86.024875 
L 486.883876 85.980527 
L 486.973163 85.891813 
L 487.002926 85.980527 
L 487.062451 85.847464 
L 487.151738 85.99531 
L 487.181501 85.965744 
L 487.211263 85.803116 
L 487.30055 85.921379 
L 487.449363 85.847464 
L 487.53865 85.99531 
L 487.568413 85.847464 
L 487.6577 85.965744 
L 487.687463 85.891813 
L 487.746988 85.965744 
L 487.836275 86.010093 
L 487.866038 85.891813 
L 487.925563 85.965744 
L 488.074375 85.980527 
L 488.282712 85.936162 
L 488.312475 85.817899 
L 488.342237 86.069224 
L 488.372 86.054441 
L 488.401762 85.847464 
L 488.49105 85.921379 
L 488.550575 86.084007 
L 488.639862 86.024875 
L 488.758912 85.891813 
L 488.818437 86.202286 
L 488.848199 85.87703 
L 488.877962 85.803116 
L 488.907724 85.950961 
L 488.937487 86.084007 
L 488.967249 85.891813 
L 488.997012 86.054441 
L 489.026774 85.891813 
L 489.086299 85.980527 
L 489.205349 86.054441 
L 489.264874 86.084007 
L 489.354162 85.936162 
L 489.592261 86.039658 
L 489.622024 85.891813 
L 489.711311 85.99531 
L 490.068461 86.039658 
L 490.098224 86.113573 
L 490.127986 85.936162 
L 490.157749 85.906596 
L 490.187511 86.128356 
L 490.247036 85.950961 
L 490.276799 85.921379 
L 490.306561 86.010093 
L 490.336323 86.09879 
L 490.366086 85.87703 
L 490.395848 86.010093 
L 490.485136 85.891813 
L 490.604186 86.187504 
L 490.752998 85.87703 
L 490.782761 86.143139 
L 490.812523 85.832682 
L 490.872048 85.980527 
L 490.901811 85.891813 
L 490.931573 86.187504 
L 491.020861 85.980527 
L 491.169673 85.891813 
L 491.199435 86.217069 
L 491.229198 85.847464 
L 491.288723 85.99531 
L 491.318485 85.980527 
L 491.348248 86.069224 
L 491.37801 85.817899 
L 491.407773 86.113573 
L 491.467298 85.965744 
L 491.61611 86.113573 
L 491.705398 85.832682 
L 491.794685 86.113573 
L 491.824447 85.980527 
L 491.85421 85.965744 
L 491.913735 85.847464 
L 491.943497 86.128356 
L 492.032785 85.87703 
L 492.062547 85.980527 
L 492.181597 86.069224 
L 492.21136 85.921379 
L 492.241122 86.172721 
L 492.270885 85.980527 
L 492.300647 86.113573 
L 492.360172 86.054441 
L 492.44946 86.024875 
L 492.538747 86.09879 
L 492.508985 85.965744 
L 492.568509 86.084007 
L 492.687559 85.965744 
L 492.747084 86.010093 
L 492.955422 86.024875 
L 493.074472 86.069224 
L 493.104234 85.936162 
L 493.133997 86.09879 
L 493.163759 86.024875 
L 493.223284 85.950961 
L 493.253047 86.172721 
L 493.282809 85.980527 
L 493.372096 86.128356 
L 493.401859 86.143139 
L 493.431621 85.921379 
L 493.520909 86.069224 
L 493.610196 85.921379 
L 493.639959 86.010093 
L 493.729246 86.054441 
L 493.759009 86.010093 
L 493.818534 85.862247 
L 493.907821 86.172721 
L 493.937584 86.128356 
L 493.967346 86.157922 
L 494.026871 86.202286 
L 494.086396 85.891813 
L 494.116158 86.128356 
L 494.205446 86.024875 
L 494.235208 86.084007 
L 494.294733 86.024875 
L 494.354258 86.024875 
L 494.384021 86.069224 
L 494.473308 86.010093 
L 494.503071 86.172721 
L 494.622121 85.99531 
L 494.651883 86.054441 
L 494.681646 86.084007 
L 494.711408 85.99531 
L 494.741171 85.950961 
L 494.770933 86.202286 
L 494.86022 86.054441 
L 494.949508 86.202286 
L 494.919745 86.010093 
L 494.97927 86.084007 
L 495.009033 86.054441 
L 495.038795 86.128356 
L 495.068558 86.157922 
L 495.09832 86.054441 
L 495.128083 86.024875 
L 495.247133 86.157922 
L 495.306658 86.024875 
L 495.366183 86.128356 
L 495.45547 86.217069 
L 495.485233 86.187504 
L 495.663807 86.09879 
L 495.723332 86.069224 
L 495.753095 86.261418 
L 495.901907 85.921379 
L 495.93167 86.128356 
L 496.020957 86.113573 
L 496.080482 86.010093 
L 496.110245 86.172721 
L 496.16977 86.202286 
L 496.199532 86.039658 
L 496.229295 86.187504 
L 496.318582 86.09879 
L 496.407869 86.157922 
L 496.437632 85.936162 
L 496.556682 86.172721 
L 496.705494 85.936162 
L 496.765019 86.187504 
L 496.824544 86.172721 
L 496.884069 85.980527 
L 496.913832 86.054441 
L 496.943594 113.744881 
L 497.003119 99.330479 
L 497.122169 86.882349 
L 497.151931 87.577194 
L 497.181694 86.926698 
L 497.211456 88.22769 
L 497.241219 87.192806 
L 497.270981 87.518062 
L 497.360269 86.483178 
L 497.390031 86.586658 
L 497.509081 87.325868 
L 497.806706 86.571876 
L 497.985281 86.601457 
L 498.134093 86.483178 
L 498.282906 86.601457 
L 498.312668 86.660589 
L 498.342431 86.54231 
L 498.521006 86.483178 
L 498.550768 86.557093 
L 499.592455 86.631023 
L 499.711505 86.61624 
L 501.675828 86.690155 
L 501.705591 86.409263 
L 501.765116 86.660589 
L 501.943691 86.660589 
L 502.122266 86.586658 
L 502.271078 86.483178 
L 502.300841 86.557093 
L 502.717515 86.601457 
L 502.747278 86.675372 
L 502.836565 86.601457 
L 510.723622 86.557093 
L 510.842672 86.424046 
L 510.991485 86.557093 
L 511.140297 86.483178 
L 518.01543 86.468395 
L 518.045193 86.32055 
L 518.104718 86.512744 
L 518.13448 86.438829 
L 518.223767 86.54231 
L 518.25353 86.438829 
L 518.342817 86.468395 
L 518.640442 86.512744 
L 518.670205 86.379682 
L 518.759492 86.438829 
L 518.789255 86.497961 
L 518.84878 86.453612 
L 518.997592 86.424046 
L 519.205929 86.468395 
L 519.295217 86.39448 
L 519.324979 86.424046 
L 519.444029 86.438829 
L 519.592842 86.379682 
L 519.711891 86.424046 
L 519.830941 86.39448 
L 519.979754 86.424046 
L 520.158329 86.39448 
L 520.396428 86.379682 
L 520.634528 86.379682 
L 524.057214 86.350116 
L 524.086976 86.246635 
L 524.146501 86.364899 
L 524.354838 86.350116 
L 524.444126 86.32055 
L 524.473888 86.39448 
L 524.563176 86.335333 
L 524.652463 86.246635 
L 524.682226 86.335333 
L 524.711988 86.290984 
L 524.741751 86.453612 
L 524.831038 86.379682 
L 524.920325 86.39448 
L 525.009613 86.32055 
L 525.039375 86.335333 
L 525.069138 86.379682 
L 525.0989 86.290984 
L 525.128663 86.305767 
L 525.277475 86.335333 
L 525.515575 86.364899 
L 525.664387 86.364899 
L 525.69415 86.424046 
L 525.723912 86.305767 
L 525.93225 86.290984 
L 526.110825 86.32055 
L 526.348925 86.32055 
L 526.587024 86.276201 
L 526.646549 86.39448 
L 526.706074 86.290984 
L 526.735837 86.261418 
L 526.765599 86.379682 
L 526.795362 86.335333 
L 526.825124 86.379682 
L 526.854887 86.217069 
L 526.944174 86.246635 
L 527.092987 86.335333 
L 527.331086 86.276201 
L 527.420374 86.453612 
L 527.479899 86.409263 
L 527.569186 86.305767 
L 527.598949 86.350116 
L 529.712085 86.335333 
L 529.741847 86.468395 
L 529.831135 86.409263 
L 530.00971 86.379682 
L 531.438309 86.424046 
L 531.468071 86.497961 
L 531.497834 86.39448 
L 531.527596 86.438829 
L 531.706171 86.364899 
L 532.093083 86.468395 
L 532.122846 86.424046 
L 532.182371 86.468395 
L 532.301421 86.468395 
L 532.42047 86.409263 
L 532.599045 86.438829 
L 532.77762 86.424046 
L 532.866908 86.453612 
L 532.985958 86.379682 
L 533.13477 86.468395 
L 534.831231 86.409263 
L 534.860994 86.335333 
L 534.950281 86.39448 
L 535.128856 86.335333 
L 535.426481 86.379682 
L 535.605056 86.409263 
L 535.634818 86.497961 
L 535.724106 86.424046 
L 535.902681 86.39448 
L 535.991968 86.305767 
L 536.021731 86.483178 
L 536.111018 86.424046 
L 536.557455 86.483178 
L 536.587218 86.54231 
L 536.646743 86.424046 
L 536.676505 86.305767 
L 536.73603 86.438829 
L 536.795555 86.379682 
L 536.825318 86.497961 
L 536.85508 86.39448 
L 536.914605 86.483178 
L 537.033655 86.497961 
L 537.182467 86.453612 
L 537.301517 86.54231 
L 537.390805 86.409263 
L 537.420567 86.54231 
L 537.480092 86.468395 
L 537.539617 86.512744 
L 537.599142 86.557093 
L 537.628905 86.512744 
L 537.747954 86.468395 
L 537.867004 86.54231 
L 537.986054 86.512744 
L 538.105104 86.39448 
L 538.224154 86.527527 
L 538.372967 86.453612 
L 538.462254 86.527527 
L 538.492016 86.497961 
L 539.117029 86.527527 
L 539.146791 86.379682 
L 539.236078 86.468395 
L 539.265841 86.379682 
L 539.325366 86.424046 
L 539.355128 86.497961 
L 539.414653 86.453612 
L 539.444416 86.364899 
L 539.503941 86.468395 
L 539.801566 86.586658 
L 539.890853 86.39448 
L 539.920615 86.468395 
L 540.09919 86.468395 
L 540.248003 86.453612 
L 540.307528 86.39448 
L 540.367053 86.468395 
L 540.545628 86.483178 
L 540.57539 86.438829 
L 540.605153 86.468395 
L 540.634915 86.557093 
L 540.69444 86.409263 
L 540.724202 86.483178 
L 540.81349 86.468395 
L 540.843252 86.557093 
L 540.873015 86.39448 
L 540.93254 86.497961 
L 541.05159 86.438829 
L 541.17064 86.497961 
L 541.259927 86.527527 
L 541.28969 86.483178 
L 541.319452 86.424046 
L 541.378977 86.483178 
L 541.438502 86.557093 
L 541.468264 86.468395 
L 541.557552 86.468395 
L 541.646839 86.483178 
L 541.676602 86.364899 
L 541.736127 86.424046 
L 541.855177 86.497961 
L 542.093277 86.468395 
L 542.182564 86.527527 
L 542.242089 86.438829 
L 542.301614 86.497961 
L 542.331376 86.453612 
L 542.390901 86.54231 
L 542.718289 86.483178 
L 543.105201 86.586658 
L 543.283776 86.483178 
L 543.432588 86.586658 
L 543.462351 86.468395 
L 543.551638 86.512744 
L 543.759975 86.631023 
L 543.908788 86.512744 
L 543.968313 86.631023 
L 544.027838 86.54231 
L 544.0576 86.557093 
L 544.087363 86.483178 
L 544.117125 86.453612 
L 544.146888 86.512744 
L 544.206413 86.453612 
L 544.265938 86.586658 
L 544.384988 86.54231 
L 544.563562 86.586658 
L 544.712375 86.586658 
L 544.742137 86.571876 
L 544.7719 86.704938 
L 544.831425 86.660589 
L 544.861187 86.557093 
L 544.950475 86.61624 
L 545.069525 86.586658 
L 545.12905 86.660589 
L 545.188574 86.601457 
L 546.349311 86.660589 
L 546.379074 86.719721 
L 546.408836 86.675372 
L 546.438599 86.586658 
L 546.498124 86.690155 
L 547.242186 86.586658 
L 547.271948 86.557093 
L 547.301711 86.61624 
L 547.390998 86.660589 
L 547.510048 86.61624 
L 549.117222 86.675372 
L 549.206509 86.734504 
L 549.295797 86.645806 
L 549.325559 86.675372 
L 549.801759 86.571876 
L 549.891046 86.61624 
L 549.980334 86.690155 
L 550.069621 86.601457 
L 550.099384 86.645806 
L 550.218434 86.645806 
L 550.367246 86.61624 
L 550.456533 86.704938 
L 550.486296 86.675372 
L 550.754158 86.61624 
L 550.932733 86.690155 
L 550.992258 86.601457 
L 551.051783 86.631023 
L 551.081546 86.690155 
L 551.111308 86.571876 
L 551.141071 86.586658 
L 551.289883 86.675372 
L 551.319645 86.631023 
L 553.432782 86.571876 
L 553.462544 86.512744 
L 553.551831 86.571876 
L 553.700644 86.586658 
L 553.819694 86.61624 
L 553.998269 86.61624 
L 554.087556 86.631023 
L 554.117319 86.557093 
L 554.206606 86.631023 
L 554.295893 86.61624 
L 554.414943 86.571876 
L 554.533993 86.660589 
L 554.653043 86.631023 
L 554.772093 86.660589 
L 554.801856 86.527527 
L 554.891143 86.631023 
L 555.69473 86.571876 
L 555.724492 86.483178 
L 555.81378 86.557093 
L 555.873305 86.601457 
L 555.903067 86.557093 
L 555.93283 86.468395 
L 555.992355 86.61624 
L 556.141167 86.527527 
L 556.260217 86.631023 
L 556.379267 86.61624 
L 556.498317 86.54231 
L 556.647129 86.61624 
L 556.766179 86.54231 
L 556.795942 86.586658 
L 557.034042 86.571876 
L 557.212616 86.557093 
L 557.480479 86.483178 
L 557.599529 86.586658 
L 557.748341 86.497961 
L 557.867391 86.54231 
L 557.926916 86.512744 
L 557.956678 86.54231 
L 558.105491 86.54231 
L 558.373353 86.468395 
L 558.403116 86.571876 
L 558.492403 86.512744 
L 558.641216 86.527527 
L 566.85566 86.483178 
L 566.885423 86.409263 
L 566.97471 86.453612 
L 567.09376 86.483178 
L 567.242572 86.497961 
L 567.421147 86.468395 
L 567.45091 86.527527 
L 567.540197 86.468395 
L 567.808059 86.512744 
L 567.956872 86.483178 
L 568.105684 86.512744 
L 575.903454 86.438829 
L 575.933217 86.39448 
L 575.962979 86.512744 
L 628.850906 86.424046 
L 629.029481 86.39448 
L 629.178294 86.424046 
L 629.416393 86.424046 
L 713.584687 86.379682 
L 713.584687 86.379682 
" clip-path="url(#pfe1184f750)" style="fill: none; stroke: #1f77b4; stroke-width: 1.5; stroke-linecap: square"/>
   </g>
   <g id="patch_3">
    <path d="M 356.464687 311.6435 
L 356.464687 45.5315 
" style="fill: none; stroke: #000000; stroke-width: 0.8; stroke-linejoin: miter; stroke-linecap: square"/>
   </g>
   <g id="patch_4">
    <path d="M 713.584687 311.6435 
L 713.584687 45.5315 
" style="fill: none; stroke: #000000; stroke-width: 0.8; stroke-linejoin: miter; stroke-linecap: square"/>
   </g>
   <g id="patch_5">
    <path d="M 356.464687 311.6435 
L 713.584687 311.6435 
" style="fill: none; stroke: #000000; stroke-width: 0.8; stroke-linejoin: miter; stroke-linecap: square"/>
   </g>
   <g id="patch_6">
    <path d="M 356.464687 45.5315 
L 713.584687 45.5315 
" style="fill: none; stroke: #000000; stroke-width: 0.8; stroke-linejoin: miter; stroke-linecap: square"/>
   </g>
   <g id="text_19">
    <!-- Accuracy of the 09_07_25_CINIC10_torch_model_(1024+512.1+1)_car-plane on the validation set -->
    <g transform="translate(7.2 25.5315) scale(0.264 -0.264)">
     <defs>
      <path id="TimesNewRomanPSMT-68" d="M 1041 4444 
L 1041 2350 
Q 1388 2731 1591 2839 
Q 1794 2947 1997 2947 
Q 2241 2947 2416 2812 
Q 2591 2678 2675 2391 
Q 2734 2191 2734 1659 
L 2734 647 
Q 2734 375 2778 275 
Q 2809 200 2884 156 
Q 2959 113 3159 113 
L 3159 0 
L 1753 0 
L 1753 113 
L 1819 113 
Q 2019 113 2097 173 
Q 2175 234 2206 353 
Q 2216 403 2216 647 
L 2216 1659 
Q 2216 2128 2167 2275 
Q 2119 2422 2012 2495 
Q 1906 2569 1756 2569 
Q 1603 2569 1437 2487 
Q 1272 2406 1041 2159 
L 1041 647 
Q 1041 353 1073 281 
Q 1106 209 1195 161 
Q 1284 113 1503 113 
L 1503 0 
L 84 0 
L 84 113 
Q 275 113 384 172 
Q 447 203 484 290 
Q 522 378 522 647 
L 522 3238 
Q 522 3728 498 3840 
Q 475 3953 426 3993 
Q 378 4034 297 4034 
Q 231 4034 84 3984 
L 41 4094 
L 897 4444 
L 1041 4444 
z
" transform="scale(0.015625)"/>
      <path id="TimesNewRomanPSMT-5f" d="M 3256 -1381 
L -53 -1381 
L -53 -1119 
L 3256 -1119 
L 3256 -1381 
z
" transform="scale(0.015625)"/>
      <path id="TimesNewRomanPSMT-43" d="M 3853 4334 
L 3950 2894 
L 3853 2894 
Q 3659 3541 3300 3825 
Q 2941 4109 2438 4109 
Q 2016 4109 1675 3895 
Q 1334 3681 1139 3212 
Q 944 2744 944 2047 
Q 944 1472 1128 1050 
Q 1313 628 1683 403 
Q 2053 178 2528 178 
Q 2941 178 3256 354 
Q 3572 531 3950 1056 
L 4047 994 
Q 3728 428 3303 165 
Q 2878 -97 2294 -97 
Q 1241 -97 663 684 
Q 231 1266 231 2053 
Q 231 2688 515 3219 
Q 800 3750 1298 4042 
Q 1797 4334 2388 4334 
Q 2847 4334 3294 4109 
Q 3425 4041 3481 4041 
Q 3566 4041 3628 4100 
Q 3709 4184 3744 4334 
L 3853 4334 
z
" transform="scale(0.015625)"/>
      <path id="TimesNewRomanPSMT-49" d="M 1975 116 
L 1975 0 
L 159 0 
L 159 116 
L 309 116 
Q 572 116 691 269 
Q 766 369 766 750 
L 766 3488 
Q 766 3809 725 3913 
Q 694 3991 597 4047 
Q 459 4122 309 4122 
L 159 4122 
L 159 4238 
L 1975 4238 
L 1975 4122 
L 1822 4122 
Q 1563 4122 1444 3969 
Q 1366 3869 1366 3488 
L 1366 750 
Q 1366 428 1406 325 
Q 1438 247 1538 191 
Q 1672 116 1822 116 
L 1975 116 
z
" transform="scale(0.015625)"/>
      <path id="TimesNewRomanPSMT-64" d="M 2222 322 
Q 2013 103 1813 7 
Q 1613 -88 1381 -88 
Q 913 -88 563 304 
Q 213 697 213 1313 
Q 213 1928 600 2439 
Q 988 2950 1597 2950 
Q 1975 2950 2222 2709 
L 2222 3238 
Q 2222 3728 2198 3840 
Q 2175 3953 2125 3993 
Q 2075 4034 2000 4034 
Q 1919 4034 1784 3984 
L 1744 4094 
L 2597 4444 
L 2738 4444 
L 2738 1134 
Q 2738 631 2761 520 
Q 2784 409 2836 365 
Q 2888 322 2956 322 
Q 3041 322 3181 375 
L 3216 266 
L 2366 -88 
L 2222 -88 
L 2222 322 
z
M 2222 541 
L 2222 2016 
Q 2203 2228 2109 2403 
Q 2016 2578 1861 2667 
Q 1706 2756 1559 2756 
Q 1284 2756 1069 2509 
Q 784 2184 784 1559 
Q 784 928 1059 592 
Q 1334 256 1672 256 
Q 1956 256 2222 541 
z
" transform="scale(0.015625)"/>
      <path id="TimesNewRomanPSMT-6c" d="M 1184 4444 
L 1184 647 
Q 1184 378 1223 290 
Q 1263 203 1344 158 
Q 1425 113 1647 113 
L 1647 0 
L 244 0 
L 244 113 
Q 441 113 512 153 
Q 584 194 625 287 
Q 666 381 666 647 
L 666 3247 
Q 666 3731 644 3842 
Q 622 3953 573 3993 
Q 525 4034 450 4034 
Q 369 4034 244 3984 
L 191 4094 
L 1044 4444 
L 1184 4444 
z
" transform="scale(0.015625)"/>
      <path id="TimesNewRomanPSMT-28" d="M 1988 -1253 
L 1988 -1369 
Q 1516 -1131 1200 -813 
Q 750 -359 506 256 
Q 263 872 263 1534 
Q 263 2503 741 3301 
Q 1219 4100 1988 4444 
L 1988 4313 
Q 1603 4100 1356 3731 
Q 1109 3363 987 2797 
Q 866 2231 866 1616 
Q 866 947 969 400 
Q 1050 -31 1165 -292 
Q 1281 -553 1476 -793 
Q 1672 -1034 1988 -1253 
z
" transform="scale(0.015625)"/>
      <path id="TimesNewRomanPSMT-2b" d="M 1672 441 
L 1672 2000 
L 116 2000 
L 116 2256 
L 1672 2256 
L 1672 3809 
L 1922 3809 
L 1922 2256 
L 3484 2256 
L 3484 2000 
L 1922 2000 
L 1922 441 
L 1672 441 
z
" transform="scale(0.015625)"/>
      <path id="TimesNewRomanPSMT-29" d="M 144 4313 
L 144 4444 
Q 619 4209 934 3891 
Q 1381 3434 1625 2820 
Q 1869 2206 1869 1541 
Q 1869 572 1392 -226 
Q 916 -1025 144 -1369 
L 144 -1253 
Q 528 -1038 776 -670 
Q 1025 -303 1145 264 
Q 1266 831 1266 1447 
Q 1266 2113 1163 2663 
Q 1084 3094 967 3353 
Q 850 3613 656 3853 
Q 463 4094 144 4313 
z
" transform="scale(0.015625)"/>
      <path id="TimesNewRomanPSMT-2d" d="M 259 1672 
L 1875 1672 
L 1875 1200 
L 259 1200 
L 259 1672 
z
" transform="scale(0.015625)"/>
      <path id="TimesNewRomanPSMT-70" d="M -6 2578 
L 875 2934 
L 994 2934 
L 994 2266 
Q 1216 2644 1439 2795 
Q 1663 2947 1909 2947 
Q 2341 2947 2628 2609 
Q 2981 2197 2981 1534 
Q 2981 794 2556 309 
Q 2206 -88 1675 -88 
Q 1444 -88 1275 -22 
Q 1150 25 994 166 
L 994 -706 
Q 994 -1000 1030 -1079 
Q 1066 -1159 1155 -1206 
Q 1244 -1253 1478 -1253 
L 1478 -1369 
L -22 -1369 
L -22 -1253 
L 56 -1253 
Q 228 -1256 350 -1188 
Q 409 -1153 442 -1076 
Q 475 -1000 475 -688 
L 475 2019 
Q 475 2297 450 2372 
Q 425 2447 370 2484 
Q 316 2522 222 2522 
Q 147 2522 31 2478 
L -6 2578 
z
M 994 2081 
L 994 1013 
Q 994 666 1022 556 
Q 1066 375 1236 237 
Q 1406 100 1666 100 
Q 1978 100 2172 344 
Q 2425 663 2425 1241 
Q 2425 1897 2138 2250 
Q 1938 2494 1663 2494 
Q 1513 2494 1366 2419 
Q 1253 2363 994 2081 
z
" transform="scale(0.015625)"/>
      <path id="TimesNewRomanPSMT-76" d="M 53 2863 
L 1400 2863 
L 1400 2747 
L 1313 2747 
Q 1191 2747 1127 2687 
Q 1063 2628 1063 2528 
Q 1063 2419 1128 2269 
L 1794 688 
L 2463 2328 
Q 2534 2503 2534 2594 
Q 2534 2638 2509 2666 
Q 2475 2713 2422 2730 
Q 2369 2747 2206 2747 
L 2206 2863 
L 3141 2863 
L 3141 2747 
Q 2978 2734 2916 2681 
Q 2806 2588 2719 2369 
L 1703 -88 
L 1575 -88 
L 553 2328 
Q 484 2497 421 2570 
Q 359 2644 263 2694 
Q 209 2722 53 2747 
L 53 2863 
z
" transform="scale(0.015625)"/>
     </defs>
     <use xlink:href="#TimesNewRomanPSMT-41"/>
     <use xlink:href="#TimesNewRomanPSMT-63" transform="translate(72.216797 0)"/>
     <use xlink:href="#TimesNewRomanPSMT-63" transform="translate(116.601562 0)"/>
     <use xlink:href="#TimesNewRomanPSMT-75" transform="translate(160.986328 0)"/>
     <use xlink:href="#TimesNewRomanPSMT-72" transform="translate(210.986328 0)"/>
     <use xlink:href="#TimesNewRomanPSMT-61" transform="translate(244.287109 0)"/>
     <use xlink:href="#TimesNewRomanPSMT-63" transform="translate(288.671875 0)"/>
     <use xlink:href="#TimesNewRomanPSMT-79" transform="translate(333.056641 0)"/>
     <use xlink:href="#TimesNewRomanPSMT-20" transform="translate(383.056641 0)"/>
     <use xlink:href="#TimesNewRomanPSMT-6f" transform="translate(408.056641 0)"/>
     <use xlink:href="#TimesNewRomanPSMT-66" transform="translate(458.056641 0)"/>
     <use xlink:href="#TimesNewRomanPSMT-20" transform="translate(491.357422 0)"/>
     <use xlink:href="#TimesNewRomanPSMT-74" transform="translate(516.357422 0)"/>
     <use xlink:href="#TimesNewRomanPSMT-68" transform="translate(544.140625 0)"/>
     <use xlink:href="#TimesNewRomanPSMT-65" transform="translate(594.140625 0)"/>
     <use xlink:href="#TimesNewRomanPSMT-20" transform="translate(638.525391 0)"/>
     <use xlink:href="#TimesNewRomanPSMT-30" transform="translate(663.525391 0)"/>
     <use xlink:href="#TimesNewRomanPSMT-39" transform="translate(713.525391 0)"/>
     <use xlink:href="#TimesNewRomanPSMT-5f" transform="translate(763.525391 0)"/>
     <use xlink:href="#TimesNewRomanPSMT-30" transform="translate(813.525391 0)"/>
     <use xlink:href="#TimesNewRomanPSMT-37" transform="translate(863.525391 0)"/>
     <use xlink:href="#TimesNewRomanPSMT-5f" transform="translate(913.525391 0)"/>
     <use xlink:href="#TimesNewRomanPSMT-32" transform="translate(963.525391 0)"/>
     <use xlink:href="#TimesNewRomanPSMT-35" transform="translate(1013.525391 0)"/>
     <use xlink:href="#TimesNewRomanPSMT-5f" transform="translate(1063.525391 0)"/>
     <use xlink:href="#TimesNewRomanPSMT-43" transform="translate(1113.525391 0)"/>
     <use xlink:href="#TimesNewRomanPSMT-49" transform="translate(1180.224609 0)"/>
     <use xlink:href="#TimesNewRomanPSMT-4e" transform="translate(1213.525391 0)"/>
     <use xlink:href="#TimesNewRomanPSMT-49" transform="translate(1285.742188 0)"/>
     <use xlink:href="#TimesNewRomanPSMT-43" transform="translate(1319.042969 0)"/>
     <use xlink:href="#TimesNewRomanPSMT-31" transform="translate(1385.742188 0)"/>
     <use xlink:href="#TimesNewRomanPSMT-30" transform="translate(1435.742188 0)"/>
     <use xlink:href="#TimesNewRomanPSMT-5f" transform="translate(1485.742188 0)"/>
     <use xlink:href="#TimesNewRomanPSMT-74" transform="translate(1535.742188 0)"/>
     <use xlink:href="#TimesNewRomanPSMT-6f" transform="translate(1563.525391 0)"/>
     <use xlink:href="#TimesNewRomanPSMT-72" transform="translate(1613.525391 0)"/>
     <use xlink:href="#TimesNewRomanPSMT-63" transform="translate(1646.826172 0)"/>
     <use xlink:href="#TimesNewRomanPSMT-68" transform="translate(1691.210938 0)"/>
     <use xlink:href="#TimesNewRomanPSMT-5f" transform="translate(1741.210938 0)"/>
     <use xlink:href="#TimesNewRomanPSMT-6d" transform="translate(1791.210938 0)"/>
     <use xlink:href="#TimesNewRomanPSMT-6f" transform="translate(1868.994141 0)"/>
     <use xlink:href="#TimesNewRomanPSMT-64" transform="translate(1918.994141 0)"/>
     <use xlink:href="#TimesNewRomanPSMT-65" transform="translate(1968.994141 0)"/>
     <use xlink:href="#TimesNewRomanPSMT-6c" transform="translate(2013.378906 0)"/>
     <use xlink:href="#TimesNewRomanPSMT-5f" transform="translate(2041.162109 0)"/>
     <use xlink:href="#TimesNewRomanPSMT-28" transform="translate(2091.162109 0)"/>
     <use xlink:href="#TimesNewRomanPSMT-31" transform="translate(2124.462891 0)"/>
     <use xlink:href="#TimesNewRomanPSMT-30" transform="translate(2174.462891 0)"/>
     <use xlink:href="#TimesNewRomanPSMT-32" transform="translate(2224.462891 0)"/>
     <use xlink:href="#TimesNewRomanPSMT-34" transform="translate(2274.462891 0)"/>
     <use xlink:href="#TimesNewRomanPSMT-2b" transform="translate(2324.462891 0)"/>
     <use xlink:href="#TimesNewRomanPSMT-35" transform="translate(2380.859375 0)"/>
     <use xlink:href="#TimesNewRomanPSMT-31" transform="translate(2430.859375 0)"/>
     <use xlink:href="#TimesNewRomanPSMT-32" transform="translate(2480.859375 0)"/>
     <use xlink:href="#TimesNewRomanPSMT-2e" transform="translate(2530.859375 0)"/>
     <use xlink:href="#TimesNewRomanPSMT-31" transform="translate(2555.859375 0)"/>
     <use xlink:href="#TimesNewRomanPSMT-2b" transform="translate(2605.859375 0)"/>
     <use xlink:href="#TimesNewRomanPSMT-31" transform="translate(2662.255859 0)"/>
     <use xlink:href="#TimesNewRomanPSMT-29" transform="translate(2712.255859 0)"/>
     <use xlink:href="#TimesNewRomanPSMT-5f" transform="translate(2745.556641 0)"/>
     <use xlink:href="#TimesNewRomanPSMT-63" transform="translate(2795.556641 0)"/>
     <use xlink:href="#TimesNewRomanPSMT-61" transform="translate(2839.941406 0)"/>
     <use xlink:href="#TimesNewRomanPSMT-72" transform="translate(2884.326172 0)"/>
     <use xlink:href="#TimesNewRomanPSMT-2d" transform="translate(2915.626953 0)"/>
     <use xlink:href="#TimesNewRomanPSMT-70" transform="translate(2948.927734 0)"/>
     <use xlink:href="#TimesNewRomanPSMT-6c" transform="translate(2998.927734 0)"/>
     <use xlink:href="#TimesNewRomanPSMT-61" transform="translate(3026.710938 0)"/>
     <use xlink:href="#TimesNewRomanPSMT-6e" transform="translate(3071.095703 0)"/>
     <use xlink:href="#TimesNewRomanPSMT-65" transform="translate(3121.095703 0)"/>
     <use xlink:href="#TimesNewRomanPSMT-20" transform="translate(3165.480469 0)"/>
     <use xlink:href="#TimesNewRomanPSMT-6f" transform="translate(3190.480469 0)"/>
     <use xlink:href="#TimesNewRomanPSMT-6e" transform="translate(3240.480469 0)"/>
     <use xlink:href="#TimesNewRomanPSMT-20" transform="translate(3290.480469 0)"/>
     <use xlink:href="#TimesNewRomanPSMT-74" transform="translate(3315.480469 0)"/>
     <use xlink:href="#TimesNewRomanPSMT-68" transform="translate(3343.263672 0)"/>
     <use xlink:href="#TimesNewRomanPSMT-65" transform="translate(3393.263672 0)"/>
     <use xlink:href="#TimesNewRomanPSMT-20" transform="translate(3437.648438 0)"/>
     <use xlink:href="#TimesNewRomanPSMT-76" transform="translate(3462.648438 0)"/>
     <use xlink:href="#TimesNewRomanPSMT-61" transform="translate(3512.648438 0)"/>
     <use xlink:href="#TimesNewRomanPSMT-6c" transform="translate(3557.033203 0)"/>
     <use xlink:href="#TimesNewRomanPSMT-69" transform="translate(3584.816406 0)"/>
     <use xlink:href="#TimesNewRomanPSMT-64" transform="translate(3612.599609 0)"/>
     <use xlink:href="#TimesNewRomanPSMT-61" transform="translate(3662.599609 0)"/>
     <use xlink:href="#TimesNewRomanPSMT-74" transform="translate(3706.984375 0)"/>
     <use xlink:href="#TimesNewRomanPSMT-69" transform="translate(3734.767578 0)"/>
     <use xlink:href="#TimesNewRomanPSMT-6f" transform="translate(3762.550781 0)"/>
     <use xlink:href="#TimesNewRomanPSMT-6e" transform="translate(3812.550781 0)"/>
     <use xlink:href="#TimesNewRomanPSMT-20" transform="translate(3862.550781 0)"/>
     <use xlink:href="#TimesNewRomanPSMT-73" transform="translate(3887.550781 0)"/>
     <use xlink:href="#TimesNewRomanPSMT-65" transform="translate(3926.466797 0)"/>
     <use xlink:href="#TimesNewRomanPSMT-74" transform="translate(3970.851562 0)"/>
    </g>
   </g>
   <g id="legend_1">
    <g id="patch_7">
     <path d="M 371.864687 300.6435 
L 609.035 300.6435 
Q 613.435 300.6435 613.435 296.2435 
L 613.435 267.296312 
Q 613.435 262.896312 609.035 262.896312 
L 371.864687 262.896312 
Q 367.464687 262.896312 367.464687 267.296312 
L 367.464687 296.2435 
Q 367.464687 300.6435 371.864687 300.6435 
z
" style="fill: #ffffff; opacity: 0.8; stroke: #cccccc; stroke-linejoin: miter"/>
    </g>
    <g id="line2d_34">
     <path d="M 376.264687 279.396312 
L 398.264687 279.396312 
L 420.264687 279.396312 
" style="fill: none; stroke: #1f77b4; stroke-width: 1.5; stroke-linecap: square"/>
    </g>
    <g id="text_20">
     <!-- Best accuracy 0.86 -->
     <g transform="translate(437.864688 287.096312) scale(0.22 -0.22)">
      <defs>
       <path id="TimesNewRomanPSMT-42" d="M 2956 2163 
Q 3397 2069 3616 1863 
Q 3919 1575 3919 1159 
Q 3919 844 3719 555 
Q 3519 266 3170 133 
Q 2822 0 2106 0 
L 106 0 
L 106 116 
L 266 116 
Q 531 116 647 284 
Q 719 394 719 750 
L 719 3488 
Q 719 3881 628 3984 
Q 506 4122 266 4122 
L 106 4122 
L 106 4238 
L 1938 4238 
Q 2450 4238 2759 4163 
Q 3228 4050 3475 3764 
Q 3722 3478 3722 3106 
Q 3722 2788 3528 2536 
Q 3334 2284 2956 2163 
z
M 1319 2331 
Q 1434 2309 1582 2298 
Q 1731 2288 1909 2288 
Q 2366 2288 2595 2386 
Q 2825 2484 2947 2687 
Q 3069 2891 3069 3131 
Q 3069 3503 2766 3765 
Q 2463 4028 1881 4028 
Q 1569 4028 1319 3959 
L 1319 2331 
z
M 1319 306 
Q 1681 222 2034 222 
Q 2600 222 2897 476 
Q 3194 731 3194 1106 
Q 3194 1353 3059 1581 
Q 2925 1809 2622 1940 
Q 2319 2072 1872 2072 
Q 1678 2072 1540 2065 
Q 1403 2059 1319 2044 
L 1319 306 
z
" transform="scale(0.015625)"/>
      </defs>
      <use xlink:href="#TimesNewRomanPSMT-42"/>
      <use xlink:href="#TimesNewRomanPSMT-65" transform="translate(66.699219 0)"/>
      <use xlink:href="#TimesNewRomanPSMT-73" transform="translate(111.083984 0)"/>
      <use xlink:href="#TimesNewRomanPSMT-74" transform="translate(150 0)"/>
      <use xlink:href="#TimesNewRomanPSMT-20" transform="translate(177.783203 0)"/>
      <use xlink:href="#TimesNewRomanPSMT-61" transform="translate(202.783203 0)"/>
      <use xlink:href="#TimesNewRomanPSMT-63" transform="translate(247.167969 0)"/>
      <use xlink:href="#TimesNewRomanPSMT-63" transform="translate(291.552734 0)"/>
      <use xlink:href="#TimesNewRomanPSMT-75" transform="translate(335.9375 0)"/>
      <use xlink:href="#TimesNewRomanPSMT-72" transform="translate(385.9375 0)"/>
      <use xlink:href="#TimesNewRomanPSMT-61" transform="translate(419.238281 0)"/>
      <use xlink:href="#TimesNewRomanPSMT-63" transform="translate(463.623047 0)"/>
      <use xlink:href="#TimesNewRomanPSMT-79" transform="translate(508.007812 0)"/>
      <use xlink:href="#TimesNewRomanPSMT-20" transform="translate(558.007812 0)"/>
      <use xlink:href="#TimesNewRomanPSMT-30" transform="translate(583.007812 0)"/>
      <use xlink:href="#TimesNewRomanPSMT-2e" transform="translate(633.007812 0)"/>
      <use xlink:href="#TimesNewRomanPSMT-38" transform="translate(658.007812 0)"/>
      <use xlink:href="#TimesNewRomanPSMT-36" transform="translate(708.007812 0)"/>
     </g>
    </g>
   </g>
  </g>
 </g>
 <defs>
  <clipPath id="pfe1184f750">
   <rect x="356.464687" y="45.5315" width="357.12" height="266.112"/>
  </clipPath>
 </defs>
</svg>
