<?xml version="1.0" encoding="utf-8" standalone="no"?>
<!DOCTYPE svg PUBLIC "-//W3C//DTD SVG 1.1//EN"
  "http://www.w3.org/Graphics/SVG/1.1/DTD/svg11.dtd">
<svg xmlns:xlink="http://www.w3.org/1999/xlink" width="1045.19625pt" height="369.807875pt" viewBox="0 0 1045.19625 369.807875" xmlns="http://www.w3.org/2000/svg" version="1.1">
 <metadata>
  <rdf:RDF xmlns:dc="http://purl.org/dc/elements/1.1/" xmlns:cc="http://creativecommons.org/ns#" xmlns:rdf="http://www.w3.org/1999/02/22-rdf-syntax-ns#">
   <cc:Work>
    <dc:type rdf:resource="http://purl.org/dc/dcmitype/StillImage"/>
    <dc:date>2025-05-15T10:43:40.040222</dc:date>
    <dc:format>image/svg+xml</dc:format>
    <dc:creator>
     <cc:Agent>
      <dc:title>Matplotlib v3.10.1, https://matplotlib.org/</dc:title>
     </cc:Agent>
    </dc:creator>
   </cc:Work>
  </rdf:RDF>
 </metadata>
 <defs>
  <style type="text/css">*{stroke-linejoin: round; stroke-linecap: butt}</style>
 </defs>
 <g id="figure_1">
  <g id="patch_1">
   <path d="M 0 369.807875 
L 1045.19625 369.807875 
L 1045.19625 0 
L 0 0 
z
" style="fill: #ffffff"/>
  </g>
  <g id="axes_1">
   <g id="patch_2">
    <path d="M 344.038125 311.6435 
L 701.158125 311.6435 
L 701.158125 45.5315 
L 344.038125 45.5315 
z
" style="fill: #ffffff"/>
   </g>
   <g id="matplotlib.axis_1">
    <g id="xtick_1">
     <g id="line2d_1">
      <path d="M 344.038125 311.6435 
L 344.038125 45.5315 
" clip-path="url(#p852a269f93)" style="fill: none; stroke: #b0b0b0; stroke-opacity: 0.3; stroke-width: 0.8; stroke-linecap: square"/>
     </g>
     <g id="line2d_2">
      <defs>
       <path id="m5fb641a34b" d="M 0 0 
L 0 3.5 
" style="stroke: #000000; stroke-width: 0.8"/>
      </defs>
      <g>
       <use xlink:href="#m5fb641a34b" x="344.038125" y="311.6435" style="stroke: #000000; stroke-width: 0.8"/>
      </g>
     </g>
     <g id="text_1">
      <!-- 0 -->
      <g transform="translate(338.538125 333.91975) scale(0.22 -0.22)">
       <defs>
        <path id="TimesNewRomanPSMT-30" d="M 231 2094 
Q 231 2819 450 3342 
Q 669 3866 1031 4122 
Q 1313 4325 1613 4325 
Q 2100 4325 2488 3828 
Q 2972 3213 2972 2159 
Q 2972 1422 2759 906 
Q 2547 391 2217 158 
Q 1888 -75 1581 -75 
Q 975 -75 572 641 
Q 231 1244 231 2094 
z
M 844 2016 
Q 844 1141 1059 588 
Q 1238 122 1591 122 
Q 1759 122 1940 273 
Q 2122 425 2216 781 
Q 2359 1319 2359 2297 
Q 2359 3022 2209 3506 
Q 2097 3866 1919 4016 
Q 1791 4119 1609 4119 
Q 1397 4119 1231 3928 
Q 1006 3669 925 3112 
Q 844 2556 844 2016 
z
" transform="scale(0.015625)"/>
       </defs>
       <use xlink:href="#TimesNewRomanPSMT-30"/>
      </g>
     </g>
    </g>
    <g id="xtick_2">
     <g id="line2d_3">
      <path d="M 420.673318 311.6435 
L 420.673318 45.5315 
" clip-path="url(#p852a269f93)" style="fill: none; stroke: #b0b0b0; stroke-opacity: 0.3; stroke-width: 0.8; stroke-linecap: square"/>
     </g>
     <g id="line2d_4">
      <g>
       <use xlink:href="#m5fb641a34b" x="420.673318" y="311.6435" style="stroke: #000000; stroke-width: 0.8"/>
      </g>
     </g>
     <g id="text_2">
      <!-- 2500 -->
      <g transform="translate(398.673318 333.91975) scale(0.22 -0.22)">
       <defs>
        <path id="TimesNewRomanPSMT-32" d="M 2934 816 
L 2638 0 
L 138 0 
L 138 116 
Q 1241 1122 1691 1759 
Q 2141 2397 2141 2925 
Q 2141 3328 1894 3587 
Q 1647 3847 1303 3847 
Q 991 3847 742 3664 
Q 494 3481 375 3128 
L 259 3128 
Q 338 3706 661 4015 
Q 984 4325 1469 4325 
Q 1984 4325 2329 3994 
Q 2675 3663 2675 3213 
Q 2675 2891 2525 2569 
Q 2294 2063 1775 1497 
Q 997 647 803 472 
L 1909 472 
Q 2247 472 2383 497 
Q 2519 522 2628 598 
Q 2738 675 2819 816 
L 2934 816 
z
" transform="scale(0.015625)"/>
        <path id="TimesNewRomanPSMT-35" d="M 2778 4238 
L 2534 3706 
L 1259 3706 
L 981 3138 
Q 1809 3016 2294 2522 
Q 2709 2097 2709 1522 
Q 2709 1188 2573 903 
Q 2438 619 2231 419 
Q 2025 219 1772 97 
Q 1413 -75 1034 -75 
Q 653 -75 479 54 
Q 306 184 306 341 
Q 306 428 378 495 
Q 450 563 559 563 
Q 641 563 702 538 
Q 763 513 909 409 
Q 1144 247 1384 247 
Q 1750 247 2026 523 
Q 2303 800 2303 1197 
Q 2303 1581 2056 1914 
Q 1809 2247 1375 2428 
Q 1034 2569 447 2591 
L 1259 4238 
L 2778 4238 
z
" transform="scale(0.015625)"/>
       </defs>
       <use xlink:href="#TimesNewRomanPSMT-32"/>
       <use xlink:href="#TimesNewRomanPSMT-35" transform="translate(50 0)"/>
       <use xlink:href="#TimesNewRomanPSMT-30" transform="translate(100 0)"/>
       <use xlink:href="#TimesNewRomanPSMT-30" transform="translate(150 0)"/>
      </g>
     </g>
    </g>
    <g id="xtick_3">
     <g id="line2d_5">
      <path d="M 497.308511 311.6435 
L 497.308511 45.5315 
" clip-path="url(#p852a269f93)" style="fill: none; stroke: #b0b0b0; stroke-opacity: 0.3; stroke-width: 0.8; stroke-linecap: square"/>
     </g>
     <g id="line2d_6">
      <g>
       <use xlink:href="#m5fb641a34b" x="497.308511" y="311.6435" style="stroke: #000000; stroke-width: 0.8"/>
      </g>
     </g>
     <g id="text_3">
      <!-- 5000 -->
      <g transform="translate(475.308511 333.91975) scale(0.22 -0.22)">
       <use xlink:href="#TimesNewRomanPSMT-35"/>
       <use xlink:href="#TimesNewRomanPSMT-30" transform="translate(50 0)"/>
       <use xlink:href="#TimesNewRomanPSMT-30" transform="translate(100 0)"/>
       <use xlink:href="#TimesNewRomanPSMT-30" transform="translate(150 0)"/>
      </g>
     </g>
    </g>
    <g id="xtick_4">
     <g id="line2d_7">
      <path d="M 573.943704 311.6435 
L 573.943704 45.5315 
" clip-path="url(#p852a269f93)" style="fill: none; stroke: #b0b0b0; stroke-opacity: 0.3; stroke-width: 0.8; stroke-linecap: square"/>
     </g>
     <g id="line2d_8">
      <g>
       <use xlink:href="#m5fb641a34b" x="573.943704" y="311.6435" style="stroke: #000000; stroke-width: 0.8"/>
      </g>
     </g>
     <g id="text_4">
      <!-- 7500 -->
      <g transform="translate(551.943704 333.91975) scale(0.22 -0.22)">
       <defs>
        <path id="TimesNewRomanPSMT-37" d="M 644 4238 
L 2916 4238 
L 2916 4119 
L 1503 -88 
L 1153 -88 
L 2419 3728 
L 1253 3728 
Q 900 3728 750 3644 
Q 488 3500 328 3200 
L 238 3234 
L 644 4238 
z
" transform="scale(0.015625)"/>
       </defs>
       <use xlink:href="#TimesNewRomanPSMT-37"/>
       <use xlink:href="#TimesNewRomanPSMT-35" transform="translate(50 0)"/>
       <use xlink:href="#TimesNewRomanPSMT-30" transform="translate(100 0)"/>
       <use xlink:href="#TimesNewRomanPSMT-30" transform="translate(150 0)"/>
      </g>
     </g>
    </g>
    <g id="xtick_5">
     <g id="line2d_9">
      <path d="M 650.578898 311.6435 
L 650.578898 45.5315 
" clip-path="url(#p852a269f93)" style="fill: none; stroke: #b0b0b0; stroke-opacity: 0.3; stroke-width: 0.8; stroke-linecap: square"/>
     </g>
     <g id="line2d_10">
      <g>
       <use xlink:href="#m5fb641a34b" x="650.578898" y="311.6435" style="stroke: #000000; stroke-width: 0.8"/>
      </g>
     </g>
     <g id="text_5">
      <!-- 10000 -->
      <g transform="translate(623.078898 333.91975) scale(0.22 -0.22)">
       <defs>
        <path id="TimesNewRomanPSMT-31" d="M 750 3822 
L 1781 4325 
L 1884 4325 
L 1884 747 
Q 1884 391 1914 303 
Q 1944 216 2037 169 
Q 2131 122 2419 116 
L 2419 0 
L 825 0 
L 825 116 
Q 1125 122 1212 167 
Q 1300 213 1334 289 
Q 1369 366 1369 747 
L 1369 3034 
Q 1369 3497 1338 3628 
Q 1316 3728 1258 3775 
Q 1200 3822 1119 3822 
Q 1003 3822 797 3725 
L 750 3822 
z
" transform="scale(0.015625)"/>
       </defs>
       <use xlink:href="#TimesNewRomanPSMT-31"/>
       <use xlink:href="#TimesNewRomanPSMT-30" transform="translate(50 0)"/>
       <use xlink:href="#TimesNewRomanPSMT-30" transform="translate(100 0)"/>
       <use xlink:href="#TimesNewRomanPSMT-30" transform="translate(150 0)"/>
       <use xlink:href="#TimesNewRomanPSMT-30" transform="translate(200 0)"/>
      </g>
     </g>
    </g>
    <g id="text_6">
     <!-- Number of iterations -->
     <g transform="translate(430.956094 357.901937) scale(0.22 -0.22)">
      <defs>
       <path id="TimesNewRomanPSMT-4e" d="M -84 4238 
L 1066 4238 
L 3656 1059 
L 3656 3503 
Q 3656 3894 3569 3991 
Q 3453 4122 3203 4122 
L 3056 4122 
L 3056 4238 
L 4531 4238 
L 4531 4122 
L 4381 4122 
Q 4113 4122 4000 3959 
Q 3931 3859 3931 3503 
L 3931 -69 
L 3819 -69 
L 1025 3344 
L 1025 734 
Q 1025 344 1109 247 
Q 1228 116 1475 116 
L 1625 116 
L 1625 0 
L 150 0 
L 150 116 
L 297 116 
Q 569 116 681 278 
Q 750 378 750 734 
L 750 3681 
Q 566 3897 470 3965 
Q 375 4034 191 4094 
Q 100 4122 -84 4122 
L -84 4238 
z
" transform="scale(0.015625)"/>
       <path id="TimesNewRomanPSMT-75" d="M 2709 2863 
L 2709 1128 
Q 2709 631 2732 520 
Q 2756 409 2807 365 
Q 2859 322 2928 322 
Q 3025 322 3147 375 
L 3191 266 
L 2334 -88 
L 2194 -88 
L 2194 519 
Q 1825 119 1631 15 
Q 1438 -88 1222 -88 
Q 981 -88 804 51 
Q 628 191 559 409 
Q 491 628 491 1028 
L 491 2306 
Q 491 2509 447 2587 
Q 403 2666 317 2708 
Q 231 2750 6 2747 
L 6 2863 
L 1009 2863 
L 1009 947 
Q 1009 547 1148 422 
Q 1288 297 1484 297 
Q 1619 297 1789 381 
Q 1959 466 2194 703 
L 2194 2325 
Q 2194 2569 2105 2655 
Q 2016 2741 1734 2747 
L 1734 2863 
L 2709 2863 
z
" transform="scale(0.015625)"/>
       <path id="TimesNewRomanPSMT-6d" d="M 1050 2338 
Q 1363 2650 1419 2697 
Q 1559 2816 1721 2881 
Q 1884 2947 2044 2947 
Q 2313 2947 2506 2790 
Q 2700 2634 2766 2338 
Q 3088 2713 3309 2830 
Q 3531 2947 3766 2947 
Q 3994 2947 4170 2830 
Q 4347 2713 4450 2447 
Q 4519 2266 4519 1878 
L 4519 647 
Q 4519 378 4559 278 
Q 4591 209 4675 161 
Q 4759 113 4950 113 
L 4950 0 
L 3538 0 
L 3538 113 
L 3597 113 
Q 3781 113 3884 184 
Q 3956 234 3988 344 
Q 4000 397 4000 647 
L 4000 1878 
Q 4000 2228 3916 2372 
Q 3794 2572 3525 2572 
Q 3359 2572 3192 2489 
Q 3025 2406 2788 2181 
L 2781 2147 
L 2788 2013 
L 2788 647 
Q 2788 353 2820 281 
Q 2853 209 2943 161 
Q 3034 113 3253 113 
L 3253 0 
L 1806 0 
L 1806 113 
Q 2044 113 2133 169 
Q 2222 225 2256 338 
Q 2272 391 2272 647 
L 2272 1878 
Q 2272 2228 2169 2381 
Q 2031 2581 1784 2581 
Q 1616 2581 1450 2491 
Q 1191 2353 1050 2181 
L 1050 647 
Q 1050 366 1089 281 
Q 1128 197 1204 155 
Q 1281 113 1516 113 
L 1516 0 
L 100 0 
L 100 113 
Q 297 113 375 155 
Q 453 197 493 289 
Q 534 381 534 647 
L 534 1741 
Q 534 2213 506 2350 
Q 484 2453 437 2492 
Q 391 2531 309 2531 
Q 222 2531 100 2484 
L 53 2597 
L 916 2947 
L 1050 2947 
L 1050 2338 
z
" transform="scale(0.015625)"/>
       <path id="TimesNewRomanPSMT-62" d="M 984 2369 
Q 1400 2947 1881 2947 
Q 2322 2947 2650 2570 
Q 2978 2194 2978 1541 
Q 2978 778 2472 313 
Q 2038 -88 1503 -88 
Q 1253 -88 995 3 
Q 738 94 469 275 
L 469 3241 
Q 469 3728 445 3840 
Q 422 3953 372 3993 
Q 322 4034 247 4034 
Q 159 4034 28 3984 
L -16 4094 
L 844 4444 
L 984 4444 
L 984 2369 
z
M 984 2169 
L 984 456 
Q 1144 300 1314 220 
Q 1484 141 1663 141 
Q 1947 141 2192 453 
Q 2438 766 2438 1363 
Q 2438 1913 2192 2208 
Q 1947 2503 1634 2503 
Q 1469 2503 1303 2419 
Q 1178 2356 984 2169 
z
" transform="scale(0.015625)"/>
       <path id="TimesNewRomanPSMT-65" d="M 681 1784 
Q 678 1147 991 784 
Q 1303 422 1725 422 
Q 2006 422 2214 576 
Q 2422 731 2563 1106 
L 2659 1044 
Q 2594 616 2278 264 
Q 1963 -88 1488 -88 
Q 972 -88 605 314 
Q 238 716 238 1394 
Q 238 2128 614 2539 
Q 991 2950 1559 2950 
Q 2041 2950 2350 2633 
Q 2659 2316 2659 1784 
L 681 1784 
z
M 681 1966 
L 2006 1966 
Q 1991 2241 1941 2353 
Q 1863 2528 1708 2628 
Q 1553 2728 1384 2728 
Q 1125 2728 920 2526 
Q 716 2325 681 1966 
z
" transform="scale(0.015625)"/>
       <path id="TimesNewRomanPSMT-72" d="M 1038 2947 
L 1038 2303 
Q 1397 2947 1775 2947 
Q 1947 2947 2059 2842 
Q 2172 2738 2172 2600 
Q 2172 2478 2090 2393 
Q 2009 2309 1897 2309 
Q 1788 2309 1652 2417 
Q 1516 2525 1450 2525 
Q 1394 2525 1328 2463 
Q 1188 2334 1038 2041 
L 1038 669 
Q 1038 431 1097 309 
Q 1138 225 1241 169 
Q 1344 113 1538 113 
L 1538 0 
L 72 0 
L 72 113 
Q 291 113 397 181 
Q 475 231 506 341 
Q 522 394 522 644 
L 522 1753 
Q 522 2253 501 2348 
Q 481 2444 426 2487 
Q 372 2531 291 2531 
Q 194 2531 72 2484 
L 41 2597 
L 906 2947 
L 1038 2947 
z
" transform="scale(0.015625)"/>
       <path id="TimesNewRomanPSMT-20" transform="scale(0.015625)"/>
       <path id="TimesNewRomanPSMT-6f" d="M 1600 2947 
Q 2250 2947 2644 2453 
Q 2978 2031 2978 1484 
Q 2978 1100 2793 706 
Q 2609 313 2286 112 
Q 1963 -88 1566 -88 
Q 919 -88 538 428 
Q 216 863 216 1403 
Q 216 1797 411 2186 
Q 606 2575 925 2761 
Q 1244 2947 1600 2947 
z
M 1503 2744 
Q 1338 2744 1170 2645 
Q 1003 2547 900 2300 
Q 797 2053 797 1666 
Q 797 1041 1045 587 
Q 1294 134 1700 134 
Q 2003 134 2200 384 
Q 2397 634 2397 1244 
Q 2397 2006 2069 2444 
Q 1847 2744 1503 2744 
z
" transform="scale(0.015625)"/>
       <path id="TimesNewRomanPSMT-66" d="M 1319 2638 
L 1319 756 
Q 1319 356 1406 250 
Q 1522 113 1716 113 
L 1975 113 
L 1975 0 
L 266 0 
L 266 113 
L 394 113 
Q 519 113 622 175 
Q 725 238 764 344 
Q 803 450 803 756 
L 803 2638 
L 247 2638 
L 247 2863 
L 803 2863 
L 803 3050 
Q 803 3478 940 3775 
Q 1078 4072 1361 4255 
Q 1644 4438 1997 4438 
Q 2325 4438 2600 4225 
Q 2781 4084 2781 3909 
Q 2781 3816 2700 3733 
Q 2619 3650 2525 3650 
Q 2453 3650 2373 3701 
Q 2294 3753 2178 3923 
Q 2063 4094 1966 4153 
Q 1869 4213 1750 4213 
Q 1606 4213 1506 4136 
Q 1406 4059 1362 3898 
Q 1319 3738 1319 3069 
L 1319 2863 
L 2056 2863 
L 2056 2638 
L 1319 2638 
z
" transform="scale(0.015625)"/>
       <path id="TimesNewRomanPSMT-69" d="M 928 4444 
Q 1059 4444 1151 4351 
Q 1244 4259 1244 4128 
Q 1244 3997 1151 3903 
Q 1059 3809 928 3809 
Q 797 3809 703 3903 
Q 609 3997 609 4128 
Q 609 4259 701 4351 
Q 794 4444 928 4444 
z
M 1188 2947 
L 1188 647 
Q 1188 378 1227 289 
Q 1266 200 1342 156 
Q 1419 113 1622 113 
L 1622 0 
L 231 0 
L 231 113 
Q 441 113 512 153 
Q 584 194 626 287 
Q 669 381 669 647 
L 669 1750 
Q 669 2216 641 2353 
Q 619 2453 572 2492 
Q 525 2531 444 2531 
Q 356 2531 231 2484 
L 188 2597 
L 1050 2947 
L 1188 2947 
z
" transform="scale(0.015625)"/>
       <path id="TimesNewRomanPSMT-74" d="M 1031 3803 
L 1031 2863 
L 1700 2863 
L 1700 2644 
L 1031 2644 
L 1031 788 
Q 1031 509 1111 412 
Q 1191 316 1316 316 
Q 1419 316 1516 380 
Q 1613 444 1666 569 
L 1788 569 
Q 1678 263 1478 108 
Q 1278 -47 1066 -47 
Q 922 -47 784 33 
Q 647 113 581 261 
Q 516 409 516 719 
L 516 2644 
L 63 2644 
L 63 2747 
Q 234 2816 414 2980 
Q 594 3144 734 3369 
Q 806 3488 934 3803 
L 1031 3803 
z
" transform="scale(0.015625)"/>
       <path id="TimesNewRomanPSMT-61" d="M 1822 413 
Q 1381 72 1269 19 
Q 1100 -59 909 -59 
Q 613 -59 420 144 
Q 228 347 228 678 
Q 228 888 322 1041 
Q 450 1253 767 1440 
Q 1084 1628 1822 1897 
L 1822 2009 
Q 1822 2438 1686 2597 
Q 1550 2756 1291 2756 
Q 1094 2756 978 2650 
Q 859 2544 859 2406 
L 866 2225 
Q 866 2081 792 2003 
Q 719 1925 600 1925 
Q 484 1925 411 2006 
Q 338 2088 338 2228 
Q 338 2497 613 2722 
Q 888 2947 1384 2947 
Q 1766 2947 2009 2819 
Q 2194 2722 2281 2516 
Q 2338 2381 2338 1966 
L 2338 994 
Q 2338 584 2353 492 
Q 2369 400 2405 369 
Q 2441 338 2488 338 
Q 2538 338 2575 359 
Q 2641 400 2828 588 
L 2828 413 
Q 2478 -56 2159 -56 
Q 2006 -56 1915 50 
Q 1825 156 1822 413 
z
M 1822 616 
L 1822 1706 
Q 1350 1519 1213 1441 
Q 966 1303 859 1153 
Q 753 1003 753 825 
Q 753 600 887 451 
Q 1022 303 1197 303 
Q 1434 303 1822 616 
z
" transform="scale(0.015625)"/>
       <path id="TimesNewRomanPSMT-6e" d="M 1034 2341 
Q 1538 2947 1994 2947 
Q 2228 2947 2397 2830 
Q 2566 2713 2666 2444 
Q 2734 2256 2734 1869 
L 2734 647 
Q 2734 375 2778 278 
Q 2813 200 2889 156 
Q 2966 113 3172 113 
L 3172 0 
L 1756 0 
L 1756 113 
L 1816 113 
Q 2016 113 2095 173 
Q 2175 234 2206 353 
Q 2219 400 2219 647 
L 2219 1819 
Q 2219 2209 2117 2386 
Q 2016 2563 1775 2563 
Q 1403 2563 1034 2156 
L 1034 647 
Q 1034 356 1069 288 
Q 1113 197 1189 155 
Q 1266 113 1500 113 
L 1500 0 
L 84 0 
L 84 113 
L 147 113 
Q 366 113 442 223 
Q 519 334 519 647 
L 519 1709 
Q 519 2225 495 2337 
Q 472 2450 423 2490 
Q 375 2531 294 2531 
Q 206 2531 84 2484 
L 38 2597 
L 900 2947 
L 1034 2947 
L 1034 2341 
z
" transform="scale(0.015625)"/>
       <path id="TimesNewRomanPSMT-73" d="M 2050 2947 
L 2050 1972 
L 1947 1972 
Q 1828 2431 1642 2597 
Q 1456 2763 1169 2763 
Q 950 2763 815 2647 
Q 681 2531 681 2391 
Q 681 2216 781 2091 
Q 878 1963 1175 1819 
L 1631 1597 
Q 2266 1288 2266 781 
Q 2266 391 1970 151 
Q 1675 -88 1309 -88 
Q 1047 -88 709 6 
Q 606 38 541 38 
Q 469 38 428 -44 
L 325 -44 
L 325 978 
L 428 978 
Q 516 541 762 319 
Q 1009 97 1316 97 
Q 1531 97 1667 223 
Q 1803 350 1803 528 
Q 1803 744 1651 891 
Q 1500 1038 1047 1263 
Q 594 1488 453 1669 
Q 313 1847 313 2119 
Q 313 2472 555 2709 
Q 797 2947 1181 2947 
Q 1350 2947 1591 2875 
Q 1750 2828 1803 2828 
Q 1853 2828 1881 2850 
Q 1909 2872 1947 2947 
L 2050 2947 
z
" transform="scale(0.015625)"/>
      </defs>
      <use xlink:href="#TimesNewRomanPSMT-4e"/>
      <use xlink:href="#TimesNewRomanPSMT-75" transform="translate(72.216797 0)"/>
      <use xlink:href="#TimesNewRomanPSMT-6d" transform="translate(122.216797 0)"/>
      <use xlink:href="#TimesNewRomanPSMT-62" transform="translate(200 0)"/>
      <use xlink:href="#TimesNewRomanPSMT-65" transform="translate(250 0)"/>
      <use xlink:href="#TimesNewRomanPSMT-72" transform="translate(294.384766 0)"/>
      <use xlink:href="#TimesNewRomanPSMT-20" transform="translate(327.685547 0)"/>
      <use xlink:href="#TimesNewRomanPSMT-6f" transform="translate(352.685547 0)"/>
      <use xlink:href="#TimesNewRomanPSMT-66" transform="translate(402.685547 0)"/>
      <use xlink:href="#TimesNewRomanPSMT-20" transform="translate(435.986328 0)"/>
      <use xlink:href="#TimesNewRomanPSMT-69" transform="translate(460.986328 0)"/>
      <use xlink:href="#TimesNewRomanPSMT-74" transform="translate(488.769531 0)"/>
      <use xlink:href="#TimesNewRomanPSMT-65" transform="translate(516.552734 0)"/>
      <use xlink:href="#TimesNewRomanPSMT-72" transform="translate(560.9375 0)"/>
      <use xlink:href="#TimesNewRomanPSMT-61" transform="translate(594.238281 0)"/>
      <use xlink:href="#TimesNewRomanPSMT-74" transform="translate(638.623047 0)"/>
      <use xlink:href="#TimesNewRomanPSMT-69" transform="translate(666.40625 0)"/>
      <use xlink:href="#TimesNewRomanPSMT-6f" transform="translate(694.189453 0)"/>
      <use xlink:href="#TimesNewRomanPSMT-6e" transform="translate(744.189453 0)"/>
      <use xlink:href="#TimesNewRomanPSMT-73" transform="translate(794.189453 0)"/>
     </g>
    </g>
   </g>
   <g id="matplotlib.axis_2">
    <g id="ytick_1">
     <g id="line2d_11">
      <path d="M 344.038125 311.6435 
L 701.158125 311.6435 
" clip-path="url(#p852a269f93)" style="fill: none; stroke: #b0b0b0; stroke-opacity: 0.3; stroke-width: 0.8; stroke-linecap: square"/>
     </g>
     <g id="line2d_12">
      <defs>
       <path id="mfdcdf7b929" d="M 0 0 
L -3.5 0 
" style="stroke: #000000; stroke-width: 0.8"/>
      </defs>
      <g>
       <use xlink:href="#mfdcdf7b929" x="344.038125" y="311.6435" style="stroke: #000000; stroke-width: 0.8"/>
      </g>
     </g>
     <g id="text_7">
      <!-- 0.0 -->
      <g transform="translate(309.538125 319.281625) scale(0.22 -0.22)">
       <defs>
        <path id="TimesNewRomanPSMT-2e" d="M 800 606 
Q 947 606 1047 504 
Q 1147 403 1147 259 
Q 1147 116 1045 14 
Q 944 -88 800 -88 
Q 656 -88 554 14 
Q 453 116 453 259 
Q 453 406 554 506 
Q 656 606 800 606 
z
" transform="scale(0.015625)"/>
       </defs>
       <use xlink:href="#TimesNewRomanPSMT-30"/>
       <use xlink:href="#TimesNewRomanPSMT-2e" transform="translate(50 0)"/>
       <use xlink:href="#TimesNewRomanPSMT-30" transform="translate(75 0)"/>
      </g>
     </g>
    </g>
    <g id="ytick_2">
     <g id="line2d_13">
      <path d="M 344.038125 285.0323 
L 701.158125 285.0323 
" clip-path="url(#p852a269f93)" style="fill: none; stroke: #b0b0b0; stroke-opacity: 0.3; stroke-width: 0.8; stroke-linecap: square"/>
     </g>
     <g id="line2d_14">
      <g>
       <use xlink:href="#mfdcdf7b929" x="344.038125" y="285.0323" style="stroke: #000000; stroke-width: 0.8"/>
      </g>
     </g>
     <g id="text_8">
      <!-- 0.1 -->
      <g transform="translate(309.538125 292.670425) scale(0.22 -0.22)">
       <use xlink:href="#TimesNewRomanPSMT-30"/>
       <use xlink:href="#TimesNewRomanPSMT-2e" transform="translate(50 0)"/>
       <use xlink:href="#TimesNewRomanPSMT-31" transform="translate(75 0)"/>
      </g>
     </g>
    </g>
    <g id="ytick_3">
     <g id="line2d_15">
      <path d="M 344.038125 258.4211 
L 701.158125 258.4211 
" clip-path="url(#p852a269f93)" style="fill: none; stroke: #b0b0b0; stroke-opacity: 0.3; stroke-width: 0.8; stroke-linecap: square"/>
     </g>
     <g id="line2d_16">
      <g>
       <use xlink:href="#mfdcdf7b929" x="344.038125" y="258.4211" style="stroke: #000000; stroke-width: 0.8"/>
      </g>
     </g>
     <g id="text_9">
      <!-- 0.2 -->
      <g transform="translate(309.538125 266.059225) scale(0.22 -0.22)">
       <use xlink:href="#TimesNewRomanPSMT-30"/>
       <use xlink:href="#TimesNewRomanPSMT-2e" transform="translate(50 0)"/>
       <use xlink:href="#TimesNewRomanPSMT-32" transform="translate(75 0)"/>
      </g>
     </g>
    </g>
    <g id="ytick_4">
     <g id="line2d_17">
      <path d="M 344.038125 231.8099 
L 701.158125 231.8099 
" clip-path="url(#p852a269f93)" style="fill: none; stroke: #b0b0b0; stroke-opacity: 0.3; stroke-width: 0.8; stroke-linecap: square"/>
     </g>
     <g id="line2d_18">
      <g>
       <use xlink:href="#mfdcdf7b929" x="344.038125" y="231.8099" style="stroke: #000000; stroke-width: 0.8"/>
      </g>
     </g>
     <g id="text_10">
      <!-- 0.3 -->
      <g transform="translate(309.538125 239.448025) scale(0.22 -0.22)">
       <defs>
        <path id="TimesNewRomanPSMT-33" d="M 325 3431 
Q 506 3859 782 4092 
Q 1059 4325 1472 4325 
Q 1981 4325 2253 3994 
Q 2459 3747 2459 3466 
Q 2459 3003 1878 2509 
Q 2269 2356 2469 2072 
Q 2669 1788 2669 1403 
Q 2669 853 2319 450 
Q 1863 -75 997 -75 
Q 569 -75 414 31 
Q 259 138 259 259 
Q 259 350 332 419 
Q 406 488 509 488 
Q 588 488 669 463 
Q 722 447 909 348 
Q 1097 250 1169 231 
Q 1284 197 1416 197 
Q 1734 197 1970 444 
Q 2206 691 2206 1028 
Q 2206 1275 2097 1509 
Q 2016 1684 1919 1775 
Q 1784 1900 1550 2001 
Q 1316 2103 1072 2103 
L 972 2103 
L 972 2197 
Q 1219 2228 1467 2375 
Q 1716 2522 1828 2728 
Q 1941 2934 1941 3181 
Q 1941 3503 1739 3701 
Q 1538 3900 1238 3900 
Q 753 3900 428 3381 
L 325 3431 
z
" transform="scale(0.015625)"/>
       </defs>
       <use xlink:href="#TimesNewRomanPSMT-30"/>
       <use xlink:href="#TimesNewRomanPSMT-2e" transform="translate(50 0)"/>
       <use xlink:href="#TimesNewRomanPSMT-33" transform="translate(75 0)"/>
      </g>
     </g>
    </g>
    <g id="ytick_5">
     <g id="line2d_19">
      <path d="M 344.038125 205.1987 
L 701.158125 205.1987 
" clip-path="url(#p852a269f93)" style="fill: none; stroke: #b0b0b0; stroke-opacity: 0.3; stroke-width: 0.8; stroke-linecap: square"/>
     </g>
     <g id="line2d_20">
      <g>
       <use xlink:href="#mfdcdf7b929" x="344.038125" y="205.1987" style="stroke: #000000; stroke-width: 0.8"/>
      </g>
     </g>
     <g id="text_11">
      <!-- 0.4 -->
      <g transform="translate(309.538125 212.836825) scale(0.22 -0.22)">
       <defs>
        <path id="TimesNewRomanPSMT-34" d="M 2978 1563 
L 2978 1119 
L 2409 1119 
L 2409 0 
L 1894 0 
L 1894 1119 
L 100 1119 
L 100 1519 
L 2066 4325 
L 2409 4325 
L 2409 1563 
L 2978 1563 
z
M 1894 1563 
L 1894 3666 
L 406 1563 
L 1894 1563 
z
" transform="scale(0.015625)"/>
       </defs>
       <use xlink:href="#TimesNewRomanPSMT-30"/>
       <use xlink:href="#TimesNewRomanPSMT-2e" transform="translate(50 0)"/>
       <use xlink:href="#TimesNewRomanPSMT-34" transform="translate(75 0)"/>
      </g>
     </g>
    </g>
    <g id="ytick_6">
     <g id="line2d_21">
      <path d="M 344.038125 178.5875 
L 701.158125 178.5875 
" clip-path="url(#p852a269f93)" style="fill: none; stroke: #b0b0b0; stroke-opacity: 0.3; stroke-width: 0.8; stroke-linecap: square"/>
     </g>
     <g id="line2d_22">
      <g>
       <use xlink:href="#mfdcdf7b929" x="344.038125" y="178.5875" style="stroke: #000000; stroke-width: 0.8"/>
      </g>
     </g>
     <g id="text_12">
      <!-- 0.5 -->
      <g transform="translate(309.538125 186.225625) scale(0.22 -0.22)">
       <use xlink:href="#TimesNewRomanPSMT-30"/>
       <use xlink:href="#TimesNewRomanPSMT-2e" transform="translate(50 0)"/>
       <use xlink:href="#TimesNewRomanPSMT-35" transform="translate(75 0)"/>
      </g>
     </g>
    </g>
    <g id="ytick_7">
     <g id="line2d_23">
      <path d="M 344.038125 151.9763 
L 701.158125 151.9763 
" clip-path="url(#p852a269f93)" style="fill: none; stroke: #b0b0b0; stroke-opacity: 0.3; stroke-width: 0.8; stroke-linecap: square"/>
     </g>
     <g id="line2d_24">
      <g>
       <use xlink:href="#mfdcdf7b929" x="344.038125" y="151.9763" style="stroke: #000000; stroke-width: 0.8"/>
      </g>
     </g>
     <g id="text_13">
      <!-- 0.6 -->
      <g transform="translate(309.538125 159.614425) scale(0.22 -0.22)">
       <defs>
        <path id="TimesNewRomanPSMT-36" d="M 2869 4325 
L 2869 4209 
Q 2456 4169 2195 4045 
Q 1934 3922 1679 3669 
Q 1425 3416 1258 3105 
Q 1091 2794 978 2366 
Q 1428 2675 1881 2675 
Q 2316 2675 2634 2325 
Q 2953 1975 2953 1425 
Q 2953 894 2631 456 
Q 2244 -75 1606 -75 
Q 1172 -75 869 213 
Q 275 772 275 1663 
Q 275 2231 503 2743 
Q 731 3256 1154 3653 
Q 1578 4050 1965 4187 
Q 2353 4325 2688 4325 
L 2869 4325 
z
M 925 2138 
Q 869 1716 869 1456 
Q 869 1156 980 804 
Q 1091 453 1309 247 
Q 1469 100 1697 100 
Q 1969 100 2183 356 
Q 2397 613 2397 1088 
Q 2397 1622 2184 2012 
Q 1972 2403 1581 2403 
Q 1463 2403 1327 2353 
Q 1191 2303 925 2138 
z
" transform="scale(0.015625)"/>
       </defs>
       <use xlink:href="#TimesNewRomanPSMT-30"/>
       <use xlink:href="#TimesNewRomanPSMT-2e" transform="translate(50 0)"/>
       <use xlink:href="#TimesNewRomanPSMT-36" transform="translate(75 0)"/>
      </g>
     </g>
    </g>
    <g id="ytick_8">
     <g id="line2d_25">
      <path d="M 344.038125 125.3651 
L 701.158125 125.3651 
" clip-path="url(#p852a269f93)" style="fill: none; stroke: #b0b0b0; stroke-opacity: 0.3; stroke-width: 0.8; stroke-linecap: square"/>
     </g>
     <g id="line2d_26">
      <g>
       <use xlink:href="#mfdcdf7b929" x="344.038125" y="125.3651" style="stroke: #000000; stroke-width: 0.8"/>
      </g>
     </g>
     <g id="text_14">
      <!-- 0.7 -->
      <g transform="translate(309.538125 133.003225) scale(0.22 -0.22)">
       <use xlink:href="#TimesNewRomanPSMT-30"/>
       <use xlink:href="#TimesNewRomanPSMT-2e" transform="translate(50 0)"/>
       <use xlink:href="#TimesNewRomanPSMT-37" transform="translate(75 0)"/>
      </g>
     </g>
    </g>
    <g id="ytick_9">
     <g id="line2d_27">
      <path d="M 344.038125 98.7539 
L 701.158125 98.7539 
" clip-path="url(#p852a269f93)" style="fill: none; stroke: #b0b0b0; stroke-opacity: 0.3; stroke-width: 0.8; stroke-linecap: square"/>
     </g>
     <g id="line2d_28">
      <g>
       <use xlink:href="#mfdcdf7b929" x="344.038125" y="98.7539" style="stroke: #000000; stroke-width: 0.8"/>
      </g>
     </g>
     <g id="text_15">
      <!-- 0.8 -->
      <g transform="translate(309.538125 106.392025) scale(0.22 -0.22)">
       <defs>
        <path id="TimesNewRomanPSMT-38" d="M 1228 2134 
Q 725 2547 579 2797 
Q 434 3047 434 3316 
Q 434 3728 753 4026 
Q 1072 4325 1600 4325 
Q 2113 4325 2425 4047 
Q 2738 3769 2738 3413 
Q 2738 3175 2569 2928 
Q 2400 2681 1866 2347 
Q 2416 1922 2594 1678 
Q 2831 1359 2831 1006 
Q 2831 559 2490 242 
Q 2150 -75 1597 -75 
Q 994 -75 656 303 
Q 388 606 388 966 
Q 388 1247 577 1523 
Q 766 1800 1228 2134 
z
M 1719 2469 
Q 2094 2806 2194 3001 
Q 2294 3197 2294 3444 
Q 2294 3772 2109 3958 
Q 1925 4144 1606 4144 
Q 1288 4144 1088 3959 
Q 888 3775 888 3528 
Q 888 3366 970 3203 
Q 1053 3041 1206 2894 
L 1719 2469 
z
M 1375 2016 
Q 1116 1797 991 1539 
Q 866 1281 866 981 
Q 866 578 1086 336 
Q 1306 94 1647 94 
Q 1984 94 2187 284 
Q 2391 475 2391 747 
Q 2391 972 2272 1150 
Q 2050 1481 1375 2016 
z
" transform="scale(0.015625)"/>
       </defs>
       <use xlink:href="#TimesNewRomanPSMT-30"/>
       <use xlink:href="#TimesNewRomanPSMT-2e" transform="translate(50 0)"/>
       <use xlink:href="#TimesNewRomanPSMT-38" transform="translate(75 0)"/>
      </g>
     </g>
    </g>
    <g id="ytick_10">
     <g id="line2d_29">
      <path d="M 344.038125 72.1427 
L 701.158125 72.1427 
" clip-path="url(#p852a269f93)" style="fill: none; stroke: #b0b0b0; stroke-opacity: 0.3; stroke-width: 0.8; stroke-linecap: square"/>
     </g>
     <g id="line2d_30">
      <g>
       <use xlink:href="#mfdcdf7b929" x="344.038125" y="72.1427" style="stroke: #000000; stroke-width: 0.8"/>
      </g>
     </g>
     <g id="text_16">
      <!-- 0.9 -->
      <g transform="translate(309.538125 79.780825) scale(0.22 -0.22)">
       <defs>
        <path id="TimesNewRomanPSMT-39" d="M 338 -88 
L 338 28 
Q 744 34 1094 217 
Q 1444 400 1770 856 
Q 2097 1313 2225 1859 
Q 1734 1544 1338 1544 
Q 891 1544 572 1889 
Q 253 2234 253 2806 
Q 253 3363 572 3797 
Q 956 4325 1575 4325 
Q 2097 4325 2469 3894 
Q 2925 3359 2925 2575 
Q 2925 1869 2578 1258 
Q 2231 647 1613 244 
Q 1109 -88 516 -88 
L 338 -88 
z
M 2275 2091 
Q 2331 2497 2331 2741 
Q 2331 3044 2228 3395 
Q 2125 3747 1936 3934 
Q 1747 4122 1506 4122 
Q 1228 4122 1018 3872 
Q 809 3622 809 3128 
Q 809 2469 1088 2097 
Q 1291 1828 1588 1828 
Q 1731 1828 1928 1897 
Q 2125 1966 2275 2091 
z
" transform="scale(0.015625)"/>
       </defs>
       <use xlink:href="#TimesNewRomanPSMT-30"/>
       <use xlink:href="#TimesNewRomanPSMT-2e" transform="translate(50 0)"/>
       <use xlink:href="#TimesNewRomanPSMT-39" transform="translate(75 0)"/>
      </g>
     </g>
    </g>
    <g id="ytick_11">
     <g id="line2d_31">
      <path d="M 344.038125 45.5315 
L 701.158125 45.5315 
" clip-path="url(#p852a269f93)" style="fill: none; stroke: #b0b0b0; stroke-opacity: 0.3; stroke-width: 0.8; stroke-linecap: square"/>
     </g>
     <g id="line2d_32">
      <g>
       <use xlink:href="#mfdcdf7b929" x="344.038125" y="45.5315" style="stroke: #000000; stroke-width: 0.8"/>
      </g>
     </g>
     <g id="text_17">
      <!-- 1.0 -->
      <g transform="translate(309.538125 53.169625) scale(0.22 -0.22)">
       <use xlink:href="#TimesNewRomanPSMT-31"/>
       <use xlink:href="#TimesNewRomanPSMT-2e" transform="translate(50 0)"/>
       <use xlink:href="#TimesNewRomanPSMT-30" transform="translate(75 0)"/>
      </g>
     </g>
    </g>
    <g id="text_18">
     <!-- Accuracy -->
     <g transform="translate(300.790938 220.726094) rotate(-90) scale(0.22 -0.22)">
      <defs>
       <path id="TimesNewRomanPSMT-41" d="M 2928 1419 
L 1288 1419 
L 1000 750 
Q 894 503 894 381 
Q 894 284 986 211 
Q 1078 138 1384 116 
L 1384 0 
L 50 0 
L 50 116 
Q 316 163 394 238 
Q 553 388 747 847 
L 2238 4334 
L 2347 4334 
L 3822 809 
Q 4000 384 4145 257 
Q 4291 131 4550 116 
L 4550 0 
L 2878 0 
L 2878 116 
Q 3131 128 3220 200 
Q 3309 272 3309 375 
Q 3309 513 3184 809 
L 2928 1419 
z
M 2841 1650 
L 2122 3363 
L 1384 1650 
L 2841 1650 
z
" transform="scale(0.015625)"/>
       <path id="TimesNewRomanPSMT-63" d="M 2631 1088 
Q 2516 522 2178 217 
Q 1841 -88 1431 -88 
Q 944 -88 581 321 
Q 219 731 219 1428 
Q 219 2103 620 2525 
Q 1022 2947 1584 2947 
Q 2006 2947 2278 2723 
Q 2550 2500 2550 2259 
Q 2550 2141 2473 2067 
Q 2397 1994 2259 1994 
Q 2075 1994 1981 2113 
Q 1928 2178 1911 2362 
Q 1894 2547 1784 2644 
Q 1675 2738 1481 2738 
Q 1169 2738 978 2506 
Q 725 2200 725 1697 
Q 725 1184 976 792 
Q 1228 400 1656 400 
Q 1963 400 2206 609 
Q 2378 753 2541 1131 
L 2631 1088 
z
" transform="scale(0.015625)"/>
       <path id="TimesNewRomanPSMT-79" d="M 38 2863 
L 1372 2863 
L 1372 2747 
L 1306 2747 
Q 1166 2747 1095 2686 
Q 1025 2625 1025 2534 
Q 1025 2413 1128 2197 
L 1825 753 
L 2466 2334 
Q 2519 2463 2519 2588 
Q 2519 2644 2497 2672 
Q 2472 2706 2419 2726 
Q 2366 2747 2231 2747 
L 2231 2863 
L 3163 2863 
L 3163 2747 
Q 3047 2734 2984 2696 
Q 2922 2659 2847 2556 
Q 2819 2513 2741 2316 
L 1575 -541 
Q 1406 -956 1132 -1168 
Q 859 -1381 606 -1381 
Q 422 -1381 303 -1275 
Q 184 -1169 184 -1031 
Q 184 -900 270 -820 
Q 356 -741 506 -741 
Q 609 -741 788 -809 
Q 913 -856 944 -856 
Q 1038 -856 1148 -759 
Q 1259 -663 1372 -384 
L 1575 113 
L 547 2272 
Q 500 2369 397 2513 
Q 319 2622 269 2659 
Q 197 2709 38 2747 
L 38 2863 
z
" transform="scale(0.015625)"/>
      </defs>
      <use xlink:href="#TimesNewRomanPSMT-41"/>
      <use xlink:href="#TimesNewRomanPSMT-63" transform="translate(72.216797 0)"/>
      <use xlink:href="#TimesNewRomanPSMT-63" transform="translate(116.601562 0)"/>
      <use xlink:href="#TimesNewRomanPSMT-75" transform="translate(160.986328 0)"/>
      <use xlink:href="#TimesNewRomanPSMT-72" transform="translate(210.986328 0)"/>
      <use xlink:href="#TimesNewRomanPSMT-61" transform="translate(244.287109 0)"/>
      <use xlink:href="#TimesNewRomanPSMT-63" transform="translate(288.671875 0)"/>
      <use xlink:href="#TimesNewRomanPSMT-79" transform="translate(333.056641 0)"/>
     </g>
    </g>
   </g>
   <g id="line2d_33">
    <path d="M 344.038125 178.572717 
L 344.344929 178.5875 
L 344.651733 148.11768 
L 344.958537 150.335278 
L 345.265341 148.22116 
L 345.572146 147.082795 
L 345.87895 145.057391 
L 346.185754 144.466027 
L 346.492558 141.346607 
L 346.799362 140.991785 
L 347.106166 139.9569 
L 347.41297 142.736297 
L 347.719774 144.096422 
L 348.333383 141.937971 
L 348.640187 137.532326 
L 348.946991 141.775343 
L 349.253795 140.385637 
L 349.560599 140.430002 
L 349.867403 145.574826 
L 350.174207 136.615721 
L 350.481012 148.265509 
L 350.787816 143.608553 
L 351.401424 139.542963 
L 351.708228 142.765863 
L 352.015032 137.014891 
L 352.321836 138.286318 
L 352.62864 154.341737 
L 352.935445 142.514537 
L 353.242249 138.862884 
L 353.549053 141.538801 
L 353.855857 139.188141 
L 354.162661 139.823854 
L 354.469465 147.245423 
L 354.776269 138.759404 
L 355.083073 138.78897 
L 355.389878 138.271536 
L 355.696682 144.392112 
L 356.003486 142.277995 
L 356.31029 139.084644 
L 356.617094 143.505073 
L 357.230702 141.287475 
L 357.537506 141.98232 
L 357.844311 138.049776 
L 358.151115 139.838637 
L 358.457919 149.374324 
L 358.764723 139.735141 
L 359.071527 145.855717 
L 359.378331 145.057391 
L 359.685135 139.912552 
L 359.991939 141.98232 
L 360.298744 141.420521 
L 360.605548 141.568367 
L 360.912352 141.317041 
L 361.219156 141.716212 
L 361.52596 139.217706 
L 361.832764 138.049776 
L 362.139568 149.995238 
L 362.446372 142.085801 
L 362.753177 140.474351 
L 363.059981 148.502068 
L 363.366785 140.829157 
L 363.673589 143.81553 
L 363.980393 144.392112 
L 364.594001 139.350769 
L 364.900805 139.040295 
L 365.20761 148.827308 
L 365.514414 148.22116 
L 365.821218 141.183979 
L 366.128022 140.548265 
L 366.434826 144.953895 
L 366.74163 143.431142 
L 367.048434 141.302258 
L 367.355238 141.583149 
L 367.662043 139.882986 
L 367.968847 142.928491 
L 368.275651 148.635114 
L 368.582455 140.149094 
L 368.889259 142.085801 
L 369.196063 148.635114 
L 369.502867 142.174514 
L 369.809671 142.337126 
L 370.116476 142.056235 
L 370.42328 142.13015 
L 370.730084 139.513381 
L 371.036888 138.463729 
L 371.343692 142.322343 
L 371.650496 140.237808 
L 371.9573 142.736297 
L 372.264104 143.59377 
L 372.570909 144.03729 
L 372.877713 143.135468 
L 373.184517 144.495593 
L 373.491321 142.20408 
L 373.798125 143.800747 
L 374.104929 141.997103 
L 374.411733 144.03729 
L 374.718537 142.411057 
L 375.025341 141.952754 
L 375.332146 143.59377 
L 375.63895 142.056235 
L 375.945754 141.967537 
L 376.252558 143.505073 
L 376.559362 140.474351 
L 376.866166 142.706731 
L 377.17297 143.81553 
L 377.786579 141.701413 
L 378.093383 141.98232 
L 378.400187 146.003562 
L 378.706991 143.253747 
L 379.013795 144.229484 
L 379.320599 148.250726 
L 379.627403 141.13963 
L 379.934207 143.904244 
L 380.241012 143.889445 
L 380.547816 144.273833 
L 380.85462 147.393253 
L 381.161424 147.526315 
L 381.468228 145.944431 
L 381.775032 143.091119 
L 382.081836 141.716212 
L 382.38864 139.350769 
L 382.695445 139.942118 
L 383.002249 149.906541 
L 383.309053 144.687786 
L 383.615857 144.362546 
L 383.922661 144.924329 
L 384.229465 142.174514 
L 384.536269 147.186292 
L 384.843073 144.421678 
L 385.149878 144.126003 
L 385.456682 142.869359 
L 385.763486 147.334121 
L 386.07029 146.787121 
L 386.377094 145.086957 
L 386.683898 141.13963 
L 386.990702 142.736297 
L 387.297506 145.42698 
L 387.604311 143.859879 
L 387.911115 143.889445 
L 388.217919 140.991785 
L 388.524723 140.089963 
L 389.138331 145.944431 
L 389.445135 143.04677 
L 389.751939 143.238948 
L 390.058744 145.796585 
L 390.365548 142.691948 
L 390.672352 143.401577 
L 390.979156 141.967537 
L 391.28596 144.111205 
L 391.592764 150.246564 
L 391.899568 145.914865 
L 392.206372 145.826151 
L 392.513177 142.677165 
L 392.819981 142.721514 
L 393.126785 142.322343 
L 393.433589 144.525158 
L 393.740393 141.68663 
L 394.047197 143.81553 
L 394.354001 144.643438 
L 394.660805 143.549422 
L 394.96761 145.175655 
L 395.274414 145.027826 
L 395.581218 142.026669 
L 396.194826 145.190438 
L 396.50163 145.072174 
L 396.808434 144.406895 
L 397.115238 143.26853 
L 397.422043 140.474351 
L 397.728847 140.592614 
L 398.035651 144.25905 
L 398.342455 143.076336 
L 398.649259 147.821989 
L 398.956063 147.969835 
L 399.262867 143.357228 
L 399.876476 140.755242 
L 400.18328 141.745778 
L 400.490084 141.716212 
L 400.796888 143.253747 
L 401.103692 149.551719 
L 401.410496 144.111205 
L 401.7173 147.37847 
L 402.024104 140.770025 
L 402.330909 142.159731 
L 402.637713 141.878824 
L 402.944517 140.607397 
L 403.558125 143.859879 
L 403.864929 144.111205 
L 404.478537 149.093416 
L 404.785341 142.056235 
L 405.092146 141.997103 
L 405.39895 145.840934 
L 406.012558 144.066856 
L 406.319362 143.830313 
L 406.626166 146.047911 
L 406.93297 144.643438 
L 407.239774 142.440623 
L 407.546579 144.303399 
L 407.853383 141.701413 
L 408.160187 143.002406 
L 408.466991 146.225322 
L 408.773795 146.136625 
L 409.080599 145.574826 
L 409.387403 142.440623 
L 409.694207 142.248429 
L 410.001012 142.943274 
L 410.307816 142.795429 
L 410.61462 141.597932 
L 410.921424 142.632817 
L 411.228228 142.943274 
L 411.535032 149.980456 
L 411.841836 142.97284 
L 412.14864 144.362546 
L 412.455445 142.869359 
L 412.762249 140.518699 
L 413.375857 144.525158 
L 413.682661 143.534639 
L 413.989465 146.254888 
L 414.296269 144.081639 
L 414.603073 144.185135 
L 414.909878 144.850415 
L 415.216682 143.992941 
L 415.523486 144.584306 
L 415.83029 143.549422 
L 416.137094 141.124847 
L 416.443898 143.608553 
L 416.750702 143.224166 
L 417.057506 148.073331 
L 417.364311 145.234802 
L 417.977919 142.484972 
L 418.284723 143.578988 
L 418.591527 143.682484 
L 419.205135 142.780646 
L 419.511939 143.04677 
L 420.125548 146.801904 
L 420.432352 149.581285 
L 421.04596 143.135468 
L 421.659568 144.007724 
L 422.273177 142.839794 
L 422.579981 143.785964 
L 422.886785 143.505073 
L 423.193589 144.03729 
L 423.807197 147.526315 
L 424.114001 145.737454 
L 424.420805 148.014183 
L 424.72761 146.668842 
L 425.034414 145.826151 
L 425.341218 143.372011 
L 425.648022 141.952754 
L 425.954826 142.056235 
L 426.26163 142.322343 
L 426.568434 142.366692 
L 426.875238 142.115367 
L 427.182043 143.312879 
L 427.488847 143.401577 
L 427.795651 142.928491 
L 428.409259 143.002406 
L 428.716063 144.25905 
L 429.022867 143.948592 
L 429.329671 145.64874 
L 429.636476 151.311014 
L 429.94328 143.963375 
L 430.250084 141.701413 
L 430.556888 142.765863 
L 430.863692 142.233646 
L 431.170496 142.765863 
L 431.4773 142.52932 
L 431.784104 143.726833 
L 432.090909 142.691948 
L 432.397713 143.564205 
L 432.704517 142.455406 
L 433.011321 142.943274 
L 433.318125 142.943274 
L 433.624929 142.75108 
L 433.931733 143.71205 
L 434.238537 142.706731 
L 434.545341 142.780646 
L 434.852146 152.168488 
L 435.15895 144.924329 
L 435.465754 144.495593 
L 436.079362 142.544103 
L 436.386166 142.588468 
L 436.69297 143.475507 
L 437.613383 143.682484 
L 437.920187 143.209383 
L 438.226991 143.401577 
L 438.533795 143.031987 
L 439.147403 143.948592 
L 439.454207 143.81553 
L 439.761012 149.211696 
L 440.067816 146.698408 
L 440.37462 142.411057 
L 440.681424 142.780646 
L 440.988228 142.558886 
L 441.295032 142.943274 
L 441.601836 142.691948 
L 441.90864 143.061553 
L 442.215445 142.470189 
L 442.522249 143.475507 
L 442.829053 143.150251 
L 443.135857 143.312879 
L 443.442661 143.342445 
L 443.749465 143.49029 
L 444.363073 143.238948 
L 444.669878 142.854576 
L 444.976682 143.445925 
L 445.283486 143.017189 
L 445.59029 143.091119 
L 445.897094 143.017189 
L 446.203898 142.825011 
L 446.510702 142.839794 
L 446.817506 143.505073 
L 447.124311 143.682484 
L 447.431115 143.505073 
L 447.737919 143.002406 
L 448.044723 142.839794 
L 448.351527 142.839794 
L 448.658331 143.209383 
L 448.965135 142.632817 
L 449.271939 143.105902 
L 449.578744 143.357228 
L 449.885548 143.386794 
L 450.192352 143.105902 
L 450.499156 143.475507 
L 450.80596 143.253747 
L 451.112764 143.342445 
L 451.419568 144.273833 
L 451.726372 144.096422 
L 452.033177 143.238948 
L 452.339981 143.460708 
L 452.646785 143.475507 
L 452.953589 143.150251 
L 453.260393 143.445925 
L 453.567197 143.253747 
L 454.180805 143.416359 
L 454.794414 143.061553 
L 455.101218 143.431142 
L 455.408022 143.283313 
L 455.714826 143.978158 
L 456.02163 143.372011 
L 456.328434 143.26853 
L 456.635238 143.59377 
L 456.942043 143.342445 
L 457.248847 143.608553 
L 457.555651 143.505073 
L 457.862455 143.549422 
L 458.169259 143.785964 
L 458.476063 143.460708 
L 458.782867 143.298096 
L 459.089671 143.445925 
L 459.396476 143.386794 
L 459.70328 143.682484 
L 460.316888 143.741616 
L 460.623692 143.475507 
L 460.930496 143.445925 
L 461.2373 143.638119 
L 461.850909 143.253747 
L 462.157713 143.564205 
L 462.464517 143.519856 
L 462.771321 143.682484 
L 463.078125 143.475507 
L 463.384929 143.652902 
L 463.691733 143.505073 
L 463.998537 143.505073 
L 464.305341 143.342445 
L 464.612146 143.741616 
L 465.225754 143.298096 
L 465.839362 143.564205 
L 466.146166 143.416359 
L 466.759774 143.519856 
L 467.066579 143.785964 
L 467.373383 143.623336 
L 467.680187 143.061553 
L 467.986991 144.214701 
L 468.293795 147.807206 
L 468.600599 149.374324 
L 468.907403 147.082795 
L 469.214207 143.608553 
L 469.521012 141.804909 
L 469.827816 144.599089 
L 470.13462 144.229484 
L 470.441424 147.969835 
L 471.055032 143.460708 
L 471.361836 143.830313 
L 471.66864 143.342445 
L 471.975445 143.505073 
L 472.282249 142.943274 
L 472.895857 143.342445 
L 473.202661 143.091119 
L 473.509465 143.372011 
L 473.816269 143.061553 
L 474.429878 143.298096 
L 474.736682 143.105902 
L 475.043486 143.401577 
L 476.270702 143.460708 
L 476.577506 143.623336 
L 478.111527 143.372011 
L 478.418331 143.81553 
L 478.725135 143.623336 
L 479.338744 143.608553 
L 479.645548 143.697267 
L 479.952352 144.022507 
L 480.259156 143.652902 
L 480.872764 143.978158 
L 481.486372 143.549422 
L 481.793177 143.859879 
L 482.099981 143.889445 
L 482.406785 143.756399 
L 482.713589 143.830313 
L 483.020393 144.170352 
L 483.327197 143.889445 
L 483.634001 143.978158 
L 484.554414 143.682484 
L 485.474826 143.845096 
L 485.78163 143.741616 
L 486.395238 144.199918 
L 487.929259 143.992941 
L 488.236063 144.25905 
L 488.849671 143.445925 
L 489.156476 144.170352 
L 489.46328 144.288616 
L 489.770084 143.948592 
L 490.076888 144.081639 
L 490.690496 143.667685 
L 490.9973 144.170352 
L 491.304104 144.25905 
L 491.610909 144.03729 
L 492.224517 144.421678 
L 492.531321 144.066856 
L 494.065341 144.318182 
L 494.372146 144.111205 
L 495.292558 144.052073 
L 495.906166 143.948592 
L 496.21297 144.081639 
L 496.519774 144.347763 
L 496.826579 144.406895 
L 497.133383 143.992941 
L 497.440187 144.155569 
L 497.746991 144.096422 
L 498.053795 144.25905 
L 498.360599 144.066856 
L 498.974207 144.244267 
L 499.281012 143.963375 
L 500.201424 144.199918 
L 500.508228 143.992941 
L 500.815032 144.081639 
L 501.121836 144.332964 
L 501.42864 144.066856 
L 501.735445 144.25905 
L 502.042249 144.229484 
L 502.349053 144.03729 
L 502.655857 144.096422 
L 502.962661 143.830313 
L 503.269465 144.081639 
L 503.883073 143.874662 
L 504.803486 144.185135 
L 505.11029 144.170352 
L 505.417094 143.919027 
L 505.723898 144.25905 
L 506.030702 144.185135 
L 506.337506 143.919027 
L 506.644311 144.155569 
L 506.951115 144.155569 
L 507.564723 143.845096 
L 508.178331 144.303399 
L 508.485135 144.066856 
L 508.791939 144.273833 
L 509.098744 144.303399 
L 509.712352 144.03729 
L 510.019156 144.214701 
L 510.32596 143.978158 
L 510.632764 144.140786 
L 510.939568 144.022507 
L 511.246372 144.111205 
L 512.166785 144.052073 
L 512.473589 144.362546 
L 512.780393 144.03729 
L 513.087197 144.111205 
L 513.394001 144.007724 
L 513.700805 144.126003 
L 514.00761 144.096422 
L 514.314414 143.919027 
L 514.928022 144.155569 
L 515.234826 143.919027 
L 515.54163 144.214701 
L 515.848434 143.963375 
L 516.462043 144.170352 
L 516.768847 143.948592 
L 517.689259 144.052073 
L 517.996063 143.785964 
L 518.302867 144.022507 
L 518.609671 144.111205 
L 518.916476 143.93381 
L 519.530084 143.904244 
L 519.836888 144.111205 
L 520.7573 143.874662 
L 521.677713 143.93381 
L 521.984517 143.623336 
L 522.291321 143.889445 
L 522.598125 143.859879 
L 522.904929 144.022507 
L 523.518537 143.859879 
L 523.825341 143.93381 
L 524.745754 143.81553 
L 525.666166 143.919027 
L 526.586579 144.170352 
L 526.893383 143.830313 
L 527.813795 144.052073 
L 528.120599 143.904244 
L 529.347816 143.889445 
L 529.65462 143.682484 
L 529.961424 143.919027 
L 530.268228 143.889445 
L 530.575032 144.066856 
L 530.881836 144.081639 
L 531.18864 143.919027 
L 531.495445 143.978158 
L 531.802249 143.800747 
L 532.109053 144.022507 
L 533.029465 143.904244 
L 533.336269 144.140786 
L 533.643073 143.859879 
L 533.949878 143.889445 
L 534.256682 143.800747 
L 534.563486 143.845096 
L 534.87029 143.564205 
L 535.177094 143.81553 
L 535.483898 143.800747 
L 535.790702 143.963375 
L 536.097506 143.904244 
L 536.404311 144.066856 
L 536.711115 143.726833 
L 537.017919 144.096422 
L 537.324723 143.904244 
L 537.938331 143.874662 
L 538.551939 144.111205 
L 539.165548 143.845096 
L 539.472352 143.830313 
L 539.779156 144.052073 
L 540.392764 143.919027 
L 541.619981 144.066856 
L 542.233589 143.93381 
L 542.540393 143.992941 
L 543.76761 143.771181 
L 544.074414 144.096422 
L 544.381218 143.845096 
L 544.688022 143.992941 
L 544.994826 143.785964 
L 545.608434 143.93381 
L 545.915238 144.140786 
L 546.528847 144.126003 
L 546.835651 143.771181 
L 547.142455 143.992941 
L 547.756063 143.756399 
L 548.062867 144.081639 
L 548.369671 143.948592 
L 551.437713 144.022507 
L 551.744517 143.771181 
L 552.358125 143.963375 
L 552.971733 143.93381 
L 553.278537 144.126003 
L 553.585341 143.904244 
L 553.892146 143.830313 
L 554.505754 143.992941 
L 554.812558 143.830313 
L 555.119362 144.199918 
L 555.426166 143.859879 
L 555.73297 144.007724 
L 556.039774 143.992941 
L 556.346579 144.096422 
L 556.653383 143.992941 
L 557.266991 144.229484 
L 557.573795 144.052073 
L 558.494207 144.022507 
L 558.801012 144.155569 
L 559.107816 144.081639 
L 559.41462 144.140786 
L 559.721424 143.978158 
L 560.028228 144.126003 
L 560.335032 143.93381 
L 560.641836 144.185135 
L 560.94864 144.140786 
L 561.255445 144.318182 
L 561.869053 144.244267 
L 562.175857 143.904244 
L 562.482661 144.022507 
L 562.789465 144.007724 
L 563.709878 144.303399 
L 564.016682 144.066856 
L 564.323486 143.978158 
L 564.63029 144.495593 
L 564.937094 144.244267 
L 565.550702 144.185135 
L 566.164311 144.066856 
L 566.777919 144.377329 
L 568.005135 144.170352 
L 568.311939 143.845096 
L 568.618744 144.229484 
L 569.232352 144.229484 
L 569.539156 144.244267 
L 569.84596 143.889445 
L 570.459568 144.244267 
L 570.766372 144.25905 
L 571.073177 144.066856 
L 571.379981 144.052073 
L 571.686785 143.874662 
L 571.993589 144.096422 
L 572.300393 144.155569 
L 572.607197 143.919027 
L 573.220805 144.066856 
L 573.52761 143.830313 
L 574.448022 144.185135 
L 575.06163 143.785964 
L 575.368434 144.03729 
L 575.675238 143.978158 
L 575.982043 144.140786 
L 576.288847 143.992941 
L 576.595651 144.03729 
L 576.902455 143.904244 
L 577.516063 144.244267 
L 577.822867 144.140786 
L 578.436476 144.244267 
L 578.74328 143.845096 
L 579.050084 144.096422 
L 579.356888 143.978158 
L 579.970496 144.096422 
L 580.2773 144.022507 
L 580.584104 144.111205 
L 580.890909 143.992941 
L 581.504517 144.170352 
L 581.811321 143.874662 
L 582.424929 144.199918 
L 583.345341 144.081639 
L 583.652146 144.214701 
L 583.95895 144.199918 
L 584.265754 143.978158 
L 584.572558 144.199918 
L 584.879362 144.111205 
L 585.49297 144.214701 
L 585.799774 143.919027 
L 586.106579 144.214701 
L 586.413383 144.214701 
L 587.026991 143.859879 
L 587.333795 144.052073 
L 587.640599 143.963375 
L 587.947403 144.185135 
L 588.561012 144.066856 
L 589.17462 143.978158 
L 589.481424 144.052073 
L 589.788228 144.288616 
L 590.095032 144.03729 
L 590.401836 144.03729 
L 590.70864 143.874662 
L 591.015445 144.214701 
L 592.242661 143.992941 
L 593.469878 144.140786 
L 593.776682 144.007724 
L 594.39029 144.214701 
L 594.697094 144.140786 
L 595.003898 144.214701 
L 595.617506 144.007724 
L 596.231115 143.948592 
L 596.537919 144.126003 
L 596.844723 143.978158 
L 597.151527 144.155569 
L 598.071939 144.052073 
L 598.378744 144.288616 
L 598.685548 144.03729 
L 599.299156 144.185135 
L 599.60596 144.081639 
L 600.833177 144.25905 
L 601.139981 144.25905 
L 601.753589 144.007724 
L 602.060393 144.185135 
L 602.674001 143.874662 
L 602.980805 144.052073 
L 603.901218 143.992941 
L 604.208022 143.859879 
L 604.514826 144.03729 
L 604.82163 143.800747 
L 605.128434 144.199918 
L 605.435238 144.03729 
L 606.969259 143.889445 
L 607.276063 144.022507 
L 607.889671 143.948592 
L 608.50328 144.096422 
L 608.810084 143.978158 
L 609.116888 144.155569 
L 609.423692 143.919027 
L 609.730496 144.111205 
L 610.344104 144.052073 
L 610.650909 144.214701 
L 611.264517 143.963375 
L 611.571321 144.229484 
L 611.878125 144.199918 
L 612.184929 143.904244 
L 612.798537 144.214701 
L 613.105341 143.963375 
L 614.025754 144.066856 
L 614.332558 143.904244 
L 614.639362 144.096422 
L 614.946166 144.007724 
L 615.25297 144.081639 
L 615.559774 144.007724 
L 615.866579 144.288616 
L 616.480187 144.066856 
L 616.786991 144.007724 
L 617.093795 143.830313 
L 617.400599 144.007724 
L 617.707403 144.007724 
L 618.014207 143.830313 
L 618.627816 144.066856 
L 619.241424 143.992941 
L 619.548228 144.096422 
L 619.855032 143.874662 
L 620.46864 144.303399 
L 620.775445 144.229484 
L 621.082249 143.859879 
L 621.389053 144.022507 
L 622.002661 144.03729 
L 622.309465 144.199918 
L 623.536682 143.904244 
L 623.843486 144.081639 
L 624.15029 143.919027 
L 624.763898 144.185135 
L 625.070702 143.919027 
L 625.377506 144.244267 
L 625.684311 144.052073 
L 625.991115 144.007724 
L 626.297919 144.096422 
L 626.604723 143.904244 
L 626.911527 144.185135 
L 627.218331 143.978158 
L 628.138744 144.052073 
L 629.36596 143.963375 
L 630.286372 144.096422 
L 630.593177 143.948592 
L 630.899981 144.155569 
L 631.206785 144.066856 
L 631.513589 144.126003 
L 631.820393 144.022507 
L 632.434001 144.081639 
L 633.04761 143.800747 
L 633.661218 144.03729 
L 633.968022 143.830313 
L 634.274826 144.022507 
L 635.195238 144.03729 
L 635.808847 144.170352 
L 636.115651 143.992941 
L 636.422455 144.170352 
L 637.036063 144.170352 
L 637.342867 144.081639 
L 637.956476 144.081639 
L 638.26328 144.052073 
L 638.570084 143.904244 
L 638.876888 143.919027 
L 639.490496 144.25905 
L 639.7973 143.889445 
L 640.104104 143.948592 
L 640.410909 144.170352 
L 640.717713 143.845096 
L 641.024517 144.155569 
L 641.638125 143.93381 
L 641.944929 144.052073 
L 642.558537 143.948592 
L 642.865341 144.126003 
L 643.172146 143.992941 
L 643.47895 144.185135 
L 643.785754 143.963375 
L 644.092558 144.170352 
L 644.399362 144.022507 
L 644.706166 144.111205 
L 645.01297 143.963375 
L 645.319774 144.111205 
L 645.626579 144.066856 
L 645.933383 144.155569 
L 646.240187 144.052073 
L 646.546991 144.170352 
L 647.160599 143.93381 
L 647.467403 144.229484 
L 647.774207 144.126003 
L 648.081012 144.140786 
L 648.387816 143.948592 
L 648.69462 143.904244 
L 649.001424 144.03729 
L 649.921836 143.845096 
L 650.22864 144.081639 
L 650.535445 143.830313 
L 651.455857 144.199918 
L 651.762661 143.963375 
L 652.069465 143.93381 
L 652.683073 144.140786 
L 652.989878 143.963375 
L 653.296682 144.03729 
L 653.603486 143.93381 
L 653.91029 144.170352 
L 654.217094 144.244267 
L 654.523898 144.155569 
L 654.830702 144.377329 
L 655.137506 144.362546 
L 655.444311 143.978158 
L 656.057919 144.406895 
L 656.364723 144.332964 
L 656.978331 143.93381 
L 657.591939 144.392112 
L 657.898744 144.185135 
L 658.512352 144.140786 
L 659.12596 144.155569 
L 659.739568 144.126003 
L 660.046372 143.963375 
L 660.353177 144.318182 
L 660.659981 144.170352 
L 660.966785 144.392112 
L 661.273589 144.081639 
L 661.580393 144.273833 
L 662.500805 144.066856 
L 663.421218 144.318182 
L 663.728022 144.022507 
L 664.648434 144.170352 
L 664.955238 143.948592 
L 665.262043 144.170352 
L 665.875651 144.126003 
L 666.182455 144.081639 
L 666.796063 144.185135 
L 667.409671 144.229484 
L 667.716476 144.229484 
L 668.02328 144.111205 
L 668.330084 144.288616 
L 668.636888 144.096422 
L 669.5573 143.963375 
L 669.864104 143.919027 
L 670.170909 144.111205 
L 670.784517 143.992941 
L 671.091321 144.25905 
L 671.398125 143.93381 
L 671.704929 144.126003 
L 672.625341 144.214701 
L 672.932146 144.096422 
L 673.23895 144.140786 
L 673.852558 144.347763 
L 674.159362 144.421678 
L 674.466166 144.288616 
L 674.77297 144.332964 
L 675.386579 144.111205 
L 675.693383 144.066856 
L 676.000187 144.140786 
L 676.613795 144.052073 
L 676.920599 144.03729 
L 677.534207 144.377329 
L 677.841012 144.052073 
L 678.45462 144.185135 
L 679.375032 144.052073 
L 679.681836 144.155569 
L 680.295445 144.03729 
L 680.602249 144.170352 
L 681.215857 144.007724 
L 681.522661 144.288616 
L 681.829465 144.066856 
L 682.136269 144.140786 
L 683.056682 144.096422 
L 684.590702 144.111205 
L 684.897506 144.244267 
L 685.204311 144.096422 
L 686.431527 144.111205 
L 687.045135 144.03729 
L 687.351939 144.347763 
L 687.658744 144.288616 
L 687.965548 144.362546 
L 688.272352 144.140786 
L 688.579156 144.273833 
L 688.88596 144.066856 
L 689.499568 144.170352 
L 689.806372 143.859879 
L 690.113177 144.273833 
L 690.419981 144.052073 
L 690.726785 144.170352 
L 691.340393 144.03729 
L 691.647197 144.155569 
L 692.874414 143.904244 
L 693.488022 144.318182 
L 693.794826 144.185135 
L 694.10163 144.199918 
L 694.408434 144.052073 
L 694.715238 144.318182 
L 695.328847 143.93381 
L 695.635651 144.199918 
L 696.862867 143.948592 
L 697.169671 144.199918 
L 697.78328 144.066856 
L 698.090084 144.244267 
L 698.396888 144.007724 
L 698.703692 144.066856 
L 699.010496 143.992941 
L 699.3173 144.126003 
L 699.624104 144.126003 
L 699.930909 144.436461 
L 700.237713 144.096422 
L 700.544517 144.03729 
L 700.851321 144.140786 
L 701.158125 144.066856 
L 701.158125 144.066856 
" clip-path="url(#p852a269f93)" style="fill: none; stroke: #1f77b4; stroke-width: 1.5; stroke-linecap: square"/>
   </g>
   <g id="patch_3">
    <path d="M 344.038125 311.6435 
L 344.038125 45.5315 
" style="fill: none; stroke: #000000; stroke-width: 0.8; stroke-linejoin: miter; stroke-linecap: square"/>
   </g>
   <g id="patch_4">
    <path d="M 701.158125 311.6435 
L 701.158125 45.5315 
" style="fill: none; stroke: #000000; stroke-width: 0.8; stroke-linejoin: miter; stroke-linecap: square"/>
   </g>
   <g id="patch_5">
    <path d="M 344.038125 311.6435 
L 701.158125 311.6435 
" style="fill: none; stroke: #000000; stroke-width: 0.8; stroke-linejoin: miter; stroke-linecap: square"/>
   </g>
   <g id="patch_6">
    <path d="M 344.038125 45.5315 
L 701.158125 45.5315 
" style="fill: none; stroke: #000000; stroke-width: 0.8; stroke-linejoin: miter; stroke-linecap: square"/>
   </g>
   <g id="text_19">
    <!-- Accuracy of the 15_05_25_CINIC10_model_(1024+512+512+1)_ct_save_2 on the validation set -->
    <g transform="translate(7.2 25.5315) scale(0.264 -0.264)">
     <defs>
      <path id="TimesNewRomanPSMT-68" d="M 1041 4444 
L 1041 2350 
Q 1388 2731 1591 2839 
Q 1794 2947 1997 2947 
Q 2241 2947 2416 2812 
Q 2591 2678 2675 2391 
Q 2734 2191 2734 1659 
L 2734 647 
Q 2734 375 2778 275 
Q 2809 200 2884 156 
Q 2959 113 3159 113 
L 3159 0 
L 1753 0 
L 1753 113 
L 1819 113 
Q 2019 113 2097 173 
Q 2175 234 2206 353 
Q 2216 403 2216 647 
L 2216 1659 
Q 2216 2128 2167 2275 
Q 2119 2422 2012 2495 
Q 1906 2569 1756 2569 
Q 1603 2569 1437 2487 
Q 1272 2406 1041 2159 
L 1041 647 
Q 1041 353 1073 281 
Q 1106 209 1195 161 
Q 1284 113 1503 113 
L 1503 0 
L 84 0 
L 84 113 
Q 275 113 384 172 
Q 447 203 484 290 
Q 522 378 522 647 
L 522 3238 
Q 522 3728 498 3840 
Q 475 3953 426 3993 
Q 378 4034 297 4034 
Q 231 4034 84 3984 
L 41 4094 
L 897 4444 
L 1041 4444 
z
" transform="scale(0.015625)"/>
      <path id="TimesNewRomanPSMT-5f" d="M 3256 -1381 
L -53 -1381 
L -53 -1119 
L 3256 -1119 
L 3256 -1381 
z
" transform="scale(0.015625)"/>
      <path id="TimesNewRomanPSMT-43" d="M 3853 4334 
L 3950 2894 
L 3853 2894 
Q 3659 3541 3300 3825 
Q 2941 4109 2438 4109 
Q 2016 4109 1675 3895 
Q 1334 3681 1139 3212 
Q 944 2744 944 2047 
Q 944 1472 1128 1050 
Q 1313 628 1683 403 
Q 2053 178 2528 178 
Q 2941 178 3256 354 
Q 3572 531 3950 1056 
L 4047 994 
Q 3728 428 3303 165 
Q 2878 -97 2294 -97 
Q 1241 -97 663 684 
Q 231 1266 231 2053 
Q 231 2688 515 3219 
Q 800 3750 1298 4042 
Q 1797 4334 2388 4334 
Q 2847 4334 3294 4109 
Q 3425 4041 3481 4041 
Q 3566 4041 3628 4100 
Q 3709 4184 3744 4334 
L 3853 4334 
z
" transform="scale(0.015625)"/>
      <path id="TimesNewRomanPSMT-49" d="M 1975 116 
L 1975 0 
L 159 0 
L 159 116 
L 309 116 
Q 572 116 691 269 
Q 766 369 766 750 
L 766 3488 
Q 766 3809 725 3913 
Q 694 3991 597 4047 
Q 459 4122 309 4122 
L 159 4122 
L 159 4238 
L 1975 4238 
L 1975 4122 
L 1822 4122 
Q 1563 4122 1444 3969 
Q 1366 3869 1366 3488 
L 1366 750 
Q 1366 428 1406 325 
Q 1438 247 1538 191 
Q 1672 116 1822 116 
L 1975 116 
z
" transform="scale(0.015625)"/>
      <path id="TimesNewRomanPSMT-64" d="M 2222 322 
Q 2013 103 1813 7 
Q 1613 -88 1381 -88 
Q 913 -88 563 304 
Q 213 697 213 1313 
Q 213 1928 600 2439 
Q 988 2950 1597 2950 
Q 1975 2950 2222 2709 
L 2222 3238 
Q 2222 3728 2198 3840 
Q 2175 3953 2125 3993 
Q 2075 4034 2000 4034 
Q 1919 4034 1784 3984 
L 1744 4094 
L 2597 4444 
L 2738 4444 
L 2738 1134 
Q 2738 631 2761 520 
Q 2784 409 2836 365 
Q 2888 322 2956 322 
Q 3041 322 3181 375 
L 3216 266 
L 2366 -88 
L 2222 -88 
L 2222 322 
z
M 2222 541 
L 2222 2016 
Q 2203 2228 2109 2403 
Q 2016 2578 1861 2667 
Q 1706 2756 1559 2756 
Q 1284 2756 1069 2509 
Q 784 2184 784 1559 
Q 784 928 1059 592 
Q 1334 256 1672 256 
Q 1956 256 2222 541 
z
" transform="scale(0.015625)"/>
      <path id="TimesNewRomanPSMT-6c" d="M 1184 4444 
L 1184 647 
Q 1184 378 1223 290 
Q 1263 203 1344 158 
Q 1425 113 1647 113 
L 1647 0 
L 244 0 
L 244 113 
Q 441 113 512 153 
Q 584 194 625 287 
Q 666 381 666 647 
L 666 3247 
Q 666 3731 644 3842 
Q 622 3953 573 3993 
Q 525 4034 450 4034 
Q 369 4034 244 3984 
L 191 4094 
L 1044 4444 
L 1184 4444 
z
" transform="scale(0.015625)"/>
      <path id="TimesNewRomanPSMT-28" d="M 1988 -1253 
L 1988 -1369 
Q 1516 -1131 1200 -813 
Q 750 -359 506 256 
Q 263 872 263 1534 
Q 263 2503 741 3301 
Q 1219 4100 1988 4444 
L 1988 4313 
Q 1603 4100 1356 3731 
Q 1109 3363 987 2797 
Q 866 2231 866 1616 
Q 866 947 969 400 
Q 1050 -31 1165 -292 
Q 1281 -553 1476 -793 
Q 1672 -1034 1988 -1253 
z
" transform="scale(0.015625)"/>
      <path id="TimesNewRomanPSMT-2b" d="M 1672 441 
L 1672 2000 
L 116 2000 
L 116 2256 
L 1672 2256 
L 1672 3809 
L 1922 3809 
L 1922 2256 
L 3484 2256 
L 3484 2000 
L 1922 2000 
L 1922 441 
L 1672 441 
z
" transform="scale(0.015625)"/>
      <path id="TimesNewRomanPSMT-29" d="M 144 4313 
L 144 4444 
Q 619 4209 934 3891 
Q 1381 3434 1625 2820 
Q 1869 2206 1869 1541 
Q 1869 572 1392 -226 
Q 916 -1025 144 -1369 
L 144 -1253 
Q 528 -1038 776 -670 
Q 1025 -303 1145 264 
Q 1266 831 1266 1447 
Q 1266 2113 1163 2663 
Q 1084 3094 967 3353 
Q 850 3613 656 3853 
Q 463 4094 144 4313 
z
" transform="scale(0.015625)"/>
      <path id="TimesNewRomanPSMT-76" d="M 53 2863 
L 1400 2863 
L 1400 2747 
L 1313 2747 
Q 1191 2747 1127 2687 
Q 1063 2628 1063 2528 
Q 1063 2419 1128 2269 
L 1794 688 
L 2463 2328 
Q 2534 2503 2534 2594 
Q 2534 2638 2509 2666 
Q 2475 2713 2422 2730 
Q 2369 2747 2206 2747 
L 2206 2863 
L 3141 2863 
L 3141 2747 
Q 2978 2734 2916 2681 
Q 2806 2588 2719 2369 
L 1703 -88 
L 1575 -88 
L 553 2328 
Q 484 2497 421 2570 
Q 359 2644 263 2694 
Q 209 2722 53 2747 
L 53 2863 
z
" transform="scale(0.015625)"/>
     </defs>
     <use xlink:href="#TimesNewRomanPSMT-41"/>
     <use xlink:href="#TimesNewRomanPSMT-63" transform="translate(72.216797 0)"/>
     <use xlink:href="#TimesNewRomanPSMT-63" transform="translate(116.601562 0)"/>
     <use xlink:href="#TimesNewRomanPSMT-75" transform="translate(160.986328 0)"/>
     <use xlink:href="#TimesNewRomanPSMT-72" transform="translate(210.986328 0)"/>
     <use xlink:href="#TimesNewRomanPSMT-61" transform="translate(244.287109 0)"/>
     <use xlink:href="#TimesNewRomanPSMT-63" transform="translate(288.671875 0)"/>
     <use xlink:href="#TimesNewRomanPSMT-79" transform="translate(333.056641 0)"/>
     <use xlink:href="#TimesNewRomanPSMT-20" transform="translate(383.056641 0)"/>
     <use xlink:href="#TimesNewRomanPSMT-6f" transform="translate(408.056641 0)"/>
     <use xlink:href="#TimesNewRomanPSMT-66" transform="translate(458.056641 0)"/>
     <use xlink:href="#TimesNewRomanPSMT-20" transform="translate(491.357422 0)"/>
     <use xlink:href="#TimesNewRomanPSMT-74" transform="translate(516.357422 0)"/>
     <use xlink:href="#TimesNewRomanPSMT-68" transform="translate(544.140625 0)"/>
     <use xlink:href="#TimesNewRomanPSMT-65" transform="translate(594.140625 0)"/>
     <use xlink:href="#TimesNewRomanPSMT-20" transform="translate(638.525391 0)"/>
     <use xlink:href="#TimesNewRomanPSMT-31" transform="translate(663.525391 0)"/>
     <use xlink:href="#TimesNewRomanPSMT-35" transform="translate(713.525391 0)"/>
     <use xlink:href="#TimesNewRomanPSMT-5f" transform="translate(763.525391 0)"/>
     <use xlink:href="#TimesNewRomanPSMT-30" transform="translate(813.525391 0)"/>
     <use xlink:href="#TimesNewRomanPSMT-35" transform="translate(863.525391 0)"/>
     <use xlink:href="#TimesNewRomanPSMT-5f" transform="translate(913.525391 0)"/>
     <use xlink:href="#TimesNewRomanPSMT-32" transform="translate(963.525391 0)"/>
     <use xlink:href="#TimesNewRomanPSMT-35" transform="translate(1013.525391 0)"/>
     <use xlink:href="#TimesNewRomanPSMT-5f" transform="translate(1063.525391 0)"/>
     <use xlink:href="#TimesNewRomanPSMT-43" transform="translate(1113.525391 0)"/>
     <use xlink:href="#TimesNewRomanPSMT-49" transform="translate(1180.224609 0)"/>
     <use xlink:href="#TimesNewRomanPSMT-4e" transform="translate(1213.525391 0)"/>
     <use xlink:href="#TimesNewRomanPSMT-49" transform="translate(1285.742188 0)"/>
     <use xlink:href="#TimesNewRomanPSMT-43" transform="translate(1319.042969 0)"/>
     <use xlink:href="#TimesNewRomanPSMT-31" transform="translate(1385.742188 0)"/>
     <use xlink:href="#TimesNewRomanPSMT-30" transform="translate(1435.742188 0)"/>
     <use xlink:href="#TimesNewRomanPSMT-5f" transform="translate(1485.742188 0)"/>
     <use xlink:href="#TimesNewRomanPSMT-6d" transform="translate(1535.742188 0)"/>
     <use xlink:href="#TimesNewRomanPSMT-6f" transform="translate(1613.525391 0)"/>
     <use xlink:href="#TimesNewRomanPSMT-64" transform="translate(1663.525391 0)"/>
     <use xlink:href="#TimesNewRomanPSMT-65" transform="translate(1713.525391 0)"/>
     <use xlink:href="#TimesNewRomanPSMT-6c" transform="translate(1757.910156 0)"/>
     <use xlink:href="#TimesNewRomanPSMT-5f" transform="translate(1785.693359 0)"/>
     <use xlink:href="#TimesNewRomanPSMT-28" transform="translate(1835.693359 0)"/>
     <use xlink:href="#TimesNewRomanPSMT-31" transform="translate(1868.994141 0)"/>
     <use xlink:href="#TimesNewRomanPSMT-30" transform="translate(1918.994141 0)"/>
     <use xlink:href="#TimesNewRomanPSMT-32" transform="translate(1968.994141 0)"/>
     <use xlink:href="#TimesNewRomanPSMT-34" transform="translate(2018.994141 0)"/>
     <use xlink:href="#TimesNewRomanPSMT-2b" transform="translate(2068.994141 0)"/>
     <use xlink:href="#TimesNewRomanPSMT-35" transform="translate(2125.390625 0)"/>
     <use xlink:href="#TimesNewRomanPSMT-31" transform="translate(2175.390625 0)"/>
     <use xlink:href="#TimesNewRomanPSMT-32" transform="translate(2225.390625 0)"/>
     <use xlink:href="#TimesNewRomanPSMT-2b" transform="translate(2275.390625 0)"/>
     <use xlink:href="#TimesNewRomanPSMT-35" transform="translate(2331.787109 0)"/>
     <use xlink:href="#TimesNewRomanPSMT-31" transform="translate(2381.787109 0)"/>
     <use xlink:href="#TimesNewRomanPSMT-32" transform="translate(2431.787109 0)"/>
     <use xlink:href="#TimesNewRomanPSMT-2b" transform="translate(2481.787109 0)"/>
     <use xlink:href="#TimesNewRomanPSMT-31" transform="translate(2538.183594 0)"/>
     <use xlink:href="#TimesNewRomanPSMT-29" transform="translate(2588.183594 0)"/>
     <use xlink:href="#TimesNewRomanPSMT-5f" transform="translate(2621.484375 0)"/>
     <use xlink:href="#TimesNewRomanPSMT-63" transform="translate(2671.484375 0)"/>
     <use xlink:href="#TimesNewRomanPSMT-74" transform="translate(2715.869141 0)"/>
     <use xlink:href="#TimesNewRomanPSMT-5f" transform="translate(2743.652344 0)"/>
     <use xlink:href="#TimesNewRomanPSMT-73" transform="translate(2793.652344 0)"/>
     <use xlink:href="#TimesNewRomanPSMT-61" transform="translate(2832.568359 0)"/>
     <use xlink:href="#TimesNewRomanPSMT-76" transform="translate(2876.953125 0)"/>
     <use xlink:href="#TimesNewRomanPSMT-65" transform="translate(2926.953125 0)"/>
     <use xlink:href="#TimesNewRomanPSMT-5f" transform="translate(2971.337891 0)"/>
     <use xlink:href="#TimesNewRomanPSMT-32" transform="translate(3021.337891 0)"/>
     <use xlink:href="#TimesNewRomanPSMT-20" transform="translate(3071.337891 0)"/>
     <use xlink:href="#TimesNewRomanPSMT-6f" transform="translate(3096.337891 0)"/>
     <use xlink:href="#TimesNewRomanPSMT-6e" transform="translate(3146.337891 0)"/>
     <use xlink:href="#TimesNewRomanPSMT-20" transform="translate(3196.337891 0)"/>
     <use xlink:href="#TimesNewRomanPSMT-74" transform="translate(3221.337891 0)"/>
     <use xlink:href="#TimesNewRomanPSMT-68" transform="translate(3249.121094 0)"/>
     <use xlink:href="#TimesNewRomanPSMT-65" transform="translate(3299.121094 0)"/>
     <use xlink:href="#TimesNewRomanPSMT-20" transform="translate(3343.505859 0)"/>
     <use xlink:href="#TimesNewRomanPSMT-76" transform="translate(3368.505859 0)"/>
     <use xlink:href="#TimesNewRomanPSMT-61" transform="translate(3418.505859 0)"/>
     <use xlink:href="#TimesNewRomanPSMT-6c" transform="translate(3462.890625 0)"/>
     <use xlink:href="#TimesNewRomanPSMT-69" transform="translate(3490.673828 0)"/>
     <use xlink:href="#TimesNewRomanPSMT-64" transform="translate(3518.457031 0)"/>
     <use xlink:href="#TimesNewRomanPSMT-61" transform="translate(3568.457031 0)"/>
     <use xlink:href="#TimesNewRomanPSMT-74" transform="translate(3612.841797 0)"/>
     <use xlink:href="#TimesNewRomanPSMT-69" transform="translate(3640.625 0)"/>
     <use xlink:href="#TimesNewRomanPSMT-6f" transform="translate(3668.408203 0)"/>
     <use xlink:href="#TimesNewRomanPSMT-6e" transform="translate(3718.408203 0)"/>
     <use xlink:href="#TimesNewRomanPSMT-20" transform="translate(3768.408203 0)"/>
     <use xlink:href="#TimesNewRomanPSMT-73" transform="translate(3793.408203 0)"/>
     <use xlink:href="#TimesNewRomanPSMT-65" transform="translate(3832.324219 0)"/>
     <use xlink:href="#TimesNewRomanPSMT-74" transform="translate(3876.708984 0)"/>
    </g>
   </g>
   <g id="legend_1">
    <g id="patch_7">
     <path d="M 448.587813 94.278687 
L 685.758125 94.278687 
Q 690.158125 94.278687 690.158125 89.878687 
L 690.158125 60.9315 
Q 690.158125 56.5315 685.758125 56.5315 
L 448.587813 56.5315 
Q 444.187813 56.5315 444.187813 60.9315 
L 444.187813 89.878687 
Q 444.187813 94.278687 448.587813 94.278687 
z
" style="fill: #ffffff; opacity: 0.8; stroke: #cccccc; stroke-linejoin: miter"/>
    </g>
    <g id="line2d_34">
     <path d="M 452.987813 73.0315 
L 474.987813 73.0315 
L 496.987813 73.0315 
" style="fill: none; stroke: #1f77b4; stroke-width: 1.5; stroke-linecap: square"/>
    </g>
    <g id="text_20">
     <!-- Best accuracy 0.66 -->
     <g transform="translate(514.587813 80.7315) scale(0.22 -0.22)">
      <defs>
       <path id="TimesNewRomanPSMT-42" d="M 2956 2163 
Q 3397 2069 3616 1863 
Q 3919 1575 3919 1159 
Q 3919 844 3719 555 
Q 3519 266 3170 133 
Q 2822 0 2106 0 
L 106 0 
L 106 116 
L 266 116 
Q 531 116 647 284 
Q 719 394 719 750 
L 719 3488 
Q 719 3881 628 3984 
Q 506 4122 266 4122 
L 106 4122 
L 106 4238 
L 1938 4238 
Q 2450 4238 2759 4163 
Q 3228 4050 3475 3764 
Q 3722 3478 3722 3106 
Q 3722 2788 3528 2536 
Q 3334 2284 2956 2163 
z
M 1319 2331 
Q 1434 2309 1582 2298 
Q 1731 2288 1909 2288 
Q 2366 2288 2595 2386 
Q 2825 2484 2947 2687 
Q 3069 2891 3069 3131 
Q 3069 3503 2766 3765 
Q 2463 4028 1881 4028 
Q 1569 4028 1319 3959 
L 1319 2331 
z
M 1319 306 
Q 1681 222 2034 222 
Q 2600 222 2897 476 
Q 3194 731 3194 1106 
Q 3194 1353 3059 1581 
Q 2925 1809 2622 1940 
Q 2319 2072 1872 2072 
Q 1678 2072 1540 2065 
Q 1403 2059 1319 2044 
L 1319 306 
z
" transform="scale(0.015625)"/>
      </defs>
      <use xlink:href="#TimesNewRomanPSMT-42"/>
      <use xlink:href="#TimesNewRomanPSMT-65" transform="translate(66.699219 0)"/>
      <use xlink:href="#TimesNewRomanPSMT-73" transform="translate(111.083984 0)"/>
      <use xlink:href="#TimesNewRomanPSMT-74" transform="translate(150 0)"/>
      <use xlink:href="#TimesNewRomanPSMT-20" transform="translate(177.783203 0)"/>
      <use xlink:href="#TimesNewRomanPSMT-61" transform="translate(202.783203 0)"/>
      <use xlink:href="#TimesNewRomanPSMT-63" transform="translate(247.167969 0)"/>
      <use xlink:href="#TimesNewRomanPSMT-63" transform="translate(291.552734 0)"/>
      <use xlink:href="#TimesNewRomanPSMT-75" transform="translate(335.9375 0)"/>
      <use xlink:href="#TimesNewRomanPSMT-72" transform="translate(385.9375 0)"/>
      <use xlink:href="#TimesNewRomanPSMT-61" transform="translate(419.238281 0)"/>
      <use xlink:href="#TimesNewRomanPSMT-63" transform="translate(463.623047 0)"/>
      <use xlink:href="#TimesNewRomanPSMT-79" transform="translate(508.007812 0)"/>
      <use xlink:href="#TimesNewRomanPSMT-20" transform="translate(558.007812 0)"/>
      <use xlink:href="#TimesNewRomanPSMT-30" transform="translate(583.007812 0)"/>
      <use xlink:href="#TimesNewRomanPSMT-2e" transform="translate(633.007812 0)"/>
      <use xlink:href="#TimesNewRomanPSMT-36" transform="translate(658.007812 0)"/>
      <use xlink:href="#TimesNewRomanPSMT-36" transform="translate(708.007812 0)"/>
     </g>
    </g>
   </g>
  </g>
 </g>
 <defs>
  <clipPath id="p852a269f93">
   <rect x="344.038125" y="45.5315" width="357.12" height="266.112"/>
  </clipPath>
 </defs>
</svg>
