<?xml version="1.0" encoding="utf-8" standalone="no"?>
<!DOCTYPE svg PUBLIC "-//W3C//DTD SVG 1.1//EN"
  "http://www.w3.org/Graphics/SVG/1.1/DTD/svg11.dtd">
<svg xmlns:xlink="http://www.w3.org/1999/xlink" width="978.23925pt" height="383.265687pt" viewBox="0 0 978.23925 383.265687" xmlns="http://www.w3.org/2000/svg" version="1.1">
 <metadata>
  <rdf:RDF xmlns:dc="http://purl.org/dc/elements/1.1/" xmlns:cc="http://creativecommons.org/ns#" xmlns:rdf="http://www.w3.org/1999/02/22-rdf-syntax-ns#">
   <cc:Work>
    <dc:type rdf:resource="http://purl.org/dc/dcmitype/StillImage"/>
    <dc:date>2025-05-21T11:12:46.580183</dc:date>
    <dc:format>image/svg+xml</dc:format>
    <dc:creator>
     <cc:Agent>
      <dc:title>Matplotlib v3.10.1, https://matplotlib.org/</dc:title>
     </cc:Agent>
    </dc:creator>
   </cc:Work>
  </rdf:RDF>
 </metadata>
 <defs>
  <style type="text/css">*{stroke-linejoin: round; stroke-linecap: butt}</style>
 </defs>
 <g id="figure_1">
  <g id="patch_1">
   <path d="M -0 383.265687 
L 978.23925 383.265687 
L 978.23925 0 
L -0 0 
z
" style="fill: #ffffff"/>
  </g>
  <g id="axes_1">
   <g id="patch_2">
    <path d="M 310.559625 311.6435 
L 667.679625 311.6435 
L 667.679625 45.5315 
L 310.559625 45.5315 
z
" style="fill: #ffffff"/>
   </g>
   <g id="matplotlib.axis_1">
    <g id="xtick_1">
     <g id="line2d_1">
      <path d="M 310.559625 311.6435 
L 310.559625 45.5315 
" clip-path="url(#p18460005a3)" style="fill: none; stroke: #b0b0b0; stroke-opacity: 0.3; stroke-width: 0.8; stroke-linecap: square"/>
     </g>
     <g id="line2d_2">
      <defs>
       <path id="m0c62b32030" d="M 0 0 
L 0 3.5 
" style="stroke: #000000; stroke-width: 0.8"/>
      </defs>
      <g>
       <use xlink:href="#m0c62b32030" x="310.559625" y="311.6435" style="stroke: #000000; stroke-width: 0.8"/>
      </g>
     </g>
     <g id="text_1">
      <!-- 0.00 -->
      <g transform="translate(291.309625 333.91975) scale(0.22 -0.22)">
       <defs>
        <path id="TimesNewRomanPSMT-30" d="M 231 2094 
Q 231 2819 450 3342 
Q 669 3866 1031 4122 
Q 1313 4325 1613 4325 
Q 2100 4325 2488 3828 
Q 2972 3213 2972 2159 
Q 2972 1422 2759 906 
Q 2547 391 2217 158 
Q 1888 -75 1581 -75 
Q 975 -75 572 641 
Q 231 1244 231 2094 
z
M 844 2016 
Q 844 1141 1059 588 
Q 1238 122 1591 122 
Q 1759 122 1940 273 
Q 2122 425 2216 781 
Q 2359 1319 2359 2297 
Q 2359 3022 2209 3506 
Q 2097 3866 1919 4016 
Q 1791 4119 1609 4119 
Q 1397 4119 1231 3928 
Q 1006 3669 925 3112 
Q 844 2556 844 2016 
z
" transform="scale(0.015625)"/>
        <path id="TimesNewRomanPSMT-2e" d="M 800 606 
Q 947 606 1047 504 
Q 1147 403 1147 259 
Q 1147 116 1045 14 
Q 944 -88 800 -88 
Q 656 -88 554 14 
Q 453 116 453 259 
Q 453 406 554 506 
Q 656 606 800 606 
z
" transform="scale(0.015625)"/>
       </defs>
       <use xlink:href="#TimesNewRomanPSMT-30"/>
       <use xlink:href="#TimesNewRomanPSMT-2e" transform="translate(50 0)"/>
       <use xlink:href="#TimesNewRomanPSMT-30" transform="translate(75 0)"/>
       <use xlink:href="#TimesNewRomanPSMT-30" transform="translate(125 0)"/>
      </g>
     </g>
    </g>
    <g id="xtick_2">
     <g id="line2d_3">
      <path d="M 387.73002 311.6435 
L 387.73002 45.5315 
" clip-path="url(#p18460005a3)" style="fill: none; stroke: #b0b0b0; stroke-opacity: 0.3; stroke-width: 0.8; stroke-linecap: square"/>
     </g>
     <g id="line2d_4">
      <g>
       <use xlink:href="#m0c62b32030" x="387.73002" y="311.6435" style="stroke: #000000; stroke-width: 0.8"/>
      </g>
     </g>
     <g id="text_2">
      <!-- 0.25 -->
      <g transform="translate(368.48002 333.91975) scale(0.22 -0.22)">
       <defs>
        <path id="TimesNewRomanPSMT-32" d="M 2934 816 
L 2638 0 
L 138 0 
L 138 116 
Q 1241 1122 1691 1759 
Q 2141 2397 2141 2925 
Q 2141 3328 1894 3587 
Q 1647 3847 1303 3847 
Q 991 3847 742 3664 
Q 494 3481 375 3128 
L 259 3128 
Q 338 3706 661 4015 
Q 984 4325 1469 4325 
Q 1984 4325 2329 3994 
Q 2675 3663 2675 3213 
Q 2675 2891 2525 2569 
Q 2294 2063 1775 1497 
Q 997 647 803 472 
L 1909 472 
Q 2247 472 2383 497 
Q 2519 522 2628 598 
Q 2738 675 2819 816 
L 2934 816 
z
" transform="scale(0.015625)"/>
        <path id="TimesNewRomanPSMT-35" d="M 2778 4238 
L 2534 3706 
L 1259 3706 
L 981 3138 
Q 1809 3016 2294 2522 
Q 2709 2097 2709 1522 
Q 2709 1188 2573 903 
Q 2438 619 2231 419 
Q 2025 219 1772 97 
Q 1413 -75 1034 -75 
Q 653 -75 479 54 
Q 306 184 306 341 
Q 306 428 378 495 
Q 450 563 559 563 
Q 641 563 702 538 
Q 763 513 909 409 
Q 1144 247 1384 247 
Q 1750 247 2026 523 
Q 2303 800 2303 1197 
Q 2303 1581 2056 1914 
Q 1809 2247 1375 2428 
Q 1034 2569 447 2591 
L 1259 4238 
L 2778 4238 
z
" transform="scale(0.015625)"/>
       </defs>
       <use xlink:href="#TimesNewRomanPSMT-30"/>
       <use xlink:href="#TimesNewRomanPSMT-2e" transform="translate(50 0)"/>
       <use xlink:href="#TimesNewRomanPSMT-32" transform="translate(75 0)"/>
       <use xlink:href="#TimesNewRomanPSMT-35" transform="translate(125 0)"/>
      </g>
     </g>
    </g>
    <g id="xtick_3">
     <g id="line2d_5">
      <path d="M 464.900415 311.6435 
L 464.900415 45.5315 
" clip-path="url(#p18460005a3)" style="fill: none; stroke: #b0b0b0; stroke-opacity: 0.3; stroke-width: 0.8; stroke-linecap: square"/>
     </g>
     <g id="line2d_6">
      <g>
       <use xlink:href="#m0c62b32030" x="464.900415" y="311.6435" style="stroke: #000000; stroke-width: 0.8"/>
      </g>
     </g>
     <g id="text_3">
      <!-- 0.50 -->
      <g transform="translate(445.650415 333.91975) scale(0.22 -0.22)">
       <use xlink:href="#TimesNewRomanPSMT-30"/>
       <use xlink:href="#TimesNewRomanPSMT-2e" transform="translate(50 0)"/>
       <use xlink:href="#TimesNewRomanPSMT-35" transform="translate(75 0)"/>
       <use xlink:href="#TimesNewRomanPSMT-30" transform="translate(125 0)"/>
      </g>
     </g>
    </g>
    <g id="xtick_4">
     <g id="line2d_7">
      <path d="M 542.07081 311.6435 
L 542.07081 45.5315 
" clip-path="url(#p18460005a3)" style="fill: none; stroke: #b0b0b0; stroke-opacity: 0.3; stroke-width: 0.8; stroke-linecap: square"/>
     </g>
     <g id="line2d_8">
      <g>
       <use xlink:href="#m0c62b32030" x="542.07081" y="311.6435" style="stroke: #000000; stroke-width: 0.8"/>
      </g>
     </g>
     <g id="text_4">
      <!-- 0.75 -->
      <g transform="translate(522.82081 333.91975) scale(0.22 -0.22)">
       <defs>
        <path id="TimesNewRomanPSMT-37" d="M 644 4238 
L 2916 4238 
L 2916 4119 
L 1503 -88 
L 1153 -88 
L 2419 3728 
L 1253 3728 
Q 900 3728 750 3644 
Q 488 3500 328 3200 
L 238 3234 
L 644 4238 
z
" transform="scale(0.015625)"/>
       </defs>
       <use xlink:href="#TimesNewRomanPSMT-30"/>
       <use xlink:href="#TimesNewRomanPSMT-2e" transform="translate(50 0)"/>
       <use xlink:href="#TimesNewRomanPSMT-37" transform="translate(75 0)"/>
       <use xlink:href="#TimesNewRomanPSMT-35" transform="translate(125 0)"/>
      </g>
     </g>
    </g>
    <g id="xtick_5">
     <g id="line2d_9">
      <path d="M 619.241205 311.6435 
L 619.241205 45.5315 
" clip-path="url(#p18460005a3)" style="fill: none; stroke: #b0b0b0; stroke-opacity: 0.3; stroke-width: 0.8; stroke-linecap: square"/>
     </g>
     <g id="line2d_10">
      <g>
       <use xlink:href="#m0c62b32030" x="619.241205" y="311.6435" style="stroke: #000000; stroke-width: 0.8"/>
      </g>
     </g>
     <g id="text_5">
      <!-- 1.00 -->
      <g transform="translate(599.991205 333.91975) scale(0.22 -0.22)">
       <defs>
        <path id="TimesNewRomanPSMT-31" d="M 750 3822 
L 1781 4325 
L 1884 4325 
L 1884 747 
Q 1884 391 1914 303 
Q 1944 216 2037 169 
Q 2131 122 2419 116 
L 2419 0 
L 825 0 
L 825 116 
Q 1125 122 1212 167 
Q 1300 213 1334 289 
Q 1369 366 1369 747 
L 1369 3034 
Q 1369 3497 1338 3628 
Q 1316 3728 1258 3775 
Q 1200 3822 1119 3822 
Q 1003 3822 797 3725 
L 750 3822 
z
" transform="scale(0.015625)"/>
       </defs>
       <use xlink:href="#TimesNewRomanPSMT-31"/>
       <use xlink:href="#TimesNewRomanPSMT-2e" transform="translate(50 0)"/>
       <use xlink:href="#TimesNewRomanPSMT-30" transform="translate(75 0)"/>
       <use xlink:href="#TimesNewRomanPSMT-30" transform="translate(125 0)"/>
      </g>
     </g>
    </g>
    <g id="text_6">
     <!-- $\kappa  = \frac{ln(n)}{ln(d)}$ -->
     <g transform="translate(457.109625 364.185687) scale(0.22 -0.22)">
      <defs>
       <path id="STIXGeneral-Italic-3ba" d="M 979 1440 
L 998 1446 
Q 1850 2541 2464 2790 
Q 2547 2822 2630 2822 
Q 2797 2822 2886 2736 
Q 2976 2650 2976 2522 
Q 2976 2387 2893 2307 
Q 2810 2227 2682 2227 
Q 2605 2227 2502 2288 
Q 2400 2349 2336 2349 
Q 2170 2349 1990 2205 
Q 1811 2061 1414 1645 
L 2042 544 
Q 2202 262 2310 182 
Q 2419 102 2624 102 
L 2624 0 
Q 2374 -83 2182 -83 
Q 1786 -83 1555 326 
L 960 1350 
L 576 0 
L 90 0 
L 640 1978 
Q 730 2317 730 2406 
Q 730 2560 518 2560 
L 339 2560 
L 339 2650 
Q 678 2694 1306 2822 
L 1325 2803 
L 979 1440 
z
" transform="scale(0.015625)"/>
       <path id="STIXGeneral-Regular-3d" d="M 4077 2048 
L 307 2048 
L 307 2470 
L 4077 2470 
L 4077 2048 
z
M 4077 768 
L 307 768 
L 307 1190 
L 4077 1190 
L 4077 768 
z
" transform="scale(0.015625)"/>
       <path id="STIXGeneral-Italic-6c" d="M 1786 4339 
L 806 595 
Q 755 410 755 320 
Q 755 205 864 205 
Q 1037 205 1293 570 
L 1453 794 
L 1542 730 
Q 1254 275 1046 102 
Q 838 -70 576 -70 
Q 262 -70 262 288 
Q 262 397 288 480 
L 1165 3834 
Q 1184 3898 1184 3955 
Q 1184 4096 870 4096 
L 755 4096 
L 755 4198 
Q 1203 4250 1747 4371 
L 1786 4339 
z
" transform="scale(0.015625)"/>
       <path id="STIXGeneral-Italic-6e" d="M 2944 749 
L 3034 666 
Q 2707 218 2534 80 
Q 2362 -58 2138 -58 
Q 2010 -58 1923 28 
Q 1837 115 1837 288 
Q 1837 390 1939 768 
L 2221 1805 
Q 2310 2150 2310 2310 
Q 2310 2496 2157 2496 
Q 1971 2496 1750 2275 
Q 1530 2054 1210 1587 
Q 998 1274 899 1024 
Q 800 774 570 0 
L 90 0 
L 704 2240 
Q 717 2304 717 2349 
Q 717 2445 630 2480 
Q 544 2515 301 2522 
L 301 2624 
Q 550 2675 857 2729 
Q 1165 2784 1338 2822 
L 1363 2810 
L 934 1414 
Q 1408 2170 1753 2496 
Q 2099 2822 2413 2822 
Q 2611 2822 2720 2716 
Q 2829 2611 2829 2432 
Q 2829 2272 2765 2048 
L 2406 749 
Q 2317 429 2317 358 
Q 2317 243 2419 243 
Q 2541 243 2810 582 
Q 2854 634 2944 749 
z
" transform="scale(0.015625)"/>
       <path id="STIXGeneral-Regular-28" d="M 1946 -1030 
L 1869 -1133 
Q 1126 -710 716 32 
Q 307 774 307 1613 
Q 307 3386 1888 4326 
L 1946 4224 
Q 1293 3667 1075 3126 
Q 858 2586 858 1632 
Q 858 685 1082 96 
Q 1306 -493 1946 -1030 
z
" transform="scale(0.015625)"/>
       <path id="STIXGeneral-Regular-29" d="M 186 4224 
L 262 4326 
Q 992 3891 1408 3148 
Q 1824 2406 1824 1581 
Q 1824 -166 243 -1133 
L 186 -1030 
Q 845 -486 1059 54 
Q 1274 595 1274 1562 
Q 1274 2534 1059 3120 
Q 845 3706 186 4224 
z
" transform="scale(0.015625)"/>
       <path id="STIXGeneral-Italic-64" d="M 3334 4371 
L 3373 4333 
L 3123 3360 
L 2739 1958 
Q 2323 429 2323 384 
Q 2323 256 2438 256 
Q 2522 256 2614 336 
Q 2707 416 2963 710 
L 3040 646 
Q 2547 -83 2099 -83 
Q 1978 -83 1907 -6 
Q 1837 70 1837 205 
Q 1837 397 1920 774 
Q 1645 307 1379 118 
Q 1114 -70 781 -70 
Q 461 -70 278 125 
Q 96 320 96 678 
Q 96 1440 713 2131 
Q 1331 2822 1965 2822 
Q 2163 2822 2256 2732 
Q 2349 2643 2381 2451 
L 2387 2451 
L 2675 3494 
Q 2765 3808 2765 3949 
Q 2765 4051 2694 4076 
Q 2624 4102 2355 4115 
L 2355 4224 
Q 2848 4269 3334 4371 
z
M 2278 2310 
Q 2278 2477 2185 2576 
Q 2093 2675 1978 2675 
Q 1677 2675 1395 2381 
Q 1075 2042 864 1571 
Q 653 1101 653 704 
Q 653 486 752 361 
Q 851 237 1024 237 
Q 1312 237 1606 550 
Q 1901 864 2089 1350 
Q 2278 1837 2278 2310 
z
" transform="scale(0.015625)"/>
      </defs>
      <use xlink:href="#STIXGeneral-Italic-3ba" transform="translate(0 0.003125)"/>
      <use xlink:href="#STIXGeneral-Regular-3d" transform="translate(58.83999 0.003125)"/>
      <use xlink:href="#STIXGeneral-Italic-6c" transform="translate(141.779971 50.192188) scale(0.7)"/>
      <use xlink:href="#STIXGeneral-Italic-6e" transform="translate(161.239963 50.192188) scale(0.7)"/>
      <use xlink:href="#STIXGeneral-Regular-28" transform="translate(196.239952 50.192188) scale(0.7)"/>
      <use xlink:href="#STIXGeneral-Italic-6e" transform="translate(219.549944 50.192188) scale(0.7)"/>
      <use xlink:href="#STIXGeneral-Regular-29" transform="translate(254.549933 50.192188) scale(0.7)"/>
      <use xlink:href="#STIXGeneral-Italic-6c" transform="translate(141.779971 -41.257812) scale(0.7)"/>
      <use xlink:href="#STIXGeneral-Italic-6e" transform="translate(161.239963 -41.257812) scale(0.7)"/>
      <use xlink:href="#STIXGeneral-Regular-28" transform="translate(196.239952 -41.257812) scale(0.7)"/>
      <use xlink:href="#STIXGeneral-Italic-64" transform="translate(219.549944 -41.257812) scale(0.7)"/>
      <use xlink:href="#STIXGeneral-Regular-29" transform="translate(254.549933 -41.257812) scale(0.7)"/>
      <path d="M 141.779971 12.8 
L 141.779971 19.05 
L 277.859924 19.05 
L 277.859924 12.8 
L 141.779971 12.8 
z
"/>
     </g>
    </g>
   </g>
   <g id="matplotlib.axis_2">
    <g id="ytick_1">
     <g id="line2d_11">
      <path d="M 310.559625 311.6435 
L 667.679625 311.6435 
" clip-path="url(#p18460005a3)" style="fill: none; stroke: #b0b0b0; stroke-opacity: 0.3; stroke-width: 0.8; stroke-linecap: square"/>
     </g>
     <g id="line2d_12">
      <defs>
       <path id="mf40f98d594" d="M 0 0 
L -3.5 0 
" style="stroke: #000000; stroke-width: 0.8"/>
      </defs>
      <g>
       <use xlink:href="#mf40f98d594" x="310.559625" y="311.6435" style="stroke: #000000; stroke-width: 0.8"/>
      </g>
     </g>
     <g id="text_7">
      <!-- 0.0 -->
      <g transform="translate(276.059625 319.281625) scale(0.22 -0.22)">
       <use xlink:href="#TimesNewRomanPSMT-30"/>
       <use xlink:href="#TimesNewRomanPSMT-2e" transform="translate(50 0)"/>
       <use xlink:href="#TimesNewRomanPSMT-30" transform="translate(75 0)"/>
      </g>
     </g>
    </g>
    <g id="ytick_2">
     <g id="line2d_13">
      <path d="M 310.559625 285.0323 
L 667.679625 285.0323 
" clip-path="url(#p18460005a3)" style="fill: none; stroke: #b0b0b0; stroke-opacity: 0.3; stroke-width: 0.8; stroke-linecap: square"/>
     </g>
     <g id="line2d_14">
      <g>
       <use xlink:href="#mf40f98d594" x="310.559625" y="285.0323" style="stroke: #000000; stroke-width: 0.8"/>
      </g>
     </g>
     <g id="text_8">
      <!-- 0.1 -->
      <g transform="translate(276.059625 292.670425) scale(0.22 -0.22)">
       <use xlink:href="#TimesNewRomanPSMT-30"/>
       <use xlink:href="#TimesNewRomanPSMT-2e" transform="translate(50 0)"/>
       <use xlink:href="#TimesNewRomanPSMT-31" transform="translate(75 0)"/>
      </g>
     </g>
    </g>
    <g id="ytick_3">
     <g id="line2d_15">
      <path d="M 310.559625 258.4211 
L 667.679625 258.4211 
" clip-path="url(#p18460005a3)" style="fill: none; stroke: #b0b0b0; stroke-opacity: 0.3; stroke-width: 0.8; stroke-linecap: square"/>
     </g>
     <g id="line2d_16">
      <g>
       <use xlink:href="#mf40f98d594" x="310.559625" y="258.4211" style="stroke: #000000; stroke-width: 0.8"/>
      </g>
     </g>
     <g id="text_9">
      <!-- 0.2 -->
      <g transform="translate(276.059625 266.059225) scale(0.22 -0.22)">
       <use xlink:href="#TimesNewRomanPSMT-30"/>
       <use xlink:href="#TimesNewRomanPSMT-2e" transform="translate(50 0)"/>
       <use xlink:href="#TimesNewRomanPSMT-32" transform="translate(75 0)"/>
      </g>
     </g>
    </g>
    <g id="ytick_4">
     <g id="line2d_17">
      <path d="M 310.559625 231.8099 
L 667.679625 231.8099 
" clip-path="url(#p18460005a3)" style="fill: none; stroke: #b0b0b0; stroke-opacity: 0.3; stroke-width: 0.8; stroke-linecap: square"/>
     </g>
     <g id="line2d_18">
      <g>
       <use xlink:href="#mf40f98d594" x="310.559625" y="231.8099" style="stroke: #000000; stroke-width: 0.8"/>
      </g>
     </g>
     <g id="text_10">
      <!-- 0.3 -->
      <g transform="translate(276.059625 239.448025) scale(0.22 -0.22)">
       <defs>
        <path id="TimesNewRomanPSMT-33" d="M 325 3431 
Q 506 3859 782 4092 
Q 1059 4325 1472 4325 
Q 1981 4325 2253 3994 
Q 2459 3747 2459 3466 
Q 2459 3003 1878 2509 
Q 2269 2356 2469 2072 
Q 2669 1788 2669 1403 
Q 2669 853 2319 450 
Q 1863 -75 997 -75 
Q 569 -75 414 31 
Q 259 138 259 259 
Q 259 350 332 419 
Q 406 488 509 488 
Q 588 488 669 463 
Q 722 447 909 348 
Q 1097 250 1169 231 
Q 1284 197 1416 197 
Q 1734 197 1970 444 
Q 2206 691 2206 1028 
Q 2206 1275 2097 1509 
Q 2016 1684 1919 1775 
Q 1784 1900 1550 2001 
Q 1316 2103 1072 2103 
L 972 2103 
L 972 2197 
Q 1219 2228 1467 2375 
Q 1716 2522 1828 2728 
Q 1941 2934 1941 3181 
Q 1941 3503 1739 3701 
Q 1538 3900 1238 3900 
Q 753 3900 428 3381 
L 325 3431 
z
" transform="scale(0.015625)"/>
       </defs>
       <use xlink:href="#TimesNewRomanPSMT-30"/>
       <use xlink:href="#TimesNewRomanPSMT-2e" transform="translate(50 0)"/>
       <use xlink:href="#TimesNewRomanPSMT-33" transform="translate(75 0)"/>
      </g>
     </g>
    </g>
    <g id="ytick_5">
     <g id="line2d_19">
      <path d="M 310.559625 205.1987 
L 667.679625 205.1987 
" clip-path="url(#p18460005a3)" style="fill: none; stroke: #b0b0b0; stroke-opacity: 0.3; stroke-width: 0.8; stroke-linecap: square"/>
     </g>
     <g id="line2d_20">
      <g>
       <use xlink:href="#mf40f98d594" x="310.559625" y="205.1987" style="stroke: #000000; stroke-width: 0.8"/>
      </g>
     </g>
     <g id="text_11">
      <!-- 0.4 -->
      <g transform="translate(276.059625 212.836825) scale(0.22 -0.22)">
       <defs>
        <path id="TimesNewRomanPSMT-34" d="M 2978 1563 
L 2978 1119 
L 2409 1119 
L 2409 0 
L 1894 0 
L 1894 1119 
L 100 1119 
L 100 1519 
L 2066 4325 
L 2409 4325 
L 2409 1563 
L 2978 1563 
z
M 1894 1563 
L 1894 3666 
L 406 1563 
L 1894 1563 
z
" transform="scale(0.015625)"/>
       </defs>
       <use xlink:href="#TimesNewRomanPSMT-30"/>
       <use xlink:href="#TimesNewRomanPSMT-2e" transform="translate(50 0)"/>
       <use xlink:href="#TimesNewRomanPSMT-34" transform="translate(75 0)"/>
      </g>
     </g>
    </g>
    <g id="ytick_6">
     <g id="line2d_21">
      <path d="M 310.559625 178.5875 
L 667.679625 178.5875 
" clip-path="url(#p18460005a3)" style="fill: none; stroke: #b0b0b0; stroke-opacity: 0.3; stroke-width: 0.8; stroke-linecap: square"/>
     </g>
     <g id="line2d_22">
      <g>
       <use xlink:href="#mf40f98d594" x="310.559625" y="178.5875" style="stroke: #000000; stroke-width: 0.8"/>
      </g>
     </g>
     <g id="text_12">
      <!-- 0.5 -->
      <g transform="translate(276.059625 186.225625) scale(0.22 -0.22)">
       <use xlink:href="#TimesNewRomanPSMT-30"/>
       <use xlink:href="#TimesNewRomanPSMT-2e" transform="translate(50 0)"/>
       <use xlink:href="#TimesNewRomanPSMT-35" transform="translate(75 0)"/>
      </g>
     </g>
    </g>
    <g id="ytick_7">
     <g id="line2d_23">
      <path d="M 310.559625 151.9763 
L 667.679625 151.9763 
" clip-path="url(#p18460005a3)" style="fill: none; stroke: #b0b0b0; stroke-opacity: 0.3; stroke-width: 0.8; stroke-linecap: square"/>
     </g>
     <g id="line2d_24">
      <g>
       <use xlink:href="#mf40f98d594" x="310.559625" y="151.9763" style="stroke: #000000; stroke-width: 0.8"/>
      </g>
     </g>
     <g id="text_13">
      <!-- 0.6 -->
      <g transform="translate(276.059625 159.614425) scale(0.22 -0.22)">
       <defs>
        <path id="TimesNewRomanPSMT-36" d="M 2869 4325 
L 2869 4209 
Q 2456 4169 2195 4045 
Q 1934 3922 1679 3669 
Q 1425 3416 1258 3105 
Q 1091 2794 978 2366 
Q 1428 2675 1881 2675 
Q 2316 2675 2634 2325 
Q 2953 1975 2953 1425 
Q 2953 894 2631 456 
Q 2244 -75 1606 -75 
Q 1172 -75 869 213 
Q 275 772 275 1663 
Q 275 2231 503 2743 
Q 731 3256 1154 3653 
Q 1578 4050 1965 4187 
Q 2353 4325 2688 4325 
L 2869 4325 
z
M 925 2138 
Q 869 1716 869 1456 
Q 869 1156 980 804 
Q 1091 453 1309 247 
Q 1469 100 1697 100 
Q 1969 100 2183 356 
Q 2397 613 2397 1088 
Q 2397 1622 2184 2012 
Q 1972 2403 1581 2403 
Q 1463 2403 1327 2353 
Q 1191 2303 925 2138 
z
" transform="scale(0.015625)"/>
       </defs>
       <use xlink:href="#TimesNewRomanPSMT-30"/>
       <use xlink:href="#TimesNewRomanPSMT-2e" transform="translate(50 0)"/>
       <use xlink:href="#TimesNewRomanPSMT-36" transform="translate(75 0)"/>
      </g>
     </g>
    </g>
    <g id="ytick_8">
     <g id="line2d_25">
      <path d="M 310.559625 125.3651 
L 667.679625 125.3651 
" clip-path="url(#p18460005a3)" style="fill: none; stroke: #b0b0b0; stroke-opacity: 0.3; stroke-width: 0.8; stroke-linecap: square"/>
     </g>
     <g id="line2d_26">
      <g>
       <use xlink:href="#mf40f98d594" x="310.559625" y="125.3651" style="stroke: #000000; stroke-width: 0.8"/>
      </g>
     </g>
     <g id="text_14">
      <!-- 0.7 -->
      <g transform="translate(276.059625 133.003225) scale(0.22 -0.22)">
       <use xlink:href="#TimesNewRomanPSMT-30"/>
       <use xlink:href="#TimesNewRomanPSMT-2e" transform="translate(50 0)"/>
       <use xlink:href="#TimesNewRomanPSMT-37" transform="translate(75 0)"/>
      </g>
     </g>
    </g>
    <g id="ytick_9">
     <g id="line2d_27">
      <path d="M 310.559625 98.7539 
L 667.679625 98.7539 
" clip-path="url(#p18460005a3)" style="fill: none; stroke: #b0b0b0; stroke-opacity: 0.3; stroke-width: 0.8; stroke-linecap: square"/>
     </g>
     <g id="line2d_28">
      <g>
       <use xlink:href="#mf40f98d594" x="310.559625" y="98.7539" style="stroke: #000000; stroke-width: 0.8"/>
      </g>
     </g>
     <g id="text_15">
      <!-- 0.8 -->
      <g transform="translate(276.059625 106.392025) scale(0.22 -0.22)">
       <defs>
        <path id="TimesNewRomanPSMT-38" d="M 1228 2134 
Q 725 2547 579 2797 
Q 434 3047 434 3316 
Q 434 3728 753 4026 
Q 1072 4325 1600 4325 
Q 2113 4325 2425 4047 
Q 2738 3769 2738 3413 
Q 2738 3175 2569 2928 
Q 2400 2681 1866 2347 
Q 2416 1922 2594 1678 
Q 2831 1359 2831 1006 
Q 2831 559 2490 242 
Q 2150 -75 1597 -75 
Q 994 -75 656 303 
Q 388 606 388 966 
Q 388 1247 577 1523 
Q 766 1800 1228 2134 
z
M 1719 2469 
Q 2094 2806 2194 3001 
Q 2294 3197 2294 3444 
Q 2294 3772 2109 3958 
Q 1925 4144 1606 4144 
Q 1288 4144 1088 3959 
Q 888 3775 888 3528 
Q 888 3366 970 3203 
Q 1053 3041 1206 2894 
L 1719 2469 
z
M 1375 2016 
Q 1116 1797 991 1539 
Q 866 1281 866 981 
Q 866 578 1086 336 
Q 1306 94 1647 94 
Q 1984 94 2187 284 
Q 2391 475 2391 747 
Q 2391 972 2272 1150 
Q 2050 1481 1375 2016 
z
" transform="scale(0.015625)"/>
       </defs>
       <use xlink:href="#TimesNewRomanPSMT-30"/>
       <use xlink:href="#TimesNewRomanPSMT-2e" transform="translate(50 0)"/>
       <use xlink:href="#TimesNewRomanPSMT-38" transform="translate(75 0)"/>
      </g>
     </g>
    </g>
    <g id="ytick_10">
     <g id="line2d_29">
      <path d="M 310.559625 72.1427 
L 667.679625 72.1427 
" clip-path="url(#p18460005a3)" style="fill: none; stroke: #b0b0b0; stroke-opacity: 0.3; stroke-width: 0.8; stroke-linecap: square"/>
     </g>
     <g id="line2d_30">
      <g>
       <use xlink:href="#mf40f98d594" x="310.559625" y="72.1427" style="stroke: #000000; stroke-width: 0.8"/>
      </g>
     </g>
     <g id="text_16">
      <!-- 0.9 -->
      <g transform="translate(276.059625 79.780825) scale(0.22 -0.22)">
       <defs>
        <path id="TimesNewRomanPSMT-39" d="M 338 -88 
L 338 28 
Q 744 34 1094 217 
Q 1444 400 1770 856 
Q 2097 1313 2225 1859 
Q 1734 1544 1338 1544 
Q 891 1544 572 1889 
Q 253 2234 253 2806 
Q 253 3363 572 3797 
Q 956 4325 1575 4325 
Q 2097 4325 2469 3894 
Q 2925 3359 2925 2575 
Q 2925 1869 2578 1258 
Q 2231 647 1613 244 
Q 1109 -88 516 -88 
L 338 -88 
z
M 2275 2091 
Q 2331 2497 2331 2741 
Q 2331 3044 2228 3395 
Q 2125 3747 1936 3934 
Q 1747 4122 1506 4122 
Q 1228 4122 1018 3872 
Q 809 3622 809 3128 
Q 809 2469 1088 2097 
Q 1291 1828 1588 1828 
Q 1731 1828 1928 1897 
Q 2125 1966 2275 2091 
z
" transform="scale(0.015625)"/>
       </defs>
       <use xlink:href="#TimesNewRomanPSMT-30"/>
       <use xlink:href="#TimesNewRomanPSMT-2e" transform="translate(50 0)"/>
       <use xlink:href="#TimesNewRomanPSMT-39" transform="translate(75 0)"/>
      </g>
     </g>
    </g>
    <g id="ytick_11">
     <g id="line2d_31">
      <path d="M 310.559625 45.5315 
L 667.679625 45.5315 
" clip-path="url(#p18460005a3)" style="fill: none; stroke: #b0b0b0; stroke-opacity: 0.3; stroke-width: 0.8; stroke-linecap: square"/>
     </g>
     <g id="line2d_32">
      <g>
       <use xlink:href="#mf40f98d594" x="310.559625" y="45.5315" style="stroke: #000000; stroke-width: 0.8"/>
      </g>
     </g>
     <g id="text_17">
      <!-- 1.0 -->
      <g transform="translate(276.059625 53.169625) scale(0.22 -0.22)">
       <use xlink:href="#TimesNewRomanPSMT-31"/>
       <use xlink:href="#TimesNewRomanPSMT-2e" transform="translate(50 0)"/>
       <use xlink:href="#TimesNewRomanPSMT-30" transform="translate(75 0)"/>
      </g>
     </g>
    </g>
    <g id="text_18">
     <!-- Accuracy -->
     <g transform="translate(267.312437 220.726094) rotate(-90) scale(0.22 -0.22)">
      <defs>
       <path id="TimesNewRomanPSMT-41" d="M 2928 1419 
L 1288 1419 
L 1000 750 
Q 894 503 894 381 
Q 894 284 986 211 
Q 1078 138 1384 116 
L 1384 0 
L 50 0 
L 50 116 
Q 316 163 394 238 
Q 553 388 747 847 
L 2238 4334 
L 2347 4334 
L 3822 809 
Q 4000 384 4145 257 
Q 4291 131 4550 116 
L 4550 0 
L 2878 0 
L 2878 116 
Q 3131 128 3220 200 
Q 3309 272 3309 375 
Q 3309 513 3184 809 
L 2928 1419 
z
M 2841 1650 
L 2122 3363 
L 1384 1650 
L 2841 1650 
z
" transform="scale(0.015625)"/>
       <path id="TimesNewRomanPSMT-63" d="M 2631 1088 
Q 2516 522 2178 217 
Q 1841 -88 1431 -88 
Q 944 -88 581 321 
Q 219 731 219 1428 
Q 219 2103 620 2525 
Q 1022 2947 1584 2947 
Q 2006 2947 2278 2723 
Q 2550 2500 2550 2259 
Q 2550 2141 2473 2067 
Q 2397 1994 2259 1994 
Q 2075 1994 1981 2113 
Q 1928 2178 1911 2362 
Q 1894 2547 1784 2644 
Q 1675 2738 1481 2738 
Q 1169 2738 978 2506 
Q 725 2200 725 1697 
Q 725 1184 976 792 
Q 1228 400 1656 400 
Q 1963 400 2206 609 
Q 2378 753 2541 1131 
L 2631 1088 
z
" transform="scale(0.015625)"/>
       <path id="TimesNewRomanPSMT-75" d="M 2709 2863 
L 2709 1128 
Q 2709 631 2732 520 
Q 2756 409 2807 365 
Q 2859 322 2928 322 
Q 3025 322 3147 375 
L 3191 266 
L 2334 -88 
L 2194 -88 
L 2194 519 
Q 1825 119 1631 15 
Q 1438 -88 1222 -88 
Q 981 -88 804 51 
Q 628 191 559 409 
Q 491 628 491 1028 
L 491 2306 
Q 491 2509 447 2587 
Q 403 2666 317 2708 
Q 231 2750 6 2747 
L 6 2863 
L 1009 2863 
L 1009 947 
Q 1009 547 1148 422 
Q 1288 297 1484 297 
Q 1619 297 1789 381 
Q 1959 466 2194 703 
L 2194 2325 
Q 2194 2569 2105 2655 
Q 2016 2741 1734 2747 
L 1734 2863 
L 2709 2863 
z
" transform="scale(0.015625)"/>
       <path id="TimesNewRomanPSMT-72" d="M 1038 2947 
L 1038 2303 
Q 1397 2947 1775 2947 
Q 1947 2947 2059 2842 
Q 2172 2738 2172 2600 
Q 2172 2478 2090 2393 
Q 2009 2309 1897 2309 
Q 1788 2309 1652 2417 
Q 1516 2525 1450 2525 
Q 1394 2525 1328 2463 
Q 1188 2334 1038 2041 
L 1038 669 
Q 1038 431 1097 309 
Q 1138 225 1241 169 
Q 1344 113 1538 113 
L 1538 0 
L 72 0 
L 72 113 
Q 291 113 397 181 
Q 475 231 506 341 
Q 522 394 522 644 
L 522 1753 
Q 522 2253 501 2348 
Q 481 2444 426 2487 
Q 372 2531 291 2531 
Q 194 2531 72 2484 
L 41 2597 
L 906 2947 
L 1038 2947 
z
" transform="scale(0.015625)"/>
       <path id="TimesNewRomanPSMT-61" d="M 1822 413 
Q 1381 72 1269 19 
Q 1100 -59 909 -59 
Q 613 -59 420 144 
Q 228 347 228 678 
Q 228 888 322 1041 
Q 450 1253 767 1440 
Q 1084 1628 1822 1897 
L 1822 2009 
Q 1822 2438 1686 2597 
Q 1550 2756 1291 2756 
Q 1094 2756 978 2650 
Q 859 2544 859 2406 
L 866 2225 
Q 866 2081 792 2003 
Q 719 1925 600 1925 
Q 484 1925 411 2006 
Q 338 2088 338 2228 
Q 338 2497 613 2722 
Q 888 2947 1384 2947 
Q 1766 2947 2009 2819 
Q 2194 2722 2281 2516 
Q 2338 2381 2338 1966 
L 2338 994 
Q 2338 584 2353 492 
Q 2369 400 2405 369 
Q 2441 338 2488 338 
Q 2538 338 2575 359 
Q 2641 400 2828 588 
L 2828 413 
Q 2478 -56 2159 -56 
Q 2006 -56 1915 50 
Q 1825 156 1822 413 
z
M 1822 616 
L 1822 1706 
Q 1350 1519 1213 1441 
Q 966 1303 859 1153 
Q 753 1003 753 825 
Q 753 600 887 451 
Q 1022 303 1197 303 
Q 1434 303 1822 616 
z
" transform="scale(0.015625)"/>
       <path id="TimesNewRomanPSMT-79" d="M 38 2863 
L 1372 2863 
L 1372 2747 
L 1306 2747 
Q 1166 2747 1095 2686 
Q 1025 2625 1025 2534 
Q 1025 2413 1128 2197 
L 1825 753 
L 2466 2334 
Q 2519 2463 2519 2588 
Q 2519 2644 2497 2672 
Q 2472 2706 2419 2726 
Q 2366 2747 2231 2747 
L 2231 2863 
L 3163 2863 
L 3163 2747 
Q 3047 2734 2984 2696 
Q 2922 2659 2847 2556 
Q 2819 2513 2741 2316 
L 1575 -541 
Q 1406 -956 1132 -1168 
Q 859 -1381 606 -1381 
Q 422 -1381 303 -1275 
Q 184 -1169 184 -1031 
Q 184 -900 270 -820 
Q 356 -741 506 -741 
Q 609 -741 788 -809 
Q 913 -856 944 -856 
Q 1038 -856 1148 -759 
Q 1259 -663 1372 -384 
L 1575 113 
L 547 2272 
Q 500 2369 397 2513 
Q 319 2622 269 2659 
Q 197 2709 38 2747 
L 38 2863 
z
" transform="scale(0.015625)"/>
      </defs>
      <use xlink:href="#TimesNewRomanPSMT-41"/>
      <use xlink:href="#TimesNewRomanPSMT-63" transform="translate(72.216797 0)"/>
      <use xlink:href="#TimesNewRomanPSMT-63" transform="translate(116.601562 0)"/>
      <use xlink:href="#TimesNewRomanPSMT-75" transform="translate(160.986328 0)"/>
      <use xlink:href="#TimesNewRomanPSMT-72" transform="translate(210.986328 0)"/>
      <use xlink:href="#TimesNewRomanPSMT-61" transform="translate(244.287109 0)"/>
      <use xlink:href="#TimesNewRomanPSMT-63" transform="translate(288.671875 0)"/>
      <use xlink:href="#TimesNewRomanPSMT-79" transform="translate(333.056641 0)"/>
     </g>
    </g>
   </g>
   <g id="line2d_33">
    <path d="M 310.559625 178.5875 
L 498.000575 178.5875 
L 500.828386 178.26226 
L 503.462354 173.146986 
L 505.927356 164.867943 
L 508.243771 158.333413 
L 510.428498 153.646891 
L 512.495707 151.547557 
L 514.457399 150.246564 
L 516.323825 149.906541 
L 518.10381 149.256044 
L 519.805008 148.250726 
L 522.996947 146.875819 
L 524.498731 146.107059 
L 527.336977 145.456562 
L 528.681197 144.99826 
L 529.979995 144.761701 
L 531.23634 144.362546 
L 532.452921 143.386794 
L 533.632178 143.135468 
L 534.776332 142.263212 
L 538.01764 141.390956 
L 539.04006 141.050916 
L 540.03599 141.050916 
L 541.006767 140.430002 
L 541.953631 140.208242 
L 543.780137 140.370854 
L 544.661843 140.252591 
L 545.523779 139.85342 
L 546.366811 139.927335 
L 547.999359 139.85342 
L 548.790348 139.454249 
L 549.565388 139.395117 
L 550.325111 139.217706 
L 551.070109 139.173358 
L 551.800943 139.30642 
L 553.913601 138.729838 
L 555.916174 138.448947 
L 557.195517 138.094125 
L 557.819568 137.783667 
L 558.43365 137.990628 
L 559.038076 137.79845 
L 559.633145 138.005427 
L 560.219142 137.266217 
L 560.796341 137.547109 
L 561.365 137.384496 
L 561.92537 137.473194 
L 562.477688 137.074023 
L 563.022183 136.985326 
L 563.559073 136.660069 
L 564.610868 136.896612 
L 565.126166 136.793132 
L 565.634648 136.867046 
L 566.136492 136.793132 
L 566.631869 137.014891 
L 567.120942 136.940977 
L 567.603872 136.556589 
L 568.08081 136.896612 
L 569.017292 136.083504 
L 569.477114 136.172201 
L 569.931501 135.817395 
L 570.380579 135.758247 
L 570.824472 135.99479 
L 571.263297 135.580836 
L 571.69717 135.44779 
L 572.970156 135.610418 
L 573.385286 135.181681 
L 574.202335 135.314728 
L 575.786109 134.841642 
L 576.55418 135.00427 
L 576.932536 134.782511 
L 577.678256 135.107751 
L 578.409785 134.767728 
L 578.770394 134.693797 
L 579.127652 134.871208 
L 579.48162 134.915557 
L 579.832359 134.649448 
L 580.179926 134.575534 
L 580.865773 134.723379 
L 581.204161 134.959922 
L 581.539596 134.723379 
L 581.87213 134.70858 
L 582.201812 134.531185 
L 582.852813 134.619883 
L 583.174225 134.353774 
L 583.492972 134.797294 
L 584.122645 134.235495 
L 584.433655 134.176363 
L 584.74217 134.442472 
L 585.048227 134.132014 
L 585.351868 134.457255 
L 585.653128 134.398123 
L 585.952047 133.851123 
L 586.542999 134.38334 
L 586.835102 134.117231 
L 587.125003 134.457255 
L 587.698327 134.191146 
L 587.981814 134.309425 
L 588.263226 133.762409 
L 588.819943 134.560751 
L 589.095307 134.368557 
L 589.368713 134.560751 
L 589.640188 133.777192 
L 589.909759 133.821541 
L 590.177453 134.398123 
L 590.969527 133.969386 
L 591.229966 134.205929 
L 591.488653 133.673712 
L 591.74561 133.584998 
L 592.000861 134.176363 
L 592.254428 133.791975 
L 592.506334 133.762409 
L 592.7566 134.102448 
L 593.252295 133.555432 
L 593.74168 133.71806 
L 593.984056 133.954603 
L 594.46427 133.821541 
L 594.702147 133.83634 
L 594.93856 133.969386 
L 595.407068 133.378021 
L 595.639199 134.072882 
L 595.869936 133.31889 
L 596.099296 133.378021 
L 596.553951 133.747626 
L 596.779278 133.93982 
L 597.003292 133.777192 
L 597.226008 133.791975 
L 597.447441 133.925037 
L 597.667606 134.191146 
L 597.886517 133.791975 
L 598.104188 133.747626 
L 598.320634 134.338991 
L 598.749903 133.954603 
L 598.962753 134.146797 
L 599.38495 133.865906 
L 599.594323 134.324208 
L 599.802561 134.191146 
L 600.009677 133.851123 
L 600.215683 134.220712 
L 600.420591 134.309425 
L 600.624413 134.013735 
L 600.827159 133.437169 
L 601.028842 133.910254 
L 601.229472 134.915557 
L 601.429061 134.072882 
L 601.825156 134.38334 
L 602.217211 133.865906 
L 602.411749 133.762409 
L 602.605307 134.516402 
L 602.797896 133.688495 
L 602.989525 133.584998 
L 603.180203 134.013735 
L 603.36994 133.998952 
L 603.746628 133.688495 
L 603.933597 133.954603 
L 604.11966 133.673712 
L 604.489107 134.265061 
L 604.672507 134.176363 
L 604.855037 134.368557 
L 605.036704 133.466735 
L 605.217516 134.279859 
L 605.397482 134.072882 
L 605.57661 134.043301 
L 605.754906 133.851123 
L 606.284887 134.412906 
L 606.459936 133.984169 
L 606.80766 134.841642 
L 606.98035 134.309425 
L 607.152267 134.767728 
L 607.493812 134.013735 
L 607.663454 134.782511 
L 607.83235 134.412906 
L 608.000507 134.472037 
L 608.167931 134.235495 
L 608.33463 134.205929 
L 608.500609 134.664231 
L 608.830432 134.294642 
L 608.994289 134.48682 
L 609.157449 134.412906 
L 609.319921 134.16158 
L 609.481708 134.693797 
L 609.642818 134.767728 
L 610.280587 134.368557 
L 610.43839 134.575534 
L 610.595547 134.590317 
L 610.752065 134.16158 
L 611.063201 134.900774 
L 611.217829 134.575534 
L 611.371839 134.679014 
L 611.525233 134.294642 
L 611.678018 134.575534 
L 611.830198 134.531185 
L 611.981778 134.989488 
L 612.132763 134.16158 
L 612.283157 134.146797 
L 612.432965 134.48682 
L 612.730841 134.457255 
L 612.878917 134.279859 
L 613.026426 134.70858 
L 613.17337 134.427689 
L 613.319755 133.895471 
L 613.465585 134.191146 
L 613.610864 134.797294 
L 613.755595 134.294642 
L 613.899784 134.649448 
L 614.043434 134.146797 
L 614.329133 135.758247 
L 614.612724 134.013735 
L 614.894239 134.752945 
L 615.173707 134.442472 
L 615.312683 134.250278 
L 615.451158 134.723379 
L 615.589136 134.531185 
L 615.863615 134.634666 
L 616.000123 134.945139 
L 616.136148 134.900774 
L 616.271694 134.191146 
L 616.406763 135.078185 
L 616.541359 134.338991 
L 616.675486 134.797294 
L 616.942343 134.797294 
L 617.075081 134.664231 
L 617.207361 134.767728 
L 617.339188 135.137317 
L 617.470564 134.442472 
L 617.601493 134.442472 
L 617.731977 134.915557 
L 617.86202 134.531185 
L 617.991625 135.019053 
L 618.24953 134.752945 
L 618.377837 134.752945 
L 618.505717 134.930356 
L 618.633172 134.531185 
L 618.886823 134.900774 
L 619.013024 134.353774 
L 619.138811 134.871208 
L 619.264189 134.619883 
L 619.389158 134.856425 
L 619.761648 134.560751 
L 620.007985 135.196464 
L 620.130563 135.107751 
L 620.252752 135.344294 
L 620.495972 134.945139 
L 620.737661 135.492139 
L 620.857939 135.092968 
L 620.977841 135.433007 
L 621.097371 135.00427 
L 621.21653 135.846961 
L 621.33532 135.595635 
L 621.453745 135.906093 
L 621.571806 135.861744 
L 621.689506 135.122534 
L 621.806846 135.66955 
L 621.923829 135.477356 
L 622.040458 135.713899 
L 622.156733 135.240813 
L 622.272658 135.314728 
L 622.388234 135.566053 
L 622.503464 135.388658 
L 622.732893 135.920875 
L 622.847096 135.255596 
L 623.074489 135.373875 
L 623.187683 135.654767 
L 623.525278 135.329511 
L 623.637154 135.625201 
L 623.748706 135.329511 
L 623.859935 136.039155 
L 623.970843 135.521705 
L 624.081432 135.906093 
L 624.191703 135.462573 
L 624.301659 135.713899 
L 624.520633 135.388658 
L 624.629653 135.580836 
L 624.738366 135.536488 
L 624.846771 135.77303 
L 624.954872 135.684333 
L 625.06267 135.299945 
L 625.170166 135.802596 
L 625.384261 135.373875 
L 625.490863 135.654767 
L 625.59717 135.536488 
L 625.808907 136.098286 
L 625.914339 135.506922 
L 626.019483 135.99479 
L 626.124341 135.22603 
L 626.437207 136.068721 
L 626.644379 135.77303 
L 626.953058 135.728682 
L 627.055403 135.920875 
L 627.157476 135.758247 
L 627.360812 135.980007 
L 627.462079 135.639984 
L 627.663814 136.201767 
L 628.064137 135.595635 
L 628.16357 135.758247 
L 628.262746 136.275697 
L 628.361667 135.77303 
L 628.460334 136.201767 
L 628.754824 135.743464 
L 628.949906 136.364395 
L 629.144002 136.009573 
L 629.240683 136.039155 
L 629.337123 136.393961 
L 629.720478 135.99479 
L 630.005506 136.053938 
L 630.100048 136.305263 
L 630.194358 136.231333 
L 630.288437 135.965224 
L 630.5693 136.320046 
L 631.032893 136.039155 
L 631.124944 136.260915 
L 631.216776 136.21655 
L 631.399783 135.817395 
L 631.581924 136.334829 
L 631.672671 135.965224 
L 631.853526 136.246132 
L 631.943636 136.053938 
L 632.212703 136.497457 
L 632.301976 136.29048 
L 632.391041 136.881829 
L 632.568555 136.305263 
L 632.657006 136.320046 
L 632.745254 136.793132 
L 632.921144 136.068721 
L 633.008788 136.467891 
L 633.096232 136.393961 
L 633.183478 136.467891 
L 633.270527 136.334829 
L 633.357379 135.920875 
L 633.530496 136.408744 
L 633.616764 136.127852 
L 633.702838 136.364395 
L 633.788719 136.29048 
L 633.87441 136.29048 
L 633.959909 135.906093 
L 634.045219 136.231333 
L 634.13034 136.068721 
L 634.215273 136.453093 
L 634.300019 136.024372 
L 634.384578 136.29048 
L 634.468952 135.787813 
L 634.553141 136.334829 
L 634.637146 136.024372 
L 634.804607 136.586155 
L 635.054439 135.906093 
L 635.137357 136.497457 
L 635.220096 136.482674 
L 635.302657 136.453093 
L 635.385042 136.201767 
L 635.46725 136.29048 
L 635.631142 136.379178 
L 635.712826 136.467891 
L 635.794337 136.83748 
L 636.037839 136.009573 
L 636.118664 136.364395 
L 636.19932 136.320046 
L 636.279808 136.497457 
L 636.360127 136.157418 
L 636.440278 136.231333 
L 636.679735 136.615721 
L 636.759223 136.231333 
L 636.838548 136.482674 
L 636.917709 136.068721 
L 637.075544 136.482674 
L 637.154219 136.43831 
L 637.232733 136.142635 
L 637.311088 136.556589 
L 637.389283 136.21655 
L 637.622918 136.497457 
L 637.700482 136.600938 
L 637.855142 136.364395 
L 637.932239 136.51224 
L 638.009182 136.364395 
L 638.085971 136.807915 
L 638.162607 136.29048 
L 638.239091 136.763566 
L 638.315422 136.142635 
L 638.391603 136.21655 
L 638.694824 136.674852 
L 638.770257 136.186984 
L 638.845542 136.275697 
L 638.995672 136.246132 
L 639.070517 136.497457 
L 639.145217 136.408744 
L 639.219773 136.467891 
L 639.294183 136.364395 
L 639.516556 136.586155 
L 639.590395 136.113069 
L 639.664092 136.349612 
L 639.737649 136.453093 
L 639.811065 136.186984 
L 639.884341 136.43831 
L 639.957478 136.393961 
L 640.030476 136.320046 
L 640.103335 136.039155 
L 640.176057 136.453093 
L 640.248641 136.408744 
L 640.321089 136.275697 
L 640.3934 136.51224 
L 640.537616 136.246132 
L 640.824434 136.334829 
L 640.895805 136.186984 
L 640.967045 136.482674 
L 641.038152 135.950441 
L 641.109128 136.734 
L 641.179973 136.393961 
L 641.250688 136.320046 
L 641.391729 136.674852 
L 641.462056 136.231333 
L 641.532255 136.807915 
L 641.602325 136.660069 
L 641.672268 136.748783 
L 641.811773 136.157418 
L 642.020087 136.674852 
L 642.089274 136.172201 
L 642.158338 136.83748 
L 642.227277 136.615721 
L 642.296093 136.689651 
L 642.364786 136.157418 
L 642.433357 136.482674 
L 642.501805 136.556589 
L 642.570132 136.423527 
L 642.638338 136.748783 
L 642.706422 136.29048 
L 642.774387 136.541806 
L 642.842231 136.497457 
L 642.909956 136.142635 
L 642.977562 136.571372 
L 643.045049 136.497457 
L 643.112418 136.600938 
L 643.179669 136.21655 
L 643.380719 136.734 
L 643.580723 136.393961 
L 643.713483 136.453093 
L 643.779691 136.29048 
L 643.845786 136.364395 
L 644.109034 136.748783 
L 644.174565 136.453093 
L 644.239985 136.556589 
L 644.305294 136.541806 
L 644.370491 136.645287 
L 644.500556 136.172201 
L 644.565424 136.43831 
L 644.630183 136.275697 
L 644.759373 136.674852 
L 644.823806 136.275697 
L 644.888131 136.527023 
L 644.952349 136.349612 
L 645.016459 136.689651 
L 645.080463 136.660069 
L 645.14436 136.379178 
L 645.208152 136.704434 
L 645.271837 136.51224 
L 645.398893 136.142635 
L 645.52553 136.571372 
L 645.714707 136.364395 
L 645.77756 136.83748 
L 645.84031 136.645287 
L 645.902957 136.201767 
L 645.965503 136.734 
L 646.027947 136.349612 
L 646.09029 136.51224 
L 646.152532 136.260915 
L 646.214674 136.586155 
L 646.276715 136.51224 
L 646.338656 136.527023 
L 646.400497 136.719217 
L 646.462239 136.527023 
L 646.523883 136.556589 
L 646.585427 136.600938 
L 646.646873 136.467891 
L 646.769471 136.763566 
L 646.89168 136.408744 
L 647.074267 136.674852 
L 647.255991 136.127852 
L 647.376665 136.660069 
L 647.43686 136.453093 
L 647.496961 136.51224 
L 647.616882 136.556589 
L 647.676703 136.334829 
L 647.736431 136.393961 
L 647.796065 136.674852 
L 647.855608 136.527023 
L 647.915058 136.453093 
L 648.09286 136.704434 
L 648.151945 136.497457 
L 648.210939 136.719217 
L 648.269843 136.615721 
L 648.328657 136.275697 
L 648.387381 136.379178 
L 648.563016 136.586155 
L 648.621383 136.527023 
L 648.737852 136.660069 
L 648.85397 136.172201 
L 648.911897 136.364395 
L 648.969738 136.453093 
L 649.027491 136.896612 
L 649.085158 136.689651 
L 649.142738 136.645287 
L 649.200232 136.305263 
L 649.257641 136.645287 
L 649.314964 136.497457 
L 649.372201 136.600938 
L 649.429353 136.408744 
L 649.486421 136.527023 
L 649.543404 136.674852 
L 649.600302 136.379178 
L 649.657117 136.689651 
L 649.713847 136.393961 
L 649.770494 136.29048 
L 649.883538 136.807915 
L 649.939936 136.305263 
L 649.996251 136.482674 
L 650.052484 136.586155 
L 650.108634 136.527023 
L 650.164703 136.231333 
L 650.276595 136.556589 
L 650.388163 136.349612 
L 650.443826 136.571372 
L 650.499408 136.334829 
L 650.665674 136.852263 
L 650.720937 136.408744 
L 650.77612 136.704434 
L 650.886249 136.246132 
L 650.996064 136.704434 
L 651.105566 136.51224 
L 651.1602 136.778349 
L 651.214757 136.674852 
L 651.323639 136.393961 
L 651.540481 136.881829 
L 651.594501 136.29048 
L 651.648446 136.645287 
L 651.756107 136.231333 
L 651.809825 136.29048 
L 651.970531 136.586155 
L 652.02395 136.29048 
L 652.077296 136.571372 
L 652.183765 136.630504 
L 652.236889 136.364395 
L 652.28994 136.51224 
L 652.501414 136.320046 
L 652.606716 136.482674 
L 652.65926 136.423527 
L 652.711731 136.43831 
L 652.764131 136.29048 
L 652.81646 136.822698 
L 652.868718 136.320046 
L 652.97302 136.793132 
L 653.128945 136.231333 
L 653.232545 136.51224 
L 653.387423 136.393961 
L 653.43891 136.586155 
L 653.490329 136.142635 
L 653.541679 136.29048 
L 653.644174 136.379178 
L 653.848347 136.246132 
L 653.899221 136.43831 
L 653.950029 136.231333 
L 654.102048 136.408744 
L 654.152588 136.320046 
L 654.30381 136.527023 
L 654.45444 136.231333 
L 654.504519 136.453093 
L 654.554533 136.246132 
L 654.75394 136.453093 
L 654.803631 136.320046 
L 654.90282 136.305263 
L 654.952318 136.068721 
L 655.001753 136.275697 
L 655.100433 136.793132 
L 655.247979 136.127852 
L 655.44383 136.541806 
L 655.541383 136.157418 
L 655.590067 136.645287 
L 655.638689 136.423527 
L 655.68725 136.497457 
L 655.735749 136.393961 
L 655.784188 136.260915 
L 655.832565 136.497457 
L 655.880881 136.21655 
L 655.929137 136.21655 
L 655.977333 136.068721 
L 656.025468 136.305263 
L 656.121557 136.231333 
L 656.169512 136.364395 
L 656.265243 136.305263 
L 656.313019 136.21655 
L 656.360736 136.615721 
L 656.408394 136.305263 
L 656.455992 136.379178 
L 656.503532 136.29048 
L 656.645799 136.201767 
L 656.693105 136.260915 
L 656.740353 136.246132 
L 656.787542 136.068721 
L 656.928765 136.423527 
L 656.975724 136.113069 
L 657.022625 136.408744 
L 657.06947 136.423527 
L 657.162988 136.172201 
L 657.209662 136.231333 
L 657.256279 136.305263 
L 657.30284 136.142635 
L 657.349345 136.423527 
L 657.395793 136.083504 
L 657.442185 136.068721 
L 657.627197 136.453093 
L 657.71937 136.260915 
L 657.765373 136.364395 
L 657.811322 135.920875 
L 657.857216 136.379178 
L 657.903055 136.21655 
L 657.948839 136.260915 
L 657.994569 136.467891 
L 658.040245 136.186984 
L 658.085866 136.423527 
L 658.131434 135.950441 
L 658.176947 136.246132 
L 658.222407 136.556589 
L 658.267813 136.29048 
L 658.313165 136.186984 
L 658.358464 136.21655 
L 658.494041 136.320046 
L 658.539128 136.127852 
L 658.584161 136.142635 
L 658.67407 136.349612 
L 658.76377 136.039155 
L 658.897928 136.320046 
L 659.031619 135.980007 
L 659.076079 135.935658 
L 659.120489 136.21655 
L 659.209154 136.142635 
L 659.253409 136.320046 
L 659.297614 136.21655 
L 659.341769 136.098286 
L 659.385872 136.186984 
L 659.51788 136.320046 
L 659.561782 136.039155 
L 659.605634 136.305263 
L 659.649436 136.379178 
L 659.736891 136.053938 
L 659.780543 136.231333 
L 659.824147 136.113069 
L 659.911205 135.99479 
L 659.954661 136.541806 
L 660.084733 135.965224 
L 660.257481 136.379178 
L 660.386534 136.083504 
L 660.429456 136.246132 
L 660.472329 136.246132 
L 660.557934 136.541806 
L 660.600665 136.039155 
L 660.685984 136.201767 
L 660.728573 136.157418 
L 660.813609 136.320046 
L 660.856057 136.201767 
L 660.898458 136.21655 
L 660.940812 136.571372 
L 660.98312 136.305263 
L 661.025381 136.246132 
L 661.067595 136.467891 
L 661.109764 136.423527 
L 661.235992 136.009573 
L 661.277976 136.29048 
L 661.361807 136.201767 
L 661.403654 136.083504 
L 661.445455 136.29048 
L 661.528922 136.423527 
L 661.570588 136.246132 
L 661.653783 136.734 
L 661.7368 136.260915 
L 661.778241 136.379178 
L 661.943559 136.43831 
L 661.984778 136.157418 
L 662.025953 136.408744 
L 662.231167 136.51224 
L 662.312947 136.349612 
L 662.353772 136.467891 
L 662.557248 136.246132 
L 662.638338 136.571372 
L 662.678819 136.43831 
L 662.800006 136.334829 
L 662.840317 136.423527 
L 662.880586 136.793132 
L 662.920813 136.571372 
L 662.960998 136.320046 
L 663.041241 136.482674 
L 663.320782 136.600938 
L 663.360551 136.379178 
L 663.439965 136.43831 
L 663.55878 136.719217 
L 663.598304 136.393961 
L 663.637787 136.867046 
L 663.677229 136.51224 
L 663.716631 136.571372 
L 663.755993 136.911411 
L 663.834596 136.734 
L 663.991321 136.586155 
L 664.108447 136.911411 
L 664.147409 136.852263 
L 664.225217 136.51224 
L 664.264061 136.571372 
L 664.302867 136.541806 
L 664.419048 136.719217 
L 664.496308 136.497457 
L 664.53488 136.600938 
L 664.573413 136.349612 
L 664.611908 136.689651 
L 664.650364 136.83748 
L 664.688781 136.305263 
L 664.765502 136.630504 
L 664.803804 136.556589 
L 664.842069 136.704434 
L 664.880296 136.660069 
L 664.918484 136.748783 
L 664.956635 136.364395 
L 665.032823 136.556589 
L 665.07086 136.778349 
L 665.146822 136.600938 
L 665.184747 136.497457 
L 665.222635 136.674852 
L 665.298298 136.852263 
L 665.336074 136.497457 
L 665.411514 136.719217 
L 665.524398 136.571372 
L 665.674396 136.896612 
L 665.711804 136.704434 
L 665.749176 136.911411 
L 665.786511 136.763566 
L 665.861074 136.822698 
L 665.972647 136.600938 
L 666.009766 136.719217 
L 666.083897 136.541806 
L 666.120909 136.364395 
L 666.231732 136.940977 
L 666.379 136.689651 
L 666.525706 137.014891 
L 666.671854 136.645287 
L 666.708305 136.467891 
L 666.744721 136.704434 
L 666.781102 136.95576 
L 666.817449 136.660069 
L 666.853762 136.778349 
L 666.890041 136.911411 
L 666.962495 136.763566 
L 667.034813 136.527023 
L 667.070921 136.719217 
L 667.143036 136.497457 
L 667.179042 136.748783 
L 667.28686 136.630504 
L 667.250954 136.822698 
L 667.322732 136.719217 
L 667.394376 136.674852 
L 667.430148 136.95576 
L 667.501593 136.867046 
L 667.537265 136.630504 
L 667.572905 136.926194 
L 667.608511 136.807915 
L 667.644084 136.689651 
L 667.679625 136.807915 
" clip-path="url(#p18460005a3)" style="fill: none; stroke: #1f77b4; stroke-width: 1.5; stroke-linecap: square"/>
   </g>
   <g id="patch_3">
    <path d="M 310.559625 311.6435 
L 310.559625 45.5315 
" style="fill: none; stroke: #000000; stroke-width: 0.8; stroke-linejoin: miter; stroke-linecap: square"/>
   </g>
   <g id="patch_4">
    <path d="M 667.679625 311.6435 
L 667.679625 45.5315 
" style="fill: none; stroke: #000000; stroke-width: 0.8; stroke-linejoin: miter; stroke-linecap: square"/>
   </g>
   <g id="patch_5">
    <path d="M 310.559625 311.6435 
L 667.679625 311.6435 
" style="fill: none; stroke: #000000; stroke-width: 0.8; stroke-linejoin: miter; stroke-linecap: square"/>
   </g>
   <g id="patch_6">
    <path d="M 310.559625 45.5315 
L 667.679625 45.5315 
" style="fill: none; stroke: #000000; stroke-width: 0.8; stroke-linejoin: miter; stroke-linecap: square"/>
   </g>
   <g id="text_19">
    <!-- Accuracy of the 21_05_25_CINIC10_torch_model_(3072+16.7+1)_ct on the validation set -->
    <g transform="translate(7.2 25.5315) scale(0.264 -0.264)">
     <defs>
      <path id="TimesNewRomanPSMT-20" transform="scale(0.015625)"/>
      <path id="TimesNewRomanPSMT-6f" d="M 1600 2947 
Q 2250 2947 2644 2453 
Q 2978 2031 2978 1484 
Q 2978 1100 2793 706 
Q 2609 313 2286 112 
Q 1963 -88 1566 -88 
Q 919 -88 538 428 
Q 216 863 216 1403 
Q 216 1797 411 2186 
Q 606 2575 925 2761 
Q 1244 2947 1600 2947 
z
M 1503 2744 
Q 1338 2744 1170 2645 
Q 1003 2547 900 2300 
Q 797 2053 797 1666 
Q 797 1041 1045 587 
Q 1294 134 1700 134 
Q 2003 134 2200 384 
Q 2397 634 2397 1244 
Q 2397 2006 2069 2444 
Q 1847 2744 1503 2744 
z
" transform="scale(0.015625)"/>
      <path id="TimesNewRomanPSMT-66" d="M 1319 2638 
L 1319 756 
Q 1319 356 1406 250 
Q 1522 113 1716 113 
L 1975 113 
L 1975 0 
L 266 0 
L 266 113 
L 394 113 
Q 519 113 622 175 
Q 725 238 764 344 
Q 803 450 803 756 
L 803 2638 
L 247 2638 
L 247 2863 
L 803 2863 
L 803 3050 
Q 803 3478 940 3775 
Q 1078 4072 1361 4255 
Q 1644 4438 1997 4438 
Q 2325 4438 2600 4225 
Q 2781 4084 2781 3909 
Q 2781 3816 2700 3733 
Q 2619 3650 2525 3650 
Q 2453 3650 2373 3701 
Q 2294 3753 2178 3923 
Q 2063 4094 1966 4153 
Q 1869 4213 1750 4213 
Q 1606 4213 1506 4136 
Q 1406 4059 1362 3898 
Q 1319 3738 1319 3069 
L 1319 2863 
L 2056 2863 
L 2056 2638 
L 1319 2638 
z
" transform="scale(0.015625)"/>
      <path id="TimesNewRomanPSMT-74" d="M 1031 3803 
L 1031 2863 
L 1700 2863 
L 1700 2644 
L 1031 2644 
L 1031 788 
Q 1031 509 1111 412 
Q 1191 316 1316 316 
Q 1419 316 1516 380 
Q 1613 444 1666 569 
L 1788 569 
Q 1678 263 1478 108 
Q 1278 -47 1066 -47 
Q 922 -47 784 33 
Q 647 113 581 261 
Q 516 409 516 719 
L 516 2644 
L 63 2644 
L 63 2747 
Q 234 2816 414 2980 
Q 594 3144 734 3369 
Q 806 3488 934 3803 
L 1031 3803 
z
" transform="scale(0.015625)"/>
      <path id="TimesNewRomanPSMT-68" d="M 1041 4444 
L 1041 2350 
Q 1388 2731 1591 2839 
Q 1794 2947 1997 2947 
Q 2241 2947 2416 2812 
Q 2591 2678 2675 2391 
Q 2734 2191 2734 1659 
L 2734 647 
Q 2734 375 2778 275 
Q 2809 200 2884 156 
Q 2959 113 3159 113 
L 3159 0 
L 1753 0 
L 1753 113 
L 1819 113 
Q 2019 113 2097 173 
Q 2175 234 2206 353 
Q 2216 403 2216 647 
L 2216 1659 
Q 2216 2128 2167 2275 
Q 2119 2422 2012 2495 
Q 1906 2569 1756 2569 
Q 1603 2569 1437 2487 
Q 1272 2406 1041 2159 
L 1041 647 
Q 1041 353 1073 281 
Q 1106 209 1195 161 
Q 1284 113 1503 113 
L 1503 0 
L 84 0 
L 84 113 
Q 275 113 384 172 
Q 447 203 484 290 
Q 522 378 522 647 
L 522 3238 
Q 522 3728 498 3840 
Q 475 3953 426 3993 
Q 378 4034 297 4034 
Q 231 4034 84 3984 
L 41 4094 
L 897 4444 
L 1041 4444 
z
" transform="scale(0.015625)"/>
      <path id="TimesNewRomanPSMT-65" d="M 681 1784 
Q 678 1147 991 784 
Q 1303 422 1725 422 
Q 2006 422 2214 576 
Q 2422 731 2563 1106 
L 2659 1044 
Q 2594 616 2278 264 
Q 1963 -88 1488 -88 
Q 972 -88 605 314 
Q 238 716 238 1394 
Q 238 2128 614 2539 
Q 991 2950 1559 2950 
Q 2041 2950 2350 2633 
Q 2659 2316 2659 1784 
L 681 1784 
z
M 681 1966 
L 2006 1966 
Q 1991 2241 1941 2353 
Q 1863 2528 1708 2628 
Q 1553 2728 1384 2728 
Q 1125 2728 920 2526 
Q 716 2325 681 1966 
z
" transform="scale(0.015625)"/>
      <path id="TimesNewRomanPSMT-5f" d="M 3256 -1381 
L -53 -1381 
L -53 -1119 
L 3256 -1119 
L 3256 -1381 
z
" transform="scale(0.015625)"/>
      <path id="TimesNewRomanPSMT-43" d="M 3853 4334 
L 3950 2894 
L 3853 2894 
Q 3659 3541 3300 3825 
Q 2941 4109 2438 4109 
Q 2016 4109 1675 3895 
Q 1334 3681 1139 3212 
Q 944 2744 944 2047 
Q 944 1472 1128 1050 
Q 1313 628 1683 403 
Q 2053 178 2528 178 
Q 2941 178 3256 354 
Q 3572 531 3950 1056 
L 4047 994 
Q 3728 428 3303 165 
Q 2878 -97 2294 -97 
Q 1241 -97 663 684 
Q 231 1266 231 2053 
Q 231 2688 515 3219 
Q 800 3750 1298 4042 
Q 1797 4334 2388 4334 
Q 2847 4334 3294 4109 
Q 3425 4041 3481 4041 
Q 3566 4041 3628 4100 
Q 3709 4184 3744 4334 
L 3853 4334 
z
" transform="scale(0.015625)"/>
      <path id="TimesNewRomanPSMT-49" d="M 1975 116 
L 1975 0 
L 159 0 
L 159 116 
L 309 116 
Q 572 116 691 269 
Q 766 369 766 750 
L 766 3488 
Q 766 3809 725 3913 
Q 694 3991 597 4047 
Q 459 4122 309 4122 
L 159 4122 
L 159 4238 
L 1975 4238 
L 1975 4122 
L 1822 4122 
Q 1563 4122 1444 3969 
Q 1366 3869 1366 3488 
L 1366 750 
Q 1366 428 1406 325 
Q 1438 247 1538 191 
Q 1672 116 1822 116 
L 1975 116 
z
" transform="scale(0.015625)"/>
      <path id="TimesNewRomanPSMT-4e" d="M -84 4238 
L 1066 4238 
L 3656 1059 
L 3656 3503 
Q 3656 3894 3569 3991 
Q 3453 4122 3203 4122 
L 3056 4122 
L 3056 4238 
L 4531 4238 
L 4531 4122 
L 4381 4122 
Q 4113 4122 4000 3959 
Q 3931 3859 3931 3503 
L 3931 -69 
L 3819 -69 
L 1025 3344 
L 1025 734 
Q 1025 344 1109 247 
Q 1228 116 1475 116 
L 1625 116 
L 1625 0 
L 150 0 
L 150 116 
L 297 116 
Q 569 116 681 278 
Q 750 378 750 734 
L 750 3681 
Q 566 3897 470 3965 
Q 375 4034 191 4094 
Q 100 4122 -84 4122 
L -84 4238 
z
" transform="scale(0.015625)"/>
      <path id="TimesNewRomanPSMT-6d" d="M 1050 2338 
Q 1363 2650 1419 2697 
Q 1559 2816 1721 2881 
Q 1884 2947 2044 2947 
Q 2313 2947 2506 2790 
Q 2700 2634 2766 2338 
Q 3088 2713 3309 2830 
Q 3531 2947 3766 2947 
Q 3994 2947 4170 2830 
Q 4347 2713 4450 2447 
Q 4519 2266 4519 1878 
L 4519 647 
Q 4519 378 4559 278 
Q 4591 209 4675 161 
Q 4759 113 4950 113 
L 4950 0 
L 3538 0 
L 3538 113 
L 3597 113 
Q 3781 113 3884 184 
Q 3956 234 3988 344 
Q 4000 397 4000 647 
L 4000 1878 
Q 4000 2228 3916 2372 
Q 3794 2572 3525 2572 
Q 3359 2572 3192 2489 
Q 3025 2406 2788 2181 
L 2781 2147 
L 2788 2013 
L 2788 647 
Q 2788 353 2820 281 
Q 2853 209 2943 161 
Q 3034 113 3253 113 
L 3253 0 
L 1806 0 
L 1806 113 
Q 2044 113 2133 169 
Q 2222 225 2256 338 
Q 2272 391 2272 647 
L 2272 1878 
Q 2272 2228 2169 2381 
Q 2031 2581 1784 2581 
Q 1616 2581 1450 2491 
Q 1191 2353 1050 2181 
L 1050 647 
Q 1050 366 1089 281 
Q 1128 197 1204 155 
Q 1281 113 1516 113 
L 1516 0 
L 100 0 
L 100 113 
Q 297 113 375 155 
Q 453 197 493 289 
Q 534 381 534 647 
L 534 1741 
Q 534 2213 506 2350 
Q 484 2453 437 2492 
Q 391 2531 309 2531 
Q 222 2531 100 2484 
L 53 2597 
L 916 2947 
L 1050 2947 
L 1050 2338 
z
" transform="scale(0.015625)"/>
      <path id="TimesNewRomanPSMT-64" d="M 2222 322 
Q 2013 103 1813 7 
Q 1613 -88 1381 -88 
Q 913 -88 563 304 
Q 213 697 213 1313 
Q 213 1928 600 2439 
Q 988 2950 1597 2950 
Q 1975 2950 2222 2709 
L 2222 3238 
Q 2222 3728 2198 3840 
Q 2175 3953 2125 3993 
Q 2075 4034 2000 4034 
Q 1919 4034 1784 3984 
L 1744 4094 
L 2597 4444 
L 2738 4444 
L 2738 1134 
Q 2738 631 2761 520 
Q 2784 409 2836 365 
Q 2888 322 2956 322 
Q 3041 322 3181 375 
L 3216 266 
L 2366 -88 
L 2222 -88 
L 2222 322 
z
M 2222 541 
L 2222 2016 
Q 2203 2228 2109 2403 
Q 2016 2578 1861 2667 
Q 1706 2756 1559 2756 
Q 1284 2756 1069 2509 
Q 784 2184 784 1559 
Q 784 928 1059 592 
Q 1334 256 1672 256 
Q 1956 256 2222 541 
z
" transform="scale(0.015625)"/>
      <path id="TimesNewRomanPSMT-6c" d="M 1184 4444 
L 1184 647 
Q 1184 378 1223 290 
Q 1263 203 1344 158 
Q 1425 113 1647 113 
L 1647 0 
L 244 0 
L 244 113 
Q 441 113 512 153 
Q 584 194 625 287 
Q 666 381 666 647 
L 666 3247 
Q 666 3731 644 3842 
Q 622 3953 573 3993 
Q 525 4034 450 4034 
Q 369 4034 244 3984 
L 191 4094 
L 1044 4444 
L 1184 4444 
z
" transform="scale(0.015625)"/>
      <path id="TimesNewRomanPSMT-28" d="M 1988 -1253 
L 1988 -1369 
Q 1516 -1131 1200 -813 
Q 750 -359 506 256 
Q 263 872 263 1534 
Q 263 2503 741 3301 
Q 1219 4100 1988 4444 
L 1988 4313 
Q 1603 4100 1356 3731 
Q 1109 3363 987 2797 
Q 866 2231 866 1616 
Q 866 947 969 400 
Q 1050 -31 1165 -292 
Q 1281 -553 1476 -793 
Q 1672 -1034 1988 -1253 
z
" transform="scale(0.015625)"/>
      <path id="TimesNewRomanPSMT-2b" d="M 1672 441 
L 1672 2000 
L 116 2000 
L 116 2256 
L 1672 2256 
L 1672 3809 
L 1922 3809 
L 1922 2256 
L 3484 2256 
L 3484 2000 
L 1922 2000 
L 1922 441 
L 1672 441 
z
" transform="scale(0.015625)"/>
      <path id="TimesNewRomanPSMT-29" d="M 144 4313 
L 144 4444 
Q 619 4209 934 3891 
Q 1381 3434 1625 2820 
Q 1869 2206 1869 1541 
Q 1869 572 1392 -226 
Q 916 -1025 144 -1369 
L 144 -1253 
Q 528 -1038 776 -670 
Q 1025 -303 1145 264 
Q 1266 831 1266 1447 
Q 1266 2113 1163 2663 
Q 1084 3094 967 3353 
Q 850 3613 656 3853 
Q 463 4094 144 4313 
z
" transform="scale(0.015625)"/>
      <path id="TimesNewRomanPSMT-6e" d="M 1034 2341 
Q 1538 2947 1994 2947 
Q 2228 2947 2397 2830 
Q 2566 2713 2666 2444 
Q 2734 2256 2734 1869 
L 2734 647 
Q 2734 375 2778 278 
Q 2813 200 2889 156 
Q 2966 113 3172 113 
L 3172 0 
L 1756 0 
L 1756 113 
L 1816 113 
Q 2016 113 2095 173 
Q 2175 234 2206 353 
Q 2219 400 2219 647 
L 2219 1819 
Q 2219 2209 2117 2386 
Q 2016 2563 1775 2563 
Q 1403 2563 1034 2156 
L 1034 647 
Q 1034 356 1069 288 
Q 1113 197 1189 155 
Q 1266 113 1500 113 
L 1500 0 
L 84 0 
L 84 113 
L 147 113 
Q 366 113 442 223 
Q 519 334 519 647 
L 519 1709 
Q 519 2225 495 2337 
Q 472 2450 423 2490 
Q 375 2531 294 2531 
Q 206 2531 84 2484 
L 38 2597 
L 900 2947 
L 1034 2947 
L 1034 2341 
z
" transform="scale(0.015625)"/>
      <path id="TimesNewRomanPSMT-76" d="M 53 2863 
L 1400 2863 
L 1400 2747 
L 1313 2747 
Q 1191 2747 1127 2687 
Q 1063 2628 1063 2528 
Q 1063 2419 1128 2269 
L 1794 688 
L 2463 2328 
Q 2534 2503 2534 2594 
Q 2534 2638 2509 2666 
Q 2475 2713 2422 2730 
Q 2369 2747 2206 2747 
L 2206 2863 
L 3141 2863 
L 3141 2747 
Q 2978 2734 2916 2681 
Q 2806 2588 2719 2369 
L 1703 -88 
L 1575 -88 
L 553 2328 
Q 484 2497 421 2570 
Q 359 2644 263 2694 
Q 209 2722 53 2747 
L 53 2863 
z
" transform="scale(0.015625)"/>
      <path id="TimesNewRomanPSMT-69" d="M 928 4444 
Q 1059 4444 1151 4351 
Q 1244 4259 1244 4128 
Q 1244 3997 1151 3903 
Q 1059 3809 928 3809 
Q 797 3809 703 3903 
Q 609 3997 609 4128 
Q 609 4259 701 4351 
Q 794 4444 928 4444 
z
M 1188 2947 
L 1188 647 
Q 1188 378 1227 289 
Q 1266 200 1342 156 
Q 1419 113 1622 113 
L 1622 0 
L 231 0 
L 231 113 
Q 441 113 512 153 
Q 584 194 626 287 
Q 669 381 669 647 
L 669 1750 
Q 669 2216 641 2353 
Q 619 2453 572 2492 
Q 525 2531 444 2531 
Q 356 2531 231 2484 
L 188 2597 
L 1050 2947 
L 1188 2947 
z
" transform="scale(0.015625)"/>
      <path id="TimesNewRomanPSMT-73" d="M 2050 2947 
L 2050 1972 
L 1947 1972 
Q 1828 2431 1642 2597 
Q 1456 2763 1169 2763 
Q 950 2763 815 2647 
Q 681 2531 681 2391 
Q 681 2216 781 2091 
Q 878 1963 1175 1819 
L 1631 1597 
Q 2266 1288 2266 781 
Q 2266 391 1970 151 
Q 1675 -88 1309 -88 
Q 1047 -88 709 6 
Q 606 38 541 38 
Q 469 38 428 -44 
L 325 -44 
L 325 978 
L 428 978 
Q 516 541 762 319 
Q 1009 97 1316 97 
Q 1531 97 1667 223 
Q 1803 350 1803 528 
Q 1803 744 1651 891 
Q 1500 1038 1047 1263 
Q 594 1488 453 1669 
Q 313 1847 313 2119 
Q 313 2472 555 2709 
Q 797 2947 1181 2947 
Q 1350 2947 1591 2875 
Q 1750 2828 1803 2828 
Q 1853 2828 1881 2850 
Q 1909 2872 1947 2947 
L 2050 2947 
z
" transform="scale(0.015625)"/>
     </defs>
     <use xlink:href="#TimesNewRomanPSMT-41"/>
     <use xlink:href="#TimesNewRomanPSMT-63" transform="translate(72.216797 0)"/>
     <use xlink:href="#TimesNewRomanPSMT-63" transform="translate(116.601562 0)"/>
     <use xlink:href="#TimesNewRomanPSMT-75" transform="translate(160.986328 0)"/>
     <use xlink:href="#TimesNewRomanPSMT-72" transform="translate(210.986328 0)"/>
     <use xlink:href="#TimesNewRomanPSMT-61" transform="translate(244.287109 0)"/>
     <use xlink:href="#TimesNewRomanPSMT-63" transform="translate(288.671875 0)"/>
     <use xlink:href="#TimesNewRomanPSMT-79" transform="translate(333.056641 0)"/>
     <use xlink:href="#TimesNewRomanPSMT-20" transform="translate(383.056641 0)"/>
     <use xlink:href="#TimesNewRomanPSMT-6f" transform="translate(408.056641 0)"/>
     <use xlink:href="#TimesNewRomanPSMT-66" transform="translate(458.056641 0)"/>
     <use xlink:href="#TimesNewRomanPSMT-20" transform="translate(491.357422 0)"/>
     <use xlink:href="#TimesNewRomanPSMT-74" transform="translate(516.357422 0)"/>
     <use xlink:href="#TimesNewRomanPSMT-68" transform="translate(544.140625 0)"/>
     <use xlink:href="#TimesNewRomanPSMT-65" transform="translate(594.140625 0)"/>
     <use xlink:href="#TimesNewRomanPSMT-20" transform="translate(638.525391 0)"/>
     <use xlink:href="#TimesNewRomanPSMT-32" transform="translate(663.525391 0)"/>
     <use xlink:href="#TimesNewRomanPSMT-31" transform="translate(713.525391 0)"/>
     <use xlink:href="#TimesNewRomanPSMT-5f" transform="translate(763.525391 0)"/>
     <use xlink:href="#TimesNewRomanPSMT-30" transform="translate(813.525391 0)"/>
     <use xlink:href="#TimesNewRomanPSMT-35" transform="translate(863.525391 0)"/>
     <use xlink:href="#TimesNewRomanPSMT-5f" transform="translate(913.525391 0)"/>
     <use xlink:href="#TimesNewRomanPSMT-32" transform="translate(963.525391 0)"/>
     <use xlink:href="#TimesNewRomanPSMT-35" transform="translate(1013.525391 0)"/>
     <use xlink:href="#TimesNewRomanPSMT-5f" transform="translate(1063.525391 0)"/>
     <use xlink:href="#TimesNewRomanPSMT-43" transform="translate(1113.525391 0)"/>
     <use xlink:href="#TimesNewRomanPSMT-49" transform="translate(1180.224609 0)"/>
     <use xlink:href="#TimesNewRomanPSMT-4e" transform="translate(1213.525391 0)"/>
     <use xlink:href="#TimesNewRomanPSMT-49" transform="translate(1285.742188 0)"/>
     <use xlink:href="#TimesNewRomanPSMT-43" transform="translate(1319.042969 0)"/>
     <use xlink:href="#TimesNewRomanPSMT-31" transform="translate(1385.742188 0)"/>
     <use xlink:href="#TimesNewRomanPSMT-30" transform="translate(1435.742188 0)"/>
     <use xlink:href="#TimesNewRomanPSMT-5f" transform="translate(1485.742188 0)"/>
     <use xlink:href="#TimesNewRomanPSMT-74" transform="translate(1535.742188 0)"/>
     <use xlink:href="#TimesNewRomanPSMT-6f" transform="translate(1563.525391 0)"/>
     <use xlink:href="#TimesNewRomanPSMT-72" transform="translate(1613.525391 0)"/>
     <use xlink:href="#TimesNewRomanPSMT-63" transform="translate(1646.826172 0)"/>
     <use xlink:href="#TimesNewRomanPSMT-68" transform="translate(1691.210938 0)"/>
     <use xlink:href="#TimesNewRomanPSMT-5f" transform="translate(1741.210938 0)"/>
     <use xlink:href="#TimesNewRomanPSMT-6d" transform="translate(1791.210938 0)"/>
     <use xlink:href="#TimesNewRomanPSMT-6f" transform="translate(1868.994141 0)"/>
     <use xlink:href="#TimesNewRomanPSMT-64" transform="translate(1918.994141 0)"/>
     <use xlink:href="#TimesNewRomanPSMT-65" transform="translate(1968.994141 0)"/>
     <use xlink:href="#TimesNewRomanPSMT-6c" transform="translate(2013.378906 0)"/>
     <use xlink:href="#TimesNewRomanPSMT-5f" transform="translate(2041.162109 0)"/>
     <use xlink:href="#TimesNewRomanPSMT-28" transform="translate(2091.162109 0)"/>
     <use xlink:href="#TimesNewRomanPSMT-33" transform="translate(2124.462891 0)"/>
     <use xlink:href="#TimesNewRomanPSMT-30" transform="translate(2174.462891 0)"/>
     <use xlink:href="#TimesNewRomanPSMT-37" transform="translate(2224.462891 0)"/>
     <use xlink:href="#TimesNewRomanPSMT-32" transform="translate(2274.462891 0)"/>
     <use xlink:href="#TimesNewRomanPSMT-2b" transform="translate(2324.462891 0)"/>
     <use xlink:href="#TimesNewRomanPSMT-31" transform="translate(2380.859375 0)"/>
     <use xlink:href="#TimesNewRomanPSMT-36" transform="translate(2430.859375 0)"/>
     <use xlink:href="#TimesNewRomanPSMT-2e" transform="translate(2480.859375 0)"/>
     <use xlink:href="#TimesNewRomanPSMT-37" transform="translate(2505.859375 0)"/>
     <use xlink:href="#TimesNewRomanPSMT-2b" transform="translate(2555.859375 0)"/>
     <use xlink:href="#TimesNewRomanPSMT-31" transform="translate(2612.255859 0)"/>
     <use xlink:href="#TimesNewRomanPSMT-29" transform="translate(2662.255859 0)"/>
     <use xlink:href="#TimesNewRomanPSMT-5f" transform="translate(2695.556641 0)"/>
     <use xlink:href="#TimesNewRomanPSMT-63" transform="translate(2745.556641 0)"/>
     <use xlink:href="#TimesNewRomanPSMT-74" transform="translate(2789.941406 0)"/>
     <use xlink:href="#TimesNewRomanPSMT-20" transform="translate(2817.724609 0)"/>
     <use xlink:href="#TimesNewRomanPSMT-6f" transform="translate(2842.724609 0)"/>
     <use xlink:href="#TimesNewRomanPSMT-6e" transform="translate(2892.724609 0)"/>
     <use xlink:href="#TimesNewRomanPSMT-20" transform="translate(2942.724609 0)"/>
     <use xlink:href="#TimesNewRomanPSMT-74" transform="translate(2967.724609 0)"/>
     <use xlink:href="#TimesNewRomanPSMT-68" transform="translate(2995.507812 0)"/>
     <use xlink:href="#TimesNewRomanPSMT-65" transform="translate(3045.507812 0)"/>
     <use xlink:href="#TimesNewRomanPSMT-20" transform="translate(3089.892578 0)"/>
     <use xlink:href="#TimesNewRomanPSMT-76" transform="translate(3114.892578 0)"/>
     <use xlink:href="#TimesNewRomanPSMT-61" transform="translate(3164.892578 0)"/>
     <use xlink:href="#TimesNewRomanPSMT-6c" transform="translate(3209.277344 0)"/>
     <use xlink:href="#TimesNewRomanPSMT-69" transform="translate(3237.060547 0)"/>
     <use xlink:href="#TimesNewRomanPSMT-64" transform="translate(3264.84375 0)"/>
     <use xlink:href="#TimesNewRomanPSMT-61" transform="translate(3314.84375 0)"/>
     <use xlink:href="#TimesNewRomanPSMT-74" transform="translate(3359.228516 0)"/>
     <use xlink:href="#TimesNewRomanPSMT-69" transform="translate(3387.011719 0)"/>
     <use xlink:href="#TimesNewRomanPSMT-6f" transform="translate(3414.794922 0)"/>
     <use xlink:href="#TimesNewRomanPSMT-6e" transform="translate(3464.794922 0)"/>
     <use xlink:href="#TimesNewRomanPSMT-20" transform="translate(3514.794922 0)"/>
     <use xlink:href="#TimesNewRomanPSMT-73" transform="translate(3539.794922 0)"/>
     <use xlink:href="#TimesNewRomanPSMT-65" transform="translate(3578.710938 0)"/>
     <use xlink:href="#TimesNewRomanPSMT-74" transform="translate(3623.095703 0)"/>
    </g>
   </g>
   <g id="legend_1">
    <g id="patch_7">
     <path d="M 415.109313 94.278687 
L 652.279625 94.278687 
Q 656.679625 94.278687 656.679625 89.878687 
L 656.679625 60.9315 
Q 656.679625 56.5315 652.279625 56.5315 
L 415.109313 56.5315 
Q 410.709313 56.5315 410.709313 60.9315 
L 410.709313 89.878687 
Q 410.709313 94.278687 415.109313 94.278687 
z
" style="fill: #ffffff; opacity: 0.8; stroke: #cccccc; stroke-linejoin: miter"/>
    </g>
    <g id="line2d_34">
     <path d="M 419.509313 73.0315 
L 441.509313 73.0315 
L 463.509313 73.0315 
" style="fill: none; stroke: #1f77b4; stroke-width: 1.5; stroke-linecap: square"/>
    </g>
    <g id="text_20">
     <!-- Best accuracy 0.67 -->
     <g transform="translate(481.109313 80.7315) scale(0.22 -0.22)">
      <defs>
       <path id="TimesNewRomanPSMT-42" d="M 2956 2163 
Q 3397 2069 3616 1863 
Q 3919 1575 3919 1159 
Q 3919 844 3719 555 
Q 3519 266 3170 133 
Q 2822 0 2106 0 
L 106 0 
L 106 116 
L 266 116 
Q 531 116 647 284 
Q 719 394 719 750 
L 719 3488 
Q 719 3881 628 3984 
Q 506 4122 266 4122 
L 106 4122 
L 106 4238 
L 1938 4238 
Q 2450 4238 2759 4163 
Q 3228 4050 3475 3764 
Q 3722 3478 3722 3106 
Q 3722 2788 3528 2536 
Q 3334 2284 2956 2163 
z
M 1319 2331 
Q 1434 2309 1582 2298 
Q 1731 2288 1909 2288 
Q 2366 2288 2595 2386 
Q 2825 2484 2947 2687 
Q 3069 2891 3069 3131 
Q 3069 3503 2766 3765 
Q 2463 4028 1881 4028 
Q 1569 4028 1319 3959 
L 1319 2331 
z
M 1319 306 
Q 1681 222 2034 222 
Q 2600 222 2897 476 
Q 3194 731 3194 1106 
Q 3194 1353 3059 1581 
Q 2925 1809 2622 1940 
Q 2319 2072 1872 2072 
Q 1678 2072 1540 2065 
Q 1403 2059 1319 2044 
L 1319 306 
z
" transform="scale(0.015625)"/>
      </defs>
      <use xlink:href="#TimesNewRomanPSMT-42"/>
      <use xlink:href="#TimesNewRomanPSMT-65" transform="translate(66.699219 0)"/>
      <use xlink:href="#TimesNewRomanPSMT-73" transform="translate(111.083984 0)"/>
      <use xlink:href="#TimesNewRomanPSMT-74" transform="translate(150 0)"/>
      <use xlink:href="#TimesNewRomanPSMT-20" transform="translate(177.783203 0)"/>
      <use xlink:href="#TimesNewRomanPSMT-61" transform="translate(202.783203 0)"/>
      <use xlink:href="#TimesNewRomanPSMT-63" transform="translate(247.167969 0)"/>
      <use xlink:href="#TimesNewRomanPSMT-63" transform="translate(291.552734 0)"/>
      <use xlink:href="#TimesNewRomanPSMT-75" transform="translate(335.9375 0)"/>
      <use xlink:href="#TimesNewRomanPSMT-72" transform="translate(385.9375 0)"/>
      <use xlink:href="#TimesNewRomanPSMT-61" transform="translate(419.238281 0)"/>
      <use xlink:href="#TimesNewRomanPSMT-63" transform="translate(463.623047 0)"/>
      <use xlink:href="#TimesNewRomanPSMT-79" transform="translate(508.007812 0)"/>
      <use xlink:href="#TimesNewRomanPSMT-20" transform="translate(558.007812 0)"/>
      <use xlink:href="#TimesNewRomanPSMT-30" transform="translate(583.007812 0)"/>
      <use xlink:href="#TimesNewRomanPSMT-2e" transform="translate(633.007812 0)"/>
      <use xlink:href="#TimesNewRomanPSMT-36" transform="translate(658.007812 0)"/>
      <use xlink:href="#TimesNewRomanPSMT-37" transform="translate(708.007812 0)"/>
     </g>
    </g>
   </g>
  </g>
 </g>
 <defs>
  <clipPath id="p18460005a3">
   <rect x="310.559625" y="45.5315" width="357.12" height="266.112"/>
  </clipPath>
 </defs>
</svg>
