<?xml version="1.0" encoding="utf-8" standalone="no"?>
<!DOCTYPE svg PUBLIC "-//W3C//DTD SVG 1.1//EN"
  "http://www.w3.org/Graphics/SVG/1.1/DTD/svg11.dtd">
<svg xmlns:xlink="http://www.w3.org/1999/xlink" width="872.037pt" height="383.265687pt" viewBox="0 0 872.037 383.265687" xmlns="http://www.w3.org/2000/svg" version="1.1">
 <metadata>
  <rdf:RDF xmlns:dc="http://purl.org/dc/elements/1.1/" xmlns:cc="http://creativecommons.org/ns#" xmlns:rdf="http://www.w3.org/1999/02/22-rdf-syntax-ns#">
   <cc:Work>
    <dc:type rdf:resource="http://purl.org/dc/dcmitype/StillImage"/>
    <dc:date>2025-07-11T00:02:06.585405</dc:date>
    <dc:format>image/svg+xml</dc:format>
    <dc:creator>
     <cc:Agent>
      <dc:title>Matplotlib v3.10.1, https://matplotlib.org/</dc:title>
     </cc:Agent>
    </dc:creator>
   </cc:Work>
  </rdf:RDF>
 </metadata>
 <defs>
  <style type="text/css">*{stroke-linejoin: round; stroke-linecap: butt}</style>
 </defs>
 <g id="figure_1">
  <g id="patch_1">
   <path d="M 0 383.265687 
L 872.037 383.265687 
L 872.037 0 
L 0 0 
z
" style="fill: #ffffff"/>
  </g>
  <g id="axes_1">
   <g id="patch_2">
    <path d="M 257.4585 311.6435 
L 614.5785 311.6435 
L 614.5785 45.5315 
L 257.4585 45.5315 
z
" style="fill: #ffffff"/>
   </g>
   <g id="matplotlib.axis_1">
    <g id="xtick_1">
     <g id="line2d_1">
      <path d="M 257.4585 311.6435 
L 257.4585 45.5315 
" clip-path="url(#p1f60324ff2)" style="fill: none; stroke: #b0b0b0; stroke-opacity: 0.3; stroke-width: 0.8; stroke-linecap: square"/>
     </g>
     <g id="line2d_2">
      <defs>
       <path id="mce985c04e8" d="M 0 0 
L 0 3.5 
" style="stroke: #000000; stroke-width: 0.8"/>
      </defs>
      <g>
       <use xlink:href="#mce985c04e8" x="257.4585" y="311.6435" style="stroke: #000000; stroke-width: 0.8"/>
      </g>
     </g>
     <g id="text_1">
      <!-- 0.0 -->
      <g transform="translate(243.7085 333.91975) scale(0.22 -0.22)">
       <defs>
        <path id="TimesNewRomanPSMT-30" d="M 231 2094 
Q 231 2819 450 3342 
Q 669 3866 1031 4122 
Q 1313 4325 1613 4325 
Q 2100 4325 2488 3828 
Q 2972 3213 2972 2159 
Q 2972 1422 2759 906 
Q 2547 391 2217 158 
Q 1888 -75 1581 -75 
Q 975 -75 572 641 
Q 231 1244 231 2094 
z
M 844 2016 
Q 844 1141 1059 588 
Q 1238 122 1591 122 
Q 1759 122 1940 273 
Q 2122 425 2216 781 
Q 2359 1319 2359 2297 
Q 2359 3022 2209 3506 
Q 2097 3866 1919 4016 
Q 1791 4119 1609 4119 
Q 1397 4119 1231 3928 
Q 1006 3669 925 3112 
Q 844 2556 844 2016 
z
" transform="scale(0.015625)"/>
        <path id="TimesNewRomanPSMT-2e" d="M 800 606 
Q 947 606 1047 504 
Q 1147 403 1147 259 
Q 1147 116 1045 14 
Q 944 -88 800 -88 
Q 656 -88 554 14 
Q 453 116 453 259 
Q 453 406 554 506 
Q 656 606 800 606 
z
" transform="scale(0.015625)"/>
       </defs>
       <use xlink:href="#TimesNewRomanPSMT-30"/>
       <use xlink:href="#TimesNewRomanPSMT-2e" transform="translate(50 0)"/>
       <use xlink:href="#TimesNewRomanPSMT-30" transform="translate(75 0)"/>
      </g>
     </g>
    </g>
    <g id="xtick_2">
     <g id="line2d_3">
      <path d="M 367.717455 311.6435 
L 367.717455 45.5315 
" clip-path="url(#p1f60324ff2)" style="fill: none; stroke: #b0b0b0; stroke-opacity: 0.3; stroke-width: 0.8; stroke-linecap: square"/>
     </g>
     <g id="line2d_4">
      <g>
       <use xlink:href="#mce985c04e8" x="367.717455" y="311.6435" style="stroke: #000000; stroke-width: 0.8"/>
      </g>
     </g>
     <g id="text_2">
      <!-- 0.5 -->
      <g transform="translate(353.967455 333.91975) scale(0.22 -0.22)">
       <defs>
        <path id="TimesNewRomanPSMT-35" d="M 2778 4238 
L 2534 3706 
L 1259 3706 
L 981 3138 
Q 1809 3016 2294 2522 
Q 2709 2097 2709 1522 
Q 2709 1188 2573 903 
Q 2438 619 2231 419 
Q 2025 219 1772 97 
Q 1413 -75 1034 -75 
Q 653 -75 479 54 
Q 306 184 306 341 
Q 306 428 378 495 
Q 450 563 559 563 
Q 641 563 702 538 
Q 763 513 909 409 
Q 1144 247 1384 247 
Q 1750 247 2026 523 
Q 2303 800 2303 1197 
Q 2303 1581 2056 1914 
Q 1809 2247 1375 2428 
Q 1034 2569 447 2591 
L 1259 4238 
L 2778 4238 
z
" transform="scale(0.015625)"/>
       </defs>
       <use xlink:href="#TimesNewRomanPSMT-30"/>
       <use xlink:href="#TimesNewRomanPSMT-2e" transform="translate(50 0)"/>
       <use xlink:href="#TimesNewRomanPSMT-35" transform="translate(75 0)"/>
      </g>
     </g>
    </g>
    <g id="xtick_3">
     <g id="line2d_5">
      <path d="M 477.97641 311.6435 
L 477.97641 45.5315 
" clip-path="url(#p1f60324ff2)" style="fill: none; stroke: #b0b0b0; stroke-opacity: 0.3; stroke-width: 0.8; stroke-linecap: square"/>
     </g>
     <g id="line2d_6">
      <g>
       <use xlink:href="#mce985c04e8" x="477.97641" y="311.6435" style="stroke: #000000; stroke-width: 0.8"/>
      </g>
     </g>
     <g id="text_3">
      <!-- 1.0 -->
      <g transform="translate(464.22641 333.91975) scale(0.22 -0.22)">
       <defs>
        <path id="TimesNewRomanPSMT-31" d="M 750 3822 
L 1781 4325 
L 1884 4325 
L 1884 747 
Q 1884 391 1914 303 
Q 1944 216 2037 169 
Q 2131 122 2419 116 
L 2419 0 
L 825 0 
L 825 116 
Q 1125 122 1212 167 
Q 1300 213 1334 289 
Q 1369 366 1369 747 
L 1369 3034 
Q 1369 3497 1338 3628 
Q 1316 3728 1258 3775 
Q 1200 3822 1119 3822 
Q 1003 3822 797 3725 
L 750 3822 
z
" transform="scale(0.015625)"/>
       </defs>
       <use xlink:href="#TimesNewRomanPSMT-31"/>
       <use xlink:href="#TimesNewRomanPSMT-2e" transform="translate(50 0)"/>
       <use xlink:href="#TimesNewRomanPSMT-30" transform="translate(75 0)"/>
      </g>
     </g>
    </g>
    <g id="xtick_4">
     <g id="line2d_7">
      <path d="M 588.235365 311.6435 
L 588.235365 45.5315 
" clip-path="url(#p1f60324ff2)" style="fill: none; stroke: #b0b0b0; stroke-opacity: 0.3; stroke-width: 0.8; stroke-linecap: square"/>
     </g>
     <g id="line2d_8">
      <g>
       <use xlink:href="#mce985c04e8" x="588.235365" y="311.6435" style="stroke: #000000; stroke-width: 0.8"/>
      </g>
     </g>
     <g id="text_4">
      <!-- 1.5 -->
      <g transform="translate(574.485365 333.91975) scale(0.22 -0.22)">
       <use xlink:href="#TimesNewRomanPSMT-31"/>
       <use xlink:href="#TimesNewRomanPSMT-2e" transform="translate(50 0)"/>
       <use xlink:href="#TimesNewRomanPSMT-35" transform="translate(75 0)"/>
      </g>
     </g>
    </g>
    <g id="text_5">
     <!-- $\kappa  = \frac{ln(n)}{ln(d)}$ -->
     <g transform="translate(404.0085 364.185687) scale(0.22 -0.22)">
      <defs>
       <path id="STIXGeneral-Italic-3ba" d="M 979 1440 
L 998 1446 
Q 1850 2541 2464 2790 
Q 2547 2822 2630 2822 
Q 2797 2822 2886 2736 
Q 2976 2650 2976 2522 
Q 2976 2387 2893 2307 
Q 2810 2227 2682 2227 
Q 2605 2227 2502 2288 
Q 2400 2349 2336 2349 
Q 2170 2349 1990 2205 
Q 1811 2061 1414 1645 
L 2042 544 
Q 2202 262 2310 182 
Q 2419 102 2624 102 
L 2624 0 
Q 2374 -83 2182 -83 
Q 1786 -83 1555 326 
L 960 1350 
L 576 0 
L 90 0 
L 640 1978 
Q 730 2317 730 2406 
Q 730 2560 518 2560 
L 339 2560 
L 339 2650 
Q 678 2694 1306 2822 
L 1325 2803 
L 979 1440 
z
" transform="scale(0.015625)"/>
       <path id="STIXGeneral-Regular-3d" d="M 4077 2048 
L 307 2048 
L 307 2470 
L 4077 2470 
L 4077 2048 
z
M 4077 768 
L 307 768 
L 307 1190 
L 4077 1190 
L 4077 768 
z
" transform="scale(0.015625)"/>
       <path id="STIXGeneral-Italic-6c" d="M 1786 4339 
L 806 595 
Q 755 410 755 320 
Q 755 205 864 205 
Q 1037 205 1293 570 
L 1453 794 
L 1542 730 
Q 1254 275 1046 102 
Q 838 -70 576 -70 
Q 262 -70 262 288 
Q 262 397 288 480 
L 1165 3834 
Q 1184 3898 1184 3955 
Q 1184 4096 870 4096 
L 755 4096 
L 755 4198 
Q 1203 4250 1747 4371 
L 1786 4339 
z
" transform="scale(0.015625)"/>
       <path id="STIXGeneral-Italic-6e" d="M 2944 749 
L 3034 666 
Q 2707 218 2534 80 
Q 2362 -58 2138 -58 
Q 2010 -58 1923 28 
Q 1837 115 1837 288 
Q 1837 390 1939 768 
L 2221 1805 
Q 2310 2150 2310 2310 
Q 2310 2496 2157 2496 
Q 1971 2496 1750 2275 
Q 1530 2054 1210 1587 
Q 998 1274 899 1024 
Q 800 774 570 0 
L 90 0 
L 704 2240 
Q 717 2304 717 2349 
Q 717 2445 630 2480 
Q 544 2515 301 2522 
L 301 2624 
Q 550 2675 857 2729 
Q 1165 2784 1338 2822 
L 1363 2810 
L 934 1414 
Q 1408 2170 1753 2496 
Q 2099 2822 2413 2822 
Q 2611 2822 2720 2716 
Q 2829 2611 2829 2432 
Q 2829 2272 2765 2048 
L 2406 749 
Q 2317 429 2317 358 
Q 2317 243 2419 243 
Q 2541 243 2810 582 
Q 2854 634 2944 749 
z
" transform="scale(0.015625)"/>
       <path id="STIXGeneral-Regular-28" d="M 1946 -1030 
L 1869 -1133 
Q 1126 -710 716 32 
Q 307 774 307 1613 
Q 307 3386 1888 4326 
L 1946 4224 
Q 1293 3667 1075 3126 
Q 858 2586 858 1632 
Q 858 685 1082 96 
Q 1306 -493 1946 -1030 
z
" transform="scale(0.015625)"/>
       <path id="STIXGeneral-Regular-29" d="M 186 4224 
L 262 4326 
Q 992 3891 1408 3148 
Q 1824 2406 1824 1581 
Q 1824 -166 243 -1133 
L 186 -1030 
Q 845 -486 1059 54 
Q 1274 595 1274 1562 
Q 1274 2534 1059 3120 
Q 845 3706 186 4224 
z
" transform="scale(0.015625)"/>
       <path id="STIXGeneral-Italic-64" d="M 3334 4371 
L 3373 4333 
L 3123 3360 
L 2739 1958 
Q 2323 429 2323 384 
Q 2323 256 2438 256 
Q 2522 256 2614 336 
Q 2707 416 2963 710 
L 3040 646 
Q 2547 -83 2099 -83 
Q 1978 -83 1907 -6 
Q 1837 70 1837 205 
Q 1837 397 1920 774 
Q 1645 307 1379 118 
Q 1114 -70 781 -70 
Q 461 -70 278 125 
Q 96 320 96 678 
Q 96 1440 713 2131 
Q 1331 2822 1965 2822 
Q 2163 2822 2256 2732 
Q 2349 2643 2381 2451 
L 2387 2451 
L 2675 3494 
Q 2765 3808 2765 3949 
Q 2765 4051 2694 4076 
Q 2624 4102 2355 4115 
L 2355 4224 
Q 2848 4269 3334 4371 
z
M 2278 2310 
Q 2278 2477 2185 2576 
Q 2093 2675 1978 2675 
Q 1677 2675 1395 2381 
Q 1075 2042 864 1571 
Q 653 1101 653 704 
Q 653 486 752 361 
Q 851 237 1024 237 
Q 1312 237 1606 550 
Q 1901 864 2089 1350 
Q 2278 1837 2278 2310 
z
" transform="scale(0.015625)"/>
      </defs>
      <use xlink:href="#STIXGeneral-Italic-3ba" transform="translate(0 0.003125)"/>
      <use xlink:href="#STIXGeneral-Regular-3d" transform="translate(58.83999 0.003125)"/>
      <use xlink:href="#STIXGeneral-Italic-6c" transform="translate(141.779971 50.192188) scale(0.7)"/>
      <use xlink:href="#STIXGeneral-Italic-6e" transform="translate(161.239963 50.192188) scale(0.7)"/>
      <use xlink:href="#STIXGeneral-Regular-28" transform="translate(196.239952 50.192188) scale(0.7)"/>
      <use xlink:href="#STIXGeneral-Italic-6e" transform="translate(219.549944 50.192188) scale(0.7)"/>
      <use xlink:href="#STIXGeneral-Regular-29" transform="translate(254.549933 50.192188) scale(0.7)"/>
      <use xlink:href="#STIXGeneral-Italic-6c" transform="translate(141.779971 -41.257812) scale(0.7)"/>
      <use xlink:href="#STIXGeneral-Italic-6e" transform="translate(161.239963 -41.257812) scale(0.7)"/>
      <use xlink:href="#STIXGeneral-Regular-28" transform="translate(196.239952 -41.257812) scale(0.7)"/>
      <use xlink:href="#STIXGeneral-Italic-64" transform="translate(219.549944 -41.257812) scale(0.7)"/>
      <use xlink:href="#STIXGeneral-Regular-29" transform="translate(254.549933 -41.257812) scale(0.7)"/>
      <path d="M 141.779971 12.8 
L 141.779971 19.05 
L 277.859924 19.05 
L 277.859924 12.8 
L 141.779971 12.8 
z
"/>
     </g>
    </g>
   </g>
   <g id="matplotlib.axis_2">
    <g id="ytick_1">
     <g id="line2d_9">
      <path d="M 257.4585 311.6435 
L 614.5785 311.6435 
" clip-path="url(#p1f60324ff2)" style="fill: none; stroke: #b0b0b0; stroke-opacity: 0.3; stroke-width: 0.8; stroke-linecap: square"/>
     </g>
     <g id="line2d_10">
      <defs>
       <path id="m188bcb711b" d="M 0 0 
L -3.5 0 
" style="stroke: #000000; stroke-width: 0.8"/>
      </defs>
      <g>
       <use xlink:href="#m188bcb711b" x="257.4585" y="311.6435" style="stroke: #000000; stroke-width: 0.8"/>
      </g>
     </g>
     <g id="text_6">
      <!-- 0.0 -->
      <g transform="translate(222.9585 319.281625) scale(0.22 -0.22)">
       <use xlink:href="#TimesNewRomanPSMT-30"/>
       <use xlink:href="#TimesNewRomanPSMT-2e" transform="translate(50 0)"/>
       <use xlink:href="#TimesNewRomanPSMT-30" transform="translate(75 0)"/>
      </g>
     </g>
    </g>
    <g id="ytick_2">
     <g id="line2d_11">
      <path d="M 257.4585 259.407971 
L 614.5785 259.407971 
" clip-path="url(#p1f60324ff2)" style="fill: none; stroke: #b0b0b0; stroke-opacity: 0.3; stroke-width: 0.8; stroke-linecap: square"/>
     </g>
     <g id="line2d_12">
      <g>
       <use xlink:href="#m188bcb711b" x="257.4585" y="259.407971" style="stroke: #000000; stroke-width: 0.8"/>
      </g>
     </g>
     <g id="text_7">
      <!-- 0.1 -->
      <g transform="translate(222.9585 267.046096) scale(0.22 -0.22)">
       <use xlink:href="#TimesNewRomanPSMT-30"/>
       <use xlink:href="#TimesNewRomanPSMT-2e" transform="translate(50 0)"/>
       <use xlink:href="#TimesNewRomanPSMT-31" transform="translate(75 0)"/>
      </g>
     </g>
    </g>
    <g id="ytick_3">
     <g id="line2d_13">
      <path d="M 257.4585 207.172443 
L 614.5785 207.172443 
" clip-path="url(#p1f60324ff2)" style="fill: none; stroke: #b0b0b0; stroke-opacity: 0.3; stroke-width: 0.8; stroke-linecap: square"/>
     </g>
     <g id="line2d_14">
      <g>
       <use xlink:href="#m188bcb711b" x="257.4585" y="207.172443" style="stroke: #000000; stroke-width: 0.8"/>
      </g>
     </g>
     <g id="text_8">
      <!-- 0.2 -->
      <g transform="translate(222.9585 214.810568) scale(0.22 -0.22)">
       <defs>
        <path id="TimesNewRomanPSMT-32" d="M 2934 816 
L 2638 0 
L 138 0 
L 138 116 
Q 1241 1122 1691 1759 
Q 2141 2397 2141 2925 
Q 2141 3328 1894 3587 
Q 1647 3847 1303 3847 
Q 991 3847 742 3664 
Q 494 3481 375 3128 
L 259 3128 
Q 338 3706 661 4015 
Q 984 4325 1469 4325 
Q 1984 4325 2329 3994 
Q 2675 3663 2675 3213 
Q 2675 2891 2525 2569 
Q 2294 2063 1775 1497 
Q 997 647 803 472 
L 1909 472 
Q 2247 472 2383 497 
Q 2519 522 2628 598 
Q 2738 675 2819 816 
L 2934 816 
z
" transform="scale(0.015625)"/>
       </defs>
       <use xlink:href="#TimesNewRomanPSMT-30"/>
       <use xlink:href="#TimesNewRomanPSMT-2e" transform="translate(50 0)"/>
       <use xlink:href="#TimesNewRomanPSMT-32" transform="translate(75 0)"/>
      </g>
     </g>
    </g>
    <g id="ytick_4">
     <g id="line2d_15">
      <path d="M 257.4585 154.936914 
L 614.5785 154.936914 
" clip-path="url(#p1f60324ff2)" style="fill: none; stroke: #b0b0b0; stroke-opacity: 0.3; stroke-width: 0.8; stroke-linecap: square"/>
     </g>
     <g id="line2d_16">
      <g>
       <use xlink:href="#m188bcb711b" x="257.4585" y="154.936914" style="stroke: #000000; stroke-width: 0.8"/>
      </g>
     </g>
     <g id="text_9">
      <!-- 0.3 -->
      <g transform="translate(222.9585 162.575039) scale(0.22 -0.22)">
       <defs>
        <path id="TimesNewRomanPSMT-33" d="M 325 3431 
Q 506 3859 782 4092 
Q 1059 4325 1472 4325 
Q 1981 4325 2253 3994 
Q 2459 3747 2459 3466 
Q 2459 3003 1878 2509 
Q 2269 2356 2469 2072 
Q 2669 1788 2669 1403 
Q 2669 853 2319 450 
Q 1863 -75 997 -75 
Q 569 -75 414 31 
Q 259 138 259 259 
Q 259 350 332 419 
Q 406 488 509 488 
Q 588 488 669 463 
Q 722 447 909 348 
Q 1097 250 1169 231 
Q 1284 197 1416 197 
Q 1734 197 1970 444 
Q 2206 691 2206 1028 
Q 2206 1275 2097 1509 
Q 2016 1684 1919 1775 
Q 1784 1900 1550 2001 
Q 1316 2103 1072 2103 
L 972 2103 
L 972 2197 
Q 1219 2228 1467 2375 
Q 1716 2522 1828 2728 
Q 1941 2934 1941 3181 
Q 1941 3503 1739 3701 
Q 1538 3900 1238 3900 
Q 753 3900 428 3381 
L 325 3431 
z
" transform="scale(0.015625)"/>
       </defs>
       <use xlink:href="#TimesNewRomanPSMT-30"/>
       <use xlink:href="#TimesNewRomanPSMT-2e" transform="translate(50 0)"/>
       <use xlink:href="#TimesNewRomanPSMT-33" transform="translate(75 0)"/>
      </g>
     </g>
    </g>
    <g id="ytick_5">
     <g id="line2d_17">
      <path d="M 257.4585 102.701386 
L 614.5785 102.701386 
" clip-path="url(#p1f60324ff2)" style="fill: none; stroke: #b0b0b0; stroke-opacity: 0.3; stroke-width: 0.8; stroke-linecap: square"/>
     </g>
     <g id="line2d_18">
      <g>
       <use xlink:href="#m188bcb711b" x="257.4585" y="102.701386" style="stroke: #000000; stroke-width: 0.8"/>
      </g>
     </g>
     <g id="text_10">
      <!-- 0.4 -->
      <g transform="translate(222.9585 110.339511) scale(0.22 -0.22)">
       <defs>
        <path id="TimesNewRomanPSMT-34" d="M 2978 1563 
L 2978 1119 
L 2409 1119 
L 2409 0 
L 1894 0 
L 1894 1119 
L 100 1119 
L 100 1519 
L 2066 4325 
L 2409 4325 
L 2409 1563 
L 2978 1563 
z
M 1894 1563 
L 1894 3666 
L 406 1563 
L 1894 1563 
z
" transform="scale(0.015625)"/>
       </defs>
       <use xlink:href="#TimesNewRomanPSMT-30"/>
       <use xlink:href="#TimesNewRomanPSMT-2e" transform="translate(50 0)"/>
       <use xlink:href="#TimesNewRomanPSMT-34" transform="translate(75 0)"/>
      </g>
     </g>
    </g>
    <g id="ytick_6">
     <g id="line2d_19">
      <path d="M 257.4585 50.465857 
L 614.5785 50.465857 
" clip-path="url(#p1f60324ff2)" style="fill: none; stroke: #b0b0b0; stroke-opacity: 0.3; stroke-width: 0.8; stroke-linecap: square"/>
     </g>
     <g id="line2d_20">
      <g>
       <use xlink:href="#m188bcb711b" x="257.4585" y="50.465857" style="stroke: #000000; stroke-width: 0.8"/>
      </g>
     </g>
     <g id="text_11">
      <!-- 0.5 -->
      <g transform="translate(222.9585 58.103982) scale(0.22 -0.22)">
       <use xlink:href="#TimesNewRomanPSMT-30"/>
       <use xlink:href="#TimesNewRomanPSMT-2e" transform="translate(50 0)"/>
       <use xlink:href="#TimesNewRomanPSMT-35" transform="translate(75 0)"/>
      </g>
     </g>
    </g>
    <g id="text_12">
     <!-- Loss -->
     <g transform="translate(214.252563 199.368906) rotate(-90) scale(0.22 -0.22)">
      <defs>
       <path id="TimesNewRomanPSMT-4c" d="M 3669 1172 
L 3772 1150 
L 3409 0 
L 128 0 
L 128 116 
L 288 116 
Q 556 116 672 291 
Q 738 391 738 753 
L 738 3488 
Q 738 3884 650 3984 
Q 528 4122 288 4122 
L 128 4122 
L 128 4238 
L 2047 4238 
L 2047 4122 
Q 1709 4125 1573 4059 
Q 1438 3994 1388 3894 
Q 1338 3794 1338 3416 
L 1338 753 
Q 1338 494 1388 397 
Q 1425 331 1503 300 
Q 1581 269 1991 269 
L 2300 269 
Q 2788 269 2984 341 
Q 3181 413 3343 595 
Q 3506 778 3669 1172 
z
" transform="scale(0.015625)"/>
       <path id="TimesNewRomanPSMT-6f" d="M 1600 2947 
Q 2250 2947 2644 2453 
Q 2978 2031 2978 1484 
Q 2978 1100 2793 706 
Q 2609 313 2286 112 
Q 1963 -88 1566 -88 
Q 919 -88 538 428 
Q 216 863 216 1403 
Q 216 1797 411 2186 
Q 606 2575 925 2761 
Q 1244 2947 1600 2947 
z
M 1503 2744 
Q 1338 2744 1170 2645 
Q 1003 2547 900 2300 
Q 797 2053 797 1666 
Q 797 1041 1045 587 
Q 1294 134 1700 134 
Q 2003 134 2200 384 
Q 2397 634 2397 1244 
Q 2397 2006 2069 2444 
Q 1847 2744 1503 2744 
z
" transform="scale(0.015625)"/>
       <path id="TimesNewRomanPSMT-73" d="M 2050 2947 
L 2050 1972 
L 1947 1972 
Q 1828 2431 1642 2597 
Q 1456 2763 1169 2763 
Q 950 2763 815 2647 
Q 681 2531 681 2391 
Q 681 2216 781 2091 
Q 878 1963 1175 1819 
L 1631 1597 
Q 2266 1288 2266 781 
Q 2266 391 1970 151 
Q 1675 -88 1309 -88 
Q 1047 -88 709 6 
Q 606 38 541 38 
Q 469 38 428 -44 
L 325 -44 
L 325 978 
L 428 978 
Q 516 541 762 319 
Q 1009 97 1316 97 
Q 1531 97 1667 223 
Q 1803 350 1803 528 
Q 1803 744 1651 891 
Q 1500 1038 1047 1263 
Q 594 1488 453 1669 
Q 313 1847 313 2119 
Q 313 2472 555 2709 
Q 797 2947 1181 2947 
Q 1350 2947 1591 2875 
Q 1750 2828 1803 2828 
Q 1853 2828 1881 2850 
Q 1909 2872 1947 2947 
L 2050 2947 
z
" transform="scale(0.015625)"/>
      </defs>
      <use xlink:href="#TimesNewRomanPSMT-4c"/>
      <use xlink:href="#TimesNewRomanPSMT-6f" transform="translate(61.083984 0)"/>
      <use xlink:href="#TimesNewRomanPSMT-73" transform="translate(111.083984 0)"/>
      <use xlink:href="#TimesNewRomanPSMT-73" transform="translate(150 0)"/>
     </g>
    </g>
   </g>
   <g id="line2d_21">
    <path d="M 257.4585 104.317777 
L 333.748634 155.921686 
L 354.320602 173.484734 
L 366.711096 182.395343 
L 375.605842 189.302054 
L 382.549381 194.341331 
L 388.245636 198.785286 
L 393.075202 202.749299 
L 404.287768 212.529028 
L 410.035612 218.004682 
L 421.039229 228.660529 
L 424.558175 231.470328 
L 429.1995 235.5167 
L 430.60743 236.466359 
L 431.955684 237.673727 
L 434.492008 239.613091 
L 435.688165 240.206442 
L 436.840973 241.312592 
L 441.074989 243.991788 
L 442.050956 244.936994 
L 442.997871 244.983641 
L 443.917416 245.958674 
L 446.526584 247.915532 
L 447.350827 248.427135 
L 448.154254 248.663164 
L 450.44953 250.679539 
L 451.89259 251.441575 
L 452.590293 252.126739 
L 454.596043 253.404177 
L 455.237476 253.445497 
L 455.866232 254.318664 
L 456.482802 254.489941 
L 457.087649 255.147679 
L 457.681212 255.340193 
L 458.263902 255.681544 
L 458.836112 256.284006 
L 460.493467 257.452713 
L 461.552267 257.772596 
L 463.077193 259.208042 
L 463.569679 259.413968 
L 464.054659 259.353613 
L 464.532355 260.147014 
L 465.002986 260.325167 
L 465.466755 260.832022 
L 465.923861 261.066093 
L 466.374492 260.25 
L 466.818829 261.245317 
L 467.257045 261.838143 
L 468.115775 262.58969 
L 468.951934 262.952294 
L 469.361914 263.061752 
L 469.766678 263.652271 
L 470.166357 263.720966 
L 470.950959 264.493611 
L 471.336122 264.696407 
L 471.716677 263.137873 
L 472.092733 264.84473 
L 472.464396 265.49454 
L 474.607564 266.873567 
L 474.951131 266.165484 
L 475.291028 267.176275 
L 475.627332 267.607827 
L 476.938084 268.421087 
L 477.257504 268.083278 
L 477.57375 268.92196 
L 477.886882 269.050648 
L 478.196963 269.370185 
L 478.808202 269.509287 
L 479.109473 270.009016 
L 479.70359 270.07617 
L 479.996538 270.614316 
L 480.574466 270.622115 
L 480.859539 271.195692 
L 481.422136 271.333176 
L 481.974956 271.949781 
L 482.247805 272.070518 
L 482.518334 270.916895 
L 482.786582 271.916755 
L 483.316387 272.758406 
L 484.094909 273.356097 
L 484.350239 273.475195 
L 484.603537 273.306865 
L 484.854834 273.767072 
L 485.35155 274.116821 
L 485.840629 274.518632 
L 486.082378 274.602793 
L 486.322304 273.283187 
L 486.796795 274.941897 
L 487.264313 275.405759 
L 488.179229 276.036336 
L 488.403905 276.033608 
L 488.627005 275.563648 
L 489.068567 276.596413 
L 489.933719 277.047182 
L 490.146381 277.062275 
L 490.567486 277.593014 
L 490.775966 277.67047 
L 490.983089 277.070308 
L 491.188873 277.955914 
L 492.198285 278.518224 
L 492.396381 278.534005 
L 492.788909 279.018441 
L 492.983372 279.139598 
L 493.176653 279.060837 
L 493.368767 278.598964 
L 493.74955 279.4653 
L 494.125829 279.866008 
L 494.682032 280.198656 
L 495.047504 280.069854 
L 495.408826 280.629438 
L 495.766089 280.793055 
L 495.943228 280.748927 
L 496.294574 281.226663 
L 496.468802 281.182759 
L 496.642081 280.984047 
L 496.814422 281.546023 
L 496.985834 281.543505 
L 497.325912 281.880325 
L 497.494598 281.829423 
L 497.662394 281.452066 
L 497.995353 282.292684 
L 498.324864 282.492421 
L 498.650997 282.701715 
L 498.812819 282.373452 
L 498.973821 282.780514 
L 499.134013 282.804244 
L 499.609805 283.282714 
L 499.923091 283.457057 
L 500.078585 283.329494 
L 500.540559 283.771159 
L 500.99592 284.077348 
L 501.14627 283.74888 
L 501.295913 284.367283 
L 501.444855 284.323107 
L 501.740664 284.595342 
L 502.033748 284.608835 
L 502.179283 284.90979 
L 502.324156 284.953485 
L 502.468372 284.806426 
L 503.038786 285.399875 
L 503.320204 285.470701 
L 503.459984 285.093518 
L 503.599153 285.738909 
L 504.421621 286.008336 
L 504.691119 286.421758 
L 504.958352 286.320229 
L 505.091132 286.681123 
L 505.486179 286.794622 
L 505.746844 287.082684 
L 505.87638 287.14069 
L 506.005391 286.597814 
L 506.133881 287.306564 
L 506.516265 287.500386 
L 507.019065 287.827253 
L 507.267516 287.692692 
L 507.391018 288.060824 
L 507.514042 288.026035 
L 507.880286 288.304127 
L 508.001436 288.029219 
L 508.122127 288.422465 
L 508.242361 288.425039 
L 508.481476 288.669352 
L 508.718806 288.727732 
L 509.071515 288.97435 
L 509.188221 288.751342 
L 509.420356 289.155376 
L 509.765414 289.433647 
L 509.879607 289.179478 
L 510.219745 289.724139 
L 510.444501 289.8232 
L 510.66768 289.853599 
L 510.778685 289.662083 
L 510.889304 290.108963 
L 510.99954 290.067641 
L 511.327973 290.356687 
L 511.436702 290.2289 
L 511.545061 289.817537 
L 511.760677 290.557388 
L 512.187573 290.845373 
L 512.293409 290.841306 
L 512.398893 290.695019 
L 512.608818 291.053484 
L 512.817367 291.107641 
L 513.024557 291.305164 
L 513.127649 291.206266 
L 513.230407 290.937972 
L 513.434934 291.533285 
L 513.840084 291.741939 
L 513.940571 291.491062 
L 514.140597 291.832004 
L 514.339373 292.038879 
L 514.536915 292.024382 
L 514.830947 292.315019 
L 515.025469 292.12368 
L 515.410981 292.650635 
L 515.791878 292.831277 
L 515.980629 292.935386 
L 516.074587 292.589019 
L 516.168268 292.98785 
L 516.261674 292.963053 
L 516.540257 293.254981 
L 516.999209 293.500926 
L 517.180952 293.57053 
L 517.271436 293.042194 
L 517.451634 293.722349 
L 517.720033 293.899639 
L 517.986187 294.031755 
L 518.074412 293.755401 
L 518.337629 294.23777 
L 518.685232 294.393448 
L 518.771542 294.073203 
L 518.857619 294.465268 
L 518.943464 294.426229 
L 519.199617 294.697242 
L 519.369246 294.715016 
L 519.453723 294.39849 
L 519.537977 294.881103 
L 519.622007 294.82642 
L 519.789406 294.969261 
L 520.36846 295.229283 
L 520.450328 294.84415 
L 520.531986 295.398817 
L 520.613436 295.379144 
L 520.937163 295.612972 
L 521.017582 295.558955 
L 521.097799 295.165708 
L 521.257629 295.750741 
L 521.732356 295.96397 
L 521.889037 296.022021 
L 521.967089 295.979894 
L 522.122621 296.234103 
L 522.200103 296.207572 
L 522.277396 295.969373 
L 522.354502 296.338884 
L 522.431422 296.304399 
L 522.584706 296.467175 
L 522.737255 296.375517 
L 522.889076 296.634848 
L 523.040176 296.440315 
L 523.115457 296.754508 
L 523.190561 296.72858 
L 523.414815 296.894165 
L 523.489216 296.703661 
L 523.563444 296.754686 
L 523.858635 297.141648 
L 524.00521 297.181834 
L 524.078245 296.890839 
L 524.151113 297.259243 
L 524.223814 297.223887 
L 524.440926 297.423592 
L 524.584848 297.408729 
L 524.656566 297.271328 
L 524.728123 297.589479 
L 524.799519 297.553639 
L 525.01275 297.713342 
L 525.083511 297.488994 
L 525.154115 297.559574 
L 525.504802 297.946007 
L 525.920586 298.151572 
L 525.989359 297.904672 
L 526.057982 298.072044 
L 526.736201 298.55455 
L 526.803234 298.489938 
L 526.870126 298.159528 
L 527.003491 298.672128 
L 527.596807 298.911168 
L 527.727166 299.012432 
L 527.856992 298.808645 
L 528.050745 299.175733 
L 528.371066 299.292457 
L 528.498296 299.383181 
L 528.62502 299.195989 
L 528.876964 299.562473 
L 529.064621 299.586146 
L 529.126928 299.511229 
L 529.251177 299.734392 
L 529.374943 299.652488 
L 529.49823 299.854938 
L 529.62104 299.680522 
L 529.682268 299.942141 
L 529.743378 299.920297 
L 529.926008 300.043565 
L 530.047181 299.788662 
L 530.22808 300.173822 
L 530.407956 300.220906 
L 530.764686 300.252991 
L 530.941562 300.515377 
L 531.11746 300.484602 
L 531.234188 300.607863 
L 531.292391 300.530277 
L 531.350488 300.598215 
L 531.466365 300.698354 
L 531.524146 300.646881 
L 531.581822 300.724888 
L 531.696861 300.838161 
L 531.811485 300.545018 
L 531.982652 300.938311 
L 532.152902 300.987587 
L 532.20945 300.922962 
L 532.322246 301.116656 
L 532.378494 301.09117 
L 532.434643 300.94779 
L 532.602498 301.200179 
L 532.769472 301.229482 
L 532.824935 300.847712 
L 532.990749 301.37205 
L 533.210498 301.483322 
L 533.319806 301.396132 
L 533.374319 301.561582 
L 533.428739 301.542454 
L 533.537301 301.576177 
L 533.645493 301.66385 
L 533.753319 301.333137 
L 533.914376 301.755539 
L 534.127858 301.821211 
L 534.392711 301.901042 
L 534.445419 301.677961 
L 534.603018 302.049407 
L 534.811943 302.030004 
L 534.863961 301.941333 
L 535.019506 302.232749 
L 535.225723 302.30828 
L 535.379513 302.296752 
L 535.430612 301.468065 
L 535.481628 302.076038 
L 535.684881 302.49111 
L 536.336625 302.690538 
L 536.38621 302.568633 
L 536.534505 302.786198 
L 536.682111 302.804973 
L 536.731161 302.411679 
L 536.780136 302.861847 
L 536.975284 302.97976 
L 537.362027 303.013073 
L 537.410041 302.826782 
L 537.553649 303.17342 
L 537.791566 303.255389 
L 537.886236 303.267505 
L 537.933466 303.13862 
L 538.074736 303.381217 
L 538.168569 303.389481 
L 538.215382 303.265754 
L 538.262126 303.409766 
L 538.494822 303.52403 
L 538.541157 303.220457 
L 538.587425 303.492029 
L 538.771828 303.642608 
L 539.273493 303.739405 
L 539.318709 303.621528 
L 539.453973 303.885723 
L 539.678143 303.964243 
L 539.76737 303.914064 
L 539.81189 303.191805 
L 539.856348 303.681802 
L 540.03356 304.081605 
L 540.689452 304.290935 
L 540.775892 304.140284 
L 540.905112 304.382071 
L 541.204601 304.258726 
L 541.332095 304.523808 
L 541.543456 304.492498 
L 541.627609 304.605357 
L 541.669603 304.572093 
L 541.71154 304.549138 
L 541.79525 304.671513 
L 541.837023 304.636234 
L 541.878741 304.564331 
L 541.920404 304.704098 
L 542.127906 304.681302 
L 542.169244 304.452181 
L 542.210529 304.742445 
L 542.375134 304.869938 
L 542.782959 304.835625 
L 542.823456 304.605868 
L 542.863901 304.870507 
L 543.025168 305.075355 
L 543.93692 305.334253 
L 543.975975 305.206589 
L 544.053941 305.308972 
L 544.209302 305.442787 
L 544.594418 305.511001 
L 544.632674 305.273626 
L 544.670885 305.583054 
L 545.388297 305.740134 
L 545.462882 305.814788 
L 545.500109 305.784588 
L 545.537292 305.51597 
L 545.574432 305.845713 
L 546.126389 306.000146 
L 546.199265 305.699626 
L 546.23564 305.945467 
L 546.416897 306.086764 
L 546.63305 306.111329 
L 546.668933 306.031037 
L 546.704776 306.140215 
L 546.918988 306.137419 
L 546.990073 298.129799 
L 547.060999 303.630803 
L 547.202379 306.240682 
L 547.796333 306.328854 
L 551.639106 306.81959 
L 554.818487 307.449542 
L 555.80242 307.633773 
L 555.829321 307.52271 
L 555.883057 307.698574 
L 556.203577 307.753338 
L 556.230141 307.447079 
L 556.256684 284.178657 
L 556.336179 307.636331 
L 556.362634 307.474342 
L 556.389066 307.763904 
L 556.415477 307.758981 
L 556.57348 307.821149 
L 562.016799 308.461669 
L 563.782186 308.788346 
L 563.803121 308.679635 
L 563.865846 308.859937 
L 564.465894 308.93629 
L 564.506862 299.767 
L 564.568216 308.358923 
L 564.69057 308.97792 
L 565.175334 309.020247 
L 569.550786 309.320242 
L 572.21383 309.55737 
L 572.229893 95.551244 
L 572.310086 307.013747 
L 572.437975 309.577209 
L 572.660551 309.699308 
L 573.566416 309.755338 
L 577.933506 310.015737 
L 579.119209 310.089616 
L 579.132138 309.574572 
L 579.222497 310.190334 
L 580.049509 310.227395 
L 583.778374 310.487148 
L 584.111729 310.485136 
L 584.122781 157.337121 
L 584.222076 310.421588 
L 584.397838 310.506527 
L 585.42189 310.537844 
L 589.832606 310.706392 
L 590.318312 310.757751 
L 590.327405 310.56592 
L 590.336496 256.759462 
L 590.436323 310.743023 
L 590.868304 310.771585 
L 595.809338 310.822562 
L 595.81699 104.318851 
L 595.916299 310.857932 
L 596.174575 310.92558 
L 598.168595 310.957356 
L 600.596184 311.056648 
L 600.602767 213.786866 
L 600.701352 311.05371 
L 601.241401 311.082327 
L 605.447526 311.14191 
L 605.46448 50.755053 
L 605.554747 276.027731 
L 605.672835 311.088088 
L 606.035592 311.146371 
L 609.161937 311.196356 
L 609.611429 311.129019 
L 609.616388 198.467657 
L 609.720345 311.185817 
L 610.549632 311.24677 
L 614.095463 311.289462 
L 614.09977 167.320137 
L 614.202963 311.278084 
L 614.5785 311.29711 
L 614.5785 311.29711 
" clip-path="url(#p1f60324ff2)" style="fill: none; stroke: #ffa500; stroke-width: 1.5; stroke-linecap: square"/>
   </g>
   <g id="line2d_22">
    <path d="M 257.4585 100.0253 
L 333.748634 151.787 
L 354.320602 169.246774 
L 366.711096 180.22573 
L 375.605842 187.108117 
L 382.549381 191.509099 
L 388.245636 194.424398 
L 393.075202 197.194493 
L 407.291322 204.030084 
L 412.561863 206.702127 
L 427.726365 213.495297 
L 430.60743 214.624214 
L 431.955684 215.046728 
L 433.249115 215.590521 
L 434.492008 215.989926 
L 435.688165 216.026136 
L 436.840973 216.815644 
L 437.953465 217.156493 
L 439.028365 217.144233 
L 442.050956 218.349469 
L 442.997871 217.809958 
L 443.917416 218.831809 
L 444.811127 218.790221 
L 445.680416 219.31243 
L 447.350827 219.778588 
L 448.154254 219.853903 
L 448.93789 219.737427 
L 449.702687 220.280885 
L 450.44953 220.42697 
L 451.179241 220.290911 
L 451.89259 220.430231 
L 452.590293 220.944967 
L 454.596043 221.181997 
L 455.237476 220.873949 
L 455.866232 221.612715 
L 457.087649 221.878521 
L 457.681212 221.669155 
L 458.263902 221.768312 
L 458.836112 222.289749 
L 459.398212 222.294949 
L 459.950552 222.492204 
L 460.493467 222.501832 
L 461.552267 222.219502 
L 462.06874 222.751595 
L 462.576962 222.633159 
L 463.077193 222.971275 
L 463.569679 223.045088 
L 464.054659 222.921249 
L 464.532355 223.05797 
L 465.002986 222.966822 
L 465.466755 223.314505 
L 465.923861 223.42227 
L 466.374492 222.910398 
L 466.818829 222.986733 
L 467.257045 223.63482 
L 467.689308 223.557932 
L 468.115775 223.804964 
L 468.951934 223.887408 
L 470.166357 223.765415 
L 470.561077 224.080117 
L 470.950959 224.200874 
L 471.336122 224.136409 
L 471.716677 222.455208 
L 472.092733 224.27657 
L 472.464396 224.426134 
L 472.831768 224.430866 
L 473.554024 224.577683 
L 474.607564 224.60772 
L 474.951131 223.688691 
L 475.291028 224.823453 
L 475.960117 224.885614 
L 476.615424 225.076291 
L 476.938084 225.129236 
L 477.257504 224.913121 
L 477.57375 225.141269 
L 477.886882 225.092426 
L 478.196963 225.383731 
L 479.407918 225.272393 
L 479.70359 225.145231 
L 479.996538 225.653896 
L 480.859539 225.767188 
L 481.142081 225.538269 
L 481.422136 225.501102 
L 481.699747 225.835132 
L 482.247805 226.003485 
L 482.518334 225.312565 
L 482.786582 225.345288 
L 483.052587 226.086273 
L 483.316387 225.965275 
L 483.578016 226.209504 
L 484.094909 226.224924 
L 484.350239 226.175793 
L 484.603537 225.817875 
L 485.104161 226.435216 
L 486.082378 226.582126 
L 486.322304 225.798299 
L 486.560434 225.843803 
L 486.796795 226.65618 
L 487.031412 226.520626 
L 487.264313 226.748806 
L 487.725059 226.746113 
L 488.403905 226.899319 
L 488.848552 226.52943 
L 489.068567 227.011358 
L 489.287071 227.038492 
L 490.146381 226.732335 
L 490.567486 227.176006 
L 490.775966 227.229348 
L 490.983089 226.906285 
L 491.188873 227.155815 
L 491.393334 227.181252 
L 491.596489 227.335751 
L 492.198285 227.142708 
L 492.396381 227.034148 
L 492.788909 227.444505 
L 493.176653 227.4991 
L 493.559728 226.994475 
L 493.74955 227.585406 
L 493.938246 227.454741 
L 494.312312 227.663515 
L 495.047504 227.664433 
L 495.228678 227.531737 
L 495.766089 227.843715 
L 495.943228 227.813141 
L 496.119386 227.898419 
L 496.294574 227.81255 
L 496.642081 227.258996 
L 496.814422 227.960938 
L 497.325912 227.92676 
L 497.494598 227.686181 
L 497.662394 227.167561 
L 497.829309 228.073677 
L 497.995353 228.086497 
L 498.160535 227.891017 
L 498.488349 228.073817 
L 498.650997 228.039374 
L 498.812819 227.489682 
L 499.134013 228.198177 
L 499.293402 227.989745 
L 499.609805 228.275812 
L 500.233323 228.332423 
L 500.540559 228.057915 
L 500.844856 228.240996 
L 500.99592 228.135986 
L 501.14627 227.635501 
L 501.295913 228.391976 
L 501.593103 228.431852 
L 502.033748 228.10113 
L 502.324156 228.567148 
L 503.038786 228.471027 
L 503.179806 228.523614 
L 503.320204 228.325994 
L 503.459984 227.78512 
L 503.599153 228.704429 
L 503.737716 228.724317 
L 504.013045 228.524657 
L 504.286011 228.460286 
L 504.421621 228.268122 
L 504.691119 228.800356 
L 505.091132 228.809704 
L 505.355041 228.441068 
L 505.486179 228.5244 
L 505.746844 228.811689 
L 505.87638 228.746267 
L 506.005391 227.921615 
L 506.261854 228.946245 
L 506.389314 228.741371 
L 506.516265 228.950643 
L 506.768659 228.84322 
L 507.019065 228.842395 
L 507.267516 228.422325 
L 507.514042 229.024705 
L 508.122127 229.083768 
L 508.242361 228.692185 
L 508.481476 229.084679 
L 509.3045 229.171825 
L 509.420356 228.844528 
L 509.765414 229.191471 
L 509.879607 229.138316 
L 509.993391 229.228716 
L 510.106769 228.809642 
L 510.332322 229.246159 
L 510.889304 229.209988 
L 510.99954 228.956123 
L 511.218872 229.227447 
L 511.436702 229.305907 
L 511.653051 228.753614 
L 511.760677 229.347192 
L 512.081385 229.269417 
L 512.504028 229.387667 
L 512.713263 229.02574 
L 513.024557 229.239068 
L 513.230407 228.530534 
L 513.332835 229.427675 
L 513.434934 229.411018 
L 513.536706 229.199161 
L 513.739279 229.311067 
L 513.840084 229.223104 
L 513.940571 228.750314 
L 514.140597 229.474058 
L 514.24014 229.446263 
L 514.536915 229.079892 
L 514.830947 229.344623 
L 515.025469 228.874091 
L 515.122286 229.528194 
L 515.31504 229.35173 
L 515.506634 229.556526 
L 515.980629 229.589942 
L 516.074587 229.502095 
L 516.168268 229.636979 
L 516.261674 229.187322 
L 516.354806 229.635414 
L 516.447667 229.589856 
L 516.816422 229.267362 
L 516.907947 229.287927 
L 517.09021 229.549334 
L 517.180952 229.417432 
L 517.271436 228.581945 
L 517.451634 229.688164 
L 517.541353 229.405663 
L 517.720033 229.66595 
L 517.897716 229.631554 
L 518.162393 229.743312 
L 518.250132 229.288417 
L 518.424886 229.73324 
L 518.598686 229.680723 
L 518.685232 229.744238 
L 518.771542 229.668082 
L 518.857619 229.769154 
L 518.943464 229.333609 
L 519.114461 229.766266 
L 519.284545 229.717135 
L 519.369246 229.778237 
L 519.622007 229.420156 
L 519.789406 229.787889 
L 520.204089 229.775568 
L 520.36846 229.449859 
L 520.450328 228.8048 
L 520.613436 229.8137 
L 520.694677 229.571526 
L 520.775711 229.623801 
L 521.017582 229.817156 
L 521.257629 229.590806 
L 521.337244 229.817701 
L 521.41666 229.767574 
L 521.574899 229.537433 
L 521.653725 229.272779 
L 521.889037 229.85149 
L 522.122621 229.715112 
L 522.277396 229.069306 
L 522.431422 229.866746 
L 522.584706 229.675508 
L 522.737255 229.325218 
L 522.964715 229.876608 
L 523.115457 229.836187 
L 523.190561 229.550588 
L 523.265488 229.609572 
L 523.414815 229.672247 
L 523.489216 229.236959 
L 523.563444 229.273083 
L 523.637499 229.910646 
L 523.711382 229.817522 
L 523.785094 229.640668 
L 523.858635 229.739085 
L 523.932007 229.77296 
L 524.00521 229.63413 
L 524.078245 229.066792 
L 524.223814 229.926268 
L 524.36872 229.652352 
L 524.440926 229.700649 
L 524.512969 229.704572 
L 524.656566 229.213273 
L 524.799519 229.934954 
L 525.154115 229.940099 
L 525.224562 229.421542 
L 525.294854 229.932401 
L 525.36499 229.903212 
L 525.644001 229.590238 
L 525.713373 229.481881 
L 525.920586 229.960462 
L 526.057982 230.007039 
L 526.126459 229.496966 
L 526.194788 229.983159 
L 526.26297 229.964462 
L 526.534249 229.623505 
L 526.601709 229.650211 
L 526.736201 229.839425 
L 526.870126 229.017404 
L 527.003491 230.041599 
L 527.069964 229.78641 
L 527.136298 229.916927 
L 527.400262 230.093469 
L 527.531427 229.710761 
L 527.596807 229.754365 
L 527.727166 229.8661 
L 527.856992 229.357918 
L 527.921708 230.12627 
L 527.986292 230.116073 
L 528.17926 229.829423 
L 528.307259 229.657466 
L 528.561721 230.139238 
L 528.62502 230.153964 
L 528.688193 229.624673 
L 528.751241 230.149644 
L 528.814165 230.118416 
L 529.126928 229.594293 
L 529.31312 230.207228 
L 529.436646 230.175393 
L 529.62104 229.513187 
L 529.804371 230.225146 
L 529.926008 230.204037 
L 530.047181 230.212996 
L 530.107595 229.775638 
L 530.22808 230.237989 
L 530.46769 229.870163 
L 530.64622 229.974589 
L 530.764686 229.666066 
L 530.882713 230.273374 
L 531.058935 229.763954 
L 531.11746 229.818394 
L 531.292391 230.308222 
L 531.350488 230.315959 
L 531.524146 229.796568 
L 531.581822 229.92022 
L 531.754225 230.328522 
L 531.811485 230.275647 
L 531.868643 229.944201 
L 531.925698 230.159491 
L 531.982652 230.312736 
L 532.039503 230.231669 
L 532.152902 229.969319 
L 532.20945 229.76857 
L 532.434643 230.33692 
L 532.490693 230.338882 
L 532.546644 230.011266 
L 532.602498 230.044689 
L 532.713911 230.190182 
L 532.824935 229.193845 
L 532.880303 230.351764 
L 532.935574 230.306393 
L 532.990749 230.092209 
L 533.100813 230.325595 
L 533.210498 230.338944 
L 533.319806 230.413854 
L 533.483066 229.944793 
L 533.537301 230.054388 
L 533.645493 230.203827 
L 533.753319 229.404978 
L 533.807096 230.438241 
L 533.860781 230.326716 
L 533.914376 230.144546 
L 533.967881 230.342797 
L 534.181005 230.456922 
L 534.445419 230.450103 
L 534.550572 230.118992 
L 534.655378 230.45303 
L 534.707652 230.409986 
L 534.863961 230.504192 
L 534.967742 230.153614 
L 535.122781 230.515167 
L 535.225723 230.433415 
L 535.328332 230.346424 
L 535.379513 230.049881 
L 535.430612 228.557621 
L 535.481628 230.46546 
L 535.583417 230.443775 
L 535.886843 230.340532 
L 536.087532 230.279266 
L 536.187403 230.11022 
L 536.237221 230.182484 
L 536.286962 230.235366 
L 536.336625 230.131143 
L 536.38621 229.792497 
L 536.435718 230.195786 
L 536.48515 230.509493 
L 536.583783 230.424759 
L 536.731161 230.392441 
L 536.780136 230.137938 
L 536.829035 230.426098 
L 536.87786 230.417917 
L 536.926609 230.268774 
L 536.975284 230.432901 
L 537.410041 230.486469 
L 537.457982 230.120985 
L 537.505852 230.345436 
L 537.553649 230.500526 
L 537.601375 230.385031 
L 537.744124 230.100638 
L 537.791566 230.199063 
L 537.838936 230.246746 
L 537.933466 229.763207 
L 538.027716 230.537973 
L 538.074736 230.48232 
L 538.215382 229.816627 
L 538.262126 230.148407 
L 538.308801 230.528905 
L 538.401948 230.431531 
L 538.541157 230.497934 
L 538.587425 230.579974 
L 538.633626 230.272479 
L 538.725828 230.392114 
L 538.955168 230.489481 
L 539.318709 230.563683 
L 539.408949 230.152579 
L 539.453973 230.424168 
L 539.588664 230.576946 
L 539.722788 230.460658 
L 539.76737 230.581663 
L 539.856348 229.467084 
L 539.900744 230.593954 
L 539.98935 230.276488 
L 540.03356 230.493637 
L 540.121798 230.454384 
L 540.297542 230.374484 
L 540.428716 230.316535 
L 540.515866 230.287587 
L 540.602778 230.180336 
L 540.689452 230.288 
L 540.775892 229.775568 
L 540.862097 230.583485 
L 540.905112 230.441004 
L 541.03381 230.0489 
L 541.204601 230.598351 
L 541.289654 230.160565 
L 541.332095 230.485807 
L 541.501296 230.602625 
L 541.543456 230.611008 
L 541.71154 229.997808 
L 541.753423 230.318286 
L 541.878741 230.613709 
L 541.920404 230.545337 
L 542.003567 230.223854 
L 542.045067 230.342999 
L 542.086513 230.327261 
L 542.169244 229.425402 
L 542.210529 230.625073 
L 542.292938 230.410554 
L 542.334062 230.542348 
L 542.375134 230.434606 
L 542.620456 230.137696 
L 542.701811 230.340353 
L 542.742411 230.291588 
L 542.823456 229.275317 
L 542.863901 230.620309 
L 542.944637 230.55544 
L 542.984928 230.318457 
L 543.065358 230.466713 
L 543.305434 230.201087 
L 543.345272 229.995947 
L 543.385059 230.102623 
L 543.504124 230.608003 
L 543.543713 230.59228 
L 543.662186 229.97167 
L 543.70158 230.053633 
L 543.819468 230.580363 
L 543.858667 230.557705 
L 543.93692 230.550404 
L 544.014982 230.611202 
L 544.053941 229.981034 
L 544.131717 230.427211 
L 544.325327 229.885185 
L 544.479372 230.557191 
L 544.556115 230.473563 
L 544.594418 230.5579 
L 544.670885 230.411153 
L 544.747168 230.484507 
L 544.785241 230.250171 
L 544.93708 230.48116 
L 545.012729 230.535459 
L 545.050486 230.481759 
L 545.163489 230.57514 
L 545.238602 230.168247 
L 545.276092 230.408087 
L 545.388297 230.540363 
L 545.500109 230.075598 
L 545.537292 229.283607 
L 545.574432 230.318691 
L 545.759483 230.411924 
L 546.016761 229.91453 
L 546.053346 230.093617 
L 546.162848 230.531163 
L 546.199265 230.471275 
L 546.23564 229.854837 
L 546.308267 230.251354 
L 546.668933 230.521386 
L 546.704776 230.457264 
L 546.740578 230.064506 
L 546.812062 230.279235 
L 546.883386 230.331199 
L 546.918988 230.501468 
L 546.990073 220.921741 
L 547.060999 228.103621 
L 547.131768 230.475836 
L 547.202379 230.189956 
L 547.272835 230.225847 
L 547.483269 230.292398 
L 550.163646 230.258398 
L 554.088454 230.133213 
L 555.667568 230.140623 
L 555.721578 230.170341 
L 555.748548 230.107947 
L 555.775495 230.094077 
L 555.80242 230.203835 
L 555.829321 230.2422 
L 555.96349 229.82016 
L 556.097095 229.58679 
L 556.123749 229.620532 
L 556.203577 230.126792 
L 556.230141 230.106422 
L 556.256684 202.621226 
L 556.336179 229.841239 
L 556.362634 229.005814 
L 556.415477 230.111839 
L 556.441865 229.976006 
L 556.468232 229.821024 
L 556.547201 229.916974 
L 556.756832 229.89142 
L 562.73908 229.445741 
L 563.529876 229.383028 
L 563.698304 229.538756 
L 563.719295 229.510533 
L 563.803121 228.256073 
L 563.844952 229.127154 
L 563.886727 229.324385 
L 563.949287 229.248471 
L 564.07404 228.621525 
L 564.115516 229.445772 
L 564.177628 228.966475 
L 564.198306 228.594259 
L 564.23962 229.444177 
L 564.280881 229.074241 
L 564.383799 228.82633 
L 564.404342 228.986588 
L 564.424873 229.173117 
L 564.465894 228.717693 
L 564.506862 219.824932 
L 564.568216 229.008289 
L 564.588641 229.523282 
L 564.609053 228.427874 
L 564.69057 229.354438 
L 564.832724 229.229611 
L 566.452308 229.117837 
L 569.794426 228.938267 
L 571.97191 228.696529 
L 572.085035 228.828758 
L 572.101163 228.798386 
L 572.149498 228.855075 
L 572.21383 227.45383 
L 572.229893 78.39709 
L 572.310086 225.549851 
L 572.422017 228.652574 
L 572.469867 228.612613 
L 572.62885 228.610713 
L 573.147927 228.556017 
L 574.221739 228.515488 
L 576.924361 228.333326 
L 578.846471 227.974575 
L 578.950647 227.810378 
L 579.015584 227.519127 
L 579.028556 227.886845 
L 579.119209 228.253372 
L 579.132138 226.64385 
L 579.157981 228.61301 
L 579.222497 227.964978 
L 579.235385 228.046232 
L 579.248267 227.919544 
L 579.325451 227.924051 
L 579.898439 227.866561 
L 583.531674 227.464766 
L 583.85647 227.350953 
L 583.90101 227.371797 
L 583.945488 227.293509 
L 583.956598 227.32269 
L 584.067483 226.991104 
L 584.07855 227.148779 
L 584.089614 227.288302 
L 584.111729 226.700204 
L 584.122781 122.32557 
L 584.200037 227.565339 
L 584.222076 227.103198 
L 584.364957 227.431802 
L 586.124794 227.258661 
L 590.327405 226.906285 
L 590.336496 182.716 
L 590.390986 226.964274 
L 590.436323 226.84611 
L 590.45444 226.81963 
L 590.54487 226.854539 
L 591.250368 226.776095 
L 595.362343 226.295716 
L 595.602035 226.178502 
L 595.632832 226.232155 
L 595.778712 226.374846 
L 595.794029 226.224535 
L 595.809338 226.444813 
L 595.81699 82.007326 
L 595.916299 226.217802 
L 596.083658 226.233579 
L 596.625301 226.135964 
L 600.065064 225.748343 
L 600.48406 225.523067 
L 600.490667 225.565372 
L 600.596184 224.763705 
L 600.602767 155.096256 
L 600.655384 225.632903 
L 600.701352 225.517525 
L 600.89761 225.58789 
L 603.138561 225.42943 
L 603.960565 225.325486 
L 605.043631 225.04876 
L 605.249063 224.97859 
L 605.373956 224.986778 
L 605.436219 224.935227 
L 605.447526 225.243687 
L 605.46448 50.790858 
L 605.554747 200.394745 
L 605.672835 224.923816 
L 605.846358 224.90821 
L 607.59491 224.651013 
L 608.812973 224.481001 
L 609.472266 224.402401 
L 609.497161 224.552417 
L 609.507114 223.975551 
L 609.546893 224.515973 
L 609.581659 223.888257 
L 609.611429 224.328425 
L 609.616388 148.939256 
L 609.720345 224.222411 
L 610.010612 224.392851 
L 610.467669 224.497682 
L 611.943905 224.298925 
L 613.213273 224.100005 
L 613.987598 223.622062 
L 613.99192 223.652551 
L 614.048047 223.281767 
L 614.022155 223.996092 
L 614.086847 223.799211 
L 614.095463 224.140091 
L 614.09977 130.037691 
L 614.202963 223.691874 
L 614.429669 223.797662 
L 614.5785 223.803033 
L 614.5785 223.803033 
" clip-path="url(#p1f60324ff2)" style="fill: none; stroke: #008000; stroke-width: 1.5; stroke-linecap: square"/>
   </g>
   <g id="patch_3">
    <path d="M 257.4585 311.6435 
L 257.4585 45.5315 
" style="fill: none; stroke: #000000; stroke-width: 0.8; stroke-linejoin: miter; stroke-linecap: square"/>
   </g>
   <g id="patch_4">
    <path d="M 614.5785 311.6435 
L 614.5785 45.5315 
" style="fill: none; stroke: #000000; stroke-width: 0.8; stroke-linejoin: miter; stroke-linecap: square"/>
   </g>
   <g id="patch_5">
    <path d="M 257.4585 311.6435 
L 614.5785 311.6435 
" style="fill: none; stroke: #000000; stroke-width: 0.8; stroke-linejoin: miter; stroke-linecap: square"/>
   </g>
   <g id="patch_6">
    <path d="M 257.4585 45.5315 
L 614.5785 45.5315 
" style="fill: none; stroke: #000000; stroke-width: 0.8; stroke-linejoin: miter; stroke-linecap: square"/>
   </g>
   <g id="text_13">
    <!-- Loss of the 09_07_25_CIFAR10_torch_model_(1024+2048-2048.0-1)_elk-horse -->
    <g transform="translate(7.2 25.5315) scale(0.264 -0.264)">
     <defs>
      <path id="TimesNewRomanPSMT-20" transform="scale(0.015625)"/>
      <path id="TimesNewRomanPSMT-66" d="M 1319 2638 
L 1319 756 
Q 1319 356 1406 250 
Q 1522 113 1716 113 
L 1975 113 
L 1975 0 
L 266 0 
L 266 113 
L 394 113 
Q 519 113 622 175 
Q 725 238 764 344 
Q 803 450 803 756 
L 803 2638 
L 247 2638 
L 247 2863 
L 803 2863 
L 803 3050 
Q 803 3478 940 3775 
Q 1078 4072 1361 4255 
Q 1644 4438 1997 4438 
Q 2325 4438 2600 4225 
Q 2781 4084 2781 3909 
Q 2781 3816 2700 3733 
Q 2619 3650 2525 3650 
Q 2453 3650 2373 3701 
Q 2294 3753 2178 3923 
Q 2063 4094 1966 4153 
Q 1869 4213 1750 4213 
Q 1606 4213 1506 4136 
Q 1406 4059 1362 3898 
Q 1319 3738 1319 3069 
L 1319 2863 
L 2056 2863 
L 2056 2638 
L 1319 2638 
z
" transform="scale(0.015625)"/>
      <path id="TimesNewRomanPSMT-74" d="M 1031 3803 
L 1031 2863 
L 1700 2863 
L 1700 2644 
L 1031 2644 
L 1031 788 
Q 1031 509 1111 412 
Q 1191 316 1316 316 
Q 1419 316 1516 380 
Q 1613 444 1666 569 
L 1788 569 
Q 1678 263 1478 108 
Q 1278 -47 1066 -47 
Q 922 -47 784 33 
Q 647 113 581 261 
Q 516 409 516 719 
L 516 2644 
L 63 2644 
L 63 2747 
Q 234 2816 414 2980 
Q 594 3144 734 3369 
Q 806 3488 934 3803 
L 1031 3803 
z
" transform="scale(0.015625)"/>
      <path id="TimesNewRomanPSMT-68" d="M 1041 4444 
L 1041 2350 
Q 1388 2731 1591 2839 
Q 1794 2947 1997 2947 
Q 2241 2947 2416 2812 
Q 2591 2678 2675 2391 
Q 2734 2191 2734 1659 
L 2734 647 
Q 2734 375 2778 275 
Q 2809 200 2884 156 
Q 2959 113 3159 113 
L 3159 0 
L 1753 0 
L 1753 113 
L 1819 113 
Q 2019 113 2097 173 
Q 2175 234 2206 353 
Q 2216 403 2216 647 
L 2216 1659 
Q 2216 2128 2167 2275 
Q 2119 2422 2012 2495 
Q 1906 2569 1756 2569 
Q 1603 2569 1437 2487 
Q 1272 2406 1041 2159 
L 1041 647 
Q 1041 353 1073 281 
Q 1106 209 1195 161 
Q 1284 113 1503 113 
L 1503 0 
L 84 0 
L 84 113 
Q 275 113 384 172 
Q 447 203 484 290 
Q 522 378 522 647 
L 522 3238 
Q 522 3728 498 3840 
Q 475 3953 426 3993 
Q 378 4034 297 4034 
Q 231 4034 84 3984 
L 41 4094 
L 897 4444 
L 1041 4444 
z
" transform="scale(0.015625)"/>
      <path id="TimesNewRomanPSMT-65" d="M 681 1784 
Q 678 1147 991 784 
Q 1303 422 1725 422 
Q 2006 422 2214 576 
Q 2422 731 2563 1106 
L 2659 1044 
Q 2594 616 2278 264 
Q 1963 -88 1488 -88 
Q 972 -88 605 314 
Q 238 716 238 1394 
Q 238 2128 614 2539 
Q 991 2950 1559 2950 
Q 2041 2950 2350 2633 
Q 2659 2316 2659 1784 
L 681 1784 
z
M 681 1966 
L 2006 1966 
Q 1991 2241 1941 2353 
Q 1863 2528 1708 2628 
Q 1553 2728 1384 2728 
Q 1125 2728 920 2526 
Q 716 2325 681 1966 
z
" transform="scale(0.015625)"/>
      <path id="TimesNewRomanPSMT-39" d="M 338 -88 
L 338 28 
Q 744 34 1094 217 
Q 1444 400 1770 856 
Q 2097 1313 2225 1859 
Q 1734 1544 1338 1544 
Q 891 1544 572 1889 
Q 253 2234 253 2806 
Q 253 3363 572 3797 
Q 956 4325 1575 4325 
Q 2097 4325 2469 3894 
Q 2925 3359 2925 2575 
Q 2925 1869 2578 1258 
Q 2231 647 1613 244 
Q 1109 -88 516 -88 
L 338 -88 
z
M 2275 2091 
Q 2331 2497 2331 2741 
Q 2331 3044 2228 3395 
Q 2125 3747 1936 3934 
Q 1747 4122 1506 4122 
Q 1228 4122 1018 3872 
Q 809 3622 809 3128 
Q 809 2469 1088 2097 
Q 1291 1828 1588 1828 
Q 1731 1828 1928 1897 
Q 2125 1966 2275 2091 
z
" transform="scale(0.015625)"/>
      <path id="TimesNewRomanPSMT-5f" d="M 3256 -1381 
L -53 -1381 
L -53 -1119 
L 3256 -1119 
L 3256 -1381 
z
" transform="scale(0.015625)"/>
      <path id="TimesNewRomanPSMT-37" d="M 644 4238 
L 2916 4238 
L 2916 4119 
L 1503 -88 
L 1153 -88 
L 2419 3728 
L 1253 3728 
Q 900 3728 750 3644 
Q 488 3500 328 3200 
L 238 3234 
L 644 4238 
z
" transform="scale(0.015625)"/>
      <path id="TimesNewRomanPSMT-43" d="M 3853 4334 
L 3950 2894 
L 3853 2894 
Q 3659 3541 3300 3825 
Q 2941 4109 2438 4109 
Q 2016 4109 1675 3895 
Q 1334 3681 1139 3212 
Q 944 2744 944 2047 
Q 944 1472 1128 1050 
Q 1313 628 1683 403 
Q 2053 178 2528 178 
Q 2941 178 3256 354 
Q 3572 531 3950 1056 
L 4047 994 
Q 3728 428 3303 165 
Q 2878 -97 2294 -97 
Q 1241 -97 663 684 
Q 231 1266 231 2053 
Q 231 2688 515 3219 
Q 800 3750 1298 4042 
Q 1797 4334 2388 4334 
Q 2847 4334 3294 4109 
Q 3425 4041 3481 4041 
Q 3566 4041 3628 4100 
Q 3709 4184 3744 4334 
L 3853 4334 
z
" transform="scale(0.015625)"/>
      <path id="TimesNewRomanPSMT-49" d="M 1975 116 
L 1975 0 
L 159 0 
L 159 116 
L 309 116 
Q 572 116 691 269 
Q 766 369 766 750 
L 766 3488 
Q 766 3809 725 3913 
Q 694 3991 597 4047 
Q 459 4122 309 4122 
L 159 4122 
L 159 4238 
L 1975 4238 
L 1975 4122 
L 1822 4122 
Q 1563 4122 1444 3969 
Q 1366 3869 1366 3488 
L 1366 750 
Q 1366 428 1406 325 
Q 1438 247 1538 191 
Q 1672 116 1822 116 
L 1975 116 
z
" transform="scale(0.015625)"/>
      <path id="TimesNewRomanPSMT-46" d="M 1309 4006 
L 1309 2341 
L 2081 2341 
Q 2347 2341 2470 2458 
Q 2594 2575 2634 2922 
L 2750 2922 
L 2750 1488 
L 2634 1488 
Q 2631 1734 2570 1850 
Q 2509 1966 2401 2023 
Q 2294 2081 2081 2081 
L 1309 2081 
L 1309 750 
Q 1309 428 1350 325 
Q 1381 247 1481 191 
Q 1619 116 1769 116 
L 1922 116 
L 1922 0 
L 103 0 
L 103 116 
L 253 116 
Q 516 116 634 269 
Q 709 369 709 750 
L 709 3488 
Q 709 3809 669 3913 
Q 638 3991 541 4047 
Q 406 4122 253 4122 
L 103 4122 
L 103 4238 
L 3256 4238 
L 3297 3306 
L 3188 3306 
Q 3106 3603 2998 3742 
Q 2891 3881 2733 3943 
Q 2575 4006 2244 4006 
L 1309 4006 
z
" transform="scale(0.015625)"/>
      <path id="TimesNewRomanPSMT-41" d="M 2928 1419 
L 1288 1419 
L 1000 750 
Q 894 503 894 381 
Q 894 284 986 211 
Q 1078 138 1384 116 
L 1384 0 
L 50 0 
L 50 116 
Q 316 163 394 238 
Q 553 388 747 847 
L 2238 4334 
L 2347 4334 
L 3822 809 
Q 4000 384 4145 257 
Q 4291 131 4550 116 
L 4550 0 
L 2878 0 
L 2878 116 
Q 3131 128 3220 200 
Q 3309 272 3309 375 
Q 3309 513 3184 809 
L 2928 1419 
z
M 2841 1650 
L 2122 3363 
L 1384 1650 
L 2841 1650 
z
" transform="scale(0.015625)"/>
      <path id="TimesNewRomanPSMT-52" d="M 4325 0 
L 3194 0 
L 1759 1981 
Q 1600 1975 1500 1975 
Q 1459 1975 1412 1976 
Q 1366 1978 1316 1981 
L 1316 750 
Q 1316 350 1403 253 
Q 1522 116 1759 116 
L 1925 116 
L 1925 0 
L 109 0 
L 109 116 
L 269 116 
Q 538 116 653 291 
Q 719 388 719 750 
L 719 3488 
Q 719 3888 631 3984 
Q 509 4122 269 4122 
L 109 4122 
L 109 4238 
L 1653 4238 
Q 2328 4238 2648 4139 
Q 2969 4041 3192 3777 
Q 3416 3513 3416 3147 
Q 3416 2756 3161 2468 
Q 2906 2181 2372 2063 
L 3247 847 
Q 3547 428 3762 290 
Q 3978 153 4325 116 
L 4325 0 
z
M 1316 2178 
Q 1375 2178 1419 2176 
Q 1463 2175 1491 2175 
Q 2097 2175 2405 2437 
Q 2713 2700 2713 3106 
Q 2713 3503 2464 3751 
Q 2216 4000 1806 4000 
Q 1625 4000 1316 3941 
L 1316 2178 
z
" transform="scale(0.015625)"/>
      <path id="TimesNewRomanPSMT-72" d="M 1038 2947 
L 1038 2303 
Q 1397 2947 1775 2947 
Q 1947 2947 2059 2842 
Q 2172 2738 2172 2600 
Q 2172 2478 2090 2393 
Q 2009 2309 1897 2309 
Q 1788 2309 1652 2417 
Q 1516 2525 1450 2525 
Q 1394 2525 1328 2463 
Q 1188 2334 1038 2041 
L 1038 669 
Q 1038 431 1097 309 
Q 1138 225 1241 169 
Q 1344 113 1538 113 
L 1538 0 
L 72 0 
L 72 113 
Q 291 113 397 181 
Q 475 231 506 341 
Q 522 394 522 644 
L 522 1753 
Q 522 2253 501 2348 
Q 481 2444 426 2487 
Q 372 2531 291 2531 
Q 194 2531 72 2484 
L 41 2597 
L 906 2947 
L 1038 2947 
z
" transform="scale(0.015625)"/>
      <path id="TimesNewRomanPSMT-63" d="M 2631 1088 
Q 2516 522 2178 217 
Q 1841 -88 1431 -88 
Q 944 -88 581 321 
Q 219 731 219 1428 
Q 219 2103 620 2525 
Q 1022 2947 1584 2947 
Q 2006 2947 2278 2723 
Q 2550 2500 2550 2259 
Q 2550 2141 2473 2067 
Q 2397 1994 2259 1994 
Q 2075 1994 1981 2113 
Q 1928 2178 1911 2362 
Q 1894 2547 1784 2644 
Q 1675 2738 1481 2738 
Q 1169 2738 978 2506 
Q 725 2200 725 1697 
Q 725 1184 976 792 
Q 1228 400 1656 400 
Q 1963 400 2206 609 
Q 2378 753 2541 1131 
L 2631 1088 
z
" transform="scale(0.015625)"/>
      <path id="TimesNewRomanPSMT-6d" d="M 1050 2338 
Q 1363 2650 1419 2697 
Q 1559 2816 1721 2881 
Q 1884 2947 2044 2947 
Q 2313 2947 2506 2790 
Q 2700 2634 2766 2338 
Q 3088 2713 3309 2830 
Q 3531 2947 3766 2947 
Q 3994 2947 4170 2830 
Q 4347 2713 4450 2447 
Q 4519 2266 4519 1878 
L 4519 647 
Q 4519 378 4559 278 
Q 4591 209 4675 161 
Q 4759 113 4950 113 
L 4950 0 
L 3538 0 
L 3538 113 
L 3597 113 
Q 3781 113 3884 184 
Q 3956 234 3988 344 
Q 4000 397 4000 647 
L 4000 1878 
Q 4000 2228 3916 2372 
Q 3794 2572 3525 2572 
Q 3359 2572 3192 2489 
Q 3025 2406 2788 2181 
L 2781 2147 
L 2788 2013 
L 2788 647 
Q 2788 353 2820 281 
Q 2853 209 2943 161 
Q 3034 113 3253 113 
L 3253 0 
L 1806 0 
L 1806 113 
Q 2044 113 2133 169 
Q 2222 225 2256 338 
Q 2272 391 2272 647 
L 2272 1878 
Q 2272 2228 2169 2381 
Q 2031 2581 1784 2581 
Q 1616 2581 1450 2491 
Q 1191 2353 1050 2181 
L 1050 647 
Q 1050 366 1089 281 
Q 1128 197 1204 155 
Q 1281 113 1516 113 
L 1516 0 
L 100 0 
L 100 113 
Q 297 113 375 155 
Q 453 197 493 289 
Q 534 381 534 647 
L 534 1741 
Q 534 2213 506 2350 
Q 484 2453 437 2492 
Q 391 2531 309 2531 
Q 222 2531 100 2484 
L 53 2597 
L 916 2947 
L 1050 2947 
L 1050 2338 
z
" transform="scale(0.015625)"/>
      <path id="TimesNewRomanPSMT-64" d="M 2222 322 
Q 2013 103 1813 7 
Q 1613 -88 1381 -88 
Q 913 -88 563 304 
Q 213 697 213 1313 
Q 213 1928 600 2439 
Q 988 2950 1597 2950 
Q 1975 2950 2222 2709 
L 2222 3238 
Q 2222 3728 2198 3840 
Q 2175 3953 2125 3993 
Q 2075 4034 2000 4034 
Q 1919 4034 1784 3984 
L 1744 4094 
L 2597 4444 
L 2738 4444 
L 2738 1134 
Q 2738 631 2761 520 
Q 2784 409 2836 365 
Q 2888 322 2956 322 
Q 3041 322 3181 375 
L 3216 266 
L 2366 -88 
L 2222 -88 
L 2222 322 
z
M 2222 541 
L 2222 2016 
Q 2203 2228 2109 2403 
Q 2016 2578 1861 2667 
Q 1706 2756 1559 2756 
Q 1284 2756 1069 2509 
Q 784 2184 784 1559 
Q 784 928 1059 592 
Q 1334 256 1672 256 
Q 1956 256 2222 541 
z
" transform="scale(0.015625)"/>
      <path id="TimesNewRomanPSMT-6c" d="M 1184 4444 
L 1184 647 
Q 1184 378 1223 290 
Q 1263 203 1344 158 
Q 1425 113 1647 113 
L 1647 0 
L 244 0 
L 244 113 
Q 441 113 512 153 
Q 584 194 625 287 
Q 666 381 666 647 
L 666 3247 
Q 666 3731 644 3842 
Q 622 3953 573 3993 
Q 525 4034 450 4034 
Q 369 4034 244 3984 
L 191 4094 
L 1044 4444 
L 1184 4444 
z
" transform="scale(0.015625)"/>
      <path id="TimesNewRomanPSMT-28" d="M 1988 -1253 
L 1988 -1369 
Q 1516 -1131 1200 -813 
Q 750 -359 506 256 
Q 263 872 263 1534 
Q 263 2503 741 3301 
Q 1219 4100 1988 4444 
L 1988 4313 
Q 1603 4100 1356 3731 
Q 1109 3363 987 2797 
Q 866 2231 866 1616 
Q 866 947 969 400 
Q 1050 -31 1165 -292 
Q 1281 -553 1476 -793 
Q 1672 -1034 1988 -1253 
z
" transform="scale(0.015625)"/>
      <path id="TimesNewRomanPSMT-2b" d="M 1672 441 
L 1672 2000 
L 116 2000 
L 116 2256 
L 1672 2256 
L 1672 3809 
L 1922 3809 
L 1922 2256 
L 3484 2256 
L 3484 2000 
L 1922 2000 
L 1922 441 
L 1672 441 
z
" transform="scale(0.015625)"/>
      <path id="TimesNewRomanPSMT-38" d="M 1228 2134 
Q 725 2547 579 2797 
Q 434 3047 434 3316 
Q 434 3728 753 4026 
Q 1072 4325 1600 4325 
Q 2113 4325 2425 4047 
Q 2738 3769 2738 3413 
Q 2738 3175 2569 2928 
Q 2400 2681 1866 2347 
Q 2416 1922 2594 1678 
Q 2831 1359 2831 1006 
Q 2831 559 2490 242 
Q 2150 -75 1597 -75 
Q 994 -75 656 303 
Q 388 606 388 966 
Q 388 1247 577 1523 
Q 766 1800 1228 2134 
z
M 1719 2469 
Q 2094 2806 2194 3001 
Q 2294 3197 2294 3444 
Q 2294 3772 2109 3958 
Q 1925 4144 1606 4144 
Q 1288 4144 1088 3959 
Q 888 3775 888 3528 
Q 888 3366 970 3203 
Q 1053 3041 1206 2894 
L 1719 2469 
z
M 1375 2016 
Q 1116 1797 991 1539 
Q 866 1281 866 981 
Q 866 578 1086 336 
Q 1306 94 1647 94 
Q 1984 94 2187 284 
Q 2391 475 2391 747 
Q 2391 972 2272 1150 
Q 2050 1481 1375 2016 
z
" transform="scale(0.015625)"/>
      <path id="TimesNewRomanPSMT-2d" d="M 259 1672 
L 1875 1672 
L 1875 1200 
L 259 1200 
L 259 1672 
z
" transform="scale(0.015625)"/>
      <path id="TimesNewRomanPSMT-29" d="M 144 4313 
L 144 4444 
Q 619 4209 934 3891 
Q 1381 3434 1625 2820 
Q 1869 2206 1869 1541 
Q 1869 572 1392 -226 
Q 916 -1025 144 -1369 
L 144 -1253 
Q 528 -1038 776 -670 
Q 1025 -303 1145 264 
Q 1266 831 1266 1447 
Q 1266 2113 1163 2663 
Q 1084 3094 967 3353 
Q 850 3613 656 3853 
Q 463 4094 144 4313 
z
" transform="scale(0.015625)"/>
      <path id="TimesNewRomanPSMT-6b" d="M 1047 4444 
L 1047 1594 
L 1775 2259 
Q 2006 2472 2044 2528 
Q 2069 2566 2069 2603 
Q 2069 2666 2017 2711 
Q 1966 2756 1847 2763 
L 1847 2863 
L 3091 2863 
L 3091 2763 
Q 2834 2756 2664 2684 
Q 2494 2613 2291 2428 
L 1556 1750 
L 2291 822 
Q 2597 438 2703 334 
Q 2853 188 2966 144 
Q 3044 113 3238 113 
L 3238 0 
L 1847 0 
L 1847 113 
Q 1966 116 2008 148 
Q 2050 181 2050 241 
Q 2050 313 1925 472 
L 1047 1594 
L 1047 644 
Q 1047 366 1086 278 
Q 1125 191 1197 153 
Q 1269 116 1509 113 
L 1509 0 
L 53 0 
L 53 113 
Q 272 113 381 166 
Q 447 200 481 272 
Q 528 375 528 628 
L 528 3234 
Q 528 3731 506 3842 
Q 484 3953 434 3995 
Q 384 4038 303 4038 
Q 238 4038 106 3984 
L 53 4094 
L 903 4444 
L 1047 4444 
z
" transform="scale(0.015625)"/>
     </defs>
     <use xlink:href="#TimesNewRomanPSMT-4c"/>
     <use xlink:href="#TimesNewRomanPSMT-6f" transform="translate(61.083984 0)"/>
     <use xlink:href="#TimesNewRomanPSMT-73" transform="translate(111.083984 0)"/>
     <use xlink:href="#TimesNewRomanPSMT-73" transform="translate(150 0)"/>
     <use xlink:href="#TimesNewRomanPSMT-20" transform="translate(188.916016 0)"/>
     <use xlink:href="#TimesNewRomanPSMT-6f" transform="translate(213.916016 0)"/>
     <use xlink:href="#TimesNewRomanPSMT-66" transform="translate(263.916016 0)"/>
     <use xlink:href="#TimesNewRomanPSMT-20" transform="translate(297.216797 0)"/>
     <use xlink:href="#TimesNewRomanPSMT-74" transform="translate(322.216797 0)"/>
     <use xlink:href="#TimesNewRomanPSMT-68" transform="translate(350 0)"/>
     <use xlink:href="#TimesNewRomanPSMT-65" transform="translate(400 0)"/>
     <use xlink:href="#TimesNewRomanPSMT-20" transform="translate(444.384766 0)"/>
     <use xlink:href="#TimesNewRomanPSMT-30" transform="translate(469.384766 0)"/>
     <use xlink:href="#TimesNewRomanPSMT-39" transform="translate(519.384766 0)"/>
     <use xlink:href="#TimesNewRomanPSMT-5f" transform="translate(569.384766 0)"/>
     <use xlink:href="#TimesNewRomanPSMT-30" transform="translate(619.384766 0)"/>
     <use xlink:href="#TimesNewRomanPSMT-37" transform="translate(669.384766 0)"/>
     <use xlink:href="#TimesNewRomanPSMT-5f" transform="translate(719.384766 0)"/>
     <use xlink:href="#TimesNewRomanPSMT-32" transform="translate(769.384766 0)"/>
     <use xlink:href="#TimesNewRomanPSMT-35" transform="translate(819.384766 0)"/>
     <use xlink:href="#TimesNewRomanPSMT-5f" transform="translate(869.384766 0)"/>
     <use xlink:href="#TimesNewRomanPSMT-43" transform="translate(919.384766 0)"/>
     <use xlink:href="#TimesNewRomanPSMT-49" transform="translate(986.083984 0)"/>
     <use xlink:href="#TimesNewRomanPSMT-46" transform="translate(1019.384766 0)"/>
     <use xlink:href="#TimesNewRomanPSMT-41" transform="translate(1067.625 0)"/>
     <use xlink:href="#TimesNewRomanPSMT-52" transform="translate(1139.841797 0)"/>
     <use xlink:href="#TimesNewRomanPSMT-31" transform="translate(1206.541016 0)"/>
     <use xlink:href="#TimesNewRomanPSMT-30" transform="translate(1256.541016 0)"/>
     <use xlink:href="#TimesNewRomanPSMT-5f" transform="translate(1306.541016 0)"/>
     <use xlink:href="#TimesNewRomanPSMT-74" transform="translate(1356.541016 0)"/>
     <use xlink:href="#TimesNewRomanPSMT-6f" transform="translate(1384.324219 0)"/>
     <use xlink:href="#TimesNewRomanPSMT-72" transform="translate(1434.324219 0)"/>
     <use xlink:href="#TimesNewRomanPSMT-63" transform="translate(1467.625 0)"/>
     <use xlink:href="#TimesNewRomanPSMT-68" transform="translate(1512.009766 0)"/>
     <use xlink:href="#TimesNewRomanPSMT-5f" transform="translate(1562.009766 0)"/>
     <use xlink:href="#TimesNewRomanPSMT-6d" transform="translate(1612.009766 0)"/>
     <use xlink:href="#TimesNewRomanPSMT-6f" transform="translate(1689.792969 0)"/>
     <use xlink:href="#TimesNewRomanPSMT-64" transform="translate(1739.792969 0)"/>
     <use xlink:href="#TimesNewRomanPSMT-65" transform="translate(1789.792969 0)"/>
     <use xlink:href="#TimesNewRomanPSMT-6c" transform="translate(1834.177734 0)"/>
     <use xlink:href="#TimesNewRomanPSMT-5f" transform="translate(1861.960938 0)"/>
     <use xlink:href="#TimesNewRomanPSMT-28" transform="translate(1911.960938 0)"/>
     <use xlink:href="#TimesNewRomanPSMT-31" transform="translate(1945.261719 0)"/>
     <use xlink:href="#TimesNewRomanPSMT-30" transform="translate(1995.261719 0)"/>
     <use xlink:href="#TimesNewRomanPSMT-32" transform="translate(2045.261719 0)"/>
     <use xlink:href="#TimesNewRomanPSMT-34" transform="translate(2095.261719 0)"/>
     <use xlink:href="#TimesNewRomanPSMT-2b" transform="translate(2145.261719 0)"/>
     <use xlink:href="#TimesNewRomanPSMT-32" transform="translate(2201.658203 0)"/>
     <use xlink:href="#TimesNewRomanPSMT-30" transform="translate(2251.658203 0)"/>
     <use xlink:href="#TimesNewRomanPSMT-34" transform="translate(2301.658203 0)"/>
     <use xlink:href="#TimesNewRomanPSMT-38" transform="translate(2351.658203 0)"/>
     <use xlink:href="#TimesNewRomanPSMT-2d" transform="translate(2401.658203 0)"/>
     <use xlink:href="#TimesNewRomanPSMT-32" transform="translate(2434.958984 0)"/>
     <use xlink:href="#TimesNewRomanPSMT-30" transform="translate(2484.958984 0)"/>
     <use xlink:href="#TimesNewRomanPSMT-34" transform="translate(2534.958984 0)"/>
     <use xlink:href="#TimesNewRomanPSMT-38" transform="translate(2584.958984 0)"/>
     <use xlink:href="#TimesNewRomanPSMT-2e" transform="translate(2634.958984 0)"/>
     <use xlink:href="#TimesNewRomanPSMT-30" transform="translate(2659.958984 0)"/>
     <use xlink:href="#TimesNewRomanPSMT-2d" transform="translate(2709.958984 0)"/>
     <use xlink:href="#TimesNewRomanPSMT-31" transform="translate(2743.259766 0)"/>
     <use xlink:href="#TimesNewRomanPSMT-29" transform="translate(2793.259766 0)"/>
     <use xlink:href="#TimesNewRomanPSMT-5f" transform="translate(2826.560547 0)"/>
     <use xlink:href="#TimesNewRomanPSMT-65" transform="translate(2876.560547 0)"/>
     <use xlink:href="#TimesNewRomanPSMT-6c" transform="translate(2920.945312 0)"/>
     <use xlink:href="#TimesNewRomanPSMT-6b" transform="translate(2948.728516 0)"/>
     <use xlink:href="#TimesNewRomanPSMT-2d" transform="translate(2998.728516 0)"/>
     <use xlink:href="#TimesNewRomanPSMT-68" transform="translate(3032.029297 0)"/>
     <use xlink:href="#TimesNewRomanPSMT-6f" transform="translate(3082.029297 0)"/>
     <use xlink:href="#TimesNewRomanPSMT-72" transform="translate(3132.029297 0)"/>
     <use xlink:href="#TimesNewRomanPSMT-73" transform="translate(3165.330078 0)"/>
     <use xlink:href="#TimesNewRomanPSMT-65" transform="translate(3204.246094 0)"/>
    </g>
   </g>
   <g id="legend_1">
    <g id="patch_7">
     <path d="M 335.73975 125.384625 
L 536.29725 125.384625 
Q 540.69725 125.384625 540.69725 120.984625 
L 540.69725 60.9315 
Q 540.69725 56.5315 536.29725 56.5315 
L 335.73975 56.5315 
Q 331.33975 56.5315 331.33975 60.9315 
L 331.33975 120.984625 
Q 331.33975 125.384625 335.73975 125.384625 
z
" style="fill: #ffffff; opacity: 0.8; stroke: #cccccc; stroke-linejoin: miter"/>
    </g>
    <g id="line2d_23">
     <path d="M 340.13975 73.0315 
L 362.13975 73.0315 
L 384.13975 73.0315 
" style="fill: none; stroke: #ffa500; stroke-width: 1.5; stroke-linecap: square"/>
    </g>
    <g id="text_14">
     <!-- Training loss -->
     <g transform="translate(401.73975 80.7315) scale(0.22 -0.22)">
      <defs>
       <path id="TimesNewRomanPSMT-54" d="M 3703 4238 
L 3750 3244 
L 3631 3244 
Q 3597 3506 3538 3619 
Q 3441 3800 3280 3886 
Q 3119 3972 2856 3972 
L 2259 3972 
L 2259 734 
Q 2259 344 2344 247 
Q 2463 116 2709 116 
L 2856 116 
L 2856 0 
L 1059 0 
L 1059 116 
L 1209 116 
Q 1478 116 1591 278 
Q 1659 378 1659 734 
L 1659 3972 
L 1150 3972 
Q 853 3972 728 3928 
Q 566 3869 450 3700 
Q 334 3531 313 3244 
L 194 3244 
L 244 4238 
L 3703 4238 
z
" transform="scale(0.015625)"/>
       <path id="TimesNewRomanPSMT-61" d="M 1822 413 
Q 1381 72 1269 19 
Q 1100 -59 909 -59 
Q 613 -59 420 144 
Q 228 347 228 678 
Q 228 888 322 1041 
Q 450 1253 767 1440 
Q 1084 1628 1822 1897 
L 1822 2009 
Q 1822 2438 1686 2597 
Q 1550 2756 1291 2756 
Q 1094 2756 978 2650 
Q 859 2544 859 2406 
L 866 2225 
Q 866 2081 792 2003 
Q 719 1925 600 1925 
Q 484 1925 411 2006 
Q 338 2088 338 2228 
Q 338 2497 613 2722 
Q 888 2947 1384 2947 
Q 1766 2947 2009 2819 
Q 2194 2722 2281 2516 
Q 2338 2381 2338 1966 
L 2338 994 
Q 2338 584 2353 492 
Q 2369 400 2405 369 
Q 2441 338 2488 338 
Q 2538 338 2575 359 
Q 2641 400 2828 588 
L 2828 413 
Q 2478 -56 2159 -56 
Q 2006 -56 1915 50 
Q 1825 156 1822 413 
z
M 1822 616 
L 1822 1706 
Q 1350 1519 1213 1441 
Q 966 1303 859 1153 
Q 753 1003 753 825 
Q 753 600 887 451 
Q 1022 303 1197 303 
Q 1434 303 1822 616 
z
" transform="scale(0.015625)"/>
       <path id="TimesNewRomanPSMT-69" d="M 928 4444 
Q 1059 4444 1151 4351 
Q 1244 4259 1244 4128 
Q 1244 3997 1151 3903 
Q 1059 3809 928 3809 
Q 797 3809 703 3903 
Q 609 3997 609 4128 
Q 609 4259 701 4351 
Q 794 4444 928 4444 
z
M 1188 2947 
L 1188 647 
Q 1188 378 1227 289 
Q 1266 200 1342 156 
Q 1419 113 1622 113 
L 1622 0 
L 231 0 
L 231 113 
Q 441 113 512 153 
Q 584 194 626 287 
Q 669 381 669 647 
L 669 1750 
Q 669 2216 641 2353 
Q 619 2453 572 2492 
Q 525 2531 444 2531 
Q 356 2531 231 2484 
L 188 2597 
L 1050 2947 
L 1188 2947 
z
" transform="scale(0.015625)"/>
       <path id="TimesNewRomanPSMT-6e" d="M 1034 2341 
Q 1538 2947 1994 2947 
Q 2228 2947 2397 2830 
Q 2566 2713 2666 2444 
Q 2734 2256 2734 1869 
L 2734 647 
Q 2734 375 2778 278 
Q 2813 200 2889 156 
Q 2966 113 3172 113 
L 3172 0 
L 1756 0 
L 1756 113 
L 1816 113 
Q 2016 113 2095 173 
Q 2175 234 2206 353 
Q 2219 400 2219 647 
L 2219 1819 
Q 2219 2209 2117 2386 
Q 2016 2563 1775 2563 
Q 1403 2563 1034 2156 
L 1034 647 
Q 1034 356 1069 288 
Q 1113 197 1189 155 
Q 1266 113 1500 113 
L 1500 0 
L 84 0 
L 84 113 
L 147 113 
Q 366 113 442 223 
Q 519 334 519 647 
L 519 1709 
Q 519 2225 495 2337 
Q 472 2450 423 2490 
Q 375 2531 294 2531 
Q 206 2531 84 2484 
L 38 2597 
L 900 2947 
L 1034 2947 
L 1034 2341 
z
" transform="scale(0.015625)"/>
       <path id="TimesNewRomanPSMT-67" d="M 966 1044 
Q 703 1172 562 1401 
Q 422 1631 422 1909 
Q 422 2334 742 2640 
Q 1063 2947 1563 2947 
Q 1972 2947 2272 2747 
L 2878 2747 
Q 3013 2747 3034 2739 
Q 3056 2731 3066 2713 
Q 3084 2684 3084 2613 
Q 3084 2531 3069 2500 
Q 3059 2484 3036 2475 
Q 3013 2466 2878 2466 
L 2506 2466 
Q 2681 2241 2681 1891 
Q 2681 1491 2375 1206 
Q 2069 922 1553 922 
Q 1341 922 1119 984 
Q 981 866 932 777 
Q 884 688 884 625 
Q 884 572 936 522 
Q 988 472 1138 450 
Q 1225 438 1575 428 
Q 2219 413 2409 384 
Q 2700 344 2873 169 
Q 3047 -6 3047 -263 
Q 3047 -616 2716 -925 
Q 2228 -1381 1444 -1381 
Q 841 -1381 425 -1109 
Q 191 -953 191 -784 
Q 191 -709 225 -634 
Q 278 -519 444 -313 
Q 466 -284 763 25 
Q 600 122 533 198 
Q 466 275 466 372 
Q 466 481 555 628 
Q 644 775 966 1044 
z
M 1509 2797 
Q 1278 2797 1122 2612 
Q 966 2428 966 2047 
Q 966 1553 1178 1281 
Q 1341 1075 1591 1075 
Q 1828 1075 1981 1253 
Q 2134 1431 2134 1813 
Q 2134 2309 1919 2591 
Q 1759 2797 1509 2797 
z
M 934 0 
Q 788 -159 713 -296 
Q 638 -434 638 -550 
Q 638 -700 819 -813 
Q 1131 -1006 1722 -1006 
Q 2284 -1006 2551 -807 
Q 2819 -609 2819 -384 
Q 2819 -222 2659 -153 
Q 2497 -84 2016 -72 
Q 1313 -53 934 0 
z
" transform="scale(0.015625)"/>
      </defs>
      <use xlink:href="#TimesNewRomanPSMT-54"/>
      <use xlink:href="#TimesNewRomanPSMT-72" transform="translate(57.583984 0)"/>
      <use xlink:href="#TimesNewRomanPSMT-61" transform="translate(90.884766 0)"/>
      <use xlink:href="#TimesNewRomanPSMT-69" transform="translate(135.269531 0)"/>
      <use xlink:href="#TimesNewRomanPSMT-6e" transform="translate(163.052734 0)"/>
      <use xlink:href="#TimesNewRomanPSMT-69" transform="translate(213.052734 0)"/>
      <use xlink:href="#TimesNewRomanPSMT-6e" transform="translate(240.835938 0)"/>
      <use xlink:href="#TimesNewRomanPSMT-67" transform="translate(290.835938 0)"/>
      <use xlink:href="#TimesNewRomanPSMT-20" transform="translate(340.835938 0)"/>
      <use xlink:href="#TimesNewRomanPSMT-6c" transform="translate(365.835938 0)"/>
      <use xlink:href="#TimesNewRomanPSMT-6f" transform="translate(393.619141 0)"/>
      <use xlink:href="#TimesNewRomanPSMT-73" transform="translate(443.619141 0)"/>
      <use xlink:href="#TimesNewRomanPSMT-73" transform="translate(482.535156 0)"/>
     </g>
    </g>
    <g id="line2d_24">
     <path d="M 340.13975 104.178687 
L 362.13975 104.178687 
L 384.13975 104.178687 
" style="fill: none; stroke: #008000; stroke-width: 1.5; stroke-linecap: square"/>
    </g>
    <g id="text_15">
     <!-- Validation loss -->
     <g transform="translate(401.73975 111.878687) scale(0.22 -0.22)">
      <defs>
       <path id="TimesNewRomanPSMT-56" d="M 4544 4238 
L 4544 4122 
Q 4319 4081 4203 3978 
Q 4038 3825 3909 3509 
L 2431 -97 
L 2316 -97 
L 728 3556 
Q 606 3838 556 3900 
Q 478 3997 364 4051 
Q 250 4106 56 4122 
L 56 4238 
L 1788 4238 
L 1788 4122 
Q 1494 4094 1406 4022 
Q 1319 3950 1319 3838 
Q 1319 3681 1463 3350 
L 2541 866 
L 3541 3319 
Q 3688 3681 3688 3822 
Q 3688 3913 3597 3995 
Q 3506 4078 3291 4113 
Q 3275 4116 3238 4122 
L 3238 4238 
L 4544 4238 
z
" transform="scale(0.015625)"/>
      </defs>
      <use xlink:href="#TimesNewRomanPSMT-56"/>
      <use xlink:href="#TimesNewRomanPSMT-61" transform="translate(61.091797 0)"/>
      <use xlink:href="#TimesNewRomanPSMT-6c" transform="translate(105.476562 0)"/>
      <use xlink:href="#TimesNewRomanPSMT-69" transform="translate(133.259766 0)"/>
      <use xlink:href="#TimesNewRomanPSMT-64" transform="translate(161.042969 0)"/>
      <use xlink:href="#TimesNewRomanPSMT-61" transform="translate(211.042969 0)"/>
      <use xlink:href="#TimesNewRomanPSMT-74" transform="translate(255.427734 0)"/>
      <use xlink:href="#TimesNewRomanPSMT-69" transform="translate(283.210938 0)"/>
      <use xlink:href="#TimesNewRomanPSMT-6f" transform="translate(310.994141 0)"/>
      <use xlink:href="#TimesNewRomanPSMT-6e" transform="translate(360.994141 0)"/>
      <use xlink:href="#TimesNewRomanPSMT-20" transform="translate(410.994141 0)"/>
      <use xlink:href="#TimesNewRomanPSMT-6c" transform="translate(435.994141 0)"/>
      <use xlink:href="#TimesNewRomanPSMT-6f" transform="translate(463.777344 0)"/>
      <use xlink:href="#TimesNewRomanPSMT-73" transform="translate(513.777344 0)"/>
      <use xlink:href="#TimesNewRomanPSMT-73" transform="translate(552.693359 0)"/>
     </g>
    </g>
   </g>
  </g>
 </g>
 <defs>
  <clipPath id="p1f60324ff2">
   <rect x="257.4585" y="45.5315" width="357.12" height="266.112"/>
  </clipPath>
 </defs>
</svg>
