<?xml version="1.0" encoding="utf-8" standalone="no"?>
<!DOCTYPE svg PUBLIC "-//W3C//DTD SVG 1.1//EN"
  "http://www.w3.org/Graphics/SVG/1.1/DTD/svg11.dtd">
<svg xmlns:xlink="http://www.w3.org/1999/xlink" width="873.753pt" height="383.265687pt" viewBox="0 0 873.753 383.265687" xmlns="http://www.w3.org/2000/svg" version="1.1">
 <metadata>
  <rdf:RDF xmlns:dc="http://purl.org/dc/elements/1.1/" xmlns:cc="http://creativecommons.org/ns#" xmlns:rdf="http://www.w3.org/1999/02/22-rdf-syntax-ns#">
   <cc:Work>
    <dc:type rdf:resource="http://purl.org/dc/dcmitype/StillImage"/>
    <dc:date>2025-06-27T12:19:13.502101</dc:date>
    <dc:format>image/svg+xml</dc:format>
    <dc:creator>
     <cc:Agent>
      <dc:title>Matplotlib v3.10.1, https://matplotlib.org/</dc:title>
     </cc:Agent>
    </dc:creator>
   </cc:Work>
  </rdf:RDF>
 </metadata>
 <defs>
  <style type="text/css">*{stroke-linejoin: round; stroke-linecap: butt}</style>
 </defs>
 <g id="figure_1">
  <g id="patch_1">
   <path d="M 0 383.265687 
L 873.753 383.265687 
L 873.753 0 
L 0 0 
z
" style="fill: #ffffff"/>
  </g>
  <g id="axes_1">
   <g id="patch_2">
    <path d="M 258.3165 311.6435 
L 615.4365 311.6435 
L 615.4365 45.5315 
L 258.3165 45.5315 
z
" style="fill: #ffffff"/>
   </g>
   <g id="matplotlib.axis_1">
    <g id="xtick_1">
     <g id="line2d_1">
      <path d="M 258.3165 311.6435 
L 258.3165 45.5315 
" clip-path="url(#p0ee4f89ff6)" style="fill: none; stroke: #b0b0b0; stroke-opacity: 0.3; stroke-width: 0.8; stroke-linecap: square"/>
     </g>
     <g id="line2d_2">
      <defs>
       <path id="m178e687e1a" d="M 0 0 
L 0 3.5 
" style="stroke: #000000; stroke-width: 0.8"/>
      </defs>
      <g>
       <use xlink:href="#m178e687e1a" x="258.3165" y="311.6435" style="stroke: #000000; stroke-width: 0.8"/>
      </g>
     </g>
     <g id="text_1">
      <!-- 0.0 -->
      <g transform="translate(244.5665 333.91975) scale(0.22 -0.22)">
       <defs>
        <path id="TimesNewRomanPSMT-30" d="M 231 2094 
Q 231 2819 450 3342 
Q 669 3866 1031 4122 
Q 1313 4325 1613 4325 
Q 2100 4325 2488 3828 
Q 2972 3213 2972 2159 
Q 2972 1422 2759 906 
Q 2547 391 2217 158 
Q 1888 -75 1581 -75 
Q 975 -75 572 641 
Q 231 1244 231 2094 
z
M 844 2016 
Q 844 1141 1059 588 
Q 1238 122 1591 122 
Q 1759 122 1940 273 
Q 2122 425 2216 781 
Q 2359 1319 2359 2297 
Q 2359 3022 2209 3506 
Q 2097 3866 1919 4016 
Q 1791 4119 1609 4119 
Q 1397 4119 1231 3928 
Q 1006 3669 925 3112 
Q 844 2556 844 2016 
z
" transform="scale(0.015625)"/>
        <path id="TimesNewRomanPSMT-2e" d="M 800 606 
Q 947 606 1047 504 
Q 1147 403 1147 259 
Q 1147 116 1045 14 
Q 944 -88 800 -88 
Q 656 -88 554 14 
Q 453 116 453 259 
Q 453 406 554 506 
Q 656 606 800 606 
z
" transform="scale(0.015625)"/>
       </defs>
       <use xlink:href="#TimesNewRomanPSMT-30"/>
       <use xlink:href="#TimesNewRomanPSMT-2e" transform="translate(50 0)"/>
       <use xlink:href="#TimesNewRomanPSMT-30" transform="translate(75 0)"/>
      </g>
     </g>
    </g>
    <g id="xtick_2">
     <g id="line2d_3">
      <path d="M 383.190549 311.6435 
L 383.190549 45.5315 
" clip-path="url(#p0ee4f89ff6)" style="fill: none; stroke: #b0b0b0; stroke-opacity: 0.3; stroke-width: 0.8; stroke-linecap: square"/>
     </g>
     <g id="line2d_4">
      <g>
       <use xlink:href="#m178e687e1a" x="383.190549" y="311.6435" style="stroke: #000000; stroke-width: 0.8"/>
      </g>
     </g>
     <g id="text_2">
      <!-- 0.5 -->
      <g transform="translate(369.440549 333.91975) scale(0.22 -0.22)">
       <defs>
        <path id="TimesNewRomanPSMT-35" d="M 2778 4238 
L 2534 3706 
L 1259 3706 
L 981 3138 
Q 1809 3016 2294 2522 
Q 2709 2097 2709 1522 
Q 2709 1188 2573 903 
Q 2438 619 2231 419 
Q 2025 219 1772 97 
Q 1413 -75 1034 -75 
Q 653 -75 479 54 
Q 306 184 306 341 
Q 306 428 378 495 
Q 450 563 559 563 
Q 641 563 702 538 
Q 763 513 909 409 
Q 1144 247 1384 247 
Q 1750 247 2026 523 
Q 2303 800 2303 1197 
Q 2303 1581 2056 1914 
Q 1809 2247 1375 2428 
Q 1034 2569 447 2591 
L 1259 4238 
L 2778 4238 
z
" transform="scale(0.015625)"/>
       </defs>
       <use xlink:href="#TimesNewRomanPSMT-30"/>
       <use xlink:href="#TimesNewRomanPSMT-2e" transform="translate(50 0)"/>
       <use xlink:href="#TimesNewRomanPSMT-35" transform="translate(75 0)"/>
      </g>
     </g>
    </g>
    <g id="xtick_3">
     <g id="line2d_5">
      <path d="M 508.064598 311.6435 
L 508.064598 45.5315 
" clip-path="url(#p0ee4f89ff6)" style="fill: none; stroke: #b0b0b0; stroke-opacity: 0.3; stroke-width: 0.8; stroke-linecap: square"/>
     </g>
     <g id="line2d_6">
      <g>
       <use xlink:href="#m178e687e1a" x="508.064598" y="311.6435" style="stroke: #000000; stroke-width: 0.8"/>
      </g>
     </g>
     <g id="text_3">
      <!-- 1.0 -->
      <g transform="translate(494.314598 333.91975) scale(0.22 -0.22)">
       <defs>
        <path id="TimesNewRomanPSMT-31" d="M 750 3822 
L 1781 4325 
L 1884 4325 
L 1884 747 
Q 1884 391 1914 303 
Q 1944 216 2037 169 
Q 2131 122 2419 116 
L 2419 0 
L 825 0 
L 825 116 
Q 1125 122 1212 167 
Q 1300 213 1334 289 
Q 1369 366 1369 747 
L 1369 3034 
Q 1369 3497 1338 3628 
Q 1316 3728 1258 3775 
Q 1200 3822 1119 3822 
Q 1003 3822 797 3725 
L 750 3822 
z
" transform="scale(0.015625)"/>
       </defs>
       <use xlink:href="#TimesNewRomanPSMT-31"/>
       <use xlink:href="#TimesNewRomanPSMT-2e" transform="translate(50 0)"/>
       <use xlink:href="#TimesNewRomanPSMT-30" transform="translate(75 0)"/>
      </g>
     </g>
    </g>
    <g id="text_4">
     <!-- $\kappa  = \frac{ln(n)}{ln(d)}$ -->
     <g transform="translate(404.8665 364.185687) scale(0.22 -0.22)">
      <defs>
       <path id="STIXGeneral-Italic-3ba" d="M 979 1440 
L 998 1446 
Q 1850 2541 2464 2790 
Q 2547 2822 2630 2822 
Q 2797 2822 2886 2736 
Q 2976 2650 2976 2522 
Q 2976 2387 2893 2307 
Q 2810 2227 2682 2227 
Q 2605 2227 2502 2288 
Q 2400 2349 2336 2349 
Q 2170 2349 1990 2205 
Q 1811 2061 1414 1645 
L 2042 544 
Q 2202 262 2310 182 
Q 2419 102 2624 102 
L 2624 0 
Q 2374 -83 2182 -83 
Q 1786 -83 1555 326 
L 960 1350 
L 576 0 
L 90 0 
L 640 1978 
Q 730 2317 730 2406 
Q 730 2560 518 2560 
L 339 2560 
L 339 2650 
Q 678 2694 1306 2822 
L 1325 2803 
L 979 1440 
z
" transform="scale(0.015625)"/>
       <path id="STIXGeneral-Regular-3d" d="M 4077 2048 
L 307 2048 
L 307 2470 
L 4077 2470 
L 4077 2048 
z
M 4077 768 
L 307 768 
L 307 1190 
L 4077 1190 
L 4077 768 
z
" transform="scale(0.015625)"/>
       <path id="STIXGeneral-Italic-6c" d="M 1786 4339 
L 806 595 
Q 755 410 755 320 
Q 755 205 864 205 
Q 1037 205 1293 570 
L 1453 794 
L 1542 730 
Q 1254 275 1046 102 
Q 838 -70 576 -70 
Q 262 -70 262 288 
Q 262 397 288 480 
L 1165 3834 
Q 1184 3898 1184 3955 
Q 1184 4096 870 4096 
L 755 4096 
L 755 4198 
Q 1203 4250 1747 4371 
L 1786 4339 
z
" transform="scale(0.015625)"/>
       <path id="STIXGeneral-Italic-6e" d="M 2944 749 
L 3034 666 
Q 2707 218 2534 80 
Q 2362 -58 2138 -58 
Q 2010 -58 1923 28 
Q 1837 115 1837 288 
Q 1837 390 1939 768 
L 2221 1805 
Q 2310 2150 2310 2310 
Q 2310 2496 2157 2496 
Q 1971 2496 1750 2275 
Q 1530 2054 1210 1587 
Q 998 1274 899 1024 
Q 800 774 570 0 
L 90 0 
L 704 2240 
Q 717 2304 717 2349 
Q 717 2445 630 2480 
Q 544 2515 301 2522 
L 301 2624 
Q 550 2675 857 2729 
Q 1165 2784 1338 2822 
L 1363 2810 
L 934 1414 
Q 1408 2170 1753 2496 
Q 2099 2822 2413 2822 
Q 2611 2822 2720 2716 
Q 2829 2611 2829 2432 
Q 2829 2272 2765 2048 
L 2406 749 
Q 2317 429 2317 358 
Q 2317 243 2419 243 
Q 2541 243 2810 582 
Q 2854 634 2944 749 
z
" transform="scale(0.015625)"/>
       <path id="STIXGeneral-Regular-28" d="M 1946 -1030 
L 1869 -1133 
Q 1126 -710 716 32 
Q 307 774 307 1613 
Q 307 3386 1888 4326 
L 1946 4224 
Q 1293 3667 1075 3126 
Q 858 2586 858 1632 
Q 858 685 1082 96 
Q 1306 -493 1946 -1030 
z
" transform="scale(0.015625)"/>
       <path id="STIXGeneral-Regular-29" d="M 186 4224 
L 262 4326 
Q 992 3891 1408 3148 
Q 1824 2406 1824 1581 
Q 1824 -166 243 -1133 
L 186 -1030 
Q 845 -486 1059 54 
Q 1274 595 1274 1562 
Q 1274 2534 1059 3120 
Q 845 3706 186 4224 
z
" transform="scale(0.015625)"/>
       <path id="STIXGeneral-Italic-64" d="M 3334 4371 
L 3373 4333 
L 3123 3360 
L 2739 1958 
Q 2323 429 2323 384 
Q 2323 256 2438 256 
Q 2522 256 2614 336 
Q 2707 416 2963 710 
L 3040 646 
Q 2547 -83 2099 -83 
Q 1978 -83 1907 -6 
Q 1837 70 1837 205 
Q 1837 397 1920 774 
Q 1645 307 1379 118 
Q 1114 -70 781 -70 
Q 461 -70 278 125 
Q 96 320 96 678 
Q 96 1440 713 2131 
Q 1331 2822 1965 2822 
Q 2163 2822 2256 2732 
Q 2349 2643 2381 2451 
L 2387 2451 
L 2675 3494 
Q 2765 3808 2765 3949 
Q 2765 4051 2694 4076 
Q 2624 4102 2355 4115 
L 2355 4224 
Q 2848 4269 3334 4371 
z
M 2278 2310 
Q 2278 2477 2185 2576 
Q 2093 2675 1978 2675 
Q 1677 2675 1395 2381 
Q 1075 2042 864 1571 
Q 653 1101 653 704 
Q 653 486 752 361 
Q 851 237 1024 237 
Q 1312 237 1606 550 
Q 1901 864 2089 1350 
Q 2278 1837 2278 2310 
z
" transform="scale(0.015625)"/>
      </defs>
      <use xlink:href="#STIXGeneral-Italic-3ba" transform="translate(0 0.003125)"/>
      <use xlink:href="#STIXGeneral-Regular-3d" transform="translate(58.83999 0.003125)"/>
      <use xlink:href="#STIXGeneral-Italic-6c" transform="translate(141.779971 50.192188) scale(0.7)"/>
      <use xlink:href="#STIXGeneral-Italic-6e" transform="translate(161.239963 50.192188) scale(0.7)"/>
      <use xlink:href="#STIXGeneral-Regular-28" transform="translate(196.239952 50.192188) scale(0.7)"/>
      <use xlink:href="#STIXGeneral-Italic-6e" transform="translate(219.549944 50.192188) scale(0.7)"/>
      <use xlink:href="#STIXGeneral-Regular-29" transform="translate(254.549933 50.192188) scale(0.7)"/>
      <use xlink:href="#STIXGeneral-Italic-6c" transform="translate(141.779971 -41.257812) scale(0.7)"/>
      <use xlink:href="#STIXGeneral-Italic-6e" transform="translate(161.239963 -41.257812) scale(0.7)"/>
      <use xlink:href="#STIXGeneral-Regular-28" transform="translate(196.239952 -41.257812) scale(0.7)"/>
      <use xlink:href="#STIXGeneral-Italic-64" transform="translate(219.549944 -41.257812) scale(0.7)"/>
      <use xlink:href="#STIXGeneral-Regular-29" transform="translate(254.549933 -41.257812) scale(0.7)"/>
      <path d="M 141.779971 12.8 
L 141.779971 19.05 
L 277.859924 19.05 
L 277.859924 12.8 
L 141.779971 12.8 
z
"/>
     </g>
    </g>
   </g>
   <g id="matplotlib.axis_2">
    <g id="ytick_1">
     <g id="line2d_7">
      <path d="M 258.3165 311.6435 
L 615.4365 311.6435 
" clip-path="url(#p0ee4f89ff6)" style="fill: none; stroke: #b0b0b0; stroke-opacity: 0.3; stroke-width: 0.8; stroke-linecap: square"/>
     </g>
     <g id="line2d_8">
      <defs>
       <path id="m1af5b1038e" d="M 0 0 
L -3.5 0 
" style="stroke: #000000; stroke-width: 0.8"/>
      </defs>
      <g>
       <use xlink:href="#m1af5b1038e" x="258.3165" y="311.6435" style="stroke: #000000; stroke-width: 0.8"/>
      </g>
     </g>
     <g id="text_5">
      <!-- 0.0 -->
      <g transform="translate(223.8165 319.281625) scale(0.22 -0.22)">
       <use xlink:href="#TimesNewRomanPSMT-30"/>
       <use xlink:href="#TimesNewRomanPSMT-2e" transform="translate(50 0)"/>
       <use xlink:href="#TimesNewRomanPSMT-30" transform="translate(75 0)"/>
      </g>
     </g>
    </g>
    <g id="ytick_2">
     <g id="line2d_9">
      <path d="M 258.3165 256.440283 
L 615.4365 256.440283 
" clip-path="url(#p0ee4f89ff6)" style="fill: none; stroke: #b0b0b0; stroke-opacity: 0.3; stroke-width: 0.8; stroke-linecap: square"/>
     </g>
     <g id="line2d_10">
      <g>
       <use xlink:href="#m1af5b1038e" x="258.3165" y="256.440283" style="stroke: #000000; stroke-width: 0.8"/>
      </g>
     </g>
     <g id="text_6">
      <!-- 0.1 -->
      <g transform="translate(223.8165 264.078408) scale(0.22 -0.22)">
       <use xlink:href="#TimesNewRomanPSMT-30"/>
       <use xlink:href="#TimesNewRomanPSMT-2e" transform="translate(50 0)"/>
       <use xlink:href="#TimesNewRomanPSMT-31" transform="translate(75 0)"/>
      </g>
     </g>
    </g>
    <g id="ytick_3">
     <g id="line2d_11">
      <path d="M 258.3165 201.237066 
L 615.4365 201.237066 
" clip-path="url(#p0ee4f89ff6)" style="fill: none; stroke: #b0b0b0; stroke-opacity: 0.3; stroke-width: 0.8; stroke-linecap: square"/>
     </g>
     <g id="line2d_12">
      <g>
       <use xlink:href="#m1af5b1038e" x="258.3165" y="201.237066" style="stroke: #000000; stroke-width: 0.8"/>
      </g>
     </g>
     <g id="text_7">
      <!-- 0.2 -->
      <g transform="translate(223.8165 208.875191) scale(0.22 -0.22)">
       <defs>
        <path id="TimesNewRomanPSMT-32" d="M 2934 816 
L 2638 0 
L 138 0 
L 138 116 
Q 1241 1122 1691 1759 
Q 2141 2397 2141 2925 
Q 2141 3328 1894 3587 
Q 1647 3847 1303 3847 
Q 991 3847 742 3664 
Q 494 3481 375 3128 
L 259 3128 
Q 338 3706 661 4015 
Q 984 4325 1469 4325 
Q 1984 4325 2329 3994 
Q 2675 3663 2675 3213 
Q 2675 2891 2525 2569 
Q 2294 2063 1775 1497 
Q 997 647 803 472 
L 1909 472 
Q 2247 472 2383 497 
Q 2519 522 2628 598 
Q 2738 675 2819 816 
L 2934 816 
z
" transform="scale(0.015625)"/>
       </defs>
       <use xlink:href="#TimesNewRomanPSMT-30"/>
       <use xlink:href="#TimesNewRomanPSMT-2e" transform="translate(50 0)"/>
       <use xlink:href="#TimesNewRomanPSMT-32" transform="translate(75 0)"/>
      </g>
     </g>
    </g>
    <g id="ytick_4">
     <g id="line2d_13">
      <path d="M 258.3165 146.033849 
L 615.4365 146.033849 
" clip-path="url(#p0ee4f89ff6)" style="fill: none; stroke: #b0b0b0; stroke-opacity: 0.3; stroke-width: 0.8; stroke-linecap: square"/>
     </g>
     <g id="line2d_14">
      <g>
       <use xlink:href="#m1af5b1038e" x="258.3165" y="146.033849" style="stroke: #000000; stroke-width: 0.8"/>
      </g>
     </g>
     <g id="text_8">
      <!-- 0.3 -->
      <g transform="translate(223.8165 153.671974) scale(0.22 -0.22)">
       <defs>
        <path id="TimesNewRomanPSMT-33" d="M 325 3431 
Q 506 3859 782 4092 
Q 1059 4325 1472 4325 
Q 1981 4325 2253 3994 
Q 2459 3747 2459 3466 
Q 2459 3003 1878 2509 
Q 2269 2356 2469 2072 
Q 2669 1788 2669 1403 
Q 2669 853 2319 450 
Q 1863 -75 997 -75 
Q 569 -75 414 31 
Q 259 138 259 259 
Q 259 350 332 419 
Q 406 488 509 488 
Q 588 488 669 463 
Q 722 447 909 348 
Q 1097 250 1169 231 
Q 1284 197 1416 197 
Q 1734 197 1970 444 
Q 2206 691 2206 1028 
Q 2206 1275 2097 1509 
Q 2016 1684 1919 1775 
Q 1784 1900 1550 2001 
Q 1316 2103 1072 2103 
L 972 2103 
L 972 2197 
Q 1219 2228 1467 2375 
Q 1716 2522 1828 2728 
Q 1941 2934 1941 3181 
Q 1941 3503 1739 3701 
Q 1538 3900 1238 3900 
Q 753 3900 428 3381 
L 325 3431 
z
" transform="scale(0.015625)"/>
       </defs>
       <use xlink:href="#TimesNewRomanPSMT-30"/>
       <use xlink:href="#TimesNewRomanPSMT-2e" transform="translate(50 0)"/>
       <use xlink:href="#TimesNewRomanPSMT-33" transform="translate(75 0)"/>
      </g>
     </g>
    </g>
    <g id="ytick_5">
     <g id="line2d_15">
      <path d="M 258.3165 90.830632 
L 615.4365 90.830632 
" clip-path="url(#p0ee4f89ff6)" style="fill: none; stroke: #b0b0b0; stroke-opacity: 0.3; stroke-width: 0.8; stroke-linecap: square"/>
     </g>
     <g id="line2d_16">
      <g>
       <use xlink:href="#m1af5b1038e" x="258.3165" y="90.830632" style="stroke: #000000; stroke-width: 0.8"/>
      </g>
     </g>
     <g id="text_9">
      <!-- 0.4 -->
      <g transform="translate(223.8165 98.468757) scale(0.22 -0.22)">
       <defs>
        <path id="TimesNewRomanPSMT-34" d="M 2978 1563 
L 2978 1119 
L 2409 1119 
L 2409 0 
L 1894 0 
L 1894 1119 
L 100 1119 
L 100 1519 
L 2066 4325 
L 2409 4325 
L 2409 1563 
L 2978 1563 
z
M 1894 1563 
L 1894 3666 
L 406 1563 
L 1894 1563 
z
" transform="scale(0.015625)"/>
       </defs>
       <use xlink:href="#TimesNewRomanPSMT-30"/>
       <use xlink:href="#TimesNewRomanPSMT-2e" transform="translate(50 0)"/>
       <use xlink:href="#TimesNewRomanPSMT-34" transform="translate(75 0)"/>
      </g>
     </g>
    </g>
    <g id="text_10">
     <!-- Loss -->
     <g transform="translate(215.110563 199.368906) rotate(-90) scale(0.22 -0.22)">
      <defs>
       <path id="TimesNewRomanPSMT-4c" d="M 3669 1172 
L 3772 1150 
L 3409 0 
L 128 0 
L 128 116 
L 288 116 
Q 556 116 672 291 
Q 738 391 738 753 
L 738 3488 
Q 738 3884 650 3984 
Q 528 4122 288 4122 
L 128 4122 
L 128 4238 
L 2047 4238 
L 2047 4122 
Q 1709 4125 1573 4059 
Q 1438 3994 1388 3894 
Q 1338 3794 1338 3416 
L 1338 753 
Q 1338 494 1388 397 
Q 1425 331 1503 300 
Q 1581 269 1991 269 
L 2300 269 
Q 2788 269 2984 341 
Q 3181 413 3343 595 
Q 3506 778 3669 1172 
z
" transform="scale(0.015625)"/>
       <path id="TimesNewRomanPSMT-6f" d="M 1600 2947 
Q 2250 2947 2644 2453 
Q 2978 2031 2978 1484 
Q 2978 1100 2793 706 
Q 2609 313 2286 112 
Q 1963 -88 1566 -88 
Q 919 -88 538 428 
Q 216 863 216 1403 
Q 216 1797 411 2186 
Q 606 2575 925 2761 
Q 1244 2947 1600 2947 
z
M 1503 2744 
Q 1338 2744 1170 2645 
Q 1003 2547 900 2300 
Q 797 2053 797 1666 
Q 797 1041 1045 587 
Q 1294 134 1700 134 
Q 2003 134 2200 384 
Q 2397 634 2397 1244 
Q 2397 2006 2069 2444 
Q 1847 2744 1503 2744 
z
" transform="scale(0.015625)"/>
       <path id="TimesNewRomanPSMT-73" d="M 2050 2947 
L 2050 1972 
L 1947 1972 
Q 1828 2431 1642 2597 
Q 1456 2763 1169 2763 
Q 950 2763 815 2647 
Q 681 2531 681 2391 
Q 681 2216 781 2091 
Q 878 1963 1175 1819 
L 1631 1597 
Q 2266 1288 2266 781 
Q 2266 391 1970 151 
Q 1675 -88 1309 -88 
Q 1047 -88 709 6 
Q 606 38 541 38 
Q 469 38 428 -44 
L 325 -44 
L 325 978 
L 428 978 
Q 516 541 762 319 
Q 1009 97 1316 97 
Q 1531 97 1667 223 
Q 1803 350 1803 528 
Q 1803 744 1651 891 
Q 1500 1038 1047 1263 
Q 594 1488 453 1669 
Q 313 1847 313 2119 
Q 313 2472 555 2709 
Q 797 2947 1181 2947 
Q 1350 2947 1591 2875 
Q 1750 2828 1803 2828 
Q 1853 2828 1881 2850 
Q 1909 2872 1947 2947 
L 2050 2947 
z
" transform="scale(0.015625)"/>
      </defs>
      <use xlink:href="#TimesNewRomanPSMT-4c"/>
      <use xlink:href="#TimesNewRomanPSMT-6f" transform="translate(61.083984 0)"/>
      <use xlink:href="#TimesNewRomanPSMT-73" transform="translate(111.083984 0)"/>
      <use xlink:href="#TimesNewRomanPSMT-73" transform="translate(150 0)"/>
     </g>
    </g>
   </g>
   <g id="line2d_17">
    <path d="M 258.3165 52.148979 
L 344.729774 162.579837 
L 368.029116 187.264697 
L 382.062181 192.832485 
L 392.136039 196.96258 
L 400.000018 200.674255 
L 411.921127 206.868801 
L 420.863346 211.725236 
L 424.619996 213.617148 
L 445.639725 225.210119 
L 458.827953 232.638232 
L 466.283532 236.368654 
L 469.502733 238.04049 
L 489.475141 248.712042 
L 500.555874 254.202141 
L 508.673932 257.980462 
L 512.604917 259.959059 
L 520.389627 263.992376 
L 521.859485 264.733968 
L 524.183375 265.901485 
L 528.224102 267.989877 
L 528.624228 268.177206 
L 530.935938 269.349963 
L 531.674683 269.691343 
L 533.457879 270.610487 
L 535.814789 271.769815 
L 536.620526 272.209092 
L 537.252389 272.50935 
L 539.232614 273.562079 
L 539.674538 273.791076 
L 542.354136 275.169646 
L 543.425372 275.705486 
L 544.974777 276.511791 
L 552.885732 280.603208 
L 553.886381 281.149734 
L 554.955918 281.698849 
L 557.36444 282.96119 
L 558.24955 283.410011 
L 559.957098 284.291141 
L 560.206391 284.391125 
L 560.862861 284.680257 
L 561.267164 284.948371 
L 561.825672 285.20327 
L 562.763423 285.702717 
L 562.917369 285.760288 
L 563.677385 286.117665 
L 564.051465 286.355898 
L 565.366879 286.986211 
L 566.147724 287.380916 
L 567.995523 288.305476 
L 568.459506 288.562143 
L 571.731013 290.305275 
L 574.003364 291.516098 
L 574.396475 291.704023 
L 574.840554 291.947393 
L 575.658733 292.371736 
L 575.980872 292.525931 
L 579.248917 294.116712 
L 582.956701 295.907632 
L 584.634667 296.689882 
L 585.50683 297.073946 
L 585.955388 297.289002 
L 586.157447 297.373937 
L 587.849911 298.07143 
L 591.259209 299.383935 
L 591.363991 299.416813 
L 593.758849 300.252605 
L 594.501717 300.524264 
L 594.756557 300.586244 
L 595.041114 300.69246 
L 595.198235 300.74353 
L 595.819958 300.92554 
L 596.2184 301.060853 
L 599.61898 302.021407 
L 599.757391 302.05059 
L 600.630847 302.214566 
L 601.562552 302.380431 
L 601.954596 302.444671 
L 603.231429 302.661256 
L 603.705004 302.739021 
L 604.682111 302.901802 
L 605.890683 303.045815 
L 606.169257 303.072568 
L 606.651638 303.131431 
L 607.752697 303.331739 
L 609.035308 303.50257 
L 612.822799 303.882294 
L 612.842019 296.873572 
L 612.9188 303.865582 
L 613.129106 303.915547 
L 615.4365 303.941703 
L 615.4365 303.941703 
" clip-path="url(#p0ee4f89ff6)" style="fill: none; stroke: #ffa500; stroke-width: 1.5; stroke-linecap: square"/>
   </g>
   <g id="line2d_18">
    <path d="M 258.3165 51.051822 
L 344.729774 164.470861 
L 368.029116 190.993753 
L 382.062181 196.344748 
L 392.136039 199.783059 
L 400.000018 203.356325 
L 416.668939 212.10659 
L 428.021688 217.379972 
L 445.639725 224.149568 
L 447.577349 224.79383 
L 451.165497 226.150663 
L 457.420309 228.386788 
L 460.182665 229.207563 
L 463.965621 230.518947 
L 468.461299 232.224904 
L 470.514908 233.006177 
L 473.391255 234.060888 
L 478.535043 236.05662 
L 483.733702 237.344717 
L 497.38527 240.387814 
L 499.678095 240.715888 
L 500.986873 240.797424 
L 503.469902 241.096099 
L 505.035015 241.188188 
L 508.673932 241.468215 
L 510.032474 241.482223 
L 511.978818 241.551831 
L 513.220321 241.520095 
L 513.825391 241.529679 
L 514.420467 241.491634 
L 515.29505 241.549931 
L 520.638805 241.441234 
L 521.376164 241.495196 
L 526.577623 241.374365 
L 527.203902 241.427463 
L 528.42472 241.376117 
L 529.01996 241.437573 
L 529.798619 241.426279 
L 530.181728 241.472994 
L 532.398586 241.447559 
L 532.932125 241.465656 
L 533.283479 241.426394 
L 533.804168 241.468025 
L 534.486918 241.316825 
L 534.655603 241.413767 
L 534.990622 241.35649 
L 535.487381 241.3219 
L 536.139249 241.305448 
L 536.779534 241.282613 
L 537.095459 241.242109 
L 537.252389 241.326523 
L 537.719119 241.240398 
L 538.026946 241.253082 
L 538.483813 241.212232 
L 539.232614 241.237839 
L 539.527832 241.157077 
L 539.674538 241.229391 
L 540.111107 241.123121 
L 541.250073 241.094947 
L 541.389945 240.992008 
L 541.668071 241.128682 
L 541.806333 241.1426 
L 541.944067 241.003302 
L 542.217964 241.082682 
L 542.624946 241.047763 
L 543.027381 241.045641 
L 543.293196 240.947522 
L 543.425372 241.097333 
L 543.557064 240.977185 
L 543.819014 241.00368 
L 544.079073 241.000217 
L 544.848175 240.96552 
L 545.351938 240.832005 
L 545.476785 240.917037 
L 546.094617 240.736815 
L 546.460293 240.742335 
L 546.702032 240.743577 
L 548.119365 240.506596 
L 548.234998 240.565412 
L 548.35026 240.424493 
L 548.465155 240.502829 
L 548.807658 240.374908 
L 550.036362 240.26213 
L 550.146012 240.358192 
L 550.364316 239.988939 
L 550.581306 240.175783 
L 550.796997 240.018873 
L 550.90436 240.167878 
L 551.118131 240.03892 
L 551.330642 240.026219 
L 551.436429 240.048092 
L 551.541906 239.87937 
L 551.751939 239.959244 
L 551.960755 239.882455 
L 552.168367 239.909189 
L 552.271726 239.825128 
L 552.47756 239.852093 
L 552.580037 239.933899 
L 552.784122 239.673705 
L 552.987057 239.908226 
L 553.088098 239.731369 
L 553.188856 239.801651 
L 553.289333 239.667067 
L 553.589093 239.769101 
L 553.688462 239.80467 
L 553.886381 239.699716 
L 553.984934 239.698967 
L 554.083219 239.821246 
L 554.181236 239.679562 
L 554.278987 239.745287 
L 554.473697 239.542601 
L 554.667361 239.688422 
L 554.763803 239.619233 
L 554.859989 239.743552 
L 555.051593 239.572592 
L 555.337102 239.69761 
L 555.526192 239.418611 
L 555.714295 239.582373 
L 555.807979 239.467597 
L 555.994621 239.5299 
L 556.1803 239.47426 
L 556.272782 239.38913 
L 556.365028 239.587572 
L 556.457038 239.401847 
L 556.548813 239.56959 
L 556.640356 239.359006 
L 556.731666 239.424254 
L 556.822745 239.320558 
L 557.004217 239.377745 
L 557.094611 239.398532 
L 557.274721 239.262862 
L 557.54321 239.289678 
L 557.721098 239.002191 
L 557.898111 239.297748 
L 558.074259 239.055865 
L 558.162011 239.268653 
L 558.423993 238.952506 
L 558.510899 239.208842 
L 558.597595 239.131609 
L 558.770365 239.049934 
L 558.85644 239.049358 
L 558.94231 238.882783 
L 559.027976 239.058036 
L 559.113438 238.99547 
L 559.283758 238.798566 
L 559.368617 239.058768 
L 559.537737 238.870831 
L 559.622001 238.824758 
L 559.789939 238.886312 
L 559.957098 238.871143 
L 560.040387 238.9351 
L 560.206391 238.730192 
L 560.289107 239.0123 
L 560.453971 238.775484 
L 560.618084 238.732989 
L 560.944086 238.837327 
L 561.025127 238.668424 
L 561.105987 238.75422 
L 561.427623 238.718108 
L 561.507585 238.742284 
L 561.587371 238.47398 
L 561.746413 238.544846 
L 561.825672 238.510651 
L 561.904757 238.664015 
L 561.983668 238.424287 
L 562.140975 238.646921 
L 562.297598 238.405441 
L 562.453543 238.594604 
L 562.531263 238.404216 
L 562.608816 238.592277 
L 562.763423 238.391457 
L 562.840478 238.49897 
L 562.917369 238.227144 
L 562.994096 238.484311 
L 563.07066 238.318181 
L 563.147062 238.5209 
L 563.223302 238.263955 
L 563.299381 238.389713 
L 563.526659 238.259859 
L 563.602101 238.391112 
L 563.677385 238.036163 
L 563.827483 238.339198 
L 564.051465 238.225137 
L 564.274063 238.253977 
L 564.421701 238.026703 
L 564.568736 238.18242 
L 564.715174 238.125176 
L 565.006277 238.07448 
L 565.438568 237.816087 
L 565.58152 237.866693 
L 565.652784 237.719654 
L 565.723908 237.795267 
L 565.794891 237.898938 
L 566.007005 237.700315 
L 566.147724 237.697486 
L 566.357777 237.568997 
L 566.427524 237.725281 
L 566.497136 237.688536 
L 566.635957 237.680129 
L 566.705168 237.705152 
L 566.843191 237.553532 
L 567.185955 237.410483 
L 567.254118 237.564982 
L 567.322152 237.459386 
L 567.390059 237.346609 
L 567.457837 237.520982 
L 567.525488 237.346699 
L 567.593013 237.390412 
L 567.727683 237.363818 
L 567.79483 237.420305 
L 567.92875 237.281863 
L 567.995523 237.441635 
L 568.128701 237.103056 
L 568.195105 237.271029 
L 568.261387 237.135269 
L 568.327548 237.199513 
L 568.459506 237.07248 
L 568.590982 237.194643 
L 568.72198 237.125685 
L 568.787301 237.209335 
L 568.917589 237.086818 
L 569.305649 236.944296 
L 569.369921 237.140295 
L 569.498123 236.8597 
L 569.562053 236.932862 
L 569.62587 236.85604 
L 569.94327 236.962327 
L 570.006416 236.832571 
L 570.069452 236.950514 
L 570.195193 236.89012 
L 570.257899 236.748083 
L 570.320496 236.840024 
L 570.382985 236.860893 
L 570.445366 236.672404 
L 570.507639 236.878916 
L 570.569804 236.788316 
L 570.631862 236.646772 
L 570.755659 236.774291 
L 570.817398 236.671253 
L 570.879032 236.754581 
L 571.001984 236.775409 
L 571.246636 236.599572 
L 571.307541 236.661258 
L 571.368342 236.49618 
L 571.429042 236.603405 
L 571.489639 236.612659 
L 571.550134 236.490776 
L 571.610528 236.594266 
L 571.670821 236.66431 
L 571.731013 236.454582 
L 571.791105 236.54329 
L 571.970781 236.317357 
L 572.149566 236.530746 
L 572.268265 236.329211 
L 572.327468 236.50365 
L 572.386574 236.44773 
L 572.622034 236.142894 
L 572.797624 236.323485 
L 573.088386 236.232054 
L 573.146258 236.154566 
L 573.204037 236.30153 
L 573.261724 236.076091 
L 573.319318 236.290212 
L 573.491551 236.052927 
L 573.662964 236.080492 
L 573.719921 236.012883 
L 573.776789 236.186047 
L 573.833566 235.869629 
L 573.890254 235.946401 
L 574.059786 236.146159 
L 574.228523 235.93055 
L 574.284594 235.84514 
L 574.340578 236.007627 
L 574.396475 235.821063 
L 574.452285 235.899267 
L 574.619198 235.901611 
L 574.785342 235.802957 
L 574.840554 235.967262 
L 574.895681 235.790199 
L 574.950724 235.86939 
L 575.005683 235.733399 
L 575.060558 235.905987 
L 575.11535 235.845263 
L 575.170058 235.708754 
L 575.224684 235.730841 
L 575.279227 235.905502 
L 575.333687 235.803204 
L 575.442362 235.638398 
L 575.496576 235.667863 
L 575.604761 235.82446 
L 575.820162 235.532177 
L 575.980872 235.665404 
L 576.140868 235.491845 
L 576.300156 235.587858 
L 576.353097 235.443444 
L 576.405959 235.475763 
L 576.458744 235.635667 
L 576.511452 235.515215 
L 576.77384 235.303159 
L 576.82609 235.506018 
L 576.878263 235.383592 
L 577.034332 235.423578 
L 577.086205 235.224001 
L 577.189728 235.255473 
L 577.241378 235.07572 
L 577.292954 235.397765 
L 577.344456 235.255473 
L 577.498523 235.213068 
L 577.651934 235.074873 
L 577.753846 235.123735 
L 577.906176 235.053173 
L 577.95681 235.090634 
L 578.007372 234.950991 
L 578.158636 235.179359 
L 578.208917 235.184738 
L 578.359339 234.895425 
L 578.509136 235.054185 
L 578.658312 234.821844 
L 578.707901 235.084275 
L 578.757421 234.931355 
L 578.856258 234.882773 
L 578.905575 234.725461 
L 578.954825 234.801065 
L 579.151153 234.847722 
L 579.733799 234.582025 
L 579.829998 234.605996 
L 579.973815 234.390452 
L 580.164683 234.342873 
L 580.259739 234.329835 
L 580.307174 234.484721 
L 580.354546 234.406805 
L 580.543413 234.230655 
L 580.637476 234.350219 
L 580.731295 233.995624 
L 580.778113 234.117146 
L 580.82487 234.258886 
L 580.918202 234.225251 
L 580.964778 234.20578 
L 581.05775 233.94997 
L 581.104146 234.215305 
L 581.150482 234.154993 
L 581.381273 233.884352 
L 581.427255 234.018278 
L 581.473177 233.957201 
L 581.519042 233.83336 
L 581.564848 233.938331 
L 581.610596 233.932416 
L 581.656286 233.683491 
L 581.701918 233.774265 
L 581.793009 233.914944 
L 581.929215 233.65684 
L 582.064908 233.829419 
L 582.110026 233.534726 
L 582.200092 233.619206 
L 582.468948 233.515971 
L 582.513563 233.603955 
L 582.558123 233.499338 
L 582.735813 233.216588 
L 582.780099 233.386857 
L 582.824331 233.423807 
L 582.912631 233.253235 
L 582.956701 233.328362 
L 583.000716 233.308957 
L 583.044678 233.422853 
L 583.132441 233.146298 
L 583.176242 233.172366 
L 583.350917 232.975108 
L 583.437938 233.253004 
L 583.568077 232.879029 
L 583.697747 233.099451 
L 583.740867 232.80734 
L 583.826953 232.821267 
L 583.869918 233.000337 
L 583.912833 232.76306 
L 584.041271 232.825725 
L 584.083982 232.563138 
L 584.169252 232.621813 
L 584.254321 232.546497 
L 584.296781 232.753288 
L 584.33919 232.628032 
L 584.550492 232.412208 
L 584.67668 232.570648 
L 584.844247 232.372041 
L 584.886018 232.196994 
L 584.92774 232.350563 
L 584.969413 232.424959 
L 585.011039 232.223053 
L 585.094146 232.365814 
L 585.177062 232.044107 
L 585.218448 232.258992 
L 585.301079 232.039591 
L 585.342323 232.112143 
L 585.38352 232.221523 
L 585.42467 231.986089 
L 585.50683 232.114669 
L 585.670589 231.946695 
L 585.792922 232.012774 
L 585.874247 231.721264 
L 585.91484 231.947995 
L 585.995891 231.680957 
L 586.036348 231.695681 
L 586.07676 231.939111 
L 586.157447 231.799163 
L 586.318282 231.597472 
L 586.398432 231.555183 
L 586.478403 231.697014 
L 586.558197 231.557757 
L 586.598028 231.417686 
L 586.637815 231.584804 
L 586.756913 231.586935 
L 586.796525 231.347881 
L 586.836093 231.565942 
L 586.9151 231.546019 
L 586.954538 231.331158 
L 586.993934 231.570475 
L 587.033286 231.347783 
L 587.072596 231.422112 
L 587.111862 231.343793 
L 587.151086 231.316401 
L 587.229406 231.511939 
L 587.268502 231.401152 
L 587.346568 231.201452 
L 587.385537 231.363362 
L 587.540994 231.160059 
L 587.657148 231.340338 
L 587.811441 231.121331 
L 587.926728 231.083648 
L 587.965075 230.970599 
L 588.003381 231.131737 
L 588.156201 230.871337 
L 588.194305 231.06667 
L 588.232369 231.136656 
L 588.346319 230.80655 
L 588.384222 231.100972 
L 588.45991 230.942368 
L 588.535439 230.827575 
L 588.573144 230.78902 
L 588.61081 230.827246 
L 588.648436 230.980709 
L 588.686023 230.924107 
L 588.723571 230.671176 
L 588.76108 231.031521 
L 588.79855 230.810696 
L 588.910726 230.831178 
L 589.059754 230.719873 
L 589.096914 230.816668 
L 589.171121 230.776772 
L 589.355972 230.460773 
L 589.392829 230.67964 
L 589.429648 230.701908 
L 589.503173 230.557535 
L 589.539879 230.646531 
L 589.576548 230.690811 
L 589.61318 230.636273 
L 589.722853 230.519194 
L 589.759336 230.613158 
L 589.795783 230.36031 
L 589.868565 230.482235 
L 589.941201 230.593622 
L 590.086035 230.316211 
L 590.19428 230.381558 
L 590.338102 230.215262 
L 590.373968 230.382973 
L 590.445593 230.187895 
L 590.552765 230.033955 
L 590.588418 230.194138 
L 590.659619 230.145976 
L 590.730679 230.050736 
L 590.766156 230.122622 
L 590.801599 230.282871 
L 590.837007 229.992093 
L 590.87238 230.168095 
L 590.943022 229.960678 
L 590.978291 230.224146 
L 591.013526 229.882409 
L 591.048726 230.13529 
L 591.189185 229.909645 
L 591.259209 229.898342 
L 591.29417 229.72879 
L 591.329098 230.03532 
L 591.363991 229.827369 
L 591.503228 229.992636 
L 591.572646 229.653342 
L 591.607304 229.857698 
L 591.71108 229.720087 
L 591.814558 229.911578 
L 591.952068 229.768307 
L 592.123221 229.556835 
L 592.157355 229.726544 
L 592.191455 229.545335 
L 592.225524 229.479026 
L 592.259561 229.643824 
L 592.429263 229.388228 
L 592.564451 229.688244 
L 592.598169 229.419651 
L 592.699134 229.485278 
L 592.766287 229.500833 
L 592.799817 229.626739 
L 592.833315 229.38762 
L 592.866783 229.326682 
L 592.900219 229.621803 
L 592.966999 229.514085 
L 593.066937 229.315281 
L 593.100188 229.39995 
L 593.133409 229.640205 
L 593.166599 229.366751 
L 593.199758 229.289781 
L 593.232887 229.45369 
L 593.265986 229.535226 
L 593.299054 229.411475 
L 593.332092 229.477932 
L 593.496828 229.246529 
L 593.529685 229.534773 
L 593.595309 229.161958 
L 593.693522 229.404516 
L 593.726201 229.142413 
L 593.791468 229.359997 
L 593.856618 229.384584 
L 593.986565 229.122268 
L 594.051363 229.306586 
L 594.116045 229.209076 
L 594.212851 229.100461 
L 594.245062 229.293984 
L 594.277244 229.017922 
L 594.309397 229.194821 
L 594.341522 229.142027 
L 594.373618 229.181223 
L 594.405685 229.268582 
L 594.437724 229.081517 
L 594.469735 229.067294 
L 594.533671 229.272218 
L 594.565596 229.056222 
L 594.629362 228.938378 
L 594.7248 229.217615 
L 594.756557 228.894394 
L 594.851659 228.925249 
L 594.978073 229.074105 
L 595.041114 228.927486 
L 595.072593 229.158997 
L 595.135469 228.918635 
L 595.260892 229.054273 
L 595.354674 228.819044 
L 595.385881 228.869921 
L 595.448213 228.804558 
L 595.479339 228.937596 
L 595.541509 228.972013 
L 595.572555 228.801441 
L 595.603573 228.969118 
L 595.696469 228.897388 
L 595.819958 228.659782 
L 595.881544 228.921523 
L 595.943025 228.806393 
L 596.035051 228.916785 
L 596.157387 228.61245 
L 596.187906 228.84605 
L 596.279309 228.763626 
L 596.431134 228.645798 
L 596.552135 228.6846 
L 596.582322 228.511288 
L 596.64262 228.712889 
L 596.672731 228.597964 
L 596.702817 228.749634 
L 596.792925 228.72137 
L 596.912719 228.44414 
L 597.002304 228.673873 
L 597.032116 228.596566 
L 597.091666 228.575976 
L 597.121405 228.307277 
L 597.210473 228.472272 
L 597.240114 228.56891 
L 597.299322 228.52862 
L 597.358433 228.574619 
L 597.417447 228.37598 
L 597.446917 228.504937 
L 597.476364 228.319879 
L 597.535186 228.479618 
L 597.56456 228.459201 
L 597.593911 228.211914 
L 597.623238 228.470142 
L 597.68182 228.326682 
L 597.740308 228.369407 
L 597.769516 228.502396 
L 597.7987 228.123633 
L 597.856998 228.418598 
L 597.944268 228.282731 
L 597.973312 228.421963 
L 598.031328 228.164351 
L 598.089251 228.285289 
L 598.118178 228.246191 
L 598.147081 228.119981 
L 598.204818 228.361971 
L 598.320017 228.262881 
L 598.377478 228.362859 
L 598.520731 228.108555 
L 598.577873 228.092342 
L 598.663417 228.24796 
L 598.748758 227.994955 
L 598.720334 228.329413 
L 598.80554 228.021739 
L 598.833898 228.170899 
L 598.890546 227.970335 
L 598.918837 228.08725 
L 598.947105 228.009153 
L 598.975352 228.168201 
L 599.059958 228.196992 
L 599.088116 228.124118 
L 599.116252 227.8805 
L 599.172458 228.149931 
L 599.200529 228.200784 
L 599.228577 228.057159 
L 599.396411 227.990858 
L 599.424307 228.116287 
L 599.452182 227.93062 
L 599.480035 228.068931 
L 599.507867 227.791841 
L 599.591234 228.000022 
L 599.61898 228.035352 
L 599.646705 227.706225 
L 599.729751 227.970104 
L 599.867738 227.843656 
L 599.950277 227.92385 
L 600.005198 227.739425 
L 600.032627 227.788122 
L 600.060035 227.953801 
L 600.142136 227.854234 
L 600.169461 227.672055 
L 600.251312 227.834698 
L 600.278555 227.772115 
L 600.305777 227.819463 
L 600.332978 227.95589 
L 600.360159 227.712131 
L 600.38732 227.790993 
L 600.41446 227.704111 
L 600.441579 227.876436 
L 600.495757 227.7745 
L 600.522816 227.881371 
L 600.549854 227.668419 
L 600.603869 227.772748 
L 600.630847 227.829992 
L 600.657804 227.667218 
L 600.684741 227.781509 
L 600.845942 227.551644 
L 600.872739 227.679976 
L 600.979727 227.843927 
L 600.926273 227.63517 
L 601.006425 227.784256 
L 601.166196 227.484323 
L 601.219296 227.668822 
L 601.2988 227.614054 
L 601.351705 227.585386 
L 601.378129 227.368132 
L 601.404533 227.769581 
L 601.457283 227.610007 
L 601.509956 227.36369 
L 601.536264 227.6469 
L 601.562552 227.580681 
L 601.615072 227.606116 
L 601.667515 227.658104 
L 601.719882 227.323819 
L 601.79829 227.292025 
L 601.824388 227.560544 
L 601.850467 227.278379 
L 601.928592 227.440553 
L 601.980581 227.467739 
L 602.006547 227.386681 
L 602.032495 227.404729 
L 602.110226 227.452826 
L 602.136099 227.200784 
L 602.18779 227.413662 
L 602.265188 227.301962 
L 602.316694 227.187318 
L 602.342419 227.381968 
L 602.445137 227.417216 
L 602.470771 227.085489 
L 602.496387 227.303484 
L 602.573125 227.171211 
L 602.675189 227.284186 
L 602.70066 227.238211 
L 602.751547 227.304381 
L 602.853108 226.957263 
L 602.878453 227.191924 
L 602.954383 226.991697 
L 603.030152 226.902273 
L 603.105763 227.09332 
L 603.181215 226.833759 
L 603.156082 227.132048 
L 603.206331 226.946792 
L 603.231429 227.132615 
L 603.281574 227.072508 
L 603.306619 226.758862 
L 603.381653 227.015996 
L 603.45653 227.048982 
L 603.580981 226.815193 
L 603.655446 226.955026 
L 603.680234 226.892838 
L 603.754494 226.70699 
L 603.779213 226.862254 
L 603.803916 226.989567 
L 603.828601 226.755087 
L 603.85327 226.954318 
L 603.951776 226.773282 
L 603.976361 227.008848 
L 604.025479 226.958102 
L 604.123516 226.573557 
L 604.147984 226.830214 
L 604.221287 226.715594 
L 604.270074 226.524629 
L 604.294442 226.902199 
L 604.391751 226.686754 
L 604.416037 226.832493 
L 604.440307 226.532831 
L 604.488798 226.599658 
L 604.513019 226.708495 
L 604.585584 226.671939 
L 604.633879 226.527879 
L 604.658003 226.689107 
L 604.706202 226.555509 
L 604.730277 226.749945 
L 604.77838 226.387882 
L 604.802407 226.675879 
L 604.850413 226.336716 
L 604.874392 226.739622 
L 604.898355 226.41186 
L 604.922302 226.680897 
L 605.017933 226.50775 
L 605.065653 226.525822 
L 605.089489 226.342919 
L 605.160904 226.501465 
L 605.208435 226.472403 
L 605.232177 226.679663 
L 605.255903 226.327207 
L 605.30331 226.434843 
L 605.326989 226.291704 
L 605.350653 226.569049 
L 605.421553 226.367259 
L 605.492313 226.57424 
L 605.515869 226.300374 
L 605.539409 226.44019 
L 605.609938 226.43101 
L 605.656881 226.473332 
L 605.703763 226.239256 
L 605.844044 226.515531 
L 605.91398 226.144386 
L 605.960529 226.461364 
L 605.98378 226.253593 
L 606.076638 226.374046 
L 606.099815 226.509041 
L 606.122977 226.237306 
L 606.146124 226.468249 
L 606.169257 226.16834 
L 606.261638 226.36475 
L 606.30774 226.125072 
L 606.353783 226.30517 
L 606.399768 226.280114 
L 606.422738 226.436217 
L 606.514472 226.143152 
L 606.53737 226.270489 
L 606.560252 226.217531 
L 606.58312 226.38965 
L 606.605974 226.249069 
L 606.628813 226.402302 
L 606.651638 226.180531 
L 606.720025 226.351943 
L 606.765545 226.340944 
L 606.788283 226.094208 
L 606.856412 226.248987 
L 606.879093 226.333846 
L 606.90176 226.137789 
L 606.924412 226.306568 
L 607.060029 225.995151 
L 607.082582 226.25528 
L 607.172654 226.181732 
L 607.217606 226.264715 
L 607.284928 226.063303 
L 607.307341 226.273731 
L 607.396854 226.130164 
L 607.463843 226.33948 
L 607.441527 226.021902 
L 607.530707 226.243714 
L 607.619667 226.328647 
L 607.641873 226.438002 
L 607.664065 226.153862 
L 607.686243 226.313528 
L 607.708408 226.074951 
L 607.730559 226.453566 
L 607.796931 226.241559 
L 607.841111 226.33466 
L 607.863181 226.415216 
L 607.885237 226.256793 
L 607.90728 226.283355 
L 607.929309 226.077806 
L 607.951325 226.506705 
L 608.017292 226.290931 
L 608.083138 226.395598 
L 608.126969 226.206895 
L 608.148864 226.216988 
L 608.170746 226.418169 
L 608.258142 226.353933 
L 608.32355 226.203744 
L 608.30176 226.374185 
L 608.367089 226.33104 
L 608.388839 226.301789 
L 608.410576 226.371117 
L 608.4323 226.373207 
L 608.45401 226.475685 
L 608.497393 226.160682 
L 608.519064 226.413958 
L 608.64882 225.999931 
L 608.670401 226.42823 
L 608.77811 226.382058 
L 608.864047 226.081425 
L 608.928365 226.217301 
L 608.97118 226.337284 
L 608.992569 226.092571 
L 609.013945 226.192261 
L 609.056658 226.228759 
L 609.248245 225.670869 
L 609.26947 225.947614 
L 609.354244 225.738363 
L 609.396556 225.642918 
L 609.417694 225.812627 
L 609.438819 225.889177 
L 609.481032 225.625067 
L 609.50212 225.763156 
L 609.586349 225.631516 
L 609.56531 225.858305 
L 609.607375 225.718045 
L 609.62839 225.774944 
L 609.670381 225.649663 
L 609.712324 225.694305 
L 609.775147 225.530708 
L 609.754218 225.755942 
L 609.816968 225.558577 
L 609.858741 225.764678 
L 609.921309 225.60869 
L 609.983769 225.698171 
L 610.004565 225.589885 
L 610.046121 225.532106 
L 610.066881 225.733707 
L 610.149802 225.59399 
L 610.273826 225.710995 
L 610.294455 225.583905 
L 610.335678 225.6621 
L 610.417983 225.391525 
L 610.459065 225.61374 
L 610.541089 225.458114 
L 610.622927 225.410297 
L 610.602485 225.583099 
L 610.643357 225.469087 
L 610.724963 225.313585 
L 610.745336 225.511286 
L 610.765697 225.522984 
L 610.86733 225.295627 
L 610.806385 225.55175 
L 610.887622 225.40815 
L 610.988913 225.301772 
L 611.009137 225.481336 
L 611.02935 225.262674 
L 611.08992 225.438454 
L 611.150388 225.296351 
L 611.210755 225.345337 
L 611.250943 225.419822 
L 611.371241 225.252112 
L 611.411251 225.357034 
L 611.431239 225.187391 
L 611.451216 225.241468 
L 611.511082 225.259047 
L 611.550937 225.068428 
L 611.610637 225.300094 
L 611.670239 225.233324 
L 611.789147 224.748752 
L 611.808926 225.193001 
L 611.887938 224.930602 
L 611.966776 224.984556 
L 612.025791 224.778266 
L 612.045442 225.042269 
L 612.143534 224.906615 
L 612.182696 224.979719 
L 612.260892 224.805001 
L 612.280415 224.969075 
L 612.299927 224.739958 
L 612.3584 224.825426 
L 612.436217 224.794167 
L 612.455645 224.844 
L 612.475062 224.883204 
L 612.513866 224.726863 
L 612.533252 224.821346 
L 612.552627 224.762785 
L 612.591348 224.91021 
L 612.630026 224.870339 
L 612.765075 224.729067 
L 612.86123 225.82337 
L 612.822799 224.370771 
L 612.957128 225.331361 
L 613.205277 224.95927 
L 613.602557 224.783062 
L 614.677581 224.619539 
L 615.25725 224.572816 
L 615.4365 224.551897 
L 615.4365 224.551897 
" clip-path="url(#p0ee4f89ff6)" style="fill: none; stroke: #008000; stroke-width: 1.5; stroke-linecap: square"/>
   </g>
   <g id="patch_3">
    <path d="M 258.3165 311.6435 
L 258.3165 45.5315 
" style="fill: none; stroke: #000000; stroke-width: 0.8; stroke-linejoin: miter; stroke-linecap: square"/>
   </g>
   <g id="patch_4">
    <path d="M 615.4365 311.6435 
L 615.4365 45.5315 
" style="fill: none; stroke: #000000; stroke-width: 0.8; stroke-linejoin: miter; stroke-linecap: square"/>
   </g>
   <g id="patch_5">
    <path d="M 258.3165 311.6435 
L 615.4365 311.6435 
" style="fill: none; stroke: #000000; stroke-width: 0.8; stroke-linejoin: miter; stroke-linecap: square"/>
   </g>
   <g id="patch_6">
    <path d="M 258.3165 45.5315 
L 615.4365 45.5315 
" style="fill: none; stroke: #000000; stroke-width: 0.8; stroke-linejoin: miter; stroke-linecap: square"/>
   </g>
   <g id="text_11">
    <!-- Loss of the 26_06_25_CIFAR10_torch_model_(1024+12.2+1)_c-p_muP_save_2 -->
    <g transform="translate(7.2 25.5315) scale(0.264 -0.264)">
     <defs>
      <path id="TimesNewRomanPSMT-20" transform="scale(0.015625)"/>
      <path id="TimesNewRomanPSMT-66" d="M 1319 2638 
L 1319 756 
Q 1319 356 1406 250 
Q 1522 113 1716 113 
L 1975 113 
L 1975 0 
L 266 0 
L 266 113 
L 394 113 
Q 519 113 622 175 
Q 725 238 764 344 
Q 803 450 803 756 
L 803 2638 
L 247 2638 
L 247 2863 
L 803 2863 
L 803 3050 
Q 803 3478 940 3775 
Q 1078 4072 1361 4255 
Q 1644 4438 1997 4438 
Q 2325 4438 2600 4225 
Q 2781 4084 2781 3909 
Q 2781 3816 2700 3733 
Q 2619 3650 2525 3650 
Q 2453 3650 2373 3701 
Q 2294 3753 2178 3923 
Q 2063 4094 1966 4153 
Q 1869 4213 1750 4213 
Q 1606 4213 1506 4136 
Q 1406 4059 1362 3898 
Q 1319 3738 1319 3069 
L 1319 2863 
L 2056 2863 
L 2056 2638 
L 1319 2638 
z
" transform="scale(0.015625)"/>
      <path id="TimesNewRomanPSMT-74" d="M 1031 3803 
L 1031 2863 
L 1700 2863 
L 1700 2644 
L 1031 2644 
L 1031 788 
Q 1031 509 1111 412 
Q 1191 316 1316 316 
Q 1419 316 1516 380 
Q 1613 444 1666 569 
L 1788 569 
Q 1678 263 1478 108 
Q 1278 -47 1066 -47 
Q 922 -47 784 33 
Q 647 113 581 261 
Q 516 409 516 719 
L 516 2644 
L 63 2644 
L 63 2747 
Q 234 2816 414 2980 
Q 594 3144 734 3369 
Q 806 3488 934 3803 
L 1031 3803 
z
" transform="scale(0.015625)"/>
      <path id="TimesNewRomanPSMT-68" d="M 1041 4444 
L 1041 2350 
Q 1388 2731 1591 2839 
Q 1794 2947 1997 2947 
Q 2241 2947 2416 2812 
Q 2591 2678 2675 2391 
Q 2734 2191 2734 1659 
L 2734 647 
Q 2734 375 2778 275 
Q 2809 200 2884 156 
Q 2959 113 3159 113 
L 3159 0 
L 1753 0 
L 1753 113 
L 1819 113 
Q 2019 113 2097 173 
Q 2175 234 2206 353 
Q 2216 403 2216 647 
L 2216 1659 
Q 2216 2128 2167 2275 
Q 2119 2422 2012 2495 
Q 1906 2569 1756 2569 
Q 1603 2569 1437 2487 
Q 1272 2406 1041 2159 
L 1041 647 
Q 1041 353 1073 281 
Q 1106 209 1195 161 
Q 1284 113 1503 113 
L 1503 0 
L 84 0 
L 84 113 
Q 275 113 384 172 
Q 447 203 484 290 
Q 522 378 522 647 
L 522 3238 
Q 522 3728 498 3840 
Q 475 3953 426 3993 
Q 378 4034 297 4034 
Q 231 4034 84 3984 
L 41 4094 
L 897 4444 
L 1041 4444 
z
" transform="scale(0.015625)"/>
      <path id="TimesNewRomanPSMT-65" d="M 681 1784 
Q 678 1147 991 784 
Q 1303 422 1725 422 
Q 2006 422 2214 576 
Q 2422 731 2563 1106 
L 2659 1044 
Q 2594 616 2278 264 
Q 1963 -88 1488 -88 
Q 972 -88 605 314 
Q 238 716 238 1394 
Q 238 2128 614 2539 
Q 991 2950 1559 2950 
Q 2041 2950 2350 2633 
Q 2659 2316 2659 1784 
L 681 1784 
z
M 681 1966 
L 2006 1966 
Q 1991 2241 1941 2353 
Q 1863 2528 1708 2628 
Q 1553 2728 1384 2728 
Q 1125 2728 920 2526 
Q 716 2325 681 1966 
z
" transform="scale(0.015625)"/>
      <path id="TimesNewRomanPSMT-36" d="M 2869 4325 
L 2869 4209 
Q 2456 4169 2195 4045 
Q 1934 3922 1679 3669 
Q 1425 3416 1258 3105 
Q 1091 2794 978 2366 
Q 1428 2675 1881 2675 
Q 2316 2675 2634 2325 
Q 2953 1975 2953 1425 
Q 2953 894 2631 456 
Q 2244 -75 1606 -75 
Q 1172 -75 869 213 
Q 275 772 275 1663 
Q 275 2231 503 2743 
Q 731 3256 1154 3653 
Q 1578 4050 1965 4187 
Q 2353 4325 2688 4325 
L 2869 4325 
z
M 925 2138 
Q 869 1716 869 1456 
Q 869 1156 980 804 
Q 1091 453 1309 247 
Q 1469 100 1697 100 
Q 1969 100 2183 356 
Q 2397 613 2397 1088 
Q 2397 1622 2184 2012 
Q 1972 2403 1581 2403 
Q 1463 2403 1327 2353 
Q 1191 2303 925 2138 
z
" transform="scale(0.015625)"/>
      <path id="TimesNewRomanPSMT-5f" d="M 3256 -1381 
L -53 -1381 
L -53 -1119 
L 3256 -1119 
L 3256 -1381 
z
" transform="scale(0.015625)"/>
      <path id="TimesNewRomanPSMT-43" d="M 3853 4334 
L 3950 2894 
L 3853 2894 
Q 3659 3541 3300 3825 
Q 2941 4109 2438 4109 
Q 2016 4109 1675 3895 
Q 1334 3681 1139 3212 
Q 944 2744 944 2047 
Q 944 1472 1128 1050 
Q 1313 628 1683 403 
Q 2053 178 2528 178 
Q 2941 178 3256 354 
Q 3572 531 3950 1056 
L 4047 994 
Q 3728 428 3303 165 
Q 2878 -97 2294 -97 
Q 1241 -97 663 684 
Q 231 1266 231 2053 
Q 231 2688 515 3219 
Q 800 3750 1298 4042 
Q 1797 4334 2388 4334 
Q 2847 4334 3294 4109 
Q 3425 4041 3481 4041 
Q 3566 4041 3628 4100 
Q 3709 4184 3744 4334 
L 3853 4334 
z
" transform="scale(0.015625)"/>
      <path id="TimesNewRomanPSMT-49" d="M 1975 116 
L 1975 0 
L 159 0 
L 159 116 
L 309 116 
Q 572 116 691 269 
Q 766 369 766 750 
L 766 3488 
Q 766 3809 725 3913 
Q 694 3991 597 4047 
Q 459 4122 309 4122 
L 159 4122 
L 159 4238 
L 1975 4238 
L 1975 4122 
L 1822 4122 
Q 1563 4122 1444 3969 
Q 1366 3869 1366 3488 
L 1366 750 
Q 1366 428 1406 325 
Q 1438 247 1538 191 
Q 1672 116 1822 116 
L 1975 116 
z
" transform="scale(0.015625)"/>
      <path id="TimesNewRomanPSMT-46" d="M 1309 4006 
L 1309 2341 
L 2081 2341 
Q 2347 2341 2470 2458 
Q 2594 2575 2634 2922 
L 2750 2922 
L 2750 1488 
L 2634 1488 
Q 2631 1734 2570 1850 
Q 2509 1966 2401 2023 
Q 2294 2081 2081 2081 
L 1309 2081 
L 1309 750 
Q 1309 428 1350 325 
Q 1381 247 1481 191 
Q 1619 116 1769 116 
L 1922 116 
L 1922 0 
L 103 0 
L 103 116 
L 253 116 
Q 516 116 634 269 
Q 709 369 709 750 
L 709 3488 
Q 709 3809 669 3913 
Q 638 3991 541 4047 
Q 406 4122 253 4122 
L 103 4122 
L 103 4238 
L 3256 4238 
L 3297 3306 
L 3188 3306 
Q 3106 3603 2998 3742 
Q 2891 3881 2733 3943 
Q 2575 4006 2244 4006 
L 1309 4006 
z
" transform="scale(0.015625)"/>
      <path id="TimesNewRomanPSMT-41" d="M 2928 1419 
L 1288 1419 
L 1000 750 
Q 894 503 894 381 
Q 894 284 986 211 
Q 1078 138 1384 116 
L 1384 0 
L 50 0 
L 50 116 
Q 316 163 394 238 
Q 553 388 747 847 
L 2238 4334 
L 2347 4334 
L 3822 809 
Q 4000 384 4145 257 
Q 4291 131 4550 116 
L 4550 0 
L 2878 0 
L 2878 116 
Q 3131 128 3220 200 
Q 3309 272 3309 375 
Q 3309 513 3184 809 
L 2928 1419 
z
M 2841 1650 
L 2122 3363 
L 1384 1650 
L 2841 1650 
z
" transform="scale(0.015625)"/>
      <path id="TimesNewRomanPSMT-52" d="M 4325 0 
L 3194 0 
L 1759 1981 
Q 1600 1975 1500 1975 
Q 1459 1975 1412 1976 
Q 1366 1978 1316 1981 
L 1316 750 
Q 1316 350 1403 253 
Q 1522 116 1759 116 
L 1925 116 
L 1925 0 
L 109 0 
L 109 116 
L 269 116 
Q 538 116 653 291 
Q 719 388 719 750 
L 719 3488 
Q 719 3888 631 3984 
Q 509 4122 269 4122 
L 109 4122 
L 109 4238 
L 1653 4238 
Q 2328 4238 2648 4139 
Q 2969 4041 3192 3777 
Q 3416 3513 3416 3147 
Q 3416 2756 3161 2468 
Q 2906 2181 2372 2063 
L 3247 847 
Q 3547 428 3762 290 
Q 3978 153 4325 116 
L 4325 0 
z
M 1316 2178 
Q 1375 2178 1419 2176 
Q 1463 2175 1491 2175 
Q 2097 2175 2405 2437 
Q 2713 2700 2713 3106 
Q 2713 3503 2464 3751 
Q 2216 4000 1806 4000 
Q 1625 4000 1316 3941 
L 1316 2178 
z
" transform="scale(0.015625)"/>
      <path id="TimesNewRomanPSMT-72" d="M 1038 2947 
L 1038 2303 
Q 1397 2947 1775 2947 
Q 1947 2947 2059 2842 
Q 2172 2738 2172 2600 
Q 2172 2478 2090 2393 
Q 2009 2309 1897 2309 
Q 1788 2309 1652 2417 
Q 1516 2525 1450 2525 
Q 1394 2525 1328 2463 
Q 1188 2334 1038 2041 
L 1038 669 
Q 1038 431 1097 309 
Q 1138 225 1241 169 
Q 1344 113 1538 113 
L 1538 0 
L 72 0 
L 72 113 
Q 291 113 397 181 
Q 475 231 506 341 
Q 522 394 522 644 
L 522 1753 
Q 522 2253 501 2348 
Q 481 2444 426 2487 
Q 372 2531 291 2531 
Q 194 2531 72 2484 
L 41 2597 
L 906 2947 
L 1038 2947 
z
" transform="scale(0.015625)"/>
      <path id="TimesNewRomanPSMT-63" d="M 2631 1088 
Q 2516 522 2178 217 
Q 1841 -88 1431 -88 
Q 944 -88 581 321 
Q 219 731 219 1428 
Q 219 2103 620 2525 
Q 1022 2947 1584 2947 
Q 2006 2947 2278 2723 
Q 2550 2500 2550 2259 
Q 2550 2141 2473 2067 
Q 2397 1994 2259 1994 
Q 2075 1994 1981 2113 
Q 1928 2178 1911 2362 
Q 1894 2547 1784 2644 
Q 1675 2738 1481 2738 
Q 1169 2738 978 2506 
Q 725 2200 725 1697 
Q 725 1184 976 792 
Q 1228 400 1656 400 
Q 1963 400 2206 609 
Q 2378 753 2541 1131 
L 2631 1088 
z
" transform="scale(0.015625)"/>
      <path id="TimesNewRomanPSMT-6d" d="M 1050 2338 
Q 1363 2650 1419 2697 
Q 1559 2816 1721 2881 
Q 1884 2947 2044 2947 
Q 2313 2947 2506 2790 
Q 2700 2634 2766 2338 
Q 3088 2713 3309 2830 
Q 3531 2947 3766 2947 
Q 3994 2947 4170 2830 
Q 4347 2713 4450 2447 
Q 4519 2266 4519 1878 
L 4519 647 
Q 4519 378 4559 278 
Q 4591 209 4675 161 
Q 4759 113 4950 113 
L 4950 0 
L 3538 0 
L 3538 113 
L 3597 113 
Q 3781 113 3884 184 
Q 3956 234 3988 344 
Q 4000 397 4000 647 
L 4000 1878 
Q 4000 2228 3916 2372 
Q 3794 2572 3525 2572 
Q 3359 2572 3192 2489 
Q 3025 2406 2788 2181 
L 2781 2147 
L 2788 2013 
L 2788 647 
Q 2788 353 2820 281 
Q 2853 209 2943 161 
Q 3034 113 3253 113 
L 3253 0 
L 1806 0 
L 1806 113 
Q 2044 113 2133 169 
Q 2222 225 2256 338 
Q 2272 391 2272 647 
L 2272 1878 
Q 2272 2228 2169 2381 
Q 2031 2581 1784 2581 
Q 1616 2581 1450 2491 
Q 1191 2353 1050 2181 
L 1050 647 
Q 1050 366 1089 281 
Q 1128 197 1204 155 
Q 1281 113 1516 113 
L 1516 0 
L 100 0 
L 100 113 
Q 297 113 375 155 
Q 453 197 493 289 
Q 534 381 534 647 
L 534 1741 
Q 534 2213 506 2350 
Q 484 2453 437 2492 
Q 391 2531 309 2531 
Q 222 2531 100 2484 
L 53 2597 
L 916 2947 
L 1050 2947 
L 1050 2338 
z
" transform="scale(0.015625)"/>
      <path id="TimesNewRomanPSMT-64" d="M 2222 322 
Q 2013 103 1813 7 
Q 1613 -88 1381 -88 
Q 913 -88 563 304 
Q 213 697 213 1313 
Q 213 1928 600 2439 
Q 988 2950 1597 2950 
Q 1975 2950 2222 2709 
L 2222 3238 
Q 2222 3728 2198 3840 
Q 2175 3953 2125 3993 
Q 2075 4034 2000 4034 
Q 1919 4034 1784 3984 
L 1744 4094 
L 2597 4444 
L 2738 4444 
L 2738 1134 
Q 2738 631 2761 520 
Q 2784 409 2836 365 
Q 2888 322 2956 322 
Q 3041 322 3181 375 
L 3216 266 
L 2366 -88 
L 2222 -88 
L 2222 322 
z
M 2222 541 
L 2222 2016 
Q 2203 2228 2109 2403 
Q 2016 2578 1861 2667 
Q 1706 2756 1559 2756 
Q 1284 2756 1069 2509 
Q 784 2184 784 1559 
Q 784 928 1059 592 
Q 1334 256 1672 256 
Q 1956 256 2222 541 
z
" transform="scale(0.015625)"/>
      <path id="TimesNewRomanPSMT-6c" d="M 1184 4444 
L 1184 647 
Q 1184 378 1223 290 
Q 1263 203 1344 158 
Q 1425 113 1647 113 
L 1647 0 
L 244 0 
L 244 113 
Q 441 113 512 153 
Q 584 194 625 287 
Q 666 381 666 647 
L 666 3247 
Q 666 3731 644 3842 
Q 622 3953 573 3993 
Q 525 4034 450 4034 
Q 369 4034 244 3984 
L 191 4094 
L 1044 4444 
L 1184 4444 
z
" transform="scale(0.015625)"/>
      <path id="TimesNewRomanPSMT-28" d="M 1988 -1253 
L 1988 -1369 
Q 1516 -1131 1200 -813 
Q 750 -359 506 256 
Q 263 872 263 1534 
Q 263 2503 741 3301 
Q 1219 4100 1988 4444 
L 1988 4313 
Q 1603 4100 1356 3731 
Q 1109 3363 987 2797 
Q 866 2231 866 1616 
Q 866 947 969 400 
Q 1050 -31 1165 -292 
Q 1281 -553 1476 -793 
Q 1672 -1034 1988 -1253 
z
" transform="scale(0.015625)"/>
      <path id="TimesNewRomanPSMT-2b" d="M 1672 441 
L 1672 2000 
L 116 2000 
L 116 2256 
L 1672 2256 
L 1672 3809 
L 1922 3809 
L 1922 2256 
L 3484 2256 
L 3484 2000 
L 1922 2000 
L 1922 441 
L 1672 441 
z
" transform="scale(0.015625)"/>
      <path id="TimesNewRomanPSMT-29" d="M 144 4313 
L 144 4444 
Q 619 4209 934 3891 
Q 1381 3434 1625 2820 
Q 1869 2206 1869 1541 
Q 1869 572 1392 -226 
Q 916 -1025 144 -1369 
L 144 -1253 
Q 528 -1038 776 -670 
Q 1025 -303 1145 264 
Q 1266 831 1266 1447 
Q 1266 2113 1163 2663 
Q 1084 3094 967 3353 
Q 850 3613 656 3853 
Q 463 4094 144 4313 
z
" transform="scale(0.015625)"/>
      <path id="TimesNewRomanPSMT-2d" d="M 259 1672 
L 1875 1672 
L 1875 1200 
L 259 1200 
L 259 1672 
z
" transform="scale(0.015625)"/>
      <path id="TimesNewRomanPSMT-70" d="M -6 2578 
L 875 2934 
L 994 2934 
L 994 2266 
Q 1216 2644 1439 2795 
Q 1663 2947 1909 2947 
Q 2341 2947 2628 2609 
Q 2981 2197 2981 1534 
Q 2981 794 2556 309 
Q 2206 -88 1675 -88 
Q 1444 -88 1275 -22 
Q 1150 25 994 166 
L 994 -706 
Q 994 -1000 1030 -1079 
Q 1066 -1159 1155 -1206 
Q 1244 -1253 1478 -1253 
L 1478 -1369 
L -22 -1369 
L -22 -1253 
L 56 -1253 
Q 228 -1256 350 -1188 
Q 409 -1153 442 -1076 
Q 475 -1000 475 -688 
L 475 2019 
Q 475 2297 450 2372 
Q 425 2447 370 2484 
Q 316 2522 222 2522 
Q 147 2522 31 2478 
L -6 2578 
z
M 994 2081 
L 994 1013 
Q 994 666 1022 556 
Q 1066 375 1236 237 
Q 1406 100 1666 100 
Q 1978 100 2172 344 
Q 2425 663 2425 1241 
Q 2425 1897 2138 2250 
Q 1938 2494 1663 2494 
Q 1513 2494 1366 2419 
Q 1253 2363 994 2081 
z
" transform="scale(0.015625)"/>
      <path id="TimesNewRomanPSMT-75" d="M 2709 2863 
L 2709 1128 
Q 2709 631 2732 520 
Q 2756 409 2807 365 
Q 2859 322 2928 322 
Q 3025 322 3147 375 
L 3191 266 
L 2334 -88 
L 2194 -88 
L 2194 519 
Q 1825 119 1631 15 
Q 1438 -88 1222 -88 
Q 981 -88 804 51 
Q 628 191 559 409 
Q 491 628 491 1028 
L 491 2306 
Q 491 2509 447 2587 
Q 403 2666 317 2708 
Q 231 2750 6 2747 
L 6 2863 
L 1009 2863 
L 1009 947 
Q 1009 547 1148 422 
Q 1288 297 1484 297 
Q 1619 297 1789 381 
Q 1959 466 2194 703 
L 2194 2325 
Q 2194 2569 2105 2655 
Q 2016 2741 1734 2747 
L 1734 2863 
L 2709 2863 
z
" transform="scale(0.015625)"/>
      <path id="TimesNewRomanPSMT-50" d="M 1313 1984 
L 1313 750 
Q 1313 350 1400 253 
Q 1519 116 1759 116 
L 1922 116 
L 1922 0 
L 106 0 
L 106 116 
L 266 116 
Q 534 116 650 291 
Q 713 388 713 750 
L 713 3488 
Q 713 3888 628 3984 
Q 506 4122 266 4122 
L 106 4122 
L 106 4238 
L 1659 4238 
Q 2228 4238 2556 4120 
Q 2884 4003 3109 3725 
Q 3334 3447 3334 3066 
Q 3334 2547 2992 2222 
Q 2650 1897 2025 1897 
Q 1872 1897 1694 1919 
Q 1516 1941 1313 1984 
z
M 1313 2163 
Q 1478 2131 1606 2115 
Q 1734 2100 1825 2100 
Q 2150 2100 2386 2351 
Q 2622 2603 2622 3003 
Q 2622 3278 2509 3514 
Q 2397 3750 2190 3867 
Q 1984 3984 1722 3984 
Q 1563 3984 1313 3925 
L 1313 2163 
z
" transform="scale(0.015625)"/>
      <path id="TimesNewRomanPSMT-61" d="M 1822 413 
Q 1381 72 1269 19 
Q 1100 -59 909 -59 
Q 613 -59 420 144 
Q 228 347 228 678 
Q 228 888 322 1041 
Q 450 1253 767 1440 
Q 1084 1628 1822 1897 
L 1822 2009 
Q 1822 2438 1686 2597 
Q 1550 2756 1291 2756 
Q 1094 2756 978 2650 
Q 859 2544 859 2406 
L 866 2225 
Q 866 2081 792 2003 
Q 719 1925 600 1925 
Q 484 1925 411 2006 
Q 338 2088 338 2228 
Q 338 2497 613 2722 
Q 888 2947 1384 2947 
Q 1766 2947 2009 2819 
Q 2194 2722 2281 2516 
Q 2338 2381 2338 1966 
L 2338 994 
Q 2338 584 2353 492 
Q 2369 400 2405 369 
Q 2441 338 2488 338 
Q 2538 338 2575 359 
Q 2641 400 2828 588 
L 2828 413 
Q 2478 -56 2159 -56 
Q 2006 -56 1915 50 
Q 1825 156 1822 413 
z
M 1822 616 
L 1822 1706 
Q 1350 1519 1213 1441 
Q 966 1303 859 1153 
Q 753 1003 753 825 
Q 753 600 887 451 
Q 1022 303 1197 303 
Q 1434 303 1822 616 
z
" transform="scale(0.015625)"/>
      <path id="TimesNewRomanPSMT-76" d="M 53 2863 
L 1400 2863 
L 1400 2747 
L 1313 2747 
Q 1191 2747 1127 2687 
Q 1063 2628 1063 2528 
Q 1063 2419 1128 2269 
L 1794 688 
L 2463 2328 
Q 2534 2503 2534 2594 
Q 2534 2638 2509 2666 
Q 2475 2713 2422 2730 
Q 2369 2747 2206 2747 
L 2206 2863 
L 3141 2863 
L 3141 2747 
Q 2978 2734 2916 2681 
Q 2806 2588 2719 2369 
L 1703 -88 
L 1575 -88 
L 553 2328 
Q 484 2497 421 2570 
Q 359 2644 263 2694 
Q 209 2722 53 2747 
L 53 2863 
z
" transform="scale(0.015625)"/>
     </defs>
     <use xlink:href="#TimesNewRomanPSMT-4c"/>
     <use xlink:href="#TimesNewRomanPSMT-6f" transform="translate(61.083984 0)"/>
     <use xlink:href="#TimesNewRomanPSMT-73" transform="translate(111.083984 0)"/>
     <use xlink:href="#TimesNewRomanPSMT-73" transform="translate(150 0)"/>
     <use xlink:href="#TimesNewRomanPSMT-20" transform="translate(188.916016 0)"/>
     <use xlink:href="#TimesNewRomanPSMT-6f" transform="translate(213.916016 0)"/>
     <use xlink:href="#TimesNewRomanPSMT-66" transform="translate(263.916016 0)"/>
     <use xlink:href="#TimesNewRomanPSMT-20" transform="translate(297.216797 0)"/>
     <use xlink:href="#TimesNewRomanPSMT-74" transform="translate(322.216797 0)"/>
     <use xlink:href="#TimesNewRomanPSMT-68" transform="translate(350 0)"/>
     <use xlink:href="#TimesNewRomanPSMT-65" transform="translate(400 0)"/>
     <use xlink:href="#TimesNewRomanPSMT-20" transform="translate(444.384766 0)"/>
     <use xlink:href="#TimesNewRomanPSMT-32" transform="translate(469.384766 0)"/>
     <use xlink:href="#TimesNewRomanPSMT-36" transform="translate(519.384766 0)"/>
     <use xlink:href="#TimesNewRomanPSMT-5f" transform="translate(569.384766 0)"/>
     <use xlink:href="#TimesNewRomanPSMT-30" transform="translate(619.384766 0)"/>
     <use xlink:href="#TimesNewRomanPSMT-36" transform="translate(669.384766 0)"/>
     <use xlink:href="#TimesNewRomanPSMT-5f" transform="translate(719.384766 0)"/>
     <use xlink:href="#TimesNewRomanPSMT-32" transform="translate(769.384766 0)"/>
     <use xlink:href="#TimesNewRomanPSMT-35" transform="translate(819.384766 0)"/>
     <use xlink:href="#TimesNewRomanPSMT-5f" transform="translate(869.384766 0)"/>
     <use xlink:href="#TimesNewRomanPSMT-43" transform="translate(919.384766 0)"/>
     <use xlink:href="#TimesNewRomanPSMT-49" transform="translate(986.083984 0)"/>
     <use xlink:href="#TimesNewRomanPSMT-46" transform="translate(1019.384766 0)"/>
     <use xlink:href="#TimesNewRomanPSMT-41" transform="translate(1067.625 0)"/>
     <use xlink:href="#TimesNewRomanPSMT-52" transform="translate(1139.841797 0)"/>
     <use xlink:href="#TimesNewRomanPSMT-31" transform="translate(1206.541016 0)"/>
     <use xlink:href="#TimesNewRomanPSMT-30" transform="translate(1256.541016 0)"/>
     <use xlink:href="#TimesNewRomanPSMT-5f" transform="translate(1306.541016 0)"/>
     <use xlink:href="#TimesNewRomanPSMT-74" transform="translate(1356.541016 0)"/>
     <use xlink:href="#TimesNewRomanPSMT-6f" transform="translate(1384.324219 0)"/>
     <use xlink:href="#TimesNewRomanPSMT-72" transform="translate(1434.324219 0)"/>
     <use xlink:href="#TimesNewRomanPSMT-63" transform="translate(1467.625 0)"/>
     <use xlink:href="#TimesNewRomanPSMT-68" transform="translate(1512.009766 0)"/>
     <use xlink:href="#TimesNewRomanPSMT-5f" transform="translate(1562.009766 0)"/>
     <use xlink:href="#TimesNewRomanPSMT-6d" transform="translate(1612.009766 0)"/>
     <use xlink:href="#TimesNewRomanPSMT-6f" transform="translate(1689.792969 0)"/>
     <use xlink:href="#TimesNewRomanPSMT-64" transform="translate(1739.792969 0)"/>
     <use xlink:href="#TimesNewRomanPSMT-65" transform="translate(1789.792969 0)"/>
     <use xlink:href="#TimesNewRomanPSMT-6c" transform="translate(1834.177734 0)"/>
     <use xlink:href="#TimesNewRomanPSMT-5f" transform="translate(1861.960938 0)"/>
     <use xlink:href="#TimesNewRomanPSMT-28" transform="translate(1911.960938 0)"/>
     <use xlink:href="#TimesNewRomanPSMT-31" transform="translate(1945.261719 0)"/>
     <use xlink:href="#TimesNewRomanPSMT-30" transform="translate(1995.261719 0)"/>
     <use xlink:href="#TimesNewRomanPSMT-32" transform="translate(2045.261719 0)"/>
     <use xlink:href="#TimesNewRomanPSMT-34" transform="translate(2095.261719 0)"/>
     <use xlink:href="#TimesNewRomanPSMT-2b" transform="translate(2145.261719 0)"/>
     <use xlink:href="#TimesNewRomanPSMT-31" transform="translate(2201.658203 0)"/>
     <use xlink:href="#TimesNewRomanPSMT-32" transform="translate(2251.658203 0)"/>
     <use xlink:href="#TimesNewRomanPSMT-2e" transform="translate(2301.658203 0)"/>
     <use xlink:href="#TimesNewRomanPSMT-32" transform="translate(2326.658203 0)"/>
     <use xlink:href="#TimesNewRomanPSMT-2b" transform="translate(2376.658203 0)"/>
     <use xlink:href="#TimesNewRomanPSMT-31" transform="translate(2433.054688 0)"/>
     <use xlink:href="#TimesNewRomanPSMT-29" transform="translate(2483.054688 0)"/>
     <use xlink:href="#TimesNewRomanPSMT-5f" transform="translate(2516.355469 0)"/>
     <use xlink:href="#TimesNewRomanPSMT-63" transform="translate(2566.355469 0)"/>
     <use xlink:href="#TimesNewRomanPSMT-2d" transform="translate(2610.740234 0)"/>
     <use xlink:href="#TimesNewRomanPSMT-70" transform="translate(2644.041016 0)"/>
     <use xlink:href="#TimesNewRomanPSMT-5f" transform="translate(2694.041016 0)"/>
     <use xlink:href="#TimesNewRomanPSMT-6d" transform="translate(2744.041016 0)"/>
     <use xlink:href="#TimesNewRomanPSMT-75" transform="translate(2821.824219 0)"/>
     <use xlink:href="#TimesNewRomanPSMT-50" transform="translate(2871.824219 0)"/>
     <use xlink:href="#TimesNewRomanPSMT-5f" transform="translate(2927.439453 0)"/>
     <use xlink:href="#TimesNewRomanPSMT-73" transform="translate(2977.439453 0)"/>
     <use xlink:href="#TimesNewRomanPSMT-61" transform="translate(3016.355469 0)"/>
     <use xlink:href="#TimesNewRomanPSMT-76" transform="translate(3060.740234 0)"/>
     <use xlink:href="#TimesNewRomanPSMT-65" transform="translate(3110.740234 0)"/>
     <use xlink:href="#TimesNewRomanPSMT-5f" transform="translate(3155.125 0)"/>
     <use xlink:href="#TimesNewRomanPSMT-32" transform="translate(3205.125 0)"/>
    </g>
   </g>
   <g id="legend_1">
    <g id="patch_7">
     <path d="M 399.479 125.384625 
L 600.0365 125.384625 
Q 604.4365 125.384625 604.4365 120.984625 
L 604.4365 60.9315 
Q 604.4365 56.5315 600.0365 56.5315 
L 399.479 56.5315 
Q 395.079 56.5315 395.079 60.9315 
L 395.079 120.984625 
Q 395.079 125.384625 399.479 125.384625 
z
" style="fill: #ffffff; opacity: 0.8; stroke: #cccccc; stroke-linejoin: miter"/>
    </g>
    <g id="line2d_19">
     <path d="M 403.879 73.0315 
L 425.879 73.0315 
L 447.879 73.0315 
" style="fill: none; stroke: #ffa500; stroke-width: 1.5; stroke-linecap: square"/>
    </g>
    <g id="text_12">
     <!-- Training loss -->
     <g transform="translate(465.479 80.7315) scale(0.22 -0.22)">
      <defs>
       <path id="TimesNewRomanPSMT-54" d="M 3703 4238 
L 3750 3244 
L 3631 3244 
Q 3597 3506 3538 3619 
Q 3441 3800 3280 3886 
Q 3119 3972 2856 3972 
L 2259 3972 
L 2259 734 
Q 2259 344 2344 247 
Q 2463 116 2709 116 
L 2856 116 
L 2856 0 
L 1059 0 
L 1059 116 
L 1209 116 
Q 1478 116 1591 278 
Q 1659 378 1659 734 
L 1659 3972 
L 1150 3972 
Q 853 3972 728 3928 
Q 566 3869 450 3700 
Q 334 3531 313 3244 
L 194 3244 
L 244 4238 
L 3703 4238 
z
" transform="scale(0.015625)"/>
       <path id="TimesNewRomanPSMT-69" d="M 928 4444 
Q 1059 4444 1151 4351 
Q 1244 4259 1244 4128 
Q 1244 3997 1151 3903 
Q 1059 3809 928 3809 
Q 797 3809 703 3903 
Q 609 3997 609 4128 
Q 609 4259 701 4351 
Q 794 4444 928 4444 
z
M 1188 2947 
L 1188 647 
Q 1188 378 1227 289 
Q 1266 200 1342 156 
Q 1419 113 1622 113 
L 1622 0 
L 231 0 
L 231 113 
Q 441 113 512 153 
Q 584 194 626 287 
Q 669 381 669 647 
L 669 1750 
Q 669 2216 641 2353 
Q 619 2453 572 2492 
Q 525 2531 444 2531 
Q 356 2531 231 2484 
L 188 2597 
L 1050 2947 
L 1188 2947 
z
" transform="scale(0.015625)"/>
       <path id="TimesNewRomanPSMT-6e" d="M 1034 2341 
Q 1538 2947 1994 2947 
Q 2228 2947 2397 2830 
Q 2566 2713 2666 2444 
Q 2734 2256 2734 1869 
L 2734 647 
Q 2734 375 2778 278 
Q 2813 200 2889 156 
Q 2966 113 3172 113 
L 3172 0 
L 1756 0 
L 1756 113 
L 1816 113 
Q 2016 113 2095 173 
Q 2175 234 2206 353 
Q 2219 400 2219 647 
L 2219 1819 
Q 2219 2209 2117 2386 
Q 2016 2563 1775 2563 
Q 1403 2563 1034 2156 
L 1034 647 
Q 1034 356 1069 288 
Q 1113 197 1189 155 
Q 1266 113 1500 113 
L 1500 0 
L 84 0 
L 84 113 
L 147 113 
Q 366 113 442 223 
Q 519 334 519 647 
L 519 1709 
Q 519 2225 495 2337 
Q 472 2450 423 2490 
Q 375 2531 294 2531 
Q 206 2531 84 2484 
L 38 2597 
L 900 2947 
L 1034 2947 
L 1034 2341 
z
" transform="scale(0.015625)"/>
       <path id="TimesNewRomanPSMT-67" d="M 966 1044 
Q 703 1172 562 1401 
Q 422 1631 422 1909 
Q 422 2334 742 2640 
Q 1063 2947 1563 2947 
Q 1972 2947 2272 2747 
L 2878 2747 
Q 3013 2747 3034 2739 
Q 3056 2731 3066 2713 
Q 3084 2684 3084 2613 
Q 3084 2531 3069 2500 
Q 3059 2484 3036 2475 
Q 3013 2466 2878 2466 
L 2506 2466 
Q 2681 2241 2681 1891 
Q 2681 1491 2375 1206 
Q 2069 922 1553 922 
Q 1341 922 1119 984 
Q 981 866 932 777 
Q 884 688 884 625 
Q 884 572 936 522 
Q 988 472 1138 450 
Q 1225 438 1575 428 
Q 2219 413 2409 384 
Q 2700 344 2873 169 
Q 3047 -6 3047 -263 
Q 3047 -616 2716 -925 
Q 2228 -1381 1444 -1381 
Q 841 -1381 425 -1109 
Q 191 -953 191 -784 
Q 191 -709 225 -634 
Q 278 -519 444 -313 
Q 466 -284 763 25 
Q 600 122 533 198 
Q 466 275 466 372 
Q 466 481 555 628 
Q 644 775 966 1044 
z
M 1509 2797 
Q 1278 2797 1122 2612 
Q 966 2428 966 2047 
Q 966 1553 1178 1281 
Q 1341 1075 1591 1075 
Q 1828 1075 1981 1253 
Q 2134 1431 2134 1813 
Q 2134 2309 1919 2591 
Q 1759 2797 1509 2797 
z
M 934 0 
Q 788 -159 713 -296 
Q 638 -434 638 -550 
Q 638 -700 819 -813 
Q 1131 -1006 1722 -1006 
Q 2284 -1006 2551 -807 
Q 2819 -609 2819 -384 
Q 2819 -222 2659 -153 
Q 2497 -84 2016 -72 
Q 1313 -53 934 0 
z
" transform="scale(0.015625)"/>
      </defs>
      <use xlink:href="#TimesNewRomanPSMT-54"/>
      <use xlink:href="#TimesNewRomanPSMT-72" transform="translate(57.583984 0)"/>
      <use xlink:href="#TimesNewRomanPSMT-61" transform="translate(90.884766 0)"/>
      <use xlink:href="#TimesNewRomanPSMT-69" transform="translate(135.269531 0)"/>
      <use xlink:href="#TimesNewRomanPSMT-6e" transform="translate(163.052734 0)"/>
      <use xlink:href="#TimesNewRomanPSMT-69" transform="translate(213.052734 0)"/>
      <use xlink:href="#TimesNewRomanPSMT-6e" transform="translate(240.835938 0)"/>
      <use xlink:href="#TimesNewRomanPSMT-67" transform="translate(290.835938 0)"/>
      <use xlink:href="#TimesNewRomanPSMT-20" transform="translate(340.835938 0)"/>
      <use xlink:href="#TimesNewRomanPSMT-6c" transform="translate(365.835938 0)"/>
      <use xlink:href="#TimesNewRomanPSMT-6f" transform="translate(393.619141 0)"/>
      <use xlink:href="#TimesNewRomanPSMT-73" transform="translate(443.619141 0)"/>
      <use xlink:href="#TimesNewRomanPSMT-73" transform="translate(482.535156 0)"/>
     </g>
    </g>
    <g id="line2d_20">
     <path d="M 403.879 104.178687 
L 425.879 104.178687 
L 447.879 104.178687 
" style="fill: none; stroke: #008000; stroke-width: 1.5; stroke-linecap: square"/>
    </g>
    <g id="text_13">
     <!-- Validation loss -->
     <g transform="translate(465.479 111.878687) scale(0.22 -0.22)">
      <defs>
       <path id="TimesNewRomanPSMT-56" d="M 4544 4238 
L 4544 4122 
Q 4319 4081 4203 3978 
Q 4038 3825 3909 3509 
L 2431 -97 
L 2316 -97 
L 728 3556 
Q 606 3838 556 3900 
Q 478 3997 364 4051 
Q 250 4106 56 4122 
L 56 4238 
L 1788 4238 
L 1788 4122 
Q 1494 4094 1406 4022 
Q 1319 3950 1319 3838 
Q 1319 3681 1463 3350 
L 2541 866 
L 3541 3319 
Q 3688 3681 3688 3822 
Q 3688 3913 3597 3995 
Q 3506 4078 3291 4113 
Q 3275 4116 3238 4122 
L 3238 4238 
L 4544 4238 
z
" transform="scale(0.015625)"/>
      </defs>
      <use xlink:href="#TimesNewRomanPSMT-56"/>
      <use xlink:href="#TimesNewRomanPSMT-61" transform="translate(61.091797 0)"/>
      <use xlink:href="#TimesNewRomanPSMT-6c" transform="translate(105.476562 0)"/>
      <use xlink:href="#TimesNewRomanPSMT-69" transform="translate(133.259766 0)"/>
      <use xlink:href="#TimesNewRomanPSMT-64" transform="translate(161.042969 0)"/>
      <use xlink:href="#TimesNewRomanPSMT-61" transform="translate(211.042969 0)"/>
      <use xlink:href="#TimesNewRomanPSMT-74" transform="translate(255.427734 0)"/>
      <use xlink:href="#TimesNewRomanPSMT-69" transform="translate(283.210938 0)"/>
      <use xlink:href="#TimesNewRomanPSMT-6f" transform="translate(310.994141 0)"/>
      <use xlink:href="#TimesNewRomanPSMT-6e" transform="translate(360.994141 0)"/>
      <use xlink:href="#TimesNewRomanPSMT-20" transform="translate(410.994141 0)"/>
      <use xlink:href="#TimesNewRomanPSMT-6c" transform="translate(435.994141 0)"/>
      <use xlink:href="#TimesNewRomanPSMT-6f" transform="translate(463.777344 0)"/>
      <use xlink:href="#TimesNewRomanPSMT-73" transform="translate(513.777344 0)"/>
      <use xlink:href="#TimesNewRomanPSMT-73" transform="translate(552.693359 0)"/>
     </g>
    </g>
   </g>
  </g>
 </g>
 <defs>
  <clipPath id="p0ee4f89ff6">
   <rect x="258.3165" y="45.5315" width="357.12" height="266.112"/>
  </clipPath>
 </defs>
</svg>
