<?xml version="1.0" encoding="utf-8" standalone="no"?>
<!DOCTYPE svg PUBLIC "-//W3C//DTD SVG 1.1//EN"
  "http://www.w3.org/Graphics/SVG/1.1/DTD/svg11.dtd">
<svg xmlns:xlink="http://www.w3.org/1999/xlink" width="1087.758pt" height="383.265687pt" viewBox="0 0 1087.758 383.265687" xmlns="http://www.w3.org/2000/svg" version="1.1">
 <metadata>
  <rdf:RDF xmlns:dc="http://purl.org/dc/elements/1.1/" xmlns:cc="http://creativecommons.org/ns#" xmlns:rdf="http://www.w3.org/1999/02/22-rdf-syntax-ns#">
   <cc:Work>
    <dc:type rdf:resource="http://purl.org/dc/dcmitype/StillImage"/>
    <dc:date>2025-07-10T23:33:03.296520</dc:date>
    <dc:format>image/svg+xml</dc:format>
    <dc:creator>
     <cc:Agent>
      <dc:title>Matplotlib v3.10.1, https://matplotlib.org/</dc:title>
     </cc:Agent>
    </dc:creator>
   </cc:Work>
  </rdf:RDF>
 </metadata>
 <defs>
  <style type="text/css">*{stroke-linejoin: round; stroke-linecap: butt}</style>
 </defs>
 <g id="figure_1">
  <g id="patch_1">
   <path d="M -0 383.265687 
L 1087.758 383.265687 
L 1087.758 0 
L -0 0 
z
" style="fill: #ffffff"/>
  </g>
  <g id="axes_1">
   <g id="patch_2">
    <path d="M 365.319 311.6435 
L 722.439 311.6435 
L 722.439 45.5315 
L 365.319 45.5315 
z
" style="fill: #ffffff"/>
   </g>
   <g id="matplotlib.axis_1">
    <g id="xtick_1">
     <g id="line2d_1">
      <path d="M 365.319 311.6435 
L 365.319 45.5315 
" clip-path="url(#pd2b4690b4e)" style="fill: none; stroke: #b0b0b0; stroke-opacity: 0.3; stroke-width: 0.8; stroke-linecap: square"/>
     </g>
     <g id="line2d_2">
      <defs>
       <path id="m77b06d2bd7" d="M 0 0 
L 0 3.5 
" style="stroke: #000000; stroke-width: 0.8"/>
      </defs>
      <g>
       <use xlink:href="#m77b06d2bd7" x="365.319" y="311.6435" style="stroke: #000000; stroke-width: 0.8"/>
      </g>
     </g>
     <g id="text_1">
      <!-- 0.0 -->
      <g transform="translate(351.569 333.91975) scale(0.22 -0.22)">
       <defs>
        <path id="TimesNewRomanPSMT-30" d="M 231 2094 
Q 231 2819 450 3342 
Q 669 3866 1031 4122 
Q 1313 4325 1613 4325 
Q 2100 4325 2488 3828 
Q 2972 3213 2972 2159 
Q 2972 1422 2759 906 
Q 2547 391 2217 158 
Q 1888 -75 1581 -75 
Q 975 -75 572 641 
Q 231 1244 231 2094 
z
M 844 2016 
Q 844 1141 1059 588 
Q 1238 122 1591 122 
Q 1759 122 1940 273 
Q 2122 425 2216 781 
Q 2359 1319 2359 2297 
Q 2359 3022 2209 3506 
Q 2097 3866 1919 4016 
Q 1791 4119 1609 4119 
Q 1397 4119 1231 3928 
Q 1006 3669 925 3112 
Q 844 2556 844 2016 
z
" transform="scale(0.015625)"/>
        <path id="TimesNewRomanPSMT-2e" d="M 800 606 
Q 947 606 1047 504 
Q 1147 403 1147 259 
Q 1147 116 1045 14 
Q 944 -88 800 -88 
Q 656 -88 554 14 
Q 453 116 453 259 
Q 453 406 554 506 
Q 656 606 800 606 
z
" transform="scale(0.015625)"/>
       </defs>
       <use xlink:href="#TimesNewRomanPSMT-30"/>
       <use xlink:href="#TimesNewRomanPSMT-2e" transform="translate(50 0)"/>
       <use xlink:href="#TimesNewRomanPSMT-30" transform="translate(75 0)"/>
      </g>
     </g>
    </g>
    <g id="xtick_2">
     <g id="line2d_3">
      <path d="M 475.577824 311.6435 
L 475.577824 45.5315 
" clip-path="url(#pd2b4690b4e)" style="fill: none; stroke: #b0b0b0; stroke-opacity: 0.3; stroke-width: 0.8; stroke-linecap: square"/>
     </g>
     <g id="line2d_4">
      <g>
       <use xlink:href="#m77b06d2bd7" x="475.577824" y="311.6435" style="stroke: #000000; stroke-width: 0.8"/>
      </g>
     </g>
     <g id="text_2">
      <!-- 0.5 -->
      <g transform="translate(461.827824 333.91975) scale(0.22 -0.22)">
       <defs>
        <path id="TimesNewRomanPSMT-35" d="M 2778 4238 
L 2534 3706 
L 1259 3706 
L 981 3138 
Q 1809 3016 2294 2522 
Q 2709 2097 2709 1522 
Q 2709 1188 2573 903 
Q 2438 619 2231 419 
Q 2025 219 1772 97 
Q 1413 -75 1034 -75 
Q 653 -75 479 54 
Q 306 184 306 341 
Q 306 428 378 495 
Q 450 563 559 563 
Q 641 563 702 538 
Q 763 513 909 409 
Q 1144 247 1384 247 
Q 1750 247 2026 523 
Q 2303 800 2303 1197 
Q 2303 1581 2056 1914 
Q 1809 2247 1375 2428 
Q 1034 2569 447 2591 
L 1259 4238 
L 2778 4238 
z
" transform="scale(0.015625)"/>
       </defs>
       <use xlink:href="#TimesNewRomanPSMT-30"/>
       <use xlink:href="#TimesNewRomanPSMT-2e" transform="translate(50 0)"/>
       <use xlink:href="#TimesNewRomanPSMT-35" transform="translate(75 0)"/>
      </g>
     </g>
    </g>
    <g id="xtick_3">
     <g id="line2d_5">
      <path d="M 585.836648 311.6435 
L 585.836648 45.5315 
" clip-path="url(#pd2b4690b4e)" style="fill: none; stroke: #b0b0b0; stroke-opacity: 0.3; stroke-width: 0.8; stroke-linecap: square"/>
     </g>
     <g id="line2d_6">
      <g>
       <use xlink:href="#m77b06d2bd7" x="585.836648" y="311.6435" style="stroke: #000000; stroke-width: 0.8"/>
      </g>
     </g>
     <g id="text_3">
      <!-- 1.0 -->
      <g transform="translate(572.086648 333.91975) scale(0.22 -0.22)">
       <defs>
        <path id="TimesNewRomanPSMT-31" d="M 750 3822 
L 1781 4325 
L 1884 4325 
L 1884 747 
Q 1884 391 1914 303 
Q 1944 216 2037 169 
Q 2131 122 2419 116 
L 2419 0 
L 825 0 
L 825 116 
Q 1125 122 1212 167 
Q 1300 213 1334 289 
Q 1369 366 1369 747 
L 1369 3034 
Q 1369 3497 1338 3628 
Q 1316 3728 1258 3775 
Q 1200 3822 1119 3822 
Q 1003 3822 797 3725 
L 750 3822 
z
" transform="scale(0.015625)"/>
       </defs>
       <use xlink:href="#TimesNewRomanPSMT-31"/>
       <use xlink:href="#TimesNewRomanPSMT-2e" transform="translate(50 0)"/>
       <use xlink:href="#TimesNewRomanPSMT-30" transform="translate(75 0)"/>
      </g>
     </g>
    </g>
    <g id="xtick_4">
     <g id="line2d_7">
      <path d="M 696.095472 311.6435 
L 696.095472 45.5315 
" clip-path="url(#pd2b4690b4e)" style="fill: none; stroke: #b0b0b0; stroke-opacity: 0.3; stroke-width: 0.8; stroke-linecap: square"/>
     </g>
     <g id="line2d_8">
      <g>
       <use xlink:href="#m77b06d2bd7" x="696.095472" y="311.6435" style="stroke: #000000; stroke-width: 0.8"/>
      </g>
     </g>
     <g id="text_4">
      <!-- 1.5 -->
      <g transform="translate(682.345472 333.91975) scale(0.22 -0.22)">
       <use xlink:href="#TimesNewRomanPSMT-31"/>
       <use xlink:href="#TimesNewRomanPSMT-2e" transform="translate(50 0)"/>
       <use xlink:href="#TimesNewRomanPSMT-35" transform="translate(75 0)"/>
      </g>
     </g>
    </g>
    <g id="text_5">
     <!-- $\kappa  = \frac{ln(n)}{ln(d)}$ -->
     <g transform="translate(511.869 364.185687) scale(0.22 -0.22)">
      <defs>
       <path id="STIXGeneral-Italic-3ba" d="M 979 1440 
L 998 1446 
Q 1850 2541 2464 2790 
Q 2547 2822 2630 2822 
Q 2797 2822 2886 2736 
Q 2976 2650 2976 2522 
Q 2976 2387 2893 2307 
Q 2810 2227 2682 2227 
Q 2605 2227 2502 2288 
Q 2400 2349 2336 2349 
Q 2170 2349 1990 2205 
Q 1811 2061 1414 1645 
L 2042 544 
Q 2202 262 2310 182 
Q 2419 102 2624 102 
L 2624 0 
Q 2374 -83 2182 -83 
Q 1786 -83 1555 326 
L 960 1350 
L 576 0 
L 90 0 
L 640 1978 
Q 730 2317 730 2406 
Q 730 2560 518 2560 
L 339 2560 
L 339 2650 
Q 678 2694 1306 2822 
L 1325 2803 
L 979 1440 
z
" transform="scale(0.015625)"/>
       <path id="STIXGeneral-Regular-3d" d="M 4077 2048 
L 307 2048 
L 307 2470 
L 4077 2470 
L 4077 2048 
z
M 4077 768 
L 307 768 
L 307 1190 
L 4077 1190 
L 4077 768 
z
" transform="scale(0.015625)"/>
       <path id="STIXGeneral-Italic-6c" d="M 1786 4339 
L 806 595 
Q 755 410 755 320 
Q 755 205 864 205 
Q 1037 205 1293 570 
L 1453 794 
L 1542 730 
Q 1254 275 1046 102 
Q 838 -70 576 -70 
Q 262 -70 262 288 
Q 262 397 288 480 
L 1165 3834 
Q 1184 3898 1184 3955 
Q 1184 4096 870 4096 
L 755 4096 
L 755 4198 
Q 1203 4250 1747 4371 
L 1786 4339 
z
" transform="scale(0.015625)"/>
       <path id="STIXGeneral-Italic-6e" d="M 2944 749 
L 3034 666 
Q 2707 218 2534 80 
Q 2362 -58 2138 -58 
Q 2010 -58 1923 28 
Q 1837 115 1837 288 
Q 1837 390 1939 768 
L 2221 1805 
Q 2310 2150 2310 2310 
Q 2310 2496 2157 2496 
Q 1971 2496 1750 2275 
Q 1530 2054 1210 1587 
Q 998 1274 899 1024 
Q 800 774 570 0 
L 90 0 
L 704 2240 
Q 717 2304 717 2349 
Q 717 2445 630 2480 
Q 544 2515 301 2522 
L 301 2624 
Q 550 2675 857 2729 
Q 1165 2784 1338 2822 
L 1363 2810 
L 934 1414 
Q 1408 2170 1753 2496 
Q 2099 2822 2413 2822 
Q 2611 2822 2720 2716 
Q 2829 2611 2829 2432 
Q 2829 2272 2765 2048 
L 2406 749 
Q 2317 429 2317 358 
Q 2317 243 2419 243 
Q 2541 243 2810 582 
Q 2854 634 2944 749 
z
" transform="scale(0.015625)"/>
       <path id="STIXGeneral-Regular-28" d="M 1946 -1030 
L 1869 -1133 
Q 1126 -710 716 32 
Q 307 774 307 1613 
Q 307 3386 1888 4326 
L 1946 4224 
Q 1293 3667 1075 3126 
Q 858 2586 858 1632 
Q 858 685 1082 96 
Q 1306 -493 1946 -1030 
z
" transform="scale(0.015625)"/>
       <path id="STIXGeneral-Regular-29" d="M 186 4224 
L 262 4326 
Q 992 3891 1408 3148 
Q 1824 2406 1824 1581 
Q 1824 -166 243 -1133 
L 186 -1030 
Q 845 -486 1059 54 
Q 1274 595 1274 1562 
Q 1274 2534 1059 3120 
Q 845 3706 186 4224 
z
" transform="scale(0.015625)"/>
       <path id="STIXGeneral-Italic-64" d="M 3334 4371 
L 3373 4333 
L 3123 3360 
L 2739 1958 
Q 2323 429 2323 384 
Q 2323 256 2438 256 
Q 2522 256 2614 336 
Q 2707 416 2963 710 
L 3040 646 
Q 2547 -83 2099 -83 
Q 1978 -83 1907 -6 
Q 1837 70 1837 205 
Q 1837 397 1920 774 
Q 1645 307 1379 118 
Q 1114 -70 781 -70 
Q 461 -70 278 125 
Q 96 320 96 678 
Q 96 1440 713 2131 
Q 1331 2822 1965 2822 
Q 2163 2822 2256 2732 
Q 2349 2643 2381 2451 
L 2387 2451 
L 2675 3494 
Q 2765 3808 2765 3949 
Q 2765 4051 2694 4076 
Q 2624 4102 2355 4115 
L 2355 4224 
Q 2848 4269 3334 4371 
z
M 2278 2310 
Q 2278 2477 2185 2576 
Q 2093 2675 1978 2675 
Q 1677 2675 1395 2381 
Q 1075 2042 864 1571 
Q 653 1101 653 704 
Q 653 486 752 361 
Q 851 237 1024 237 
Q 1312 237 1606 550 
Q 1901 864 2089 1350 
Q 2278 1837 2278 2310 
z
" transform="scale(0.015625)"/>
      </defs>
      <use xlink:href="#STIXGeneral-Italic-3ba" transform="translate(0 0.003125)"/>
      <use xlink:href="#STIXGeneral-Regular-3d" transform="translate(58.83999 0.003125)"/>
      <use xlink:href="#STIXGeneral-Italic-6c" transform="translate(141.779971 50.192188) scale(0.7)"/>
      <use xlink:href="#STIXGeneral-Italic-6e" transform="translate(161.239963 50.192188) scale(0.7)"/>
      <use xlink:href="#STIXGeneral-Regular-28" transform="translate(196.239952 50.192188) scale(0.7)"/>
      <use xlink:href="#STIXGeneral-Italic-6e" transform="translate(219.549944 50.192188) scale(0.7)"/>
      <use xlink:href="#STIXGeneral-Regular-29" transform="translate(254.549933 50.192188) scale(0.7)"/>
      <use xlink:href="#STIXGeneral-Italic-6c" transform="translate(141.779971 -41.257812) scale(0.7)"/>
      <use xlink:href="#STIXGeneral-Italic-6e" transform="translate(161.239963 -41.257812) scale(0.7)"/>
      <use xlink:href="#STIXGeneral-Regular-28" transform="translate(196.239952 -41.257812) scale(0.7)"/>
      <use xlink:href="#STIXGeneral-Italic-64" transform="translate(219.549944 -41.257812) scale(0.7)"/>
      <use xlink:href="#STIXGeneral-Regular-29" transform="translate(254.549933 -41.257812) scale(0.7)"/>
      <path d="M 141.779971 12.8 
L 141.779971 19.05 
L 277.859924 19.05 
L 277.859924 12.8 
L 141.779971 12.8 
z
"/>
     </g>
    </g>
   </g>
   <g id="matplotlib.axis_2">
    <g id="ytick_1">
     <g id="line2d_9">
      <path d="M 365.319 311.6435 
L 722.439 311.6435 
" clip-path="url(#pd2b4690b4e)" style="fill: none; stroke: #b0b0b0; stroke-opacity: 0.3; stroke-width: 0.8; stroke-linecap: square"/>
     </g>
     <g id="line2d_10">
      <defs>
       <path id="m6e0418ab07" d="M 0 0 
L -3.5 0 
" style="stroke: #000000; stroke-width: 0.8"/>
      </defs>
      <g>
       <use xlink:href="#m6e0418ab07" x="365.319" y="311.6435" style="stroke: #000000; stroke-width: 0.8"/>
      </g>
     </g>
     <g id="text_6">
      <!-- 0.0 -->
      <g transform="translate(330.819 319.281625) scale(0.22 -0.22)">
       <use xlink:href="#TimesNewRomanPSMT-30"/>
       <use xlink:href="#TimesNewRomanPSMT-2e" transform="translate(50 0)"/>
       <use xlink:href="#TimesNewRomanPSMT-30" transform="translate(75 0)"/>
      </g>
     </g>
    </g>
    <g id="ytick_2">
     <g id="line2d_11">
      <path d="M 365.319 285.0323 
L 722.439 285.0323 
" clip-path="url(#pd2b4690b4e)" style="fill: none; stroke: #b0b0b0; stroke-opacity: 0.3; stroke-width: 0.8; stroke-linecap: square"/>
     </g>
     <g id="line2d_12">
      <g>
       <use xlink:href="#m6e0418ab07" x="365.319" y="285.0323" style="stroke: #000000; stroke-width: 0.8"/>
      </g>
     </g>
     <g id="text_7">
      <!-- 0.1 -->
      <g transform="translate(330.819 292.670425) scale(0.22 -0.22)">
       <use xlink:href="#TimesNewRomanPSMT-30"/>
       <use xlink:href="#TimesNewRomanPSMT-2e" transform="translate(50 0)"/>
       <use xlink:href="#TimesNewRomanPSMT-31" transform="translate(75 0)"/>
      </g>
     </g>
    </g>
    <g id="ytick_3">
     <g id="line2d_13">
      <path d="M 365.319 258.4211 
L 722.439 258.4211 
" clip-path="url(#pd2b4690b4e)" style="fill: none; stroke: #b0b0b0; stroke-opacity: 0.3; stroke-width: 0.8; stroke-linecap: square"/>
     </g>
     <g id="line2d_14">
      <g>
       <use xlink:href="#m6e0418ab07" x="365.319" y="258.4211" style="stroke: #000000; stroke-width: 0.8"/>
      </g>
     </g>
     <g id="text_8">
      <!-- 0.2 -->
      <g transform="translate(330.819 266.059225) scale(0.22 -0.22)">
       <defs>
        <path id="TimesNewRomanPSMT-32" d="M 2934 816 
L 2638 0 
L 138 0 
L 138 116 
Q 1241 1122 1691 1759 
Q 2141 2397 2141 2925 
Q 2141 3328 1894 3587 
Q 1647 3847 1303 3847 
Q 991 3847 742 3664 
Q 494 3481 375 3128 
L 259 3128 
Q 338 3706 661 4015 
Q 984 4325 1469 4325 
Q 1984 4325 2329 3994 
Q 2675 3663 2675 3213 
Q 2675 2891 2525 2569 
Q 2294 2063 1775 1497 
Q 997 647 803 472 
L 1909 472 
Q 2247 472 2383 497 
Q 2519 522 2628 598 
Q 2738 675 2819 816 
L 2934 816 
z
" transform="scale(0.015625)"/>
       </defs>
       <use xlink:href="#TimesNewRomanPSMT-30"/>
       <use xlink:href="#TimesNewRomanPSMT-2e" transform="translate(50 0)"/>
       <use xlink:href="#TimesNewRomanPSMT-32" transform="translate(75 0)"/>
      </g>
     </g>
    </g>
    <g id="ytick_4">
     <g id="line2d_15">
      <path d="M 365.319 231.8099 
L 722.439 231.8099 
" clip-path="url(#pd2b4690b4e)" style="fill: none; stroke: #b0b0b0; stroke-opacity: 0.3; stroke-width: 0.8; stroke-linecap: square"/>
     </g>
     <g id="line2d_16">
      <g>
       <use xlink:href="#m6e0418ab07" x="365.319" y="231.8099" style="stroke: #000000; stroke-width: 0.8"/>
      </g>
     </g>
     <g id="text_9">
      <!-- 0.3 -->
      <g transform="translate(330.819 239.448025) scale(0.22 -0.22)">
       <defs>
        <path id="TimesNewRomanPSMT-33" d="M 325 3431 
Q 506 3859 782 4092 
Q 1059 4325 1472 4325 
Q 1981 4325 2253 3994 
Q 2459 3747 2459 3466 
Q 2459 3003 1878 2509 
Q 2269 2356 2469 2072 
Q 2669 1788 2669 1403 
Q 2669 853 2319 450 
Q 1863 -75 997 -75 
Q 569 -75 414 31 
Q 259 138 259 259 
Q 259 350 332 419 
Q 406 488 509 488 
Q 588 488 669 463 
Q 722 447 909 348 
Q 1097 250 1169 231 
Q 1284 197 1416 197 
Q 1734 197 1970 444 
Q 2206 691 2206 1028 
Q 2206 1275 2097 1509 
Q 2016 1684 1919 1775 
Q 1784 1900 1550 2001 
Q 1316 2103 1072 2103 
L 972 2103 
L 972 2197 
Q 1219 2228 1467 2375 
Q 1716 2522 1828 2728 
Q 1941 2934 1941 3181 
Q 1941 3503 1739 3701 
Q 1538 3900 1238 3900 
Q 753 3900 428 3381 
L 325 3431 
z
" transform="scale(0.015625)"/>
       </defs>
       <use xlink:href="#TimesNewRomanPSMT-30"/>
       <use xlink:href="#TimesNewRomanPSMT-2e" transform="translate(50 0)"/>
       <use xlink:href="#TimesNewRomanPSMT-33" transform="translate(75 0)"/>
      </g>
     </g>
    </g>
    <g id="ytick_5">
     <g id="line2d_17">
      <path d="M 365.319 205.1987 
L 722.439 205.1987 
" clip-path="url(#pd2b4690b4e)" style="fill: none; stroke: #b0b0b0; stroke-opacity: 0.3; stroke-width: 0.8; stroke-linecap: square"/>
     </g>
     <g id="line2d_18">
      <g>
       <use xlink:href="#m6e0418ab07" x="365.319" y="205.1987" style="stroke: #000000; stroke-width: 0.8"/>
      </g>
     </g>
     <g id="text_10">
      <!-- 0.4 -->
      <g transform="translate(330.819 212.836825) scale(0.22 -0.22)">
       <defs>
        <path id="TimesNewRomanPSMT-34" d="M 2978 1563 
L 2978 1119 
L 2409 1119 
L 2409 0 
L 1894 0 
L 1894 1119 
L 100 1119 
L 100 1519 
L 2066 4325 
L 2409 4325 
L 2409 1563 
L 2978 1563 
z
M 1894 1563 
L 1894 3666 
L 406 1563 
L 1894 1563 
z
" transform="scale(0.015625)"/>
       </defs>
       <use xlink:href="#TimesNewRomanPSMT-30"/>
       <use xlink:href="#TimesNewRomanPSMT-2e" transform="translate(50 0)"/>
       <use xlink:href="#TimesNewRomanPSMT-34" transform="translate(75 0)"/>
      </g>
     </g>
    </g>
    <g id="ytick_6">
     <g id="line2d_19">
      <path d="M 365.319 178.5875 
L 722.439 178.5875 
" clip-path="url(#pd2b4690b4e)" style="fill: none; stroke: #b0b0b0; stroke-opacity: 0.3; stroke-width: 0.8; stroke-linecap: square"/>
     </g>
     <g id="line2d_20">
      <g>
       <use xlink:href="#m6e0418ab07" x="365.319" y="178.5875" style="stroke: #000000; stroke-width: 0.8"/>
      </g>
     </g>
     <g id="text_11">
      <!-- 0.5 -->
      <g transform="translate(330.819 186.225625) scale(0.22 -0.22)">
       <use xlink:href="#TimesNewRomanPSMT-30"/>
       <use xlink:href="#TimesNewRomanPSMT-2e" transform="translate(50 0)"/>
       <use xlink:href="#TimesNewRomanPSMT-35" transform="translate(75 0)"/>
      </g>
     </g>
    </g>
    <g id="ytick_7">
     <g id="line2d_21">
      <path d="M 365.319 151.9763 
L 722.439 151.9763 
" clip-path="url(#pd2b4690b4e)" style="fill: none; stroke: #b0b0b0; stroke-opacity: 0.3; stroke-width: 0.8; stroke-linecap: square"/>
     </g>
     <g id="line2d_22">
      <g>
       <use xlink:href="#m6e0418ab07" x="365.319" y="151.9763" style="stroke: #000000; stroke-width: 0.8"/>
      </g>
     </g>
     <g id="text_12">
      <!-- 0.6 -->
      <g transform="translate(330.819 159.614425) scale(0.22 -0.22)">
       <defs>
        <path id="TimesNewRomanPSMT-36" d="M 2869 4325 
L 2869 4209 
Q 2456 4169 2195 4045 
Q 1934 3922 1679 3669 
Q 1425 3416 1258 3105 
Q 1091 2794 978 2366 
Q 1428 2675 1881 2675 
Q 2316 2675 2634 2325 
Q 2953 1975 2953 1425 
Q 2953 894 2631 456 
Q 2244 -75 1606 -75 
Q 1172 -75 869 213 
Q 275 772 275 1663 
Q 275 2231 503 2743 
Q 731 3256 1154 3653 
Q 1578 4050 1965 4187 
Q 2353 4325 2688 4325 
L 2869 4325 
z
M 925 2138 
Q 869 1716 869 1456 
Q 869 1156 980 804 
Q 1091 453 1309 247 
Q 1469 100 1697 100 
Q 1969 100 2183 356 
Q 2397 613 2397 1088 
Q 2397 1622 2184 2012 
Q 1972 2403 1581 2403 
Q 1463 2403 1327 2353 
Q 1191 2303 925 2138 
z
" transform="scale(0.015625)"/>
       </defs>
       <use xlink:href="#TimesNewRomanPSMT-30"/>
       <use xlink:href="#TimesNewRomanPSMT-2e" transform="translate(50 0)"/>
       <use xlink:href="#TimesNewRomanPSMT-36" transform="translate(75 0)"/>
      </g>
     </g>
    </g>
    <g id="ytick_8">
     <g id="line2d_23">
      <path d="M 365.319 125.3651 
L 722.439 125.3651 
" clip-path="url(#pd2b4690b4e)" style="fill: none; stroke: #b0b0b0; stroke-opacity: 0.3; stroke-width: 0.8; stroke-linecap: square"/>
     </g>
     <g id="line2d_24">
      <g>
       <use xlink:href="#m6e0418ab07" x="365.319" y="125.3651" style="stroke: #000000; stroke-width: 0.8"/>
      </g>
     </g>
     <g id="text_13">
      <!-- 0.7 -->
      <g transform="translate(330.819 133.003225) scale(0.22 -0.22)">
       <defs>
        <path id="TimesNewRomanPSMT-37" d="M 644 4238 
L 2916 4238 
L 2916 4119 
L 1503 -88 
L 1153 -88 
L 2419 3728 
L 1253 3728 
Q 900 3728 750 3644 
Q 488 3500 328 3200 
L 238 3234 
L 644 4238 
z
" transform="scale(0.015625)"/>
       </defs>
       <use xlink:href="#TimesNewRomanPSMT-30"/>
       <use xlink:href="#TimesNewRomanPSMT-2e" transform="translate(50 0)"/>
       <use xlink:href="#TimesNewRomanPSMT-37" transform="translate(75 0)"/>
      </g>
     </g>
    </g>
    <g id="ytick_9">
     <g id="line2d_25">
      <path d="M 365.319 98.7539 
L 722.439 98.7539 
" clip-path="url(#pd2b4690b4e)" style="fill: none; stroke: #b0b0b0; stroke-opacity: 0.3; stroke-width: 0.8; stroke-linecap: square"/>
     </g>
     <g id="line2d_26">
      <g>
       <use xlink:href="#m6e0418ab07" x="365.319" y="98.7539" style="stroke: #000000; stroke-width: 0.8"/>
      </g>
     </g>
     <g id="text_14">
      <!-- 0.8 -->
      <g transform="translate(330.819 106.392025) scale(0.22 -0.22)">
       <defs>
        <path id="TimesNewRomanPSMT-38" d="M 1228 2134 
Q 725 2547 579 2797 
Q 434 3047 434 3316 
Q 434 3728 753 4026 
Q 1072 4325 1600 4325 
Q 2113 4325 2425 4047 
Q 2738 3769 2738 3413 
Q 2738 3175 2569 2928 
Q 2400 2681 1866 2347 
Q 2416 1922 2594 1678 
Q 2831 1359 2831 1006 
Q 2831 559 2490 242 
Q 2150 -75 1597 -75 
Q 994 -75 656 303 
Q 388 606 388 966 
Q 388 1247 577 1523 
Q 766 1800 1228 2134 
z
M 1719 2469 
Q 2094 2806 2194 3001 
Q 2294 3197 2294 3444 
Q 2294 3772 2109 3958 
Q 1925 4144 1606 4144 
Q 1288 4144 1088 3959 
Q 888 3775 888 3528 
Q 888 3366 970 3203 
Q 1053 3041 1206 2894 
L 1719 2469 
z
M 1375 2016 
Q 1116 1797 991 1539 
Q 866 1281 866 981 
Q 866 578 1086 336 
Q 1306 94 1647 94 
Q 1984 94 2187 284 
Q 2391 475 2391 747 
Q 2391 972 2272 1150 
Q 2050 1481 1375 2016 
z
" transform="scale(0.015625)"/>
       </defs>
       <use xlink:href="#TimesNewRomanPSMT-30"/>
       <use xlink:href="#TimesNewRomanPSMT-2e" transform="translate(50 0)"/>
       <use xlink:href="#TimesNewRomanPSMT-38" transform="translate(75 0)"/>
      </g>
     </g>
    </g>
    <g id="ytick_10">
     <g id="line2d_27">
      <path d="M 365.319 72.1427 
L 722.439 72.1427 
" clip-path="url(#pd2b4690b4e)" style="fill: none; stroke: #b0b0b0; stroke-opacity: 0.3; stroke-width: 0.8; stroke-linecap: square"/>
     </g>
     <g id="line2d_28">
      <g>
       <use xlink:href="#m6e0418ab07" x="365.319" y="72.1427" style="stroke: #000000; stroke-width: 0.8"/>
      </g>
     </g>
     <g id="text_15">
      <!-- 0.9 -->
      <g transform="translate(330.819 79.780825) scale(0.22 -0.22)">
       <defs>
        <path id="TimesNewRomanPSMT-39" d="M 338 -88 
L 338 28 
Q 744 34 1094 217 
Q 1444 400 1770 856 
Q 2097 1313 2225 1859 
Q 1734 1544 1338 1544 
Q 891 1544 572 1889 
Q 253 2234 253 2806 
Q 253 3363 572 3797 
Q 956 4325 1575 4325 
Q 2097 4325 2469 3894 
Q 2925 3359 2925 2575 
Q 2925 1869 2578 1258 
Q 2231 647 1613 244 
Q 1109 -88 516 -88 
L 338 -88 
z
M 2275 2091 
Q 2331 2497 2331 2741 
Q 2331 3044 2228 3395 
Q 2125 3747 1936 3934 
Q 1747 4122 1506 4122 
Q 1228 4122 1018 3872 
Q 809 3622 809 3128 
Q 809 2469 1088 2097 
Q 1291 1828 1588 1828 
Q 1731 1828 1928 1897 
Q 2125 1966 2275 2091 
z
" transform="scale(0.015625)"/>
       </defs>
       <use xlink:href="#TimesNewRomanPSMT-30"/>
       <use xlink:href="#TimesNewRomanPSMT-2e" transform="translate(50 0)"/>
       <use xlink:href="#TimesNewRomanPSMT-39" transform="translate(75 0)"/>
      </g>
     </g>
    </g>
    <g id="ytick_11">
     <g id="line2d_29">
      <path d="M 365.319 45.5315 
L 722.439 45.5315 
" clip-path="url(#pd2b4690b4e)" style="fill: none; stroke: #b0b0b0; stroke-opacity: 0.3; stroke-width: 0.8; stroke-linecap: square"/>
     </g>
     <g id="line2d_30">
      <g>
       <use xlink:href="#m6e0418ab07" x="365.319" y="45.5315" style="stroke: #000000; stroke-width: 0.8"/>
      </g>
     </g>
     <g id="text_16">
      <!-- 1.0 -->
      <g transform="translate(330.819 53.169625) scale(0.22 -0.22)">
       <use xlink:href="#TimesNewRomanPSMT-31"/>
       <use xlink:href="#TimesNewRomanPSMT-2e" transform="translate(50 0)"/>
       <use xlink:href="#TimesNewRomanPSMT-30" transform="translate(75 0)"/>
      </g>
     </g>
    </g>
    <g id="text_17">
     <!-- Accuracy -->
     <g transform="translate(322.071812 220.726094) rotate(-90) scale(0.22 -0.22)">
      <defs>
       <path id="TimesNewRomanPSMT-41" d="M 2928 1419 
L 1288 1419 
L 1000 750 
Q 894 503 894 381 
Q 894 284 986 211 
Q 1078 138 1384 116 
L 1384 0 
L 50 0 
L 50 116 
Q 316 163 394 238 
Q 553 388 747 847 
L 2238 4334 
L 2347 4334 
L 3822 809 
Q 4000 384 4145 257 
Q 4291 131 4550 116 
L 4550 0 
L 2878 0 
L 2878 116 
Q 3131 128 3220 200 
Q 3309 272 3309 375 
Q 3309 513 3184 809 
L 2928 1419 
z
M 2841 1650 
L 2122 3363 
L 1384 1650 
L 2841 1650 
z
" transform="scale(0.015625)"/>
       <path id="TimesNewRomanPSMT-63" d="M 2631 1088 
Q 2516 522 2178 217 
Q 1841 -88 1431 -88 
Q 944 -88 581 321 
Q 219 731 219 1428 
Q 219 2103 620 2525 
Q 1022 2947 1584 2947 
Q 2006 2947 2278 2723 
Q 2550 2500 2550 2259 
Q 2550 2141 2473 2067 
Q 2397 1994 2259 1994 
Q 2075 1994 1981 2113 
Q 1928 2178 1911 2362 
Q 1894 2547 1784 2644 
Q 1675 2738 1481 2738 
Q 1169 2738 978 2506 
Q 725 2200 725 1697 
Q 725 1184 976 792 
Q 1228 400 1656 400 
Q 1963 400 2206 609 
Q 2378 753 2541 1131 
L 2631 1088 
z
" transform="scale(0.015625)"/>
       <path id="TimesNewRomanPSMT-75" d="M 2709 2863 
L 2709 1128 
Q 2709 631 2732 520 
Q 2756 409 2807 365 
Q 2859 322 2928 322 
Q 3025 322 3147 375 
L 3191 266 
L 2334 -88 
L 2194 -88 
L 2194 519 
Q 1825 119 1631 15 
Q 1438 -88 1222 -88 
Q 981 -88 804 51 
Q 628 191 559 409 
Q 491 628 491 1028 
L 491 2306 
Q 491 2509 447 2587 
Q 403 2666 317 2708 
Q 231 2750 6 2747 
L 6 2863 
L 1009 2863 
L 1009 947 
Q 1009 547 1148 422 
Q 1288 297 1484 297 
Q 1619 297 1789 381 
Q 1959 466 2194 703 
L 2194 2325 
Q 2194 2569 2105 2655 
Q 2016 2741 1734 2747 
L 1734 2863 
L 2709 2863 
z
" transform="scale(0.015625)"/>
       <path id="TimesNewRomanPSMT-72" d="M 1038 2947 
L 1038 2303 
Q 1397 2947 1775 2947 
Q 1947 2947 2059 2842 
Q 2172 2738 2172 2600 
Q 2172 2478 2090 2393 
Q 2009 2309 1897 2309 
Q 1788 2309 1652 2417 
Q 1516 2525 1450 2525 
Q 1394 2525 1328 2463 
Q 1188 2334 1038 2041 
L 1038 669 
Q 1038 431 1097 309 
Q 1138 225 1241 169 
Q 1344 113 1538 113 
L 1538 0 
L 72 0 
L 72 113 
Q 291 113 397 181 
Q 475 231 506 341 
Q 522 394 522 644 
L 522 1753 
Q 522 2253 501 2348 
Q 481 2444 426 2487 
Q 372 2531 291 2531 
Q 194 2531 72 2484 
L 41 2597 
L 906 2947 
L 1038 2947 
z
" transform="scale(0.015625)"/>
       <path id="TimesNewRomanPSMT-61" d="M 1822 413 
Q 1381 72 1269 19 
Q 1100 -59 909 -59 
Q 613 -59 420 144 
Q 228 347 228 678 
Q 228 888 322 1041 
Q 450 1253 767 1440 
Q 1084 1628 1822 1897 
L 1822 2009 
Q 1822 2438 1686 2597 
Q 1550 2756 1291 2756 
Q 1094 2756 978 2650 
Q 859 2544 859 2406 
L 866 2225 
Q 866 2081 792 2003 
Q 719 1925 600 1925 
Q 484 1925 411 2006 
Q 338 2088 338 2228 
Q 338 2497 613 2722 
Q 888 2947 1384 2947 
Q 1766 2947 2009 2819 
Q 2194 2722 2281 2516 
Q 2338 2381 2338 1966 
L 2338 994 
Q 2338 584 2353 492 
Q 2369 400 2405 369 
Q 2441 338 2488 338 
Q 2538 338 2575 359 
Q 2641 400 2828 588 
L 2828 413 
Q 2478 -56 2159 -56 
Q 2006 -56 1915 50 
Q 1825 156 1822 413 
z
M 1822 616 
L 1822 1706 
Q 1350 1519 1213 1441 
Q 966 1303 859 1153 
Q 753 1003 753 825 
Q 753 600 887 451 
Q 1022 303 1197 303 
Q 1434 303 1822 616 
z
" transform="scale(0.015625)"/>
       <path id="TimesNewRomanPSMT-79" d="M 38 2863 
L 1372 2863 
L 1372 2747 
L 1306 2747 
Q 1166 2747 1095 2686 
Q 1025 2625 1025 2534 
Q 1025 2413 1128 2197 
L 1825 753 
L 2466 2334 
Q 2519 2463 2519 2588 
Q 2519 2644 2497 2672 
Q 2472 2706 2419 2726 
Q 2366 2747 2231 2747 
L 2231 2863 
L 3163 2863 
L 3163 2747 
Q 3047 2734 2984 2696 
Q 2922 2659 2847 2556 
Q 2819 2513 2741 2316 
L 1575 -541 
Q 1406 -956 1132 -1168 
Q 859 -1381 606 -1381 
Q 422 -1381 303 -1275 
Q 184 -1169 184 -1031 
Q 184 -900 270 -820 
Q 356 -741 506 -741 
Q 609 -741 788 -809 
Q 913 -856 944 -856 
Q 1038 -856 1148 -759 
Q 1259 -663 1372 -384 
L 1575 113 
L 547 2272 
Q 500 2369 397 2513 
Q 319 2622 269 2659 
Q 197 2709 38 2747 
L 38 2863 
z
" transform="scale(0.015625)"/>
      </defs>
      <use xlink:href="#TimesNewRomanPSMT-41"/>
      <use xlink:href="#TimesNewRomanPSMT-63" transform="translate(72.216797 0)"/>
      <use xlink:href="#TimesNewRomanPSMT-63" transform="translate(116.601562 0)"/>
      <use xlink:href="#TimesNewRomanPSMT-75" transform="translate(160.986328 0)"/>
      <use xlink:href="#TimesNewRomanPSMT-72" transform="translate(210.986328 0)"/>
      <use xlink:href="#TimesNewRomanPSMT-61" transform="translate(244.287109 0)"/>
      <use xlink:href="#TimesNewRomanPSMT-63" transform="translate(288.671875 0)"/>
      <use xlink:href="#TimesNewRomanPSMT-79" transform="translate(333.056641 0)"/>
     </g>
    </g>
   </g>
   <g id="line2d_31">
    <path d="M 365.319 178.986663 
L 441.609429 169.140511 
L 462.181391 143.460708 
L 474.571877 135.078185 
L 483.466615 131.884835 
L 490.410148 128.159267 
L 496.106397 126.429537 
L 500.935959 125.232041 
L 505.128071 125.631196 
L 508.831552 123.76842 
L 512.148514 122.970078 
L 515.152065 122.837032 
L 517.896352 121.240349 
L 520.4226 120.175915 
L 526.982871 118.712294 
L 528.899956 117.913952 
L 530.708056 117.647843 
L 532.418898 117.514781 
L 534.042413 117.780906 
L 535.587085 118.579231 
L 537.060218 116.982564 
L 538.468147 116.716456 
L 539.816399 119.244511 
L 541.109829 117.913952 
L 542.352721 117.514781 
L 543.548876 116.450331 
L 544.701683 115.785052 
L 545.814174 116.982564 
L 546.889073 117.115626 
L 547.928838 117.780906 
L 548.935694 115.652005 
L 549.911659 115.918114 
L 550.858574 115.119772 
L 551.778117 115.918114 
L 552.671827 116.184223 
L 553.541116 114.587555 
L 554.387282 115.785052 
L 555.211525 114.720617 
L 556.014951 115.652005 
L 556.798586 115.119772 
L 557.563382 114.454493 
L 558.310224 115.252835 
L 559.039934 114.454493 
L 559.753282 114.454493 
L 560.450985 115.119772 
L 561.133714 114.986726 
L 561.8021 114.321447 
L 562.456732 114.454493 
L 563.098164 114.986726 
L 563.72692 114.188384 
L 564.343489 114.720617 
L 564.948336 114.853664 
L 566.124587 113.390043 
L 566.696796 114.853664 
L 567.258896 113.656167 
L 567.811235 113.390043 
L 568.354149 113.256997 
L 569.412948 114.454493 
L 569.92942 113.123934 
L 570.437642 113.656167 
L 570.937872 113.656167 
L 571.430358 112.724764 
L 571.915337 113.256997 
L 572.393033 112.458655 
L 572.863663 112.192546 
L 573.327431 113.390043 
L 573.784537 112.458655 
L 574.235167 113.922276 
L 574.679504 112.591717 
L 575.549981 112.591717 
L 575.976449 111.926438 
L 576.397275 112.591717 
L 576.812607 113.523105 
L 577.222586 112.724764 
L 577.62735 112.591717 
L 578.027028 112.724764 
L 578.421747 112.591717 
L 578.811629 112.325609 
L 579.196791 112.857826 
L 579.577346 112.059484 
L 579.953402 112.857826 
L 580.325065 112.325609 
L 580.692436 112.724764 
L 581.055613 112.724764 
L 581.414691 112.591717 
L 581.769761 112.724764 
L 582.120912 112.059484 
L 582.46823 112.059484 
L 582.811797 112.192546 
L 583.151693 112.059484 
L 583.487996 112.325609 
L 584.798747 111.394205 
L 585.118167 111.261158 
L 585.434412 111.926438 
L 585.747544 111.527267 
L 586.057624 111.527267 
L 586.364711 111.394205 
L 586.970134 111.926438 
L 587.268578 111.926438 
L 587.564249 111.261158 
L 587.857198 111.128096 
L 588.147473 110.728925 
L 588.435124 111.128096 
L 588.720198 111.261158 
L 589.002739 111.926438 
L 589.560404 110.462817 
L 589.835613 111.527267 
L 590.108462 110.861988 
L 590.378991 111.261158 
L 590.647238 111.128096 
L 590.913243 110.861988 
L 591.177042 110.861988 
L 591.438672 110.728925 
L 591.698167 110.462817 
L 591.955563 109.664475 
L 592.210893 110.462817 
L 592.964814 109.797537 
L 593.212203 109.132258 
L 593.457682 109.26532 
L 593.701282 109.26532 
L 593.943031 109.664475 
L 594.182956 110.329755 
L 594.421086 109.26532 
L 594.657446 109.132258 
L 594.892064 109.531429 
L 595.124964 108.86615 
L 595.356171 108.86615 
L 595.58571 108.999196 
L 596.039878 109.797537 
L 596.264554 109.797537 
L 596.487655 108.733087 
L 596.709201 108.999196 
L 596.929216 108.600041 
L 597.147719 108.86615 
L 597.364732 108.86615 
L 597.580275 108.600041 
L 597.794367 109.132258 
L 598.007028 109.26532 
L 598.218277 109.132258 
L 598.428133 108.333917 
L 598.636613 108.733087 
L 598.843736 108.466979 
L 599.25398 109.398367 
L 599.457135 107.934762 
L 599.659001 108.86615 
L 599.859594 108.333917 
L 600.05893 108.466979 
L 600.453895 108.20087 
L 600.649553 108.333917 
L 601.037297 108.067808 
L 601.229411 108.20087 
L 601.420372 108.600041 
L 601.986472 108.333917 
L 602.172955 107.801699 
L 602.358352 108.466979 
L 602.542674 107.801699 
L 602.725935 108.466979 
L 602.908146 108.600041 
L 603.269467 107.934762 
L 603.4486 108.067808 
L 603.803869 107.269482 
L 603.980026 108.20087 
L 604.155214 108.067808 
L 604.329442 107.668637 
L 604.502721 108.466979 
L 604.846473 107.269482 
L 605.016967 107.402529 
L 605.186551 107.269482 
L 605.355237 107.801699 
L 605.523032 107.801699 
L 605.689947 107.535591 
L 605.855992 107.535591 
L 606.021173 107.668637 
L 606.348986 107.535591 
L 606.511635 107.668637 
L 606.834458 106.471141 
L 606.99465 107.13642 
L 607.312633 106.471141 
L 607.62747 106.870311 
L 607.939221 106.471141 
L 608.247947 107.402529 
L 608.401194 107.13642 
L 608.553706 106.205032 
L 608.856555 106.07197 
L 609.006904 106.338078 
L 609.305489 107.402529 
L 609.453737 107.269482 
L 609.601298 106.471141 
L 609.748177 106.471141 
L 609.894381 107.13642 
L 610.039916 106.471141 
L 610.329005 106.338078 
L 610.47257 106.604187 
L 610.899419 106.338078 
L 611.180836 105.672799 
L 611.459785 106.338078 
L 611.73631 106.07197 
L 611.873676 106.338078 
L 612.010452 106.338078 
L 612.146642 106.471141 
L 612.282251 106.07197 
L 612.417286 106.338078 
L 612.551749 106.07197 
L 612.685646 106.338078 
L 612.818982 106.338078 
L 612.951762 106.07197 
L 613.08399 106.338078 
L 613.477408 105.938908 
L 613.607473 106.338078 
L 613.994509 105.938908 
L 614.122482 106.338078 
L 614.376893 106.07197 
L 614.50334 106.471141 
L 614.754736 105.273628 
L 614.879693 105.672799 
L 615.004161 105.672799 
L 615.128144 105.805861 
L 615.251645 105.539753 
L 615.374669 105.539753 
L 615.497219 106.604187 
L 615.619299 105.40669 
L 615.862063 106.205032 
L 616.222769 105.00752 
L 616.460988 105.938908 
L 616.579432 105.938908 
L 616.697436 105.40669 
L 616.815005 105.938908 
L 616.93214 105.140582 
L 617.165125 105.938908 
L 617.396417 105.672799 
L 617.511435 105.672799 
L 617.626038 105.140582 
L 617.740231 105.273628 
L 617.854015 105.938908 
L 618.080369 104.874473 
L 618.192945 105.539753 
L 618.305124 105.00752 
L 618.639308 105.539753 
L 618.749927 105.539753 
L 618.860162 105.140582 
L 618.970017 105.40669 
L 619.079494 104.475303 
L 619.297325 105.40669 
L 619.405683 104.608349 
L 619.621299 105.273628 
L 619.728561 103.94307 
L 619.835463 105.00752 
L 620.048195 104.608349 
L 620.15403 104.608349 
L 620.36465 105.00752 
L 620.469439 104.608349 
L 620.573884 104.741411 
L 620.781751 104.475303 
L 620.988269 104.34224 
L 621.091028 104.34224 
L 621.193455 104.076132 
L 621.295554 104.475303 
L 621.498774 104.34224 
L 621.700704 104.34224 
L 622.001216 103.810023 
L 622.100759 104.34224 
L 622.199992 103.810023 
L 622.298916 104.076132 
L 622.495846 103.810023 
L 622.593856 103.94307 
L 622.788975 104.741411 
L 622.982904 103.810023 
L 623.079427 103.676961 
L 623.175658 103.810023 
L 623.271599 103.676961 
L 623.462617 103.94307 
L 623.557698 103.676961 
L 623.747011 103.94307 
L 623.935204 103.676961 
L 624.028885 104.076132 
L 624.12229 103.810023 
L 624.215423 103.011682 
L 624.400873 103.676961 
L 624.493195 103.94307 
L 624.585249 103.676961 
L 624.859825 103.94307 
L 624.950826 103.810023 
L 625.132051 103.011682 
L 625.222278 103.144744 
L 625.31225 103.011682 
L 625.401968 103.144744 
L 625.580648 102.878619 
L 625.669613 103.676961 
L 625.758331 103.543899 
L 625.846801 103.27779 
L 626.023008 103.410852 
L 626.110746 103.410852 
L 626.198243 103.144744 
L 626.285501 103.27779 
L 626.4593 102.745573 
L 626.545845 102.479464 
L 626.632156 102.612511 
L 626.804077 103.27779 
L 626.975074 102.878619 
L 627.06023 103.810023 
L 627.145158 103.011682 
L 627.229859 103.810023 
L 627.48262 102.479464 
L 627.566429 102.479464 
L 627.733388 102.346402 
L 627.81654 102.346402 
L 627.899476 102.878619 
L 627.982195 102.346402 
L 628.146992 103.144744 
L 628.229072 103.27779 
L 628.392598 103.011682 
L 628.474047 103.810023 
L 628.71715 102.080294 
L 628.797774 102.21334 
L 628.95841 102.080294 
L 629.038425 102.21334 
L 629.11824 103.011682 
L 629.27727 102.479464 
L 629.43551 103.27779 
L 629.514335 102.612511 
L 629.592966 102.745573 
L 629.749647 103.810023 
L 629.90556 102.080294 
L 629.98323 101.947231 
L 630.215112 102.21334 
L 630.292031 102.080294 
L 630.368766 102.745573 
L 630.445315 102.080294 
L 630.597864 103.27779 
L 630.825324 102.878619 
L 630.900784 103.94307 
L 630.976066 103.543899 
L 631.05117 102.080294 
L 631.126097 102.21334 
L 631.200847 102.479464 
L 631.275423 102.346402 
L 631.349824 101.947231 
L 631.424052 102.21334 
L 631.498107 103.144744 
L 631.57199 103.011682 
L 631.645702 102.479464 
L 631.719243 103.011682 
L 631.792615 102.878619 
L 631.865818 103.011682 
L 632.01172 102.745573 
L 632.084421 103.94307 
L 632.301533 102.080294 
L 632.373575 102.346402 
L 632.445455 102.21334 
L 632.517173 102.21334 
L 632.660125 102.745573 
L 632.731361 102.21334 
L 632.944117 103.27779 
L 633.085168 102.479464 
L 633.15546 102.612511 
L 633.225596 104.209194 
L 633.295579 104.076132 
L 633.365407 102.479464 
L 633.435083 102.612511 
L 633.504607 102.080294 
L 633.71227 102.745573 
L 633.849964 102.346402 
L 633.918587 102.745573 
L 633.987064 103.94307 
L 634.055393 103.810023 
L 634.123575 102.346402 
L 634.191612 102.745573 
L 634.259503 102.745573 
L 634.32725 103.144744 
L 634.394853 102.612511 
L 634.462313 102.745573 
L 634.596805 102.878619 
L 634.663838 102.479464 
L 634.797482 103.676961 
L 634.930568 102.479464 
L 635.063098 104.34224 
L 635.129157 103.676961 
L 635.260865 102.745573 
L 635.326515 103.011682 
L 635.39203 102.878619 
L 635.45741 102.745573 
L 635.587769 103.144744 
L 635.652748 103.011682 
L 635.717595 102.745573 
L 635.846894 103.94307 
L 635.97567 103.144744 
L 636.039863 103.27779 
L 636.167861 104.076132 
L 636.295347 102.878619 
L 636.358898 103.011682 
L 636.485622 102.612511 
L 636.674767 103.144744 
L 636.737566 102.878619 
L 636.862793 103.810023 
L 636.987529 102.878619 
L 637.049715 103.011682 
L 637.173722 104.475303 
L 637.297247 102.878619 
L 637.358831 103.011682 
L 637.481641 102.878619 
L 637.542869 102.878619 
L 637.603979 103.011682 
L 637.664972 102.878619 
L 637.786609 102.878619 
L 637.907782 104.209194 
L 638.028495 103.011682 
L 638.08868 103.144744 
L 638.148752 104.741411 
L 638.208711 104.076132 
L 638.32829 103.011682 
L 638.447421 103.011682 
L 638.566108 103.144744 
L 638.625286 102.878619 
L 638.684354 103.011682 
L 638.802161 103.144744 
L 638.919535 104.34224 
L 639.036476 102.878619 
L 639.094786 103.144744 
L 639.15299 103.27779 
L 639.269078 102.745573 
L 639.326964 103.27779 
L 639.44242 102.745573 
L 639.614823 104.475303 
L 639.729241 103.011682 
L 639.786296 103.144744 
L 639.84325 103.410852 
L 639.956851 103.011682 
L 640.126495 103.410852 
L 640.182843 103.011682 
L 640.29524 104.076132 
L 640.35129 103.543899 
L 640.407242 103.011682 
L 640.574508 104.076132 
L 640.7409 102.878619 
L 640.906425 103.410852 
L 641.016299 103.011682 
L 641.125795 103.410852 
L 641.180402 103.27779 
L 641.452039 103.810023 
L 641.560048 103.27779 
L 641.613915 103.410852 
L 641.667692 103.810023 
L 641.721377 103.676961 
L 641.881892 102.745573 
L 641.988454 103.27779 
L 642.041601 103.144744 
L 642.094659 103.27779 
L 642.14763 102.878619 
L 642.200512 103.410852 
L 642.253307 103.27779 
L 642.306014 102.878619 
L 642.358634 103.27779 
L 642.411167 103.011682 
L 642.463613 103.144744 
L 642.515973 103.543899 
L 642.568247 103.410852 
L 642.620435 103.011682 
L 642.672538 103.144744 
L 642.776488 103.543899 
L 642.93178 103.011682 
L 643.034888 103.410852 
L 643.086317 102.878619 
L 643.137663 103.011682 
L 643.188926 103.144744 
L 643.240107 103.011682 
L 643.342222 102.745573 
L 643.393157 102.878619 
L 643.444011 103.144744 
L 643.494783 103.011682 
L 643.596086 102.612511 
L 643.697066 103.810023 
L 643.747437 102.745573 
L 643.797728 102.878619 
L 643.847939 103.011682 
L 643.898071 102.878619 
L 643.948125 102.878619 
L 644.047996 103.011682 
L 644.197218 102.878619 
L 644.246803 103.011682 
L 644.296311 102.612511 
L 644.345743 103.011682 
L 644.493577 102.745573 
L 644.640728 103.011682 
L 644.689628 102.479464 
L 644.738452 102.878619 
L 644.835877 102.878619 
L 644.884477 102.745573 
L 644.933004 103.011682 
L 644.981456 102.878619 
L 645.029835 102.878619 
L 645.078141 102.745573 
L 645.126373 102.878619 
L 645.174532 102.878619 
L 645.270632 102.745573 
L 645.366443 102.878619 
L 645.461966 102.612511 
L 645.557204 102.878619 
L 645.604716 102.479464 
L 645.652157 102.745573 
L 645.746827 102.878619 
L 645.794057 102.479464 
L 645.841217 102.745573 
L 645.982278 102.878619 
L 646.02916 102.878619 
L 646.075973 103.011682 
L 646.122717 102.878619 
L 646.215999 102.745573 
L 646.262538 103.27779 
L 646.309009 102.878619 
L 646.401747 102.745573 
L 646.448016 103.144744 
L 646.494217 103.011682 
L 646.586418 102.878619 
L 646.678352 103.144744 
L 646.72422 102.878619 
L 646.770022 103.011682 
L 646.861429 103.144744 
L 646.907033 103.011682 
L 646.998048 103.27779 
L 647.088802 102.878619 
L 647.179298 103.410852 
L 647.22445 103.011682 
L 647.269538 103.27779 
L 647.359523 103.27779 
L 647.449253 103.410852 
L 647.494024 103.144744 
L 647.538731 103.543899 
L 647.672479 103.27779 
L 647.805666 103.543899 
L 647.849938 103.27779 
L 647.894149 103.543899 
L 647.938298 103.676961 
L 647.982386 103.543899 
L 648.026413 103.27779 
L 648.07038 103.676961 
L 648.114285 103.676961 
L 648.201915 103.410852 
L 648.24564 103.543899 
L 648.332909 103.543899 
L 648.376454 103.27779 
L 648.419939 103.543899 
L 648.463365 103.543899 
L 648.506732 103.27779 
L 648.55004 103.410852 
L 648.636479 103.676961 
L 648.679611 103.27779 
L 648.722685 103.676961 
L 648.894397 103.410852 
L 648.937181 103.543899 
L 648.979907 103.27779 
L 649.065188 103.410852 
L 649.107743 103.543899 
L 649.150241 103.410852 
L 649.235067 103.410852 
L 649.361883 103.543899 
L 649.488196 103.410852 
L 649.614009 103.810023 
L 649.655837 103.410852 
L 649.739327 103.543899 
L 649.78099 103.543899 
L 649.864153 103.676961 
L 649.905653 103.410852 
L 649.988492 103.543899 
L 650.02983 103.676961 
L 650.153524 103.410852 
L 650.194648 103.410852 
L 650.358617 103.011682 
L 650.481041 103.27779 
L 650.643544 103.011682 
L 650.724486 103.27779 
L 650.764879 103.011682 
L 650.845513 103.144744 
L 650.966081 103.410852 
L 651.046207 102.878619 
L 651.166019 102.612511 
L 651.205856 102.612511 
L 651.245644 102.479464 
L 651.285381 102.612511 
L 651.325069 102.612511 
L 651.443837 103.27779 
L 651.483328 102.745573 
L 651.562164 103.144744 
L 651.680052 102.878619 
L 651.719251 103.144744 
L 651.758402 102.878619 
L 651.797504 102.745573 
L 651.875566 103.011682 
L 651.914525 102.878619 
L 651.9923 102.878619 
L 652.108608 103.011682 
L 652.185911 102.878619 
L 652.301514 103.27779 
L 652.416699 102.745573 
L 652.455001 103.410852 
L 652.493257 103.144744 
L 652.531468 102.612511 
L 652.569632 102.878619 
L 652.607751 103.27779 
L 652.645824 103.144744 
L 652.683852 102.612511 
L 652.721834 103.144744 
L 652.797663 103.27779 
L 652.83551 102.878619 
L 652.873312 103.144744 
L 652.911069 103.410852 
L 652.948781 103.144744 
L 652.986448 103.011682 
L 653.024071 103.27779 
L 653.06165 103.144744 
L 653.136674 103.144744 
L 653.17412 102.878619 
L 653.248879 103.144744 
L 653.360691 103.011682 
L 653.397874 103.144744 
L 653.47211 103.011682 
L 653.583141 103.011682 
L 653.620065 102.878619 
L 653.693785 103.011682 
L 653.767335 103.011682 
L 653.804047 103.144744 
L 653.840716 102.878619 
L 653.877342 102.745573 
L 654.023429 103.144744 
L 654.096221 102.612511 
L 654.168848 102.745573 
L 654.205099 102.745573 
L 654.241309 103.011682 
L 654.277478 102.878619 
L 654.313605 102.346402 
L 654.349692 103.011682 
L 654.385738 103.011682 
L 654.421742 102.346402 
L 654.49363 102.878619 
L 654.636921 102.080294 
L 654.672643 102.878619 
L 654.743966 102.346402 
L 654.815131 102.745573 
L 654.850653 102.21334 
L 654.921579 102.479464 
L 654.956983 102.479464 
L 654.992348 102.612511 
L 655.027673 102.479464 
L 655.168584 102.346402 
L 655.238805 102.612511 
L 655.308873 102.479464 
L 655.343848 102.479464 
L 655.483368 102.346402 
L 655.622279 102.479464 
L 655.760586 102.080294 
L 655.898294 102.346402 
L 656.069595 102.080294 
L 656.103745 102.080294 
L 656.239979 101.947231 
L 656.273946 101.947231 
L 656.341773 101.814185 
L 656.375632 102.21334 
L 656.443242 101.681123 
L 656.544389 101.947231 
L 656.611642 101.947231 
L 656.745722 102.080294 
L 656.812551 101.947231 
L 656.87924 101.814185 
L 656.912533 102.21334 
L 656.979012 101.681123 
L 657.045354 102.080294 
L 657.078473 102.080294 
L 657.111557 102.21334 
L 657.144607 101.947231 
L 657.177623 102.080294 
L 657.210604 102.080294 
L 657.243552 101.947231 
L 657.276465 102.21334 
L 657.309344 102.21334 
L 657.34219 101.947231 
L 657.407779 102.21334 
L 657.473233 102.21334 
L 657.571162 102.346402 
L 657.701268 102.21334 
L 657.733711 102.21334 
L 657.863155 102.080294 
L 657.895433 102.080294 
L 658.024222 101.681123 
L 658.056338 102.080294 
L 658.152491 101.947231 
L 658.184478 101.681123 
L 658.248355 102.080294 
L 658.280246 102.080294 
L 658.343931 101.681123 
L 658.407489 101.947231 
L 658.47092 101.947231 
L 658.534226 101.681123 
L 658.565831 102.080294 
L 658.597405 102.080294 
L 658.691939 101.681123 
L 658.723389 101.814185 
L 658.754807 101.814185 
L 658.88017 101.681123 
L 659.036182 101.947231 
L 659.067293 101.947231 
L 659.222393 102.21334 
L 659.253322 102.21334 
L 659.37674 101.681123 
L 659.43827 102.21334 
L 659.46899 101.947231 
L 659.499681 119.90979 
L 659.560973 112.857826 
L 659.71369 101.814185 
L 659.80497 102.346402 
L 659.835338 101.548061 
L 659.92627 101.947231 
L 660.016943 101.947231 
L 660.077248 101.681123 
L 660.137439 101.814185 
L 660.197516 101.814185 
L 660.317332 101.947231 
L 660.347215 101.947231 
L 660.406898 102.080294 
L 660.436698 101.947231 
L 660.46647 101.947231 
L 660.585278 101.814185 
L 661.520105 101.814185 
L 661.635051 101.947231 
L 661.778151 101.947231 
L 661.89217 102.080294 
L 662.118988 102.080294 
L 662.259932 101.947231 
L 662.456212 101.947231 
L 662.595674 101.814185 
L 663.743626 101.814185 
L 663.877569 101.681123 
L 663.930988 101.681123 
L 664.064146 101.814185 
L 664.903406 101.814185 
L 665.032563 101.947231 
L 665.746311 101.947231 
L 665.872098 102.080294 
L 666.122189 102.080294 
L 666.246501 102.21334 
L 666.690046 102.21334 
L 666.763373 101.947231 
L 666.812164 102.080294 
L 666.88521 102.080294 
L 667.006582 102.21334 
L 667.030801 102.21334 
L 667.151619 102.080294 
L 667.295999 102.080294 
L 667.439726 102.346402 
L 667.463618 102.346402 
L 667.630358 101.947231 
L 667.748925 101.947231 
L 667.819854 102.080294 
L 667.843462 101.947231 
L 667.914181 101.947231 
L 668.008229 101.681123 
L 668.031697 101.814185 
L 668.125399 101.814185 
L 668.195494 101.947231 
L 668.218825 101.814185 
L 668.589811 101.814185 
L 668.727822 102.080294 
L 668.888083 102.080294 
L 669.002063 101.947231 
L 669.409041 101.947231 
L 669.543552 102.080294 
L 669.722019 102.080294 
L 669.810879 102.21334 
L 669.833055 102.080294 
L 671.199882 102.080294 
L 671.327045 101.947231 
L 671.747287 101.947231 
L 671.872285 102.080294 
L 672.367422 102.080294 
L 672.490011 102.21334 
L 673.394678 102.21334 
L 673.454084 102.346402 
L 673.493627 102.21334 
L 673.51338 102.21334 
L 673.53312 102.479464 
L 673.572565 101.947231 
L 673.710237 101.015843 
L 673.80821 101.015843 
L 674.003257 101.681123 
L 674.022696 101.681123 
L 674.061539 101.814185 
L 674.100334 101.681123 
L 674.235745 101.415014 
L 674.312866 101.415014 
L 674.428196 101.281952 
L 674.485705 101.281952 
L 674.638556 101.681123 
L 675.055149 101.681123 
L 675.167825 101.548061 
L 675.224014 101.548061 
L 675.354736 101.415014 
L 675.559077 101.415014 
L 675.706869 101.681123 
L 675.780508 101.681123 
L 675.908968 101.548061 
L 676.146169 101.548061 
L 676.273164 101.415014 
L 676.327435 101.415014 
L 676.45371 101.548061 
L 676.686899 101.548061 
L 676.811757 101.415014 
L 677.042346 101.415014 
L 677.16582 101.281952 
L 677.72425 101.281952 
L 677.84511 101.148906 
L 678.962634 101.148906 
L 679.078889 101.015843 
L 679.161669 101.015843 
L 679.2772 101.148906 
L 679.800065 101.148906 
L 679.897152 101.281952 
L 680.026143 101.015843 
L 680.042231 101.015843 
L 680.154613 101.148906 
L 680.202656 101.148906 
L 680.234645 101.281952 
L 680.314475 101.148906 
L 681.318995 101.148906 
L 681.442359 101.281952 
L 681.503862 101.281952 
L 681.595895 101.148906 
L 681.611207 101.281952 
L 681.885586 101.281952 
L 681.976522 101.148906 
L 681.991653 101.281952 
L 682.067199 101.281952 
L 682.142566 101.015843 
L 682.157618 101.281952 
L 682.172663 176.990817 
L 682.202731 99.951393 
L 682.262783 104.34224 
L 682.352649 100.882781 
L 682.382548 101.015843 
L 682.427344 101.015843 
L 682.516747 102.080294 
L 682.576209 101.415014 
L 682.709595 101.148906 
L 682.724381 101.148906 
L 682.827693 101.281952 
L 682.857149 101.148906 
L 682.915979 101.415014 
L 682.945353 101.415014 
L 683.004021 101.148906 
L 683.047951 101.281952 
L 683.062581 101.415014 
L 683.10643 101.148906 
L 683.135629 101.148906 
L 683.164801 101.148906 
L 683.281224 101.281952 
L 683.397223 101.281952 
L 683.483945 101.148906 
L 683.498375 101.281952 
L 683.613586 101.281952 
L 683.728381 101.148906 
L 683.757015 101.148906 
L 683.885551 100.882781 
L 683.942512 100.882781 
L 684.070302 100.616673 
L 684.715552 100.616673 
L 684.840281 100.749735 
L 684.895559 100.616673 
L 684.950741 100.749735 
L 685.019585 100.749735 
L 685.156826 101.015843 
L 685.27984 101.015843 
L 685.402379 100.882781 
L 685.605569 100.882781 
L 685.726863 101.015843 
L 685.753754 101.015843 
L 685.874486 100.882781 
L 685.914628 100.882781 
L 686.034751 100.616673 
L 686.04807 100.749735 
L 686.141148 100.616673 
L 686.194213 100.616673 
L 686.313288 100.749735 
L 686.589407 100.749735 
L 686.64173 100.882781 
L 686.693968 100.749735 
L 687.185993 100.749735 
L 687.327012 101.148906 
L 687.365364 101.148906 
L 687.480142 101.015843 
L 687.581821 101.015843 
L 687.721101 100.616673 
L 687.972785 100.616673 
L 688.085397 100.48361 
L 688.185162 100.48361 
L 688.222494 100.749735 
L 688.297026 100.616673 
L 688.38376 100.616673 
L 688.51958 100.882781 
L 688.667089 100.882781 
L 688.789493 100.749735 
L 689.334556 100.749735 
L 689.454424 100.882781 
L 689.526128 100.882781 
L 689.645277 100.749735 
L 689.716553 100.749735 
L 689.834992 100.882781 
L 690.269424 100.882781 
L 690.385826 101.015843 
L 690.892998 101.015843 
L 691.007145 100.882781 
L 691.120885 100.882781 
L 691.154927 100.749735 
L 691.222903 100.882781 
L 691.24553 100.882781 
L 691.358422 101.015843 
L 691.883712 101.015843 
L 692.005409 101.148906 
L 692.465838 101.148906 
L 692.585334 101.015843 
L 692.779908 101.015843 
L 692.898232 101.148906 
L 693.208083 101.148906 
L 693.324828 101.281952 
L 693.33542 101.281952 
L 693.367175 101.415014 
L 693.441146 101.281952 
L 694.723766 101.281952 
L 694.845189 101.148906 
L 694.855287 101.148906 
L 694.915806 101.015843 
L 694.966151 101.148906 
L 694.986267 101.148906 
L 695.106695 101.015843 
L 695.206704 101.015843 
L 695.366068 100.350564 
L 695.376002 100.48361 
L 695.465267 100.350564 
L 695.583898 100.217502 
L 696.05405 100.217502 
L 696.17051 100.084456 
L 696.334769 100.084456 
L 696.450208 99.951393 
L 696.526935 99.951393 
L 696.64168 100.084456 
L 696.651223 100.084456 
L 696.765522 100.217502 
L 696.955111 100.217502 
L 697.068325 100.084456 
L 697.748495 100.084456 
L 697.877293 99.818331 
L 697.886473 99.951393 
L 697.987278 99.818331 
L 698.360216 99.818331 
L 698.477557 99.951393 
L 698.549553 99.951393 
L 698.666199 100.084456 
L 698.835917 100.084456 
L 698.95152 100.217502 
L 699.119727 100.217502 
L 699.234305 100.084456 
L 699.705878 100.084456 
L 699.818368 99.951393 
L 699.930462 100.084456 
L 700.093585 100.084456 
L 700.221777 100.350564 
L 700.289936 100.350564 
L 700.408864 100.217502 
L 700.493541 100.217502 
L 700.611711 100.350564 
L 700.653809 100.350564 
L 700.771387 100.48361 
L 700.788148 100.48361 
L 700.905231 100.616673 
L 701.071749 100.616673 
L 701.113242 100.48361 
L 701.171243 100.749735 
L 701.17952 100.616673 
L 701.286927 100.749735 
L 701.402192 100.616673 
L 701.590654 100.616673 
L 701.623317 100.749735 
L 701.647792 100.217502 
L 701.664098 152.774635 
L 701.680395 99.818331 
L 701.753632 102.080294 
L 701.761759 102.878619 
L 701.802363 100.616673 
L 701.859122 101.681123 
L 701.956187 102.346402 
L 701.972336 102.080294 
L 701.980407 102.080294 
L 702.077104 102.346402 
L 702.093191 102.21334 
L 702.173507 102.21334 
L 702.253621 102.479464 
L 702.28561 102.346402 
L 702.373415 102.346402 
L 702.381385 102.21334 
L 702.397319 102.479464 
L 702.476872 102.346402 
L 702.484817 102.346402 
L 702.500699 102.479464 
L 702.556227 102.080294 
L 702.579995 102.080294 
L 702.59583 102.080294 
L 702.72223 101.814185 
L 702.910893 101.814185 
L 703.036049 101.548061 
L 703.145159 101.548061 
L 703.261648 101.681123 
L 703.431731 101.681123 
L 703.447148 101.814185 
L 703.493355 101.415014 
L 703.524122 101.415014 
L 703.60091 101.415014 
L 703.715745 101.281952 
L 703.753932 101.281952 
L 703.875821 101.015843 
L 704.170986 101.015843 
L 704.283786 100.882781 
L 704.441036 100.882781 
L 704.560327 101.148906 
L 704.597513 101.148906 
L 704.71622 101.281952 
L 704.731027 101.281952 
L 704.85661 101.015843 
L 705.003724 101.015843 
L 705.120927 100.882781 
L 705.157464 100.882781 
L 705.288653 100.48361 
L 705.506106 100.48361 
L 705.52055 100.616673 
L 705.614278 100.48361 
L 705.815219 100.48361 
L 705.929476 100.616673 
L 706.121358 100.616673 
L 706.234522 100.48361 
L 706.536672 100.48361 
L 706.620483 100.616673 
L 706.641401 100.48361 
L 707.125631 100.48361 
L 707.242125 100.616673 
L 707.262639 100.616673 
L 707.385444 100.882781 
L 707.392253 100.882781 
L 707.521341 101.281952 
L 707.737574 101.281952 
L 707.851854 101.148906 
L 707.985776 101.148906 
L 708.105827 100.882781 
L 708.185609 100.882781 
L 708.212159 100.749735 
L 708.291676 100.882781 
L 708.344577 100.882781 
L 708.41058 100.749735 
L 708.450116 100.882781 
L 708.548741 100.882781 
L 708.561868 100.616673 
L 708.660149 100.749735 
L 708.725501 100.749735 
L 708.836292 100.616673 
L 708.940215 100.749735 
L 708.946698 100.616673 
L 709.114818 100.616673 
L 709.237115 100.882781 
L 709.569439 100.882781 
L 709.68367 101.015843 
L 709.690004 101.015843 
L 709.753277 100.882781 
L 709.797493 101.015843 
L 709.923486 101.015843 
L 710.036456 101.148906 
L 710.230078 101.148906 
L 710.341966 101.015843 
L 710.552241 101.015843 
L 710.607671 101.148906 
L 710.663004 101.015843 
L 710.755012 101.015843 
L 710.840647 101.148906 
L 710.852862 100.882781 
L 710.858967 100.882781 
L 711.415731 100.882781 
L 711.52951 101.015843 
L 711.642884 101.015843 
L 711.755856 101.148906 
L 712.063006 101.148906 
L 712.174498 101.281952 
L 712.215476 101.281952 
L 712.314774 101.415014 
L 712.326436 101.281952 
L 712.442819 101.148906 
L 712.944191 101.148906 
L 713.058341 101.015843 
L 713.098196 101.015843 
L 713.211795 101.148906 
L 713.768214 101.148906 
L 713.87945 101.015843 
L 713.923836 101.015843 
L 714.012422 100.749735 
L 714.03453 101.015843 
L 715.317743 101.015843 
L 715.338963 100.882781 
L 715.349567 102.612511 
L 715.365467 109.9306 
L 715.460701 103.011682 
L 715.481826 103.011682 
L 715.513486 102.479464 
L 715.581976 103.144744 
L 715.587238 103.144744 
L 715.5925 103.144744 
L 715.718515 103.543899 
L 715.723754 103.543899 
L 715.770874 103.410852 
L 715.833591 103.543899 
L 715.838812 103.543899 
L 715.963857 103.144744 
L 716.000236 103.144744 
L 716.119475 102.878619 
L 716.145338 102.878619 
L 716.269186 103.27779 
L 716.325789 103.27779 
L 716.464298 102.479464 
L 716.551199 102.479464 
L 716.663308 102.346402 
L 716.764884 102.346402 
L 716.876244 102.479464 
L 716.886348 102.479464 
L 717.012382 102.080294 
L 717.14794 102.080294 
L 717.198001 101.814185 
L 717.262962 101.947231 
L 717.466975 101.947231 
L 717.585793 101.681123 
L 717.600614 101.681123 
L 717.728775 101.148906 
L 717.84172 101.148906 
L 717.964032 101.548061 
L 717.978678 101.548061 
L 718.037195 101.681123 
L 718.085877 101.548061 
L 718.187866 101.548061 
L 718.197563 101.415014 
L 718.250839 101.681123 
L 718.28953 101.681123 
L 718.304027 101.681123 
L 718.386052 102.21334 
L 718.400505 101.281952 
L 718.410136 103.27779 
L 718.487085 101.015843 
L 718.506293 101.015843 
L 718.515893 101.015843 
L 718.52549 101.281952 
L 718.611731 100.882781 
L 718.621299 100.882781 
L 718.626082 100.882781 
L 718.750186 101.281952 
L 718.778757 101.281952 
L 718.85482 101.148906 
L 718.888041 101.281952 
L 718.992223 101.281952 
L 719.039466 101.415014 
L 719.100778 101.281952 
L 719.218353 101.281952 
L 719.330818 101.415014 
L 719.368218 101.415014 
L 719.480155 101.281952 
L 719.540624 101.281952 
L 719.58706 101.148906 
L 719.647327 101.281952 
L 719.665847 101.281952 
L 719.785968 101.548061 
L 719.896448 101.548061 
L 719.997385 101.681123 
L 720.001965 101.548061 
L 720.024857 101.415014 
L 720.111698 101.548061 
L 720.397961 101.548061 
L 720.515354 101.281952 
L 720.551388 101.281952 
L 720.663732 101.415014 
L 720.85604 101.415014 
L 720.958428 101.681123 
L 720.967315 101.548061 
L 720.971758 101.548061 
L 720.980642 101.681123 
L 721.08263 101.548061 
L 721.104758 101.548061 
L 721.219577 101.415014 
L 721.254822 101.415014 
L 721.355936 101.281952 
L 721.364714 101.415014 
L 721.395415 101.415014 
L 721.513559 101.681123 
L 721.539754 101.681123 
L 721.653016 101.548061 
L 721.739867 101.548061 
L 721.856742 101.281952 
L 721.947348 101.281952 
L 722.05917 101.148906 
L 722.439 101.148906 
L 722.439 101.148906 
" clip-path="url(#pd2b4690b4e)" style="fill: none; stroke: #1f77b4; stroke-width: 1.5; stroke-linecap: square"/>
   </g>
   <g id="patch_3">
    <path d="M 365.319 311.6435 
L 365.319 45.5315 
" style="fill: none; stroke: #000000; stroke-width: 0.8; stroke-linejoin: miter; stroke-linecap: square"/>
   </g>
   <g id="patch_4">
    <path d="M 722.439 311.6435 
L 722.439 45.5315 
" style="fill: none; stroke: #000000; stroke-width: 0.8; stroke-linejoin: miter; stroke-linecap: square"/>
   </g>
   <g id="patch_5">
    <path d="M 365.319 311.6435 
L 722.439 311.6435 
" style="fill: none; stroke: #000000; stroke-width: 0.8; stroke-linejoin: miter; stroke-linecap: square"/>
   </g>
   <g id="patch_6">
    <path d="M 365.319 45.5315 
L 722.439 45.5315 
" style="fill: none; stroke: #000000; stroke-width: 0.8; stroke-linejoin: miter; stroke-linecap: square"/>
   </g>
   <g id="text_18">
    <!-- Accuracy of the 09_07_25_CIFAR10_torch_model_(1024+2048.1+1)_elk-horse on the validation set -->
    <g transform="translate(7.2 25.5315) scale(0.264 -0.264)">
     <defs>
      <path id="TimesNewRomanPSMT-20" transform="scale(0.015625)"/>
      <path id="TimesNewRomanPSMT-6f" d="M 1600 2947 
Q 2250 2947 2644 2453 
Q 2978 2031 2978 1484 
Q 2978 1100 2793 706 
Q 2609 313 2286 112 
Q 1963 -88 1566 -88 
Q 919 -88 538 428 
Q 216 863 216 1403 
Q 216 1797 411 2186 
Q 606 2575 925 2761 
Q 1244 2947 1600 2947 
z
M 1503 2744 
Q 1338 2744 1170 2645 
Q 1003 2547 900 2300 
Q 797 2053 797 1666 
Q 797 1041 1045 587 
Q 1294 134 1700 134 
Q 2003 134 2200 384 
Q 2397 634 2397 1244 
Q 2397 2006 2069 2444 
Q 1847 2744 1503 2744 
z
" transform="scale(0.015625)"/>
      <path id="TimesNewRomanPSMT-66" d="M 1319 2638 
L 1319 756 
Q 1319 356 1406 250 
Q 1522 113 1716 113 
L 1975 113 
L 1975 0 
L 266 0 
L 266 113 
L 394 113 
Q 519 113 622 175 
Q 725 238 764 344 
Q 803 450 803 756 
L 803 2638 
L 247 2638 
L 247 2863 
L 803 2863 
L 803 3050 
Q 803 3478 940 3775 
Q 1078 4072 1361 4255 
Q 1644 4438 1997 4438 
Q 2325 4438 2600 4225 
Q 2781 4084 2781 3909 
Q 2781 3816 2700 3733 
Q 2619 3650 2525 3650 
Q 2453 3650 2373 3701 
Q 2294 3753 2178 3923 
Q 2063 4094 1966 4153 
Q 1869 4213 1750 4213 
Q 1606 4213 1506 4136 
Q 1406 4059 1362 3898 
Q 1319 3738 1319 3069 
L 1319 2863 
L 2056 2863 
L 2056 2638 
L 1319 2638 
z
" transform="scale(0.015625)"/>
      <path id="TimesNewRomanPSMT-74" d="M 1031 3803 
L 1031 2863 
L 1700 2863 
L 1700 2644 
L 1031 2644 
L 1031 788 
Q 1031 509 1111 412 
Q 1191 316 1316 316 
Q 1419 316 1516 380 
Q 1613 444 1666 569 
L 1788 569 
Q 1678 263 1478 108 
Q 1278 -47 1066 -47 
Q 922 -47 784 33 
Q 647 113 581 261 
Q 516 409 516 719 
L 516 2644 
L 63 2644 
L 63 2747 
Q 234 2816 414 2980 
Q 594 3144 734 3369 
Q 806 3488 934 3803 
L 1031 3803 
z
" transform="scale(0.015625)"/>
      <path id="TimesNewRomanPSMT-68" d="M 1041 4444 
L 1041 2350 
Q 1388 2731 1591 2839 
Q 1794 2947 1997 2947 
Q 2241 2947 2416 2812 
Q 2591 2678 2675 2391 
Q 2734 2191 2734 1659 
L 2734 647 
Q 2734 375 2778 275 
Q 2809 200 2884 156 
Q 2959 113 3159 113 
L 3159 0 
L 1753 0 
L 1753 113 
L 1819 113 
Q 2019 113 2097 173 
Q 2175 234 2206 353 
Q 2216 403 2216 647 
L 2216 1659 
Q 2216 2128 2167 2275 
Q 2119 2422 2012 2495 
Q 1906 2569 1756 2569 
Q 1603 2569 1437 2487 
Q 1272 2406 1041 2159 
L 1041 647 
Q 1041 353 1073 281 
Q 1106 209 1195 161 
Q 1284 113 1503 113 
L 1503 0 
L 84 0 
L 84 113 
Q 275 113 384 172 
Q 447 203 484 290 
Q 522 378 522 647 
L 522 3238 
Q 522 3728 498 3840 
Q 475 3953 426 3993 
Q 378 4034 297 4034 
Q 231 4034 84 3984 
L 41 4094 
L 897 4444 
L 1041 4444 
z
" transform="scale(0.015625)"/>
      <path id="TimesNewRomanPSMT-65" d="M 681 1784 
Q 678 1147 991 784 
Q 1303 422 1725 422 
Q 2006 422 2214 576 
Q 2422 731 2563 1106 
L 2659 1044 
Q 2594 616 2278 264 
Q 1963 -88 1488 -88 
Q 972 -88 605 314 
Q 238 716 238 1394 
Q 238 2128 614 2539 
Q 991 2950 1559 2950 
Q 2041 2950 2350 2633 
Q 2659 2316 2659 1784 
L 681 1784 
z
M 681 1966 
L 2006 1966 
Q 1991 2241 1941 2353 
Q 1863 2528 1708 2628 
Q 1553 2728 1384 2728 
Q 1125 2728 920 2526 
Q 716 2325 681 1966 
z
" transform="scale(0.015625)"/>
      <path id="TimesNewRomanPSMT-5f" d="M 3256 -1381 
L -53 -1381 
L -53 -1119 
L 3256 -1119 
L 3256 -1381 
z
" transform="scale(0.015625)"/>
      <path id="TimesNewRomanPSMT-43" d="M 3853 4334 
L 3950 2894 
L 3853 2894 
Q 3659 3541 3300 3825 
Q 2941 4109 2438 4109 
Q 2016 4109 1675 3895 
Q 1334 3681 1139 3212 
Q 944 2744 944 2047 
Q 944 1472 1128 1050 
Q 1313 628 1683 403 
Q 2053 178 2528 178 
Q 2941 178 3256 354 
Q 3572 531 3950 1056 
L 4047 994 
Q 3728 428 3303 165 
Q 2878 -97 2294 -97 
Q 1241 -97 663 684 
Q 231 1266 231 2053 
Q 231 2688 515 3219 
Q 800 3750 1298 4042 
Q 1797 4334 2388 4334 
Q 2847 4334 3294 4109 
Q 3425 4041 3481 4041 
Q 3566 4041 3628 4100 
Q 3709 4184 3744 4334 
L 3853 4334 
z
" transform="scale(0.015625)"/>
      <path id="TimesNewRomanPSMT-49" d="M 1975 116 
L 1975 0 
L 159 0 
L 159 116 
L 309 116 
Q 572 116 691 269 
Q 766 369 766 750 
L 766 3488 
Q 766 3809 725 3913 
Q 694 3991 597 4047 
Q 459 4122 309 4122 
L 159 4122 
L 159 4238 
L 1975 4238 
L 1975 4122 
L 1822 4122 
Q 1563 4122 1444 3969 
Q 1366 3869 1366 3488 
L 1366 750 
Q 1366 428 1406 325 
Q 1438 247 1538 191 
Q 1672 116 1822 116 
L 1975 116 
z
" transform="scale(0.015625)"/>
      <path id="TimesNewRomanPSMT-46" d="M 1309 4006 
L 1309 2341 
L 2081 2341 
Q 2347 2341 2470 2458 
Q 2594 2575 2634 2922 
L 2750 2922 
L 2750 1488 
L 2634 1488 
Q 2631 1734 2570 1850 
Q 2509 1966 2401 2023 
Q 2294 2081 2081 2081 
L 1309 2081 
L 1309 750 
Q 1309 428 1350 325 
Q 1381 247 1481 191 
Q 1619 116 1769 116 
L 1922 116 
L 1922 0 
L 103 0 
L 103 116 
L 253 116 
Q 516 116 634 269 
Q 709 369 709 750 
L 709 3488 
Q 709 3809 669 3913 
Q 638 3991 541 4047 
Q 406 4122 253 4122 
L 103 4122 
L 103 4238 
L 3256 4238 
L 3297 3306 
L 3188 3306 
Q 3106 3603 2998 3742 
Q 2891 3881 2733 3943 
Q 2575 4006 2244 4006 
L 1309 4006 
z
" transform="scale(0.015625)"/>
      <path id="TimesNewRomanPSMT-52" d="M 4325 0 
L 3194 0 
L 1759 1981 
Q 1600 1975 1500 1975 
Q 1459 1975 1412 1976 
Q 1366 1978 1316 1981 
L 1316 750 
Q 1316 350 1403 253 
Q 1522 116 1759 116 
L 1925 116 
L 1925 0 
L 109 0 
L 109 116 
L 269 116 
Q 538 116 653 291 
Q 719 388 719 750 
L 719 3488 
Q 719 3888 631 3984 
Q 509 4122 269 4122 
L 109 4122 
L 109 4238 
L 1653 4238 
Q 2328 4238 2648 4139 
Q 2969 4041 3192 3777 
Q 3416 3513 3416 3147 
Q 3416 2756 3161 2468 
Q 2906 2181 2372 2063 
L 3247 847 
Q 3547 428 3762 290 
Q 3978 153 4325 116 
L 4325 0 
z
M 1316 2178 
Q 1375 2178 1419 2176 
Q 1463 2175 1491 2175 
Q 2097 2175 2405 2437 
Q 2713 2700 2713 3106 
Q 2713 3503 2464 3751 
Q 2216 4000 1806 4000 
Q 1625 4000 1316 3941 
L 1316 2178 
z
" transform="scale(0.015625)"/>
      <path id="TimesNewRomanPSMT-6d" d="M 1050 2338 
Q 1363 2650 1419 2697 
Q 1559 2816 1721 2881 
Q 1884 2947 2044 2947 
Q 2313 2947 2506 2790 
Q 2700 2634 2766 2338 
Q 3088 2713 3309 2830 
Q 3531 2947 3766 2947 
Q 3994 2947 4170 2830 
Q 4347 2713 4450 2447 
Q 4519 2266 4519 1878 
L 4519 647 
Q 4519 378 4559 278 
Q 4591 209 4675 161 
Q 4759 113 4950 113 
L 4950 0 
L 3538 0 
L 3538 113 
L 3597 113 
Q 3781 113 3884 184 
Q 3956 234 3988 344 
Q 4000 397 4000 647 
L 4000 1878 
Q 4000 2228 3916 2372 
Q 3794 2572 3525 2572 
Q 3359 2572 3192 2489 
Q 3025 2406 2788 2181 
L 2781 2147 
L 2788 2013 
L 2788 647 
Q 2788 353 2820 281 
Q 2853 209 2943 161 
Q 3034 113 3253 113 
L 3253 0 
L 1806 0 
L 1806 113 
Q 2044 113 2133 169 
Q 2222 225 2256 338 
Q 2272 391 2272 647 
L 2272 1878 
Q 2272 2228 2169 2381 
Q 2031 2581 1784 2581 
Q 1616 2581 1450 2491 
Q 1191 2353 1050 2181 
L 1050 647 
Q 1050 366 1089 281 
Q 1128 197 1204 155 
Q 1281 113 1516 113 
L 1516 0 
L 100 0 
L 100 113 
Q 297 113 375 155 
Q 453 197 493 289 
Q 534 381 534 647 
L 534 1741 
Q 534 2213 506 2350 
Q 484 2453 437 2492 
Q 391 2531 309 2531 
Q 222 2531 100 2484 
L 53 2597 
L 916 2947 
L 1050 2947 
L 1050 2338 
z
" transform="scale(0.015625)"/>
      <path id="TimesNewRomanPSMT-64" d="M 2222 322 
Q 2013 103 1813 7 
Q 1613 -88 1381 -88 
Q 913 -88 563 304 
Q 213 697 213 1313 
Q 213 1928 600 2439 
Q 988 2950 1597 2950 
Q 1975 2950 2222 2709 
L 2222 3238 
Q 2222 3728 2198 3840 
Q 2175 3953 2125 3993 
Q 2075 4034 2000 4034 
Q 1919 4034 1784 3984 
L 1744 4094 
L 2597 4444 
L 2738 4444 
L 2738 1134 
Q 2738 631 2761 520 
Q 2784 409 2836 365 
Q 2888 322 2956 322 
Q 3041 322 3181 375 
L 3216 266 
L 2366 -88 
L 2222 -88 
L 2222 322 
z
M 2222 541 
L 2222 2016 
Q 2203 2228 2109 2403 
Q 2016 2578 1861 2667 
Q 1706 2756 1559 2756 
Q 1284 2756 1069 2509 
Q 784 2184 784 1559 
Q 784 928 1059 592 
Q 1334 256 1672 256 
Q 1956 256 2222 541 
z
" transform="scale(0.015625)"/>
      <path id="TimesNewRomanPSMT-6c" d="M 1184 4444 
L 1184 647 
Q 1184 378 1223 290 
Q 1263 203 1344 158 
Q 1425 113 1647 113 
L 1647 0 
L 244 0 
L 244 113 
Q 441 113 512 153 
Q 584 194 625 287 
Q 666 381 666 647 
L 666 3247 
Q 666 3731 644 3842 
Q 622 3953 573 3993 
Q 525 4034 450 4034 
Q 369 4034 244 3984 
L 191 4094 
L 1044 4444 
L 1184 4444 
z
" transform="scale(0.015625)"/>
      <path id="TimesNewRomanPSMT-28" d="M 1988 -1253 
L 1988 -1369 
Q 1516 -1131 1200 -813 
Q 750 -359 506 256 
Q 263 872 263 1534 
Q 263 2503 741 3301 
Q 1219 4100 1988 4444 
L 1988 4313 
Q 1603 4100 1356 3731 
Q 1109 3363 987 2797 
Q 866 2231 866 1616 
Q 866 947 969 400 
Q 1050 -31 1165 -292 
Q 1281 -553 1476 -793 
Q 1672 -1034 1988 -1253 
z
" transform="scale(0.015625)"/>
      <path id="TimesNewRomanPSMT-2b" d="M 1672 441 
L 1672 2000 
L 116 2000 
L 116 2256 
L 1672 2256 
L 1672 3809 
L 1922 3809 
L 1922 2256 
L 3484 2256 
L 3484 2000 
L 1922 2000 
L 1922 441 
L 1672 441 
z
" transform="scale(0.015625)"/>
      <path id="TimesNewRomanPSMT-29" d="M 144 4313 
L 144 4444 
Q 619 4209 934 3891 
Q 1381 3434 1625 2820 
Q 1869 2206 1869 1541 
Q 1869 572 1392 -226 
Q 916 -1025 144 -1369 
L 144 -1253 
Q 528 -1038 776 -670 
Q 1025 -303 1145 264 
Q 1266 831 1266 1447 
Q 1266 2113 1163 2663 
Q 1084 3094 967 3353 
Q 850 3613 656 3853 
Q 463 4094 144 4313 
z
" transform="scale(0.015625)"/>
      <path id="TimesNewRomanPSMT-6b" d="M 1047 4444 
L 1047 1594 
L 1775 2259 
Q 2006 2472 2044 2528 
Q 2069 2566 2069 2603 
Q 2069 2666 2017 2711 
Q 1966 2756 1847 2763 
L 1847 2863 
L 3091 2863 
L 3091 2763 
Q 2834 2756 2664 2684 
Q 2494 2613 2291 2428 
L 1556 1750 
L 2291 822 
Q 2597 438 2703 334 
Q 2853 188 2966 144 
Q 3044 113 3238 113 
L 3238 0 
L 1847 0 
L 1847 113 
Q 1966 116 2008 148 
Q 2050 181 2050 241 
Q 2050 313 1925 472 
L 1047 1594 
L 1047 644 
Q 1047 366 1086 278 
Q 1125 191 1197 153 
Q 1269 116 1509 113 
L 1509 0 
L 53 0 
L 53 113 
Q 272 113 381 166 
Q 447 200 481 272 
Q 528 375 528 628 
L 528 3234 
Q 528 3731 506 3842 
Q 484 3953 434 3995 
Q 384 4038 303 4038 
Q 238 4038 106 3984 
L 53 4094 
L 903 4444 
L 1047 4444 
z
" transform="scale(0.015625)"/>
      <path id="TimesNewRomanPSMT-2d" d="M 259 1672 
L 1875 1672 
L 1875 1200 
L 259 1200 
L 259 1672 
z
" transform="scale(0.015625)"/>
      <path id="TimesNewRomanPSMT-73" d="M 2050 2947 
L 2050 1972 
L 1947 1972 
Q 1828 2431 1642 2597 
Q 1456 2763 1169 2763 
Q 950 2763 815 2647 
Q 681 2531 681 2391 
Q 681 2216 781 2091 
Q 878 1963 1175 1819 
L 1631 1597 
Q 2266 1288 2266 781 
Q 2266 391 1970 151 
Q 1675 -88 1309 -88 
Q 1047 -88 709 6 
Q 606 38 541 38 
Q 469 38 428 -44 
L 325 -44 
L 325 978 
L 428 978 
Q 516 541 762 319 
Q 1009 97 1316 97 
Q 1531 97 1667 223 
Q 1803 350 1803 528 
Q 1803 744 1651 891 
Q 1500 1038 1047 1263 
Q 594 1488 453 1669 
Q 313 1847 313 2119 
Q 313 2472 555 2709 
Q 797 2947 1181 2947 
Q 1350 2947 1591 2875 
Q 1750 2828 1803 2828 
Q 1853 2828 1881 2850 
Q 1909 2872 1947 2947 
L 2050 2947 
z
" transform="scale(0.015625)"/>
      <path id="TimesNewRomanPSMT-6e" d="M 1034 2341 
Q 1538 2947 1994 2947 
Q 2228 2947 2397 2830 
Q 2566 2713 2666 2444 
Q 2734 2256 2734 1869 
L 2734 647 
Q 2734 375 2778 278 
Q 2813 200 2889 156 
Q 2966 113 3172 113 
L 3172 0 
L 1756 0 
L 1756 113 
L 1816 113 
Q 2016 113 2095 173 
Q 2175 234 2206 353 
Q 2219 400 2219 647 
L 2219 1819 
Q 2219 2209 2117 2386 
Q 2016 2563 1775 2563 
Q 1403 2563 1034 2156 
L 1034 647 
Q 1034 356 1069 288 
Q 1113 197 1189 155 
Q 1266 113 1500 113 
L 1500 0 
L 84 0 
L 84 113 
L 147 113 
Q 366 113 442 223 
Q 519 334 519 647 
L 519 1709 
Q 519 2225 495 2337 
Q 472 2450 423 2490 
Q 375 2531 294 2531 
Q 206 2531 84 2484 
L 38 2597 
L 900 2947 
L 1034 2947 
L 1034 2341 
z
" transform="scale(0.015625)"/>
      <path id="TimesNewRomanPSMT-76" d="M 53 2863 
L 1400 2863 
L 1400 2747 
L 1313 2747 
Q 1191 2747 1127 2687 
Q 1063 2628 1063 2528 
Q 1063 2419 1128 2269 
L 1794 688 
L 2463 2328 
Q 2534 2503 2534 2594 
Q 2534 2638 2509 2666 
Q 2475 2713 2422 2730 
Q 2369 2747 2206 2747 
L 2206 2863 
L 3141 2863 
L 3141 2747 
Q 2978 2734 2916 2681 
Q 2806 2588 2719 2369 
L 1703 -88 
L 1575 -88 
L 553 2328 
Q 484 2497 421 2570 
Q 359 2644 263 2694 
Q 209 2722 53 2747 
L 53 2863 
z
" transform="scale(0.015625)"/>
      <path id="TimesNewRomanPSMT-69" d="M 928 4444 
Q 1059 4444 1151 4351 
Q 1244 4259 1244 4128 
Q 1244 3997 1151 3903 
Q 1059 3809 928 3809 
Q 797 3809 703 3903 
Q 609 3997 609 4128 
Q 609 4259 701 4351 
Q 794 4444 928 4444 
z
M 1188 2947 
L 1188 647 
Q 1188 378 1227 289 
Q 1266 200 1342 156 
Q 1419 113 1622 113 
L 1622 0 
L 231 0 
L 231 113 
Q 441 113 512 153 
Q 584 194 626 287 
Q 669 381 669 647 
L 669 1750 
Q 669 2216 641 2353 
Q 619 2453 572 2492 
Q 525 2531 444 2531 
Q 356 2531 231 2484 
L 188 2597 
L 1050 2947 
L 1188 2947 
z
" transform="scale(0.015625)"/>
     </defs>
     <use xlink:href="#TimesNewRomanPSMT-41"/>
     <use xlink:href="#TimesNewRomanPSMT-63" transform="translate(72.216797 0)"/>
     <use xlink:href="#TimesNewRomanPSMT-63" transform="translate(116.601562 0)"/>
     <use xlink:href="#TimesNewRomanPSMT-75" transform="translate(160.986328 0)"/>
     <use xlink:href="#TimesNewRomanPSMT-72" transform="translate(210.986328 0)"/>
     <use xlink:href="#TimesNewRomanPSMT-61" transform="translate(244.287109 0)"/>
     <use xlink:href="#TimesNewRomanPSMT-63" transform="translate(288.671875 0)"/>
     <use xlink:href="#TimesNewRomanPSMT-79" transform="translate(333.056641 0)"/>
     <use xlink:href="#TimesNewRomanPSMT-20" transform="translate(383.056641 0)"/>
     <use xlink:href="#TimesNewRomanPSMT-6f" transform="translate(408.056641 0)"/>
     <use xlink:href="#TimesNewRomanPSMT-66" transform="translate(458.056641 0)"/>
     <use xlink:href="#TimesNewRomanPSMT-20" transform="translate(491.357422 0)"/>
     <use xlink:href="#TimesNewRomanPSMT-74" transform="translate(516.357422 0)"/>
     <use xlink:href="#TimesNewRomanPSMT-68" transform="translate(544.140625 0)"/>
     <use xlink:href="#TimesNewRomanPSMT-65" transform="translate(594.140625 0)"/>
     <use xlink:href="#TimesNewRomanPSMT-20" transform="translate(638.525391 0)"/>
     <use xlink:href="#TimesNewRomanPSMT-30" transform="translate(663.525391 0)"/>
     <use xlink:href="#TimesNewRomanPSMT-39" transform="translate(713.525391 0)"/>
     <use xlink:href="#TimesNewRomanPSMT-5f" transform="translate(763.525391 0)"/>
     <use xlink:href="#TimesNewRomanPSMT-30" transform="translate(813.525391 0)"/>
     <use xlink:href="#TimesNewRomanPSMT-37" transform="translate(863.525391 0)"/>
     <use xlink:href="#TimesNewRomanPSMT-5f" transform="translate(913.525391 0)"/>
     <use xlink:href="#TimesNewRomanPSMT-32" transform="translate(963.525391 0)"/>
     <use xlink:href="#TimesNewRomanPSMT-35" transform="translate(1013.525391 0)"/>
     <use xlink:href="#TimesNewRomanPSMT-5f" transform="translate(1063.525391 0)"/>
     <use xlink:href="#TimesNewRomanPSMT-43" transform="translate(1113.525391 0)"/>
     <use xlink:href="#TimesNewRomanPSMT-49" transform="translate(1180.224609 0)"/>
     <use xlink:href="#TimesNewRomanPSMT-46" transform="translate(1213.525391 0)"/>
     <use xlink:href="#TimesNewRomanPSMT-41" transform="translate(1261.765625 0)"/>
     <use xlink:href="#TimesNewRomanPSMT-52" transform="translate(1333.982422 0)"/>
     <use xlink:href="#TimesNewRomanPSMT-31" transform="translate(1400.681641 0)"/>
     <use xlink:href="#TimesNewRomanPSMT-30" transform="translate(1450.681641 0)"/>
     <use xlink:href="#TimesNewRomanPSMT-5f" transform="translate(1500.681641 0)"/>
     <use xlink:href="#TimesNewRomanPSMT-74" transform="translate(1550.681641 0)"/>
     <use xlink:href="#TimesNewRomanPSMT-6f" transform="translate(1578.464844 0)"/>
     <use xlink:href="#TimesNewRomanPSMT-72" transform="translate(1628.464844 0)"/>
     <use xlink:href="#TimesNewRomanPSMT-63" transform="translate(1661.765625 0)"/>
     <use xlink:href="#TimesNewRomanPSMT-68" transform="translate(1706.150391 0)"/>
     <use xlink:href="#TimesNewRomanPSMT-5f" transform="translate(1756.150391 0)"/>
     <use xlink:href="#TimesNewRomanPSMT-6d" transform="translate(1806.150391 0)"/>
     <use xlink:href="#TimesNewRomanPSMT-6f" transform="translate(1883.933594 0)"/>
     <use xlink:href="#TimesNewRomanPSMT-64" transform="translate(1933.933594 0)"/>
     <use xlink:href="#TimesNewRomanPSMT-65" transform="translate(1983.933594 0)"/>
     <use xlink:href="#TimesNewRomanPSMT-6c" transform="translate(2028.318359 0)"/>
     <use xlink:href="#TimesNewRomanPSMT-5f" transform="translate(2056.101562 0)"/>
     <use xlink:href="#TimesNewRomanPSMT-28" transform="translate(2106.101562 0)"/>
     <use xlink:href="#TimesNewRomanPSMT-31" transform="translate(2139.402344 0)"/>
     <use xlink:href="#TimesNewRomanPSMT-30" transform="translate(2189.402344 0)"/>
     <use xlink:href="#TimesNewRomanPSMT-32" transform="translate(2239.402344 0)"/>
     <use xlink:href="#TimesNewRomanPSMT-34" transform="translate(2289.402344 0)"/>
     <use xlink:href="#TimesNewRomanPSMT-2b" transform="translate(2339.402344 0)"/>
     <use xlink:href="#TimesNewRomanPSMT-32" transform="translate(2395.798828 0)"/>
     <use xlink:href="#TimesNewRomanPSMT-30" transform="translate(2445.798828 0)"/>
     <use xlink:href="#TimesNewRomanPSMT-34" transform="translate(2495.798828 0)"/>
     <use xlink:href="#TimesNewRomanPSMT-38" transform="translate(2545.798828 0)"/>
     <use xlink:href="#TimesNewRomanPSMT-2e" transform="translate(2595.798828 0)"/>
     <use xlink:href="#TimesNewRomanPSMT-31" transform="translate(2620.798828 0)"/>
     <use xlink:href="#TimesNewRomanPSMT-2b" transform="translate(2670.798828 0)"/>
     <use xlink:href="#TimesNewRomanPSMT-31" transform="translate(2727.195312 0)"/>
     <use xlink:href="#TimesNewRomanPSMT-29" transform="translate(2777.195312 0)"/>
     <use xlink:href="#TimesNewRomanPSMT-5f" transform="translate(2810.496094 0)"/>
     <use xlink:href="#TimesNewRomanPSMT-65" transform="translate(2860.496094 0)"/>
     <use xlink:href="#TimesNewRomanPSMT-6c" transform="translate(2904.880859 0)"/>
     <use xlink:href="#TimesNewRomanPSMT-6b" transform="translate(2932.664062 0)"/>
     <use xlink:href="#TimesNewRomanPSMT-2d" transform="translate(2982.664062 0)"/>
     <use xlink:href="#TimesNewRomanPSMT-68" transform="translate(3015.964844 0)"/>
     <use xlink:href="#TimesNewRomanPSMT-6f" transform="translate(3065.964844 0)"/>
     <use xlink:href="#TimesNewRomanPSMT-72" transform="translate(3115.964844 0)"/>
     <use xlink:href="#TimesNewRomanPSMT-73" transform="translate(3149.265625 0)"/>
     <use xlink:href="#TimesNewRomanPSMT-65" transform="translate(3188.181641 0)"/>
     <use xlink:href="#TimesNewRomanPSMT-20" transform="translate(3232.566406 0)"/>
     <use xlink:href="#TimesNewRomanPSMT-6f" transform="translate(3257.566406 0)"/>
     <use xlink:href="#TimesNewRomanPSMT-6e" transform="translate(3307.566406 0)"/>
     <use xlink:href="#TimesNewRomanPSMT-20" transform="translate(3357.566406 0)"/>
     <use xlink:href="#TimesNewRomanPSMT-74" transform="translate(3382.566406 0)"/>
     <use xlink:href="#TimesNewRomanPSMT-68" transform="translate(3410.349609 0)"/>
     <use xlink:href="#TimesNewRomanPSMT-65" transform="translate(3460.349609 0)"/>
     <use xlink:href="#TimesNewRomanPSMT-20" transform="translate(3504.734375 0)"/>
     <use xlink:href="#TimesNewRomanPSMT-76" transform="translate(3529.734375 0)"/>
     <use xlink:href="#TimesNewRomanPSMT-61" transform="translate(3579.734375 0)"/>
     <use xlink:href="#TimesNewRomanPSMT-6c" transform="translate(3624.119141 0)"/>
     <use xlink:href="#TimesNewRomanPSMT-69" transform="translate(3651.902344 0)"/>
     <use xlink:href="#TimesNewRomanPSMT-64" transform="translate(3679.685547 0)"/>
     <use xlink:href="#TimesNewRomanPSMT-61" transform="translate(3729.685547 0)"/>
     <use xlink:href="#TimesNewRomanPSMT-74" transform="translate(3774.070312 0)"/>
     <use xlink:href="#TimesNewRomanPSMT-69" transform="translate(3801.853516 0)"/>
     <use xlink:href="#TimesNewRomanPSMT-6f" transform="translate(3829.636719 0)"/>
     <use xlink:href="#TimesNewRomanPSMT-6e" transform="translate(3879.636719 0)"/>
     <use xlink:href="#TimesNewRomanPSMT-20" transform="translate(3929.636719 0)"/>
     <use xlink:href="#TimesNewRomanPSMT-73" transform="translate(3954.636719 0)"/>
     <use xlink:href="#TimesNewRomanPSMT-65" transform="translate(3993.552734 0)"/>
     <use xlink:href="#TimesNewRomanPSMT-74" transform="translate(4037.9375 0)"/>
    </g>
   </g>
   <g id="legend_1">
    <g id="patch_7">
     <path d="M 480.868688 94.278687 
L 707.039 94.278687 
Q 711.439 94.278687 711.439 89.878687 
L 711.439 60.9315 
Q 711.439 56.5315 707.039 56.5315 
L 480.868688 56.5315 
Q 476.468688 56.5315 476.468688 60.9315 
L 476.468688 89.878687 
Q 476.468688 94.278687 480.868688 94.278687 
z
" style="fill: #ffffff; opacity: 0.8; stroke: #cccccc; stroke-linejoin: miter"/>
    </g>
    <g id="line2d_32">
     <path d="M 485.268688 73.0315 
L 507.268688 73.0315 
L 529.268688 73.0315 
" style="fill: none; stroke: #1f77b4; stroke-width: 1.5; stroke-linecap: square"/>
    </g>
    <g id="text_19">
     <!-- Best accuracy 0.8 -->
     <g transform="translate(546.868688 80.7315) scale(0.22 -0.22)">
      <defs>
       <path id="TimesNewRomanPSMT-42" d="M 2956 2163 
Q 3397 2069 3616 1863 
Q 3919 1575 3919 1159 
Q 3919 844 3719 555 
Q 3519 266 3170 133 
Q 2822 0 2106 0 
L 106 0 
L 106 116 
L 266 116 
Q 531 116 647 284 
Q 719 394 719 750 
L 719 3488 
Q 719 3881 628 3984 
Q 506 4122 266 4122 
L 106 4122 
L 106 4238 
L 1938 4238 
Q 2450 4238 2759 4163 
Q 3228 4050 3475 3764 
Q 3722 3478 3722 3106 
Q 3722 2788 3528 2536 
Q 3334 2284 2956 2163 
z
M 1319 2331 
Q 1434 2309 1582 2298 
Q 1731 2288 1909 2288 
Q 2366 2288 2595 2386 
Q 2825 2484 2947 2687 
Q 3069 2891 3069 3131 
Q 3069 3503 2766 3765 
Q 2463 4028 1881 4028 
Q 1569 4028 1319 3959 
L 1319 2331 
z
M 1319 306 
Q 1681 222 2034 222 
Q 2600 222 2897 476 
Q 3194 731 3194 1106 
Q 3194 1353 3059 1581 
Q 2925 1809 2622 1940 
Q 2319 2072 1872 2072 
Q 1678 2072 1540 2065 
Q 1403 2059 1319 2044 
L 1319 306 
z
" transform="scale(0.015625)"/>
      </defs>
      <use xlink:href="#TimesNewRomanPSMT-42"/>
      <use xlink:href="#TimesNewRomanPSMT-65" transform="translate(66.699219 0)"/>
      <use xlink:href="#TimesNewRomanPSMT-73" transform="translate(111.083984 0)"/>
      <use xlink:href="#TimesNewRomanPSMT-74" transform="translate(150 0)"/>
      <use xlink:href="#TimesNewRomanPSMT-20" transform="translate(177.783203 0)"/>
      <use xlink:href="#TimesNewRomanPSMT-61" transform="translate(202.783203 0)"/>
      <use xlink:href="#TimesNewRomanPSMT-63" transform="translate(247.167969 0)"/>
      <use xlink:href="#TimesNewRomanPSMT-63" transform="translate(291.552734 0)"/>
      <use xlink:href="#TimesNewRomanPSMT-75" transform="translate(335.9375 0)"/>
      <use xlink:href="#TimesNewRomanPSMT-72" transform="translate(385.9375 0)"/>
      <use xlink:href="#TimesNewRomanPSMT-61" transform="translate(419.238281 0)"/>
      <use xlink:href="#TimesNewRomanPSMT-63" transform="translate(463.623047 0)"/>
      <use xlink:href="#TimesNewRomanPSMT-79" transform="translate(508.007812 0)"/>
      <use xlink:href="#TimesNewRomanPSMT-20" transform="translate(558.007812 0)"/>
      <use xlink:href="#TimesNewRomanPSMT-30" transform="translate(583.007812 0)"/>
      <use xlink:href="#TimesNewRomanPSMT-2e" transform="translate(633.007812 0)"/>
      <use xlink:href="#TimesNewRomanPSMT-38" transform="translate(658.007812 0)"/>
     </g>
    </g>
   </g>
  </g>
 </g>
 <defs>
  <clipPath id="pd2b4690b4e">
   <rect x="365.319" y="45.5315" width="357.12" height="266.112"/>
  </clipPath>
 </defs>
</svg>
