<?xml version="1.0" encoding="utf-8" standalone="no"?>
<!DOCTYPE svg PUBLIC "-//W3C//DTD SVG 1.1//EN"
  "http://www.w3.org/Graphics/SVG/1.1/DTD/svg11.dtd">
<svg xmlns:xlink="http://www.w3.org/1999/xlink" width="1219.885875pt" height="369.807875pt" viewBox="0 0 1219.885875 369.807875" xmlns="http://www.w3.org/2000/svg" version="1.1">
 <metadata>
  <rdf:RDF xmlns:dc="http://purl.org/dc/elements/1.1/" xmlns:cc="http://creativecommons.org/ns#" xmlns:rdf="http://www.w3.org/1999/02/22-rdf-syntax-ns#">
   <cc:Work>
    <dc:type rdf:resource="http://purl.org/dc/dcmitype/StillImage"/>
    <dc:date>2025-06-10T17:31:21.336368</dc:date>
    <dc:format>image/svg+xml</dc:format>
    <dc:creator>
     <cc:Agent>
      <dc:title>Matplotlib v3.10.1, https://matplotlib.org/</dc:title>
     </cc:Agent>
    </dc:creator>
   </cc:Work>
  </rdf:RDF>
 </metadata>
 <defs>
  <style type="text/css">*{stroke-linejoin: round; stroke-linecap: butt}</style>
 </defs>
 <g id="figure_1">
  <g id="patch_1">
   <path d="M -0 369.807875 
L 1219.885875 369.807875 
L 1219.885875 0 
L -0 0 
z
" style="fill: #ffffff"/>
  </g>
  <g id="axes_1">
   <g id="patch_2">
    <path d="M 431.382938 311.6435 
L 788.502938 311.6435 
L 788.502938 45.5315 
L 431.382938 45.5315 
z
" style="fill: #ffffff"/>
   </g>
   <g id="matplotlib.axis_1">
    <g id="xtick_1">
     <g id="line2d_1">
      <path d="M 431.382938 311.6435 
L 431.382938 45.5315 
" clip-path="url(#p521fd2d45e)" style="fill: none; stroke: #b0b0b0; stroke-opacity: 0.3; stroke-width: 0.8; stroke-linecap: square"/>
     </g>
     <g id="line2d_2">
      <defs>
       <path id="m90a754d2c8" d="M 0 0 
L 0 3.5 
" style="stroke: #000000; stroke-width: 0.8"/>
      </defs>
      <g>
       <use xlink:href="#m90a754d2c8" x="431.382938" y="311.6435" style="stroke: #000000; stroke-width: 0.8"/>
      </g>
     </g>
     <g id="text_1">
      <!-- 0 -->
      <g transform="translate(425.882938 333.91975) scale(0.22 -0.22)">
       <defs>
        <path id="TimesNewRomanPSMT-30" d="M 231 2094 
Q 231 2819 450 3342 
Q 669 3866 1031 4122 
Q 1313 4325 1613 4325 
Q 2100 4325 2488 3828 
Q 2972 3213 2972 2159 
Q 2972 1422 2759 906 
Q 2547 391 2217 158 
Q 1888 -75 1581 -75 
Q 975 -75 572 641 
Q 231 1244 231 2094 
z
M 844 2016 
Q 844 1141 1059 588 
Q 1238 122 1591 122 
Q 1759 122 1940 273 
Q 2122 425 2216 781 
Q 2359 1319 2359 2297 
Q 2359 3022 2209 3506 
Q 2097 3866 1919 4016 
Q 1791 4119 1609 4119 
Q 1397 4119 1231 3928 
Q 1006 3669 925 3112 
Q 844 2556 844 2016 
z
" transform="scale(0.015625)"/>
       </defs>
       <use xlink:href="#TimesNewRomanPSMT-30"/>
      </g>
     </g>
    </g>
    <g id="xtick_2">
     <g id="line2d_3">
      <path d="M 520.976515 311.6435 
L 520.976515 45.5315 
" clip-path="url(#p521fd2d45e)" style="fill: none; stroke: #b0b0b0; stroke-opacity: 0.3; stroke-width: 0.8; stroke-linecap: square"/>
     </g>
     <g id="line2d_4">
      <g>
       <use xlink:href="#m90a754d2c8" x="520.976515" y="311.6435" style="stroke: #000000; stroke-width: 0.8"/>
      </g>
     </g>
     <g id="text_2">
      <!-- 100000 -->
      <g transform="translate(487.976515 333.91975) scale(0.22 -0.22)">
       <defs>
        <path id="TimesNewRomanPSMT-31" d="M 750 3822 
L 1781 4325 
L 1884 4325 
L 1884 747 
Q 1884 391 1914 303 
Q 1944 216 2037 169 
Q 2131 122 2419 116 
L 2419 0 
L 825 0 
L 825 116 
Q 1125 122 1212 167 
Q 1300 213 1334 289 
Q 1369 366 1369 747 
L 1369 3034 
Q 1369 3497 1338 3628 
Q 1316 3728 1258 3775 
Q 1200 3822 1119 3822 
Q 1003 3822 797 3725 
L 750 3822 
z
" transform="scale(0.015625)"/>
       </defs>
       <use xlink:href="#TimesNewRomanPSMT-31"/>
       <use xlink:href="#TimesNewRomanPSMT-30" transform="translate(50 0)"/>
       <use xlink:href="#TimesNewRomanPSMT-30" transform="translate(100 0)"/>
       <use xlink:href="#TimesNewRomanPSMT-30" transform="translate(150 0)"/>
       <use xlink:href="#TimesNewRomanPSMT-30" transform="translate(200 0)"/>
       <use xlink:href="#TimesNewRomanPSMT-30" transform="translate(250 0)"/>
      </g>
     </g>
    </g>
    <g id="xtick_3">
     <g id="line2d_5">
      <path d="M 610.570093 311.6435 
L 610.570093 45.5315 
" clip-path="url(#p521fd2d45e)" style="fill: none; stroke: #b0b0b0; stroke-opacity: 0.3; stroke-width: 0.8; stroke-linecap: square"/>
     </g>
     <g id="line2d_6">
      <g>
       <use xlink:href="#m90a754d2c8" x="610.570093" y="311.6435" style="stroke: #000000; stroke-width: 0.8"/>
      </g>
     </g>
     <g id="text_3">
      <!-- 200000 -->
      <g transform="translate(577.570093 333.91975) scale(0.22 -0.22)">
       <defs>
        <path id="TimesNewRomanPSMT-32" d="M 2934 816 
L 2638 0 
L 138 0 
L 138 116 
Q 1241 1122 1691 1759 
Q 2141 2397 2141 2925 
Q 2141 3328 1894 3587 
Q 1647 3847 1303 3847 
Q 991 3847 742 3664 
Q 494 3481 375 3128 
L 259 3128 
Q 338 3706 661 4015 
Q 984 4325 1469 4325 
Q 1984 4325 2329 3994 
Q 2675 3663 2675 3213 
Q 2675 2891 2525 2569 
Q 2294 2063 1775 1497 
Q 997 647 803 472 
L 1909 472 
Q 2247 472 2383 497 
Q 2519 522 2628 598 
Q 2738 675 2819 816 
L 2934 816 
z
" transform="scale(0.015625)"/>
       </defs>
       <use xlink:href="#TimesNewRomanPSMT-32"/>
       <use xlink:href="#TimesNewRomanPSMT-30" transform="translate(50 0)"/>
       <use xlink:href="#TimesNewRomanPSMT-30" transform="translate(100 0)"/>
       <use xlink:href="#TimesNewRomanPSMT-30" transform="translate(150 0)"/>
       <use xlink:href="#TimesNewRomanPSMT-30" transform="translate(200 0)"/>
       <use xlink:href="#TimesNewRomanPSMT-30" transform="translate(250 0)"/>
      </g>
     </g>
    </g>
    <g id="xtick_4">
     <g id="line2d_7">
      <path d="M 700.16367 311.6435 
L 700.16367 45.5315 
" clip-path="url(#p521fd2d45e)" style="fill: none; stroke: #b0b0b0; stroke-opacity: 0.3; stroke-width: 0.8; stroke-linecap: square"/>
     </g>
     <g id="line2d_8">
      <g>
       <use xlink:href="#m90a754d2c8" x="700.16367" y="311.6435" style="stroke: #000000; stroke-width: 0.8"/>
      </g>
     </g>
     <g id="text_4">
      <!-- 300000 -->
      <g transform="translate(667.16367 333.91975) scale(0.22 -0.22)">
       <defs>
        <path id="TimesNewRomanPSMT-33" d="M 325 3431 
Q 506 3859 782 4092 
Q 1059 4325 1472 4325 
Q 1981 4325 2253 3994 
Q 2459 3747 2459 3466 
Q 2459 3003 1878 2509 
Q 2269 2356 2469 2072 
Q 2669 1788 2669 1403 
Q 2669 853 2319 450 
Q 1863 -75 997 -75 
Q 569 -75 414 31 
Q 259 138 259 259 
Q 259 350 332 419 
Q 406 488 509 488 
Q 588 488 669 463 
Q 722 447 909 348 
Q 1097 250 1169 231 
Q 1284 197 1416 197 
Q 1734 197 1970 444 
Q 2206 691 2206 1028 
Q 2206 1275 2097 1509 
Q 2016 1684 1919 1775 
Q 1784 1900 1550 2001 
Q 1316 2103 1072 2103 
L 972 2103 
L 972 2197 
Q 1219 2228 1467 2375 
Q 1716 2522 1828 2728 
Q 1941 2934 1941 3181 
Q 1941 3503 1739 3701 
Q 1538 3900 1238 3900 
Q 753 3900 428 3381 
L 325 3431 
z
" transform="scale(0.015625)"/>
       </defs>
       <use xlink:href="#TimesNewRomanPSMT-33"/>
       <use xlink:href="#TimesNewRomanPSMT-30" transform="translate(50 0)"/>
       <use xlink:href="#TimesNewRomanPSMT-30" transform="translate(100 0)"/>
       <use xlink:href="#TimesNewRomanPSMT-30" transform="translate(150 0)"/>
       <use xlink:href="#TimesNewRomanPSMT-30" transform="translate(200 0)"/>
       <use xlink:href="#TimesNewRomanPSMT-30" transform="translate(250 0)"/>
      </g>
     </g>
    </g>
    <g id="text_5">
     <!-- Number of iterations -->
     <g transform="translate(518.300906 357.901937) scale(0.22 -0.22)">
      <defs>
       <path id="TimesNewRomanPSMT-4e" d="M -84 4238 
L 1066 4238 
L 3656 1059 
L 3656 3503 
Q 3656 3894 3569 3991 
Q 3453 4122 3203 4122 
L 3056 4122 
L 3056 4238 
L 4531 4238 
L 4531 4122 
L 4381 4122 
Q 4113 4122 4000 3959 
Q 3931 3859 3931 3503 
L 3931 -69 
L 3819 -69 
L 1025 3344 
L 1025 734 
Q 1025 344 1109 247 
Q 1228 116 1475 116 
L 1625 116 
L 1625 0 
L 150 0 
L 150 116 
L 297 116 
Q 569 116 681 278 
Q 750 378 750 734 
L 750 3681 
Q 566 3897 470 3965 
Q 375 4034 191 4094 
Q 100 4122 -84 4122 
L -84 4238 
z
" transform="scale(0.015625)"/>
       <path id="TimesNewRomanPSMT-75" d="M 2709 2863 
L 2709 1128 
Q 2709 631 2732 520 
Q 2756 409 2807 365 
Q 2859 322 2928 322 
Q 3025 322 3147 375 
L 3191 266 
L 2334 -88 
L 2194 -88 
L 2194 519 
Q 1825 119 1631 15 
Q 1438 -88 1222 -88 
Q 981 -88 804 51 
Q 628 191 559 409 
Q 491 628 491 1028 
L 491 2306 
Q 491 2509 447 2587 
Q 403 2666 317 2708 
Q 231 2750 6 2747 
L 6 2863 
L 1009 2863 
L 1009 947 
Q 1009 547 1148 422 
Q 1288 297 1484 297 
Q 1619 297 1789 381 
Q 1959 466 2194 703 
L 2194 2325 
Q 2194 2569 2105 2655 
Q 2016 2741 1734 2747 
L 1734 2863 
L 2709 2863 
z
" transform="scale(0.015625)"/>
       <path id="TimesNewRomanPSMT-6d" d="M 1050 2338 
Q 1363 2650 1419 2697 
Q 1559 2816 1721 2881 
Q 1884 2947 2044 2947 
Q 2313 2947 2506 2790 
Q 2700 2634 2766 2338 
Q 3088 2713 3309 2830 
Q 3531 2947 3766 2947 
Q 3994 2947 4170 2830 
Q 4347 2713 4450 2447 
Q 4519 2266 4519 1878 
L 4519 647 
Q 4519 378 4559 278 
Q 4591 209 4675 161 
Q 4759 113 4950 113 
L 4950 0 
L 3538 0 
L 3538 113 
L 3597 113 
Q 3781 113 3884 184 
Q 3956 234 3988 344 
Q 4000 397 4000 647 
L 4000 1878 
Q 4000 2228 3916 2372 
Q 3794 2572 3525 2572 
Q 3359 2572 3192 2489 
Q 3025 2406 2788 2181 
L 2781 2147 
L 2788 2013 
L 2788 647 
Q 2788 353 2820 281 
Q 2853 209 2943 161 
Q 3034 113 3253 113 
L 3253 0 
L 1806 0 
L 1806 113 
Q 2044 113 2133 169 
Q 2222 225 2256 338 
Q 2272 391 2272 647 
L 2272 1878 
Q 2272 2228 2169 2381 
Q 2031 2581 1784 2581 
Q 1616 2581 1450 2491 
Q 1191 2353 1050 2181 
L 1050 647 
Q 1050 366 1089 281 
Q 1128 197 1204 155 
Q 1281 113 1516 113 
L 1516 0 
L 100 0 
L 100 113 
Q 297 113 375 155 
Q 453 197 493 289 
Q 534 381 534 647 
L 534 1741 
Q 534 2213 506 2350 
Q 484 2453 437 2492 
Q 391 2531 309 2531 
Q 222 2531 100 2484 
L 53 2597 
L 916 2947 
L 1050 2947 
L 1050 2338 
z
" transform="scale(0.015625)"/>
       <path id="TimesNewRomanPSMT-62" d="M 984 2369 
Q 1400 2947 1881 2947 
Q 2322 2947 2650 2570 
Q 2978 2194 2978 1541 
Q 2978 778 2472 313 
Q 2038 -88 1503 -88 
Q 1253 -88 995 3 
Q 738 94 469 275 
L 469 3241 
Q 469 3728 445 3840 
Q 422 3953 372 3993 
Q 322 4034 247 4034 
Q 159 4034 28 3984 
L -16 4094 
L 844 4444 
L 984 4444 
L 984 2369 
z
M 984 2169 
L 984 456 
Q 1144 300 1314 220 
Q 1484 141 1663 141 
Q 1947 141 2192 453 
Q 2438 766 2438 1363 
Q 2438 1913 2192 2208 
Q 1947 2503 1634 2503 
Q 1469 2503 1303 2419 
Q 1178 2356 984 2169 
z
" transform="scale(0.015625)"/>
       <path id="TimesNewRomanPSMT-65" d="M 681 1784 
Q 678 1147 991 784 
Q 1303 422 1725 422 
Q 2006 422 2214 576 
Q 2422 731 2563 1106 
L 2659 1044 
Q 2594 616 2278 264 
Q 1963 -88 1488 -88 
Q 972 -88 605 314 
Q 238 716 238 1394 
Q 238 2128 614 2539 
Q 991 2950 1559 2950 
Q 2041 2950 2350 2633 
Q 2659 2316 2659 1784 
L 681 1784 
z
M 681 1966 
L 2006 1966 
Q 1991 2241 1941 2353 
Q 1863 2528 1708 2628 
Q 1553 2728 1384 2728 
Q 1125 2728 920 2526 
Q 716 2325 681 1966 
z
" transform="scale(0.015625)"/>
       <path id="TimesNewRomanPSMT-72" d="M 1038 2947 
L 1038 2303 
Q 1397 2947 1775 2947 
Q 1947 2947 2059 2842 
Q 2172 2738 2172 2600 
Q 2172 2478 2090 2393 
Q 2009 2309 1897 2309 
Q 1788 2309 1652 2417 
Q 1516 2525 1450 2525 
Q 1394 2525 1328 2463 
Q 1188 2334 1038 2041 
L 1038 669 
Q 1038 431 1097 309 
Q 1138 225 1241 169 
Q 1344 113 1538 113 
L 1538 0 
L 72 0 
L 72 113 
Q 291 113 397 181 
Q 475 231 506 341 
Q 522 394 522 644 
L 522 1753 
Q 522 2253 501 2348 
Q 481 2444 426 2487 
Q 372 2531 291 2531 
Q 194 2531 72 2484 
L 41 2597 
L 906 2947 
L 1038 2947 
z
" transform="scale(0.015625)"/>
       <path id="TimesNewRomanPSMT-20" transform="scale(0.015625)"/>
       <path id="TimesNewRomanPSMT-6f" d="M 1600 2947 
Q 2250 2947 2644 2453 
Q 2978 2031 2978 1484 
Q 2978 1100 2793 706 
Q 2609 313 2286 112 
Q 1963 -88 1566 -88 
Q 919 -88 538 428 
Q 216 863 216 1403 
Q 216 1797 411 2186 
Q 606 2575 925 2761 
Q 1244 2947 1600 2947 
z
M 1503 2744 
Q 1338 2744 1170 2645 
Q 1003 2547 900 2300 
Q 797 2053 797 1666 
Q 797 1041 1045 587 
Q 1294 134 1700 134 
Q 2003 134 2200 384 
Q 2397 634 2397 1244 
Q 2397 2006 2069 2444 
Q 1847 2744 1503 2744 
z
" transform="scale(0.015625)"/>
       <path id="TimesNewRomanPSMT-66" d="M 1319 2638 
L 1319 756 
Q 1319 356 1406 250 
Q 1522 113 1716 113 
L 1975 113 
L 1975 0 
L 266 0 
L 266 113 
L 394 113 
Q 519 113 622 175 
Q 725 238 764 344 
Q 803 450 803 756 
L 803 2638 
L 247 2638 
L 247 2863 
L 803 2863 
L 803 3050 
Q 803 3478 940 3775 
Q 1078 4072 1361 4255 
Q 1644 4438 1997 4438 
Q 2325 4438 2600 4225 
Q 2781 4084 2781 3909 
Q 2781 3816 2700 3733 
Q 2619 3650 2525 3650 
Q 2453 3650 2373 3701 
Q 2294 3753 2178 3923 
Q 2063 4094 1966 4153 
Q 1869 4213 1750 4213 
Q 1606 4213 1506 4136 
Q 1406 4059 1362 3898 
Q 1319 3738 1319 3069 
L 1319 2863 
L 2056 2863 
L 2056 2638 
L 1319 2638 
z
" transform="scale(0.015625)"/>
       <path id="TimesNewRomanPSMT-69" d="M 928 4444 
Q 1059 4444 1151 4351 
Q 1244 4259 1244 4128 
Q 1244 3997 1151 3903 
Q 1059 3809 928 3809 
Q 797 3809 703 3903 
Q 609 3997 609 4128 
Q 609 4259 701 4351 
Q 794 4444 928 4444 
z
M 1188 2947 
L 1188 647 
Q 1188 378 1227 289 
Q 1266 200 1342 156 
Q 1419 113 1622 113 
L 1622 0 
L 231 0 
L 231 113 
Q 441 113 512 153 
Q 584 194 626 287 
Q 669 381 669 647 
L 669 1750 
Q 669 2216 641 2353 
Q 619 2453 572 2492 
Q 525 2531 444 2531 
Q 356 2531 231 2484 
L 188 2597 
L 1050 2947 
L 1188 2947 
z
" transform="scale(0.015625)"/>
       <path id="TimesNewRomanPSMT-74" d="M 1031 3803 
L 1031 2863 
L 1700 2863 
L 1700 2644 
L 1031 2644 
L 1031 788 
Q 1031 509 1111 412 
Q 1191 316 1316 316 
Q 1419 316 1516 380 
Q 1613 444 1666 569 
L 1788 569 
Q 1678 263 1478 108 
Q 1278 -47 1066 -47 
Q 922 -47 784 33 
Q 647 113 581 261 
Q 516 409 516 719 
L 516 2644 
L 63 2644 
L 63 2747 
Q 234 2816 414 2980 
Q 594 3144 734 3369 
Q 806 3488 934 3803 
L 1031 3803 
z
" transform="scale(0.015625)"/>
       <path id="TimesNewRomanPSMT-61" d="M 1822 413 
Q 1381 72 1269 19 
Q 1100 -59 909 -59 
Q 613 -59 420 144 
Q 228 347 228 678 
Q 228 888 322 1041 
Q 450 1253 767 1440 
Q 1084 1628 1822 1897 
L 1822 2009 
Q 1822 2438 1686 2597 
Q 1550 2756 1291 2756 
Q 1094 2756 978 2650 
Q 859 2544 859 2406 
L 866 2225 
Q 866 2081 792 2003 
Q 719 1925 600 1925 
Q 484 1925 411 2006 
Q 338 2088 338 2228 
Q 338 2497 613 2722 
Q 888 2947 1384 2947 
Q 1766 2947 2009 2819 
Q 2194 2722 2281 2516 
Q 2338 2381 2338 1966 
L 2338 994 
Q 2338 584 2353 492 
Q 2369 400 2405 369 
Q 2441 338 2488 338 
Q 2538 338 2575 359 
Q 2641 400 2828 588 
L 2828 413 
Q 2478 -56 2159 -56 
Q 2006 -56 1915 50 
Q 1825 156 1822 413 
z
M 1822 616 
L 1822 1706 
Q 1350 1519 1213 1441 
Q 966 1303 859 1153 
Q 753 1003 753 825 
Q 753 600 887 451 
Q 1022 303 1197 303 
Q 1434 303 1822 616 
z
" transform="scale(0.015625)"/>
       <path id="TimesNewRomanPSMT-6e" d="M 1034 2341 
Q 1538 2947 1994 2947 
Q 2228 2947 2397 2830 
Q 2566 2713 2666 2444 
Q 2734 2256 2734 1869 
L 2734 647 
Q 2734 375 2778 278 
Q 2813 200 2889 156 
Q 2966 113 3172 113 
L 3172 0 
L 1756 0 
L 1756 113 
L 1816 113 
Q 2016 113 2095 173 
Q 2175 234 2206 353 
Q 2219 400 2219 647 
L 2219 1819 
Q 2219 2209 2117 2386 
Q 2016 2563 1775 2563 
Q 1403 2563 1034 2156 
L 1034 647 
Q 1034 356 1069 288 
Q 1113 197 1189 155 
Q 1266 113 1500 113 
L 1500 0 
L 84 0 
L 84 113 
L 147 113 
Q 366 113 442 223 
Q 519 334 519 647 
L 519 1709 
Q 519 2225 495 2337 
Q 472 2450 423 2490 
Q 375 2531 294 2531 
Q 206 2531 84 2484 
L 38 2597 
L 900 2947 
L 1034 2947 
L 1034 2341 
z
" transform="scale(0.015625)"/>
       <path id="TimesNewRomanPSMT-73" d="M 2050 2947 
L 2050 1972 
L 1947 1972 
Q 1828 2431 1642 2597 
Q 1456 2763 1169 2763 
Q 950 2763 815 2647 
Q 681 2531 681 2391 
Q 681 2216 781 2091 
Q 878 1963 1175 1819 
L 1631 1597 
Q 2266 1288 2266 781 
Q 2266 391 1970 151 
Q 1675 -88 1309 -88 
Q 1047 -88 709 6 
Q 606 38 541 38 
Q 469 38 428 -44 
L 325 -44 
L 325 978 
L 428 978 
Q 516 541 762 319 
Q 1009 97 1316 97 
Q 1531 97 1667 223 
Q 1803 350 1803 528 
Q 1803 744 1651 891 
Q 1500 1038 1047 1263 
Q 594 1488 453 1669 
Q 313 1847 313 2119 
Q 313 2472 555 2709 
Q 797 2947 1181 2947 
Q 1350 2947 1591 2875 
Q 1750 2828 1803 2828 
Q 1853 2828 1881 2850 
Q 1909 2872 1947 2947 
L 2050 2947 
z
" transform="scale(0.015625)"/>
      </defs>
      <use xlink:href="#TimesNewRomanPSMT-4e"/>
      <use xlink:href="#TimesNewRomanPSMT-75" transform="translate(72.216797 0)"/>
      <use xlink:href="#TimesNewRomanPSMT-6d" transform="translate(122.216797 0)"/>
      <use xlink:href="#TimesNewRomanPSMT-62" transform="translate(200 0)"/>
      <use xlink:href="#TimesNewRomanPSMT-65" transform="translate(250 0)"/>
      <use xlink:href="#TimesNewRomanPSMT-72" transform="translate(294.384766 0)"/>
      <use xlink:href="#TimesNewRomanPSMT-20" transform="translate(327.685547 0)"/>
      <use xlink:href="#TimesNewRomanPSMT-6f" transform="translate(352.685547 0)"/>
      <use xlink:href="#TimesNewRomanPSMT-66" transform="translate(402.685547 0)"/>
      <use xlink:href="#TimesNewRomanPSMT-20" transform="translate(435.986328 0)"/>
      <use xlink:href="#TimesNewRomanPSMT-69" transform="translate(460.986328 0)"/>
      <use xlink:href="#TimesNewRomanPSMT-74" transform="translate(488.769531 0)"/>
      <use xlink:href="#TimesNewRomanPSMT-65" transform="translate(516.552734 0)"/>
      <use xlink:href="#TimesNewRomanPSMT-72" transform="translate(560.9375 0)"/>
      <use xlink:href="#TimesNewRomanPSMT-61" transform="translate(594.238281 0)"/>
      <use xlink:href="#TimesNewRomanPSMT-74" transform="translate(638.623047 0)"/>
      <use xlink:href="#TimesNewRomanPSMT-69" transform="translate(666.40625 0)"/>
      <use xlink:href="#TimesNewRomanPSMT-6f" transform="translate(694.189453 0)"/>
      <use xlink:href="#TimesNewRomanPSMT-6e" transform="translate(744.189453 0)"/>
      <use xlink:href="#TimesNewRomanPSMT-73" transform="translate(794.189453 0)"/>
     </g>
    </g>
   </g>
   <g id="matplotlib.axis_2">
    <g id="ytick_1">
     <g id="line2d_9">
      <path d="M 431.382938 311.6435 
L 788.502938 311.6435 
" clip-path="url(#p521fd2d45e)" style="fill: none; stroke: #b0b0b0; stroke-opacity: 0.3; stroke-width: 0.8; stroke-linecap: square"/>
     </g>
     <g id="line2d_10">
      <defs>
       <path id="m30ab61bf2c" d="M 0 0 
L -3.5 0 
" style="stroke: #000000; stroke-width: 0.8"/>
      </defs>
      <g>
       <use xlink:href="#m30ab61bf2c" x="431.382938" y="311.6435" style="stroke: #000000; stroke-width: 0.8"/>
      </g>
     </g>
     <g id="text_6">
      <!-- 0.0 -->
      <g transform="translate(396.882938 319.281625) scale(0.22 -0.22)">
       <defs>
        <path id="TimesNewRomanPSMT-2e" d="M 800 606 
Q 947 606 1047 504 
Q 1147 403 1147 259 
Q 1147 116 1045 14 
Q 944 -88 800 -88 
Q 656 -88 554 14 
Q 453 116 453 259 
Q 453 406 554 506 
Q 656 606 800 606 
z
" transform="scale(0.015625)"/>
       </defs>
       <use xlink:href="#TimesNewRomanPSMT-30"/>
       <use xlink:href="#TimesNewRomanPSMT-2e" transform="translate(50 0)"/>
       <use xlink:href="#TimesNewRomanPSMT-30" transform="translate(75 0)"/>
      </g>
     </g>
    </g>
    <g id="ytick_2">
     <g id="line2d_11">
      <path d="M 431.382938 285.0323 
L 788.502938 285.0323 
" clip-path="url(#p521fd2d45e)" style="fill: none; stroke: #b0b0b0; stroke-opacity: 0.3; stroke-width: 0.8; stroke-linecap: square"/>
     </g>
     <g id="line2d_12">
      <g>
       <use xlink:href="#m30ab61bf2c" x="431.382938" y="285.0323" style="stroke: #000000; stroke-width: 0.8"/>
      </g>
     </g>
     <g id="text_7">
      <!-- 0.1 -->
      <g transform="translate(396.882938 292.670425) scale(0.22 -0.22)">
       <use xlink:href="#TimesNewRomanPSMT-30"/>
       <use xlink:href="#TimesNewRomanPSMT-2e" transform="translate(50 0)"/>
       <use xlink:href="#TimesNewRomanPSMT-31" transform="translate(75 0)"/>
      </g>
     </g>
    </g>
    <g id="ytick_3">
     <g id="line2d_13">
      <path d="M 431.382938 258.4211 
L 788.502938 258.4211 
" clip-path="url(#p521fd2d45e)" style="fill: none; stroke: #b0b0b0; stroke-opacity: 0.3; stroke-width: 0.8; stroke-linecap: square"/>
     </g>
     <g id="line2d_14">
      <g>
       <use xlink:href="#m30ab61bf2c" x="431.382938" y="258.4211" style="stroke: #000000; stroke-width: 0.8"/>
      </g>
     </g>
     <g id="text_8">
      <!-- 0.2 -->
      <g transform="translate(396.882938 266.059225) scale(0.22 -0.22)">
       <use xlink:href="#TimesNewRomanPSMT-30"/>
       <use xlink:href="#TimesNewRomanPSMT-2e" transform="translate(50 0)"/>
       <use xlink:href="#TimesNewRomanPSMT-32" transform="translate(75 0)"/>
      </g>
     </g>
    </g>
    <g id="ytick_4">
     <g id="line2d_15">
      <path d="M 431.382938 231.8099 
L 788.502938 231.8099 
" clip-path="url(#p521fd2d45e)" style="fill: none; stroke: #b0b0b0; stroke-opacity: 0.3; stroke-width: 0.8; stroke-linecap: square"/>
     </g>
     <g id="line2d_16">
      <g>
       <use xlink:href="#m30ab61bf2c" x="431.382938" y="231.8099" style="stroke: #000000; stroke-width: 0.8"/>
      </g>
     </g>
     <g id="text_9">
      <!-- 0.3 -->
      <g transform="translate(396.882938 239.448025) scale(0.22 -0.22)">
       <use xlink:href="#TimesNewRomanPSMT-30"/>
       <use xlink:href="#TimesNewRomanPSMT-2e" transform="translate(50 0)"/>
       <use xlink:href="#TimesNewRomanPSMT-33" transform="translate(75 0)"/>
      </g>
     </g>
    </g>
    <g id="ytick_5">
     <g id="line2d_17">
      <path d="M 431.382938 205.1987 
L 788.502938 205.1987 
" clip-path="url(#p521fd2d45e)" style="fill: none; stroke: #b0b0b0; stroke-opacity: 0.3; stroke-width: 0.8; stroke-linecap: square"/>
     </g>
     <g id="line2d_18">
      <g>
       <use xlink:href="#m30ab61bf2c" x="431.382938" y="205.1987" style="stroke: #000000; stroke-width: 0.8"/>
      </g>
     </g>
     <g id="text_10">
      <!-- 0.4 -->
      <g transform="translate(396.882938 212.836825) scale(0.22 -0.22)">
       <defs>
        <path id="TimesNewRomanPSMT-34" d="M 2978 1563 
L 2978 1119 
L 2409 1119 
L 2409 0 
L 1894 0 
L 1894 1119 
L 100 1119 
L 100 1519 
L 2066 4325 
L 2409 4325 
L 2409 1563 
L 2978 1563 
z
M 1894 1563 
L 1894 3666 
L 406 1563 
L 1894 1563 
z
" transform="scale(0.015625)"/>
       </defs>
       <use xlink:href="#TimesNewRomanPSMT-30"/>
       <use xlink:href="#TimesNewRomanPSMT-2e" transform="translate(50 0)"/>
       <use xlink:href="#TimesNewRomanPSMT-34" transform="translate(75 0)"/>
      </g>
     </g>
    </g>
    <g id="ytick_6">
     <g id="line2d_19">
      <path d="M 431.382938 178.5875 
L 788.502938 178.5875 
" clip-path="url(#p521fd2d45e)" style="fill: none; stroke: #b0b0b0; stroke-opacity: 0.3; stroke-width: 0.8; stroke-linecap: square"/>
     </g>
     <g id="line2d_20">
      <g>
       <use xlink:href="#m30ab61bf2c" x="431.382938" y="178.5875" style="stroke: #000000; stroke-width: 0.8"/>
      </g>
     </g>
     <g id="text_11">
      <!-- 0.5 -->
      <g transform="translate(396.882938 186.225625) scale(0.22 -0.22)">
       <defs>
        <path id="TimesNewRomanPSMT-35" d="M 2778 4238 
L 2534 3706 
L 1259 3706 
L 981 3138 
Q 1809 3016 2294 2522 
Q 2709 2097 2709 1522 
Q 2709 1188 2573 903 
Q 2438 619 2231 419 
Q 2025 219 1772 97 
Q 1413 -75 1034 -75 
Q 653 -75 479 54 
Q 306 184 306 341 
Q 306 428 378 495 
Q 450 563 559 563 
Q 641 563 702 538 
Q 763 513 909 409 
Q 1144 247 1384 247 
Q 1750 247 2026 523 
Q 2303 800 2303 1197 
Q 2303 1581 2056 1914 
Q 1809 2247 1375 2428 
Q 1034 2569 447 2591 
L 1259 4238 
L 2778 4238 
z
" transform="scale(0.015625)"/>
       </defs>
       <use xlink:href="#TimesNewRomanPSMT-30"/>
       <use xlink:href="#TimesNewRomanPSMT-2e" transform="translate(50 0)"/>
       <use xlink:href="#TimesNewRomanPSMT-35" transform="translate(75 0)"/>
      </g>
     </g>
    </g>
    <g id="ytick_7">
     <g id="line2d_21">
      <path d="M 431.382938 151.9763 
L 788.502938 151.9763 
" clip-path="url(#p521fd2d45e)" style="fill: none; stroke: #b0b0b0; stroke-opacity: 0.3; stroke-width: 0.8; stroke-linecap: square"/>
     </g>
     <g id="line2d_22">
      <g>
       <use xlink:href="#m30ab61bf2c" x="431.382938" y="151.9763" style="stroke: #000000; stroke-width: 0.8"/>
      </g>
     </g>
     <g id="text_12">
      <!-- 0.6 -->
      <g transform="translate(396.882938 159.614425) scale(0.22 -0.22)">
       <defs>
        <path id="TimesNewRomanPSMT-36" d="M 2869 4325 
L 2869 4209 
Q 2456 4169 2195 4045 
Q 1934 3922 1679 3669 
Q 1425 3416 1258 3105 
Q 1091 2794 978 2366 
Q 1428 2675 1881 2675 
Q 2316 2675 2634 2325 
Q 2953 1975 2953 1425 
Q 2953 894 2631 456 
Q 2244 -75 1606 -75 
Q 1172 -75 869 213 
Q 275 772 275 1663 
Q 275 2231 503 2743 
Q 731 3256 1154 3653 
Q 1578 4050 1965 4187 
Q 2353 4325 2688 4325 
L 2869 4325 
z
M 925 2138 
Q 869 1716 869 1456 
Q 869 1156 980 804 
Q 1091 453 1309 247 
Q 1469 100 1697 100 
Q 1969 100 2183 356 
Q 2397 613 2397 1088 
Q 2397 1622 2184 2012 
Q 1972 2403 1581 2403 
Q 1463 2403 1327 2353 
Q 1191 2303 925 2138 
z
" transform="scale(0.015625)"/>
       </defs>
       <use xlink:href="#TimesNewRomanPSMT-30"/>
       <use xlink:href="#TimesNewRomanPSMT-2e" transform="translate(50 0)"/>
       <use xlink:href="#TimesNewRomanPSMT-36" transform="translate(75 0)"/>
      </g>
     </g>
    </g>
    <g id="ytick_8">
     <g id="line2d_23">
      <path d="M 431.382938 125.3651 
L 788.502938 125.3651 
" clip-path="url(#p521fd2d45e)" style="fill: none; stroke: #b0b0b0; stroke-opacity: 0.3; stroke-width: 0.8; stroke-linecap: square"/>
     </g>
     <g id="line2d_24">
      <g>
       <use xlink:href="#m30ab61bf2c" x="431.382938" y="125.3651" style="stroke: #000000; stroke-width: 0.8"/>
      </g>
     </g>
     <g id="text_13">
      <!-- 0.7 -->
      <g transform="translate(396.882938 133.003225) scale(0.22 -0.22)">
       <defs>
        <path id="TimesNewRomanPSMT-37" d="M 644 4238 
L 2916 4238 
L 2916 4119 
L 1503 -88 
L 1153 -88 
L 2419 3728 
L 1253 3728 
Q 900 3728 750 3644 
Q 488 3500 328 3200 
L 238 3234 
L 644 4238 
z
" transform="scale(0.015625)"/>
       </defs>
       <use xlink:href="#TimesNewRomanPSMT-30"/>
       <use xlink:href="#TimesNewRomanPSMT-2e" transform="translate(50 0)"/>
       <use xlink:href="#TimesNewRomanPSMT-37" transform="translate(75 0)"/>
      </g>
     </g>
    </g>
    <g id="ytick_9">
     <g id="line2d_25">
      <path d="M 431.382938 98.7539 
L 788.502938 98.7539 
" clip-path="url(#p521fd2d45e)" style="fill: none; stroke: #b0b0b0; stroke-opacity: 0.3; stroke-width: 0.8; stroke-linecap: square"/>
     </g>
     <g id="line2d_26">
      <g>
       <use xlink:href="#m30ab61bf2c" x="431.382938" y="98.7539" style="stroke: #000000; stroke-width: 0.8"/>
      </g>
     </g>
     <g id="text_14">
      <!-- 0.8 -->
      <g transform="translate(396.882938 106.392025) scale(0.22 -0.22)">
       <defs>
        <path id="TimesNewRomanPSMT-38" d="M 1228 2134 
Q 725 2547 579 2797 
Q 434 3047 434 3316 
Q 434 3728 753 4026 
Q 1072 4325 1600 4325 
Q 2113 4325 2425 4047 
Q 2738 3769 2738 3413 
Q 2738 3175 2569 2928 
Q 2400 2681 1866 2347 
Q 2416 1922 2594 1678 
Q 2831 1359 2831 1006 
Q 2831 559 2490 242 
Q 2150 -75 1597 -75 
Q 994 -75 656 303 
Q 388 606 388 966 
Q 388 1247 577 1523 
Q 766 1800 1228 2134 
z
M 1719 2469 
Q 2094 2806 2194 3001 
Q 2294 3197 2294 3444 
Q 2294 3772 2109 3958 
Q 1925 4144 1606 4144 
Q 1288 4144 1088 3959 
Q 888 3775 888 3528 
Q 888 3366 970 3203 
Q 1053 3041 1206 2894 
L 1719 2469 
z
M 1375 2016 
Q 1116 1797 991 1539 
Q 866 1281 866 981 
Q 866 578 1086 336 
Q 1306 94 1647 94 
Q 1984 94 2187 284 
Q 2391 475 2391 747 
Q 2391 972 2272 1150 
Q 2050 1481 1375 2016 
z
" transform="scale(0.015625)"/>
       </defs>
       <use xlink:href="#TimesNewRomanPSMT-30"/>
       <use xlink:href="#TimesNewRomanPSMT-2e" transform="translate(50 0)"/>
       <use xlink:href="#TimesNewRomanPSMT-38" transform="translate(75 0)"/>
      </g>
     </g>
    </g>
    <g id="ytick_10">
     <g id="line2d_27">
      <path d="M 431.382938 72.1427 
L 788.502938 72.1427 
" clip-path="url(#p521fd2d45e)" style="fill: none; stroke: #b0b0b0; stroke-opacity: 0.3; stroke-width: 0.8; stroke-linecap: square"/>
     </g>
     <g id="line2d_28">
      <g>
       <use xlink:href="#m30ab61bf2c" x="431.382938" y="72.1427" style="stroke: #000000; stroke-width: 0.8"/>
      </g>
     </g>
     <g id="text_15">
      <!-- 0.9 -->
      <g transform="translate(396.882938 79.780825) scale(0.22 -0.22)">
       <defs>
        <path id="TimesNewRomanPSMT-39" d="M 338 -88 
L 338 28 
Q 744 34 1094 217 
Q 1444 400 1770 856 
Q 2097 1313 2225 1859 
Q 1734 1544 1338 1544 
Q 891 1544 572 1889 
Q 253 2234 253 2806 
Q 253 3363 572 3797 
Q 956 4325 1575 4325 
Q 2097 4325 2469 3894 
Q 2925 3359 2925 2575 
Q 2925 1869 2578 1258 
Q 2231 647 1613 244 
Q 1109 -88 516 -88 
L 338 -88 
z
M 2275 2091 
Q 2331 2497 2331 2741 
Q 2331 3044 2228 3395 
Q 2125 3747 1936 3934 
Q 1747 4122 1506 4122 
Q 1228 4122 1018 3872 
Q 809 3622 809 3128 
Q 809 2469 1088 2097 
Q 1291 1828 1588 1828 
Q 1731 1828 1928 1897 
Q 2125 1966 2275 2091 
z
" transform="scale(0.015625)"/>
       </defs>
       <use xlink:href="#TimesNewRomanPSMT-30"/>
       <use xlink:href="#TimesNewRomanPSMT-2e" transform="translate(50 0)"/>
       <use xlink:href="#TimesNewRomanPSMT-39" transform="translate(75 0)"/>
      </g>
     </g>
    </g>
    <g id="ytick_11">
     <g id="line2d_29">
      <path d="M 431.382938 45.5315 
L 788.502938 45.5315 
" clip-path="url(#p521fd2d45e)" style="fill: none; stroke: #b0b0b0; stroke-opacity: 0.3; stroke-width: 0.8; stroke-linecap: square"/>
     </g>
     <g id="line2d_30">
      <g>
       <use xlink:href="#m30ab61bf2c" x="431.382938" y="45.5315" style="stroke: #000000; stroke-width: 0.8"/>
      </g>
     </g>
     <g id="text_16">
      <!-- 1.0 -->
      <g transform="translate(396.882938 53.169625) scale(0.22 -0.22)">
       <use xlink:href="#TimesNewRomanPSMT-31"/>
       <use xlink:href="#TimesNewRomanPSMT-2e" transform="translate(50 0)"/>
       <use xlink:href="#TimesNewRomanPSMT-30" transform="translate(75 0)"/>
      </g>
     </g>
    </g>
    <g id="text_17">
     <!-- Accuracy -->
     <g transform="translate(388.13575 220.726094) rotate(-90) scale(0.22 -0.22)">
      <defs>
       <path id="TimesNewRomanPSMT-41" d="M 2928 1419 
L 1288 1419 
L 1000 750 
Q 894 503 894 381 
Q 894 284 986 211 
Q 1078 138 1384 116 
L 1384 0 
L 50 0 
L 50 116 
Q 316 163 394 238 
Q 553 388 747 847 
L 2238 4334 
L 2347 4334 
L 3822 809 
Q 4000 384 4145 257 
Q 4291 131 4550 116 
L 4550 0 
L 2878 0 
L 2878 116 
Q 3131 128 3220 200 
Q 3309 272 3309 375 
Q 3309 513 3184 809 
L 2928 1419 
z
M 2841 1650 
L 2122 3363 
L 1384 1650 
L 2841 1650 
z
" transform="scale(0.015625)"/>
       <path id="TimesNewRomanPSMT-63" d="M 2631 1088 
Q 2516 522 2178 217 
Q 1841 -88 1431 -88 
Q 944 -88 581 321 
Q 219 731 219 1428 
Q 219 2103 620 2525 
Q 1022 2947 1584 2947 
Q 2006 2947 2278 2723 
Q 2550 2500 2550 2259 
Q 2550 2141 2473 2067 
Q 2397 1994 2259 1994 
Q 2075 1994 1981 2113 
Q 1928 2178 1911 2362 
Q 1894 2547 1784 2644 
Q 1675 2738 1481 2738 
Q 1169 2738 978 2506 
Q 725 2200 725 1697 
Q 725 1184 976 792 
Q 1228 400 1656 400 
Q 1963 400 2206 609 
Q 2378 753 2541 1131 
L 2631 1088 
z
" transform="scale(0.015625)"/>
       <path id="TimesNewRomanPSMT-79" d="M 38 2863 
L 1372 2863 
L 1372 2747 
L 1306 2747 
Q 1166 2747 1095 2686 
Q 1025 2625 1025 2534 
Q 1025 2413 1128 2197 
L 1825 753 
L 2466 2334 
Q 2519 2463 2519 2588 
Q 2519 2644 2497 2672 
Q 2472 2706 2419 2726 
Q 2366 2747 2231 2747 
L 2231 2863 
L 3163 2863 
L 3163 2747 
Q 3047 2734 2984 2696 
Q 2922 2659 2847 2556 
Q 2819 2513 2741 2316 
L 1575 -541 
Q 1406 -956 1132 -1168 
Q 859 -1381 606 -1381 
Q 422 -1381 303 -1275 
Q 184 -1169 184 -1031 
Q 184 -900 270 -820 
Q 356 -741 506 -741 
Q 609 -741 788 -809 
Q 913 -856 944 -856 
Q 1038 -856 1148 -759 
Q 1259 -663 1372 -384 
L 1575 113 
L 547 2272 
Q 500 2369 397 2513 
Q 319 2622 269 2659 
Q 197 2709 38 2747 
L 38 2863 
z
" transform="scale(0.015625)"/>
      </defs>
      <use xlink:href="#TimesNewRomanPSMT-41"/>
      <use xlink:href="#TimesNewRomanPSMT-63" transform="translate(72.216797 0)"/>
      <use xlink:href="#TimesNewRomanPSMT-63" transform="translate(116.601562 0)"/>
      <use xlink:href="#TimesNewRomanPSMT-75" transform="translate(160.986328 0)"/>
      <use xlink:href="#TimesNewRomanPSMT-72" transform="translate(210.986328 0)"/>
      <use xlink:href="#TimesNewRomanPSMT-61" transform="translate(244.287109 0)"/>
      <use xlink:href="#TimesNewRomanPSMT-63" transform="translate(288.671875 0)"/>
      <use xlink:href="#TimesNewRomanPSMT-79" transform="translate(333.056641 0)"/>
     </g>
    </g>
   </g>
   <g id="line2d_31">
    <path d="M 431.382938 178.805715 
L 431.651786 159.533891 
L 431.920634 155.30802 
L 432.45833 153.144542 
L 432.547946 152.966242 
L 432.637562 153.09131 
L 433.354491 152.532478 
L 433.623339 152.676183 
L 433.712955 153.056716 
L 433.892187 152.713442 
L 434.071419 152.689491 
L 434.250651 152.564407 
L 434.429884 152.540456 
L 434.609116 152.253061 
L 434.698732 152.282326 
L 434.877964 151.88582 
L 435.057196 151.9151 
L 435.326044 152.202495 
L 435.505276 152.31692 
L 435.594892 152.465954 
L 435.774124 152.335557 
L 435.863741 152.388772 
L 435.953357 152.588358 
L 436.132589 152.364821 
L 436.222205 152.11735 
L 436.401437 152.277012 
L 436.491053 152.165236 
L 436.759901 152.444668 
L 436.849517 152.386123 
L 437.028749 152.181209 
L 437.47683 151.901792 
L 437.656062 152.11735 
L 438.104142 152.319584 
L 438.193758 152.263704 
L 438.283374 152.471268 
L 438.37299 152.412723 
L 438.552222 152.26104 
L 438.731454 152.14395 
L 438.82107 152.266369 
L 438.910687 152.189187 
L 439.000303 152.314271 
L 439.179535 152.138636 
L 439.358767 152.178544 
L 439.627615 152.186538 
L 439.717231 152.053476 
L 439.806847 152.146615 
L 439.986079 152.066784 
L 440.165311 152.154593 
L 440.254927 152.223781 
L 440.523776 152.045497 
L 440.703008 152.077427 
L 440.792624 151.992266 
L 440.88224 152.090734 
L 440.971856 151.9151 
L 441.061472 152.02686 
L 441.33032 151.74213 
L 441.419936 151.907122 
L 441.509552 151.800675 
L 441.957633 152.141301 
L 442.226481 152.162587 
L 442.316097 152.082756 
L 442.584945 152.292985 
L 442.674561 152.178544 
L 442.764177 152.330227 
L 442.853793 152.061454 
L 442.943409 152.096048 
L 443.122641 152.135971 
L 443.301874 152.367486 
L 443.481106 152.218467 
L 443.660338 152.11735 
L 443.83957 151.97631 
L 443.929186 152.085405 
L 444.108418 152.02686 
L 444.377266 152.239753 
L 444.466882 152.154593 
L 444.556498 152.28499 
L 444.646114 152.221132 
L 444.825347 151.997596 
L 445.004579 152.332892 
L 445.363043 151.763416 
L 445.452659 151.888484 
L 445.811123 151.59576 
L 446.079971 151.803324 
L 446.528052 151.707536 
L 446.617668 151.752773 
L 446.7969 151.648991 
L 446.886516 151.76873 
L 446.976132 151.640997 
L 447.155364 151.782038 
L 447.24498 151.728822 
L 447.334596 151.521259 
L 447.424212 151.731487 
L 447.69306 151.369575 
L 447.961909 151.396175 
L 448.051525 151.273771 
L 448.230757 151.529237 
L 448.499605 151.212562 
L 449.037301 151.135396 
L 449.126917 151.16466 
L 449.30615 151.066208 
L 449.664614 151.084829 
L 449.843846 150.84532 
L 450.471158 150.757511 
L 450.65039 150.549947 
L 450.740007 150.518018 
L 450.829623 150.629778 
L 451.456935 150.134804 
L 452.084247 149.897976 
L 452.173863 149.6079 
L 452.353096 149.913932 
L 452.71156 149.480168 
L 452.801176 149.520091 
L 452.980408 149.253982 
L 453.070024 149.26729 
L 453.15964 149.107612 
L 453.338872 149.309863 
L 453.518104 149.083662 
L 453.786953 148.809575 
L 453.966185 148.785624 
L 454.235033 148.519515 
L 454.414265 148.711106 
L 454.503881 148.772316 
L 454.683113 148.538137 
L 454.772729 148.54878 
L 455.758506 147.316689 
L 456.385818 146.954777 
L 456.654666 146.619465 
L 456.744283 146.813737 
L 456.833899 146.462468 
L 456.923515 146.579557 
L 457.819675 145.443254 
L 457.909291 145.46987 
L 457.998907 145.131909 
L 458.088523 145.312857 
L 458.17814 145.161173 
L 458.267756 145.243669 
L 458.805452 144.562417 
L 458.984684 144.589033 
L 459.343148 143.942391 
L 459.432764 144.059464 
L 462.03163 141.121595 
L 462.210862 140.802256 
L 462.300478 140.823558 
L 462.658943 139.940056 
L 462.748559 139.974649 
L 463.196639 139.540885 
L 463.465487 139.36525 
L 463.555103 139.335986 
L 463.823951 138.633448 
L 464.54088 137.518447 
L 464.720112 137.545047 
L 464.809728 137.510453 
L 464.899344 137.348126 
L 464.98896 137.404006 
L 465.168192 136.948955 
L 465.616273 136.068134 
L 465.705889 136.041518 
L 465.885121 135.751459 
L 465.974737 135.703557 
L 466.153969 135.307051 
L 466.243585 135.336315 
L 467.050129 134.104225 
L 467.139746 134.197364 
L 468.125522 132.236119 
L 468.215138 132.172245 
L 468.304754 132.339901 
L 468.573602 131.538895 
L 468.842451 130.961441 
L 468.932067 130.958776 
L 469.021683 131.198285 
L 469.200915 130.610172 
L 469.380147 130.402608 
L 469.648995 130.085933 
L 469.828227 129.665476 
L 470.007459 129.202447 
L 470.097076 129.170502 
L 470.186692 128.936322 
L 470.276308 128.989554 
L 471.262084 127.129427 
L 471.3517 127.156042 
L 471.799781 126.328436 
L 471.889397 126.309799 
L 472.068629 125.766939 
L 472.337477 125.567353 
L 472.516709 125.205441 
L 472.875173 124.699824 
L 472.964789 124.343241 
L 473.054406 124.473623 
L 473.144022 124.204849 
L 473.233638 124.343241 
L 473.41287 123.973335 
L 473.592102 123.374595 
L 473.681718 123.465069 
L 474.040182 122.775838 
L 474.129798 122.853005 
L 474.219414 122.672056 
L 474.30903 122.815746 
L 474.757111 121.676794 
L 474.846727 121.663486 
L 475.474039 120.359543 
L 475.563655 120.455331 
L 475.742887 120.186558 
L 475.832503 120.082776 
L 476.011735 119.494679 
L 476.101352 119.561202 
L 476.280584 118.978418 
L 476.549432 118.717623 
L 476.907896 118.230643 
L 477.087128 118.068316 
L 477.176744 117.748976 
L 477.355976 117.924611 
L 477.804057 116.769687 
L 478.072905 116.735093 
L 478.252137 116.256091 
L 478.431369 116.23747 
L 478.789833 115.702572 
L 478.879449 115.729188 
L 479.417146 114.603528 
L 479.506762 114.755227 
L 479.596378 114.643451 
L 479.865226 113.932935 
L 480.134074 113.791894 
L 480.22369 113.794559 
L 480.582155 113.222418 
L 481.209467 112.173941 
L 481.299083 112.163282 
L 481.567931 111.519305 
L 481.747163 111.31439 
L 481.926395 110.949813 
L 482.195244 110.619846 
L 482.28486 110.343078 
L 482.374476 110.42026 
L 482.464092 110.401623 
L 483.18102 109.020514 
L 483.270636 108.876808 
L 483.360252 109.121631 
L 483.539485 109.0684 
L 483.629101 109.044449 
L 483.808333 108.562798 
L 483.897949 108.576106 
L 484.256413 107.852282 
L 484.435645 107.575514 
L 484.614877 107.501013 
L 484.704493 107.322713 
L 484.794109 107.381258 
L 485.152574 106.809118 
L 485.24219 106.931521 
L 485.69027 106.10658 
L 485.779886 106.109244 
L 485.869502 105.957561 
L 486.048734 106.082629 
L 486.13835 106.16246 
L 486.855279 104.845209 
L 487.034511 105.113982 
L 487.392975 104.435395 
L 487.482591 104.49394 
L 487.661823 104.336943 
L 488.020288 103.434819 
L 488.19952 103.424176 
L 488.289136 103.048956 
L 488.378752 103.445462 
L 488.557984 102.963796 
L 488.6476 103.08355 
L 488.737216 102.817442 
L 488.826832 103.009033 
L 489.274912 102.128211 
L 489.364528 102.24795 
L 489.543761 102.13086 
L 489.633377 102.122882 
L 489.812609 101.622594 
L 489.991841 101.468246 
L 490.260689 101.32987 
L 490.350305 101.404387 
L 490.529537 101.093026 
L 490.619153 101.180851 
L 490.888001 100.904083 
L 492.321858 99.254201 
L 492.411475 98.807128 
L 492.501091 98.8497 
L 492.680323 98.828414 
L 492.769939 99.105166 
L 492.949171 98.796485 
L 493.128403 98.823101 
L 493.218019 98.666088 
L 493.307635 98.753913 
L 494.56226 97.034826 
L 494.651876 97.061426 
L 494.920724 96.768718 
L 495.099956 96.837906 
L 495.189572 96.571781 
L 495.279188 96.646299 
L 495.996117 96.11673 
L 496.264965 95.568541 
L 496.713045 95.448802 
L 496.802661 95.166721 
L 496.892278 95.267838 
L 497.07151 94.929877 
L 497.161126 95.214623 
L 497.250742 95.153413 
L 497.698822 95.233244 
L 497.788438 95.041637 
L 497.878054 95.166721 
L 498.594983 94.211366 
L 498.774215 94.139529 
L 499.132679 93.804217 
L 499.222295 93.87607 
L 499.401527 93.790909 
L 499.580759 93.777617 
L 499.849608 93.293286 
L 500.02884 93.152246 
L 500.387304 92.78502 
L 500.656152 92.699859 
L 501.193848 92.282067 
L 501.283464 92.407135 
L 501.373081 92.20755 
L 501.462697 92.306018 
L 501.641929 92.204885 
L 501.731545 92.191577 
L 501.821161 91.952084 
L 501.910777 92.002651 
L 502.000393 91.938776 
L 502.269241 92.149005 
L 502.448473 91.858945 
L 502.627705 91.946755 
L 502.806938 91.651382 
L 503.255018 91.40123 
L 503.43425 91.076576 
L 503.523866 91.225595 
L 503.971946 90.437913 
L 504.061562 90.416611 
L 504.151178 90.552338 
L 504.509643 90.062693 
L 504.599259 90.185096 
L 504.778491 89.969554 
L 504.957723 90.006797 
L 505.226571 89.87375 
L 505.405803 90.012126 
L 505.495419 89.929631 
L 505.764267 89.439986 
L 506.122732 89.41337 
L 506.39158 89.317567 
L 506.481196 89.487887 
L 506.660428 89.274994 
L 506.750044 89.136618 
L 506.83966 89.285637 
L 507.198124 88.905104 
L 507.377357 88.907769 
L 507.466973 89.125975 
L 507.556589 88.72414 
L 507.646205 88.777371 
L 507.825437 88.811965 
L 507.915053 88.625687 
L 508.004669 88.678903 
L 508.183901 88.591093 
L 508.273517 88.082811 
L 508.363133 88.138691 
L 508.452749 88.213209 
L 508.542365 88.114741 
L 508.721597 88.274418 
L 508.811214 87.965722 
L 508.90083 88.037574 
L 508.990446 87.899199 
L 509.080062 88.056196 
L 509.34891 87.531957 
L 509.528142 87.502692 
L 509.79699 87.80073 
L 509.976222 87.57188 
L 510.065838 87.561237 
L 510.424303 87.146094 
L 510.693151 86.890628 
L 510.872383 86.619206 
L 510.961999 86.488809 
L 511.320463 86.73628 
L 511.410079 86.722988 
L 511.589311 86.488809 
L 511.768544 86.523403 
L 511.85816 86.414291 
L 512.037392 86.483479 
L 512.127008 86.286559 
L 512.216624 86.385027 
L 512.395856 86.13754 
L 512.485472 86.13754 
L 512.575088 86.342439 
L 512.843936 86.02045 
L 513.112784 86.13754 
L 513.2024 85.969884 
L 513.292017 86.073665 
L 513.471249 85.690467 
L 513.650481 85.906025 
L 513.919329 85.693132 
L 514.008945 85.75699 
L 514.277793 85.474909 
L 514.367409 85.685138 
L 514.457025 85.469596 
L 514.546641 85.514833 
L 514.636257 85.528141 
L 514.905106 85.232752 
L 515.173954 85.01188 
L 515.26357 85.01721 
L 515.353186 84.852218 
L 515.442802 85.065111 
L 515.622034 84.942692 
L 515.801266 85.035831 
L 515.890882 85.110348 
L 516.070114 85.046474 
L 516.249347 85.014545 
L 516.428579 84.759079 
L 516.607811 84.490306 
L 516.697427 84.583445 
L 517.145507 84.053876 
L 517.235123 84.165653 
L 517.77282 83.995332 
L 518.041668 84.306693 
L 518.489748 83.840983 
L 518.579364 83.886236 
L 518.758596 83.806389 
L 518.848212 83.856956 
L 519.027444 83.710602 
L 519.206677 83.668013 
L 519.296293 83.598826 
L 519.475525 83.242243 
L 519.654757 83.452471 
L 519.833989 83.119824 
L 520.102837 82.96814 
L 520.282069 82.832429 
L 520.461301 83.098538 
L 520.73015 82.944189 
L 520.909382 82.829764 
L 520.998998 82.949519 
L 521.17823 82.843072 
L 521.357462 82.864358 
L 521.62631 82.560991 
L 521.715926 82.582277 
L 521.895158 82.462523 
L 521.984774 82.443901 
L 522.164007 82.300196 
L 522.253623 82.361406 
L 522.522471 82.068681 
L 522.612087 82.100611 
L 522.701703 81.802573 
L 523.060167 82.052709 
L 523.239399 82.074011 
L 523.418631 81.871761 
L 524.13556 81.930306 
L 524.314792 81.943613 
L 524.404408 81.975543 
L 524.673256 81.634917 
L 524.852488 81.762649 
L 525.210953 81.174552 
L 525.659033 81.190509 
L 525.748649 81.044155 
L 525.838265 81.1027 
L 525.927881 81.036176 
L 526.017497 81.121321 
L 526.196729 80.897785 
L 526.555193 81.424688 
L 526.913658 81.193174 
L 527.003274 81.382116 
L 527.451354 80.613055 
L 527.54097 80.682243 
L 527.809818 80.770052 
L 527.98905 80.708858 
L 528.257899 80.719501 
L 528.437131 80.599747 
L 528.616363 80.370881 
L 528.705979 80.315001 
L 528.795595 80.126059 
L 528.885211 80.181955 
L 529.243675 80.102108 
L 529.333291 79.961083 
L 529.422907 80.197911 
L 529.512523 80.158004 
L 529.781372 79.969061 
L 529.870988 80.027606 
L 530.05022 79.899874 
L 530.4983 79.867944 
L 530.587916 80.086151 
L 530.94638 79.814713 
L 531.035996 79.947775 
L 531.215229 79.71891 
L 531.304845 79.726904 
L 531.394461 79.950424 
L 531.752925 79.519324 
L 531.932157 79.756168 
L 532.111389 79.508681 
L 532.201005 79.442158 
L 532.380237 79.54594 
L 532.559469 79.370305 
L 532.828318 79.386278 
L 532.917934 79.364992 
L 533.097166 79.506032 
L 533.186782 79.325068 
L 533.366014 79.346354 
L 533.45563 79.298453 
L 533.545246 79.519324 
L 533.634862 79.450136 
L 533.814094 79.072268 
L 533.90371 79.104197 
L 534.172559 78.973799 
L 534.710255 78.899282 
L 534.889487 79.082911 
L 535.068719 78.787522 
L 535.247951 79.088224 
L 535.427183 78.806143 
L 535.516799 78.875347 
L 535.785648 78.45489 
L 535.96488 78.617217 
L 536.144112 78.489484 
L 536.233728 78.396345 
L 536.502576 78.593266 
L 536.681808 78.489484 
L 536.771424 78.516084 
L 536.86104 78.417631 
L 536.950656 78.513435 
L 537.129889 78.348443 
L 537.488353 78.558672 
L 537.667585 78.414966 
L 538.026049 78.202073 
L 538.115665 78.114264 
L 538.294897 78.194095 
L 538.474129 78.122242 
L 538.653362 78.180787 
L 538.742978 78.100956 
L 539.011826 77.61929 
L 539.101442 77.566074 
L 539.280674 77.757665 
L 539.37029 77.640576 
L 539.459906 77.824204 
L 539.639138 77.443655 
L 539.728754 77.550102 
L 540.087219 77.603317 
L 540.176835 77.595339 
L 540.356067 77.930635 
L 540.714531 77.757665 
L 540.893763 77.82154 
L 541.162611 77.427683 
L 541.87954 77.571388 
L 541.969156 77.515508 
L 542.058772 77.757665 
L 542.32762 77.393089 
L 542.506852 77.353181 
L 542.7757 77.209476 
L 542.865316 77.268021 
L 542.954932 77.161574 
L 543.134165 77.283993 
L 543.223781 77.265356 
L 543.313397 77.401083 
L 543.492629 77.193519 
L 543.761477 77.164239 
L 543.851093 77.020533 
L 543.940709 77.084408 
L 544.388789 76.855542 
L 544.657638 76.95934 
L 545.553798 76.570812 
L 545.912262 76.134383 
L 546.181111 76.685237 
L 546.270727 76.533553 
L 546.449959 76.443079 
L 546.808423 76.690566 
L 546.987655 76.525575 
L 547.346119 76.187614 
L 547.525352 76.118426 
L 547.7942 76.355254 
L 547.973432 76.304703 
L 548.152664 76.344611 
L 548.331896 76.339297 
L 548.959209 76.113096 
L 549.138441 75.929484 
L 549.407289 76.019958 
L 549.765753 75.628781 
L 549.855369 75.788443 
L 549.944985 75.668689 
L 550.034601 75.769806 
L 550.213833 75.751184 
L 550.393065 75.8044 
L 550.841146 75.756514 
L 550.930762 75.812394 
L 551.020378 75.551599 
L 551.19961 75.588858 
L 551.558074 75.663375 
L 552.185387 75.407894 
L 552.543851 75.51434 
L 552.723083 75.28549 
L 552.812699 75.330727 
L 552.902315 75.120499 
L 553.081547 75.415888 
L 553.260779 75.378629 
L 553.440012 75.471768 
L 554.067324 74.992766 
L 554.246556 75.056625 
L 554.425788 74.950194 
L 554.60502 75.003409 
L 554.784252 74.870347 
L 554.963485 74.947529 
L 555.142717 75.016717 
L 555.501181 74.859704 
L 555.680413 75.006074 
L 555.859645 74.700042 
L 556.128493 74.963486 
L 556.218109 74.867698 
L 556.397342 75.008739 
L 556.755806 74.865033 
L 556.845422 75.006074 
L 557.11427 74.774559 
L 557.383118 74.950194 
L 557.651966 74.76923 
L 557.831198 74.827775 
L 558.279279 74.252969 
L 558.727359 74.747944 
L 558.996207 74.559001 
L 559.175439 74.614881 
L 559.265055 74.471192 
L 559.354672 74.668113 
L 559.444288 74.614881 
L 559.62352 74.59626 
L 559.802752 74.441912 
L 559.981984 74.157182 
L 560.161216 74.149188 
L 560.340448 74.10928 
L 560.609296 74.215711 
L 561.415841 73.803248 
L 561.505457 74.08 
L 561.595073 73.989526 
L 561.774305 73.742038 
L 562.491234 73.731395 
L 562.58085 73.67285 
L 562.760082 73.773968 
L 562.939314 73.614306 
L 563.118546 73.853799 
L 563.297778 73.70478 
L 563.387394 73.888408 
L 563.656242 73.696801 
L 564.014707 73.720752 
L 564.373171 73.702115 
L 564.462787 73.598333 
L 564.642019 73.752681 
L 565.358948 73.486573 
L 565.627796 73.67818 
L 565.717412 73.497216 
L 565.807028 73.779297 
L 565.98626 73.547782 
L 566.255108 73.686158 
L 566.613572 73.513188 
L 566.882421 73.428028 
L 566.972037 73.465287 
L 567.151269 73.324246 
L 567.509733 73.35884 
L 567.778581 73.121996 
L 568.047429 73.066116 
L 568.137045 72.95434 
L 568.316278 73.031522 
L 568.49551 73.082088 
L 568.585126 73.180541 
L 568.94359 72.943697 
L 569.122822 73.076759 
L 569.212438 73.018214 
L 569.302054 73.127326 
L 569.481286 72.980955 
L 569.660518 72.847909 
L 569.839751 72.975642 
L 569.929367 73.068781 
L 570.108599 73.015549 
L 570.287831 73.247064 
L 570.556679 72.933054 
L 570.646295 73.114018 
L 570.735911 73.04483 
L 570.825527 72.980955 
L 571.004759 73.098045 
L 571.183991 73.257723 
L 571.632072 72.768062 
L 572.080152 72.746776 
L 572.259384 72.762749 
L 572.528232 72.672275 
L 572.707464 72.807986 
L 572.797081 72.874509 
L 573.155545 72.632351 
L 573.334777 72.645659 
L 573.603625 72.515262 
L 573.782857 72.531234 
L 573.962089 72.509948 
L 574.41017 72.299719 
L 574.499786 72.368907 
L 574.589402 72.222537 
L 574.679018 72.278417 
L 574.85825 72.195922 
L 575.127098 72.416809 
L 575.30633 72.438095 
L 575.575178 72.517926 
L 575.664794 72.427452 
L 575.754411 72.499289 
L 575.933643 72.286412 
L 576.023259 72.440744 
L 576.112875 72.374221 
L 576.292107 72.20923 
L 576.740187 72.012309 
L 576.919419 72.225202 
L 577.188267 72.281082 
L 577.3675 72.368907 
L 577.546732 72.116091 
L 577.994812 72.371556 
L 578.174044 72.37955 
L 578.26366 72.334313 
L 578.442892 72.129399 
L 578.622124 72.198586 
L 578.890973 72.078832 
L 579.159821 71.927148 
L 579.607901 72.110777 
L 579.697517 71.959093 
L 579.787133 72.049568 
L 579.966365 72.001666 
L 580.145597 71.985693 
L 580.414446 71.647732 
L 580.683294 71.623781 
L 580.77291 71.671683 
L 580.862526 71.573231 
L 581.041758 71.722249 
L 581.131374 71.583874 
L 581.310606 71.639754 
L 581.489838 71.682326 
L 581.66907 71.69032 
L 581.848303 71.799416 
L 581.937919 71.836674 
L 582.117151 71.615803 
L 582.296383 71.818053 
L 582.475615 71.658375 
L 582.654847 71.589187 
L 582.744463 71.66104 
L 582.923695 71.535972 
L 583.192544 71.66104 
L 583.28216 71.732892 
L 583.461392 71.60516 
L 583.909472 71.740871 
L 584.088704 71.59983 
L 584.267936 71.610489 
L 584.895249 71.43219 
L 584.984865 71.597181 
L 585.164097 71.323079 
L 585.253713 71.394931 
L 585.343329 71.28582 
L 585.432945 71.357673 
L 585.612177 71.261869 
L 585.701793 71.400261 
L 585.791409 71.182038 
L 585.970641 71.280506 
L 586.597954 71.083586 
L 586.777186 71.264534 
L 586.956418 71.325743 
L 587.225266 71.211318 
L 587.314882 71.120828 
L 587.58373 71.261869 
L 588.031811 71.064948 
L 588.211043 71.00109 
L 588.300659 71.110185 
L 588.390275 71.00109 
L 588.569507 71.155438 
L 588.659123 71.067613 
L 588.748739 71.25922 
L 588.927971 71.059635 
L 589.107203 71.088899 
L 589.19682 70.977139 
L 589.376052 71.059635 
L 589.465668 70.982453 
L 589.734516 71.213967 
L 590.09298 70.857385 
L 590.182596 70.963831 
L 590.361828 70.873357 
L 590.989141 70.93988 
L 591.168373 70.891979 
L 591.257989 70.838763 
L 591.437221 70.894643 
L 591.706069 70.876006 
L 591.974917 70.99576 
L 592.15415 70.841412 
L 592.243766 70.801505 
L 592.333382 70.955853 
L 592.60223 70.716344 
L 592.871078 70.836098 
L 593.229542 70.713679 
L 593.319158 70.679085 
L 593.408774 70.511445 
L 593.677623 70.729652 
L 593.767239 70.671107 
L 593.856855 70.748273 
L 593.946471 70.577968 
L 594.125703 70.708366 
L 594.215319 70.561996 
L 594.394551 70.660464 
L 594.663399 70.732317 
L 594.842631 70.50878 
L 595.021863 70.428949 
L 595.380328 70.538045 
L 595.469944 70.468857 
L 595.738792 70.561996 
L 596.00764 70.404998 
L 596.186872 70.54071 
L 596.545336 70.655135 
L 596.903801 70.269272 
L 597.172649 70.290574 
L 597.351881 70.240007 
L 597.531113 70.232029 
L 597.620729 70.327816 
L 597.799961 70.322503 
L 598.06881 70.240007 
L 598.248042 70.378383 
L 598.337658 70.482165 
L 598.51689 70.359761 
L 598.96497 70.354432 
L 599.144202 70.351767 
L 599.502666 70.375718 
L 599.771515 70.375718 
L 599.861131 70.170819 
L 599.950747 70.22137 
L 600.129979 70.125582 
L 600.309211 70.224035 
L 600.578059 70.067037 
L 600.667675 70.098966 
L 600.846907 70.024449 
L 601.115756 70.032443 
L 601.205372 70.192105 
L 601.47422 70.072351 
L 602.280764 70.287909 
L 602.37038 70.335811 
L 602.639229 70.130896 
L 602.908077 70.152182 
L 603.445773 70.090988 
L 603.535389 70.245321 
L 603.804237 69.949948 
L 603.983469 70.13889 
L 604.162702 70.186776 
L 604.43155 69.798264 
L 604.610782 69.768984 
L 604.790014 69.795599 
L 604.87963 69.910024 
L 605.058862 69.814221 
L 605.238094 69.867452 
L 605.686175 69.963255 
L 605.865407 69.918003 
L 606.044639 69.949948 
L 606.223871 69.811572 
L 606.403103 69.862122 
L 606.582335 69.707774 
L 606.851183 69.827528 
L 607.209648 69.619965 
L 607.38888 69.486902 
L 607.657728 69.614635 
L 608.553889 69.779627 
L 608.822737 69.670531 
L 609.629281 69.603992 
L 609.718897 69.694482 
L 609.898129 69.651894 
L 609.987746 69.768984 
L 610.256594 69.494897 
L 610.525442 69.718433 
L 610.79429 69.542798 
L 611.152754 69.534804 
L 611.24237 69.603992 
L 611.331986 69.814221 
L 611.511219 69.614635 
L 611.780067 69.729076 
L 611.959299 69.745033 
L 612.138531 69.596014 
L 612.317763 69.638586 
L 612.496995 69.478924 
L 612.945076 69.375142 
L 613.213924 69.460303 
L 613.30354 69.255388 
L 613.482772 69.351191 
L 613.841236 69.30329 
L 613.930852 69.457638 
L 614.110084 69.415066 
L 614.1997 69.335219 
L 614.289316 69.428358 
L 614.468549 69.305954 
L 614.647781 69.372478 
L 615.185477 69.223459 
L 615.364709 69.167579 
L 615.723173 69.204837 
L 615.902406 69.175557 
L 616.440102 69.239431 
L 616.70895 69.284668 
L 616.888182 69.194178 
L 617.15703 69.1862 
L 617.336262 69.250074 
L 617.425879 69.212816 
L 617.515495 69.324576 
L 617.784343 69.167579 
L 617.963575 69.188865 
L 618.053191 69.252723 
L 618.232423 69.164914 
L 618.859735 69.175557 
L 618.949352 69.132985 
L 619.038968 68.92807 
L 619.128584 68.978636 
L 619.307816 68.959999 
L 619.755896 69.082418 
L 619.935128 69.021209 
L 620.11436 69.050489 
L 620.293592 69.029203 
L 620.652057 69.154271 
L 620.831289 69.010565 
L 621.548217 68.763078 
L 622.17553 68.890811 
L 622.354762 68.818974 
L 622.533994 68.925405 
L 622.713226 68.933399 
L 622.802842 68.829617 
L 622.982074 68.885497 
L 623.430155 68.792359 
L 623.609387 68.81631 
L 623.788619 68.821623 
L 624.326315 68.818974 
L 624.505547 68.739127 
L 624.774395 68.765743 
L 625.043244 68.78438 
L 625.222476 68.826953 
L 625.401708 68.78438 
L 625.58094 68.675269 
L 626.656333 68.7551 
L 626.835565 68.781716 
L 627.552493 68.659296 
L 627.821342 68.55285 
L 628.269422 68.563493 
L 628.448654 68.422468 
L 628.627886 68.427782 
L 628.717502 68.616724 
L 628.896734 68.499634 
L 629.344815 68.608746 
L 629.524047 68.542207 
L 629.613663 68.630032 
L 629.792895 68.566158 
L 629.972127 68.590109 
L 630.151359 68.664626 
L 630.330591 68.518256 
L 630.509823 68.595438 
L 631.316368 68.451733 
L 631.4956 68.518256 
L 631.764448 68.510278 
L 631.94368 68.579465 
L 632.122912 68.475684 
L 632.660609 68.355929 
L 632.839841 68.17763 
L 632.929457 68.310692 
L 633.198305 68.180295 
L 633.467153 68.475684 
L 633.646385 68.292071 
L 633.825618 68.395853 
L 634.00485 68.286741 
L 634.273698 68.246834 
L 634.542546 68.459711 
L 635.349091 68.252147 
L 635.528323 68.196267 
L 636.96218 68.132393 
L 637.141412 68.071199 
L 637.231028 67.964753 
L 637.589492 68.265455 
L 637.768724 68.172316 
L 638.216805 68.031276 
L 638.396037 68.108442 
L 638.485653 68.145701 
L 638.575269 68.049897 
L 638.664885 68.15103 
L 638.754501 67.908857 
L 638.844117 67.964753 
L 640.098742 68.129744 
L 640.277974 67.986039 
L 640.36759 67.97806 
L 640.546822 68.188289 
L 640.994902 68.100464 
L 641.263751 67.932807 
L 641.622215 68.00999 
L 641.711831 68.124415 
L 641.891063 67.97806 
L 642.070295 68.097799 
L 642.339143 67.962088 
L 642.518375 68.007325 
L 642.697608 68.036605 
L 642.787224 68.036605 
L 642.87684 67.919516 
L 643.145688 68.087156 
L 643.504152 67.956758 
L 643.683384 67.972731 
L 644.131464 68.00999 
L 644.310697 67.924829 
L 644.400313 67.999347 
L 644.489929 67.924829 
L 644.669161 68.015303 
L 647.088794 67.789118 
L 647.268027 67.871614 
L 647.626491 67.794432 
L 647.716107 67.850312 
L 647.895339 67.717265 
L 648.253803 67.650742 
L 648.433035 67.802426 
L 648.701884 67.717265 
L 648.7915 67.815718 
L 648.970732 67.701293 
L 649.23958 67.83169 
L 649.418812 67.677342 
L 650.046124 67.605489 
L 650.135741 67.698628 
L 650.314973 67.544296 
L 650.494205 67.770481 
L 650.673437 67.677342 
L 651.121517 67.57356 
L 651.838446 67.60284 
L 651.928062 67.387283 
L 652.19691 67.485751 
L 652.555374 67.421876 
L 652.824222 67.560252 
L 653.003454 67.515015 
L 653.361919 67.443163 
L 653.720383 67.496394 
L 653.809999 67.342045 
L 653.989231 67.440514 
L 654.258079 67.437849 
L 654.526927 67.411233 
L 654.795776 67.618797 
L 654.975008 67.469778 
L 655.15424 67.594846 
L 655.243856 67.515015 
L 655.512704 67.674693 
L 656.588097 67.373975 
L 657.394641 67.45647 
L 657.573874 67.501707 
L 657.753106 67.459135 
L 657.842722 67.600176 
L 658.021954 67.480421 
L 658.470034 67.323424 
L 658.738882 67.31543 
L 659.00773 67.350024 
L 659.097347 67.227621 
L 659.366195 67.397926 
L 659.545427 67.472443 
L 659.814275 67.336716 
L 659.903891 67.459135 
L 660.083123 67.283501 
L 660.710436 67.328738 
L 660.889668 67.336716 
L 661.248132 67.381969 
L 661.875444 67.240928 
L 662.054677 67.185032 
L 662.144293 67.326073 
L 662.413141 67.248907 
L 662.861221 67.224956 
L 663.130069 67.177054 
L 663.667766 67.379304 
L 663.846998 67.320759 
L 664.115846 67.40059 
L 664.384694 67.310116 
L 664.653542 67.121174 
L 665.101623 67.134482 
L 665.280855 67.083915 
L 665.460087 67.161097 
L 665.549703 67.110531 
L 665.728935 67.211648 
L 665.997783 67.051986 
L 666.266631 67.238264 
L 666.804328 67.036013 
L 666.98356 67.094558 
L 667.43164 67.129152 
L 667.790104 67.264879 
L 667.969336 67.131817 
L 668.148569 67.102553 
L 669.223961 67.235599 
L 669.313577 67.28883 
L 669.582426 67.105201 
L 669.851274 67.280836 
L 669.94089 67.251571 
L 670.030506 67.34471 
L 670.478586 67.062629 
L 671.105899 66.961512 
L 671.374747 66.964161 
L 671.553979 67.065294 
L 672.629372 67.012063 
L 672.718988 67.17174 
L 672.89822 67.113196 
L 673.435916 67.110531 
L 673.525532 67.20367 
L 673.704764 67.139795 
L 674.152845 67.014727 
L 674.690541 67.075937 
L 674.780157 67.201005 
L 675.049005 66.929567 
L 675.407469 67.107866 
L 675.945166 66.950869 
L 676.124398 66.932232 
L 676.30363 66.950869 
L 676.662094 67.187697 
L 677.110175 66.841758 
L 677.379023 66.921589 
L 677.558255 66.756597 
L 677.737487 66.918924 
L 677.827103 66.852401 
L 678.006335 66.958847 
L 678.364799 66.96949 
L 678.544032 67.017392 
L 678.723264 67.006749 
L 678.902496 66.96949 
L 680.246737 66.902967 
L 680.336353 66.961512 
L 680.605201 66.844422 
L 681.053281 66.964161 
L 681.232513 66.871022 
L 681.501362 66.91361 
L 681.680594 66.777883 
L 681.859826 66.841758 
L 682.039058 66.950869 
L 682.487138 67.028035 
L 682.66637 66.879016 
L 683.204067 66.668788 
L 683.383299 66.892324 
L 683.472915 66.96949 
L 683.741763 66.799169 
L 683.920995 66.855065 
L 684.279459 66.756597 
L 684.637924 66.74064 
L 684.817156 66.756597 
L 685.086004 66.796521 
L 685.265236 66.706031 
L 685.444468 66.815142 
L 685.982165 66.679431 
L 686.251013 66.735311 
L 686.430245 66.863044 
L 686.609477 66.820471 
L 686.878325 66.881665 
L 686.967941 66.722003 
L 687.326406 66.88433 
L 689.208343 66.82845 
L 689.387575 66.844422 
L 690.373352 66.652815 
L 690.6422 66.71136 
L 690.821432 66.575649 
L 691.09028 66.455895 
L 691.53836 66.580963 
L 691.807209 66.410658 
L 691.896825 66.415971 
L 692.076057 66.623551 
L 692.344905 66.615557 
L 692.613753 66.5996 
L 692.792985 66.596935 
L 693.151449 66.735311 
L 693.241065 66.602249 
L 693.420298 66.682096 
L 693.957994 66.450565 
L 694.316458 66.6262 
L 694.49569 66.527747 
L 695.391851 66.639507 
L 695.571083 66.567655 
L 696.019163 66.461208 
L 696.288012 66.59427 
L 696.736092 66.65548 
L 697.00494 66.628864 
L 697.094556 66.737976 
L 697.273788 66.554347 
L 697.363404 66.588941 
L 697.542636 66.439922 
L 698.080333 66.551698 
L 698.259565 66.479845 
L 698.349181 66.554347 
L 698.528413 66.501132 
L 698.707645 66.615557 
L 698.886877 66.479845 
L 698.976493 66.572984 
L 699.155725 66.514439 
L 699.245342 66.48251 
L 699.424574 66.580963 
L 699.783038 66.551698 
L 699.96227 66.567655 
L 700.499966 66.429279 
L 700.679198 66.549033 
L 701.127279 66.466538 
L 701.575359 66.543704 
L 701.754591 66.501132 
L 701.933823 66.471867 
L 702.381904 66.357426 
L 702.740368 66.519753 
L 702.9196 66.549033 
L 703.009216 66.376064 
L 703.098832 66.437257 
L 703.278064 66.415971 
L 703.457296 66.423965 
L 703.546912 66.370734 
L 703.726145 66.426614 
L 704.353457 66.357426 
L 704.443073 66.389371 
L 704.622305 66.301546 
L 704.891153 66.33614 
L 705.070385 66.39735 
L 705.249618 66.277595 
L 705.339234 66.405328 
L 705.608082 66.293568 
L 705.787314 66.346783 
L 705.966546 66.330827 
L 706.145778 66.437257 
L 706.414626 66.240337 
L 706.593858 66.277595 
L 707.221171 66.378712 
L 707.400403 66.400014 
L 707.669251 66.378712 
L 708.744644 66.439922 
L 708.923876 66.381377 
L 709.013492 66.33614 
L 709.103108 66.442587 
L 709.551188 66.213737 
L 709.820037 66.21905 
L 710.536965 66.373399 
L 710.716197 66.248331 
L 710.895429 66.317519 
L 711.253894 66.277595 
L 711.433126 66.365421 
L 711.612358 66.21905 
L 711.79159 66.33614 
L 712.418902 66.216386 
L 712.598134 66.136555 
L 712.777367 66.261639 
L 713.046215 66.189786 
L 713.135831 66.290903 
L 713.315063 66.216386 
L 713.673527 66.213737 
L 713.942375 66.197764 
L 714.569688 66.243001 
L 714.74892 66.168484 
L 714.838536 66.205743 
L 715.017768 66.176478 
L 715.286616 66.152527 
L 715.465848 66.1951 
L 715.734697 66.187121 
L 715.913929 66.240337 
L 716.810089 66.16317 
L 717.168554 66.272282 
L 717.437402 66.096647 
L 717.795866 66.298881 
L 718.064714 66.309525 
L 718.423178 66.240337 
L 718.512794 66.128576 
L 718.781643 66.290903 
L 719.050491 66.136555 
L 719.319339 66.189786 
L 719.588187 66.07801 
L 719.946651 65.992865 
L 720.125884 65.982206 
L 720.484348 66.070032 
L 720.66358 66.040751 
L 720.753196 65.987536 
L 720.932428 66.120598 
L 722.993597 66.155192 
L 723.262446 66.160506 
L 724.51707 66.035438 
L 724.696303 66.101961 
L 725.682079 66.086004 
L 725.861311 66.062053 
L 726.219776 65.913019 
L 726.936704 65.952942 
L 727.115936 66.024795 
L 727.653633 65.947612 
L 727.832865 66.040751 
L 728.370561 66.000844 
L 728.460177 65.889068 
L 728.549793 66.064702 
L 728.729025 66.035438 
L 729.894034 66.07801 
L 729.98365 66.13922 
L 730.162882 66.101961 
L 730.43173 66.13389 
L 730.610963 66.07801 
L 730.879811 66.104626 
L 731.059043 66.083339 
L 731.327891 66.083339 
L 731.507123 66.157841 
L 731.775971 66.02213 
L 732.224052 66.027459 
L 732.403284 65.939634 
L 732.851364 66.059389 
L 734.374837 65.907705 
L 734.554069 66.038102 
L 734.733301 65.928991 
L 735.00215 65.982206 
L 735.808694 65.811901 
L 735.987926 65.987536 
L 736.167158 66.030108 
L 736.436007 65.918348 
L 736.525623 65.886419 
L 736.615239 65.984871 
L 736.884087 65.894397 
L 737.063319 65.907705 
L 739.034872 65.902375 
L 739.30372 65.825209 
L 739.931033 65.968914 
L 740.199881 65.90504 
L 740.468729 65.976893 
L 740.737577 65.952942 
L 741.096042 66.035438 
L 741.275274 65.952942 
L 741.36489 66.006157 
L 741.544122 65.902375 
L 741.723354 65.934321 
L 741.902586 65.883754 
L 742.171434 65.881089 
L 742.619515 65.921013 
L 742.798747 65.923662 
L 743.157211 65.878425 
L 743.426059 65.894397 
L 743.694907 65.846495 
L 743.87414 65.894397 
L 743.963756 65.742713 
L 744.142988 65.843831 
L 744.501452 66.000844 
L 744.859916 65.774643 
L 745.039148 65.843831 
L 745.128764 65.790615 
L 745.397613 65.944964 
L 745.576845 66.006157 
L 745.756077 65.81988 
L 746.114541 65.851825 
L 746.293773 65.801258 
L 746.652237 65.806572 
L 747.100318 65.84916 
L 747.369166 65.718763 
L 747.72763 65.726741 
L 747.817246 65.710784 
L 747.996478 65.79328 
L 748.444559 65.758686 
L 748.803023 65.955607 
L 749.251103 66.027459 
L 749.519951 65.766664 
L 749.699183 65.769329 
L 750.057648 65.718763 
L 750.595344 65.822544 
L 751.491505 65.710784 
L 751.849969 65.838517 
L 752.208433 65.724092 
L 752.477281 65.817231 
L 752.925362 65.734735 
L 753.19421 65.697476 
L 753.373442 65.700141 
L 753.64229 65.78795 
L 753.911138 65.769329 
L 754.09037 65.894397 
L 754.269602 65.724092 
L 754.448835 65.803923 
L 755.434611 65.64691 
L 755.613843 65.697476 
L 755.793076 65.734735 
L 755.882692 65.73207 
L 756.061924 65.801258 
L 756.330772 65.718763 
L 756.59962 65.801258 
L 756.778852 65.73207 
L 757.585397 65.716098 
L 757.764629 65.678839 
L 757.943861 65.814566 
L 758.481557 65.673526 
L 758.660789 65.79328 
L 761.707735 65.697476 
L 761.886968 65.724092 
L 762.96236 65.689498 
L 763.231209 65.692147 
L 763.410441 65.657553 
L 763.589673 65.73207 
L 763.679289 65.607002 
L 763.948137 65.774643 
L 764.127369 65.750692 
L 764.396217 65.654888 
L 764.665065 65.561749 
L 764.844298 65.660218 
L 765.740458 65.593695 
L 766.726235 65.668196 
L 766.905467 65.625624 
L 767.712012 65.614981 
L 767.891244 65.665547 
L 768.339324 65.617645 
L 768.608172 65.700141 
L 769.056252 65.53515 
L 769.504333 65.559101 
L 769.683565 65.489913 
L 770.221261 65.572408 
L 770.310877 65.460632 
L 770.490109 65.537799 
L 770.93819 65.559101 
L 771.117422 65.540463 
L 771.296654 65.455319 
L 771.475886 65.569744 
L 772.909743 65.519177 
L 773.088975 65.516512 
L 774.522832 65.575057 
L 774.702064 65.689498 
L 774.881296 65.670861 
L 775.060528 65.718763 
L 775.508609 65.540463 
L 775.598225 65.567079 
L 775.687841 65.439346 
L 775.777457 65.503205 
L 776.046305 65.561749 
L 776.584001 65.678839 
L 776.673618 65.697476 
L 776.85285 65.575057 
L 777.30093 65.481918 
L 777.569778 65.630953 
L 777.74901 65.537799 
L 777.928242 65.64691 
L 778.286707 65.593695 
L 778.555555 65.678839 
L 778.824403 65.614981 
L 779.093251 65.638932 
L 779.362099 65.588365 
L 779.989412 65.372823 
L 780.168644 65.410066 
L 780.527108 65.442011 
L 780.70634 65.391444 
L 780.885572 65.412731 
L 781.333653 65.410066 
L 781.423269 65.316927 
L 781.512885 65.426038 
L 781.602501 65.322257 
L 781.871349 65.553771 
L 782.498661 65.396774 
L 785.455991 65.551106 
L 785.545608 65.465962 
L 785.635224 65.575057 
L 785.72484 65.420725 
L 785.814456 65.47394 
L 785.904072 65.545793 
L 786.083304 65.380801 
L 786.352152 65.434017 
L 786.441768 65.367494 
L 786.621 65.434017 
L 786.800232 65.537799 
L 786.979464 65.407417 
L 787.158697 65.399423 
L 787.337929 65.410066 
L 787.696393 65.47927 
L 787.786009 65.540463 
L 787.965241 65.399423 
L 788.054857 65.548458 
L 788.144473 65.396774 
L 788.323705 65.495226 
L 788.502938 65.428703 
L 788.502938 65.428703 
" clip-path="url(#p521fd2d45e)" style="fill: none; stroke: #1f77b4; stroke-width: 1.5; stroke-linecap: square"/>
   </g>
   <g id="patch_3">
    <path d="M 431.382938 311.6435 
L 431.382938 45.5315 
" style="fill: none; stroke: #000000; stroke-width: 0.8; stroke-linejoin: miter; stroke-linecap: square"/>
   </g>
   <g id="patch_4">
    <path d="M 788.502938 311.6435 
L 788.502938 45.5315 
" style="fill: none; stroke: #000000; stroke-width: 0.8; stroke-linejoin: miter; stroke-linecap: square"/>
   </g>
   <g id="patch_5">
    <path d="M 431.382938 311.6435 
L 788.502938 311.6435 
" style="fill: none; stroke: #000000; stroke-width: 0.8; stroke-linejoin: miter; stroke-linecap: square"/>
   </g>
   <g id="patch_6">
    <path d="M 431.382938 45.5315 
L 788.502938 45.5315 
" style="fill: none; stroke: #000000; stroke-width: 0.8; stroke-linejoin: miter; stroke-linecap: square"/>
   </g>
   <g id="text_18">
    <!-- Accuracy of the 10_06_25_teacher_(d-100_k-1_n-10e6)_torch_model_(100+2048-2048.1-1) on the validation set -->
    <g transform="translate(7.2 25.5315) scale(0.264 -0.264)">
     <defs>
      <path id="TimesNewRomanPSMT-68" d="M 1041 4444 
L 1041 2350 
Q 1388 2731 1591 2839 
Q 1794 2947 1997 2947 
Q 2241 2947 2416 2812 
Q 2591 2678 2675 2391 
Q 2734 2191 2734 1659 
L 2734 647 
Q 2734 375 2778 275 
Q 2809 200 2884 156 
Q 2959 113 3159 113 
L 3159 0 
L 1753 0 
L 1753 113 
L 1819 113 
Q 2019 113 2097 173 
Q 2175 234 2206 353 
Q 2216 403 2216 647 
L 2216 1659 
Q 2216 2128 2167 2275 
Q 2119 2422 2012 2495 
Q 1906 2569 1756 2569 
Q 1603 2569 1437 2487 
Q 1272 2406 1041 2159 
L 1041 647 
Q 1041 353 1073 281 
Q 1106 209 1195 161 
Q 1284 113 1503 113 
L 1503 0 
L 84 0 
L 84 113 
Q 275 113 384 172 
Q 447 203 484 290 
Q 522 378 522 647 
L 522 3238 
Q 522 3728 498 3840 
Q 475 3953 426 3993 
Q 378 4034 297 4034 
Q 231 4034 84 3984 
L 41 4094 
L 897 4444 
L 1041 4444 
z
" transform="scale(0.015625)"/>
      <path id="TimesNewRomanPSMT-5f" d="M 3256 -1381 
L -53 -1381 
L -53 -1119 
L 3256 -1119 
L 3256 -1381 
z
" transform="scale(0.015625)"/>
      <path id="TimesNewRomanPSMT-28" d="M 1988 -1253 
L 1988 -1369 
Q 1516 -1131 1200 -813 
Q 750 -359 506 256 
Q 263 872 263 1534 
Q 263 2503 741 3301 
Q 1219 4100 1988 4444 
L 1988 4313 
Q 1603 4100 1356 3731 
Q 1109 3363 987 2797 
Q 866 2231 866 1616 
Q 866 947 969 400 
Q 1050 -31 1165 -292 
Q 1281 -553 1476 -793 
Q 1672 -1034 1988 -1253 
z
" transform="scale(0.015625)"/>
      <path id="TimesNewRomanPSMT-64" d="M 2222 322 
Q 2013 103 1813 7 
Q 1613 -88 1381 -88 
Q 913 -88 563 304 
Q 213 697 213 1313 
Q 213 1928 600 2439 
Q 988 2950 1597 2950 
Q 1975 2950 2222 2709 
L 2222 3238 
Q 2222 3728 2198 3840 
Q 2175 3953 2125 3993 
Q 2075 4034 2000 4034 
Q 1919 4034 1784 3984 
L 1744 4094 
L 2597 4444 
L 2738 4444 
L 2738 1134 
Q 2738 631 2761 520 
Q 2784 409 2836 365 
Q 2888 322 2956 322 
Q 3041 322 3181 375 
L 3216 266 
L 2366 -88 
L 2222 -88 
L 2222 322 
z
M 2222 541 
L 2222 2016 
Q 2203 2228 2109 2403 
Q 2016 2578 1861 2667 
Q 1706 2756 1559 2756 
Q 1284 2756 1069 2509 
Q 784 2184 784 1559 
Q 784 928 1059 592 
Q 1334 256 1672 256 
Q 1956 256 2222 541 
z
" transform="scale(0.015625)"/>
      <path id="TimesNewRomanPSMT-2d" d="M 259 1672 
L 1875 1672 
L 1875 1200 
L 259 1200 
L 259 1672 
z
" transform="scale(0.015625)"/>
      <path id="TimesNewRomanPSMT-6b" d="M 1047 4444 
L 1047 1594 
L 1775 2259 
Q 2006 2472 2044 2528 
Q 2069 2566 2069 2603 
Q 2069 2666 2017 2711 
Q 1966 2756 1847 2763 
L 1847 2863 
L 3091 2863 
L 3091 2763 
Q 2834 2756 2664 2684 
Q 2494 2613 2291 2428 
L 1556 1750 
L 2291 822 
Q 2597 438 2703 334 
Q 2853 188 2966 144 
Q 3044 113 3238 113 
L 3238 0 
L 1847 0 
L 1847 113 
Q 1966 116 2008 148 
Q 2050 181 2050 241 
Q 2050 313 1925 472 
L 1047 1594 
L 1047 644 
Q 1047 366 1086 278 
Q 1125 191 1197 153 
Q 1269 116 1509 113 
L 1509 0 
L 53 0 
L 53 113 
Q 272 113 381 166 
Q 447 200 481 272 
Q 528 375 528 628 
L 528 3234 
Q 528 3731 506 3842 
Q 484 3953 434 3995 
Q 384 4038 303 4038 
Q 238 4038 106 3984 
L 53 4094 
L 903 4444 
L 1047 4444 
z
" transform="scale(0.015625)"/>
      <path id="TimesNewRomanPSMT-29" d="M 144 4313 
L 144 4444 
Q 619 4209 934 3891 
Q 1381 3434 1625 2820 
Q 1869 2206 1869 1541 
Q 1869 572 1392 -226 
Q 916 -1025 144 -1369 
L 144 -1253 
Q 528 -1038 776 -670 
Q 1025 -303 1145 264 
Q 1266 831 1266 1447 
Q 1266 2113 1163 2663 
Q 1084 3094 967 3353 
Q 850 3613 656 3853 
Q 463 4094 144 4313 
z
" transform="scale(0.015625)"/>
      <path id="TimesNewRomanPSMT-6c" d="M 1184 4444 
L 1184 647 
Q 1184 378 1223 290 
Q 1263 203 1344 158 
Q 1425 113 1647 113 
L 1647 0 
L 244 0 
L 244 113 
Q 441 113 512 153 
Q 584 194 625 287 
Q 666 381 666 647 
L 666 3247 
Q 666 3731 644 3842 
Q 622 3953 573 3993 
Q 525 4034 450 4034 
Q 369 4034 244 3984 
L 191 4094 
L 1044 4444 
L 1184 4444 
z
" transform="scale(0.015625)"/>
      <path id="TimesNewRomanPSMT-2b" d="M 1672 441 
L 1672 2000 
L 116 2000 
L 116 2256 
L 1672 2256 
L 1672 3809 
L 1922 3809 
L 1922 2256 
L 3484 2256 
L 3484 2000 
L 1922 2000 
L 1922 441 
L 1672 441 
z
" transform="scale(0.015625)"/>
      <path id="TimesNewRomanPSMT-76" d="M 53 2863 
L 1400 2863 
L 1400 2747 
L 1313 2747 
Q 1191 2747 1127 2687 
Q 1063 2628 1063 2528 
Q 1063 2419 1128 2269 
L 1794 688 
L 2463 2328 
Q 2534 2503 2534 2594 
Q 2534 2638 2509 2666 
Q 2475 2713 2422 2730 
Q 2369 2747 2206 2747 
L 2206 2863 
L 3141 2863 
L 3141 2747 
Q 2978 2734 2916 2681 
Q 2806 2588 2719 2369 
L 1703 -88 
L 1575 -88 
L 553 2328 
Q 484 2497 421 2570 
Q 359 2644 263 2694 
Q 209 2722 53 2747 
L 53 2863 
z
" transform="scale(0.015625)"/>
     </defs>
     <use xlink:href="#TimesNewRomanPSMT-41"/>
     <use xlink:href="#TimesNewRomanPSMT-63" transform="translate(72.216797 0)"/>
     <use xlink:href="#TimesNewRomanPSMT-63" transform="translate(116.601562 0)"/>
     <use xlink:href="#TimesNewRomanPSMT-75" transform="translate(160.986328 0)"/>
     <use xlink:href="#TimesNewRomanPSMT-72" transform="translate(210.986328 0)"/>
     <use xlink:href="#TimesNewRomanPSMT-61" transform="translate(244.287109 0)"/>
     <use xlink:href="#TimesNewRomanPSMT-63" transform="translate(288.671875 0)"/>
     <use xlink:href="#TimesNewRomanPSMT-79" transform="translate(333.056641 0)"/>
     <use xlink:href="#TimesNewRomanPSMT-20" transform="translate(383.056641 0)"/>
     <use xlink:href="#TimesNewRomanPSMT-6f" transform="translate(408.056641 0)"/>
     <use xlink:href="#TimesNewRomanPSMT-66" transform="translate(458.056641 0)"/>
     <use xlink:href="#TimesNewRomanPSMT-20" transform="translate(491.357422 0)"/>
     <use xlink:href="#TimesNewRomanPSMT-74" transform="translate(516.357422 0)"/>
     <use xlink:href="#TimesNewRomanPSMT-68" transform="translate(544.140625 0)"/>
     <use xlink:href="#TimesNewRomanPSMT-65" transform="translate(594.140625 0)"/>
     <use xlink:href="#TimesNewRomanPSMT-20" transform="translate(638.525391 0)"/>
     <use xlink:href="#TimesNewRomanPSMT-31" transform="translate(663.525391 0)"/>
     <use xlink:href="#TimesNewRomanPSMT-30" transform="translate(713.525391 0)"/>
     <use xlink:href="#TimesNewRomanPSMT-5f" transform="translate(763.525391 0)"/>
     <use xlink:href="#TimesNewRomanPSMT-30" transform="translate(813.525391 0)"/>
     <use xlink:href="#TimesNewRomanPSMT-36" transform="translate(863.525391 0)"/>
     <use xlink:href="#TimesNewRomanPSMT-5f" transform="translate(913.525391 0)"/>
     <use xlink:href="#TimesNewRomanPSMT-32" transform="translate(963.525391 0)"/>
     <use xlink:href="#TimesNewRomanPSMT-35" transform="translate(1013.525391 0)"/>
     <use xlink:href="#TimesNewRomanPSMT-5f" transform="translate(1063.525391 0)"/>
     <use xlink:href="#TimesNewRomanPSMT-74" transform="translate(1113.525391 0)"/>
     <use xlink:href="#TimesNewRomanPSMT-65" transform="translate(1141.308594 0)"/>
     <use xlink:href="#TimesNewRomanPSMT-61" transform="translate(1185.693359 0)"/>
     <use xlink:href="#TimesNewRomanPSMT-63" transform="translate(1230.078125 0)"/>
     <use xlink:href="#TimesNewRomanPSMT-68" transform="translate(1274.462891 0)"/>
     <use xlink:href="#TimesNewRomanPSMT-65" transform="translate(1324.462891 0)"/>
     <use xlink:href="#TimesNewRomanPSMT-72" transform="translate(1368.847656 0)"/>
     <use xlink:href="#TimesNewRomanPSMT-5f" transform="translate(1402.148438 0)"/>
     <use xlink:href="#TimesNewRomanPSMT-28" transform="translate(1452.148438 0)"/>
     <use xlink:href="#TimesNewRomanPSMT-64" transform="translate(1485.449219 0)"/>
     <use xlink:href="#TimesNewRomanPSMT-2d" transform="translate(1535.449219 0)"/>
     <use xlink:href="#TimesNewRomanPSMT-31" transform="translate(1568.75 0)"/>
     <use xlink:href="#TimesNewRomanPSMT-30" transform="translate(1618.75 0)"/>
     <use xlink:href="#TimesNewRomanPSMT-30" transform="translate(1668.75 0)"/>
     <use xlink:href="#TimesNewRomanPSMT-5f" transform="translate(1718.75 0)"/>
     <use xlink:href="#TimesNewRomanPSMT-6b" transform="translate(1768.75 0)"/>
     <use xlink:href="#TimesNewRomanPSMT-2d" transform="translate(1818.75 0)"/>
     <use xlink:href="#TimesNewRomanPSMT-31" transform="translate(1852.050781 0)"/>
     <use xlink:href="#TimesNewRomanPSMT-5f" transform="translate(1902.050781 0)"/>
     <use xlink:href="#TimesNewRomanPSMT-6e" transform="translate(1952.050781 0)"/>
     <use xlink:href="#TimesNewRomanPSMT-2d" transform="translate(2002.050781 0)"/>
     <use xlink:href="#TimesNewRomanPSMT-31" transform="translate(2035.351562 0)"/>
     <use xlink:href="#TimesNewRomanPSMT-30" transform="translate(2085.351562 0)"/>
     <use xlink:href="#TimesNewRomanPSMT-65" transform="translate(2135.351562 0)"/>
     <use xlink:href="#TimesNewRomanPSMT-36" transform="translate(2179.736328 0)"/>
     <use xlink:href="#TimesNewRomanPSMT-29" transform="translate(2229.736328 0)"/>
     <use xlink:href="#TimesNewRomanPSMT-5f" transform="translate(2263.037109 0)"/>
     <use xlink:href="#TimesNewRomanPSMT-74" transform="translate(2313.037109 0)"/>
     <use xlink:href="#TimesNewRomanPSMT-6f" transform="translate(2340.820312 0)"/>
     <use xlink:href="#TimesNewRomanPSMT-72" transform="translate(2390.820312 0)"/>
     <use xlink:href="#TimesNewRomanPSMT-63" transform="translate(2424.121094 0)"/>
     <use xlink:href="#TimesNewRomanPSMT-68" transform="translate(2468.505859 0)"/>
     <use xlink:href="#TimesNewRomanPSMT-5f" transform="translate(2518.505859 0)"/>
     <use xlink:href="#TimesNewRomanPSMT-6d" transform="translate(2568.505859 0)"/>
     <use xlink:href="#TimesNewRomanPSMT-6f" transform="translate(2646.289062 0)"/>
     <use xlink:href="#TimesNewRomanPSMT-64" transform="translate(2696.289062 0)"/>
     <use xlink:href="#TimesNewRomanPSMT-65" transform="translate(2746.289062 0)"/>
     <use xlink:href="#TimesNewRomanPSMT-6c" transform="translate(2790.673828 0)"/>
     <use xlink:href="#TimesNewRomanPSMT-5f" transform="translate(2818.457031 0)"/>
     <use xlink:href="#TimesNewRomanPSMT-28" transform="translate(2868.457031 0)"/>
     <use xlink:href="#TimesNewRomanPSMT-31" transform="translate(2901.757812 0)"/>
     <use xlink:href="#TimesNewRomanPSMT-30" transform="translate(2951.757812 0)"/>
     <use xlink:href="#TimesNewRomanPSMT-30" transform="translate(3001.757812 0)"/>
     <use xlink:href="#TimesNewRomanPSMT-2b" transform="translate(3051.757812 0)"/>
     <use xlink:href="#TimesNewRomanPSMT-32" transform="translate(3108.154297 0)"/>
     <use xlink:href="#TimesNewRomanPSMT-30" transform="translate(3158.154297 0)"/>
     <use xlink:href="#TimesNewRomanPSMT-34" transform="translate(3208.154297 0)"/>
     <use xlink:href="#TimesNewRomanPSMT-38" transform="translate(3258.154297 0)"/>
     <use xlink:href="#TimesNewRomanPSMT-2d" transform="translate(3308.154297 0)"/>
     <use xlink:href="#TimesNewRomanPSMT-32" transform="translate(3341.455078 0)"/>
     <use xlink:href="#TimesNewRomanPSMT-30" transform="translate(3391.455078 0)"/>
     <use xlink:href="#TimesNewRomanPSMT-34" transform="translate(3441.455078 0)"/>
     <use xlink:href="#TimesNewRomanPSMT-38" transform="translate(3491.455078 0)"/>
     <use xlink:href="#TimesNewRomanPSMT-2e" transform="translate(3541.455078 0)"/>
     <use xlink:href="#TimesNewRomanPSMT-31" transform="translate(3566.455078 0)"/>
     <use xlink:href="#TimesNewRomanPSMT-2d" transform="translate(3616.455078 0)"/>
     <use xlink:href="#TimesNewRomanPSMT-31" transform="translate(3649.755859 0)"/>
     <use xlink:href="#TimesNewRomanPSMT-29" transform="translate(3699.755859 0)"/>
     <use xlink:href="#TimesNewRomanPSMT-20" transform="translate(3733.056641 0)"/>
     <use xlink:href="#TimesNewRomanPSMT-6f" transform="translate(3758.056641 0)"/>
     <use xlink:href="#TimesNewRomanPSMT-6e" transform="translate(3808.056641 0)"/>
     <use xlink:href="#TimesNewRomanPSMT-20" transform="translate(3858.056641 0)"/>
     <use xlink:href="#TimesNewRomanPSMT-74" transform="translate(3883.056641 0)"/>
     <use xlink:href="#TimesNewRomanPSMT-68" transform="translate(3910.839844 0)"/>
     <use xlink:href="#TimesNewRomanPSMT-65" transform="translate(3960.839844 0)"/>
     <use xlink:href="#TimesNewRomanPSMT-20" transform="translate(4005.224609 0)"/>
     <use xlink:href="#TimesNewRomanPSMT-76" transform="translate(4030.224609 0)"/>
     <use xlink:href="#TimesNewRomanPSMT-61" transform="translate(4080.224609 0)"/>
     <use xlink:href="#TimesNewRomanPSMT-6c" transform="translate(4124.609375 0)"/>
     <use xlink:href="#TimesNewRomanPSMT-69" transform="translate(4152.392578 0)"/>
     <use xlink:href="#TimesNewRomanPSMT-64" transform="translate(4180.175781 0)"/>
     <use xlink:href="#TimesNewRomanPSMT-61" transform="translate(4230.175781 0)"/>
     <use xlink:href="#TimesNewRomanPSMT-74" transform="translate(4274.560547 0)"/>
     <use xlink:href="#TimesNewRomanPSMT-69" transform="translate(4302.34375 0)"/>
     <use xlink:href="#TimesNewRomanPSMT-6f" transform="translate(4330.126953 0)"/>
     <use xlink:href="#TimesNewRomanPSMT-6e" transform="translate(4380.126953 0)"/>
     <use xlink:href="#TimesNewRomanPSMT-20" transform="translate(4430.126953 0)"/>
     <use xlink:href="#TimesNewRomanPSMT-73" transform="translate(4455.126953 0)"/>
     <use xlink:href="#TimesNewRomanPSMT-65" transform="translate(4494.042969 0)"/>
     <use xlink:href="#TimesNewRomanPSMT-74" transform="translate(4538.427734 0)"/>
    </g>
   </g>
   <g id="legend_1">
    <g id="patch_7">
     <path d="M 446.782938 300.6435 
L 683.95325 300.6435 
Q 688.35325 300.6435 688.35325 296.2435 
L 688.35325 267.296312 
Q 688.35325 262.896312 683.95325 262.896312 
L 446.782938 262.896312 
Q 442.382938 262.896312 442.382938 267.296312 
L 442.382938 296.2435 
Q 442.382938 300.6435 446.782938 300.6435 
z
" style="fill: #ffffff; opacity: 0.8; stroke: #cccccc; stroke-linejoin: miter"/>
    </g>
    <g id="line2d_32">
     <path d="M 451.182938 279.396312 
L 473.182938 279.396312 
L 495.182938 279.396312 
" style="fill: none; stroke: #1f77b4; stroke-width: 1.5; stroke-linecap: square"/>
    </g>
    <g id="text_19">
     <!-- Best accuracy 0.93 -->
     <g transform="translate(512.782938 287.096312) scale(0.22 -0.22)">
      <defs>
       <path id="TimesNewRomanPSMT-42" d="M 2956 2163 
Q 3397 2069 3616 1863 
Q 3919 1575 3919 1159 
Q 3919 844 3719 555 
Q 3519 266 3170 133 
Q 2822 0 2106 0 
L 106 0 
L 106 116 
L 266 116 
Q 531 116 647 284 
Q 719 394 719 750 
L 719 3488 
Q 719 3881 628 3984 
Q 506 4122 266 4122 
L 106 4122 
L 106 4238 
L 1938 4238 
Q 2450 4238 2759 4163 
Q 3228 4050 3475 3764 
Q 3722 3478 3722 3106 
Q 3722 2788 3528 2536 
Q 3334 2284 2956 2163 
z
M 1319 2331 
Q 1434 2309 1582 2298 
Q 1731 2288 1909 2288 
Q 2366 2288 2595 2386 
Q 2825 2484 2947 2687 
Q 3069 2891 3069 3131 
Q 3069 3503 2766 3765 
Q 2463 4028 1881 4028 
Q 1569 4028 1319 3959 
L 1319 2331 
z
M 1319 306 
Q 1681 222 2034 222 
Q 2600 222 2897 476 
Q 3194 731 3194 1106 
Q 3194 1353 3059 1581 
Q 2925 1809 2622 1940 
Q 2319 2072 1872 2072 
Q 1678 2072 1540 2065 
Q 1403 2059 1319 2044 
L 1319 306 
z
" transform="scale(0.015625)"/>
      </defs>
      <use xlink:href="#TimesNewRomanPSMT-42"/>
      <use xlink:href="#TimesNewRomanPSMT-65" transform="translate(66.699219 0)"/>
      <use xlink:href="#TimesNewRomanPSMT-73" transform="translate(111.083984 0)"/>
      <use xlink:href="#TimesNewRomanPSMT-74" transform="translate(150 0)"/>
      <use xlink:href="#TimesNewRomanPSMT-20" transform="translate(177.783203 0)"/>
      <use xlink:href="#TimesNewRomanPSMT-61" transform="translate(202.783203 0)"/>
      <use xlink:href="#TimesNewRomanPSMT-63" transform="translate(247.167969 0)"/>
      <use xlink:href="#TimesNewRomanPSMT-63" transform="translate(291.552734 0)"/>
      <use xlink:href="#TimesNewRomanPSMT-75" transform="translate(335.9375 0)"/>
      <use xlink:href="#TimesNewRomanPSMT-72" transform="translate(385.9375 0)"/>
      <use xlink:href="#TimesNewRomanPSMT-61" transform="translate(419.238281 0)"/>
      <use xlink:href="#TimesNewRomanPSMT-63" transform="translate(463.623047 0)"/>
      <use xlink:href="#TimesNewRomanPSMT-79" transform="translate(508.007812 0)"/>
      <use xlink:href="#TimesNewRomanPSMT-20" transform="translate(558.007812 0)"/>
      <use xlink:href="#TimesNewRomanPSMT-30" transform="translate(583.007812 0)"/>
      <use xlink:href="#TimesNewRomanPSMT-2e" transform="translate(633.007812 0)"/>
      <use xlink:href="#TimesNewRomanPSMT-39" transform="translate(658.007812 0)"/>
      <use xlink:href="#TimesNewRomanPSMT-33" transform="translate(708.007812 0)"/>
     </g>
    </g>
   </g>
  </g>
 </g>
 <defs>
  <clipPath id="p521fd2d45e">
   <rect x="431.382938" y="45.5315" width="357.12" height="266.112"/>
  </clipPath>
 </defs>
</svg>
