<?xml version="1.0" encoding="utf-8" standalone="no"?>
<!DOCTYPE svg PUBLIC "-//W3C//DTD SVG 1.1//EN"
  "http://www.w3.org/Graphics/SVG/1.1/DTD/svg11.dtd">
<svg xmlns:xlink="http://www.w3.org/1999/xlink" width="1051.54875pt" height="383.265687pt" viewBox="0 0 1051.54875 383.265687" xmlns="http://www.w3.org/2000/svg" version="1.1">
 <metadata>
  <rdf:RDF xmlns:dc="http://purl.org/dc/elements/1.1/" xmlns:cc="http://creativecommons.org/ns#" xmlns:rdf="http://www.w3.org/1999/02/22-rdf-syntax-ns#">
   <cc:Work>
    <dc:type rdf:resource="http://purl.org/dc/dcmitype/StillImage"/>
    <dc:date>2025-07-12T05:45:29.082316</dc:date>
    <dc:format>image/svg+xml</dc:format>
    <dc:creator>
     <cc:Agent>
      <dc:title>Matplotlib v3.10.3, https://matplotlib.org/</dc:title>
     </cc:Agent>
    </dc:creator>
   </cc:Work>
  </rdf:RDF>
 </metadata>
 <defs>
  <style type="text/css">*{stroke-linejoin: round; stroke-linecap: butt}</style>
 </defs>
 <g id="figure_1">
  <g id="patch_1">
   <path d="M 0 383.265687 
L 1051.54875 383.265687 
L 1051.54875 0 
L 0 0 
z
" style="fill: #ffffff"/>
  </g>
  <g id="axes_1">
   <g id="patch_2">
    <path d="M 347.214375 311.6435 
L 704.334375 311.6435 
L 704.334375 45.5315 
L 347.214375 45.5315 
z
" style="fill: #ffffff"/>
   </g>
   <g id="matplotlib.axis_1">
    <g id="xtick_1">
     <g id="line2d_1">
      <path d="M 347.214375 311.6435 
L 347.214375 45.5315 
" clip-path="url(#p458560cfcd)" style="fill: none; stroke: #b0b0b0; stroke-opacity: 0.3; stroke-width: 0.8; stroke-linecap: square"/>
     </g>
     <g id="line2d_2">
      <defs>
       <path id="mf4bbccca45" d="M 0 0 
L 0 3.5 
" style="stroke: #000000; stroke-width: 0.8"/>
      </defs>
      <g>
       <use xlink:href="#mf4bbccca45" x="347.214375" y="311.6435" style="stroke: #000000; stroke-width: 0.8"/>
      </g>
     </g>
     <g id="text_1">
      <!-- 0.0 -->
      <g transform="translate(333.464375 333.91975) scale(0.22 -0.22)">
       <defs>
        <path id="TimesNewRomanPSMT-30" d="M 231 2094 
Q 231 2819 450 3342 
Q 669 3866 1031 4122 
Q 1313 4325 1613 4325 
Q 2100 4325 2488 3828 
Q 2972 3213 2972 2159 
Q 2972 1422 2759 906 
Q 2547 391 2217 158 
Q 1888 -75 1581 -75 
Q 975 -75 572 641 
Q 231 1244 231 2094 
z
M 844 2016 
Q 844 1141 1059 588 
Q 1238 122 1591 122 
Q 1759 122 1940 273 
Q 2122 425 2216 781 
Q 2359 1319 2359 2297 
Q 2359 3022 2209 3506 
Q 2097 3866 1919 4016 
Q 1791 4119 1609 4119 
Q 1397 4119 1231 3928 
Q 1006 3669 925 3112 
Q 844 2556 844 2016 
z
" transform="scale(0.015625)"/>
        <path id="TimesNewRomanPSMT-2e" d="M 800 606 
Q 947 606 1047 504 
Q 1147 403 1147 259 
Q 1147 116 1045 14 
Q 944 -88 800 -88 
Q 656 -88 554 14 
Q 453 116 453 259 
Q 453 406 554 506 
Q 656 606 800 606 
z
" transform="scale(0.015625)"/>
       </defs>
       <use xlink:href="#TimesNewRomanPSMT-30"/>
       <use xlink:href="#TimesNewRomanPSMT-2e" transform="translate(50 0)"/>
       <use xlink:href="#TimesNewRomanPSMT-30" transform="translate(75 0)"/>
      </g>
     </g>
    </g>
    <g id="xtick_2">
     <g id="line2d_3">
      <path d="M 453.042214 311.6435 
L 453.042214 45.5315 
" clip-path="url(#p458560cfcd)" style="fill: none; stroke: #b0b0b0; stroke-opacity: 0.3; stroke-width: 0.8; stroke-linecap: square"/>
     </g>
     <g id="line2d_4">
      <g>
       <use xlink:href="#mf4bbccca45" x="453.042214" y="311.6435" style="stroke: #000000; stroke-width: 0.8"/>
      </g>
     </g>
     <g id="text_2">
      <!-- 0.5 -->
      <g transform="translate(439.292214 333.91975) scale(0.22 -0.22)">
       <defs>
        <path id="TimesNewRomanPSMT-35" d="M 2778 4238 
L 2534 3706 
L 1259 3706 
L 981 3138 
Q 1809 3016 2294 2522 
Q 2709 2097 2709 1522 
Q 2709 1188 2573 903 
Q 2438 619 2231 419 
Q 2025 219 1772 97 
Q 1413 -75 1034 -75 
Q 653 -75 479 54 
Q 306 184 306 341 
Q 306 428 378 495 
Q 450 563 559 563 
Q 641 563 702 538 
Q 763 513 909 409 
Q 1144 247 1384 247 
Q 1750 247 2026 523 
Q 2303 800 2303 1197 
Q 2303 1581 2056 1914 
Q 1809 2247 1375 2428 
Q 1034 2569 447 2591 
L 1259 4238 
L 2778 4238 
z
" transform="scale(0.015625)"/>
       </defs>
       <use xlink:href="#TimesNewRomanPSMT-30"/>
       <use xlink:href="#TimesNewRomanPSMT-2e" transform="translate(50 0)"/>
       <use xlink:href="#TimesNewRomanPSMT-35" transform="translate(75 0)"/>
      </g>
     </g>
    </g>
    <g id="xtick_3">
     <g id="line2d_5">
      <path d="M 558.870054 311.6435 
L 558.870054 45.5315 
" clip-path="url(#p458560cfcd)" style="fill: none; stroke: #b0b0b0; stroke-opacity: 0.3; stroke-width: 0.8; stroke-linecap: square"/>
     </g>
     <g id="line2d_6">
      <g>
       <use xlink:href="#mf4bbccca45" x="558.870054" y="311.6435" style="stroke: #000000; stroke-width: 0.8"/>
      </g>
     </g>
     <g id="text_3">
      <!-- 1.0 -->
      <g transform="translate(545.120054 333.91975) scale(0.22 -0.22)">
       <defs>
        <path id="TimesNewRomanPSMT-31" d="M 750 3822 
L 1781 4325 
L 1884 4325 
L 1884 747 
Q 1884 391 1914 303 
Q 1944 216 2037 169 
Q 2131 122 2419 116 
L 2419 0 
L 825 0 
L 825 116 
Q 1125 122 1212 167 
Q 1300 213 1334 289 
Q 1369 366 1369 747 
L 1369 3034 
Q 1369 3497 1338 3628 
Q 1316 3728 1258 3775 
Q 1200 3822 1119 3822 
Q 1003 3822 797 3725 
L 750 3822 
z
" transform="scale(0.015625)"/>
       </defs>
       <use xlink:href="#TimesNewRomanPSMT-31"/>
       <use xlink:href="#TimesNewRomanPSMT-2e" transform="translate(50 0)"/>
       <use xlink:href="#TimesNewRomanPSMT-30" transform="translate(75 0)"/>
      </g>
     </g>
    </g>
    <g id="xtick_4">
     <g id="line2d_7">
      <path d="M 664.697893 311.6435 
L 664.697893 45.5315 
" clip-path="url(#p458560cfcd)" style="fill: none; stroke: #b0b0b0; stroke-opacity: 0.3; stroke-width: 0.8; stroke-linecap: square"/>
     </g>
     <g id="line2d_8">
      <g>
       <use xlink:href="#mf4bbccca45" x="664.697893" y="311.6435" style="stroke: #000000; stroke-width: 0.8"/>
      </g>
     </g>
     <g id="text_4">
      <!-- 1.5 -->
      <g transform="translate(650.947893 333.91975) scale(0.22 -0.22)">
       <use xlink:href="#TimesNewRomanPSMT-31"/>
       <use xlink:href="#TimesNewRomanPSMT-2e" transform="translate(50 0)"/>
       <use xlink:href="#TimesNewRomanPSMT-35" transform="translate(75 0)"/>
      </g>
     </g>
    </g>
    <g id="text_5">
     <!-- $\kappa  = \frac{ln(n)}{ln(d)}$ -->
     <g transform="translate(493.764375 364.185687) scale(0.22 -0.22)">
      <defs>
       <path id="STIXGeneral-Italic-3ba" d="M 979 1440 
L 998 1446 
Q 1850 2541 2464 2790 
Q 2547 2822 2630 2822 
Q 2797 2822 2886 2736 
Q 2976 2650 2976 2522 
Q 2976 2387 2893 2307 
Q 2810 2227 2682 2227 
Q 2605 2227 2502 2288 
Q 2400 2349 2336 2349 
Q 2170 2349 1990 2205 
Q 1811 2061 1414 1645 
L 2042 544 
Q 2202 262 2310 182 
Q 2419 102 2624 102 
L 2624 0 
Q 2374 -83 2182 -83 
Q 1786 -83 1555 326 
L 960 1350 
L 576 0 
L 90 0 
L 640 1978 
Q 730 2317 730 2406 
Q 730 2560 518 2560 
L 339 2560 
L 339 2650 
Q 678 2694 1306 2822 
L 1325 2803 
L 979 1440 
z
" transform="scale(0.015625)"/>
       <path id="STIXGeneral-Regular-3d" d="M 4077 2048 
L 307 2048 
L 307 2470 
L 4077 2470 
L 4077 2048 
z
M 4077 768 
L 307 768 
L 307 1190 
L 4077 1190 
L 4077 768 
z
" transform="scale(0.015625)"/>
       <path id="STIXGeneral-Italic-6c" d="M 1786 4339 
L 806 595 
Q 755 410 755 320 
Q 755 205 864 205 
Q 1037 205 1293 570 
L 1453 794 
L 1542 730 
Q 1254 275 1046 102 
Q 838 -70 576 -70 
Q 262 -70 262 288 
Q 262 397 288 480 
L 1165 3834 
Q 1184 3898 1184 3955 
Q 1184 4096 870 4096 
L 755 4096 
L 755 4198 
Q 1203 4250 1747 4371 
L 1786 4339 
z
" transform="scale(0.015625)"/>
       <path id="STIXGeneral-Italic-6e" d="M 2944 749 
L 3034 666 
Q 2707 218 2534 80 
Q 2362 -58 2138 -58 
Q 2010 -58 1923 28 
Q 1837 115 1837 288 
Q 1837 390 1939 768 
L 2221 1805 
Q 2310 2150 2310 2310 
Q 2310 2496 2157 2496 
Q 1971 2496 1750 2275 
Q 1530 2054 1210 1587 
Q 998 1274 899 1024 
Q 800 774 570 0 
L 90 0 
L 704 2240 
Q 717 2304 717 2349 
Q 717 2445 630 2480 
Q 544 2515 301 2522 
L 301 2624 
Q 550 2675 857 2729 
Q 1165 2784 1338 2822 
L 1363 2810 
L 934 1414 
Q 1408 2170 1753 2496 
Q 2099 2822 2413 2822 
Q 2611 2822 2720 2716 
Q 2829 2611 2829 2432 
Q 2829 2272 2765 2048 
L 2406 749 
Q 2317 429 2317 358 
Q 2317 243 2419 243 
Q 2541 243 2810 582 
Q 2854 634 2944 749 
z
" transform="scale(0.015625)"/>
       <path id="STIXGeneral-Regular-28" d="M 1946 -1030 
L 1869 -1133 
Q 1126 -710 716 32 
Q 307 774 307 1613 
Q 307 3386 1888 4326 
L 1946 4224 
Q 1293 3667 1075 3126 
Q 858 2586 858 1632 
Q 858 685 1082 96 
Q 1306 -493 1946 -1030 
z
" transform="scale(0.015625)"/>
       <path id="STIXGeneral-Regular-29" d="M 186 4224 
L 262 4326 
Q 992 3891 1408 3148 
Q 1824 2406 1824 1581 
Q 1824 -166 243 -1133 
L 186 -1030 
Q 845 -486 1059 54 
Q 1274 595 1274 1562 
Q 1274 2534 1059 3120 
Q 845 3706 186 4224 
z
" transform="scale(0.015625)"/>
       <path id="STIXGeneral-Italic-64" d="M 3334 4371 
L 3373 4333 
L 3123 3360 
L 2739 1958 
Q 2323 429 2323 384 
Q 2323 256 2438 256 
Q 2522 256 2614 336 
Q 2707 416 2963 710 
L 3040 646 
Q 2547 -83 2099 -83 
Q 1978 -83 1907 -6 
Q 1837 70 1837 205 
Q 1837 397 1920 774 
Q 1645 307 1379 118 
Q 1114 -70 781 -70 
Q 461 -70 278 125 
Q 96 320 96 678 
Q 96 1440 713 2131 
Q 1331 2822 1965 2822 
Q 2163 2822 2256 2732 
Q 2349 2643 2381 2451 
L 2387 2451 
L 2675 3494 
Q 2765 3808 2765 3949 
Q 2765 4051 2694 4076 
Q 2624 4102 2355 4115 
L 2355 4224 
Q 2848 4269 3334 4371 
z
M 2278 2310 
Q 2278 2477 2185 2576 
Q 2093 2675 1978 2675 
Q 1677 2675 1395 2381 
Q 1075 2042 864 1571 
Q 653 1101 653 704 
Q 653 486 752 361 
Q 851 237 1024 237 
Q 1312 237 1606 550 
Q 1901 864 2089 1350 
Q 2278 1837 2278 2310 
z
" transform="scale(0.015625)"/>
      </defs>
      <use xlink:href="#STIXGeneral-Italic-3ba" transform="translate(0 0.003125)"/>
      <use xlink:href="#STIXGeneral-Regular-3d" transform="translate(58.83999 0.003125)"/>
      <use xlink:href="#STIXGeneral-Italic-6c" transform="translate(141.779971 50.192188) scale(0.7)"/>
      <use xlink:href="#STIXGeneral-Italic-6e" transform="translate(161.239963 50.192188) scale(0.7)"/>
      <use xlink:href="#STIXGeneral-Regular-28" transform="translate(196.239952 50.192188) scale(0.7)"/>
      <use xlink:href="#STIXGeneral-Italic-6e" transform="translate(219.549944 50.192188) scale(0.7)"/>
      <use xlink:href="#STIXGeneral-Regular-29" transform="translate(254.549933 50.192188) scale(0.7)"/>
      <use xlink:href="#STIXGeneral-Italic-6c" transform="translate(141.779971 -41.257812) scale(0.7)"/>
      <use xlink:href="#STIXGeneral-Italic-6e" transform="translate(161.239963 -41.257812) scale(0.7)"/>
      <use xlink:href="#STIXGeneral-Regular-28" transform="translate(196.239952 -41.257812) scale(0.7)"/>
      <use xlink:href="#STIXGeneral-Italic-64" transform="translate(219.549944 -41.257812) scale(0.7)"/>
      <use xlink:href="#STIXGeneral-Regular-29" transform="translate(254.549933 -41.257812) scale(0.7)"/>
      <path d="M 141.779971 12.8 
L 141.779971 19.05 
L 277.859924 19.05 
L 277.859924 12.8 
L 141.779971 12.8 
z
"/>
     </g>
    </g>
   </g>
   <g id="matplotlib.axis_2">
    <g id="ytick_1">
     <g id="line2d_9">
      <path d="M 347.214375 311.6435 
L 704.334375 311.6435 
" clip-path="url(#p458560cfcd)" style="fill: none; stroke: #b0b0b0; stroke-opacity: 0.3; stroke-width: 0.8; stroke-linecap: square"/>
     </g>
     <g id="line2d_10">
      <defs>
       <path id="m3997308e17" d="M 0 0 
L -3.5 0 
" style="stroke: #000000; stroke-width: 0.8"/>
      </defs>
      <g>
       <use xlink:href="#m3997308e17" x="347.214375" y="311.6435" style="stroke: #000000; stroke-width: 0.8"/>
      </g>
     </g>
     <g id="text_6">
      <!-- 0.0 -->
      <g transform="translate(312.714375 319.281625) scale(0.22 -0.22)">
       <use xlink:href="#TimesNewRomanPSMT-30"/>
       <use xlink:href="#TimesNewRomanPSMT-2e" transform="translate(50 0)"/>
       <use xlink:href="#TimesNewRomanPSMT-30" transform="translate(75 0)"/>
      </g>
     </g>
    </g>
    <g id="ytick_2">
     <g id="line2d_11">
      <path d="M 347.214375 285.0323 
L 704.334375 285.0323 
" clip-path="url(#p458560cfcd)" style="fill: none; stroke: #b0b0b0; stroke-opacity: 0.3; stroke-width: 0.8; stroke-linecap: square"/>
     </g>
     <g id="line2d_12">
      <g>
       <use xlink:href="#m3997308e17" x="347.214375" y="285.0323" style="stroke: #000000; stroke-width: 0.8"/>
      </g>
     </g>
     <g id="text_7">
      <!-- 0.1 -->
      <g transform="translate(312.714375 292.670425) scale(0.22 -0.22)">
       <use xlink:href="#TimesNewRomanPSMT-30"/>
       <use xlink:href="#TimesNewRomanPSMT-2e" transform="translate(50 0)"/>
       <use xlink:href="#TimesNewRomanPSMT-31" transform="translate(75 0)"/>
      </g>
     </g>
    </g>
    <g id="ytick_3">
     <g id="line2d_13">
      <path d="M 347.214375 258.4211 
L 704.334375 258.4211 
" clip-path="url(#p458560cfcd)" style="fill: none; stroke: #b0b0b0; stroke-opacity: 0.3; stroke-width: 0.8; stroke-linecap: square"/>
     </g>
     <g id="line2d_14">
      <g>
       <use xlink:href="#m3997308e17" x="347.214375" y="258.4211" style="stroke: #000000; stroke-width: 0.8"/>
      </g>
     </g>
     <g id="text_8">
      <!-- 0.2 -->
      <g transform="translate(312.714375 266.059225) scale(0.22 -0.22)">
       <defs>
        <path id="TimesNewRomanPSMT-32" d="M 2934 816 
L 2638 0 
L 138 0 
L 138 116 
Q 1241 1122 1691 1759 
Q 2141 2397 2141 2925 
Q 2141 3328 1894 3587 
Q 1647 3847 1303 3847 
Q 991 3847 742 3664 
Q 494 3481 375 3128 
L 259 3128 
Q 338 3706 661 4015 
Q 984 4325 1469 4325 
Q 1984 4325 2329 3994 
Q 2675 3663 2675 3213 
Q 2675 2891 2525 2569 
Q 2294 2063 1775 1497 
Q 997 647 803 472 
L 1909 472 
Q 2247 472 2383 497 
Q 2519 522 2628 598 
Q 2738 675 2819 816 
L 2934 816 
z
" transform="scale(0.015625)"/>
       </defs>
       <use xlink:href="#TimesNewRomanPSMT-30"/>
       <use xlink:href="#TimesNewRomanPSMT-2e" transform="translate(50 0)"/>
       <use xlink:href="#TimesNewRomanPSMT-32" transform="translate(75 0)"/>
      </g>
     </g>
    </g>
    <g id="ytick_4">
     <g id="line2d_15">
      <path d="M 347.214375 231.8099 
L 704.334375 231.8099 
" clip-path="url(#p458560cfcd)" style="fill: none; stroke: #b0b0b0; stroke-opacity: 0.3; stroke-width: 0.8; stroke-linecap: square"/>
     </g>
     <g id="line2d_16">
      <g>
       <use xlink:href="#m3997308e17" x="347.214375" y="231.8099" style="stroke: #000000; stroke-width: 0.8"/>
      </g>
     </g>
     <g id="text_9">
      <!-- 0.3 -->
      <g transform="translate(312.714375 239.448025) scale(0.22 -0.22)">
       <defs>
        <path id="TimesNewRomanPSMT-33" d="M 325 3431 
Q 506 3859 782 4092 
Q 1059 4325 1472 4325 
Q 1981 4325 2253 3994 
Q 2459 3747 2459 3466 
Q 2459 3003 1878 2509 
Q 2269 2356 2469 2072 
Q 2669 1788 2669 1403 
Q 2669 853 2319 450 
Q 1863 -75 997 -75 
Q 569 -75 414 31 
Q 259 138 259 259 
Q 259 350 332 419 
Q 406 488 509 488 
Q 588 488 669 463 
Q 722 447 909 348 
Q 1097 250 1169 231 
Q 1284 197 1416 197 
Q 1734 197 1970 444 
Q 2206 691 2206 1028 
Q 2206 1275 2097 1509 
Q 2016 1684 1919 1775 
Q 1784 1900 1550 2001 
Q 1316 2103 1072 2103 
L 972 2103 
L 972 2197 
Q 1219 2228 1467 2375 
Q 1716 2522 1828 2728 
Q 1941 2934 1941 3181 
Q 1941 3503 1739 3701 
Q 1538 3900 1238 3900 
Q 753 3900 428 3381 
L 325 3431 
z
" transform="scale(0.015625)"/>
       </defs>
       <use xlink:href="#TimesNewRomanPSMT-30"/>
       <use xlink:href="#TimesNewRomanPSMT-2e" transform="translate(50 0)"/>
       <use xlink:href="#TimesNewRomanPSMT-33" transform="translate(75 0)"/>
      </g>
     </g>
    </g>
    <g id="ytick_5">
     <g id="line2d_17">
      <path d="M 347.214375 205.1987 
L 704.334375 205.1987 
" clip-path="url(#p458560cfcd)" style="fill: none; stroke: #b0b0b0; stroke-opacity: 0.3; stroke-width: 0.8; stroke-linecap: square"/>
     </g>
     <g id="line2d_18">
      <g>
       <use xlink:href="#m3997308e17" x="347.214375" y="205.1987" style="stroke: #000000; stroke-width: 0.8"/>
      </g>
     </g>
     <g id="text_10">
      <!-- 0.4 -->
      <g transform="translate(312.714375 212.836825) scale(0.22 -0.22)">
       <defs>
        <path id="TimesNewRomanPSMT-34" d="M 2978 1563 
L 2978 1119 
L 2409 1119 
L 2409 0 
L 1894 0 
L 1894 1119 
L 100 1119 
L 100 1519 
L 2066 4325 
L 2409 4325 
L 2409 1563 
L 2978 1563 
z
M 1894 1563 
L 1894 3666 
L 406 1563 
L 1894 1563 
z
" transform="scale(0.015625)"/>
       </defs>
       <use xlink:href="#TimesNewRomanPSMT-30"/>
       <use xlink:href="#TimesNewRomanPSMT-2e" transform="translate(50 0)"/>
       <use xlink:href="#TimesNewRomanPSMT-34" transform="translate(75 0)"/>
      </g>
     </g>
    </g>
    <g id="ytick_6">
     <g id="line2d_19">
      <path d="M 347.214375 178.5875 
L 704.334375 178.5875 
" clip-path="url(#p458560cfcd)" style="fill: none; stroke: #b0b0b0; stroke-opacity: 0.3; stroke-width: 0.8; stroke-linecap: square"/>
     </g>
     <g id="line2d_20">
      <g>
       <use xlink:href="#m3997308e17" x="347.214375" y="178.5875" style="stroke: #000000; stroke-width: 0.8"/>
      </g>
     </g>
     <g id="text_11">
      <!-- 0.5 -->
      <g transform="translate(312.714375 186.225625) scale(0.22 -0.22)">
       <use xlink:href="#TimesNewRomanPSMT-30"/>
       <use xlink:href="#TimesNewRomanPSMT-2e" transform="translate(50 0)"/>
       <use xlink:href="#TimesNewRomanPSMT-35" transform="translate(75 0)"/>
      </g>
     </g>
    </g>
    <g id="ytick_7">
     <g id="line2d_21">
      <path d="M 347.214375 151.9763 
L 704.334375 151.9763 
" clip-path="url(#p458560cfcd)" style="fill: none; stroke: #b0b0b0; stroke-opacity: 0.3; stroke-width: 0.8; stroke-linecap: square"/>
     </g>
     <g id="line2d_22">
      <g>
       <use xlink:href="#m3997308e17" x="347.214375" y="151.9763" style="stroke: #000000; stroke-width: 0.8"/>
      </g>
     </g>
     <g id="text_12">
      <!-- 0.6 -->
      <g transform="translate(312.714375 159.614425) scale(0.22 -0.22)">
       <defs>
        <path id="TimesNewRomanPSMT-36" d="M 2869 4325 
L 2869 4209 
Q 2456 4169 2195 4045 
Q 1934 3922 1679 3669 
Q 1425 3416 1258 3105 
Q 1091 2794 978 2366 
Q 1428 2675 1881 2675 
Q 2316 2675 2634 2325 
Q 2953 1975 2953 1425 
Q 2953 894 2631 456 
Q 2244 -75 1606 -75 
Q 1172 -75 869 213 
Q 275 772 275 1663 
Q 275 2231 503 2743 
Q 731 3256 1154 3653 
Q 1578 4050 1965 4187 
Q 2353 4325 2688 4325 
L 2869 4325 
z
M 925 2138 
Q 869 1716 869 1456 
Q 869 1156 980 804 
Q 1091 453 1309 247 
Q 1469 100 1697 100 
Q 1969 100 2183 356 
Q 2397 613 2397 1088 
Q 2397 1622 2184 2012 
Q 1972 2403 1581 2403 
Q 1463 2403 1327 2353 
Q 1191 2303 925 2138 
z
" transform="scale(0.015625)"/>
       </defs>
       <use xlink:href="#TimesNewRomanPSMT-30"/>
       <use xlink:href="#TimesNewRomanPSMT-2e" transform="translate(50 0)"/>
       <use xlink:href="#TimesNewRomanPSMT-36" transform="translate(75 0)"/>
      </g>
     </g>
    </g>
    <g id="ytick_8">
     <g id="line2d_23">
      <path d="M 347.214375 125.3651 
L 704.334375 125.3651 
" clip-path="url(#p458560cfcd)" style="fill: none; stroke: #b0b0b0; stroke-opacity: 0.3; stroke-width: 0.8; stroke-linecap: square"/>
     </g>
     <g id="line2d_24">
      <g>
       <use xlink:href="#m3997308e17" x="347.214375" y="125.3651" style="stroke: #000000; stroke-width: 0.8"/>
      </g>
     </g>
     <g id="text_13">
      <!-- 0.7 -->
      <g transform="translate(312.714375 133.003225) scale(0.22 -0.22)">
       <defs>
        <path id="TimesNewRomanPSMT-37" d="M 644 4238 
L 2916 4238 
L 2916 4119 
L 1503 -88 
L 1153 -88 
L 2419 3728 
L 1253 3728 
Q 900 3728 750 3644 
Q 488 3500 328 3200 
L 238 3234 
L 644 4238 
z
" transform="scale(0.015625)"/>
       </defs>
       <use xlink:href="#TimesNewRomanPSMT-30"/>
       <use xlink:href="#TimesNewRomanPSMT-2e" transform="translate(50 0)"/>
       <use xlink:href="#TimesNewRomanPSMT-37" transform="translate(75 0)"/>
      </g>
     </g>
    </g>
    <g id="ytick_9">
     <g id="line2d_25">
      <path d="M 347.214375 98.7539 
L 704.334375 98.7539 
" clip-path="url(#p458560cfcd)" style="fill: none; stroke: #b0b0b0; stroke-opacity: 0.3; stroke-width: 0.8; stroke-linecap: square"/>
     </g>
     <g id="line2d_26">
      <g>
       <use xlink:href="#m3997308e17" x="347.214375" y="98.7539" style="stroke: #000000; stroke-width: 0.8"/>
      </g>
     </g>
     <g id="text_14">
      <!-- 0.8 -->
      <g transform="translate(312.714375 106.392025) scale(0.22 -0.22)">
       <defs>
        <path id="TimesNewRomanPSMT-38" d="M 1228 2134 
Q 725 2547 579 2797 
Q 434 3047 434 3316 
Q 434 3728 753 4026 
Q 1072 4325 1600 4325 
Q 2113 4325 2425 4047 
Q 2738 3769 2738 3413 
Q 2738 3175 2569 2928 
Q 2400 2681 1866 2347 
Q 2416 1922 2594 1678 
Q 2831 1359 2831 1006 
Q 2831 559 2490 242 
Q 2150 -75 1597 -75 
Q 994 -75 656 303 
Q 388 606 388 966 
Q 388 1247 577 1523 
Q 766 1800 1228 2134 
z
M 1719 2469 
Q 2094 2806 2194 3001 
Q 2294 3197 2294 3444 
Q 2294 3772 2109 3958 
Q 1925 4144 1606 4144 
Q 1288 4144 1088 3959 
Q 888 3775 888 3528 
Q 888 3366 970 3203 
Q 1053 3041 1206 2894 
L 1719 2469 
z
M 1375 2016 
Q 1116 1797 991 1539 
Q 866 1281 866 981 
Q 866 578 1086 336 
Q 1306 94 1647 94 
Q 1984 94 2187 284 
Q 2391 475 2391 747 
Q 2391 972 2272 1150 
Q 2050 1481 1375 2016 
z
" transform="scale(0.015625)"/>
       </defs>
       <use xlink:href="#TimesNewRomanPSMT-30"/>
       <use xlink:href="#TimesNewRomanPSMT-2e" transform="translate(50 0)"/>
       <use xlink:href="#TimesNewRomanPSMT-38" transform="translate(75 0)"/>
      </g>
     </g>
    </g>
    <g id="ytick_10">
     <g id="line2d_27">
      <path d="M 347.214375 72.1427 
L 704.334375 72.1427 
" clip-path="url(#p458560cfcd)" style="fill: none; stroke: #b0b0b0; stroke-opacity: 0.3; stroke-width: 0.8; stroke-linecap: square"/>
     </g>
     <g id="line2d_28">
      <g>
       <use xlink:href="#m3997308e17" x="347.214375" y="72.1427" style="stroke: #000000; stroke-width: 0.8"/>
      </g>
     </g>
     <g id="text_15">
      <!-- 0.9 -->
      <g transform="translate(312.714375 79.780825) scale(0.22 -0.22)">
       <defs>
        <path id="TimesNewRomanPSMT-39" d="M 338 -88 
L 338 28 
Q 744 34 1094 217 
Q 1444 400 1770 856 
Q 2097 1313 2225 1859 
Q 1734 1544 1338 1544 
Q 891 1544 572 1889 
Q 253 2234 253 2806 
Q 253 3363 572 3797 
Q 956 4325 1575 4325 
Q 2097 4325 2469 3894 
Q 2925 3359 2925 2575 
Q 2925 1869 2578 1258 
Q 2231 647 1613 244 
Q 1109 -88 516 -88 
L 338 -88 
z
M 2275 2091 
Q 2331 2497 2331 2741 
Q 2331 3044 2228 3395 
Q 2125 3747 1936 3934 
Q 1747 4122 1506 4122 
Q 1228 4122 1018 3872 
Q 809 3622 809 3128 
Q 809 2469 1088 2097 
Q 1291 1828 1588 1828 
Q 1731 1828 1928 1897 
Q 2125 1966 2275 2091 
z
" transform="scale(0.015625)"/>
       </defs>
       <use xlink:href="#TimesNewRomanPSMT-30"/>
       <use xlink:href="#TimesNewRomanPSMT-2e" transform="translate(50 0)"/>
       <use xlink:href="#TimesNewRomanPSMT-39" transform="translate(75 0)"/>
      </g>
     </g>
    </g>
    <g id="ytick_11">
     <g id="line2d_29">
      <path d="M 347.214375 45.5315 
L 704.334375 45.5315 
" clip-path="url(#p458560cfcd)" style="fill: none; stroke: #b0b0b0; stroke-opacity: 0.3; stroke-width: 0.8; stroke-linecap: square"/>
     </g>
     <g id="line2d_30">
      <g>
       <use xlink:href="#m3997308e17" x="347.214375" y="45.5315" style="stroke: #000000; stroke-width: 0.8"/>
      </g>
     </g>
     <g id="text_16">
      <!-- 1.0 -->
      <g transform="translate(312.714375 53.169625) scale(0.22 -0.22)">
       <use xlink:href="#TimesNewRomanPSMT-31"/>
       <use xlink:href="#TimesNewRomanPSMT-2e" transform="translate(50 0)"/>
       <use xlink:href="#TimesNewRomanPSMT-30" transform="translate(75 0)"/>
      </g>
     </g>
    </g>
    <g id="text_17">
     <!-- Accuracy -->
     <g transform="translate(303.967188 220.726094) rotate(-90) scale(0.22 -0.22)">
      <defs>
       <path id="TimesNewRomanPSMT-41" d="M 2928 1419 
L 1288 1419 
L 1000 750 
Q 894 503 894 381 
Q 894 284 986 211 
Q 1078 138 1384 116 
L 1384 0 
L 50 0 
L 50 116 
Q 316 163 394 238 
Q 553 388 747 847 
L 2238 4334 
L 2347 4334 
L 3822 809 
Q 4000 384 4145 257 
Q 4291 131 4550 116 
L 4550 0 
L 2878 0 
L 2878 116 
Q 3131 128 3220 200 
Q 3309 272 3309 375 
Q 3309 513 3184 809 
L 2928 1419 
z
M 2841 1650 
L 2122 3363 
L 1384 1650 
L 2841 1650 
z
" transform="scale(0.015625)"/>
       <path id="TimesNewRomanPSMT-63" d="M 2631 1088 
Q 2516 522 2178 217 
Q 1841 -88 1431 -88 
Q 944 -88 581 321 
Q 219 731 219 1428 
Q 219 2103 620 2525 
Q 1022 2947 1584 2947 
Q 2006 2947 2278 2723 
Q 2550 2500 2550 2259 
Q 2550 2141 2473 2067 
Q 2397 1994 2259 1994 
Q 2075 1994 1981 2113 
Q 1928 2178 1911 2362 
Q 1894 2547 1784 2644 
Q 1675 2738 1481 2738 
Q 1169 2738 978 2506 
Q 725 2200 725 1697 
Q 725 1184 976 792 
Q 1228 400 1656 400 
Q 1963 400 2206 609 
Q 2378 753 2541 1131 
L 2631 1088 
z
" transform="scale(0.015625)"/>
       <path id="TimesNewRomanPSMT-75" d="M 2709 2863 
L 2709 1128 
Q 2709 631 2732 520 
Q 2756 409 2807 365 
Q 2859 322 2928 322 
Q 3025 322 3147 375 
L 3191 266 
L 2334 -88 
L 2194 -88 
L 2194 519 
Q 1825 119 1631 15 
Q 1438 -88 1222 -88 
Q 981 -88 804 51 
Q 628 191 559 409 
Q 491 628 491 1028 
L 491 2306 
Q 491 2509 447 2587 
Q 403 2666 317 2708 
Q 231 2750 6 2747 
L 6 2863 
L 1009 2863 
L 1009 947 
Q 1009 547 1148 422 
Q 1288 297 1484 297 
Q 1619 297 1789 381 
Q 1959 466 2194 703 
L 2194 2325 
Q 2194 2569 2105 2655 
Q 2016 2741 1734 2747 
L 1734 2863 
L 2709 2863 
z
" transform="scale(0.015625)"/>
       <path id="TimesNewRomanPSMT-72" d="M 1038 2947 
L 1038 2303 
Q 1397 2947 1775 2947 
Q 1947 2947 2059 2842 
Q 2172 2738 2172 2600 
Q 2172 2478 2090 2393 
Q 2009 2309 1897 2309 
Q 1788 2309 1652 2417 
Q 1516 2525 1450 2525 
Q 1394 2525 1328 2463 
Q 1188 2334 1038 2041 
L 1038 669 
Q 1038 431 1097 309 
Q 1138 225 1241 169 
Q 1344 113 1538 113 
L 1538 0 
L 72 0 
L 72 113 
Q 291 113 397 181 
Q 475 231 506 341 
Q 522 394 522 644 
L 522 1753 
Q 522 2253 501 2348 
Q 481 2444 426 2487 
Q 372 2531 291 2531 
Q 194 2531 72 2484 
L 41 2597 
L 906 2947 
L 1038 2947 
z
" transform="scale(0.015625)"/>
       <path id="TimesNewRomanPSMT-61" d="M 1822 413 
Q 1381 72 1269 19 
Q 1100 -59 909 -59 
Q 613 -59 420 144 
Q 228 347 228 678 
Q 228 888 322 1041 
Q 450 1253 767 1440 
Q 1084 1628 1822 1897 
L 1822 2009 
Q 1822 2438 1686 2597 
Q 1550 2756 1291 2756 
Q 1094 2756 978 2650 
Q 859 2544 859 2406 
L 866 2225 
Q 866 2081 792 2003 
Q 719 1925 600 1925 
Q 484 1925 411 2006 
Q 338 2088 338 2228 
Q 338 2497 613 2722 
Q 888 2947 1384 2947 
Q 1766 2947 2009 2819 
Q 2194 2722 2281 2516 
Q 2338 2381 2338 1966 
L 2338 994 
Q 2338 584 2353 492 
Q 2369 400 2405 369 
Q 2441 338 2488 338 
Q 2538 338 2575 359 
Q 2641 400 2828 588 
L 2828 413 
Q 2478 -56 2159 -56 
Q 2006 -56 1915 50 
Q 1825 156 1822 413 
z
M 1822 616 
L 1822 1706 
Q 1350 1519 1213 1441 
Q 966 1303 859 1153 
Q 753 1003 753 825 
Q 753 600 887 451 
Q 1022 303 1197 303 
Q 1434 303 1822 616 
z
" transform="scale(0.015625)"/>
       <path id="TimesNewRomanPSMT-79" d="M 38 2863 
L 1372 2863 
L 1372 2747 
L 1306 2747 
Q 1166 2747 1095 2686 
Q 1025 2625 1025 2534 
Q 1025 2413 1128 2197 
L 1825 753 
L 2466 2334 
Q 2519 2463 2519 2588 
Q 2519 2644 2497 2672 
Q 2472 2706 2419 2726 
Q 2366 2747 2231 2747 
L 2231 2863 
L 3163 2863 
L 3163 2747 
Q 3047 2734 2984 2696 
Q 2922 2659 2847 2556 
Q 2819 2513 2741 2316 
L 1575 -541 
Q 1406 -956 1132 -1168 
Q 859 -1381 606 -1381 
Q 422 -1381 303 -1275 
Q 184 -1169 184 -1031 
Q 184 -900 270 -820 
Q 356 -741 506 -741 
Q 609 -741 788 -809 
Q 913 -856 944 -856 
Q 1038 -856 1148 -759 
Q 1259 -663 1372 -384 
L 1575 113 
L 547 2272 
Q 500 2369 397 2513 
Q 319 2622 269 2659 
Q 197 2709 38 2747 
L 38 2863 
z
" transform="scale(0.015625)"/>
      </defs>
      <use xlink:href="#TimesNewRomanPSMT-41"/>
      <use xlink:href="#TimesNewRomanPSMT-63" transform="translate(72.216797 0)"/>
      <use xlink:href="#TimesNewRomanPSMT-63" transform="translate(116.601562 0)"/>
      <use xlink:href="#TimesNewRomanPSMT-75" transform="translate(160.986328 0)"/>
      <use xlink:href="#TimesNewRomanPSMT-72" transform="translate(210.986328 0)"/>
      <use xlink:href="#TimesNewRomanPSMT-61" transform="translate(244.287109 0)"/>
      <use xlink:href="#TimesNewRomanPSMT-63" transform="translate(288.671875 0)"/>
      <use xlink:href="#TimesNewRomanPSMT-79" transform="translate(333.056641 0)"/>
     </g>
    </g>
   </g>
   <g id="line2d_31">
    <path d="M 347.214375 176.192491 
L 420.437523 164.025253 
L 452.075216 157.47594 
L 460.612488 156.367141 
L 467.276973 154.947884 
L 472.744302 154.105194 
L 477.379774 152.30155 
L 481.403414 151.503208 
L 484.958061 151.85803 
L 488.141722 151.991077 
L 491.024567 151.384945 
L 493.658568 152.582441 
L 496.083292 151.710185 
L 498.32956 154.341737 
L 500.42185 151.961511 
L 502.379923 151.311014 
L 504.219966 151.651053 
L 505.955403 152.286767 
L 507.597491 152.257201 
L 509.155761 156.145381 
L 510.638357 152.183271 
L 512.052288 151.85803 
L 513.403636 154.65221 
L 514.697706 152.597224 
L 515.939156 153.159023 
L 517.132099 156.0419 
L 518.280185 152.212836 
L 519.386663 152.00586 
L 520.454446 154.046062 
L 521.486147 152.40503 
L 522.484127 153.80952 
L 523.45052 151.872813 
L 524.387265 153.439915 
L 525.296125 151.828464 
L 526.178715 152.00586 
L 527.036509 152.641573 
L 527.870863 155.450536 
L 528.683025 153.129457 
L 529.474143 151.976294 
L 530.245282 152.124139 
L 530.997425 157.121133 
L 531.731486 152.227619 
L 532.448314 155.687078 
L 533.148699 153.572977 
L 533.833379 152.360682 
L 534.503044 152.286767 
L 535.158336 157.25418 
L 535.799861 153.07031 
L 536.428185 154.696559 
L 537.04384 152.863333 
L 537.647328 152.434596 
L 538.239119 152.227619 
L 538.819659 152.656356 
L 539.389367 152.789418 
L 539.94864 152.183271 
L 540.497854 152.892899 
L 541.037363 152.419813 
L 541.567506 154.016496 
L 542.088602 158.244715 
L 542.600954 154.341737 
L 543.104851 153.410349 
L 543.600567 153.513829 
L 544.088365 152.671139 
L 544.568492 153.572977 
L 545.041187 153.883434 
L 545.506675 152.952046 
L 545.965174 152.730286 
L 546.416891 154.548714 
L 546.862022 152.789418 
L 547.300757 154.119977 
L 547.733278 152.818984 
L 548.580363 153.765155 
L 548.995254 153.513829 
L 549.404583 152.464178 
L 549.808497 154.119977 
L 550.207138 153.676457 
L 550.600641 152.552875 
L 550.989138 153.927783 
L 551.372755 152.789418 
L 551.751612 153.942566 
L 552.125825 153.129457 
L 552.495509 152.937263 
L 553.221713 153.351217 
L 553.57844 152.109356 
L 553.931047 153.454698 
L 554.27963 153.232938 
L 554.965078 153.661674 
L 555.302118 152.774635 
L 555.635478 153.099876 
L 555.965237 153.011178 
L 556.291474 153.558194 
L 556.933674 153.410349 
L 557.249779 153.14424 
L 557.562645 153.351217 
L 557.872338 152.730286 
L 558.178921 153.380783 
L 558.482457 153.277287 
L 558.783005 153.425132 
L 559.080624 153.114658 
L 559.37537 152.40503 
L 559.667299 152.745069 
L 559.956462 154.504365 
L 560.242914 152.745069 
L 560.526702 153.011178 
L 560.807878 152.331116 
L 561.362579 153.898217 
L 561.636196 153.173806 
L 562.176183 153.69124 
L 562.442638 152.774635 
L 562.968671 153.572977 
L 563.485795 153.839085 
L 563.994307 152.863333 
L 564.49449 154.193892 
L 564.741542 154.238256 
L 564.986611 154.474799 
L 565.229729 153.794737 
L 565.470927 154.445233 
L 566.183295 153.380783 
L 566.417105 152.375464 
L 566.649138 154.593062 
L 566.879422 153.188589 
L 567.334844 153.972132 
L 567.560033 152.981612 
L 567.783573 153.853868 
L 568.005489 153.203372 
L 568.225803 153.632109 
L 568.444539 153.011178 
L 568.877367 153.46948 
L 569.091501 152.937263 
L 569.304145 153.572977 
L 569.72504 152.966829 
L 569.933332 153.395566 
L 570.140212 153.188589 
L 570.345701 153.351217 
L 570.549816 153.173806 
L 570.752575 153.617326 
L 570.953997 153.247721 
L 571.154099 153.528612 
L 571.352898 153.011178 
L 571.550412 153.661674 
L 571.746656 153.292069 
L 572.1354 153.779954 
L 572.327932 153.085093 
L 572.519258 153.572977 
L 572.898349 153.499046 
L 573.086145 153.232938 
L 573.6427 153.528612 
L 574.008179 153.114658 
L 574.189292 153.025961 
L 574.369336 153.159023 
L 574.548326 153.14424 
L 574.726272 153.321635 
L 574.903187 153.262504 
L 575.253971 153.528612 
L 575.427864 152.937263 
L 575.600772 153.321635 
L 575.943678 153.292069 
L 576.113698 153.528612 
L 576.282776 153.025961 
L 576.450923 153.513829 
L 576.61815 153.262504 
L 577.114403 153.602543 
L 577.278045 153.661674 
L 577.440814 153.499046 
L 577.60272 153.085093 
L 577.92398 153.602543 
L 578.083351 153.58776 
L 578.241895 153.14424 
L 578.712646 153.484263 
L 578.867965 153.351217 
L 579.17625 153.69124 
L 579.481455 153.380783 
L 579.632921 153.617326 
L 579.933617 153.247721 
L 580.082862 153.380783 
L 580.231381 153.306852 
L 580.379181 153.46948 
L 580.818338 153.351217 
L 580.96333 153.572977 
L 581.251267 153.188589 
L 581.394224 153.661674 
L 581.678145 153.321635 
L 581.95945 153.484263 
L 582.099136 153.306852 
L 582.238187 153.336434 
L 582.376607 153.247721 
L 582.514403 153.336434 
L 582.65158 153.07031 
L 582.788143 153.380783 
L 582.924098 153.129457 
L 583.05945 153.262504 
L 583.194205 153.14424 
L 583.594939 153.868651 
L 583.727357 153.277287 
L 583.859202 153.380783 
L 583.990481 153.159023 
L 584.121199 153.351217 
L 584.251358 152.759852 
L 584.380966 172.777381 
L 584.638542 159.634406 
L 584.893963 153.292069 
L 585.020877 157.431591 
L 585.147266 156.973288 
L 585.398485 152.878116 
L 585.523323 153.07031 
L 585.647653 154.119977 
L 585.77148 152.863333 
L 585.894805 153.188589 
L 586.017635 153.040744 
L 586.139973 153.676457 
L 586.383188 152.863333 
L 586.504073 152.212836 
L 586.624481 154.785256 
L 586.744416 154.060845 
L 586.863882 155.228776 
L 587.101421 153.055527 
L 587.219501 154.164326 
L 587.337126 152.07979 
L 587.4543 154.681776 
L 587.571026 152.671139 
L 587.687307 152.62679 
L 587.803147 152.434596 
L 587.91855 152.62679 
L 588.033518 153.218155 
L 588.375847 152.84855 
L 588.48911 152.271984 
L 588.601953 153.572977 
L 588.826397 152.493744 
L 589.049203 152.966829 
L 589.16 152.612007 
L 589.270396 152.730286 
L 589.380394 152.612007 
L 589.599209 152.92248 
L 589.816466 153.14424 
L 589.924518 152.92248 
L 590.139482 153.07031 
L 590.246399 152.833767 
L 590.352943 153.129457 
L 590.880157 152.552875 
L 590.984516 152.774635 
L 591.29547 152.612007 
L 591.501028 153.114658 
L 591.705211 152.745069 
L 591.908038 153.085093 
L 592.008948 152.981612 
L 592.109526 153.085093 
L 592.309694 152.552875 
L 592.409288 152.92248 
L 592.607506 152.804201 
L 592.902442 153.188589 
L 593.097495 152.907697 
L 593.483903 153.292069 
L 593.675288 152.92248 
L 593.770533 152.789418 
L 594.054498 152.996395 
L 594.148569 152.804201 
L 594.335846 153.07031 
L 594.429056 152.715504 
L 594.614626 152.996395 
L 594.70699 152.671139 
L 594.799075 152.966829 
L 594.890884 152.671139 
L 595.073677 153.129457 
L 595.164664 152.804201 
L 595.34583 152.966829 
L 595.436012 153.011178 
L 595.525928 152.641573 
L 595.61558 153.114658 
L 595.794098 152.715504 
L 595.971579 152.952046 
L 596.059934 152.966829 
L 596.148034 152.715504 
L 596.235881 152.952046 
L 596.323475 152.685938 
L 596.497914 152.966829 
L 596.584761 152.804201 
L 596.671362 152.937263 
L 596.843831 152.715504 
L 596.929701 152.952046 
L 597.015331 152.62679 
L 597.100721 152.685938 
L 597.185873 152.907697 
L 597.270788 152.715504 
L 597.439913 152.84855 
L 597.524125 152.774635 
L 597.691857 152.878116 
L 597.858672 152.937263 
L 598.024581 152.92248 
L 598.271766 153.040744 
L 598.353719 152.996395 
L 598.516967 169.244007 
L 598.598265 166.789867 
L 598.760214 158.717801 
L 598.840868 159.885731 
L 598.921309 158.954343 
L 599.081558 153.972132 
L 599.320367 155.465319 
L 599.399556 153.942566 
L 599.557322 156.0419 
L 599.6359 155.923621 
L 599.714276 153.646891 
L 599.792452 155.095729 
L 599.870428 153.14424 
L 599.948206 153.676457 
L 600.025786 153.558194 
L 600.103169 153.735589 
L 600.180357 153.646891 
L 600.25735 153.80952 
L 600.33415 154.267822 
L 600.410756 153.972132 
L 600.487172 154.312171 
L 600.563396 153.499046 
L 600.790934 154.489582 
L 600.866405 154.504365 
L 600.941689 153.676457 
L 601.016789 154.386085 
L 601.166436 153.366 
L 601.315354 153.839085 
L 601.463548 153.410349 
L 601.537377 153.957349 
L 601.611027 153.218155 
L 601.684501 153.439915 
L 601.903865 153.80952 
L 601.976638 153.336434 
L 602.049238 153.913 
L 602.121666 153.824302 
L 602.266007 153.499046 
L 602.337923 153.824302 
L 602.40967 153.750372 
L 602.55266 153.306852 
L 602.623905 153.839085 
L 602.694984 153.366 
L 602.765898 153.661674 
L 602.836647 153.558194 
L 602.907233 153.646891 
L 602.977656 154.400868 
L 603.118017 153.58776 
L 603.327356 153.913 
L 603.396818 153.720806 
L 603.53527 154.149543 
L 603.604261 154.060845 
L 603.673096 153.58776 
L 603.741777 153.824302 
L 603.946897 153.617326 
L 604.014966 153.839085 
L 604.082883 153.380783 
L 604.150649 153.58776 
L 604.218265 153.720806 
L 604.285732 153.454698 
L 604.35305 154.016496 
L 604.42022 153.720806 
L 604.487243 153.80952 
L 604.620848 153.247721 
L 604.687432 153.395566 
L 604.753871 153.380783 
L 604.820166 153.69124 
L 604.952326 153.218155 
L 605.018192 153.351217 
L 605.214942 153.439915 
L 605.989504 153.543395 
L 606.306527 153.499046 
L 607.844078 153.513829 
L 607.903999 153.661674 
L 607.963802 153.528612 
L 608.379176 153.484263 
L 608.438057 153.292069 
L 608.496824 153.336434 
L 608.555478 153.499046 
L 608.61402 153.366 
L 608.730768 153.395566 
L 608.788976 153.351217 
L 608.847072 153.439915 
L 609.135907 153.499046 
L 609.250681 153.395566 
L 609.365025 153.676457 
L 609.422036 153.46948 
L 609.592436 153.957349 
L 609.649025 153.853868 
L 609.874338 159.442212 
L 609.930408 154.548714 
L 609.986374 154.992233 
L 610.042239 154.519148 
L 610.098001 152.92248 
L 610.209221 155.332272 
L 610.375296 152.07979 
L 610.430454 153.499046 
L 610.485512 152.552875 
L 610.704759 154.563496 
L 610.868167 152.434596 
L 611.030705 153.173806 
L 611.084693 153.750372 
L 611.192383 153.025961 
L 611.299695 153.351217 
L 611.353209 153.218155 
L 611.40663 153.085093 
L 611.513193 153.868651 
L 611.566335 153.499046 
L 611.619385 152.84855 
L 611.672343 153.14424 
L 611.725209 152.937263 
L 611.777983 153.025961 
L 611.88326 153.159023 
L 612.040498 152.833767 
L 612.092731 153.173806 
L 612.144875 152.907697 
L 612.300774 153.129457 
L 612.352564 152.937263 
L 612.404267 153.011178 
L 612.763753 153.055527 
L 612.814765 152.892899 
L 612.916533 153.262504 
L 613.068552 152.833767 
L 613.119057 153.040744 
L 613.169479 152.981612 
L 613.219817 152.878116 
L 613.270073 153.099876 
L 613.320247 153.085093 
L 613.420347 153.040744 
L 613.569884 153.099876 
L 613.817497 153.025961 
L 613.965106 153.14424 
L 614.306779 153.011178 
L 614.403702 153.114658 
L 614.452048 152.996395 
L 614.500318 152.907697 
L 614.548511 152.996395 
L 615.356375 152.907697 
L 615.450028 152.892899 
L 615.496747 153.025961 
L 615.589971 152.966829 
L 615.821793 153.025961 
L 615.960046 152.92248 
L 616.143415 153.14424 
L 616.821406 153.247721 
L 616.866075 153.321635 
L 616.910678 153.218155 
L 617.132723 153.159023 
L 617.397062 153.203372 
L 617.572026 153.159023 
L 617.615611 153.114658 
L 617.659134 153.159023 
L 617.745993 153.188589 
L 617.875821 153.129457 
L 618.133832 153.14424 
L 618.262025 153.203372 
L 618.432116 153.173806 
L 618.559065 153.218155 
L 618.643405 153.14424 
L 618.685488 153.218155 
L 618.811391 153.277287 
L 618.853243 153.159023 
L 618.936776 153.188589 
L 618.978457 153.321635 
L 619.020081 153.188589 
L 619.268641 153.14424 
L 619.309872 153.247721 
L 619.392167 153.159023 
L 619.433231 153.040744 
L 619.515195 153.085093 
L 619.596939 153.173806 
L 619.637729 153.14424 
L 619.840866 153.129457 
L 619.881332 153.173806 
L 619.921744 153.099876 
L 620.08286 153.114658 
L 620.203142 153.159023 
L 620.322951 153.129457 
L 620.402564 153.203372 
L 620.442293 153.159023 
L 620.521595 153.099876 
L 620.56117 153.040744 
L 620.600693 153.129457 
L 620.640165 153.173806 
L 620.679586 153.040744 
L 620.718956 153.232938 
L 620.758275 153.159023 
L 620.87593 153.07031 
L 620.954116 153.232938 
L 620.993134 153.218155 
L 621.148709 153.129457 
L 621.264873 153.129457 
L 621.380596 153.218155 
L 621.419073 153.173806 
L 621.457502 153.085093 
L 621.534215 153.159023 
L 621.610735 153.188589 
L 621.687064 153.114658 
L 621.725157 153.203372 
L 621.801201 153.129457 
L 621.839153 153.277287 
L 621.877057 153.099876 
L 621.914914 153.14424 
L 622.290924 153.232938 
L 622.365574 153.14424 
L 622.402831 153.203372 
L 622.440042 153.277287 
L 622.514328 153.218155 
L 622.699258 153.188589 
L 622.73611 153.262504 
L 622.80968 153.173806 
L 623.029335 153.085093 
L 623.174898 153.188589 
L 623.21118 153.07031 
L 623.24742 153.173806 
L 623.39195 153.262504 
L 623.535798 153.14424 
L 623.714662 153.188589 
L 623.750309 153.14424 
L 623.785915 153.232938 
L 624.174862 153.292069 
L 624.315078 153.262504 
L 624.350031 153.351217 
L 624.419819 153.321635 
L 624.454653 153.247721 
L 624.524202 153.351217 
L 624.903915 153.292069 
L 625.143115 153.336434 
L 625.211115 153.173806 
L 625.245059 153.321635 
L 625.380456 153.410349 
L 625.481612 153.306852 
L 625.582433 153.410349 
L 625.716346 153.277287 
L 625.749733 153.277287 
L 625.783083 153.425132 
L 625.849674 153.395566 
L 625.94929 153.306852 
L 625.982423 153.336434 
L 626.147551 153.321635 
L 626.279014 153.351217 
L 626.377241 153.425132 
L 626.442551 153.351217 
L 626.507721 153.425132 
L 626.540254 153.46948 
L 626.572752 153.351217 
L 626.637645 153.410349 
L 626.702401 153.336434 
L 626.734727 153.395566 
L 626.799277 153.292069 
L 626.92797 153.306852 
L 626.960058 153.395566 
L 627.024135 153.247721 
L 627.183739 153.336434 
L 627.310825 153.247721 
L 627.342514 153.395566 
L 627.437384 153.336434 
L 627.56342 153.306852 
L 627.594848 153.395566 
L 627.657607 153.336434 
L 627.78274 153.292069 
L 628.492468 153.188589 
L 628.583837 153.218155 
L 628.614233 153.292069 
L 628.674934 153.247721 
L 628.795974 153.277287 
L 628.916537 153.262504 
L 630.726835 153.203372 
L 630.755172 153.099876 
L 630.783482 172.836528 
L 630.868256 170.352806 
L 631.009024 167.64734 
L 631.0371 168.046511 
L 631.06515 167.026409 
L 631.121174 169.332721 
L 631.177094 165.148835 
L 631.205016 165.858479 
L 631.260784 164.956657 
L 631.288629 163.182578 
L 631.344244 165.178416 
L 631.427477 167.543843 
L 631.455171 165.932393 
L 631.64833 162.162477 
L 631.675824 164.099183 
L 631.75816 163.389539 
L 631.840274 165.326246 
L 631.867596 164.335726 
L 631.894894 163.626098 
L 631.949417 164.646183 
L 631.976642 164.808811 
L 632.003842 164.099183 
L 632.058171 164.572269 
L 632.085299 164.956657 
L 632.112403 164.513137 
L 632.301461 161.068461 
L 632.328374 161.231089 
L 632.355264 160.935399 
L 632.382129 160.728422 
L 632.408971 161.231089 
L 632.43579 162.295523 
L 632.489356 161.083244 
L 632.516104 160.979747 
L 632.56953 161.9555 
L 632.649493 161.911151 
L 632.782303 159.767468 
L 632.808795 161.024112 
L 632.835265 161.452849 
L 632.861712 160.698856 
L 632.914537 159.486576 
L 632.993603 160.255336 
L 633.019913 160.210988 
L 633.151125 158.76215 
L 633.177299 159.353514 
L 633.229582 160.107491 
L 633.333878 157.135916 
L 633.359897 157.416808 
L 633.43782 156.308009 
L 633.618871 152.774635 
L 633.644648 153.572977 
L 633.696137 152.345899 
L 633.721849 152.966829 
L 633.798855 151.473642 
L 633.926769 154.474799 
L 633.952287 151.370162 
L 634.028715 153.853868 
L 634.054148 152.715504 
L 634.130322 153.661674 
L 634.180999 152.730286 
L 634.206306 155.657512 
L 634.282102 153.898217 
L 634.307325 152.493744 
L 634.332528 154.031279 
L 634.382871 152.552875 
L 634.483308 155.509667 
L 634.508366 155.021799 
L 634.608392 152.759852 
L 634.633347 153.750372 
L 634.658282 153.661674 
L 634.683197 153.114658 
L 634.708092 155.391404 
L 634.782653 152.464178 
L 634.807467 154.371303 
L 634.83226 156.278443 
L 634.857033 153.099876 
L 634.881786 153.913 
L 634.906519 152.242418 
L 634.955926 155.731427 
L 634.980599 155.938404 
L 635.054499 152.286767 
L 635.103666 153.543395 
L 635.177269 153.528612 
L 635.250695 154.548714 
L 635.275132 153.351217 
L 635.323945 155.64273 
L 635.348323 154.400868 
L 635.372681 155.169644 
L 635.421339 154.696559 
L 635.44564 153.262504 
L 635.494182 154.814822 
L 635.591035 156.145381 
L 635.542647 154.607845 
L 635.615201 155.672295 
L 635.639347 152.818984 
L 635.735742 154.489582 
L 635.759793 153.986915 
L 635.855809 154.267822 
L 635.927624 154.238256 
L 635.951524 153.602543 
L 635.975406 154.43045 
L 636.023114 153.853868 
L 636.070748 154.637411 
L 636.142059 154.031279 
L 636.236882 155.258342 
L 636.189507 154.001713 
L 636.284184 154.711342 
L 636.331412 154.105194 
L 636.378567 154.888753 
L 636.42565 154.149543 
L 636.449164 154.947884 
L 636.54304 154.489582 
L 636.566464 155.007016 
L 636.636628 154.282605 
L 636.65998 154.785256 
L 636.683315 154.947884 
L 636.753211 154.726125 
L 636.822948 155.19921 
L 636.79972 154.563496 
L 636.869351 155.021799 
L 636.985051 154.090411 
L 637.031209 154.888753 
L 637.100314 154.622628 
L 637.123315 154.371303 
L 637.146298 155.021799 
L 637.192212 154.607845 
L 637.215144 154.829605 
L 637.260955 154.519148 
L 637.283835 154.65221 
L 637.329543 154.504365 
L 637.352372 154.726125 
L 637.375183 154.918318 
L 637.397978 154.548714 
L 637.420755 154.681776 
L 637.443516 154.400868 
L 637.466259 154.903536 
L 637.534388 154.65221 
L 637.624991 154.223473 
L 637.760394 154.785256 
L 637.782903 154.947884 
L 637.805395 154.844388 
L 637.827871 154.149543 
L 637.917608 154.637411 
L 637.962378 154.35652 
L 638.029411 154.386085 
L 638.074017 154.97745 
L 638.118559 154.607845 
L 638.163036 154.666993 
L 638.229629 154.149543 
L 638.251795 154.770473 
L 638.340297 154.578279 
L 638.406506 154.267822 
L 638.428544 155.021799 
L 638.472572 154.164326 
L 638.516536 154.918318 
L 638.538494 154.35652 
L 638.626171 154.75569 
L 638.691763 154.504365 
L 638.713596 154.785256 
L 638.735413 154.65221 
L 638.822527 154.548714 
L 638.844267 154.267822 
L 638.865991 154.992233 
L 638.909393 154.460016 
L 638.931071 154.800039 
L 638.996012 154.400868 
L 639.017629 154.696559 
L 639.060816 155.213993 
L 639.125482 154.267822 
L 639.232956 154.814822 
L 639.254405 154.740907 
L 639.297259 154.962667 
L 639.425461 154.445233 
L 639.468075 154.814822 
L 639.48936 154.386085 
L 639.553127 154.607845 
L 639.637942 154.933101 
L 639.659108 154.681776 
L 639.680261 154.637411 
L 639.701398 154.859171 
L 639.722521 154.563496 
L 639.806868 154.844388 
L 639.890982 154.563496 
L 639.932952 154.800039 
L 639.953916 154.829605 
L 640.01672 154.548714 
L 640.037626 155.036582 
L 640.058518 154.75569 
L 640.121108 154.829605 
L 640.141942 154.814822 
L 640.162763 154.548714 
L 640.22514 154.888753 
L 640.245904 154.75569 
L 640.266653 154.918318 
L 640.308111 154.371303 
L 640.349512 154.75569 
L 640.390857 154.504365 
L 640.411509 154.97745 
L 640.45277 154.65221 
L 640.55568 154.844388 
L 640.493976 154.637411 
L 640.576221 154.785256 
L 640.596747 154.622628 
L 640.678716 154.785256 
L 640.699174 154.770473 
L 640.719618 154.548714 
L 640.740049 154.888753 
L 640.801259 154.75569 
L 640.862346 155.021799 
L 640.882681 154.637411 
L 640.903003 154.519148 
L 640.923311 154.933101 
L 640.963887 154.65221 
L 641.02465 154.622628 
L 641.085293 154.785256 
L 641.145815 154.87397 
L 641.206217 154.341737 
L 641.226325 154.696559 
L 641.326665 154.681776 
L 641.366709 154.578279 
L 641.426676 154.726125 
L 641.446639 154.533931 
L 641.50645 154.800039 
L 641.526361 154.800039 
L 641.546259 154.888753 
L 641.586017 154.696559 
L 641.605876 154.740907 
L 641.685183 154.903536 
L 641.704978 154.578279 
L 641.744529 154.770473 
L 641.764286 154.474799 
L 641.823478 154.696559 
L 641.843184 154.696559 
L 641.862876 154.814822 
L 641.94152 154.666993 
L 642.000371 154.666993 
L 642.059108 154.460016 
L 642.078662 154.593062 
L 642.176244 154.844388 
L 642.137249 154.548714 
L 642.195723 154.726125 
L 642.292933 154.533931 
L 642.234644 154.814822 
L 642.312338 154.681776 
L 642.33173 154.933101 
L 642.35111 154.460016 
L 642.428509 154.814822 
L 642.524981 154.844388 
L 642.544239 154.578279 
L 642.563485 154.888753 
L 642.659533 154.800039 
L 642.812583 154.489582 
L 642.888822 154.740907 
L 642.92687 154.563496 
L 642.983853 154.504365 
L 643.116402 154.770473 
L 643.191887 154.593062 
L 643.22956 154.740907 
L 643.248378 154.800039 
L 643.304766 154.666993 
L 643.379787 154.593062 
L 643.417228 154.696559 
L 643.454624 154.903536 
L 643.510632 154.65221 
L 643.547913 154.533931 
L 643.566537 154.696559 
L 643.585149 154.87397 
L 643.640919 154.593062 
L 643.659486 154.622628 
L 643.678041 154.533931 
L 643.696586 154.681776 
L 643.770652 154.607845 
L 643.807617 154.859171 
L 643.881415 154.75569 
L 643.936646 154.785256 
L 644.010132 154.489582 
L 644.065131 154.97745 
L 644.083442 171.298993 
L 644.174833 157.579436 
L 644.211313 157.25418 
L 644.33865 153.232938 
L 644.356798 156.869808 
L 644.447376 155.746226 
L 644.465459 153.913 
L 644.483532 155.805358 
L 644.555715 155.583598 
L 644.609741 154.031279 
L 644.663672 154.992233 
L 644.681627 155.19921 
L 644.735431 154.726125 
L 644.824894 154.326954 
L 644.807023 154.75569 
L 644.842755 154.711342 
L 644.860606 154.859171 
L 644.896276 154.829605 
L 644.914096 154.253039 
L 644.98527 154.666993 
L 645.003038 155.007016 
L 645.056278 154.504365 
L 645.074005 154.533931 
L 645.215447 153.986915 
L 645.127122 154.637411 
L 645.285923 154.208674 
L 645.3211 154.533931 
L 645.391333 154.474799 
L 645.478897 154.223473 
L 645.461404 154.637411 
L 645.49638 154.533931 
L 645.513853 154.504365 
L 645.566211 154.060845 
L 645.635883 154.105194 
L 645.653276 154.193892 
L 645.705396 154.046062 
L 645.740094 154.119977 
L 645.757428 153.986915 
L 645.826665 154.223473 
L 645.861225 154.031279 
L 645.930228 154.267822 
L 645.964671 154.179109 
L 645.981878 153.986915 
L 646.016263 154.341737 
L 646.067768 154.208674 
L 646.136306 154.13476 
L 646.102056 154.386085 
L 646.170517 154.193892 
L 646.238825 154.43045 
L 646.255879 153.942566 
L 646.289957 154.519148 
L 646.341002 154.35652 
L 646.374985 154.105194 
L 646.40893 154.371303 
L 646.459778 154.223473 
L 646.493629 153.972132 
L 646.527443 154.149543 
L 646.611813 154.371303 
L 646.561219 154.13476 
L 646.62866 154.238256 
L 646.763096 153.986915 
L 646.779859 154.001713 
L 646.830093 154.312171 
L 646.880244 153.927783 
L 646.896943 154.193892 
L 646.963647 154.001713 
L 647.013579 154.149543 
L 647.09662 154.253039 
L 647.063431 154.090411 
L 647.1132 154.13476 
L 647.162889 154.105194 
L 647.179434 154.253039 
L 647.229016 154.090411 
L 647.278517 154.193892 
L 647.294999 154.001713 
L 647.377278 154.223473 
L 647.393708 154.43045 
L 647.410128 154.060845 
L 647.475722 154.312171 
L 647.557516 153.972132 
L 647.590173 154.179109 
L 647.671661 153.942566 
L 647.655381 154.267822 
L 647.72045 153.986915 
L 647.801593 154.193892 
L 647.752933 153.942566 
L 647.817795 154.001713 
L 647.88252 153.913 
L 647.850175 154.046062 
L 647.89868 154.001713 
L 647.963233 154.238256 
L 647.995459 153.898217 
L 648.011559 154.090411 
L 648.059809 154.149543 
L 648.140055 153.883434 
L 648.156079 154.105194 
L 648.220092 153.80952 
L 648.252048 153.942566 
L 648.331791 153.853868 
L 648.28397 154.016496 
L 648.363631 153.898217 
L 648.411327 154.075628 
L 648.474807 153.942566 
L 648.569781 153.868651 
L 648.711689 154.105194 
L 648.743135 153.927783 
L 648.821608 154.105194 
L 648.89988 153.853868 
L 648.884242 154.164326 
L 648.91551 153.898217 
L 648.931133 154.149543 
L 649.040266 154.13476 
L 649.11798 153.986915 
L 649.086918 154.193892 
L 649.195497 154.105194 
L 649.272818 154.622628 
L 649.288258 160.876267 
L 649.349943 154.312171 
L 649.380739 154.696559 
L 649.396125 155.923621 
L 649.426874 154.060845 
L 649.48828 154.800039 
L 649.503612 153.972132 
L 649.595443 154.371303 
L 649.610722 154.386085 
L 649.625993 155.021799 
L 649.717457 154.593062 
L 649.732675 154.386085 
L 649.778282 154.637411 
L 649.838986 154.445233 
L 649.854143 154.740907 
L 649.869292 154.371303 
L 649.944927 154.460016 
L 649.960032 154.578279 
L 650.050503 154.533931 
L 650.125691 154.386085 
L 650.200695 154.415651 
L 650.290457 154.563496 
L 650.320319 154.548714 
L 650.394847 154.460016 
L 650.365057 154.681776 
L 650.424607 154.593062 
L 650.454338 154.637411 
L 650.48404 154.489582 
L 650.513714 154.548714 
L 650.587772 154.43045 
L 650.543358 154.711342 
L 650.617344 154.578279 
L 650.66165 154.637411 
L 650.676404 154.386085 
L 650.705892 154.519148 
L 650.73535 154.593062 
L 650.852902 154.386085 
L 650.896867 154.282605 
L 650.970003 154.35652 
L 651.028385 154.253039 
L 651.086656 154.489582 
L 651.101207 154.179109 
L 651.188364 154.282605 
L 651.202866 154.504365 
L 651.217361 154.253039 
L 651.304187 154.35652 
L 651.361935 154.282605 
L 651.405174 154.43045 
L 651.448352 154.253039 
L 651.505828 154.489582 
L 651.563196 154.445233 
L 651.577521 154.326954 
L 651.620456 154.519148 
L 651.677609 154.400868 
L 651.734655 156.189745 
L 651.791595 154.578279 
L 651.820026 154.770473 
L 651.890985 153.839085 
L 651.905158 154.666993 
L 652.004179 154.489582 
L 652.06062 154.282605 
L 652.102881 154.326954 
L 652.201265 154.563496 
L 652.215294 154.400868 
L 652.341265 154.193892 
L 652.397086 154.386085 
L 652.411026 154.164326 
L 652.452805 154.312171 
L 652.56394 154.075628 
L 652.577803 154.119977 
L 652.633194 154.297388 
L 652.647026 154.046062 
L 652.702291 154.238256 
L 652.867489 153.927783 
L 652.894936 154.031279 
L 652.990804 153.972132 
L 653.059098 154.016496 
L 653.031799 153.853868 
L 653.086373 153.957349 
L 653.140849 153.868651 
L 653.154453 154.046062 
L 653.181643 154.001713 
L 653.23595 154.090411 
L 653.357789 153.898217 
L 653.384798 154.060845 
L 653.465683 153.972132 
L 653.479143 153.913 
L 653.532924 154.046062 
L 653.559779 153.972132 
L 653.653586 154.149543 
L 653.640203 153.883434 
L 653.680335 154.075628 
L 653.800417 153.839085 
L 653.84034 153.883434 
L 653.88021 154.031279 
L 653.893489 153.765155 
L 653.959795 154.001713 
L 654.012737 153.972132 
L 654.052383 153.794737 
L 654.105165 154.090411 
L 654.131521 153.868651 
L 654.171014 154.016496 
L 654.223591 153.735589 
L 654.236721 154.001713 
L 654.315383 153.765155 
L 654.262964 154.031279 
L 654.354639 153.868651 
L 654.459074 153.986915 
L 654.380781 153.750372 
L 654.472103 153.957349 
L 654.563153 153.794737 
L 654.576138 153.80952 
L 654.666878 154.001713 
L 654.679819 153.69124 
L 654.770253 153.839085 
L 654.834684 154.060845 
L 654.873278 153.972132 
L 654.924661 153.824302 
L 654.988768 153.942566 
L 655.167555 153.957349 
L 655.269251 154.13476 
L 655.218445 153.927783 
L 655.281939 154.119977 
L 655.408532 153.898217 
L 655.421163 154.046062 
L 655.50943 153.942566 
L 655.572322 153.839085 
L 655.534603 154.046062 
L 655.609996 153.972132 
L 655.647623 154.060845 
L 655.685203 153.972132 
L 655.69772 153.839085 
L 655.760226 154.016496 
L 655.772712 153.868651 
L 655.872415 154.149543 
L 655.884855 154.075628 
L 655.934565 154.046062 
L 655.984194 154.13476 
L 656.046117 153.927783 
L 656.033743 154.164326 
L 656.095565 154.046062 
L 656.107915 153.972132 
L 656.120259 154.164326 
L 656.181907 154.060845 
L 656.194222 154.223473 
L 656.280286 153.957349 
L 656.292561 154.208674 
L 656.317096 153.986915 
L 656.402815 154.164326 
L 656.960202 154.208674 
L 657.056108 154.13476 
L 657.080038 154.297388 
L 657.163645 154.149543 
L 657.103949 154.445233 
L 657.17557 154.297388 
L 657.223224 154.371303 
L 657.235126 154.193892 
L 657.247023 154.238256 
L 657.258915 154.164326 
L 657.30644 154.386085 
L 657.330174 154.223473 
L 657.342034 154.35652 
L 657.413099 154.208674 
L 657.436751 154.208674 
L 657.507596 154.164326 
L 657.590042 154.400868 
L 657.601802 154.223473 
L 657.707436 154.253039 
L 657.719151 154.223473 
L 657.730861 154.312171 
L 657.812707 154.267822 
L 657.836051 154.223473 
L 657.917616 154.297388 
L 657.998963 154.119977 
L 658.022166 154.208674 
L 658.080094 154.312171 
L 658.126359 154.164326 
L 658.253225 154.297388 
L 658.264732 154.253039 
L 658.402481 154.105194 
L 658.287733 154.297388 
L 658.413932 154.208674 
L 658.528207 154.371303 
L 658.459693 154.105194 
L 658.551011 154.341737 
L 658.653418 154.193892 
L 658.573798 154.35652 
L 658.664775 154.208674 
L 658.732831 154.371303 
L 658.789429 154.326954 
L 658.812038 154.371303 
L 658.823337 154.193892 
L 658.834631 154.326954 
L 658.879767 154.105194 
L 658.947346 154.179109 
L 658.958594 154.371303 
L 658.969839 154.13476 
L 659.059646 154.238256 
L 659.082056 154.119977 
L 659.171534 154.164326 
L 659.238471 154.090411 
L 659.271884 154.312171 
L 659.394089 154.105194 
L 659.405174 154.297388 
L 659.482658 154.001713 
L 659.493711 154.075628 
L 659.515806 154.179109 
L 659.604024 154.326954 
L 659.581993 154.149543 
L 659.63704 154.282605 
L 659.648037 154.223473 
L 659.659031 154.460016 
L 659.724908 154.238256 
L 659.779698 154.460016 
L 659.823459 154.149543 
L 659.83439 154.282605 
L 659.856239 154.519148 
L 659.867158 154.267822 
L 659.954368 154.386085 
L 659.99788 154.415651 
L 660.052182 154.297388 
L 660.063031 154.43045 
L 660.106389 154.238256 
L 660.117218 153.572977 
L 660.128044 157.25418 
L 660.138866 161.704174 
L 660.225305 154.312171 
L 660.236092 156.234094 
L 660.354505 153.765155 
L 660.375986 153.957349 
L 660.38672 153.986915 
L 660.397451 153.750372 
L 660.440336 153.927783 
L 660.451048 153.750372 
L 660.536609 154.119977 
L 660.557962 154.223473 
L 660.579299 153.839085 
L 660.62193 153.972132 
L 660.717633 154.13476 
L 660.749467 154.090411 
L 660.823618 153.824302 
L 660.86591 153.853868 
L 660.887034 153.913 
L 660.918692 153.839085 
L 661.002954 154.105194 
L 661.107955 154.164326 
L 661.118436 153.824302 
L 661.128912 154.312171 
L 661.233482 154.060845 
L 661.254354 154.119977 
L 661.264784 153.913 
L 661.285633 154.016496 
L 661.296053 153.839085 
L 661.379281 154.208674 
L 661.400053 154.312171 
L 661.431184 154.13476 
L 661.462284 154.297388 
L 661.56572 153.439915 
L 661.545061 154.415651 
L 661.576045 153.750372 
L 661.627614 156.648048 
L 661.606997 152.700721 
L 661.689383 154.105194 
L 661.709945 154.460016 
L 661.761289 153.853868 
L 661.812547 154.253039 
L 662.108159 153.942566 
L 662.118302 154.016496 
L 662.158839 153.853868 
L 662.209435 153.913 
L 662.300296 153.750372 
L 662.330523 153.839085 
L 662.36072 153.927783 
L 662.441101 153.898217 
L 662.461163 153.853868 
L 662.481212 153.972132 
L 662.491231 153.942566 
L 662.501247 154.046062 
L 662.54128 153.779954 
L 662.591246 153.913 
L 662.770451 153.80952 
L 662.859661 153.765155 
L 662.829953 153.986915 
L 662.869557 153.80952 
L 662.94861 154.001713 
L 662.988061 153.957349 
L 663.02746 154.031279 
L 663.135547 153.853868 
L 663.262794 153.972132 
L 663.321346 153.972132 
L 663.282324 153.927783 
L 663.350579 153.927783 
L 663.360318 153.839085 
L 663.438112 153.986915 
L 663.45753 153.927783 
L 663.535078 154.060845 
L 663.583446 154.031279 
L 663.59311 154.060845 
L 663.670315 153.942566 
L 663.776154 153.972132 
L 663.73771 153.883434 
L 663.785758 153.942566 
L 663.900765 153.853868 
L 663.81455 154.016496 
L 663.91033 153.913 
L 663.986738 154.060845 
L 664.034396 154.001713 
L 664.043918 153.927783 
L 664.062955 154.075628 
L 664.148472 153.942566 
L 664.233751 153.898217 
L 664.205351 154.016496 
L 664.25267 153.972132 
L 664.375355 154.060845 
L 664.328227 153.913 
L 664.384772 154.001713 
L 664.413006 153.898217 
L 664.488168 154.001713 
L 664.516306 154.075628 
L 664.563145 153.972132 
L 664.600565 154.046062 
L 664.675267 153.927783 
L 664.721863 154.001713 
L 664.814843 154.031279 
L 664.79627 153.942566 
L 664.833405 154.001713 
L 665.064483 154.001713 
L 665.183957 153.868651 
L 665.193127 153.942566 
L 665.266396 153.794737 
L 665.293826 153.853868 
L 665.439707 153.942566 
L 665.457893 154.016496 
L 665.530529 153.913 
L 665.539597 153.972132 
L 665.548661 153.883434 
L 665.593945 153.986915 
L 665.648196 153.898217 
L 665.756411 153.986915 
L 665.77441 153.972132 
L 665.882179 153.898217 
L 665.801387 153.986915 
L 665.891142 153.942566 
L 666.007431 153.883434 
L 665.935921 153.972132 
L 666.016357 153.898217 
L 666.043123 153.942566 
L 666.060953 153.839085 
L 666.123278 153.898217 
L 666.238687 153.80952 
L 666.247546 153.824302 
L 666.27411 154.001713 
L 666.362488 153.942566 
L 666.371311 153.853868 
L 666.44181 153.972132 
L 666.468205 153.957349 
L 666.739625 153.913 
L 666.817975 154.001713 
L 666.852732 153.839085 
L 666.922129 153.824302 
L 666.965422 153.913 
L 667.034564 153.824302 
L 667.069076 153.913 
L 667.112161 153.957349 
L 667.137983 153.868651 
L 667.146586 153.883434 
L 667.155186 153.794737 
L 667.189562 153.942566 
L 667.249627 153.839085 
L 667.266767 153.942566 
L 667.343778 153.794737 
L 667.360865 153.868651 
L 667.377942 153.913 
L 667.39501 153.839085 
L 667.463187 153.839085 
L 667.50572 153.779954 
L 667.522717 153.853868 
L 667.565167 153.839085 
L 667.649891 154.016496 
L 667.700613 153.957349 
L 667.818638 153.824302 
L 667.911053 153.913 
L 667.952967 153.853868 
L 668.036624 153.735589 
L 668.003189 153.883434 
L 668.070022 153.794737 
L 668.086708 153.839085 
L 668.153359 153.735589 
L 668.178316 153.617326 
L 668.236469 153.839085 
L 668.244768 153.735589 
L 668.27794 153.883434 
L 668.352445 153.824302 
L 668.451503 153.676457 
L 668.459743 153.735589 
L 668.467981 153.794737 
L 668.517363 153.646891 
L 668.574875 153.765155 
L 668.697751 153.617326 
L 668.746763 153.661674 
L 668.77124 153.58776 
L 668.885206 153.80952 
L 668.901452 153.617326 
L 668.950139 153.853868 
L 668.998748 153.69124 
L 669.087664 153.765155 
L 669.04728 153.661674 
L 669.136055 153.720806 
L 669.224573 153.572977 
L 669.24867 153.676457 
L 669.304822 153.720806 
L 669.328855 153.646891 
L 669.336862 153.602543 
L 669.376866 153.735589 
L 669.424801 153.69124 
L 669.46469 153.735589 
L 669.472661 153.646891 
L 669.512487 153.69124 
L 669.520446 153.58776 
L 669.584043 153.706023 
L 669.623725 153.646891 
L 669.631655 153.720806 
L 669.671274 153.572977 
L 669.734558 153.646891 
L 669.797712 153.779954 
L 669.758256 153.632109 
L 669.82924 153.676457 
L 669.837116 153.58776 
L 669.892198 153.794737 
L 669.939331 153.632109 
L 670.017726 153.794737 
L 670.002063 153.58776 
L 670.056848 153.676457 
L 670.088109 153.632109 
L 670.119339 153.794737 
L 670.14274 153.720806 
L 670.158331 161.024112 
L 670.251709 154.13476 
L 670.259478 155.790575 
L 670.337056 154.060845 
L 670.360291 154.282605 
L 670.476202 153.986915 
L 670.398977 154.35652 
L 670.483913 154.238256 
L 670.607037 154.696559 
L 670.499331 154.164326 
L 670.630068 154.445233 
L 670.645412 154.386085 
L 670.653081 154.666993 
L 670.676077 154.238256 
L 670.752605 154.474799 
L 670.859423 154.075628 
L 670.889874 154.149543 
L 670.98863 154.297388 
L 670.981045 154.075628 
L 671.011375 154.267822 
L 671.087069 154.016496 
L 671.056814 154.297388 
L 671.132395 154.090411 
L 671.222846 154.474799 
L 671.260455 154.445233 
L 671.267971 154.460016 
L 671.282998 154.341737 
L 671.290508 154.371303 
L 671.305524 154.238256 
L 671.380493 154.666993 
L 671.38798 154.859171 
L 671.395465 154.637411 
L 671.492602 154.726125 
L 671.500061 154.681776 
L 671.514974 154.903536 
L 671.596867 154.726125 
L 671.67854 154.888753 
L 671.648866 154.711342 
L 671.715592 154.87397 
L 671.730401 154.740907 
L 671.76739 154.97745 
L 671.804335 154.918318 
L 671.82648 154.962667 
L 671.848609 154.770473 
L 671.870723 154.814822 
L 672.353206 154.711342 
L 672.360458 154.666993 
L 672.374957 154.829605 
L 672.447349 154.75569 
L 672.497921 154.888753 
L 672.562819 154.800039 
L 672.735211 154.770473 
L 672.742373 154.933101 
L 672.8496 154.859171 
L 672.892386 154.918318 
L 672.956452 154.829605 
L 673.324005 154.75569 
L 673.33103 154.711342 
L 673.401192 154.888753 
L 673.436213 154.75569 
L 673.534059 154.800039 
L 673.485175 154.696559 
L 673.541036 154.785256 
L 673.548011 154.726125 
L 673.638547 154.844388 
L 673.6455 154.829605 
L 673.673296 154.800039 
L 673.756535 154.844388 
L 674.945338 154.903536 
L 674.952 154.962667 
L 674.971977 154.859171 
L 675.058393 154.918318 
L 675.084933 154.800039 
L 675.177644 154.844388 
L 675.309601 154.903536 
L 675.316184 154.888753 
L 675.421317 154.844388 
L 675.513014 154.740907 
L 675.506473 154.888753 
L 675.532627 154.800039 
L 675.734565 154.859171 
L 675.741057 154.918318 
L 675.792942 154.800039 
L 675.84474 154.859171 
L 675.95452 154.814822 
L 675.857676 154.888753 
L 675.960965 154.859171 
L 675.967409 154.888753 
L 675.980293 154.740907 
L 676.063906 154.814822 
L 676.121658 154.740907 
L 676.140885 154.844388 
L 676.172902 154.785256 
L 676.243222 154.829605 
L 676.275132 154.75569 
L 676.28151 154.800039 
L 676.31338 154.696559 
L 676.40244 154.770473 
L 676.491241 154.859171 
L 676.421491 154.711342 
L 676.510236 154.844388 
L 676.586099 154.75569 
L 676.62396 154.800039 
L 676.63657 154.859171 
L 676.737262 154.785256 
L 676.825096 154.888753 
L 676.856404 154.814822 
L 676.981317 154.888753 
L 677.05602 154.814822 
L 677.018691 154.947884 
L 677.087092 154.829605 
L 677.118133 154.814822 
L 677.20488 154.933101 
L 677.272865 154.829605 
L 677.31605 154.903536 
L 677.346859 154.918318 
L 677.426818 154.859171 
L 677.506567 154.962667 
L 677.475919 154.844388 
L 677.543305 154.947884 
L 677.653252 154.87397 
L 677.659349 154.888753 
L 677.774954 154.97745 
L 677.781026 154.859171 
L 677.823499 154.992233 
L 677.884072 154.933101 
L 677.90222 154.962667 
L 677.986771 154.918318 
L 678.089126 154.992233 
L 678.004859 154.903536 
L 678.101145 154.947884 
L 678.173161 155.007016 
L 678.11316 154.918318 
L 678.227062 154.962667 
L 678.233045 154.933101 
L 678.262943 155.007016 
L 678.334579 154.97745 
L 679.11168 154.87397 
L 679.163951 154.97745 
L 679.210339 154.87397 
L 679.320229 154.97745 
L 679.326001 154.947884 
L 680.818553 154.859171 
L 680.824049 154.829605 
L 680.851516 154.947884 
L 680.928292 154.87397 
L 680.999411 154.97745 
L 681.043095 154.962667 
L 681.092165 154.87397 
L 681.157468 154.933101 
L 683.591112 154.859171 
L 683.596131 154.814822 
L 683.601149 154.918318 
L 683.696344 154.903536 
L 683.801215 154.933101 
L 683.781268 154.844388 
L 683.811184 154.903536 
L 683.895789 154.888753 
L 683.890819 154.947884 
L 683.915662 154.918318 
L 683.950409 154.97745 
L 683.930559 154.903536 
L 684.024734 154.903536 
L 684.113685 154.962667 
L 684.039577 154.888753 
L 684.133417 154.947884 
L 684.192536 154.814822 
L 684.246628 154.903536 
L 684.305528 154.844388 
L 684.339835 154.918318 
L 684.354525 154.814822 
L 684.393667 154.933101 
L 684.452284 154.87397 
L 684.486426 154.947884 
L 684.4913 155.021799 
L 684.505919 154.800039 
L 684.593481 154.888753 
L 684.854672 154.888753 
L 684.859488 155.007016 
L 684.869117 154.844388 
L 684.965245 154.962667 
L 685.003612 154.888753 
L 685.017987 154.992233 
L 685.075419 154.947884 
L 685.123198 154.888753 
L 685.194725 154.992233 
L 685.280337 154.933101 
L 685.313566 154.947884 
L 685.332538 154.992233 
L 685.346759 154.918318 
L 685.42722 154.962667 
L 693.358427 154.87397 
L 693.463966 154.844388 
L 693.467598 154.87397 
L 693.54741 154.888753 
L 693.518412 154.844388 
L 693.57638 154.859171 
L 700.034764 154.75569 
L 700.069899 154.800039 
L 700.145886 154.75569 
L 700.210036 154.740907 
L 700.262422 154.785256 
L 700.276957 154.740907 
L 700.375617 154.75569 
L 704.334375 154.75569 
L 704.334375 154.75569 
" clip-path="url(#p458560cfcd)" style="fill: none; stroke: #1f77b4; stroke-width: 1.5; stroke-linecap: square"/>
   </g>
   <g id="patch_3">
    <path d="M 347.214375 311.6435 
L 347.214375 45.5315 
" style="fill: none; stroke: #000000; stroke-width: 0.8; stroke-linejoin: miter; stroke-linecap: square"/>
   </g>
   <g id="patch_4">
    <path d="M 704.334375 311.6435 
L 704.334375 45.5315 
" style="fill: none; stroke: #000000; stroke-width: 0.8; stroke-linejoin: miter; stroke-linecap: square"/>
   </g>
   <g id="patch_5">
    <path d="M 347.214375 311.6435 
L 704.334375 311.6435 
" style="fill: none; stroke: #000000; stroke-width: 0.8; stroke-linejoin: miter; stroke-linecap: square"/>
   </g>
   <g id="patch_6">
    <path d="M 347.214375 45.5315 
L 704.334375 45.5315 
" style="fill: none; stroke: #000000; stroke-width: 0.8; stroke-linejoin: miter; stroke-linecap: square"/>
   </g>
   <g id="text_18">
    <!-- Accuracy of the 09_07_25_CINIC10_torch_model_(1024+512.3+1)_cat-dog on the validation set -->
    <g transform="translate(7.2 25.5315) scale(0.264 -0.264)">
     <defs>
      <path id="TimesNewRomanPSMT-20" transform="scale(0.015625)"/>
      <path id="TimesNewRomanPSMT-6f" d="M 1600 2947 
Q 2250 2947 2644 2453 
Q 2978 2031 2978 1484 
Q 2978 1100 2793 706 
Q 2609 313 2286 112 
Q 1963 -88 1566 -88 
Q 919 -88 538 428 
Q 216 863 216 1403 
Q 216 1797 411 2186 
Q 606 2575 925 2761 
Q 1244 2947 1600 2947 
z
M 1503 2744 
Q 1338 2744 1170 2645 
Q 1003 2547 900 2300 
Q 797 2053 797 1666 
Q 797 1041 1045 587 
Q 1294 134 1700 134 
Q 2003 134 2200 384 
Q 2397 634 2397 1244 
Q 2397 2006 2069 2444 
Q 1847 2744 1503 2744 
z
" transform="scale(0.015625)"/>
      <path id="TimesNewRomanPSMT-66" d="M 1319 2638 
L 1319 756 
Q 1319 356 1406 250 
Q 1522 113 1716 113 
L 1975 113 
L 1975 0 
L 266 0 
L 266 113 
L 394 113 
Q 519 113 622 175 
Q 725 238 764 344 
Q 803 450 803 756 
L 803 2638 
L 247 2638 
L 247 2863 
L 803 2863 
L 803 3050 
Q 803 3478 940 3775 
Q 1078 4072 1361 4255 
Q 1644 4438 1997 4438 
Q 2325 4438 2600 4225 
Q 2781 4084 2781 3909 
Q 2781 3816 2700 3733 
Q 2619 3650 2525 3650 
Q 2453 3650 2373 3701 
Q 2294 3753 2178 3923 
Q 2063 4094 1966 4153 
Q 1869 4213 1750 4213 
Q 1606 4213 1506 4136 
Q 1406 4059 1362 3898 
Q 1319 3738 1319 3069 
L 1319 2863 
L 2056 2863 
L 2056 2638 
L 1319 2638 
z
" transform="scale(0.015625)"/>
      <path id="TimesNewRomanPSMT-74" d="M 1031 3803 
L 1031 2863 
L 1700 2863 
L 1700 2644 
L 1031 2644 
L 1031 788 
Q 1031 509 1111 412 
Q 1191 316 1316 316 
Q 1419 316 1516 380 
Q 1613 444 1666 569 
L 1788 569 
Q 1678 263 1478 108 
Q 1278 -47 1066 -47 
Q 922 -47 784 33 
Q 647 113 581 261 
Q 516 409 516 719 
L 516 2644 
L 63 2644 
L 63 2747 
Q 234 2816 414 2980 
Q 594 3144 734 3369 
Q 806 3488 934 3803 
L 1031 3803 
z
" transform="scale(0.015625)"/>
      <path id="TimesNewRomanPSMT-68" d="M 1041 4444 
L 1041 2350 
Q 1388 2731 1591 2839 
Q 1794 2947 1997 2947 
Q 2241 2947 2416 2812 
Q 2591 2678 2675 2391 
Q 2734 2191 2734 1659 
L 2734 647 
Q 2734 375 2778 275 
Q 2809 200 2884 156 
Q 2959 113 3159 113 
L 3159 0 
L 1753 0 
L 1753 113 
L 1819 113 
Q 2019 113 2097 173 
Q 2175 234 2206 353 
Q 2216 403 2216 647 
L 2216 1659 
Q 2216 2128 2167 2275 
Q 2119 2422 2012 2495 
Q 1906 2569 1756 2569 
Q 1603 2569 1437 2487 
Q 1272 2406 1041 2159 
L 1041 647 
Q 1041 353 1073 281 
Q 1106 209 1195 161 
Q 1284 113 1503 113 
L 1503 0 
L 84 0 
L 84 113 
Q 275 113 384 172 
Q 447 203 484 290 
Q 522 378 522 647 
L 522 3238 
Q 522 3728 498 3840 
Q 475 3953 426 3993 
Q 378 4034 297 4034 
Q 231 4034 84 3984 
L 41 4094 
L 897 4444 
L 1041 4444 
z
" transform="scale(0.015625)"/>
      <path id="TimesNewRomanPSMT-65" d="M 681 1784 
Q 678 1147 991 784 
Q 1303 422 1725 422 
Q 2006 422 2214 576 
Q 2422 731 2563 1106 
L 2659 1044 
Q 2594 616 2278 264 
Q 1963 -88 1488 -88 
Q 972 -88 605 314 
Q 238 716 238 1394 
Q 238 2128 614 2539 
Q 991 2950 1559 2950 
Q 2041 2950 2350 2633 
Q 2659 2316 2659 1784 
L 681 1784 
z
M 681 1966 
L 2006 1966 
Q 1991 2241 1941 2353 
Q 1863 2528 1708 2628 
Q 1553 2728 1384 2728 
Q 1125 2728 920 2526 
Q 716 2325 681 1966 
z
" transform="scale(0.015625)"/>
      <path id="TimesNewRomanPSMT-5f" d="M 3256 -1381 
L -53 -1381 
L -53 -1119 
L 3256 -1119 
L 3256 -1381 
z
" transform="scale(0.015625)"/>
      <path id="TimesNewRomanPSMT-43" d="M 3853 4334 
L 3950 2894 
L 3853 2894 
Q 3659 3541 3300 3825 
Q 2941 4109 2438 4109 
Q 2016 4109 1675 3895 
Q 1334 3681 1139 3212 
Q 944 2744 944 2047 
Q 944 1472 1128 1050 
Q 1313 628 1683 403 
Q 2053 178 2528 178 
Q 2941 178 3256 354 
Q 3572 531 3950 1056 
L 4047 994 
Q 3728 428 3303 165 
Q 2878 -97 2294 -97 
Q 1241 -97 663 684 
Q 231 1266 231 2053 
Q 231 2688 515 3219 
Q 800 3750 1298 4042 
Q 1797 4334 2388 4334 
Q 2847 4334 3294 4109 
Q 3425 4041 3481 4041 
Q 3566 4041 3628 4100 
Q 3709 4184 3744 4334 
L 3853 4334 
z
" transform="scale(0.015625)"/>
      <path id="TimesNewRomanPSMT-49" d="M 1975 116 
L 1975 0 
L 159 0 
L 159 116 
L 309 116 
Q 572 116 691 269 
Q 766 369 766 750 
L 766 3488 
Q 766 3809 725 3913 
Q 694 3991 597 4047 
Q 459 4122 309 4122 
L 159 4122 
L 159 4238 
L 1975 4238 
L 1975 4122 
L 1822 4122 
Q 1563 4122 1444 3969 
Q 1366 3869 1366 3488 
L 1366 750 
Q 1366 428 1406 325 
Q 1438 247 1538 191 
Q 1672 116 1822 116 
L 1975 116 
z
" transform="scale(0.015625)"/>
      <path id="TimesNewRomanPSMT-4e" d="M -84 4238 
L 1066 4238 
L 3656 1059 
L 3656 3503 
Q 3656 3894 3569 3991 
Q 3453 4122 3203 4122 
L 3056 4122 
L 3056 4238 
L 4531 4238 
L 4531 4122 
L 4381 4122 
Q 4113 4122 4000 3959 
Q 3931 3859 3931 3503 
L 3931 -69 
L 3819 -69 
L 1025 3344 
L 1025 734 
Q 1025 344 1109 247 
Q 1228 116 1475 116 
L 1625 116 
L 1625 0 
L 150 0 
L 150 116 
L 297 116 
Q 569 116 681 278 
Q 750 378 750 734 
L 750 3681 
Q 566 3897 470 3965 
Q 375 4034 191 4094 
Q 100 4122 -84 4122 
L -84 4238 
z
" transform="scale(0.015625)"/>
      <path id="TimesNewRomanPSMT-6d" d="M 1050 2338 
Q 1363 2650 1419 2697 
Q 1559 2816 1721 2881 
Q 1884 2947 2044 2947 
Q 2313 2947 2506 2790 
Q 2700 2634 2766 2338 
Q 3088 2713 3309 2830 
Q 3531 2947 3766 2947 
Q 3994 2947 4170 2830 
Q 4347 2713 4450 2447 
Q 4519 2266 4519 1878 
L 4519 647 
Q 4519 378 4559 278 
Q 4591 209 4675 161 
Q 4759 113 4950 113 
L 4950 0 
L 3538 0 
L 3538 113 
L 3597 113 
Q 3781 113 3884 184 
Q 3956 234 3988 344 
Q 4000 397 4000 647 
L 4000 1878 
Q 4000 2228 3916 2372 
Q 3794 2572 3525 2572 
Q 3359 2572 3192 2489 
Q 3025 2406 2788 2181 
L 2781 2147 
L 2788 2013 
L 2788 647 
Q 2788 353 2820 281 
Q 2853 209 2943 161 
Q 3034 113 3253 113 
L 3253 0 
L 1806 0 
L 1806 113 
Q 2044 113 2133 169 
Q 2222 225 2256 338 
Q 2272 391 2272 647 
L 2272 1878 
Q 2272 2228 2169 2381 
Q 2031 2581 1784 2581 
Q 1616 2581 1450 2491 
Q 1191 2353 1050 2181 
L 1050 647 
Q 1050 366 1089 281 
Q 1128 197 1204 155 
Q 1281 113 1516 113 
L 1516 0 
L 100 0 
L 100 113 
Q 297 113 375 155 
Q 453 197 493 289 
Q 534 381 534 647 
L 534 1741 
Q 534 2213 506 2350 
Q 484 2453 437 2492 
Q 391 2531 309 2531 
Q 222 2531 100 2484 
L 53 2597 
L 916 2947 
L 1050 2947 
L 1050 2338 
z
" transform="scale(0.015625)"/>
      <path id="TimesNewRomanPSMT-64" d="M 2222 322 
Q 2013 103 1813 7 
Q 1613 -88 1381 -88 
Q 913 -88 563 304 
Q 213 697 213 1313 
Q 213 1928 600 2439 
Q 988 2950 1597 2950 
Q 1975 2950 2222 2709 
L 2222 3238 
Q 2222 3728 2198 3840 
Q 2175 3953 2125 3993 
Q 2075 4034 2000 4034 
Q 1919 4034 1784 3984 
L 1744 4094 
L 2597 4444 
L 2738 4444 
L 2738 1134 
Q 2738 631 2761 520 
Q 2784 409 2836 365 
Q 2888 322 2956 322 
Q 3041 322 3181 375 
L 3216 266 
L 2366 -88 
L 2222 -88 
L 2222 322 
z
M 2222 541 
L 2222 2016 
Q 2203 2228 2109 2403 
Q 2016 2578 1861 2667 
Q 1706 2756 1559 2756 
Q 1284 2756 1069 2509 
Q 784 2184 784 1559 
Q 784 928 1059 592 
Q 1334 256 1672 256 
Q 1956 256 2222 541 
z
" transform="scale(0.015625)"/>
      <path id="TimesNewRomanPSMT-6c" d="M 1184 4444 
L 1184 647 
Q 1184 378 1223 290 
Q 1263 203 1344 158 
Q 1425 113 1647 113 
L 1647 0 
L 244 0 
L 244 113 
Q 441 113 512 153 
Q 584 194 625 287 
Q 666 381 666 647 
L 666 3247 
Q 666 3731 644 3842 
Q 622 3953 573 3993 
Q 525 4034 450 4034 
Q 369 4034 244 3984 
L 191 4094 
L 1044 4444 
L 1184 4444 
z
" transform="scale(0.015625)"/>
      <path id="TimesNewRomanPSMT-28" d="M 1988 -1253 
L 1988 -1369 
Q 1516 -1131 1200 -813 
Q 750 -359 506 256 
Q 263 872 263 1534 
Q 263 2503 741 3301 
Q 1219 4100 1988 4444 
L 1988 4313 
Q 1603 4100 1356 3731 
Q 1109 3363 987 2797 
Q 866 2231 866 1616 
Q 866 947 969 400 
Q 1050 -31 1165 -292 
Q 1281 -553 1476 -793 
Q 1672 -1034 1988 -1253 
z
" transform="scale(0.015625)"/>
      <path id="TimesNewRomanPSMT-2b" d="M 1672 441 
L 1672 2000 
L 116 2000 
L 116 2256 
L 1672 2256 
L 1672 3809 
L 1922 3809 
L 1922 2256 
L 3484 2256 
L 3484 2000 
L 1922 2000 
L 1922 441 
L 1672 441 
z
" transform="scale(0.015625)"/>
      <path id="TimesNewRomanPSMT-29" d="M 144 4313 
L 144 4444 
Q 619 4209 934 3891 
Q 1381 3434 1625 2820 
Q 1869 2206 1869 1541 
Q 1869 572 1392 -226 
Q 916 -1025 144 -1369 
L 144 -1253 
Q 528 -1038 776 -670 
Q 1025 -303 1145 264 
Q 1266 831 1266 1447 
Q 1266 2113 1163 2663 
Q 1084 3094 967 3353 
Q 850 3613 656 3853 
Q 463 4094 144 4313 
z
" transform="scale(0.015625)"/>
      <path id="TimesNewRomanPSMT-2d" d="M 259 1672 
L 1875 1672 
L 1875 1200 
L 259 1200 
L 259 1672 
z
" transform="scale(0.015625)"/>
      <path id="TimesNewRomanPSMT-67" d="M 966 1044 
Q 703 1172 562 1401 
Q 422 1631 422 1909 
Q 422 2334 742 2640 
Q 1063 2947 1563 2947 
Q 1972 2947 2272 2747 
L 2878 2747 
Q 3013 2747 3034 2739 
Q 3056 2731 3066 2713 
Q 3084 2684 3084 2613 
Q 3084 2531 3069 2500 
Q 3059 2484 3036 2475 
Q 3013 2466 2878 2466 
L 2506 2466 
Q 2681 2241 2681 1891 
Q 2681 1491 2375 1206 
Q 2069 922 1553 922 
Q 1341 922 1119 984 
Q 981 866 932 777 
Q 884 688 884 625 
Q 884 572 936 522 
Q 988 472 1138 450 
Q 1225 438 1575 428 
Q 2219 413 2409 384 
Q 2700 344 2873 169 
Q 3047 -6 3047 -263 
Q 3047 -616 2716 -925 
Q 2228 -1381 1444 -1381 
Q 841 -1381 425 -1109 
Q 191 -953 191 -784 
Q 191 -709 225 -634 
Q 278 -519 444 -313 
Q 466 -284 763 25 
Q 600 122 533 198 
Q 466 275 466 372 
Q 466 481 555 628 
Q 644 775 966 1044 
z
M 1509 2797 
Q 1278 2797 1122 2612 
Q 966 2428 966 2047 
Q 966 1553 1178 1281 
Q 1341 1075 1591 1075 
Q 1828 1075 1981 1253 
Q 2134 1431 2134 1813 
Q 2134 2309 1919 2591 
Q 1759 2797 1509 2797 
z
M 934 0 
Q 788 -159 713 -296 
Q 638 -434 638 -550 
Q 638 -700 819 -813 
Q 1131 -1006 1722 -1006 
Q 2284 -1006 2551 -807 
Q 2819 -609 2819 -384 
Q 2819 -222 2659 -153 
Q 2497 -84 2016 -72 
Q 1313 -53 934 0 
z
" transform="scale(0.015625)"/>
      <path id="TimesNewRomanPSMT-6e" d="M 1034 2341 
Q 1538 2947 1994 2947 
Q 2228 2947 2397 2830 
Q 2566 2713 2666 2444 
Q 2734 2256 2734 1869 
L 2734 647 
Q 2734 375 2778 278 
Q 2813 200 2889 156 
Q 2966 113 3172 113 
L 3172 0 
L 1756 0 
L 1756 113 
L 1816 113 
Q 2016 113 2095 173 
Q 2175 234 2206 353 
Q 2219 400 2219 647 
L 2219 1819 
Q 2219 2209 2117 2386 
Q 2016 2563 1775 2563 
Q 1403 2563 1034 2156 
L 1034 647 
Q 1034 356 1069 288 
Q 1113 197 1189 155 
Q 1266 113 1500 113 
L 1500 0 
L 84 0 
L 84 113 
L 147 113 
Q 366 113 442 223 
Q 519 334 519 647 
L 519 1709 
Q 519 2225 495 2337 
Q 472 2450 423 2490 
Q 375 2531 294 2531 
Q 206 2531 84 2484 
L 38 2597 
L 900 2947 
L 1034 2947 
L 1034 2341 
z
" transform="scale(0.015625)"/>
      <path id="TimesNewRomanPSMT-76" d="M 53 2863 
L 1400 2863 
L 1400 2747 
L 1313 2747 
Q 1191 2747 1127 2687 
Q 1063 2628 1063 2528 
Q 1063 2419 1128 2269 
L 1794 688 
L 2463 2328 
Q 2534 2503 2534 2594 
Q 2534 2638 2509 2666 
Q 2475 2713 2422 2730 
Q 2369 2747 2206 2747 
L 2206 2863 
L 3141 2863 
L 3141 2747 
Q 2978 2734 2916 2681 
Q 2806 2588 2719 2369 
L 1703 -88 
L 1575 -88 
L 553 2328 
Q 484 2497 421 2570 
Q 359 2644 263 2694 
Q 209 2722 53 2747 
L 53 2863 
z
" transform="scale(0.015625)"/>
      <path id="TimesNewRomanPSMT-69" d="M 928 4444 
Q 1059 4444 1151 4351 
Q 1244 4259 1244 4128 
Q 1244 3997 1151 3903 
Q 1059 3809 928 3809 
Q 797 3809 703 3903 
Q 609 3997 609 4128 
Q 609 4259 701 4351 
Q 794 4444 928 4444 
z
M 1188 2947 
L 1188 647 
Q 1188 378 1227 289 
Q 1266 200 1342 156 
Q 1419 113 1622 113 
L 1622 0 
L 231 0 
L 231 113 
Q 441 113 512 153 
Q 584 194 626 287 
Q 669 381 669 647 
L 669 1750 
Q 669 2216 641 2353 
Q 619 2453 572 2492 
Q 525 2531 444 2531 
Q 356 2531 231 2484 
L 188 2597 
L 1050 2947 
L 1188 2947 
z
" transform="scale(0.015625)"/>
      <path id="TimesNewRomanPSMT-73" d="M 2050 2947 
L 2050 1972 
L 1947 1972 
Q 1828 2431 1642 2597 
Q 1456 2763 1169 2763 
Q 950 2763 815 2647 
Q 681 2531 681 2391 
Q 681 2216 781 2091 
Q 878 1963 1175 1819 
L 1631 1597 
Q 2266 1288 2266 781 
Q 2266 391 1970 151 
Q 1675 -88 1309 -88 
Q 1047 -88 709 6 
Q 606 38 541 38 
Q 469 38 428 -44 
L 325 -44 
L 325 978 
L 428 978 
Q 516 541 762 319 
Q 1009 97 1316 97 
Q 1531 97 1667 223 
Q 1803 350 1803 528 
Q 1803 744 1651 891 
Q 1500 1038 1047 1263 
Q 594 1488 453 1669 
Q 313 1847 313 2119 
Q 313 2472 555 2709 
Q 797 2947 1181 2947 
Q 1350 2947 1591 2875 
Q 1750 2828 1803 2828 
Q 1853 2828 1881 2850 
Q 1909 2872 1947 2947 
L 2050 2947 
z
" transform="scale(0.015625)"/>
     </defs>
     <use xlink:href="#TimesNewRomanPSMT-41"/>
     <use xlink:href="#TimesNewRomanPSMT-63" transform="translate(72.216797 0)"/>
     <use xlink:href="#TimesNewRomanPSMT-63" transform="translate(116.601562 0)"/>
     <use xlink:href="#TimesNewRomanPSMT-75" transform="translate(160.986328 0)"/>
     <use xlink:href="#TimesNewRomanPSMT-72" transform="translate(210.986328 0)"/>
     <use xlink:href="#TimesNewRomanPSMT-61" transform="translate(244.287109 0)"/>
     <use xlink:href="#TimesNewRomanPSMT-63" transform="translate(288.671875 0)"/>
     <use xlink:href="#TimesNewRomanPSMT-79" transform="translate(333.056641 0)"/>
     <use xlink:href="#TimesNewRomanPSMT-20" transform="translate(383.056641 0)"/>
     <use xlink:href="#TimesNewRomanPSMT-6f" transform="translate(408.056641 0)"/>
     <use xlink:href="#TimesNewRomanPSMT-66" transform="translate(458.056641 0)"/>
     <use xlink:href="#TimesNewRomanPSMT-20" transform="translate(491.357422 0)"/>
     <use xlink:href="#TimesNewRomanPSMT-74" transform="translate(516.357422 0)"/>
     <use xlink:href="#TimesNewRomanPSMT-68" transform="translate(544.140625 0)"/>
     <use xlink:href="#TimesNewRomanPSMT-65" transform="translate(594.140625 0)"/>
     <use xlink:href="#TimesNewRomanPSMT-20" transform="translate(638.525391 0)"/>
     <use xlink:href="#TimesNewRomanPSMT-30" transform="translate(663.525391 0)"/>
     <use xlink:href="#TimesNewRomanPSMT-39" transform="translate(713.525391 0)"/>
     <use xlink:href="#TimesNewRomanPSMT-5f" transform="translate(763.525391 0)"/>
     <use xlink:href="#TimesNewRomanPSMT-30" transform="translate(813.525391 0)"/>
     <use xlink:href="#TimesNewRomanPSMT-37" transform="translate(863.525391 0)"/>
     <use xlink:href="#TimesNewRomanPSMT-5f" transform="translate(913.525391 0)"/>
     <use xlink:href="#TimesNewRomanPSMT-32" transform="translate(963.525391 0)"/>
     <use xlink:href="#TimesNewRomanPSMT-35" transform="translate(1013.525391 0)"/>
     <use xlink:href="#TimesNewRomanPSMT-5f" transform="translate(1063.525391 0)"/>
     <use xlink:href="#TimesNewRomanPSMT-43" transform="translate(1113.525391 0)"/>
     <use xlink:href="#TimesNewRomanPSMT-49" transform="translate(1180.224609 0)"/>
     <use xlink:href="#TimesNewRomanPSMT-4e" transform="translate(1213.525391 0)"/>
     <use xlink:href="#TimesNewRomanPSMT-49" transform="translate(1285.742188 0)"/>
     <use xlink:href="#TimesNewRomanPSMT-43" transform="translate(1319.042969 0)"/>
     <use xlink:href="#TimesNewRomanPSMT-31" transform="translate(1385.742188 0)"/>
     <use xlink:href="#TimesNewRomanPSMT-30" transform="translate(1435.742188 0)"/>
     <use xlink:href="#TimesNewRomanPSMT-5f" transform="translate(1485.742188 0)"/>
     <use xlink:href="#TimesNewRomanPSMT-74" transform="translate(1535.742188 0)"/>
     <use xlink:href="#TimesNewRomanPSMT-6f" transform="translate(1563.525391 0)"/>
     <use xlink:href="#TimesNewRomanPSMT-72" transform="translate(1613.525391 0)"/>
     <use xlink:href="#TimesNewRomanPSMT-63" transform="translate(1646.826172 0)"/>
     <use xlink:href="#TimesNewRomanPSMT-68" transform="translate(1691.210938 0)"/>
     <use xlink:href="#TimesNewRomanPSMT-5f" transform="translate(1741.210938 0)"/>
     <use xlink:href="#TimesNewRomanPSMT-6d" transform="translate(1791.210938 0)"/>
     <use xlink:href="#TimesNewRomanPSMT-6f" transform="translate(1868.994141 0)"/>
     <use xlink:href="#TimesNewRomanPSMT-64" transform="translate(1918.994141 0)"/>
     <use xlink:href="#TimesNewRomanPSMT-65" transform="translate(1968.994141 0)"/>
     <use xlink:href="#TimesNewRomanPSMT-6c" transform="translate(2013.378906 0)"/>
     <use xlink:href="#TimesNewRomanPSMT-5f" transform="translate(2041.162109 0)"/>
     <use xlink:href="#TimesNewRomanPSMT-28" transform="translate(2091.162109 0)"/>
     <use xlink:href="#TimesNewRomanPSMT-31" transform="translate(2124.462891 0)"/>
     <use xlink:href="#TimesNewRomanPSMT-30" transform="translate(2174.462891 0)"/>
     <use xlink:href="#TimesNewRomanPSMT-32" transform="translate(2224.462891 0)"/>
     <use xlink:href="#TimesNewRomanPSMT-34" transform="translate(2274.462891 0)"/>
     <use xlink:href="#TimesNewRomanPSMT-2b" transform="translate(2324.462891 0)"/>
     <use xlink:href="#TimesNewRomanPSMT-35" transform="translate(2380.859375 0)"/>
     <use xlink:href="#TimesNewRomanPSMT-31" transform="translate(2430.859375 0)"/>
     <use xlink:href="#TimesNewRomanPSMT-32" transform="translate(2480.859375 0)"/>
     <use xlink:href="#TimesNewRomanPSMT-2e" transform="translate(2530.859375 0)"/>
     <use xlink:href="#TimesNewRomanPSMT-33" transform="translate(2555.859375 0)"/>
     <use xlink:href="#TimesNewRomanPSMT-2b" transform="translate(2605.859375 0)"/>
     <use xlink:href="#TimesNewRomanPSMT-31" transform="translate(2662.255859 0)"/>
     <use xlink:href="#TimesNewRomanPSMT-29" transform="translate(2712.255859 0)"/>
     <use xlink:href="#TimesNewRomanPSMT-5f" transform="translate(2745.556641 0)"/>
     <use xlink:href="#TimesNewRomanPSMT-63" transform="translate(2795.556641 0)"/>
     <use xlink:href="#TimesNewRomanPSMT-61" transform="translate(2839.941406 0)"/>
     <use xlink:href="#TimesNewRomanPSMT-74" transform="translate(2884.326172 0)"/>
     <use xlink:href="#TimesNewRomanPSMT-2d" transform="translate(2912.109375 0)"/>
     <use xlink:href="#TimesNewRomanPSMT-64" transform="translate(2945.410156 0)"/>
     <use xlink:href="#TimesNewRomanPSMT-6f" transform="translate(2995.410156 0)"/>
     <use xlink:href="#TimesNewRomanPSMT-67" transform="translate(3045.410156 0)"/>
     <use xlink:href="#TimesNewRomanPSMT-20" transform="translate(3095.410156 0)"/>
     <use xlink:href="#TimesNewRomanPSMT-6f" transform="translate(3120.410156 0)"/>
     <use xlink:href="#TimesNewRomanPSMT-6e" transform="translate(3170.410156 0)"/>
     <use xlink:href="#TimesNewRomanPSMT-20" transform="translate(3220.410156 0)"/>
     <use xlink:href="#TimesNewRomanPSMT-74" transform="translate(3245.410156 0)"/>
     <use xlink:href="#TimesNewRomanPSMT-68" transform="translate(3273.193359 0)"/>
     <use xlink:href="#TimesNewRomanPSMT-65" transform="translate(3323.193359 0)"/>
     <use xlink:href="#TimesNewRomanPSMT-20" transform="translate(3367.578125 0)"/>
     <use xlink:href="#TimesNewRomanPSMT-76" transform="translate(3392.578125 0)"/>
     <use xlink:href="#TimesNewRomanPSMT-61" transform="translate(3442.578125 0)"/>
     <use xlink:href="#TimesNewRomanPSMT-6c" transform="translate(3486.962891 0)"/>
     <use xlink:href="#TimesNewRomanPSMT-69" transform="translate(3514.746094 0)"/>
     <use xlink:href="#TimesNewRomanPSMT-64" transform="translate(3542.529297 0)"/>
     <use xlink:href="#TimesNewRomanPSMT-61" transform="translate(3592.529297 0)"/>
     <use xlink:href="#TimesNewRomanPSMT-74" transform="translate(3636.914062 0)"/>
     <use xlink:href="#TimesNewRomanPSMT-69" transform="translate(3664.697266 0)"/>
     <use xlink:href="#TimesNewRomanPSMT-6f" transform="translate(3692.480469 0)"/>
     <use xlink:href="#TimesNewRomanPSMT-6e" transform="translate(3742.480469 0)"/>
     <use xlink:href="#TimesNewRomanPSMT-20" transform="translate(3792.480469 0)"/>
     <use xlink:href="#TimesNewRomanPSMT-73" transform="translate(3817.480469 0)"/>
     <use xlink:href="#TimesNewRomanPSMT-65" transform="translate(3856.396484 0)"/>
     <use xlink:href="#TimesNewRomanPSMT-74" transform="translate(3900.78125 0)"/>
    </g>
   </g>
   <g id="legend_1">
    <g id="patch_7">
     <path d="M 462.764063 94.278687 
L 688.934375 94.278687 
Q 693.334375 94.278687 693.334375 89.878687 
L 693.334375 60.9315 
Q 693.334375 56.5315 688.934375 56.5315 
L 462.764063 56.5315 
Q 458.364063 56.5315 458.364063 60.9315 
L 458.364063 89.878687 
Q 458.364063 94.278687 462.764063 94.278687 
z
" style="fill: #ffffff; opacity: 0.8; stroke: #cccccc; stroke-linejoin: miter"/>
    </g>
    <g id="line2d_32">
     <path d="M 467.164063 73.0315 
L 489.164063 73.0315 
L 511.164063 73.0315 
" style="fill: none; stroke: #1f77b4; stroke-width: 1.5; stroke-linecap: square"/>
    </g>
    <g id="text_19">
     <!-- Best accuracy 0.6 -->
     <g transform="translate(528.764063 80.7315) scale(0.22 -0.22)">
      <defs>
       <path id="TimesNewRomanPSMT-42" d="M 2956 2163 
Q 3397 2069 3616 1863 
Q 3919 1575 3919 1159 
Q 3919 844 3719 555 
Q 3519 266 3170 133 
Q 2822 0 2106 0 
L 106 0 
L 106 116 
L 266 116 
Q 531 116 647 284 
Q 719 394 719 750 
L 719 3488 
Q 719 3881 628 3984 
Q 506 4122 266 4122 
L 106 4122 
L 106 4238 
L 1938 4238 
Q 2450 4238 2759 4163 
Q 3228 4050 3475 3764 
Q 3722 3478 3722 3106 
Q 3722 2788 3528 2536 
Q 3334 2284 2956 2163 
z
M 1319 2331 
Q 1434 2309 1582 2298 
Q 1731 2288 1909 2288 
Q 2366 2288 2595 2386 
Q 2825 2484 2947 2687 
Q 3069 2891 3069 3131 
Q 3069 3503 2766 3765 
Q 2463 4028 1881 4028 
Q 1569 4028 1319 3959 
L 1319 2331 
z
M 1319 306 
Q 1681 222 2034 222 
Q 2600 222 2897 476 
Q 3194 731 3194 1106 
Q 3194 1353 3059 1581 
Q 2925 1809 2622 1940 
Q 2319 2072 1872 2072 
Q 1678 2072 1540 2065 
Q 1403 2059 1319 2044 
L 1319 306 
z
" transform="scale(0.015625)"/>
      </defs>
      <use xlink:href="#TimesNewRomanPSMT-42"/>
      <use xlink:href="#TimesNewRomanPSMT-65" transform="translate(66.699219 0)"/>
      <use xlink:href="#TimesNewRomanPSMT-73" transform="translate(111.083984 0)"/>
      <use xlink:href="#TimesNewRomanPSMT-74" transform="translate(150 0)"/>
      <use xlink:href="#TimesNewRomanPSMT-20" transform="translate(177.783203 0)"/>
      <use xlink:href="#TimesNewRomanPSMT-61" transform="translate(202.783203 0)"/>
      <use xlink:href="#TimesNewRomanPSMT-63" transform="translate(247.167969 0)"/>
      <use xlink:href="#TimesNewRomanPSMT-63" transform="translate(291.552734 0)"/>
      <use xlink:href="#TimesNewRomanPSMT-75" transform="translate(335.9375 0)"/>
      <use xlink:href="#TimesNewRomanPSMT-72" transform="translate(385.9375 0)"/>
      <use xlink:href="#TimesNewRomanPSMT-61" transform="translate(419.238281 0)"/>
      <use xlink:href="#TimesNewRomanPSMT-63" transform="translate(463.623047 0)"/>
      <use xlink:href="#TimesNewRomanPSMT-79" transform="translate(508.007812 0)"/>
      <use xlink:href="#TimesNewRomanPSMT-20" transform="translate(558.007812 0)"/>
      <use xlink:href="#TimesNewRomanPSMT-30" transform="translate(583.007812 0)"/>
      <use xlink:href="#TimesNewRomanPSMT-2e" transform="translate(633.007812 0)"/>
      <use xlink:href="#TimesNewRomanPSMT-36" transform="translate(658.007812 0)"/>
     </g>
    </g>
   </g>
  </g>
 </g>
 <defs>
  <clipPath id="p458560cfcd">
   <rect x="347.214375" y="45.5315" width="357.12" height="266.112"/>
  </clipPath>
 </defs>
</svg>
