<?xml version="1.0" encoding="utf-8" standalone="no"?>
<!DOCTYPE svg PUBLIC "-//W3C//DTD SVG 1.1//EN"
  "http://www.w3.org/Graphics/SVG/1.1/DTD/svg11.dtd">
<svg xmlns:xlink="http://www.w3.org/1999/xlink" width="1083.249375pt" height="369.807875pt" viewBox="0 0 1083.249375 369.807875" xmlns="http://www.w3.org/2000/svg" version="1.1">
 <metadata>
  <rdf:RDF xmlns:dc="http://purl.org/dc/elements/1.1/" xmlns:cc="http://creativecommons.org/ns#" xmlns:rdf="http://www.w3.org/1999/02/22-rdf-syntax-ns#">
   <cc:Work>
    <dc:type rdf:resource="http://purl.org/dc/dcmitype/StillImage"/>
    <dc:date>2025-07-13T16:05:28.858122</dc:date>
    <dc:format>image/svg+xml</dc:format>
    <dc:creator>
     <cc:Agent>
      <dc:title>Matplotlib v3.10.3, https://matplotlib.org/</dc:title>
     </cc:Agent>
    </dc:creator>
   </cc:Work>
  </rdf:RDF>
 </metadata>
 <defs>
  <style type="text/css">*{stroke-linejoin: round; stroke-linecap: butt}</style>
 </defs>
 <g id="figure_1">
  <g id="patch_1">
   <path d="M -0 369.807875 
L 1083.249375 369.807875 
L 1083.249375 0 
L -0 0 
z
" style="fill: #ffffff"/>
  </g>
  <g id="axes_1">
   <g id="patch_2">
    <path d="M 363.064687 311.6435 
L 720.184688 311.6435 
L 720.184688 45.5315 
L 363.064687 45.5315 
z
" style="fill: #ffffff"/>
   </g>
   <g id="matplotlib.axis_1">
    <g id="xtick_1">
     <g id="line2d_1">
      <path d="M 363.064687 311.6435 
L 363.064687 45.5315 
" clip-path="url(#pb252fb38e1)" style="fill: none; stroke: #b0b0b0; stroke-opacity: 0.3; stroke-width: 0.8; stroke-linecap: square"/>
     </g>
     <g id="line2d_2">
      <defs>
       <path id="m7c0ee33355" d="M 0 0 
L 0 3.5 
" style="stroke: #000000; stroke-width: 0.8"/>
      </defs>
      <g>
       <use xlink:href="#m7c0ee33355" x="363.064687" y="311.6435" style="stroke: #000000; stroke-width: 0.8"/>
      </g>
     </g>
     <g id="text_1">
      <!-- 0 -->
      <g transform="translate(357.564687 333.91975) scale(0.22 -0.22)">
       <defs>
        <path id="TimesNewRomanPSMT-30" d="M 231 2094 
Q 231 2819 450 3342 
Q 669 3866 1031 4122 
Q 1313 4325 1613 4325 
Q 2100 4325 2488 3828 
Q 2972 3213 2972 2159 
Q 2972 1422 2759 906 
Q 2547 391 2217 158 
Q 1888 -75 1581 -75 
Q 975 -75 572 641 
Q 231 1244 231 2094 
z
M 844 2016 
Q 844 1141 1059 588 
Q 1238 122 1591 122 
Q 1759 122 1940 273 
Q 2122 425 2216 781 
Q 2359 1319 2359 2297 
Q 2359 3022 2209 3506 
Q 2097 3866 1919 4016 
Q 1791 4119 1609 4119 
Q 1397 4119 1231 3928 
Q 1006 3669 925 3112 
Q 844 2556 844 2016 
z
" transform="scale(0.015625)"/>
       </defs>
       <use xlink:href="#TimesNewRomanPSMT-30"/>
      </g>
     </g>
    </g>
    <g id="xtick_2">
     <g id="line2d_3">
      <path d="M 442.424688 311.6435 
L 442.424688 45.5315 
" clip-path="url(#pb252fb38e1)" style="fill: none; stroke: #b0b0b0; stroke-opacity: 0.3; stroke-width: 0.8; stroke-linecap: square"/>
     </g>
     <g id="line2d_4">
      <g>
       <use xlink:href="#m7c0ee33355" x="442.424688" y="311.6435" style="stroke: #000000; stroke-width: 0.8"/>
      </g>
     </g>
     <g id="text_2">
      <!-- 10000 -->
      <g transform="translate(414.924688 333.91975) scale(0.22 -0.22)">
       <defs>
        <path id="TimesNewRomanPSMT-31" d="M 750 3822 
L 1781 4325 
L 1884 4325 
L 1884 747 
Q 1884 391 1914 303 
Q 1944 216 2037 169 
Q 2131 122 2419 116 
L 2419 0 
L 825 0 
L 825 116 
Q 1125 122 1212 167 
Q 1300 213 1334 289 
Q 1369 366 1369 747 
L 1369 3034 
Q 1369 3497 1338 3628 
Q 1316 3728 1258 3775 
Q 1200 3822 1119 3822 
Q 1003 3822 797 3725 
L 750 3822 
z
" transform="scale(0.015625)"/>
       </defs>
       <use xlink:href="#TimesNewRomanPSMT-31"/>
       <use xlink:href="#TimesNewRomanPSMT-30" transform="translate(50 0)"/>
       <use xlink:href="#TimesNewRomanPSMT-30" transform="translate(100 0)"/>
       <use xlink:href="#TimesNewRomanPSMT-30" transform="translate(150 0)"/>
       <use xlink:href="#TimesNewRomanPSMT-30" transform="translate(200 0)"/>
      </g>
     </g>
    </g>
    <g id="xtick_3">
     <g id="line2d_5">
      <path d="M 521.784688 311.6435 
L 521.784688 45.5315 
" clip-path="url(#pb252fb38e1)" style="fill: none; stroke: #b0b0b0; stroke-opacity: 0.3; stroke-width: 0.8; stroke-linecap: square"/>
     </g>
     <g id="line2d_6">
      <g>
       <use xlink:href="#m7c0ee33355" x="521.784688" y="311.6435" style="stroke: #000000; stroke-width: 0.8"/>
      </g>
     </g>
     <g id="text_3">
      <!-- 20000 -->
      <g transform="translate(494.284688 333.91975) scale(0.22 -0.22)">
       <defs>
        <path id="TimesNewRomanPSMT-32" d="M 2934 816 
L 2638 0 
L 138 0 
L 138 116 
Q 1241 1122 1691 1759 
Q 2141 2397 2141 2925 
Q 2141 3328 1894 3587 
Q 1647 3847 1303 3847 
Q 991 3847 742 3664 
Q 494 3481 375 3128 
L 259 3128 
Q 338 3706 661 4015 
Q 984 4325 1469 4325 
Q 1984 4325 2329 3994 
Q 2675 3663 2675 3213 
Q 2675 2891 2525 2569 
Q 2294 2063 1775 1497 
Q 997 647 803 472 
L 1909 472 
Q 2247 472 2383 497 
Q 2519 522 2628 598 
Q 2738 675 2819 816 
L 2934 816 
z
" transform="scale(0.015625)"/>
       </defs>
       <use xlink:href="#TimesNewRomanPSMT-32"/>
       <use xlink:href="#TimesNewRomanPSMT-30" transform="translate(50 0)"/>
       <use xlink:href="#TimesNewRomanPSMT-30" transform="translate(100 0)"/>
       <use xlink:href="#TimesNewRomanPSMT-30" transform="translate(150 0)"/>
       <use xlink:href="#TimesNewRomanPSMT-30" transform="translate(200 0)"/>
      </g>
     </g>
    </g>
    <g id="xtick_4">
     <g id="line2d_7">
      <path d="M 601.144688 311.6435 
L 601.144688 45.5315 
" clip-path="url(#pb252fb38e1)" style="fill: none; stroke: #b0b0b0; stroke-opacity: 0.3; stroke-width: 0.8; stroke-linecap: square"/>
     </g>
     <g id="line2d_8">
      <g>
       <use xlink:href="#m7c0ee33355" x="601.144688" y="311.6435" style="stroke: #000000; stroke-width: 0.8"/>
      </g>
     </g>
     <g id="text_4">
      <!-- 30000 -->
      <g transform="translate(573.644688 333.91975) scale(0.22 -0.22)">
       <defs>
        <path id="TimesNewRomanPSMT-33" d="M 325 3431 
Q 506 3859 782 4092 
Q 1059 4325 1472 4325 
Q 1981 4325 2253 3994 
Q 2459 3747 2459 3466 
Q 2459 3003 1878 2509 
Q 2269 2356 2469 2072 
Q 2669 1788 2669 1403 
Q 2669 853 2319 450 
Q 1863 -75 997 -75 
Q 569 -75 414 31 
Q 259 138 259 259 
Q 259 350 332 419 
Q 406 488 509 488 
Q 588 488 669 463 
Q 722 447 909 348 
Q 1097 250 1169 231 
Q 1284 197 1416 197 
Q 1734 197 1970 444 
Q 2206 691 2206 1028 
Q 2206 1275 2097 1509 
Q 2016 1684 1919 1775 
Q 1784 1900 1550 2001 
Q 1316 2103 1072 2103 
L 972 2103 
L 972 2197 
Q 1219 2228 1467 2375 
Q 1716 2522 1828 2728 
Q 1941 2934 1941 3181 
Q 1941 3503 1739 3701 
Q 1538 3900 1238 3900 
Q 753 3900 428 3381 
L 325 3431 
z
" transform="scale(0.015625)"/>
       </defs>
       <use xlink:href="#TimesNewRomanPSMT-33"/>
       <use xlink:href="#TimesNewRomanPSMT-30" transform="translate(50 0)"/>
       <use xlink:href="#TimesNewRomanPSMT-30" transform="translate(100 0)"/>
       <use xlink:href="#TimesNewRomanPSMT-30" transform="translate(150 0)"/>
       <use xlink:href="#TimesNewRomanPSMT-30" transform="translate(200 0)"/>
      </g>
     </g>
    </g>
    <g id="xtick_5">
     <g id="line2d_9">
      <path d="M 680.504688 311.6435 
L 680.504688 45.5315 
" clip-path="url(#pb252fb38e1)" style="fill: none; stroke: #b0b0b0; stroke-opacity: 0.3; stroke-width: 0.8; stroke-linecap: square"/>
     </g>
     <g id="line2d_10">
      <g>
       <use xlink:href="#m7c0ee33355" x="680.504688" y="311.6435" style="stroke: #000000; stroke-width: 0.8"/>
      </g>
     </g>
     <g id="text_5">
      <!-- 40000 -->
      <g transform="translate(653.004688 333.91975) scale(0.22 -0.22)">
       <defs>
        <path id="TimesNewRomanPSMT-34" d="M 2978 1563 
L 2978 1119 
L 2409 1119 
L 2409 0 
L 1894 0 
L 1894 1119 
L 100 1119 
L 100 1519 
L 2066 4325 
L 2409 4325 
L 2409 1563 
L 2978 1563 
z
M 1894 1563 
L 1894 3666 
L 406 1563 
L 1894 1563 
z
" transform="scale(0.015625)"/>
       </defs>
       <use xlink:href="#TimesNewRomanPSMT-34"/>
       <use xlink:href="#TimesNewRomanPSMT-30" transform="translate(50 0)"/>
       <use xlink:href="#TimesNewRomanPSMT-30" transform="translate(100 0)"/>
       <use xlink:href="#TimesNewRomanPSMT-30" transform="translate(150 0)"/>
       <use xlink:href="#TimesNewRomanPSMT-30" transform="translate(200 0)"/>
      </g>
     </g>
    </g>
    <g id="text_6">
     <!-- Number of iterations -->
     <g transform="translate(449.982656 357.901937) scale(0.22 -0.22)">
      <defs>
       <path id="TimesNewRomanPSMT-4e" d="M -84 4238 
L 1066 4238 
L 3656 1059 
L 3656 3503 
Q 3656 3894 3569 3991 
Q 3453 4122 3203 4122 
L 3056 4122 
L 3056 4238 
L 4531 4238 
L 4531 4122 
L 4381 4122 
Q 4113 4122 4000 3959 
Q 3931 3859 3931 3503 
L 3931 -69 
L 3819 -69 
L 1025 3344 
L 1025 734 
Q 1025 344 1109 247 
Q 1228 116 1475 116 
L 1625 116 
L 1625 0 
L 150 0 
L 150 116 
L 297 116 
Q 569 116 681 278 
Q 750 378 750 734 
L 750 3681 
Q 566 3897 470 3965 
Q 375 4034 191 4094 
Q 100 4122 -84 4122 
L -84 4238 
z
" transform="scale(0.015625)"/>
       <path id="TimesNewRomanPSMT-75" d="M 2709 2863 
L 2709 1128 
Q 2709 631 2732 520 
Q 2756 409 2807 365 
Q 2859 322 2928 322 
Q 3025 322 3147 375 
L 3191 266 
L 2334 -88 
L 2194 -88 
L 2194 519 
Q 1825 119 1631 15 
Q 1438 -88 1222 -88 
Q 981 -88 804 51 
Q 628 191 559 409 
Q 491 628 491 1028 
L 491 2306 
Q 491 2509 447 2587 
Q 403 2666 317 2708 
Q 231 2750 6 2747 
L 6 2863 
L 1009 2863 
L 1009 947 
Q 1009 547 1148 422 
Q 1288 297 1484 297 
Q 1619 297 1789 381 
Q 1959 466 2194 703 
L 2194 2325 
Q 2194 2569 2105 2655 
Q 2016 2741 1734 2747 
L 1734 2863 
L 2709 2863 
z
" transform="scale(0.015625)"/>
       <path id="TimesNewRomanPSMT-6d" d="M 1050 2338 
Q 1363 2650 1419 2697 
Q 1559 2816 1721 2881 
Q 1884 2947 2044 2947 
Q 2313 2947 2506 2790 
Q 2700 2634 2766 2338 
Q 3088 2713 3309 2830 
Q 3531 2947 3766 2947 
Q 3994 2947 4170 2830 
Q 4347 2713 4450 2447 
Q 4519 2266 4519 1878 
L 4519 647 
Q 4519 378 4559 278 
Q 4591 209 4675 161 
Q 4759 113 4950 113 
L 4950 0 
L 3538 0 
L 3538 113 
L 3597 113 
Q 3781 113 3884 184 
Q 3956 234 3988 344 
Q 4000 397 4000 647 
L 4000 1878 
Q 4000 2228 3916 2372 
Q 3794 2572 3525 2572 
Q 3359 2572 3192 2489 
Q 3025 2406 2788 2181 
L 2781 2147 
L 2788 2013 
L 2788 647 
Q 2788 353 2820 281 
Q 2853 209 2943 161 
Q 3034 113 3253 113 
L 3253 0 
L 1806 0 
L 1806 113 
Q 2044 113 2133 169 
Q 2222 225 2256 338 
Q 2272 391 2272 647 
L 2272 1878 
Q 2272 2228 2169 2381 
Q 2031 2581 1784 2581 
Q 1616 2581 1450 2491 
Q 1191 2353 1050 2181 
L 1050 647 
Q 1050 366 1089 281 
Q 1128 197 1204 155 
Q 1281 113 1516 113 
L 1516 0 
L 100 0 
L 100 113 
Q 297 113 375 155 
Q 453 197 493 289 
Q 534 381 534 647 
L 534 1741 
Q 534 2213 506 2350 
Q 484 2453 437 2492 
Q 391 2531 309 2531 
Q 222 2531 100 2484 
L 53 2597 
L 916 2947 
L 1050 2947 
L 1050 2338 
z
" transform="scale(0.015625)"/>
       <path id="TimesNewRomanPSMT-62" d="M 984 2369 
Q 1400 2947 1881 2947 
Q 2322 2947 2650 2570 
Q 2978 2194 2978 1541 
Q 2978 778 2472 313 
Q 2038 -88 1503 -88 
Q 1253 -88 995 3 
Q 738 94 469 275 
L 469 3241 
Q 469 3728 445 3840 
Q 422 3953 372 3993 
Q 322 4034 247 4034 
Q 159 4034 28 3984 
L -16 4094 
L 844 4444 
L 984 4444 
L 984 2369 
z
M 984 2169 
L 984 456 
Q 1144 300 1314 220 
Q 1484 141 1663 141 
Q 1947 141 2192 453 
Q 2438 766 2438 1363 
Q 2438 1913 2192 2208 
Q 1947 2503 1634 2503 
Q 1469 2503 1303 2419 
Q 1178 2356 984 2169 
z
" transform="scale(0.015625)"/>
       <path id="TimesNewRomanPSMT-65" d="M 681 1784 
Q 678 1147 991 784 
Q 1303 422 1725 422 
Q 2006 422 2214 576 
Q 2422 731 2563 1106 
L 2659 1044 
Q 2594 616 2278 264 
Q 1963 -88 1488 -88 
Q 972 -88 605 314 
Q 238 716 238 1394 
Q 238 2128 614 2539 
Q 991 2950 1559 2950 
Q 2041 2950 2350 2633 
Q 2659 2316 2659 1784 
L 681 1784 
z
M 681 1966 
L 2006 1966 
Q 1991 2241 1941 2353 
Q 1863 2528 1708 2628 
Q 1553 2728 1384 2728 
Q 1125 2728 920 2526 
Q 716 2325 681 1966 
z
" transform="scale(0.015625)"/>
       <path id="TimesNewRomanPSMT-72" d="M 1038 2947 
L 1038 2303 
Q 1397 2947 1775 2947 
Q 1947 2947 2059 2842 
Q 2172 2738 2172 2600 
Q 2172 2478 2090 2393 
Q 2009 2309 1897 2309 
Q 1788 2309 1652 2417 
Q 1516 2525 1450 2525 
Q 1394 2525 1328 2463 
Q 1188 2334 1038 2041 
L 1038 669 
Q 1038 431 1097 309 
Q 1138 225 1241 169 
Q 1344 113 1538 113 
L 1538 0 
L 72 0 
L 72 113 
Q 291 113 397 181 
Q 475 231 506 341 
Q 522 394 522 644 
L 522 1753 
Q 522 2253 501 2348 
Q 481 2444 426 2487 
Q 372 2531 291 2531 
Q 194 2531 72 2484 
L 41 2597 
L 906 2947 
L 1038 2947 
z
" transform="scale(0.015625)"/>
       <path id="TimesNewRomanPSMT-20" transform="scale(0.015625)"/>
       <path id="TimesNewRomanPSMT-6f" d="M 1600 2947 
Q 2250 2947 2644 2453 
Q 2978 2031 2978 1484 
Q 2978 1100 2793 706 
Q 2609 313 2286 112 
Q 1963 -88 1566 -88 
Q 919 -88 538 428 
Q 216 863 216 1403 
Q 216 1797 411 2186 
Q 606 2575 925 2761 
Q 1244 2947 1600 2947 
z
M 1503 2744 
Q 1338 2744 1170 2645 
Q 1003 2547 900 2300 
Q 797 2053 797 1666 
Q 797 1041 1045 587 
Q 1294 134 1700 134 
Q 2003 134 2200 384 
Q 2397 634 2397 1244 
Q 2397 2006 2069 2444 
Q 1847 2744 1503 2744 
z
" transform="scale(0.015625)"/>
       <path id="TimesNewRomanPSMT-66" d="M 1319 2638 
L 1319 756 
Q 1319 356 1406 250 
Q 1522 113 1716 113 
L 1975 113 
L 1975 0 
L 266 0 
L 266 113 
L 394 113 
Q 519 113 622 175 
Q 725 238 764 344 
Q 803 450 803 756 
L 803 2638 
L 247 2638 
L 247 2863 
L 803 2863 
L 803 3050 
Q 803 3478 940 3775 
Q 1078 4072 1361 4255 
Q 1644 4438 1997 4438 
Q 2325 4438 2600 4225 
Q 2781 4084 2781 3909 
Q 2781 3816 2700 3733 
Q 2619 3650 2525 3650 
Q 2453 3650 2373 3701 
Q 2294 3753 2178 3923 
Q 2063 4094 1966 4153 
Q 1869 4213 1750 4213 
Q 1606 4213 1506 4136 
Q 1406 4059 1362 3898 
Q 1319 3738 1319 3069 
L 1319 2863 
L 2056 2863 
L 2056 2638 
L 1319 2638 
z
" transform="scale(0.015625)"/>
       <path id="TimesNewRomanPSMT-69" d="M 928 4444 
Q 1059 4444 1151 4351 
Q 1244 4259 1244 4128 
Q 1244 3997 1151 3903 
Q 1059 3809 928 3809 
Q 797 3809 703 3903 
Q 609 3997 609 4128 
Q 609 4259 701 4351 
Q 794 4444 928 4444 
z
M 1188 2947 
L 1188 647 
Q 1188 378 1227 289 
Q 1266 200 1342 156 
Q 1419 113 1622 113 
L 1622 0 
L 231 0 
L 231 113 
Q 441 113 512 153 
Q 584 194 626 287 
Q 669 381 669 647 
L 669 1750 
Q 669 2216 641 2353 
Q 619 2453 572 2492 
Q 525 2531 444 2531 
Q 356 2531 231 2484 
L 188 2597 
L 1050 2947 
L 1188 2947 
z
" transform="scale(0.015625)"/>
       <path id="TimesNewRomanPSMT-74" d="M 1031 3803 
L 1031 2863 
L 1700 2863 
L 1700 2644 
L 1031 2644 
L 1031 788 
Q 1031 509 1111 412 
Q 1191 316 1316 316 
Q 1419 316 1516 380 
Q 1613 444 1666 569 
L 1788 569 
Q 1678 263 1478 108 
Q 1278 -47 1066 -47 
Q 922 -47 784 33 
Q 647 113 581 261 
Q 516 409 516 719 
L 516 2644 
L 63 2644 
L 63 2747 
Q 234 2816 414 2980 
Q 594 3144 734 3369 
Q 806 3488 934 3803 
L 1031 3803 
z
" transform="scale(0.015625)"/>
       <path id="TimesNewRomanPSMT-61" d="M 1822 413 
Q 1381 72 1269 19 
Q 1100 -59 909 -59 
Q 613 -59 420 144 
Q 228 347 228 678 
Q 228 888 322 1041 
Q 450 1253 767 1440 
Q 1084 1628 1822 1897 
L 1822 2009 
Q 1822 2438 1686 2597 
Q 1550 2756 1291 2756 
Q 1094 2756 978 2650 
Q 859 2544 859 2406 
L 866 2225 
Q 866 2081 792 2003 
Q 719 1925 600 1925 
Q 484 1925 411 2006 
Q 338 2088 338 2228 
Q 338 2497 613 2722 
Q 888 2947 1384 2947 
Q 1766 2947 2009 2819 
Q 2194 2722 2281 2516 
Q 2338 2381 2338 1966 
L 2338 994 
Q 2338 584 2353 492 
Q 2369 400 2405 369 
Q 2441 338 2488 338 
Q 2538 338 2575 359 
Q 2641 400 2828 588 
L 2828 413 
Q 2478 -56 2159 -56 
Q 2006 -56 1915 50 
Q 1825 156 1822 413 
z
M 1822 616 
L 1822 1706 
Q 1350 1519 1213 1441 
Q 966 1303 859 1153 
Q 753 1003 753 825 
Q 753 600 887 451 
Q 1022 303 1197 303 
Q 1434 303 1822 616 
z
" transform="scale(0.015625)"/>
       <path id="TimesNewRomanPSMT-6e" d="M 1034 2341 
Q 1538 2947 1994 2947 
Q 2228 2947 2397 2830 
Q 2566 2713 2666 2444 
Q 2734 2256 2734 1869 
L 2734 647 
Q 2734 375 2778 278 
Q 2813 200 2889 156 
Q 2966 113 3172 113 
L 3172 0 
L 1756 0 
L 1756 113 
L 1816 113 
Q 2016 113 2095 173 
Q 2175 234 2206 353 
Q 2219 400 2219 647 
L 2219 1819 
Q 2219 2209 2117 2386 
Q 2016 2563 1775 2563 
Q 1403 2563 1034 2156 
L 1034 647 
Q 1034 356 1069 288 
Q 1113 197 1189 155 
Q 1266 113 1500 113 
L 1500 0 
L 84 0 
L 84 113 
L 147 113 
Q 366 113 442 223 
Q 519 334 519 647 
L 519 1709 
Q 519 2225 495 2337 
Q 472 2450 423 2490 
Q 375 2531 294 2531 
Q 206 2531 84 2484 
L 38 2597 
L 900 2947 
L 1034 2947 
L 1034 2341 
z
" transform="scale(0.015625)"/>
       <path id="TimesNewRomanPSMT-73" d="M 2050 2947 
L 2050 1972 
L 1947 1972 
Q 1828 2431 1642 2597 
Q 1456 2763 1169 2763 
Q 950 2763 815 2647 
Q 681 2531 681 2391 
Q 681 2216 781 2091 
Q 878 1963 1175 1819 
L 1631 1597 
Q 2266 1288 2266 781 
Q 2266 391 1970 151 
Q 1675 -88 1309 -88 
Q 1047 -88 709 6 
Q 606 38 541 38 
Q 469 38 428 -44 
L 325 -44 
L 325 978 
L 428 978 
Q 516 541 762 319 
Q 1009 97 1316 97 
Q 1531 97 1667 223 
Q 1803 350 1803 528 
Q 1803 744 1651 891 
Q 1500 1038 1047 1263 
Q 594 1488 453 1669 
Q 313 1847 313 2119 
Q 313 2472 555 2709 
Q 797 2947 1181 2947 
Q 1350 2947 1591 2875 
Q 1750 2828 1803 2828 
Q 1853 2828 1881 2850 
Q 1909 2872 1947 2947 
L 2050 2947 
z
" transform="scale(0.015625)"/>
      </defs>
      <use xlink:href="#TimesNewRomanPSMT-4e"/>
      <use xlink:href="#TimesNewRomanPSMT-75" transform="translate(72.216797 0)"/>
      <use xlink:href="#TimesNewRomanPSMT-6d" transform="translate(122.216797 0)"/>
      <use xlink:href="#TimesNewRomanPSMT-62" transform="translate(200 0)"/>
      <use xlink:href="#TimesNewRomanPSMT-65" transform="translate(250 0)"/>
      <use xlink:href="#TimesNewRomanPSMT-72" transform="translate(294.384766 0)"/>
      <use xlink:href="#TimesNewRomanPSMT-20" transform="translate(327.685547 0)"/>
      <use xlink:href="#TimesNewRomanPSMT-6f" transform="translate(352.685547 0)"/>
      <use xlink:href="#TimesNewRomanPSMT-66" transform="translate(402.685547 0)"/>
      <use xlink:href="#TimesNewRomanPSMT-20" transform="translate(435.986328 0)"/>
      <use xlink:href="#TimesNewRomanPSMT-69" transform="translate(460.986328 0)"/>
      <use xlink:href="#TimesNewRomanPSMT-74" transform="translate(488.769531 0)"/>
      <use xlink:href="#TimesNewRomanPSMT-65" transform="translate(516.552734 0)"/>
      <use xlink:href="#TimesNewRomanPSMT-72" transform="translate(560.9375 0)"/>
      <use xlink:href="#TimesNewRomanPSMT-61" transform="translate(594.238281 0)"/>
      <use xlink:href="#TimesNewRomanPSMT-74" transform="translate(638.623047 0)"/>
      <use xlink:href="#TimesNewRomanPSMT-69" transform="translate(666.40625 0)"/>
      <use xlink:href="#TimesNewRomanPSMT-6f" transform="translate(694.189453 0)"/>
      <use xlink:href="#TimesNewRomanPSMT-6e" transform="translate(744.189453 0)"/>
      <use xlink:href="#TimesNewRomanPSMT-73" transform="translate(794.189453 0)"/>
     </g>
    </g>
   </g>
   <g id="matplotlib.axis_2">
    <g id="ytick_1">
     <g id="line2d_11">
      <path d="M 363.064687 311.6435 
L 720.184688 311.6435 
" clip-path="url(#pb252fb38e1)" style="fill: none; stroke: #b0b0b0; stroke-opacity: 0.3; stroke-width: 0.8; stroke-linecap: square"/>
     </g>
     <g id="line2d_12">
      <defs>
       <path id="m1e77c4fdf6" d="M 0 0 
L -3.5 0 
" style="stroke: #000000; stroke-width: 0.8"/>
      </defs>
      <g>
       <use xlink:href="#m1e77c4fdf6" x="363.064687" y="311.6435" style="stroke: #000000; stroke-width: 0.8"/>
      </g>
     </g>
     <g id="text_7">
      <!-- 0.0 -->
      <g transform="translate(328.564687 319.281625) scale(0.22 -0.22)">
       <defs>
        <path id="TimesNewRomanPSMT-2e" d="M 800 606 
Q 947 606 1047 504 
Q 1147 403 1147 259 
Q 1147 116 1045 14 
Q 944 -88 800 -88 
Q 656 -88 554 14 
Q 453 116 453 259 
Q 453 406 554 506 
Q 656 606 800 606 
z
" transform="scale(0.015625)"/>
       </defs>
       <use xlink:href="#TimesNewRomanPSMT-30"/>
       <use xlink:href="#TimesNewRomanPSMT-2e" transform="translate(50 0)"/>
       <use xlink:href="#TimesNewRomanPSMT-30" transform="translate(75 0)"/>
      </g>
     </g>
    </g>
    <g id="ytick_2">
     <g id="line2d_13">
      <path d="M 363.064687 285.0323 
L 720.184688 285.0323 
" clip-path="url(#pb252fb38e1)" style="fill: none; stroke: #b0b0b0; stroke-opacity: 0.3; stroke-width: 0.8; stroke-linecap: square"/>
     </g>
     <g id="line2d_14">
      <g>
       <use xlink:href="#m1e77c4fdf6" x="363.064687" y="285.0323" style="stroke: #000000; stroke-width: 0.8"/>
      </g>
     </g>
     <g id="text_8">
      <!-- 0.1 -->
      <g transform="translate(328.564687 292.670425) scale(0.22 -0.22)">
       <use xlink:href="#TimesNewRomanPSMT-30"/>
       <use xlink:href="#TimesNewRomanPSMT-2e" transform="translate(50 0)"/>
       <use xlink:href="#TimesNewRomanPSMT-31" transform="translate(75 0)"/>
      </g>
     </g>
    </g>
    <g id="ytick_3">
     <g id="line2d_15">
      <path d="M 363.064687 258.4211 
L 720.184688 258.4211 
" clip-path="url(#pb252fb38e1)" style="fill: none; stroke: #b0b0b0; stroke-opacity: 0.3; stroke-width: 0.8; stroke-linecap: square"/>
     </g>
     <g id="line2d_16">
      <g>
       <use xlink:href="#m1e77c4fdf6" x="363.064687" y="258.4211" style="stroke: #000000; stroke-width: 0.8"/>
      </g>
     </g>
     <g id="text_9">
      <!-- 0.2 -->
      <g transform="translate(328.564687 266.059225) scale(0.22 -0.22)">
       <use xlink:href="#TimesNewRomanPSMT-30"/>
       <use xlink:href="#TimesNewRomanPSMT-2e" transform="translate(50 0)"/>
       <use xlink:href="#TimesNewRomanPSMT-32" transform="translate(75 0)"/>
      </g>
     </g>
    </g>
    <g id="ytick_4">
     <g id="line2d_17">
      <path d="M 363.064687 231.8099 
L 720.184688 231.8099 
" clip-path="url(#pb252fb38e1)" style="fill: none; stroke: #b0b0b0; stroke-opacity: 0.3; stroke-width: 0.8; stroke-linecap: square"/>
     </g>
     <g id="line2d_18">
      <g>
       <use xlink:href="#m1e77c4fdf6" x="363.064687" y="231.8099" style="stroke: #000000; stroke-width: 0.8"/>
      </g>
     </g>
     <g id="text_10">
      <!-- 0.3 -->
      <g transform="translate(328.564687 239.448025) scale(0.22 -0.22)">
       <use xlink:href="#TimesNewRomanPSMT-30"/>
       <use xlink:href="#TimesNewRomanPSMT-2e" transform="translate(50 0)"/>
       <use xlink:href="#TimesNewRomanPSMT-33" transform="translate(75 0)"/>
      </g>
     </g>
    </g>
    <g id="ytick_5">
     <g id="line2d_19">
      <path d="M 363.064687 205.1987 
L 720.184688 205.1987 
" clip-path="url(#pb252fb38e1)" style="fill: none; stroke: #b0b0b0; stroke-opacity: 0.3; stroke-width: 0.8; stroke-linecap: square"/>
     </g>
     <g id="line2d_20">
      <g>
       <use xlink:href="#m1e77c4fdf6" x="363.064687" y="205.1987" style="stroke: #000000; stroke-width: 0.8"/>
      </g>
     </g>
     <g id="text_11">
      <!-- 0.4 -->
      <g transform="translate(328.564687 212.836825) scale(0.22 -0.22)">
       <use xlink:href="#TimesNewRomanPSMT-30"/>
       <use xlink:href="#TimesNewRomanPSMT-2e" transform="translate(50 0)"/>
       <use xlink:href="#TimesNewRomanPSMT-34" transform="translate(75 0)"/>
      </g>
     </g>
    </g>
    <g id="ytick_6">
     <g id="line2d_21">
      <path d="M 363.064687 178.5875 
L 720.184688 178.5875 
" clip-path="url(#pb252fb38e1)" style="fill: none; stroke: #b0b0b0; stroke-opacity: 0.3; stroke-width: 0.8; stroke-linecap: square"/>
     </g>
     <g id="line2d_22">
      <g>
       <use xlink:href="#m1e77c4fdf6" x="363.064687" y="178.5875" style="stroke: #000000; stroke-width: 0.8"/>
      </g>
     </g>
     <g id="text_12">
      <!-- 0.5 -->
      <g transform="translate(328.564687 186.225625) scale(0.22 -0.22)">
       <defs>
        <path id="TimesNewRomanPSMT-35" d="M 2778 4238 
L 2534 3706 
L 1259 3706 
L 981 3138 
Q 1809 3016 2294 2522 
Q 2709 2097 2709 1522 
Q 2709 1188 2573 903 
Q 2438 619 2231 419 
Q 2025 219 1772 97 
Q 1413 -75 1034 -75 
Q 653 -75 479 54 
Q 306 184 306 341 
Q 306 428 378 495 
Q 450 563 559 563 
Q 641 563 702 538 
Q 763 513 909 409 
Q 1144 247 1384 247 
Q 1750 247 2026 523 
Q 2303 800 2303 1197 
Q 2303 1581 2056 1914 
Q 1809 2247 1375 2428 
Q 1034 2569 447 2591 
L 1259 4238 
L 2778 4238 
z
" transform="scale(0.015625)"/>
       </defs>
       <use xlink:href="#TimesNewRomanPSMT-30"/>
       <use xlink:href="#TimesNewRomanPSMT-2e" transform="translate(50 0)"/>
       <use xlink:href="#TimesNewRomanPSMT-35" transform="translate(75 0)"/>
      </g>
     </g>
    </g>
    <g id="ytick_7">
     <g id="line2d_23">
      <path d="M 363.064687 151.9763 
L 720.184688 151.9763 
" clip-path="url(#pb252fb38e1)" style="fill: none; stroke: #b0b0b0; stroke-opacity: 0.3; stroke-width: 0.8; stroke-linecap: square"/>
     </g>
     <g id="line2d_24">
      <g>
       <use xlink:href="#m1e77c4fdf6" x="363.064687" y="151.9763" style="stroke: #000000; stroke-width: 0.8"/>
      </g>
     </g>
     <g id="text_13">
      <!-- 0.6 -->
      <g transform="translate(328.564687 159.614425) scale(0.22 -0.22)">
       <defs>
        <path id="TimesNewRomanPSMT-36" d="M 2869 4325 
L 2869 4209 
Q 2456 4169 2195 4045 
Q 1934 3922 1679 3669 
Q 1425 3416 1258 3105 
Q 1091 2794 978 2366 
Q 1428 2675 1881 2675 
Q 2316 2675 2634 2325 
Q 2953 1975 2953 1425 
Q 2953 894 2631 456 
Q 2244 -75 1606 -75 
Q 1172 -75 869 213 
Q 275 772 275 1663 
Q 275 2231 503 2743 
Q 731 3256 1154 3653 
Q 1578 4050 1965 4187 
Q 2353 4325 2688 4325 
L 2869 4325 
z
M 925 2138 
Q 869 1716 869 1456 
Q 869 1156 980 804 
Q 1091 453 1309 247 
Q 1469 100 1697 100 
Q 1969 100 2183 356 
Q 2397 613 2397 1088 
Q 2397 1622 2184 2012 
Q 1972 2403 1581 2403 
Q 1463 2403 1327 2353 
Q 1191 2303 925 2138 
z
" transform="scale(0.015625)"/>
       </defs>
       <use xlink:href="#TimesNewRomanPSMT-30"/>
       <use xlink:href="#TimesNewRomanPSMT-2e" transform="translate(50 0)"/>
       <use xlink:href="#TimesNewRomanPSMT-36" transform="translate(75 0)"/>
      </g>
     </g>
    </g>
    <g id="ytick_8">
     <g id="line2d_25">
      <path d="M 363.064687 125.3651 
L 720.184688 125.3651 
" clip-path="url(#pb252fb38e1)" style="fill: none; stroke: #b0b0b0; stroke-opacity: 0.3; stroke-width: 0.8; stroke-linecap: square"/>
     </g>
     <g id="line2d_26">
      <g>
       <use xlink:href="#m1e77c4fdf6" x="363.064687" y="125.3651" style="stroke: #000000; stroke-width: 0.8"/>
      </g>
     </g>
     <g id="text_14">
      <!-- 0.7 -->
      <g transform="translate(328.564687 133.003225) scale(0.22 -0.22)">
       <defs>
        <path id="TimesNewRomanPSMT-37" d="M 644 4238 
L 2916 4238 
L 2916 4119 
L 1503 -88 
L 1153 -88 
L 2419 3728 
L 1253 3728 
Q 900 3728 750 3644 
Q 488 3500 328 3200 
L 238 3234 
L 644 4238 
z
" transform="scale(0.015625)"/>
       </defs>
       <use xlink:href="#TimesNewRomanPSMT-30"/>
       <use xlink:href="#TimesNewRomanPSMT-2e" transform="translate(50 0)"/>
       <use xlink:href="#TimesNewRomanPSMT-37" transform="translate(75 0)"/>
      </g>
     </g>
    </g>
    <g id="ytick_9">
     <g id="line2d_27">
      <path d="M 363.064687 98.7539 
L 720.184688 98.7539 
" clip-path="url(#pb252fb38e1)" style="fill: none; stroke: #b0b0b0; stroke-opacity: 0.3; stroke-width: 0.8; stroke-linecap: square"/>
     </g>
     <g id="line2d_28">
      <g>
       <use xlink:href="#m1e77c4fdf6" x="363.064687" y="98.7539" style="stroke: #000000; stroke-width: 0.8"/>
      </g>
     </g>
     <g id="text_15">
      <!-- 0.8 -->
      <g transform="translate(328.564687 106.392025) scale(0.22 -0.22)">
       <defs>
        <path id="TimesNewRomanPSMT-38" d="M 1228 2134 
Q 725 2547 579 2797 
Q 434 3047 434 3316 
Q 434 3728 753 4026 
Q 1072 4325 1600 4325 
Q 2113 4325 2425 4047 
Q 2738 3769 2738 3413 
Q 2738 3175 2569 2928 
Q 2400 2681 1866 2347 
Q 2416 1922 2594 1678 
Q 2831 1359 2831 1006 
Q 2831 559 2490 242 
Q 2150 -75 1597 -75 
Q 994 -75 656 303 
Q 388 606 388 966 
Q 388 1247 577 1523 
Q 766 1800 1228 2134 
z
M 1719 2469 
Q 2094 2806 2194 3001 
Q 2294 3197 2294 3444 
Q 2294 3772 2109 3958 
Q 1925 4144 1606 4144 
Q 1288 4144 1088 3959 
Q 888 3775 888 3528 
Q 888 3366 970 3203 
Q 1053 3041 1206 2894 
L 1719 2469 
z
M 1375 2016 
Q 1116 1797 991 1539 
Q 866 1281 866 981 
Q 866 578 1086 336 
Q 1306 94 1647 94 
Q 1984 94 2187 284 
Q 2391 475 2391 747 
Q 2391 972 2272 1150 
Q 2050 1481 1375 2016 
z
" transform="scale(0.015625)"/>
       </defs>
       <use xlink:href="#TimesNewRomanPSMT-30"/>
       <use xlink:href="#TimesNewRomanPSMT-2e" transform="translate(50 0)"/>
       <use xlink:href="#TimesNewRomanPSMT-38" transform="translate(75 0)"/>
      </g>
     </g>
    </g>
    <g id="ytick_10">
     <g id="line2d_29">
      <path d="M 363.064687 72.1427 
L 720.184688 72.1427 
" clip-path="url(#pb252fb38e1)" style="fill: none; stroke: #b0b0b0; stroke-opacity: 0.3; stroke-width: 0.8; stroke-linecap: square"/>
     </g>
     <g id="line2d_30">
      <g>
       <use xlink:href="#m1e77c4fdf6" x="363.064687" y="72.1427" style="stroke: #000000; stroke-width: 0.8"/>
      </g>
     </g>
     <g id="text_16">
      <!-- 0.9 -->
      <g transform="translate(328.564687 79.780825) scale(0.22 -0.22)">
       <defs>
        <path id="TimesNewRomanPSMT-39" d="M 338 -88 
L 338 28 
Q 744 34 1094 217 
Q 1444 400 1770 856 
Q 2097 1313 2225 1859 
Q 1734 1544 1338 1544 
Q 891 1544 572 1889 
Q 253 2234 253 2806 
Q 253 3363 572 3797 
Q 956 4325 1575 4325 
Q 2097 4325 2469 3894 
Q 2925 3359 2925 2575 
Q 2925 1869 2578 1258 
Q 2231 647 1613 244 
Q 1109 -88 516 -88 
L 338 -88 
z
M 2275 2091 
Q 2331 2497 2331 2741 
Q 2331 3044 2228 3395 
Q 2125 3747 1936 3934 
Q 1747 4122 1506 4122 
Q 1228 4122 1018 3872 
Q 809 3622 809 3128 
Q 809 2469 1088 2097 
Q 1291 1828 1588 1828 
Q 1731 1828 1928 1897 
Q 2125 1966 2275 2091 
z
" transform="scale(0.015625)"/>
       </defs>
       <use xlink:href="#TimesNewRomanPSMT-30"/>
       <use xlink:href="#TimesNewRomanPSMT-2e" transform="translate(50 0)"/>
       <use xlink:href="#TimesNewRomanPSMT-39" transform="translate(75 0)"/>
      </g>
     </g>
    </g>
    <g id="ytick_11">
     <g id="line2d_31">
      <path d="M 363.064687 45.5315 
L 720.184688 45.5315 
" clip-path="url(#pb252fb38e1)" style="fill: none; stroke: #b0b0b0; stroke-opacity: 0.3; stroke-width: 0.8; stroke-linecap: square"/>
     </g>
     <g id="line2d_32">
      <g>
       <use xlink:href="#m1e77c4fdf6" x="363.064687" y="45.5315" style="stroke: #000000; stroke-width: 0.8"/>
      </g>
     </g>
     <g id="text_17">
      <!-- 1.0 -->
      <g transform="translate(328.564687 53.169625) scale(0.22 -0.22)">
       <use xlink:href="#TimesNewRomanPSMT-31"/>
       <use xlink:href="#TimesNewRomanPSMT-2e" transform="translate(50 0)"/>
       <use xlink:href="#TimesNewRomanPSMT-30" transform="translate(75 0)"/>
      </g>
     </g>
    </g>
    <g id="text_18">
     <!-- Accuracy -->
     <g transform="translate(319.8175 220.726094) rotate(-90) scale(0.22 -0.22)">
      <defs>
       <path id="TimesNewRomanPSMT-41" d="M 2928 1419 
L 1288 1419 
L 1000 750 
Q 894 503 894 381 
Q 894 284 986 211 
Q 1078 138 1384 116 
L 1384 0 
L 50 0 
L 50 116 
Q 316 163 394 238 
Q 553 388 747 847 
L 2238 4334 
L 2347 4334 
L 3822 809 
Q 4000 384 4145 257 
Q 4291 131 4550 116 
L 4550 0 
L 2878 0 
L 2878 116 
Q 3131 128 3220 200 
Q 3309 272 3309 375 
Q 3309 513 3184 809 
L 2928 1419 
z
M 2841 1650 
L 2122 3363 
L 1384 1650 
L 2841 1650 
z
" transform="scale(0.015625)"/>
       <path id="TimesNewRomanPSMT-63" d="M 2631 1088 
Q 2516 522 2178 217 
Q 1841 -88 1431 -88 
Q 944 -88 581 321 
Q 219 731 219 1428 
Q 219 2103 620 2525 
Q 1022 2947 1584 2947 
Q 2006 2947 2278 2723 
Q 2550 2500 2550 2259 
Q 2550 2141 2473 2067 
Q 2397 1994 2259 1994 
Q 2075 1994 1981 2113 
Q 1928 2178 1911 2362 
Q 1894 2547 1784 2644 
Q 1675 2738 1481 2738 
Q 1169 2738 978 2506 
Q 725 2200 725 1697 
Q 725 1184 976 792 
Q 1228 400 1656 400 
Q 1963 400 2206 609 
Q 2378 753 2541 1131 
L 2631 1088 
z
" transform="scale(0.015625)"/>
       <path id="TimesNewRomanPSMT-79" d="M 38 2863 
L 1372 2863 
L 1372 2747 
L 1306 2747 
Q 1166 2747 1095 2686 
Q 1025 2625 1025 2534 
Q 1025 2413 1128 2197 
L 1825 753 
L 2466 2334 
Q 2519 2463 2519 2588 
Q 2519 2644 2497 2672 
Q 2472 2706 2419 2726 
Q 2366 2747 2231 2747 
L 2231 2863 
L 3163 2863 
L 3163 2747 
Q 3047 2734 2984 2696 
Q 2922 2659 2847 2556 
Q 2819 2513 2741 2316 
L 1575 -541 
Q 1406 -956 1132 -1168 
Q 859 -1381 606 -1381 
Q 422 -1381 303 -1275 
Q 184 -1169 184 -1031 
Q 184 -900 270 -820 
Q 356 -741 506 -741 
Q 609 -741 788 -809 
Q 913 -856 944 -856 
Q 1038 -856 1148 -759 
Q 1259 -663 1372 -384 
L 1575 113 
L 547 2272 
Q 500 2369 397 2513 
Q 319 2622 269 2659 
Q 197 2709 38 2747 
L 38 2863 
z
" transform="scale(0.015625)"/>
      </defs>
      <use xlink:href="#TimesNewRomanPSMT-41"/>
      <use xlink:href="#TimesNewRomanPSMT-63" transform="translate(72.216797 0)"/>
      <use xlink:href="#TimesNewRomanPSMT-63" transform="translate(116.601562 0)"/>
      <use xlink:href="#TimesNewRomanPSMT-75" transform="translate(160.986328 0)"/>
      <use xlink:href="#TimesNewRomanPSMT-72" transform="translate(210.986328 0)"/>
      <use xlink:href="#TimesNewRomanPSMT-61" transform="translate(244.287109 0)"/>
      <use xlink:href="#TimesNewRomanPSMT-63" transform="translate(288.671875 0)"/>
      <use xlink:href="#TimesNewRomanPSMT-79" transform="translate(333.056641 0)"/>
     </g>
    </g>
   </g>
   <g id="line2d_33">
    <path d="M 363.064687 178.5875 
L 363.223443 113.419625 
L 364.017219 92.840297 
L 364.414107 88.641644 
L 364.493485 88.360753 
L 364.572863 87.473698 
L 364.731618 88.434667 
L 364.810996 86.911915 
L 364.890373 86.956263 
L 364.969751 86.09879 
L 365.049128 86.379682 
L 365.207884 86.069224 
L 365.366639 86.512744 
L 365.604772 85.211751 
L 365.68415 85.270883 
L 365.763527 84.620386 
L 365.842905 85.522224 
L 365.922283 84.162084 
L 366.081038 85.123053 
L 366.160415 85.049123 
L 366.319171 84.383843 
L 366.398548 85.389162 
L 366.557304 84.339495 
L 366.636681 84.664751 
L 366.716059 84.236014 
L 366.795437 85.137836 
L 366.874814 84.827363 
L 366.954192 85.537007 
L 367.112947 84.457774 
L 367.192325 84.59082 
L 367.271702 84.457774 
L 367.430458 85.596139 
L 367.509835 84.442991 
L 367.668591 85.55179 
L 367.827346 84.162084 
L 367.906724 84.989991 
L 367.986101 83.644649 
L 368.065479 84.48734 
L 368.144856 83.895975 
L 368.224234 84.960425 
L 368.303612 84.827363 
L 368.382989 84.694317 
L 368.541745 84.738666 
L 368.621122 84.620386 
L 368.7005 83.925541 
L 368.779878 84.383843 
L 368.859255 84.117735 
L 368.938633 84.369061 
L 369.01801 85.063906 
L 369.176766 83.703781 
L 369.256143 84.250797 
L 369.335521 83.881192 
L 369.414899 84.295146 
L 369.494276 84.04382 
L 369.573654 84.176867 
L 369.653032 84.768231 
L 369.732409 84.694317 
L 369.891164 84.073386 
L 369.970542 83.866409 
L 370.04992 83.984689 
L 370.208675 85.581356 
L 370.36743 83.570735 
L 370.446808 84.280363 
L 370.526186 83.851626 
L 370.605563 84.04382 
L 370.684941 85.03434 
L 370.843696 84.058603 
L 371.002451 85.418728 
L 371.081829 84.398626 
L 371.161207 84.635185 
L 371.240584 84.014254 
L 371.319962 84.206448 
L 371.39934 84.7091 
L 371.478717 83.585518 
L 371.558095 84.324712 
L 371.637473 84.029037 
L 371.796228 84.945642 
L 371.954983 83.999471 
L 372.034361 84.147301 
L 372.113738 86.143139 
L 372.272494 83.82206 
L 372.590004 84.783014 
L 372.74876 84.236014 
L 372.907515 84.26558 
L 372.986892 84.516906 
L 373.145648 84.280363 
L 373.225025 84.250797 
L 373.304403 84.916077 
L 373.383781 84.797797 
L 373.463158 84.058603 
L 373.542536 84.783014 
L 373.701291 84.309929 
L 373.860046 85.226534 
L 373.939424 84.19165 
L 374.018802 84.428208 
L 374.098179 84.605603 
L 374.177557 84.354278 
L 374.256935 84.383843 
L 374.336312 84.546472 
L 374.495068 84.088169 
L 374.653823 84.989991 
L 375.050711 84.309929 
L 375.130089 85.537007 
L 375.209466 84.354278 
L 375.288844 84.546472 
L 375.368222 85.566573 
L 375.447599 84.295146 
L 375.606355 85.714402 
L 375.76511 84.649968 
L 375.844487 84.7091 
L 375.923865 84.576037 
L 376.003243 85.211751 
L 376.08262 84.132518 
L 376.241376 84.783014 
L 376.320753 84.48734 
L 376.479509 85.10827 
L 376.558886 84.649968 
L 376.638264 84.989991 
L 376.717641 84.679534 
L 376.797019 85.788333 
L 376.876397 84.576037 
L 376.955774 85.344813 
L 377.035152 84.81258 
L 377.11453 85.300464 
L 377.273285 84.309929 
L 377.352663 85.344813 
L 377.43204 84.649968 
L 377.511418 85.699619 
L 377.590796 84.871728 
L 377.670173 84.916077 
L 377.749551 84.664751 
L 377.828928 84.753448 
L 377.987684 84.960425 
L 378.067061 85.418728 
L 378.146439 84.81258 
L 378.225817 85.093488 
L 378.305194 84.502123 
L 378.384572 85.137836 
L 378.46395 84.620386 
L 378.543327 85.610922 
L 378.622705 84.576037 
L 378.702082 84.738666 
L 378.78146 85.537007 
L 378.860838 84.442991 
L 378.940215 84.753448 
L 379.019593 84.975208 
L 379.337104 84.309929 
L 379.495859 85.167402 
L 379.575237 84.576037 
L 379.654614 84.975208 
L 379.733992 84.620386 
L 379.813369 84.753448 
L 379.892747 84.679534 
L 379.972125 84.797797 
L 380.051502 84.664751 
L 380.13088 84.295146 
L 380.369013 85.625705 
L 380.527768 84.117735 
L 380.607146 84.206448 
L 380.765901 84.827363 
L 380.924656 85.019557 
L 381.162789 84.354278 
L 381.242167 84.295146 
L 381.400922 84.945642 
L 381.4803 84.871728 
L 381.639055 84.19165 
L 381.79781 84.871728 
L 381.877188 85.300464 
L 382.035943 84.81258 
L 382.194699 85.241317 
L 382.353454 84.605603 
L 382.432832 85.241317 
L 382.591587 84.753448 
L 382.670964 84.797797 
L 382.909097 84.531689 
L 382.988475 84.916077 
L 383.067853 84.250797 
L 383.14723 84.398626 
L 383.226608 84.827363 
L 383.305986 84.457774 
L 383.464741 84.975208 
L 383.544118 84.930859 
L 383.702874 84.502123 
L 383.782251 84.295146 
L 383.941007 84.635185 
L 384.020384 84.324712 
L 384.099762 84.383843 
L 384.258517 84.561255 
L 384.337895 84.147301 
L 384.49665 84.620386 
L 384.655405 84.81258 
L 384.734783 84.59082 
L 384.814161 84.679534 
L 384.972916 84.369061 
L 385.052294 84.605603 
L 385.131671 84.369061 
L 385.211049 84.694317 
L 385.290427 84.428208 
L 385.369804 84.472557 
L 385.449182 84.59082 
L 385.607937 84.502123 
L 385.687315 84.605603 
L 385.766692 85.182185 
L 385.925448 84.502123 
L 386.084203 84.635185 
L 386.163581 84.398626 
L 386.242958 84.428208 
L 386.401714 84.694317 
L 386.481091 84.324712 
L 386.560469 84.620386 
L 386.639846 84.398626 
L 386.719224 84.723883 
L 386.798602 84.147301 
L 386.877979 84.428208 
L 387.036735 84.147301 
L 387.116112 84.59082 
L 387.19549 84.457774 
L 387.274868 84.398626 
L 387.354245 84.576037 
L 387.592378 84.088169 
L 387.751133 84.26558 
L 387.909889 84.073386 
L 388.148022 84.635185 
L 388.227399 84.561255 
L 388.306777 84.250797 
L 388.54491 84.797797 
L 388.624287 84.398626 
L 388.703665 84.457774 
L 388.783043 84.797797 
L 388.941798 84.088169 
L 389.021176 84.088169 
L 389.100553 84.679534 
L 389.179931 84.664751 
L 389.418064 84.295146 
L 389.576819 84.620386 
L 389.656197 84.48734 
L 389.735574 84.102952 
L 389.814952 84.664751 
L 389.89433 84.649968 
L 389.973707 84.48734 
L 390.053085 84.827363 
L 390.132463 84.354278 
L 390.21184 84.442991 
L 390.291218 84.694317 
L 390.529351 84.206448 
L 390.608728 85.152619 
L 390.767484 84.324712 
L 390.846861 84.59082 
L 390.926239 84.339495 
L 391.084994 84.561255 
L 391.164372 84.413425 
L 391.24375 84.605603 
L 391.323127 85.10827 
L 391.402505 84.442991 
L 391.481882 84.502123 
L 391.56126 84.768231 
L 391.640638 84.605603 
L 391.799393 85.137836 
L 391.958148 84.694317 
L 392.037526 84.738666 
L 392.116904 84.413425 
L 392.196281 84.635185 
L 392.355036 84.383843 
L 392.434414 84.546472 
L 392.513792 84.132518 
L 392.593169 84.694317 
L 392.751925 84.339495 
L 392.831302 84.324712 
L 392.91068 84.856945 
L 392.990058 84.605603 
L 393.069435 84.960425 
L 393.148813 84.620386 
L 393.228191 84.827363 
L 393.307568 84.502123 
L 393.386946 84.975208 
L 393.466323 84.576037 
L 393.545701 84.768231 
L 393.625079 84.679534 
L 393.863212 84.546472 
L 393.942589 84.738666 
L 394.021967 84.635185 
L 394.101345 84.7091 
L 394.180722 84.753448 
L 394.2601 84.516906 
L 394.339477 84.753448 
L 394.498233 84.472557 
L 394.57761 84.842146 
L 394.815743 84.339495 
L 394.895121 84.827363 
L 394.974499 84.768231 
L 395.133254 84.102952 
L 395.212631 84.81258 
L 395.292009 84.694317 
L 395.371387 84.59082 
L 395.450764 84.295146 
L 395.60952 84.827363 
L 395.847653 84.383843 
L 396.085786 84.664751 
L 396.165163 84.783014 
L 396.244541 84.635185 
L 396.323918 84.723883 
L 396.482674 84.561255 
L 396.641429 84.827363 
L 396.720807 84.753448 
L 396.800184 84.428208 
L 397.038317 84.856945 
L 397.117695 84.369061 
L 397.197072 84.871728 
L 397.27645 84.856945 
L 397.355828 84.620386 
L 397.435205 84.694317 
L 397.593961 84.827363 
L 397.673338 84.635185 
L 397.752716 84.916077 
L 397.832094 84.428208 
L 397.911471 84.81258 
L 397.990849 84.324712 
L 398.070227 84.679534 
L 398.149604 84.635185 
L 398.228982 84.723883 
L 398.308359 84.250797 
L 398.546492 84.753448 
L 398.784625 84.516906 
L 399.102136 84.7091 
L 399.181513 84.398626 
L 399.499024 84.975208 
L 399.578402 84.354278 
L 399.657779 84.664751 
L 399.737157 84.546472 
L 399.816535 84.576037 
L 399.97529 84.797797 
L 400.134045 84.442991 
L 400.2928 124.980715 
L 401.007199 117.455665 
L 401.483465 108.348715 
L 402.277241 87.237155 
L 402.356619 86.704938 
L 402.435997 87.178023 
L 402.515374 85.241317 
L 402.594752 85.788333 
L 402.67413 84.768231 
L 402.753507 85.078705 
L 402.99164 86.882349 
L 403.071018 85.403945 
L 403.150395 85.743984 
L 403.229773 86.527527 
L 403.309151 84.635185 
L 403.388528 86.453612 
L 403.547284 85.123053 
L 403.626661 84.989991 
L 403.706039 85.862247 
L 403.785417 84.7091 
L 403.864794 84.916077 
L 404.102927 85.788333 
L 404.261682 84.694317 
L 404.34106 85.078705 
L 404.499815 84.797797 
L 404.579193 84.989991 
L 404.737948 84.649968 
L 404.817326 85.537007 
L 404.896704 84.605603 
L 404.976081 85.063906 
L 405.055459 84.649968 
L 405.134836 85.093488 
L 405.293592 84.856945 
L 405.452347 85.566573 
L 405.611102 84.81258 
L 405.69048 84.7091 
L 405.769858 85.03434 
L 405.849235 84.457774 
L 406.00799 84.886511 
L 406.087368 84.723883 
L 406.246123 85.182185 
L 406.404879 84.856945 
L 406.643012 84.871728 
L 406.722389 85.093488 
L 406.881144 84.856945 
L 406.960522 85.004774 
L 407.119277 84.649968 
L 407.198655 85.004774 
L 407.278033 84.664751 
L 407.436788 85.152619 
L 407.516166 84.620386 
L 407.595543 85.152619 
L 407.754299 84.561255 
L 407.833676 85.315247 
L 407.913054 84.738666 
L 407.992431 84.768231 
L 408.071809 84.856945 
L 408.151187 84.679534 
L 408.230564 84.783014 
L 408.309942 84.649968 
L 408.548075 85.123053 
L 409.024341 84.531689 
L 409.579984 84.649968 
L 409.659362 84.59082 
L 409.73874 84.383843 
L 409.897495 84.753448 
L 410.215005 84.605603 
L 410.294383 84.59082 
L 410.373761 84.428208 
L 410.611894 84.783014 
L 410.691271 84.383843 
L 410.850026 84.797797 
L 410.929404 84.383843 
L 411.246915 84.901294 
L 411.326292 84.502123 
L 411.40567 84.576037 
L 411.564425 85.196968 
L 411.802558 84.472557 
L 411.961313 84.753448 
L 412.199446 84.59082 
L 412.358202 84.576037 
L 412.437579 84.339495 
L 412.516957 84.635185 
L 412.596335 84.546472 
L 412.675712 84.516906 
L 412.834467 85.078705 
L 412.993223 84.502123 
L 413.151978 84.664751 
L 413.390111 84.620386 
L 413.469489 84.48734 
L 413.628244 84.664751 
L 413.945754 84.679534 
L 414.10451 84.561255 
L 414.183887 84.738666 
L 414.263265 84.679534 
L 414.342643 84.649968 
L 414.42202 84.783014 
L 414.501398 84.516906 
L 414.660153 84.871728 
L 414.818908 84.664751 
L 414.898286 84.797797 
L 414.977664 84.723883 
L 415.057041 84.516906 
L 415.136419 84.7091 
L 415.295174 84.546472 
L 415.612685 84.679534 
L 415.692062 84.516906 
L 415.930195 84.827363 
L 416.088951 84.635185 
L 416.247706 84.738666 
L 416.327084 84.531689 
L 416.406461 84.605603 
L 416.565217 84.768231 
L 416.723972 84.59082 
L 416.803349 84.723883 
L 416.882727 84.48734 
L 416.962105 84.694317 
L 417.041482 84.546472 
L 417.12086 84.605603 
L 417.279615 84.7091 
L 417.358993 84.620386 
L 417.517748 84.753448 
L 417.597126 84.576037 
L 417.676503 84.620386 
L 417.994014 84.472557 
L 418.152769 84.723883 
L 418.232147 84.753448 
L 418.311525 84.620386 
L 418.390902 85.019557 
L 418.47028 84.723883 
L 418.629035 84.886511 
L 418.78779 84.679534 
L 418.946546 84.783014 
L 419.105301 84.442991 
L 419.184679 84.842146 
L 419.264056 84.664751 
L 419.343434 84.738666 
L 419.899077 84.664751 
L 419.978455 84.576037 
L 420.13721 84.723883 
L 420.375343 84.605603 
L 421.248497 84.81258 
L 421.327875 84.546472 
L 421.407253 84.81258 
L 421.48663 84.7091 
L 421.724763 84.723883 
L 421.962896 84.620386 
L 422.121651 84.605603 
L 422.201029 84.546472 
L 422.359784 84.827363 
L 422.597917 84.664751 
L 422.677295 84.649968 
L 422.756672 84.753448 
L 422.83605 84.635185 
L 422.994805 84.753448 
L 423.074183 84.797797 
L 423.153561 84.59082 
L 423.312316 84.768231 
L 423.391694 84.620386 
L 423.471071 84.723883 
L 423.550449 84.620386 
L 423.629826 84.694317 
L 423.709204 84.81258 
L 423.867959 84.664751 
L 424.106092 84.7091 
L 424.18547 84.59082 
L 424.423603 84.768231 
L 424.820491 84.635185 
L 424.899869 84.768231 
L 424.979246 84.7091 
L 425.138002 84.797797 
L 425.217379 84.59082 
L 425.376134 84.827363 
L 425.614267 84.679534 
L 425.8524 84.81258 
L 426.011156 84.679534 
L 426.249289 84.664751 
L 426.408044 84.516906 
L 426.646177 84.649968 
L 427.043065 84.842146 
L 427.20182 84.561255 
L 427.360575 84.768231 
L 427.439953 84.723883 
L 427.519331 84.546472 
L 427.757464 84.694317 
L 427.916219 84.723883 
L 427.995597 84.620386 
L 428.074974 84.842146 
L 428.154352 84.694317 
L 428.23373 84.827363 
L 428.313107 84.635185 
L 428.392485 84.797797 
L 428.471862 84.753448 
L 428.55124 84.620386 
L 428.630618 84.694317 
L 428.789373 84.576037 
L 428.868751 84.7091 
L 428.948128 85.492642 
L 429.027506 84.383843 
L 429.106884 84.561255 
L 429.345016 84.502123 
L 429.424394 84.664751 
L 429.503772 84.620386 
L 429.583149 84.576037 
L 429.821282 84.768231 
L 429.90066 84.768231 
L 429.980038 84.59082 
L 430.059415 84.81258 
L 430.21817 84.457774 
L 430.376926 84.768231 
L 430.535681 84.753448 
L 430.615059 84.901294 
L 430.773814 84.635185 
L 430.932569 84.901294 
L 431.011947 84.398626 
L 431.091325 84.561255 
L 431.170702 84.886511 
L 431.329457 84.649968 
L 431.488213 84.797797 
L 431.885101 84.768231 
L 431.964479 84.679534 
L 432.043856 84.842146 
L 432.123234 84.516906 
L 432.202611 84.620386 
L 432.440744 84.827363 
L 432.5995 84.783014 
L 432.678877 84.886511 
L 432.758255 84.664751 
L 432.837633 84.886511 
L 432.91701 84.738666 
L 432.996388 84.783014 
L 433.234521 84.886511 
L 433.393276 84.738666 
L 433.631409 84.945642 
L 433.710787 84.989991 
L 433.790164 84.7091 
L 433.869542 84.827363 
L 434.028297 84.783014 
L 434.107675 84.783014 
L 434.187052 84.635185 
L 434.345808 84.797797 
L 434.425185 84.664751 
L 434.583941 84.7091 
L 434.980829 84.81258 
L 435.139584 84.620386 
L 435.61585 84.723883 
L 435.695228 84.354278 
L 435.774605 84.901294 
L 435.853983 84.7091 
L 435.933361 84.768231 
L 436.012738 84.59082 
L 436.171493 84.827363 
L 436.330249 84.753448 
L 436.489004 84.783014 
L 436.885892 84.605603 
L 437.044647 84.886511 
L 437.124025 84.856945 
L 437.203403 84.694317 
L 437.28278 84.989991 
L 437.441536 84.81258 
L 438.155934 84.738666 
L 438.235312 84.871728 
L 438.473445 84.620386 
L 438.552823 84.827363 
L 438.711578 84.694317 
L 438.790956 84.783014 
L 438.949711 84.694317 
L 439.029088 84.664751 
L 439.187844 84.753448 
L 439.267221 84.635185 
L 439.505354 84.827363 
L 439.743487 84.561255 
L 439.822865 84.694317 
L 439.902243 84.635185 
L 440.219753 84.753448 
L 440.457886 84.48734 
L 440.616641 84.7091 
L 440.775397 84.664751 
L 441.013529 84.797797 
L 441.172285 84.649968 
L 441.251662 84.7091 
L 441.33104 84.620386 
L 441.410418 84.783014 
L 441.569173 84.605603 
L 441.807306 84.7091 
L 441.886683 84.827363 
L 442.045439 84.664751 
L 442.442327 84.649968 
L 442.601082 84.797797 
L 442.839215 84.502123 
L 442.99797 84.694317 
L 443.156726 84.620386 
L 443.315481 84.738666 
L 443.950502 84.576037 
L 444.34739 84.679534 
L 444.506146 84.576037 
L 444.823656 84.679534 
L 444.903034 84.59082 
L 445.061789 84.694317 
L 445.220544 84.576037 
L 445.3793 84.694317 
L 445.538055 84.620386 
L 445.776188 84.664751 
L 445.855565 84.576037 
L 446.014321 84.664751 
L 446.173076 84.649968 
L 446.252454 84.783014 
L 446.411209 84.531689 
L 446.490587 84.738666 
L 446.569964 84.649968 
L 446.887475 84.664751 
L 446.966852 84.457774 
L 447.125608 84.635185 
L 447.681251 84.561255 
L 447.840006 84.723883 
L 448.078139 84.398626 
L 448.316272 84.664751 
L 448.39565 84.472557 
L 448.475028 84.546472 
L 448.792538 84.561255 
L 449.189426 84.457774 
L 449.268804 84.48734 
L 449.348182 84.664751 
L 449.427559 84.576037 
L 449.665692 84.442991 
L 449.903825 84.649968 
L 449.983203 84.472557 
L 450.06258 111.54205 
L 450.141958 101.148906 
L 450.459469 86.704938 
L 450.538846 87.680674 
L 450.618224 85.99531 
L 450.697601 86.645806 
L 450.776979 88.079845 
L 450.935734 84.916077 
L 451.015112 85.167402 
L 451.09449 84.930859 
L 451.173867 87.399783 
L 451.332623 84.442991 
L 451.412 85.596139 
L 451.491378 84.664751 
L 451.570756 84.989991 
L 451.650133 85.182185 
L 451.729511 84.502123 
L 451.808888 85.285666 
L 452.047021 84.664751 
L 452.364532 84.945642 
L 452.44391 84.576037 
L 452.523287 84.694317 
L 452.682042 84.842146 
L 452.76142 84.605603 
L 452.920175 84.783014 
L 452.999553 84.561255 
L 453.078931 84.842146 
L 453.158308 84.664751 
L 453.237686 84.901294 
L 453.317064 84.81258 
L 453.396441 84.783014 
L 453.634574 85.004774 
L 453.793329 84.827363 
L 454.031462 84.783014 
L 454.348973 84.783014 
L 454.507728 84.842146 
L 454.666483 84.738666 
L 455.222127 84.768231 
L 455.301505 84.723883 
L 455.539637 84.827363 
L 455.77777 84.7091 
L 455.936526 84.768231 
L 456.174659 84.7091 
L 456.333414 84.753448 
L 456.412792 84.7091 
L 456.571547 84.783014 
L 456.889057 84.723883 
L 457.047813 84.7091 
L 457.285946 84.81258 
L 457.524078 84.723883 
L 458.873498 84.679534 
L 459.032254 84.635185 
L 459.349764 84.620386 
L 459.429142 84.48734 
L 459.587897 84.7091 
L 459.667275 84.516906 
L 459.746652 84.620386 
L 459.82603 84.354278 
L 459.905408 84.81258 
L 459.984785 84.546472 
L 460.064163 84.620386 
L 460.222918 84.561255 
L 460.381673 84.516906 
L 460.540429 84.576037 
L 460.937317 84.546472 
L 461.016695 84.635185 
L 461.254828 84.398626 
L 461.49296 84.620386 
L 461.572338 84.413425 
L 461.651716 84.502123 
L 462.127982 84.576037 
L 462.286737 84.48734 
L 462.763003 84.48734 
L 462.84238 84.457774 
L 463.001136 84.531689 
L 463.477401 84.561255 
L 463.636157 84.531689 
L 463.794912 84.561255 
L 464.033045 84.531689 
L 464.588688 84.457774 
L 464.668066 84.546472 
L 464.747444 84.398626 
L 464.826821 84.457774 
L 465.064954 84.516906 
L 465.144332 84.383843 
L 465.303087 84.531689 
L 465.779353 84.442991 
L 465.938108 84.442991 
L 466.334996 84.561255 
L 466.414374 84.398626 
L 466.493752 84.48734 
L 466.731885 84.472557 
L 466.89064 84.48734 
L 466.970018 84.428208 
L 467.049395 84.576037 
L 467.128773 84.428208 
L 467.20815 84.620386 
L 467.366906 84.413425 
L 467.446283 84.48734 
L 467.605039 84.369061 
L 468.001927 84.354278 
L 468.081305 84.59082 
L 468.160682 84.428208 
L 468.24006 84.472557 
L 468.478193 84.457774 
L 468.716326 84.413425 
L 468.795703 84.516906 
L 468.954459 84.295146 
L 469.033836 84.48734 
L 469.113214 84.324712 
L 469.192591 84.516906 
L 469.271969 84.413425 
L 469.510102 84.516906 
L 469.986368 84.457774 
L 470.065746 84.531689 
L 470.145123 84.413425 
L 470.224501 84.546472 
L 470.383256 84.339495 
L 470.621389 84.502123 
L 470.700767 84.398626 
L 470.780144 84.502123 
L 470.859522 84.383843 
L 470.9389 84.442991 
L 471.018277 84.383843 
L 471.097655 84.531689 
L 471.177032 84.48734 
L 471.415165 84.309929 
L 471.494543 84.502123 
L 471.573921 84.354278 
L 471.653298 84.442991 
L 471.732676 84.280363 
L 471.812054 84.324712 
L 471.891431 84.516906 
L 471.970809 84.295146 
L 472.050186 84.354278 
L 472.129564 84.413425 
L 472.288319 84.383843 
L 472.367697 84.472557 
L 472.526452 84.413425 
L 472.764585 84.369061 
L 472.843963 84.354278 
L 472.923341 84.221231 
L 473.002718 84.428208 
L 473.082096 84.354278 
L 473.320229 84.26558 
L 473.399606 84.472557 
L 473.478984 84.383843 
L 473.637739 84.295146 
L 473.717117 84.531689 
L 473.796495 84.383843 
L 473.875872 84.546472 
L 474.034627 84.369061 
L 474.27276 84.236014 
L 474.431516 84.324712 
L 474.510893 84.236014 
L 474.669649 84.472557 
L 474.828404 84.398626 
L 475.30467 84.309929 
L 475.463425 84.398626 
L 475.542803 84.324712 
L 475.62218 84.442991 
L 475.701558 84.221231 
L 475.780936 84.26558 
L 475.860313 84.457774 
L 475.939691 84.250797 
L 476.019068 84.354278 
L 476.098446 84.26558 
L 476.257201 84.354278 
L 476.495334 84.26558 
L 476.65409 84.48734 
L 476.733467 84.176867 
L 476.812845 84.383843 
L 476.892223 84.324712 
L 477.050978 84.457774 
L 477.209733 84.221231 
L 477.447866 84.369061 
L 477.527244 84.250797 
L 477.685999 84.339495 
L 477.844754 84.369061 
L 477.924132 84.295146 
L 478.003509 84.383843 
L 478.082887 84.295146 
L 478.162265 84.442991 
L 478.32102 84.324712 
L 478.638531 84.295146 
L 478.717908 84.48734 
L 478.797286 84.19165 
L 478.876663 84.369061 
L 478.956041 84.280363 
L 479.114796 84.309929 
L 479.194174 84.132518 
L 479.352929 84.295146 
L 479.591062 84.339495 
L 479.67044 84.162084 
L 479.829195 84.383843 
L 479.98795 84.236014 
L 480.067328 84.206448 
L 480.146706 84.354278 
L 480.305461 84.309929 
L 480.543594 84.354278 
L 480.702349 84.354278 
L 480.781727 84.48734 
L 480.861104 84.250797 
L 481.01986 84.339495 
L 481.099237 84.250797 
L 481.257993 84.457774 
L 481.496126 84.339495 
L 481.654881 84.147301 
L 481.734259 84.413425 
L 481.813636 84.176867 
L 481.893014 84.280363 
L 481.972391 84.531689 
L 482.051769 84.19165 
L 482.131147 84.250797 
L 482.448657 84.295146 
L 482.528035 84.442991 
L 482.68679 84.280363 
L 482.766168 84.339495 
L 482.845545 84.147301 
L 482.924923 84.354278 
L 483.083678 84.176867 
L 483.163056 84.442991 
L 483.321811 84.250797 
L 483.480567 84.413425 
L 483.559944 84.250797 
L 483.639322 84.295146 
L 483.798077 84.221231 
L 483.877455 84.516906 
L 484.03621 84.221231 
L 484.115588 84.383843 
L 484.274343 84.176867 
L 484.433098 84.339495 
L 484.591854 84.295146 
L 484.750609 84.413425 
L 484.988742 84.236014 
L 485.306252 84.383843 
L 485.38563 84.236014 
L 485.544385 84.413425 
L 485.623763 84.236014 
L 485.70314 84.324712 
L 485.782518 84.369061 
L 485.861896 84.236014 
L 485.941273 84.324712 
L 486.100029 84.117735 
L 486.338162 84.221231 
L 486.973183 84.250797 
L 487.131938 84.280363 
L 487.528826 84.442991 
L 487.687581 84.19165 
L 487.766959 84.413425 
L 487.925714 84.280363 
L 488.08447 84.398626 
L 488.163847 84.221231 
L 488.243225 84.428208 
L 488.40198 84.26558 
L 488.640113 84.428208 
L 488.878246 84.309929 
L 488.957624 84.398626 
L 489.037001 84.26558 
L 489.195757 84.457774 
L 489.275134 84.221231 
L 489.43389 84.354278 
L 489.592645 84.413425 
L 489.672022 84.428208 
L 489.7514 84.236014 
L 489.830778 84.295146 
L 490.307044 84.428208 
L 490.465799 84.309929 
L 490.624554 84.383843 
L 490.783309 84.309929 
L 490.942065 84.48734 
L 491.021442 84.236014 
L 491.10082 84.354278 
L 491.259575 84.26558 
L 491.497708 84.457774 
L 491.577086 84.236014 
L 491.656463 84.428208 
L 491.894596 84.19165 
L 492.053352 84.398626 
L 492.132729 84.250797 
L 492.212107 84.324712 
L 492.291485 84.236014 
L 492.45024 84.398626 
L 492.608995 84.26558 
L 492.688373 84.502123 
L 492.926506 84.250797 
L 493.005883 84.472557 
L 493.164639 84.176867 
L 493.402772 84.516906 
L 493.482149 84.19165 
L 493.561527 84.413425 
L 493.640904 84.383843 
L 493.79966 84.324712 
L 493.879037 84.206448 
L 493.958415 84.369061 
L 494.037793 84.295146 
L 494.196548 84.413425 
L 494.434681 84.176867 
L 494.672814 84.413425 
L 494.831569 84.354278 
L 495.228457 84.354278 
L 495.387213 84.250797 
L 495.545968 84.398626 
L 495.625345 84.221231 
L 495.704723 84.26558 
L 496.101611 84.354278 
L 496.180989 84.19165 
L 496.260367 84.48734 
L 496.419122 84.324712 
L 496.657255 84.339495 
L 496.736632 84.206448 
L 496.895388 84.339495 
L 497.133521 84.324712 
L 497.371653 84.457774 
L 497.609786 84.206448 
L 497.768542 84.369061 
L 497.847919 84.472557 
L 497.927297 84.221231 
L 498.006675 84.26558 
L 498.244808 84.309929 
L 498.324185 84.280363 
L 498.403563 84.413425 
L 498.48294 84.354278 
L 498.721073 84.324712 
L 498.959206 84.398626 
L 499.117962 84.280363 
L 499.435472 84.48734 
L 499.51485 84.26558 
L 499.594227 84.339495 
L 499.752983 84.398626 
L 499.991116 84.383843 
L 500.149871 84.250797 
L 500.229249 84.516906 
L 500.388004 84.221231 
L 500.943647 84.531689 
L 501.102403 84.250797 
L 501.18178 84.428208 
L 501.261158 84.369061 
L 501.340535 84.26558 
L 501.578668 84.369061 
L 501.658046 84.250797 
L 501.816801 84.48734 
L 501.896179 84.383843 
L 502.134312 84.442991 
L 502.372445 84.19165 
L 502.5312 84.398626 
L 502.769333 84.383843 
L 502.928088 84.369061 
L 503.166221 84.369061 
L 503.404354 84.280363 
L 503.483732 84.516906 
L 503.642487 84.428208 
L 503.801242 84.369061 
L 503.88062 84.442991 
L 503.959998 84.309929 
L 504.039375 84.369061 
L 504.118753 84.280363 
L 504.356886 84.531689 
L 504.436263 84.206448 
L 504.515641 84.339495 
L 504.674396 84.309929 
L 504.833152 84.250797 
L 504.991907 84.398626 
L 505.150662 84.26558 
L 505.468173 84.413425 
L 505.54755 84.428208 
L 505.785683 84.236014 
L 505.944439 84.324712 
L 506.023816 84.457774 
L 506.182571 84.369061 
L 506.261949 84.398626 
L 506.420704 84.295146 
L 506.57946 84.280363 
L 507.373236 84.354278 
L 507.531991 84.354278 
L 507.849502 84.413425 
L 508.167012 84.295146 
L 508.325768 84.309929 
L 508.643278 84.324712 
L 508.722656 84.309929 
L 508.881411 84.428208 
L 509.040166 84.280363 
L 509.198922 84.324712 
L 509.357677 84.369061 
L 509.754565 84.369061 
L 509.833943 84.206448 
L 509.913321 84.295146 
L 510.468964 84.383843 
L 510.786475 84.324712 
L 510.94523 84.354278 
L 511.659629 84.324712 
L 511.818384 84.48734 
L 511.977139 84.369061 
L 512.056517 84.502123 
L 512.135894 84.280363 
L 512.215272 84.339495 
L 512.532783 84.369061 
L 512.61216 84.472557 
L 512.691538 84.398626 
L 513.088426 84.502123 
L 513.247181 84.369061 
L 513.882203 84.48734 
L 513.96158 84.324712 
L 514.120335 84.472557 
L 514.358468 84.413425 
L 514.993489 84.516906 
L 515.072867 84.398626 
L 515.231622 84.531689 
L 515.311 84.576037 
L 515.469755 84.354278 
L 515.549133 84.442991 
L 515.628511 84.354278 
L 515.707888 84.472557 
L 515.787266 84.398626 
L 516.263532 84.413425 
L 516.501665 84.398626 
L 517.057308 84.502123 
L 517.216063 84.383843 
L 517.374819 84.442991 
L 517.692329 84.309929 
L 517.851084 84.561255 
L 517.930462 84.442991 
L 518.00984 84.561255 
L 518.168595 84.442991 
L 518.247973 84.576037 
L 518.406728 84.354278 
L 518.724239 84.561255 
L 518.962371 84.383843 
L 519.041749 84.516906 
L 519.200504 84.339495 
L 519.35926 84.472557 
L 519.518015 84.398626 
L 519.597393 84.664751 
L 519.67677 84.413425 
L 519.756148 84.472557 
L 519.914903 84.457774 
L 519.994281 84.531689 
L 520.073658 84.383843 
L 520.153036 84.472557 
L 520.311791 84.383843 
L 520.629302 84.354278 
L 520.867435 84.48734 
L 521.105568 84.442991 
L 521.264323 84.442991 
L 521.343701 84.354278 
L 521.502456 84.413425 
L 521.661211 84.339495 
L 521.740589 84.516906 
L 521.819966 84.457774 
L 521.978722 84.428208 
L 522.296232 84.428208 
L 522.454988 84.354278 
L 522.613743 84.502123 
L 522.772498 84.442991 
L 522.851876 84.502123 
L 523.010631 84.413425 
L 523.328142 84.48734 
L 523.407519 84.383843 
L 523.486897 84.457774 
L 523.72503 84.442991 
L 523.804407 84.413425 
L 523.963163 84.48734 
L 524.439429 84.472557 
L 524.915694 84.398626 
L 525.233205 84.59082 
L 525.39196 84.413425 
L 525.550716 84.531689 
L 525.630093 84.428208 
L 525.788848 84.516906 
L 526.026981 84.472557 
L 526.662002 84.324712 
L 526.74138 84.472557 
L 526.979513 84.369061 
L 527.138268 84.413425 
L 527.376401 84.442991 
L 527.773289 84.309929 
L 527.852667 84.457774 
L 527.932045 84.339495 
L 528.170178 84.531689 
L 528.249555 84.516906 
L 528.328933 84.354278 
L 528.408311 84.502123 
L 528.567066 84.398626 
L 528.725821 84.457774 
L 528.963954 84.531689 
L 529.202087 84.442991 
L 529.360842 84.546472 
L 529.916486 84.457774 
L 530.948395 84.48734 
L 531.027773 84.324712 
L 531.186528 84.561255 
L 531.265906 84.605603 
L 531.583416 84.383843 
L 532.059682 84.472557 
L 532.45657 84.428208 
L 532.615325 84.472557 
L 532.853458 84.59082 
L 533.012214 121.772582 
L 533.170969 118.682728 
L 533.964745 85.817899 
L 534.044123 88.272039 
L 534.202878 85.99531 
L 534.282256 86.084007 
L 534.361633 86.512744 
L 534.441011 85.315247 
L 534.520389 86.601457 
L 534.758522 85.670053 
L 534.837899 86.32055 
L 534.917277 85.093488 
L 534.996655 85.55179 
L 535.076032 84.901294 
L 535.15541 84.975208 
L 535.234788 85.344813 
L 535.314165 85.2561 
L 535.393543 85.241317 
L 535.47292 85.389162 
L 535.552298 85.152619 
L 535.631676 85.226534 
L 535.711053 85.211751 
L 535.790431 85.063906 
L 535.949186 85.152619 
L 536.028564 85.078705 
L 536.187319 85.137836 
L 536.425452 85.123053 
L 536.50483 84.945642 
L 536.584207 85.004774 
L 537.139851 85.093488 
L 537.457361 85.10827 
L 537.536739 85.300464 
L 537.616117 84.930859 
L 537.695494 85.123053 
L 537.774872 85.729201 
L 537.85425 84.827363 
L 537.933627 85.610922 
L 538.013005 84.916077 
L 538.092383 85.063906 
L 538.17176 84.901294 
L 538.251138 84.975208 
L 538.727404 84.975208 
L 538.965537 84.916077 
L 539.362425 84.886511 
L 539.600558 84.945642 
L 539.759313 84.901294 
L 539.918068 84.842146 
L 539.997446 84.916077 
L 540.156201 84.753448 
L 540.314956 84.81258 
L 542.855041 84.871728 
L 542.934419 84.960425 
L 543.093174 84.901294 
L 543.56944 84.856945 
L 543.728195 84.827363 
L 543.88695 84.856945 
L 544.125083 84.842146 
L 549.760896 84.827363 
L 549.919651 84.945642 
L 550.078406 84.827363 
L 550.237161 84.930859 
L 550.316539 84.842146 
L 550.395917 84.945642 
L 550.475294 84.871728 
L 550.63405 84.81258 
L 550.792805 84.901294 
L 551.030938 84.783014 
L 551.110315 84.901294 
L 551.189693 84.842146 
L 554.523554 84.901294 
L 554.682309 84.930859 
L 556.746128 84.886511 
L 556.825505 85.359596 
L 556.904883 100.60189 
L 557.063638 90.17918 
L 557.143016 90.578351 
L 557.222394 86.719721 
L 557.301771 86.808418 
L 557.381149 86.61624 
L 557.460527 87.902434 
L 557.619282 84.783014 
L 557.698659 84.930859 
L 557.778037 86.084007 
L 557.936792 85.196968 
L 558.01617 85.10827 
L 558.174925 85.729201 
L 558.254303 84.856945 
L 558.333681 85.463077 
L 558.413058 84.975208 
L 558.492436 85.093488 
L 558.730569 84.871728 
L 558.889324 84.856945 
L 559.206835 84.886511 
L 559.444968 84.842146 
L 560.873765 84.738666 
L 561.270653 84.753448 
L 561.588164 84.797797 
L 561.746919 84.81258 
L 561.826297 84.842146 
L 561.985052 84.753448 
L 562.06443 84.856945 
L 562.143807 84.783014 
L 562.38194 84.886511 
L 562.461318 84.694317 
L 562.540696 84.783014 
L 563.175717 84.916077 
L 563.334472 84.635185 
L 563.572605 84.783014 
L 563.810738 84.783014 
L 564.207626 84.753448 
L 572.701033 84.842146 
L 573.018544 84.842146 
L 573.732943 84.768231 
L 574.050453 84.842146 
L 574.209209 84.827363 
L 574.84423 84.842146 
L 575.002985 84.827363 
L 575.955517 84.901294 
L 576.114272 84.916077 
L 576.51116 84.886511 
L 578.574979 84.960425 
L 578.733734 84.960425 
L 580.87693 85.004774 
L 581.035685 85.049123 
L 581.750084 85.004774 
L 581.90884 85.049123 
L 582.067595 85.03434 
L 582.464483 85.063906 
L 582.623238 84.989991 
L 583.020126 85.004774 
L 583.337637 85.063906 
L 591.037268 85.019557 
L 591.116646 84.930859 
L 591.354779 85.03434 
L 591.672289 84.975208 
L 592.069177 84.945642 
L 592.227933 84.975208 
L 592.545443 85.03434 
L 593.259842 84.975208 
L 593.497975 85.049123 
L 593.815485 84.945642 
L 608.420971 85.03434 
L 608.659104 85.004774 
L 608.738482 84.916077 
L 608.817859 85.019557 
L 608.976615 84.842146 
L 609.055992 85.019557 
L 609.13537 84.945642 
L 609.294125 85.019557 
L 609.373503 84.930859 
L 609.532258 84.960425 
L 609.849769 85.093488 
L 610.008524 84.989991 
L 610.722923 85.004774 
L 610.8023 84.871728 
L 610.881678 85.03434 
L 610.961056 84.989991 
L 611.119811 85.004774 
L 611.278566 85.019557 
L 611.437321 84.989991 
L 612.072343 84.842146 
L 612.15172 85.004774 
L 612.231098 84.916077 
L 612.469231 84.989991 
L 612.627986 84.945642 
L 612.866119 84.871728 
L 613.024874 84.901294 
L 613.421762 84.945642 
L 613.739273 84.901294 
L 613.818651 84.975208 
L 613.977406 84.901294 
L 614.374294 84.975208 
L 614.533049 84.842146 
L 614.612427 84.975208 
L 614.691805 84.901294 
L 614.929938 84.975208 
L 615.088693 84.886511 
L 615.326826 84.856945 
L 615.406203 84.901294 
L 615.485581 84.797797 
L 615.564959 84.989991 
L 615.644336 84.930859 
L 615.803092 84.960425 
L 615.961847 84.856945 
L 616.120602 84.842146 
L 616.51749 84.81258 
L 616.596868 84.768231 
L 616.755623 84.842146 
L 616.835001 84.797797 
L 616.914379 84.960425 
L 617.073134 84.842146 
L 617.311267 84.81258 
L 617.470022 84.871728 
L 617.787533 84.975208 
L 617.86691 84.856945 
L 617.946288 84.916077 
L 618.025665 84.960425 
L 618.105043 84.827363 
L 618.184421 84.886511 
L 618.422554 84.930859 
L 618.501931 84.856945 
L 618.660687 84.901294 
L 618.819442 84.871728 
L 620.327617 84.901294 
L 620.406995 84.738666 
L 620.645128 84.930859 
L 620.803883 84.856945 
L 620.883261 84.871728 
L 620.962638 84.753448 
L 621.121393 84.930859 
L 621.91517 84.886511 
L 622.073925 84.945642 
L 622.23268 84.842146 
L 622.391436 84.871728 
L 622.470813 84.753448 
L 622.708946 84.856945 
L 622.788324 84.901294 
L 622.867702 84.768231 
L 622.947079 84.901294 
L 623.026457 84.827363 
L 623.185212 84.901294 
L 623.343967 84.871728 
L 623.899611 84.871728 
L 624.455254 84.871728 
L 624.534632 84.930859 
L 624.772765 84.797797 
L 625.487164 84.827363 
L 625.725297 84.842146 
L 625.804674 84.886511 
L 625.884052 84.753448 
L 625.963429 84.916077 
L 626.042807 84.827363 
L 626.28094 84.81258 
L 626.439695 84.856945 
L 627.154094 84.886511 
L 627.471605 84.842146 
L 627.550982 84.960425 
L 627.709738 84.856945 
L 628.265381 84.871728 
L 628.503514 84.81258 
L 628.900402 84.856945 
L 630.091067 84.768231 
L 630.170444 84.989991 
L 630.3292 84.827363 
L 630.487955 84.827363 
L 630.884843 84.7091 
L 630.964221 84.856945 
L 631.043598 84.797797 
L 631.202354 84.797797 
L 631.361109 84.856945 
L 631.440487 84.81258 
L 631.519864 84.916077 
L 631.599242 84.797797 
L 631.678619 84.871728 
L 631.757997 84.901294 
L 631.916752 84.797797 
L 632.075508 84.856945 
L 632.551774 84.842146 
L 632.789906 84.901294 
L 632.869284 84.901294 
L 632.948662 84.768231 
L 633.028039 84.945642 
L 633.107417 84.886511 
L 633.34555 84.871728 
L 633.504305 84.842146 
L 633.742438 84.753448 
L 633.980571 84.842146 
L 634.536215 84.871728 
L 634.853725 84.856945 
L 634.933103 84.975208 
L 635.171236 84.827363 
L 635.409369 84.842146 
L 635.568124 84.901294 
L 635.806257 84.797797 
L 635.885634 84.886511 
L 635.965012 84.738666 
L 636.04439 84.871728 
L 636.123767 84.81258 
L 636.203145 84.768231 
L 636.3619 84.886511 
L 638.266964 84.842146 
L 638.425719 84.753448 
L 638.663852 84.871728 
L 639.06074 84.738666 
L 639.219495 84.856945 
L 639.298873 84.7091 
L 639.537006 84.827363 
L 639.854516 84.827363 
L 639.933894 84.679534 
L 640.092649 84.797797 
L 640.172027 84.768231 
L 640.251405 84.871728 
L 640.41016 84.797797 
L 640.489537 84.768231 
L 640.568915 84.871728 
L 640.72767 84.753448 
L 640.965803 84.753448 
L 641.124559 84.842146 
L 641.362692 84.679534 
L 641.442069 84.635185 
L 641.600824 84.871728 
L 641.680202 84.723883 
L 641.75958 84.842146 
L 641.838957 84.768231 
L 641.997713 84.7091 
L 642.235846 84.723883 
L 642.394601 84.635185 
L 642.473978 84.783014 
L 642.553356 84.723883 
L 642.712111 84.81258 
L 643.505888 84.7091 
L 643.744021 84.797797 
L 643.902776 84.797797 
L 644.537797 84.768231 
L 644.696552 84.783014 
L 644.77593 84.649968 
L 644.855308 84.856945 
L 645.014063 84.635185 
L 645.093441 84.797797 
L 645.172818 84.723883 
L 645.331573 84.81258 
L 645.410951 84.635185 
L 645.569706 84.768231 
L 645.649084 84.620386 
L 645.728462 84.694317 
L 645.887217 84.738666 
L 646.12535 84.7091 
L 646.363483 84.679534 
L 646.522238 84.768231 
L 647.077882 84.59082 
L 647.316014 84.753448 
L 648.030413 84.664751 
L 648.189168 84.768231 
L 648.347924 84.620386 
L 648.427301 84.768231 
L 648.506679 84.7091 
L 648.903567 84.649968 
L 648.982945 84.797797 
L 649.062323 84.664751 
L 649.1417 84.738666 
L 649.300455 84.664751 
L 649.538588 84.679534 
L 649.617966 84.783014 
L 649.697344 84.649968 
L 649.776721 84.768231 
L 650.014854 84.605603 
L 650.094232 84.738666 
L 650.173609 84.664751 
L 650.332365 84.605603 
L 650.649875 84.649968 
L 650.729253 84.679534 
L 650.888008 84.576037 
L 651.046764 84.605603 
L 651.523029 84.576037 
L 651.602407 84.635185 
L 651.681785 84.502123 
L 651.999295 84.694317 
L 652.078673 84.561255 
L 652.237428 84.664751 
L 652.793072 84.605603 
L 652.951827 84.679534 
L 653.110582 84.7091 
L 653.348715 84.768231 
L 653.428093 84.561255 
L 653.50747 84.649968 
L 653.666226 84.768231 
L 653.904359 84.664751 
L 654.142491 84.620386 
L 654.380624 84.635185 
L 654.460002 84.605603 
L 654.53938 84.7091 
L 654.618757 84.635185 
L 654.85689 84.679534 
L 655.253778 84.649968 
L 655.491911 84.7091 
L 655.730044 84.664751 
L 656.285688 84.664751 
L 656.444443 84.649968 
L 656.523821 84.59082 
L 656.682576 84.679534 
L 656.920709 84.620386 
L 657.158842 84.664751 
L 657.396975 84.7091 
L 657.714485 84.531689 
L 657.952618 84.620386 
L 659.619549 84.664751 
L 659.698926 84.738666 
L 659.937059 84.635185 
L 660.095814 84.635185 
L 665.017228 84.59082 
L 665.096606 84.502123 
L 665.175983 84.620386 
L 665.255361 84.561255 
L 665.493494 84.546472 
L 665.652249 84.620386 
L 666.128515 84.531689 
L 666.28727 84.620386 
L 666.366648 84.561255 
L 666.525403 84.59082 
L 668.98611 84.605603 
L 669.065488 84.7091 
L 669.224243 84.605603 
L 669.382998 84.664751 
L 669.541754 84.561255 
L 669.859264 84.546472 
L 670.018019 84.605603 
L 670.256152 84.546472 
L 670.414908 84.620386 
L 670.732418 84.576037 
L 670.970551 84.649968 
L 671.049929 84.546472 
L 671.208684 84.635185 
L 672.161216 84.531689 
L 672.478726 84.546472 
L 672.637481 84.561255 
L 672.716859 84.472557 
L 672.875614 84.620386 
L 672.954992 84.516906 
L 673.113747 84.561255 
L 673.35188 84.635185 
L 673.510635 84.516906 
L 673.669391 84.546472 
L 674.066279 84.516906 
L 674.225034 84.576037 
L 674.621922 84.531689 
L 674.939433 84.59082 
L 675.098188 84.561255 
L 675.256944 84.561255 
L 675.733209 84.48734 
L 675.891965 84.561255 
L 676.05072 84.546472 
L 676.447608 84.561255 
L 676.526986 84.516906 
L 676.685741 84.59082 
L 677.003252 84.457774 
L 677.082629 84.59082 
L 677.241385 84.546472 
L 677.320762 84.502123 
L 677.40014 84.605603 
L 677.479517 84.531689 
L 677.71765 84.605603 
L 678.987693 84.59082 
L 679.06707 84.472557 
L 679.225826 84.605603 
L 679.384581 84.649968 
L 679.543336 84.605603 
L 679.940224 84.576037 
L 680.09898 84.576037 
L 680.495868 84.546472 
L 680.654623 84.546472 
L 680.892756 84.576037 
L 681.369022 84.59082 
L 681.527777 84.59082 
L 681.76591 84.605603 
L 681.924665 84.561255 
L 682.162798 84.59082 
L 682.480309 84.59082 
L 682.639064 84.620386 
L 682.718442 84.679534 
L 682.956575 84.546472 
L 683.670973 84.59082 
L 684.067862 84.605603 
L 684.46475 84.635185 
L 684.702883 84.561255 
L 684.861638 84.59082 
L 685.576037 84.664751 
L 685.81417 84.649968 
L 688.116121 84.635185 
L 688.195499 114.7354 
L 688.274876 104.933605 
L 688.513009 87.769388 
L 688.592387 87.355434 
L 688.671765 86.32055 
L 688.751142 88.094628 
L 688.909898 84.901294 
L 688.989275 85.55179 
L 689.14803 85.211751 
L 689.306786 85.241317 
L 689.386163 85.758767 
L 689.465541 84.975208 
L 689.544919 85.300464 
L 689.624296 84.295146 
L 689.783052 85.167402 
L 689.862429 85.196968 
L 689.941807 85.448294 
L 690.021184 84.783014 
L 690.100562 85.123053 
L 690.17994 84.753448 
L 690.259317 84.783014 
L 690.814961 84.797797 
L 690.894339 84.783014 
L 690.973716 84.886511 
L 691.053094 84.81258 
L 691.84687 84.753448 
L 692.164381 84.753448 
L 692.402514 84.797797 
L 692.720024 84.842146 
L 692.958157 84.797797 
L 693.355045 84.768231 
L 702.165963 84.679534 
L 702.404096 84.694317 
L 702.721607 84.753448 
L 702.95974 84.635185 
L 703.356628 84.664751 
L 703.753516 84.576037 
L 703.991649 84.620386 
L 704.547293 84.620386 
L 712.485056 84.694317 
L 712.643812 84.664751 
L 712.961322 84.649968 
L 713.755099 84.694317 
L 720.184688 84.649968 
L 720.184688 84.649968 
" clip-path="url(#pb252fb38e1)" style="fill: none; stroke: #1f77b4; stroke-width: 1.5; stroke-linecap: square"/>
   </g>
   <g id="patch_3">
    <path d="M 363.064687 311.6435 
L 363.064687 45.5315 
" style="fill: none; stroke: #000000; stroke-width: 0.8; stroke-linejoin: miter; stroke-linecap: square"/>
   </g>
   <g id="patch_4">
    <path d="M 720.184688 311.6435 
L 720.184688 45.5315 
" style="fill: none; stroke: #000000; stroke-width: 0.8; stroke-linejoin: miter; stroke-linecap: square"/>
   </g>
   <g id="patch_5">
    <path d="M 363.064687 311.6435 
L 720.184688 311.6435 
" style="fill: none; stroke: #000000; stroke-width: 0.8; stroke-linejoin: miter; stroke-linecap: square"/>
   </g>
   <g id="patch_6">
    <path d="M 363.064687 45.5315 
L 720.184688 45.5315 
" style="fill: none; stroke: #000000; stroke-width: 0.8; stroke-linejoin: miter; stroke-linecap: square"/>
   </g>
   <g id="text_19">
    <!-- Accuracy of the 09_07_25_CINIC10_torch_model_(1024+2048.1+1)_car-plane on the validation set -->
    <g transform="translate(7.2 25.5315) scale(0.264 -0.264)">
     <defs>
      <path id="TimesNewRomanPSMT-68" d="M 1041 4444 
L 1041 2350 
Q 1388 2731 1591 2839 
Q 1794 2947 1997 2947 
Q 2241 2947 2416 2812 
Q 2591 2678 2675 2391 
Q 2734 2191 2734 1659 
L 2734 647 
Q 2734 375 2778 275 
Q 2809 200 2884 156 
Q 2959 113 3159 113 
L 3159 0 
L 1753 0 
L 1753 113 
L 1819 113 
Q 2019 113 2097 173 
Q 2175 234 2206 353 
Q 2216 403 2216 647 
L 2216 1659 
Q 2216 2128 2167 2275 
Q 2119 2422 2012 2495 
Q 1906 2569 1756 2569 
Q 1603 2569 1437 2487 
Q 1272 2406 1041 2159 
L 1041 647 
Q 1041 353 1073 281 
Q 1106 209 1195 161 
Q 1284 113 1503 113 
L 1503 0 
L 84 0 
L 84 113 
Q 275 113 384 172 
Q 447 203 484 290 
Q 522 378 522 647 
L 522 3238 
Q 522 3728 498 3840 
Q 475 3953 426 3993 
Q 378 4034 297 4034 
Q 231 4034 84 3984 
L 41 4094 
L 897 4444 
L 1041 4444 
z
" transform="scale(0.015625)"/>
      <path id="TimesNewRomanPSMT-5f" d="M 3256 -1381 
L -53 -1381 
L -53 -1119 
L 3256 -1119 
L 3256 -1381 
z
" transform="scale(0.015625)"/>
      <path id="TimesNewRomanPSMT-43" d="M 3853 4334 
L 3950 2894 
L 3853 2894 
Q 3659 3541 3300 3825 
Q 2941 4109 2438 4109 
Q 2016 4109 1675 3895 
Q 1334 3681 1139 3212 
Q 944 2744 944 2047 
Q 944 1472 1128 1050 
Q 1313 628 1683 403 
Q 2053 178 2528 178 
Q 2941 178 3256 354 
Q 3572 531 3950 1056 
L 4047 994 
Q 3728 428 3303 165 
Q 2878 -97 2294 -97 
Q 1241 -97 663 684 
Q 231 1266 231 2053 
Q 231 2688 515 3219 
Q 800 3750 1298 4042 
Q 1797 4334 2388 4334 
Q 2847 4334 3294 4109 
Q 3425 4041 3481 4041 
Q 3566 4041 3628 4100 
Q 3709 4184 3744 4334 
L 3853 4334 
z
" transform="scale(0.015625)"/>
      <path id="TimesNewRomanPSMT-49" d="M 1975 116 
L 1975 0 
L 159 0 
L 159 116 
L 309 116 
Q 572 116 691 269 
Q 766 369 766 750 
L 766 3488 
Q 766 3809 725 3913 
Q 694 3991 597 4047 
Q 459 4122 309 4122 
L 159 4122 
L 159 4238 
L 1975 4238 
L 1975 4122 
L 1822 4122 
Q 1563 4122 1444 3969 
Q 1366 3869 1366 3488 
L 1366 750 
Q 1366 428 1406 325 
Q 1438 247 1538 191 
Q 1672 116 1822 116 
L 1975 116 
z
" transform="scale(0.015625)"/>
      <path id="TimesNewRomanPSMT-64" d="M 2222 322 
Q 2013 103 1813 7 
Q 1613 -88 1381 -88 
Q 913 -88 563 304 
Q 213 697 213 1313 
Q 213 1928 600 2439 
Q 988 2950 1597 2950 
Q 1975 2950 2222 2709 
L 2222 3238 
Q 2222 3728 2198 3840 
Q 2175 3953 2125 3993 
Q 2075 4034 2000 4034 
Q 1919 4034 1784 3984 
L 1744 4094 
L 2597 4444 
L 2738 4444 
L 2738 1134 
Q 2738 631 2761 520 
Q 2784 409 2836 365 
Q 2888 322 2956 322 
Q 3041 322 3181 375 
L 3216 266 
L 2366 -88 
L 2222 -88 
L 2222 322 
z
M 2222 541 
L 2222 2016 
Q 2203 2228 2109 2403 
Q 2016 2578 1861 2667 
Q 1706 2756 1559 2756 
Q 1284 2756 1069 2509 
Q 784 2184 784 1559 
Q 784 928 1059 592 
Q 1334 256 1672 256 
Q 1956 256 2222 541 
z
" transform="scale(0.015625)"/>
      <path id="TimesNewRomanPSMT-6c" d="M 1184 4444 
L 1184 647 
Q 1184 378 1223 290 
Q 1263 203 1344 158 
Q 1425 113 1647 113 
L 1647 0 
L 244 0 
L 244 113 
Q 441 113 512 153 
Q 584 194 625 287 
Q 666 381 666 647 
L 666 3247 
Q 666 3731 644 3842 
Q 622 3953 573 3993 
Q 525 4034 450 4034 
Q 369 4034 244 3984 
L 191 4094 
L 1044 4444 
L 1184 4444 
z
" transform="scale(0.015625)"/>
      <path id="TimesNewRomanPSMT-28" d="M 1988 -1253 
L 1988 -1369 
Q 1516 -1131 1200 -813 
Q 750 -359 506 256 
Q 263 872 263 1534 
Q 263 2503 741 3301 
Q 1219 4100 1988 4444 
L 1988 4313 
Q 1603 4100 1356 3731 
Q 1109 3363 987 2797 
Q 866 2231 866 1616 
Q 866 947 969 400 
Q 1050 -31 1165 -292 
Q 1281 -553 1476 -793 
Q 1672 -1034 1988 -1253 
z
" transform="scale(0.015625)"/>
      <path id="TimesNewRomanPSMT-2b" d="M 1672 441 
L 1672 2000 
L 116 2000 
L 116 2256 
L 1672 2256 
L 1672 3809 
L 1922 3809 
L 1922 2256 
L 3484 2256 
L 3484 2000 
L 1922 2000 
L 1922 441 
L 1672 441 
z
" transform="scale(0.015625)"/>
      <path id="TimesNewRomanPSMT-29" d="M 144 4313 
L 144 4444 
Q 619 4209 934 3891 
Q 1381 3434 1625 2820 
Q 1869 2206 1869 1541 
Q 1869 572 1392 -226 
Q 916 -1025 144 -1369 
L 144 -1253 
Q 528 -1038 776 -670 
Q 1025 -303 1145 264 
Q 1266 831 1266 1447 
Q 1266 2113 1163 2663 
Q 1084 3094 967 3353 
Q 850 3613 656 3853 
Q 463 4094 144 4313 
z
" transform="scale(0.015625)"/>
      <path id="TimesNewRomanPSMT-2d" d="M 259 1672 
L 1875 1672 
L 1875 1200 
L 259 1200 
L 259 1672 
z
" transform="scale(0.015625)"/>
      <path id="TimesNewRomanPSMT-70" d="M -6 2578 
L 875 2934 
L 994 2934 
L 994 2266 
Q 1216 2644 1439 2795 
Q 1663 2947 1909 2947 
Q 2341 2947 2628 2609 
Q 2981 2197 2981 1534 
Q 2981 794 2556 309 
Q 2206 -88 1675 -88 
Q 1444 -88 1275 -22 
Q 1150 25 994 166 
L 994 -706 
Q 994 -1000 1030 -1079 
Q 1066 -1159 1155 -1206 
Q 1244 -1253 1478 -1253 
L 1478 -1369 
L -22 -1369 
L -22 -1253 
L 56 -1253 
Q 228 -1256 350 -1188 
Q 409 -1153 442 -1076 
Q 475 -1000 475 -688 
L 475 2019 
Q 475 2297 450 2372 
Q 425 2447 370 2484 
Q 316 2522 222 2522 
Q 147 2522 31 2478 
L -6 2578 
z
M 994 2081 
L 994 1013 
Q 994 666 1022 556 
Q 1066 375 1236 237 
Q 1406 100 1666 100 
Q 1978 100 2172 344 
Q 2425 663 2425 1241 
Q 2425 1897 2138 2250 
Q 1938 2494 1663 2494 
Q 1513 2494 1366 2419 
Q 1253 2363 994 2081 
z
" transform="scale(0.015625)"/>
      <path id="TimesNewRomanPSMT-76" d="M 53 2863 
L 1400 2863 
L 1400 2747 
L 1313 2747 
Q 1191 2747 1127 2687 
Q 1063 2628 1063 2528 
Q 1063 2419 1128 2269 
L 1794 688 
L 2463 2328 
Q 2534 2503 2534 2594 
Q 2534 2638 2509 2666 
Q 2475 2713 2422 2730 
Q 2369 2747 2206 2747 
L 2206 2863 
L 3141 2863 
L 3141 2747 
Q 2978 2734 2916 2681 
Q 2806 2588 2719 2369 
L 1703 -88 
L 1575 -88 
L 553 2328 
Q 484 2497 421 2570 
Q 359 2644 263 2694 
Q 209 2722 53 2747 
L 53 2863 
z
" transform="scale(0.015625)"/>
     </defs>
     <use xlink:href="#TimesNewRomanPSMT-41"/>
     <use xlink:href="#TimesNewRomanPSMT-63" transform="translate(72.216797 0)"/>
     <use xlink:href="#TimesNewRomanPSMT-63" transform="translate(116.601562 0)"/>
     <use xlink:href="#TimesNewRomanPSMT-75" transform="translate(160.986328 0)"/>
     <use xlink:href="#TimesNewRomanPSMT-72" transform="translate(210.986328 0)"/>
     <use xlink:href="#TimesNewRomanPSMT-61" transform="translate(244.287109 0)"/>
     <use xlink:href="#TimesNewRomanPSMT-63" transform="translate(288.671875 0)"/>
     <use xlink:href="#TimesNewRomanPSMT-79" transform="translate(333.056641 0)"/>
     <use xlink:href="#TimesNewRomanPSMT-20" transform="translate(383.056641 0)"/>
     <use xlink:href="#TimesNewRomanPSMT-6f" transform="translate(408.056641 0)"/>
     <use xlink:href="#TimesNewRomanPSMT-66" transform="translate(458.056641 0)"/>
     <use xlink:href="#TimesNewRomanPSMT-20" transform="translate(491.357422 0)"/>
     <use xlink:href="#TimesNewRomanPSMT-74" transform="translate(516.357422 0)"/>
     <use xlink:href="#TimesNewRomanPSMT-68" transform="translate(544.140625 0)"/>
     <use xlink:href="#TimesNewRomanPSMT-65" transform="translate(594.140625 0)"/>
     <use xlink:href="#TimesNewRomanPSMT-20" transform="translate(638.525391 0)"/>
     <use xlink:href="#TimesNewRomanPSMT-30" transform="translate(663.525391 0)"/>
     <use xlink:href="#TimesNewRomanPSMT-39" transform="translate(713.525391 0)"/>
     <use xlink:href="#TimesNewRomanPSMT-5f" transform="translate(763.525391 0)"/>
     <use xlink:href="#TimesNewRomanPSMT-30" transform="translate(813.525391 0)"/>
     <use xlink:href="#TimesNewRomanPSMT-37" transform="translate(863.525391 0)"/>
     <use xlink:href="#TimesNewRomanPSMT-5f" transform="translate(913.525391 0)"/>
     <use xlink:href="#TimesNewRomanPSMT-32" transform="translate(963.525391 0)"/>
     <use xlink:href="#TimesNewRomanPSMT-35" transform="translate(1013.525391 0)"/>
     <use xlink:href="#TimesNewRomanPSMT-5f" transform="translate(1063.525391 0)"/>
     <use xlink:href="#TimesNewRomanPSMT-43" transform="translate(1113.525391 0)"/>
     <use xlink:href="#TimesNewRomanPSMT-49" transform="translate(1180.224609 0)"/>
     <use xlink:href="#TimesNewRomanPSMT-4e" transform="translate(1213.525391 0)"/>
     <use xlink:href="#TimesNewRomanPSMT-49" transform="translate(1285.742188 0)"/>
     <use xlink:href="#TimesNewRomanPSMT-43" transform="translate(1319.042969 0)"/>
     <use xlink:href="#TimesNewRomanPSMT-31" transform="translate(1385.742188 0)"/>
     <use xlink:href="#TimesNewRomanPSMT-30" transform="translate(1435.742188 0)"/>
     <use xlink:href="#TimesNewRomanPSMT-5f" transform="translate(1485.742188 0)"/>
     <use xlink:href="#TimesNewRomanPSMT-74" transform="translate(1535.742188 0)"/>
     <use xlink:href="#TimesNewRomanPSMT-6f" transform="translate(1563.525391 0)"/>
     <use xlink:href="#TimesNewRomanPSMT-72" transform="translate(1613.525391 0)"/>
     <use xlink:href="#TimesNewRomanPSMT-63" transform="translate(1646.826172 0)"/>
     <use xlink:href="#TimesNewRomanPSMT-68" transform="translate(1691.210938 0)"/>
     <use xlink:href="#TimesNewRomanPSMT-5f" transform="translate(1741.210938 0)"/>
     <use xlink:href="#TimesNewRomanPSMT-6d" transform="translate(1791.210938 0)"/>
     <use xlink:href="#TimesNewRomanPSMT-6f" transform="translate(1868.994141 0)"/>
     <use xlink:href="#TimesNewRomanPSMT-64" transform="translate(1918.994141 0)"/>
     <use xlink:href="#TimesNewRomanPSMT-65" transform="translate(1968.994141 0)"/>
     <use xlink:href="#TimesNewRomanPSMT-6c" transform="translate(2013.378906 0)"/>
     <use xlink:href="#TimesNewRomanPSMT-5f" transform="translate(2041.162109 0)"/>
     <use xlink:href="#TimesNewRomanPSMT-28" transform="translate(2091.162109 0)"/>
     <use xlink:href="#TimesNewRomanPSMT-31" transform="translate(2124.462891 0)"/>
     <use xlink:href="#TimesNewRomanPSMT-30" transform="translate(2174.462891 0)"/>
     <use xlink:href="#TimesNewRomanPSMT-32" transform="translate(2224.462891 0)"/>
     <use xlink:href="#TimesNewRomanPSMT-34" transform="translate(2274.462891 0)"/>
     <use xlink:href="#TimesNewRomanPSMT-2b" transform="translate(2324.462891 0)"/>
     <use xlink:href="#TimesNewRomanPSMT-32" transform="translate(2380.859375 0)"/>
     <use xlink:href="#TimesNewRomanPSMT-30" transform="translate(2430.859375 0)"/>
     <use xlink:href="#TimesNewRomanPSMT-34" transform="translate(2480.859375 0)"/>
     <use xlink:href="#TimesNewRomanPSMT-38" transform="translate(2530.859375 0)"/>
     <use xlink:href="#TimesNewRomanPSMT-2e" transform="translate(2580.859375 0)"/>
     <use xlink:href="#TimesNewRomanPSMT-31" transform="translate(2605.859375 0)"/>
     <use xlink:href="#TimesNewRomanPSMT-2b" transform="translate(2655.859375 0)"/>
     <use xlink:href="#TimesNewRomanPSMT-31" transform="translate(2712.255859 0)"/>
     <use xlink:href="#TimesNewRomanPSMT-29" transform="translate(2762.255859 0)"/>
     <use xlink:href="#TimesNewRomanPSMT-5f" transform="translate(2795.556641 0)"/>
     <use xlink:href="#TimesNewRomanPSMT-63" transform="translate(2845.556641 0)"/>
     <use xlink:href="#TimesNewRomanPSMT-61" transform="translate(2889.941406 0)"/>
     <use xlink:href="#TimesNewRomanPSMT-72" transform="translate(2934.326172 0)"/>
     <use xlink:href="#TimesNewRomanPSMT-2d" transform="translate(2965.626953 0)"/>
     <use xlink:href="#TimesNewRomanPSMT-70" transform="translate(2998.927734 0)"/>
     <use xlink:href="#TimesNewRomanPSMT-6c" transform="translate(3048.927734 0)"/>
     <use xlink:href="#TimesNewRomanPSMT-61" transform="translate(3076.710938 0)"/>
     <use xlink:href="#TimesNewRomanPSMT-6e" transform="translate(3121.095703 0)"/>
     <use xlink:href="#TimesNewRomanPSMT-65" transform="translate(3171.095703 0)"/>
     <use xlink:href="#TimesNewRomanPSMT-20" transform="translate(3215.480469 0)"/>
     <use xlink:href="#TimesNewRomanPSMT-6f" transform="translate(3240.480469 0)"/>
     <use xlink:href="#TimesNewRomanPSMT-6e" transform="translate(3290.480469 0)"/>
     <use xlink:href="#TimesNewRomanPSMT-20" transform="translate(3340.480469 0)"/>
     <use xlink:href="#TimesNewRomanPSMT-74" transform="translate(3365.480469 0)"/>
     <use xlink:href="#TimesNewRomanPSMT-68" transform="translate(3393.263672 0)"/>
     <use xlink:href="#TimesNewRomanPSMT-65" transform="translate(3443.263672 0)"/>
     <use xlink:href="#TimesNewRomanPSMT-20" transform="translate(3487.648438 0)"/>
     <use xlink:href="#TimesNewRomanPSMT-76" transform="translate(3512.648438 0)"/>
     <use xlink:href="#TimesNewRomanPSMT-61" transform="translate(3562.648438 0)"/>
     <use xlink:href="#TimesNewRomanPSMT-6c" transform="translate(3607.033203 0)"/>
     <use xlink:href="#TimesNewRomanPSMT-69" transform="translate(3634.816406 0)"/>
     <use xlink:href="#TimesNewRomanPSMT-64" transform="translate(3662.599609 0)"/>
     <use xlink:href="#TimesNewRomanPSMT-61" transform="translate(3712.599609 0)"/>
     <use xlink:href="#TimesNewRomanPSMT-74" transform="translate(3756.984375 0)"/>
     <use xlink:href="#TimesNewRomanPSMT-69" transform="translate(3784.767578 0)"/>
     <use xlink:href="#TimesNewRomanPSMT-6f" transform="translate(3812.550781 0)"/>
     <use xlink:href="#TimesNewRomanPSMT-6e" transform="translate(3862.550781 0)"/>
     <use xlink:href="#TimesNewRomanPSMT-20" transform="translate(3912.550781 0)"/>
     <use xlink:href="#TimesNewRomanPSMT-73" transform="translate(3937.550781 0)"/>
     <use xlink:href="#TimesNewRomanPSMT-65" transform="translate(3976.466797 0)"/>
     <use xlink:href="#TimesNewRomanPSMT-74" transform="translate(4020.851562 0)"/>
    </g>
   </g>
   <g id="legend_1">
    <g id="patch_7">
     <path d="M 378.464687 300.6435 
L 615.635 300.6435 
Q 620.035 300.6435 620.035 296.2435 
L 620.035 267.296312 
Q 620.035 262.896312 615.635 262.896312 
L 378.464687 262.896312 
Q 374.064687 262.896312 374.064687 267.296312 
L 374.064687 296.2435 
Q 374.064687 300.6435 378.464687 300.6435 
z
" style="fill: #ffffff; opacity: 0.8; stroke: #cccccc; stroke-linejoin: miter"/>
    </g>
    <g id="line2d_34">
     <path d="M 382.864688 279.396312 
L 404.864688 279.396312 
L 426.864688 279.396312 
" style="fill: none; stroke: #1f77b4; stroke-width: 1.5; stroke-linecap: square"/>
    </g>
    <g id="text_20">
     <!-- Best accuracy 0.86 -->
     <g transform="translate(444.464688 287.096312) scale(0.22 -0.22)">
      <defs>
       <path id="TimesNewRomanPSMT-42" d="M 2956 2163 
Q 3397 2069 3616 1863 
Q 3919 1575 3919 1159 
Q 3919 844 3719 555 
Q 3519 266 3170 133 
Q 2822 0 2106 0 
L 106 0 
L 106 116 
L 266 116 
Q 531 116 647 284 
Q 719 394 719 750 
L 719 3488 
Q 719 3881 628 3984 
Q 506 4122 266 4122 
L 106 4122 
L 106 4238 
L 1938 4238 
Q 2450 4238 2759 4163 
Q 3228 4050 3475 3764 
Q 3722 3478 3722 3106 
Q 3722 2788 3528 2536 
Q 3334 2284 2956 2163 
z
M 1319 2331 
Q 1434 2309 1582 2298 
Q 1731 2288 1909 2288 
Q 2366 2288 2595 2386 
Q 2825 2484 2947 2687 
Q 3069 2891 3069 3131 
Q 3069 3503 2766 3765 
Q 2463 4028 1881 4028 
Q 1569 4028 1319 3959 
L 1319 2331 
z
M 1319 306 
Q 1681 222 2034 222 
Q 2600 222 2897 476 
Q 3194 731 3194 1106 
Q 3194 1353 3059 1581 
Q 2925 1809 2622 1940 
Q 2319 2072 1872 2072 
Q 1678 2072 1540 2065 
Q 1403 2059 1319 2044 
L 1319 306 
z
" transform="scale(0.015625)"/>
      </defs>
      <use xlink:href="#TimesNewRomanPSMT-42"/>
      <use xlink:href="#TimesNewRomanPSMT-65" transform="translate(66.699219 0)"/>
      <use xlink:href="#TimesNewRomanPSMT-73" transform="translate(111.083984 0)"/>
      <use xlink:href="#TimesNewRomanPSMT-74" transform="translate(150 0)"/>
      <use xlink:href="#TimesNewRomanPSMT-20" transform="translate(177.783203 0)"/>
      <use xlink:href="#TimesNewRomanPSMT-61" transform="translate(202.783203 0)"/>
      <use xlink:href="#TimesNewRomanPSMT-63" transform="translate(247.167969 0)"/>
      <use xlink:href="#TimesNewRomanPSMT-63" transform="translate(291.552734 0)"/>
      <use xlink:href="#TimesNewRomanPSMT-75" transform="translate(335.9375 0)"/>
      <use xlink:href="#TimesNewRomanPSMT-72" transform="translate(385.9375 0)"/>
      <use xlink:href="#TimesNewRomanPSMT-61" transform="translate(419.238281 0)"/>
      <use xlink:href="#TimesNewRomanPSMT-63" transform="translate(463.623047 0)"/>
      <use xlink:href="#TimesNewRomanPSMT-79" transform="translate(508.007812 0)"/>
      <use xlink:href="#TimesNewRomanPSMT-20" transform="translate(558.007812 0)"/>
      <use xlink:href="#TimesNewRomanPSMT-30" transform="translate(583.007812 0)"/>
      <use xlink:href="#TimesNewRomanPSMT-2e" transform="translate(633.007812 0)"/>
      <use xlink:href="#TimesNewRomanPSMT-38" transform="translate(658.007812 0)"/>
      <use xlink:href="#TimesNewRomanPSMT-36" transform="translate(708.007812 0)"/>
     </g>
    </g>
   </g>
  </g>
 </g>
 <defs>
  <clipPath id="pb252fb38e1">
   <rect x="363.064687" y="45.5315" width="357.12" height="266.112"/>
  </clipPath>
 </defs>
</svg>
