<?xml version="1.0" encoding="utf-8" standalone="no"?>
<!DOCTYPE svg PUBLIC "-//W3C//DTD SVG 1.1//EN"
  "http://www.w3.org/Graphics/SVG/1.1/DTD/svg11.dtd">
<svg xmlns:xlink="http://www.w3.org/1999/xlink" width="1139.308125pt" height="383.265687pt" viewBox="0 0 1139.308125 383.265687" xmlns="http://www.w3.org/2000/svg" version="1.1">
 <metadata>
  <rdf:RDF xmlns:dc="http://purl.org/dc/elements/1.1/" xmlns:cc="http://creativecommons.org/ns#" xmlns:rdf="http://www.w3.org/1999/02/22-rdf-syntax-ns#">
   <cc:Work>
    <dc:type rdf:resource="http://purl.org/dc/dcmitype/StillImage"/>
    <dc:date>2025-07-11T05:00:51.018626</dc:date>
    <dc:format>image/svg+xml</dc:format>
    <dc:creator>
     <cc:Agent>
      <dc:title>Matplotlib v3.10.3, https://matplotlib.org/</dc:title>
     </cc:Agent>
    </dc:creator>
   </cc:Work>
  </rdf:RDF>
 </metadata>
 <defs>
  <style type="text/css">*{stroke-linejoin: round; stroke-linecap: butt}</style>
 </defs>
 <g id="figure_1">
  <g id="patch_1">
   <path d="M -0 383.265687 
L 1139.308125 383.265687 
L 1139.308125 0 
L -0 0 
z
" style="fill: #ffffff"/>
  </g>
  <g id="axes_1">
   <g id="patch_2">
    <path d="M 391.094063 311.6435 
L 748.214063 311.6435 
L 748.214063 45.5315 
L 391.094063 45.5315 
z
" style="fill: #ffffff"/>
   </g>
   <g id="matplotlib.axis_1">
    <g id="xtick_1">
     <g id="line2d_1">
      <path d="M 391.094063 311.6435 
L 391.094063 45.5315 
" clip-path="url(#p273c5de185)" style="fill: none; stroke: #b0b0b0; stroke-opacity: 0.3; stroke-width: 0.8; stroke-linecap: square"/>
     </g>
     <g id="line2d_2">
      <defs>
       <path id="m19f2ae5fa4" d="M 0 0 
L 0 3.5 
" style="stroke: #000000; stroke-width: 0.8"/>
      </defs>
      <g>
       <use xlink:href="#m19f2ae5fa4" x="391.094063" y="311.6435" style="stroke: #000000; stroke-width: 0.8"/>
      </g>
     </g>
     <g id="text_1">
      <!-- 0.0 -->
      <g transform="translate(377.344063 333.91975) scale(0.22 -0.22)">
       <defs>
        <path id="TimesNewRomanPSMT-30" d="M 231 2094 
Q 231 2819 450 3342 
Q 669 3866 1031 4122 
Q 1313 4325 1613 4325 
Q 2100 4325 2488 3828 
Q 2972 3213 2972 2159 
Q 2972 1422 2759 906 
Q 2547 391 2217 158 
Q 1888 -75 1581 -75 
Q 975 -75 572 641 
Q 231 1244 231 2094 
z
M 844 2016 
Q 844 1141 1059 588 
Q 1238 122 1591 122 
Q 1759 122 1940 273 
Q 2122 425 2216 781 
Q 2359 1319 2359 2297 
Q 2359 3022 2209 3506 
Q 2097 3866 1919 4016 
Q 1791 4119 1609 4119 
Q 1397 4119 1231 3928 
Q 1006 3669 925 3112 
Q 844 2556 844 2016 
z
" transform="scale(0.015625)"/>
        <path id="TimesNewRomanPSMT-2e" d="M 800 606 
Q 947 606 1047 504 
Q 1147 403 1147 259 
Q 1147 116 1045 14 
Q 944 -88 800 -88 
Q 656 -88 554 14 
Q 453 116 453 259 
Q 453 406 554 506 
Q 656 606 800 606 
z
" transform="scale(0.015625)"/>
       </defs>
       <use xlink:href="#TimesNewRomanPSMT-30"/>
       <use xlink:href="#TimesNewRomanPSMT-2e" transform="translate(50 0)"/>
       <use xlink:href="#TimesNewRomanPSMT-30" transform="translate(75 0)"/>
      </g>
     </g>
    </g>
    <g id="xtick_2">
     <g id="line2d_3">
      <path d="M 506.609536 311.6435 
L 506.609536 45.5315 
" clip-path="url(#p273c5de185)" style="fill: none; stroke: #b0b0b0; stroke-opacity: 0.3; stroke-width: 0.8; stroke-linecap: square"/>
     </g>
     <g id="line2d_4">
      <g>
       <use xlink:href="#m19f2ae5fa4" x="506.609536" y="311.6435" style="stroke: #000000; stroke-width: 0.8"/>
      </g>
     </g>
     <g id="text_2">
      <!-- 0.5 -->
      <g transform="translate(492.859536 333.91975) scale(0.22 -0.22)">
       <defs>
        <path id="TimesNewRomanPSMT-35" d="M 2778 4238 
L 2534 3706 
L 1259 3706 
L 981 3138 
Q 1809 3016 2294 2522 
Q 2709 2097 2709 1522 
Q 2709 1188 2573 903 
Q 2438 619 2231 419 
Q 2025 219 1772 97 
Q 1413 -75 1034 -75 
Q 653 -75 479 54 
Q 306 184 306 341 
Q 306 428 378 495 
Q 450 563 559 563 
Q 641 563 702 538 
Q 763 513 909 409 
Q 1144 247 1384 247 
Q 1750 247 2026 523 
Q 2303 800 2303 1197 
Q 2303 1581 2056 1914 
Q 1809 2247 1375 2428 
Q 1034 2569 447 2591 
L 1259 4238 
L 2778 4238 
z
" transform="scale(0.015625)"/>
       </defs>
       <use xlink:href="#TimesNewRomanPSMT-30"/>
       <use xlink:href="#TimesNewRomanPSMT-2e" transform="translate(50 0)"/>
       <use xlink:href="#TimesNewRomanPSMT-35" transform="translate(75 0)"/>
      </g>
     </g>
    </g>
    <g id="xtick_3">
     <g id="line2d_5">
      <path d="M 622.125009 311.6435 
L 622.125009 45.5315 
" clip-path="url(#p273c5de185)" style="fill: none; stroke: #b0b0b0; stroke-opacity: 0.3; stroke-width: 0.8; stroke-linecap: square"/>
     </g>
     <g id="line2d_6">
      <g>
       <use xlink:href="#m19f2ae5fa4" x="622.125009" y="311.6435" style="stroke: #000000; stroke-width: 0.8"/>
      </g>
     </g>
     <g id="text_3">
      <!-- 1.0 -->
      <g transform="translate(608.375009 333.91975) scale(0.22 -0.22)">
       <defs>
        <path id="TimesNewRomanPSMT-31" d="M 750 3822 
L 1781 4325 
L 1884 4325 
L 1884 747 
Q 1884 391 1914 303 
Q 1944 216 2037 169 
Q 2131 122 2419 116 
L 2419 0 
L 825 0 
L 825 116 
Q 1125 122 1212 167 
Q 1300 213 1334 289 
Q 1369 366 1369 747 
L 1369 3034 
Q 1369 3497 1338 3628 
Q 1316 3728 1258 3775 
Q 1200 3822 1119 3822 
Q 1003 3822 797 3725 
L 750 3822 
z
" transform="scale(0.015625)"/>
       </defs>
       <use xlink:href="#TimesNewRomanPSMT-31"/>
       <use xlink:href="#TimesNewRomanPSMT-2e" transform="translate(50 0)"/>
       <use xlink:href="#TimesNewRomanPSMT-30" transform="translate(75 0)"/>
      </g>
     </g>
    </g>
    <g id="xtick_4">
     <g id="line2d_7">
      <path d="M 737.640482 311.6435 
L 737.640482 45.5315 
" clip-path="url(#p273c5de185)" style="fill: none; stroke: #b0b0b0; stroke-opacity: 0.3; stroke-width: 0.8; stroke-linecap: square"/>
     </g>
     <g id="line2d_8">
      <g>
       <use xlink:href="#m19f2ae5fa4" x="737.640482" y="311.6435" style="stroke: #000000; stroke-width: 0.8"/>
      </g>
     </g>
     <g id="text_4">
      <!-- 1.5 -->
      <g transform="translate(723.890482 333.91975) scale(0.22 -0.22)">
       <use xlink:href="#TimesNewRomanPSMT-31"/>
       <use xlink:href="#TimesNewRomanPSMT-2e" transform="translate(50 0)"/>
       <use xlink:href="#TimesNewRomanPSMT-35" transform="translate(75 0)"/>
      </g>
     </g>
    </g>
    <g id="text_5">
     <!-- $\kappa  = \frac{ln(n)}{ln(d)}$ -->
     <g transform="translate(537.644063 364.185687) scale(0.22 -0.22)">
      <defs>
       <path id="STIXGeneral-Italic-3ba" d="M 979 1440 
L 998 1446 
Q 1850 2541 2464 2790 
Q 2547 2822 2630 2822 
Q 2797 2822 2886 2736 
Q 2976 2650 2976 2522 
Q 2976 2387 2893 2307 
Q 2810 2227 2682 2227 
Q 2605 2227 2502 2288 
Q 2400 2349 2336 2349 
Q 2170 2349 1990 2205 
Q 1811 2061 1414 1645 
L 2042 544 
Q 2202 262 2310 182 
Q 2419 102 2624 102 
L 2624 0 
Q 2374 -83 2182 -83 
Q 1786 -83 1555 326 
L 960 1350 
L 576 0 
L 90 0 
L 640 1978 
Q 730 2317 730 2406 
Q 730 2560 518 2560 
L 339 2560 
L 339 2650 
Q 678 2694 1306 2822 
L 1325 2803 
L 979 1440 
z
" transform="scale(0.015625)"/>
       <path id="STIXGeneral-Regular-3d" d="M 4077 2048 
L 307 2048 
L 307 2470 
L 4077 2470 
L 4077 2048 
z
M 4077 768 
L 307 768 
L 307 1190 
L 4077 1190 
L 4077 768 
z
" transform="scale(0.015625)"/>
       <path id="STIXGeneral-Italic-6c" d="M 1786 4339 
L 806 595 
Q 755 410 755 320 
Q 755 205 864 205 
Q 1037 205 1293 570 
L 1453 794 
L 1542 730 
Q 1254 275 1046 102 
Q 838 -70 576 -70 
Q 262 -70 262 288 
Q 262 397 288 480 
L 1165 3834 
Q 1184 3898 1184 3955 
Q 1184 4096 870 4096 
L 755 4096 
L 755 4198 
Q 1203 4250 1747 4371 
L 1786 4339 
z
" transform="scale(0.015625)"/>
       <path id="STIXGeneral-Italic-6e" d="M 2944 749 
L 3034 666 
Q 2707 218 2534 80 
Q 2362 -58 2138 -58 
Q 2010 -58 1923 28 
Q 1837 115 1837 288 
Q 1837 390 1939 768 
L 2221 1805 
Q 2310 2150 2310 2310 
Q 2310 2496 2157 2496 
Q 1971 2496 1750 2275 
Q 1530 2054 1210 1587 
Q 998 1274 899 1024 
Q 800 774 570 0 
L 90 0 
L 704 2240 
Q 717 2304 717 2349 
Q 717 2445 630 2480 
Q 544 2515 301 2522 
L 301 2624 
Q 550 2675 857 2729 
Q 1165 2784 1338 2822 
L 1363 2810 
L 934 1414 
Q 1408 2170 1753 2496 
Q 2099 2822 2413 2822 
Q 2611 2822 2720 2716 
Q 2829 2611 2829 2432 
Q 2829 2272 2765 2048 
L 2406 749 
Q 2317 429 2317 358 
Q 2317 243 2419 243 
Q 2541 243 2810 582 
Q 2854 634 2944 749 
z
" transform="scale(0.015625)"/>
       <path id="STIXGeneral-Regular-28" d="M 1946 -1030 
L 1869 -1133 
Q 1126 -710 716 32 
Q 307 774 307 1613 
Q 307 3386 1888 4326 
L 1946 4224 
Q 1293 3667 1075 3126 
Q 858 2586 858 1632 
Q 858 685 1082 96 
Q 1306 -493 1946 -1030 
z
" transform="scale(0.015625)"/>
       <path id="STIXGeneral-Regular-29" d="M 186 4224 
L 262 4326 
Q 992 3891 1408 3148 
Q 1824 2406 1824 1581 
Q 1824 -166 243 -1133 
L 186 -1030 
Q 845 -486 1059 54 
Q 1274 595 1274 1562 
Q 1274 2534 1059 3120 
Q 845 3706 186 4224 
z
" transform="scale(0.015625)"/>
       <path id="STIXGeneral-Italic-64" d="M 3334 4371 
L 3373 4333 
L 3123 3360 
L 2739 1958 
Q 2323 429 2323 384 
Q 2323 256 2438 256 
Q 2522 256 2614 336 
Q 2707 416 2963 710 
L 3040 646 
Q 2547 -83 2099 -83 
Q 1978 -83 1907 -6 
Q 1837 70 1837 205 
Q 1837 397 1920 774 
Q 1645 307 1379 118 
Q 1114 -70 781 -70 
Q 461 -70 278 125 
Q 96 320 96 678 
Q 96 1440 713 2131 
Q 1331 2822 1965 2822 
Q 2163 2822 2256 2732 
Q 2349 2643 2381 2451 
L 2387 2451 
L 2675 3494 
Q 2765 3808 2765 3949 
Q 2765 4051 2694 4076 
Q 2624 4102 2355 4115 
L 2355 4224 
Q 2848 4269 3334 4371 
z
M 2278 2310 
Q 2278 2477 2185 2576 
Q 2093 2675 1978 2675 
Q 1677 2675 1395 2381 
Q 1075 2042 864 1571 
Q 653 1101 653 704 
Q 653 486 752 361 
Q 851 237 1024 237 
Q 1312 237 1606 550 
Q 1901 864 2089 1350 
Q 2278 1837 2278 2310 
z
" transform="scale(0.015625)"/>
      </defs>
      <use xlink:href="#STIXGeneral-Italic-3ba" transform="translate(0 0.003125)"/>
      <use xlink:href="#STIXGeneral-Regular-3d" transform="translate(58.83999 0.003125)"/>
      <use xlink:href="#STIXGeneral-Italic-6c" transform="translate(141.779971 50.192188) scale(0.7)"/>
      <use xlink:href="#STIXGeneral-Italic-6e" transform="translate(161.239963 50.192188) scale(0.7)"/>
      <use xlink:href="#STIXGeneral-Regular-28" transform="translate(196.239952 50.192188) scale(0.7)"/>
      <use xlink:href="#STIXGeneral-Italic-6e" transform="translate(219.549944 50.192188) scale(0.7)"/>
      <use xlink:href="#STIXGeneral-Regular-29" transform="translate(254.549933 50.192188) scale(0.7)"/>
      <use xlink:href="#STIXGeneral-Italic-6c" transform="translate(141.779971 -41.257812) scale(0.7)"/>
      <use xlink:href="#STIXGeneral-Italic-6e" transform="translate(161.239963 -41.257812) scale(0.7)"/>
      <use xlink:href="#STIXGeneral-Regular-28" transform="translate(196.239952 -41.257812) scale(0.7)"/>
      <use xlink:href="#STIXGeneral-Italic-64" transform="translate(219.549944 -41.257812) scale(0.7)"/>
      <use xlink:href="#STIXGeneral-Regular-29" transform="translate(254.549933 -41.257812) scale(0.7)"/>
      <path d="M 141.779971 12.8 
L 141.779971 19.05 
L 277.859924 19.05 
L 277.859924 12.8 
L 141.779971 12.8 
z
"/>
     </g>
    </g>
   </g>
   <g id="matplotlib.axis_2">
    <g id="ytick_1">
     <g id="line2d_9">
      <path d="M 391.094063 311.6435 
L 748.214063 311.6435 
" clip-path="url(#p273c5de185)" style="fill: none; stroke: #b0b0b0; stroke-opacity: 0.3; stroke-width: 0.8; stroke-linecap: square"/>
     </g>
     <g id="line2d_10">
      <defs>
       <path id="m69836eff9b" d="M 0 0 
L -3.5 0 
" style="stroke: #000000; stroke-width: 0.8"/>
      </defs>
      <g>
       <use xlink:href="#m69836eff9b" x="391.094063" y="311.6435" style="stroke: #000000; stroke-width: 0.8"/>
      </g>
     </g>
     <g id="text_6">
      <!-- 0.0 -->
      <g transform="translate(356.594063 319.281625) scale(0.22 -0.22)">
       <use xlink:href="#TimesNewRomanPSMT-30"/>
       <use xlink:href="#TimesNewRomanPSMT-2e" transform="translate(50 0)"/>
       <use xlink:href="#TimesNewRomanPSMT-30" transform="translate(75 0)"/>
      </g>
     </g>
    </g>
    <g id="ytick_2">
     <g id="line2d_11">
      <path d="M 391.094063 285.0323 
L 748.214063 285.0323 
" clip-path="url(#p273c5de185)" style="fill: none; stroke: #b0b0b0; stroke-opacity: 0.3; stroke-width: 0.8; stroke-linecap: square"/>
     </g>
     <g id="line2d_12">
      <g>
       <use xlink:href="#m69836eff9b" x="391.094063" y="285.0323" style="stroke: #000000; stroke-width: 0.8"/>
      </g>
     </g>
     <g id="text_7">
      <!-- 0.1 -->
      <g transform="translate(356.594063 292.670425) scale(0.22 -0.22)">
       <use xlink:href="#TimesNewRomanPSMT-30"/>
       <use xlink:href="#TimesNewRomanPSMT-2e" transform="translate(50 0)"/>
       <use xlink:href="#TimesNewRomanPSMT-31" transform="translate(75 0)"/>
      </g>
     </g>
    </g>
    <g id="ytick_3">
     <g id="line2d_13">
      <path d="M 391.094063 258.4211 
L 748.214063 258.4211 
" clip-path="url(#p273c5de185)" style="fill: none; stroke: #b0b0b0; stroke-opacity: 0.3; stroke-width: 0.8; stroke-linecap: square"/>
     </g>
     <g id="line2d_14">
      <g>
       <use xlink:href="#m69836eff9b" x="391.094063" y="258.4211" style="stroke: #000000; stroke-width: 0.8"/>
      </g>
     </g>
     <g id="text_8">
      <!-- 0.2 -->
      <g transform="translate(356.594063 266.059225) scale(0.22 -0.22)">
       <defs>
        <path id="TimesNewRomanPSMT-32" d="M 2934 816 
L 2638 0 
L 138 0 
L 138 116 
Q 1241 1122 1691 1759 
Q 2141 2397 2141 2925 
Q 2141 3328 1894 3587 
Q 1647 3847 1303 3847 
Q 991 3847 742 3664 
Q 494 3481 375 3128 
L 259 3128 
Q 338 3706 661 4015 
Q 984 4325 1469 4325 
Q 1984 4325 2329 3994 
Q 2675 3663 2675 3213 
Q 2675 2891 2525 2569 
Q 2294 2063 1775 1497 
Q 997 647 803 472 
L 1909 472 
Q 2247 472 2383 497 
Q 2519 522 2628 598 
Q 2738 675 2819 816 
L 2934 816 
z
" transform="scale(0.015625)"/>
       </defs>
       <use xlink:href="#TimesNewRomanPSMT-30"/>
       <use xlink:href="#TimesNewRomanPSMT-2e" transform="translate(50 0)"/>
       <use xlink:href="#TimesNewRomanPSMT-32" transform="translate(75 0)"/>
      </g>
     </g>
    </g>
    <g id="ytick_4">
     <g id="line2d_15">
      <path d="M 391.094063 231.8099 
L 748.214063 231.8099 
" clip-path="url(#p273c5de185)" style="fill: none; stroke: #b0b0b0; stroke-opacity: 0.3; stroke-width: 0.8; stroke-linecap: square"/>
     </g>
     <g id="line2d_16">
      <g>
       <use xlink:href="#m69836eff9b" x="391.094063" y="231.8099" style="stroke: #000000; stroke-width: 0.8"/>
      </g>
     </g>
     <g id="text_9">
      <!-- 0.3 -->
      <g transform="translate(356.594063 239.448025) scale(0.22 -0.22)">
       <defs>
        <path id="TimesNewRomanPSMT-33" d="M 325 3431 
Q 506 3859 782 4092 
Q 1059 4325 1472 4325 
Q 1981 4325 2253 3994 
Q 2459 3747 2459 3466 
Q 2459 3003 1878 2509 
Q 2269 2356 2469 2072 
Q 2669 1788 2669 1403 
Q 2669 853 2319 450 
Q 1863 -75 997 -75 
Q 569 -75 414 31 
Q 259 138 259 259 
Q 259 350 332 419 
Q 406 488 509 488 
Q 588 488 669 463 
Q 722 447 909 348 
Q 1097 250 1169 231 
Q 1284 197 1416 197 
Q 1734 197 1970 444 
Q 2206 691 2206 1028 
Q 2206 1275 2097 1509 
Q 2016 1684 1919 1775 
Q 1784 1900 1550 2001 
Q 1316 2103 1072 2103 
L 972 2103 
L 972 2197 
Q 1219 2228 1467 2375 
Q 1716 2522 1828 2728 
Q 1941 2934 1941 3181 
Q 1941 3503 1739 3701 
Q 1538 3900 1238 3900 
Q 753 3900 428 3381 
L 325 3431 
z
" transform="scale(0.015625)"/>
       </defs>
       <use xlink:href="#TimesNewRomanPSMT-30"/>
       <use xlink:href="#TimesNewRomanPSMT-2e" transform="translate(50 0)"/>
       <use xlink:href="#TimesNewRomanPSMT-33" transform="translate(75 0)"/>
      </g>
     </g>
    </g>
    <g id="ytick_5">
     <g id="line2d_17">
      <path d="M 391.094063 205.1987 
L 748.214063 205.1987 
" clip-path="url(#p273c5de185)" style="fill: none; stroke: #b0b0b0; stroke-opacity: 0.3; stroke-width: 0.8; stroke-linecap: square"/>
     </g>
     <g id="line2d_18">
      <g>
       <use xlink:href="#m69836eff9b" x="391.094063" y="205.1987" style="stroke: #000000; stroke-width: 0.8"/>
      </g>
     </g>
     <g id="text_10">
      <!-- 0.4 -->
      <g transform="translate(356.594063 212.836825) scale(0.22 -0.22)">
       <defs>
        <path id="TimesNewRomanPSMT-34" d="M 2978 1563 
L 2978 1119 
L 2409 1119 
L 2409 0 
L 1894 0 
L 1894 1119 
L 100 1119 
L 100 1519 
L 2066 4325 
L 2409 4325 
L 2409 1563 
L 2978 1563 
z
M 1894 1563 
L 1894 3666 
L 406 1563 
L 1894 1563 
z
" transform="scale(0.015625)"/>
       </defs>
       <use xlink:href="#TimesNewRomanPSMT-30"/>
       <use xlink:href="#TimesNewRomanPSMT-2e" transform="translate(50 0)"/>
       <use xlink:href="#TimesNewRomanPSMT-34" transform="translate(75 0)"/>
      </g>
     </g>
    </g>
    <g id="ytick_6">
     <g id="line2d_19">
      <path d="M 391.094063 178.5875 
L 748.214063 178.5875 
" clip-path="url(#p273c5de185)" style="fill: none; stroke: #b0b0b0; stroke-opacity: 0.3; stroke-width: 0.8; stroke-linecap: square"/>
     </g>
     <g id="line2d_20">
      <g>
       <use xlink:href="#m69836eff9b" x="391.094063" y="178.5875" style="stroke: #000000; stroke-width: 0.8"/>
      </g>
     </g>
     <g id="text_11">
      <!-- 0.5 -->
      <g transform="translate(356.594063 186.225625) scale(0.22 -0.22)">
       <use xlink:href="#TimesNewRomanPSMT-30"/>
       <use xlink:href="#TimesNewRomanPSMT-2e" transform="translate(50 0)"/>
       <use xlink:href="#TimesNewRomanPSMT-35" transform="translate(75 0)"/>
      </g>
     </g>
    </g>
    <g id="ytick_7">
     <g id="line2d_21">
      <path d="M 391.094063 151.9763 
L 748.214063 151.9763 
" clip-path="url(#p273c5de185)" style="fill: none; stroke: #b0b0b0; stroke-opacity: 0.3; stroke-width: 0.8; stroke-linecap: square"/>
     </g>
     <g id="line2d_22">
      <g>
       <use xlink:href="#m69836eff9b" x="391.094063" y="151.9763" style="stroke: #000000; stroke-width: 0.8"/>
      </g>
     </g>
     <g id="text_12">
      <!-- 0.6 -->
      <g transform="translate(356.594063 159.614425) scale(0.22 -0.22)">
       <defs>
        <path id="TimesNewRomanPSMT-36" d="M 2869 4325 
L 2869 4209 
Q 2456 4169 2195 4045 
Q 1934 3922 1679 3669 
Q 1425 3416 1258 3105 
Q 1091 2794 978 2366 
Q 1428 2675 1881 2675 
Q 2316 2675 2634 2325 
Q 2953 1975 2953 1425 
Q 2953 894 2631 456 
Q 2244 -75 1606 -75 
Q 1172 -75 869 213 
Q 275 772 275 1663 
Q 275 2231 503 2743 
Q 731 3256 1154 3653 
Q 1578 4050 1965 4187 
Q 2353 4325 2688 4325 
L 2869 4325 
z
M 925 2138 
Q 869 1716 869 1456 
Q 869 1156 980 804 
Q 1091 453 1309 247 
Q 1469 100 1697 100 
Q 1969 100 2183 356 
Q 2397 613 2397 1088 
Q 2397 1622 2184 2012 
Q 1972 2403 1581 2403 
Q 1463 2403 1327 2353 
Q 1191 2303 925 2138 
z
" transform="scale(0.015625)"/>
       </defs>
       <use xlink:href="#TimesNewRomanPSMT-30"/>
       <use xlink:href="#TimesNewRomanPSMT-2e" transform="translate(50 0)"/>
       <use xlink:href="#TimesNewRomanPSMT-36" transform="translate(75 0)"/>
      </g>
     </g>
    </g>
    <g id="ytick_8">
     <g id="line2d_23">
      <path d="M 391.094063 125.3651 
L 748.214063 125.3651 
" clip-path="url(#p273c5de185)" style="fill: none; stroke: #b0b0b0; stroke-opacity: 0.3; stroke-width: 0.8; stroke-linecap: square"/>
     </g>
     <g id="line2d_24">
      <g>
       <use xlink:href="#m69836eff9b" x="391.094063" y="125.3651" style="stroke: #000000; stroke-width: 0.8"/>
      </g>
     </g>
     <g id="text_13">
      <!-- 0.7 -->
      <g transform="translate(356.594063 133.003225) scale(0.22 -0.22)">
       <defs>
        <path id="TimesNewRomanPSMT-37" d="M 644 4238 
L 2916 4238 
L 2916 4119 
L 1503 -88 
L 1153 -88 
L 2419 3728 
L 1253 3728 
Q 900 3728 750 3644 
Q 488 3500 328 3200 
L 238 3234 
L 644 4238 
z
" transform="scale(0.015625)"/>
       </defs>
       <use xlink:href="#TimesNewRomanPSMT-30"/>
       <use xlink:href="#TimesNewRomanPSMT-2e" transform="translate(50 0)"/>
       <use xlink:href="#TimesNewRomanPSMT-37" transform="translate(75 0)"/>
      </g>
     </g>
    </g>
    <g id="ytick_9">
     <g id="line2d_25">
      <path d="M 391.094063 98.7539 
L 748.214063 98.7539 
" clip-path="url(#p273c5de185)" style="fill: none; stroke: #b0b0b0; stroke-opacity: 0.3; stroke-width: 0.8; stroke-linecap: square"/>
     </g>
     <g id="line2d_26">
      <g>
       <use xlink:href="#m69836eff9b" x="391.094063" y="98.7539" style="stroke: #000000; stroke-width: 0.8"/>
      </g>
     </g>
     <g id="text_14">
      <!-- 0.8 -->
      <g transform="translate(356.594063 106.392025) scale(0.22 -0.22)">
       <defs>
        <path id="TimesNewRomanPSMT-38" d="M 1228 2134 
Q 725 2547 579 2797 
Q 434 3047 434 3316 
Q 434 3728 753 4026 
Q 1072 4325 1600 4325 
Q 2113 4325 2425 4047 
Q 2738 3769 2738 3413 
Q 2738 3175 2569 2928 
Q 2400 2681 1866 2347 
Q 2416 1922 2594 1678 
Q 2831 1359 2831 1006 
Q 2831 559 2490 242 
Q 2150 -75 1597 -75 
Q 994 -75 656 303 
Q 388 606 388 966 
Q 388 1247 577 1523 
Q 766 1800 1228 2134 
z
M 1719 2469 
Q 2094 2806 2194 3001 
Q 2294 3197 2294 3444 
Q 2294 3772 2109 3958 
Q 1925 4144 1606 4144 
Q 1288 4144 1088 3959 
Q 888 3775 888 3528 
Q 888 3366 970 3203 
Q 1053 3041 1206 2894 
L 1719 2469 
z
M 1375 2016 
Q 1116 1797 991 1539 
Q 866 1281 866 981 
Q 866 578 1086 336 
Q 1306 94 1647 94 
Q 1984 94 2187 284 
Q 2391 475 2391 747 
Q 2391 972 2272 1150 
Q 2050 1481 1375 2016 
z
" transform="scale(0.015625)"/>
       </defs>
       <use xlink:href="#TimesNewRomanPSMT-30"/>
       <use xlink:href="#TimesNewRomanPSMT-2e" transform="translate(50 0)"/>
       <use xlink:href="#TimesNewRomanPSMT-38" transform="translate(75 0)"/>
      </g>
     </g>
    </g>
    <g id="ytick_10">
     <g id="line2d_27">
      <path d="M 391.094063 72.1427 
L 748.214063 72.1427 
" clip-path="url(#p273c5de185)" style="fill: none; stroke: #b0b0b0; stroke-opacity: 0.3; stroke-width: 0.8; stroke-linecap: square"/>
     </g>
     <g id="line2d_28">
      <g>
       <use xlink:href="#m69836eff9b" x="391.094063" y="72.1427" style="stroke: #000000; stroke-width: 0.8"/>
      </g>
     </g>
     <g id="text_15">
      <!-- 0.9 -->
      <g transform="translate(356.594063 79.780825) scale(0.22 -0.22)">
       <defs>
        <path id="TimesNewRomanPSMT-39" d="M 338 -88 
L 338 28 
Q 744 34 1094 217 
Q 1444 400 1770 856 
Q 2097 1313 2225 1859 
Q 1734 1544 1338 1544 
Q 891 1544 572 1889 
Q 253 2234 253 2806 
Q 253 3363 572 3797 
Q 956 4325 1575 4325 
Q 2097 4325 2469 3894 
Q 2925 3359 2925 2575 
Q 2925 1869 2578 1258 
Q 2231 647 1613 244 
Q 1109 -88 516 -88 
L 338 -88 
z
M 2275 2091 
Q 2331 2497 2331 2741 
Q 2331 3044 2228 3395 
Q 2125 3747 1936 3934 
Q 1747 4122 1506 4122 
Q 1228 4122 1018 3872 
Q 809 3622 809 3128 
Q 809 2469 1088 2097 
Q 1291 1828 1588 1828 
Q 1731 1828 1928 1897 
Q 2125 1966 2275 2091 
z
" transform="scale(0.015625)"/>
       </defs>
       <use xlink:href="#TimesNewRomanPSMT-30"/>
       <use xlink:href="#TimesNewRomanPSMT-2e" transform="translate(50 0)"/>
       <use xlink:href="#TimesNewRomanPSMT-39" transform="translate(75 0)"/>
      </g>
     </g>
    </g>
    <g id="ytick_11">
     <g id="line2d_29">
      <path d="M 391.094063 45.5315 
L 748.214063 45.5315 
" clip-path="url(#p273c5de185)" style="fill: none; stroke: #b0b0b0; stroke-opacity: 0.3; stroke-width: 0.8; stroke-linecap: square"/>
     </g>
     <g id="line2d_30">
      <g>
       <use xlink:href="#m69836eff9b" x="391.094063" y="45.5315" style="stroke: #000000; stroke-width: 0.8"/>
      </g>
     </g>
     <g id="text_16">
      <!-- 1.0 -->
      <g transform="translate(356.594063 53.169625) scale(0.22 -0.22)">
       <use xlink:href="#TimesNewRomanPSMT-31"/>
       <use xlink:href="#TimesNewRomanPSMT-2e" transform="translate(50 0)"/>
       <use xlink:href="#TimesNewRomanPSMT-30" transform="translate(75 0)"/>
      </g>
     </g>
    </g>
    <g id="text_17">
     <!-- Accuracy -->
     <g transform="translate(347.846875 220.726094) rotate(-90) scale(0.22 -0.22)">
      <defs>
       <path id="TimesNewRomanPSMT-41" d="M 2928 1419 
L 1288 1419 
L 1000 750 
Q 894 503 894 381 
Q 894 284 986 211 
Q 1078 138 1384 116 
L 1384 0 
L 50 0 
L 50 116 
Q 316 163 394 238 
Q 553 388 747 847 
L 2238 4334 
L 2347 4334 
L 3822 809 
Q 4000 384 4145 257 
Q 4291 131 4550 116 
L 4550 0 
L 2878 0 
L 2878 116 
Q 3131 128 3220 200 
Q 3309 272 3309 375 
Q 3309 513 3184 809 
L 2928 1419 
z
M 2841 1650 
L 2122 3363 
L 1384 1650 
L 2841 1650 
z
" transform="scale(0.015625)"/>
       <path id="TimesNewRomanPSMT-63" d="M 2631 1088 
Q 2516 522 2178 217 
Q 1841 -88 1431 -88 
Q 944 -88 581 321 
Q 219 731 219 1428 
Q 219 2103 620 2525 
Q 1022 2947 1584 2947 
Q 2006 2947 2278 2723 
Q 2550 2500 2550 2259 
Q 2550 2141 2473 2067 
Q 2397 1994 2259 1994 
Q 2075 1994 1981 2113 
Q 1928 2178 1911 2362 
Q 1894 2547 1784 2644 
Q 1675 2738 1481 2738 
Q 1169 2738 978 2506 
Q 725 2200 725 1697 
Q 725 1184 976 792 
Q 1228 400 1656 400 
Q 1963 400 2206 609 
Q 2378 753 2541 1131 
L 2631 1088 
z
" transform="scale(0.015625)"/>
       <path id="TimesNewRomanPSMT-75" d="M 2709 2863 
L 2709 1128 
Q 2709 631 2732 520 
Q 2756 409 2807 365 
Q 2859 322 2928 322 
Q 3025 322 3147 375 
L 3191 266 
L 2334 -88 
L 2194 -88 
L 2194 519 
Q 1825 119 1631 15 
Q 1438 -88 1222 -88 
Q 981 -88 804 51 
Q 628 191 559 409 
Q 491 628 491 1028 
L 491 2306 
Q 491 2509 447 2587 
Q 403 2666 317 2708 
Q 231 2750 6 2747 
L 6 2863 
L 1009 2863 
L 1009 947 
Q 1009 547 1148 422 
Q 1288 297 1484 297 
Q 1619 297 1789 381 
Q 1959 466 2194 703 
L 2194 2325 
Q 2194 2569 2105 2655 
Q 2016 2741 1734 2747 
L 1734 2863 
L 2709 2863 
z
" transform="scale(0.015625)"/>
       <path id="TimesNewRomanPSMT-72" d="M 1038 2947 
L 1038 2303 
Q 1397 2947 1775 2947 
Q 1947 2947 2059 2842 
Q 2172 2738 2172 2600 
Q 2172 2478 2090 2393 
Q 2009 2309 1897 2309 
Q 1788 2309 1652 2417 
Q 1516 2525 1450 2525 
Q 1394 2525 1328 2463 
Q 1188 2334 1038 2041 
L 1038 669 
Q 1038 431 1097 309 
Q 1138 225 1241 169 
Q 1344 113 1538 113 
L 1538 0 
L 72 0 
L 72 113 
Q 291 113 397 181 
Q 475 231 506 341 
Q 522 394 522 644 
L 522 1753 
Q 522 2253 501 2348 
Q 481 2444 426 2487 
Q 372 2531 291 2531 
Q 194 2531 72 2484 
L 41 2597 
L 906 2947 
L 1038 2947 
z
" transform="scale(0.015625)"/>
       <path id="TimesNewRomanPSMT-61" d="M 1822 413 
Q 1381 72 1269 19 
Q 1100 -59 909 -59 
Q 613 -59 420 144 
Q 228 347 228 678 
Q 228 888 322 1041 
Q 450 1253 767 1440 
Q 1084 1628 1822 1897 
L 1822 2009 
Q 1822 2438 1686 2597 
Q 1550 2756 1291 2756 
Q 1094 2756 978 2650 
Q 859 2544 859 2406 
L 866 2225 
Q 866 2081 792 2003 
Q 719 1925 600 1925 
Q 484 1925 411 2006 
Q 338 2088 338 2228 
Q 338 2497 613 2722 
Q 888 2947 1384 2947 
Q 1766 2947 2009 2819 
Q 2194 2722 2281 2516 
Q 2338 2381 2338 1966 
L 2338 994 
Q 2338 584 2353 492 
Q 2369 400 2405 369 
Q 2441 338 2488 338 
Q 2538 338 2575 359 
Q 2641 400 2828 588 
L 2828 413 
Q 2478 -56 2159 -56 
Q 2006 -56 1915 50 
Q 1825 156 1822 413 
z
M 1822 616 
L 1822 1706 
Q 1350 1519 1213 1441 
Q 966 1303 859 1153 
Q 753 1003 753 825 
Q 753 600 887 451 
Q 1022 303 1197 303 
Q 1434 303 1822 616 
z
" transform="scale(0.015625)"/>
       <path id="TimesNewRomanPSMT-79" d="M 38 2863 
L 1372 2863 
L 1372 2747 
L 1306 2747 
Q 1166 2747 1095 2686 
Q 1025 2625 1025 2534 
Q 1025 2413 1128 2197 
L 1825 753 
L 2466 2334 
Q 2519 2463 2519 2588 
Q 2519 2644 2497 2672 
Q 2472 2706 2419 2726 
Q 2366 2747 2231 2747 
L 2231 2863 
L 3163 2863 
L 3163 2747 
Q 3047 2734 2984 2696 
Q 2922 2659 2847 2556 
Q 2819 2513 2741 2316 
L 1575 -541 
Q 1406 -956 1132 -1168 
Q 859 -1381 606 -1381 
Q 422 -1381 303 -1275 
Q 184 -1169 184 -1031 
Q 184 -900 270 -820 
Q 356 -741 506 -741 
Q 609 -741 788 -809 
Q 913 -856 944 -856 
Q 1038 -856 1148 -759 
Q 1259 -663 1372 -384 
L 1575 113 
L 547 2272 
Q 500 2369 397 2513 
Q 319 2622 269 2659 
Q 197 2709 38 2747 
L 38 2863 
z
" transform="scale(0.015625)"/>
      </defs>
      <use xlink:href="#TimesNewRomanPSMT-41"/>
      <use xlink:href="#TimesNewRomanPSMT-63" transform="translate(72.216797 0)"/>
      <use xlink:href="#TimesNewRomanPSMT-63" transform="translate(116.601562 0)"/>
      <use xlink:href="#TimesNewRomanPSMT-75" transform="translate(160.986328 0)"/>
      <use xlink:href="#TimesNewRomanPSMT-72" transform="translate(210.986328 0)"/>
      <use xlink:href="#TimesNewRomanPSMT-61" transform="translate(244.287109 0)"/>
      <use xlink:href="#TimesNewRomanPSMT-63" transform="translate(288.671875 0)"/>
      <use xlink:href="#TimesNewRomanPSMT-79" transform="translate(333.056641 0)"/>
     </g>
    </g>
   </g>
   <g id="line2d_31">
    <path d="M 391.094063 178.5875 
L 471.024373 148.575982 
L 492.577243 144.628655 
L 505.558497 141.405738 
L 514.87732 138.700272 
L 528.119735 136.867046 
L 533.179556 136.822698 
L 537.571533 134.826859 
L 541.451584 134.693797 
L 544.926687 133.998952 
L 548.073436 133.836324 
L 550.948561 133.023215 
L 553.595251 132.816238 
L 556.047148 131.884835 
L 560.468291 131.870052 
L 562.476776 131.470897 
L 564.371079 131.914416 
L 566.163487 131.012578 
L 569.48272 130.569059 
L 571.026087 130.095973 
L 572.501139 130.288167 
L 573.913671 129.962927 
L 575.268766 130.376881 
L 576.570914 129.637671 
L 577.824097 129.2385 
L 579.031865 129.445477 
L 580.197394 129.430694 
L 581.32354 129.046306 
L 582.412877 128.957609 
L 583.467736 129.208934 
L 584.490231 128.558438 
L 588.292725 128.381027 
L 589.179233 128.085352 
L 590.042772 128.026221 
L 590.884502 128.114918 
L 591.705498 127.804461 
L 592.506756 127.73053 
L 593.289204 127.213096 
L 594.053704 127.272228 
L 594.801061 127.612267 
L 595.532027 127.109616 
L 596.247307 127.375724 
L 596.947558 126.843491 
L 597.6334 127.094833 
L 598.305413 127.198313 
L 598.964145 126.473902 
L 599.610109 127.242662 
L 600.243793 126.740011 
L 600.865653 126.636514 
L 601.476123 126.296491 
L 602.075613 126.488685 
L 602.66451 126.518251 
L 603.243183 126.030383 
L 603.811981 126.740011 
L 604.371234 126.045165 
L 604.921259 126.0156 
L 605.462354 126.296491 
L 605.994805 125.941669 
L 607.54295 125.705126 
L 608.043421 126.252142 
L 608.536488 125.719909 
L 609.022368 125.79384 
L 609.501266 125.379886 
L 611.350879 124.758956 
L 611.797679 125.05463 
L 612.673701 124.448482 
L 613.103226 125.172909 
L 613.527287 124.492847 
L 613.946021 124.433699 
L 614.359558 124.078893 
L 615.570251 124.803304 
L 615.964236 124.123242 
L 616.738503 124.50763 
L 617.118995 123.960614 
L 617.495193 124.72939 
L 617.867191 124.123242 
L 618.235084 123.827568 
L 618.59896 124.28587 
L 618.958906 123.945831 
L 619.315007 124.330219 
L 619.667344 124.06411 
L 620.702543 123.945831 
L 621.040586 123.827568 
L 621.375234 124.345002 
L 621.706556 123.738854 
L 622.034617 123.54666 
L 622.359481 123.857133 
L 622.681209 123.945831 
L 623.315495 123.679722 
L 623.628168 123.827568 
L 623.937935 123.428397 
L 624.24485 123.783203 
L 624.548965 123.694505 
L 624.85033 123.487529 
L 625.148994 123.812785 
L 625.445006 123.679722 
L 625.738412 123.398831 
L 626.317588 123.457963 
L 626.603445 123.191854 
L 626.886871 123.206637 
L 627.167908 123.798002 
L 627.446594 123.250986 
L 627.72297 123.857133 
L 627.997073 122.970094 
L 628.26894 123.339683 
L 628.806111 122.881381 
L 629.071484 123.044009 
L 629.595975 122.940528 
L 629.855158 123.132706 
L 630.112341 123.058792 
L 630.367555 123.428397 
L 630.620829 123.162288 
L 630.872193 122.630055 
L 631.121675 122.970094 
L 631.615108 122.541358 
L 631.859111 122.497009 
L 632.101341 122.230884 
L 632.341824 122.925745 
L 632.580583 122.585706 
L 632.817645 122.467427 
L 633.053033 122.644838 
L 633.286769 121.861295 
L 633.518878 122.689187 
L 633.978303 122.37873 
L 634.205662 122.171753 
L 634.431481 122.644838 
L 634.65578 121.979559 
L 635.319761 122.511792 
L 635.53818 121.787365 
L 635.970772 122.097838 
L 636.609311 122.053489 
L 636.819468 122.423078 
L 637.028308 121.772582 
L 637.235847 122.023908 
L 637.442102 121.846512 
L 637.647089 122.142187 
L 638.053318 121.787365 
L 638.254592 122.216101 
L 638.454656 121.71345 
L 638.653528 122.068272 
L 638.851219 121.831729 
L 639.047746 122.304815 
L 639.24312 121.639536 
L 639.630465 122.083055 
L 639.822463 121.728233 
L 640.013361 121.920427 
L 640.203172 121.595171 
L 640.391908 121.595171 
L 640.579582 121.905644 
L 640.766205 121.639536 
L 641.136344 122.127404 
L 641.319884 121.964776 
L 641.502418 121.447342 
L 641.864516 121.373411 
L 642.222721 121.521256 
L 642.752914 121.536039 
L 643.101747 121.595171 
L 643.274804 121.269931 
L 643.446968 121.49169 
L 643.618246 121.388194 
L 643.788649 121.595171 
L 644.126863 121.373411 
L 644.294692 121.728233 
L 644.46168 121.299496 
L 644.627835 121.550822 
L 644.793167 121.136868 
L 644.957682 121.536039 
L 645.121389 121.151651 
L 645.284296 121.240365 
L 645.446411 121.136868 
L 645.768294 121.506473 
L 646.245364 121.018605 
L 646.402882 121.565605 
L 646.559659 120.944674 
L 646.715702 121.373411 
L 647.179495 120.826411 
L 647.332669 120.456806 
L 647.636923 120.87076 
L 647.788014 120.54552 
L 648.385623 120.782062 
L 648.533366 120.382891 
L 648.680456 121.062954 
L 648.826901 120.663783 
L 648.972705 121.003822 
L 649.406328 120.486372 
L 649.549625 120.87076 
L 649.692308 120.619434 
L 649.834383 121.225582 
L 649.975855 120.382891 
L 650.116729 121.003822 
L 650.25701 120.722915 
L 650.396703 121.018605 
L 650.535813 120.575085 
L 650.674345 120.826411 
L 650.812303 120.32376 
L 650.949693 121.003822 
L 651.086519 120.649 
L 651.222785 120.796845 
L 651.358497 120.619434 
L 651.493658 120.708132 
L 651.628274 120.959473 
L 651.762347 120.708132 
L 651.895884 120.929892 
L 652.028888 120.368109 
L 652.424745 120.634217 
L 652.555659 120.353326 
L 652.686061 120.663783 
L 652.815955 119.968938 
L 652.945344 120.782062 
L 653.074234 120.235046 
L 653.330526 120.944674 
L 653.457938 120.575085 
L 653.584864 120.678566 
L 653.711308 120.20548 
L 653.837275 120.294178 
L 653.962767 120.752496 
L 654.212343 120.175915 
L 654.336434 120.412457 
L 654.460064 120.161132 
L 654.583238 120.530737 
L 654.705958 120.131566 
L 654.828228 120.530737 
L 654.95005 119.998504 
L 655.07143 120.397674 
L 655.192369 119.895023 
L 655.31287 120.249829 
L 655.432938 120.116783 
L 655.552575 120.515954 
L 655.671783 119.865457 
L 655.790567 120.057635 
L 655.908929 119.835876 
L 656.026872 120.382891 
L 656.1444 119.924589 
L 656.261514 120.42724 
L 656.378219 119.614116 
L 656.494516 120.264612 
L 656.610408 119.732395 
L 656.840992 120.368109 
L 656.955688 120.235046 
L 657.069991 120.42724 
L 657.183904 120.32376 
L 657.297428 120.042852 
L 657.410567 120.146349 
L 657.523323 119.939372 
L 657.635699 120.220263 
L 657.747698 119.761961 
L 657.859321 120.072418 
L 657.970572 119.88024 
L 658.081453 120.530737 
L 658.191966 120.382891 
L 658.302114 119.939372 
L 658.411899 120.264612 
L 658.521324 119.865457 
L 658.63039 120.072418 
L 658.739101 119.540201 
L 658.847459 119.895023 
L 658.955465 119.673263 
L 659.170433 120.042852 
L 659.2774 119.451504 
L 659.384024 119.58455 
L 659.490308 119.466286 
L 659.596255 119.614116 
L 659.701865 120.131566 
L 659.807143 119.318441 
L 659.912088 119.80631 
L 660.120994 119.481069 
L 660.224957 119.821093 
L 660.328598 119.466286 
L 660.431917 119.747178 
L 660.534917 119.58455 
L 660.739966 119.88024 
L 660.84202 119.274093 
L 660.943762 120.146349 
L 661.045195 119.170596 
L 661.14632 119.968938 
L 661.247139 119.36279 
L 661.347654 119.599333 
L 661.447866 119.067116 
L 661.547779 120.087217 
L 661.746709 119.58455 
L 661.94446 119.569767 
L 662.042896 119.244527 
L 662.238902 119.481069 
L 662.433763 119.377573 
L 662.530767 119.510635 
L 662.62749 119.392356 
L 662.723933 119.65848 
L 662.820098 119.377573 
L 662.915986 119.791527 
L 663.106939 119.392356 
L 663.202007 119.80631 
L 663.391333 119.25931 
L 663.485594 119.36279 
L 663.579589 119.288875 
L 663.67332 119.421938 
L 663.766788 119.03755 
L 663.859995 119.096682 
L 663.952942 119.392356 
L 664.138062 119.096682 
L 664.230237 119.348007 
L 664.322159 119.303658 
L 664.505245 119.081899 
L 664.687331 119.185379 
L 664.868427 118.919271 
L 664.958608 119.096682 
L 665.048545 119.599333 
L 665.13824 118.993201 
L 665.227695 119.126247 
L 665.405887 118.874922 
L 665.671401 119.318441 
L 665.759438 119.200162 
L 665.847243 119.436721 
L 666.022162 119.14103 
L 666.109278 119.333224 
L 666.196167 118.993201 
L 666.282831 119.214961 
L 666.455484 119.052333 
L 666.541477 119.274093 
L 666.712799 118.81579 
L 666.798132 119.229744 
L 666.968143 118.81579 
L 667.137292 119.229744 
L 667.221546 119.274093 
L 667.305587 119.096682 
L 667.389417 119.229744 
L 667.639649 118.963619 
L 667.722644 119.628899 
L 667.805432 118.860139 
L 667.888016 119.096682 
L 667.970395 119.421938 
L 668.052572 118.963619 
L 668.134546 119.274093 
L 668.297892 118.934053 
L 668.379266 119.36279 
L 668.460442 118.81579 
L 668.54142 118.919271 
L 668.622202 119.081899 
L 668.863381 118.623596 
L 669.102827 119.081899 
L 669.261507 118.963619 
L 669.49812 119.007984 
L 669.576619 118.771441 
L 669.654934 119.170596 
L 669.811013 118.860139 
L 669.88878 118.727077 
L 670.043771 119.14103 
L 670.120997 118.948836 
L 670.198044 119.096682 
L 670.274914 119.007984 
L 670.351607 118.889705 
L 670.428124 119.377573 
L 670.580632 118.682728 
L 670.656626 118.993201 
L 670.808095 118.653162 
L 670.883572 118.697511 
L 670.958879 118.934053 
L 671.034016 118.756642 
L 671.108984 118.934053 
L 671.258416 118.697511 
L 671.332881 118.860139 
L 671.40718 118.697511 
L 671.481315 118.771441 
L 671.555284 119.126247 
L 671.62909 118.653162 
L 671.702733 118.667945 
L 671.849532 119.348007 
L 672.068526 118.653162 
L 672.141205 118.727077 
L 672.213727 119.229744 
L 672.28609 118.667945 
L 672.358297 119.081899 
L 672.430348 118.919271 
L 672.502244 118.786224 
L 672.573984 119.067116 
L 672.645571 119.022767 
L 672.717004 119.067116 
L 672.788285 118.756642 
L 672.93039 119.052333 
L 673.071892 118.682728 
L 673.142418 119.067116 
L 673.212795 118.963619 
L 673.283024 118.889705 
L 673.353106 118.460968 
L 673.42304 119.007984 
L 673.492828 118.564464 
L 673.56247 119.007984 
L 673.631967 118.874922 
L 673.70132 119.067116 
L 673.770528 118.81579 
L 673.839593 118.845356 
L 673.908515 118.860139 
L 674.045933 118.697511 
L 674.11443 118.948836 
L 674.182787 118.623596 
L 674.251004 118.653162 
L 674.38702 119.096682 
L 674.454821 119.052333 
L 674.724652 118.549681 
L 674.79177 118.74186 
L 674.858753 118.963619 
L 674.925601 118.549681 
L 674.992316 119.274093 
L 675.058898 118.59403 
L 675.125347 118.771441 
L 675.257848 119.03755 
L 675.323902 118.697511 
L 675.389825 118.727077 
L 675.455618 118.667945 
L 675.586816 119.170596 
L 675.717499 118.431402 
L 675.782649 118.830573 
L 675.847672 118.786224 
L 675.912568 118.889705 
L 675.977338 118.490534 
L 676.041983 119.126247 
L 676.106502 118.845356 
L 676.170897 119.229744 
L 676.235168 118.756642 
L 676.299314 118.845356 
L 676.363338 119.022767 
L 676.491018 118.682728 
L 676.61821 119.14103 
L 676.808093 118.712294 
L 676.934084 119.067116 
L 676.996901 118.667945 
L 677.0596 119.274093 
L 677.246992 118.460968 
L 677.371337 119.170596 
L 677.433336 118.505317 
L 677.49522 119.170596 
L 677.556989 118.786224 
L 677.618645 118.904488 
L 677.680186 118.667945 
L 677.741614 118.786224 
L 677.802928 118.786224 
L 677.864131 119.007984 
L 677.925221 118.534883 
L 678.107822 119.14103 
L 678.168467 118.194859 
L 678.229003 118.874922 
L 678.289428 118.534883 
L 678.349744 118.934053 
L 678.409952 118.712294 
L 678.47005 118.860139 
L 678.530041 118.431402 
L 678.589924 118.564464 
L 678.828384 118.845356 
L 678.887734 118.74186 
L 678.946978 118.667945 
L 679.006117 119.303658 
L 679.124081 118.401836 
L 679.182907 118.934053 
L 679.241629 118.771441 
L 679.358764 118.29834 
L 679.475489 118.81579 
L 679.533698 118.608813 
L 679.591806 118.431402 
L 679.765525 118.845356 
L 679.82323 118.608813 
L 679.880836 118.623596 
L 679.938343 118.860139 
L 680.110269 118.460968 
L 680.167381 118.771441 
L 680.224396 118.756642 
L 680.281313 118.401836 
L 680.338133 118.963619 
L 680.394857 118.564464 
L 680.451484 118.830573 
L 680.508015 118.564464 
L 680.62079 118.283557 
L 680.677035 119.052333 
L 680.733186 118.327922 
L 680.789241 118.889705 
L 680.845203 118.623596 
L 680.901071 118.313123 
L 680.956845 118.446185 
L 681.012526 118.564464 
L 681.068114 118.431402 
L 681.179014 118.165294 
L 681.399711 118.756642 
L 681.454658 118.460968 
L 681.509514 118.860139 
L 681.56428 118.431402 
L 681.618957 118.5201 
L 681.728041 118.727077 
L 681.78245 118.180077 
L 681.83677 118.786224 
L 681.891001 118.623596 
L 681.945145 118.268774 
L 681.999201 118.29834 
L 682.053169 118.534883 
L 682.10705 118.180077 
L 682.160844 118.401836 
L 682.214551 118.934053 
L 682.321707 118.194859 
L 682.375155 118.727077 
L 682.428519 118.401836 
L 682.481797 118.446185 
L 682.53499 118.165294 
L 682.641122 118.579247 
L 682.694061 118.564464 
L 682.799689 118.194859 
L 682.852377 118.357488 
L 682.904982 118.919271 
L 682.957505 118.387053 
L 683.062302 118.549681 
L 683.218883 118.106146 
L 683.322863 119.200162 
L 683.374731 117.899185 
L 683.426519 118.209642 
L 683.478227 118.59403 
L 683.529854 118.209642 
L 683.581402 118.505317 
L 683.63287 118.342705 
L 683.684259 118.268774 
L 683.837951 118.786224 
L 683.889025 118.342705 
L 683.940021 118.401836 
L 683.990938 118.59403 
L 684.041778 118.387053 
L 684.092541 118.534883 
L 684.143226 118.283557 
L 684.294822 118.874922 
L 684.445731 118.106146 
L 684.495882 118.653162 
L 684.545959 118.253991 
L 684.59596 118.460968 
L 684.645886 118.032231 
L 684.695737 118.327922 
L 684.795217 118.638379 
L 684.943883 118.268774 
L 684.993291 118.845356 
L 685.091888 118.697511 
L 685.141077 118.091363 
L 685.190194 118.564464 
L 685.239239 118.564464 
L 685.288211 118.194859 
L 685.337112 118.253991 
L 685.385941 118.978402 
L 685.434699 118.37227 
L 685.532001 118.327922 
L 685.580545 118.564464 
L 685.629019 118.534883 
L 685.677423 118.194859 
L 685.725756 118.59403 
L 685.77402 118.475751 
L 685.822213 118.534883 
L 685.870337 118.786224 
L 685.918392 118.047014 
L 686.014294 118.209642 
L 686.062142 118.74186 
L 686.109921 118.209642 
L 686.157632 118.357488 
L 686.205274 117.85482 
L 686.252849 118.874922 
L 686.300356 117.958317 
L 686.395166 118.5201 
L 686.442471 118.505317 
L 686.536879 117.913968 
L 686.583983 118.106146 
L 686.63102 118.638379 
L 686.677991 118.239208 
L 686.724896 118.342705 
L 686.771735 118.209642 
L 686.818509 117.943534 
L 686.865217 118.239208 
L 686.911859 118.07658 
L 686.958437 118.342705 
L 687.051396 117.766123 
L 687.097779 118.342705 
L 687.190352 118.194859 
L 687.236542 118.209642 
L 687.32873 118.431402 
L 687.374729 118.165294 
L 687.466537 118.268774 
L 687.512346 118.194859 
L 687.558092 118.357488 
L 687.603776 118.047014 
L 687.649397 118.608813 
L 687.694955 118.002666 
L 687.87657 118.59403 
L 687.921819 117.958317 
L 687.967007 118.106146 
L 688.0572 118.682728 
L 688.102205 118.446185 
L 688.147149 118.342705 
L 688.192033 117.647843 
L 688.236857 118.416619 
L 688.326323 117.958317 
L 688.370967 118.047014 
L 688.460074 118.209642 
L 688.504539 118.120945 
L 688.548944 118.268774 
L 688.593291 117.85482 
L 688.681807 118.061797 
L 688.725977 118.032231 
L 688.770089 117.677425 
L 688.858137 117.810472 
L 688.989775 118.194859 
L 689.077246 117.840037 
L 689.164488 118.253991 
L 689.208023 117.987883 
L 689.294924 118.047014 
L 689.338289 117.840037 
L 689.424851 118.327922 
L 689.597304 117.706991 
L 689.640278 118.194859 
L 689.726061 118.032231 
L 689.811623 118.135728 
L 689.854322 117.736557 
L 689.896966 118.032231 
L 689.982091 117.884386 
L 690.024572 118.120945 
L 690.066999 117.780906 
L 690.23617 118.091363 
L 690.278328 117.825255 
L 690.320434 117.840037 
L 690.362486 118.017448 
L 690.404486 117.958317 
L 690.530167 117.795689 
L 690.613692 118.002666 
L 690.697009 118.07658 
L 690.738589 117.559146 
L 690.780118 118.224425 
L 690.86302 117.825255 
L 690.986987 117.721774 
L 691.151563 118.032231 
L 691.233548 117.618278 
L 691.274464 117.958317 
L 691.396914 117.884386 
L 691.559483 118.283557 
L 691.600002 117.736557 
L 691.640472 118.37227 
L 691.680892 117.958317 
L 691.721264 117.795689 
L 691.761586 118.224425 
L 691.80186 117.500014 
L 691.962471 118.047014 
L 692.002503 117.662626 
L 692.082423 117.884386 
L 692.28139 117.928751 
L 692.321041 118.002666 
L 692.400202 117.780906 
L 692.439712 117.943534 
L 692.518592 118.091363 
L 692.557962 117.706991 
L 692.597286 117.899185 
L 692.636563 118.342705 
L 692.675794 117.884386 
L 692.714979 117.9731 
L 692.793211 118.106146 
L 692.987991 117.677425 
L 693.065586 117.647843 
L 693.104316 118.268774 
L 693.18164 117.677425 
L 693.258786 117.75134 
L 693.450872 117.884386 
L 693.489157 118.150511 
L 693.527397 117.795689 
L 693.565595 118.047014 
L 693.603748 117.500014 
L 693.641857 118.150511 
L 693.679924 117.825255 
L 693.717946 117.869603 
L 693.755926 118.091363 
L 693.793862 117.840037 
L 693.831755 117.987883 
L 693.869605 117.721774 
L 693.907412 118.032231 
L 693.945176 117.85482 
L 693.982898 117.780906 
L 694.095807 118.150511 
L 694.133358 117.795689 
L 694.170868 117.987883 
L 694.208335 118.253991 
L 694.24576 117.987883 
L 694.283143 117.810472 
L 694.320484 118.357488 
L 694.395041 118.07658 
L 694.432257 117.928751 
L 694.469432 117.9731 
L 694.506565 118.120945 
L 694.580707 117.9731 
L 694.617717 117.958317 
L 694.654685 117.766123 
L 694.691613 117.825255 
L 694.728499 118.135728 
L 694.765345 117.825255 
L 694.80215 117.706991 
L 694.948966 118.091363 
L 695.058654 117.692208 
L 695.095137 117.825255 
L 695.167983 117.795689 
L 695.204347 117.677425 
L 695.240671 117.9731 
L 695.276955 117.840037 
L 695.421698 117.588712 
L 695.565816 117.75134 
L 695.601748 117.706991 
L 695.673496 117.987883 
L 695.709313 117.810472 
L 695.745091 117.869603 
L 695.78083 117.692208 
L 695.816531 118.002666 
L 695.852195 117.75134 
L 695.88782 117.958317 
L 695.923406 117.736557 
L 695.958955 117.470448 
L 695.994467 117.75134 
L 696.02994 117.721774 
L 696.065375 117.618278 
L 696.100773 117.825255 
L 696.241991 117.810472 
L 696.277202 117.588712 
L 696.347512 117.647843 
L 696.382612 117.899185 
L 696.452701 117.825255 
L 696.48769 117.692208 
L 696.522642 118.017448 
L 696.557558 117.559146 
L 696.592438 117.721774 
L 696.696857 117.559146 
L 696.731591 117.677425 
L 696.835577 117.721774 
L 696.939238 117.633061 
L 697.042579 117.85482 
L 697.076955 117.75134 
L 697.111295 117.603495 
L 697.17987 117.766123 
L 697.248304 117.662626 
L 697.316597 117.899185 
L 697.384751 117.795689 
L 697.418776 117.677425 
L 697.452766 118.017448 
L 697.486722 117.573929 
L 697.520643 117.677425 
L 697.588381 117.75134 
L 697.622199 117.603495 
L 697.655982 117.633061 
L 697.689732 117.869603 
L 697.790775 117.795689 
L 697.925024 117.573929 
L 698.025357 117.736557 
L 698.058735 117.706991 
L 698.092079 117.470448 
L 698.158667 117.588712 
L 698.291446 117.869603 
L 698.324558 117.913968 
L 698.456679 117.514797 
L 698.588278 118.047014 
L 698.686637 117.618278 
L 698.719359 117.810472 
L 698.752049 117.544363 
L 698.784707 117.706991 
L 698.817333 117.500014 
L 698.849928 117.692208 
L 698.88249 117.899185 
L 698.91502 117.633061 
L 698.947519 117.736557 
L 698.979986 117.795689 
L 699.012422 117.633061 
L 699.174127 117.795689 
L 699.206375 117.440867 
L 699.270776 117.913968 
L 699.302929 117.603495 
L 699.399205 117.913968 
L 699.431236 117.780906 
L 699.55905 117.485231 
L 699.718132 117.987883 
L 699.781552 117.75134 
L 699.876458 117.470448 
L 699.908033 117.943534 
L 699.939578 117.426084 
L 700.002579 117.780906 
L 700.065461 117.485231 
L 700.128225 117.500014 
L 700.159563 117.75134 
L 700.22215 117.573929 
L 700.253399 117.485231 
L 700.28462 117.736557 
L 700.315811 117.455665 
L 700.378105 117.603495 
L 700.409209 117.514797 
L 700.440284 117.618278 
L 700.471329 117.795689 
L 700.502346 117.411301 
L 700.533334 117.52958 
L 700.71866 117.721774 
L 700.84164 117.337386 
L 700.902961 117.692208 
L 700.964169 117.559146 
L 701.025264 117.322603 
L 701.086248 117.426084 
L 701.116698 117.647843 
L 701.177515 117.573929 
L 701.238221 117.337386 
L 701.298817 117.411301 
L 701.329074 117.603495 
L 701.389505 117.573929 
L 701.479946 117.278254 
L 701.510039 117.366952 
L 701.690027 117.647843 
L 701.809482 117.337386 
L 701.898792 117.248689 
L 701.928509 117.500014 
L 701.987864 117.396518 
L 702.017502 117.278254 
L 702.047114 117.544363 
L 702.135791 117.322603 
L 702.165297 117.100843 
L 702.194778 117.204324 
L 702.31244 117.633061 
L 702.341791 117.603495 
L 702.429688 117.322603 
L 702.458936 117.396518 
L 702.517355 117.381735 
L 702.575671 117.293037 
L 702.662955 117.588712 
L 702.750011 117.485231 
L 702.836839 117.219107 
L 702.807922 117.559146 
L 702.865732 117.396518 
L 702.952261 117.455665 
L 703.038565 117.485231 
L 703.095977 117.263471 
L 703.210506 117.52958 
L 703.267623 117.514797 
L 703.296145 117.278254 
L 703.324643 117.559146 
L 703.381565 117.352169 
L 703.40999 117.263471 
L 703.43839 117.366952 
L 703.466766 117.662626 
L 703.495118 117.322603 
L 703.523446 117.396518 
L 703.55175 117.248689 
L 703.58003 117.322603 
L 703.608286 117.573929 
L 703.664726 117.130409 
L 703.692911 117.322603 
L 703.749208 117.100843 
L 703.777321 117.233906 
L 703.889536 117.396518 
L 703.917531 117.174758 
L 703.945502 117.514797 
L 704.001375 117.366952 
L 704.140648 117.248689 
L 704.168432 117.174758 
L 704.223933 117.322603 
L 704.251648 117.248689 
L 704.334657 117.500014 
L 704.30701 117.189541 
L 704.389881 117.352169 
L 704.417459 117.411301 
L 704.472547 117.470448 
L 704.555008 117.204324 
L 704.58245 117.041712 
L 704.609869 117.263471 
L 704.746627 117.440867 
L 704.801174 117.174758 
L 704.855631 117.248689 
L 704.91 117.189541 
L 704.937151 117.396518 
L 704.991387 117.500014 
L 705.072576 117.026929 
L 705.261251 117.248689 
L 705.314963 117.381735 
L 705.395368 117.071278 
L 705.448864 117.30782 
L 705.502275 117.130409 
L 705.635427 117.411301 
L 705.68854 117.544363 
L 705.76805 117.08606 
L 705.794511 117.411301 
L 705.87377 117.352169 
L 705.926504 117.322603 
L 705.95284 117.500014 
L 705.979155 117.219107 
L 706.031723 117.30782 
L 706.136611 117.381735 
L 706.188931 117.204324 
L 706.24117 117.248689 
L 706.267258 117.337386 
L 706.293326 116.923432 
L 706.319374 117.366952 
L 706.371409 117.159975 
L 706.423362 117.026929 
L 706.449309 117.08606 
L 706.552893 117.470448 
L 706.578738 117.411301 
L 706.681922 117.145192 
L 706.707668 117.189541 
L 706.7591 117.426084 
L 706.810453 117.189541 
L 706.887335 117.381735 
L 706.861727 117.115626 
L 706.964039 117.278254 
L 706.989568 117.293037 
L 707.015078 117.145192 
L 707.066038 117.426084 
L 707.243789 117.056495 
L 707.116921 117.470448 
L 707.269105 117.08606 
L 707.319679 117.440867 
L 707.395396 117.219107 
L 707.546316 117.08606 
L 707.571403 117.352169 
L 707.646552 117.145192 
L 707.671563 117.130409 
L 707.696557 117.233906 
L 707.721531 117.366952 
L 707.796342 117.174758 
L 707.870985 116.982564 
L 707.895829 117.071278 
L 707.920655 117.08606 
L 707.945462 116.908649 
L 707.99502 117.219107 
L 708.069221 117.219107 
L 708.118596 116.938215 
L 708.143256 117.470448 
L 708.217127 117.322603 
L 708.36438 116.952998 
L 708.413321 116.938215 
L 708.535358 117.485231 
L 708.608366 117.01213 
L 708.65695 117.130409 
L 708.681215 116.952998 
L 708.729692 117.263471 
L 708.753905 117.263471 
L 708.826436 116.834735 
L 708.874703 116.952998 
L 708.946973 117.337386 
L 708.971028 117.145192 
L 708.995066 116.982564 
L 709.043089 117.263471 
L 709.114995 117.204324 
L 709.162846 117.056495 
L 709.210629 117.08606 
L 709.234494 117.248689 
L 709.305989 117.159975 
L 709.37733 116.997347 
L 709.424807 117.056495 
L 709.448519 117.219107 
L 709.495895 116.997347 
L 709.543202 117.174758 
L 709.566831 117.115626 
L 709.590443 117.219107 
L 709.614038 117.337386 
L 709.637617 116.938215 
L 709.684724 117.293037 
L 709.825648 117.01213 
L 709.849077 117.130409 
L 710.012624 116.952998 
L 710.035922 117.293037 
L 710.08247 116.938215 
L 710.128953 117.189541 
L 710.152171 117.233906 
L 710.175372 117.174758 
L 710.268015 116.908649 
L 710.291136 117.056495 
L 710.360402 117.204324 
L 710.383458 117.145192 
L 710.521464 116.819952 
L 710.54441 117.322603 
L 710.636035 117.233906 
L 710.750212 116.893867 
L 710.773001 117.056495 
L 710.795774 116.997347 
L 710.818532 117.189541 
L 710.841274 117.263471 
L 710.864 116.834735 
L 710.954752 116.923432 
L 711.067845 117.248689 
L 711.135517 117.396518 
L 711.225533 116.908649 
L 711.315306 117.381735 
L 711.337712 117.100843 
L 711.404839 116.879084 
L 711.427185 117.056495 
L 711.494132 117.248689 
L 711.560945 116.819952 
L 711.583186 117.337386 
L 711.605412 116.938215 
L 711.627624 117.293037 
L 711.716323 116.952998 
L 711.73846 117.145192 
L 711.804786 116.908649 
L 711.826865 117.100843 
L 711.87098 116.849518 
L 711.893015 117.174758 
L 711.915036 117.337386 
L 711.937042 116.938215 
L 711.981011 117.08606 
L 712.002974 117.08606 
L 712.134447 117.455665 
L 712.19999 116.923432 
L 712.265405 117.115626 
L 712.308943 117.041712 
L 712.352424 117.381735 
L 712.439217 116.79037 
L 712.46088 117.233906 
L 712.482529 117.278254 
L 712.504164 116.731238 
L 712.590564 117.01213 
L 712.655217 116.982564 
L 712.741226 117.263471 
L 712.784147 116.938215 
L 712.827014 117.337386 
L 712.869825 116.997347 
L 712.912581 117.071278 
L 712.933939 116.923432 
L 712.976613 116.879084 
L 712.99793 116.967781 
L 713.083061 117.263471 
L 713.104309 116.982564 
L 713.21035 116.834735 
L 713.316055 117.159975 
L 713.337155 117.071278 
L 713.400378 117.130409 
L 713.442459 116.893867 
L 713.46348 117.219107 
L 713.547431 117.100843 
L 713.631172 117.01213 
L 713.652074 117.145192 
L 713.672963 116.849518 
L 713.714702 116.923432 
L 713.756389 116.864301 
L 713.881137 117.204324 
L 713.901884 116.938215 
L 713.943337 117.278254 
L 713.984739 116.997347 
L 714.067389 117.366952 
L 714.08802 117.174758 
L 714.170415 117.204324 
L 714.252606 116.805169 
L 714.395956 117.366952 
L 714.497972 116.997347 
L 714.518338 117.189541 
L 714.599677 116.893867 
L 714.619981 117.026929 
L 714.680818 117.100843 
L 714.701072 116.908649 
L 714.761762 117.204324 
L 714.781967 116.938215 
L 714.80216 117.056495 
L 714.862666 116.805169 
L 714.882811 116.997347 
L 714.923063 116.952998 
L 715.043528 117.248689 
L 715.303052 116.760804 
L 715.362657 117.071278 
L 715.382501 116.731238 
L 715.422154 116.997347 
L 715.461761 117.145192 
L 715.481546 116.657324 
L 715.580298 116.923432 
L 715.619717 117.322603 
L 715.639409 116.79037 
L 715.678758 116.893867 
L 715.737695 116.864301 
L 715.718061 116.982564 
L 715.757318 116.938215 
L 715.835692 116.849518 
L 715.894352 117.056495 
L 715.991891 116.923432 
L 715.972406 117.08606 
L 716.011364 116.982564 
L 716.030826 117.174758 
L 716.069716 116.819952 
L 716.108561 117.01213 
L 716.127966 116.864301 
L 716.205475 117.071278 
L 716.244162 116.834735 
L 716.302108 116.982564 
L 716.379214 117.263471 
L 716.4177 117.159975 
L 716.436926 116.893867 
L 716.513721 116.952998 
L 716.532892 117.159975 
L 716.609466 117.056495 
L 716.666781 116.79037 
L 716.647687 117.130409 
L 716.704936 116.982564 
L 716.762088 117.204324 
L 716.819141 117.041712 
L 716.895061 116.938215 
L 717.027506 117.204324 
L 717.159427 116.805169 
L 717.178231 117.01213 
L 717.253338 117.189541 
L 717.215805 116.997347 
L 717.272088 117.026929 
L 717.290828 117.01213 
L 717.309557 117.056495 
L 717.328276 117.174758 
L 717.365682 116.879084 
L 717.421713 117.100843 
L 717.459014 116.834735 
L 717.552086 116.893867 
L 717.644898 116.908649 
L 717.774403 117.115626 
L 717.792862 117.115626 
L 717.885007 116.893867 
L 717.84818 117.159975 
L 717.903406 116.952998 
L 717.958541 116.849518 
L 718.031912 117.130409 
L 718.141667 116.775587 
L 718.159924 116.923432 
L 718.196409 117.322603 
L 718.232854 116.834735 
L 718.269259 116.938215 
L 718.305625 116.967781 
L 718.323792 116.908649 
L 718.34195 117.159975 
L 718.414483 116.849518 
L 718.432592 116.79037 
L 718.450691 116.997347 
L 718.486859 116.967781 
L 718.504928 117.130409 
L 718.522988 116.879084 
L 718.577108 116.982564 
L 718.595128 116.775587 
L 718.63114 117.071278 
L 718.685085 116.997347 
L 718.792713 117.219107 
L 718.882139 116.849518 
L 718.917842 116.893867 
L 718.93568 116.834735 
L 718.953507 117.115626 
L 719.006933 116.923432 
L 719.113529 117.174758 
L 719.148986 116.864301 
L 719.219785 117.115626 
L 719.255129 116.879084 
L 719.290435 117.248689 
L 719.343324 116.79037 
L 719.396129 116.908649 
L 719.466407 117.204324 
L 719.448851 116.805169 
L 719.50149 116.982564 
L 719.519017 116.79037 
L 719.554045 117.145192 
L 719.589036 116.967781 
L 719.606518 117.071278 
L 719.658908 116.775587 
L 719.69379 116.997347 
L 719.798215 117.041712 
L 719.832951 116.672107 
L 719.850305 116.657324 
L 719.86765 116.760804 
L 719.936941 117.293037 
L 719.919632 116.716456 
L 719.988815 116.952998 
L 720.006089 117.145192 
L 720.075093 117.041712 
L 720.092321 116.716456 
L 720.109541 117.056495 
L 720.195507 116.79037 
L 720.229832 117.189541 
L 720.298375 116.967781 
L 720.315488 116.716456 
L 720.332593 117.115626 
L 720.417987 116.819952 
L 720.520171 117.115626 
L 720.537171 116.997347 
L 720.605086 117.08606 
L 720.622043 116.760804 
L 720.638991 117.130409 
L 720.689785 116.672107 
L 720.723604 116.938215 
L 720.740501 116.879084 
L 720.79114 117.041712 
L 720.808003 116.923432 
L 720.858539 117.130409 
L 720.909 116.982564 
L 720.925803 116.938215 
L 720.942598 117.248689 
L 720.992931 116.879084 
L 721.026444 116.997347 
L 721.143476 116.819952 
L 721.160162 116.997347 
L 721.176839 117.189541 
L 721.193508 116.849518 
L 721.243464 116.923432 
L 721.260099 116.672107 
L 721.293345 117.01213 
L 721.343152 116.819952 
L 721.409445 117.204324 
L 721.392884 116.760804 
L 721.475607 116.967781 
L 721.492127 116.819952 
L 721.508639 117.01213 
L 721.574605 116.967781 
L 721.623993 117.248689 
L 721.673309 117.159975 
L 721.73895 116.746021 
L 721.771722 116.997347 
L 721.837169 116.864301 
L 721.88617 117.233906 
L 722.000227 116.760804 
L 722.081459 117.041712 
L 722.113896 116.997347 
L 722.178675 116.879084 
L 722.19485 117.263471 
L 722.259473 116.849518 
L 722.291737 117.115626 
L 722.452593 116.79037 
L 722.468635 116.879084 
L 722.484671 117.115626 
L 722.53273 116.79037 
L 722.564731 116.967781 
L 722.58072 116.805169 
L 722.6446 117.174758 
L 722.66055 116.908649 
L 722.692429 116.864301 
L 722.756095 117.159975 
L 722.787882 117.174758 
L 722.867219 116.760804 
L 722.977973 117.056495 
L 722.930552 116.657324 
L 722.993765 116.997347 
L 723.025327 117.130409 
L 723.041096 116.79037 
L 723.072613 117.056495 
L 723.166986 116.68689 
L 723.182688 116.938215 
L 723.261092 117.071278 
L 723.214072 116.672107 
L 723.292401 116.938215 
L 723.370547 116.879084 
L 723.323682 117.041712 
L 723.386154 116.952998 
L 723.432932 117.115626 
L 723.464081 116.879084 
L 723.510749 117.01213 
L 723.541826 116.864301 
L 723.572873 117.01213 
L 723.588386 117.337386 
L 723.681311 117.130409 
L 723.696773 117.204324 
L 723.712228 117.041712 
L 723.743117 117.145192 
L 723.758551 116.952998 
L 723.773978 117.204324 
L 723.851004 117.174758 
L 723.943201 116.938215 
L 723.958542 117.01213 
L 723.973876 117.130409 
L 724.004524 116.819952 
L 724.08102 117.115626 
L 724.15734 116.938215 
L 724.111569 117.159975 
L 724.18782 117.145192 
L 724.294279 116.923432 
L 724.279091 117.204324 
L 724.324633 116.967781 
L 724.385259 116.997347 
L 724.430657 117.08606 
L 724.475992 116.952998 
L 724.49109 117.026929 
L 724.506182 117.01213 
L 724.521266 116.805169 
L 724.551415 117.189541 
L 724.61163 116.938215 
L 724.641697 116.923432 
L 724.65672 117.159975 
L 724.716746 116.864301 
L 724.746718 116.997347 
L 724.791626 116.893867 
L 724.836474 117.145192 
L 724.940884 116.908649 
L 724.955773 117.115626 
L 724.985532 116.834735 
L 725.059811 117.041712 
L 725.089477 116.849518 
L 725.119116 117.056495 
L 725.163525 116.982564 
L 725.178315 116.997347 
L 725.193099 116.760804 
L 725.252167 117.174758 
L 725.281662 117.115626 
L 725.340573 117.145192 
L 725.36999 116.952998 
L 725.399381 117.322603 
L 725.472745 116.908649 
L 725.487399 117.115626 
L 725.575184 116.672107 
L 725.589793 117.174758 
L 725.706431 116.864301 
L 725.63358 117.263471 
L 725.735526 116.967781 
L 725.822662 117.145192 
L 725.808155 116.923432 
L 725.851656 117.026929 
L 725.895101 116.775587 
L 725.952939 117.130409 
L 726.068316 116.952998 
L 725.981821 117.263471 
L 726.08271 117.01213 
L 726.140223 117.219107 
L 726.111479 116.775587 
L 726.183294 116.952998 
L 726.226309 117.041712 
L 726.254954 116.908649 
L 726.283575 116.923432 
L 726.312172 116.879084 
L 726.326461 117.248689 
L 726.383556 116.834735 
L 726.412067 116.879084 
L 726.511664 117.204324 
L 726.525868 117.100843 
L 726.582623 116.864301 
L 726.625125 116.967781 
L 726.724088 117.263471 
L 726.83683 116.908649 
L 726.850896 117.026929 
L 726.864956 116.834735 
L 726.921137 116.952998 
L 726.935168 116.79037 
L 726.977224 117.115626 
L 727.019227 117.100843 
L 727.033216 117.145192 
L 727.047199 116.879084 
L 727.089114 117.01213 
L 727.103074 116.834735 
L 727.144919 117.115626 
L 727.20063 116.879084 
L 727.284023 116.805169 
L 727.325641 117.100843 
L 727.408722 116.805169 
L 727.353358 117.115626 
L 727.43637 117.08606 
L 727.546732 116.864301 
L 727.505389 117.248689 
L 727.560502 117.041712 
L 727.574266 117.08606 
L 727.588024 116.849518 
L 727.615523 116.938215 
L 727.629265 116.819952 
L 727.643 117.071278 
L 727.725295 116.923432 
L 727.766366 116.879084 
L 727.752682 116.997347 
L 727.793719 117.01213 
L 727.807387 116.56861 
L 727.889277 117.08606 
L 727.902906 116.923432 
L 727.91653 117.056495 
L 727.930147 116.79037 
L 728.011737 117.01213 
L 728.066019 116.849518 
L 728.093127 116.923432 
L 728.106673 117.100843 
L 728.17432 116.79037 
L 728.187832 116.819952 
L 728.20134 116.79037 
L 728.228338 116.997347 
L 728.282269 116.893867 
L 728.32266 117.145192 
L 728.336113 116.731238 
L 728.430131 116.952998 
L 728.44354 116.952998 
L 728.497125 117.189541 
L 728.537256 116.864301 
L 728.550623 117.041712 
L 728.683994 116.879084 
L 728.697302 116.923432 
L 728.723901 117.337386 
L 728.763761 116.805169 
L 728.803573 117.041712 
L 728.922725 116.775587 
L 728.883055 117.100843 
L 728.935938 116.908649 
L 728.949146 117.174758 
L 729.028282 116.879084 
L 729.041453 116.923432 
L 729.054619 116.864301 
L 729.080935 117.041712 
L 729.12037 116.952998 
L 729.133505 117.026929 
L 729.199101 116.775587 
L 729.225303 116.967781 
L 729.290719 117.219107 
L 729.251485 116.952998 
L 729.31685 116.952998 
L 729.329907 116.834735 
L 729.34296 117.100843 
L 729.421167 117.01213 
L 729.460202 116.701673 
L 729.499192 117.08606 
L 729.577034 116.672107 
L 729.602941 117.100843 
L 729.615887 116.893867 
L 729.719274 117.159975 
L 729.706368 116.805169 
L 729.732175 117.026929 
L 729.783729 117.145192 
L 729.822342 117.159975 
L 729.912265 116.598192 
L 730.027525 117.174758 
L 730.065857 116.834735 
L 730.142389 116.849518 
L 730.206031 117.145192 
L 730.218745 116.642541 
L 730.294926 117.204324 
L 730.307607 117.159975 
L 730.42151 116.849518 
L 730.434142 116.982564 
L 730.459392 117.041712 
L 730.547615 116.731238 
L 730.560199 116.893867 
L 730.635605 116.805169 
L 730.673244 117.115626 
L 730.735882 116.79037 
L 730.785908 116.819952 
L 730.885734 117.189541 
L 730.835858 116.672107 
L 730.898191 116.997347 
L 730.935535 116.731238 
L 730.972837 117.293037 
L 730.997682 116.879084 
L 731.084494 117.041712 
L 731.047317 116.805169 
L 731.109256 116.938215 
L 731.17108 117.145192 
L 731.158724 116.879084 
L 731.20812 117.026929 
L 731.269761 116.805169 
L 731.318992 116.879084 
L 731.355868 117.204324 
L 731.380429 116.775587 
L 731.429497 117.01213 
L 731.441753 117.08606 
L 731.478493 116.879084 
L 731.515193 116.923432 
L 731.527417 116.731238 
L 731.612862 117.130409 
L 731.62505 116.908649 
L 731.734547 117.293037 
L 731.710245 116.864301 
L 731.746691 117.071278 
L 731.758831 117.071278 
L 731.843685 116.746021 
L 731.867889 116.893867 
L 731.916246 116.716456 
L 731.964532 117.100843 
L 732.072921 116.775587 
L 732.03683 117.219107 
L 732.084942 116.908649 
L 732.15698 117.145192 
L 732.180958 116.79037 
L 732.192941 116.893867 
L 732.216893 116.893867 
L 732.240828 117.352169 
L 732.31253 116.760804 
L 732.324465 116.864301 
L 732.336396 116.746021 
L 732.348323 117.041712 
L 732.419795 116.967781 
L 732.479237 117.026929 
L 732.443585 116.819952 
L 732.502985 116.893867 
L 732.597806 116.672107 
L 732.526715 116.997347 
L 732.60964 116.834735 
L 732.621469 116.834735 
L 732.680553 117.071278 
L 732.715954 116.819952 
L 732.727746 116.819952 
L 732.82193 117.130409 
L 732.833685 116.923432 
L 732.845435 116.760804 
L 732.880661 117.233906 
L 732.927571 116.938215 
L 732.974415 116.79037 
L 733.032878 117.219107 
L 733.056234 116.775587 
L 733.149496 116.79037 
L 733.172771 117.219107 
L 733.254105 117.026929 
L 733.265708 116.819952 
L 733.277307 117.189541 
L 733.369954 116.879084 
L 733.40463 117.263471 
L 733.473874 116.864301 
L 733.485401 116.760804 
L 733.519957 117.159975 
L 733.554478 116.952998 
L 733.623412 116.879084 
L 733.669288 117.08606 
L 733.737986 116.805169 
L 733.692203 117.278254 
L 733.772281 117.026929 
L 733.806542 117.204324 
L 733.795125 116.864301 
L 733.852167 116.967781 
L 733.863564 116.879084 
L 733.874957 117.204324 
L 733.954597 117.01213 
L 734.000021 116.923432 
L 734.056714 117.100843 
L 734.068041 116.879084 
L 734.101998 117.366952 
L 734.158518 117.115626 
L 734.237485 116.893867 
L 734.192384 117.248689 
L 734.282525 116.967781 
L 734.394859 117.30782 
L 734.349971 116.938215 
L 734.406072 117.233906 
L 734.495637 116.879084 
L 734.54033 117.100843 
L 734.551494 117.219107 
L 734.607257 116.908649 
L 734.64067 117.145192 
L 734.651801 116.938215 
L 734.707396 117.219107 
L 734.740709 117.174758 
L 734.773989 116.997347 
L 734.840449 117.337386 
L 734.950922 116.982564 
L 734.983992 117.30782 
L 735.061029 116.997347 
L 735.083007 117.278254 
L 735.170775 116.982564 
L 735.214572 117.278254 
L 735.247382 116.923432 
L 735.28016 117.056495 
L 735.291079 116.805169 
L 735.378301 117.174758 
L 735.389187 117.071278 
L 735.487008 117.293037 
L 735.443567 116.967781 
L 735.497859 117.174758 
L 735.573719 116.938215 
L 735.606178 117.08606 
L 735.638605 116.923432 
L 735.724923 117.352169 
L 735.735697 117.071278 
L 735.832508 117.322603 
L 735.843247 117.411301 
L 735.875444 117.01213 
L 735.918326 117.189541 
L 735.939746 117.01213 
L 735.961152 117.426084 
L 736.014608 117.278254 
L 736.035966 117.366952 
L 736.089302 117.115626 
L 736.099959 117.204324 
L 736.121263 116.982564 
L 736.195719 117.381735 
L 736.206342 117.263471 
L 736.259406 117.071278 
L 736.291204 117.440867 
L 736.322972 117.204324 
L 736.344134 117.08606 
L 736.439195 117.411301 
L 736.481358 117.130409 
L 736.555015 117.322603 
L 736.565524 117.485231 
L 736.649478 117.130409 
L 736.659957 117.293037 
L 736.722765 117.411301 
L 736.712305 117.189541 
L 736.76457 117.293037 
L 736.848025 117.30782 
L 736.858442 117.440867 
L 736.910479 117.204324 
L 736.95205 117.278254 
L 737.003941 117.08606 
L 736.983195 117.426084 
L 737.045396 117.293037 
L 737.076454 117.130409 
L 737.148808 117.411301 
L 737.190084 117.115626 
L 737.251901 117.278254 
L 737.262192 117.411301 
L 737.323876 117.115626 
L 737.344412 117.115626 
L 737.354675 117.041712 
L 737.385446 117.322603 
L 737.426429 117.219107 
L 737.518458 117.189541 
L 737.538874 117.322603 
L 737.579669 117.056495 
L 737.630593 117.485231 
L 737.640769 117.366952 
L 737.671276 117.01213 
L 737.742353 117.396518 
L 737.772768 117.204324 
L 737.803155 117.381735 
L 737.823398 117.08606 
L 737.884052 117.278254 
L 737.914338 117.056495 
L 737.944597 117.337386 
L 737.994966 117.189541 
L 738.035208 117.426084 
L 738.115544 117.293037 
L 738.215694 117.100843 
L 738.195688 117.366952 
L 738.235688 117.159975 
L 738.325512 117.559146 
L 738.355399 117.30782 
L 738.405153 117.381735 
L 738.415095 117.130409 
L 738.454832 117.337386 
L 738.494522 117.071278 
L 738.573761 117.159975 
L 738.623189 117.411301 
L 738.652811 117.026929 
L 738.682407 117.219107 
L 738.751362 117.440867 
L 738.711977 117.115626 
L 738.800528 117.366952 
L 738.888845 117.071278 
L 738.839809 117.411301 
L 738.908439 117.366952 
L 738.976928 117.174758 
L 738.957374 117.396518 
L 739.016002 117.263471 
L 739.035521 117.514797 
L 739.10375 117.100843 
L 739.123218 117.352169 
L 739.191268 117.455665 
L 739.230091 117.130409 
L 739.288241 117.411301 
L 739.336623 117.233906 
L 739.355955 117.056495 
L 739.394587 117.440867 
L 739.442814 117.248689 
L 739.452451 117.396518 
L 739.510215 117.159975 
L 739.548669 117.248689 
L 739.635028 117.381735 
L 739.606267 117.115626 
L 739.654189 117.30782 
L 739.730721 117.041712 
L 739.682909 117.381735 
L 739.768921 117.233906 
L 739.797543 117.30782 
L 739.835667 117.100843 
L 739.845191 117.248689 
L 739.892771 117.440867 
L 739.949777 117.041712 
L 739.997208 117.440867 
L 740.063498 117.233906 
L 740.082414 117.485231 
L 740.157971 117.130409 
L 740.167403 117.159975 
L 740.195685 117.366952 
L 740.280386 117.174758 
L 740.364872 117.500014 
L 740.355495 117.08606 
L 740.392986 117.145192 
L 740.402352 117.056495 
L 740.439791 117.322603 
L 740.48653 117.145192 
L 740.49587 117.426084 
L 740.561177 116.997347 
L 740.598438 117.219107 
L 740.682123 117.056495 
L 740.644956 117.293037 
L 740.700691 117.248689 
L 740.793377 117.485231 
L 740.811883 117.352169 
L 740.904261 117.145192 
L 740.848865 117.381735 
L 740.931924 117.189541 
L 741.014777 117.485231 
L 740.977979 117.071278 
L 741.042349 117.219107 
L 741.051534 117.411301 
L 741.134091 117.08606 
L 741.152409 117.263471 
L 741.19816 117.041712 
L 741.216443 117.470448 
L 741.252979 117.233906 
L 741.353246 117.130409 
L 741.362347 117.500014 
L 741.389633 117.01213 
L 741.471357 117.337386 
L 741.48949 117.440867 
L 741.543833 117.248689 
L 741.552881 117.278254 
L 741.598086 117.115626 
L 741.62518 117.426084 
L 741.661271 117.293037 
L 741.715334 117.041712 
L 741.733335 117.440867 
L 741.760319 117.337386 
L 741.769309 117.440867 
L 741.805244 117.071278 
L 741.859074 117.293037 
L 741.930713 117.145192 
L 741.948598 117.30782 
L 742.002198 117.426084 
L 742.028965 117.041712 
L 742.055711 117.263471 
L 742.118035 117.174758 
L 742.07353 117.381735 
L 742.153596 117.233906 
L 742.224605 117.426084 
L 742.268909 117.352169 
L 742.277763 117.115626 
L 742.321996 117.500014 
L 742.374999 117.352169 
L 742.410287 117.544363 
L 742.401469 117.293037 
L 742.46315 117.322603 
L 742.524717 117.145192 
L 742.551068 117.485231 
L 742.568624 117.440867 
L 742.586171 117.52958 
L 742.638755 116.982564 
L 742.708739 117.130409 
L 742.787296 117.381735 
L 742.822151 117.30782 
L 742.917814 117.455665 
L 742.935177 117.130409 
L 742.952532 117.01213 
L 743.073763 117.411301 
L 743.10832 117.189541 
L 743.151465 117.455665 
L 743.203166 117.233906 
L 743.323491 117.381735 
L 743.289157 117.145192 
L 743.332069 117.366952 
L 743.340645 117.115626 
L 743.417728 117.381735 
L 743.434833 117.248689 
L 743.486097 117.455665 
L 743.45193 117.189541 
L 743.537282 117.248689 
L 743.596898 117.145192 
L 743.562845 117.381735 
L 743.605406 117.263471 
L 743.630917 117.381735 
L 743.68188 117.189541 
L 743.707332 117.189541 
L 743.741239 117.485231 
L 743.732765 117.100843 
L 743.834303 117.322603 
L 743.910255 117.100843 
L 743.918683 117.426084 
L 743.943955 117.159975 
L 743.986033 117.08606 
L 744.07003 117.381735 
L 744.170547 117.145192 
L 744.120326 117.500014 
L 744.187271 117.174758 
L 744.195629 117.366952 
L 744.295769 117.278254 
L 744.362362 117.100843 
L 744.345727 117.352169 
L 744.403916 117.278254 
L 744.478581 117.071278 
L 744.462003 117.381735 
L 744.528266 117.189541 
L 744.55308 117.159975 
L 744.586137 116.997347 
L 744.660396 117.381735 
L 744.668637 117.100843 
L 744.767368 117.440867 
L 744.80842 117.455665 
L 744.783795 117.248689 
L 744.816624 117.352169 
L 744.873997 117.219107 
L 744.857615 117.440867 
L 744.931272 117.263471 
L 744.980287 117.248689 
L 745.061818 117.100843 
L 745.053674 117.366952 
L 745.086239 117.322603 
L 745.1269 117.041712 
L 745.191854 117.159975 
L 745.27287 117.411301 
L 745.21618 117.115626 
L 745.297137 117.130409 
L 745.402087 117.01213 
L 745.361761 117.293037 
L 745.410147 117.08606 
L 745.482595 117.293037 
L 745.466509 117.01213 
L 745.514743 117.145192 
L 745.522775 116.997347 
L 745.570928 117.248689 
L 745.627019 117.071278 
L 745.683016 117.041712 
L 745.746897 117.30782 
L 745.794727 117.322603 
L 745.858395 117.026929 
L 745.937808 117.337386 
L 745.977444 117.263471 
L 745.985366 117.455665 
L 746.040764 117.159975 
L 746.080278 117.204324 
L 746.135519 117.026929 
L 746.103964 117.396518 
L 746.159165 117.233906 
L 746.167044 117.470448 
L 746.261441 116.997347 
L 746.269295 117.322603 
L 746.324224 117.056495 
L 746.386889 117.100843 
L 746.441624 117.366952 
L 746.425995 116.982564 
L 746.504069 117.204324 
L 746.519662 117.130409 
L 746.535248 117.30782 
L 746.58974 117.278254 
L 746.659671 117.544363 
L 746.605293 116.997347 
L 746.690705 117.352169 
L 746.799095 117.056495 
L 746.814551 117.470448 
L 746.884012 117.041712 
L 746.914838 117.248689 
L 746.968713 117.100843 
L 746.93024 117.337386 
L 747.022502 117.263471 
L 747.099194 116.849518 
L 747.068538 117.381735 
L 747.145124 117.189541 
L 747.221534 117.337386 
L 747.190991 117.159975 
L 747.252048 117.204324 
L 747.312995 117.026929 
L 747.328214 117.30782 
L 747.35103 117.204324 
L 747.37383 117.396518 
L 747.442137 116.997347 
L 747.449718 116.997347 
L 747.517869 117.366952 
L 747.585882 117.233906 
L 747.706452 117.056495 
L 747.653756 117.322603 
L 747.713973 117.174758 
L 747.759064 117.426084 
L 747.804095 117.071278 
L 747.834081 117.352169 
L 747.923879 117.08606 
L 747.946291 117.174758 
L 747.97615 117.352169 
L 747.998526 117.056495 
L 748.058124 117.293037 
L 748.095318 117.01213 
L 748.154743 117.352169 
L 748.169583 117.248689 
L 748.214063 117.30782 
L 748.19183 117.219107 
L 748.214063 117.30782 
" clip-path="url(#p273c5de185)" style="fill: none; stroke: #1f77b4; stroke-width: 1.5; stroke-linecap: square"/>
   </g>
   <g id="patch_3">
    <path d="M 391.094063 311.6435 
L 391.094063 45.5315 
" style="fill: none; stroke: #000000; stroke-width: 0.8; stroke-linejoin: miter; stroke-linecap: square"/>
   </g>
   <g id="patch_4">
    <path d="M 748.214063 311.6435 
L 748.214063 45.5315 
" style="fill: none; stroke: #000000; stroke-width: 0.8; stroke-linejoin: miter; stroke-linecap: square"/>
   </g>
   <g id="patch_5">
    <path d="M 391.094063 311.6435 
L 748.214063 311.6435 
" style="fill: none; stroke: #000000; stroke-width: 0.8; stroke-linejoin: miter; stroke-linecap: square"/>
   </g>
   <g id="patch_6">
    <path d="M 391.094063 45.5315 
L 748.214063 45.5315 
" style="fill: none; stroke: #000000; stroke-width: 0.8; stroke-linejoin: miter; stroke-linecap: square"/>
   </g>
   <g id="text_18">
    <!-- Accuracy of the 09_07_25_CINIC10_torch_model_(1024+2048-2048.3-1)_elk-horse on the validation set -->
    <g transform="translate(7.2 25.5315) scale(0.264 -0.264)">
     <defs>
      <path id="TimesNewRomanPSMT-20" transform="scale(0.015625)"/>
      <path id="TimesNewRomanPSMT-6f" d="M 1600 2947 
Q 2250 2947 2644 2453 
Q 2978 2031 2978 1484 
Q 2978 1100 2793 706 
Q 2609 313 2286 112 
Q 1963 -88 1566 -88 
Q 919 -88 538 428 
Q 216 863 216 1403 
Q 216 1797 411 2186 
Q 606 2575 925 2761 
Q 1244 2947 1600 2947 
z
M 1503 2744 
Q 1338 2744 1170 2645 
Q 1003 2547 900 2300 
Q 797 2053 797 1666 
Q 797 1041 1045 587 
Q 1294 134 1700 134 
Q 2003 134 2200 384 
Q 2397 634 2397 1244 
Q 2397 2006 2069 2444 
Q 1847 2744 1503 2744 
z
" transform="scale(0.015625)"/>
      <path id="TimesNewRomanPSMT-66" d="M 1319 2638 
L 1319 756 
Q 1319 356 1406 250 
Q 1522 113 1716 113 
L 1975 113 
L 1975 0 
L 266 0 
L 266 113 
L 394 113 
Q 519 113 622 175 
Q 725 238 764 344 
Q 803 450 803 756 
L 803 2638 
L 247 2638 
L 247 2863 
L 803 2863 
L 803 3050 
Q 803 3478 940 3775 
Q 1078 4072 1361 4255 
Q 1644 4438 1997 4438 
Q 2325 4438 2600 4225 
Q 2781 4084 2781 3909 
Q 2781 3816 2700 3733 
Q 2619 3650 2525 3650 
Q 2453 3650 2373 3701 
Q 2294 3753 2178 3923 
Q 2063 4094 1966 4153 
Q 1869 4213 1750 4213 
Q 1606 4213 1506 4136 
Q 1406 4059 1362 3898 
Q 1319 3738 1319 3069 
L 1319 2863 
L 2056 2863 
L 2056 2638 
L 1319 2638 
z
" transform="scale(0.015625)"/>
      <path id="TimesNewRomanPSMT-74" d="M 1031 3803 
L 1031 2863 
L 1700 2863 
L 1700 2644 
L 1031 2644 
L 1031 788 
Q 1031 509 1111 412 
Q 1191 316 1316 316 
Q 1419 316 1516 380 
Q 1613 444 1666 569 
L 1788 569 
Q 1678 263 1478 108 
Q 1278 -47 1066 -47 
Q 922 -47 784 33 
Q 647 113 581 261 
Q 516 409 516 719 
L 516 2644 
L 63 2644 
L 63 2747 
Q 234 2816 414 2980 
Q 594 3144 734 3369 
Q 806 3488 934 3803 
L 1031 3803 
z
" transform="scale(0.015625)"/>
      <path id="TimesNewRomanPSMT-68" d="M 1041 4444 
L 1041 2350 
Q 1388 2731 1591 2839 
Q 1794 2947 1997 2947 
Q 2241 2947 2416 2812 
Q 2591 2678 2675 2391 
Q 2734 2191 2734 1659 
L 2734 647 
Q 2734 375 2778 275 
Q 2809 200 2884 156 
Q 2959 113 3159 113 
L 3159 0 
L 1753 0 
L 1753 113 
L 1819 113 
Q 2019 113 2097 173 
Q 2175 234 2206 353 
Q 2216 403 2216 647 
L 2216 1659 
Q 2216 2128 2167 2275 
Q 2119 2422 2012 2495 
Q 1906 2569 1756 2569 
Q 1603 2569 1437 2487 
Q 1272 2406 1041 2159 
L 1041 647 
Q 1041 353 1073 281 
Q 1106 209 1195 161 
Q 1284 113 1503 113 
L 1503 0 
L 84 0 
L 84 113 
Q 275 113 384 172 
Q 447 203 484 290 
Q 522 378 522 647 
L 522 3238 
Q 522 3728 498 3840 
Q 475 3953 426 3993 
Q 378 4034 297 4034 
Q 231 4034 84 3984 
L 41 4094 
L 897 4444 
L 1041 4444 
z
" transform="scale(0.015625)"/>
      <path id="TimesNewRomanPSMT-65" d="M 681 1784 
Q 678 1147 991 784 
Q 1303 422 1725 422 
Q 2006 422 2214 576 
Q 2422 731 2563 1106 
L 2659 1044 
Q 2594 616 2278 264 
Q 1963 -88 1488 -88 
Q 972 -88 605 314 
Q 238 716 238 1394 
Q 238 2128 614 2539 
Q 991 2950 1559 2950 
Q 2041 2950 2350 2633 
Q 2659 2316 2659 1784 
L 681 1784 
z
M 681 1966 
L 2006 1966 
Q 1991 2241 1941 2353 
Q 1863 2528 1708 2628 
Q 1553 2728 1384 2728 
Q 1125 2728 920 2526 
Q 716 2325 681 1966 
z
" transform="scale(0.015625)"/>
      <path id="TimesNewRomanPSMT-5f" d="M 3256 -1381 
L -53 -1381 
L -53 -1119 
L 3256 -1119 
L 3256 -1381 
z
" transform="scale(0.015625)"/>
      <path id="TimesNewRomanPSMT-43" d="M 3853 4334 
L 3950 2894 
L 3853 2894 
Q 3659 3541 3300 3825 
Q 2941 4109 2438 4109 
Q 2016 4109 1675 3895 
Q 1334 3681 1139 3212 
Q 944 2744 944 2047 
Q 944 1472 1128 1050 
Q 1313 628 1683 403 
Q 2053 178 2528 178 
Q 2941 178 3256 354 
Q 3572 531 3950 1056 
L 4047 994 
Q 3728 428 3303 165 
Q 2878 -97 2294 -97 
Q 1241 -97 663 684 
Q 231 1266 231 2053 
Q 231 2688 515 3219 
Q 800 3750 1298 4042 
Q 1797 4334 2388 4334 
Q 2847 4334 3294 4109 
Q 3425 4041 3481 4041 
Q 3566 4041 3628 4100 
Q 3709 4184 3744 4334 
L 3853 4334 
z
" transform="scale(0.015625)"/>
      <path id="TimesNewRomanPSMT-49" d="M 1975 116 
L 1975 0 
L 159 0 
L 159 116 
L 309 116 
Q 572 116 691 269 
Q 766 369 766 750 
L 766 3488 
Q 766 3809 725 3913 
Q 694 3991 597 4047 
Q 459 4122 309 4122 
L 159 4122 
L 159 4238 
L 1975 4238 
L 1975 4122 
L 1822 4122 
Q 1563 4122 1444 3969 
Q 1366 3869 1366 3488 
L 1366 750 
Q 1366 428 1406 325 
Q 1438 247 1538 191 
Q 1672 116 1822 116 
L 1975 116 
z
" transform="scale(0.015625)"/>
      <path id="TimesNewRomanPSMT-4e" d="M -84 4238 
L 1066 4238 
L 3656 1059 
L 3656 3503 
Q 3656 3894 3569 3991 
Q 3453 4122 3203 4122 
L 3056 4122 
L 3056 4238 
L 4531 4238 
L 4531 4122 
L 4381 4122 
Q 4113 4122 4000 3959 
Q 3931 3859 3931 3503 
L 3931 -69 
L 3819 -69 
L 1025 3344 
L 1025 734 
Q 1025 344 1109 247 
Q 1228 116 1475 116 
L 1625 116 
L 1625 0 
L 150 0 
L 150 116 
L 297 116 
Q 569 116 681 278 
Q 750 378 750 734 
L 750 3681 
Q 566 3897 470 3965 
Q 375 4034 191 4094 
Q 100 4122 -84 4122 
L -84 4238 
z
" transform="scale(0.015625)"/>
      <path id="TimesNewRomanPSMT-6d" d="M 1050 2338 
Q 1363 2650 1419 2697 
Q 1559 2816 1721 2881 
Q 1884 2947 2044 2947 
Q 2313 2947 2506 2790 
Q 2700 2634 2766 2338 
Q 3088 2713 3309 2830 
Q 3531 2947 3766 2947 
Q 3994 2947 4170 2830 
Q 4347 2713 4450 2447 
Q 4519 2266 4519 1878 
L 4519 647 
Q 4519 378 4559 278 
Q 4591 209 4675 161 
Q 4759 113 4950 113 
L 4950 0 
L 3538 0 
L 3538 113 
L 3597 113 
Q 3781 113 3884 184 
Q 3956 234 3988 344 
Q 4000 397 4000 647 
L 4000 1878 
Q 4000 2228 3916 2372 
Q 3794 2572 3525 2572 
Q 3359 2572 3192 2489 
Q 3025 2406 2788 2181 
L 2781 2147 
L 2788 2013 
L 2788 647 
Q 2788 353 2820 281 
Q 2853 209 2943 161 
Q 3034 113 3253 113 
L 3253 0 
L 1806 0 
L 1806 113 
Q 2044 113 2133 169 
Q 2222 225 2256 338 
Q 2272 391 2272 647 
L 2272 1878 
Q 2272 2228 2169 2381 
Q 2031 2581 1784 2581 
Q 1616 2581 1450 2491 
Q 1191 2353 1050 2181 
L 1050 647 
Q 1050 366 1089 281 
Q 1128 197 1204 155 
Q 1281 113 1516 113 
L 1516 0 
L 100 0 
L 100 113 
Q 297 113 375 155 
Q 453 197 493 289 
Q 534 381 534 647 
L 534 1741 
Q 534 2213 506 2350 
Q 484 2453 437 2492 
Q 391 2531 309 2531 
Q 222 2531 100 2484 
L 53 2597 
L 916 2947 
L 1050 2947 
L 1050 2338 
z
" transform="scale(0.015625)"/>
      <path id="TimesNewRomanPSMT-64" d="M 2222 322 
Q 2013 103 1813 7 
Q 1613 -88 1381 -88 
Q 913 -88 563 304 
Q 213 697 213 1313 
Q 213 1928 600 2439 
Q 988 2950 1597 2950 
Q 1975 2950 2222 2709 
L 2222 3238 
Q 2222 3728 2198 3840 
Q 2175 3953 2125 3993 
Q 2075 4034 2000 4034 
Q 1919 4034 1784 3984 
L 1744 4094 
L 2597 4444 
L 2738 4444 
L 2738 1134 
Q 2738 631 2761 520 
Q 2784 409 2836 365 
Q 2888 322 2956 322 
Q 3041 322 3181 375 
L 3216 266 
L 2366 -88 
L 2222 -88 
L 2222 322 
z
M 2222 541 
L 2222 2016 
Q 2203 2228 2109 2403 
Q 2016 2578 1861 2667 
Q 1706 2756 1559 2756 
Q 1284 2756 1069 2509 
Q 784 2184 784 1559 
Q 784 928 1059 592 
Q 1334 256 1672 256 
Q 1956 256 2222 541 
z
" transform="scale(0.015625)"/>
      <path id="TimesNewRomanPSMT-6c" d="M 1184 4444 
L 1184 647 
Q 1184 378 1223 290 
Q 1263 203 1344 158 
Q 1425 113 1647 113 
L 1647 0 
L 244 0 
L 244 113 
Q 441 113 512 153 
Q 584 194 625 287 
Q 666 381 666 647 
L 666 3247 
Q 666 3731 644 3842 
Q 622 3953 573 3993 
Q 525 4034 450 4034 
Q 369 4034 244 3984 
L 191 4094 
L 1044 4444 
L 1184 4444 
z
" transform="scale(0.015625)"/>
      <path id="TimesNewRomanPSMT-28" d="M 1988 -1253 
L 1988 -1369 
Q 1516 -1131 1200 -813 
Q 750 -359 506 256 
Q 263 872 263 1534 
Q 263 2503 741 3301 
Q 1219 4100 1988 4444 
L 1988 4313 
Q 1603 4100 1356 3731 
Q 1109 3363 987 2797 
Q 866 2231 866 1616 
Q 866 947 969 400 
Q 1050 -31 1165 -292 
Q 1281 -553 1476 -793 
Q 1672 -1034 1988 -1253 
z
" transform="scale(0.015625)"/>
      <path id="TimesNewRomanPSMT-2b" d="M 1672 441 
L 1672 2000 
L 116 2000 
L 116 2256 
L 1672 2256 
L 1672 3809 
L 1922 3809 
L 1922 2256 
L 3484 2256 
L 3484 2000 
L 1922 2000 
L 1922 441 
L 1672 441 
z
" transform="scale(0.015625)"/>
      <path id="TimesNewRomanPSMT-2d" d="M 259 1672 
L 1875 1672 
L 1875 1200 
L 259 1200 
L 259 1672 
z
" transform="scale(0.015625)"/>
      <path id="TimesNewRomanPSMT-29" d="M 144 4313 
L 144 4444 
Q 619 4209 934 3891 
Q 1381 3434 1625 2820 
Q 1869 2206 1869 1541 
Q 1869 572 1392 -226 
Q 916 -1025 144 -1369 
L 144 -1253 
Q 528 -1038 776 -670 
Q 1025 -303 1145 264 
Q 1266 831 1266 1447 
Q 1266 2113 1163 2663 
Q 1084 3094 967 3353 
Q 850 3613 656 3853 
Q 463 4094 144 4313 
z
" transform="scale(0.015625)"/>
      <path id="TimesNewRomanPSMT-6b" d="M 1047 4444 
L 1047 1594 
L 1775 2259 
Q 2006 2472 2044 2528 
Q 2069 2566 2069 2603 
Q 2069 2666 2017 2711 
Q 1966 2756 1847 2763 
L 1847 2863 
L 3091 2863 
L 3091 2763 
Q 2834 2756 2664 2684 
Q 2494 2613 2291 2428 
L 1556 1750 
L 2291 822 
Q 2597 438 2703 334 
Q 2853 188 2966 144 
Q 3044 113 3238 113 
L 3238 0 
L 1847 0 
L 1847 113 
Q 1966 116 2008 148 
Q 2050 181 2050 241 
Q 2050 313 1925 472 
L 1047 1594 
L 1047 644 
Q 1047 366 1086 278 
Q 1125 191 1197 153 
Q 1269 116 1509 113 
L 1509 0 
L 53 0 
L 53 113 
Q 272 113 381 166 
Q 447 200 481 272 
Q 528 375 528 628 
L 528 3234 
Q 528 3731 506 3842 
Q 484 3953 434 3995 
Q 384 4038 303 4038 
Q 238 4038 106 3984 
L 53 4094 
L 903 4444 
L 1047 4444 
z
" transform="scale(0.015625)"/>
      <path id="TimesNewRomanPSMT-73" d="M 2050 2947 
L 2050 1972 
L 1947 1972 
Q 1828 2431 1642 2597 
Q 1456 2763 1169 2763 
Q 950 2763 815 2647 
Q 681 2531 681 2391 
Q 681 2216 781 2091 
Q 878 1963 1175 1819 
L 1631 1597 
Q 2266 1288 2266 781 
Q 2266 391 1970 151 
Q 1675 -88 1309 -88 
Q 1047 -88 709 6 
Q 606 38 541 38 
Q 469 38 428 -44 
L 325 -44 
L 325 978 
L 428 978 
Q 516 541 762 319 
Q 1009 97 1316 97 
Q 1531 97 1667 223 
Q 1803 350 1803 528 
Q 1803 744 1651 891 
Q 1500 1038 1047 1263 
Q 594 1488 453 1669 
Q 313 1847 313 2119 
Q 313 2472 555 2709 
Q 797 2947 1181 2947 
Q 1350 2947 1591 2875 
Q 1750 2828 1803 2828 
Q 1853 2828 1881 2850 
Q 1909 2872 1947 2947 
L 2050 2947 
z
" transform="scale(0.015625)"/>
      <path id="TimesNewRomanPSMT-6e" d="M 1034 2341 
Q 1538 2947 1994 2947 
Q 2228 2947 2397 2830 
Q 2566 2713 2666 2444 
Q 2734 2256 2734 1869 
L 2734 647 
Q 2734 375 2778 278 
Q 2813 200 2889 156 
Q 2966 113 3172 113 
L 3172 0 
L 1756 0 
L 1756 113 
L 1816 113 
Q 2016 113 2095 173 
Q 2175 234 2206 353 
Q 2219 400 2219 647 
L 2219 1819 
Q 2219 2209 2117 2386 
Q 2016 2563 1775 2563 
Q 1403 2563 1034 2156 
L 1034 647 
Q 1034 356 1069 288 
Q 1113 197 1189 155 
Q 1266 113 1500 113 
L 1500 0 
L 84 0 
L 84 113 
L 147 113 
Q 366 113 442 223 
Q 519 334 519 647 
L 519 1709 
Q 519 2225 495 2337 
Q 472 2450 423 2490 
Q 375 2531 294 2531 
Q 206 2531 84 2484 
L 38 2597 
L 900 2947 
L 1034 2947 
L 1034 2341 
z
" transform="scale(0.015625)"/>
      <path id="TimesNewRomanPSMT-76" d="M 53 2863 
L 1400 2863 
L 1400 2747 
L 1313 2747 
Q 1191 2747 1127 2687 
Q 1063 2628 1063 2528 
Q 1063 2419 1128 2269 
L 1794 688 
L 2463 2328 
Q 2534 2503 2534 2594 
Q 2534 2638 2509 2666 
Q 2475 2713 2422 2730 
Q 2369 2747 2206 2747 
L 2206 2863 
L 3141 2863 
L 3141 2747 
Q 2978 2734 2916 2681 
Q 2806 2588 2719 2369 
L 1703 -88 
L 1575 -88 
L 553 2328 
Q 484 2497 421 2570 
Q 359 2644 263 2694 
Q 209 2722 53 2747 
L 53 2863 
z
" transform="scale(0.015625)"/>
      <path id="TimesNewRomanPSMT-69" d="M 928 4444 
Q 1059 4444 1151 4351 
Q 1244 4259 1244 4128 
Q 1244 3997 1151 3903 
Q 1059 3809 928 3809 
Q 797 3809 703 3903 
Q 609 3997 609 4128 
Q 609 4259 701 4351 
Q 794 4444 928 4444 
z
M 1188 2947 
L 1188 647 
Q 1188 378 1227 289 
Q 1266 200 1342 156 
Q 1419 113 1622 113 
L 1622 0 
L 231 0 
L 231 113 
Q 441 113 512 153 
Q 584 194 626 287 
Q 669 381 669 647 
L 669 1750 
Q 669 2216 641 2353 
Q 619 2453 572 2492 
Q 525 2531 444 2531 
Q 356 2531 231 2484 
L 188 2597 
L 1050 2947 
L 1188 2947 
z
" transform="scale(0.015625)"/>
     </defs>
     <use xlink:href="#TimesNewRomanPSMT-41"/>
     <use xlink:href="#TimesNewRomanPSMT-63" transform="translate(72.216797 0)"/>
     <use xlink:href="#TimesNewRomanPSMT-63" transform="translate(116.601562 0)"/>
     <use xlink:href="#TimesNewRomanPSMT-75" transform="translate(160.986328 0)"/>
     <use xlink:href="#TimesNewRomanPSMT-72" transform="translate(210.986328 0)"/>
     <use xlink:href="#TimesNewRomanPSMT-61" transform="translate(244.287109 0)"/>
     <use xlink:href="#TimesNewRomanPSMT-63" transform="translate(288.671875 0)"/>
     <use xlink:href="#TimesNewRomanPSMT-79" transform="translate(333.056641 0)"/>
     <use xlink:href="#TimesNewRomanPSMT-20" transform="translate(383.056641 0)"/>
     <use xlink:href="#TimesNewRomanPSMT-6f" transform="translate(408.056641 0)"/>
     <use xlink:href="#TimesNewRomanPSMT-66" transform="translate(458.056641 0)"/>
     <use xlink:href="#TimesNewRomanPSMT-20" transform="translate(491.357422 0)"/>
     <use xlink:href="#TimesNewRomanPSMT-74" transform="translate(516.357422 0)"/>
     <use xlink:href="#TimesNewRomanPSMT-68" transform="translate(544.140625 0)"/>
     <use xlink:href="#TimesNewRomanPSMT-65" transform="translate(594.140625 0)"/>
     <use xlink:href="#TimesNewRomanPSMT-20" transform="translate(638.525391 0)"/>
     <use xlink:href="#TimesNewRomanPSMT-30" transform="translate(663.525391 0)"/>
     <use xlink:href="#TimesNewRomanPSMT-39" transform="translate(713.525391 0)"/>
     <use xlink:href="#TimesNewRomanPSMT-5f" transform="translate(763.525391 0)"/>
     <use xlink:href="#TimesNewRomanPSMT-30" transform="translate(813.525391 0)"/>
     <use xlink:href="#TimesNewRomanPSMT-37" transform="translate(863.525391 0)"/>
     <use xlink:href="#TimesNewRomanPSMT-5f" transform="translate(913.525391 0)"/>
     <use xlink:href="#TimesNewRomanPSMT-32" transform="translate(963.525391 0)"/>
     <use xlink:href="#TimesNewRomanPSMT-35" transform="translate(1013.525391 0)"/>
     <use xlink:href="#TimesNewRomanPSMT-5f" transform="translate(1063.525391 0)"/>
     <use xlink:href="#TimesNewRomanPSMT-43" transform="translate(1113.525391 0)"/>
     <use xlink:href="#TimesNewRomanPSMT-49" transform="translate(1180.224609 0)"/>
     <use xlink:href="#TimesNewRomanPSMT-4e" transform="translate(1213.525391 0)"/>
     <use xlink:href="#TimesNewRomanPSMT-49" transform="translate(1285.742188 0)"/>
     <use xlink:href="#TimesNewRomanPSMT-43" transform="translate(1319.042969 0)"/>
     <use xlink:href="#TimesNewRomanPSMT-31" transform="translate(1385.742188 0)"/>
     <use xlink:href="#TimesNewRomanPSMT-30" transform="translate(1435.742188 0)"/>
     <use xlink:href="#TimesNewRomanPSMT-5f" transform="translate(1485.742188 0)"/>
     <use xlink:href="#TimesNewRomanPSMT-74" transform="translate(1535.742188 0)"/>
     <use xlink:href="#TimesNewRomanPSMT-6f" transform="translate(1563.525391 0)"/>
     <use xlink:href="#TimesNewRomanPSMT-72" transform="translate(1613.525391 0)"/>
     <use xlink:href="#TimesNewRomanPSMT-63" transform="translate(1646.826172 0)"/>
     <use xlink:href="#TimesNewRomanPSMT-68" transform="translate(1691.210938 0)"/>
     <use xlink:href="#TimesNewRomanPSMT-5f" transform="translate(1741.210938 0)"/>
     <use xlink:href="#TimesNewRomanPSMT-6d" transform="translate(1791.210938 0)"/>
     <use xlink:href="#TimesNewRomanPSMT-6f" transform="translate(1868.994141 0)"/>
     <use xlink:href="#TimesNewRomanPSMT-64" transform="translate(1918.994141 0)"/>
     <use xlink:href="#TimesNewRomanPSMT-65" transform="translate(1968.994141 0)"/>
     <use xlink:href="#TimesNewRomanPSMT-6c" transform="translate(2013.378906 0)"/>
     <use xlink:href="#TimesNewRomanPSMT-5f" transform="translate(2041.162109 0)"/>
     <use xlink:href="#TimesNewRomanPSMT-28" transform="translate(2091.162109 0)"/>
     <use xlink:href="#TimesNewRomanPSMT-31" transform="translate(2124.462891 0)"/>
     <use xlink:href="#TimesNewRomanPSMT-30" transform="translate(2174.462891 0)"/>
     <use xlink:href="#TimesNewRomanPSMT-32" transform="translate(2224.462891 0)"/>
     <use xlink:href="#TimesNewRomanPSMT-34" transform="translate(2274.462891 0)"/>
     <use xlink:href="#TimesNewRomanPSMT-2b" transform="translate(2324.462891 0)"/>
     <use xlink:href="#TimesNewRomanPSMT-32" transform="translate(2380.859375 0)"/>
     <use xlink:href="#TimesNewRomanPSMT-30" transform="translate(2430.859375 0)"/>
     <use xlink:href="#TimesNewRomanPSMT-34" transform="translate(2480.859375 0)"/>
     <use xlink:href="#TimesNewRomanPSMT-38" transform="translate(2530.859375 0)"/>
     <use xlink:href="#TimesNewRomanPSMT-2d" transform="translate(2580.859375 0)"/>
     <use xlink:href="#TimesNewRomanPSMT-32" transform="translate(2614.160156 0)"/>
     <use xlink:href="#TimesNewRomanPSMT-30" transform="translate(2664.160156 0)"/>
     <use xlink:href="#TimesNewRomanPSMT-34" transform="translate(2714.160156 0)"/>
     <use xlink:href="#TimesNewRomanPSMT-38" transform="translate(2764.160156 0)"/>
     <use xlink:href="#TimesNewRomanPSMT-2e" transform="translate(2814.160156 0)"/>
     <use xlink:href="#TimesNewRomanPSMT-33" transform="translate(2839.160156 0)"/>
     <use xlink:href="#TimesNewRomanPSMT-2d" transform="translate(2889.160156 0)"/>
     <use xlink:href="#TimesNewRomanPSMT-31" transform="translate(2922.460938 0)"/>
     <use xlink:href="#TimesNewRomanPSMT-29" transform="translate(2972.460938 0)"/>
     <use xlink:href="#TimesNewRomanPSMT-5f" transform="translate(3005.761719 0)"/>
     <use xlink:href="#TimesNewRomanPSMT-65" transform="translate(3055.761719 0)"/>
     <use xlink:href="#TimesNewRomanPSMT-6c" transform="translate(3100.146484 0)"/>
     <use xlink:href="#TimesNewRomanPSMT-6b" transform="translate(3127.929688 0)"/>
     <use xlink:href="#TimesNewRomanPSMT-2d" transform="translate(3177.929688 0)"/>
     <use xlink:href="#TimesNewRomanPSMT-68" transform="translate(3211.230469 0)"/>
     <use xlink:href="#TimesNewRomanPSMT-6f" transform="translate(3261.230469 0)"/>
     <use xlink:href="#TimesNewRomanPSMT-72" transform="translate(3311.230469 0)"/>
     <use xlink:href="#TimesNewRomanPSMT-73" transform="translate(3344.53125 0)"/>
     <use xlink:href="#TimesNewRomanPSMT-65" transform="translate(3383.447266 0)"/>
     <use xlink:href="#TimesNewRomanPSMT-20" transform="translate(3427.832031 0)"/>
     <use xlink:href="#TimesNewRomanPSMT-6f" transform="translate(3452.832031 0)"/>
     <use xlink:href="#TimesNewRomanPSMT-6e" transform="translate(3502.832031 0)"/>
     <use xlink:href="#TimesNewRomanPSMT-20" transform="translate(3552.832031 0)"/>
     <use xlink:href="#TimesNewRomanPSMT-74" transform="translate(3577.832031 0)"/>
     <use xlink:href="#TimesNewRomanPSMT-68" transform="translate(3605.615234 0)"/>
     <use xlink:href="#TimesNewRomanPSMT-65" transform="translate(3655.615234 0)"/>
     <use xlink:href="#TimesNewRomanPSMT-20" transform="translate(3700 0)"/>
     <use xlink:href="#TimesNewRomanPSMT-76" transform="translate(3725 0)"/>
     <use xlink:href="#TimesNewRomanPSMT-61" transform="translate(3775 0)"/>
     <use xlink:href="#TimesNewRomanPSMT-6c" transform="translate(3819.384766 0)"/>
     <use xlink:href="#TimesNewRomanPSMT-69" transform="translate(3847.167969 0)"/>
     <use xlink:href="#TimesNewRomanPSMT-64" transform="translate(3874.951172 0)"/>
     <use xlink:href="#TimesNewRomanPSMT-61" transform="translate(3924.951172 0)"/>
     <use xlink:href="#TimesNewRomanPSMT-74" transform="translate(3969.335938 0)"/>
     <use xlink:href="#TimesNewRomanPSMT-69" transform="translate(3997.119141 0)"/>
     <use xlink:href="#TimesNewRomanPSMT-6f" transform="translate(4024.902344 0)"/>
     <use xlink:href="#TimesNewRomanPSMT-6e" transform="translate(4074.902344 0)"/>
     <use xlink:href="#TimesNewRomanPSMT-20" transform="translate(4124.902344 0)"/>
     <use xlink:href="#TimesNewRomanPSMT-73" transform="translate(4149.902344 0)"/>
     <use xlink:href="#TimesNewRomanPSMT-65" transform="translate(4188.818359 0)"/>
     <use xlink:href="#TimesNewRomanPSMT-74" transform="translate(4233.203125 0)"/>
    </g>
   </g>
   <g id="legend_1">
    <g id="patch_7">
     <path d="M 495.64375 94.278687 
L 732.814063 94.278687 
Q 737.214063 94.278687 737.214063 89.878687 
L 737.214063 60.9315 
Q 737.214063 56.5315 732.814063 56.5315 
L 495.64375 56.5315 
Q 491.24375 56.5315 491.24375 60.9315 
L 491.24375 89.878687 
Q 491.24375 94.278687 495.64375 94.278687 
z
" style="fill: #ffffff; opacity: 0.8; stroke: #cccccc; stroke-linejoin: miter"/>
    </g>
    <g id="line2d_32">
     <path d="M 500.04375 73.0315 
L 522.04375 73.0315 
L 544.04375 73.0315 
" style="fill: none; stroke: #1f77b4; stroke-width: 1.5; stroke-linecap: square"/>
    </g>
    <g id="text_19">
     <!-- Best accuracy 0.73 -->
     <g transform="translate(561.64375 80.7315) scale(0.22 -0.22)">
      <defs>
       <path id="TimesNewRomanPSMT-42" d="M 2956 2163 
Q 3397 2069 3616 1863 
Q 3919 1575 3919 1159 
Q 3919 844 3719 555 
Q 3519 266 3170 133 
Q 2822 0 2106 0 
L 106 0 
L 106 116 
L 266 116 
Q 531 116 647 284 
Q 719 394 719 750 
L 719 3488 
Q 719 3881 628 3984 
Q 506 4122 266 4122 
L 106 4122 
L 106 4238 
L 1938 4238 
Q 2450 4238 2759 4163 
Q 3228 4050 3475 3764 
Q 3722 3478 3722 3106 
Q 3722 2788 3528 2536 
Q 3334 2284 2956 2163 
z
M 1319 2331 
Q 1434 2309 1582 2298 
Q 1731 2288 1909 2288 
Q 2366 2288 2595 2386 
Q 2825 2484 2947 2687 
Q 3069 2891 3069 3131 
Q 3069 3503 2766 3765 
Q 2463 4028 1881 4028 
Q 1569 4028 1319 3959 
L 1319 2331 
z
M 1319 306 
Q 1681 222 2034 222 
Q 2600 222 2897 476 
Q 3194 731 3194 1106 
Q 3194 1353 3059 1581 
Q 2925 1809 2622 1940 
Q 2319 2072 1872 2072 
Q 1678 2072 1540 2065 
Q 1403 2059 1319 2044 
L 1319 306 
z
" transform="scale(0.015625)"/>
      </defs>
      <use xlink:href="#TimesNewRomanPSMT-42"/>
      <use xlink:href="#TimesNewRomanPSMT-65" transform="translate(66.699219 0)"/>
      <use xlink:href="#TimesNewRomanPSMT-73" transform="translate(111.083984 0)"/>
      <use xlink:href="#TimesNewRomanPSMT-74" transform="translate(150 0)"/>
      <use xlink:href="#TimesNewRomanPSMT-20" transform="translate(177.783203 0)"/>
      <use xlink:href="#TimesNewRomanPSMT-61" transform="translate(202.783203 0)"/>
      <use xlink:href="#TimesNewRomanPSMT-63" transform="translate(247.167969 0)"/>
      <use xlink:href="#TimesNewRomanPSMT-63" transform="translate(291.552734 0)"/>
      <use xlink:href="#TimesNewRomanPSMT-75" transform="translate(335.9375 0)"/>
      <use xlink:href="#TimesNewRomanPSMT-72" transform="translate(385.9375 0)"/>
      <use xlink:href="#TimesNewRomanPSMT-61" transform="translate(419.238281 0)"/>
      <use xlink:href="#TimesNewRomanPSMT-63" transform="translate(463.623047 0)"/>
      <use xlink:href="#TimesNewRomanPSMT-79" transform="translate(508.007812 0)"/>
      <use xlink:href="#TimesNewRomanPSMT-20" transform="translate(558.007812 0)"/>
      <use xlink:href="#TimesNewRomanPSMT-30" transform="translate(583.007812 0)"/>
      <use xlink:href="#TimesNewRomanPSMT-2e" transform="translate(633.007812 0)"/>
      <use xlink:href="#TimesNewRomanPSMT-37" transform="translate(658.007812 0)"/>
      <use xlink:href="#TimesNewRomanPSMT-33" transform="translate(708.007812 0)"/>
     </g>
    </g>
   </g>
  </g>
 </g>
 <defs>
  <clipPath id="p273c5de185">
   <rect x="391.094063" y="45.5315" width="357.12" height="266.112"/>
  </clipPath>
 </defs>
</svg>
