<?xml version="1.0" encoding="utf-8" standalone="no"?>
<!DOCTYPE svg PUBLIC "-//W3C//DTD SVG 1.1//EN"
  "http://www.w3.org/Graphics/SVG/1.1/DTD/svg11.dtd">
<svg xmlns:xlink="http://www.w3.org/1999/xlink" width="1124.185875pt" height="383.265687pt" viewBox="0 0 1124.185875 383.265687" xmlns="http://www.w3.org/2000/svg" version="1.1">
 <metadata>
  <rdf:RDF xmlns:dc="http://purl.org/dc/elements/1.1/" xmlns:cc="http://creativecommons.org/ns#" xmlns:rdf="http://www.w3.org/1999/02/22-rdf-syntax-ns#">
   <cc:Work>
    <dc:type rdf:resource="http://purl.org/dc/dcmitype/StillImage"/>
    <dc:date>2025-07-22T06:05:59.562566</dc:date>
    <dc:format>image/svg+xml</dc:format>
    <dc:creator>
     <cc:Agent>
      <dc:title>Matplotlib v3.10.3, https://matplotlib.org/</dc:title>
     </cc:Agent>
    </dc:creator>
   </cc:Work>
  </rdf:RDF>
 </metadata>
 <defs>
  <style type="text/css">*{stroke-linejoin: round; stroke-linecap: butt}</style>
 </defs>
 <g id="figure_1">
  <g id="patch_1">
   <path d="M 0 383.265687 
L 1124.185875 383.265687 
L 1124.185875 0 
L 0 0 
z
" style="fill: #ffffff"/>
  </g>
  <g id="axes_1">
   <g id="patch_2">
    <path d="M 383.532938 311.6435 
L 740.652938 311.6435 
L 740.652938 45.5315 
L 383.532938 45.5315 
z
" style="fill: #ffffff"/>
   </g>
   <g id="matplotlib.axis_1">
    <g id="xtick_1">
     <g id="line2d_1">
      <path d="M 383.532938 311.6435 
L 383.532938 45.5315 
" clip-path="url(#pe607945179)" style="fill: none; stroke: #b0b0b0; stroke-opacity: 0.3; stroke-width: 0.8; stroke-linecap: square"/>
     </g>
     <g id="line2d_2">
      <defs>
       <path id="m2480193d9a" d="M 0 0 
L 0 3.5 
" style="stroke: #000000; stroke-width: 0.8"/>
      </defs>
      <g>
       <use xlink:href="#m2480193d9a" x="383.532938" y="311.6435" style="stroke: #000000; stroke-width: 0.8"/>
      </g>
     </g>
     <g id="text_1">
      <!-- 0.0 -->
      <g transform="translate(369.782938 333.91975) scale(0.22 -0.22)">
       <defs>
        <path id="TimesNewRomanPSMT-30" d="M 231 2094 
Q 231 2819 450 3342 
Q 669 3866 1031 4122 
Q 1313 4325 1613 4325 
Q 2100 4325 2488 3828 
Q 2972 3213 2972 2159 
Q 2972 1422 2759 906 
Q 2547 391 2217 158 
Q 1888 -75 1581 -75 
Q 975 -75 572 641 
Q 231 1244 231 2094 
z
M 844 2016 
Q 844 1141 1059 588 
Q 1238 122 1591 122 
Q 1759 122 1940 273 
Q 2122 425 2216 781 
Q 2359 1319 2359 2297 
Q 2359 3022 2209 3506 
Q 2097 3866 1919 4016 
Q 1791 4119 1609 4119 
Q 1397 4119 1231 3928 
Q 1006 3669 925 3112 
Q 844 2556 844 2016 
z
" transform="scale(0.015625)"/>
        <path id="TimesNewRomanPSMT-2e" d="M 800 606 
Q 947 606 1047 504 
Q 1147 403 1147 259 
Q 1147 116 1045 14 
Q 944 -88 800 -88 
Q 656 -88 554 14 
Q 453 116 453 259 
Q 453 406 554 506 
Q 656 606 800 606 
z
" transform="scale(0.015625)"/>
       </defs>
       <use xlink:href="#TimesNewRomanPSMT-30"/>
       <use xlink:href="#TimesNewRomanPSMT-2e" transform="translate(50 0)"/>
       <use xlink:href="#TimesNewRomanPSMT-30" transform="translate(75 0)"/>
      </g>
     </g>
    </g>
    <g id="xtick_2">
     <g id="line2d_3">
      <path d="M 493.791761 311.6435 
L 493.791761 45.5315 
" clip-path="url(#pe607945179)" style="fill: none; stroke: #b0b0b0; stroke-opacity: 0.3; stroke-width: 0.8; stroke-linecap: square"/>
     </g>
     <g id="line2d_4">
      <g>
       <use xlink:href="#m2480193d9a" x="493.791761" y="311.6435" style="stroke: #000000; stroke-width: 0.8"/>
      </g>
     </g>
     <g id="text_2">
      <!-- 0.5 -->
      <g transform="translate(480.041761 333.91975) scale(0.22 -0.22)">
       <defs>
        <path id="TimesNewRomanPSMT-35" d="M 2778 4238 
L 2534 3706 
L 1259 3706 
L 981 3138 
Q 1809 3016 2294 2522 
Q 2709 2097 2709 1522 
Q 2709 1188 2573 903 
Q 2438 619 2231 419 
Q 2025 219 1772 97 
Q 1413 -75 1034 -75 
Q 653 -75 479 54 
Q 306 184 306 341 
Q 306 428 378 495 
Q 450 563 559 563 
Q 641 563 702 538 
Q 763 513 909 409 
Q 1144 247 1384 247 
Q 1750 247 2026 523 
Q 2303 800 2303 1197 
Q 2303 1581 2056 1914 
Q 1809 2247 1375 2428 
Q 1034 2569 447 2591 
L 1259 4238 
L 2778 4238 
z
" transform="scale(0.015625)"/>
       </defs>
       <use xlink:href="#TimesNewRomanPSMT-30"/>
       <use xlink:href="#TimesNewRomanPSMT-2e" transform="translate(50 0)"/>
       <use xlink:href="#TimesNewRomanPSMT-35" transform="translate(75 0)"/>
      </g>
     </g>
    </g>
    <g id="xtick_3">
     <g id="line2d_5">
      <path d="M 604.050585 311.6435 
L 604.050585 45.5315 
" clip-path="url(#pe607945179)" style="fill: none; stroke: #b0b0b0; stroke-opacity: 0.3; stroke-width: 0.8; stroke-linecap: square"/>
     </g>
     <g id="line2d_6">
      <g>
       <use xlink:href="#m2480193d9a" x="604.050585" y="311.6435" style="stroke: #000000; stroke-width: 0.8"/>
      </g>
     </g>
     <g id="text_3">
      <!-- 1.0 -->
      <g transform="translate(590.300585 333.91975) scale(0.22 -0.22)">
       <defs>
        <path id="TimesNewRomanPSMT-31" d="M 750 3822 
L 1781 4325 
L 1884 4325 
L 1884 747 
Q 1884 391 1914 303 
Q 1944 216 2037 169 
Q 2131 122 2419 116 
L 2419 0 
L 825 0 
L 825 116 
Q 1125 122 1212 167 
Q 1300 213 1334 289 
Q 1369 366 1369 747 
L 1369 3034 
Q 1369 3497 1338 3628 
Q 1316 3728 1258 3775 
Q 1200 3822 1119 3822 
Q 1003 3822 797 3725 
L 750 3822 
z
" transform="scale(0.015625)"/>
       </defs>
       <use xlink:href="#TimesNewRomanPSMT-31"/>
       <use xlink:href="#TimesNewRomanPSMT-2e" transform="translate(50 0)"/>
       <use xlink:href="#TimesNewRomanPSMT-30" transform="translate(75 0)"/>
      </g>
     </g>
    </g>
    <g id="xtick_4">
     <g id="line2d_7">
      <path d="M 714.309409 311.6435 
L 714.309409 45.5315 
" clip-path="url(#pe607945179)" style="fill: none; stroke: #b0b0b0; stroke-opacity: 0.3; stroke-width: 0.8; stroke-linecap: square"/>
     </g>
     <g id="line2d_8">
      <g>
       <use xlink:href="#m2480193d9a" x="714.309409" y="311.6435" style="stroke: #000000; stroke-width: 0.8"/>
      </g>
     </g>
     <g id="text_4">
      <!-- 1.5 -->
      <g transform="translate(700.559409 333.91975) scale(0.22 -0.22)">
       <use xlink:href="#TimesNewRomanPSMT-31"/>
       <use xlink:href="#TimesNewRomanPSMT-2e" transform="translate(50 0)"/>
       <use xlink:href="#TimesNewRomanPSMT-35" transform="translate(75 0)"/>
      </g>
     </g>
    </g>
    <g id="text_5">
     <!-- $\kappa  = \frac{ln(n)}{ln(d)}$ -->
     <g transform="translate(530.082938 364.185687) scale(0.22 -0.22)">
      <defs>
       <path id="STIXGeneral-Italic-3ba" d="M 979 1440 
L 998 1446 
Q 1850 2541 2464 2790 
Q 2547 2822 2630 2822 
Q 2797 2822 2886 2736 
Q 2976 2650 2976 2522 
Q 2976 2387 2893 2307 
Q 2810 2227 2682 2227 
Q 2605 2227 2502 2288 
Q 2400 2349 2336 2349 
Q 2170 2349 1990 2205 
Q 1811 2061 1414 1645 
L 2042 544 
Q 2202 262 2310 182 
Q 2419 102 2624 102 
L 2624 0 
Q 2374 -83 2182 -83 
Q 1786 -83 1555 326 
L 960 1350 
L 576 0 
L 90 0 
L 640 1978 
Q 730 2317 730 2406 
Q 730 2560 518 2560 
L 339 2560 
L 339 2650 
Q 678 2694 1306 2822 
L 1325 2803 
L 979 1440 
z
" transform="scale(0.015625)"/>
       <path id="STIXGeneral-Regular-3d" d="M 4077 2048 
L 307 2048 
L 307 2470 
L 4077 2470 
L 4077 2048 
z
M 4077 768 
L 307 768 
L 307 1190 
L 4077 1190 
L 4077 768 
z
" transform="scale(0.015625)"/>
       <path id="STIXGeneral-Italic-6c" d="M 1786 4339 
L 806 595 
Q 755 410 755 320 
Q 755 205 864 205 
Q 1037 205 1293 570 
L 1453 794 
L 1542 730 
Q 1254 275 1046 102 
Q 838 -70 576 -70 
Q 262 -70 262 288 
Q 262 397 288 480 
L 1165 3834 
Q 1184 3898 1184 3955 
Q 1184 4096 870 4096 
L 755 4096 
L 755 4198 
Q 1203 4250 1747 4371 
L 1786 4339 
z
" transform="scale(0.015625)"/>
       <path id="STIXGeneral-Italic-6e" d="M 2944 749 
L 3034 666 
Q 2707 218 2534 80 
Q 2362 -58 2138 -58 
Q 2010 -58 1923 28 
Q 1837 115 1837 288 
Q 1837 390 1939 768 
L 2221 1805 
Q 2310 2150 2310 2310 
Q 2310 2496 2157 2496 
Q 1971 2496 1750 2275 
Q 1530 2054 1210 1587 
Q 998 1274 899 1024 
Q 800 774 570 0 
L 90 0 
L 704 2240 
Q 717 2304 717 2349 
Q 717 2445 630 2480 
Q 544 2515 301 2522 
L 301 2624 
Q 550 2675 857 2729 
Q 1165 2784 1338 2822 
L 1363 2810 
L 934 1414 
Q 1408 2170 1753 2496 
Q 2099 2822 2413 2822 
Q 2611 2822 2720 2716 
Q 2829 2611 2829 2432 
Q 2829 2272 2765 2048 
L 2406 749 
Q 2317 429 2317 358 
Q 2317 243 2419 243 
Q 2541 243 2810 582 
Q 2854 634 2944 749 
z
" transform="scale(0.015625)"/>
       <path id="STIXGeneral-Regular-28" d="M 1946 -1030 
L 1869 -1133 
Q 1126 -710 716 32 
Q 307 774 307 1613 
Q 307 3386 1888 4326 
L 1946 4224 
Q 1293 3667 1075 3126 
Q 858 2586 858 1632 
Q 858 685 1082 96 
Q 1306 -493 1946 -1030 
z
" transform="scale(0.015625)"/>
       <path id="STIXGeneral-Regular-29" d="M 186 4224 
L 262 4326 
Q 992 3891 1408 3148 
Q 1824 2406 1824 1581 
Q 1824 -166 243 -1133 
L 186 -1030 
Q 845 -486 1059 54 
Q 1274 595 1274 1562 
Q 1274 2534 1059 3120 
Q 845 3706 186 4224 
z
" transform="scale(0.015625)"/>
       <path id="STIXGeneral-Italic-64" d="M 3334 4371 
L 3373 4333 
L 3123 3360 
L 2739 1958 
Q 2323 429 2323 384 
Q 2323 256 2438 256 
Q 2522 256 2614 336 
Q 2707 416 2963 710 
L 3040 646 
Q 2547 -83 2099 -83 
Q 1978 -83 1907 -6 
Q 1837 70 1837 205 
Q 1837 397 1920 774 
Q 1645 307 1379 118 
Q 1114 -70 781 -70 
Q 461 -70 278 125 
Q 96 320 96 678 
Q 96 1440 713 2131 
Q 1331 2822 1965 2822 
Q 2163 2822 2256 2732 
Q 2349 2643 2381 2451 
L 2387 2451 
L 2675 3494 
Q 2765 3808 2765 3949 
Q 2765 4051 2694 4076 
Q 2624 4102 2355 4115 
L 2355 4224 
Q 2848 4269 3334 4371 
z
M 2278 2310 
Q 2278 2477 2185 2576 
Q 2093 2675 1978 2675 
Q 1677 2675 1395 2381 
Q 1075 2042 864 1571 
Q 653 1101 653 704 
Q 653 486 752 361 
Q 851 237 1024 237 
Q 1312 237 1606 550 
Q 1901 864 2089 1350 
Q 2278 1837 2278 2310 
z
" transform="scale(0.015625)"/>
      </defs>
      <use xlink:href="#STIXGeneral-Italic-3ba" transform="translate(0 0.003125)"/>
      <use xlink:href="#STIXGeneral-Regular-3d" transform="translate(58.83999 0.003125)"/>
      <use xlink:href="#STIXGeneral-Italic-6c" transform="translate(141.779971 50.192188) scale(0.7)"/>
      <use xlink:href="#STIXGeneral-Italic-6e" transform="translate(161.239963 50.192188) scale(0.7)"/>
      <use xlink:href="#STIXGeneral-Regular-28" transform="translate(196.239952 50.192188) scale(0.7)"/>
      <use xlink:href="#STIXGeneral-Italic-6e" transform="translate(219.549944 50.192188) scale(0.7)"/>
      <use xlink:href="#STIXGeneral-Regular-29" transform="translate(254.549933 50.192188) scale(0.7)"/>
      <use xlink:href="#STIXGeneral-Italic-6c" transform="translate(141.779971 -41.257812) scale(0.7)"/>
      <use xlink:href="#STIXGeneral-Italic-6e" transform="translate(161.239963 -41.257812) scale(0.7)"/>
      <use xlink:href="#STIXGeneral-Regular-28" transform="translate(196.239952 -41.257812) scale(0.7)"/>
      <use xlink:href="#STIXGeneral-Italic-64" transform="translate(219.549944 -41.257812) scale(0.7)"/>
      <use xlink:href="#STIXGeneral-Regular-29" transform="translate(254.549933 -41.257812) scale(0.7)"/>
      <path d="M 141.779971 12.8 
L 141.779971 19.05 
L 277.859924 19.05 
L 277.859924 12.8 
L 141.779971 12.8 
z
"/>
     </g>
    </g>
   </g>
   <g id="matplotlib.axis_2">
    <g id="ytick_1">
     <g id="line2d_9">
      <path d="M 383.532938 311.6435 
L 740.652938 311.6435 
" clip-path="url(#pe607945179)" style="fill: none; stroke: #b0b0b0; stroke-opacity: 0.3; stroke-width: 0.8; stroke-linecap: square"/>
     </g>
     <g id="line2d_10">
      <defs>
       <path id="mc91454524c" d="M 0 0 
L -3.5 0 
" style="stroke: #000000; stroke-width: 0.8"/>
      </defs>
      <g>
       <use xlink:href="#mc91454524c" x="383.532938" y="311.6435" style="stroke: #000000; stroke-width: 0.8"/>
      </g>
     </g>
     <g id="text_6">
      <!-- 0.0 -->
      <g transform="translate(349.032938 319.281625) scale(0.22 -0.22)">
       <use xlink:href="#TimesNewRomanPSMT-30"/>
       <use xlink:href="#TimesNewRomanPSMT-2e" transform="translate(50 0)"/>
       <use xlink:href="#TimesNewRomanPSMT-30" transform="translate(75 0)"/>
      </g>
     </g>
    </g>
    <g id="ytick_2">
     <g id="line2d_11">
      <path d="M 383.532938 285.0323 
L 740.652938 285.0323 
" clip-path="url(#pe607945179)" style="fill: none; stroke: #b0b0b0; stroke-opacity: 0.3; stroke-width: 0.8; stroke-linecap: square"/>
     </g>
     <g id="line2d_12">
      <g>
       <use xlink:href="#mc91454524c" x="383.532938" y="285.0323" style="stroke: #000000; stroke-width: 0.8"/>
      </g>
     </g>
     <g id="text_7">
      <!-- 0.1 -->
      <g transform="translate(349.032938 292.670425) scale(0.22 -0.22)">
       <use xlink:href="#TimesNewRomanPSMT-30"/>
       <use xlink:href="#TimesNewRomanPSMT-2e" transform="translate(50 0)"/>
       <use xlink:href="#TimesNewRomanPSMT-31" transform="translate(75 0)"/>
      </g>
     </g>
    </g>
    <g id="ytick_3">
     <g id="line2d_13">
      <path d="M 383.532938 258.4211 
L 740.652938 258.4211 
" clip-path="url(#pe607945179)" style="fill: none; stroke: #b0b0b0; stroke-opacity: 0.3; stroke-width: 0.8; stroke-linecap: square"/>
     </g>
     <g id="line2d_14">
      <g>
       <use xlink:href="#mc91454524c" x="383.532938" y="258.4211" style="stroke: #000000; stroke-width: 0.8"/>
      </g>
     </g>
     <g id="text_8">
      <!-- 0.2 -->
      <g transform="translate(349.032938 266.059225) scale(0.22 -0.22)">
       <defs>
        <path id="TimesNewRomanPSMT-32" d="M 2934 816 
L 2638 0 
L 138 0 
L 138 116 
Q 1241 1122 1691 1759 
Q 2141 2397 2141 2925 
Q 2141 3328 1894 3587 
Q 1647 3847 1303 3847 
Q 991 3847 742 3664 
Q 494 3481 375 3128 
L 259 3128 
Q 338 3706 661 4015 
Q 984 4325 1469 4325 
Q 1984 4325 2329 3994 
Q 2675 3663 2675 3213 
Q 2675 2891 2525 2569 
Q 2294 2063 1775 1497 
Q 997 647 803 472 
L 1909 472 
Q 2247 472 2383 497 
Q 2519 522 2628 598 
Q 2738 675 2819 816 
L 2934 816 
z
" transform="scale(0.015625)"/>
       </defs>
       <use xlink:href="#TimesNewRomanPSMT-30"/>
       <use xlink:href="#TimesNewRomanPSMT-2e" transform="translate(50 0)"/>
       <use xlink:href="#TimesNewRomanPSMT-32" transform="translate(75 0)"/>
      </g>
     </g>
    </g>
    <g id="ytick_4">
     <g id="line2d_15">
      <path d="M 383.532938 231.8099 
L 740.652938 231.8099 
" clip-path="url(#pe607945179)" style="fill: none; stroke: #b0b0b0; stroke-opacity: 0.3; stroke-width: 0.8; stroke-linecap: square"/>
     </g>
     <g id="line2d_16">
      <g>
       <use xlink:href="#mc91454524c" x="383.532938" y="231.8099" style="stroke: #000000; stroke-width: 0.8"/>
      </g>
     </g>
     <g id="text_9">
      <!-- 0.3 -->
      <g transform="translate(349.032938 239.448025) scale(0.22 -0.22)">
       <defs>
        <path id="TimesNewRomanPSMT-33" d="M 325 3431 
Q 506 3859 782 4092 
Q 1059 4325 1472 4325 
Q 1981 4325 2253 3994 
Q 2459 3747 2459 3466 
Q 2459 3003 1878 2509 
Q 2269 2356 2469 2072 
Q 2669 1788 2669 1403 
Q 2669 853 2319 450 
Q 1863 -75 997 -75 
Q 569 -75 414 31 
Q 259 138 259 259 
Q 259 350 332 419 
Q 406 488 509 488 
Q 588 488 669 463 
Q 722 447 909 348 
Q 1097 250 1169 231 
Q 1284 197 1416 197 
Q 1734 197 1970 444 
Q 2206 691 2206 1028 
Q 2206 1275 2097 1509 
Q 2016 1684 1919 1775 
Q 1784 1900 1550 2001 
Q 1316 2103 1072 2103 
L 972 2103 
L 972 2197 
Q 1219 2228 1467 2375 
Q 1716 2522 1828 2728 
Q 1941 2934 1941 3181 
Q 1941 3503 1739 3701 
Q 1538 3900 1238 3900 
Q 753 3900 428 3381 
L 325 3431 
z
" transform="scale(0.015625)"/>
       </defs>
       <use xlink:href="#TimesNewRomanPSMT-30"/>
       <use xlink:href="#TimesNewRomanPSMT-2e" transform="translate(50 0)"/>
       <use xlink:href="#TimesNewRomanPSMT-33" transform="translate(75 0)"/>
      </g>
     </g>
    </g>
    <g id="ytick_5">
     <g id="line2d_17">
      <path d="M 383.532938 205.1987 
L 740.652938 205.1987 
" clip-path="url(#pe607945179)" style="fill: none; stroke: #b0b0b0; stroke-opacity: 0.3; stroke-width: 0.8; stroke-linecap: square"/>
     </g>
     <g id="line2d_18">
      <g>
       <use xlink:href="#mc91454524c" x="383.532938" y="205.1987" style="stroke: #000000; stroke-width: 0.8"/>
      </g>
     </g>
     <g id="text_10">
      <!-- 0.4 -->
      <g transform="translate(349.032938 212.836825) scale(0.22 -0.22)">
       <defs>
        <path id="TimesNewRomanPSMT-34" d="M 2978 1563 
L 2978 1119 
L 2409 1119 
L 2409 0 
L 1894 0 
L 1894 1119 
L 100 1119 
L 100 1519 
L 2066 4325 
L 2409 4325 
L 2409 1563 
L 2978 1563 
z
M 1894 1563 
L 1894 3666 
L 406 1563 
L 1894 1563 
z
" transform="scale(0.015625)"/>
       </defs>
       <use xlink:href="#TimesNewRomanPSMT-30"/>
       <use xlink:href="#TimesNewRomanPSMT-2e" transform="translate(50 0)"/>
       <use xlink:href="#TimesNewRomanPSMT-34" transform="translate(75 0)"/>
      </g>
     </g>
    </g>
    <g id="ytick_6">
     <g id="line2d_19">
      <path d="M 383.532938 178.5875 
L 740.652938 178.5875 
" clip-path="url(#pe607945179)" style="fill: none; stroke: #b0b0b0; stroke-opacity: 0.3; stroke-width: 0.8; stroke-linecap: square"/>
     </g>
     <g id="line2d_20">
      <g>
       <use xlink:href="#mc91454524c" x="383.532938" y="178.5875" style="stroke: #000000; stroke-width: 0.8"/>
      </g>
     </g>
     <g id="text_11">
      <!-- 0.5 -->
      <g transform="translate(349.032938 186.225625) scale(0.22 -0.22)">
       <use xlink:href="#TimesNewRomanPSMT-30"/>
       <use xlink:href="#TimesNewRomanPSMT-2e" transform="translate(50 0)"/>
       <use xlink:href="#TimesNewRomanPSMT-35" transform="translate(75 0)"/>
      </g>
     </g>
    </g>
    <g id="ytick_7">
     <g id="line2d_21">
      <path d="M 383.532938 151.9763 
L 740.652938 151.9763 
" clip-path="url(#pe607945179)" style="fill: none; stroke: #b0b0b0; stroke-opacity: 0.3; stroke-width: 0.8; stroke-linecap: square"/>
     </g>
     <g id="line2d_22">
      <g>
       <use xlink:href="#mc91454524c" x="383.532938" y="151.9763" style="stroke: #000000; stroke-width: 0.8"/>
      </g>
     </g>
     <g id="text_12">
      <!-- 0.6 -->
      <g transform="translate(349.032938 159.614425) scale(0.22 -0.22)">
       <defs>
        <path id="TimesNewRomanPSMT-36" d="M 2869 4325 
L 2869 4209 
Q 2456 4169 2195 4045 
Q 1934 3922 1679 3669 
Q 1425 3416 1258 3105 
Q 1091 2794 978 2366 
Q 1428 2675 1881 2675 
Q 2316 2675 2634 2325 
Q 2953 1975 2953 1425 
Q 2953 894 2631 456 
Q 2244 -75 1606 -75 
Q 1172 -75 869 213 
Q 275 772 275 1663 
Q 275 2231 503 2743 
Q 731 3256 1154 3653 
Q 1578 4050 1965 4187 
Q 2353 4325 2688 4325 
L 2869 4325 
z
M 925 2138 
Q 869 1716 869 1456 
Q 869 1156 980 804 
Q 1091 453 1309 247 
Q 1469 100 1697 100 
Q 1969 100 2183 356 
Q 2397 613 2397 1088 
Q 2397 1622 2184 2012 
Q 1972 2403 1581 2403 
Q 1463 2403 1327 2353 
Q 1191 2303 925 2138 
z
" transform="scale(0.015625)"/>
       </defs>
       <use xlink:href="#TimesNewRomanPSMT-30"/>
       <use xlink:href="#TimesNewRomanPSMT-2e" transform="translate(50 0)"/>
       <use xlink:href="#TimesNewRomanPSMT-36" transform="translate(75 0)"/>
      </g>
     </g>
    </g>
    <g id="ytick_8">
     <g id="line2d_23">
      <path d="M 383.532938 125.3651 
L 740.652938 125.3651 
" clip-path="url(#pe607945179)" style="fill: none; stroke: #b0b0b0; stroke-opacity: 0.3; stroke-width: 0.8; stroke-linecap: square"/>
     </g>
     <g id="line2d_24">
      <g>
       <use xlink:href="#mc91454524c" x="383.532938" y="125.3651" style="stroke: #000000; stroke-width: 0.8"/>
      </g>
     </g>
     <g id="text_13">
      <!-- 0.7 -->
      <g transform="translate(349.032938 133.003225) scale(0.22 -0.22)">
       <defs>
        <path id="TimesNewRomanPSMT-37" d="M 644 4238 
L 2916 4238 
L 2916 4119 
L 1503 -88 
L 1153 -88 
L 2419 3728 
L 1253 3728 
Q 900 3728 750 3644 
Q 488 3500 328 3200 
L 238 3234 
L 644 4238 
z
" transform="scale(0.015625)"/>
       </defs>
       <use xlink:href="#TimesNewRomanPSMT-30"/>
       <use xlink:href="#TimesNewRomanPSMT-2e" transform="translate(50 0)"/>
       <use xlink:href="#TimesNewRomanPSMT-37" transform="translate(75 0)"/>
      </g>
     </g>
    </g>
    <g id="ytick_9">
     <g id="line2d_25">
      <path d="M 383.532938 98.7539 
L 740.652938 98.7539 
" clip-path="url(#pe607945179)" style="fill: none; stroke: #b0b0b0; stroke-opacity: 0.3; stroke-width: 0.8; stroke-linecap: square"/>
     </g>
     <g id="line2d_26">
      <g>
       <use xlink:href="#mc91454524c" x="383.532938" y="98.7539" style="stroke: #000000; stroke-width: 0.8"/>
      </g>
     </g>
     <g id="text_14">
      <!-- 0.8 -->
      <g transform="translate(349.032938 106.392025) scale(0.22 -0.22)">
       <defs>
        <path id="TimesNewRomanPSMT-38" d="M 1228 2134 
Q 725 2547 579 2797 
Q 434 3047 434 3316 
Q 434 3728 753 4026 
Q 1072 4325 1600 4325 
Q 2113 4325 2425 4047 
Q 2738 3769 2738 3413 
Q 2738 3175 2569 2928 
Q 2400 2681 1866 2347 
Q 2416 1922 2594 1678 
Q 2831 1359 2831 1006 
Q 2831 559 2490 242 
Q 2150 -75 1597 -75 
Q 994 -75 656 303 
Q 388 606 388 966 
Q 388 1247 577 1523 
Q 766 1800 1228 2134 
z
M 1719 2469 
Q 2094 2806 2194 3001 
Q 2294 3197 2294 3444 
Q 2294 3772 2109 3958 
Q 1925 4144 1606 4144 
Q 1288 4144 1088 3959 
Q 888 3775 888 3528 
Q 888 3366 970 3203 
Q 1053 3041 1206 2894 
L 1719 2469 
z
M 1375 2016 
Q 1116 1797 991 1539 
Q 866 1281 866 981 
Q 866 578 1086 336 
Q 1306 94 1647 94 
Q 1984 94 2187 284 
Q 2391 475 2391 747 
Q 2391 972 2272 1150 
Q 2050 1481 1375 2016 
z
" transform="scale(0.015625)"/>
       </defs>
       <use xlink:href="#TimesNewRomanPSMT-30"/>
       <use xlink:href="#TimesNewRomanPSMT-2e" transform="translate(50 0)"/>
       <use xlink:href="#TimesNewRomanPSMT-38" transform="translate(75 0)"/>
      </g>
     </g>
    </g>
    <g id="ytick_10">
     <g id="line2d_27">
      <path d="M 383.532938 72.1427 
L 740.652938 72.1427 
" clip-path="url(#pe607945179)" style="fill: none; stroke: #b0b0b0; stroke-opacity: 0.3; stroke-width: 0.8; stroke-linecap: square"/>
     </g>
     <g id="line2d_28">
      <g>
       <use xlink:href="#mc91454524c" x="383.532938" y="72.1427" style="stroke: #000000; stroke-width: 0.8"/>
      </g>
     </g>
     <g id="text_15">
      <!-- 0.9 -->
      <g transform="translate(349.032938 79.780825) scale(0.22 -0.22)">
       <defs>
        <path id="TimesNewRomanPSMT-39" d="M 338 -88 
L 338 28 
Q 744 34 1094 217 
Q 1444 400 1770 856 
Q 2097 1313 2225 1859 
Q 1734 1544 1338 1544 
Q 891 1544 572 1889 
Q 253 2234 253 2806 
Q 253 3363 572 3797 
Q 956 4325 1575 4325 
Q 2097 4325 2469 3894 
Q 2925 3359 2925 2575 
Q 2925 1869 2578 1258 
Q 2231 647 1613 244 
Q 1109 -88 516 -88 
L 338 -88 
z
M 2275 2091 
Q 2331 2497 2331 2741 
Q 2331 3044 2228 3395 
Q 2125 3747 1936 3934 
Q 1747 4122 1506 4122 
Q 1228 4122 1018 3872 
Q 809 3622 809 3128 
Q 809 2469 1088 2097 
Q 1291 1828 1588 1828 
Q 1731 1828 1928 1897 
Q 2125 1966 2275 2091 
z
" transform="scale(0.015625)"/>
       </defs>
       <use xlink:href="#TimesNewRomanPSMT-30"/>
       <use xlink:href="#TimesNewRomanPSMT-2e" transform="translate(50 0)"/>
       <use xlink:href="#TimesNewRomanPSMT-39" transform="translate(75 0)"/>
      </g>
     </g>
    </g>
    <g id="ytick_11">
     <g id="line2d_29">
      <path d="M 383.532938 45.5315 
L 740.652938 45.5315 
" clip-path="url(#pe607945179)" style="fill: none; stroke: #b0b0b0; stroke-opacity: 0.3; stroke-width: 0.8; stroke-linecap: square"/>
     </g>
     <g id="line2d_30">
      <g>
       <use xlink:href="#mc91454524c" x="383.532938" y="45.5315" style="stroke: #000000; stroke-width: 0.8"/>
      </g>
     </g>
     <g id="text_16">
      <!-- 1.0 -->
      <g transform="translate(349.032938 53.169625) scale(0.22 -0.22)">
       <use xlink:href="#TimesNewRomanPSMT-31"/>
       <use xlink:href="#TimesNewRomanPSMT-2e" transform="translate(50 0)"/>
       <use xlink:href="#TimesNewRomanPSMT-30" transform="translate(75 0)"/>
      </g>
     </g>
    </g>
    <g id="text_17">
     <!-- Accuracy -->
     <g transform="translate(340.28575 220.726094) rotate(-90) scale(0.22 -0.22)">
      <defs>
       <path id="TimesNewRomanPSMT-41" d="M 2928 1419 
L 1288 1419 
L 1000 750 
Q 894 503 894 381 
Q 894 284 986 211 
Q 1078 138 1384 116 
L 1384 0 
L 50 0 
L 50 116 
Q 316 163 394 238 
Q 553 388 747 847 
L 2238 4334 
L 2347 4334 
L 3822 809 
Q 4000 384 4145 257 
Q 4291 131 4550 116 
L 4550 0 
L 2878 0 
L 2878 116 
Q 3131 128 3220 200 
Q 3309 272 3309 375 
Q 3309 513 3184 809 
L 2928 1419 
z
M 2841 1650 
L 2122 3363 
L 1384 1650 
L 2841 1650 
z
" transform="scale(0.015625)"/>
       <path id="TimesNewRomanPSMT-63" d="M 2631 1088 
Q 2516 522 2178 217 
Q 1841 -88 1431 -88 
Q 944 -88 581 321 
Q 219 731 219 1428 
Q 219 2103 620 2525 
Q 1022 2947 1584 2947 
Q 2006 2947 2278 2723 
Q 2550 2500 2550 2259 
Q 2550 2141 2473 2067 
Q 2397 1994 2259 1994 
Q 2075 1994 1981 2113 
Q 1928 2178 1911 2362 
Q 1894 2547 1784 2644 
Q 1675 2738 1481 2738 
Q 1169 2738 978 2506 
Q 725 2200 725 1697 
Q 725 1184 976 792 
Q 1228 400 1656 400 
Q 1963 400 2206 609 
Q 2378 753 2541 1131 
L 2631 1088 
z
" transform="scale(0.015625)"/>
       <path id="TimesNewRomanPSMT-75" d="M 2709 2863 
L 2709 1128 
Q 2709 631 2732 520 
Q 2756 409 2807 365 
Q 2859 322 2928 322 
Q 3025 322 3147 375 
L 3191 266 
L 2334 -88 
L 2194 -88 
L 2194 519 
Q 1825 119 1631 15 
Q 1438 -88 1222 -88 
Q 981 -88 804 51 
Q 628 191 559 409 
Q 491 628 491 1028 
L 491 2306 
Q 491 2509 447 2587 
Q 403 2666 317 2708 
Q 231 2750 6 2747 
L 6 2863 
L 1009 2863 
L 1009 947 
Q 1009 547 1148 422 
Q 1288 297 1484 297 
Q 1619 297 1789 381 
Q 1959 466 2194 703 
L 2194 2325 
Q 2194 2569 2105 2655 
Q 2016 2741 1734 2747 
L 1734 2863 
L 2709 2863 
z
" transform="scale(0.015625)"/>
       <path id="TimesNewRomanPSMT-72" d="M 1038 2947 
L 1038 2303 
Q 1397 2947 1775 2947 
Q 1947 2947 2059 2842 
Q 2172 2738 2172 2600 
Q 2172 2478 2090 2393 
Q 2009 2309 1897 2309 
Q 1788 2309 1652 2417 
Q 1516 2525 1450 2525 
Q 1394 2525 1328 2463 
Q 1188 2334 1038 2041 
L 1038 669 
Q 1038 431 1097 309 
Q 1138 225 1241 169 
Q 1344 113 1538 113 
L 1538 0 
L 72 0 
L 72 113 
Q 291 113 397 181 
Q 475 231 506 341 
Q 522 394 522 644 
L 522 1753 
Q 522 2253 501 2348 
Q 481 2444 426 2487 
Q 372 2531 291 2531 
Q 194 2531 72 2484 
L 41 2597 
L 906 2947 
L 1038 2947 
z
" transform="scale(0.015625)"/>
       <path id="TimesNewRomanPSMT-61" d="M 1822 413 
Q 1381 72 1269 19 
Q 1100 -59 909 -59 
Q 613 -59 420 144 
Q 228 347 228 678 
Q 228 888 322 1041 
Q 450 1253 767 1440 
Q 1084 1628 1822 1897 
L 1822 2009 
Q 1822 2438 1686 2597 
Q 1550 2756 1291 2756 
Q 1094 2756 978 2650 
Q 859 2544 859 2406 
L 866 2225 
Q 866 2081 792 2003 
Q 719 1925 600 1925 
Q 484 1925 411 2006 
Q 338 2088 338 2228 
Q 338 2497 613 2722 
Q 888 2947 1384 2947 
Q 1766 2947 2009 2819 
Q 2194 2722 2281 2516 
Q 2338 2381 2338 1966 
L 2338 994 
Q 2338 584 2353 492 
Q 2369 400 2405 369 
Q 2441 338 2488 338 
Q 2538 338 2575 359 
Q 2641 400 2828 588 
L 2828 413 
Q 2478 -56 2159 -56 
Q 2006 -56 1915 50 
Q 1825 156 1822 413 
z
M 1822 616 
L 1822 1706 
Q 1350 1519 1213 1441 
Q 966 1303 859 1153 
Q 753 1003 753 825 
Q 753 600 887 451 
Q 1022 303 1197 303 
Q 1434 303 1822 616 
z
" transform="scale(0.015625)"/>
       <path id="TimesNewRomanPSMT-79" d="M 38 2863 
L 1372 2863 
L 1372 2747 
L 1306 2747 
Q 1166 2747 1095 2686 
Q 1025 2625 1025 2534 
Q 1025 2413 1128 2197 
L 1825 753 
L 2466 2334 
Q 2519 2463 2519 2588 
Q 2519 2644 2497 2672 
Q 2472 2706 2419 2726 
Q 2366 2747 2231 2747 
L 2231 2863 
L 3163 2863 
L 3163 2747 
Q 3047 2734 2984 2696 
Q 2922 2659 2847 2556 
Q 2819 2513 2741 2316 
L 1575 -541 
Q 1406 -956 1132 -1168 
Q 859 -1381 606 -1381 
Q 422 -1381 303 -1275 
Q 184 -1169 184 -1031 
Q 184 -900 270 -820 
Q 356 -741 506 -741 
Q 609 -741 788 -809 
Q 913 -856 944 -856 
Q 1038 -856 1148 -759 
Q 1259 -663 1372 -384 
L 1575 113 
L 547 2272 
Q 500 2369 397 2513 
Q 319 2622 269 2659 
Q 197 2709 38 2747 
L 38 2863 
z
" transform="scale(0.015625)"/>
      </defs>
      <use xlink:href="#TimesNewRomanPSMT-41"/>
      <use xlink:href="#TimesNewRomanPSMT-63" transform="translate(72.216797 0)"/>
      <use xlink:href="#TimesNewRomanPSMT-63" transform="translate(116.601562 0)"/>
      <use xlink:href="#TimesNewRomanPSMT-75" transform="translate(160.986328 0)"/>
      <use xlink:href="#TimesNewRomanPSMT-72" transform="translate(210.986328 0)"/>
      <use xlink:href="#TimesNewRomanPSMT-61" transform="translate(244.287109 0)"/>
      <use xlink:href="#TimesNewRomanPSMT-63" transform="translate(288.671875 0)"/>
      <use xlink:href="#TimesNewRomanPSMT-79" transform="translate(333.056641 0)"/>
     </g>
    </g>
   </g>
   <g id="line2d_31">
    <path d="M 383.532938 182.446114 
L 459.823366 168.741356 
L 480.395328 161.689376 
L 492.785815 160.757988 
L 501.680553 159.8266 
L 508.624086 158.629087 
L 514.320335 156.633249 
L 519.149897 155.834923 
L 523.342008 154.90352 
L 527.04549 155.036582 
L 530.362451 155.96797 
L 533.366002 155.169644 
L 536.110289 156.234078 
L 538.636537 153.040744 
L 540.976857 152.375464 
L 543.15675 152.641573 
L 545.196808 152.508511 
L 547.113894 153.040744 
L 548.921994 152.109356 
L 550.632836 153.306852 
L 552.256351 151.311014 
L 553.801023 152.242402 
L 555.274156 153.306852 
L 556.682084 151.311014 
L 558.030337 150.645735 
L 559.323766 153.306852 
L 560.566658 150.778781 
L 561.762814 150.778781 
L 562.915621 152.641573 
L 564.028111 151.843231 
L 566.142775 151.311014 
L 567.149631 151.710185 
L 568.125597 151.976294 
L 569.072511 151.976294 
L 569.992055 150.645735 
L 570.885765 151.577123 
L 571.755053 151.044906 
L 572.60122 150.911843 
L 573.425462 151.044906 
L 574.228888 152.109356 
L 575.012524 151.311014 
L 575.77732 151.044906 
L 576.524161 151.044906 
L 577.253871 151.976294 
L 577.967219 152.242402 
L 578.664922 150.778781 
L 579.347652 152.641573 
L 580.016037 153.040744 
L 580.670669 152.641573 
L 581.312102 152.641573 
L 581.940857 151.577123 
L 582.557426 151.577123 
L 583.755835 153.306852 
L 584.910734 151.577123 
L 585.472833 151.444061 
L 586.025173 152.774635 
L 586.568087 151.577123 
L 587.101891 153.040744 
L 587.626886 152.508511 
L 588.143358 151.044906 
L 588.651579 151.843231 
L 589.151809 150.911843 
L 589.644296 152.907682 
L 590.129274 152.641573 
L 590.606971 151.710185 
L 591.0776 151.577123 
L 591.541369 152.774635 
L 591.998474 151.444061 
L 592.449105 152.907682 
L 592.893441 151.177952 
L 593.331657 151.577123 
L 593.763919 152.907682 
L 594.611212 151.177952 
L 595.026544 151.577123 
L 595.436524 151.444061 
L 595.841287 152.375464 
L 596.240965 151.311014 
L 596.635685 151.710185 
L 597.025567 152.375464 
L 597.410729 151.044906 
L 597.791283 152.641573 
L 598.167339 151.311014 
L 598.539002 152.508511 
L 598.906373 151.044906 
L 599.26955 151.976294 
L 599.628628 151.044906 
L 599.983699 151.044906 
L 600.33485 151.843231 
L 600.682168 151.976294 
L 601.025734 151.177952 
L 601.365631 153.439915 
L 601.701934 151.311014 
L 602.034719 151.577123 
L 602.364059 151.311014 
L 602.690025 150.645735 
L 603.012684 151.311014 
L 603.332105 151.444061 
L 603.648349 151.843231 
L 604.271562 150.512673 
L 604.578649 150.379626 
L 604.8828 150.645735 
L 605.482516 149.714347 
L 605.778187 150.512673 
L 606.071135 150.246564 
L 606.361411 150.379626 
L 606.934135 151.444061 
L 607.216677 150.512673 
L 607.496731 151.311014 
L 607.774342 150.778781 
L 608.049551 150.778781 
L 608.3224 152.242402 
L 608.592928 150.911843 
L 608.861176 150.379626 
L 609.127181 150.512673 
L 609.39098 150.379626 
L 609.652609 150.512673 
L 609.912105 149.581285 
L 610.169501 149.581285 
L 610.424831 150.778781 
L 610.678128 151.177952 
L 610.929425 150.246564 
L 611.178752 150.113502 
L 611.42614 151.444061 
L 611.67162 150.778781 
L 611.915219 151.044906 
L 612.156968 151.044906 
L 612.635023 150.778781 
L 612.871384 149.315176 
L 613.106001 150.512673 
L 613.338901 150.778781 
L 613.570108 150.512673 
L 613.799647 150.645735 
L 614.253816 149.581285 
L 614.478492 149.847393 
L 614.701592 149.714347 
L 615.361657 151.444061 
L 615.57867 149.714347 
L 615.794212 149.980456 
L 616.008305 149.714347 
L 616.220966 151.444061 
L 616.64207 150.778781 
L 616.85055 151.044906 
L 617.057673 151.577123 
L 617.263456 149.847393 
L 617.467917 150.778781 
L 617.671072 150.778781 
L 617.872938 151.577123 
L 618.073531 150.512673 
L 618.470963 150.911843 
L 618.667832 150.645735 
L 618.863491 150.778781 
L 619.057953 151.311014 
L 619.251234 150.512673 
L 619.443348 150.911843 
L 619.634309 150.246564 
L 619.824131 150.911843 
L 620.200409 150.778781 
L 620.386892 149.714347 
L 620.756612 149.980456 
L 620.939872 150.911843 
L 621.303257 150.911843 
L 621.483404 149.049068 
L 621.662538 149.448223 
L 621.840668 150.778781 
L 622.017806 150.246564 
L 622.193964 150.911843 
L 622.543379 148.782943 
L 622.716659 149.980456 
L 622.888999 149.714347 
L 623.060411 149.714347 
L 623.400489 150.778781 
L 623.73697 149.448223 
L 623.903885 149.448223 
L 624.069929 148.649897 
L 624.39944 149.581285 
L 624.562924 149.847393 
L 624.725572 149.714347 
L 624.887394 149.182114 
L 625.048396 150.379626 
L 625.208587 149.315176 
L 625.367976 149.315176 
L 625.526571 148.649897 
L 625.684379 148.649897 
L 626.153159 150.512673 
L 626.461885 149.182114 
L 626.615132 149.714347 
L 626.767644 150.645735 
L 626.919428 148.782943 
L 627.070492 148.383772 
L 627.370485 150.246564 
L 627.519427 149.714347 
L 627.667675 149.980456 
L 627.815235 149.980456 
L 627.962114 149.581285 
L 628.108319 148.516835 
L 628.253854 148.916005 
L 628.398727 148.782943 
L 628.542942 148.916005 
L 628.686508 149.315176 
L 628.829428 150.113502 
L 628.971709 150.246564 
L 629.254376 148.250726 
L 629.673722 149.714347 
L 629.812285 150.113502 
L 629.950247 148.516835 
L 630.087614 148.516835 
L 630.224389 148.916005 
L 630.360579 148.782943 
L 630.496189 147.984617 
L 630.631223 147.984617 
L 630.765686 149.714347 
L 630.899584 149.980456 
L 631.03292 147.984617 
L 631.1657 147.851555 
L 631.297928 148.117664 
L 631.429608 147.984617 
L 631.560746 149.448223 
L 631.821411 149.714347 
L 632.079957 149.315176 
L 632.208447 149.847393 
L 632.46388 147.984617 
L 632.590831 148.649897 
L 632.717278 148.250726 
L 632.843224 148.250726 
L 632.968673 147.851555 
L 633.09363 149.315176 
L 633.218098 149.448223 
L 633.342081 148.516835 
L 633.465583 148.649897 
L 633.588607 149.182114 
L 633.833237 149.049068 
L 633.95485 149.049068 
L 634.076 148.916005 
L 634.196691 149.049068 
L 634.316925 148.782943 
L 634.436707 149.714347 
L 634.674925 148.250726 
L 634.793369 148.916005 
L 635.028942 148.117664 
L 635.146078 148.250726 
L 635.379063 149.714347 
L 635.610354 147.319338 
L 635.725372 148.383772 
L 635.839976 147.452384 
L 635.954168 148.649897 
L 636.067952 148.117664 
L 636.181331 149.581285 
L 636.294307 149.315176 
L 636.406883 148.117664 
L 636.853245 148.649897 
L 637.0741 149.182114 
L 637.402533 147.585447 
L 637.511262 149.182114 
L 637.61962 148.250726 
L 637.727611 148.649897 
L 637.835236 148.383772 
L 637.942498 147.718493 
L 638.0494 147.851555 
L 638.155944 147.718493 
L 638.367967 148.383772 
L 638.473452 147.851555 
L 638.578587 148.516835 
L 638.683376 148.383772 
L 638.787821 148.649897 
L 639.099115 147.319338 
L 639.202207 147.718493 
L 639.407393 147.319338 
L 639.611264 147.718493 
L 639.712711 147.718493 
L 639.813837 146.920167 
L 639.914641 148.782943 
L 640.215154 147.053214 
L 640.413929 148.383772 
L 640.512853 147.186276 
L 640.709784 148.117664 
L 640.905502 147.053214 
L 641.002912 148.117664 
L 641.100024 147.585447 
L 641.389595 148.117664 
L 641.485536 147.319338 
L 641.676554 148.516835 
L 641.866432 146.920167 
L 641.960948 147.053214 
L 642.055184 146.920167 
L 642.42936 148.117664 
L 642.614811 146.387934 
L 642.707132 146.254888 
L 642.799187 146.387934 
L 642.9825 147.718493 
L 643.073762 147.053214 
L 643.164764 147.851555 
L 643.255505 147.718493 
L 643.345989 147.718493 
L 643.526187 147.319338 
L 643.615905 148.250726 
L 643.794586 146.920167 
L 643.883551 146.920167 
L 644.060739 147.053214 
L 644.148964 146.254888 
L 644.236945 148.516835 
L 644.412181 147.053214 
L 644.499438 146.520997 
L 644.673238 147.718493 
L 644.759783 147.718493 
L 644.846093 147.319338 
L 644.93217 148.117664 
L 645.018015 147.984617 
L 645.189012 146.520997 
L 645.274167 147.851555 
L 645.359095 147.319338 
L 645.528274 147.585447 
L 645.696558 147.718493 
L 645.780367 147.452384 
L 645.863956 147.984617 
L 646.030478 147.186276 
L 646.113413 147.053214 
L 646.278638 147.186276 
L 646.36093 147.718493 
L 646.524878 147.186276 
L 646.606536 147.053214 
L 646.687985 147.585447 
L 646.769226 146.920167 
L 646.85026 147.053214 
L 646.931088 147.319338 
L 647.092131 146.920167 
L 647.252363 147.319338 
L 647.332177 146.920167 
L 647.491208 147.718493 
L 647.649447 147.186276 
L 647.806903 147.718493 
L 647.88534 147.186276 
L 647.963584 147.851555 
L 648.041636 147.718493 
L 648.119497 147.585447 
L 648.197168 146.920167 
L 648.351943 147.851555 
L 648.429049 147.053214 
L 648.505969 147.718493 
L 648.582703 147.452384 
L 648.659253 147.053214 
L 648.735618 147.186276 
L 648.811801 147.585447 
L 648.887802 147.186276 
L 648.963622 147.718493 
L 649.039262 147.585447 
L 649.114722 146.920167 
L 649.190003 147.319338 
L 649.265107 147.186276 
L 649.340034 147.319338 
L 649.414785 147.984617 
L 649.489361 146.520997 
L 649.563762 146.920167 
L 649.712045 147.053214 
L 649.785927 146.787105 
L 650.006552 148.250726 
L 650.15279 146.787105 
L 650.225658 146.920167 
L 650.298359 147.452384 
L 650.443264 147.053214 
L 650.587513 147.053214 
L 650.659393 146.920167 
L 650.802667 147.585447 
L 650.945299 147.186276 
L 651.016376 147.452384 
L 651.087294 146.520997 
L 651.158055 146.920167 
L 651.299105 146.920167 
L 651.439534 147.319338 
L 651.509516 147.585447 
L 651.579345 147.319338 
L 651.649021 147.718493 
L 651.787916 147.053214 
L 651.857137 147.053214 
L 651.926208 146.920167 
L 652.063901 147.053214 
L 652.132525 147.053214 
L 652.26933 146.920167 
L 652.337513 146.920167 
L 652.541188 147.851555 
L 652.676251 146.920167 
L 652.810742 146.920167 
L 652.877776 146.787105 
L 652.944668 147.053214 
L 653.01142 146.787105 
L 653.078032 147.718493 
L 653.144505 146.920167 
L 653.21084 147.319338 
L 653.277036 146.787105 
L 653.343095 146.920167 
L 653.409017 147.452384 
L 653.474803 146.787105 
L 653.540453 147.585447 
L 653.605967 147.452384 
L 653.671348 146.920167 
L 653.801706 147.319338 
L 653.931533 146.920167 
L 653.996248 147.186276 
L 654.060832 146.654059 
L 654.189607 147.186276 
L 654.2538 147.053214 
L 654.445605 147.319338 
L 654.509284 146.787105 
L 654.572836 147.585447 
L 654.762733 146.520997 
L 654.888704 146.920167 
L 654.951503 146.387934 
L 655.13916 147.053214 
L 655.201467 147.186276 
L 655.263652 147.053214 
L 655.325716 147.452384 
L 655.449482 146.920167 
L 655.634233 147.186276 
L 655.756806 147.186276 
L 655.817917 147.718493 
L 655.87891 147.186276 
L 655.939786 147.319338 
L 656.000546 147.319338 
L 656.06119 147.452384 
L 656.121719 146.787105 
L 656.182133 147.319338 
L 656.242433 147.319338 
L 656.302618 146.920167 
L 656.36269 147.319338 
L 656.422648 147.186276 
L 656.542227 146.654059 
L 656.601849 147.186276 
L 656.661358 146.787105 
L 656.720757 146.387934 
L 656.839223 147.186276 
L 656.898291 146.520997 
L 656.957249 146.787105 
L 657.016099 146.520997 
L 657.07484 147.186276 
L 657.133472 146.520997 
L 657.191997 147.186276 
L 657.250414 146.654059 
L 657.308724 146.654059 
L 657.366927 147.452384 
L 657.425024 147.053214 
L 657.483016 146.387934 
L 657.540901 146.654059 
L 657.598682 146.520997 
L 657.713929 147.319338 
L 657.82876 145.988779 
L 657.943179 147.452384 
L 658.000234 147.053214 
L 658.114038 147.452384 
L 658.170788 147.319338 
L 658.283985 146.254888 
L 658.340433 146.520997 
L 658.396781 147.452384 
L 658.453029 146.654059 
L 658.509178 146.387934 
L 658.565228 147.186276 
L 658.621179 147.053214 
L 658.732788 146.121826 
L 658.788446 146.387934 
L 658.844006 147.452384 
L 658.89947 146.787105 
L 658.954837 146.654059 
L 659.010108 147.053214 
L 659.065283 146.387934 
L 659.120363 146.920167 
L 659.175347 147.452384 
L 659.230237 146.920167 
L 659.285032 146.387934 
L 659.339733 147.186276 
L 659.394339 146.920167 
L 659.448853 146.254888 
L 659.503273 146.520997 
L 659.5576 146.654059 
L 659.611835 147.186276 
L 659.665977 146.787105 
L 659.720027 146.787105 
L 659.827853 147.452384 
L 659.988909 146.254888 
L 660.042414 146.254888 
L 660.149155 147.186276 
L 660.255538 145.988779 
L 660.467244 147.319338 
L 660.572571 145.988779 
L 660.67755 147.053214 
L 660.729911 145.988779 
L 660.782185 146.920167 
L 660.990426 145.988779 
L 661.042274 146.254888 
L 661.094038 145.988779 
L 661.145717 145.988779 
L 661.197313 146.787105 
L 661.248825 146.121826 
L 661.300254 145.988779 
L 661.402864 147.186276 
L 661.454045 145.722655 
L 661.505143 147.452384 
L 661.55616 147.319338 
L 661.657948 145.855717 
L 661.708721 146.387934 
L 661.810023 146.520997 
L 661.860553 147.319338 
L 661.911004 146.654059 
L 661.961374 146.520997 
L 662.112009 145.589609 
L 662.361492 147.053214 
L 662.510249 145.589609 
L 662.55968 145.722655 
L 662.609035 146.520997 
L 662.658313 145.855717 
L 662.756641 146.920167 
L 662.805691 146.520997 
L 662.95239 145.456546 
L 663.049814 147.585447 
L 663.098415 147.186276 
L 663.146941 147.319338 
L 663.195394 147.851555 
L 663.34031 145.456546 
L 663.38847 147.053214 
L 663.48457 146.654059 
L 663.532511 146.787105 
L 663.580381 147.718493 
L 663.675904 147.452384 
L 663.866094 145.190438 
L 663.913465 147.053214 
L 664.007994 146.520997 
L 664.055154 146.520997 
L 664.149264 145.456546 
L 664.196215 146.121826 
L 664.243097 145.722655 
L 664.28991 145.855717 
L 664.38333 147.186276 
L 664.522946 145.057376 
L 664.569349 146.520997 
L 664.615685 145.988779 
L 664.708154 144.924329 
L 664.754288 145.3235 
L 664.846356 144.924329 
L 664.938158 145.855717 
L 664.98396 147.319338 
L 665.075366 146.787105 
L 665.211985 144.791267 
L 665.257395 145.057376 
L 665.30274 146.920167 
L 665.393236 146.520997 
L 665.438388 146.920167 
L 665.5285 144.924329 
L 665.663191 146.654059 
L 665.707961 146.920167 
L 665.797314 144.791267 
L 665.841896 146.387934 
L 665.930874 146.254888 
L 666.063876 146.787105 
L 666.152236 145.988779 
L 666.240351 145.855717 
L 666.284317 146.520997 
L 666.328223 146.654059 
L 666.415852 145.190438 
L 666.459577 145.988779 
L 666.633877 147.053214 
L 666.850417 145.057376 
L 666.936622 146.387934 
L 666.979637 145.589609 
L 667.022594 144.924329 
L 667.065493 145.190438 
L 667.108335 145.456546 
L 667.151118 144.658205 
L 667.279125 146.520997 
L 667.364178 145.3235 
L 667.406619 144.525158 
L 667.491333 144.658205 
L 667.575821 145.057376 
L 667.660085 146.520997 
L 667.702134 145.456546 
L 667.744127 144.658205 
L 667.786064 144.791267 
L 667.827947 146.121826 
L 667.911547 145.722655 
L 667.953265 146.520997 
L 667.994928 145.3235 
L 668.036537 145.855717 
L 668.119591 144.25905 
L 668.161037 144.791267 
L 668.202429 144.924329 
L 668.285052 146.787105 
L 668.367461 145.988779 
L 668.531641 144.392096 
L 668.613415 144.25905 
L 668.694979 146.654059 
L 668.735682 146.520997 
L 668.816934 145.855717 
L 668.857482 146.387934 
L 668.897978 145.589609 
L 668.978817 144.125988 
L 669.019159 145.190438 
L 669.099691 146.787105 
L 669.13988 145.988779 
L 669.220107 144.125988 
L 669.260145 145.3235 
L 669.340069 145.190438 
L 669.419794 145.988779 
L 669.459581 145.722655 
L 669.657775 143.859879 
L 669.776101 146.520997 
L 669.854742 144.525158 
L 669.893989 144.658205 
L 669.933188 144.658205 
L 669.972339 144.125988 
L 670.011442 146.654059 
L 670.089503 146.121826 
L 670.128462 144.125988 
L 670.206238 145.190438 
L 670.245054 145.190438 
L 670.283823 145.3235 
L 670.322545 146.387934 
L 670.36122 145.722655 
L 670.438429 144.525158 
L 670.476964 144.658205 
L 670.515451 144.791267 
L 670.553893 144.525158 
L 670.668938 145.988779 
L 670.707195 144.125988 
L 670.78357 145.190438 
L 670.89779 144.924329 
L 670.935772 145.988779 
L 670.973709 144.791267 
L 671.011601 144.791267 
L 671.049447 144.924329 
L 671.087249 145.589609 
L 671.125006 144.924329 
L 671.162718 144.525158 
L 671.200386 144.791267 
L 671.238009 144.924329 
L 671.275587 144.392096 
L 671.313121 144.791267 
L 671.350611 146.387934 
L 671.388057 144.924329 
L 671.462817 144.658205 
L 671.500131 144.791267 
L 671.611811 146.387934 
L 671.686048 144.791267 
L 671.760111 145.456546 
L 671.834003 144.525158 
L 671.870884 145.456546 
L 671.907723 145.456546 
L 671.981273 144.924329 
L 672.017984 146.121826 
L 672.054653 145.589609 
L 672.200908 144.25905 
L 672.237366 144.25905 
L 672.527543 145.722655 
L 672.671644 144.392096 
L 672.707568 144.25905 
L 672.779294 144.658205 
L 672.815096 144.392096 
L 672.850858 144.25905 
L 672.88658 144.392096 
L 672.922262 144.658205 
L 672.957904 146.121826 
L 673.029068 145.589609 
L 673.064591 144.392096 
L 673.135517 145.3235 
L 673.206286 144.791267 
L 673.276897 145.722655 
L 673.312144 145.3235 
L 673.487796 144.125988 
L 673.52281 143.992925 
L 673.73209 145.855717 
L 673.766837 145.722655 
L 673.905445 144.125988 
L 674.009006 145.589609 
L 674.180863 144.392096 
L 674.249346 144.25905 
L 674.283533 145.456546 
L 674.385872 143.992925 
L 674.419912 144.25905 
L 674.55571 145.456546 
L 674.623392 145.3235 
L 674.758326 144.25905 
L 674.79197 145.3235 
L 674.859152 144.125988 
L 674.89269 144.392096 
L 674.926193 143.992925 
L 674.95966 144.25905 
L 674.993092 143.992925 
L 675.159727 145.3235 
L 675.226138 145.057376 
L 675.259291 145.589609 
L 675.39156 144.125988 
L 675.556127 145.3235 
L 675.719847 143.992925 
L 675.75249 145.3235 
L 675.850219 144.791267 
L 675.882729 145.3235 
L 675.915205 145.057376 
L 675.980059 145.589609 
L 676.044781 143.992925 
L 676.206011 145.589609 
L 676.23816 144.658205 
L 676.302359 145.057376 
L 676.33441 145.456546 
L 676.366429 143.992925 
L 676.462293 144.392096 
L 676.494183 144.25905 
L 676.526042 143.59377 
L 676.557869 144.791267 
L 676.589663 144.392096 
L 676.621427 144.924329 
L 676.653158 143.460708 
L 676.716526 144.525158 
L 676.842885 145.589609 
L 676.905877 144.392096 
L 676.937326 145.722655 
L 676.968744 145.722655 
L 677.062813 143.726817 
L 677.094107 144.25905 
L 677.125371 144.25905 
L 677.25012 143.061537 
L 677.28123 143.992925 
L 677.343361 143.726817 
L 677.374381 143.061537 
L 677.43633 143.726817 
L 677.467259 145.456546 
L 677.529028 144.25905 
L 677.590677 143.327646 
L 677.621457 144.525158 
L 677.652207 145.988779 
L 677.682927 143.59377 
L 677.713618 143.460708 
L 677.866629 145.3235 
L 677.927628 144.525158 
L 677.958084 145.855717 
L 677.98851 145.190438 
L 678.018908 143.1946 
L 678.109926 143.992925 
L 678.170461 143.1946 
L 678.23088 143.460708 
L 678.261047 143.327646 
L 678.351377 144.924329 
L 678.321295 143.061537 
L 678.411454 143.992925 
L 678.44145 143.992925 
L 678.501358 143.859879 
L 678.680407 145.589609 
L 678.739867 144.392096 
L 678.769555 145.722655 
L 678.799216 145.456546 
L 678.828849 143.460708 
L 678.917582 143.726817 
L 679.03551 143.061537 
L 679.182308 145.3235 
L 679.328432 143.061537 
L 679.357576 143.061537 
L 679.415785 143.1946 
L 679.444849 142.795429 
L 679.502899 143.460708 
L 679.531884 144.525158 
L 679.589775 144.25905 
L 679.618681 143.061537 
L 679.705242 143.726817 
L 679.762818 144.125988 
L 679.791568 145.456546 
L 679.820291 143.061537 
L 679.87766 144.525158 
L 679.934926 143.859879 
L 679.96352 144.392096 
L 679.992089 145.190438 
L 680.020631 144.525158 
L 680.049149 143.327646 
L 680.106107 144.392096 
L 680.162963 145.3235 
L 680.191353 144.25905 
L 680.219718 142.795429 
L 680.304661 143.859879 
L 680.332925 143.1946 
L 680.361164 144.25905 
L 680.389378 144.924329 
L 680.417567 144.392096 
L 680.445731 143.061537 
L 680.501984 143.859879 
L 680.586178 145.190438 
L 680.614193 143.460708 
L 680.698091 144.125988 
L 680.83743 145.3235 
L 680.920742 143.061537 
L 680.976162 143.327646 
L 681.003836 144.924329 
L 681.086714 144.25905 
L 681.141846 144.924329 
L 681.196883 144.25905 
L 681.251824 143.061537 
L 681.27926 144.924329 
L 681.361424 144.658205 
L 681.388765 143.1946 
L 681.416082 144.791267 
L 681.470647 144.392096 
L 681.606651 143.061537 
L 681.66089 143.1946 
L 681.687975 143.061537 
L 681.796085 144.791267 
L 681.876927 143.061537 
L 681.903829 144.525158 
L 681.957564 144.25905 
L 681.984397 144.791267 
L 682.118227 143.327646 
L 682.224887 143.1946 
L 682.251496 144.924329 
L 682.357711 142.662367 
L 682.43714 142.795429 
L 682.569083 144.924329 
L 682.595406 142.662367 
L 682.700481 142.795429 
L 682.726695 142.52932 
L 682.752888 143.726817 
L 682.831338 143.061537 
L 682.857445 143.1946 
L 682.935638 142.795429 
L 682.98766 144.924329 
L 683.143217 142.662367 
L 683.194901 145.190438 
L 683.246501 144.392096 
L 683.298017 144.924329 
L 683.323744 142.662367 
L 683.34945 144.658205 
L 683.426444 143.327646 
L 683.528814 142.662367 
L 683.605376 145.057376 
L 683.681754 144.392096 
L 683.783307 143.327646 
L 683.909794 144.25905 
L 683.935031 144.392096 
L 683.960248 143.992925 
L 683.985446 143.992925 
L 684.010623 144.125988 
L 684.060918 143.992925 
L 684.236326 142.928491 
L 684.286265 143.061537 
L 684.311206 142.795429 
L 684.410772 144.791267 
L 684.435615 143.859879 
L 684.460439 143.1946 
L 684.510028 144.125988 
L 684.534794 144.525158 
L 684.55954 142.928491 
L 684.608975 144.924329 
L 684.633664 144.392096 
L 684.658334 144.392096 
L 684.732228 144.791267 
L 684.805951 143.061537 
L 684.855005 143.327646 
L 684.903984 144.25905 
L 684.952887 143.726817 
L 685.074817 143.1946 
L 685.123459 143.1946 
L 685.244738 144.525158 
L 685.365557 143.061537 
L 685.461883 144.525158 
L 685.509936 144.25905 
L 685.557918 144.392096 
L 685.629754 143.726817 
L 685.653664 144.525158 
L 685.677555 143.59377 
L 685.725285 143.59377 
L 685.820529 143.59377 
L 685.868044 143.061537 
L 685.915489 143.327646 
L 685.939185 143.59377 
L 686.010166 143.460708 
L 686.033792 142.795429 
L 686.08099 144.125988 
L 686.104563 144.658205 
L 686.128118 143.59377 
L 686.175177 142.662367 
L 686.19868 143.59377 
L 686.222166 144.392096 
L 686.269086 143.1946 
L 686.29252 143.327646 
L 686.362718 143.859879 
L 686.386084 143.061537 
L 686.432762 144.392096 
L 686.456076 143.726817 
L 686.502653 143.061537 
L 686.525915 144.525158 
L 686.641974 143.1946 
L 686.688279 143.992925 
L 686.711406 142.928491 
L 686.757611 143.726817 
L 686.803748 144.392096 
L 686.849819 142.928491 
L 686.872829 144.791267 
L 686.964704 143.59377 
L 687.010542 143.59377 
L 687.079176 143.992925 
L 687.124849 143.061537 
L 687.147661 144.791267 
L 687.170457 145.057376 
L 687.193237 144.392096 
L 687.216 144.924329 
L 687.284193 143.1946 
L 687.261478 145.988779 
L 687.306891 143.726817 
L 687.329573 145.057376 
L 687.352239 143.1946 
L 687.42014 143.992925 
L 687.532988 143.1946 
L 687.600505 143.59377 
L 687.622979 143.59377 
L 687.690305 143.1946 
L 687.73511 144.125988 
L 687.757489 143.460708 
L 687.8022 150.778781 
L 687.869149 145.057376 
L 687.891434 143.992925 
L 687.980418 144.392096 
L 688.002625 144.392096 
L 688.091299 143.460708 
L 688.135543 143.59377 
L 688.223848 143.726817 
L 688.245886 143.59377 
L 688.705191 143.59377 
L 688.856831 143.327646 
L 688.964704 143.327646 
L 689.093671 143.460708 
L 689.498651 143.460708 
L 689.625476 143.59377 
L 689.772802 143.59377 
L 689.898541 143.460708 
L 690.293467 143.460708 
L 690.396585 143.59377 
L 690.519887 143.460708 
L 690.540391 143.460708 
L 690.581359 143.59377 
L 690.642713 143.460708 
L 690.805747 143.460708 
L 690.927477 143.327646 
L 691.12933 143.327646 
L 691.24983 143.460708 
L 691.269869 143.460708 
L 691.389839 143.59377 
L 691.529234 143.59377 
L 691.56895 143.460708 
L 691.62843 143.59377 
L 691.707564 143.59377 
L 691.825898 143.726817 
L 691.865245 143.726817 
L 691.8849 143.59377 
L 691.9634 143.726817 
L 692.002577 143.726817 
L 692.119821 143.460708 
L 692.178281 143.59377 
L 692.217194 143.460708 
L 692.236634 143.460708 
L 692.256061 143.327646 
L 692.275476 143.59377 
L 692.29488 143.460708 
L 692.353019 143.859879 
L 692.411053 143.59377 
L 692.430374 143.59377 
L 692.546054 143.726817 
L 692.584521 143.726817 
L 692.871549 145.057376 
L 693.023578 143.1946 
L 693.042531 144.791267 
L 693.118229 143.1946 
L 693.137125 143.061537 
L 693.15601 143.1946 
L 693.193747 143.859879 
L 693.231439 143.1946 
L 693.269087 159.16132 
L 693.325474 145.456546 
L 693.363011 143.061537 
L 693.437951 144.25905 
L 693.475355 143.992925 
L 693.550031 144.525158 
L 693.605924 144.525158 
L 693.680295 144.392096 
L 693.717415 144.525158 
L 693.754492 144.658205 
L 693.828517 144.525158 
L 693.90237 144.525158 
L 694.049563 144.25905 
L 694.086255 144.25905 
L 694.214346 144.525158 
L 694.450869 144.525158 
L 694.577502 144.658205 
L 694.721612 144.658205 
L 694.847175 144.525158 
L 695.362148 144.525158 
L 695.485212 144.658205 
L 696.622716 144.658205 
L 696.724137 144.791267 
L 696.842054 144.658205 
L 696.959536 144.658205 
L 697.076585 144.525158 
L 697.325964 144.525158 
L 697.441675 144.658205 
L 697.639064 144.658205 
L 697.753644 144.525158 
L 697.884089 144.791267 
L 697.916617 144.658205 
L 697.981574 144.791267 
L 698.127242 144.791267 
L 698.240081 144.658205 
L 698.256168 144.791267 
L 698.336482 144.658205 
L 698.448582 144.658205 
L 698.608043 145.057376 
L 698.623945 145.057376 
L 698.798347 143.859879 
L 698.861529 145.456546 
L 698.877306 142.662367 
L 698.908834 144.658205 
L 698.940332 144.924329 
L 699.081685 143.327646 
L 699.175574 144.791267 
L 699.128664 142.52932 
L 699.191195 144.125988 
L 699.222414 142.396258 
L 699.253603 144.658205 
L 699.284761 144.25905 
L 699.300328 144.924329 
L 699.362523 143.859879 
L 699.393574 144.791267 
L 699.409089 144.25905 
L 699.502017 144.658205 
L 699.54838 144.791267 
L 699.57925 144.525158 
L 699.625501 144.791267 
L 699.640902 144.125988 
L 699.656297 142.52932 
L 699.687063 143.992925 
L 699.702435 156.101032 
L 699.763849 143.1946 
L 699.794512 143.992925 
L 699.84045 143.460708 
L 699.871039 144.25905 
L 699.901599 144.125988 
L 699.932129 143.859879 
L 699.977869 144.25905 
L 699.993102 144.25905 
L 700.160176 144.791267 
L 700.175321 144.791267 
L 700.281136 144.658205 
L 700.401638 144.791267 
L 700.715801 144.791267 
L 700.834671 144.658205 
L 700.849498 144.658205 
L 700.967871 144.525158 
L 702.085232 144.525158 
L 702.199103 144.392096 
L 702.213308 144.392096 
L 702.227507 144.525158 
L 702.312567 144.392096 
L 702.594471 144.392096 
L 702.706536 144.25905 
L 702.818208 144.525158 
L 703.859989 144.525158 
L 703.981129 144.392096 
L 704.248689 144.392096 
L 704.36836 144.525158 
L 704.421403 144.525158 
L 704.540428 144.658205 
L 704.659009 144.525158 
L 704.698438 144.525158 
L 704.764045 144.658205 
L 704.803344 144.525158 
L 704.842595 144.525158 
L 704.960057 144.125988 
L 705.103036 145.3235 
L 705.245374 143.726817 
L 705.258283 145.3235 
L 705.348495 143.726817 
L 705.374223 144.25905 
L 705.39993 143.859879 
L 705.412776 155.568799 
L 705.451283 143.726817 
L 705.502552 143.726817 
L 705.617607 144.392096 
L 705.630365 144.25905 
L 705.655866 144.25905 
L 705.783067 143.992925 
L 705.795759 143.992925 
L 705.90976 144.125988 
L 706.261841 144.125988 
L 706.374188 144.392096 
L 706.597697 144.392096 
L 706.721194 144.525158 
L 706.856489 144.525158 
L 706.978987 144.392096 
L 707.930491 144.392096 
L 708.06075 144.658205 
L 708.785127 144.658205 
L 708.91194 144.924329 
L 709.129798 144.924329 
L 709.243863 144.791267 
L 709.402871 144.791267 
L 709.527251 144.525158 
L 709.752157 144.525158 
L 709.841676 144.658205 
L 709.852848 144.525158 
L 709.986609 144.25905 
L 709.997731 144.25905 
L 710.119811 143.859879 
L 710.130886 143.992925 
L 710.141957 143.992925 
L 710.164087 143.59377 
L 710.175147 143.992925 
L 710.186203 144.924329 
L 710.252457 143.59377 
L 710.285532 178.720546 
L 710.362574 145.855717 
L 710.373565 141.46487 
L 710.472311 143.859879 
L 710.527039 143.460708 
L 710.55983 143.992925 
L 710.581672 143.859879 
L 710.603499 143.859879 
L 710.766726 144.525158 
L 710.788426 144.525158 
L 710.918319 144.125988 
L 711.047684 144.392096 
L 711.079943 144.392096 
L 711.197948 144.25905 
L 711.208654 144.25905 
L 711.251442 144.392096 
L 711.315516 144.25905 
L 711.379462 144.25905 
L 711.496362 144.392096 
L 711.855 144.392096 
L 711.970169 144.525158 
L 712.043242 144.525158 
L 712.084923 144.658205 
L 712.147342 144.525158 
L 712.395801 144.525158 
L 712.509033 144.392096 
L 712.519307 144.392096 
L 712.642335 144.658205 
L 713.119665 144.658205 
L 713.240398 144.791267 
L 713.370676 144.791267 
L 713.450583 144.658205 
L 713.470529 144.791267 
L 713.589939 144.924329 
L 713.619722 144.924329 
L 713.669298 144.791267 
L 713.728688 144.924329 
L 713.738575 144.924329 
L 713.797836 145.190438 
L 713.856986 145.057376 
L 713.974958 144.791267 
L 714.082716 145.190438 
L 714.199855 144.924329 
L 714.209597 145.190438 
L 714.287427 144.525158 
L 714.297142 144.392096 
L 714.345675 145.057376 
L 714.355372 144.525158 
L 714.374759 145.057376 
L 714.384447 144.392096 
L 714.394133 144.791267 
L 714.510133 178.5875 
L 715.740415 178.5875 
L 715.749697 178.454438 
L 715.833111 144.125988 
L 715.97165 145.057376 
L 715.999285 145.057376 
L 716.137104 144.658205 
L 716.164596 144.658205 
L 716.301701 145.057376 
L 716.338163 145.057376 
L 716.465452 145.3235 
L 716.655436 145.3235 
L 716.718512 145.190438 
L 716.736511 145.456546 
L 716.76349 145.3235 
L 717.040945 145.3235 
L 717.165458 145.589609 
L 717.316 145.589609 
L 717.413032 145.456546 
L 717.421838 145.589609 
L 717.658694 145.589609 
L 717.7634 145.3235 
L 717.77211 145.456546 
L 717.876444 145.190438 
L 717.885123 145.3235 
L 718.178811 145.3235 
L 718.290391 145.190438 
L 718.563393 145.190438 
L 718.682099 145.3235 
L 718.867746 145.3235 
L 718.960165 145.589609 
L 718.985324 145.456546 
L 719.04395 145.456546 
L 719.08576 145.589609 
L 719.152542 145.456546 
L 719.235823 145.456546 
L 719.252452 145.589609 
L 719.277381 145.057376 
L 719.30229 145.057376 
L 719.310589 144.525158 
L 719.376901 145.456546 
L 719.393457 144.791267 
L 719.410005 159.560491 
L 719.443075 143.726817 
L 719.500865 144.525158 
L 719.61613 145.057376 
L 719.624347 144.924329 
L 719.771896 145.589609 
L 719.812761 145.456546 
L 719.878035 145.589609 
L 719.902479 145.589609 
L 720.024415 145.855717 
L 720.307129 145.855717 
L 720.419515 145.722655 
L 722.332147 145.722655 
L 722.452651 145.988779 
L 722.915343 145.988779 
L 723.055799 145.057376 
L 723.070548 145.190438 
L 723.07792 145.190438 
L 723.114753 145.589609 
L 723.151544 145.3235 
L 723.202981 142.795429 
L 723.173599 157.963808 
L 723.261663 144.791267 
L 723.276317 144.658205 
L 723.349484 145.190438 
L 723.364098 145.190438 
L 723.502591 145.722655 
L 723.57524 145.722655 
L 723.633241 145.589609 
L 723.683905 145.722655 
L 724.193272 145.722655 
L 724.306942 145.855717 
L 725.174376 145.855717 
L 725.291476 145.722655 
L 725.305224 145.722655 
L 725.367017 145.589609 
L 725.414996 145.722655 
L 725.462902 145.722655 
L 725.578947 145.589609 
L 726.179661 145.589609 
L 726.293126 145.722655 
L 726.319764 145.722655 
L 726.439363 145.456546 
L 726.47913 145.589609 
L 726.505614 145.3235 
L 726.545297 145.456546 
L 726.565121 145.456546 
L 726.617923 144.924329 
L 726.683803 145.057376 
L 726.736409 145.589609 
L 726.696962 144.791267 
L 726.742978 145.190438 
L 726.749546 162.886888 
L 726.788927 144.125988 
L 726.847908 144.924329 
L 726.861 144.924329 
L 726.952492 145.722655 
L 727.004656 145.589609 
L 727.076242 145.589609 
L 727.18008 145.190438 
L 727.199512 145.3235 
L 727.244807 145.3235 
L 727.251272 145.190438 
L 727.354541 145.3235 
L 727.367427 145.3235 
L 727.483158 145.190438 
L 727.662353 145.190438 
L 727.777018 145.3235 
L 728.362962 145.3235 
L 728.475135 145.190438 
L 728.815454 145.190438 
L 728.932178 145.057376 
L 729.017912 145.057376 
L 729.066799 145.190438 
L 729.127803 145.057376 
L 729.425041 145.057376 
L 729.539554 144.924329 
L 729.563609 144.924329 
L 729.677625 144.791267 
L 729.737469 144.791267 
L 729.773322 144.924329 
L 729.844907 144.791267 
L 729.856822 144.791267 
L 729.951983 144.924329 
L 729.963858 144.791267 
L 730.017241 145.190438 
L 730.088279 144.125988 
L 730.188646 145.456546 
L 730.200434 144.924329 
L 730.218106 145.722655 
L 730.288698 142.263212 
L 730.400149 178.5875 
L 732.769067 178.5875 
L 732.779936 176.4586 
L 732.801663 142.263212 
L 732.915485 143.726817 
L 732.920895 143.726817 
L 732.947932 143.460708 
L 733.00733 144.25905 
L 733.131171 144.924329 
L 733.136544 144.924329 
L 733.163398 144.525158 
L 733.249177 144.658205 
L 733.302672 144.658205 
L 733.377414 144.25905 
L 733.420045 144.392096 
L 733.542292 144.392096 
L 733.674639 144.924329 
L 733.753783 144.924329 
L 733.827474 145.190438 
L 733.869507 145.057376 
L 733.92197 145.057376 
L 734.037085 145.190438 
L 734.05275 145.190438 
L 734.167393 145.057376 
L 734.203784 145.057376 
L 734.317885 144.924329 
L 734.405775 144.924329 
L 734.519155 144.791267 
L 734.739602 144.791267 
L 734.856892 145.057376 
L 734.861981 145.057376 
L 734.882332 145.190438 
L 734.912834 144.924329 
L 734.968678 145.057376 
L 734.978821 145.057376 
L 735.090181 144.791267 
L 735.125532 144.791267 
L 735.160844 144.525158 
L 735.22632 145.057376 
L 735.231351 144.924329 
L 735.24141 144.924329 
L 735.356867 145.855717 
L 735.321773 144.791267 
L 735.361878 145.3235 
L 735.411938 143.460708 
L 735.41694 177.123879 
L 735.521795 144.392096 
L 735.52678 144.392096 
L 735.626306 144.125988 
L 735.636241 144.25905 
L 735.755226 144.525158 
L 735.883626 144.525158 
L 735.99678 144.658205 
L 736.129101 144.658205 
L 736.217011 144.791267 
L 736.236513 144.658205 
L 736.854364 144.658205 
L 736.940295 144.525158 
L 736.964123 144.658205 
L 737.045007 144.658205 
L 737.163582 144.392096 
L 737.286432 144.392096 
L 737.361797 144.658205 
L 737.399413 144.525158 
L 737.40881 144.392096 
L 737.418204 144.658205 
L 737.502628 144.658205 
L 737.55411 144.658205 
L 737.610177 144.791267 
L 737.661485 144.658205 
L 737.689437 144.658205 
L 737.800998 144.525158 
L 737.842733 144.525158 
L 737.958376 144.658205 
L 738.082801 144.658205 
L 738.197577 144.25905 
L 738.202159 144.392096 
L 738.211322 144.25905 
L 738.321071 144.924329 
L 738.407688 143.859879 
L 738.35757 145.3235 
L 738.430443 144.392096 
L 738.439541 145.3235 
L 738.553039 178.5875 
L 740.652938 178.5875 
L 740.652938 178.5875 
" clip-path="url(#pe607945179)" style="fill: none; stroke: #1f77b4; stroke-width: 1.5; stroke-linecap: square"/>
   </g>
   <g id="patch_3">
    <path d="M 383.532938 311.6435 
L 383.532938 45.5315 
" style="fill: none; stroke: #000000; stroke-width: 0.8; stroke-linejoin: miter; stroke-linecap: square"/>
   </g>
   <g id="patch_4">
    <path d="M 740.652938 311.6435 
L 740.652938 45.5315 
" style="fill: none; stroke: #000000; stroke-width: 0.8; stroke-linejoin: miter; stroke-linecap: square"/>
   </g>
   <g id="patch_5">
    <path d="M 383.532938 311.6435 
L 740.652938 311.6435 
" style="fill: none; stroke: #000000; stroke-width: 0.8; stroke-linejoin: miter; stroke-linecap: square"/>
   </g>
   <g id="patch_6">
    <path d="M 383.532938 45.5315 
L 740.652938 45.5315 
" style="fill: none; stroke: #000000; stroke-width: 0.8; stroke-linejoin: miter; stroke-linecap: square"/>
   </g>
   <g id="text_18">
    <!-- Accuracy of the 18_07_25_CIFAR10_torch_model_(1024+2048-2048.0-1)_cat-dog on the validation set -->
    <g transform="translate(7.2 25.5315) scale(0.264 -0.264)">
     <defs>
      <path id="TimesNewRomanPSMT-20" transform="scale(0.015625)"/>
      <path id="TimesNewRomanPSMT-6f" d="M 1600 2947 
Q 2250 2947 2644 2453 
Q 2978 2031 2978 1484 
Q 2978 1100 2793 706 
Q 2609 313 2286 112 
Q 1963 -88 1566 -88 
Q 919 -88 538 428 
Q 216 863 216 1403 
Q 216 1797 411 2186 
Q 606 2575 925 2761 
Q 1244 2947 1600 2947 
z
M 1503 2744 
Q 1338 2744 1170 2645 
Q 1003 2547 900 2300 
Q 797 2053 797 1666 
Q 797 1041 1045 587 
Q 1294 134 1700 134 
Q 2003 134 2200 384 
Q 2397 634 2397 1244 
Q 2397 2006 2069 2444 
Q 1847 2744 1503 2744 
z
" transform="scale(0.015625)"/>
      <path id="TimesNewRomanPSMT-66" d="M 1319 2638 
L 1319 756 
Q 1319 356 1406 250 
Q 1522 113 1716 113 
L 1975 113 
L 1975 0 
L 266 0 
L 266 113 
L 394 113 
Q 519 113 622 175 
Q 725 238 764 344 
Q 803 450 803 756 
L 803 2638 
L 247 2638 
L 247 2863 
L 803 2863 
L 803 3050 
Q 803 3478 940 3775 
Q 1078 4072 1361 4255 
Q 1644 4438 1997 4438 
Q 2325 4438 2600 4225 
Q 2781 4084 2781 3909 
Q 2781 3816 2700 3733 
Q 2619 3650 2525 3650 
Q 2453 3650 2373 3701 
Q 2294 3753 2178 3923 
Q 2063 4094 1966 4153 
Q 1869 4213 1750 4213 
Q 1606 4213 1506 4136 
Q 1406 4059 1362 3898 
Q 1319 3738 1319 3069 
L 1319 2863 
L 2056 2863 
L 2056 2638 
L 1319 2638 
z
" transform="scale(0.015625)"/>
      <path id="TimesNewRomanPSMT-74" d="M 1031 3803 
L 1031 2863 
L 1700 2863 
L 1700 2644 
L 1031 2644 
L 1031 788 
Q 1031 509 1111 412 
Q 1191 316 1316 316 
Q 1419 316 1516 380 
Q 1613 444 1666 569 
L 1788 569 
Q 1678 263 1478 108 
Q 1278 -47 1066 -47 
Q 922 -47 784 33 
Q 647 113 581 261 
Q 516 409 516 719 
L 516 2644 
L 63 2644 
L 63 2747 
Q 234 2816 414 2980 
Q 594 3144 734 3369 
Q 806 3488 934 3803 
L 1031 3803 
z
" transform="scale(0.015625)"/>
      <path id="TimesNewRomanPSMT-68" d="M 1041 4444 
L 1041 2350 
Q 1388 2731 1591 2839 
Q 1794 2947 1997 2947 
Q 2241 2947 2416 2812 
Q 2591 2678 2675 2391 
Q 2734 2191 2734 1659 
L 2734 647 
Q 2734 375 2778 275 
Q 2809 200 2884 156 
Q 2959 113 3159 113 
L 3159 0 
L 1753 0 
L 1753 113 
L 1819 113 
Q 2019 113 2097 173 
Q 2175 234 2206 353 
Q 2216 403 2216 647 
L 2216 1659 
Q 2216 2128 2167 2275 
Q 2119 2422 2012 2495 
Q 1906 2569 1756 2569 
Q 1603 2569 1437 2487 
Q 1272 2406 1041 2159 
L 1041 647 
Q 1041 353 1073 281 
Q 1106 209 1195 161 
Q 1284 113 1503 113 
L 1503 0 
L 84 0 
L 84 113 
Q 275 113 384 172 
Q 447 203 484 290 
Q 522 378 522 647 
L 522 3238 
Q 522 3728 498 3840 
Q 475 3953 426 3993 
Q 378 4034 297 4034 
Q 231 4034 84 3984 
L 41 4094 
L 897 4444 
L 1041 4444 
z
" transform="scale(0.015625)"/>
      <path id="TimesNewRomanPSMT-65" d="M 681 1784 
Q 678 1147 991 784 
Q 1303 422 1725 422 
Q 2006 422 2214 576 
Q 2422 731 2563 1106 
L 2659 1044 
Q 2594 616 2278 264 
Q 1963 -88 1488 -88 
Q 972 -88 605 314 
Q 238 716 238 1394 
Q 238 2128 614 2539 
Q 991 2950 1559 2950 
Q 2041 2950 2350 2633 
Q 2659 2316 2659 1784 
L 681 1784 
z
M 681 1966 
L 2006 1966 
Q 1991 2241 1941 2353 
Q 1863 2528 1708 2628 
Q 1553 2728 1384 2728 
Q 1125 2728 920 2526 
Q 716 2325 681 1966 
z
" transform="scale(0.015625)"/>
      <path id="TimesNewRomanPSMT-5f" d="M 3256 -1381 
L -53 -1381 
L -53 -1119 
L 3256 -1119 
L 3256 -1381 
z
" transform="scale(0.015625)"/>
      <path id="TimesNewRomanPSMT-43" d="M 3853 4334 
L 3950 2894 
L 3853 2894 
Q 3659 3541 3300 3825 
Q 2941 4109 2438 4109 
Q 2016 4109 1675 3895 
Q 1334 3681 1139 3212 
Q 944 2744 944 2047 
Q 944 1472 1128 1050 
Q 1313 628 1683 403 
Q 2053 178 2528 178 
Q 2941 178 3256 354 
Q 3572 531 3950 1056 
L 4047 994 
Q 3728 428 3303 165 
Q 2878 -97 2294 -97 
Q 1241 -97 663 684 
Q 231 1266 231 2053 
Q 231 2688 515 3219 
Q 800 3750 1298 4042 
Q 1797 4334 2388 4334 
Q 2847 4334 3294 4109 
Q 3425 4041 3481 4041 
Q 3566 4041 3628 4100 
Q 3709 4184 3744 4334 
L 3853 4334 
z
" transform="scale(0.015625)"/>
      <path id="TimesNewRomanPSMT-49" d="M 1975 116 
L 1975 0 
L 159 0 
L 159 116 
L 309 116 
Q 572 116 691 269 
Q 766 369 766 750 
L 766 3488 
Q 766 3809 725 3913 
Q 694 3991 597 4047 
Q 459 4122 309 4122 
L 159 4122 
L 159 4238 
L 1975 4238 
L 1975 4122 
L 1822 4122 
Q 1563 4122 1444 3969 
Q 1366 3869 1366 3488 
L 1366 750 
Q 1366 428 1406 325 
Q 1438 247 1538 191 
Q 1672 116 1822 116 
L 1975 116 
z
" transform="scale(0.015625)"/>
      <path id="TimesNewRomanPSMT-46" d="M 1309 4006 
L 1309 2341 
L 2081 2341 
Q 2347 2341 2470 2458 
Q 2594 2575 2634 2922 
L 2750 2922 
L 2750 1488 
L 2634 1488 
Q 2631 1734 2570 1850 
Q 2509 1966 2401 2023 
Q 2294 2081 2081 2081 
L 1309 2081 
L 1309 750 
Q 1309 428 1350 325 
Q 1381 247 1481 191 
Q 1619 116 1769 116 
L 1922 116 
L 1922 0 
L 103 0 
L 103 116 
L 253 116 
Q 516 116 634 269 
Q 709 369 709 750 
L 709 3488 
Q 709 3809 669 3913 
Q 638 3991 541 4047 
Q 406 4122 253 4122 
L 103 4122 
L 103 4238 
L 3256 4238 
L 3297 3306 
L 3188 3306 
Q 3106 3603 2998 3742 
Q 2891 3881 2733 3943 
Q 2575 4006 2244 4006 
L 1309 4006 
z
" transform="scale(0.015625)"/>
      <path id="TimesNewRomanPSMT-52" d="M 4325 0 
L 3194 0 
L 1759 1981 
Q 1600 1975 1500 1975 
Q 1459 1975 1412 1976 
Q 1366 1978 1316 1981 
L 1316 750 
Q 1316 350 1403 253 
Q 1522 116 1759 116 
L 1925 116 
L 1925 0 
L 109 0 
L 109 116 
L 269 116 
Q 538 116 653 291 
Q 719 388 719 750 
L 719 3488 
Q 719 3888 631 3984 
Q 509 4122 269 4122 
L 109 4122 
L 109 4238 
L 1653 4238 
Q 2328 4238 2648 4139 
Q 2969 4041 3192 3777 
Q 3416 3513 3416 3147 
Q 3416 2756 3161 2468 
Q 2906 2181 2372 2063 
L 3247 847 
Q 3547 428 3762 290 
Q 3978 153 4325 116 
L 4325 0 
z
M 1316 2178 
Q 1375 2178 1419 2176 
Q 1463 2175 1491 2175 
Q 2097 2175 2405 2437 
Q 2713 2700 2713 3106 
Q 2713 3503 2464 3751 
Q 2216 4000 1806 4000 
Q 1625 4000 1316 3941 
L 1316 2178 
z
" transform="scale(0.015625)"/>
      <path id="TimesNewRomanPSMT-6d" d="M 1050 2338 
Q 1363 2650 1419 2697 
Q 1559 2816 1721 2881 
Q 1884 2947 2044 2947 
Q 2313 2947 2506 2790 
Q 2700 2634 2766 2338 
Q 3088 2713 3309 2830 
Q 3531 2947 3766 2947 
Q 3994 2947 4170 2830 
Q 4347 2713 4450 2447 
Q 4519 2266 4519 1878 
L 4519 647 
Q 4519 378 4559 278 
Q 4591 209 4675 161 
Q 4759 113 4950 113 
L 4950 0 
L 3538 0 
L 3538 113 
L 3597 113 
Q 3781 113 3884 184 
Q 3956 234 3988 344 
Q 4000 397 4000 647 
L 4000 1878 
Q 4000 2228 3916 2372 
Q 3794 2572 3525 2572 
Q 3359 2572 3192 2489 
Q 3025 2406 2788 2181 
L 2781 2147 
L 2788 2013 
L 2788 647 
Q 2788 353 2820 281 
Q 2853 209 2943 161 
Q 3034 113 3253 113 
L 3253 0 
L 1806 0 
L 1806 113 
Q 2044 113 2133 169 
Q 2222 225 2256 338 
Q 2272 391 2272 647 
L 2272 1878 
Q 2272 2228 2169 2381 
Q 2031 2581 1784 2581 
Q 1616 2581 1450 2491 
Q 1191 2353 1050 2181 
L 1050 647 
Q 1050 366 1089 281 
Q 1128 197 1204 155 
Q 1281 113 1516 113 
L 1516 0 
L 100 0 
L 100 113 
Q 297 113 375 155 
Q 453 197 493 289 
Q 534 381 534 647 
L 534 1741 
Q 534 2213 506 2350 
Q 484 2453 437 2492 
Q 391 2531 309 2531 
Q 222 2531 100 2484 
L 53 2597 
L 916 2947 
L 1050 2947 
L 1050 2338 
z
" transform="scale(0.015625)"/>
      <path id="TimesNewRomanPSMT-64" d="M 2222 322 
Q 2013 103 1813 7 
Q 1613 -88 1381 -88 
Q 913 -88 563 304 
Q 213 697 213 1313 
Q 213 1928 600 2439 
Q 988 2950 1597 2950 
Q 1975 2950 2222 2709 
L 2222 3238 
Q 2222 3728 2198 3840 
Q 2175 3953 2125 3993 
Q 2075 4034 2000 4034 
Q 1919 4034 1784 3984 
L 1744 4094 
L 2597 4444 
L 2738 4444 
L 2738 1134 
Q 2738 631 2761 520 
Q 2784 409 2836 365 
Q 2888 322 2956 322 
Q 3041 322 3181 375 
L 3216 266 
L 2366 -88 
L 2222 -88 
L 2222 322 
z
M 2222 541 
L 2222 2016 
Q 2203 2228 2109 2403 
Q 2016 2578 1861 2667 
Q 1706 2756 1559 2756 
Q 1284 2756 1069 2509 
Q 784 2184 784 1559 
Q 784 928 1059 592 
Q 1334 256 1672 256 
Q 1956 256 2222 541 
z
" transform="scale(0.015625)"/>
      <path id="TimesNewRomanPSMT-6c" d="M 1184 4444 
L 1184 647 
Q 1184 378 1223 290 
Q 1263 203 1344 158 
Q 1425 113 1647 113 
L 1647 0 
L 244 0 
L 244 113 
Q 441 113 512 153 
Q 584 194 625 287 
Q 666 381 666 647 
L 666 3247 
Q 666 3731 644 3842 
Q 622 3953 573 3993 
Q 525 4034 450 4034 
Q 369 4034 244 3984 
L 191 4094 
L 1044 4444 
L 1184 4444 
z
" transform="scale(0.015625)"/>
      <path id="TimesNewRomanPSMT-28" d="M 1988 -1253 
L 1988 -1369 
Q 1516 -1131 1200 -813 
Q 750 -359 506 256 
Q 263 872 263 1534 
Q 263 2503 741 3301 
Q 1219 4100 1988 4444 
L 1988 4313 
Q 1603 4100 1356 3731 
Q 1109 3363 987 2797 
Q 866 2231 866 1616 
Q 866 947 969 400 
Q 1050 -31 1165 -292 
Q 1281 -553 1476 -793 
Q 1672 -1034 1988 -1253 
z
" transform="scale(0.015625)"/>
      <path id="TimesNewRomanPSMT-2b" d="M 1672 441 
L 1672 2000 
L 116 2000 
L 116 2256 
L 1672 2256 
L 1672 3809 
L 1922 3809 
L 1922 2256 
L 3484 2256 
L 3484 2000 
L 1922 2000 
L 1922 441 
L 1672 441 
z
" transform="scale(0.015625)"/>
      <path id="TimesNewRomanPSMT-2d" d="M 259 1672 
L 1875 1672 
L 1875 1200 
L 259 1200 
L 259 1672 
z
" transform="scale(0.015625)"/>
      <path id="TimesNewRomanPSMT-29" d="M 144 4313 
L 144 4444 
Q 619 4209 934 3891 
Q 1381 3434 1625 2820 
Q 1869 2206 1869 1541 
Q 1869 572 1392 -226 
Q 916 -1025 144 -1369 
L 144 -1253 
Q 528 -1038 776 -670 
Q 1025 -303 1145 264 
Q 1266 831 1266 1447 
Q 1266 2113 1163 2663 
Q 1084 3094 967 3353 
Q 850 3613 656 3853 
Q 463 4094 144 4313 
z
" transform="scale(0.015625)"/>
      <path id="TimesNewRomanPSMT-67" d="M 966 1044 
Q 703 1172 562 1401 
Q 422 1631 422 1909 
Q 422 2334 742 2640 
Q 1063 2947 1563 2947 
Q 1972 2947 2272 2747 
L 2878 2747 
Q 3013 2747 3034 2739 
Q 3056 2731 3066 2713 
Q 3084 2684 3084 2613 
Q 3084 2531 3069 2500 
Q 3059 2484 3036 2475 
Q 3013 2466 2878 2466 
L 2506 2466 
Q 2681 2241 2681 1891 
Q 2681 1491 2375 1206 
Q 2069 922 1553 922 
Q 1341 922 1119 984 
Q 981 866 932 777 
Q 884 688 884 625 
Q 884 572 936 522 
Q 988 472 1138 450 
Q 1225 438 1575 428 
Q 2219 413 2409 384 
Q 2700 344 2873 169 
Q 3047 -6 3047 -263 
Q 3047 -616 2716 -925 
Q 2228 -1381 1444 -1381 
Q 841 -1381 425 -1109 
Q 191 -953 191 -784 
Q 191 -709 225 -634 
Q 278 -519 444 -313 
Q 466 -284 763 25 
Q 600 122 533 198 
Q 466 275 466 372 
Q 466 481 555 628 
Q 644 775 966 1044 
z
M 1509 2797 
Q 1278 2797 1122 2612 
Q 966 2428 966 2047 
Q 966 1553 1178 1281 
Q 1341 1075 1591 1075 
Q 1828 1075 1981 1253 
Q 2134 1431 2134 1813 
Q 2134 2309 1919 2591 
Q 1759 2797 1509 2797 
z
M 934 0 
Q 788 -159 713 -296 
Q 638 -434 638 -550 
Q 638 -700 819 -813 
Q 1131 -1006 1722 -1006 
Q 2284 -1006 2551 -807 
Q 2819 -609 2819 -384 
Q 2819 -222 2659 -153 
Q 2497 -84 2016 -72 
Q 1313 -53 934 0 
z
" transform="scale(0.015625)"/>
      <path id="TimesNewRomanPSMT-6e" d="M 1034 2341 
Q 1538 2947 1994 2947 
Q 2228 2947 2397 2830 
Q 2566 2713 2666 2444 
Q 2734 2256 2734 1869 
L 2734 647 
Q 2734 375 2778 278 
Q 2813 200 2889 156 
Q 2966 113 3172 113 
L 3172 0 
L 1756 0 
L 1756 113 
L 1816 113 
Q 2016 113 2095 173 
Q 2175 234 2206 353 
Q 2219 400 2219 647 
L 2219 1819 
Q 2219 2209 2117 2386 
Q 2016 2563 1775 2563 
Q 1403 2563 1034 2156 
L 1034 647 
Q 1034 356 1069 288 
Q 1113 197 1189 155 
Q 1266 113 1500 113 
L 1500 0 
L 84 0 
L 84 113 
L 147 113 
Q 366 113 442 223 
Q 519 334 519 647 
L 519 1709 
Q 519 2225 495 2337 
Q 472 2450 423 2490 
Q 375 2531 294 2531 
Q 206 2531 84 2484 
L 38 2597 
L 900 2947 
L 1034 2947 
L 1034 2341 
z
" transform="scale(0.015625)"/>
      <path id="TimesNewRomanPSMT-76" d="M 53 2863 
L 1400 2863 
L 1400 2747 
L 1313 2747 
Q 1191 2747 1127 2687 
Q 1063 2628 1063 2528 
Q 1063 2419 1128 2269 
L 1794 688 
L 2463 2328 
Q 2534 2503 2534 2594 
Q 2534 2638 2509 2666 
Q 2475 2713 2422 2730 
Q 2369 2747 2206 2747 
L 2206 2863 
L 3141 2863 
L 3141 2747 
Q 2978 2734 2916 2681 
Q 2806 2588 2719 2369 
L 1703 -88 
L 1575 -88 
L 553 2328 
Q 484 2497 421 2570 
Q 359 2644 263 2694 
Q 209 2722 53 2747 
L 53 2863 
z
" transform="scale(0.015625)"/>
      <path id="TimesNewRomanPSMT-69" d="M 928 4444 
Q 1059 4444 1151 4351 
Q 1244 4259 1244 4128 
Q 1244 3997 1151 3903 
Q 1059 3809 928 3809 
Q 797 3809 703 3903 
Q 609 3997 609 4128 
Q 609 4259 701 4351 
Q 794 4444 928 4444 
z
M 1188 2947 
L 1188 647 
Q 1188 378 1227 289 
Q 1266 200 1342 156 
Q 1419 113 1622 113 
L 1622 0 
L 231 0 
L 231 113 
Q 441 113 512 153 
Q 584 194 626 287 
Q 669 381 669 647 
L 669 1750 
Q 669 2216 641 2353 
Q 619 2453 572 2492 
Q 525 2531 444 2531 
Q 356 2531 231 2484 
L 188 2597 
L 1050 2947 
L 1188 2947 
z
" transform="scale(0.015625)"/>
      <path id="TimesNewRomanPSMT-73" d="M 2050 2947 
L 2050 1972 
L 1947 1972 
Q 1828 2431 1642 2597 
Q 1456 2763 1169 2763 
Q 950 2763 815 2647 
Q 681 2531 681 2391 
Q 681 2216 781 2091 
Q 878 1963 1175 1819 
L 1631 1597 
Q 2266 1288 2266 781 
Q 2266 391 1970 151 
Q 1675 -88 1309 -88 
Q 1047 -88 709 6 
Q 606 38 541 38 
Q 469 38 428 -44 
L 325 -44 
L 325 978 
L 428 978 
Q 516 541 762 319 
Q 1009 97 1316 97 
Q 1531 97 1667 223 
Q 1803 350 1803 528 
Q 1803 744 1651 891 
Q 1500 1038 1047 1263 
Q 594 1488 453 1669 
Q 313 1847 313 2119 
Q 313 2472 555 2709 
Q 797 2947 1181 2947 
Q 1350 2947 1591 2875 
Q 1750 2828 1803 2828 
Q 1853 2828 1881 2850 
Q 1909 2872 1947 2947 
L 2050 2947 
z
" transform="scale(0.015625)"/>
     </defs>
     <use xlink:href="#TimesNewRomanPSMT-41"/>
     <use xlink:href="#TimesNewRomanPSMT-63" transform="translate(72.216797 0)"/>
     <use xlink:href="#TimesNewRomanPSMT-63" transform="translate(116.601562 0)"/>
     <use xlink:href="#TimesNewRomanPSMT-75" transform="translate(160.986328 0)"/>
     <use xlink:href="#TimesNewRomanPSMT-72" transform="translate(210.986328 0)"/>
     <use xlink:href="#TimesNewRomanPSMT-61" transform="translate(244.287109 0)"/>
     <use xlink:href="#TimesNewRomanPSMT-63" transform="translate(288.671875 0)"/>
     <use xlink:href="#TimesNewRomanPSMT-79" transform="translate(333.056641 0)"/>
     <use xlink:href="#TimesNewRomanPSMT-20" transform="translate(383.056641 0)"/>
     <use xlink:href="#TimesNewRomanPSMT-6f" transform="translate(408.056641 0)"/>
     <use xlink:href="#TimesNewRomanPSMT-66" transform="translate(458.056641 0)"/>
     <use xlink:href="#TimesNewRomanPSMT-20" transform="translate(491.357422 0)"/>
     <use xlink:href="#TimesNewRomanPSMT-74" transform="translate(516.357422 0)"/>
     <use xlink:href="#TimesNewRomanPSMT-68" transform="translate(544.140625 0)"/>
     <use xlink:href="#TimesNewRomanPSMT-65" transform="translate(594.140625 0)"/>
     <use xlink:href="#TimesNewRomanPSMT-20" transform="translate(638.525391 0)"/>
     <use xlink:href="#TimesNewRomanPSMT-31" transform="translate(663.525391 0)"/>
     <use xlink:href="#TimesNewRomanPSMT-38" transform="translate(713.525391 0)"/>
     <use xlink:href="#TimesNewRomanPSMT-5f" transform="translate(763.525391 0)"/>
     <use xlink:href="#TimesNewRomanPSMT-30" transform="translate(813.525391 0)"/>
     <use xlink:href="#TimesNewRomanPSMT-37" transform="translate(863.525391 0)"/>
     <use xlink:href="#TimesNewRomanPSMT-5f" transform="translate(913.525391 0)"/>
     <use xlink:href="#TimesNewRomanPSMT-32" transform="translate(963.525391 0)"/>
     <use xlink:href="#TimesNewRomanPSMT-35" transform="translate(1013.525391 0)"/>
     <use xlink:href="#TimesNewRomanPSMT-5f" transform="translate(1063.525391 0)"/>
     <use xlink:href="#TimesNewRomanPSMT-43" transform="translate(1113.525391 0)"/>
     <use xlink:href="#TimesNewRomanPSMT-49" transform="translate(1180.224609 0)"/>
     <use xlink:href="#TimesNewRomanPSMT-46" transform="translate(1213.525391 0)"/>
     <use xlink:href="#TimesNewRomanPSMT-41" transform="translate(1261.765625 0)"/>
     <use xlink:href="#TimesNewRomanPSMT-52" transform="translate(1333.982422 0)"/>
     <use xlink:href="#TimesNewRomanPSMT-31" transform="translate(1400.681641 0)"/>
     <use xlink:href="#TimesNewRomanPSMT-30" transform="translate(1450.681641 0)"/>
     <use xlink:href="#TimesNewRomanPSMT-5f" transform="translate(1500.681641 0)"/>
     <use xlink:href="#TimesNewRomanPSMT-74" transform="translate(1550.681641 0)"/>
     <use xlink:href="#TimesNewRomanPSMT-6f" transform="translate(1578.464844 0)"/>
     <use xlink:href="#TimesNewRomanPSMT-72" transform="translate(1628.464844 0)"/>
     <use xlink:href="#TimesNewRomanPSMT-63" transform="translate(1661.765625 0)"/>
     <use xlink:href="#TimesNewRomanPSMT-68" transform="translate(1706.150391 0)"/>
     <use xlink:href="#TimesNewRomanPSMT-5f" transform="translate(1756.150391 0)"/>
     <use xlink:href="#TimesNewRomanPSMT-6d" transform="translate(1806.150391 0)"/>
     <use xlink:href="#TimesNewRomanPSMT-6f" transform="translate(1883.933594 0)"/>
     <use xlink:href="#TimesNewRomanPSMT-64" transform="translate(1933.933594 0)"/>
     <use xlink:href="#TimesNewRomanPSMT-65" transform="translate(1983.933594 0)"/>
     <use xlink:href="#TimesNewRomanPSMT-6c" transform="translate(2028.318359 0)"/>
     <use xlink:href="#TimesNewRomanPSMT-5f" transform="translate(2056.101562 0)"/>
     <use xlink:href="#TimesNewRomanPSMT-28" transform="translate(2106.101562 0)"/>
     <use xlink:href="#TimesNewRomanPSMT-31" transform="translate(2139.402344 0)"/>
     <use xlink:href="#TimesNewRomanPSMT-30" transform="translate(2189.402344 0)"/>
     <use xlink:href="#TimesNewRomanPSMT-32" transform="translate(2239.402344 0)"/>
     <use xlink:href="#TimesNewRomanPSMT-34" transform="translate(2289.402344 0)"/>
     <use xlink:href="#TimesNewRomanPSMT-2b" transform="translate(2339.402344 0)"/>
     <use xlink:href="#TimesNewRomanPSMT-32" transform="translate(2395.798828 0)"/>
     <use xlink:href="#TimesNewRomanPSMT-30" transform="translate(2445.798828 0)"/>
     <use xlink:href="#TimesNewRomanPSMT-34" transform="translate(2495.798828 0)"/>
     <use xlink:href="#TimesNewRomanPSMT-38" transform="translate(2545.798828 0)"/>
     <use xlink:href="#TimesNewRomanPSMT-2d" transform="translate(2595.798828 0)"/>
     <use xlink:href="#TimesNewRomanPSMT-32" transform="translate(2629.099609 0)"/>
     <use xlink:href="#TimesNewRomanPSMT-30" transform="translate(2679.099609 0)"/>
     <use xlink:href="#TimesNewRomanPSMT-34" transform="translate(2729.099609 0)"/>
     <use xlink:href="#TimesNewRomanPSMT-38" transform="translate(2779.099609 0)"/>
     <use xlink:href="#TimesNewRomanPSMT-2e" transform="translate(2829.099609 0)"/>
     <use xlink:href="#TimesNewRomanPSMT-30" transform="translate(2854.099609 0)"/>
     <use xlink:href="#TimesNewRomanPSMT-2d" transform="translate(2904.099609 0)"/>
     <use xlink:href="#TimesNewRomanPSMT-31" transform="translate(2937.400391 0)"/>
     <use xlink:href="#TimesNewRomanPSMT-29" transform="translate(2987.400391 0)"/>
     <use xlink:href="#TimesNewRomanPSMT-5f" transform="translate(3020.701172 0)"/>
     <use xlink:href="#TimesNewRomanPSMT-63" transform="translate(3070.701172 0)"/>
     <use xlink:href="#TimesNewRomanPSMT-61" transform="translate(3115.085938 0)"/>
     <use xlink:href="#TimesNewRomanPSMT-74" transform="translate(3159.470703 0)"/>
     <use xlink:href="#TimesNewRomanPSMT-2d" transform="translate(3187.253906 0)"/>
     <use xlink:href="#TimesNewRomanPSMT-64" transform="translate(3220.554688 0)"/>
     <use xlink:href="#TimesNewRomanPSMT-6f" transform="translate(3270.554688 0)"/>
     <use xlink:href="#TimesNewRomanPSMT-67" transform="translate(3320.554688 0)"/>
     <use xlink:href="#TimesNewRomanPSMT-20" transform="translate(3370.554688 0)"/>
     <use xlink:href="#TimesNewRomanPSMT-6f" transform="translate(3395.554688 0)"/>
     <use xlink:href="#TimesNewRomanPSMT-6e" transform="translate(3445.554688 0)"/>
     <use xlink:href="#TimesNewRomanPSMT-20" transform="translate(3495.554688 0)"/>
     <use xlink:href="#TimesNewRomanPSMT-74" transform="translate(3520.554688 0)"/>
     <use xlink:href="#TimesNewRomanPSMT-68" transform="translate(3548.337891 0)"/>
     <use xlink:href="#TimesNewRomanPSMT-65" transform="translate(3598.337891 0)"/>
     <use xlink:href="#TimesNewRomanPSMT-20" transform="translate(3642.722656 0)"/>
     <use xlink:href="#TimesNewRomanPSMT-76" transform="translate(3667.722656 0)"/>
     <use xlink:href="#TimesNewRomanPSMT-61" transform="translate(3717.722656 0)"/>
     <use xlink:href="#TimesNewRomanPSMT-6c" transform="translate(3762.107422 0)"/>
     <use xlink:href="#TimesNewRomanPSMT-69" transform="translate(3789.890625 0)"/>
     <use xlink:href="#TimesNewRomanPSMT-64" transform="translate(3817.673828 0)"/>
     <use xlink:href="#TimesNewRomanPSMT-61" transform="translate(3867.673828 0)"/>
     <use xlink:href="#TimesNewRomanPSMT-74" transform="translate(3912.058594 0)"/>
     <use xlink:href="#TimesNewRomanPSMT-69" transform="translate(3939.841797 0)"/>
     <use xlink:href="#TimesNewRomanPSMT-6f" transform="translate(3967.625 0)"/>
     <use xlink:href="#TimesNewRomanPSMT-6e" transform="translate(4017.625 0)"/>
     <use xlink:href="#TimesNewRomanPSMT-20" transform="translate(4067.625 0)"/>
     <use xlink:href="#TimesNewRomanPSMT-73" transform="translate(4092.625 0)"/>
     <use xlink:href="#TimesNewRomanPSMT-65" transform="translate(4131.541016 0)"/>
     <use xlink:href="#TimesNewRomanPSMT-74" transform="translate(4175.925781 0)"/>
    </g>
   </g>
   <g id="legend_1">
    <g id="patch_7">
     <path d="M 488.082625 94.278687 
L 725.252938 94.278687 
Q 729.652938 94.278687 729.652938 89.878687 
L 729.652938 60.9315 
Q 729.652938 56.5315 725.252938 56.5315 
L 488.082625 56.5315 
Q 483.682625 56.5315 483.682625 60.9315 
L 483.682625 89.878687 
Q 483.682625 94.278687 488.082625 94.278687 
z
" style="fill: #ffffff; opacity: 0.8; stroke: #cccccc; stroke-linejoin: miter"/>
    </g>
    <g id="line2d_32">
     <path d="M 492.482625 73.0315 
L 514.482625 73.0315 
L 536.482625 73.0315 
" style="fill: none; stroke: #1f77b4; stroke-width: 1.5; stroke-linecap: square"/>
    </g>
    <g id="text_19">
     <!-- Best accuracy 0.64 -->
     <g transform="translate(554.082625 80.7315) scale(0.22 -0.22)">
      <defs>
       <path id="TimesNewRomanPSMT-42" d="M 2956 2163 
Q 3397 2069 3616 1863 
Q 3919 1575 3919 1159 
Q 3919 844 3719 555 
Q 3519 266 3170 133 
Q 2822 0 2106 0 
L 106 0 
L 106 116 
L 266 116 
Q 531 116 647 284 
Q 719 394 719 750 
L 719 3488 
Q 719 3881 628 3984 
Q 506 4122 266 4122 
L 106 4122 
L 106 4238 
L 1938 4238 
Q 2450 4238 2759 4163 
Q 3228 4050 3475 3764 
Q 3722 3478 3722 3106 
Q 3722 2788 3528 2536 
Q 3334 2284 2956 2163 
z
M 1319 2331 
Q 1434 2309 1582 2298 
Q 1731 2288 1909 2288 
Q 2366 2288 2595 2386 
Q 2825 2484 2947 2687 
Q 3069 2891 3069 3131 
Q 3069 3503 2766 3765 
Q 2463 4028 1881 4028 
Q 1569 4028 1319 3959 
L 1319 2331 
z
M 1319 306 
Q 1681 222 2034 222 
Q 2600 222 2897 476 
Q 3194 731 3194 1106 
Q 3194 1353 3059 1581 
Q 2925 1809 2622 1940 
Q 2319 2072 1872 2072 
Q 1678 2072 1540 2065 
Q 1403 2059 1319 2044 
L 1319 306 
z
" transform="scale(0.015625)"/>
      </defs>
      <use xlink:href="#TimesNewRomanPSMT-42"/>
      <use xlink:href="#TimesNewRomanPSMT-65" transform="translate(66.699219 0)"/>
      <use xlink:href="#TimesNewRomanPSMT-73" transform="translate(111.083984 0)"/>
      <use xlink:href="#TimesNewRomanPSMT-74" transform="translate(150 0)"/>
      <use xlink:href="#TimesNewRomanPSMT-20" transform="translate(177.783203 0)"/>
      <use xlink:href="#TimesNewRomanPSMT-61" transform="translate(202.783203 0)"/>
      <use xlink:href="#TimesNewRomanPSMT-63" transform="translate(247.167969 0)"/>
      <use xlink:href="#TimesNewRomanPSMT-63" transform="translate(291.552734 0)"/>
      <use xlink:href="#TimesNewRomanPSMT-75" transform="translate(335.9375 0)"/>
      <use xlink:href="#TimesNewRomanPSMT-72" transform="translate(385.9375 0)"/>
      <use xlink:href="#TimesNewRomanPSMT-61" transform="translate(419.238281 0)"/>
      <use xlink:href="#TimesNewRomanPSMT-63" transform="translate(463.623047 0)"/>
      <use xlink:href="#TimesNewRomanPSMT-79" transform="translate(508.007812 0)"/>
      <use xlink:href="#TimesNewRomanPSMT-20" transform="translate(558.007812 0)"/>
      <use xlink:href="#TimesNewRomanPSMT-30" transform="translate(583.007812 0)"/>
      <use xlink:href="#TimesNewRomanPSMT-2e" transform="translate(633.007812 0)"/>
      <use xlink:href="#TimesNewRomanPSMT-36" transform="translate(658.007812 0)"/>
      <use xlink:href="#TimesNewRomanPSMT-34" transform="translate(708.007812 0)"/>
     </g>
    </g>
   </g>
  </g>
 </g>
 <defs>
  <clipPath id="pe607945179">
   <rect x="383.532938" y="45.5315" width="357.12" height="266.112"/>
  </clipPath>
 </defs>
</svg>
