<?xml version="1.0" encoding="utf-8" standalone="no"?>
<!DOCTYPE svg PUBLIC "-//W3C//DTD SVG 1.1//EN"
  "http://www.w3.org/Graphics/SVG/1.1/DTD/svg11.dtd">
<svg xmlns:xlink="http://www.w3.org/1999/xlink" width="1118.43975pt" height="369.807875pt" viewBox="0 0 1118.43975 369.807875" xmlns="http://www.w3.org/2000/svg" version="1.1">
 <metadata>
  <rdf:RDF xmlns:dc="http://purl.org/dc/elements/1.1/" xmlns:cc="http://creativecommons.org/ns#" xmlns:rdf="http://www.w3.org/1999/02/22-rdf-syntax-ns#">
   <cc:Work>
    <dc:type rdf:resource="http://purl.org/dc/dcmitype/StillImage"/>
    <dc:date>2025-07-13T14:47:07.672842</dc:date>
    <dc:format>image/svg+xml</dc:format>
    <dc:creator>
     <cc:Agent>
      <dc:title>Matplotlib v3.10.3, https://matplotlib.org/</dc:title>
     </cc:Agent>
    </dc:creator>
   </cc:Work>
  </rdf:RDF>
 </metadata>
 <defs>
  <style type="text/css">*{stroke-linejoin: round; stroke-linecap: butt}</style>
 </defs>
 <g id="figure_1">
  <g id="patch_1">
   <path d="M 0 369.807875 
L 1118.43975 369.807875 
L 1118.43975 0 
L 0 0 
z
" style="fill: #ffffff"/>
  </g>
  <g id="axes_1">
   <g id="patch_2">
    <path d="M 380.659875 311.6435 
L 737.779875 311.6435 
L 737.779875 45.5315 
L 380.659875 45.5315 
z
" style="fill: #ffffff"/>
   </g>
   <g id="matplotlib.axis_1">
    <g id="xtick_1">
     <g id="line2d_1">
      <path d="M 380.659875 311.6435 
L 380.659875 45.5315 
" clip-path="url(#p0aedd7b6e1)" style="fill: none; stroke: #b0b0b0; stroke-opacity: 0.3; stroke-width: 0.8; stroke-linecap: square"/>
     </g>
     <g id="line2d_2">
      <defs>
       <path id="mfe93660df5" d="M 0 0 
L 0 3.5 
" style="stroke: #000000; stroke-width: 0.8"/>
      </defs>
      <g>
       <use xlink:href="#mfe93660df5" x="380.659875" y="311.6435" style="stroke: #000000; stroke-width: 0.8"/>
      </g>
     </g>
     <g id="text_1">
      <!-- 0 -->
      <g transform="translate(375.159875 333.91975) scale(0.22 -0.22)">
       <defs>
        <path id="TimesNewRomanPSMT-30" d="M 231 2094 
Q 231 2819 450 3342 
Q 669 3866 1031 4122 
Q 1313 4325 1613 4325 
Q 2100 4325 2488 3828 
Q 2972 3213 2972 2159 
Q 2972 1422 2759 906 
Q 2547 391 2217 158 
Q 1888 -75 1581 -75 
Q 975 -75 572 641 
Q 231 1244 231 2094 
z
M 844 2016 
Q 844 1141 1059 588 
Q 1238 122 1591 122 
Q 1759 122 1940 273 
Q 2122 425 2216 781 
Q 2359 1319 2359 2297 
Q 2359 3022 2209 3506 
Q 2097 3866 1919 4016 
Q 1791 4119 1609 4119 
Q 1397 4119 1231 3928 
Q 1006 3669 925 3112 
Q 844 2556 844 2016 
z
" transform="scale(0.015625)"/>
       </defs>
       <use xlink:href="#TimesNewRomanPSMT-30"/>
      </g>
     </g>
    </g>
    <g id="xtick_2">
     <g id="line2d_3">
      <path d="M 455.059875 311.6435 
L 455.059875 45.5315 
" clip-path="url(#p0aedd7b6e1)" style="fill: none; stroke: #b0b0b0; stroke-opacity: 0.3; stroke-width: 0.8; stroke-linecap: square"/>
     </g>
     <g id="line2d_4">
      <g>
       <use xlink:href="#mfe93660df5" x="455.059875" y="311.6435" style="stroke: #000000; stroke-width: 0.8"/>
      </g>
     </g>
     <g id="text_2">
      <!-- 25000 -->
      <g transform="translate(427.559875 333.91975) scale(0.22 -0.22)">
       <defs>
        <path id="TimesNewRomanPSMT-32" d="M 2934 816 
L 2638 0 
L 138 0 
L 138 116 
Q 1241 1122 1691 1759 
Q 2141 2397 2141 2925 
Q 2141 3328 1894 3587 
Q 1647 3847 1303 3847 
Q 991 3847 742 3664 
Q 494 3481 375 3128 
L 259 3128 
Q 338 3706 661 4015 
Q 984 4325 1469 4325 
Q 1984 4325 2329 3994 
Q 2675 3663 2675 3213 
Q 2675 2891 2525 2569 
Q 2294 2063 1775 1497 
Q 997 647 803 472 
L 1909 472 
Q 2247 472 2383 497 
Q 2519 522 2628 598 
Q 2738 675 2819 816 
L 2934 816 
z
" transform="scale(0.015625)"/>
        <path id="TimesNewRomanPSMT-35" d="M 2778 4238 
L 2534 3706 
L 1259 3706 
L 981 3138 
Q 1809 3016 2294 2522 
Q 2709 2097 2709 1522 
Q 2709 1188 2573 903 
Q 2438 619 2231 419 
Q 2025 219 1772 97 
Q 1413 -75 1034 -75 
Q 653 -75 479 54 
Q 306 184 306 341 
Q 306 428 378 495 
Q 450 563 559 563 
Q 641 563 702 538 
Q 763 513 909 409 
Q 1144 247 1384 247 
Q 1750 247 2026 523 
Q 2303 800 2303 1197 
Q 2303 1581 2056 1914 
Q 1809 2247 1375 2428 
Q 1034 2569 447 2591 
L 1259 4238 
L 2778 4238 
z
" transform="scale(0.015625)"/>
       </defs>
       <use xlink:href="#TimesNewRomanPSMT-32"/>
       <use xlink:href="#TimesNewRomanPSMT-35" transform="translate(50 0)"/>
       <use xlink:href="#TimesNewRomanPSMT-30" transform="translate(100 0)"/>
       <use xlink:href="#TimesNewRomanPSMT-30" transform="translate(150 0)"/>
       <use xlink:href="#TimesNewRomanPSMT-30" transform="translate(200 0)"/>
      </g>
     </g>
    </g>
    <g id="xtick_3">
     <g id="line2d_5">
      <path d="M 529.459875 311.6435 
L 529.459875 45.5315 
" clip-path="url(#p0aedd7b6e1)" style="fill: none; stroke: #b0b0b0; stroke-opacity: 0.3; stroke-width: 0.8; stroke-linecap: square"/>
     </g>
     <g id="line2d_6">
      <g>
       <use xlink:href="#mfe93660df5" x="529.459875" y="311.6435" style="stroke: #000000; stroke-width: 0.8"/>
      </g>
     </g>
     <g id="text_3">
      <!-- 50000 -->
      <g transform="translate(501.959875 333.91975) scale(0.22 -0.22)">
       <use xlink:href="#TimesNewRomanPSMT-35"/>
       <use xlink:href="#TimesNewRomanPSMT-30" transform="translate(50 0)"/>
       <use xlink:href="#TimesNewRomanPSMT-30" transform="translate(100 0)"/>
       <use xlink:href="#TimesNewRomanPSMT-30" transform="translate(150 0)"/>
       <use xlink:href="#TimesNewRomanPSMT-30" transform="translate(200 0)"/>
      </g>
     </g>
    </g>
    <g id="xtick_4">
     <g id="line2d_7">
      <path d="M 603.859875 311.6435 
L 603.859875 45.5315 
" clip-path="url(#p0aedd7b6e1)" style="fill: none; stroke: #b0b0b0; stroke-opacity: 0.3; stroke-width: 0.8; stroke-linecap: square"/>
     </g>
     <g id="line2d_8">
      <g>
       <use xlink:href="#mfe93660df5" x="603.859875" y="311.6435" style="stroke: #000000; stroke-width: 0.8"/>
      </g>
     </g>
     <g id="text_4">
      <!-- 75000 -->
      <g transform="translate(576.359875 333.91975) scale(0.22 -0.22)">
       <defs>
        <path id="TimesNewRomanPSMT-37" d="M 644 4238 
L 2916 4238 
L 2916 4119 
L 1503 -88 
L 1153 -88 
L 2419 3728 
L 1253 3728 
Q 900 3728 750 3644 
Q 488 3500 328 3200 
L 238 3234 
L 644 4238 
z
" transform="scale(0.015625)"/>
       </defs>
       <use xlink:href="#TimesNewRomanPSMT-37"/>
       <use xlink:href="#TimesNewRomanPSMT-35" transform="translate(50 0)"/>
       <use xlink:href="#TimesNewRomanPSMT-30" transform="translate(100 0)"/>
       <use xlink:href="#TimesNewRomanPSMT-30" transform="translate(150 0)"/>
       <use xlink:href="#TimesNewRomanPSMT-30" transform="translate(200 0)"/>
      </g>
     </g>
    </g>
    <g id="xtick_5">
     <g id="line2d_9">
      <path d="M 678.259875 311.6435 
L 678.259875 45.5315 
" clip-path="url(#p0aedd7b6e1)" style="fill: none; stroke: #b0b0b0; stroke-opacity: 0.3; stroke-width: 0.8; stroke-linecap: square"/>
     </g>
     <g id="line2d_10">
      <g>
       <use xlink:href="#mfe93660df5" x="678.259875" y="311.6435" style="stroke: #000000; stroke-width: 0.8"/>
      </g>
     </g>
     <g id="text_5">
      <!-- 100000 -->
      <g transform="translate(645.259875 333.91975) scale(0.22 -0.22)">
       <defs>
        <path id="TimesNewRomanPSMT-31" d="M 750 3822 
L 1781 4325 
L 1884 4325 
L 1884 747 
Q 1884 391 1914 303 
Q 1944 216 2037 169 
Q 2131 122 2419 116 
L 2419 0 
L 825 0 
L 825 116 
Q 1125 122 1212 167 
Q 1300 213 1334 289 
Q 1369 366 1369 747 
L 1369 3034 
Q 1369 3497 1338 3628 
Q 1316 3728 1258 3775 
Q 1200 3822 1119 3822 
Q 1003 3822 797 3725 
L 750 3822 
z
" transform="scale(0.015625)"/>
       </defs>
       <use xlink:href="#TimesNewRomanPSMT-31"/>
       <use xlink:href="#TimesNewRomanPSMT-30" transform="translate(50 0)"/>
       <use xlink:href="#TimesNewRomanPSMT-30" transform="translate(100 0)"/>
       <use xlink:href="#TimesNewRomanPSMT-30" transform="translate(150 0)"/>
       <use xlink:href="#TimesNewRomanPSMT-30" transform="translate(200 0)"/>
       <use xlink:href="#TimesNewRomanPSMT-30" transform="translate(250 0)"/>
      </g>
     </g>
    </g>
    <g id="text_6">
     <!-- Number of iterations -->
     <g transform="translate(467.577844 357.901937) scale(0.22 -0.22)">
      <defs>
       <path id="TimesNewRomanPSMT-4e" d="M -84 4238 
L 1066 4238 
L 3656 1059 
L 3656 3503 
Q 3656 3894 3569 3991 
Q 3453 4122 3203 4122 
L 3056 4122 
L 3056 4238 
L 4531 4238 
L 4531 4122 
L 4381 4122 
Q 4113 4122 4000 3959 
Q 3931 3859 3931 3503 
L 3931 -69 
L 3819 -69 
L 1025 3344 
L 1025 734 
Q 1025 344 1109 247 
Q 1228 116 1475 116 
L 1625 116 
L 1625 0 
L 150 0 
L 150 116 
L 297 116 
Q 569 116 681 278 
Q 750 378 750 734 
L 750 3681 
Q 566 3897 470 3965 
Q 375 4034 191 4094 
Q 100 4122 -84 4122 
L -84 4238 
z
" transform="scale(0.015625)"/>
       <path id="TimesNewRomanPSMT-75" d="M 2709 2863 
L 2709 1128 
Q 2709 631 2732 520 
Q 2756 409 2807 365 
Q 2859 322 2928 322 
Q 3025 322 3147 375 
L 3191 266 
L 2334 -88 
L 2194 -88 
L 2194 519 
Q 1825 119 1631 15 
Q 1438 -88 1222 -88 
Q 981 -88 804 51 
Q 628 191 559 409 
Q 491 628 491 1028 
L 491 2306 
Q 491 2509 447 2587 
Q 403 2666 317 2708 
Q 231 2750 6 2747 
L 6 2863 
L 1009 2863 
L 1009 947 
Q 1009 547 1148 422 
Q 1288 297 1484 297 
Q 1619 297 1789 381 
Q 1959 466 2194 703 
L 2194 2325 
Q 2194 2569 2105 2655 
Q 2016 2741 1734 2747 
L 1734 2863 
L 2709 2863 
z
" transform="scale(0.015625)"/>
       <path id="TimesNewRomanPSMT-6d" d="M 1050 2338 
Q 1363 2650 1419 2697 
Q 1559 2816 1721 2881 
Q 1884 2947 2044 2947 
Q 2313 2947 2506 2790 
Q 2700 2634 2766 2338 
Q 3088 2713 3309 2830 
Q 3531 2947 3766 2947 
Q 3994 2947 4170 2830 
Q 4347 2713 4450 2447 
Q 4519 2266 4519 1878 
L 4519 647 
Q 4519 378 4559 278 
Q 4591 209 4675 161 
Q 4759 113 4950 113 
L 4950 0 
L 3538 0 
L 3538 113 
L 3597 113 
Q 3781 113 3884 184 
Q 3956 234 3988 344 
Q 4000 397 4000 647 
L 4000 1878 
Q 4000 2228 3916 2372 
Q 3794 2572 3525 2572 
Q 3359 2572 3192 2489 
Q 3025 2406 2788 2181 
L 2781 2147 
L 2788 2013 
L 2788 647 
Q 2788 353 2820 281 
Q 2853 209 2943 161 
Q 3034 113 3253 113 
L 3253 0 
L 1806 0 
L 1806 113 
Q 2044 113 2133 169 
Q 2222 225 2256 338 
Q 2272 391 2272 647 
L 2272 1878 
Q 2272 2228 2169 2381 
Q 2031 2581 1784 2581 
Q 1616 2581 1450 2491 
Q 1191 2353 1050 2181 
L 1050 647 
Q 1050 366 1089 281 
Q 1128 197 1204 155 
Q 1281 113 1516 113 
L 1516 0 
L 100 0 
L 100 113 
Q 297 113 375 155 
Q 453 197 493 289 
Q 534 381 534 647 
L 534 1741 
Q 534 2213 506 2350 
Q 484 2453 437 2492 
Q 391 2531 309 2531 
Q 222 2531 100 2484 
L 53 2597 
L 916 2947 
L 1050 2947 
L 1050 2338 
z
" transform="scale(0.015625)"/>
       <path id="TimesNewRomanPSMT-62" d="M 984 2369 
Q 1400 2947 1881 2947 
Q 2322 2947 2650 2570 
Q 2978 2194 2978 1541 
Q 2978 778 2472 313 
Q 2038 -88 1503 -88 
Q 1253 -88 995 3 
Q 738 94 469 275 
L 469 3241 
Q 469 3728 445 3840 
Q 422 3953 372 3993 
Q 322 4034 247 4034 
Q 159 4034 28 3984 
L -16 4094 
L 844 4444 
L 984 4444 
L 984 2369 
z
M 984 2169 
L 984 456 
Q 1144 300 1314 220 
Q 1484 141 1663 141 
Q 1947 141 2192 453 
Q 2438 766 2438 1363 
Q 2438 1913 2192 2208 
Q 1947 2503 1634 2503 
Q 1469 2503 1303 2419 
Q 1178 2356 984 2169 
z
" transform="scale(0.015625)"/>
       <path id="TimesNewRomanPSMT-65" d="M 681 1784 
Q 678 1147 991 784 
Q 1303 422 1725 422 
Q 2006 422 2214 576 
Q 2422 731 2563 1106 
L 2659 1044 
Q 2594 616 2278 264 
Q 1963 -88 1488 -88 
Q 972 -88 605 314 
Q 238 716 238 1394 
Q 238 2128 614 2539 
Q 991 2950 1559 2950 
Q 2041 2950 2350 2633 
Q 2659 2316 2659 1784 
L 681 1784 
z
M 681 1966 
L 2006 1966 
Q 1991 2241 1941 2353 
Q 1863 2528 1708 2628 
Q 1553 2728 1384 2728 
Q 1125 2728 920 2526 
Q 716 2325 681 1966 
z
" transform="scale(0.015625)"/>
       <path id="TimesNewRomanPSMT-72" d="M 1038 2947 
L 1038 2303 
Q 1397 2947 1775 2947 
Q 1947 2947 2059 2842 
Q 2172 2738 2172 2600 
Q 2172 2478 2090 2393 
Q 2009 2309 1897 2309 
Q 1788 2309 1652 2417 
Q 1516 2525 1450 2525 
Q 1394 2525 1328 2463 
Q 1188 2334 1038 2041 
L 1038 669 
Q 1038 431 1097 309 
Q 1138 225 1241 169 
Q 1344 113 1538 113 
L 1538 0 
L 72 0 
L 72 113 
Q 291 113 397 181 
Q 475 231 506 341 
Q 522 394 522 644 
L 522 1753 
Q 522 2253 501 2348 
Q 481 2444 426 2487 
Q 372 2531 291 2531 
Q 194 2531 72 2484 
L 41 2597 
L 906 2947 
L 1038 2947 
z
" transform="scale(0.015625)"/>
       <path id="TimesNewRomanPSMT-20" transform="scale(0.015625)"/>
       <path id="TimesNewRomanPSMT-6f" d="M 1600 2947 
Q 2250 2947 2644 2453 
Q 2978 2031 2978 1484 
Q 2978 1100 2793 706 
Q 2609 313 2286 112 
Q 1963 -88 1566 -88 
Q 919 -88 538 428 
Q 216 863 216 1403 
Q 216 1797 411 2186 
Q 606 2575 925 2761 
Q 1244 2947 1600 2947 
z
M 1503 2744 
Q 1338 2744 1170 2645 
Q 1003 2547 900 2300 
Q 797 2053 797 1666 
Q 797 1041 1045 587 
Q 1294 134 1700 134 
Q 2003 134 2200 384 
Q 2397 634 2397 1244 
Q 2397 2006 2069 2444 
Q 1847 2744 1503 2744 
z
" transform="scale(0.015625)"/>
       <path id="TimesNewRomanPSMT-66" d="M 1319 2638 
L 1319 756 
Q 1319 356 1406 250 
Q 1522 113 1716 113 
L 1975 113 
L 1975 0 
L 266 0 
L 266 113 
L 394 113 
Q 519 113 622 175 
Q 725 238 764 344 
Q 803 450 803 756 
L 803 2638 
L 247 2638 
L 247 2863 
L 803 2863 
L 803 3050 
Q 803 3478 940 3775 
Q 1078 4072 1361 4255 
Q 1644 4438 1997 4438 
Q 2325 4438 2600 4225 
Q 2781 4084 2781 3909 
Q 2781 3816 2700 3733 
Q 2619 3650 2525 3650 
Q 2453 3650 2373 3701 
Q 2294 3753 2178 3923 
Q 2063 4094 1966 4153 
Q 1869 4213 1750 4213 
Q 1606 4213 1506 4136 
Q 1406 4059 1362 3898 
Q 1319 3738 1319 3069 
L 1319 2863 
L 2056 2863 
L 2056 2638 
L 1319 2638 
z
" transform="scale(0.015625)"/>
       <path id="TimesNewRomanPSMT-69" d="M 928 4444 
Q 1059 4444 1151 4351 
Q 1244 4259 1244 4128 
Q 1244 3997 1151 3903 
Q 1059 3809 928 3809 
Q 797 3809 703 3903 
Q 609 3997 609 4128 
Q 609 4259 701 4351 
Q 794 4444 928 4444 
z
M 1188 2947 
L 1188 647 
Q 1188 378 1227 289 
Q 1266 200 1342 156 
Q 1419 113 1622 113 
L 1622 0 
L 231 0 
L 231 113 
Q 441 113 512 153 
Q 584 194 626 287 
Q 669 381 669 647 
L 669 1750 
Q 669 2216 641 2353 
Q 619 2453 572 2492 
Q 525 2531 444 2531 
Q 356 2531 231 2484 
L 188 2597 
L 1050 2947 
L 1188 2947 
z
" transform="scale(0.015625)"/>
       <path id="TimesNewRomanPSMT-74" d="M 1031 3803 
L 1031 2863 
L 1700 2863 
L 1700 2644 
L 1031 2644 
L 1031 788 
Q 1031 509 1111 412 
Q 1191 316 1316 316 
Q 1419 316 1516 380 
Q 1613 444 1666 569 
L 1788 569 
Q 1678 263 1478 108 
Q 1278 -47 1066 -47 
Q 922 -47 784 33 
Q 647 113 581 261 
Q 516 409 516 719 
L 516 2644 
L 63 2644 
L 63 2747 
Q 234 2816 414 2980 
Q 594 3144 734 3369 
Q 806 3488 934 3803 
L 1031 3803 
z
" transform="scale(0.015625)"/>
       <path id="TimesNewRomanPSMT-61" d="M 1822 413 
Q 1381 72 1269 19 
Q 1100 -59 909 -59 
Q 613 -59 420 144 
Q 228 347 228 678 
Q 228 888 322 1041 
Q 450 1253 767 1440 
Q 1084 1628 1822 1897 
L 1822 2009 
Q 1822 2438 1686 2597 
Q 1550 2756 1291 2756 
Q 1094 2756 978 2650 
Q 859 2544 859 2406 
L 866 2225 
Q 866 2081 792 2003 
Q 719 1925 600 1925 
Q 484 1925 411 2006 
Q 338 2088 338 2228 
Q 338 2497 613 2722 
Q 888 2947 1384 2947 
Q 1766 2947 2009 2819 
Q 2194 2722 2281 2516 
Q 2338 2381 2338 1966 
L 2338 994 
Q 2338 584 2353 492 
Q 2369 400 2405 369 
Q 2441 338 2488 338 
Q 2538 338 2575 359 
Q 2641 400 2828 588 
L 2828 413 
Q 2478 -56 2159 -56 
Q 2006 -56 1915 50 
Q 1825 156 1822 413 
z
M 1822 616 
L 1822 1706 
Q 1350 1519 1213 1441 
Q 966 1303 859 1153 
Q 753 1003 753 825 
Q 753 600 887 451 
Q 1022 303 1197 303 
Q 1434 303 1822 616 
z
" transform="scale(0.015625)"/>
       <path id="TimesNewRomanPSMT-6e" d="M 1034 2341 
Q 1538 2947 1994 2947 
Q 2228 2947 2397 2830 
Q 2566 2713 2666 2444 
Q 2734 2256 2734 1869 
L 2734 647 
Q 2734 375 2778 278 
Q 2813 200 2889 156 
Q 2966 113 3172 113 
L 3172 0 
L 1756 0 
L 1756 113 
L 1816 113 
Q 2016 113 2095 173 
Q 2175 234 2206 353 
Q 2219 400 2219 647 
L 2219 1819 
Q 2219 2209 2117 2386 
Q 2016 2563 1775 2563 
Q 1403 2563 1034 2156 
L 1034 647 
Q 1034 356 1069 288 
Q 1113 197 1189 155 
Q 1266 113 1500 113 
L 1500 0 
L 84 0 
L 84 113 
L 147 113 
Q 366 113 442 223 
Q 519 334 519 647 
L 519 1709 
Q 519 2225 495 2337 
Q 472 2450 423 2490 
Q 375 2531 294 2531 
Q 206 2531 84 2484 
L 38 2597 
L 900 2947 
L 1034 2947 
L 1034 2341 
z
" transform="scale(0.015625)"/>
       <path id="TimesNewRomanPSMT-73" d="M 2050 2947 
L 2050 1972 
L 1947 1972 
Q 1828 2431 1642 2597 
Q 1456 2763 1169 2763 
Q 950 2763 815 2647 
Q 681 2531 681 2391 
Q 681 2216 781 2091 
Q 878 1963 1175 1819 
L 1631 1597 
Q 2266 1288 2266 781 
Q 2266 391 1970 151 
Q 1675 -88 1309 -88 
Q 1047 -88 709 6 
Q 606 38 541 38 
Q 469 38 428 -44 
L 325 -44 
L 325 978 
L 428 978 
Q 516 541 762 319 
Q 1009 97 1316 97 
Q 1531 97 1667 223 
Q 1803 350 1803 528 
Q 1803 744 1651 891 
Q 1500 1038 1047 1263 
Q 594 1488 453 1669 
Q 313 1847 313 2119 
Q 313 2472 555 2709 
Q 797 2947 1181 2947 
Q 1350 2947 1591 2875 
Q 1750 2828 1803 2828 
Q 1853 2828 1881 2850 
Q 1909 2872 1947 2947 
L 2050 2947 
z
" transform="scale(0.015625)"/>
      </defs>
      <use xlink:href="#TimesNewRomanPSMT-4e"/>
      <use xlink:href="#TimesNewRomanPSMT-75" transform="translate(72.216797 0)"/>
      <use xlink:href="#TimesNewRomanPSMT-6d" transform="translate(122.216797 0)"/>
      <use xlink:href="#TimesNewRomanPSMT-62" transform="translate(200 0)"/>
      <use xlink:href="#TimesNewRomanPSMT-65" transform="translate(250 0)"/>
      <use xlink:href="#TimesNewRomanPSMT-72" transform="translate(294.384766 0)"/>
      <use xlink:href="#TimesNewRomanPSMT-20" transform="translate(327.685547 0)"/>
      <use xlink:href="#TimesNewRomanPSMT-6f" transform="translate(352.685547 0)"/>
      <use xlink:href="#TimesNewRomanPSMT-66" transform="translate(402.685547 0)"/>
      <use xlink:href="#TimesNewRomanPSMT-20" transform="translate(435.986328 0)"/>
      <use xlink:href="#TimesNewRomanPSMT-69" transform="translate(460.986328 0)"/>
      <use xlink:href="#TimesNewRomanPSMT-74" transform="translate(488.769531 0)"/>
      <use xlink:href="#TimesNewRomanPSMT-65" transform="translate(516.552734 0)"/>
      <use xlink:href="#TimesNewRomanPSMT-72" transform="translate(560.9375 0)"/>
      <use xlink:href="#TimesNewRomanPSMT-61" transform="translate(594.238281 0)"/>
      <use xlink:href="#TimesNewRomanPSMT-74" transform="translate(638.623047 0)"/>
      <use xlink:href="#TimesNewRomanPSMT-69" transform="translate(666.40625 0)"/>
      <use xlink:href="#TimesNewRomanPSMT-6f" transform="translate(694.189453 0)"/>
      <use xlink:href="#TimesNewRomanPSMT-6e" transform="translate(744.189453 0)"/>
      <use xlink:href="#TimesNewRomanPSMT-73" transform="translate(794.189453 0)"/>
     </g>
    </g>
   </g>
   <g id="matplotlib.axis_2">
    <g id="ytick_1">
     <g id="line2d_11">
      <path d="M 380.659875 311.6435 
L 737.779875 311.6435 
" clip-path="url(#p0aedd7b6e1)" style="fill: none; stroke: #b0b0b0; stroke-opacity: 0.3; stroke-width: 0.8; stroke-linecap: square"/>
     </g>
     <g id="line2d_12">
      <defs>
       <path id="md026c05780" d="M 0 0 
L -3.5 0 
" style="stroke: #000000; stroke-width: 0.8"/>
      </defs>
      <g>
       <use xlink:href="#md026c05780" x="380.659875" y="311.6435" style="stroke: #000000; stroke-width: 0.8"/>
      </g>
     </g>
     <g id="text_7">
      <!-- 0.0 -->
      <g transform="translate(346.159875 319.281625) scale(0.22 -0.22)">
       <defs>
        <path id="TimesNewRomanPSMT-2e" d="M 800 606 
Q 947 606 1047 504 
Q 1147 403 1147 259 
Q 1147 116 1045 14 
Q 944 -88 800 -88 
Q 656 -88 554 14 
Q 453 116 453 259 
Q 453 406 554 506 
Q 656 606 800 606 
z
" transform="scale(0.015625)"/>
       </defs>
       <use xlink:href="#TimesNewRomanPSMT-30"/>
       <use xlink:href="#TimesNewRomanPSMT-2e" transform="translate(50 0)"/>
       <use xlink:href="#TimesNewRomanPSMT-30" transform="translate(75 0)"/>
      </g>
     </g>
    </g>
    <g id="ytick_2">
     <g id="line2d_13">
      <path d="M 380.659875 285.0323 
L 737.779875 285.0323 
" clip-path="url(#p0aedd7b6e1)" style="fill: none; stroke: #b0b0b0; stroke-opacity: 0.3; stroke-width: 0.8; stroke-linecap: square"/>
     </g>
     <g id="line2d_14">
      <g>
       <use xlink:href="#md026c05780" x="380.659875" y="285.0323" style="stroke: #000000; stroke-width: 0.8"/>
      </g>
     </g>
     <g id="text_8">
      <!-- 0.1 -->
      <g transform="translate(346.159875 292.670425) scale(0.22 -0.22)">
       <use xlink:href="#TimesNewRomanPSMT-30"/>
       <use xlink:href="#TimesNewRomanPSMT-2e" transform="translate(50 0)"/>
       <use xlink:href="#TimesNewRomanPSMT-31" transform="translate(75 0)"/>
      </g>
     </g>
    </g>
    <g id="ytick_3">
     <g id="line2d_15">
      <path d="M 380.659875 258.4211 
L 737.779875 258.4211 
" clip-path="url(#p0aedd7b6e1)" style="fill: none; stroke: #b0b0b0; stroke-opacity: 0.3; stroke-width: 0.8; stroke-linecap: square"/>
     </g>
     <g id="line2d_16">
      <g>
       <use xlink:href="#md026c05780" x="380.659875" y="258.4211" style="stroke: #000000; stroke-width: 0.8"/>
      </g>
     </g>
     <g id="text_9">
      <!-- 0.2 -->
      <g transform="translate(346.159875 266.059225) scale(0.22 -0.22)">
       <use xlink:href="#TimesNewRomanPSMT-30"/>
       <use xlink:href="#TimesNewRomanPSMT-2e" transform="translate(50 0)"/>
       <use xlink:href="#TimesNewRomanPSMT-32" transform="translate(75 0)"/>
      </g>
     </g>
    </g>
    <g id="ytick_4">
     <g id="line2d_17">
      <path d="M 380.659875 231.8099 
L 737.779875 231.8099 
" clip-path="url(#p0aedd7b6e1)" style="fill: none; stroke: #b0b0b0; stroke-opacity: 0.3; stroke-width: 0.8; stroke-linecap: square"/>
     </g>
     <g id="line2d_18">
      <g>
       <use xlink:href="#md026c05780" x="380.659875" y="231.8099" style="stroke: #000000; stroke-width: 0.8"/>
      </g>
     </g>
     <g id="text_10">
      <!-- 0.3 -->
      <g transform="translate(346.159875 239.448025) scale(0.22 -0.22)">
       <defs>
        <path id="TimesNewRomanPSMT-33" d="M 325 3431 
Q 506 3859 782 4092 
Q 1059 4325 1472 4325 
Q 1981 4325 2253 3994 
Q 2459 3747 2459 3466 
Q 2459 3003 1878 2509 
Q 2269 2356 2469 2072 
Q 2669 1788 2669 1403 
Q 2669 853 2319 450 
Q 1863 -75 997 -75 
Q 569 -75 414 31 
Q 259 138 259 259 
Q 259 350 332 419 
Q 406 488 509 488 
Q 588 488 669 463 
Q 722 447 909 348 
Q 1097 250 1169 231 
Q 1284 197 1416 197 
Q 1734 197 1970 444 
Q 2206 691 2206 1028 
Q 2206 1275 2097 1509 
Q 2016 1684 1919 1775 
Q 1784 1900 1550 2001 
Q 1316 2103 1072 2103 
L 972 2103 
L 972 2197 
Q 1219 2228 1467 2375 
Q 1716 2522 1828 2728 
Q 1941 2934 1941 3181 
Q 1941 3503 1739 3701 
Q 1538 3900 1238 3900 
Q 753 3900 428 3381 
L 325 3431 
z
" transform="scale(0.015625)"/>
       </defs>
       <use xlink:href="#TimesNewRomanPSMT-30"/>
       <use xlink:href="#TimesNewRomanPSMT-2e" transform="translate(50 0)"/>
       <use xlink:href="#TimesNewRomanPSMT-33" transform="translate(75 0)"/>
      </g>
     </g>
    </g>
    <g id="ytick_5">
     <g id="line2d_19">
      <path d="M 380.659875 205.1987 
L 737.779875 205.1987 
" clip-path="url(#p0aedd7b6e1)" style="fill: none; stroke: #b0b0b0; stroke-opacity: 0.3; stroke-width: 0.8; stroke-linecap: square"/>
     </g>
     <g id="line2d_20">
      <g>
       <use xlink:href="#md026c05780" x="380.659875" y="205.1987" style="stroke: #000000; stroke-width: 0.8"/>
      </g>
     </g>
     <g id="text_11">
      <!-- 0.4 -->
      <g transform="translate(346.159875 212.836825) scale(0.22 -0.22)">
       <defs>
        <path id="TimesNewRomanPSMT-34" d="M 2978 1563 
L 2978 1119 
L 2409 1119 
L 2409 0 
L 1894 0 
L 1894 1119 
L 100 1119 
L 100 1519 
L 2066 4325 
L 2409 4325 
L 2409 1563 
L 2978 1563 
z
M 1894 1563 
L 1894 3666 
L 406 1563 
L 1894 1563 
z
" transform="scale(0.015625)"/>
       </defs>
       <use xlink:href="#TimesNewRomanPSMT-30"/>
       <use xlink:href="#TimesNewRomanPSMT-2e" transform="translate(50 0)"/>
       <use xlink:href="#TimesNewRomanPSMT-34" transform="translate(75 0)"/>
      </g>
     </g>
    </g>
    <g id="ytick_6">
     <g id="line2d_21">
      <path d="M 380.659875 178.5875 
L 737.779875 178.5875 
" clip-path="url(#p0aedd7b6e1)" style="fill: none; stroke: #b0b0b0; stroke-opacity: 0.3; stroke-width: 0.8; stroke-linecap: square"/>
     </g>
     <g id="line2d_22">
      <g>
       <use xlink:href="#md026c05780" x="380.659875" y="178.5875" style="stroke: #000000; stroke-width: 0.8"/>
      </g>
     </g>
     <g id="text_12">
      <!-- 0.5 -->
      <g transform="translate(346.159875 186.225625) scale(0.22 -0.22)">
       <use xlink:href="#TimesNewRomanPSMT-30"/>
       <use xlink:href="#TimesNewRomanPSMT-2e" transform="translate(50 0)"/>
       <use xlink:href="#TimesNewRomanPSMT-35" transform="translate(75 0)"/>
      </g>
     </g>
    </g>
    <g id="ytick_7">
     <g id="line2d_23">
      <path d="M 380.659875 151.9763 
L 737.779875 151.9763 
" clip-path="url(#p0aedd7b6e1)" style="fill: none; stroke: #b0b0b0; stroke-opacity: 0.3; stroke-width: 0.8; stroke-linecap: square"/>
     </g>
     <g id="line2d_24">
      <g>
       <use xlink:href="#md026c05780" x="380.659875" y="151.9763" style="stroke: #000000; stroke-width: 0.8"/>
      </g>
     </g>
     <g id="text_13">
      <!-- 0.6 -->
      <g transform="translate(346.159875 159.614425) scale(0.22 -0.22)">
       <defs>
        <path id="TimesNewRomanPSMT-36" d="M 2869 4325 
L 2869 4209 
Q 2456 4169 2195 4045 
Q 1934 3922 1679 3669 
Q 1425 3416 1258 3105 
Q 1091 2794 978 2366 
Q 1428 2675 1881 2675 
Q 2316 2675 2634 2325 
Q 2953 1975 2953 1425 
Q 2953 894 2631 456 
Q 2244 -75 1606 -75 
Q 1172 -75 869 213 
Q 275 772 275 1663 
Q 275 2231 503 2743 
Q 731 3256 1154 3653 
Q 1578 4050 1965 4187 
Q 2353 4325 2688 4325 
L 2869 4325 
z
M 925 2138 
Q 869 1716 869 1456 
Q 869 1156 980 804 
Q 1091 453 1309 247 
Q 1469 100 1697 100 
Q 1969 100 2183 356 
Q 2397 613 2397 1088 
Q 2397 1622 2184 2012 
Q 1972 2403 1581 2403 
Q 1463 2403 1327 2353 
Q 1191 2303 925 2138 
z
" transform="scale(0.015625)"/>
       </defs>
       <use xlink:href="#TimesNewRomanPSMT-30"/>
       <use xlink:href="#TimesNewRomanPSMT-2e" transform="translate(50 0)"/>
       <use xlink:href="#TimesNewRomanPSMT-36" transform="translate(75 0)"/>
      </g>
     </g>
    </g>
    <g id="ytick_8">
     <g id="line2d_25">
      <path d="M 380.659875 125.3651 
L 737.779875 125.3651 
" clip-path="url(#p0aedd7b6e1)" style="fill: none; stroke: #b0b0b0; stroke-opacity: 0.3; stroke-width: 0.8; stroke-linecap: square"/>
     </g>
     <g id="line2d_26">
      <g>
       <use xlink:href="#md026c05780" x="380.659875" y="125.3651" style="stroke: #000000; stroke-width: 0.8"/>
      </g>
     </g>
     <g id="text_14">
      <!-- 0.7 -->
      <g transform="translate(346.159875 133.003225) scale(0.22 -0.22)">
       <use xlink:href="#TimesNewRomanPSMT-30"/>
       <use xlink:href="#TimesNewRomanPSMT-2e" transform="translate(50 0)"/>
       <use xlink:href="#TimesNewRomanPSMT-37" transform="translate(75 0)"/>
      </g>
     </g>
    </g>
    <g id="ytick_9">
     <g id="line2d_27">
      <path d="M 380.659875 98.7539 
L 737.779875 98.7539 
" clip-path="url(#p0aedd7b6e1)" style="fill: none; stroke: #b0b0b0; stroke-opacity: 0.3; stroke-width: 0.8; stroke-linecap: square"/>
     </g>
     <g id="line2d_28">
      <g>
       <use xlink:href="#md026c05780" x="380.659875" y="98.7539" style="stroke: #000000; stroke-width: 0.8"/>
      </g>
     </g>
     <g id="text_15">
      <!-- 0.8 -->
      <g transform="translate(346.159875 106.392025) scale(0.22 -0.22)">
       <defs>
        <path id="TimesNewRomanPSMT-38" d="M 1228 2134 
Q 725 2547 579 2797 
Q 434 3047 434 3316 
Q 434 3728 753 4026 
Q 1072 4325 1600 4325 
Q 2113 4325 2425 4047 
Q 2738 3769 2738 3413 
Q 2738 3175 2569 2928 
Q 2400 2681 1866 2347 
Q 2416 1922 2594 1678 
Q 2831 1359 2831 1006 
Q 2831 559 2490 242 
Q 2150 -75 1597 -75 
Q 994 -75 656 303 
Q 388 606 388 966 
Q 388 1247 577 1523 
Q 766 1800 1228 2134 
z
M 1719 2469 
Q 2094 2806 2194 3001 
Q 2294 3197 2294 3444 
Q 2294 3772 2109 3958 
Q 1925 4144 1606 4144 
Q 1288 4144 1088 3959 
Q 888 3775 888 3528 
Q 888 3366 970 3203 
Q 1053 3041 1206 2894 
L 1719 2469 
z
M 1375 2016 
Q 1116 1797 991 1539 
Q 866 1281 866 981 
Q 866 578 1086 336 
Q 1306 94 1647 94 
Q 1984 94 2187 284 
Q 2391 475 2391 747 
Q 2391 972 2272 1150 
Q 2050 1481 1375 2016 
z
" transform="scale(0.015625)"/>
       </defs>
       <use xlink:href="#TimesNewRomanPSMT-30"/>
       <use xlink:href="#TimesNewRomanPSMT-2e" transform="translate(50 0)"/>
       <use xlink:href="#TimesNewRomanPSMT-38" transform="translate(75 0)"/>
      </g>
     </g>
    </g>
    <g id="ytick_10">
     <g id="line2d_29">
      <path d="M 380.659875 72.1427 
L 737.779875 72.1427 
" clip-path="url(#p0aedd7b6e1)" style="fill: none; stroke: #b0b0b0; stroke-opacity: 0.3; stroke-width: 0.8; stroke-linecap: square"/>
     </g>
     <g id="line2d_30">
      <g>
       <use xlink:href="#md026c05780" x="380.659875" y="72.1427" style="stroke: #000000; stroke-width: 0.8"/>
      </g>
     </g>
     <g id="text_16">
      <!-- 0.9 -->
      <g transform="translate(346.159875 79.780825) scale(0.22 -0.22)">
       <defs>
        <path id="TimesNewRomanPSMT-39" d="M 338 -88 
L 338 28 
Q 744 34 1094 217 
Q 1444 400 1770 856 
Q 2097 1313 2225 1859 
Q 1734 1544 1338 1544 
Q 891 1544 572 1889 
Q 253 2234 253 2806 
Q 253 3363 572 3797 
Q 956 4325 1575 4325 
Q 2097 4325 2469 3894 
Q 2925 3359 2925 2575 
Q 2925 1869 2578 1258 
Q 2231 647 1613 244 
Q 1109 -88 516 -88 
L 338 -88 
z
M 2275 2091 
Q 2331 2497 2331 2741 
Q 2331 3044 2228 3395 
Q 2125 3747 1936 3934 
Q 1747 4122 1506 4122 
Q 1228 4122 1018 3872 
Q 809 3622 809 3128 
Q 809 2469 1088 2097 
Q 1291 1828 1588 1828 
Q 1731 1828 1928 1897 
Q 2125 1966 2275 2091 
z
" transform="scale(0.015625)"/>
       </defs>
       <use xlink:href="#TimesNewRomanPSMT-30"/>
       <use xlink:href="#TimesNewRomanPSMT-2e" transform="translate(50 0)"/>
       <use xlink:href="#TimesNewRomanPSMT-39" transform="translate(75 0)"/>
      </g>
     </g>
    </g>
    <g id="ytick_11">
     <g id="line2d_31">
      <path d="M 380.659875 45.5315 
L 737.779875 45.5315 
" clip-path="url(#p0aedd7b6e1)" style="fill: none; stroke: #b0b0b0; stroke-opacity: 0.3; stroke-width: 0.8; stroke-linecap: square"/>
     </g>
     <g id="line2d_32">
      <g>
       <use xlink:href="#md026c05780" x="380.659875" y="45.5315" style="stroke: #000000; stroke-width: 0.8"/>
      </g>
     </g>
     <g id="text_17">
      <!-- 1.0 -->
      <g transform="translate(346.159875 53.169625) scale(0.22 -0.22)">
       <use xlink:href="#TimesNewRomanPSMT-31"/>
       <use xlink:href="#TimesNewRomanPSMT-2e" transform="translate(50 0)"/>
       <use xlink:href="#TimesNewRomanPSMT-30" transform="translate(75 0)"/>
      </g>
     </g>
    </g>
    <g id="text_18">
     <!-- Accuracy -->
     <g transform="translate(337.412688 220.726094) rotate(-90) scale(0.22 -0.22)">
      <defs>
       <path id="TimesNewRomanPSMT-41" d="M 2928 1419 
L 1288 1419 
L 1000 750 
Q 894 503 894 381 
Q 894 284 986 211 
Q 1078 138 1384 116 
L 1384 0 
L 50 0 
L 50 116 
Q 316 163 394 238 
Q 553 388 747 847 
L 2238 4334 
L 2347 4334 
L 3822 809 
Q 4000 384 4145 257 
Q 4291 131 4550 116 
L 4550 0 
L 2878 0 
L 2878 116 
Q 3131 128 3220 200 
Q 3309 272 3309 375 
Q 3309 513 3184 809 
L 2928 1419 
z
M 2841 1650 
L 2122 3363 
L 1384 1650 
L 2841 1650 
z
" transform="scale(0.015625)"/>
       <path id="TimesNewRomanPSMT-63" d="M 2631 1088 
Q 2516 522 2178 217 
Q 1841 -88 1431 -88 
Q 944 -88 581 321 
Q 219 731 219 1428 
Q 219 2103 620 2525 
Q 1022 2947 1584 2947 
Q 2006 2947 2278 2723 
Q 2550 2500 2550 2259 
Q 2550 2141 2473 2067 
Q 2397 1994 2259 1994 
Q 2075 1994 1981 2113 
Q 1928 2178 1911 2362 
Q 1894 2547 1784 2644 
Q 1675 2738 1481 2738 
Q 1169 2738 978 2506 
Q 725 2200 725 1697 
Q 725 1184 976 792 
Q 1228 400 1656 400 
Q 1963 400 2206 609 
Q 2378 753 2541 1131 
L 2631 1088 
z
" transform="scale(0.015625)"/>
       <path id="TimesNewRomanPSMT-79" d="M 38 2863 
L 1372 2863 
L 1372 2747 
L 1306 2747 
Q 1166 2747 1095 2686 
Q 1025 2625 1025 2534 
Q 1025 2413 1128 2197 
L 1825 753 
L 2466 2334 
Q 2519 2463 2519 2588 
Q 2519 2644 2497 2672 
Q 2472 2706 2419 2726 
Q 2366 2747 2231 2747 
L 2231 2863 
L 3163 2863 
L 3163 2747 
Q 3047 2734 2984 2696 
Q 2922 2659 2847 2556 
Q 2819 2513 2741 2316 
L 1575 -541 
Q 1406 -956 1132 -1168 
Q 859 -1381 606 -1381 
Q 422 -1381 303 -1275 
Q 184 -1169 184 -1031 
Q 184 -900 270 -820 
Q 356 -741 506 -741 
Q 609 -741 788 -809 
Q 913 -856 944 -856 
Q 1038 -856 1148 -759 
Q 1259 -663 1372 -384 
L 1575 113 
L 547 2272 
Q 500 2369 397 2513 
Q 319 2622 269 2659 
Q 197 2709 38 2747 
L 38 2863 
z
" transform="scale(0.015625)"/>
      </defs>
      <use xlink:href="#TimesNewRomanPSMT-41"/>
      <use xlink:href="#TimesNewRomanPSMT-63" transform="translate(72.216797 0)"/>
      <use xlink:href="#TimesNewRomanPSMT-63" transform="translate(116.601562 0)"/>
      <use xlink:href="#TimesNewRomanPSMT-75" transform="translate(160.986328 0)"/>
      <use xlink:href="#TimesNewRomanPSMT-72" transform="translate(210.986328 0)"/>
      <use xlink:href="#TimesNewRomanPSMT-61" transform="translate(244.287109 0)"/>
      <use xlink:href="#TimesNewRomanPSMT-63" transform="translate(288.671875 0)"/>
      <use xlink:href="#TimesNewRomanPSMT-79" transform="translate(333.056641 0)"/>
     </g>
    </g>
   </g>
   <g id="line2d_33">
    <path d="M 380.659875 161.807655 
L 380.808687 110.152359 
L 381.136075 92.884646 
L 381.225362 91.007087 
L 381.403937 88.183342 
L 381.433699 88.597295 
L 381.463462 87.917233 
L 381.493224 88.153776 
L 381.552749 88.479016 
L 381.642037 87.178023 
L 381.701562 87.118891 
L 381.761087 87.591977 
L 381.850374 86.231852 
L 381.909899 86.468395 
L 381.939662 86.660589 
L 382.058712 85.99531 
L 382.088474 86.290984 
L 382.147999 85.803116 
L 382.177761 85.670053 
L 382.237286 86.364899 
L 382.296811 86.246635 
L 382.415861 85.537007 
L 382.475386 85.655271 
L 382.534911 85.537007 
L 382.564674 86.143139 
L 382.594436 85.33003 
L 382.683724 85.655271 
L 382.713486 85.655271 
L 382.743249 85.847464 
L 382.862299 84.916077 
L 383.040873 85.980527 
L 382.921823 84.886511 
L 383.070636 85.625705 
L 383.130161 85.743984 
L 383.159923 85.211751 
L 383.189686 85.936162 
L 383.249211 85.10827 
L 383.368261 85.714402 
L 383.398023 85.684836 
L 383.487311 85.270883 
L 383.517073 85.47786 
L 383.546836 85.492642 
L 383.576598 85.359596 
L 383.636123 85.123053 
L 383.695648 86.113573 
L 383.72541 85.004774 
L 383.814698 85.226534 
L 383.933748 85.522224 
L 383.96351 85.33003 
L 383.993273 85.936162 
L 384.023035 85.270883 
L 384.052798 85.699619 
L 384.112323 85.2561 
L 384.142085 85.492642 
L 384.20161 86.069224 
L 384.231373 85.507441 
L 384.261135 85.566573 
L 384.32066 85.285666 
L 384.350423 85.684836 
L 384.380185 85.950961 
L 384.409948 85.522224 
L 384.43971 85.655271 
L 384.469472 85.433511 
L 384.499235 85.670053 
L 384.528997 85.463077 
L 384.648047 85.803116 
L 384.707572 85.507441 
L 384.737335 85.699619 
L 384.767097 85.862247 
L 384.79686 85.729201 
L 384.886147 85.743984 
L 384.91591 85.315247 
L 385.005197 86.335333 
L 385.03496 85.640488 
L 385.064722 85.463077 
L 385.094485 85.950961 
L 385.124247 86.010093 
L 385.15401 85.817899 
L 385.183772 86.172721 
L 385.213534 86.290984 
L 385.243297 85.714402 
L 385.332584 85.832682 
L 385.481397 86.024875 
L 385.511159 86.424046 
L 385.570684 85.862247 
L 385.689734 85.980527 
L 385.749259 86.645806 
L 385.779022 85.965744 
L 385.838547 86.010093 
L 385.868309 85.699619 
L 385.957596 86.335333 
L 386.017121 86.246635 
L 386.195696 85.803116 
L 386.255221 85.950961 
L 386.284984 86.32055 
L 386.344509 85.921379 
L 386.374271 86.202286 
L 386.523084 85.87703 
L 386.552846 85.921379 
L 386.582609 85.906596 
L 386.612371 85.99531 
L 386.820708 86.61624 
L 386.909996 86.024875 
L 386.939758 86.069224 
L 387.029046 86.231852 
L 387.088571 85.862247 
L 387.118333 86.09879 
L 387.148096 86.379682 
L 387.207621 86.32055 
L 387.326671 86.084007 
L 387.386196 86.261418 
L 387.415958 85.965744 
L 387.44572 86.054441 
L 387.475483 86.497961 
L 387.56477 86.172721 
L 387.594533 86.32055 
L 387.624295 86.157922 
L 387.654058 86.202286 
L 387.68382 86.172721 
L 387.713583 86.231852 
L 387.743345 86.808418 
L 387.80287 86.39448 
L 387.832633 86.09879 
L 387.892158 86.483178 
L 387.92192 86.54231 
L 387.951683 86.335333 
L 388.04097 86.483178 
L 388.130258 86.113573 
L 388.16002 86.350116 
L 388.189782 86.335333 
L 388.219545 86.512744 
L 388.27907 86.424046 
L 388.308832 86.276201 
L 388.338595 86.335333 
L 388.368357 86.690155 
L 388.457645 86.54231 
L 388.487407 86.172721 
L 388.546932 86.764069 
L 388.665982 86.217069 
L 388.695745 86.379682 
L 388.725507 86.497961 
L 388.75527 86.113573 
L 388.814795 86.32055 
L 389.023132 87.030178 
L 389.112419 86.39448 
L 389.142182 86.808418 
L 389.231469 86.39448 
L 389.261232 86.94148 
L 389.350519 86.808418 
L 389.410044 86.32055 
L 389.439807 86.838 
L 389.469569 86.645806 
L 389.499332 86.690155 
L 389.529094 86.468395 
L 389.558857 86.897132 
L 389.588619 86.867566 
L 389.618382 86.364899 
L 389.707669 86.438829 
L 389.826719 86.838 
L 389.975531 86.54231 
L 390.035056 86.660589 
L 390.094581 86.246635 
L 390.213631 86.690155 
L 390.332681 86.61624 
L 390.421969 86.94148 
L 390.541018 86.39448 
L 390.630306 86.631023 
L 390.660068 86.39448 
L 390.719593 86.675372 
L 390.749356 86.453612 
L 390.868406 86.956263 
L 390.898168 86.231852 
L 390.987456 86.749287 
L 391.017218 86.483178 
L 391.046981 86.808418 
L 391.076743 86.586658 
L 391.106506 86.778852 
L 391.166031 86.468395 
L 391.195793 86.690155 
L 391.225555 86.335333 
L 391.255318 86.793635 
L 391.314843 86.557093 
L 391.344605 86.838 
L 391.374368 86.497961 
L 391.433893 86.719721 
L 391.52318 86.557093 
L 391.493418 86.793635 
L 391.582705 86.601457 
L 391.64223 86.512744 
L 391.671993 86.852783 
L 391.731518 86.971046 
L 391.791043 86.438829 
L 391.850568 86.852783 
L 391.910093 86.571876 
L 392.029142 87.015395 
L 392.058905 86.586658 
L 392.148192 86.778852 
L 392.177955 87.000612 
L 392.207717 86.852783 
L 392.297005 86.527527 
L 392.326767 86.719721 
L 392.386292 86.852783 
L 392.416055 86.61624 
L 392.445817 86.586658 
L 392.47558 86.867566 
L 392.505342 86.497961 
L 392.535105 86.497961 
L 392.59463 86.764069 
L 392.624392 86.557093 
L 392.654155 86.409263 
L 392.713679 86.675372 
L 392.743442 86.497961 
L 392.802967 86.971046 
L 392.922017 86.897132 
L 393.070829 86.379682 
L 393.100592 86.512744 
L 393.189879 86.926698 
L 393.279167 86.497961 
L 393.308929 86.527527 
L 393.368454 86.734504 
L 393.398217 86.527527 
L 393.427979 86.527527 
L 393.457741 86.808418 
L 393.487504 86.468395 
L 393.547029 86.675372 
L 393.576791 86.808418 
L 393.606554 86.586658 
L 393.636316 86.719721 
L 393.695841 86.54231 
L 393.755366 86.61624 
L 393.785129 86.867566 
L 393.844654 86.734504 
L 393.933941 86.527527 
L 393.904179 86.749287 
L 393.963704 86.557093 
L 393.993466 86.852783 
L 394.023229 86.497961 
L 394.052991 86.808418 
L 394.082754 86.453612 
L 394.172041 86.645806 
L 394.201803 86.719721 
L 394.261328 86.675372 
L 394.350616 86.379682 
L 394.320853 86.734504 
L 394.380378 86.527527 
L 394.439903 86.660589 
L 394.469666 86.557093 
L 394.529191 86.335333 
L 394.558953 86.453612 
L 394.588716 86.808418 
L 394.618478 86.364899 
L 394.648241 86.586658 
L 394.767291 86.527527 
L 394.856578 86.749287 
L 394.826816 86.32055 
L 394.886341 86.601457 
L 394.916103 86.631023 
L 394.975628 86.379682 
L 395.00539 86.660589 
L 395.035153 86.438829 
L 395.064915 86.749287 
L 395.12444 86.39448 
L 395.154203 86.601457 
L 395.183965 86.764069 
L 395.213728 86.54231 
L 395.273253 86.645806 
L 395.303015 86.660589 
L 395.332778 86.867566 
L 395.36254 86.54231 
L 395.392303 86.571876 
L 395.422065 86.512744 
L 395.451828 86.94148 
L 395.511353 86.867566 
L 395.541115 86.557093 
L 395.570878 87.05976 
L 395.60064 86.867566 
L 395.71969 86.571876 
L 395.749452 86.586658 
L 395.779215 86.823217 
L 395.83874 86.571876 
L 395.868502 86.675372 
L 395.928027 86.571876 
L 395.95779 86.852783 
L 395.987552 86.645806 
L 396.017315 86.350116 
L 396.047077 86.808418 
L 396.07684 86.571876 
L 396.106602 86.749287 
L 396.166127 86.557093 
L 396.225652 86.645806 
L 396.255415 86.453612 
L 396.374465 86.867566 
L 396.43399 86.483178 
L 396.493514 86.586658 
L 396.523277 86.838 
L 396.553039 86.527527 
L 396.612564 86.778852 
L 396.761377 86.512744 
L 396.791139 86.557093 
L 396.880427 86.512744 
L 396.910189 86.808418 
L 396.999477 86.586658 
L 397.029239 86.793635 
L 397.148289 86.557093 
L 397.178052 86.704938 
L 397.207814 86.704938 
L 397.237576 86.867566 
L 397.297101 86.734504 
L 397.564964 86.497961 
L 397.624489 86.645806 
L 397.654251 86.631023 
L 397.743539 86.379682 
L 397.862589 86.690155 
L 397.892351 86.335333 
L 397.951876 86.586658 
L 398.011401 86.631023 
L 398.041163 86.586658 
L 398.070926 86.453612 
L 398.100688 86.852783 
L 398.160213 86.497961 
L 398.338788 86.690155 
L 398.368551 86.645806 
L 398.457838 86.512744 
L 398.487601 86.660589 
L 398.517363 86.453612 
L 398.576888 86.571876 
L 398.636413 86.601457 
L 398.666176 86.704938 
L 398.695938 86.39448 
L 398.7257 86.793635 
L 398.755463 86.675372 
L 398.785225 86.808418 
L 398.814988 86.527527 
L 398.84475 86.32055 
L 398.874513 86.660589 
L 398.904275 86.838 
L 398.934038 86.483178 
L 398.9638 86.557093 
L 399.08285 86.54231 
L 399.142375 86.719721 
L 399.172138 86.61624 
L 399.231663 86.497961 
L 399.291188 86.557093 
L 399.32095 86.54231 
L 399.350713 86.631023 
L 399.44 86.660589 
L 399.55905 86.468395 
L 399.588812 86.719721 
L 399.6781 86.557093 
L 399.707862 86.734504 
L 399.79715 86.645806 
L 399.826912 86.54231 
L 399.856675 91.834979 
L 399.9162 88.065062 
L 400.005487 86.911915 
L 400.03525 87.266737 
L 400.065012 86.985829 
L 400.094775 87.325868 
L 400.1543 87.030178 
L 400.184062 87.089326 
L 400.243587 87.044977 
L 400.332874 86.867566 
L 400.303112 87.133674 
L 400.362637 86.956263 
L 400.541212 86.882349 
L 400.660262 87.030178 
L 400.779312 86.897132 
L 400.957887 87.104109 
L 401.076936 86.808418 
L 401.106699 86.838 
L 401.225749 86.882349 
L 401.344799 86.867566 
L 401.374561 86.808418 
L 401.404324 86.838 
L 401.434086 86.956263 
L 401.463849 86.793635 
L 401.493611 86.852783 
L 401.523374 86.704938 
L 401.612661 86.749287 
L 401.701949 86.823217 
L 401.791236 86.631023 
L 401.820998 86.719721 
L 401.910286 86.808418 
L 401.940048 86.601457 
L 401.969811 86.838 
L 402.029336 86.690155 
L 402.088861 86.61624 
L 402.118623 86.734504 
L 402.148386 86.675372 
L 402.297198 86.645806 
L 402.326961 86.734504 
L 402.386486 86.660589 
L 402.624585 86.660589 
L 402.80316 86.704938 
L 402.832923 86.571876 
L 402.862685 86.764069 
L 402.92221 86.631023 
L 402.981735 86.527527 
L 403.011498 86.675372 
L 403.130548 86.54231 
L 403.309122 86.645806 
L 403.487697 86.527527 
L 403.51746 86.645806 
L 403.606747 86.601457 
L 403.87461 86.497961 
L 403.993659 86.601457 
L 404.112709 86.512744 
L 404.172234 86.468395 
L 404.231759 86.601457 
L 404.321047 86.497961 
L 404.380572 86.571876 
L 404.440097 86.645806 
L 404.618672 86.483178 
L 404.648434 86.61624 
L 404.737721 86.557093 
L 404.827009 86.512744 
L 404.886534 86.557093 
L 404.946059 86.483178 
L 405.094871 86.586658 
L 405.154396 86.497961 
L 405.184159 86.571876 
L 405.273446 86.512744 
L 405.303209 86.571876 
L 405.332971 86.586658 
L 405.362734 86.512744 
L 405.481783 86.468395 
L 405.600833 86.61624 
L 405.749646 86.468395 
L 405.868696 86.557093 
L 405.898458 86.468395 
L 405.957983 86.557093 
L 406.017508 86.424046 
L 406.047271 86.497961 
L 406.136558 86.453612 
L 408.100882 86.527527 
L 408.279457 86.838 
L 408.309219 86.497961 
L 408.398507 86.601457 
L 408.428269 86.54231 
L 408.487794 86.660589 
L 408.577081 86.468395 
L 408.606844 86.690155 
L 408.696131 86.61624 
L 408.725894 86.497961 
L 408.785419 86.527527 
L 408.844944 86.645806 
L 408.904469 86.571876 
L 409.023519 86.54231 
L 409.053281 86.675372 
L 409.112806 86.497961 
L 409.291381 86.631023 
L 409.469956 86.497961 
L 409.618768 86.631023 
L 409.737818 86.571876 
L 409.827106 86.601457 
L 409.946156 86.527527 
L 409.975918 86.631023 
L 410.065205 86.586658 
L 410.154493 86.645806 
L 410.184255 86.527527 
L 410.24378 86.61624 
L 410.392593 86.704938 
L 410.422355 86.557093 
L 410.511643 86.645806 
L 410.630693 86.631023 
L 410.779505 86.453612 
L 410.809267 86.54231 
L 411.106892 86.61624 
L 411.166417 86.704938 
L 411.225942 86.557093 
L 411.374755 86.734504 
L 411.43428 86.557093 
L 411.493804 86.645806 
L 411.612854 86.645806 
L 411.672379 86.512744 
L 411.731904 86.571876 
L 411.850954 86.675372 
L 412.118817 86.571876 
L 412.267629 86.527527 
L 412.356916 86.631023 
L 412.386679 86.512744 
L 412.446204 86.690155 
L 412.595016 86.512744 
L 412.654541 86.571876 
L 412.684304 86.61624 
L 412.714066 86.512744 
L 412.743829 86.527527 
L 412.803354 86.512744 
L 412.922404 86.631023 
L 413.011691 86.527527 
L 413.041453 86.61624 
L 413.100978 86.660589 
L 413.190266 86.497961 
L 413.309316 86.675372 
L 413.339078 86.350116 
L 413.398603 86.61624 
L 413.428366 86.601457 
L 413.458128 86.675372 
L 413.487891 86.704938 
L 413.517653 86.61624 
L 413.547416 86.586658 
L 413.577178 86.704938 
L 413.606941 86.675372 
L 413.84504 86.512744 
L 413.874803 86.675372 
L 413.934328 86.601457 
L 414.08314 86.483178 
L 414.112903 86.601457 
L 414.172428 86.527527 
L 414.231953 86.586658 
L 414.261715 86.453612 
L 414.351003 86.571876 
L 414.380765 86.54231 
L 414.529577 86.468395 
L 414.55934 86.557093 
L 414.589102 86.601457 
L 414.648627 86.512744 
L 414.886727 86.601457 
L 414.91649 86.497961 
L 414.976015 86.586658 
L 415.005777 86.601457 
L 415.03554 86.512744 
L 415.184352 86.557093 
L 415.362927 86.527527 
L 415.630789 86.527527 
L 415.660552 86.645806 
L 415.720077 86.512744 
L 416.017701 86.586658 
L 416.136751 86.453612 
L 416.285564 86.61624 
L 416.374851 86.660589 
L 416.434376 86.527527 
L 416.464139 86.497961 
L 416.493901 86.586658 
L 416.523664 86.61624 
L 416.553426 86.571876 
L 416.672476 86.557093 
L 416.999863 86.557093 
L 417.059388 86.690155 
L 417.089151 86.601457 
L 417.148676 86.527527 
L 417.178438 86.586658 
L 417.208201 86.690155 
L 417.237963 86.512744 
L 417.267726 86.61624 
L 417.297488 86.468395 
L 417.357013 86.690155 
L 417.535588 86.557093 
L 417.714163 86.631023 
L 417.892738 86.512744 
L 418.011788 86.601457 
L 418.101075 86.54231 
L 418.130838 86.675372 
L 418.1606 86.497961 
L 418.220125 86.631023 
L 418.309412 86.527527 
L 418.368937 86.61624 
L 418.458225 86.631023 
L 418.607037 86.512744 
L 418.75585 86.690155 
L 418.8749 86.424046 
L 418.99395 86.631023 
L 419.023712 86.527527 
L 419.083237 86.54231 
L 419.112999 86.704938 
L 419.202287 86.631023 
L 419.232049 86.61624 
L 419.261812 86.690155 
L 419.291574 92.559406 
L 419.351099 87.207589 
L 419.410624 86.497961 
L 419.470149 87.104109 
L 419.589199 86.645806 
L 419.648724 86.734504 
L 419.976111 86.631023 
L 420.005874 86.749287 
L 420.095161 86.690155 
L 420.273736 86.61624 
L 420.422549 86.660589 
L 420.541598 86.61624 
L 420.571361 86.719721 
L 420.660648 86.645806 
L 420.779698 86.601457 
L 420.928511 86.61624 
L 420.958273 86.54231 
L 421.017798 86.61624 
L 421.166611 86.571876 
L 422.386872 86.645806 
L 422.446397 86.734504 
L 422.505922 86.645806 
L 422.535685 86.571876 
L 422.59521 86.675372 
L 422.803547 86.675372 
L 422.922597 86.704938 
L 422.952359 86.571876 
L 423.041647 86.675372 
L 423.607134 86.586658 
L 423.785709 86.497961 
L 423.845234 86.61624 
L 423.904759 86.571876 
L 424.053571 86.571876 
L 424.261909 86.483178 
L 424.380958 86.527527 
L 424.500008 86.512744 
L 424.619058 86.512744 
L 424.886921 86.483178 
L 425.005971 86.571876 
L 425.273833 86.453612 
L 425.422645 86.512744 
L 425.60122 86.453612 
L 425.750033 86.557093 
L 425.869082 86.483178 
L 425.898845 86.512744 
L 426.017895 86.557093 
L 426.136945 86.54231 
L 426.464332 86.468395 
L 426.642907 86.527527 
L 426.672669 86.438829 
L 426.732194 86.497961 
L 426.821482 86.557093 
L 426.851244 86.497961 
L 427.089344 86.557093 
L 427.119107 86.497961 
L 427.178632 86.601457 
L 427.327444 86.601457 
L 427.357206 86.483178 
L 427.446494 86.527527 
L 427.565544 86.483178 
L 427.625069 86.586658 
L 427.684594 86.527527 
L 428.488181 86.586658 
L 428.517943 86.897132 
L 428.547706 86.61624 
L 428.577468 86.010093 
L 428.666756 86.290984 
L 428.726281 86.187504 
L 428.756043 86.276201 
L 428.904855 86.483178 
L 429.053668 86.364899 
L 429.20248 86.483178 
L 429.351293 86.409263 
L 431.315616 86.468395 
L 431.345379 86.527527 
L 431.404904 86.453612 
L 433.16089 86.468395 
L 433.190653 86.601457 
L 433.250178 86.527527 
L 433.39899 86.438829 
L 433.666852 86.571876 
L 433.99424 86.527527 
L 434.024002 86.557093 
L 434.053764 86.453612 
L 434.083527 86.468395 
L 434.381152 86.512744 
L 434.529964 86.512744 
L 434.678777 86.557093 
L 434.797826 86.497961 
L 434.827589 86.527527 
L 434.916876 86.601457 
L 434.946639 86.468395 
L 435.006164 86.497961 
L 435.095451 86.586658 
L 435.125214 86.54231 
L 441.494385 86.571876 
L 441.524147 86.675372 
L 441.583672 86.54231 
L 441.643197 86.586658 
L 441.672959 86.631023 
L 441.732484 86.586658 
L 441.792009 86.557093 
L 441.821772 86.631023 
L 442.178922 86.557093 
L 442.327734 86.601457 
L 442.446784 86.527527 
L 442.655121 86.61624 
L 442.803934 86.571876 
L 442.893221 86.660589 
L 442.922984 86.631023 
L 443.131321 86.571876 
L 443.161083 86.601457 
L 443.190846 86.468395 
L 443.250371 86.557093 
L 443.399183 86.675372 
L 443.726571 86.54231 
L 443.815858 86.719721 
L 443.84562 86.631023 
L 444.024195 86.61624 
L 444.143245 86.675372 
L 444.32182 86.61624 
L 444.500395 86.704938 
L 444.649207 86.601457 
L 444.738495 86.690155 
L 444.768257 86.719721 
L 444.79802 86.601457 
L 444.857545 86.571876 
L 444.91707 86.483178 
L 444.946832 86.61624 
L 445.27422 86.660589 
L 445.303982 86.734504 
L 445.333744 86.631023 
L 445.363507 86.660589 
L 445.393269 86.586658 
L 445.452794 86.690155 
L 445.631369 86.690155 
L 445.750419 86.557093 
L 445.839707 86.660589 
L 445.869469 86.601457 
L 446.018282 86.527527 
L 446.137331 86.61624 
L 446.167094 86.468395 
L 446.226619 86.645806 
L 446.286144 86.631023 
L 446.315906 86.719721 
L 446.345669 86.54231 
L 446.405194 86.645806 
L 446.434956 86.586658 
L 446.494481 86.645806 
L 446.524244 86.719721 
L 446.583769 86.601457 
L 447.059968 86.690155 
L 447.089731 86.719721 
L 447.119493 92.588972 
L 447.179018 87.784171 
L 447.208781 86.808418 
L 447.238543 88.035496 
L 447.268306 87.429349 
L 447.298068 87.82852 
L 447.357593 87.178023 
L 447.387356 87.16324 
L 447.417118 87.340651 
L 447.476643 87.05976 
L 447.536168 87.192806 
L 447.595693 87.104109 
L 447.625455 87.030178 
L 447.68498 87.16324 
L 447.744505 87.237155 
L 447.774268 87.044977 
L 447.863555 87.133674 
L 447.893318 87.222372 
L 447.982605 87.16324 
L 448.101655 87.133674 
L 448.39928 87.104109 
L 450.542179 87.000612 
L 450.690991 87.000612 
L 452.863652 86.956263 
L 452.893414 86.882349 
L 452.952939 86.911915 
L 453.042227 86.971046 
L 453.071989 86.926698 
L 453.280327 86.926698 
L 453.369614 86.956263 
L 453.518427 86.956263 
L 454.560113 86.956263 
L 454.649401 86.808418 
L 454.679163 86.838 
L 454.708926 86.94148 
L 454.768451 86.882349 
L 454.827976 86.808418 
L 454.887501 86.852783 
L 454.917263 86.94148 
L 454.976788 86.808418 
L 459.262585 86.734504 
L 459.381635 86.719721 
L 463.101945 86.675372 
L 463.191233 86.557093 
L 463.220995 86.601457 
L 463.607907 86.719721 
L 463.75672 86.675372 
L 463.87577 86.734504 
L 463.905532 86.631023 
L 464.232919 86.734504 
L 464.262682 86.852783 
L 464.322207 86.704938 
L 464.768644 86.778852 
L 464.857932 86.838 
L 464.976981 86.778852 
L 465.155556 86.749287 
L 465.185319 86.882349 
L 465.274606 86.778852 
L 465.304369 86.852783 
L 465.334131 86.793635 
L 465.363894 86.660589 
L 465.453181 86.734504 
L 465.929381 86.808418 
L 465.959143 86.867566 
L 466.048431 86.808418 
L 466.197243 86.764069 
L 466.286531 86.734504 
L 466.316293 86.764069 
L 466.494868 86.734504 
L 466.822255 86.808418 
L 466.88178 86.749287 
L 466.941305 86.808418 
L 467.149642 86.704938 
L 467.179405 86.793635 
L 467.23893 86.734504 
L 467.417505 86.690155 
L 467.625842 86.764069 
L 467.71513 86.719721 
L 467.744892 86.749287 
L 467.893704 86.764069 
L 467.982992 86.690155 
L 468.012754 86.734504 
L 468.072279 86.660589 
L 468.131804 86.749287 
L 468.161567 86.704938 
L 468.221092 86.749287 
L 468.310379 86.749287 
L 468.429429 86.719721 
L 468.667529 86.719721 
L 470.006841 86.749287 
L 470.036603 86.838 
L 470.096128 86.764069 
L 470.185415 86.690155 
L 470.215178 86.704938 
L 470.334228 86.764069 
L 470.453278 86.764069 
L 470.72114 86.734504 
L 470.869953 86.734504 
L 470.929477 86.778852 
L 471.018765 86.660589 
L 471.167577 86.793635 
L 471.19734 86.690155 
L 471.286627 86.734504 
L 471.375915 86.764069 
L 471.494965 86.749287 
L 471.643777 86.749287 
L 471.762827 86.719721 
L 471.852114 86.808418 
L 471.881877 86.704938 
L 471.971164 86.778852 
L 472.119977 86.690155 
L 472.417601 86.719721 
L 475.066462 86.808418 
L 475.15575 86.926698 
L 475.304562 86.734504 
L 475.334325 86.852783 
L 475.423612 86.808418 
L 475.602187 86.734504 
L 475.691474 86.867566 
L 475.721237 86.778852 
L 475.750999 86.734504 
L 475.780762 86.823217 
L 475.810524 86.852783 
L 475.840287 86.793635 
L 475.959337 86.808418 
L 476.256961 86.838 
L 476.346249 86.808418 
L 476.376011 86.838 
L 476.435536 86.852783 
L 476.465299 86.764069 
L 476.554586 86.838 
L 476.762924 86.823217 
L 476.911736 86.867566 
L 477.090311 86.808418 
L 477.209361 86.897132 
L 477.239123 86.838 
L 477.358173 86.823217 
L 477.596273 86.823217 
L 477.655798 86.749287 
L 477.715323 86.778852 
L 477.953423 86.867566 
L 478.012948 86.926698 
L 478.04271 86.852783 
L 478.16176 86.838 
L 478.28081 86.94148 
L 478.310573 86.911915 
L 478.39986 86.808418 
L 478.429622 86.867566 
L 478.63796 86.793635 
L 478.667722 86.882349 
L 478.75701 86.838 
L 478.786772 86.793635 
L 478.846297 86.838 
L 478.99511 86.867566 
L 479.203447 86.852783 
L 479.322497 86.882349 
L 479.352259 86.734504 
L 479.441547 86.823217 
L 479.471309 86.897132 
L 479.560597 86.823217 
L 479.739172 86.911915 
L 479.858222 86.823217 
L 479.887984 86.838 
L 480.126084 86.852783 
L 480.274896 86.823217 
L 480.512996 86.852783 
L 480.632046 86.823217 
L 480.751096 86.897132 
L 480.810621 86.808418 
L 480.870146 86.838 
L 481.495158 86.764069 
L 481.52492 102.272488 
L 481.584445 89.366055 
L 481.703495 86.645806 
L 481.733258 86.911915 
L 481.76302 86.586658 
L 481.852308 86.778852 
L 481.971358 86.571876 
L 482.00112 86.645806 
L 482.090408 86.586658 
L 482.149933 86.645806 
L 482.179695 86.571876 
L 482.328507 86.512744 
L 482.447557 86.586658 
L 482.507082 86.645806 
L 482.536845 86.54231 
L 482.685657 86.54231 
L 482.83447 86.61624 
L 482.953519 86.631023 
L 483.072569 86.631023 
L 483.519007 86.527527 
L 484.292831 86.61624 
L 484.411881 86.61624 
L 484.649981 86.61624 
L 484.888081 86.645806 
L 485.007131 86.660589 
L 486.703592 86.586658 
L 486.822642 86.557093 
L 487.030979 86.571876 
L 487.150029 86.601457 
L 487.269079 86.512744 
L 487.417892 86.512744 
L 487.536941 86.453612 
L 489.709602 86.557093 
L 490.007227 86.601457 
L 490.126277 86.557093 
L 490.15604 86.601457 
L 490.423902 86.586658 
L 490.662002 86.586658 
L 491.346539 86.675372 
L 491.465589 86.704938 
L 491.822739 86.645806 
L 494.828749 86.749287 
L 495.007324 86.749287 
L 495.156136 86.734504 
L 496.733548 86.823217 
L 496.822835 86.926698 
L 496.852598 94.185639 
L 496.912123 87.680674 
L 496.941885 88.005931 
L 497.031173 86.187504 
L 497.090698 86.335333 
L 497.12046 86.911915 
L 497.150223 86.261418 
L 497.179985 86.39448 
L 497.35856 86.335333 
L 497.47761 86.246635 
L 497.626422 86.364899 
L 497.656185 86.335333 
L 497.83476 86.261418 
L 498.191909 86.335333 
L 498.281197 86.290984 
L 498.400247 86.364899 
L 498.727634 86.305767 
L 499.055021 86.350116 
L 499.144309 86.290984 
L 499.174071 86.350116 
L 499.412171 86.350116 
L 500.275283 86.453612 
L 500.424095 86.468395 
L 500.662195 86.453612 
L 500.691958 86.483178 
L 500.751483 86.409263 
L 500.900295 86.424046 
L 501.07887 86.497961 
L 501.227682 86.497961 
L 501.525307 86.438829 
L 501.733644 86.497961 
L 502.031269 86.438829 
L 502.209844 86.497961 
L 502.358657 86.483178 
L 502.566994 86.483178 
L 502.686044 86.468395 
L 502.805094 86.468395 
L 502.983669 86.453612 
L 503.102719 86.483178 
L 503.251531 86.527527 
L 503.489631 86.54231 
L 503.817018 86.483178 
L 504.114643 86.512744 
L 504.44203 86.468395 
L 504.650368 86.453612 
L 504.828942 86.453612 
L 505.007517 86.497961 
L 505.186092 86.438829 
L 505.424192 86.438829 
L 512.537425 86.54231 
L 512.567187 86.571876 
L 512.626712 86.497961 
L 514.233886 86.557093 
L 514.323174 86.61624 
L 514.352936 86.512744 
L 514.442224 86.586658 
L 514.650561 86.631023 
L 514.739848 86.512744 
L 514.769611 86.54231 
L 514.918423 86.586658 
L 520.543532 86.512744 
L 520.662582 86.483178 
L 520.781632 86.557093 
L 520.930444 86.453612 
L 521.109019 86.527527 
L 521.228069 86.527527 
L 521.406644 86.527527 
L 521.495931 86.571876 
L 521.525694 86.54231 
L 521.555456 86.438829 
L 521.644744 86.468395 
L 521.793556 86.512744 
L 522.001894 86.512744 
L 522.091181 86.483178 
L 522.120943 86.527527 
L 522.239993 86.527527 
L 522.329281 86.483178 
L 522.359043 86.512744 
L 522.626906 86.527527 
L 522.80548 86.54231 
L 522.92453 86.586658 
L 523.013818 86.557093 
L 523.04358 86.601457 
L 523.28168 86.527527 
L 523.40073 86.527527 
L 523.579305 86.571876 
L 523.906692 86.497961 
L 524.055505 86.601457 
L 524.23408 86.438829 
L 524.382892 86.54231 
L 524.531704 86.557093 
L 524.620992 86.527527 
L 524.650754 86.631023 
L 524.710279 86.601457 
L 524.799567 86.453612 
L 524.829329 86.527527 
L 525.126954 86.61624 
L 525.246004 86.571876 
L 525.394816 86.645806 
L 525.513866 86.586658 
L 527.448427 86.645806 
L 527.47819 86.719721 
L 527.567477 86.660589 
L 527.686527 86.601457 
L 527.924627 86.675372 
L 527.95439 86.601457 
L 528.043677 86.660589 
L 528.192489 86.675372 
L 528.341302 86.734504 
L 528.549639 86.675372 
L 528.638927 86.734504 
L 528.668689 86.675372 
L 531.406837 86.675372 
L 531.4366 86.557093 
L 531.496125 86.601457 
L 531.585412 86.704938 
L 531.615175 86.586658 
L 531.6747 86.61624 
L 531.763987 86.675372 
L 531.793749 86.631023 
L 532.478287 86.61624 
L 532.597336 86.764069 
L 533.043774 86.660589 
L 533.162824 86.704938 
L 533.311636 86.660589 
L 533.371161 86.734504 
L 533.400923 86.660589 
L 533.430686 86.764069 
L 533.490211 86.704938 
L 533.639023 86.601457 
L 533.668786 86.631023 
L 533.787836 86.778852 
L 533.817598 103.662178 
L 533.877123 90.460071 
L 534.055698 86.660589 
L 534.08546 86.660589 
L 534.115223 86.497961 
L 534.174748 86.601457 
L 534.20451 86.660589 
L 534.234273 86.61624 
L 534.353323 86.512744 
L 534.383085 86.586658 
L 534.472373 86.512744 
L 534.621185 86.438829 
L 534.710473 86.379682 
L 534.740235 86.409263 
L 535.097385 86.601457 
L 535.127147 86.778852 
L 535.186672 86.61624 
L 535.365247 86.557093 
L 535.573584 86.631023 
L 537.270046 86.54231 
L 537.418858 86.512744 
L 537.746246 86.586658 
L 537.954583 86.512744 
L 538.073633 86.557093 
L 539.264132 86.497961 
L 539.383182 86.438829 
L 541.823705 86.335333 
L 542.061805 86.335333 
L 542.180855 86.305767 
L 542.270143 86.276201 
L 542.389192 86.32055 
L 542.657055 86.350116 
L 543.014205 86.290984 
L 559.026419 86.350116 
L 559.056181 86.438829 
L 559.145469 86.39448 
L 560.127631 86.497961 
L 560.246681 86.497961 
L 560.276443 86.39448 
L 560.36573 86.468395 
L 560.574068 86.438829 
L 560.633593 86.54231 
L 560.693118 86.483178 
L 561.55623 86.586658 
L 561.645517 86.61624 
L 561.67528 86.54231 
L 561.705042 86.438829 
L 561.734805 86.61624 
L 561.764567 86.54231 
L 562.984829 86.645806 
L 563.103879 86.660589 
L 563.252691 86.586658 
L 563.371741 86.660589 
L 563.609841 86.645806 
L 563.728891 86.719721 
L 563.758653 86.675372 
L 563.818178 86.778852 
L 563.966991 86.764069 
L 563.996753 86.897132 
L 564.026516 99.83313 
L 564.086041 88.612078 
L 564.115803 87.192806 
L 564.20509 87.399783 
L 564.294378 86.764069 
L 564.353903 86.823217 
L 564.592003 87.104109 
L 564.711053 86.971046 
L 564.949152 87.266737 
L 565.03844 87.237155 
L 565.187252 87.207589 
L 565.663452 86.867566 
L 565.842027 86.897132 
L 565.961077 86.956263 
L 566.586089 86.882349 
L 566.705139 86.867566 
L 566.824189 86.838 
L 570.663549 86.882349 
L 570.752836 86.94148 
L 570.782599 86.926698 
L 571.050461 86.911915 
L 571.229036 86.897132 
L 571.377848 86.823217 
L 579.860155 86.734504 
L 580.03873 86.690155 
L 580.128017 86.749287 
L 580.15778 86.690155 
L 590.634173 86.601457 
L 590.812748 86.571876 
L 593.788996 86.527527 
L 593.818758 86.453612 
L 593.878283 86.54231 
L 593.997333 86.557093 
L 594.235433 86.527527 
L 594.354483 86.527527 
L 594.473533 86.512744 
L 594.503295 86.601457 
L 594.56282 86.512744 
L 594.711633 86.557093 
L 596.050944 86.660589 
L 596.140232 86.631023 
L 596.289044 86.571876 
L 596.408094 86.586658 
L 596.497381 86.512744 
L 596.556906 86.586658 
L 596.586669 86.690155 
L 596.675956 86.645806 
L 599.801017 86.690155 
L 599.830779 86.764069 
L 599.920067 86.690155 
L 600.039117 86.719721 
L 600.068879 86.61624 
L 600.128404 86.704938 
L 600.306979 86.704938 
L 600.396266 86.631023 
L 600.515316 86.719721 
L 601.824865 86.793635 
L 601.854628 86.512744 
L 601.88439 101.178472 
L 601.943915 90.164397 
L 602.062965 86.823217 
L 602.092728 87.05976 
L 602.12249 87.325868 
L 602.152253 86.971046 
L 602.271303 86.764069 
L 602.301065 86.793635 
L 602.449878 86.808418 
L 602.59869 86.749287 
L 602.747502 86.793635 
L 602.777265 86.719721 
L 602.83679 86.793635 
L 602.95584 86.764069 
L 603.491564 86.704938 
L 603.640377 86.631023 
L 603.818952 86.660589 
L 603.967764 86.601457 
L 604.086814 86.61624 
L 605.307076 86.719721 
L 605.515413 86.719721 
L 605.8428 86.675372 
L 610.961947 86.571876 
L 611.170284 86.497961 
L 612.092921 86.586658 
L 612.241733 86.586658 
L 612.479833 86.601457 
L 612.628646 86.631023 
L 612.836983 86.61624 
L 613.16437 86.571876 
L 613.372708 86.557093 
L 614.384632 86.453612 
L 614.47392 86.468395 
L 614.503682 86.497961 
L 614.563207 86.409263 
L 614.771544 86.409263 
L 615.069169 86.364899 
L 615.307269 86.379682 
L 615.575131 86.364899 
L 615.872756 86.409263 
L 616.081093 86.424046 
L 616.229906 86.409263 
L 616.319193 86.379682 
L 616.497768 86.453612 
L 616.706106 86.39448 
L 619.712116 86.497961 
L 619.890691 86.54231 
L 620.099028 86.557093 
L 620.337128 86.557093 
L 632.569507 86.660589 
L 632.807607 86.660589 
L 632.986182 86.690155 
L 633.19452 86.675372 
L 633.373094 86.690155 
L 633.492144 86.704938 
L 633.640957 86.675372 
L 633.879057 86.734504 
L 633.968344 86.660589 
L 633.998107 86.734504 
L 642.510176 86.631023 
L 642.629226 86.660589 
L 646.974548 86.631023 
L 647.00431 86.54231 
L 647.093598 86.586658 
L 647.36146 86.645806 
L 647.510273 86.571876 
L 647.659085 86.645806 
L 647.688847 86.601457 
L 650.307946 86.54231 
L 650.337708 86.468395 
L 650.397233 86.586658 
L 650.426996 86.527527 
L 650.60557 86.557093 
L 650.635333 86.483178 
L 650.72462 86.557093 
L 650.873433 86.54231 
L 651.022245 86.527527 
L 658.373578 86.557093 
L 658.492628 86.61624 
L 658.611678 86.483178 
L 658.64144 86.61624 
L 658.730728 86.571876 
L 658.849777 86.54231 
L 659.058115 86.631023 
L 659.11764 86.497961 
L 659.147402 86.557093 
L 659.177165 86.61624 
L 659.23669 86.571876 
L 659.35574 86.54231 
L 659.445027 86.571876 
L 659.564077 86.527527 
L 659.593839 86.631023 
L 659.683127 86.54231 
L 659.950989 86.601457 
L 660.099802 86.527527 
L 660.397426 86.571876 
L 660.546239 86.557093 
L 660.665289 86.601457 
L 676.856078 86.660589 
L 676.88584 86.749287 
L 676.975128 86.704938 
L 677.12394 86.61624 
L 677.183465 86.734504 
L 677.272753 86.690155 
L 677.60014 86.645806 
L 684.356223 86.749287 
L 684.44551 86.734504 
L 684.534798 86.631023 
L 684.56456 86.749287 
L 684.653848 86.675372 
L 684.80266 86.704938 
L 684.951473 86.631023 
L 685.249097 86.734504 
L 685.27886 86.749287 
L 685.308622 86.675372 
L 685.487197 86.61624 
L 685.665772 86.690155 
L 685.814585 86.660589 
L 685.903872 86.660589 
L 686.022922 86.704938 
L 686.171734 86.631023 
L 686.261022 86.704938 
L 686.290784 86.660589 
L 686.528884 86.675372 
L 686.558647 86.631023 
L 686.618172 86.675372 
L 686.766984 86.690155 
L 686.886034 86.675372 
L 694.832616 86.778852 
L 694.921904 86.734504 
L 695.011191 86.704938 
L 695.040953 86.749287 
L 695.070716 86.793635 
L 695.100478 86.704938 
L 695.130241 86.704938 
L 695.398103 86.690155 
L 695.606441 86.690155 
L 695.72549 86.704938 
L 695.874303 86.749287 
L 737.779875 86.734504 
L 737.779875 86.734504 
" clip-path="url(#p0aedd7b6e1)" style="fill: none; stroke: #1f77b4; stroke-width: 1.5; stroke-linecap: square"/>
   </g>
   <g id="patch_3">
    <path d="M 380.659875 311.6435 
L 380.659875 45.5315 
" style="fill: none; stroke: #000000; stroke-width: 0.8; stroke-linejoin: miter; stroke-linecap: square"/>
   </g>
   <g id="patch_4">
    <path d="M 737.779875 311.6435 
L 737.779875 45.5315 
" style="fill: none; stroke: #000000; stroke-width: 0.8; stroke-linejoin: miter; stroke-linecap: square"/>
   </g>
   <g id="patch_5">
    <path d="M 380.659875 311.6435 
L 737.779875 311.6435 
" style="fill: none; stroke: #000000; stroke-width: 0.8; stroke-linejoin: miter; stroke-linecap: square"/>
   </g>
   <g id="patch_6">
    <path d="M 380.659875 45.5315 
L 737.779875 45.5315 
" style="fill: none; stroke: #000000; stroke-width: 0.8; stroke-linejoin: miter; stroke-linecap: square"/>
   </g>
   <g id="text_19">
    <!-- Accuracy of the 09_07_25_CINIC10_torch_model_(1024+512-512.3+1)_car-plane on the validation set -->
    <g transform="translate(7.2 25.5315) scale(0.264 -0.264)">
     <defs>
      <path id="TimesNewRomanPSMT-68" d="M 1041 4444 
L 1041 2350 
Q 1388 2731 1591 2839 
Q 1794 2947 1997 2947 
Q 2241 2947 2416 2812 
Q 2591 2678 2675 2391 
Q 2734 2191 2734 1659 
L 2734 647 
Q 2734 375 2778 275 
Q 2809 200 2884 156 
Q 2959 113 3159 113 
L 3159 0 
L 1753 0 
L 1753 113 
L 1819 113 
Q 2019 113 2097 173 
Q 2175 234 2206 353 
Q 2216 403 2216 647 
L 2216 1659 
Q 2216 2128 2167 2275 
Q 2119 2422 2012 2495 
Q 1906 2569 1756 2569 
Q 1603 2569 1437 2487 
Q 1272 2406 1041 2159 
L 1041 647 
Q 1041 353 1073 281 
Q 1106 209 1195 161 
Q 1284 113 1503 113 
L 1503 0 
L 84 0 
L 84 113 
Q 275 113 384 172 
Q 447 203 484 290 
Q 522 378 522 647 
L 522 3238 
Q 522 3728 498 3840 
Q 475 3953 426 3993 
Q 378 4034 297 4034 
Q 231 4034 84 3984 
L 41 4094 
L 897 4444 
L 1041 4444 
z
" transform="scale(0.015625)"/>
      <path id="TimesNewRomanPSMT-5f" d="M 3256 -1381 
L -53 -1381 
L -53 -1119 
L 3256 -1119 
L 3256 -1381 
z
" transform="scale(0.015625)"/>
      <path id="TimesNewRomanPSMT-43" d="M 3853 4334 
L 3950 2894 
L 3853 2894 
Q 3659 3541 3300 3825 
Q 2941 4109 2438 4109 
Q 2016 4109 1675 3895 
Q 1334 3681 1139 3212 
Q 944 2744 944 2047 
Q 944 1472 1128 1050 
Q 1313 628 1683 403 
Q 2053 178 2528 178 
Q 2941 178 3256 354 
Q 3572 531 3950 1056 
L 4047 994 
Q 3728 428 3303 165 
Q 2878 -97 2294 -97 
Q 1241 -97 663 684 
Q 231 1266 231 2053 
Q 231 2688 515 3219 
Q 800 3750 1298 4042 
Q 1797 4334 2388 4334 
Q 2847 4334 3294 4109 
Q 3425 4041 3481 4041 
Q 3566 4041 3628 4100 
Q 3709 4184 3744 4334 
L 3853 4334 
z
" transform="scale(0.015625)"/>
      <path id="TimesNewRomanPSMT-49" d="M 1975 116 
L 1975 0 
L 159 0 
L 159 116 
L 309 116 
Q 572 116 691 269 
Q 766 369 766 750 
L 766 3488 
Q 766 3809 725 3913 
Q 694 3991 597 4047 
Q 459 4122 309 4122 
L 159 4122 
L 159 4238 
L 1975 4238 
L 1975 4122 
L 1822 4122 
Q 1563 4122 1444 3969 
Q 1366 3869 1366 3488 
L 1366 750 
Q 1366 428 1406 325 
Q 1438 247 1538 191 
Q 1672 116 1822 116 
L 1975 116 
z
" transform="scale(0.015625)"/>
      <path id="TimesNewRomanPSMT-64" d="M 2222 322 
Q 2013 103 1813 7 
Q 1613 -88 1381 -88 
Q 913 -88 563 304 
Q 213 697 213 1313 
Q 213 1928 600 2439 
Q 988 2950 1597 2950 
Q 1975 2950 2222 2709 
L 2222 3238 
Q 2222 3728 2198 3840 
Q 2175 3953 2125 3993 
Q 2075 4034 2000 4034 
Q 1919 4034 1784 3984 
L 1744 4094 
L 2597 4444 
L 2738 4444 
L 2738 1134 
Q 2738 631 2761 520 
Q 2784 409 2836 365 
Q 2888 322 2956 322 
Q 3041 322 3181 375 
L 3216 266 
L 2366 -88 
L 2222 -88 
L 2222 322 
z
M 2222 541 
L 2222 2016 
Q 2203 2228 2109 2403 
Q 2016 2578 1861 2667 
Q 1706 2756 1559 2756 
Q 1284 2756 1069 2509 
Q 784 2184 784 1559 
Q 784 928 1059 592 
Q 1334 256 1672 256 
Q 1956 256 2222 541 
z
" transform="scale(0.015625)"/>
      <path id="TimesNewRomanPSMT-6c" d="M 1184 4444 
L 1184 647 
Q 1184 378 1223 290 
Q 1263 203 1344 158 
Q 1425 113 1647 113 
L 1647 0 
L 244 0 
L 244 113 
Q 441 113 512 153 
Q 584 194 625 287 
Q 666 381 666 647 
L 666 3247 
Q 666 3731 644 3842 
Q 622 3953 573 3993 
Q 525 4034 450 4034 
Q 369 4034 244 3984 
L 191 4094 
L 1044 4444 
L 1184 4444 
z
" transform="scale(0.015625)"/>
      <path id="TimesNewRomanPSMT-28" d="M 1988 -1253 
L 1988 -1369 
Q 1516 -1131 1200 -813 
Q 750 -359 506 256 
Q 263 872 263 1534 
Q 263 2503 741 3301 
Q 1219 4100 1988 4444 
L 1988 4313 
Q 1603 4100 1356 3731 
Q 1109 3363 987 2797 
Q 866 2231 866 1616 
Q 866 947 969 400 
Q 1050 -31 1165 -292 
Q 1281 -553 1476 -793 
Q 1672 -1034 1988 -1253 
z
" transform="scale(0.015625)"/>
      <path id="TimesNewRomanPSMT-2b" d="M 1672 441 
L 1672 2000 
L 116 2000 
L 116 2256 
L 1672 2256 
L 1672 3809 
L 1922 3809 
L 1922 2256 
L 3484 2256 
L 3484 2000 
L 1922 2000 
L 1922 441 
L 1672 441 
z
" transform="scale(0.015625)"/>
      <path id="TimesNewRomanPSMT-2d" d="M 259 1672 
L 1875 1672 
L 1875 1200 
L 259 1200 
L 259 1672 
z
" transform="scale(0.015625)"/>
      <path id="TimesNewRomanPSMT-29" d="M 144 4313 
L 144 4444 
Q 619 4209 934 3891 
Q 1381 3434 1625 2820 
Q 1869 2206 1869 1541 
Q 1869 572 1392 -226 
Q 916 -1025 144 -1369 
L 144 -1253 
Q 528 -1038 776 -670 
Q 1025 -303 1145 264 
Q 1266 831 1266 1447 
Q 1266 2113 1163 2663 
Q 1084 3094 967 3353 
Q 850 3613 656 3853 
Q 463 4094 144 4313 
z
" transform="scale(0.015625)"/>
      <path id="TimesNewRomanPSMT-70" d="M -6 2578 
L 875 2934 
L 994 2934 
L 994 2266 
Q 1216 2644 1439 2795 
Q 1663 2947 1909 2947 
Q 2341 2947 2628 2609 
Q 2981 2197 2981 1534 
Q 2981 794 2556 309 
Q 2206 -88 1675 -88 
Q 1444 -88 1275 -22 
Q 1150 25 994 166 
L 994 -706 
Q 994 -1000 1030 -1079 
Q 1066 -1159 1155 -1206 
Q 1244 -1253 1478 -1253 
L 1478 -1369 
L -22 -1369 
L -22 -1253 
L 56 -1253 
Q 228 -1256 350 -1188 
Q 409 -1153 442 -1076 
Q 475 -1000 475 -688 
L 475 2019 
Q 475 2297 450 2372 
Q 425 2447 370 2484 
Q 316 2522 222 2522 
Q 147 2522 31 2478 
L -6 2578 
z
M 994 2081 
L 994 1013 
Q 994 666 1022 556 
Q 1066 375 1236 237 
Q 1406 100 1666 100 
Q 1978 100 2172 344 
Q 2425 663 2425 1241 
Q 2425 1897 2138 2250 
Q 1938 2494 1663 2494 
Q 1513 2494 1366 2419 
Q 1253 2363 994 2081 
z
" transform="scale(0.015625)"/>
      <path id="TimesNewRomanPSMT-76" d="M 53 2863 
L 1400 2863 
L 1400 2747 
L 1313 2747 
Q 1191 2747 1127 2687 
Q 1063 2628 1063 2528 
Q 1063 2419 1128 2269 
L 1794 688 
L 2463 2328 
Q 2534 2503 2534 2594 
Q 2534 2638 2509 2666 
Q 2475 2713 2422 2730 
Q 2369 2747 2206 2747 
L 2206 2863 
L 3141 2863 
L 3141 2747 
Q 2978 2734 2916 2681 
Q 2806 2588 2719 2369 
L 1703 -88 
L 1575 -88 
L 553 2328 
Q 484 2497 421 2570 
Q 359 2644 263 2694 
Q 209 2722 53 2747 
L 53 2863 
z
" transform="scale(0.015625)"/>
     </defs>
     <use xlink:href="#TimesNewRomanPSMT-41"/>
     <use xlink:href="#TimesNewRomanPSMT-63" transform="translate(72.216797 0)"/>
     <use xlink:href="#TimesNewRomanPSMT-63" transform="translate(116.601562 0)"/>
     <use xlink:href="#TimesNewRomanPSMT-75" transform="translate(160.986328 0)"/>
     <use xlink:href="#TimesNewRomanPSMT-72" transform="translate(210.986328 0)"/>
     <use xlink:href="#TimesNewRomanPSMT-61" transform="translate(244.287109 0)"/>
     <use xlink:href="#TimesNewRomanPSMT-63" transform="translate(288.671875 0)"/>
     <use xlink:href="#TimesNewRomanPSMT-79" transform="translate(333.056641 0)"/>
     <use xlink:href="#TimesNewRomanPSMT-20" transform="translate(383.056641 0)"/>
     <use xlink:href="#TimesNewRomanPSMT-6f" transform="translate(408.056641 0)"/>
     <use xlink:href="#TimesNewRomanPSMT-66" transform="translate(458.056641 0)"/>
     <use xlink:href="#TimesNewRomanPSMT-20" transform="translate(491.357422 0)"/>
     <use xlink:href="#TimesNewRomanPSMT-74" transform="translate(516.357422 0)"/>
     <use xlink:href="#TimesNewRomanPSMT-68" transform="translate(544.140625 0)"/>
     <use xlink:href="#TimesNewRomanPSMT-65" transform="translate(594.140625 0)"/>
     <use xlink:href="#TimesNewRomanPSMT-20" transform="translate(638.525391 0)"/>
     <use xlink:href="#TimesNewRomanPSMT-30" transform="translate(663.525391 0)"/>
     <use xlink:href="#TimesNewRomanPSMT-39" transform="translate(713.525391 0)"/>
     <use xlink:href="#TimesNewRomanPSMT-5f" transform="translate(763.525391 0)"/>
     <use xlink:href="#TimesNewRomanPSMT-30" transform="translate(813.525391 0)"/>
     <use xlink:href="#TimesNewRomanPSMT-37" transform="translate(863.525391 0)"/>
     <use xlink:href="#TimesNewRomanPSMT-5f" transform="translate(913.525391 0)"/>
     <use xlink:href="#TimesNewRomanPSMT-32" transform="translate(963.525391 0)"/>
     <use xlink:href="#TimesNewRomanPSMT-35" transform="translate(1013.525391 0)"/>
     <use xlink:href="#TimesNewRomanPSMT-5f" transform="translate(1063.525391 0)"/>
     <use xlink:href="#TimesNewRomanPSMT-43" transform="translate(1113.525391 0)"/>
     <use xlink:href="#TimesNewRomanPSMT-49" transform="translate(1180.224609 0)"/>
     <use xlink:href="#TimesNewRomanPSMT-4e" transform="translate(1213.525391 0)"/>
     <use xlink:href="#TimesNewRomanPSMT-49" transform="translate(1285.742188 0)"/>
     <use xlink:href="#TimesNewRomanPSMT-43" transform="translate(1319.042969 0)"/>
     <use xlink:href="#TimesNewRomanPSMT-31" transform="translate(1385.742188 0)"/>
     <use xlink:href="#TimesNewRomanPSMT-30" transform="translate(1435.742188 0)"/>
     <use xlink:href="#TimesNewRomanPSMT-5f" transform="translate(1485.742188 0)"/>
     <use xlink:href="#TimesNewRomanPSMT-74" transform="translate(1535.742188 0)"/>
     <use xlink:href="#TimesNewRomanPSMT-6f" transform="translate(1563.525391 0)"/>
     <use xlink:href="#TimesNewRomanPSMT-72" transform="translate(1613.525391 0)"/>
     <use xlink:href="#TimesNewRomanPSMT-63" transform="translate(1646.826172 0)"/>
     <use xlink:href="#TimesNewRomanPSMT-68" transform="translate(1691.210938 0)"/>
     <use xlink:href="#TimesNewRomanPSMT-5f" transform="translate(1741.210938 0)"/>
     <use xlink:href="#TimesNewRomanPSMT-6d" transform="translate(1791.210938 0)"/>
     <use xlink:href="#TimesNewRomanPSMT-6f" transform="translate(1868.994141 0)"/>
     <use xlink:href="#TimesNewRomanPSMT-64" transform="translate(1918.994141 0)"/>
     <use xlink:href="#TimesNewRomanPSMT-65" transform="translate(1968.994141 0)"/>
     <use xlink:href="#TimesNewRomanPSMT-6c" transform="translate(2013.378906 0)"/>
     <use xlink:href="#TimesNewRomanPSMT-5f" transform="translate(2041.162109 0)"/>
     <use xlink:href="#TimesNewRomanPSMT-28" transform="translate(2091.162109 0)"/>
     <use xlink:href="#TimesNewRomanPSMT-31" transform="translate(2124.462891 0)"/>
     <use xlink:href="#TimesNewRomanPSMT-30" transform="translate(2174.462891 0)"/>
     <use xlink:href="#TimesNewRomanPSMT-32" transform="translate(2224.462891 0)"/>
     <use xlink:href="#TimesNewRomanPSMT-34" transform="translate(2274.462891 0)"/>
     <use xlink:href="#TimesNewRomanPSMT-2b" transform="translate(2324.462891 0)"/>
     <use xlink:href="#TimesNewRomanPSMT-35" transform="translate(2380.859375 0)"/>
     <use xlink:href="#TimesNewRomanPSMT-31" transform="translate(2430.859375 0)"/>
     <use xlink:href="#TimesNewRomanPSMT-32" transform="translate(2480.859375 0)"/>
     <use xlink:href="#TimesNewRomanPSMT-2d" transform="translate(2530.859375 0)"/>
     <use xlink:href="#TimesNewRomanPSMT-35" transform="translate(2564.160156 0)"/>
     <use xlink:href="#TimesNewRomanPSMT-31" transform="translate(2614.160156 0)"/>
     <use xlink:href="#TimesNewRomanPSMT-32" transform="translate(2664.160156 0)"/>
     <use xlink:href="#TimesNewRomanPSMT-2e" transform="translate(2714.160156 0)"/>
     <use xlink:href="#TimesNewRomanPSMT-33" transform="translate(2739.160156 0)"/>
     <use xlink:href="#TimesNewRomanPSMT-2b" transform="translate(2789.160156 0)"/>
     <use xlink:href="#TimesNewRomanPSMT-31" transform="translate(2845.556641 0)"/>
     <use xlink:href="#TimesNewRomanPSMT-29" transform="translate(2895.556641 0)"/>
     <use xlink:href="#TimesNewRomanPSMT-5f" transform="translate(2928.857422 0)"/>
     <use xlink:href="#TimesNewRomanPSMT-63" transform="translate(2978.857422 0)"/>
     <use xlink:href="#TimesNewRomanPSMT-61" transform="translate(3023.242188 0)"/>
     <use xlink:href="#TimesNewRomanPSMT-72" transform="translate(3067.626953 0)"/>
     <use xlink:href="#TimesNewRomanPSMT-2d" transform="translate(3098.927734 0)"/>
     <use xlink:href="#TimesNewRomanPSMT-70" transform="translate(3132.228516 0)"/>
     <use xlink:href="#TimesNewRomanPSMT-6c" transform="translate(3182.228516 0)"/>
     <use xlink:href="#TimesNewRomanPSMT-61" transform="translate(3210.011719 0)"/>
     <use xlink:href="#TimesNewRomanPSMT-6e" transform="translate(3254.396484 0)"/>
     <use xlink:href="#TimesNewRomanPSMT-65" transform="translate(3304.396484 0)"/>
     <use xlink:href="#TimesNewRomanPSMT-20" transform="translate(3348.78125 0)"/>
     <use xlink:href="#TimesNewRomanPSMT-6f" transform="translate(3373.78125 0)"/>
     <use xlink:href="#TimesNewRomanPSMT-6e" transform="translate(3423.78125 0)"/>
     <use xlink:href="#TimesNewRomanPSMT-20" transform="translate(3473.78125 0)"/>
     <use xlink:href="#TimesNewRomanPSMT-74" transform="translate(3498.78125 0)"/>
     <use xlink:href="#TimesNewRomanPSMT-68" transform="translate(3526.564453 0)"/>
     <use xlink:href="#TimesNewRomanPSMT-65" transform="translate(3576.564453 0)"/>
     <use xlink:href="#TimesNewRomanPSMT-20" transform="translate(3620.949219 0)"/>
     <use xlink:href="#TimesNewRomanPSMT-76" transform="translate(3645.949219 0)"/>
     <use xlink:href="#TimesNewRomanPSMT-61" transform="translate(3695.949219 0)"/>
     <use xlink:href="#TimesNewRomanPSMT-6c" transform="translate(3740.333984 0)"/>
     <use xlink:href="#TimesNewRomanPSMT-69" transform="translate(3768.117188 0)"/>
     <use xlink:href="#TimesNewRomanPSMT-64" transform="translate(3795.900391 0)"/>
     <use xlink:href="#TimesNewRomanPSMT-61" transform="translate(3845.900391 0)"/>
     <use xlink:href="#TimesNewRomanPSMT-74" transform="translate(3890.285156 0)"/>
     <use xlink:href="#TimesNewRomanPSMT-69" transform="translate(3918.068359 0)"/>
     <use xlink:href="#TimesNewRomanPSMT-6f" transform="translate(3945.851562 0)"/>
     <use xlink:href="#TimesNewRomanPSMT-6e" transform="translate(3995.851562 0)"/>
     <use xlink:href="#TimesNewRomanPSMT-20" transform="translate(4045.851562 0)"/>
     <use xlink:href="#TimesNewRomanPSMT-73" transform="translate(4070.851562 0)"/>
     <use xlink:href="#TimesNewRomanPSMT-65" transform="translate(4109.767578 0)"/>
     <use xlink:href="#TimesNewRomanPSMT-74" transform="translate(4154.152344 0)"/>
    </g>
   </g>
   <g id="legend_1">
    <g id="patch_7">
     <path d="M 396.059875 300.6435 
L 633.230188 300.6435 
Q 637.630188 300.6435 637.630188 296.2435 
L 637.630188 267.296312 
Q 637.630188 262.896312 633.230188 262.896312 
L 396.059875 262.896312 
Q 391.659875 262.896312 391.659875 267.296312 
L 391.659875 296.2435 
Q 391.659875 300.6435 396.059875 300.6435 
z
" style="fill: #ffffff; opacity: 0.8; stroke: #cccccc; stroke-linejoin: miter"/>
    </g>
    <g id="line2d_34">
     <path d="M 400.459875 279.396312 
L 422.459875 279.396312 
L 444.459875 279.396312 
" style="fill: none; stroke: #1f77b4; stroke-width: 1.5; stroke-linecap: square"/>
    </g>
    <g id="text_20">
     <!-- Best accuracy 0.85 -->
     <g transform="translate(462.059875 287.096312) scale(0.22 -0.22)">
      <defs>
       <path id="TimesNewRomanPSMT-42" d="M 2956 2163 
Q 3397 2069 3616 1863 
Q 3919 1575 3919 1159 
Q 3919 844 3719 555 
Q 3519 266 3170 133 
Q 2822 0 2106 0 
L 106 0 
L 106 116 
L 266 116 
Q 531 116 647 284 
Q 719 394 719 750 
L 719 3488 
Q 719 3881 628 3984 
Q 506 4122 266 4122 
L 106 4122 
L 106 4238 
L 1938 4238 
Q 2450 4238 2759 4163 
Q 3228 4050 3475 3764 
Q 3722 3478 3722 3106 
Q 3722 2788 3528 2536 
Q 3334 2284 2956 2163 
z
M 1319 2331 
Q 1434 2309 1582 2298 
Q 1731 2288 1909 2288 
Q 2366 2288 2595 2386 
Q 2825 2484 2947 2687 
Q 3069 2891 3069 3131 
Q 3069 3503 2766 3765 
Q 2463 4028 1881 4028 
Q 1569 4028 1319 3959 
L 1319 2331 
z
M 1319 306 
Q 1681 222 2034 222 
Q 2600 222 2897 476 
Q 3194 731 3194 1106 
Q 3194 1353 3059 1581 
Q 2925 1809 2622 1940 
Q 2319 2072 1872 2072 
Q 1678 2072 1540 2065 
Q 1403 2059 1319 2044 
L 1319 306 
z
" transform="scale(0.015625)"/>
      </defs>
      <use xlink:href="#TimesNewRomanPSMT-42"/>
      <use xlink:href="#TimesNewRomanPSMT-65" transform="translate(66.699219 0)"/>
      <use xlink:href="#TimesNewRomanPSMT-73" transform="translate(111.083984 0)"/>
      <use xlink:href="#TimesNewRomanPSMT-74" transform="translate(150 0)"/>
      <use xlink:href="#TimesNewRomanPSMT-20" transform="translate(177.783203 0)"/>
      <use xlink:href="#TimesNewRomanPSMT-61" transform="translate(202.783203 0)"/>
      <use xlink:href="#TimesNewRomanPSMT-63" transform="translate(247.167969 0)"/>
      <use xlink:href="#TimesNewRomanPSMT-63" transform="translate(291.552734 0)"/>
      <use xlink:href="#TimesNewRomanPSMT-75" transform="translate(335.9375 0)"/>
      <use xlink:href="#TimesNewRomanPSMT-72" transform="translate(385.9375 0)"/>
      <use xlink:href="#TimesNewRomanPSMT-61" transform="translate(419.238281 0)"/>
      <use xlink:href="#TimesNewRomanPSMT-63" transform="translate(463.623047 0)"/>
      <use xlink:href="#TimesNewRomanPSMT-79" transform="translate(508.007812 0)"/>
      <use xlink:href="#TimesNewRomanPSMT-20" transform="translate(558.007812 0)"/>
      <use xlink:href="#TimesNewRomanPSMT-30" transform="translate(583.007812 0)"/>
      <use xlink:href="#TimesNewRomanPSMT-2e" transform="translate(633.007812 0)"/>
      <use xlink:href="#TimesNewRomanPSMT-38" transform="translate(658.007812 0)"/>
      <use xlink:href="#TimesNewRomanPSMT-35" transform="translate(708.007812 0)"/>
     </g>
    </g>
   </g>
  </g>
 </g>
 <defs>
  <clipPath id="p0aedd7b6e1">
   <rect x="380.659875" y="45.5315" width="357.12" height="266.112"/>
  </clipPath>
 </defs>
</svg>
