<?xml version="1.0" encoding="utf-8" standalone="no"?>
<!DOCTYPE svg PUBLIC "-//W3C//DTD SVG 1.1//EN"
  "http://www.w3.org/Graphics/SVG/1.1/DTD/svg11.dtd">
<svg xmlns:xlink="http://www.w3.org/1999/xlink" width="1145.404875pt" height="369.807875pt" viewBox="0 0 1145.404875 369.807875" xmlns="http://www.w3.org/2000/svg" version="1.1">
 <metadata>
  <rdf:RDF xmlns:dc="http://purl.org/dc/elements/1.1/" xmlns:cc="http://creativecommons.org/ns#" xmlns:rdf="http://www.w3.org/1999/02/22-rdf-syntax-ns#">
   <cc:Work>
    <dc:type rdf:resource="http://purl.org/dc/dcmitype/StillImage"/>
    <dc:date>2025-07-11T08:57:16.668818</dc:date>
    <dc:format>image/svg+xml</dc:format>
    <dc:creator>
     <cc:Agent>
      <dc:title>Matplotlib v3.10.3, https://matplotlib.org/</dc:title>
     </cc:Agent>
    </dc:creator>
   </cc:Work>
  </rdf:RDF>
 </metadata>
 <defs>
  <style type="text/css">*{stroke-linejoin: round; stroke-linecap: butt}</style>
 </defs>
 <g id="figure_1">
  <g id="patch_1">
   <path d="M 0 369.807875 
L 1145.404875 369.807875 
L 1145.404875 0 
L 0 0 
z
" style="fill: #ffffff"/>
  </g>
  <g id="axes_1">
   <g id="patch_2">
    <path d="M 394.142438 311.6435 
L 751.262438 311.6435 
L 751.262438 45.5315 
L 394.142438 45.5315 
z
" style="fill: #ffffff"/>
   </g>
   <g id="matplotlib.axis_1">
    <g id="xtick_1">
     <g id="line2d_1">
      <path d="M 394.142438 311.6435 
L 394.142438 45.5315 
" clip-path="url(#p9a2fd9f5a8)" style="fill: none; stroke: #b0b0b0; stroke-opacity: 0.3; stroke-width: 0.8; stroke-linecap: square"/>
     </g>
     <g id="line2d_2">
      <defs>
       <path id="mcee4d6bb61" d="M 0 0 
L 0 3.5 
" style="stroke: #000000; stroke-width: 0.8"/>
      </defs>
      <g>
       <use xlink:href="#mcee4d6bb61" x="394.142438" y="311.6435" style="stroke: #000000; stroke-width: 0.8"/>
      </g>
     </g>
     <g id="text_1">
      <!-- 0 -->
      <g transform="translate(388.642438 333.91975) scale(0.22 -0.22)">
       <defs>
        <path id="TimesNewRomanPSMT-30" d="M 231 2094 
Q 231 2819 450 3342 
Q 669 3866 1031 4122 
Q 1313 4325 1613 4325 
Q 2100 4325 2488 3828 
Q 2972 3213 2972 2159 
Q 2972 1422 2759 906 
Q 2547 391 2217 158 
Q 1888 -75 1581 -75 
Q 975 -75 572 641 
Q 231 1244 231 2094 
z
M 844 2016 
Q 844 1141 1059 588 
Q 1238 122 1591 122 
Q 1759 122 1940 273 
Q 2122 425 2216 781 
Q 2359 1319 2359 2297 
Q 2359 3022 2209 3506 
Q 2097 3866 1919 4016 
Q 1791 4119 1609 4119 
Q 1397 4119 1231 3928 
Q 1006 3669 925 3112 
Q 844 2556 844 2016 
z
" transform="scale(0.015625)"/>
       </defs>
       <use xlink:href="#TimesNewRomanPSMT-30"/>
      </g>
     </g>
    </g>
    <g id="xtick_2">
     <g id="line2d_3">
      <path d="M 493.342438 311.6435 
L 493.342438 45.5315 
" clip-path="url(#p9a2fd9f5a8)" style="fill: none; stroke: #b0b0b0; stroke-opacity: 0.3; stroke-width: 0.8; stroke-linecap: square"/>
     </g>
     <g id="line2d_4">
      <g>
       <use xlink:href="#mcee4d6bb61" x="493.342438" y="311.6435" style="stroke: #000000; stroke-width: 0.8"/>
      </g>
     </g>
     <g id="text_2">
      <!-- 5000 -->
      <g transform="translate(471.342438 333.91975) scale(0.22 -0.22)">
       <defs>
        <path id="TimesNewRomanPSMT-35" d="M 2778 4238 
L 2534 3706 
L 1259 3706 
L 981 3138 
Q 1809 3016 2294 2522 
Q 2709 2097 2709 1522 
Q 2709 1188 2573 903 
Q 2438 619 2231 419 
Q 2025 219 1772 97 
Q 1413 -75 1034 -75 
Q 653 -75 479 54 
Q 306 184 306 341 
Q 306 428 378 495 
Q 450 563 559 563 
Q 641 563 702 538 
Q 763 513 909 409 
Q 1144 247 1384 247 
Q 1750 247 2026 523 
Q 2303 800 2303 1197 
Q 2303 1581 2056 1914 
Q 1809 2247 1375 2428 
Q 1034 2569 447 2591 
L 1259 4238 
L 2778 4238 
z
" transform="scale(0.015625)"/>
       </defs>
       <use xlink:href="#TimesNewRomanPSMT-35"/>
       <use xlink:href="#TimesNewRomanPSMT-30" transform="translate(50 0)"/>
       <use xlink:href="#TimesNewRomanPSMT-30" transform="translate(100 0)"/>
       <use xlink:href="#TimesNewRomanPSMT-30" transform="translate(150 0)"/>
      </g>
     </g>
    </g>
    <g id="xtick_3">
     <g id="line2d_5">
      <path d="M 592.542438 311.6435 
L 592.542438 45.5315 
" clip-path="url(#p9a2fd9f5a8)" style="fill: none; stroke: #b0b0b0; stroke-opacity: 0.3; stroke-width: 0.8; stroke-linecap: square"/>
     </g>
     <g id="line2d_6">
      <g>
       <use xlink:href="#mcee4d6bb61" x="592.542438" y="311.6435" style="stroke: #000000; stroke-width: 0.8"/>
      </g>
     </g>
     <g id="text_3">
      <!-- 10000 -->
      <g transform="translate(565.042438 333.91975) scale(0.22 -0.22)">
       <defs>
        <path id="TimesNewRomanPSMT-31" d="M 750 3822 
L 1781 4325 
L 1884 4325 
L 1884 747 
Q 1884 391 1914 303 
Q 1944 216 2037 169 
Q 2131 122 2419 116 
L 2419 0 
L 825 0 
L 825 116 
Q 1125 122 1212 167 
Q 1300 213 1334 289 
Q 1369 366 1369 747 
L 1369 3034 
Q 1369 3497 1338 3628 
Q 1316 3728 1258 3775 
Q 1200 3822 1119 3822 
Q 1003 3822 797 3725 
L 750 3822 
z
" transform="scale(0.015625)"/>
       </defs>
       <use xlink:href="#TimesNewRomanPSMT-31"/>
       <use xlink:href="#TimesNewRomanPSMT-30" transform="translate(50 0)"/>
       <use xlink:href="#TimesNewRomanPSMT-30" transform="translate(100 0)"/>
       <use xlink:href="#TimesNewRomanPSMT-30" transform="translate(150 0)"/>
       <use xlink:href="#TimesNewRomanPSMT-30" transform="translate(200 0)"/>
      </g>
     </g>
    </g>
    <g id="xtick_4">
     <g id="line2d_7">
      <path d="M 691.742438 311.6435 
L 691.742438 45.5315 
" clip-path="url(#p9a2fd9f5a8)" style="fill: none; stroke: #b0b0b0; stroke-opacity: 0.3; stroke-width: 0.8; stroke-linecap: square"/>
     </g>
     <g id="line2d_8">
      <g>
       <use xlink:href="#mcee4d6bb61" x="691.742438" y="311.6435" style="stroke: #000000; stroke-width: 0.8"/>
      </g>
     </g>
     <g id="text_4">
      <!-- 15000 -->
      <g transform="translate(664.242438 333.91975) scale(0.22 -0.22)">
       <use xlink:href="#TimesNewRomanPSMT-31"/>
       <use xlink:href="#TimesNewRomanPSMT-35" transform="translate(50 0)"/>
       <use xlink:href="#TimesNewRomanPSMT-30" transform="translate(100 0)"/>
       <use xlink:href="#TimesNewRomanPSMT-30" transform="translate(150 0)"/>
       <use xlink:href="#TimesNewRomanPSMT-30" transform="translate(200 0)"/>
      </g>
     </g>
    </g>
    <g id="text_5">
     <!-- Number of iterations -->
     <g transform="translate(481.060406 357.901937) scale(0.22 -0.22)">
      <defs>
       <path id="TimesNewRomanPSMT-4e" d="M -84 4238 
L 1066 4238 
L 3656 1059 
L 3656 3503 
Q 3656 3894 3569 3991 
Q 3453 4122 3203 4122 
L 3056 4122 
L 3056 4238 
L 4531 4238 
L 4531 4122 
L 4381 4122 
Q 4113 4122 4000 3959 
Q 3931 3859 3931 3503 
L 3931 -69 
L 3819 -69 
L 1025 3344 
L 1025 734 
Q 1025 344 1109 247 
Q 1228 116 1475 116 
L 1625 116 
L 1625 0 
L 150 0 
L 150 116 
L 297 116 
Q 569 116 681 278 
Q 750 378 750 734 
L 750 3681 
Q 566 3897 470 3965 
Q 375 4034 191 4094 
Q 100 4122 -84 4122 
L -84 4238 
z
" transform="scale(0.015625)"/>
       <path id="TimesNewRomanPSMT-75" d="M 2709 2863 
L 2709 1128 
Q 2709 631 2732 520 
Q 2756 409 2807 365 
Q 2859 322 2928 322 
Q 3025 322 3147 375 
L 3191 266 
L 2334 -88 
L 2194 -88 
L 2194 519 
Q 1825 119 1631 15 
Q 1438 -88 1222 -88 
Q 981 -88 804 51 
Q 628 191 559 409 
Q 491 628 491 1028 
L 491 2306 
Q 491 2509 447 2587 
Q 403 2666 317 2708 
Q 231 2750 6 2747 
L 6 2863 
L 1009 2863 
L 1009 947 
Q 1009 547 1148 422 
Q 1288 297 1484 297 
Q 1619 297 1789 381 
Q 1959 466 2194 703 
L 2194 2325 
Q 2194 2569 2105 2655 
Q 2016 2741 1734 2747 
L 1734 2863 
L 2709 2863 
z
" transform="scale(0.015625)"/>
       <path id="TimesNewRomanPSMT-6d" d="M 1050 2338 
Q 1363 2650 1419 2697 
Q 1559 2816 1721 2881 
Q 1884 2947 2044 2947 
Q 2313 2947 2506 2790 
Q 2700 2634 2766 2338 
Q 3088 2713 3309 2830 
Q 3531 2947 3766 2947 
Q 3994 2947 4170 2830 
Q 4347 2713 4450 2447 
Q 4519 2266 4519 1878 
L 4519 647 
Q 4519 378 4559 278 
Q 4591 209 4675 161 
Q 4759 113 4950 113 
L 4950 0 
L 3538 0 
L 3538 113 
L 3597 113 
Q 3781 113 3884 184 
Q 3956 234 3988 344 
Q 4000 397 4000 647 
L 4000 1878 
Q 4000 2228 3916 2372 
Q 3794 2572 3525 2572 
Q 3359 2572 3192 2489 
Q 3025 2406 2788 2181 
L 2781 2147 
L 2788 2013 
L 2788 647 
Q 2788 353 2820 281 
Q 2853 209 2943 161 
Q 3034 113 3253 113 
L 3253 0 
L 1806 0 
L 1806 113 
Q 2044 113 2133 169 
Q 2222 225 2256 338 
Q 2272 391 2272 647 
L 2272 1878 
Q 2272 2228 2169 2381 
Q 2031 2581 1784 2581 
Q 1616 2581 1450 2491 
Q 1191 2353 1050 2181 
L 1050 647 
Q 1050 366 1089 281 
Q 1128 197 1204 155 
Q 1281 113 1516 113 
L 1516 0 
L 100 0 
L 100 113 
Q 297 113 375 155 
Q 453 197 493 289 
Q 534 381 534 647 
L 534 1741 
Q 534 2213 506 2350 
Q 484 2453 437 2492 
Q 391 2531 309 2531 
Q 222 2531 100 2484 
L 53 2597 
L 916 2947 
L 1050 2947 
L 1050 2338 
z
" transform="scale(0.015625)"/>
       <path id="TimesNewRomanPSMT-62" d="M 984 2369 
Q 1400 2947 1881 2947 
Q 2322 2947 2650 2570 
Q 2978 2194 2978 1541 
Q 2978 778 2472 313 
Q 2038 -88 1503 -88 
Q 1253 -88 995 3 
Q 738 94 469 275 
L 469 3241 
Q 469 3728 445 3840 
Q 422 3953 372 3993 
Q 322 4034 247 4034 
Q 159 4034 28 3984 
L -16 4094 
L 844 4444 
L 984 4444 
L 984 2369 
z
M 984 2169 
L 984 456 
Q 1144 300 1314 220 
Q 1484 141 1663 141 
Q 1947 141 2192 453 
Q 2438 766 2438 1363 
Q 2438 1913 2192 2208 
Q 1947 2503 1634 2503 
Q 1469 2503 1303 2419 
Q 1178 2356 984 2169 
z
" transform="scale(0.015625)"/>
       <path id="TimesNewRomanPSMT-65" d="M 681 1784 
Q 678 1147 991 784 
Q 1303 422 1725 422 
Q 2006 422 2214 576 
Q 2422 731 2563 1106 
L 2659 1044 
Q 2594 616 2278 264 
Q 1963 -88 1488 -88 
Q 972 -88 605 314 
Q 238 716 238 1394 
Q 238 2128 614 2539 
Q 991 2950 1559 2950 
Q 2041 2950 2350 2633 
Q 2659 2316 2659 1784 
L 681 1784 
z
M 681 1966 
L 2006 1966 
Q 1991 2241 1941 2353 
Q 1863 2528 1708 2628 
Q 1553 2728 1384 2728 
Q 1125 2728 920 2526 
Q 716 2325 681 1966 
z
" transform="scale(0.015625)"/>
       <path id="TimesNewRomanPSMT-72" d="M 1038 2947 
L 1038 2303 
Q 1397 2947 1775 2947 
Q 1947 2947 2059 2842 
Q 2172 2738 2172 2600 
Q 2172 2478 2090 2393 
Q 2009 2309 1897 2309 
Q 1788 2309 1652 2417 
Q 1516 2525 1450 2525 
Q 1394 2525 1328 2463 
Q 1188 2334 1038 2041 
L 1038 669 
Q 1038 431 1097 309 
Q 1138 225 1241 169 
Q 1344 113 1538 113 
L 1538 0 
L 72 0 
L 72 113 
Q 291 113 397 181 
Q 475 231 506 341 
Q 522 394 522 644 
L 522 1753 
Q 522 2253 501 2348 
Q 481 2444 426 2487 
Q 372 2531 291 2531 
Q 194 2531 72 2484 
L 41 2597 
L 906 2947 
L 1038 2947 
z
" transform="scale(0.015625)"/>
       <path id="TimesNewRomanPSMT-20" transform="scale(0.015625)"/>
       <path id="TimesNewRomanPSMT-6f" d="M 1600 2947 
Q 2250 2947 2644 2453 
Q 2978 2031 2978 1484 
Q 2978 1100 2793 706 
Q 2609 313 2286 112 
Q 1963 -88 1566 -88 
Q 919 -88 538 428 
Q 216 863 216 1403 
Q 216 1797 411 2186 
Q 606 2575 925 2761 
Q 1244 2947 1600 2947 
z
M 1503 2744 
Q 1338 2744 1170 2645 
Q 1003 2547 900 2300 
Q 797 2053 797 1666 
Q 797 1041 1045 587 
Q 1294 134 1700 134 
Q 2003 134 2200 384 
Q 2397 634 2397 1244 
Q 2397 2006 2069 2444 
Q 1847 2744 1503 2744 
z
" transform="scale(0.015625)"/>
       <path id="TimesNewRomanPSMT-66" d="M 1319 2638 
L 1319 756 
Q 1319 356 1406 250 
Q 1522 113 1716 113 
L 1975 113 
L 1975 0 
L 266 0 
L 266 113 
L 394 113 
Q 519 113 622 175 
Q 725 238 764 344 
Q 803 450 803 756 
L 803 2638 
L 247 2638 
L 247 2863 
L 803 2863 
L 803 3050 
Q 803 3478 940 3775 
Q 1078 4072 1361 4255 
Q 1644 4438 1997 4438 
Q 2325 4438 2600 4225 
Q 2781 4084 2781 3909 
Q 2781 3816 2700 3733 
Q 2619 3650 2525 3650 
Q 2453 3650 2373 3701 
Q 2294 3753 2178 3923 
Q 2063 4094 1966 4153 
Q 1869 4213 1750 4213 
Q 1606 4213 1506 4136 
Q 1406 4059 1362 3898 
Q 1319 3738 1319 3069 
L 1319 2863 
L 2056 2863 
L 2056 2638 
L 1319 2638 
z
" transform="scale(0.015625)"/>
       <path id="TimesNewRomanPSMT-69" d="M 928 4444 
Q 1059 4444 1151 4351 
Q 1244 4259 1244 4128 
Q 1244 3997 1151 3903 
Q 1059 3809 928 3809 
Q 797 3809 703 3903 
Q 609 3997 609 4128 
Q 609 4259 701 4351 
Q 794 4444 928 4444 
z
M 1188 2947 
L 1188 647 
Q 1188 378 1227 289 
Q 1266 200 1342 156 
Q 1419 113 1622 113 
L 1622 0 
L 231 0 
L 231 113 
Q 441 113 512 153 
Q 584 194 626 287 
Q 669 381 669 647 
L 669 1750 
Q 669 2216 641 2353 
Q 619 2453 572 2492 
Q 525 2531 444 2531 
Q 356 2531 231 2484 
L 188 2597 
L 1050 2947 
L 1188 2947 
z
" transform="scale(0.015625)"/>
       <path id="TimesNewRomanPSMT-74" d="M 1031 3803 
L 1031 2863 
L 1700 2863 
L 1700 2644 
L 1031 2644 
L 1031 788 
Q 1031 509 1111 412 
Q 1191 316 1316 316 
Q 1419 316 1516 380 
Q 1613 444 1666 569 
L 1788 569 
Q 1678 263 1478 108 
Q 1278 -47 1066 -47 
Q 922 -47 784 33 
Q 647 113 581 261 
Q 516 409 516 719 
L 516 2644 
L 63 2644 
L 63 2747 
Q 234 2816 414 2980 
Q 594 3144 734 3369 
Q 806 3488 934 3803 
L 1031 3803 
z
" transform="scale(0.015625)"/>
       <path id="TimesNewRomanPSMT-61" d="M 1822 413 
Q 1381 72 1269 19 
Q 1100 -59 909 -59 
Q 613 -59 420 144 
Q 228 347 228 678 
Q 228 888 322 1041 
Q 450 1253 767 1440 
Q 1084 1628 1822 1897 
L 1822 2009 
Q 1822 2438 1686 2597 
Q 1550 2756 1291 2756 
Q 1094 2756 978 2650 
Q 859 2544 859 2406 
L 866 2225 
Q 866 2081 792 2003 
Q 719 1925 600 1925 
Q 484 1925 411 2006 
Q 338 2088 338 2228 
Q 338 2497 613 2722 
Q 888 2947 1384 2947 
Q 1766 2947 2009 2819 
Q 2194 2722 2281 2516 
Q 2338 2381 2338 1966 
L 2338 994 
Q 2338 584 2353 492 
Q 2369 400 2405 369 
Q 2441 338 2488 338 
Q 2538 338 2575 359 
Q 2641 400 2828 588 
L 2828 413 
Q 2478 -56 2159 -56 
Q 2006 -56 1915 50 
Q 1825 156 1822 413 
z
M 1822 616 
L 1822 1706 
Q 1350 1519 1213 1441 
Q 966 1303 859 1153 
Q 753 1003 753 825 
Q 753 600 887 451 
Q 1022 303 1197 303 
Q 1434 303 1822 616 
z
" transform="scale(0.015625)"/>
       <path id="TimesNewRomanPSMT-6e" d="M 1034 2341 
Q 1538 2947 1994 2947 
Q 2228 2947 2397 2830 
Q 2566 2713 2666 2444 
Q 2734 2256 2734 1869 
L 2734 647 
Q 2734 375 2778 278 
Q 2813 200 2889 156 
Q 2966 113 3172 113 
L 3172 0 
L 1756 0 
L 1756 113 
L 1816 113 
Q 2016 113 2095 173 
Q 2175 234 2206 353 
Q 2219 400 2219 647 
L 2219 1819 
Q 2219 2209 2117 2386 
Q 2016 2563 1775 2563 
Q 1403 2563 1034 2156 
L 1034 647 
Q 1034 356 1069 288 
Q 1113 197 1189 155 
Q 1266 113 1500 113 
L 1500 0 
L 84 0 
L 84 113 
L 147 113 
Q 366 113 442 223 
Q 519 334 519 647 
L 519 1709 
Q 519 2225 495 2337 
Q 472 2450 423 2490 
Q 375 2531 294 2531 
Q 206 2531 84 2484 
L 38 2597 
L 900 2947 
L 1034 2947 
L 1034 2341 
z
" transform="scale(0.015625)"/>
       <path id="TimesNewRomanPSMT-73" d="M 2050 2947 
L 2050 1972 
L 1947 1972 
Q 1828 2431 1642 2597 
Q 1456 2763 1169 2763 
Q 950 2763 815 2647 
Q 681 2531 681 2391 
Q 681 2216 781 2091 
Q 878 1963 1175 1819 
L 1631 1597 
Q 2266 1288 2266 781 
Q 2266 391 1970 151 
Q 1675 -88 1309 -88 
Q 1047 -88 709 6 
Q 606 38 541 38 
Q 469 38 428 -44 
L 325 -44 
L 325 978 
L 428 978 
Q 516 541 762 319 
Q 1009 97 1316 97 
Q 1531 97 1667 223 
Q 1803 350 1803 528 
Q 1803 744 1651 891 
Q 1500 1038 1047 1263 
Q 594 1488 453 1669 
Q 313 1847 313 2119 
Q 313 2472 555 2709 
Q 797 2947 1181 2947 
Q 1350 2947 1591 2875 
Q 1750 2828 1803 2828 
Q 1853 2828 1881 2850 
Q 1909 2872 1947 2947 
L 2050 2947 
z
" transform="scale(0.015625)"/>
      </defs>
      <use xlink:href="#TimesNewRomanPSMT-4e"/>
      <use xlink:href="#TimesNewRomanPSMT-75" transform="translate(72.216797 0)"/>
      <use xlink:href="#TimesNewRomanPSMT-6d" transform="translate(122.216797 0)"/>
      <use xlink:href="#TimesNewRomanPSMT-62" transform="translate(200 0)"/>
      <use xlink:href="#TimesNewRomanPSMT-65" transform="translate(250 0)"/>
      <use xlink:href="#TimesNewRomanPSMT-72" transform="translate(294.384766 0)"/>
      <use xlink:href="#TimesNewRomanPSMT-20" transform="translate(327.685547 0)"/>
      <use xlink:href="#TimesNewRomanPSMT-6f" transform="translate(352.685547 0)"/>
      <use xlink:href="#TimesNewRomanPSMT-66" transform="translate(402.685547 0)"/>
      <use xlink:href="#TimesNewRomanPSMT-20" transform="translate(435.986328 0)"/>
      <use xlink:href="#TimesNewRomanPSMT-69" transform="translate(460.986328 0)"/>
      <use xlink:href="#TimesNewRomanPSMT-74" transform="translate(488.769531 0)"/>
      <use xlink:href="#TimesNewRomanPSMT-65" transform="translate(516.552734 0)"/>
      <use xlink:href="#TimesNewRomanPSMT-72" transform="translate(560.9375 0)"/>
      <use xlink:href="#TimesNewRomanPSMT-61" transform="translate(594.238281 0)"/>
      <use xlink:href="#TimesNewRomanPSMT-74" transform="translate(638.623047 0)"/>
      <use xlink:href="#TimesNewRomanPSMT-69" transform="translate(666.40625 0)"/>
      <use xlink:href="#TimesNewRomanPSMT-6f" transform="translate(694.189453 0)"/>
      <use xlink:href="#TimesNewRomanPSMT-6e" transform="translate(744.189453 0)"/>
      <use xlink:href="#TimesNewRomanPSMT-73" transform="translate(794.189453 0)"/>
     </g>
    </g>
   </g>
   <g id="matplotlib.axis_2">
    <g id="ytick_1">
     <g id="line2d_9">
      <path d="M 394.142438 311.6435 
L 751.262438 311.6435 
" clip-path="url(#p9a2fd9f5a8)" style="fill: none; stroke: #b0b0b0; stroke-opacity: 0.3; stroke-width: 0.8; stroke-linecap: square"/>
     </g>
     <g id="line2d_10">
      <defs>
       <path id="m2dbb9f7496" d="M 0 0 
L -3.5 0 
" style="stroke: #000000; stroke-width: 0.8"/>
      </defs>
      <g>
       <use xlink:href="#m2dbb9f7496" x="394.142438" y="311.6435" style="stroke: #000000; stroke-width: 0.8"/>
      </g>
     </g>
     <g id="text_6">
      <!-- 0.0 -->
      <g transform="translate(359.642438 319.281625) scale(0.22 -0.22)">
       <defs>
        <path id="TimesNewRomanPSMT-2e" d="M 800 606 
Q 947 606 1047 504 
Q 1147 403 1147 259 
Q 1147 116 1045 14 
Q 944 -88 800 -88 
Q 656 -88 554 14 
Q 453 116 453 259 
Q 453 406 554 506 
Q 656 606 800 606 
z
" transform="scale(0.015625)"/>
       </defs>
       <use xlink:href="#TimesNewRomanPSMT-30"/>
       <use xlink:href="#TimesNewRomanPSMT-2e" transform="translate(50 0)"/>
       <use xlink:href="#TimesNewRomanPSMT-30" transform="translate(75 0)"/>
      </g>
     </g>
    </g>
    <g id="ytick_2">
     <g id="line2d_11">
      <path d="M 394.142438 285.0323 
L 751.262438 285.0323 
" clip-path="url(#p9a2fd9f5a8)" style="fill: none; stroke: #b0b0b0; stroke-opacity: 0.3; stroke-width: 0.8; stroke-linecap: square"/>
     </g>
     <g id="line2d_12">
      <g>
       <use xlink:href="#m2dbb9f7496" x="394.142438" y="285.0323" style="stroke: #000000; stroke-width: 0.8"/>
      </g>
     </g>
     <g id="text_7">
      <!-- 0.1 -->
      <g transform="translate(359.642438 292.670425) scale(0.22 -0.22)">
       <use xlink:href="#TimesNewRomanPSMT-30"/>
       <use xlink:href="#TimesNewRomanPSMT-2e" transform="translate(50 0)"/>
       <use xlink:href="#TimesNewRomanPSMT-31" transform="translate(75 0)"/>
      </g>
     </g>
    </g>
    <g id="ytick_3">
     <g id="line2d_13">
      <path d="M 394.142438 258.4211 
L 751.262438 258.4211 
" clip-path="url(#p9a2fd9f5a8)" style="fill: none; stroke: #b0b0b0; stroke-opacity: 0.3; stroke-width: 0.8; stroke-linecap: square"/>
     </g>
     <g id="line2d_14">
      <g>
       <use xlink:href="#m2dbb9f7496" x="394.142438" y="258.4211" style="stroke: #000000; stroke-width: 0.8"/>
      </g>
     </g>
     <g id="text_8">
      <!-- 0.2 -->
      <g transform="translate(359.642438 266.059225) scale(0.22 -0.22)">
       <defs>
        <path id="TimesNewRomanPSMT-32" d="M 2934 816 
L 2638 0 
L 138 0 
L 138 116 
Q 1241 1122 1691 1759 
Q 2141 2397 2141 2925 
Q 2141 3328 1894 3587 
Q 1647 3847 1303 3847 
Q 991 3847 742 3664 
Q 494 3481 375 3128 
L 259 3128 
Q 338 3706 661 4015 
Q 984 4325 1469 4325 
Q 1984 4325 2329 3994 
Q 2675 3663 2675 3213 
Q 2675 2891 2525 2569 
Q 2294 2063 1775 1497 
Q 997 647 803 472 
L 1909 472 
Q 2247 472 2383 497 
Q 2519 522 2628 598 
Q 2738 675 2819 816 
L 2934 816 
z
" transform="scale(0.015625)"/>
       </defs>
       <use xlink:href="#TimesNewRomanPSMT-30"/>
       <use xlink:href="#TimesNewRomanPSMT-2e" transform="translate(50 0)"/>
       <use xlink:href="#TimesNewRomanPSMT-32" transform="translate(75 0)"/>
      </g>
     </g>
    </g>
    <g id="ytick_4">
     <g id="line2d_15">
      <path d="M 394.142438 231.8099 
L 751.262438 231.8099 
" clip-path="url(#p9a2fd9f5a8)" style="fill: none; stroke: #b0b0b0; stroke-opacity: 0.3; stroke-width: 0.8; stroke-linecap: square"/>
     </g>
     <g id="line2d_16">
      <g>
       <use xlink:href="#m2dbb9f7496" x="394.142438" y="231.8099" style="stroke: #000000; stroke-width: 0.8"/>
      </g>
     </g>
     <g id="text_9">
      <!-- 0.3 -->
      <g transform="translate(359.642438 239.448025) scale(0.22 -0.22)">
       <defs>
        <path id="TimesNewRomanPSMT-33" d="M 325 3431 
Q 506 3859 782 4092 
Q 1059 4325 1472 4325 
Q 1981 4325 2253 3994 
Q 2459 3747 2459 3466 
Q 2459 3003 1878 2509 
Q 2269 2356 2469 2072 
Q 2669 1788 2669 1403 
Q 2669 853 2319 450 
Q 1863 -75 997 -75 
Q 569 -75 414 31 
Q 259 138 259 259 
Q 259 350 332 419 
Q 406 488 509 488 
Q 588 488 669 463 
Q 722 447 909 348 
Q 1097 250 1169 231 
Q 1284 197 1416 197 
Q 1734 197 1970 444 
Q 2206 691 2206 1028 
Q 2206 1275 2097 1509 
Q 2016 1684 1919 1775 
Q 1784 1900 1550 2001 
Q 1316 2103 1072 2103 
L 972 2103 
L 972 2197 
Q 1219 2228 1467 2375 
Q 1716 2522 1828 2728 
Q 1941 2934 1941 3181 
Q 1941 3503 1739 3701 
Q 1538 3900 1238 3900 
Q 753 3900 428 3381 
L 325 3431 
z
" transform="scale(0.015625)"/>
       </defs>
       <use xlink:href="#TimesNewRomanPSMT-30"/>
       <use xlink:href="#TimesNewRomanPSMT-2e" transform="translate(50 0)"/>
       <use xlink:href="#TimesNewRomanPSMT-33" transform="translate(75 0)"/>
      </g>
     </g>
    </g>
    <g id="ytick_5">
     <g id="line2d_17">
      <path d="M 394.142438 205.1987 
L 751.262438 205.1987 
" clip-path="url(#p9a2fd9f5a8)" style="fill: none; stroke: #b0b0b0; stroke-opacity: 0.3; stroke-width: 0.8; stroke-linecap: square"/>
     </g>
     <g id="line2d_18">
      <g>
       <use xlink:href="#m2dbb9f7496" x="394.142438" y="205.1987" style="stroke: #000000; stroke-width: 0.8"/>
      </g>
     </g>
     <g id="text_10">
      <!-- 0.4 -->
      <g transform="translate(359.642438 212.836825) scale(0.22 -0.22)">
       <defs>
        <path id="TimesNewRomanPSMT-34" d="M 2978 1563 
L 2978 1119 
L 2409 1119 
L 2409 0 
L 1894 0 
L 1894 1119 
L 100 1119 
L 100 1519 
L 2066 4325 
L 2409 4325 
L 2409 1563 
L 2978 1563 
z
M 1894 1563 
L 1894 3666 
L 406 1563 
L 1894 1563 
z
" transform="scale(0.015625)"/>
       </defs>
       <use xlink:href="#TimesNewRomanPSMT-30"/>
       <use xlink:href="#TimesNewRomanPSMT-2e" transform="translate(50 0)"/>
       <use xlink:href="#TimesNewRomanPSMT-34" transform="translate(75 0)"/>
      </g>
     </g>
    </g>
    <g id="ytick_6">
     <g id="line2d_19">
      <path d="M 394.142438 178.5875 
L 751.262438 178.5875 
" clip-path="url(#p9a2fd9f5a8)" style="fill: none; stroke: #b0b0b0; stroke-opacity: 0.3; stroke-width: 0.8; stroke-linecap: square"/>
     </g>
     <g id="line2d_20">
      <g>
       <use xlink:href="#m2dbb9f7496" x="394.142438" y="178.5875" style="stroke: #000000; stroke-width: 0.8"/>
      </g>
     </g>
     <g id="text_11">
      <!-- 0.5 -->
      <g transform="translate(359.642438 186.225625) scale(0.22 -0.22)">
       <use xlink:href="#TimesNewRomanPSMT-30"/>
       <use xlink:href="#TimesNewRomanPSMT-2e" transform="translate(50 0)"/>
       <use xlink:href="#TimesNewRomanPSMT-35" transform="translate(75 0)"/>
      </g>
     </g>
    </g>
    <g id="ytick_7">
     <g id="line2d_21">
      <path d="M 394.142438 151.9763 
L 751.262438 151.9763 
" clip-path="url(#p9a2fd9f5a8)" style="fill: none; stroke: #b0b0b0; stroke-opacity: 0.3; stroke-width: 0.8; stroke-linecap: square"/>
     </g>
     <g id="line2d_22">
      <g>
       <use xlink:href="#m2dbb9f7496" x="394.142438" y="151.9763" style="stroke: #000000; stroke-width: 0.8"/>
      </g>
     </g>
     <g id="text_12">
      <!-- 0.6 -->
      <g transform="translate(359.642438 159.614425) scale(0.22 -0.22)">
       <defs>
        <path id="TimesNewRomanPSMT-36" d="M 2869 4325 
L 2869 4209 
Q 2456 4169 2195 4045 
Q 1934 3922 1679 3669 
Q 1425 3416 1258 3105 
Q 1091 2794 978 2366 
Q 1428 2675 1881 2675 
Q 2316 2675 2634 2325 
Q 2953 1975 2953 1425 
Q 2953 894 2631 456 
Q 2244 -75 1606 -75 
Q 1172 -75 869 213 
Q 275 772 275 1663 
Q 275 2231 503 2743 
Q 731 3256 1154 3653 
Q 1578 4050 1965 4187 
Q 2353 4325 2688 4325 
L 2869 4325 
z
M 925 2138 
Q 869 1716 869 1456 
Q 869 1156 980 804 
Q 1091 453 1309 247 
Q 1469 100 1697 100 
Q 1969 100 2183 356 
Q 2397 613 2397 1088 
Q 2397 1622 2184 2012 
Q 1972 2403 1581 2403 
Q 1463 2403 1327 2353 
Q 1191 2303 925 2138 
z
" transform="scale(0.015625)"/>
       </defs>
       <use xlink:href="#TimesNewRomanPSMT-30"/>
       <use xlink:href="#TimesNewRomanPSMT-2e" transform="translate(50 0)"/>
       <use xlink:href="#TimesNewRomanPSMT-36" transform="translate(75 0)"/>
      </g>
     </g>
    </g>
    <g id="ytick_8">
     <g id="line2d_23">
      <path d="M 394.142438 125.3651 
L 751.262438 125.3651 
" clip-path="url(#p9a2fd9f5a8)" style="fill: none; stroke: #b0b0b0; stroke-opacity: 0.3; stroke-width: 0.8; stroke-linecap: square"/>
     </g>
     <g id="line2d_24">
      <g>
       <use xlink:href="#m2dbb9f7496" x="394.142438" y="125.3651" style="stroke: #000000; stroke-width: 0.8"/>
      </g>
     </g>
     <g id="text_13">
      <!-- 0.7 -->
      <g transform="translate(359.642438 133.003225) scale(0.22 -0.22)">
       <defs>
        <path id="TimesNewRomanPSMT-37" d="M 644 4238 
L 2916 4238 
L 2916 4119 
L 1503 -88 
L 1153 -88 
L 2419 3728 
L 1253 3728 
Q 900 3728 750 3644 
Q 488 3500 328 3200 
L 238 3234 
L 644 4238 
z
" transform="scale(0.015625)"/>
       </defs>
       <use xlink:href="#TimesNewRomanPSMT-30"/>
       <use xlink:href="#TimesNewRomanPSMT-2e" transform="translate(50 0)"/>
       <use xlink:href="#TimesNewRomanPSMT-37" transform="translate(75 0)"/>
      </g>
     </g>
    </g>
    <g id="ytick_9">
     <g id="line2d_25">
      <path d="M 394.142438 98.7539 
L 751.262438 98.7539 
" clip-path="url(#p9a2fd9f5a8)" style="fill: none; stroke: #b0b0b0; stroke-opacity: 0.3; stroke-width: 0.8; stroke-linecap: square"/>
     </g>
     <g id="line2d_26">
      <g>
       <use xlink:href="#m2dbb9f7496" x="394.142438" y="98.7539" style="stroke: #000000; stroke-width: 0.8"/>
      </g>
     </g>
     <g id="text_14">
      <!-- 0.8 -->
      <g transform="translate(359.642438 106.392025) scale(0.22 -0.22)">
       <defs>
        <path id="TimesNewRomanPSMT-38" d="M 1228 2134 
Q 725 2547 579 2797 
Q 434 3047 434 3316 
Q 434 3728 753 4026 
Q 1072 4325 1600 4325 
Q 2113 4325 2425 4047 
Q 2738 3769 2738 3413 
Q 2738 3175 2569 2928 
Q 2400 2681 1866 2347 
Q 2416 1922 2594 1678 
Q 2831 1359 2831 1006 
Q 2831 559 2490 242 
Q 2150 -75 1597 -75 
Q 994 -75 656 303 
Q 388 606 388 966 
Q 388 1247 577 1523 
Q 766 1800 1228 2134 
z
M 1719 2469 
Q 2094 2806 2194 3001 
Q 2294 3197 2294 3444 
Q 2294 3772 2109 3958 
Q 1925 4144 1606 4144 
Q 1288 4144 1088 3959 
Q 888 3775 888 3528 
Q 888 3366 970 3203 
Q 1053 3041 1206 2894 
L 1719 2469 
z
M 1375 2016 
Q 1116 1797 991 1539 
Q 866 1281 866 981 
Q 866 578 1086 336 
Q 1306 94 1647 94 
Q 1984 94 2187 284 
Q 2391 475 2391 747 
Q 2391 972 2272 1150 
Q 2050 1481 1375 2016 
z
" transform="scale(0.015625)"/>
       </defs>
       <use xlink:href="#TimesNewRomanPSMT-30"/>
       <use xlink:href="#TimesNewRomanPSMT-2e" transform="translate(50 0)"/>
       <use xlink:href="#TimesNewRomanPSMT-38" transform="translate(75 0)"/>
      </g>
     </g>
    </g>
    <g id="ytick_10">
     <g id="line2d_27">
      <path d="M 394.142438 72.1427 
L 751.262438 72.1427 
" clip-path="url(#p9a2fd9f5a8)" style="fill: none; stroke: #b0b0b0; stroke-opacity: 0.3; stroke-width: 0.8; stroke-linecap: square"/>
     </g>
     <g id="line2d_28">
      <g>
       <use xlink:href="#m2dbb9f7496" x="394.142438" y="72.1427" style="stroke: #000000; stroke-width: 0.8"/>
      </g>
     </g>
     <g id="text_15">
      <!-- 0.9 -->
      <g transform="translate(359.642438 79.780825) scale(0.22 -0.22)">
       <defs>
        <path id="TimesNewRomanPSMT-39" d="M 338 -88 
L 338 28 
Q 744 34 1094 217 
Q 1444 400 1770 856 
Q 2097 1313 2225 1859 
Q 1734 1544 1338 1544 
Q 891 1544 572 1889 
Q 253 2234 253 2806 
Q 253 3363 572 3797 
Q 956 4325 1575 4325 
Q 2097 4325 2469 3894 
Q 2925 3359 2925 2575 
Q 2925 1869 2578 1258 
Q 2231 647 1613 244 
Q 1109 -88 516 -88 
L 338 -88 
z
M 2275 2091 
Q 2331 2497 2331 2741 
Q 2331 3044 2228 3395 
Q 2125 3747 1936 3934 
Q 1747 4122 1506 4122 
Q 1228 4122 1018 3872 
Q 809 3622 809 3128 
Q 809 2469 1088 2097 
Q 1291 1828 1588 1828 
Q 1731 1828 1928 1897 
Q 2125 1966 2275 2091 
z
" transform="scale(0.015625)"/>
       </defs>
       <use xlink:href="#TimesNewRomanPSMT-30"/>
       <use xlink:href="#TimesNewRomanPSMT-2e" transform="translate(50 0)"/>
       <use xlink:href="#TimesNewRomanPSMT-39" transform="translate(75 0)"/>
      </g>
     </g>
    </g>
    <g id="ytick_11">
     <g id="line2d_29">
      <path d="M 394.142438 45.5315 
L 751.262438 45.5315 
" clip-path="url(#p9a2fd9f5a8)" style="fill: none; stroke: #b0b0b0; stroke-opacity: 0.3; stroke-width: 0.8; stroke-linecap: square"/>
     </g>
     <g id="line2d_30">
      <g>
       <use xlink:href="#m2dbb9f7496" x="394.142438" y="45.5315" style="stroke: #000000; stroke-width: 0.8"/>
      </g>
     </g>
     <g id="text_16">
      <!-- 1.0 -->
      <g transform="translate(359.642438 53.169625) scale(0.22 -0.22)">
       <use xlink:href="#TimesNewRomanPSMT-31"/>
       <use xlink:href="#TimesNewRomanPSMT-2e" transform="translate(50 0)"/>
       <use xlink:href="#TimesNewRomanPSMT-30" transform="translate(75 0)"/>
      </g>
     </g>
    </g>
    <g id="text_17">
     <!-- Accuracy -->
     <g transform="translate(350.89525 220.726094) rotate(-90) scale(0.22 -0.22)">
      <defs>
       <path id="TimesNewRomanPSMT-41" d="M 2928 1419 
L 1288 1419 
L 1000 750 
Q 894 503 894 381 
Q 894 284 986 211 
Q 1078 138 1384 116 
L 1384 0 
L 50 0 
L 50 116 
Q 316 163 394 238 
Q 553 388 747 847 
L 2238 4334 
L 2347 4334 
L 3822 809 
Q 4000 384 4145 257 
Q 4291 131 4550 116 
L 4550 0 
L 2878 0 
L 2878 116 
Q 3131 128 3220 200 
Q 3309 272 3309 375 
Q 3309 513 3184 809 
L 2928 1419 
z
M 2841 1650 
L 2122 3363 
L 1384 1650 
L 2841 1650 
z
" transform="scale(0.015625)"/>
       <path id="TimesNewRomanPSMT-63" d="M 2631 1088 
Q 2516 522 2178 217 
Q 1841 -88 1431 -88 
Q 944 -88 581 321 
Q 219 731 219 1428 
Q 219 2103 620 2525 
Q 1022 2947 1584 2947 
Q 2006 2947 2278 2723 
Q 2550 2500 2550 2259 
Q 2550 2141 2473 2067 
Q 2397 1994 2259 1994 
Q 2075 1994 1981 2113 
Q 1928 2178 1911 2362 
Q 1894 2547 1784 2644 
Q 1675 2738 1481 2738 
Q 1169 2738 978 2506 
Q 725 2200 725 1697 
Q 725 1184 976 792 
Q 1228 400 1656 400 
Q 1963 400 2206 609 
Q 2378 753 2541 1131 
L 2631 1088 
z
" transform="scale(0.015625)"/>
       <path id="TimesNewRomanPSMT-79" d="M 38 2863 
L 1372 2863 
L 1372 2747 
L 1306 2747 
Q 1166 2747 1095 2686 
Q 1025 2625 1025 2534 
Q 1025 2413 1128 2197 
L 1825 753 
L 2466 2334 
Q 2519 2463 2519 2588 
Q 2519 2644 2497 2672 
Q 2472 2706 2419 2726 
Q 2366 2747 2231 2747 
L 2231 2863 
L 3163 2863 
L 3163 2747 
Q 3047 2734 2984 2696 
Q 2922 2659 2847 2556 
Q 2819 2513 2741 2316 
L 1575 -541 
Q 1406 -956 1132 -1168 
Q 859 -1381 606 -1381 
Q 422 -1381 303 -1275 
Q 184 -1169 184 -1031 
Q 184 -900 270 -820 
Q 356 -741 506 -741 
Q 609 -741 788 -809 
Q 913 -856 944 -856 
Q 1038 -856 1148 -759 
Q 1259 -663 1372 -384 
L 1575 113 
L 547 2272 
Q 500 2369 397 2513 
Q 319 2622 269 2659 
Q 197 2709 38 2747 
L 38 2863 
z
" transform="scale(0.015625)"/>
      </defs>
      <use xlink:href="#TimesNewRomanPSMT-41"/>
      <use xlink:href="#TimesNewRomanPSMT-63" transform="translate(72.216797 0)"/>
      <use xlink:href="#TimesNewRomanPSMT-63" transform="translate(116.601562 0)"/>
      <use xlink:href="#TimesNewRomanPSMT-75" transform="translate(160.986328 0)"/>
      <use xlink:href="#TimesNewRomanPSMT-72" transform="translate(210.986328 0)"/>
      <use xlink:href="#TimesNewRomanPSMT-61" transform="translate(244.287109 0)"/>
      <use xlink:href="#TimesNewRomanPSMT-63" transform="translate(288.671875 0)"/>
      <use xlink:href="#TimesNewRomanPSMT-79" transform="translate(333.056641 0)"/>
     </g>
    </g>
   </g>
   <g id="line2d_31">
    <path d="M 394.142438 178.5875 
L 394.340948 145.678322 
L 394.737968 137.17752 
L 395.532009 129.120237 
L 395.73052 129.046306 
L 395.92903 128.706283 
L 396.723071 123.960614 
L 396.921581 123.886699 
L 397.318602 122.570923 
L 397.517112 123.162288 
L 397.914133 121.550822 
L 398.311153 120.826411 
L 398.509664 122.097838 
L 398.708174 120.604651 
L 398.906684 121.003822 
L 399.303705 119.895023 
L 399.700725 119.998504 
L 399.899236 119.126247 
L 400.097746 119.776744 
L 400.693277 118.342705 
L 401.090297 118.874922 
L 401.487318 118.268774 
L 401.685828 118.74186 
L 401.884339 117.85482 
L 402.281359 119.466286 
L 402.67838 117.455665 
L 402.87689 119.303658 
L 403.0754 117.721774 
L 403.472421 117.174758 
L 403.670931 118.239208 
L 404.067952 117.736557 
L 404.266462 117.381735 
L 404.464972 117.662626 
L 404.663483 116.775587 
L 404.861993 117.647843 
L 405.060503 116.775587 
L 405.259013 116.539045 
L 405.457524 116.494696 
L 405.854544 118.120945 
L 406.251565 116.302502 
L 406.648585 117.204324 
L 406.847096 116.952998 
L 407.244116 115.918114 
L 407.442626 116.272936 
L 407.641137 117.470448 
L 407.839647 116.746021 
L 408.038157 117.322603 
L 408.236668 115.977262 
L 408.435178 116.391215 
L 408.633688 117.189541 
L 408.832198 116.524262 
L 409.030709 116.598192 
L 409.229219 118.047014 
L 409.427729 116.952998 
L 409.62624 117.455665 
L 409.82475 116.805169 
L 410.02326 116.908649 
L 410.22177 115.844199 
L 410.420281 116.095525 
L 410.817301 115.696354 
L 411.015812 116.760804 
L 411.214322 116.110308 
L 411.412832 116.405998 
L 411.611342 117.30782 
L 411.809853 115.696354 
L 412.008363 116.213804 
L 412.206873 116.095525 
L 412.405384 116.391215 
L 412.603894 116.02161 
L 412.802404 116.509479 
L 413.000914 115.666788 
L 413.199425 116.169455 
L 413.397935 115.992044 
L 413.596445 116.006827 
L 413.794956 116.657324 
L 413.993466 115.977262 
L 414.191976 116.199021 
L 414.588997 115.858982 
L 414.787507 116.598192 
L 414.986017 116.612975 
L 415.184528 116.420781 
L 415.383038 116.849518 
L 415.581548 116.553827 
L 415.780058 115.888548 
L 416.177079 115.666788 
L 416.5741 116.627758 
L 416.77261 116.642541 
L 416.97112 117.01213 
L 417.16963 115.903331 
L 417.368141 116.302502 
L 417.566651 115.903331 
L 417.963672 116.287719 
L 418.162182 116.553827 
L 418.360692 116.346851 
L 418.559202 115.814633 
L 418.956223 116.627758 
L 419.154733 116.494696 
L 419.353244 116.036393 
L 419.551754 116.036393 
L 419.750264 116.184238 
L 419.948774 115.873765 
L 420.345795 116.13989 
L 420.742815 115.725936 
L 420.941326 116.46513 
L 421.139836 115.903331 
L 421.338346 116.036393 
L 421.735367 115.903331 
L 421.933877 115.918114 
L 422.132387 115.459811 
L 422.529408 115.858982 
L 422.727918 116.006827 
L 422.926429 116.509479 
L 423.124939 116.346851 
L 423.323449 116.56861 
L 423.521959 115.637222 
L 423.72047 116.391215 
L 424.11749 116.154673 
L 424.316001 115.607657 
L 424.911531 116.332068 
L 425.110042 115.785068 
L 425.507062 116.450347 
L 425.705573 115.578091 
L 425.904083 116.154673 
L 426.102593 115.947696 
L 426.301103 116.095525 
L 426.499614 115.977262 
L 426.698124 117.01213 
L 427.095145 115.326765 
L 427.492165 116.332068 
L 427.690675 116.169455 
L 427.889186 116.627758 
L 428.286206 116.095525 
L 428.484717 116.361649 
L 428.683227 116.435564 
L 428.881737 115.696354 
L 429.080247 115.829416 
L 429.278758 116.110308 
L 429.477268 115.932913 
L 429.675778 116.169455 
L 429.874289 116.02161 
L 430.271309 116.065959 
L 430.469819 115.918114 
L 430.66833 116.361649 
L 430.86684 116.036393 
L 431.263861 115.903331 
L 431.462371 116.036393 
L 431.660881 115.829416 
L 431.859391 115.858982 
L 432.256412 116.317285 
L 432.653432 115.962479 
L 432.851943 116.065959 
L 433.248963 115.932913 
L 433.447474 116.539045 
L 433.645984 116.435564 
L 434.043004 116.095525 
L 434.440025 115.932913 
L 434.837046 116.317285 
L 435.035556 116.24337 
L 435.234066 116.391215 
L 435.432576 116.125091 
L 435.631087 116.272936 
L 435.829597 115.637222 
L 436.226618 116.065959 
L 436.425128 115.740719 
L 436.623638 115.962479 
L 436.822148 115.740719 
L 437.020659 116.036393 
L 437.417679 115.578091 
L 437.8147 116.065959 
L 438.21172 115.607657 
L 438.410231 115.548525 
L 438.608741 116.228587 
L 438.807251 115.740719 
L 439.005762 115.725936 
L 439.204272 115.962479 
L 439.402782 115.844199 
L 439.601292 116.376432 
L 439.799803 116.051176 
L 439.998313 116.051176 
L 440.196823 115.903331 
L 440.395334 116.317285 
L 440.593844 116.036393 
L 440.990864 115.888548 
L 441.189375 116.56861 
L 441.387885 115.873765 
L 441.784906 115.755502 
L 442.181926 115.947696 
L 442.380436 115.725936 
L 442.578947 116.065959 
L 442.777457 115.40068 
L 442.975967 115.814633 
L 443.372988 115.755502 
L 443.770008 116.065959 
L 444.167029 115.947696 
L 444.365539 115.666788 
L 444.56405 115.666788 
L 444.96107 115.977262 
L 445.15958 115.992044 
L 445.358091 116.213804 
L 445.556601 116.02161 
L 445.755111 116.184238 
L 446.350642 115.533742 
L 446.747663 115.652005 
L 447.343193 115.548525 
L 447.740214 115.814633 
L 447.938724 115.62244 
L 448.137235 115.858982 
L 448.534255 115.607657 
L 448.931276 115.755502 
L 449.328296 115.755502 
L 449.526807 115.888548 
L 449.923827 115.652005 
L 450.122337 115.563308 
L 450.320848 115.740719 
L 450.519358 115.740719 
L 450.916379 116.036393 
L 451.313399 115.62244 
L 451.71042 115.829416 
L 451.90893 115.341548 
L 452.10744 115.489393 
L 452.305951 115.992044 
L 452.504461 115.533742 
L 452.702971 115.947696 
L 452.901481 115.711153 
L 453.099992 115.799851 
L 453.298502 115.489393 
L 453.894033 115.755502 
L 454.291053 115.844199 
L 454.489564 115.711153 
L 454.886584 115.858982 
L 455.283605 115.607657 
L 455.482115 115.740719 
L 455.680625 115.666788 
L 455.879136 115.992044 
L 456.077646 115.829416 
L 456.276156 115.947696 
L 457.070197 115.696354 
L 457.268708 115.785068 
L 457.467218 115.711153 
L 457.665728 115.799851 
L 457.864239 115.637222 
L 458.062749 115.799851 
L 458.459769 115.740719 
L 459.0553 115.918114 
L 459.25381 115.799851 
L 459.452321 115.932913 
L 460.643382 115.740719 
L 460.841893 116.006827 
L 461.238913 115.592874 
L 461.437424 115.844199 
L 461.635934 115.799851 
L 461.834444 115.903331 
L 462.231465 115.592874 
L 462.429975 115.873765 
L 462.628485 115.637222 
L 462.826996 115.903331 
L 463.224016 115.844199 
L 463.621037 115.533742 
L 464.415078 115.829416 
L 464.613588 115.814633 
L 464.812098 115.962479 
L 465.209119 115.725936 
L 465.407629 116.036393 
L 465.60614 116.095525 
L 466.00316 115.62244 
L 466.20167 115.888548 
L 466.400181 115.711153 
L 466.598691 116.02161 
L 466.797201 115.785068 
L 467.194222 115.799851 
L 467.789753 115.607657 
L 467.988263 115.696354 
L 468.186773 115.918114 
L 469.774856 115.932913 
L 469.973366 115.725936 
L 470.171876 116.080742 
L 470.370386 115.711153 
L 470.568897 115.829416 
L 470.767407 115.533742 
L 470.965917 115.873765 
L 471.164427 115.873765 
L 471.362938 115.992044 
L 471.561448 115.844199 
L 472.156979 115.829416 
L 472.355489 116.110308 
L 472.75251 115.770285 
L 472.95102 115.947696 
L 473.14953 115.725936 
L 473.348041 115.947696 
L 473.745061 115.829416 
L 474.340592 115.711153 
L 474.539102 115.903331 
L 475.134633 115.770285 
L 475.333143 115.903331 
L 475.531654 115.607657 
L 475.730164 115.681571 
L 475.928674 115.977262 
L 476.127185 115.681571 
L 476.722715 115.903331 
L 476.921226 115.637222 
L 477.119736 115.858982 
L 477.318246 115.637222 
L 477.516757 115.770285 
L 477.715267 115.489393 
L 478.112287 115.814633 
L 478.310798 115.711153 
L 478.509308 115.888548 
L 478.707818 115.799851 
L 479.303349 116.006827 
L 479.501859 115.666788 
L 479.70037 115.785068 
L 480.09739 115.696354 
L 480.494411 115.637222 
L 480.692921 115.888548 
L 480.891431 115.666788 
L 481.089942 115.755502 
L 481.288452 115.637222 
L 481.883983 115.829416 
L 482.082493 115.652005 
L 482.281003 115.903331 
L 482.479514 115.888548 
L 482.678024 115.725936 
L 482.876534 115.903331 
L 483.075045 115.607657 
L 483.273555 116.036393 
L 483.670575 115.903331 
L 483.869086 115.873765 
L 484.067596 115.62244 
L 484.266106 115.785068 
L 484.464616 115.666788 
L 484.663127 115.962479 
L 485.060147 115.696354 
L 485.457168 115.947696 
L 485.655678 115.785068 
L 485.854188 115.814633 
L 486.052699 115.992044 
L 486.251209 115.666788 
L 486.449719 115.785068 
L 486.64823 115.725936 
L 486.84674 115.829416 
L 487.04525 115.637222 
L 487.24376 115.918114 
L 487.442271 115.518959 
L 488.236312 115.903331 
L 488.633332 115.962479 
L 488.831843 115.652005 
L 489.228863 115.799851 
L 489.427374 115.637222 
L 490.221415 116.080742 
L 490.618435 115.666788 
L 490.816946 115.918114 
L 491.015456 115.725936 
L 491.213966 115.770285 
L 491.412476 115.932913 
L 491.610987 115.666788 
L 492.206518 115.814633 
L 492.603538 115.637222 
L 493.59609 115.873765 
L 493.7946 115.740719 
L 493.99311 115.918114 
L 494.19162 115.592874 
L 494.588641 115.844199 
L 494.787151 115.740719 
L 494.985662 115.947696 
L 495.779703 115.755502 
L 495.978213 115.740719 
L 496.176723 115.918114 
L 496.573744 115.799851 
L 497.169275 115.962479 
L 497.367785 115.711153 
L 497.566295 115.696354 
L 497.764805 115.992044 
L 498.161826 115.563308 
L 498.360336 115.725936 
L 498.558847 115.740719 
L 498.757357 115.888548 
L 499.352888 115.666788 
L 499.749908 115.814633 
L 499.948419 115.62244 
L 500.146929 115.992044 
L 500.345439 115.504176 
L 500.543949 115.785068 
L 501.933521 115.711153 
L 502.132032 115.947696 
L 502.330542 115.888548 
L 502.529052 116.036393 
L 502.727563 115.873765 
L 502.926073 115.962479 
L 503.720114 115.814633 
L 504.117135 115.770285 
L 504.514155 115.844199 
L 504.911176 116.154673 
L 505.109686 115.681571 
L 505.705217 115.918114 
L 505.903727 115.711153 
L 506.300748 115.947696 
L 506.499258 115.799851 
L 506.896279 115.962479 
L 507.293299 115.844199 
L 507.69032 116.006827 
L 507.88883 115.814633 
L 508.484361 115.918114 
L 508.682871 116.036393 
L 508.881381 115.799851 
L 509.079892 115.962479 
L 509.476912 115.814633 
L 509.675422 115.947696 
L 509.873933 115.755502 
L 510.270953 116.125091 
L 510.469464 115.696354 
L 510.866484 115.459811 
L 511.064994 115.740719 
L 511.859036 115.711153 
L 512.057546 115.932913 
L 512.454566 115.755502 
L 512.653077 115.755502 
L 512.851587 115.932913 
L 513.645628 115.607657 
L 513.844138 115.755502 
L 514.042649 115.740719 
L 514.241159 115.873765 
L 514.63818 115.711153 
L 515.0352 115.873765 
L 515.432221 115.785068 
L 515.630731 115.740719 
L 515.829241 116.420781 
L 516.226262 115.637222 
L 516.821793 115.858982 
L 517.020303 115.799851 
L 517.218813 115.962479 
L 517.615834 115.607657 
L 517.814344 115.932913 
L 518.806896 115.799851 
L 519.203916 115.903331 
L 519.402426 115.770285 
L 519.600937 116.051176 
L 519.799447 115.858982 
L 520.196468 115.932913 
L 520.394978 115.829416 
L 520.593488 115.947696 
L 520.791998 115.770285 
L 520.990509 115.932913 
L 521.189019 115.947696 
L 521.387529 115.740719 
L 521.58604 115.873765 
L 521.78455 115.814633 
L 521.98306 115.977262 
L 522.380081 115.829416 
L 522.578591 115.858982 
L 522.777101 115.725936 
L 523.174122 116.036393 
L 523.571142 115.725936 
L 523.968163 115.918114 
L 524.166673 115.903331 
L 524.365183 115.770285 
L 524.762204 115.918114 
L 524.960714 115.666788 
L 525.159225 115.962479 
L 525.556245 115.918114 
L 525.754755 115.740719 
L 526.151776 116.036393 
L 526.350286 115.740719 
L 526.747307 115.652005 
L 527.144327 115.829416 
L 527.541348 115.888548 
L 527.739858 115.607657 
L 527.938369 115.888548 
L 528.335389 115.888548 
L 528.533899 115.666788 
L 528.93092 115.873765 
L 530.320492 115.947696 
L 530.519002 115.711153 
L 530.717513 115.770285 
L 530.916023 115.977262 
L 531.313043 115.725936 
L 531.511554 116.095525 
L 531.710064 115.592874 
L 531.908574 115.903331 
L 532.107085 115.873765 
L 532.305595 115.696354 
L 532.702615 115.711153 
L 532.901126 115.932913 
L 533.099636 115.755502 
L 533.496657 116.13989 
L 533.695167 123.975397 
L 533.893677 122.689187 
L 534.092187 125.305956 
L 534.290698 119.747178 
L 534.489208 119.88024 
L 534.687718 117.913968 
L 534.886228 117.899185 
L 535.084739 115.962479 
L 535.283249 115.489393 
L 537.268352 115.134571 
L 537.665372 115.267633 
L 538.260903 115.149354 
L 538.459414 115.282416 
L 538.657924 115.208486 
L 538.856434 115.311982 
L 539.054944 115.223269 
L 539.451965 115.385897 
L 539.650475 115.267633 
L 540.047496 115.267633 
L 540.246006 115.17892 
L 541.437068 115.371114 
L 541.834088 115.311982 
L 543.02515 115.223269 
L 543.819191 115.252835 
L 544.017702 115.193703 
L 544.414722 115.282416 
L 544.811743 115.17892 
L 545.010253 115.385897 
L 545.208763 115.193703 
L 545.407274 115.252835 
L 545.605784 115.164137 
L 545.804294 115.311982 
L 546.399825 115.193703 
L 546.598335 115.282416 
L 546.995356 115.164137 
L 548.186417 115.356331 
L 549.7745 115.326765 
L 549.97301 115.341548 
L 550.17152 115.208486 
L 550.370031 115.341548 
L 550.568541 115.223269 
L 550.767051 115.326765 
L 551.561092 115.208486 
L 552.553644 115.267633 
L 552.752154 115.17892 
L 553.943216 115.356331 
L 554.340236 115.223269 
L 555.928319 115.297199 
L 556.126829 115.208486 
L 556.325339 115.326765 
L 556.72236 115.311982 
L 557.317891 115.341548 
L 557.714911 115.282416 
L 559.104483 115.326765 
L 559.302993 115.17892 
L 559.501504 115.356331 
L 559.898524 115.252835 
L 560.494055 115.297199 
L 560.692565 115.311982 
L 560.891076 115.445029 
L 562.280648 115.311982 
L 562.677668 115.371114 
L 563.074689 115.385897 
L 563.273199 115.40068 
L 563.471709 115.282416 
L 563.67022 115.371114 
L 564.06724 115.267633 
L 564.662771 115.459811 
L 565.059792 115.341548 
L 566.052343 115.415463 
L 566.250853 115.326765 
L 566.449364 115.459811 
L 567.640425 115.356331 
L 568.037446 115.489393 
L 568.632977 115.385897 
L 569.824038 115.489393 
L 570.022549 115.504176 
L 570.221059 115.385897 
L 570.81659 115.62244 
L 571.0151 115.415463 
L 571.21361 115.578091 
L 571.610631 115.445029 
L 572.404672 115.430246 
L 573.198713 115.548525 
L 573.794244 115.918114 
L 574.191265 115.518959 
L 574.389775 115.40068 
L 574.786795 115.711153 
L 575.183816 115.518959 
L 575.382326 115.607657 
L 575.580837 115.548525 
L 575.977857 115.681571 
L 576.374878 115.578091 
L 579.551042 115.637222 
L 579.948063 115.652005 
L 580.146573 115.592874 
L 580.345083 115.652005 
L 580.543594 115.563308 
L 580.742104 115.696354 
L 580.940614 115.592874 
L 581.139125 115.711153 
L 581.536145 115.666788 
L 584.315289 115.770285 
L 584.513799 115.533742 
L 584.91082 115.666788 
L 585.307841 115.681571 
L 585.704861 115.652005 
L 585.903371 115.666788 
L 586.101882 115.563308 
L 586.300392 115.725936 
L 586.498902 115.592874 
L 587.292943 115.740719 
L 587.491454 115.592874 
L 588.086984 115.666788 
L 589.476556 115.637222 
L 589.675067 115.548525 
L 589.873577 115.62244 
L 590.072087 115.563308 
L 590.270598 115.666788 
L 590.866128 115.518959 
L 591.66017 115.563308 
L 592.2557 115.592874 
L 592.454211 115.504176 
L 593.248252 115.607657 
L 593.843783 115.607657 
L 594.042293 115.459811 
L 594.637824 115.637222 
L 595.034844 115.563308 
L 595.431865 115.696354 
L 595.630375 115.592874 
L 595.828886 115.725936 
L 596.027396 115.607657 
L 596.622927 115.652005 
L 597.019947 115.666788 
L 597.416968 115.681571 
L 597.615478 115.563308 
L 598.012499 115.666788 
L 599.20356 115.563308 
L 599.600581 115.592874 
L 600.990153 115.578091 
L 601.387173 115.578091 
L 601.784194 115.459811 
L 601.982704 115.637222 
L 602.578235 115.548525 
L 602.776745 115.681571 
L 603.173766 115.62244 
L 603.372276 115.740719 
L 603.570787 115.578091 
L 603.967807 115.681571 
L 606.15142 115.533742 
L 606.349931 115.637222 
L 606.548441 115.459811 
L 607.143972 115.592874 
L 610.518647 115.637222 
L 610.717157 115.814633 
L 611.114177 115.592874 
L 611.511198 115.711153 
L 611.709708 115.563308 
L 612.106729 115.652005 
L 614.885873 115.607657 
L 615.084383 115.489393 
L 615.282893 115.711153 
L 615.878424 115.607657 
L 616.672465 115.711153 
L 618.657568 115.652005 
L 618.856078 115.681571 
L 619.054589 115.578091 
L 619.451609 115.62244 
L 619.84863 115.681571 
L 620.04714 115.578091 
L 620.642671 115.696354 
L 621.039692 115.696354 
L 621.436712 115.696354 
L 621.635222 115.666788 
L 621.833733 115.799851 
L 622.230753 115.725936 
L 622.627774 115.666788 
L 622.826284 115.578091 
L 623.024794 115.725936 
L 623.223305 115.533742 
L 623.620325 115.725936 
L 623.818835 115.637222 
L 624.414366 115.711153 
L 624.811387 115.696354 
L 625.009897 115.829416 
L 625.208407 115.711153 
L 626.597979 115.785068 
L 626.79649 115.696354 
L 626.995 115.755502 
L 627.19351 115.666788 
L 627.392021 115.770285 
L 627.590531 115.637222 
L 627.789041 115.785068 
L 627.987551 115.725936 
L 628.384572 115.814633 
L 628.781593 115.666788 
L 629.377123 115.755502 
L 629.774144 115.696354 
L 631.362226 115.740719 
L 631.560737 115.578091 
L 632.950309 115.740719 
L 633.148819 115.637222 
L 633.74435 115.755502 
L 633.94286 115.681571 
L 634.339881 115.740719 
L 634.935411 115.666788 
L 635.133922 115.607657 
L 635.729453 115.814633 
L 636.523494 115.725936 
L 636.722004 115.814633 
L 636.920514 115.755502 
L 637.317535 115.785068 
L 637.516045 115.785068 
L 637.714555 115.947696 
L 637.913066 115.681571 
L 640.295189 115.785068 
L 640.493699 115.740719 
L 640.69221 115.858982 
L 640.89072 115.696354 
L 642.677312 115.770285 
L 643.074333 115.666788 
L 643.272843 115.770285 
L 643.868374 115.725936 
L 644.265395 115.711153 
L 644.463905 115.681571 
L 644.662415 115.785068 
L 644.860926 115.652005 
L 645.654967 115.755502 
L 652.404316 115.740719 
L 652.602827 115.430246 
L 652.999847 115.711153 
L 653.198357 115.666788 
L 653.396868 115.504176 
L 653.992399 115.770285 
L 654.78644 115.666788 
L 654.98495 115.858982 
L 655.381971 115.681571 
L 655.778991 115.740719 
L 656.374522 115.799851 
L 656.573032 115.607657 
L 656.771543 115.711153 
L 657.168563 115.696354 
L 657.565584 115.829416 
L 658.558135 115.785068 
L 658.756645 115.858982 
L 658.955156 115.725936 
L 659.153666 115.903331 
L 659.352176 115.873765 
L 659.550687 115.711153 
L 659.947707 115.770285 
L 660.344728 115.725936 
L 660.543238 115.858982 
L 660.741748 115.740719 
L 660.940259 115.799851 
L 661.138769 115.681571 
L 661.535789 115.873765 
L 661.93281 115.711153 
L 662.13132 115.903331 
L 662.528341 115.770285 
L 662.925361 115.873765 
L 663.322382 115.740719 
L 663.520892 115.829416 
L 663.917913 115.711153 
L 664.116423 115.903331 
L 664.314933 115.799851 
L 664.513444 115.858982 
L 664.711954 115.711153 
L 664.910464 115.918114 
L 665.307485 115.858982 
L 665.505995 115.888548 
L 665.903016 115.770285 
L 666.101526 115.873765 
L 666.498546 115.814633 
L 666.895567 115.918114 
L 667.094077 115.770285 
L 668.086629 115.873765 
L 668.483649 115.829416 
L 668.88067 115.858982 
L 669.07918 115.725936 
L 669.476201 115.814633 
L 672.056834 115.829416 
L 672.255345 115.681571 
L 672.652365 115.770285 
L 673.446406 115.785068 
L 673.644917 115.711153 
L 674.041937 115.844199 
L 674.240448 115.725936 
L 674.438958 115.858982 
L 674.835978 115.755502 
L 675.630019 115.740719 
L 675.82853 115.873765 
L 676.02704 115.711153 
L 676.424061 115.814633 
L 676.622571 115.652005 
L 676.821081 115.858982 
L 677.416612 115.740719 
L 677.615122 115.918114 
L 677.813633 115.755502 
L 678.012143 115.903331 
L 678.210653 115.711153 
L 678.806184 115.725936 
L 679.004694 115.947696 
L 679.203205 115.962479 
L 679.401715 115.755502 
L 679.798735 115.888548 
L 679.997246 115.681571 
L 680.394266 115.770285 
L 681.188307 115.62244 
L 681.386818 115.814633 
L 681.585328 115.770285 
L 681.783838 115.888548 
L 681.982349 115.755502 
L 682.379369 115.785068 
L 682.577879 115.725936 
L 682.77639 115.785068 
L 682.9749 115.711153 
L 683.17341 115.770285 
L 683.371921 115.711153 
L 683.570431 115.873765 
L 683.768941 117.692208 
L 683.967451 129.415911 
L 684.364472 118.697511 
L 684.562982 116.68689 
L 684.761493 116.184238 
L 685.158513 116.302502 
L 685.754044 116.317285 
L 685.952554 116.479913 
L 686.151065 116.036393 
L 686.349575 116.02161 
L 686.548085 116.228587 
L 687.937657 116.110308 
L 688.533188 116.228587 
L 688.731698 116.13989 
L 688.930208 116.258153 
L 689.72425 116.13989 
L 690.12127 116.287719 
L 690.31978 116.154673 
L 690.518291 116.213804 
L 690.915311 116.095525 
L 691.113822 116.258153 
L 691.510842 116.125091 
L 691.907863 116.228587 
L 692.304883 116.080742 
L 692.701904 116.095525 
L 694.289986 115.918114 
L 695.084027 115.962479 
L 695.878068 115.918114 
L 696.076579 115.977262 
L 696.67211 115.858982 
L 697.863171 115.932913 
L 698.260192 115.977262 
L 698.855723 115.873765 
L 699.054233 115.977262 
L 699.848274 115.947696 
L 701.039336 115.947696 
L 701.436356 115.888548 
L 701.833377 115.903331 
L 702.031887 115.844199 
L 702.230397 115.903331 
L 702.627418 115.829416 
L 704.01699 115.785068 
L 704.414011 115.711153 
L 704.612521 115.799851 
L 705.009541 115.725936 
L 705.406562 115.740719 
L 705.803583 115.711153 
L 706.002093 115.770285 
L 706.399113 115.696354 
L 707.193155 115.652005 
L 707.590175 115.725936 
L 707.788685 115.681571 
L 707.987196 115.770285 
L 708.384216 115.637222 
L 708.781237 115.785068 
L 710.170809 115.770285 
L 710.567829 115.770285 
L 711.16336 115.652005 
L 711.758891 115.785068 
L 711.957401 115.681571 
L 712.552932 115.785068 
L 716.126117 115.563308 
L 716.324628 115.666788 
L 716.721648 115.681571 
L 717.317179 115.725936 
L 717.91271 115.592874 
L 718.508241 115.62244 
L 720.096323 115.652005 
L 720.493344 115.578091 
L 728.632265 115.518959 
L 729.029286 115.504176 
L 729.624817 115.578091 
L 729.823327 115.489393 
L 730.220347 115.548525 
L 731.212899 115.518959 
L 731.609919 115.533742 
L 733.992043 115.489393 
L 734.190553 115.652005 
L 734.389063 115.548525 
L 734.984594 115.578091 
L 735.580125 115.504176 
L 736.175656 115.563308 
L 736.969697 115.548525 
L 737.168207 115.681571 
L 737.962249 115.62244 
L 738.160759 115.696354 
L 738.75629 115.548525 
L 738.9548 115.607657 
L 739.15331 115.548525 
L 739.550331 115.607657 
L 740.145862 115.592874 
L 740.344372 115.445029 
L 740.542882 115.592874 
L 740.741392 115.548525 
L 741.138413 115.607657 
L 741.932454 115.518959 
L 742.329475 115.637222 
L 742.726495 115.607657 
L 745.108619 115.592874 
L 745.307129 115.474594 
L 745.90266 115.637222 
L 746.10117 115.489393 
L 746.29968 115.62244 
L 748.483294 115.533742 
L 748.880314 115.533742 
L 749.078824 115.474594 
L 749.475845 115.592874 
L 750.666907 115.533742 
L 750.865417 115.666788 
L 751.262438 115.607657 
L 751.262438 115.607657 
" clip-path="url(#p9a2fd9f5a8)" style="fill: none; stroke: #1f77b4; stroke-width: 1.5; stroke-linecap: square"/>
   </g>
   <g id="patch_3">
    <path d="M 394.142438 311.6435 
L 394.142438 45.5315 
" style="fill: none; stroke: #000000; stroke-width: 0.8; stroke-linejoin: miter; stroke-linecap: square"/>
   </g>
   <g id="patch_4">
    <path d="M 751.262438 311.6435 
L 751.262438 45.5315 
" style="fill: none; stroke: #000000; stroke-width: 0.8; stroke-linejoin: miter; stroke-linecap: square"/>
   </g>
   <g id="patch_5">
    <path d="M 394.142438 311.6435 
L 751.262438 311.6435 
" style="fill: none; stroke: #000000; stroke-width: 0.8; stroke-linejoin: miter; stroke-linecap: square"/>
   </g>
   <g id="patch_6">
    <path d="M 394.142438 45.5315 
L 751.262438 45.5315 
" style="fill: none; stroke: #000000; stroke-width: 0.8; stroke-linejoin: miter; stroke-linecap: square"/>
   </g>
   <g id="text_18">
    <!-- Accuracy of the 09_07_25_CINIC10_torch_model_(1024+8192-8192.2+1)_elk-horse on the validation set -->
    <g transform="translate(7.2 25.5315) scale(0.264 -0.264)">
     <defs>
      <path id="TimesNewRomanPSMT-68" d="M 1041 4444 
L 1041 2350 
Q 1388 2731 1591 2839 
Q 1794 2947 1997 2947 
Q 2241 2947 2416 2812 
Q 2591 2678 2675 2391 
Q 2734 2191 2734 1659 
L 2734 647 
Q 2734 375 2778 275 
Q 2809 200 2884 156 
Q 2959 113 3159 113 
L 3159 0 
L 1753 0 
L 1753 113 
L 1819 113 
Q 2019 113 2097 173 
Q 2175 234 2206 353 
Q 2216 403 2216 647 
L 2216 1659 
Q 2216 2128 2167 2275 
Q 2119 2422 2012 2495 
Q 1906 2569 1756 2569 
Q 1603 2569 1437 2487 
Q 1272 2406 1041 2159 
L 1041 647 
Q 1041 353 1073 281 
Q 1106 209 1195 161 
Q 1284 113 1503 113 
L 1503 0 
L 84 0 
L 84 113 
Q 275 113 384 172 
Q 447 203 484 290 
Q 522 378 522 647 
L 522 3238 
Q 522 3728 498 3840 
Q 475 3953 426 3993 
Q 378 4034 297 4034 
Q 231 4034 84 3984 
L 41 4094 
L 897 4444 
L 1041 4444 
z
" transform="scale(0.015625)"/>
      <path id="TimesNewRomanPSMT-5f" d="M 3256 -1381 
L -53 -1381 
L -53 -1119 
L 3256 -1119 
L 3256 -1381 
z
" transform="scale(0.015625)"/>
      <path id="TimesNewRomanPSMT-43" d="M 3853 4334 
L 3950 2894 
L 3853 2894 
Q 3659 3541 3300 3825 
Q 2941 4109 2438 4109 
Q 2016 4109 1675 3895 
Q 1334 3681 1139 3212 
Q 944 2744 944 2047 
Q 944 1472 1128 1050 
Q 1313 628 1683 403 
Q 2053 178 2528 178 
Q 2941 178 3256 354 
Q 3572 531 3950 1056 
L 4047 994 
Q 3728 428 3303 165 
Q 2878 -97 2294 -97 
Q 1241 -97 663 684 
Q 231 1266 231 2053 
Q 231 2688 515 3219 
Q 800 3750 1298 4042 
Q 1797 4334 2388 4334 
Q 2847 4334 3294 4109 
Q 3425 4041 3481 4041 
Q 3566 4041 3628 4100 
Q 3709 4184 3744 4334 
L 3853 4334 
z
" transform="scale(0.015625)"/>
      <path id="TimesNewRomanPSMT-49" d="M 1975 116 
L 1975 0 
L 159 0 
L 159 116 
L 309 116 
Q 572 116 691 269 
Q 766 369 766 750 
L 766 3488 
Q 766 3809 725 3913 
Q 694 3991 597 4047 
Q 459 4122 309 4122 
L 159 4122 
L 159 4238 
L 1975 4238 
L 1975 4122 
L 1822 4122 
Q 1563 4122 1444 3969 
Q 1366 3869 1366 3488 
L 1366 750 
Q 1366 428 1406 325 
Q 1438 247 1538 191 
Q 1672 116 1822 116 
L 1975 116 
z
" transform="scale(0.015625)"/>
      <path id="TimesNewRomanPSMT-64" d="M 2222 322 
Q 2013 103 1813 7 
Q 1613 -88 1381 -88 
Q 913 -88 563 304 
Q 213 697 213 1313 
Q 213 1928 600 2439 
Q 988 2950 1597 2950 
Q 1975 2950 2222 2709 
L 2222 3238 
Q 2222 3728 2198 3840 
Q 2175 3953 2125 3993 
Q 2075 4034 2000 4034 
Q 1919 4034 1784 3984 
L 1744 4094 
L 2597 4444 
L 2738 4444 
L 2738 1134 
Q 2738 631 2761 520 
Q 2784 409 2836 365 
Q 2888 322 2956 322 
Q 3041 322 3181 375 
L 3216 266 
L 2366 -88 
L 2222 -88 
L 2222 322 
z
M 2222 541 
L 2222 2016 
Q 2203 2228 2109 2403 
Q 2016 2578 1861 2667 
Q 1706 2756 1559 2756 
Q 1284 2756 1069 2509 
Q 784 2184 784 1559 
Q 784 928 1059 592 
Q 1334 256 1672 256 
Q 1956 256 2222 541 
z
" transform="scale(0.015625)"/>
      <path id="TimesNewRomanPSMT-6c" d="M 1184 4444 
L 1184 647 
Q 1184 378 1223 290 
Q 1263 203 1344 158 
Q 1425 113 1647 113 
L 1647 0 
L 244 0 
L 244 113 
Q 441 113 512 153 
Q 584 194 625 287 
Q 666 381 666 647 
L 666 3247 
Q 666 3731 644 3842 
Q 622 3953 573 3993 
Q 525 4034 450 4034 
Q 369 4034 244 3984 
L 191 4094 
L 1044 4444 
L 1184 4444 
z
" transform="scale(0.015625)"/>
      <path id="TimesNewRomanPSMT-28" d="M 1988 -1253 
L 1988 -1369 
Q 1516 -1131 1200 -813 
Q 750 -359 506 256 
Q 263 872 263 1534 
Q 263 2503 741 3301 
Q 1219 4100 1988 4444 
L 1988 4313 
Q 1603 4100 1356 3731 
Q 1109 3363 987 2797 
Q 866 2231 866 1616 
Q 866 947 969 400 
Q 1050 -31 1165 -292 
Q 1281 -553 1476 -793 
Q 1672 -1034 1988 -1253 
z
" transform="scale(0.015625)"/>
      <path id="TimesNewRomanPSMT-2b" d="M 1672 441 
L 1672 2000 
L 116 2000 
L 116 2256 
L 1672 2256 
L 1672 3809 
L 1922 3809 
L 1922 2256 
L 3484 2256 
L 3484 2000 
L 1922 2000 
L 1922 441 
L 1672 441 
z
" transform="scale(0.015625)"/>
      <path id="TimesNewRomanPSMT-2d" d="M 259 1672 
L 1875 1672 
L 1875 1200 
L 259 1200 
L 259 1672 
z
" transform="scale(0.015625)"/>
      <path id="TimesNewRomanPSMT-29" d="M 144 4313 
L 144 4444 
Q 619 4209 934 3891 
Q 1381 3434 1625 2820 
Q 1869 2206 1869 1541 
Q 1869 572 1392 -226 
Q 916 -1025 144 -1369 
L 144 -1253 
Q 528 -1038 776 -670 
Q 1025 -303 1145 264 
Q 1266 831 1266 1447 
Q 1266 2113 1163 2663 
Q 1084 3094 967 3353 
Q 850 3613 656 3853 
Q 463 4094 144 4313 
z
" transform="scale(0.015625)"/>
      <path id="TimesNewRomanPSMT-6b" d="M 1047 4444 
L 1047 1594 
L 1775 2259 
Q 2006 2472 2044 2528 
Q 2069 2566 2069 2603 
Q 2069 2666 2017 2711 
Q 1966 2756 1847 2763 
L 1847 2863 
L 3091 2863 
L 3091 2763 
Q 2834 2756 2664 2684 
Q 2494 2613 2291 2428 
L 1556 1750 
L 2291 822 
Q 2597 438 2703 334 
Q 2853 188 2966 144 
Q 3044 113 3238 113 
L 3238 0 
L 1847 0 
L 1847 113 
Q 1966 116 2008 148 
Q 2050 181 2050 241 
Q 2050 313 1925 472 
L 1047 1594 
L 1047 644 
Q 1047 366 1086 278 
Q 1125 191 1197 153 
Q 1269 116 1509 113 
L 1509 0 
L 53 0 
L 53 113 
Q 272 113 381 166 
Q 447 200 481 272 
Q 528 375 528 628 
L 528 3234 
Q 528 3731 506 3842 
Q 484 3953 434 3995 
Q 384 4038 303 4038 
Q 238 4038 106 3984 
L 53 4094 
L 903 4444 
L 1047 4444 
z
" transform="scale(0.015625)"/>
      <path id="TimesNewRomanPSMT-76" d="M 53 2863 
L 1400 2863 
L 1400 2747 
L 1313 2747 
Q 1191 2747 1127 2687 
Q 1063 2628 1063 2528 
Q 1063 2419 1128 2269 
L 1794 688 
L 2463 2328 
Q 2534 2503 2534 2594 
Q 2534 2638 2509 2666 
Q 2475 2713 2422 2730 
Q 2369 2747 2206 2747 
L 2206 2863 
L 3141 2863 
L 3141 2747 
Q 2978 2734 2916 2681 
Q 2806 2588 2719 2369 
L 1703 -88 
L 1575 -88 
L 553 2328 
Q 484 2497 421 2570 
Q 359 2644 263 2694 
Q 209 2722 53 2747 
L 53 2863 
z
" transform="scale(0.015625)"/>
     </defs>
     <use xlink:href="#TimesNewRomanPSMT-41"/>
     <use xlink:href="#TimesNewRomanPSMT-63" transform="translate(72.216797 0)"/>
     <use xlink:href="#TimesNewRomanPSMT-63" transform="translate(116.601562 0)"/>
     <use xlink:href="#TimesNewRomanPSMT-75" transform="translate(160.986328 0)"/>
     <use xlink:href="#TimesNewRomanPSMT-72" transform="translate(210.986328 0)"/>
     <use xlink:href="#TimesNewRomanPSMT-61" transform="translate(244.287109 0)"/>
     <use xlink:href="#TimesNewRomanPSMT-63" transform="translate(288.671875 0)"/>
     <use xlink:href="#TimesNewRomanPSMT-79" transform="translate(333.056641 0)"/>
     <use xlink:href="#TimesNewRomanPSMT-20" transform="translate(383.056641 0)"/>
     <use xlink:href="#TimesNewRomanPSMT-6f" transform="translate(408.056641 0)"/>
     <use xlink:href="#TimesNewRomanPSMT-66" transform="translate(458.056641 0)"/>
     <use xlink:href="#TimesNewRomanPSMT-20" transform="translate(491.357422 0)"/>
     <use xlink:href="#TimesNewRomanPSMT-74" transform="translate(516.357422 0)"/>
     <use xlink:href="#TimesNewRomanPSMT-68" transform="translate(544.140625 0)"/>
     <use xlink:href="#TimesNewRomanPSMT-65" transform="translate(594.140625 0)"/>
     <use xlink:href="#TimesNewRomanPSMT-20" transform="translate(638.525391 0)"/>
     <use xlink:href="#TimesNewRomanPSMT-30" transform="translate(663.525391 0)"/>
     <use xlink:href="#TimesNewRomanPSMT-39" transform="translate(713.525391 0)"/>
     <use xlink:href="#TimesNewRomanPSMT-5f" transform="translate(763.525391 0)"/>
     <use xlink:href="#TimesNewRomanPSMT-30" transform="translate(813.525391 0)"/>
     <use xlink:href="#TimesNewRomanPSMT-37" transform="translate(863.525391 0)"/>
     <use xlink:href="#TimesNewRomanPSMT-5f" transform="translate(913.525391 0)"/>
     <use xlink:href="#TimesNewRomanPSMT-32" transform="translate(963.525391 0)"/>
     <use xlink:href="#TimesNewRomanPSMT-35" transform="translate(1013.525391 0)"/>
     <use xlink:href="#TimesNewRomanPSMT-5f" transform="translate(1063.525391 0)"/>
     <use xlink:href="#TimesNewRomanPSMT-43" transform="translate(1113.525391 0)"/>
     <use xlink:href="#TimesNewRomanPSMT-49" transform="translate(1180.224609 0)"/>
     <use xlink:href="#TimesNewRomanPSMT-4e" transform="translate(1213.525391 0)"/>
     <use xlink:href="#TimesNewRomanPSMT-49" transform="translate(1285.742188 0)"/>
     <use xlink:href="#TimesNewRomanPSMT-43" transform="translate(1319.042969 0)"/>
     <use xlink:href="#TimesNewRomanPSMT-31" transform="translate(1385.742188 0)"/>
     <use xlink:href="#TimesNewRomanPSMT-30" transform="translate(1435.742188 0)"/>
     <use xlink:href="#TimesNewRomanPSMT-5f" transform="translate(1485.742188 0)"/>
     <use xlink:href="#TimesNewRomanPSMT-74" transform="translate(1535.742188 0)"/>
     <use xlink:href="#TimesNewRomanPSMT-6f" transform="translate(1563.525391 0)"/>
     <use xlink:href="#TimesNewRomanPSMT-72" transform="translate(1613.525391 0)"/>
     <use xlink:href="#TimesNewRomanPSMT-63" transform="translate(1646.826172 0)"/>
     <use xlink:href="#TimesNewRomanPSMT-68" transform="translate(1691.210938 0)"/>
     <use xlink:href="#TimesNewRomanPSMT-5f" transform="translate(1741.210938 0)"/>
     <use xlink:href="#TimesNewRomanPSMT-6d" transform="translate(1791.210938 0)"/>
     <use xlink:href="#TimesNewRomanPSMT-6f" transform="translate(1868.994141 0)"/>
     <use xlink:href="#TimesNewRomanPSMT-64" transform="translate(1918.994141 0)"/>
     <use xlink:href="#TimesNewRomanPSMT-65" transform="translate(1968.994141 0)"/>
     <use xlink:href="#TimesNewRomanPSMT-6c" transform="translate(2013.378906 0)"/>
     <use xlink:href="#TimesNewRomanPSMT-5f" transform="translate(2041.162109 0)"/>
     <use xlink:href="#TimesNewRomanPSMT-28" transform="translate(2091.162109 0)"/>
     <use xlink:href="#TimesNewRomanPSMT-31" transform="translate(2124.462891 0)"/>
     <use xlink:href="#TimesNewRomanPSMT-30" transform="translate(2174.462891 0)"/>
     <use xlink:href="#TimesNewRomanPSMT-32" transform="translate(2224.462891 0)"/>
     <use xlink:href="#TimesNewRomanPSMT-34" transform="translate(2274.462891 0)"/>
     <use xlink:href="#TimesNewRomanPSMT-2b" transform="translate(2324.462891 0)"/>
     <use xlink:href="#TimesNewRomanPSMT-38" transform="translate(2380.859375 0)"/>
     <use xlink:href="#TimesNewRomanPSMT-31" transform="translate(2430.859375 0)"/>
     <use xlink:href="#TimesNewRomanPSMT-39" transform="translate(2480.859375 0)"/>
     <use xlink:href="#TimesNewRomanPSMT-32" transform="translate(2530.859375 0)"/>
     <use xlink:href="#TimesNewRomanPSMT-2d" transform="translate(2580.859375 0)"/>
     <use xlink:href="#TimesNewRomanPSMT-38" transform="translate(2614.160156 0)"/>
     <use xlink:href="#TimesNewRomanPSMT-31" transform="translate(2664.160156 0)"/>
     <use xlink:href="#TimesNewRomanPSMT-39" transform="translate(2714.160156 0)"/>
     <use xlink:href="#TimesNewRomanPSMT-32" transform="translate(2764.160156 0)"/>
     <use xlink:href="#TimesNewRomanPSMT-2e" transform="translate(2814.160156 0)"/>
     <use xlink:href="#TimesNewRomanPSMT-32" transform="translate(2839.160156 0)"/>
     <use xlink:href="#TimesNewRomanPSMT-2b" transform="translate(2889.160156 0)"/>
     <use xlink:href="#TimesNewRomanPSMT-31" transform="translate(2945.556641 0)"/>
     <use xlink:href="#TimesNewRomanPSMT-29" transform="translate(2995.556641 0)"/>
     <use xlink:href="#TimesNewRomanPSMT-5f" transform="translate(3028.857422 0)"/>
     <use xlink:href="#TimesNewRomanPSMT-65" transform="translate(3078.857422 0)"/>
     <use xlink:href="#TimesNewRomanPSMT-6c" transform="translate(3123.242188 0)"/>
     <use xlink:href="#TimesNewRomanPSMT-6b" transform="translate(3151.025391 0)"/>
     <use xlink:href="#TimesNewRomanPSMT-2d" transform="translate(3201.025391 0)"/>
     <use xlink:href="#TimesNewRomanPSMT-68" transform="translate(3234.326172 0)"/>
     <use xlink:href="#TimesNewRomanPSMT-6f" transform="translate(3284.326172 0)"/>
     <use xlink:href="#TimesNewRomanPSMT-72" transform="translate(3334.326172 0)"/>
     <use xlink:href="#TimesNewRomanPSMT-73" transform="translate(3367.626953 0)"/>
     <use xlink:href="#TimesNewRomanPSMT-65" transform="translate(3406.542969 0)"/>
     <use xlink:href="#TimesNewRomanPSMT-20" transform="translate(3450.927734 0)"/>
     <use xlink:href="#TimesNewRomanPSMT-6f" transform="translate(3475.927734 0)"/>
     <use xlink:href="#TimesNewRomanPSMT-6e" transform="translate(3525.927734 0)"/>
     <use xlink:href="#TimesNewRomanPSMT-20" transform="translate(3575.927734 0)"/>
     <use xlink:href="#TimesNewRomanPSMT-74" transform="translate(3600.927734 0)"/>
     <use xlink:href="#TimesNewRomanPSMT-68" transform="translate(3628.710938 0)"/>
     <use xlink:href="#TimesNewRomanPSMT-65" transform="translate(3678.710938 0)"/>
     <use xlink:href="#TimesNewRomanPSMT-20" transform="translate(3723.095703 0)"/>
     <use xlink:href="#TimesNewRomanPSMT-76" transform="translate(3748.095703 0)"/>
     <use xlink:href="#TimesNewRomanPSMT-61" transform="translate(3798.095703 0)"/>
     <use xlink:href="#TimesNewRomanPSMT-6c" transform="translate(3842.480469 0)"/>
     <use xlink:href="#TimesNewRomanPSMT-69" transform="translate(3870.263672 0)"/>
     <use xlink:href="#TimesNewRomanPSMT-64" transform="translate(3898.046875 0)"/>
     <use xlink:href="#TimesNewRomanPSMT-61" transform="translate(3948.046875 0)"/>
     <use xlink:href="#TimesNewRomanPSMT-74" transform="translate(3992.431641 0)"/>
     <use xlink:href="#TimesNewRomanPSMT-69" transform="translate(4020.214844 0)"/>
     <use xlink:href="#TimesNewRomanPSMT-6f" transform="translate(4047.998047 0)"/>
     <use xlink:href="#TimesNewRomanPSMT-6e" transform="translate(4097.998047 0)"/>
     <use xlink:href="#TimesNewRomanPSMT-20" transform="translate(4147.998047 0)"/>
     <use xlink:href="#TimesNewRomanPSMT-73" transform="translate(4172.998047 0)"/>
     <use xlink:href="#TimesNewRomanPSMT-65" transform="translate(4211.914062 0)"/>
     <use xlink:href="#TimesNewRomanPSMT-74" transform="translate(4256.298828 0)"/>
    </g>
   </g>
   <g id="legend_1">
    <g id="patch_7">
     <path d="M 498.692125 94.278687 
L 735.862438 94.278687 
Q 740.262438 94.278687 740.262438 89.878687 
L 740.262438 60.9315 
Q 740.262438 56.5315 735.862438 56.5315 
L 498.692125 56.5315 
Q 494.292125 56.5315 494.292125 60.9315 
L 494.292125 89.878687 
Q 494.292125 94.278687 498.692125 94.278687 
z
" style="fill: #ffffff; opacity: 0.8; stroke: #cccccc; stroke-linejoin: miter"/>
    </g>
    <g id="line2d_32">
     <path d="M 503.092125 73.0315 
L 525.092125 73.0315 
L 547.092125 73.0315 
" style="fill: none; stroke: #1f77b4; stroke-width: 1.5; stroke-linecap: square"/>
    </g>
    <g id="text_19">
     <!-- Best accuracy 0.74 -->
     <g transform="translate(564.692125 80.7315) scale(0.22 -0.22)">
      <defs>
       <path id="TimesNewRomanPSMT-42" d="M 2956 2163 
Q 3397 2069 3616 1863 
Q 3919 1575 3919 1159 
Q 3919 844 3719 555 
Q 3519 266 3170 133 
Q 2822 0 2106 0 
L 106 0 
L 106 116 
L 266 116 
Q 531 116 647 284 
Q 719 394 719 750 
L 719 3488 
Q 719 3881 628 3984 
Q 506 4122 266 4122 
L 106 4122 
L 106 4238 
L 1938 4238 
Q 2450 4238 2759 4163 
Q 3228 4050 3475 3764 
Q 3722 3478 3722 3106 
Q 3722 2788 3528 2536 
Q 3334 2284 2956 2163 
z
M 1319 2331 
Q 1434 2309 1582 2298 
Q 1731 2288 1909 2288 
Q 2366 2288 2595 2386 
Q 2825 2484 2947 2687 
Q 3069 2891 3069 3131 
Q 3069 3503 2766 3765 
Q 2463 4028 1881 4028 
Q 1569 4028 1319 3959 
L 1319 2331 
z
M 1319 306 
Q 1681 222 2034 222 
Q 2600 222 2897 476 
Q 3194 731 3194 1106 
Q 3194 1353 3059 1581 
Q 2925 1809 2622 1940 
Q 2319 2072 1872 2072 
Q 1678 2072 1540 2065 
Q 1403 2059 1319 2044 
L 1319 306 
z
" transform="scale(0.015625)"/>
      </defs>
      <use xlink:href="#TimesNewRomanPSMT-42"/>
      <use xlink:href="#TimesNewRomanPSMT-65" transform="translate(66.699219 0)"/>
      <use xlink:href="#TimesNewRomanPSMT-73" transform="translate(111.083984 0)"/>
      <use xlink:href="#TimesNewRomanPSMT-74" transform="translate(150 0)"/>
      <use xlink:href="#TimesNewRomanPSMT-20" transform="translate(177.783203 0)"/>
      <use xlink:href="#TimesNewRomanPSMT-61" transform="translate(202.783203 0)"/>
      <use xlink:href="#TimesNewRomanPSMT-63" transform="translate(247.167969 0)"/>
      <use xlink:href="#TimesNewRomanPSMT-63" transform="translate(291.552734 0)"/>
      <use xlink:href="#TimesNewRomanPSMT-75" transform="translate(335.9375 0)"/>
      <use xlink:href="#TimesNewRomanPSMT-72" transform="translate(385.9375 0)"/>
      <use xlink:href="#TimesNewRomanPSMT-61" transform="translate(419.238281 0)"/>
      <use xlink:href="#TimesNewRomanPSMT-63" transform="translate(463.623047 0)"/>
      <use xlink:href="#TimesNewRomanPSMT-79" transform="translate(508.007812 0)"/>
      <use xlink:href="#TimesNewRomanPSMT-20" transform="translate(558.007812 0)"/>
      <use xlink:href="#TimesNewRomanPSMT-30" transform="translate(583.007812 0)"/>
      <use xlink:href="#TimesNewRomanPSMT-2e" transform="translate(633.007812 0)"/>
      <use xlink:href="#TimesNewRomanPSMT-37" transform="translate(658.007812 0)"/>
      <use xlink:href="#TimesNewRomanPSMT-34" transform="translate(708.007812 0)"/>
     </g>
    </g>
   </g>
  </g>
 </g>
 <defs>
  <clipPath id="p9a2fd9f5a8">
   <rect x="394.142438" y="45.5315" width="357.12" height="266.112"/>
  </clipPath>
 </defs>
</svg>
