<?xml version="1.0" encoding="utf-8" standalone="no"?>
<!DOCTYPE svg PUBLIC "-//W3C//DTD SVG 1.1//EN"
  "http://www.w3.org/Graphics/SVG/1.1/DTD/svg11.dtd">
<svg xmlns:xlink="http://www.w3.org/1999/xlink" width="975.562125pt" height="383.265687pt" viewBox="0 0 975.562125 383.265687" xmlns="http://www.w3.org/2000/svg" version="1.1">
 <metadata>
  <rdf:RDF xmlns:dc="http://purl.org/dc/elements/1.1/" xmlns:cc="http://creativecommons.org/ns#" xmlns:rdf="http://www.w3.org/1999/02/22-rdf-syntax-ns#">
   <cc:Work>
    <dc:type rdf:resource="http://purl.org/dc/dcmitype/StillImage"/>
    <dc:date>2025-05-15T16:12:00.799086</dc:date>
    <dc:format>image/svg+xml</dc:format>
    <dc:creator>
     <cc:Agent>
      <dc:title>Matplotlib v3.10.1, https://matplotlib.org/</dc:title>
     </cc:Agent>
    </dc:creator>
   </cc:Work>
  </rdf:RDF>
 </metadata>
 <defs>
  <style type="text/css">*{stroke-linejoin: round; stroke-linecap: butt}</style>
 </defs>
 <g id="figure_1">
  <g id="patch_1">
   <path d="M -0 383.265687 
L 975.562125 383.265687 
L 975.562125 0 
L -0 0 
z
" style="fill: #ffffff"/>
  </g>
  <g id="axes_1">
   <g id="patch_2">
    <path d="M 309.221063 311.6435 
L 666.341063 311.6435 
L 666.341063 45.5315 
L 309.221063 45.5315 
z
" style="fill: #ffffff"/>
   </g>
   <g id="matplotlib.axis_1">
    <g id="xtick_1">
     <g id="line2d_1">
      <path d="M 309.221063 311.6435 
L 309.221063 45.5315 
" clip-path="url(#p1803961ef7)" style="fill: none; stroke: #b0b0b0; stroke-opacity: 0.3; stroke-width: 0.8; stroke-linecap: square"/>
     </g>
     <g id="line2d_2">
      <defs>
       <path id="mbf3a1b1b1f" d="M 0 0 
L 0 3.5 
" style="stroke: #000000; stroke-width: 0.8"/>
      </defs>
      <g>
       <use xlink:href="#mbf3a1b1b1f" x="309.221063" y="311.6435" style="stroke: #000000; stroke-width: 0.8"/>
      </g>
     </g>
     <g id="text_1">
      <!-- 0.00 -->
      <g transform="translate(289.971063 333.91975) scale(0.22 -0.22)">
       <defs>
        <path id="TimesNewRomanPSMT-30" d="M 231 2094 
Q 231 2819 450 3342 
Q 669 3866 1031 4122 
Q 1313 4325 1613 4325 
Q 2100 4325 2488 3828 
Q 2972 3213 2972 2159 
Q 2972 1422 2759 906 
Q 2547 391 2217 158 
Q 1888 -75 1581 -75 
Q 975 -75 572 641 
Q 231 1244 231 2094 
z
M 844 2016 
Q 844 1141 1059 588 
Q 1238 122 1591 122 
Q 1759 122 1940 273 
Q 2122 425 2216 781 
Q 2359 1319 2359 2297 
Q 2359 3022 2209 3506 
Q 2097 3866 1919 4016 
Q 1791 4119 1609 4119 
Q 1397 4119 1231 3928 
Q 1006 3669 925 3112 
Q 844 2556 844 2016 
z
" transform="scale(0.015625)"/>
        <path id="TimesNewRomanPSMT-2e" d="M 800 606 
Q 947 606 1047 504 
Q 1147 403 1147 259 
Q 1147 116 1045 14 
Q 944 -88 800 -88 
Q 656 -88 554 14 
Q 453 116 453 259 
Q 453 406 554 506 
Q 656 606 800 606 
z
" transform="scale(0.015625)"/>
       </defs>
       <use xlink:href="#TimesNewRomanPSMT-30"/>
       <use xlink:href="#TimesNewRomanPSMT-2e" transform="translate(50 0)"/>
       <use xlink:href="#TimesNewRomanPSMT-30" transform="translate(75 0)"/>
       <use xlink:href="#TimesNewRomanPSMT-30" transform="translate(125 0)"/>
      </g>
     </g>
    </g>
    <g id="xtick_2">
     <g id="line2d_3">
      <path d="M 388.275584 311.6435 
L 388.275584 45.5315 
" clip-path="url(#p1803961ef7)" style="fill: none; stroke: #b0b0b0; stroke-opacity: 0.3; stroke-width: 0.8; stroke-linecap: square"/>
     </g>
     <g id="line2d_4">
      <g>
       <use xlink:href="#mbf3a1b1b1f" x="388.275584" y="311.6435" style="stroke: #000000; stroke-width: 0.8"/>
      </g>
     </g>
     <g id="text_2">
      <!-- 0.25 -->
      <g transform="translate(369.025584 333.91975) scale(0.22 -0.22)">
       <defs>
        <path id="TimesNewRomanPSMT-32" d="M 2934 816 
L 2638 0 
L 138 0 
L 138 116 
Q 1241 1122 1691 1759 
Q 2141 2397 2141 2925 
Q 2141 3328 1894 3587 
Q 1647 3847 1303 3847 
Q 991 3847 742 3664 
Q 494 3481 375 3128 
L 259 3128 
Q 338 3706 661 4015 
Q 984 4325 1469 4325 
Q 1984 4325 2329 3994 
Q 2675 3663 2675 3213 
Q 2675 2891 2525 2569 
Q 2294 2063 1775 1497 
Q 997 647 803 472 
L 1909 472 
Q 2247 472 2383 497 
Q 2519 522 2628 598 
Q 2738 675 2819 816 
L 2934 816 
z
" transform="scale(0.015625)"/>
        <path id="TimesNewRomanPSMT-35" d="M 2778 4238 
L 2534 3706 
L 1259 3706 
L 981 3138 
Q 1809 3016 2294 2522 
Q 2709 2097 2709 1522 
Q 2709 1188 2573 903 
Q 2438 619 2231 419 
Q 2025 219 1772 97 
Q 1413 -75 1034 -75 
Q 653 -75 479 54 
Q 306 184 306 341 
Q 306 428 378 495 
Q 450 563 559 563 
Q 641 563 702 538 
Q 763 513 909 409 
Q 1144 247 1384 247 
Q 1750 247 2026 523 
Q 2303 800 2303 1197 
Q 2303 1581 2056 1914 
Q 1809 2247 1375 2428 
Q 1034 2569 447 2591 
L 1259 4238 
L 2778 4238 
z
" transform="scale(0.015625)"/>
       </defs>
       <use xlink:href="#TimesNewRomanPSMT-30"/>
       <use xlink:href="#TimesNewRomanPSMT-2e" transform="translate(50 0)"/>
       <use xlink:href="#TimesNewRomanPSMT-32" transform="translate(75 0)"/>
       <use xlink:href="#TimesNewRomanPSMT-35" transform="translate(125 0)"/>
      </g>
     </g>
    </g>
    <g id="xtick_3">
     <g id="line2d_5">
      <path d="M 467.330106 311.6435 
L 467.330106 45.5315 
" clip-path="url(#p1803961ef7)" style="fill: none; stroke: #b0b0b0; stroke-opacity: 0.3; stroke-width: 0.8; stroke-linecap: square"/>
     </g>
     <g id="line2d_6">
      <g>
       <use xlink:href="#mbf3a1b1b1f" x="467.330106" y="311.6435" style="stroke: #000000; stroke-width: 0.8"/>
      </g>
     </g>
     <g id="text_3">
      <!-- 0.50 -->
      <g transform="translate(448.080106 333.91975) scale(0.22 -0.22)">
       <use xlink:href="#TimesNewRomanPSMT-30"/>
       <use xlink:href="#TimesNewRomanPSMT-2e" transform="translate(50 0)"/>
       <use xlink:href="#TimesNewRomanPSMT-35" transform="translate(75 0)"/>
       <use xlink:href="#TimesNewRomanPSMT-30" transform="translate(125 0)"/>
      </g>
     </g>
    </g>
    <g id="xtick_4">
     <g id="line2d_7">
      <path d="M 546.384628 311.6435 
L 546.384628 45.5315 
" clip-path="url(#p1803961ef7)" style="fill: none; stroke: #b0b0b0; stroke-opacity: 0.3; stroke-width: 0.8; stroke-linecap: square"/>
     </g>
     <g id="line2d_8">
      <g>
       <use xlink:href="#mbf3a1b1b1f" x="546.384628" y="311.6435" style="stroke: #000000; stroke-width: 0.8"/>
      </g>
     </g>
     <g id="text_4">
      <!-- 0.75 -->
      <g transform="translate(527.134628 333.91975) scale(0.22 -0.22)">
       <defs>
        <path id="TimesNewRomanPSMT-37" d="M 644 4238 
L 2916 4238 
L 2916 4119 
L 1503 -88 
L 1153 -88 
L 2419 3728 
L 1253 3728 
Q 900 3728 750 3644 
Q 488 3500 328 3200 
L 238 3234 
L 644 4238 
z
" transform="scale(0.015625)"/>
       </defs>
       <use xlink:href="#TimesNewRomanPSMT-30"/>
       <use xlink:href="#TimesNewRomanPSMT-2e" transform="translate(50 0)"/>
       <use xlink:href="#TimesNewRomanPSMT-37" transform="translate(75 0)"/>
       <use xlink:href="#TimesNewRomanPSMT-35" transform="translate(125 0)"/>
      </g>
     </g>
    </g>
    <g id="xtick_5">
     <g id="line2d_9">
      <path d="M 625.439149 311.6435 
L 625.439149 45.5315 
" clip-path="url(#p1803961ef7)" style="fill: none; stroke: #b0b0b0; stroke-opacity: 0.3; stroke-width: 0.8; stroke-linecap: square"/>
     </g>
     <g id="line2d_10">
      <g>
       <use xlink:href="#mbf3a1b1b1f" x="625.439149" y="311.6435" style="stroke: #000000; stroke-width: 0.8"/>
      </g>
     </g>
     <g id="text_5">
      <!-- 1.00 -->
      <g transform="translate(606.189149 333.91975) scale(0.22 -0.22)">
       <defs>
        <path id="TimesNewRomanPSMT-31" d="M 750 3822 
L 1781 4325 
L 1884 4325 
L 1884 747 
Q 1884 391 1914 303 
Q 1944 216 2037 169 
Q 2131 122 2419 116 
L 2419 0 
L 825 0 
L 825 116 
Q 1125 122 1212 167 
Q 1300 213 1334 289 
Q 1369 366 1369 747 
L 1369 3034 
Q 1369 3497 1338 3628 
Q 1316 3728 1258 3775 
Q 1200 3822 1119 3822 
Q 1003 3822 797 3725 
L 750 3822 
z
" transform="scale(0.015625)"/>
       </defs>
       <use xlink:href="#TimesNewRomanPSMT-31"/>
       <use xlink:href="#TimesNewRomanPSMT-2e" transform="translate(50 0)"/>
       <use xlink:href="#TimesNewRomanPSMT-30" transform="translate(75 0)"/>
       <use xlink:href="#TimesNewRomanPSMT-30" transform="translate(125 0)"/>
      </g>
     </g>
    </g>
    <g id="text_6">
     <!-- $\kappa  = \frac{ln(n)}{ln(d)}$ -->
     <g transform="translate(455.771063 364.185687) scale(0.22 -0.22)">
      <defs>
       <path id="STIXGeneral-Italic-3ba" d="M 979 1440 
L 998 1446 
Q 1850 2541 2464 2790 
Q 2547 2822 2630 2822 
Q 2797 2822 2886 2736 
Q 2976 2650 2976 2522 
Q 2976 2387 2893 2307 
Q 2810 2227 2682 2227 
Q 2605 2227 2502 2288 
Q 2400 2349 2336 2349 
Q 2170 2349 1990 2205 
Q 1811 2061 1414 1645 
L 2042 544 
Q 2202 262 2310 182 
Q 2419 102 2624 102 
L 2624 0 
Q 2374 -83 2182 -83 
Q 1786 -83 1555 326 
L 960 1350 
L 576 0 
L 90 0 
L 640 1978 
Q 730 2317 730 2406 
Q 730 2560 518 2560 
L 339 2560 
L 339 2650 
Q 678 2694 1306 2822 
L 1325 2803 
L 979 1440 
z
" transform="scale(0.015625)"/>
       <path id="STIXGeneral-Regular-3d" d="M 4077 2048 
L 307 2048 
L 307 2470 
L 4077 2470 
L 4077 2048 
z
M 4077 768 
L 307 768 
L 307 1190 
L 4077 1190 
L 4077 768 
z
" transform="scale(0.015625)"/>
       <path id="STIXGeneral-Italic-6c" d="M 1786 4339 
L 806 595 
Q 755 410 755 320 
Q 755 205 864 205 
Q 1037 205 1293 570 
L 1453 794 
L 1542 730 
Q 1254 275 1046 102 
Q 838 -70 576 -70 
Q 262 -70 262 288 
Q 262 397 288 480 
L 1165 3834 
Q 1184 3898 1184 3955 
Q 1184 4096 870 4096 
L 755 4096 
L 755 4198 
Q 1203 4250 1747 4371 
L 1786 4339 
z
" transform="scale(0.015625)"/>
       <path id="STIXGeneral-Italic-6e" d="M 2944 749 
L 3034 666 
Q 2707 218 2534 80 
Q 2362 -58 2138 -58 
Q 2010 -58 1923 28 
Q 1837 115 1837 288 
Q 1837 390 1939 768 
L 2221 1805 
Q 2310 2150 2310 2310 
Q 2310 2496 2157 2496 
Q 1971 2496 1750 2275 
Q 1530 2054 1210 1587 
Q 998 1274 899 1024 
Q 800 774 570 0 
L 90 0 
L 704 2240 
Q 717 2304 717 2349 
Q 717 2445 630 2480 
Q 544 2515 301 2522 
L 301 2624 
Q 550 2675 857 2729 
Q 1165 2784 1338 2822 
L 1363 2810 
L 934 1414 
Q 1408 2170 1753 2496 
Q 2099 2822 2413 2822 
Q 2611 2822 2720 2716 
Q 2829 2611 2829 2432 
Q 2829 2272 2765 2048 
L 2406 749 
Q 2317 429 2317 358 
Q 2317 243 2419 243 
Q 2541 243 2810 582 
Q 2854 634 2944 749 
z
" transform="scale(0.015625)"/>
       <path id="STIXGeneral-Regular-28" d="M 1946 -1030 
L 1869 -1133 
Q 1126 -710 716 32 
Q 307 774 307 1613 
Q 307 3386 1888 4326 
L 1946 4224 
Q 1293 3667 1075 3126 
Q 858 2586 858 1632 
Q 858 685 1082 96 
Q 1306 -493 1946 -1030 
z
" transform="scale(0.015625)"/>
       <path id="STIXGeneral-Regular-29" d="M 186 4224 
L 262 4326 
Q 992 3891 1408 3148 
Q 1824 2406 1824 1581 
Q 1824 -166 243 -1133 
L 186 -1030 
Q 845 -486 1059 54 
Q 1274 595 1274 1562 
Q 1274 2534 1059 3120 
Q 845 3706 186 4224 
z
" transform="scale(0.015625)"/>
       <path id="STIXGeneral-Italic-64" d="M 3334 4371 
L 3373 4333 
L 3123 3360 
L 2739 1958 
Q 2323 429 2323 384 
Q 2323 256 2438 256 
Q 2522 256 2614 336 
Q 2707 416 2963 710 
L 3040 646 
Q 2547 -83 2099 -83 
Q 1978 -83 1907 -6 
Q 1837 70 1837 205 
Q 1837 397 1920 774 
Q 1645 307 1379 118 
Q 1114 -70 781 -70 
Q 461 -70 278 125 
Q 96 320 96 678 
Q 96 1440 713 2131 
Q 1331 2822 1965 2822 
Q 2163 2822 2256 2732 
Q 2349 2643 2381 2451 
L 2387 2451 
L 2675 3494 
Q 2765 3808 2765 3949 
Q 2765 4051 2694 4076 
Q 2624 4102 2355 4115 
L 2355 4224 
Q 2848 4269 3334 4371 
z
M 2278 2310 
Q 2278 2477 2185 2576 
Q 2093 2675 1978 2675 
Q 1677 2675 1395 2381 
Q 1075 2042 864 1571 
Q 653 1101 653 704 
Q 653 486 752 361 
Q 851 237 1024 237 
Q 1312 237 1606 550 
Q 1901 864 2089 1350 
Q 2278 1837 2278 2310 
z
" transform="scale(0.015625)"/>
      </defs>
      <use xlink:href="#STIXGeneral-Italic-3ba" transform="translate(0 0.003125)"/>
      <use xlink:href="#STIXGeneral-Regular-3d" transform="translate(58.83999 0.003125)"/>
      <use xlink:href="#STIXGeneral-Italic-6c" transform="translate(141.779971 50.192188) scale(0.7)"/>
      <use xlink:href="#STIXGeneral-Italic-6e" transform="translate(161.239963 50.192188) scale(0.7)"/>
      <use xlink:href="#STIXGeneral-Regular-28" transform="translate(196.239952 50.192188) scale(0.7)"/>
      <use xlink:href="#STIXGeneral-Italic-6e" transform="translate(219.549944 50.192188) scale(0.7)"/>
      <use xlink:href="#STIXGeneral-Regular-29" transform="translate(254.549933 50.192188) scale(0.7)"/>
      <use xlink:href="#STIXGeneral-Italic-6c" transform="translate(141.779971 -41.257812) scale(0.7)"/>
      <use xlink:href="#STIXGeneral-Italic-6e" transform="translate(161.239963 -41.257812) scale(0.7)"/>
      <use xlink:href="#STIXGeneral-Regular-28" transform="translate(196.239952 -41.257812) scale(0.7)"/>
      <use xlink:href="#STIXGeneral-Italic-64" transform="translate(219.549944 -41.257812) scale(0.7)"/>
      <use xlink:href="#STIXGeneral-Regular-29" transform="translate(254.549933 -41.257812) scale(0.7)"/>
      <path d="M 141.779971 12.8 
L 141.779971 19.05 
L 277.859924 19.05 
L 277.859924 12.8 
L 141.779971 12.8 
z
"/>
     </g>
    </g>
   </g>
   <g id="matplotlib.axis_2">
    <g id="ytick_1">
     <g id="line2d_11">
      <path d="M 309.221063 311.6435 
L 666.341063 311.6435 
" clip-path="url(#p1803961ef7)" style="fill: none; stroke: #b0b0b0; stroke-opacity: 0.3; stroke-width: 0.8; stroke-linecap: square"/>
     </g>
     <g id="line2d_12">
      <defs>
       <path id="mc54455ec21" d="M 0 0 
L -3.5 0 
" style="stroke: #000000; stroke-width: 0.8"/>
      </defs>
      <g>
       <use xlink:href="#mc54455ec21" x="309.221063" y="311.6435" style="stroke: #000000; stroke-width: 0.8"/>
      </g>
     </g>
     <g id="text_7">
      <!-- 0.000 -->
      <g transform="translate(252.721063 319.281625) scale(0.22 -0.22)">
       <use xlink:href="#TimesNewRomanPSMT-30"/>
       <use xlink:href="#TimesNewRomanPSMT-2e" transform="translate(50 0)"/>
       <use xlink:href="#TimesNewRomanPSMT-30" transform="translate(75 0)"/>
       <use xlink:href="#TimesNewRomanPSMT-30" transform="translate(125 0)"/>
       <use xlink:href="#TimesNewRomanPSMT-30" transform="translate(175 0)"/>
      </g>
     </g>
    </g>
    <g id="ytick_2">
     <g id="line2d_13">
      <path d="M 309.221063 264.442318 
L 666.341063 264.442318 
" clip-path="url(#p1803961ef7)" style="fill: none; stroke: #b0b0b0; stroke-opacity: 0.3; stroke-width: 0.8; stroke-linecap: square"/>
     </g>
     <g id="line2d_14">
      <g>
       <use xlink:href="#mc54455ec21" x="309.221063" y="264.442318" style="stroke: #000000; stroke-width: 0.8"/>
      </g>
     </g>
     <g id="text_8">
      <!-- 0.025 -->
      <g transform="translate(252.721063 272.080443) scale(0.22 -0.22)">
       <use xlink:href="#TimesNewRomanPSMT-30"/>
       <use xlink:href="#TimesNewRomanPSMT-2e" transform="translate(50 0)"/>
       <use xlink:href="#TimesNewRomanPSMT-30" transform="translate(75 0)"/>
       <use xlink:href="#TimesNewRomanPSMT-32" transform="translate(125 0)"/>
       <use xlink:href="#TimesNewRomanPSMT-35" transform="translate(175 0)"/>
      </g>
     </g>
    </g>
    <g id="ytick_3">
     <g id="line2d_15">
      <path d="M 309.221063 217.241136 
L 666.341063 217.241136 
" clip-path="url(#p1803961ef7)" style="fill: none; stroke: #b0b0b0; stroke-opacity: 0.3; stroke-width: 0.8; stroke-linecap: square"/>
     </g>
     <g id="line2d_16">
      <g>
       <use xlink:href="#mc54455ec21" x="309.221063" y="217.241136" style="stroke: #000000; stroke-width: 0.8"/>
      </g>
     </g>
     <g id="text_9">
      <!-- 0.050 -->
      <g transform="translate(252.721063 224.879261) scale(0.22 -0.22)">
       <use xlink:href="#TimesNewRomanPSMT-30"/>
       <use xlink:href="#TimesNewRomanPSMT-2e" transform="translate(50 0)"/>
       <use xlink:href="#TimesNewRomanPSMT-30" transform="translate(75 0)"/>
       <use xlink:href="#TimesNewRomanPSMT-35" transform="translate(125 0)"/>
       <use xlink:href="#TimesNewRomanPSMT-30" transform="translate(175 0)"/>
      </g>
     </g>
    </g>
    <g id="ytick_4">
     <g id="line2d_17">
      <path d="M 309.221063 170.039954 
L 666.341063 170.039954 
" clip-path="url(#p1803961ef7)" style="fill: none; stroke: #b0b0b0; stroke-opacity: 0.3; stroke-width: 0.8; stroke-linecap: square"/>
     </g>
     <g id="line2d_18">
      <g>
       <use xlink:href="#mc54455ec21" x="309.221063" y="170.039954" style="stroke: #000000; stroke-width: 0.8"/>
      </g>
     </g>
     <g id="text_10">
      <!-- 0.075 -->
      <g transform="translate(252.721063 177.678079) scale(0.22 -0.22)">
       <use xlink:href="#TimesNewRomanPSMT-30"/>
       <use xlink:href="#TimesNewRomanPSMT-2e" transform="translate(50 0)"/>
       <use xlink:href="#TimesNewRomanPSMT-30" transform="translate(75 0)"/>
       <use xlink:href="#TimesNewRomanPSMT-37" transform="translate(125 0)"/>
       <use xlink:href="#TimesNewRomanPSMT-35" transform="translate(175 0)"/>
      </g>
     </g>
    </g>
    <g id="ytick_5">
     <g id="line2d_19">
      <path d="M 309.221063 122.838772 
L 666.341063 122.838772 
" clip-path="url(#p1803961ef7)" style="fill: none; stroke: #b0b0b0; stroke-opacity: 0.3; stroke-width: 0.8; stroke-linecap: square"/>
     </g>
     <g id="line2d_20">
      <g>
       <use xlink:href="#mc54455ec21" x="309.221063" y="122.838772" style="stroke: #000000; stroke-width: 0.8"/>
      </g>
     </g>
     <g id="text_11">
      <!-- 0.100 -->
      <g transform="translate(252.721063 130.476897) scale(0.22 -0.22)">
       <use xlink:href="#TimesNewRomanPSMT-30"/>
       <use xlink:href="#TimesNewRomanPSMT-2e" transform="translate(50 0)"/>
       <use xlink:href="#TimesNewRomanPSMT-31" transform="translate(75 0)"/>
       <use xlink:href="#TimesNewRomanPSMT-30" transform="translate(125 0)"/>
       <use xlink:href="#TimesNewRomanPSMT-30" transform="translate(175 0)"/>
      </g>
     </g>
    </g>
    <g id="ytick_6">
     <g id="line2d_21">
      <path d="M 309.221063 75.63759 
L 666.341063 75.63759 
" clip-path="url(#p1803961ef7)" style="fill: none; stroke: #b0b0b0; stroke-opacity: 0.3; stroke-width: 0.8; stroke-linecap: square"/>
     </g>
     <g id="line2d_22">
      <g>
       <use xlink:href="#mc54455ec21" x="309.221063" y="75.63759" style="stroke: #000000; stroke-width: 0.8"/>
      </g>
     </g>
     <g id="text_12">
      <!-- 0.125 -->
      <g transform="translate(252.721063 83.275715) scale(0.22 -0.22)">
       <use xlink:href="#TimesNewRomanPSMT-30"/>
       <use xlink:href="#TimesNewRomanPSMT-2e" transform="translate(50 0)"/>
       <use xlink:href="#TimesNewRomanPSMT-31" transform="translate(75 0)"/>
       <use xlink:href="#TimesNewRomanPSMT-32" transform="translate(125 0)"/>
       <use xlink:href="#TimesNewRomanPSMT-35" transform="translate(175 0)"/>
      </g>
     </g>
    </g>
    <g id="text_13">
     <!-- Loss -->
     <g transform="translate(244.015125 199.368906) rotate(-90) scale(0.22 -0.22)">
      <defs>
       <path id="TimesNewRomanPSMT-4c" d="M 3669 1172 
L 3772 1150 
L 3409 0 
L 128 0 
L 128 116 
L 288 116 
Q 556 116 672 291 
Q 738 391 738 753 
L 738 3488 
Q 738 3884 650 3984 
Q 528 4122 288 4122 
L 128 4122 
L 128 4238 
L 2047 4238 
L 2047 4122 
Q 1709 4125 1573 4059 
Q 1438 3994 1388 3894 
Q 1338 3794 1338 3416 
L 1338 753 
Q 1338 494 1388 397 
Q 1425 331 1503 300 
Q 1581 269 1991 269 
L 2300 269 
Q 2788 269 2984 341 
Q 3181 413 3343 595 
Q 3506 778 3669 1172 
z
" transform="scale(0.015625)"/>
       <path id="TimesNewRomanPSMT-6f" d="M 1600 2947 
Q 2250 2947 2644 2453 
Q 2978 2031 2978 1484 
Q 2978 1100 2793 706 
Q 2609 313 2286 112 
Q 1963 -88 1566 -88 
Q 919 -88 538 428 
Q 216 863 216 1403 
Q 216 1797 411 2186 
Q 606 2575 925 2761 
Q 1244 2947 1600 2947 
z
M 1503 2744 
Q 1338 2744 1170 2645 
Q 1003 2547 900 2300 
Q 797 2053 797 1666 
Q 797 1041 1045 587 
Q 1294 134 1700 134 
Q 2003 134 2200 384 
Q 2397 634 2397 1244 
Q 2397 2006 2069 2444 
Q 1847 2744 1503 2744 
z
" transform="scale(0.015625)"/>
       <path id="TimesNewRomanPSMT-73" d="M 2050 2947 
L 2050 1972 
L 1947 1972 
Q 1828 2431 1642 2597 
Q 1456 2763 1169 2763 
Q 950 2763 815 2647 
Q 681 2531 681 2391 
Q 681 2216 781 2091 
Q 878 1963 1175 1819 
L 1631 1597 
Q 2266 1288 2266 781 
Q 2266 391 1970 151 
Q 1675 -88 1309 -88 
Q 1047 -88 709 6 
Q 606 38 541 38 
Q 469 38 428 -44 
L 325 -44 
L 325 978 
L 428 978 
Q 516 541 762 319 
Q 1009 97 1316 97 
Q 1531 97 1667 223 
Q 1803 350 1803 528 
Q 1803 744 1651 891 
Q 1500 1038 1047 1263 
Q 594 1488 453 1669 
Q 313 1847 313 2119 
Q 313 2472 555 2709 
Q 797 2947 1181 2947 
Q 1350 2947 1591 2875 
Q 1750 2828 1803 2828 
Q 1853 2828 1881 2850 
Q 1909 2872 1947 2947 
L 2050 2947 
z
" transform="scale(0.015625)"/>
      </defs>
      <use xlink:href="#TimesNewRomanPSMT-4c"/>
      <use xlink:href="#TimesNewRomanPSMT-6f" transform="translate(61.083984 0)"/>
      <use xlink:href="#TimesNewRomanPSMT-73" transform="translate(111.083984 0)"/>
      <use xlink:href="#TimesNewRomanPSMT-73" transform="translate(150 0)"/>
     </g>
    </g>
   </g>
   <g id="line2d_23">
    <path d="M 309.221063 64.411973 
L 418.763607 78.509575 
L 448.27023 85.309896 
L 466.040371 87.214912 
L 478.796495 88.317684 
L 488.754142 89.472476 
L 496.922961 90.189051 
L 503.848824 90.613342 
L 509.860505 91.372048 
L 515.171441 90.890434 
L 519.928071 91.910014 
L 528.170619 92.48997 
L 531.793309 92.084896 
L 535.149368 92.533986 
L 538.275368 93.14693 
L 541.200836 93.346161 
L 543.949958 93.372537 
L 548.99615 93.811246 
L 551.324281 93.645578 
L 553.539348 93.612788 
L 555.651826 94.815394 
L 557.6708 94.542718 
L 559.604196 94.477124 
L 561.458975 94.832697 
L 563.241283 95.513457 
L 564.956569 95.039271 
L 566.609692 95.552198 
L 568.205002 95.578658 
L 569.746404 96.170304 
L 571.237425 96.565757 
L 572.681252 96.235477 
L 574.080783 96.817754 
L 575.438655 97.721773 
L 576.757275 97.255549 
L 578.038851 97.794767 
L 579.285406 97.572085 
L 580.498804 97.49701 
L 581.680762 98.363709 
L 582.83287 97.903772 
L 583.956597 98.463514 
L 585.053309 99.306946 
L 586.124274 98.202725 
L 587.170673 99.532005 
L 588.193608 99.250256 
L 589.194109 99.758808 
L 590.173137 99.522228 
L 591.131596 100.012831 
L 592.070332 99.629265 
L 592.990141 99.472783 
L 593.89177 99.597248 
L 594.775924 99.967858 
L 595.643269 98.686646 
L 596.49443 99.361752 
L 597.330002 99.710333 
L 598.150544 99.373807 
L 598.956588 100.645271 
L 599.748638 100.396256 
L 601.29264 99.548281 
L 603.514876 100.204551 
L 604.2322 100.715297 
L 604.93842 99.336965 
L 605.633873 100.144836 
L 606.318884 99.276758 
L 607.658801 100.82578 
L 608.314284 98.654348 
L 608.960483 100.638013 
L 609.597656 101.312964 
L 610.226052 100.91737 
L 610.84591 101.416666 
L 611.457459 99.772172 
L 612.060918 99.634061 
L 612.656499 101.728856 
L 613.244404 99.980111 
L 613.82483 100.698909 
L 614.397963 101.125309 
L 614.963986 100.78891 
L 616.075388 100.561277 
L 616.621099 100.971556 
L 617.160358 100.447967 
L 617.693318 100.997834 
L 618.220123 100.401996 
L 618.740914 101.586849 
L 619.255827 101.079071 
L 619.764993 101.487676 
L 620.268539 100.671225 
L 620.766588 100.776024 
L 621.259258 101.536348 
L 621.746664 101.555184 
L 622.228918 100.956448 
L 622.706127 102.602631 
L 623.178397 101.372664 
L 623.645827 102.531845 
L 624.108516 102.387447 
L 624.56656 100.789909 
L 625.020051 103.231189 
L 625.913729 102.110298 
L 626.354087 101.051317 
L 626.790236 101.137421 
L 627.222254 101.39655 
L 627.650219 102.323104 
L 628.074207 101.00377 
L 628.494291 102.897771 
L 628.910542 101.289781 
L 629.73182 101.665231 
L 630.136981 102.517778 
L 630.538575 102.076537 
L 630.936664 101.995989 
L 631.33131 103.14763 
L 631.722571 102.210104 
L 632.110505 102.008382 
L 632.876615 102.559149 
L 633.254899 100.802442 
L 633.630071 100.788544 
L 634.002184 101.703127 
L 634.371286 103.055041 
L 635.10065 103.184275 
L 635.461006 102.593445 
L 635.818537 102.589014 
L 636.173288 102.977827 
L 636.87462 102.156157 
L 637.221284 102.443195 
L 637.565333 101.150658 
L 637.906808 103.014218 
L 638.245745 103.884139 
L 638.582183 101.762955 
L 638.916157 102.236395 
L 639.247705 103.216939 
L 639.57686 103.101378 
L 640.228131 102.38393 
L 640.550313 102.679113 
L 640.870235 102.435767 
L 641.18793 103.258732 
L 641.503427 103.029355 
L 641.816758 102.256764 
L 642.437036 104.004919 
L 642.74404 103.60917 
L 643.048993 103.720244 
L 643.351921 102.659616 
L 643.65285 103.869382 
L 643.951807 103.05988 
L 644.248818 101.747621 
L 644.543908 103.087072 
L 644.837102 103.610028 
L 645.128423 103.126502 
L 645.417895 104.512978 
L 645.705543 103.682586 
L 645.991388 104.123391 
L 646.838332 103.356709 
L 647.117188 104.386262 
L 647.39435 103.285713 
L 647.669838 103.935188 
L 647.943673 104.139582 
L 648.215874 103.698791 
L 648.48646 102.764683 
L 648.755451 102.663471 
L 649.288721 104.015117 
L 649.553036 103.34402 
L 649.815829 104.077026 
L 650.077117 103.078786 
L 650.336917 104.415873 
L 650.595245 104.274035 
L 650.852119 105.564673 
L 651.107555 103.855766 
L 651.361569 103.623927 
L 651.614176 105.190771 
L 651.865392 104.775174 
L 652.115232 104.872827 
L 652.363712 105.721928 
L 652.610845 103.738882 
L 652.856647 104.798244 
L 653.101131 104.334861 
L 653.344313 105.305206 
L 653.586205 104.679194 
L 654.304279 106.141999 
L 654.541147 104.377555 
L 655.011226 105.591288 
L 655.47651 104.264132 
L 655.937096 105.786595 
L 656.165658 105.134066 
L 656.393079 106.097687 
L 656.619373 105.860897 
L 656.84455 104.811622 
L 657.06862 104.886444 
L 657.291596 106.988779 
L 657.734304 105.556866 
L 657.954057 107.447646 
L 658.172757 105.473504 
L 658.390414 104.910485 
L 658.607037 105.152325 
L 658.822636 106.582199 
L 659.037221 105.456075 
L 659.250801 105.296175 
L 659.674986 107.145865 
L 659.885608 104.598393 
L 660.095262 106.407402 
L 660.303958 105.443598 
L 660.511702 106.386568 
L 660.718506 106.018124 
L 661.129321 105.878889 
L 661.333349 105.544346 
L 661.536469 106.271837 
L 661.738689 106.363498 
L 661.940016 106.191135 
L 662.140459 106.555401 
L 662.340025 105.632434 
L 662.538722 105.676843 
L 662.736557 106.033429 
L 662.933538 106.832634 
L 663.324966 106.042671 
L 663.519428 106.305092 
L 663.713064 106.924999 
L 663.905883 106.853608 
L 664.097889 107.891771 
L 664.289091 105.571706 
L 664.479495 106.318442 
L 664.669107 107.919539 
L 664.857935 105.907262 
L 665.045984 107.29786 
L 665.233262 107.578188 
L 665.419773 106.884373 
L 665.605526 107.802234 
L 665.790525 107.410635 
L 665.974776 107.6068 
L 666.158287 105.88135 
L 666.341063 107.441175 
L 666.341063 107.441175 
" clip-path="url(#p1803961ef7)" style="fill: none; stroke: #ffa500; stroke-width: 1.5; stroke-linecap: square"/>
   </g>
   <g id="line2d_24">
    <path d="M 309.221063 64.890084 
L 418.763607 78.504286 
L 448.27023 85.085273 
L 466.040371 87.211198 
L 488.754142 88.706961 
L 515.171441 90.662886 
L 535.149368 92.186783 
L 557.6708 93.663303 
L 563.241283 94.25862 
L 580.498804 96.980046 
L 588.193608 97.81567 
L 592.990141 97.889185 
L 593.89177 97.56259 
L 594.775924 97.83106 
L 596.49443 97.344213 
L 597.330002 97.845886 
L 598.150544 97.565713 
L 598.956588 97.899665 
L 599.748638 97.729299 
L 600.52717 97.311592 
L 601.29264 97.425211 
L 602.045477 97.210492 
L 602.786092 97.822043 
L 603.514876 97.619069 
L 604.2322 97.584704 
L 604.93842 96.819526 
L 605.633873 96.986502 
L 606.318884 97.304263 
L 607.658801 97.424058 
L 608.314284 95.982959 
L 608.960483 97.655686 
L 610.226052 96.845157 
L 610.84591 97.056823 
L 611.457459 96.547259 
L 612.060918 96.481706 
L 612.656499 97.262188 
L 613.244404 96.521699 
L 613.82483 97.394081 
L 614.963986 96.617763 
L 615.523072 96.577714 
L 616.075388 96.662215 
L 616.621099 97.03976 
L 617.160358 96.578037 
L 617.693318 96.749951 
L 618.220123 96.437944 
L 618.740914 97.187309 
L 619.255827 96.350672 
L 619.764993 96.811747 
L 620.766588 96.783684 
L 621.259258 97.130197 
L 621.746664 96.447833 
L 622.228918 96.336253 
L 622.706127 97.104708 
L 623.178397 96.624937 
L 623.645827 96.785962 
L 624.108516 97.135121 
L 624.56656 95.69865 
L 625.020051 97.147612 
L 625.469078 97.186479 
L 625.913729 96.894799 
L 626.354087 96.033896 
L 626.790236 96.556332 
L 627.222254 96.161146 
L 627.650219 97.014172 
L 628.074207 96.048512 
L 628.494291 96.935537 
L 628.910542 96.658993 
L 629.323029 96.066545 
L 629.73182 96.100827 
L 630.136981 96.576504 
L 630.538575 96.597042 
L 630.936664 95.97902 
L 631.33131 97.464261 
L 631.722571 95.992581 
L 632.110505 96.064365 
L 632.495168 96.809061 
L 632.876615 97.10738 
L 633.254899 95.381649 
L 633.630071 95.757549 
L 634.002184 95.475153 
L 634.371286 96.330612 
L 635.10065 96.872953 
L 635.461006 95.996224 
L 635.818537 96.733943 
L 636.173288 96.321708 
L 636.525302 96.372588 
L 636.87462 96.195104 
L 637.221284 96.408572 
L 637.565333 95.860674 
L 637.906808 96.737867 
L 638.245745 97.094664 
L 638.582183 95.641242 
L 638.916157 95.630973 
L 639.57686 96.622968 
L 639.903658 95.903987 
L 640.228131 96.168855 
L 640.550313 95.654972 
L 640.870235 96.298764 
L 641.18793 96.248672 
L 641.503427 96.048666 
L 641.816758 96.085803 
L 642.437036 96.993494 
L 642.74404 96.553715 
L 643.048993 95.893591 
L 643.351921 95.691799 
L 643.65285 96.430544 
L 643.951807 96.175284 
L 644.248818 95.30767 
L 644.543908 96.290845 
L 645.128423 95.917294 
L 645.417895 96.182599 
L 645.705543 95.312284 
L 645.991388 96.67887 
L 646.275453 95.655717 
L 646.55776 95.926339 
L 646.838332 96.395095 
L 647.117188 96.041478 
L 647.669838 96.024598 
L 647.943673 96.212871 
L 648.215874 95.769843 
L 648.755451 95.853022 
L 649.022865 96.160837 
L 649.815829 96.107593 
L 650.077117 95.618496 
L 650.336917 96.567009 
L 650.595245 96.179982 
L 650.852119 96.638582 
L 651.107555 95.272123 
L 651.361569 95.577969 
L 651.614176 96.182247 
L 651.865392 96.177942 
L 652.115232 95.481033 
L 652.363712 96.436481 
L 652.610845 95.937734 
L 652.856647 96.363684 
L 653.101131 95.147517 
L 653.344313 96.540422 
L 653.586205 95.743468 
L 653.826821 96.340839 
L 654.066175 96.469257 
L 654.541147 96.318177 
L 654.776792 95.379314 
L 655.011226 95.772741 
L 655.244461 95.403312 
L 655.47651 95.417379 
L 655.707384 95.655788 
L 655.937096 95.567179 
L 656.165658 95.146617 
L 656.393079 96.008955 
L 656.619373 96.187832 
L 656.84455 95.301748 
L 657.291596 96.460479 
L 657.734304 95.390441 
L 657.954057 96.523373 
L 658.172757 94.963267 
L 658.822636 96.153564 
L 659.037221 95.306433 
L 659.250801 95.339757 
L 659.463386 96.338349 
L 659.674986 96.020884 
L 659.885608 95.085059 
L 660.095262 95.596987 
L 660.303958 95.611491 
L 660.718506 96.024288 
L 660.924376 95.14016 
L 661.129321 95.014344 
L 661.333349 95.350209 
L 661.536469 96.24998 
L 661.738689 96.116554 
L 661.940016 95.508998 
L 662.538722 95.514203 
L 662.736557 95.114375 
L 662.933538 95.705008 
L 663.129672 95.41548 
L 663.324966 94.739165 
L 663.519428 94.975632 
L 663.713064 95.4629 
L 664.097889 95.689183 
L 664.289091 94.985 
L 664.479495 95.267059 
L 664.857935 95.170404 
L 665.045984 95.364881 
L 665.233262 95.807487 
L 665.419773 94.890709 
L 665.790525 95.822187 
L 666.158287 94.987251 
L 666.341063 95.619776 
L 666.341063 95.619776 
" clip-path="url(#p1803961ef7)" style="fill: none; stroke: #008000; stroke-width: 1.5; stroke-linecap: square"/>
   </g>
   <g id="patch_3">
    <path d="M 309.221063 311.6435 
L 309.221063 45.5315 
" style="fill: none; stroke: #000000; stroke-width: 0.8; stroke-linejoin: miter; stroke-linecap: square"/>
   </g>
   <g id="patch_4">
    <path d="M 666.341063 311.6435 
L 666.341063 45.5315 
" style="fill: none; stroke: #000000; stroke-width: 0.8; stroke-linejoin: miter; stroke-linecap: square"/>
   </g>
   <g id="patch_5">
    <path d="M 309.221063 311.6435 
L 666.341063 311.6435 
" style="fill: none; stroke: #000000; stroke-width: 0.8; stroke-linejoin: miter; stroke-linecap: square"/>
   </g>
   <g id="patch_6">
    <path d="M 309.221063 45.5315 
L 666.341063 45.5315 
" style="fill: none; stroke: #000000; stroke-width: 0.8; stroke-linejoin: miter; stroke-linecap: square"/>
   </g>
   <g id="text_14">
    <!-- Loss of the 15_05_25_CINIC10_model_(1024+512+512+512+1)_ct+(Rot+Noise)_save_2 -->
    <g transform="translate(7.2 25.5315) scale(0.264 -0.264)">
     <defs>
      <path id="TimesNewRomanPSMT-20" transform="scale(0.015625)"/>
      <path id="TimesNewRomanPSMT-66" d="M 1319 2638 
L 1319 756 
Q 1319 356 1406 250 
Q 1522 113 1716 113 
L 1975 113 
L 1975 0 
L 266 0 
L 266 113 
L 394 113 
Q 519 113 622 175 
Q 725 238 764 344 
Q 803 450 803 756 
L 803 2638 
L 247 2638 
L 247 2863 
L 803 2863 
L 803 3050 
Q 803 3478 940 3775 
Q 1078 4072 1361 4255 
Q 1644 4438 1997 4438 
Q 2325 4438 2600 4225 
Q 2781 4084 2781 3909 
Q 2781 3816 2700 3733 
Q 2619 3650 2525 3650 
Q 2453 3650 2373 3701 
Q 2294 3753 2178 3923 
Q 2063 4094 1966 4153 
Q 1869 4213 1750 4213 
Q 1606 4213 1506 4136 
Q 1406 4059 1362 3898 
Q 1319 3738 1319 3069 
L 1319 2863 
L 2056 2863 
L 2056 2638 
L 1319 2638 
z
" transform="scale(0.015625)"/>
      <path id="TimesNewRomanPSMT-74" d="M 1031 3803 
L 1031 2863 
L 1700 2863 
L 1700 2644 
L 1031 2644 
L 1031 788 
Q 1031 509 1111 412 
Q 1191 316 1316 316 
Q 1419 316 1516 380 
Q 1613 444 1666 569 
L 1788 569 
Q 1678 263 1478 108 
Q 1278 -47 1066 -47 
Q 922 -47 784 33 
Q 647 113 581 261 
Q 516 409 516 719 
L 516 2644 
L 63 2644 
L 63 2747 
Q 234 2816 414 2980 
Q 594 3144 734 3369 
Q 806 3488 934 3803 
L 1031 3803 
z
" transform="scale(0.015625)"/>
      <path id="TimesNewRomanPSMT-68" d="M 1041 4444 
L 1041 2350 
Q 1388 2731 1591 2839 
Q 1794 2947 1997 2947 
Q 2241 2947 2416 2812 
Q 2591 2678 2675 2391 
Q 2734 2191 2734 1659 
L 2734 647 
Q 2734 375 2778 275 
Q 2809 200 2884 156 
Q 2959 113 3159 113 
L 3159 0 
L 1753 0 
L 1753 113 
L 1819 113 
Q 2019 113 2097 173 
Q 2175 234 2206 353 
Q 2216 403 2216 647 
L 2216 1659 
Q 2216 2128 2167 2275 
Q 2119 2422 2012 2495 
Q 1906 2569 1756 2569 
Q 1603 2569 1437 2487 
Q 1272 2406 1041 2159 
L 1041 647 
Q 1041 353 1073 281 
Q 1106 209 1195 161 
Q 1284 113 1503 113 
L 1503 0 
L 84 0 
L 84 113 
Q 275 113 384 172 
Q 447 203 484 290 
Q 522 378 522 647 
L 522 3238 
Q 522 3728 498 3840 
Q 475 3953 426 3993 
Q 378 4034 297 4034 
Q 231 4034 84 3984 
L 41 4094 
L 897 4444 
L 1041 4444 
z
" transform="scale(0.015625)"/>
      <path id="TimesNewRomanPSMT-65" d="M 681 1784 
Q 678 1147 991 784 
Q 1303 422 1725 422 
Q 2006 422 2214 576 
Q 2422 731 2563 1106 
L 2659 1044 
Q 2594 616 2278 264 
Q 1963 -88 1488 -88 
Q 972 -88 605 314 
Q 238 716 238 1394 
Q 238 2128 614 2539 
Q 991 2950 1559 2950 
Q 2041 2950 2350 2633 
Q 2659 2316 2659 1784 
L 681 1784 
z
M 681 1966 
L 2006 1966 
Q 1991 2241 1941 2353 
Q 1863 2528 1708 2628 
Q 1553 2728 1384 2728 
Q 1125 2728 920 2526 
Q 716 2325 681 1966 
z
" transform="scale(0.015625)"/>
      <path id="TimesNewRomanPSMT-5f" d="M 3256 -1381 
L -53 -1381 
L -53 -1119 
L 3256 -1119 
L 3256 -1381 
z
" transform="scale(0.015625)"/>
      <path id="TimesNewRomanPSMT-43" d="M 3853 4334 
L 3950 2894 
L 3853 2894 
Q 3659 3541 3300 3825 
Q 2941 4109 2438 4109 
Q 2016 4109 1675 3895 
Q 1334 3681 1139 3212 
Q 944 2744 944 2047 
Q 944 1472 1128 1050 
Q 1313 628 1683 403 
Q 2053 178 2528 178 
Q 2941 178 3256 354 
Q 3572 531 3950 1056 
L 4047 994 
Q 3728 428 3303 165 
Q 2878 -97 2294 -97 
Q 1241 -97 663 684 
Q 231 1266 231 2053 
Q 231 2688 515 3219 
Q 800 3750 1298 4042 
Q 1797 4334 2388 4334 
Q 2847 4334 3294 4109 
Q 3425 4041 3481 4041 
Q 3566 4041 3628 4100 
Q 3709 4184 3744 4334 
L 3853 4334 
z
" transform="scale(0.015625)"/>
      <path id="TimesNewRomanPSMT-49" d="M 1975 116 
L 1975 0 
L 159 0 
L 159 116 
L 309 116 
Q 572 116 691 269 
Q 766 369 766 750 
L 766 3488 
Q 766 3809 725 3913 
Q 694 3991 597 4047 
Q 459 4122 309 4122 
L 159 4122 
L 159 4238 
L 1975 4238 
L 1975 4122 
L 1822 4122 
Q 1563 4122 1444 3969 
Q 1366 3869 1366 3488 
L 1366 750 
Q 1366 428 1406 325 
Q 1438 247 1538 191 
Q 1672 116 1822 116 
L 1975 116 
z
" transform="scale(0.015625)"/>
      <path id="TimesNewRomanPSMT-4e" d="M -84 4238 
L 1066 4238 
L 3656 1059 
L 3656 3503 
Q 3656 3894 3569 3991 
Q 3453 4122 3203 4122 
L 3056 4122 
L 3056 4238 
L 4531 4238 
L 4531 4122 
L 4381 4122 
Q 4113 4122 4000 3959 
Q 3931 3859 3931 3503 
L 3931 -69 
L 3819 -69 
L 1025 3344 
L 1025 734 
Q 1025 344 1109 247 
Q 1228 116 1475 116 
L 1625 116 
L 1625 0 
L 150 0 
L 150 116 
L 297 116 
Q 569 116 681 278 
Q 750 378 750 734 
L 750 3681 
Q 566 3897 470 3965 
Q 375 4034 191 4094 
Q 100 4122 -84 4122 
L -84 4238 
z
" transform="scale(0.015625)"/>
      <path id="TimesNewRomanPSMT-6d" d="M 1050 2338 
Q 1363 2650 1419 2697 
Q 1559 2816 1721 2881 
Q 1884 2947 2044 2947 
Q 2313 2947 2506 2790 
Q 2700 2634 2766 2338 
Q 3088 2713 3309 2830 
Q 3531 2947 3766 2947 
Q 3994 2947 4170 2830 
Q 4347 2713 4450 2447 
Q 4519 2266 4519 1878 
L 4519 647 
Q 4519 378 4559 278 
Q 4591 209 4675 161 
Q 4759 113 4950 113 
L 4950 0 
L 3538 0 
L 3538 113 
L 3597 113 
Q 3781 113 3884 184 
Q 3956 234 3988 344 
Q 4000 397 4000 647 
L 4000 1878 
Q 4000 2228 3916 2372 
Q 3794 2572 3525 2572 
Q 3359 2572 3192 2489 
Q 3025 2406 2788 2181 
L 2781 2147 
L 2788 2013 
L 2788 647 
Q 2788 353 2820 281 
Q 2853 209 2943 161 
Q 3034 113 3253 113 
L 3253 0 
L 1806 0 
L 1806 113 
Q 2044 113 2133 169 
Q 2222 225 2256 338 
Q 2272 391 2272 647 
L 2272 1878 
Q 2272 2228 2169 2381 
Q 2031 2581 1784 2581 
Q 1616 2581 1450 2491 
Q 1191 2353 1050 2181 
L 1050 647 
Q 1050 366 1089 281 
Q 1128 197 1204 155 
Q 1281 113 1516 113 
L 1516 0 
L 100 0 
L 100 113 
Q 297 113 375 155 
Q 453 197 493 289 
Q 534 381 534 647 
L 534 1741 
Q 534 2213 506 2350 
Q 484 2453 437 2492 
Q 391 2531 309 2531 
Q 222 2531 100 2484 
L 53 2597 
L 916 2947 
L 1050 2947 
L 1050 2338 
z
" transform="scale(0.015625)"/>
      <path id="TimesNewRomanPSMT-64" d="M 2222 322 
Q 2013 103 1813 7 
Q 1613 -88 1381 -88 
Q 913 -88 563 304 
Q 213 697 213 1313 
Q 213 1928 600 2439 
Q 988 2950 1597 2950 
Q 1975 2950 2222 2709 
L 2222 3238 
Q 2222 3728 2198 3840 
Q 2175 3953 2125 3993 
Q 2075 4034 2000 4034 
Q 1919 4034 1784 3984 
L 1744 4094 
L 2597 4444 
L 2738 4444 
L 2738 1134 
Q 2738 631 2761 520 
Q 2784 409 2836 365 
Q 2888 322 2956 322 
Q 3041 322 3181 375 
L 3216 266 
L 2366 -88 
L 2222 -88 
L 2222 322 
z
M 2222 541 
L 2222 2016 
Q 2203 2228 2109 2403 
Q 2016 2578 1861 2667 
Q 1706 2756 1559 2756 
Q 1284 2756 1069 2509 
Q 784 2184 784 1559 
Q 784 928 1059 592 
Q 1334 256 1672 256 
Q 1956 256 2222 541 
z
" transform="scale(0.015625)"/>
      <path id="TimesNewRomanPSMT-6c" d="M 1184 4444 
L 1184 647 
Q 1184 378 1223 290 
Q 1263 203 1344 158 
Q 1425 113 1647 113 
L 1647 0 
L 244 0 
L 244 113 
Q 441 113 512 153 
Q 584 194 625 287 
Q 666 381 666 647 
L 666 3247 
Q 666 3731 644 3842 
Q 622 3953 573 3993 
Q 525 4034 450 4034 
Q 369 4034 244 3984 
L 191 4094 
L 1044 4444 
L 1184 4444 
z
" transform="scale(0.015625)"/>
      <path id="TimesNewRomanPSMT-28" d="M 1988 -1253 
L 1988 -1369 
Q 1516 -1131 1200 -813 
Q 750 -359 506 256 
Q 263 872 263 1534 
Q 263 2503 741 3301 
Q 1219 4100 1988 4444 
L 1988 4313 
Q 1603 4100 1356 3731 
Q 1109 3363 987 2797 
Q 866 2231 866 1616 
Q 866 947 969 400 
Q 1050 -31 1165 -292 
Q 1281 -553 1476 -793 
Q 1672 -1034 1988 -1253 
z
" transform="scale(0.015625)"/>
      <path id="TimesNewRomanPSMT-34" d="M 2978 1563 
L 2978 1119 
L 2409 1119 
L 2409 0 
L 1894 0 
L 1894 1119 
L 100 1119 
L 100 1519 
L 2066 4325 
L 2409 4325 
L 2409 1563 
L 2978 1563 
z
M 1894 1563 
L 1894 3666 
L 406 1563 
L 1894 1563 
z
" transform="scale(0.015625)"/>
      <path id="TimesNewRomanPSMT-2b" d="M 1672 441 
L 1672 2000 
L 116 2000 
L 116 2256 
L 1672 2256 
L 1672 3809 
L 1922 3809 
L 1922 2256 
L 3484 2256 
L 3484 2000 
L 1922 2000 
L 1922 441 
L 1672 441 
z
" transform="scale(0.015625)"/>
      <path id="TimesNewRomanPSMT-29" d="M 144 4313 
L 144 4444 
Q 619 4209 934 3891 
Q 1381 3434 1625 2820 
Q 1869 2206 1869 1541 
Q 1869 572 1392 -226 
Q 916 -1025 144 -1369 
L 144 -1253 
Q 528 -1038 776 -670 
Q 1025 -303 1145 264 
Q 1266 831 1266 1447 
Q 1266 2113 1163 2663 
Q 1084 3094 967 3353 
Q 850 3613 656 3853 
Q 463 4094 144 4313 
z
" transform="scale(0.015625)"/>
      <path id="TimesNewRomanPSMT-63" d="M 2631 1088 
Q 2516 522 2178 217 
Q 1841 -88 1431 -88 
Q 944 -88 581 321 
Q 219 731 219 1428 
Q 219 2103 620 2525 
Q 1022 2947 1584 2947 
Q 2006 2947 2278 2723 
Q 2550 2500 2550 2259 
Q 2550 2141 2473 2067 
Q 2397 1994 2259 1994 
Q 2075 1994 1981 2113 
Q 1928 2178 1911 2362 
Q 1894 2547 1784 2644 
Q 1675 2738 1481 2738 
Q 1169 2738 978 2506 
Q 725 2200 725 1697 
Q 725 1184 976 792 
Q 1228 400 1656 400 
Q 1963 400 2206 609 
Q 2378 753 2541 1131 
L 2631 1088 
z
" transform="scale(0.015625)"/>
      <path id="TimesNewRomanPSMT-52" d="M 4325 0 
L 3194 0 
L 1759 1981 
Q 1600 1975 1500 1975 
Q 1459 1975 1412 1976 
Q 1366 1978 1316 1981 
L 1316 750 
Q 1316 350 1403 253 
Q 1522 116 1759 116 
L 1925 116 
L 1925 0 
L 109 0 
L 109 116 
L 269 116 
Q 538 116 653 291 
Q 719 388 719 750 
L 719 3488 
Q 719 3888 631 3984 
Q 509 4122 269 4122 
L 109 4122 
L 109 4238 
L 1653 4238 
Q 2328 4238 2648 4139 
Q 2969 4041 3192 3777 
Q 3416 3513 3416 3147 
Q 3416 2756 3161 2468 
Q 2906 2181 2372 2063 
L 3247 847 
Q 3547 428 3762 290 
Q 3978 153 4325 116 
L 4325 0 
z
M 1316 2178 
Q 1375 2178 1419 2176 
Q 1463 2175 1491 2175 
Q 2097 2175 2405 2437 
Q 2713 2700 2713 3106 
Q 2713 3503 2464 3751 
Q 2216 4000 1806 4000 
Q 1625 4000 1316 3941 
L 1316 2178 
z
" transform="scale(0.015625)"/>
      <path id="TimesNewRomanPSMT-69" d="M 928 4444 
Q 1059 4444 1151 4351 
Q 1244 4259 1244 4128 
Q 1244 3997 1151 3903 
Q 1059 3809 928 3809 
Q 797 3809 703 3903 
Q 609 3997 609 4128 
Q 609 4259 701 4351 
Q 794 4444 928 4444 
z
M 1188 2947 
L 1188 647 
Q 1188 378 1227 289 
Q 1266 200 1342 156 
Q 1419 113 1622 113 
L 1622 0 
L 231 0 
L 231 113 
Q 441 113 512 153 
Q 584 194 626 287 
Q 669 381 669 647 
L 669 1750 
Q 669 2216 641 2353 
Q 619 2453 572 2492 
Q 525 2531 444 2531 
Q 356 2531 231 2484 
L 188 2597 
L 1050 2947 
L 1188 2947 
z
" transform="scale(0.015625)"/>
      <path id="TimesNewRomanPSMT-61" d="M 1822 413 
Q 1381 72 1269 19 
Q 1100 -59 909 -59 
Q 613 -59 420 144 
Q 228 347 228 678 
Q 228 888 322 1041 
Q 450 1253 767 1440 
Q 1084 1628 1822 1897 
L 1822 2009 
Q 1822 2438 1686 2597 
Q 1550 2756 1291 2756 
Q 1094 2756 978 2650 
Q 859 2544 859 2406 
L 866 2225 
Q 866 2081 792 2003 
Q 719 1925 600 1925 
Q 484 1925 411 2006 
Q 338 2088 338 2228 
Q 338 2497 613 2722 
Q 888 2947 1384 2947 
Q 1766 2947 2009 2819 
Q 2194 2722 2281 2516 
Q 2338 2381 2338 1966 
L 2338 994 
Q 2338 584 2353 492 
Q 2369 400 2405 369 
Q 2441 338 2488 338 
Q 2538 338 2575 359 
Q 2641 400 2828 588 
L 2828 413 
Q 2478 -56 2159 -56 
Q 2006 -56 1915 50 
Q 1825 156 1822 413 
z
M 1822 616 
L 1822 1706 
Q 1350 1519 1213 1441 
Q 966 1303 859 1153 
Q 753 1003 753 825 
Q 753 600 887 451 
Q 1022 303 1197 303 
Q 1434 303 1822 616 
z
" transform="scale(0.015625)"/>
      <path id="TimesNewRomanPSMT-76" d="M 53 2863 
L 1400 2863 
L 1400 2747 
L 1313 2747 
Q 1191 2747 1127 2687 
Q 1063 2628 1063 2528 
Q 1063 2419 1128 2269 
L 1794 688 
L 2463 2328 
Q 2534 2503 2534 2594 
Q 2534 2638 2509 2666 
Q 2475 2713 2422 2730 
Q 2369 2747 2206 2747 
L 2206 2863 
L 3141 2863 
L 3141 2747 
Q 2978 2734 2916 2681 
Q 2806 2588 2719 2369 
L 1703 -88 
L 1575 -88 
L 553 2328 
Q 484 2497 421 2570 
Q 359 2644 263 2694 
Q 209 2722 53 2747 
L 53 2863 
z
" transform="scale(0.015625)"/>
     </defs>
     <use xlink:href="#TimesNewRomanPSMT-4c"/>
     <use xlink:href="#TimesNewRomanPSMT-6f" transform="translate(61.083984 0)"/>
     <use xlink:href="#TimesNewRomanPSMT-73" transform="translate(111.083984 0)"/>
     <use xlink:href="#TimesNewRomanPSMT-73" transform="translate(150 0)"/>
     <use xlink:href="#TimesNewRomanPSMT-20" transform="translate(188.916016 0)"/>
     <use xlink:href="#TimesNewRomanPSMT-6f" transform="translate(213.916016 0)"/>
     <use xlink:href="#TimesNewRomanPSMT-66" transform="translate(263.916016 0)"/>
     <use xlink:href="#TimesNewRomanPSMT-20" transform="translate(297.216797 0)"/>
     <use xlink:href="#TimesNewRomanPSMT-74" transform="translate(322.216797 0)"/>
     <use xlink:href="#TimesNewRomanPSMT-68" transform="translate(350 0)"/>
     <use xlink:href="#TimesNewRomanPSMT-65" transform="translate(400 0)"/>
     <use xlink:href="#TimesNewRomanPSMT-20" transform="translate(444.384766 0)"/>
     <use xlink:href="#TimesNewRomanPSMT-31" transform="translate(469.384766 0)"/>
     <use xlink:href="#TimesNewRomanPSMT-35" transform="translate(519.384766 0)"/>
     <use xlink:href="#TimesNewRomanPSMT-5f" transform="translate(569.384766 0)"/>
     <use xlink:href="#TimesNewRomanPSMT-30" transform="translate(619.384766 0)"/>
     <use xlink:href="#TimesNewRomanPSMT-35" transform="translate(669.384766 0)"/>
     <use xlink:href="#TimesNewRomanPSMT-5f" transform="translate(719.384766 0)"/>
     <use xlink:href="#TimesNewRomanPSMT-32" transform="translate(769.384766 0)"/>
     <use xlink:href="#TimesNewRomanPSMT-35" transform="translate(819.384766 0)"/>
     <use xlink:href="#TimesNewRomanPSMT-5f" transform="translate(869.384766 0)"/>
     <use xlink:href="#TimesNewRomanPSMT-43" transform="translate(919.384766 0)"/>
     <use xlink:href="#TimesNewRomanPSMT-49" transform="translate(986.083984 0)"/>
     <use xlink:href="#TimesNewRomanPSMT-4e" transform="translate(1019.384766 0)"/>
     <use xlink:href="#TimesNewRomanPSMT-49" transform="translate(1091.601562 0)"/>
     <use xlink:href="#TimesNewRomanPSMT-43" transform="translate(1124.902344 0)"/>
     <use xlink:href="#TimesNewRomanPSMT-31" transform="translate(1191.601562 0)"/>
     <use xlink:href="#TimesNewRomanPSMT-30" transform="translate(1241.601562 0)"/>
     <use xlink:href="#TimesNewRomanPSMT-5f" transform="translate(1291.601562 0)"/>
     <use xlink:href="#TimesNewRomanPSMT-6d" transform="translate(1341.601562 0)"/>
     <use xlink:href="#TimesNewRomanPSMT-6f" transform="translate(1419.384766 0)"/>
     <use xlink:href="#TimesNewRomanPSMT-64" transform="translate(1469.384766 0)"/>
     <use xlink:href="#TimesNewRomanPSMT-65" transform="translate(1519.384766 0)"/>
     <use xlink:href="#TimesNewRomanPSMT-6c" transform="translate(1563.769531 0)"/>
     <use xlink:href="#TimesNewRomanPSMT-5f" transform="translate(1591.552734 0)"/>
     <use xlink:href="#TimesNewRomanPSMT-28" transform="translate(1641.552734 0)"/>
     <use xlink:href="#TimesNewRomanPSMT-31" transform="translate(1674.853516 0)"/>
     <use xlink:href="#TimesNewRomanPSMT-30" transform="translate(1724.853516 0)"/>
     <use xlink:href="#TimesNewRomanPSMT-32" transform="translate(1774.853516 0)"/>
     <use xlink:href="#TimesNewRomanPSMT-34" transform="translate(1824.853516 0)"/>
     <use xlink:href="#TimesNewRomanPSMT-2b" transform="translate(1874.853516 0)"/>
     <use xlink:href="#TimesNewRomanPSMT-35" transform="translate(1931.25 0)"/>
     <use xlink:href="#TimesNewRomanPSMT-31" transform="translate(1981.25 0)"/>
     <use xlink:href="#TimesNewRomanPSMT-32" transform="translate(2031.25 0)"/>
     <use xlink:href="#TimesNewRomanPSMT-2b" transform="translate(2081.25 0)"/>
     <use xlink:href="#TimesNewRomanPSMT-35" transform="translate(2137.646484 0)"/>
     <use xlink:href="#TimesNewRomanPSMT-31" transform="translate(2187.646484 0)"/>
     <use xlink:href="#TimesNewRomanPSMT-32" transform="translate(2237.646484 0)"/>
     <use xlink:href="#TimesNewRomanPSMT-2b" transform="translate(2287.646484 0)"/>
     <use xlink:href="#TimesNewRomanPSMT-35" transform="translate(2344.042969 0)"/>
     <use xlink:href="#TimesNewRomanPSMT-31" transform="translate(2394.042969 0)"/>
     <use xlink:href="#TimesNewRomanPSMT-32" transform="translate(2444.042969 0)"/>
     <use xlink:href="#TimesNewRomanPSMT-2b" transform="translate(2494.042969 0)"/>
     <use xlink:href="#TimesNewRomanPSMT-31" transform="translate(2550.439453 0)"/>
     <use xlink:href="#TimesNewRomanPSMT-29" transform="translate(2600.439453 0)"/>
     <use xlink:href="#TimesNewRomanPSMT-5f" transform="translate(2633.740234 0)"/>
     <use xlink:href="#TimesNewRomanPSMT-63" transform="translate(2683.740234 0)"/>
     <use xlink:href="#TimesNewRomanPSMT-74" transform="translate(2728.125 0)"/>
     <use xlink:href="#TimesNewRomanPSMT-2b" transform="translate(2755.908203 0)"/>
     <use xlink:href="#TimesNewRomanPSMT-28" transform="translate(2812.304688 0)"/>
     <use xlink:href="#TimesNewRomanPSMT-52" transform="translate(2845.605469 0)"/>
     <use xlink:href="#TimesNewRomanPSMT-6f" transform="translate(2912.304688 0)"/>
     <use xlink:href="#TimesNewRomanPSMT-74" transform="translate(2962.304688 0)"/>
     <use xlink:href="#TimesNewRomanPSMT-2b" transform="translate(2990.087891 0)"/>
     <use xlink:href="#TimesNewRomanPSMT-4e" transform="translate(3046.484375 0)"/>
     <use xlink:href="#TimesNewRomanPSMT-6f" transform="translate(3118.701172 0)"/>
     <use xlink:href="#TimesNewRomanPSMT-69" transform="translate(3168.701172 0)"/>
     <use xlink:href="#TimesNewRomanPSMT-73" transform="translate(3196.484375 0)"/>
     <use xlink:href="#TimesNewRomanPSMT-65" transform="translate(3235.400391 0)"/>
     <use xlink:href="#TimesNewRomanPSMT-29" transform="translate(3279.785156 0)"/>
     <use xlink:href="#TimesNewRomanPSMT-5f" transform="translate(3313.085938 0)"/>
     <use xlink:href="#TimesNewRomanPSMT-73" transform="translate(3363.085938 0)"/>
     <use xlink:href="#TimesNewRomanPSMT-61" transform="translate(3402.001953 0)"/>
     <use xlink:href="#TimesNewRomanPSMT-76" transform="translate(3446.386719 0)"/>
     <use xlink:href="#TimesNewRomanPSMT-65" transform="translate(3496.386719 0)"/>
     <use xlink:href="#TimesNewRomanPSMT-5f" transform="translate(3540.771484 0)"/>
     <use xlink:href="#TimesNewRomanPSMT-32" transform="translate(3590.771484 0)"/>
    </g>
   </g>
   <g id="legend_1">
    <g id="patch_7">
     <path d="M 324.621062 300.6435 
L 525.178563 300.6435 
Q 529.578563 300.6435 529.578563 296.2435 
L 529.578563 236.190375 
Q 529.578563 231.790375 525.178563 231.790375 
L 324.621062 231.790375 
Q 320.221063 231.790375 320.221063 236.190375 
L 320.221063 296.2435 
Q 320.221063 300.6435 324.621062 300.6435 
z
" style="fill: #ffffff; opacity: 0.8; stroke: #cccccc; stroke-linejoin: miter"/>
    </g>
    <g id="line2d_25">
     <path d="M 329.021063 248.290375 
L 351.021063 248.290375 
L 373.021063 248.290375 
" style="fill: none; stroke: #ffa500; stroke-width: 1.5; stroke-linecap: square"/>
    </g>
    <g id="text_15">
     <!-- Training loss -->
     <g transform="translate(390.621063 255.990375) scale(0.22 -0.22)">
      <defs>
       <path id="TimesNewRomanPSMT-54" d="M 3703 4238 
L 3750 3244 
L 3631 3244 
Q 3597 3506 3538 3619 
Q 3441 3800 3280 3886 
Q 3119 3972 2856 3972 
L 2259 3972 
L 2259 734 
Q 2259 344 2344 247 
Q 2463 116 2709 116 
L 2856 116 
L 2856 0 
L 1059 0 
L 1059 116 
L 1209 116 
Q 1478 116 1591 278 
Q 1659 378 1659 734 
L 1659 3972 
L 1150 3972 
Q 853 3972 728 3928 
Q 566 3869 450 3700 
Q 334 3531 313 3244 
L 194 3244 
L 244 4238 
L 3703 4238 
z
" transform="scale(0.015625)"/>
       <path id="TimesNewRomanPSMT-72" d="M 1038 2947 
L 1038 2303 
Q 1397 2947 1775 2947 
Q 1947 2947 2059 2842 
Q 2172 2738 2172 2600 
Q 2172 2478 2090 2393 
Q 2009 2309 1897 2309 
Q 1788 2309 1652 2417 
Q 1516 2525 1450 2525 
Q 1394 2525 1328 2463 
Q 1188 2334 1038 2041 
L 1038 669 
Q 1038 431 1097 309 
Q 1138 225 1241 169 
Q 1344 113 1538 113 
L 1538 0 
L 72 0 
L 72 113 
Q 291 113 397 181 
Q 475 231 506 341 
Q 522 394 522 644 
L 522 1753 
Q 522 2253 501 2348 
Q 481 2444 426 2487 
Q 372 2531 291 2531 
Q 194 2531 72 2484 
L 41 2597 
L 906 2947 
L 1038 2947 
z
" transform="scale(0.015625)"/>
       <path id="TimesNewRomanPSMT-6e" d="M 1034 2341 
Q 1538 2947 1994 2947 
Q 2228 2947 2397 2830 
Q 2566 2713 2666 2444 
Q 2734 2256 2734 1869 
L 2734 647 
Q 2734 375 2778 278 
Q 2813 200 2889 156 
Q 2966 113 3172 113 
L 3172 0 
L 1756 0 
L 1756 113 
L 1816 113 
Q 2016 113 2095 173 
Q 2175 234 2206 353 
Q 2219 400 2219 647 
L 2219 1819 
Q 2219 2209 2117 2386 
Q 2016 2563 1775 2563 
Q 1403 2563 1034 2156 
L 1034 647 
Q 1034 356 1069 288 
Q 1113 197 1189 155 
Q 1266 113 1500 113 
L 1500 0 
L 84 0 
L 84 113 
L 147 113 
Q 366 113 442 223 
Q 519 334 519 647 
L 519 1709 
Q 519 2225 495 2337 
Q 472 2450 423 2490 
Q 375 2531 294 2531 
Q 206 2531 84 2484 
L 38 2597 
L 900 2947 
L 1034 2947 
L 1034 2341 
z
" transform="scale(0.015625)"/>
       <path id="TimesNewRomanPSMT-67" d="M 966 1044 
Q 703 1172 562 1401 
Q 422 1631 422 1909 
Q 422 2334 742 2640 
Q 1063 2947 1563 2947 
Q 1972 2947 2272 2747 
L 2878 2747 
Q 3013 2747 3034 2739 
Q 3056 2731 3066 2713 
Q 3084 2684 3084 2613 
Q 3084 2531 3069 2500 
Q 3059 2484 3036 2475 
Q 3013 2466 2878 2466 
L 2506 2466 
Q 2681 2241 2681 1891 
Q 2681 1491 2375 1206 
Q 2069 922 1553 922 
Q 1341 922 1119 984 
Q 981 866 932 777 
Q 884 688 884 625 
Q 884 572 936 522 
Q 988 472 1138 450 
Q 1225 438 1575 428 
Q 2219 413 2409 384 
Q 2700 344 2873 169 
Q 3047 -6 3047 -263 
Q 3047 -616 2716 -925 
Q 2228 -1381 1444 -1381 
Q 841 -1381 425 -1109 
Q 191 -953 191 -784 
Q 191 -709 225 -634 
Q 278 -519 444 -313 
Q 466 -284 763 25 
Q 600 122 533 198 
Q 466 275 466 372 
Q 466 481 555 628 
Q 644 775 966 1044 
z
M 1509 2797 
Q 1278 2797 1122 2612 
Q 966 2428 966 2047 
Q 966 1553 1178 1281 
Q 1341 1075 1591 1075 
Q 1828 1075 1981 1253 
Q 2134 1431 2134 1813 
Q 2134 2309 1919 2591 
Q 1759 2797 1509 2797 
z
M 934 0 
Q 788 -159 713 -296 
Q 638 -434 638 -550 
Q 638 -700 819 -813 
Q 1131 -1006 1722 -1006 
Q 2284 -1006 2551 -807 
Q 2819 -609 2819 -384 
Q 2819 -222 2659 -153 
Q 2497 -84 2016 -72 
Q 1313 -53 934 0 
z
" transform="scale(0.015625)"/>
      </defs>
      <use xlink:href="#TimesNewRomanPSMT-54"/>
      <use xlink:href="#TimesNewRomanPSMT-72" transform="translate(57.583984 0)"/>
      <use xlink:href="#TimesNewRomanPSMT-61" transform="translate(90.884766 0)"/>
      <use xlink:href="#TimesNewRomanPSMT-69" transform="translate(135.269531 0)"/>
      <use xlink:href="#TimesNewRomanPSMT-6e" transform="translate(163.052734 0)"/>
      <use xlink:href="#TimesNewRomanPSMT-69" transform="translate(213.052734 0)"/>
      <use xlink:href="#TimesNewRomanPSMT-6e" transform="translate(240.835938 0)"/>
      <use xlink:href="#TimesNewRomanPSMT-67" transform="translate(290.835938 0)"/>
      <use xlink:href="#TimesNewRomanPSMT-20" transform="translate(340.835938 0)"/>
      <use xlink:href="#TimesNewRomanPSMT-6c" transform="translate(365.835938 0)"/>
      <use xlink:href="#TimesNewRomanPSMT-6f" transform="translate(393.619141 0)"/>
      <use xlink:href="#TimesNewRomanPSMT-73" transform="translate(443.619141 0)"/>
      <use xlink:href="#TimesNewRomanPSMT-73" transform="translate(482.535156 0)"/>
     </g>
    </g>
    <g id="line2d_26">
     <path d="M 329.021063 279.437562 
L 351.021063 279.437562 
L 373.021063 279.437562 
" style="fill: none; stroke: #008000; stroke-width: 1.5; stroke-linecap: square"/>
    </g>
    <g id="text_16">
     <!-- Validation loss -->
     <g transform="translate(390.621063 287.137562) scale(0.22 -0.22)">
      <defs>
       <path id="TimesNewRomanPSMT-56" d="M 4544 4238 
L 4544 4122 
Q 4319 4081 4203 3978 
Q 4038 3825 3909 3509 
L 2431 -97 
L 2316 -97 
L 728 3556 
Q 606 3838 556 3900 
Q 478 3997 364 4051 
Q 250 4106 56 4122 
L 56 4238 
L 1788 4238 
L 1788 4122 
Q 1494 4094 1406 4022 
Q 1319 3950 1319 3838 
Q 1319 3681 1463 3350 
L 2541 866 
L 3541 3319 
Q 3688 3681 3688 3822 
Q 3688 3913 3597 3995 
Q 3506 4078 3291 4113 
Q 3275 4116 3238 4122 
L 3238 4238 
L 4544 4238 
z
" transform="scale(0.015625)"/>
      </defs>
      <use xlink:href="#TimesNewRomanPSMT-56"/>
      <use xlink:href="#TimesNewRomanPSMT-61" transform="translate(61.091797 0)"/>
      <use xlink:href="#TimesNewRomanPSMT-6c" transform="translate(105.476562 0)"/>
      <use xlink:href="#TimesNewRomanPSMT-69" transform="translate(133.259766 0)"/>
      <use xlink:href="#TimesNewRomanPSMT-64" transform="translate(161.042969 0)"/>
      <use xlink:href="#TimesNewRomanPSMT-61" transform="translate(211.042969 0)"/>
      <use xlink:href="#TimesNewRomanPSMT-74" transform="translate(255.427734 0)"/>
      <use xlink:href="#TimesNewRomanPSMT-69" transform="translate(283.210938 0)"/>
      <use xlink:href="#TimesNewRomanPSMT-6f" transform="translate(310.994141 0)"/>
      <use xlink:href="#TimesNewRomanPSMT-6e" transform="translate(360.994141 0)"/>
      <use xlink:href="#TimesNewRomanPSMT-20" transform="translate(410.994141 0)"/>
      <use xlink:href="#TimesNewRomanPSMT-6c" transform="translate(435.994141 0)"/>
      <use xlink:href="#TimesNewRomanPSMT-6f" transform="translate(463.777344 0)"/>
      <use xlink:href="#TimesNewRomanPSMT-73" transform="translate(513.777344 0)"/>
      <use xlink:href="#TimesNewRomanPSMT-73" transform="translate(552.693359 0)"/>
     </g>
    </g>
   </g>
  </g>
 </g>
 <defs>
  <clipPath id="p1803961ef7">
   <rect x="309.221063" y="45.5315" width="357.12" height="266.112"/>
  </clipPath>
 </defs>
</svg>
