<?xml version="1.0" encoding="utf-8" standalone="no"?>
<!DOCTYPE svg PUBLIC "-//W3C//DTD SVG 1.1//EN"
  "http://www.w3.org/Graphics/SVG/1.1/DTD/svg11.dtd">
<svg xmlns:xlink="http://www.w3.org/1999/xlink" width="1013.16975pt" height="383.265687pt" viewBox="0 0 1013.16975 383.265687" xmlns="http://www.w3.org/2000/svg" version="1.1">
 <metadata>
  <rdf:RDF xmlns:dc="http://purl.org/dc/elements/1.1/" xmlns:cc="http://creativecommons.org/ns#" xmlns:rdf="http://www.w3.org/1999/02/22-rdf-syntax-ns#">
   <cc:Work>
    <dc:type rdf:resource="http://purl.org/dc/dcmitype/StillImage"/>
    <dc:date>2025-05-15T11:01:10.545936</dc:date>
    <dc:format>image/svg+xml</dc:format>
    <dc:creator>
     <cc:Agent>
      <dc:title>Matplotlib v3.10.1, https://matplotlib.org/</dc:title>
     </cc:Agent>
    </dc:creator>
   </cc:Work>
  </rdf:RDF>
 </metadata>
 <defs>
  <style type="text/css">*{stroke-linejoin: round; stroke-linecap: butt}</style>
 </defs>
 <g id="figure_1">
  <g id="patch_1">
   <path d="M 0 383.265687 
L 1013.16975 383.265687 
L 1013.16975 0 
L 0 0 
z
" style="fill: #ffffff"/>
  </g>
  <g id="axes_1">
   <g id="patch_2">
    <path d="M 328.024875 311.6435 
L 685.144875 311.6435 
L 685.144875 45.5315 
L 328.024875 45.5315 
z
" style="fill: #ffffff"/>
   </g>
   <g id="matplotlib.axis_1">
    <g id="xtick_1">
     <g id="line2d_1">
      <path d="M 328.024875 311.6435 
L 328.024875 45.5315 
" clip-path="url(#pae454d795b)" style="fill: none; stroke: #b0b0b0; stroke-opacity: 0.3; stroke-width: 0.8; stroke-linecap: square"/>
     </g>
     <g id="line2d_2">
      <defs>
       <path id="md738e43820" d="M 0 0 
L 0 3.5 
" style="stroke: #000000; stroke-width: 0.8"/>
      </defs>
      <g>
       <use xlink:href="#md738e43820" x="328.024875" y="311.6435" style="stroke: #000000; stroke-width: 0.8"/>
      </g>
     </g>
     <g id="text_1">
      <!-- 0.0 -->
      <g transform="translate(314.274875 333.91975) scale(0.22 -0.22)">
       <defs>
        <path id="TimesNewRomanPSMT-30" d="M 231 2094 
Q 231 2819 450 3342 
Q 669 3866 1031 4122 
Q 1313 4325 1613 4325 
Q 2100 4325 2488 3828 
Q 2972 3213 2972 2159 
Q 2972 1422 2759 906 
Q 2547 391 2217 158 
Q 1888 -75 1581 -75 
Q 975 -75 572 641 
Q 231 1244 231 2094 
z
M 844 2016 
Q 844 1141 1059 588 
Q 1238 122 1591 122 
Q 1759 122 1940 273 
Q 2122 425 2216 781 
Q 2359 1319 2359 2297 
Q 2359 3022 2209 3506 
Q 2097 3866 1919 4016 
Q 1791 4119 1609 4119 
Q 1397 4119 1231 3928 
Q 1006 3669 925 3112 
Q 844 2556 844 2016 
z
" transform="scale(0.015625)"/>
        <path id="TimesNewRomanPSMT-2e" d="M 800 606 
Q 947 606 1047 504 
Q 1147 403 1147 259 
Q 1147 116 1045 14 
Q 944 -88 800 -88 
Q 656 -88 554 14 
Q 453 116 453 259 
Q 453 406 554 506 
Q 656 606 800 606 
z
" transform="scale(0.015625)"/>
       </defs>
       <use xlink:href="#TimesNewRomanPSMT-30"/>
       <use xlink:href="#TimesNewRomanPSMT-2e" transform="translate(50 0)"/>
       <use xlink:href="#TimesNewRomanPSMT-30" transform="translate(75 0)"/>
      </g>
     </g>
    </g>
    <g id="xtick_2">
     <g id="line2d_3">
      <path d="M 460.211582 311.6435 
L 460.211582 45.5315 
" clip-path="url(#pae454d795b)" style="fill: none; stroke: #b0b0b0; stroke-opacity: 0.3; stroke-width: 0.8; stroke-linecap: square"/>
     </g>
     <g id="line2d_4">
      <g>
       <use xlink:href="#md738e43820" x="460.211582" y="311.6435" style="stroke: #000000; stroke-width: 0.8"/>
      </g>
     </g>
     <g id="text_2">
      <!-- 0.5 -->
      <g transform="translate(446.461582 333.91975) scale(0.22 -0.22)">
       <defs>
        <path id="TimesNewRomanPSMT-35" d="M 2778 4238 
L 2534 3706 
L 1259 3706 
L 981 3138 
Q 1809 3016 2294 2522 
Q 2709 2097 2709 1522 
Q 2709 1188 2573 903 
Q 2438 619 2231 419 
Q 2025 219 1772 97 
Q 1413 -75 1034 -75 
Q 653 -75 479 54 
Q 306 184 306 341 
Q 306 428 378 495 
Q 450 563 559 563 
Q 641 563 702 538 
Q 763 513 909 409 
Q 1144 247 1384 247 
Q 1750 247 2026 523 
Q 2303 800 2303 1197 
Q 2303 1581 2056 1914 
Q 1809 2247 1375 2428 
Q 1034 2569 447 2591 
L 1259 4238 
L 2778 4238 
z
" transform="scale(0.015625)"/>
       </defs>
       <use xlink:href="#TimesNewRomanPSMT-30"/>
       <use xlink:href="#TimesNewRomanPSMT-2e" transform="translate(50 0)"/>
       <use xlink:href="#TimesNewRomanPSMT-35" transform="translate(75 0)"/>
      </g>
     </g>
    </g>
    <g id="xtick_3">
     <g id="line2d_5">
      <path d="M 592.398289 311.6435 
L 592.398289 45.5315 
" clip-path="url(#pae454d795b)" style="fill: none; stroke: #b0b0b0; stroke-opacity: 0.3; stroke-width: 0.8; stroke-linecap: square"/>
     </g>
     <g id="line2d_6">
      <g>
       <use xlink:href="#md738e43820" x="592.398289" y="311.6435" style="stroke: #000000; stroke-width: 0.8"/>
      </g>
     </g>
     <g id="text_3">
      <!-- 1.0 -->
      <g transform="translate(578.648289 333.91975) scale(0.22 -0.22)">
       <defs>
        <path id="TimesNewRomanPSMT-31" d="M 750 3822 
L 1781 4325 
L 1884 4325 
L 1884 747 
Q 1884 391 1914 303 
Q 1944 216 2037 169 
Q 2131 122 2419 116 
L 2419 0 
L 825 0 
L 825 116 
Q 1125 122 1212 167 
Q 1300 213 1334 289 
Q 1369 366 1369 747 
L 1369 3034 
Q 1369 3497 1338 3628 
Q 1316 3728 1258 3775 
Q 1200 3822 1119 3822 
Q 1003 3822 797 3725 
L 750 3822 
z
" transform="scale(0.015625)"/>
       </defs>
       <use xlink:href="#TimesNewRomanPSMT-31"/>
       <use xlink:href="#TimesNewRomanPSMT-2e" transform="translate(50 0)"/>
       <use xlink:href="#TimesNewRomanPSMT-30" transform="translate(75 0)"/>
      </g>
     </g>
    </g>
    <g id="text_4">
     <!-- $\kappa  = \frac{ln(n)}{ln(d)}$ -->
     <g transform="translate(474.574875 364.185687) scale(0.22 -0.22)">
      <defs>
       <path id="STIXGeneral-Italic-3ba" d="M 979 1440 
L 998 1446 
Q 1850 2541 2464 2790 
Q 2547 2822 2630 2822 
Q 2797 2822 2886 2736 
Q 2976 2650 2976 2522 
Q 2976 2387 2893 2307 
Q 2810 2227 2682 2227 
Q 2605 2227 2502 2288 
Q 2400 2349 2336 2349 
Q 2170 2349 1990 2205 
Q 1811 2061 1414 1645 
L 2042 544 
Q 2202 262 2310 182 
Q 2419 102 2624 102 
L 2624 0 
Q 2374 -83 2182 -83 
Q 1786 -83 1555 326 
L 960 1350 
L 576 0 
L 90 0 
L 640 1978 
Q 730 2317 730 2406 
Q 730 2560 518 2560 
L 339 2560 
L 339 2650 
Q 678 2694 1306 2822 
L 1325 2803 
L 979 1440 
z
" transform="scale(0.015625)"/>
       <path id="STIXGeneral-Regular-3d" d="M 4077 2048 
L 307 2048 
L 307 2470 
L 4077 2470 
L 4077 2048 
z
M 4077 768 
L 307 768 
L 307 1190 
L 4077 1190 
L 4077 768 
z
" transform="scale(0.015625)"/>
       <path id="STIXGeneral-Italic-6c" d="M 1786 4339 
L 806 595 
Q 755 410 755 320 
Q 755 205 864 205 
Q 1037 205 1293 570 
L 1453 794 
L 1542 730 
Q 1254 275 1046 102 
Q 838 -70 576 -70 
Q 262 -70 262 288 
Q 262 397 288 480 
L 1165 3834 
Q 1184 3898 1184 3955 
Q 1184 4096 870 4096 
L 755 4096 
L 755 4198 
Q 1203 4250 1747 4371 
L 1786 4339 
z
" transform="scale(0.015625)"/>
       <path id="STIXGeneral-Italic-6e" d="M 2944 749 
L 3034 666 
Q 2707 218 2534 80 
Q 2362 -58 2138 -58 
Q 2010 -58 1923 28 
Q 1837 115 1837 288 
Q 1837 390 1939 768 
L 2221 1805 
Q 2310 2150 2310 2310 
Q 2310 2496 2157 2496 
Q 1971 2496 1750 2275 
Q 1530 2054 1210 1587 
Q 998 1274 899 1024 
Q 800 774 570 0 
L 90 0 
L 704 2240 
Q 717 2304 717 2349 
Q 717 2445 630 2480 
Q 544 2515 301 2522 
L 301 2624 
Q 550 2675 857 2729 
Q 1165 2784 1338 2822 
L 1363 2810 
L 934 1414 
Q 1408 2170 1753 2496 
Q 2099 2822 2413 2822 
Q 2611 2822 2720 2716 
Q 2829 2611 2829 2432 
Q 2829 2272 2765 2048 
L 2406 749 
Q 2317 429 2317 358 
Q 2317 243 2419 243 
Q 2541 243 2810 582 
Q 2854 634 2944 749 
z
" transform="scale(0.015625)"/>
       <path id="STIXGeneral-Regular-28" d="M 1946 -1030 
L 1869 -1133 
Q 1126 -710 716 32 
Q 307 774 307 1613 
Q 307 3386 1888 4326 
L 1946 4224 
Q 1293 3667 1075 3126 
Q 858 2586 858 1632 
Q 858 685 1082 96 
Q 1306 -493 1946 -1030 
z
" transform="scale(0.015625)"/>
       <path id="STIXGeneral-Regular-29" d="M 186 4224 
L 262 4326 
Q 992 3891 1408 3148 
Q 1824 2406 1824 1581 
Q 1824 -166 243 -1133 
L 186 -1030 
Q 845 -486 1059 54 
Q 1274 595 1274 1562 
Q 1274 2534 1059 3120 
Q 845 3706 186 4224 
z
" transform="scale(0.015625)"/>
       <path id="STIXGeneral-Italic-64" d="M 3334 4371 
L 3373 4333 
L 3123 3360 
L 2739 1958 
Q 2323 429 2323 384 
Q 2323 256 2438 256 
Q 2522 256 2614 336 
Q 2707 416 2963 710 
L 3040 646 
Q 2547 -83 2099 -83 
Q 1978 -83 1907 -6 
Q 1837 70 1837 205 
Q 1837 397 1920 774 
Q 1645 307 1379 118 
Q 1114 -70 781 -70 
Q 461 -70 278 125 
Q 96 320 96 678 
Q 96 1440 713 2131 
Q 1331 2822 1965 2822 
Q 2163 2822 2256 2732 
Q 2349 2643 2381 2451 
L 2387 2451 
L 2675 3494 
Q 2765 3808 2765 3949 
Q 2765 4051 2694 4076 
Q 2624 4102 2355 4115 
L 2355 4224 
Q 2848 4269 3334 4371 
z
M 2278 2310 
Q 2278 2477 2185 2576 
Q 2093 2675 1978 2675 
Q 1677 2675 1395 2381 
Q 1075 2042 864 1571 
Q 653 1101 653 704 
Q 653 486 752 361 
Q 851 237 1024 237 
Q 1312 237 1606 550 
Q 1901 864 2089 1350 
Q 2278 1837 2278 2310 
z
" transform="scale(0.015625)"/>
      </defs>
      <use xlink:href="#STIXGeneral-Italic-3ba" transform="translate(0 0.003125)"/>
      <use xlink:href="#STIXGeneral-Regular-3d" transform="translate(58.83999 0.003125)"/>
      <use xlink:href="#STIXGeneral-Italic-6c" transform="translate(141.779971 50.192188) scale(0.7)"/>
      <use xlink:href="#STIXGeneral-Italic-6e" transform="translate(161.239963 50.192188) scale(0.7)"/>
      <use xlink:href="#STIXGeneral-Regular-28" transform="translate(196.239952 50.192188) scale(0.7)"/>
      <use xlink:href="#STIXGeneral-Italic-6e" transform="translate(219.549944 50.192188) scale(0.7)"/>
      <use xlink:href="#STIXGeneral-Regular-29" transform="translate(254.549933 50.192188) scale(0.7)"/>
      <use xlink:href="#STIXGeneral-Italic-6c" transform="translate(141.779971 -41.257812) scale(0.7)"/>
      <use xlink:href="#STIXGeneral-Italic-6e" transform="translate(161.239963 -41.257812) scale(0.7)"/>
      <use xlink:href="#STIXGeneral-Regular-28" transform="translate(196.239952 -41.257812) scale(0.7)"/>
      <use xlink:href="#STIXGeneral-Italic-64" transform="translate(219.549944 -41.257812) scale(0.7)"/>
      <use xlink:href="#STIXGeneral-Regular-29" transform="translate(254.549933 -41.257812) scale(0.7)"/>
      <path d="M 141.779971 12.8 
L 141.779971 19.05 
L 277.859924 19.05 
L 277.859924 12.8 
L 141.779971 12.8 
z
"/>
     </g>
    </g>
   </g>
   <g id="matplotlib.axis_2">
    <g id="ytick_1">
     <g id="line2d_7">
      <path d="M 328.024875 311.6435 
L 685.144875 311.6435 
" clip-path="url(#pae454d795b)" style="fill: none; stroke: #b0b0b0; stroke-opacity: 0.3; stroke-width: 0.8; stroke-linecap: square"/>
     </g>
     <g id="line2d_8">
      <defs>
       <path id="m3e91310837" d="M 0 0 
L -3.5 0 
" style="stroke: #000000; stroke-width: 0.8"/>
      </defs>
      <g>
       <use xlink:href="#m3e91310837" x="328.024875" y="311.6435" style="stroke: #000000; stroke-width: 0.8"/>
      </g>
     </g>
     <g id="text_5">
      <!-- 0.0 -->
      <g transform="translate(293.524875 319.281625) scale(0.22 -0.22)">
       <use xlink:href="#TimesNewRomanPSMT-30"/>
       <use xlink:href="#TimesNewRomanPSMT-2e" transform="translate(50 0)"/>
       <use xlink:href="#TimesNewRomanPSMT-30" transform="translate(75 0)"/>
      </g>
     </g>
    </g>
    <g id="ytick_2">
     <g id="line2d_9">
      <path d="M 328.024875 285.0323 
L 685.144875 285.0323 
" clip-path="url(#pae454d795b)" style="fill: none; stroke: #b0b0b0; stroke-opacity: 0.3; stroke-width: 0.8; stroke-linecap: square"/>
     </g>
     <g id="line2d_10">
      <g>
       <use xlink:href="#m3e91310837" x="328.024875" y="285.0323" style="stroke: #000000; stroke-width: 0.8"/>
      </g>
     </g>
     <g id="text_6">
      <!-- 0.1 -->
      <g transform="translate(293.524875 292.670425) scale(0.22 -0.22)">
       <use xlink:href="#TimesNewRomanPSMT-30"/>
       <use xlink:href="#TimesNewRomanPSMT-2e" transform="translate(50 0)"/>
       <use xlink:href="#TimesNewRomanPSMT-31" transform="translate(75 0)"/>
      </g>
     </g>
    </g>
    <g id="ytick_3">
     <g id="line2d_11">
      <path d="M 328.024875 258.4211 
L 685.144875 258.4211 
" clip-path="url(#pae454d795b)" style="fill: none; stroke: #b0b0b0; stroke-opacity: 0.3; stroke-width: 0.8; stroke-linecap: square"/>
     </g>
     <g id="line2d_12">
      <g>
       <use xlink:href="#m3e91310837" x="328.024875" y="258.4211" style="stroke: #000000; stroke-width: 0.8"/>
      </g>
     </g>
     <g id="text_7">
      <!-- 0.2 -->
      <g transform="translate(293.524875 266.059225) scale(0.22 -0.22)">
       <defs>
        <path id="TimesNewRomanPSMT-32" d="M 2934 816 
L 2638 0 
L 138 0 
L 138 116 
Q 1241 1122 1691 1759 
Q 2141 2397 2141 2925 
Q 2141 3328 1894 3587 
Q 1647 3847 1303 3847 
Q 991 3847 742 3664 
Q 494 3481 375 3128 
L 259 3128 
Q 338 3706 661 4015 
Q 984 4325 1469 4325 
Q 1984 4325 2329 3994 
Q 2675 3663 2675 3213 
Q 2675 2891 2525 2569 
Q 2294 2063 1775 1497 
Q 997 647 803 472 
L 1909 472 
Q 2247 472 2383 497 
Q 2519 522 2628 598 
Q 2738 675 2819 816 
L 2934 816 
z
" transform="scale(0.015625)"/>
       </defs>
       <use xlink:href="#TimesNewRomanPSMT-30"/>
       <use xlink:href="#TimesNewRomanPSMT-2e" transform="translate(50 0)"/>
       <use xlink:href="#TimesNewRomanPSMT-32" transform="translate(75 0)"/>
      </g>
     </g>
    </g>
    <g id="ytick_4">
     <g id="line2d_13">
      <path d="M 328.024875 231.8099 
L 685.144875 231.8099 
" clip-path="url(#pae454d795b)" style="fill: none; stroke: #b0b0b0; stroke-opacity: 0.3; stroke-width: 0.8; stroke-linecap: square"/>
     </g>
     <g id="line2d_14">
      <g>
       <use xlink:href="#m3e91310837" x="328.024875" y="231.8099" style="stroke: #000000; stroke-width: 0.8"/>
      </g>
     </g>
     <g id="text_8">
      <!-- 0.3 -->
      <g transform="translate(293.524875 239.448025) scale(0.22 -0.22)">
       <defs>
        <path id="TimesNewRomanPSMT-33" d="M 325 3431 
Q 506 3859 782 4092 
Q 1059 4325 1472 4325 
Q 1981 4325 2253 3994 
Q 2459 3747 2459 3466 
Q 2459 3003 1878 2509 
Q 2269 2356 2469 2072 
Q 2669 1788 2669 1403 
Q 2669 853 2319 450 
Q 1863 -75 997 -75 
Q 569 -75 414 31 
Q 259 138 259 259 
Q 259 350 332 419 
Q 406 488 509 488 
Q 588 488 669 463 
Q 722 447 909 348 
Q 1097 250 1169 231 
Q 1284 197 1416 197 
Q 1734 197 1970 444 
Q 2206 691 2206 1028 
Q 2206 1275 2097 1509 
Q 2016 1684 1919 1775 
Q 1784 1900 1550 2001 
Q 1316 2103 1072 2103 
L 972 2103 
L 972 2197 
Q 1219 2228 1467 2375 
Q 1716 2522 1828 2728 
Q 1941 2934 1941 3181 
Q 1941 3503 1739 3701 
Q 1538 3900 1238 3900 
Q 753 3900 428 3381 
L 325 3431 
z
" transform="scale(0.015625)"/>
       </defs>
       <use xlink:href="#TimesNewRomanPSMT-30"/>
       <use xlink:href="#TimesNewRomanPSMT-2e" transform="translate(50 0)"/>
       <use xlink:href="#TimesNewRomanPSMT-33" transform="translate(75 0)"/>
      </g>
     </g>
    </g>
    <g id="ytick_5">
     <g id="line2d_15">
      <path d="M 328.024875 205.1987 
L 685.144875 205.1987 
" clip-path="url(#pae454d795b)" style="fill: none; stroke: #b0b0b0; stroke-opacity: 0.3; stroke-width: 0.8; stroke-linecap: square"/>
     </g>
     <g id="line2d_16">
      <g>
       <use xlink:href="#m3e91310837" x="328.024875" y="205.1987" style="stroke: #000000; stroke-width: 0.8"/>
      </g>
     </g>
     <g id="text_9">
      <!-- 0.4 -->
      <g transform="translate(293.524875 212.836825) scale(0.22 -0.22)">
       <defs>
        <path id="TimesNewRomanPSMT-34" d="M 2978 1563 
L 2978 1119 
L 2409 1119 
L 2409 0 
L 1894 0 
L 1894 1119 
L 100 1119 
L 100 1519 
L 2066 4325 
L 2409 4325 
L 2409 1563 
L 2978 1563 
z
M 1894 1563 
L 1894 3666 
L 406 1563 
L 1894 1563 
z
" transform="scale(0.015625)"/>
       </defs>
       <use xlink:href="#TimesNewRomanPSMT-30"/>
       <use xlink:href="#TimesNewRomanPSMT-2e" transform="translate(50 0)"/>
       <use xlink:href="#TimesNewRomanPSMT-34" transform="translate(75 0)"/>
      </g>
     </g>
    </g>
    <g id="ytick_6">
     <g id="line2d_17">
      <path d="M 328.024875 178.5875 
L 685.144875 178.5875 
" clip-path="url(#pae454d795b)" style="fill: none; stroke: #b0b0b0; stroke-opacity: 0.3; stroke-width: 0.8; stroke-linecap: square"/>
     </g>
     <g id="line2d_18">
      <g>
       <use xlink:href="#m3e91310837" x="328.024875" y="178.5875" style="stroke: #000000; stroke-width: 0.8"/>
      </g>
     </g>
     <g id="text_10">
      <!-- 0.5 -->
      <g transform="translate(293.524875 186.225625) scale(0.22 -0.22)">
       <use xlink:href="#TimesNewRomanPSMT-30"/>
       <use xlink:href="#TimesNewRomanPSMT-2e" transform="translate(50 0)"/>
       <use xlink:href="#TimesNewRomanPSMT-35" transform="translate(75 0)"/>
      </g>
     </g>
    </g>
    <g id="ytick_7">
     <g id="line2d_19">
      <path d="M 328.024875 151.9763 
L 685.144875 151.9763 
" clip-path="url(#pae454d795b)" style="fill: none; stroke: #b0b0b0; stroke-opacity: 0.3; stroke-width: 0.8; stroke-linecap: square"/>
     </g>
     <g id="line2d_20">
      <g>
       <use xlink:href="#m3e91310837" x="328.024875" y="151.9763" style="stroke: #000000; stroke-width: 0.8"/>
      </g>
     </g>
     <g id="text_11">
      <!-- 0.6 -->
      <g transform="translate(293.524875 159.614425) scale(0.22 -0.22)">
       <defs>
        <path id="TimesNewRomanPSMT-36" d="M 2869 4325 
L 2869 4209 
Q 2456 4169 2195 4045 
Q 1934 3922 1679 3669 
Q 1425 3416 1258 3105 
Q 1091 2794 978 2366 
Q 1428 2675 1881 2675 
Q 2316 2675 2634 2325 
Q 2953 1975 2953 1425 
Q 2953 894 2631 456 
Q 2244 -75 1606 -75 
Q 1172 -75 869 213 
Q 275 772 275 1663 
Q 275 2231 503 2743 
Q 731 3256 1154 3653 
Q 1578 4050 1965 4187 
Q 2353 4325 2688 4325 
L 2869 4325 
z
M 925 2138 
Q 869 1716 869 1456 
Q 869 1156 980 804 
Q 1091 453 1309 247 
Q 1469 100 1697 100 
Q 1969 100 2183 356 
Q 2397 613 2397 1088 
Q 2397 1622 2184 2012 
Q 1972 2403 1581 2403 
Q 1463 2403 1327 2353 
Q 1191 2303 925 2138 
z
" transform="scale(0.015625)"/>
       </defs>
       <use xlink:href="#TimesNewRomanPSMT-30"/>
       <use xlink:href="#TimesNewRomanPSMT-2e" transform="translate(50 0)"/>
       <use xlink:href="#TimesNewRomanPSMT-36" transform="translate(75 0)"/>
      </g>
     </g>
    </g>
    <g id="ytick_8">
     <g id="line2d_21">
      <path d="M 328.024875 125.3651 
L 685.144875 125.3651 
" clip-path="url(#pae454d795b)" style="fill: none; stroke: #b0b0b0; stroke-opacity: 0.3; stroke-width: 0.8; stroke-linecap: square"/>
     </g>
     <g id="line2d_22">
      <g>
       <use xlink:href="#m3e91310837" x="328.024875" y="125.3651" style="stroke: #000000; stroke-width: 0.8"/>
      </g>
     </g>
     <g id="text_12">
      <!-- 0.7 -->
      <g transform="translate(293.524875 133.003225) scale(0.22 -0.22)">
       <defs>
        <path id="TimesNewRomanPSMT-37" d="M 644 4238 
L 2916 4238 
L 2916 4119 
L 1503 -88 
L 1153 -88 
L 2419 3728 
L 1253 3728 
Q 900 3728 750 3644 
Q 488 3500 328 3200 
L 238 3234 
L 644 4238 
z
" transform="scale(0.015625)"/>
       </defs>
       <use xlink:href="#TimesNewRomanPSMT-30"/>
       <use xlink:href="#TimesNewRomanPSMT-2e" transform="translate(50 0)"/>
       <use xlink:href="#TimesNewRomanPSMT-37" transform="translate(75 0)"/>
      </g>
     </g>
    </g>
    <g id="ytick_9">
     <g id="line2d_23">
      <path d="M 328.024875 98.7539 
L 685.144875 98.7539 
" clip-path="url(#pae454d795b)" style="fill: none; stroke: #b0b0b0; stroke-opacity: 0.3; stroke-width: 0.8; stroke-linecap: square"/>
     </g>
     <g id="line2d_24">
      <g>
       <use xlink:href="#m3e91310837" x="328.024875" y="98.7539" style="stroke: #000000; stroke-width: 0.8"/>
      </g>
     </g>
     <g id="text_13">
      <!-- 0.8 -->
      <g transform="translate(293.524875 106.392025) scale(0.22 -0.22)">
       <defs>
        <path id="TimesNewRomanPSMT-38" d="M 1228 2134 
Q 725 2547 579 2797 
Q 434 3047 434 3316 
Q 434 3728 753 4026 
Q 1072 4325 1600 4325 
Q 2113 4325 2425 4047 
Q 2738 3769 2738 3413 
Q 2738 3175 2569 2928 
Q 2400 2681 1866 2347 
Q 2416 1922 2594 1678 
Q 2831 1359 2831 1006 
Q 2831 559 2490 242 
Q 2150 -75 1597 -75 
Q 994 -75 656 303 
Q 388 606 388 966 
Q 388 1247 577 1523 
Q 766 1800 1228 2134 
z
M 1719 2469 
Q 2094 2806 2194 3001 
Q 2294 3197 2294 3444 
Q 2294 3772 2109 3958 
Q 1925 4144 1606 4144 
Q 1288 4144 1088 3959 
Q 888 3775 888 3528 
Q 888 3366 970 3203 
Q 1053 3041 1206 2894 
L 1719 2469 
z
M 1375 2016 
Q 1116 1797 991 1539 
Q 866 1281 866 981 
Q 866 578 1086 336 
Q 1306 94 1647 94 
Q 1984 94 2187 284 
Q 2391 475 2391 747 
Q 2391 972 2272 1150 
Q 2050 1481 1375 2016 
z
" transform="scale(0.015625)"/>
       </defs>
       <use xlink:href="#TimesNewRomanPSMT-30"/>
       <use xlink:href="#TimesNewRomanPSMT-2e" transform="translate(50 0)"/>
       <use xlink:href="#TimesNewRomanPSMT-38" transform="translate(75 0)"/>
      </g>
     </g>
    </g>
    <g id="ytick_10">
     <g id="line2d_25">
      <path d="M 328.024875 72.1427 
L 685.144875 72.1427 
" clip-path="url(#pae454d795b)" style="fill: none; stroke: #b0b0b0; stroke-opacity: 0.3; stroke-width: 0.8; stroke-linecap: square"/>
     </g>
     <g id="line2d_26">
      <g>
       <use xlink:href="#m3e91310837" x="328.024875" y="72.1427" style="stroke: #000000; stroke-width: 0.8"/>
      </g>
     </g>
     <g id="text_14">
      <!-- 0.9 -->
      <g transform="translate(293.524875 79.780825) scale(0.22 -0.22)">
       <defs>
        <path id="TimesNewRomanPSMT-39" d="M 338 -88 
L 338 28 
Q 744 34 1094 217 
Q 1444 400 1770 856 
Q 2097 1313 2225 1859 
Q 1734 1544 1338 1544 
Q 891 1544 572 1889 
Q 253 2234 253 2806 
Q 253 3363 572 3797 
Q 956 4325 1575 4325 
Q 2097 4325 2469 3894 
Q 2925 3359 2925 2575 
Q 2925 1869 2578 1258 
Q 2231 647 1613 244 
Q 1109 -88 516 -88 
L 338 -88 
z
M 2275 2091 
Q 2331 2497 2331 2741 
Q 2331 3044 2228 3395 
Q 2125 3747 1936 3934 
Q 1747 4122 1506 4122 
Q 1228 4122 1018 3872 
Q 809 3622 809 3128 
Q 809 2469 1088 2097 
Q 1291 1828 1588 1828 
Q 1731 1828 1928 1897 
Q 2125 1966 2275 2091 
z
" transform="scale(0.015625)"/>
       </defs>
       <use xlink:href="#TimesNewRomanPSMT-30"/>
       <use xlink:href="#TimesNewRomanPSMT-2e" transform="translate(50 0)"/>
       <use xlink:href="#TimesNewRomanPSMT-39" transform="translate(75 0)"/>
      </g>
     </g>
    </g>
    <g id="ytick_11">
     <g id="line2d_27">
      <path d="M 328.024875 45.5315 
L 685.144875 45.5315 
" clip-path="url(#pae454d795b)" style="fill: none; stroke: #b0b0b0; stroke-opacity: 0.3; stroke-width: 0.8; stroke-linecap: square"/>
     </g>
     <g id="line2d_28">
      <g>
       <use xlink:href="#m3e91310837" x="328.024875" y="45.5315" style="stroke: #000000; stroke-width: 0.8"/>
      </g>
     </g>
     <g id="text_15">
      <!-- 1.0 -->
      <g transform="translate(293.524875 53.169625) scale(0.22 -0.22)">
       <use xlink:href="#TimesNewRomanPSMT-31"/>
       <use xlink:href="#TimesNewRomanPSMT-2e" transform="translate(50 0)"/>
       <use xlink:href="#TimesNewRomanPSMT-30" transform="translate(75 0)"/>
      </g>
     </g>
    </g>
    <g id="text_16">
     <!-- Accuracy -->
     <g transform="translate(284.777688 220.726094) rotate(-90) scale(0.22 -0.22)">
      <defs>
       <path id="TimesNewRomanPSMT-41" d="M 2928 1419 
L 1288 1419 
L 1000 750 
Q 894 503 894 381 
Q 894 284 986 211 
Q 1078 138 1384 116 
L 1384 0 
L 50 0 
L 50 116 
Q 316 163 394 238 
Q 553 388 747 847 
L 2238 4334 
L 2347 4334 
L 3822 809 
Q 4000 384 4145 257 
Q 4291 131 4550 116 
L 4550 0 
L 2878 0 
L 2878 116 
Q 3131 128 3220 200 
Q 3309 272 3309 375 
Q 3309 513 3184 809 
L 2928 1419 
z
M 2841 1650 
L 2122 3363 
L 1384 1650 
L 2841 1650 
z
" transform="scale(0.015625)"/>
       <path id="TimesNewRomanPSMT-63" d="M 2631 1088 
Q 2516 522 2178 217 
Q 1841 -88 1431 -88 
Q 944 -88 581 321 
Q 219 731 219 1428 
Q 219 2103 620 2525 
Q 1022 2947 1584 2947 
Q 2006 2947 2278 2723 
Q 2550 2500 2550 2259 
Q 2550 2141 2473 2067 
Q 2397 1994 2259 1994 
Q 2075 1994 1981 2113 
Q 1928 2178 1911 2362 
Q 1894 2547 1784 2644 
Q 1675 2738 1481 2738 
Q 1169 2738 978 2506 
Q 725 2200 725 1697 
Q 725 1184 976 792 
Q 1228 400 1656 400 
Q 1963 400 2206 609 
Q 2378 753 2541 1131 
L 2631 1088 
z
" transform="scale(0.015625)"/>
       <path id="TimesNewRomanPSMT-75" d="M 2709 2863 
L 2709 1128 
Q 2709 631 2732 520 
Q 2756 409 2807 365 
Q 2859 322 2928 322 
Q 3025 322 3147 375 
L 3191 266 
L 2334 -88 
L 2194 -88 
L 2194 519 
Q 1825 119 1631 15 
Q 1438 -88 1222 -88 
Q 981 -88 804 51 
Q 628 191 559 409 
Q 491 628 491 1028 
L 491 2306 
Q 491 2509 447 2587 
Q 403 2666 317 2708 
Q 231 2750 6 2747 
L 6 2863 
L 1009 2863 
L 1009 947 
Q 1009 547 1148 422 
Q 1288 297 1484 297 
Q 1619 297 1789 381 
Q 1959 466 2194 703 
L 2194 2325 
Q 2194 2569 2105 2655 
Q 2016 2741 1734 2747 
L 1734 2863 
L 2709 2863 
z
" transform="scale(0.015625)"/>
       <path id="TimesNewRomanPSMT-72" d="M 1038 2947 
L 1038 2303 
Q 1397 2947 1775 2947 
Q 1947 2947 2059 2842 
Q 2172 2738 2172 2600 
Q 2172 2478 2090 2393 
Q 2009 2309 1897 2309 
Q 1788 2309 1652 2417 
Q 1516 2525 1450 2525 
Q 1394 2525 1328 2463 
Q 1188 2334 1038 2041 
L 1038 669 
Q 1038 431 1097 309 
Q 1138 225 1241 169 
Q 1344 113 1538 113 
L 1538 0 
L 72 0 
L 72 113 
Q 291 113 397 181 
Q 475 231 506 341 
Q 522 394 522 644 
L 522 1753 
Q 522 2253 501 2348 
Q 481 2444 426 2487 
Q 372 2531 291 2531 
Q 194 2531 72 2484 
L 41 2597 
L 906 2947 
L 1038 2947 
z
" transform="scale(0.015625)"/>
       <path id="TimesNewRomanPSMT-61" d="M 1822 413 
Q 1381 72 1269 19 
Q 1100 -59 909 -59 
Q 613 -59 420 144 
Q 228 347 228 678 
Q 228 888 322 1041 
Q 450 1253 767 1440 
Q 1084 1628 1822 1897 
L 1822 2009 
Q 1822 2438 1686 2597 
Q 1550 2756 1291 2756 
Q 1094 2756 978 2650 
Q 859 2544 859 2406 
L 866 2225 
Q 866 2081 792 2003 
Q 719 1925 600 1925 
Q 484 1925 411 2006 
Q 338 2088 338 2228 
Q 338 2497 613 2722 
Q 888 2947 1384 2947 
Q 1766 2947 2009 2819 
Q 2194 2722 2281 2516 
Q 2338 2381 2338 1966 
L 2338 994 
Q 2338 584 2353 492 
Q 2369 400 2405 369 
Q 2441 338 2488 338 
Q 2538 338 2575 359 
Q 2641 400 2828 588 
L 2828 413 
Q 2478 -56 2159 -56 
Q 2006 -56 1915 50 
Q 1825 156 1822 413 
z
M 1822 616 
L 1822 1706 
Q 1350 1519 1213 1441 
Q 966 1303 859 1153 
Q 753 1003 753 825 
Q 753 600 887 451 
Q 1022 303 1197 303 
Q 1434 303 1822 616 
z
" transform="scale(0.015625)"/>
       <path id="TimesNewRomanPSMT-79" d="M 38 2863 
L 1372 2863 
L 1372 2747 
L 1306 2747 
Q 1166 2747 1095 2686 
Q 1025 2625 1025 2534 
Q 1025 2413 1128 2197 
L 1825 753 
L 2466 2334 
Q 2519 2463 2519 2588 
Q 2519 2644 2497 2672 
Q 2472 2706 2419 2726 
Q 2366 2747 2231 2747 
L 2231 2863 
L 3163 2863 
L 3163 2747 
Q 3047 2734 2984 2696 
Q 2922 2659 2847 2556 
Q 2819 2513 2741 2316 
L 1575 -541 
Q 1406 -956 1132 -1168 
Q 859 -1381 606 -1381 
Q 422 -1381 303 -1275 
Q 184 -1169 184 -1031 
Q 184 -900 270 -820 
Q 356 -741 506 -741 
Q 609 -741 788 -809 
Q 913 -856 944 -856 
Q 1038 -856 1148 -759 
Q 1259 -663 1372 -384 
L 1575 113 
L 547 2272 
Q 500 2369 397 2513 
Q 319 2622 269 2659 
Q 197 2709 38 2747 
L 38 2863 
z
" transform="scale(0.015625)"/>
      </defs>
      <use xlink:href="#TimesNewRomanPSMT-41"/>
      <use xlink:href="#TimesNewRomanPSMT-63" transform="translate(72.216797 0)"/>
      <use xlink:href="#TimesNewRomanPSMT-63" transform="translate(116.601562 0)"/>
      <use xlink:href="#TimesNewRomanPSMT-75" transform="translate(160.986328 0)"/>
      <use xlink:href="#TimesNewRomanPSMT-72" transform="translate(210.986328 0)"/>
      <use xlink:href="#TimesNewRomanPSMT-61" transform="translate(244.287109 0)"/>
      <use xlink:href="#TimesNewRomanPSMT-63" transform="translate(288.671875 0)"/>
      <use xlink:href="#TimesNewRomanPSMT-79" transform="translate(333.056641 0)"/>
     </g>
    </g>
   </g>
   <g id="line2d_29">
    <path d="M 328.024875 178.572717 
L 419.512826 178.5875 
L 444.177264 148.11768 
L 459.032351 150.335278 
L 469.696261 148.22116 
L 478.020831 147.082795 
L 484.850019 145.057391 
L 490.640131 144.466027 
L 495.666003 141.346607 
L 500.106057 140.991785 
L 504.082714 139.9569 
L 507.683625 142.736297 
L 510.973707 144.096422 
L 514.002383 143.061553 
L 516.808152 141.937971 
L 519.421588 137.532326 
L 521.867377 141.775343 
L 524.165736 140.385637 
L 526.333433 140.430002 
L 528.384529 145.574826 
L 530.330931 136.615721 
L 532.182808 148.265509 
L 533.948918 143.608553 
L 535.636856 141.834475 
L 537.253249 139.542963 
L 538.803916 142.765863 
L 540.293994 137.014891 
L 541.72804 138.286318 
L 543.110117 154.341737 
L 544.443859 142.514537 
L 545.732533 138.862884 
L 546.979086 141.538801 
L 548.186185 139.188141 
L 549.35625 139.823854 
L 550.491486 147.245423 
L 551.593907 138.759404 
L 552.665357 138.78897 
L 553.707529 138.271536 
L 554.72198 144.392112 
L 555.710146 142.277995 
L 556.673357 139.084644 
L 557.61284 143.505073 
L 559.42511 141.287475 
L 560.299944 141.98232 
L 561.155161 138.049776 
L 561.991622 139.838637 
L 562.810132 149.374324 
L 563.611445 139.735141 
L 564.396269 145.855717 
L 565.165268 145.057391 
L 565.919069 139.912552 
L 566.658261 141.98232 
L 567.383398 141.420521 
L 568.095006 141.568367 
L 568.79358 141.317041 
L 569.479589 141.716212 
L 570.153478 139.217706 
L 570.815666 138.049776 
L 571.466553 149.995238 
L 572.106519 142.085801 
L 572.735924 140.474351 
L 573.355111 148.502068 
L 573.964406 140.829157 
L 574.564121 143.81553 
L 575.154552 144.392112 
L 575.735982 141.390956 
L 576.308681 139.350769 
L 576.872909 139.040295 
L 577.428911 148.827308 
L 577.976924 148.22116 
L 578.517175 141.183979 
L 579.04988 140.548265 
L 579.575247 144.953895 
L 580.093476 143.431142 
L 580.604758 141.302258 
L 581.109277 141.583149 
L 581.607209 139.882986 
L 582.098725 142.928491 
L 582.583986 148.635114 
L 583.063152 140.149094 
L 583.536372 142.085801 
L 584.003793 148.635114 
L 584.465555 142.174514 
L 584.921793 142.337126 
L 585.372638 142.056235 
L 585.818216 142.13015 
L 586.258649 139.513381 
L 586.694054 138.463729 
L 587.124545 142.322343 
L 587.550231 140.237808 
L 587.971218 142.736297 
L 588.387609 143.59377 
L 588.799503 144.03729 
L 589.206997 143.135468 
L 589.610183 144.495593 
L 590.009152 142.20408 
L 590.403991 143.800747 
L 590.794783 141.997103 
L 591.181613 144.03729 
L 591.564558 142.411057 
L 591.943697 141.952754 
L 592.319104 143.59377 
L 592.690852 142.056235 
L 593.059012 141.967537 
L 593.423652 143.505073 
L 593.784839 140.474351 
L 594.142638 142.706731 
L 594.497111 143.81553 
L 595.196325 141.701413 
L 595.541183 141.98232 
L 595.882951 146.003562 
L 596.221684 143.253747 
L 596.557435 144.229484 
L 596.890256 148.250726 
L 597.220198 141.13963 
L 597.54731 143.904244 
L 597.87164 143.889445 
L 598.193236 144.273833 
L 598.512143 147.393253 
L 598.828406 147.526315 
L 599.142067 145.944431 
L 599.453171 143.091119 
L 599.761757 141.716212 
L 600.067867 139.350769 
L 600.371539 139.942118 
L 600.672813 149.906541 
L 600.971725 144.687786 
L 601.268313 144.362546 
L 601.562613 144.924329 
L 601.854659 142.174514 
L 602.144486 147.186292 
L 602.432127 144.421678 
L 602.717616 144.126003 
L 603.000983 142.869359 
L 603.28226 147.334121 
L 603.561478 146.787121 
L 603.838667 145.086957 
L 604.113857 141.13963 
L 604.387074 142.736297 
L 604.658349 145.42698 
L 604.927708 143.859879 
L 605.195178 143.889445 
L 605.460785 140.991785 
L 605.724555 140.089963 
L 606.246686 145.944431 
L 606.505095 143.04677 
L 606.761765 143.238948 
L 607.01672 145.796585 
L 607.269981 142.691948 
L 607.521572 143.401577 
L 607.771514 141.967537 
L 608.019829 144.111205 
L 608.266538 150.246564 
L 608.511661 145.914865 
L 608.755219 145.826151 
L 608.997231 142.677165 
L 609.237718 142.721514 
L 609.476698 142.322343 
L 609.714189 144.525158 
L 609.950212 141.68663 
L 610.184782 143.81553 
L 610.417919 144.643438 
L 610.649639 143.549422 
L 610.87996 145.175655 
L 611.108898 145.027826 
L 611.336471 142.026669 
L 611.787583 145.190438 
L 612.011153 145.072174 
L 612.233421 144.406895 
L 612.454401 143.26853 
L 612.674108 140.474351 
L 612.892557 140.592614 
L 613.109761 144.25905 
L 613.325736 143.076336 
L 613.540495 147.821989 
L 613.754051 147.969835 
L 613.966418 143.357228 
L 614.387638 140.755242 
L 614.596516 141.745778 
L 614.804256 141.716212 
L 615.010871 143.253747 
L 615.216373 149.551719 
L 615.420773 144.111205 
L 615.624084 147.37847 
L 615.826317 140.770025 
L 616.027484 142.159731 
L 616.227594 141.878824 
L 616.426661 140.607397 
L 616.821704 143.859879 
L 617.017701 144.111205 
L 617.4067 149.093416 
L 617.599722 142.056235 
L 617.791772 141.997103 
L 617.98286 145.840934 
L 618.362187 144.066856 
L 618.550445 143.830313 
L 618.737779 146.047911 
L 619.109708 142.440623 
L 619.294321 144.303399 
L 619.478045 141.701413 
L 619.660889 143.002406 
L 619.84286 146.225322 
L 620.023967 146.136625 
L 620.204218 145.574826 
L 620.383621 142.440623 
L 620.562184 142.248429 
L 620.739915 142.943274 
L 620.916822 142.795429 
L 621.092912 141.597932 
L 621.268193 142.632817 
L 621.442672 142.943274 
L 621.616356 149.980456 
L 621.789253 142.97284 
L 621.96137 144.362546 
L 622.303291 140.518699 
L 622.642174 144.525158 
L 622.810493 143.534639 
L 622.978073 146.254888 
L 623.144919 144.081639 
L 623.311039 144.185135 
L 623.476438 144.850415 
L 623.641124 143.992941 
L 623.805101 144.584306 
L 623.968376 143.549422 
L 624.130955 141.124847 
L 624.292844 143.608553 
L 624.454049 143.224166 
L 624.614576 148.073331 
L 624.933616 143.978158 
L 625.092141 142.484972 
L 625.25001 143.578988 
L 625.407228 143.682484 
L 625.719733 142.780646 
L 625.87503 143.04677 
L 626.337165 149.581285 
L 626.642173 143.135468 
L 626.944761 144.007724 
L 627.244967 142.839794 
L 627.394189 143.785964 
L 627.542829 143.505073 
L 627.690893 144.03729 
L 627.985306 147.526315 
L 628.131664 145.737454 
L 628.277464 148.014183 
L 628.85515 141.952754 
L 628.998215 142.056235 
L 629.282745 142.366692 
L 629.424218 142.115367 
L 629.565168 143.312879 
L 629.705599 143.401577 
L 629.845515 142.928491 
L 630.123816 143.002406 
L 630.262209 144.25905 
L 630.400101 143.948592 
L 630.537497 145.64874 
L 630.6744 151.311014 
L 630.94674 141.701413 
L 631.082184 142.765863 
L 631.217149 142.233646 
L 631.351638 142.765863 
L 631.485654 142.52932 
L 631.619201 143.726833 
L 631.752283 142.691948 
L 631.884901 143.564205 
L 632.01706 142.455406 
L 632.148763 142.943274 
L 632.280012 142.943274 
L 632.410811 142.75108 
L 632.541163 143.71205 
L 632.671072 142.706731 
L 632.800539 142.780646 
L 632.929568 152.168488 
L 633.058163 144.924329 
L 633.186325 144.495593 
L 633.441364 142.544103 
L 633.568248 142.588468 
L 633.69471 143.475507 
L 634.071601 143.682484 
L 634.196408 143.209383 
L 634.320808 143.401577 
L 634.444804 143.031987 
L 634.691592 143.948592 
L 634.81439 143.81553 
L 634.936794 149.211696 
L 635.18043 142.411057 
L 635.301666 142.780646 
L 635.422519 142.558886 
L 635.54299 142.943274 
L 635.663081 142.691948 
L 635.782796 143.061553 
L 635.902136 142.470189 
L 636.021104 143.475507 
L 636.139701 143.150251 
L 636.493298 143.49029 
L 636.843647 142.854576 
L 636.959718 143.445925 
L 637.075438 143.017189 
L 637.190807 143.091119 
L 637.534835 142.839794 
L 637.762476 143.682484 
L 637.875788 143.505073 
L 638.101409 142.839794 
L 638.213721 142.839794 
L 638.325703 143.209383 
L 638.437357 142.632817 
L 638.659689 143.357228 
L 638.770371 143.386794 
L 638.880733 143.105902 
L 638.990777 143.475507 
L 639.100503 143.253747 
L 639.209916 143.342445 
L 639.319015 144.273833 
L 639.427803 144.096422 
L 639.536281 143.238948 
L 639.752317 143.475507 
L 639.859878 143.150251 
L 639.967136 143.445925 
L 640.074094 143.253747 
L 640.287113 143.416359 
L 640.498949 143.061553 
L 640.604428 143.431142 
L 640.709616 143.283313 
L 640.814514 143.978158 
L 641.023449 143.26853 
L 641.127489 143.59377 
L 641.231246 143.342445 
L 641.334722 143.608553 
L 641.540834 143.549422 
L 641.643474 143.785964 
L 641.84793 143.298096 
L 641.949748 143.445925 
L 642.051295 143.386794 
L 642.253581 143.756399 
L 642.354323 143.741616 
L 642.555013 143.445925 
L 642.654964 143.638119 
L 642.854082 143.253747 
L 642.953253 143.564205 
L 643.052166 143.519856 
L 643.150824 143.682484 
L 643.249227 143.475507 
L 643.347377 143.652902 
L 643.64032 143.342445 
L 643.73747 143.741616 
L 643.931031 143.298096 
L 644.027444 143.401577 
L 644.123614 143.564205 
L 644.219542 143.416359 
L 644.410678 143.519856 
L 644.505888 143.785964 
L 644.60086 143.623336 
L 644.695597 143.061553 
L 644.790099 144.214701 
L 644.978404 149.374324 
L 645.259129 141.804909 
L 645.537803 147.969835 
L 645.722461 143.460708 
L 645.814456 143.830313 
L 645.906229 143.342445 
L 645.997783 143.505073 
L 646.089117 142.943274 
L 646.271131 143.342445 
L 646.361813 143.091119 
L 646.452281 143.372011 
L 646.542534 143.061553 
L 646.632574 143.135468 
L 646.722402 143.298096 
L 646.81202 143.105902 
L 646.990625 143.416359 
L 647.433512 143.564205 
L 647.609237 143.445925 
L 647.784156 143.372011 
L 647.871315 143.81553 
L 648.045039 143.564205 
L 648.217976 143.697267 
L 648.304151 144.022507 
L 648.390131 143.652902 
L 648.475919 143.771181 
L 648.561514 143.978158 
L 648.732129 143.549422 
L 648.901985 143.889445 
L 648.98663 143.756399 
L 649.071087 143.830313 
L 649.155358 144.170352 
L 649.239443 143.889445 
L 649.323344 143.978158 
L 649.573943 143.682484 
L 649.822906 143.845096 
L 649.905534 143.741616 
L 650.070255 144.199918 
L 650.152349 144.140786 
L 650.397577 143.948592 
L 650.478971 143.992941 
L 650.560191 144.25905 
L 650.722114 143.445925 
L 650.883353 144.288616 
L 650.963718 143.948592 
L 651.043914 144.081639 
L 651.203801 143.667685 
L 651.363021 144.25905 
L 651.442382 144.03729 
L 651.600611 144.421678 
L 651.67948 144.066856 
L 651.758186 144.111205 
L 651.915113 144.170352 
L 651.993335 144.140786 
L 652.071397 144.318182 
L 652.227043 144.126003 
L 652.382057 144.052073 
L 652.613402 144.081639 
L 652.766856 144.406895 
L 652.843353 143.992941 
L 652.919696 144.155569 
L 652.995886 144.096422 
L 653.071925 144.25905 
L 653.147813 144.066856 
L 653.299136 144.244267 
L 653.374573 143.963375 
L 653.449861 144.066856 
L 653.525001 144.066856 
L 653.599994 144.199918 
L 653.674839 143.992941 
L 653.749537 144.081639 
L 653.82409 144.332964 
L 653.898497 144.066856 
L 653.972759 144.25905 
L 654.046877 144.229484 
L 654.26837 143.830313 
L 654.341916 144.081639 
L 654.415321 143.992941 
L 654.488584 143.874662 
L 654.634691 144.229484 
L 654.707535 144.185135 
L 654.78024 144.170352 
L 654.852806 143.919027 
L 654.925235 144.25905 
L 654.997527 144.185135 
L 655.069681 143.919027 
L 655.213583 144.155569 
L 655.356943 143.845096 
L 655.499767 144.303399 
L 655.570979 144.066856 
L 655.713005 144.303399 
L 655.854504 144.03729 
L 655.925057 144.214701 
L 655.99548 143.978158 
L 656.065773 144.140786 
L 656.135937 144.022507 
L 656.205972 144.111205 
L 656.415308 144.052073 
L 656.484833 144.362546 
L 656.554231 144.03729 
L 656.623502 144.111205 
L 656.692648 144.007724 
L 656.830566 144.096422 
L 656.899338 143.919027 
L 657.036512 144.155569 
L 657.104914 143.919027 
L 657.173193 144.214701 
L 657.241351 143.963375 
L 657.309387 144.052073 
L 657.377302 144.170352 
L 657.445096 143.948592 
L 657.51277 143.978158 
L 657.647759 144.052073 
L 657.715075 143.785964 
L 657.849351 144.111205 
L 657.983155 143.904244 
L 658.049882 143.904244 
L 658.116492 144.111205 
L 658.182987 144.022507 
L 658.381776 143.889445 
L 658.513729 143.93381 
L 658.579535 143.623336 
L 658.776274 144.022507 
L 658.906872 143.859879 
L 658.972003 143.93381 
L 659.037024 143.859879 
L 659.231423 143.81553 
L 659.553236 144.170352 
L 659.617274 143.830313 
L 659.681204 143.889445 
L 659.808745 144.052073 
L 659.99926 143.859879 
L 660.188828 143.682484 
L 660.377459 144.066856 
L 660.440129 144.081639 
L 660.627524 143.800747 
L 660.689785 144.022507 
L 660.751944 143.948592 
L 660.87596 143.904244 
L 660.937817 144.140786 
L 661.122788 143.800747 
L 661.184247 143.845096 
L 661.245606 143.564205 
L 661.429095 143.963375 
L 661.490062 143.904244 
L 661.550932 144.066856 
L 661.611704 143.726833 
L 661.672381 144.096422 
L 661.73296 143.904244 
L 661.853832 143.874662 
L 661.974322 144.111205 
L 662.154346 143.830313 
L 662.214166 144.052073 
L 662.273892 143.978158 
L 662.393064 143.963375 
L 662.571127 144.066856 
L 662.866063 143.859879 
L 662.983403 143.771181 
L 663.041937 144.096422 
L 663.100382 143.845096 
L 663.158737 143.992941 
L 663.217003 143.785964 
L 663.27518 143.830313 
L 663.507006 144.126003 
L 663.564743 143.771181 
L 663.622393 143.992941 
L 663.737432 143.756399 
L 663.794821 144.081639 
L 663.852124 143.948592 
L 664.420471 144.022507 
L 664.476842 143.771181 
L 664.533131 143.859879 
L 664.589336 143.963375 
L 664.645459 143.919027 
L 664.701499 143.93381 
L 664.757457 144.126003 
L 664.869128 143.830313 
L 664.924841 143.874662 
L 664.980472 143.992941 
L 665.036023 143.830313 
L 665.091493 144.199918 
L 665.146882 143.859879 
L 665.312569 144.096422 
L 665.367638 143.992941 
L 665.477539 144.229484 
L 665.641798 143.992941 
L 665.859717 144.140786 
L 666.022342 143.93381 
L 666.184277 144.318182 
L 666.345527 143.904244 
L 666.45265 144.007724 
L 666.612772 144.303399 
L 666.719148 143.978158 
L 666.772225 144.495593 
L 666.825228 144.244267 
L 667.036507 144.066856 
L 667.141709 144.377329 
L 667.194202 144.332964 
L 667.351247 144.170352 
L 667.403452 143.845096 
L 667.507648 144.273833 
L 667.55964 144.229484 
L 667.611561 144.244267 
L 667.663411 143.889445 
L 667.715191 144.066856 
L 667.81854 144.25905 
L 667.973041 143.874662 
L 668.075695 144.155569 
L 668.126918 143.919027 
L 668.178073 144.03729 
L 668.229159 144.066856 
L 668.280177 143.830313 
L 668.331127 143.978158 
L 668.432823 144.185135 
L 668.534248 143.785964 
L 668.58486 144.03729 
L 668.635405 143.978158 
L 668.685883 144.140786 
L 668.736294 143.992941 
L 668.786638 144.03729 
L 668.836916 143.904244 
L 668.887128 144.066856 
L 668.937274 144.244267 
L 669.037369 144.214701 
L 669.087318 144.244267 
L 669.137202 143.845096 
L 669.18702 144.096422 
L 669.236774 143.978158 
L 669.286462 144.066856 
L 669.435141 144.111205 
L 669.484572 143.992941 
L 669.533939 144.03729 
L 669.583243 144.170352 
L 669.632482 143.874662 
L 669.681658 144.03729 
L 669.828808 144.170352 
L 669.877732 144.081639 
L 669.926593 144.214701 
L 669.975391 144.199918 
L 670.024128 143.978158 
L 670.072802 144.199918 
L 670.121414 144.111205 
L 670.169964 144.155569 
L 670.218452 144.214701 
L 670.266879 143.919027 
L 670.315245 144.214701 
L 670.363549 144.214701 
L 670.459974 143.859879 
L 670.508096 144.052073 
L 670.556157 143.963375 
L 670.604157 144.185135 
L 670.652097 144.066856 
L 670.843256 144.052073 
L 670.890897 144.288616 
L 670.938478 144.03729 
L 670.986 144.03729 
L 671.033463 143.874662 
L 671.080866 144.214701 
L 671.128211 144.140786 
L 671.222725 143.889445 
L 671.269894 143.992941 
L 671.45799 144.140786 
L 671.504869 144.007724 
L 671.551691 144.126003 
L 671.691813 144.214701 
L 671.877844 143.948592 
L 672.016775 144.155569 
L 672.155201 144.052073 
L 672.201232 144.288616 
L 672.247207 144.03729 
L 672.338991 144.185135 
L 672.384801 144.081639 
L 672.430555 144.140786 
L 672.613027 144.25905 
L 672.839895 143.874662 
L 672.885108 144.052073 
L 672.975372 143.978158 
L 673.020424 143.992941 
L 673.110368 144.03729 
L 673.155261 143.800747 
L 673.200101 144.199918 
L 673.289624 144.007724 
L 673.468041 143.889445 
L 673.512515 144.022507 
L 673.601308 143.948592 
L 673.778276 144.155569 
L 673.82239 143.919027 
L 673.866454 144.111205 
L 673.954427 144.052073 
L 673.998338 144.214701 
L 674.042199 144.066856 
L 674.086009 143.963375 
L 674.129769 144.229484 
L 674.173478 144.199918 
L 674.217138 143.904244 
L 674.260747 144.03729 
L 674.304307 144.214701 
L 674.347818 143.963375 
L 674.478051 144.066856 
L 674.521364 143.904244 
L 674.564627 144.096422 
L 674.607841 144.007724 
L 674.737192 144.288616 
L 674.780211 144.140786 
L 674.908979 143.830313 
L 674.951805 144.007724 
L 674.994583 144.007724 
L 675.037314 143.830313 
L 675.079996 143.93381 
L 675.122631 144.066856 
L 675.207758 143.992941 
L 675.25025 144.096422 
L 675.292695 143.874662 
L 675.335092 144.052073 
L 675.377443 144.303399 
L 675.419747 144.229484 
L 675.462004 143.859879 
L 675.546377 144.022507 
L 675.588494 144.03729 
L 675.630564 144.199918 
L 675.672589 144.111205 
L 675.798384 143.904244 
L 675.965468 144.185135 
L 676.007124 143.919027 
L 676.048736 144.244267 
L 676.090302 144.052073 
L 676.214729 143.904244 
L 676.256115 144.185135 
L 676.338752 144.03729 
L 676.42121 144.052073 
L 676.462372 144.007724 
L 676.626579 143.992941 
L 676.749271 143.948592 
L 676.790081 144.155569 
L 676.871571 144.126003 
L 677.074535 143.800747 
L 677.236133 144.022507 
L 677.356883 144.03729 
L 677.437172 144.170352 
L 677.477253 143.992941 
L 677.517292 144.170352 
L 677.557289 144.214701 
L 677.597243 144.170352 
L 677.796393 143.904244 
L 677.836098 143.919027 
L 677.915385 144.25905 
L 677.954967 143.889445 
L 678.034008 144.170352 
L 678.073467 143.845096 
L 678.152262 144.052073 
L 678.191599 143.93381 
L 678.270152 143.978158 
L 678.309367 143.948592 
L 678.426772 144.185135 
L 678.465827 143.963375 
L 678.543817 144.022507 
L 678.621648 143.963375 
L 678.660504 144.111205 
L 678.776835 144.052073 
L 678.815534 144.170352 
L 678.854193 144.022507 
L 678.892812 143.93381 
L 678.931393 144.229484 
L 679.008438 144.140786 
L 679.085328 143.904244 
L 679.123714 144.03729 
L 679.238643 143.845096 
L 679.31507 143.830313 
L 679.391345 144.170352 
L 679.429425 144.199918 
L 679.505471 143.93381 
L 679.543438 144.096422 
L 679.581366 144.140786 
L 679.694926 143.93381 
L 679.845816 144.377329 
L 679.883445 144.362546 
L 679.921037 143.978158 
L 679.958593 144.214701 
L 679.996111 144.406895 
L 680.033592 144.332964 
L 680.108444 143.93381 
L 680.145816 144.185135 
L 680.18315 144.392112 
L 680.220448 144.185135 
L 680.369277 144.155569 
L 680.443474 144.126003 
L 680.480519 143.963375 
L 680.591437 144.392112 
L 680.628338 144.081639 
L 680.702033 144.199918 
L 680.775587 144.066856 
L 680.81231 144.140786 
L 680.848998 144.140786 
L 680.885651 144.318182 
L 680.922269 144.022507 
L 681.031912 144.170352 
L 681.068389 143.948592 
L 681.14124 144.185135 
L 681.213952 144.081639 
L 681.250256 144.185135 
L 681.575447 144.155569 
L 681.647336 143.919027 
L 681.68323 144.111205 
L 681.754917 143.992941 
L 681.79071 144.25905 
L 681.82647 143.93381 
L 681.862196 144.126003 
L 681.969173 144.214701 
L 682.004766 144.096422 
L 682.040325 144.140786 
L 682.146805 144.421678 
L 682.182232 144.288616 
L 682.217627 144.332964 
L 682.323613 144.066856 
L 682.358877 144.140786 
L 682.464472 144.03729 
L 682.534707 144.377329 
L 682.569776 144.052073 
L 682.70973 144.170352 
L 682.849173 144.03729 
L 682.953422 144.007724 
L 682.988108 144.288616 
L 683.022763 144.066856 
L 683.126538 144.111205 
L 683.264468 144.126003 
L 683.367589 144.244267 
L 683.401901 144.096422 
L 683.470432 144.244267 
L 683.607127 144.03729 
L 683.709327 144.362546 
L 683.811253 144.066856 
L 683.845169 144.096422 
L 683.879054 144.170352 
L 683.912909 143.859879 
L 683.946734 144.273833 
L 683.980529 144.052073 
L 684.11541 144.155569 
L 684.249816 143.904244 
L 684.316842 144.318182 
L 684.38375 144.199918 
L 684.450541 144.318182 
L 684.517215 143.93381 
L 684.550509 144.199918 
L 684.617009 144.096422 
L 684.650215 143.830313 
L 684.683393 143.948592 
L 684.815816 144.244267 
L 684.914832 143.992941 
L 685.013592 144.436461 
L 685.046455 144.096422 
L 685.144875 144.066856 
L 685.112097 144.140786 
L 685.144875 144.066856 
" clip-path="url(#pae454d795b)" style="fill: none; stroke: #1f77b4; stroke-width: 1.5; stroke-linecap: square"/>
   </g>
   <g id="patch_3">
    <path d="M 328.024875 311.6435 
L 328.024875 45.5315 
" style="fill: none; stroke: #000000; stroke-width: 0.8; stroke-linejoin: miter; stroke-linecap: square"/>
   </g>
   <g id="patch_4">
    <path d="M 685.144875 311.6435 
L 685.144875 45.5315 
" style="fill: none; stroke: #000000; stroke-width: 0.8; stroke-linejoin: miter; stroke-linecap: square"/>
   </g>
   <g id="patch_5">
    <path d="M 328.024875 311.6435 
L 685.144875 311.6435 
" style="fill: none; stroke: #000000; stroke-width: 0.8; stroke-linejoin: miter; stroke-linecap: square"/>
   </g>
   <g id="patch_6">
    <path d="M 328.024875 45.5315 
L 685.144875 45.5315 
" style="fill: none; stroke: #000000; stroke-width: 0.8; stroke-linejoin: miter; stroke-linecap: square"/>
   </g>
   <g id="text_17">
    <!-- Accuracy of the 15_05_25_CINIC10_model_(1024+512+512+512+1)_ct on the validation set -->
    <g transform="translate(7.2 25.5315) scale(0.264 -0.264)">
     <defs>
      <path id="TimesNewRomanPSMT-20" transform="scale(0.015625)"/>
      <path id="TimesNewRomanPSMT-6f" d="M 1600 2947 
Q 2250 2947 2644 2453 
Q 2978 2031 2978 1484 
Q 2978 1100 2793 706 
Q 2609 313 2286 112 
Q 1963 -88 1566 -88 
Q 919 -88 538 428 
Q 216 863 216 1403 
Q 216 1797 411 2186 
Q 606 2575 925 2761 
Q 1244 2947 1600 2947 
z
M 1503 2744 
Q 1338 2744 1170 2645 
Q 1003 2547 900 2300 
Q 797 2053 797 1666 
Q 797 1041 1045 587 
Q 1294 134 1700 134 
Q 2003 134 2200 384 
Q 2397 634 2397 1244 
Q 2397 2006 2069 2444 
Q 1847 2744 1503 2744 
z
" transform="scale(0.015625)"/>
      <path id="TimesNewRomanPSMT-66" d="M 1319 2638 
L 1319 756 
Q 1319 356 1406 250 
Q 1522 113 1716 113 
L 1975 113 
L 1975 0 
L 266 0 
L 266 113 
L 394 113 
Q 519 113 622 175 
Q 725 238 764 344 
Q 803 450 803 756 
L 803 2638 
L 247 2638 
L 247 2863 
L 803 2863 
L 803 3050 
Q 803 3478 940 3775 
Q 1078 4072 1361 4255 
Q 1644 4438 1997 4438 
Q 2325 4438 2600 4225 
Q 2781 4084 2781 3909 
Q 2781 3816 2700 3733 
Q 2619 3650 2525 3650 
Q 2453 3650 2373 3701 
Q 2294 3753 2178 3923 
Q 2063 4094 1966 4153 
Q 1869 4213 1750 4213 
Q 1606 4213 1506 4136 
Q 1406 4059 1362 3898 
Q 1319 3738 1319 3069 
L 1319 2863 
L 2056 2863 
L 2056 2638 
L 1319 2638 
z
" transform="scale(0.015625)"/>
      <path id="TimesNewRomanPSMT-74" d="M 1031 3803 
L 1031 2863 
L 1700 2863 
L 1700 2644 
L 1031 2644 
L 1031 788 
Q 1031 509 1111 412 
Q 1191 316 1316 316 
Q 1419 316 1516 380 
Q 1613 444 1666 569 
L 1788 569 
Q 1678 263 1478 108 
Q 1278 -47 1066 -47 
Q 922 -47 784 33 
Q 647 113 581 261 
Q 516 409 516 719 
L 516 2644 
L 63 2644 
L 63 2747 
Q 234 2816 414 2980 
Q 594 3144 734 3369 
Q 806 3488 934 3803 
L 1031 3803 
z
" transform="scale(0.015625)"/>
      <path id="TimesNewRomanPSMT-68" d="M 1041 4444 
L 1041 2350 
Q 1388 2731 1591 2839 
Q 1794 2947 1997 2947 
Q 2241 2947 2416 2812 
Q 2591 2678 2675 2391 
Q 2734 2191 2734 1659 
L 2734 647 
Q 2734 375 2778 275 
Q 2809 200 2884 156 
Q 2959 113 3159 113 
L 3159 0 
L 1753 0 
L 1753 113 
L 1819 113 
Q 2019 113 2097 173 
Q 2175 234 2206 353 
Q 2216 403 2216 647 
L 2216 1659 
Q 2216 2128 2167 2275 
Q 2119 2422 2012 2495 
Q 1906 2569 1756 2569 
Q 1603 2569 1437 2487 
Q 1272 2406 1041 2159 
L 1041 647 
Q 1041 353 1073 281 
Q 1106 209 1195 161 
Q 1284 113 1503 113 
L 1503 0 
L 84 0 
L 84 113 
Q 275 113 384 172 
Q 447 203 484 290 
Q 522 378 522 647 
L 522 3238 
Q 522 3728 498 3840 
Q 475 3953 426 3993 
Q 378 4034 297 4034 
Q 231 4034 84 3984 
L 41 4094 
L 897 4444 
L 1041 4444 
z
" transform="scale(0.015625)"/>
      <path id="TimesNewRomanPSMT-65" d="M 681 1784 
Q 678 1147 991 784 
Q 1303 422 1725 422 
Q 2006 422 2214 576 
Q 2422 731 2563 1106 
L 2659 1044 
Q 2594 616 2278 264 
Q 1963 -88 1488 -88 
Q 972 -88 605 314 
Q 238 716 238 1394 
Q 238 2128 614 2539 
Q 991 2950 1559 2950 
Q 2041 2950 2350 2633 
Q 2659 2316 2659 1784 
L 681 1784 
z
M 681 1966 
L 2006 1966 
Q 1991 2241 1941 2353 
Q 1863 2528 1708 2628 
Q 1553 2728 1384 2728 
Q 1125 2728 920 2526 
Q 716 2325 681 1966 
z
" transform="scale(0.015625)"/>
      <path id="TimesNewRomanPSMT-5f" d="M 3256 -1381 
L -53 -1381 
L -53 -1119 
L 3256 -1119 
L 3256 -1381 
z
" transform="scale(0.015625)"/>
      <path id="TimesNewRomanPSMT-43" d="M 3853 4334 
L 3950 2894 
L 3853 2894 
Q 3659 3541 3300 3825 
Q 2941 4109 2438 4109 
Q 2016 4109 1675 3895 
Q 1334 3681 1139 3212 
Q 944 2744 944 2047 
Q 944 1472 1128 1050 
Q 1313 628 1683 403 
Q 2053 178 2528 178 
Q 2941 178 3256 354 
Q 3572 531 3950 1056 
L 4047 994 
Q 3728 428 3303 165 
Q 2878 -97 2294 -97 
Q 1241 -97 663 684 
Q 231 1266 231 2053 
Q 231 2688 515 3219 
Q 800 3750 1298 4042 
Q 1797 4334 2388 4334 
Q 2847 4334 3294 4109 
Q 3425 4041 3481 4041 
Q 3566 4041 3628 4100 
Q 3709 4184 3744 4334 
L 3853 4334 
z
" transform="scale(0.015625)"/>
      <path id="TimesNewRomanPSMT-49" d="M 1975 116 
L 1975 0 
L 159 0 
L 159 116 
L 309 116 
Q 572 116 691 269 
Q 766 369 766 750 
L 766 3488 
Q 766 3809 725 3913 
Q 694 3991 597 4047 
Q 459 4122 309 4122 
L 159 4122 
L 159 4238 
L 1975 4238 
L 1975 4122 
L 1822 4122 
Q 1563 4122 1444 3969 
Q 1366 3869 1366 3488 
L 1366 750 
Q 1366 428 1406 325 
Q 1438 247 1538 191 
Q 1672 116 1822 116 
L 1975 116 
z
" transform="scale(0.015625)"/>
      <path id="TimesNewRomanPSMT-4e" d="M -84 4238 
L 1066 4238 
L 3656 1059 
L 3656 3503 
Q 3656 3894 3569 3991 
Q 3453 4122 3203 4122 
L 3056 4122 
L 3056 4238 
L 4531 4238 
L 4531 4122 
L 4381 4122 
Q 4113 4122 4000 3959 
Q 3931 3859 3931 3503 
L 3931 -69 
L 3819 -69 
L 1025 3344 
L 1025 734 
Q 1025 344 1109 247 
Q 1228 116 1475 116 
L 1625 116 
L 1625 0 
L 150 0 
L 150 116 
L 297 116 
Q 569 116 681 278 
Q 750 378 750 734 
L 750 3681 
Q 566 3897 470 3965 
Q 375 4034 191 4094 
Q 100 4122 -84 4122 
L -84 4238 
z
" transform="scale(0.015625)"/>
      <path id="TimesNewRomanPSMT-6d" d="M 1050 2338 
Q 1363 2650 1419 2697 
Q 1559 2816 1721 2881 
Q 1884 2947 2044 2947 
Q 2313 2947 2506 2790 
Q 2700 2634 2766 2338 
Q 3088 2713 3309 2830 
Q 3531 2947 3766 2947 
Q 3994 2947 4170 2830 
Q 4347 2713 4450 2447 
Q 4519 2266 4519 1878 
L 4519 647 
Q 4519 378 4559 278 
Q 4591 209 4675 161 
Q 4759 113 4950 113 
L 4950 0 
L 3538 0 
L 3538 113 
L 3597 113 
Q 3781 113 3884 184 
Q 3956 234 3988 344 
Q 4000 397 4000 647 
L 4000 1878 
Q 4000 2228 3916 2372 
Q 3794 2572 3525 2572 
Q 3359 2572 3192 2489 
Q 3025 2406 2788 2181 
L 2781 2147 
L 2788 2013 
L 2788 647 
Q 2788 353 2820 281 
Q 2853 209 2943 161 
Q 3034 113 3253 113 
L 3253 0 
L 1806 0 
L 1806 113 
Q 2044 113 2133 169 
Q 2222 225 2256 338 
Q 2272 391 2272 647 
L 2272 1878 
Q 2272 2228 2169 2381 
Q 2031 2581 1784 2581 
Q 1616 2581 1450 2491 
Q 1191 2353 1050 2181 
L 1050 647 
Q 1050 366 1089 281 
Q 1128 197 1204 155 
Q 1281 113 1516 113 
L 1516 0 
L 100 0 
L 100 113 
Q 297 113 375 155 
Q 453 197 493 289 
Q 534 381 534 647 
L 534 1741 
Q 534 2213 506 2350 
Q 484 2453 437 2492 
Q 391 2531 309 2531 
Q 222 2531 100 2484 
L 53 2597 
L 916 2947 
L 1050 2947 
L 1050 2338 
z
" transform="scale(0.015625)"/>
      <path id="TimesNewRomanPSMT-64" d="M 2222 322 
Q 2013 103 1813 7 
Q 1613 -88 1381 -88 
Q 913 -88 563 304 
Q 213 697 213 1313 
Q 213 1928 600 2439 
Q 988 2950 1597 2950 
Q 1975 2950 2222 2709 
L 2222 3238 
Q 2222 3728 2198 3840 
Q 2175 3953 2125 3993 
Q 2075 4034 2000 4034 
Q 1919 4034 1784 3984 
L 1744 4094 
L 2597 4444 
L 2738 4444 
L 2738 1134 
Q 2738 631 2761 520 
Q 2784 409 2836 365 
Q 2888 322 2956 322 
Q 3041 322 3181 375 
L 3216 266 
L 2366 -88 
L 2222 -88 
L 2222 322 
z
M 2222 541 
L 2222 2016 
Q 2203 2228 2109 2403 
Q 2016 2578 1861 2667 
Q 1706 2756 1559 2756 
Q 1284 2756 1069 2509 
Q 784 2184 784 1559 
Q 784 928 1059 592 
Q 1334 256 1672 256 
Q 1956 256 2222 541 
z
" transform="scale(0.015625)"/>
      <path id="TimesNewRomanPSMT-6c" d="M 1184 4444 
L 1184 647 
Q 1184 378 1223 290 
Q 1263 203 1344 158 
Q 1425 113 1647 113 
L 1647 0 
L 244 0 
L 244 113 
Q 441 113 512 153 
Q 584 194 625 287 
Q 666 381 666 647 
L 666 3247 
Q 666 3731 644 3842 
Q 622 3953 573 3993 
Q 525 4034 450 4034 
Q 369 4034 244 3984 
L 191 4094 
L 1044 4444 
L 1184 4444 
z
" transform="scale(0.015625)"/>
      <path id="TimesNewRomanPSMT-28" d="M 1988 -1253 
L 1988 -1369 
Q 1516 -1131 1200 -813 
Q 750 -359 506 256 
Q 263 872 263 1534 
Q 263 2503 741 3301 
Q 1219 4100 1988 4444 
L 1988 4313 
Q 1603 4100 1356 3731 
Q 1109 3363 987 2797 
Q 866 2231 866 1616 
Q 866 947 969 400 
Q 1050 -31 1165 -292 
Q 1281 -553 1476 -793 
Q 1672 -1034 1988 -1253 
z
" transform="scale(0.015625)"/>
      <path id="TimesNewRomanPSMT-2b" d="M 1672 441 
L 1672 2000 
L 116 2000 
L 116 2256 
L 1672 2256 
L 1672 3809 
L 1922 3809 
L 1922 2256 
L 3484 2256 
L 3484 2000 
L 1922 2000 
L 1922 441 
L 1672 441 
z
" transform="scale(0.015625)"/>
      <path id="TimesNewRomanPSMT-29" d="M 144 4313 
L 144 4444 
Q 619 4209 934 3891 
Q 1381 3434 1625 2820 
Q 1869 2206 1869 1541 
Q 1869 572 1392 -226 
Q 916 -1025 144 -1369 
L 144 -1253 
Q 528 -1038 776 -670 
Q 1025 -303 1145 264 
Q 1266 831 1266 1447 
Q 1266 2113 1163 2663 
Q 1084 3094 967 3353 
Q 850 3613 656 3853 
Q 463 4094 144 4313 
z
" transform="scale(0.015625)"/>
      <path id="TimesNewRomanPSMT-6e" d="M 1034 2341 
Q 1538 2947 1994 2947 
Q 2228 2947 2397 2830 
Q 2566 2713 2666 2444 
Q 2734 2256 2734 1869 
L 2734 647 
Q 2734 375 2778 278 
Q 2813 200 2889 156 
Q 2966 113 3172 113 
L 3172 0 
L 1756 0 
L 1756 113 
L 1816 113 
Q 2016 113 2095 173 
Q 2175 234 2206 353 
Q 2219 400 2219 647 
L 2219 1819 
Q 2219 2209 2117 2386 
Q 2016 2563 1775 2563 
Q 1403 2563 1034 2156 
L 1034 647 
Q 1034 356 1069 288 
Q 1113 197 1189 155 
Q 1266 113 1500 113 
L 1500 0 
L 84 0 
L 84 113 
L 147 113 
Q 366 113 442 223 
Q 519 334 519 647 
L 519 1709 
Q 519 2225 495 2337 
Q 472 2450 423 2490 
Q 375 2531 294 2531 
Q 206 2531 84 2484 
L 38 2597 
L 900 2947 
L 1034 2947 
L 1034 2341 
z
" transform="scale(0.015625)"/>
      <path id="TimesNewRomanPSMT-76" d="M 53 2863 
L 1400 2863 
L 1400 2747 
L 1313 2747 
Q 1191 2747 1127 2687 
Q 1063 2628 1063 2528 
Q 1063 2419 1128 2269 
L 1794 688 
L 2463 2328 
Q 2534 2503 2534 2594 
Q 2534 2638 2509 2666 
Q 2475 2713 2422 2730 
Q 2369 2747 2206 2747 
L 2206 2863 
L 3141 2863 
L 3141 2747 
Q 2978 2734 2916 2681 
Q 2806 2588 2719 2369 
L 1703 -88 
L 1575 -88 
L 553 2328 
Q 484 2497 421 2570 
Q 359 2644 263 2694 
Q 209 2722 53 2747 
L 53 2863 
z
" transform="scale(0.015625)"/>
      <path id="TimesNewRomanPSMT-69" d="M 928 4444 
Q 1059 4444 1151 4351 
Q 1244 4259 1244 4128 
Q 1244 3997 1151 3903 
Q 1059 3809 928 3809 
Q 797 3809 703 3903 
Q 609 3997 609 4128 
Q 609 4259 701 4351 
Q 794 4444 928 4444 
z
M 1188 2947 
L 1188 647 
Q 1188 378 1227 289 
Q 1266 200 1342 156 
Q 1419 113 1622 113 
L 1622 0 
L 231 0 
L 231 113 
Q 441 113 512 153 
Q 584 194 626 287 
Q 669 381 669 647 
L 669 1750 
Q 669 2216 641 2353 
Q 619 2453 572 2492 
Q 525 2531 444 2531 
Q 356 2531 231 2484 
L 188 2597 
L 1050 2947 
L 1188 2947 
z
" transform="scale(0.015625)"/>
      <path id="TimesNewRomanPSMT-73" d="M 2050 2947 
L 2050 1972 
L 1947 1972 
Q 1828 2431 1642 2597 
Q 1456 2763 1169 2763 
Q 950 2763 815 2647 
Q 681 2531 681 2391 
Q 681 2216 781 2091 
Q 878 1963 1175 1819 
L 1631 1597 
Q 2266 1288 2266 781 
Q 2266 391 1970 151 
Q 1675 -88 1309 -88 
Q 1047 -88 709 6 
Q 606 38 541 38 
Q 469 38 428 -44 
L 325 -44 
L 325 978 
L 428 978 
Q 516 541 762 319 
Q 1009 97 1316 97 
Q 1531 97 1667 223 
Q 1803 350 1803 528 
Q 1803 744 1651 891 
Q 1500 1038 1047 1263 
Q 594 1488 453 1669 
Q 313 1847 313 2119 
Q 313 2472 555 2709 
Q 797 2947 1181 2947 
Q 1350 2947 1591 2875 
Q 1750 2828 1803 2828 
Q 1853 2828 1881 2850 
Q 1909 2872 1947 2947 
L 2050 2947 
z
" transform="scale(0.015625)"/>
     </defs>
     <use xlink:href="#TimesNewRomanPSMT-41"/>
     <use xlink:href="#TimesNewRomanPSMT-63" transform="translate(72.216797 0)"/>
     <use xlink:href="#TimesNewRomanPSMT-63" transform="translate(116.601562 0)"/>
     <use xlink:href="#TimesNewRomanPSMT-75" transform="translate(160.986328 0)"/>
     <use xlink:href="#TimesNewRomanPSMT-72" transform="translate(210.986328 0)"/>
     <use xlink:href="#TimesNewRomanPSMT-61" transform="translate(244.287109 0)"/>
     <use xlink:href="#TimesNewRomanPSMT-63" transform="translate(288.671875 0)"/>
     <use xlink:href="#TimesNewRomanPSMT-79" transform="translate(333.056641 0)"/>
     <use xlink:href="#TimesNewRomanPSMT-20" transform="translate(383.056641 0)"/>
     <use xlink:href="#TimesNewRomanPSMT-6f" transform="translate(408.056641 0)"/>
     <use xlink:href="#TimesNewRomanPSMT-66" transform="translate(458.056641 0)"/>
     <use xlink:href="#TimesNewRomanPSMT-20" transform="translate(491.357422 0)"/>
     <use xlink:href="#TimesNewRomanPSMT-74" transform="translate(516.357422 0)"/>
     <use xlink:href="#TimesNewRomanPSMT-68" transform="translate(544.140625 0)"/>
     <use xlink:href="#TimesNewRomanPSMT-65" transform="translate(594.140625 0)"/>
     <use xlink:href="#TimesNewRomanPSMT-20" transform="translate(638.525391 0)"/>
     <use xlink:href="#TimesNewRomanPSMT-31" transform="translate(663.525391 0)"/>
     <use xlink:href="#TimesNewRomanPSMT-35" transform="translate(713.525391 0)"/>
     <use xlink:href="#TimesNewRomanPSMT-5f" transform="translate(763.525391 0)"/>
     <use xlink:href="#TimesNewRomanPSMT-30" transform="translate(813.525391 0)"/>
     <use xlink:href="#TimesNewRomanPSMT-35" transform="translate(863.525391 0)"/>
     <use xlink:href="#TimesNewRomanPSMT-5f" transform="translate(913.525391 0)"/>
     <use xlink:href="#TimesNewRomanPSMT-32" transform="translate(963.525391 0)"/>
     <use xlink:href="#TimesNewRomanPSMT-35" transform="translate(1013.525391 0)"/>
     <use xlink:href="#TimesNewRomanPSMT-5f" transform="translate(1063.525391 0)"/>
     <use xlink:href="#TimesNewRomanPSMT-43" transform="translate(1113.525391 0)"/>
     <use xlink:href="#TimesNewRomanPSMT-49" transform="translate(1180.224609 0)"/>
     <use xlink:href="#TimesNewRomanPSMT-4e" transform="translate(1213.525391 0)"/>
     <use xlink:href="#TimesNewRomanPSMT-49" transform="translate(1285.742188 0)"/>
     <use xlink:href="#TimesNewRomanPSMT-43" transform="translate(1319.042969 0)"/>
     <use xlink:href="#TimesNewRomanPSMT-31" transform="translate(1385.742188 0)"/>
     <use xlink:href="#TimesNewRomanPSMT-30" transform="translate(1435.742188 0)"/>
     <use xlink:href="#TimesNewRomanPSMT-5f" transform="translate(1485.742188 0)"/>
     <use xlink:href="#TimesNewRomanPSMT-6d" transform="translate(1535.742188 0)"/>
     <use xlink:href="#TimesNewRomanPSMT-6f" transform="translate(1613.525391 0)"/>
     <use xlink:href="#TimesNewRomanPSMT-64" transform="translate(1663.525391 0)"/>
     <use xlink:href="#TimesNewRomanPSMT-65" transform="translate(1713.525391 0)"/>
     <use xlink:href="#TimesNewRomanPSMT-6c" transform="translate(1757.910156 0)"/>
     <use xlink:href="#TimesNewRomanPSMT-5f" transform="translate(1785.693359 0)"/>
     <use xlink:href="#TimesNewRomanPSMT-28" transform="translate(1835.693359 0)"/>
     <use xlink:href="#TimesNewRomanPSMT-31" transform="translate(1868.994141 0)"/>
     <use xlink:href="#TimesNewRomanPSMT-30" transform="translate(1918.994141 0)"/>
     <use xlink:href="#TimesNewRomanPSMT-32" transform="translate(1968.994141 0)"/>
     <use xlink:href="#TimesNewRomanPSMT-34" transform="translate(2018.994141 0)"/>
     <use xlink:href="#TimesNewRomanPSMT-2b" transform="translate(2068.994141 0)"/>
     <use xlink:href="#TimesNewRomanPSMT-35" transform="translate(2125.390625 0)"/>
     <use xlink:href="#TimesNewRomanPSMT-31" transform="translate(2175.390625 0)"/>
     <use xlink:href="#TimesNewRomanPSMT-32" transform="translate(2225.390625 0)"/>
     <use xlink:href="#TimesNewRomanPSMT-2b" transform="translate(2275.390625 0)"/>
     <use xlink:href="#TimesNewRomanPSMT-35" transform="translate(2331.787109 0)"/>
     <use xlink:href="#TimesNewRomanPSMT-31" transform="translate(2381.787109 0)"/>
     <use xlink:href="#TimesNewRomanPSMT-32" transform="translate(2431.787109 0)"/>
     <use xlink:href="#TimesNewRomanPSMT-2b" transform="translate(2481.787109 0)"/>
     <use xlink:href="#TimesNewRomanPSMT-35" transform="translate(2538.183594 0)"/>
     <use xlink:href="#TimesNewRomanPSMT-31" transform="translate(2588.183594 0)"/>
     <use xlink:href="#TimesNewRomanPSMT-32" transform="translate(2638.183594 0)"/>
     <use xlink:href="#TimesNewRomanPSMT-2b" transform="translate(2688.183594 0)"/>
     <use xlink:href="#TimesNewRomanPSMT-31" transform="translate(2744.580078 0)"/>
     <use xlink:href="#TimesNewRomanPSMT-29" transform="translate(2794.580078 0)"/>
     <use xlink:href="#TimesNewRomanPSMT-5f" transform="translate(2827.880859 0)"/>
     <use xlink:href="#TimesNewRomanPSMT-63" transform="translate(2877.880859 0)"/>
     <use xlink:href="#TimesNewRomanPSMT-74" transform="translate(2922.265625 0)"/>
     <use xlink:href="#TimesNewRomanPSMT-20" transform="translate(2950.048828 0)"/>
     <use xlink:href="#TimesNewRomanPSMT-6f" transform="translate(2975.048828 0)"/>
     <use xlink:href="#TimesNewRomanPSMT-6e" transform="translate(3025.048828 0)"/>
     <use xlink:href="#TimesNewRomanPSMT-20" transform="translate(3075.048828 0)"/>
     <use xlink:href="#TimesNewRomanPSMT-74" transform="translate(3100.048828 0)"/>
     <use xlink:href="#TimesNewRomanPSMT-68" transform="translate(3127.832031 0)"/>
     <use xlink:href="#TimesNewRomanPSMT-65" transform="translate(3177.832031 0)"/>
     <use xlink:href="#TimesNewRomanPSMT-20" transform="translate(3222.216797 0)"/>
     <use xlink:href="#TimesNewRomanPSMT-76" transform="translate(3247.216797 0)"/>
     <use xlink:href="#TimesNewRomanPSMT-61" transform="translate(3297.216797 0)"/>
     <use xlink:href="#TimesNewRomanPSMT-6c" transform="translate(3341.601562 0)"/>
     <use xlink:href="#TimesNewRomanPSMT-69" transform="translate(3369.384766 0)"/>
     <use xlink:href="#TimesNewRomanPSMT-64" transform="translate(3397.167969 0)"/>
     <use xlink:href="#TimesNewRomanPSMT-61" transform="translate(3447.167969 0)"/>
     <use xlink:href="#TimesNewRomanPSMT-74" transform="translate(3491.552734 0)"/>
     <use xlink:href="#TimesNewRomanPSMT-69" transform="translate(3519.335938 0)"/>
     <use xlink:href="#TimesNewRomanPSMT-6f" transform="translate(3547.119141 0)"/>
     <use xlink:href="#TimesNewRomanPSMT-6e" transform="translate(3597.119141 0)"/>
     <use xlink:href="#TimesNewRomanPSMT-20" transform="translate(3647.119141 0)"/>
     <use xlink:href="#TimesNewRomanPSMT-73" transform="translate(3672.119141 0)"/>
     <use xlink:href="#TimesNewRomanPSMT-65" transform="translate(3711.035156 0)"/>
     <use xlink:href="#TimesNewRomanPSMT-74" transform="translate(3755.419922 0)"/>
    </g>
   </g>
   <g id="legend_1">
    <g id="patch_7">
     <path d="M 432.574562 94.278687 
L 669.744875 94.278687 
Q 674.144875 94.278687 674.144875 89.878687 
L 674.144875 60.9315 
Q 674.144875 56.5315 669.744875 56.5315 
L 432.574562 56.5315 
Q 428.174562 56.5315 428.174562 60.9315 
L 428.174562 89.878687 
Q 428.174562 94.278687 432.574562 94.278687 
z
" style="fill: #ffffff; opacity: 0.8; stroke: #cccccc; stroke-linejoin: miter"/>
    </g>
    <g id="line2d_30">
     <path d="M 436.974562 73.0315 
L 458.974562 73.0315 
L 480.974562 73.0315 
" style="fill: none; stroke: #1f77b4; stroke-width: 1.5; stroke-linecap: square"/>
    </g>
    <g id="text_18">
     <!-- Best accuracy 0.66 -->
     <g transform="translate(498.574563 80.7315) scale(0.22 -0.22)">
      <defs>
       <path id="TimesNewRomanPSMT-42" d="M 2956 2163 
Q 3397 2069 3616 1863 
Q 3919 1575 3919 1159 
Q 3919 844 3719 555 
Q 3519 266 3170 133 
Q 2822 0 2106 0 
L 106 0 
L 106 116 
L 266 116 
Q 531 116 647 284 
Q 719 394 719 750 
L 719 3488 
Q 719 3881 628 3984 
Q 506 4122 266 4122 
L 106 4122 
L 106 4238 
L 1938 4238 
Q 2450 4238 2759 4163 
Q 3228 4050 3475 3764 
Q 3722 3478 3722 3106 
Q 3722 2788 3528 2536 
Q 3334 2284 2956 2163 
z
M 1319 2331 
Q 1434 2309 1582 2298 
Q 1731 2288 1909 2288 
Q 2366 2288 2595 2386 
Q 2825 2484 2947 2687 
Q 3069 2891 3069 3131 
Q 3069 3503 2766 3765 
Q 2463 4028 1881 4028 
Q 1569 4028 1319 3959 
L 1319 2331 
z
M 1319 306 
Q 1681 222 2034 222 
Q 2600 222 2897 476 
Q 3194 731 3194 1106 
Q 3194 1353 3059 1581 
Q 2925 1809 2622 1940 
Q 2319 2072 1872 2072 
Q 1678 2072 1540 2065 
Q 1403 2059 1319 2044 
L 1319 306 
z
" transform="scale(0.015625)"/>
      </defs>
      <use xlink:href="#TimesNewRomanPSMT-42"/>
      <use xlink:href="#TimesNewRomanPSMT-65" transform="translate(66.699219 0)"/>
      <use xlink:href="#TimesNewRomanPSMT-73" transform="translate(111.083984 0)"/>
      <use xlink:href="#TimesNewRomanPSMT-74" transform="translate(150 0)"/>
      <use xlink:href="#TimesNewRomanPSMT-20" transform="translate(177.783203 0)"/>
      <use xlink:href="#TimesNewRomanPSMT-61" transform="translate(202.783203 0)"/>
      <use xlink:href="#TimesNewRomanPSMT-63" transform="translate(247.167969 0)"/>
      <use xlink:href="#TimesNewRomanPSMT-63" transform="translate(291.552734 0)"/>
      <use xlink:href="#TimesNewRomanPSMT-75" transform="translate(335.9375 0)"/>
      <use xlink:href="#TimesNewRomanPSMT-72" transform="translate(385.9375 0)"/>
      <use xlink:href="#TimesNewRomanPSMT-61" transform="translate(419.238281 0)"/>
      <use xlink:href="#TimesNewRomanPSMT-63" transform="translate(463.623047 0)"/>
      <use xlink:href="#TimesNewRomanPSMT-79" transform="translate(508.007812 0)"/>
      <use xlink:href="#TimesNewRomanPSMT-20" transform="translate(558.007812 0)"/>
      <use xlink:href="#TimesNewRomanPSMT-30" transform="translate(583.007812 0)"/>
      <use xlink:href="#TimesNewRomanPSMT-2e" transform="translate(633.007812 0)"/>
      <use xlink:href="#TimesNewRomanPSMT-36" transform="translate(658.007812 0)"/>
      <use xlink:href="#TimesNewRomanPSMT-36" transform="translate(708.007812 0)"/>
     </g>
    </g>
   </g>
  </g>
 </g>
 <defs>
  <clipPath id="pae454d795b">
   <rect x="328.024875" y="45.5315" width="357.12" height="266.112"/>
  </clipPath>
 </defs>
</svg>
