<?xml version="1.0" encoding="utf-8" standalone="no"?>
<!DOCTYPE svg PUBLIC "-//W3C//DTD SVG 1.1//EN"
  "http://www.w3.org/Graphics/SVG/1.1/DTD/svg11.dtd">
<svg xmlns:xlink="http://www.w3.org/1999/xlink" width="814.365375pt" height="369.807875pt" viewBox="0 0 814.365375 369.807875" xmlns="http://www.w3.org/2000/svg" version="1.1">
 <metadata>
  <rdf:RDF xmlns:dc="http://purl.org/dc/elements/1.1/" xmlns:cc="http://creativecommons.org/ns#" xmlns:rdf="http://www.w3.org/1999/02/22-rdf-syntax-ns#">
   <cc:Work>
    <dc:type rdf:resource="http://purl.org/dc/dcmitype/StillImage"/>
    <dc:date>2025-05-09T10:23:11.016352</dc:date>
    <dc:format>image/svg+xml</dc:format>
    <dc:creator>
     <cc:Agent>
      <dc:title>Matplotlib v3.10.1, https://matplotlib.org/</dc:title>
     </cc:Agent>
    </dc:creator>
   </cc:Work>
  </rdf:RDF>
 </metadata>
 <defs>
  <style type="text/css">*{stroke-linejoin: round; stroke-linecap: butt}</style>
 </defs>
 <g id="figure_1">
  <g id="patch_1">
   <path d="M -0 369.807875 
L 814.365375 369.807875 
L 814.365375 0 
L -0 0 
z
" style="fill: #ffffff"/>
  </g>
  <g id="axes_1">
   <g id="patch_2">
    <path d="M 228.622687 311.6435 
L 585.742688 311.6435 
L 585.742688 45.5315 
L 228.622687 45.5315 
z
" style="fill: #ffffff"/>
   </g>
   <g id="matplotlib.axis_1">
    <g id="xtick_1">
     <g id="line2d_1">
      <path d="M 228.622687 311.6435 
L 228.622687 45.5315 
" clip-path="url(#pb2e9d5ad52)" style="fill: none; stroke: #b0b0b0; stroke-opacity: 0.3; stroke-width: 0.8; stroke-linecap: square"/>
     </g>
     <g id="line2d_2">
      <defs>
       <path id="mb079dfd73f" d="M 0 0 
L 0 3.5 
" style="stroke: #000000; stroke-width: 0.8"/>
      </defs>
      <g>
       <use xlink:href="#mb079dfd73f" x="228.622687" y="311.6435" style="stroke: #000000; stroke-width: 0.8"/>
      </g>
     </g>
     <g id="text_1">
      <!-- 0 -->
      <g transform="translate(223.122687 333.91975) scale(0.22 -0.22)">
       <defs>
        <path id="TimesNewRomanPSMT-30" d="M 231 2094 
Q 231 2819 450 3342 
Q 669 3866 1031 4122 
Q 1313 4325 1613 4325 
Q 2100 4325 2488 3828 
Q 2972 3213 2972 2159 
Q 2972 1422 2759 906 
Q 2547 391 2217 158 
Q 1888 -75 1581 -75 
Q 975 -75 572 641 
Q 231 1244 231 2094 
z
M 844 2016 
Q 844 1141 1059 588 
Q 1238 122 1591 122 
Q 1759 122 1940 273 
Q 2122 425 2216 781 
Q 2359 1319 2359 2297 
Q 2359 3022 2209 3506 
Q 2097 3866 1919 4016 
Q 1791 4119 1609 4119 
Q 1397 4119 1231 3928 
Q 1006 3669 925 3112 
Q 844 2556 844 2016 
z
" transform="scale(0.015625)"/>
       </defs>
       <use xlink:href="#TimesNewRomanPSMT-30"/>
      </g>
     </g>
    </g>
    <g id="xtick_2">
     <g id="line2d_3">
      <path d="M 351.767515 311.6435 
L 351.767515 45.5315 
" clip-path="url(#pb2e9d5ad52)" style="fill: none; stroke: #b0b0b0; stroke-opacity: 0.3; stroke-width: 0.8; stroke-linecap: square"/>
     </g>
     <g id="line2d_4">
      <g>
       <use xlink:href="#mb079dfd73f" x="351.767515" y="311.6435" style="stroke: #000000; stroke-width: 0.8"/>
      </g>
     </g>
     <g id="text_2">
      <!-- 5000 -->
      <g transform="translate(329.767515 333.91975) scale(0.22 -0.22)">
       <defs>
        <path id="TimesNewRomanPSMT-35" d="M 2778 4238 
L 2534 3706 
L 1259 3706 
L 981 3138 
Q 1809 3016 2294 2522 
Q 2709 2097 2709 1522 
Q 2709 1188 2573 903 
Q 2438 619 2231 419 
Q 2025 219 1772 97 
Q 1413 -75 1034 -75 
Q 653 -75 479 54 
Q 306 184 306 341 
Q 306 428 378 495 
Q 450 563 559 563 
Q 641 563 702 538 
Q 763 513 909 409 
Q 1144 247 1384 247 
Q 1750 247 2026 523 
Q 2303 800 2303 1197 
Q 2303 1581 2056 1914 
Q 1809 2247 1375 2428 
Q 1034 2569 447 2591 
L 1259 4238 
L 2778 4238 
z
" transform="scale(0.015625)"/>
       </defs>
       <use xlink:href="#TimesNewRomanPSMT-35"/>
       <use xlink:href="#TimesNewRomanPSMT-30" transform="translate(50 0)"/>
       <use xlink:href="#TimesNewRomanPSMT-30" transform="translate(100 0)"/>
       <use xlink:href="#TimesNewRomanPSMT-30" transform="translate(150 0)"/>
      </g>
     </g>
    </g>
    <g id="xtick_3">
     <g id="line2d_5">
      <path d="M 474.912343 311.6435 
L 474.912343 45.5315 
" clip-path="url(#pb2e9d5ad52)" style="fill: none; stroke: #b0b0b0; stroke-opacity: 0.3; stroke-width: 0.8; stroke-linecap: square"/>
     </g>
     <g id="line2d_6">
      <g>
       <use xlink:href="#mb079dfd73f" x="474.912343" y="311.6435" style="stroke: #000000; stroke-width: 0.8"/>
      </g>
     </g>
     <g id="text_3">
      <!-- 10000 -->
      <g transform="translate(447.412343 333.91975) scale(0.22 -0.22)">
       <defs>
        <path id="TimesNewRomanPSMT-31" d="M 750 3822 
L 1781 4325 
L 1884 4325 
L 1884 747 
Q 1884 391 1914 303 
Q 1944 216 2037 169 
Q 2131 122 2419 116 
L 2419 0 
L 825 0 
L 825 116 
Q 1125 122 1212 167 
Q 1300 213 1334 289 
Q 1369 366 1369 747 
L 1369 3034 
Q 1369 3497 1338 3628 
Q 1316 3728 1258 3775 
Q 1200 3822 1119 3822 
Q 1003 3822 797 3725 
L 750 3822 
z
" transform="scale(0.015625)"/>
       </defs>
       <use xlink:href="#TimesNewRomanPSMT-31"/>
       <use xlink:href="#TimesNewRomanPSMT-30" transform="translate(50 0)"/>
       <use xlink:href="#TimesNewRomanPSMT-30" transform="translate(100 0)"/>
       <use xlink:href="#TimesNewRomanPSMT-30" transform="translate(150 0)"/>
       <use xlink:href="#TimesNewRomanPSMT-30" transform="translate(200 0)"/>
      </g>
     </g>
    </g>
    <g id="text_4">
     <!-- Number of iterations -->
     <g transform="translate(315.540656 357.901937) scale(0.22 -0.22)">
      <defs>
       <path id="TimesNewRomanPSMT-4e" d="M -84 4238 
L 1066 4238 
L 3656 1059 
L 3656 3503 
Q 3656 3894 3569 3991 
Q 3453 4122 3203 4122 
L 3056 4122 
L 3056 4238 
L 4531 4238 
L 4531 4122 
L 4381 4122 
Q 4113 4122 4000 3959 
Q 3931 3859 3931 3503 
L 3931 -69 
L 3819 -69 
L 1025 3344 
L 1025 734 
Q 1025 344 1109 247 
Q 1228 116 1475 116 
L 1625 116 
L 1625 0 
L 150 0 
L 150 116 
L 297 116 
Q 569 116 681 278 
Q 750 378 750 734 
L 750 3681 
Q 566 3897 470 3965 
Q 375 4034 191 4094 
Q 100 4122 -84 4122 
L -84 4238 
z
" transform="scale(0.015625)"/>
       <path id="TimesNewRomanPSMT-75" d="M 2709 2863 
L 2709 1128 
Q 2709 631 2732 520 
Q 2756 409 2807 365 
Q 2859 322 2928 322 
Q 3025 322 3147 375 
L 3191 266 
L 2334 -88 
L 2194 -88 
L 2194 519 
Q 1825 119 1631 15 
Q 1438 -88 1222 -88 
Q 981 -88 804 51 
Q 628 191 559 409 
Q 491 628 491 1028 
L 491 2306 
Q 491 2509 447 2587 
Q 403 2666 317 2708 
Q 231 2750 6 2747 
L 6 2863 
L 1009 2863 
L 1009 947 
Q 1009 547 1148 422 
Q 1288 297 1484 297 
Q 1619 297 1789 381 
Q 1959 466 2194 703 
L 2194 2325 
Q 2194 2569 2105 2655 
Q 2016 2741 1734 2747 
L 1734 2863 
L 2709 2863 
z
" transform="scale(0.015625)"/>
       <path id="TimesNewRomanPSMT-6d" d="M 1050 2338 
Q 1363 2650 1419 2697 
Q 1559 2816 1721 2881 
Q 1884 2947 2044 2947 
Q 2313 2947 2506 2790 
Q 2700 2634 2766 2338 
Q 3088 2713 3309 2830 
Q 3531 2947 3766 2947 
Q 3994 2947 4170 2830 
Q 4347 2713 4450 2447 
Q 4519 2266 4519 1878 
L 4519 647 
Q 4519 378 4559 278 
Q 4591 209 4675 161 
Q 4759 113 4950 113 
L 4950 0 
L 3538 0 
L 3538 113 
L 3597 113 
Q 3781 113 3884 184 
Q 3956 234 3988 344 
Q 4000 397 4000 647 
L 4000 1878 
Q 4000 2228 3916 2372 
Q 3794 2572 3525 2572 
Q 3359 2572 3192 2489 
Q 3025 2406 2788 2181 
L 2781 2147 
L 2788 2013 
L 2788 647 
Q 2788 353 2820 281 
Q 2853 209 2943 161 
Q 3034 113 3253 113 
L 3253 0 
L 1806 0 
L 1806 113 
Q 2044 113 2133 169 
Q 2222 225 2256 338 
Q 2272 391 2272 647 
L 2272 1878 
Q 2272 2228 2169 2381 
Q 2031 2581 1784 2581 
Q 1616 2581 1450 2491 
Q 1191 2353 1050 2181 
L 1050 647 
Q 1050 366 1089 281 
Q 1128 197 1204 155 
Q 1281 113 1516 113 
L 1516 0 
L 100 0 
L 100 113 
Q 297 113 375 155 
Q 453 197 493 289 
Q 534 381 534 647 
L 534 1741 
Q 534 2213 506 2350 
Q 484 2453 437 2492 
Q 391 2531 309 2531 
Q 222 2531 100 2484 
L 53 2597 
L 916 2947 
L 1050 2947 
L 1050 2338 
z
" transform="scale(0.015625)"/>
       <path id="TimesNewRomanPSMT-62" d="M 984 2369 
Q 1400 2947 1881 2947 
Q 2322 2947 2650 2570 
Q 2978 2194 2978 1541 
Q 2978 778 2472 313 
Q 2038 -88 1503 -88 
Q 1253 -88 995 3 
Q 738 94 469 275 
L 469 3241 
Q 469 3728 445 3840 
Q 422 3953 372 3993 
Q 322 4034 247 4034 
Q 159 4034 28 3984 
L -16 4094 
L 844 4444 
L 984 4444 
L 984 2369 
z
M 984 2169 
L 984 456 
Q 1144 300 1314 220 
Q 1484 141 1663 141 
Q 1947 141 2192 453 
Q 2438 766 2438 1363 
Q 2438 1913 2192 2208 
Q 1947 2503 1634 2503 
Q 1469 2503 1303 2419 
Q 1178 2356 984 2169 
z
" transform="scale(0.015625)"/>
       <path id="TimesNewRomanPSMT-65" d="M 681 1784 
Q 678 1147 991 784 
Q 1303 422 1725 422 
Q 2006 422 2214 576 
Q 2422 731 2563 1106 
L 2659 1044 
Q 2594 616 2278 264 
Q 1963 -88 1488 -88 
Q 972 -88 605 314 
Q 238 716 238 1394 
Q 238 2128 614 2539 
Q 991 2950 1559 2950 
Q 2041 2950 2350 2633 
Q 2659 2316 2659 1784 
L 681 1784 
z
M 681 1966 
L 2006 1966 
Q 1991 2241 1941 2353 
Q 1863 2528 1708 2628 
Q 1553 2728 1384 2728 
Q 1125 2728 920 2526 
Q 716 2325 681 1966 
z
" transform="scale(0.015625)"/>
       <path id="TimesNewRomanPSMT-72" d="M 1038 2947 
L 1038 2303 
Q 1397 2947 1775 2947 
Q 1947 2947 2059 2842 
Q 2172 2738 2172 2600 
Q 2172 2478 2090 2393 
Q 2009 2309 1897 2309 
Q 1788 2309 1652 2417 
Q 1516 2525 1450 2525 
Q 1394 2525 1328 2463 
Q 1188 2334 1038 2041 
L 1038 669 
Q 1038 431 1097 309 
Q 1138 225 1241 169 
Q 1344 113 1538 113 
L 1538 0 
L 72 0 
L 72 113 
Q 291 113 397 181 
Q 475 231 506 341 
Q 522 394 522 644 
L 522 1753 
Q 522 2253 501 2348 
Q 481 2444 426 2487 
Q 372 2531 291 2531 
Q 194 2531 72 2484 
L 41 2597 
L 906 2947 
L 1038 2947 
z
" transform="scale(0.015625)"/>
       <path id="TimesNewRomanPSMT-20" transform="scale(0.015625)"/>
       <path id="TimesNewRomanPSMT-6f" d="M 1600 2947 
Q 2250 2947 2644 2453 
Q 2978 2031 2978 1484 
Q 2978 1100 2793 706 
Q 2609 313 2286 112 
Q 1963 -88 1566 -88 
Q 919 -88 538 428 
Q 216 863 216 1403 
Q 216 1797 411 2186 
Q 606 2575 925 2761 
Q 1244 2947 1600 2947 
z
M 1503 2744 
Q 1338 2744 1170 2645 
Q 1003 2547 900 2300 
Q 797 2053 797 1666 
Q 797 1041 1045 587 
Q 1294 134 1700 134 
Q 2003 134 2200 384 
Q 2397 634 2397 1244 
Q 2397 2006 2069 2444 
Q 1847 2744 1503 2744 
z
" transform="scale(0.015625)"/>
       <path id="TimesNewRomanPSMT-66" d="M 1319 2638 
L 1319 756 
Q 1319 356 1406 250 
Q 1522 113 1716 113 
L 1975 113 
L 1975 0 
L 266 0 
L 266 113 
L 394 113 
Q 519 113 622 175 
Q 725 238 764 344 
Q 803 450 803 756 
L 803 2638 
L 247 2638 
L 247 2863 
L 803 2863 
L 803 3050 
Q 803 3478 940 3775 
Q 1078 4072 1361 4255 
Q 1644 4438 1997 4438 
Q 2325 4438 2600 4225 
Q 2781 4084 2781 3909 
Q 2781 3816 2700 3733 
Q 2619 3650 2525 3650 
Q 2453 3650 2373 3701 
Q 2294 3753 2178 3923 
Q 2063 4094 1966 4153 
Q 1869 4213 1750 4213 
Q 1606 4213 1506 4136 
Q 1406 4059 1362 3898 
Q 1319 3738 1319 3069 
L 1319 2863 
L 2056 2863 
L 2056 2638 
L 1319 2638 
z
" transform="scale(0.015625)"/>
       <path id="TimesNewRomanPSMT-69" d="M 928 4444 
Q 1059 4444 1151 4351 
Q 1244 4259 1244 4128 
Q 1244 3997 1151 3903 
Q 1059 3809 928 3809 
Q 797 3809 703 3903 
Q 609 3997 609 4128 
Q 609 4259 701 4351 
Q 794 4444 928 4444 
z
M 1188 2947 
L 1188 647 
Q 1188 378 1227 289 
Q 1266 200 1342 156 
Q 1419 113 1622 113 
L 1622 0 
L 231 0 
L 231 113 
Q 441 113 512 153 
Q 584 194 626 287 
Q 669 381 669 647 
L 669 1750 
Q 669 2216 641 2353 
Q 619 2453 572 2492 
Q 525 2531 444 2531 
Q 356 2531 231 2484 
L 188 2597 
L 1050 2947 
L 1188 2947 
z
" transform="scale(0.015625)"/>
       <path id="TimesNewRomanPSMT-74" d="M 1031 3803 
L 1031 2863 
L 1700 2863 
L 1700 2644 
L 1031 2644 
L 1031 788 
Q 1031 509 1111 412 
Q 1191 316 1316 316 
Q 1419 316 1516 380 
Q 1613 444 1666 569 
L 1788 569 
Q 1678 263 1478 108 
Q 1278 -47 1066 -47 
Q 922 -47 784 33 
Q 647 113 581 261 
Q 516 409 516 719 
L 516 2644 
L 63 2644 
L 63 2747 
Q 234 2816 414 2980 
Q 594 3144 734 3369 
Q 806 3488 934 3803 
L 1031 3803 
z
" transform="scale(0.015625)"/>
       <path id="TimesNewRomanPSMT-61" d="M 1822 413 
Q 1381 72 1269 19 
Q 1100 -59 909 -59 
Q 613 -59 420 144 
Q 228 347 228 678 
Q 228 888 322 1041 
Q 450 1253 767 1440 
Q 1084 1628 1822 1897 
L 1822 2009 
Q 1822 2438 1686 2597 
Q 1550 2756 1291 2756 
Q 1094 2756 978 2650 
Q 859 2544 859 2406 
L 866 2225 
Q 866 2081 792 2003 
Q 719 1925 600 1925 
Q 484 1925 411 2006 
Q 338 2088 338 2228 
Q 338 2497 613 2722 
Q 888 2947 1384 2947 
Q 1766 2947 2009 2819 
Q 2194 2722 2281 2516 
Q 2338 2381 2338 1966 
L 2338 994 
Q 2338 584 2353 492 
Q 2369 400 2405 369 
Q 2441 338 2488 338 
Q 2538 338 2575 359 
Q 2641 400 2828 588 
L 2828 413 
Q 2478 -56 2159 -56 
Q 2006 -56 1915 50 
Q 1825 156 1822 413 
z
M 1822 616 
L 1822 1706 
Q 1350 1519 1213 1441 
Q 966 1303 859 1153 
Q 753 1003 753 825 
Q 753 600 887 451 
Q 1022 303 1197 303 
Q 1434 303 1822 616 
z
" transform="scale(0.015625)"/>
       <path id="TimesNewRomanPSMT-6e" d="M 1034 2341 
Q 1538 2947 1994 2947 
Q 2228 2947 2397 2830 
Q 2566 2713 2666 2444 
Q 2734 2256 2734 1869 
L 2734 647 
Q 2734 375 2778 278 
Q 2813 200 2889 156 
Q 2966 113 3172 113 
L 3172 0 
L 1756 0 
L 1756 113 
L 1816 113 
Q 2016 113 2095 173 
Q 2175 234 2206 353 
Q 2219 400 2219 647 
L 2219 1819 
Q 2219 2209 2117 2386 
Q 2016 2563 1775 2563 
Q 1403 2563 1034 2156 
L 1034 647 
Q 1034 356 1069 288 
Q 1113 197 1189 155 
Q 1266 113 1500 113 
L 1500 0 
L 84 0 
L 84 113 
L 147 113 
Q 366 113 442 223 
Q 519 334 519 647 
L 519 1709 
Q 519 2225 495 2337 
Q 472 2450 423 2490 
Q 375 2531 294 2531 
Q 206 2531 84 2484 
L 38 2597 
L 900 2947 
L 1034 2947 
L 1034 2341 
z
" transform="scale(0.015625)"/>
       <path id="TimesNewRomanPSMT-73" d="M 2050 2947 
L 2050 1972 
L 1947 1972 
Q 1828 2431 1642 2597 
Q 1456 2763 1169 2763 
Q 950 2763 815 2647 
Q 681 2531 681 2391 
Q 681 2216 781 2091 
Q 878 1963 1175 1819 
L 1631 1597 
Q 2266 1288 2266 781 
Q 2266 391 1970 151 
Q 1675 -88 1309 -88 
Q 1047 -88 709 6 
Q 606 38 541 38 
Q 469 38 428 -44 
L 325 -44 
L 325 978 
L 428 978 
Q 516 541 762 319 
Q 1009 97 1316 97 
Q 1531 97 1667 223 
Q 1803 350 1803 528 
Q 1803 744 1651 891 
Q 1500 1038 1047 1263 
Q 594 1488 453 1669 
Q 313 1847 313 2119 
Q 313 2472 555 2709 
Q 797 2947 1181 2947 
Q 1350 2947 1591 2875 
Q 1750 2828 1803 2828 
Q 1853 2828 1881 2850 
Q 1909 2872 1947 2947 
L 2050 2947 
z
" transform="scale(0.015625)"/>
      </defs>
      <use xlink:href="#TimesNewRomanPSMT-4e"/>
      <use xlink:href="#TimesNewRomanPSMT-75" transform="translate(72.216797 0)"/>
      <use xlink:href="#TimesNewRomanPSMT-6d" transform="translate(122.216797 0)"/>
      <use xlink:href="#TimesNewRomanPSMT-62" transform="translate(200 0)"/>
      <use xlink:href="#TimesNewRomanPSMT-65" transform="translate(250 0)"/>
      <use xlink:href="#TimesNewRomanPSMT-72" transform="translate(294.384766 0)"/>
      <use xlink:href="#TimesNewRomanPSMT-20" transform="translate(327.685547 0)"/>
      <use xlink:href="#TimesNewRomanPSMT-6f" transform="translate(352.685547 0)"/>
      <use xlink:href="#TimesNewRomanPSMT-66" transform="translate(402.685547 0)"/>
      <use xlink:href="#TimesNewRomanPSMT-20" transform="translate(435.986328 0)"/>
      <use xlink:href="#TimesNewRomanPSMT-69" transform="translate(460.986328 0)"/>
      <use xlink:href="#TimesNewRomanPSMT-74" transform="translate(488.769531 0)"/>
      <use xlink:href="#TimesNewRomanPSMT-65" transform="translate(516.552734 0)"/>
      <use xlink:href="#TimesNewRomanPSMT-72" transform="translate(560.9375 0)"/>
      <use xlink:href="#TimesNewRomanPSMT-61" transform="translate(594.238281 0)"/>
      <use xlink:href="#TimesNewRomanPSMT-74" transform="translate(638.623047 0)"/>
      <use xlink:href="#TimesNewRomanPSMT-69" transform="translate(666.40625 0)"/>
      <use xlink:href="#TimesNewRomanPSMT-6f" transform="translate(694.189453 0)"/>
      <use xlink:href="#TimesNewRomanPSMT-6e" transform="translate(744.189453 0)"/>
      <use xlink:href="#TimesNewRomanPSMT-73" transform="translate(794.189453 0)"/>
     </g>
    </g>
   </g>
   <g id="matplotlib.axis_2">
    <g id="ytick_1">
     <g id="line2d_7">
      <path d="M 228.622687 311.6435 
L 585.742688 311.6435 
" clip-path="url(#pb2e9d5ad52)" style="fill: none; stroke: #b0b0b0; stroke-opacity: 0.3; stroke-width: 0.8; stroke-linecap: square"/>
     </g>
     <g id="line2d_8">
      <defs>
       <path id="m2c3390eaa4" d="M 0 0 
L -3.5 0 
" style="stroke: #000000; stroke-width: 0.8"/>
      </defs>
      <g>
       <use xlink:href="#m2c3390eaa4" x="228.622687" y="311.6435" style="stroke: #000000; stroke-width: 0.8"/>
      </g>
     </g>
     <g id="text_5">
      <!-- 0.00 -->
      <g transform="translate(183.122687 319.281625) scale(0.22 -0.22)">
       <defs>
        <path id="TimesNewRomanPSMT-2e" d="M 800 606 
Q 947 606 1047 504 
Q 1147 403 1147 259 
Q 1147 116 1045 14 
Q 944 -88 800 -88 
Q 656 -88 554 14 
Q 453 116 453 259 
Q 453 406 554 506 
Q 656 606 800 606 
z
" transform="scale(0.015625)"/>
       </defs>
       <use xlink:href="#TimesNewRomanPSMT-30"/>
       <use xlink:href="#TimesNewRomanPSMT-2e" transform="translate(50 0)"/>
       <use xlink:href="#TimesNewRomanPSMT-30" transform="translate(75 0)"/>
       <use xlink:href="#TimesNewRomanPSMT-30" transform="translate(125 0)"/>
      </g>
     </g>
    </g>
    <g id="ytick_2">
     <g id="line2d_9">
      <path d="M 228.622687 229.390548 
L 585.742688 229.390548 
" clip-path="url(#pb2e9d5ad52)" style="fill: none; stroke: #b0b0b0; stroke-opacity: 0.3; stroke-width: 0.8; stroke-linecap: square"/>
     </g>
     <g id="line2d_10">
      <g>
       <use xlink:href="#m2c3390eaa4" x="228.622687" y="229.390548" style="stroke: #000000; stroke-width: 0.8"/>
      </g>
     </g>
     <g id="text_6">
      <!-- 0.05 -->
      <g transform="translate(183.122687 237.028673) scale(0.22 -0.22)">
       <use xlink:href="#TimesNewRomanPSMT-30"/>
       <use xlink:href="#TimesNewRomanPSMT-2e" transform="translate(50 0)"/>
       <use xlink:href="#TimesNewRomanPSMT-30" transform="translate(75 0)"/>
       <use xlink:href="#TimesNewRomanPSMT-35" transform="translate(125 0)"/>
      </g>
     </g>
    </g>
    <g id="ytick_3">
     <g id="line2d_11">
      <path d="M 228.622687 147.137597 
L 585.742688 147.137597 
" clip-path="url(#pb2e9d5ad52)" style="fill: none; stroke: #b0b0b0; stroke-opacity: 0.3; stroke-width: 0.8; stroke-linecap: square"/>
     </g>
     <g id="line2d_12">
      <g>
       <use xlink:href="#m2c3390eaa4" x="228.622687" y="147.137597" style="stroke: #000000; stroke-width: 0.8"/>
      </g>
     </g>
     <g id="text_7">
      <!-- 0.10 -->
      <g transform="translate(183.122687 154.775722) scale(0.22 -0.22)">
       <use xlink:href="#TimesNewRomanPSMT-30"/>
       <use xlink:href="#TimesNewRomanPSMT-2e" transform="translate(50 0)"/>
       <use xlink:href="#TimesNewRomanPSMT-31" transform="translate(75 0)"/>
       <use xlink:href="#TimesNewRomanPSMT-30" transform="translate(125 0)"/>
      </g>
     </g>
    </g>
    <g id="ytick_4">
     <g id="line2d_13">
      <path d="M 228.622687 64.884645 
L 585.742688 64.884645 
" clip-path="url(#pb2e9d5ad52)" style="fill: none; stroke: #b0b0b0; stroke-opacity: 0.3; stroke-width: 0.8; stroke-linecap: square"/>
     </g>
     <g id="line2d_14">
      <g>
       <use xlink:href="#m2c3390eaa4" x="228.622687" y="64.884645" style="stroke: #000000; stroke-width: 0.8"/>
      </g>
     </g>
     <g id="text_8">
      <!-- 0.15 -->
      <g transform="translate(183.122687 72.52277) scale(0.22 -0.22)">
       <use xlink:href="#TimesNewRomanPSMT-30"/>
       <use xlink:href="#TimesNewRomanPSMT-2e" transform="translate(50 0)"/>
       <use xlink:href="#TimesNewRomanPSMT-31" transform="translate(75 0)"/>
       <use xlink:href="#TimesNewRomanPSMT-35" transform="translate(125 0)"/>
      </g>
     </g>
    </g>
    <g id="text_9">
     <!-- Loss -->
     <g transform="translate(174.41675 199.368906) rotate(-90) scale(0.22 -0.22)">
      <defs>
       <path id="TimesNewRomanPSMT-4c" d="M 3669 1172 
L 3772 1150 
L 3409 0 
L 128 0 
L 128 116 
L 288 116 
Q 556 116 672 291 
Q 738 391 738 753 
L 738 3488 
Q 738 3884 650 3984 
Q 528 4122 288 4122 
L 128 4122 
L 128 4238 
L 2047 4238 
L 2047 4122 
Q 1709 4125 1573 4059 
Q 1438 3994 1388 3894 
Q 1338 3794 1338 3416 
L 1338 753 
Q 1338 494 1388 397 
Q 1425 331 1503 300 
Q 1581 269 1991 269 
L 2300 269 
Q 2788 269 2984 341 
Q 3181 413 3343 595 
Q 3506 778 3669 1172 
z
" transform="scale(0.015625)"/>
      </defs>
      <use xlink:href="#TimesNewRomanPSMT-4c"/>
      <use xlink:href="#TimesNewRomanPSMT-6f" transform="translate(61.083984 0)"/>
      <use xlink:href="#TimesNewRomanPSMT-73" transform="translate(111.083984 0)"/>
      <use xlink:href="#TimesNewRomanPSMT-73" transform="translate(150 0)"/>
     </g>
    </g>
   </g>
   <g id="line2d_15">
    <path d="M 228.622687 106.40858 
L 228.869147 141.078044 
L 229.115607 101.857981 
L 229.362066 144.436867 
L 229.608526 165.334165 
L 229.854986 162.554578 
L 230.101445 170.1001 
L 230.594365 174.190106 
L 231.087284 190.07305 
L 231.333743 182.138454 
L 231.580203 192.693484 
L 231.826663 188.576477 
L 232.073122 201.365526 
L 232.319582 185.930746 
L 232.566042 194.853154 
L 232.812501 183.358713 
L 233.058961 197.886036 
L 233.30542 198.798875 
L 233.79834 195.253383 
L 234.044799 183.380113 
L 234.291259 196.060311 
L 234.537719 200.018778 
L 234.784178 198.015185 
L 235.030638 205.611265 
L 235.277097 194.158656 
L 235.523557 192.74848 
L 235.770017 209.350639 
L 236.016476 200.256594 
L 236.262936 207.478491 
L 236.509396 207.610998 
L 236.755855 208.416872 
L 237.002315 207.137499 
L 237.248774 208.91581 
L 237.495234 206.505596 
L 237.741694 210.826725 
L 237.988153 198.373569 
L 238.234613 219.387746 
L 238.727532 210.66691 
L 238.973992 221.672875 
L 239.220451 209.193729 
L 239.466911 214.159435 
L 239.713371 216.30357 
L 239.95983 214.942279 
L 240.20629 217.920307 
L 240.45275 212.891792 
L 240.699209 212.097604 
L 240.945669 214.00247 
L 241.192128 218.09486 
L 241.438588 203.914308 
L 241.685048 220.713584 
L 241.931507 216.028359 
L 242.177967 207.879835 
L 242.424427 222.012574 
L 242.670886 216.255113 
L 242.917346 216.304311 
L 243.163806 215.517502 
L 243.410265 210.764976 
L 243.656725 222.603167 
L 243.903184 211.912811 
L 244.149644 220.151298 
L 244.396104 205.305915 
L 244.642563 219.728119 
L 244.889023 215.149827 
L 245.135483 217.353082 
L 245.381942 211.035933 
L 245.628402 222.052457 
L 245.874861 203.373765 
L 246.121321 224.93935 
L 246.367781 216.038066 
L 246.61424 222.456191 
L 246.8607 221.833333 
L 247.10716 219.487503 
L 247.353619 213.190462 
L 247.600079 216.007566 
L 247.846538 229.566975 
L 248.092998 212.079427 
L 248.339458 222.114243 
L 248.832377 217.737897 
L 249.078837 220.740622 
L 249.325296 213.05904 
L 249.571756 232.008922 
L 249.818215 223.097716 
L 250.064675 223.678932 
L 250.311135 221.817467 
L 250.557594 217.623819 
L 250.804054 219.82836 
L 251.050514 213.085845 
L 251.296973 231.844027 
L 251.543433 218.350043 
L 251.789892 223.431072 
L 252.036352 217.243011 
L 252.282812 221.477492 
L 252.529271 228.465832 
L 252.775731 224.416525 
L 253.022191 228.490744 
L 253.26865 197.445864 
L 253.51511 223.33832 
L 254.254489 225.916806 
L 254.500948 220.686276 
L 254.747408 209.529291 
L 254.993868 218.207499 
L 255.240327 232.578543 
L 255.486787 211.035247 
L 255.733247 220.50592 
L 255.979706 220.331557 
L 256.226166 224.766219 
L 256.472625 232.485895 
L 256.719085 218.712203 
L 256.965545 227.816457 
L 257.212004 231.264233 
L 257.458464 226.081639 
L 257.704924 225.850687 
L 257.951383 221.292943 
L 258.197843 223.374508 
L 258.444302 223.524253 
L 258.690762 223.52323 
L 258.937222 210.030496 
L 259.183681 226.597932 
L 259.430141 223.007844 
L 259.676601 224.177557 
L 259.92306 230.639107 
L 260.16952 200.120165 
L 260.415979 226.587869 
L 260.662439 220.588376 
L 260.908899 227.021338 
L 261.155358 220.478551 
L 261.401818 235.350586 
L 261.894737 213.04147 
L 262.141197 223.831197 
L 262.387656 226.535742 
L 262.634116 219.923478 
L 262.880576 226.560028 
L 263.127035 227.611783 
L 263.373495 226.844327 
L 263.619955 227.827083 
L 263.866414 223.115752 
L 264.112874 233.278588 
L 264.359333 226.697168 
L 264.605793 223.85631 
L 264.852253 226.093994 
L 265.098712 223.434725 
L 265.345172 223.581412 
L 265.591632 224.597157 
L 265.838091 223.524388 
L 266.084551 223.874996 
L 266.33101 225.946381 
L 266.57747 222.48432 
L 266.82393 224.05781 
L 267.070389 231.465475 
L 267.316849 229.934221 
L 267.563309 219.986495 
L 267.809768 222.242993 
L 268.056228 230.107175 
L 268.302687 227.224927 
L 268.549147 231.271133 
L 268.795607 228.373172 
L 269.042066 236.193022 
L 269.288526 225.078911 
L 269.781445 230.556436 
L 270.027905 229.517593 
L 270.274365 231.395655 
L 270.520824 227.42813 
L 270.767284 220.443068 
L 271.013743 230.1972 
L 271.260203 219.581156 
L 271.506663 232.187563 
L 271.753122 231.418912 
L 271.999582 227.536295 
L 272.246042 216.278321 
L 272.492501 217.118912 
L 272.738961 231.694374 
L 272.98542 237.60112 
L 273.23188 191.912638 
L 273.47834 228.007097 
L 273.724799 234.411727 
L 273.971259 232.557468 
L 274.217719 226.859097 
L 274.464178 226.052824 
L 274.710638 228.261545 
L 274.957097 220.051364 
L 275.203557 231.426284 
L 275.450017 229.166465 
L 275.696476 230.133668 
L 276.189396 216.538162 
L 276.435855 238.11343 
L 276.682315 200.262195 
L 276.928774 232.617936 
L 277.175234 234.181253 
L 277.421694 215.913337 
L 277.668153 234.654746 
L 277.914613 210.75829 
L 278.161073 231.011795 
L 278.653992 237.112957 
L 278.900451 231.881367 
L 279.393371 226.375915 
L 279.63983 227.010662 
L 279.88629 216.735237 
L 280.13275 232.833169 
L 280.379209 227.934501 
L 280.625669 219.305234 
L 280.872128 222.127829 
L 281.118588 222.425041 
L 281.611507 228.871049 
L 281.857967 232.027987 
L 282.104427 222.130599 
L 282.350886 228.236903 
L 282.597346 229.380043 
L 282.843806 224.784898 
L 283.090265 226.740452 
L 283.336725 230.53177 
L 283.583184 227.175943 
L 283.829644 227.291082 
L 284.076104 226.204855 
L 284.322563 216.747156 
L 284.569023 226.549671 
L 284.815483 227.201314 
L 285.308402 236.671883 
L 285.554861 231.371129 
L 285.801321 203.584359 
L 286.047781 235.160902 
L 286.29424 227.337326 
L 286.5407 229.889632 
L 286.78716 224.133881 
L 287.033619 241.603105 
L 287.280079 234.932481 
L 287.526538 232.087266 
L 287.772998 231.057224 
L 288.019458 232.228016 
L 288.265917 229.176166 
L 288.512377 219.245299 
L 288.758837 225.671238 
L 289.005296 226.627379 
L 289.251756 231.900904 
L 289.498215 222.357237 
L 289.744675 225.025864 
L 289.991135 233.91874 
L 290.237594 221.725113 
L 290.484054 238.381348 
L 290.730514 217.691635 
L 290.976973 237.961496 
L 291.223433 201.499393 
L 291.469892 231.179815 
L 291.716352 226.607946 
L 291.962812 227.775281 
L 292.209271 216.999202 
L 292.455731 227.794138 
L 292.702191 226.024995 
L 292.94865 222.936903 
L 293.19511 230.395751 
L 293.441569 210.255124 
L 293.688029 227.166003 
L 293.934489 232.206125 
L 294.180948 231.713794 
L 294.427408 206.791568 
L 294.920327 231.808219 
L 295.166787 228.748673 
L 295.413247 236.597038 
L 295.906166 214.462125 
L 296.152625 228.502112 
L 296.399085 223.74608 
L 296.645545 216.838817 
L 296.892004 234.689383 
L 297.138464 230.951627 
L 297.384924 232.455223 
L 297.631383 223.965156 
L 297.877843 225.632899 
L 298.124302 225.79468 
L 298.370762 234.253659 
L 298.617222 229.348629 
L 298.863681 207.638465 
L 299.110141 236.026338 
L 299.356601 224.615199 
L 299.60306 220.254616 
L 299.84952 231.424452 
L 300.095979 228.537448 
L 300.342439 211.655905 
L 300.588899 230.291447 
L 300.835358 231.020105 
L 301.081818 217.065847 
L 301.328278 233.991324 
L 301.574737 226.370718 
L 301.821197 234.194944 
L 302.314116 214.088849 
L 302.560576 228.093659 
L 302.807035 227.613812 
L 303.053495 237.780429 
L 303.299955 224.619434 
L 303.546414 234.563005 
L 303.792874 225.901938 
L 304.039333 230.199388 
L 304.285793 228.644332 
L 304.532253 234.959593 
L 304.778712 220.806042 
L 305.025172 220.974442 
L 305.271632 217.663769 
L 305.518091 224.729468 
L 305.764551 225.365526 
L 306.01101 224.420741 
L 306.25747 239.773451 
L 306.50393 215.318068 
L 306.750389 233.042531 
L 306.996849 228.842461 
L 307.243309 232.37371 
L 307.489768 214.319188 
L 307.736228 235.969087 
L 307.982687 217.656287 
L 308.229147 228.897946 
L 308.475607 218.097697 
L 308.722066 227.474386 
L 308.968526 227.23054 
L 309.214986 221.882004 
L 309.461445 231.90501 
L 309.707905 225.868839 
L 309.954365 230.220475 
L 310.200824 225.809517 
L 310.447284 200.946079 
L 310.693743 229.519855 
L 310.940203 235.63964 
L 311.186663 218.889538 
L 311.433122 227.62252 
L 311.679582 231.921667 
L 311.926042 219.141896 
L 312.172501 225.971072 
L 312.418961 227.896205 
L 312.66542 232.414347 
L 312.91188 232.527274 
L 313.15834 227.934053 
L 313.404799 216.143602 
L 313.897719 231.7733 
L 314.144178 229.651356 
L 314.390638 212.005612 
L 314.637097 204.251488 
L 314.883557 232.499948 
L 315.130017 230.443828 
L 315.376476 224.174088 
L 315.622936 233.370893 
L 315.869396 230.319258 
L 316.115855 232.696495 
L 316.362315 204.595275 
L 316.608774 228.57917 
L 316.855234 240.88391 
L 317.101694 210.579968 
L 317.348153 226.336191 
L 317.841073 216.249383 
L 318.333992 235.611328 
L 318.580451 217.929028 
L 319.073371 227.027331 
L 319.31983 227.817781 
L 319.81275 232.43063 
L 320.059209 213.307016 
L 320.305669 235.461521 
L 320.552128 224.151855 
L 320.798588 225.169015 
L 321.045048 227.255758 
L 321.291507 227.061331 
L 321.537967 221.861333 
L 322.030886 224.631788 
L 322.523806 235.995046 
L 322.770265 228.948965 
L 323.016725 211.154982 
L 323.263184 230.353313 
L 323.509644 230.87908 
L 323.756104 216.171731 
L 324.002563 211.765841 
L 324.249023 211.155154 
L 324.495483 226.532469 
L 324.741942 224.696988 
L 324.988402 210.468365 
L 325.234861 223.552652 
L 325.481321 229.851851 
L 325.727781 204.802915 
L 325.97424 230.323639 
L 326.2207 229.688488 
L 326.46716 218.973165 
L 326.713619 231.454977 
L 326.960079 223.181024 
L 327.206538 226.020871 
L 327.452998 220.374032 
L 327.699458 221.711385 
L 327.945917 214.626021 
L 328.192377 220.06807 
L 328.438837 234.590901 
L 328.685296 218.121304 
L 329.424675 227.728699 
L 329.671135 220.907644 
L 329.917594 209.42188 
L 330.164054 237.777788 
L 330.410514 213.092151 
L 330.903433 232.726873 
L 331.396352 218.679245 
L 331.642812 220.333358 
L 331.889271 212.759628 
L 332.135731 226.284199 
L 332.382191 223.808283 
L 332.62865 229.194006 
L 332.87511 214.212341 
L 333.121569 230.572866 
L 333.614489 216.734759 
L 333.860948 230.831898 
L 334.353868 220.055586 
L 334.600327 230.929203 
L 334.846787 224.52662 
L 335.093247 223.550765 
L 335.339706 214.012564 
L 335.832625 231.958369 
L 336.325545 220.071691 
L 336.572004 231.48465 
L 336.818464 216.871665 
L 337.064924 216.099209 
L 337.311383 214.47899 
L 337.557843 221.954649 
L 337.804302 221.584989 
L 338.050762 225.358025 
L 338.297222 214.752406 
L 338.543681 229.196917 
L 338.790141 222.555997 
L 339.036601 223.557922 
L 339.28306 221.885644 
L 339.52952 194.801627 
L 339.775979 227.566899 
L 340.022439 223.390202 
L 340.268899 211.199762 
L 340.515358 226.067195 
L 340.761818 215.956756 
L 341.008278 231.298257 
L 341.254737 218.501848 
L 341.501197 215.958398 
L 341.747656 210.983726 
L 341.994116 221.165101 
L 342.240576 216.700581 
L 342.487035 217.638619 
L 342.733495 227.250353 
L 342.979955 224.94896 
L 343.226414 226.043472 
L 343.472874 167.947318 
L 343.719333 218.821979 
L 343.965793 229.582063 
L 344.212253 211.996677 
L 344.458712 211.409516 
L 344.705172 230.695377 
L 344.951632 228.928361 
L 345.198091 200.395119 
L 345.444551 231.405828 
L 345.69101 198.850463 
L 345.93747 224.150427 
L 346.18393 224.09564 
L 346.430389 214.439371 
L 346.676849 218.187036 
L 346.923309 229.348366 
L 347.169768 207.350274 
L 347.416228 224.772856 
L 347.662688 213.144824 
L 347.909147 219.174585 
L 348.155607 218.290574 
L 348.648526 221.029848 
L 348.894986 224.100126 
L 349.141445 210.577713 
L 349.387905 220.699379 
L 349.634365 219.799018 
L 349.880824 228.145946 
L 350.127284 200.980423 
L 350.373743 226.972826 
L 350.620203 222.910116 
L 350.866663 229.877093 
L 351.113122 211.850148 
L 351.359582 213.391538 
L 351.606042 208.197013 
L 351.852501 223.021553 
L 352.098961 204.296715 
L 352.34542 219.850532 
L 352.59188 218.533207 
L 352.83834 216.128324 
L 353.084799 228.333528 
L 353.331259 218.794034 
L 353.577719 232.446981 
L 353.824178 221.259023 
L 354.070638 223.355682 
L 354.317097 234.688169 
L 354.563557 212.055882 
L 354.810017 214.769767 
L 355.056476 224.341533 
L 355.302936 214.895398 
L 355.549396 225.395855 
L 355.795855 229.374007 
L 356.042315 208.212468 
L 356.288774 226.479833 
L 356.535234 220.083586 
L 356.781694 218.176489 
L 357.028153 201.192303 
L 357.274613 232.684018 
L 357.767532 204.230775 
L 358.013992 224.512844 
L 358.260451 229.41226 
L 358.506911 197.324486 
L 358.753371 220.333542 
L 358.99983 206.480715 
L 359.24629 227.533181 
L 359.49275 197.680664 
L 359.739209 205.13507 
L 359.985669 219.273655 
L 360.232128 214.110219 
L 360.478588 216.699466 
L 360.725048 229.477716 
L 360.971507 228.94435 
L 361.217967 222.213375 
L 361.464427 222.069046 
L 361.710886 222.412772 
L 361.957346 220.988819 
L 362.203806 209.237645 
L 362.450265 211.737884 
L 362.696725 190.072818 
L 362.943184 217.43264 
L 363.189644 226.33632 
L 363.436104 221.468955 
L 363.682563 221.158696 
L 363.929023 223.871784 
L 364.175483 222.040758 
L 364.421942 201.652136 
L 364.668402 217.396948 
L 364.914861 225.669822 
L 365.161321 215.464553 
L 365.407781 220.007467 
L 365.65424 212.988331 
L 365.9007 232.692647 
L 366.14716 215.914581 
L 366.393619 221.706856 
L 366.640079 211.476351 
L 366.886538 229.651491 
L 367.132998 199.453441 
L 367.379458 229.35985 
L 367.625917 212.312665 
L 367.872377 217.296677 
L 368.118837 206.731743 
L 368.365296 220.48129 
L 368.611756 204.001747 
L 368.858215 205.249608 
L 369.104675 222.653388 
L 369.351135 222.235394 
L 369.597594 212.647835 
L 369.844054 212.319878 
L 370.090514 228.293614 
L 370.336973 210.436688 
L 370.583433 215.975619 
L 370.829892 218.108177 
L 371.076352 216.195411 
L 371.322812 219.98071 
L 371.569271 212.071902 
L 371.815731 216.740452 
L 372.062191 208.102624 
L 372.30865 219.507935 
L 372.55511 222.089 
L 372.801569 222.432787 
L 373.048029 212.589212 
L 373.294489 215.89926 
L 373.540948 205.071458 
L 373.787408 209.79819 
L 374.033868 225.280048 
L 374.280327 223.312967 
L 374.526787 224.729075 
L 374.773247 223.501885 
L 375.019706 205.831799 
L 375.266166 198.743989 
L 375.512625 222.708439 
L 375.759085 225.624638 
L 376.005545 205.121109 
L 376.252004 226.57978 
L 376.498464 222.651586 
L 376.744924 224.300013 
L 376.991383 217.915711 
L 377.237843 219.97047 
L 377.484302 208.436446 
L 377.730762 223.007948 
L 377.977222 215.29877 
L 378.223681 229.039566 
L 378.470141 223.254503 
L 378.96306 197.828921 
L 379.20952 228.389357 
L 379.455979 208.137041 
L 379.702439 228.492913 
L 380.195358 197.36687 
L 380.441818 221.962996 
L 380.934737 208.914014 
L 381.181197 218.80835 
L 381.427656 211.78892 
L 381.674116 223.462002 
L 381.920576 197.792432 
L 382.167035 221.523877 
L 382.413495 202.35487 
L 382.659955 220.478661 
L 382.906414 214.837712 
L 383.152874 214.178525 
L 383.399333 212.973697 
L 383.645793 219.661278 
L 383.892253 208.218989 
L 384.385172 222.993706 
L 384.631632 215.226125 
L 384.878091 213.559564 
L 385.124551 202.657328 
L 385.37101 225.834766 
L 385.61747 192.895793 
L 386.110389 220.328456 
L 386.356849 213.56348 
L 386.603309 214.687758 
L 386.849768 213.364855 
L 387.096228 219.988824 
L 387.342688 209.970892 
L 387.589147 218.036819 
L 387.835607 216.475003 
L 388.082066 224.62509 
L 388.328526 207.664841 
L 388.574986 199.317122 
L 388.821445 198.692021 
L 389.314365 220.542965 
L 389.560824 221.192249 
L 389.807284 217.582189 
L 390.053743 209.852787 
L 390.300203 222.909387 
L 390.546663 209.491069 
L 390.793122 206.508182 
L 391.039582 214.221871 
L 391.286042 214.361848 
L 391.532501 222.550463 
L 391.778961 208.144628 
L 392.02542 225.036111 
L 392.27188 213.555036 
L 392.51834 223.02944 
L 392.764799 207.385684 
L 393.011259 210.51342 
L 393.257719 203.184596 
L 393.504178 209.833103 
L 393.750638 221.880221 
L 393.997097 215.77738 
L 394.243557 190.509301 
L 394.490017 206.973407 
L 394.736476 214.183808 
L 394.982936 212.937227 
L 395.229396 216.539406 
L 395.722315 196.713419 
L 395.968774 219.907949 
L 396.215234 214.658765 
L 396.461694 216.786819 
L 396.708153 213.726273 
L 396.954613 218.599607 
L 397.447532 193.956777 
L 397.693992 210.623424 
L 397.940451 210.302643 
L 398.186911 211.888867 
L 398.433371 209.550875 
L 398.67983 212.811076 
L 398.92629 220.093061 
L 399.17275 217.281068 
L 399.419209 209.222312 
L 399.665669 207.557878 
L 399.912128 213.578801 
L 400.158588 210.701027 
L 400.405048 185.747423 
L 400.651507 219.559315 
L 400.897967 210.107358 
L 401.144427 218.388057 
L 401.390886 216.093595 
L 401.637346 183.210236 
L 401.883806 214.279943 
L 402.130265 211.509843 
L 402.376725 210.693881 
L 402.623184 212.355931 
L 402.869644 208.915099 
L 403.116104 217.20637 
L 403.362563 220.379872 
L 403.609023 214.674747 
L 403.855483 219.082059 
L 404.101942 209.148171 
L 404.348402 219.959071 
L 404.594861 203.255305 
L 405.33424 224.070348 
L 405.5807 209.574972 
L 405.82716 209.808933 
L 406.073619 212.730108 
L 406.320079 212.197667 
L 406.566538 214.896213 
L 406.812998 206.767692 
L 407.059458 208.487654 
L 407.305917 203.949411 
L 407.552377 214.166268 
L 407.798837 211.78775 
L 408.045296 217.86362 
L 408.291756 185.021903 
L 408.538215 202.153727 
L 409.277594 215.269048 
L 409.524054 197.354429 
L 410.016973 211.668621 
L 410.263433 208.783052 
L 410.509892 204.308923 
L 410.756352 197.498212 
L 411.002812 215.399415 
L 411.495731 216.217951 
L 411.742191 210.356713 
L 411.98865 215.40118 
L 412.23511 203.37341 
L 412.481569 210.265168 
L 412.728029 213.884408 
L 412.974489 204.832551 
L 413.220948 216.144258 
L 413.713868 186.27463 
L 414.206787 212.134307 
L 414.453247 216.691768 
L 414.699706 197.835711 
L 414.946166 198.745767 
L 415.192625 212.007757 
L 415.439085 212.837801 
L 415.685545 202.32695 
L 415.932004 204.637095 
L 416.178464 198.752581 
L 416.671383 215.019349 
L 416.917843 216.443007 
L 417.164302 205.723891 
L 417.410762 213.432273 
L 417.657222 202.266341 
L 417.903681 209.489623 
L 418.150141 210.801145 
L 418.396601 215.772514 
L 418.64306 198.657139 
L 419.135979 216.755074 
L 419.628899 205.011927 
L 419.875358 207.876771 
L 420.121818 207.47088 
L 420.368278 214.138587 
L 420.614737 212.294507 
L 420.861197 209.335704 
L 421.107656 204.356564 
L 421.354116 214.557813 
L 421.847035 214.091104 
L 422.093495 201.307969 
L 422.339955 209.937615 
L 422.586414 195.721158 
L 422.832874 198.504323 
L 423.079333 210.690939 
L 423.325793 208.242595 
L 423.572253 191.881469 
L 423.818712 205.354733 
L 424.065172 194.724423 
L 424.311632 209.159423 
L 424.558091 205.847757 
L 424.804551 205.427722 
L 425.05101 207.479913 
L 425.29747 192.94895 
L 425.790389 219.700824 
L 426.036849 206.030344 
L 426.283309 208.835032 
L 426.529768 205.745965 
L 427.022688 220.615733 
L 427.269147 214.86964 
L 427.515607 216.55966 
L 427.762066 199.653408 
L 428.008526 212.988117 
L 428.254986 200.508762 
L 428.747905 218.480975 
L 428.994365 189.15162 
L 429.240824 208.539439 
L 429.487284 192.011108 
L 429.733743 220.729996 
L 430.226663 189.56929 
L 430.473122 216.429292 
L 430.966042 206.144674 
L 431.212501 208.770096 
L 431.458961 200.886672 
L 431.70542 203.167854 
L 431.95188 207.954601 
L 432.19834 209.93514 
L 432.444799 210.241635 
L 432.691259 191.750581 
L 432.937719 207.041799 
L 433.184178 213.657575 
L 433.430638 204.344271 
L 433.677097 209.922785 
L 433.923557 208.648768 
L 434.170017 214.435988 
L 434.416476 205.19362 
L 434.662936 211.447959 
L 434.909396 211.91574 
L 435.155855 210.32848 
L 435.402315 199.408863 
L 435.648774 203.489726 
L 435.895234 205.565339 
L 436.141694 211.773312 
L 436.388153 212.591124 
L 436.634613 204.405395 
L 436.881073 209.020224 
L 437.127532 210.36172 
L 437.373992 200.482619 
L 437.620451 207.252552 
L 437.866911 200.940809 
L 438.113371 203.460162 
L 438.35983 209.121127 
L 438.60629 211.630436 
L 438.85275 208.715297 
L 439.099209 217.79741 
L 439.345669 193.36896 
L 439.592128 205.384382 
L 439.838588 208.795603 
L 440.085048 207.17134 
L 440.577967 202.464335 
L 440.824427 192.227462 
L 441.317346 217.315429 
L 441.563806 211.422716 
L 441.810265 215.036484 
L 442.056725 206.136327 
L 442.303184 212.501497 
L 442.796104 204.894864 
L 443.042563 208.96491 
L 443.289023 207.035132 
L 443.535483 202.25591 
L 444.028402 206.965453 
L 444.274861 216.780102 
L 444.767781 201.183466 
L 445.01424 194.86459 
L 445.2607 209.068344 
L 445.50716 201.944322 
L 445.753619 206.591895 
L 446.000079 215.514603 
L 446.246538 202.240528 
L 446.492998 199.922674 
L 446.739458 205.964428 
L 446.985917 195.428726 
L 447.232377 201.191127 
L 447.478837 192.037925 
L 447.725296 205.437662 
L 447.971756 201.145409 
L 448.218215 207.196257 
L 448.464675 197.726038 
L 448.711135 207.388478 
L 448.957594 203.70744 
L 449.204054 198.07713 
L 449.450514 204.839697 
L 449.696973 207.815095 
L 449.943433 194.567366 
L 450.189892 207.206774 
L 450.929271 199.587712 
L 451.175731 205.071568 
L 451.422191 206.657958 
L 451.91511 199.279433 
L 452.161569 204.79773 
L 452.408029 204.469203 
L 452.654489 203.719256 
L 452.900948 183.660484 
L 453.147408 206.421736 
L 453.393868 205.683297 
L 453.886787 195.464234 
L 454.133247 205.202494 
L 454.379706 195.450813 
L 454.626166 198.070058 
L 454.872625 203.601114 
L 455.119085 205.968264 
L 455.365545 195.709943 
L 455.612004 201.35865 
L 455.612004 201.35865 
" clip-path="url(#pb2e9d5ad52)" style="fill: none; stroke: #ffa500; stroke-width: 1.5; stroke-linecap: square"/>
   </g>
   <g id="line2d_16">
    <path d="M 228.622687 106.456123 
L 228.869147 158.989169 
L 229.115607 61.98209 
L 229.362066 145.378827 
L 229.608526 167.403614 
L 229.854986 161.106015 
L 230.101445 174.17628 
L 230.594365 181.185671 
L 230.840824 190.762131 
L 231.333743 184.516562 
L 231.580203 197.393883 
L 231.826663 195.34293 
L 232.073122 201.846391 
L 232.319582 196.504541 
L 232.566042 203.589678 
L 232.812501 198.32909 
L 233.058961 205.264377 
L 233.30542 205.042544 
L 233.55188 206.00838 
L 233.79834 208.399701 
L 234.044799 196.756182 
L 234.291259 211.679156 
L 234.537719 207.276722 
L 234.784178 204.868096 
L 235.030638 213.394786 
L 235.277097 206.586355 
L 235.523557 210.344034 
L 235.770017 215.871836 
L 236.016476 214.760262 
L 236.262936 215.76334 
L 236.509396 212.524239 
L 236.755855 217.502092 
L 237.002315 213.571717 
L 237.248774 217.504347 
L 237.495234 215.515921 
L 237.741694 215.83145 
L 237.988153 211.512233 
L 238.234613 219.335196 
L 238.481073 216.344752 
L 238.727532 216.071018 
L 238.973992 220.328787 
L 239.220451 214.107602 
L 239.713371 219.586291 
L 239.95983 219.377628 
L 240.20629 219.662853 
L 240.45275 219.463216 
L 240.699209 220.899236 
L 240.945669 220.150171 
L 241.192128 221.454621 
L 241.438588 214.484739 
L 241.685048 221.627237 
L 241.931507 221.093509 
L 242.177967 215.420362 
L 242.424427 222.342057 
L 242.670886 218.944399 
L 242.917346 222.144474 
L 243.163806 221.752421 
L 243.410265 216.644832 
L 243.656725 221.685591 
L 243.903184 220.352087 
L 244.149644 213.815532 
L 244.396104 186.479059 
L 244.642563 217.295672 
L 244.889023 221.31473 
L 245.381942 219.784616 
L 245.628402 223.07859 
L 245.874861 213.319395 
L 246.121321 221.387651 
L 246.367781 194.154207 
L 246.61424 202.765088 
L 246.8607 204.268599 
L 247.10716 208.336542 
L 247.353619 190.900227 
L 247.600079 209.784297 
L 247.846538 219.849411 
L 248.092998 208.990183 
L 248.339458 215.136075 
L 248.585917 214.532871 
L 248.832377 198.70054 
L 249.078837 205.403172 
L 249.325296 198.797563 
L 249.571756 209.942034 
L 249.818215 215.275237 
L 250.064675 204.794114 
L 250.311135 211.447279 
L 250.557594 203.384539 
L 250.804054 214.309322 
L 251.050514 194.013819 
L 251.296973 215.087386 
L 251.543433 203.909712 
L 251.789892 205.322167 
L 252.036352 197.499327 
L 252.529271 210.486578 
L 252.775731 222.04131 
L 253.022191 217.891553 
L 253.26865 170.475668 
L 253.51511 216.484306 
L 253.761569 211.905947 
L 254.008029 202.885424 
L 254.254489 221.934168 
L 254.500948 210.381318 
L 254.747408 191.857875 
L 255.240327 225.3316 
L 255.486787 219.797706 
L 255.733247 226.97255 
L 255.979706 224.146873 
L 256.226166 226.413132 
L 256.472625 224.462402 
L 256.719085 226.969149 
L 256.965545 228.130435 
L 257.212004 226.685867 
L 257.704924 227.333772 
L 257.951383 226.972164 
L 258.197843 227.115028 
L 258.444302 226.713212 
L 258.690762 228.164147 
L 258.937222 221.652664 
L 259.183681 227.786152 
L 259.430141 227.717662 
L 259.676601 226.947528 
L 259.92306 221.293311 
L 260.16952 220.403044 
L 260.415979 229.326917 
L 260.662439 224.096338 
L 260.908899 227.852743 
L 261.155358 224.350216 
L 261.401818 224.112137 
L 261.648278 203.542172 
L 261.894737 202.400024 
L 262.141197 210.403993 
L 262.387656 211.03043 
L 262.634116 202.418384 
L 262.880576 216.678384 
L 263.127035 209.000754 
L 263.373495 219.959439 
L 263.619955 203.459942 
L 263.866414 208.18391 
L 264.112874 227.556457 
L 264.359333 224.258806 
L 264.605793 228.101926 
L 264.852253 226.183792 
L 265.098712 228.108484 
L 265.345172 228.582938 
L 265.838091 228.791583 
L 266.084551 227.848281 
L 266.33101 228.666118 
L 266.82393 226.44519 
L 267.070389 226.195552 
L 267.563309 204.911509 
L 267.809768 207.293355 
L 268.056228 213.780117 
L 268.302687 213.779694 
L 268.549147 211.446323 
L 268.795607 223.504729 
L 269.042066 229.967694 
L 269.288526 227.61937 
L 269.534986 223.202425 
L 269.781445 230.291607 
L 270.027905 225.912105 
L 270.274365 229.611155 
L 270.520824 229.169921 
L 270.767284 229.161274 
L 271.013743 230.661371 
L 271.260203 228.000552 
L 271.506663 226.840135 
L 271.753122 227.947217 
L 271.999582 230.022206 
L 272.246042 225.685363 
L 272.492501 227.512676 
L 272.98542 228.987665 
L 273.23188 212.143664 
L 273.47834 229.208977 
L 273.724799 227.703163 
L 273.971259 229.308703 
L 274.217719 229.233932 
L 274.464178 229.378364 
L 274.710638 229.841469 
L 274.957097 226.427528 
L 275.450017 227.615111 
L 275.696476 231.004282 
L 276.189396 226.624553 
L 276.435855 228.202658 
L 276.682315 220.868876 
L 276.928774 227.688583 
L 277.175234 228.203767 
L 277.421694 228.401191 
L 277.668153 226.124825 
L 277.914613 225.401438 
L 278.161073 225.566327 
L 278.407532 231.029359 
L 278.653992 229.815142 
L 278.900451 230.461147 
L 279.393371 230.187211 
L 279.63983 230.649917 
L 279.88629 228.936114 
L 280.13275 221.673941 
L 280.379209 208.373864 
L 280.625669 211.511663 
L 280.872128 203.651636 
L 281.118588 208.854067 
L 281.365048 228.506567 
L 281.611507 230.445011 
L 281.857967 225.469346 
L 282.104427 205.198265 
L 282.843806 229.411347 
L 283.090265 229.057595 
L 283.336725 229.375735 
L 283.829644 230.809291 
L 284.076104 230.975442 
L 284.322563 228.718889 
L 284.569023 229.568269 
L 284.815483 229.453467 
L 285.061942 227.853123 
L 285.308402 217.672134 
L 285.554861 229.442197 
L 285.801321 222.576662 
L 286.047781 229.570089 
L 286.29424 229.181375 
L 286.5407 230.300333 
L 286.78716 229.79501 
L 287.033619 226.711882 
L 287.280079 230.134875 
L 287.526538 230.302239 
L 288.019458 231.000942 
L 288.265917 229.697405 
L 288.512377 230.369908 
L 288.758837 229.749563 
L 289.005296 229.604107 
L 289.251756 229.046197 
L 289.498215 210.192364 
L 289.744675 213.505586 
L 290.237594 230.841011 
L 290.484054 228.175687 
L 290.730514 200.143036 
L 290.976973 224.827919 
L 291.223433 223.138537 
L 291.469892 229.770889 
L 291.716352 230.141469 
L 291.962812 231.205499 
L 292.209271 228.765844 
L 292.455731 230.50353 
L 292.702191 212.281484 
L 292.94865 209.864204 
L 293.19511 216.436959 
L 293.441569 193.712428 
L 293.688029 220.596129 
L 293.934489 228.214792 
L 294.180948 220.864984 
L 294.427408 194.606796 
L 294.673868 216.752855 
L 294.920327 216.986528 
L 295.166787 213.573077 
L 295.413247 214.370587 
L 295.659706 220.923338 
L 295.906166 207.467411 
L 296.152625 221.787009 
L 296.399085 210.374007 
L 296.645545 204.97262 
L 296.892004 225.702382 
L 297.138464 229.417487 
L 297.384924 227.150982 
L 297.631383 206.393276 
L 297.877843 206.572836 
L 298.124302 215.952527 
L 298.617222 217.09815 
L 298.863681 189.921803 
L 299.110141 227.512872 
L 299.356601 218.399407 
L 299.60306 203.390103 
L 299.84952 219.405298 
L 300.342439 195.364796 
L 300.588899 225.117752 
L 301.081818 206.627512 
L 301.328278 222.948461 
L 301.574737 231.258129 
L 301.821197 226.976417 
L 302.314116 192.051579 
L 302.560576 218.218168 
L 302.807035 229.712382 
L 303.053495 227.481317 
L 303.299955 231.210929 
L 303.546414 227.58765 
L 303.792874 229.209762 
L 304.039333 228.374147 
L 304.285793 230.337937 
L 304.532253 229.008391 
L 305.025172 230.41364 
L 305.271632 226.840534 
L 305.518091 229.545471 
L 305.764551 230.246312 
L 306.25747 226.602865 
L 306.50393 211.334634 
L 306.996849 221.387124 
L 307.243309 228.520987 
L 307.489768 228.423682 
L 307.736228 225.028052 
L 307.982687 199.163007 
L 308.229147 214.756977 
L 308.475607 207.662525 
L 308.722066 212.183082 
L 308.968526 219.249326 
L 309.214986 211.366667 
L 309.461445 216.856694 
L 309.707905 217.940978 
L 309.954365 215.541985 
L 310.200824 219.914665 
L 310.447284 189.401399 
L 310.693743 222.122424 
L 310.940203 220.35395 
L 311.186663 199.989816 
L 311.433122 223.795818 
L 311.679582 229.318006 
L 311.926042 226.413181 
L 312.172501 230.238388 
L 312.418961 225.895001 
L 312.66542 229.39879 
L 312.91188 228.090093 
L 313.15834 229.103049 
L 313.404799 228.165214 
L 313.651259 229.514493 
L 313.897719 229.027125 
L 314.390638 229.822355 
L 314.883557 226.658216 
L 315.130017 228.729007 
L 315.376476 209.51109 
L 315.622936 215.743386 
L 315.869396 218.716891 
L 316.115855 228.111474 
L 316.362315 224.950627 
L 316.608774 224.7253 
L 316.855234 228.420446 
L 317.101694 230.37793 
L 317.348153 227.763655 
L 317.594613 229.081882 
L 317.841073 227.821096 
L 318.087532 228.008954 
L 318.333992 226.680389 
L 318.580451 229.105182 
L 318.826911 229.354268 
L 319.073371 228.495751 
L 319.31983 230.580294 
L 319.56629 227.864846 
L 319.81275 227.576282 
L 320.059209 228.749849 
L 320.305669 228.947371 
L 320.552128 230.494332 
L 320.798588 228.818033 
L 321.045048 228.008641 
L 321.291507 229.175939 
L 321.537967 229.449612 
L 321.784427 230.03024 
L 322.030886 229.594032 
L 322.277346 227.525987 
L 322.523806 227.043259 
L 322.770265 222.692799 
L 323.016725 201.205724 
L 323.263184 220.22023 
L 323.509644 219.115311 
L 323.756104 213.258345 
L 324.002563 196.504553 
L 324.249023 218.886186 
L 324.495483 224.723683 
L 324.741942 218.165385 
L 324.988402 198.696777 
L 325.234861 221.798199 
L 325.481321 217.408034 
L 325.727781 199.837319 
L 325.97424 223.023459 
L 326.2207 228.277742 
L 326.46716 227.847264 
L 326.713619 229.759846 
L 326.960079 228.900502 
L 327.452998 204.392979 
L 327.699458 209.261214 
L 327.945917 204.707938 
L 328.192377 210.611155 
L 328.438837 227.028845 
L 328.685296 229.546568 
L 328.931756 227.685096 
L 329.178215 229.619354 
L 329.424675 228.311466 
L 329.671135 229.169327 
L 329.917594 227.274652 
L 330.164054 221.735549 
L 330.410514 196.653692 
L 330.903433 226.313492 
L 331.149892 228.80357 
L 331.396352 224.797988 
L 331.642812 216.058394 
L 331.889271 200.933418 
L 332.135731 217.724899 
L 332.382191 215.997754 
L 332.62865 213.435049 
L 332.87511 198.261629 
L 333.121569 219.228943 
L 333.614489 210.618098 
L 333.860948 224.427341 
L 334.107408 228.431551 
L 334.353868 225.505044 
L 334.600327 226.900659 
L 334.846787 226.660484 
L 335.093247 224.021469 
L 335.339706 229.269494 
L 335.832625 225.186653 
L 336.079085 227.701116 
L 336.572004 226.888304 
L 336.818464 228.11718 
L 337.064924 227.207387 
L 337.311383 228.20938 
L 337.557843 228.337885 
L 337.804302 225.689531 
L 338.050762 227.007292 
L 338.543681 227.680273 
L 338.790141 225.937752 
L 339.036601 227.241326 
L 339.28306 220.07277 
L 339.52952 188.270797 
L 339.775979 224.624655 
L 340.022439 224.861551 
L 340.268899 227.407759 
L 340.515358 225.071814 
L 340.761818 227.832764 
L 341.008278 224.862268 
L 341.254737 213.91114 
L 341.501197 213.759979 
L 341.747656 204.660542 
L 341.994116 225.87574 
L 342.240576 227.609614 
L 342.487035 226.689428 
L 342.733495 211.331772 
L 342.979955 209.946465 
L 343.226414 221.774691 
L 343.472874 160.162314 
L 343.719333 223.3242 
L 344.212253 209.489923 
L 344.458712 209.042654 
L 344.705172 224.260081 
L 344.951632 225.440083 
L 345.444551 219.712621 
L 345.69101 202.081265 
L 345.93747 218.549857 
L 346.18393 226.143615 
L 346.430389 227.651188 
L 346.676849 226.583965 
L 346.923309 224.259493 
L 347.169768 227.630487 
L 347.416228 223.890709 
L 347.662688 227.311998 
L 347.909147 227.21962 
L 348.155607 227.423062 
L 348.402066 226.990169 
L 348.648526 217.804917 
L 348.894986 220.52007 
L 349.141445 199.974189 
L 349.387905 213.64492 
L 349.634365 211.050096 
L 350.127284 225.377213 
L 350.373743 217.571746 
L 350.620203 215.348814 
L 350.866663 220.205742 
L 351.113122 210.048507 
L 351.606042 203.789217 
L 351.852501 219.371843 
L 352.098961 195.055928 
L 352.34542 219.853823 
L 352.59188 203.727553 
L 353.084799 217.033453 
L 353.331259 226.886496 
L 353.577719 221.652584 
L 353.824178 219.494636 
L 354.070638 228.761193 
L 354.317097 222.649754 
L 354.563557 227.831441 
L 354.810017 227.259656 
L 355.056476 224.959231 
L 355.302936 228.152111 
L 355.549396 226.982172 
L 355.795855 222.783162 
L 356.042315 226.535092 
L 356.781694 214.245115 
L 357.028153 195.014035 
L 357.274613 221.497145 
L 357.767532 194.733787 
L 358.260451 221.021808 
L 358.506911 176.314672 
L 358.753371 218.221624 
L 358.99983 203.704021 
L 359.24629 219.676157 
L 359.49275 194.138518 
L 360.232128 227.228156 
L 360.478588 226.215096 
L 360.725048 222.299894 
L 360.971507 227.286737 
L 361.217967 227.061411 
L 361.464427 226.393932 
L 361.957346 219.958532 
L 362.203806 203.701275 
L 362.450265 213.336015 
L 362.696725 189.280793 
L 363.189644 219.917098 
L 363.436104 215.076594 
L 363.929023 220.10984 
L 364.175483 228.021161 
L 364.421942 226.263037 
L 364.914861 225.821259 
L 365.161321 209.003463 
L 365.407781 217.670051 
L 365.65424 207.068127 
L 365.9007 217.548618 
L 366.14716 205.43157 
L 366.640079 224.710543 
L 367.132998 226.461932 
L 367.379458 221.959325 
L 367.625917 226.506185 
L 367.872377 221.223828 
L 368.118837 206.240742 
L 368.365296 218.906562 
L 368.611756 191.199289 
L 369.104675 215.958833 
L 369.351135 209.373332 
L 369.597594 206.594799 
L 369.844054 210.330864 
L 370.090514 217.662072 
L 370.583433 205.419902 
L 370.829892 219.555601 
L 371.076352 215.788098 
L 371.569271 223.454973 
L 372.062191 225.070209 
L 372.30865 226.468201 
L 372.55511 222.822732 
L 373.048029 225.761367 
L 373.294489 224.437361 
L 373.540948 210.621144 
L 373.787408 206.289793 
L 374.280327 225.857263 
L 374.526787 225.926415 
L 374.773247 225.121864 
L 375.266166 219.885219 
L 375.512625 224.119369 
L 375.759085 224.95556 
L 376.005545 223.343388 
L 376.252004 220.581488 
L 376.498464 215.301362 
L 376.744924 220.814297 
L 376.991383 216.327256 
L 377.237843 216.949139 
L 377.484302 199.993419 
L 377.730762 216.762581 
L 377.977222 217.133988 
L 378.223681 224.482962 
L 378.470141 223.575468 
L 378.716601 215.142694 
L 378.96306 191.26621 
L 379.20952 225.229398 
L 379.455979 223.4413 
L 379.702439 219.437306 
L 379.948899 219.530334 
L 380.195358 191.740126 
L 380.441818 222.876729 
L 380.688278 224.581015 
L 380.934737 215.816025 
L 381.181197 218.956349 
L 381.427656 199.912942 
L 381.674116 215.436087 
L 381.920576 197.674242 
L 382.167035 216.924773 
L 382.413495 223.6258 
L 382.659955 215.464823 
L 383.152874 224.827864 
L 383.399333 206.54478 
L 383.645793 222.421486 
L 383.892253 210.779114 
L 384.138712 209.988542 
L 384.385172 221.309012 
L 384.631632 224.221356 
L 384.878091 222.705516 
L 385.124551 224.117806 
L 385.37101 221.027998 
L 385.61747 197.792261 
L 385.86393 223.517408 
L 386.110389 215.286041 
L 386.356849 224.565743 
L 386.603309 223.076298 
L 386.849768 217.464789 
L 387.096228 214.60516 
L 387.342688 213.542191 
L 387.589147 213.072308 
L 387.835607 208.43462 
L 388.082066 220.072384 
L 388.328526 205.326776 
L 388.574986 205.329767 
L 388.821445 201.882107 
L 389.560824 223.361105 
L 389.807284 222.839536 
L 390.053743 224.491922 
L 390.546663 216.091965 
L 390.793122 224.099035 
L 391.039582 224.226504 
L 391.286042 220.144238 
L 391.532501 220.807562 
L 391.778961 223.691679 
L 392.02542 220.299708 
L 392.27188 205.335858 
L 392.764799 222.700478 
L 393.011259 221.012775 
L 393.257719 224.381152 
L 393.504178 220.019815 
L 393.750638 223.183047 
L 393.997097 218.479651 
L 394.243557 190.389407 
L 394.490017 213.798679 
L 394.982936 223.344743 
L 395.229396 218.055565 
L 395.475855 224.206477 
L 395.722315 218.650386 
L 395.968774 220.602343 
L 396.215234 215.666641 
L 396.461694 216.248029 
L 396.708153 217.463502 
L 396.954613 217.113703 
L 397.201073 208.273004 
L 397.447532 190.730534 
L 397.693992 215.985473 
L 397.940451 224.927989 
L 398.186911 223.922833 
L 398.433371 215.322192 
L 398.67983 220.607503 
L 398.92629 215.467084 
L 399.17275 206.703111 
L 399.419209 211.114394 
L 399.665669 221.464402 
L 399.912128 219.683272 
L 400.158588 222.445283 
L 400.405048 217.664548 
L 400.651507 218.922361 
L 400.897967 207.715853 
L 401.144427 221.254476 
L 401.390886 221.846601 
L 401.637346 216.459903 
L 401.883806 223.505991 
L 402.130265 223.778432 
L 402.376725 223.808313 
L 402.623184 225.151587 
L 402.869644 223.731078 
L 403.116104 223.945288 
L 403.362563 222.882741 
L 403.609023 209.56866 
L 403.855483 221.664473 
L 404.101942 222.457098 
L 404.348402 221.486476 
L 404.841321 213.938742 
L 405.087781 213.343363 
L 405.33424 219.005523 
L 405.5807 214.712608 
L 405.82716 213.951225 
L 406.073619 224.381802 
L 406.320079 223.583533 
L 406.566538 218.944491 
L 406.812998 202.661066 
L 407.059458 215.92571 
L 407.305917 215.181505 
L 407.552377 216.099386 
L 407.798837 217.739803 
L 408.045296 217.550671 
L 408.291756 180.078553 
L 408.784675 211.57981 
L 409.031135 211.283015 
L 409.277594 224.136381 
L 409.524054 221.306315 
L 409.770514 220.257098 
L 410.016973 211.914496 
L 410.263433 218.911091 
L 410.756352 204.306177 
L 411.249271 223.305172 
L 411.495731 223.762878 
L 411.742191 222.124391 
L 412.23511 211.586943 
L 412.481569 215.79077 
L 412.728029 210.635196 
L 412.974489 223.109819 
L 413.467408 210.053741 
L 413.713868 194.468112 
L 414.206787 220.633358 
L 414.453247 213.731231 
L 414.699706 218.571552 
L 414.946166 218.847682 
L 415.192625 217.97803 
L 415.439085 220.581341 
L 415.685545 216.049054 
L 415.932004 221.617812 
L 416.178464 206.446041 
L 416.424924 223.024636 
L 416.671383 222.33072 
L 416.917843 221.089722 
L 417.410762 212.308792 
L 417.657222 201.766931 
L 417.903681 220.778894 
L 418.150141 213.145731 
L 418.396601 216.828522 
L 418.64306 203.728375 
L 418.88952 213.777788 
L 419.135979 217.164985 
L 419.382439 223.945435 
L 419.628899 222.082265 
L 419.875358 221.13778 
L 420.121818 214.611044 
L 420.368278 217.666968 
L 420.614737 223.174136 
L 420.861197 221.020252 
L 421.107656 209.464325 
L 421.354116 223.832385 
L 421.600576 213.15045 
L 421.847035 220.041025 
L 422.093495 201.304942 
L 422.339955 221.42336 
L 422.586414 210.825095 
L 422.832874 213.547571 
L 423.079333 211.115081 
L 423.325793 205.833135 
L 423.572253 204.552769 
L 423.818712 209.794501 
L 424.065172 199.664745 
L 424.311632 220.872724 
L 424.558091 207.002039 
L 424.804551 208.472628 
L 425.05101 212.06809 
L 425.29747 206.635112 
L 425.54393 219.714772 
L 426.036849 222.400025 
L 426.283309 221.342797 
L 426.529768 221.698933 
L 427.022688 219.176705 
L 427.269147 209.469332 
L 427.515607 221.18886 
L 427.762066 218.591861 
L 428.008526 221.457225 
L 428.254986 218.324905 
L 428.501445 213.256451 
L 428.747905 212.825391 
L 428.994365 190.367602 
L 429.240824 222.245775 
L 429.487284 215.324221 
L 429.733743 218.743616 
L 429.980203 218.839378 
L 430.226663 215.163162 
L 430.473122 214.919225 
L 430.719582 222.19787 
L 430.966042 220.790599 
L 431.212501 220.379382 
L 431.458961 221.64542 
L 431.70542 215.1981 
L 431.95188 221.038214 
L 432.19834 221.679849 
L 432.444799 216.976527 
L 432.691259 205.955358 
L 432.937719 212.357751 
L 433.184178 213.029612 
L 433.430638 214.260087 
L 433.677097 216.410797 
L 433.923557 221.783344 
L 434.170017 220.794429 
L 434.416476 207.46621 
L 434.662936 219.077101 
L 434.909396 212.947866 
L 435.155855 212.32217 
L 435.402315 213.67561 
L 435.648774 219.088849 
L 435.895234 217.972582 
L 436.141694 219.952005 
L 436.388153 220.97861 
L 436.634613 220.639266 
L 436.881073 213.889709 
L 437.373992 221.154713 
L 437.620451 221.588819 
L 437.866911 214.73926 
L 438.113371 214.966456 
L 438.35983 210.100365 
L 438.60629 215.265843 
L 438.85275 212.478295 
L 439.099209 217.099847 
L 439.345669 193.197588 
L 439.592128 215.48216 
L 439.838588 220.730474 
L 440.085048 211.043067 
L 440.331507 211.282837 
L 440.577967 211.801061 
L 440.824427 221.11627 
L 441.070886 220.324197 
L 441.317346 218.738217 
L 441.563806 220.190397 
L 441.810265 215.013 
L 442.056725 214.424234 
L 442.303184 217.108795 
L 442.549644 221.014356 
L 442.796104 213.677767 
L 443.042563 210.680221 
L 443.289023 203.608566 
L 443.535483 210.518642 
L 443.781942 221.047755 
L 444.028402 216.685278 
L 444.274861 217.38205 
L 444.521321 212.30878 
L 444.767781 220.068725 
L 445.01424 212.399056 
L 445.2607 217.792525 
L 445.50716 217.708408 
L 445.753619 220.366243 
L 446.000079 212.471223 
L 446.246538 214.201457 
L 446.492998 217.855469 
L 446.739458 216.793744 
L 446.985917 204.280573 
L 447.232377 213.596432 
L 447.478837 206.290688 
L 447.725296 213.202559 
L 447.971756 211.015544 
L 448.218215 220.493798 
L 448.711135 219.955829 
L 448.957594 220.539485 
L 449.450514 212.346095 
L 449.696973 213.148201 
L 449.943433 210.414135 
L 450.189892 216.620012 
L 450.436352 209.607434 
L 450.682812 207.803648 
L 450.929271 206.918939 
L 451.175731 214.327639 
L 451.422191 216.993968 
L 451.66865 210.099832 
L 451.91511 219.863396 
L 452.161569 209.733984 
L 452.408029 212.325241 
L 452.654489 219.236646 
L 452.900948 212.267426 
L 453.147408 218.88849 
L 453.393868 209.381979 
L 453.640327 205.770038 
L 453.886787 209.557978 
L 454.133247 208.590843 
L 454.379706 212.406508 
L 454.626166 213.190535 
L 454.872625 219.444684 
L 455.119085 209.226491 
L 455.365545 213.601574 
L 455.612004 210.681655 
L 455.612004 210.681655 
" clip-path="url(#pb2e9d5ad52)" style="fill: none; stroke: #008000; stroke-width: 1.5; stroke-linecap: square"/>
   </g>
   <g id="patch_3">
    <path d="M 228.622687 311.6435 
L 228.622687 45.5315 
" style="fill: none; stroke: #000000; stroke-width: 0.8; stroke-linejoin: miter; stroke-linecap: square"/>
   </g>
   <g id="patch_4">
    <path d="M 585.742688 311.6435 
L 585.742688 45.5315 
" style="fill: none; stroke: #000000; stroke-width: 0.8; stroke-linejoin: miter; stroke-linecap: square"/>
   </g>
   <g id="patch_5">
    <path d="M 228.622687 311.6435 
L 585.742688 311.6435 
" style="fill: none; stroke: #000000; stroke-width: 0.8; stroke-linejoin: miter; stroke-linecap: square"/>
   </g>
   <g id="patch_6">
    <path d="M 228.622687 45.5315 
L 585.742688 45.5315 
" style="fill: none; stroke: #000000; stroke-width: 0.8; stroke-linejoin: miter; stroke-linecap: square"/>
   </g>
   <g id="text_10">
    <!-- Loss of the 09_05_25_CIFAR10_model_(1024+512-512-512+1)_1_save_3 -->
    <g transform="translate(7.2 25.5315) scale(0.264 -0.264)">
     <defs>
      <path id="TimesNewRomanPSMT-68" d="M 1041 4444 
L 1041 2350 
Q 1388 2731 1591 2839 
Q 1794 2947 1997 2947 
Q 2241 2947 2416 2812 
Q 2591 2678 2675 2391 
Q 2734 2191 2734 1659 
L 2734 647 
Q 2734 375 2778 275 
Q 2809 200 2884 156 
Q 2959 113 3159 113 
L 3159 0 
L 1753 0 
L 1753 113 
L 1819 113 
Q 2019 113 2097 173 
Q 2175 234 2206 353 
Q 2216 403 2216 647 
L 2216 1659 
Q 2216 2128 2167 2275 
Q 2119 2422 2012 2495 
Q 1906 2569 1756 2569 
Q 1603 2569 1437 2487 
Q 1272 2406 1041 2159 
L 1041 647 
Q 1041 353 1073 281 
Q 1106 209 1195 161 
Q 1284 113 1503 113 
L 1503 0 
L 84 0 
L 84 113 
Q 275 113 384 172 
Q 447 203 484 290 
Q 522 378 522 647 
L 522 3238 
Q 522 3728 498 3840 
Q 475 3953 426 3993 
Q 378 4034 297 4034 
Q 231 4034 84 3984 
L 41 4094 
L 897 4444 
L 1041 4444 
z
" transform="scale(0.015625)"/>
      <path id="TimesNewRomanPSMT-39" d="M 338 -88 
L 338 28 
Q 744 34 1094 217 
Q 1444 400 1770 856 
Q 2097 1313 2225 1859 
Q 1734 1544 1338 1544 
Q 891 1544 572 1889 
Q 253 2234 253 2806 
Q 253 3363 572 3797 
Q 956 4325 1575 4325 
Q 2097 4325 2469 3894 
Q 2925 3359 2925 2575 
Q 2925 1869 2578 1258 
Q 2231 647 1613 244 
Q 1109 -88 516 -88 
L 338 -88 
z
M 2275 2091 
Q 2331 2497 2331 2741 
Q 2331 3044 2228 3395 
Q 2125 3747 1936 3934 
Q 1747 4122 1506 4122 
Q 1228 4122 1018 3872 
Q 809 3622 809 3128 
Q 809 2469 1088 2097 
Q 1291 1828 1588 1828 
Q 1731 1828 1928 1897 
Q 2125 1966 2275 2091 
z
" transform="scale(0.015625)"/>
      <path id="TimesNewRomanPSMT-5f" d="M 3256 -1381 
L -53 -1381 
L -53 -1119 
L 3256 -1119 
L 3256 -1381 
z
" transform="scale(0.015625)"/>
      <path id="TimesNewRomanPSMT-32" d="M 2934 816 
L 2638 0 
L 138 0 
L 138 116 
Q 1241 1122 1691 1759 
Q 2141 2397 2141 2925 
Q 2141 3328 1894 3587 
Q 1647 3847 1303 3847 
Q 991 3847 742 3664 
Q 494 3481 375 3128 
L 259 3128 
Q 338 3706 661 4015 
Q 984 4325 1469 4325 
Q 1984 4325 2329 3994 
Q 2675 3663 2675 3213 
Q 2675 2891 2525 2569 
Q 2294 2063 1775 1497 
Q 997 647 803 472 
L 1909 472 
Q 2247 472 2383 497 
Q 2519 522 2628 598 
Q 2738 675 2819 816 
L 2934 816 
z
" transform="scale(0.015625)"/>
      <path id="TimesNewRomanPSMT-43" d="M 3853 4334 
L 3950 2894 
L 3853 2894 
Q 3659 3541 3300 3825 
Q 2941 4109 2438 4109 
Q 2016 4109 1675 3895 
Q 1334 3681 1139 3212 
Q 944 2744 944 2047 
Q 944 1472 1128 1050 
Q 1313 628 1683 403 
Q 2053 178 2528 178 
Q 2941 178 3256 354 
Q 3572 531 3950 1056 
L 4047 994 
Q 3728 428 3303 165 
Q 2878 -97 2294 -97 
Q 1241 -97 663 684 
Q 231 1266 231 2053 
Q 231 2688 515 3219 
Q 800 3750 1298 4042 
Q 1797 4334 2388 4334 
Q 2847 4334 3294 4109 
Q 3425 4041 3481 4041 
Q 3566 4041 3628 4100 
Q 3709 4184 3744 4334 
L 3853 4334 
z
" transform="scale(0.015625)"/>
      <path id="TimesNewRomanPSMT-49" d="M 1975 116 
L 1975 0 
L 159 0 
L 159 116 
L 309 116 
Q 572 116 691 269 
Q 766 369 766 750 
L 766 3488 
Q 766 3809 725 3913 
Q 694 3991 597 4047 
Q 459 4122 309 4122 
L 159 4122 
L 159 4238 
L 1975 4238 
L 1975 4122 
L 1822 4122 
Q 1563 4122 1444 3969 
Q 1366 3869 1366 3488 
L 1366 750 
Q 1366 428 1406 325 
Q 1438 247 1538 191 
Q 1672 116 1822 116 
L 1975 116 
z
" transform="scale(0.015625)"/>
      <path id="TimesNewRomanPSMT-46" d="M 1309 4006 
L 1309 2341 
L 2081 2341 
Q 2347 2341 2470 2458 
Q 2594 2575 2634 2922 
L 2750 2922 
L 2750 1488 
L 2634 1488 
Q 2631 1734 2570 1850 
Q 2509 1966 2401 2023 
Q 2294 2081 2081 2081 
L 1309 2081 
L 1309 750 
Q 1309 428 1350 325 
Q 1381 247 1481 191 
Q 1619 116 1769 116 
L 1922 116 
L 1922 0 
L 103 0 
L 103 116 
L 253 116 
Q 516 116 634 269 
Q 709 369 709 750 
L 709 3488 
Q 709 3809 669 3913 
Q 638 3991 541 4047 
Q 406 4122 253 4122 
L 103 4122 
L 103 4238 
L 3256 4238 
L 3297 3306 
L 3188 3306 
Q 3106 3603 2998 3742 
Q 2891 3881 2733 3943 
Q 2575 4006 2244 4006 
L 1309 4006 
z
" transform="scale(0.015625)"/>
      <path id="TimesNewRomanPSMT-41" d="M 2928 1419 
L 1288 1419 
L 1000 750 
Q 894 503 894 381 
Q 894 284 986 211 
Q 1078 138 1384 116 
L 1384 0 
L 50 0 
L 50 116 
Q 316 163 394 238 
Q 553 388 747 847 
L 2238 4334 
L 2347 4334 
L 3822 809 
Q 4000 384 4145 257 
Q 4291 131 4550 116 
L 4550 0 
L 2878 0 
L 2878 116 
Q 3131 128 3220 200 
Q 3309 272 3309 375 
Q 3309 513 3184 809 
L 2928 1419 
z
M 2841 1650 
L 2122 3363 
L 1384 1650 
L 2841 1650 
z
" transform="scale(0.015625)"/>
      <path id="TimesNewRomanPSMT-52" d="M 4325 0 
L 3194 0 
L 1759 1981 
Q 1600 1975 1500 1975 
Q 1459 1975 1412 1976 
Q 1366 1978 1316 1981 
L 1316 750 
Q 1316 350 1403 253 
Q 1522 116 1759 116 
L 1925 116 
L 1925 0 
L 109 0 
L 109 116 
L 269 116 
Q 538 116 653 291 
Q 719 388 719 750 
L 719 3488 
Q 719 3888 631 3984 
Q 509 4122 269 4122 
L 109 4122 
L 109 4238 
L 1653 4238 
Q 2328 4238 2648 4139 
Q 2969 4041 3192 3777 
Q 3416 3513 3416 3147 
Q 3416 2756 3161 2468 
Q 2906 2181 2372 2063 
L 3247 847 
Q 3547 428 3762 290 
Q 3978 153 4325 116 
L 4325 0 
z
M 1316 2178 
Q 1375 2178 1419 2176 
Q 1463 2175 1491 2175 
Q 2097 2175 2405 2437 
Q 2713 2700 2713 3106 
Q 2713 3503 2464 3751 
Q 2216 4000 1806 4000 
Q 1625 4000 1316 3941 
L 1316 2178 
z
" transform="scale(0.015625)"/>
      <path id="TimesNewRomanPSMT-64" d="M 2222 322 
Q 2013 103 1813 7 
Q 1613 -88 1381 -88 
Q 913 -88 563 304 
Q 213 697 213 1313 
Q 213 1928 600 2439 
Q 988 2950 1597 2950 
Q 1975 2950 2222 2709 
L 2222 3238 
Q 2222 3728 2198 3840 
Q 2175 3953 2125 3993 
Q 2075 4034 2000 4034 
Q 1919 4034 1784 3984 
L 1744 4094 
L 2597 4444 
L 2738 4444 
L 2738 1134 
Q 2738 631 2761 520 
Q 2784 409 2836 365 
Q 2888 322 2956 322 
Q 3041 322 3181 375 
L 3216 266 
L 2366 -88 
L 2222 -88 
L 2222 322 
z
M 2222 541 
L 2222 2016 
Q 2203 2228 2109 2403 
Q 2016 2578 1861 2667 
Q 1706 2756 1559 2756 
Q 1284 2756 1069 2509 
Q 784 2184 784 1559 
Q 784 928 1059 592 
Q 1334 256 1672 256 
Q 1956 256 2222 541 
z
" transform="scale(0.015625)"/>
      <path id="TimesNewRomanPSMT-6c" d="M 1184 4444 
L 1184 647 
Q 1184 378 1223 290 
Q 1263 203 1344 158 
Q 1425 113 1647 113 
L 1647 0 
L 244 0 
L 244 113 
Q 441 113 512 153 
Q 584 194 625 287 
Q 666 381 666 647 
L 666 3247 
Q 666 3731 644 3842 
Q 622 3953 573 3993 
Q 525 4034 450 4034 
Q 369 4034 244 3984 
L 191 4094 
L 1044 4444 
L 1184 4444 
z
" transform="scale(0.015625)"/>
      <path id="TimesNewRomanPSMT-28" d="M 1988 -1253 
L 1988 -1369 
Q 1516 -1131 1200 -813 
Q 750 -359 506 256 
Q 263 872 263 1534 
Q 263 2503 741 3301 
Q 1219 4100 1988 4444 
L 1988 4313 
Q 1603 4100 1356 3731 
Q 1109 3363 987 2797 
Q 866 2231 866 1616 
Q 866 947 969 400 
Q 1050 -31 1165 -292 
Q 1281 -553 1476 -793 
Q 1672 -1034 1988 -1253 
z
" transform="scale(0.015625)"/>
      <path id="TimesNewRomanPSMT-34" d="M 2978 1563 
L 2978 1119 
L 2409 1119 
L 2409 0 
L 1894 0 
L 1894 1119 
L 100 1119 
L 100 1519 
L 2066 4325 
L 2409 4325 
L 2409 1563 
L 2978 1563 
z
M 1894 1563 
L 1894 3666 
L 406 1563 
L 1894 1563 
z
" transform="scale(0.015625)"/>
      <path id="TimesNewRomanPSMT-2b" d="M 1672 441 
L 1672 2000 
L 116 2000 
L 116 2256 
L 1672 2256 
L 1672 3809 
L 1922 3809 
L 1922 2256 
L 3484 2256 
L 3484 2000 
L 1922 2000 
L 1922 441 
L 1672 441 
z
" transform="scale(0.015625)"/>
      <path id="TimesNewRomanPSMT-2d" d="M 259 1672 
L 1875 1672 
L 1875 1200 
L 259 1200 
L 259 1672 
z
" transform="scale(0.015625)"/>
      <path id="TimesNewRomanPSMT-29" d="M 144 4313 
L 144 4444 
Q 619 4209 934 3891 
Q 1381 3434 1625 2820 
Q 1869 2206 1869 1541 
Q 1869 572 1392 -226 
Q 916 -1025 144 -1369 
L 144 -1253 
Q 528 -1038 776 -670 
Q 1025 -303 1145 264 
Q 1266 831 1266 1447 
Q 1266 2113 1163 2663 
Q 1084 3094 967 3353 
Q 850 3613 656 3853 
Q 463 4094 144 4313 
z
" transform="scale(0.015625)"/>
      <path id="TimesNewRomanPSMT-76" d="M 53 2863 
L 1400 2863 
L 1400 2747 
L 1313 2747 
Q 1191 2747 1127 2687 
Q 1063 2628 1063 2528 
Q 1063 2419 1128 2269 
L 1794 688 
L 2463 2328 
Q 2534 2503 2534 2594 
Q 2534 2638 2509 2666 
Q 2475 2713 2422 2730 
Q 2369 2747 2206 2747 
L 2206 2863 
L 3141 2863 
L 3141 2747 
Q 2978 2734 2916 2681 
Q 2806 2588 2719 2369 
L 1703 -88 
L 1575 -88 
L 553 2328 
Q 484 2497 421 2570 
Q 359 2644 263 2694 
Q 209 2722 53 2747 
L 53 2863 
z
" transform="scale(0.015625)"/>
      <path id="TimesNewRomanPSMT-33" d="M 325 3431 
Q 506 3859 782 4092 
Q 1059 4325 1472 4325 
Q 1981 4325 2253 3994 
Q 2459 3747 2459 3466 
Q 2459 3003 1878 2509 
Q 2269 2356 2469 2072 
Q 2669 1788 2669 1403 
Q 2669 853 2319 450 
Q 1863 -75 997 -75 
Q 569 -75 414 31 
Q 259 138 259 259 
Q 259 350 332 419 
Q 406 488 509 488 
Q 588 488 669 463 
Q 722 447 909 348 
Q 1097 250 1169 231 
Q 1284 197 1416 197 
Q 1734 197 1970 444 
Q 2206 691 2206 1028 
Q 2206 1275 2097 1509 
Q 2016 1684 1919 1775 
Q 1784 1900 1550 2001 
Q 1316 2103 1072 2103 
L 972 2103 
L 972 2197 
Q 1219 2228 1467 2375 
Q 1716 2522 1828 2728 
Q 1941 2934 1941 3181 
Q 1941 3503 1739 3701 
Q 1538 3900 1238 3900 
Q 753 3900 428 3381 
L 325 3431 
z
" transform="scale(0.015625)"/>
     </defs>
     <use xlink:href="#TimesNewRomanPSMT-4c"/>
     <use xlink:href="#TimesNewRomanPSMT-6f" transform="translate(61.083984 0)"/>
     <use xlink:href="#TimesNewRomanPSMT-73" transform="translate(111.083984 0)"/>
     <use xlink:href="#TimesNewRomanPSMT-73" transform="translate(150 0)"/>
     <use xlink:href="#TimesNewRomanPSMT-20" transform="translate(188.916016 0)"/>
     <use xlink:href="#TimesNewRomanPSMT-6f" transform="translate(213.916016 0)"/>
     <use xlink:href="#TimesNewRomanPSMT-66" transform="translate(263.916016 0)"/>
     <use xlink:href="#TimesNewRomanPSMT-20" transform="translate(297.216797 0)"/>
     <use xlink:href="#TimesNewRomanPSMT-74" transform="translate(322.216797 0)"/>
     <use xlink:href="#TimesNewRomanPSMT-68" transform="translate(350 0)"/>
     <use xlink:href="#TimesNewRomanPSMT-65" transform="translate(400 0)"/>
     <use xlink:href="#TimesNewRomanPSMT-20" transform="translate(444.384766 0)"/>
     <use xlink:href="#TimesNewRomanPSMT-30" transform="translate(469.384766 0)"/>
     <use xlink:href="#TimesNewRomanPSMT-39" transform="translate(519.384766 0)"/>
     <use xlink:href="#TimesNewRomanPSMT-5f" transform="translate(569.384766 0)"/>
     <use xlink:href="#TimesNewRomanPSMT-30" transform="translate(619.384766 0)"/>
     <use xlink:href="#TimesNewRomanPSMT-35" transform="translate(669.384766 0)"/>
     <use xlink:href="#TimesNewRomanPSMT-5f" transform="translate(719.384766 0)"/>
     <use xlink:href="#TimesNewRomanPSMT-32" transform="translate(769.384766 0)"/>
     <use xlink:href="#TimesNewRomanPSMT-35" transform="translate(819.384766 0)"/>
     <use xlink:href="#TimesNewRomanPSMT-5f" transform="translate(869.384766 0)"/>
     <use xlink:href="#TimesNewRomanPSMT-43" transform="translate(919.384766 0)"/>
     <use xlink:href="#TimesNewRomanPSMT-49" transform="translate(986.083984 0)"/>
     <use xlink:href="#TimesNewRomanPSMT-46" transform="translate(1019.384766 0)"/>
     <use xlink:href="#TimesNewRomanPSMT-41" transform="translate(1067.625 0)"/>
     <use xlink:href="#TimesNewRomanPSMT-52" transform="translate(1139.841797 0)"/>
     <use xlink:href="#TimesNewRomanPSMT-31" transform="translate(1206.541016 0)"/>
     <use xlink:href="#TimesNewRomanPSMT-30" transform="translate(1256.541016 0)"/>
     <use xlink:href="#TimesNewRomanPSMT-5f" transform="translate(1306.541016 0)"/>
     <use xlink:href="#TimesNewRomanPSMT-6d" transform="translate(1356.541016 0)"/>
     <use xlink:href="#TimesNewRomanPSMT-6f" transform="translate(1434.324219 0)"/>
     <use xlink:href="#TimesNewRomanPSMT-64" transform="translate(1484.324219 0)"/>
     <use xlink:href="#TimesNewRomanPSMT-65" transform="translate(1534.324219 0)"/>
     <use xlink:href="#TimesNewRomanPSMT-6c" transform="translate(1578.708984 0)"/>
     <use xlink:href="#TimesNewRomanPSMT-5f" transform="translate(1606.492188 0)"/>
     <use xlink:href="#TimesNewRomanPSMT-28" transform="translate(1656.492188 0)"/>
     <use xlink:href="#TimesNewRomanPSMT-31" transform="translate(1689.792969 0)"/>
     <use xlink:href="#TimesNewRomanPSMT-30" transform="translate(1739.792969 0)"/>
     <use xlink:href="#TimesNewRomanPSMT-32" transform="translate(1789.792969 0)"/>
     <use xlink:href="#TimesNewRomanPSMT-34" transform="translate(1839.792969 0)"/>
     <use xlink:href="#TimesNewRomanPSMT-2b" transform="translate(1889.792969 0)"/>
     <use xlink:href="#TimesNewRomanPSMT-35" transform="translate(1946.189453 0)"/>
     <use xlink:href="#TimesNewRomanPSMT-31" transform="translate(1996.189453 0)"/>
     <use xlink:href="#TimesNewRomanPSMT-32" transform="translate(2046.189453 0)"/>
     <use xlink:href="#TimesNewRomanPSMT-2d" transform="translate(2096.189453 0)"/>
     <use xlink:href="#TimesNewRomanPSMT-35" transform="translate(2129.490234 0)"/>
     <use xlink:href="#TimesNewRomanPSMT-31" transform="translate(2179.490234 0)"/>
     <use xlink:href="#TimesNewRomanPSMT-32" transform="translate(2229.490234 0)"/>
     <use xlink:href="#TimesNewRomanPSMT-2d" transform="translate(2279.490234 0)"/>
     <use xlink:href="#TimesNewRomanPSMT-35" transform="translate(2312.791016 0)"/>
     <use xlink:href="#TimesNewRomanPSMT-31" transform="translate(2362.791016 0)"/>
     <use xlink:href="#TimesNewRomanPSMT-32" transform="translate(2412.791016 0)"/>
     <use xlink:href="#TimesNewRomanPSMT-2b" transform="translate(2462.791016 0)"/>
     <use xlink:href="#TimesNewRomanPSMT-31" transform="translate(2519.1875 0)"/>
     <use xlink:href="#TimesNewRomanPSMT-29" transform="translate(2569.1875 0)"/>
     <use xlink:href="#TimesNewRomanPSMT-5f" transform="translate(2602.488281 0)"/>
     <use xlink:href="#TimesNewRomanPSMT-31" transform="translate(2652.488281 0)"/>
     <use xlink:href="#TimesNewRomanPSMT-5f" transform="translate(2702.488281 0)"/>
     <use xlink:href="#TimesNewRomanPSMT-73" transform="translate(2752.488281 0)"/>
     <use xlink:href="#TimesNewRomanPSMT-61" transform="translate(2791.404297 0)"/>
     <use xlink:href="#TimesNewRomanPSMT-76" transform="translate(2835.789062 0)"/>
     <use xlink:href="#TimesNewRomanPSMT-65" transform="translate(2885.789062 0)"/>
     <use xlink:href="#TimesNewRomanPSMT-5f" transform="translate(2930.173828 0)"/>
     <use xlink:href="#TimesNewRomanPSMT-33" transform="translate(2980.173828 0)"/>
    </g>
   </g>
   <g id="legend_1">
    <g id="patch_7">
     <path d="M 369.785188 125.384625 
L 570.342688 125.384625 
Q 574.742688 125.384625 574.742688 120.984625 
L 574.742688 60.9315 
Q 574.742688 56.5315 570.342688 56.5315 
L 369.785188 56.5315 
Q 365.385188 56.5315 365.385188 60.9315 
L 365.385188 120.984625 
Q 365.385188 125.384625 369.785188 125.384625 
z
" style="fill: #ffffff; opacity: 0.8; stroke: #cccccc; stroke-linejoin: miter"/>
    </g>
    <g id="line2d_17">
     <path d="M 374.185188 73.0315 
L 396.185188 73.0315 
L 418.185188 73.0315 
" style="fill: none; stroke: #ffa500; stroke-width: 1.5; stroke-linecap: square"/>
    </g>
    <g id="text_11">
     <!-- Training loss -->
     <g transform="translate(435.785188 80.7315) scale(0.22 -0.22)">
      <defs>
       <path id="TimesNewRomanPSMT-54" d="M 3703 4238 
L 3750 3244 
L 3631 3244 
Q 3597 3506 3538 3619 
Q 3441 3800 3280 3886 
Q 3119 3972 2856 3972 
L 2259 3972 
L 2259 734 
Q 2259 344 2344 247 
Q 2463 116 2709 116 
L 2856 116 
L 2856 0 
L 1059 0 
L 1059 116 
L 1209 116 
Q 1478 116 1591 278 
Q 1659 378 1659 734 
L 1659 3972 
L 1150 3972 
Q 853 3972 728 3928 
Q 566 3869 450 3700 
Q 334 3531 313 3244 
L 194 3244 
L 244 4238 
L 3703 4238 
z
" transform="scale(0.015625)"/>
       <path id="TimesNewRomanPSMT-67" d="M 966 1044 
Q 703 1172 562 1401 
Q 422 1631 422 1909 
Q 422 2334 742 2640 
Q 1063 2947 1563 2947 
Q 1972 2947 2272 2747 
L 2878 2747 
Q 3013 2747 3034 2739 
Q 3056 2731 3066 2713 
Q 3084 2684 3084 2613 
Q 3084 2531 3069 2500 
Q 3059 2484 3036 2475 
Q 3013 2466 2878 2466 
L 2506 2466 
Q 2681 2241 2681 1891 
Q 2681 1491 2375 1206 
Q 2069 922 1553 922 
Q 1341 922 1119 984 
Q 981 866 932 777 
Q 884 688 884 625 
Q 884 572 936 522 
Q 988 472 1138 450 
Q 1225 438 1575 428 
Q 2219 413 2409 384 
Q 2700 344 2873 169 
Q 3047 -6 3047 -263 
Q 3047 -616 2716 -925 
Q 2228 -1381 1444 -1381 
Q 841 -1381 425 -1109 
Q 191 -953 191 -784 
Q 191 -709 225 -634 
Q 278 -519 444 -313 
Q 466 -284 763 25 
Q 600 122 533 198 
Q 466 275 466 372 
Q 466 481 555 628 
Q 644 775 966 1044 
z
M 1509 2797 
Q 1278 2797 1122 2612 
Q 966 2428 966 2047 
Q 966 1553 1178 1281 
Q 1341 1075 1591 1075 
Q 1828 1075 1981 1253 
Q 2134 1431 2134 1813 
Q 2134 2309 1919 2591 
Q 1759 2797 1509 2797 
z
M 934 0 
Q 788 -159 713 -296 
Q 638 -434 638 -550 
Q 638 -700 819 -813 
Q 1131 -1006 1722 -1006 
Q 2284 -1006 2551 -807 
Q 2819 -609 2819 -384 
Q 2819 -222 2659 -153 
Q 2497 -84 2016 -72 
Q 1313 -53 934 0 
z
" transform="scale(0.015625)"/>
      </defs>
      <use xlink:href="#TimesNewRomanPSMT-54"/>
      <use xlink:href="#TimesNewRomanPSMT-72" transform="translate(57.583984 0)"/>
      <use xlink:href="#TimesNewRomanPSMT-61" transform="translate(90.884766 0)"/>
      <use xlink:href="#TimesNewRomanPSMT-69" transform="translate(135.269531 0)"/>
      <use xlink:href="#TimesNewRomanPSMT-6e" transform="translate(163.052734 0)"/>
      <use xlink:href="#TimesNewRomanPSMT-69" transform="translate(213.052734 0)"/>
      <use xlink:href="#TimesNewRomanPSMT-6e" transform="translate(240.835938 0)"/>
      <use xlink:href="#TimesNewRomanPSMT-67" transform="translate(290.835938 0)"/>
      <use xlink:href="#TimesNewRomanPSMT-20" transform="translate(340.835938 0)"/>
      <use xlink:href="#TimesNewRomanPSMT-6c" transform="translate(365.835938 0)"/>
      <use xlink:href="#TimesNewRomanPSMT-6f" transform="translate(393.619141 0)"/>
      <use xlink:href="#TimesNewRomanPSMT-73" transform="translate(443.619141 0)"/>
      <use xlink:href="#TimesNewRomanPSMT-73" transform="translate(482.535156 0)"/>
     </g>
    </g>
    <g id="line2d_18">
     <path d="M 374.185188 104.178687 
L 396.185188 104.178687 
L 418.185188 104.178687 
" style="fill: none; stroke: #008000; stroke-width: 1.5; stroke-linecap: square"/>
    </g>
    <g id="text_12">
     <!-- Validation loss -->
     <g transform="translate(435.785188 111.878687) scale(0.22 -0.22)">
      <defs>
       <path id="TimesNewRomanPSMT-56" d="M 4544 4238 
L 4544 4122 
Q 4319 4081 4203 3978 
Q 4038 3825 3909 3509 
L 2431 -97 
L 2316 -97 
L 728 3556 
Q 606 3838 556 3900 
Q 478 3997 364 4051 
Q 250 4106 56 4122 
L 56 4238 
L 1788 4238 
L 1788 4122 
Q 1494 4094 1406 4022 
Q 1319 3950 1319 3838 
Q 1319 3681 1463 3350 
L 2541 866 
L 3541 3319 
Q 3688 3681 3688 3822 
Q 3688 3913 3597 3995 
Q 3506 4078 3291 4113 
Q 3275 4116 3238 4122 
L 3238 4238 
L 4544 4238 
z
" transform="scale(0.015625)"/>
      </defs>
      <use xlink:href="#TimesNewRomanPSMT-56"/>
      <use xlink:href="#TimesNewRomanPSMT-61" transform="translate(61.091797 0)"/>
      <use xlink:href="#TimesNewRomanPSMT-6c" transform="translate(105.476562 0)"/>
      <use xlink:href="#TimesNewRomanPSMT-69" transform="translate(133.259766 0)"/>
      <use xlink:href="#TimesNewRomanPSMT-64" transform="translate(161.042969 0)"/>
      <use xlink:href="#TimesNewRomanPSMT-61" transform="translate(211.042969 0)"/>
      <use xlink:href="#TimesNewRomanPSMT-74" transform="translate(255.427734 0)"/>
      <use xlink:href="#TimesNewRomanPSMT-69" transform="translate(283.210938 0)"/>
      <use xlink:href="#TimesNewRomanPSMT-6f" transform="translate(310.994141 0)"/>
      <use xlink:href="#TimesNewRomanPSMT-6e" transform="translate(360.994141 0)"/>
      <use xlink:href="#TimesNewRomanPSMT-20" transform="translate(410.994141 0)"/>
      <use xlink:href="#TimesNewRomanPSMT-6c" transform="translate(435.994141 0)"/>
      <use xlink:href="#TimesNewRomanPSMT-6f" transform="translate(463.777344 0)"/>
      <use xlink:href="#TimesNewRomanPSMT-73" transform="translate(513.777344 0)"/>
      <use xlink:href="#TimesNewRomanPSMT-73" transform="translate(552.693359 0)"/>
     </g>
    </g>
   </g>
  </g>
 </g>
 <defs>
  <clipPath id="pb2e9d5ad52">
   <rect x="228.622687" y="45.5315" width="357.12" height="266.112"/>
  </clipPath>
 </defs>
</svg>
