<?xml version="1.0" encoding="utf-8" standalone="no"?>
<!DOCTYPE svg PUBLIC "-//W3C//DTD SVG 1.1//EN"
  "http://www.w3.org/Graphics/SVG/1.1/DTD/svg11.dtd">
<svg xmlns:xlink="http://www.w3.org/1999/xlink" width="1119.004875pt" height="383.265687pt" viewBox="0 0 1119.004875 383.265687" xmlns="http://www.w3.org/2000/svg" version="1.1">
 <metadata>
  <rdf:RDF xmlns:dc="http://purl.org/dc/elements/1.1/" xmlns:cc="http://creativecommons.org/ns#" xmlns:rdf="http://www.w3.org/1999/02/22-rdf-syntax-ns#">
   <cc:Work>
    <dc:type rdf:resource="http://purl.org/dc/dcmitype/StillImage"/>
    <dc:date>2025-07-10T19:51:07.443504</dc:date>
    <dc:format>image/svg+xml</dc:format>
    <dc:creator>
     <cc:Agent>
      <dc:title>Matplotlib v3.10.3, https://matplotlib.org/</dc:title>
     </cc:Agent>
    </dc:creator>
   </cc:Work>
  </rdf:RDF>
 </metadata>
 <defs>
  <style type="text/css">*{stroke-linejoin: round; stroke-linecap: butt}</style>
 </defs>
 <g id="figure_1">
  <g id="patch_1">
   <path d="M 0 383.265687 
L 1119.004875 383.265687 
L 1119.004875 0 
L 0 0 
z
" style="fill: #ffffff"/>
  </g>
  <g id="axes_1">
   <g id="patch_2">
    <path d="M 380.942438 311.6435 
L 738.062437 311.6435 
L 738.062437 45.5315 
L 380.942438 45.5315 
z
" style="fill: #ffffff"/>
   </g>
   <g id="matplotlib.axis_1">
    <g id="xtick_1">
     <g id="line2d_1">
      <path d="M 380.942438 311.6435 
L 380.942438 45.5315 
" clip-path="url(#p0f90b51cf5)" style="fill: none; stroke: #b0b0b0; stroke-opacity: 0.3; stroke-width: 0.8; stroke-linecap: square"/>
     </g>
     <g id="line2d_2">
      <defs>
       <path id="m9753cf4a7b" d="M 0 0 
L 0 3.5 
" style="stroke: #000000; stroke-width: 0.8"/>
      </defs>
      <g>
       <use xlink:href="#m9753cf4a7b" x="380.942438" y="311.6435" style="stroke: #000000; stroke-width: 0.8"/>
      </g>
     </g>
     <g id="text_1">
      <!-- 0.0 -->
      <g transform="translate(367.192438 333.91975) scale(0.22 -0.22)">
       <defs>
        <path id="TimesNewRomanPSMT-30" d="M 231 2094 
Q 231 2819 450 3342 
Q 669 3866 1031 4122 
Q 1313 4325 1613 4325 
Q 2100 4325 2488 3828 
Q 2972 3213 2972 2159 
Q 2972 1422 2759 906 
Q 2547 391 2217 158 
Q 1888 -75 1581 -75 
Q 975 -75 572 641 
Q 231 1244 231 2094 
z
M 844 2016 
Q 844 1141 1059 588 
Q 1238 122 1591 122 
Q 1759 122 1940 273 
Q 2122 425 2216 781 
Q 2359 1319 2359 2297 
Q 2359 3022 2209 3506 
Q 2097 3866 1919 4016 
Q 1791 4119 1609 4119 
Q 1397 4119 1231 3928 
Q 1006 3669 925 3112 
Q 844 2556 844 2016 
z
" transform="scale(0.015625)"/>
        <path id="TimesNewRomanPSMT-2e" d="M 800 606 
Q 947 606 1047 504 
Q 1147 403 1147 259 
Q 1147 116 1045 14 
Q 944 -88 800 -88 
Q 656 -88 554 14 
Q 453 116 453 259 
Q 453 406 554 506 
Q 656 606 800 606 
z
" transform="scale(0.015625)"/>
       </defs>
       <use xlink:href="#TimesNewRomanPSMT-30"/>
       <use xlink:href="#TimesNewRomanPSMT-2e" transform="translate(50 0)"/>
       <use xlink:href="#TimesNewRomanPSMT-30" transform="translate(75 0)"/>
      </g>
     </g>
    </g>
    <g id="xtick_2">
     <g id="line2d_3">
      <path d="M 486.770277 311.6435 
L 486.770277 45.5315 
" clip-path="url(#p0f90b51cf5)" style="fill: none; stroke: #b0b0b0; stroke-opacity: 0.3; stroke-width: 0.8; stroke-linecap: square"/>
     </g>
     <g id="line2d_4">
      <g>
       <use xlink:href="#m9753cf4a7b" x="486.770277" y="311.6435" style="stroke: #000000; stroke-width: 0.8"/>
      </g>
     </g>
     <g id="text_2">
      <!-- 0.5 -->
      <g transform="translate(473.020277 333.91975) scale(0.22 -0.22)">
       <defs>
        <path id="TimesNewRomanPSMT-35" d="M 2778 4238 
L 2534 3706 
L 1259 3706 
L 981 3138 
Q 1809 3016 2294 2522 
Q 2709 2097 2709 1522 
Q 2709 1188 2573 903 
Q 2438 619 2231 419 
Q 2025 219 1772 97 
Q 1413 -75 1034 -75 
Q 653 -75 479 54 
Q 306 184 306 341 
Q 306 428 378 495 
Q 450 563 559 563 
Q 641 563 702 538 
Q 763 513 909 409 
Q 1144 247 1384 247 
Q 1750 247 2026 523 
Q 2303 800 2303 1197 
Q 2303 1581 2056 1914 
Q 1809 2247 1375 2428 
Q 1034 2569 447 2591 
L 1259 4238 
L 2778 4238 
z
" transform="scale(0.015625)"/>
       </defs>
       <use xlink:href="#TimesNewRomanPSMT-30"/>
       <use xlink:href="#TimesNewRomanPSMT-2e" transform="translate(50 0)"/>
       <use xlink:href="#TimesNewRomanPSMT-35" transform="translate(75 0)"/>
      </g>
     </g>
    </g>
    <g id="xtick_3">
     <g id="line2d_5">
      <path d="M 592.598116 311.6435 
L 592.598116 45.5315 
" clip-path="url(#p0f90b51cf5)" style="fill: none; stroke: #b0b0b0; stroke-opacity: 0.3; stroke-width: 0.8; stroke-linecap: square"/>
     </g>
     <g id="line2d_6">
      <g>
       <use xlink:href="#m9753cf4a7b" x="592.598116" y="311.6435" style="stroke: #000000; stroke-width: 0.8"/>
      </g>
     </g>
     <g id="text_3">
      <!-- 1.0 -->
      <g transform="translate(578.848116 333.91975) scale(0.22 -0.22)">
       <defs>
        <path id="TimesNewRomanPSMT-31" d="M 750 3822 
L 1781 4325 
L 1884 4325 
L 1884 747 
Q 1884 391 1914 303 
Q 1944 216 2037 169 
Q 2131 122 2419 116 
L 2419 0 
L 825 0 
L 825 116 
Q 1125 122 1212 167 
Q 1300 213 1334 289 
Q 1369 366 1369 747 
L 1369 3034 
Q 1369 3497 1338 3628 
Q 1316 3728 1258 3775 
Q 1200 3822 1119 3822 
Q 1003 3822 797 3725 
L 750 3822 
z
" transform="scale(0.015625)"/>
       </defs>
       <use xlink:href="#TimesNewRomanPSMT-31"/>
       <use xlink:href="#TimesNewRomanPSMT-2e" transform="translate(50 0)"/>
       <use xlink:href="#TimesNewRomanPSMT-30" transform="translate(75 0)"/>
      </g>
     </g>
    </g>
    <g id="xtick_4">
     <g id="line2d_7">
      <path d="M 698.425956 311.6435 
L 698.425956 45.5315 
" clip-path="url(#p0f90b51cf5)" style="fill: none; stroke: #b0b0b0; stroke-opacity: 0.3; stroke-width: 0.8; stroke-linecap: square"/>
     </g>
     <g id="line2d_8">
      <g>
       <use xlink:href="#m9753cf4a7b" x="698.425956" y="311.6435" style="stroke: #000000; stroke-width: 0.8"/>
      </g>
     </g>
     <g id="text_4">
      <!-- 1.5 -->
      <g transform="translate(684.675956 333.91975) scale(0.22 -0.22)">
       <use xlink:href="#TimesNewRomanPSMT-31"/>
       <use xlink:href="#TimesNewRomanPSMT-2e" transform="translate(50 0)"/>
       <use xlink:href="#TimesNewRomanPSMT-35" transform="translate(75 0)"/>
      </g>
     </g>
    </g>
    <g id="text_5">
     <!-- $\kappa  = \frac{ln(n)}{ln(d)}$ -->
     <g transform="translate(527.492438 364.185687) scale(0.22 -0.22)">
      <defs>
       <path id="STIXGeneral-Italic-3ba" d="M 979 1440 
L 998 1446 
Q 1850 2541 2464 2790 
Q 2547 2822 2630 2822 
Q 2797 2822 2886 2736 
Q 2976 2650 2976 2522 
Q 2976 2387 2893 2307 
Q 2810 2227 2682 2227 
Q 2605 2227 2502 2288 
Q 2400 2349 2336 2349 
Q 2170 2349 1990 2205 
Q 1811 2061 1414 1645 
L 2042 544 
Q 2202 262 2310 182 
Q 2419 102 2624 102 
L 2624 0 
Q 2374 -83 2182 -83 
Q 1786 -83 1555 326 
L 960 1350 
L 576 0 
L 90 0 
L 640 1978 
Q 730 2317 730 2406 
Q 730 2560 518 2560 
L 339 2560 
L 339 2650 
Q 678 2694 1306 2822 
L 1325 2803 
L 979 1440 
z
" transform="scale(0.015625)"/>
       <path id="STIXGeneral-Regular-3d" d="M 4077 2048 
L 307 2048 
L 307 2470 
L 4077 2470 
L 4077 2048 
z
M 4077 768 
L 307 768 
L 307 1190 
L 4077 1190 
L 4077 768 
z
" transform="scale(0.015625)"/>
       <path id="STIXGeneral-Italic-6c" d="M 1786 4339 
L 806 595 
Q 755 410 755 320 
Q 755 205 864 205 
Q 1037 205 1293 570 
L 1453 794 
L 1542 730 
Q 1254 275 1046 102 
Q 838 -70 576 -70 
Q 262 -70 262 288 
Q 262 397 288 480 
L 1165 3834 
Q 1184 3898 1184 3955 
Q 1184 4096 870 4096 
L 755 4096 
L 755 4198 
Q 1203 4250 1747 4371 
L 1786 4339 
z
" transform="scale(0.015625)"/>
       <path id="STIXGeneral-Italic-6e" d="M 2944 749 
L 3034 666 
Q 2707 218 2534 80 
Q 2362 -58 2138 -58 
Q 2010 -58 1923 28 
Q 1837 115 1837 288 
Q 1837 390 1939 768 
L 2221 1805 
Q 2310 2150 2310 2310 
Q 2310 2496 2157 2496 
Q 1971 2496 1750 2275 
Q 1530 2054 1210 1587 
Q 998 1274 899 1024 
Q 800 774 570 0 
L 90 0 
L 704 2240 
Q 717 2304 717 2349 
Q 717 2445 630 2480 
Q 544 2515 301 2522 
L 301 2624 
Q 550 2675 857 2729 
Q 1165 2784 1338 2822 
L 1363 2810 
L 934 1414 
Q 1408 2170 1753 2496 
Q 2099 2822 2413 2822 
Q 2611 2822 2720 2716 
Q 2829 2611 2829 2432 
Q 2829 2272 2765 2048 
L 2406 749 
Q 2317 429 2317 358 
Q 2317 243 2419 243 
Q 2541 243 2810 582 
Q 2854 634 2944 749 
z
" transform="scale(0.015625)"/>
       <path id="STIXGeneral-Regular-28" d="M 1946 -1030 
L 1869 -1133 
Q 1126 -710 716 32 
Q 307 774 307 1613 
Q 307 3386 1888 4326 
L 1946 4224 
Q 1293 3667 1075 3126 
Q 858 2586 858 1632 
Q 858 685 1082 96 
Q 1306 -493 1946 -1030 
z
" transform="scale(0.015625)"/>
       <path id="STIXGeneral-Regular-29" d="M 186 4224 
L 262 4326 
Q 992 3891 1408 3148 
Q 1824 2406 1824 1581 
Q 1824 -166 243 -1133 
L 186 -1030 
Q 845 -486 1059 54 
Q 1274 595 1274 1562 
Q 1274 2534 1059 3120 
Q 845 3706 186 4224 
z
" transform="scale(0.015625)"/>
       <path id="STIXGeneral-Italic-64" d="M 3334 4371 
L 3373 4333 
L 3123 3360 
L 2739 1958 
Q 2323 429 2323 384 
Q 2323 256 2438 256 
Q 2522 256 2614 336 
Q 2707 416 2963 710 
L 3040 646 
Q 2547 -83 2099 -83 
Q 1978 -83 1907 -6 
Q 1837 70 1837 205 
Q 1837 397 1920 774 
Q 1645 307 1379 118 
Q 1114 -70 781 -70 
Q 461 -70 278 125 
Q 96 320 96 678 
Q 96 1440 713 2131 
Q 1331 2822 1965 2822 
Q 2163 2822 2256 2732 
Q 2349 2643 2381 2451 
L 2387 2451 
L 2675 3494 
Q 2765 3808 2765 3949 
Q 2765 4051 2694 4076 
Q 2624 4102 2355 4115 
L 2355 4224 
Q 2848 4269 3334 4371 
z
M 2278 2310 
Q 2278 2477 2185 2576 
Q 2093 2675 1978 2675 
Q 1677 2675 1395 2381 
Q 1075 2042 864 1571 
Q 653 1101 653 704 
Q 653 486 752 361 
Q 851 237 1024 237 
Q 1312 237 1606 550 
Q 1901 864 2089 1350 
Q 2278 1837 2278 2310 
z
" transform="scale(0.015625)"/>
      </defs>
      <use xlink:href="#STIXGeneral-Italic-3ba" transform="translate(0 0.003125)"/>
      <use xlink:href="#STIXGeneral-Regular-3d" transform="translate(58.83999 0.003125)"/>
      <use xlink:href="#STIXGeneral-Italic-6c" transform="translate(141.779971 50.192188) scale(0.7)"/>
      <use xlink:href="#STIXGeneral-Italic-6e" transform="translate(161.239963 50.192188) scale(0.7)"/>
      <use xlink:href="#STIXGeneral-Regular-28" transform="translate(196.239952 50.192188) scale(0.7)"/>
      <use xlink:href="#STIXGeneral-Italic-6e" transform="translate(219.549944 50.192188) scale(0.7)"/>
      <use xlink:href="#STIXGeneral-Regular-29" transform="translate(254.549933 50.192188) scale(0.7)"/>
      <use xlink:href="#STIXGeneral-Italic-6c" transform="translate(141.779971 -41.257812) scale(0.7)"/>
      <use xlink:href="#STIXGeneral-Italic-6e" transform="translate(161.239963 -41.257812) scale(0.7)"/>
      <use xlink:href="#STIXGeneral-Regular-28" transform="translate(196.239952 -41.257812) scale(0.7)"/>
      <use xlink:href="#STIXGeneral-Italic-64" transform="translate(219.549944 -41.257812) scale(0.7)"/>
      <use xlink:href="#STIXGeneral-Regular-29" transform="translate(254.549933 -41.257812) scale(0.7)"/>
      <path d="M 141.779971 12.8 
L 141.779971 19.05 
L 277.859924 19.05 
L 277.859924 12.8 
L 141.779971 12.8 
z
"/>
     </g>
    </g>
   </g>
   <g id="matplotlib.axis_2">
    <g id="ytick_1">
     <g id="line2d_9">
      <path d="M 380.942438 311.6435 
L 738.062437 311.6435 
" clip-path="url(#p0f90b51cf5)" style="fill: none; stroke: #b0b0b0; stroke-opacity: 0.3; stroke-width: 0.8; stroke-linecap: square"/>
     </g>
     <g id="line2d_10">
      <defs>
       <path id="m90d35179d0" d="M 0 0 
L -3.5 0 
" style="stroke: #000000; stroke-width: 0.8"/>
      </defs>
      <g>
       <use xlink:href="#m90d35179d0" x="380.942438" y="311.6435" style="stroke: #000000; stroke-width: 0.8"/>
      </g>
     </g>
     <g id="text_6">
      <!-- 0.0 -->
      <g transform="translate(346.442438 319.281625) scale(0.22 -0.22)">
       <use xlink:href="#TimesNewRomanPSMT-30"/>
       <use xlink:href="#TimesNewRomanPSMT-2e" transform="translate(50 0)"/>
       <use xlink:href="#TimesNewRomanPSMT-30" transform="translate(75 0)"/>
      </g>
     </g>
    </g>
    <g id="ytick_2">
     <g id="line2d_11">
      <path d="M 380.942438 285.0323 
L 738.062437 285.0323 
" clip-path="url(#p0f90b51cf5)" style="fill: none; stroke: #b0b0b0; stroke-opacity: 0.3; stroke-width: 0.8; stroke-linecap: square"/>
     </g>
     <g id="line2d_12">
      <g>
       <use xlink:href="#m90d35179d0" x="380.942438" y="285.0323" style="stroke: #000000; stroke-width: 0.8"/>
      </g>
     </g>
     <g id="text_7">
      <!-- 0.1 -->
      <g transform="translate(346.442438 292.670425) scale(0.22 -0.22)">
       <use xlink:href="#TimesNewRomanPSMT-30"/>
       <use xlink:href="#TimesNewRomanPSMT-2e" transform="translate(50 0)"/>
       <use xlink:href="#TimesNewRomanPSMT-31" transform="translate(75 0)"/>
      </g>
     </g>
    </g>
    <g id="ytick_3">
     <g id="line2d_13">
      <path d="M 380.942438 258.4211 
L 738.062437 258.4211 
" clip-path="url(#p0f90b51cf5)" style="fill: none; stroke: #b0b0b0; stroke-opacity: 0.3; stroke-width: 0.8; stroke-linecap: square"/>
     </g>
     <g id="line2d_14">
      <g>
       <use xlink:href="#m90d35179d0" x="380.942438" y="258.4211" style="stroke: #000000; stroke-width: 0.8"/>
      </g>
     </g>
     <g id="text_8">
      <!-- 0.2 -->
      <g transform="translate(346.442438 266.059225) scale(0.22 -0.22)">
       <defs>
        <path id="TimesNewRomanPSMT-32" d="M 2934 816 
L 2638 0 
L 138 0 
L 138 116 
Q 1241 1122 1691 1759 
Q 2141 2397 2141 2925 
Q 2141 3328 1894 3587 
Q 1647 3847 1303 3847 
Q 991 3847 742 3664 
Q 494 3481 375 3128 
L 259 3128 
Q 338 3706 661 4015 
Q 984 4325 1469 4325 
Q 1984 4325 2329 3994 
Q 2675 3663 2675 3213 
Q 2675 2891 2525 2569 
Q 2294 2063 1775 1497 
Q 997 647 803 472 
L 1909 472 
Q 2247 472 2383 497 
Q 2519 522 2628 598 
Q 2738 675 2819 816 
L 2934 816 
z
" transform="scale(0.015625)"/>
       </defs>
       <use xlink:href="#TimesNewRomanPSMT-30"/>
       <use xlink:href="#TimesNewRomanPSMT-2e" transform="translate(50 0)"/>
       <use xlink:href="#TimesNewRomanPSMT-32" transform="translate(75 0)"/>
      </g>
     </g>
    </g>
    <g id="ytick_4">
     <g id="line2d_15">
      <path d="M 380.942438 231.8099 
L 738.062437 231.8099 
" clip-path="url(#p0f90b51cf5)" style="fill: none; stroke: #b0b0b0; stroke-opacity: 0.3; stroke-width: 0.8; stroke-linecap: square"/>
     </g>
     <g id="line2d_16">
      <g>
       <use xlink:href="#m90d35179d0" x="380.942438" y="231.8099" style="stroke: #000000; stroke-width: 0.8"/>
      </g>
     </g>
     <g id="text_9">
      <!-- 0.3 -->
      <g transform="translate(346.442438 239.448025) scale(0.22 -0.22)">
       <defs>
        <path id="TimesNewRomanPSMT-33" d="M 325 3431 
Q 506 3859 782 4092 
Q 1059 4325 1472 4325 
Q 1981 4325 2253 3994 
Q 2459 3747 2459 3466 
Q 2459 3003 1878 2509 
Q 2269 2356 2469 2072 
Q 2669 1788 2669 1403 
Q 2669 853 2319 450 
Q 1863 -75 997 -75 
Q 569 -75 414 31 
Q 259 138 259 259 
Q 259 350 332 419 
Q 406 488 509 488 
Q 588 488 669 463 
Q 722 447 909 348 
Q 1097 250 1169 231 
Q 1284 197 1416 197 
Q 1734 197 1970 444 
Q 2206 691 2206 1028 
Q 2206 1275 2097 1509 
Q 2016 1684 1919 1775 
Q 1784 1900 1550 2001 
Q 1316 2103 1072 2103 
L 972 2103 
L 972 2197 
Q 1219 2228 1467 2375 
Q 1716 2522 1828 2728 
Q 1941 2934 1941 3181 
Q 1941 3503 1739 3701 
Q 1538 3900 1238 3900 
Q 753 3900 428 3381 
L 325 3431 
z
" transform="scale(0.015625)"/>
       </defs>
       <use xlink:href="#TimesNewRomanPSMT-30"/>
       <use xlink:href="#TimesNewRomanPSMT-2e" transform="translate(50 0)"/>
       <use xlink:href="#TimesNewRomanPSMT-33" transform="translate(75 0)"/>
      </g>
     </g>
    </g>
    <g id="ytick_5">
     <g id="line2d_17">
      <path d="M 380.942438 205.1987 
L 738.062437 205.1987 
" clip-path="url(#p0f90b51cf5)" style="fill: none; stroke: #b0b0b0; stroke-opacity: 0.3; stroke-width: 0.8; stroke-linecap: square"/>
     </g>
     <g id="line2d_18">
      <g>
       <use xlink:href="#m90d35179d0" x="380.942438" y="205.1987" style="stroke: #000000; stroke-width: 0.8"/>
      </g>
     </g>
     <g id="text_10">
      <!-- 0.4 -->
      <g transform="translate(346.442438 212.836825) scale(0.22 -0.22)">
       <defs>
        <path id="TimesNewRomanPSMT-34" d="M 2978 1563 
L 2978 1119 
L 2409 1119 
L 2409 0 
L 1894 0 
L 1894 1119 
L 100 1119 
L 100 1519 
L 2066 4325 
L 2409 4325 
L 2409 1563 
L 2978 1563 
z
M 1894 1563 
L 1894 3666 
L 406 1563 
L 1894 1563 
z
" transform="scale(0.015625)"/>
       </defs>
       <use xlink:href="#TimesNewRomanPSMT-30"/>
       <use xlink:href="#TimesNewRomanPSMT-2e" transform="translate(50 0)"/>
       <use xlink:href="#TimesNewRomanPSMT-34" transform="translate(75 0)"/>
      </g>
     </g>
    </g>
    <g id="ytick_6">
     <g id="line2d_19">
      <path d="M 380.942438 178.5875 
L 738.062437 178.5875 
" clip-path="url(#p0f90b51cf5)" style="fill: none; stroke: #b0b0b0; stroke-opacity: 0.3; stroke-width: 0.8; stroke-linecap: square"/>
     </g>
     <g id="line2d_20">
      <g>
       <use xlink:href="#m90d35179d0" x="380.942438" y="178.5875" style="stroke: #000000; stroke-width: 0.8"/>
      </g>
     </g>
     <g id="text_11">
      <!-- 0.5 -->
      <g transform="translate(346.442438 186.225625) scale(0.22 -0.22)">
       <use xlink:href="#TimesNewRomanPSMT-30"/>
       <use xlink:href="#TimesNewRomanPSMT-2e" transform="translate(50 0)"/>
       <use xlink:href="#TimesNewRomanPSMT-35" transform="translate(75 0)"/>
      </g>
     </g>
    </g>
    <g id="ytick_7">
     <g id="line2d_21">
      <path d="M 380.942438 151.9763 
L 738.062437 151.9763 
" clip-path="url(#p0f90b51cf5)" style="fill: none; stroke: #b0b0b0; stroke-opacity: 0.3; stroke-width: 0.8; stroke-linecap: square"/>
     </g>
     <g id="line2d_22">
      <g>
       <use xlink:href="#m90d35179d0" x="380.942438" y="151.9763" style="stroke: #000000; stroke-width: 0.8"/>
      </g>
     </g>
     <g id="text_12">
      <!-- 0.6 -->
      <g transform="translate(346.442438 159.614425) scale(0.22 -0.22)">
       <defs>
        <path id="TimesNewRomanPSMT-36" d="M 2869 4325 
L 2869 4209 
Q 2456 4169 2195 4045 
Q 1934 3922 1679 3669 
Q 1425 3416 1258 3105 
Q 1091 2794 978 2366 
Q 1428 2675 1881 2675 
Q 2316 2675 2634 2325 
Q 2953 1975 2953 1425 
Q 2953 894 2631 456 
Q 2244 -75 1606 -75 
Q 1172 -75 869 213 
Q 275 772 275 1663 
Q 275 2231 503 2743 
Q 731 3256 1154 3653 
Q 1578 4050 1965 4187 
Q 2353 4325 2688 4325 
L 2869 4325 
z
M 925 2138 
Q 869 1716 869 1456 
Q 869 1156 980 804 
Q 1091 453 1309 247 
Q 1469 100 1697 100 
Q 1969 100 2183 356 
Q 2397 613 2397 1088 
Q 2397 1622 2184 2012 
Q 1972 2403 1581 2403 
Q 1463 2403 1327 2353 
Q 1191 2303 925 2138 
z
" transform="scale(0.015625)"/>
       </defs>
       <use xlink:href="#TimesNewRomanPSMT-30"/>
       <use xlink:href="#TimesNewRomanPSMT-2e" transform="translate(50 0)"/>
       <use xlink:href="#TimesNewRomanPSMT-36" transform="translate(75 0)"/>
      </g>
     </g>
    </g>
    <g id="ytick_8">
     <g id="line2d_23">
      <path d="M 380.942438 125.3651 
L 738.062437 125.3651 
" clip-path="url(#p0f90b51cf5)" style="fill: none; stroke: #b0b0b0; stroke-opacity: 0.3; stroke-width: 0.8; stroke-linecap: square"/>
     </g>
     <g id="line2d_24">
      <g>
       <use xlink:href="#m90d35179d0" x="380.942438" y="125.3651" style="stroke: #000000; stroke-width: 0.8"/>
      </g>
     </g>
     <g id="text_13">
      <!-- 0.7 -->
      <g transform="translate(346.442438 133.003225) scale(0.22 -0.22)">
       <defs>
        <path id="TimesNewRomanPSMT-37" d="M 644 4238 
L 2916 4238 
L 2916 4119 
L 1503 -88 
L 1153 -88 
L 2419 3728 
L 1253 3728 
Q 900 3728 750 3644 
Q 488 3500 328 3200 
L 238 3234 
L 644 4238 
z
" transform="scale(0.015625)"/>
       </defs>
       <use xlink:href="#TimesNewRomanPSMT-30"/>
       <use xlink:href="#TimesNewRomanPSMT-2e" transform="translate(50 0)"/>
       <use xlink:href="#TimesNewRomanPSMT-37" transform="translate(75 0)"/>
      </g>
     </g>
    </g>
    <g id="ytick_9">
     <g id="line2d_25">
      <path d="M 380.942438 98.7539 
L 738.062437 98.7539 
" clip-path="url(#p0f90b51cf5)" style="fill: none; stroke: #b0b0b0; stroke-opacity: 0.3; stroke-width: 0.8; stroke-linecap: square"/>
     </g>
     <g id="line2d_26">
      <g>
       <use xlink:href="#m90d35179d0" x="380.942438" y="98.7539" style="stroke: #000000; stroke-width: 0.8"/>
      </g>
     </g>
     <g id="text_14">
      <!-- 0.8 -->
      <g transform="translate(346.442438 106.392025) scale(0.22 -0.22)">
       <defs>
        <path id="TimesNewRomanPSMT-38" d="M 1228 2134 
Q 725 2547 579 2797 
Q 434 3047 434 3316 
Q 434 3728 753 4026 
Q 1072 4325 1600 4325 
Q 2113 4325 2425 4047 
Q 2738 3769 2738 3413 
Q 2738 3175 2569 2928 
Q 2400 2681 1866 2347 
Q 2416 1922 2594 1678 
Q 2831 1359 2831 1006 
Q 2831 559 2490 242 
Q 2150 -75 1597 -75 
Q 994 -75 656 303 
Q 388 606 388 966 
Q 388 1247 577 1523 
Q 766 1800 1228 2134 
z
M 1719 2469 
Q 2094 2806 2194 3001 
Q 2294 3197 2294 3444 
Q 2294 3772 2109 3958 
Q 1925 4144 1606 4144 
Q 1288 4144 1088 3959 
Q 888 3775 888 3528 
Q 888 3366 970 3203 
Q 1053 3041 1206 2894 
L 1719 2469 
z
M 1375 2016 
Q 1116 1797 991 1539 
Q 866 1281 866 981 
Q 866 578 1086 336 
Q 1306 94 1647 94 
Q 1984 94 2187 284 
Q 2391 475 2391 747 
Q 2391 972 2272 1150 
Q 2050 1481 1375 2016 
z
" transform="scale(0.015625)"/>
       </defs>
       <use xlink:href="#TimesNewRomanPSMT-30"/>
       <use xlink:href="#TimesNewRomanPSMT-2e" transform="translate(50 0)"/>
       <use xlink:href="#TimesNewRomanPSMT-38" transform="translate(75 0)"/>
      </g>
     </g>
    </g>
    <g id="ytick_10">
     <g id="line2d_27">
      <path d="M 380.942438 72.1427 
L 738.062437 72.1427 
" clip-path="url(#p0f90b51cf5)" style="fill: none; stroke: #b0b0b0; stroke-opacity: 0.3; stroke-width: 0.8; stroke-linecap: square"/>
     </g>
     <g id="line2d_28">
      <g>
       <use xlink:href="#m90d35179d0" x="380.942438" y="72.1427" style="stroke: #000000; stroke-width: 0.8"/>
      </g>
     </g>
     <g id="text_15">
      <!-- 0.9 -->
      <g transform="translate(346.442438 79.780825) scale(0.22 -0.22)">
       <defs>
        <path id="TimesNewRomanPSMT-39" d="M 338 -88 
L 338 28 
Q 744 34 1094 217 
Q 1444 400 1770 856 
Q 2097 1313 2225 1859 
Q 1734 1544 1338 1544 
Q 891 1544 572 1889 
Q 253 2234 253 2806 
Q 253 3363 572 3797 
Q 956 4325 1575 4325 
Q 2097 4325 2469 3894 
Q 2925 3359 2925 2575 
Q 2925 1869 2578 1258 
Q 2231 647 1613 244 
Q 1109 -88 516 -88 
L 338 -88 
z
M 2275 2091 
Q 2331 2497 2331 2741 
Q 2331 3044 2228 3395 
Q 2125 3747 1936 3934 
Q 1747 4122 1506 4122 
Q 1228 4122 1018 3872 
Q 809 3622 809 3128 
Q 809 2469 1088 2097 
Q 1291 1828 1588 1828 
Q 1731 1828 1928 1897 
Q 2125 1966 2275 2091 
z
" transform="scale(0.015625)"/>
       </defs>
       <use xlink:href="#TimesNewRomanPSMT-30"/>
       <use xlink:href="#TimesNewRomanPSMT-2e" transform="translate(50 0)"/>
       <use xlink:href="#TimesNewRomanPSMT-39" transform="translate(75 0)"/>
      </g>
     </g>
    </g>
    <g id="ytick_11">
     <g id="line2d_29">
      <path d="M 380.942438 45.5315 
L 738.062437 45.5315 
" clip-path="url(#p0f90b51cf5)" style="fill: none; stroke: #b0b0b0; stroke-opacity: 0.3; stroke-width: 0.8; stroke-linecap: square"/>
     </g>
     <g id="line2d_30">
      <g>
       <use xlink:href="#m90d35179d0" x="380.942438" y="45.5315" style="stroke: #000000; stroke-width: 0.8"/>
      </g>
     </g>
     <g id="text_16">
      <!-- 1.0 -->
      <g transform="translate(346.442438 53.169625) scale(0.22 -0.22)">
       <use xlink:href="#TimesNewRomanPSMT-31"/>
       <use xlink:href="#TimesNewRomanPSMT-2e" transform="translate(50 0)"/>
       <use xlink:href="#TimesNewRomanPSMT-30" transform="translate(75 0)"/>
      </g>
     </g>
    </g>
    <g id="text_17">
     <!-- Accuracy -->
     <g transform="translate(337.69525 220.726094) rotate(-90) scale(0.22 -0.22)">
      <defs>
       <path id="TimesNewRomanPSMT-41" d="M 2928 1419 
L 1288 1419 
L 1000 750 
Q 894 503 894 381 
Q 894 284 986 211 
Q 1078 138 1384 116 
L 1384 0 
L 50 0 
L 50 116 
Q 316 163 394 238 
Q 553 388 747 847 
L 2238 4334 
L 2347 4334 
L 3822 809 
Q 4000 384 4145 257 
Q 4291 131 4550 116 
L 4550 0 
L 2878 0 
L 2878 116 
Q 3131 128 3220 200 
Q 3309 272 3309 375 
Q 3309 513 3184 809 
L 2928 1419 
z
M 2841 1650 
L 2122 3363 
L 1384 1650 
L 2841 1650 
z
" transform="scale(0.015625)"/>
       <path id="TimesNewRomanPSMT-63" d="M 2631 1088 
Q 2516 522 2178 217 
Q 1841 -88 1431 -88 
Q 944 -88 581 321 
Q 219 731 219 1428 
Q 219 2103 620 2525 
Q 1022 2947 1584 2947 
Q 2006 2947 2278 2723 
Q 2550 2500 2550 2259 
Q 2550 2141 2473 2067 
Q 2397 1994 2259 1994 
Q 2075 1994 1981 2113 
Q 1928 2178 1911 2362 
Q 1894 2547 1784 2644 
Q 1675 2738 1481 2738 
Q 1169 2738 978 2506 
Q 725 2200 725 1697 
Q 725 1184 976 792 
Q 1228 400 1656 400 
Q 1963 400 2206 609 
Q 2378 753 2541 1131 
L 2631 1088 
z
" transform="scale(0.015625)"/>
       <path id="TimesNewRomanPSMT-75" d="M 2709 2863 
L 2709 1128 
Q 2709 631 2732 520 
Q 2756 409 2807 365 
Q 2859 322 2928 322 
Q 3025 322 3147 375 
L 3191 266 
L 2334 -88 
L 2194 -88 
L 2194 519 
Q 1825 119 1631 15 
Q 1438 -88 1222 -88 
Q 981 -88 804 51 
Q 628 191 559 409 
Q 491 628 491 1028 
L 491 2306 
Q 491 2509 447 2587 
Q 403 2666 317 2708 
Q 231 2750 6 2747 
L 6 2863 
L 1009 2863 
L 1009 947 
Q 1009 547 1148 422 
Q 1288 297 1484 297 
Q 1619 297 1789 381 
Q 1959 466 2194 703 
L 2194 2325 
Q 2194 2569 2105 2655 
Q 2016 2741 1734 2747 
L 1734 2863 
L 2709 2863 
z
" transform="scale(0.015625)"/>
       <path id="TimesNewRomanPSMT-72" d="M 1038 2947 
L 1038 2303 
Q 1397 2947 1775 2947 
Q 1947 2947 2059 2842 
Q 2172 2738 2172 2600 
Q 2172 2478 2090 2393 
Q 2009 2309 1897 2309 
Q 1788 2309 1652 2417 
Q 1516 2525 1450 2525 
Q 1394 2525 1328 2463 
Q 1188 2334 1038 2041 
L 1038 669 
Q 1038 431 1097 309 
Q 1138 225 1241 169 
Q 1344 113 1538 113 
L 1538 0 
L 72 0 
L 72 113 
Q 291 113 397 181 
Q 475 231 506 341 
Q 522 394 522 644 
L 522 1753 
Q 522 2253 501 2348 
Q 481 2444 426 2487 
Q 372 2531 291 2531 
Q 194 2531 72 2484 
L 41 2597 
L 906 2947 
L 1038 2947 
z
" transform="scale(0.015625)"/>
       <path id="TimesNewRomanPSMT-61" d="M 1822 413 
Q 1381 72 1269 19 
Q 1100 -59 909 -59 
Q 613 -59 420 144 
Q 228 347 228 678 
Q 228 888 322 1041 
Q 450 1253 767 1440 
Q 1084 1628 1822 1897 
L 1822 2009 
Q 1822 2438 1686 2597 
Q 1550 2756 1291 2756 
Q 1094 2756 978 2650 
Q 859 2544 859 2406 
L 866 2225 
Q 866 2081 792 2003 
Q 719 1925 600 1925 
Q 484 1925 411 2006 
Q 338 2088 338 2228 
Q 338 2497 613 2722 
Q 888 2947 1384 2947 
Q 1766 2947 2009 2819 
Q 2194 2722 2281 2516 
Q 2338 2381 2338 1966 
L 2338 994 
Q 2338 584 2353 492 
Q 2369 400 2405 369 
Q 2441 338 2488 338 
Q 2538 338 2575 359 
Q 2641 400 2828 588 
L 2828 413 
Q 2478 -56 2159 -56 
Q 2006 -56 1915 50 
Q 1825 156 1822 413 
z
M 1822 616 
L 1822 1706 
Q 1350 1519 1213 1441 
Q 966 1303 859 1153 
Q 753 1003 753 825 
Q 753 600 887 451 
Q 1022 303 1197 303 
Q 1434 303 1822 616 
z
" transform="scale(0.015625)"/>
       <path id="TimesNewRomanPSMT-79" d="M 38 2863 
L 1372 2863 
L 1372 2747 
L 1306 2747 
Q 1166 2747 1095 2686 
Q 1025 2625 1025 2534 
Q 1025 2413 1128 2197 
L 1825 753 
L 2466 2334 
Q 2519 2463 2519 2588 
Q 2519 2644 2497 2672 
Q 2472 2706 2419 2726 
Q 2366 2747 2231 2747 
L 2231 2863 
L 3163 2863 
L 3163 2747 
Q 3047 2734 2984 2696 
Q 2922 2659 2847 2556 
Q 2819 2513 2741 2316 
L 1575 -541 
Q 1406 -956 1132 -1168 
Q 859 -1381 606 -1381 
Q 422 -1381 303 -1275 
Q 184 -1169 184 -1031 
Q 184 -900 270 -820 
Q 356 -741 506 -741 
Q 609 -741 788 -809 
Q 913 -856 944 -856 
Q 1038 -856 1148 -759 
Q 1259 -663 1372 -384 
L 1575 113 
L 547 2272 
Q 500 2369 397 2513 
Q 319 2622 269 2659 
Q 197 2709 38 2747 
L 38 2863 
z
" transform="scale(0.015625)"/>
      </defs>
      <use xlink:href="#TimesNewRomanPSMT-41"/>
      <use xlink:href="#TimesNewRomanPSMT-63" transform="translate(72.216797 0)"/>
      <use xlink:href="#TimesNewRomanPSMT-63" transform="translate(116.601562 0)"/>
      <use xlink:href="#TimesNewRomanPSMT-75" transform="translate(160.986328 0)"/>
      <use xlink:href="#TimesNewRomanPSMT-72" transform="translate(210.986328 0)"/>
      <use xlink:href="#TimesNewRomanPSMT-61" transform="translate(244.287109 0)"/>
      <use xlink:href="#TimesNewRomanPSMT-63" transform="translate(288.671875 0)"/>
      <use xlink:href="#TimesNewRomanPSMT-79" transform="translate(333.056641 0)"/>
     </g>
    </g>
   </g>
   <g id="line2d_31">
    <path d="M 380.942438 178.572717 
L 454.165586 146.772338 
L 473.910754 138.759404 
L 485.803278 136.408744 
L 494.340551 134.575534 
L 501.005036 132.446633 
L 506.472364 131.308269 
L 511.107837 128.972392 
L 515.131476 128.854128 
L 521.869784 126.991336 
L 524.75263 127.065251 
L 529.811355 124.433699 
L 534.149912 124.389351 
L 536.107985 123.132706 
L 537.948028 122.718769 
L 539.683465 122.689187 
L 541.325553 121.787365 
L 542.883824 122.452644 
L 544.366419 121.269931 
L 545.780351 120.929892 
L 547.131699 121.210799 
L 548.425768 120.161132 
L 549.667218 120.915109 
L 550.860162 120.678566 
L 552.008247 121.979559 
L 553.114726 121.284714 
L 554.182508 120.279395 
L 555.21421 120.974256 
L 556.21219 120.412457 
L 557.178583 120.841194 
L 558.115327 120.412457 
L 559.906777 120.382891 
L 560.764571 119.348007 
L 561.598926 119.525418 
L 562.411087 120.575085 
L 563.202206 119.702829 
L 563.973344 119.303658 
L 564.725487 119.229744 
L 565.459548 119.377573 
L 566.176376 118.727077 
L 566.876762 119.288875 
L 567.561442 119.392356 
L 568.231106 118.948836 
L 568.886399 119.200162 
L 570.156248 119.333224 
L 570.771903 118.638379 
L 571.37539 118.431402 
L 571.967181 118.061797 
L 572.547721 118.963619 
L 573.117429 119.170596 
L 573.676702 120.028069 
L 574.225916 118.475751 
L 574.765426 119.214961 
L 575.295569 119.007984 
L 575.816665 118.638379 
L 576.329017 119.36279 
L 576.832914 119.865457 
L 577.32863 119.052333 
L 577.816427 118.564464 
L 578.769249 118.786224 
L 579.234738 119.421938 
L 579.693237 118.874922 
L 580.144953 117.633061 
L 580.590084 118.653162 
L 581.02882 118.549681 
L 581.461341 118.29834 
L 581.887821 118.845356 
L 582.308426 117.795689 
L 582.723316 118.061797 
L 583.132645 119.155813 
L 583.9352 118.934053 
L 584.328704 118.120945 
L 585.100817 118.327922 
L 585.479674 118.59403 
L 585.853888 118.608813 
L 586.223571 118.978402 
L 586.588832 118.401836 
L 587.306502 119.096682 
L 587.65911 118.416619 
L 588.007692 118.786224 
L 588.35234 118.106146 
L 588.693141 118.446185 
L 589.03018 118.283557 
L 589.36354 118.653162 
L 589.6933 118.564464 
L 590.019537 118.209642 
L 590.342325 118.74186 
L 591.290707 118.268774 
L 591.6004 118.253991 
L 592.21052 118.638379 
L 592.511068 118.180077 
L 593.395361 118.224425 
L 593.684525 118.29834 
L 594.254765 118.091363 
L 594.535941 118.431402 
L 594.814551 118.091363 
L 595.090642 118.682728 
L 595.364259 118.180077 
L 595.904246 118.934053 
L 596.1707 118.313123 
L 596.434849 118.29834 
L 596.696733 118.490534 
L 596.95639 118.490534 
L 597.213857 118.801007 
L 597.469172 118.460968 
L 597.72237 118.313123 
L 598.222552 117.573929 
L 598.469604 117.9731 
L 598.714674 118.74186 
L 599.198989 118.416619 
L 599.438297 118.549681 
L 599.675743 118.29834 
L 599.911357 118.401836 
L 600.145167 118.327922 
L 600.607485 118.934053 
L 600.836045 117.958317 
L 601.062906 118.29834 
L 601.511635 118.313123 
L 601.733551 118.387053 
L 601.953866 118.180077 
L 602.172602 118.165294 
L 602.389782 118.313123 
L 602.605429 118.047014 
L 602.819564 118.180077 
L 603.032207 118.667945 
L 603.24338 118.268774 
L 603.868275 118.416619 
L 604.277878 119.14103 
L 604.882161 117.987883 
L 605.080961 118.37227 
L 605.278474 118.165294 
L 605.669709 118.830573 
L 605.863463 118.239208 
L 606.055994 118.801007 
L 606.24732 118.579247 
L 606.437454 118.564464 
L 606.626412 117.899185 
L 606.814208 118.342705 
L 607.000855 118.091363 
L 607.186369 118.505317 
L 607.370762 117.706991 
L 607.554049 118.253991 
L 607.917354 118.416619 
L 608.097399 118.061797 
L 608.276388 118.5201 
L 608.631249 118.74186 
L 608.807145 118.534883 
L 608.982034 118.59403 
L 609.155926 118.209642 
L 609.328834 118.712294 
L 609.500769 118.387053 
L 609.67174 118.786224 
L 609.84176 118.534883 
L 610.010838 118.579247 
L 610.178986 118.505317 
L 610.346212 118.224425 
L 610.512528 118.653162 
L 610.677942 118.313123 
L 610.842466 118.682728 
L 611.006107 118.638379 
L 611.168877 118.268774 
L 611.330783 118.327922 
L 611.491835 118.786224 
L 611.811414 118.357488 
L 611.969958 118.608813 
L 612.127683 118.209642 
L 612.284597 118.239208 
L 612.440709 118.623596 
L 612.596027 118.667945 
L 612.750559 118.460968 
L 612.904313 118.682728 
L 613.057297 118.431402 
L 613.209517 118.608813 
L 613.511702 118.283557 
L 613.66168 118.534883 
L 613.810925 118.135728 
L 614.107244 118.697511 
L 614.254332 118.475751 
L 614.5464 118.682728 
L 614.691393 118.830573 
L 614.835701 118.431402 
L 614.97933 118.623596 
L 615.122286 118.209642 
L 615.264577 118.59403 
L 615.406207 118.165294 
L 615.827199 118.786224 
L 616.10467 118.342705 
L 616.379642 118.638379 
L 616.516205 118.475751 
L 616.65216 119.36279 
L 616.787513 118.401836 
L 617.056431 118.874922 
L 617.190007 118.37227 
L 617.455419 119.007984 
L 617.587265 118.37227 
L 617.718544 118.756642 
L 617.849261 118.490534 
L 617.979421 118.771441 
L 618.109028 118.59403 
L 618.238088 118.845356 
L 618.366604 118.401836 
L 618.494582 118.74186 
L 618.622026 118.5201 
L 618.875329 118.860139 
L 619.126547 118.579247 
L 619.251386 119.14103 
L 619.622868 118.387053 
L 619.745698 118.460968 
L 619.868036 119.170596 
L 620.11125 118.534883 
L 620.232135 118.579247 
L 620.352543 118.904488 
L 620.591944 118.727077 
L 620.710945 118.993201 
L 620.947563 118.475751 
L 621.065189 118.963619 
L 621.182362 118.697511 
L 621.299088 118.712294 
L 621.41537 118.490534 
L 621.53121 118.59403 
L 621.646612 118.490534 
L 621.76158 118.697511 
L 621.990226 118.37227 
L 622.10391 119.022767 
L 622.55446 118.209642 
L 622.666066 118.727077 
L 622.888062 118.727077 
L 622.998458 118.460968 
L 623.21806 118.889705 
L 623.327271 118.697511 
L 623.544529 118.81579 
L 623.652581 118.81579 
L 623.760252 119.052333 
L 624.081005 118.667945 
L 624.187179 118.682728 
L 624.292984 118.81579 
L 624.398425 118.431402 
L 624.608219 118.948836 
L 624.712578 119.155813 
L 624.816582 118.712294 
L 624.920233 118.978402 
L 625.023533 118.74186 
L 625.126484 118.934053 
L 625.331352 118.59403 
L 625.433273 118.948836 
L 625.534855 118.81579 
L 625.6361 118.993201 
L 625.937836 118.682728 
L 626.037756 118.963619 
L 626.13735 118.756642 
L 626.335569 118.993201 
L 626.728187 118.74186 
L 626.825558 118.638379 
L 627.019373 119.111464 
L 627.211965 118.978402 
L 627.403351 118.874922 
L 627.593544 118.682728 
L 627.688199 118.934053 
L 627.78256 118.860139 
L 627.970414 118.919271 
L 628.157119 118.682728 
L 628.250045 119.007984 
L 628.435052 118.638379 
L 628.710479 119.111464 
L 628.801739 118.460968 
L 628.892727 118.830573 
L 629.073893 118.534883 
L 629.25399 119.03755 
L 629.343643 118.682728 
L 629.699641 119.185379 
L 629.787996 118.756642 
L 629.876096 118.801007 
L 629.963943 118.771441 
L 630.051538 119.03755 
L 630.225977 118.653162 
L 630.485781 119.126247 
L 630.657764 118.727077 
L 630.828783 119.111464 
L 630.913935 118.74186 
L 630.99885 118.889705 
L 631.08353 118.682728 
L 631.252188 119.126247 
L 631.419919 118.505317 
L 631.503441 118.904488 
L 631.586735 118.59403 
L 631.752644 119.096682 
L 631.835261 118.874922 
L 631.917656 119.096682 
L 631.999829 119.052333 
L 632.081781 118.534883 
L 632.163514 118.786224 
L 632.245029 118.5201 
L 632.407409 118.963619 
L 632.56893 118.845356 
L 632.729601 118.860139 
L 632.889431 118.860139 
L 633.048429 118.712294 
L 633.206603 119.081899 
L 633.285384 118.608813 
L 633.363962 119.067116 
L 633.442339 118.682728 
L 633.520515 118.845356 
L 633.676268 118.919271 
L 633.753848 118.874922 
L 633.831232 118.697511 
L 633.90842 118.845356 
L 633.985413 118.59403 
L 634.291458 119.022767 
L 634.518996 118.727077 
L 634.669752 118.963619 
L 634.744851 118.934053 
L 634.894499 118.801007 
L 634.969048 118.948836 
L 635.043416 118.860139 
L 635.33909 118.934053 
L 635.412563 119.03755 
L 635.48586 118.830573 
L 635.558981 119.007984 
L 635.631928 118.830573 
L 635.704701 118.889705 
L 635.777301 118.934053 
L 636.065986 118.638379 
L 636.137733 119.067116 
L 636.209311 118.889705 
L 636.280723 118.771441 
L 636.423046 119.052333 
L 636.635295 118.860139 
L 636.84608 118.904488 
L 636.916019 118.667945 
L 636.985798 118.727077 
L 637.12488 118.874922 
L 637.332323 118.534883 
L 637.538366 119.067116 
L 637.606739 118.74186 
L 637.67496 118.963619 
L 637.743028 118.667945 
L 637.810945 118.948836 
L 637.878712 118.860139 
L 638.013795 118.860139 
L 638.081113 118.549681 
L 638.148283 118.727077 
L 638.215305 119.007984 
L 638.282181 118.845356 
L 638.34891 118.786224 
L 638.415495 119.022767 
L 638.481934 118.697511 
L 638.548229 119.022767 
L 638.61438 118.934053 
L 638.746255 118.579247 
L 638.811979 118.874922 
L 638.877562 118.564464 
L 639.008307 119.081899 
L 639.138494 118.579247 
L 639.203381 118.874922 
L 639.268129 118.534883 
L 639.332741 118.59403 
L 639.397216 118.889705 
L 639.461556 118.845356 
L 639.653764 118.978402 
L 639.781235 118.712294 
L 639.844771 118.860139 
L 639.908175 118.59403 
L 639.971448 118.904488 
L 640.03459 118.860139 
L 640.28586 118.860139 
L 640.348356 119.007984 
L 640.410724 118.667945 
L 640.53508 119.067116 
L 640.597068 118.653162 
L 640.658931 118.934053 
L 640.720669 118.963619 
L 640.782282 118.771441 
L 640.843771 118.830573 
L 640.905136 119.081899 
L 640.966379 118.727077 
L 641.027499 118.919271 
L 641.088496 118.727077 
L 641.149373 118.889705 
L 641.270762 118.830573 
L 641.331276 119.03755 
L 641.512103 118.653162 
L 641.572141 118.919271 
L 641.632061 118.771441 
L 641.751551 119.007984 
L 641.81112 118.934053 
L 641.870574 118.653162 
L 641.929912 118.904488 
L 642.048244 118.564464 
L 642.107239 118.712294 
L 642.166119 118.860139 
L 642.224886 118.786224 
L 642.575134 118.904488 
L 642.633121 118.712294 
L 642.690997 118.74186 
L 642.748763 118.948836 
L 642.806421 118.756642 
L 643.035969 118.948836 
L 643.150099 118.623596 
L 643.207004 118.830573 
L 643.263804 118.712294 
L 643.546228 119.03755 
L 643.714437 118.697511 
L 643.881724 119.022767 
L 644.0481 118.874922 
L 644.103358 118.830573 
L 644.158516 118.963619 
L 644.213575 118.74186 
L 644.268534 118.801007 
L 644.432821 118.904488 
L 644.487388 118.993201 
L 644.541857 118.874922 
L 644.59623 118.919271 
L 644.650505 118.712294 
L 644.704685 118.860139 
L 644.758768 118.74186 
L 644.812756 118.786224 
L 644.866648 118.904488 
L 644.920446 118.81579 
L 644.974149 118.697511 
L 645.027757 119.007984 
L 645.081272 118.889705 
L 645.294398 118.81579 
L 645.347447 119.067116 
L 645.400405 118.934053 
L 645.453271 118.889705 
L 645.506046 119.007984 
L 645.611323 118.638379 
L 645.663825 119.067116 
L 645.716238 118.712294 
L 645.924992 118.948836 
L 646.080627 118.81579 
L 646.132329 118.889705 
L 646.235472 118.697511 
L 646.286913 119.03755 
L 646.389537 118.978402 
L 646.644595 118.74186 
L 646.695352 118.993201 
L 646.746025 118.756642 
L 646.847119 118.727077 
L 646.998136 118.919271 
L 647.148409 118.667945 
L 647.198336 118.904488 
L 647.248182 118.889705 
L 647.297946 118.727077 
L 647.34763 118.860139 
L 647.397233 118.919271 
L 647.446755 118.845356 
L 647.496197 118.830573 
L 647.545559 118.948836 
L 647.594842 118.667945 
L 647.644045 118.845356 
L 647.840069 118.934053 
L 647.888878 118.579247 
L 647.93761 118.948836 
L 648.034842 119.451504 
L 648.131764 119.14103 
L 648.4207 118.978402 
L 648.564149 119.200162 
L 648.754372 118.963619 
L 648.801743 118.845356 
L 648.849041 119.214961 
L 648.896266 118.993201 
L 648.990497 118.830573 
L 649.084438 119.03755 
L 649.1313 118.978402 
L 649.271457 118.904488 
L 649.318033 118.845356 
L 649.364538 118.934053 
L 649.410973 119.03755 
L 649.457337 118.771441 
L 649.503631 118.889705 
L 649.549855 118.963619 
L 649.596009 118.697511 
L 649.642093 119.111464 
L 649.734054 119.03755 
L 649.779931 118.874922 
L 649.871477 118.919271 
L 649.962751 118.948836 
L 650.008285 119.096682 
L 650.053752 118.889705 
L 650.189748 119.007984 
L 650.234945 118.771441 
L 650.32514 118.830573 
L 650.459935 119.067116 
L 650.549468 118.682728 
L 650.594137 118.889705 
L 650.683279 118.801007 
L 650.727752 118.919271 
L 650.860785 118.889705 
L 651.037266 119.244527 
L 651.212732 118.756642 
L 651.343673 118.786224 
L 651.387196 118.653162 
L 651.430657 119.126247 
L 651.517393 119.067116 
L 651.647037 118.786224 
L 651.733162 118.993201 
L 651.776133 118.948836 
L 651.819044 118.653162 
L 651.861895 118.874922 
L 652.032699 118.993201 
L 652.160178 118.81579 
L 652.287127 118.860139 
L 652.539453 118.860139 
L 652.581306 118.74186 
L 652.664839 118.830573 
L 652.789711 118.978402 
L 652.872677 118.81579 
L 652.914075 118.934053 
L 652.955417 118.934053 
L 652.996704 118.801007 
L 653.07911 118.860139 
L 653.161294 118.830573 
L 653.202303 119.03755 
L 653.325001 118.756642 
L 653.406527 118.934053 
L 653.447208 118.830573 
L 653.609394 118.874922 
L 653.690165 118.934053 
L 653.730471 118.860139 
L 653.770723 118.786224 
L 653.810923 118.889705 
L 653.851069 118.889705 
L 653.891163 118.74186 
L 653.971193 118.81579 
L 654.051014 119.03755 
L 654.090846 118.830573 
L 654.130627 118.81579 
L 654.170355 119.067116 
L 654.249658 118.860139 
L 654.289232 118.771441 
L 654.328755 118.874922 
L 654.368227 118.919271 
L 654.407648 118.638379 
L 654.447018 118.948836 
L 654.486338 118.786224 
L 654.603993 119.03755 
L 654.643111 118.74186 
L 654.721197 118.845356 
L 654.799083 118.756642 
L 654.837952 118.801007 
L 654.954263 118.963619 
L 654.992935 118.874922 
L 655.031559 119.214961 
L 655.108659 118.978402 
L 655.223945 119.096682 
L 655.376986 118.874922 
L 655.491266 118.889705 
L 655.529264 118.786224 
L 655.567215 118.963619 
L 655.605119 118.889705 
L 655.642976 118.860139 
L 655.680786 119.03755 
L 655.756266 118.948836 
L 655.793936 118.712294 
L 655.869138 118.919271 
L 655.906669 118.963619 
L 655.944154 118.889705 
L 655.981594 118.845356 
L 656.018987 118.889705 
L 656.168104 119.007984 
L 656.20527 118.786224 
L 656.242391 118.963619 
L 656.279466 119.03755 
L 656.316497 118.801007 
L 656.390424 118.860139 
L 656.42732 119.052333 
L 656.464172 118.934053 
L 656.611137 118.682728 
L 656.757397 118.963619 
L 656.830265 118.786224 
L 656.866634 118.845356 
L 656.90296 119.03755 
L 656.939243 118.830573 
L 656.975482 118.81579 
L 657.120012 118.993201 
L 657.263861 118.830573 
L 657.407035 118.948836 
L 657.620546 118.978402 
L 657.762062 118.845356 
L 657.902924 119.081899 
L 657.938039 118.830573 
L 658.008147 119.007984 
L 658.04314 118.978402 
L 658.078094 118.727077 
L 658.182715 118.771441 
L 658.321655 118.948836 
L 658.356291 118.81579 
L 658.390889 118.904488 
L 658.425447 118.993201 
L 658.459966 118.845356 
L 658.494446 118.845356 
L 658.597652 119.022767 
L 658.631977 118.727077 
L 658.700512 118.934053 
L 658.837121 119.126247 
L 658.871178 119.022767 
L 658.973121 118.81579 
L 659.007027 119.052333 
L 659.074725 118.948836 
L 659.108519 118.963619 
L 659.142274 118.860139 
L 659.175993 118.845356 
L 659.209674 118.948836 
L 659.243318 119.170596 
L 659.276926 153.14424 
L 659.344029 126.296491 
L 659.511146 118.313123 
L 659.544459 118.771441 
L 659.610978 118.549681 
L 659.644183 118.534883 
L 659.677353 118.667945 
L 659.710486 118.608813 
L 659.743583 118.416619 
L 659.80967 118.59403 
L 659.84266 118.534883 
L 659.875614 118.608813 
L 659.908533 118.682728 
L 660.007077 118.638379 
L 660.137976 118.608813 
L 660.170613 118.579247 
L 660.203216 118.623596 
L 660.300815 118.682728 
L 660.495082 118.534883 
L 660.52734 118.682728 
L 660.591754 118.505317 
L 660.656032 118.638379 
L 660.720176 118.59403 
L 660.84806 118.475751 
L 660.879947 118.534883 
L 660.943623 118.460968 
L 660.97541 118.357488 
L 661.007165 118.416619 
L 661.165446 118.608813 
L 661.322911 118.534883 
L 661.354306 118.623596 
L 661.38567 118.475751 
L 661.417001 118.564464 
L 661.666501 118.5201 
L 661.75954 118.697511 
L 661.821409 118.653162 
L 661.975535 118.490534 
L 662.006268 118.59403 
L 662.098279 118.564464 
L 662.402996 118.549681 
L 662.433301 118.446185 
L 662.524037 118.505317 
L 662.644599 118.564464 
L 662.794636 118.579247 
L 662.854445 118.667945 
L 662.914137 118.579247 
L 663.062859 118.534883 
L 663.092516 118.342705 
L 663.181317 118.401836 
L 663.358147 118.5201 
L 663.475467 118.401836 
L 663.504726 118.475751 
L 663.533958 118.579247 
L 663.563162 118.253991 
L 663.650606 118.327922 
L 663.7378 118.549681 
L 663.795792 118.5201 
L 663.824747 118.327922 
L 663.911446 118.37227 
L 664.026663 118.416619 
L 664.112792 118.490534 
L 664.170076 118.342705 
L 664.255802 118.505317 
L 664.284324 118.460968 
L 664.341288 118.431402 
L 664.36973 118.327922 
L 664.454897 118.357488 
L 664.483234 118.475751 
L 664.511544 118.29834 
L 664.539828 118.460968 
L 664.624524 118.29834 
L 664.652703 118.357488 
L 664.708985 118.475751 
L 664.737087 118.268774 
L 664.821237 118.490534 
L 664.849236 118.446185 
L 664.905157 118.505317 
L 664.960975 118.342705 
L 664.988846 118.549681 
L 665.072307 118.416619 
L 665.100076 118.401836 
L 665.127821 118.460968 
L 665.15554 118.549681 
L 665.183234 118.357488 
L 665.238547 118.460968 
L 665.458802 118.387053 
L 665.486222 118.446185 
L 665.595659 118.431402 
L 665.704704 118.313123 
L 665.840466 118.460968 
L 665.894602 118.387053 
L 665.921634 118.313123 
L 665.948642 118.534883 
L 665.975627 118.431402 
L 666.002587 118.446185 
L 666.029524 118.253991 
L 666.110192 118.475751 
L 666.190647 118.5201 
L 666.163852 118.446185 
L 666.217418 118.475751 
L 666.350925 118.416619 
L 666.668978 118.313123 
L 666.747976 118.608813 
L 666.774263 118.342705 
L 666.905362 118.475751 
L 666.931514 118.401836 
L 666.957644 118.579247 
L 667.009837 118.431402 
L 667.13993 118.387053 
L 667.269472 118.342705 
L 667.295314 118.59403 
L 667.372711 118.342705 
L 667.526918 118.446185 
L 667.552543 118.357488 
L 667.654831 118.29834 
L 667.68035 118.579247 
L 667.756777 118.37227 
L 667.782211 118.387053 
L 667.807623 118.549681 
L 667.883734 118.505317 
L 667.909062 118.357488 
L 667.959655 118.534883 
L 668.010164 118.416619 
L 668.035388 118.431402 
L 668.06059 118.667945 
L 668.110933 118.416619 
L 668.136073 118.475751 
L 668.161193 118.549681 
L 668.211371 118.490534 
L 668.236428 118.37227 
L 668.261466 118.638379 
L 668.311479 118.446185 
L 668.436154 118.490534 
L 668.461028 118.623596 
L 668.535529 118.5201 
L 668.560323 118.446185 
L 668.609849 118.623596 
L 668.634582 118.549681 
L 668.733314 118.446185 
L 668.757948 118.771441 
L 668.856283 118.608813 
L 668.954302 118.579247 
L 668.905332 118.727077 
L 668.978758 118.59403 
L 669.003194 118.801007 
L 669.027611 118.549681 
L 669.076386 118.653162 
L 669.463804 118.756642 
L 669.487856 118.534883 
L 669.583872 118.638379 
L 669.607829 118.534883 
L 669.631767 118.697511 
L 669.679587 118.638379 
L 669.964945 118.608813 
L 669.988605 118.505317 
L 670.012246 118.667945 
L 670.083061 118.549681 
L 670.200723 118.431402 
L 670.153712 118.59403 
L 670.224201 118.505317 
L 670.317932 118.59403 
L 670.364691 118.460968 
L 670.434694 118.475751 
L 670.666886 118.505317 
L 670.759271 118.667945 
L 670.828377 118.446185 
L 670.897326 118.460968 
L 670.920275 118.59403 
L 671.011897 118.475751 
L 671.307786 118.579247 
L 671.443389 118.549681 
L 671.465931 118.5201 
L 671.488456 118.623596 
L 671.533457 118.534883 
L 671.600835 118.74186 
L 671.623261 118.446185 
L 671.712801 118.579247 
L 671.757473 118.505317 
L 671.80208 118.59403 
L 671.846621 118.534883 
L 671.913312 118.74186 
L 672.046258 118.505317 
L 672.134569 118.697511 
L 672.178628 118.564464 
L 672.419826 118.653162 
L 672.485278 118.81579 
L 672.463476 118.505317 
L 672.507064 118.697511 
L 672.594053 118.756642 
L 672.637455 118.579247 
L 672.659133 118.727077 
L 672.724075 118.416619 
L 672.745691 118.638379 
L 672.810449 118.712294 
L 672.87507 118.5201 
L 672.918074 118.623596 
L 673.068115 118.697511 
L 673.196138 118.549681 
L 673.238693 118.623596 
L 673.259949 118.712294 
L 673.302415 118.579247 
L 673.323626 118.682728 
L 673.429461 118.505317 
L 673.471692 118.756642 
L 673.555981 118.74186 
L 673.577016 118.74186 
L 673.681978 118.416619 
L 673.702927 118.5201 
L 673.807458 118.697511 
L 673.828321 118.667945 
L 673.84917 118.59403 
L 673.890825 118.801007 
L 673.932424 118.638379 
L 674.015452 118.564464 
L 674.056881 118.756642 
L 674.139571 118.549681 
L 674.201442 118.623596 
L 674.222038 118.756642 
L 674.283743 118.59403 
L 674.304283 118.59403 
L 674.427237 118.830573 
L 674.468112 118.801007 
L 674.590408 118.623596 
L 674.508932 118.830573 
L 674.610744 118.667945 
L 674.752713 118.771441 
L 674.793154 118.682728 
L 674.873877 118.564464 
L 674.894025 118.712294 
L 674.994563 118.830573 
L 675.034686 118.845356 
L 675.114774 118.608813 
L 675.234513 118.830573 
L 675.254424 118.771441 
L 675.333938 118.830573 
L 675.314079 118.74186 
L 675.353784 118.81579 
L 675.492348 118.653162 
L 675.512092 118.845356 
L 675.610619 118.756642 
L 675.728433 118.948836 
L 675.748025 118.860139 
L 675.78717 118.712294 
L 675.865311 118.845356 
L 676.001578 118.727077 
L 676.020995 118.771441 
L 676.0404 119.007984 
L 676.079173 118.74186 
L 676.117897 118.845356 
L 676.156571 118.963619 
L 676.214491 118.682728 
L 676.291547 118.948836 
L 676.330003 118.845356 
L 676.36841 118.74186 
L 676.445079 118.845356 
L 676.521556 118.727077 
L 676.502455 118.889705 
L 676.559723 118.81579 
L 676.597843 118.889705 
L 676.616884 118.712294 
L 676.654932 118.786224 
L 676.673939 118.904488 
L 676.692933 118.697511 
L 676.768793 118.845356 
L 676.882231 118.697511 
L 676.901096 118.727077 
L 676.91995 118.845356 
L 676.957622 118.638379 
L 677.014044 118.756642 
L 677.089111 118.579247 
L 677.070362 118.830573 
L 677.145291 118.771441 
L 677.163994 118.948836 
L 677.238694 118.697511 
L 677.257341 118.919271 
L 677.350403 118.712294 
L 677.2946 118.934053 
L 677.368981 118.74186 
L 677.443182 118.889705 
L 677.480215 118.756642 
L 677.498714 118.682728 
L 677.53568 118.786224 
L 677.554146 118.771441 
L 677.572601 118.860139 
L 677.627899 118.608813 
L 677.664708 118.771441 
L 677.884639 118.59403 
L 678.012205 118.904488 
L 678.048554 118.623596 
L 678.121124 118.919271 
L 678.211594 118.756642 
L 678.229656 118.81579 
L 678.283778 118.653162 
L 678.355791 118.860139 
L 678.40969 118.948836 
L 678.481407 118.682728 
L 678.535085 118.74186 
L 678.552957 118.59403 
L 678.624339 118.801007 
L 678.713332 118.889705 
L 678.784341 118.919271 
L 678.819783 118.638379 
L 678.925865 118.904488 
L 678.855185 118.5201 
L 678.943509 118.874922 
L 678.961143 118.727077 
L 679.031579 118.948836 
L 679.066736 118.756642 
L 679.084299 118.874922 
L 679.101852 118.564464 
L 679.189467 118.845356 
L 679.224442 118.919271 
L 679.276831 118.638379 
L 679.363946 118.978402 
L 679.381339 118.712294 
L 679.416095 118.727077 
L 679.433459 118.59403 
L 679.450812 118.786224 
L 679.502814 118.653162 
L 679.520129 139.439466 
L 679.606553 119.643697 
L 679.70994 118.37227 
L 679.744325 118.579247 
L 679.761503 118.460968 
L 679.778671 118.682728 
L 679.847248 118.608813 
L 679.881479 118.534883 
L 679.949825 118.579247 
L 679.983941 118.608813 
L 680.018019 118.5201 
L 680.035044 118.564464 
L 680.086061 118.608813 
L 680.1709 118.490534 
L 680.272398 118.490534 
L 680.339876 118.460968 
L 680.407205 118.579247 
L 680.491158 118.431402 
L 680.524675 118.534883 
L 680.675047 118.446185 
L 680.791493 118.357488 
L 680.824682 118.387053 
L 680.841263 118.29834 
L 680.857835 118.29834 
L 680.94056 118.37227 
L 680.957078 118.268774 
L 680.973587 118.342705 
L 681.056 118.283557 
L 681.154602 118.239208 
L 681.171005 118.268774 
L 681.301911 118.342705 
L 681.350857 118.387053 
L 681.432259 118.327922 
L 681.464759 118.29834 
L 681.480996 118.342705 
L 681.562052 118.209642 
L 681.594414 118.268774 
L 681.67517 118.253991 
L 681.803937 118.342705 
L 681.868118 118.194859 
L 681.932164 118.239208 
L 682.043922 118.29834 
L 682.059854 118.268774 
L 682.171146 118.165294 
L 682.1076 118.29834 
L 682.187012 118.239208 
L 682.218719 118.342705 
L 682.282035 118.224425 
L 682.376763 118.165294 
L 682.345219 118.313123 
L 682.392522 118.253991 
L 682.455478 118.135728 
L 682.502611 118.268774 
L 682.612304 118.120945 
L 682.659195 118.150511 
L 682.752762 118.180077 
L 682.783887 118.135728 
L 682.92356 118.106146 
L 682.985432 118.283557 
L 683.031754 118.224425 
L 683.047179 118.120945 
L 683.139566 118.239208 
L 683.246999 118.135728 
L 683.262316 118.180077 
L 683.277625 118.357488 
L 683.30822 118.135728 
L 683.369318 118.224425 
L 683.536711 118.387053 
L 683.597355 118.239208 
L 683.657878 118.313123 
L 683.763506 118.37227 
L 683.718281 118.239208 
L 683.778566 118.357488 
L 683.823701 118.239208 
L 683.898778 118.313123 
L 683.973671 118.431402 
L 684.078214 118.224425 
L 684.212103 118.431402 
L 684.345407 118.37227 
L 684.404467 118.446185 
L 684.448687 118.416619 
L 684.478132 118.342705 
L 684.551619 118.387053 
L 684.566295 118.475751 
L 684.580964 118.342705 
L 684.639571 118.387053 
L 684.712671 118.29834 
L 684.756448 118.327922 
L 684.829269 118.268774 
L 684.872879 118.342705 
L 684.887401 118.431402 
L 684.959912 118.313123 
L 684.974393 118.357488 
L 684.988867 118.283557 
L 685.046697 118.387053 
L 685.075571 118.387053 
L 685.089997 118.446185 
L 685.104417 118.283557 
L 685.147636 118.283557 
L 685.219532 118.194859 
L 685.248242 118.268774 
L 685.348518 118.342705 
L 685.305583 118.209642 
L 685.377108 118.313123 
L 685.448466 118.194859 
L 685.405672 118.327922 
L 685.505433 118.29834 
L 685.519658 118.357488 
L 685.533876 118.209642 
L 685.604869 118.268774 
L 685.689843 118.209642 
L 685.63322 118.327922 
L 685.732242 118.253991 
L 685.788682 118.313123 
L 685.802776 118.29834 
L 685.816863 118.180077 
L 685.887202 118.342705 
L 685.90125 118.342705 
L 685.915292 118.29834 
L 685.971395 118.431402 
L 685.999408 118.387053 
L 686.013405 118.401836 
L 686.041379 118.283557 
L 686.055357 118.224425 
L 686.083293 118.342705 
L 686.139088 118.327922 
L 686.250374 118.431402 
L 686.278132 118.37227 
L 686.319723 118.401836 
L 686.416546 118.446185 
L 686.457949 118.283557 
L 686.78716 118.534883 
L 686.800801 118.37227 
L 686.896113 118.490534 
L 686.923291 118.431402 
L 687.031761 118.475751 
L 687.045292 118.401836 
L 687.11286 118.534883 
L 687.139846 118.490534 
L 687.260987 118.431402 
L 687.30126 118.475751 
L 687.475168 118.37227 
L 687.488505 118.327922 
L 687.528479 118.460968 
L 687.5551 118.401836 
L 687.581698 118.904488 
L 687.594988 126.429553 
L 687.674608 118.653162 
L 687.687858 119.052333 
L 687.767236 117.958317 
L 687.806848 118.091363 
L 687.951653 117.913968 
L 687.964783 117.928751 
L 688.213189 117.9731 
L 688.226207 118.091363 
L 688.31718 118.002666 
L 688.485412 118.106146 
L 688.498315 118.061797 
L 688.614194 118.07658 
L 688.691204 118.150511 
L 688.71683 118.091363 
L 688.729636 118.032231 
L 688.793582 118.135728 
L 688.806355 118.106146 
L 688.831885 118.180077 
L 688.921073 118.135728 
L 689.08602 118.283557 
L 689.111318 118.135728 
L 689.199695 118.209642 
L 689.300385 118.283557 
L 689.262665 118.135728 
L 689.312948 118.209642 
L 689.463301 118.313123 
L 689.475797 118.253991 
L 689.538201 118.209642 
L 689.513255 118.268774 
L 689.588033 118.253991 
L 689.662628 118.239208 
L 689.625353 118.29834 
L 689.687452 118.268774 
L 689.77418 118.283557 
L 689.724651 118.209642 
L 689.786549 118.239208 
L 689.798914 118.209642 
L 689.823628 118.342705 
L 689.860661 118.327922 
L 689.946899 118.401836 
L 689.959199 118.37227 
L 690.045159 118.29834 
L 689.996068 118.401836 
L 690.069674 118.327922 
L 690.20416 118.401836 
L 690.216356 118.342705 
L 690.951286 118.239208 
L 691.081952 118.180077 
L 691.15299 118.253991 
L 691.176632 118.150511 
L 691.188447 118.150511 
L 691.212062 118.135728 
L 691.329864 118.253991 
L 691.388595 118.150511 
L 691.42378 118.268774 
L 691.458924 118.165294 
L 691.529091 118.283557 
L 691.610749 118.165294 
L 691.645678 118.239208 
L 691.81973 118.135728 
L 691.831298 118.106146 
L 691.865976 118.29834 
L 691.912153 118.194859 
L 691.935215 118.253991 
L 692.015796 118.327922 
L 691.95826 118.150511 
L 692.050265 118.268774 
L 692.107628 118.165294 
L 692.153441 118.29834 
L 692.336009 118.209642 
L 692.347383 118.180077 
L 692.404191 118.29834 
L 692.41554 118.283557 
L 692.426885 118.357488 
L 692.483545 118.224425 
L 692.50618 118.253991 
L 692.551399 118.209642 
L 692.596552 118.327922 
L 692.607829 118.29834 
L 693.232823 118.37227 
L 693.243868 118.446185 
L 693.321073 118.283557 
L 693.343095 118.387053 
L 693.431027 118.29834 
L 693.398083 118.416619 
L 693.463937 118.327922 
L 693.551522 118.239208 
L 693.573379 118.37227 
L 693.649756 118.194859 
L 693.617046 118.401836 
L 693.68243 118.37227 
L 693.693314 118.431402 
L 693.780245 118.313123 
L 693.791094 118.313123 
L 693.899372 118.5201 
L 693.910179 118.446185 
L 693.953367 118.342705 
L 693.996495 118.5201 
L 694.028801 118.401836 
L 694.071822 118.579247 
L 694.146964 118.534883 
L 694.232614 118.579247 
L 694.168399 118.505317 
L 694.253989 118.505317 
L 694.27535 118.460968 
L 694.307362 118.608813 
L 694.328685 118.579247 
L 694.339341 118.59403 
L 694.360641 118.490534 
L 694.371286 118.505317 
L 694.381927 118.416619 
L 694.435077 118.638379 
L 694.488134 118.446185 
L 694.562259 118.387053 
L 694.625653 118.564464 
L 694.709973 118.416619 
L 694.731016 118.564464 
L 694.898846 118.401836 
L 694.91976 118.446185 
L 694.94066 118.549681 
L 694.982416 118.401836 
L 695.034531 118.534883 
L 695.138496 118.59403 
L 695.065758 118.475751 
L 695.159247 118.579247 
L 695.273123 118.460968 
L 695.304107 118.579247 
L 695.39687 118.549681 
L 695.427728 118.505317 
L 695.417446 118.667945 
L 695.458556 118.608813 
L 695.468825 118.697511 
L 695.530365 118.505317 
L 695.561089 118.623596 
L 695.642869 118.475751 
L 695.683677 118.5201 
L 695.765129 118.460968 
L 695.795618 118.682728 
L 695.86664 118.460968 
L 695.927385 118.5201 
L 695.998101 118.431402 
L 695.967814 118.579247 
L 696.038438 118.475751 
L 696.088783 118.401836 
L 696.139045 118.579247 
L 696.149088 118.327922 
L 696.249333 118.490534 
L 696.269342 118.327922 
L 696.299332 118.59403 
L 696.349249 118.475751 
L 696.418997 118.667945 
L 696.458781 118.475751 
L 696.567921 118.59403 
L 696.597619 118.564464 
L 696.607512 118.460968 
L 696.647052 118.579247 
L 696.706265 118.490534 
L 696.765364 118.653162 
L 696.785039 118.416619 
L 696.814526 118.564464 
L 696.843986 118.653162 
L 696.932193 118.475751 
L 696.95176 118.682728 
L 697.049408 118.564464 
L 697.107847 118.475751 
L 697.117576 118.653162 
L 697.137025 118.505317 
L 697.146745 118.667945 
L 697.166175 118.460968 
L 697.243772 118.638379 
L 697.321173 118.431402 
L 697.3598 118.564464 
L 697.427279 118.653162 
L 697.398378 118.5201 
L 697.475388 118.59403 
L 697.542613 118.505317 
L 697.552204 118.653162 
L 697.571378 118.579247 
L 697.657512 118.712294 
L 697.67662 118.5201 
L 697.743404 118.74186 
L 697.791017 118.623596 
L 697.867045 118.74186 
L 697.876535 118.534883 
L 697.942883 118.81579 
L 697.990187 118.771441 
L 698.056289 118.59403 
L 698.103418 118.727077 
L 698.234992 118.505317 
L 698.13166 118.74186 
L 698.253742 118.608813 
L 698.356662 118.756642 
L 698.27248 118.5201 
L 698.366001 118.74186 
L 698.412655 118.549681 
L 698.47785 118.608813 
L 698.496451 118.564464 
L 698.58929 118.756642 
L 698.617086 118.564464 
L 698.663358 118.801007 
L 698.691087 118.653162 
L 698.700324 118.786224 
L 698.72802 118.59403 
L 698.801753 118.712294 
L 698.810957 118.756642 
L 698.875308 118.59403 
L 698.88449 118.638379 
L 698.912019 118.59403 
L 698.976158 118.74186 
L 699.131364 118.608813 
L 699.140469 118.682728 
L 699.167769 118.59403 
L 699.240449 118.801007 
L 699.276724 118.59403 
L 699.349145 118.667945 
L 699.394321 118.801007 
L 699.385291 118.608813 
L 699.466464 118.756642 
L 699.47547 118.564464 
L 699.511467 118.786224 
L 699.57436 118.653162 
L 699.637124 118.845356 
L 699.619205 118.59403 
L 699.699759 118.801007 
L 699.74442 118.534883 
L 699.815742 118.623596 
L 699.824645 118.608813 
L 699.833546 118.667945 
L 699.842444 118.830573 
L 699.931285 118.59403 
L 699.940155 118.667945 
L 700.011021 118.59403 
L 699.966749 118.771441 
L 700.037554 118.697511 
L 700.072895 118.81579 
L 700.081724 118.667945 
L 700.143454 118.786224 
L 700.240208 118.564464 
L 700.161069 118.845356 
L 700.257767 118.653162 
L 700.30162 118.860139 
L 700.397874 118.830573 
L 700.519943 118.564464 
L 700.589478 118.845356 
L 700.632857 118.801007 
L 700.684831 118.667945 
L 700.658855 118.948836 
L 700.736717 118.712294 
L 700.779887 118.889705 
L 700.822997 118.697511 
L 700.848834 118.74186 
L 700.926213 118.904488 
L 700.883248 118.697511 
L 700.96054 118.81579 
L 701.046191 118.638379 
L 700.99483 118.889705 
L 701.063293 118.727077 
L 701.148657 118.904488 
L 701.165701 118.74186 
L 701.182735 118.59403 
L 701.242282 118.874922 
L 701.259274 118.727077 
L 701.267766 118.801007 
L 701.310193 118.638379 
L 701.361028 118.771441 
L 701.377954 118.653162 
L 701.428676 118.904488 
L 701.47088 118.786224 
L 701.504601 118.993201 
L 701.487745 118.59403 
L 701.571932 118.874922 
L 701.672651 118.579247 
L 701.605542 118.904488 
L 701.689406 118.712294 
L 701.697779 118.59403 
L 701.764686 118.948836 
L 701.798085 118.653162 
L 701.839782 118.978402 
L 701.914693 118.801007 
L 701.997713 118.564464 
L 701.97283 118.874922 
L 702.022574 118.712294 
L 702.105302 118.860139 
L 702.12182 118.623596 
L 702.13833 118.81579 
L 702.20428 118.874922 
L 702.245426 118.697511 
L 702.31935 118.978402 
L 702.335753 118.638379 
L 702.360341 118.756642 
L 702.409459 118.919271 
L 702.45033 118.682728 
L 702.52376 118.934053 
L 702.564478 118.845356 
L 702.605142 118.74186 
L 702.621392 118.712294 
L 702.629514 118.904488 
L 702.661981 118.845356 
L 702.670092 118.934053 
L 702.751086 118.667945 
L 702.775342 118.889705 
L 702.783423 118.712294 
L 702.847996 118.904488 
L 702.880231 118.830573 
L 702.96067 118.993201 
L 702.904385 118.727077 
L 702.992786 118.889705 
L 703.064925 118.697511 
L 703.032884 118.963619 
L 703.104928 118.756642 
L 703.128905 118.993201 
L 703.168825 118.667945 
L 703.224625 118.904488 
L 703.312106 118.697511 
L 703.248509 118.978402 
L 703.351787 118.727077 
L 703.367645 119.007984 
L 703.462621 118.874922 
L 703.502107 118.786224 
L 703.478421 119.03755 
L 703.573054 118.874922 
L 703.635979 118.786224 
L 703.62026 118.948836 
L 703.683089 118.874922 
L 703.792729 118.74186 
L 703.722291 118.978402 
L 703.808359 118.771441 
L 703.839597 118.993201 
L 703.917551 118.904488 
L 703.964228 118.697511 
L 704.010834 118.978402 
L 704.026354 118.860139 
L 704.034111 118.860139 
L 704.088353 118.74186 
L 704.08061 118.904488 
L 704.1425 118.889705 
L 704.150227 118.963619 
L 704.219686 118.786224 
L 704.250505 118.904488 
L 704.365803 118.74186 
L 704.281294 119.022767 
L 704.373474 118.81579 
L 704.41946 119.022767 
L 704.48831 118.860139 
L 704.511225 118.889705 
L 704.51886 118.81579 
L 704.610327 119.081899 
L 704.549379 118.801007 
L 704.625545 118.845356 
L 704.731858 118.978402 
L 704.655958 118.786224 
L 704.747015 118.934053 
L 704.852907 118.81579 
L 704.830247 118.993201 
L 704.860457 118.830573 
L 704.905716 119.067116 
L 704.965957 118.756642 
L 705.056097 119.007984 
L 705.093576 118.948836 
L 705.145971 118.919271 
L 705.153448 118.801007 
L 705.168398 119.081899 
L 705.243037 118.919271 
L 705.295176 119.096682 
L 705.272841 118.874922 
L 705.354654 118.993201 
L 705.443655 118.845356 
L 705.369506 119.111464 
L 705.465865 118.860139 
L 705.495453 119.067116 
L 705.502845 118.845356 
L 705.584045 119.052333 
L 705.628245 119.170596 
L 705.598785 118.963619 
L 705.67973 119.022767 
L 705.760462 118.889705 
L 705.731129 119.081899 
L 705.782442 118.963619 
L 705.826356 119.155813 
L 705.797087 118.874922 
L 705.892109 119.007984 
L 705.935865 118.74186 
L 705.913995 119.155813 
L 706.001382 118.919271 
L 706.081269 119.111464 
L 706.10302 118.978402 
L 706.110267 118.771441 
L 706.175411 119.111464 
L 706.20432 119.007984 
L 706.276472 118.845356 
L 706.319682 119.111464 
L 706.348454 118.860139 
L 706.448944 118.978402 
L 706.45611 118.978402 
L 706.491911 119.096682 
L 706.520522 118.830573 
L 706.563387 118.993201 
L 706.613322 118.860139 
L 706.584798 119.03755 
L 706.670289 118.993201 
L 706.698733 119.067116 
L 706.712946 118.904488 
L 706.769728 118.934053 
L 706.826405 118.904488 
L 706.783907 119.111464 
L 706.833482 118.993201 
L 706.840558 119.067116 
L 706.890041 118.889705 
L 706.925337 119.007984 
L 706.932392 118.81579 
L 707.02395 119.081899 
L 707.030982 118.919271 
L 707.108223 119.111464 
L 707.087177 118.830573 
L 707.143268 118.993201 
L 707.241181 118.889705 
L 707.185269 119.022767 
L 707.255143 118.948836 
L 707.283047 119.067116 
L 707.352698 118.874922 
L 707.359654 118.978402 
L 707.366609 118.874922 
L 707.42913 119.081899 
L 707.47074 118.978402 
L 707.512294 118.845356 
L 707.505372 119.096682 
L 707.533049 118.993201 
L 707.539965 119.096682 
L 707.629722 118.81579 
L 707.77416 119.067116 
L 707.664174 118.786224 
L 707.794738 118.948836 
L 707.870073 118.771441 
L 707.876913 119.03755 
L 707.904255 118.934053 
L 708.061002 118.978402 
L 708.067798 118.756642 
L 708.074594 119.03755 
L 708.16957 118.948836 
L 708.257498 118.874922 
L 708.250743 119.067116 
L 708.277753 118.978402 
L 708.324964 119.03755 
L 708.29125 118.801007 
L 708.385555 118.993201 
L 708.412446 118.830573 
L 708.405726 119.03755 
L 708.492978 118.874922 
L 708.499679 119.022767 
L 708.506379 118.830573 
L 708.600023 119.007984 
L 708.606701 118.860139 
L 708.71335 118.934053 
L 708.753247 118.874922 
L 708.799728 118.993201 
L 708.806363 118.860139 
L 708.832886 119.007984 
L 708.912318 118.934053 
L 709.017906 118.81579 
L 708.945353 118.993201 
L 709.024493 118.904488 
L 709.083714 118.963619 
L 709.044246 118.786224 
L 709.116564 118.919271 
L 709.12313 118.756642 
L 709.155939 118.978402 
L 709.227994 118.845356 
L 709.339017 118.978402 
L 709.293351 118.830573 
L 709.345536 118.963619 
L 709.404138 118.830573 
L 709.462627 118.904488 
L 709.546915 118.948836 
L 709.527484 118.830573 
L 709.566333 118.889705 
L 709.643882 118.948836 
L 709.656787 118.874922 
L 709.663238 118.978402 
L 709.753406 118.830573 
L 709.766266 118.919271 
L 709.856131 118.830573 
L 709.830482 118.963619 
L 709.875353 118.889705 
L 709.907364 118.948836 
L 709.939341 118.845356 
L 709.977669 118.860139 
L 710.066915 118.830573 
L 710.022324 118.904488 
L 710.086005 118.845356 
L 710.174935 118.904488 
L 710.136854 118.830573 
L 710.200296 118.889705 
L 710.269931 118.771441 
L 710.326787 118.81579 
L 710.383538 118.756642 
L 710.339408 118.874922 
L 710.433894 118.845356 
L 710.484167 118.786224 
L 710.553159 118.860139 
L 710.684438 118.786224 
L 710.690675 118.81579 
L 710.709379 118.889705 
L 710.796515 118.786224 
L 710.802729 118.874922 
L 710.901989 118.786224 
L 710.932942 118.81579 
L 710.939129 118.860139 
L 710.970044 118.727077 
L 711.044113 118.830573 
L 711.093392 118.874922 
L 711.15488 118.786224 
L 711.23463 118.889705 
L 711.265247 118.845356 
L 711.301948 118.771441 
L 711.363018 118.889705 
L 711.387411 118.830573 
L 712.938401 118.771441 
L 713.00207 118.712294 
L 712.955779 118.801007 
L 713.048291 118.756642 
L 716.345033 118.860139 
L 716.350215 118.978402 
L 716.355396 123.531877 
L 716.401987 118.904488 
L 716.458834 119.274093 
L 716.603062 119.155813 
L 716.6082 119.170596 
L 716.858928 119.067116 
L 716.970834 118.993201 
L 716.874212 119.081899 
L 716.980987 119.052333 
L 717.132877 118.978402 
L 717.158119 118.889705 
L 717.243785 118.934053 
L 717.248817 118.919271 
L 717.319174 119.052333 
L 717.324193 119.081899 
L 717.334229 119.007984 
L 717.424407 119.03755 
L 717.47439 118.993201 
L 717.519306 119.067116 
L 717.534263 119.052333 
L 717.594018 119.052333 
L 717.603966 119.111464 
L 717.638758 119.081899 
L 718.263197 118.993201 
L 718.336113 118.948836 
L 718.374931 118.963619 
L 718.59718 118.874922 
L 718.702904 118.786224 
L 718.717293 118.801007 
L 719.292052 118.697511 
L 719.343771 118.756642 
L 719.404779 118.667945 
L 719.740486 118.74186 
L 719.763662 118.786224 
L 719.828463 118.682728 
L 719.846952 118.697511 
L 720.086299 118.608813 
L 720.182429 118.564464 
L 720.159569 118.653162 
L 720.200706 118.579247 
L 720.241787 118.549681 
L 720.319235 118.623596 
L 720.341977 118.534883 
L 720.432774 118.579247 
L 720.437307 118.59403 
L 720.473544 118.5201 
L 720.53234 118.549681 
L 720.545892 118.5201 
L 720.591022 118.59403 
L 720.640588 118.564464 
L 720.748454 118.623596 
L 720.654092 118.549681 
L 720.757425 118.608813 
L 720.793286 118.505317 
L 720.882753 118.5201 
L 720.958594 118.475751 
L 720.994219 118.5201 
L 720.998669 118.549681 
L 721.052021 118.460968 
L 721.09641 118.475751 
L 721.109714 118.431402 
L 721.131874 118.5201 
L 721.20268 118.490534 
L 721.2071 118.534883 
L 721.242436 118.431402 
L 721.312986 118.490534 
L 721.348201 118.475751 
L 721.422896 118.5201 
L 721.493031 118.357488 
L 721.506163 118.431402 
L 721.51054 133.31889 
L 721.528038 118.29834 
L 721.615381 118.860139 
L 721.706823 118.712294 
L 721.728554 118.756642 
L 721.845638 118.801007 
L 721.849966 118.81579 
L 721.919128 118.727077 
L 721.945024 118.771441 
L 721.966586 118.712294 
L 722.009666 118.830573 
L 722.048386 118.801007 
L 722.138543 118.860139 
L 722.164253 118.830573 
L 722.207055 118.801007 
L 722.245526 118.948836 
L 722.657107 119.052333 
L 722.716055 119.081899 
L 722.695015 119.007984 
L 722.762291 119.022767 
L 722.821037 118.978402 
L 722.83361 119.067116 
L 722.867115 119.052333 
L 723.3612 118.993201 
L 723.435244 119.022767 
L 723.476302 118.904488 
L 723.582796 118.845356 
L 723.488609 118.948836 
L 723.59506 118.889705 
L 723.960705 118.786224 
L 724.017192 118.845356 
L 724.08162 118.712294 
L 724.161965 118.756642 
L 724.133869 118.653162 
L 724.186027 118.697511 
L 724.218081 118.860139 
L 724.230093 118.549681 
L 724.234095 140.829157 
L 724.337983 118.904488 
L 724.40572 118.993201 
L 724.501092 119.081899 
L 724.524889 119.067116 
L 724.623842 119.007984 
L 724.639645 119.052333 
L 724.738228 119.14103 
L 724.769707 119.126247 
L 724.805083 119.03755 
L 724.883549 119.096682 
L 724.981349 119.14103 
L 724.942267 119.067116 
L 724.993064 119.081899 
L 725.102188 119.067116 
L 725.203169 118.727077 
L 725.218675 118.771441 
L 725.22255 118.756642 
L 725.230299 118.845356 
L 725.307681 118.860139 
L 725.576986 118.771441 
L 725.680229 118.74186 
L 725.664956 118.860139 
L 725.684046 118.771441 
L 725.695494 118.860139 
L 725.718379 118.74186 
L 725.794535 118.756642 
L 726.597742 118.653162 
L 726.601446 118.638379 
L 726.671739 118.801007 
L 726.789764 118.756642 
L 726.793444 118.682728 
L 726.896331 118.81579 
L 726.899999 118.771441 
L 726.954967 118.653162 
L 727.006182 118.786224 
L 727.017146 118.727077 
L 727.224707 118.830573 
L 727.2501 118.874922 
L 727.297203 118.756642 
L 727.318918 118.771441 
L 727.409232 118.697511 
L 727.373138 118.786224 
L 727.427263 118.727077 
L 727.466893 118.801007 
L 727.524445 118.697511 
L 727.538816 118.74186 
L 728.002234 118.653162 
L 728.030524 118.608813 
L 728.051724 118.712294 
L 728.115236 118.638379 
L 728.217284 118.74186 
L 728.129332 118.623596 
L 728.231333 118.697511 
L 728.343491 118.608813 
L 728.262919 118.712294 
L 728.350487 118.623596 
L 728.381951 118.682728 
L 728.448267 118.564464 
L 728.479629 118.623596 
L 728.563106 118.505317 
L 728.597821 118.490534 
L 728.680976 118.608813 
L 728.701729 118.564464 
L 728.746647 118.682728 
L 728.78805 118.608813 
L 728.812176 118.682728 
L 728.85005 118.564464 
L 728.89475 118.638379 
L 728.990805 118.534883 
L 729.007926 118.564464 
L 729.120684 118.623596 
L 729.035299 118.534883 
L 729.127504 118.59403 
L 729.409217 118.667945 
L 729.412596 118.727077 
L 729.513772 118.59403 
L 729.617971 118.682728 
L 729.671612 118.727077 
L 729.691703 118.638379 
L 729.725159 118.653162 
L 729.828639 118.771441 
L 729.738531 118.638379 
L 729.845297 118.682728 
L 730.061024 118.786224 
L 730.113892 118.830573 
L 730.077555 118.697511 
L 730.169966 118.786224 
L 730.219357 118.727077 
L 730.225936 118.860139 
L 730.281804 118.756642 
L 730.28837 118.845356 
L 730.334292 118.697511 
L 730.389963 118.771441 
L 730.406317 118.682728 
L 730.412856 118.845356 
L 730.49774 118.771441 
L 730.598639 118.801007 
L 730.520553 118.712294 
L 730.608386 118.771441 
L 730.670044 118.682728 
L 730.715396 118.801007 
L 730.72187 118.697511 
L 730.773608 118.771441 
L 730.796216 118.653162 
L 730.831708 118.727077 
L 730.899353 118.756642 
L 730.944366 118.623596 
L 731.225798 118.534883 
L 731.30528 118.446185 
L 731.248074 118.59403 
L 731.343357 118.475751 
L 732.695597 118.387053 
L 732.7774 118.327922 
L 732.701664 118.416619 
L 732.807641 118.37227 
L 732.898188 118.416619 
L 732.813686 118.327922 
L 732.907227 118.342705 
L 733.000483 118.313123 
L 732.958403 118.416619 
L 733.015498 118.357488 
L 733.873949 118.460968 
L 733.958481 118.505317 
L 733.926445 118.387053 
L 733.984668 118.460968 
L 734.065994 118.401836 
L 733.996299 118.505317 
L 734.092089 118.490534 
L 734.17313 118.475751 
L 734.176021 118.37227 
L 734.210684 118.5201 
L 734.282772 118.446185 
L 738.062437 118.401836 
L 738.062437 118.401836 
" clip-path="url(#p0f90b51cf5)" style="fill: none; stroke: #1f77b4; stroke-width: 1.5; stroke-linecap: square"/>
   </g>
   <g id="patch_3">
    <path d="M 380.942438 311.6435 
L 380.942438 45.5315 
" style="fill: none; stroke: #000000; stroke-width: 0.8; stroke-linejoin: miter; stroke-linecap: square"/>
   </g>
   <g id="patch_4">
    <path d="M 738.062437 311.6435 
L 738.062437 45.5315 
" style="fill: none; stroke: #000000; stroke-width: 0.8; stroke-linejoin: miter; stroke-linecap: square"/>
   </g>
   <g id="patch_5">
    <path d="M 380.942438 311.6435 
L 738.062437 311.6435 
" style="fill: none; stroke: #000000; stroke-width: 0.8; stroke-linejoin: miter; stroke-linecap: square"/>
   </g>
   <g id="patch_6">
    <path d="M 380.942438 45.5315 
L 738.062437 45.5315 
" style="fill: none; stroke: #000000; stroke-width: 0.8; stroke-linejoin: miter; stroke-linecap: square"/>
   </g>
   <g id="text_18">
    <!-- Accuracy of the 09_07_25_CINIC10_torch_model_(1024+512-512.2+1)_elk-horse on the validation set -->
    <g transform="translate(7.2 25.5315) scale(0.264 -0.264)">
     <defs>
      <path id="TimesNewRomanPSMT-20" transform="scale(0.015625)"/>
      <path id="TimesNewRomanPSMT-6f" d="M 1600 2947 
Q 2250 2947 2644 2453 
Q 2978 2031 2978 1484 
Q 2978 1100 2793 706 
Q 2609 313 2286 112 
Q 1963 -88 1566 -88 
Q 919 -88 538 428 
Q 216 863 216 1403 
Q 216 1797 411 2186 
Q 606 2575 925 2761 
Q 1244 2947 1600 2947 
z
M 1503 2744 
Q 1338 2744 1170 2645 
Q 1003 2547 900 2300 
Q 797 2053 797 1666 
Q 797 1041 1045 587 
Q 1294 134 1700 134 
Q 2003 134 2200 384 
Q 2397 634 2397 1244 
Q 2397 2006 2069 2444 
Q 1847 2744 1503 2744 
z
" transform="scale(0.015625)"/>
      <path id="TimesNewRomanPSMT-66" d="M 1319 2638 
L 1319 756 
Q 1319 356 1406 250 
Q 1522 113 1716 113 
L 1975 113 
L 1975 0 
L 266 0 
L 266 113 
L 394 113 
Q 519 113 622 175 
Q 725 238 764 344 
Q 803 450 803 756 
L 803 2638 
L 247 2638 
L 247 2863 
L 803 2863 
L 803 3050 
Q 803 3478 940 3775 
Q 1078 4072 1361 4255 
Q 1644 4438 1997 4438 
Q 2325 4438 2600 4225 
Q 2781 4084 2781 3909 
Q 2781 3816 2700 3733 
Q 2619 3650 2525 3650 
Q 2453 3650 2373 3701 
Q 2294 3753 2178 3923 
Q 2063 4094 1966 4153 
Q 1869 4213 1750 4213 
Q 1606 4213 1506 4136 
Q 1406 4059 1362 3898 
Q 1319 3738 1319 3069 
L 1319 2863 
L 2056 2863 
L 2056 2638 
L 1319 2638 
z
" transform="scale(0.015625)"/>
      <path id="TimesNewRomanPSMT-74" d="M 1031 3803 
L 1031 2863 
L 1700 2863 
L 1700 2644 
L 1031 2644 
L 1031 788 
Q 1031 509 1111 412 
Q 1191 316 1316 316 
Q 1419 316 1516 380 
Q 1613 444 1666 569 
L 1788 569 
Q 1678 263 1478 108 
Q 1278 -47 1066 -47 
Q 922 -47 784 33 
Q 647 113 581 261 
Q 516 409 516 719 
L 516 2644 
L 63 2644 
L 63 2747 
Q 234 2816 414 2980 
Q 594 3144 734 3369 
Q 806 3488 934 3803 
L 1031 3803 
z
" transform="scale(0.015625)"/>
      <path id="TimesNewRomanPSMT-68" d="M 1041 4444 
L 1041 2350 
Q 1388 2731 1591 2839 
Q 1794 2947 1997 2947 
Q 2241 2947 2416 2812 
Q 2591 2678 2675 2391 
Q 2734 2191 2734 1659 
L 2734 647 
Q 2734 375 2778 275 
Q 2809 200 2884 156 
Q 2959 113 3159 113 
L 3159 0 
L 1753 0 
L 1753 113 
L 1819 113 
Q 2019 113 2097 173 
Q 2175 234 2206 353 
Q 2216 403 2216 647 
L 2216 1659 
Q 2216 2128 2167 2275 
Q 2119 2422 2012 2495 
Q 1906 2569 1756 2569 
Q 1603 2569 1437 2487 
Q 1272 2406 1041 2159 
L 1041 647 
Q 1041 353 1073 281 
Q 1106 209 1195 161 
Q 1284 113 1503 113 
L 1503 0 
L 84 0 
L 84 113 
Q 275 113 384 172 
Q 447 203 484 290 
Q 522 378 522 647 
L 522 3238 
Q 522 3728 498 3840 
Q 475 3953 426 3993 
Q 378 4034 297 4034 
Q 231 4034 84 3984 
L 41 4094 
L 897 4444 
L 1041 4444 
z
" transform="scale(0.015625)"/>
      <path id="TimesNewRomanPSMT-65" d="M 681 1784 
Q 678 1147 991 784 
Q 1303 422 1725 422 
Q 2006 422 2214 576 
Q 2422 731 2563 1106 
L 2659 1044 
Q 2594 616 2278 264 
Q 1963 -88 1488 -88 
Q 972 -88 605 314 
Q 238 716 238 1394 
Q 238 2128 614 2539 
Q 991 2950 1559 2950 
Q 2041 2950 2350 2633 
Q 2659 2316 2659 1784 
L 681 1784 
z
M 681 1966 
L 2006 1966 
Q 1991 2241 1941 2353 
Q 1863 2528 1708 2628 
Q 1553 2728 1384 2728 
Q 1125 2728 920 2526 
Q 716 2325 681 1966 
z
" transform="scale(0.015625)"/>
      <path id="TimesNewRomanPSMT-5f" d="M 3256 -1381 
L -53 -1381 
L -53 -1119 
L 3256 -1119 
L 3256 -1381 
z
" transform="scale(0.015625)"/>
      <path id="TimesNewRomanPSMT-43" d="M 3853 4334 
L 3950 2894 
L 3853 2894 
Q 3659 3541 3300 3825 
Q 2941 4109 2438 4109 
Q 2016 4109 1675 3895 
Q 1334 3681 1139 3212 
Q 944 2744 944 2047 
Q 944 1472 1128 1050 
Q 1313 628 1683 403 
Q 2053 178 2528 178 
Q 2941 178 3256 354 
Q 3572 531 3950 1056 
L 4047 994 
Q 3728 428 3303 165 
Q 2878 -97 2294 -97 
Q 1241 -97 663 684 
Q 231 1266 231 2053 
Q 231 2688 515 3219 
Q 800 3750 1298 4042 
Q 1797 4334 2388 4334 
Q 2847 4334 3294 4109 
Q 3425 4041 3481 4041 
Q 3566 4041 3628 4100 
Q 3709 4184 3744 4334 
L 3853 4334 
z
" transform="scale(0.015625)"/>
      <path id="TimesNewRomanPSMT-49" d="M 1975 116 
L 1975 0 
L 159 0 
L 159 116 
L 309 116 
Q 572 116 691 269 
Q 766 369 766 750 
L 766 3488 
Q 766 3809 725 3913 
Q 694 3991 597 4047 
Q 459 4122 309 4122 
L 159 4122 
L 159 4238 
L 1975 4238 
L 1975 4122 
L 1822 4122 
Q 1563 4122 1444 3969 
Q 1366 3869 1366 3488 
L 1366 750 
Q 1366 428 1406 325 
Q 1438 247 1538 191 
Q 1672 116 1822 116 
L 1975 116 
z
" transform="scale(0.015625)"/>
      <path id="TimesNewRomanPSMT-4e" d="M -84 4238 
L 1066 4238 
L 3656 1059 
L 3656 3503 
Q 3656 3894 3569 3991 
Q 3453 4122 3203 4122 
L 3056 4122 
L 3056 4238 
L 4531 4238 
L 4531 4122 
L 4381 4122 
Q 4113 4122 4000 3959 
Q 3931 3859 3931 3503 
L 3931 -69 
L 3819 -69 
L 1025 3344 
L 1025 734 
Q 1025 344 1109 247 
Q 1228 116 1475 116 
L 1625 116 
L 1625 0 
L 150 0 
L 150 116 
L 297 116 
Q 569 116 681 278 
Q 750 378 750 734 
L 750 3681 
Q 566 3897 470 3965 
Q 375 4034 191 4094 
Q 100 4122 -84 4122 
L -84 4238 
z
" transform="scale(0.015625)"/>
      <path id="TimesNewRomanPSMT-6d" d="M 1050 2338 
Q 1363 2650 1419 2697 
Q 1559 2816 1721 2881 
Q 1884 2947 2044 2947 
Q 2313 2947 2506 2790 
Q 2700 2634 2766 2338 
Q 3088 2713 3309 2830 
Q 3531 2947 3766 2947 
Q 3994 2947 4170 2830 
Q 4347 2713 4450 2447 
Q 4519 2266 4519 1878 
L 4519 647 
Q 4519 378 4559 278 
Q 4591 209 4675 161 
Q 4759 113 4950 113 
L 4950 0 
L 3538 0 
L 3538 113 
L 3597 113 
Q 3781 113 3884 184 
Q 3956 234 3988 344 
Q 4000 397 4000 647 
L 4000 1878 
Q 4000 2228 3916 2372 
Q 3794 2572 3525 2572 
Q 3359 2572 3192 2489 
Q 3025 2406 2788 2181 
L 2781 2147 
L 2788 2013 
L 2788 647 
Q 2788 353 2820 281 
Q 2853 209 2943 161 
Q 3034 113 3253 113 
L 3253 0 
L 1806 0 
L 1806 113 
Q 2044 113 2133 169 
Q 2222 225 2256 338 
Q 2272 391 2272 647 
L 2272 1878 
Q 2272 2228 2169 2381 
Q 2031 2581 1784 2581 
Q 1616 2581 1450 2491 
Q 1191 2353 1050 2181 
L 1050 647 
Q 1050 366 1089 281 
Q 1128 197 1204 155 
Q 1281 113 1516 113 
L 1516 0 
L 100 0 
L 100 113 
Q 297 113 375 155 
Q 453 197 493 289 
Q 534 381 534 647 
L 534 1741 
Q 534 2213 506 2350 
Q 484 2453 437 2492 
Q 391 2531 309 2531 
Q 222 2531 100 2484 
L 53 2597 
L 916 2947 
L 1050 2947 
L 1050 2338 
z
" transform="scale(0.015625)"/>
      <path id="TimesNewRomanPSMT-64" d="M 2222 322 
Q 2013 103 1813 7 
Q 1613 -88 1381 -88 
Q 913 -88 563 304 
Q 213 697 213 1313 
Q 213 1928 600 2439 
Q 988 2950 1597 2950 
Q 1975 2950 2222 2709 
L 2222 3238 
Q 2222 3728 2198 3840 
Q 2175 3953 2125 3993 
Q 2075 4034 2000 4034 
Q 1919 4034 1784 3984 
L 1744 4094 
L 2597 4444 
L 2738 4444 
L 2738 1134 
Q 2738 631 2761 520 
Q 2784 409 2836 365 
Q 2888 322 2956 322 
Q 3041 322 3181 375 
L 3216 266 
L 2366 -88 
L 2222 -88 
L 2222 322 
z
M 2222 541 
L 2222 2016 
Q 2203 2228 2109 2403 
Q 2016 2578 1861 2667 
Q 1706 2756 1559 2756 
Q 1284 2756 1069 2509 
Q 784 2184 784 1559 
Q 784 928 1059 592 
Q 1334 256 1672 256 
Q 1956 256 2222 541 
z
" transform="scale(0.015625)"/>
      <path id="TimesNewRomanPSMT-6c" d="M 1184 4444 
L 1184 647 
Q 1184 378 1223 290 
Q 1263 203 1344 158 
Q 1425 113 1647 113 
L 1647 0 
L 244 0 
L 244 113 
Q 441 113 512 153 
Q 584 194 625 287 
Q 666 381 666 647 
L 666 3247 
Q 666 3731 644 3842 
Q 622 3953 573 3993 
Q 525 4034 450 4034 
Q 369 4034 244 3984 
L 191 4094 
L 1044 4444 
L 1184 4444 
z
" transform="scale(0.015625)"/>
      <path id="TimesNewRomanPSMT-28" d="M 1988 -1253 
L 1988 -1369 
Q 1516 -1131 1200 -813 
Q 750 -359 506 256 
Q 263 872 263 1534 
Q 263 2503 741 3301 
Q 1219 4100 1988 4444 
L 1988 4313 
Q 1603 4100 1356 3731 
Q 1109 3363 987 2797 
Q 866 2231 866 1616 
Q 866 947 969 400 
Q 1050 -31 1165 -292 
Q 1281 -553 1476 -793 
Q 1672 -1034 1988 -1253 
z
" transform="scale(0.015625)"/>
      <path id="TimesNewRomanPSMT-2b" d="M 1672 441 
L 1672 2000 
L 116 2000 
L 116 2256 
L 1672 2256 
L 1672 3809 
L 1922 3809 
L 1922 2256 
L 3484 2256 
L 3484 2000 
L 1922 2000 
L 1922 441 
L 1672 441 
z
" transform="scale(0.015625)"/>
      <path id="TimesNewRomanPSMT-2d" d="M 259 1672 
L 1875 1672 
L 1875 1200 
L 259 1200 
L 259 1672 
z
" transform="scale(0.015625)"/>
      <path id="TimesNewRomanPSMT-29" d="M 144 4313 
L 144 4444 
Q 619 4209 934 3891 
Q 1381 3434 1625 2820 
Q 1869 2206 1869 1541 
Q 1869 572 1392 -226 
Q 916 -1025 144 -1369 
L 144 -1253 
Q 528 -1038 776 -670 
Q 1025 -303 1145 264 
Q 1266 831 1266 1447 
Q 1266 2113 1163 2663 
Q 1084 3094 967 3353 
Q 850 3613 656 3853 
Q 463 4094 144 4313 
z
" transform="scale(0.015625)"/>
      <path id="TimesNewRomanPSMT-6b" d="M 1047 4444 
L 1047 1594 
L 1775 2259 
Q 2006 2472 2044 2528 
Q 2069 2566 2069 2603 
Q 2069 2666 2017 2711 
Q 1966 2756 1847 2763 
L 1847 2863 
L 3091 2863 
L 3091 2763 
Q 2834 2756 2664 2684 
Q 2494 2613 2291 2428 
L 1556 1750 
L 2291 822 
Q 2597 438 2703 334 
Q 2853 188 2966 144 
Q 3044 113 3238 113 
L 3238 0 
L 1847 0 
L 1847 113 
Q 1966 116 2008 148 
Q 2050 181 2050 241 
Q 2050 313 1925 472 
L 1047 1594 
L 1047 644 
Q 1047 366 1086 278 
Q 1125 191 1197 153 
Q 1269 116 1509 113 
L 1509 0 
L 53 0 
L 53 113 
Q 272 113 381 166 
Q 447 200 481 272 
Q 528 375 528 628 
L 528 3234 
Q 528 3731 506 3842 
Q 484 3953 434 3995 
Q 384 4038 303 4038 
Q 238 4038 106 3984 
L 53 4094 
L 903 4444 
L 1047 4444 
z
" transform="scale(0.015625)"/>
      <path id="TimesNewRomanPSMT-73" d="M 2050 2947 
L 2050 1972 
L 1947 1972 
Q 1828 2431 1642 2597 
Q 1456 2763 1169 2763 
Q 950 2763 815 2647 
Q 681 2531 681 2391 
Q 681 2216 781 2091 
Q 878 1963 1175 1819 
L 1631 1597 
Q 2266 1288 2266 781 
Q 2266 391 1970 151 
Q 1675 -88 1309 -88 
Q 1047 -88 709 6 
Q 606 38 541 38 
Q 469 38 428 -44 
L 325 -44 
L 325 978 
L 428 978 
Q 516 541 762 319 
Q 1009 97 1316 97 
Q 1531 97 1667 223 
Q 1803 350 1803 528 
Q 1803 744 1651 891 
Q 1500 1038 1047 1263 
Q 594 1488 453 1669 
Q 313 1847 313 2119 
Q 313 2472 555 2709 
Q 797 2947 1181 2947 
Q 1350 2947 1591 2875 
Q 1750 2828 1803 2828 
Q 1853 2828 1881 2850 
Q 1909 2872 1947 2947 
L 2050 2947 
z
" transform="scale(0.015625)"/>
      <path id="TimesNewRomanPSMT-6e" d="M 1034 2341 
Q 1538 2947 1994 2947 
Q 2228 2947 2397 2830 
Q 2566 2713 2666 2444 
Q 2734 2256 2734 1869 
L 2734 647 
Q 2734 375 2778 278 
Q 2813 200 2889 156 
Q 2966 113 3172 113 
L 3172 0 
L 1756 0 
L 1756 113 
L 1816 113 
Q 2016 113 2095 173 
Q 2175 234 2206 353 
Q 2219 400 2219 647 
L 2219 1819 
Q 2219 2209 2117 2386 
Q 2016 2563 1775 2563 
Q 1403 2563 1034 2156 
L 1034 647 
Q 1034 356 1069 288 
Q 1113 197 1189 155 
Q 1266 113 1500 113 
L 1500 0 
L 84 0 
L 84 113 
L 147 113 
Q 366 113 442 223 
Q 519 334 519 647 
L 519 1709 
Q 519 2225 495 2337 
Q 472 2450 423 2490 
Q 375 2531 294 2531 
Q 206 2531 84 2484 
L 38 2597 
L 900 2947 
L 1034 2947 
L 1034 2341 
z
" transform="scale(0.015625)"/>
      <path id="TimesNewRomanPSMT-76" d="M 53 2863 
L 1400 2863 
L 1400 2747 
L 1313 2747 
Q 1191 2747 1127 2687 
Q 1063 2628 1063 2528 
Q 1063 2419 1128 2269 
L 1794 688 
L 2463 2328 
Q 2534 2503 2534 2594 
Q 2534 2638 2509 2666 
Q 2475 2713 2422 2730 
Q 2369 2747 2206 2747 
L 2206 2863 
L 3141 2863 
L 3141 2747 
Q 2978 2734 2916 2681 
Q 2806 2588 2719 2369 
L 1703 -88 
L 1575 -88 
L 553 2328 
Q 484 2497 421 2570 
Q 359 2644 263 2694 
Q 209 2722 53 2747 
L 53 2863 
z
" transform="scale(0.015625)"/>
      <path id="TimesNewRomanPSMT-69" d="M 928 4444 
Q 1059 4444 1151 4351 
Q 1244 4259 1244 4128 
Q 1244 3997 1151 3903 
Q 1059 3809 928 3809 
Q 797 3809 703 3903 
Q 609 3997 609 4128 
Q 609 4259 701 4351 
Q 794 4444 928 4444 
z
M 1188 2947 
L 1188 647 
Q 1188 378 1227 289 
Q 1266 200 1342 156 
Q 1419 113 1622 113 
L 1622 0 
L 231 0 
L 231 113 
Q 441 113 512 153 
Q 584 194 626 287 
Q 669 381 669 647 
L 669 1750 
Q 669 2216 641 2353 
Q 619 2453 572 2492 
Q 525 2531 444 2531 
Q 356 2531 231 2484 
L 188 2597 
L 1050 2947 
L 1188 2947 
z
" transform="scale(0.015625)"/>
     </defs>
     <use xlink:href="#TimesNewRomanPSMT-41"/>
     <use xlink:href="#TimesNewRomanPSMT-63" transform="translate(72.216797 0)"/>
     <use xlink:href="#TimesNewRomanPSMT-63" transform="translate(116.601562 0)"/>
     <use xlink:href="#TimesNewRomanPSMT-75" transform="translate(160.986328 0)"/>
     <use xlink:href="#TimesNewRomanPSMT-72" transform="translate(210.986328 0)"/>
     <use xlink:href="#TimesNewRomanPSMT-61" transform="translate(244.287109 0)"/>
     <use xlink:href="#TimesNewRomanPSMT-63" transform="translate(288.671875 0)"/>
     <use xlink:href="#TimesNewRomanPSMT-79" transform="translate(333.056641 0)"/>
     <use xlink:href="#TimesNewRomanPSMT-20" transform="translate(383.056641 0)"/>
     <use xlink:href="#TimesNewRomanPSMT-6f" transform="translate(408.056641 0)"/>
     <use xlink:href="#TimesNewRomanPSMT-66" transform="translate(458.056641 0)"/>
     <use xlink:href="#TimesNewRomanPSMT-20" transform="translate(491.357422 0)"/>
     <use xlink:href="#TimesNewRomanPSMT-74" transform="translate(516.357422 0)"/>
     <use xlink:href="#TimesNewRomanPSMT-68" transform="translate(544.140625 0)"/>
     <use xlink:href="#TimesNewRomanPSMT-65" transform="translate(594.140625 0)"/>
     <use xlink:href="#TimesNewRomanPSMT-20" transform="translate(638.525391 0)"/>
     <use xlink:href="#TimesNewRomanPSMT-30" transform="translate(663.525391 0)"/>
     <use xlink:href="#TimesNewRomanPSMT-39" transform="translate(713.525391 0)"/>
     <use xlink:href="#TimesNewRomanPSMT-5f" transform="translate(763.525391 0)"/>
     <use xlink:href="#TimesNewRomanPSMT-30" transform="translate(813.525391 0)"/>
     <use xlink:href="#TimesNewRomanPSMT-37" transform="translate(863.525391 0)"/>
     <use xlink:href="#TimesNewRomanPSMT-5f" transform="translate(913.525391 0)"/>
     <use xlink:href="#TimesNewRomanPSMT-32" transform="translate(963.525391 0)"/>
     <use xlink:href="#TimesNewRomanPSMT-35" transform="translate(1013.525391 0)"/>
     <use xlink:href="#TimesNewRomanPSMT-5f" transform="translate(1063.525391 0)"/>
     <use xlink:href="#TimesNewRomanPSMT-43" transform="translate(1113.525391 0)"/>
     <use xlink:href="#TimesNewRomanPSMT-49" transform="translate(1180.224609 0)"/>
     <use xlink:href="#TimesNewRomanPSMT-4e" transform="translate(1213.525391 0)"/>
     <use xlink:href="#TimesNewRomanPSMT-49" transform="translate(1285.742188 0)"/>
     <use xlink:href="#TimesNewRomanPSMT-43" transform="translate(1319.042969 0)"/>
     <use xlink:href="#TimesNewRomanPSMT-31" transform="translate(1385.742188 0)"/>
     <use xlink:href="#TimesNewRomanPSMT-30" transform="translate(1435.742188 0)"/>
     <use xlink:href="#TimesNewRomanPSMT-5f" transform="translate(1485.742188 0)"/>
     <use xlink:href="#TimesNewRomanPSMT-74" transform="translate(1535.742188 0)"/>
     <use xlink:href="#TimesNewRomanPSMT-6f" transform="translate(1563.525391 0)"/>
     <use xlink:href="#TimesNewRomanPSMT-72" transform="translate(1613.525391 0)"/>
     <use xlink:href="#TimesNewRomanPSMT-63" transform="translate(1646.826172 0)"/>
     <use xlink:href="#TimesNewRomanPSMT-68" transform="translate(1691.210938 0)"/>
     <use xlink:href="#TimesNewRomanPSMT-5f" transform="translate(1741.210938 0)"/>
     <use xlink:href="#TimesNewRomanPSMT-6d" transform="translate(1791.210938 0)"/>
     <use xlink:href="#TimesNewRomanPSMT-6f" transform="translate(1868.994141 0)"/>
     <use xlink:href="#TimesNewRomanPSMT-64" transform="translate(1918.994141 0)"/>
     <use xlink:href="#TimesNewRomanPSMT-65" transform="translate(1968.994141 0)"/>
     <use xlink:href="#TimesNewRomanPSMT-6c" transform="translate(2013.378906 0)"/>
     <use xlink:href="#TimesNewRomanPSMT-5f" transform="translate(2041.162109 0)"/>
     <use xlink:href="#TimesNewRomanPSMT-28" transform="translate(2091.162109 0)"/>
     <use xlink:href="#TimesNewRomanPSMT-31" transform="translate(2124.462891 0)"/>
     <use xlink:href="#TimesNewRomanPSMT-30" transform="translate(2174.462891 0)"/>
     <use xlink:href="#TimesNewRomanPSMT-32" transform="translate(2224.462891 0)"/>
     <use xlink:href="#TimesNewRomanPSMT-34" transform="translate(2274.462891 0)"/>
     <use xlink:href="#TimesNewRomanPSMT-2b" transform="translate(2324.462891 0)"/>
     <use xlink:href="#TimesNewRomanPSMT-35" transform="translate(2380.859375 0)"/>
     <use xlink:href="#TimesNewRomanPSMT-31" transform="translate(2430.859375 0)"/>
     <use xlink:href="#TimesNewRomanPSMT-32" transform="translate(2480.859375 0)"/>
     <use xlink:href="#TimesNewRomanPSMT-2d" transform="translate(2530.859375 0)"/>
     <use xlink:href="#TimesNewRomanPSMT-35" transform="translate(2564.160156 0)"/>
     <use xlink:href="#TimesNewRomanPSMT-31" transform="translate(2614.160156 0)"/>
     <use xlink:href="#TimesNewRomanPSMT-32" transform="translate(2664.160156 0)"/>
     <use xlink:href="#TimesNewRomanPSMT-2e" transform="translate(2714.160156 0)"/>
     <use xlink:href="#TimesNewRomanPSMT-32" transform="translate(2739.160156 0)"/>
     <use xlink:href="#TimesNewRomanPSMT-2b" transform="translate(2789.160156 0)"/>
     <use xlink:href="#TimesNewRomanPSMT-31" transform="translate(2845.556641 0)"/>
     <use xlink:href="#TimesNewRomanPSMT-29" transform="translate(2895.556641 0)"/>
     <use xlink:href="#TimesNewRomanPSMT-5f" transform="translate(2928.857422 0)"/>
     <use xlink:href="#TimesNewRomanPSMT-65" transform="translate(2978.857422 0)"/>
     <use xlink:href="#TimesNewRomanPSMT-6c" transform="translate(3023.242188 0)"/>
     <use xlink:href="#TimesNewRomanPSMT-6b" transform="translate(3051.025391 0)"/>
     <use xlink:href="#TimesNewRomanPSMT-2d" transform="translate(3101.025391 0)"/>
     <use xlink:href="#TimesNewRomanPSMT-68" transform="translate(3134.326172 0)"/>
     <use xlink:href="#TimesNewRomanPSMT-6f" transform="translate(3184.326172 0)"/>
     <use xlink:href="#TimesNewRomanPSMT-72" transform="translate(3234.326172 0)"/>
     <use xlink:href="#TimesNewRomanPSMT-73" transform="translate(3267.626953 0)"/>
     <use xlink:href="#TimesNewRomanPSMT-65" transform="translate(3306.542969 0)"/>
     <use xlink:href="#TimesNewRomanPSMT-20" transform="translate(3350.927734 0)"/>
     <use xlink:href="#TimesNewRomanPSMT-6f" transform="translate(3375.927734 0)"/>
     <use xlink:href="#TimesNewRomanPSMT-6e" transform="translate(3425.927734 0)"/>
     <use xlink:href="#TimesNewRomanPSMT-20" transform="translate(3475.927734 0)"/>
     <use xlink:href="#TimesNewRomanPSMT-74" transform="translate(3500.927734 0)"/>
     <use xlink:href="#TimesNewRomanPSMT-68" transform="translate(3528.710938 0)"/>
     <use xlink:href="#TimesNewRomanPSMT-65" transform="translate(3578.710938 0)"/>
     <use xlink:href="#TimesNewRomanPSMT-20" transform="translate(3623.095703 0)"/>
     <use xlink:href="#TimesNewRomanPSMT-76" transform="translate(3648.095703 0)"/>
     <use xlink:href="#TimesNewRomanPSMT-61" transform="translate(3698.095703 0)"/>
     <use xlink:href="#TimesNewRomanPSMT-6c" transform="translate(3742.480469 0)"/>
     <use xlink:href="#TimesNewRomanPSMT-69" transform="translate(3770.263672 0)"/>
     <use xlink:href="#TimesNewRomanPSMT-64" transform="translate(3798.046875 0)"/>
     <use xlink:href="#TimesNewRomanPSMT-61" transform="translate(3848.046875 0)"/>
     <use xlink:href="#TimesNewRomanPSMT-74" transform="translate(3892.431641 0)"/>
     <use xlink:href="#TimesNewRomanPSMT-69" transform="translate(3920.214844 0)"/>
     <use xlink:href="#TimesNewRomanPSMT-6f" transform="translate(3947.998047 0)"/>
     <use xlink:href="#TimesNewRomanPSMT-6e" transform="translate(3997.998047 0)"/>
     <use xlink:href="#TimesNewRomanPSMT-20" transform="translate(4047.998047 0)"/>
     <use xlink:href="#TimesNewRomanPSMT-73" transform="translate(4072.998047 0)"/>
     <use xlink:href="#TimesNewRomanPSMT-65" transform="translate(4111.914062 0)"/>
     <use xlink:href="#TimesNewRomanPSMT-74" transform="translate(4156.298828 0)"/>
    </g>
   </g>
   <g id="legend_1">
    <g id="patch_7">
     <path d="M 485.492125 94.278687 
L 722.662438 94.278687 
Q 727.062437 94.278687 727.062437 89.878687 
L 727.062437 60.9315 
Q 727.062437 56.5315 722.662438 56.5315 
L 485.492125 56.5315 
Q 481.092125 56.5315 481.092125 60.9315 
L 481.092125 89.878687 
Q 481.092125 94.278687 485.492125 94.278687 
z
" style="fill: #ffffff; opacity: 0.8; stroke: #cccccc; stroke-linejoin: miter"/>
    </g>
    <g id="line2d_32">
     <path d="M 489.892125 73.0315 
L 511.892125 73.0315 
L 533.892125 73.0315 
" style="fill: none; stroke: #1f77b4; stroke-width: 1.5; stroke-linecap: square"/>
    </g>
    <g id="text_19">
     <!-- Best accuracy 0.73 -->
     <g transform="translate(551.492125 80.7315) scale(0.22 -0.22)">
      <defs>
       <path id="TimesNewRomanPSMT-42" d="M 2956 2163 
Q 3397 2069 3616 1863 
Q 3919 1575 3919 1159 
Q 3919 844 3719 555 
Q 3519 266 3170 133 
Q 2822 0 2106 0 
L 106 0 
L 106 116 
L 266 116 
Q 531 116 647 284 
Q 719 394 719 750 
L 719 3488 
Q 719 3881 628 3984 
Q 506 4122 266 4122 
L 106 4122 
L 106 4238 
L 1938 4238 
Q 2450 4238 2759 4163 
Q 3228 4050 3475 3764 
Q 3722 3478 3722 3106 
Q 3722 2788 3528 2536 
Q 3334 2284 2956 2163 
z
M 1319 2331 
Q 1434 2309 1582 2298 
Q 1731 2288 1909 2288 
Q 2366 2288 2595 2386 
Q 2825 2484 2947 2687 
Q 3069 2891 3069 3131 
Q 3069 3503 2766 3765 
Q 2463 4028 1881 4028 
Q 1569 4028 1319 3959 
L 1319 2331 
z
M 1319 306 
Q 1681 222 2034 222 
Q 2600 222 2897 476 
Q 3194 731 3194 1106 
Q 3194 1353 3059 1581 
Q 2925 1809 2622 1940 
Q 2319 2072 1872 2072 
Q 1678 2072 1540 2065 
Q 1403 2059 1319 2044 
L 1319 306 
z
" transform="scale(0.015625)"/>
      </defs>
      <use xlink:href="#TimesNewRomanPSMT-42"/>
      <use xlink:href="#TimesNewRomanPSMT-65" transform="translate(66.699219 0)"/>
      <use xlink:href="#TimesNewRomanPSMT-73" transform="translate(111.083984 0)"/>
      <use xlink:href="#TimesNewRomanPSMT-74" transform="translate(150 0)"/>
      <use xlink:href="#TimesNewRomanPSMT-20" transform="translate(177.783203 0)"/>
      <use xlink:href="#TimesNewRomanPSMT-61" transform="translate(202.783203 0)"/>
      <use xlink:href="#TimesNewRomanPSMT-63" transform="translate(247.167969 0)"/>
      <use xlink:href="#TimesNewRomanPSMT-63" transform="translate(291.552734 0)"/>
      <use xlink:href="#TimesNewRomanPSMT-75" transform="translate(335.9375 0)"/>
      <use xlink:href="#TimesNewRomanPSMT-72" transform="translate(385.9375 0)"/>
      <use xlink:href="#TimesNewRomanPSMT-61" transform="translate(419.238281 0)"/>
      <use xlink:href="#TimesNewRomanPSMT-63" transform="translate(463.623047 0)"/>
      <use xlink:href="#TimesNewRomanPSMT-79" transform="translate(508.007812 0)"/>
      <use xlink:href="#TimesNewRomanPSMT-20" transform="translate(558.007812 0)"/>
      <use xlink:href="#TimesNewRomanPSMT-30" transform="translate(583.007812 0)"/>
      <use xlink:href="#TimesNewRomanPSMT-2e" transform="translate(633.007812 0)"/>
      <use xlink:href="#TimesNewRomanPSMT-37" transform="translate(658.007812 0)"/>
      <use xlink:href="#TimesNewRomanPSMT-33" transform="translate(708.007812 0)"/>
     </g>
    </g>
   </g>
  </g>
 </g>
 <defs>
  <clipPath id="p0f90b51cf5">
   <rect x="380.942438" y="45.5315" width="357.12" height="266.112"/>
  </clipPath>
 </defs>
</svg>
