<?xml version="1.0" encoding="utf-8" standalone="no"?>
<!DOCTYPE svg PUBLIC "-//W3C//DTD SVG 1.1//EN"
  "http://www.w3.org/Graphics/SVG/1.1/DTD/svg11.dtd">
<svg xmlns:xlink="http://www.w3.org/1999/xlink" width="704.49pt" height="397.5023pt" viewBox="0 0 704.49 397.5023" xmlns="http://www.w3.org/2000/svg" version="1.1">
 <metadata>
  <rdf:RDF xmlns:dc="http://purl.org/dc/elements/1.1/" xmlns:cc="http://creativecommons.org/ns#" xmlns:rdf="http://www.w3.org/1999/02/22-rdf-syntax-ns#">
   <cc:Work>
    <dc:type rdf:resource="http://purl.org/dc/dcmitype/StillImage"/>
    <dc:date>2025-05-21T14:05:27.142746</dc:date>
    <dc:format>image/svg+xml</dc:format>
    <dc:creator>
     <cc:Agent>
      <dc:title>Matplotlib v3.10.1, https://matplotlib.org/</dc:title>
     </cc:Agent>
    </dc:creator>
   </cc:Work>
  </rdf:RDF>
 </metadata>
 <defs>
  <style type="text/css">*{stroke-linejoin: round; stroke-linecap: butt}</style>
 </defs>
 <g id="figure_1">
  <g id="patch_1">
   <path d="M 0 397.5023 
L 704.49 397.5023 
L 704.49 0 
L 0 0 
z
" style="fill: #ffffff"/>
  </g>
  <g id="axes_1">
   <g id="patch_2">
    <path d="M 65.682187 339.337925 
L 422.802188 339.337925 
L 422.802188 73.225925 
L 65.682187 73.225925 
z
" style="fill: #ffffff"/>
   </g>
   <g id="matplotlib.axis_1">
    <g id="xtick_1">
     <g id="line2d_1">
      <path d="M 67.104976 339.337925 
L 67.104976 73.225925 
" clip-path="url(#p82693f9f3c)" style="fill: none; stroke: #b0b0b0; stroke-width: 0.8; stroke-linecap: square"/>
     </g>
     <g id="line2d_2">
      <defs>
       <path id="m03da13b238" d="M 0 0 
L 0 3.5 
" style="stroke: #000000; stroke-width: 0.8"/>
      </defs>
      <g>
       <use xlink:href="#m03da13b238" x="67.104976" y="339.337925" style="stroke: #000000; stroke-width: 0.8"/>
      </g>
     </g>
     <g id="text_1">
      <!-- 0 -->
      <g transform="translate(61.604976 361.614175) scale(0.22 -0.22)">
       <defs>
        <path id="TimesNewRomanPSMT-30" d="M 231 2094 
Q 231 2819 450 3342 
Q 669 3866 1031 4122 
Q 1313 4325 1613 4325 
Q 2100 4325 2488 3828 
Q 2972 3213 2972 2159 
Q 2972 1422 2759 906 
Q 2547 391 2217 158 
Q 1888 -75 1581 -75 
Q 975 -75 572 641 
Q 231 1244 231 2094 
z
M 844 2016 
Q 844 1141 1059 588 
Q 1238 122 1591 122 
Q 1759 122 1940 273 
Q 2122 425 2216 781 
Q 2359 1319 2359 2297 
Q 2359 3022 2209 3506 
Q 2097 3866 1919 4016 
Q 1791 4119 1609 4119 
Q 1397 4119 1231 3928 
Q 1006 3669 925 3112 
Q 844 2556 844 2016 
z
" transform="scale(0.015625)"/>
       </defs>
       <use xlink:href="#TimesNewRomanPSMT-30"/>
      </g>
     </g>
    </g>
    <g id="xtick_2">
     <g id="line2d_3">
      <path d="M 209.383861 339.337925 
L 209.383861 73.225925 
" clip-path="url(#p82693f9f3c)" style="fill: none; stroke: #b0b0b0; stroke-width: 0.8; stroke-linecap: square"/>
     </g>
     <g id="line2d_4">
      <g>
       <use xlink:href="#m03da13b238" x="209.383861" y="339.337925" style="stroke: #000000; stroke-width: 0.8"/>
      </g>
     </g>
     <g id="text_2">
      <!-- 1000 -->
      <g transform="translate(187.383861 361.614175) scale(0.22 -0.22)">
       <defs>
        <path id="TimesNewRomanPSMT-31" d="M 750 3822 
L 1781 4325 
L 1884 4325 
L 1884 747 
Q 1884 391 1914 303 
Q 1944 216 2037 169 
Q 2131 122 2419 116 
L 2419 0 
L 825 0 
L 825 116 
Q 1125 122 1212 167 
Q 1300 213 1334 289 
Q 1369 366 1369 747 
L 1369 3034 
Q 1369 3497 1338 3628 
Q 1316 3728 1258 3775 
Q 1200 3822 1119 3822 
Q 1003 3822 797 3725 
L 750 3822 
z
" transform="scale(0.015625)"/>
       </defs>
       <use xlink:href="#TimesNewRomanPSMT-31"/>
       <use xlink:href="#TimesNewRomanPSMT-30" transform="translate(50 0)"/>
       <use xlink:href="#TimesNewRomanPSMT-30" transform="translate(100 0)"/>
       <use xlink:href="#TimesNewRomanPSMT-30" transform="translate(150 0)"/>
      </g>
     </g>
    </g>
    <g id="xtick_3">
     <g id="line2d_5">
      <path d="M 351.662745 339.337925 
L 351.662745 73.225925 
" clip-path="url(#p82693f9f3c)" style="fill: none; stroke: #b0b0b0; stroke-width: 0.8; stroke-linecap: square"/>
     </g>
     <g id="line2d_6">
      <g>
       <use xlink:href="#m03da13b238" x="351.662745" y="339.337925" style="stroke: #000000; stroke-width: 0.8"/>
      </g>
     </g>
     <g id="text_3">
      <!-- 2000 -->
      <g transform="translate(329.662745 361.614175) scale(0.22 -0.22)">
       <defs>
        <path id="TimesNewRomanPSMT-32" d="M 2934 816 
L 2638 0 
L 138 0 
L 138 116 
Q 1241 1122 1691 1759 
Q 2141 2397 2141 2925 
Q 2141 3328 1894 3587 
Q 1647 3847 1303 3847 
Q 991 3847 742 3664 
Q 494 3481 375 3128 
L 259 3128 
Q 338 3706 661 4015 
Q 984 4325 1469 4325 
Q 1984 4325 2329 3994 
Q 2675 3663 2675 3213 
Q 2675 2891 2525 2569 
Q 2294 2063 1775 1497 
Q 997 647 803 472 
L 1909 472 
Q 2247 472 2383 497 
Q 2519 522 2628 598 
Q 2738 675 2819 816 
L 2934 816 
z
" transform="scale(0.015625)"/>
       </defs>
       <use xlink:href="#TimesNewRomanPSMT-32"/>
       <use xlink:href="#TimesNewRomanPSMT-30" transform="translate(50 0)"/>
       <use xlink:href="#TimesNewRomanPSMT-30" transform="translate(100 0)"/>
       <use xlink:href="#TimesNewRomanPSMT-30" transform="translate(150 0)"/>
      </g>
     </g>
    </g>
    <g id="text_4">
     <!-- Iteration N -->
     <g transform="translate(196.289062 385.596362) scale(0.22 -0.22)">
      <defs>
       <path id="TimesNewRomanPSMT-49" d="M 1975 116 
L 1975 0 
L 159 0 
L 159 116 
L 309 116 
Q 572 116 691 269 
Q 766 369 766 750 
L 766 3488 
Q 766 3809 725 3913 
Q 694 3991 597 4047 
Q 459 4122 309 4122 
L 159 4122 
L 159 4238 
L 1975 4238 
L 1975 4122 
L 1822 4122 
Q 1563 4122 1444 3969 
Q 1366 3869 1366 3488 
L 1366 750 
Q 1366 428 1406 325 
Q 1438 247 1538 191 
Q 1672 116 1822 116 
L 1975 116 
z
" transform="scale(0.015625)"/>
       <path id="TimesNewRomanPSMT-74" d="M 1031 3803 
L 1031 2863 
L 1700 2863 
L 1700 2644 
L 1031 2644 
L 1031 788 
Q 1031 509 1111 412 
Q 1191 316 1316 316 
Q 1419 316 1516 380 
Q 1613 444 1666 569 
L 1788 569 
Q 1678 263 1478 108 
Q 1278 -47 1066 -47 
Q 922 -47 784 33 
Q 647 113 581 261 
Q 516 409 516 719 
L 516 2644 
L 63 2644 
L 63 2747 
Q 234 2816 414 2980 
Q 594 3144 734 3369 
Q 806 3488 934 3803 
L 1031 3803 
z
" transform="scale(0.015625)"/>
       <path id="TimesNewRomanPSMT-65" d="M 681 1784 
Q 678 1147 991 784 
Q 1303 422 1725 422 
Q 2006 422 2214 576 
Q 2422 731 2563 1106 
L 2659 1044 
Q 2594 616 2278 264 
Q 1963 -88 1488 -88 
Q 972 -88 605 314 
Q 238 716 238 1394 
Q 238 2128 614 2539 
Q 991 2950 1559 2950 
Q 2041 2950 2350 2633 
Q 2659 2316 2659 1784 
L 681 1784 
z
M 681 1966 
L 2006 1966 
Q 1991 2241 1941 2353 
Q 1863 2528 1708 2628 
Q 1553 2728 1384 2728 
Q 1125 2728 920 2526 
Q 716 2325 681 1966 
z
" transform="scale(0.015625)"/>
       <path id="TimesNewRomanPSMT-72" d="M 1038 2947 
L 1038 2303 
Q 1397 2947 1775 2947 
Q 1947 2947 2059 2842 
Q 2172 2738 2172 2600 
Q 2172 2478 2090 2393 
Q 2009 2309 1897 2309 
Q 1788 2309 1652 2417 
Q 1516 2525 1450 2525 
Q 1394 2525 1328 2463 
Q 1188 2334 1038 2041 
L 1038 669 
Q 1038 431 1097 309 
Q 1138 225 1241 169 
Q 1344 113 1538 113 
L 1538 0 
L 72 0 
L 72 113 
Q 291 113 397 181 
Q 475 231 506 341 
Q 522 394 522 644 
L 522 1753 
Q 522 2253 501 2348 
Q 481 2444 426 2487 
Q 372 2531 291 2531 
Q 194 2531 72 2484 
L 41 2597 
L 906 2947 
L 1038 2947 
z
" transform="scale(0.015625)"/>
       <path id="TimesNewRomanPSMT-61" d="M 1822 413 
Q 1381 72 1269 19 
Q 1100 -59 909 -59 
Q 613 -59 420 144 
Q 228 347 228 678 
Q 228 888 322 1041 
Q 450 1253 767 1440 
Q 1084 1628 1822 1897 
L 1822 2009 
Q 1822 2438 1686 2597 
Q 1550 2756 1291 2756 
Q 1094 2756 978 2650 
Q 859 2544 859 2406 
L 866 2225 
Q 866 2081 792 2003 
Q 719 1925 600 1925 
Q 484 1925 411 2006 
Q 338 2088 338 2228 
Q 338 2497 613 2722 
Q 888 2947 1384 2947 
Q 1766 2947 2009 2819 
Q 2194 2722 2281 2516 
Q 2338 2381 2338 1966 
L 2338 994 
Q 2338 584 2353 492 
Q 2369 400 2405 369 
Q 2441 338 2488 338 
Q 2538 338 2575 359 
Q 2641 400 2828 588 
L 2828 413 
Q 2478 -56 2159 -56 
Q 2006 -56 1915 50 
Q 1825 156 1822 413 
z
M 1822 616 
L 1822 1706 
Q 1350 1519 1213 1441 
Q 966 1303 859 1153 
Q 753 1003 753 825 
Q 753 600 887 451 
Q 1022 303 1197 303 
Q 1434 303 1822 616 
z
" transform="scale(0.015625)"/>
       <path id="TimesNewRomanPSMT-69" d="M 928 4444 
Q 1059 4444 1151 4351 
Q 1244 4259 1244 4128 
Q 1244 3997 1151 3903 
Q 1059 3809 928 3809 
Q 797 3809 703 3903 
Q 609 3997 609 4128 
Q 609 4259 701 4351 
Q 794 4444 928 4444 
z
M 1188 2947 
L 1188 647 
Q 1188 378 1227 289 
Q 1266 200 1342 156 
Q 1419 113 1622 113 
L 1622 0 
L 231 0 
L 231 113 
Q 441 113 512 153 
Q 584 194 626 287 
Q 669 381 669 647 
L 669 1750 
Q 669 2216 641 2353 
Q 619 2453 572 2492 
Q 525 2531 444 2531 
Q 356 2531 231 2484 
L 188 2597 
L 1050 2947 
L 1188 2947 
z
" transform="scale(0.015625)"/>
       <path id="TimesNewRomanPSMT-6f" d="M 1600 2947 
Q 2250 2947 2644 2453 
Q 2978 2031 2978 1484 
Q 2978 1100 2793 706 
Q 2609 313 2286 112 
Q 1963 -88 1566 -88 
Q 919 -88 538 428 
Q 216 863 216 1403 
Q 216 1797 411 2186 
Q 606 2575 925 2761 
Q 1244 2947 1600 2947 
z
M 1503 2744 
Q 1338 2744 1170 2645 
Q 1003 2547 900 2300 
Q 797 2053 797 1666 
Q 797 1041 1045 587 
Q 1294 134 1700 134 
Q 2003 134 2200 384 
Q 2397 634 2397 1244 
Q 2397 2006 2069 2444 
Q 1847 2744 1503 2744 
z
" transform="scale(0.015625)"/>
       <path id="TimesNewRomanPSMT-6e" d="M 1034 2341 
Q 1538 2947 1994 2947 
Q 2228 2947 2397 2830 
Q 2566 2713 2666 2444 
Q 2734 2256 2734 1869 
L 2734 647 
Q 2734 375 2778 278 
Q 2813 200 2889 156 
Q 2966 113 3172 113 
L 3172 0 
L 1756 0 
L 1756 113 
L 1816 113 
Q 2016 113 2095 173 
Q 2175 234 2206 353 
Q 2219 400 2219 647 
L 2219 1819 
Q 2219 2209 2117 2386 
Q 2016 2563 1775 2563 
Q 1403 2563 1034 2156 
L 1034 647 
Q 1034 356 1069 288 
Q 1113 197 1189 155 
Q 1266 113 1500 113 
L 1500 0 
L 84 0 
L 84 113 
L 147 113 
Q 366 113 442 223 
Q 519 334 519 647 
L 519 1709 
Q 519 2225 495 2337 
Q 472 2450 423 2490 
Q 375 2531 294 2531 
Q 206 2531 84 2484 
L 38 2597 
L 900 2947 
L 1034 2947 
L 1034 2341 
z
" transform="scale(0.015625)"/>
       <path id="TimesNewRomanPSMT-20" transform="scale(0.015625)"/>
       <path id="TimesNewRomanPSMT-4e" d="M -84 4238 
L 1066 4238 
L 3656 1059 
L 3656 3503 
Q 3656 3894 3569 3991 
Q 3453 4122 3203 4122 
L 3056 4122 
L 3056 4238 
L 4531 4238 
L 4531 4122 
L 4381 4122 
Q 4113 4122 4000 3959 
Q 3931 3859 3931 3503 
L 3931 -69 
L 3819 -69 
L 1025 3344 
L 1025 734 
Q 1025 344 1109 247 
Q 1228 116 1475 116 
L 1625 116 
L 1625 0 
L 150 0 
L 150 116 
L 297 116 
Q 569 116 681 278 
Q 750 378 750 734 
L 750 3681 
Q 566 3897 470 3965 
Q 375 4034 191 4094 
Q 100 4122 -84 4122 
L -84 4238 
z
" transform="scale(0.015625)"/>
      </defs>
      <use xlink:href="#TimesNewRomanPSMT-49"/>
      <use xlink:href="#TimesNewRomanPSMT-74" transform="translate(33.300781 0)"/>
      <use xlink:href="#TimesNewRomanPSMT-65" transform="translate(61.083984 0)"/>
      <use xlink:href="#TimesNewRomanPSMT-72" transform="translate(105.46875 0)"/>
      <use xlink:href="#TimesNewRomanPSMT-61" transform="translate(138.769531 0)"/>
      <use xlink:href="#TimesNewRomanPSMT-74" transform="translate(183.154297 0)"/>
      <use xlink:href="#TimesNewRomanPSMT-69" transform="translate(210.9375 0)"/>
      <use xlink:href="#TimesNewRomanPSMT-6f" transform="translate(238.720703 0)"/>
      <use xlink:href="#TimesNewRomanPSMT-6e" transform="translate(288.720703 0)"/>
      <use xlink:href="#TimesNewRomanPSMT-20" transform="translate(338.720703 0)"/>
      <use xlink:href="#TimesNewRomanPSMT-4e" transform="translate(363.720703 0)"/>
     </g>
    </g>
   </g>
   <g id="matplotlib.axis_2">
    <g id="ytick_1">
     <g id="line2d_7">
      <path d="M 65.682187 339.337925 
L 422.802188 339.337925 
" clip-path="url(#p82693f9f3c)" style="fill: none; stroke: #b0b0b0; stroke-width: 0.8; stroke-linecap: square"/>
     </g>
     <g id="line2d_8">
      <defs>
       <path id="ma4ec5b57ce" d="M 0 0 
L -3.5 0 
" style="stroke: #000000; stroke-width: 0.8"/>
      </defs>
      <g>
       <use xlink:href="#ma4ec5b57ce" x="65.682187" y="339.337925" style="stroke: #000000; stroke-width: 0.8"/>
      </g>
     </g>
     <g id="text_5">
      <!-- 0.0 -->
      <g transform="translate(31.182187 346.97605) scale(0.22 -0.22)">
       <defs>
        <path id="TimesNewRomanPSMT-2e" d="M 800 606 
Q 947 606 1047 504 
Q 1147 403 1147 259 
Q 1147 116 1045 14 
Q 944 -88 800 -88 
Q 656 -88 554 14 
Q 453 116 453 259 
Q 453 406 554 506 
Q 656 606 800 606 
z
" transform="scale(0.015625)"/>
       </defs>
       <use xlink:href="#TimesNewRomanPSMT-30"/>
       <use xlink:href="#TimesNewRomanPSMT-2e" transform="translate(50 0)"/>
       <use xlink:href="#TimesNewRomanPSMT-30" transform="translate(75 0)"/>
      </g>
     </g>
    </g>
    <g id="ytick_2">
     <g id="line2d_9">
      <path d="M 65.682187 283.441077 
L 422.802188 283.441077 
" clip-path="url(#p82693f9f3c)" style="fill: none; stroke: #b0b0b0; stroke-width: 0.8; stroke-linecap: square"/>
     </g>
     <g id="line2d_10">
      <g>
       <use xlink:href="#ma4ec5b57ce" x="65.682187" y="283.441077" style="stroke: #000000; stroke-width: 0.8"/>
      </g>
     </g>
     <g id="text_6">
      <!-- 0.1 -->
      <g transform="translate(31.182187 291.079202) scale(0.22 -0.22)">
       <use xlink:href="#TimesNewRomanPSMT-30"/>
       <use xlink:href="#TimesNewRomanPSMT-2e" transform="translate(50 0)"/>
       <use xlink:href="#TimesNewRomanPSMT-31" transform="translate(75 0)"/>
      </g>
     </g>
    </g>
    <g id="ytick_3">
     <g id="line2d_11">
      <path d="M 65.682187 227.54423 
L 422.802188 227.54423 
" clip-path="url(#p82693f9f3c)" style="fill: none; stroke: #b0b0b0; stroke-width: 0.8; stroke-linecap: square"/>
     </g>
     <g id="line2d_12">
      <g>
       <use xlink:href="#ma4ec5b57ce" x="65.682187" y="227.54423" style="stroke: #000000; stroke-width: 0.8"/>
      </g>
     </g>
     <g id="text_7">
      <!-- 0.2 -->
      <g transform="translate(31.182187 235.182355) scale(0.22 -0.22)">
       <use xlink:href="#TimesNewRomanPSMT-30"/>
       <use xlink:href="#TimesNewRomanPSMT-2e" transform="translate(50 0)"/>
       <use xlink:href="#TimesNewRomanPSMT-32" transform="translate(75 0)"/>
      </g>
     </g>
    </g>
    <g id="ytick_4">
     <g id="line2d_13">
      <path d="M 65.682187 171.647382 
L 422.802188 171.647382 
" clip-path="url(#p82693f9f3c)" style="fill: none; stroke: #b0b0b0; stroke-width: 0.8; stroke-linecap: square"/>
     </g>
     <g id="line2d_14">
      <g>
       <use xlink:href="#ma4ec5b57ce" x="65.682187" y="171.647382" style="stroke: #000000; stroke-width: 0.8"/>
      </g>
     </g>
     <g id="text_8">
      <!-- 0.3 -->
      <g transform="translate(31.182187 179.285507) scale(0.22 -0.22)">
       <defs>
        <path id="TimesNewRomanPSMT-33" d="M 325 3431 
Q 506 3859 782 4092 
Q 1059 4325 1472 4325 
Q 1981 4325 2253 3994 
Q 2459 3747 2459 3466 
Q 2459 3003 1878 2509 
Q 2269 2356 2469 2072 
Q 2669 1788 2669 1403 
Q 2669 853 2319 450 
Q 1863 -75 997 -75 
Q 569 -75 414 31 
Q 259 138 259 259 
Q 259 350 332 419 
Q 406 488 509 488 
Q 588 488 669 463 
Q 722 447 909 348 
Q 1097 250 1169 231 
Q 1284 197 1416 197 
Q 1734 197 1970 444 
Q 2206 691 2206 1028 
Q 2206 1275 2097 1509 
Q 2016 1684 1919 1775 
Q 1784 1900 1550 2001 
Q 1316 2103 1072 2103 
L 972 2103 
L 972 2197 
Q 1219 2228 1467 2375 
Q 1716 2522 1828 2728 
Q 1941 2934 1941 3181 
Q 1941 3503 1739 3701 
Q 1538 3900 1238 3900 
Q 753 3900 428 3381 
L 325 3431 
z
" transform="scale(0.015625)"/>
       </defs>
       <use xlink:href="#TimesNewRomanPSMT-30"/>
       <use xlink:href="#TimesNewRomanPSMT-2e" transform="translate(50 0)"/>
       <use xlink:href="#TimesNewRomanPSMT-33" transform="translate(75 0)"/>
      </g>
     </g>
    </g>
    <g id="ytick_5">
     <g id="line2d_15">
      <path d="M 65.682187 115.750534 
L 422.802188 115.750534 
" clip-path="url(#p82693f9f3c)" style="fill: none; stroke: #b0b0b0; stroke-width: 0.8; stroke-linecap: square"/>
     </g>
     <g id="line2d_16">
      <g>
       <use xlink:href="#ma4ec5b57ce" x="65.682187" y="115.750534" style="stroke: #000000; stroke-width: 0.8"/>
      </g>
     </g>
     <g id="text_9">
      <!-- 0.4 -->
      <g transform="translate(31.182187 123.388659) scale(0.22 -0.22)">
       <defs>
        <path id="TimesNewRomanPSMT-34" d="M 2978 1563 
L 2978 1119 
L 2409 1119 
L 2409 0 
L 1894 0 
L 1894 1119 
L 100 1119 
L 100 1519 
L 2066 4325 
L 2409 4325 
L 2409 1563 
L 2978 1563 
z
M 1894 1563 
L 1894 3666 
L 406 1563 
L 1894 1563 
z
" transform="scale(0.015625)"/>
       </defs>
       <use xlink:href="#TimesNewRomanPSMT-30"/>
       <use xlink:href="#TimesNewRomanPSMT-2e" transform="translate(50 0)"/>
       <use xlink:href="#TimesNewRomanPSMT-34" transform="translate(75 0)"/>
      </g>
     </g>
    </g>
    <g id="text_10">
     <!-- Loss -->
     <g transform="translate(22.47625 227.063331) rotate(-90) scale(0.22 -0.22)">
      <defs>
       <path id="TimesNewRomanPSMT-4c" d="M 3669 1172 
L 3772 1150 
L 3409 0 
L 128 0 
L 128 116 
L 288 116 
Q 556 116 672 291 
Q 738 391 738 753 
L 738 3488 
Q 738 3884 650 3984 
Q 528 4122 288 4122 
L 128 4122 
L 128 4238 
L 2047 4238 
L 2047 4122 
Q 1709 4125 1573 4059 
Q 1438 3994 1388 3894 
Q 1338 3794 1338 3416 
L 1338 753 
Q 1338 494 1388 397 
Q 1425 331 1503 300 
Q 1581 269 1991 269 
L 2300 269 
Q 2788 269 2984 341 
Q 3181 413 3343 595 
Q 3506 778 3669 1172 
z
" transform="scale(0.015625)"/>
       <path id="TimesNewRomanPSMT-73" d="M 2050 2947 
L 2050 1972 
L 1947 1972 
Q 1828 2431 1642 2597 
Q 1456 2763 1169 2763 
Q 950 2763 815 2647 
Q 681 2531 681 2391 
Q 681 2216 781 2091 
Q 878 1963 1175 1819 
L 1631 1597 
Q 2266 1288 2266 781 
Q 2266 391 1970 151 
Q 1675 -88 1309 -88 
Q 1047 -88 709 6 
Q 606 38 541 38 
Q 469 38 428 -44 
L 325 -44 
L 325 978 
L 428 978 
Q 516 541 762 319 
Q 1009 97 1316 97 
Q 1531 97 1667 223 
Q 1803 350 1803 528 
Q 1803 744 1651 891 
Q 1500 1038 1047 1263 
Q 594 1488 453 1669 
Q 313 1847 313 2119 
Q 313 2472 555 2709 
Q 797 2947 1181 2947 
Q 1350 2947 1591 2875 
Q 1750 2828 1803 2828 
Q 1853 2828 1881 2850 
Q 1909 2872 1947 2947 
L 2050 2947 
z
" transform="scale(0.015625)"/>
      </defs>
      <use xlink:href="#TimesNewRomanPSMT-4c"/>
      <use xlink:href="#TimesNewRomanPSMT-6f" transform="translate(61.083984 0)"/>
      <use xlink:href="#TimesNewRomanPSMT-73" transform="translate(111.083984 0)"/>
      <use xlink:href="#TimesNewRomanPSMT-73" transform="translate(150 0)"/>
     </g>
    </g>
   </g>
   <g id="line2d_17">
    <path d="M 67.104976 221.000405 
L 78.531234 218.987518 
L 84.244363 211.644467 
L 91.385774 206.068739 
L 95.670621 200.589676 
L 97.098903 198.692795 
L 101.38375 193.895014 
L 115.666572 189.964877 
L 118.523137 183.66321 
L 122.807984 180.229782 
L 132.805959 176.277588 
L 135.662524 175.47293 
L 144.232217 174.473439 
L 148.517064 173.759489 
L 154.230193 173.172275 
L 155.658475 173.084043 
L 159.943322 172.457115 
L 162.799886 171.658387 
L 168.513015 171.639374 
L 169.941297 171.653206 
L 175.654426 170.957828 
L 185.652402 170.853362 
L 194.222096 170.137011 
L 199.935224 169.887576 
L 201.363507 169.852865 
L 205.648353 169.1658 
L 208.504918 169.218824 
L 211.361482 169.515896 
L 218.502894 169.301062 
L 221.359458 169.051639 
L 225.644305 170.025165 
L 238.498845 201.203673 
L 245.640256 188.192649 
L 254.20995 173.403704 
L 264.207925 170.757205 
L 269.921054 169.501536 
L 274.205901 169.361538 
L 277.062465 168.58335 
L 282.775594 168.294846 
L 285.632159 168.012328 
L 291.345288 167.907201 
L 298.486699 167.554484 
L 301.343263 167.053844 
L 305.62811 167.281117 
L 311.341239 166.887834 
L 314.197803 166.83665 
L 315.626086 166.841198 
L 321.339215 166.336177 
L 324.195779 167.109301 
L 327.052344 166.564449 
L 332.765473 166.632112 
L 337.050319 166.926706 
L 341.335166 186.865069 
L 354.189706 171.12363 
L 357.046271 170.011938 
L 362.7594 171.050266 
L 372.757375 169.678829 
L 377.042222 169.266518 
L 382.755351 169.382022 
L 384.183633 169.43865 
L 387.040198 168.725664 
L 394.181609 168.646297 
L 397.038173 168.271069 
L 399.894738 168.373219 
L 405.607867 168.032352 
L 409.892713 168.277682 
L 415.605842 167.978261 
L 418.462407 167.737212 
L 422.747254 167.833865 
L 428.460383 167.381535 
L 432.745229 167.678624 
L 437.030076 167.246384 
L 437.030076 167.246384 
" clip-path="url(#p82693f9f3c)" style="fill: none; stroke-dasharray: 5.55,2.4; stroke-dashoffset: 0; stroke: #ff0000; stroke-width: 1.5"/>
   </g>
   <g id="line2d_18">
    <path d="M 67.104976 220.669249 
L 81.382267 218.937246 
L 82.809996 218.831052 
L 85.665454 214.103886 
L 88.520913 211.449078 
L 94.231829 207.434782 
L 98.515016 203.319893 
L 102.798203 201.006236 
L 111.364578 194.337282 
L 121.358682 188.267719 
L 129.925056 184.79695 
L 132.780514 183.564125 
L 139.91916 181.333294 
L 145.630076 181.180119 
L 155.62418 179.049773 
L 167.046012 177.530212 
L 172.756929 176.75418 
L 175.612387 176.384753 
L 178.467845 176.424883 
L 182.751032 175.958794 
L 189.889678 175.736285 
L 194.172865 175.441712 
L 197.028323 175.47403 
L 201.31151 174.887498 
L 207.022427 174.933093 
L 209.877885 174.076243 
L 212.733343 173.720933 
L 217.01653 174.83021 
L 219.871988 173.889617 
L 228.438363 173.749286 
L 231.293821 173.102517 
L 244.143383 172.86371 
L 246.998841 172.674464 
L 251.282028 172.358035 
L 254.137486 172.275286 
L 256.992944 172.517469 
L 261.276132 172.126959 
L 268.414777 172.136437 
L 274.125693 171.533298 
L 279.83661 171.819164 
L 282.692068 171.912938 
L 284.119797 171.908432 
L 289.830713 171.235182 
L 292.686172 170.793974 
L 295.54163 171.074254 
L 299.824817 172.321947 
L 304.108004 171.433613 
L 309.818921 170.714246 
L 312.674379 170.762506 
L 319.813024 190.534266 
L 325.52394 186.409307 
L 328.379399 185.872335 
L 334.090315 182.50066 
L 338.373502 179.146609 
L 341.22896 179.59594 
L 345.512148 178.483232 
L 351.223064 178.269236 
L 356.93398 177.823039 
L 378.349917 176.431947 
L 382.633104 176.638246 
L 391.199478 175.74658 
L 392.627207 175.5683 
L 399.765853 175.520957 
L 402.621311 175.154968 
L 406.904498 175.072465 
L 416.898602 174.443514 
L 418.326331 174.266151 
L 426.892705 174.169648 
L 431.175893 174.52784 
L 434.031351 173.98797 
L 439.742267 173.566558 
L 444.025454 173.792065 
L 446.880913 173.394292 
L 449.736371 173.924717 
L 456.875016 173.589772 
L 458.302745 173.455112 
L 461.158203 173.660429 
L 468.296849 173.407313 
L 478.290952 173.255493 
L 478.290952 173.255493 
" clip-path="url(#p82693f9f3c)" style="fill: none; stroke-dasharray: 5.55,2.4; stroke-dashoffset: 0; stroke: #ffa500; stroke-width: 1.5"/>
   </g>
   <g id="line2d_19">
    <path d="M 67.104976 218.482108 
L 78.531576 220.134526 
L 82.816551 219.462817 
L 85.673201 219.115181 
L 92.814826 214.398093 
L 98.528126 212.80586 
L 101.384776 209.461104 
L 105.669751 208.520162 
L 111.383051 207.986322 
L 117.096351 204.576057 
L 119.953001 202.456822 
L 122.809651 199.541432 
L 127.094626 201.267067 
L 132.807926 193.412315 
L 138.521226 197.581986 
L 142.806201 196.434395 
L 148.519501 193.978557 
L 152.804476 194.537851 
L 161.374426 191.720705 
L 164.231076 190.713612 
L 168.51605 189.896277 
L 172.801025 188.792497 
L 174.22935 188.381514 
L 178.514325 179.611799 
L 181.370975 186.621954 
L 185.65595 188.614884 
L 188.5126 189.455758 
L 191.36925 187.638442 
L 209.937475 185.589856 
L 211.3658 185.329916 
L 221.364075 184.41747 
L 229.934025 183.518692 
L 235.647325 183.156615 
L 254.21555 181.944414 
L 258.500525 181.643344 
L 259.92885 181.586071 
L 262.7855 182.046547 
L 265.64215 181.246887 
L 269.927125 180.983681 
L 274.2121 180.741591 
L 278.497075 180.290485 
L 287.067024 180.334381 
L 291.351999 180.171252 
L 295.636974 180.066339 
L 301.350274 180.082503 
L 307.063574 179.959588 
L 311.348549 179.577482 
L 319.918499 178.816803 
L 332.773424 178.487452 
L 335.630074 178.546301 
L 338.486724 178.342633 
L 344.200024 178.339435 
L 347.056674 178.323063 
L 352.769974 178.498591 
L 365.624899 177.428961 
L 369.909874 177.843443 
L 378.479824 177.399692 
L 381.336474 177.258095 
L 384.193124 177.45215 
L 389.906424 177.284632 
L 397.048049 176.95336 
L 404.189674 176.695274 
L 407.046323 176.857806 
L 414.187948 176.151825 
L 415.616273 176.024678 
L 418.472923 176.59585 
L 429.899523 176.064687 
L 434.184498 175.834832 
L 434.184498 175.834832 
" clip-path="url(#p82693f9f3c)" style="fill: none; stroke-dasharray: 5.55,2.4; stroke-dashoffset: 0; stroke: #008000; stroke-width: 1.5"/>
   </g>
   <g id="line2d_20">
    <path d="M 67.104976 220.449752 
L 94.186238 222.722075 
L 98.462226 222.595395 
L 104.163544 221.942146 
L 108.439533 221.981648 
L 112.715522 222.215497 
L 118.41684 221.00925 
L 124.118158 221.25224 
L 128.394147 220.528674 
L 134.095465 219.862203 
L 136.946124 219.670719 
L 144.072771 218.612842 
L 146.923431 218.687131 
L 155.475408 217.660963 
L 159.751396 216.705204 
L 162.602055 216.581755 
L 165.452715 216.089395 
L 168.303374 216.427522 
L 179.70601 215.02226 
L 183.981999 214.460785 
L 189.683317 213.978481 
L 198.235294 213.243622 
L 206.787271 212.412301 
L 208.212601 212.425337 
L 216.764578 211.566676 
L 222.465896 211.279103 
L 233.868532 209.123019 
L 238.144521 209.474923 
L 243.845839 209.22036 
L 252.397816 208.621038 
L 258.099135 208.23693 
L 260.949794 208.027669 
L 263.800453 207.59248 
L 280.904407 206.378013 
L 283.755066 206.431462 
L 289.456384 205.952845 
L 298.008362 205.612201 
L 306.560339 204.956305 
L 312.261657 204.514953 
L 319.388305 204.186288 
L 323.664293 203.849658 
L 335.06693 203.20295 
L 336.492259 203.1004 
L 339.342918 203.154407 
L 346.469566 202.360477 
L 350.745555 202.522157 
L 356.446873 202.083401 
L 359.297532 202.001185 
L 363.57352 201.404067 
L 373.550827 201.085267 
L 377.826816 201.034018 
L 380.677475 200.816453 
L 383.528134 200.496926 
L 412.034725 199.511658 
L 414.885384 199.158252 
L 420.586702 199.01154 
L 427.71335 198.507835 
L 431.989338 198.593233 
L 436.265327 198.465848 
L 443.391975 198.058987 
L 453.369281 197.98459 
L 456.21994 197.503024 
L 463.346588 197.570503 
L 476.174554 197.251797 
L 481.875872 197.036518 
L 487.57719 196.444989 
L 493.278509 196.578647 
L 497.554497 196.435252 
L 503.255815 196.139135 
L 507.531804 196.015632 
L 514.658452 195.9787 
L 517.509111 195.910433 
L 521.785099 195.34141 
L 527.486417 195.50421 
L 531.762406 195.483957 
L 534.613065 195.148804 
L 541.739713 194.949001 
L 543.165042 194.823645 
L 548.866361 194.915117 
L 553.142349 194.574375 
L 558.843667 194.457698 
L 564.544985 194.439935 
L 573.096963 194.1754 
L 581.64894 193.990891 
L 598.752894 193.505281 
L 601.603553 193.315229 
L 608.730201 193.404827 
L 611.58086 193.219826 
L 613.00619 193.07348 
L 621.558167 192.957637 
L 625.834156 192.721352 
L 641.512781 192.577688 
L 642.93811 192.450034 
L 650.064758 192.376799 
L 655.766076 192.305646 
L 657.191405 192.408554 
L 662.892724 192.094174 
L 668.594042 192.068181 
L 672.87003 191.919425 
L 678.571349 191.860621 
L 681.422008 191.582589 
L 685.697996 191.657769 
L 691.399314 191.02651 
L 695.675303 191.220274 
L 699.951292 191.49165 
L 704.22728 191.227679 
L 705.49 191.266028 
L 705.49 191.266028 
" clip-path="url(#p82693f9f3c)" style="fill: none; stroke-dasharray: 5.55,2.4; stroke-dashoffset: 0; stroke: #0000ff; stroke-width: 1.5"/>
   </g>
   <g id="line2d_21">
    <path d="M 67.104976 208.70501 
L 88.52921 286.34136 
L 92.814057 300.839288 
L 108.525161 329.955802 
L 122.807984 333.579698 
L 128.521113 334.464685 
L 132.805959 334.907659 
L 135.662524 335.177091 
L 141.375653 334.991712 
L 144.232217 334.436591 
L 154.230193 335.308552 
L 157.086757 335.590469 
L 162.799886 334.67333 
L 165.656451 334.75833 
L 171.36958 335.515787 
L 179.939273 335.750896 
L 187.080684 335.344393 
L 188.508967 335.292454 
L 191.365531 334.828982 
L 194.222096 335.375005 
L 198.506942 335.683495 
L 202.791789 335.140944 
L 205.648353 335.13959 
L 209.9332 336.151659 
L 214.218047 335.529864 
L 218.502894 335.916983 
L 224.216023 335.37434 
L 238.498845 292.703806 
L 241.355409 310.856514 
L 249.925103 332.233926 
L 257.066514 335.35736 
L 259.923078 335.806225 
L 264.207925 334.643277 
L 267.06449 335.431247 
L 271.349336 335.325469 
L 275.634183 335.667478 
L 279.91903 336.141157 
L 282.775594 335.523012 
L 288.488723 336.13912 
L 299.914981 335.972011 
L 305.62811 335.659033 
L 309.912957 335.685254 
L 314.197803 335.914852 
L 317.054368 335.530155 
L 322.767497 335.994559 
L 325.624061 336.459879 
L 328.480626 335.762191 
L 331.33719 336.066176 
L 335.622037 335.60134 
L 351.333142 335.962304 
L 354.189706 335.292896 
L 357.046271 336.226023 
L 361.331117 336.027093 
L 364.187682 336.120809 
L 367.044246 335.979982 
L 372.757375 336.803108 
L 378.470504 335.82637 
L 381.327069 336.222858 
L 387.040198 336.534093 
L 389.896762 336.765119 
L 391.325044 336.83855 
L 394.181609 336.069247 
L 401.32302 336.771156 
L 408.464431 336.226931 
L 412.749278 336.773764 
L 419.890689 336.672369 
L 425.603818 336.229827 
L 428.460383 336.695862 
L 437.030076 336.048855 
L 437.030076 336.048855 
" clip-path="url(#p82693f9f3c)" style="fill: none; stroke: #ff0000; stroke-width: 1.5; stroke-linecap: square"/>
   </g>
   <g id="line2d_22">
    <path d="M 67.104976 232.354349 
L 97.087287 306.296723 
L 101.370474 311.485573 
L 107.081391 320.652753 
L 119.930952 332.062403 
L 125.641869 334.077581 
L 131.352785 335.002989 
L 139.91916 335.24886 
L 154.19645 335.922105 
L 158.479638 335.929745 
L 161.335096 336.386979 
L 167.046012 335.793448 
L 172.756929 336.556035 
L 175.612387 335.90036 
L 179.895574 336.672094 
L 184.178761 336.001022 
L 188.461948 336.174813 
L 192.745136 336.927154 
L 199.883781 336.076606 
L 202.739239 336.498817 
L 205.594697 335.869433 
L 208.450156 336.473827 
L 214.161072 336.577774 
L 217.01653 335.898062 
L 224.155176 336.748319 
L 228.438363 336.207639 
L 229.866092 335.974894 
L 234.149279 336.596212 
L 237.004737 335.83446 
L 239.860195 336.642332 
L 245.571112 336.44498 
L 248.42657 336.68167 
L 252.709757 336.139978 
L 256.992944 335.984037 
L 259.848403 336.524919 
L 262.703861 335.987428 
L 268.414777 336.803329 
L 274.125693 336.834985 
L 278.408881 336.300668 
L 281.264339 336.684727 
L 285.547526 335.985771 
L 288.402984 336.458129 
L 292.686172 336.379699 
L 295.54163 335.765201 
L 299.824817 336.37805 
L 305.535733 336.509851 
L 312.674379 336.380065 
L 321.240753 308.274346 
L 334.090315 336.266458 
L 338.373502 337.152525 
L 341.22896 335.819419 
L 346.939877 336.688244 
L 356.93398 336.501318 
L 359.789438 336.78696 
L 362.644897 336.199582 
L 366.928084 336.112963 
L 369.783542 336.281426 
L 372.639 337.063001 
L 376.922187 336.449202 
L 379.777646 336.688288 
L 385.488562 336.605659 
L 391.199478 336.446965 
L 394.054937 336.994922 
L 401.193582 336.50714 
L 404.04904 336.333961 
L 405.476769 336.289575 
L 408.332227 336.930774 
L 418.326331 336.598524 
L 421.181789 336.539568 
L 425.464976 336.848934 
L 431.175893 336.381535 
L 436.886809 337.542791 
L 439.742267 336.620464 
L 449.736371 336.613845 
L 452.591829 336.690096 
L 456.875016 336.375388 
L 464.013662 336.966566 
L 468.296849 337.080676 
L 478.290952 336.54232 
L 478.290952 336.54232 
" clip-path="url(#p82693f9f3c)" style="fill: none; stroke: #ffa500; stroke-width: 1.5; stroke-linecap: square"/>
   </g>
   <g id="line2d_23">
    <path d="M 67.104976 217.420047 
L 82.816551 251.424297 
L 88.529851 268.523966 
L 94.243151 278.291837 
L 98.528126 286.920337 
L 102.813101 291.608339 
L 105.669751 296.004803 
L 108.526401 293.602693 
L 114.239701 306.17597 
L 118.524676 309.252884 
L 125.666301 317.139621 
L 138.521226 321.932381 
L 141.377876 324.562785 
L 144.234526 324.61408 
L 147.091176 321.295404 
L 152.804476 328.16173 
L 159.946101 329.678714 
L 162.802751 331.447553 
L 165.659401 332.038305 
L 169.944375 332.345052 
L 174.22935 333.304036 
L 179.94265 316.278777 
L 182.7993 320.022691 
L 191.36925 334.30017 
L 198.510875 334.402273 
L 201.367525 335.138326 
L 205.6525 334.54975 
L 208.50915 335.911465 
L 214.22245 335.082357 
L 219.93575 335.704171 
L 222.7924 335.521174 
L 227.077375 335.970667 
L 231.36235 336.25186 
L 235.647325 335.907938 
L 247.073925 336.548042 
L 249.930575 336.396221 
L 255.643875 336.899743 
L 258.500525 336.160027 
L 268.4988 336.464493 
L 277.06875 336.574343 
L 284.210375 337.057792 
L 289.923674 336.46425 
L 292.780324 336.505544 
L 297.065299 336.209284 
L 302.778599 337.033907 
L 312.776874 336.639683 
L 327.060124 336.582318 
L 329.916774 336.41533 
L 332.773424 337.321962 
L 337.058399 336.692735 
L 338.486724 336.541912 
L 344.200024 336.866248 
L 351.341649 336.516578 
L 354.198299 337.392025 
L 357.054949 336.879032 
L 362.768249 336.775305 
L 365.624899 336.95273 
L 367.053224 337.079383 
L 371.338199 336.48934 
L 377.051499 336.949507 
L 381.336474 337.15901 
L 385.621449 336.895562 
L 388.478099 337.139727 
L 397.048049 336.920408 
L 401.333024 337.232827 
L 414.187948 336.807623 
L 418.472923 337.97675 
L 424.186223 336.869038 
L 434.184498 337.538758 
L 434.184498 337.538758 
" clip-path="url(#p82693f9f3c)" style="fill: none; stroke: #008000; stroke-width: 1.5; stroke-linecap: square"/>
   </g>
   <g id="line2d_24">
    <path d="M 67.104976 224.6274 
L 118.41684 275.421188 
L 119.842169 276.912966 
L 124.118158 280.358823 
L 128.394147 282.700416 
L 149.77409 297.014878 
L 155.475408 300.428779 
L 176.855351 309.201932 
L 183.981999 311.505625 
L 189.683317 313.725454 
L 192.533976 314.878396 
L 202.511283 317.287286 
L 205.361942 318.347689 
L 209.63793 318.750437 
L 212.488589 319.841339 
L 223.891226 322.567525 
L 228.167214 323.780448 
L 231.017873 324.69671 
L 240.99518 325.689765 
L 243.845839 326.207545 
L 255.248475 327.348698 
L 258.099135 327.74888 
L 263.800453 328.085773 
L 270.9271 329.87408 
L 276.628419 329.752131 
L 282.329737 330.203892 
L 283.755066 330.388413 
L 286.605725 330.312961 
L 293.732373 331.09059 
L 296.583032 331.082068 
L 299.433691 331.619721 
L 305.135009 331.799701 
L 310.836328 332.578026 
L 313.686987 332.313235 
L 317.962975 332.287748 
L 322.238964 332.965793 
L 325.089623 333.275039 
L 327.940282 332.923452 
L 336.492259 333.854311 
L 339.342918 334.273458 
L 342.193577 333.986789 
L 346.469566 333.981349 
L 350.745555 334.388249 
L 355.021543 333.980626 
L 363.57352 334.738572 
L 373.550827 335.330489 
L 376.401486 335.173907 
L 386.378793 335.528325 
L 387.804123 335.562187 
L 390.654782 335.360799 
L 400.632088 336.185769 
L 403.482748 336.456729 
L 407.758736 335.997883 
L 409.184066 335.911689 
L 416.310713 336.200339 
L 417.736043 336.282154 
L 423.437361 336.153982 
L 426.28802 336.491925 
L 429.138679 336.279586 
L 446.242634 337.286161 
L 456.21994 336.702539 
L 461.921259 336.927275 
L 464.771918 336.79853 
L 469.047906 337.192804 
L 471.898565 337.126189 
L 476.174554 337.501654 
L 479.025213 336.935088 
L 484.726531 337.298782 
L 490.427849 337.01568 
L 501.830486 337.327624 
L 521.785099 337.45465 
L 523.210429 337.334481 
L 526.061088 337.666851 
L 531.762406 337.72763 
L 537.463724 337.409873 
L 550.29169 337.849767 
L 557.418338 337.89643 
L 568.820974 337.848016 
L 581.64894 338.177124 
L 585.924929 337.777745 
L 588.775588 338.257302 
L 593.051576 338.149375 
L 597.327565 338.155535 
L 603.028883 337.95011 
L 611.58086 337.876861 
L 614.431519 338.354372 
L 624.408826 338.055883 
L 627.259485 338.264247 
L 632.960803 337.946062 
L 635.811462 338.262469 
L 640.087451 337.875212 
L 642.93811 337.861277 
L 650.064758 338.394994 
L 657.191405 338.213257 
L 665.743383 338.368952 
L 675.720689 338.375971 
L 677.146019 338.411026 
L 682.847337 338.151527 
L 691.399314 338.108769 
L 694.249973 338.262217 
L 699.951292 338.366627 
L 705.49 338.121158 
L 705.49 338.121158 
" clip-path="url(#p82693f9f3c)" style="fill: none; stroke: #0000ff; stroke-width: 1.5; stroke-linecap: square"/>
   </g>
   <g id="patch_3">
    <path d="M 65.682187 339.337925 
L 65.682187 73.225925 
" style="fill: none; stroke: #000000; stroke-width: 0.8; stroke-linejoin: miter; stroke-linecap: square"/>
   </g>
   <g id="patch_4">
    <path d="M 422.802188 339.337925 
L 422.802188 73.225925 
" style="fill: none; stroke: #000000; stroke-width: 0.8; stroke-linejoin: miter; stroke-linecap: square"/>
   </g>
   <g id="patch_5">
    <path d="M 65.682187 339.337925 
L 422.802188 339.337925 
" style="fill: none; stroke: #000000; stroke-width: 0.8; stroke-linejoin: miter; stroke-linecap: square"/>
   </g>
   <g id="patch_6">
    <path d="M 65.682187 73.225925 
L 422.802188 73.225925 
" style="fill: none; stroke: #000000; stroke-width: 0.8; stroke-linejoin: miter; stroke-linecap: square"/>
   </g>
   <g id="text_11">
    <!-- Training dynamic on dataset {car+truck}  -->
    <g transform="translate(24.097125 25.5315) scale(0.264 -0.264)">
     <defs>
      <path id="TimesNewRomanPSMT-54" d="M 3703 4238 
L 3750 3244 
L 3631 3244 
Q 3597 3506 3538 3619 
Q 3441 3800 3280 3886 
Q 3119 3972 2856 3972 
L 2259 3972 
L 2259 734 
Q 2259 344 2344 247 
Q 2463 116 2709 116 
L 2856 116 
L 2856 0 
L 1059 0 
L 1059 116 
L 1209 116 
Q 1478 116 1591 278 
Q 1659 378 1659 734 
L 1659 3972 
L 1150 3972 
Q 853 3972 728 3928 
Q 566 3869 450 3700 
Q 334 3531 313 3244 
L 194 3244 
L 244 4238 
L 3703 4238 
z
" transform="scale(0.015625)"/>
      <path id="TimesNewRomanPSMT-67" d="M 966 1044 
Q 703 1172 562 1401 
Q 422 1631 422 1909 
Q 422 2334 742 2640 
Q 1063 2947 1563 2947 
Q 1972 2947 2272 2747 
L 2878 2747 
Q 3013 2747 3034 2739 
Q 3056 2731 3066 2713 
Q 3084 2684 3084 2613 
Q 3084 2531 3069 2500 
Q 3059 2484 3036 2475 
Q 3013 2466 2878 2466 
L 2506 2466 
Q 2681 2241 2681 1891 
Q 2681 1491 2375 1206 
Q 2069 922 1553 922 
Q 1341 922 1119 984 
Q 981 866 932 777 
Q 884 688 884 625 
Q 884 572 936 522 
Q 988 472 1138 450 
Q 1225 438 1575 428 
Q 2219 413 2409 384 
Q 2700 344 2873 169 
Q 3047 -6 3047 -263 
Q 3047 -616 2716 -925 
Q 2228 -1381 1444 -1381 
Q 841 -1381 425 -1109 
Q 191 -953 191 -784 
Q 191 -709 225 -634 
Q 278 -519 444 -313 
Q 466 -284 763 25 
Q 600 122 533 198 
Q 466 275 466 372 
Q 466 481 555 628 
Q 644 775 966 1044 
z
M 1509 2797 
Q 1278 2797 1122 2612 
Q 966 2428 966 2047 
Q 966 1553 1178 1281 
Q 1341 1075 1591 1075 
Q 1828 1075 1981 1253 
Q 2134 1431 2134 1813 
Q 2134 2309 1919 2591 
Q 1759 2797 1509 2797 
z
M 934 0 
Q 788 -159 713 -296 
Q 638 -434 638 -550 
Q 638 -700 819 -813 
Q 1131 -1006 1722 -1006 
Q 2284 -1006 2551 -807 
Q 2819 -609 2819 -384 
Q 2819 -222 2659 -153 
Q 2497 -84 2016 -72 
Q 1313 -53 934 0 
z
" transform="scale(0.015625)"/>
      <path id="TimesNewRomanPSMT-64" d="M 2222 322 
Q 2013 103 1813 7 
Q 1613 -88 1381 -88 
Q 913 -88 563 304 
Q 213 697 213 1313 
Q 213 1928 600 2439 
Q 988 2950 1597 2950 
Q 1975 2950 2222 2709 
L 2222 3238 
Q 2222 3728 2198 3840 
Q 2175 3953 2125 3993 
Q 2075 4034 2000 4034 
Q 1919 4034 1784 3984 
L 1744 4094 
L 2597 4444 
L 2738 4444 
L 2738 1134 
Q 2738 631 2761 520 
Q 2784 409 2836 365 
Q 2888 322 2956 322 
Q 3041 322 3181 375 
L 3216 266 
L 2366 -88 
L 2222 -88 
L 2222 322 
z
M 2222 541 
L 2222 2016 
Q 2203 2228 2109 2403 
Q 2016 2578 1861 2667 
Q 1706 2756 1559 2756 
Q 1284 2756 1069 2509 
Q 784 2184 784 1559 
Q 784 928 1059 592 
Q 1334 256 1672 256 
Q 1956 256 2222 541 
z
" transform="scale(0.015625)"/>
      <path id="TimesNewRomanPSMT-79" d="M 38 2863 
L 1372 2863 
L 1372 2747 
L 1306 2747 
Q 1166 2747 1095 2686 
Q 1025 2625 1025 2534 
Q 1025 2413 1128 2197 
L 1825 753 
L 2466 2334 
Q 2519 2463 2519 2588 
Q 2519 2644 2497 2672 
Q 2472 2706 2419 2726 
Q 2366 2747 2231 2747 
L 2231 2863 
L 3163 2863 
L 3163 2747 
Q 3047 2734 2984 2696 
Q 2922 2659 2847 2556 
Q 2819 2513 2741 2316 
L 1575 -541 
Q 1406 -956 1132 -1168 
Q 859 -1381 606 -1381 
Q 422 -1381 303 -1275 
Q 184 -1169 184 -1031 
Q 184 -900 270 -820 
Q 356 -741 506 -741 
Q 609 -741 788 -809 
Q 913 -856 944 -856 
Q 1038 -856 1148 -759 
Q 1259 -663 1372 -384 
L 1575 113 
L 547 2272 
Q 500 2369 397 2513 
Q 319 2622 269 2659 
Q 197 2709 38 2747 
L 38 2863 
z
" transform="scale(0.015625)"/>
      <path id="TimesNewRomanPSMT-6d" d="M 1050 2338 
Q 1363 2650 1419 2697 
Q 1559 2816 1721 2881 
Q 1884 2947 2044 2947 
Q 2313 2947 2506 2790 
Q 2700 2634 2766 2338 
Q 3088 2713 3309 2830 
Q 3531 2947 3766 2947 
Q 3994 2947 4170 2830 
Q 4347 2713 4450 2447 
Q 4519 2266 4519 1878 
L 4519 647 
Q 4519 378 4559 278 
Q 4591 209 4675 161 
Q 4759 113 4950 113 
L 4950 0 
L 3538 0 
L 3538 113 
L 3597 113 
Q 3781 113 3884 184 
Q 3956 234 3988 344 
Q 4000 397 4000 647 
L 4000 1878 
Q 4000 2228 3916 2372 
Q 3794 2572 3525 2572 
Q 3359 2572 3192 2489 
Q 3025 2406 2788 2181 
L 2781 2147 
L 2788 2013 
L 2788 647 
Q 2788 353 2820 281 
Q 2853 209 2943 161 
Q 3034 113 3253 113 
L 3253 0 
L 1806 0 
L 1806 113 
Q 2044 113 2133 169 
Q 2222 225 2256 338 
Q 2272 391 2272 647 
L 2272 1878 
Q 2272 2228 2169 2381 
Q 2031 2581 1784 2581 
Q 1616 2581 1450 2491 
Q 1191 2353 1050 2181 
L 1050 647 
Q 1050 366 1089 281 
Q 1128 197 1204 155 
Q 1281 113 1516 113 
L 1516 0 
L 100 0 
L 100 113 
Q 297 113 375 155 
Q 453 197 493 289 
Q 534 381 534 647 
L 534 1741 
Q 534 2213 506 2350 
Q 484 2453 437 2492 
Q 391 2531 309 2531 
Q 222 2531 100 2484 
L 53 2597 
L 916 2947 
L 1050 2947 
L 1050 2338 
z
" transform="scale(0.015625)"/>
      <path id="TimesNewRomanPSMT-63" d="M 2631 1088 
Q 2516 522 2178 217 
Q 1841 -88 1431 -88 
Q 944 -88 581 321 
Q 219 731 219 1428 
Q 219 2103 620 2525 
Q 1022 2947 1584 2947 
Q 2006 2947 2278 2723 
Q 2550 2500 2550 2259 
Q 2550 2141 2473 2067 
Q 2397 1994 2259 1994 
Q 2075 1994 1981 2113 
Q 1928 2178 1911 2362 
Q 1894 2547 1784 2644 
Q 1675 2738 1481 2738 
Q 1169 2738 978 2506 
Q 725 2200 725 1697 
Q 725 1184 976 792 
Q 1228 400 1656 400 
Q 1963 400 2206 609 
Q 2378 753 2541 1131 
L 2631 1088 
z
" transform="scale(0.015625)"/>
      <path id="TimesNewRomanPSMT-7b" d="M 2628 -1272 
L 2628 -1381 
Q 2106 -1309 1779 -957 
Q 1453 -606 1453 -178 
Q 1453 47 1525 345 
Q 1597 644 1597 809 
Q 1597 1034 1408 1229 
Q 1219 1425 884 1469 
L 884 1597 
Q 1219 1641 1408 1834 
Q 1597 2028 1597 2256 
Q 1597 2422 1525 2719 
Q 1453 3016 1453 3244 
Q 1453 3669 1779 4022 
Q 2106 4375 2628 4444 
L 2628 4334 
Q 2263 4247 2092 4048 
Q 1922 3850 1922 3613 
Q 1922 3428 1992 3126 
Q 2063 2825 2063 2613 
Q 2063 2297 1831 2000 
Q 1600 1703 1141 1541 
Q 1591 1375 1827 1072 
Q 2063 769 2063 453 
Q 2063 241 1992 -61 
Q 1922 -363 1922 -547 
Q 1922 -784 2092 -982 
Q 2263 -1181 2628 -1272 
z
" transform="scale(0.015625)"/>
      <path id="TimesNewRomanPSMT-2b" d="M 1672 441 
L 1672 2000 
L 116 2000 
L 116 2256 
L 1672 2256 
L 1672 3809 
L 1922 3809 
L 1922 2256 
L 3484 2256 
L 3484 2000 
L 1922 2000 
L 1922 441 
L 1672 441 
z
" transform="scale(0.015625)"/>
      <path id="TimesNewRomanPSMT-75" d="M 2709 2863 
L 2709 1128 
Q 2709 631 2732 520 
Q 2756 409 2807 365 
Q 2859 322 2928 322 
Q 3025 322 3147 375 
L 3191 266 
L 2334 -88 
L 2194 -88 
L 2194 519 
Q 1825 119 1631 15 
Q 1438 -88 1222 -88 
Q 981 -88 804 51 
Q 628 191 559 409 
Q 491 628 491 1028 
L 491 2306 
Q 491 2509 447 2587 
Q 403 2666 317 2708 
Q 231 2750 6 2747 
L 6 2863 
L 1009 2863 
L 1009 947 
Q 1009 547 1148 422 
Q 1288 297 1484 297 
Q 1619 297 1789 381 
Q 1959 466 2194 703 
L 2194 2325 
Q 2194 2569 2105 2655 
Q 2016 2741 1734 2747 
L 1734 2863 
L 2709 2863 
z
" transform="scale(0.015625)"/>
      <path id="TimesNewRomanPSMT-6b" d="M 1047 4444 
L 1047 1594 
L 1775 2259 
Q 2006 2472 2044 2528 
Q 2069 2566 2069 2603 
Q 2069 2666 2017 2711 
Q 1966 2756 1847 2763 
L 1847 2863 
L 3091 2863 
L 3091 2763 
Q 2834 2756 2664 2684 
Q 2494 2613 2291 2428 
L 1556 1750 
L 2291 822 
Q 2597 438 2703 334 
Q 2853 188 2966 144 
Q 3044 113 3238 113 
L 3238 0 
L 1847 0 
L 1847 113 
Q 1966 116 2008 148 
Q 2050 181 2050 241 
Q 2050 313 1925 472 
L 1047 1594 
L 1047 644 
Q 1047 366 1086 278 
Q 1125 191 1197 153 
Q 1269 116 1509 113 
L 1509 0 
L 53 0 
L 53 113 
Q 272 113 381 166 
Q 447 200 481 272 
Q 528 375 528 628 
L 528 3234 
Q 528 3731 506 3842 
Q 484 3953 434 3995 
Q 384 4038 303 4038 
Q 238 4038 106 3984 
L 53 4094 
L 903 4444 
L 1047 4444 
z
" transform="scale(0.015625)"/>
      <path id="TimesNewRomanPSMT-7d" d="M 553 4334 
L 553 4444 
Q 1075 4375 1401 4023 
Q 1728 3672 1728 3241 
Q 1728 3016 1656 2719 
Q 1584 2422 1584 2256 
Q 1584 2031 1773 1836 
Q 1963 1641 2297 1597 
L 2297 1469 
Q 1963 1425 1773 1229 
Q 1584 1034 1584 809 
Q 1584 644 1656 345 
Q 1728 47 1728 -178 
Q 1728 -603 1401 -956 
Q 1075 -1309 553 -1381 
L 553 -1272 
Q 919 -1181 1089 -984 
Q 1259 -788 1259 -547 
Q 1259 -363 1187 -61 
Q 1116 241 1116 450 
Q 1116 769 1348 1066 
Q 1581 1363 2041 1525 
Q 1591 1691 1353 1994 
Q 1116 2297 1116 2613 
Q 1116 2825 1187 3126 
Q 1259 3428 1259 3613 
Q 1259 3850 1089 4048 
Q 919 4247 553 4334 
z
" transform="scale(0.015625)"/>
     </defs>
     <use xlink:href="#TimesNewRomanPSMT-54"/>
     <use xlink:href="#TimesNewRomanPSMT-72" transform="translate(57.583984 0)"/>
     <use xlink:href="#TimesNewRomanPSMT-61" transform="translate(90.884766 0)"/>
     <use xlink:href="#TimesNewRomanPSMT-69" transform="translate(135.269531 0)"/>
     <use xlink:href="#TimesNewRomanPSMT-6e" transform="translate(163.052734 0)"/>
     <use xlink:href="#TimesNewRomanPSMT-69" transform="translate(213.052734 0)"/>
     <use xlink:href="#TimesNewRomanPSMT-6e" transform="translate(240.835938 0)"/>
     <use xlink:href="#TimesNewRomanPSMT-67" transform="translate(290.835938 0)"/>
     <use xlink:href="#TimesNewRomanPSMT-20" transform="translate(340.835938 0)"/>
     <use xlink:href="#TimesNewRomanPSMT-64" transform="translate(365.835938 0)"/>
     <use xlink:href="#TimesNewRomanPSMT-79" transform="translate(415.835938 0)"/>
     <use xlink:href="#TimesNewRomanPSMT-6e" transform="translate(465.835938 0)"/>
     <use xlink:href="#TimesNewRomanPSMT-61" transform="translate(515.835938 0)"/>
     <use xlink:href="#TimesNewRomanPSMT-6d" transform="translate(560.220703 0)"/>
     <use xlink:href="#TimesNewRomanPSMT-69" transform="translate(638.003906 0)"/>
     <use xlink:href="#TimesNewRomanPSMT-63" transform="translate(665.787109 0)"/>
     <use xlink:href="#TimesNewRomanPSMT-20" transform="translate(710.171875 0)"/>
     <use xlink:href="#TimesNewRomanPSMT-6f" transform="translate(735.171875 0)"/>
     <use xlink:href="#TimesNewRomanPSMT-6e" transform="translate(785.171875 0)"/>
     <use xlink:href="#TimesNewRomanPSMT-20" transform="translate(835.171875 0)"/>
     <use xlink:href="#TimesNewRomanPSMT-64" transform="translate(860.171875 0)"/>
     <use xlink:href="#TimesNewRomanPSMT-61" transform="translate(910.171875 0)"/>
     <use xlink:href="#TimesNewRomanPSMT-74" transform="translate(954.556641 0)"/>
     <use xlink:href="#TimesNewRomanPSMT-61" transform="translate(982.339844 0)"/>
     <use xlink:href="#TimesNewRomanPSMT-73" transform="translate(1026.724609 0)"/>
     <use xlink:href="#TimesNewRomanPSMT-65" transform="translate(1065.640625 0)"/>
     <use xlink:href="#TimesNewRomanPSMT-74" transform="translate(1110.025391 0)"/>
     <use xlink:href="#TimesNewRomanPSMT-20" transform="translate(1137.808594 0)"/>
     <use xlink:href="#TimesNewRomanPSMT-7b" transform="translate(1162.808594 0)"/>
     <use xlink:href="#TimesNewRomanPSMT-63" transform="translate(1210.806641 0)"/>
     <use xlink:href="#TimesNewRomanPSMT-61" transform="translate(1255.191406 0)"/>
     <use xlink:href="#TimesNewRomanPSMT-72" transform="translate(1299.576172 0)"/>
     <use xlink:href="#TimesNewRomanPSMT-2b" transform="translate(1332.876953 0)"/>
     <use xlink:href="#TimesNewRomanPSMT-74" transform="translate(1389.273438 0)"/>
     <use xlink:href="#TimesNewRomanPSMT-72" transform="translate(1417.056641 0)"/>
     <use xlink:href="#TimesNewRomanPSMT-75" transform="translate(1450.357422 0)"/>
     <use xlink:href="#TimesNewRomanPSMT-63" transform="translate(1500.357422 0)"/>
     <use xlink:href="#TimesNewRomanPSMT-6b" transform="translate(1544.742188 0)"/>
     <use xlink:href="#TimesNewRomanPSMT-7d" transform="translate(1594.742188 0)"/>
     <use xlink:href="#TimesNewRomanPSMT-20" transform="translate(1642.740234 0)"/>
    </g>
    <!--  for the different architectures -->
    <g transform="translate(86.889938 53.225925) scale(0.264 -0.264)">
     <defs>
      <path id="TimesNewRomanPSMT-66" d="M 1319 2638 
L 1319 756 
Q 1319 356 1406 250 
Q 1522 113 1716 113 
L 1975 113 
L 1975 0 
L 266 0 
L 266 113 
L 394 113 
Q 519 113 622 175 
Q 725 238 764 344 
Q 803 450 803 756 
L 803 2638 
L 247 2638 
L 247 2863 
L 803 2863 
L 803 3050 
Q 803 3478 940 3775 
Q 1078 4072 1361 4255 
Q 1644 4438 1997 4438 
Q 2325 4438 2600 4225 
Q 2781 4084 2781 3909 
Q 2781 3816 2700 3733 
Q 2619 3650 2525 3650 
Q 2453 3650 2373 3701 
Q 2294 3753 2178 3923 
Q 2063 4094 1966 4153 
Q 1869 4213 1750 4213 
Q 1606 4213 1506 4136 
Q 1406 4059 1362 3898 
Q 1319 3738 1319 3069 
L 1319 2863 
L 2056 2863 
L 2056 2638 
L 1319 2638 
z
" transform="scale(0.015625)"/>
      <path id="TimesNewRomanPSMT-68" d="M 1041 4444 
L 1041 2350 
Q 1388 2731 1591 2839 
Q 1794 2947 1997 2947 
Q 2241 2947 2416 2812 
Q 2591 2678 2675 2391 
Q 2734 2191 2734 1659 
L 2734 647 
Q 2734 375 2778 275 
Q 2809 200 2884 156 
Q 2959 113 3159 113 
L 3159 0 
L 1753 0 
L 1753 113 
L 1819 113 
Q 2019 113 2097 173 
Q 2175 234 2206 353 
Q 2216 403 2216 647 
L 2216 1659 
Q 2216 2128 2167 2275 
Q 2119 2422 2012 2495 
Q 1906 2569 1756 2569 
Q 1603 2569 1437 2487 
Q 1272 2406 1041 2159 
L 1041 647 
Q 1041 353 1073 281 
Q 1106 209 1195 161 
Q 1284 113 1503 113 
L 1503 0 
L 84 0 
L 84 113 
Q 275 113 384 172 
Q 447 203 484 290 
Q 522 378 522 647 
L 522 3238 
Q 522 3728 498 3840 
Q 475 3953 426 3993 
Q 378 4034 297 4034 
Q 231 4034 84 3984 
L 41 4094 
L 897 4444 
L 1041 4444 
z
" transform="scale(0.015625)"/>
     </defs>
     <use xlink:href="#TimesNewRomanPSMT-20"/>
     <use xlink:href="#TimesNewRomanPSMT-66" transform="translate(25 0)"/>
     <use xlink:href="#TimesNewRomanPSMT-6f" transform="translate(58.300781 0)"/>
     <use xlink:href="#TimesNewRomanPSMT-72" transform="translate(108.300781 0)"/>
     <use xlink:href="#TimesNewRomanPSMT-20" transform="translate(141.601562 0)"/>
     <use xlink:href="#TimesNewRomanPSMT-74" transform="translate(166.601562 0)"/>
     <use xlink:href="#TimesNewRomanPSMT-68" transform="translate(194.384766 0)"/>
     <use xlink:href="#TimesNewRomanPSMT-65" transform="translate(244.384766 0)"/>
     <use xlink:href="#TimesNewRomanPSMT-20" transform="translate(288.769531 0)"/>
     <use xlink:href="#TimesNewRomanPSMT-64" transform="translate(313.769531 0)"/>
     <use xlink:href="#TimesNewRomanPSMT-69" transform="translate(363.769531 0)"/>
     <use xlink:href="#TimesNewRomanPSMT-66" transform="translate(391.552734 0)"/>
     <use xlink:href="#TimesNewRomanPSMT-66" transform="translate(423.103516 0)"/>
     <use xlink:href="#TimesNewRomanPSMT-65" transform="translate(456.404297 0)"/>
     <use xlink:href="#TimesNewRomanPSMT-72" transform="translate(500.789062 0)"/>
     <use xlink:href="#TimesNewRomanPSMT-65" transform="translate(534.089844 0)"/>
     <use xlink:href="#TimesNewRomanPSMT-6e" transform="translate(578.474609 0)"/>
     <use xlink:href="#TimesNewRomanPSMT-74" transform="translate(628.474609 0)"/>
     <use xlink:href="#TimesNewRomanPSMT-20" transform="translate(656.257812 0)"/>
     <use xlink:href="#TimesNewRomanPSMT-61" transform="translate(681.257812 0)"/>
     <use xlink:href="#TimesNewRomanPSMT-72" transform="translate(725.642578 0)"/>
     <use xlink:href="#TimesNewRomanPSMT-63" transform="translate(758.943359 0)"/>
     <use xlink:href="#TimesNewRomanPSMT-68" transform="translate(803.328125 0)"/>
     <use xlink:href="#TimesNewRomanPSMT-69" transform="translate(853.328125 0)"/>
     <use xlink:href="#TimesNewRomanPSMT-74" transform="translate(881.111328 0)"/>
     <use xlink:href="#TimesNewRomanPSMT-65" transform="translate(908.894531 0)"/>
     <use xlink:href="#TimesNewRomanPSMT-63" transform="translate(953.279297 0)"/>
     <use xlink:href="#TimesNewRomanPSMT-74" transform="translate(997.664062 0)"/>
     <use xlink:href="#TimesNewRomanPSMT-75" transform="translate(1025.447266 0)"/>
     <use xlink:href="#TimesNewRomanPSMT-72" transform="translate(1075.447266 0)"/>
     <use xlink:href="#TimesNewRomanPSMT-65" transform="translate(1108.748047 0)"/>
     <use xlink:href="#TimesNewRomanPSMT-73" transform="translate(1153.132812 0)"/>
    </g>
   </g>
   <g id="legend_1">
    <g id="patch_7">
     <path d="M 438.202187 334.170675 
L 692.89 334.170675 
Q 697.29 334.170675 697.29 329.770675 
L 697.29 82.793175 
Q 697.29 78.393175 692.89 78.393175 
L 438.202187 78.393175 
Q 433.802188 78.393175 433.802188 82.793175 
L 433.802188 329.770675 
Q 433.802188 334.170675 438.202187 334.170675 
z
" style="fill: #ffffff; opacity: 0.8; stroke: #cccccc; stroke-linejoin: miter"/>
    </g>
    <g id="line2d_25">
     <path d="M 442.602188 94.893175 
L 464.602188 94.893175 
L 486.602188 94.893175 
" style="fill: none; stroke-dasharray: 5.55,2.4; stroke-dashoffset: 0; stroke: #ff0000; stroke-width: 1.5"/>
    </g>
    <g id="text_12">
     <!-- VL_(1024+512.4+1) -->
     <g transform="translate(504.202188 102.593175) scale(0.22 -0.22)">
      <defs>
       <path id="TimesNewRomanPSMT-56" d="M 4544 4238 
L 4544 4122 
Q 4319 4081 4203 3978 
Q 4038 3825 3909 3509 
L 2431 -97 
L 2316 -97 
L 728 3556 
Q 606 3838 556 3900 
Q 478 3997 364 4051 
Q 250 4106 56 4122 
L 56 4238 
L 1788 4238 
L 1788 4122 
Q 1494 4094 1406 4022 
Q 1319 3950 1319 3838 
Q 1319 3681 1463 3350 
L 2541 866 
L 3541 3319 
Q 3688 3681 3688 3822 
Q 3688 3913 3597 3995 
Q 3506 4078 3291 4113 
Q 3275 4116 3238 4122 
L 3238 4238 
L 4544 4238 
z
" transform="scale(0.015625)"/>
       <path id="TimesNewRomanPSMT-5f" d="M 3256 -1381 
L -53 -1381 
L -53 -1119 
L 3256 -1119 
L 3256 -1381 
z
" transform="scale(0.015625)"/>
       <path id="TimesNewRomanPSMT-28" d="M 1988 -1253 
L 1988 -1369 
Q 1516 -1131 1200 -813 
Q 750 -359 506 256 
Q 263 872 263 1534 
Q 263 2503 741 3301 
Q 1219 4100 1988 4444 
L 1988 4313 
Q 1603 4100 1356 3731 
Q 1109 3363 987 2797 
Q 866 2231 866 1616 
Q 866 947 969 400 
Q 1050 -31 1165 -292 
Q 1281 -553 1476 -793 
Q 1672 -1034 1988 -1253 
z
" transform="scale(0.015625)"/>
       <path id="TimesNewRomanPSMT-35" d="M 2778 4238 
L 2534 3706 
L 1259 3706 
L 981 3138 
Q 1809 3016 2294 2522 
Q 2709 2097 2709 1522 
Q 2709 1188 2573 903 
Q 2438 619 2231 419 
Q 2025 219 1772 97 
Q 1413 -75 1034 -75 
Q 653 -75 479 54 
Q 306 184 306 341 
Q 306 428 378 495 
Q 450 563 559 563 
Q 641 563 702 538 
Q 763 513 909 409 
Q 1144 247 1384 247 
Q 1750 247 2026 523 
Q 2303 800 2303 1197 
Q 2303 1581 2056 1914 
Q 1809 2247 1375 2428 
Q 1034 2569 447 2591 
L 1259 4238 
L 2778 4238 
z
" transform="scale(0.015625)"/>
       <path id="TimesNewRomanPSMT-29" d="M 144 4313 
L 144 4444 
Q 619 4209 934 3891 
Q 1381 3434 1625 2820 
Q 1869 2206 1869 1541 
Q 1869 572 1392 -226 
Q 916 -1025 144 -1369 
L 144 -1253 
Q 528 -1038 776 -670 
Q 1025 -303 1145 264 
Q 1266 831 1266 1447 
Q 1266 2113 1163 2663 
Q 1084 3094 967 3353 
Q 850 3613 656 3853 
Q 463 4094 144 4313 
z
" transform="scale(0.015625)"/>
      </defs>
      <use xlink:href="#TimesNewRomanPSMT-56"/>
      <use xlink:href="#TimesNewRomanPSMT-4c" transform="translate(72.216797 0)"/>
      <use xlink:href="#TimesNewRomanPSMT-5f" transform="translate(133.300781 0)"/>
      <use xlink:href="#TimesNewRomanPSMT-28" transform="translate(183.300781 0)"/>
      <use xlink:href="#TimesNewRomanPSMT-31" transform="translate(216.601562 0)"/>
      <use xlink:href="#TimesNewRomanPSMT-30" transform="translate(266.601562 0)"/>
      <use xlink:href="#TimesNewRomanPSMT-32" transform="translate(316.601562 0)"/>
      <use xlink:href="#TimesNewRomanPSMT-34" transform="translate(366.601562 0)"/>
      <use xlink:href="#TimesNewRomanPSMT-2b" transform="translate(416.601562 0)"/>
      <use xlink:href="#TimesNewRomanPSMT-35" transform="translate(472.998047 0)"/>
      <use xlink:href="#TimesNewRomanPSMT-31" transform="translate(522.998047 0)"/>
      <use xlink:href="#TimesNewRomanPSMT-32" transform="translate(572.998047 0)"/>
      <use xlink:href="#TimesNewRomanPSMT-2e" transform="translate(622.998047 0)"/>
      <use xlink:href="#TimesNewRomanPSMT-34" transform="translate(647.998047 0)"/>
      <use xlink:href="#TimesNewRomanPSMT-2b" transform="translate(697.998047 0)"/>
      <use xlink:href="#TimesNewRomanPSMT-31" transform="translate(754.394531 0)"/>
      <use xlink:href="#TimesNewRomanPSMT-29" transform="translate(804.394531 0)"/>
     </g>
    </g>
    <g id="line2d_26">
     <path d="M 442.602188 126.040362 
L 464.602188 126.040362 
L 486.602188 126.040362 
" style="fill: none; stroke-dasharray: 5.55,2.4; stroke-dashoffset: 0; stroke: #ffa500; stroke-width: 1.5"/>
    </g>
    <g id="text_13">
     <!-- VL_(1024+512.3+1) -->
     <g transform="translate(504.202188 133.740362) scale(0.22 -0.22)">
      <use xlink:href="#TimesNewRomanPSMT-56"/>
      <use xlink:href="#TimesNewRomanPSMT-4c" transform="translate(72.216797 0)"/>
      <use xlink:href="#TimesNewRomanPSMT-5f" transform="translate(133.300781 0)"/>
      <use xlink:href="#TimesNewRomanPSMT-28" transform="translate(183.300781 0)"/>
      <use xlink:href="#TimesNewRomanPSMT-31" transform="translate(216.601562 0)"/>
      <use xlink:href="#TimesNewRomanPSMT-30" transform="translate(266.601562 0)"/>
      <use xlink:href="#TimesNewRomanPSMT-32" transform="translate(316.601562 0)"/>
      <use xlink:href="#TimesNewRomanPSMT-34" transform="translate(366.601562 0)"/>
      <use xlink:href="#TimesNewRomanPSMT-2b" transform="translate(416.601562 0)"/>
      <use xlink:href="#TimesNewRomanPSMT-35" transform="translate(472.998047 0)"/>
      <use xlink:href="#TimesNewRomanPSMT-31" transform="translate(522.998047 0)"/>
      <use xlink:href="#TimesNewRomanPSMT-32" transform="translate(572.998047 0)"/>
      <use xlink:href="#TimesNewRomanPSMT-2e" transform="translate(622.998047 0)"/>
      <use xlink:href="#TimesNewRomanPSMT-33" transform="translate(647.998047 0)"/>
      <use xlink:href="#TimesNewRomanPSMT-2b" transform="translate(697.998047 0)"/>
      <use xlink:href="#TimesNewRomanPSMT-31" transform="translate(754.394531 0)"/>
      <use xlink:href="#TimesNewRomanPSMT-29" transform="translate(804.394531 0)"/>
     </g>
    </g>
    <g id="line2d_27">
     <path d="M 442.602188 157.18755 
L 464.602188 157.18755 
L 486.602188 157.18755 
" style="fill: none; stroke-dasharray: 5.55,2.4; stroke-dashoffset: 0; stroke: #008000; stroke-width: 1.5"/>
    </g>
    <g id="text_14">
     <!-- VL_(1024+512.2+1) -->
     <g transform="translate(504.202188 164.88755) scale(0.22 -0.22)">
      <use xlink:href="#TimesNewRomanPSMT-56"/>
      <use xlink:href="#TimesNewRomanPSMT-4c" transform="translate(72.216797 0)"/>
      <use xlink:href="#TimesNewRomanPSMT-5f" transform="translate(133.300781 0)"/>
      <use xlink:href="#TimesNewRomanPSMT-28" transform="translate(183.300781 0)"/>
      <use xlink:href="#TimesNewRomanPSMT-31" transform="translate(216.601562 0)"/>
      <use xlink:href="#TimesNewRomanPSMT-30" transform="translate(266.601562 0)"/>
      <use xlink:href="#TimesNewRomanPSMT-32" transform="translate(316.601562 0)"/>
      <use xlink:href="#TimesNewRomanPSMT-34" transform="translate(366.601562 0)"/>
      <use xlink:href="#TimesNewRomanPSMT-2b" transform="translate(416.601562 0)"/>
      <use xlink:href="#TimesNewRomanPSMT-35" transform="translate(472.998047 0)"/>
      <use xlink:href="#TimesNewRomanPSMT-31" transform="translate(522.998047 0)"/>
      <use xlink:href="#TimesNewRomanPSMT-32" transform="translate(572.998047 0)"/>
      <use xlink:href="#TimesNewRomanPSMT-2e" transform="translate(622.998047 0)"/>
      <use xlink:href="#TimesNewRomanPSMT-32" transform="translate(647.998047 0)"/>
      <use xlink:href="#TimesNewRomanPSMT-2b" transform="translate(697.998047 0)"/>
      <use xlink:href="#TimesNewRomanPSMT-31" transform="translate(754.394531 0)"/>
      <use xlink:href="#TimesNewRomanPSMT-29" transform="translate(804.394531 0)"/>
     </g>
    </g>
    <g id="line2d_28">
     <path d="M 442.602188 188.334737 
L 464.602188 188.334737 
L 486.602188 188.334737 
" style="fill: none; stroke-dasharray: 5.55,2.4; stroke-dashoffset: 0; stroke: #0000ff; stroke-width: 1.5"/>
    </g>
    <g id="text_15">
     <!-- VL_(1024+512+1) -->
     <g transform="translate(504.202188 196.034737) scale(0.22 -0.22)">
      <use xlink:href="#TimesNewRomanPSMT-56"/>
      <use xlink:href="#TimesNewRomanPSMT-4c" transform="translate(72.216797 0)"/>
      <use xlink:href="#TimesNewRomanPSMT-5f" transform="translate(133.300781 0)"/>
      <use xlink:href="#TimesNewRomanPSMT-28" transform="translate(183.300781 0)"/>
      <use xlink:href="#TimesNewRomanPSMT-31" transform="translate(216.601562 0)"/>
      <use xlink:href="#TimesNewRomanPSMT-30" transform="translate(266.601562 0)"/>
      <use xlink:href="#TimesNewRomanPSMT-32" transform="translate(316.601562 0)"/>
      <use xlink:href="#TimesNewRomanPSMT-34" transform="translate(366.601562 0)"/>
      <use xlink:href="#TimesNewRomanPSMT-2b" transform="translate(416.601562 0)"/>
      <use xlink:href="#TimesNewRomanPSMT-35" transform="translate(472.998047 0)"/>
      <use xlink:href="#TimesNewRomanPSMT-31" transform="translate(522.998047 0)"/>
      <use xlink:href="#TimesNewRomanPSMT-32" transform="translate(572.998047 0)"/>
      <use xlink:href="#TimesNewRomanPSMT-2b" transform="translate(622.998047 0)"/>
      <use xlink:href="#TimesNewRomanPSMT-31" transform="translate(679.394531 0)"/>
      <use xlink:href="#TimesNewRomanPSMT-29" transform="translate(729.394531 0)"/>
     </g>
    </g>
    <g id="line2d_29">
     <path d="M 442.602188 219.481925 
L 464.602188 219.481925 
L 486.602188 219.481925 
" style="fill: none; stroke: #ff0000; stroke-width: 1.5; stroke-linecap: square"/>
    </g>
    <g id="text_16">
     <!-- TL_(1024+512.4+1) -->
     <g transform="translate(504.202188 227.181925) scale(0.22 -0.22)">
      <use xlink:href="#TimesNewRomanPSMT-54"/>
      <use xlink:href="#TimesNewRomanPSMT-4c" transform="translate(61.083984 0)"/>
      <use xlink:href="#TimesNewRomanPSMT-5f" transform="translate(122.167969 0)"/>
      <use xlink:href="#TimesNewRomanPSMT-28" transform="translate(172.167969 0)"/>
      <use xlink:href="#TimesNewRomanPSMT-31" transform="translate(205.46875 0)"/>
      <use xlink:href="#TimesNewRomanPSMT-30" transform="translate(255.46875 0)"/>
      <use xlink:href="#TimesNewRomanPSMT-32" transform="translate(305.46875 0)"/>
      <use xlink:href="#TimesNewRomanPSMT-34" transform="translate(355.46875 0)"/>
      <use xlink:href="#TimesNewRomanPSMT-2b" transform="translate(405.46875 0)"/>
      <use xlink:href="#TimesNewRomanPSMT-35" transform="translate(461.865234 0)"/>
      <use xlink:href="#TimesNewRomanPSMT-31" transform="translate(511.865234 0)"/>
      <use xlink:href="#TimesNewRomanPSMT-32" transform="translate(561.865234 0)"/>
      <use xlink:href="#TimesNewRomanPSMT-2e" transform="translate(611.865234 0)"/>
      <use xlink:href="#TimesNewRomanPSMT-34" transform="translate(636.865234 0)"/>
      <use xlink:href="#TimesNewRomanPSMT-2b" transform="translate(686.865234 0)"/>
      <use xlink:href="#TimesNewRomanPSMT-31" transform="translate(743.261719 0)"/>
      <use xlink:href="#TimesNewRomanPSMT-29" transform="translate(793.261719 0)"/>
     </g>
    </g>
    <g id="line2d_30">
     <path d="M 442.602188 250.629112 
L 464.602188 250.629112 
L 486.602188 250.629112 
" style="fill: none; stroke: #ffa500; stroke-width: 1.5; stroke-linecap: square"/>
    </g>
    <g id="text_17">
     <!-- TL_(1024+512.3+1) -->
     <g transform="translate(504.202188 258.329112) scale(0.22 -0.22)">
      <use xlink:href="#TimesNewRomanPSMT-54"/>
      <use xlink:href="#TimesNewRomanPSMT-4c" transform="translate(61.083984 0)"/>
      <use xlink:href="#TimesNewRomanPSMT-5f" transform="translate(122.167969 0)"/>
      <use xlink:href="#TimesNewRomanPSMT-28" transform="translate(172.167969 0)"/>
      <use xlink:href="#TimesNewRomanPSMT-31" transform="translate(205.46875 0)"/>
      <use xlink:href="#TimesNewRomanPSMT-30" transform="translate(255.46875 0)"/>
      <use xlink:href="#TimesNewRomanPSMT-32" transform="translate(305.46875 0)"/>
      <use xlink:href="#TimesNewRomanPSMT-34" transform="translate(355.46875 0)"/>
      <use xlink:href="#TimesNewRomanPSMT-2b" transform="translate(405.46875 0)"/>
      <use xlink:href="#TimesNewRomanPSMT-35" transform="translate(461.865234 0)"/>
      <use xlink:href="#TimesNewRomanPSMT-31" transform="translate(511.865234 0)"/>
      <use xlink:href="#TimesNewRomanPSMT-32" transform="translate(561.865234 0)"/>
      <use xlink:href="#TimesNewRomanPSMT-2e" transform="translate(611.865234 0)"/>
      <use xlink:href="#TimesNewRomanPSMT-33" transform="translate(636.865234 0)"/>
      <use xlink:href="#TimesNewRomanPSMT-2b" transform="translate(686.865234 0)"/>
      <use xlink:href="#TimesNewRomanPSMT-31" transform="translate(743.261719 0)"/>
      <use xlink:href="#TimesNewRomanPSMT-29" transform="translate(793.261719 0)"/>
     </g>
    </g>
    <g id="line2d_31">
     <path d="M 442.602188 281.7763 
L 464.602188 281.7763 
L 486.602188 281.7763 
" style="fill: none; stroke: #008000; stroke-width: 1.5; stroke-linecap: square"/>
    </g>
    <g id="text_18">
     <!-- TL_(1024+512.2+1) -->
     <g transform="translate(504.202188 289.4763) scale(0.22 -0.22)">
      <use xlink:href="#TimesNewRomanPSMT-54"/>
      <use xlink:href="#TimesNewRomanPSMT-4c" transform="translate(61.083984 0)"/>
      <use xlink:href="#TimesNewRomanPSMT-5f" transform="translate(122.167969 0)"/>
      <use xlink:href="#TimesNewRomanPSMT-28" transform="translate(172.167969 0)"/>
      <use xlink:href="#TimesNewRomanPSMT-31" transform="translate(205.46875 0)"/>
      <use xlink:href="#TimesNewRomanPSMT-30" transform="translate(255.46875 0)"/>
      <use xlink:href="#TimesNewRomanPSMT-32" transform="translate(305.46875 0)"/>
      <use xlink:href="#TimesNewRomanPSMT-34" transform="translate(355.46875 0)"/>
      <use xlink:href="#TimesNewRomanPSMT-2b" transform="translate(405.46875 0)"/>
      <use xlink:href="#TimesNewRomanPSMT-35" transform="translate(461.865234 0)"/>
      <use xlink:href="#TimesNewRomanPSMT-31" transform="translate(511.865234 0)"/>
      <use xlink:href="#TimesNewRomanPSMT-32" transform="translate(561.865234 0)"/>
      <use xlink:href="#TimesNewRomanPSMT-2e" transform="translate(611.865234 0)"/>
      <use xlink:href="#TimesNewRomanPSMT-32" transform="translate(636.865234 0)"/>
      <use xlink:href="#TimesNewRomanPSMT-2b" transform="translate(686.865234 0)"/>
      <use xlink:href="#TimesNewRomanPSMT-31" transform="translate(743.261719 0)"/>
      <use xlink:href="#TimesNewRomanPSMT-29" transform="translate(793.261719 0)"/>
     </g>
    </g>
    <g id="line2d_32">
     <path d="M 442.602188 312.923487 
L 464.602188 312.923487 
L 486.602188 312.923487 
" style="fill: none; stroke: #0000ff; stroke-width: 1.5; stroke-linecap: square"/>
    </g>
    <g id="text_19">
     <!-- TL_(1024+512+1) -->
     <g transform="translate(504.202188 320.623487) scale(0.22 -0.22)">
      <use xlink:href="#TimesNewRomanPSMT-54"/>
      <use xlink:href="#TimesNewRomanPSMT-4c" transform="translate(61.083984 0)"/>
      <use xlink:href="#TimesNewRomanPSMT-5f" transform="translate(122.167969 0)"/>
      <use xlink:href="#TimesNewRomanPSMT-28" transform="translate(172.167969 0)"/>
      <use xlink:href="#TimesNewRomanPSMT-31" transform="translate(205.46875 0)"/>
      <use xlink:href="#TimesNewRomanPSMT-30" transform="translate(255.46875 0)"/>
      <use xlink:href="#TimesNewRomanPSMT-32" transform="translate(305.46875 0)"/>
      <use xlink:href="#TimesNewRomanPSMT-34" transform="translate(355.46875 0)"/>
      <use xlink:href="#TimesNewRomanPSMT-2b" transform="translate(405.46875 0)"/>
      <use xlink:href="#TimesNewRomanPSMT-35" transform="translate(461.865234 0)"/>
      <use xlink:href="#TimesNewRomanPSMT-31" transform="translate(511.865234 0)"/>
      <use xlink:href="#TimesNewRomanPSMT-32" transform="translate(561.865234 0)"/>
      <use xlink:href="#TimesNewRomanPSMT-2b" transform="translate(611.865234 0)"/>
      <use xlink:href="#TimesNewRomanPSMT-31" transform="translate(668.261719 0)"/>
      <use xlink:href="#TimesNewRomanPSMT-29" transform="translate(718.261719 0)"/>
     </g>
    </g>
   </g>
  </g>
 </g>
 <defs>
  <clipPath id="p82693f9f3c">
   <rect x="65.682187" y="73.225925" width="357.12" height="266.112"/>
  </clipPath>
 </defs>
</svg>
