<?xml version="1.0" encoding="utf-8" standalone="no"?>
<!DOCTYPE svg PUBLIC "-//W3C//DTD SVG 1.1//EN"
  "http://www.w3.org/Graphics/SVG/1.1/DTD/svg11.dtd">
<svg xmlns:xlink="http://www.w3.org/1999/xlink" width="872.037pt" height="383.265687pt" viewBox="0 0 872.037 383.265687" xmlns="http://www.w3.org/2000/svg" version="1.1">
 <metadata>
  <rdf:RDF xmlns:dc="http://purl.org/dc/elements/1.1/" xmlns:cc="http://creativecommons.org/ns#" xmlns:rdf="http://www.w3.org/1999/02/22-rdf-syntax-ns#">
   <cc:Work>
    <dc:type rdf:resource="http://purl.org/dc/dcmitype/StillImage"/>
    <dc:date>2025-07-11T21:17:22.277785</dc:date>
    <dc:format>image/svg+xml</dc:format>
    <dc:creator>
     <cc:Agent>
      <dc:title>Matplotlib v3.10.1, https://matplotlib.org/</dc:title>
     </cc:Agent>
    </dc:creator>
   </cc:Work>
  </rdf:RDF>
 </metadata>
 <defs>
  <style type="text/css">*{stroke-linejoin: round; stroke-linecap: butt}</style>
 </defs>
 <g id="figure_1">
  <g id="patch_1">
   <path d="M 0 383.265687 
L 872.037 383.265687 
L 872.037 0 
L 0 0 
z
" style="fill: #ffffff"/>
  </g>
  <g id="axes_1">
   <g id="patch_2">
    <path d="M 257.4585 311.6435 
L 614.5785 311.6435 
L 614.5785 45.5315 
L 257.4585 45.5315 
z
" style="fill: #ffffff"/>
   </g>
   <g id="matplotlib.axis_1">
    <g id="xtick_1">
     <g id="line2d_1">
      <path d="M 257.4585 311.6435 
L 257.4585 45.5315 
" clip-path="url(#p62c965bce1)" style="fill: none; stroke: #b0b0b0; stroke-opacity: 0.3; stroke-width: 0.8; stroke-linecap: square"/>
     </g>
     <g id="line2d_2">
      <defs>
       <path id="m50f646ec65" d="M 0 0 
L 0 3.5 
" style="stroke: #000000; stroke-width: 0.8"/>
      </defs>
      <g>
       <use xlink:href="#m50f646ec65" x="257.4585" y="311.6435" style="stroke: #000000; stroke-width: 0.8"/>
      </g>
     </g>
     <g id="text_1">
      <!-- 0.0 -->
      <g transform="translate(243.7085 333.91975) scale(0.22 -0.22)">
       <defs>
        <path id="TimesNewRomanPSMT-30" d="M 231 2094 
Q 231 2819 450 3342 
Q 669 3866 1031 4122 
Q 1313 4325 1613 4325 
Q 2100 4325 2488 3828 
Q 2972 3213 2972 2159 
Q 2972 1422 2759 906 
Q 2547 391 2217 158 
Q 1888 -75 1581 -75 
Q 975 -75 572 641 
Q 231 1244 231 2094 
z
M 844 2016 
Q 844 1141 1059 588 
Q 1238 122 1591 122 
Q 1759 122 1940 273 
Q 2122 425 2216 781 
Q 2359 1319 2359 2297 
Q 2359 3022 2209 3506 
Q 2097 3866 1919 4016 
Q 1791 4119 1609 4119 
Q 1397 4119 1231 3928 
Q 1006 3669 925 3112 
Q 844 2556 844 2016 
z
" transform="scale(0.015625)"/>
        <path id="TimesNewRomanPSMT-2e" d="M 800 606 
Q 947 606 1047 504 
Q 1147 403 1147 259 
Q 1147 116 1045 14 
Q 944 -88 800 -88 
Q 656 -88 554 14 
Q 453 116 453 259 
Q 453 406 554 506 
Q 656 606 800 606 
z
" transform="scale(0.015625)"/>
       </defs>
       <use xlink:href="#TimesNewRomanPSMT-30"/>
       <use xlink:href="#TimesNewRomanPSMT-2e" transform="translate(50 0)"/>
       <use xlink:href="#TimesNewRomanPSMT-30" transform="translate(75 0)"/>
      </g>
     </g>
    </g>
    <g id="xtick_2">
     <g id="line2d_3">
      <path d="M 377.517603 311.6435 
L 377.517603 45.5315 
" clip-path="url(#p62c965bce1)" style="fill: none; stroke: #b0b0b0; stroke-opacity: 0.3; stroke-width: 0.8; stroke-linecap: square"/>
     </g>
     <g id="line2d_4">
      <g>
       <use xlink:href="#m50f646ec65" x="377.517603" y="311.6435" style="stroke: #000000; stroke-width: 0.8"/>
      </g>
     </g>
     <g id="text_2">
      <!-- 0.5 -->
      <g transform="translate(363.767603 333.91975) scale(0.22 -0.22)">
       <defs>
        <path id="TimesNewRomanPSMT-35" d="M 2778 4238 
L 2534 3706 
L 1259 3706 
L 981 3138 
Q 1809 3016 2294 2522 
Q 2709 2097 2709 1522 
Q 2709 1188 2573 903 
Q 2438 619 2231 419 
Q 2025 219 1772 97 
Q 1413 -75 1034 -75 
Q 653 -75 479 54 
Q 306 184 306 341 
Q 306 428 378 495 
Q 450 563 559 563 
Q 641 563 702 538 
Q 763 513 909 409 
Q 1144 247 1384 247 
Q 1750 247 2026 523 
Q 2303 800 2303 1197 
Q 2303 1581 2056 1914 
Q 1809 2247 1375 2428 
Q 1034 2569 447 2591 
L 1259 4238 
L 2778 4238 
z
" transform="scale(0.015625)"/>
       </defs>
       <use xlink:href="#TimesNewRomanPSMT-30"/>
       <use xlink:href="#TimesNewRomanPSMT-2e" transform="translate(50 0)"/>
       <use xlink:href="#TimesNewRomanPSMT-35" transform="translate(75 0)"/>
      </g>
     </g>
    </g>
    <g id="xtick_3">
     <g id="line2d_5">
      <path d="M 497.576705 311.6435 
L 497.576705 45.5315 
" clip-path="url(#p62c965bce1)" style="fill: none; stroke: #b0b0b0; stroke-opacity: 0.3; stroke-width: 0.8; stroke-linecap: square"/>
     </g>
     <g id="line2d_6">
      <g>
       <use xlink:href="#m50f646ec65" x="497.576705" y="311.6435" style="stroke: #000000; stroke-width: 0.8"/>
      </g>
     </g>
     <g id="text_3">
      <!-- 1.0 -->
      <g transform="translate(483.826705 333.91975) scale(0.22 -0.22)">
       <defs>
        <path id="TimesNewRomanPSMT-31" d="M 750 3822 
L 1781 4325 
L 1884 4325 
L 1884 747 
Q 1884 391 1914 303 
Q 1944 216 2037 169 
Q 2131 122 2419 116 
L 2419 0 
L 825 0 
L 825 116 
Q 1125 122 1212 167 
Q 1300 213 1334 289 
Q 1369 366 1369 747 
L 1369 3034 
Q 1369 3497 1338 3628 
Q 1316 3728 1258 3775 
Q 1200 3822 1119 3822 
Q 1003 3822 797 3725 
L 750 3822 
z
" transform="scale(0.015625)"/>
       </defs>
       <use xlink:href="#TimesNewRomanPSMT-31"/>
       <use xlink:href="#TimesNewRomanPSMT-2e" transform="translate(50 0)"/>
       <use xlink:href="#TimesNewRomanPSMT-30" transform="translate(75 0)"/>
      </g>
     </g>
    </g>
    <g id="text_4">
     <!-- $\kappa  = \frac{ln(n)}{ln(d)}$ -->
     <g transform="translate(404.0085 364.185687) scale(0.22 -0.22)">
      <defs>
       <path id="STIXGeneral-Italic-3ba" d="M 979 1440 
L 998 1446 
Q 1850 2541 2464 2790 
Q 2547 2822 2630 2822 
Q 2797 2822 2886 2736 
Q 2976 2650 2976 2522 
Q 2976 2387 2893 2307 
Q 2810 2227 2682 2227 
Q 2605 2227 2502 2288 
Q 2400 2349 2336 2349 
Q 2170 2349 1990 2205 
Q 1811 2061 1414 1645 
L 2042 544 
Q 2202 262 2310 182 
Q 2419 102 2624 102 
L 2624 0 
Q 2374 -83 2182 -83 
Q 1786 -83 1555 326 
L 960 1350 
L 576 0 
L 90 0 
L 640 1978 
Q 730 2317 730 2406 
Q 730 2560 518 2560 
L 339 2560 
L 339 2650 
Q 678 2694 1306 2822 
L 1325 2803 
L 979 1440 
z
" transform="scale(0.015625)"/>
       <path id="STIXGeneral-Regular-3d" d="M 4077 2048 
L 307 2048 
L 307 2470 
L 4077 2470 
L 4077 2048 
z
M 4077 768 
L 307 768 
L 307 1190 
L 4077 1190 
L 4077 768 
z
" transform="scale(0.015625)"/>
       <path id="STIXGeneral-Italic-6c" d="M 1786 4339 
L 806 595 
Q 755 410 755 320 
Q 755 205 864 205 
Q 1037 205 1293 570 
L 1453 794 
L 1542 730 
Q 1254 275 1046 102 
Q 838 -70 576 -70 
Q 262 -70 262 288 
Q 262 397 288 480 
L 1165 3834 
Q 1184 3898 1184 3955 
Q 1184 4096 870 4096 
L 755 4096 
L 755 4198 
Q 1203 4250 1747 4371 
L 1786 4339 
z
" transform="scale(0.015625)"/>
       <path id="STIXGeneral-Italic-6e" d="M 2944 749 
L 3034 666 
Q 2707 218 2534 80 
Q 2362 -58 2138 -58 
Q 2010 -58 1923 28 
Q 1837 115 1837 288 
Q 1837 390 1939 768 
L 2221 1805 
Q 2310 2150 2310 2310 
Q 2310 2496 2157 2496 
Q 1971 2496 1750 2275 
Q 1530 2054 1210 1587 
Q 998 1274 899 1024 
Q 800 774 570 0 
L 90 0 
L 704 2240 
Q 717 2304 717 2349 
Q 717 2445 630 2480 
Q 544 2515 301 2522 
L 301 2624 
Q 550 2675 857 2729 
Q 1165 2784 1338 2822 
L 1363 2810 
L 934 1414 
Q 1408 2170 1753 2496 
Q 2099 2822 2413 2822 
Q 2611 2822 2720 2716 
Q 2829 2611 2829 2432 
Q 2829 2272 2765 2048 
L 2406 749 
Q 2317 429 2317 358 
Q 2317 243 2419 243 
Q 2541 243 2810 582 
Q 2854 634 2944 749 
z
" transform="scale(0.015625)"/>
       <path id="STIXGeneral-Regular-28" d="M 1946 -1030 
L 1869 -1133 
Q 1126 -710 716 32 
Q 307 774 307 1613 
Q 307 3386 1888 4326 
L 1946 4224 
Q 1293 3667 1075 3126 
Q 858 2586 858 1632 
Q 858 685 1082 96 
Q 1306 -493 1946 -1030 
z
" transform="scale(0.015625)"/>
       <path id="STIXGeneral-Regular-29" d="M 186 4224 
L 262 4326 
Q 992 3891 1408 3148 
Q 1824 2406 1824 1581 
Q 1824 -166 243 -1133 
L 186 -1030 
Q 845 -486 1059 54 
Q 1274 595 1274 1562 
Q 1274 2534 1059 3120 
Q 845 3706 186 4224 
z
" transform="scale(0.015625)"/>
       <path id="STIXGeneral-Italic-64" d="M 3334 4371 
L 3373 4333 
L 3123 3360 
L 2739 1958 
Q 2323 429 2323 384 
Q 2323 256 2438 256 
Q 2522 256 2614 336 
Q 2707 416 2963 710 
L 3040 646 
Q 2547 -83 2099 -83 
Q 1978 -83 1907 -6 
Q 1837 70 1837 205 
Q 1837 397 1920 774 
Q 1645 307 1379 118 
Q 1114 -70 781 -70 
Q 461 -70 278 125 
Q 96 320 96 678 
Q 96 1440 713 2131 
Q 1331 2822 1965 2822 
Q 2163 2822 2256 2732 
Q 2349 2643 2381 2451 
L 2387 2451 
L 2675 3494 
Q 2765 3808 2765 3949 
Q 2765 4051 2694 4076 
Q 2624 4102 2355 4115 
L 2355 4224 
Q 2848 4269 3334 4371 
z
M 2278 2310 
Q 2278 2477 2185 2576 
Q 2093 2675 1978 2675 
Q 1677 2675 1395 2381 
Q 1075 2042 864 1571 
Q 653 1101 653 704 
Q 653 486 752 361 
Q 851 237 1024 237 
Q 1312 237 1606 550 
Q 1901 864 2089 1350 
Q 2278 1837 2278 2310 
z
" transform="scale(0.015625)"/>
      </defs>
      <use xlink:href="#STIXGeneral-Italic-3ba" transform="translate(0 0.003125)"/>
      <use xlink:href="#STIXGeneral-Regular-3d" transform="translate(58.83999 0.003125)"/>
      <use xlink:href="#STIXGeneral-Italic-6c" transform="translate(141.779971 50.192188) scale(0.7)"/>
      <use xlink:href="#STIXGeneral-Italic-6e" transform="translate(161.239963 50.192188) scale(0.7)"/>
      <use xlink:href="#STIXGeneral-Regular-28" transform="translate(196.239952 50.192188) scale(0.7)"/>
      <use xlink:href="#STIXGeneral-Italic-6e" transform="translate(219.549944 50.192188) scale(0.7)"/>
      <use xlink:href="#STIXGeneral-Regular-29" transform="translate(254.549933 50.192188) scale(0.7)"/>
      <use xlink:href="#STIXGeneral-Italic-6c" transform="translate(141.779971 -41.257812) scale(0.7)"/>
      <use xlink:href="#STIXGeneral-Italic-6e" transform="translate(161.239963 -41.257812) scale(0.7)"/>
      <use xlink:href="#STIXGeneral-Regular-28" transform="translate(196.239952 -41.257812) scale(0.7)"/>
      <use xlink:href="#STIXGeneral-Italic-64" transform="translate(219.549944 -41.257812) scale(0.7)"/>
      <use xlink:href="#STIXGeneral-Regular-29" transform="translate(254.549933 -41.257812) scale(0.7)"/>
      <path d="M 141.779971 12.8 
L 141.779971 19.05 
L 277.859924 19.05 
L 277.859924 12.8 
L 141.779971 12.8 
z
"/>
     </g>
    </g>
   </g>
   <g id="matplotlib.axis_2">
    <g id="ytick_1">
     <g id="line2d_7">
      <path d="M 257.4585 311.6435 
L 614.5785 311.6435 
" clip-path="url(#p62c965bce1)" style="fill: none; stroke: #b0b0b0; stroke-opacity: 0.3; stroke-width: 0.8; stroke-linecap: square"/>
     </g>
     <g id="line2d_8">
      <defs>
       <path id="m9343b15028" d="M 0 0 
L -3.5 0 
" style="stroke: #000000; stroke-width: 0.8"/>
      </defs>
      <g>
       <use xlink:href="#m9343b15028" x="257.4585" y="311.6435" style="stroke: #000000; stroke-width: 0.8"/>
      </g>
     </g>
     <g id="text_5">
      <!-- 0.0 -->
      <g transform="translate(222.9585 319.281625) scale(0.22 -0.22)">
       <use xlink:href="#TimesNewRomanPSMT-30"/>
       <use xlink:href="#TimesNewRomanPSMT-2e" transform="translate(50 0)"/>
       <use xlink:href="#TimesNewRomanPSMT-30" transform="translate(75 0)"/>
      </g>
     </g>
    </g>
    <g id="ytick_2">
     <g id="line2d_9">
      <path d="M 257.4585 257.897652 
L 614.5785 257.897652 
" clip-path="url(#p62c965bce1)" style="fill: none; stroke: #b0b0b0; stroke-opacity: 0.3; stroke-width: 0.8; stroke-linecap: square"/>
     </g>
     <g id="line2d_10">
      <g>
       <use xlink:href="#m9343b15028" x="257.4585" y="257.897652" style="stroke: #000000; stroke-width: 0.8"/>
      </g>
     </g>
     <g id="text_6">
      <!-- 0.1 -->
      <g transform="translate(222.9585 265.535777) scale(0.22 -0.22)">
       <use xlink:href="#TimesNewRomanPSMT-30"/>
       <use xlink:href="#TimesNewRomanPSMT-2e" transform="translate(50 0)"/>
       <use xlink:href="#TimesNewRomanPSMT-31" transform="translate(75 0)"/>
      </g>
     </g>
    </g>
    <g id="ytick_3">
     <g id="line2d_11">
      <path d="M 257.4585 204.151804 
L 614.5785 204.151804 
" clip-path="url(#p62c965bce1)" style="fill: none; stroke: #b0b0b0; stroke-opacity: 0.3; stroke-width: 0.8; stroke-linecap: square"/>
     </g>
     <g id="line2d_12">
      <g>
       <use xlink:href="#m9343b15028" x="257.4585" y="204.151804" style="stroke: #000000; stroke-width: 0.8"/>
      </g>
     </g>
     <g id="text_7">
      <!-- 0.2 -->
      <g transform="translate(222.9585 211.789929) scale(0.22 -0.22)">
       <defs>
        <path id="TimesNewRomanPSMT-32" d="M 2934 816 
L 2638 0 
L 138 0 
L 138 116 
Q 1241 1122 1691 1759 
Q 2141 2397 2141 2925 
Q 2141 3328 1894 3587 
Q 1647 3847 1303 3847 
Q 991 3847 742 3664 
Q 494 3481 375 3128 
L 259 3128 
Q 338 3706 661 4015 
Q 984 4325 1469 4325 
Q 1984 4325 2329 3994 
Q 2675 3663 2675 3213 
Q 2675 2891 2525 2569 
Q 2294 2063 1775 1497 
Q 997 647 803 472 
L 1909 472 
Q 2247 472 2383 497 
Q 2519 522 2628 598 
Q 2738 675 2819 816 
L 2934 816 
z
" transform="scale(0.015625)"/>
       </defs>
       <use xlink:href="#TimesNewRomanPSMT-30"/>
       <use xlink:href="#TimesNewRomanPSMT-2e" transform="translate(50 0)"/>
       <use xlink:href="#TimesNewRomanPSMT-32" transform="translate(75 0)"/>
      </g>
     </g>
    </g>
    <g id="ytick_4">
     <g id="line2d_13">
      <path d="M 257.4585 150.405956 
L 614.5785 150.405956 
" clip-path="url(#p62c965bce1)" style="fill: none; stroke: #b0b0b0; stroke-opacity: 0.3; stroke-width: 0.8; stroke-linecap: square"/>
     </g>
     <g id="line2d_14">
      <g>
       <use xlink:href="#m9343b15028" x="257.4585" y="150.405956" style="stroke: #000000; stroke-width: 0.8"/>
      </g>
     </g>
     <g id="text_8">
      <!-- 0.3 -->
      <g transform="translate(222.9585 158.044081) scale(0.22 -0.22)">
       <defs>
        <path id="TimesNewRomanPSMT-33" d="M 325 3431 
Q 506 3859 782 4092 
Q 1059 4325 1472 4325 
Q 1981 4325 2253 3994 
Q 2459 3747 2459 3466 
Q 2459 3003 1878 2509 
Q 2269 2356 2469 2072 
Q 2669 1788 2669 1403 
Q 2669 853 2319 450 
Q 1863 -75 997 -75 
Q 569 -75 414 31 
Q 259 138 259 259 
Q 259 350 332 419 
Q 406 488 509 488 
Q 588 488 669 463 
Q 722 447 909 348 
Q 1097 250 1169 231 
Q 1284 197 1416 197 
Q 1734 197 1970 444 
Q 2206 691 2206 1028 
Q 2206 1275 2097 1509 
Q 2016 1684 1919 1775 
Q 1784 1900 1550 2001 
Q 1316 2103 1072 2103 
L 972 2103 
L 972 2197 
Q 1219 2228 1467 2375 
Q 1716 2522 1828 2728 
Q 1941 2934 1941 3181 
Q 1941 3503 1739 3701 
Q 1538 3900 1238 3900 
Q 753 3900 428 3381 
L 325 3431 
z
" transform="scale(0.015625)"/>
       </defs>
       <use xlink:href="#TimesNewRomanPSMT-30"/>
       <use xlink:href="#TimesNewRomanPSMT-2e" transform="translate(50 0)"/>
       <use xlink:href="#TimesNewRomanPSMT-33" transform="translate(75 0)"/>
      </g>
     </g>
    </g>
    <g id="ytick_5">
     <g id="line2d_15">
      <path d="M 257.4585 96.660108 
L 614.5785 96.660108 
" clip-path="url(#p62c965bce1)" style="fill: none; stroke: #b0b0b0; stroke-opacity: 0.3; stroke-width: 0.8; stroke-linecap: square"/>
     </g>
     <g id="line2d_16">
      <g>
       <use xlink:href="#m9343b15028" x="257.4585" y="96.660108" style="stroke: #000000; stroke-width: 0.8"/>
      </g>
     </g>
     <g id="text_9">
      <!-- 0.4 -->
      <g transform="translate(222.9585 104.298233) scale(0.22 -0.22)">
       <defs>
        <path id="TimesNewRomanPSMT-34" d="M 2978 1563 
L 2978 1119 
L 2409 1119 
L 2409 0 
L 1894 0 
L 1894 1119 
L 100 1119 
L 100 1519 
L 2066 4325 
L 2409 4325 
L 2409 1563 
L 2978 1563 
z
M 1894 1563 
L 1894 3666 
L 406 1563 
L 1894 1563 
z
" transform="scale(0.015625)"/>
       </defs>
       <use xlink:href="#TimesNewRomanPSMT-30"/>
       <use xlink:href="#TimesNewRomanPSMT-2e" transform="translate(50 0)"/>
       <use xlink:href="#TimesNewRomanPSMT-34" transform="translate(75 0)"/>
      </g>
     </g>
    </g>
    <g id="text_10">
     <!-- Loss -->
     <g transform="translate(214.252563 199.368906) rotate(-90) scale(0.22 -0.22)">
      <defs>
       <path id="TimesNewRomanPSMT-4c" d="M 3669 1172 
L 3772 1150 
L 3409 0 
L 128 0 
L 128 116 
L 288 116 
Q 556 116 672 291 
Q 738 391 738 753 
L 738 3488 
Q 738 3884 650 3984 
Q 528 4122 288 4122 
L 128 4122 
L 128 4238 
L 2047 4238 
L 2047 4122 
Q 1709 4125 1573 4059 
Q 1438 3994 1388 3894 
Q 1338 3794 1338 3416 
L 1338 753 
Q 1338 494 1388 397 
Q 1425 331 1503 300 
Q 1581 269 1991 269 
L 2300 269 
Q 2788 269 2984 341 
Q 3181 413 3343 595 
Q 3506 778 3669 1172 
z
" transform="scale(0.015625)"/>
       <path id="TimesNewRomanPSMT-6f" d="M 1600 2947 
Q 2250 2947 2644 2453 
Q 2978 2031 2978 1484 
Q 2978 1100 2793 706 
Q 2609 313 2286 112 
Q 1963 -88 1566 -88 
Q 919 -88 538 428 
Q 216 863 216 1403 
Q 216 1797 411 2186 
Q 606 2575 925 2761 
Q 1244 2947 1600 2947 
z
M 1503 2744 
Q 1338 2744 1170 2645 
Q 1003 2547 900 2300 
Q 797 2053 797 1666 
Q 797 1041 1045 587 
Q 1294 134 1700 134 
Q 2003 134 2200 384 
Q 2397 634 2397 1244 
Q 2397 2006 2069 2444 
Q 1847 2744 1503 2744 
z
" transform="scale(0.015625)"/>
       <path id="TimesNewRomanPSMT-73" d="M 2050 2947 
L 2050 1972 
L 1947 1972 
Q 1828 2431 1642 2597 
Q 1456 2763 1169 2763 
Q 950 2763 815 2647 
Q 681 2531 681 2391 
Q 681 2216 781 2091 
Q 878 1963 1175 1819 
L 1631 1597 
Q 2266 1288 2266 781 
Q 2266 391 1970 151 
Q 1675 -88 1309 -88 
Q 1047 -88 709 6 
Q 606 38 541 38 
Q 469 38 428 -44 
L 325 -44 
L 325 978 
L 428 978 
Q 516 541 762 319 
Q 1009 97 1316 97 
Q 1531 97 1667 223 
Q 1803 350 1803 528 
Q 1803 744 1651 891 
Q 1500 1038 1047 1263 
Q 594 1488 453 1669 
Q 313 1847 313 2119 
Q 313 2472 555 2709 
Q 797 2947 1181 2947 
Q 1350 2947 1591 2875 
Q 1750 2828 1803 2828 
Q 1853 2828 1881 2850 
Q 1909 2872 1947 2947 
L 2050 2947 
z
" transform="scale(0.015625)"/>
      </defs>
      <use xlink:href="#TimesNewRomanPSMT-4c"/>
      <use xlink:href="#TimesNewRomanPSMT-6f" transform="translate(61.083984 0)"/>
      <use xlink:href="#TimesNewRomanPSMT-73" transform="translate(111.083984 0)"/>
      <use xlink:href="#TimesNewRomanPSMT-73" transform="translate(150 0)"/>
     </g>
    </g>
   </g>
   <g id="line2d_17">
    <path d="M 257.4585 156.089026 
L 340.535201 184.113448 
L 362.935937 190.450472 
L 376.427832 200.34094 
L 431.276101 233.135689 
L 439.416701 238.383153 
L 441.184523 239.236742 
L 444.470566 241.331088 
L 450.233493 244.697576 
L 451.535968 245.443588 
L 452.791242 245.918707 
L 458.464307 249.230376 
L 460.496665 250.238634 
L 465.110088 252.770001 
L 465.963377 252.860412 
L 466.796151 253.794782 
L 467.609376 253.986391 
L 468.403946 254.70822 
L 469.940418 255.178198 
L 470.683832 255.881215 
L 472.822891 257.143631 
L 474.178906 257.550988 
L 474.837514 257.962146 
L 475.483834 258.548391 
L 477.353447 259.641341 
L 477.954882 258.1877 
L 478.546052 259.957627 
L 479.127303 260.667511 
L 480.261341 261.263403 
L 481.895689 262.194977 
L 482.943931 262.419871 
L 484.459117 263.59132 
L 485.433633 264.218621 
L 485.9108 264.424206 
L 486.381483 263.218716 
L 486.845857 264.542439 
L 487.304087 265.21624 
L 488.643497 266.014985 
L 489.933041 266.714158 
L 490.352438 265.34957 
L 490.766818 266.660275 
L 491.176299 267.334332 
L 491.981022 267.906693 
L 493.536468 268.823896 
L 493.914657 268.502485 
L 494.288761 269.268018 
L 496.452321 270.474312 
L 496.800132 270.52701 
L 497.144486 270.415412 
L 497.485451 271.076751 
L 497.823093 271.128912 
L 498.488661 271.686998 
L 498.81671 271.860204 
L 499.141682 271.064173 
L 499.463633 272.011096 
L 501.029983 273.121691 
L 501.936886 273.626054 
L 502.233987 272.919413 
L 502.528561 273.919743 
L 503.1103 274.318135 
L 504.245267 274.886392 
L 504.523292 274.786891 
L 504.799103 275.243566 
L 505.072736 275.409328 
L 505.344225 275.391048 
L 506.146153 276.078231 
L 506.409389 275.996986 
L 506.67064 275.714109 
L 507.442776 276.824919 
L 508.446228 277.311531 
L 508.692614 276.625825 
L 508.93726 277.557977 
L 509.18019 277.813516 
L 509.421429 277.878271 
L 509.898925 278.177782 
L 510.603049 278.46715 
L 510.834613 278.765957 
L 511.064638 278.836646 
L 511.293147 278.512518 
L 511.520158 279.109497 
L 511.74569 279.086612 
L 511.969765 279.408109 
L 512.63342 279.575544 
L 513.068897 280.028503 
L 513.498967 280.219931 
L 513.712017 278.738275 
L 514.134225 280.338855 
L 514.551349 280.808152 
L 515.572701 281.391411 
L 515.972956 281.292351 
L 516.171363 281.758322 
L 516.5648 281.834205 
L 516.953819 282.151957 
L 517.338517 282.000251 
L 517.529276 282.448435 
L 518.09533 282.774658 
L 518.281978 282.600651 
L 518.652283 283.095592 
L 518.835962 283.115262 
L 519.200424 283.417667 
L 519.381226 283.407019 
L 519.56109 283.12669 
L 519.740025 283.749051 
L 519.918041 283.720916 
L 520.271351 284.020494 
L 520.621094 283.900132 
L 520.79465 284.331233 
L 520.967341 284.306152 
L 521.480308 284.63722 
L 521.649623 284.272435 
L 521.818114 284.878421 
L 521.98579 284.832854 
L 522.152658 285.085962 
L 522.648493 285.168306 
L 522.97515 285.529077 
L 523.137331 285.601728 
L 523.298756 285.293353 
L 523.778566 285.915195 
L 524.251821 286.188722 
L 524.718698 286.295805 
L 525.02649 286.621902 
L 525.179366 286.466177 
L 525.331571 286.50493 
L 525.48311 286.842439 
L 525.784213 287.064209 
L 525.933789 287.129442 
L 526.231017 286.846801 
L 526.525717 287.434258 
L 527.1077 287.649133 
L 527.251681 287.614743 
L 527.53786 288.004823 
L 527.680068 288.008135 
L 527.821694 287.691753 
L 527.962743 288.199116 
L 528.103221 288.165539 
L 528.382479 288.43135 
L 528.659503 288.360931 
L 528.93433 288.741132 
L 529.07093 288.705577 
L 529.206994 288.461306 
L 529.342525 288.958254 
L 529.477528 288.925376 
L 529.879409 289.247686 
L 530.144763 289.334663 
L 530.276681 287.831758 
L 530.53902 289.315172 
L 530.799388 289.693217 
L 531.568951 290.103304 
L 531.947415 290.188567 
L 532.197447 290.44782 
L 532.321789 290.468519 
L 532.445687 289.93342 
L 532.569143 290.640717 
L 532.814743 290.687823 
L 533.179908 290.945402 
L 533.421231 290.93392 
L 533.541265 290.7584 
L 533.660884 291.203847 
L 533.780092 291.160976 
L 534.135274 291.435057 
L 534.370054 291.117853 
L 534.719268 291.733894 
L 535.179478 291.900825 
L 535.293581 291.714983 
L 535.520666 292.094542 
L 535.746273 292.222176 
L 535.970419 292.249604 
L 536.081951 291.962196 
L 536.193125 292.483526 
L 536.303943 292.433519 
L 536.524521 292.608208 
L 536.743704 292.607711 
L 537.0699 292.906868 
L 537.28567 292.57924 
L 537.606826 293.183927 
L 538.030453 293.366153 
L 538.135556 293.174115 
L 538.656337 293.666573 
L 538.862478 293.578288 
L 539.067398 293.803789 
L 539.372524 293.995062 
L 539.473638 293.70044 
L 539.674986 294.046661 
L 539.87517 294.242663 
L 540.173293 294.32574 
L 540.2721 294.114707 
L 540.370626 294.518671 
L 540.468873 294.476362 
L 540.761952 294.699576 
L 540.95597 294.341687 
L 541.148907 294.892202 
L 541.626599 294.997427 
L 541.910085 295.225794 
L 542.097795 294.916705 
L 542.284493 295.405249 
L 542.654897 295.550611 
L 542.746883 295.345326 
L 543.021383 295.728297 
L 543.203182 295.813959 
L 543.293725 295.665038 
L 543.832069 296.093603 
L 543.920985 295.722077 
L 544.009674 296.176522 
L 544.098136 296.12617 
L 544.362175 296.368217 
L 544.711125 296.473794 
L 544.884291 296.574436 
L 544.97055 296.34248 
L 545.313455 296.767565 
L 545.568425 296.865023 
L 545.653 296.580898 
L 545.737368 296.950129 
L 545.821532 296.919654 
L 545.989248 297.073462 
L 546.405021 297.251576 
L 546.65211 297.392961 
L 546.734083 296.997687 
L 547.141063 297.593837 
L 547.782446 297.855282 
L 547.940953 297.860371 
L 548.098739 298.010755 
L 548.177363 297.972103 
L 548.255809 297.627548 
L 548.334078 298.124917 
L 548.41217 298.078336 
L 548.722791 298.283349 
L 548.877063 297.949911 
L 549.030651 298.364231 
L 549.259764 298.477108 
L 549.713493 298.557684 
L 549.78854 298.471816 
L 549.863425 298.767036 
L 549.938148 298.737083 
L 550.087113 298.864213 
L 550.161356 298.80853 
L 550.23544 298.581502 
L 550.309366 298.964075 
L 550.383135 298.908458 
L 550.530203 299.030604 
L 550.676649 298.996141 
L 550.895163 299.204508 
L 550.967696 299.085952 
L 551.040078 298.54136 
L 551.256319 299.345116 
L 551.613748 299.465337 
L 551.755694 299.503665 
L 551.89706 299.578006 
L 551.967527 299.428925 
L 552.037851 299.536518 
L 552.247972 299.769876 
L 552.31773 299.772081 
L 552.456825 299.667484 
L 552.664427 299.935279 
L 552.802141 299.995763 
L 552.870793 299.902189 
L 552.939309 299.158093 
L 553.144048 300.084542 
L 553.482613 300.259144 
L 554.017528 300.310397 
L 554.083815 300.054923 
L 554.281919 300.579317 
L 554.544308 300.668405 
L 554.609596 300.549084 
L 554.674761 300.6046 
L 554.869524 300.785711 
L 554.998761 300.835495 
L 555.063198 300.638298 
L 555.127516 300.785904 
L 555.510937 301.027117 
L 555.57443 300.805938 
L 555.764214 301.167242 
L 556.078227 301.0984 
L 556.20304 301.306426 
L 556.327405 301.316828 
L 556.513119 301.360054 
L 556.574803 301.115507 
L 556.636377 301.498592 
L 556.697842 301.461423 
L 556.942618 301.604277 
L 557.06436 301.320459 
L 557.246175 301.708118 
L 557.48712 301.673893 
L 557.547096 301.617789 
L 557.726401 301.904281 
L 557.845424 301.844207 
L 557.904783 301.771371 
L 557.96404 301.991384 
L 558.023196 301.959169 
L 558.200061 302.057995 
L 558.31747 301.813762 
L 558.492842 302.153923 
L 558.667331 302.196998 
L 558.725299 302.098138 
L 558.840945 302.295255 
L 558.898624 302.259113 
L 559.128382 302.370072 
L 559.185585 302.093065 
L 559.356627 302.446146 
L 559.583378 302.569542 
L 559.696199 302.457879 
L 559.808654 302.641034 
L 559.864745 302.593449 
L 559.920745 302.573685 
L 560.088205 302.710801 
L 560.143845 302.498556 
L 560.199397 302.724345 
L 560.254859 302.712461 
L 560.420715 302.865625 
L 560.530846 302.822711 
L 560.585781 302.746803 
L 560.750064 302.916499 
L 560.913571 302.975234 
L 560.967903 302.779102 
L 561.130388 303.105179 
L 561.345856 303.10491 
L 561.399514 302.930067 
L 561.559992 303.253294 
L 561.825814 303.254265 
L 561.984333 303.393872 
L 562.037012 303.296616 
L 562.089611 302.607376 
L 562.14213 303.156055 
L 562.351415 303.518452 
L 562.971788 303.686237 
L 563.022988 303.566065 
L 563.074112 303.648119 
L 563.277858 303.784082 
L 563.379283 303.793744 
L 563.480412 303.886066 
L 563.530866 303.843575 
L 563.581246 303.467315 
L 563.73195 303.968292 
L 564.328294 304.113254 
L 564.377529 303.787167 
L 564.426694 304.188696 
L 565.107778 304.346517 
L 565.155918 303.99751 
L 565.203992 304.430225 
L 565.633677 304.543443 
L 565.775729 304.594085 
L 565.870108 304.64321 
L 565.917201 304.550513 
L 565.96423 303.819859 
L 566.011196 304.322261 
L 566.151711 304.715351 
L 566.569871 304.8523 
L 567.028647 304.935458 
L 567.074193 304.58683 
L 567.119678 305.008347 
L 567.616116 305.142269 
L 567.705618 305.101278 
L 567.794889 305.205863 
L 567.839439 305.156491 
L 567.883931 305.136506 
L 568.017066 305.232359 
L 568.149692 305.312183 
L 568.193788 305.234444 
L 568.237828 304.954925 
L 568.281812 305.285347 
L 568.457191 305.409737 
L 568.805308 305.463709 
L 568.848578 305.171533 
L 568.891794 305.540612 
L 569.491221 305.60732 
L 569.533643 305.475683 
L 569.576013 305.697035 
L 569.787089 305.771087 
L 570.038695 305.826171 
L 570.080452 305.448025 
L 570.122159 305.670092 
L 570.495278 305.99144 
L 571.310319 306.108306 
L 571.350573 305.520602 
L 571.390779 305.951751 
L 571.551139 306.287219 
L 572.263713 306.412869 
L 572.302874 306.354266 
L 572.459076 306.535414 
L 572.536914 306.367144 
L 572.575767 306.568898 
L 572.692067 306.596758 
L 572.807977 306.603135 
L 572.846528 306.350673 
L 572.885036 306.511123 
L 573.038641 306.693467 
L 573.570958 306.76589 
L 573.908892 306.775663 
L 573.946238 300.753964 
L 574.020808 306.264482 
L 574.16947 306.915227 
L 574.428101 306.979928 
L 580.767955 307.754913 
L 583.817669 308.243279 
L 583.845728 308.154903 
L 583.873764 308.282784 
L 584.041508 308.408694 
L 584.291609 308.453497 
L 584.319287 308.313859 
L 584.374577 271.890284 
L 584.429779 305.410007 
L 584.594858 308.44949 
L 584.949852 308.508709 
L 590.671631 309.012322 
L 593.415914 309.382904 
L 593.458443 302.050251 
L 593.522138 309.320344 
L 593.649179 309.492448 
L 599.346365 310.013583 
L 599.36429 309.657152 
L 599.382205 55.500564 
L 599.471645 307.803744 
L 599.596474 309.897993 
L 599.827112 310.037694 
L 600.596532 310.104468 
L 605.864611 310.427263 
L 606.759076 310.426029 
L 606.773549 182.107327 
L 606.860258 310.363177 
L 607.018663 310.506841 
L 607.785953 310.54482 
L 612.861805 310.750376 
L 614.019581 310.823944 
L 614.031318 198.382055 
L 614.125068 310.827932 
L 614.31181 310.889809 
L 614.5785 310.903275 
L 614.5785 310.903275 
" clip-path="url(#p62c965bce1)" style="fill: none; stroke: #ffa500; stroke-width: 1.5; stroke-linecap: square"/>
   </g>
   <g id="line2d_18">
    <path d="M 257.4585 152.253153 
L 340.535201 182.91903 
L 362.935937 189.4772 
L 376.427832 199.30359 
L 386.113218 203.062852 
L 393.67395 206.177145 
L 399.876525 208.58275 
L 405.135372 210.384208 
L 409.700107 211.791859 
L 413.732777 213.19657 
L 420.615095 215.325185 
L 426.354106 216.958739 
L 439.416701 220.871521 
L 444.470566 222.086377 
L 446.003638 222.322203 
L 448.880126 222.95773 
L 451.535968 223.484914 
L 452.791242 223.392293 
L 454.002616 223.652449 
L 455.173058 224.035972 
L 457.401593 224.300189 
L 458.464307 224.438412 
L 459.495388 224.389807 
L 462.416367 225.040711 
L 463.337745 224.977281 
L 464.23525 225.256891 
L 465.110088 225.359788 
L 465.963377 225.282944 
L 466.796151 225.524191 
L 467.609376 225.289799 
L 468.403946 225.80099 
L 469.940418 225.930836 
L 470.683832 225.932486 
L 471.411626 226.233255 
L 472.124445 226.110312 
L 472.822891 226.353402 
L 474.178906 226.431904 
L 474.837514 226.114333 
L 475.483834 226.672086 
L 477.353447 226.858899 
L 477.954882 225.829838 
L 479.127303 226.991524 
L 479.698962 227.092354 
L 480.261341 227.018305 
L 481.359428 227.252865 
L 482.943931 227.311377 
L 483.456392 227.061616 
L 483.961383 227.497869 
L 484.459117 227.380805 
L 485.433633 227.643845 
L 485.9108 227.695037 
L 486.381483 226.876318 
L 486.845857 227.093739 
L 487.304087 227.835086 
L 487.756336 227.78383 
L 488.202756 227.894254 
L 488.643497 227.81898 
L 489.508504 227.961304 
L 489.933041 227.845113 
L 490.352438 226.194108 
L 490.766818 227.859977 
L 491.176299 227.850174 
L 491.580997 228.191603 
L 491.981022 228.088699 
L 492.37648 228.26003 
L 493.536468 228.343049 
L 493.914657 228.149429 
L 494.288761 228.423753 
L 496.452321 228.45144 
L 496.800132 228.26313 
L 497.144486 227.947505 
L 497.485451 228.679809 
L 498.81671 228.783202 
L 499.141682 228.302365 
L 499.463633 228.431233 
L 499.78262 228.847665 
L 500.098697 228.665305 
L 500.411915 228.913168 
L 501.334929 228.941896 
L 501.936886 229.036984 
L 502.233987 228.621513 
L 502.820652 229.089801 
L 503.1103 229.145751 
L 503.397547 228.997084 
L 503.964992 229.210605 
L 504.799103 229.285383 
L 505.344225 228.885058 
L 505.613602 228.992471 
L 505.880901 229.27526 
L 506.409389 229.324858 
L 506.67064 229.133858 
L 506.929936 228.792028 
L 507.187305 229.419161 
L 507.696377 229.30426 
L 508.198077 229.461912 
L 508.446228 229.499938 
L 508.692614 229.084091 
L 509.421429 229.541071 
L 510.369928 229.130566 
L 510.603049 229.260004 
L 510.834613 229.570887 
L 511.064638 229.62859 
L 511.293147 229.446736 
L 511.520158 229.668202 
L 511.74569 229.274491 
L 511.969765 229.618836 
L 512.413611 229.667169 
L 513.498967 229.749787 
L 513.712017 228.827779 
L 513.923764 228.796617 
L 514.134225 229.705979 
L 514.343415 229.501564 
L 514.551349 229.793875 
L 514.758043 229.691227 
L 515.370825 229.817197 
L 515.773407 229.819671 
L 516.5648 229.53669 
L 516.953819 229.687495 
L 517.338517 229.215411 
L 517.529276 229.890693 
L 517.907671 229.835641 
L 518.09533 229.696729 
L 518.281978 229.326484 
L 518.652283 229.929768 
L 519.381226 229.939274 
L 519.56109 229.769881 
L 519.740025 229.882116 
L 519.918041 229.657254 
L 520.271351 229.990987 
L 520.79465 229.926684 
L 520.967341 229.709751 
L 521.310162 229.896371 
L 521.480308 229.80021 
L 521.649623 229.217429 
L 521.818114 229.929183 
L 521.98579 230.0507 
L 522.152658 230.027194 
L 522.648493 229.683555 
L 522.97515 230.000613 
L 523.137331 229.961106 
L 523.298756 229.406876 
L 523.619366 230.081566 
L 523.778566 229.921134 
L 524.251821 230.153388 
L 524.872936 230.149392 
L 525.02649 230.027923 
L 525.179366 229.673223 
L 525.331571 229.634349 
L 525.48311 230.20856 
L 525.784213 230.174924 
L 525.933789 230.087812 
L 526.231017 229.477425 
L 526.378681 230.230104 
L 526.525717 230.238465 
L 526.817931 230.022301 
L 527.1077 229.934965 
L 527.251681 229.787316 
L 527.53786 230.242566 
L 527.680068 230.274152 
L 527.821694 230.115106 
L 527.962743 230.29552 
L 528.103221 229.943335 
L 528.382479 230.29785 
L 528.93433 230.223929 
L 529.07093 230.02295 
L 529.206994 229.609409 
L 529.342525 230.257958 
L 529.612007 230.365884 
L 530.144763 230.181715 
L 530.276681 228.317357 
L 530.408099 230.164897 
L 530.53902 229.868813 
L 530.669449 230.416011 
L 530.799388 230.253193 
L 530.928841 230.411078 
L 531.186306 230.373437 
L 531.947415 230.461253 
L 532.321789 230.481275 
L 532.445687 230.206518 
L 532.569143 230.459675 
L 532.69216 230.209105 
L 532.814743 230.495746 
L 533.058614 230.338294 
L 533.30078 230.373597 
L 533.541265 229.824597 
L 533.780092 230.530504 
L 534.252863 230.470975 
L 534.370054 230.400434 
L 534.486851 230.02363 
L 534.603254 230.547563 
L 534.719268 230.530569 
L 534.950137 230.407954 
L 535.064997 230.421185 
L 535.179478 230.295311 
L 535.293581 229.935061 
L 535.520666 230.567072 
L 535.970419 230.563725 
L 536.081951 230.409556 
L 536.193125 230.499599 
L 536.303943 230.259905 
L 536.524521 230.579806 
L 537.177953 230.511227 
L 537.28567 230.448495 
L 537.393053 230.044045 
L 537.500104 230.596016 
L 538.030453 230.432565 
L 538.135556 230.029445 
L 538.24034 230.126639 
L 538.448963 230.619362 
L 538.656337 230.433566 
L 538.862478 230.119023 
L 539.067398 230.624319 
L 539.372524 230.629717 
L 539.473638 230.503387 
L 539.574458 230.642667 
L 539.674986 230.234269 
L 539.87517 230.630638 
L 540.370626 230.628828 
L 540.468873 230.343981 
L 540.761952 230.639183 
L 540.95597 230.507359 
L 541.052572 230.228598 
L 541.244974 230.671427 
L 541.721353 230.382823 
L 541.910085 230.509618 
L 542.097795 229.878416 
L 542.191269 230.69104 
L 542.284493 230.676368 
L 542.47019 230.500287 
L 542.562667 230.543086 
L 542.654897 230.455951 
L 542.746883 230.044069 
L 543.021383 230.684545 
L 543.203182 230.47912 
L 543.293725 230.141888 
L 543.384032 230.221102 
L 543.563943 230.689062 
L 544.009674 230.699161 
L 544.098136 230.298643 
L 544.186372 230.688381 
L 544.274385 230.6577 
L 544.624216 230.329557 
L 544.884291 230.474027 
L 544.97055 230.013099 
L 545.142427 230.691769 
L 545.228047 230.631983 
L 545.313455 230.480025 
L 545.398654 230.546298 
L 545.483644 230.575474 
L 545.568425 230.443946 
L 545.653 229.917674 
L 545.821532 230.696382 
L 546.322264 230.304177 
L 546.569942 230.630638 
L 546.65211 230.574384 
L 546.734083 229.82197 
L 546.815862 230.070458 
L 546.978844 230.708299 
L 547.060048 230.480786 
L 547.141063 230.688589 
L 547.221888 230.573808 
L 547.302525 230.650043 
L 547.782446 230.494105 
L 547.940953 230.356162 
L 548.098739 230.545769 
L 548.177363 230.368888 
L 548.255809 229.762681 
L 548.41217 230.699465 
L 548.567829 230.499334 
L 548.722791 230.55546 
L 548.877063 229.832301 
L 549.030651 230.688421 
L 549.259764 230.436978 
L 549.487371 230.258031 
L 549.638283 230.658292 
L 549.78854 230.607084 
L 549.938148 230.359822 
L 550.161356 230.662128 
L 550.383135 230.311305 
L 550.530203 230.63964 
L 550.967696 230.622173 
L 551.112308 229.993942 
L 551.184388 230.63417 
L 551.256319 230.45885 
L 551.471219 230.542606 
L 551.89706 230.346752 
L 551.967527 229.99608 
L 552.037851 230.1387 
L 552.178073 230.597289 
L 552.31773 230.384441 
L 552.456825 230.04374 
L 552.595365 230.588352 
L 552.802141 230.518708 
L 552.870793 230.568394 
L 553.00769 229.794628 
L 553.075936 230.56258 
L 553.144048 230.284251 
L 553.212026 230.541324 
L 553.279871 230.434616 
L 554.017528 230.51524 
L 554.149976 230.046207 
L 554.281919 230.494137 
L 554.347703 230.338142 
L 554.413362 230.373581 
L 554.478897 230.400074 
L 554.544308 230.303857 
L 554.609596 229.978445 
L 554.674761 230.037558 
L 554.804725 230.513638 
L 555.127516 230.500888 
L 555.191715 230.090183 
L 555.319757 230.484943 
L 555.57443 230.417052 
L 555.637807 230.495002 
L 555.701068 230.090768 
L 555.764214 230.399057 
L 555.952963 230.465497 
L 556.14069 230.457216 
L 556.327405 230.133719 
L 556.451325 230.243863 
L 556.574803 229.564649 
L 556.697842 230.456696 
L 556.820446 230.236599 
L 556.942618 230.276827 
L 557.06436 229.57912 
L 557.185676 230.430107 
L 557.306569 230.207183 
L 557.427041 230.217354 
L 557.547096 229.768023 
L 557.666736 230.42233 
L 557.845424 229.983827 
L 557.904783 229.791553 
L 558.023196 230.409989 
L 558.082251 230.402108 
L 558.31747 230.317223 
L 558.376026 230.045446 
L 558.434484 230.26704 
L 558.492842 230.384609 
L 558.551103 230.323198 
L 558.667331 230.086419 
L 558.725299 229.814378 
L 558.898624 230.386155 
L 559.128382 230.371683 
L 559.299707 229.974216 
L 559.356627 230.367694 
L 559.413454 230.224506 
L 559.526829 230.263068 
L 559.752472 230.337285 
L 559.920745 229.869854 
L 560.088205 230.334162 
L 560.143845 230.269195 
L 560.199397 230.345062 
L 560.254859 229.908232 
L 560.310233 230.292805 
L 560.420715 230.233884 
L 560.530846 229.928614 
L 560.585781 229.719009 
L 560.750064 230.316294 
L 561.022149 230.281312 
L 561.076311 229.908769 
L 561.130388 230.23917 
L 561.345856 230.287655 
L 561.506582 229.927814 
L 561.666565 230.262772 
L 561.931574 230.164993 
L 561.984333 230.104727 
L 562.037012 229.755193 
L 562.089611 228.491611 
L 562.246931 230.218628 
L 562.403539 230.103245 
L 562.611255 230.180418 
L 563.074112 230.198413 
L 563.125161 229.884294 
L 563.176135 229.9701 
L 563.328607 230.1829 
L 563.429884 230.106377 
L 563.530866 229.81139 
L 563.581246 229.000232 
L 563.631554 230.122234 
L 563.73195 230.03811 
L 563.78204 230.108139 
L 563.832057 229.973504 
L 563.882001 230.053159 
L 564.130651 230.141904 
L 564.328294 230.123788 
L 564.475789 229.952416 
L 564.62266 230.062289 
L 564.962954 229.732344 
L 565.059571 229.911844 
L 565.107778 229.702351 
L 565.155918 228.921553 
L 565.203992 230.028227 
L 565.299939 229.934333 
L 565.347813 230.011393 
L 565.395621 229.872601 
L 565.443363 229.944264 
L 565.681092 230.034586 
L 565.917201 230.012939 
L 566.011196 228.944763 
L 566.058098 230.005643 
L 566.151711 229.77057 
L 566.198424 229.919925 
L 566.291659 229.888507 
L 566.477382 229.898045 
L 567.028647 229.942902 
L 567.119678 229.715525 
L 567.165104 229.881739 
L 567.255777 229.823908 
L 567.391344 229.775399 
L 567.481428 229.6707 
L 567.705618 229.403176 
L 567.839439 229.882364 
L 567.928367 229.789887 
L 568.017066 229.488213 
L 568.061331 229.537251 
L 568.149692 229.62626 
L 568.237828 228.680995 
L 568.281812 229.852171 
L 568.369612 229.757467 
L 568.413429 229.770442 
L 568.457191 229.650206 
L 568.544549 229.709807 
L 568.675174 229.432208 
L 568.761984 229.663949 
L 568.848578 228.706871 
L 568.891794 229.718401 
L 568.978064 229.66873 
L 569.06412 229.606278 
L 569.107068 229.695023 
L 569.321012 229.782415 
L 569.533643 229.69745 
L 569.576013 229.434034 
L 569.618331 229.611011 
L 569.660598 229.731679 
L 569.702813 229.614279 
L 569.871161 229.344856 
L 569.91312 229.381849 
L 569.996887 229.564769 
L 570.038695 229.388536 
L 570.080452 228.439795 
L 570.163815 229.00973 
L 570.246979 229.696721 
L 570.288486 229.645016 
L 570.329943 229.548143 
L 570.412709 229.60607 
L 570.577651 229.581891 
L 571.189279 229.632379 
L 571.310319 229.057462 
L 571.350573 227.747326 
L 571.390779 229.503093 
L 571.471052 229.305405 
L 571.511118 229.556472 
L 571.591113 229.446511 
L 571.750551 229.50391 
L 572.067241 229.548727 
L 572.302874 229.545043 
L 572.381063 229.217301 
L 572.420091 229.409415 
L 572.498017 229.548439 
L 572.575767 229.482383 
L 572.614577 229.179532 
L 572.653344 229.497167 
L 572.769384 229.392516 
L 572.846528 228.473303 
L 572.885036 228.863274 
L 572.961924 229.51071 
L 573.000304 229.252772 
L 573.038641 229.455898 
L 573.115189 229.428163 
L 573.457577 229.154808 
L 573.533205 229.154008 
L 573.608669 228.992735 
L 573.759106 229.460078 
L 573.83408 229.354907 
L 573.908892 229.424263 
L 573.946238 221.92291 
L 574.020808 228.884569 
L 574.132364 229.452926 
L 574.206535 229.175928 
L 574.317496 229.344432 
L 574.391272 229.305293 
L 574.939644 229.281299 
L 581.224735 229.00233 
L 583.761482 228.681419 
L 583.845728 227.806519 
L 583.873764 228.805707 
L 583.957737 228.572684 
L 584.097242 228.741597 
L 584.263909 228.601852 
L 584.319287 227.885389 
L 584.346943 196.977055 
L 584.429779 225.071312 
L 584.457346 224.800352 
L 584.594858 228.669982 
L 584.731825 228.556651 
L 586.01987 228.498435 
L 590.044131 228.203785 
L 593.245276 227.955954 
L 593.415914 227.978771 
L 593.458443 220.284864 
L 593.522138 227.371018 
L 593.543344 228.0387 
L 593.628038 227.776518 
L 593.754691 227.798318 
L 599.346365 227.335588 
L 599.36429 226.911003 
L 599.382205 50.906085 
L 599.471645 223.266099 
L 599.578669 227.056755 
L 599.596474 227.011009 
L 599.61427 226.980399 
L 599.685363 227.045334 
L 599.950669 227.080124 
L 606.453745 226.37589 
L 606.599476 226.237972 
L 606.701125 226.039411 
L 606.715622 226.203542 
L 606.730112 226.252628 
L 606.744597 226.073584 
L 606.759076 225.45152 
L 606.773549 128.353361 
L 606.860258 226.383082 
L 606.874688 226.411025 
L 606.903531 226.308249 
L 606.94675 226.329143 
L 611.864444 225.990822 
L 613.463427 225.727357 
L 613.701181 225.757318 
L 613.819448 225.730433 
L 614.007841 225.361277 
L 614.019581 224.794978 
L 614.031318 138.25388 
L 614.089941 225.729183 
L 614.125068 225.494223 
L 614.148466 225.753362 
L 614.241899 225.686249 
L 614.5785 225.631228 
L 614.5785 225.631228 
" clip-path="url(#p62c965bce1)" style="fill: none; stroke: #008000; stroke-width: 1.5; stroke-linecap: square"/>
   </g>
   <g id="patch_3">
    <path d="M 257.4585 311.6435 
L 257.4585 45.5315 
" style="fill: none; stroke: #000000; stroke-width: 0.8; stroke-linejoin: miter; stroke-linecap: square"/>
   </g>
   <g id="patch_4">
    <path d="M 614.5785 311.6435 
L 614.5785 45.5315 
" style="fill: none; stroke: #000000; stroke-width: 0.8; stroke-linejoin: miter; stroke-linecap: square"/>
   </g>
   <g id="patch_5">
    <path d="M 257.4585 311.6435 
L 614.5785 311.6435 
" style="fill: none; stroke: #000000; stroke-width: 0.8; stroke-linejoin: miter; stroke-linecap: square"/>
   </g>
   <g id="patch_6">
    <path d="M 257.4585 45.5315 
L 614.5785 45.5315 
" style="fill: none; stroke: #000000; stroke-width: 0.8; stroke-linejoin: miter; stroke-linecap: square"/>
   </g>
   <g id="text_11">
    <!-- Loss of the 09_07_25_CIFAR10_torch_model_(1024+8192-8192.0-1)_elk-horse -->
    <g transform="translate(7.2 25.5315) scale(0.264 -0.264)">
     <defs>
      <path id="TimesNewRomanPSMT-20" transform="scale(0.015625)"/>
      <path id="TimesNewRomanPSMT-66" d="M 1319 2638 
L 1319 756 
Q 1319 356 1406 250 
Q 1522 113 1716 113 
L 1975 113 
L 1975 0 
L 266 0 
L 266 113 
L 394 113 
Q 519 113 622 175 
Q 725 238 764 344 
Q 803 450 803 756 
L 803 2638 
L 247 2638 
L 247 2863 
L 803 2863 
L 803 3050 
Q 803 3478 940 3775 
Q 1078 4072 1361 4255 
Q 1644 4438 1997 4438 
Q 2325 4438 2600 4225 
Q 2781 4084 2781 3909 
Q 2781 3816 2700 3733 
Q 2619 3650 2525 3650 
Q 2453 3650 2373 3701 
Q 2294 3753 2178 3923 
Q 2063 4094 1966 4153 
Q 1869 4213 1750 4213 
Q 1606 4213 1506 4136 
Q 1406 4059 1362 3898 
Q 1319 3738 1319 3069 
L 1319 2863 
L 2056 2863 
L 2056 2638 
L 1319 2638 
z
" transform="scale(0.015625)"/>
      <path id="TimesNewRomanPSMT-74" d="M 1031 3803 
L 1031 2863 
L 1700 2863 
L 1700 2644 
L 1031 2644 
L 1031 788 
Q 1031 509 1111 412 
Q 1191 316 1316 316 
Q 1419 316 1516 380 
Q 1613 444 1666 569 
L 1788 569 
Q 1678 263 1478 108 
Q 1278 -47 1066 -47 
Q 922 -47 784 33 
Q 647 113 581 261 
Q 516 409 516 719 
L 516 2644 
L 63 2644 
L 63 2747 
Q 234 2816 414 2980 
Q 594 3144 734 3369 
Q 806 3488 934 3803 
L 1031 3803 
z
" transform="scale(0.015625)"/>
      <path id="TimesNewRomanPSMT-68" d="M 1041 4444 
L 1041 2350 
Q 1388 2731 1591 2839 
Q 1794 2947 1997 2947 
Q 2241 2947 2416 2812 
Q 2591 2678 2675 2391 
Q 2734 2191 2734 1659 
L 2734 647 
Q 2734 375 2778 275 
Q 2809 200 2884 156 
Q 2959 113 3159 113 
L 3159 0 
L 1753 0 
L 1753 113 
L 1819 113 
Q 2019 113 2097 173 
Q 2175 234 2206 353 
Q 2216 403 2216 647 
L 2216 1659 
Q 2216 2128 2167 2275 
Q 2119 2422 2012 2495 
Q 1906 2569 1756 2569 
Q 1603 2569 1437 2487 
Q 1272 2406 1041 2159 
L 1041 647 
Q 1041 353 1073 281 
Q 1106 209 1195 161 
Q 1284 113 1503 113 
L 1503 0 
L 84 0 
L 84 113 
Q 275 113 384 172 
Q 447 203 484 290 
Q 522 378 522 647 
L 522 3238 
Q 522 3728 498 3840 
Q 475 3953 426 3993 
Q 378 4034 297 4034 
Q 231 4034 84 3984 
L 41 4094 
L 897 4444 
L 1041 4444 
z
" transform="scale(0.015625)"/>
      <path id="TimesNewRomanPSMT-65" d="M 681 1784 
Q 678 1147 991 784 
Q 1303 422 1725 422 
Q 2006 422 2214 576 
Q 2422 731 2563 1106 
L 2659 1044 
Q 2594 616 2278 264 
Q 1963 -88 1488 -88 
Q 972 -88 605 314 
Q 238 716 238 1394 
Q 238 2128 614 2539 
Q 991 2950 1559 2950 
Q 2041 2950 2350 2633 
Q 2659 2316 2659 1784 
L 681 1784 
z
M 681 1966 
L 2006 1966 
Q 1991 2241 1941 2353 
Q 1863 2528 1708 2628 
Q 1553 2728 1384 2728 
Q 1125 2728 920 2526 
Q 716 2325 681 1966 
z
" transform="scale(0.015625)"/>
      <path id="TimesNewRomanPSMT-39" d="M 338 -88 
L 338 28 
Q 744 34 1094 217 
Q 1444 400 1770 856 
Q 2097 1313 2225 1859 
Q 1734 1544 1338 1544 
Q 891 1544 572 1889 
Q 253 2234 253 2806 
Q 253 3363 572 3797 
Q 956 4325 1575 4325 
Q 2097 4325 2469 3894 
Q 2925 3359 2925 2575 
Q 2925 1869 2578 1258 
Q 2231 647 1613 244 
Q 1109 -88 516 -88 
L 338 -88 
z
M 2275 2091 
Q 2331 2497 2331 2741 
Q 2331 3044 2228 3395 
Q 2125 3747 1936 3934 
Q 1747 4122 1506 4122 
Q 1228 4122 1018 3872 
Q 809 3622 809 3128 
Q 809 2469 1088 2097 
Q 1291 1828 1588 1828 
Q 1731 1828 1928 1897 
Q 2125 1966 2275 2091 
z
" transform="scale(0.015625)"/>
      <path id="TimesNewRomanPSMT-5f" d="M 3256 -1381 
L -53 -1381 
L -53 -1119 
L 3256 -1119 
L 3256 -1381 
z
" transform="scale(0.015625)"/>
      <path id="TimesNewRomanPSMT-37" d="M 644 4238 
L 2916 4238 
L 2916 4119 
L 1503 -88 
L 1153 -88 
L 2419 3728 
L 1253 3728 
Q 900 3728 750 3644 
Q 488 3500 328 3200 
L 238 3234 
L 644 4238 
z
" transform="scale(0.015625)"/>
      <path id="TimesNewRomanPSMT-43" d="M 3853 4334 
L 3950 2894 
L 3853 2894 
Q 3659 3541 3300 3825 
Q 2941 4109 2438 4109 
Q 2016 4109 1675 3895 
Q 1334 3681 1139 3212 
Q 944 2744 944 2047 
Q 944 1472 1128 1050 
Q 1313 628 1683 403 
Q 2053 178 2528 178 
Q 2941 178 3256 354 
Q 3572 531 3950 1056 
L 4047 994 
Q 3728 428 3303 165 
Q 2878 -97 2294 -97 
Q 1241 -97 663 684 
Q 231 1266 231 2053 
Q 231 2688 515 3219 
Q 800 3750 1298 4042 
Q 1797 4334 2388 4334 
Q 2847 4334 3294 4109 
Q 3425 4041 3481 4041 
Q 3566 4041 3628 4100 
Q 3709 4184 3744 4334 
L 3853 4334 
z
" transform="scale(0.015625)"/>
      <path id="TimesNewRomanPSMT-49" d="M 1975 116 
L 1975 0 
L 159 0 
L 159 116 
L 309 116 
Q 572 116 691 269 
Q 766 369 766 750 
L 766 3488 
Q 766 3809 725 3913 
Q 694 3991 597 4047 
Q 459 4122 309 4122 
L 159 4122 
L 159 4238 
L 1975 4238 
L 1975 4122 
L 1822 4122 
Q 1563 4122 1444 3969 
Q 1366 3869 1366 3488 
L 1366 750 
Q 1366 428 1406 325 
Q 1438 247 1538 191 
Q 1672 116 1822 116 
L 1975 116 
z
" transform="scale(0.015625)"/>
      <path id="TimesNewRomanPSMT-46" d="M 1309 4006 
L 1309 2341 
L 2081 2341 
Q 2347 2341 2470 2458 
Q 2594 2575 2634 2922 
L 2750 2922 
L 2750 1488 
L 2634 1488 
Q 2631 1734 2570 1850 
Q 2509 1966 2401 2023 
Q 2294 2081 2081 2081 
L 1309 2081 
L 1309 750 
Q 1309 428 1350 325 
Q 1381 247 1481 191 
Q 1619 116 1769 116 
L 1922 116 
L 1922 0 
L 103 0 
L 103 116 
L 253 116 
Q 516 116 634 269 
Q 709 369 709 750 
L 709 3488 
Q 709 3809 669 3913 
Q 638 3991 541 4047 
Q 406 4122 253 4122 
L 103 4122 
L 103 4238 
L 3256 4238 
L 3297 3306 
L 3188 3306 
Q 3106 3603 2998 3742 
Q 2891 3881 2733 3943 
Q 2575 4006 2244 4006 
L 1309 4006 
z
" transform="scale(0.015625)"/>
      <path id="TimesNewRomanPSMT-41" d="M 2928 1419 
L 1288 1419 
L 1000 750 
Q 894 503 894 381 
Q 894 284 986 211 
Q 1078 138 1384 116 
L 1384 0 
L 50 0 
L 50 116 
Q 316 163 394 238 
Q 553 388 747 847 
L 2238 4334 
L 2347 4334 
L 3822 809 
Q 4000 384 4145 257 
Q 4291 131 4550 116 
L 4550 0 
L 2878 0 
L 2878 116 
Q 3131 128 3220 200 
Q 3309 272 3309 375 
Q 3309 513 3184 809 
L 2928 1419 
z
M 2841 1650 
L 2122 3363 
L 1384 1650 
L 2841 1650 
z
" transform="scale(0.015625)"/>
      <path id="TimesNewRomanPSMT-52" d="M 4325 0 
L 3194 0 
L 1759 1981 
Q 1600 1975 1500 1975 
Q 1459 1975 1412 1976 
Q 1366 1978 1316 1981 
L 1316 750 
Q 1316 350 1403 253 
Q 1522 116 1759 116 
L 1925 116 
L 1925 0 
L 109 0 
L 109 116 
L 269 116 
Q 538 116 653 291 
Q 719 388 719 750 
L 719 3488 
Q 719 3888 631 3984 
Q 509 4122 269 4122 
L 109 4122 
L 109 4238 
L 1653 4238 
Q 2328 4238 2648 4139 
Q 2969 4041 3192 3777 
Q 3416 3513 3416 3147 
Q 3416 2756 3161 2468 
Q 2906 2181 2372 2063 
L 3247 847 
Q 3547 428 3762 290 
Q 3978 153 4325 116 
L 4325 0 
z
M 1316 2178 
Q 1375 2178 1419 2176 
Q 1463 2175 1491 2175 
Q 2097 2175 2405 2437 
Q 2713 2700 2713 3106 
Q 2713 3503 2464 3751 
Q 2216 4000 1806 4000 
Q 1625 4000 1316 3941 
L 1316 2178 
z
" transform="scale(0.015625)"/>
      <path id="TimesNewRomanPSMT-72" d="M 1038 2947 
L 1038 2303 
Q 1397 2947 1775 2947 
Q 1947 2947 2059 2842 
Q 2172 2738 2172 2600 
Q 2172 2478 2090 2393 
Q 2009 2309 1897 2309 
Q 1788 2309 1652 2417 
Q 1516 2525 1450 2525 
Q 1394 2525 1328 2463 
Q 1188 2334 1038 2041 
L 1038 669 
Q 1038 431 1097 309 
Q 1138 225 1241 169 
Q 1344 113 1538 113 
L 1538 0 
L 72 0 
L 72 113 
Q 291 113 397 181 
Q 475 231 506 341 
Q 522 394 522 644 
L 522 1753 
Q 522 2253 501 2348 
Q 481 2444 426 2487 
Q 372 2531 291 2531 
Q 194 2531 72 2484 
L 41 2597 
L 906 2947 
L 1038 2947 
z
" transform="scale(0.015625)"/>
      <path id="TimesNewRomanPSMT-63" d="M 2631 1088 
Q 2516 522 2178 217 
Q 1841 -88 1431 -88 
Q 944 -88 581 321 
Q 219 731 219 1428 
Q 219 2103 620 2525 
Q 1022 2947 1584 2947 
Q 2006 2947 2278 2723 
Q 2550 2500 2550 2259 
Q 2550 2141 2473 2067 
Q 2397 1994 2259 1994 
Q 2075 1994 1981 2113 
Q 1928 2178 1911 2362 
Q 1894 2547 1784 2644 
Q 1675 2738 1481 2738 
Q 1169 2738 978 2506 
Q 725 2200 725 1697 
Q 725 1184 976 792 
Q 1228 400 1656 400 
Q 1963 400 2206 609 
Q 2378 753 2541 1131 
L 2631 1088 
z
" transform="scale(0.015625)"/>
      <path id="TimesNewRomanPSMT-6d" d="M 1050 2338 
Q 1363 2650 1419 2697 
Q 1559 2816 1721 2881 
Q 1884 2947 2044 2947 
Q 2313 2947 2506 2790 
Q 2700 2634 2766 2338 
Q 3088 2713 3309 2830 
Q 3531 2947 3766 2947 
Q 3994 2947 4170 2830 
Q 4347 2713 4450 2447 
Q 4519 2266 4519 1878 
L 4519 647 
Q 4519 378 4559 278 
Q 4591 209 4675 161 
Q 4759 113 4950 113 
L 4950 0 
L 3538 0 
L 3538 113 
L 3597 113 
Q 3781 113 3884 184 
Q 3956 234 3988 344 
Q 4000 397 4000 647 
L 4000 1878 
Q 4000 2228 3916 2372 
Q 3794 2572 3525 2572 
Q 3359 2572 3192 2489 
Q 3025 2406 2788 2181 
L 2781 2147 
L 2788 2013 
L 2788 647 
Q 2788 353 2820 281 
Q 2853 209 2943 161 
Q 3034 113 3253 113 
L 3253 0 
L 1806 0 
L 1806 113 
Q 2044 113 2133 169 
Q 2222 225 2256 338 
Q 2272 391 2272 647 
L 2272 1878 
Q 2272 2228 2169 2381 
Q 2031 2581 1784 2581 
Q 1616 2581 1450 2491 
Q 1191 2353 1050 2181 
L 1050 647 
Q 1050 366 1089 281 
Q 1128 197 1204 155 
Q 1281 113 1516 113 
L 1516 0 
L 100 0 
L 100 113 
Q 297 113 375 155 
Q 453 197 493 289 
Q 534 381 534 647 
L 534 1741 
Q 534 2213 506 2350 
Q 484 2453 437 2492 
Q 391 2531 309 2531 
Q 222 2531 100 2484 
L 53 2597 
L 916 2947 
L 1050 2947 
L 1050 2338 
z
" transform="scale(0.015625)"/>
      <path id="TimesNewRomanPSMT-64" d="M 2222 322 
Q 2013 103 1813 7 
Q 1613 -88 1381 -88 
Q 913 -88 563 304 
Q 213 697 213 1313 
Q 213 1928 600 2439 
Q 988 2950 1597 2950 
Q 1975 2950 2222 2709 
L 2222 3238 
Q 2222 3728 2198 3840 
Q 2175 3953 2125 3993 
Q 2075 4034 2000 4034 
Q 1919 4034 1784 3984 
L 1744 4094 
L 2597 4444 
L 2738 4444 
L 2738 1134 
Q 2738 631 2761 520 
Q 2784 409 2836 365 
Q 2888 322 2956 322 
Q 3041 322 3181 375 
L 3216 266 
L 2366 -88 
L 2222 -88 
L 2222 322 
z
M 2222 541 
L 2222 2016 
Q 2203 2228 2109 2403 
Q 2016 2578 1861 2667 
Q 1706 2756 1559 2756 
Q 1284 2756 1069 2509 
Q 784 2184 784 1559 
Q 784 928 1059 592 
Q 1334 256 1672 256 
Q 1956 256 2222 541 
z
" transform="scale(0.015625)"/>
      <path id="TimesNewRomanPSMT-6c" d="M 1184 4444 
L 1184 647 
Q 1184 378 1223 290 
Q 1263 203 1344 158 
Q 1425 113 1647 113 
L 1647 0 
L 244 0 
L 244 113 
Q 441 113 512 153 
Q 584 194 625 287 
Q 666 381 666 647 
L 666 3247 
Q 666 3731 644 3842 
Q 622 3953 573 3993 
Q 525 4034 450 4034 
Q 369 4034 244 3984 
L 191 4094 
L 1044 4444 
L 1184 4444 
z
" transform="scale(0.015625)"/>
      <path id="TimesNewRomanPSMT-28" d="M 1988 -1253 
L 1988 -1369 
Q 1516 -1131 1200 -813 
Q 750 -359 506 256 
Q 263 872 263 1534 
Q 263 2503 741 3301 
Q 1219 4100 1988 4444 
L 1988 4313 
Q 1603 4100 1356 3731 
Q 1109 3363 987 2797 
Q 866 2231 866 1616 
Q 866 947 969 400 
Q 1050 -31 1165 -292 
Q 1281 -553 1476 -793 
Q 1672 -1034 1988 -1253 
z
" transform="scale(0.015625)"/>
      <path id="TimesNewRomanPSMT-2b" d="M 1672 441 
L 1672 2000 
L 116 2000 
L 116 2256 
L 1672 2256 
L 1672 3809 
L 1922 3809 
L 1922 2256 
L 3484 2256 
L 3484 2000 
L 1922 2000 
L 1922 441 
L 1672 441 
z
" transform="scale(0.015625)"/>
      <path id="TimesNewRomanPSMT-38" d="M 1228 2134 
Q 725 2547 579 2797 
Q 434 3047 434 3316 
Q 434 3728 753 4026 
Q 1072 4325 1600 4325 
Q 2113 4325 2425 4047 
Q 2738 3769 2738 3413 
Q 2738 3175 2569 2928 
Q 2400 2681 1866 2347 
Q 2416 1922 2594 1678 
Q 2831 1359 2831 1006 
Q 2831 559 2490 242 
Q 2150 -75 1597 -75 
Q 994 -75 656 303 
Q 388 606 388 966 
Q 388 1247 577 1523 
Q 766 1800 1228 2134 
z
M 1719 2469 
Q 2094 2806 2194 3001 
Q 2294 3197 2294 3444 
Q 2294 3772 2109 3958 
Q 1925 4144 1606 4144 
Q 1288 4144 1088 3959 
Q 888 3775 888 3528 
Q 888 3366 970 3203 
Q 1053 3041 1206 2894 
L 1719 2469 
z
M 1375 2016 
Q 1116 1797 991 1539 
Q 866 1281 866 981 
Q 866 578 1086 336 
Q 1306 94 1647 94 
Q 1984 94 2187 284 
Q 2391 475 2391 747 
Q 2391 972 2272 1150 
Q 2050 1481 1375 2016 
z
" transform="scale(0.015625)"/>
      <path id="TimesNewRomanPSMT-2d" d="M 259 1672 
L 1875 1672 
L 1875 1200 
L 259 1200 
L 259 1672 
z
" transform="scale(0.015625)"/>
      <path id="TimesNewRomanPSMT-29" d="M 144 4313 
L 144 4444 
Q 619 4209 934 3891 
Q 1381 3434 1625 2820 
Q 1869 2206 1869 1541 
Q 1869 572 1392 -226 
Q 916 -1025 144 -1369 
L 144 -1253 
Q 528 -1038 776 -670 
Q 1025 -303 1145 264 
Q 1266 831 1266 1447 
Q 1266 2113 1163 2663 
Q 1084 3094 967 3353 
Q 850 3613 656 3853 
Q 463 4094 144 4313 
z
" transform="scale(0.015625)"/>
      <path id="TimesNewRomanPSMT-6b" d="M 1047 4444 
L 1047 1594 
L 1775 2259 
Q 2006 2472 2044 2528 
Q 2069 2566 2069 2603 
Q 2069 2666 2017 2711 
Q 1966 2756 1847 2763 
L 1847 2863 
L 3091 2863 
L 3091 2763 
Q 2834 2756 2664 2684 
Q 2494 2613 2291 2428 
L 1556 1750 
L 2291 822 
Q 2597 438 2703 334 
Q 2853 188 2966 144 
Q 3044 113 3238 113 
L 3238 0 
L 1847 0 
L 1847 113 
Q 1966 116 2008 148 
Q 2050 181 2050 241 
Q 2050 313 1925 472 
L 1047 1594 
L 1047 644 
Q 1047 366 1086 278 
Q 1125 191 1197 153 
Q 1269 116 1509 113 
L 1509 0 
L 53 0 
L 53 113 
Q 272 113 381 166 
Q 447 200 481 272 
Q 528 375 528 628 
L 528 3234 
Q 528 3731 506 3842 
Q 484 3953 434 3995 
Q 384 4038 303 4038 
Q 238 4038 106 3984 
L 53 4094 
L 903 4444 
L 1047 4444 
z
" transform="scale(0.015625)"/>
     </defs>
     <use xlink:href="#TimesNewRomanPSMT-4c"/>
     <use xlink:href="#TimesNewRomanPSMT-6f" transform="translate(61.083984 0)"/>
     <use xlink:href="#TimesNewRomanPSMT-73" transform="translate(111.083984 0)"/>
     <use xlink:href="#TimesNewRomanPSMT-73" transform="translate(150 0)"/>
     <use xlink:href="#TimesNewRomanPSMT-20" transform="translate(188.916016 0)"/>
     <use xlink:href="#TimesNewRomanPSMT-6f" transform="translate(213.916016 0)"/>
     <use xlink:href="#TimesNewRomanPSMT-66" transform="translate(263.916016 0)"/>
     <use xlink:href="#TimesNewRomanPSMT-20" transform="translate(297.216797 0)"/>
     <use xlink:href="#TimesNewRomanPSMT-74" transform="translate(322.216797 0)"/>
     <use xlink:href="#TimesNewRomanPSMT-68" transform="translate(350 0)"/>
     <use xlink:href="#TimesNewRomanPSMT-65" transform="translate(400 0)"/>
     <use xlink:href="#TimesNewRomanPSMT-20" transform="translate(444.384766 0)"/>
     <use xlink:href="#TimesNewRomanPSMT-30" transform="translate(469.384766 0)"/>
     <use xlink:href="#TimesNewRomanPSMT-39" transform="translate(519.384766 0)"/>
     <use xlink:href="#TimesNewRomanPSMT-5f" transform="translate(569.384766 0)"/>
     <use xlink:href="#TimesNewRomanPSMT-30" transform="translate(619.384766 0)"/>
     <use xlink:href="#TimesNewRomanPSMT-37" transform="translate(669.384766 0)"/>
     <use xlink:href="#TimesNewRomanPSMT-5f" transform="translate(719.384766 0)"/>
     <use xlink:href="#TimesNewRomanPSMT-32" transform="translate(769.384766 0)"/>
     <use xlink:href="#TimesNewRomanPSMT-35" transform="translate(819.384766 0)"/>
     <use xlink:href="#TimesNewRomanPSMT-5f" transform="translate(869.384766 0)"/>
     <use xlink:href="#TimesNewRomanPSMT-43" transform="translate(919.384766 0)"/>
     <use xlink:href="#TimesNewRomanPSMT-49" transform="translate(986.083984 0)"/>
     <use xlink:href="#TimesNewRomanPSMT-46" transform="translate(1019.384766 0)"/>
     <use xlink:href="#TimesNewRomanPSMT-41" transform="translate(1067.625 0)"/>
     <use xlink:href="#TimesNewRomanPSMT-52" transform="translate(1139.841797 0)"/>
     <use xlink:href="#TimesNewRomanPSMT-31" transform="translate(1206.541016 0)"/>
     <use xlink:href="#TimesNewRomanPSMT-30" transform="translate(1256.541016 0)"/>
     <use xlink:href="#TimesNewRomanPSMT-5f" transform="translate(1306.541016 0)"/>
     <use xlink:href="#TimesNewRomanPSMT-74" transform="translate(1356.541016 0)"/>
     <use xlink:href="#TimesNewRomanPSMT-6f" transform="translate(1384.324219 0)"/>
     <use xlink:href="#TimesNewRomanPSMT-72" transform="translate(1434.324219 0)"/>
     <use xlink:href="#TimesNewRomanPSMT-63" transform="translate(1467.625 0)"/>
     <use xlink:href="#TimesNewRomanPSMT-68" transform="translate(1512.009766 0)"/>
     <use xlink:href="#TimesNewRomanPSMT-5f" transform="translate(1562.009766 0)"/>
     <use xlink:href="#TimesNewRomanPSMT-6d" transform="translate(1612.009766 0)"/>
     <use xlink:href="#TimesNewRomanPSMT-6f" transform="translate(1689.792969 0)"/>
     <use xlink:href="#TimesNewRomanPSMT-64" transform="translate(1739.792969 0)"/>
     <use xlink:href="#TimesNewRomanPSMT-65" transform="translate(1789.792969 0)"/>
     <use xlink:href="#TimesNewRomanPSMT-6c" transform="translate(1834.177734 0)"/>
     <use xlink:href="#TimesNewRomanPSMT-5f" transform="translate(1861.960938 0)"/>
     <use xlink:href="#TimesNewRomanPSMT-28" transform="translate(1911.960938 0)"/>
     <use xlink:href="#TimesNewRomanPSMT-31" transform="translate(1945.261719 0)"/>
     <use xlink:href="#TimesNewRomanPSMT-30" transform="translate(1995.261719 0)"/>
     <use xlink:href="#TimesNewRomanPSMT-32" transform="translate(2045.261719 0)"/>
     <use xlink:href="#TimesNewRomanPSMT-34" transform="translate(2095.261719 0)"/>
     <use xlink:href="#TimesNewRomanPSMT-2b" transform="translate(2145.261719 0)"/>
     <use xlink:href="#TimesNewRomanPSMT-38" transform="translate(2201.658203 0)"/>
     <use xlink:href="#TimesNewRomanPSMT-31" transform="translate(2251.658203 0)"/>
     <use xlink:href="#TimesNewRomanPSMT-39" transform="translate(2301.658203 0)"/>
     <use xlink:href="#TimesNewRomanPSMT-32" transform="translate(2351.658203 0)"/>
     <use xlink:href="#TimesNewRomanPSMT-2d" transform="translate(2401.658203 0)"/>
     <use xlink:href="#TimesNewRomanPSMT-38" transform="translate(2434.958984 0)"/>
     <use xlink:href="#TimesNewRomanPSMT-31" transform="translate(2484.958984 0)"/>
     <use xlink:href="#TimesNewRomanPSMT-39" transform="translate(2534.958984 0)"/>
     <use xlink:href="#TimesNewRomanPSMT-32" transform="translate(2584.958984 0)"/>
     <use xlink:href="#TimesNewRomanPSMT-2e" transform="translate(2634.958984 0)"/>
     <use xlink:href="#TimesNewRomanPSMT-30" transform="translate(2659.958984 0)"/>
     <use xlink:href="#TimesNewRomanPSMT-2d" transform="translate(2709.958984 0)"/>
     <use xlink:href="#TimesNewRomanPSMT-31" transform="translate(2743.259766 0)"/>
     <use xlink:href="#TimesNewRomanPSMT-29" transform="translate(2793.259766 0)"/>
     <use xlink:href="#TimesNewRomanPSMT-5f" transform="translate(2826.560547 0)"/>
     <use xlink:href="#TimesNewRomanPSMT-65" transform="translate(2876.560547 0)"/>
     <use xlink:href="#TimesNewRomanPSMT-6c" transform="translate(2920.945312 0)"/>
     <use xlink:href="#TimesNewRomanPSMT-6b" transform="translate(2948.728516 0)"/>
     <use xlink:href="#TimesNewRomanPSMT-2d" transform="translate(2998.728516 0)"/>
     <use xlink:href="#TimesNewRomanPSMT-68" transform="translate(3032.029297 0)"/>
     <use xlink:href="#TimesNewRomanPSMT-6f" transform="translate(3082.029297 0)"/>
     <use xlink:href="#TimesNewRomanPSMT-72" transform="translate(3132.029297 0)"/>
     <use xlink:href="#TimesNewRomanPSMT-73" transform="translate(3165.330078 0)"/>
     <use xlink:href="#TimesNewRomanPSMT-65" transform="translate(3204.246094 0)"/>
    </g>
   </g>
   <g id="legend_1">
    <g id="patch_7">
     <path d="M 272.8585 125.384625 
L 473.416 125.384625 
Q 477.816 125.384625 477.816 120.984625 
L 477.816 60.9315 
Q 477.816 56.5315 473.416 56.5315 
L 272.8585 56.5315 
Q 268.4585 56.5315 268.4585 60.9315 
L 268.4585 120.984625 
Q 268.4585 125.384625 272.8585 125.384625 
z
" style="fill: #ffffff; opacity: 0.8; stroke: #cccccc; stroke-linejoin: miter"/>
    </g>
    <g id="line2d_19">
     <path d="M 277.2585 73.0315 
L 299.2585 73.0315 
L 321.2585 73.0315 
" style="fill: none; stroke: #ffa500; stroke-width: 1.5; stroke-linecap: square"/>
    </g>
    <g id="text_12">
     <!-- Training loss -->
     <g transform="translate(338.8585 80.7315) scale(0.22 -0.22)">
      <defs>
       <path id="TimesNewRomanPSMT-54" d="M 3703 4238 
L 3750 3244 
L 3631 3244 
Q 3597 3506 3538 3619 
Q 3441 3800 3280 3886 
Q 3119 3972 2856 3972 
L 2259 3972 
L 2259 734 
Q 2259 344 2344 247 
Q 2463 116 2709 116 
L 2856 116 
L 2856 0 
L 1059 0 
L 1059 116 
L 1209 116 
Q 1478 116 1591 278 
Q 1659 378 1659 734 
L 1659 3972 
L 1150 3972 
Q 853 3972 728 3928 
Q 566 3869 450 3700 
Q 334 3531 313 3244 
L 194 3244 
L 244 4238 
L 3703 4238 
z
" transform="scale(0.015625)"/>
       <path id="TimesNewRomanPSMT-61" d="M 1822 413 
Q 1381 72 1269 19 
Q 1100 -59 909 -59 
Q 613 -59 420 144 
Q 228 347 228 678 
Q 228 888 322 1041 
Q 450 1253 767 1440 
Q 1084 1628 1822 1897 
L 1822 2009 
Q 1822 2438 1686 2597 
Q 1550 2756 1291 2756 
Q 1094 2756 978 2650 
Q 859 2544 859 2406 
L 866 2225 
Q 866 2081 792 2003 
Q 719 1925 600 1925 
Q 484 1925 411 2006 
Q 338 2088 338 2228 
Q 338 2497 613 2722 
Q 888 2947 1384 2947 
Q 1766 2947 2009 2819 
Q 2194 2722 2281 2516 
Q 2338 2381 2338 1966 
L 2338 994 
Q 2338 584 2353 492 
Q 2369 400 2405 369 
Q 2441 338 2488 338 
Q 2538 338 2575 359 
Q 2641 400 2828 588 
L 2828 413 
Q 2478 -56 2159 -56 
Q 2006 -56 1915 50 
Q 1825 156 1822 413 
z
M 1822 616 
L 1822 1706 
Q 1350 1519 1213 1441 
Q 966 1303 859 1153 
Q 753 1003 753 825 
Q 753 600 887 451 
Q 1022 303 1197 303 
Q 1434 303 1822 616 
z
" transform="scale(0.015625)"/>
       <path id="TimesNewRomanPSMT-69" d="M 928 4444 
Q 1059 4444 1151 4351 
Q 1244 4259 1244 4128 
Q 1244 3997 1151 3903 
Q 1059 3809 928 3809 
Q 797 3809 703 3903 
Q 609 3997 609 4128 
Q 609 4259 701 4351 
Q 794 4444 928 4444 
z
M 1188 2947 
L 1188 647 
Q 1188 378 1227 289 
Q 1266 200 1342 156 
Q 1419 113 1622 113 
L 1622 0 
L 231 0 
L 231 113 
Q 441 113 512 153 
Q 584 194 626 287 
Q 669 381 669 647 
L 669 1750 
Q 669 2216 641 2353 
Q 619 2453 572 2492 
Q 525 2531 444 2531 
Q 356 2531 231 2484 
L 188 2597 
L 1050 2947 
L 1188 2947 
z
" transform="scale(0.015625)"/>
       <path id="TimesNewRomanPSMT-6e" d="M 1034 2341 
Q 1538 2947 1994 2947 
Q 2228 2947 2397 2830 
Q 2566 2713 2666 2444 
Q 2734 2256 2734 1869 
L 2734 647 
Q 2734 375 2778 278 
Q 2813 200 2889 156 
Q 2966 113 3172 113 
L 3172 0 
L 1756 0 
L 1756 113 
L 1816 113 
Q 2016 113 2095 173 
Q 2175 234 2206 353 
Q 2219 400 2219 647 
L 2219 1819 
Q 2219 2209 2117 2386 
Q 2016 2563 1775 2563 
Q 1403 2563 1034 2156 
L 1034 647 
Q 1034 356 1069 288 
Q 1113 197 1189 155 
Q 1266 113 1500 113 
L 1500 0 
L 84 0 
L 84 113 
L 147 113 
Q 366 113 442 223 
Q 519 334 519 647 
L 519 1709 
Q 519 2225 495 2337 
Q 472 2450 423 2490 
Q 375 2531 294 2531 
Q 206 2531 84 2484 
L 38 2597 
L 900 2947 
L 1034 2947 
L 1034 2341 
z
" transform="scale(0.015625)"/>
       <path id="TimesNewRomanPSMT-67" d="M 966 1044 
Q 703 1172 562 1401 
Q 422 1631 422 1909 
Q 422 2334 742 2640 
Q 1063 2947 1563 2947 
Q 1972 2947 2272 2747 
L 2878 2747 
Q 3013 2747 3034 2739 
Q 3056 2731 3066 2713 
Q 3084 2684 3084 2613 
Q 3084 2531 3069 2500 
Q 3059 2484 3036 2475 
Q 3013 2466 2878 2466 
L 2506 2466 
Q 2681 2241 2681 1891 
Q 2681 1491 2375 1206 
Q 2069 922 1553 922 
Q 1341 922 1119 984 
Q 981 866 932 777 
Q 884 688 884 625 
Q 884 572 936 522 
Q 988 472 1138 450 
Q 1225 438 1575 428 
Q 2219 413 2409 384 
Q 2700 344 2873 169 
Q 3047 -6 3047 -263 
Q 3047 -616 2716 -925 
Q 2228 -1381 1444 -1381 
Q 841 -1381 425 -1109 
Q 191 -953 191 -784 
Q 191 -709 225 -634 
Q 278 -519 444 -313 
Q 466 -284 763 25 
Q 600 122 533 198 
Q 466 275 466 372 
Q 466 481 555 628 
Q 644 775 966 1044 
z
M 1509 2797 
Q 1278 2797 1122 2612 
Q 966 2428 966 2047 
Q 966 1553 1178 1281 
Q 1341 1075 1591 1075 
Q 1828 1075 1981 1253 
Q 2134 1431 2134 1813 
Q 2134 2309 1919 2591 
Q 1759 2797 1509 2797 
z
M 934 0 
Q 788 -159 713 -296 
Q 638 -434 638 -550 
Q 638 -700 819 -813 
Q 1131 -1006 1722 -1006 
Q 2284 -1006 2551 -807 
Q 2819 -609 2819 -384 
Q 2819 -222 2659 -153 
Q 2497 -84 2016 -72 
Q 1313 -53 934 0 
z
" transform="scale(0.015625)"/>
      </defs>
      <use xlink:href="#TimesNewRomanPSMT-54"/>
      <use xlink:href="#TimesNewRomanPSMT-72" transform="translate(57.583984 0)"/>
      <use xlink:href="#TimesNewRomanPSMT-61" transform="translate(90.884766 0)"/>
      <use xlink:href="#TimesNewRomanPSMT-69" transform="translate(135.269531 0)"/>
      <use xlink:href="#TimesNewRomanPSMT-6e" transform="translate(163.052734 0)"/>
      <use xlink:href="#TimesNewRomanPSMT-69" transform="translate(213.052734 0)"/>
      <use xlink:href="#TimesNewRomanPSMT-6e" transform="translate(240.835938 0)"/>
      <use xlink:href="#TimesNewRomanPSMT-67" transform="translate(290.835938 0)"/>
      <use xlink:href="#TimesNewRomanPSMT-20" transform="translate(340.835938 0)"/>
      <use xlink:href="#TimesNewRomanPSMT-6c" transform="translate(365.835938 0)"/>
      <use xlink:href="#TimesNewRomanPSMT-6f" transform="translate(393.619141 0)"/>
      <use xlink:href="#TimesNewRomanPSMT-73" transform="translate(443.619141 0)"/>
      <use xlink:href="#TimesNewRomanPSMT-73" transform="translate(482.535156 0)"/>
     </g>
    </g>
    <g id="line2d_20">
     <path d="M 277.2585 104.178687 
L 299.2585 104.178687 
L 321.2585 104.178687 
" style="fill: none; stroke: #008000; stroke-width: 1.5; stroke-linecap: square"/>
    </g>
    <g id="text_13">
     <!-- Validation loss -->
     <g transform="translate(338.8585 111.878687) scale(0.22 -0.22)">
      <defs>
       <path id="TimesNewRomanPSMT-56" d="M 4544 4238 
L 4544 4122 
Q 4319 4081 4203 3978 
Q 4038 3825 3909 3509 
L 2431 -97 
L 2316 -97 
L 728 3556 
Q 606 3838 556 3900 
Q 478 3997 364 4051 
Q 250 4106 56 4122 
L 56 4238 
L 1788 4238 
L 1788 4122 
Q 1494 4094 1406 4022 
Q 1319 3950 1319 3838 
Q 1319 3681 1463 3350 
L 2541 866 
L 3541 3319 
Q 3688 3681 3688 3822 
Q 3688 3913 3597 3995 
Q 3506 4078 3291 4113 
Q 3275 4116 3238 4122 
L 3238 4238 
L 4544 4238 
z
" transform="scale(0.015625)"/>
      </defs>
      <use xlink:href="#TimesNewRomanPSMT-56"/>
      <use xlink:href="#TimesNewRomanPSMT-61" transform="translate(61.091797 0)"/>
      <use xlink:href="#TimesNewRomanPSMT-6c" transform="translate(105.476562 0)"/>
      <use xlink:href="#TimesNewRomanPSMT-69" transform="translate(133.259766 0)"/>
      <use xlink:href="#TimesNewRomanPSMT-64" transform="translate(161.042969 0)"/>
      <use xlink:href="#TimesNewRomanPSMT-61" transform="translate(211.042969 0)"/>
      <use xlink:href="#TimesNewRomanPSMT-74" transform="translate(255.427734 0)"/>
      <use xlink:href="#TimesNewRomanPSMT-69" transform="translate(283.210938 0)"/>
      <use xlink:href="#TimesNewRomanPSMT-6f" transform="translate(310.994141 0)"/>
      <use xlink:href="#TimesNewRomanPSMT-6e" transform="translate(360.994141 0)"/>
      <use xlink:href="#TimesNewRomanPSMT-20" transform="translate(410.994141 0)"/>
      <use xlink:href="#TimesNewRomanPSMT-6c" transform="translate(435.994141 0)"/>
      <use xlink:href="#TimesNewRomanPSMT-6f" transform="translate(463.777344 0)"/>
      <use xlink:href="#TimesNewRomanPSMT-73" transform="translate(513.777344 0)"/>
      <use xlink:href="#TimesNewRomanPSMT-73" transform="translate(552.693359 0)"/>
     </g>
    </g>
   </g>
  </g>
 </g>
 <defs>
  <clipPath id="p62c965bce1">
   <rect x="257.4585" y="45.5315" width="357.12" height="266.112"/>
  </clipPath>
 </defs>
</svg>
