<?xml version="1.0" encoding="utf-8" standalone="no"?>
<!DOCTYPE svg PUBLIC "-//W3C//DTD SVG 1.1//EN"
  "http://www.w3.org/Graphics/SVG/1.1/DTD/svg11.dtd">
<svg xmlns:xlink="http://www.w3.org/1999/xlink" width="1097.7735pt" height="383.265687pt" viewBox="0 0 1097.7735 383.265687" xmlns="http://www.w3.org/2000/svg" version="1.1">
 <metadata>
  <rdf:RDF xmlns:dc="http://purl.org/dc/elements/1.1/" xmlns:cc="http://creativecommons.org/ns#" xmlns:rdf="http://www.w3.org/1999/02/22-rdf-syntax-ns#">
   <cc:Work>
    <dc:type rdf:resource="http://purl.org/dc/dcmitype/StillImage"/>
    <dc:date>2025-05-08T17:11:50.474152</dc:date>
    <dc:format>image/svg+xml</dc:format>
    <dc:creator>
     <cc:Agent>
      <dc:title>Matplotlib v3.10.1, https://matplotlib.org/</dc:title>
     </cc:Agent>
    </dc:creator>
   </cc:Work>
  </rdf:RDF>
 </metadata>
 <defs>
  <style type="text/css">*{stroke-linejoin: round; stroke-linecap: butt}</style>
 </defs>
 <g id="figure_1">
  <g id="patch_1">
   <path d="M 0 383.265687 
L 1097.7735 383.265687 
L 1097.7735 0 
L 0 0 
z
" style="fill: #ffffff"/>
  </g>
  <g id="axes_1">
   <g id="patch_2">
    <path d="M 370.32675 311.6435 
L 727.44675 311.6435 
L 727.44675 45.5315 
L 370.32675 45.5315 
z
" style="fill: #ffffff"/>
   </g>
   <g id="matplotlib.axis_1">
    <g id="xtick_1">
     <g id="line2d_1">
      <path d="M 370.32675 311.6435 
L 370.32675 45.5315 
" clip-path="url(#pa1d99bcf19)" style="fill: none; stroke: #b0b0b0; stroke-opacity: 0.3; stroke-width: 0.8; stroke-linecap: square"/>
     </g>
     <g id="line2d_2">
      <defs>
       <path id="md8a12bda07" d="M 0 0 
L 0 3.5 
" style="stroke: #000000; stroke-width: 0.8"/>
      </defs>
      <g>
       <use xlink:href="#md8a12bda07" x="370.32675" y="311.6435" style="stroke: #000000; stroke-width: 0.8"/>
      </g>
     </g>
     <g id="text_1">
      <!-- 0.0 -->
      <g transform="translate(356.57675 333.91975) scale(0.22 -0.22)">
       <defs>
        <path id="TimesNewRomanPSMT-30" d="M 231 2094 
Q 231 2819 450 3342 
Q 669 3866 1031 4122 
Q 1313 4325 1613 4325 
Q 2100 4325 2488 3828 
Q 2972 3213 2972 2159 
Q 2972 1422 2759 906 
Q 2547 391 2217 158 
Q 1888 -75 1581 -75 
Q 975 -75 572 641 
Q 231 1244 231 2094 
z
M 844 2016 
Q 844 1141 1059 588 
Q 1238 122 1591 122 
Q 1759 122 1940 273 
Q 2122 425 2216 781 
Q 2359 1319 2359 2297 
Q 2359 3022 2209 3506 
Q 2097 3866 1919 4016 
Q 1791 4119 1609 4119 
Q 1397 4119 1231 3928 
Q 1006 3669 925 3112 
Q 844 2556 844 2016 
z
" transform="scale(0.015625)"/>
        <path id="TimesNewRomanPSMT-2e" d="M 800 606 
Q 947 606 1047 504 
Q 1147 403 1147 259 
Q 1147 116 1045 14 
Q 944 -88 800 -88 
Q 656 -88 554 14 
Q 453 116 453 259 
Q 453 406 554 506 
Q 656 606 800 606 
z
" transform="scale(0.015625)"/>
       </defs>
       <use xlink:href="#TimesNewRomanPSMT-30"/>
       <use xlink:href="#TimesNewRomanPSMT-2e" transform="translate(50 0)"/>
       <use xlink:href="#TimesNewRomanPSMT-30" transform="translate(75 0)"/>
      </g>
     </g>
    </g>
    <g id="xtick_2">
     <g id="line2d_3">
      <path d="M 489.113998 311.6435 
L 489.113998 45.5315 
" clip-path="url(#pa1d99bcf19)" style="fill: none; stroke: #b0b0b0; stroke-opacity: 0.3; stroke-width: 0.8; stroke-linecap: square"/>
     </g>
     <g id="line2d_4">
      <g>
       <use xlink:href="#md8a12bda07" x="489.113998" y="311.6435" style="stroke: #000000; stroke-width: 0.8"/>
      </g>
     </g>
     <g id="text_2">
      <!-- 0.5 -->
      <g transform="translate(475.363998 333.91975) scale(0.22 -0.22)">
       <defs>
        <path id="TimesNewRomanPSMT-35" d="M 2778 4238 
L 2534 3706 
L 1259 3706 
L 981 3138 
Q 1809 3016 2294 2522 
Q 2709 2097 2709 1522 
Q 2709 1188 2573 903 
Q 2438 619 2231 419 
Q 2025 219 1772 97 
Q 1413 -75 1034 -75 
Q 653 -75 479 54 
Q 306 184 306 341 
Q 306 428 378 495 
Q 450 563 559 563 
Q 641 563 702 538 
Q 763 513 909 409 
Q 1144 247 1384 247 
Q 1750 247 2026 523 
Q 2303 800 2303 1197 
Q 2303 1581 2056 1914 
Q 1809 2247 1375 2428 
Q 1034 2569 447 2591 
L 1259 4238 
L 2778 4238 
z
" transform="scale(0.015625)"/>
       </defs>
       <use xlink:href="#TimesNewRomanPSMT-30"/>
       <use xlink:href="#TimesNewRomanPSMT-2e" transform="translate(50 0)"/>
       <use xlink:href="#TimesNewRomanPSMT-35" transform="translate(75 0)"/>
      </g>
     </g>
    </g>
    <g id="xtick_3">
     <g id="line2d_5">
      <path d="M 607.901246 311.6435 
L 607.901246 45.5315 
" clip-path="url(#pa1d99bcf19)" style="fill: none; stroke: #b0b0b0; stroke-opacity: 0.3; stroke-width: 0.8; stroke-linecap: square"/>
     </g>
     <g id="line2d_6">
      <g>
       <use xlink:href="#md8a12bda07" x="607.901246" y="311.6435" style="stroke: #000000; stroke-width: 0.8"/>
      </g>
     </g>
     <g id="text_3">
      <!-- 1.0 -->
      <g transform="translate(594.151246 333.91975) scale(0.22 -0.22)">
       <defs>
        <path id="TimesNewRomanPSMT-31" d="M 750 3822 
L 1781 4325 
L 1884 4325 
L 1884 747 
Q 1884 391 1914 303 
Q 1944 216 2037 169 
Q 2131 122 2419 116 
L 2419 0 
L 825 0 
L 825 116 
Q 1125 122 1212 167 
Q 1300 213 1334 289 
Q 1369 366 1369 747 
L 1369 3034 
Q 1369 3497 1338 3628 
Q 1316 3728 1258 3775 
Q 1200 3822 1119 3822 
Q 1003 3822 797 3725 
L 750 3822 
z
" transform="scale(0.015625)"/>
       </defs>
       <use xlink:href="#TimesNewRomanPSMT-31"/>
       <use xlink:href="#TimesNewRomanPSMT-2e" transform="translate(50 0)"/>
       <use xlink:href="#TimesNewRomanPSMT-30" transform="translate(75 0)"/>
      </g>
     </g>
    </g>
    <g id="xtick_4">
     <g id="line2d_7">
      <path d="M 726.688494 311.6435 
L 726.688494 45.5315 
" clip-path="url(#pa1d99bcf19)" style="fill: none; stroke: #b0b0b0; stroke-opacity: 0.3; stroke-width: 0.8; stroke-linecap: square"/>
     </g>
     <g id="line2d_8">
      <g>
       <use xlink:href="#md8a12bda07" x="726.688494" y="311.6435" style="stroke: #000000; stroke-width: 0.8"/>
      </g>
     </g>
     <g id="text_4">
      <!-- 1.5 -->
      <g transform="translate(712.938494 333.91975) scale(0.22 -0.22)">
       <use xlink:href="#TimesNewRomanPSMT-31"/>
       <use xlink:href="#TimesNewRomanPSMT-2e" transform="translate(50 0)"/>
       <use xlink:href="#TimesNewRomanPSMT-35" transform="translate(75 0)"/>
      </g>
     </g>
    </g>
    <g id="text_5">
     <!-- $\kappa  = \frac{ln(n)}{ln(d)}$ -->
     <g transform="translate(516.87675 364.185687) scale(0.22 -0.22)">
      <defs>
       <path id="STIXGeneral-Italic-3ba" d="M 979 1440 
L 998 1446 
Q 1850 2541 2464 2790 
Q 2547 2822 2630 2822 
Q 2797 2822 2886 2736 
Q 2976 2650 2976 2522 
Q 2976 2387 2893 2307 
Q 2810 2227 2682 2227 
Q 2605 2227 2502 2288 
Q 2400 2349 2336 2349 
Q 2170 2349 1990 2205 
Q 1811 2061 1414 1645 
L 2042 544 
Q 2202 262 2310 182 
Q 2419 102 2624 102 
L 2624 0 
Q 2374 -83 2182 -83 
Q 1786 -83 1555 326 
L 960 1350 
L 576 0 
L 90 0 
L 640 1978 
Q 730 2317 730 2406 
Q 730 2560 518 2560 
L 339 2560 
L 339 2650 
Q 678 2694 1306 2822 
L 1325 2803 
L 979 1440 
z
" transform="scale(0.015625)"/>
       <path id="STIXGeneral-Regular-3d" d="M 4077 2048 
L 307 2048 
L 307 2470 
L 4077 2470 
L 4077 2048 
z
M 4077 768 
L 307 768 
L 307 1190 
L 4077 1190 
L 4077 768 
z
" transform="scale(0.015625)"/>
       <path id="STIXGeneral-Italic-6c" d="M 1786 4339 
L 806 595 
Q 755 410 755 320 
Q 755 205 864 205 
Q 1037 205 1293 570 
L 1453 794 
L 1542 730 
Q 1254 275 1046 102 
Q 838 -70 576 -70 
Q 262 -70 262 288 
Q 262 397 288 480 
L 1165 3834 
Q 1184 3898 1184 3955 
Q 1184 4096 870 4096 
L 755 4096 
L 755 4198 
Q 1203 4250 1747 4371 
L 1786 4339 
z
" transform="scale(0.015625)"/>
       <path id="STIXGeneral-Italic-6e" d="M 2944 749 
L 3034 666 
Q 2707 218 2534 80 
Q 2362 -58 2138 -58 
Q 2010 -58 1923 28 
Q 1837 115 1837 288 
Q 1837 390 1939 768 
L 2221 1805 
Q 2310 2150 2310 2310 
Q 2310 2496 2157 2496 
Q 1971 2496 1750 2275 
Q 1530 2054 1210 1587 
Q 998 1274 899 1024 
Q 800 774 570 0 
L 90 0 
L 704 2240 
Q 717 2304 717 2349 
Q 717 2445 630 2480 
Q 544 2515 301 2522 
L 301 2624 
Q 550 2675 857 2729 
Q 1165 2784 1338 2822 
L 1363 2810 
L 934 1414 
Q 1408 2170 1753 2496 
Q 2099 2822 2413 2822 
Q 2611 2822 2720 2716 
Q 2829 2611 2829 2432 
Q 2829 2272 2765 2048 
L 2406 749 
Q 2317 429 2317 358 
Q 2317 243 2419 243 
Q 2541 243 2810 582 
Q 2854 634 2944 749 
z
" transform="scale(0.015625)"/>
       <path id="STIXGeneral-Regular-28" d="M 1946 -1030 
L 1869 -1133 
Q 1126 -710 716 32 
Q 307 774 307 1613 
Q 307 3386 1888 4326 
L 1946 4224 
Q 1293 3667 1075 3126 
Q 858 2586 858 1632 
Q 858 685 1082 96 
Q 1306 -493 1946 -1030 
z
" transform="scale(0.015625)"/>
       <path id="STIXGeneral-Regular-29" d="M 186 4224 
L 262 4326 
Q 992 3891 1408 3148 
Q 1824 2406 1824 1581 
Q 1824 -166 243 -1133 
L 186 -1030 
Q 845 -486 1059 54 
Q 1274 595 1274 1562 
Q 1274 2534 1059 3120 
Q 845 3706 186 4224 
z
" transform="scale(0.015625)"/>
       <path id="STIXGeneral-Italic-64" d="M 3334 4371 
L 3373 4333 
L 3123 3360 
L 2739 1958 
Q 2323 429 2323 384 
Q 2323 256 2438 256 
Q 2522 256 2614 336 
Q 2707 416 2963 710 
L 3040 646 
Q 2547 -83 2099 -83 
Q 1978 -83 1907 -6 
Q 1837 70 1837 205 
Q 1837 397 1920 774 
Q 1645 307 1379 118 
Q 1114 -70 781 -70 
Q 461 -70 278 125 
Q 96 320 96 678 
Q 96 1440 713 2131 
Q 1331 2822 1965 2822 
Q 2163 2822 2256 2732 
Q 2349 2643 2381 2451 
L 2387 2451 
L 2675 3494 
Q 2765 3808 2765 3949 
Q 2765 4051 2694 4076 
Q 2624 4102 2355 4115 
L 2355 4224 
Q 2848 4269 3334 4371 
z
M 2278 2310 
Q 2278 2477 2185 2576 
Q 2093 2675 1978 2675 
Q 1677 2675 1395 2381 
Q 1075 2042 864 1571 
Q 653 1101 653 704 
Q 653 486 752 361 
Q 851 237 1024 237 
Q 1312 237 1606 550 
Q 1901 864 2089 1350 
Q 2278 1837 2278 2310 
z
" transform="scale(0.015625)"/>
      </defs>
      <use xlink:href="#STIXGeneral-Italic-3ba" transform="translate(0 0.003125)"/>
      <use xlink:href="#STIXGeneral-Regular-3d" transform="translate(58.83999 0.003125)"/>
      <use xlink:href="#STIXGeneral-Italic-6c" transform="translate(141.779971 50.192188) scale(0.7)"/>
      <use xlink:href="#STIXGeneral-Italic-6e" transform="translate(161.239963 50.192188) scale(0.7)"/>
      <use xlink:href="#STIXGeneral-Regular-28" transform="translate(196.239952 50.192188) scale(0.7)"/>
      <use xlink:href="#STIXGeneral-Italic-6e" transform="translate(219.549944 50.192188) scale(0.7)"/>
      <use xlink:href="#STIXGeneral-Regular-29" transform="translate(254.549933 50.192188) scale(0.7)"/>
      <use xlink:href="#STIXGeneral-Italic-6c" transform="translate(141.779971 -41.257812) scale(0.7)"/>
      <use xlink:href="#STIXGeneral-Italic-6e" transform="translate(161.239963 -41.257812) scale(0.7)"/>
      <use xlink:href="#STIXGeneral-Regular-28" transform="translate(196.239952 -41.257812) scale(0.7)"/>
      <use xlink:href="#STIXGeneral-Italic-64" transform="translate(219.549944 -41.257812) scale(0.7)"/>
      <use xlink:href="#STIXGeneral-Regular-29" transform="translate(254.549933 -41.257812) scale(0.7)"/>
      <path d="M 141.779971 12.8 
L 141.779971 19.05 
L 277.859924 19.05 
L 277.859924 12.8 
L 141.779971 12.8 
z
"/>
     </g>
    </g>
   </g>
   <g id="matplotlib.axis_2">
    <g id="ytick_1">
     <g id="line2d_9">
      <path d="M 370.32675 311.6435 
L 727.44675 311.6435 
" clip-path="url(#pa1d99bcf19)" style="fill: none; stroke: #b0b0b0; stroke-opacity: 0.3; stroke-width: 0.8; stroke-linecap: square"/>
     </g>
     <g id="line2d_10">
      <defs>
       <path id="m8ac2c603b5" d="M 0 0 
L -3.5 0 
" style="stroke: #000000; stroke-width: 0.8"/>
      </defs>
      <g>
       <use xlink:href="#m8ac2c603b5" x="370.32675" y="311.6435" style="stroke: #000000; stroke-width: 0.8"/>
      </g>
     </g>
     <g id="text_6">
      <!-- 0.0 -->
      <g transform="translate(335.82675 319.281625) scale(0.22 -0.22)">
       <use xlink:href="#TimesNewRomanPSMT-30"/>
       <use xlink:href="#TimesNewRomanPSMT-2e" transform="translate(50 0)"/>
       <use xlink:href="#TimesNewRomanPSMT-30" transform="translate(75 0)"/>
      </g>
     </g>
    </g>
    <g id="ytick_2">
     <g id="line2d_11">
      <path d="M 370.32675 285.0323 
L 727.44675 285.0323 
" clip-path="url(#pa1d99bcf19)" style="fill: none; stroke: #b0b0b0; stroke-opacity: 0.3; stroke-width: 0.8; stroke-linecap: square"/>
     </g>
     <g id="line2d_12">
      <g>
       <use xlink:href="#m8ac2c603b5" x="370.32675" y="285.0323" style="stroke: #000000; stroke-width: 0.8"/>
      </g>
     </g>
     <g id="text_7">
      <!-- 0.1 -->
      <g transform="translate(335.82675 292.670425) scale(0.22 -0.22)">
       <use xlink:href="#TimesNewRomanPSMT-30"/>
       <use xlink:href="#TimesNewRomanPSMT-2e" transform="translate(50 0)"/>
       <use xlink:href="#TimesNewRomanPSMT-31" transform="translate(75 0)"/>
      </g>
     </g>
    </g>
    <g id="ytick_3">
     <g id="line2d_13">
      <path d="M 370.32675 258.4211 
L 727.44675 258.4211 
" clip-path="url(#pa1d99bcf19)" style="fill: none; stroke: #b0b0b0; stroke-opacity: 0.3; stroke-width: 0.8; stroke-linecap: square"/>
     </g>
     <g id="line2d_14">
      <g>
       <use xlink:href="#m8ac2c603b5" x="370.32675" y="258.4211" style="stroke: #000000; stroke-width: 0.8"/>
      </g>
     </g>
     <g id="text_8">
      <!-- 0.2 -->
      <g transform="translate(335.82675 266.059225) scale(0.22 -0.22)">
       <defs>
        <path id="TimesNewRomanPSMT-32" d="M 2934 816 
L 2638 0 
L 138 0 
L 138 116 
Q 1241 1122 1691 1759 
Q 2141 2397 2141 2925 
Q 2141 3328 1894 3587 
Q 1647 3847 1303 3847 
Q 991 3847 742 3664 
Q 494 3481 375 3128 
L 259 3128 
Q 338 3706 661 4015 
Q 984 4325 1469 4325 
Q 1984 4325 2329 3994 
Q 2675 3663 2675 3213 
Q 2675 2891 2525 2569 
Q 2294 2063 1775 1497 
Q 997 647 803 472 
L 1909 472 
Q 2247 472 2383 497 
Q 2519 522 2628 598 
Q 2738 675 2819 816 
L 2934 816 
z
" transform="scale(0.015625)"/>
       </defs>
       <use xlink:href="#TimesNewRomanPSMT-30"/>
       <use xlink:href="#TimesNewRomanPSMT-2e" transform="translate(50 0)"/>
       <use xlink:href="#TimesNewRomanPSMT-32" transform="translate(75 0)"/>
      </g>
     </g>
    </g>
    <g id="ytick_4">
     <g id="line2d_15">
      <path d="M 370.32675 231.8099 
L 727.44675 231.8099 
" clip-path="url(#pa1d99bcf19)" style="fill: none; stroke: #b0b0b0; stroke-opacity: 0.3; stroke-width: 0.8; stroke-linecap: square"/>
     </g>
     <g id="line2d_16">
      <g>
       <use xlink:href="#m8ac2c603b5" x="370.32675" y="231.8099" style="stroke: #000000; stroke-width: 0.8"/>
      </g>
     </g>
     <g id="text_9">
      <!-- 0.3 -->
      <g transform="translate(335.82675 239.448025) scale(0.22 -0.22)">
       <defs>
        <path id="TimesNewRomanPSMT-33" d="M 325 3431 
Q 506 3859 782 4092 
Q 1059 4325 1472 4325 
Q 1981 4325 2253 3994 
Q 2459 3747 2459 3466 
Q 2459 3003 1878 2509 
Q 2269 2356 2469 2072 
Q 2669 1788 2669 1403 
Q 2669 853 2319 450 
Q 1863 -75 997 -75 
Q 569 -75 414 31 
Q 259 138 259 259 
Q 259 350 332 419 
Q 406 488 509 488 
Q 588 488 669 463 
Q 722 447 909 348 
Q 1097 250 1169 231 
Q 1284 197 1416 197 
Q 1734 197 1970 444 
Q 2206 691 2206 1028 
Q 2206 1275 2097 1509 
Q 2016 1684 1919 1775 
Q 1784 1900 1550 2001 
Q 1316 2103 1072 2103 
L 972 2103 
L 972 2197 
Q 1219 2228 1467 2375 
Q 1716 2522 1828 2728 
Q 1941 2934 1941 3181 
Q 1941 3503 1739 3701 
Q 1538 3900 1238 3900 
Q 753 3900 428 3381 
L 325 3431 
z
" transform="scale(0.015625)"/>
       </defs>
       <use xlink:href="#TimesNewRomanPSMT-30"/>
       <use xlink:href="#TimesNewRomanPSMT-2e" transform="translate(50 0)"/>
       <use xlink:href="#TimesNewRomanPSMT-33" transform="translate(75 0)"/>
      </g>
     </g>
    </g>
    <g id="ytick_5">
     <g id="line2d_17">
      <path d="M 370.32675 205.1987 
L 727.44675 205.1987 
" clip-path="url(#pa1d99bcf19)" style="fill: none; stroke: #b0b0b0; stroke-opacity: 0.3; stroke-width: 0.8; stroke-linecap: square"/>
     </g>
     <g id="line2d_18">
      <g>
       <use xlink:href="#m8ac2c603b5" x="370.32675" y="205.1987" style="stroke: #000000; stroke-width: 0.8"/>
      </g>
     </g>
     <g id="text_10">
      <!-- 0.4 -->
      <g transform="translate(335.82675 212.836825) scale(0.22 -0.22)">
       <defs>
        <path id="TimesNewRomanPSMT-34" d="M 2978 1563 
L 2978 1119 
L 2409 1119 
L 2409 0 
L 1894 0 
L 1894 1119 
L 100 1119 
L 100 1519 
L 2066 4325 
L 2409 4325 
L 2409 1563 
L 2978 1563 
z
M 1894 1563 
L 1894 3666 
L 406 1563 
L 1894 1563 
z
" transform="scale(0.015625)"/>
       </defs>
       <use xlink:href="#TimesNewRomanPSMT-30"/>
       <use xlink:href="#TimesNewRomanPSMT-2e" transform="translate(50 0)"/>
       <use xlink:href="#TimesNewRomanPSMT-34" transform="translate(75 0)"/>
      </g>
     </g>
    </g>
    <g id="ytick_6">
     <g id="line2d_19">
      <path d="M 370.32675 178.5875 
L 727.44675 178.5875 
" clip-path="url(#pa1d99bcf19)" style="fill: none; stroke: #b0b0b0; stroke-opacity: 0.3; stroke-width: 0.8; stroke-linecap: square"/>
     </g>
     <g id="line2d_20">
      <g>
       <use xlink:href="#m8ac2c603b5" x="370.32675" y="178.5875" style="stroke: #000000; stroke-width: 0.8"/>
      </g>
     </g>
     <g id="text_11">
      <!-- 0.5 -->
      <g transform="translate(335.82675 186.225625) scale(0.22 -0.22)">
       <use xlink:href="#TimesNewRomanPSMT-30"/>
       <use xlink:href="#TimesNewRomanPSMT-2e" transform="translate(50 0)"/>
       <use xlink:href="#TimesNewRomanPSMT-35" transform="translate(75 0)"/>
      </g>
     </g>
    </g>
    <g id="ytick_7">
     <g id="line2d_21">
      <path d="M 370.32675 151.9763 
L 727.44675 151.9763 
" clip-path="url(#pa1d99bcf19)" style="fill: none; stroke: #b0b0b0; stroke-opacity: 0.3; stroke-width: 0.8; stroke-linecap: square"/>
     </g>
     <g id="line2d_22">
      <g>
       <use xlink:href="#m8ac2c603b5" x="370.32675" y="151.9763" style="stroke: #000000; stroke-width: 0.8"/>
      </g>
     </g>
     <g id="text_12">
      <!-- 0.6 -->
      <g transform="translate(335.82675 159.614425) scale(0.22 -0.22)">
       <defs>
        <path id="TimesNewRomanPSMT-36" d="M 2869 4325 
L 2869 4209 
Q 2456 4169 2195 4045 
Q 1934 3922 1679 3669 
Q 1425 3416 1258 3105 
Q 1091 2794 978 2366 
Q 1428 2675 1881 2675 
Q 2316 2675 2634 2325 
Q 2953 1975 2953 1425 
Q 2953 894 2631 456 
Q 2244 -75 1606 -75 
Q 1172 -75 869 213 
Q 275 772 275 1663 
Q 275 2231 503 2743 
Q 731 3256 1154 3653 
Q 1578 4050 1965 4187 
Q 2353 4325 2688 4325 
L 2869 4325 
z
M 925 2138 
Q 869 1716 869 1456 
Q 869 1156 980 804 
Q 1091 453 1309 247 
Q 1469 100 1697 100 
Q 1969 100 2183 356 
Q 2397 613 2397 1088 
Q 2397 1622 2184 2012 
Q 1972 2403 1581 2403 
Q 1463 2403 1327 2353 
Q 1191 2303 925 2138 
z
" transform="scale(0.015625)"/>
       </defs>
       <use xlink:href="#TimesNewRomanPSMT-30"/>
       <use xlink:href="#TimesNewRomanPSMT-2e" transform="translate(50 0)"/>
       <use xlink:href="#TimesNewRomanPSMT-36" transform="translate(75 0)"/>
      </g>
     </g>
    </g>
    <g id="ytick_8">
     <g id="line2d_23">
      <path d="M 370.32675 125.3651 
L 727.44675 125.3651 
" clip-path="url(#pa1d99bcf19)" style="fill: none; stroke: #b0b0b0; stroke-opacity: 0.3; stroke-width: 0.8; stroke-linecap: square"/>
     </g>
     <g id="line2d_24">
      <g>
       <use xlink:href="#m8ac2c603b5" x="370.32675" y="125.3651" style="stroke: #000000; stroke-width: 0.8"/>
      </g>
     </g>
     <g id="text_13">
      <!-- 0.7 -->
      <g transform="translate(335.82675 133.003225) scale(0.22 -0.22)">
       <defs>
        <path id="TimesNewRomanPSMT-37" d="M 644 4238 
L 2916 4238 
L 2916 4119 
L 1503 -88 
L 1153 -88 
L 2419 3728 
L 1253 3728 
Q 900 3728 750 3644 
Q 488 3500 328 3200 
L 238 3234 
L 644 4238 
z
" transform="scale(0.015625)"/>
       </defs>
       <use xlink:href="#TimesNewRomanPSMT-30"/>
       <use xlink:href="#TimesNewRomanPSMT-2e" transform="translate(50 0)"/>
       <use xlink:href="#TimesNewRomanPSMT-37" transform="translate(75 0)"/>
      </g>
     </g>
    </g>
    <g id="ytick_9">
     <g id="line2d_25">
      <path d="M 370.32675 98.7539 
L 727.44675 98.7539 
" clip-path="url(#pa1d99bcf19)" style="fill: none; stroke: #b0b0b0; stroke-opacity: 0.3; stroke-width: 0.8; stroke-linecap: square"/>
     </g>
     <g id="line2d_26">
      <g>
       <use xlink:href="#m8ac2c603b5" x="370.32675" y="98.7539" style="stroke: #000000; stroke-width: 0.8"/>
      </g>
     </g>
     <g id="text_14">
      <!-- 0.8 -->
      <g transform="translate(335.82675 106.392025) scale(0.22 -0.22)">
       <defs>
        <path id="TimesNewRomanPSMT-38" d="M 1228 2134 
Q 725 2547 579 2797 
Q 434 3047 434 3316 
Q 434 3728 753 4026 
Q 1072 4325 1600 4325 
Q 2113 4325 2425 4047 
Q 2738 3769 2738 3413 
Q 2738 3175 2569 2928 
Q 2400 2681 1866 2347 
Q 2416 1922 2594 1678 
Q 2831 1359 2831 1006 
Q 2831 559 2490 242 
Q 2150 -75 1597 -75 
Q 994 -75 656 303 
Q 388 606 388 966 
Q 388 1247 577 1523 
Q 766 1800 1228 2134 
z
M 1719 2469 
Q 2094 2806 2194 3001 
Q 2294 3197 2294 3444 
Q 2294 3772 2109 3958 
Q 1925 4144 1606 4144 
Q 1288 4144 1088 3959 
Q 888 3775 888 3528 
Q 888 3366 970 3203 
Q 1053 3041 1206 2894 
L 1719 2469 
z
M 1375 2016 
Q 1116 1797 991 1539 
Q 866 1281 866 981 
Q 866 578 1086 336 
Q 1306 94 1647 94 
Q 1984 94 2187 284 
Q 2391 475 2391 747 
Q 2391 972 2272 1150 
Q 2050 1481 1375 2016 
z
" transform="scale(0.015625)"/>
       </defs>
       <use xlink:href="#TimesNewRomanPSMT-30"/>
       <use xlink:href="#TimesNewRomanPSMT-2e" transform="translate(50 0)"/>
       <use xlink:href="#TimesNewRomanPSMT-38" transform="translate(75 0)"/>
      </g>
     </g>
    </g>
    <g id="ytick_10">
     <g id="line2d_27">
      <path d="M 370.32675 72.1427 
L 727.44675 72.1427 
" clip-path="url(#pa1d99bcf19)" style="fill: none; stroke: #b0b0b0; stroke-opacity: 0.3; stroke-width: 0.8; stroke-linecap: square"/>
     </g>
     <g id="line2d_28">
      <g>
       <use xlink:href="#m8ac2c603b5" x="370.32675" y="72.1427" style="stroke: #000000; stroke-width: 0.8"/>
      </g>
     </g>
     <g id="text_15">
      <!-- 0.9 -->
      <g transform="translate(335.82675 79.780825) scale(0.22 -0.22)">
       <defs>
        <path id="TimesNewRomanPSMT-39" d="M 338 -88 
L 338 28 
Q 744 34 1094 217 
Q 1444 400 1770 856 
Q 2097 1313 2225 1859 
Q 1734 1544 1338 1544 
Q 891 1544 572 1889 
Q 253 2234 253 2806 
Q 253 3363 572 3797 
Q 956 4325 1575 4325 
Q 2097 4325 2469 3894 
Q 2925 3359 2925 2575 
Q 2925 1869 2578 1258 
Q 2231 647 1613 244 
Q 1109 -88 516 -88 
L 338 -88 
z
M 2275 2091 
Q 2331 2497 2331 2741 
Q 2331 3044 2228 3395 
Q 2125 3747 1936 3934 
Q 1747 4122 1506 4122 
Q 1228 4122 1018 3872 
Q 809 3622 809 3128 
Q 809 2469 1088 2097 
Q 1291 1828 1588 1828 
Q 1731 1828 1928 1897 
Q 2125 1966 2275 2091 
z
" transform="scale(0.015625)"/>
       </defs>
       <use xlink:href="#TimesNewRomanPSMT-30"/>
       <use xlink:href="#TimesNewRomanPSMT-2e" transform="translate(50 0)"/>
       <use xlink:href="#TimesNewRomanPSMT-39" transform="translate(75 0)"/>
      </g>
     </g>
    </g>
    <g id="ytick_11">
     <g id="line2d_29">
      <path d="M 370.32675 45.5315 
L 727.44675 45.5315 
" clip-path="url(#pa1d99bcf19)" style="fill: none; stroke: #b0b0b0; stroke-opacity: 0.3; stroke-width: 0.8; stroke-linecap: square"/>
     </g>
     <g id="line2d_30">
      <g>
       <use xlink:href="#m8ac2c603b5" x="370.32675" y="45.5315" style="stroke: #000000; stroke-width: 0.8"/>
      </g>
     </g>
     <g id="text_16">
      <!-- 1.0 -->
      <g transform="translate(335.82675 53.169625) scale(0.22 -0.22)">
       <use xlink:href="#TimesNewRomanPSMT-31"/>
       <use xlink:href="#TimesNewRomanPSMT-2e" transform="translate(50 0)"/>
       <use xlink:href="#TimesNewRomanPSMT-30" transform="translate(75 0)"/>
      </g>
     </g>
    </g>
    <g id="text_17">
     <!-- Accuracy -->
     <g transform="translate(327.079563 220.726094) rotate(-90) scale(0.22 -0.22)">
      <defs>
       <path id="TimesNewRomanPSMT-41" d="M 2928 1419 
L 1288 1419 
L 1000 750 
Q 894 503 894 381 
Q 894 284 986 211 
Q 1078 138 1384 116 
L 1384 0 
L 50 0 
L 50 116 
Q 316 163 394 238 
Q 553 388 747 847 
L 2238 4334 
L 2347 4334 
L 3822 809 
Q 4000 384 4145 257 
Q 4291 131 4550 116 
L 4550 0 
L 2878 0 
L 2878 116 
Q 3131 128 3220 200 
Q 3309 272 3309 375 
Q 3309 513 3184 809 
L 2928 1419 
z
M 2841 1650 
L 2122 3363 
L 1384 1650 
L 2841 1650 
z
" transform="scale(0.015625)"/>
       <path id="TimesNewRomanPSMT-63" d="M 2631 1088 
Q 2516 522 2178 217 
Q 1841 -88 1431 -88 
Q 944 -88 581 321 
Q 219 731 219 1428 
Q 219 2103 620 2525 
Q 1022 2947 1584 2947 
Q 2006 2947 2278 2723 
Q 2550 2500 2550 2259 
Q 2550 2141 2473 2067 
Q 2397 1994 2259 1994 
Q 2075 1994 1981 2113 
Q 1928 2178 1911 2362 
Q 1894 2547 1784 2644 
Q 1675 2738 1481 2738 
Q 1169 2738 978 2506 
Q 725 2200 725 1697 
Q 725 1184 976 792 
Q 1228 400 1656 400 
Q 1963 400 2206 609 
Q 2378 753 2541 1131 
L 2631 1088 
z
" transform="scale(0.015625)"/>
       <path id="TimesNewRomanPSMT-75" d="M 2709 2863 
L 2709 1128 
Q 2709 631 2732 520 
Q 2756 409 2807 365 
Q 2859 322 2928 322 
Q 3025 322 3147 375 
L 3191 266 
L 2334 -88 
L 2194 -88 
L 2194 519 
Q 1825 119 1631 15 
Q 1438 -88 1222 -88 
Q 981 -88 804 51 
Q 628 191 559 409 
Q 491 628 491 1028 
L 491 2306 
Q 491 2509 447 2587 
Q 403 2666 317 2708 
Q 231 2750 6 2747 
L 6 2863 
L 1009 2863 
L 1009 947 
Q 1009 547 1148 422 
Q 1288 297 1484 297 
Q 1619 297 1789 381 
Q 1959 466 2194 703 
L 2194 2325 
Q 2194 2569 2105 2655 
Q 2016 2741 1734 2747 
L 1734 2863 
L 2709 2863 
z
" transform="scale(0.015625)"/>
       <path id="TimesNewRomanPSMT-72" d="M 1038 2947 
L 1038 2303 
Q 1397 2947 1775 2947 
Q 1947 2947 2059 2842 
Q 2172 2738 2172 2600 
Q 2172 2478 2090 2393 
Q 2009 2309 1897 2309 
Q 1788 2309 1652 2417 
Q 1516 2525 1450 2525 
Q 1394 2525 1328 2463 
Q 1188 2334 1038 2041 
L 1038 669 
Q 1038 431 1097 309 
Q 1138 225 1241 169 
Q 1344 113 1538 113 
L 1538 0 
L 72 0 
L 72 113 
Q 291 113 397 181 
Q 475 231 506 341 
Q 522 394 522 644 
L 522 1753 
Q 522 2253 501 2348 
Q 481 2444 426 2487 
Q 372 2531 291 2531 
Q 194 2531 72 2484 
L 41 2597 
L 906 2947 
L 1038 2947 
z
" transform="scale(0.015625)"/>
       <path id="TimesNewRomanPSMT-61" d="M 1822 413 
Q 1381 72 1269 19 
Q 1100 -59 909 -59 
Q 613 -59 420 144 
Q 228 347 228 678 
Q 228 888 322 1041 
Q 450 1253 767 1440 
Q 1084 1628 1822 1897 
L 1822 2009 
Q 1822 2438 1686 2597 
Q 1550 2756 1291 2756 
Q 1094 2756 978 2650 
Q 859 2544 859 2406 
L 866 2225 
Q 866 2081 792 2003 
Q 719 1925 600 1925 
Q 484 1925 411 2006 
Q 338 2088 338 2228 
Q 338 2497 613 2722 
Q 888 2947 1384 2947 
Q 1766 2947 2009 2819 
Q 2194 2722 2281 2516 
Q 2338 2381 2338 1966 
L 2338 994 
Q 2338 584 2353 492 
Q 2369 400 2405 369 
Q 2441 338 2488 338 
Q 2538 338 2575 359 
Q 2641 400 2828 588 
L 2828 413 
Q 2478 -56 2159 -56 
Q 2006 -56 1915 50 
Q 1825 156 1822 413 
z
M 1822 616 
L 1822 1706 
Q 1350 1519 1213 1441 
Q 966 1303 859 1153 
Q 753 1003 753 825 
Q 753 600 887 451 
Q 1022 303 1197 303 
Q 1434 303 1822 616 
z
" transform="scale(0.015625)"/>
       <path id="TimesNewRomanPSMT-79" d="M 38 2863 
L 1372 2863 
L 1372 2747 
L 1306 2747 
Q 1166 2747 1095 2686 
Q 1025 2625 1025 2534 
Q 1025 2413 1128 2197 
L 1825 753 
L 2466 2334 
Q 2519 2463 2519 2588 
Q 2519 2644 2497 2672 
Q 2472 2706 2419 2726 
Q 2366 2747 2231 2747 
L 2231 2863 
L 3163 2863 
L 3163 2747 
Q 3047 2734 2984 2696 
Q 2922 2659 2847 2556 
Q 2819 2513 2741 2316 
L 1575 -541 
Q 1406 -956 1132 -1168 
Q 859 -1381 606 -1381 
Q 422 -1381 303 -1275 
Q 184 -1169 184 -1031 
Q 184 -900 270 -820 
Q 356 -741 506 -741 
Q 609 -741 788 -809 
Q 913 -856 944 -856 
Q 1038 -856 1148 -759 
Q 1259 -663 1372 -384 
L 1575 113 
L 547 2272 
Q 500 2369 397 2513 
Q 319 2622 269 2659 
Q 197 2709 38 2747 
L 38 2863 
z
" transform="scale(0.015625)"/>
      </defs>
      <use xlink:href="#TimesNewRomanPSMT-41"/>
      <use xlink:href="#TimesNewRomanPSMT-63" transform="translate(72.216797 0)"/>
      <use xlink:href="#TimesNewRomanPSMT-63" transform="translate(116.601562 0)"/>
      <use xlink:href="#TimesNewRomanPSMT-75" transform="translate(160.986328 0)"/>
      <use xlink:href="#TimesNewRomanPSMT-72" transform="translate(210.986328 0)"/>
      <use xlink:href="#TimesNewRomanPSMT-61" transform="translate(244.287109 0)"/>
      <use xlink:href="#TimesNewRomanPSMT-63" transform="translate(288.671875 0)"/>
      <use xlink:href="#TimesNewRomanPSMT-79" transform="translate(333.056641 0)"/>
     </g>
    </g>
   </g>
   <g id="line2d_31">
    <path d="M 370.32675 181.115555 
L 452.523325 157.830762 
L 474.686756 166.080223 
L 488.035722 173.930529 
L 497.618505 164.882726 
L 505.099142 164.882726 
L 511.236009 153.572961 
L 516.439146 154.371303 
L 520.955524 150.778781 
L 524.945474 150.113502 
L 528.519005 143.327646 
L 531.754883 137.60624 
L 537.433097 134.146781 
L 539.954442 131.751772 
L 542.302951 131.751772 
L 544.500808 131.618726 
L 548.514137 127.493988 
L 550.357313 125.365087 
L 552.106407 126.030367 
L 553.770559 126.429537 
L 555.357639 126.429537 
L 556.874471 125.232041 
L 558.32701 125.098979 
L 559.720486 123.635358 
L 561.059516 123.103141 
L 562.348194 122.837032 
L 563.59017 122.970078 
L 564.788711 122.03869 
L 565.946754 122.03869 
L 567.066944 120.841194 
L 568.15168 121.772582 
L 569.203136 120.841194 
L 570.223294 121.240349 
L 571.213964 120.175915 
L 572.176802 120.175915 
L 573.11333 119.643682 
L 574.024947 119.90979 
L 575.778515 118.446185 
L 576.622764 118.446185 
L 577.446717 117.248673 
L 578.251326 116.849502 
L 579.806004 115.652005 
L 580.557674 115.518943 
L 581.293213 115.119772 
L 582.013298 114.454493 
L 582.718565 114.986726 
L 583.409612 114.188384 
L 584.087001 114.055338 
L 584.751262 114.055338 
L 585.402893 112.990888 
L 586.042366 112.724764 
L 586.670127 112.857826 
L 587.286596 111.660329 
L 587.892173 111.527267 
L 588.487236 111.527267 
L 590.212841 110.063646 
L 591.316794 109.531429 
L 591.855716 109.531429 
L 592.908788 109.26532 
L 593.423434 108.999196 
L 593.930466 108.466979 
L 594.430107 108.999196 
L 594.922569 108.733087 
L 595.408056 108.20087 
L 595.886761 108.067808 
L 596.358873 108.20087 
L 596.82457 108.20087 
L 597.284024 107.535591 
L 597.737401 107.668637 
L 598.184858 106.737249 
L 598.62655 107.13642 
L 599.062621 106.471141 
L 599.493214 106.07197 
L 599.918465 107.003358 
L 600.753458 106.604187 
L 601.163448 106.471141 
L 601.969003 105.805861 
L 602.36479 105.539753 
L 603.142911 105.805861 
L 603.525446 105.672799 
L 603.903758 105.40669 
L 604.277941 105.672799 
L 604.648082 105.140582 
L 605.014269 104.874473 
L 605.376585 105.40669 
L 605.735111 105.40669 
L 606.089925 104.874473 
L 606.441104 105.140582 
L 606.788721 104.34224 
L 607.132848 104.475303 
L 607.473555 104.076132 
L 608.144972 104.076132 
L 608.475812 103.543899 
L 608.803489 103.676961 
L 609.128063 103.94307 
L 610.083741 103.011682 
L 610.396469 103.543899 
L 610.70637 103.676961 
L 611.013494 102.612511 
L 611.31789 103.676961 
L 611.619606 102.479464 
L 611.91869 102.346402 
L 612.215186 103.676961 
L 612.800593 102.21334 
L 613.08959 102.21334 
L 613.376169 102.612511 
L 613.94224 102.878619 
L 614.499112 102.21334 
L 614.774192 102.878619 
L 615.317816 102.479464 
L 615.852952 102.21334 
L 616.117419 102.745573 
L 616.379861 102.080294 
L 616.640309 101.947231 
L 616.898792 102.612511 
L 617.155341 101.281952 
L 617.409984 101.415014 
L 617.662749 101.415014 
L 617.913663 101.148906 
L 618.162754 100.616673 
L 618.410048 101.814185 
L 618.65557 101.681123 
L 618.899346 101.814185 
L 619.141401 101.681123 
L 619.381758 100.350564 
L 619.620441 100.48361 
L 619.857473 101.814185 
L 620.326677 100.350564 
L 620.558891 101.681123 
L 620.789543 101.415014 
L 621.018653 100.882781 
L 621.246242 101.281952 
L 621.47233 100.882781 
L 621.696936 101.548061 
L 621.92008 100.616673 
L 622.14178 101.548061 
L 622.362056 100.749735 
L 622.580925 101.415014 
L 623.014514 101.415014 
L 623.229269 100.217502 
L 623.442686 100.48361 
L 623.865576 100.48361 
L 624.07508 100.749735 
L 624.283311 100.084456 
L 624.490285 99.951393 
L 624.696017 100.084456 
L 624.90052 100.48361 
L 625.103811 100.48361 
L 625.305904 100.749735 
L 625.506812 99.818331 
L 625.706548 99.552223 
L 625.905128 100.749735 
L 626.102564 100.48361 
L 626.298869 99.685285 
L 626.494056 99.685285 
L 626.688138 100.084456 
L 626.881127 99.552223 
L 627.073035 99.951393 
L 627.263875 99.951393 
L 627.453659 99.286114 
L 627.642397 99.685285 
L 627.830101 99.286114 
L 628.016783 99.286114 
L 628.387125 98.886943 
L 628.570806 99.286114 
L 628.753507 100.48361 
L 628.93524 99.020005 
L 629.116015 99.153052 
L 629.474728 100.084456 
L 629.652687 99.951393 
L 629.829726 100.084456 
L 630.005856 99.419176 
L 630.181085 99.951393 
L 630.355423 99.685285 
L 630.528879 99.685285 
L 630.701461 99.153052 
L 630.873179 99.020005 
L 631.04404 99.419176 
L 631.214054 99.286114 
L 631.383229 99.685285 
L 631.551573 99.552223 
L 631.719094 99.818331 
L 631.8858 99.552223 
L 632.0517 98.620835 
L 632.381109 100.084456 
L 632.544634 99.552223 
L 632.707382 99.552223 
L 632.869362 98.487772 
L 633.350757 99.419176 
L 633.509731 99.020005 
L 633.982276 99.286114 
L 634.138355 98.487772 
L 634.448395 99.685285 
L 634.60237 99.153052 
L 634.908261 99.419176 
L 635.060188 99.020005 
L 635.362037 99.153052 
L 635.511971 98.886943 
L 635.809884 99.020005 
L 635.957876 98.886943 
L 636.105231 99.153052 
L 636.251955 99.153052 
L 636.398054 98.354726 
L 636.543533 99.020005 
L 636.688397 98.221664 
L 636.832651 99.020005 
L 636.976301 98.753897 
L 637.119351 98.753897 
L 637.261807 99.020005 
L 637.403673 99.020005 
L 637.685655 98.753897 
L 638.242754 99.153052 
L 638.380625 98.221664 
L 638.517944 98.886943 
L 638.654715 98.886943 
L 638.790942 98.753897 
L 638.926631 99.153052 
L 639.196406 98.487772 
L 639.330501 98.620835 
L 639.464074 98.354726 
L 639.597128 98.753897 
L 639.729668 98.487772 
L 639.861698 98.620835 
L 639.99322 98.487772 
L 640.254761 98.886943 
L 640.514321 98.354726 
L 640.643368 98.753897 
L 640.77193 98.354726 
L 640.900013 98.620835 
L 641.027618 98.221664 
L 641.281412 98.354726 
L 641.407608 98.354726 
L 641.533341 98.487772 
L 641.658614 98.221664 
L 641.783432 98.487772 
L 641.907796 99.153052 
L 642.031711 98.088617 
L 642.155179 98.088617 
L 642.278204 98.487772 
L 642.400789 98.487772 
L 642.522937 98.620835 
L 642.644652 97.955555 
L 642.765936 98.088617 
L 642.886792 97.822493 
L 643.007223 99.020005 
L 643.127233 97.822493 
L 643.246824 98.088617 
L 643.365999 97.689447 
L 643.484761 97.955555 
L 643.603114 97.822493 
L 643.721059 97.955555 
L 643.955738 97.689447 
L 644.072477 98.886943 
L 644.188821 97.556384 
L 644.304771 97.689447 
L 644.42033 97.556384 
L 644.535501 97.689447 
L 644.650285 98.354726 
L 644.878709 97.157214 
L 645.105619 98.354726 
L 645.218514 97.689447 
L 645.331038 98.620835 
L 645.443194 98.354726 
L 645.66641 97.157214 
L 645.777475 98.487772 
L 645.888182 98.354726 
L 645.998532 96.624997 
L 646.108528 96.758043 
L 646.218173 97.290276 
L 646.327467 96.758043 
L 646.436415 97.689447 
L 646.545017 96.758043 
L 646.653275 98.221664 
L 646.761194 97.955555 
L 646.976016 97.024167 
L 647.082924 97.157214 
L 647.1895 97.955555 
L 647.401662 96.491934 
L 647.507253 96.491934 
L 647.822088 97.556384 
L 647.926393 97.556384 
L 648.030382 96.225826 
L 648.134057 96.358888 
L 648.237419 97.556384 
L 648.443212 96.358888 
L 648.545647 96.358888 
L 648.952353 95.959717 
L 649.153911 96.624997 
L 649.35429 96.092764 
L 649.454042 96.624997 
L 649.553504 96.225826 
L 649.652679 97.024167 
L 649.751568 96.758043 
L 649.948493 95.959717 
L 650.241776 96.758043 
L 650.338981 95.693609 
L 650.435912 95.959717 
L 650.628956 96.624997 
L 650.725071 96.624997 
L 650.916497 96.358888 
L 651.10686 96.491934 
L 651.201647 96.491934 
L 651.296172 95.560546 
L 651.484443 96.491934 
L 651.578193 96.624997 
L 651.857912 96.092764 
L 651.950647 96.624997 
L 652.135367 95.028329 
L 652.227355 95.560546 
L 652.319097 96.624997 
L 652.410594 96.225826 
L 652.501848 94.895267 
L 652.592859 96.491934 
L 652.864451 95.028329 
L 652.954505 96.358888 
L 653.044324 96.092764 
L 653.133908 95.161376 
L 653.312376 96.225826 
L 653.401263 96.491934 
L 653.578348 95.959717 
L 653.666549 96.092764 
L 653.754523 95.427484 
L 653.929797 95.693609 
L 654.017099 95.427484 
L 654.104179 95.693609 
L 654.191039 95.560546 
L 654.277679 94.496096 
L 654.450305 95.826655 
L 654.622065 95.826655 
L 654.707624 95.028329 
L 654.792969 95.826655 
L 654.878103 95.161376 
L 654.963026 95.826655 
L 655.132242 94.629158 
L 655.216538 95.560546 
L 655.300628 95.294438 
L 655.384511 95.161376 
L 655.46819 94.363034 
L 655.551664 95.560546 
L 655.634937 95.294438 
L 655.718007 95.161376 
L 655.800876 94.496096 
L 655.966016 95.294438 
L 656.130364 95.028329 
L 656.212244 94.895267 
L 656.293928 94.496096 
L 656.456715 95.028329 
L 656.618733 94.496096 
L 656.699456 94.496096 
L 656.779988 95.028329 
L 656.940489 94.762205 
L 657.100241 94.629158 
L 657.179838 93.963879 
L 657.259252 95.028329 
L 657.338481 94.096925 
L 657.417528 94.229988 
L 657.575078 93.830817 
L 657.653581 94.895267 
L 657.810052 94.229988 
L 657.88802 94.229988 
L 657.965811 93.830817 
L 658.043426 94.496096 
L 658.120865 94.363034 
L 658.19813 94.363034 
L 658.275222 93.564708 
L 658.35214 94.629158 
L 658.428886 93.564708 
L 658.505461 94.629158 
L 658.581864 93.830817 
L 658.658098 93.963879 
L 658.734163 94.762205 
L 658.810059 93.2986 
L 658.885788 93.564708 
L 658.96135 93.697755 
L 659.036745 93.032475 
L 659.111975 93.2986 
L 659.261941 93.165537 
L 659.485668 93.165537 
L 659.55992 94.229988 
L 659.634011 93.830817 
L 659.707943 93.564708 
L 659.781716 92.766367 
L 659.85533 93.564708 
L 659.928787 93.2986 
L 660.002086 93.564708 
L 660.075229 92.899429 
L 660.148216 93.963879 
L 660.293726 92.23415 
L 660.366249 92.63332 
L 660.43862 93.2986 
L 660.582905 92.63332 
L 660.65482 94.229988 
L 660.726585 92.766367 
L 660.798199 92.899429 
L 660.869665 92.899429 
L 660.940981 92.367196 
L 661.01215 92.899429 
L 661.083171 92.23415 
L 661.154045 92.63332 
L 661.295355 93.697755 
L 661.506234 92.367196 
L 661.57624 92.367196 
L 661.646103 92.63332 
L 661.715824 92.367196 
L 661.854841 94.096925 
L 661.993297 91.701917 
L 662.062316 93.963879 
L 662.131196 91.701917 
L 662.199938 92.766367 
L 662.268543 92.500258 
L 662.33701 92.899429 
L 662.541596 91.834979 
L 662.677311 92.500258 
L 662.744967 91.834979 
L 662.81249 92.23415 
L 662.947139 92.367196 
L 663.08126 92.101087 
L 663.148125 92.367196 
L 663.214859 92.23415 
L 663.281464 92.367196 
L 663.34794 93.032475 
L 663.480505 91.701917 
L 663.678397 92.63332 
L 663.744108 91.435808 
L 663.809693 92.23415 
L 663.875153 91.834979 
L 663.940488 92.367196 
L 664.005698 92.101087 
L 664.070785 92.101087 
L 664.200589 92.367196 
L 664.265308 92.23415 
L 664.329904 91.834979 
L 664.458732 92.23415 
L 664.587078 91.968041 
L 664.651071 92.101087 
L 664.714945 91.834979 
L 664.778701 91.968041 
L 664.842337 91.834979 
L 664.905856 92.101087 
L 664.969258 91.968041 
L 665.032542 92.101087 
L 665.158761 91.834979 
L 665.221697 92.101087 
L 665.284517 91.169699 
L 665.409813 92.101087 
L 665.47229 92.23415 
L 665.534653 91.036637 
L 665.596903 91.968041 
L 665.65904 91.968041 
L 665.844778 90.770529 
L 666.029515 91.56887 
L 666.152122 91.036637 
L 666.274292 91.701917 
L 666.396028 91.036637 
L 666.456734 91.169699 
L 666.517333 91.169699 
L 666.577825 91.435808 
L 666.63821 91.302746 
L 666.69849 90.770529 
L 666.758663 91.036637 
L 666.818731 91.036637 
L 666.878694 91.968041 
L 666.938552 91.435808 
L 666.998306 91.302746 
L 667.176945 90.238311 
L 667.236285 90.770529 
L 667.295522 90.371358 
L 667.354657 90.238311 
L 667.472622 91.169699 
L 667.590183 90.50442 
L 667.648812 91.435808 
L 667.707342 90.770529 
L 667.765771 91.036637 
L 667.882332 90.105249 
L 667.940465 91.036637 
L 667.998498 90.903591 
L 668.172012 90.371358 
L 668.229656 90.903591 
L 668.287203 90.770529 
L 668.344653 90.903591 
L 668.459265 90.371358 
L 668.516428 90.903591 
L 668.573495 90.637466 
L 668.687346 90.105249 
L 668.857416 90.770529 
L 669.026647 89.972187 
L 669.139005 90.50442 
L 669.306854 89.972187 
L 669.418299 90.50442 
L 669.473885 91.036637 
L 669.529382 90.637466 
L 669.584789 90.105249 
L 669.640107 90.903591 
L 669.750475 89.839141 
L 669.805526 89.972187 
L 669.860488 89.573032 
L 669.915363 89.839141 
L 670.02485 90.105249 
L 670.242779 89.43997 
L 670.351227 90.105249 
L 670.405322 89.972187 
L 670.459332 89.839141 
L 670.513257 90.50442 
L 670.567097 89.972187 
L 670.620853 89.573032 
L 670.674525 90.50442 
L 670.728113 90.238311 
L 670.781617 90.105249 
L 670.94163 89.43997 
L 671.047892 90.903591 
L 671.153825 89.040799 
L 671.20667 89.706078 
L 671.312114 90.637466 
L 671.469676 89.43997 
L 671.574315 89.173861 
L 671.678637 89.706078 
L 671.782642 89.573032 
L 671.834526 89.173861 
L 671.886332 89.306908 
L 671.938059 90.105249 
L 671.989709 89.040799 
L 672.041281 90.105249 
L 672.092776 89.306908 
L 672.195533 89.43997 
L 672.349094 89.040799 
L 672.400129 89.173861 
L 672.451087 89.173861 
L 672.552778 89.43997 
L 672.60351 90.105249 
L 672.654168 89.706078 
L 672.805692 89.173861 
L 672.856052 89.040799 
L 672.906337 89.173861 
L 673.006688 89.173861 
L 673.056753 89.972187 
L 673.106746 89.173861 
L 673.206512 89.173861 
L 673.256287 88.907753 
L 673.405178 89.839141 
L 673.504081 89.040799 
L 673.553426 89.173861 
L 673.602699 89.173861 
L 673.651902 89.306908 
L 673.750097 88.641628 
L 673.896863 89.306908 
L 673.994359 88.77469 
L 674.043003 89.173861 
L 674.140085 89.173861 
L 674.236893 88.77469 
L 674.381594 89.040799 
L 674.477723 89.040799 
L 674.621413 88.508582 
L 674.669176 89.040799 
L 674.716872 88.907753 
L 674.812067 88.641628 
L 674.859565 89.040799 
L 674.906998 88.508582 
L 675.048903 88.77469 
L 675.143181 88.77469 
L 675.2372 88.907753 
L 675.284113 88.77469 
L 675.330962 88.242457 
L 675.424469 88.37552 
L 675.564252 88.907753 
L 675.703467 88.37552 
L 675.749747 88.37552 
L 675.888212 88.508582 
L 675.980213 88.109411 
L 676.026121 88.242457 
L 676.071967 88.242457 
L 676.163476 88.109411 
L 676.300283 88.37552 
L 676.391186 88.109411 
L 676.436547 88.37552 
L 676.481848 88.109411 
L 676.527089 87.843303 
L 676.572271 87.976349 
L 676.79729 88.77469 
L 676.886885 88.242457 
L 677.020841 87.976349 
L 677.065377 88.37552 
L 677.109855 88.109411 
L 677.154275 87.976349 
L 677.287192 88.508582 
L 677.331383 87.843303 
L 677.419595 88.109411 
L 677.463616 88.109411 
L 677.551489 87.843303 
L 677.639137 88.508582 
L 677.726562 87.976349 
L 677.77019 88.109411 
L 677.813764 88.109411 
L 677.944152 88.37552 
L 677.987505 87.976349 
L 678.074047 88.109411 
L 678.20345 88.37552 
L 678.332368 88.109411 
L 678.375233 88.37552 
L 678.460802 88.242457 
L 678.546158 88.242457 
L 678.588757 87.976349 
L 678.673795 88.109411 
L 678.800959 88.508582 
L 678.843242 87.976349 
L 678.927652 88.109411 
L 678.969779 87.976349 
L 679.011855 88.242457 
L 679.053879 87.577178 
L 679.137773 87.976349 
L 679.179643 88.242457 
L 679.263229 88.109411 
L 679.388229 88.109411 
L 679.471309 88.242457 
L 679.554188 87.976349 
L 679.595553 88.109411 
L 679.636868 88.109411 
L 679.678133 88.242457 
L 679.719348 88.109411 
L 679.801631 87.976349 
L 679.924685 88.109411 
L 680.006477 88.109411 
L 680.0473 88.37552 
L 680.088074 87.71024 
L 680.128799 87.976349 
L 680.169477 88.37552 
L 680.250687 88.242457 
L 680.331705 88.242457 
L 680.412533 88.109411 
L 680.452875 88.508582 
L 680.573617 87.577178 
L 680.653877 88.109411 
L 680.693936 87.976349 
L 680.733949 87.843303 
L 680.773914 88.508582 
L 680.853707 88.109411 
L 680.893533 87.71024 
L 680.933314 88.37552 
L 680.973048 87.976349 
L 681.012736 88.242457 
L 681.052379 87.843303 
L 681.091975 87.577178 
L 681.131526 88.641628 
L 681.210491 87.843303 
L 681.367877 88.109411 
L 681.407111 87.71024 
L 681.4463 88.242457 
L 681.485445 87.976349 
L 681.563599 88.109411 
L 681.680498 87.577178 
L 681.719376 87.178023 
L 681.797 88.109411 
L 681.835746 87.976349 
L 681.874448 87.976349 
L 681.990294 87.31107 
L 682.028822 88.109411 
L 682.105749 87.71024 
L 682.144148 87.31107 
L 682.220817 87.577178 
L 682.373641 88.242457 
L 682.449799 87.31107 
L 682.487815 87.843303 
L 682.525788 87.976349 
L 682.563719 87.843303 
L 682.601609 87.71024 
L 682.639456 86.911899 
L 682.677262 87.444132 
L 682.715026 87.843303 
L 682.752749 87.178023 
L 682.79043 87.71024 
L 682.82807 87.71024 
L 682.865668 87.444132 
L 682.940742 87.577178 
L 683.015651 87.71024 
L 683.053044 87.178023 
L 683.090397 87.71024 
L 683.127709 88.109411 
L 683.16498 87.71024 
L 683.239402 87.178023 
L 683.276552 87.843303 
L 683.313662 87.71024 
L 683.387761 87.044961 
L 683.461701 87.178023 
L 683.609104 87.444132 
L 683.719241 87.71024 
L 683.865543 86.778852 
L 683.902021 86.778852 
L 683.93846 86.512744 
L 683.974861 86.911899 
L 684.011223 86.64579 
L 684.083831 87.577178 
L 684.120078 86.778852 
L 684.228588 86.379682 
L 684.372736 87.577178 
L 684.444583 86.379682 
L 684.480451 87.31107 
L 684.51628 87.31107 
L 684.659226 86.113573 
L 684.801578 87.31107 
L 684.978691 86.113573 
L 685.014004 86.379682 
L 685.119725 86.379682 
L 685.190025 86.246619 
L 685.225121 87.178023 
L 685.295205 86.911899 
L 685.330194 86.778852 
L 685.365147 87.044961 
L 685.400064 87.178023 
L 685.504603 86.246619 
L 685.539378 86.512744 
L 685.574118 86.512744 
L 685.678128 86.778852 
L 685.643493 86.379682 
L 685.712728 86.64579 
L 685.747294 86.379682 
L 685.781824 86.778852 
L 685.816319 86.778852 
L 685.885206 85.980511 
L 685.919598 86.512744 
L 685.988278 86.64579 
L 686.022567 86.512744 
L 686.159378 85.847464 
L 686.193496 85.980511 
L 686.329629 86.778852 
L 686.499038 85.847464 
L 686.600283 86.778852 
L 686.633965 86.113573 
L 686.667614 85.980511 
L 686.70123 86.778852 
L 686.768363 86.64579 
L 686.835364 86.778852 
L 686.968976 86.246619 
L 687.035588 86.911899 
L 687.135262 86.64579 
L 687.201551 86.113573 
L 687.234648 86.64579 
L 687.267712 86.64579 
L 687.300745 86.911899 
L 687.333746 86.113573 
L 687.432559 86.379682 
L 687.465433 86.379682 
L 687.563867 86.246619 
L 687.596616 86.778852 
L 687.629333 86.113573 
L 687.662019 85.448294 
L 687.694674 86.911899 
L 687.727298 85.847464 
L 687.759891 85.847464 
L 687.792453 85.448294 
L 687.824984 86.113573 
L 687.857485 85.58134 
L 687.987178 86.512744 
L 688.019525 85.448294 
L 688.084128 86.246619 
L 688.116383 86.512744 
L 688.148608 85.448294 
L 688.212968 85.58134 
L 688.245103 85.980511 
L 688.309282 85.58134 
L 688.373341 85.980511 
L 688.43728 85.847464 
L 688.469205 85.58134 
L 688.532966 85.714402 
L 688.564802 85.847464 
L 688.596609 85.58134 
L 688.628386 85.714402 
L 688.786831 84.916061 
L 688.818432 85.182185 
L 688.850004 86.512744 
L 688.913062 85.448294 
L 688.944547 85.448294 
L 689.007431 85.182185 
L 689.132853 85.980511 
L 689.226619 85.448294 
L 689.257818 85.714402 
L 689.288988 85.714402 
L 689.351244 85.58134 
L 689.413386 86.113573 
L 689.444415 85.315231 
L 689.475416 85.315231 
L 689.506389 85.847464 
L 689.568252 85.448294 
L 689.599141 85.182185 
L 689.660836 85.315231 
L 689.81459 86.113573 
L 689.906512 85.049123 
L 689.937098 85.448294 
L 690.028693 86.246619 
L 690.15044 85.315231 
L 690.211152 85.714402 
L 690.241467 85.448294 
L 690.332253 85.182185 
L 690.4228 85.980511 
L 690.452929 85.315231 
L 690.513107 85.049123 
L 690.543157 85.448294 
L 690.603178 85.315231 
L 690.633149 84.916061 
L 690.693012 85.448294 
L 690.722905 85.714402 
L 690.752771 85.58134 
L 690.871977 85.049123 
L 690.901714 85.182185 
L 690.931425 84.916061 
L 690.961111 84.916061 
L 690.99077 85.714402 
L 691.050013 84.783014 
L 691.079596 84.783014 
L 691.109153 85.58134 
L 691.197673 85.315231 
L 691.227129 85.448294 
L 691.285964 85.315231 
L 691.315344 85.315231 
L 691.344699 85.182185 
L 691.374029 85.315231 
L 691.432613 85.58134 
L 691.491098 85.847464 
L 691.549483 84.783014 
L 691.578638 85.182185 
L 691.636874 85.049123 
L 691.724042 84.783014 
L 691.868833 85.315231 
L 691.897718 85.315231 
L 691.926578 85.448294 
L 691.955415 85.182185 
L 691.984227 85.182185 
L 692.041778 85.315231 
L 692.099233 83.452456 
L 692.185235 85.182185 
L 692.213855 84.783014 
L 692.29957 84.916061 
L 692.356595 84.783014 
L 692.385072 83.984673 
L 692.441955 85.049123 
L 692.498743 84.383843 
L 692.555438 84.916061 
L 692.612039 85.182185 
L 692.668547 84.51689 
L 692.696766 85.315231 
L 692.781284 84.783014 
L 692.80941 84.783014 
L 692.921685 84.383843 
L 692.949696 84.916061 
L 693.033594 84.51689 
L 693.145138 84.783014 
L 693.172967 84.383843 
L 693.228559 84.51689 
L 693.25632 84.916061 
L 693.311777 84.250781 
L 693.339471 84.51689 
L 693.422421 83.585502 
L 693.450026 84.117735 
L 693.477609 84.649952 
L 693.532709 83.984673 
L 693.560226 84.250781 
L 693.58772 84.250781 
L 693.615193 83.85161 
L 693.642643 84.383843 
L 693.697479 84.250781 
L 693.779567 84.649952 
L 693.806886 84.383843 
L 693.915946 83.984673 
L 693.888714 84.51689 
L 693.943157 84.117735 
L 693.970346 84.383843 
L 693.997514 84.250781 
L 694.051785 82.920223 
L 694.10597 83.053285 
L 694.214084 84.117735 
L 694.294946 83.984673 
L 694.268013 84.383843 
L 694.321858 84.117735 
L 694.402466 84.51689 
L 694.4561 82.654114 
L 694.482886 84.649952 
L 694.536394 83.984673 
L 694.589819 84.383843 
L 694.669801 83.718564 
L 694.69642 85.049123 
L 694.776153 83.984673 
L 694.829206 83.984673 
L 694.882177 84.117735 
L 694.908632 83.585502 
L 694.987873 84.250781 
L 695.0406 83.186331 
L 695.093245 84.117735 
L 695.172062 84.250781 
L 695.198294 83.718564 
L 695.27687 84.250781 
L 695.303022 83.984673 
L 695.381358 84.250781 
L 695.40743 83.718564 
L 695.511522 84.250781 
L 695.589384 82.654114 
L 695.667069 83.452456 
L 695.692925 83.319393 
L 695.770377 84.250781 
L 695.821914 83.984673 
L 695.847653 83.85161 
L 695.873373 83.984673 
L 695.899074 84.250781 
L 695.924756 82.388005 
L 696.001686 82.654114 
L 696.103991 84.250781 
L 696.078443 82.388005 
L 696.12952 83.718564 
L 696.155029 82.787176 
L 696.18052 83.984673 
L 696.231444 83.984673 
L 696.256878 84.117735 
L 696.282293 82.920223 
L 696.358426 83.85161 
L 696.434389 83.186331 
L 696.459673 83.585502 
L 696.560622 84.51689 
L 696.535413 83.452456 
L 696.585813 83.984673 
L 696.610986 82.654114 
L 696.686392 83.85161 
L 696.736571 83.85161 
L 696.811702 83.984673 
L 696.936556 82.654114 
L 697.01125 84.117735 
L 697.060956 83.718564 
L 697.085782 83.718564 
L 697.160152 83.984673 
L 697.13538 83.319393 
L 697.184907 83.85161 
L 697.209643 82.787176 
L 697.283745 83.984673 
L 697.333058 83.186331 
L 697.3823 83.85161 
L 697.406894 84.250781 
L 697.431471 82.920223 
L 697.554091 83.718564 
L 697.578563 82.521052 
L 697.651872 84.250781 
L 697.676274 82.654114 
L 697.700659 83.85161 
L 697.773708 83.452456 
L 697.798023 83.053285 
L 697.870866 83.585502 
L 697.895112 83.718564 
L 697.919341 83.585502 
L 697.991927 83.718564 
L 698.064358 82.920223 
L 698.136638 84.250781 
L 698.184739 83.585502 
L 698.256765 82.254943 
L 698.28074 83.452456 
L 698.304699 83.585502 
L 698.32864 83.452456 
L 698.400365 82.920223 
L 698.448098 83.319393 
L 698.471939 83.319393 
L 698.519573 82.654114 
L 698.543365 83.585502 
L 698.567141 82.920223 
L 698.638368 82.654114 
L 698.685771 83.452456 
L 698.709448 82.521052 
L 698.780381 83.319393 
L 698.803993 83.319393 
L 698.945322 82.388005 
L 698.851167 83.452456 
L 698.968821 82.920223 
L 698.992303 82.920223 
L 699.03922 83.319393 
L 699.062654 82.388005 
L 699.13286 82.654114 
L 699.15623 83.319393 
L 699.179585 82.521052 
L 699.226245 83.053285 
L 699.249552 82.654114 
L 699.296118 83.718564 
L 699.319377 83.186331 
L 699.412256 82.787176 
L 699.38906 83.319393 
L 699.435437 82.920223 
L 699.481751 83.319393 
L 699.504885 83.053285 
L 699.528003 82.521052 
L 699.620319 82.920223 
L 699.666384 82.121897 
L 699.689394 83.186331 
L 699.712388 82.920223 
L 699.758329 82.920223 
L 699.781277 83.186331 
L 699.872915 83.053285 
L 699.964308 82.654114 
L 700.055458 83.319393 
L 700.032693 81.855772 
L 700.078208 82.787176 
L 700.123662 83.319393 
L 700.146367 82.388005 
L 700.169056 83.053285 
L 700.191731 82.787176 
L 700.21439 83.186331 
L 700.282279 82.920223 
L 700.304879 83.053285 
L 700.327463 82.388005 
L 700.372589 83.718564 
L 700.395129 82.654114 
L 700.440165 83.186331 
L 700.507608 82.787176 
L 700.53006 82.121897 
L 700.552497 83.053285 
L 700.61972 82.521052 
L 700.642099 82.121897 
L 700.664462 83.053285 
L 700.686812 83.718564 
L 700.753772 82.521052 
L 700.776063 83.319393 
L 700.79834 82.388005 
L 700.865083 82.920223 
L 700.887301 83.585502 
L 700.931696 82.121897 
L 700.953872 83.319393 
L 701.086625 81.988835 
L 701.15281 83.585502 
L 701.240858 82.787176 
L 701.306745 82.121897 
L 701.32868 83.053285 
L 701.3506 83.053285 
L 701.416277 83.319393 
L 701.481829 82.121897 
L 701.569037 83.053285 
L 701.590804 82.121897 
L 701.612557 81.855772 
L 701.634297 83.319393 
L 701.721118 82.920223 
L 701.829336 81.855772 
L 701.78609 83.053285 
L 701.850939 82.654114 
L 701.958748 83.186331 
L 702.023271 82.121897 
L 702.066219 82.920223 
L 702.130541 81.855772 
L 702.173355 82.787176 
L 702.194742 83.053285 
L 702.258823 82.654114 
L 702.280157 82.787176 
L 702.344078 81.589664 
L 702.322784 83.053285 
L 702.386626 82.521052 
L 702.429122 82.388005 
L 702.513955 82.920223 
L 702.556293 83.186331 
L 702.619702 81.988835 
L 702.682995 81.722726 
L 702.74617 82.920223 
L 702.893128 81.855772 
L 702.955918 82.787176 
L 702.997714 82.521052 
L 703.060312 81.988835 
L 703.101981 82.388005 
L 703.122796 82.920223 
L 703.164389 81.855772 
L 703.205932 82.521052 
L 703.288867 82.654114 
L 703.309569 81.855772 
L 703.392253 82.654114 
L 703.433521 82.388005 
L 703.536473 81.722726 
L 703.474739 82.787176 
L 703.577567 81.855772 
L 703.700556 82.654114 
L 703.721011 82.654114 
L 703.823104 81.722726 
L 703.843486 82.654114 
L 703.945216 82.521052 
L 703.965526 81.855772 
L 704.046645 82.521052 
L 704.066895 82.521052 
L 704.107358 81.855772 
L 704.147774 82.521052 
L 704.167964 82.787176 
L 704.188143 81.855772 
L 704.228463 82.254943 
L 704.268737 81.722726 
L 704.329059 81.855772 
L 704.409323 82.388005 
L 704.449384 82.254943 
L 704.489399 82.254943 
L 704.569289 82.388005 
L 704.609164 81.855772 
L 704.629085 82.254943 
L 704.70865 81.855772 
L 704.827653 82.121897 
L 704.926507 81.988835 
L 705.005386 82.121897 
L 705.025077 80.392167 
L 705.044757 82.254943 
L 705.10373 82.121897 
L 705.123365 82.121897 
L 705.221371 81.855772 
L 705.182202 82.254943 
L 705.240939 81.988835 
L 705.280041 81.988835 
L 705.299575 82.920223 
L 705.377601 81.589664 
L 705.455449 82.521052 
L 705.494307 82.121897 
L 705.533121 82.388005 
L 705.59126 81.855772 
L 705.610618 82.388005 
L 705.629965 81.589664 
L 705.687939 81.855772 
L 705.726535 81.855772 
L 705.803596 82.521052 
L 705.765087 81.589664 
L 705.842061 81.988835 
L 705.861278 81.323555 
L 705.880484 82.121897 
L 705.9572 81.722726 
L 706.091041 82.787176 
L 706.205347 81.589664 
L 706.224362 81.855772 
L 706.243365 81.855772 
L 706.319274 81.722726 
L 706.281341 81.988835 
L 706.338225 81.855772 
L 706.432823 82.388005 
L 706.376096 81.722726 
L 706.451711 82.121897 
L 706.470589 81.589664 
L 706.527161 82.521052 
L 706.564823 81.722726 
L 706.583639 82.787176 
L 706.677563 82.121897 
L 706.696317 82.654114 
L 706.733794 81.589664 
L 706.77123 82.388005 
L 706.808626 81.722726 
L 706.883294 81.855772 
L 706.920568 82.121897 
L 706.976402 81.722726 
L 706.994993 81.988835 
L 707.013574 81.589664 
L 707.069257 81.589664 
L 707.106329 81.589664 
L 707.143361 82.121897 
L 707.217305 81.589664 
L 707.327922 81.589664 
L 707.383097 81.988835 
L 707.438184 81.855772 
L 707.474859 82.254943 
L 707.529798 81.722726 
L 707.548092 82.388005 
L 707.621168 81.456602 
L 707.639413 81.456602 
L 707.657648 81.057447 
L 707.694089 82.254943 
L 707.730492 81.722726 
L 707.748679 81.722726 
L 707.803181 81.057447 
L 707.839468 81.855772 
L 707.857597 81.722726 
L 707.930017 81.722726 
L 707.948099 80.791322 
L 708.038362 81.589664 
L 708.092406 82.654114 
L 708.128388 81.456602 
L 708.146365 82.521052 
L 708.18229 81.323555 
L 708.254029 82.521052 
L 708.289842 81.057447 
L 708.379211 81.456602 
L 708.414893 81.855772 
L 708.468347 81.190493 
L 708.486147 81.323555 
L 708.503937 82.388005 
L 708.59275 81.589664 
L 708.610485 81.589664 
L 708.628211 81.722726 
L 708.645928 81.323555 
L 708.681334 81.456602 
L 708.699023 81.323555 
L 708.716703 81.456602 
L 708.734374 82.521052 
L 708.804967 81.323555 
L 708.822593 81.456602 
L 708.857817 81.456602 
L 708.875416 81.323555 
L 708.893005 81.589664 
L 708.910585 81.589664 
L 708.928157 81.855772 
L 708.945719 81.456602 
L 708.998352 81.456602 
L 709.103377 81.057447 
L 709.12085 81.323555 
L 709.138314 81.589664 
L 709.173215 81.057447 
L 709.208081 81.323555 
L 709.242911 81.456602 
L 709.312466 81.057447 
L 709.364539 82.388005 
L 709.399211 80.924384 
L 709.433848 81.589664 
L 709.554801 80.924384 
L 709.572046 81.323555 
L 709.606508 80.924384 
L 709.692513 81.722726 
L 709.744013 80.791322 
L 709.812559 81.456602 
L 709.829674 81.456602 
L 709.846781 82.388005 
L 709.898049 81.057447 
L 709.932186 81.456602 
L 709.966288 81.722726 
L 710.000357 81.190493 
L 710.017379 82.121897 
L 710.034392 80.924384 
L 710.10236 81.190493 
L 710.170194 80.924384 
L 710.220982 82.254943 
L 710.254798 80.924384 
L 710.339194 81.589664 
L 710.423382 80.791322 
L 710.457 81.190493 
L 710.507364 80.791322 
L 710.574402 82.121897 
L 710.658015 80.658276 
L 710.691404 81.456602 
L 710.774732 80.791322 
L 710.891053 82.121897 
L 710.907638 80.924384 
L 710.957346 82.254943 
L 711.006981 81.057447 
L 711.040031 81.456602 
L 711.106036 81.323555 
L 711.204806 80.791322 
L 711.22124 81.057447 
L 711.270495 80.791322 
L 711.352429 82.121897 
L 711.450492 80.791322 
L 711.466809 81.855772 
L 711.564546 80.791322 
L 711.580809 81.988835 
L 711.662005 80.658276 
L 711.678222 80.658276 
L 711.791521 81.855772 
L 711.775359 80.525214 
L 711.807677 81.057447 
L 711.872221 80.525214 
L 711.888338 81.855772 
L 711.984882 81.323555 
L 712.049094 81.456602 
L 712.065129 80.658276 
L 712.129191 82.254943 
L 712.161177 80.658276 
L 712.177159 80.658276 
L 712.256957 81.855772 
L 712.288824 81.057447 
L 712.368362 82.254943 
L 712.320661 80.525214 
L 712.384248 81.589664 
L 712.463566 81.855772 
L 712.511068 80.525214 
L 712.637421 81.722726 
L 712.684684 80.791322 
L 712.668937 81.855772 
L 712.747599 81.323555 
L 712.76331 81.456602 
L 712.841756 80.392167 
L 712.857424 81.722726 
L 712.873085 80.791322 
L 712.966898 81.855772 
L 712.935655 80.525214 
L 712.982509 80.791322 
L 713.029298 81.589664 
L 713.060456 80.392167 
L 713.122686 81.988835 
L 713.184803 81.589664 
L 713.262292 80.658276 
L 713.293238 81.057447 
L 713.324157 80.525214 
L 713.401331 81.722726 
L 713.416745 80.392167 
L 713.52445 80.658276 
L 713.555161 80.525214 
L 713.570506 81.988835 
L 713.662432 80.924384 
L 713.72358 80.392167 
L 713.799862 81.589664 
L 713.891176 80.525214 
L 713.875974 81.722726 
L 713.92156 80.658276 
L 713.982247 81.722726 
L 714.012551 80.525214 
L 714.027692 80.924384 
L 714.088192 80.392167 
L 714.073077 81.456602 
L 714.118402 80.924384 
L 714.223928 81.988835 
L 714.208873 80.392167 
L 714.238977 81.722726 
L 714.344133 80.259105 
L 714.359129 80.525214 
L 714.374118 80.658276 
L 714.389101 81.855772 
L 714.404077 80.126043 
L 714.478861 81.589664 
L 714.523653 80.259105 
L 714.53857 81.722726 
L 714.598176 80.392167 
L 714.702237 81.722726 
L 714.717077 80.658276 
L 714.731911 80.126043 
L 714.746738 81.722726 
L 714.805983 80.525214 
L 714.909416 81.855772 
L 714.924167 79.992997 
L 715.027245 80.392167 
L 715.056639 81.456602 
L 715.086007 80.126043 
L 715.144669 81.323555 
L 715.203231 80.392167 
L 715.232475 81.722726 
L 715.261693 80.791322 
L 715.290887 81.722726 
L 715.334631 80.126043 
L 715.363762 80.525214 
L 715.392869 81.589664 
L 715.451009 79.992997 
L 715.523545 81.988835 
L 715.552516 80.658276 
L 715.610386 79.992997 
L 715.595928 81.589664 
L 715.639284 80.126043 
L 715.754634 81.589664 
L 715.826531 79.859934 
L 715.869597 80.658276 
L 715.898278 81.057447 
L 715.912609 80.924384 
L 715.926934 79.859934 
L 715.941254 81.589664 
L 716.012761 80.259105 
L 716.027044 81.589664 
L 716.112621 81.057447 
L 716.126863 79.992997 
L 716.169553 82.254943 
L 716.226391 80.126043 
L 716.353933 81.456602 
L 716.452805 79.859934 
L 716.410467 81.589664 
L 716.509176 80.126043 
L 716.523254 81.323555 
L 716.62164 80.924384 
L 716.663719 79.859934 
L 716.691743 80.791322 
L 716.747722 82.388005 
L 716.80361 81.323555 
L 716.859408 80.259105 
L 716.845467 81.855772 
L 716.901196 80.658276 
L 716.915114 81.323555 
L 716.942933 80.259105 
L 717.012383 80.924384 
L 717.026256 81.323555 
L 717.040123 80.126043 
L 717.095537 81.190493 
L 717.192296 79.859934 
L 717.12321 81.589664 
L 717.206096 81.190493 
L 717.261243 81.589664 
L 717.233681 80.392167 
L 717.275015 80.924384 
L 717.302544 80.126043 
L 717.343796 81.456602 
L 717.37127 81.323555 
L 717.439858 79.859934 
L 717.494629 79.992997 
L 717.59027 84.250781 
L 717.603911 81.190493 
L 717.699247 82.388005 
L 717.726437 79.859934 
L 717.740025 83.319393 
L 717.834984 79.992997 
L 717.970185 81.456602 
L 717.983675 81.456602 
L 718.010641 80.126043 
L 718.077963 81.456602 
L 718.145152 83.85161 
L 718.104854 80.259105 
L 718.171991 81.190493 
L 718.185403 80.126043 
L 718.265763 81.190493 
L 718.345934 80.392167 
L 718.372617 81.722726 
L 718.425919 83.452456 
L 718.492431 80.126043 
L 718.518999 83.984673 
L 718.598582 81.057447 
L 718.664759 79.726888 
L 718.704405 80.126043 
L 718.71761 81.722726 
L 718.823066 81.057447 
L 718.875673 80.126043 
L 718.84938 81.988835 
L 718.915076 80.392167 
L 718.9282 81.855772 
L 719.006839 79.992997 
L 719.019928 80.924384 
L 719.033012 80.924384 
L 719.12446 80.126043 
L 719.085298 81.988835 
L 719.150543 80.525214 
L 719.176607 79.859934 
L 719.189631 80.658276 
L 719.241679 83.186331 
L 719.293648 81.190493 
L 719.358498 81.855772 
L 719.41029 79.859934 
L 719.552316 83.319393 
L 719.61668 79.992997 
L 719.603817 83.85161 
L 719.668083 80.924384 
L 719.693757 80.126043 
L 719.706586 80.924384 
L 719.757855 81.988835 
L 719.796257 79.859934 
L 719.834615 80.791322 
L 719.821834 79.726888 
L 719.847392 80.525214 
L 719.860164 84.117735 
L 719.911204 80.259105 
L 719.949435 80.658276 
L 720.038473 83.319393 
L 720.06387 81.057447 
L 720.127281 79.992997 
L 720.152612 81.855772 
L 720.177925 80.126043 
L 720.228495 80.525214 
L 720.241126 83.585502 
L 720.253752 80.126043 
L 720.329411 80.658276 
L 720.354593 80.658276 
L 720.442587 80.259105 
L 720.480229 81.722726 
L 720.55539 80.126043 
L 720.580408 80.658276 
L 720.667824 82.121897 
L 720.630387 80.525214 
L 720.680294 80.791322 
L 720.755018 81.323555 
L 720.792319 79.859934 
L 720.90398 81.057447 
L 720.965857 80.126043 
L 721.002929 80.658276 
L 721.039962 81.722726 
L 721.101594 80.126043 
L 721.113907 80.658276 
L 721.126215 79.992997 
L 721.150819 81.456602 
L 721.224526 80.525214 
L 721.24906 80.658276 
L 721.298074 80.259105 
L 721.310317 81.190493 
L 721.408102 80.392167 
L 721.420305 80.392167 
L 721.432504 80.525214 
L 721.444699 80.126043 
L 721.45689 82.121897 
L 721.554258 80.525214 
L 721.578557 80.126043 
L 721.687689 82.787176 
L 721.699793 83.452456 
L 721.711893 80.259105 
L 721.760251 80.924384 
L 721.844713 80.392167 
L 721.808541 83.452456 
L 721.856762 80.791322 
L 721.953003 83.186331 
L 721.904916 80.392167 
L 721.965014 80.924384 
L 722.013016 80.259105 
L 722.001022 81.190493 
L 722.072924 80.924384 
L 722.096858 80.392167 
L 722.108819 81.855772 
L 722.144676 80.126043 
L 722.204355 80.658276 
L 722.252024 80.525214 
L 722.26393 80.791322 
L 722.275833 82.388005 
L 722.299626 80.392167 
L 722.370905 80.658276 
L 722.453878 79.859934 
L 722.53665 83.585502 
L 722.560263 80.791322 
L 722.595651 79.859934 
L 722.642779 80.924384 
L 722.65455 80.126043 
L 722.678082 83.718564 
L 722.760315 81.190493 
L 722.795497 82.121897 
L 722.889141 79.859934 
L 723.005837 82.388005 
L 723.122137 80.126043 
L 723.14535 85.315231 
L 723.238044 80.924384 
L 723.249613 80.791322 
L 723.284297 84.117735 
L 723.295851 80.126043 
L 723.35356 81.988835 
L 723.43419 79.726888 
L 723.468688 80.392167 
L 723.571974 81.057447 
L 723.617779 83.319393 
L 723.674949 79.992997 
L 723.709206 82.388005 
L 723.777616 81.988835 
L 723.789005 79.992997 
L 723.834521 83.984673 
L 723.868618 83.452456 
L 723.879976 87.843303 
L 723.891331 80.525214 
L 723.970707 80.525214 
L 724.00467 84.51689 
L 724.038598 80.259105 
L 724.072494 81.589664 
L 724.106355 80.126043 
L 724.095072 82.654114 
L 724.151452 82.254943 
L 724.162717 86.64579 
L 724.185236 80.126043 
L 724.252704 80.658276 
L 724.263935 80.525214 
L 724.275163 82.521052 
L 724.376051 80.791322 
L 724.387242 80.259105 
L 724.420794 81.722726 
L 724.487801 80.392167 
L 724.565809 83.053285 
L 724.610306 82.521052 
L 724.621421 79.992997 
L 724.721296 81.323555 
L 724.732375 84.250781 
L 724.765591 80.525214 
L 724.831928 81.323555 
L 724.842971 81.323555 
L 724.865047 82.254943 
L 724.87608 81.057447 
L 724.931192 83.053285 
L 724.909158 80.525214 
L 724.975217 81.589664 
L 725.063098 80.259105 
L 725.008199 82.787176 
L 725.085033 81.323555 
L 725.150755 85.58134 
L 725.11791 80.924384 
L 725.183568 81.190493 
L 725.194499 81.190493 
L 725.270917 80.924384 
L 725.314509 86.246619 
L 725.336283 80.924384 
L 725.4341 81.323555 
L 725.444951 83.984673 
L 725.509986 81.057447 
L 725.542458 81.988835 
L 725.564088 81.323555 
L 725.596509 83.319393 
L 725.607309 83.053285 
L 725.672037 81.190493 
L 725.704356 85.315231 
L 725.725884 81.988835 
L 725.779647 90.50442 
L 725.822596 82.920223 
L 725.844051 82.654114 
L 725.940431 87.577178 
L 726.025875 82.920223 
L 726.047202 86.113573 
L 726.068517 83.718564 
L 726.153642 93.165537 
L 726.196126 83.452456 
L 726.270346 84.383843 
L 726.344406 84.117735 
L 726.386654 94.363034 
L 726.42885 84.916061 
L 726.502568 90.50442 
L 726.534113 84.51689 
L 726.555127 105.672799 
L 726.597116 89.306908 
L 726.670474 100.749735 
L 726.701865 88.77469 
L 726.743675 86.778852 
L 726.806294 106.07197 
L 726.847977 86.512744 
L 726.868799 88.508582 
L 726.983097 178.5875 
L 727.44675 178.5875 
L 727.44675 178.5875 
" clip-path="url(#pa1d99bcf19)" style="fill: none; stroke: #1f77b4; stroke-width: 1.5; stroke-linecap: square"/>
   </g>
   <g id="patch_3">
    <path d="M 370.32675 311.6435 
L 370.32675 45.5315 
" style="fill: none; stroke: #000000; stroke-width: 0.8; stroke-linejoin: miter; stroke-linecap: square"/>
   </g>
   <g id="patch_4">
    <path d="M 727.44675 311.6435 
L 727.44675 45.5315 
" style="fill: none; stroke: #000000; stroke-width: 0.8; stroke-linejoin: miter; stroke-linecap: square"/>
   </g>
   <g id="patch_5">
    <path d="M 370.32675 311.6435 
L 727.44675 311.6435 
" style="fill: none; stroke: #000000; stroke-width: 0.8; stroke-linejoin: miter; stroke-linecap: square"/>
   </g>
   <g id="patch_6">
    <path d="M 370.32675 45.5315 
L 727.44675 45.5315 
" style="fill: none; stroke: #000000; stroke-width: 0.8; stroke-linejoin: miter; stroke-linecap: square"/>
   </g>
   <g id="text_18">
    <!-- Accuracy of the 08_05_25_CIFAR10_model_(1024+512+512+512+1)_1_save_3 on the validation set -->
    <g transform="translate(7.2 25.5315) scale(0.264 -0.264)">
     <defs>
      <path id="TimesNewRomanPSMT-20" transform="scale(0.015625)"/>
      <path id="TimesNewRomanPSMT-6f" d="M 1600 2947 
Q 2250 2947 2644 2453 
Q 2978 2031 2978 1484 
Q 2978 1100 2793 706 
Q 2609 313 2286 112 
Q 1963 -88 1566 -88 
Q 919 -88 538 428 
Q 216 863 216 1403 
Q 216 1797 411 2186 
Q 606 2575 925 2761 
Q 1244 2947 1600 2947 
z
M 1503 2744 
Q 1338 2744 1170 2645 
Q 1003 2547 900 2300 
Q 797 2053 797 1666 
Q 797 1041 1045 587 
Q 1294 134 1700 134 
Q 2003 134 2200 384 
Q 2397 634 2397 1244 
Q 2397 2006 2069 2444 
Q 1847 2744 1503 2744 
z
" transform="scale(0.015625)"/>
      <path id="TimesNewRomanPSMT-66" d="M 1319 2638 
L 1319 756 
Q 1319 356 1406 250 
Q 1522 113 1716 113 
L 1975 113 
L 1975 0 
L 266 0 
L 266 113 
L 394 113 
Q 519 113 622 175 
Q 725 238 764 344 
Q 803 450 803 756 
L 803 2638 
L 247 2638 
L 247 2863 
L 803 2863 
L 803 3050 
Q 803 3478 940 3775 
Q 1078 4072 1361 4255 
Q 1644 4438 1997 4438 
Q 2325 4438 2600 4225 
Q 2781 4084 2781 3909 
Q 2781 3816 2700 3733 
Q 2619 3650 2525 3650 
Q 2453 3650 2373 3701 
Q 2294 3753 2178 3923 
Q 2063 4094 1966 4153 
Q 1869 4213 1750 4213 
Q 1606 4213 1506 4136 
Q 1406 4059 1362 3898 
Q 1319 3738 1319 3069 
L 1319 2863 
L 2056 2863 
L 2056 2638 
L 1319 2638 
z
" transform="scale(0.015625)"/>
      <path id="TimesNewRomanPSMT-74" d="M 1031 3803 
L 1031 2863 
L 1700 2863 
L 1700 2644 
L 1031 2644 
L 1031 788 
Q 1031 509 1111 412 
Q 1191 316 1316 316 
Q 1419 316 1516 380 
Q 1613 444 1666 569 
L 1788 569 
Q 1678 263 1478 108 
Q 1278 -47 1066 -47 
Q 922 -47 784 33 
Q 647 113 581 261 
Q 516 409 516 719 
L 516 2644 
L 63 2644 
L 63 2747 
Q 234 2816 414 2980 
Q 594 3144 734 3369 
Q 806 3488 934 3803 
L 1031 3803 
z
" transform="scale(0.015625)"/>
      <path id="TimesNewRomanPSMT-68" d="M 1041 4444 
L 1041 2350 
Q 1388 2731 1591 2839 
Q 1794 2947 1997 2947 
Q 2241 2947 2416 2812 
Q 2591 2678 2675 2391 
Q 2734 2191 2734 1659 
L 2734 647 
Q 2734 375 2778 275 
Q 2809 200 2884 156 
Q 2959 113 3159 113 
L 3159 0 
L 1753 0 
L 1753 113 
L 1819 113 
Q 2019 113 2097 173 
Q 2175 234 2206 353 
Q 2216 403 2216 647 
L 2216 1659 
Q 2216 2128 2167 2275 
Q 2119 2422 2012 2495 
Q 1906 2569 1756 2569 
Q 1603 2569 1437 2487 
Q 1272 2406 1041 2159 
L 1041 647 
Q 1041 353 1073 281 
Q 1106 209 1195 161 
Q 1284 113 1503 113 
L 1503 0 
L 84 0 
L 84 113 
Q 275 113 384 172 
Q 447 203 484 290 
Q 522 378 522 647 
L 522 3238 
Q 522 3728 498 3840 
Q 475 3953 426 3993 
Q 378 4034 297 4034 
Q 231 4034 84 3984 
L 41 4094 
L 897 4444 
L 1041 4444 
z
" transform="scale(0.015625)"/>
      <path id="TimesNewRomanPSMT-65" d="M 681 1784 
Q 678 1147 991 784 
Q 1303 422 1725 422 
Q 2006 422 2214 576 
Q 2422 731 2563 1106 
L 2659 1044 
Q 2594 616 2278 264 
Q 1963 -88 1488 -88 
Q 972 -88 605 314 
Q 238 716 238 1394 
Q 238 2128 614 2539 
Q 991 2950 1559 2950 
Q 2041 2950 2350 2633 
Q 2659 2316 2659 1784 
L 681 1784 
z
M 681 1966 
L 2006 1966 
Q 1991 2241 1941 2353 
Q 1863 2528 1708 2628 
Q 1553 2728 1384 2728 
Q 1125 2728 920 2526 
Q 716 2325 681 1966 
z
" transform="scale(0.015625)"/>
      <path id="TimesNewRomanPSMT-5f" d="M 3256 -1381 
L -53 -1381 
L -53 -1119 
L 3256 -1119 
L 3256 -1381 
z
" transform="scale(0.015625)"/>
      <path id="TimesNewRomanPSMT-43" d="M 3853 4334 
L 3950 2894 
L 3853 2894 
Q 3659 3541 3300 3825 
Q 2941 4109 2438 4109 
Q 2016 4109 1675 3895 
Q 1334 3681 1139 3212 
Q 944 2744 944 2047 
Q 944 1472 1128 1050 
Q 1313 628 1683 403 
Q 2053 178 2528 178 
Q 2941 178 3256 354 
Q 3572 531 3950 1056 
L 4047 994 
Q 3728 428 3303 165 
Q 2878 -97 2294 -97 
Q 1241 -97 663 684 
Q 231 1266 231 2053 
Q 231 2688 515 3219 
Q 800 3750 1298 4042 
Q 1797 4334 2388 4334 
Q 2847 4334 3294 4109 
Q 3425 4041 3481 4041 
Q 3566 4041 3628 4100 
Q 3709 4184 3744 4334 
L 3853 4334 
z
" transform="scale(0.015625)"/>
      <path id="TimesNewRomanPSMT-49" d="M 1975 116 
L 1975 0 
L 159 0 
L 159 116 
L 309 116 
Q 572 116 691 269 
Q 766 369 766 750 
L 766 3488 
Q 766 3809 725 3913 
Q 694 3991 597 4047 
Q 459 4122 309 4122 
L 159 4122 
L 159 4238 
L 1975 4238 
L 1975 4122 
L 1822 4122 
Q 1563 4122 1444 3969 
Q 1366 3869 1366 3488 
L 1366 750 
Q 1366 428 1406 325 
Q 1438 247 1538 191 
Q 1672 116 1822 116 
L 1975 116 
z
" transform="scale(0.015625)"/>
      <path id="TimesNewRomanPSMT-46" d="M 1309 4006 
L 1309 2341 
L 2081 2341 
Q 2347 2341 2470 2458 
Q 2594 2575 2634 2922 
L 2750 2922 
L 2750 1488 
L 2634 1488 
Q 2631 1734 2570 1850 
Q 2509 1966 2401 2023 
Q 2294 2081 2081 2081 
L 1309 2081 
L 1309 750 
Q 1309 428 1350 325 
Q 1381 247 1481 191 
Q 1619 116 1769 116 
L 1922 116 
L 1922 0 
L 103 0 
L 103 116 
L 253 116 
Q 516 116 634 269 
Q 709 369 709 750 
L 709 3488 
Q 709 3809 669 3913 
Q 638 3991 541 4047 
Q 406 4122 253 4122 
L 103 4122 
L 103 4238 
L 3256 4238 
L 3297 3306 
L 3188 3306 
Q 3106 3603 2998 3742 
Q 2891 3881 2733 3943 
Q 2575 4006 2244 4006 
L 1309 4006 
z
" transform="scale(0.015625)"/>
      <path id="TimesNewRomanPSMT-52" d="M 4325 0 
L 3194 0 
L 1759 1981 
Q 1600 1975 1500 1975 
Q 1459 1975 1412 1976 
Q 1366 1978 1316 1981 
L 1316 750 
Q 1316 350 1403 253 
Q 1522 116 1759 116 
L 1925 116 
L 1925 0 
L 109 0 
L 109 116 
L 269 116 
Q 538 116 653 291 
Q 719 388 719 750 
L 719 3488 
Q 719 3888 631 3984 
Q 509 4122 269 4122 
L 109 4122 
L 109 4238 
L 1653 4238 
Q 2328 4238 2648 4139 
Q 2969 4041 3192 3777 
Q 3416 3513 3416 3147 
Q 3416 2756 3161 2468 
Q 2906 2181 2372 2063 
L 3247 847 
Q 3547 428 3762 290 
Q 3978 153 4325 116 
L 4325 0 
z
M 1316 2178 
Q 1375 2178 1419 2176 
Q 1463 2175 1491 2175 
Q 2097 2175 2405 2437 
Q 2713 2700 2713 3106 
Q 2713 3503 2464 3751 
Q 2216 4000 1806 4000 
Q 1625 4000 1316 3941 
L 1316 2178 
z
" transform="scale(0.015625)"/>
      <path id="TimesNewRomanPSMT-6d" d="M 1050 2338 
Q 1363 2650 1419 2697 
Q 1559 2816 1721 2881 
Q 1884 2947 2044 2947 
Q 2313 2947 2506 2790 
Q 2700 2634 2766 2338 
Q 3088 2713 3309 2830 
Q 3531 2947 3766 2947 
Q 3994 2947 4170 2830 
Q 4347 2713 4450 2447 
Q 4519 2266 4519 1878 
L 4519 647 
Q 4519 378 4559 278 
Q 4591 209 4675 161 
Q 4759 113 4950 113 
L 4950 0 
L 3538 0 
L 3538 113 
L 3597 113 
Q 3781 113 3884 184 
Q 3956 234 3988 344 
Q 4000 397 4000 647 
L 4000 1878 
Q 4000 2228 3916 2372 
Q 3794 2572 3525 2572 
Q 3359 2572 3192 2489 
Q 3025 2406 2788 2181 
L 2781 2147 
L 2788 2013 
L 2788 647 
Q 2788 353 2820 281 
Q 2853 209 2943 161 
Q 3034 113 3253 113 
L 3253 0 
L 1806 0 
L 1806 113 
Q 2044 113 2133 169 
Q 2222 225 2256 338 
Q 2272 391 2272 647 
L 2272 1878 
Q 2272 2228 2169 2381 
Q 2031 2581 1784 2581 
Q 1616 2581 1450 2491 
Q 1191 2353 1050 2181 
L 1050 647 
Q 1050 366 1089 281 
Q 1128 197 1204 155 
Q 1281 113 1516 113 
L 1516 0 
L 100 0 
L 100 113 
Q 297 113 375 155 
Q 453 197 493 289 
Q 534 381 534 647 
L 534 1741 
Q 534 2213 506 2350 
Q 484 2453 437 2492 
Q 391 2531 309 2531 
Q 222 2531 100 2484 
L 53 2597 
L 916 2947 
L 1050 2947 
L 1050 2338 
z
" transform="scale(0.015625)"/>
      <path id="TimesNewRomanPSMT-64" d="M 2222 322 
Q 2013 103 1813 7 
Q 1613 -88 1381 -88 
Q 913 -88 563 304 
Q 213 697 213 1313 
Q 213 1928 600 2439 
Q 988 2950 1597 2950 
Q 1975 2950 2222 2709 
L 2222 3238 
Q 2222 3728 2198 3840 
Q 2175 3953 2125 3993 
Q 2075 4034 2000 4034 
Q 1919 4034 1784 3984 
L 1744 4094 
L 2597 4444 
L 2738 4444 
L 2738 1134 
Q 2738 631 2761 520 
Q 2784 409 2836 365 
Q 2888 322 2956 322 
Q 3041 322 3181 375 
L 3216 266 
L 2366 -88 
L 2222 -88 
L 2222 322 
z
M 2222 541 
L 2222 2016 
Q 2203 2228 2109 2403 
Q 2016 2578 1861 2667 
Q 1706 2756 1559 2756 
Q 1284 2756 1069 2509 
Q 784 2184 784 1559 
Q 784 928 1059 592 
Q 1334 256 1672 256 
Q 1956 256 2222 541 
z
" transform="scale(0.015625)"/>
      <path id="TimesNewRomanPSMT-6c" d="M 1184 4444 
L 1184 647 
Q 1184 378 1223 290 
Q 1263 203 1344 158 
Q 1425 113 1647 113 
L 1647 0 
L 244 0 
L 244 113 
Q 441 113 512 153 
Q 584 194 625 287 
Q 666 381 666 647 
L 666 3247 
Q 666 3731 644 3842 
Q 622 3953 573 3993 
Q 525 4034 450 4034 
Q 369 4034 244 3984 
L 191 4094 
L 1044 4444 
L 1184 4444 
z
" transform="scale(0.015625)"/>
      <path id="TimesNewRomanPSMT-28" d="M 1988 -1253 
L 1988 -1369 
Q 1516 -1131 1200 -813 
Q 750 -359 506 256 
Q 263 872 263 1534 
Q 263 2503 741 3301 
Q 1219 4100 1988 4444 
L 1988 4313 
Q 1603 4100 1356 3731 
Q 1109 3363 987 2797 
Q 866 2231 866 1616 
Q 866 947 969 400 
Q 1050 -31 1165 -292 
Q 1281 -553 1476 -793 
Q 1672 -1034 1988 -1253 
z
" transform="scale(0.015625)"/>
      <path id="TimesNewRomanPSMT-2b" d="M 1672 441 
L 1672 2000 
L 116 2000 
L 116 2256 
L 1672 2256 
L 1672 3809 
L 1922 3809 
L 1922 2256 
L 3484 2256 
L 3484 2000 
L 1922 2000 
L 1922 441 
L 1672 441 
z
" transform="scale(0.015625)"/>
      <path id="TimesNewRomanPSMT-29" d="M 144 4313 
L 144 4444 
Q 619 4209 934 3891 
Q 1381 3434 1625 2820 
Q 1869 2206 1869 1541 
Q 1869 572 1392 -226 
Q 916 -1025 144 -1369 
L 144 -1253 
Q 528 -1038 776 -670 
Q 1025 -303 1145 264 
Q 1266 831 1266 1447 
Q 1266 2113 1163 2663 
Q 1084 3094 967 3353 
Q 850 3613 656 3853 
Q 463 4094 144 4313 
z
" transform="scale(0.015625)"/>
      <path id="TimesNewRomanPSMT-73" d="M 2050 2947 
L 2050 1972 
L 1947 1972 
Q 1828 2431 1642 2597 
Q 1456 2763 1169 2763 
Q 950 2763 815 2647 
Q 681 2531 681 2391 
Q 681 2216 781 2091 
Q 878 1963 1175 1819 
L 1631 1597 
Q 2266 1288 2266 781 
Q 2266 391 1970 151 
Q 1675 -88 1309 -88 
Q 1047 -88 709 6 
Q 606 38 541 38 
Q 469 38 428 -44 
L 325 -44 
L 325 978 
L 428 978 
Q 516 541 762 319 
Q 1009 97 1316 97 
Q 1531 97 1667 223 
Q 1803 350 1803 528 
Q 1803 744 1651 891 
Q 1500 1038 1047 1263 
Q 594 1488 453 1669 
Q 313 1847 313 2119 
Q 313 2472 555 2709 
Q 797 2947 1181 2947 
Q 1350 2947 1591 2875 
Q 1750 2828 1803 2828 
Q 1853 2828 1881 2850 
Q 1909 2872 1947 2947 
L 2050 2947 
z
" transform="scale(0.015625)"/>
      <path id="TimesNewRomanPSMT-76" d="M 53 2863 
L 1400 2863 
L 1400 2747 
L 1313 2747 
Q 1191 2747 1127 2687 
Q 1063 2628 1063 2528 
Q 1063 2419 1128 2269 
L 1794 688 
L 2463 2328 
Q 2534 2503 2534 2594 
Q 2534 2638 2509 2666 
Q 2475 2713 2422 2730 
Q 2369 2747 2206 2747 
L 2206 2863 
L 3141 2863 
L 3141 2747 
Q 2978 2734 2916 2681 
Q 2806 2588 2719 2369 
L 1703 -88 
L 1575 -88 
L 553 2328 
Q 484 2497 421 2570 
Q 359 2644 263 2694 
Q 209 2722 53 2747 
L 53 2863 
z
" transform="scale(0.015625)"/>
      <path id="TimesNewRomanPSMT-6e" d="M 1034 2341 
Q 1538 2947 1994 2947 
Q 2228 2947 2397 2830 
Q 2566 2713 2666 2444 
Q 2734 2256 2734 1869 
L 2734 647 
Q 2734 375 2778 278 
Q 2813 200 2889 156 
Q 2966 113 3172 113 
L 3172 0 
L 1756 0 
L 1756 113 
L 1816 113 
Q 2016 113 2095 173 
Q 2175 234 2206 353 
Q 2219 400 2219 647 
L 2219 1819 
Q 2219 2209 2117 2386 
Q 2016 2563 1775 2563 
Q 1403 2563 1034 2156 
L 1034 647 
Q 1034 356 1069 288 
Q 1113 197 1189 155 
Q 1266 113 1500 113 
L 1500 0 
L 84 0 
L 84 113 
L 147 113 
Q 366 113 442 223 
Q 519 334 519 647 
L 519 1709 
Q 519 2225 495 2337 
Q 472 2450 423 2490 
Q 375 2531 294 2531 
Q 206 2531 84 2484 
L 38 2597 
L 900 2947 
L 1034 2947 
L 1034 2341 
z
" transform="scale(0.015625)"/>
      <path id="TimesNewRomanPSMT-69" d="M 928 4444 
Q 1059 4444 1151 4351 
Q 1244 4259 1244 4128 
Q 1244 3997 1151 3903 
Q 1059 3809 928 3809 
Q 797 3809 703 3903 
Q 609 3997 609 4128 
Q 609 4259 701 4351 
Q 794 4444 928 4444 
z
M 1188 2947 
L 1188 647 
Q 1188 378 1227 289 
Q 1266 200 1342 156 
Q 1419 113 1622 113 
L 1622 0 
L 231 0 
L 231 113 
Q 441 113 512 153 
Q 584 194 626 287 
Q 669 381 669 647 
L 669 1750 
Q 669 2216 641 2353 
Q 619 2453 572 2492 
Q 525 2531 444 2531 
Q 356 2531 231 2484 
L 188 2597 
L 1050 2947 
L 1188 2947 
z
" transform="scale(0.015625)"/>
     </defs>
     <use xlink:href="#TimesNewRomanPSMT-41"/>
     <use xlink:href="#TimesNewRomanPSMT-63" transform="translate(72.216797 0)"/>
     <use xlink:href="#TimesNewRomanPSMT-63" transform="translate(116.601562 0)"/>
     <use xlink:href="#TimesNewRomanPSMT-75" transform="translate(160.986328 0)"/>
     <use xlink:href="#TimesNewRomanPSMT-72" transform="translate(210.986328 0)"/>
     <use xlink:href="#TimesNewRomanPSMT-61" transform="translate(244.287109 0)"/>
     <use xlink:href="#TimesNewRomanPSMT-63" transform="translate(288.671875 0)"/>
     <use xlink:href="#TimesNewRomanPSMT-79" transform="translate(333.056641 0)"/>
     <use xlink:href="#TimesNewRomanPSMT-20" transform="translate(383.056641 0)"/>
     <use xlink:href="#TimesNewRomanPSMT-6f" transform="translate(408.056641 0)"/>
     <use xlink:href="#TimesNewRomanPSMT-66" transform="translate(458.056641 0)"/>
     <use xlink:href="#TimesNewRomanPSMT-20" transform="translate(491.357422 0)"/>
     <use xlink:href="#TimesNewRomanPSMT-74" transform="translate(516.357422 0)"/>
     <use xlink:href="#TimesNewRomanPSMT-68" transform="translate(544.140625 0)"/>
     <use xlink:href="#TimesNewRomanPSMT-65" transform="translate(594.140625 0)"/>
     <use xlink:href="#TimesNewRomanPSMT-20" transform="translate(638.525391 0)"/>
     <use xlink:href="#TimesNewRomanPSMT-30" transform="translate(663.525391 0)"/>
     <use xlink:href="#TimesNewRomanPSMT-38" transform="translate(713.525391 0)"/>
     <use xlink:href="#TimesNewRomanPSMT-5f" transform="translate(763.525391 0)"/>
     <use xlink:href="#TimesNewRomanPSMT-30" transform="translate(813.525391 0)"/>
     <use xlink:href="#TimesNewRomanPSMT-35" transform="translate(863.525391 0)"/>
     <use xlink:href="#TimesNewRomanPSMT-5f" transform="translate(913.525391 0)"/>
     <use xlink:href="#TimesNewRomanPSMT-32" transform="translate(963.525391 0)"/>
     <use xlink:href="#TimesNewRomanPSMT-35" transform="translate(1013.525391 0)"/>
     <use xlink:href="#TimesNewRomanPSMT-5f" transform="translate(1063.525391 0)"/>
     <use xlink:href="#TimesNewRomanPSMT-43" transform="translate(1113.525391 0)"/>
     <use xlink:href="#TimesNewRomanPSMT-49" transform="translate(1180.224609 0)"/>
     <use xlink:href="#TimesNewRomanPSMT-46" transform="translate(1213.525391 0)"/>
     <use xlink:href="#TimesNewRomanPSMT-41" transform="translate(1261.765625 0)"/>
     <use xlink:href="#TimesNewRomanPSMT-52" transform="translate(1333.982422 0)"/>
     <use xlink:href="#TimesNewRomanPSMT-31" transform="translate(1400.681641 0)"/>
     <use xlink:href="#TimesNewRomanPSMT-30" transform="translate(1450.681641 0)"/>
     <use xlink:href="#TimesNewRomanPSMT-5f" transform="translate(1500.681641 0)"/>
     <use xlink:href="#TimesNewRomanPSMT-6d" transform="translate(1550.681641 0)"/>
     <use xlink:href="#TimesNewRomanPSMT-6f" transform="translate(1628.464844 0)"/>
     <use xlink:href="#TimesNewRomanPSMT-64" transform="translate(1678.464844 0)"/>
     <use xlink:href="#TimesNewRomanPSMT-65" transform="translate(1728.464844 0)"/>
     <use xlink:href="#TimesNewRomanPSMT-6c" transform="translate(1772.849609 0)"/>
     <use xlink:href="#TimesNewRomanPSMT-5f" transform="translate(1800.632812 0)"/>
     <use xlink:href="#TimesNewRomanPSMT-28" transform="translate(1850.632812 0)"/>
     <use xlink:href="#TimesNewRomanPSMT-31" transform="translate(1883.933594 0)"/>
     <use xlink:href="#TimesNewRomanPSMT-30" transform="translate(1933.933594 0)"/>
     <use xlink:href="#TimesNewRomanPSMT-32" transform="translate(1983.933594 0)"/>
     <use xlink:href="#TimesNewRomanPSMT-34" transform="translate(2033.933594 0)"/>
     <use xlink:href="#TimesNewRomanPSMT-2b" transform="translate(2083.933594 0)"/>
     <use xlink:href="#TimesNewRomanPSMT-35" transform="translate(2140.330078 0)"/>
     <use xlink:href="#TimesNewRomanPSMT-31" transform="translate(2190.330078 0)"/>
     <use xlink:href="#TimesNewRomanPSMT-32" transform="translate(2240.330078 0)"/>
     <use xlink:href="#TimesNewRomanPSMT-2b" transform="translate(2290.330078 0)"/>
     <use xlink:href="#TimesNewRomanPSMT-35" transform="translate(2346.726562 0)"/>
     <use xlink:href="#TimesNewRomanPSMT-31" transform="translate(2396.726562 0)"/>
     <use xlink:href="#TimesNewRomanPSMT-32" transform="translate(2446.726562 0)"/>
     <use xlink:href="#TimesNewRomanPSMT-2b" transform="translate(2496.726562 0)"/>
     <use xlink:href="#TimesNewRomanPSMT-35" transform="translate(2553.123047 0)"/>
     <use xlink:href="#TimesNewRomanPSMT-31" transform="translate(2603.123047 0)"/>
     <use xlink:href="#TimesNewRomanPSMT-32" transform="translate(2653.123047 0)"/>
     <use xlink:href="#TimesNewRomanPSMT-2b" transform="translate(2703.123047 0)"/>
     <use xlink:href="#TimesNewRomanPSMT-31" transform="translate(2759.519531 0)"/>
     <use xlink:href="#TimesNewRomanPSMT-29" transform="translate(2809.519531 0)"/>
     <use xlink:href="#TimesNewRomanPSMT-5f" transform="translate(2842.820312 0)"/>
     <use xlink:href="#TimesNewRomanPSMT-31" transform="translate(2892.820312 0)"/>
     <use xlink:href="#TimesNewRomanPSMT-5f" transform="translate(2942.820312 0)"/>
     <use xlink:href="#TimesNewRomanPSMT-73" transform="translate(2992.820312 0)"/>
     <use xlink:href="#TimesNewRomanPSMT-61" transform="translate(3031.736328 0)"/>
     <use xlink:href="#TimesNewRomanPSMT-76" transform="translate(3076.121094 0)"/>
     <use xlink:href="#TimesNewRomanPSMT-65" transform="translate(3126.121094 0)"/>
     <use xlink:href="#TimesNewRomanPSMT-5f" transform="translate(3170.505859 0)"/>
     <use xlink:href="#TimesNewRomanPSMT-33" transform="translate(3220.505859 0)"/>
     <use xlink:href="#TimesNewRomanPSMT-20" transform="translate(3270.505859 0)"/>
     <use xlink:href="#TimesNewRomanPSMT-6f" transform="translate(3295.505859 0)"/>
     <use xlink:href="#TimesNewRomanPSMT-6e" transform="translate(3345.505859 0)"/>
     <use xlink:href="#TimesNewRomanPSMT-20" transform="translate(3395.505859 0)"/>
     <use xlink:href="#TimesNewRomanPSMT-74" transform="translate(3420.505859 0)"/>
     <use xlink:href="#TimesNewRomanPSMT-68" transform="translate(3448.289062 0)"/>
     <use xlink:href="#TimesNewRomanPSMT-65" transform="translate(3498.289062 0)"/>
     <use xlink:href="#TimesNewRomanPSMT-20" transform="translate(3542.673828 0)"/>
     <use xlink:href="#TimesNewRomanPSMT-76" transform="translate(3567.673828 0)"/>
     <use xlink:href="#TimesNewRomanPSMT-61" transform="translate(3617.673828 0)"/>
     <use xlink:href="#TimesNewRomanPSMT-6c" transform="translate(3662.058594 0)"/>
     <use xlink:href="#TimesNewRomanPSMT-69" transform="translate(3689.841797 0)"/>
     <use xlink:href="#TimesNewRomanPSMT-64" transform="translate(3717.625 0)"/>
     <use xlink:href="#TimesNewRomanPSMT-61" transform="translate(3767.625 0)"/>
     <use xlink:href="#TimesNewRomanPSMT-74" transform="translate(3812.009766 0)"/>
     <use xlink:href="#TimesNewRomanPSMT-69" transform="translate(3839.792969 0)"/>
     <use xlink:href="#TimesNewRomanPSMT-6f" transform="translate(3867.576172 0)"/>
     <use xlink:href="#TimesNewRomanPSMT-6e" transform="translate(3917.576172 0)"/>
     <use xlink:href="#TimesNewRomanPSMT-20" transform="translate(3967.576172 0)"/>
     <use xlink:href="#TimesNewRomanPSMT-73" transform="translate(3992.576172 0)"/>
     <use xlink:href="#TimesNewRomanPSMT-65" transform="translate(4031.492188 0)"/>
     <use xlink:href="#TimesNewRomanPSMT-74" transform="translate(4075.876953 0)"/>
    </g>
   </g>
   <g id="legend_1">
    <g id="patch_7">
     <path d="M 385.72675 94.278687 
L 622.897063 94.278687 
Q 627.297063 94.278687 627.297063 89.878687 
L 627.297063 60.9315 
Q 627.297063 56.5315 622.897063 56.5315 
L 385.72675 56.5315 
Q 381.32675 56.5315 381.32675 60.9315 
L 381.32675 89.878687 
Q 381.32675 94.278687 385.72675 94.278687 
z
" style="fill: #ffffff; opacity: 0.8; stroke: #cccccc; stroke-linejoin: miter"/>
    </g>
    <g id="line2d_32">
     <path d="M 390.12675 73.0315 
L 412.12675 73.0315 
L 434.12675 73.0315 
" style="fill: none; stroke: #1f77b4; stroke-width: 1.5; stroke-linecap: square"/>
    </g>
    <g id="text_19">
     <!-- Best accuracy 0.87 -->
     <g transform="translate(451.72675 80.7315) scale(0.22 -0.22)">
      <defs>
       <path id="TimesNewRomanPSMT-42" d="M 2956 2163 
Q 3397 2069 3616 1863 
Q 3919 1575 3919 1159 
Q 3919 844 3719 555 
Q 3519 266 3170 133 
Q 2822 0 2106 0 
L 106 0 
L 106 116 
L 266 116 
Q 531 116 647 284 
Q 719 394 719 750 
L 719 3488 
Q 719 3881 628 3984 
Q 506 4122 266 4122 
L 106 4122 
L 106 4238 
L 1938 4238 
Q 2450 4238 2759 4163 
Q 3228 4050 3475 3764 
Q 3722 3478 3722 3106 
Q 3722 2788 3528 2536 
Q 3334 2284 2956 2163 
z
M 1319 2331 
Q 1434 2309 1582 2298 
Q 1731 2288 1909 2288 
Q 2366 2288 2595 2386 
Q 2825 2484 2947 2687 
Q 3069 2891 3069 3131 
Q 3069 3503 2766 3765 
Q 2463 4028 1881 4028 
Q 1569 4028 1319 3959 
L 1319 2331 
z
M 1319 306 
Q 1681 222 2034 222 
Q 2600 222 2897 476 
Q 3194 731 3194 1106 
Q 3194 1353 3059 1581 
Q 2925 1809 2622 1940 
Q 2319 2072 1872 2072 
Q 1678 2072 1540 2065 
Q 1403 2059 1319 2044 
L 1319 306 
z
" transform="scale(0.015625)"/>
      </defs>
      <use xlink:href="#TimesNewRomanPSMT-42"/>
      <use xlink:href="#TimesNewRomanPSMT-65" transform="translate(66.699219 0)"/>
      <use xlink:href="#TimesNewRomanPSMT-73" transform="translate(111.083984 0)"/>
      <use xlink:href="#TimesNewRomanPSMT-74" transform="translate(150 0)"/>
      <use xlink:href="#TimesNewRomanPSMT-20" transform="translate(177.783203 0)"/>
      <use xlink:href="#TimesNewRomanPSMT-61" transform="translate(202.783203 0)"/>
      <use xlink:href="#TimesNewRomanPSMT-63" transform="translate(247.167969 0)"/>
      <use xlink:href="#TimesNewRomanPSMT-63" transform="translate(291.552734 0)"/>
      <use xlink:href="#TimesNewRomanPSMT-75" transform="translate(335.9375 0)"/>
      <use xlink:href="#TimesNewRomanPSMT-72" transform="translate(385.9375 0)"/>
      <use xlink:href="#TimesNewRomanPSMT-61" transform="translate(419.238281 0)"/>
      <use xlink:href="#TimesNewRomanPSMT-63" transform="translate(463.623047 0)"/>
      <use xlink:href="#TimesNewRomanPSMT-79" transform="translate(508.007812 0)"/>
      <use xlink:href="#TimesNewRomanPSMT-20" transform="translate(558.007812 0)"/>
      <use xlink:href="#TimesNewRomanPSMT-30" transform="translate(583.007812 0)"/>
      <use xlink:href="#TimesNewRomanPSMT-2e" transform="translate(633.007812 0)"/>
      <use xlink:href="#TimesNewRomanPSMT-38" transform="translate(658.007812 0)"/>
      <use xlink:href="#TimesNewRomanPSMT-37" transform="translate(708.007812 0)"/>
     </g>
    </g>
   </g>
  </g>
 </g>
 <defs>
  <clipPath id="pa1d99bcf19">
   <rect x="370.32675" y="45.5315" width="357.12" height="266.112"/>
  </clipPath>
 </defs>
</svg>
