<?xml version="1.0" encoding="utf-8" standalone="no"?>
<!DOCTYPE svg PUBLIC "-//W3C//DTD SVG 1.1//EN"
  "http://www.w3.org/Graphics/SVG/1.1/DTD/svg11.dtd">
<svg xmlns:xlink="http://www.w3.org/1999/xlink" width="1120.242375pt" height="383.265687pt" viewBox="0 0 1120.242375 383.265687" xmlns="http://www.w3.org/2000/svg" version="1.1">
 <metadata>
  <rdf:RDF xmlns:dc="http://purl.org/dc/elements/1.1/" xmlns:cc="http://creativecommons.org/ns#" xmlns:rdf="http://www.w3.org/1999/02/22-rdf-syntax-ns#">
   <cc:Work>
    <dc:type rdf:resource="http://purl.org/dc/dcmitype/StillImage"/>
    <dc:date>2025-07-13T10:44:17.894950</dc:date>
    <dc:format>image/svg+xml</dc:format>
    <dc:creator>
     <cc:Agent>
      <dc:title>Matplotlib v3.10.3, https://matplotlib.org/</dc:title>
     </cc:Agent>
    </dc:creator>
   </cc:Work>
  </rdf:RDF>
 </metadata>
 <defs>
  <style type="text/css">*{stroke-linejoin: round; stroke-linecap: butt}</style>
 </defs>
 <g id="figure_1">
  <g id="patch_1">
   <path d="M -0 383.265687 
L 1120.242375 383.265687 
L 1120.242375 0 
L -0 0 
z
" style="fill: #ffffff"/>
  </g>
  <g id="axes_1">
   <g id="patch_2">
    <path d="M 381.561187 311.6435 
L 738.681188 311.6435 
L 738.681188 45.5315 
L 381.561187 45.5315 
z
" style="fill: #ffffff"/>
   </g>
   <g id="matplotlib.axis_1">
    <g id="xtick_1">
     <g id="line2d_1">
      <path d="M 381.561187 311.6435 
L 381.561187 45.5315 
" clip-path="url(#pced24ed3d4)" style="fill: none; stroke: #b0b0b0; stroke-opacity: 0.3; stroke-width: 0.8; stroke-linecap: square"/>
     </g>
     <g id="line2d_2">
      <defs>
       <path id="m033ed1266c" d="M 0 0 
L 0 3.5 
" style="stroke: #000000; stroke-width: 0.8"/>
      </defs>
      <g>
       <use xlink:href="#m033ed1266c" x="381.561187" y="311.6435" style="stroke: #000000; stroke-width: 0.8"/>
      </g>
     </g>
     <g id="text_1">
      <!-- 0.0 -->
      <g transform="translate(367.811187 333.91975) scale(0.22 -0.22)">
       <defs>
        <path id="TimesNewRomanPSMT-30" d="M 231 2094 
Q 231 2819 450 3342 
Q 669 3866 1031 4122 
Q 1313 4325 1613 4325 
Q 2100 4325 2488 3828 
Q 2972 3213 2972 2159 
Q 2972 1422 2759 906 
Q 2547 391 2217 158 
Q 1888 -75 1581 -75 
Q 975 -75 572 641 
Q 231 1244 231 2094 
z
M 844 2016 
Q 844 1141 1059 588 
Q 1238 122 1591 122 
Q 1759 122 1940 273 
Q 2122 425 2216 781 
Q 2359 1319 2359 2297 
Q 2359 3022 2209 3506 
Q 2097 3866 1919 4016 
Q 1791 4119 1609 4119 
Q 1397 4119 1231 3928 
Q 1006 3669 925 3112 
Q 844 2556 844 2016 
z
" transform="scale(0.015625)"/>
        <path id="TimesNewRomanPSMT-2e" d="M 800 606 
Q 947 606 1047 504 
Q 1147 403 1147 259 
Q 1147 116 1045 14 
Q 944 -88 800 -88 
Q 656 -88 554 14 
Q 453 116 453 259 
Q 453 406 554 506 
Q 656 606 800 606 
z
" transform="scale(0.015625)"/>
       </defs>
       <use xlink:href="#TimesNewRomanPSMT-30"/>
       <use xlink:href="#TimesNewRomanPSMT-2e" transform="translate(50 0)"/>
       <use xlink:href="#TimesNewRomanPSMT-30" transform="translate(75 0)"/>
      </g>
     </g>
    </g>
    <g id="xtick_2">
     <g id="line2d_3">
      <path d="M 507.878859 311.6435 
L 507.878859 45.5315 
" clip-path="url(#pced24ed3d4)" style="fill: none; stroke: #b0b0b0; stroke-opacity: 0.3; stroke-width: 0.8; stroke-linecap: square"/>
     </g>
     <g id="line2d_4">
      <g>
       <use xlink:href="#m033ed1266c" x="507.878859" y="311.6435" style="stroke: #000000; stroke-width: 0.8"/>
      </g>
     </g>
     <g id="text_2">
      <!-- 0.5 -->
      <g transform="translate(494.128859 333.91975) scale(0.22 -0.22)">
       <defs>
        <path id="TimesNewRomanPSMT-35" d="M 2778 4238 
L 2534 3706 
L 1259 3706 
L 981 3138 
Q 1809 3016 2294 2522 
Q 2709 2097 2709 1522 
Q 2709 1188 2573 903 
Q 2438 619 2231 419 
Q 2025 219 1772 97 
Q 1413 -75 1034 -75 
Q 653 -75 479 54 
Q 306 184 306 341 
Q 306 428 378 495 
Q 450 563 559 563 
Q 641 563 702 538 
Q 763 513 909 409 
Q 1144 247 1384 247 
Q 1750 247 2026 523 
Q 2303 800 2303 1197 
Q 2303 1581 2056 1914 
Q 1809 2247 1375 2428 
Q 1034 2569 447 2591 
L 1259 4238 
L 2778 4238 
z
" transform="scale(0.015625)"/>
       </defs>
       <use xlink:href="#TimesNewRomanPSMT-30"/>
       <use xlink:href="#TimesNewRomanPSMT-2e" transform="translate(50 0)"/>
       <use xlink:href="#TimesNewRomanPSMT-35" transform="translate(75 0)"/>
      </g>
     </g>
    </g>
    <g id="xtick_3">
     <g id="line2d_5">
      <path d="M 634.19653 311.6435 
L 634.19653 45.5315 
" clip-path="url(#pced24ed3d4)" style="fill: none; stroke: #b0b0b0; stroke-opacity: 0.3; stroke-width: 0.8; stroke-linecap: square"/>
     </g>
     <g id="line2d_6">
      <g>
       <use xlink:href="#m033ed1266c" x="634.19653" y="311.6435" style="stroke: #000000; stroke-width: 0.8"/>
      </g>
     </g>
     <g id="text_3">
      <!-- 1.0 -->
      <g transform="translate(620.44653 333.91975) scale(0.22 -0.22)">
       <defs>
        <path id="TimesNewRomanPSMT-31" d="M 750 3822 
L 1781 4325 
L 1884 4325 
L 1884 747 
Q 1884 391 1914 303 
Q 1944 216 2037 169 
Q 2131 122 2419 116 
L 2419 0 
L 825 0 
L 825 116 
Q 1125 122 1212 167 
Q 1300 213 1334 289 
Q 1369 366 1369 747 
L 1369 3034 
Q 1369 3497 1338 3628 
Q 1316 3728 1258 3775 
Q 1200 3822 1119 3822 
Q 1003 3822 797 3725 
L 750 3822 
z
" transform="scale(0.015625)"/>
       </defs>
       <use xlink:href="#TimesNewRomanPSMT-31"/>
       <use xlink:href="#TimesNewRomanPSMT-2e" transform="translate(50 0)"/>
       <use xlink:href="#TimesNewRomanPSMT-30" transform="translate(75 0)"/>
      </g>
     </g>
    </g>
    <g id="text_4">
     <!-- $\kappa  = \frac{ln(n)}{ln(d)}$ -->
     <g transform="translate(528.111188 364.185687) scale(0.22 -0.22)">
      <defs>
       <path id="STIXGeneral-Italic-3ba" d="M 979 1440 
L 998 1446 
Q 1850 2541 2464 2790 
Q 2547 2822 2630 2822 
Q 2797 2822 2886 2736 
Q 2976 2650 2976 2522 
Q 2976 2387 2893 2307 
Q 2810 2227 2682 2227 
Q 2605 2227 2502 2288 
Q 2400 2349 2336 2349 
Q 2170 2349 1990 2205 
Q 1811 2061 1414 1645 
L 2042 544 
Q 2202 262 2310 182 
Q 2419 102 2624 102 
L 2624 0 
Q 2374 -83 2182 -83 
Q 1786 -83 1555 326 
L 960 1350 
L 576 0 
L 90 0 
L 640 1978 
Q 730 2317 730 2406 
Q 730 2560 518 2560 
L 339 2560 
L 339 2650 
Q 678 2694 1306 2822 
L 1325 2803 
L 979 1440 
z
" transform="scale(0.015625)"/>
       <path id="STIXGeneral-Regular-3d" d="M 4077 2048 
L 307 2048 
L 307 2470 
L 4077 2470 
L 4077 2048 
z
M 4077 768 
L 307 768 
L 307 1190 
L 4077 1190 
L 4077 768 
z
" transform="scale(0.015625)"/>
       <path id="STIXGeneral-Italic-6c" d="M 1786 4339 
L 806 595 
Q 755 410 755 320 
Q 755 205 864 205 
Q 1037 205 1293 570 
L 1453 794 
L 1542 730 
Q 1254 275 1046 102 
Q 838 -70 576 -70 
Q 262 -70 262 288 
Q 262 397 288 480 
L 1165 3834 
Q 1184 3898 1184 3955 
Q 1184 4096 870 4096 
L 755 4096 
L 755 4198 
Q 1203 4250 1747 4371 
L 1786 4339 
z
" transform="scale(0.015625)"/>
       <path id="STIXGeneral-Italic-6e" d="M 2944 749 
L 3034 666 
Q 2707 218 2534 80 
Q 2362 -58 2138 -58 
Q 2010 -58 1923 28 
Q 1837 115 1837 288 
Q 1837 390 1939 768 
L 2221 1805 
Q 2310 2150 2310 2310 
Q 2310 2496 2157 2496 
Q 1971 2496 1750 2275 
Q 1530 2054 1210 1587 
Q 998 1274 899 1024 
Q 800 774 570 0 
L 90 0 
L 704 2240 
Q 717 2304 717 2349 
Q 717 2445 630 2480 
Q 544 2515 301 2522 
L 301 2624 
Q 550 2675 857 2729 
Q 1165 2784 1338 2822 
L 1363 2810 
L 934 1414 
Q 1408 2170 1753 2496 
Q 2099 2822 2413 2822 
Q 2611 2822 2720 2716 
Q 2829 2611 2829 2432 
Q 2829 2272 2765 2048 
L 2406 749 
Q 2317 429 2317 358 
Q 2317 243 2419 243 
Q 2541 243 2810 582 
Q 2854 634 2944 749 
z
" transform="scale(0.015625)"/>
       <path id="STIXGeneral-Regular-28" d="M 1946 -1030 
L 1869 -1133 
Q 1126 -710 716 32 
Q 307 774 307 1613 
Q 307 3386 1888 4326 
L 1946 4224 
Q 1293 3667 1075 3126 
Q 858 2586 858 1632 
Q 858 685 1082 96 
Q 1306 -493 1946 -1030 
z
" transform="scale(0.015625)"/>
       <path id="STIXGeneral-Regular-29" d="M 186 4224 
L 262 4326 
Q 992 3891 1408 3148 
Q 1824 2406 1824 1581 
Q 1824 -166 243 -1133 
L 186 -1030 
Q 845 -486 1059 54 
Q 1274 595 1274 1562 
Q 1274 2534 1059 3120 
Q 845 3706 186 4224 
z
" transform="scale(0.015625)"/>
       <path id="STIXGeneral-Italic-64" d="M 3334 4371 
L 3373 4333 
L 3123 3360 
L 2739 1958 
Q 2323 429 2323 384 
Q 2323 256 2438 256 
Q 2522 256 2614 336 
Q 2707 416 2963 710 
L 3040 646 
Q 2547 -83 2099 -83 
Q 1978 -83 1907 -6 
Q 1837 70 1837 205 
Q 1837 397 1920 774 
Q 1645 307 1379 118 
Q 1114 -70 781 -70 
Q 461 -70 278 125 
Q 96 320 96 678 
Q 96 1440 713 2131 
Q 1331 2822 1965 2822 
Q 2163 2822 2256 2732 
Q 2349 2643 2381 2451 
L 2387 2451 
L 2675 3494 
Q 2765 3808 2765 3949 
Q 2765 4051 2694 4076 
Q 2624 4102 2355 4115 
L 2355 4224 
Q 2848 4269 3334 4371 
z
M 2278 2310 
Q 2278 2477 2185 2576 
Q 2093 2675 1978 2675 
Q 1677 2675 1395 2381 
Q 1075 2042 864 1571 
Q 653 1101 653 704 
Q 653 486 752 361 
Q 851 237 1024 237 
Q 1312 237 1606 550 
Q 1901 864 2089 1350 
Q 2278 1837 2278 2310 
z
" transform="scale(0.015625)"/>
      </defs>
      <use xlink:href="#STIXGeneral-Italic-3ba" transform="translate(0 0.003125)"/>
      <use xlink:href="#STIXGeneral-Regular-3d" transform="translate(58.83999 0.003125)"/>
      <use xlink:href="#STIXGeneral-Italic-6c" transform="translate(141.779971 50.192188) scale(0.7)"/>
      <use xlink:href="#STIXGeneral-Italic-6e" transform="translate(161.239963 50.192188) scale(0.7)"/>
      <use xlink:href="#STIXGeneral-Regular-28" transform="translate(196.239952 50.192188) scale(0.7)"/>
      <use xlink:href="#STIXGeneral-Italic-6e" transform="translate(219.549944 50.192188) scale(0.7)"/>
      <use xlink:href="#STIXGeneral-Regular-29" transform="translate(254.549933 50.192188) scale(0.7)"/>
      <use xlink:href="#STIXGeneral-Italic-6c" transform="translate(141.779971 -41.257812) scale(0.7)"/>
      <use xlink:href="#STIXGeneral-Italic-6e" transform="translate(161.239963 -41.257812) scale(0.7)"/>
      <use xlink:href="#STIXGeneral-Regular-28" transform="translate(196.239952 -41.257812) scale(0.7)"/>
      <use xlink:href="#STIXGeneral-Italic-64" transform="translate(219.549944 -41.257812) scale(0.7)"/>
      <use xlink:href="#STIXGeneral-Regular-29" transform="translate(254.549933 -41.257812) scale(0.7)"/>
      <path d="M 141.779971 12.8 
L 141.779971 19.05 
L 277.859924 19.05 
L 277.859924 12.8 
L 141.779971 12.8 
z
"/>
     </g>
    </g>
   </g>
   <g id="matplotlib.axis_2">
    <g id="ytick_1">
     <g id="line2d_7">
      <path d="M 381.561187 311.6435 
L 738.681188 311.6435 
" clip-path="url(#pced24ed3d4)" style="fill: none; stroke: #b0b0b0; stroke-opacity: 0.3; stroke-width: 0.8; stroke-linecap: square"/>
     </g>
     <g id="line2d_8">
      <defs>
       <path id="m01d94a0621" d="M 0 0 
L -3.5 0 
" style="stroke: #000000; stroke-width: 0.8"/>
      </defs>
      <g>
       <use xlink:href="#m01d94a0621" x="381.561187" y="311.6435" style="stroke: #000000; stroke-width: 0.8"/>
      </g>
     </g>
     <g id="text_5">
      <!-- 0.0 -->
      <g transform="translate(347.061187 319.281625) scale(0.22 -0.22)">
       <use xlink:href="#TimesNewRomanPSMT-30"/>
       <use xlink:href="#TimesNewRomanPSMT-2e" transform="translate(50 0)"/>
       <use xlink:href="#TimesNewRomanPSMT-30" transform="translate(75 0)"/>
      </g>
     </g>
    </g>
    <g id="ytick_2">
     <g id="line2d_9">
      <path d="M 381.561187 285.0323 
L 738.681188 285.0323 
" clip-path="url(#pced24ed3d4)" style="fill: none; stroke: #b0b0b0; stroke-opacity: 0.3; stroke-width: 0.8; stroke-linecap: square"/>
     </g>
     <g id="line2d_10">
      <g>
       <use xlink:href="#m01d94a0621" x="381.561187" y="285.0323" style="stroke: #000000; stroke-width: 0.8"/>
      </g>
     </g>
     <g id="text_6">
      <!-- 0.1 -->
      <g transform="translate(347.061187 292.670425) scale(0.22 -0.22)">
       <use xlink:href="#TimesNewRomanPSMT-30"/>
       <use xlink:href="#TimesNewRomanPSMT-2e" transform="translate(50 0)"/>
       <use xlink:href="#TimesNewRomanPSMT-31" transform="translate(75 0)"/>
      </g>
     </g>
    </g>
    <g id="ytick_3">
     <g id="line2d_11">
      <path d="M 381.561187 258.4211 
L 738.681188 258.4211 
" clip-path="url(#pced24ed3d4)" style="fill: none; stroke: #b0b0b0; stroke-opacity: 0.3; stroke-width: 0.8; stroke-linecap: square"/>
     </g>
     <g id="line2d_12">
      <g>
       <use xlink:href="#m01d94a0621" x="381.561187" y="258.4211" style="stroke: #000000; stroke-width: 0.8"/>
      </g>
     </g>
     <g id="text_7">
      <!-- 0.2 -->
      <g transform="translate(347.061187 266.059225) scale(0.22 -0.22)">
       <defs>
        <path id="TimesNewRomanPSMT-32" d="M 2934 816 
L 2638 0 
L 138 0 
L 138 116 
Q 1241 1122 1691 1759 
Q 2141 2397 2141 2925 
Q 2141 3328 1894 3587 
Q 1647 3847 1303 3847 
Q 991 3847 742 3664 
Q 494 3481 375 3128 
L 259 3128 
Q 338 3706 661 4015 
Q 984 4325 1469 4325 
Q 1984 4325 2329 3994 
Q 2675 3663 2675 3213 
Q 2675 2891 2525 2569 
Q 2294 2063 1775 1497 
Q 997 647 803 472 
L 1909 472 
Q 2247 472 2383 497 
Q 2519 522 2628 598 
Q 2738 675 2819 816 
L 2934 816 
z
" transform="scale(0.015625)"/>
       </defs>
       <use xlink:href="#TimesNewRomanPSMT-30"/>
       <use xlink:href="#TimesNewRomanPSMT-2e" transform="translate(50 0)"/>
       <use xlink:href="#TimesNewRomanPSMT-32" transform="translate(75 0)"/>
      </g>
     </g>
    </g>
    <g id="ytick_4">
     <g id="line2d_13">
      <path d="M 381.561187 231.8099 
L 738.681188 231.8099 
" clip-path="url(#pced24ed3d4)" style="fill: none; stroke: #b0b0b0; stroke-opacity: 0.3; stroke-width: 0.8; stroke-linecap: square"/>
     </g>
     <g id="line2d_14">
      <g>
       <use xlink:href="#m01d94a0621" x="381.561187" y="231.8099" style="stroke: #000000; stroke-width: 0.8"/>
      </g>
     </g>
     <g id="text_8">
      <!-- 0.3 -->
      <g transform="translate(347.061187 239.448025) scale(0.22 -0.22)">
       <defs>
        <path id="TimesNewRomanPSMT-33" d="M 325 3431 
Q 506 3859 782 4092 
Q 1059 4325 1472 4325 
Q 1981 4325 2253 3994 
Q 2459 3747 2459 3466 
Q 2459 3003 1878 2509 
Q 2269 2356 2469 2072 
Q 2669 1788 2669 1403 
Q 2669 853 2319 450 
Q 1863 -75 997 -75 
Q 569 -75 414 31 
Q 259 138 259 259 
Q 259 350 332 419 
Q 406 488 509 488 
Q 588 488 669 463 
Q 722 447 909 348 
Q 1097 250 1169 231 
Q 1284 197 1416 197 
Q 1734 197 1970 444 
Q 2206 691 2206 1028 
Q 2206 1275 2097 1509 
Q 2016 1684 1919 1775 
Q 1784 1900 1550 2001 
Q 1316 2103 1072 2103 
L 972 2103 
L 972 2197 
Q 1219 2228 1467 2375 
Q 1716 2522 1828 2728 
Q 1941 2934 1941 3181 
Q 1941 3503 1739 3701 
Q 1538 3900 1238 3900 
Q 753 3900 428 3381 
L 325 3431 
z
" transform="scale(0.015625)"/>
       </defs>
       <use xlink:href="#TimesNewRomanPSMT-30"/>
       <use xlink:href="#TimesNewRomanPSMT-2e" transform="translate(50 0)"/>
       <use xlink:href="#TimesNewRomanPSMT-33" transform="translate(75 0)"/>
      </g>
     </g>
    </g>
    <g id="ytick_5">
     <g id="line2d_15">
      <path d="M 381.561187 205.1987 
L 738.681188 205.1987 
" clip-path="url(#pced24ed3d4)" style="fill: none; stroke: #b0b0b0; stroke-opacity: 0.3; stroke-width: 0.8; stroke-linecap: square"/>
     </g>
     <g id="line2d_16">
      <g>
       <use xlink:href="#m01d94a0621" x="381.561187" y="205.1987" style="stroke: #000000; stroke-width: 0.8"/>
      </g>
     </g>
     <g id="text_9">
      <!-- 0.4 -->
      <g transform="translate(347.061187 212.836825) scale(0.22 -0.22)">
       <defs>
        <path id="TimesNewRomanPSMT-34" d="M 2978 1563 
L 2978 1119 
L 2409 1119 
L 2409 0 
L 1894 0 
L 1894 1119 
L 100 1119 
L 100 1519 
L 2066 4325 
L 2409 4325 
L 2409 1563 
L 2978 1563 
z
M 1894 1563 
L 1894 3666 
L 406 1563 
L 1894 1563 
z
" transform="scale(0.015625)"/>
       </defs>
       <use xlink:href="#TimesNewRomanPSMT-30"/>
       <use xlink:href="#TimesNewRomanPSMT-2e" transform="translate(50 0)"/>
       <use xlink:href="#TimesNewRomanPSMT-34" transform="translate(75 0)"/>
      </g>
     </g>
    </g>
    <g id="ytick_6">
     <g id="line2d_17">
      <path d="M 381.561187 178.5875 
L 738.681188 178.5875 
" clip-path="url(#pced24ed3d4)" style="fill: none; stroke: #b0b0b0; stroke-opacity: 0.3; stroke-width: 0.8; stroke-linecap: square"/>
     </g>
     <g id="line2d_18">
      <g>
       <use xlink:href="#m01d94a0621" x="381.561187" y="178.5875" style="stroke: #000000; stroke-width: 0.8"/>
      </g>
     </g>
     <g id="text_10">
      <!-- 0.5 -->
      <g transform="translate(347.061187 186.225625) scale(0.22 -0.22)">
       <use xlink:href="#TimesNewRomanPSMT-30"/>
       <use xlink:href="#TimesNewRomanPSMT-2e" transform="translate(50 0)"/>
       <use xlink:href="#TimesNewRomanPSMT-35" transform="translate(75 0)"/>
      </g>
     </g>
    </g>
    <g id="ytick_7">
     <g id="line2d_19">
      <path d="M 381.561187 151.9763 
L 738.681188 151.9763 
" clip-path="url(#pced24ed3d4)" style="fill: none; stroke: #b0b0b0; stroke-opacity: 0.3; stroke-width: 0.8; stroke-linecap: square"/>
     </g>
     <g id="line2d_20">
      <g>
       <use xlink:href="#m01d94a0621" x="381.561187" y="151.9763" style="stroke: #000000; stroke-width: 0.8"/>
      </g>
     </g>
     <g id="text_11">
      <!-- 0.6 -->
      <g transform="translate(347.061187 159.614425) scale(0.22 -0.22)">
       <defs>
        <path id="TimesNewRomanPSMT-36" d="M 2869 4325 
L 2869 4209 
Q 2456 4169 2195 4045 
Q 1934 3922 1679 3669 
Q 1425 3416 1258 3105 
Q 1091 2794 978 2366 
Q 1428 2675 1881 2675 
Q 2316 2675 2634 2325 
Q 2953 1975 2953 1425 
Q 2953 894 2631 456 
Q 2244 -75 1606 -75 
Q 1172 -75 869 213 
Q 275 772 275 1663 
Q 275 2231 503 2743 
Q 731 3256 1154 3653 
Q 1578 4050 1965 4187 
Q 2353 4325 2688 4325 
L 2869 4325 
z
M 925 2138 
Q 869 1716 869 1456 
Q 869 1156 980 804 
Q 1091 453 1309 247 
Q 1469 100 1697 100 
Q 1969 100 2183 356 
Q 2397 613 2397 1088 
Q 2397 1622 2184 2012 
Q 1972 2403 1581 2403 
Q 1463 2403 1327 2353 
Q 1191 2303 925 2138 
z
" transform="scale(0.015625)"/>
       </defs>
       <use xlink:href="#TimesNewRomanPSMT-30"/>
       <use xlink:href="#TimesNewRomanPSMT-2e" transform="translate(50 0)"/>
       <use xlink:href="#TimesNewRomanPSMT-36" transform="translate(75 0)"/>
      </g>
     </g>
    </g>
    <g id="ytick_8">
     <g id="line2d_21">
      <path d="M 381.561187 125.3651 
L 738.681188 125.3651 
" clip-path="url(#pced24ed3d4)" style="fill: none; stroke: #b0b0b0; stroke-opacity: 0.3; stroke-width: 0.8; stroke-linecap: square"/>
     </g>
     <g id="line2d_22">
      <g>
       <use xlink:href="#m01d94a0621" x="381.561187" y="125.3651" style="stroke: #000000; stroke-width: 0.8"/>
      </g>
     </g>
     <g id="text_12">
      <!-- 0.7 -->
      <g transform="translate(347.061187 133.003225) scale(0.22 -0.22)">
       <defs>
        <path id="TimesNewRomanPSMT-37" d="M 644 4238 
L 2916 4238 
L 2916 4119 
L 1503 -88 
L 1153 -88 
L 2419 3728 
L 1253 3728 
Q 900 3728 750 3644 
Q 488 3500 328 3200 
L 238 3234 
L 644 4238 
z
" transform="scale(0.015625)"/>
       </defs>
       <use xlink:href="#TimesNewRomanPSMT-30"/>
       <use xlink:href="#TimesNewRomanPSMT-2e" transform="translate(50 0)"/>
       <use xlink:href="#TimesNewRomanPSMT-37" transform="translate(75 0)"/>
      </g>
     </g>
    </g>
    <g id="ytick_9">
     <g id="line2d_23">
      <path d="M 381.561187 98.7539 
L 738.681188 98.7539 
" clip-path="url(#pced24ed3d4)" style="fill: none; stroke: #b0b0b0; stroke-opacity: 0.3; stroke-width: 0.8; stroke-linecap: square"/>
     </g>
     <g id="line2d_24">
      <g>
       <use xlink:href="#m01d94a0621" x="381.561187" y="98.7539" style="stroke: #000000; stroke-width: 0.8"/>
      </g>
     </g>
     <g id="text_13">
      <!-- 0.8 -->
      <g transform="translate(347.061187 106.392025) scale(0.22 -0.22)">
       <defs>
        <path id="TimesNewRomanPSMT-38" d="M 1228 2134 
Q 725 2547 579 2797 
Q 434 3047 434 3316 
Q 434 3728 753 4026 
Q 1072 4325 1600 4325 
Q 2113 4325 2425 4047 
Q 2738 3769 2738 3413 
Q 2738 3175 2569 2928 
Q 2400 2681 1866 2347 
Q 2416 1922 2594 1678 
Q 2831 1359 2831 1006 
Q 2831 559 2490 242 
Q 2150 -75 1597 -75 
Q 994 -75 656 303 
Q 388 606 388 966 
Q 388 1247 577 1523 
Q 766 1800 1228 2134 
z
M 1719 2469 
Q 2094 2806 2194 3001 
Q 2294 3197 2294 3444 
Q 2294 3772 2109 3958 
Q 1925 4144 1606 4144 
Q 1288 4144 1088 3959 
Q 888 3775 888 3528 
Q 888 3366 970 3203 
Q 1053 3041 1206 2894 
L 1719 2469 
z
M 1375 2016 
Q 1116 1797 991 1539 
Q 866 1281 866 981 
Q 866 578 1086 336 
Q 1306 94 1647 94 
Q 1984 94 2187 284 
Q 2391 475 2391 747 
Q 2391 972 2272 1150 
Q 2050 1481 1375 2016 
z
" transform="scale(0.015625)"/>
       </defs>
       <use xlink:href="#TimesNewRomanPSMT-30"/>
       <use xlink:href="#TimesNewRomanPSMT-2e" transform="translate(50 0)"/>
       <use xlink:href="#TimesNewRomanPSMT-38" transform="translate(75 0)"/>
      </g>
     </g>
    </g>
    <g id="ytick_10">
     <g id="line2d_25">
      <path d="M 381.561187 72.1427 
L 738.681188 72.1427 
" clip-path="url(#pced24ed3d4)" style="fill: none; stroke: #b0b0b0; stroke-opacity: 0.3; stroke-width: 0.8; stroke-linecap: square"/>
     </g>
     <g id="line2d_26">
      <g>
       <use xlink:href="#m01d94a0621" x="381.561187" y="72.1427" style="stroke: #000000; stroke-width: 0.8"/>
      </g>
     </g>
     <g id="text_14">
      <!-- 0.9 -->
      <g transform="translate(347.061187 79.780825) scale(0.22 -0.22)">
       <defs>
        <path id="TimesNewRomanPSMT-39" d="M 338 -88 
L 338 28 
Q 744 34 1094 217 
Q 1444 400 1770 856 
Q 2097 1313 2225 1859 
Q 1734 1544 1338 1544 
Q 891 1544 572 1889 
Q 253 2234 253 2806 
Q 253 3363 572 3797 
Q 956 4325 1575 4325 
Q 2097 4325 2469 3894 
Q 2925 3359 2925 2575 
Q 2925 1869 2578 1258 
Q 2231 647 1613 244 
Q 1109 -88 516 -88 
L 338 -88 
z
M 2275 2091 
Q 2331 2497 2331 2741 
Q 2331 3044 2228 3395 
Q 2125 3747 1936 3934 
Q 1747 4122 1506 4122 
Q 1228 4122 1018 3872 
Q 809 3622 809 3128 
Q 809 2469 1088 2097 
Q 1291 1828 1588 1828 
Q 1731 1828 1928 1897 
Q 2125 1966 2275 2091 
z
" transform="scale(0.015625)"/>
       </defs>
       <use xlink:href="#TimesNewRomanPSMT-30"/>
       <use xlink:href="#TimesNewRomanPSMT-2e" transform="translate(50 0)"/>
       <use xlink:href="#TimesNewRomanPSMT-39" transform="translate(75 0)"/>
      </g>
     </g>
    </g>
    <g id="ytick_11">
     <g id="line2d_27">
      <path d="M 381.561187 45.5315 
L 738.681188 45.5315 
" clip-path="url(#pced24ed3d4)" style="fill: none; stroke: #b0b0b0; stroke-opacity: 0.3; stroke-width: 0.8; stroke-linecap: square"/>
     </g>
     <g id="line2d_28">
      <g>
       <use xlink:href="#m01d94a0621" x="381.561187" y="45.5315" style="stroke: #000000; stroke-width: 0.8"/>
      </g>
     </g>
     <g id="text_15">
      <!-- 1.0 -->
      <g transform="translate(347.061187 53.169625) scale(0.22 -0.22)">
       <use xlink:href="#TimesNewRomanPSMT-31"/>
       <use xlink:href="#TimesNewRomanPSMT-2e" transform="translate(50 0)"/>
       <use xlink:href="#TimesNewRomanPSMT-30" transform="translate(75 0)"/>
      </g>
     </g>
    </g>
    <g id="text_16">
     <!-- Accuracy -->
     <g transform="translate(338.314 220.726094) rotate(-90) scale(0.22 -0.22)">
      <defs>
       <path id="TimesNewRomanPSMT-41" d="M 2928 1419 
L 1288 1419 
L 1000 750 
Q 894 503 894 381 
Q 894 284 986 211 
Q 1078 138 1384 116 
L 1384 0 
L 50 0 
L 50 116 
Q 316 163 394 238 
Q 553 388 747 847 
L 2238 4334 
L 2347 4334 
L 3822 809 
Q 4000 384 4145 257 
Q 4291 131 4550 116 
L 4550 0 
L 2878 0 
L 2878 116 
Q 3131 128 3220 200 
Q 3309 272 3309 375 
Q 3309 513 3184 809 
L 2928 1419 
z
M 2841 1650 
L 2122 3363 
L 1384 1650 
L 2841 1650 
z
" transform="scale(0.015625)"/>
       <path id="TimesNewRomanPSMT-63" d="M 2631 1088 
Q 2516 522 2178 217 
Q 1841 -88 1431 -88 
Q 944 -88 581 321 
Q 219 731 219 1428 
Q 219 2103 620 2525 
Q 1022 2947 1584 2947 
Q 2006 2947 2278 2723 
Q 2550 2500 2550 2259 
Q 2550 2141 2473 2067 
Q 2397 1994 2259 1994 
Q 2075 1994 1981 2113 
Q 1928 2178 1911 2362 
Q 1894 2547 1784 2644 
Q 1675 2738 1481 2738 
Q 1169 2738 978 2506 
Q 725 2200 725 1697 
Q 725 1184 976 792 
Q 1228 400 1656 400 
Q 1963 400 2206 609 
Q 2378 753 2541 1131 
L 2631 1088 
z
" transform="scale(0.015625)"/>
       <path id="TimesNewRomanPSMT-75" d="M 2709 2863 
L 2709 1128 
Q 2709 631 2732 520 
Q 2756 409 2807 365 
Q 2859 322 2928 322 
Q 3025 322 3147 375 
L 3191 266 
L 2334 -88 
L 2194 -88 
L 2194 519 
Q 1825 119 1631 15 
Q 1438 -88 1222 -88 
Q 981 -88 804 51 
Q 628 191 559 409 
Q 491 628 491 1028 
L 491 2306 
Q 491 2509 447 2587 
Q 403 2666 317 2708 
Q 231 2750 6 2747 
L 6 2863 
L 1009 2863 
L 1009 947 
Q 1009 547 1148 422 
Q 1288 297 1484 297 
Q 1619 297 1789 381 
Q 1959 466 2194 703 
L 2194 2325 
Q 2194 2569 2105 2655 
Q 2016 2741 1734 2747 
L 1734 2863 
L 2709 2863 
z
" transform="scale(0.015625)"/>
       <path id="TimesNewRomanPSMT-72" d="M 1038 2947 
L 1038 2303 
Q 1397 2947 1775 2947 
Q 1947 2947 2059 2842 
Q 2172 2738 2172 2600 
Q 2172 2478 2090 2393 
Q 2009 2309 1897 2309 
Q 1788 2309 1652 2417 
Q 1516 2525 1450 2525 
Q 1394 2525 1328 2463 
Q 1188 2334 1038 2041 
L 1038 669 
Q 1038 431 1097 309 
Q 1138 225 1241 169 
Q 1344 113 1538 113 
L 1538 0 
L 72 0 
L 72 113 
Q 291 113 397 181 
Q 475 231 506 341 
Q 522 394 522 644 
L 522 1753 
Q 522 2253 501 2348 
Q 481 2444 426 2487 
Q 372 2531 291 2531 
Q 194 2531 72 2484 
L 41 2597 
L 906 2947 
L 1038 2947 
z
" transform="scale(0.015625)"/>
       <path id="TimesNewRomanPSMT-61" d="M 1822 413 
Q 1381 72 1269 19 
Q 1100 -59 909 -59 
Q 613 -59 420 144 
Q 228 347 228 678 
Q 228 888 322 1041 
Q 450 1253 767 1440 
Q 1084 1628 1822 1897 
L 1822 2009 
Q 1822 2438 1686 2597 
Q 1550 2756 1291 2756 
Q 1094 2756 978 2650 
Q 859 2544 859 2406 
L 866 2225 
Q 866 2081 792 2003 
Q 719 1925 600 1925 
Q 484 1925 411 2006 
Q 338 2088 338 2228 
Q 338 2497 613 2722 
Q 888 2947 1384 2947 
Q 1766 2947 2009 2819 
Q 2194 2722 2281 2516 
Q 2338 2381 2338 1966 
L 2338 994 
Q 2338 584 2353 492 
Q 2369 400 2405 369 
Q 2441 338 2488 338 
Q 2538 338 2575 359 
Q 2641 400 2828 588 
L 2828 413 
Q 2478 -56 2159 -56 
Q 2006 -56 1915 50 
Q 1825 156 1822 413 
z
M 1822 616 
L 1822 1706 
Q 1350 1519 1213 1441 
Q 966 1303 859 1153 
Q 753 1003 753 825 
Q 753 600 887 451 
Q 1022 303 1197 303 
Q 1434 303 1822 616 
z
" transform="scale(0.015625)"/>
       <path id="TimesNewRomanPSMT-79" d="M 38 2863 
L 1372 2863 
L 1372 2747 
L 1306 2747 
Q 1166 2747 1095 2686 
Q 1025 2625 1025 2534 
Q 1025 2413 1128 2197 
L 1825 753 
L 2466 2334 
Q 2519 2463 2519 2588 
Q 2519 2644 2497 2672 
Q 2472 2706 2419 2726 
Q 2366 2747 2231 2747 
L 2231 2863 
L 3163 2863 
L 3163 2747 
Q 3047 2734 2984 2696 
Q 2922 2659 2847 2556 
Q 2819 2513 2741 2316 
L 1575 -541 
Q 1406 -956 1132 -1168 
Q 859 -1381 606 -1381 
Q 422 -1381 303 -1275 
Q 184 -1169 184 -1031 
Q 184 -900 270 -820 
Q 356 -741 506 -741 
Q 609 -741 788 -809 
Q 913 -856 944 -856 
Q 1038 -856 1148 -759 
Q 1259 -663 1372 -384 
L 1575 113 
L 547 2272 
Q 500 2369 397 2513 
Q 319 2622 269 2659 
Q 197 2709 38 2747 
L 38 2863 
z
" transform="scale(0.015625)"/>
      </defs>
      <use xlink:href="#TimesNewRomanPSMT-41"/>
      <use xlink:href="#TimesNewRomanPSMT-63" transform="translate(72.216797 0)"/>
      <use xlink:href="#TimesNewRomanPSMT-63" transform="translate(116.601562 0)"/>
      <use xlink:href="#TimesNewRomanPSMT-75" transform="translate(160.986328 0)"/>
      <use xlink:href="#TimesNewRomanPSMT-72" transform="translate(210.986328 0)"/>
      <use xlink:href="#TimesNewRomanPSMT-61" transform="translate(244.287109 0)"/>
      <use xlink:href="#TimesNewRomanPSMT-63" transform="translate(288.671875 0)"/>
      <use xlink:href="#TimesNewRomanPSMT-79" transform="translate(333.056641 0)"/>
     </g>
    </g>
   </g>
   <g id="line2d_29">
    <path d="M 381.561187 178.321391 
L 468.97707 165.252331 
L 492.545939 162.635562 
L 506.741297 160.846701 
L 516.931646 160.033577 
L 524.886556 159.649189 
L 531.412495 158.61432 
L 536.945503 158.362979 
L 541.748209 156.840242 
L 545.991112 156.70718 
L 549.791195 156.766311 
L 553.232217 156.071466 
L 556.376213 156.130598 
L 559.27041 155.657512 
L 561.951598 155.095729 
L 564.448993 154.696559 
L 566.786185 154.460016 
L 568.982494 153.632109 
L 571.053943 153.203372 
L 573.013968 153.528612 
L 574.873947 153.292069 
L 576.643599 152.818984 
L 578.331293 152.878116 
L 579.944285 153.173806 
L 582.970724 152.567658 
L 584.394642 152.419813 
L 585.765016 152.493744 
L 587.085727 151.754534 
L 588.36025 152.671139 
L 590.782912 151.680619 
L 591.936415 151.7841 
L 593.054528 152.212836 
L 594.139359 151.7841 
L 595.192833 152.257201 
L 596.21671 151.444077 
L 597.212609 152.30155 
L 598.182018 151.710185 
L 599.12631 151.384945 
L 600.046753 151.458859 
L 600.944523 151.34058 
L 601.82071 151.104037 
L 602.676328 151.399728 
L 603.512319 151.503208 
L 604.329564 151.030123 
L 605.128886 151.207534 
L 605.911054 151.074472 
L 607.426766 150.542254 
L 608.161622 150.630952 
L 608.881954 150.305712 
L 609.588325 150.837929 
L 611.628836 150.616169 
L 612.284386 150.231781 
L 612.928354 149.995238 
L 613.561141 150.172649 
L 614.183129 150.157867 
L 614.79468 150.719665 
L 615.39614 150.734448 
L 615.987835 150.335278 
L 616.570077 150.704867 
L 617.143164 150.764014 
L 617.70738 150.172649 
L 618.810266 151.044906 
L 619.349442 150.453541 
L 619.880758 150.867495 
L 620.404439 150.764014 
L 621.429756 149.817827 
L 621.931797 150.246564 
L 622.427016 150.453541 
L 623.397716 150.202215 
L 623.87354 150.557037 
L 624.343232 149.995238 
L 624.806948 150.423975 
L 625.264838 149.669998 
L 625.717048 150.024804 
L 626.163715 149.714347 
L 626.604975 150.157867 
L 627.040956 149.95089 
L 627.471784 150.409192 
L 627.897578 149.847409 
L 628.318456 149.788262 
L 628.734529 150.231781 
L 629.145906 150.187432 
L 629.552691 149.610851 
L 629.954986 149.906541 
L 630.35289 149.551719 
L 630.746496 149.581285 
L 631.135897 149.83261 
L 631.521182 149.684781 
L 631.902437 150.024804 
L 632.653186 149.551719 
L 633.02284 149.492587 
L 633.388783 149.211696 
L 634.109827 149.72913 
L 634.46507 149.625649 
L 634.816883 149.936107 
L 635.165333 149.359525 
L 635.852396 149.743913 
L 636.191131 149.18213 
L 636.8593 149.034285 
L 637.51544 149.389091 
L 638.47802 149.019502 
L 638.793313 149.359525 
L 639.105901 148.916005 
L 639.415832 149.137765 
L 640.027896 149.211696 
L 640.927142 149.433455 
L 641.222027 149.684781 
L 641.514546 149.137765 
L 642.092632 149.28561 
L 642.378273 148.871657 
L 642.661693 148.827308 
L 642.942926 149.108199 
L 643.222005 148.901222 
L 643.773834 148.723811 
L 644.046646 149.019502 
L 644.317432 148.694246 
L 644.586221 148.753393 
L 644.853042 149.019502 
L 645.641982 149.359525 
L 645.901212 149.034285 
L 646.158611 149.418673 
L 646.414205 149.049068 
L 646.668019 148.989936 
L 646.920078 148.561199 
L 647.170406 148.975153 
L 647.665962 148.871657 
L 647.911236 149.344742 
L 648.154871 149.122982 
L 648.396888 149.315176 
L 648.637308 149.28561 
L 648.876153 148.812525 
L 649.113443 149.034285 
L 649.349198 148.620331 
L 649.583437 149.315176 
L 650.047449 149.270827 
L 650.277258 149.374308 
L 650.505627 149.329959 
L 650.732574 149.137765 
L 651.182272 149.344742 
L 651.405058 149.167331 
L 651.62649 149.300393 
L 651.846584 148.856874 
L 652.065358 149.359525 
L 652.282826 149.122982 
L 652.713909 149.270827 
L 652.927553 149.019502 
L 653.139952 149.226479 
L 653.351121 148.827308 
L 653.561073 148.871657 
L 653.769822 149.078633 
L 653.977383 149.063851 
L 654.183769 148.709029 
L 654.388992 148.916005 
L 654.796005 148.989936 
L 654.997819 148.709029 
L 655.198522 148.635114 
L 655.398126 148.694246 
L 655.794084 148.975153 
L 656.185787 148.975153 
L 656.380071 148.827308 
L 656.765559 149.18213 
L 656.956785 149.226479 
L 657.147013 148.620331 
L 657.336253 149.28561 
L 657.524516 148.945571 
L 658.083539 149.093416 
L 658.267991 148.797742 
L 658.451514 149.344742 
L 658.634117 148.96037 
L 658.815811 149.315176 
L 658.996603 149.108199 
L 659.176502 149.256044 
L 659.355518 149.241262 
L 659.533659 149.389091 
L 659.710934 149.078633 
L 659.88735 149.196913 
L 660.062917 149.078633 
L 660.237642 149.374308 
L 660.584599 148.871657 
L 660.928285 149.196913 
L 661.09892 148.945571 
L 661.26876 149.211696 
L 661.437812 149.093416 
L 661.606084 148.812525 
L 661.773582 148.856874 
L 661.940314 149.108199 
L 662.106287 149.122982 
L 662.271508 148.945571 
L 662.435983 149.418673 
L 662.925001 148.827308 
L 663.247405 149.418673 
L 663.407544 148.842091 
L 663.725727 149.152548 
L 663.883782 149.034285 
L 664.041156 149.28561 
L 664.197852 149.167331 
L 664.353878 149.329959 
L 664.66394 149.315176 
L 664.817988 149.049068 
L 665.878466 148.96037 
L 666.027475 149.18213 
L 666.470882 148.88644 
L 666.617494 148.945571 
L 666.763518 149.137765 
L 666.908959 148.989936 
L 667.198112 149.078633 
L 667.341833 149.004719 
L 667.48499 149.241262 
L 667.627586 148.901222 
L 667.911116 149.034285 
L 668.052058 148.88644 
L 668.192457 149.196913 
L 668.332318 148.989936 
L 668.471644 149.226479 
L 668.886454 148.901222 
L 669.023681 149.122982 
L 669.432291 148.856874 
L 669.702174 148.235943 
L 669.970074 149.137765 
L 670.103289 148.531633 
L 670.368267 149.241262 
L 670.631332 148.871657 
L 670.762157 148.723811 
L 670.892513 148.96037 
L 671.151835 148.827308 
L 671.280808 149.137765 
L 671.409325 149.034285 
L 671.537391 149.108199 
L 671.665009 148.620331 
L 671.792182 148.753393 
L 671.918912 148.66468 
L 672.045203 148.871657 
L 672.29648 148.871657 
L 672.421472 149.063851 
L 672.546036 149.004719 
L 672.670177 149.196913 
L 672.917196 148.649897 
L 673.040081 148.768176 
L 673.284615 148.694246 
L 673.768814 148.753393 
L 673.888865 148.575982 
L 674.008523 149.063851 
L 674.127789 148.620331 
L 674.246665 148.709029 
L 674.365156 148.649897 
L 674.600987 149.108199 
L 674.835302 148.930788 
L 674.951897 148.945571 
L 675.183974 148.502052 
L 675.299461 148.575982 
L 675.529342 149.610851 
L 675.643741 148.709029 
L 675.757783 149.093416 
L 675.871468 148.871657 
L 675.984801 149.196913 
L 676.097781 148.782959 
L 676.434638 148.96037 
L 676.657491 148.797742 
L 676.768409 148.856874 
L 676.87899 148.694246 
L 676.989237 148.797742 
L 677.208735 149.108199 
L 677.317991 148.827308 
L 677.42692 148.989936 
L 677.535524 148.561199 
L 677.751767 149.167331 
L 677.859409 149.108199 
L 678.073744 148.812525 
L 678.604131 148.723811 
L 678.709289 149.049068 
L 678.918698 148.383788 
L 679.126911 148.709029 
L 679.230573 148.812525 
L 679.333941 148.66468 
L 679.642298 148.753393 
L 679.744507 148.472486 
L 680.049424 148.96037 
L 680.251295 148.457703 
L 680.552019 148.989936 
L 680.651712 148.842091 
L 680.850282 148.945571 
L 680.949164 148.916005 
L 681.146125 149.211696 
L 681.244208 148.679463 
L 681.439585 148.842091 
L 681.730702 148.309874 
L 681.827226 148.679463 
L 681.923495 148.590765 
L 682.115275 148.975153 
L 682.210787 148.871657 
L 682.30605 148.620331 
L 682.401065 148.88644 
L 682.495832 148.827308 
L 682.590354 148.575982 
L 682.684631 148.635114 
L 682.778665 148.679463 
L 682.872458 149.004719 
L 682.966009 148.66468 
L 683.059321 148.723811 
L 683.152394 148.516835 
L 683.337831 149.093416 
L 683.430197 148.989936 
L 683.52233 148.945571 
L 683.61423 149.300393 
L 683.797338 148.797742 
L 683.979531 148.812525 
L 684.070287 148.989936 
L 684.251123 148.782959 
L 684.341206 149.034285 
L 684.431067 148.916005 
L 684.520707 149.226479 
L 684.699329 148.516835 
L 684.788312 148.590765 
L 684.96563 148.901222 
L 685.053966 148.575982 
L 685.142089 148.66468 
L 685.229999 148.649897 
L 685.405186 149.329959 
L 685.492465 149.270827 
L 685.579535 148.901222 
L 685.666398 149.256044 
L 686.011793 148.842091 
L 686.353946 149.152548 
L 686.523826 148.428137 
L 686.608469 149.108199 
L 686.692917 148.975153 
L 687.028764 148.295075 
L 687.278635 148.694246 
L 687.361545 148.66468 
L 687.444268 148.457703 
L 687.526803 148.88644 
L 687.609152 148.797742 
L 687.773294 148.694246 
L 687.855088 148.916005 
L 687.9367 148.502052 
L 688.018128 148.679463 
L 688.180443 148.265509 
L 688.261329 148.649897 
L 688.342037 148.516835 
L 688.422566 148.797742 
L 688.502918 148.472486 
L 688.663093 148.901222 
L 688.742916 148.457703 
L 688.822566 148.590765 
L 688.902042 148.309874 
L 689.060475 149.019502 
L 689.139434 148.487269 
L 689.218223 148.753393 
L 689.296842 148.66468 
L 689.531685 148.66468 
L 689.609631 148.590765 
L 689.687411 148.842091 
L 689.842474 148.44292 
L 689.919759 149.019502 
L 689.996881 148.827308 
L 690.227271 148.44292 
L 690.456214 149.034285 
L 690.532209 148.96037 
L 690.608047 148.649897 
L 690.683727 148.768176 
L 690.834618 148.975153 
L 690.90983 148.590765 
L 690.984886 148.738594 
L 691.134538 148.797742 
L 691.357869 148.590765 
L 691.506 148.546416 
L 691.579841 148.250726 
L 691.653532 148.856874 
L 691.727074 148.516835 
L 691.800468 148.575982 
L 691.946815 148.753393 
L 692.092576 148.383788 
L 692.165239 148.398571 
L 692.237757 148.797742 
L 692.310131 148.66468 
L 692.45445 148.339439 
L 692.669862 148.856874 
L 692.812765 148.635114 
L 692.884008 148.901222 
L 692.955111 148.827308 
L 693.026076 148.516835 
L 693.096903 148.620331 
L 693.167593 148.709029 
L 693.238146 148.590765 
L 693.308562 148.871657 
L 693.448988 148.295075 
L 693.797705 149.049068 
L 693.936263 148.782959 
L 694.005345 148.856874 
L 694.074296 148.575982 
L 694.143117 148.738594 
L 694.28037 148.797742 
L 694.417108 148.295075 
L 694.485286 148.44292 
L 694.689056 148.679463 
L 694.756727 148.383788 
L 694.824272 148.649897 
L 694.891693 148.620331 
L 694.958989 148.457703 
L 695.09321 148.768176 
L 695.160135 148.487269 
L 695.226938 148.516835 
L 695.360177 148.516835 
L 695.426615 148.827308 
L 695.492931 148.575982 
L 695.559128 148.605548 
L 695.625204 148.516835 
L 695.69116 148.738594 
L 695.756998 148.531633 
L 695.822716 148.694246 
L 695.888317 148.472486 
L 695.953799 148.812525 
L 696.084413 148.339439 
L 696.214559 148.590765 
L 696.408912 148.457703 
L 696.602234 148.723811 
L 696.666448 148.575982 
L 696.794537 148.797742 
L 696.985829 148.354222 
L 697.112802 148.88644 
L 697.176124 148.812525 
L 697.239335 148.413354 
L 697.302437 148.66468 
L 697.428313 148.66468 
L 697.491089 148.827308 
L 697.553757 148.531633 
L 697.616317 148.812525 
L 697.67877 148.590765 
L 697.741116 148.66468 
L 697.803356 148.590765 
L 697.86549 148.487269 
L 697.927518 148.945571 
L 697.98944 148.709029 
L 698.174579 148.561199 
L 698.236083 148.487269 
L 698.419977 148.649897 
L 698.481069 148.383788 
L 698.542059 148.457703 
L 698.602947 148.516835 
L 698.663733 148.309874 
L 698.724419 148.428137 
L 698.785003 148.339439 
L 698.845487 148.590765 
L 698.905871 148.309874 
L 698.966154 148.768176 
L 699.026339 148.250726 
L 699.086424 148.472486 
L 699.266087 148.339439 
L 699.325778 147.866354 
L 699.444869 148.575982 
L 699.504268 148.176811 
L 699.563571 148.383788 
L 699.740903 148.738594 
L 699.858647 148.088114 
L 699.976012 148.620331 
L 700.034553 148.073315 
L 700.093 148.709029 
L 700.151353 148.561199 
L 700.209613 148.058532 
L 700.267781 148.546416 
L 700.325855 148.22116 
L 700.499526 148.575982 
L 700.672373 148.132463 
L 700.844404 148.531633 
L 700.958642 148.324657 
L 701.015627 148.398571 
L 701.072523 148.782959 
L 701.12933 148.487269 
L 701.186049 148.176811 
L 701.24268 148.575982 
L 701.412046 148.162028 
L 701.468327 148.176811 
L 701.636651 148.782959 
L 701.748436 148.265509 
L 701.8042 148.679463 
L 701.859879 148.531633 
L 701.915474 148.073315 
L 701.970983 148.295075 
L 702.137006 148.620331 
L 702.19218 148.546416 
L 702.24727 148.531633 
L 702.357201 148.058532 
L 702.412042 148.147246 
L 702.466801 148.176811 
L 702.630586 148.975153 
L 702.685018 148.738594 
L 702.847828 148.191594 
L 703.009913 148.575982 
L 703.117571 148.073315 
L 703.171281 148.398571 
L 703.224912 148.058532 
L 703.278464 148.028966 
L 703.385333 148.575982 
L 703.43865 148.398571 
L 703.545051 148.354222 
L 703.598135 148.324657 
L 703.651142 148.058532 
L 703.809702 148.472486 
L 703.862403 148.206377 
L 703.915027 148.235943 
L 703.967575 148.280292 
L 704.020048 148.782959 
L 704.072445 148.11768 
L 704.124768 148.457703 
L 704.177015 148.324657 
L 704.229187 148.502052 
L 704.281285 148.265509 
L 704.333308 148.635114 
L 704.385257 148.487269 
L 704.488934 148.561199 
L 704.540662 148.398571 
L 704.592317 148.782959 
L 704.643899 148.546416 
L 704.746843 148.590765 
L 704.900717 148.309874 
L 705.00294 148.235943 
L 705.104877 148.723811 
L 705.20653 148.147246 
L 705.257251 148.235943 
L 705.3079 148.280292 
L 705.35848 148.102897 
L 705.408989 148.369005 
L 705.459429 148.280292 
L 705.509799 148.191594 
L 705.560099 148.916005 
L 705.61033 148.280292 
L 705.760609 148.723811 
L 705.860451 148.132463 
L 705.960021 148.162028 
L 706.05932 148.398571 
L 706.108868 148.028966 
L 706.158349 148.176811 
L 706.25711 148.324657 
L 706.355603 147.881137 
L 706.551796 148.413354 
L 706.69825 148.369005 
L 706.746938 148.147246 
L 706.795561 148.354222 
L 706.844119 148.782959 
L 706.892612 148.235943 
L 706.941041 147.881137 
L 706.989405 148.620331 
L 707.085943 148.575982 
L 707.278253 147.969835 
L 707.374029 148.413354 
L 707.517223 148.088114 
L 707.56483 148.487269 
L 707.612374 148.191594 
L 707.754637 148.605548 
L 707.801934 147.940269 
L 707.896346 147.9994 
L 708.037506 148.679463 
L 708.13131 148.250726 
L 708.178122 148.324657 
L 708.224874 148.309874 
L 708.271566 148.590765 
L 708.318198 148.546416 
L 708.457737 147.955052 
L 708.550467 148.369005 
L 708.689121 147.9994 
L 708.781265 148.235943 
L 708.82725 148.102897 
L 708.964858 148.235943 
L 709.010612 147.777641 
L 709.056308 148.043749 
L 709.193055 148.472486 
L 709.37459 147.821989 
L 709.555225 148.088114 
L 709.600244 147.555881 
L 709.645208 148.250726 
L 709.690116 147.89592 
L 709.779767 147.940269 
L 709.82451 148.531633 
L 709.869198 148.088114 
L 710.047405 148.309874 
L 710.09182 148.383788 
L 710.18049 147.89592 
L 710.224744 147.984617 
L 710.268944 148.250726 
L 710.313091 148.088114 
L 710.357184 147.925486 
L 710.533026 148.428137 
L 710.62063 147.659377 
L 710.664353 148.309874 
L 710.751642 148.11768 
L 710.795209 147.836772 
L 710.838723 148.309874 
L 710.925596 148.11768 
L 710.968955 147.807206 
L 711.012263 147.9994 
L 711.141877 148.176811 
L 711.18498 148.147246 
L 711.228032 147.792424 
L 711.271033 148.295075 
L 711.313983 148.028966 
L 711.356882 148.191594 
L 711.399732 148.546416 
L 711.442531 148.383788 
L 711.613226 147.792424 
L 711.655775 147.807206 
L 711.783125 148.176811 
L 711.825476 147.792424 
L 711.867779 148.028966 
L 711.910032 148.043749 
L 711.952236 148.280292 
L 711.994391 148.22116 
L 712.036498 147.851555 
L 712.078556 148.280292 
L 712.120566 148.028966 
L 712.162527 148.043749 
L 712.20444 147.851555 
L 712.246305 148.102897 
L 712.288122 148.487269 
L 712.329891 147.807206 
L 712.413285 148.073315 
L 712.454911 147.984617 
L 712.579504 148.502052 
L 712.620941 148.44292 
L 712.82742 147.881137 
L 712.868576 148.176811 
L 712.909685 148.132463 
L 712.950748 147.955052 
L 712.991765 148.028966 
L 713.155372 148.428137 
L 713.236902 147.940269 
L 713.277598 148.088114 
L 713.318249 148.339439 
L 713.358854 148.102897 
L 713.43993 147.615013 
L 713.520826 148.383788 
L 713.561206 148.309874 
L 713.601542 148.265509 
L 713.641834 147.881137 
L 713.722283 148.088114 
L 713.762441 147.9994 
L 713.882651 148.428137 
L 713.962571 147.851555 
L 714.002466 148.265509 
L 714.121888 148.073315 
L 714.24092 148.309874 
L 714.280511 148.295075 
L 714.399027 147.969835 
L 714.359564 148.339439 
L 714.438447 148.014183 
L 714.477824 148.014183 
L 714.556451 147.851555 
L 714.634909 148.413354 
L 714.713198 147.866354 
L 714.75228 148.073315 
L 714.79132 147.9994 
L 714.830318 148.44292 
L 714.869274 147.984617 
L 714.908189 148.206377 
L 714.985894 148.354222 
L 715.024685 147.9994 
L 715.063434 148.369005 
L 715.102142 148.295075 
L 715.140809 148.058532 
L 715.21802 148.206377 
L 715.256565 148.250726 
L 715.295069 148.191594 
L 715.448678 147.851555 
L 715.601642 148.44292 
L 715.677885 147.866354 
L 715.715946 148.22116 
L 715.753968 147.984617 
L 715.829892 148.191594 
L 715.867795 148.176811 
L 715.981269 147.762858 
L 716.019015 147.836772 
L 716.132019 148.324657 
L 716.169609 148.043749 
L 716.207161 147.777641 
L 716.244674 148.147246 
L 716.282148 148.073315 
L 716.319584 147.733292 
L 716.356981 148.191594 
L 716.39434 148.043749 
L 716.431661 148.295075 
L 716.506189 148.043749 
L 716.580564 148.354222 
L 716.617695 148.176811 
L 716.654788 148.147246 
L 716.691843 148.339439 
L 716.765841 148.295075 
L 716.839689 147.60023 
L 716.876556 148.162028 
L 716.950181 148.383788 
L 716.986937 148.265509 
L 717.096984 147.984617 
L 717.2067 148.058532 
L 717.243198 148.383788 
L 717.316086 148.176811 
L 717.352476 147.881137 
L 717.425146 148.147246 
L 717.461426 148.058532 
L 717.497671 148.176811 
L 717.53388 148.324657 
L 717.570052 148.132463 
L 717.606189 147.910703 
L 717.64229 148.162028 
L 717.678355 148.487269 
L 717.714385 148.206377 
L 717.822261 147.807206 
L 717.894001 147.910703 
L 718.037059 148.472486 
L 718.179558 147.984617 
L 718.215095 148.428137 
L 718.250599 147.866354 
L 718.286067 147.688943 
L 718.321501 148.575982 
L 718.392267 148.191594 
L 718.427598 147.807206 
L 718.462895 148.280292 
L 718.498157 148.753393 
L 718.533386 148.472486 
L 718.673961 147.866354 
L 718.779038 148.176811 
L 718.813996 147.821989 
L 718.883813 148.176811 
L 718.918671 148.043749 
L 719.05777 148.398571 
L 719.127122 147.748075 
L 719.161748 148.250726 
L 719.230902 148.487269 
L 719.26543 148.398571 
L 719.299925 148.014183 
L 719.403215 148.102897 
L 719.471913 147.851555 
L 719.506213 147.89592 
L 719.540481 148.102897 
L 719.574717 147.940269 
L 719.608921 147.748075 
L 719.643093 147.836772 
L 719.77946 148.753393 
L 719.881402 148.132463 
L 719.915319 148.250726 
L 719.949205 147.807206 
L 720.016882 147.984617 
L 720.084434 147.955052 
L 720.185528 148.66468 
L 720.219163 147.866354 
L 720.286342 148.324657 
L 720.353396 147.940269 
L 720.386878 148.605548 
L 720.487137 148.398571 
L 720.520495 147.688943 
L 720.587121 148.102897 
L 720.720008 148.339439 
L 720.786271 148.369005 
L 720.819357 148.028966 
L 720.852413 148.413354 
L 720.951401 148.369005 
L 721.017245 147.910703 
L 721.082969 148.028966 
L 721.148576 148.250726 
L 721.181334 147.955052 
L 721.312077 147.821989 
L 721.409826 148.457703 
L 721.442351 148.250726 
L 721.507314 148.295075 
L 721.636894 147.807206 
L 721.733778 148.176811 
L 721.766015 148.132463 
L 721.798224 147.969835 
L 721.830405 148.132463 
L 721.862557 148.428137 
L 721.926776 148.043749 
L 721.958843 148.398571 
L 722.022893 148.132463 
L 722.054876 148.472486 
L 722.086831 148.162028 
L 722.118757 147.955052 
L 722.150656 148.191594 
L 722.21437 148.354222 
L 722.341465 148.014183 
L 722.37317 148.398571 
L 722.436496 148.191594 
L 722.468118 148.043749 
L 722.499713 148.309874 
L 722.53128 148.295075 
L 722.56282 147.9994 
L 722.625818 148.339439 
L 722.657276 148.191594 
L 722.688708 148.295075 
L 722.720112 148.561199 
L 722.845458 147.821989 
L 723.001537 148.635114 
L 723.032673 147.9994 
L 723.125921 148.265509 
L 723.280807 147.733292 
L 723.342577 147.851555 
L 723.373423 148.162028 
L 723.465805 148.073315 
L 723.496546 147.910703 
L 723.557953 148.546416 
L 723.619255 148.324657 
L 723.649868 148.398571 
L 723.772063 147.807206 
L 723.802548 148.250726 
L 723.863441 148.102897 
L 723.984923 147.836772 
L 723.924232 148.309874 
L 724.01523 147.851555 
L 724.045512 148.058532 
L 724.075769 147.481966 
L 724.106001 148.354222 
L 724.136208 148.250726 
L 724.196547 147.821989 
L 724.256785 147.925486 
L 724.286868 147.940269 
L 724.316925 148.398571 
L 724.346958 147.718509 
L 724.376966 147.792424 
L 724.406949 147.67416 
L 724.436907 147.748075 
L 724.526636 148.11768 
L 724.556496 147.9994 
L 724.645931 148.605548 
L 724.675693 148.324657 
L 724.764836 148.043749 
L 724.794502 148.413354 
L 724.824144 148.028966 
L 724.883356 148.147246 
L 724.971993 147.821989 
L 725.001491 148.369005 
L 725.060415 148.191594 
L 725.089841 147.762858 
L 725.177978 147.9994 
L 725.20731 147.703726 
L 725.265903 148.073315 
L 725.353615 148.66468 
L 725.324401 147.984617 
L 725.411974 148.369005 
L 725.441118 148.44292 
L 725.470238 148.354222 
L 725.52841 147.89592 
L 725.557462 148.11768 
L 725.58649 148.44292 
L 725.644476 147.984617 
L 725.673435 147.836772 
L 725.702371 148.088114 
L 725.760174 147.910703 
L 725.846707 148.354222 
L 725.875505 148.058532 
L 725.904281 148.295075 
L 725.990473 148.162028 
L 726.047821 147.925486 
L 726.105079 148.147246 
L 726.190798 148.369005 
L 726.162247 148.043749 
L 726.219326 148.206377 
L 726.276315 147.866354 
L 726.333216 148.191594 
L 726.503386 147.866354 
L 726.588174 148.620331 
L 726.616393 148.162028 
L 726.729051 147.807206 
L 726.785249 148.457703 
L 726.841361 148.339439 
L 726.953327 147.718509 
L 726.981265 147.866354 
L 727.037076 148.369005 
L 727.06495 147.851555 
L 727.120633 148.191594 
L 727.259471 147.940269 
L 727.287175 148.206377 
L 727.370161 148.043749 
L 727.397781 147.925486 
L 727.452959 148.176811 
L 727.480516 148.250726 
L 727.590539 147.851555 
L 727.672838 147.821989 
L 727.754952 148.250726 
L 727.782282 147.777641 
L 727.86415 148.058532 
L 727.918627 147.925486 
L 728.000189 147.955052 
L 728.08157 148.014183 
L 728.108656 147.89592 
L 728.189795 147.836772 
L 728.216801 148.206377 
L 728.405286 147.703726 
L 728.432133 147.762858 
L 728.512556 148.22116 
L 728.539324 147.969835 
L 728.592802 148.028966 
L 728.646201 147.718509 
L 728.699522 147.777641 
L 728.779358 148.043749 
L 728.805931 147.9994 
L 728.832484 147.940269 
L 728.859019 147.570664 
L 728.912029 148.073315 
L 728.964963 148.176811 
L 728.991401 147.9994 
L 729.01782 147.925486 
L 729.04422 147.955052 
L 729.096962 148.206377 
L 729.123305 147.866354 
L 729.149629 148.132463 
L 729.411824 147.60023 
L 729.43794 148.11768 
L 729.542217 147.9994 
L 729.62023 148.235943 
L 729.594244 147.955052 
L 729.646197 147.9994 
L 729.672146 147.9994 
L 729.698076 148.324657 
L 729.775757 147.910703 
L 729.853272 147.881137 
L 729.904857 148.22116 
L 730.033502 147.910703 
L 730.084833 148.162028 
L 730.110471 147.955052 
L 730.136091 147.777641 
L 730.187278 148.11768 
L 730.238393 148.058532 
L 730.314932 148.472486 
L 730.340409 147.718509 
L 730.416734 148.147246 
L 730.492899 147.748075 
L 730.467528 148.191594 
L 730.568905 147.836772 
L 730.619488 148.309874 
L 730.695231 148.206377 
L 730.720444 147.925486 
L 730.770817 148.22116 
L 730.795978 148.028966 
L 730.871355 148.309874 
L 730.946578 148.206377 
L 731.021645 148.280292 
L 731.071604 148.014183 
L 731.121494 148.073315 
L 731.171317 147.807206 
L 731.196202 147.925486 
L 731.221071 148.383788 
L 731.270758 147.644578 
L 731.320377 148.250726 
L 731.419412 147.866354 
L 731.518179 147.955052 
L 731.54283 148.206377 
L 731.61668 148.102897 
L 731.66583 147.777641 
L 731.714915 147.984617 
L 731.763933 148.354222 
L 731.837337 148.162028 
L 731.93498 147.984617 
L 731.910594 148.250726 
L 731.95935 148.028966 
L 732.008041 148.250726 
L 732.032362 147.866354 
L 732.105228 147.89592 
L 732.129484 148.162028 
L 732.202156 147.940269 
L 732.322956 148.44292 
L 732.395244 148.280292 
L 732.443356 148.014183 
L 732.491405 148.324657 
L 732.515406 148.324657 
L 732.539391 147.955052 
L 732.635174 148.043749 
L 732.65908 148.058532 
L 732.68297 147.733292 
L 732.730705 148.309874 
L 732.754549 148.22116 
L 732.778377 148.22116 
L 732.897285 147.733292 
L 732.992132 148.265509 
L 733.015806 148.102897 
L 733.039464 147.969835 
L 733.063106 148.354222 
L 733.086734 148.22116 
L 733.110346 148.265509 
L 733.157524 148.191594 
L 733.204641 147.718509 
L 733.251698 148.280292 
L 733.322169 147.851555 
L 733.369074 148.206377 
L 733.392504 148.22116 
L 733.486073 148.309874 
L 733.509428 147.89592 
L 733.625978 148.575982 
L 733.69573 148.058532 
L 733.742157 148.398571 
L 733.857967 148.014183 
L 733.927276 147.925486 
L 733.97341 148.546416 
L 734.088488 147.984617 
L 734.11146 148.073315 
L 734.134418 147.984617 
L 734.157361 148.369005 
L 734.24899 148.324657 
L 734.271861 148.235943 
L 734.31756 148.44292 
L 734.363202 148.280292 
L 734.386002 148.265509 
L 734.408788 148.028966 
L 734.477058 148.235943 
L 734.567888 148.472486 
L 734.635862 148.043749 
L 734.658492 148.206377 
L 734.681107 148.605548 
L 734.748871 148.11768 
L 734.77143 148.295075 
L 734.86153 148.043749 
L 734.816508 148.309874 
L 734.88402 148.088114 
L 735.063444 148.649897 
L 735.197434 148.11768 
L 735.219718 148.413354 
L 735.264245 147.9994 
L 735.308718 148.280292 
L 735.330934 148.014183 
L 735.375325 148.44292 
L 735.397501 148.428137 
L 735.552352 147.89592 
L 735.618516 148.44292 
L 735.662559 148.162028 
L 735.684561 148.162028 
L 735.706549 147.89592 
L 735.728524 148.295075 
L 735.794369 148.043749 
L 735.925704 148.575982 
L 735.860096 147.940269 
L 735.991194 148.487269 
L 736.056567 148.605548 
L 736.121823 147.984617 
L 736.230324 148.649897 
L 736.251985 147.9994 
L 736.338503 148.324657 
L 736.381684 148.398571 
L 736.446361 148.339439 
L 736.489416 148.398571 
L 736.553902 148.250726 
L 736.596829 148.679463 
L 736.661126 148.428137 
L 736.682533 148.176811 
L 736.768035 148.295075 
L 736.832031 148.531633 
L 736.810712 148.280292 
L 736.874632 148.324657 
L 736.895914 148.398571 
L 736.938441 148.324657 
L 736.959686 148.11768 
L 737.023346 148.546416 
L 737.044541 148.354222 
L 737.065725 148.369005 
L 737.086895 148.102897 
L 737.108054 148.428137 
L 737.150334 148.22116 
L 737.171456 148.457703 
L 737.192565 148.176811 
L 737.234747 148.191594 
L 737.297929 148.250726 
L 737.318966 148.028966 
L 737.361002 148.753393 
L 737.444929 148.502052 
L 737.507748 148.339439 
L 737.486821 148.561199 
L 737.549568 148.516835 
L 737.633062 148.191594 
L 737.674738 148.339439 
L 737.695558 148.398571 
L 737.737163 148.280292 
L 737.757947 148.058532 
L 737.82023 148.546416 
L 737.840967 148.531633 
L 737.861692 148.561199 
L 737.882406 148.649897 
L 737.903107 148.457703 
L 737.944476 148.531633 
L 738.00644 148.073315 
L 738.088896 148.871657 
L 738.130054 148.516835 
L 738.171166 148.620331 
L 738.253251 148.176811 
L 738.273743 148.620331 
L 738.355597 148.413354 
L 738.396455 148.102897 
L 738.416867 148.354222 
L 738.437268 148.709029 
L 738.518756 148.235943 
L 738.539099 148.235943 
L 738.559432 148.709029 
L 738.660923 148.620331 
L 738.681188 148.354222 
L 738.681188 148.354222 
" clip-path="url(#pced24ed3d4)" style="fill: none; stroke: #1f77b4; stroke-width: 1.5; stroke-linecap: square"/>
   </g>
   <g id="patch_3">
    <path d="M 381.561187 311.6435 
L 381.561187 45.5315 
" style="fill: none; stroke: #000000; stroke-width: 0.8; stroke-linejoin: miter; stroke-linecap: square"/>
   </g>
   <g id="patch_4">
    <path d="M 738.681188 311.6435 
L 738.681188 45.5315 
" style="fill: none; stroke: #000000; stroke-width: 0.8; stroke-linejoin: miter; stroke-linecap: square"/>
   </g>
   <g id="patch_5">
    <path d="M 381.561187 311.6435 
L 738.681188 311.6435 
" style="fill: none; stroke: #000000; stroke-width: 0.8; stroke-linejoin: miter; stroke-linecap: square"/>
   </g>
   <g id="patch_6">
    <path d="M 381.561187 45.5315 
L 738.681188 45.5315 
" style="fill: none; stroke: #000000; stroke-width: 0.8; stroke-linejoin: miter; stroke-linecap: square"/>
   </g>
   <g id="text_17">
    <!-- Accuracy of the 09_07_25_CINIC10_torch_model_(1024+8192-8192.3-1)_cat-dog on the validation set -->
    <g transform="translate(7.2 25.5315) scale(0.264 -0.264)">
     <defs>
      <path id="TimesNewRomanPSMT-20" transform="scale(0.015625)"/>
      <path id="TimesNewRomanPSMT-6f" d="M 1600 2947 
Q 2250 2947 2644 2453 
Q 2978 2031 2978 1484 
Q 2978 1100 2793 706 
Q 2609 313 2286 112 
Q 1963 -88 1566 -88 
Q 919 -88 538 428 
Q 216 863 216 1403 
Q 216 1797 411 2186 
Q 606 2575 925 2761 
Q 1244 2947 1600 2947 
z
M 1503 2744 
Q 1338 2744 1170 2645 
Q 1003 2547 900 2300 
Q 797 2053 797 1666 
Q 797 1041 1045 587 
Q 1294 134 1700 134 
Q 2003 134 2200 384 
Q 2397 634 2397 1244 
Q 2397 2006 2069 2444 
Q 1847 2744 1503 2744 
z
" transform="scale(0.015625)"/>
      <path id="TimesNewRomanPSMT-66" d="M 1319 2638 
L 1319 756 
Q 1319 356 1406 250 
Q 1522 113 1716 113 
L 1975 113 
L 1975 0 
L 266 0 
L 266 113 
L 394 113 
Q 519 113 622 175 
Q 725 238 764 344 
Q 803 450 803 756 
L 803 2638 
L 247 2638 
L 247 2863 
L 803 2863 
L 803 3050 
Q 803 3478 940 3775 
Q 1078 4072 1361 4255 
Q 1644 4438 1997 4438 
Q 2325 4438 2600 4225 
Q 2781 4084 2781 3909 
Q 2781 3816 2700 3733 
Q 2619 3650 2525 3650 
Q 2453 3650 2373 3701 
Q 2294 3753 2178 3923 
Q 2063 4094 1966 4153 
Q 1869 4213 1750 4213 
Q 1606 4213 1506 4136 
Q 1406 4059 1362 3898 
Q 1319 3738 1319 3069 
L 1319 2863 
L 2056 2863 
L 2056 2638 
L 1319 2638 
z
" transform="scale(0.015625)"/>
      <path id="TimesNewRomanPSMT-74" d="M 1031 3803 
L 1031 2863 
L 1700 2863 
L 1700 2644 
L 1031 2644 
L 1031 788 
Q 1031 509 1111 412 
Q 1191 316 1316 316 
Q 1419 316 1516 380 
Q 1613 444 1666 569 
L 1788 569 
Q 1678 263 1478 108 
Q 1278 -47 1066 -47 
Q 922 -47 784 33 
Q 647 113 581 261 
Q 516 409 516 719 
L 516 2644 
L 63 2644 
L 63 2747 
Q 234 2816 414 2980 
Q 594 3144 734 3369 
Q 806 3488 934 3803 
L 1031 3803 
z
" transform="scale(0.015625)"/>
      <path id="TimesNewRomanPSMT-68" d="M 1041 4444 
L 1041 2350 
Q 1388 2731 1591 2839 
Q 1794 2947 1997 2947 
Q 2241 2947 2416 2812 
Q 2591 2678 2675 2391 
Q 2734 2191 2734 1659 
L 2734 647 
Q 2734 375 2778 275 
Q 2809 200 2884 156 
Q 2959 113 3159 113 
L 3159 0 
L 1753 0 
L 1753 113 
L 1819 113 
Q 2019 113 2097 173 
Q 2175 234 2206 353 
Q 2216 403 2216 647 
L 2216 1659 
Q 2216 2128 2167 2275 
Q 2119 2422 2012 2495 
Q 1906 2569 1756 2569 
Q 1603 2569 1437 2487 
Q 1272 2406 1041 2159 
L 1041 647 
Q 1041 353 1073 281 
Q 1106 209 1195 161 
Q 1284 113 1503 113 
L 1503 0 
L 84 0 
L 84 113 
Q 275 113 384 172 
Q 447 203 484 290 
Q 522 378 522 647 
L 522 3238 
Q 522 3728 498 3840 
Q 475 3953 426 3993 
Q 378 4034 297 4034 
Q 231 4034 84 3984 
L 41 4094 
L 897 4444 
L 1041 4444 
z
" transform="scale(0.015625)"/>
      <path id="TimesNewRomanPSMT-65" d="M 681 1784 
Q 678 1147 991 784 
Q 1303 422 1725 422 
Q 2006 422 2214 576 
Q 2422 731 2563 1106 
L 2659 1044 
Q 2594 616 2278 264 
Q 1963 -88 1488 -88 
Q 972 -88 605 314 
Q 238 716 238 1394 
Q 238 2128 614 2539 
Q 991 2950 1559 2950 
Q 2041 2950 2350 2633 
Q 2659 2316 2659 1784 
L 681 1784 
z
M 681 1966 
L 2006 1966 
Q 1991 2241 1941 2353 
Q 1863 2528 1708 2628 
Q 1553 2728 1384 2728 
Q 1125 2728 920 2526 
Q 716 2325 681 1966 
z
" transform="scale(0.015625)"/>
      <path id="TimesNewRomanPSMT-5f" d="M 3256 -1381 
L -53 -1381 
L -53 -1119 
L 3256 -1119 
L 3256 -1381 
z
" transform="scale(0.015625)"/>
      <path id="TimesNewRomanPSMT-43" d="M 3853 4334 
L 3950 2894 
L 3853 2894 
Q 3659 3541 3300 3825 
Q 2941 4109 2438 4109 
Q 2016 4109 1675 3895 
Q 1334 3681 1139 3212 
Q 944 2744 944 2047 
Q 944 1472 1128 1050 
Q 1313 628 1683 403 
Q 2053 178 2528 178 
Q 2941 178 3256 354 
Q 3572 531 3950 1056 
L 4047 994 
Q 3728 428 3303 165 
Q 2878 -97 2294 -97 
Q 1241 -97 663 684 
Q 231 1266 231 2053 
Q 231 2688 515 3219 
Q 800 3750 1298 4042 
Q 1797 4334 2388 4334 
Q 2847 4334 3294 4109 
Q 3425 4041 3481 4041 
Q 3566 4041 3628 4100 
Q 3709 4184 3744 4334 
L 3853 4334 
z
" transform="scale(0.015625)"/>
      <path id="TimesNewRomanPSMT-49" d="M 1975 116 
L 1975 0 
L 159 0 
L 159 116 
L 309 116 
Q 572 116 691 269 
Q 766 369 766 750 
L 766 3488 
Q 766 3809 725 3913 
Q 694 3991 597 4047 
Q 459 4122 309 4122 
L 159 4122 
L 159 4238 
L 1975 4238 
L 1975 4122 
L 1822 4122 
Q 1563 4122 1444 3969 
Q 1366 3869 1366 3488 
L 1366 750 
Q 1366 428 1406 325 
Q 1438 247 1538 191 
Q 1672 116 1822 116 
L 1975 116 
z
" transform="scale(0.015625)"/>
      <path id="TimesNewRomanPSMT-4e" d="M -84 4238 
L 1066 4238 
L 3656 1059 
L 3656 3503 
Q 3656 3894 3569 3991 
Q 3453 4122 3203 4122 
L 3056 4122 
L 3056 4238 
L 4531 4238 
L 4531 4122 
L 4381 4122 
Q 4113 4122 4000 3959 
Q 3931 3859 3931 3503 
L 3931 -69 
L 3819 -69 
L 1025 3344 
L 1025 734 
Q 1025 344 1109 247 
Q 1228 116 1475 116 
L 1625 116 
L 1625 0 
L 150 0 
L 150 116 
L 297 116 
Q 569 116 681 278 
Q 750 378 750 734 
L 750 3681 
Q 566 3897 470 3965 
Q 375 4034 191 4094 
Q 100 4122 -84 4122 
L -84 4238 
z
" transform="scale(0.015625)"/>
      <path id="TimesNewRomanPSMT-6d" d="M 1050 2338 
Q 1363 2650 1419 2697 
Q 1559 2816 1721 2881 
Q 1884 2947 2044 2947 
Q 2313 2947 2506 2790 
Q 2700 2634 2766 2338 
Q 3088 2713 3309 2830 
Q 3531 2947 3766 2947 
Q 3994 2947 4170 2830 
Q 4347 2713 4450 2447 
Q 4519 2266 4519 1878 
L 4519 647 
Q 4519 378 4559 278 
Q 4591 209 4675 161 
Q 4759 113 4950 113 
L 4950 0 
L 3538 0 
L 3538 113 
L 3597 113 
Q 3781 113 3884 184 
Q 3956 234 3988 344 
Q 4000 397 4000 647 
L 4000 1878 
Q 4000 2228 3916 2372 
Q 3794 2572 3525 2572 
Q 3359 2572 3192 2489 
Q 3025 2406 2788 2181 
L 2781 2147 
L 2788 2013 
L 2788 647 
Q 2788 353 2820 281 
Q 2853 209 2943 161 
Q 3034 113 3253 113 
L 3253 0 
L 1806 0 
L 1806 113 
Q 2044 113 2133 169 
Q 2222 225 2256 338 
Q 2272 391 2272 647 
L 2272 1878 
Q 2272 2228 2169 2381 
Q 2031 2581 1784 2581 
Q 1616 2581 1450 2491 
Q 1191 2353 1050 2181 
L 1050 647 
Q 1050 366 1089 281 
Q 1128 197 1204 155 
Q 1281 113 1516 113 
L 1516 0 
L 100 0 
L 100 113 
Q 297 113 375 155 
Q 453 197 493 289 
Q 534 381 534 647 
L 534 1741 
Q 534 2213 506 2350 
Q 484 2453 437 2492 
Q 391 2531 309 2531 
Q 222 2531 100 2484 
L 53 2597 
L 916 2947 
L 1050 2947 
L 1050 2338 
z
" transform="scale(0.015625)"/>
      <path id="TimesNewRomanPSMT-64" d="M 2222 322 
Q 2013 103 1813 7 
Q 1613 -88 1381 -88 
Q 913 -88 563 304 
Q 213 697 213 1313 
Q 213 1928 600 2439 
Q 988 2950 1597 2950 
Q 1975 2950 2222 2709 
L 2222 3238 
Q 2222 3728 2198 3840 
Q 2175 3953 2125 3993 
Q 2075 4034 2000 4034 
Q 1919 4034 1784 3984 
L 1744 4094 
L 2597 4444 
L 2738 4444 
L 2738 1134 
Q 2738 631 2761 520 
Q 2784 409 2836 365 
Q 2888 322 2956 322 
Q 3041 322 3181 375 
L 3216 266 
L 2366 -88 
L 2222 -88 
L 2222 322 
z
M 2222 541 
L 2222 2016 
Q 2203 2228 2109 2403 
Q 2016 2578 1861 2667 
Q 1706 2756 1559 2756 
Q 1284 2756 1069 2509 
Q 784 2184 784 1559 
Q 784 928 1059 592 
Q 1334 256 1672 256 
Q 1956 256 2222 541 
z
" transform="scale(0.015625)"/>
      <path id="TimesNewRomanPSMT-6c" d="M 1184 4444 
L 1184 647 
Q 1184 378 1223 290 
Q 1263 203 1344 158 
Q 1425 113 1647 113 
L 1647 0 
L 244 0 
L 244 113 
Q 441 113 512 153 
Q 584 194 625 287 
Q 666 381 666 647 
L 666 3247 
Q 666 3731 644 3842 
Q 622 3953 573 3993 
Q 525 4034 450 4034 
Q 369 4034 244 3984 
L 191 4094 
L 1044 4444 
L 1184 4444 
z
" transform="scale(0.015625)"/>
      <path id="TimesNewRomanPSMT-28" d="M 1988 -1253 
L 1988 -1369 
Q 1516 -1131 1200 -813 
Q 750 -359 506 256 
Q 263 872 263 1534 
Q 263 2503 741 3301 
Q 1219 4100 1988 4444 
L 1988 4313 
Q 1603 4100 1356 3731 
Q 1109 3363 987 2797 
Q 866 2231 866 1616 
Q 866 947 969 400 
Q 1050 -31 1165 -292 
Q 1281 -553 1476 -793 
Q 1672 -1034 1988 -1253 
z
" transform="scale(0.015625)"/>
      <path id="TimesNewRomanPSMT-2b" d="M 1672 441 
L 1672 2000 
L 116 2000 
L 116 2256 
L 1672 2256 
L 1672 3809 
L 1922 3809 
L 1922 2256 
L 3484 2256 
L 3484 2000 
L 1922 2000 
L 1922 441 
L 1672 441 
z
" transform="scale(0.015625)"/>
      <path id="TimesNewRomanPSMT-2d" d="M 259 1672 
L 1875 1672 
L 1875 1200 
L 259 1200 
L 259 1672 
z
" transform="scale(0.015625)"/>
      <path id="TimesNewRomanPSMT-29" d="M 144 4313 
L 144 4444 
Q 619 4209 934 3891 
Q 1381 3434 1625 2820 
Q 1869 2206 1869 1541 
Q 1869 572 1392 -226 
Q 916 -1025 144 -1369 
L 144 -1253 
Q 528 -1038 776 -670 
Q 1025 -303 1145 264 
Q 1266 831 1266 1447 
Q 1266 2113 1163 2663 
Q 1084 3094 967 3353 
Q 850 3613 656 3853 
Q 463 4094 144 4313 
z
" transform="scale(0.015625)"/>
      <path id="TimesNewRomanPSMT-67" d="M 966 1044 
Q 703 1172 562 1401 
Q 422 1631 422 1909 
Q 422 2334 742 2640 
Q 1063 2947 1563 2947 
Q 1972 2947 2272 2747 
L 2878 2747 
Q 3013 2747 3034 2739 
Q 3056 2731 3066 2713 
Q 3084 2684 3084 2613 
Q 3084 2531 3069 2500 
Q 3059 2484 3036 2475 
Q 3013 2466 2878 2466 
L 2506 2466 
Q 2681 2241 2681 1891 
Q 2681 1491 2375 1206 
Q 2069 922 1553 922 
Q 1341 922 1119 984 
Q 981 866 932 777 
Q 884 688 884 625 
Q 884 572 936 522 
Q 988 472 1138 450 
Q 1225 438 1575 428 
Q 2219 413 2409 384 
Q 2700 344 2873 169 
Q 3047 -6 3047 -263 
Q 3047 -616 2716 -925 
Q 2228 -1381 1444 -1381 
Q 841 -1381 425 -1109 
Q 191 -953 191 -784 
Q 191 -709 225 -634 
Q 278 -519 444 -313 
Q 466 -284 763 25 
Q 600 122 533 198 
Q 466 275 466 372 
Q 466 481 555 628 
Q 644 775 966 1044 
z
M 1509 2797 
Q 1278 2797 1122 2612 
Q 966 2428 966 2047 
Q 966 1553 1178 1281 
Q 1341 1075 1591 1075 
Q 1828 1075 1981 1253 
Q 2134 1431 2134 1813 
Q 2134 2309 1919 2591 
Q 1759 2797 1509 2797 
z
M 934 0 
Q 788 -159 713 -296 
Q 638 -434 638 -550 
Q 638 -700 819 -813 
Q 1131 -1006 1722 -1006 
Q 2284 -1006 2551 -807 
Q 2819 -609 2819 -384 
Q 2819 -222 2659 -153 
Q 2497 -84 2016 -72 
Q 1313 -53 934 0 
z
" transform="scale(0.015625)"/>
      <path id="TimesNewRomanPSMT-6e" d="M 1034 2341 
Q 1538 2947 1994 2947 
Q 2228 2947 2397 2830 
Q 2566 2713 2666 2444 
Q 2734 2256 2734 1869 
L 2734 647 
Q 2734 375 2778 278 
Q 2813 200 2889 156 
Q 2966 113 3172 113 
L 3172 0 
L 1756 0 
L 1756 113 
L 1816 113 
Q 2016 113 2095 173 
Q 2175 234 2206 353 
Q 2219 400 2219 647 
L 2219 1819 
Q 2219 2209 2117 2386 
Q 2016 2563 1775 2563 
Q 1403 2563 1034 2156 
L 1034 647 
Q 1034 356 1069 288 
Q 1113 197 1189 155 
Q 1266 113 1500 113 
L 1500 0 
L 84 0 
L 84 113 
L 147 113 
Q 366 113 442 223 
Q 519 334 519 647 
L 519 1709 
Q 519 2225 495 2337 
Q 472 2450 423 2490 
Q 375 2531 294 2531 
Q 206 2531 84 2484 
L 38 2597 
L 900 2947 
L 1034 2947 
L 1034 2341 
z
" transform="scale(0.015625)"/>
      <path id="TimesNewRomanPSMT-76" d="M 53 2863 
L 1400 2863 
L 1400 2747 
L 1313 2747 
Q 1191 2747 1127 2687 
Q 1063 2628 1063 2528 
Q 1063 2419 1128 2269 
L 1794 688 
L 2463 2328 
Q 2534 2503 2534 2594 
Q 2534 2638 2509 2666 
Q 2475 2713 2422 2730 
Q 2369 2747 2206 2747 
L 2206 2863 
L 3141 2863 
L 3141 2747 
Q 2978 2734 2916 2681 
Q 2806 2588 2719 2369 
L 1703 -88 
L 1575 -88 
L 553 2328 
Q 484 2497 421 2570 
Q 359 2644 263 2694 
Q 209 2722 53 2747 
L 53 2863 
z
" transform="scale(0.015625)"/>
      <path id="TimesNewRomanPSMT-69" d="M 928 4444 
Q 1059 4444 1151 4351 
Q 1244 4259 1244 4128 
Q 1244 3997 1151 3903 
Q 1059 3809 928 3809 
Q 797 3809 703 3903 
Q 609 3997 609 4128 
Q 609 4259 701 4351 
Q 794 4444 928 4444 
z
M 1188 2947 
L 1188 647 
Q 1188 378 1227 289 
Q 1266 200 1342 156 
Q 1419 113 1622 113 
L 1622 0 
L 231 0 
L 231 113 
Q 441 113 512 153 
Q 584 194 626 287 
Q 669 381 669 647 
L 669 1750 
Q 669 2216 641 2353 
Q 619 2453 572 2492 
Q 525 2531 444 2531 
Q 356 2531 231 2484 
L 188 2597 
L 1050 2947 
L 1188 2947 
z
" transform="scale(0.015625)"/>
      <path id="TimesNewRomanPSMT-73" d="M 2050 2947 
L 2050 1972 
L 1947 1972 
Q 1828 2431 1642 2597 
Q 1456 2763 1169 2763 
Q 950 2763 815 2647 
Q 681 2531 681 2391 
Q 681 2216 781 2091 
Q 878 1963 1175 1819 
L 1631 1597 
Q 2266 1288 2266 781 
Q 2266 391 1970 151 
Q 1675 -88 1309 -88 
Q 1047 -88 709 6 
Q 606 38 541 38 
Q 469 38 428 -44 
L 325 -44 
L 325 978 
L 428 978 
Q 516 541 762 319 
Q 1009 97 1316 97 
Q 1531 97 1667 223 
Q 1803 350 1803 528 
Q 1803 744 1651 891 
Q 1500 1038 1047 1263 
Q 594 1488 453 1669 
Q 313 1847 313 2119 
Q 313 2472 555 2709 
Q 797 2947 1181 2947 
Q 1350 2947 1591 2875 
Q 1750 2828 1803 2828 
Q 1853 2828 1881 2850 
Q 1909 2872 1947 2947 
L 2050 2947 
z
" transform="scale(0.015625)"/>
     </defs>
     <use xlink:href="#TimesNewRomanPSMT-41"/>
     <use xlink:href="#TimesNewRomanPSMT-63" transform="translate(72.216797 0)"/>
     <use xlink:href="#TimesNewRomanPSMT-63" transform="translate(116.601562 0)"/>
     <use xlink:href="#TimesNewRomanPSMT-75" transform="translate(160.986328 0)"/>
     <use xlink:href="#TimesNewRomanPSMT-72" transform="translate(210.986328 0)"/>
     <use xlink:href="#TimesNewRomanPSMT-61" transform="translate(244.287109 0)"/>
     <use xlink:href="#TimesNewRomanPSMT-63" transform="translate(288.671875 0)"/>
     <use xlink:href="#TimesNewRomanPSMT-79" transform="translate(333.056641 0)"/>
     <use xlink:href="#TimesNewRomanPSMT-20" transform="translate(383.056641 0)"/>
     <use xlink:href="#TimesNewRomanPSMT-6f" transform="translate(408.056641 0)"/>
     <use xlink:href="#TimesNewRomanPSMT-66" transform="translate(458.056641 0)"/>
     <use xlink:href="#TimesNewRomanPSMT-20" transform="translate(491.357422 0)"/>
     <use xlink:href="#TimesNewRomanPSMT-74" transform="translate(516.357422 0)"/>
     <use xlink:href="#TimesNewRomanPSMT-68" transform="translate(544.140625 0)"/>
     <use xlink:href="#TimesNewRomanPSMT-65" transform="translate(594.140625 0)"/>
     <use xlink:href="#TimesNewRomanPSMT-20" transform="translate(638.525391 0)"/>
     <use xlink:href="#TimesNewRomanPSMT-30" transform="translate(663.525391 0)"/>
     <use xlink:href="#TimesNewRomanPSMT-39" transform="translate(713.525391 0)"/>
     <use xlink:href="#TimesNewRomanPSMT-5f" transform="translate(763.525391 0)"/>
     <use xlink:href="#TimesNewRomanPSMT-30" transform="translate(813.525391 0)"/>
     <use xlink:href="#TimesNewRomanPSMT-37" transform="translate(863.525391 0)"/>
     <use xlink:href="#TimesNewRomanPSMT-5f" transform="translate(913.525391 0)"/>
     <use xlink:href="#TimesNewRomanPSMT-32" transform="translate(963.525391 0)"/>
     <use xlink:href="#TimesNewRomanPSMT-35" transform="translate(1013.525391 0)"/>
     <use xlink:href="#TimesNewRomanPSMT-5f" transform="translate(1063.525391 0)"/>
     <use xlink:href="#TimesNewRomanPSMT-43" transform="translate(1113.525391 0)"/>
     <use xlink:href="#TimesNewRomanPSMT-49" transform="translate(1180.224609 0)"/>
     <use xlink:href="#TimesNewRomanPSMT-4e" transform="translate(1213.525391 0)"/>
     <use xlink:href="#TimesNewRomanPSMT-49" transform="translate(1285.742188 0)"/>
     <use xlink:href="#TimesNewRomanPSMT-43" transform="translate(1319.042969 0)"/>
     <use xlink:href="#TimesNewRomanPSMT-31" transform="translate(1385.742188 0)"/>
     <use xlink:href="#TimesNewRomanPSMT-30" transform="translate(1435.742188 0)"/>
     <use xlink:href="#TimesNewRomanPSMT-5f" transform="translate(1485.742188 0)"/>
     <use xlink:href="#TimesNewRomanPSMT-74" transform="translate(1535.742188 0)"/>
     <use xlink:href="#TimesNewRomanPSMT-6f" transform="translate(1563.525391 0)"/>
     <use xlink:href="#TimesNewRomanPSMT-72" transform="translate(1613.525391 0)"/>
     <use xlink:href="#TimesNewRomanPSMT-63" transform="translate(1646.826172 0)"/>
     <use xlink:href="#TimesNewRomanPSMT-68" transform="translate(1691.210938 0)"/>
     <use xlink:href="#TimesNewRomanPSMT-5f" transform="translate(1741.210938 0)"/>
     <use xlink:href="#TimesNewRomanPSMT-6d" transform="translate(1791.210938 0)"/>
     <use xlink:href="#TimesNewRomanPSMT-6f" transform="translate(1868.994141 0)"/>
     <use xlink:href="#TimesNewRomanPSMT-64" transform="translate(1918.994141 0)"/>
     <use xlink:href="#TimesNewRomanPSMT-65" transform="translate(1968.994141 0)"/>
     <use xlink:href="#TimesNewRomanPSMT-6c" transform="translate(2013.378906 0)"/>
     <use xlink:href="#TimesNewRomanPSMT-5f" transform="translate(2041.162109 0)"/>
     <use xlink:href="#TimesNewRomanPSMT-28" transform="translate(2091.162109 0)"/>
     <use xlink:href="#TimesNewRomanPSMT-31" transform="translate(2124.462891 0)"/>
     <use xlink:href="#TimesNewRomanPSMT-30" transform="translate(2174.462891 0)"/>
     <use xlink:href="#TimesNewRomanPSMT-32" transform="translate(2224.462891 0)"/>
     <use xlink:href="#TimesNewRomanPSMT-34" transform="translate(2274.462891 0)"/>
     <use xlink:href="#TimesNewRomanPSMT-2b" transform="translate(2324.462891 0)"/>
     <use xlink:href="#TimesNewRomanPSMT-38" transform="translate(2380.859375 0)"/>
     <use xlink:href="#TimesNewRomanPSMT-31" transform="translate(2430.859375 0)"/>
     <use xlink:href="#TimesNewRomanPSMT-39" transform="translate(2480.859375 0)"/>
     <use xlink:href="#TimesNewRomanPSMT-32" transform="translate(2530.859375 0)"/>
     <use xlink:href="#TimesNewRomanPSMT-2d" transform="translate(2580.859375 0)"/>
     <use xlink:href="#TimesNewRomanPSMT-38" transform="translate(2614.160156 0)"/>
     <use xlink:href="#TimesNewRomanPSMT-31" transform="translate(2664.160156 0)"/>
     <use xlink:href="#TimesNewRomanPSMT-39" transform="translate(2714.160156 0)"/>
     <use xlink:href="#TimesNewRomanPSMT-32" transform="translate(2764.160156 0)"/>
     <use xlink:href="#TimesNewRomanPSMT-2e" transform="translate(2814.160156 0)"/>
     <use xlink:href="#TimesNewRomanPSMT-33" transform="translate(2839.160156 0)"/>
     <use xlink:href="#TimesNewRomanPSMT-2d" transform="translate(2889.160156 0)"/>
     <use xlink:href="#TimesNewRomanPSMT-31" transform="translate(2922.460938 0)"/>
     <use xlink:href="#TimesNewRomanPSMT-29" transform="translate(2972.460938 0)"/>
     <use xlink:href="#TimesNewRomanPSMT-5f" transform="translate(3005.761719 0)"/>
     <use xlink:href="#TimesNewRomanPSMT-63" transform="translate(3055.761719 0)"/>
     <use xlink:href="#TimesNewRomanPSMT-61" transform="translate(3100.146484 0)"/>
     <use xlink:href="#TimesNewRomanPSMT-74" transform="translate(3144.53125 0)"/>
     <use xlink:href="#TimesNewRomanPSMT-2d" transform="translate(3172.314453 0)"/>
     <use xlink:href="#TimesNewRomanPSMT-64" transform="translate(3205.615234 0)"/>
     <use xlink:href="#TimesNewRomanPSMT-6f" transform="translate(3255.615234 0)"/>
     <use xlink:href="#TimesNewRomanPSMT-67" transform="translate(3305.615234 0)"/>
     <use xlink:href="#TimesNewRomanPSMT-20" transform="translate(3355.615234 0)"/>
     <use xlink:href="#TimesNewRomanPSMT-6f" transform="translate(3380.615234 0)"/>
     <use xlink:href="#TimesNewRomanPSMT-6e" transform="translate(3430.615234 0)"/>
     <use xlink:href="#TimesNewRomanPSMT-20" transform="translate(3480.615234 0)"/>
     <use xlink:href="#TimesNewRomanPSMT-74" transform="translate(3505.615234 0)"/>
     <use xlink:href="#TimesNewRomanPSMT-68" transform="translate(3533.398438 0)"/>
     <use xlink:href="#TimesNewRomanPSMT-65" transform="translate(3583.398438 0)"/>
     <use xlink:href="#TimesNewRomanPSMT-20" transform="translate(3627.783203 0)"/>
     <use xlink:href="#TimesNewRomanPSMT-76" transform="translate(3652.783203 0)"/>
     <use xlink:href="#TimesNewRomanPSMT-61" transform="translate(3702.783203 0)"/>
     <use xlink:href="#TimesNewRomanPSMT-6c" transform="translate(3747.167969 0)"/>
     <use xlink:href="#TimesNewRomanPSMT-69" transform="translate(3774.951172 0)"/>
     <use xlink:href="#TimesNewRomanPSMT-64" transform="translate(3802.734375 0)"/>
     <use xlink:href="#TimesNewRomanPSMT-61" transform="translate(3852.734375 0)"/>
     <use xlink:href="#TimesNewRomanPSMT-74" transform="translate(3897.119141 0)"/>
     <use xlink:href="#TimesNewRomanPSMT-69" transform="translate(3924.902344 0)"/>
     <use xlink:href="#TimesNewRomanPSMT-6f" transform="translate(3952.685547 0)"/>
     <use xlink:href="#TimesNewRomanPSMT-6e" transform="translate(4002.685547 0)"/>
     <use xlink:href="#TimesNewRomanPSMT-20" transform="translate(4052.685547 0)"/>
     <use xlink:href="#TimesNewRomanPSMT-73" transform="translate(4077.685547 0)"/>
     <use xlink:href="#TimesNewRomanPSMT-65" transform="translate(4116.601562 0)"/>
     <use xlink:href="#TimesNewRomanPSMT-74" transform="translate(4160.986328 0)"/>
    </g>
   </g>
   <g id="legend_1">
    <g id="patch_7">
     <path d="M 486.110875 94.278687 
L 723.281188 94.278687 
Q 727.681188 94.278687 727.681188 89.878687 
L 727.681188 60.9315 
Q 727.681188 56.5315 723.281188 56.5315 
L 486.110875 56.5315 
Q 481.710875 56.5315 481.710875 60.9315 
L 481.710875 89.878687 
Q 481.710875 94.278687 486.110875 94.278687 
z
" style="fill: #ffffff; opacity: 0.8; stroke: #cccccc; stroke-linejoin: miter"/>
    </g>
    <g id="line2d_30">
     <path d="M 490.510875 73.0315 
L 512.510875 73.0315 
L 534.510875 73.0315 
" style="fill: none; stroke: #1f77b4; stroke-width: 1.5; stroke-linecap: square"/>
    </g>
    <g id="text_18">
     <!-- Best accuracy 0.62 -->
     <g transform="translate(552.110875 80.7315) scale(0.22 -0.22)">
      <defs>
       <path id="TimesNewRomanPSMT-42" d="M 2956 2163 
Q 3397 2069 3616 1863 
Q 3919 1575 3919 1159 
Q 3919 844 3719 555 
Q 3519 266 3170 133 
Q 2822 0 2106 0 
L 106 0 
L 106 116 
L 266 116 
Q 531 116 647 284 
Q 719 394 719 750 
L 719 3488 
Q 719 3881 628 3984 
Q 506 4122 266 4122 
L 106 4122 
L 106 4238 
L 1938 4238 
Q 2450 4238 2759 4163 
Q 3228 4050 3475 3764 
Q 3722 3478 3722 3106 
Q 3722 2788 3528 2536 
Q 3334 2284 2956 2163 
z
M 1319 2331 
Q 1434 2309 1582 2298 
Q 1731 2288 1909 2288 
Q 2366 2288 2595 2386 
Q 2825 2484 2947 2687 
Q 3069 2891 3069 3131 
Q 3069 3503 2766 3765 
Q 2463 4028 1881 4028 
Q 1569 4028 1319 3959 
L 1319 2331 
z
M 1319 306 
Q 1681 222 2034 222 
Q 2600 222 2897 476 
Q 3194 731 3194 1106 
Q 3194 1353 3059 1581 
Q 2925 1809 2622 1940 
Q 2319 2072 1872 2072 
Q 1678 2072 1540 2065 
Q 1403 2059 1319 2044 
L 1319 306 
z
" transform="scale(0.015625)"/>
      </defs>
      <use xlink:href="#TimesNewRomanPSMT-42"/>
      <use xlink:href="#TimesNewRomanPSMT-65" transform="translate(66.699219 0)"/>
      <use xlink:href="#TimesNewRomanPSMT-73" transform="translate(111.083984 0)"/>
      <use xlink:href="#TimesNewRomanPSMT-74" transform="translate(150 0)"/>
      <use xlink:href="#TimesNewRomanPSMT-20" transform="translate(177.783203 0)"/>
      <use xlink:href="#TimesNewRomanPSMT-61" transform="translate(202.783203 0)"/>
      <use xlink:href="#TimesNewRomanPSMT-63" transform="translate(247.167969 0)"/>
      <use xlink:href="#TimesNewRomanPSMT-63" transform="translate(291.552734 0)"/>
      <use xlink:href="#TimesNewRomanPSMT-75" transform="translate(335.9375 0)"/>
      <use xlink:href="#TimesNewRomanPSMT-72" transform="translate(385.9375 0)"/>
      <use xlink:href="#TimesNewRomanPSMT-61" transform="translate(419.238281 0)"/>
      <use xlink:href="#TimesNewRomanPSMT-63" transform="translate(463.623047 0)"/>
      <use xlink:href="#TimesNewRomanPSMT-79" transform="translate(508.007812 0)"/>
      <use xlink:href="#TimesNewRomanPSMT-20" transform="translate(558.007812 0)"/>
      <use xlink:href="#TimesNewRomanPSMT-30" transform="translate(583.007812 0)"/>
      <use xlink:href="#TimesNewRomanPSMT-2e" transform="translate(633.007812 0)"/>
      <use xlink:href="#TimesNewRomanPSMT-36" transform="translate(658.007812 0)"/>
      <use xlink:href="#TimesNewRomanPSMT-32" transform="translate(708.007812 0)"/>
     </g>
    </g>
   </g>
  </g>
 </g>
 <defs>
  <clipPath id="pced24ed3d4">
   <rect x="381.561187" y="45.5315" width="357.12" height="266.112"/>
  </clipPath>
 </defs>
</svg>
