<?xml version="1.0" encoding="utf-8" standalone="no"?>
<!DOCTYPE svg PUBLIC "-//W3C//DTD SVG 1.1//EN"
  "http://www.w3.org/Graphics/SVG/1.1/DTD/svg11.dtd">
<svg xmlns:xlink="http://www.w3.org/1999/xlink" width="1070.6145pt" height="383.265687pt" viewBox="0 0 1070.6145 383.265687" xmlns="http://www.w3.org/2000/svg" version="1.1">
 <metadata>
  <rdf:RDF xmlns:dc="http://purl.org/dc/elements/1.1/" xmlns:cc="http://creativecommons.org/ns#" xmlns:rdf="http://www.w3.org/1999/02/22-rdf-syntax-ns#">
   <cc:Work>
    <dc:type rdf:resource="http://purl.org/dc/dcmitype/StillImage"/>
    <dc:date>2025-07-10T21:25:40.244875</dc:date>
    <dc:format>image/svg+xml</dc:format>
    <dc:creator>
     <cc:Agent>
      <dc:title>Matplotlib v3.10.3, https://matplotlib.org/</dc:title>
     </cc:Agent>
    </dc:creator>
   </cc:Work>
  </rdf:RDF>
 </metadata>
 <defs>
  <style type="text/css">*{stroke-linejoin: round; stroke-linecap: butt}</style>
 </defs>
 <g id="figure_1">
  <g id="patch_1">
   <path d="M 0 383.265687 
L 1070.6145 383.265687 
L 1070.6145 0 
L 0 0 
z
" style="fill: #ffffff"/>
  </g>
  <g id="axes_1">
   <g id="patch_2">
    <path d="M 356.74725 311.6435 
L 713.86725 311.6435 
L 713.86725 45.5315 
L 356.74725 45.5315 
z
" style="fill: #ffffff"/>
   </g>
   <g id="matplotlib.axis_1">
    <g id="xtick_1">
     <g id="line2d_1">
      <path d="M 356.74725 311.6435 
L 356.74725 45.5315 
" clip-path="url(#p51f2a22525)" style="fill: none; stroke: #b0b0b0; stroke-opacity: 0.3; stroke-width: 0.8; stroke-linecap: square"/>
     </g>
     <g id="line2d_2">
      <defs>
       <path id="mbfc043eb66" d="M 0 0 
L 0 3.5 
" style="stroke: #000000; stroke-width: 0.8"/>
      </defs>
      <g>
       <use xlink:href="#mbfc043eb66" x="356.74725" y="311.6435" style="stroke: #000000; stroke-width: 0.8"/>
      </g>
     </g>
     <g id="text_1">
      <!-- 0.0 -->
      <g transform="translate(342.99725 333.91975) scale(0.22 -0.22)">
       <defs>
        <path id="TimesNewRomanPSMT-30" d="M 231 2094 
Q 231 2819 450 3342 
Q 669 3866 1031 4122 
Q 1313 4325 1613 4325 
Q 2100 4325 2488 3828 
Q 2972 3213 2972 2159 
Q 2972 1422 2759 906 
Q 2547 391 2217 158 
Q 1888 -75 1581 -75 
Q 975 -75 572 641 
Q 231 1244 231 2094 
z
M 844 2016 
Q 844 1141 1059 588 
Q 1238 122 1591 122 
Q 1759 122 1940 273 
Q 2122 425 2216 781 
Q 2359 1319 2359 2297 
Q 2359 3022 2209 3506 
Q 2097 3866 1919 4016 
Q 1791 4119 1609 4119 
Q 1397 4119 1231 3928 
Q 1006 3669 925 3112 
Q 844 2556 844 2016 
z
" transform="scale(0.015625)"/>
        <path id="TimesNewRomanPSMT-2e" d="M 800 606 
Q 947 606 1047 504 
Q 1147 403 1147 259 
Q 1147 116 1045 14 
Q 944 -88 800 -88 
Q 656 -88 554 14 
Q 453 116 453 259 
Q 453 406 554 506 
Q 656 606 800 606 
z
" transform="scale(0.015625)"/>
       </defs>
       <use xlink:href="#TimesNewRomanPSMT-30"/>
       <use xlink:href="#TimesNewRomanPSMT-2e" transform="translate(50 0)"/>
       <use xlink:href="#TimesNewRomanPSMT-30" transform="translate(75 0)"/>
      </g>
     </g>
    </g>
    <g id="xtick_2">
     <g id="line2d_3">
      <path d="M 462.575089 311.6435 
L 462.575089 45.5315 
" clip-path="url(#p51f2a22525)" style="fill: none; stroke: #b0b0b0; stroke-opacity: 0.3; stroke-width: 0.8; stroke-linecap: square"/>
     </g>
     <g id="line2d_4">
      <g>
       <use xlink:href="#mbfc043eb66" x="462.575089" y="311.6435" style="stroke: #000000; stroke-width: 0.8"/>
      </g>
     </g>
     <g id="text_2">
      <!-- 0.5 -->
      <g transform="translate(448.825089 333.91975) scale(0.22 -0.22)">
       <defs>
        <path id="TimesNewRomanPSMT-35" d="M 2778 4238 
L 2534 3706 
L 1259 3706 
L 981 3138 
Q 1809 3016 2294 2522 
Q 2709 2097 2709 1522 
Q 2709 1188 2573 903 
Q 2438 619 2231 419 
Q 2025 219 1772 97 
Q 1413 -75 1034 -75 
Q 653 -75 479 54 
Q 306 184 306 341 
Q 306 428 378 495 
Q 450 563 559 563 
Q 641 563 702 538 
Q 763 513 909 409 
Q 1144 247 1384 247 
Q 1750 247 2026 523 
Q 2303 800 2303 1197 
Q 2303 1581 2056 1914 
Q 1809 2247 1375 2428 
Q 1034 2569 447 2591 
L 1259 4238 
L 2778 4238 
z
" transform="scale(0.015625)"/>
       </defs>
       <use xlink:href="#TimesNewRomanPSMT-30"/>
       <use xlink:href="#TimesNewRomanPSMT-2e" transform="translate(50 0)"/>
       <use xlink:href="#TimesNewRomanPSMT-35" transform="translate(75 0)"/>
      </g>
     </g>
    </g>
    <g id="xtick_3">
     <g id="line2d_5">
      <path d="M 568.402929 311.6435 
L 568.402929 45.5315 
" clip-path="url(#p51f2a22525)" style="fill: none; stroke: #b0b0b0; stroke-opacity: 0.3; stroke-width: 0.8; stroke-linecap: square"/>
     </g>
     <g id="line2d_6">
      <g>
       <use xlink:href="#mbfc043eb66" x="568.402929" y="311.6435" style="stroke: #000000; stroke-width: 0.8"/>
      </g>
     </g>
     <g id="text_3">
      <!-- 1.0 -->
      <g transform="translate(554.652929 333.91975) scale(0.22 -0.22)">
       <defs>
        <path id="TimesNewRomanPSMT-31" d="M 750 3822 
L 1781 4325 
L 1884 4325 
L 1884 747 
Q 1884 391 1914 303 
Q 1944 216 2037 169 
Q 2131 122 2419 116 
L 2419 0 
L 825 0 
L 825 116 
Q 1125 122 1212 167 
Q 1300 213 1334 289 
Q 1369 366 1369 747 
L 1369 3034 
Q 1369 3497 1338 3628 
Q 1316 3728 1258 3775 
Q 1200 3822 1119 3822 
Q 1003 3822 797 3725 
L 750 3822 
z
" transform="scale(0.015625)"/>
       </defs>
       <use xlink:href="#TimesNewRomanPSMT-31"/>
       <use xlink:href="#TimesNewRomanPSMT-2e" transform="translate(50 0)"/>
       <use xlink:href="#TimesNewRomanPSMT-30" transform="translate(75 0)"/>
      </g>
     </g>
    </g>
    <g id="xtick_4">
     <g id="line2d_7">
      <path d="M 674.230768 311.6435 
L 674.230768 45.5315 
" clip-path="url(#p51f2a22525)" style="fill: none; stroke: #b0b0b0; stroke-opacity: 0.3; stroke-width: 0.8; stroke-linecap: square"/>
     </g>
     <g id="line2d_8">
      <g>
       <use xlink:href="#mbfc043eb66" x="674.230768" y="311.6435" style="stroke: #000000; stroke-width: 0.8"/>
      </g>
     </g>
     <g id="text_4">
      <!-- 1.5 -->
      <g transform="translate(660.480768 333.91975) scale(0.22 -0.22)">
       <use xlink:href="#TimesNewRomanPSMT-31"/>
       <use xlink:href="#TimesNewRomanPSMT-2e" transform="translate(50 0)"/>
       <use xlink:href="#TimesNewRomanPSMT-35" transform="translate(75 0)"/>
      </g>
     </g>
    </g>
    <g id="text_5">
     <!-- $\kappa  = \frac{ln(n)}{ln(d)}$ -->
     <g transform="translate(503.29725 364.185687) scale(0.22 -0.22)">
      <defs>
       <path id="STIXGeneral-Italic-3ba" d="M 979 1440 
L 998 1446 
Q 1850 2541 2464 2790 
Q 2547 2822 2630 2822 
Q 2797 2822 2886 2736 
Q 2976 2650 2976 2522 
Q 2976 2387 2893 2307 
Q 2810 2227 2682 2227 
Q 2605 2227 2502 2288 
Q 2400 2349 2336 2349 
Q 2170 2349 1990 2205 
Q 1811 2061 1414 1645 
L 2042 544 
Q 2202 262 2310 182 
Q 2419 102 2624 102 
L 2624 0 
Q 2374 -83 2182 -83 
Q 1786 -83 1555 326 
L 960 1350 
L 576 0 
L 90 0 
L 640 1978 
Q 730 2317 730 2406 
Q 730 2560 518 2560 
L 339 2560 
L 339 2650 
Q 678 2694 1306 2822 
L 1325 2803 
L 979 1440 
z
" transform="scale(0.015625)"/>
       <path id="STIXGeneral-Regular-3d" d="M 4077 2048 
L 307 2048 
L 307 2470 
L 4077 2470 
L 4077 2048 
z
M 4077 768 
L 307 768 
L 307 1190 
L 4077 1190 
L 4077 768 
z
" transform="scale(0.015625)"/>
       <path id="STIXGeneral-Italic-6c" d="M 1786 4339 
L 806 595 
Q 755 410 755 320 
Q 755 205 864 205 
Q 1037 205 1293 570 
L 1453 794 
L 1542 730 
Q 1254 275 1046 102 
Q 838 -70 576 -70 
Q 262 -70 262 288 
Q 262 397 288 480 
L 1165 3834 
Q 1184 3898 1184 3955 
Q 1184 4096 870 4096 
L 755 4096 
L 755 4198 
Q 1203 4250 1747 4371 
L 1786 4339 
z
" transform="scale(0.015625)"/>
       <path id="STIXGeneral-Italic-6e" d="M 2944 749 
L 3034 666 
Q 2707 218 2534 80 
Q 2362 -58 2138 -58 
Q 2010 -58 1923 28 
Q 1837 115 1837 288 
Q 1837 390 1939 768 
L 2221 1805 
Q 2310 2150 2310 2310 
Q 2310 2496 2157 2496 
Q 1971 2496 1750 2275 
Q 1530 2054 1210 1587 
Q 998 1274 899 1024 
Q 800 774 570 0 
L 90 0 
L 704 2240 
Q 717 2304 717 2349 
Q 717 2445 630 2480 
Q 544 2515 301 2522 
L 301 2624 
Q 550 2675 857 2729 
Q 1165 2784 1338 2822 
L 1363 2810 
L 934 1414 
Q 1408 2170 1753 2496 
Q 2099 2822 2413 2822 
Q 2611 2822 2720 2716 
Q 2829 2611 2829 2432 
Q 2829 2272 2765 2048 
L 2406 749 
Q 2317 429 2317 358 
Q 2317 243 2419 243 
Q 2541 243 2810 582 
Q 2854 634 2944 749 
z
" transform="scale(0.015625)"/>
       <path id="STIXGeneral-Regular-28" d="M 1946 -1030 
L 1869 -1133 
Q 1126 -710 716 32 
Q 307 774 307 1613 
Q 307 3386 1888 4326 
L 1946 4224 
Q 1293 3667 1075 3126 
Q 858 2586 858 1632 
Q 858 685 1082 96 
Q 1306 -493 1946 -1030 
z
" transform="scale(0.015625)"/>
       <path id="STIXGeneral-Regular-29" d="M 186 4224 
L 262 4326 
Q 992 3891 1408 3148 
Q 1824 2406 1824 1581 
Q 1824 -166 243 -1133 
L 186 -1030 
Q 845 -486 1059 54 
Q 1274 595 1274 1562 
Q 1274 2534 1059 3120 
Q 845 3706 186 4224 
z
" transform="scale(0.015625)"/>
       <path id="STIXGeneral-Italic-64" d="M 3334 4371 
L 3373 4333 
L 3123 3360 
L 2739 1958 
Q 2323 429 2323 384 
Q 2323 256 2438 256 
Q 2522 256 2614 336 
Q 2707 416 2963 710 
L 3040 646 
Q 2547 -83 2099 -83 
Q 1978 -83 1907 -6 
Q 1837 70 1837 205 
Q 1837 397 1920 774 
Q 1645 307 1379 118 
Q 1114 -70 781 -70 
Q 461 -70 278 125 
Q 96 320 96 678 
Q 96 1440 713 2131 
Q 1331 2822 1965 2822 
Q 2163 2822 2256 2732 
Q 2349 2643 2381 2451 
L 2387 2451 
L 2675 3494 
Q 2765 3808 2765 3949 
Q 2765 4051 2694 4076 
Q 2624 4102 2355 4115 
L 2355 4224 
Q 2848 4269 3334 4371 
z
M 2278 2310 
Q 2278 2477 2185 2576 
Q 2093 2675 1978 2675 
Q 1677 2675 1395 2381 
Q 1075 2042 864 1571 
Q 653 1101 653 704 
Q 653 486 752 361 
Q 851 237 1024 237 
Q 1312 237 1606 550 
Q 1901 864 2089 1350 
Q 2278 1837 2278 2310 
z
" transform="scale(0.015625)"/>
      </defs>
      <use xlink:href="#STIXGeneral-Italic-3ba" transform="translate(0 0.003125)"/>
      <use xlink:href="#STIXGeneral-Regular-3d" transform="translate(58.83999 0.003125)"/>
      <use xlink:href="#STIXGeneral-Italic-6c" transform="translate(141.779971 50.192188) scale(0.7)"/>
      <use xlink:href="#STIXGeneral-Italic-6e" transform="translate(161.239963 50.192188) scale(0.7)"/>
      <use xlink:href="#STIXGeneral-Regular-28" transform="translate(196.239952 50.192188) scale(0.7)"/>
      <use xlink:href="#STIXGeneral-Italic-6e" transform="translate(219.549944 50.192188) scale(0.7)"/>
      <use xlink:href="#STIXGeneral-Regular-29" transform="translate(254.549933 50.192188) scale(0.7)"/>
      <use xlink:href="#STIXGeneral-Italic-6c" transform="translate(141.779971 -41.257812) scale(0.7)"/>
      <use xlink:href="#STIXGeneral-Italic-6e" transform="translate(161.239963 -41.257812) scale(0.7)"/>
      <use xlink:href="#STIXGeneral-Regular-28" transform="translate(196.239952 -41.257812) scale(0.7)"/>
      <use xlink:href="#STIXGeneral-Italic-64" transform="translate(219.549944 -41.257812) scale(0.7)"/>
      <use xlink:href="#STIXGeneral-Regular-29" transform="translate(254.549933 -41.257812) scale(0.7)"/>
      <path d="M 141.779971 12.8 
L 141.779971 19.05 
L 277.859924 19.05 
L 277.859924 12.8 
L 141.779971 12.8 
z
"/>
     </g>
    </g>
   </g>
   <g id="matplotlib.axis_2">
    <g id="ytick_1">
     <g id="line2d_9">
      <path d="M 356.74725 311.6435 
L 713.86725 311.6435 
" clip-path="url(#p51f2a22525)" style="fill: none; stroke: #b0b0b0; stroke-opacity: 0.3; stroke-width: 0.8; stroke-linecap: square"/>
     </g>
     <g id="line2d_10">
      <defs>
       <path id="m0d86241259" d="M 0 0 
L -3.5 0 
" style="stroke: #000000; stroke-width: 0.8"/>
      </defs>
      <g>
       <use xlink:href="#m0d86241259" x="356.74725" y="311.6435" style="stroke: #000000; stroke-width: 0.8"/>
      </g>
     </g>
     <g id="text_6">
      <!-- 0.0 -->
      <g transform="translate(322.24725 319.281625) scale(0.22 -0.22)">
       <use xlink:href="#TimesNewRomanPSMT-30"/>
       <use xlink:href="#TimesNewRomanPSMT-2e" transform="translate(50 0)"/>
       <use xlink:href="#TimesNewRomanPSMT-30" transform="translate(75 0)"/>
      </g>
     </g>
    </g>
    <g id="ytick_2">
     <g id="line2d_11">
      <path d="M 356.74725 285.0323 
L 713.86725 285.0323 
" clip-path="url(#p51f2a22525)" style="fill: none; stroke: #b0b0b0; stroke-opacity: 0.3; stroke-width: 0.8; stroke-linecap: square"/>
     </g>
     <g id="line2d_12">
      <g>
       <use xlink:href="#m0d86241259" x="356.74725" y="285.0323" style="stroke: #000000; stroke-width: 0.8"/>
      </g>
     </g>
     <g id="text_7">
      <!-- 0.1 -->
      <g transform="translate(322.24725 292.670425) scale(0.22 -0.22)">
       <use xlink:href="#TimesNewRomanPSMT-30"/>
       <use xlink:href="#TimesNewRomanPSMT-2e" transform="translate(50 0)"/>
       <use xlink:href="#TimesNewRomanPSMT-31" transform="translate(75 0)"/>
      </g>
     </g>
    </g>
    <g id="ytick_3">
     <g id="line2d_13">
      <path d="M 356.74725 258.4211 
L 713.86725 258.4211 
" clip-path="url(#p51f2a22525)" style="fill: none; stroke: #b0b0b0; stroke-opacity: 0.3; stroke-width: 0.8; stroke-linecap: square"/>
     </g>
     <g id="line2d_14">
      <g>
       <use xlink:href="#m0d86241259" x="356.74725" y="258.4211" style="stroke: #000000; stroke-width: 0.8"/>
      </g>
     </g>
     <g id="text_8">
      <!-- 0.2 -->
      <g transform="translate(322.24725 266.059225) scale(0.22 -0.22)">
       <defs>
        <path id="TimesNewRomanPSMT-32" d="M 2934 816 
L 2638 0 
L 138 0 
L 138 116 
Q 1241 1122 1691 1759 
Q 2141 2397 2141 2925 
Q 2141 3328 1894 3587 
Q 1647 3847 1303 3847 
Q 991 3847 742 3664 
Q 494 3481 375 3128 
L 259 3128 
Q 338 3706 661 4015 
Q 984 4325 1469 4325 
Q 1984 4325 2329 3994 
Q 2675 3663 2675 3213 
Q 2675 2891 2525 2569 
Q 2294 2063 1775 1497 
Q 997 647 803 472 
L 1909 472 
Q 2247 472 2383 497 
Q 2519 522 2628 598 
Q 2738 675 2819 816 
L 2934 816 
z
" transform="scale(0.015625)"/>
       </defs>
       <use xlink:href="#TimesNewRomanPSMT-30"/>
       <use xlink:href="#TimesNewRomanPSMT-2e" transform="translate(50 0)"/>
       <use xlink:href="#TimesNewRomanPSMT-32" transform="translate(75 0)"/>
      </g>
     </g>
    </g>
    <g id="ytick_4">
     <g id="line2d_15">
      <path d="M 356.74725 231.8099 
L 713.86725 231.8099 
" clip-path="url(#p51f2a22525)" style="fill: none; stroke: #b0b0b0; stroke-opacity: 0.3; stroke-width: 0.8; stroke-linecap: square"/>
     </g>
     <g id="line2d_16">
      <g>
       <use xlink:href="#m0d86241259" x="356.74725" y="231.8099" style="stroke: #000000; stroke-width: 0.8"/>
      </g>
     </g>
     <g id="text_9">
      <!-- 0.3 -->
      <g transform="translate(322.24725 239.448025) scale(0.22 -0.22)">
       <defs>
        <path id="TimesNewRomanPSMT-33" d="M 325 3431 
Q 506 3859 782 4092 
Q 1059 4325 1472 4325 
Q 1981 4325 2253 3994 
Q 2459 3747 2459 3466 
Q 2459 3003 1878 2509 
Q 2269 2356 2469 2072 
Q 2669 1788 2669 1403 
Q 2669 853 2319 450 
Q 1863 -75 997 -75 
Q 569 -75 414 31 
Q 259 138 259 259 
Q 259 350 332 419 
Q 406 488 509 488 
Q 588 488 669 463 
Q 722 447 909 348 
Q 1097 250 1169 231 
Q 1284 197 1416 197 
Q 1734 197 1970 444 
Q 2206 691 2206 1028 
Q 2206 1275 2097 1509 
Q 2016 1684 1919 1775 
Q 1784 1900 1550 2001 
Q 1316 2103 1072 2103 
L 972 2103 
L 972 2197 
Q 1219 2228 1467 2375 
Q 1716 2522 1828 2728 
Q 1941 2934 1941 3181 
Q 1941 3503 1739 3701 
Q 1538 3900 1238 3900 
Q 753 3900 428 3381 
L 325 3431 
z
" transform="scale(0.015625)"/>
       </defs>
       <use xlink:href="#TimesNewRomanPSMT-30"/>
       <use xlink:href="#TimesNewRomanPSMT-2e" transform="translate(50 0)"/>
       <use xlink:href="#TimesNewRomanPSMT-33" transform="translate(75 0)"/>
      </g>
     </g>
    </g>
    <g id="ytick_5">
     <g id="line2d_17">
      <path d="M 356.74725 205.1987 
L 713.86725 205.1987 
" clip-path="url(#p51f2a22525)" style="fill: none; stroke: #b0b0b0; stroke-opacity: 0.3; stroke-width: 0.8; stroke-linecap: square"/>
     </g>
     <g id="line2d_18">
      <g>
       <use xlink:href="#m0d86241259" x="356.74725" y="205.1987" style="stroke: #000000; stroke-width: 0.8"/>
      </g>
     </g>
     <g id="text_10">
      <!-- 0.4 -->
      <g transform="translate(322.24725 212.836825) scale(0.22 -0.22)">
       <defs>
        <path id="TimesNewRomanPSMT-34" d="M 2978 1563 
L 2978 1119 
L 2409 1119 
L 2409 0 
L 1894 0 
L 1894 1119 
L 100 1119 
L 100 1519 
L 2066 4325 
L 2409 4325 
L 2409 1563 
L 2978 1563 
z
M 1894 1563 
L 1894 3666 
L 406 1563 
L 1894 1563 
z
" transform="scale(0.015625)"/>
       </defs>
       <use xlink:href="#TimesNewRomanPSMT-30"/>
       <use xlink:href="#TimesNewRomanPSMT-2e" transform="translate(50 0)"/>
       <use xlink:href="#TimesNewRomanPSMT-34" transform="translate(75 0)"/>
      </g>
     </g>
    </g>
    <g id="ytick_6">
     <g id="line2d_19">
      <path d="M 356.74725 178.5875 
L 713.86725 178.5875 
" clip-path="url(#p51f2a22525)" style="fill: none; stroke: #b0b0b0; stroke-opacity: 0.3; stroke-width: 0.8; stroke-linecap: square"/>
     </g>
     <g id="line2d_20">
      <g>
       <use xlink:href="#m0d86241259" x="356.74725" y="178.5875" style="stroke: #000000; stroke-width: 0.8"/>
      </g>
     </g>
     <g id="text_11">
      <!-- 0.5 -->
      <g transform="translate(322.24725 186.225625) scale(0.22 -0.22)">
       <use xlink:href="#TimesNewRomanPSMT-30"/>
       <use xlink:href="#TimesNewRomanPSMT-2e" transform="translate(50 0)"/>
       <use xlink:href="#TimesNewRomanPSMT-35" transform="translate(75 0)"/>
      </g>
     </g>
    </g>
    <g id="ytick_7">
     <g id="line2d_21">
      <path d="M 356.74725 151.9763 
L 713.86725 151.9763 
" clip-path="url(#p51f2a22525)" style="fill: none; stroke: #b0b0b0; stroke-opacity: 0.3; stroke-width: 0.8; stroke-linecap: square"/>
     </g>
     <g id="line2d_22">
      <g>
       <use xlink:href="#m0d86241259" x="356.74725" y="151.9763" style="stroke: #000000; stroke-width: 0.8"/>
      </g>
     </g>
     <g id="text_12">
      <!-- 0.6 -->
      <g transform="translate(322.24725 159.614425) scale(0.22 -0.22)">
       <defs>
        <path id="TimesNewRomanPSMT-36" d="M 2869 4325 
L 2869 4209 
Q 2456 4169 2195 4045 
Q 1934 3922 1679 3669 
Q 1425 3416 1258 3105 
Q 1091 2794 978 2366 
Q 1428 2675 1881 2675 
Q 2316 2675 2634 2325 
Q 2953 1975 2953 1425 
Q 2953 894 2631 456 
Q 2244 -75 1606 -75 
Q 1172 -75 869 213 
Q 275 772 275 1663 
Q 275 2231 503 2743 
Q 731 3256 1154 3653 
Q 1578 4050 1965 4187 
Q 2353 4325 2688 4325 
L 2869 4325 
z
M 925 2138 
Q 869 1716 869 1456 
Q 869 1156 980 804 
Q 1091 453 1309 247 
Q 1469 100 1697 100 
Q 1969 100 2183 356 
Q 2397 613 2397 1088 
Q 2397 1622 2184 2012 
Q 1972 2403 1581 2403 
Q 1463 2403 1327 2353 
Q 1191 2303 925 2138 
z
" transform="scale(0.015625)"/>
       </defs>
       <use xlink:href="#TimesNewRomanPSMT-30"/>
       <use xlink:href="#TimesNewRomanPSMT-2e" transform="translate(50 0)"/>
       <use xlink:href="#TimesNewRomanPSMT-36" transform="translate(75 0)"/>
      </g>
     </g>
    </g>
    <g id="ytick_8">
     <g id="line2d_23">
      <path d="M 356.74725 125.3651 
L 713.86725 125.3651 
" clip-path="url(#p51f2a22525)" style="fill: none; stroke: #b0b0b0; stroke-opacity: 0.3; stroke-width: 0.8; stroke-linecap: square"/>
     </g>
     <g id="line2d_24">
      <g>
       <use xlink:href="#m0d86241259" x="356.74725" y="125.3651" style="stroke: #000000; stroke-width: 0.8"/>
      </g>
     </g>
     <g id="text_13">
      <!-- 0.7 -->
      <g transform="translate(322.24725 133.003225) scale(0.22 -0.22)">
       <defs>
        <path id="TimesNewRomanPSMT-37" d="M 644 4238 
L 2916 4238 
L 2916 4119 
L 1503 -88 
L 1153 -88 
L 2419 3728 
L 1253 3728 
Q 900 3728 750 3644 
Q 488 3500 328 3200 
L 238 3234 
L 644 4238 
z
" transform="scale(0.015625)"/>
       </defs>
       <use xlink:href="#TimesNewRomanPSMT-30"/>
       <use xlink:href="#TimesNewRomanPSMT-2e" transform="translate(50 0)"/>
       <use xlink:href="#TimesNewRomanPSMT-37" transform="translate(75 0)"/>
      </g>
     </g>
    </g>
    <g id="ytick_9">
     <g id="line2d_25">
      <path d="M 356.74725 98.7539 
L 713.86725 98.7539 
" clip-path="url(#p51f2a22525)" style="fill: none; stroke: #b0b0b0; stroke-opacity: 0.3; stroke-width: 0.8; stroke-linecap: square"/>
     </g>
     <g id="line2d_26">
      <g>
       <use xlink:href="#m0d86241259" x="356.74725" y="98.7539" style="stroke: #000000; stroke-width: 0.8"/>
      </g>
     </g>
     <g id="text_14">
      <!-- 0.8 -->
      <g transform="translate(322.24725 106.392025) scale(0.22 -0.22)">
       <defs>
        <path id="TimesNewRomanPSMT-38" d="M 1228 2134 
Q 725 2547 579 2797 
Q 434 3047 434 3316 
Q 434 3728 753 4026 
Q 1072 4325 1600 4325 
Q 2113 4325 2425 4047 
Q 2738 3769 2738 3413 
Q 2738 3175 2569 2928 
Q 2400 2681 1866 2347 
Q 2416 1922 2594 1678 
Q 2831 1359 2831 1006 
Q 2831 559 2490 242 
Q 2150 -75 1597 -75 
Q 994 -75 656 303 
Q 388 606 388 966 
Q 388 1247 577 1523 
Q 766 1800 1228 2134 
z
M 1719 2469 
Q 2094 2806 2194 3001 
Q 2294 3197 2294 3444 
Q 2294 3772 2109 3958 
Q 1925 4144 1606 4144 
Q 1288 4144 1088 3959 
Q 888 3775 888 3528 
Q 888 3366 970 3203 
Q 1053 3041 1206 2894 
L 1719 2469 
z
M 1375 2016 
Q 1116 1797 991 1539 
Q 866 1281 866 981 
Q 866 578 1086 336 
Q 1306 94 1647 94 
Q 1984 94 2187 284 
Q 2391 475 2391 747 
Q 2391 972 2272 1150 
Q 2050 1481 1375 2016 
z
" transform="scale(0.015625)"/>
       </defs>
       <use xlink:href="#TimesNewRomanPSMT-30"/>
       <use xlink:href="#TimesNewRomanPSMT-2e" transform="translate(50 0)"/>
       <use xlink:href="#TimesNewRomanPSMT-38" transform="translate(75 0)"/>
      </g>
     </g>
    </g>
    <g id="ytick_10">
     <g id="line2d_27">
      <path d="M 356.74725 72.1427 
L 713.86725 72.1427 
" clip-path="url(#p51f2a22525)" style="fill: none; stroke: #b0b0b0; stroke-opacity: 0.3; stroke-width: 0.8; stroke-linecap: square"/>
     </g>
     <g id="line2d_28">
      <g>
       <use xlink:href="#m0d86241259" x="356.74725" y="72.1427" style="stroke: #000000; stroke-width: 0.8"/>
      </g>
     </g>
     <g id="text_15">
      <!-- 0.9 -->
      <g transform="translate(322.24725 79.780825) scale(0.22 -0.22)">
       <defs>
        <path id="TimesNewRomanPSMT-39" d="M 338 -88 
L 338 28 
Q 744 34 1094 217 
Q 1444 400 1770 856 
Q 2097 1313 2225 1859 
Q 1734 1544 1338 1544 
Q 891 1544 572 1889 
Q 253 2234 253 2806 
Q 253 3363 572 3797 
Q 956 4325 1575 4325 
Q 2097 4325 2469 3894 
Q 2925 3359 2925 2575 
Q 2925 1869 2578 1258 
Q 2231 647 1613 244 
Q 1109 -88 516 -88 
L 338 -88 
z
M 2275 2091 
Q 2331 2497 2331 2741 
Q 2331 3044 2228 3395 
Q 2125 3747 1936 3934 
Q 1747 4122 1506 4122 
Q 1228 4122 1018 3872 
Q 809 3622 809 3128 
Q 809 2469 1088 2097 
Q 1291 1828 1588 1828 
Q 1731 1828 1928 1897 
Q 2125 1966 2275 2091 
z
" transform="scale(0.015625)"/>
       </defs>
       <use xlink:href="#TimesNewRomanPSMT-30"/>
       <use xlink:href="#TimesNewRomanPSMT-2e" transform="translate(50 0)"/>
       <use xlink:href="#TimesNewRomanPSMT-39" transform="translate(75 0)"/>
      </g>
     </g>
    </g>
    <g id="ytick_11">
     <g id="line2d_29">
      <path d="M 356.74725 45.5315 
L 713.86725 45.5315 
" clip-path="url(#p51f2a22525)" style="fill: none; stroke: #b0b0b0; stroke-opacity: 0.3; stroke-width: 0.8; stroke-linecap: square"/>
     </g>
     <g id="line2d_30">
      <g>
       <use xlink:href="#m0d86241259" x="356.74725" y="45.5315" style="stroke: #000000; stroke-width: 0.8"/>
      </g>
     </g>
     <g id="text_16">
      <!-- 1.0 -->
      <g transform="translate(322.24725 53.169625) scale(0.22 -0.22)">
       <use xlink:href="#TimesNewRomanPSMT-31"/>
       <use xlink:href="#TimesNewRomanPSMT-2e" transform="translate(50 0)"/>
       <use xlink:href="#TimesNewRomanPSMT-30" transform="translate(75 0)"/>
      </g>
     </g>
    </g>
    <g id="text_17">
     <!-- Accuracy -->
     <g transform="translate(313.500063 220.726094) rotate(-90) scale(0.22 -0.22)">
      <defs>
       <path id="TimesNewRomanPSMT-41" d="M 2928 1419 
L 1288 1419 
L 1000 750 
Q 894 503 894 381 
Q 894 284 986 211 
Q 1078 138 1384 116 
L 1384 0 
L 50 0 
L 50 116 
Q 316 163 394 238 
Q 553 388 747 847 
L 2238 4334 
L 2347 4334 
L 3822 809 
Q 4000 384 4145 257 
Q 4291 131 4550 116 
L 4550 0 
L 2878 0 
L 2878 116 
Q 3131 128 3220 200 
Q 3309 272 3309 375 
Q 3309 513 3184 809 
L 2928 1419 
z
M 2841 1650 
L 2122 3363 
L 1384 1650 
L 2841 1650 
z
" transform="scale(0.015625)"/>
       <path id="TimesNewRomanPSMT-63" d="M 2631 1088 
Q 2516 522 2178 217 
Q 1841 -88 1431 -88 
Q 944 -88 581 321 
Q 219 731 219 1428 
Q 219 2103 620 2525 
Q 1022 2947 1584 2947 
Q 2006 2947 2278 2723 
Q 2550 2500 2550 2259 
Q 2550 2141 2473 2067 
Q 2397 1994 2259 1994 
Q 2075 1994 1981 2113 
Q 1928 2178 1911 2362 
Q 1894 2547 1784 2644 
Q 1675 2738 1481 2738 
Q 1169 2738 978 2506 
Q 725 2200 725 1697 
Q 725 1184 976 792 
Q 1228 400 1656 400 
Q 1963 400 2206 609 
Q 2378 753 2541 1131 
L 2631 1088 
z
" transform="scale(0.015625)"/>
       <path id="TimesNewRomanPSMT-75" d="M 2709 2863 
L 2709 1128 
Q 2709 631 2732 520 
Q 2756 409 2807 365 
Q 2859 322 2928 322 
Q 3025 322 3147 375 
L 3191 266 
L 2334 -88 
L 2194 -88 
L 2194 519 
Q 1825 119 1631 15 
Q 1438 -88 1222 -88 
Q 981 -88 804 51 
Q 628 191 559 409 
Q 491 628 491 1028 
L 491 2306 
Q 491 2509 447 2587 
Q 403 2666 317 2708 
Q 231 2750 6 2747 
L 6 2863 
L 1009 2863 
L 1009 947 
Q 1009 547 1148 422 
Q 1288 297 1484 297 
Q 1619 297 1789 381 
Q 1959 466 2194 703 
L 2194 2325 
Q 2194 2569 2105 2655 
Q 2016 2741 1734 2747 
L 1734 2863 
L 2709 2863 
z
" transform="scale(0.015625)"/>
       <path id="TimesNewRomanPSMT-72" d="M 1038 2947 
L 1038 2303 
Q 1397 2947 1775 2947 
Q 1947 2947 2059 2842 
Q 2172 2738 2172 2600 
Q 2172 2478 2090 2393 
Q 2009 2309 1897 2309 
Q 1788 2309 1652 2417 
Q 1516 2525 1450 2525 
Q 1394 2525 1328 2463 
Q 1188 2334 1038 2041 
L 1038 669 
Q 1038 431 1097 309 
Q 1138 225 1241 169 
Q 1344 113 1538 113 
L 1538 0 
L 72 0 
L 72 113 
Q 291 113 397 181 
Q 475 231 506 341 
Q 522 394 522 644 
L 522 1753 
Q 522 2253 501 2348 
Q 481 2444 426 2487 
Q 372 2531 291 2531 
Q 194 2531 72 2484 
L 41 2597 
L 906 2947 
L 1038 2947 
z
" transform="scale(0.015625)"/>
       <path id="TimesNewRomanPSMT-61" d="M 1822 413 
Q 1381 72 1269 19 
Q 1100 -59 909 -59 
Q 613 -59 420 144 
Q 228 347 228 678 
Q 228 888 322 1041 
Q 450 1253 767 1440 
Q 1084 1628 1822 1897 
L 1822 2009 
Q 1822 2438 1686 2597 
Q 1550 2756 1291 2756 
Q 1094 2756 978 2650 
Q 859 2544 859 2406 
L 866 2225 
Q 866 2081 792 2003 
Q 719 1925 600 1925 
Q 484 1925 411 2006 
Q 338 2088 338 2228 
Q 338 2497 613 2722 
Q 888 2947 1384 2947 
Q 1766 2947 2009 2819 
Q 2194 2722 2281 2516 
Q 2338 2381 2338 1966 
L 2338 994 
Q 2338 584 2353 492 
Q 2369 400 2405 369 
Q 2441 338 2488 338 
Q 2538 338 2575 359 
Q 2641 400 2828 588 
L 2828 413 
Q 2478 -56 2159 -56 
Q 2006 -56 1915 50 
Q 1825 156 1822 413 
z
M 1822 616 
L 1822 1706 
Q 1350 1519 1213 1441 
Q 966 1303 859 1153 
Q 753 1003 753 825 
Q 753 600 887 451 
Q 1022 303 1197 303 
Q 1434 303 1822 616 
z
" transform="scale(0.015625)"/>
       <path id="TimesNewRomanPSMT-79" d="M 38 2863 
L 1372 2863 
L 1372 2747 
L 1306 2747 
Q 1166 2747 1095 2686 
Q 1025 2625 1025 2534 
Q 1025 2413 1128 2197 
L 1825 753 
L 2466 2334 
Q 2519 2463 2519 2588 
Q 2519 2644 2497 2672 
Q 2472 2706 2419 2726 
Q 2366 2747 2231 2747 
L 2231 2863 
L 3163 2863 
L 3163 2747 
Q 3047 2734 2984 2696 
Q 2922 2659 2847 2556 
Q 2819 2513 2741 2316 
L 1575 -541 
Q 1406 -956 1132 -1168 
Q 859 -1381 606 -1381 
Q 422 -1381 303 -1275 
Q 184 -1169 184 -1031 
Q 184 -900 270 -820 
Q 356 -741 506 -741 
Q 609 -741 788 -809 
Q 913 -856 944 -856 
Q 1038 -856 1148 -759 
Q 1259 -663 1372 -384 
L 1575 113 
L 547 2272 
Q 500 2369 397 2513 
Q 319 2622 269 2659 
Q 197 2709 38 2747 
L 38 2863 
z
" transform="scale(0.015625)"/>
      </defs>
      <use xlink:href="#TimesNewRomanPSMT-41"/>
      <use xlink:href="#TimesNewRomanPSMT-63" transform="translate(72.216797 0)"/>
      <use xlink:href="#TimesNewRomanPSMT-63" transform="translate(116.601562 0)"/>
      <use xlink:href="#TimesNewRomanPSMT-75" transform="translate(160.986328 0)"/>
      <use xlink:href="#TimesNewRomanPSMT-72" transform="translate(210.986328 0)"/>
      <use xlink:href="#TimesNewRomanPSMT-61" transform="translate(244.287109 0)"/>
      <use xlink:href="#TimesNewRomanPSMT-63" transform="translate(288.671875 0)"/>
      <use xlink:href="#TimesNewRomanPSMT-79" transform="translate(333.056641 0)"/>
     </g>
    </g>
   </g>
   <g id="line2d_31">
    <path d="M 356.74725 178.5875 
L 429.970398 144.717352 
L 449.715566 137.05924 
L 461.608091 133.747626 
L 470.145363 129.149803 
L 476.809848 126.651313 
L 482.277177 125.246824 
L 486.912649 123.886699 
L 490.936289 123.295335 
L 494.490936 121.979559 
L 497.674597 129.519407 
L 500.557442 122.437861 
L 503.191443 121.876078 
L 505.616167 122.822249 
L 509.954725 121.269931 
L 511.912798 122.556141 
L 513.752841 120.54552 
L 515.488278 121.787365 
L 517.130366 123.457963 
L 518.688636 119.983721 
L 520.171232 118.224425 
L 521.585163 122.023908 
L 522.936511 119.569767 
L 524.230581 122.334381 
L 525.472031 123.117924 
L 526.664974 118.59403 
L 527.81306 118.978402 
L 529.987321 121.240365 
L 531.019022 121.816931 
L 532.017002 119.776744 
L 532.983395 119.747178 
L 533.92014 121.003822 
L 534.829 120.589868 
L 535.71159 118.608813 
L 536.569384 118.845356 
L 537.403738 119.333224 
L 538.2159 119.983721 
L 539.007018 120.900326 
L 539.778157 119.954155 
L 540.5303 121.107303 
L 541.264361 120.456806 
L 541.981189 119.007984 
L 542.681574 124.433699 
L 543.366254 120.722915 
L 544.035919 123.738854 
L 544.691211 119.126247 
L 545.332736 118.209642 
L 545.96106 119.569767 
L 546.576715 119.214961 
L 547.180203 119.067116 
L 547.771994 119.599333 
L 548.352534 119.214961 
L 548.922242 119.377573 
L 549.481515 119.80631 
L 550.030729 119.466286 
L 550.570238 118.845356 
L 551.100381 119.65848 
L 551.621477 120.249829 
L 552.133829 120.604651 
L 552.637726 119.599333 
L 553.133442 119.628899 
L 553.62124 119.333224 
L 554.101367 119.451504 
L 554.574062 129.637671 
L 555.03955 120.368109 
L 555.498049 121.314279 
L 555.949766 120.796845 
L 556.394897 119.333224 
L 556.833632 120.116783 
L 557.266153 119.126247 
L 557.692633 118.81579 
L 558.113238 119.303658 
L 558.528129 118.549681 
L 558.937458 119.067116 
L 559.341372 118.919271 
L 559.740013 119.58455 
L 560.522013 119.214961 
L 561.284487 119.732395 
L 561.6587 119.599333 
L 562.028384 119.80631 
L 562.393645 119.421938 
L 562.754588 119.569767 
L 563.111315 119.318441 
L 563.463922 119.983721 
L 563.812505 119.451504 
L 564.157152 119.599333 
L 564.497953 119.998504 
L 564.834993 119.702829 
L 565.168353 119.643697 
L 565.498112 119.318441 
L 565.824349 120.116783 
L 566.466549 119.628899 
L 566.782654 120.131566 
L 567.09552 119.688046 
L 567.405213 119.614116 
L 567.711796 120.028069 
L 568.015332 120.161132 
L 568.31588 119.673263 
L 568.613499 119.65848 
L 568.908245 119.954155 
L 569.200174 120.042852 
L 569.489337 119.850658 
L 569.775789 119.983721 
L 570.059577 120.249829 
L 570.340753 120.028069 
L 570.619363 119.614116 
L 570.895454 120.175915 
L 571.169071 120.028069 
L 571.709058 119.954155 
L 571.975513 120.20548 
L 572.239662 119.80631 
L 572.501546 120.013287 
L 572.761202 119.673263 
L 573.01867 120.249829 
L 573.273985 120.456806 
L 573.527182 119.968938 
L 573.778298 120.146349 
L 575.480555 120.087217 
L 575.71617 119.909806 
L 575.94998 120.057635 
L 576.182013 120.042852 
L 576.412297 120.161132 
L 576.867719 119.569767 
L 577.092908 119.776744 
L 577.538364 119.850658 
L 577.758678 120.013287 
L 577.977414 119.835876 
L 578.194595 120.102 
L 578.410242 119.895023 
L 578.624376 119.924589 
L 579.048192 119.80631 
L 579.257915 120.028069 
L 579.673087 119.909806 
L 579.878576 120.146349 
L 580.082691 120.190698 
L 580.486872 119.865457 
L 580.885773 120.116783 
L 581.083287 119.850658 
L 581.668275 120.175915 
L 582.052133 120.072418 
L 582.242267 120.220263 
L 582.431224 119.835876 
L 582.61902 119.939372 
L 582.805668 119.835876 
L 582.991181 119.954155 
L 583.358861 119.747178 
L 583.541054 119.791527 
L 583.722167 119.954155 
L 583.902211 119.791527 
L 584.081201 120.161132 
L 584.259147 120.220263 
L 584.436062 119.732395 
L 584.611958 119.924589 
L 584.786846 119.717612 
L 584.960739 119.688046 
L 585.133647 119.88024 
L 585.305581 119.628899 
L 585.983798 120.102 
L 586.151025 119.554984 
L 586.31734 119.865457 
L 586.482755 119.791527 
L 587.135595 120.028069 
L 587.296648 119.954155 
L 587.456855 120.353326 
L 587.616226 119.865457 
L 587.77477 120.013287 
L 588.089409 119.761961 
L 588.555372 120.116783 
L 588.862109 119.895023 
L 589.01433 119.835876 
L 589.165796 120.057635 
L 589.466492 119.821093 
L 589.615737 119.895023 
L 589.764256 119.776744 
L 590.059145 119.939372 
L 590.496205 119.835876 
L 590.640513 120.235046 
L 590.927099 119.628899 
L 591.069389 120.013287 
L 591.21102 120.042852 
L 591.492325 119.835876 
L 591.632011 120.028069 
L 591.771062 119.850658 
L 591.909482 119.983721 
L 592.321018 119.821093 
L 592.592325 120.146349 
L 592.72708 119.924589 
L 592.994819 119.968938 
L 593.260232 120.042852 
L 593.392077 120.087217 
L 593.523356 120.013287 
L 593.784233 120.20548 
L 594.299395 119.835876 
L 594.426838 120.028069 
L 594.680141 119.998504 
L 594.806009 120.190698 
L 594.93136 119.924589 
L 595.056198 120.560302 
L 595.180528 150.261347 
L 595.42768 131.323052 
L 595.55051 128.307112 
L 595.672848 122.023908 
L 595.794698 122.984877 
L 595.916063 120.20548 
L 596.036948 124.699824 
L 596.157356 119.954155 
L 596.277291 125.158126 
L 596.515757 119.939372 
L 596.634296 120.353326 
L 596.870001 119.835876 
L 596.987175 119.835876 
L 597.103901 122.511792 
L 597.336022 118.712294 
L 597.451425 119.895023 
L 597.566393 119.924589 
L 597.68093 119.067116 
L 597.795038 121.107303 
L 597.908722 120.54552 
L 598.134828 118.534883 
L 598.247256 117.987883 
L 598.359272 119.067116 
L 598.470878 119.007984 
L 598.582078 119.436721 
L 598.692875 118.37227 
L 598.913269 118.919271 
L 599.022872 118.948836 
L 599.349341 118.59403 
L 599.457393 118.771441 
L 599.565064 118.608813 
L 599.672357 118.948836 
L 599.779274 118.874922 
L 599.885818 118.446185 
L 599.991991 118.845356 
L 600.203237 118.357488 
L 600.413032 119.022767 
L 600.517391 118.81579 
L 600.621395 119.03755 
L 600.725045 118.963619 
L 600.828345 119.052333 
L 601.033903 118.667945 
L 601.136165 118.830573 
L 601.238086 118.579247 
L 601.440913 118.948836 
L 601.541823 118.845356 
L 601.742649 118.934053 
L 601.942163 118.889705 
L 602.041433 118.963619 
L 602.23901 118.948836 
L 602.337321 119.081899 
L 602.532999 118.919271 
L 603.303408 118.948836 
L 603.493011 118.963619 
L 603.587373 119.03755 
L 603.681444 118.697511 
L 603.868721 118.81579 
L 603.961931 118.860139 
L 604.054857 118.727077 
L 604.33195 119.067116 
L 604.423759 118.904488 
L 604.515292 118.993201 
L 604.606552 118.860139 
L 604.788257 118.993201 
L 605.504454 118.978402 
L 605.592809 118.978402 
L 605.680909 118.830573 
L 605.768756 119.007984 
L 605.943694 118.830573 
L 606.030789 119.03755 
L 606.117636 118.801007 
L 606.462576 119.03755 
L 606.633596 119.03755 
L 606.718748 119.022767 
L 606.803663 118.889705 
L 606.888342 119.007984 
L 607.140981 118.727077 
L 607.308254 118.845356 
L 607.391547 118.446185 
L 607.640074 119.540201 
L 607.886594 128.972392 
L 608.049842 121.299496 
L 608.212222 119.554984 
L 608.293089 121.358628 
L 608.534414 118.091363 
L 608.614433 119.761961 
L 608.694244 119.348007 
L 608.773846 118.37227 
L 608.853242 119.111464 
L 609.090197 118.327922 
L 609.168775 118.682728 
L 609.325327 117.943534 
L 609.481081 118.37227 
L 609.867025 118.032231 
L 610.096271 117.987883 
L 610.474564 117.987883 
L 610.624579 118.032231 
L 610.699311 117.9731 
L 610.773861 118.091363 
L 610.848229 117.987883 
L 610.922416 118.106146 
L 611.070252 117.9731 
L 611.217376 118.047014 
L 611.43674 118.017448 
L 611.726797 118.017448 
L 611.798882 117.958317 
L 611.942545 118.135728 
L 612.15678 118.061797 
L 612.227859 117.958317 
L 612.298773 118.032231 
L 612.440108 118.106146 
L 612.580792 118.032231 
L 612.720831 118.047014 
L 612.790611 118.032231 
L 612.860231 118.150511 
L 612.929693 118.061797 
L 613.068145 118.091363 
L 613.343179 118.017448 
L 613.615758 118.150511 
L 614.220307 117.987883 
L 614.682374 118.120945 
L 614.747817 117.795689 
L 614.813119 117.810472 
L 614.943307 118.283557 
L 615.008193 118.032231 
L 615.072942 118.194859 
L 615.330572 117.987883 
L 615.458577 118.135728 
L 615.522379 118.07658 
L 615.586047 118.091363 
L 615.649583 117.884386 
L 615.712988 118.002666 
L 615.77626 118.120945 
L 615.839402 118.061797 
L 616.090673 118.032231 
L 617.136089 117.825255 
L 617.316915 117.899185 
L 617.615933 117.840037 
L 617.793948 117.869603 
L 618.088353 117.899185 
L 618.205325 117.825255 
L 618.263643 117.810472 
L 618.321851 117.9731 
L 618.379947 117.869603 
L 618.495809 117.810472 
L 618.726223 117.85482 
L 618.840781 117.840037 
L 619.068616 117.913968 
L 619.294764 117.825255 
L 619.407213 117.85482 
L 619.575114 117.913968 
L 619.742096 117.825255 
L 620.018387 117.795689 
L 620.237634 117.840037 
L 620.56358 117.869603 
L 620.617568 117.766123 
L 620.671461 117.825255 
L 620.886084 117.85482 
L 621.046068 117.795689 
L 621.310858 117.913968 
L 621.416135 117.795689 
L 621.52105 117.913968 
L 621.573373 117.85482 
L 621.781771 117.840037 
L 621.937142 117.869603 
L 621.988757 117.825255 
L 622.040285 117.899185 
L 622.194349 117.899185 
L 622.449408 117.795689 
L 622.550838 117.987883 
L 622.601427 117.899185 
L 622.702354 117.810472 
L 622.752692 117.913968 
L 622.953222 117.943534 
L 623.052994 118.209642 
L 623.102759 147.570664 
L 623.152442 135.1521 
L 623.30101 122.393512 
L 623.350372 121.033388 
L 623.399654 121.595171 
L 623.448858 121.432559 
L 623.595993 118.756642 
L 623.644881 121.373411 
L 623.742423 121.122085 
L 623.839654 119.067116 
L 623.888154 119.628899 
L 623.936577 119.126247 
L 623.984923 120.235046 
L 624.033193 118.889705 
L 624.081386 119.096682 
L 624.129504 120.42724 
L 624.273404 118.150511 
L 624.368962 119.25931 
L 624.416629 118.756642 
L 624.464221 118.845356 
L 624.51174 118.638379 
L 624.559185 119.333224 
L 624.606556 118.697511 
L 624.74823 118.180077 
L 624.795309 118.180077 
L 624.88925 118.342705 
L 624.936112 118.135728 
L 624.982903 118.283557 
L 625.029622 118.342705 
L 625.076269 118.224425 
L 625.721961 118.313123 
L 625.903964 118.253991 
L 625.949295 118.475751 
L 626.039758 118.047014 
L 626.084888 118.283557 
L 626.443553 118.165294 
L 626.665598 118.239208 
L 626.842078 118.268774 
L 626.929937 118.239208 
L 626.973772 118.446185 
L 627.017545 118.401836 
L 627.192009 118.268774 
L 628.718888 118.342705 
L 628.801516 118.387053 
L 628.842747 118.327922 
L 628.883922 118.845356 
L 628.925042 126.281708 
L 629.007116 122.763117 
L 629.088969 118.81579 
L 629.129814 120.530737 
L 629.333222 118.135728 
L 629.373741 119.58455 
L 629.414207 119.244527 
L 629.494978 117.677425 
L 629.535283 118.387053 
L 629.575536 118.165294 
L 629.615735 118.623596 
L 629.655882 117.825255 
L 629.695975 117.913968 
L 629.736017 117.75134 
L 629.815942 117.662626 
L 629.855826 117.692208 
L 629.895659 117.869603 
L 629.975168 117.721774 
L 630.05447 117.766123 
L 630.212461 117.573929 
L 630.251831 117.736557 
L 630.330419 117.633061 
L 630.369637 117.677425 
L 630.408805 117.618278 
L 630.486991 118.209642 
L 630.526009 118.106146 
L 630.603896 117.780906 
L 630.720355 117.869603 
L 630.913471 117.987883 
L 631.028757 117.780906 
L 631.06709 117.825255 
L 631.181799 117.869603 
L 631.258032 117.85482 
L 631.296078 117.766123 
L 631.372028 117.810472 
L 631.636373 117.899185 
L 631.786406 117.85482 
L 631.935706 117.928751 
L 632.084279 117.899185 
L 632.232133 117.958317 
L 632.52571 117.987883 
L 632.707773 117.869603 
L 632.816492 117.943534 
L 632.852645 117.913968 
L 633.032775 117.899185 
L 633.496198 117.987883 
L 633.531557 118.032231 
L 633.602151 117.9731 
L 633.707737 117.928751 
L 633.742851 117.958317 
L 633.91782 117.913968 
L 634.845707 117.869603 
L 634.980805 117.810472 
L 635.148842 117.795689 
L 635.215798 117.899185 
L 635.282608 117.825255 
L 640.737891 117.899185 
L 640.904889 118.002666 
L 641.043359 117.928751 
L 641.318431 117.884386 
L 641.563894 117.899185 
L 643.357356 117.913968 
L 643.408542 118.239208 
L 643.434104 161.171941 
L 643.510659 132.195308 
L 643.637827 118.845356 
L 643.663197 120.20548 
L 643.688546 120.338543 
L 643.713874 121.846512 
L 643.739181 119.495852 
L 643.789732 120.501155 
L 643.814977 120.486372 
L 643.890585 121.787365 
L 643.865403 120.338543 
L 643.940886 121.373411 
L 643.966006 121.225582 
L 643.991105 120.161132 
L 644.016183 121.417776 
L 644.041241 120.634217 
L 644.066278 122.822249 
L 644.141267 120.264612 
L 644.166222 120.338543 
L 644.191157 120.308977 
L 644.216072 119.451504 
L 644.265841 120.604651 
L 644.290695 120.767279 
L 644.315528 120.32376 
L 644.365135 120.604651 
L 644.414661 120.249829 
L 644.439394 120.929892 
L 644.513474 120.264612 
L 644.661095 120.116783 
L 644.832423 119.983721 
L 644.85682 120.013287 
L 644.954214 120.161132 
L 644.978515 120.072418 
L 645.027057 119.569767 
L 645.051299 119.702829 
L 645.075522 120.397674 
L 645.172222 120.013287 
L 645.3167 119.998504 
L 645.340714 119.717612 
L 645.388684 120.264612 
L 645.627411 119.954155 
L 645.651182 119.998504 
L 645.746079 119.924589 
L 645.769757 119.968938 
L 645.864287 119.909806 
L 645.887874 120.013287 
L 645.911442 120.042852 
L 645.934993 120.530737 
L 645.958525 119.58455 
L 646.005535 120.042852 
L 646.029013 119.791527 
L 646.122745 119.954155 
L 646.169503 119.835876 
L 646.239507 119.88024 
L 646.262805 119.924589 
L 646.332595 119.821093 
L 646.425401 119.776744 
L 646.448559 119.998504 
L 646.541014 119.88024 
L 646.65619 119.614116 
L 646.679173 119.628899 
L 646.839573 119.717612 
L 646.930853 119.628899 
L 646.95363 119.673263 
L 647.067263 119.850658 
L 647.135241 119.791527 
L 647.651434 119.702829 
L 647.828953 119.614116 
L 647.917327 119.673263 
L 647.939381 119.643697 
L 648.071369 119.525418 
L 648.093312 119.569767 
L 648.180926 119.614116 
L 648.159046 119.510635 
L 648.20279 119.569767 
L 648.765831 119.481069 
L 648.872928 119.466286 
L 649.022235 119.821093 
L 649.064761 128.307112 
L 649.128439 120.368109 
L 649.149635 121.861295 
L 649.191983 119.791527 
L 649.234273 120.264612 
L 649.255396 120.235046 
L 649.276505 121.861295 
L 649.360793 121.240365 
L 649.40285 118.919271 
L 649.486791 119.466286 
L 649.528674 120.338543 
L 649.549595 119.067116 
L 649.591393 119.451504 
L 649.716444 119.244527 
L 649.737237 119.569767 
L 649.758015 119.081899 
L 649.820264 119.392356 
L 649.965021 118.919271 
L 650.19112 119.052333 
L 650.313744 119.081899 
L 650.496762 119.214961 
L 650.799376 119.318441 
L 650.899584 119.274093 
L 651.019401 119.25931 
L 651.039325 119.288875 
L 651.17843 119.274093 
L 651.356353 119.274093 
L 651.883985 119.200162 
L 651.903353 119.14103 
L 651.922709 119.318441 
L 651.961384 119.244527 
L 652.038586 119.333224 
L 652.000009 119.14103 
L 652.077114 119.303658 
L 652.192408 119.14103 
L 652.211581 119.155813 
L 652.345458 119.229744 
L 652.440727 119.155813 
L 652.478751 119.200162 
L 652.687043 119.274093 
L 652.800061 119.185379 
L 652.818856 119.214961 
L 653.155215 119.318441 
L 653.192361 119.392356 
L 653.210916 119.303658 
L 653.266516 119.318441 
L 653.285027 119.274093 
L 653.340492 119.407139 
L 653.817017 119.348007 
L 653.925936 119.274093 
L 653.871525 119.377573 
L 653.944052 119.288875 
L 654.05252 119.392356 
L 654.07056 119.348007 
L 654.160604 119.25931 
L 654.10661 119.377573 
L 654.196547 119.318441 
L 654.232448 119.348007 
L 654.268306 119.229744 
L 654.28622 118.81579 
L 654.357769 119.318441 
L 654.37563 119.14103 
L 654.411321 119.096682 
L 654.446971 119.155813 
L 654.55367 119.022767 
L 654.571417 119.03755 
L 654.836391 119.14103 
L 654.853975 119.155813 
L 654.889111 119.052333 
L 654.906664 119.421938 
L 654.994279 119.200162 
L 655.029255 119.214961 
L 655.168758 118.978402 
L 655.290303 119.14103 
L 655.324941 119.096682 
L 655.497546 119.111464 
L 655.634931 119.185379 
L 655.686291 119.155813 
L 655.720484 119.229744 
L 655.737565 119.126247 
L 655.788754 119.244527 
L 655.839856 119.185379 
L 657.334468 119.096682 
L 657.35067 119.067116 
L 657.431555 119.14103 
L 657.576609 119.229744 
L 657.60875 119.185379 
L 657.784923 119.067116 
L 657.832794 119.14103 
L 657.896506 119.081899 
L 658.821133 119.170596 
L 658.959749 119.244527 
L 658.975112 119.155813 
L 659.067128 119.229744 
L 659.158868 119.185379 
L 659.189386 119.229744 
L 659.311157 119.25931 
L 659.477802 119.170596 
L 659.492907 119.200162 
L 659.538176 119.155813 
L 659.568318 119.214961 
L 659.583378 119.688046 
L 659.613476 119.052333 
L 659.628513 127.62705 
L 659.718584 122.290032 
L 659.823332 118.889705 
L 659.853194 119.673263 
L 659.912831 119.111464 
L 659.883027 120.20548 
L 659.957482 119.436721 
L 659.972351 119.968938 
L 660.031756 118.623596 
L 660.046589 118.653162 
L 660.061415 118.786224 
L 660.091045 118.608813 
L 660.164995 118.74186 
L 660.268225 118.59403 
L 660.297656 118.638379 
L 660.327058 118.948836 
L 660.429742 118.81579 
L 660.459017 118.845356 
L 660.634082 118.697511 
L 660.750236 118.756642 
L 660.79368 118.801007 
L 660.86595 118.727077 
L 660.880383 118.756642 
L 660.952449 118.667945 
L 660.966841 118.682728 
L 661.139026 118.623596 
L 661.224756 118.830573 
L 661.253279 118.667945 
L 661.367106 118.74186 
L 661.381304 118.727077 
L 661.409682 118.697511 
L 661.494656 118.727077 
L 661.635756 118.638379 
L 661.73414 118.727077 
L 661.748169 118.712294 
L 661.888105 118.549681 
L 662.027403 118.638379 
L 662.124535 118.638379 
L 662.138386 118.653162 
L 662.248967 118.638379 
L 662.359148 118.579247 
L 662.441525 118.697511 
L 662.482629 118.638379 
L 662.578326 118.608813 
L 662.510002 118.653162 
L 662.605613 118.623596 
L 662.768825 118.653162 
L 662.904171 118.638379 
L 663.052363 118.697511 
L 663.874434 118.756642 
L 663.887514 118.81579 
L 663.965873 118.682728 
L 664.004978 118.623596 
L 664.03102 118.74186 
L 664.044033 119.14103 
L 664.083037 118.549681 
L 664.096028 126.769577 
L 664.173855 118.490534 
L 664.186807 120.471589 
L 664.212694 120.708132 
L 664.303128 118.874922 
L 664.316025 118.682728 
L 664.341803 119.510635 
L 664.354684 119.939372 
L 664.393294 118.253991 
L 664.444698 119.244527 
L 664.547248 118.771441 
L 664.572832 118.786224 
L 664.878176 118.59403 
L 665.739407 118.682728 
L 665.751711 118.712294 
L 665.788596 118.653162 
L 665.849971 118.667945 
L 666.408911 118.59403 
L 666.44501 119.096682 
L 666.517082 118.712294 
L 666.69652 118.81579 
L 666.708445 118.801007 
L 666.863049 118.712294 
L 667.040471 118.756642 
L 667.9239 118.682728 
L 668.003998 118.505317 
L 668.015423 118.667945 
L 668.038261 122.171753 
L 668.049674 125.305956 
L 668.11806 118.401836 
L 668.140821 120.338543 
L 668.174931 119.36279 
L 668.186293 120.767279 
L 668.288358 121.018605 
L 668.299677 118.830573 
L 668.310992 120.294178 
L 668.412642 119.835876 
L 668.468968 118.564464 
L 668.480221 120.161132 
L 668.502714 119.14103 
L 668.513954 120.604651 
L 668.603728 118.37227 
L 668.726738 119.673263 
L 668.782488 118.934053 
L 668.827015 120.811628 
L 668.893684 119.599333 
L 668.971281 118.505317 
L 668.993415 118.638379 
L 669.037636 120.102 
L 669.070759 118.342705 
L 669.103847 119.155813 
L 669.136899 119.58455 
L 669.147908 118.549681 
L 669.224862 120.737713 
L 669.202895 118.401836 
L 669.268749 120.087217 
L 669.323519 119.25931 
L 669.301623 120.338543 
L 669.378191 120.013287 
L 669.389114 120.057635 
L 669.476355 118.534883 
L 669.443669 120.604651 
L 669.498127 120.131566 
L 669.509007 120.397674 
L 669.519883 118.756642 
L 669.563348 119.554984 
L 669.617593 120.456806 
L 669.682559 118.416619 
L 669.790531 120.412457 
L 669.81208 119.821093 
L 669.919595 118.194859 
L 669.855131 119.865457 
L 669.951776 118.978402 
L 669.962496 119.081899 
L 670.048116 118.830573 
L 670.080162 118.771441 
L 670.154805 118.830573 
L 670.282342 118.874922 
L 670.292946 118.860139 
L 670.377646 118.801007 
L 670.430465 118.845356 
L 670.556858 118.74186 
L 670.68273 118.712294 
L 670.735024 118.756642 
L 670.797659 118.727077 
L 671.222258 118.623596 
L 671.386367 118.579247 
L 672.570177 118.667945 
L 672.688033 118.697511 
L 674.338433 118.786224 
L 674.412636 118.845356 
L 674.44967 118.786224 
L 676.851004 118.682728 
L 676.961992 118.653162 
L 676.970513 118.667945 
L 676.979032 118.697511 
L 677.081069 118.653162 
L 679.1566 118.549681 
L 679.172458 118.59403 
L 679.180384 118.5201 
L 679.188307 126.533034 
L 679.291131 118.194859 
L 679.299026 119.348007 
L 679.3227 118.061797 
L 679.401479 118.653162 
L 679.706789 118.74186 
L 679.737931 118.830573 
L 679.815647 118.74186 
L 679.95504 118.682728 
L 679.962765 118.697511 
L 680.039912 118.756642 
L 680.070716 118.697511 
L 680.23193 118.608813 
L 680.354192 118.564464 
L 680.48356 118.579247 
L 682.723094 118.653162 
L 682.758358 118.623596 
L 682.842824 118.756642 
L 682.941075 118.549681 
L 682.948081 118.59403 
L 682.983085 119.022767 
L 683.059955 118.904488 
L 684.143251 118.81579 
L 684.250839 118.756642 
L 684.257551 118.771441 
L 684.29779 118.74186 
L 684.37811 118.771441 
L 684.498194 118.727077 
L 684.504852 118.756642 
L 687.362436 118.653162 
L 687.404842 118.623596 
L 687.422997 118.74186 
L 687.429047 118.74186 
L 687.441142 127.464422 
L 687.54376 119.702829 
L 687.567856 119.909806 
L 687.561834 119.525418 
L 687.622001 119.58455 
L 687.700041 119.392356 
L 687.759937 119.451504 
L 688.452126 119.421938 
L 688.457975 119.333224 
L 688.487203 119.481069 
L 688.557238 119.407139 
L 688.603838 119.392356 
L 688.673605 119.466286 
L 688.766381 119.525418 
L 688.777959 119.348007 
L 688.806882 119.510635 
L 688.887724 119.451504 
L 688.985601 119.36279 
L 689.008586 119.407139 
L 690.847587 119.333224 
L 690.852994 119.274093 
L 690.912417 119.392356 
L 690.960949 119.303658 
L 690.977109 119.288875 
L 690.982494 119.392356 
L 691.047039 119.348007 
L 691.052411 119.407139 
L 691.068523 119.288875 
L 691.15431 119.318441 
L 691.186419 119.274093 
L 691.170369 119.36279 
L 691.261207 119.348007 
L 691.500364 119.392356 
L 691.505658 119.466286 
L 691.553257 119.303658 
L 691.611333 119.392356 
L 692.077205 119.288875 
L 692.186101 119.229744 
L 692.097977 119.318441 
L 692.196452 119.244527 
L 692.29461 119.274093 
L 692.268809 119.214961 
L 692.31008 119.244527 
L 693.05866 119.303658 
L 693.06369 119.36279 
L 693.073748 119.244527 
L 693.164118 119.303658 
L 693.269213 119.244527 
L 693.179154 119.348007 
L 693.279203 119.288875 
L 693.359007 119.333224 
L 693.309154 119.25931 
L 693.398831 119.303658 
L 695.045059 119.214961 
L 695.120384 119.155813 
L 695.073327 119.229744 
L 695.157977 119.185379 
L 695.391891 119.081899 
L 695.410527 119.155813 
L 695.503536 119.096682 
L 695.559206 119.067116 
L 695.614775 119.126247 
L 695.72561 119.052333 
L 695.73022 119.081899 
L 696.269302 119.007984 
L 696.282884 118.963619 
L 696.291935 119.081899 
L 696.37779 119.022767 
L 696.418374 119.067116 
L 696.490391 119.03755 
L 696.530826 119.052333 
L 696.616013 118.993201 
L 699.017383 118.889705 
L 699.137169 118.830573 
L 699.141291 118.845356 
L 699.497807 118.948836 
L 699.501881 118.963619 
L 699.558857 118.919271 
L 699.603549 118.919271 
L 707.604561 119.007984 
L 707.635786 119.03755 
L 707.71371 119.007984 
L 713.86725 119.067116 
L 713.86725 119.067116 
" clip-path="url(#p51f2a22525)" style="fill: none; stroke: #1f77b4; stroke-width: 1.5; stroke-linecap: square"/>
   </g>
   <g id="patch_3">
    <path d="M 356.74725 311.6435 
L 356.74725 45.5315 
" style="fill: none; stroke: #000000; stroke-width: 0.8; stroke-linejoin: miter; stroke-linecap: square"/>
   </g>
   <g id="patch_4">
    <path d="M 713.86725 311.6435 
L 713.86725 45.5315 
" style="fill: none; stroke: #000000; stroke-width: 0.8; stroke-linejoin: miter; stroke-linecap: square"/>
   </g>
   <g id="patch_5">
    <path d="M 356.74725 311.6435 
L 713.86725 311.6435 
" style="fill: none; stroke: #000000; stroke-width: 0.8; stroke-linejoin: miter; stroke-linecap: square"/>
   </g>
   <g id="patch_6">
    <path d="M 356.74725 45.5315 
L 713.86725 45.5315 
" style="fill: none; stroke: #000000; stroke-width: 0.8; stroke-linejoin: miter; stroke-linecap: square"/>
   </g>
   <g id="text_18">
    <!-- Accuracy of the 09_07_25_CINIC10_torch_model_(1024+512.3+1)_elk-horse on the validation set -->
    <g transform="translate(7.2 25.5315) scale(0.264 -0.264)">
     <defs>
      <path id="TimesNewRomanPSMT-20" transform="scale(0.015625)"/>
      <path id="TimesNewRomanPSMT-6f" d="M 1600 2947 
Q 2250 2947 2644 2453 
Q 2978 2031 2978 1484 
Q 2978 1100 2793 706 
Q 2609 313 2286 112 
Q 1963 -88 1566 -88 
Q 919 -88 538 428 
Q 216 863 216 1403 
Q 216 1797 411 2186 
Q 606 2575 925 2761 
Q 1244 2947 1600 2947 
z
M 1503 2744 
Q 1338 2744 1170 2645 
Q 1003 2547 900 2300 
Q 797 2053 797 1666 
Q 797 1041 1045 587 
Q 1294 134 1700 134 
Q 2003 134 2200 384 
Q 2397 634 2397 1244 
Q 2397 2006 2069 2444 
Q 1847 2744 1503 2744 
z
" transform="scale(0.015625)"/>
      <path id="TimesNewRomanPSMT-66" d="M 1319 2638 
L 1319 756 
Q 1319 356 1406 250 
Q 1522 113 1716 113 
L 1975 113 
L 1975 0 
L 266 0 
L 266 113 
L 394 113 
Q 519 113 622 175 
Q 725 238 764 344 
Q 803 450 803 756 
L 803 2638 
L 247 2638 
L 247 2863 
L 803 2863 
L 803 3050 
Q 803 3478 940 3775 
Q 1078 4072 1361 4255 
Q 1644 4438 1997 4438 
Q 2325 4438 2600 4225 
Q 2781 4084 2781 3909 
Q 2781 3816 2700 3733 
Q 2619 3650 2525 3650 
Q 2453 3650 2373 3701 
Q 2294 3753 2178 3923 
Q 2063 4094 1966 4153 
Q 1869 4213 1750 4213 
Q 1606 4213 1506 4136 
Q 1406 4059 1362 3898 
Q 1319 3738 1319 3069 
L 1319 2863 
L 2056 2863 
L 2056 2638 
L 1319 2638 
z
" transform="scale(0.015625)"/>
      <path id="TimesNewRomanPSMT-74" d="M 1031 3803 
L 1031 2863 
L 1700 2863 
L 1700 2644 
L 1031 2644 
L 1031 788 
Q 1031 509 1111 412 
Q 1191 316 1316 316 
Q 1419 316 1516 380 
Q 1613 444 1666 569 
L 1788 569 
Q 1678 263 1478 108 
Q 1278 -47 1066 -47 
Q 922 -47 784 33 
Q 647 113 581 261 
Q 516 409 516 719 
L 516 2644 
L 63 2644 
L 63 2747 
Q 234 2816 414 2980 
Q 594 3144 734 3369 
Q 806 3488 934 3803 
L 1031 3803 
z
" transform="scale(0.015625)"/>
      <path id="TimesNewRomanPSMT-68" d="M 1041 4444 
L 1041 2350 
Q 1388 2731 1591 2839 
Q 1794 2947 1997 2947 
Q 2241 2947 2416 2812 
Q 2591 2678 2675 2391 
Q 2734 2191 2734 1659 
L 2734 647 
Q 2734 375 2778 275 
Q 2809 200 2884 156 
Q 2959 113 3159 113 
L 3159 0 
L 1753 0 
L 1753 113 
L 1819 113 
Q 2019 113 2097 173 
Q 2175 234 2206 353 
Q 2216 403 2216 647 
L 2216 1659 
Q 2216 2128 2167 2275 
Q 2119 2422 2012 2495 
Q 1906 2569 1756 2569 
Q 1603 2569 1437 2487 
Q 1272 2406 1041 2159 
L 1041 647 
Q 1041 353 1073 281 
Q 1106 209 1195 161 
Q 1284 113 1503 113 
L 1503 0 
L 84 0 
L 84 113 
Q 275 113 384 172 
Q 447 203 484 290 
Q 522 378 522 647 
L 522 3238 
Q 522 3728 498 3840 
Q 475 3953 426 3993 
Q 378 4034 297 4034 
Q 231 4034 84 3984 
L 41 4094 
L 897 4444 
L 1041 4444 
z
" transform="scale(0.015625)"/>
      <path id="TimesNewRomanPSMT-65" d="M 681 1784 
Q 678 1147 991 784 
Q 1303 422 1725 422 
Q 2006 422 2214 576 
Q 2422 731 2563 1106 
L 2659 1044 
Q 2594 616 2278 264 
Q 1963 -88 1488 -88 
Q 972 -88 605 314 
Q 238 716 238 1394 
Q 238 2128 614 2539 
Q 991 2950 1559 2950 
Q 2041 2950 2350 2633 
Q 2659 2316 2659 1784 
L 681 1784 
z
M 681 1966 
L 2006 1966 
Q 1991 2241 1941 2353 
Q 1863 2528 1708 2628 
Q 1553 2728 1384 2728 
Q 1125 2728 920 2526 
Q 716 2325 681 1966 
z
" transform="scale(0.015625)"/>
      <path id="TimesNewRomanPSMT-5f" d="M 3256 -1381 
L -53 -1381 
L -53 -1119 
L 3256 -1119 
L 3256 -1381 
z
" transform="scale(0.015625)"/>
      <path id="TimesNewRomanPSMT-43" d="M 3853 4334 
L 3950 2894 
L 3853 2894 
Q 3659 3541 3300 3825 
Q 2941 4109 2438 4109 
Q 2016 4109 1675 3895 
Q 1334 3681 1139 3212 
Q 944 2744 944 2047 
Q 944 1472 1128 1050 
Q 1313 628 1683 403 
Q 2053 178 2528 178 
Q 2941 178 3256 354 
Q 3572 531 3950 1056 
L 4047 994 
Q 3728 428 3303 165 
Q 2878 -97 2294 -97 
Q 1241 -97 663 684 
Q 231 1266 231 2053 
Q 231 2688 515 3219 
Q 800 3750 1298 4042 
Q 1797 4334 2388 4334 
Q 2847 4334 3294 4109 
Q 3425 4041 3481 4041 
Q 3566 4041 3628 4100 
Q 3709 4184 3744 4334 
L 3853 4334 
z
" transform="scale(0.015625)"/>
      <path id="TimesNewRomanPSMT-49" d="M 1975 116 
L 1975 0 
L 159 0 
L 159 116 
L 309 116 
Q 572 116 691 269 
Q 766 369 766 750 
L 766 3488 
Q 766 3809 725 3913 
Q 694 3991 597 4047 
Q 459 4122 309 4122 
L 159 4122 
L 159 4238 
L 1975 4238 
L 1975 4122 
L 1822 4122 
Q 1563 4122 1444 3969 
Q 1366 3869 1366 3488 
L 1366 750 
Q 1366 428 1406 325 
Q 1438 247 1538 191 
Q 1672 116 1822 116 
L 1975 116 
z
" transform="scale(0.015625)"/>
      <path id="TimesNewRomanPSMT-4e" d="M -84 4238 
L 1066 4238 
L 3656 1059 
L 3656 3503 
Q 3656 3894 3569 3991 
Q 3453 4122 3203 4122 
L 3056 4122 
L 3056 4238 
L 4531 4238 
L 4531 4122 
L 4381 4122 
Q 4113 4122 4000 3959 
Q 3931 3859 3931 3503 
L 3931 -69 
L 3819 -69 
L 1025 3344 
L 1025 734 
Q 1025 344 1109 247 
Q 1228 116 1475 116 
L 1625 116 
L 1625 0 
L 150 0 
L 150 116 
L 297 116 
Q 569 116 681 278 
Q 750 378 750 734 
L 750 3681 
Q 566 3897 470 3965 
Q 375 4034 191 4094 
Q 100 4122 -84 4122 
L -84 4238 
z
" transform="scale(0.015625)"/>
      <path id="TimesNewRomanPSMT-6d" d="M 1050 2338 
Q 1363 2650 1419 2697 
Q 1559 2816 1721 2881 
Q 1884 2947 2044 2947 
Q 2313 2947 2506 2790 
Q 2700 2634 2766 2338 
Q 3088 2713 3309 2830 
Q 3531 2947 3766 2947 
Q 3994 2947 4170 2830 
Q 4347 2713 4450 2447 
Q 4519 2266 4519 1878 
L 4519 647 
Q 4519 378 4559 278 
Q 4591 209 4675 161 
Q 4759 113 4950 113 
L 4950 0 
L 3538 0 
L 3538 113 
L 3597 113 
Q 3781 113 3884 184 
Q 3956 234 3988 344 
Q 4000 397 4000 647 
L 4000 1878 
Q 4000 2228 3916 2372 
Q 3794 2572 3525 2572 
Q 3359 2572 3192 2489 
Q 3025 2406 2788 2181 
L 2781 2147 
L 2788 2013 
L 2788 647 
Q 2788 353 2820 281 
Q 2853 209 2943 161 
Q 3034 113 3253 113 
L 3253 0 
L 1806 0 
L 1806 113 
Q 2044 113 2133 169 
Q 2222 225 2256 338 
Q 2272 391 2272 647 
L 2272 1878 
Q 2272 2228 2169 2381 
Q 2031 2581 1784 2581 
Q 1616 2581 1450 2491 
Q 1191 2353 1050 2181 
L 1050 647 
Q 1050 366 1089 281 
Q 1128 197 1204 155 
Q 1281 113 1516 113 
L 1516 0 
L 100 0 
L 100 113 
Q 297 113 375 155 
Q 453 197 493 289 
Q 534 381 534 647 
L 534 1741 
Q 534 2213 506 2350 
Q 484 2453 437 2492 
Q 391 2531 309 2531 
Q 222 2531 100 2484 
L 53 2597 
L 916 2947 
L 1050 2947 
L 1050 2338 
z
" transform="scale(0.015625)"/>
      <path id="TimesNewRomanPSMT-64" d="M 2222 322 
Q 2013 103 1813 7 
Q 1613 -88 1381 -88 
Q 913 -88 563 304 
Q 213 697 213 1313 
Q 213 1928 600 2439 
Q 988 2950 1597 2950 
Q 1975 2950 2222 2709 
L 2222 3238 
Q 2222 3728 2198 3840 
Q 2175 3953 2125 3993 
Q 2075 4034 2000 4034 
Q 1919 4034 1784 3984 
L 1744 4094 
L 2597 4444 
L 2738 4444 
L 2738 1134 
Q 2738 631 2761 520 
Q 2784 409 2836 365 
Q 2888 322 2956 322 
Q 3041 322 3181 375 
L 3216 266 
L 2366 -88 
L 2222 -88 
L 2222 322 
z
M 2222 541 
L 2222 2016 
Q 2203 2228 2109 2403 
Q 2016 2578 1861 2667 
Q 1706 2756 1559 2756 
Q 1284 2756 1069 2509 
Q 784 2184 784 1559 
Q 784 928 1059 592 
Q 1334 256 1672 256 
Q 1956 256 2222 541 
z
" transform="scale(0.015625)"/>
      <path id="TimesNewRomanPSMT-6c" d="M 1184 4444 
L 1184 647 
Q 1184 378 1223 290 
Q 1263 203 1344 158 
Q 1425 113 1647 113 
L 1647 0 
L 244 0 
L 244 113 
Q 441 113 512 153 
Q 584 194 625 287 
Q 666 381 666 647 
L 666 3247 
Q 666 3731 644 3842 
Q 622 3953 573 3993 
Q 525 4034 450 4034 
Q 369 4034 244 3984 
L 191 4094 
L 1044 4444 
L 1184 4444 
z
" transform="scale(0.015625)"/>
      <path id="TimesNewRomanPSMT-28" d="M 1988 -1253 
L 1988 -1369 
Q 1516 -1131 1200 -813 
Q 750 -359 506 256 
Q 263 872 263 1534 
Q 263 2503 741 3301 
Q 1219 4100 1988 4444 
L 1988 4313 
Q 1603 4100 1356 3731 
Q 1109 3363 987 2797 
Q 866 2231 866 1616 
Q 866 947 969 400 
Q 1050 -31 1165 -292 
Q 1281 -553 1476 -793 
Q 1672 -1034 1988 -1253 
z
" transform="scale(0.015625)"/>
      <path id="TimesNewRomanPSMT-2b" d="M 1672 441 
L 1672 2000 
L 116 2000 
L 116 2256 
L 1672 2256 
L 1672 3809 
L 1922 3809 
L 1922 2256 
L 3484 2256 
L 3484 2000 
L 1922 2000 
L 1922 441 
L 1672 441 
z
" transform="scale(0.015625)"/>
      <path id="TimesNewRomanPSMT-29" d="M 144 4313 
L 144 4444 
Q 619 4209 934 3891 
Q 1381 3434 1625 2820 
Q 1869 2206 1869 1541 
Q 1869 572 1392 -226 
Q 916 -1025 144 -1369 
L 144 -1253 
Q 528 -1038 776 -670 
Q 1025 -303 1145 264 
Q 1266 831 1266 1447 
Q 1266 2113 1163 2663 
Q 1084 3094 967 3353 
Q 850 3613 656 3853 
Q 463 4094 144 4313 
z
" transform="scale(0.015625)"/>
      <path id="TimesNewRomanPSMT-6b" d="M 1047 4444 
L 1047 1594 
L 1775 2259 
Q 2006 2472 2044 2528 
Q 2069 2566 2069 2603 
Q 2069 2666 2017 2711 
Q 1966 2756 1847 2763 
L 1847 2863 
L 3091 2863 
L 3091 2763 
Q 2834 2756 2664 2684 
Q 2494 2613 2291 2428 
L 1556 1750 
L 2291 822 
Q 2597 438 2703 334 
Q 2853 188 2966 144 
Q 3044 113 3238 113 
L 3238 0 
L 1847 0 
L 1847 113 
Q 1966 116 2008 148 
Q 2050 181 2050 241 
Q 2050 313 1925 472 
L 1047 1594 
L 1047 644 
Q 1047 366 1086 278 
Q 1125 191 1197 153 
Q 1269 116 1509 113 
L 1509 0 
L 53 0 
L 53 113 
Q 272 113 381 166 
Q 447 200 481 272 
Q 528 375 528 628 
L 528 3234 
Q 528 3731 506 3842 
Q 484 3953 434 3995 
Q 384 4038 303 4038 
Q 238 4038 106 3984 
L 53 4094 
L 903 4444 
L 1047 4444 
z
" transform="scale(0.015625)"/>
      <path id="TimesNewRomanPSMT-2d" d="M 259 1672 
L 1875 1672 
L 1875 1200 
L 259 1200 
L 259 1672 
z
" transform="scale(0.015625)"/>
      <path id="TimesNewRomanPSMT-73" d="M 2050 2947 
L 2050 1972 
L 1947 1972 
Q 1828 2431 1642 2597 
Q 1456 2763 1169 2763 
Q 950 2763 815 2647 
Q 681 2531 681 2391 
Q 681 2216 781 2091 
Q 878 1963 1175 1819 
L 1631 1597 
Q 2266 1288 2266 781 
Q 2266 391 1970 151 
Q 1675 -88 1309 -88 
Q 1047 -88 709 6 
Q 606 38 541 38 
Q 469 38 428 -44 
L 325 -44 
L 325 978 
L 428 978 
Q 516 541 762 319 
Q 1009 97 1316 97 
Q 1531 97 1667 223 
Q 1803 350 1803 528 
Q 1803 744 1651 891 
Q 1500 1038 1047 1263 
Q 594 1488 453 1669 
Q 313 1847 313 2119 
Q 313 2472 555 2709 
Q 797 2947 1181 2947 
Q 1350 2947 1591 2875 
Q 1750 2828 1803 2828 
Q 1853 2828 1881 2850 
Q 1909 2872 1947 2947 
L 2050 2947 
z
" transform="scale(0.015625)"/>
      <path id="TimesNewRomanPSMT-6e" d="M 1034 2341 
Q 1538 2947 1994 2947 
Q 2228 2947 2397 2830 
Q 2566 2713 2666 2444 
Q 2734 2256 2734 1869 
L 2734 647 
Q 2734 375 2778 278 
Q 2813 200 2889 156 
Q 2966 113 3172 113 
L 3172 0 
L 1756 0 
L 1756 113 
L 1816 113 
Q 2016 113 2095 173 
Q 2175 234 2206 353 
Q 2219 400 2219 647 
L 2219 1819 
Q 2219 2209 2117 2386 
Q 2016 2563 1775 2563 
Q 1403 2563 1034 2156 
L 1034 647 
Q 1034 356 1069 288 
Q 1113 197 1189 155 
Q 1266 113 1500 113 
L 1500 0 
L 84 0 
L 84 113 
L 147 113 
Q 366 113 442 223 
Q 519 334 519 647 
L 519 1709 
Q 519 2225 495 2337 
Q 472 2450 423 2490 
Q 375 2531 294 2531 
Q 206 2531 84 2484 
L 38 2597 
L 900 2947 
L 1034 2947 
L 1034 2341 
z
" transform="scale(0.015625)"/>
      <path id="TimesNewRomanPSMT-76" d="M 53 2863 
L 1400 2863 
L 1400 2747 
L 1313 2747 
Q 1191 2747 1127 2687 
Q 1063 2628 1063 2528 
Q 1063 2419 1128 2269 
L 1794 688 
L 2463 2328 
Q 2534 2503 2534 2594 
Q 2534 2638 2509 2666 
Q 2475 2713 2422 2730 
Q 2369 2747 2206 2747 
L 2206 2863 
L 3141 2863 
L 3141 2747 
Q 2978 2734 2916 2681 
Q 2806 2588 2719 2369 
L 1703 -88 
L 1575 -88 
L 553 2328 
Q 484 2497 421 2570 
Q 359 2644 263 2694 
Q 209 2722 53 2747 
L 53 2863 
z
" transform="scale(0.015625)"/>
      <path id="TimesNewRomanPSMT-69" d="M 928 4444 
Q 1059 4444 1151 4351 
Q 1244 4259 1244 4128 
Q 1244 3997 1151 3903 
Q 1059 3809 928 3809 
Q 797 3809 703 3903 
Q 609 3997 609 4128 
Q 609 4259 701 4351 
Q 794 4444 928 4444 
z
M 1188 2947 
L 1188 647 
Q 1188 378 1227 289 
Q 1266 200 1342 156 
Q 1419 113 1622 113 
L 1622 0 
L 231 0 
L 231 113 
Q 441 113 512 153 
Q 584 194 626 287 
Q 669 381 669 647 
L 669 1750 
Q 669 2216 641 2353 
Q 619 2453 572 2492 
Q 525 2531 444 2531 
Q 356 2531 231 2484 
L 188 2597 
L 1050 2947 
L 1188 2947 
z
" transform="scale(0.015625)"/>
     </defs>
     <use xlink:href="#TimesNewRomanPSMT-41"/>
     <use xlink:href="#TimesNewRomanPSMT-63" transform="translate(72.216797 0)"/>
     <use xlink:href="#TimesNewRomanPSMT-63" transform="translate(116.601562 0)"/>
     <use xlink:href="#TimesNewRomanPSMT-75" transform="translate(160.986328 0)"/>
     <use xlink:href="#TimesNewRomanPSMT-72" transform="translate(210.986328 0)"/>
     <use xlink:href="#TimesNewRomanPSMT-61" transform="translate(244.287109 0)"/>
     <use xlink:href="#TimesNewRomanPSMT-63" transform="translate(288.671875 0)"/>
     <use xlink:href="#TimesNewRomanPSMT-79" transform="translate(333.056641 0)"/>
     <use xlink:href="#TimesNewRomanPSMT-20" transform="translate(383.056641 0)"/>
     <use xlink:href="#TimesNewRomanPSMT-6f" transform="translate(408.056641 0)"/>
     <use xlink:href="#TimesNewRomanPSMT-66" transform="translate(458.056641 0)"/>
     <use xlink:href="#TimesNewRomanPSMT-20" transform="translate(491.357422 0)"/>
     <use xlink:href="#TimesNewRomanPSMT-74" transform="translate(516.357422 0)"/>
     <use xlink:href="#TimesNewRomanPSMT-68" transform="translate(544.140625 0)"/>
     <use xlink:href="#TimesNewRomanPSMT-65" transform="translate(594.140625 0)"/>
     <use xlink:href="#TimesNewRomanPSMT-20" transform="translate(638.525391 0)"/>
     <use xlink:href="#TimesNewRomanPSMT-30" transform="translate(663.525391 0)"/>
     <use xlink:href="#TimesNewRomanPSMT-39" transform="translate(713.525391 0)"/>
     <use xlink:href="#TimesNewRomanPSMT-5f" transform="translate(763.525391 0)"/>
     <use xlink:href="#TimesNewRomanPSMT-30" transform="translate(813.525391 0)"/>
     <use xlink:href="#TimesNewRomanPSMT-37" transform="translate(863.525391 0)"/>
     <use xlink:href="#TimesNewRomanPSMT-5f" transform="translate(913.525391 0)"/>
     <use xlink:href="#TimesNewRomanPSMT-32" transform="translate(963.525391 0)"/>
     <use xlink:href="#TimesNewRomanPSMT-35" transform="translate(1013.525391 0)"/>
     <use xlink:href="#TimesNewRomanPSMT-5f" transform="translate(1063.525391 0)"/>
     <use xlink:href="#TimesNewRomanPSMT-43" transform="translate(1113.525391 0)"/>
     <use xlink:href="#TimesNewRomanPSMT-49" transform="translate(1180.224609 0)"/>
     <use xlink:href="#TimesNewRomanPSMT-4e" transform="translate(1213.525391 0)"/>
     <use xlink:href="#TimesNewRomanPSMT-49" transform="translate(1285.742188 0)"/>
     <use xlink:href="#TimesNewRomanPSMT-43" transform="translate(1319.042969 0)"/>
     <use xlink:href="#TimesNewRomanPSMT-31" transform="translate(1385.742188 0)"/>
     <use xlink:href="#TimesNewRomanPSMT-30" transform="translate(1435.742188 0)"/>
     <use xlink:href="#TimesNewRomanPSMT-5f" transform="translate(1485.742188 0)"/>
     <use xlink:href="#TimesNewRomanPSMT-74" transform="translate(1535.742188 0)"/>
     <use xlink:href="#TimesNewRomanPSMT-6f" transform="translate(1563.525391 0)"/>
     <use xlink:href="#TimesNewRomanPSMT-72" transform="translate(1613.525391 0)"/>
     <use xlink:href="#TimesNewRomanPSMT-63" transform="translate(1646.826172 0)"/>
     <use xlink:href="#TimesNewRomanPSMT-68" transform="translate(1691.210938 0)"/>
     <use xlink:href="#TimesNewRomanPSMT-5f" transform="translate(1741.210938 0)"/>
     <use xlink:href="#TimesNewRomanPSMT-6d" transform="translate(1791.210938 0)"/>
     <use xlink:href="#TimesNewRomanPSMT-6f" transform="translate(1868.994141 0)"/>
     <use xlink:href="#TimesNewRomanPSMT-64" transform="translate(1918.994141 0)"/>
     <use xlink:href="#TimesNewRomanPSMT-65" transform="translate(1968.994141 0)"/>
     <use xlink:href="#TimesNewRomanPSMT-6c" transform="translate(2013.378906 0)"/>
     <use xlink:href="#TimesNewRomanPSMT-5f" transform="translate(2041.162109 0)"/>
     <use xlink:href="#TimesNewRomanPSMT-28" transform="translate(2091.162109 0)"/>
     <use xlink:href="#TimesNewRomanPSMT-31" transform="translate(2124.462891 0)"/>
     <use xlink:href="#TimesNewRomanPSMT-30" transform="translate(2174.462891 0)"/>
     <use xlink:href="#TimesNewRomanPSMT-32" transform="translate(2224.462891 0)"/>
     <use xlink:href="#TimesNewRomanPSMT-34" transform="translate(2274.462891 0)"/>
     <use xlink:href="#TimesNewRomanPSMT-2b" transform="translate(2324.462891 0)"/>
     <use xlink:href="#TimesNewRomanPSMT-35" transform="translate(2380.859375 0)"/>
     <use xlink:href="#TimesNewRomanPSMT-31" transform="translate(2430.859375 0)"/>
     <use xlink:href="#TimesNewRomanPSMT-32" transform="translate(2480.859375 0)"/>
     <use xlink:href="#TimesNewRomanPSMT-2e" transform="translate(2530.859375 0)"/>
     <use xlink:href="#TimesNewRomanPSMT-33" transform="translate(2555.859375 0)"/>
     <use xlink:href="#TimesNewRomanPSMT-2b" transform="translate(2605.859375 0)"/>
     <use xlink:href="#TimesNewRomanPSMT-31" transform="translate(2662.255859 0)"/>
     <use xlink:href="#TimesNewRomanPSMT-29" transform="translate(2712.255859 0)"/>
     <use xlink:href="#TimesNewRomanPSMT-5f" transform="translate(2745.556641 0)"/>
     <use xlink:href="#TimesNewRomanPSMT-65" transform="translate(2795.556641 0)"/>
     <use xlink:href="#TimesNewRomanPSMT-6c" transform="translate(2839.941406 0)"/>
     <use xlink:href="#TimesNewRomanPSMT-6b" transform="translate(2867.724609 0)"/>
     <use xlink:href="#TimesNewRomanPSMT-2d" transform="translate(2917.724609 0)"/>
     <use xlink:href="#TimesNewRomanPSMT-68" transform="translate(2951.025391 0)"/>
     <use xlink:href="#TimesNewRomanPSMT-6f" transform="translate(3001.025391 0)"/>
     <use xlink:href="#TimesNewRomanPSMT-72" transform="translate(3051.025391 0)"/>
     <use xlink:href="#TimesNewRomanPSMT-73" transform="translate(3084.326172 0)"/>
     <use xlink:href="#TimesNewRomanPSMT-65" transform="translate(3123.242188 0)"/>
     <use xlink:href="#TimesNewRomanPSMT-20" transform="translate(3167.626953 0)"/>
     <use xlink:href="#TimesNewRomanPSMT-6f" transform="translate(3192.626953 0)"/>
     <use xlink:href="#TimesNewRomanPSMT-6e" transform="translate(3242.626953 0)"/>
     <use xlink:href="#TimesNewRomanPSMT-20" transform="translate(3292.626953 0)"/>
     <use xlink:href="#TimesNewRomanPSMT-74" transform="translate(3317.626953 0)"/>
     <use xlink:href="#TimesNewRomanPSMT-68" transform="translate(3345.410156 0)"/>
     <use xlink:href="#TimesNewRomanPSMT-65" transform="translate(3395.410156 0)"/>
     <use xlink:href="#TimesNewRomanPSMT-20" transform="translate(3439.794922 0)"/>
     <use xlink:href="#TimesNewRomanPSMT-76" transform="translate(3464.794922 0)"/>
     <use xlink:href="#TimesNewRomanPSMT-61" transform="translate(3514.794922 0)"/>
     <use xlink:href="#TimesNewRomanPSMT-6c" transform="translate(3559.179688 0)"/>
     <use xlink:href="#TimesNewRomanPSMT-69" transform="translate(3586.962891 0)"/>
     <use xlink:href="#TimesNewRomanPSMT-64" transform="translate(3614.746094 0)"/>
     <use xlink:href="#TimesNewRomanPSMT-61" transform="translate(3664.746094 0)"/>
     <use xlink:href="#TimesNewRomanPSMT-74" transform="translate(3709.130859 0)"/>
     <use xlink:href="#TimesNewRomanPSMT-69" transform="translate(3736.914062 0)"/>
     <use xlink:href="#TimesNewRomanPSMT-6f" transform="translate(3764.697266 0)"/>
     <use xlink:href="#TimesNewRomanPSMT-6e" transform="translate(3814.697266 0)"/>
     <use xlink:href="#TimesNewRomanPSMT-20" transform="translate(3864.697266 0)"/>
     <use xlink:href="#TimesNewRomanPSMT-73" transform="translate(3889.697266 0)"/>
     <use xlink:href="#TimesNewRomanPSMT-65" transform="translate(3928.613281 0)"/>
     <use xlink:href="#TimesNewRomanPSMT-74" transform="translate(3972.998047 0)"/>
    </g>
   </g>
   <g id="legend_1">
    <g id="patch_7">
     <path d="M 461.296938 94.278687 
L 698.46725 94.278687 
Q 702.86725 94.278687 702.86725 89.878687 
L 702.86725 60.9315 
Q 702.86725 56.5315 698.46725 56.5315 
L 461.296938 56.5315 
Q 456.896938 56.5315 456.896938 60.9315 
L 456.896938 89.878687 
Q 456.896938 94.278687 461.296938 94.278687 
z
" style="fill: #ffffff; opacity: 0.8; stroke: #cccccc; stroke-linejoin: miter"/>
    </g>
    <g id="line2d_32">
     <path d="M 465.696938 73.0315 
L 487.696938 73.0315 
L 509.696938 73.0315 
" style="fill: none; stroke: #1f77b4; stroke-width: 1.5; stroke-linecap: square"/>
    </g>
    <g id="text_19">
     <!-- Best accuracy 0.73 -->
     <g transform="translate(527.296938 80.7315) scale(0.22 -0.22)">
      <defs>
       <path id="TimesNewRomanPSMT-42" d="M 2956 2163 
Q 3397 2069 3616 1863 
Q 3919 1575 3919 1159 
Q 3919 844 3719 555 
Q 3519 266 3170 133 
Q 2822 0 2106 0 
L 106 0 
L 106 116 
L 266 116 
Q 531 116 647 284 
Q 719 394 719 750 
L 719 3488 
Q 719 3881 628 3984 
Q 506 4122 266 4122 
L 106 4122 
L 106 4238 
L 1938 4238 
Q 2450 4238 2759 4163 
Q 3228 4050 3475 3764 
Q 3722 3478 3722 3106 
Q 3722 2788 3528 2536 
Q 3334 2284 2956 2163 
z
M 1319 2331 
Q 1434 2309 1582 2298 
Q 1731 2288 1909 2288 
Q 2366 2288 2595 2386 
Q 2825 2484 2947 2687 
Q 3069 2891 3069 3131 
Q 3069 3503 2766 3765 
Q 2463 4028 1881 4028 
Q 1569 4028 1319 3959 
L 1319 2331 
z
M 1319 306 
Q 1681 222 2034 222 
Q 2600 222 2897 476 
Q 3194 731 3194 1106 
Q 3194 1353 3059 1581 
Q 2925 1809 2622 1940 
Q 2319 2072 1872 2072 
Q 1678 2072 1540 2065 
Q 1403 2059 1319 2044 
L 1319 306 
z
" transform="scale(0.015625)"/>
      </defs>
      <use xlink:href="#TimesNewRomanPSMT-42"/>
      <use xlink:href="#TimesNewRomanPSMT-65" transform="translate(66.699219 0)"/>
      <use xlink:href="#TimesNewRomanPSMT-73" transform="translate(111.083984 0)"/>
      <use xlink:href="#TimesNewRomanPSMT-74" transform="translate(150 0)"/>
      <use xlink:href="#TimesNewRomanPSMT-20" transform="translate(177.783203 0)"/>
      <use xlink:href="#TimesNewRomanPSMT-61" transform="translate(202.783203 0)"/>
      <use xlink:href="#TimesNewRomanPSMT-63" transform="translate(247.167969 0)"/>
      <use xlink:href="#TimesNewRomanPSMT-63" transform="translate(291.552734 0)"/>
      <use xlink:href="#TimesNewRomanPSMT-75" transform="translate(335.9375 0)"/>
      <use xlink:href="#TimesNewRomanPSMT-72" transform="translate(385.9375 0)"/>
      <use xlink:href="#TimesNewRomanPSMT-61" transform="translate(419.238281 0)"/>
      <use xlink:href="#TimesNewRomanPSMT-63" transform="translate(463.623047 0)"/>
      <use xlink:href="#TimesNewRomanPSMT-79" transform="translate(508.007812 0)"/>
      <use xlink:href="#TimesNewRomanPSMT-20" transform="translate(558.007812 0)"/>
      <use xlink:href="#TimesNewRomanPSMT-30" transform="translate(583.007812 0)"/>
      <use xlink:href="#TimesNewRomanPSMT-2e" transform="translate(633.007812 0)"/>
      <use xlink:href="#TimesNewRomanPSMT-37" transform="translate(658.007812 0)"/>
      <use xlink:href="#TimesNewRomanPSMT-33" transform="translate(708.007812 0)"/>
     </g>
    </g>
   </g>
  </g>
 </g>
 <defs>
  <clipPath id="p51f2a22525">
   <rect x="356.74725" y="45.5315" width="357.12" height="266.112"/>
  </clipPath>
 </defs>
</svg>
