<?xml version="1.0" encoding="utf-8" standalone="no"?>
<!DOCTYPE svg PUBLIC "-//W3C//DTD SVG 1.1//EN"
  "http://www.w3.org/Graphics/SVG/1.1/DTD/svg11.dtd">
<svg xmlns:xlink="http://www.w3.org/1999/xlink" width="1138.743pt" height="383.265687pt" viewBox="0 0 1138.743 383.265687" xmlns="http://www.w3.org/2000/svg" version="1.1">
 <metadata>
  <rdf:RDF xmlns:dc="http://purl.org/dc/elements/1.1/" xmlns:cc="http://creativecommons.org/ns#" xmlns:rdf="http://www.w3.org/1999/02/22-rdf-syntax-ns#">
   <cc:Work>
    <dc:type rdf:resource="http://purl.org/dc/dcmitype/StillImage"/>
    <dc:date>2025-07-10T15:34:33.045881</dc:date>
    <dc:format>image/svg+xml</dc:format>
    <dc:creator>
     <cc:Agent>
      <dc:title>Matplotlib v3.10.3, https://matplotlib.org/</dc:title>
     </cc:Agent>
    </dc:creator>
   </cc:Work>
  </rdf:RDF>
 </metadata>
 <defs>
  <style type="text/css">*{stroke-linejoin: round; stroke-linecap: butt}</style>
 </defs>
 <g id="figure_1">
  <g id="patch_1">
   <path d="M 0 383.265687 
L 1138.743 383.265687 
L 1138.743 0 
L 0 0 
z
" style="fill: #ffffff"/>
  </g>
  <g id="axes_1">
   <g id="patch_2">
    <path d="M 390.8115 311.6435 
L 747.9315 311.6435 
L 747.9315 45.5315 
L 390.8115 45.5315 
z
" style="fill: #ffffff"/>
   </g>
   <g id="matplotlib.axis_1">
    <g id="xtick_1">
     <g id="line2d_1">
      <path d="M 390.8115 311.6435 
L 390.8115 45.5315 
" clip-path="url(#pe5675cdb0f)" style="fill: none; stroke: #b0b0b0; stroke-opacity: 0.3; stroke-width: 0.8; stroke-linecap: square"/>
     </g>
     <g id="line2d_2">
      <defs>
       <path id="m5c70396ebe" d="M 0 0 
L 0 3.5 
" style="stroke: #000000; stroke-width: 0.8"/>
      </defs>
      <g>
       <use xlink:href="#m5c70396ebe" x="390.8115" y="311.6435" style="stroke: #000000; stroke-width: 0.8"/>
      </g>
     </g>
     <g id="text_1">
      <!-- 0.0 -->
      <g transform="translate(377.0615 333.91975) scale(0.22 -0.22)">
       <defs>
        <path id="TimesNewRomanPSMT-30" d="M 231 2094 
Q 231 2819 450 3342 
Q 669 3866 1031 4122 
Q 1313 4325 1613 4325 
Q 2100 4325 2488 3828 
Q 2972 3213 2972 2159 
Q 2972 1422 2759 906 
Q 2547 391 2217 158 
Q 1888 -75 1581 -75 
Q 975 -75 572 641 
Q 231 1244 231 2094 
z
M 844 2016 
Q 844 1141 1059 588 
Q 1238 122 1591 122 
Q 1759 122 1940 273 
Q 2122 425 2216 781 
Q 2359 1319 2359 2297 
Q 2359 3022 2209 3506 
Q 2097 3866 1919 4016 
Q 1791 4119 1609 4119 
Q 1397 4119 1231 3928 
Q 1006 3669 925 3112 
Q 844 2556 844 2016 
z
" transform="scale(0.015625)"/>
        <path id="TimesNewRomanPSMT-2e" d="M 800 606 
Q 947 606 1047 504 
Q 1147 403 1147 259 
Q 1147 116 1045 14 
Q 944 -88 800 -88 
Q 656 -88 554 14 
Q 453 116 453 259 
Q 453 406 554 506 
Q 656 606 800 606 
z
" transform="scale(0.015625)"/>
       </defs>
       <use xlink:href="#TimesNewRomanPSMT-30"/>
       <use xlink:href="#TimesNewRomanPSMT-2e" transform="translate(50 0)"/>
       <use xlink:href="#TimesNewRomanPSMT-30" transform="translate(75 0)"/>
      </g>
     </g>
    </g>
    <g id="xtick_2">
     <g id="line2d_3">
      <path d="M 506.326973 311.6435 
L 506.326973 45.5315 
" clip-path="url(#pe5675cdb0f)" style="fill: none; stroke: #b0b0b0; stroke-opacity: 0.3; stroke-width: 0.8; stroke-linecap: square"/>
     </g>
     <g id="line2d_4">
      <g>
       <use xlink:href="#m5c70396ebe" x="506.326973" y="311.6435" style="stroke: #000000; stroke-width: 0.8"/>
      </g>
     </g>
     <g id="text_2">
      <!-- 0.5 -->
      <g transform="translate(492.576973 333.91975) scale(0.22 -0.22)">
       <defs>
        <path id="TimesNewRomanPSMT-35" d="M 2778 4238 
L 2534 3706 
L 1259 3706 
L 981 3138 
Q 1809 3016 2294 2522 
Q 2709 2097 2709 1522 
Q 2709 1188 2573 903 
Q 2438 619 2231 419 
Q 2025 219 1772 97 
Q 1413 -75 1034 -75 
Q 653 -75 479 54 
Q 306 184 306 341 
Q 306 428 378 495 
Q 450 563 559 563 
Q 641 563 702 538 
Q 763 513 909 409 
Q 1144 247 1384 247 
Q 1750 247 2026 523 
Q 2303 800 2303 1197 
Q 2303 1581 2056 1914 
Q 1809 2247 1375 2428 
Q 1034 2569 447 2591 
L 1259 4238 
L 2778 4238 
z
" transform="scale(0.015625)"/>
       </defs>
       <use xlink:href="#TimesNewRomanPSMT-30"/>
       <use xlink:href="#TimesNewRomanPSMT-2e" transform="translate(50 0)"/>
       <use xlink:href="#TimesNewRomanPSMT-35" transform="translate(75 0)"/>
      </g>
     </g>
    </g>
    <g id="xtick_3">
     <g id="line2d_5">
      <path d="M 621.842446 311.6435 
L 621.842446 45.5315 
" clip-path="url(#pe5675cdb0f)" style="fill: none; stroke: #b0b0b0; stroke-opacity: 0.3; stroke-width: 0.8; stroke-linecap: square"/>
     </g>
     <g id="line2d_6">
      <g>
       <use xlink:href="#m5c70396ebe" x="621.842446" y="311.6435" style="stroke: #000000; stroke-width: 0.8"/>
      </g>
     </g>
     <g id="text_3">
      <!-- 1.0 -->
      <g transform="translate(608.092446 333.91975) scale(0.22 -0.22)">
       <defs>
        <path id="TimesNewRomanPSMT-31" d="M 750 3822 
L 1781 4325 
L 1884 4325 
L 1884 747 
Q 1884 391 1914 303 
Q 1944 216 2037 169 
Q 2131 122 2419 116 
L 2419 0 
L 825 0 
L 825 116 
Q 1125 122 1212 167 
Q 1300 213 1334 289 
Q 1369 366 1369 747 
L 1369 3034 
Q 1369 3497 1338 3628 
Q 1316 3728 1258 3775 
Q 1200 3822 1119 3822 
Q 1003 3822 797 3725 
L 750 3822 
z
" transform="scale(0.015625)"/>
       </defs>
       <use xlink:href="#TimesNewRomanPSMT-31"/>
       <use xlink:href="#TimesNewRomanPSMT-2e" transform="translate(50 0)"/>
       <use xlink:href="#TimesNewRomanPSMT-30" transform="translate(75 0)"/>
      </g>
     </g>
    </g>
    <g id="xtick_4">
     <g id="line2d_7">
      <path d="M 737.35792 311.6435 
L 737.35792 45.5315 
" clip-path="url(#pe5675cdb0f)" style="fill: none; stroke: #b0b0b0; stroke-opacity: 0.3; stroke-width: 0.8; stroke-linecap: square"/>
     </g>
     <g id="line2d_8">
      <g>
       <use xlink:href="#m5c70396ebe" x="737.35792" y="311.6435" style="stroke: #000000; stroke-width: 0.8"/>
      </g>
     </g>
     <g id="text_4">
      <!-- 1.5 -->
      <g transform="translate(723.60792 333.91975) scale(0.22 -0.22)">
       <use xlink:href="#TimesNewRomanPSMT-31"/>
       <use xlink:href="#TimesNewRomanPSMT-2e" transform="translate(50 0)"/>
       <use xlink:href="#TimesNewRomanPSMT-35" transform="translate(75 0)"/>
      </g>
     </g>
    </g>
    <g id="text_5">
     <!-- $\kappa  = \frac{ln(n)}{ln(d)}$ -->
     <g transform="translate(537.3615 364.185687) scale(0.22 -0.22)">
      <defs>
       <path id="STIXGeneral-Italic-3ba" d="M 979 1440 
L 998 1446 
Q 1850 2541 2464 2790 
Q 2547 2822 2630 2822 
Q 2797 2822 2886 2736 
Q 2976 2650 2976 2522 
Q 2976 2387 2893 2307 
Q 2810 2227 2682 2227 
Q 2605 2227 2502 2288 
Q 2400 2349 2336 2349 
Q 2170 2349 1990 2205 
Q 1811 2061 1414 1645 
L 2042 544 
Q 2202 262 2310 182 
Q 2419 102 2624 102 
L 2624 0 
Q 2374 -83 2182 -83 
Q 1786 -83 1555 326 
L 960 1350 
L 576 0 
L 90 0 
L 640 1978 
Q 730 2317 730 2406 
Q 730 2560 518 2560 
L 339 2560 
L 339 2650 
Q 678 2694 1306 2822 
L 1325 2803 
L 979 1440 
z
" transform="scale(0.015625)"/>
       <path id="STIXGeneral-Regular-3d" d="M 4077 2048 
L 307 2048 
L 307 2470 
L 4077 2470 
L 4077 2048 
z
M 4077 768 
L 307 768 
L 307 1190 
L 4077 1190 
L 4077 768 
z
" transform="scale(0.015625)"/>
       <path id="STIXGeneral-Italic-6c" d="M 1786 4339 
L 806 595 
Q 755 410 755 320 
Q 755 205 864 205 
Q 1037 205 1293 570 
L 1453 794 
L 1542 730 
Q 1254 275 1046 102 
Q 838 -70 576 -70 
Q 262 -70 262 288 
Q 262 397 288 480 
L 1165 3834 
Q 1184 3898 1184 3955 
Q 1184 4096 870 4096 
L 755 4096 
L 755 4198 
Q 1203 4250 1747 4371 
L 1786 4339 
z
" transform="scale(0.015625)"/>
       <path id="STIXGeneral-Italic-6e" d="M 2944 749 
L 3034 666 
Q 2707 218 2534 80 
Q 2362 -58 2138 -58 
Q 2010 -58 1923 28 
Q 1837 115 1837 288 
Q 1837 390 1939 768 
L 2221 1805 
Q 2310 2150 2310 2310 
Q 2310 2496 2157 2496 
Q 1971 2496 1750 2275 
Q 1530 2054 1210 1587 
Q 998 1274 899 1024 
Q 800 774 570 0 
L 90 0 
L 704 2240 
Q 717 2304 717 2349 
Q 717 2445 630 2480 
Q 544 2515 301 2522 
L 301 2624 
Q 550 2675 857 2729 
Q 1165 2784 1338 2822 
L 1363 2810 
L 934 1414 
Q 1408 2170 1753 2496 
Q 2099 2822 2413 2822 
Q 2611 2822 2720 2716 
Q 2829 2611 2829 2432 
Q 2829 2272 2765 2048 
L 2406 749 
Q 2317 429 2317 358 
Q 2317 243 2419 243 
Q 2541 243 2810 582 
Q 2854 634 2944 749 
z
" transform="scale(0.015625)"/>
       <path id="STIXGeneral-Regular-28" d="M 1946 -1030 
L 1869 -1133 
Q 1126 -710 716 32 
Q 307 774 307 1613 
Q 307 3386 1888 4326 
L 1946 4224 
Q 1293 3667 1075 3126 
Q 858 2586 858 1632 
Q 858 685 1082 96 
Q 1306 -493 1946 -1030 
z
" transform="scale(0.015625)"/>
       <path id="STIXGeneral-Regular-29" d="M 186 4224 
L 262 4326 
Q 992 3891 1408 3148 
Q 1824 2406 1824 1581 
Q 1824 -166 243 -1133 
L 186 -1030 
Q 845 -486 1059 54 
Q 1274 595 1274 1562 
Q 1274 2534 1059 3120 
Q 845 3706 186 4224 
z
" transform="scale(0.015625)"/>
       <path id="STIXGeneral-Italic-64" d="M 3334 4371 
L 3373 4333 
L 3123 3360 
L 2739 1958 
Q 2323 429 2323 384 
Q 2323 256 2438 256 
Q 2522 256 2614 336 
Q 2707 416 2963 710 
L 3040 646 
Q 2547 -83 2099 -83 
Q 1978 -83 1907 -6 
Q 1837 70 1837 205 
Q 1837 397 1920 774 
Q 1645 307 1379 118 
Q 1114 -70 781 -70 
Q 461 -70 278 125 
Q 96 320 96 678 
Q 96 1440 713 2131 
Q 1331 2822 1965 2822 
Q 2163 2822 2256 2732 
Q 2349 2643 2381 2451 
L 2387 2451 
L 2675 3494 
Q 2765 3808 2765 3949 
Q 2765 4051 2694 4076 
Q 2624 4102 2355 4115 
L 2355 4224 
Q 2848 4269 3334 4371 
z
M 2278 2310 
Q 2278 2477 2185 2576 
Q 2093 2675 1978 2675 
Q 1677 2675 1395 2381 
Q 1075 2042 864 1571 
Q 653 1101 653 704 
Q 653 486 752 361 
Q 851 237 1024 237 
Q 1312 237 1606 550 
Q 1901 864 2089 1350 
Q 2278 1837 2278 2310 
z
" transform="scale(0.015625)"/>
      </defs>
      <use xlink:href="#STIXGeneral-Italic-3ba" transform="translate(0 0.003125)"/>
      <use xlink:href="#STIXGeneral-Regular-3d" transform="translate(58.83999 0.003125)"/>
      <use xlink:href="#STIXGeneral-Italic-6c" transform="translate(141.779971 50.192188) scale(0.7)"/>
      <use xlink:href="#STIXGeneral-Italic-6e" transform="translate(161.239963 50.192188) scale(0.7)"/>
      <use xlink:href="#STIXGeneral-Regular-28" transform="translate(196.239952 50.192188) scale(0.7)"/>
      <use xlink:href="#STIXGeneral-Italic-6e" transform="translate(219.549944 50.192188) scale(0.7)"/>
      <use xlink:href="#STIXGeneral-Regular-29" transform="translate(254.549933 50.192188) scale(0.7)"/>
      <use xlink:href="#STIXGeneral-Italic-6c" transform="translate(141.779971 -41.257812) scale(0.7)"/>
      <use xlink:href="#STIXGeneral-Italic-6e" transform="translate(161.239963 -41.257812) scale(0.7)"/>
      <use xlink:href="#STIXGeneral-Regular-28" transform="translate(196.239952 -41.257812) scale(0.7)"/>
      <use xlink:href="#STIXGeneral-Italic-64" transform="translate(219.549944 -41.257812) scale(0.7)"/>
      <use xlink:href="#STIXGeneral-Regular-29" transform="translate(254.549933 -41.257812) scale(0.7)"/>
      <path d="M 141.779971 12.8 
L 141.779971 19.05 
L 277.859924 19.05 
L 277.859924 12.8 
L 141.779971 12.8 
z
"/>
     </g>
    </g>
   </g>
   <g id="matplotlib.axis_2">
    <g id="ytick_1">
     <g id="line2d_9">
      <path d="M 390.8115 311.6435 
L 747.9315 311.6435 
" clip-path="url(#pe5675cdb0f)" style="fill: none; stroke: #b0b0b0; stroke-opacity: 0.3; stroke-width: 0.8; stroke-linecap: square"/>
     </g>
     <g id="line2d_10">
      <defs>
       <path id="m51f458359e" d="M 0 0 
L -3.5 0 
" style="stroke: #000000; stroke-width: 0.8"/>
      </defs>
      <g>
       <use xlink:href="#m51f458359e" x="390.8115" y="311.6435" style="stroke: #000000; stroke-width: 0.8"/>
      </g>
     </g>
     <g id="text_6">
      <!-- 0.0 -->
      <g transform="translate(356.3115 319.281625) scale(0.22 -0.22)">
       <use xlink:href="#TimesNewRomanPSMT-30"/>
       <use xlink:href="#TimesNewRomanPSMT-2e" transform="translate(50 0)"/>
       <use xlink:href="#TimesNewRomanPSMT-30" transform="translate(75 0)"/>
      </g>
     </g>
    </g>
    <g id="ytick_2">
     <g id="line2d_11">
      <path d="M 390.8115 285.0323 
L 747.9315 285.0323 
" clip-path="url(#pe5675cdb0f)" style="fill: none; stroke: #b0b0b0; stroke-opacity: 0.3; stroke-width: 0.8; stroke-linecap: square"/>
     </g>
     <g id="line2d_12">
      <g>
       <use xlink:href="#m51f458359e" x="390.8115" y="285.0323" style="stroke: #000000; stroke-width: 0.8"/>
      </g>
     </g>
     <g id="text_7">
      <!-- 0.1 -->
      <g transform="translate(356.3115 292.670425) scale(0.22 -0.22)">
       <use xlink:href="#TimesNewRomanPSMT-30"/>
       <use xlink:href="#TimesNewRomanPSMT-2e" transform="translate(50 0)"/>
       <use xlink:href="#TimesNewRomanPSMT-31" transform="translate(75 0)"/>
      </g>
     </g>
    </g>
    <g id="ytick_3">
     <g id="line2d_13">
      <path d="M 390.8115 258.4211 
L 747.9315 258.4211 
" clip-path="url(#pe5675cdb0f)" style="fill: none; stroke: #b0b0b0; stroke-opacity: 0.3; stroke-width: 0.8; stroke-linecap: square"/>
     </g>
     <g id="line2d_14">
      <g>
       <use xlink:href="#m51f458359e" x="390.8115" y="258.4211" style="stroke: #000000; stroke-width: 0.8"/>
      </g>
     </g>
     <g id="text_8">
      <!-- 0.2 -->
      <g transform="translate(356.3115 266.059225) scale(0.22 -0.22)">
       <defs>
        <path id="TimesNewRomanPSMT-32" d="M 2934 816 
L 2638 0 
L 138 0 
L 138 116 
Q 1241 1122 1691 1759 
Q 2141 2397 2141 2925 
Q 2141 3328 1894 3587 
Q 1647 3847 1303 3847 
Q 991 3847 742 3664 
Q 494 3481 375 3128 
L 259 3128 
Q 338 3706 661 4015 
Q 984 4325 1469 4325 
Q 1984 4325 2329 3994 
Q 2675 3663 2675 3213 
Q 2675 2891 2525 2569 
Q 2294 2063 1775 1497 
Q 997 647 803 472 
L 1909 472 
Q 2247 472 2383 497 
Q 2519 522 2628 598 
Q 2738 675 2819 816 
L 2934 816 
z
" transform="scale(0.015625)"/>
       </defs>
       <use xlink:href="#TimesNewRomanPSMT-30"/>
       <use xlink:href="#TimesNewRomanPSMT-2e" transform="translate(50 0)"/>
       <use xlink:href="#TimesNewRomanPSMT-32" transform="translate(75 0)"/>
      </g>
     </g>
    </g>
    <g id="ytick_4">
     <g id="line2d_15">
      <path d="M 390.8115 231.8099 
L 747.9315 231.8099 
" clip-path="url(#pe5675cdb0f)" style="fill: none; stroke: #b0b0b0; stroke-opacity: 0.3; stroke-width: 0.8; stroke-linecap: square"/>
     </g>
     <g id="line2d_16">
      <g>
       <use xlink:href="#m51f458359e" x="390.8115" y="231.8099" style="stroke: #000000; stroke-width: 0.8"/>
      </g>
     </g>
     <g id="text_9">
      <!-- 0.3 -->
      <g transform="translate(356.3115 239.448025) scale(0.22 -0.22)">
       <defs>
        <path id="TimesNewRomanPSMT-33" d="M 325 3431 
Q 506 3859 782 4092 
Q 1059 4325 1472 4325 
Q 1981 4325 2253 3994 
Q 2459 3747 2459 3466 
Q 2459 3003 1878 2509 
Q 2269 2356 2469 2072 
Q 2669 1788 2669 1403 
Q 2669 853 2319 450 
Q 1863 -75 997 -75 
Q 569 -75 414 31 
Q 259 138 259 259 
Q 259 350 332 419 
Q 406 488 509 488 
Q 588 488 669 463 
Q 722 447 909 348 
Q 1097 250 1169 231 
Q 1284 197 1416 197 
Q 1734 197 1970 444 
Q 2206 691 2206 1028 
Q 2206 1275 2097 1509 
Q 2016 1684 1919 1775 
Q 1784 1900 1550 2001 
Q 1316 2103 1072 2103 
L 972 2103 
L 972 2197 
Q 1219 2228 1467 2375 
Q 1716 2522 1828 2728 
Q 1941 2934 1941 3181 
Q 1941 3503 1739 3701 
Q 1538 3900 1238 3900 
Q 753 3900 428 3381 
L 325 3431 
z
" transform="scale(0.015625)"/>
       </defs>
       <use xlink:href="#TimesNewRomanPSMT-30"/>
       <use xlink:href="#TimesNewRomanPSMT-2e" transform="translate(50 0)"/>
       <use xlink:href="#TimesNewRomanPSMT-33" transform="translate(75 0)"/>
      </g>
     </g>
    </g>
    <g id="ytick_5">
     <g id="line2d_17">
      <path d="M 390.8115 205.1987 
L 747.9315 205.1987 
" clip-path="url(#pe5675cdb0f)" style="fill: none; stroke: #b0b0b0; stroke-opacity: 0.3; stroke-width: 0.8; stroke-linecap: square"/>
     </g>
     <g id="line2d_18">
      <g>
       <use xlink:href="#m51f458359e" x="390.8115" y="205.1987" style="stroke: #000000; stroke-width: 0.8"/>
      </g>
     </g>
     <g id="text_10">
      <!-- 0.4 -->
      <g transform="translate(356.3115 212.836825) scale(0.22 -0.22)">
       <defs>
        <path id="TimesNewRomanPSMT-34" d="M 2978 1563 
L 2978 1119 
L 2409 1119 
L 2409 0 
L 1894 0 
L 1894 1119 
L 100 1119 
L 100 1519 
L 2066 4325 
L 2409 4325 
L 2409 1563 
L 2978 1563 
z
M 1894 1563 
L 1894 3666 
L 406 1563 
L 1894 1563 
z
" transform="scale(0.015625)"/>
       </defs>
       <use xlink:href="#TimesNewRomanPSMT-30"/>
       <use xlink:href="#TimesNewRomanPSMT-2e" transform="translate(50 0)"/>
       <use xlink:href="#TimesNewRomanPSMT-34" transform="translate(75 0)"/>
      </g>
     </g>
    </g>
    <g id="ytick_6">
     <g id="line2d_19">
      <path d="M 390.8115 178.5875 
L 747.9315 178.5875 
" clip-path="url(#pe5675cdb0f)" style="fill: none; stroke: #b0b0b0; stroke-opacity: 0.3; stroke-width: 0.8; stroke-linecap: square"/>
     </g>
     <g id="line2d_20">
      <g>
       <use xlink:href="#m51f458359e" x="390.8115" y="178.5875" style="stroke: #000000; stroke-width: 0.8"/>
      </g>
     </g>
     <g id="text_11">
      <!-- 0.5 -->
      <g transform="translate(356.3115 186.225625) scale(0.22 -0.22)">
       <use xlink:href="#TimesNewRomanPSMT-30"/>
       <use xlink:href="#TimesNewRomanPSMT-2e" transform="translate(50 0)"/>
       <use xlink:href="#TimesNewRomanPSMT-35" transform="translate(75 0)"/>
      </g>
     </g>
    </g>
    <g id="ytick_7">
     <g id="line2d_21">
      <path d="M 390.8115 151.9763 
L 747.9315 151.9763 
" clip-path="url(#pe5675cdb0f)" style="fill: none; stroke: #b0b0b0; stroke-opacity: 0.3; stroke-width: 0.8; stroke-linecap: square"/>
     </g>
     <g id="line2d_22">
      <g>
       <use xlink:href="#m51f458359e" x="390.8115" y="151.9763" style="stroke: #000000; stroke-width: 0.8"/>
      </g>
     </g>
     <g id="text_12">
      <!-- 0.6 -->
      <g transform="translate(356.3115 159.614425) scale(0.22 -0.22)">
       <defs>
        <path id="TimesNewRomanPSMT-36" d="M 2869 4325 
L 2869 4209 
Q 2456 4169 2195 4045 
Q 1934 3922 1679 3669 
Q 1425 3416 1258 3105 
Q 1091 2794 978 2366 
Q 1428 2675 1881 2675 
Q 2316 2675 2634 2325 
Q 2953 1975 2953 1425 
Q 2953 894 2631 456 
Q 2244 -75 1606 -75 
Q 1172 -75 869 213 
Q 275 772 275 1663 
Q 275 2231 503 2743 
Q 731 3256 1154 3653 
Q 1578 4050 1965 4187 
Q 2353 4325 2688 4325 
L 2869 4325 
z
M 925 2138 
Q 869 1716 869 1456 
Q 869 1156 980 804 
Q 1091 453 1309 247 
Q 1469 100 1697 100 
Q 1969 100 2183 356 
Q 2397 613 2397 1088 
Q 2397 1622 2184 2012 
Q 1972 2403 1581 2403 
Q 1463 2403 1327 2353 
Q 1191 2303 925 2138 
z
" transform="scale(0.015625)"/>
       </defs>
       <use xlink:href="#TimesNewRomanPSMT-30"/>
       <use xlink:href="#TimesNewRomanPSMT-2e" transform="translate(50 0)"/>
       <use xlink:href="#TimesNewRomanPSMT-36" transform="translate(75 0)"/>
      </g>
     </g>
    </g>
    <g id="ytick_8">
     <g id="line2d_23">
      <path d="M 390.8115 125.3651 
L 747.9315 125.3651 
" clip-path="url(#pe5675cdb0f)" style="fill: none; stroke: #b0b0b0; stroke-opacity: 0.3; stroke-width: 0.8; stroke-linecap: square"/>
     </g>
     <g id="line2d_24">
      <g>
       <use xlink:href="#m51f458359e" x="390.8115" y="125.3651" style="stroke: #000000; stroke-width: 0.8"/>
      </g>
     </g>
     <g id="text_13">
      <!-- 0.7 -->
      <g transform="translate(356.3115 133.003225) scale(0.22 -0.22)">
       <defs>
        <path id="TimesNewRomanPSMT-37" d="M 644 4238 
L 2916 4238 
L 2916 4119 
L 1503 -88 
L 1153 -88 
L 2419 3728 
L 1253 3728 
Q 900 3728 750 3644 
Q 488 3500 328 3200 
L 238 3234 
L 644 4238 
z
" transform="scale(0.015625)"/>
       </defs>
       <use xlink:href="#TimesNewRomanPSMT-30"/>
       <use xlink:href="#TimesNewRomanPSMT-2e" transform="translate(50 0)"/>
       <use xlink:href="#TimesNewRomanPSMT-37" transform="translate(75 0)"/>
      </g>
     </g>
    </g>
    <g id="ytick_9">
     <g id="line2d_25">
      <path d="M 390.8115 98.7539 
L 747.9315 98.7539 
" clip-path="url(#pe5675cdb0f)" style="fill: none; stroke: #b0b0b0; stroke-opacity: 0.3; stroke-width: 0.8; stroke-linecap: square"/>
     </g>
     <g id="line2d_26">
      <g>
       <use xlink:href="#m51f458359e" x="390.8115" y="98.7539" style="stroke: #000000; stroke-width: 0.8"/>
      </g>
     </g>
     <g id="text_14">
      <!-- 0.8 -->
      <g transform="translate(356.3115 106.392025) scale(0.22 -0.22)">
       <defs>
        <path id="TimesNewRomanPSMT-38" d="M 1228 2134 
Q 725 2547 579 2797 
Q 434 3047 434 3316 
Q 434 3728 753 4026 
Q 1072 4325 1600 4325 
Q 2113 4325 2425 4047 
Q 2738 3769 2738 3413 
Q 2738 3175 2569 2928 
Q 2400 2681 1866 2347 
Q 2416 1922 2594 1678 
Q 2831 1359 2831 1006 
Q 2831 559 2490 242 
Q 2150 -75 1597 -75 
Q 994 -75 656 303 
Q 388 606 388 966 
Q 388 1247 577 1523 
Q 766 1800 1228 2134 
z
M 1719 2469 
Q 2094 2806 2194 3001 
Q 2294 3197 2294 3444 
Q 2294 3772 2109 3958 
Q 1925 4144 1606 4144 
Q 1288 4144 1088 3959 
Q 888 3775 888 3528 
Q 888 3366 970 3203 
Q 1053 3041 1206 2894 
L 1719 2469 
z
M 1375 2016 
Q 1116 1797 991 1539 
Q 866 1281 866 981 
Q 866 578 1086 336 
Q 1306 94 1647 94 
Q 1984 94 2187 284 
Q 2391 475 2391 747 
Q 2391 972 2272 1150 
Q 2050 1481 1375 2016 
z
" transform="scale(0.015625)"/>
       </defs>
       <use xlink:href="#TimesNewRomanPSMT-30"/>
       <use xlink:href="#TimesNewRomanPSMT-2e" transform="translate(50 0)"/>
       <use xlink:href="#TimesNewRomanPSMT-38" transform="translate(75 0)"/>
      </g>
     </g>
    </g>
    <g id="ytick_10">
     <g id="line2d_27">
      <path d="M 390.8115 72.1427 
L 747.9315 72.1427 
" clip-path="url(#pe5675cdb0f)" style="fill: none; stroke: #b0b0b0; stroke-opacity: 0.3; stroke-width: 0.8; stroke-linecap: square"/>
     </g>
     <g id="line2d_28">
      <g>
       <use xlink:href="#m51f458359e" x="390.8115" y="72.1427" style="stroke: #000000; stroke-width: 0.8"/>
      </g>
     </g>
     <g id="text_15">
      <!-- 0.9 -->
      <g transform="translate(356.3115 79.780825) scale(0.22 -0.22)">
       <defs>
        <path id="TimesNewRomanPSMT-39" d="M 338 -88 
L 338 28 
Q 744 34 1094 217 
Q 1444 400 1770 856 
Q 2097 1313 2225 1859 
Q 1734 1544 1338 1544 
Q 891 1544 572 1889 
Q 253 2234 253 2806 
Q 253 3363 572 3797 
Q 956 4325 1575 4325 
Q 2097 4325 2469 3894 
Q 2925 3359 2925 2575 
Q 2925 1869 2578 1258 
Q 2231 647 1613 244 
Q 1109 -88 516 -88 
L 338 -88 
z
M 2275 2091 
Q 2331 2497 2331 2741 
Q 2331 3044 2228 3395 
Q 2125 3747 1936 3934 
Q 1747 4122 1506 4122 
Q 1228 4122 1018 3872 
Q 809 3622 809 3128 
Q 809 2469 1088 2097 
Q 1291 1828 1588 1828 
Q 1731 1828 1928 1897 
Q 2125 1966 2275 2091 
z
" transform="scale(0.015625)"/>
       </defs>
       <use xlink:href="#TimesNewRomanPSMT-30"/>
       <use xlink:href="#TimesNewRomanPSMT-2e" transform="translate(50 0)"/>
       <use xlink:href="#TimesNewRomanPSMT-39" transform="translate(75 0)"/>
      </g>
     </g>
    </g>
    <g id="ytick_11">
     <g id="line2d_29">
      <path d="M 390.8115 45.5315 
L 747.9315 45.5315 
" clip-path="url(#pe5675cdb0f)" style="fill: none; stroke: #b0b0b0; stroke-opacity: 0.3; stroke-width: 0.8; stroke-linecap: square"/>
     </g>
     <g id="line2d_30">
      <g>
       <use xlink:href="#m51f458359e" x="390.8115" y="45.5315" style="stroke: #000000; stroke-width: 0.8"/>
      </g>
     </g>
     <g id="text_16">
      <!-- 1.0 -->
      <g transform="translate(356.3115 53.169625) scale(0.22 -0.22)">
       <use xlink:href="#TimesNewRomanPSMT-31"/>
       <use xlink:href="#TimesNewRomanPSMT-2e" transform="translate(50 0)"/>
       <use xlink:href="#TimesNewRomanPSMT-30" transform="translate(75 0)"/>
      </g>
     </g>
    </g>
    <g id="text_17">
     <!-- Accuracy -->
     <g transform="translate(347.564313 220.726094) rotate(-90) scale(0.22 -0.22)">
      <defs>
       <path id="TimesNewRomanPSMT-41" d="M 2928 1419 
L 1288 1419 
L 1000 750 
Q 894 503 894 381 
Q 894 284 986 211 
Q 1078 138 1384 116 
L 1384 0 
L 50 0 
L 50 116 
Q 316 163 394 238 
Q 553 388 747 847 
L 2238 4334 
L 2347 4334 
L 3822 809 
Q 4000 384 4145 257 
Q 4291 131 4550 116 
L 4550 0 
L 2878 0 
L 2878 116 
Q 3131 128 3220 200 
Q 3309 272 3309 375 
Q 3309 513 3184 809 
L 2928 1419 
z
M 2841 1650 
L 2122 3363 
L 1384 1650 
L 2841 1650 
z
" transform="scale(0.015625)"/>
       <path id="TimesNewRomanPSMT-63" d="M 2631 1088 
Q 2516 522 2178 217 
Q 1841 -88 1431 -88 
Q 944 -88 581 321 
Q 219 731 219 1428 
Q 219 2103 620 2525 
Q 1022 2947 1584 2947 
Q 2006 2947 2278 2723 
Q 2550 2500 2550 2259 
Q 2550 2141 2473 2067 
Q 2397 1994 2259 1994 
Q 2075 1994 1981 2113 
Q 1928 2178 1911 2362 
Q 1894 2547 1784 2644 
Q 1675 2738 1481 2738 
Q 1169 2738 978 2506 
Q 725 2200 725 1697 
Q 725 1184 976 792 
Q 1228 400 1656 400 
Q 1963 400 2206 609 
Q 2378 753 2541 1131 
L 2631 1088 
z
" transform="scale(0.015625)"/>
       <path id="TimesNewRomanPSMT-75" d="M 2709 2863 
L 2709 1128 
Q 2709 631 2732 520 
Q 2756 409 2807 365 
Q 2859 322 2928 322 
Q 3025 322 3147 375 
L 3191 266 
L 2334 -88 
L 2194 -88 
L 2194 519 
Q 1825 119 1631 15 
Q 1438 -88 1222 -88 
Q 981 -88 804 51 
Q 628 191 559 409 
Q 491 628 491 1028 
L 491 2306 
Q 491 2509 447 2587 
Q 403 2666 317 2708 
Q 231 2750 6 2747 
L 6 2863 
L 1009 2863 
L 1009 947 
Q 1009 547 1148 422 
Q 1288 297 1484 297 
Q 1619 297 1789 381 
Q 1959 466 2194 703 
L 2194 2325 
Q 2194 2569 2105 2655 
Q 2016 2741 1734 2747 
L 1734 2863 
L 2709 2863 
z
" transform="scale(0.015625)"/>
       <path id="TimesNewRomanPSMT-72" d="M 1038 2947 
L 1038 2303 
Q 1397 2947 1775 2947 
Q 1947 2947 2059 2842 
Q 2172 2738 2172 2600 
Q 2172 2478 2090 2393 
Q 2009 2309 1897 2309 
Q 1788 2309 1652 2417 
Q 1516 2525 1450 2525 
Q 1394 2525 1328 2463 
Q 1188 2334 1038 2041 
L 1038 669 
Q 1038 431 1097 309 
Q 1138 225 1241 169 
Q 1344 113 1538 113 
L 1538 0 
L 72 0 
L 72 113 
Q 291 113 397 181 
Q 475 231 506 341 
Q 522 394 522 644 
L 522 1753 
Q 522 2253 501 2348 
Q 481 2444 426 2487 
Q 372 2531 291 2531 
Q 194 2531 72 2484 
L 41 2597 
L 906 2947 
L 1038 2947 
z
" transform="scale(0.015625)"/>
       <path id="TimesNewRomanPSMT-61" d="M 1822 413 
Q 1381 72 1269 19 
Q 1100 -59 909 -59 
Q 613 -59 420 144 
Q 228 347 228 678 
Q 228 888 322 1041 
Q 450 1253 767 1440 
Q 1084 1628 1822 1897 
L 1822 2009 
Q 1822 2438 1686 2597 
Q 1550 2756 1291 2756 
Q 1094 2756 978 2650 
Q 859 2544 859 2406 
L 866 2225 
Q 866 2081 792 2003 
Q 719 1925 600 1925 
Q 484 1925 411 2006 
Q 338 2088 338 2228 
Q 338 2497 613 2722 
Q 888 2947 1384 2947 
Q 1766 2947 2009 2819 
Q 2194 2722 2281 2516 
Q 2338 2381 2338 1966 
L 2338 994 
Q 2338 584 2353 492 
Q 2369 400 2405 369 
Q 2441 338 2488 338 
Q 2538 338 2575 359 
Q 2641 400 2828 588 
L 2828 413 
Q 2478 -56 2159 -56 
Q 2006 -56 1915 50 
Q 1825 156 1822 413 
z
M 1822 616 
L 1822 1706 
Q 1350 1519 1213 1441 
Q 966 1303 859 1153 
Q 753 1003 753 825 
Q 753 600 887 451 
Q 1022 303 1197 303 
Q 1434 303 1822 616 
z
" transform="scale(0.015625)"/>
       <path id="TimesNewRomanPSMT-79" d="M 38 2863 
L 1372 2863 
L 1372 2747 
L 1306 2747 
Q 1166 2747 1095 2686 
Q 1025 2625 1025 2534 
Q 1025 2413 1128 2197 
L 1825 753 
L 2466 2334 
Q 2519 2463 2519 2588 
Q 2519 2644 2497 2672 
Q 2472 2706 2419 2726 
Q 2366 2747 2231 2747 
L 2231 2863 
L 3163 2863 
L 3163 2747 
Q 3047 2734 2984 2696 
Q 2922 2659 2847 2556 
Q 2819 2513 2741 2316 
L 1575 -541 
Q 1406 -956 1132 -1168 
Q 859 -1381 606 -1381 
Q 422 -1381 303 -1275 
Q 184 -1169 184 -1031 
Q 184 -900 270 -820 
Q 356 -741 506 -741 
Q 609 -741 788 -809 
Q 913 -856 944 -856 
Q 1038 -856 1148 -759 
Q 1259 -663 1372 -384 
L 1575 113 
L 547 2272 
Q 500 2369 397 2513 
Q 319 2622 269 2659 
Q 197 2709 38 2747 
L 38 2863 
z
" transform="scale(0.015625)"/>
      </defs>
      <use xlink:href="#TimesNewRomanPSMT-41"/>
      <use xlink:href="#TimesNewRomanPSMT-63" transform="translate(72.216797 0)"/>
      <use xlink:href="#TimesNewRomanPSMT-63" transform="translate(116.601562 0)"/>
      <use xlink:href="#TimesNewRomanPSMT-75" transform="translate(160.986328 0)"/>
      <use xlink:href="#TimesNewRomanPSMT-72" transform="translate(210.986328 0)"/>
      <use xlink:href="#TimesNewRomanPSMT-61" transform="translate(244.287109 0)"/>
      <use xlink:href="#TimesNewRomanPSMT-63" transform="translate(288.671875 0)"/>
      <use xlink:href="#TimesNewRomanPSMT-79" transform="translate(333.056641 0)"/>
     </g>
    </g>
   </g>
   <g id="line2d_31">
    <path d="M 390.8115 202.079278 
L 470.74181 116.731238 
L 492.29468 114.365795 
L 514.594758 109.028778 
L 521.869342 108.023459 
L 532.896993 104.933605 
L 537.288971 103.322155 
L 541.169022 102.035945 
L 544.644124 99.921827 
L 547.790874 100.143587 
L 553.312688 98.251246 
L 555.764586 96.979819 
L 560.185728 95.619694 
L 562.194213 95.353585 
L 564.088516 94.717872 
L 565.880924 94.703089 
L 567.581842 93.712553 
L 569.200158 93.520359 
L 572.218577 92.736817 
L 573.631108 93.180336 
L 574.986203 93.254251 
L 576.288351 91.879343 
L 579.914832 90.622699 
L 581.040978 90.740963 
L 583.185173 90.0609 
L 584.207669 90.548785 
L 586.163112 90.193963 
L 587.09943 89.543466 
L 588.010162 89.602598 
L 588.896671 89.824358 
L 589.76021 89.395621 
L 590.60194 89.247792 
L 591.422935 89.321706 
L 592.224194 88.552931 
L 593.006641 88.685993 
L 593.771141 88.44945 
L 594.518498 88.582512 
L 595.249465 88.833838 
L 595.964744 89.410404 
L 596.664995 88.153776 
L 598.022851 87.754605 
L 598.681582 87.991148 
L 599.327547 87.991148 
L 599.96123 87.739822 
L 601.19356 87.665892 
L 601.79305 87.843303 
L 602.381948 87.266737 
L 602.960621 87.503279 
L 603.529418 86.793635 
L 604.088672 87.089326 
L 604.638696 87.178023 
L 605.179792 86.971046 
L 605.712243 87.044977 
L 606.236322 86.838 
L 606.752288 87.651109 
L 607.260388 86.39448 
L 607.760859 87.148457 
L 608.253926 86.453612 
L 608.739805 86.704938 
L 610.615447 86.557093 
L 611.068317 87.16324 
L 611.515116 86.335333 
L 611.956005 86.631023 
L 612.391138 86.527527 
L 612.820664 86.143139 
L 613.663458 86.276201 
L 614.076996 86.497961 
L 615.287688 85.758767 
L 615.681673 86.010093 
L 616.071055 86.054441 
L 616.455941 85.832682 
L 616.836433 86.069224 
L 617.584629 85.714402 
L 617.952521 85.729201 
L 618.316397 86.09879 
L 619.384781 85.817899 
L 619.733432 85.980527 
L 620.758023 85.492642 
L 621.092672 85.640488 
L 621.423994 85.596139 
L 621.752055 85.832682 
L 622.398646 85.2561 
L 622.717298 85.950961 
L 623.032932 85.33003 
L 623.345605 85.433511 
L 623.655373 85.670053 
L 623.962288 85.389162 
L 624.266402 85.270883 
L 624.567767 85.522224 
L 624.866432 85.285666 
L 625.162443 85.625705 
L 625.45585 85.359596 
L 625.746696 85.47786 
L 626.035025 85.10827 
L 626.320882 85.285666 
L 626.604309 85.270883 
L 626.885345 85.123053 
L 627.164032 85.596139 
L 627.440408 85.167402 
L 627.71451 85.167402 
L 628.256045 85.492642 
L 628.523548 84.694317 
L 628.788922 84.753448 
L 629.052199 85.47786 
L 629.313413 85.522224 
L 629.572596 85.241317 
L 629.829778 85.389162 
L 630.084992 85.063906 
L 630.338266 85.2561 
L 630.58963 84.871728 
L 630.839113 85.211751 
L 631.086742 85.359596 
L 631.332545 85.137836 
L 631.576549 85.078705 
L 631.818779 85.137836 
L 632.059261 84.635185 
L 632.535083 85.152619 
L 632.77047 84.916077 
L 633.004207 85.123053 
L 633.46682 85.019557 
L 633.69574 85.182185 
L 633.9231 85.123053 
L 634.373218 84.797797 
L 634.817338 84.694317 
L 635.037198 85.004774 
L 635.472615 84.723883 
L 636.326749 84.960425 
L 636.745745 84.871728 
L 637.364526 84.723883 
L 637.56826 84.694317 
L 637.972029 84.930859 
L 638.568657 84.945642 
L 638.765183 84.694317 
L 638.960557 85.004774 
L 639.154793 84.59082 
L 639.539901 84.916077 
L 639.730799 84.561255 
L 639.92061 84.753448 
L 640.483642 84.561255 
L 640.669226 84.81258 
L 641.037321 84.147301 
L 641.401396 84.783014 
L 641.581953 84.620386 
L 641.761537 84.886511 
L 641.940159 84.502123 
L 642.117828 84.546472 
L 642.294556 84.768231 
L 642.470351 84.635185 
L 642.645224 84.694317 
L 642.819185 84.48734 
L 642.992242 84.59082 
L 643.335684 84.442991 
L 643.506086 84.250797 
L 643.675622 84.723883 
L 644.012129 84.48734 
L 644.345273 84.649968 
L 644.510604 84.383843 
L 644.838827 84.679534 
L 645.001734 84.19165 
L 645.485731 84.413425 
L 645.645515 84.19165 
L 645.804536 84.383843 
L 645.962801 84.369061 
L 646.120319 84.753448 
L 646.277096 84.664751 
L 646.433139 84.309929 
L 646.588455 84.738666 
L 646.743051 84.295146 
L 646.896932 84.383843 
L 647.050107 84.649968 
L 647.202581 84.413425 
L 647.35436 84.428208 
L 647.655861 84.7091 
L 647.805595 84.649968 
L 647.95466 84.413425 
L 648.10306 84.783014 
L 648.250803 84.236014 
L 648.544338 84.81258 
L 648.690142 84.516906 
L 648.835311 84.723883 
L 648.979851 84.324712 
L 649.123766 85.10827 
L 649.267062 84.546472 
L 649.409745 84.635185 
L 649.55182 84.236014 
L 649.693292 84.442991 
L 649.834166 84.886511 
L 649.974447 84.502123 
L 650.11414 84.472557 
L 650.25325 84.221231 
L 650.391782 84.472557 
L 650.529741 84.132518 
L 650.667131 84.7091 
L 650.940223 84.472557 
L 651.075934 84.546472 
L 651.211096 84.457774 
L 651.345711 84.206448 
L 651.479785 84.457774 
L 651.613322 85.019557 
L 651.746326 84.457774 
L 652.010752 84.531689 
L 652.142182 83.910758 
L 652.533392 84.723883 
L 652.791671 84.694317 
L 652.920064 84.221231 
L 653.047964 84.694317 
L 653.175375 84.531689 
L 653.302301 84.635185 
L 653.428746 84.886511 
L 653.554712 84.694317 
L 653.680204 84.236014 
L 653.929781 84.871728 
L 654.053871 84.398626 
L 654.300675 84.576037 
L 654.423395 84.295146 
L 654.788867 84.369061 
L 654.909806 84.295146 
L 655.030308 84.029037 
L 655.150375 84.428208 
L 655.389221 83.999471 
L 655.508005 84.694317 
L 655.626367 83.96989 
L 655.74431 84.605603 
L 655.978952 84.383843 
L 656.095656 84.162084 
L 656.211953 84.561255 
L 656.327846 84.561255 
L 656.443337 84.117735 
L 656.558429 84.531689 
L 656.673126 84.383843 
L 656.787429 84.664751 
L 657.014866 84.132518 
L 657.353137 84.605603 
L 657.576759 84.19165 
L 657.79889 84.354278 
L 657.909404 84.7091 
L 658.019551 84.280363 
L 658.238761 84.339495 
L 658.347828 84.783014 
L 658.564896 84.206448 
L 658.672902 84.309929 
L 658.78056 84.620386 
L 659.101462 84.014254 
L 659.419303 84.398626 
L 659.629526 84.354278 
L 659.734142 84.04382 
L 659.942395 84.576037 
L 660.046035 84.413425 
L 660.149354 84.058603 
L 660.355037 84.472557 
L 660.559458 84.029037 
L 660.6612 84.102952 
L 660.762632 84.413425 
L 661.065091 84.162084 
L 661.265216 84.472557 
L 661.36483 84.502123 
L 661.464147 83.999471 
L 661.563168 84.48734 
L 661.760334 84.236014 
L 661.95634 84.605603 
L 662.053912 84.088169 
L 662.1512 84.221231 
L 662.248205 83.940324 
L 662.344928 84.014254 
L 662.441371 84.472557 
L 662.537536 83.940324 
L 662.633424 84.576037 
L 662.824377 83.999471 
L 662.919444 84.295146 
L 663.014242 83.999471 
L 663.10877 84.48734 
L 663.203031 83.940324 
L 663.297027 84.132518 
L 663.390758 84.783014 
L 663.484226 84.117735 
L 663.577433 84.250797 
L 663.670379 84.117735 
L 663.763068 84.797797 
L 663.855499 84.147301 
L 663.947675 84.26558 
L 664.039596 84.029037 
L 664.222682 84.398626 
L 664.31385 84.073386 
L 664.404768 84.369061 
L 664.585865 83.940324 
L 664.855678 84.176867 
L 664.945132 83.807278 
L 665.034347 84.19165 
L 665.212064 83.910758 
L 665.300568 84.457774 
L 665.388838 83.74813 
L 665.56468 84.073386 
L 665.739599 83.881192 
L 666.000268 84.398626 
L 666.172922 83.792495 
L 666.258914 84.176867 
L 666.344686 83.895975 
L 666.430237 83.984689 
L 666.600683 84.280363 
L 666.685581 83.96989 
L 666.770263 84.206448 
L 667.023025 83.910758 
L 667.106854 84.309929 
L 667.190474 83.866409 
L 667.273884 84.029037 
L 667.440081 83.74813 
L 667.605453 84.250797 
L 667.687833 83.881192 
L 667.770009 84.014254 
L 667.851984 83.910758 
L 667.933757 83.999471 
L 668.01533 83.792495 
L 668.096704 83.984689 
L 668.177879 84.502123 
L 668.258858 84.04382 
L 668.33964 84.236014 
L 668.500619 83.984689 
L 668.580818 84.280363 
L 668.74064 83.807278 
L 668.820264 84.295146 
L 668.899699 83.807278 
L 668.978945 83.866409 
L 669.058002 83.82206 
L 669.215557 84.19165 
L 669.294057 83.96989 
L 669.372371 84.516906 
L 669.528451 83.777712 
L 669.683803 83.851626 
L 669.761208 84.19165 
L 669.915482 83.999471 
L 669.992351 84.59082 
L 670.069044 83.836843 
L 670.145561 83.866409 
L 670.29807 84.398626 
L 670.374063 84.295146 
L 670.449884 84.029037 
L 670.525532 84.413425 
L 670.676316 84.04382 
L 670.901221 84.236014 
L 670.975853 83.807278 
L 671.050319 83.881192 
L 671.198752 83.940324 
L 671.346528 84.236014 
L 671.420171 83.792495 
L 671.493651 84.502123 
L 671.640128 83.718564 
L 671.858643 84.339495 
L 672.003528 83.96989 
L 672.075735 84.339495 
L 672.147786 83.895975 
L 672.219681 84.132518 
L 672.291422 84.413425 
L 672.363008 84.339495 
L 672.505722 83.82206 
L 672.57685 84.398626 
L 672.789329 83.895975 
L 672.859855 83.807278 
L 672.930233 84.147301 
L 673.000462 83.955107 
L 673.140478 84.088169 
L 673.210266 83.762929 
L 673.279908 84.457774 
L 673.349405 84.117735 
L 673.418757 84.605603 
L 673.487965 83.718564 
L 673.55703 84.472557 
L 673.625953 84.176867 
L 673.694732 83.910758 
L 673.763371 83.955107 
L 673.831868 83.925541 
L 673.968441 84.26558 
L 674.104458 84.014254 
L 674.239921 84.339495 
L 674.374836 83.895975 
L 674.442089 84.19165 
L 674.509207 84.117735 
L 674.57619 83.940324 
L 674.643039 84.295146 
L 674.709754 84.102952 
L 674.776335 84.102952 
L 674.842784 83.851626 
L 675.041339 84.26558 
L 675.107263 84.04382 
L 675.173056 84.206448 
L 675.238719 84.206448 
L 675.304253 83.851626 
L 675.369659 84.073386 
L 675.434936 84.117735 
L 675.500086 83.96989 
L 675.565109 84.48734 
L 675.630006 83.96989 
L 675.694776 83.984689 
L 675.75942 84.236014 
L 675.82394 84.132518 
L 675.888334 84.250797 
L 676.016752 83.792495 
L 676.080776 84.250797 
L 676.144677 83.866409 
L 676.208455 84.383843 
L 676.272112 83.955107 
L 676.335648 84.132518 
L 676.399062 83.910758 
L 676.525531 84.132518 
L 676.588585 83.733347 
L 676.651521 84.649968 
L 676.714338 83.940324 
L 676.777037 84.398626 
L 676.964429 84.147301 
L 677.02666 84.398626 
L 677.088775 84.295146 
L 677.150774 83.925541 
L 677.212658 84.413425 
L 677.274427 83.881192 
L 677.336082 84.236014 
L 677.459051 84.029037 
L 677.520366 84.102952 
L 677.581568 84.04382 
L 677.642658 84.04382 
L 677.703636 84.664751 
L 677.764503 83.895975 
L 677.825259 84.19165 
L 677.885905 84.48734 
L 678.067182 83.925541 
L 678.247478 84.088169 
L 678.307361 84.117735 
L 678.367136 83.895975 
L 678.426805 84.088169 
L 678.486366 84.221231 
L 678.545822 83.910758 
L 678.605171 84.147301 
L 678.782589 83.851626 
L 678.841519 84.48734 
L 678.900344 83.659432 
L 678.959067 83.881192 
L 679.134615 84.413425 
L 679.192926 83.851626 
L 679.251136 84.102952 
L 679.309244 84.324712 
L 679.367251 83.910758 
L 679.425157 84.576037 
L 679.482962 83.866409 
L 679.540668 84.147301 
L 679.598274 84.635185 
L 679.713188 83.96989 
L 679.770496 84.428208 
L 679.827707 84.236014 
L 679.998751 84.04382 
L 680.055571 84.19165 
L 680.112294 83.836843 
L 680.281888 84.753448 
L 680.338228 83.851626 
L 680.394473 83.881192 
L 680.56264 84.664751 
L 680.618508 83.984689 
L 680.674282 84.797797 
L 680.729964 83.881192 
L 680.785552 84.531689 
L 680.841048 84.502123 
L 680.896451 84.102952 
L 680.951763 84.383843 
L 681.006982 84.132518 
L 681.172095 84.723883 
L 681.226952 84.029037 
L 681.281718 84.531689 
L 681.445479 84.19165 
L 681.499887 84.605603 
L 681.554207 84.073386 
L 681.608439 84.176867 
L 681.662582 84.295146 
L 681.716638 84.014254 
L 681.770606 84.48734 
L 681.824487 83.836843 
L 681.878281 84.117735 
L 681.931988 84.236014 
L 681.985609 84.04382 
L 682.039144 84.280363 
L 682.145956 84.250797 
L 682.358559 84.014254 
L 682.464354 84.768231 
L 682.517126 84.324712 
L 682.569815 84.117735 
L 682.62242 84.59082 
L 682.727382 84.546472 
L 682.77974 83.940324 
L 682.832015 84.649968 
L 682.884208 83.851626 
L 682.93632 84.413425 
L 682.988351 84.117735 
L 683.143957 84.457774 
L 683.195664 84.206448 
L 683.247292 84.59082 
L 683.298839 84.014254 
L 683.350307 84.516906 
L 683.504237 84.088169 
L 683.555389 84.354278 
L 683.606462 84.324712 
L 683.708376 83.940324 
L 683.759216 84.457774 
L 683.809978 84.176867 
L 683.860664 84.04382 
L 684.012259 84.59082 
L 684.062638 84.04382 
L 684.163168 84.132518 
L 684.21332 84.073386 
L 684.263396 84.147301 
L 684.313397 84.147301 
L 684.462952 84.59082 
L 684.512655 84.383843 
L 684.562284 84.679534 
L 684.611839 84.280363 
L 684.66132 84.472557 
L 684.710728 84.398626 
L 684.760063 84.117735 
L 684.809325 84.236014 
L 684.858515 84.561255 
L 684.907632 84.354278 
L 685.152136 84.398626 
L 685.200823 84.176867 
L 685.249438 84.442991 
L 685.297983 84.250797 
L 685.346457 84.59082 
L 685.39486 84.19165 
L 685.443194 84.516906 
L 685.491457 84.236014 
L 685.539651 84.398626 
L 685.587775 84.383843 
L 685.63583 84.206448 
L 685.683815 84.354278 
L 685.731732 84.605603 
L 685.779579 84.073386 
L 685.827358 84.19165 
L 685.875069 84.457774 
L 685.922712 84.073386 
L 685.970286 84.295146 
L 686.017793 84.250797 
L 686.112604 84.546472 
L 686.159908 84.413425 
L 686.254316 84.442991 
L 686.348458 84.280363 
L 686.395429 84.694317 
L 686.442334 84.236014 
L 686.489173 84.26558 
L 686.582654 84.502123 
L 686.629297 84.457774 
L 686.675874 84.162084 
L 686.722386 84.649968 
L 686.768834 84.324712 
L 686.953979 84.516906 
L 687.000105 84.339495 
L 687.046168 84.605603 
L 687.092167 84.502123 
L 687.183974 84.383843 
L 687.366834 84.635185 
L 687.412393 84.295146 
L 687.457889 84.472557 
L 687.548696 84.649968 
L 687.684445 84.457774 
L 687.729572 84.516906 
L 687.774638 84.280363 
L 687.819643 84.546472 
L 687.864587 84.531689 
L 687.954294 84.679534 
L 687.999058 84.649968 
L 688.043761 84.383843 
L 688.088404 84.81258 
L 688.132988 84.531689 
L 688.177512 84.531689 
L 688.221976 84.649968 
L 688.266382 84.428208 
L 688.310728 84.901294 
L 688.355016 84.413425 
L 688.443414 84.620386 
L 688.531579 84.502123 
L 688.575575 84.206448 
L 688.619512 84.383843 
L 688.707213 84.664751 
L 688.750977 84.649968 
L 688.794683 84.694317 
L 688.838333 84.309929 
L 688.881925 84.605603 
L 688.925461 84.649968 
L 688.968939 84.472557 
L 689.012361 84.561255 
L 689.055727 84.664751 
L 689.142289 84.354278 
L 689.185486 84.546472 
L 689.228627 84.664751 
L 689.271712 84.59082 
L 689.314742 84.428208 
L 689.357716 84.502123 
L 689.400634 84.797797 
L 689.443498 84.48734 
L 689.486307 84.768231 
L 689.52906 84.250797 
L 689.614403 84.531689 
L 689.74201 84.768231 
L 689.82681 84.398626 
L 689.869129 84.886511 
L 689.911395 84.48734 
L 689.953607 84.354278 
L 690.037871 84.7091 
L 690.079924 84.664751 
L 690.121923 84.309929 
L 690.16387 84.457774 
L 690.247605 84.783014 
L 690.33113 84.19165 
L 690.372814 84.649968 
L 690.456027 84.546472 
L 690.497555 84.413425 
L 690.539032 84.472557 
L 690.580457 84.960425 
L 690.621831 84.073386 
L 690.704425 84.679534 
L 690.786814 84.546472 
L 690.827933 84.576037 
L 690.910018 84.753448 
L 690.950985 84.369061 
L 691.032768 84.561255 
L 691.073585 84.635185 
L 691.114351 84.48734 
L 691.195735 84.117735 
L 691.236353 84.664751 
L 691.31744 84.605603 
L 691.357909 84.324712 
L 691.39833 84.546472 
L 691.479024 84.472557 
L 691.519298 84.26558 
L 691.559523 84.546472 
L 691.639828 84.472557 
L 691.679909 84.679534 
L 691.719941 84.236014 
L 691.799861 84.413425 
L 691.839749 84.694317 
L 691.87959 84.398626 
L 691.919383 84.635185 
L 692.117639 84.295146 
L 692.157149 84.694317 
L 692.236029 84.502123 
L 692.275399 84.576037 
L 692.314723 84.442991 
L 692.354 84.428208 
L 692.393232 84.620386 
L 692.432416 84.576037 
L 692.471555 84.324712 
L 692.510648 84.738666 
L 692.549696 84.428208 
L 692.627653 84.7091 
L 692.666564 84.59082 
L 692.783023 84.369061 
L 692.821753 84.398626 
L 692.937673 84.694317 
L 693.05319 84.324712 
L 693.129981 84.531689 
L 693.168309 84.428208 
L 693.283032 84.605603 
L 693.321185 84.842146 
L 693.359295 84.280363 
L 693.435384 84.309929 
L 693.473363 84.827363 
L 693.549193 84.516906 
L 693.62485 84.738666 
L 693.700335 84.635185 
L 693.738014 84.457774 
L 693.775651 84.856945 
L 693.813244 84.442991 
L 693.850796 84.472557 
L 693.888305 84.354278 
L 693.963197 84.916077 
L 694.00058 84.280363 
L 694.075221 84.369061 
L 694.112479 84.81258 
L 694.186869 84.531689 
L 694.261094 84.635185 
L 694.335154 84.280363 
L 694.445937 84.738666 
L 694.556352 84.309929 
L 694.593076 84.48734 
L 694.62976 84.649968 
L 694.776092 84.295146 
L 694.849018 84.679534 
L 694.885421 84.48734 
L 694.921784 84.516906 
L 694.958108 84.901294 
L 694.994392 84.502123 
L 695.030637 84.723883 
L 695.103009 84.842146 
L 695.211272 84.369061 
L 695.247282 84.738666 
L 695.283253 84.309929 
L 695.319185 84.664751 
L 695.355079 84.635185 
L 695.42675 84.768231 
L 695.498268 84.428208 
L 695.569632 84.354278 
L 695.640844 84.945642 
L 695.711904 84.81258 
L 695.747377 84.280363 
L 695.818211 84.398626 
L 695.92418 84.723883 
L 696.029813 84.369061 
L 695.994639 85.004774 
L 696.06495 84.428208 
L 696.100049 84.768231 
L 696.170138 84.679534 
L 696.309875 84.295146 
L 696.379525 84.516906 
L 696.414295 84.442991 
L 696.449029 84.369061 
L 696.483727 84.546472 
L 696.518388 84.649968 
L 696.553014 84.605603 
L 696.622158 84.723883 
L 696.656676 84.413425 
L 696.725605 84.635185 
L 696.794392 84.605603 
L 696.863038 84.635185 
L 696.897307 84.295146 
L 696.999905 84.531689 
L 697.034035 84.516906 
L 697.102189 84.442991 
L 697.136214 84.827363 
L 697.170204 84.354278 
L 697.204159 84.516906 
L 697.339636 84.383843 
L 697.407169 84.635185 
L 697.440884 84.753448 
L 697.474565 84.472557 
L 697.541825 84.856945 
L 697.60895 84.694317 
L 697.709384 84.413425 
L 697.742795 84.516906 
L 697.876105 84.442991 
L 697.975738 84.369061 
L 698.008883 84.694317 
L 698.041996 84.383843 
L 698.141135 84.398626 
L 698.239981 84.516906 
L 698.338534 84.428208 
L 698.502145 84.738666 
L 698.567365 84.236014 
L 698.599927 84.842146 
L 698.664957 84.7091 
L 698.762263 84.369061 
L 698.794636 84.620386 
L 698.826977 84.561255 
L 698.859286 84.236014 
L 698.891565 84.901294 
L 698.923812 84.546472 
L 698.988213 84.428208 
L 699.020367 84.576037 
L 699.116643 84.428208 
L 699.148673 84.916077 
L 699.212642 84.649968 
L 699.24458 84.398626 
L 699.276487 84.827363 
L 699.340211 84.457774 
L 699.372028 84.694317 
L 699.435569 84.457774 
L 699.49899 84.413425 
L 699.530655 84.457774 
L 699.56229 84.531689 
L 699.593895 84.48734 
L 699.62547 84.176867 
L 699.657015 84.827363 
L 699.688531 84.59082 
L 699.751473 84.442991 
L 699.782899 84.620386 
L 699.877 84.576037 
L 699.939587 84.546472 
L 699.970837 84.81258 
L 700.002057 84.48734 
L 700.033248 84.753448 
L 700.126646 84.309929 
L 700.157721 84.546472 
L 700.219784 84.605603 
L 700.250772 84.442991 
L 700.281731 84.842146 
L 700.312662 84.531689 
L 700.405281 84.723883 
L 700.528375 84.413425 
L 700.712168 84.768231 
L 700.803686 84.324712 
L 700.92532 84.930859 
L 701.016255 84.250797 
L 701.046511 84.413425 
L 701.167264 85.152619 
L 701.197384 84.472557 
L 701.287581 84.679534 
L 701.347577 84.546472 
L 701.377534 84.576037 
L 701.437369 84.428208 
L 701.467245 84.827363 
L 701.497096 84.442991 
L 701.586486 84.694317 
L 701.73494 84.413425 
L 701.794136 84.398626 
L 701.882735 84.827363 
L 701.912215 84.576037 
L 701.971098 84.694317 
L 702.000501 84.442991 
L 702.059228 84.856945 
L 702.117852 84.413425 
L 702.205596 84.442991 
L 702.234792 84.886511 
L 702.293109 84.413425 
L 702.322229 84.797797 
L 702.409436 84.354278 
L 702.438455 84.442991 
L 702.467448 84.842146 
L 702.525359 84.398626 
L 702.554277 84.649968 
L 702.64088 84.413425 
L 702.727259 84.842146 
L 702.698491 84.383843 
L 702.756003 84.605603 
L 702.842084 84.309929 
L 702.813415 84.7091 
L 702.870728 84.531689 
L 703.04208 84.738666 
L 703.070554 84.694317 
L 703.184204 84.354278 
L 703.240884 84.457774 
L 703.325724 84.59082 
L 703.297468 84.369061 
L 703.410348 84.516906 
L 703.438508 84.250797 
L 703.494758 84.59082 
L 703.522847 84.295146 
L 703.606973 85.196968 
L 703.634968 84.48734 
L 703.66294 84.442991 
L 703.746713 85.152619 
L 703.718812 84.398626 
L 703.774591 84.605603 
L 703.830277 84.369061 
L 703.858085 84.738666 
L 703.88587 84.383843 
L 703.913632 85.019557 
L 703.969086 84.442991 
L 703.996778 84.649968 
L 704.079718 84.635185 
L 704.134897 84.457774 
L 704.162452 84.856945 
L 704.244981 84.531689 
L 704.299887 84.576037 
L 704.327306 84.502123 
L 704.464065 84.960425 
L 704.545851 84.413425 
L 704.600264 84.442991 
L 704.627438 85.049123 
L 704.708825 84.664751 
L 704.73591 84.768231 
L 704.762973 84.324712 
L 704.84403 84.679534 
L 704.9518 84.59082 
L 704.978689 84.989991 
L 705.005555 84.561255 
L 705.059224 84.59082 
L 705.086026 84.871728 
L 705.112806 84.369061 
L 705.139565 84.753448 
L 705.166302 84.457774 
L 705.193018 84.783014 
L 705.246385 84.620386 
L 705.299668 84.413425 
L 705.326277 84.827363 
L 705.405977 84.738666 
L 705.432502 84.428208 
L 705.485488 84.768231 
L 705.511949 84.635185 
L 705.564809 84.783014 
L 705.591207 84.339495 
L 705.643942 85.019557 
L 705.670277 84.546472 
L 705.722887 84.531689 
L 705.749161 84.561255 
L 705.827857 84.827363 
L 705.880219 84.768231 
L 705.984696 84.457774 
L 705.932498 84.901294 
L 706.010764 84.472557 
L 706.1408 84.797797 
L 706.244464 84.561255 
L 706.27033 84.901294 
L 706.322002 84.886511 
L 706.347807 84.221231 
L 706.425105 84.561255 
L 706.450831 84.516906 
L 706.52789 84.871728 
L 706.502224 84.457774 
L 706.579165 84.694317 
L 706.604772 84.738666 
L 706.681477 84.339495 
L 706.655928 84.842146 
L 706.707006 84.442991 
L 706.732515 84.768231 
L 706.834359 84.7091 
L 706.885164 84.753448 
L 706.910537 84.413425 
L 707.011839 84.886511 
L 707.037116 84.768231 
L 707.062374 84.516906 
L 707.087613 84.871728 
L 707.138034 84.842146 
L 707.213523 84.472557 
L 707.313909 84.502123 
L 707.338959 85.004774 
L 707.413994 84.48734 
L 707.488861 84.989991 
L 707.463924 84.442991 
L 707.538679 84.81258 
L 707.662899 84.442991 
L 707.712458 84.428208 
L 707.761943 84.842146 
L 707.786658 84.48734 
L 707.836033 84.620386 
L 707.860693 85.226534 
L 707.885335 84.324712 
L 707.934565 84.546472 
L 707.959152 84.7091 
L 707.983721 84.502123 
L 708.057321 84.620386 
L 708.130758 84.7091 
L 708.155201 84.354278 
L 708.179627 84.753448 
L 708.228424 84.546472 
L 708.301485 84.723883 
L 708.277149 84.442991 
L 708.325804 84.48734 
L 708.350104 84.516906 
L 708.374387 84.398626 
L 708.398652 84.856945 
L 708.471342 84.398626 
L 708.568016 84.59082 
L 708.592141 84.398626 
L 708.66441 84.48734 
L 708.712503 84.930859 
L 708.784513 84.797797 
L 708.808481 84.472557 
L 708.904184 84.620386 
L 708.999612 84.827363 
L 709.094768 84.989991 
L 709.142244 84.339495 
L 709.165957 84.886511 
L 709.26064 84.649968 
L 709.284269 84.472557 
L 709.331476 84.531689 
L 709.355055 84.871728 
L 709.42569 84.472557 
L 709.472698 84.502123 
L 709.566515 84.871728 
L 709.589928 84.516906 
L 709.660068 84.48734 
L 709.683416 84.886511 
L 709.799908 84.383843 
L 709.892809 84.856945 
L 709.915994 84.398626 
L 710.008573 84.635185 
L 710.031678 84.398626 
L 710.077839 84.827363 
L 710.123936 84.516906 
L 710.261847 84.797797 
L 710.307691 84.916077 
L 710.422026 84.442991 
L 710.558711 84.960425 
L 710.604149 84.324712 
L 710.672189 84.649968 
L 710.740091 84.753448 
L 710.807855 84.797797 
L 710.852954 84.339495 
L 710.94297 84.945642 
L 710.987887 84.81258 
L 711.07754 84.472557 
L 711.099916 84.856945 
L 711.189268 84.546472 
L 711.300623 84.960425 
L 711.411608 84.457774 
L 711.544302 85.093488 
L 711.654479 84.502123 
L 711.808118 84.960425 
L 711.873747 84.516906 
L 711.939247 84.576037 
L 711.961052 84.901294 
L 712.048128 84.856945 
L 712.113287 84.472557 
L 712.156655 84.649968 
L 712.178318 84.901294 
L 712.243223 84.48734 
L 712.26483 84.797797 
L 712.308001 84.916077 
L 712.372654 84.48734 
L 712.394177 84.989991 
L 712.480131 84.797797 
L 712.523025 84.886511 
L 712.608648 84.620386 
L 712.672721 84.960425 
L 712.715368 84.81258 
L 712.779236 84.871728 
L 712.800498 84.576037 
L 712.864204 84.930859 
L 712.906606 84.901294 
L 712.927788 84.694317 
L 713.012378 84.856945 
L 713.054593 85.019557 
L 713.138862 84.7091 
L 713.201925 84.620386 
L 713.243901 84.930859 
L 713.285824 84.753448 
L 713.348609 84.827363 
L 713.369511 85.049123 
L 713.3904 84.428208 
L 713.432139 84.975208 
L 713.49465 84.428208 
L 713.536259 84.827363 
L 713.598575 85.004774 
L 713.577816 84.753448 
L 713.619321 84.768231 
L 713.640054 84.753448 
L 713.681482 84.664751 
L 713.743527 85.093488 
L 713.805457 84.753448 
L 713.826075 85.123053 
L 713.867273 84.783014 
L 713.887852 84.605603 
L 713.908419 85.049123 
L 713.970044 84.753448 
L 713.99056 84.960425 
L 714.052033 84.7091 
L 714.072499 84.783014 
L 714.092952 84.797797 
L 714.113393 85.123053 
L 714.17464 84.768231 
L 714.195031 84.901294 
L 714.296798 84.723883 
L 714.27647 85.063906 
L 714.317114 84.827363 
L 714.398255 84.649968 
L 714.377989 84.930859 
L 714.41851 84.738666 
L 714.479199 84.901294 
L 714.559947 84.842146 
L 714.700787 84.797797 
L 714.720859 84.546472 
L 714.801024 84.901294 
L 714.821035 84.679534 
L 714.920912 84.901294 
L 714.940851 84.7091 
L 714.960779 84.649968 
L 714.980694 84.753448 
L 715.000598 85.049123 
L 715.060238 84.649968 
L 715.099938 84.871728 
L 715.119771 85.078705 
L 715.139592 84.723883 
L 715.198984 84.945642 
L 715.25827 84.649968 
L 715.297736 84.81258 
L 715.396196 84.960425 
L 715.337155 84.7091 
L 715.435499 84.945642 
L 715.533553 85.019557 
L 715.55313 84.694317 
L 715.572695 85.004774 
L 715.670347 84.797797 
L 715.806582 84.901294 
L 715.825998 84.856945 
L 715.942262 84.694317 
L 716.019546 84.856945 
L 716.038839 84.842146 
L 716.058121 84.605603 
L 716.077392 85.03434 
L 716.135137 84.871728 
L 716.326903 84.694317 
L 716.346019 84.738666 
L 716.422374 84.842146 
L 716.441435 84.723883 
L 716.498554 84.561255 
L 716.517572 84.768231 
L 716.536579 84.768231 
L 716.57456 84.694317 
L 716.631452 84.827363 
L 716.650394 84.605603 
L 716.688246 84.916077 
L 716.744944 84.694317 
L 716.763822 85.063906 
L 716.839226 84.960425 
L 716.895668 84.620386 
L 716.952014 84.649968 
L 717.026995 84.901294 
L 717.045714 84.635185 
L 717.101807 84.679534 
L 717.213712 84.916077 
L 717.306679 84.768231 
L 717.399388 85.10827 
L 717.417899 84.871728 
L 717.528749 84.561255 
L 717.602445 84.827363 
L 717.639232 84.723883 
L 717.65761 84.649968 
L 717.694336 84.901294 
L 717.712684 84.694317 
L 717.767667 84.901294 
L 717.785975 84.531689 
L 717.840837 84.886511 
L 717.895609 84.649968 
L 717.950292 84.768231 
L 718.004884 84.856945 
L 717.986697 84.664751 
L 718.059388 84.753448 
L 718.131921 84.856945 
L 718.150029 84.59082 
L 718.222366 85.063906 
L 718.240425 84.7091 
L 718.258475 84.679534 
L 718.276515 84.930859 
L 718.294545 84.649968 
L 718.366569 84.7091 
L 718.384551 84.738666 
L 718.402522 84.989991 
L 718.492237 84.871728 
L 718.581711 84.664751 
L 718.54595 85.03434 
L 718.599577 84.842146 
L 718.617433 84.81258 
L 718.653117 84.856945 
L 718.670945 85.019557 
L 718.688763 84.605603 
L 718.724371 84.797797 
L 718.759941 84.576037 
L 718.777711 84.827363 
L 718.830967 84.753448 
L 718.8487 84.768231 
L 718.866423 84.738666 
L 718.884137 84.546472 
L 718.901842 84.783014 
L 718.954899 84.649968 
L 718.972566 84.856945 
L 719.025511 84.620386 
L 719.078373 84.797797 
L 719.148724 84.664751 
L 719.166289 84.901294 
L 719.183844 84.738666 
L 719.236455 85.03434 
L 719.218927 84.664751 
L 719.288983 84.7091 
L 719.358892 84.605603 
L 719.341428 84.827363 
L 719.376346 84.753448 
L 719.428654 84.930859 
L 719.446072 84.81258 
L 719.463481 85.004774 
L 719.498271 84.723883 
L 719.567742 84.930859 
L 719.585088 84.576037 
L 719.68897 84.7091 
L 719.74079 84.797797 
L 719.79253 84.620386 
L 719.826979 84.59082 
L 719.930111 84.871728 
L 719.981558 84.48734 
L 719.99869 84.886511 
L 720.050031 84.694317 
L 720.16952 84.797797 
L 720.237608 85.049123 
L 720.2716 84.635185 
L 720.305557 85.137836 
L 720.390299 84.856945 
L 720.508577 84.620386 
L 720.575977 84.827363 
L 720.609626 84.945642 
L 720.626437 84.723883 
L 720.660035 84.768231 
L 720.693599 84.635185 
L 720.710368 84.989991 
L 720.810808 84.856945 
L 720.827518 84.59082 
L 720.877599 84.901294 
L 720.910945 84.649968 
L 720.960901 85.03434 
L 721.027393 84.856945 
L 721.077175 84.975208 
L 721.15998 84.649968 
L 721.176517 84.871728 
L 721.24258 84.635185 
L 721.275563 84.842146 
L 721.292042 84.916077 
L 721.341431 84.635185 
L 721.374316 84.783014 
L 721.439989 84.620386 
L 721.423583 84.901294 
L 721.456387 84.842146 
L 721.472777 85.063906 
L 721.489159 84.546472 
L 721.538257 84.620386 
L 721.554606 84.546472 
L 721.603608 84.81258 
L 721.619926 84.827363 
L 721.636235 84.605603 
L 721.701395 84.856945 
L 721.717665 84.827363 
L 721.766427 84.635185 
L 721.84754 84.694317 
L 721.976911 84.989991 
L 722.0897 84.59082 
L 722.105781 84.901294 
L 722.202108 84.856945 
L 722.298158 84.664751 
L 722.314139 84.783014 
L 722.346079 85.049123 
L 722.362037 84.694317 
L 722.425794 84.827363 
L 722.441715 84.827363 
L 722.457627 84.649968 
L 722.48943 84.901294 
L 722.537077 84.856945 
L 722.552944 84.989991 
L 722.568804 84.679534 
L 722.616338 84.901294 
L 722.632167 84.679534 
L 722.695411 84.960425 
L 722.726987 84.768231 
L 722.805798 84.930859 
L 722.83727 84.768231 
L 722.900126 85.10827 
L 722.931509 84.738666 
L 722.962863 84.871728 
L 723.009839 84.561255 
L 723.134784 85.078705 
L 723.197082 84.768231 
L 723.243729 84.916077 
L 723.29031 84.886511 
L 723.321329 85.004774 
L 723.336827 84.7091 
L 723.383279 85.167402 
L 723.429666 84.989991 
L 723.460555 84.81258 
L 723.55305 85.285666 
L 723.599202 84.7091 
L 723.660638 85.004774 
L 723.813735 84.783014 
L 723.691314 85.063906 
L 723.829007 84.886511 
L 723.935709 85.182185 
L 724.026897 85.47786 
L 724.042071 84.797797 
L 724.148094 85.196968 
L 724.223619 84.768231 
L 724.238704 85.33003 
L 724.268852 84.989991 
L 724.298974 84.886511 
L 724.359135 85.152619 
L 724.449173 84.886511 
L 724.389174 85.182185 
L 724.464156 84.930859 
L 724.583776 85.2561 
L 724.643426 84.81258 
L 724.658322 85.285666 
L 724.673211 84.856945 
L 724.688093 85.33003 
L 724.777249 85.10827 
L 724.925313 84.842146 
L 724.969604 85.078705 
L 725.058011 84.989991 
L 725.087428 85.004774 
L 725.146184 84.827363 
L 725.160856 85.2561 
L 725.234124 84.783014 
L 725.248758 85.167402 
L 725.30723 84.930859 
L 725.3656 85.049123 
L 725.423868 85.004774 
L 725.467502 85.241317 
L 725.51108 84.901294 
L 725.583582 84.916077 
L 725.598063 85.004774 
L 725.684821 84.901294 
L 725.699258 84.827363 
L 725.742534 84.886511 
L 725.771353 85.211751 
L 725.800147 84.827363 
L 725.843292 84.901294 
L 725.886381 84.975208 
L 725.943746 85.123053 
L 725.915076 84.960425 
L 725.986705 85.03434 
L 726.001013 84.797797 
L 726.029609 85.078705 
L 726.086729 84.871728 
L 726.157991 85.241317 
L 726.143751 84.620386 
L 726.186453 84.945642 
L 726.200676 84.783014 
L 726.243305 85.019557 
L 726.30006 84.901294 
L 726.385012 84.753448 
L 726.328401 85.10827 
L 726.413281 84.886511 
L 726.497945 85.211751 
L 726.469747 84.768231 
L 726.526118 85.063906 
L 726.554268 84.930859 
L 726.582394 85.123053 
L 726.624538 85.123053 
L 726.638575 85.196968 
L 726.66663 84.901294 
L 726.722669 85.063906 
L 726.764637 85.137836 
L 726.778614 85.004774 
L 726.806552 85.019557 
L 726.820512 84.871728 
L 726.862356 85.10827 
L 726.904149 85.049123 
L 726.931981 85.019557 
L 727.015339 85.226534 
L 727.070796 84.989991 
L 727.112327 85.270883 
L 727.12616 85.389162 
L 727.139987 84.975208 
L 727.195236 85.182185 
L 727.26417 85.2561 
L 727.332961 84.945642 
L 727.429031 85.2561 
L 727.442733 84.945642 
L 727.470119 85.33003 
L 727.538487 84.797797 
L 727.552144 85.270883 
L 727.674804 84.783014 
L 727.742753 85.448294 
L 727.783457 84.842146 
L 727.864715 85.226534 
L 727.851186 84.827363 
L 727.891757 85.211751 
L 727.959266 84.81258 
L 727.999706 85.152619 
L 728.026639 85.078705 
L 728.040098 84.783014 
L 728.08044 85.315247 
L 728.134154 85.093488 
L 728.147568 85.10827 
L 728.160978 84.989991 
L 728.201174 84.871728 
L 728.214562 85.241317 
L 728.227945 84.901294 
L 728.241322 85.33003 
L 728.334813 85.049123 
L 728.388118 84.916077 
L 728.428042 85.093488 
L 728.441339 85.019557 
L 728.507745 84.945642 
L 728.534271 85.211751 
L 728.626945 84.930859 
L 728.640163 85.152619 
L 728.653376 85.300464 
L 728.666583 84.723883 
L 728.719361 84.945642 
L 728.732543 84.901294 
L 728.772056 85.152619 
L 728.785217 85.093488 
L 728.798372 85.403945 
L 728.850942 85.03434 
L 728.877196 85.093488 
L 728.890315 84.886511 
L 728.90343 85.167402 
L 728.982006 84.960425 
L 729.086487 85.270883 
L 729.021225 84.930859 
L 729.099524 85.211751 
L 729.151622 84.989991 
L 729.190641 85.33003 
L 729.203638 85.004774 
L 729.268544 85.2561 
L 729.307427 84.975208 
L 729.320378 85.137836 
L 729.372132 85.344813 
L 729.359201 84.975208 
L 729.436712 85.241317 
L 729.488285 84.945642 
L 729.539779 85.004774 
L 729.55264 85.315247 
L 729.565496 84.960425 
L 729.642529 85.226534 
L 729.706587 84.930859 
L 729.680979 85.270883 
L 729.744963 85.270883 
L 729.757745 85.285666 
L 729.783295 85.152619 
L 729.808825 85.004774 
L 729.847083 85.33003 
L 729.872564 85.241317 
L 729.885298 85.270883 
L 729.898026 85.123053 
L 729.91075 84.930859 
L 729.936182 85.315247 
L 729.986989 85.019557 
L 730.075716 85.448294 
L 730.063055 84.871728 
L 730.101023 85.152619 
L 730.138948 84.975208 
L 730.189447 85.315247 
L 730.265053 84.916077 
L 730.227271 85.448294 
L 730.302791 84.945642 
L 730.37814 85.507441 
L 730.428279 85.285666 
L 730.503345 84.783014 
L 730.51584 85.403945 
L 730.52833 84.886511 
L 730.565772 85.463077 
L 730.640529 85.359596 
L 730.677845 84.649968 
L 730.665411 85.463077 
L 730.752352 84.930859 
L 730.764754 85.344813 
L 730.814315 84.916077 
L 730.863802 85.196968 
L 730.888518 84.871728 
L 730.913215 85.359596 
L 730.962556 85.182185 
L 731.073306 85.537007 
L 730.987199 84.930859 
L 731.085588 85.285666 
L 731.15919 84.81258 
L 731.195931 85.300464 
L 731.208168 85.019557 
L 731.220402 85.418728 
L 731.293707 84.975208 
L 731.318106 85.182185 
L 731.330299 84.930859 
L 731.403364 85.2561 
L 731.427683 85.152619 
L 731.476268 85.211751 
L 731.488404 84.930859 
L 731.500534 85.300464 
L 731.573227 84.989991 
L 731.621601 85.492642 
L 731.681969 85.285666 
L 731.69403 84.916077 
L 731.730186 85.403945 
L 731.80238 84.975208 
L 731.910378 85.433511 
L 731.970226 84.797797 
L 732.018028 85.226534 
L 732.101516 84.945642 
L 732.053834 85.33003 
L 732.125331 85.211751 
L 732.196675 85.374379 
L 732.184795 84.975208 
L 732.220422 85.182185 
L 732.279717 85.019557 
L 732.291563 85.300464 
L 732.303405 85.33003 
L 732.315243 84.960425 
L 732.409795 85.285666 
L 732.433391 85.182185 
L 732.445183 85.359596 
L 732.456971 84.975208 
L 732.539368 85.403945 
L 732.551122 85.078705 
L 732.574619 85.004774 
L 732.668439 85.344813 
L 732.761995 84.783014 
L 732.750315 85.389162 
L 732.785343 85.078705 
L 732.90184 85.522224 
L 732.913467 84.738666 
L 733.006339 84.945642 
L 733.064254 85.418728 
L 733.110512 85.196968 
L 733.179781 85.2561 
L 733.214361 84.975208 
L 733.22588 85.463077 
L 733.32937 85.315247 
L 733.375263 85.374379 
L 733.455423 85.03434 
L 733.558204 84.960425 
L 733.581001 85.389162 
L 733.6493 84.975208 
L 733.660669 85.47786 
L 733.683397 85.10827 
L 733.76282 85.47786 
L 733.717458 85.093488 
L 733.796801 85.33003 
L 733.80812 85.078705 
L 733.819436 85.389162 
L 733.909821 85.182185 
L 733.932379 85.374379 
L 733.943653 85.566573 
L 733.999962 85.063906 
L 734.033702 85.418728 
L 734.044941 85.019557 
L 734.145923 85.182185 
L 734.224254 84.694317 
L 734.213075 85.832682 
L 734.268931 84.753448 
L 734.280092 85.344813 
L 734.380365 85.33003 
L 734.391487 84.945642 
L 734.480337 85.359596 
L 734.491426 85.03434 
L 734.535748 85.241317 
L 734.557886 84.901294 
L 734.58001 85.093488 
L 734.591067 84.753448 
L 734.635256 85.300464 
L 734.679386 85.270883 
L 734.69041 85.241317 
L 734.70143 84.886511 
L 734.756474 85.300464 
L 734.800445 85.019557 
L 734.866292 85.359596 
L 734.833385 84.871728 
L 734.910118 85.123053 
L 734.975749 85.03434 
L 734.932009 85.241317 
L 735.008516 85.078705 
L 735.052156 84.886511 
L 735.106625 85.448294 
L 735.226144 84.842146 
L 735.28033 85.241317 
L 735.334428 85.019557 
L 735.345237 85.004774 
L 735.366844 84.886511 
L 735.442361 85.403945 
L 735.485436 84.797797 
L 735.549945 84.975208 
L 735.560685 85.226534 
L 735.61433 84.842146 
L 735.657184 85.019557 
L 735.764078 85.270883 
L 735.710674 84.916077 
L 735.774749 85.211751 
L 735.82805 85.359596 
L 735.881267 85.049123 
L 735.934399 85.389162 
L 735.945015 84.916077 
L 735.998046 85.285666 
L 736.093289 84.975208 
L 736.072147 85.33003 
L 736.103854 85.019557 
L 736.167179 85.196968 
L 736.18826 84.842146 
L 736.209328 85.182185 
L 736.293467 84.81258 
L 736.240905 85.196968 
L 736.314469 85.10827 
L 736.41928 85.182185 
L 736.366916 85.03434 
L 736.429742 85.152619 
L 736.440202 85.152619 
L 736.492451 85.004774 
L 736.461112 85.315247 
L 736.544618 85.226534 
L 736.555042 85.2561 
L 736.565463 84.989991 
L 736.607112 85.167402 
L 736.648709 84.871728 
L 736.638314 85.2561 
L 736.721379 85.049123 
L 736.783542 84.901294 
L 736.793891 85.152619 
L 736.804237 84.989991 
L 736.845589 85.196968 
L 736.917832 85.10827 
L 736.928139 85.123053 
L 736.938444 84.842146 
L 737.000204 85.211751 
L 737.041313 84.975208 
L 737.133625 85.152619 
L 737.061849 84.930859 
L 737.143866 85.019557 
L 737.184799 85.078705 
L 737.225682 84.916077 
L 737.235895 85.300464 
L 737.32767 85.093488 
L 737.337852 84.945642 
L 737.358206 85.285666 
L 737.429347 84.975208 
L 737.500337 85.182185 
L 737.449646 84.945642 
L 737.530715 85.004774 
L 737.540835 84.871728 
L 737.550952 85.2561 
L 737.621683 85.167402 
L 737.631776 85.241317 
L 737.641865 84.945642 
L 737.722469 85.093488 
L 737.752645 85.182185 
L 737.782794 85.03434 
L 737.863058 84.886511 
L 737.853036 85.2561 
L 737.883094 85.004774 
L 737.913126 85.182185 
L 737.933131 84.916077 
L 738.013035 85.137836 
L 738.072837 84.871728 
L 738.092747 85.315247 
L 738.132532 85.049123 
L 738.211959 85.226534 
L 738.16234 84.886511 
L 738.241696 85.078705 
L 738.271406 85.123053 
L 738.291198 85.403945 
L 738.330747 84.945642 
L 738.380117 85.241317 
L 738.458957 85.123053 
L 738.429414 85.344813 
L 738.488474 85.152619 
L 738.576869 85.019557 
L 738.606282 85.47786 
L 738.625876 85.063906 
L 738.723675 85.226534 
L 738.733439 85.004774 
L 738.772467 85.55179 
L 738.821187 85.123053 
L 738.850386 85.004774 
L 738.937827 85.418728 
L 739.063728 85.004774 
L 739.102371 85.403945 
L 739.189155 85.211751 
L 739.198783 85.315247 
L 739.23727 85.137836 
L 739.294918 85.152619 
L 739.362047 85.315247 
L 739.419479 85.270883 
L 739.448158 85.10827 
L 739.457713 85.403945 
L 739.534048 85.241317 
L 739.600698 85.33003 
L 739.562628 85.093488 
L 739.619716 85.196968 
L 739.638724 85.063906 
L 739.686195 85.285666 
L 739.695681 85.241317 
L 739.780936 85.344813 
L 739.724124 85.196968 
L 739.818757 85.315247 
L 739.856535 85.063906 
L 739.922544 85.182185 
L 739.931963 85.374379 
L 740.007221 85.03434 
L 740.026009 85.10827 
L 740.138515 85.418728 
L 740.110424 85.004774 
L 740.157229 85.344813 
L 740.175932 85.463077 
L 740.213308 85.078705 
L 740.241312 85.359596 
L 740.278615 85.123053 
L 740.306564 85.403945 
L 740.353095 85.196968 
L 740.445961 85.167402 
L 740.464504 85.359596 
L 740.473771 85.182185 
L 740.492298 85.374379 
L 740.566302 85.285666 
L 740.575541 85.463077 
L 740.658578 85.10827 
L 740.677002 85.448294 
L 740.732214 85.241317 
L 740.796513 85.315247 
L 740.814862 85.492642 
L 740.860688 85.152619 
L 740.906452 85.359596 
L 740.961286 85.448294 
L 740.92474 85.344813 
L 740.979544 85.33003 
L 740.988669 85.152619 
L 741.006912 85.403945 
L 741.088882 85.33003 
L 741.097977 85.418728 
L 741.134334 85.167402 
L 741.161575 85.315247 
L 741.170651 85.019557 
L 741.179724 85.47786 
L 741.270318 85.196968 
L 741.369689 85.389162 
L 741.378708 85.241317 
L 741.396739 85.063906 
L 741.41476 85.418728 
L 741.468764 85.374379 
L 741.477757 85.55179 
L 741.522682 85.167402 
L 741.567546 85.300464 
L 741.61235 85.093488 
L 741.64815 85.33003 
L 741.683912 85.10827 
L 741.72856 85.418728 
L 741.817677 85.344813 
L 741.933175 85.2561 
L 741.862147 85.47786 
L 741.942043 85.315247 
L 741.950908 85.463077 
L 741.986346 85.123053 
L 742.039434 85.2561 
L 742.065945 85.093488 
L 742.110085 85.285666 
L 742.136541 85.270883 
L 742.162976 85.078705 
L 742.198189 85.359596 
L 742.206987 85.063906 
L 742.224575 85.463077 
L 742.312378 85.211751 
L 742.329911 85.33003 
L 742.382454 85.03434 
L 742.417437 85.226534 
L 742.426177 84.989991 
L 742.469842 85.389162 
L 742.522165 85.270883 
L 742.617878 85.019557 
L 742.565705 85.359596 
L 742.626566 85.300464 
L 742.739299 85.078705 
L 742.791201 85.315247 
L 742.843022 85.2561 
L 742.851651 85.063906 
L 742.946424 85.33003 
L 743.023766 85.137836 
L 743.066656 85.2561 
L 743.126609 85.448294 
L 743.16082 85.167402 
L 743.169367 85.2561 
L 743.21207 85.123053 
L 743.263242 85.344813 
L 743.271763 85.285666 
L 743.407804 85.137836 
L 743.441727 85.374379 
L 743.458676 85.093488 
L 743.517929 85.344813 
L 743.585518 85.093488 
L 743.602394 85.374379 
L 743.619262 85.359596 
L 743.627692 85.463077 
L 743.71188 85.182185 
L 743.720287 85.315247 
L 743.812625 85.10827 
L 743.795855 85.359596 
L 743.829386 85.196968 
L 743.929778 85.137836 
L 743.954828 85.418728 
L 743.97986 85.123053 
L 744.071483 85.270883 
L 744.22087 85.226534 
L 744.270518 85.063906 
L 744.311834 85.241317 
L 744.328346 85.211751 
L 744.353099 85.2561 
L 744.34485 85.196968 
L 744.369591 85.196968 
L 744.394313 84.930859 
L 744.386074 85.403945 
L 744.468371 85.2561 
L 744.558662 85.389162 
L 744.566858 85.137836 
L 744.591435 85.492642 
L 744.714047 85.433511 
L 744.787398 85.226534 
L 744.819946 85.359596 
L 744.86871 85.463077 
L 744.87683 85.315247 
L 744.933617 85.418728 
L 744.949824 85.344813 
L 744.966024 85.463077 
L 744.982215 85.448294 
L 744.990308 85.566573 
L 745.054979 85.300464 
L 745.079198 85.374379 
L 745.167853 85.137836 
L 745.135642 85.507441 
L 745.208072 85.241317 
L 745.240213 85.123053 
L 745.256272 85.359596 
L 745.320429 85.211751 
L 745.384464 85.374379 
L 745.392459 85.182185 
L 745.416435 85.315247 
L 745.480285 85.10827 
L 745.52013 85.270883 
L 745.528093 85.389162 
L 745.583782 85.196968 
L 745.623503 85.33003 
L 745.671106 85.137836 
L 745.726557 85.403945 
L 745.750293 85.152619 
L 745.758202 85.152619 
L 745.876603 85.344813 
L 745.931713 85.123053 
L 745.971022 85.359596 
L 745.986733 85.300464 
L 746.088671 85.152619 
L 746.03382 85.344813 
L 746.119974 85.285666 
L 746.174684 85.389162 
L 746.135615 85.137836 
L 746.229304 85.285666 
L 746.27605 85.152619 
L 746.291618 85.374379 
L 746.322731 85.285666 
L 746.330504 85.433511 
L 746.369346 85.196968 
L 746.423648 85.344813 
L 746.431399 85.182185 
L 746.524261 85.374379 
L 746.531988 85.300464 
L 746.547437 85.389162 
L 746.570596 85.167402 
L 746.609159 85.33003 
L 746.616866 85.167402 
L 746.639977 85.433511 
L 746.716898 85.344813 
L 746.724581 85.403945 
L 746.755292 85.226534 
L 746.82429 85.33003 
L 746.847258 85.241317 
L 746.87021 85.418728 
L 746.938971 85.2561 
L 746.946602 85.433511 
L 747.00759 85.241317 
L 747.053258 85.359596 
L 747.076069 85.196968 
L 747.114052 85.448294 
L 747.159574 85.315247 
L 747.167155 85.389162 
L 747.235307 85.196968 
L 747.257993 85.270883 
L 747.265552 85.167402 
L 747.280664 85.433511 
L 747.363659 85.270883 
L 747.423889 85.463077 
L 747.468991 85.226534 
L 747.506529 85.211751 
L 747.596448 85.418728 
L 747.701048 85.241317 
L 747.648789 85.47786 
L 747.745776 85.33003 
L 747.783004 85.389162 
L 747.80532 85.241317 
L 747.849909 85.359596 
L 747.9315 85.2561 
L 747.864758 85.403945 
L 747.9315 85.2561 
" clip-path="url(#pe5675cdb0f)" style="fill: none; stroke: #1f77b4; stroke-width: 1.5; stroke-linecap: square"/>
   </g>
   <g id="patch_3">
    <path d="M 390.8115 311.6435 
L 390.8115 45.5315 
" style="fill: none; stroke: #000000; stroke-width: 0.8; stroke-linejoin: miter; stroke-linecap: square"/>
   </g>
   <g id="patch_4">
    <path d="M 747.9315 311.6435 
L 747.9315 45.5315 
" style="fill: none; stroke: #000000; stroke-width: 0.8; stroke-linejoin: miter; stroke-linecap: square"/>
   </g>
   <g id="patch_5">
    <path d="M 390.8115 311.6435 
L 747.9315 311.6435 
" style="fill: none; stroke: #000000; stroke-width: 0.8; stroke-linejoin: miter; stroke-linecap: square"/>
   </g>
   <g id="patch_6">
    <path d="M 390.8115 45.5315 
L 747.9315 45.5315 
" style="fill: none; stroke: #000000; stroke-width: 0.8; stroke-linejoin: miter; stroke-linecap: square"/>
   </g>
   <g id="text_18">
    <!-- Accuracy of the 09_07_25_CINIC10_torch_model_(1024+2048-2048.0-1)_car-plane on the validation set -->
    <g transform="translate(7.2 25.5315) scale(0.264 -0.264)">
     <defs>
      <path id="TimesNewRomanPSMT-20" transform="scale(0.015625)"/>
      <path id="TimesNewRomanPSMT-6f" d="M 1600 2947 
Q 2250 2947 2644 2453 
Q 2978 2031 2978 1484 
Q 2978 1100 2793 706 
Q 2609 313 2286 112 
Q 1963 -88 1566 -88 
Q 919 -88 538 428 
Q 216 863 216 1403 
Q 216 1797 411 2186 
Q 606 2575 925 2761 
Q 1244 2947 1600 2947 
z
M 1503 2744 
Q 1338 2744 1170 2645 
Q 1003 2547 900 2300 
Q 797 2053 797 1666 
Q 797 1041 1045 587 
Q 1294 134 1700 134 
Q 2003 134 2200 384 
Q 2397 634 2397 1244 
Q 2397 2006 2069 2444 
Q 1847 2744 1503 2744 
z
" transform="scale(0.015625)"/>
      <path id="TimesNewRomanPSMT-66" d="M 1319 2638 
L 1319 756 
Q 1319 356 1406 250 
Q 1522 113 1716 113 
L 1975 113 
L 1975 0 
L 266 0 
L 266 113 
L 394 113 
Q 519 113 622 175 
Q 725 238 764 344 
Q 803 450 803 756 
L 803 2638 
L 247 2638 
L 247 2863 
L 803 2863 
L 803 3050 
Q 803 3478 940 3775 
Q 1078 4072 1361 4255 
Q 1644 4438 1997 4438 
Q 2325 4438 2600 4225 
Q 2781 4084 2781 3909 
Q 2781 3816 2700 3733 
Q 2619 3650 2525 3650 
Q 2453 3650 2373 3701 
Q 2294 3753 2178 3923 
Q 2063 4094 1966 4153 
Q 1869 4213 1750 4213 
Q 1606 4213 1506 4136 
Q 1406 4059 1362 3898 
Q 1319 3738 1319 3069 
L 1319 2863 
L 2056 2863 
L 2056 2638 
L 1319 2638 
z
" transform="scale(0.015625)"/>
      <path id="TimesNewRomanPSMT-74" d="M 1031 3803 
L 1031 2863 
L 1700 2863 
L 1700 2644 
L 1031 2644 
L 1031 788 
Q 1031 509 1111 412 
Q 1191 316 1316 316 
Q 1419 316 1516 380 
Q 1613 444 1666 569 
L 1788 569 
Q 1678 263 1478 108 
Q 1278 -47 1066 -47 
Q 922 -47 784 33 
Q 647 113 581 261 
Q 516 409 516 719 
L 516 2644 
L 63 2644 
L 63 2747 
Q 234 2816 414 2980 
Q 594 3144 734 3369 
Q 806 3488 934 3803 
L 1031 3803 
z
" transform="scale(0.015625)"/>
      <path id="TimesNewRomanPSMT-68" d="M 1041 4444 
L 1041 2350 
Q 1388 2731 1591 2839 
Q 1794 2947 1997 2947 
Q 2241 2947 2416 2812 
Q 2591 2678 2675 2391 
Q 2734 2191 2734 1659 
L 2734 647 
Q 2734 375 2778 275 
Q 2809 200 2884 156 
Q 2959 113 3159 113 
L 3159 0 
L 1753 0 
L 1753 113 
L 1819 113 
Q 2019 113 2097 173 
Q 2175 234 2206 353 
Q 2216 403 2216 647 
L 2216 1659 
Q 2216 2128 2167 2275 
Q 2119 2422 2012 2495 
Q 1906 2569 1756 2569 
Q 1603 2569 1437 2487 
Q 1272 2406 1041 2159 
L 1041 647 
Q 1041 353 1073 281 
Q 1106 209 1195 161 
Q 1284 113 1503 113 
L 1503 0 
L 84 0 
L 84 113 
Q 275 113 384 172 
Q 447 203 484 290 
Q 522 378 522 647 
L 522 3238 
Q 522 3728 498 3840 
Q 475 3953 426 3993 
Q 378 4034 297 4034 
Q 231 4034 84 3984 
L 41 4094 
L 897 4444 
L 1041 4444 
z
" transform="scale(0.015625)"/>
      <path id="TimesNewRomanPSMT-65" d="M 681 1784 
Q 678 1147 991 784 
Q 1303 422 1725 422 
Q 2006 422 2214 576 
Q 2422 731 2563 1106 
L 2659 1044 
Q 2594 616 2278 264 
Q 1963 -88 1488 -88 
Q 972 -88 605 314 
Q 238 716 238 1394 
Q 238 2128 614 2539 
Q 991 2950 1559 2950 
Q 2041 2950 2350 2633 
Q 2659 2316 2659 1784 
L 681 1784 
z
M 681 1966 
L 2006 1966 
Q 1991 2241 1941 2353 
Q 1863 2528 1708 2628 
Q 1553 2728 1384 2728 
Q 1125 2728 920 2526 
Q 716 2325 681 1966 
z
" transform="scale(0.015625)"/>
      <path id="TimesNewRomanPSMT-5f" d="M 3256 -1381 
L -53 -1381 
L -53 -1119 
L 3256 -1119 
L 3256 -1381 
z
" transform="scale(0.015625)"/>
      <path id="TimesNewRomanPSMT-43" d="M 3853 4334 
L 3950 2894 
L 3853 2894 
Q 3659 3541 3300 3825 
Q 2941 4109 2438 4109 
Q 2016 4109 1675 3895 
Q 1334 3681 1139 3212 
Q 944 2744 944 2047 
Q 944 1472 1128 1050 
Q 1313 628 1683 403 
Q 2053 178 2528 178 
Q 2941 178 3256 354 
Q 3572 531 3950 1056 
L 4047 994 
Q 3728 428 3303 165 
Q 2878 -97 2294 -97 
Q 1241 -97 663 684 
Q 231 1266 231 2053 
Q 231 2688 515 3219 
Q 800 3750 1298 4042 
Q 1797 4334 2388 4334 
Q 2847 4334 3294 4109 
Q 3425 4041 3481 4041 
Q 3566 4041 3628 4100 
Q 3709 4184 3744 4334 
L 3853 4334 
z
" transform="scale(0.015625)"/>
      <path id="TimesNewRomanPSMT-49" d="M 1975 116 
L 1975 0 
L 159 0 
L 159 116 
L 309 116 
Q 572 116 691 269 
Q 766 369 766 750 
L 766 3488 
Q 766 3809 725 3913 
Q 694 3991 597 4047 
Q 459 4122 309 4122 
L 159 4122 
L 159 4238 
L 1975 4238 
L 1975 4122 
L 1822 4122 
Q 1563 4122 1444 3969 
Q 1366 3869 1366 3488 
L 1366 750 
Q 1366 428 1406 325 
Q 1438 247 1538 191 
Q 1672 116 1822 116 
L 1975 116 
z
" transform="scale(0.015625)"/>
      <path id="TimesNewRomanPSMT-4e" d="M -84 4238 
L 1066 4238 
L 3656 1059 
L 3656 3503 
Q 3656 3894 3569 3991 
Q 3453 4122 3203 4122 
L 3056 4122 
L 3056 4238 
L 4531 4238 
L 4531 4122 
L 4381 4122 
Q 4113 4122 4000 3959 
Q 3931 3859 3931 3503 
L 3931 -69 
L 3819 -69 
L 1025 3344 
L 1025 734 
Q 1025 344 1109 247 
Q 1228 116 1475 116 
L 1625 116 
L 1625 0 
L 150 0 
L 150 116 
L 297 116 
Q 569 116 681 278 
Q 750 378 750 734 
L 750 3681 
Q 566 3897 470 3965 
Q 375 4034 191 4094 
Q 100 4122 -84 4122 
L -84 4238 
z
" transform="scale(0.015625)"/>
      <path id="TimesNewRomanPSMT-6d" d="M 1050 2338 
Q 1363 2650 1419 2697 
Q 1559 2816 1721 2881 
Q 1884 2947 2044 2947 
Q 2313 2947 2506 2790 
Q 2700 2634 2766 2338 
Q 3088 2713 3309 2830 
Q 3531 2947 3766 2947 
Q 3994 2947 4170 2830 
Q 4347 2713 4450 2447 
Q 4519 2266 4519 1878 
L 4519 647 
Q 4519 378 4559 278 
Q 4591 209 4675 161 
Q 4759 113 4950 113 
L 4950 0 
L 3538 0 
L 3538 113 
L 3597 113 
Q 3781 113 3884 184 
Q 3956 234 3988 344 
Q 4000 397 4000 647 
L 4000 1878 
Q 4000 2228 3916 2372 
Q 3794 2572 3525 2572 
Q 3359 2572 3192 2489 
Q 3025 2406 2788 2181 
L 2781 2147 
L 2788 2013 
L 2788 647 
Q 2788 353 2820 281 
Q 2853 209 2943 161 
Q 3034 113 3253 113 
L 3253 0 
L 1806 0 
L 1806 113 
Q 2044 113 2133 169 
Q 2222 225 2256 338 
Q 2272 391 2272 647 
L 2272 1878 
Q 2272 2228 2169 2381 
Q 2031 2581 1784 2581 
Q 1616 2581 1450 2491 
Q 1191 2353 1050 2181 
L 1050 647 
Q 1050 366 1089 281 
Q 1128 197 1204 155 
Q 1281 113 1516 113 
L 1516 0 
L 100 0 
L 100 113 
Q 297 113 375 155 
Q 453 197 493 289 
Q 534 381 534 647 
L 534 1741 
Q 534 2213 506 2350 
Q 484 2453 437 2492 
Q 391 2531 309 2531 
Q 222 2531 100 2484 
L 53 2597 
L 916 2947 
L 1050 2947 
L 1050 2338 
z
" transform="scale(0.015625)"/>
      <path id="TimesNewRomanPSMT-64" d="M 2222 322 
Q 2013 103 1813 7 
Q 1613 -88 1381 -88 
Q 913 -88 563 304 
Q 213 697 213 1313 
Q 213 1928 600 2439 
Q 988 2950 1597 2950 
Q 1975 2950 2222 2709 
L 2222 3238 
Q 2222 3728 2198 3840 
Q 2175 3953 2125 3993 
Q 2075 4034 2000 4034 
Q 1919 4034 1784 3984 
L 1744 4094 
L 2597 4444 
L 2738 4444 
L 2738 1134 
Q 2738 631 2761 520 
Q 2784 409 2836 365 
Q 2888 322 2956 322 
Q 3041 322 3181 375 
L 3216 266 
L 2366 -88 
L 2222 -88 
L 2222 322 
z
M 2222 541 
L 2222 2016 
Q 2203 2228 2109 2403 
Q 2016 2578 1861 2667 
Q 1706 2756 1559 2756 
Q 1284 2756 1069 2509 
Q 784 2184 784 1559 
Q 784 928 1059 592 
Q 1334 256 1672 256 
Q 1956 256 2222 541 
z
" transform="scale(0.015625)"/>
      <path id="TimesNewRomanPSMT-6c" d="M 1184 4444 
L 1184 647 
Q 1184 378 1223 290 
Q 1263 203 1344 158 
Q 1425 113 1647 113 
L 1647 0 
L 244 0 
L 244 113 
Q 441 113 512 153 
Q 584 194 625 287 
Q 666 381 666 647 
L 666 3247 
Q 666 3731 644 3842 
Q 622 3953 573 3993 
Q 525 4034 450 4034 
Q 369 4034 244 3984 
L 191 4094 
L 1044 4444 
L 1184 4444 
z
" transform="scale(0.015625)"/>
      <path id="TimesNewRomanPSMT-28" d="M 1988 -1253 
L 1988 -1369 
Q 1516 -1131 1200 -813 
Q 750 -359 506 256 
Q 263 872 263 1534 
Q 263 2503 741 3301 
Q 1219 4100 1988 4444 
L 1988 4313 
Q 1603 4100 1356 3731 
Q 1109 3363 987 2797 
Q 866 2231 866 1616 
Q 866 947 969 400 
Q 1050 -31 1165 -292 
Q 1281 -553 1476 -793 
Q 1672 -1034 1988 -1253 
z
" transform="scale(0.015625)"/>
      <path id="TimesNewRomanPSMT-2b" d="M 1672 441 
L 1672 2000 
L 116 2000 
L 116 2256 
L 1672 2256 
L 1672 3809 
L 1922 3809 
L 1922 2256 
L 3484 2256 
L 3484 2000 
L 1922 2000 
L 1922 441 
L 1672 441 
z
" transform="scale(0.015625)"/>
      <path id="TimesNewRomanPSMT-2d" d="M 259 1672 
L 1875 1672 
L 1875 1200 
L 259 1200 
L 259 1672 
z
" transform="scale(0.015625)"/>
      <path id="TimesNewRomanPSMT-29" d="M 144 4313 
L 144 4444 
Q 619 4209 934 3891 
Q 1381 3434 1625 2820 
Q 1869 2206 1869 1541 
Q 1869 572 1392 -226 
Q 916 -1025 144 -1369 
L 144 -1253 
Q 528 -1038 776 -670 
Q 1025 -303 1145 264 
Q 1266 831 1266 1447 
Q 1266 2113 1163 2663 
Q 1084 3094 967 3353 
Q 850 3613 656 3853 
Q 463 4094 144 4313 
z
" transform="scale(0.015625)"/>
      <path id="TimesNewRomanPSMT-70" d="M -6 2578 
L 875 2934 
L 994 2934 
L 994 2266 
Q 1216 2644 1439 2795 
Q 1663 2947 1909 2947 
Q 2341 2947 2628 2609 
Q 2981 2197 2981 1534 
Q 2981 794 2556 309 
Q 2206 -88 1675 -88 
Q 1444 -88 1275 -22 
Q 1150 25 994 166 
L 994 -706 
Q 994 -1000 1030 -1079 
Q 1066 -1159 1155 -1206 
Q 1244 -1253 1478 -1253 
L 1478 -1369 
L -22 -1369 
L -22 -1253 
L 56 -1253 
Q 228 -1256 350 -1188 
Q 409 -1153 442 -1076 
Q 475 -1000 475 -688 
L 475 2019 
Q 475 2297 450 2372 
Q 425 2447 370 2484 
Q 316 2522 222 2522 
Q 147 2522 31 2478 
L -6 2578 
z
M 994 2081 
L 994 1013 
Q 994 666 1022 556 
Q 1066 375 1236 237 
Q 1406 100 1666 100 
Q 1978 100 2172 344 
Q 2425 663 2425 1241 
Q 2425 1897 2138 2250 
Q 1938 2494 1663 2494 
Q 1513 2494 1366 2419 
Q 1253 2363 994 2081 
z
" transform="scale(0.015625)"/>
      <path id="TimesNewRomanPSMT-6e" d="M 1034 2341 
Q 1538 2947 1994 2947 
Q 2228 2947 2397 2830 
Q 2566 2713 2666 2444 
Q 2734 2256 2734 1869 
L 2734 647 
Q 2734 375 2778 278 
Q 2813 200 2889 156 
Q 2966 113 3172 113 
L 3172 0 
L 1756 0 
L 1756 113 
L 1816 113 
Q 2016 113 2095 173 
Q 2175 234 2206 353 
Q 2219 400 2219 647 
L 2219 1819 
Q 2219 2209 2117 2386 
Q 2016 2563 1775 2563 
Q 1403 2563 1034 2156 
L 1034 647 
Q 1034 356 1069 288 
Q 1113 197 1189 155 
Q 1266 113 1500 113 
L 1500 0 
L 84 0 
L 84 113 
L 147 113 
Q 366 113 442 223 
Q 519 334 519 647 
L 519 1709 
Q 519 2225 495 2337 
Q 472 2450 423 2490 
Q 375 2531 294 2531 
Q 206 2531 84 2484 
L 38 2597 
L 900 2947 
L 1034 2947 
L 1034 2341 
z
" transform="scale(0.015625)"/>
      <path id="TimesNewRomanPSMT-76" d="M 53 2863 
L 1400 2863 
L 1400 2747 
L 1313 2747 
Q 1191 2747 1127 2687 
Q 1063 2628 1063 2528 
Q 1063 2419 1128 2269 
L 1794 688 
L 2463 2328 
Q 2534 2503 2534 2594 
Q 2534 2638 2509 2666 
Q 2475 2713 2422 2730 
Q 2369 2747 2206 2747 
L 2206 2863 
L 3141 2863 
L 3141 2747 
Q 2978 2734 2916 2681 
Q 2806 2588 2719 2369 
L 1703 -88 
L 1575 -88 
L 553 2328 
Q 484 2497 421 2570 
Q 359 2644 263 2694 
Q 209 2722 53 2747 
L 53 2863 
z
" transform="scale(0.015625)"/>
      <path id="TimesNewRomanPSMT-69" d="M 928 4444 
Q 1059 4444 1151 4351 
Q 1244 4259 1244 4128 
Q 1244 3997 1151 3903 
Q 1059 3809 928 3809 
Q 797 3809 703 3903 
Q 609 3997 609 4128 
Q 609 4259 701 4351 
Q 794 4444 928 4444 
z
M 1188 2947 
L 1188 647 
Q 1188 378 1227 289 
Q 1266 200 1342 156 
Q 1419 113 1622 113 
L 1622 0 
L 231 0 
L 231 113 
Q 441 113 512 153 
Q 584 194 626 287 
Q 669 381 669 647 
L 669 1750 
Q 669 2216 641 2353 
Q 619 2453 572 2492 
Q 525 2531 444 2531 
Q 356 2531 231 2484 
L 188 2597 
L 1050 2947 
L 1188 2947 
z
" transform="scale(0.015625)"/>
      <path id="TimesNewRomanPSMT-73" d="M 2050 2947 
L 2050 1972 
L 1947 1972 
Q 1828 2431 1642 2597 
Q 1456 2763 1169 2763 
Q 950 2763 815 2647 
Q 681 2531 681 2391 
Q 681 2216 781 2091 
Q 878 1963 1175 1819 
L 1631 1597 
Q 2266 1288 2266 781 
Q 2266 391 1970 151 
Q 1675 -88 1309 -88 
Q 1047 -88 709 6 
Q 606 38 541 38 
Q 469 38 428 -44 
L 325 -44 
L 325 978 
L 428 978 
Q 516 541 762 319 
Q 1009 97 1316 97 
Q 1531 97 1667 223 
Q 1803 350 1803 528 
Q 1803 744 1651 891 
Q 1500 1038 1047 1263 
Q 594 1488 453 1669 
Q 313 1847 313 2119 
Q 313 2472 555 2709 
Q 797 2947 1181 2947 
Q 1350 2947 1591 2875 
Q 1750 2828 1803 2828 
Q 1853 2828 1881 2850 
Q 1909 2872 1947 2947 
L 2050 2947 
z
" transform="scale(0.015625)"/>
     </defs>
     <use xlink:href="#TimesNewRomanPSMT-41"/>
     <use xlink:href="#TimesNewRomanPSMT-63" transform="translate(72.216797 0)"/>
     <use xlink:href="#TimesNewRomanPSMT-63" transform="translate(116.601562 0)"/>
     <use xlink:href="#TimesNewRomanPSMT-75" transform="translate(160.986328 0)"/>
     <use xlink:href="#TimesNewRomanPSMT-72" transform="translate(210.986328 0)"/>
     <use xlink:href="#TimesNewRomanPSMT-61" transform="translate(244.287109 0)"/>
     <use xlink:href="#TimesNewRomanPSMT-63" transform="translate(288.671875 0)"/>
     <use xlink:href="#TimesNewRomanPSMT-79" transform="translate(333.056641 0)"/>
     <use xlink:href="#TimesNewRomanPSMT-20" transform="translate(383.056641 0)"/>
     <use xlink:href="#TimesNewRomanPSMT-6f" transform="translate(408.056641 0)"/>
     <use xlink:href="#TimesNewRomanPSMT-66" transform="translate(458.056641 0)"/>
     <use xlink:href="#TimesNewRomanPSMT-20" transform="translate(491.357422 0)"/>
     <use xlink:href="#TimesNewRomanPSMT-74" transform="translate(516.357422 0)"/>
     <use xlink:href="#TimesNewRomanPSMT-68" transform="translate(544.140625 0)"/>
     <use xlink:href="#TimesNewRomanPSMT-65" transform="translate(594.140625 0)"/>
     <use xlink:href="#TimesNewRomanPSMT-20" transform="translate(638.525391 0)"/>
     <use xlink:href="#TimesNewRomanPSMT-30" transform="translate(663.525391 0)"/>
     <use xlink:href="#TimesNewRomanPSMT-39" transform="translate(713.525391 0)"/>
     <use xlink:href="#TimesNewRomanPSMT-5f" transform="translate(763.525391 0)"/>
     <use xlink:href="#TimesNewRomanPSMT-30" transform="translate(813.525391 0)"/>
     <use xlink:href="#TimesNewRomanPSMT-37" transform="translate(863.525391 0)"/>
     <use xlink:href="#TimesNewRomanPSMT-5f" transform="translate(913.525391 0)"/>
     <use xlink:href="#TimesNewRomanPSMT-32" transform="translate(963.525391 0)"/>
     <use xlink:href="#TimesNewRomanPSMT-35" transform="translate(1013.525391 0)"/>
     <use xlink:href="#TimesNewRomanPSMT-5f" transform="translate(1063.525391 0)"/>
     <use xlink:href="#TimesNewRomanPSMT-43" transform="translate(1113.525391 0)"/>
     <use xlink:href="#TimesNewRomanPSMT-49" transform="translate(1180.224609 0)"/>
     <use xlink:href="#TimesNewRomanPSMT-4e" transform="translate(1213.525391 0)"/>
     <use xlink:href="#TimesNewRomanPSMT-49" transform="translate(1285.742188 0)"/>
     <use xlink:href="#TimesNewRomanPSMT-43" transform="translate(1319.042969 0)"/>
     <use xlink:href="#TimesNewRomanPSMT-31" transform="translate(1385.742188 0)"/>
     <use xlink:href="#TimesNewRomanPSMT-30" transform="translate(1435.742188 0)"/>
     <use xlink:href="#TimesNewRomanPSMT-5f" transform="translate(1485.742188 0)"/>
     <use xlink:href="#TimesNewRomanPSMT-74" transform="translate(1535.742188 0)"/>
     <use xlink:href="#TimesNewRomanPSMT-6f" transform="translate(1563.525391 0)"/>
     <use xlink:href="#TimesNewRomanPSMT-72" transform="translate(1613.525391 0)"/>
     <use xlink:href="#TimesNewRomanPSMT-63" transform="translate(1646.826172 0)"/>
     <use xlink:href="#TimesNewRomanPSMT-68" transform="translate(1691.210938 0)"/>
     <use xlink:href="#TimesNewRomanPSMT-5f" transform="translate(1741.210938 0)"/>
     <use xlink:href="#TimesNewRomanPSMT-6d" transform="translate(1791.210938 0)"/>
     <use xlink:href="#TimesNewRomanPSMT-6f" transform="translate(1868.994141 0)"/>
     <use xlink:href="#TimesNewRomanPSMT-64" transform="translate(1918.994141 0)"/>
     <use xlink:href="#TimesNewRomanPSMT-65" transform="translate(1968.994141 0)"/>
     <use xlink:href="#TimesNewRomanPSMT-6c" transform="translate(2013.378906 0)"/>
     <use xlink:href="#TimesNewRomanPSMT-5f" transform="translate(2041.162109 0)"/>
     <use xlink:href="#TimesNewRomanPSMT-28" transform="translate(2091.162109 0)"/>
     <use xlink:href="#TimesNewRomanPSMT-31" transform="translate(2124.462891 0)"/>
     <use xlink:href="#TimesNewRomanPSMT-30" transform="translate(2174.462891 0)"/>
     <use xlink:href="#TimesNewRomanPSMT-32" transform="translate(2224.462891 0)"/>
     <use xlink:href="#TimesNewRomanPSMT-34" transform="translate(2274.462891 0)"/>
     <use xlink:href="#TimesNewRomanPSMT-2b" transform="translate(2324.462891 0)"/>
     <use xlink:href="#TimesNewRomanPSMT-32" transform="translate(2380.859375 0)"/>
     <use xlink:href="#TimesNewRomanPSMT-30" transform="translate(2430.859375 0)"/>
     <use xlink:href="#TimesNewRomanPSMT-34" transform="translate(2480.859375 0)"/>
     <use xlink:href="#TimesNewRomanPSMT-38" transform="translate(2530.859375 0)"/>
     <use xlink:href="#TimesNewRomanPSMT-2d" transform="translate(2580.859375 0)"/>
     <use xlink:href="#TimesNewRomanPSMT-32" transform="translate(2614.160156 0)"/>
     <use xlink:href="#TimesNewRomanPSMT-30" transform="translate(2664.160156 0)"/>
     <use xlink:href="#TimesNewRomanPSMT-34" transform="translate(2714.160156 0)"/>
     <use xlink:href="#TimesNewRomanPSMT-38" transform="translate(2764.160156 0)"/>
     <use xlink:href="#TimesNewRomanPSMT-2e" transform="translate(2814.160156 0)"/>
     <use xlink:href="#TimesNewRomanPSMT-30" transform="translate(2839.160156 0)"/>
     <use xlink:href="#TimesNewRomanPSMT-2d" transform="translate(2889.160156 0)"/>
     <use xlink:href="#TimesNewRomanPSMT-31" transform="translate(2922.460938 0)"/>
     <use xlink:href="#TimesNewRomanPSMT-29" transform="translate(2972.460938 0)"/>
     <use xlink:href="#TimesNewRomanPSMT-5f" transform="translate(3005.761719 0)"/>
     <use xlink:href="#TimesNewRomanPSMT-63" transform="translate(3055.761719 0)"/>
     <use xlink:href="#TimesNewRomanPSMT-61" transform="translate(3100.146484 0)"/>
     <use xlink:href="#TimesNewRomanPSMT-72" transform="translate(3144.53125 0)"/>
     <use xlink:href="#TimesNewRomanPSMT-2d" transform="translate(3175.832031 0)"/>
     <use xlink:href="#TimesNewRomanPSMT-70" transform="translate(3209.132812 0)"/>
     <use xlink:href="#TimesNewRomanPSMT-6c" transform="translate(3259.132812 0)"/>
     <use xlink:href="#TimesNewRomanPSMT-61" transform="translate(3286.916016 0)"/>
     <use xlink:href="#TimesNewRomanPSMT-6e" transform="translate(3331.300781 0)"/>
     <use xlink:href="#TimesNewRomanPSMT-65" transform="translate(3381.300781 0)"/>
     <use xlink:href="#TimesNewRomanPSMT-20" transform="translate(3425.685547 0)"/>
     <use xlink:href="#TimesNewRomanPSMT-6f" transform="translate(3450.685547 0)"/>
     <use xlink:href="#TimesNewRomanPSMT-6e" transform="translate(3500.685547 0)"/>
     <use xlink:href="#TimesNewRomanPSMT-20" transform="translate(3550.685547 0)"/>
     <use xlink:href="#TimesNewRomanPSMT-74" transform="translate(3575.685547 0)"/>
     <use xlink:href="#TimesNewRomanPSMT-68" transform="translate(3603.46875 0)"/>
     <use xlink:href="#TimesNewRomanPSMT-65" transform="translate(3653.46875 0)"/>
     <use xlink:href="#TimesNewRomanPSMT-20" transform="translate(3697.853516 0)"/>
     <use xlink:href="#TimesNewRomanPSMT-76" transform="translate(3722.853516 0)"/>
     <use xlink:href="#TimesNewRomanPSMT-61" transform="translate(3772.853516 0)"/>
     <use xlink:href="#TimesNewRomanPSMT-6c" transform="translate(3817.238281 0)"/>
     <use xlink:href="#TimesNewRomanPSMT-69" transform="translate(3845.021484 0)"/>
     <use xlink:href="#TimesNewRomanPSMT-64" transform="translate(3872.804688 0)"/>
     <use xlink:href="#TimesNewRomanPSMT-61" transform="translate(3922.804688 0)"/>
     <use xlink:href="#TimesNewRomanPSMT-74" transform="translate(3967.189453 0)"/>
     <use xlink:href="#TimesNewRomanPSMT-69" transform="translate(3994.972656 0)"/>
     <use xlink:href="#TimesNewRomanPSMT-6f" transform="translate(4022.755859 0)"/>
     <use xlink:href="#TimesNewRomanPSMT-6e" transform="translate(4072.755859 0)"/>
     <use xlink:href="#TimesNewRomanPSMT-20" transform="translate(4122.755859 0)"/>
     <use xlink:href="#TimesNewRomanPSMT-73" transform="translate(4147.755859 0)"/>
     <use xlink:href="#TimesNewRomanPSMT-65" transform="translate(4186.671875 0)"/>
     <use xlink:href="#TimesNewRomanPSMT-74" transform="translate(4231.056641 0)"/>
    </g>
   </g>
   <g id="legend_1">
    <g id="patch_7">
     <path d="M 406.2115 300.6435 
L 643.381813 300.6435 
Q 647.781813 300.6435 647.781813 296.2435 
L 647.781813 267.296312 
Q 647.781813 262.896312 643.381813 262.896312 
L 406.2115 262.896312 
Q 401.8115 262.896312 401.8115 267.296312 
L 401.8115 296.2435 
Q 401.8115 300.6435 406.2115 300.6435 
z
" style="fill: #ffffff; opacity: 0.8; stroke: #cccccc; stroke-linejoin: miter"/>
    </g>
    <g id="line2d_32">
     <path d="M 410.6115 279.396312 
L 432.6115 279.396312 
L 454.6115 279.396312 
" style="fill: none; stroke: #1f77b4; stroke-width: 1.5; stroke-linecap: square"/>
    </g>
    <g id="text_19">
     <!-- Best accuracy 0.86 -->
     <g transform="translate(472.2115 287.096312) scale(0.22 -0.22)">
      <defs>
       <path id="TimesNewRomanPSMT-42" d="M 2956 2163 
Q 3397 2069 3616 1863 
Q 3919 1575 3919 1159 
Q 3919 844 3719 555 
Q 3519 266 3170 133 
Q 2822 0 2106 0 
L 106 0 
L 106 116 
L 266 116 
Q 531 116 647 284 
Q 719 394 719 750 
L 719 3488 
Q 719 3881 628 3984 
Q 506 4122 266 4122 
L 106 4122 
L 106 4238 
L 1938 4238 
Q 2450 4238 2759 4163 
Q 3228 4050 3475 3764 
Q 3722 3478 3722 3106 
Q 3722 2788 3528 2536 
Q 3334 2284 2956 2163 
z
M 1319 2331 
Q 1434 2309 1582 2298 
Q 1731 2288 1909 2288 
Q 2366 2288 2595 2386 
Q 2825 2484 2947 2687 
Q 3069 2891 3069 3131 
Q 3069 3503 2766 3765 
Q 2463 4028 1881 4028 
Q 1569 4028 1319 3959 
L 1319 2331 
z
M 1319 306 
Q 1681 222 2034 222 
Q 2600 222 2897 476 
Q 3194 731 3194 1106 
Q 3194 1353 3059 1581 
Q 2925 1809 2622 1940 
Q 2319 2072 1872 2072 
Q 1678 2072 1540 2065 
Q 1403 2059 1319 2044 
L 1319 306 
z
" transform="scale(0.015625)"/>
      </defs>
      <use xlink:href="#TimesNewRomanPSMT-42"/>
      <use xlink:href="#TimesNewRomanPSMT-65" transform="translate(66.699219 0)"/>
      <use xlink:href="#TimesNewRomanPSMT-73" transform="translate(111.083984 0)"/>
      <use xlink:href="#TimesNewRomanPSMT-74" transform="translate(150 0)"/>
      <use xlink:href="#TimesNewRomanPSMT-20" transform="translate(177.783203 0)"/>
      <use xlink:href="#TimesNewRomanPSMT-61" transform="translate(202.783203 0)"/>
      <use xlink:href="#TimesNewRomanPSMT-63" transform="translate(247.167969 0)"/>
      <use xlink:href="#TimesNewRomanPSMT-63" transform="translate(291.552734 0)"/>
      <use xlink:href="#TimesNewRomanPSMT-75" transform="translate(335.9375 0)"/>
      <use xlink:href="#TimesNewRomanPSMT-72" transform="translate(385.9375 0)"/>
      <use xlink:href="#TimesNewRomanPSMT-61" transform="translate(419.238281 0)"/>
      <use xlink:href="#TimesNewRomanPSMT-63" transform="translate(463.623047 0)"/>
      <use xlink:href="#TimesNewRomanPSMT-79" transform="translate(508.007812 0)"/>
      <use xlink:href="#TimesNewRomanPSMT-20" transform="translate(558.007812 0)"/>
      <use xlink:href="#TimesNewRomanPSMT-30" transform="translate(583.007812 0)"/>
      <use xlink:href="#TimesNewRomanPSMT-2e" transform="translate(633.007812 0)"/>
      <use xlink:href="#TimesNewRomanPSMT-38" transform="translate(658.007812 0)"/>
      <use xlink:href="#TimesNewRomanPSMT-36" transform="translate(708.007812 0)"/>
     </g>
    </g>
   </g>
  </g>
 </g>
 <defs>
  <clipPath id="pe5675cdb0f">
   <rect x="390.8115" y="45.5315" width="357.12" height="266.112"/>
  </clipPath>
 </defs>
</svg>
