<?xml version="1.0" encoding="utf-8" standalone="no"?>
<!DOCTYPE svg PUBLIC "-//W3C//DTD SVG 1.1//EN"
  "http://www.w3.org/Graphics/SVG/1.1/DTD/svg11.dtd">
<svg xmlns:xlink="http://www.w3.org/1999/xlink" width="750.568125pt" height="369.807875pt" viewBox="0 0 750.568125 369.807875" xmlns="http://www.w3.org/2000/svg" version="1.1">
 <metadata>
  <rdf:RDF xmlns:dc="http://purl.org/dc/elements/1.1/" xmlns:cc="http://creativecommons.org/ns#" xmlns:rdf="http://www.w3.org/1999/02/22-rdf-syntax-ns#">
   <cc:Work>
    <dc:type rdf:resource="http://purl.org/dc/dcmitype/StillImage"/>
    <dc:date>2025-05-21T15:28:20.803873</dc:date>
    <dc:format>image/svg+xml</dc:format>
    <dc:creator>
     <cc:Agent>
      <dc:title>Matplotlib v3.10.1, https://matplotlib.org/</dc:title>
     </cc:Agent>
    </dc:creator>
   </cc:Work>
  </rdf:RDF>
 </metadata>
 <defs>
  <style type="text/css">*{stroke-linejoin: round; stroke-linecap: butt}</style>
 </defs>
 <g id="figure_1">
  <g id="patch_1">
   <path d="M 0 369.807875 
L 750.568125 369.807875 
L 750.568125 0 
L 0 0 
z
" style="fill: #ffffff"/>
  </g>
  <g id="axes_1">
   <g id="patch_2">
    <path d="M 196.724063 311.6435 
L 553.844063 311.6435 
L 553.844063 45.5315 
L 196.724063 45.5315 
z
" style="fill: #ffffff"/>
   </g>
   <g id="matplotlib.axis_1">
    <g id="xtick_1">
     <g id="line2d_1">
      <path d="M 196.724063 311.6435 
L 196.724063 45.5315 
" clip-path="url(#p12f79859cf)" style="fill: none; stroke: #b0b0b0; stroke-opacity: 0.3; stroke-width: 0.8; stroke-linecap: square"/>
     </g>
     <g id="line2d_2">
      <defs>
       <path id="m9f0f23298b" d="M 0 0 
L 0 3.5 
" style="stroke: #000000; stroke-width: 0.8"/>
      </defs>
      <g>
       <use xlink:href="#m9f0f23298b" x="196.724063" y="311.6435" style="stroke: #000000; stroke-width: 0.8"/>
      </g>
     </g>
     <g id="text_1">
      <!-- 0 -->
      <g transform="translate(191.224063 333.91975) scale(0.22 -0.22)">
       <defs>
        <path id="TimesNewRomanPSMT-30" d="M 231 2094 
Q 231 2819 450 3342 
Q 669 3866 1031 4122 
Q 1313 4325 1613 4325 
Q 2100 4325 2488 3828 
Q 2972 3213 2972 2159 
Q 2972 1422 2759 906 
Q 2547 391 2217 158 
Q 1888 -75 1581 -75 
Q 975 -75 572 641 
Q 231 1244 231 2094 
z
M 844 2016 
Q 844 1141 1059 588 
Q 1238 122 1591 122 
Q 1759 122 1940 273 
Q 2122 425 2216 781 
Q 2359 1319 2359 2297 
Q 2359 3022 2209 3506 
Q 2097 3866 1919 4016 
Q 1791 4119 1609 4119 
Q 1397 4119 1231 3928 
Q 1006 3669 925 3112 
Q 844 2556 844 2016 
z
" transform="scale(0.015625)"/>
       </defs>
       <use xlink:href="#TimesNewRomanPSMT-30"/>
      </g>
     </g>
    </g>
    <g id="xtick_2">
     <g id="line2d_3">
      <path d="M 330.476871 311.6435 
L 330.476871 45.5315 
" clip-path="url(#p12f79859cf)" style="fill: none; stroke: #b0b0b0; stroke-opacity: 0.3; stroke-width: 0.8; stroke-linecap: square"/>
     </g>
     <g id="line2d_4">
      <g>
       <use xlink:href="#m9f0f23298b" x="330.476871" y="311.6435" style="stroke: #000000; stroke-width: 0.8"/>
      </g>
     </g>
     <g id="text_2">
      <!-- 2000 -->
      <g transform="translate(308.476871 333.91975) scale(0.22 -0.22)">
       <defs>
        <path id="TimesNewRomanPSMT-32" d="M 2934 816 
L 2638 0 
L 138 0 
L 138 116 
Q 1241 1122 1691 1759 
Q 2141 2397 2141 2925 
Q 2141 3328 1894 3587 
Q 1647 3847 1303 3847 
Q 991 3847 742 3664 
Q 494 3481 375 3128 
L 259 3128 
Q 338 3706 661 4015 
Q 984 4325 1469 4325 
Q 1984 4325 2329 3994 
Q 2675 3663 2675 3213 
Q 2675 2891 2525 2569 
Q 2294 2063 1775 1497 
Q 997 647 803 472 
L 1909 472 
Q 2247 472 2383 497 
Q 2519 522 2628 598 
Q 2738 675 2819 816 
L 2934 816 
z
" transform="scale(0.015625)"/>
       </defs>
       <use xlink:href="#TimesNewRomanPSMT-32"/>
       <use xlink:href="#TimesNewRomanPSMT-30" transform="translate(50 0)"/>
       <use xlink:href="#TimesNewRomanPSMT-30" transform="translate(100 0)"/>
       <use xlink:href="#TimesNewRomanPSMT-30" transform="translate(150 0)"/>
      </g>
     </g>
    </g>
    <g id="xtick_3">
     <g id="line2d_5">
      <path d="M 464.22968 311.6435 
L 464.22968 45.5315 
" clip-path="url(#p12f79859cf)" style="fill: none; stroke: #b0b0b0; stroke-opacity: 0.3; stroke-width: 0.8; stroke-linecap: square"/>
     </g>
     <g id="line2d_6">
      <g>
       <use xlink:href="#m9f0f23298b" x="464.22968" y="311.6435" style="stroke: #000000; stroke-width: 0.8"/>
      </g>
     </g>
     <g id="text_3">
      <!-- 4000 -->
      <g transform="translate(442.22968 333.91975) scale(0.22 -0.22)">
       <defs>
        <path id="TimesNewRomanPSMT-34" d="M 2978 1563 
L 2978 1119 
L 2409 1119 
L 2409 0 
L 1894 0 
L 1894 1119 
L 100 1119 
L 100 1519 
L 2066 4325 
L 2409 4325 
L 2409 1563 
L 2978 1563 
z
M 1894 1563 
L 1894 3666 
L 406 1563 
L 1894 1563 
z
" transform="scale(0.015625)"/>
       </defs>
       <use xlink:href="#TimesNewRomanPSMT-34"/>
       <use xlink:href="#TimesNewRomanPSMT-30" transform="translate(50 0)"/>
       <use xlink:href="#TimesNewRomanPSMT-30" transform="translate(100 0)"/>
       <use xlink:href="#TimesNewRomanPSMT-30" transform="translate(150 0)"/>
      </g>
     </g>
    </g>
    <g id="text_4">
     <!-- Number of iterations -->
     <g transform="translate(283.642031 357.901937) scale(0.22 -0.22)">
      <defs>
       <path id="TimesNewRomanPSMT-4e" d="M -84 4238 
L 1066 4238 
L 3656 1059 
L 3656 3503 
Q 3656 3894 3569 3991 
Q 3453 4122 3203 4122 
L 3056 4122 
L 3056 4238 
L 4531 4238 
L 4531 4122 
L 4381 4122 
Q 4113 4122 4000 3959 
Q 3931 3859 3931 3503 
L 3931 -69 
L 3819 -69 
L 1025 3344 
L 1025 734 
Q 1025 344 1109 247 
Q 1228 116 1475 116 
L 1625 116 
L 1625 0 
L 150 0 
L 150 116 
L 297 116 
Q 569 116 681 278 
Q 750 378 750 734 
L 750 3681 
Q 566 3897 470 3965 
Q 375 4034 191 4094 
Q 100 4122 -84 4122 
L -84 4238 
z
" transform="scale(0.015625)"/>
       <path id="TimesNewRomanPSMT-75" d="M 2709 2863 
L 2709 1128 
Q 2709 631 2732 520 
Q 2756 409 2807 365 
Q 2859 322 2928 322 
Q 3025 322 3147 375 
L 3191 266 
L 2334 -88 
L 2194 -88 
L 2194 519 
Q 1825 119 1631 15 
Q 1438 -88 1222 -88 
Q 981 -88 804 51 
Q 628 191 559 409 
Q 491 628 491 1028 
L 491 2306 
Q 491 2509 447 2587 
Q 403 2666 317 2708 
Q 231 2750 6 2747 
L 6 2863 
L 1009 2863 
L 1009 947 
Q 1009 547 1148 422 
Q 1288 297 1484 297 
Q 1619 297 1789 381 
Q 1959 466 2194 703 
L 2194 2325 
Q 2194 2569 2105 2655 
Q 2016 2741 1734 2747 
L 1734 2863 
L 2709 2863 
z
" transform="scale(0.015625)"/>
       <path id="TimesNewRomanPSMT-6d" d="M 1050 2338 
Q 1363 2650 1419 2697 
Q 1559 2816 1721 2881 
Q 1884 2947 2044 2947 
Q 2313 2947 2506 2790 
Q 2700 2634 2766 2338 
Q 3088 2713 3309 2830 
Q 3531 2947 3766 2947 
Q 3994 2947 4170 2830 
Q 4347 2713 4450 2447 
Q 4519 2266 4519 1878 
L 4519 647 
Q 4519 378 4559 278 
Q 4591 209 4675 161 
Q 4759 113 4950 113 
L 4950 0 
L 3538 0 
L 3538 113 
L 3597 113 
Q 3781 113 3884 184 
Q 3956 234 3988 344 
Q 4000 397 4000 647 
L 4000 1878 
Q 4000 2228 3916 2372 
Q 3794 2572 3525 2572 
Q 3359 2572 3192 2489 
Q 3025 2406 2788 2181 
L 2781 2147 
L 2788 2013 
L 2788 647 
Q 2788 353 2820 281 
Q 2853 209 2943 161 
Q 3034 113 3253 113 
L 3253 0 
L 1806 0 
L 1806 113 
Q 2044 113 2133 169 
Q 2222 225 2256 338 
Q 2272 391 2272 647 
L 2272 1878 
Q 2272 2228 2169 2381 
Q 2031 2581 1784 2581 
Q 1616 2581 1450 2491 
Q 1191 2353 1050 2181 
L 1050 647 
Q 1050 366 1089 281 
Q 1128 197 1204 155 
Q 1281 113 1516 113 
L 1516 0 
L 100 0 
L 100 113 
Q 297 113 375 155 
Q 453 197 493 289 
Q 534 381 534 647 
L 534 1741 
Q 534 2213 506 2350 
Q 484 2453 437 2492 
Q 391 2531 309 2531 
Q 222 2531 100 2484 
L 53 2597 
L 916 2947 
L 1050 2947 
L 1050 2338 
z
" transform="scale(0.015625)"/>
       <path id="TimesNewRomanPSMT-62" d="M 984 2369 
Q 1400 2947 1881 2947 
Q 2322 2947 2650 2570 
Q 2978 2194 2978 1541 
Q 2978 778 2472 313 
Q 2038 -88 1503 -88 
Q 1253 -88 995 3 
Q 738 94 469 275 
L 469 3241 
Q 469 3728 445 3840 
Q 422 3953 372 3993 
Q 322 4034 247 4034 
Q 159 4034 28 3984 
L -16 4094 
L 844 4444 
L 984 4444 
L 984 2369 
z
M 984 2169 
L 984 456 
Q 1144 300 1314 220 
Q 1484 141 1663 141 
Q 1947 141 2192 453 
Q 2438 766 2438 1363 
Q 2438 1913 2192 2208 
Q 1947 2503 1634 2503 
Q 1469 2503 1303 2419 
Q 1178 2356 984 2169 
z
" transform="scale(0.015625)"/>
       <path id="TimesNewRomanPSMT-65" d="M 681 1784 
Q 678 1147 991 784 
Q 1303 422 1725 422 
Q 2006 422 2214 576 
Q 2422 731 2563 1106 
L 2659 1044 
Q 2594 616 2278 264 
Q 1963 -88 1488 -88 
Q 972 -88 605 314 
Q 238 716 238 1394 
Q 238 2128 614 2539 
Q 991 2950 1559 2950 
Q 2041 2950 2350 2633 
Q 2659 2316 2659 1784 
L 681 1784 
z
M 681 1966 
L 2006 1966 
Q 1991 2241 1941 2353 
Q 1863 2528 1708 2628 
Q 1553 2728 1384 2728 
Q 1125 2728 920 2526 
Q 716 2325 681 1966 
z
" transform="scale(0.015625)"/>
       <path id="TimesNewRomanPSMT-72" d="M 1038 2947 
L 1038 2303 
Q 1397 2947 1775 2947 
Q 1947 2947 2059 2842 
Q 2172 2738 2172 2600 
Q 2172 2478 2090 2393 
Q 2009 2309 1897 2309 
Q 1788 2309 1652 2417 
Q 1516 2525 1450 2525 
Q 1394 2525 1328 2463 
Q 1188 2334 1038 2041 
L 1038 669 
Q 1038 431 1097 309 
Q 1138 225 1241 169 
Q 1344 113 1538 113 
L 1538 0 
L 72 0 
L 72 113 
Q 291 113 397 181 
Q 475 231 506 341 
Q 522 394 522 644 
L 522 1753 
Q 522 2253 501 2348 
Q 481 2444 426 2487 
Q 372 2531 291 2531 
Q 194 2531 72 2484 
L 41 2597 
L 906 2947 
L 1038 2947 
z
" transform="scale(0.015625)"/>
       <path id="TimesNewRomanPSMT-20" transform="scale(0.015625)"/>
       <path id="TimesNewRomanPSMT-6f" d="M 1600 2947 
Q 2250 2947 2644 2453 
Q 2978 2031 2978 1484 
Q 2978 1100 2793 706 
Q 2609 313 2286 112 
Q 1963 -88 1566 -88 
Q 919 -88 538 428 
Q 216 863 216 1403 
Q 216 1797 411 2186 
Q 606 2575 925 2761 
Q 1244 2947 1600 2947 
z
M 1503 2744 
Q 1338 2744 1170 2645 
Q 1003 2547 900 2300 
Q 797 2053 797 1666 
Q 797 1041 1045 587 
Q 1294 134 1700 134 
Q 2003 134 2200 384 
Q 2397 634 2397 1244 
Q 2397 2006 2069 2444 
Q 1847 2744 1503 2744 
z
" transform="scale(0.015625)"/>
       <path id="TimesNewRomanPSMT-66" d="M 1319 2638 
L 1319 756 
Q 1319 356 1406 250 
Q 1522 113 1716 113 
L 1975 113 
L 1975 0 
L 266 0 
L 266 113 
L 394 113 
Q 519 113 622 175 
Q 725 238 764 344 
Q 803 450 803 756 
L 803 2638 
L 247 2638 
L 247 2863 
L 803 2863 
L 803 3050 
Q 803 3478 940 3775 
Q 1078 4072 1361 4255 
Q 1644 4438 1997 4438 
Q 2325 4438 2600 4225 
Q 2781 4084 2781 3909 
Q 2781 3816 2700 3733 
Q 2619 3650 2525 3650 
Q 2453 3650 2373 3701 
Q 2294 3753 2178 3923 
Q 2063 4094 1966 4153 
Q 1869 4213 1750 4213 
Q 1606 4213 1506 4136 
Q 1406 4059 1362 3898 
Q 1319 3738 1319 3069 
L 1319 2863 
L 2056 2863 
L 2056 2638 
L 1319 2638 
z
" transform="scale(0.015625)"/>
       <path id="TimesNewRomanPSMT-69" d="M 928 4444 
Q 1059 4444 1151 4351 
Q 1244 4259 1244 4128 
Q 1244 3997 1151 3903 
Q 1059 3809 928 3809 
Q 797 3809 703 3903 
Q 609 3997 609 4128 
Q 609 4259 701 4351 
Q 794 4444 928 4444 
z
M 1188 2947 
L 1188 647 
Q 1188 378 1227 289 
Q 1266 200 1342 156 
Q 1419 113 1622 113 
L 1622 0 
L 231 0 
L 231 113 
Q 441 113 512 153 
Q 584 194 626 287 
Q 669 381 669 647 
L 669 1750 
Q 669 2216 641 2353 
Q 619 2453 572 2492 
Q 525 2531 444 2531 
Q 356 2531 231 2484 
L 188 2597 
L 1050 2947 
L 1188 2947 
z
" transform="scale(0.015625)"/>
       <path id="TimesNewRomanPSMT-74" d="M 1031 3803 
L 1031 2863 
L 1700 2863 
L 1700 2644 
L 1031 2644 
L 1031 788 
Q 1031 509 1111 412 
Q 1191 316 1316 316 
Q 1419 316 1516 380 
Q 1613 444 1666 569 
L 1788 569 
Q 1678 263 1478 108 
Q 1278 -47 1066 -47 
Q 922 -47 784 33 
Q 647 113 581 261 
Q 516 409 516 719 
L 516 2644 
L 63 2644 
L 63 2747 
Q 234 2816 414 2980 
Q 594 3144 734 3369 
Q 806 3488 934 3803 
L 1031 3803 
z
" transform="scale(0.015625)"/>
       <path id="TimesNewRomanPSMT-61" d="M 1822 413 
Q 1381 72 1269 19 
Q 1100 -59 909 -59 
Q 613 -59 420 144 
Q 228 347 228 678 
Q 228 888 322 1041 
Q 450 1253 767 1440 
Q 1084 1628 1822 1897 
L 1822 2009 
Q 1822 2438 1686 2597 
Q 1550 2756 1291 2756 
Q 1094 2756 978 2650 
Q 859 2544 859 2406 
L 866 2225 
Q 866 2081 792 2003 
Q 719 1925 600 1925 
Q 484 1925 411 2006 
Q 338 2088 338 2228 
Q 338 2497 613 2722 
Q 888 2947 1384 2947 
Q 1766 2947 2009 2819 
Q 2194 2722 2281 2516 
Q 2338 2381 2338 1966 
L 2338 994 
Q 2338 584 2353 492 
Q 2369 400 2405 369 
Q 2441 338 2488 338 
Q 2538 338 2575 359 
Q 2641 400 2828 588 
L 2828 413 
Q 2478 -56 2159 -56 
Q 2006 -56 1915 50 
Q 1825 156 1822 413 
z
M 1822 616 
L 1822 1706 
Q 1350 1519 1213 1441 
Q 966 1303 859 1153 
Q 753 1003 753 825 
Q 753 600 887 451 
Q 1022 303 1197 303 
Q 1434 303 1822 616 
z
" transform="scale(0.015625)"/>
       <path id="TimesNewRomanPSMT-6e" d="M 1034 2341 
Q 1538 2947 1994 2947 
Q 2228 2947 2397 2830 
Q 2566 2713 2666 2444 
Q 2734 2256 2734 1869 
L 2734 647 
Q 2734 375 2778 278 
Q 2813 200 2889 156 
Q 2966 113 3172 113 
L 3172 0 
L 1756 0 
L 1756 113 
L 1816 113 
Q 2016 113 2095 173 
Q 2175 234 2206 353 
Q 2219 400 2219 647 
L 2219 1819 
Q 2219 2209 2117 2386 
Q 2016 2563 1775 2563 
Q 1403 2563 1034 2156 
L 1034 647 
Q 1034 356 1069 288 
Q 1113 197 1189 155 
Q 1266 113 1500 113 
L 1500 0 
L 84 0 
L 84 113 
L 147 113 
Q 366 113 442 223 
Q 519 334 519 647 
L 519 1709 
Q 519 2225 495 2337 
Q 472 2450 423 2490 
Q 375 2531 294 2531 
Q 206 2531 84 2484 
L 38 2597 
L 900 2947 
L 1034 2947 
L 1034 2341 
z
" transform="scale(0.015625)"/>
       <path id="TimesNewRomanPSMT-73" d="M 2050 2947 
L 2050 1972 
L 1947 1972 
Q 1828 2431 1642 2597 
Q 1456 2763 1169 2763 
Q 950 2763 815 2647 
Q 681 2531 681 2391 
Q 681 2216 781 2091 
Q 878 1963 1175 1819 
L 1631 1597 
Q 2266 1288 2266 781 
Q 2266 391 1970 151 
Q 1675 -88 1309 -88 
Q 1047 -88 709 6 
Q 606 38 541 38 
Q 469 38 428 -44 
L 325 -44 
L 325 978 
L 428 978 
Q 516 541 762 319 
Q 1009 97 1316 97 
Q 1531 97 1667 223 
Q 1803 350 1803 528 
Q 1803 744 1651 891 
Q 1500 1038 1047 1263 
Q 594 1488 453 1669 
Q 313 1847 313 2119 
Q 313 2472 555 2709 
Q 797 2947 1181 2947 
Q 1350 2947 1591 2875 
Q 1750 2828 1803 2828 
Q 1853 2828 1881 2850 
Q 1909 2872 1947 2947 
L 2050 2947 
z
" transform="scale(0.015625)"/>
      </defs>
      <use xlink:href="#TimesNewRomanPSMT-4e"/>
      <use xlink:href="#TimesNewRomanPSMT-75" transform="translate(72.216797 0)"/>
      <use xlink:href="#TimesNewRomanPSMT-6d" transform="translate(122.216797 0)"/>
      <use xlink:href="#TimesNewRomanPSMT-62" transform="translate(200 0)"/>
      <use xlink:href="#TimesNewRomanPSMT-65" transform="translate(250 0)"/>
      <use xlink:href="#TimesNewRomanPSMT-72" transform="translate(294.384766 0)"/>
      <use xlink:href="#TimesNewRomanPSMT-20" transform="translate(327.685547 0)"/>
      <use xlink:href="#TimesNewRomanPSMT-6f" transform="translate(352.685547 0)"/>
      <use xlink:href="#TimesNewRomanPSMT-66" transform="translate(402.685547 0)"/>
      <use xlink:href="#TimesNewRomanPSMT-20" transform="translate(435.986328 0)"/>
      <use xlink:href="#TimesNewRomanPSMT-69" transform="translate(460.986328 0)"/>
      <use xlink:href="#TimesNewRomanPSMT-74" transform="translate(488.769531 0)"/>
      <use xlink:href="#TimesNewRomanPSMT-65" transform="translate(516.552734 0)"/>
      <use xlink:href="#TimesNewRomanPSMT-72" transform="translate(560.9375 0)"/>
      <use xlink:href="#TimesNewRomanPSMT-61" transform="translate(594.238281 0)"/>
      <use xlink:href="#TimesNewRomanPSMT-74" transform="translate(638.623047 0)"/>
      <use xlink:href="#TimesNewRomanPSMT-69" transform="translate(666.40625 0)"/>
      <use xlink:href="#TimesNewRomanPSMT-6f" transform="translate(694.189453 0)"/>
      <use xlink:href="#TimesNewRomanPSMT-6e" transform="translate(744.189453 0)"/>
      <use xlink:href="#TimesNewRomanPSMT-73" transform="translate(794.189453 0)"/>
     </g>
    </g>
   </g>
   <g id="matplotlib.axis_2">
    <g id="ytick_1">
     <g id="line2d_7">
      <path d="M 196.724063 311.6435 
L 553.844063 311.6435 
" clip-path="url(#p12f79859cf)" style="fill: none; stroke: #b0b0b0; stroke-opacity: 0.3; stroke-width: 0.8; stroke-linecap: square"/>
     </g>
     <g id="line2d_8">
      <defs>
       <path id="mf25eaed7e2" d="M 0 0 
L -3.5 0 
" style="stroke: #000000; stroke-width: 0.8"/>
      </defs>
      <g>
       <use xlink:href="#mf25eaed7e2" x="196.724063" y="311.6435" style="stroke: #000000; stroke-width: 0.8"/>
      </g>
     </g>
     <g id="text_5">
      <!-- 0.00 -->
      <g transform="translate(151.224063 319.281625) scale(0.22 -0.22)">
       <defs>
        <path id="TimesNewRomanPSMT-2e" d="M 800 606 
Q 947 606 1047 504 
Q 1147 403 1147 259 
Q 1147 116 1045 14 
Q 944 -88 800 -88 
Q 656 -88 554 14 
Q 453 116 453 259 
Q 453 406 554 506 
Q 656 606 800 606 
z
" transform="scale(0.015625)"/>
       </defs>
       <use xlink:href="#TimesNewRomanPSMT-30"/>
       <use xlink:href="#TimesNewRomanPSMT-2e" transform="translate(50 0)"/>
       <use xlink:href="#TimesNewRomanPSMT-30" transform="translate(75 0)"/>
       <use xlink:href="#TimesNewRomanPSMT-30" transform="translate(125 0)"/>
      </g>
     </g>
    </g>
    <g id="ytick_2">
     <g id="line2d_9">
      <path d="M 196.724063 264.549249 
L 553.844063 264.549249 
" clip-path="url(#p12f79859cf)" style="fill: none; stroke: #b0b0b0; stroke-opacity: 0.3; stroke-width: 0.8; stroke-linecap: square"/>
     </g>
     <g id="line2d_10">
      <g>
       <use xlink:href="#mf25eaed7e2" x="196.724063" y="264.549249" style="stroke: #000000; stroke-width: 0.8"/>
      </g>
     </g>
     <g id="text_6">
      <!-- 0.05 -->
      <g transform="translate(151.224063 272.187374) scale(0.22 -0.22)">
       <defs>
        <path id="TimesNewRomanPSMT-35" d="M 2778 4238 
L 2534 3706 
L 1259 3706 
L 981 3138 
Q 1809 3016 2294 2522 
Q 2709 2097 2709 1522 
Q 2709 1188 2573 903 
Q 2438 619 2231 419 
Q 2025 219 1772 97 
Q 1413 -75 1034 -75 
Q 653 -75 479 54 
Q 306 184 306 341 
Q 306 428 378 495 
Q 450 563 559 563 
Q 641 563 702 538 
Q 763 513 909 409 
Q 1144 247 1384 247 
Q 1750 247 2026 523 
Q 2303 800 2303 1197 
Q 2303 1581 2056 1914 
Q 1809 2247 1375 2428 
Q 1034 2569 447 2591 
L 1259 4238 
L 2778 4238 
z
" transform="scale(0.015625)"/>
       </defs>
       <use xlink:href="#TimesNewRomanPSMT-30"/>
       <use xlink:href="#TimesNewRomanPSMT-2e" transform="translate(50 0)"/>
       <use xlink:href="#TimesNewRomanPSMT-30" transform="translate(75 0)"/>
       <use xlink:href="#TimesNewRomanPSMT-35" transform="translate(125 0)"/>
      </g>
     </g>
    </g>
    <g id="ytick_3">
     <g id="line2d_11">
      <path d="M 196.724063 217.454998 
L 553.844063 217.454998 
" clip-path="url(#p12f79859cf)" style="fill: none; stroke: #b0b0b0; stroke-opacity: 0.3; stroke-width: 0.8; stroke-linecap: square"/>
     </g>
     <g id="line2d_12">
      <g>
       <use xlink:href="#mf25eaed7e2" x="196.724063" y="217.454998" style="stroke: #000000; stroke-width: 0.8"/>
      </g>
     </g>
     <g id="text_7">
      <!-- 0.10 -->
      <g transform="translate(151.224063 225.093123) scale(0.22 -0.22)">
       <defs>
        <path id="TimesNewRomanPSMT-31" d="M 750 3822 
L 1781 4325 
L 1884 4325 
L 1884 747 
Q 1884 391 1914 303 
Q 1944 216 2037 169 
Q 2131 122 2419 116 
L 2419 0 
L 825 0 
L 825 116 
Q 1125 122 1212 167 
Q 1300 213 1334 289 
Q 1369 366 1369 747 
L 1369 3034 
Q 1369 3497 1338 3628 
Q 1316 3728 1258 3775 
Q 1200 3822 1119 3822 
Q 1003 3822 797 3725 
L 750 3822 
z
" transform="scale(0.015625)"/>
       </defs>
       <use xlink:href="#TimesNewRomanPSMT-30"/>
       <use xlink:href="#TimesNewRomanPSMT-2e" transform="translate(50 0)"/>
       <use xlink:href="#TimesNewRomanPSMT-31" transform="translate(75 0)"/>
       <use xlink:href="#TimesNewRomanPSMT-30" transform="translate(125 0)"/>
      </g>
     </g>
    </g>
    <g id="ytick_4">
     <g id="line2d_13">
      <path d="M 196.724063 170.360747 
L 553.844063 170.360747 
" clip-path="url(#p12f79859cf)" style="fill: none; stroke: #b0b0b0; stroke-opacity: 0.3; stroke-width: 0.8; stroke-linecap: square"/>
     </g>
     <g id="line2d_14">
      <g>
       <use xlink:href="#mf25eaed7e2" x="196.724063" y="170.360747" style="stroke: #000000; stroke-width: 0.8"/>
      </g>
     </g>
     <g id="text_8">
      <!-- 0.15 -->
      <g transform="translate(151.224063 177.998872) scale(0.22 -0.22)">
       <use xlink:href="#TimesNewRomanPSMT-30"/>
       <use xlink:href="#TimesNewRomanPSMT-2e" transform="translate(50 0)"/>
       <use xlink:href="#TimesNewRomanPSMT-31" transform="translate(75 0)"/>
       <use xlink:href="#TimesNewRomanPSMT-35" transform="translate(125 0)"/>
      </g>
     </g>
    </g>
    <g id="ytick_5">
     <g id="line2d_15">
      <path d="M 196.724063 123.266496 
L 553.844063 123.266496 
" clip-path="url(#p12f79859cf)" style="fill: none; stroke: #b0b0b0; stroke-opacity: 0.3; stroke-width: 0.8; stroke-linecap: square"/>
     </g>
     <g id="line2d_16">
      <g>
       <use xlink:href="#mf25eaed7e2" x="196.724063" y="123.266496" style="stroke: #000000; stroke-width: 0.8"/>
      </g>
     </g>
     <g id="text_9">
      <!-- 0.20 -->
      <g transform="translate(151.224063 130.904621) scale(0.22 -0.22)">
       <use xlink:href="#TimesNewRomanPSMT-30"/>
       <use xlink:href="#TimesNewRomanPSMT-2e" transform="translate(50 0)"/>
       <use xlink:href="#TimesNewRomanPSMT-32" transform="translate(75 0)"/>
       <use xlink:href="#TimesNewRomanPSMT-30" transform="translate(125 0)"/>
      </g>
     </g>
    </g>
    <g id="ytick_6">
     <g id="line2d_17">
      <path d="M 196.724063 76.172245 
L 553.844063 76.172245 
" clip-path="url(#p12f79859cf)" style="fill: none; stroke: #b0b0b0; stroke-opacity: 0.3; stroke-width: 0.8; stroke-linecap: square"/>
     </g>
     <g id="line2d_18">
      <g>
       <use xlink:href="#mf25eaed7e2" x="196.724063" y="76.172245" style="stroke: #000000; stroke-width: 0.8"/>
      </g>
     </g>
     <g id="text_10">
      <!-- 0.25 -->
      <g transform="translate(151.224063 83.81037) scale(0.22 -0.22)">
       <use xlink:href="#TimesNewRomanPSMT-30"/>
       <use xlink:href="#TimesNewRomanPSMT-2e" transform="translate(50 0)"/>
       <use xlink:href="#TimesNewRomanPSMT-32" transform="translate(75 0)"/>
       <use xlink:href="#TimesNewRomanPSMT-35" transform="translate(125 0)"/>
      </g>
     </g>
    </g>
    <g id="text_11">
     <!-- Loss -->
     <g transform="translate(142.518125 199.368906) rotate(-90) scale(0.22 -0.22)">
      <defs>
       <path id="TimesNewRomanPSMT-4c" d="M 3669 1172 
L 3772 1150 
L 3409 0 
L 128 0 
L 128 116 
L 288 116 
Q 556 116 672 291 
Q 738 391 738 753 
L 738 3488 
Q 738 3884 650 3984 
Q 528 4122 288 4122 
L 128 4122 
L 128 4238 
L 2047 4238 
L 2047 4122 
Q 1709 4125 1573 4059 
Q 1438 3994 1388 3894 
Q 1338 3794 1338 3416 
L 1338 753 
Q 1338 494 1388 397 
Q 1425 331 1503 300 
Q 1581 269 1991 269 
L 2300 269 
Q 2788 269 2984 341 
Q 3181 413 3343 595 
Q 3506 778 3669 1172 
z
" transform="scale(0.015625)"/>
      </defs>
      <use xlink:href="#TimesNewRomanPSMT-4c"/>
      <use xlink:href="#TimesNewRomanPSMT-6f" transform="translate(61.083984 0)"/>
      <use xlink:href="#TimesNewRomanPSMT-73" transform="translate(111.083984 0)"/>
      <use xlink:href="#TimesNewRomanPSMT-73" transform="translate(150 0)"/>
     </g>
    </g>
   </g>
   <g id="line2d_19">
    <path d="M 196.724063 54.95035 
L 197.394081 109.154119 
L 198.0641 133.601832 
L 198.734119 150.505831 
L 199.404138 160.957549 
L 200.074156 168.401963 
L 200.744175 161.213214 
L 201.414194 170.156754 
L 202.084213 175.225223 
L 202.754231 175.64065 
L 203.42425 177.677548 
L 204.094269 190.017741 
L 204.764288 183.768255 
L 205.434306 183.339606 
L 206.104325 184.451768 
L 206.774344 186.595838 
L 207.444363 188.322713 
L 208.114381 191.949488 
L 208.7844 193.381385 
L 209.454419 185.748506 
L 210.124438 202.843089 
L 210.794456 189.901123 
L 211.464475 194.186997 
L 212.134494 194.850594 
L 213.474532 192.651499 
L 214.14455 200.749574 
L 214.814569 199.068363 
L 215.484588 202.419985 
L 216.154607 203.406202 
L 216.824625 200.35621 
L 217.494644 194.444536 
L 218.164663 205.27926 
L 218.834682 202.271612 
L 219.5047 210.576081 
L 220.174719 203.451227 
L 220.844738 217.128924 
L 221.514757 211.008898 
L 222.184775 207.927067 
L 222.854794 209.617429 
L 223.524813 203.901258 
L 224.194832 209.556965 
L 224.86485 211.049593 
L 225.534869 210.695113 
L 226.204888 214.173508 
L 226.874907 214.125817 
L 227.544926 213.042995 
L 228.214944 212.497385 
L 228.884963 222.24573 
L 230.225001 215.228392 
L 230.895019 224.72781 
L 231.565038 217.31155 
L 232.235057 216.46739 
L 232.905076 215.320014 
L 233.575094 222.282635 
L 234.245113 222.933068 
L 234.915132 215.92225 
L 235.585151 224.430327 
L 236.255169 219.723503 
L 236.925188 228.676313 
L 237.595207 220.347065 
L 238.265226 219.161134 
L 238.935244 225.595829 
L 239.605263 221.582876 
L 240.275282 234.07324 
L 240.945301 223.290909 
L 241.61532 232.004075 
L 242.285338 228.442739 
L 242.955357 228.476066 
L 243.625376 237.80631 
L 244.295395 226.760019 
L 244.965413 239.197786 
L 245.635432 227.476768 
L 246.305451 234.609482 
L 246.97547 235.255648 
L 247.645488 242.089068 
L 248.315507 239.258397 
L 248.985526 233.722115 
L 249.655545 238.898598 
L 250.325563 236.320693 
L 250.995582 244.630039 
L 251.665601 240.199673 
L 252.33562 242.592791 
L 253.005638 244.14372 
L 253.675657 237.418069 
L 254.345676 242.683844 
L 255.015695 242.734476 
L 255.685714 240.294291 
L 256.355732 248.037844 
L 257.025751 245.308051 
L 257.69577 250.106721 
L 258.365789 247.592298 
L 259.035807 250.368 
L 259.705826 248.681056 
L 260.375845 252.85136 
L 261.045864 253.43427 
L 261.715882 257.109518 
L 262.385901 248.129122 
L 263.05592 255.286299 
L 263.725939 255.258289 
L 264.395957 248.600178 
L 265.065976 255.322121 
L 265.735995 251.959056 
L 266.406014 259.155413 
L 267.076032 259.766368 
L 267.746051 254.481747 
L 268.41607 259.874891 
L 269.086089 257.29453 
L 269.756108 258.56004 
L 270.426126 257.928906 
L 271.096145 260.10517 
L 272.436183 261.521446 
L 273.106201 260.114201 
L 273.77622 266.176463 
L 274.446239 261.195773 
L 275.116258 259.462902 
L 276.456295 264.693737 
L 277.126314 268.971137 
L 278.466351 265.270039 
L 279.13637 263.05348 
L 279.806389 267.714543 
L 280.476408 262.944996 
L 281.146426 267.895435 
L 281.816445 264.784699 
L 282.486464 267.278536 
L 283.156483 271.877395 
L 283.826502 266.742445 
L 284.49652 273.788162 
L 285.166539 271.860935 
L 285.836558 266.150143 
L 287.176595 272.406767 
L 287.846614 274.229772 
L 288.516633 270.800549 
L 289.186652 277.27961 
L 289.85667 273.252716 
L 290.526689 271.533558 
L 291.196708 272.487967 
L 291.866727 277.561492 
L 292.536745 280.490964 
L 293.876783 275.992278 
L 294.546802 276.321958 
L 295.21682 279.880915 
L 295.886839 277.568285 
L 296.556858 280.828261 
L 297.226877 277.710998 
L 297.896896 281.567357 
L 298.566914 280.464968 
L 299.906952 279.017418 
L 300.576971 276.084672 
L 301.246989 278.86728 
L 301.917008 280.889528 
L 302.587027 279.623141 
L 303.257046 280.275924 
L 303.927064 286.501878 
L 304.597083 280.894079 
L 305.267102 281.326398 
L 305.937121 279.939718 
L 306.607139 283.192 
L 307.277158 282.645198 
L 307.947177 281.673772 
L 308.617196 286.802832 
L 309.287214 283.389211 
L 309.957233 285.525122 
L 310.627252 284.697239 
L 311.297271 285.787071 
L 311.96729 288.41659 
L 312.637308 285.646732 
L 313.307327 282.049782 
L 313.977346 289.909656 
L 314.647365 291.208212 
L 315.317383 289.327003 
L 315.987402 283.456338 
L 316.657421 289.843045 
L 317.32744 285.706037 
L 317.997458 287.962863 
L 318.667477 289.554487 
L 319.337496 289.346963 
L 320.007515 288.372083 
L 320.677533 289.415058 
L 321.347552 293.531059 
L 322.017571 290.575898 
L 322.68759 290.488246 
L 323.357608 287.98567 
L 324.027627 293.339104 
L 324.697646 288.906857 
L 325.367665 297.007337 
L 326.037684 291.855306 
L 326.707702 289.810612 
L 327.377721 291.860029 
L 328.717759 293.855758 
L 329.387777 287.721501 
L 330.727815 293.522961 
L 331.397834 296.913522 
L 332.067852 291.068825 
L 332.737871 296.5591 
L 333.40789 294.643505 
L 334.077909 293.337372 
L 334.747927 293.356484 
L 335.417946 295.208349 
L 336.087965 294.406679 
L 336.757984 294.34618 
L 337.428002 293.873984 
L 338.098021 296.633338 
L 338.76804 296.928533 
L 339.438059 295.218212 
L 340.108078 297.412498 
L 340.778096 296.138159 
L 342.118134 292.280209 
L 342.788153 298.046129 
L 343.458171 295.172693 
L 344.12819 297.697391 
L 344.798209 296.494716 
L 345.468228 297.038715 
L 346.808265 295.124722 
L 348.148303 299.545226 
L 348.818321 295.965312 
L 349.48834 300.140791 
L 350.158359 297.033131 
L 350.828378 294.579128 
L 351.498396 294.867949 
L 352.168415 300.632995 
L 352.838434 294.783531 
L 353.508453 295.85831 
L 354.178472 295.9174 
L 354.84849 299.13701 
L 355.518509 296.676455 
L 356.188528 298.919567 
L 356.858547 297.898862 
L 357.528565 299.163514 
L 358.198584 300.140345 
L 358.868603 299.885734 
L 359.538622 301.090982 
L 360.20864 300.305125 
L 360.878659 301.213424 
L 361.548678 300.304557 
L 362.218697 299.635257 
L 362.888715 299.358621 
L 363.558734 296.292162 
L 364.228753 297.845984 
L 364.898772 298.578713 
L 365.56879 300.024191 
L 366.238809 298.045112 
L 366.908828 302.776124 
L 367.578847 297.040833 
L 368.248866 303.123924 
L 368.918884 299.533573 
L 369.588903 300.574136 
L 370.258922 301.381709 
L 370.928941 296.977778 
L 371.598959 303.391648 
L 372.268978 301.892566 
L 372.938997 301.360591 
L 373.609016 303.31759 
L 374.279034 299.769269 
L 374.949053 299.158734 
L 375.619072 302.092336 
L 376.289091 300.855241 
L 376.959109 302.682859 
L 377.629128 299.743006 
L 378.299147 301.331213 
L 378.969166 299.252565 
L 379.639184 304.039862 
L 380.309203 300.671741 
L 380.979222 301.246664 
L 381.649241 300.354961 
L 382.319259 301.090591 
L 382.989278 300.122038 
L 383.659297 300.077439 
L 384.329316 302.767961 
L 384.999335 300.54332 
L 385.669353 299.013123 
L 386.339372 302.084976 
L 387.009391 303.402669 
L 387.67941 302.718527 
L 388.349428 299.755323 
L 389.019447 300.956167 
L 389.689466 301.177152 
L 390.359485 303.030161 
L 391.029503 303.290013 
L 391.699522 302.767779 
L 392.369541 303.77057 
L 393.03956 296.191928 
L 393.709578 302.983966 
L 394.379597 303.284521 
L 395.049616 299.613374 
L 395.719635 303.235693 
L 396.389653 298.956863 
L 397.059672 299.184794 
L 397.729691 303.100095 
L 398.39971 303.48682 
L 399.069729 305.125336 
L 399.739747 303.940857 
L 400.409766 302.392596 
L 401.079785 299.328661 
L 401.749804 303.85669 
L 402.419822 302.080739 
L 403.089841 301.908615 
L 403.75986 305.807702 
L 404.429879 304.500914 
L 405.099897 298.820785 
L 405.769916 303.022386 
L 406.439935 304.777569 
L 407.109954 304.547569 
L 407.779972 303.974516 
L 408.449991 299.731697 
L 409.12001 303.682026 
L 410.460047 300.727894 
L 411.130066 301.6755 
L 411.800085 304.879569 
L 412.470104 305.016427 
L 413.140123 303.5629 
L 413.810141 303.978592 
L 414.48016 297.822195 
L 415.150179 303.972512 
L 415.820198 303.856933 
L 416.490216 305.190376 
L 417.160235 306.043168 
L 417.830254 302.616769 
L 418.500273 305.916363 
L 419.170291 304.023885 
L 420.510329 304.812922 
L 421.180348 302.513858 
L 421.850366 307.235441 
L 422.520385 303.864126 
L 423.190404 307.269723 
L 423.860423 305.384691 
L 424.530441 302.118828 
L 425.20046 301.264913 
L 425.870479 302.550312 
L 426.540498 305.757193 
L 427.210517 305.647745 
L 427.880535 303.397035 
L 429.220573 299.975588 
L 429.890592 305.216357 
L 430.56061 304.207113 
L 431.230629 303.511421 
L 431.900648 304.850636 
L 432.570667 306.612104 
L 433.240685 301.005867 
L 433.910704 306.272675 
L 434.580723 303.44957 
L 435.250742 305.481216 
L 435.92076 303.985298 
L 436.590779 306.274849 
L 437.930817 303.422255 
L 438.600835 299.741013 
L 439.270854 306.335496 
L 439.940873 301.563625 
L 440.610892 305.034542 
L 441.280911 305.080043 
L 442.620948 306.036381 
L 443.290967 304.025216 
L 443.960986 304.01805 
L 444.631004 303.241427 
L 445.301023 302.67438 
L 445.971042 303.215043 
L 446.641061 303.20746 
L 447.311079 302.269661 
L 447.981098 303.67973 
L 448.651117 304.550163 
L 449.321136 302.293381 
L 449.991154 305.547568 
L 450.661173 302.77741 
L 451.331192 303.127182 
L 452.001211 305.158551 
L 452.671229 304.266606 
L 453.341248 307.54656 
L 454.011267 307.073723 
L 454.681286 301.881289 
L 455.351305 305.630859 
L 456.021323 303.762617 
L 456.691342 305.104339 
L 457.361361 305.653021 
L 458.03138 301.862809 
L 458.701398 306.549954 
L 459.371417 302.835453 
L 460.041436 304.738461 
L 460.711455 305.219173 
L 461.381473 307.620308 
L 462.051492 301.901819 
L 462.721511 304.204645 
L 463.39153 304.743694 
L 464.061548 303.335854 
L 464.731567 303.760105 
L 465.401586 305.765899 
L 466.071605 306.172868 
L 466.741623 304.39373 
L 467.411642 305.695521 
L 468.081661 305.659183 
L 468.75168 306.201659 
L 469.421699 305.649222 
L 470.091717 304.309666 
L 470.761736 306.689495 
L 471.431755 306.19182 
L 472.101774 305.451152 
L 472.771792 303.76953 
L 473.441811 304.722022 
L 474.11183 307.61411 
L 474.781849 303.834313 
L 475.451867 304.119521 
L 476.121886 303.393889 
L 476.791905 305.233191 
L 477.461924 305.782498 
L 478.131942 304.296678 
L 478.801961 303.351691 
L 479.47198 304.80385 
L 480.141999 305.307425 
L 480.812017 306.751295 
L 481.482036 305.271946 
L 482.152055 302.920089 
L 482.822074 306.74185 
L 483.492093 302.489976 
L 484.162111 303.446319 
L 484.83213 305.792896 
L 485.502149 307.689989 
L 486.172168 305.336346 
L 486.842186 305.337825 
L 487.512205 307.155761 
L 488.182224 308.159768 
L 488.852243 304.872564 
L 489.522261 304.869036 
L 490.19228 306.265664 
L 490.862299 305.792217 
L 491.532318 302.957828 
L 492.202336 305.82522 
L 492.872355 304.880285 
L 493.542374 308.66625 
L 494.212393 304.427672 
L 494.882411 306.30264 
L 495.55243 303.005691 
L 496.222449 305.829767 
L 496.892468 305.845458 
L 497.562487 303.980719 
L 498.232505 307.277298 
L 498.902524 305.853708 
L 499.572543 305.375265 
L 500.242562 304.450605 
L 500.91258 303.936328 
L 501.582599 307.179281 
L 502.252618 304.453239 
L 502.922637 306.315792 
L 503.592655 308.663448 
L 504.262674 304.901473 
L 504.932693 304.438016 
L 505.602712 307.725876 
L 506.27273 305.361122 
L 506.942749 306.325842 
L 507.612768 305.390547 
L 508.282787 303.475778 
L 508.952805 303.47065 
L 509.622824 306.795591 
L 510.292843 304.922554 
L 510.962862 307.699356 
L 511.632881 303.5137 
L 512.302899 303.501327 
L 512.972918 306.34435 
L 513.642937 303.036332 
L 514.312956 305.400017 
L 514.982974 305.861223 
L 515.652993 303.043295 
L 516.323012 306.816771 
L 516.993031 306.333498 
L 517.663049 303.539589 
L 518.333068 304.466419 
L 519.003087 304.026467 
L 519.673106 305.884264 
L 520.343124 303.074553 
L 521.013143 301.657409 
L 521.683162 304.481087 
L 522.353181 301.836647 
L 523.023199 303.512962 
L 523.693218 303.969214 
L 524.363237 305.392907 
L 525.033256 305.892769 
L 525.703275 305.893058 
L 526.373293 306.3814 
L 527.043312 305.435653 
L 527.713331 303.540344 
L 528.38335 303.080872 
L 529.723387 306.84176 
L 531.063425 304.022509 
L 531.733443 304.966806 
L 532.403462 301.660043 
L 533.073481 305.908673 
L 533.7435 304.965592 
L 534.413518 305.905809 
L 535.083537 304.954446 
L 535.753556 305.431935 
L 536.423575 307.320175 
L 537.093593 304.49064 
L 537.763612 303.549545 
L 538.433631 302.131296 
L 539.10365 304.953857 
L 539.773669 306.423159 
L 540.443687 303.050554 
L 541.783725 304.949765 
L 542.453744 302.137453 
L 543.123762 304.973083 
L 543.793781 306.850796 
L 544.4638 306.861519 
L 545.133819 304.028398 
L 546.473856 303.100974 
L 547.143875 305.447593 
L 547.813894 305.456942 
L 548.483912 304.50892 
L 549.153931 304.984295 
L 549.82395 306.400989 
L 550.493969 304.030303 
L 551.163987 302.632134 
L 551.834006 304.509875 
L 552.504025 305.457439 
L 553.174044 305.465322 
L 553.844063 306.871253 
L 553.844063 306.871253 
" clip-path="url(#p12f79859cf)" style="fill: none; stroke: #ffa500; stroke-width: 1.5; stroke-linecap: square"/>
   </g>
   <g id="line2d_20">
    <path d="M 196.724063 66.272109 
L 197.394081 114.323023 
L 198.0641 139.447063 
L 198.734119 152.287064 
L 199.404138 159.252121 
L 200.744175 166.718163 
L 202.084213 170.829165 
L 202.754231 172.267631 
L 203.42425 172.90692 
L 204.094269 174.941852 
L 204.764288 175.903922 
L 205.434306 177.673618 
L 206.104325 178.49796 
L 207.444363 179.551749 
L 208.114381 180.889372 
L 208.7844 181.484492 
L 209.454419 181.889968 
L 210.124438 180.95698 
L 210.794456 183.51026 
L 211.464475 184.111036 
L 212.134494 182.510857 
L 212.804513 185.101667 
L 213.474532 185.23312 
L 214.14455 184.766858 
L 214.814569 186.176158 
L 215.484588 186.348622 
L 216.154607 186.85817 
L 216.824625 187.712772 
L 217.494644 187.560771 
L 218.164663 188.384846 
L 218.834682 188.320664 
L 219.5047 189.288852 
L 220.174719 189.876997 
L 220.844738 190.251118 
L 221.514757 189.904464 
L 222.184775 190.546699 
L 222.854794 190.930155 
L 223.524813 191.544573 
L 224.194832 191.611057 
L 224.86485 191.192444 
L 225.534869 190.26114 
L 226.204888 192.509926 
L 226.874907 190.894646 
L 227.544926 190.988246 
L 228.214944 193.248401 
L 229.554982 193.316739 
L 230.225001 192.501856 
L 230.895019 193.817472 
L 231.565038 194.176702 
L 232.235057 194.802812 
L 232.905076 195.152246 
L 233.575094 194.598158 
L 234.245113 194.898735 
L 234.915132 194.660305 
L 235.585151 194.049866 
L 236.255169 194.858209 
L 236.925188 196.109831 
L 237.595207 194.233159 
L 238.265226 193.411897 
L 238.935244 195.950307 
L 239.605263 195.143621 
L 240.275282 190.343891 
L 240.945301 196.143663 
L 241.61532 196.376085 
L 242.285338 196.008055 
L 242.955357 196.894236 
L 243.625376 195.540606 
L 244.295395 196.345727 
L 244.965413 196.857176 
L 245.635432 196.505848 
L 246.305451 195.101438 
L 247.645488 195.913387 
L 248.315507 196.627961 
L 248.985526 195.869219 
L 249.655545 196.669764 
L 250.325563 195.184498 
L 250.995582 192.101853 
L 251.665601 189.745431 
L 252.33562 191.019095 
L 253.005638 190.442839 
L 253.675657 197.077444 
L 254.345676 196.561062 
L 255.015695 196.428373 
L 255.685714 196.568164 
L 256.355732 196.109592 
L 257.69577 196.12687 
L 258.365789 195.32944 
L 259.035807 195.238667 
L 259.705826 195.833527 
L 260.375845 194.759794 
L 261.045864 195.341075 
L 261.715882 195.448241 
L 262.385901 195.741611 
L 263.05592 194.183292 
L 263.725939 194.84658 
L 265.065976 195.432661 
L 265.735995 195.531638 
L 266.406014 194.981409 
L 267.076032 193.305665 
L 268.41607 194.59707 
L 269.086089 194.409328 
L 269.756108 194.949458 
L 271.096145 194.26518 
L 271.766164 194.324387 
L 272.436183 193.920188 
L 273.106201 194.578866 
L 273.77622 190.396551 
L 274.446239 194.241306 
L 275.116258 194.297952 
L 275.786276 193.39455 
L 276.456295 193.227461 
L 277.126314 190.391695 
L 277.796333 193.41396 
L 278.466351 191.798315 
L 279.13637 193.919283 
L 280.476408 193.070197 
L 281.146426 190.550657 
L 281.816445 192.608243 
L 282.486464 193.075783 
L 283.156483 192.744749 
L 283.826502 191.665879 
L 284.49652 192.397771 
L 285.166539 191.748097 
L 285.836558 191.274592 
L 286.506577 192.061502 
L 287.176595 189.512012 
L 287.846614 190.852161 
L 288.516633 189.753305 
L 289.186652 183.874304 
L 289.85667 189.561598 
L 290.526689 189.819452 
L 291.196708 190.507022 
L 291.866727 190.786547 
L 292.536745 187.738077 
L 293.206764 189.925502 
L 293.876783 190.152367 
L 294.546802 189.714862 
L 295.21682 189.497415 
L 295.886839 189.682216 
L 296.556858 187.579774 
L 297.226877 189.507675 
L 297.896896 188.958254 
L 298.566914 185.246117 
L 299.236933 189.099742 
L 299.906952 187.783116 
L 300.576971 188.673915 
L 301.246989 188.533984 
L 301.917008 187.908366 
L 302.587027 187.817685 
L 303.257046 187.48136 
L 303.927064 187.569922 
L 304.597083 187.928928 
L 305.267102 185.934304 
L 305.937121 187.20053 
L 306.607139 187.031869 
L 307.277158 186.551922 
L 307.947177 186.888682 
L 308.617196 186.112817 
L 309.287214 185.975652 
L 309.957233 185.674302 
L 310.627252 185.656646 
L 311.297271 185.766808 
L 312.637308 184.902367 
L 313.307327 186.046852 
L 313.977346 184.575923 
L 314.647365 185.557347 
L 315.317383 184.925118 
L 315.987402 182.659924 
L 316.657421 184.362925 
L 317.32744 184.328469 
L 317.997458 183.122931 
L 319.337496 183.106987 
L 320.007515 183.832508 
L 320.677533 183.471579 
L 321.347552 182.164609 
L 322.017571 183.259549 
L 323.357608 183.425038 
L 324.027627 182.025197 
L 324.697646 183.52393 
L 325.367665 181.186188 
L 326.037684 182.854606 
L 326.707702 181.449432 
L 327.377721 182.229241 
L 328.04774 181.857659 
L 329.387777 181.52765 
L 330.057796 180.884685 
L 330.727815 180.631714 
L 331.397834 181.214946 
L 332.067852 180.981527 
L 332.737871 181.00331 
L 333.40789 180.034897 
L 334.747927 180.27014 
L 335.417946 179.975991 
L 336.087965 179.532858 
L 336.757984 180.229494 
L 337.428002 179.836986 
L 338.76804 178.582115 
L 339.438059 178.905247 
L 340.108078 178.278281 
L 340.778096 179.727105 
L 341.448115 178.182954 
L 342.118134 178.044175 
L 342.788153 178.726242 
L 343.458171 178.589876 
L 344.12819 177.76371 
L 344.798209 177.894939 
L 345.468228 177.45095 
L 346.138246 176.588923 
L 346.808265 177.854152 
L 347.478284 176.699057 
L 348.818321 176.889781 
L 349.48834 176.672067 
L 350.158359 176.944125 
L 350.828378 175.614643 
L 351.498396 176.553821 
L 352.168415 175.694433 
L 352.838434 175.996273 
L 353.508453 175.366038 
L 354.178472 175.563442 
L 354.84849 175.922813 
L 355.518509 175.934883 
L 356.188528 173.604889 
L 356.858547 174.294536 
L 357.528565 174.056036 
L 358.198584 174.304346 
L 358.868603 175.507007 
L 359.538622 174.831522 
L 360.20864 174.624741 
L 360.878659 174.224458 
L 361.548678 174.447435 
L 362.218697 172.375239 
L 362.888715 174.037243 
L 363.558734 171.470012 
L 364.228753 173.363751 
L 364.898772 174.170044 
L 365.56879 172.971495 
L 366.238809 174.410256 
L 366.908828 173.28608 
L 367.578847 172.984085 
L 368.248866 173.570826 
L 368.918884 172.349007 
L 369.588903 173.129925 
L 370.258922 173.291413 
L 370.928941 172.588644 
L 371.598959 172.436292 
L 372.268978 171.631655 
L 372.938997 172.916225 
L 373.609016 172.651044 
L 374.279034 172.877053 
L 374.949053 172.220108 
L 375.619072 170.372994 
L 376.289091 172.010745 
L 376.959109 172.125104 
L 377.629128 172.366228 
L 378.299147 171.02556 
L 378.969166 171.378123 
L 379.639184 172.223476 
L 380.309203 171.423148 
L 380.979222 172.361555 
L 381.649241 171.435485 
L 382.319259 171.396257 
L 382.989278 171.514307 
L 383.659297 170.058648 
L 384.329316 170.874429 
L 384.999335 170.513135 
L 385.669353 171.097308 
L 386.339372 170.683859 
L 387.009391 170.848295 
L 387.67941 170.444307 
L 388.349428 170.670203 
L 389.019447 170.062017 
L 389.689466 170.275576 
L 390.359485 170.114634 
L 391.029503 169.546855 
L 391.699522 170.028136 
L 392.369541 170.178845 
L 393.03956 169.88704 
L 393.709578 169.075428 
L 394.379597 169.130909 
L 395.049616 169.584806 
L 395.719635 169.518013 
L 396.389653 169.112031 
L 397.059672 169.133954 
L 397.729691 168.560701 
L 398.39971 168.878612 
L 399.069729 168.366819 
L 399.739747 169.515669 
L 400.409766 167.085969 
L 401.079785 168.547803 
L 401.749804 168.563943 
L 402.419822 168.873153 
L 403.089841 168.059238 
L 403.75986 168.23632 
L 404.429879 168.608337 
L 405.099897 168.003406 
L 405.769916 168.589782 
L 407.109954 168.118046 
L 407.779972 167.577369 
L 408.449991 168.386384 
L 409.12001 167.953932 
L 409.790029 168.744646 
L 410.460047 167.931743 
L 411.130066 167.497621 
L 411.800085 167.694562 
L 412.470104 167.670674 
L 413.810141 168.347465 
L 414.48016 167.741243 
L 415.150179 167.958718 
L 415.820198 167.986831 
L 416.490216 166.886669 
L 417.160235 167.11905 
L 417.830254 167.032102 
L 418.500273 167.060818 
L 419.170291 167.252637 
L 419.84031 166.568688 
L 420.510329 167.18604 
L 421.180348 166.751609 
L 421.850366 166.78709 
L 422.520385 166.395073 
L 423.190404 167.184426 
L 423.860423 165.922677 
L 424.530441 166.449487 
L 425.870479 166.467045 
L 426.540498 165.681945 
L 427.210517 165.70857 
L 427.880535 166.054397 
L 428.550554 166.22011 
L 429.890592 164.973829 
L 430.56061 166.823188 
L 431.230629 165.970509 
L 431.900648 165.944221 
L 432.570667 165.225213 
L 433.240685 165.469748 
L 433.910704 165.569776 
L 435.250742 165.36287 
L 435.92076 164.917435 
L 437.260798 165.364428 
L 437.930817 165.005871 
L 438.600835 165.251051 
L 439.270854 165.746956 
L 439.940873 164.323663 
L 440.610892 164.797252 
L 441.280911 165.450126 
L 442.620948 165.002867 
L 443.290967 164.603721 
L 444.631004 164.980144 
L 445.301023 164.638177 
L 446.641061 164.396856 
L 447.311079 163.990004 
L 447.981098 164.248757 
L 448.651117 164.240069 
L 449.321136 163.938004 
L 449.991154 164.750992 
L 450.661173 164.017906 
L 451.331192 164.150679 
L 452.001211 163.538465 
L 452.671229 164.07284 
L 453.341248 164.208083 
L 454.011267 163.920432 
L 454.681286 164.207606 
L 455.351305 163.692992 
L 456.021323 163.995155 
L 456.691342 164.446022 
L 457.361361 163.861147 
L 458.03138 164.325515 
L 459.371417 163.262603 
L 460.041436 164.496071 
L 460.711455 163.907183 
L 462.051492 163.563924 
L 462.721511 163.546507 
L 463.39153 163.348737 
L 464.061548 163.822593 
L 464.731567 163.710087 
L 465.401586 163.167852 
L 466.071605 163.375278 
L 466.741623 162.530009 
L 467.411642 162.736845 
L 468.081661 163.300344 
L 468.75168 163.209803 
L 469.421699 162.395075 
L 470.091717 163.659672 
L 470.761736 162.669252 
L 471.431755 163.055079 
L 472.101774 162.734824 
L 472.771792 162.960875 
L 473.441811 162.998363 
L 474.11183 162.733996 
L 476.121886 162.521489 
L 476.791905 163.018447 
L 478.131942 162.610374 
L 478.801961 162.13475 
L 479.47198 161.490858 
L 480.141999 162.346625 
L 480.812017 162.035634 
L 481.482036 161.407222 
L 482.152055 161.872362 
L 482.822074 161.586999 
L 484.162111 162.23454 
L 484.83213 161.858215 
L 485.502149 162.170582 
L 486.172168 162.031142 
L 486.842186 161.57281 
L 487.512205 162.039367 
L 488.182224 161.713007 
L 488.852243 161.973037 
L 489.522261 161.136835 
L 490.19228 161.854046 
L 490.862299 161.50763 
L 491.532318 161.751534 
L 492.202336 161.823969 
L 493.542374 161.323376 
L 494.212393 161.721625 
L 494.882411 161.225397 
L 495.55243 161.68853 
L 496.222449 161.41358 
L 496.892468 161.62794 
L 497.562487 161.629077 
L 498.232505 161.01108 
L 498.902524 161.35845 
L 499.572543 161.323952 
L 500.242562 160.811008 
L 500.91258 161.368345 
L 501.582599 160.143172 
L 502.922637 160.707835 
L 503.592655 160.489153 
L 504.262674 159.990511 
L 504.932693 160.646839 
L 505.602712 160.469223 
L 506.27273 160.701421 
L 506.942749 160.391244 
L 507.612768 161.014364 
L 508.282787 159.988982 
L 508.952805 159.805247 
L 509.622824 160.637477 
L 510.292843 160.604158 
L 510.962862 160.109754 
L 512.302899 160.457672 
L 513.642937 160.736271 
L 514.312956 160.451974 
L 514.982974 159.872953 
L 515.652993 160.354163 
L 516.323012 160.029248 
L 517.663049 160.67714 
L 518.333068 159.903872 
L 519.003087 160.085193 
L 519.673106 160.518248 
L 520.343124 159.973164 
L 521.013143 160.006876 
L 521.683162 160.307173 
L 523.023199 159.683253 
L 523.693218 160.912581 
L 524.363237 160.244408 
L 525.033256 160.066301 
L 525.703275 160.104295 
L 526.373293 160.281671 
L 527.713331 159.763548 
L 528.38335 159.714608 
L 529.053368 159.832531 
L 529.723387 160.256731 
L 530.393406 160.161291 
L 531.063425 160.186499 
L 533.073481 159.790328 
L 534.413518 160.476101 
L 535.083537 160.223594 
L 535.753556 159.739548 
L 536.423575 159.934469 
L 537.093593 159.959395 
L 537.763612 159.806538 
L 538.433631 160.099789 
L 539.10365 159.914034 
L 539.773669 159.403686 
L 540.443687 159.300149 
L 541.113706 159.68926 
L 541.783725 159.887255 
L 542.453744 159.351869 
L 543.123762 159.532824 
L 543.793781 159.303461 
L 544.4638 159.5846 
L 545.133819 159.387911 
L 545.803837 158.870686 
L 546.473856 159.502859 
L 547.813894 159.364697 
L 548.483912 159.576614 
L 549.153931 159.111923 
L 550.493969 159.443013 
L 551.163987 159.0324 
L 551.834006 159.107081 
L 552.504025 159.304331 
L 553.844063 158.923557 
L 553.844063 158.923557 
" clip-path="url(#p12f79859cf)" style="fill: none; stroke: #008000; stroke-width: 1.5; stroke-linecap: square"/>
   </g>
   <g id="patch_3">
    <path d="M 196.724063 311.6435 
L 196.724063 45.5315 
" style="fill: none; stroke: #000000; stroke-width: 0.8; stroke-linejoin: miter; stroke-linecap: square"/>
   </g>
   <g id="patch_4">
    <path d="M 553.844063 311.6435 
L 553.844063 45.5315 
" style="fill: none; stroke: #000000; stroke-width: 0.8; stroke-linejoin: miter; stroke-linecap: square"/>
   </g>
   <g id="patch_5">
    <path d="M 196.724063 311.6435 
L 553.844063 311.6435 
" style="fill: none; stroke: #000000; stroke-width: 0.8; stroke-linejoin: miter; stroke-linecap: square"/>
   </g>
   <g id="patch_6">
    <path d="M 196.724063 45.5315 
L 553.844063 45.5315 
" style="fill: none; stroke: #000000; stroke-width: 0.8; stroke-linejoin: miter; stroke-linecap: square"/>
   </g>
   <g id="text_12">
    <!-- Loss of the 21_05_25_CIFAR10_torch_model_(1024+512.5+1)_ctpb -->
    <g transform="translate(7.2 25.5315) scale(0.264 -0.264)">
     <defs>
      <path id="TimesNewRomanPSMT-68" d="M 1041 4444 
L 1041 2350 
Q 1388 2731 1591 2839 
Q 1794 2947 1997 2947 
Q 2241 2947 2416 2812 
Q 2591 2678 2675 2391 
Q 2734 2191 2734 1659 
L 2734 647 
Q 2734 375 2778 275 
Q 2809 200 2884 156 
Q 2959 113 3159 113 
L 3159 0 
L 1753 0 
L 1753 113 
L 1819 113 
Q 2019 113 2097 173 
Q 2175 234 2206 353 
Q 2216 403 2216 647 
L 2216 1659 
Q 2216 2128 2167 2275 
Q 2119 2422 2012 2495 
Q 1906 2569 1756 2569 
Q 1603 2569 1437 2487 
Q 1272 2406 1041 2159 
L 1041 647 
Q 1041 353 1073 281 
Q 1106 209 1195 161 
Q 1284 113 1503 113 
L 1503 0 
L 84 0 
L 84 113 
Q 275 113 384 172 
Q 447 203 484 290 
Q 522 378 522 647 
L 522 3238 
Q 522 3728 498 3840 
Q 475 3953 426 3993 
Q 378 4034 297 4034 
Q 231 4034 84 3984 
L 41 4094 
L 897 4444 
L 1041 4444 
z
" transform="scale(0.015625)"/>
      <path id="TimesNewRomanPSMT-5f" d="M 3256 -1381 
L -53 -1381 
L -53 -1119 
L 3256 -1119 
L 3256 -1381 
z
" transform="scale(0.015625)"/>
      <path id="TimesNewRomanPSMT-43" d="M 3853 4334 
L 3950 2894 
L 3853 2894 
Q 3659 3541 3300 3825 
Q 2941 4109 2438 4109 
Q 2016 4109 1675 3895 
Q 1334 3681 1139 3212 
Q 944 2744 944 2047 
Q 944 1472 1128 1050 
Q 1313 628 1683 403 
Q 2053 178 2528 178 
Q 2941 178 3256 354 
Q 3572 531 3950 1056 
L 4047 994 
Q 3728 428 3303 165 
Q 2878 -97 2294 -97 
Q 1241 -97 663 684 
Q 231 1266 231 2053 
Q 231 2688 515 3219 
Q 800 3750 1298 4042 
Q 1797 4334 2388 4334 
Q 2847 4334 3294 4109 
Q 3425 4041 3481 4041 
Q 3566 4041 3628 4100 
Q 3709 4184 3744 4334 
L 3853 4334 
z
" transform="scale(0.015625)"/>
      <path id="TimesNewRomanPSMT-49" d="M 1975 116 
L 1975 0 
L 159 0 
L 159 116 
L 309 116 
Q 572 116 691 269 
Q 766 369 766 750 
L 766 3488 
Q 766 3809 725 3913 
Q 694 3991 597 4047 
Q 459 4122 309 4122 
L 159 4122 
L 159 4238 
L 1975 4238 
L 1975 4122 
L 1822 4122 
Q 1563 4122 1444 3969 
Q 1366 3869 1366 3488 
L 1366 750 
Q 1366 428 1406 325 
Q 1438 247 1538 191 
Q 1672 116 1822 116 
L 1975 116 
z
" transform="scale(0.015625)"/>
      <path id="TimesNewRomanPSMT-46" d="M 1309 4006 
L 1309 2341 
L 2081 2341 
Q 2347 2341 2470 2458 
Q 2594 2575 2634 2922 
L 2750 2922 
L 2750 1488 
L 2634 1488 
Q 2631 1734 2570 1850 
Q 2509 1966 2401 2023 
Q 2294 2081 2081 2081 
L 1309 2081 
L 1309 750 
Q 1309 428 1350 325 
Q 1381 247 1481 191 
Q 1619 116 1769 116 
L 1922 116 
L 1922 0 
L 103 0 
L 103 116 
L 253 116 
Q 516 116 634 269 
Q 709 369 709 750 
L 709 3488 
Q 709 3809 669 3913 
Q 638 3991 541 4047 
Q 406 4122 253 4122 
L 103 4122 
L 103 4238 
L 3256 4238 
L 3297 3306 
L 3188 3306 
Q 3106 3603 2998 3742 
Q 2891 3881 2733 3943 
Q 2575 4006 2244 4006 
L 1309 4006 
z
" transform="scale(0.015625)"/>
      <path id="TimesNewRomanPSMT-41" d="M 2928 1419 
L 1288 1419 
L 1000 750 
Q 894 503 894 381 
Q 894 284 986 211 
Q 1078 138 1384 116 
L 1384 0 
L 50 0 
L 50 116 
Q 316 163 394 238 
Q 553 388 747 847 
L 2238 4334 
L 2347 4334 
L 3822 809 
Q 4000 384 4145 257 
Q 4291 131 4550 116 
L 4550 0 
L 2878 0 
L 2878 116 
Q 3131 128 3220 200 
Q 3309 272 3309 375 
Q 3309 513 3184 809 
L 2928 1419 
z
M 2841 1650 
L 2122 3363 
L 1384 1650 
L 2841 1650 
z
" transform="scale(0.015625)"/>
      <path id="TimesNewRomanPSMT-52" d="M 4325 0 
L 3194 0 
L 1759 1981 
Q 1600 1975 1500 1975 
Q 1459 1975 1412 1976 
Q 1366 1978 1316 1981 
L 1316 750 
Q 1316 350 1403 253 
Q 1522 116 1759 116 
L 1925 116 
L 1925 0 
L 109 0 
L 109 116 
L 269 116 
Q 538 116 653 291 
Q 719 388 719 750 
L 719 3488 
Q 719 3888 631 3984 
Q 509 4122 269 4122 
L 109 4122 
L 109 4238 
L 1653 4238 
Q 2328 4238 2648 4139 
Q 2969 4041 3192 3777 
Q 3416 3513 3416 3147 
Q 3416 2756 3161 2468 
Q 2906 2181 2372 2063 
L 3247 847 
Q 3547 428 3762 290 
Q 3978 153 4325 116 
L 4325 0 
z
M 1316 2178 
Q 1375 2178 1419 2176 
Q 1463 2175 1491 2175 
Q 2097 2175 2405 2437 
Q 2713 2700 2713 3106 
Q 2713 3503 2464 3751 
Q 2216 4000 1806 4000 
Q 1625 4000 1316 3941 
L 1316 2178 
z
" transform="scale(0.015625)"/>
      <path id="TimesNewRomanPSMT-63" d="M 2631 1088 
Q 2516 522 2178 217 
Q 1841 -88 1431 -88 
Q 944 -88 581 321 
Q 219 731 219 1428 
Q 219 2103 620 2525 
Q 1022 2947 1584 2947 
Q 2006 2947 2278 2723 
Q 2550 2500 2550 2259 
Q 2550 2141 2473 2067 
Q 2397 1994 2259 1994 
Q 2075 1994 1981 2113 
Q 1928 2178 1911 2362 
Q 1894 2547 1784 2644 
Q 1675 2738 1481 2738 
Q 1169 2738 978 2506 
Q 725 2200 725 1697 
Q 725 1184 976 792 
Q 1228 400 1656 400 
Q 1963 400 2206 609 
Q 2378 753 2541 1131 
L 2631 1088 
z
" transform="scale(0.015625)"/>
      <path id="TimesNewRomanPSMT-64" d="M 2222 322 
Q 2013 103 1813 7 
Q 1613 -88 1381 -88 
Q 913 -88 563 304 
Q 213 697 213 1313 
Q 213 1928 600 2439 
Q 988 2950 1597 2950 
Q 1975 2950 2222 2709 
L 2222 3238 
Q 2222 3728 2198 3840 
Q 2175 3953 2125 3993 
Q 2075 4034 2000 4034 
Q 1919 4034 1784 3984 
L 1744 4094 
L 2597 4444 
L 2738 4444 
L 2738 1134 
Q 2738 631 2761 520 
Q 2784 409 2836 365 
Q 2888 322 2956 322 
Q 3041 322 3181 375 
L 3216 266 
L 2366 -88 
L 2222 -88 
L 2222 322 
z
M 2222 541 
L 2222 2016 
Q 2203 2228 2109 2403 
Q 2016 2578 1861 2667 
Q 1706 2756 1559 2756 
Q 1284 2756 1069 2509 
Q 784 2184 784 1559 
Q 784 928 1059 592 
Q 1334 256 1672 256 
Q 1956 256 2222 541 
z
" transform="scale(0.015625)"/>
      <path id="TimesNewRomanPSMT-6c" d="M 1184 4444 
L 1184 647 
Q 1184 378 1223 290 
Q 1263 203 1344 158 
Q 1425 113 1647 113 
L 1647 0 
L 244 0 
L 244 113 
Q 441 113 512 153 
Q 584 194 625 287 
Q 666 381 666 647 
L 666 3247 
Q 666 3731 644 3842 
Q 622 3953 573 3993 
Q 525 4034 450 4034 
Q 369 4034 244 3984 
L 191 4094 
L 1044 4444 
L 1184 4444 
z
" transform="scale(0.015625)"/>
      <path id="TimesNewRomanPSMT-28" d="M 1988 -1253 
L 1988 -1369 
Q 1516 -1131 1200 -813 
Q 750 -359 506 256 
Q 263 872 263 1534 
Q 263 2503 741 3301 
Q 1219 4100 1988 4444 
L 1988 4313 
Q 1603 4100 1356 3731 
Q 1109 3363 987 2797 
Q 866 2231 866 1616 
Q 866 947 969 400 
Q 1050 -31 1165 -292 
Q 1281 -553 1476 -793 
Q 1672 -1034 1988 -1253 
z
" transform="scale(0.015625)"/>
      <path id="TimesNewRomanPSMT-2b" d="M 1672 441 
L 1672 2000 
L 116 2000 
L 116 2256 
L 1672 2256 
L 1672 3809 
L 1922 3809 
L 1922 2256 
L 3484 2256 
L 3484 2000 
L 1922 2000 
L 1922 441 
L 1672 441 
z
" transform="scale(0.015625)"/>
      <path id="TimesNewRomanPSMT-29" d="M 144 4313 
L 144 4444 
Q 619 4209 934 3891 
Q 1381 3434 1625 2820 
Q 1869 2206 1869 1541 
Q 1869 572 1392 -226 
Q 916 -1025 144 -1369 
L 144 -1253 
Q 528 -1038 776 -670 
Q 1025 -303 1145 264 
Q 1266 831 1266 1447 
Q 1266 2113 1163 2663 
Q 1084 3094 967 3353 
Q 850 3613 656 3853 
Q 463 4094 144 4313 
z
" transform="scale(0.015625)"/>
      <path id="TimesNewRomanPSMT-70" d="M -6 2578 
L 875 2934 
L 994 2934 
L 994 2266 
Q 1216 2644 1439 2795 
Q 1663 2947 1909 2947 
Q 2341 2947 2628 2609 
Q 2981 2197 2981 1534 
Q 2981 794 2556 309 
Q 2206 -88 1675 -88 
Q 1444 -88 1275 -22 
Q 1150 25 994 166 
L 994 -706 
Q 994 -1000 1030 -1079 
Q 1066 -1159 1155 -1206 
Q 1244 -1253 1478 -1253 
L 1478 -1369 
L -22 -1369 
L -22 -1253 
L 56 -1253 
Q 228 -1256 350 -1188 
Q 409 -1153 442 -1076 
Q 475 -1000 475 -688 
L 475 2019 
Q 475 2297 450 2372 
Q 425 2447 370 2484 
Q 316 2522 222 2522 
Q 147 2522 31 2478 
L -6 2578 
z
M 994 2081 
L 994 1013 
Q 994 666 1022 556 
Q 1066 375 1236 237 
Q 1406 100 1666 100 
Q 1978 100 2172 344 
Q 2425 663 2425 1241 
Q 2425 1897 2138 2250 
Q 1938 2494 1663 2494 
Q 1513 2494 1366 2419 
Q 1253 2363 994 2081 
z
" transform="scale(0.015625)"/>
     </defs>
     <use xlink:href="#TimesNewRomanPSMT-4c"/>
     <use xlink:href="#TimesNewRomanPSMT-6f" transform="translate(61.083984 0)"/>
     <use xlink:href="#TimesNewRomanPSMT-73" transform="translate(111.083984 0)"/>
     <use xlink:href="#TimesNewRomanPSMT-73" transform="translate(150 0)"/>
     <use xlink:href="#TimesNewRomanPSMT-20" transform="translate(188.916016 0)"/>
     <use xlink:href="#TimesNewRomanPSMT-6f" transform="translate(213.916016 0)"/>
     <use xlink:href="#TimesNewRomanPSMT-66" transform="translate(263.916016 0)"/>
     <use xlink:href="#TimesNewRomanPSMT-20" transform="translate(297.216797 0)"/>
     <use xlink:href="#TimesNewRomanPSMT-74" transform="translate(322.216797 0)"/>
     <use xlink:href="#TimesNewRomanPSMT-68" transform="translate(350 0)"/>
     <use xlink:href="#TimesNewRomanPSMT-65" transform="translate(400 0)"/>
     <use xlink:href="#TimesNewRomanPSMT-20" transform="translate(444.384766 0)"/>
     <use xlink:href="#TimesNewRomanPSMT-32" transform="translate(469.384766 0)"/>
     <use xlink:href="#TimesNewRomanPSMT-31" transform="translate(519.384766 0)"/>
     <use xlink:href="#TimesNewRomanPSMT-5f" transform="translate(569.384766 0)"/>
     <use xlink:href="#TimesNewRomanPSMT-30" transform="translate(619.384766 0)"/>
     <use xlink:href="#TimesNewRomanPSMT-35" transform="translate(669.384766 0)"/>
     <use xlink:href="#TimesNewRomanPSMT-5f" transform="translate(719.384766 0)"/>
     <use xlink:href="#TimesNewRomanPSMT-32" transform="translate(769.384766 0)"/>
     <use xlink:href="#TimesNewRomanPSMT-35" transform="translate(819.384766 0)"/>
     <use xlink:href="#TimesNewRomanPSMT-5f" transform="translate(869.384766 0)"/>
     <use xlink:href="#TimesNewRomanPSMT-43" transform="translate(919.384766 0)"/>
     <use xlink:href="#TimesNewRomanPSMT-49" transform="translate(986.083984 0)"/>
     <use xlink:href="#TimesNewRomanPSMT-46" transform="translate(1019.384766 0)"/>
     <use xlink:href="#TimesNewRomanPSMT-41" transform="translate(1067.625 0)"/>
     <use xlink:href="#TimesNewRomanPSMT-52" transform="translate(1139.841797 0)"/>
     <use xlink:href="#TimesNewRomanPSMT-31" transform="translate(1206.541016 0)"/>
     <use xlink:href="#TimesNewRomanPSMT-30" transform="translate(1256.541016 0)"/>
     <use xlink:href="#TimesNewRomanPSMT-5f" transform="translate(1306.541016 0)"/>
     <use xlink:href="#TimesNewRomanPSMT-74" transform="translate(1356.541016 0)"/>
     <use xlink:href="#TimesNewRomanPSMT-6f" transform="translate(1384.324219 0)"/>
     <use xlink:href="#TimesNewRomanPSMT-72" transform="translate(1434.324219 0)"/>
     <use xlink:href="#TimesNewRomanPSMT-63" transform="translate(1467.625 0)"/>
     <use xlink:href="#TimesNewRomanPSMT-68" transform="translate(1512.009766 0)"/>
     <use xlink:href="#TimesNewRomanPSMT-5f" transform="translate(1562.009766 0)"/>
     <use xlink:href="#TimesNewRomanPSMT-6d" transform="translate(1612.009766 0)"/>
     <use xlink:href="#TimesNewRomanPSMT-6f" transform="translate(1689.792969 0)"/>
     <use xlink:href="#TimesNewRomanPSMT-64" transform="translate(1739.792969 0)"/>
     <use xlink:href="#TimesNewRomanPSMT-65" transform="translate(1789.792969 0)"/>
     <use xlink:href="#TimesNewRomanPSMT-6c" transform="translate(1834.177734 0)"/>
     <use xlink:href="#TimesNewRomanPSMT-5f" transform="translate(1861.960938 0)"/>
     <use xlink:href="#TimesNewRomanPSMT-28" transform="translate(1911.960938 0)"/>
     <use xlink:href="#TimesNewRomanPSMT-31" transform="translate(1945.261719 0)"/>
     <use xlink:href="#TimesNewRomanPSMT-30" transform="translate(1995.261719 0)"/>
     <use xlink:href="#TimesNewRomanPSMT-32" transform="translate(2045.261719 0)"/>
     <use xlink:href="#TimesNewRomanPSMT-34" transform="translate(2095.261719 0)"/>
     <use xlink:href="#TimesNewRomanPSMT-2b" transform="translate(2145.261719 0)"/>
     <use xlink:href="#TimesNewRomanPSMT-35" transform="translate(2201.658203 0)"/>
     <use xlink:href="#TimesNewRomanPSMT-31" transform="translate(2251.658203 0)"/>
     <use xlink:href="#TimesNewRomanPSMT-32" transform="translate(2301.658203 0)"/>
     <use xlink:href="#TimesNewRomanPSMT-2e" transform="translate(2351.658203 0)"/>
     <use xlink:href="#TimesNewRomanPSMT-35" transform="translate(2376.658203 0)"/>
     <use xlink:href="#TimesNewRomanPSMT-2b" transform="translate(2426.658203 0)"/>
     <use xlink:href="#TimesNewRomanPSMT-31" transform="translate(2483.054688 0)"/>
     <use xlink:href="#TimesNewRomanPSMT-29" transform="translate(2533.054688 0)"/>
     <use xlink:href="#TimesNewRomanPSMT-5f" transform="translate(2566.355469 0)"/>
     <use xlink:href="#TimesNewRomanPSMT-63" transform="translate(2616.355469 0)"/>
     <use xlink:href="#TimesNewRomanPSMT-74" transform="translate(2660.740234 0)"/>
     <use xlink:href="#TimesNewRomanPSMT-70" transform="translate(2688.523438 0)"/>
     <use xlink:href="#TimesNewRomanPSMT-62" transform="translate(2738.523438 0)"/>
    </g>
   </g>
   <g id="legend_1">
    <g id="patch_7">
     <path d="M 337.886562 125.384625 
L 538.444063 125.384625 
Q 542.844063 125.384625 542.844063 120.984625 
L 542.844063 60.9315 
Q 542.844063 56.5315 538.444063 56.5315 
L 337.886562 56.5315 
Q 333.486562 56.5315 333.486562 60.9315 
L 333.486562 120.984625 
Q 333.486562 125.384625 337.886562 125.384625 
z
" style="fill: #ffffff; opacity: 0.8; stroke: #cccccc; stroke-linejoin: miter"/>
    </g>
    <g id="line2d_21">
     <path d="M 342.286563 73.0315 
L 364.286563 73.0315 
L 386.286563 73.0315 
" style="fill: none; stroke: #ffa500; stroke-width: 1.5; stroke-linecap: square"/>
    </g>
    <g id="text_13">
     <!-- Training loss -->
     <g transform="translate(403.886563 80.7315) scale(0.22 -0.22)">
      <defs>
       <path id="TimesNewRomanPSMT-54" d="M 3703 4238 
L 3750 3244 
L 3631 3244 
Q 3597 3506 3538 3619 
Q 3441 3800 3280 3886 
Q 3119 3972 2856 3972 
L 2259 3972 
L 2259 734 
Q 2259 344 2344 247 
Q 2463 116 2709 116 
L 2856 116 
L 2856 0 
L 1059 0 
L 1059 116 
L 1209 116 
Q 1478 116 1591 278 
Q 1659 378 1659 734 
L 1659 3972 
L 1150 3972 
Q 853 3972 728 3928 
Q 566 3869 450 3700 
Q 334 3531 313 3244 
L 194 3244 
L 244 4238 
L 3703 4238 
z
" transform="scale(0.015625)"/>
       <path id="TimesNewRomanPSMT-67" d="M 966 1044 
Q 703 1172 562 1401 
Q 422 1631 422 1909 
Q 422 2334 742 2640 
Q 1063 2947 1563 2947 
Q 1972 2947 2272 2747 
L 2878 2747 
Q 3013 2747 3034 2739 
Q 3056 2731 3066 2713 
Q 3084 2684 3084 2613 
Q 3084 2531 3069 2500 
Q 3059 2484 3036 2475 
Q 3013 2466 2878 2466 
L 2506 2466 
Q 2681 2241 2681 1891 
Q 2681 1491 2375 1206 
Q 2069 922 1553 922 
Q 1341 922 1119 984 
Q 981 866 932 777 
Q 884 688 884 625 
Q 884 572 936 522 
Q 988 472 1138 450 
Q 1225 438 1575 428 
Q 2219 413 2409 384 
Q 2700 344 2873 169 
Q 3047 -6 3047 -263 
Q 3047 -616 2716 -925 
Q 2228 -1381 1444 -1381 
Q 841 -1381 425 -1109 
Q 191 -953 191 -784 
Q 191 -709 225 -634 
Q 278 -519 444 -313 
Q 466 -284 763 25 
Q 600 122 533 198 
Q 466 275 466 372 
Q 466 481 555 628 
Q 644 775 966 1044 
z
M 1509 2797 
Q 1278 2797 1122 2612 
Q 966 2428 966 2047 
Q 966 1553 1178 1281 
Q 1341 1075 1591 1075 
Q 1828 1075 1981 1253 
Q 2134 1431 2134 1813 
Q 2134 2309 1919 2591 
Q 1759 2797 1509 2797 
z
M 934 0 
Q 788 -159 713 -296 
Q 638 -434 638 -550 
Q 638 -700 819 -813 
Q 1131 -1006 1722 -1006 
Q 2284 -1006 2551 -807 
Q 2819 -609 2819 -384 
Q 2819 -222 2659 -153 
Q 2497 -84 2016 -72 
Q 1313 -53 934 0 
z
" transform="scale(0.015625)"/>
      </defs>
      <use xlink:href="#TimesNewRomanPSMT-54"/>
      <use xlink:href="#TimesNewRomanPSMT-72" transform="translate(57.583984 0)"/>
      <use xlink:href="#TimesNewRomanPSMT-61" transform="translate(90.884766 0)"/>
      <use xlink:href="#TimesNewRomanPSMT-69" transform="translate(135.269531 0)"/>
      <use xlink:href="#TimesNewRomanPSMT-6e" transform="translate(163.052734 0)"/>
      <use xlink:href="#TimesNewRomanPSMT-69" transform="translate(213.052734 0)"/>
      <use xlink:href="#TimesNewRomanPSMT-6e" transform="translate(240.835938 0)"/>
      <use xlink:href="#TimesNewRomanPSMT-67" transform="translate(290.835938 0)"/>
      <use xlink:href="#TimesNewRomanPSMT-20" transform="translate(340.835938 0)"/>
      <use xlink:href="#TimesNewRomanPSMT-6c" transform="translate(365.835938 0)"/>
      <use xlink:href="#TimesNewRomanPSMT-6f" transform="translate(393.619141 0)"/>
      <use xlink:href="#TimesNewRomanPSMT-73" transform="translate(443.619141 0)"/>
      <use xlink:href="#TimesNewRomanPSMT-73" transform="translate(482.535156 0)"/>
     </g>
    </g>
    <g id="line2d_22">
     <path d="M 342.286563 104.178687 
L 364.286563 104.178687 
L 386.286563 104.178687 
" style="fill: none; stroke: #008000; stroke-width: 1.5; stroke-linecap: square"/>
    </g>
    <g id="text_14">
     <!-- Validation loss -->
     <g transform="translate(403.886563 111.878687) scale(0.22 -0.22)">
      <defs>
       <path id="TimesNewRomanPSMT-56" d="M 4544 4238 
L 4544 4122 
Q 4319 4081 4203 3978 
Q 4038 3825 3909 3509 
L 2431 -97 
L 2316 -97 
L 728 3556 
Q 606 3838 556 3900 
Q 478 3997 364 4051 
Q 250 4106 56 4122 
L 56 4238 
L 1788 4238 
L 1788 4122 
Q 1494 4094 1406 4022 
Q 1319 3950 1319 3838 
Q 1319 3681 1463 3350 
L 2541 866 
L 3541 3319 
Q 3688 3681 3688 3822 
Q 3688 3913 3597 3995 
Q 3506 4078 3291 4113 
Q 3275 4116 3238 4122 
L 3238 4238 
L 4544 4238 
z
" transform="scale(0.015625)"/>
      </defs>
      <use xlink:href="#TimesNewRomanPSMT-56"/>
      <use xlink:href="#TimesNewRomanPSMT-61" transform="translate(61.091797 0)"/>
      <use xlink:href="#TimesNewRomanPSMT-6c" transform="translate(105.476562 0)"/>
      <use xlink:href="#TimesNewRomanPSMT-69" transform="translate(133.259766 0)"/>
      <use xlink:href="#TimesNewRomanPSMT-64" transform="translate(161.042969 0)"/>
      <use xlink:href="#TimesNewRomanPSMT-61" transform="translate(211.042969 0)"/>
      <use xlink:href="#TimesNewRomanPSMT-74" transform="translate(255.427734 0)"/>
      <use xlink:href="#TimesNewRomanPSMT-69" transform="translate(283.210938 0)"/>
      <use xlink:href="#TimesNewRomanPSMT-6f" transform="translate(310.994141 0)"/>
      <use xlink:href="#TimesNewRomanPSMT-6e" transform="translate(360.994141 0)"/>
      <use xlink:href="#TimesNewRomanPSMT-20" transform="translate(410.994141 0)"/>
      <use xlink:href="#TimesNewRomanPSMT-6c" transform="translate(435.994141 0)"/>
      <use xlink:href="#TimesNewRomanPSMT-6f" transform="translate(463.777344 0)"/>
      <use xlink:href="#TimesNewRomanPSMT-73" transform="translate(513.777344 0)"/>
      <use xlink:href="#TimesNewRomanPSMT-73" transform="translate(552.693359 0)"/>
     </g>
    </g>
   </g>
  </g>
 </g>
 <defs>
  <clipPath id="p12f79859cf">
   <rect x="196.724063" y="45.5315" width="357.12" height="266.112"/>
  </clipPath>
 </defs>
</svg>
