<?xml version="1.0" encoding="utf-8" standalone="no"?>
<!DOCTYPE svg PUBLIC "-//W3C//DTD SVG 1.1//EN"
  "http://www.w3.org/Graphics/SVG/1.1/DTD/svg11.dtd">
<svg xmlns:xlink="http://www.w3.org/1999/xlink" width="1087.758pt" height="369.807875pt" viewBox="0 0 1087.758 369.807875" xmlns="http://www.w3.org/2000/svg" version="1.1">
 <metadata>
  <rdf:RDF xmlns:dc="http://purl.org/dc/elements/1.1/" xmlns:cc="http://creativecommons.org/ns#" xmlns:rdf="http://www.w3.org/1999/02/22-rdf-syntax-ns#">
   <cc:Work>
    <dc:type rdf:resource="http://purl.org/dc/dcmitype/StillImage"/>
    <dc:date>2025-07-10T23:22:29.007678</dc:date>
    <dc:format>image/svg+xml</dc:format>
    <dc:creator>
     <cc:Agent>
      <dc:title>Matplotlib v3.10.1, https://matplotlib.org/</dc:title>
     </cc:Agent>
    </dc:creator>
   </cc:Work>
  </rdf:RDF>
 </metadata>
 <defs>
  <style type="text/css">*{stroke-linejoin: round; stroke-linecap: butt}</style>
 </defs>
 <g id="figure_1">
  <g id="patch_1">
   <path d="M -0 369.807875 
L 1087.758 369.807875 
L 1087.758 0 
L -0 0 
z
" style="fill: #ffffff"/>
  </g>
  <g id="axes_1">
   <g id="patch_2">
    <path d="M 365.319 311.6435 
L 722.439 311.6435 
L 722.439 45.5315 
L 365.319 45.5315 
z
" style="fill: #ffffff"/>
   </g>
   <g id="matplotlib.axis_1">
    <g id="xtick_1">
     <g id="line2d_1">
      <path d="M 365.319 311.6435 
L 365.319 45.5315 
" clip-path="url(#p10dbcc3510)" style="fill: none; stroke: #b0b0b0; stroke-opacity: 0.3; stroke-width: 0.8; stroke-linecap: square"/>
     </g>
     <g id="line2d_2">
      <defs>
       <path id="m24c856ff4c" d="M 0 0 
L 0 3.5 
" style="stroke: #000000; stroke-width: 0.8"/>
      </defs>
      <g>
       <use xlink:href="#m24c856ff4c" x="365.319" y="311.6435" style="stroke: #000000; stroke-width: 0.8"/>
      </g>
     </g>
     <g id="text_1">
      <!-- 0 -->
      <g transform="translate(359.819 333.91975) scale(0.22 -0.22)">
       <defs>
        <path id="TimesNewRomanPSMT-30" d="M 231 2094 
Q 231 2819 450 3342 
Q 669 3866 1031 4122 
Q 1313 4325 1613 4325 
Q 2100 4325 2488 3828 
Q 2972 3213 2972 2159 
Q 2972 1422 2759 906 
Q 2547 391 2217 158 
Q 1888 -75 1581 -75 
Q 975 -75 572 641 
Q 231 1244 231 2094 
z
M 844 2016 
Q 844 1141 1059 588 
Q 1238 122 1591 122 
Q 1759 122 1940 273 
Q 2122 425 2216 781 
Q 2359 1319 2359 2297 
Q 2359 3022 2209 3506 
Q 2097 3866 1919 4016 
Q 1791 4119 1609 4119 
Q 1397 4119 1231 3928 
Q 1006 3669 925 3112 
Q 844 2556 844 2016 
z
" transform="scale(0.015625)"/>
       </defs>
       <use xlink:href="#TimesNewRomanPSMT-30"/>
      </g>
     </g>
    </g>
    <g id="xtick_2">
     <g id="line2d_3">
      <path d="M 460.551 311.6435 
L 460.551 45.5315 
" clip-path="url(#p10dbcc3510)" style="fill: none; stroke: #b0b0b0; stroke-opacity: 0.3; stroke-width: 0.8; stroke-linecap: square"/>
     </g>
     <g id="line2d_4">
      <g>
       <use xlink:href="#m24c856ff4c" x="460.551" y="311.6435" style="stroke: #000000; stroke-width: 0.8"/>
      </g>
     </g>
     <g id="text_2">
      <!-- 20000 -->
      <g transform="translate(433.051 333.91975) scale(0.22 -0.22)">
       <defs>
        <path id="TimesNewRomanPSMT-32" d="M 2934 816 
L 2638 0 
L 138 0 
L 138 116 
Q 1241 1122 1691 1759 
Q 2141 2397 2141 2925 
Q 2141 3328 1894 3587 
Q 1647 3847 1303 3847 
Q 991 3847 742 3664 
Q 494 3481 375 3128 
L 259 3128 
Q 338 3706 661 4015 
Q 984 4325 1469 4325 
Q 1984 4325 2329 3994 
Q 2675 3663 2675 3213 
Q 2675 2891 2525 2569 
Q 2294 2063 1775 1497 
Q 997 647 803 472 
L 1909 472 
Q 2247 472 2383 497 
Q 2519 522 2628 598 
Q 2738 675 2819 816 
L 2934 816 
z
" transform="scale(0.015625)"/>
       </defs>
       <use xlink:href="#TimesNewRomanPSMT-32"/>
       <use xlink:href="#TimesNewRomanPSMT-30" transform="translate(50 0)"/>
       <use xlink:href="#TimesNewRomanPSMT-30" transform="translate(100 0)"/>
       <use xlink:href="#TimesNewRomanPSMT-30" transform="translate(150 0)"/>
       <use xlink:href="#TimesNewRomanPSMT-30" transform="translate(200 0)"/>
      </g>
     </g>
    </g>
    <g id="xtick_3">
     <g id="line2d_5">
      <path d="M 555.783 311.6435 
L 555.783 45.5315 
" clip-path="url(#p10dbcc3510)" style="fill: none; stroke: #b0b0b0; stroke-opacity: 0.3; stroke-width: 0.8; stroke-linecap: square"/>
     </g>
     <g id="line2d_6">
      <g>
       <use xlink:href="#m24c856ff4c" x="555.783" y="311.6435" style="stroke: #000000; stroke-width: 0.8"/>
      </g>
     </g>
     <g id="text_3">
      <!-- 40000 -->
      <g transform="translate(528.283 333.91975) scale(0.22 -0.22)">
       <defs>
        <path id="TimesNewRomanPSMT-34" d="M 2978 1563 
L 2978 1119 
L 2409 1119 
L 2409 0 
L 1894 0 
L 1894 1119 
L 100 1119 
L 100 1519 
L 2066 4325 
L 2409 4325 
L 2409 1563 
L 2978 1563 
z
M 1894 1563 
L 1894 3666 
L 406 1563 
L 1894 1563 
z
" transform="scale(0.015625)"/>
       </defs>
       <use xlink:href="#TimesNewRomanPSMT-34"/>
       <use xlink:href="#TimesNewRomanPSMT-30" transform="translate(50 0)"/>
       <use xlink:href="#TimesNewRomanPSMT-30" transform="translate(100 0)"/>
       <use xlink:href="#TimesNewRomanPSMT-30" transform="translate(150 0)"/>
       <use xlink:href="#TimesNewRomanPSMT-30" transform="translate(200 0)"/>
      </g>
     </g>
    </g>
    <g id="xtick_4">
     <g id="line2d_7">
      <path d="M 651.015 311.6435 
L 651.015 45.5315 
" clip-path="url(#p10dbcc3510)" style="fill: none; stroke: #b0b0b0; stroke-opacity: 0.3; stroke-width: 0.8; stroke-linecap: square"/>
     </g>
     <g id="line2d_8">
      <g>
       <use xlink:href="#m24c856ff4c" x="651.015" y="311.6435" style="stroke: #000000; stroke-width: 0.8"/>
      </g>
     </g>
     <g id="text_4">
      <!-- 60000 -->
      <g transform="translate(623.515 333.91975) scale(0.22 -0.22)">
       <defs>
        <path id="TimesNewRomanPSMT-36" d="M 2869 4325 
L 2869 4209 
Q 2456 4169 2195 4045 
Q 1934 3922 1679 3669 
Q 1425 3416 1258 3105 
Q 1091 2794 978 2366 
Q 1428 2675 1881 2675 
Q 2316 2675 2634 2325 
Q 2953 1975 2953 1425 
Q 2953 894 2631 456 
Q 2244 -75 1606 -75 
Q 1172 -75 869 213 
Q 275 772 275 1663 
Q 275 2231 503 2743 
Q 731 3256 1154 3653 
Q 1578 4050 1965 4187 
Q 2353 4325 2688 4325 
L 2869 4325 
z
M 925 2138 
Q 869 1716 869 1456 
Q 869 1156 980 804 
Q 1091 453 1309 247 
Q 1469 100 1697 100 
Q 1969 100 2183 356 
Q 2397 613 2397 1088 
Q 2397 1622 2184 2012 
Q 1972 2403 1581 2403 
Q 1463 2403 1327 2353 
Q 1191 2303 925 2138 
z
" transform="scale(0.015625)"/>
       </defs>
       <use xlink:href="#TimesNewRomanPSMT-36"/>
       <use xlink:href="#TimesNewRomanPSMT-30" transform="translate(50 0)"/>
       <use xlink:href="#TimesNewRomanPSMT-30" transform="translate(100 0)"/>
       <use xlink:href="#TimesNewRomanPSMT-30" transform="translate(150 0)"/>
       <use xlink:href="#TimesNewRomanPSMT-30" transform="translate(200 0)"/>
      </g>
     </g>
    </g>
    <g id="text_5">
     <!-- Number of iterations -->
     <g transform="translate(452.236969 357.901937) scale(0.22 -0.22)">
      <defs>
       <path id="TimesNewRomanPSMT-4e" d="M -84 4238 
L 1066 4238 
L 3656 1059 
L 3656 3503 
Q 3656 3894 3569 3991 
Q 3453 4122 3203 4122 
L 3056 4122 
L 3056 4238 
L 4531 4238 
L 4531 4122 
L 4381 4122 
Q 4113 4122 4000 3959 
Q 3931 3859 3931 3503 
L 3931 -69 
L 3819 -69 
L 1025 3344 
L 1025 734 
Q 1025 344 1109 247 
Q 1228 116 1475 116 
L 1625 116 
L 1625 0 
L 150 0 
L 150 116 
L 297 116 
Q 569 116 681 278 
Q 750 378 750 734 
L 750 3681 
Q 566 3897 470 3965 
Q 375 4034 191 4094 
Q 100 4122 -84 4122 
L -84 4238 
z
" transform="scale(0.015625)"/>
       <path id="TimesNewRomanPSMT-75" d="M 2709 2863 
L 2709 1128 
Q 2709 631 2732 520 
Q 2756 409 2807 365 
Q 2859 322 2928 322 
Q 3025 322 3147 375 
L 3191 266 
L 2334 -88 
L 2194 -88 
L 2194 519 
Q 1825 119 1631 15 
Q 1438 -88 1222 -88 
Q 981 -88 804 51 
Q 628 191 559 409 
Q 491 628 491 1028 
L 491 2306 
Q 491 2509 447 2587 
Q 403 2666 317 2708 
Q 231 2750 6 2747 
L 6 2863 
L 1009 2863 
L 1009 947 
Q 1009 547 1148 422 
Q 1288 297 1484 297 
Q 1619 297 1789 381 
Q 1959 466 2194 703 
L 2194 2325 
Q 2194 2569 2105 2655 
Q 2016 2741 1734 2747 
L 1734 2863 
L 2709 2863 
z
" transform="scale(0.015625)"/>
       <path id="TimesNewRomanPSMT-6d" d="M 1050 2338 
Q 1363 2650 1419 2697 
Q 1559 2816 1721 2881 
Q 1884 2947 2044 2947 
Q 2313 2947 2506 2790 
Q 2700 2634 2766 2338 
Q 3088 2713 3309 2830 
Q 3531 2947 3766 2947 
Q 3994 2947 4170 2830 
Q 4347 2713 4450 2447 
Q 4519 2266 4519 1878 
L 4519 647 
Q 4519 378 4559 278 
Q 4591 209 4675 161 
Q 4759 113 4950 113 
L 4950 0 
L 3538 0 
L 3538 113 
L 3597 113 
Q 3781 113 3884 184 
Q 3956 234 3988 344 
Q 4000 397 4000 647 
L 4000 1878 
Q 4000 2228 3916 2372 
Q 3794 2572 3525 2572 
Q 3359 2572 3192 2489 
Q 3025 2406 2788 2181 
L 2781 2147 
L 2788 2013 
L 2788 647 
Q 2788 353 2820 281 
Q 2853 209 2943 161 
Q 3034 113 3253 113 
L 3253 0 
L 1806 0 
L 1806 113 
Q 2044 113 2133 169 
Q 2222 225 2256 338 
Q 2272 391 2272 647 
L 2272 1878 
Q 2272 2228 2169 2381 
Q 2031 2581 1784 2581 
Q 1616 2581 1450 2491 
Q 1191 2353 1050 2181 
L 1050 647 
Q 1050 366 1089 281 
Q 1128 197 1204 155 
Q 1281 113 1516 113 
L 1516 0 
L 100 0 
L 100 113 
Q 297 113 375 155 
Q 453 197 493 289 
Q 534 381 534 647 
L 534 1741 
Q 534 2213 506 2350 
Q 484 2453 437 2492 
Q 391 2531 309 2531 
Q 222 2531 100 2484 
L 53 2597 
L 916 2947 
L 1050 2947 
L 1050 2338 
z
" transform="scale(0.015625)"/>
       <path id="TimesNewRomanPSMT-62" d="M 984 2369 
Q 1400 2947 1881 2947 
Q 2322 2947 2650 2570 
Q 2978 2194 2978 1541 
Q 2978 778 2472 313 
Q 2038 -88 1503 -88 
Q 1253 -88 995 3 
Q 738 94 469 275 
L 469 3241 
Q 469 3728 445 3840 
Q 422 3953 372 3993 
Q 322 4034 247 4034 
Q 159 4034 28 3984 
L -16 4094 
L 844 4444 
L 984 4444 
L 984 2369 
z
M 984 2169 
L 984 456 
Q 1144 300 1314 220 
Q 1484 141 1663 141 
Q 1947 141 2192 453 
Q 2438 766 2438 1363 
Q 2438 1913 2192 2208 
Q 1947 2503 1634 2503 
Q 1469 2503 1303 2419 
Q 1178 2356 984 2169 
z
" transform="scale(0.015625)"/>
       <path id="TimesNewRomanPSMT-65" d="M 681 1784 
Q 678 1147 991 784 
Q 1303 422 1725 422 
Q 2006 422 2214 576 
Q 2422 731 2563 1106 
L 2659 1044 
Q 2594 616 2278 264 
Q 1963 -88 1488 -88 
Q 972 -88 605 314 
Q 238 716 238 1394 
Q 238 2128 614 2539 
Q 991 2950 1559 2950 
Q 2041 2950 2350 2633 
Q 2659 2316 2659 1784 
L 681 1784 
z
M 681 1966 
L 2006 1966 
Q 1991 2241 1941 2353 
Q 1863 2528 1708 2628 
Q 1553 2728 1384 2728 
Q 1125 2728 920 2526 
Q 716 2325 681 1966 
z
" transform="scale(0.015625)"/>
       <path id="TimesNewRomanPSMT-72" d="M 1038 2947 
L 1038 2303 
Q 1397 2947 1775 2947 
Q 1947 2947 2059 2842 
Q 2172 2738 2172 2600 
Q 2172 2478 2090 2393 
Q 2009 2309 1897 2309 
Q 1788 2309 1652 2417 
Q 1516 2525 1450 2525 
Q 1394 2525 1328 2463 
Q 1188 2334 1038 2041 
L 1038 669 
Q 1038 431 1097 309 
Q 1138 225 1241 169 
Q 1344 113 1538 113 
L 1538 0 
L 72 0 
L 72 113 
Q 291 113 397 181 
Q 475 231 506 341 
Q 522 394 522 644 
L 522 1753 
Q 522 2253 501 2348 
Q 481 2444 426 2487 
Q 372 2531 291 2531 
Q 194 2531 72 2484 
L 41 2597 
L 906 2947 
L 1038 2947 
z
" transform="scale(0.015625)"/>
       <path id="TimesNewRomanPSMT-20" transform="scale(0.015625)"/>
       <path id="TimesNewRomanPSMT-6f" d="M 1600 2947 
Q 2250 2947 2644 2453 
Q 2978 2031 2978 1484 
Q 2978 1100 2793 706 
Q 2609 313 2286 112 
Q 1963 -88 1566 -88 
Q 919 -88 538 428 
Q 216 863 216 1403 
Q 216 1797 411 2186 
Q 606 2575 925 2761 
Q 1244 2947 1600 2947 
z
M 1503 2744 
Q 1338 2744 1170 2645 
Q 1003 2547 900 2300 
Q 797 2053 797 1666 
Q 797 1041 1045 587 
Q 1294 134 1700 134 
Q 2003 134 2200 384 
Q 2397 634 2397 1244 
Q 2397 2006 2069 2444 
Q 1847 2744 1503 2744 
z
" transform="scale(0.015625)"/>
       <path id="TimesNewRomanPSMT-66" d="M 1319 2638 
L 1319 756 
Q 1319 356 1406 250 
Q 1522 113 1716 113 
L 1975 113 
L 1975 0 
L 266 0 
L 266 113 
L 394 113 
Q 519 113 622 175 
Q 725 238 764 344 
Q 803 450 803 756 
L 803 2638 
L 247 2638 
L 247 2863 
L 803 2863 
L 803 3050 
Q 803 3478 940 3775 
Q 1078 4072 1361 4255 
Q 1644 4438 1997 4438 
Q 2325 4438 2600 4225 
Q 2781 4084 2781 3909 
Q 2781 3816 2700 3733 
Q 2619 3650 2525 3650 
Q 2453 3650 2373 3701 
Q 2294 3753 2178 3923 
Q 2063 4094 1966 4153 
Q 1869 4213 1750 4213 
Q 1606 4213 1506 4136 
Q 1406 4059 1362 3898 
Q 1319 3738 1319 3069 
L 1319 2863 
L 2056 2863 
L 2056 2638 
L 1319 2638 
z
" transform="scale(0.015625)"/>
       <path id="TimesNewRomanPSMT-69" d="M 928 4444 
Q 1059 4444 1151 4351 
Q 1244 4259 1244 4128 
Q 1244 3997 1151 3903 
Q 1059 3809 928 3809 
Q 797 3809 703 3903 
Q 609 3997 609 4128 
Q 609 4259 701 4351 
Q 794 4444 928 4444 
z
M 1188 2947 
L 1188 647 
Q 1188 378 1227 289 
Q 1266 200 1342 156 
Q 1419 113 1622 113 
L 1622 0 
L 231 0 
L 231 113 
Q 441 113 512 153 
Q 584 194 626 287 
Q 669 381 669 647 
L 669 1750 
Q 669 2216 641 2353 
Q 619 2453 572 2492 
Q 525 2531 444 2531 
Q 356 2531 231 2484 
L 188 2597 
L 1050 2947 
L 1188 2947 
z
" transform="scale(0.015625)"/>
       <path id="TimesNewRomanPSMT-74" d="M 1031 3803 
L 1031 2863 
L 1700 2863 
L 1700 2644 
L 1031 2644 
L 1031 788 
Q 1031 509 1111 412 
Q 1191 316 1316 316 
Q 1419 316 1516 380 
Q 1613 444 1666 569 
L 1788 569 
Q 1678 263 1478 108 
Q 1278 -47 1066 -47 
Q 922 -47 784 33 
Q 647 113 581 261 
Q 516 409 516 719 
L 516 2644 
L 63 2644 
L 63 2747 
Q 234 2816 414 2980 
Q 594 3144 734 3369 
Q 806 3488 934 3803 
L 1031 3803 
z
" transform="scale(0.015625)"/>
       <path id="TimesNewRomanPSMT-61" d="M 1822 413 
Q 1381 72 1269 19 
Q 1100 -59 909 -59 
Q 613 -59 420 144 
Q 228 347 228 678 
Q 228 888 322 1041 
Q 450 1253 767 1440 
Q 1084 1628 1822 1897 
L 1822 2009 
Q 1822 2438 1686 2597 
Q 1550 2756 1291 2756 
Q 1094 2756 978 2650 
Q 859 2544 859 2406 
L 866 2225 
Q 866 2081 792 2003 
Q 719 1925 600 1925 
Q 484 1925 411 2006 
Q 338 2088 338 2228 
Q 338 2497 613 2722 
Q 888 2947 1384 2947 
Q 1766 2947 2009 2819 
Q 2194 2722 2281 2516 
Q 2338 2381 2338 1966 
L 2338 994 
Q 2338 584 2353 492 
Q 2369 400 2405 369 
Q 2441 338 2488 338 
Q 2538 338 2575 359 
Q 2641 400 2828 588 
L 2828 413 
Q 2478 -56 2159 -56 
Q 2006 -56 1915 50 
Q 1825 156 1822 413 
z
M 1822 616 
L 1822 1706 
Q 1350 1519 1213 1441 
Q 966 1303 859 1153 
Q 753 1003 753 825 
Q 753 600 887 451 
Q 1022 303 1197 303 
Q 1434 303 1822 616 
z
" transform="scale(0.015625)"/>
       <path id="TimesNewRomanPSMT-6e" d="M 1034 2341 
Q 1538 2947 1994 2947 
Q 2228 2947 2397 2830 
Q 2566 2713 2666 2444 
Q 2734 2256 2734 1869 
L 2734 647 
Q 2734 375 2778 278 
Q 2813 200 2889 156 
Q 2966 113 3172 113 
L 3172 0 
L 1756 0 
L 1756 113 
L 1816 113 
Q 2016 113 2095 173 
Q 2175 234 2206 353 
Q 2219 400 2219 647 
L 2219 1819 
Q 2219 2209 2117 2386 
Q 2016 2563 1775 2563 
Q 1403 2563 1034 2156 
L 1034 647 
Q 1034 356 1069 288 
Q 1113 197 1189 155 
Q 1266 113 1500 113 
L 1500 0 
L 84 0 
L 84 113 
L 147 113 
Q 366 113 442 223 
Q 519 334 519 647 
L 519 1709 
Q 519 2225 495 2337 
Q 472 2450 423 2490 
Q 375 2531 294 2531 
Q 206 2531 84 2484 
L 38 2597 
L 900 2947 
L 1034 2947 
L 1034 2341 
z
" transform="scale(0.015625)"/>
       <path id="TimesNewRomanPSMT-73" d="M 2050 2947 
L 2050 1972 
L 1947 1972 
Q 1828 2431 1642 2597 
Q 1456 2763 1169 2763 
Q 950 2763 815 2647 
Q 681 2531 681 2391 
Q 681 2216 781 2091 
Q 878 1963 1175 1819 
L 1631 1597 
Q 2266 1288 2266 781 
Q 2266 391 1970 151 
Q 1675 -88 1309 -88 
Q 1047 -88 709 6 
Q 606 38 541 38 
Q 469 38 428 -44 
L 325 -44 
L 325 978 
L 428 978 
Q 516 541 762 319 
Q 1009 97 1316 97 
Q 1531 97 1667 223 
Q 1803 350 1803 528 
Q 1803 744 1651 891 
Q 1500 1038 1047 1263 
Q 594 1488 453 1669 
Q 313 1847 313 2119 
Q 313 2472 555 2709 
Q 797 2947 1181 2947 
Q 1350 2947 1591 2875 
Q 1750 2828 1803 2828 
Q 1853 2828 1881 2850 
Q 1909 2872 1947 2947 
L 2050 2947 
z
" transform="scale(0.015625)"/>
      </defs>
      <use xlink:href="#TimesNewRomanPSMT-4e"/>
      <use xlink:href="#TimesNewRomanPSMT-75" transform="translate(72.216797 0)"/>
      <use xlink:href="#TimesNewRomanPSMT-6d" transform="translate(122.216797 0)"/>
      <use xlink:href="#TimesNewRomanPSMT-62" transform="translate(200 0)"/>
      <use xlink:href="#TimesNewRomanPSMT-65" transform="translate(250 0)"/>
      <use xlink:href="#TimesNewRomanPSMT-72" transform="translate(294.384766 0)"/>
      <use xlink:href="#TimesNewRomanPSMT-20" transform="translate(327.685547 0)"/>
      <use xlink:href="#TimesNewRomanPSMT-6f" transform="translate(352.685547 0)"/>
      <use xlink:href="#TimesNewRomanPSMT-66" transform="translate(402.685547 0)"/>
      <use xlink:href="#TimesNewRomanPSMT-20" transform="translate(435.986328 0)"/>
      <use xlink:href="#TimesNewRomanPSMT-69" transform="translate(460.986328 0)"/>
      <use xlink:href="#TimesNewRomanPSMT-74" transform="translate(488.769531 0)"/>
      <use xlink:href="#TimesNewRomanPSMT-65" transform="translate(516.552734 0)"/>
      <use xlink:href="#TimesNewRomanPSMT-72" transform="translate(560.9375 0)"/>
      <use xlink:href="#TimesNewRomanPSMT-61" transform="translate(594.238281 0)"/>
      <use xlink:href="#TimesNewRomanPSMT-74" transform="translate(638.623047 0)"/>
      <use xlink:href="#TimesNewRomanPSMT-69" transform="translate(666.40625 0)"/>
      <use xlink:href="#TimesNewRomanPSMT-6f" transform="translate(694.189453 0)"/>
      <use xlink:href="#TimesNewRomanPSMT-6e" transform="translate(744.189453 0)"/>
      <use xlink:href="#TimesNewRomanPSMT-73" transform="translate(794.189453 0)"/>
     </g>
    </g>
   </g>
   <g id="matplotlib.axis_2">
    <g id="ytick_1">
     <g id="line2d_9">
      <path d="M 365.319 311.6435 
L 722.439 311.6435 
" clip-path="url(#p10dbcc3510)" style="fill: none; stroke: #b0b0b0; stroke-opacity: 0.3; stroke-width: 0.8; stroke-linecap: square"/>
     </g>
     <g id="line2d_10">
      <defs>
       <path id="m8b0a9dfe28" d="M 0 0 
L -3.5 0 
" style="stroke: #000000; stroke-width: 0.8"/>
      </defs>
      <g>
       <use xlink:href="#m8b0a9dfe28" x="365.319" y="311.6435" style="stroke: #000000; stroke-width: 0.8"/>
      </g>
     </g>
     <g id="text_6">
      <!-- 0.0 -->
      <g transform="translate(330.819 319.281625) scale(0.22 -0.22)">
       <defs>
        <path id="TimesNewRomanPSMT-2e" d="M 800 606 
Q 947 606 1047 504 
Q 1147 403 1147 259 
Q 1147 116 1045 14 
Q 944 -88 800 -88 
Q 656 -88 554 14 
Q 453 116 453 259 
Q 453 406 554 506 
Q 656 606 800 606 
z
" transform="scale(0.015625)"/>
       </defs>
       <use xlink:href="#TimesNewRomanPSMT-30"/>
       <use xlink:href="#TimesNewRomanPSMT-2e" transform="translate(50 0)"/>
       <use xlink:href="#TimesNewRomanPSMT-30" transform="translate(75 0)"/>
      </g>
     </g>
    </g>
    <g id="ytick_2">
     <g id="line2d_11">
      <path d="M 365.319 285.0323 
L 722.439 285.0323 
" clip-path="url(#p10dbcc3510)" style="fill: none; stroke: #b0b0b0; stroke-opacity: 0.3; stroke-width: 0.8; stroke-linecap: square"/>
     </g>
     <g id="line2d_12">
      <g>
       <use xlink:href="#m8b0a9dfe28" x="365.319" y="285.0323" style="stroke: #000000; stroke-width: 0.8"/>
      </g>
     </g>
     <g id="text_7">
      <!-- 0.1 -->
      <g transform="translate(330.819 292.670425) scale(0.22 -0.22)">
       <defs>
        <path id="TimesNewRomanPSMT-31" d="M 750 3822 
L 1781 4325 
L 1884 4325 
L 1884 747 
Q 1884 391 1914 303 
Q 1944 216 2037 169 
Q 2131 122 2419 116 
L 2419 0 
L 825 0 
L 825 116 
Q 1125 122 1212 167 
Q 1300 213 1334 289 
Q 1369 366 1369 747 
L 1369 3034 
Q 1369 3497 1338 3628 
Q 1316 3728 1258 3775 
Q 1200 3822 1119 3822 
Q 1003 3822 797 3725 
L 750 3822 
z
" transform="scale(0.015625)"/>
       </defs>
       <use xlink:href="#TimesNewRomanPSMT-30"/>
       <use xlink:href="#TimesNewRomanPSMT-2e" transform="translate(50 0)"/>
       <use xlink:href="#TimesNewRomanPSMT-31" transform="translate(75 0)"/>
      </g>
     </g>
    </g>
    <g id="ytick_3">
     <g id="line2d_13">
      <path d="M 365.319 258.4211 
L 722.439 258.4211 
" clip-path="url(#p10dbcc3510)" style="fill: none; stroke: #b0b0b0; stroke-opacity: 0.3; stroke-width: 0.8; stroke-linecap: square"/>
     </g>
     <g id="line2d_14">
      <g>
       <use xlink:href="#m8b0a9dfe28" x="365.319" y="258.4211" style="stroke: #000000; stroke-width: 0.8"/>
      </g>
     </g>
     <g id="text_8">
      <!-- 0.2 -->
      <g transform="translate(330.819 266.059225) scale(0.22 -0.22)">
       <use xlink:href="#TimesNewRomanPSMT-30"/>
       <use xlink:href="#TimesNewRomanPSMT-2e" transform="translate(50 0)"/>
       <use xlink:href="#TimesNewRomanPSMT-32" transform="translate(75 0)"/>
      </g>
     </g>
    </g>
    <g id="ytick_4">
     <g id="line2d_15">
      <path d="M 365.319 231.8099 
L 722.439 231.8099 
" clip-path="url(#p10dbcc3510)" style="fill: none; stroke: #b0b0b0; stroke-opacity: 0.3; stroke-width: 0.8; stroke-linecap: square"/>
     </g>
     <g id="line2d_16">
      <g>
       <use xlink:href="#m8b0a9dfe28" x="365.319" y="231.8099" style="stroke: #000000; stroke-width: 0.8"/>
      </g>
     </g>
     <g id="text_9">
      <!-- 0.3 -->
      <g transform="translate(330.819 239.448025) scale(0.22 -0.22)">
       <defs>
        <path id="TimesNewRomanPSMT-33" d="M 325 3431 
Q 506 3859 782 4092 
Q 1059 4325 1472 4325 
Q 1981 4325 2253 3994 
Q 2459 3747 2459 3466 
Q 2459 3003 1878 2509 
Q 2269 2356 2469 2072 
Q 2669 1788 2669 1403 
Q 2669 853 2319 450 
Q 1863 -75 997 -75 
Q 569 -75 414 31 
Q 259 138 259 259 
Q 259 350 332 419 
Q 406 488 509 488 
Q 588 488 669 463 
Q 722 447 909 348 
Q 1097 250 1169 231 
Q 1284 197 1416 197 
Q 1734 197 1970 444 
Q 2206 691 2206 1028 
Q 2206 1275 2097 1509 
Q 2016 1684 1919 1775 
Q 1784 1900 1550 2001 
Q 1316 2103 1072 2103 
L 972 2103 
L 972 2197 
Q 1219 2228 1467 2375 
Q 1716 2522 1828 2728 
Q 1941 2934 1941 3181 
Q 1941 3503 1739 3701 
Q 1538 3900 1238 3900 
Q 753 3900 428 3381 
L 325 3431 
z
" transform="scale(0.015625)"/>
       </defs>
       <use xlink:href="#TimesNewRomanPSMT-30"/>
       <use xlink:href="#TimesNewRomanPSMT-2e" transform="translate(50 0)"/>
       <use xlink:href="#TimesNewRomanPSMT-33" transform="translate(75 0)"/>
      </g>
     </g>
    </g>
    <g id="ytick_5">
     <g id="line2d_17">
      <path d="M 365.319 205.1987 
L 722.439 205.1987 
" clip-path="url(#p10dbcc3510)" style="fill: none; stroke: #b0b0b0; stroke-opacity: 0.3; stroke-width: 0.8; stroke-linecap: square"/>
     </g>
     <g id="line2d_18">
      <g>
       <use xlink:href="#m8b0a9dfe28" x="365.319" y="205.1987" style="stroke: #000000; stroke-width: 0.8"/>
      </g>
     </g>
     <g id="text_10">
      <!-- 0.4 -->
      <g transform="translate(330.819 212.836825) scale(0.22 -0.22)">
       <use xlink:href="#TimesNewRomanPSMT-30"/>
       <use xlink:href="#TimesNewRomanPSMT-2e" transform="translate(50 0)"/>
       <use xlink:href="#TimesNewRomanPSMT-34" transform="translate(75 0)"/>
      </g>
     </g>
    </g>
    <g id="ytick_6">
     <g id="line2d_19">
      <path d="M 365.319 178.5875 
L 722.439 178.5875 
" clip-path="url(#p10dbcc3510)" style="fill: none; stroke: #b0b0b0; stroke-opacity: 0.3; stroke-width: 0.8; stroke-linecap: square"/>
     </g>
     <g id="line2d_20">
      <g>
       <use xlink:href="#m8b0a9dfe28" x="365.319" y="178.5875" style="stroke: #000000; stroke-width: 0.8"/>
      </g>
     </g>
     <g id="text_11">
      <!-- 0.5 -->
      <g transform="translate(330.819 186.225625) scale(0.22 -0.22)">
       <defs>
        <path id="TimesNewRomanPSMT-35" d="M 2778 4238 
L 2534 3706 
L 1259 3706 
L 981 3138 
Q 1809 3016 2294 2522 
Q 2709 2097 2709 1522 
Q 2709 1188 2573 903 
Q 2438 619 2231 419 
Q 2025 219 1772 97 
Q 1413 -75 1034 -75 
Q 653 -75 479 54 
Q 306 184 306 341 
Q 306 428 378 495 
Q 450 563 559 563 
Q 641 563 702 538 
Q 763 513 909 409 
Q 1144 247 1384 247 
Q 1750 247 2026 523 
Q 2303 800 2303 1197 
Q 2303 1581 2056 1914 
Q 1809 2247 1375 2428 
Q 1034 2569 447 2591 
L 1259 4238 
L 2778 4238 
z
" transform="scale(0.015625)"/>
       </defs>
       <use xlink:href="#TimesNewRomanPSMT-30"/>
       <use xlink:href="#TimesNewRomanPSMT-2e" transform="translate(50 0)"/>
       <use xlink:href="#TimesNewRomanPSMT-35" transform="translate(75 0)"/>
      </g>
     </g>
    </g>
    <g id="ytick_7">
     <g id="line2d_21">
      <path d="M 365.319 151.9763 
L 722.439 151.9763 
" clip-path="url(#p10dbcc3510)" style="fill: none; stroke: #b0b0b0; stroke-opacity: 0.3; stroke-width: 0.8; stroke-linecap: square"/>
     </g>
     <g id="line2d_22">
      <g>
       <use xlink:href="#m8b0a9dfe28" x="365.319" y="151.9763" style="stroke: #000000; stroke-width: 0.8"/>
      </g>
     </g>
     <g id="text_12">
      <!-- 0.6 -->
      <g transform="translate(330.819 159.614425) scale(0.22 -0.22)">
       <use xlink:href="#TimesNewRomanPSMT-30"/>
       <use xlink:href="#TimesNewRomanPSMT-2e" transform="translate(50 0)"/>
       <use xlink:href="#TimesNewRomanPSMT-36" transform="translate(75 0)"/>
      </g>
     </g>
    </g>
    <g id="ytick_8">
     <g id="line2d_23">
      <path d="M 365.319 125.3651 
L 722.439 125.3651 
" clip-path="url(#p10dbcc3510)" style="fill: none; stroke: #b0b0b0; stroke-opacity: 0.3; stroke-width: 0.8; stroke-linecap: square"/>
     </g>
     <g id="line2d_24">
      <g>
       <use xlink:href="#m8b0a9dfe28" x="365.319" y="125.3651" style="stroke: #000000; stroke-width: 0.8"/>
      </g>
     </g>
     <g id="text_13">
      <!-- 0.7 -->
      <g transform="translate(330.819 133.003225) scale(0.22 -0.22)">
       <defs>
        <path id="TimesNewRomanPSMT-37" d="M 644 4238 
L 2916 4238 
L 2916 4119 
L 1503 -88 
L 1153 -88 
L 2419 3728 
L 1253 3728 
Q 900 3728 750 3644 
Q 488 3500 328 3200 
L 238 3234 
L 644 4238 
z
" transform="scale(0.015625)"/>
       </defs>
       <use xlink:href="#TimesNewRomanPSMT-30"/>
       <use xlink:href="#TimesNewRomanPSMT-2e" transform="translate(50 0)"/>
       <use xlink:href="#TimesNewRomanPSMT-37" transform="translate(75 0)"/>
      </g>
     </g>
    </g>
    <g id="ytick_9">
     <g id="line2d_25">
      <path d="M 365.319 98.7539 
L 722.439 98.7539 
" clip-path="url(#p10dbcc3510)" style="fill: none; stroke: #b0b0b0; stroke-opacity: 0.3; stroke-width: 0.8; stroke-linecap: square"/>
     </g>
     <g id="line2d_26">
      <g>
       <use xlink:href="#m8b0a9dfe28" x="365.319" y="98.7539" style="stroke: #000000; stroke-width: 0.8"/>
      </g>
     </g>
     <g id="text_14">
      <!-- 0.8 -->
      <g transform="translate(330.819 106.392025) scale(0.22 -0.22)">
       <defs>
        <path id="TimesNewRomanPSMT-38" d="M 1228 2134 
Q 725 2547 579 2797 
Q 434 3047 434 3316 
Q 434 3728 753 4026 
Q 1072 4325 1600 4325 
Q 2113 4325 2425 4047 
Q 2738 3769 2738 3413 
Q 2738 3175 2569 2928 
Q 2400 2681 1866 2347 
Q 2416 1922 2594 1678 
Q 2831 1359 2831 1006 
Q 2831 559 2490 242 
Q 2150 -75 1597 -75 
Q 994 -75 656 303 
Q 388 606 388 966 
Q 388 1247 577 1523 
Q 766 1800 1228 2134 
z
M 1719 2469 
Q 2094 2806 2194 3001 
Q 2294 3197 2294 3444 
Q 2294 3772 2109 3958 
Q 1925 4144 1606 4144 
Q 1288 4144 1088 3959 
Q 888 3775 888 3528 
Q 888 3366 970 3203 
Q 1053 3041 1206 2894 
L 1719 2469 
z
M 1375 2016 
Q 1116 1797 991 1539 
Q 866 1281 866 981 
Q 866 578 1086 336 
Q 1306 94 1647 94 
Q 1984 94 2187 284 
Q 2391 475 2391 747 
Q 2391 972 2272 1150 
Q 2050 1481 1375 2016 
z
" transform="scale(0.015625)"/>
       </defs>
       <use xlink:href="#TimesNewRomanPSMT-30"/>
       <use xlink:href="#TimesNewRomanPSMT-2e" transform="translate(50 0)"/>
       <use xlink:href="#TimesNewRomanPSMT-38" transform="translate(75 0)"/>
      </g>
     </g>
    </g>
    <g id="ytick_10">
     <g id="line2d_27">
      <path d="M 365.319 72.1427 
L 722.439 72.1427 
" clip-path="url(#p10dbcc3510)" style="fill: none; stroke: #b0b0b0; stroke-opacity: 0.3; stroke-width: 0.8; stroke-linecap: square"/>
     </g>
     <g id="line2d_28">
      <g>
       <use xlink:href="#m8b0a9dfe28" x="365.319" y="72.1427" style="stroke: #000000; stroke-width: 0.8"/>
      </g>
     </g>
     <g id="text_15">
      <!-- 0.9 -->
      <g transform="translate(330.819 79.780825) scale(0.22 -0.22)">
       <defs>
        <path id="TimesNewRomanPSMT-39" d="M 338 -88 
L 338 28 
Q 744 34 1094 217 
Q 1444 400 1770 856 
Q 2097 1313 2225 1859 
Q 1734 1544 1338 1544 
Q 891 1544 572 1889 
Q 253 2234 253 2806 
Q 253 3363 572 3797 
Q 956 4325 1575 4325 
Q 2097 4325 2469 3894 
Q 2925 3359 2925 2575 
Q 2925 1869 2578 1258 
Q 2231 647 1613 244 
Q 1109 -88 516 -88 
L 338 -88 
z
M 2275 2091 
Q 2331 2497 2331 2741 
Q 2331 3044 2228 3395 
Q 2125 3747 1936 3934 
Q 1747 4122 1506 4122 
Q 1228 4122 1018 3872 
Q 809 3622 809 3128 
Q 809 2469 1088 2097 
Q 1291 1828 1588 1828 
Q 1731 1828 1928 1897 
Q 2125 1966 2275 2091 
z
" transform="scale(0.015625)"/>
       </defs>
       <use xlink:href="#TimesNewRomanPSMT-30"/>
       <use xlink:href="#TimesNewRomanPSMT-2e" transform="translate(50 0)"/>
       <use xlink:href="#TimesNewRomanPSMT-39" transform="translate(75 0)"/>
      </g>
     </g>
    </g>
    <g id="ytick_11">
     <g id="line2d_29">
      <path d="M 365.319 45.5315 
L 722.439 45.5315 
" clip-path="url(#p10dbcc3510)" style="fill: none; stroke: #b0b0b0; stroke-opacity: 0.3; stroke-width: 0.8; stroke-linecap: square"/>
     </g>
     <g id="line2d_30">
      <g>
       <use xlink:href="#m8b0a9dfe28" x="365.319" y="45.5315" style="stroke: #000000; stroke-width: 0.8"/>
      </g>
     </g>
     <g id="text_16">
      <!-- 1.0 -->
      <g transform="translate(330.819 53.169625) scale(0.22 -0.22)">
       <use xlink:href="#TimesNewRomanPSMT-31"/>
       <use xlink:href="#TimesNewRomanPSMT-2e" transform="translate(50 0)"/>
       <use xlink:href="#TimesNewRomanPSMT-30" transform="translate(75 0)"/>
      </g>
     </g>
    </g>
    <g id="text_17">
     <!-- Accuracy -->
     <g transform="translate(322.071812 220.726094) rotate(-90) scale(0.22 -0.22)">
      <defs>
       <path id="TimesNewRomanPSMT-41" d="M 2928 1419 
L 1288 1419 
L 1000 750 
Q 894 503 894 381 
Q 894 284 986 211 
Q 1078 138 1384 116 
L 1384 0 
L 50 0 
L 50 116 
Q 316 163 394 238 
Q 553 388 747 847 
L 2238 4334 
L 2347 4334 
L 3822 809 
Q 4000 384 4145 257 
Q 4291 131 4550 116 
L 4550 0 
L 2878 0 
L 2878 116 
Q 3131 128 3220 200 
Q 3309 272 3309 375 
Q 3309 513 3184 809 
L 2928 1419 
z
M 2841 1650 
L 2122 3363 
L 1384 1650 
L 2841 1650 
z
" transform="scale(0.015625)"/>
       <path id="TimesNewRomanPSMT-63" d="M 2631 1088 
Q 2516 522 2178 217 
Q 1841 -88 1431 -88 
Q 944 -88 581 321 
Q 219 731 219 1428 
Q 219 2103 620 2525 
Q 1022 2947 1584 2947 
Q 2006 2947 2278 2723 
Q 2550 2500 2550 2259 
Q 2550 2141 2473 2067 
Q 2397 1994 2259 1994 
Q 2075 1994 1981 2113 
Q 1928 2178 1911 2362 
Q 1894 2547 1784 2644 
Q 1675 2738 1481 2738 
Q 1169 2738 978 2506 
Q 725 2200 725 1697 
Q 725 1184 976 792 
Q 1228 400 1656 400 
Q 1963 400 2206 609 
Q 2378 753 2541 1131 
L 2631 1088 
z
" transform="scale(0.015625)"/>
       <path id="TimesNewRomanPSMT-79" d="M 38 2863 
L 1372 2863 
L 1372 2747 
L 1306 2747 
Q 1166 2747 1095 2686 
Q 1025 2625 1025 2534 
Q 1025 2413 1128 2197 
L 1825 753 
L 2466 2334 
Q 2519 2463 2519 2588 
Q 2519 2644 2497 2672 
Q 2472 2706 2419 2726 
Q 2366 2747 2231 2747 
L 2231 2863 
L 3163 2863 
L 3163 2747 
Q 3047 2734 2984 2696 
Q 2922 2659 2847 2556 
Q 2819 2513 2741 2316 
L 1575 -541 
Q 1406 -956 1132 -1168 
Q 859 -1381 606 -1381 
Q 422 -1381 303 -1275 
Q 184 -1169 184 -1031 
Q 184 -900 270 -820 
Q 356 -741 506 -741 
Q 609 -741 788 -809 
Q 913 -856 944 -856 
Q 1038 -856 1148 -759 
Q 1259 -663 1372 -384 
L 1575 113 
L 547 2272 
Q 500 2369 397 2513 
Q 319 2622 269 2659 
Q 197 2709 38 2747 
L 38 2863 
z
" transform="scale(0.015625)"/>
      </defs>
      <use xlink:href="#TimesNewRomanPSMT-41"/>
      <use xlink:href="#TimesNewRomanPSMT-63" transform="translate(72.216797 0)"/>
      <use xlink:href="#TimesNewRomanPSMT-63" transform="translate(116.601562 0)"/>
      <use xlink:href="#TimesNewRomanPSMT-75" transform="translate(160.986328 0)"/>
      <use xlink:href="#TimesNewRomanPSMT-72" transform="translate(210.986328 0)"/>
      <use xlink:href="#TimesNewRomanPSMT-61" transform="translate(244.287109 0)"/>
      <use xlink:href="#TimesNewRomanPSMT-63" transform="translate(288.671875 0)"/>
      <use xlink:href="#TimesNewRomanPSMT-79" transform="translate(333.056641 0)"/>
     </g>
    </g>
   </g>
   <g id="line2d_31">
    <path d="M 365.319 188.832807 
L 365.509489 127.760096 
L 365.699979 122.171753 
L 365.747601 122.837032 
L 365.795223 122.70397 
L 365.985713 119.776744 
L 366.033335 120.042852 
L 366.176202 119.111464 
L 366.319069 119.643682 
L 366.652426 116.716456 
L 366.74767 116.982564 
L 366.795293 117.913952 
L 366.842915 117.248673 
L 366.985782 115.385897 
L 367.033405 116.184223 
L 367.081027 115.918114 
L 367.271516 114.055338 
L 367.319139 116.051176 
L 367.366761 114.720617 
L 367.55725 112.591717 
L 367.700117 114.188384 
L 367.842985 112.059484 
L 367.938229 114.986726 
L 367.985852 111.926438 
L 368.033474 113.256997 
L 368.128719 112.724764 
L 368.271586 113.256997 
L 368.36683 112.990888 
L 368.414453 113.523105 
L 368.462075 112.724764 
L 368.55732 112.990888 
L 368.747809 112.724764 
L 368.795432 112.724764 
L 368.843054 112.591717 
L 368.890676 112.857826 
L 369.033543 111.527267 
L 369.081166 111.926438 
L 369.128788 111.527267 
L 369.224033 112.857826 
L 369.271655 112.192546 
L 369.3669 112.458655 
L 369.509767 110.99505 
L 369.605011 112.458655 
L 369.700256 110.728925 
L 369.747879 111.261158 
L 369.795501 110.462817 
L 369.843123 110.595879 
L 369.98599 111.261158 
L 370.033613 112.724764 
L 370.128857 110.196708 
L 370.17648 111.261158 
L 370.319347 111.527267 
L 370.366969 111.660329 
L 370.509836 110.063646 
L 370.557458 109.664475 
L 370.652703 111.793376 
L 370.700326 111.394205 
L 370.747948 109.664475 
L 370.843193 110.196708 
L 370.890815 109.9306 
L 370.98606 111.128096 
L 371.033682 109.9306 
L 371.081304 110.063646 
L 371.128927 110.99505 
L 371.176549 110.728925 
L 371.224171 109.664475 
L 371.271794 110.728925 
L 371.319416 110.728925 
L 371.367038 109.531429 
L 371.414661 110.063646 
L 371.462283 111.926438 
L 371.509905 109.797537 
L 371.557528 110.329755 
L 371.60515 109.9306 
L 371.700395 110.462817 
L 371.748017 110.329755 
L 371.843262 109.664475 
L 371.938507 111.394205 
L 371.986129 110.99505 
L 372.033751 109.664475 
L 372.128996 109.797537 
L 372.271863 109.26532 
L 372.462352 110.728925 
L 372.557597 109.531429 
L 372.605219 109.797537 
L 372.652842 109.664475 
L 372.700464 110.462817 
L 372.748087 110.329755 
L 372.795709 109.531429 
L 372.890954 109.664475 
L 372.986198 109.132258 
L 373.176688 110.063646 
L 373.22431 109.132258 
L 373.271932 109.664475 
L 373.367177 110.462817 
L 373.510044 109.26532 
L 373.557666 109.398367 
L 373.748156 110.595879 
L 373.891023 109.9306 
L 373.938645 110.196708 
L 373.986268 109.398367 
L 374.03389 110.329755 
L 374.081512 110.196708 
L 374.129135 109.26532 
L 374.224379 109.531429 
L 374.272002 109.26532 
L 374.319624 109.9306 
L 374.367246 109.797537 
L 374.462491 109.132258 
L 374.557736 109.26532 
L 374.700603 109.398367 
L 374.748225 109.26532 
L 374.795848 108.600041 
L 374.84347 109.132258 
L 374.938715 109.398367 
L 375.081582 108.333917 
L 375.129204 109.26532 
L 375.224449 109.132258 
L 375.272071 109.531429 
L 375.319693 109.26532 
L 375.367316 108.733087 
L 375.414938 109.664475 
L 375.46256 108.20087 
L 375.510183 109.531429 
L 375.65305 109.132258 
L 375.748295 108.999196 
L 375.795917 109.132258 
L 375.843539 108.733087 
L 375.891162 110.063646 
L 375.938784 108.600041 
L 376.081651 109.26532 
L 376.319763 108.20087 
L 376.46263 108.600041 
L 376.510252 108.600041 
L 376.557875 108.20087 
L 376.605497 108.333917 
L 376.748364 109.26532 
L 376.795986 108.999196 
L 376.986476 107.801699 
L 377.034098 108.067808 
L 377.176965 107.668637 
L 377.224587 108.733087 
L 377.27221 108.333917 
L 377.319832 107.402529 
L 377.415077 107.535591 
L 377.462699 107.535591 
L 377.653189 108.067808 
L 377.700811 108.733087 
L 377.748433 108.20087 
L 377.796056 108.067808 
L 377.843678 107.269482 
L 377.8913 107.402529 
L 377.938923 107.934762 
L 377.986545 107.402529 
L 378.129412 108.20087 
L 378.177034 107.934762 
L 378.224657 107.535591 
L 378.319901 107.668637 
L 378.367524 107.801699 
L 378.415146 107.535591 
L 378.462769 107.668637 
L 378.605636 107.668637 
L 378.653258 107.801699 
L 378.70088 107.668637 
L 378.748503 107.668637 
L 378.843747 107.402529 
L 378.938992 108.067808 
L 379.034237 107.13642 
L 379.081859 107.934762 
L 379.129481 107.801699 
L 379.272348 107.402529 
L 379.319971 107.668637 
L 379.367593 107.402529 
L 379.51046 107.535591 
L 379.605705 107.13642 
L 379.70095 107.934762 
L 379.748572 107.801699 
L 379.939061 107.535591 
L 379.986684 107.668637 
L 380.034306 107.535591 
L 380.177173 107.003358 
L 380.224795 107.269482 
L 380.367662 108.20087 
L 380.51053 106.870311 
L 380.605774 107.269482 
L 380.653397 107.13642 
L 380.701019 106.604187 
L 380.748641 107.668637 
L 380.796264 107.402529 
L 381.034375 106.870311 
L 381.224865 107.13642 
L 381.272487 106.870311 
L 381.367732 107.402529 
L 381.415354 107.13642 
L 381.462977 106.870311 
L 381.558221 107.269482 
L 381.605844 107.13642 
L 381.748711 106.604187 
L 381.891578 106.870311 
L 381.9392 106.471141 
L 382.034445 106.604187 
L 382.177312 106.737249 
L 382.224934 106.737249 
L 382.272556 107.003358 
L 382.415424 106.205032 
L 382.558291 106.870311 
L 382.701158 106.737249 
L 382.74878 106.737249 
L 382.844025 106.07197 
L 382.891647 106.870311 
L 382.939269 106.604187 
L 383.082136 106.471141 
L 383.177381 106.737249 
L 383.272626 106.338078 
L 383.415493 106.870311 
L 383.55836 106.471141 
L 383.605982 106.737249 
L 383.653605 106.604187 
L 383.701227 106.471141 
L 383.748849 106.604187 
L 383.891716 106.737249 
L 383.939339 106.737249 
L 384.034583 106.205032 
L 384.17745 107.003358 
L 384.272695 106.205032 
L 384.320318 106.737249 
L 384.36794 106.870311 
L 384.415562 106.737249 
L 384.558429 106.205032 
L 384.701296 106.870311 
L 384.796541 105.805861 
L 384.939408 107.003358 
L 384.98703 106.07197 
L 385.034653 106.604187 
L 385.082275 106.870311 
L 385.129897 106.604187 
L 385.225142 105.805861 
L 385.272765 106.07197 
L 385.368009 106.737249 
L 385.415632 106.338078 
L 385.510876 106.205032 
L 385.653743 106.737249 
L 385.79661 106.338078 
L 385.939477 106.471141 
L 386.082344 105.805861 
L 386.177589 106.737249 
L 386.225211 105.805861 
L 386.272834 106.07197 
L 386.368079 106.870311 
L 386.510946 105.805861 
L 386.701435 106.604187 
L 386.749057 106.471141 
L 386.79668 105.805861 
L 386.844302 105.938908 
L 386.891924 106.338078 
L 386.987169 106.205032 
L 387.082414 106.737249 
L 387.225281 105.938908 
L 387.320526 106.338078 
L 387.368148 105.805861 
L 387.41577 106.07197 
L 387.463393 106.07197 
L 387.60626 106.205032 
L 387.844371 106.205032 
L 388.034861 105.805861 
L 388.130105 106.205032 
L 388.177728 106.07197 
L 388.272973 106.07197 
L 388.320595 106.338078 
L 388.368217 106.205032 
L 388.463462 106.205032 
L 388.511084 106.338078 
L 388.606329 105.539753 
L 388.653951 106.205032 
L 388.749196 106.07197 
L 388.796818 105.938908 
L 388.844441 106.07197 
L 388.939685 106.338078 
L 388.987308 106.205032 
L 389.082552 106.205032 
L 389.130175 106.07197 
L 389.177797 106.604187 
L 389.22542 106.471141 
L 389.273042 105.938908 
L 389.320664 106.07197 
L 389.368287 106.338078 
L 389.511154 105.40669 
L 389.654021 105.938908 
L 389.701643 105.672799 
L 389.796888 106.07197 
L 389.84451 105.672799 
L 389.939755 105.805861 
L 389.987377 106.338078 
L 390.034999 105.805861 
L 390.082622 105.805861 
L 390.177867 106.338078 
L 390.225489 105.672799 
L 390.273111 105.805861 
L 390.368356 106.338078 
L 390.415978 106.205032 
L 390.463601 105.938908 
L 390.606468 106.604187 
L 390.749335 105.938908 
L 390.892202 106.604187 
L 390.939824 105.672799 
L 390.987446 106.604187 
L 391.130314 105.805861 
L 391.273181 106.338078 
L 391.416048 106.07197 
L 391.558915 106.205032 
L 391.654159 105.805861 
L 391.701782 105.938908 
L 391.844649 106.07197 
L 391.892271 106.07197 
L 391.987516 105.539753 
L 392.082761 106.07197 
L 392.178005 105.539753 
L 392.225628 105.938908 
L 392.27325 105.805861 
L 392.368495 105.273628 
L 392.416117 105.40669 
L 392.463739 105.539753 
L 392.511362 105.273628 
L 392.558984 105.539753 
L 392.654229 105.539753 
L 392.701851 105.40669 
L 392.749473 105.672799 
L 392.797096 105.539753 
L 392.844718 105.40669 
L 392.89234 105.539753 
L 392.939963 105.805861 
L 392.987585 105.539753 
L 393.035207 105.539753 
L 393.130452 105.805861 
L 393.178075 105.539753 
L 393.225697 105.805861 
L 393.273319 105.805861 
L 393.320942 105.938908 
L 393.416186 105.40669 
L 393.511431 105.805861 
L 393.606676 105.140582 
L 393.749543 105.805861 
L 393.89241 105.539753 
L 393.940032 105.805861 
L 393.987654 105.672799 
L 394.035277 105.40669 
L 394.130522 105.805861 
L 394.178144 105.539753 
L 394.225766 105.805861 
L 394.368633 105.672799 
L 394.416256 105.805861 
L 394.463878 105.672799 
L 394.559123 105.40669 
L 394.606745 105.539753 
L 394.654367 105.672799 
L 394.749612 105.40669 
L 394.797234 105.672799 
L 394.844857 105.40669 
L 394.987724 105.539753 
L 395.082969 105.539753 
L 395.225836 105.40669 
L 395.273458 105.539753 
L 395.32108 105.273628 
L 395.368703 105.40669 
L 395.416325 105.539753 
L 395.463947 105.40669 
L 395.51157 105.273628 
L 395.606814 105.539753 
L 395.749681 105.40669 
L 395.797304 105.539753 
L 395.844926 105.40669 
L 395.892548 105.40669 
L 396.035416 105.539753 
L 396.083038 105.539753 
L 396.13066 105.273628 
L 396.178283 105.40669 
L 396.32115 105.539753 
L 396.368772 105.539753 
L 396.416394 105.273628 
L 396.464017 105.40669 
L 396.511639 105.40669 
L 396.606884 105.539753 
L 396.797373 105.140582 
L 396.892618 105.40669 
L 396.94024 105.273628 
L 397.083107 105.140582 
L 397.13073 105.140582 
L 397.321219 104.874473 
L 397.464086 105.00752 
L 397.606953 104.874473 
L 397.74982 105.00752 
L 397.845065 105.00752 
L 398.035554 104.741411 
L 398.130799 105.140582 
L 398.178421 104.874473 
L 398.321288 104.741411 
L 398.416533 104.741411 
L 398.464155 105.00752 
L 398.511778 104.741411 
L 398.5594 104.741411 
L 398.607022 105.00752 
L 398.654645 104.741411 
L 398.702267 104.741411 
L 398.797512 105.00752 
L 398.892757 104.741411 
L 398.940379 105.273628 
L 398.988001 104.741411 
L 399.035624 104.608349 
L 399.083246 105.140582 
L 399.130868 104.874473 
L 399.178491 104.34224 
L 399.226113 104.741411 
L 399.273735 105.140582 
L 399.36898 104.209194 
L 399.464225 105.140582 
L 399.559469 104.209194 
L 399.607092 105.140582 
L 399.654714 104.475303 
L 399.702336 104.209194 
L 399.797581 104.741411 
L 399.892826 104.209194 
L 399.940448 104.874473 
L 399.988071 104.608349 
L 400.035693 104.209194 
L 400.083315 104.608349 
L 400.130938 104.874473 
L 400.226182 104.209194 
L 400.273805 104.874473 
L 400.321427 104.741411 
L 400.416672 104.475303 
L 400.464294 105.00752 
L 400.511916 104.475303 
L 400.654783 105.00752 
L 400.750028 104.475303 
L 400.79765 104.608349 
L 400.845273 105.00752 
L 400.892895 104.741411 
L 400.940518 104.741411 
L 401.035762 104.874473 
L 401.131007 104.741411 
L 401.226252 104.874473 
L 401.321496 104.741411 
L 401.416741 104.874473 
L 401.464363 104.608349 
L 401.511986 104.874473 
L 401.60723 104.874473 
L 401.702475 104.741411 
L 401.845342 105.00752 
L 401.988209 104.34224 
L 402.083454 104.741411 
L 402.178699 104.076132 
L 402.273943 104.741411 
L 402.321566 104.076132 
L 402.369188 104.209194 
L 402.41681 104.608349 
L 402.464433 104.34224 
L 402.512055 103.94307 
L 402.559677 104.34224 
L 402.6073 104.34224 
L 402.702544 103.94307 
L 402.797789 104.34224 
L 402.845412 103.810023 
L 402.893034 104.076132 
L 402.940656 104.076132 
L 403.035901 103.810023 
L 403.083523 103.94307 
L 403.131146 103.810023 
L 403.321635 103.810023 
L 403.369257 103.676961 
L 403.41688 103.94307 
L 403.464502 103.676961 
L 403.512124 103.676961 
L 403.654991 103.94307 
L 403.750236 103.676961 
L 403.845481 103.94307 
L 403.893103 103.810023 
L 403.940726 103.94307 
L 403.988348 103.94307 
L 404.03597 103.810023 
L 404.083593 103.94307 
L 404.131215 103.94307 
L 404.178837 103.810023 
L 404.274082 104.076132 
L 404.369327 103.810023 
L 404.416949 103.94307 
L 404.464571 103.810023 
L 404.607438 103.810023 
L 404.702683 104.34224 
L 404.750306 105.539753 
L 404.797928 176.325537 
L 404.84555 128.425376 
L 404.940795 104.874473 
L 404.988417 108.999196 
L 405.083662 104.076132 
L 405.131284 104.34224 
L 405.178907 105.938908 
L 405.226529 104.608349 
L 405.369396 104.076132 
L 405.464641 104.475303 
L 405.607508 104.209194 
L 405.750375 104.076132 
L 405.893242 104.475303 
L 405.940864 104.34224 
L 406.036109 104.34224 
L 406.178976 104.209194 
L 406.226598 104.209194 
L 406.46471 103.676961 
L 406.655199 103.94307 
L 406.798067 103.810023 
L 406.893311 103.810023 
L 406.988556 103.94307 
L 407.036178 103.810023 
L 407.083801 103.94307 
L 407.988625 103.94307 
L 408.131492 103.676961 
L 408.179115 103.676961 
L 408.369604 103.94307 
L 408.464849 103.810023 
L 408.655338 104.076132 
L 408.702961 104.076132 
L 408.845828 103.810023 
L 409.036317 104.076132 
L 409.560163 104.076132 
L 409.70303 104.209194 
L 409.750652 104.209194 
L 409.893519 104.076132 
L 410.084009 104.076132 
L 410.226876 103.94307 
L 410.798344 103.94307 
L 410.941211 103.810023 
L 413.179461 103.810023 
L 413.322328 103.94307 
L 413.417573 103.94307 
L 413.465195 104.076132 
L 413.512818 103.94307 
L 415.227222 103.94307 
L 415.370089 103.810023 
L 415.703446 103.810023 
L 415.846313 103.676961 
L 416.132047 103.676961 
L 416.274914 103.543899 
L 416.751138 103.543899 
L 416.894005 103.410852 
L 417.751207 103.410852 
L 417.894074 103.27779 
L 418.989388 103.27779 
L 419.132255 103.144744 
L 419.275122 103.144744 
L 419.417989 103.27779 
L 419.608479 103.27779 
L 419.751346 103.144744 
L 420.084702 103.144744 
L 420.227569 103.011682 
L 422.084841 103.011682 
L 422.227708 103.144744 
L 422.608687 103.144744 
L 422.751554 103.27779 
L 422.942043 103.27779 
L 423.08491 103.144744 
L 423.989735 103.144744 
L 424.132602 103.011682 
L 424.942182 103.011682 
L 425.085049 103.144744 
L 425.227916 103.144744 
L 425.370783 103.27779 
L 425.656517 103.27779 
L 425.704139 103.144744 
L 425.751762 103.27779 
L 426.275608 103.27779 
L 426.466097 103.011682 
L 426.989943 103.011682 
L 427.13281 102.878619 
L 428.466236 102.878619 
L 428.56148 102.745573 
L 428.609103 102.878619 
L 428.656725 102.745573 
L 430.942598 102.745573 
L 431.133087 102.479464 
L 431.18071 102.612511 
L 431.228332 102.479464 
L 431.323577 102.479464 
L 431.371199 102.346402 
L 431.418821 102.479464 
L 431.514066 102.479464 
L 431.561688 102.612511 
L 431.609311 102.479464 
L 432.704625 102.479464 
L 432.847492 102.346402 
L 433.609449 102.346402 
L 433.657072 102.479464 
L 433.704694 102.346402 
L 434.942875 102.346402 
L 435.085742 102.21334 
L 435.800077 102.21334 
L 435.895322 102.346402 
L 436.038189 102.21334 
L 436.085812 102.21334 
L 436.228679 102.346402 
L 439.943222 102.346402 
L 440.086089 102.479464 
L 440.895669 102.479464 
L 441.038536 102.346402 
L 441.32427 102.346402 
L 441.371892 102.479464 
L 441.419515 102.346402 
L 441.467137 102.346402 
L 441.514759 102.479464 
L 441.562382 102.346402 
L 441.610004 102.346402 
L 441.752871 102.479464 
L 441.848116 102.479464 
L 441.943361 102.346402 
L 441.990983 102.479464 
L 442.038605 102.21334 
L 442.086228 102.479464 
L 442.276717 102.080294 
L 442.419584 102.21334 
L 442.514829 102.21334 
L 442.657696 102.346402 
L 442.752941 102.21334 
L 442.895808 102.346402 
L 443.038675 102.21334 
L 443.276786 102.21334 
L 443.324409 102.346402 
L 443.372031 102.21334 
L 443.56252 102.21334 
L 443.610143 102.479464 
L 443.657765 102.21334 
L 443.75301 102.21334 
L 443.848255 102.346402 
L 443.943499 102.21334 
L 444.086366 102.346402 
L 444.800702 102.346402 
L 444.848324 102.479464 
L 444.895946 102.346402 
L 445.276925 102.346402 
L 445.324547 102.612511 
L 445.37217 102.479464 
L 445.419792 102.346402 
L 445.467414 102.479464 
L 445.610282 102.479464 
L 445.753149 102.612511 
L 445.896016 102.612511 
L 445.943638 102.745573 
L 445.99126 102.612511 
L 446.134127 102.479464 
L 446.18175 102.479464 
L 446.276994 102.612511 
L 446.324617 102.479464 
L 446.372239 102.612511 
L 446.419861 102.612511 
L 446.515106 102.479464 
L 446.657973 102.612511 
L 446.705596 102.612511 
L 446.896085 103.144744 
L 446.943707 103.676961 
L 446.99133 177.52305 
L 447.038952 150.246564 
L 447.134197 107.668637 
L 447.181819 112.192546 
L 447.324686 104.608349 
L 447.372308 104.608349 
L 447.419931 105.00752 
L 447.467553 103.810023 
L 447.562798 104.076132 
L 447.61042 103.543899 
L 447.705665 103.676961 
L 447.848532 103.543899 
L 447.896154 103.676961 
L 447.943777 103.410852 
L 447.991399 103.543899 
L 448.181888 103.810023 
L 448.324755 103.810023 
L 448.467622 103.94307 
L 448.515245 103.94307 
L 448.658112 103.810023 
L 448.848601 103.810023 
L 448.943846 103.94307 
L 449.039091 103.810023 
L 449.22958 104.076132 
L 449.277202 103.94307 
L 449.324825 104.076132 
L 449.515314 104.608349 
L 449.562937 104.741411 
L 449.705804 104.34224 
L 449.753426 104.34224 
L 449.848671 104.076132 
L 449.991538 104.475303 
L 450.420139 104.475303 
L 450.563006 104.741411 
L 450.801118 104.741411 
L 450.991607 104.475303 
L 451.039229 104.475303 
L 451.182096 104.34224 
L 451.372586 104.34224 
L 451.515453 104.475303 
L 451.563075 104.475303 
L 451.753565 104.209194 
L 451.991676 104.209194 
L 452.134543 104.34224 
L 452.27741 104.34224 
L 452.515522 103.94307 
L 452.706012 103.94307 
L 452.753634 104.076132 
L 452.801256 103.94307 
L 452.991746 103.94307 
L 453.182235 103.676961 
L 453.325102 103.676961 
L 453.467969 103.810023 
L 453.658459 103.810023 
L 453.801326 103.94307 
L 453.848948 103.94307 
L 453.991815 104.076132 
L 454.08706 104.076132 
L 454.229927 103.94307 
L 454.420416 103.94307 
L 454.563283 103.810023 
L 454.70615 103.810023 
L 454.849017 103.676961 
L 455.039507 103.676961 
L 455.229996 103.410852 
L 455.896709 103.410852 
L 455.991954 103.543899 
L 456.134821 103.410852 
L 456.5158 103.410852 
L 456.658667 103.27779 
L 457.515869 103.27779 
L 457.658736 103.144744 
L 458.896917 103.144744 
L 459.039784 103.27779 
L 459.658875 103.27779 
L 459.801742 103.144744 
L 460.9923 103.144744 
L 461.135167 102.745573 
L 462.516216 102.745573 
L 462.659083 102.878619 
L 463.087684 102.878619 
L 463.230551 103.011682 
L 463.278173 103.011682 
L 463.468663 102.745573 
L 463.706774 102.745573 
L 463.849641 102.878619 
L 464.944955 102.878619 
L 465.087823 103.011682 
L 465.516424 103.011682 
L 465.659291 103.144744 
L 466.706982 103.144744 
L 466.849849 103.410852 
L 467.707052 103.410852 
L 467.849919 103.27779 
L 469.659568 103.27779 
L 469.850057 103.011682 
L 470.231036 103.011682 
L 470.373903 102.878619 
L 470.802504 102.878619 
L 470.945372 102.745573 
L 472.13593 102.745573 
L 472.278797 102.612511 
L 473.136 102.612511 
L 473.278867 102.745573 
L 473.469356 102.745573 
L 473.612223 102.878619 
L 474.755159 102.878619 
L 474.898027 102.745573 
L 477.041032 102.745573 
L 477.183899 102.878619 
L 477.80299 102.878619 
L 477.945857 102.745573 
L 478.041102 102.745573 
L 478.183969 102.878619 
L 478.755437 102.878619 
L 478.898304 103.011682 
L 479.42215 103.011682 
L 479.612639 103.543899 
L 479.660262 103.27779 
L 479.707884 103.810023 
L 479.755506 103.543899 
L 479.850751 103.011682 
L 479.898373 103.144744 
L 480.184107 103.676961 
L 480.23173 103.676961 
L 480.326974 103.810023 
L 480.469841 103.410852 
L 480.565086 103.410852 
L 480.660331 103.27779 
L 480.85082 103.543899 
L 480.993687 103.543899 
L 481.231799 103.94307 
L 481.374666 103.94307 
L 481.6604 103.410852 
L 481.803267 103.410852 
L 481.946134 103.27779 
L 482.041379 103.27779 
L 482.279491 103.676961 
L 482.46998 103.676961 
L 482.612847 103.543899 
L 482.850959 103.543899 
L 482.993826 103.410852 
L 483.136693 103.410852 
L 483.27956 103.543899 
L 483.470049 103.543899 
L 483.517672 103.410852 
L 483.565294 103.543899 
L 483.755784 103.543899 
L 483.898651 103.676961 
L 484.041518 103.676961 
L 484.184385 103.543899 
L 484.327252 103.543899 
L 484.470119 103.676961 
L 484.612986 103.543899 
L 484.755853 103.543899 
L 484.89872 103.810023 
L 484.946342 103.676961 
L 484.993965 103.810023 
L 486.613125 103.810023 
L 486.755992 103.94307 
L 487.279837 103.94307 
L 487.422704 104.076132 
L 487.660816 104.076132 
L 487.803683 104.209194 
L 488.041795 104.209194 
L 488.089417 104.076132 
L 488.13704 104.209194 
L 488.184662 104.209194 
L 488.327529 104.076132 
L 488.375151 104.076132 
L 488.518019 103.94307 
L 488.660886 104.076132 
L 488.851375 104.076132 
L 488.94662 104.209194 
L 488.994242 104.076132 
L 489.041864 104.209194 
L 490.661024 104.209194 
L 490.803891 104.076132 
L 492.042072 104.076132 
L 492.184939 103.94307 
L 494.042211 103.94307 
L 494.185078 103.810023 
L 494.42319 103.810023 
L 494.566057 103.94307 
L 494.708924 103.810023 
L 495.661371 103.810023 
L 495.708993 103.676961 
L 495.756616 103.810023 
L 495.804238 103.810023 
L 495.947105 103.676961 
L 500.852207 103.676961 
L 500.995074 103.543899 
L 502.090388 103.543899 
L 502.233255 103.27779 
L 502.280878 103.410852 
L 502.3285 103.27779 
L 502.614234 103.27779 
L 502.757101 103.144744 
L 503.804793 103.144744 
L 503.852415 103.011682 
L 503.900037 103.144744 
L 504.138149 103.144744 
L 504.233394 103.011682 
L 504.376261 103.144744 
L 504.519128 103.011682 
L 504.661995 103.144744 
L 504.804862 103.011682 
L 506.519267 103.011682 
L 506.662134 102.878619 
L 508.328916 102.878619 
L 508.376538 103.011682 
L 508.424161 102.878619 
L 508.519405 102.878619 
L 508.567028 102.612511 
L 508.61465 102.745573 
L 508.662272 102.745573 
L 508.709895 103.011682 
L 508.757517 102.745573 
L 508.852762 102.612511 
L 508.995629 102.745573 
L 510.471922 102.745573 
L 510.519544 102.612511 
L 510.567166 102.745573 
L 510.662411 102.745573 
L 510.805278 102.612511 
L 513.995976 102.612511 
L 514.043598 102.479464 
L 514.09122 102.612511 
L 514.186465 102.612511 
L 514.234087 102.479464 
L 514.28171 102.612511 
L 514.567444 102.612511 
L 514.710311 102.479464 
L 514.853178 102.612511 
L 514.9008 102.479464 
L 514.948423 102.612511 
L 514.996045 102.612511 
L 515.043667 102.479464 
L 515.09129 102.612511 
L 515.186534 102.612511 
L 515.234157 102.745573 
L 515.329401 102.479464 
L 515.377024 102.745573 
L 515.424646 102.612511 
L 515.519891 102.479464 
L 515.567513 102.745573 
L 515.615135 102.479464 
L 515.90087 102.479464 
L 515.948492 102.745573 
L 515.996114 102.612511 
L 516.091359 102.479464 
L 516.186604 102.745573 
L 516.234226 102.612511 
L 516.281848 102.479464 
L 516.329471 102.612511 
L 516.377093 102.612511 
L 516.424715 102.479464 
L 516.472338 102.612511 
L 516.51996 102.612511 
L 516.567582 102.479464 
L 516.615205 102.612511 
L 516.662827 102.745573 
L 516.71045 102.479464 
L 516.758072 102.745573 
L 516.900939 102.612511 
L 517.281918 102.612511 
L 517.424785 102.479464 
L 517.472407 102.479464 
L 517.520029 102.612511 
L 517.567652 102.479464 
L 517.710519 102.479464 
L 517.853386 102.612511 
L 517.996253 102.479464 
L 518.186742 102.479464 
L 518.329609 102.346402 
L 518.472476 102.479464 
L 518.615344 102.346402 
L 519.139189 102.346402 
L 519.186812 102.21334 
L 519.234434 102.346402 
L 519.329679 102.346402 
L 519.472546 102.21334 
L 519.615413 102.346402 
L 519.75828 102.21334 
L 519.853525 102.21334 
L 519.948769 102.346402 
L 520.091636 102.21334 
L 520.139259 102.346402 
L 520.282126 102.080294 
L 520.424993 102.21334 
L 520.710727 102.21334 
L 520.853594 101.947231 
L 520.996461 102.080294 
L 521.139328 101.947231 
L 521.18695 101.947231 
L 521.282195 102.080294 
L 521.37744 101.947231 
L 521.472684 102.080294 
L 521.520307 101.814185 
L 521.567929 102.080294 
L 521.758419 102.080294 
L 521.806041 101.947231 
L 521.853663 102.080294 
L 521.901286 102.080294 
L 521.99653 101.814185 
L 522.139397 101.947231 
L 522.234642 101.947231 
L 522.377509 101.814185 
L 522.567999 102.080294 
L 522.615621 102.080294 
L 522.758488 101.947231 
L 522.853733 102.080294 
L 522.9966 101.947231 
L 523.091844 101.947231 
L 523.234711 102.080294 
L 523.282334 101.947231 
L 523.329956 102.080294 
L 523.520446 102.080294 
L 523.61569 101.947231 
L 523.758557 102.080294 
L 523.996669 102.080294 
L 524.139536 101.814185 
L 524.234781 102.080294 
L 524.282403 101.814185 
L 524.330025 102.080294 
L 524.996738 102.080294 
L 525.044361 102.21334 
L 525.091983 102.080294 
L 525.139605 102.080294 
L 525.187228 102.21334 
L 525.23485 102.080294 
L 525.42534 102.080294 
L 525.472962 102.21334 
L 525.520584 102.080294 
L 526.330164 102.080294 
L 526.473031 102.21334 
L 526.568276 102.080294 
L 526.663521 102.21334 
L 526.758765 102.080294 
L 526.901632 102.21334 
L 527.330233 102.21334 
L 527.377856 102.346402 
L 527.425478 102.21334 
L 527.473101 102.080294 
L 527.520723 102.21334 
L 527.568345 102.346402 
L 527.615968 102.21334 
L 527.711212 102.080294 
L 527.854079 102.479464 
L 527.949324 102.080294 
L 527.996946 102.21334 
L 528.092191 102.479464 
L 528.139813 102.080294 
L 528.187436 102.346402 
L 528.235058 102.479464 
L 528.28268 102.346402 
L 528.330303 102.080294 
L 528.377925 102.346402 
L 528.520792 102.479464 
L 528.616037 102.479464 
L 528.711282 102.080294 
L 528.854149 102.479464 
L 528.997016 102.479464 
L 529.139883 102.21334 
L 529.28275 102.479464 
L 529.330372 102.346402 
L 529.377995 102.479464 
L 529.425617 102.479464 
L 529.473239 102.346402 
L 529.520862 102.479464 
L 529.90184 102.479464 
L 530.044707 102.346402 
L 530.187574 102.479464 
L 530.235197 102.479464 
L 530.282819 102.346402 
L 530.330442 102.479464 
L 531.235266 102.479464 
L 531.282889 102.612511 
L 531.330511 102.479464 
L 531.425756 102.479464 
L 531.568623 102.612511 
L 531.616245 102.612511 
L 531.806734 102.346402 
L 531.949601 102.479464 
L 532.616314 102.479464 
L 532.663937 102.21334 
L 532.711559 102.346402 
L 532.759181 102.346402 
L 532.806804 102.21334 
L 532.949671 102.479464 
L 533.092538 102.479464 
L 533.14016 102.21334 
L 533.187783 102.479464 
L 533.378272 102.479464 
L 533.425894 102.21334 
L 533.473517 102.479464 
L 533.521139 102.479464 
L 533.616384 102.21334 
L 533.711628 102.479464 
L 533.902118 102.21334 
L 534.092607 102.479464 
L 534.235474 102.346402 
L 534.283097 102.346402 
L 534.330719 102.479464 
L 534.378341 102.346402 
L 534.568831 102.346402 
L 534.616453 102.21334 
L 534.664075 102.346402 
L 534.806942 102.612511 
L 534.949809 102.346402 
L 535.092676 102.612511 
L 535.140299 102.346402 
L 535.187921 102.479464 
L 535.330788 102.479464 
L 535.473655 102.612511 
L 536.711836 102.612511 
L 536.759459 102.745573 
L 536.807081 102.612511 
L 539.712044 102.612511 
L 539.759667 102.479464 
L 539.807289 102.612511 
L 539.854911 102.612511 
L 539.902534 158.895212 
L 539.950156 123.369249 
L 540.093023 103.410852 
L 540.140646 106.338078 
L 540.188268 103.94307 
L 540.23589 102.878619 
L 540.331135 103.011682 
L 540.474002 103.27779 
L 540.569247 103.27779 
L 540.664491 103.144744 
L 540.712114 103.27779 
L 540.759736 103.144744 
L 540.854981 103.144744 
L 540.902603 103.410852 
L 540.950225 103.27779 
L 540.997848 103.27779 
L 541.23596 102.878619 
L 541.378827 103.011682 
L 541.426449 103.011682 
L 541.569316 103.144744 
L 541.712183 103.144744 
L 541.85505 103.27779 
L 542.378896 103.27779 
L 542.521763 103.410852 
L 543.093231 103.410852 
L 543.188476 103.543899 
L 543.331343 103.410852 
L 547.236376 103.410852 
L 547.379243 103.27779 
L 550.331828 103.27779 
L 550.474695 103.410852 
L 551.617632 103.410852 
L 551.760499 103.543899 
L 553.570148 103.543899 
L 553.713015 103.410852 
L 554.046372 103.410852 
L 554.189239 103.27779 
L 554.332106 103.27779 
L 554.474973 103.144744 
L 556.951335 103.144744 
L 557.094202 103.011682 
L 559.618187 103.011682 
L 559.761054 102.878619 
L 561.904059 102.878619 
L 562.046926 103.011682 
L 562.237416 103.011682 
L 562.380283 103.144744 
L 563.33273 103.144744 
L 563.475597 103.27779 
L 565.190001 103.27779 
L 565.332869 103.410852 
L 566.142448 103.410852 
L 566.285316 103.27779 
L 567.761608 103.27779 
L 567.904475 103.144744 
L 568.285454 103.144744 
L 568.571188 102.612511 
L 568.714055 102.612511 
L 568.8093 102.878619 
L 568.856922 102.745573 
L 568.999789 102.479464 
L 569.142656 103.011682 
L 569.190279 102.878619 
L 569.428391 105.273628 
L 569.666502 103.810023 
L 569.714125 103.94307 
L 569.856992 103.676961 
L 569.904614 103.810023 
L 569.952236 103.676961 
L 569.999859 103.543899 
L 570.047481 103.676961 
L 570.095103 103.810023 
L 570.142726 103.676961 
L 570.190348 103.676961 
L 570.333215 103.543899 
L 570.42846 103.543899 
L 570.523705 103.810023 
L 570.571327 103.676961 
L 570.714194 103.543899 
L 570.809439 103.543899 
L 571.04755 103.144744 
L 571.23804 103.144744 
L 571.428529 102.878619 
L 571.476152 102.878619 
L 571.619019 102.745573 
L 571.85713 102.745573 
L 571.999997 102.612511 
L 572.04762 102.612511 
L 572.190487 102.479464 
L 572.333354 102.479464 
L 572.476221 102.346402 
L 572.619088 102.346402 
L 572.761955 102.21334 
L 573.095312 102.21334 
L 573.238179 102.346402 
L 573.428668 102.080294 
L 573.66678 102.080294 
L 573.857269 101.814185 
L 574.762094 101.814185 
L 574.904961 101.681123 
L 575.571674 101.681123 
L 575.714541 101.415014 
L 576.286009 101.415014 
L 576.428876 101.281952 
L 576.762232 101.281952 
L 576.905099 101.148906 
L 577.714679 101.148906 
L 577.857546 101.281952 
L 579.000483 101.281952 
L 579.14335 101.148906 
L 579.905308 101.148906 
L 580.048175 101.281952 
L 580.952999 101.281952 
L 581.095866 101.415014 
L 582.715026 101.415014 
L 582.857893 101.681123 
L 582.953138 101.681123 
L 583.096005 101.548061 
L 583.667473 101.548061 
L 583.81034 101.681123 
L 584.00083 101.681123 
L 584.143697 101.814185 
L 585.048521 101.814185 
L 585.191388 101.681123 
L 585.334255 101.681123 
L 585.477122 101.814185 
L 585.858101 101.814185 
L 586.000968 101.681123 
L 586.429569 101.681123 
L 586.572436 101.947231 
L 588.382086 101.947231 
L 588.524953 102.080294 
L 589.191666 102.080294 
L 589.334533 101.947231 
L 589.763134 101.947231 
L 589.906001 101.814185 
L 596.668375 101.814185 
L 596.811242 101.947231 
L 598.620891 101.947231 
L 598.763758 102.080294 
L 601.382987 102.080294 
L 601.525854 102.21334 
L 603.240259 102.21334 
L 603.383126 102.080294 
L 603.859349 102.080294 
L 604.002216 102.21334 
L 606.049977 102.21334 
L 606.192845 102.346402 
L 607.812004 102.346402 
L 607.954871 102.21334 
L 610.76459 102.21334 
L 610.907457 102.080294 
L 611.478925 102.080294 
L 611.669415 102.346402 
L 613.431442 102.346402 
L 613.574309 102.21334 
L 613.907665 102.21334 
L 614.050532 102.080294 
L 614.241022 102.080294 
L 614.383889 102.21334 
L 615.955426 102.21334 
L 616.098293 102.346402 
L 618.717522 102.346402 
L 618.86039 102.21334 
L 619.146124 102.21334 
L 619.288991 102.346402 
L 619.431858 102.346402 
L 619.574725 102.21334 
L 619.717592 102.21334 
L 619.860459 102.346402 
L 621.051018 102.346402 
L 621.193885 102.479464 
L 622.193954 102.479464 
L 622.336821 102.346402 
L 622.479688 102.479464 
L 624.003603 102.479464 
L 624.14647 102.612511 
L 625.289407 102.612511 
L 625.432274 102.479464 
L 625.718008 102.479464 
L 625.908497 102.21334 
L 626.003742 102.21334 
L 626.098987 102.346402 
L 626.241854 102.21334 
L 626.860944 102.21334 
L 627.003811 102.346402 
L 627.337168 102.346402 
L 627.527657 102.612511 
L 628.099125 102.612511 
L 628.241992 102.479464 
L 628.908705 102.479464 
L 629.051572 102.346402 
L 630.289753 102.346402 
L 630.43262 102.479464 
L 630.527865 102.479464 
L 630.670732 102.612511 
L 632.956605 102.612511 
L 633.099472 102.479464 
L 633.337584 102.479464 
L 633.480451 102.612511 
L 634.861499 102.612511 
L 634.956744 102.346402 
L 635.004366 102.479464 
L 637.242616 102.479464 
L 637.385484 102.346402 
L 637.956952 102.346402 
L 638.099819 102.21334 
L 660.244211 102.21334 
L 660.387078 102.080294 
L 665.006446 102.080294 
L 665.149313 101.947231 
L 666.339872 101.947231 
L 666.482739 102.080294 
L 672.721267 102.080294 
L 672.864134 101.947231 
L 677.673991 101.947231 
L 677.816858 101.814185 
L 682.055247 101.814185 
L 682.198115 101.947231 
L 705.8188 101.947231 
L 705.961667 101.814185 
L 722.439 101.814185 
L 722.439 101.814185 
" clip-path="url(#p10dbcc3510)" style="fill: none; stroke: #1f77b4; stroke-width: 1.5; stroke-linecap: square"/>
   </g>
   <g id="patch_3">
    <path d="M 365.319 311.6435 
L 365.319 45.5315 
" style="fill: none; stroke: #000000; stroke-width: 0.8; stroke-linejoin: miter; stroke-linecap: square"/>
   </g>
   <g id="patch_4">
    <path d="M 722.439 311.6435 
L 722.439 45.5315 
" style="fill: none; stroke: #000000; stroke-width: 0.8; stroke-linejoin: miter; stroke-linecap: square"/>
   </g>
   <g id="patch_5">
    <path d="M 365.319 311.6435 
L 722.439 311.6435 
" style="fill: none; stroke: #000000; stroke-width: 0.8; stroke-linejoin: miter; stroke-linecap: square"/>
   </g>
   <g id="patch_6">
    <path d="M 365.319 45.5315 
L 722.439 45.5315 
" style="fill: none; stroke: #000000; stroke-width: 0.8; stroke-linejoin: miter; stroke-linecap: square"/>
   </g>
   <g id="text_18">
    <!-- Accuracy of the 09_07_25_CIFAR10_torch_model_(1024+2048.1+1)_elk-horse on the validation set -->
    <g transform="translate(7.2 25.5315) scale(0.264 -0.264)">
     <defs>
      <path id="TimesNewRomanPSMT-68" d="M 1041 4444 
L 1041 2350 
Q 1388 2731 1591 2839 
Q 1794 2947 1997 2947 
Q 2241 2947 2416 2812 
Q 2591 2678 2675 2391 
Q 2734 2191 2734 1659 
L 2734 647 
Q 2734 375 2778 275 
Q 2809 200 2884 156 
Q 2959 113 3159 113 
L 3159 0 
L 1753 0 
L 1753 113 
L 1819 113 
Q 2019 113 2097 173 
Q 2175 234 2206 353 
Q 2216 403 2216 647 
L 2216 1659 
Q 2216 2128 2167 2275 
Q 2119 2422 2012 2495 
Q 1906 2569 1756 2569 
Q 1603 2569 1437 2487 
Q 1272 2406 1041 2159 
L 1041 647 
Q 1041 353 1073 281 
Q 1106 209 1195 161 
Q 1284 113 1503 113 
L 1503 0 
L 84 0 
L 84 113 
Q 275 113 384 172 
Q 447 203 484 290 
Q 522 378 522 647 
L 522 3238 
Q 522 3728 498 3840 
Q 475 3953 426 3993 
Q 378 4034 297 4034 
Q 231 4034 84 3984 
L 41 4094 
L 897 4444 
L 1041 4444 
z
" transform="scale(0.015625)"/>
      <path id="TimesNewRomanPSMT-5f" d="M 3256 -1381 
L -53 -1381 
L -53 -1119 
L 3256 -1119 
L 3256 -1381 
z
" transform="scale(0.015625)"/>
      <path id="TimesNewRomanPSMT-43" d="M 3853 4334 
L 3950 2894 
L 3853 2894 
Q 3659 3541 3300 3825 
Q 2941 4109 2438 4109 
Q 2016 4109 1675 3895 
Q 1334 3681 1139 3212 
Q 944 2744 944 2047 
Q 944 1472 1128 1050 
Q 1313 628 1683 403 
Q 2053 178 2528 178 
Q 2941 178 3256 354 
Q 3572 531 3950 1056 
L 4047 994 
Q 3728 428 3303 165 
Q 2878 -97 2294 -97 
Q 1241 -97 663 684 
Q 231 1266 231 2053 
Q 231 2688 515 3219 
Q 800 3750 1298 4042 
Q 1797 4334 2388 4334 
Q 2847 4334 3294 4109 
Q 3425 4041 3481 4041 
Q 3566 4041 3628 4100 
Q 3709 4184 3744 4334 
L 3853 4334 
z
" transform="scale(0.015625)"/>
      <path id="TimesNewRomanPSMT-49" d="M 1975 116 
L 1975 0 
L 159 0 
L 159 116 
L 309 116 
Q 572 116 691 269 
Q 766 369 766 750 
L 766 3488 
Q 766 3809 725 3913 
Q 694 3991 597 4047 
Q 459 4122 309 4122 
L 159 4122 
L 159 4238 
L 1975 4238 
L 1975 4122 
L 1822 4122 
Q 1563 4122 1444 3969 
Q 1366 3869 1366 3488 
L 1366 750 
Q 1366 428 1406 325 
Q 1438 247 1538 191 
Q 1672 116 1822 116 
L 1975 116 
z
" transform="scale(0.015625)"/>
      <path id="TimesNewRomanPSMT-46" d="M 1309 4006 
L 1309 2341 
L 2081 2341 
Q 2347 2341 2470 2458 
Q 2594 2575 2634 2922 
L 2750 2922 
L 2750 1488 
L 2634 1488 
Q 2631 1734 2570 1850 
Q 2509 1966 2401 2023 
Q 2294 2081 2081 2081 
L 1309 2081 
L 1309 750 
Q 1309 428 1350 325 
Q 1381 247 1481 191 
Q 1619 116 1769 116 
L 1922 116 
L 1922 0 
L 103 0 
L 103 116 
L 253 116 
Q 516 116 634 269 
Q 709 369 709 750 
L 709 3488 
Q 709 3809 669 3913 
Q 638 3991 541 4047 
Q 406 4122 253 4122 
L 103 4122 
L 103 4238 
L 3256 4238 
L 3297 3306 
L 3188 3306 
Q 3106 3603 2998 3742 
Q 2891 3881 2733 3943 
Q 2575 4006 2244 4006 
L 1309 4006 
z
" transform="scale(0.015625)"/>
      <path id="TimesNewRomanPSMT-52" d="M 4325 0 
L 3194 0 
L 1759 1981 
Q 1600 1975 1500 1975 
Q 1459 1975 1412 1976 
Q 1366 1978 1316 1981 
L 1316 750 
Q 1316 350 1403 253 
Q 1522 116 1759 116 
L 1925 116 
L 1925 0 
L 109 0 
L 109 116 
L 269 116 
Q 538 116 653 291 
Q 719 388 719 750 
L 719 3488 
Q 719 3888 631 3984 
Q 509 4122 269 4122 
L 109 4122 
L 109 4238 
L 1653 4238 
Q 2328 4238 2648 4139 
Q 2969 4041 3192 3777 
Q 3416 3513 3416 3147 
Q 3416 2756 3161 2468 
Q 2906 2181 2372 2063 
L 3247 847 
Q 3547 428 3762 290 
Q 3978 153 4325 116 
L 4325 0 
z
M 1316 2178 
Q 1375 2178 1419 2176 
Q 1463 2175 1491 2175 
Q 2097 2175 2405 2437 
Q 2713 2700 2713 3106 
Q 2713 3503 2464 3751 
Q 2216 4000 1806 4000 
Q 1625 4000 1316 3941 
L 1316 2178 
z
" transform="scale(0.015625)"/>
      <path id="TimesNewRomanPSMT-64" d="M 2222 322 
Q 2013 103 1813 7 
Q 1613 -88 1381 -88 
Q 913 -88 563 304 
Q 213 697 213 1313 
Q 213 1928 600 2439 
Q 988 2950 1597 2950 
Q 1975 2950 2222 2709 
L 2222 3238 
Q 2222 3728 2198 3840 
Q 2175 3953 2125 3993 
Q 2075 4034 2000 4034 
Q 1919 4034 1784 3984 
L 1744 4094 
L 2597 4444 
L 2738 4444 
L 2738 1134 
Q 2738 631 2761 520 
Q 2784 409 2836 365 
Q 2888 322 2956 322 
Q 3041 322 3181 375 
L 3216 266 
L 2366 -88 
L 2222 -88 
L 2222 322 
z
M 2222 541 
L 2222 2016 
Q 2203 2228 2109 2403 
Q 2016 2578 1861 2667 
Q 1706 2756 1559 2756 
Q 1284 2756 1069 2509 
Q 784 2184 784 1559 
Q 784 928 1059 592 
Q 1334 256 1672 256 
Q 1956 256 2222 541 
z
" transform="scale(0.015625)"/>
      <path id="TimesNewRomanPSMT-6c" d="M 1184 4444 
L 1184 647 
Q 1184 378 1223 290 
Q 1263 203 1344 158 
Q 1425 113 1647 113 
L 1647 0 
L 244 0 
L 244 113 
Q 441 113 512 153 
Q 584 194 625 287 
Q 666 381 666 647 
L 666 3247 
Q 666 3731 644 3842 
Q 622 3953 573 3993 
Q 525 4034 450 4034 
Q 369 4034 244 3984 
L 191 4094 
L 1044 4444 
L 1184 4444 
z
" transform="scale(0.015625)"/>
      <path id="TimesNewRomanPSMT-28" d="M 1988 -1253 
L 1988 -1369 
Q 1516 -1131 1200 -813 
Q 750 -359 506 256 
Q 263 872 263 1534 
Q 263 2503 741 3301 
Q 1219 4100 1988 4444 
L 1988 4313 
Q 1603 4100 1356 3731 
Q 1109 3363 987 2797 
Q 866 2231 866 1616 
Q 866 947 969 400 
Q 1050 -31 1165 -292 
Q 1281 -553 1476 -793 
Q 1672 -1034 1988 -1253 
z
" transform="scale(0.015625)"/>
      <path id="TimesNewRomanPSMT-2b" d="M 1672 441 
L 1672 2000 
L 116 2000 
L 116 2256 
L 1672 2256 
L 1672 3809 
L 1922 3809 
L 1922 2256 
L 3484 2256 
L 3484 2000 
L 1922 2000 
L 1922 441 
L 1672 441 
z
" transform="scale(0.015625)"/>
      <path id="TimesNewRomanPSMT-29" d="M 144 4313 
L 144 4444 
Q 619 4209 934 3891 
Q 1381 3434 1625 2820 
Q 1869 2206 1869 1541 
Q 1869 572 1392 -226 
Q 916 -1025 144 -1369 
L 144 -1253 
Q 528 -1038 776 -670 
Q 1025 -303 1145 264 
Q 1266 831 1266 1447 
Q 1266 2113 1163 2663 
Q 1084 3094 967 3353 
Q 850 3613 656 3853 
Q 463 4094 144 4313 
z
" transform="scale(0.015625)"/>
      <path id="TimesNewRomanPSMT-6b" d="M 1047 4444 
L 1047 1594 
L 1775 2259 
Q 2006 2472 2044 2528 
Q 2069 2566 2069 2603 
Q 2069 2666 2017 2711 
Q 1966 2756 1847 2763 
L 1847 2863 
L 3091 2863 
L 3091 2763 
Q 2834 2756 2664 2684 
Q 2494 2613 2291 2428 
L 1556 1750 
L 2291 822 
Q 2597 438 2703 334 
Q 2853 188 2966 144 
Q 3044 113 3238 113 
L 3238 0 
L 1847 0 
L 1847 113 
Q 1966 116 2008 148 
Q 2050 181 2050 241 
Q 2050 313 1925 472 
L 1047 1594 
L 1047 644 
Q 1047 366 1086 278 
Q 1125 191 1197 153 
Q 1269 116 1509 113 
L 1509 0 
L 53 0 
L 53 113 
Q 272 113 381 166 
Q 447 200 481 272 
Q 528 375 528 628 
L 528 3234 
Q 528 3731 506 3842 
Q 484 3953 434 3995 
Q 384 4038 303 4038 
Q 238 4038 106 3984 
L 53 4094 
L 903 4444 
L 1047 4444 
z
" transform="scale(0.015625)"/>
      <path id="TimesNewRomanPSMT-2d" d="M 259 1672 
L 1875 1672 
L 1875 1200 
L 259 1200 
L 259 1672 
z
" transform="scale(0.015625)"/>
      <path id="TimesNewRomanPSMT-76" d="M 53 2863 
L 1400 2863 
L 1400 2747 
L 1313 2747 
Q 1191 2747 1127 2687 
Q 1063 2628 1063 2528 
Q 1063 2419 1128 2269 
L 1794 688 
L 2463 2328 
Q 2534 2503 2534 2594 
Q 2534 2638 2509 2666 
Q 2475 2713 2422 2730 
Q 2369 2747 2206 2747 
L 2206 2863 
L 3141 2863 
L 3141 2747 
Q 2978 2734 2916 2681 
Q 2806 2588 2719 2369 
L 1703 -88 
L 1575 -88 
L 553 2328 
Q 484 2497 421 2570 
Q 359 2644 263 2694 
Q 209 2722 53 2747 
L 53 2863 
z
" transform="scale(0.015625)"/>
     </defs>
     <use xlink:href="#TimesNewRomanPSMT-41"/>
     <use xlink:href="#TimesNewRomanPSMT-63" transform="translate(72.216797 0)"/>
     <use xlink:href="#TimesNewRomanPSMT-63" transform="translate(116.601562 0)"/>
     <use xlink:href="#TimesNewRomanPSMT-75" transform="translate(160.986328 0)"/>
     <use xlink:href="#TimesNewRomanPSMT-72" transform="translate(210.986328 0)"/>
     <use xlink:href="#TimesNewRomanPSMT-61" transform="translate(244.287109 0)"/>
     <use xlink:href="#TimesNewRomanPSMT-63" transform="translate(288.671875 0)"/>
     <use xlink:href="#TimesNewRomanPSMT-79" transform="translate(333.056641 0)"/>
     <use xlink:href="#TimesNewRomanPSMT-20" transform="translate(383.056641 0)"/>
     <use xlink:href="#TimesNewRomanPSMT-6f" transform="translate(408.056641 0)"/>
     <use xlink:href="#TimesNewRomanPSMT-66" transform="translate(458.056641 0)"/>
     <use xlink:href="#TimesNewRomanPSMT-20" transform="translate(491.357422 0)"/>
     <use xlink:href="#TimesNewRomanPSMT-74" transform="translate(516.357422 0)"/>
     <use xlink:href="#TimesNewRomanPSMT-68" transform="translate(544.140625 0)"/>
     <use xlink:href="#TimesNewRomanPSMT-65" transform="translate(594.140625 0)"/>
     <use xlink:href="#TimesNewRomanPSMT-20" transform="translate(638.525391 0)"/>
     <use xlink:href="#TimesNewRomanPSMT-30" transform="translate(663.525391 0)"/>
     <use xlink:href="#TimesNewRomanPSMT-39" transform="translate(713.525391 0)"/>
     <use xlink:href="#TimesNewRomanPSMT-5f" transform="translate(763.525391 0)"/>
     <use xlink:href="#TimesNewRomanPSMT-30" transform="translate(813.525391 0)"/>
     <use xlink:href="#TimesNewRomanPSMT-37" transform="translate(863.525391 0)"/>
     <use xlink:href="#TimesNewRomanPSMT-5f" transform="translate(913.525391 0)"/>
     <use xlink:href="#TimesNewRomanPSMT-32" transform="translate(963.525391 0)"/>
     <use xlink:href="#TimesNewRomanPSMT-35" transform="translate(1013.525391 0)"/>
     <use xlink:href="#TimesNewRomanPSMT-5f" transform="translate(1063.525391 0)"/>
     <use xlink:href="#TimesNewRomanPSMT-43" transform="translate(1113.525391 0)"/>
     <use xlink:href="#TimesNewRomanPSMT-49" transform="translate(1180.224609 0)"/>
     <use xlink:href="#TimesNewRomanPSMT-46" transform="translate(1213.525391 0)"/>
     <use xlink:href="#TimesNewRomanPSMT-41" transform="translate(1261.765625 0)"/>
     <use xlink:href="#TimesNewRomanPSMT-52" transform="translate(1333.982422 0)"/>
     <use xlink:href="#TimesNewRomanPSMT-31" transform="translate(1400.681641 0)"/>
     <use xlink:href="#TimesNewRomanPSMT-30" transform="translate(1450.681641 0)"/>
     <use xlink:href="#TimesNewRomanPSMT-5f" transform="translate(1500.681641 0)"/>
     <use xlink:href="#TimesNewRomanPSMT-74" transform="translate(1550.681641 0)"/>
     <use xlink:href="#TimesNewRomanPSMT-6f" transform="translate(1578.464844 0)"/>
     <use xlink:href="#TimesNewRomanPSMT-72" transform="translate(1628.464844 0)"/>
     <use xlink:href="#TimesNewRomanPSMT-63" transform="translate(1661.765625 0)"/>
     <use xlink:href="#TimesNewRomanPSMT-68" transform="translate(1706.150391 0)"/>
     <use xlink:href="#TimesNewRomanPSMT-5f" transform="translate(1756.150391 0)"/>
     <use xlink:href="#TimesNewRomanPSMT-6d" transform="translate(1806.150391 0)"/>
     <use xlink:href="#TimesNewRomanPSMT-6f" transform="translate(1883.933594 0)"/>
     <use xlink:href="#TimesNewRomanPSMT-64" transform="translate(1933.933594 0)"/>
     <use xlink:href="#TimesNewRomanPSMT-65" transform="translate(1983.933594 0)"/>
     <use xlink:href="#TimesNewRomanPSMT-6c" transform="translate(2028.318359 0)"/>
     <use xlink:href="#TimesNewRomanPSMT-5f" transform="translate(2056.101562 0)"/>
     <use xlink:href="#TimesNewRomanPSMT-28" transform="translate(2106.101562 0)"/>
     <use xlink:href="#TimesNewRomanPSMT-31" transform="translate(2139.402344 0)"/>
     <use xlink:href="#TimesNewRomanPSMT-30" transform="translate(2189.402344 0)"/>
     <use xlink:href="#TimesNewRomanPSMT-32" transform="translate(2239.402344 0)"/>
     <use xlink:href="#TimesNewRomanPSMT-34" transform="translate(2289.402344 0)"/>
     <use xlink:href="#TimesNewRomanPSMT-2b" transform="translate(2339.402344 0)"/>
     <use xlink:href="#TimesNewRomanPSMT-32" transform="translate(2395.798828 0)"/>
     <use xlink:href="#TimesNewRomanPSMT-30" transform="translate(2445.798828 0)"/>
     <use xlink:href="#TimesNewRomanPSMT-34" transform="translate(2495.798828 0)"/>
     <use xlink:href="#TimesNewRomanPSMT-38" transform="translate(2545.798828 0)"/>
     <use xlink:href="#TimesNewRomanPSMT-2e" transform="translate(2595.798828 0)"/>
     <use xlink:href="#TimesNewRomanPSMT-31" transform="translate(2620.798828 0)"/>
     <use xlink:href="#TimesNewRomanPSMT-2b" transform="translate(2670.798828 0)"/>
     <use xlink:href="#TimesNewRomanPSMT-31" transform="translate(2727.195312 0)"/>
     <use xlink:href="#TimesNewRomanPSMT-29" transform="translate(2777.195312 0)"/>
     <use xlink:href="#TimesNewRomanPSMT-5f" transform="translate(2810.496094 0)"/>
     <use xlink:href="#TimesNewRomanPSMT-65" transform="translate(2860.496094 0)"/>
     <use xlink:href="#TimesNewRomanPSMT-6c" transform="translate(2904.880859 0)"/>
     <use xlink:href="#TimesNewRomanPSMT-6b" transform="translate(2932.664062 0)"/>
     <use xlink:href="#TimesNewRomanPSMT-2d" transform="translate(2982.664062 0)"/>
     <use xlink:href="#TimesNewRomanPSMT-68" transform="translate(3015.964844 0)"/>
     <use xlink:href="#TimesNewRomanPSMT-6f" transform="translate(3065.964844 0)"/>
     <use xlink:href="#TimesNewRomanPSMT-72" transform="translate(3115.964844 0)"/>
     <use xlink:href="#TimesNewRomanPSMT-73" transform="translate(3149.265625 0)"/>
     <use xlink:href="#TimesNewRomanPSMT-65" transform="translate(3188.181641 0)"/>
     <use xlink:href="#TimesNewRomanPSMT-20" transform="translate(3232.566406 0)"/>
     <use xlink:href="#TimesNewRomanPSMT-6f" transform="translate(3257.566406 0)"/>
     <use xlink:href="#TimesNewRomanPSMT-6e" transform="translate(3307.566406 0)"/>
     <use xlink:href="#TimesNewRomanPSMT-20" transform="translate(3357.566406 0)"/>
     <use xlink:href="#TimesNewRomanPSMT-74" transform="translate(3382.566406 0)"/>
     <use xlink:href="#TimesNewRomanPSMT-68" transform="translate(3410.349609 0)"/>
     <use xlink:href="#TimesNewRomanPSMT-65" transform="translate(3460.349609 0)"/>
     <use xlink:href="#TimesNewRomanPSMT-20" transform="translate(3504.734375 0)"/>
     <use xlink:href="#TimesNewRomanPSMT-76" transform="translate(3529.734375 0)"/>
     <use xlink:href="#TimesNewRomanPSMT-61" transform="translate(3579.734375 0)"/>
     <use xlink:href="#TimesNewRomanPSMT-6c" transform="translate(3624.119141 0)"/>
     <use xlink:href="#TimesNewRomanPSMT-69" transform="translate(3651.902344 0)"/>
     <use xlink:href="#TimesNewRomanPSMT-64" transform="translate(3679.685547 0)"/>
     <use xlink:href="#TimesNewRomanPSMT-61" transform="translate(3729.685547 0)"/>
     <use xlink:href="#TimesNewRomanPSMT-74" transform="translate(3774.070312 0)"/>
     <use xlink:href="#TimesNewRomanPSMT-69" transform="translate(3801.853516 0)"/>
     <use xlink:href="#TimesNewRomanPSMT-6f" transform="translate(3829.636719 0)"/>
     <use xlink:href="#TimesNewRomanPSMT-6e" transform="translate(3879.636719 0)"/>
     <use xlink:href="#TimesNewRomanPSMT-20" transform="translate(3929.636719 0)"/>
     <use xlink:href="#TimesNewRomanPSMT-73" transform="translate(3954.636719 0)"/>
     <use xlink:href="#TimesNewRomanPSMT-65" transform="translate(3993.552734 0)"/>
     <use xlink:href="#TimesNewRomanPSMT-74" transform="translate(4037.9375 0)"/>
    </g>
   </g>
   <g id="legend_1">
    <g id="patch_7">
     <path d="M 469.868688 94.278687 
L 707.039 94.278687 
Q 711.439 94.278687 711.439 89.878687 
L 711.439 60.9315 
Q 711.439 56.5315 707.039 56.5315 
L 469.868688 56.5315 
Q 465.468688 56.5315 465.468688 60.9315 
L 465.468688 89.878687 
Q 465.468688 94.278687 469.868688 94.278687 
z
" style="fill: #ffffff; opacity: 0.8; stroke: #cccccc; stroke-linejoin: miter"/>
    </g>
    <g id="line2d_32">
     <path d="M 474.268688 73.0315 
L 496.268688 73.0315 
L 518.268688 73.0315 
" style="fill: none; stroke: #1f77b4; stroke-width: 1.5; stroke-linecap: square"/>
    </g>
    <g id="text_19">
     <!-- Best accuracy 0.79 -->
     <g transform="translate(535.868688 80.7315) scale(0.22 -0.22)">
      <defs>
       <path id="TimesNewRomanPSMT-42" d="M 2956 2163 
Q 3397 2069 3616 1863 
Q 3919 1575 3919 1159 
Q 3919 844 3719 555 
Q 3519 266 3170 133 
Q 2822 0 2106 0 
L 106 0 
L 106 116 
L 266 116 
Q 531 116 647 284 
Q 719 394 719 750 
L 719 3488 
Q 719 3881 628 3984 
Q 506 4122 266 4122 
L 106 4122 
L 106 4238 
L 1938 4238 
Q 2450 4238 2759 4163 
Q 3228 4050 3475 3764 
Q 3722 3478 3722 3106 
Q 3722 2788 3528 2536 
Q 3334 2284 2956 2163 
z
M 1319 2331 
Q 1434 2309 1582 2298 
Q 1731 2288 1909 2288 
Q 2366 2288 2595 2386 
Q 2825 2484 2947 2687 
Q 3069 2891 3069 3131 
Q 3069 3503 2766 3765 
Q 2463 4028 1881 4028 
Q 1569 4028 1319 3959 
L 1319 2331 
z
M 1319 306 
Q 1681 222 2034 222 
Q 2600 222 2897 476 
Q 3194 731 3194 1106 
Q 3194 1353 3059 1581 
Q 2925 1809 2622 1940 
Q 2319 2072 1872 2072 
Q 1678 2072 1540 2065 
Q 1403 2059 1319 2044 
L 1319 306 
z
" transform="scale(0.015625)"/>
      </defs>
      <use xlink:href="#TimesNewRomanPSMT-42"/>
      <use xlink:href="#TimesNewRomanPSMT-65" transform="translate(66.699219 0)"/>
      <use xlink:href="#TimesNewRomanPSMT-73" transform="translate(111.083984 0)"/>
      <use xlink:href="#TimesNewRomanPSMT-74" transform="translate(150 0)"/>
      <use xlink:href="#TimesNewRomanPSMT-20" transform="translate(177.783203 0)"/>
      <use xlink:href="#TimesNewRomanPSMT-61" transform="translate(202.783203 0)"/>
      <use xlink:href="#TimesNewRomanPSMT-63" transform="translate(247.167969 0)"/>
      <use xlink:href="#TimesNewRomanPSMT-63" transform="translate(291.552734 0)"/>
      <use xlink:href="#TimesNewRomanPSMT-75" transform="translate(335.9375 0)"/>
      <use xlink:href="#TimesNewRomanPSMT-72" transform="translate(385.9375 0)"/>
      <use xlink:href="#TimesNewRomanPSMT-61" transform="translate(419.238281 0)"/>
      <use xlink:href="#TimesNewRomanPSMT-63" transform="translate(463.623047 0)"/>
      <use xlink:href="#TimesNewRomanPSMT-79" transform="translate(508.007812 0)"/>
      <use xlink:href="#TimesNewRomanPSMT-20" transform="translate(558.007812 0)"/>
      <use xlink:href="#TimesNewRomanPSMT-30" transform="translate(583.007812 0)"/>
      <use xlink:href="#TimesNewRomanPSMT-2e" transform="translate(633.007812 0)"/>
      <use xlink:href="#TimesNewRomanPSMT-37" transform="translate(658.007812 0)"/>
      <use xlink:href="#TimesNewRomanPSMT-39" transform="translate(708.007812 0)"/>
     </g>
    </g>
   </g>
  </g>
 </g>
 <defs>
  <clipPath id="p10dbcc3510">
   <rect x="365.319" y="45.5315" width="357.12" height="266.112"/>
  </clipPath>
 </defs>
</svg>
