<?xml version="1.0" encoding="utf-8" standalone="no"?>
<!DOCTYPE svg PUBLIC "-//W3C//DTD SVG 1.1//EN"
  "http://www.w3.org/Graphics/SVG/1.1/DTD/svg11.dtd">
<svg xmlns:xlink="http://www.w3.org/1999/xlink" width="1074.558pt" height="383.265687pt" viewBox="0 0 1074.558 383.265687" xmlns="http://www.w3.org/2000/svg" version="1.1">
 <metadata>
  <rdf:RDF xmlns:dc="http://purl.org/dc/elements/1.1/" xmlns:cc="http://creativecommons.org/ns#" xmlns:rdf="http://www.w3.org/1999/02/22-rdf-syntax-ns#">
   <cc:Work>
    <dc:type rdf:resource="http://purl.org/dc/dcmitype/StillImage"/>
    <dc:date>2025-07-10T09:35:41.558582</dc:date>
    <dc:format>image/svg+xml</dc:format>
    <dc:creator>
     <cc:Agent>
      <dc:title>Matplotlib v3.10.1, https://matplotlib.org/</dc:title>
     </cc:Agent>
    </dc:creator>
   </cc:Work>
  </rdf:RDF>
 </metadata>
 <defs>
  <style type="text/css">*{stroke-linejoin: round; stroke-linecap: butt}</style>
 </defs>
 <g id="figure_1">
  <g id="patch_1">
   <path d="M 0 383.265687 
L 1074.558 383.265687 
L 1074.558 0 
L 0 0 
z
" style="fill: #ffffff"/>
  </g>
  <g id="axes_1">
   <g id="patch_2">
    <path d="M 358.719 311.6435 
L 715.839 311.6435 
L 715.839 45.5315 
L 358.719 45.5315 
z
" style="fill: #ffffff"/>
   </g>
   <g id="matplotlib.axis_1">
    <g id="xtick_1">
     <g id="line2d_1">
      <path d="M 358.719 311.6435 
L 358.719 45.5315 
" clip-path="url(#pf978cc0759)" style="fill: none; stroke: #b0b0b0; stroke-opacity: 0.3; stroke-width: 0.8; stroke-linecap: square"/>
     </g>
     <g id="line2d_2">
      <defs>
       <path id="m74a60afb06" d="M 0 0 
L 0 3.5 
" style="stroke: #000000; stroke-width: 0.8"/>
      </defs>
      <g>
       <use xlink:href="#m74a60afb06" x="358.719" y="311.6435" style="stroke: #000000; stroke-width: 0.8"/>
      </g>
     </g>
     <g id="text_1">
      <!-- 0.0 -->
      <g transform="translate(344.969 333.91975) scale(0.22 -0.22)">
       <defs>
        <path id="TimesNewRomanPSMT-30" d="M 231 2094 
Q 231 2819 450 3342 
Q 669 3866 1031 4122 
Q 1313 4325 1613 4325 
Q 2100 4325 2488 3828 
Q 2972 3213 2972 2159 
Q 2972 1422 2759 906 
Q 2547 391 2217 158 
Q 1888 -75 1581 -75 
Q 975 -75 572 641 
Q 231 1244 231 2094 
z
M 844 2016 
Q 844 1141 1059 588 
Q 1238 122 1591 122 
Q 1759 122 1940 273 
Q 2122 425 2216 781 
Q 2359 1319 2359 2297 
Q 2359 3022 2209 3506 
Q 2097 3866 1919 4016 
Q 1791 4119 1609 4119 
Q 1397 4119 1231 3928 
Q 1006 3669 925 3112 
Q 844 2556 844 2016 
z
" transform="scale(0.015625)"/>
        <path id="TimesNewRomanPSMT-2e" d="M 800 606 
Q 947 606 1047 504 
Q 1147 403 1147 259 
Q 1147 116 1045 14 
Q 944 -88 800 -88 
Q 656 -88 554 14 
Q 453 116 453 259 
Q 453 406 554 506 
Q 656 606 800 606 
z
" transform="scale(0.015625)"/>
       </defs>
       <use xlink:href="#TimesNewRomanPSMT-30"/>
       <use xlink:href="#TimesNewRomanPSMT-2e" transform="translate(50 0)"/>
       <use xlink:href="#TimesNewRomanPSMT-30" transform="translate(75 0)"/>
      </g>
     </g>
    </g>
    <g id="xtick_2">
     <g id="line2d_3">
      <path d="M 460.117962 311.6435 
L 460.117962 45.5315 
" clip-path="url(#pf978cc0759)" style="fill: none; stroke: #b0b0b0; stroke-opacity: 0.3; stroke-width: 0.8; stroke-linecap: square"/>
     </g>
     <g id="line2d_4">
      <g>
       <use xlink:href="#m74a60afb06" x="460.117962" y="311.6435" style="stroke: #000000; stroke-width: 0.8"/>
      </g>
     </g>
     <g id="text_2">
      <!-- 0.5 -->
      <g transform="translate(446.367962 333.91975) scale(0.22 -0.22)">
       <defs>
        <path id="TimesNewRomanPSMT-35" d="M 2778 4238 
L 2534 3706 
L 1259 3706 
L 981 3138 
Q 1809 3016 2294 2522 
Q 2709 2097 2709 1522 
Q 2709 1188 2573 903 
Q 2438 619 2231 419 
Q 2025 219 1772 97 
Q 1413 -75 1034 -75 
Q 653 -75 479 54 
Q 306 184 306 341 
Q 306 428 378 495 
Q 450 563 559 563 
Q 641 563 702 538 
Q 763 513 909 409 
Q 1144 247 1384 247 
Q 1750 247 2026 523 
Q 2303 800 2303 1197 
Q 2303 1581 2056 1914 
Q 1809 2247 1375 2428 
Q 1034 2569 447 2591 
L 1259 4238 
L 2778 4238 
z
" transform="scale(0.015625)"/>
       </defs>
       <use xlink:href="#TimesNewRomanPSMT-30"/>
       <use xlink:href="#TimesNewRomanPSMT-2e" transform="translate(50 0)"/>
       <use xlink:href="#TimesNewRomanPSMT-35" transform="translate(75 0)"/>
      </g>
     </g>
    </g>
    <g id="xtick_3">
     <g id="line2d_5">
      <path d="M 561.516924 311.6435 
L 561.516924 45.5315 
" clip-path="url(#pf978cc0759)" style="fill: none; stroke: #b0b0b0; stroke-opacity: 0.3; stroke-width: 0.8; stroke-linecap: square"/>
     </g>
     <g id="line2d_6">
      <g>
       <use xlink:href="#m74a60afb06" x="561.516924" y="311.6435" style="stroke: #000000; stroke-width: 0.8"/>
      </g>
     </g>
     <g id="text_3">
      <!-- 1.0 -->
      <g transform="translate(547.766924 333.91975) scale(0.22 -0.22)">
       <defs>
        <path id="TimesNewRomanPSMT-31" d="M 750 3822 
L 1781 4325 
L 1884 4325 
L 1884 747 
Q 1884 391 1914 303 
Q 1944 216 2037 169 
Q 2131 122 2419 116 
L 2419 0 
L 825 0 
L 825 116 
Q 1125 122 1212 167 
Q 1300 213 1334 289 
Q 1369 366 1369 747 
L 1369 3034 
Q 1369 3497 1338 3628 
Q 1316 3728 1258 3775 
Q 1200 3822 1119 3822 
Q 1003 3822 797 3725 
L 750 3822 
z
" transform="scale(0.015625)"/>
       </defs>
       <use xlink:href="#TimesNewRomanPSMT-31"/>
       <use xlink:href="#TimesNewRomanPSMT-2e" transform="translate(50 0)"/>
       <use xlink:href="#TimesNewRomanPSMT-30" transform="translate(75 0)"/>
      </g>
     </g>
    </g>
    <g id="xtick_4">
     <g id="line2d_7">
      <path d="M 662.915887 311.6435 
L 662.915887 45.5315 
" clip-path="url(#pf978cc0759)" style="fill: none; stroke: #b0b0b0; stroke-opacity: 0.3; stroke-width: 0.8; stroke-linecap: square"/>
     </g>
     <g id="line2d_8">
      <g>
       <use xlink:href="#m74a60afb06" x="662.915887" y="311.6435" style="stroke: #000000; stroke-width: 0.8"/>
      </g>
     </g>
     <g id="text_4">
      <!-- 1.5 -->
      <g transform="translate(649.165887 333.91975) scale(0.22 -0.22)">
       <use xlink:href="#TimesNewRomanPSMT-31"/>
       <use xlink:href="#TimesNewRomanPSMT-2e" transform="translate(50 0)"/>
       <use xlink:href="#TimesNewRomanPSMT-35" transform="translate(75 0)"/>
      </g>
     </g>
    </g>
    <g id="text_5">
     <!-- $\kappa  = \frac{ln(n)}{ln(d)}$ -->
     <g transform="translate(505.269 364.185687) scale(0.22 -0.22)">
      <defs>
       <path id="STIXGeneral-Italic-3ba" d="M 979 1440 
L 998 1446 
Q 1850 2541 2464 2790 
Q 2547 2822 2630 2822 
Q 2797 2822 2886 2736 
Q 2976 2650 2976 2522 
Q 2976 2387 2893 2307 
Q 2810 2227 2682 2227 
Q 2605 2227 2502 2288 
Q 2400 2349 2336 2349 
Q 2170 2349 1990 2205 
Q 1811 2061 1414 1645 
L 2042 544 
Q 2202 262 2310 182 
Q 2419 102 2624 102 
L 2624 0 
Q 2374 -83 2182 -83 
Q 1786 -83 1555 326 
L 960 1350 
L 576 0 
L 90 0 
L 640 1978 
Q 730 2317 730 2406 
Q 730 2560 518 2560 
L 339 2560 
L 339 2650 
Q 678 2694 1306 2822 
L 1325 2803 
L 979 1440 
z
" transform="scale(0.015625)"/>
       <path id="STIXGeneral-Regular-3d" d="M 4077 2048 
L 307 2048 
L 307 2470 
L 4077 2470 
L 4077 2048 
z
M 4077 768 
L 307 768 
L 307 1190 
L 4077 1190 
L 4077 768 
z
" transform="scale(0.015625)"/>
       <path id="STIXGeneral-Italic-6c" d="M 1786 4339 
L 806 595 
Q 755 410 755 320 
Q 755 205 864 205 
Q 1037 205 1293 570 
L 1453 794 
L 1542 730 
Q 1254 275 1046 102 
Q 838 -70 576 -70 
Q 262 -70 262 288 
Q 262 397 288 480 
L 1165 3834 
Q 1184 3898 1184 3955 
Q 1184 4096 870 4096 
L 755 4096 
L 755 4198 
Q 1203 4250 1747 4371 
L 1786 4339 
z
" transform="scale(0.015625)"/>
       <path id="STIXGeneral-Italic-6e" d="M 2944 749 
L 3034 666 
Q 2707 218 2534 80 
Q 2362 -58 2138 -58 
Q 2010 -58 1923 28 
Q 1837 115 1837 288 
Q 1837 390 1939 768 
L 2221 1805 
Q 2310 2150 2310 2310 
Q 2310 2496 2157 2496 
Q 1971 2496 1750 2275 
Q 1530 2054 1210 1587 
Q 998 1274 899 1024 
Q 800 774 570 0 
L 90 0 
L 704 2240 
Q 717 2304 717 2349 
Q 717 2445 630 2480 
Q 544 2515 301 2522 
L 301 2624 
Q 550 2675 857 2729 
Q 1165 2784 1338 2822 
L 1363 2810 
L 934 1414 
Q 1408 2170 1753 2496 
Q 2099 2822 2413 2822 
Q 2611 2822 2720 2716 
Q 2829 2611 2829 2432 
Q 2829 2272 2765 2048 
L 2406 749 
Q 2317 429 2317 358 
Q 2317 243 2419 243 
Q 2541 243 2810 582 
Q 2854 634 2944 749 
z
" transform="scale(0.015625)"/>
       <path id="STIXGeneral-Regular-28" d="M 1946 -1030 
L 1869 -1133 
Q 1126 -710 716 32 
Q 307 774 307 1613 
Q 307 3386 1888 4326 
L 1946 4224 
Q 1293 3667 1075 3126 
Q 858 2586 858 1632 
Q 858 685 1082 96 
Q 1306 -493 1946 -1030 
z
" transform="scale(0.015625)"/>
       <path id="STIXGeneral-Regular-29" d="M 186 4224 
L 262 4326 
Q 992 3891 1408 3148 
Q 1824 2406 1824 1581 
Q 1824 -166 243 -1133 
L 186 -1030 
Q 845 -486 1059 54 
Q 1274 595 1274 1562 
Q 1274 2534 1059 3120 
Q 845 3706 186 4224 
z
" transform="scale(0.015625)"/>
       <path id="STIXGeneral-Italic-64" d="M 3334 4371 
L 3373 4333 
L 3123 3360 
L 2739 1958 
Q 2323 429 2323 384 
Q 2323 256 2438 256 
Q 2522 256 2614 336 
Q 2707 416 2963 710 
L 3040 646 
Q 2547 -83 2099 -83 
Q 1978 -83 1907 -6 
Q 1837 70 1837 205 
Q 1837 397 1920 774 
Q 1645 307 1379 118 
Q 1114 -70 781 -70 
Q 461 -70 278 125 
Q 96 320 96 678 
Q 96 1440 713 2131 
Q 1331 2822 1965 2822 
Q 2163 2822 2256 2732 
Q 2349 2643 2381 2451 
L 2387 2451 
L 2675 3494 
Q 2765 3808 2765 3949 
Q 2765 4051 2694 4076 
Q 2624 4102 2355 4115 
L 2355 4224 
Q 2848 4269 3334 4371 
z
M 2278 2310 
Q 2278 2477 2185 2576 
Q 2093 2675 1978 2675 
Q 1677 2675 1395 2381 
Q 1075 2042 864 1571 
Q 653 1101 653 704 
Q 653 486 752 361 
Q 851 237 1024 237 
Q 1312 237 1606 550 
Q 1901 864 2089 1350 
Q 2278 1837 2278 2310 
z
" transform="scale(0.015625)"/>
      </defs>
      <use xlink:href="#STIXGeneral-Italic-3ba" transform="translate(0 0.003125)"/>
      <use xlink:href="#STIXGeneral-Regular-3d" transform="translate(58.83999 0.003125)"/>
      <use xlink:href="#STIXGeneral-Italic-6c" transform="translate(141.779971 50.192188) scale(0.7)"/>
      <use xlink:href="#STIXGeneral-Italic-6e" transform="translate(161.239963 50.192188) scale(0.7)"/>
      <use xlink:href="#STIXGeneral-Regular-28" transform="translate(196.239952 50.192188) scale(0.7)"/>
      <use xlink:href="#STIXGeneral-Italic-6e" transform="translate(219.549944 50.192188) scale(0.7)"/>
      <use xlink:href="#STIXGeneral-Regular-29" transform="translate(254.549933 50.192188) scale(0.7)"/>
      <use xlink:href="#STIXGeneral-Italic-6c" transform="translate(141.779971 -41.257812) scale(0.7)"/>
      <use xlink:href="#STIXGeneral-Italic-6e" transform="translate(161.239963 -41.257812) scale(0.7)"/>
      <use xlink:href="#STIXGeneral-Regular-28" transform="translate(196.239952 -41.257812) scale(0.7)"/>
      <use xlink:href="#STIXGeneral-Italic-64" transform="translate(219.549944 -41.257812) scale(0.7)"/>
      <use xlink:href="#STIXGeneral-Regular-29" transform="translate(254.549933 -41.257812) scale(0.7)"/>
      <path d="M 141.779971 12.8 
L 141.779971 19.05 
L 277.859924 19.05 
L 277.859924 12.8 
L 141.779971 12.8 
z
"/>
     </g>
    </g>
   </g>
   <g id="matplotlib.axis_2">
    <g id="ytick_1">
     <g id="line2d_9">
      <path d="M 358.719 311.6435 
L 715.839 311.6435 
" clip-path="url(#pf978cc0759)" style="fill: none; stroke: #b0b0b0; stroke-opacity: 0.3; stroke-width: 0.8; stroke-linecap: square"/>
     </g>
     <g id="line2d_10">
      <defs>
       <path id="mcd3452b6de" d="M 0 0 
L -3.5 0 
" style="stroke: #000000; stroke-width: 0.8"/>
      </defs>
      <g>
       <use xlink:href="#mcd3452b6de" x="358.719" y="311.6435" style="stroke: #000000; stroke-width: 0.8"/>
      </g>
     </g>
     <g id="text_6">
      <!-- 0.0 -->
      <g transform="translate(324.219 319.281625) scale(0.22 -0.22)">
       <use xlink:href="#TimesNewRomanPSMT-30"/>
       <use xlink:href="#TimesNewRomanPSMT-2e" transform="translate(50 0)"/>
       <use xlink:href="#TimesNewRomanPSMT-30" transform="translate(75 0)"/>
      </g>
     </g>
    </g>
    <g id="ytick_2">
     <g id="line2d_11">
      <path d="M 358.719 285.0323 
L 715.839 285.0323 
" clip-path="url(#pf978cc0759)" style="fill: none; stroke: #b0b0b0; stroke-opacity: 0.3; stroke-width: 0.8; stroke-linecap: square"/>
     </g>
     <g id="line2d_12">
      <g>
       <use xlink:href="#mcd3452b6de" x="358.719" y="285.0323" style="stroke: #000000; stroke-width: 0.8"/>
      </g>
     </g>
     <g id="text_7">
      <!-- 0.1 -->
      <g transform="translate(324.219 292.670425) scale(0.22 -0.22)">
       <use xlink:href="#TimesNewRomanPSMT-30"/>
       <use xlink:href="#TimesNewRomanPSMT-2e" transform="translate(50 0)"/>
       <use xlink:href="#TimesNewRomanPSMT-31" transform="translate(75 0)"/>
      </g>
     </g>
    </g>
    <g id="ytick_3">
     <g id="line2d_13">
      <path d="M 358.719 258.4211 
L 715.839 258.4211 
" clip-path="url(#pf978cc0759)" style="fill: none; stroke: #b0b0b0; stroke-opacity: 0.3; stroke-width: 0.8; stroke-linecap: square"/>
     </g>
     <g id="line2d_14">
      <g>
       <use xlink:href="#mcd3452b6de" x="358.719" y="258.4211" style="stroke: #000000; stroke-width: 0.8"/>
      </g>
     </g>
     <g id="text_8">
      <!-- 0.2 -->
      <g transform="translate(324.219 266.059225) scale(0.22 -0.22)">
       <defs>
        <path id="TimesNewRomanPSMT-32" d="M 2934 816 
L 2638 0 
L 138 0 
L 138 116 
Q 1241 1122 1691 1759 
Q 2141 2397 2141 2925 
Q 2141 3328 1894 3587 
Q 1647 3847 1303 3847 
Q 991 3847 742 3664 
Q 494 3481 375 3128 
L 259 3128 
Q 338 3706 661 4015 
Q 984 4325 1469 4325 
Q 1984 4325 2329 3994 
Q 2675 3663 2675 3213 
Q 2675 2891 2525 2569 
Q 2294 2063 1775 1497 
Q 997 647 803 472 
L 1909 472 
Q 2247 472 2383 497 
Q 2519 522 2628 598 
Q 2738 675 2819 816 
L 2934 816 
z
" transform="scale(0.015625)"/>
       </defs>
       <use xlink:href="#TimesNewRomanPSMT-30"/>
       <use xlink:href="#TimesNewRomanPSMT-2e" transform="translate(50 0)"/>
       <use xlink:href="#TimesNewRomanPSMT-32" transform="translate(75 0)"/>
      </g>
     </g>
    </g>
    <g id="ytick_4">
     <g id="line2d_15">
      <path d="M 358.719 231.8099 
L 715.839 231.8099 
" clip-path="url(#pf978cc0759)" style="fill: none; stroke: #b0b0b0; stroke-opacity: 0.3; stroke-width: 0.8; stroke-linecap: square"/>
     </g>
     <g id="line2d_16">
      <g>
       <use xlink:href="#mcd3452b6de" x="358.719" y="231.8099" style="stroke: #000000; stroke-width: 0.8"/>
      </g>
     </g>
     <g id="text_9">
      <!-- 0.3 -->
      <g transform="translate(324.219 239.448025) scale(0.22 -0.22)">
       <defs>
        <path id="TimesNewRomanPSMT-33" d="M 325 3431 
Q 506 3859 782 4092 
Q 1059 4325 1472 4325 
Q 1981 4325 2253 3994 
Q 2459 3747 2459 3466 
Q 2459 3003 1878 2509 
Q 2269 2356 2469 2072 
Q 2669 1788 2669 1403 
Q 2669 853 2319 450 
Q 1863 -75 997 -75 
Q 569 -75 414 31 
Q 259 138 259 259 
Q 259 350 332 419 
Q 406 488 509 488 
Q 588 488 669 463 
Q 722 447 909 348 
Q 1097 250 1169 231 
Q 1284 197 1416 197 
Q 1734 197 1970 444 
Q 2206 691 2206 1028 
Q 2206 1275 2097 1509 
Q 2016 1684 1919 1775 
Q 1784 1900 1550 2001 
Q 1316 2103 1072 2103 
L 972 2103 
L 972 2197 
Q 1219 2228 1467 2375 
Q 1716 2522 1828 2728 
Q 1941 2934 1941 3181 
Q 1941 3503 1739 3701 
Q 1538 3900 1238 3900 
Q 753 3900 428 3381 
L 325 3431 
z
" transform="scale(0.015625)"/>
       </defs>
       <use xlink:href="#TimesNewRomanPSMT-30"/>
       <use xlink:href="#TimesNewRomanPSMT-2e" transform="translate(50 0)"/>
       <use xlink:href="#TimesNewRomanPSMT-33" transform="translate(75 0)"/>
      </g>
     </g>
    </g>
    <g id="ytick_5">
     <g id="line2d_17">
      <path d="M 358.719 205.1987 
L 715.839 205.1987 
" clip-path="url(#pf978cc0759)" style="fill: none; stroke: #b0b0b0; stroke-opacity: 0.3; stroke-width: 0.8; stroke-linecap: square"/>
     </g>
     <g id="line2d_18">
      <g>
       <use xlink:href="#mcd3452b6de" x="358.719" y="205.1987" style="stroke: #000000; stroke-width: 0.8"/>
      </g>
     </g>
     <g id="text_10">
      <!-- 0.4 -->
      <g transform="translate(324.219 212.836825) scale(0.22 -0.22)">
       <defs>
        <path id="TimesNewRomanPSMT-34" d="M 2978 1563 
L 2978 1119 
L 2409 1119 
L 2409 0 
L 1894 0 
L 1894 1119 
L 100 1119 
L 100 1519 
L 2066 4325 
L 2409 4325 
L 2409 1563 
L 2978 1563 
z
M 1894 1563 
L 1894 3666 
L 406 1563 
L 1894 1563 
z
" transform="scale(0.015625)"/>
       </defs>
       <use xlink:href="#TimesNewRomanPSMT-30"/>
       <use xlink:href="#TimesNewRomanPSMT-2e" transform="translate(50 0)"/>
       <use xlink:href="#TimesNewRomanPSMT-34" transform="translate(75 0)"/>
      </g>
     </g>
    </g>
    <g id="ytick_6">
     <g id="line2d_19">
      <path d="M 358.719 178.5875 
L 715.839 178.5875 
" clip-path="url(#pf978cc0759)" style="fill: none; stroke: #b0b0b0; stroke-opacity: 0.3; stroke-width: 0.8; stroke-linecap: square"/>
     </g>
     <g id="line2d_20">
      <g>
       <use xlink:href="#mcd3452b6de" x="358.719" y="178.5875" style="stroke: #000000; stroke-width: 0.8"/>
      </g>
     </g>
     <g id="text_11">
      <!-- 0.5 -->
      <g transform="translate(324.219 186.225625) scale(0.22 -0.22)">
       <use xlink:href="#TimesNewRomanPSMT-30"/>
       <use xlink:href="#TimesNewRomanPSMT-2e" transform="translate(50 0)"/>
       <use xlink:href="#TimesNewRomanPSMT-35" transform="translate(75 0)"/>
      </g>
     </g>
    </g>
    <g id="ytick_7">
     <g id="line2d_21">
      <path d="M 358.719 151.9763 
L 715.839 151.9763 
" clip-path="url(#pf978cc0759)" style="fill: none; stroke: #b0b0b0; stroke-opacity: 0.3; stroke-width: 0.8; stroke-linecap: square"/>
     </g>
     <g id="line2d_22">
      <g>
       <use xlink:href="#mcd3452b6de" x="358.719" y="151.9763" style="stroke: #000000; stroke-width: 0.8"/>
      </g>
     </g>
     <g id="text_12">
      <!-- 0.6 -->
      <g transform="translate(324.219 159.614425) scale(0.22 -0.22)">
       <defs>
        <path id="TimesNewRomanPSMT-36" d="M 2869 4325 
L 2869 4209 
Q 2456 4169 2195 4045 
Q 1934 3922 1679 3669 
Q 1425 3416 1258 3105 
Q 1091 2794 978 2366 
Q 1428 2675 1881 2675 
Q 2316 2675 2634 2325 
Q 2953 1975 2953 1425 
Q 2953 894 2631 456 
Q 2244 -75 1606 -75 
Q 1172 -75 869 213 
Q 275 772 275 1663 
Q 275 2231 503 2743 
Q 731 3256 1154 3653 
Q 1578 4050 1965 4187 
Q 2353 4325 2688 4325 
L 2869 4325 
z
M 925 2138 
Q 869 1716 869 1456 
Q 869 1156 980 804 
Q 1091 453 1309 247 
Q 1469 100 1697 100 
Q 1969 100 2183 356 
Q 2397 613 2397 1088 
Q 2397 1622 2184 2012 
Q 1972 2403 1581 2403 
Q 1463 2403 1327 2353 
Q 1191 2303 925 2138 
z
" transform="scale(0.015625)"/>
       </defs>
       <use xlink:href="#TimesNewRomanPSMT-30"/>
       <use xlink:href="#TimesNewRomanPSMT-2e" transform="translate(50 0)"/>
       <use xlink:href="#TimesNewRomanPSMT-36" transform="translate(75 0)"/>
      </g>
     </g>
    </g>
    <g id="ytick_8">
     <g id="line2d_23">
      <path d="M 358.719 125.3651 
L 715.839 125.3651 
" clip-path="url(#pf978cc0759)" style="fill: none; stroke: #b0b0b0; stroke-opacity: 0.3; stroke-width: 0.8; stroke-linecap: square"/>
     </g>
     <g id="line2d_24">
      <g>
       <use xlink:href="#mcd3452b6de" x="358.719" y="125.3651" style="stroke: #000000; stroke-width: 0.8"/>
      </g>
     </g>
     <g id="text_13">
      <!-- 0.7 -->
      <g transform="translate(324.219 133.003225) scale(0.22 -0.22)">
       <defs>
        <path id="TimesNewRomanPSMT-37" d="M 644 4238 
L 2916 4238 
L 2916 4119 
L 1503 -88 
L 1153 -88 
L 2419 3728 
L 1253 3728 
Q 900 3728 750 3644 
Q 488 3500 328 3200 
L 238 3234 
L 644 4238 
z
" transform="scale(0.015625)"/>
       </defs>
       <use xlink:href="#TimesNewRomanPSMT-30"/>
       <use xlink:href="#TimesNewRomanPSMT-2e" transform="translate(50 0)"/>
       <use xlink:href="#TimesNewRomanPSMT-37" transform="translate(75 0)"/>
      </g>
     </g>
    </g>
    <g id="ytick_9">
     <g id="line2d_25">
      <path d="M 358.719 98.7539 
L 715.839 98.7539 
" clip-path="url(#pf978cc0759)" style="fill: none; stroke: #b0b0b0; stroke-opacity: 0.3; stroke-width: 0.8; stroke-linecap: square"/>
     </g>
     <g id="line2d_26">
      <g>
       <use xlink:href="#mcd3452b6de" x="358.719" y="98.7539" style="stroke: #000000; stroke-width: 0.8"/>
      </g>
     </g>
     <g id="text_14">
      <!-- 0.8 -->
      <g transform="translate(324.219 106.392025) scale(0.22 -0.22)">
       <defs>
        <path id="TimesNewRomanPSMT-38" d="M 1228 2134 
Q 725 2547 579 2797 
Q 434 3047 434 3316 
Q 434 3728 753 4026 
Q 1072 4325 1600 4325 
Q 2113 4325 2425 4047 
Q 2738 3769 2738 3413 
Q 2738 3175 2569 2928 
Q 2400 2681 1866 2347 
Q 2416 1922 2594 1678 
Q 2831 1359 2831 1006 
Q 2831 559 2490 242 
Q 2150 -75 1597 -75 
Q 994 -75 656 303 
Q 388 606 388 966 
Q 388 1247 577 1523 
Q 766 1800 1228 2134 
z
M 1719 2469 
Q 2094 2806 2194 3001 
Q 2294 3197 2294 3444 
Q 2294 3772 2109 3958 
Q 1925 4144 1606 4144 
Q 1288 4144 1088 3959 
Q 888 3775 888 3528 
Q 888 3366 970 3203 
Q 1053 3041 1206 2894 
L 1719 2469 
z
M 1375 2016 
Q 1116 1797 991 1539 
Q 866 1281 866 981 
Q 866 578 1086 336 
Q 1306 94 1647 94 
Q 1984 94 2187 284 
Q 2391 475 2391 747 
Q 2391 972 2272 1150 
Q 2050 1481 1375 2016 
z
" transform="scale(0.015625)"/>
       </defs>
       <use xlink:href="#TimesNewRomanPSMT-30"/>
       <use xlink:href="#TimesNewRomanPSMT-2e" transform="translate(50 0)"/>
       <use xlink:href="#TimesNewRomanPSMT-38" transform="translate(75 0)"/>
      </g>
     </g>
    </g>
    <g id="ytick_10">
     <g id="line2d_27">
      <path d="M 358.719 72.1427 
L 715.839 72.1427 
" clip-path="url(#pf978cc0759)" style="fill: none; stroke: #b0b0b0; stroke-opacity: 0.3; stroke-width: 0.8; stroke-linecap: square"/>
     </g>
     <g id="line2d_28">
      <g>
       <use xlink:href="#mcd3452b6de" x="358.719" y="72.1427" style="stroke: #000000; stroke-width: 0.8"/>
      </g>
     </g>
     <g id="text_15">
      <!-- 0.9 -->
      <g transform="translate(324.219 79.780825) scale(0.22 -0.22)">
       <defs>
        <path id="TimesNewRomanPSMT-39" d="M 338 -88 
L 338 28 
Q 744 34 1094 217 
Q 1444 400 1770 856 
Q 2097 1313 2225 1859 
Q 1734 1544 1338 1544 
Q 891 1544 572 1889 
Q 253 2234 253 2806 
Q 253 3363 572 3797 
Q 956 4325 1575 4325 
Q 2097 4325 2469 3894 
Q 2925 3359 2925 2575 
Q 2925 1869 2578 1258 
Q 2231 647 1613 244 
Q 1109 -88 516 -88 
L 338 -88 
z
M 2275 2091 
Q 2331 2497 2331 2741 
Q 2331 3044 2228 3395 
Q 2125 3747 1936 3934 
Q 1747 4122 1506 4122 
Q 1228 4122 1018 3872 
Q 809 3622 809 3128 
Q 809 2469 1088 2097 
Q 1291 1828 1588 1828 
Q 1731 1828 1928 1897 
Q 2125 1966 2275 2091 
z
" transform="scale(0.015625)"/>
       </defs>
       <use xlink:href="#TimesNewRomanPSMT-30"/>
       <use xlink:href="#TimesNewRomanPSMT-2e" transform="translate(50 0)"/>
       <use xlink:href="#TimesNewRomanPSMT-39" transform="translate(75 0)"/>
      </g>
     </g>
    </g>
    <g id="ytick_11">
     <g id="line2d_29">
      <path d="M 358.719 45.5315 
L 715.839 45.5315 
" clip-path="url(#pf978cc0759)" style="fill: none; stroke: #b0b0b0; stroke-opacity: 0.3; stroke-width: 0.8; stroke-linecap: square"/>
     </g>
     <g id="line2d_30">
      <g>
       <use xlink:href="#mcd3452b6de" x="358.719" y="45.5315" style="stroke: #000000; stroke-width: 0.8"/>
      </g>
     </g>
     <g id="text_16">
      <!-- 1.0 -->
      <g transform="translate(324.219 53.169625) scale(0.22 -0.22)">
       <use xlink:href="#TimesNewRomanPSMT-31"/>
       <use xlink:href="#TimesNewRomanPSMT-2e" transform="translate(50 0)"/>
       <use xlink:href="#TimesNewRomanPSMT-30" transform="translate(75 0)"/>
      </g>
     </g>
    </g>
    <g id="text_17">
     <!-- Accuracy -->
     <g transform="translate(315.471813 220.726094) rotate(-90) scale(0.22 -0.22)">
      <defs>
       <path id="TimesNewRomanPSMT-41" d="M 2928 1419 
L 1288 1419 
L 1000 750 
Q 894 503 894 381 
Q 894 284 986 211 
Q 1078 138 1384 116 
L 1384 0 
L 50 0 
L 50 116 
Q 316 163 394 238 
Q 553 388 747 847 
L 2238 4334 
L 2347 4334 
L 3822 809 
Q 4000 384 4145 257 
Q 4291 131 4550 116 
L 4550 0 
L 2878 0 
L 2878 116 
Q 3131 128 3220 200 
Q 3309 272 3309 375 
Q 3309 513 3184 809 
L 2928 1419 
z
M 2841 1650 
L 2122 3363 
L 1384 1650 
L 2841 1650 
z
" transform="scale(0.015625)"/>
       <path id="TimesNewRomanPSMT-63" d="M 2631 1088 
Q 2516 522 2178 217 
Q 1841 -88 1431 -88 
Q 944 -88 581 321 
Q 219 731 219 1428 
Q 219 2103 620 2525 
Q 1022 2947 1584 2947 
Q 2006 2947 2278 2723 
Q 2550 2500 2550 2259 
Q 2550 2141 2473 2067 
Q 2397 1994 2259 1994 
Q 2075 1994 1981 2113 
Q 1928 2178 1911 2362 
Q 1894 2547 1784 2644 
Q 1675 2738 1481 2738 
Q 1169 2738 978 2506 
Q 725 2200 725 1697 
Q 725 1184 976 792 
Q 1228 400 1656 400 
Q 1963 400 2206 609 
Q 2378 753 2541 1131 
L 2631 1088 
z
" transform="scale(0.015625)"/>
       <path id="TimesNewRomanPSMT-75" d="M 2709 2863 
L 2709 1128 
Q 2709 631 2732 520 
Q 2756 409 2807 365 
Q 2859 322 2928 322 
Q 3025 322 3147 375 
L 3191 266 
L 2334 -88 
L 2194 -88 
L 2194 519 
Q 1825 119 1631 15 
Q 1438 -88 1222 -88 
Q 981 -88 804 51 
Q 628 191 559 409 
Q 491 628 491 1028 
L 491 2306 
Q 491 2509 447 2587 
Q 403 2666 317 2708 
Q 231 2750 6 2747 
L 6 2863 
L 1009 2863 
L 1009 947 
Q 1009 547 1148 422 
Q 1288 297 1484 297 
Q 1619 297 1789 381 
Q 1959 466 2194 703 
L 2194 2325 
Q 2194 2569 2105 2655 
Q 2016 2741 1734 2747 
L 1734 2863 
L 2709 2863 
z
" transform="scale(0.015625)"/>
       <path id="TimesNewRomanPSMT-72" d="M 1038 2947 
L 1038 2303 
Q 1397 2947 1775 2947 
Q 1947 2947 2059 2842 
Q 2172 2738 2172 2600 
Q 2172 2478 2090 2393 
Q 2009 2309 1897 2309 
Q 1788 2309 1652 2417 
Q 1516 2525 1450 2525 
Q 1394 2525 1328 2463 
Q 1188 2334 1038 2041 
L 1038 669 
Q 1038 431 1097 309 
Q 1138 225 1241 169 
Q 1344 113 1538 113 
L 1538 0 
L 72 0 
L 72 113 
Q 291 113 397 181 
Q 475 231 506 341 
Q 522 394 522 644 
L 522 1753 
Q 522 2253 501 2348 
Q 481 2444 426 2487 
Q 372 2531 291 2531 
Q 194 2531 72 2484 
L 41 2597 
L 906 2947 
L 1038 2947 
z
" transform="scale(0.015625)"/>
       <path id="TimesNewRomanPSMT-61" d="M 1822 413 
Q 1381 72 1269 19 
Q 1100 -59 909 -59 
Q 613 -59 420 144 
Q 228 347 228 678 
Q 228 888 322 1041 
Q 450 1253 767 1440 
Q 1084 1628 1822 1897 
L 1822 2009 
Q 1822 2438 1686 2597 
Q 1550 2756 1291 2756 
Q 1094 2756 978 2650 
Q 859 2544 859 2406 
L 866 2225 
Q 866 2081 792 2003 
Q 719 1925 600 1925 
Q 484 1925 411 2006 
Q 338 2088 338 2228 
Q 338 2497 613 2722 
Q 888 2947 1384 2947 
Q 1766 2947 2009 2819 
Q 2194 2722 2281 2516 
Q 2338 2381 2338 1966 
L 2338 994 
Q 2338 584 2353 492 
Q 2369 400 2405 369 
Q 2441 338 2488 338 
Q 2538 338 2575 359 
Q 2641 400 2828 588 
L 2828 413 
Q 2478 -56 2159 -56 
Q 2006 -56 1915 50 
Q 1825 156 1822 413 
z
M 1822 616 
L 1822 1706 
Q 1350 1519 1213 1441 
Q 966 1303 859 1153 
Q 753 1003 753 825 
Q 753 600 887 451 
Q 1022 303 1197 303 
Q 1434 303 1822 616 
z
" transform="scale(0.015625)"/>
       <path id="TimesNewRomanPSMT-79" d="M 38 2863 
L 1372 2863 
L 1372 2747 
L 1306 2747 
Q 1166 2747 1095 2686 
Q 1025 2625 1025 2534 
Q 1025 2413 1128 2197 
L 1825 753 
L 2466 2334 
Q 2519 2463 2519 2588 
Q 2519 2644 2497 2672 
Q 2472 2706 2419 2726 
Q 2366 2747 2231 2747 
L 2231 2863 
L 3163 2863 
L 3163 2747 
Q 3047 2734 2984 2696 
Q 2922 2659 2847 2556 
Q 2819 2513 2741 2316 
L 1575 -541 
Q 1406 -956 1132 -1168 
Q 859 -1381 606 -1381 
Q 422 -1381 303 -1275 
Q 184 -1169 184 -1031 
Q 184 -900 270 -820 
Q 356 -741 506 -741 
Q 609 -741 788 -809 
Q 913 -856 944 -856 
Q 1038 -856 1148 -759 
Q 1259 -663 1372 -384 
L 1575 113 
L 547 2272 
Q 500 2369 397 2513 
Q 319 2622 269 2659 
Q 197 2709 38 2747 
L 38 2863 
z
" transform="scale(0.015625)"/>
      </defs>
      <use xlink:href="#TimesNewRomanPSMT-41"/>
      <use xlink:href="#TimesNewRomanPSMT-63" transform="translate(72.216797 0)"/>
      <use xlink:href="#TimesNewRomanPSMT-63" transform="translate(116.601562 0)"/>
      <use xlink:href="#TimesNewRomanPSMT-75" transform="translate(160.986328 0)"/>
      <use xlink:href="#TimesNewRomanPSMT-72" transform="translate(210.986328 0)"/>
      <use xlink:href="#TimesNewRomanPSMT-61" transform="translate(244.287109 0)"/>
      <use xlink:href="#TimesNewRomanPSMT-63" transform="translate(288.671875 0)"/>
      <use xlink:href="#TimesNewRomanPSMT-79" transform="translate(333.056641 0)"/>
     </g>
    </g>
   </g>
   <g id="line2d_31">
    <path d="M 358.719 174.861932 
L 428.876885 160.757988 
L 447.795679 151.044906 
L 459.190489 147.718493 
L 467.37047 140.533482 
L 473.756043 136.009573 
L 478.994561 134.545952 
L 483.436037 134.412906 
L 487.291287 131.884835 
L 490.697171 130.820384 
L 493.747595 129.356764 
L 496.509793 127.227879 
L 499.033561 126.429537 
L 501.35681 126.030367 
L 503.509072 124.300637 
L 505.513799 122.171753 
L 510.815773 120.308961 
L 512.389139 120.97424 
L 515.302745 120.042852 
L 516.657504 120.042852 
L 517.952297 120.708132 
L 519.19221 118.84534 
L 520.381706 119.90979 
L 521.524725 119.377573 
L 522.624763 119.244511 
L 523.684935 118.180061 
L 524.708031 118.712294 
L 525.696556 118.579231 
L 526.652771 119.111464 
L 528.476262 117.115626 
L 529.347087 117.780906 
L 530.19274 117.381735 
L 531.014635 117.381735 
L 531.814072 116.849502 
L 532.592244 117.248673 
L 533.350255 117.115626 
L 534.809787 117.115626 
L 535.513128 116.849502 
L 536.871031 116.849502 
L 537.527057 116.450331 
L 538.168696 116.583393 
L 538.796565 116.583393 
L 539.411242 116.450331 
L 540.603161 115.518943 
L 541.181392 115.518943 
L 541.748417 115.785052 
L 542.304661 115.918114 
L 542.850527 115.652005 
L 543.386395 114.853664 
L 543.912624 114.853664 
L 544.429555 114.720617 
L 544.937512 114.055338 
L 545.4368 115.385897 
L 545.92771 114.720617 
L 546.410519 114.321447 
L 546.88549 114.986726 
L 547.352873 114.986726 
L 547.812907 114.720617 
L 548.265819 113.922276 
L 548.711827 114.853664 
L 549.151138 116.184223 
L 549.58395 116.051176 
L 550.010453 115.652005 
L 550.430827 114.986726 
L 551.253879 114.188384 
L 551.656882 114.188384 
L 552.054409 114.321447 
L 552.446607 114.055338 
L 552.833618 114.188384 
L 553.215576 114.055338 
L 553.96485 115.652005 
L 554.332412 114.188384 
L 554.695414 114.454493 
L 555.053967 115.119772 
L 555.408179 114.321447 
L 555.758154 114.454493 
L 556.103992 113.789214 
L 556.445789 114.720617 
L 556.78364 114.188384 
L 557.117634 114.587555 
L 557.447859 116.716456 
L 557.774397 114.188384 
L 558.41674 114.853664 
L 558.7327 114.454493 
L 559.045284 114.720617 
L 559.354563 114.454493 
L 559.963483 114.720617 
L 560.263256 114.321447 
L 560.559988 114.720617 
L 560.853741 116.450331 
L 561.144574 113.523105 
L 561.432545 114.853664 
L 562.000119 114.853664 
L 562.556893 115.252835 
L 562.831356 115.918114 
L 563.103268 114.853664 
L 563.372677 114.587555 
L 563.639627 116.051176 
L 563.904164 114.587555 
L 564.16633 114.188384 
L 564.683718 114.454493 
L 565.192116 115.785052 
L 565.44304 116.051176 
L 565.69183 115.119772 
L 565.938523 115.252835 
L 566.183153 115.652005 
L 566.425754 115.652005 
L 566.66636 115.252835 
L 566.905004 115.518943 
L 567.141717 115.518943 
L 567.37653 116.583393 
L 567.609474 114.853664 
L 567.840577 115.652005 
L 568.06987 115.119772 
L 568.297379 114.986726 
L 568.523133 115.652005 
L 568.969481 115.652005 
L 569.190127 116.450331 
L 569.409122 114.986726 
L 569.62649 114.986726 
L 569.842254 115.119772 
L 570.269068 115.652005 
L 570.480162 114.986726 
L 570.689745 114.853664 
L 570.897836 114.188384 
L 571.104458 114.720617 
L 571.513376 114.986726 
L 571.715711 114.454493 
L 571.916656 114.587555 
L 572.116231 114.853664 
L 572.511343 114.720617 
L 572.706915 114.986726 
L 572.901189 113.922276 
L 573.094182 114.720617 
L 573.28591 114.321447 
L 573.665637 114.055338 
L 573.853668 114.454493 
L 574.040498 114.055338 
L 574.226143 114.055338 
L 574.593937 114.321447 
L 574.776114 113.656167 
L 575.1371 114.720617 
L 575.315936 114.321447 
L 575.670363 114.720617 
L 575.845979 114.454493 
L 576.020547 114.454493 
L 576.19408 114.188384 
L 576.538088 114.188384 
L 576.708587 114.587555 
L 576.878099 113.656167 
L 577.046633 113.523105 
L 577.54649 113.789214 
L 577.711229 113.390043 
L 577.875045 114.454493 
L 578.03795 113.922276 
L 578.52129 113.523105 
L 578.680646 112.990888 
L 578.996776 113.656167 
L 579.309527 113.523105 
L 579.464657 113.523105 
L 579.61897 113.789214 
L 580.077083 113.390043 
L 580.228207 112.990888 
L 580.378554 112.990888 
L 580.676951 112.857826 
L 580.825016 113.390043 
L 580.972335 112.724764 
L 581.118917 112.990888 
L 581.409894 111.660329 
L 581.698006 112.990888 
L 581.983309 111.793376 
L 582.124924 111.926438 
L 582.545701 113.390043 
L 583.097487 111.128096 
L 583.369525 112.857826 
L 583.504602 111.926438 
L 583.639058 111.926438 
L 583.772899 112.458655 
L 583.90613 112.059484 
L 584.038758 112.458655 
L 584.43307 111.926438 
L 584.563336 112.059484 
L 584.693024 112.059484 
L 584.822139 110.99505 
L 584.950688 111.926438 
L 585.078674 111.926438 
L 585.206102 111.660329 
L 585.332978 112.059484 
L 585.585091 111.527267 
L 585.710338 111.261158 
L 585.835051 111.660329 
L 585.959234 111.660329 
L 586.082893 111.793376 
L 586.206031 111.527267 
L 586.328653 111.527267 
L 586.572365 111.394205 
L 586.693465 111.394205 
L 586.814065 111.527267 
L 586.93417 111.128096 
L 587.053784 111.527267 
L 587.291555 111.527267 
L 587.527409 111.660329 
L 587.877663 110.99505 
L 587.993489 111.128096 
L 588.108858 110.99505 
L 588.223774 111.261158 
L 588.338241 111.128096 
L 588.452261 111.394205 
L 588.678977 110.728925 
L 588.90395 111.394205 
L 589.015791 110.99505 
L 589.127206 111.527267 
L 589.458927 110.595879 
L 589.568671 110.462817 
L 589.78693 111.261158 
L 589.895453 110.99505 
L 590.003574 110.861988 
L 590.111297 110.329755 
L 590.218625 110.462817 
L 590.32556 110.861988 
L 590.432107 110.595879 
L 590.644042 110.861988 
L 590.749437 110.595879 
L 590.959094 110.99505 
L 591.16726 110.595879 
L 591.373955 111.128096 
L 591.476757 110.728925 
L 591.681285 110.99505 
L 591.783015 110.861988 
L 591.884393 111.128096 
L 591.98542 110.99505 
L 592.186435 111.128096 
L 592.286427 110.861988 
L 592.485391 111.394205 
L 592.683011 110.99505 
L 592.879305 111.527267 
L 593.074291 110.595879 
L 593.267986 111.527267 
L 593.364355 111.394205 
L 593.460408 111.394205 
L 593.651572 111.128096 
L 593.841495 110.861988 
L 594.030193 111.793376 
L 594.310978 110.99505 
L 594.496682 111.527267 
L 594.681215 111.394205 
L 594.864591 111.394205 
L 595.046825 111.660329 
L 595.22793 111.527267 
L 595.318065 111.527267 
L 595.586813 111.793376 
L 595.67585 111.660329 
L 595.764617 111.793376 
L 595.941347 111.660329 
L 596.117016 111.793376 
L 596.291636 111.261158 
L 596.378557 112.192546 
L 596.465221 111.527267 
L 596.551628 111.926438 
L 596.723681 111.527267 
L 596.80933 112.059484 
L 596.894729 111.660329 
L 597.064782 111.926438 
L 597.149439 111.660329 
L 597.318023 111.793376 
L 597.401951 111.793376 
L 597.56909 111.261158 
L 597.735279 112.458655 
L 597.90053 111.793376 
L 597.982807 111.660329 
L 598.146669 112.192546 
L 598.228257 111.926438 
L 598.309619 111.261158 
L 598.390755 112.325609 
L 598.471666 112.059484 
L 598.632821 111.926438 
L 598.793093 112.192546 
L 598.872901 111.261158 
L 598.952491 111.527267 
L 599.111026 112.059484 
L 599.268707 112.059484 
L 599.34723 112.192546 
L 599.425542 111.394205 
L 599.503646 112.192546 
L 599.581541 112.059484 
L 599.65923 112.059484 
L 599.736713 112.192546 
L 599.891066 111.926438 
L 599.967938 111.261158 
L 600.12108 111.793376 
L 600.197351 111.660329 
L 600.273423 111.926438 
L 600.500462 111.261158 
L 600.575752 111.926438 
L 600.650848 111.660329 
L 600.800465 111.926438 
L 600.874988 111.793376 
L 600.949321 110.99505 
L 601.023466 111.793376 
L 601.097423 110.861988 
L 601.171194 111.128096 
L 601.318181 111.793376 
L 601.464432 110.99505 
L 601.537285 111.660329 
L 601.609956 111.394205 
L 601.826894 111.793376 
L 601.970631 111.128096 
L 602.113665 111.527267 
L 602.256003 111.128096 
L 602.46822 111.527267 
L 602.538619 111.527267 
L 602.608848 111.128096 
L 602.748803 111.527267 
L 602.81853 110.861988 
L 602.888092 110.99505 
L 603.026721 111.793376 
L 603.370446 111.261158 
L 603.506813 111.660329 
L 603.574759 111.261158 
L 603.777656 111.793376 
L 603.844977 111.128096 
L 603.912143 111.926438 
L 604.046014 111.261158 
L 604.24568 111.660329 
L 604.378037 111.128096 
L 604.443992 111.527267 
L 604.509799 111.128096 
L 604.575457 112.059484 
L 604.640969 111.527267 
L 604.706335 112.192546 
L 604.771554 111.926438 
L 604.901559 111.128096 
L 604.966346 111.926438 
L 605.030989 111.793376 
L 605.09549 110.99505 
L 605.224066 111.793376 
L 605.288143 111.660329 
L 605.35208 110.99505 
L 605.415878 111.261158 
L 605.479537 110.99505 
L 605.669686 111.926438 
L 605.858608 111.527267 
L 605.921312 111.926438 
L 606.046317 111.527267 
L 606.10862 111.527267 
L 606.170791 110.861988 
L 606.23283 111.793376 
L 606.294738 110.728925 
L 606.356515 110.99505 
L 606.541067 111.793376 
L 606.663458 111.261158 
L 606.724462 111.793376 
L 606.785339 111.394205 
L 606.84609 111.394205 
L 607.027589 110.728925 
L 607.087839 110.595879 
L 607.147966 110.728925 
L 607.207969 110.861988 
L 607.26785 110.462817 
L 607.506153 111.660329 
L 607.624581 110.462817 
L 607.801329 111.660329 
L 607.91857 110.595879 
L 607.977015 111.527267 
L 608.035344 111.261158 
L 608.209635 110.196708 
L 608.267502 110.196708 
L 608.440419 111.128096 
L 608.612321 110.196708 
L 608.726363 110.595879 
L 608.839963 110.196708 
L 608.953123 110.861988 
L 609.178139 110.462817 
L 609.345773 110.595879 
L 609.401438 110.196708 
L 609.456997 110.329755 
L 609.512451 110.329755 
L 609.5678 110.462817 
L 609.678185 109.9306 
L 609.733222 110.329755 
L 609.788156 110.196708 
L 609.897714 110.196708 
L 609.95234 110.329755 
L 610.061286 109.26532 
L 610.115608 110.329755 
L 610.169829 109.797537 
L 610.331891 110.196708 
L 610.600016 109.797537 
L 610.759719 109.797537 
L 610.865705 109.664475 
L 611.023969 109.797537 
L 611.181381 109.664475 
L 611.233664 109.664475 
L 611.285853 109.398367 
L 611.33795 109.664475 
L 611.493686 109.132258 
L 611.597052 109.797537 
L 611.648598 109.664475 
L 611.700053 109.132258 
L 611.751418 109.664475 
L 611.904975 109.26532 
L 611.955982 109.26532 
L 612.0069 109.398367 
L 612.05773 109.132258 
L 612.108471 109.26532 
L 612.209691 109.26532 
L 612.26017 108.999196 
L 612.310562 109.531429 
L 612.360867 108.86615 
L 612.461219 108.999196 
L 612.511266 109.531429 
L 612.561228 108.999196 
L 612.611104 108.600041 
L 612.660896 108.999196 
L 612.710603 109.26532 
L 612.760226 108.999196 
L 612.809764 108.600041 
L 612.908591 109.398367 
L 613.007085 108.600041 
L 613.056208 109.398367 
L 613.105248 109.26532 
L 613.203083 108.600041 
L 613.251878 109.26532 
L 613.300592 108.733087 
L 613.397777 108.600041 
L 613.446249 109.132258 
L 613.494641 108.733087 
L 613.542952 108.600041 
L 613.639337 109.398367 
L 613.735405 108.466979 
L 613.783321 109.132258 
L 613.831159 108.86615 
L 613.926601 108.466979 
L 613.974205 109.132258 
L 614.021732 108.86615 
L 614.116555 108.466979 
L 614.211071 108.999196 
L 614.305283 108.466979 
L 614.352276 108.600041 
L 614.399193 108.999196 
L 614.446035 108.466979 
L 614.492802 108.466979 
L 614.539495 108.999196 
L 614.586113 108.733087 
L 614.632657 108.333917 
L 614.679127 108.600041 
L 614.725523 108.733087 
L 614.818096 108.333917 
L 614.956408 108.999196 
L 615.002367 108.86615 
L 615.048254 109.132258 
L 615.094069 108.999196 
L 615.276616 107.535591 
L 615.322075 108.333917 
L 615.367464 108.067808 
L 615.458031 107.535591 
L 615.503209 109.26532 
L 615.548318 115.652005 
L 615.593357 111.793376 
L 615.638327 111.261158 
L 615.772824 106.870311 
L 615.862147 108.466979 
L 615.995621 107.402529 
L 616.039978 107.269482 
L 616.084267 107.535591 
L 616.12849 107.402529 
L 616.304714 107.13642 
L 616.479883 107.402529 
L 616.523512 107.402529 
L 616.69738 107.668637 
L 616.740686 107.668637 
L 616.870221 107.801699 
L 616.999185 107.801699 
L 617.127583 107.934762 
L 617.803015 107.934762 
L 617.92794 108.067808 
L 618.299549 108.067808 
L 618.503976 107.668637 
L 618.666496 107.668637 
L 618.787796 107.801699 
L 618.868384 107.801699 
L 618.908595 107.934762 
L 618.948751 107.801699 
L 619.068889 107.801699 
L 619.188536 107.668637 
L 619.22831 107.668637 
L 619.347307 107.535591 
L 619.465823 107.535591 
L 619.583861 107.668637 
L 620.012636 107.668637 
L 620.051306 107.535591 
L 620.089925 107.668637 
L 620.358838 107.668637 
L 620.5114 107.535591 
L 620.549417 107.535591 
L 620.700991 107.402529 
L 621.076527 107.402529 
L 621.225401 107.535591 
L 621.299556 107.535591 
L 621.447303 107.402529 
L 621.886119 107.402529 
L 622.030941 107.535591 
L 622.17505 107.535591 
L 622.318452 107.402529 
L 622.461154 107.535591 
L 622.990175 107.535591 
L 623.129646 107.402529 
L 623.372133 107.402529 
L 623.544115 107.13642 
L 623.646821 107.13642 
L 623.749168 107.269482 
L 623.885076 107.13642 
L 624.588417 107.13642 
L 624.72049 107.269482 
L 624.950194 107.269482 
L 625.080648 107.13642 
L 625.468557 107.13642 
L 625.628679 106.870311 
L 625.692484 106.870311 
L 625.724334 107.003358 
L 625.787931 106.870311 
L 626.040943 106.870311 
L 626.197972 107.13642 
L 626.354163 107.13642 
L 626.478518 107.269482 
L 626.540497 107.269482 
L 626.664065 107.402529 
L 626.694875 107.402529 
L 626.817793 107.269482 
L 626.909644 107.535591 
L 626.940197 107.402529 
L 627.062091 107.402529 
L 627.183479 107.13642 
L 627.304366 107.269482 
L 627.454775 107.269482 
L 627.544651 107.402529 
L 627.634252 107.269482 
L 627.753294 107.402529 
L 627.782979 107.402529 
L 627.901419 107.535591 
L 627.989935 107.535591 
L 628.107542 107.668637 
L 628.195437 107.668637 
L 628.370441 107.269482 
L 628.544404 107.269482 
L 628.659807 107.13642 
L 628.832062 107.13642 
L 628.946339 106.870311 
L 629.088559 107.402529 
L 629.173561 107.402529 
L 629.230092 107.535591 
L 629.286514 107.402529 
L 629.45513 106.471141 
L 629.483138 106.471141 
L 629.51112 106.604187 
L 629.539074 106.471141 
L 629.567003 106.07197 
L 629.650627 106.338078 
L 629.706245 106.737249 
L 629.789473 106.604187 
L 629.872466 106.604187 
L 630.010265 106.471141 
L 630.037748 106.471141 
L 630.174773 106.338078 
L 630.229404 106.338078 
L 630.256681 106.471141 
L 630.33836 106.338078 
L 630.392687 106.338078 
L 630.528063 106.471141 
L 630.582039 106.471141 
L 630.716545 106.870311 
L 630.743372 106.870311 
L 630.796952 106.471141 
L 630.823705 106.870311 
L 631.142853 107.934762 
L 631.406175 107.13642 
L 631.432378 107.13642 
L 631.589101 106.870311 
L 631.744989 106.870311 
L 631.874265 107.003358 
L 632.207732 107.003358 
L 632.233226 107.13642 
L 632.258698 106.870311 
L 632.309577 106.737249 
L 632.360367 106.870311 
L 632.51221 107.535591 
L 632.663269 106.338078 
L 632.68837 107.003358 
L 632.763543 106.870311 
L 632.788558 106.604187 
L 632.813552 107.003358 
L 632.838524 106.737249 
L 632.863475 107.003358 
L 632.938201 106.737249 
L 633.012736 106.737249 
L 633.037539 106.471141 
L 633.136541 106.604187 
L 633.210573 106.737249 
L 633.235209 106.604187 
L 633.259824 106.338078 
L 633.333546 106.471141 
L 633.480434 106.737249 
L 633.553602 106.737249 
L 633.626588 107.003358 
L 633.650876 106.870311 
L 633.796183 106.604187 
L 633.820331 106.737249 
L 633.844459 106.471141 
L 633.892655 106.604187 
L 634.108562 106.604187 
L 634.227825 106.471141 
L 634.251619 106.471141 
L 634.29915 106.338078 
L 634.346603 106.471141 
L 634.676641 106.471141 
L 634.746882 106.205032 
L 634.770258 106.338078 
L 634.793616 106.471141 
L 634.816955 106.205032 
L 634.840275 106.338078 
L 634.93337 106.205032 
L 634.979807 106.338078 
L 635.02617 106.205032 
L 635.049325 106.205032 
L 635.164821 106.07197 
L 635.187866 106.07197 
L 635.210892 106.205032 
L 635.279864 106.07197 
L 635.302818 105.938908 
L 635.325754 106.205032 
L 635.371573 178.188329 
L 635.440167 114.720617 
L 635.5086 105.672799 
L 635.622301 106.205032 
L 635.644989 106.205032 
L 635.780744 105.140582 
L 635.803309 105.140582 
L 635.893395 106.07197 
L 635.938334 105.805861 
L 635.960778 105.805861 
L 636.005613 106.07197 
L 636.05038 105.672799 
L 636.072738 105.672799 
L 636.250989 106.205032 
L 636.383968 105.938908 
L 636.428161 106.07197 
L 636.450232 105.938908 
L 636.58231 105.672799 
L 636.670033 105.672799 
L 636.866451 105.140582 
L 636.909922 105.140582 
L 637.039946 105.00752 
L 637.233905 105.539753 
L 637.383878 105.539753 
L 637.511817 105.672799 
L 637.533086 105.672799 
L 637.575578 105.805861 
L 637.618008 105.539753 
L 638.080721 105.539753 
L 638.205655 105.40669 
L 638.226426 105.40669 
L 638.350741 105.805861 
L 638.433325 105.805861 
L 638.57729 106.07197 
L 638.638772 106.07197 
L 638.781731 105.805861 
L 638.822449 105.805861 
L 638.944263 105.938908 
L 639.146165 105.938908 
L 639.286672 106.205032 
L 639.60532 106.205032 
L 639.723924 106.471141 
L 639.802727 106.07197 
L 639.822394 106.338078 
L 639.959699 106.604187 
L 640.076878 106.338078 
L 640.193589 106.471141 
L 640.444878 106.471141 
L 640.540955 106.737249 
L 640.560133 106.604187 
L 640.655834 106.604187 
L 640.770263 106.737249 
L 640.884246 106.604187 
L 641.110889 106.604187 
L 641.223555 106.737249 
L 641.279726 106.737249 
L 641.335789 106.604187 
L 641.391746 106.737249 
L 641.447595 106.737249 
L 641.521895 106.471141 
L 641.558974 106.604187 
L 641.725253 107.269482 
L 641.74367 107.13642 
L 641.798852 107.13642 
L 641.872267 106.870311 
L 641.908905 107.003358 
L 641.945498 107.269482 
L 642.036779 107.13642 
L 642.055002 107.13642 
L 642.200372 106.737249 
L 642.2547 106.870311 
L 642.290863 106.737249 
L 642.453045 106.07197 
L 642.47101 106.205032 
L 642.667899 106.870311 
L 642.685732 106.870311 
L 642.703555 106.737249 
L 642.792505 106.870311 
L 642.810263 106.870311 
L 642.951938 107.13642 
L 642.987249 107.13642 
L 643.022519 107.269482 
L 643.09293 107.13642 
L 643.163172 107.13642 
L 643.215743 107.269482 
L 643.250738 107.13642 
L 643.372892 107.003358 
L 643.529201 107.003358 
L 643.632945 107.269482 
L 643.6502 107.13642 
L 643.701904 107.13642 
L 643.770701 106.870311 
L 643.805039 107.003358 
L 643.890708 107.668637 
L 643.924905 107.269482 
L 644.061296 106.870311 
L 644.095295 106.870311 
L 644.180119 106.737249 
L 644.197054 106.870311 
L 644.583887 106.870311 
L 644.70061 107.13642 
L 644.80029 107.003358 
L 644.81687 107.402529 
L 644.916155 107.13642 
L 644.93267 107.13642 
L 644.982158 107.668637 
L 645.048013 107.402529 
L 645.244692 106.604187 
L 645.261022 106.604187 
L 645.407587 106.205032 
L 645.423827 106.205032 
L 645.440058 106.338078 
L 645.45628 106.07197 
L 645.521077 106.205032 
L 645.537254 106.07197 
L 645.569581 106.338078 
L 645.601872 106.205032 
L 645.746744 106.604187 
L 645.762796 106.604187 
L 645.938796 106.07197 
L 645.954744 106.07197 
L 646.034352 106.604187 
L 646.066135 106.338078 
L 646.082013 105.938908 
L 646.177103 106.338078 
L 646.319161 106.07197 
L 646.429176 106.07197 
L 646.444858 106.205032 
L 646.507505 105.938908 
L 646.523146 105.938908 
L 646.694644 105.938908 
L 646.741243 106.604187 
L 646.772267 105.938908 
L 646.787767 105.539753 
L 646.803259 106.205032 
L 646.880594 105.672799 
L 646.896037 105.672799 
L 647.019285 105.539753 
L 647.142016 105.539753 
L 647.172619 105.672799 
L 647.233728 105.40669 
L 647.248985 105.539753 
L 647.340363 105.40669 
L 647.355565 105.539753 
L 647.401123 105.539753 
L 647.476896 105.273628 
L 647.507151 105.40669 
L 647.763058 105.40669 
L 647.882715 105.539753 
L 647.987015 105.40669 
L 648.105761 105.539753 
L 648.297702 105.539753 
L 648.42985 105.273628 
L 648.488392 105.273628 
L 648.532221 105.40669 
L 648.590558 105.273628 
L 648.779355 105.273628 
L 648.880512 105.40669 
L 648.995694 105.273628 
L 649.053115 105.273628 
L 649.139036 105.40669 
L 649.153332 105.273628 
L 649.224706 105.273628 
L 649.28168 105.40669 
L 649.310125 105.273628 
L 649.324337 105.140582 
L 649.352741 105.40669 
L 649.409467 105.273628 
L 649.437788 105.273628 
L 649.522589 105.40669 
L 649.536698 105.273628 
L 649.607144 105.273628 
L 649.621213 105.140582 
L 649.677421 105.40669 
L 649.691456 105.539753 
L 649.705484 105.273628 
L 649.775525 105.40669 
L 649.789514 105.40669 
L 649.901178 104.608349 
L 649.915107 104.741411 
L 649.956851 108.333917 
L 650.026294 105.00752 
L 650.054025 104.209194 
L 650.123238 105.273628 
L 650.150877 105.140582 
L 650.206077 105.539753 
L 650.247409 105.938908 
L 650.316167 105.539753 
L 650.329899 105.539753 
L 650.480528 105.938908 
L 650.53511 105.938908 
L 650.65755 105.539753 
L 650.779479 105.672799 
L 650.887435 105.40669 
L 650.900902 105.539753 
L 650.981572 105.539753 
L 651.102161 105.672799 
L 651.235568 105.672799 
L 651.355117 105.539753 
L 651.487379 105.539753 
L 651.605905 105.672799 
L 651.697762 105.672799 
L 651.815441 105.539753 
L 652.19144 105.539753 
L 652.319983 105.805861 
L 653.316092 105.805861 
L 653.439798 105.938908 
L 653.562982 105.938908 
L 653.68565 105.805861 
L 653.844354 105.805861 
L 653.965851 105.938908 
L 654.002202 105.938908 
L 654.123046 105.805861 
L 654.183281 105.805861 
L 654.219363 105.938908 
L 654.291393 105.805861 
L 654.315364 105.805861 
L 654.434925 105.672799 
L 654.625211 105.672799 
L 654.708073 105.539753 
L 654.731705 105.672799 
L 654.767117 105.672799 
L 654.908339 104.741411 
L 654.990405 105.805861 
L 655.025505 105.40669 
L 655.037196 105.40669 
L 655.107243 105.00752 
L 655.142204 105.40669 
L 655.153849 105.40669 
L 655.212001 105.938908 
L 655.281631 105.805861 
L 655.304805 105.805861 
L 655.454986 105.273628 
L 655.524041 105.273628 
L 655.638772 105.140582 
L 656.002918 105.140582 
L 656.127053 105.40669 
L 656.261876 105.40669 
L 656.373755 105.273628 
L 656.429535 105.273628 
L 656.551877 105.140582 
L 656.585155 105.140582 
L 656.706849 105.00752 
L 656.728921 105.00752 
L 656.85002 105.140582 
L 656.871985 105.140582 
L 656.992495 105.273628 
L 657.286204 105.273628 
L 657.426575 104.874473 
L 657.458873 104.874473 
L 657.576994 104.741411 
L 657.651915 104.741411 
L 657.74796 104.608349 
L 657.790546 106.737249 
L 657.875532 105.273628 
L 657.886138 105.273628 
L 658.013111 104.874473 
L 658.139534 105.140582 
L 658.150045 105.140582 
L 658.265414 105.00752 
L 658.338595 105.00752 
L 658.349034 105.140582 
L 658.38033 104.874473 
L 658.432416 104.874473 
L 659.060505 104.874473 
L 659.172346 104.741411 
L 659.202774 104.741411 
L 659.324171 104.608349 
L 659.765031 104.608349 
L 659.884122 104.741411 
L 660.423836 104.741411 
L 660.462702 104.34224 
L 660.472411 105.539753 
L 660.482116 124.034529 
L 660.559643 104.475303 
L 660.578992 104.475303 
L 660.598329 104.741411 
L 660.646615 103.543899 
L 660.771788 103.27779 
L 660.781394 103.27779 
L 660.819789 103.676961 
L 660.896427 103.543899 
L 660.944224 103.543899 
L 661.030062 102.745573 
L 661.077642 102.878619 
L 661.125144 102.878619 
L 661.24829 103.144744 
L 661.333242 103.144744 
L 661.455517 103.410852 
L 661.493038 103.410852 
L 661.577284 103.543899 
L 661.595972 103.410852 
L 661.623982 103.410852 
L 661.735755 103.27779 
L 661.856363 103.410852 
L 662.160307 103.410852 
L 662.242656 103.543899 
L 662.270054 103.410852 
L 662.306545 103.410852 
L 662.424827 103.543899 
L 662.48832 103.543899 
L 662.614894 103.810023 
L 662.830613 103.810023 
L 662.946799 103.94307 
L 662.982456 103.94307 
L 663.098043 104.076132 
L 663.336658 104.076132 
L 663.38942 104.209194 
L 663.424542 103.94307 
L 663.433316 103.94307 
L 663.468385 103.94307 
L 663.590799 104.209194 
L 663.66052 104.209194 
L 663.7908 104.608349 
L 663.954994 104.608349 
L 663.972224 104.475303 
L 664.058223 104.608349 
L 664.255066 104.608349 
L 664.357243 105.00752 
L 664.374238 104.741411 
L 664.382732 104.741411 
L 664.492926 105.938908 
L 664.416682 104.608349 
L 664.552091 105.672799 
L 664.568973 105.672799 
L 664.644822 105.938908 
L 664.67847 105.672799 
L 664.712079 105.672799 
L 664.829408 105.40669 
L 664.84613 105.40669 
L 664.871197 105.273628 
L 664.896242 105.539753 
L 664.946268 105.539753 
L 664.962924 105.539753 
L 665.062663 105.40669 
L 665.070959 105.539753 
L 665.087545 105.539753 
L 665.20338 105.672799 
L 665.277604 105.672799 
L 665.392692 105.539753 
L 665.507328 105.539753 
L 665.621516 105.40669 
L 665.791968 105.40669 
L 665.905053 105.273628 
L 665.937283 105.273628 
L 665.977521 105.140582 
L 666.041786 105.273628 
L 666.161904 105.273628 
L 666.273572 105.140582 
L 666.566657 105.140582 
L 666.676792 105.00752 
L 666.802156 105.273628 
L 666.825603 105.273628 
L 666.950332 105.00752 
L 667.082277 105.00752 
L 667.198206 104.874473 
L 667.24445 104.874473 
L 667.36741 104.608349 
L 667.40573 104.608349 
L 667.535641 105.00752 
L 667.657386 105.00752 
L 667.771064 104.608349 
L 667.778627 104.741411 
L 667.823962 104.741411 
L 667.876766 104.874473 
L 667.914424 104.608349 
L 667.92195 104.608349 
L 668.004607 104.608349 
L 668.064575 106.07197 
L 668.057086 104.34224 
L 668.116946 104.741411 
L 668.12442 104.741411 
L 668.251186 105.140582 
L 668.355171 104.475303 
L 668.392219 104.608349 
L 668.399623 104.608349 
L 668.525205 104.34224 
L 668.672261 104.34224 
L 668.716234 104.741411 
L 668.796681 104.608349 
L 668.949648 104.608349 
L 669.058423 104.475303 
L 669.174006 104.608349 
L 669.267582 104.608349 
L 669.353695 104.475303 
L 669.375183 104.608349 
L 669.439555 104.608349 
L 669.553645 104.34224 
L 669.617625 104.475303 
L 669.660201 104.34224 
L 669.688551 104.34224 
L 669.702715 104.475303 
L 669.794618 104.34224 
L 670.263746 104.34224 
L 670.367752 104.475303 
L 670.374673 104.34224 
L 670.402339 104.34224 
L 670.519629 104.209194 
L 670.602139 104.209194 
L 670.66387 104.34224 
L 670.711793 104.209194 
L 670.875506 104.209194 
L 670.909498 105.00752 
L 670.916292 118.180061 
L 671.004466 103.410852 
L 671.018008 103.410852 
L 671.045072 103.410852 
L 671.166554 103.94307 
L 671.20021 103.94307 
L 671.32775 103.543899 
L 671.347837 103.543899 
L 671.441395 103.810023 
L 671.461404 103.676961 
L 671.488062 103.676961 
L 671.514695 103.543899 
L 671.601087 103.810023 
L 671.607722 103.810023 
L 671.700454 104.874473 
L 671.654125 103.410852 
L 671.733501 104.34224 
L 671.819251 103.810023 
L 671.858742 103.94307 
L 671.878468 103.94307 
L 672.003092 103.543899 
L 672.029261 103.543899 
L 672.153245 103.810023 
L 672.224785 103.810023 
L 672.250757 103.676961 
L 672.335005 103.810023 
L 672.373808 103.810023 
L 672.496343 104.076132 
L 672.509212 104.076132 
L 672.522075 103.94307 
L 672.618367 104.076132 
L 672.631183 104.076132 
L 672.682387 103.94307 
L 672.701566 104.209194 
L 672.733502 104.209194 
L 672.80364 104.209194 
L 672.918049 104.076132 
L 673.107742 104.076132 
L 673.233524 104.475303 
L 673.264886 104.475303 
L 673.377509 104.34224 
L 673.383753 104.34224 
L 673.502139 104.608349 
L 673.508357 104.608349 
L 673.620048 104.741411 
L 673.7128 104.741411 
L 673.836013 105.00752 
L 674.220777 105.00752 
L 674.335831 104.874473 
L 674.456454 104.874473 
L 674.570586 104.741411 
L 674.630478 104.741411 
L 674.743935 104.608349 
L 675.058115 104.608349 
L 675.169929 104.741411 
L 675.368956 104.741411 
L 675.491212 104.475303 
L 675.65343 104.475303 
L 675.699613 104.608349 
L 675.757239 104.475303 
L 675.872153 104.34224 
L 675.969476 104.34224 
L 675.975191 104.209194 
L 676.077867 104.34224 
L 676.265176 104.34224 
L 676.378116 104.209194 
L 676.456915 104.34224 
L 676.485006 104.209194 
L 676.557917 104.209194 
L 676.669735 104.076132 
L 676.786685 104.34224 
L 676.836664 104.34224 
L 676.95295 104.209194 
L 677.112779 104.209194 
L 677.238923 104.608349 
L 677.560043 104.608349 
L 677.689666 105.140582 
L 677.721982 105.140582 
L 677.732747 105.273628 
L 677.791879 104.874473 
L 677.818718 104.874473 
L 677.883031 104.076132 
L 677.866966 107.13642 
L 677.893736 105.273628 
L 677.899087 107.668637 
L 677.957884 103.94307 
L 678.000572 103.94307 
L 678.133571 103.27779 
L 678.144184 103.27779 
L 678.271251 103.676961 
L 678.281815 103.676961 
L 678.345119 103.810023 
L 678.397768 103.543899 
L 678.408286 103.543899 
L 678.502783 103.410852 
L 678.518502 103.543899 
L 678.607422 103.543899 
L 678.701278 103.27779 
L 678.722094 103.410852 
L 678.981053 103.410852 
L 679.07886 103.94307 
L 679.104544 103.810023 
L 679.227516 103.410852 
L 679.3296 104.475303 
L 679.355065 104.34224 
L 679.365245 104.209194 
L 679.411011 104.874473 
L 679.441481 104.874473 
L 679.476991 104.874473 
L 679.59841 104.475303 
L 679.603459 104.475303 
L 679.623643 104.608349 
L 679.653893 104.209194 
L 679.709271 104.34224 
L 679.794649 104.34224 
L 679.909765 104.475303 
L 679.924747 104.475303 
L 680.049298 104.874473 
L 680.05924 104.874473 
L 680.178272 104.608349 
L 680.203009 104.608349 
L 680.316533 104.741411 
L 680.326384 104.741411 
L 680.331308 104.874473 
L 680.434525 104.741411 
L 680.46885 104.741411 
L 680.522708 104.608349 
L 680.552043 104.874473 
L 680.571584 104.874473 
L 680.581349 104.874473 
L 680.69828 104.608349 
L 680.766275 104.608349 
L 680.877638 104.741411 
L 680.935573 104.741411 
L 681.055903 105.00752 
L 681.07511 105.00752 
L 681.194869 104.741411 
L 681.26649 104.741411 
L 681.38072 104.475303 
L 681.413953 104.475303 
L 681.52761 104.608349 
L 681.574837 104.608349 
L 681.687871 104.475303 
L 681.767674 104.475303 
L 681.879968 104.608349 
L 681.917303 104.608349 
L 682.029025 104.741411 
L 682.112537 104.741411 
L 682.140322 104.608349 
L 682.223517 104.741411 
L 682.311079 104.741411 
L 682.41214 104.874473 
L 682.42131 104.741411 
L 682.457961 104.741411 
L 682.576763 105.00752 
L 682.704166 105.00752 
L 682.817451 104.874473 
L 682.840056 104.874473 
L 682.862643 104.741411 
L 682.885213 105.00752 
L 682.943813 105.00752 
L 682.970819 105.00752 
L 683.083079 104.874473 
L 683.092041 104.874473 
L 683.208301 105.140582 
L 683.3241 105.140582 
L 683.439443 105.273628 
L 683.492525 105.273628 
L 683.611609 105.539753 
L 683.725826 105.40669 
L 683.826494 105.539753 
L 683.835231 105.40669 
L 683.905037 105.40669 
L 684.026796 105.00752 
L 684.139407 105.00752 
L 684.255892 104.741411 
L 684.389065 104.741411 
L 684.504562 104.475303 
L 684.594079 104.475303 
L 684.649358 104.34224 
L 684.662099 104.608349 
L 684.700291 104.608349 
L 684.907355 104.608349 
L 685.020828 104.475303 
L 685.171444 104.475303 
L 685.208978 104.209194 
L 685.221478 105.140582 
L 685.225644 102.612511 
L 685.233973 110.99505 
L 685.333742 103.676961 
L 685.337891 103.676961 
L 685.350337 103.410852 
L 685.424898 104.209194 
L 685.433171 104.076132 
L 685.457976 104.076132 
L 685.581685 103.543899 
L 685.602253 103.676961 
L 685.639237 103.27779 
L 685.688478 103.410852 
L 685.729449 103.410852 
L 685.84794 103.676961 
L 685.896831 103.676961 
L 686.002482 103.94307 
L 686.010593 103.810023 
L 686.014648 103.810023 
L 686.127954 106.07197 
L 686.136031 105.805861 
L 686.25289 103.011682 
L 686.272991 103.011682 
L 686.385303 103.144744 
L 686.405313 103.144744 
L 686.461269 103.410852 
L 686.517119 103.27779 
L 686.584793 103.27779 
L 686.620558 103.144744 
L 686.66421 103.543899 
L 686.687993 103.543899 
L 686.723632 103.543899 
L 686.838172 104.076132 
L 686.846055 103.94307 
L 686.901175 103.94307 
L 687.02286 103.543899 
L 687.034609 103.543899 
L 687.065917 103.410852 
L 687.14404 103.543899 
L 687.15964 103.543899 
L 687.272489 103.676961 
L 687.322936 103.676961 
L 687.342315 103.94307 
L 687.431296 103.676961 
L 687.442882 103.676961 
L 687.558493 103.94307 
L 687.627641 103.94307 
L 687.742525 103.810023 
L 687.750168 103.810023 
L 687.864573 103.94307 
L 687.872184 103.94307 
L 687.989904 104.209194 
L 688.175017 104.209194 
L 688.295278 104.608349 
L 688.340249 104.608349 
L 688.452374 104.741411 
L 688.459834 104.741411 
L 688.571502 104.874473 
L 688.701246 104.874473 
L 688.782506 104.741411 
L 688.793569 105.00752 
L 688.808314 105.00752 
L 688.856183 105.00752 
L 688.970017 104.874473 
L 689.094361 104.874473 
L 689.207274 104.741411 
L 689.243604 104.741411 
L 689.355944 104.608349 
L 689.395703 104.608349 
L 689.507461 104.475303 
L 689.925454 104.475303 
L 690.038744 104.34224 
L 690.186775 104.34224 
L 690.29906 104.209194 
L 690.73359 104.209194 
L 690.830046 104.076132 
L 690.843799 104.209194 
L 690.885021 104.209194 
L 691.001502 104.475303 
L 691.039088 104.475303 
L 691.151557 104.34224 
L 691.199141 104.34224 
L 691.31438 104.608349 
L 691.324527 104.608349 
L 691.327908 104.475303 
L 691.33805 106.338078 
L 691.34143 110.728925 
L 691.344809 103.144744 
L 691.44601 103.676961 
L 691.469573 103.676961 
L 691.590457 104.076132 
L 691.607207 104.076132 
L 691.704169 103.94307 
L 691.660743 104.209194 
L 691.717517 104.076132 
L 691.720854 104.076132 
L 691.777512 103.543899 
L 691.797483 104.608349 
L 691.820765 104.209194 
L 691.837383 104.475303 
L 691.910394 103.810023 
L 691.923649 103.810023 
L 691.960069 103.676961 
L 691.999749 103.94307 
L 692.032774 103.810023 
L 692.045974 103.810023 
L 692.171076 103.144744 
L 692.246536 103.144744 
L 692.360994 103.410852 
L 692.45224 103.410852 
L 692.565898 103.27779 
L 692.57238 103.27779 
L 692.688801 103.011682 
L 692.711385 103.011682 
L 692.717834 102.878619 
L 692.82083 103.011682 
L 692.833679 103.011682 
L 692.945868 103.144744 
L 692.955464 103.144744 
L 693.003398 103.011682 
L 693.03531 103.27779 
L 693.060815 103.27779 
L 693.12766 103.27779 
L 693.245063 103.543899 
L 693.289364 103.543899 
L 693.412419 104.076132 
L 693.456467 104.076132 
L 693.56943 104.209194 
L 693.575693 104.209194 
L 693.688197 104.076132 
L 693.731832 104.076132 
L 693.76296 103.94307 
L 693.806483 104.209194 
L 693.837532 104.209194 
L 693.896434 104.209194 
L 694.007714 104.34224 
L 694.010799 104.34224 
L 694.115498 104.209194 
L 694.121645 104.34224 
L 694.16157 104.34224 
L 694.186112 104.209194 
L 694.213697 104.475303 
L 694.271848 104.34224 
L 694.284075 104.34224 
L 694.409113 103.676961 
L 694.466876 103.676961 
L 694.509366 103.543899 
L 694.576012 103.676961 
L 694.793068 103.676961 
L 694.912963 104.076132 
L 694.927915 104.076132 
L 694.933894 104.209194 
L 695.038325 104.076132 
L 695.044282 104.076132 
L 695.169084 104.741411 
L 695.296309 104.741411 
L 695.346455 104.608349 
L 695.372969 104.874473 
L 695.402399 104.874473 
L 695.622193 104.874473 
L 695.668869 104.741411 
L 695.706739 105.00752 
L 695.730019 105.00752 
L 695.793944 105.00752 
L 695.866416 105.140582 
L 695.904031 105.00752 
L 696.317487 105.00752 
L 696.434147 104.741411 
L 696.615325 104.741411 
L 696.713934 104.608349 
L 696.725182 104.741411 
L 696.730805 104.741411 
L 696.806604 104.874473 
L 696.84023 104.741411 
L 696.843031 104.741411 
L 696.921333 104.475303 
L 696.954828 104.608349 
L 697.088423 104.608349 
L 697.202054 104.741411 
L 697.41702 104.741411 
L 697.444466 104.608349 
L 697.526649 104.741411 
L 697.644045 104.741411 
L 697.755543 104.874473 
L 698.157201 104.874473 
L 698.159878 105.00752 
L 698.165232 104.741411 
L 698.266764 104.874473 
L 698.608835 104.874473 
L 698.614107 132.683176 
L 698.711469 104.076132 
L 698.719349 104.209194 
L 698.724601 104.209194 
L 698.826831 104.34224 
L 698.742976 104.076132 
L 698.832064 104.076132 
L 698.868668 104.076132 
L 698.98081 104.209194 
L 698.986015 104.209194 
L 699.087337 104.34224 
L 699.095117 104.209194 
L 699.144339 104.209194 
L 699.260588 103.94307 
L 699.304384 103.94307 
L 699.378945 103.810023 
L 699.404611 104.076132 
L 699.412307 104.076132 
L 699.471239 104.076132 
L 699.532608 104.209194 
L 699.5811 104.076132 
L 699.601493 104.076132 
L 699.69817 105.539753 
L 699.723558 104.741411 
L 699.73117 104.741411 
L 699.842588 105.140582 
L 699.845115 105.00752 
L 699.867851 105.00752 
L 699.885522 105.140582 
L 699.898138 104.874473 
L 699.978751 105.00752 
L 699.998869 105.00752 
L 700.116787 104.608349 
L 700.1268 104.608349 
L 700.239218 104.475303 
L 700.246697 104.475303 
L 700.251682 104.608349 
L 700.32387 104.209194 
L 700.351206 104.209194 
L 700.373552 104.209194 
L 700.489972 103.810023 
L 700.564041 103.810023 
L 700.655135 103.94307 
L 700.674794 103.810023 
L 700.677251 103.810023 
L 700.755748 103.94307 
L 700.787577 103.810023 
L 700.804702 103.810023 
L 700.87554 103.676961 
L 700.91455 103.810023 
L 700.972967 103.810023 
L 701.043399 103.676961 
L 701.082186 103.810023 
L 701.162021 103.810023 
L 701.166853 103.94307 
L 701.222358 103.676961 
L 701.270538 103.676961 
L 701.414604 103.676961 
L 701.526962 103.543899 
L 701.550813 103.543899 
L 701.593695 103.410852 
L 701.650773 103.676961 
L 701.6579 103.676961 
L 701.745656 103.676961 
L 701.835512 104.076132 
L 701.861471 103.94307 
L 701.922738 103.94307 
L 701.934505 104.076132 
L 701.972129 103.810023 
L 702.033165 103.94307 
L 702.19453 103.94307 
L 702.306262 104.608349 
L 702.313231 104.475303 
L 702.352691 104.475303 
L 702.399047 104.608349 
L 702.46151 104.475303 
L 702.507694 104.475303 
L 702.622835 104.209194 
L 702.638919 104.209194 
L 702.755834 104.608349 
L 702.808408 104.608349 
L 702.920099 104.741411 
L 703.203108 104.741411 
L 703.317795 105.00752 
L 703.346957 105.00752 
L 703.385048 105.140582 
L 703.389526 104.608349 
L 703.391765 131.618726 
L 703.499025 105.40669 
L 703.505715 105.539753 
L 703.541373 104.874473 
L 703.60367 105.140582 
L 703.614781 105.140582 
L 703.732294 104.741411 
L 703.763256 104.741411 
L 703.875772 104.608349 
L 704.001014 104.608349 
L 704.095142 106.870311 
L 704.108252 104.741411 
L 704.112621 104.34224 
L 704.15191 104.874473 
L 704.219452 104.475303 
L 704.234681 104.475303 
L 704.306372 103.676961 
L 704.356234 103.810023 
L 704.397361 103.810023 
L 704.40385 103.676961 
L 704.47297 104.209194 
L 704.501003 104.209194 
L 704.518242 104.209194 
L 704.595687 103.676961 
L 704.634334 103.810023 
L 704.672929 103.810023 
L 704.786276 103.543899 
L 704.837459 103.543899 
L 704.943803 103.27779 
L 704.950171 103.410852 
L 704.954416 103.410852 
L 705.068793 103.676961 
L 705.070907 103.676961 
L 705.161661 104.076132 
L 705.184831 103.94307 
L 705.195357 103.94307 
L 705.308799 104.209194 
L 705.356983 104.209194 
L 705.411357 104.076132 
L 705.467716 104.209194 
L 705.473971 104.209194 
L 705.571797 104.076132 
L 705.584262 104.209194 
L 705.665155 104.209194 
L 705.671369 104.34224 
L 705.69207 104.076132 
L 705.772666 104.076132 
L 705.787109 104.076132 
L 705.853041 103.676961 
L 705.898283 103.94307 
L 705.941404 103.94307 
L 706.056082 104.209194 
L 706.174385 104.209194 
L 706.233357 104.076132 
L 706.2841 104.209194 
L 706.310451 104.209194 
L 706.425714 104.608349 
L 706.492237 104.608349 
L 706.606787 104.34224 
L 706.656887 104.34224 
L 706.768801 104.475303 
L 706.818624 104.475303 
L 706.929922 104.608349 
L 706.959662 104.608349 
L 707.076347 105.00752 
L 707.178804 105.00752 
L 707.290702 105.140582 
L 707.335733 105.140582 
L 707.447034 105.273628 
L 707.764925 105.273628 
L 707.878449 105.00752 
L 708.12133 105.00752 
L 708.233482 104.874473 
L 708.490375 104.874473 
L 708.602998 104.741411 
L 708.897512 104.741411 
L 709.012276 105.00752 
L 709.642789 105.00752 
L 709.756473 105.273628 
L 709.889445 105.273628 
L 710.003962 105.539753 
L 710.05214 105.539753 
L 710.164248 105.672799 
L 710.622422 105.672799 
L 710.734112 105.539753 
L 710.876594 105.539753 
L 710.989046 105.672799 
L 711.434581 105.672799 
L 711.543218 105.140582 
L 711.544913 118.180061 
L 711.653142 105.40669 
L 711.66158 105.40669 
L 711.764336 104.608349 
L 711.779466 104.741411 
L 711.806344 104.741411 
L 711.846616 104.475303 
L 711.916958 104.741411 
L 711.921976 104.741411 
L 711.992138 104.209194 
L 712.033821 104.608349 
L 712.040485 104.608349 
L 712.043816 104.741411 
L 712.082099 104.34224 
L 712.148559 104.475303 
L 712.165151 104.475303 
L 712.279376 104.874473 
L 712.294242 104.741411 
L 712.351983 105.273628 
L 712.386573 105.140582 
L 712.389866 105.140582 
L 712.401385 105.273628 
L 712.43756 104.741411 
L 712.49666 104.874473 
L 712.549092 104.874473 
L 712.558913 105.00752 
L 712.6602 104.874473 
L 712.69117 104.608349 
L 712.741629 105.00752 
L 712.769264 105.00752 
L 712.840667 105.00752 
L 712.95229 104.874473 
L 713.246288 104.874473 
L 713.35797 104.608349 
L 713.377073 104.608349 
L 713.423186 104.741411 
L 713.486672 104.608349 
L 713.57216 104.608349 
L 713.684182 104.741411 
L 713.685756 104.741411 
L 713.739246 104.209194 
L 713.787931 105.273628 
L 713.7895 115.119772 
L 713.802051 104.34224 
L 713.897568 104.34224 
L 714.061258 104.34224 
L 714.174523 104.608349 
L 714.185361 104.608349 
L 714.264203 104.475303 
L 714.295064 104.608349 
L 714.313565 104.608349 
L 714.416646 104.475303 
L 714.424324 104.608349 
L 714.485677 104.874473 
L 714.525487 104.475303 
L 714.533136 104.475303 
L 714.534666 104.475303 
L 714.638497 104.608349 
L 714.644593 104.475303 
L 714.647641 104.475303 
L 714.682666 104.209194 
L 714.703965 104.874473 
L 714.755627 104.741411 
L 714.761699 104.741411 
L 714.782941 103.543899 
L 714.76777 106.471141 
L 714.882873 103.810023 
L 714.884385 103.810023 
L 714.923656 103.676961 
L 714.997525 104.076132 
L 715.000536 104.076132 
L 715.008063 103.94307 
L 715.059191 104.209194 
L 715.11023 104.076132 
L 715.116229 104.076132 
L 715.135716 103.94307 
L 715.228478 104.209194 
L 715.313501 104.209194 
L 715.362612 104.475303 
L 715.423514 104.209194 
L 715.620205 104.209194 
L 715.654086 103.810023 
L 715.73201 104.076132 
L 715.771627 104.076132 
L 715.839 104.34224 
L 715.839 104.34224 
" clip-path="url(#pf978cc0759)" style="fill: none; stroke: #1f77b4; stroke-width: 1.5; stroke-linecap: square"/>
   </g>
   <g id="patch_3">
    <path d="M 358.719 311.6435 
L 358.719 45.5315 
" style="fill: none; stroke: #000000; stroke-width: 0.8; stroke-linejoin: miter; stroke-linecap: square"/>
   </g>
   <g id="patch_4">
    <path d="M 715.839 311.6435 
L 715.839 45.5315 
" style="fill: none; stroke: #000000; stroke-width: 0.8; stroke-linejoin: miter; stroke-linecap: square"/>
   </g>
   <g id="patch_5">
    <path d="M 358.719 311.6435 
L 715.839 311.6435 
" style="fill: none; stroke: #000000; stroke-width: 0.8; stroke-linejoin: miter; stroke-linecap: square"/>
   </g>
   <g id="patch_6">
    <path d="M 358.719 45.5315 
L 715.839 45.5315 
" style="fill: none; stroke: #000000; stroke-width: 0.8; stroke-linejoin: miter; stroke-linecap: square"/>
   </g>
   <g id="text_18">
    <!-- Accuracy of the 09_07_25_CIFAR10_torch_model_(1024+512.1+1)_elk-horse on the validation set -->
    <g transform="translate(7.2 25.5315) scale(0.264 -0.264)">
     <defs>
      <path id="TimesNewRomanPSMT-20" transform="scale(0.015625)"/>
      <path id="TimesNewRomanPSMT-6f" d="M 1600 2947 
Q 2250 2947 2644 2453 
Q 2978 2031 2978 1484 
Q 2978 1100 2793 706 
Q 2609 313 2286 112 
Q 1963 -88 1566 -88 
Q 919 -88 538 428 
Q 216 863 216 1403 
Q 216 1797 411 2186 
Q 606 2575 925 2761 
Q 1244 2947 1600 2947 
z
M 1503 2744 
Q 1338 2744 1170 2645 
Q 1003 2547 900 2300 
Q 797 2053 797 1666 
Q 797 1041 1045 587 
Q 1294 134 1700 134 
Q 2003 134 2200 384 
Q 2397 634 2397 1244 
Q 2397 2006 2069 2444 
Q 1847 2744 1503 2744 
z
" transform="scale(0.015625)"/>
      <path id="TimesNewRomanPSMT-66" d="M 1319 2638 
L 1319 756 
Q 1319 356 1406 250 
Q 1522 113 1716 113 
L 1975 113 
L 1975 0 
L 266 0 
L 266 113 
L 394 113 
Q 519 113 622 175 
Q 725 238 764 344 
Q 803 450 803 756 
L 803 2638 
L 247 2638 
L 247 2863 
L 803 2863 
L 803 3050 
Q 803 3478 940 3775 
Q 1078 4072 1361 4255 
Q 1644 4438 1997 4438 
Q 2325 4438 2600 4225 
Q 2781 4084 2781 3909 
Q 2781 3816 2700 3733 
Q 2619 3650 2525 3650 
Q 2453 3650 2373 3701 
Q 2294 3753 2178 3923 
Q 2063 4094 1966 4153 
Q 1869 4213 1750 4213 
Q 1606 4213 1506 4136 
Q 1406 4059 1362 3898 
Q 1319 3738 1319 3069 
L 1319 2863 
L 2056 2863 
L 2056 2638 
L 1319 2638 
z
" transform="scale(0.015625)"/>
      <path id="TimesNewRomanPSMT-74" d="M 1031 3803 
L 1031 2863 
L 1700 2863 
L 1700 2644 
L 1031 2644 
L 1031 788 
Q 1031 509 1111 412 
Q 1191 316 1316 316 
Q 1419 316 1516 380 
Q 1613 444 1666 569 
L 1788 569 
Q 1678 263 1478 108 
Q 1278 -47 1066 -47 
Q 922 -47 784 33 
Q 647 113 581 261 
Q 516 409 516 719 
L 516 2644 
L 63 2644 
L 63 2747 
Q 234 2816 414 2980 
Q 594 3144 734 3369 
Q 806 3488 934 3803 
L 1031 3803 
z
" transform="scale(0.015625)"/>
      <path id="TimesNewRomanPSMT-68" d="M 1041 4444 
L 1041 2350 
Q 1388 2731 1591 2839 
Q 1794 2947 1997 2947 
Q 2241 2947 2416 2812 
Q 2591 2678 2675 2391 
Q 2734 2191 2734 1659 
L 2734 647 
Q 2734 375 2778 275 
Q 2809 200 2884 156 
Q 2959 113 3159 113 
L 3159 0 
L 1753 0 
L 1753 113 
L 1819 113 
Q 2019 113 2097 173 
Q 2175 234 2206 353 
Q 2216 403 2216 647 
L 2216 1659 
Q 2216 2128 2167 2275 
Q 2119 2422 2012 2495 
Q 1906 2569 1756 2569 
Q 1603 2569 1437 2487 
Q 1272 2406 1041 2159 
L 1041 647 
Q 1041 353 1073 281 
Q 1106 209 1195 161 
Q 1284 113 1503 113 
L 1503 0 
L 84 0 
L 84 113 
Q 275 113 384 172 
Q 447 203 484 290 
Q 522 378 522 647 
L 522 3238 
Q 522 3728 498 3840 
Q 475 3953 426 3993 
Q 378 4034 297 4034 
Q 231 4034 84 3984 
L 41 4094 
L 897 4444 
L 1041 4444 
z
" transform="scale(0.015625)"/>
      <path id="TimesNewRomanPSMT-65" d="M 681 1784 
Q 678 1147 991 784 
Q 1303 422 1725 422 
Q 2006 422 2214 576 
Q 2422 731 2563 1106 
L 2659 1044 
Q 2594 616 2278 264 
Q 1963 -88 1488 -88 
Q 972 -88 605 314 
Q 238 716 238 1394 
Q 238 2128 614 2539 
Q 991 2950 1559 2950 
Q 2041 2950 2350 2633 
Q 2659 2316 2659 1784 
L 681 1784 
z
M 681 1966 
L 2006 1966 
Q 1991 2241 1941 2353 
Q 1863 2528 1708 2628 
Q 1553 2728 1384 2728 
Q 1125 2728 920 2526 
Q 716 2325 681 1966 
z
" transform="scale(0.015625)"/>
      <path id="TimesNewRomanPSMT-5f" d="M 3256 -1381 
L -53 -1381 
L -53 -1119 
L 3256 -1119 
L 3256 -1381 
z
" transform="scale(0.015625)"/>
      <path id="TimesNewRomanPSMT-43" d="M 3853 4334 
L 3950 2894 
L 3853 2894 
Q 3659 3541 3300 3825 
Q 2941 4109 2438 4109 
Q 2016 4109 1675 3895 
Q 1334 3681 1139 3212 
Q 944 2744 944 2047 
Q 944 1472 1128 1050 
Q 1313 628 1683 403 
Q 2053 178 2528 178 
Q 2941 178 3256 354 
Q 3572 531 3950 1056 
L 4047 994 
Q 3728 428 3303 165 
Q 2878 -97 2294 -97 
Q 1241 -97 663 684 
Q 231 1266 231 2053 
Q 231 2688 515 3219 
Q 800 3750 1298 4042 
Q 1797 4334 2388 4334 
Q 2847 4334 3294 4109 
Q 3425 4041 3481 4041 
Q 3566 4041 3628 4100 
Q 3709 4184 3744 4334 
L 3853 4334 
z
" transform="scale(0.015625)"/>
      <path id="TimesNewRomanPSMT-49" d="M 1975 116 
L 1975 0 
L 159 0 
L 159 116 
L 309 116 
Q 572 116 691 269 
Q 766 369 766 750 
L 766 3488 
Q 766 3809 725 3913 
Q 694 3991 597 4047 
Q 459 4122 309 4122 
L 159 4122 
L 159 4238 
L 1975 4238 
L 1975 4122 
L 1822 4122 
Q 1563 4122 1444 3969 
Q 1366 3869 1366 3488 
L 1366 750 
Q 1366 428 1406 325 
Q 1438 247 1538 191 
Q 1672 116 1822 116 
L 1975 116 
z
" transform="scale(0.015625)"/>
      <path id="TimesNewRomanPSMT-46" d="M 1309 4006 
L 1309 2341 
L 2081 2341 
Q 2347 2341 2470 2458 
Q 2594 2575 2634 2922 
L 2750 2922 
L 2750 1488 
L 2634 1488 
Q 2631 1734 2570 1850 
Q 2509 1966 2401 2023 
Q 2294 2081 2081 2081 
L 1309 2081 
L 1309 750 
Q 1309 428 1350 325 
Q 1381 247 1481 191 
Q 1619 116 1769 116 
L 1922 116 
L 1922 0 
L 103 0 
L 103 116 
L 253 116 
Q 516 116 634 269 
Q 709 369 709 750 
L 709 3488 
Q 709 3809 669 3913 
Q 638 3991 541 4047 
Q 406 4122 253 4122 
L 103 4122 
L 103 4238 
L 3256 4238 
L 3297 3306 
L 3188 3306 
Q 3106 3603 2998 3742 
Q 2891 3881 2733 3943 
Q 2575 4006 2244 4006 
L 1309 4006 
z
" transform="scale(0.015625)"/>
      <path id="TimesNewRomanPSMT-52" d="M 4325 0 
L 3194 0 
L 1759 1981 
Q 1600 1975 1500 1975 
Q 1459 1975 1412 1976 
Q 1366 1978 1316 1981 
L 1316 750 
Q 1316 350 1403 253 
Q 1522 116 1759 116 
L 1925 116 
L 1925 0 
L 109 0 
L 109 116 
L 269 116 
Q 538 116 653 291 
Q 719 388 719 750 
L 719 3488 
Q 719 3888 631 3984 
Q 509 4122 269 4122 
L 109 4122 
L 109 4238 
L 1653 4238 
Q 2328 4238 2648 4139 
Q 2969 4041 3192 3777 
Q 3416 3513 3416 3147 
Q 3416 2756 3161 2468 
Q 2906 2181 2372 2063 
L 3247 847 
Q 3547 428 3762 290 
Q 3978 153 4325 116 
L 4325 0 
z
M 1316 2178 
Q 1375 2178 1419 2176 
Q 1463 2175 1491 2175 
Q 2097 2175 2405 2437 
Q 2713 2700 2713 3106 
Q 2713 3503 2464 3751 
Q 2216 4000 1806 4000 
Q 1625 4000 1316 3941 
L 1316 2178 
z
" transform="scale(0.015625)"/>
      <path id="TimesNewRomanPSMT-6d" d="M 1050 2338 
Q 1363 2650 1419 2697 
Q 1559 2816 1721 2881 
Q 1884 2947 2044 2947 
Q 2313 2947 2506 2790 
Q 2700 2634 2766 2338 
Q 3088 2713 3309 2830 
Q 3531 2947 3766 2947 
Q 3994 2947 4170 2830 
Q 4347 2713 4450 2447 
Q 4519 2266 4519 1878 
L 4519 647 
Q 4519 378 4559 278 
Q 4591 209 4675 161 
Q 4759 113 4950 113 
L 4950 0 
L 3538 0 
L 3538 113 
L 3597 113 
Q 3781 113 3884 184 
Q 3956 234 3988 344 
Q 4000 397 4000 647 
L 4000 1878 
Q 4000 2228 3916 2372 
Q 3794 2572 3525 2572 
Q 3359 2572 3192 2489 
Q 3025 2406 2788 2181 
L 2781 2147 
L 2788 2013 
L 2788 647 
Q 2788 353 2820 281 
Q 2853 209 2943 161 
Q 3034 113 3253 113 
L 3253 0 
L 1806 0 
L 1806 113 
Q 2044 113 2133 169 
Q 2222 225 2256 338 
Q 2272 391 2272 647 
L 2272 1878 
Q 2272 2228 2169 2381 
Q 2031 2581 1784 2581 
Q 1616 2581 1450 2491 
Q 1191 2353 1050 2181 
L 1050 647 
Q 1050 366 1089 281 
Q 1128 197 1204 155 
Q 1281 113 1516 113 
L 1516 0 
L 100 0 
L 100 113 
Q 297 113 375 155 
Q 453 197 493 289 
Q 534 381 534 647 
L 534 1741 
Q 534 2213 506 2350 
Q 484 2453 437 2492 
Q 391 2531 309 2531 
Q 222 2531 100 2484 
L 53 2597 
L 916 2947 
L 1050 2947 
L 1050 2338 
z
" transform="scale(0.015625)"/>
      <path id="TimesNewRomanPSMT-64" d="M 2222 322 
Q 2013 103 1813 7 
Q 1613 -88 1381 -88 
Q 913 -88 563 304 
Q 213 697 213 1313 
Q 213 1928 600 2439 
Q 988 2950 1597 2950 
Q 1975 2950 2222 2709 
L 2222 3238 
Q 2222 3728 2198 3840 
Q 2175 3953 2125 3993 
Q 2075 4034 2000 4034 
Q 1919 4034 1784 3984 
L 1744 4094 
L 2597 4444 
L 2738 4444 
L 2738 1134 
Q 2738 631 2761 520 
Q 2784 409 2836 365 
Q 2888 322 2956 322 
Q 3041 322 3181 375 
L 3216 266 
L 2366 -88 
L 2222 -88 
L 2222 322 
z
M 2222 541 
L 2222 2016 
Q 2203 2228 2109 2403 
Q 2016 2578 1861 2667 
Q 1706 2756 1559 2756 
Q 1284 2756 1069 2509 
Q 784 2184 784 1559 
Q 784 928 1059 592 
Q 1334 256 1672 256 
Q 1956 256 2222 541 
z
" transform="scale(0.015625)"/>
      <path id="TimesNewRomanPSMT-6c" d="M 1184 4444 
L 1184 647 
Q 1184 378 1223 290 
Q 1263 203 1344 158 
Q 1425 113 1647 113 
L 1647 0 
L 244 0 
L 244 113 
Q 441 113 512 153 
Q 584 194 625 287 
Q 666 381 666 647 
L 666 3247 
Q 666 3731 644 3842 
Q 622 3953 573 3993 
Q 525 4034 450 4034 
Q 369 4034 244 3984 
L 191 4094 
L 1044 4444 
L 1184 4444 
z
" transform="scale(0.015625)"/>
      <path id="TimesNewRomanPSMT-28" d="M 1988 -1253 
L 1988 -1369 
Q 1516 -1131 1200 -813 
Q 750 -359 506 256 
Q 263 872 263 1534 
Q 263 2503 741 3301 
Q 1219 4100 1988 4444 
L 1988 4313 
Q 1603 4100 1356 3731 
Q 1109 3363 987 2797 
Q 866 2231 866 1616 
Q 866 947 969 400 
Q 1050 -31 1165 -292 
Q 1281 -553 1476 -793 
Q 1672 -1034 1988 -1253 
z
" transform="scale(0.015625)"/>
      <path id="TimesNewRomanPSMT-2b" d="M 1672 441 
L 1672 2000 
L 116 2000 
L 116 2256 
L 1672 2256 
L 1672 3809 
L 1922 3809 
L 1922 2256 
L 3484 2256 
L 3484 2000 
L 1922 2000 
L 1922 441 
L 1672 441 
z
" transform="scale(0.015625)"/>
      <path id="TimesNewRomanPSMT-29" d="M 144 4313 
L 144 4444 
Q 619 4209 934 3891 
Q 1381 3434 1625 2820 
Q 1869 2206 1869 1541 
Q 1869 572 1392 -226 
Q 916 -1025 144 -1369 
L 144 -1253 
Q 528 -1038 776 -670 
Q 1025 -303 1145 264 
Q 1266 831 1266 1447 
Q 1266 2113 1163 2663 
Q 1084 3094 967 3353 
Q 850 3613 656 3853 
Q 463 4094 144 4313 
z
" transform="scale(0.015625)"/>
      <path id="TimesNewRomanPSMT-6b" d="M 1047 4444 
L 1047 1594 
L 1775 2259 
Q 2006 2472 2044 2528 
Q 2069 2566 2069 2603 
Q 2069 2666 2017 2711 
Q 1966 2756 1847 2763 
L 1847 2863 
L 3091 2863 
L 3091 2763 
Q 2834 2756 2664 2684 
Q 2494 2613 2291 2428 
L 1556 1750 
L 2291 822 
Q 2597 438 2703 334 
Q 2853 188 2966 144 
Q 3044 113 3238 113 
L 3238 0 
L 1847 0 
L 1847 113 
Q 1966 116 2008 148 
Q 2050 181 2050 241 
Q 2050 313 1925 472 
L 1047 1594 
L 1047 644 
Q 1047 366 1086 278 
Q 1125 191 1197 153 
Q 1269 116 1509 113 
L 1509 0 
L 53 0 
L 53 113 
Q 272 113 381 166 
Q 447 200 481 272 
Q 528 375 528 628 
L 528 3234 
Q 528 3731 506 3842 
Q 484 3953 434 3995 
Q 384 4038 303 4038 
Q 238 4038 106 3984 
L 53 4094 
L 903 4444 
L 1047 4444 
z
" transform="scale(0.015625)"/>
      <path id="TimesNewRomanPSMT-2d" d="M 259 1672 
L 1875 1672 
L 1875 1200 
L 259 1200 
L 259 1672 
z
" transform="scale(0.015625)"/>
      <path id="TimesNewRomanPSMT-73" d="M 2050 2947 
L 2050 1972 
L 1947 1972 
Q 1828 2431 1642 2597 
Q 1456 2763 1169 2763 
Q 950 2763 815 2647 
Q 681 2531 681 2391 
Q 681 2216 781 2091 
Q 878 1963 1175 1819 
L 1631 1597 
Q 2266 1288 2266 781 
Q 2266 391 1970 151 
Q 1675 -88 1309 -88 
Q 1047 -88 709 6 
Q 606 38 541 38 
Q 469 38 428 -44 
L 325 -44 
L 325 978 
L 428 978 
Q 516 541 762 319 
Q 1009 97 1316 97 
Q 1531 97 1667 223 
Q 1803 350 1803 528 
Q 1803 744 1651 891 
Q 1500 1038 1047 1263 
Q 594 1488 453 1669 
Q 313 1847 313 2119 
Q 313 2472 555 2709 
Q 797 2947 1181 2947 
Q 1350 2947 1591 2875 
Q 1750 2828 1803 2828 
Q 1853 2828 1881 2850 
Q 1909 2872 1947 2947 
L 2050 2947 
z
" transform="scale(0.015625)"/>
      <path id="TimesNewRomanPSMT-6e" d="M 1034 2341 
Q 1538 2947 1994 2947 
Q 2228 2947 2397 2830 
Q 2566 2713 2666 2444 
Q 2734 2256 2734 1869 
L 2734 647 
Q 2734 375 2778 278 
Q 2813 200 2889 156 
Q 2966 113 3172 113 
L 3172 0 
L 1756 0 
L 1756 113 
L 1816 113 
Q 2016 113 2095 173 
Q 2175 234 2206 353 
Q 2219 400 2219 647 
L 2219 1819 
Q 2219 2209 2117 2386 
Q 2016 2563 1775 2563 
Q 1403 2563 1034 2156 
L 1034 647 
Q 1034 356 1069 288 
Q 1113 197 1189 155 
Q 1266 113 1500 113 
L 1500 0 
L 84 0 
L 84 113 
L 147 113 
Q 366 113 442 223 
Q 519 334 519 647 
L 519 1709 
Q 519 2225 495 2337 
Q 472 2450 423 2490 
Q 375 2531 294 2531 
Q 206 2531 84 2484 
L 38 2597 
L 900 2947 
L 1034 2947 
L 1034 2341 
z
" transform="scale(0.015625)"/>
      <path id="TimesNewRomanPSMT-76" d="M 53 2863 
L 1400 2863 
L 1400 2747 
L 1313 2747 
Q 1191 2747 1127 2687 
Q 1063 2628 1063 2528 
Q 1063 2419 1128 2269 
L 1794 688 
L 2463 2328 
Q 2534 2503 2534 2594 
Q 2534 2638 2509 2666 
Q 2475 2713 2422 2730 
Q 2369 2747 2206 2747 
L 2206 2863 
L 3141 2863 
L 3141 2747 
Q 2978 2734 2916 2681 
Q 2806 2588 2719 2369 
L 1703 -88 
L 1575 -88 
L 553 2328 
Q 484 2497 421 2570 
Q 359 2644 263 2694 
Q 209 2722 53 2747 
L 53 2863 
z
" transform="scale(0.015625)"/>
      <path id="TimesNewRomanPSMT-69" d="M 928 4444 
Q 1059 4444 1151 4351 
Q 1244 4259 1244 4128 
Q 1244 3997 1151 3903 
Q 1059 3809 928 3809 
Q 797 3809 703 3903 
Q 609 3997 609 4128 
Q 609 4259 701 4351 
Q 794 4444 928 4444 
z
M 1188 2947 
L 1188 647 
Q 1188 378 1227 289 
Q 1266 200 1342 156 
Q 1419 113 1622 113 
L 1622 0 
L 231 0 
L 231 113 
Q 441 113 512 153 
Q 584 194 626 287 
Q 669 381 669 647 
L 669 1750 
Q 669 2216 641 2353 
Q 619 2453 572 2492 
Q 525 2531 444 2531 
Q 356 2531 231 2484 
L 188 2597 
L 1050 2947 
L 1188 2947 
z
" transform="scale(0.015625)"/>
     </defs>
     <use xlink:href="#TimesNewRomanPSMT-41"/>
     <use xlink:href="#TimesNewRomanPSMT-63" transform="translate(72.216797 0)"/>
     <use xlink:href="#TimesNewRomanPSMT-63" transform="translate(116.601562 0)"/>
     <use xlink:href="#TimesNewRomanPSMT-75" transform="translate(160.986328 0)"/>
     <use xlink:href="#TimesNewRomanPSMT-72" transform="translate(210.986328 0)"/>
     <use xlink:href="#TimesNewRomanPSMT-61" transform="translate(244.287109 0)"/>
     <use xlink:href="#TimesNewRomanPSMT-63" transform="translate(288.671875 0)"/>
     <use xlink:href="#TimesNewRomanPSMT-79" transform="translate(333.056641 0)"/>
     <use xlink:href="#TimesNewRomanPSMT-20" transform="translate(383.056641 0)"/>
     <use xlink:href="#TimesNewRomanPSMT-6f" transform="translate(408.056641 0)"/>
     <use xlink:href="#TimesNewRomanPSMT-66" transform="translate(458.056641 0)"/>
     <use xlink:href="#TimesNewRomanPSMT-20" transform="translate(491.357422 0)"/>
     <use xlink:href="#TimesNewRomanPSMT-74" transform="translate(516.357422 0)"/>
     <use xlink:href="#TimesNewRomanPSMT-68" transform="translate(544.140625 0)"/>
     <use xlink:href="#TimesNewRomanPSMT-65" transform="translate(594.140625 0)"/>
     <use xlink:href="#TimesNewRomanPSMT-20" transform="translate(638.525391 0)"/>
     <use xlink:href="#TimesNewRomanPSMT-30" transform="translate(663.525391 0)"/>
     <use xlink:href="#TimesNewRomanPSMT-39" transform="translate(713.525391 0)"/>
     <use xlink:href="#TimesNewRomanPSMT-5f" transform="translate(763.525391 0)"/>
     <use xlink:href="#TimesNewRomanPSMT-30" transform="translate(813.525391 0)"/>
     <use xlink:href="#TimesNewRomanPSMT-37" transform="translate(863.525391 0)"/>
     <use xlink:href="#TimesNewRomanPSMT-5f" transform="translate(913.525391 0)"/>
     <use xlink:href="#TimesNewRomanPSMT-32" transform="translate(963.525391 0)"/>
     <use xlink:href="#TimesNewRomanPSMT-35" transform="translate(1013.525391 0)"/>
     <use xlink:href="#TimesNewRomanPSMT-5f" transform="translate(1063.525391 0)"/>
     <use xlink:href="#TimesNewRomanPSMT-43" transform="translate(1113.525391 0)"/>
     <use xlink:href="#TimesNewRomanPSMT-49" transform="translate(1180.224609 0)"/>
     <use xlink:href="#TimesNewRomanPSMT-46" transform="translate(1213.525391 0)"/>
     <use xlink:href="#TimesNewRomanPSMT-41" transform="translate(1261.765625 0)"/>
     <use xlink:href="#TimesNewRomanPSMT-52" transform="translate(1333.982422 0)"/>
     <use xlink:href="#TimesNewRomanPSMT-31" transform="translate(1400.681641 0)"/>
     <use xlink:href="#TimesNewRomanPSMT-30" transform="translate(1450.681641 0)"/>
     <use xlink:href="#TimesNewRomanPSMT-5f" transform="translate(1500.681641 0)"/>
     <use xlink:href="#TimesNewRomanPSMT-74" transform="translate(1550.681641 0)"/>
     <use xlink:href="#TimesNewRomanPSMT-6f" transform="translate(1578.464844 0)"/>
     <use xlink:href="#TimesNewRomanPSMT-72" transform="translate(1628.464844 0)"/>
     <use xlink:href="#TimesNewRomanPSMT-63" transform="translate(1661.765625 0)"/>
     <use xlink:href="#TimesNewRomanPSMT-68" transform="translate(1706.150391 0)"/>
     <use xlink:href="#TimesNewRomanPSMT-5f" transform="translate(1756.150391 0)"/>
     <use xlink:href="#TimesNewRomanPSMT-6d" transform="translate(1806.150391 0)"/>
     <use xlink:href="#TimesNewRomanPSMT-6f" transform="translate(1883.933594 0)"/>
     <use xlink:href="#TimesNewRomanPSMT-64" transform="translate(1933.933594 0)"/>
     <use xlink:href="#TimesNewRomanPSMT-65" transform="translate(1983.933594 0)"/>
     <use xlink:href="#TimesNewRomanPSMT-6c" transform="translate(2028.318359 0)"/>
     <use xlink:href="#TimesNewRomanPSMT-5f" transform="translate(2056.101562 0)"/>
     <use xlink:href="#TimesNewRomanPSMT-28" transform="translate(2106.101562 0)"/>
     <use xlink:href="#TimesNewRomanPSMT-31" transform="translate(2139.402344 0)"/>
     <use xlink:href="#TimesNewRomanPSMT-30" transform="translate(2189.402344 0)"/>
     <use xlink:href="#TimesNewRomanPSMT-32" transform="translate(2239.402344 0)"/>
     <use xlink:href="#TimesNewRomanPSMT-34" transform="translate(2289.402344 0)"/>
     <use xlink:href="#TimesNewRomanPSMT-2b" transform="translate(2339.402344 0)"/>
     <use xlink:href="#TimesNewRomanPSMT-35" transform="translate(2395.798828 0)"/>
     <use xlink:href="#TimesNewRomanPSMT-31" transform="translate(2445.798828 0)"/>
     <use xlink:href="#TimesNewRomanPSMT-32" transform="translate(2495.798828 0)"/>
     <use xlink:href="#TimesNewRomanPSMT-2e" transform="translate(2545.798828 0)"/>
     <use xlink:href="#TimesNewRomanPSMT-31" transform="translate(2570.798828 0)"/>
     <use xlink:href="#TimesNewRomanPSMT-2b" transform="translate(2620.798828 0)"/>
     <use xlink:href="#TimesNewRomanPSMT-31" transform="translate(2677.195312 0)"/>
     <use xlink:href="#TimesNewRomanPSMT-29" transform="translate(2727.195312 0)"/>
     <use xlink:href="#TimesNewRomanPSMT-5f" transform="translate(2760.496094 0)"/>
     <use xlink:href="#TimesNewRomanPSMT-65" transform="translate(2810.496094 0)"/>
     <use xlink:href="#TimesNewRomanPSMT-6c" transform="translate(2854.880859 0)"/>
     <use xlink:href="#TimesNewRomanPSMT-6b" transform="translate(2882.664062 0)"/>
     <use xlink:href="#TimesNewRomanPSMT-2d" transform="translate(2932.664062 0)"/>
     <use xlink:href="#TimesNewRomanPSMT-68" transform="translate(2965.964844 0)"/>
     <use xlink:href="#TimesNewRomanPSMT-6f" transform="translate(3015.964844 0)"/>
     <use xlink:href="#TimesNewRomanPSMT-72" transform="translate(3065.964844 0)"/>
     <use xlink:href="#TimesNewRomanPSMT-73" transform="translate(3099.265625 0)"/>
     <use xlink:href="#TimesNewRomanPSMT-65" transform="translate(3138.181641 0)"/>
     <use xlink:href="#TimesNewRomanPSMT-20" transform="translate(3182.566406 0)"/>
     <use xlink:href="#TimesNewRomanPSMT-6f" transform="translate(3207.566406 0)"/>
     <use xlink:href="#TimesNewRomanPSMT-6e" transform="translate(3257.566406 0)"/>
     <use xlink:href="#TimesNewRomanPSMT-20" transform="translate(3307.566406 0)"/>
     <use xlink:href="#TimesNewRomanPSMT-74" transform="translate(3332.566406 0)"/>
     <use xlink:href="#TimesNewRomanPSMT-68" transform="translate(3360.349609 0)"/>
     <use xlink:href="#TimesNewRomanPSMT-65" transform="translate(3410.349609 0)"/>
     <use xlink:href="#TimesNewRomanPSMT-20" transform="translate(3454.734375 0)"/>
     <use xlink:href="#TimesNewRomanPSMT-76" transform="translate(3479.734375 0)"/>
     <use xlink:href="#TimesNewRomanPSMT-61" transform="translate(3529.734375 0)"/>
     <use xlink:href="#TimesNewRomanPSMT-6c" transform="translate(3574.119141 0)"/>
     <use xlink:href="#TimesNewRomanPSMT-69" transform="translate(3601.902344 0)"/>
     <use xlink:href="#TimesNewRomanPSMT-64" transform="translate(3629.685547 0)"/>
     <use xlink:href="#TimesNewRomanPSMT-61" transform="translate(3679.685547 0)"/>
     <use xlink:href="#TimesNewRomanPSMT-74" transform="translate(3724.070312 0)"/>
     <use xlink:href="#TimesNewRomanPSMT-69" transform="translate(3751.853516 0)"/>
     <use xlink:href="#TimesNewRomanPSMT-6f" transform="translate(3779.636719 0)"/>
     <use xlink:href="#TimesNewRomanPSMT-6e" transform="translate(3829.636719 0)"/>
     <use xlink:href="#TimesNewRomanPSMT-20" transform="translate(3879.636719 0)"/>
     <use xlink:href="#TimesNewRomanPSMT-73" transform="translate(3904.636719 0)"/>
     <use xlink:href="#TimesNewRomanPSMT-65" transform="translate(3943.552734 0)"/>
     <use xlink:href="#TimesNewRomanPSMT-74" transform="translate(3987.9375 0)"/>
    </g>
   </g>
   <g id="legend_1">
    <g id="patch_7">
     <path d="M 463.268688 94.278687 
L 700.439 94.278687 
Q 704.839 94.278687 704.839 89.878687 
L 704.839 60.9315 
Q 704.839 56.5315 700.439 56.5315 
L 463.268688 56.5315 
Q 458.868688 56.5315 458.868688 60.9315 
L 458.868688 89.878687 
Q 458.868688 94.278687 463.268688 94.278687 
z
" style="fill: #ffffff; opacity: 0.8; stroke: #cccccc; stroke-linejoin: miter"/>
    </g>
    <g id="line2d_32">
     <path d="M 467.668688 73.0315 
L 489.668688 73.0315 
L 511.668688 73.0315 
" style="fill: none; stroke: #1f77b4; stroke-width: 1.5; stroke-linecap: square"/>
    </g>
    <g id="text_19">
     <!-- Best accuracy 0.79 -->
     <g transform="translate(529.268688 80.7315) scale(0.22 -0.22)">
      <defs>
       <path id="TimesNewRomanPSMT-42" d="M 2956 2163 
Q 3397 2069 3616 1863 
Q 3919 1575 3919 1159 
Q 3919 844 3719 555 
Q 3519 266 3170 133 
Q 2822 0 2106 0 
L 106 0 
L 106 116 
L 266 116 
Q 531 116 647 284 
Q 719 394 719 750 
L 719 3488 
Q 719 3881 628 3984 
Q 506 4122 266 4122 
L 106 4122 
L 106 4238 
L 1938 4238 
Q 2450 4238 2759 4163 
Q 3228 4050 3475 3764 
Q 3722 3478 3722 3106 
Q 3722 2788 3528 2536 
Q 3334 2284 2956 2163 
z
M 1319 2331 
Q 1434 2309 1582 2298 
Q 1731 2288 1909 2288 
Q 2366 2288 2595 2386 
Q 2825 2484 2947 2687 
Q 3069 2891 3069 3131 
Q 3069 3503 2766 3765 
Q 2463 4028 1881 4028 
Q 1569 4028 1319 3959 
L 1319 2331 
z
M 1319 306 
Q 1681 222 2034 222 
Q 2600 222 2897 476 
Q 3194 731 3194 1106 
Q 3194 1353 3059 1581 
Q 2925 1809 2622 1940 
Q 2319 2072 1872 2072 
Q 1678 2072 1540 2065 
Q 1403 2059 1319 2044 
L 1319 306 
z
" transform="scale(0.015625)"/>
      </defs>
      <use xlink:href="#TimesNewRomanPSMT-42"/>
      <use xlink:href="#TimesNewRomanPSMT-65" transform="translate(66.699219 0)"/>
      <use xlink:href="#TimesNewRomanPSMT-73" transform="translate(111.083984 0)"/>
      <use xlink:href="#TimesNewRomanPSMT-74" transform="translate(150 0)"/>
      <use xlink:href="#TimesNewRomanPSMT-20" transform="translate(177.783203 0)"/>
      <use xlink:href="#TimesNewRomanPSMT-61" transform="translate(202.783203 0)"/>
      <use xlink:href="#TimesNewRomanPSMT-63" transform="translate(247.167969 0)"/>
      <use xlink:href="#TimesNewRomanPSMT-63" transform="translate(291.552734 0)"/>
      <use xlink:href="#TimesNewRomanPSMT-75" transform="translate(335.9375 0)"/>
      <use xlink:href="#TimesNewRomanPSMT-72" transform="translate(385.9375 0)"/>
      <use xlink:href="#TimesNewRomanPSMT-61" transform="translate(419.238281 0)"/>
      <use xlink:href="#TimesNewRomanPSMT-63" transform="translate(463.623047 0)"/>
      <use xlink:href="#TimesNewRomanPSMT-79" transform="translate(508.007812 0)"/>
      <use xlink:href="#TimesNewRomanPSMT-20" transform="translate(558.007812 0)"/>
      <use xlink:href="#TimesNewRomanPSMT-30" transform="translate(583.007812 0)"/>
      <use xlink:href="#TimesNewRomanPSMT-2e" transform="translate(633.007812 0)"/>
      <use xlink:href="#TimesNewRomanPSMT-37" transform="translate(658.007812 0)"/>
      <use xlink:href="#TimesNewRomanPSMT-39" transform="translate(708.007812 0)"/>
     </g>
    </g>
   </g>
  </g>
 </g>
 <defs>
  <clipPath id="pf978cc0759">
   <rect x="358.719" y="45.5315" width="357.12" height="266.112"/>
  </clipPath>
 </defs>
</svg>
