<?xml version="1.0" encoding="utf-8" standalone="no"?>
<!DOCTYPE svg PUBLIC "-//W3C//DTD SVG 1.1//EN"
  "http://www.w3.org/Graphics/SVG/1.1/DTD/svg11.dtd">
<svg xmlns:xlink="http://www.w3.org/1999/xlink" width="1017.109125pt" height="369.807875pt" viewBox="0 0 1017.109125 369.807875" xmlns="http://www.w3.org/2000/svg" version="1.1">
 <metadata>
  <rdf:RDF xmlns:dc="http://purl.org/dc/elements/1.1/" xmlns:cc="http://creativecommons.org/ns#" xmlns:rdf="http://www.w3.org/1999/02/22-rdf-syntax-ns#">
   <cc:Work>
    <dc:type rdf:resource="http://purl.org/dc/dcmitype/StillImage"/>
    <dc:date>2025-05-14T17:41:04.273546</dc:date>
    <dc:format>image/svg+xml</dc:format>
    <dc:creator>
     <cc:Agent>
      <dc:title>Matplotlib v3.10.1, https://matplotlib.org/</dc:title>
     </cc:Agent>
    </dc:creator>
   </cc:Work>
  </rdf:RDF>
 </metadata>
 <defs>
  <style type="text/css">*{stroke-linejoin: round; stroke-linecap: butt}</style>
 </defs>
 <g id="figure_1">
  <g id="patch_1">
   <path d="M 0 369.807875 
L 1017.109125 369.807875 
L 1017.109125 0 
L 0 0 
z
" style="fill: #ffffff"/>
  </g>
  <g id="axes_1">
   <g id="patch_2">
    <path d="M 329.994563 311.6435 
L 687.114563 311.6435 
L 687.114563 45.5315 
L 329.994563 45.5315 
z
" style="fill: #ffffff"/>
   </g>
   <g id="matplotlib.axis_1">
    <g id="xtick_1">
     <g id="line2d_1">
      <path d="M 329.994563 311.6435 
L 329.994563 45.5315 
" clip-path="url(#pbcd7a75a10)" style="fill: none; stroke: #b0b0b0; stroke-opacity: 0.3; stroke-width: 0.8; stroke-linecap: square"/>
     </g>
     <g id="line2d_2">
      <defs>
       <path id="m5b0078f760" d="M 0 0 
L 0 3.5 
" style="stroke: #000000; stroke-width: 0.8"/>
      </defs>
      <g>
       <use xlink:href="#m5b0078f760" x="329.994563" y="311.6435" style="stroke: #000000; stroke-width: 0.8"/>
      </g>
     </g>
     <g id="text_1">
      <!-- 0 -->
      <g transform="translate(324.494563 333.91975) scale(0.22 -0.22)">
       <defs>
        <path id="TimesNewRomanPSMT-30" d="M 231 2094 
Q 231 2819 450 3342 
Q 669 3866 1031 4122 
Q 1313 4325 1613 4325 
Q 2100 4325 2488 3828 
Q 2972 3213 2972 2159 
Q 2972 1422 2759 906 
Q 2547 391 2217 158 
Q 1888 -75 1581 -75 
Q 975 -75 572 641 
Q 231 1244 231 2094 
z
M 844 2016 
Q 844 1141 1059 588 
Q 1238 122 1591 122 
Q 1759 122 1940 273 
Q 2122 425 2216 781 
Q 2359 1319 2359 2297 
Q 2359 3022 2209 3506 
Q 2097 3866 1919 4016 
Q 1791 4119 1609 4119 
Q 1397 4119 1231 3928 
Q 1006 3669 925 3112 
Q 844 2556 844 2016 
z
" transform="scale(0.015625)"/>
       </defs>
       <use xlink:href="#TimesNewRomanPSMT-30"/>
      </g>
     </g>
    </g>
    <g id="xtick_2">
     <g id="line2d_3">
      <path d="M 416.758411 311.6435 
L 416.758411 45.5315 
" clip-path="url(#pbcd7a75a10)" style="fill: none; stroke: #b0b0b0; stroke-opacity: 0.3; stroke-width: 0.8; stroke-linecap: square"/>
     </g>
     <g id="line2d_4">
      <g>
       <use xlink:href="#m5b0078f760" x="416.758411" y="311.6435" style="stroke: #000000; stroke-width: 0.8"/>
      </g>
     </g>
     <g id="text_2">
      <!-- 2500 -->
      <g transform="translate(394.758411 333.91975) scale(0.22 -0.22)">
       <defs>
        <path id="TimesNewRomanPSMT-32" d="M 2934 816 
L 2638 0 
L 138 0 
L 138 116 
Q 1241 1122 1691 1759 
Q 2141 2397 2141 2925 
Q 2141 3328 1894 3587 
Q 1647 3847 1303 3847 
Q 991 3847 742 3664 
Q 494 3481 375 3128 
L 259 3128 
Q 338 3706 661 4015 
Q 984 4325 1469 4325 
Q 1984 4325 2329 3994 
Q 2675 3663 2675 3213 
Q 2675 2891 2525 2569 
Q 2294 2063 1775 1497 
Q 997 647 803 472 
L 1909 472 
Q 2247 472 2383 497 
Q 2519 522 2628 598 
Q 2738 675 2819 816 
L 2934 816 
z
" transform="scale(0.015625)"/>
        <path id="TimesNewRomanPSMT-35" d="M 2778 4238 
L 2534 3706 
L 1259 3706 
L 981 3138 
Q 1809 3016 2294 2522 
Q 2709 2097 2709 1522 
Q 2709 1188 2573 903 
Q 2438 619 2231 419 
Q 2025 219 1772 97 
Q 1413 -75 1034 -75 
Q 653 -75 479 54 
Q 306 184 306 341 
Q 306 428 378 495 
Q 450 563 559 563 
Q 641 563 702 538 
Q 763 513 909 409 
Q 1144 247 1384 247 
Q 1750 247 2026 523 
Q 2303 800 2303 1197 
Q 2303 1581 2056 1914 
Q 1809 2247 1375 2428 
Q 1034 2569 447 2591 
L 1259 4238 
L 2778 4238 
z
" transform="scale(0.015625)"/>
       </defs>
       <use xlink:href="#TimesNewRomanPSMT-32"/>
       <use xlink:href="#TimesNewRomanPSMT-35" transform="translate(50 0)"/>
       <use xlink:href="#TimesNewRomanPSMT-30" transform="translate(100 0)"/>
       <use xlink:href="#TimesNewRomanPSMT-30" transform="translate(150 0)"/>
      </g>
     </g>
    </g>
    <g id="xtick_3">
     <g id="line2d_5">
      <path d="M 503.522259 311.6435 
L 503.522259 45.5315 
" clip-path="url(#pbcd7a75a10)" style="fill: none; stroke: #b0b0b0; stroke-opacity: 0.3; stroke-width: 0.8; stroke-linecap: square"/>
     </g>
     <g id="line2d_6">
      <g>
       <use xlink:href="#m5b0078f760" x="503.522259" y="311.6435" style="stroke: #000000; stroke-width: 0.8"/>
      </g>
     </g>
     <g id="text_3">
      <!-- 5000 -->
      <g transform="translate(481.522259 333.91975) scale(0.22 -0.22)">
       <use xlink:href="#TimesNewRomanPSMT-35"/>
       <use xlink:href="#TimesNewRomanPSMT-30" transform="translate(50 0)"/>
       <use xlink:href="#TimesNewRomanPSMT-30" transform="translate(100 0)"/>
       <use xlink:href="#TimesNewRomanPSMT-30" transform="translate(150 0)"/>
      </g>
     </g>
    </g>
    <g id="xtick_4">
     <g id="line2d_7">
      <path d="M 590.286108 311.6435 
L 590.286108 45.5315 
" clip-path="url(#pbcd7a75a10)" style="fill: none; stroke: #b0b0b0; stroke-opacity: 0.3; stroke-width: 0.8; stroke-linecap: square"/>
     </g>
     <g id="line2d_8">
      <g>
       <use xlink:href="#m5b0078f760" x="590.286108" y="311.6435" style="stroke: #000000; stroke-width: 0.8"/>
      </g>
     </g>
     <g id="text_4">
      <!-- 7500 -->
      <g transform="translate(568.286108 333.91975) scale(0.22 -0.22)">
       <defs>
        <path id="TimesNewRomanPSMT-37" d="M 644 4238 
L 2916 4238 
L 2916 4119 
L 1503 -88 
L 1153 -88 
L 2419 3728 
L 1253 3728 
Q 900 3728 750 3644 
Q 488 3500 328 3200 
L 238 3234 
L 644 4238 
z
" transform="scale(0.015625)"/>
       </defs>
       <use xlink:href="#TimesNewRomanPSMT-37"/>
       <use xlink:href="#TimesNewRomanPSMT-35" transform="translate(50 0)"/>
       <use xlink:href="#TimesNewRomanPSMT-30" transform="translate(100 0)"/>
       <use xlink:href="#TimesNewRomanPSMT-30" transform="translate(150 0)"/>
      </g>
     </g>
    </g>
    <g id="xtick_5">
     <g id="line2d_9">
      <path d="M 677.049956 311.6435 
L 677.049956 45.5315 
" clip-path="url(#pbcd7a75a10)" style="fill: none; stroke: #b0b0b0; stroke-opacity: 0.3; stroke-width: 0.8; stroke-linecap: square"/>
     </g>
     <g id="line2d_10">
      <g>
       <use xlink:href="#m5b0078f760" x="677.049956" y="311.6435" style="stroke: #000000; stroke-width: 0.8"/>
      </g>
     </g>
     <g id="text_5">
      <!-- 10000 -->
      <g transform="translate(649.549956 333.91975) scale(0.22 -0.22)">
       <defs>
        <path id="TimesNewRomanPSMT-31" d="M 750 3822 
L 1781 4325 
L 1884 4325 
L 1884 747 
Q 1884 391 1914 303 
Q 1944 216 2037 169 
Q 2131 122 2419 116 
L 2419 0 
L 825 0 
L 825 116 
Q 1125 122 1212 167 
Q 1300 213 1334 289 
Q 1369 366 1369 747 
L 1369 3034 
Q 1369 3497 1338 3628 
Q 1316 3728 1258 3775 
Q 1200 3822 1119 3822 
Q 1003 3822 797 3725 
L 750 3822 
z
" transform="scale(0.015625)"/>
       </defs>
       <use xlink:href="#TimesNewRomanPSMT-31"/>
       <use xlink:href="#TimesNewRomanPSMT-30" transform="translate(50 0)"/>
       <use xlink:href="#TimesNewRomanPSMT-30" transform="translate(100 0)"/>
       <use xlink:href="#TimesNewRomanPSMT-30" transform="translate(150 0)"/>
       <use xlink:href="#TimesNewRomanPSMT-30" transform="translate(200 0)"/>
      </g>
     </g>
    </g>
    <g id="text_6">
     <!-- Number of iterations -->
     <g transform="translate(416.912531 357.901937) scale(0.22 -0.22)">
      <defs>
       <path id="TimesNewRomanPSMT-4e" d="M -84 4238 
L 1066 4238 
L 3656 1059 
L 3656 3503 
Q 3656 3894 3569 3991 
Q 3453 4122 3203 4122 
L 3056 4122 
L 3056 4238 
L 4531 4238 
L 4531 4122 
L 4381 4122 
Q 4113 4122 4000 3959 
Q 3931 3859 3931 3503 
L 3931 -69 
L 3819 -69 
L 1025 3344 
L 1025 734 
Q 1025 344 1109 247 
Q 1228 116 1475 116 
L 1625 116 
L 1625 0 
L 150 0 
L 150 116 
L 297 116 
Q 569 116 681 278 
Q 750 378 750 734 
L 750 3681 
Q 566 3897 470 3965 
Q 375 4034 191 4094 
Q 100 4122 -84 4122 
L -84 4238 
z
" transform="scale(0.015625)"/>
       <path id="TimesNewRomanPSMT-75" d="M 2709 2863 
L 2709 1128 
Q 2709 631 2732 520 
Q 2756 409 2807 365 
Q 2859 322 2928 322 
Q 3025 322 3147 375 
L 3191 266 
L 2334 -88 
L 2194 -88 
L 2194 519 
Q 1825 119 1631 15 
Q 1438 -88 1222 -88 
Q 981 -88 804 51 
Q 628 191 559 409 
Q 491 628 491 1028 
L 491 2306 
Q 491 2509 447 2587 
Q 403 2666 317 2708 
Q 231 2750 6 2747 
L 6 2863 
L 1009 2863 
L 1009 947 
Q 1009 547 1148 422 
Q 1288 297 1484 297 
Q 1619 297 1789 381 
Q 1959 466 2194 703 
L 2194 2325 
Q 2194 2569 2105 2655 
Q 2016 2741 1734 2747 
L 1734 2863 
L 2709 2863 
z
" transform="scale(0.015625)"/>
       <path id="TimesNewRomanPSMT-6d" d="M 1050 2338 
Q 1363 2650 1419 2697 
Q 1559 2816 1721 2881 
Q 1884 2947 2044 2947 
Q 2313 2947 2506 2790 
Q 2700 2634 2766 2338 
Q 3088 2713 3309 2830 
Q 3531 2947 3766 2947 
Q 3994 2947 4170 2830 
Q 4347 2713 4450 2447 
Q 4519 2266 4519 1878 
L 4519 647 
Q 4519 378 4559 278 
Q 4591 209 4675 161 
Q 4759 113 4950 113 
L 4950 0 
L 3538 0 
L 3538 113 
L 3597 113 
Q 3781 113 3884 184 
Q 3956 234 3988 344 
Q 4000 397 4000 647 
L 4000 1878 
Q 4000 2228 3916 2372 
Q 3794 2572 3525 2572 
Q 3359 2572 3192 2489 
Q 3025 2406 2788 2181 
L 2781 2147 
L 2788 2013 
L 2788 647 
Q 2788 353 2820 281 
Q 2853 209 2943 161 
Q 3034 113 3253 113 
L 3253 0 
L 1806 0 
L 1806 113 
Q 2044 113 2133 169 
Q 2222 225 2256 338 
Q 2272 391 2272 647 
L 2272 1878 
Q 2272 2228 2169 2381 
Q 2031 2581 1784 2581 
Q 1616 2581 1450 2491 
Q 1191 2353 1050 2181 
L 1050 647 
Q 1050 366 1089 281 
Q 1128 197 1204 155 
Q 1281 113 1516 113 
L 1516 0 
L 100 0 
L 100 113 
Q 297 113 375 155 
Q 453 197 493 289 
Q 534 381 534 647 
L 534 1741 
Q 534 2213 506 2350 
Q 484 2453 437 2492 
Q 391 2531 309 2531 
Q 222 2531 100 2484 
L 53 2597 
L 916 2947 
L 1050 2947 
L 1050 2338 
z
" transform="scale(0.015625)"/>
       <path id="TimesNewRomanPSMT-62" d="M 984 2369 
Q 1400 2947 1881 2947 
Q 2322 2947 2650 2570 
Q 2978 2194 2978 1541 
Q 2978 778 2472 313 
Q 2038 -88 1503 -88 
Q 1253 -88 995 3 
Q 738 94 469 275 
L 469 3241 
Q 469 3728 445 3840 
Q 422 3953 372 3993 
Q 322 4034 247 4034 
Q 159 4034 28 3984 
L -16 4094 
L 844 4444 
L 984 4444 
L 984 2369 
z
M 984 2169 
L 984 456 
Q 1144 300 1314 220 
Q 1484 141 1663 141 
Q 1947 141 2192 453 
Q 2438 766 2438 1363 
Q 2438 1913 2192 2208 
Q 1947 2503 1634 2503 
Q 1469 2503 1303 2419 
Q 1178 2356 984 2169 
z
" transform="scale(0.015625)"/>
       <path id="TimesNewRomanPSMT-65" d="M 681 1784 
Q 678 1147 991 784 
Q 1303 422 1725 422 
Q 2006 422 2214 576 
Q 2422 731 2563 1106 
L 2659 1044 
Q 2594 616 2278 264 
Q 1963 -88 1488 -88 
Q 972 -88 605 314 
Q 238 716 238 1394 
Q 238 2128 614 2539 
Q 991 2950 1559 2950 
Q 2041 2950 2350 2633 
Q 2659 2316 2659 1784 
L 681 1784 
z
M 681 1966 
L 2006 1966 
Q 1991 2241 1941 2353 
Q 1863 2528 1708 2628 
Q 1553 2728 1384 2728 
Q 1125 2728 920 2526 
Q 716 2325 681 1966 
z
" transform="scale(0.015625)"/>
       <path id="TimesNewRomanPSMT-72" d="M 1038 2947 
L 1038 2303 
Q 1397 2947 1775 2947 
Q 1947 2947 2059 2842 
Q 2172 2738 2172 2600 
Q 2172 2478 2090 2393 
Q 2009 2309 1897 2309 
Q 1788 2309 1652 2417 
Q 1516 2525 1450 2525 
Q 1394 2525 1328 2463 
Q 1188 2334 1038 2041 
L 1038 669 
Q 1038 431 1097 309 
Q 1138 225 1241 169 
Q 1344 113 1538 113 
L 1538 0 
L 72 0 
L 72 113 
Q 291 113 397 181 
Q 475 231 506 341 
Q 522 394 522 644 
L 522 1753 
Q 522 2253 501 2348 
Q 481 2444 426 2487 
Q 372 2531 291 2531 
Q 194 2531 72 2484 
L 41 2597 
L 906 2947 
L 1038 2947 
z
" transform="scale(0.015625)"/>
       <path id="TimesNewRomanPSMT-20" transform="scale(0.015625)"/>
       <path id="TimesNewRomanPSMT-6f" d="M 1600 2947 
Q 2250 2947 2644 2453 
Q 2978 2031 2978 1484 
Q 2978 1100 2793 706 
Q 2609 313 2286 112 
Q 1963 -88 1566 -88 
Q 919 -88 538 428 
Q 216 863 216 1403 
Q 216 1797 411 2186 
Q 606 2575 925 2761 
Q 1244 2947 1600 2947 
z
M 1503 2744 
Q 1338 2744 1170 2645 
Q 1003 2547 900 2300 
Q 797 2053 797 1666 
Q 797 1041 1045 587 
Q 1294 134 1700 134 
Q 2003 134 2200 384 
Q 2397 634 2397 1244 
Q 2397 2006 2069 2444 
Q 1847 2744 1503 2744 
z
" transform="scale(0.015625)"/>
       <path id="TimesNewRomanPSMT-66" d="M 1319 2638 
L 1319 756 
Q 1319 356 1406 250 
Q 1522 113 1716 113 
L 1975 113 
L 1975 0 
L 266 0 
L 266 113 
L 394 113 
Q 519 113 622 175 
Q 725 238 764 344 
Q 803 450 803 756 
L 803 2638 
L 247 2638 
L 247 2863 
L 803 2863 
L 803 3050 
Q 803 3478 940 3775 
Q 1078 4072 1361 4255 
Q 1644 4438 1997 4438 
Q 2325 4438 2600 4225 
Q 2781 4084 2781 3909 
Q 2781 3816 2700 3733 
Q 2619 3650 2525 3650 
Q 2453 3650 2373 3701 
Q 2294 3753 2178 3923 
Q 2063 4094 1966 4153 
Q 1869 4213 1750 4213 
Q 1606 4213 1506 4136 
Q 1406 4059 1362 3898 
Q 1319 3738 1319 3069 
L 1319 2863 
L 2056 2863 
L 2056 2638 
L 1319 2638 
z
" transform="scale(0.015625)"/>
       <path id="TimesNewRomanPSMT-69" d="M 928 4444 
Q 1059 4444 1151 4351 
Q 1244 4259 1244 4128 
Q 1244 3997 1151 3903 
Q 1059 3809 928 3809 
Q 797 3809 703 3903 
Q 609 3997 609 4128 
Q 609 4259 701 4351 
Q 794 4444 928 4444 
z
M 1188 2947 
L 1188 647 
Q 1188 378 1227 289 
Q 1266 200 1342 156 
Q 1419 113 1622 113 
L 1622 0 
L 231 0 
L 231 113 
Q 441 113 512 153 
Q 584 194 626 287 
Q 669 381 669 647 
L 669 1750 
Q 669 2216 641 2353 
Q 619 2453 572 2492 
Q 525 2531 444 2531 
Q 356 2531 231 2484 
L 188 2597 
L 1050 2947 
L 1188 2947 
z
" transform="scale(0.015625)"/>
       <path id="TimesNewRomanPSMT-74" d="M 1031 3803 
L 1031 2863 
L 1700 2863 
L 1700 2644 
L 1031 2644 
L 1031 788 
Q 1031 509 1111 412 
Q 1191 316 1316 316 
Q 1419 316 1516 380 
Q 1613 444 1666 569 
L 1788 569 
Q 1678 263 1478 108 
Q 1278 -47 1066 -47 
Q 922 -47 784 33 
Q 647 113 581 261 
Q 516 409 516 719 
L 516 2644 
L 63 2644 
L 63 2747 
Q 234 2816 414 2980 
Q 594 3144 734 3369 
Q 806 3488 934 3803 
L 1031 3803 
z
" transform="scale(0.015625)"/>
       <path id="TimesNewRomanPSMT-61" d="M 1822 413 
Q 1381 72 1269 19 
Q 1100 -59 909 -59 
Q 613 -59 420 144 
Q 228 347 228 678 
Q 228 888 322 1041 
Q 450 1253 767 1440 
Q 1084 1628 1822 1897 
L 1822 2009 
Q 1822 2438 1686 2597 
Q 1550 2756 1291 2756 
Q 1094 2756 978 2650 
Q 859 2544 859 2406 
L 866 2225 
Q 866 2081 792 2003 
Q 719 1925 600 1925 
Q 484 1925 411 2006 
Q 338 2088 338 2228 
Q 338 2497 613 2722 
Q 888 2947 1384 2947 
Q 1766 2947 2009 2819 
Q 2194 2722 2281 2516 
Q 2338 2381 2338 1966 
L 2338 994 
Q 2338 584 2353 492 
Q 2369 400 2405 369 
Q 2441 338 2488 338 
Q 2538 338 2575 359 
Q 2641 400 2828 588 
L 2828 413 
Q 2478 -56 2159 -56 
Q 2006 -56 1915 50 
Q 1825 156 1822 413 
z
M 1822 616 
L 1822 1706 
Q 1350 1519 1213 1441 
Q 966 1303 859 1153 
Q 753 1003 753 825 
Q 753 600 887 451 
Q 1022 303 1197 303 
Q 1434 303 1822 616 
z
" transform="scale(0.015625)"/>
       <path id="TimesNewRomanPSMT-6e" d="M 1034 2341 
Q 1538 2947 1994 2947 
Q 2228 2947 2397 2830 
Q 2566 2713 2666 2444 
Q 2734 2256 2734 1869 
L 2734 647 
Q 2734 375 2778 278 
Q 2813 200 2889 156 
Q 2966 113 3172 113 
L 3172 0 
L 1756 0 
L 1756 113 
L 1816 113 
Q 2016 113 2095 173 
Q 2175 234 2206 353 
Q 2219 400 2219 647 
L 2219 1819 
Q 2219 2209 2117 2386 
Q 2016 2563 1775 2563 
Q 1403 2563 1034 2156 
L 1034 647 
Q 1034 356 1069 288 
Q 1113 197 1189 155 
Q 1266 113 1500 113 
L 1500 0 
L 84 0 
L 84 113 
L 147 113 
Q 366 113 442 223 
Q 519 334 519 647 
L 519 1709 
Q 519 2225 495 2337 
Q 472 2450 423 2490 
Q 375 2531 294 2531 
Q 206 2531 84 2484 
L 38 2597 
L 900 2947 
L 1034 2947 
L 1034 2341 
z
" transform="scale(0.015625)"/>
       <path id="TimesNewRomanPSMT-73" d="M 2050 2947 
L 2050 1972 
L 1947 1972 
Q 1828 2431 1642 2597 
Q 1456 2763 1169 2763 
Q 950 2763 815 2647 
Q 681 2531 681 2391 
Q 681 2216 781 2091 
Q 878 1963 1175 1819 
L 1631 1597 
Q 2266 1288 2266 781 
Q 2266 391 1970 151 
Q 1675 -88 1309 -88 
Q 1047 -88 709 6 
Q 606 38 541 38 
Q 469 38 428 -44 
L 325 -44 
L 325 978 
L 428 978 
Q 516 541 762 319 
Q 1009 97 1316 97 
Q 1531 97 1667 223 
Q 1803 350 1803 528 
Q 1803 744 1651 891 
Q 1500 1038 1047 1263 
Q 594 1488 453 1669 
Q 313 1847 313 2119 
Q 313 2472 555 2709 
Q 797 2947 1181 2947 
Q 1350 2947 1591 2875 
Q 1750 2828 1803 2828 
Q 1853 2828 1881 2850 
Q 1909 2872 1947 2947 
L 2050 2947 
z
" transform="scale(0.015625)"/>
      </defs>
      <use xlink:href="#TimesNewRomanPSMT-4e"/>
      <use xlink:href="#TimesNewRomanPSMT-75" transform="translate(72.216797 0)"/>
      <use xlink:href="#TimesNewRomanPSMT-6d" transform="translate(122.216797 0)"/>
      <use xlink:href="#TimesNewRomanPSMT-62" transform="translate(200 0)"/>
      <use xlink:href="#TimesNewRomanPSMT-65" transform="translate(250 0)"/>
      <use xlink:href="#TimesNewRomanPSMT-72" transform="translate(294.384766 0)"/>
      <use xlink:href="#TimesNewRomanPSMT-20" transform="translate(327.685547 0)"/>
      <use xlink:href="#TimesNewRomanPSMT-6f" transform="translate(352.685547 0)"/>
      <use xlink:href="#TimesNewRomanPSMT-66" transform="translate(402.685547 0)"/>
      <use xlink:href="#TimesNewRomanPSMT-20" transform="translate(435.986328 0)"/>
      <use xlink:href="#TimesNewRomanPSMT-69" transform="translate(460.986328 0)"/>
      <use xlink:href="#TimesNewRomanPSMT-74" transform="translate(488.769531 0)"/>
      <use xlink:href="#TimesNewRomanPSMT-65" transform="translate(516.552734 0)"/>
      <use xlink:href="#TimesNewRomanPSMT-72" transform="translate(560.9375 0)"/>
      <use xlink:href="#TimesNewRomanPSMT-61" transform="translate(594.238281 0)"/>
      <use xlink:href="#TimesNewRomanPSMT-74" transform="translate(638.623047 0)"/>
      <use xlink:href="#TimesNewRomanPSMT-69" transform="translate(666.40625 0)"/>
      <use xlink:href="#TimesNewRomanPSMT-6f" transform="translate(694.189453 0)"/>
      <use xlink:href="#TimesNewRomanPSMT-6e" transform="translate(744.189453 0)"/>
      <use xlink:href="#TimesNewRomanPSMT-73" transform="translate(794.189453 0)"/>
     </g>
    </g>
   </g>
   <g id="matplotlib.axis_2">
    <g id="ytick_1">
     <g id="line2d_11">
      <path d="M 329.994563 311.6435 
L 687.114563 311.6435 
" clip-path="url(#pbcd7a75a10)" style="fill: none; stroke: #b0b0b0; stroke-opacity: 0.3; stroke-width: 0.8; stroke-linecap: square"/>
     </g>
     <g id="line2d_12">
      <defs>
       <path id="mdf024e2421" d="M 0 0 
L -3.5 0 
" style="stroke: #000000; stroke-width: 0.8"/>
      </defs>
      <g>
       <use xlink:href="#mdf024e2421" x="329.994563" y="311.6435" style="stroke: #000000; stroke-width: 0.8"/>
      </g>
     </g>
     <g id="text_7">
      <!-- 0.0 -->
      <g transform="translate(295.494563 319.281625) scale(0.22 -0.22)">
       <defs>
        <path id="TimesNewRomanPSMT-2e" d="M 800 606 
Q 947 606 1047 504 
Q 1147 403 1147 259 
Q 1147 116 1045 14 
Q 944 -88 800 -88 
Q 656 -88 554 14 
Q 453 116 453 259 
Q 453 406 554 506 
Q 656 606 800 606 
z
" transform="scale(0.015625)"/>
       </defs>
       <use xlink:href="#TimesNewRomanPSMT-30"/>
       <use xlink:href="#TimesNewRomanPSMT-2e" transform="translate(50 0)"/>
       <use xlink:href="#TimesNewRomanPSMT-30" transform="translate(75 0)"/>
      </g>
     </g>
    </g>
    <g id="ytick_2">
     <g id="line2d_13">
      <path d="M 329.994563 285.0323 
L 687.114563 285.0323 
" clip-path="url(#pbcd7a75a10)" style="fill: none; stroke: #b0b0b0; stroke-opacity: 0.3; stroke-width: 0.8; stroke-linecap: square"/>
     </g>
     <g id="line2d_14">
      <g>
       <use xlink:href="#mdf024e2421" x="329.994563" y="285.0323" style="stroke: #000000; stroke-width: 0.8"/>
      </g>
     </g>
     <g id="text_8">
      <!-- 0.1 -->
      <g transform="translate(295.494563 292.670425) scale(0.22 -0.22)">
       <use xlink:href="#TimesNewRomanPSMT-30"/>
       <use xlink:href="#TimesNewRomanPSMT-2e" transform="translate(50 0)"/>
       <use xlink:href="#TimesNewRomanPSMT-31" transform="translate(75 0)"/>
      </g>
     </g>
    </g>
    <g id="ytick_3">
     <g id="line2d_15">
      <path d="M 329.994563 258.4211 
L 687.114563 258.4211 
" clip-path="url(#pbcd7a75a10)" style="fill: none; stroke: #b0b0b0; stroke-opacity: 0.3; stroke-width: 0.8; stroke-linecap: square"/>
     </g>
     <g id="line2d_16">
      <g>
       <use xlink:href="#mdf024e2421" x="329.994563" y="258.4211" style="stroke: #000000; stroke-width: 0.8"/>
      </g>
     </g>
     <g id="text_9">
      <!-- 0.2 -->
      <g transform="translate(295.494563 266.059225) scale(0.22 -0.22)">
       <use xlink:href="#TimesNewRomanPSMT-30"/>
       <use xlink:href="#TimesNewRomanPSMT-2e" transform="translate(50 0)"/>
       <use xlink:href="#TimesNewRomanPSMT-32" transform="translate(75 0)"/>
      </g>
     </g>
    </g>
    <g id="ytick_4">
     <g id="line2d_17">
      <path d="M 329.994563 231.8099 
L 687.114563 231.8099 
" clip-path="url(#pbcd7a75a10)" style="fill: none; stroke: #b0b0b0; stroke-opacity: 0.3; stroke-width: 0.8; stroke-linecap: square"/>
     </g>
     <g id="line2d_18">
      <g>
       <use xlink:href="#mdf024e2421" x="329.994563" y="231.8099" style="stroke: #000000; stroke-width: 0.8"/>
      </g>
     </g>
     <g id="text_10">
      <!-- 0.3 -->
      <g transform="translate(295.494563 239.448025) scale(0.22 -0.22)">
       <defs>
        <path id="TimesNewRomanPSMT-33" d="M 325 3431 
Q 506 3859 782 4092 
Q 1059 4325 1472 4325 
Q 1981 4325 2253 3994 
Q 2459 3747 2459 3466 
Q 2459 3003 1878 2509 
Q 2269 2356 2469 2072 
Q 2669 1788 2669 1403 
Q 2669 853 2319 450 
Q 1863 -75 997 -75 
Q 569 -75 414 31 
Q 259 138 259 259 
Q 259 350 332 419 
Q 406 488 509 488 
Q 588 488 669 463 
Q 722 447 909 348 
Q 1097 250 1169 231 
Q 1284 197 1416 197 
Q 1734 197 1970 444 
Q 2206 691 2206 1028 
Q 2206 1275 2097 1509 
Q 2016 1684 1919 1775 
Q 1784 1900 1550 2001 
Q 1316 2103 1072 2103 
L 972 2103 
L 972 2197 
Q 1219 2228 1467 2375 
Q 1716 2522 1828 2728 
Q 1941 2934 1941 3181 
Q 1941 3503 1739 3701 
Q 1538 3900 1238 3900 
Q 753 3900 428 3381 
L 325 3431 
z
" transform="scale(0.015625)"/>
       </defs>
       <use xlink:href="#TimesNewRomanPSMT-30"/>
       <use xlink:href="#TimesNewRomanPSMT-2e" transform="translate(50 0)"/>
       <use xlink:href="#TimesNewRomanPSMT-33" transform="translate(75 0)"/>
      </g>
     </g>
    </g>
    <g id="ytick_5">
     <g id="line2d_19">
      <path d="M 329.994563 205.1987 
L 687.114563 205.1987 
" clip-path="url(#pbcd7a75a10)" style="fill: none; stroke: #b0b0b0; stroke-opacity: 0.3; stroke-width: 0.8; stroke-linecap: square"/>
     </g>
     <g id="line2d_20">
      <g>
       <use xlink:href="#mdf024e2421" x="329.994563" y="205.1987" style="stroke: #000000; stroke-width: 0.8"/>
      </g>
     </g>
     <g id="text_11">
      <!-- 0.4 -->
      <g transform="translate(295.494563 212.836825) scale(0.22 -0.22)">
       <defs>
        <path id="TimesNewRomanPSMT-34" d="M 2978 1563 
L 2978 1119 
L 2409 1119 
L 2409 0 
L 1894 0 
L 1894 1119 
L 100 1119 
L 100 1519 
L 2066 4325 
L 2409 4325 
L 2409 1563 
L 2978 1563 
z
M 1894 1563 
L 1894 3666 
L 406 1563 
L 1894 1563 
z
" transform="scale(0.015625)"/>
       </defs>
       <use xlink:href="#TimesNewRomanPSMT-30"/>
       <use xlink:href="#TimesNewRomanPSMT-2e" transform="translate(50 0)"/>
       <use xlink:href="#TimesNewRomanPSMT-34" transform="translate(75 0)"/>
      </g>
     </g>
    </g>
    <g id="ytick_6">
     <g id="line2d_21">
      <path d="M 329.994563 178.5875 
L 687.114563 178.5875 
" clip-path="url(#pbcd7a75a10)" style="fill: none; stroke: #b0b0b0; stroke-opacity: 0.3; stroke-width: 0.8; stroke-linecap: square"/>
     </g>
     <g id="line2d_22">
      <g>
       <use xlink:href="#mdf024e2421" x="329.994563" y="178.5875" style="stroke: #000000; stroke-width: 0.8"/>
      </g>
     </g>
     <g id="text_12">
      <!-- 0.5 -->
      <g transform="translate(295.494563 186.225625) scale(0.22 -0.22)">
       <use xlink:href="#TimesNewRomanPSMT-30"/>
       <use xlink:href="#TimesNewRomanPSMT-2e" transform="translate(50 0)"/>
       <use xlink:href="#TimesNewRomanPSMT-35" transform="translate(75 0)"/>
      </g>
     </g>
    </g>
    <g id="ytick_7">
     <g id="line2d_23">
      <path d="M 329.994563 151.9763 
L 687.114563 151.9763 
" clip-path="url(#pbcd7a75a10)" style="fill: none; stroke: #b0b0b0; stroke-opacity: 0.3; stroke-width: 0.8; stroke-linecap: square"/>
     </g>
     <g id="line2d_24">
      <g>
       <use xlink:href="#mdf024e2421" x="329.994563" y="151.9763" style="stroke: #000000; stroke-width: 0.8"/>
      </g>
     </g>
     <g id="text_13">
      <!-- 0.6 -->
      <g transform="translate(295.494563 159.614425) scale(0.22 -0.22)">
       <defs>
        <path id="TimesNewRomanPSMT-36" d="M 2869 4325 
L 2869 4209 
Q 2456 4169 2195 4045 
Q 1934 3922 1679 3669 
Q 1425 3416 1258 3105 
Q 1091 2794 978 2366 
Q 1428 2675 1881 2675 
Q 2316 2675 2634 2325 
Q 2953 1975 2953 1425 
Q 2953 894 2631 456 
Q 2244 -75 1606 -75 
Q 1172 -75 869 213 
Q 275 772 275 1663 
Q 275 2231 503 2743 
Q 731 3256 1154 3653 
Q 1578 4050 1965 4187 
Q 2353 4325 2688 4325 
L 2869 4325 
z
M 925 2138 
Q 869 1716 869 1456 
Q 869 1156 980 804 
Q 1091 453 1309 247 
Q 1469 100 1697 100 
Q 1969 100 2183 356 
Q 2397 613 2397 1088 
Q 2397 1622 2184 2012 
Q 1972 2403 1581 2403 
Q 1463 2403 1327 2353 
Q 1191 2303 925 2138 
z
" transform="scale(0.015625)"/>
       </defs>
       <use xlink:href="#TimesNewRomanPSMT-30"/>
       <use xlink:href="#TimesNewRomanPSMT-2e" transform="translate(50 0)"/>
       <use xlink:href="#TimesNewRomanPSMT-36" transform="translate(75 0)"/>
      </g>
     </g>
    </g>
    <g id="ytick_8">
     <g id="line2d_25">
      <path d="M 329.994563 125.3651 
L 687.114563 125.3651 
" clip-path="url(#pbcd7a75a10)" style="fill: none; stroke: #b0b0b0; stroke-opacity: 0.3; stroke-width: 0.8; stroke-linecap: square"/>
     </g>
     <g id="line2d_26">
      <g>
       <use xlink:href="#mdf024e2421" x="329.994563" y="125.3651" style="stroke: #000000; stroke-width: 0.8"/>
      </g>
     </g>
     <g id="text_14">
      <!-- 0.7 -->
      <g transform="translate(295.494563 133.003225) scale(0.22 -0.22)">
       <use xlink:href="#TimesNewRomanPSMT-30"/>
       <use xlink:href="#TimesNewRomanPSMT-2e" transform="translate(50 0)"/>
       <use xlink:href="#TimesNewRomanPSMT-37" transform="translate(75 0)"/>
      </g>
     </g>
    </g>
    <g id="ytick_9">
     <g id="line2d_27">
      <path d="M 329.994563 98.7539 
L 687.114563 98.7539 
" clip-path="url(#pbcd7a75a10)" style="fill: none; stroke: #b0b0b0; stroke-opacity: 0.3; stroke-width: 0.8; stroke-linecap: square"/>
     </g>
     <g id="line2d_28">
      <g>
       <use xlink:href="#mdf024e2421" x="329.994563" y="98.7539" style="stroke: #000000; stroke-width: 0.8"/>
      </g>
     </g>
     <g id="text_15">
      <!-- 0.8 -->
      <g transform="translate(295.494563 106.392025) scale(0.22 -0.22)">
       <defs>
        <path id="TimesNewRomanPSMT-38" d="M 1228 2134 
Q 725 2547 579 2797 
Q 434 3047 434 3316 
Q 434 3728 753 4026 
Q 1072 4325 1600 4325 
Q 2113 4325 2425 4047 
Q 2738 3769 2738 3413 
Q 2738 3175 2569 2928 
Q 2400 2681 1866 2347 
Q 2416 1922 2594 1678 
Q 2831 1359 2831 1006 
Q 2831 559 2490 242 
Q 2150 -75 1597 -75 
Q 994 -75 656 303 
Q 388 606 388 966 
Q 388 1247 577 1523 
Q 766 1800 1228 2134 
z
M 1719 2469 
Q 2094 2806 2194 3001 
Q 2294 3197 2294 3444 
Q 2294 3772 2109 3958 
Q 1925 4144 1606 4144 
Q 1288 4144 1088 3959 
Q 888 3775 888 3528 
Q 888 3366 970 3203 
Q 1053 3041 1206 2894 
L 1719 2469 
z
M 1375 2016 
Q 1116 1797 991 1539 
Q 866 1281 866 981 
Q 866 578 1086 336 
Q 1306 94 1647 94 
Q 1984 94 2187 284 
Q 2391 475 2391 747 
Q 2391 972 2272 1150 
Q 2050 1481 1375 2016 
z
" transform="scale(0.015625)"/>
       </defs>
       <use xlink:href="#TimesNewRomanPSMT-30"/>
       <use xlink:href="#TimesNewRomanPSMT-2e" transform="translate(50 0)"/>
       <use xlink:href="#TimesNewRomanPSMT-38" transform="translate(75 0)"/>
      </g>
     </g>
    </g>
    <g id="ytick_10">
     <g id="line2d_29">
      <path d="M 329.994563 72.1427 
L 687.114563 72.1427 
" clip-path="url(#pbcd7a75a10)" style="fill: none; stroke: #b0b0b0; stroke-opacity: 0.3; stroke-width: 0.8; stroke-linecap: square"/>
     </g>
     <g id="line2d_30">
      <g>
       <use xlink:href="#mdf024e2421" x="329.994563" y="72.1427" style="stroke: #000000; stroke-width: 0.8"/>
      </g>
     </g>
     <g id="text_16">
      <!-- 0.9 -->
      <g transform="translate(295.494563 79.780825) scale(0.22 -0.22)">
       <defs>
        <path id="TimesNewRomanPSMT-39" d="M 338 -88 
L 338 28 
Q 744 34 1094 217 
Q 1444 400 1770 856 
Q 2097 1313 2225 1859 
Q 1734 1544 1338 1544 
Q 891 1544 572 1889 
Q 253 2234 253 2806 
Q 253 3363 572 3797 
Q 956 4325 1575 4325 
Q 2097 4325 2469 3894 
Q 2925 3359 2925 2575 
Q 2925 1869 2578 1258 
Q 2231 647 1613 244 
Q 1109 -88 516 -88 
L 338 -88 
z
M 2275 2091 
Q 2331 2497 2331 2741 
Q 2331 3044 2228 3395 
Q 2125 3747 1936 3934 
Q 1747 4122 1506 4122 
Q 1228 4122 1018 3872 
Q 809 3622 809 3128 
Q 809 2469 1088 2097 
Q 1291 1828 1588 1828 
Q 1731 1828 1928 1897 
Q 2125 1966 2275 2091 
z
" transform="scale(0.015625)"/>
       </defs>
       <use xlink:href="#TimesNewRomanPSMT-30"/>
       <use xlink:href="#TimesNewRomanPSMT-2e" transform="translate(50 0)"/>
       <use xlink:href="#TimesNewRomanPSMT-39" transform="translate(75 0)"/>
      </g>
     </g>
    </g>
    <g id="ytick_11">
     <g id="line2d_31">
      <path d="M 329.994563 45.5315 
L 687.114563 45.5315 
" clip-path="url(#pbcd7a75a10)" style="fill: none; stroke: #b0b0b0; stroke-opacity: 0.3; stroke-width: 0.8; stroke-linecap: square"/>
     </g>
     <g id="line2d_32">
      <g>
       <use xlink:href="#mdf024e2421" x="329.994563" y="45.5315" style="stroke: #000000; stroke-width: 0.8"/>
      </g>
     </g>
     <g id="text_17">
      <!-- 1.0 -->
      <g transform="translate(295.494563 53.169625) scale(0.22 -0.22)">
       <use xlink:href="#TimesNewRomanPSMT-31"/>
       <use xlink:href="#TimesNewRomanPSMT-2e" transform="translate(50 0)"/>
       <use xlink:href="#TimesNewRomanPSMT-30" transform="translate(75 0)"/>
      </g>
     </g>
    </g>
    <g id="text_18">
     <!-- Accuracy -->
     <g transform="translate(286.747375 220.726094) rotate(-90) scale(0.22 -0.22)">
      <defs>
       <path id="TimesNewRomanPSMT-41" d="M 2928 1419 
L 1288 1419 
L 1000 750 
Q 894 503 894 381 
Q 894 284 986 211 
Q 1078 138 1384 116 
L 1384 0 
L 50 0 
L 50 116 
Q 316 163 394 238 
Q 553 388 747 847 
L 2238 4334 
L 2347 4334 
L 3822 809 
Q 4000 384 4145 257 
Q 4291 131 4550 116 
L 4550 0 
L 2878 0 
L 2878 116 
Q 3131 128 3220 200 
Q 3309 272 3309 375 
Q 3309 513 3184 809 
L 2928 1419 
z
M 2841 1650 
L 2122 3363 
L 1384 1650 
L 2841 1650 
z
" transform="scale(0.015625)"/>
       <path id="TimesNewRomanPSMT-63" d="M 2631 1088 
Q 2516 522 2178 217 
Q 1841 -88 1431 -88 
Q 944 -88 581 321 
Q 219 731 219 1428 
Q 219 2103 620 2525 
Q 1022 2947 1584 2947 
Q 2006 2947 2278 2723 
Q 2550 2500 2550 2259 
Q 2550 2141 2473 2067 
Q 2397 1994 2259 1994 
Q 2075 1994 1981 2113 
Q 1928 2178 1911 2362 
Q 1894 2547 1784 2644 
Q 1675 2738 1481 2738 
Q 1169 2738 978 2506 
Q 725 2200 725 1697 
Q 725 1184 976 792 
Q 1228 400 1656 400 
Q 1963 400 2206 609 
Q 2378 753 2541 1131 
L 2631 1088 
z
" transform="scale(0.015625)"/>
       <path id="TimesNewRomanPSMT-79" d="M 38 2863 
L 1372 2863 
L 1372 2747 
L 1306 2747 
Q 1166 2747 1095 2686 
Q 1025 2625 1025 2534 
Q 1025 2413 1128 2197 
L 1825 753 
L 2466 2334 
Q 2519 2463 2519 2588 
Q 2519 2644 2497 2672 
Q 2472 2706 2419 2726 
Q 2366 2747 2231 2747 
L 2231 2863 
L 3163 2863 
L 3163 2747 
Q 3047 2734 2984 2696 
Q 2922 2659 2847 2556 
Q 2819 2513 2741 2316 
L 1575 -541 
Q 1406 -956 1132 -1168 
Q 859 -1381 606 -1381 
Q 422 -1381 303 -1275 
Q 184 -1169 184 -1031 
Q 184 -900 270 -820 
Q 356 -741 506 -741 
Q 609 -741 788 -809 
Q 913 -856 944 -856 
Q 1038 -856 1148 -759 
Q 1259 -663 1372 -384 
L 1575 113 
L 547 2272 
Q 500 2369 397 2513 
Q 319 2622 269 2659 
Q 197 2709 38 2747 
L 38 2863 
z
" transform="scale(0.015625)"/>
      </defs>
      <use xlink:href="#TimesNewRomanPSMT-41"/>
      <use xlink:href="#TimesNewRomanPSMT-63" transform="translate(72.216797 0)"/>
      <use xlink:href="#TimesNewRomanPSMT-63" transform="translate(116.601562 0)"/>
      <use xlink:href="#TimesNewRomanPSMT-75" transform="translate(160.986328 0)"/>
      <use xlink:href="#TimesNewRomanPSMT-72" transform="translate(210.986328 0)"/>
      <use xlink:href="#TimesNewRomanPSMT-61" transform="translate(244.287109 0)"/>
      <use xlink:href="#TimesNewRomanPSMT-63" transform="translate(288.671875 0)"/>
      <use xlink:href="#TimesNewRomanPSMT-79" transform="translate(333.056641 0)"/>
     </g>
    </g>
   </g>
   <g id="line2d_33">
    <path d="M 329.994563 178.543151 
L 330.341955 148.768176 
L 330.689348 146.358384 
L 331.036741 146.180973 
L 331.384134 144.229484 
L 331.731527 143.564205 
L 332.07892 144.968678 
L 332.773706 142.499754 
L 333.121099 142.189297 
L 333.468492 142.159715 
L 333.815885 142.484972 
L 334.510671 140.84394 
L 334.858064 141.154413 
L 335.205457 141.657064 
L 335.55285 141.36139 
L 335.900243 140.311722 
L 336.247636 140.311722 
L 336.595029 141.183979 
L 337.984601 139.690792 
L 338.331994 138.877667 
L 338.679387 139.779505 
L 339.02678 139.602094 
L 339.374173 138.89245 
L 339.721566 139.173358 
L 340.416352 139.247272 
L 340.763745 139.247272 
L 341.111138 140.370854 
L 341.458531 139.528164 
L 341.805924 138.995947 
L 342.153317 138.227171 
L 342.50071 138.301101 
L 342.848103 139.232489 
L 343.195496 138.508078 
L 343.890282 137.813233 
L 344.237675 138.508078 
L 344.585068 138.315884 
L 345.279854 137.754085 
L 345.627247 137.650605 
L 345.97464 138.212388 
L 346.322033 138.995947 
L 346.669426 137.310566 
L 347.016819 136.541806 
L 348.058998 136.275697 
L 348.406391 137.118372 
L 348.753784 138.641125 
L 349.101177 137.133155 
L 349.44857 136.852263 
L 349.795963 136.068721 
L 350.143356 136.541806 
L 351.185535 136.689635 
L 351.532928 137.266217 
L 351.880321 136.896612 
L 352.227714 134.989488 
L 352.575107 135.728682 
L 352.9225 135.551271 
L 353.269893 135.728682 
L 353.617286 136.320046 
L 353.964679 135.802596 
L 354.312072 136.778349 
L 354.659465 136.734 
L 355.006858 134.93034 
L 355.354251 136.926194 
L 355.701644 136.734 
L 356.049037 135.580836 
L 356.743823 136.231333 
L 357.091216 134.959922 
L 357.438609 134.575534 
L 357.786002 136.305263 
L 358.133395 135.107751 
L 358.480788 135.063402 
L 358.828181 134.398123 
L 359.175574 134.575534 
L 359.522967 136.674852 
L 359.87036 136.334829 
L 360.217753 134.102448 
L 360.565146 135.89131 
L 360.912539 134.442472 
L 361.259932 134.974705 
L 361.607325 134.250278 
L 361.954718 134.16158 
L 362.302111 134.48682 
L 362.649504 135.462573 
L 362.996897 137.399279 
L 363.34429 135.462573 
L 363.691683 135.285162 
L 364.039076 134.265061 
L 364.386469 135.092968 
L 364.733862 135.566053 
L 365.081255 135.137317 
L 365.428648 135.906093 
L 365.776041 136.334829 
L 366.123434 133.747626 
L 366.470827 135.048619 
L 367.165613 135.580836 
L 367.513006 135.181681 
L 367.860399 135.920875 
L 368.555185 134.679014 
L 368.902578 133.437169 
L 369.249971 135.270379 
L 369.597364 135.728682 
L 369.944757 134.457255 
L 370.29215 135.063402 
L 370.639543 136.778349 
L 370.986936 136.408744 
L 371.334329 137.591473 
L 371.681722 135.122534 
L 372.029115 135.699116 
L 372.723901 135.122534 
L 373.071294 135.240813 
L 373.418687 135.77303 
L 374.113473 134.782511 
L 374.460866 135.418224 
L 375.155652 136.157418 
L 375.503045 135.743464 
L 375.850438 134.945123 
L 376.197831 135.462573 
L 376.545224 135.181681 
L 376.892617 134.501603 
L 377.24001 134.959922 
L 377.587403 135.610402 
L 377.934796 136.571372 
L 378.282189 137.029674 
L 378.629582 134.48682 
L 378.976975 135.521705 
L 379.324368 135.595619 
L 379.671761 134.560751 
L 380.019154 134.516386 
L 380.366547 136.408744 
L 380.71394 134.235495 
L 381.061333 135.211247 
L 381.408726 135.048619 
L 381.756119 134.619883 
L 382.103512 134.560751 
L 382.450905 134.087665 
L 383.145691 135.580836 
L 383.493084 138.094125 
L 383.840477 135.66955 
L 384.535263 134.619883 
L 384.882656 135.196464 
L 385.230049 133.688495 
L 385.577442 135.1521 
L 385.924835 133.895471 
L 386.272228 134.191146 
L 387.314407 135.802596 
L 387.6618 138.404582 
L 388.009193 136.689635 
L 388.356586 133.865906 
L 388.703979 135.285162 
L 389.051372 134.915557 
L 389.398765 135.787813 
L 389.746158 134.738162 
L 390.440944 134.176363 
L 390.788337 134.398123 
L 391.13573 133.629347 
L 391.483123 133.910254 
L 391.830516 134.560751 
L 392.177909 133.215409 
L 392.525302 133.925037 
L 392.872695 133.732843 
L 393.567481 135.285162 
L 393.914874 133.451952 
L 394.262267 134.501603 
L 394.60966 134.693797 
L 394.957053 133.762409 
L 395.304446 133.289324 
L 395.651839 133.09713 
L 395.999232 133.673712 
L 396.694018 133.42237 
L 397.041411 133.570215 
L 397.388804 134.501603 
L 397.736197 133.466735 
L 398.08359 134.649448 
L 398.430983 133.644146 
L 398.778376 133.93982 
L 399.125769 136.186984 
L 399.820555 133.673712 
L 400.167948 133.244975 
L 400.515341 133.644146 
L 400.862734 133.304107 
L 401.210127 133.688495 
L 401.55752 133.289324 
L 401.904913 134.013735 
L 402.252306 135.477356 
L 402.599699 135.285162 
L 402.947092 136.43831 
L 403.294485 135.403441 
L 403.641878 133.407587 
L 403.989271 133.644146 
L 404.684057 134.294626 
L 405.03145 135.019053 
L 405.378843 133.703278 
L 406.421022 133.762409 
L 406.768415 133.644146 
L 407.115808 132.993649 
L 407.463201 133.42237 
L 407.810594 134.974705 
L 408.157987 132.934502 
L 408.50538 133.71806 
L 408.852773 135.462573 
L 409.200166 133.466735 
L 409.547559 132.978851 
L 409.894952 132.727525 
L 410.242345 134.191146 
L 410.589738 132.668393 
L 410.937131 132.978851 
L 411.284524 133.614564 
L 411.631917 133.747626 
L 411.97931 133.688495 
L 412.326703 133.762409 
L 412.674096 133.644146 
L 413.021489 133.93982 
L 413.368882 132.313571 
L 413.716275 133.777192 
L 414.063668 133.570215 
L 414.411061 133.791975 
L 414.758454 136.083504 
L 415.105847 135.99479 
L 415.45324 133.599781 
L 415.800633 133.348456 
L 416.495419 132.313571 
L 416.842812 133.378021 
L 417.190205 132.964068 
L 417.537598 132.180525 
L 418.232384 133.052781 
L 418.579777 134.353774 
L 419.274563 132.742308 
L 419.621955 133.363238 
L 419.969348 132.697959 
L 420.316741 134.959922 
L 420.664134 133.747626 
L 421.011527 136.541806 
L 421.35892 137.029674 
L 421.706313 136.172201 
L 422.053706 136.379178 
L 422.401099 137.133155 
L 422.748492 134.974705 
L 423.095885 133.851107 
L 423.443278 134.309425 
L 424.138064 136.881829 
L 424.485457 136.911395 
L 424.83285 135.610402 
L 425.180243 135.329511 
L 425.527636 134.782511 
L 425.875029 134.679014 
L 426.569815 135.965224 
L 426.917208 135.255596 
L 427.264601 136.393961 
L 427.611994 133.688495 
L 427.959387 136.246116 
L 428.30678 134.812077 
L 428.654173 136.201767 
L 429.001566 136.556589 
L 429.348959 135.832178 
L 429.696352 134.294626 
L 430.043745 135.211247 
L 430.391138 134.812077 
L 430.738531 134.70858 
L 431.085924 134.472037 
L 431.433317 136.009573 
L 431.78071 136.497457 
L 432.128103 135.595619 
L 432.475496 135.166883 
L 432.822889 134.087665 
L 433.170282 134.693797 
L 433.517675 135.00427 
L 433.865068 136.852263 
L 434.907247 134.457255 
L 435.25464 134.220712 
L 435.602033 135.063402 
L 435.949426 133.067564 
L 436.296819 132.683176 
L 436.644212 134.575534 
L 436.991605 134.767728 
L 437.338998 133.895471 
L 437.686391 134.738162 
L 438.033784 137.517543 
L 438.381177 135.832178 
L 438.72857 135.536488 
L 439.075963 137.591473 
L 439.423356 135.37386 
L 439.770749 137.207085 
L 440.118142 134.738162 
L 440.465535 136.393961 
L 440.812928 136.556589 
L 441.160321 137.014891 
L 441.507714 135.37386 
L 441.855107 137.088806 
L 442.2025 136.231333 
L 442.549893 136.024356 
L 442.897286 134.915557 
L 443.244679 134.279843 
L 443.592072 137.147954 
L 443.939465 136.704418 
L 444.286858 134.93034 
L 444.634251 135.181681 
L 444.981644 135.580836 
L 445.329037 134.117231 
L 445.67643 133.747626 
L 446.023823 133.865906 
L 446.371216 132.047463 
L 446.718609 134.752945 
L 447.066002 133.437169 
L 447.760788 136.51224 
L 448.108181 136.260899 
L 448.455574 135.019053 
L 448.802967 134.841642 
L 449.497753 136.21655 
L 449.845146 135.344294 
L 450.192539 134.146797 
L 450.887325 135.477356 
L 451.234718 135.758247 
L 451.582111 135.758247 
L 451.929504 135.477356 
L 452.276897 137.05924 
L 452.62429 134.738162 
L 452.971683 133.954603 
L 453.319076 136.157418 
L 453.666469 136.704418 
L 454.013862 134.885991 
L 454.361255 134.176363 
L 454.708648 134.132014 
L 455.056041 133.244975 
L 456.09822 132.845804 
L 456.445613 133.363238 
L 456.793006 135.285162 
L 457.140399 135.492139 
L 457.487792 135.240813 
L 457.835185 136.453093 
L 458.182578 137.221868 
L 458.529971 134.235495 
L 458.877364 134.16158 
L 459.224757 133.93982 
L 459.57215 136.734 
L 459.919543 136.911395 
L 460.266936 136.201767 
L 460.614329 136.142635 
L 461.309115 135.344294 
L 461.656508 135.743464 
L 462.003901 135.832178 
L 462.351294 136.497457 
L 462.698687 136.393961 
L 463.04608 135.758247 
L 463.393473 136.21655 
L 463.740866 136.246116 
L 464.088259 133.703278 
L 464.435652 136.586155 
L 464.783045 136.083504 
L 465.130438 136.068721 
L 465.477831 135.832178 
L 465.825224 134.70858 
L 466.172617 134.294626 
L 466.52001 136.527023 
L 467.214796 134.575534 
L 467.562189 135.403441 
L 467.909582 135.77303 
L 468.256975 135.107751 
L 468.604368 137.103589 
L 468.951761 135.359077 
L 469.299154 136.009573 
L 469.646547 136.157418 
L 469.99394 135.536488 
L 470.341333 136.024356 
L 470.688726 133.215409 
L 471.036119 132.55013 
L 471.383512 132.816238 
L 472.425691 134.649448 
L 472.773084 133.215409 
L 473.120477 133.895471 
L 473.46787 133.008432 
L 473.815263 134.693797 
L 474.162656 137.798434 
L 474.510049 134.945123 
L 475.204835 136.940977 
L 475.552228 134.871208 
L 475.899621 135.536488 
L 476.247014 134.93034 
L 476.594407 135.418224 
L 476.9418 134.6051 
L 477.636586 134.93034 
L 477.983979 136.21655 
L 478.331372 135.876527 
L 478.678765 135.89131 
L 479.026158 136.260899 
L 479.373551 137.000109 
L 479.720944 134.738162 
L 480.068337 135.639984 
L 480.41573 135.462573 
L 480.763123 135.122534 
L 481.110516 136.172201 
L 481.457909 132.860587 
L 481.805302 133.496301 
L 482.152695 132.978851 
L 482.500088 133.20061 
L 482.847481 136.113069 
L 483.194874 135.906093 
L 483.542267 134.782511 
L 484.237053 137.399279 
L 484.584446 135.00427 
L 484.931839 136.157418 
L 485.279232 137.798434 
L 485.626625 135.684333 
L 485.974018 135.728682 
L 486.321411 134.6051 
L 486.668804 136.29048 
L 487.016197 136.201767 
L 487.36359 136.600938 
L 487.710983 134.974705 
L 488.058376 134.398123 
L 488.405769 134.457255 
L 488.753162 134.220712 
L 489.100555 132.87537 
L 489.447948 132.845804 
L 489.795341 133.023215 
L 490.142734 132.949285 
L 490.490127 133.333673 
L 490.83752 134.516386 
L 491.184913 137.369713 
L 491.532306 137.281 
L 491.879699 135.166883 
L 492.574485 137.828016 
L 492.921878 136.201767 
L 493.269271 135.181681 
L 493.616664 136.246116 
L 493.964057 135.713899 
L 494.31145 135.832178 
L 494.658843 135.211247 
L 495.006236 136.379178 
L 495.353629 135.211247 
L 495.701022 136.748783 
L 496.048415 135.078185 
L 496.395808 135.270379 
L 496.743201 134.043301 
L 497.090594 133.658929 
L 497.437987 134.442472 
L 498.132773 132.786673 
L 498.480166 133.407587 
L 498.827559 133.599781 
L 499.174952 132.934502 
L 499.522345 135.580836 
L 499.869738 137.074023 
L 500.217131 134.634666 
L 500.911917 137.310566 
L 501.25931 135.935658 
L 501.606703 133.895471 
L 502.301489 133.259758 
L 502.648882 131.663075 
L 502.996275 133.31889 
L 503.343668 133.171045 
L 503.691061 134.531185 
L 504.038454 133.451952 
L 504.385847 136.985326 
L 505.080633 136.157418 
L 505.428026 136.615721 
L 505.775419 135.019053 
L 506.122812 136.985326 
L 506.470205 134.205929 
L 506.817598 136.541806 
L 507.164991 135.846961 
L 507.512384 136.142635 
L 507.859777 137.310566 
L 508.20717 135.699116 
L 508.554563 134.93034 
L 508.901955 133.629347 
L 509.249348 133.31889 
L 509.596741 132.742308 
L 510.291527 132.816238 
L 510.986313 131.48568 
L 511.333706 131.781354 
L 511.681099 131.870052 
L 512.028492 132.594479 
L 512.375885 131.663075 
L 512.723278 131.441315 
L 513.070671 131.781354 
L 513.418064 131.914416 
L 513.765457 131.441315 
L 514.11285 132.03268 
L 514.460243 135.580836 
L 515.502422 134.235495 
L 515.849815 132.077029 
L 516.197208 132.165742 
L 516.544601 132.535331 
L 516.891994 131.870052 
L 517.239387 132.003114 
L 517.58678 131.648292 
L 517.934173 135.684333 
L 518.281566 135.403441 
L 518.628959 133.215409 
L 519.323745 134.826859 
L 520.018531 131.796137 
L 520.365924 133.141479 
L 520.713317 131.071726 
L 521.06071 131.352617 
L 521.408103 132.55013 
L 521.755496 132.136176 
L 522.102889 132.505765 
L 522.450282 131.929199 
L 522.797675 130.938664 
L 523.145068 133.023215 
L 523.492461 131.958765 
L 523.839854 132.431851 
L 524.187247 132.535331 
L 524.53464 131.781354 
L 524.882033 131.766571 
L 525.229426 132.461416 
L 525.576819 131.530028 
L 525.924212 131.470897 
L 526.271605 136.142635 
L 526.618998 135.965224 
L 526.966391 135.37386 
L 527.313784 131.796137 
L 527.661177 134.294626 
L 528.00857 134.590317 
L 528.355963 133.821541 
L 528.703356 136.039139 
L 529.050749 132.298788 
L 529.398142 131.737005 
L 529.745535 132.077029 
L 530.092928 132.03268 
L 530.440321 132.520548 
L 530.787714 132.313571 
L 531.135107 131.663075 
L 531.4825 131.515246 
L 531.829893 132.65361 
L 532.177286 132.343153 
L 532.524679 131.796137 
L 533.219465 131.751788 
L 533.566858 131.559594 
L 533.914251 132.417068 
L 534.261644 131.530028 
L 534.95643 132.03268 
L 535.651216 131.559594 
L 535.998609 132.091811 
L 536.346002 131.48568 
L 536.693395 132.106594 
L 537.040788 134.220712 
L 537.735574 136.778349 
L 538.082967 134.782511 
L 538.43036 133.584998 
L 538.777753 134.560751 
L 539.125146 133.791975 
L 539.472539 131.781354 
L 539.819932 132.25444 
L 540.167325 132.239657 
L 540.514718 131.663075 
L 540.862111 132.727525 
L 541.209504 136.453093 
L 541.556897 134.723363 
L 541.90429 134.501603 
L 542.251683 134.959922 
L 542.599076 136.911395 
L 542.946469 136.408744 
L 543.293862 135.684333 
L 543.641255 137.487977 
L 543.988648 137.251434 
L 544.336041 137.295783 
L 545.030827 134.959922 
L 545.37822 135.388642 
L 545.725613 132.446633 
L 546.073006 132.357936 
L 546.420399 132.964068 
L 546.767792 133.821541 
L 547.462578 136.497457 
L 547.809971 136.053938 
L 548.157364 136.689635 
L 548.504757 135.492139 
L 548.85215 136.172201 
L 549.199543 132.786673 
L 549.546936 132.269222 
L 549.894329 133.185827 
L 550.241722 132.845804 
L 550.589115 133.126696 
L 550.936508 131.663075 
L 551.283901 131.337835 
L 551.978687 133.658929 
L 552.32608 136.940977 
L 552.673473 136.482658 
L 553.368259 136.083504 
L 553.715652 135.99479 
L 554.063045 136.113069 
L 554.757831 134.220712 
L 555.105224 134.102448 
L 555.452617 132.313571 
L 555.80001 133.037998 
L 556.147403 132.801455 
L 556.494796 133.910254 
L 556.842189 138.079342 
L 557.189582 136.29048 
L 557.536975 136.43831 
L 557.884368 135.359077 
L 558.231761 135.950441 
L 558.579154 135.906093 
L 558.926547 135.44779 
L 559.27394 136.600938 
L 559.621333 134.945123 
L 559.968726 135.37386 
L 560.316119 136.911395 
L 560.663512 134.472037 
L 561.010905 136.21655 
L 561.358298 134.989488 
L 561.705691 135.314728 
L 562.053084 137.147954 
L 562.400477 134.945123 
L 562.74787 135.77303 
L 563.095263 135.920875 
L 563.442656 135.344294 
L 563.790049 132.978851 
L 564.137442 133.851107 
L 564.484835 131.737005 
L 564.832228 131.899633 
L 565.179621 131.175206 
L 565.527014 131.574377 
L 565.874407 132.564913 
L 566.2218 131.766571 
L 566.569193 131.899633 
L 566.916586 131.81092 
L 567.263979 132.505765 
L 567.611372 131.234338 
L 567.958765 131.071726 
L 568.306158 131.603943 
L 569.000944 131.130858 
L 569.348337 131.559594 
L 569.69573 132.224874 
L 570.043123 133.570215 
L 570.390516 134.132014 
L 570.737909 134.043301 
L 571.085302 133.570215 
L 571.432695 135.019053 
L 571.780088 133.880689 
L 572.127481 136.364395 
L 572.474874 132.904936 
L 572.822267 131.219555 
L 573.16966 131.249137 
L 573.517053 132.136176 
L 573.864446 131.973548 
L 574.211839 131.071726 
L 574.559232 131.3674 
L 574.906625 132.210091 
L 575.254018 131.3674 
L 575.601411 131.58916 
L 575.948804 131.677874 
L 576.296197 131.278703 
L 576.64359 131.145641 
L 577.338376 131.958765 
L 577.685769 130.731687 
L 578.033162 132.357936 
L 578.380555 131.544811 
L 578.727948 132.091811 
L 579.075341 131.234338 
L 579.422734 131.175206 
L 579.770127 131.559594 
L 580.11752 130.761253 
L 580.464913 131.766571 
L 581.159699 131.26392 
L 581.507092 131.943982 
L 581.854485 131.574377 
L 582.201878 131.692657 
L 582.549271 131.189989 
L 582.896664 132.077029 
L 583.244057 134.457255 
L 583.59145 134.885991 
L 583.938843 133.289324 
L 584.286236 134.782511 
L 584.633629 135.359077 
L 584.981022 133.821541 
L 585.328415 131.559594 
L 585.675808 131.929199 
L 586.023201 131.633509 
L 586.717987 130.776036 
L 587.06538 131.781354 
L 587.412773 131.352617 
L 587.760166 131.603943 
L 588.107559 132.357936 
L 588.454952 131.544811 
L 588.802345 131.26392 
L 589.149738 131.189989 
L 589.497131 131.870052 
L 589.844524 131.278703 
L 590.191917 131.116075 
L 590.53931 132.520548 
L 590.886703 134.472037 
L 591.234096 134.294626 
L 591.581489 135.418224 
L 591.928882 135.019053 
L 592.276275 137.872365 
L 592.623668 135.654767 
L 592.971061 135.211247 
L 593.318454 136.21655 
L 593.665847 135.181681 
L 594.01324 137.266217 
L 594.360633 134.738162 
L 595.055419 133.052781 
L 595.402812 133.688495 
L 595.750205 132.298788 
L 596.097598 133.082347 
L 596.444991 134.442472 
L 596.792384 138.404582 
L 597.139777 135.713899 
L 597.48717 136.83748 
L 597.834563 137.221868 
L 598.181955 136.275697 
L 598.529348 135.846961 
L 598.876741 135.935658 
L 599.224134 137.118372 
L 599.571527 135.713899 
L 600.266313 135.44779 
L 600.613706 136.51224 
L 600.961099 136.970543 
L 601.308492 135.00427 
L 602.003278 132.65361 
L 602.350671 133.156262 
L 602.698064 132.062246 
L 603.045457 132.150959 
L 603.740243 133.392804 
L 604.087636 135.477356 
L 604.435029 131.943982 
L 604.782422 132.003114 
L 605.129815 133.851107 
L 605.477208 134.058084 
L 605.824601 133.703278 
L 606.171994 133.703278 
L 606.519387 134.043301 
L 606.86678 131.722222 
L 607.214173 131.574377 
L 607.908959 132.505765 
L 608.256352 133.392804 
L 608.603745 132.239657 
L 608.951138 134.013735 
L 609.298531 132.742308 
L 609.645924 133.230192 
L 609.993317 132.816238 
L 610.34071 131.559594 
L 610.688103 133.599781 
L 611.035496 133.791975 
L 611.730282 137.443628 
L 612.077675 137.473194 
L 612.425068 135.876527 
L 612.772461 136.201767 
L 613.119854 135.285162 
L 613.467247 134.826859 
L 613.81464 135.492139 
L 614.162033 136.482658 
L 614.509426 134.752945 
L 614.856819 135.906093 
L 615.204212 136.231333 
L 615.551605 135.388642 
L 615.898998 135.166883 
L 616.246391 135.876527 
L 616.593784 136.305263 
L 616.941177 135.403441 
L 617.28857 136.940977 
L 617.635963 135.89131 
L 617.983356 136.95576 
L 618.330749 137.251434 
L 618.678142 135.551271 
L 619.025535 134.472037 
L 619.372928 137.399279 
L 619.720321 135.965224 
L 620.415107 137.354915 
L 620.7625 136.867046 
L 621.457286 133.644146 
L 621.804679 134.235495 
L 622.152072 133.082347 
L 622.499465 132.402285 
L 622.846858 132.328354 
L 623.194251 134.516386 
L 623.541644 132.239657 
L 624.23643 133.599781 
L 624.583823 131.988331 
L 624.931216 132.387502 
L 625.278609 133.111913 
L 625.626002 132.712742 
L 625.973395 133.451952 
L 626.320788 131.840486 
L 626.668181 134.531185 
L 627.015574 134.294626 
L 627.71036 138.301101 
L 628.057753 136.556589 
L 628.405146 136.246116 
L 628.752539 136.408744 
L 629.099932 138.168039 
L 629.447325 136.527023 
L 629.794718 136.541806 
L 630.142111 135.314728 
L 630.489504 134.782511 
L 630.836897 135.980007 
L 631.18429 136.142635 
L 631.531683 136.970543 
L 631.879076 136.349612 
L 632.226469 135.462573 
L 632.573862 137.842799 
L 632.921255 136.039139 
L 633.268648 136.852263 
L 633.616041 132.638827 
L 633.963434 134.93034 
L 634.65822 132.269222 
L 635.005613 132.03268 
L 636.047792 136.113069 
L 636.395185 135.99479 
L 636.742578 137.517543 
L 637.089971 137.295783 
L 637.437364 136.586155 
L 637.784757 135.344294 
L 638.479543 137.074023 
L 638.826936 135.092968 
L 639.174329 136.600938 
L 639.521722 135.166883 
L 639.869115 136.896612 
L 640.216508 133.806758 
L 640.911294 136.349612 
L 641.258687 136.098286 
L 641.60608 136.423527 
L 641.953473 136.172201 
L 642.300866 137.458411 
L 642.648259 135.433007 
L 642.995652 137.340132 
L 643.343045 134.812077 
L 643.690438 133.836324 
L 644.037831 134.265061 
L 644.385224 132.978851 
L 644.732617 133.259758 
L 645.08001 132.328354 
L 645.427403 133.984169 
L 645.774796 132.831021 
L 646.122189 132.594479 
L 646.816975 133.880689 
L 647.164368 137.05924 
L 647.511761 137.192302 
L 647.859154 134.812077 
L 648.206547 136.83748 
L 648.55394 135.980007 
L 649.248726 137.517543 
L 649.596119 134.531185 
L 649.943512 137.17752 
L 650.290905 135.728682 
L 650.638298 135.433007 
L 650.985691 135.566053 
L 651.333084 136.600938 
L 651.680477 135.329511 
L 652.02787 136.453093 
L 652.375263 136.689635 
L 652.722656 135.255596 
L 653.070049 135.639984 
L 653.417442 136.527023 
L 653.764835 136.320046 
L 654.112228 135.433007 
L 654.459621 135.344294 
L 654.807014 134.132014 
L 655.154407 136.334829 
L 655.5018 136.482658 
L 655.849193 135.403441 
L 656.196586 135.285162 
L 656.543979 136.083504 
L 656.891372 136.083504 
L 657.238765 133.747626 
L 657.586158 136.260899 
L 657.933551 136.349612 
L 658.280944 133.570215 
L 658.628337 135.728682 
L 658.97573 135.211247 
L 659.323123 135.580836 
L 659.670516 134.974705 
L 660.017909 136.674852 
L 660.365302 134.38334 
L 660.712695 133.954603 
L 661.060088 136.320046 
L 661.407481 136.053938 
L 661.754874 135.196464 
L 662.102267 134.679014 
L 662.44966 134.989488 
L 662.797053 133.540649 
L 663.144446 134.294626 
L 663.491839 131.943982 
L 663.839232 133.378021 
L 664.186625 131.958765 
L 664.534018 133.93982 
L 664.881411 134.767728 
L 665.228804 134.324208 
L 665.576197 136.364395 
L 665.92359 136.172201 
L 666.270983 135.699116 
L 666.965769 133.836324 
L 667.313162 132.313571 
L 667.660555 132.609262 
L 668.007948 132.003114 
L 668.702734 135.166883 
L 669.050127 134.102448 
L 669.39752 134.782511 
L 669.744913 136.586155 
L 670.092306 137.088806 
L 670.439699 135.344294 
L 670.787092 135.359077 
L 671.134485 137.162737 
L 671.481878 135.846961 
L 672.176664 134.797294 
L 672.524057 136.926194 
L 672.87145 135.359077 
L 673.218843 137.074023 
L 673.566236 134.945123 
L 674.261022 134.575534 
L 674.608415 135.314728 
L 674.955808 135.713899 
L 675.303201 135.477356 
L 675.650594 138.375016 
L 675.997987 136.556589 
L 676.34538 135.787813 
L 676.692773 135.743464 
L 677.040166 136.793132 
L 677.387559 133.407587 
L 677.734952 132.87537 
L 678.082345 132.091811 
L 678.429738 132.845804 
L 678.777131 132.742308 
L 679.124524 132.520548 
L 679.471917 133.052781 
L 679.81931 132.343153 
L 680.166703 133.111913 
L 680.514096 132.934502 
L 680.861489 133.407587 
L 681.208882 132.165742 
L 681.556275 134.132014 
L 681.903668 132.594479 
L 682.251061 136.21655 
L 682.598454 135.758247 
L 682.945847 135.861744 
L 683.29324 135.492139 
L 683.640633 137.650605 
L 683.988026 137.532326 
L 684.335419 135.00427 
L 684.682812 135.477356 
L 685.030205 133.925037 
L 685.377598 133.348456 
L 685.724991 132.476199 
L 686.072384 133.067564 
L 686.419777 132.150959 
L 686.76717 131.618726 
L 687.114563 132.638827 
L 687.114563 132.638827 
" clip-path="url(#pbcd7a75a10)" style="fill: none; stroke: #1f77b4; stroke-width: 1.5; stroke-linecap: square"/>
   </g>
   <g id="patch_3">
    <path d="M 329.994563 311.6435 
L 329.994563 45.5315 
" style="fill: none; stroke: #000000; stroke-width: 0.8; stroke-linejoin: miter; stroke-linecap: square"/>
   </g>
   <g id="patch_4">
    <path d="M 687.114563 311.6435 
L 687.114563 45.5315 
" style="fill: none; stroke: #000000; stroke-width: 0.8; stroke-linejoin: miter; stroke-linecap: square"/>
   </g>
   <g id="patch_5">
    <path d="M 329.994563 311.6435 
L 687.114563 311.6435 
" style="fill: none; stroke: #000000; stroke-width: 0.8; stroke-linejoin: miter; stroke-linecap: square"/>
   </g>
   <g id="patch_6">
    <path d="M 329.994563 45.5315 
L 687.114563 45.5315 
" style="fill: none; stroke: #000000; stroke-width: 0.8; stroke-linejoin: miter; stroke-linecap: square"/>
   </g>
   <g id="text_19">
    <!-- Accuracy of the 14_05_25_CINIC10_model_(1024+512+1)_1_ct_save_2 on the validation set -->
    <g transform="translate(7.2 25.5315) scale(0.264 -0.264)">
     <defs>
      <path id="TimesNewRomanPSMT-68" d="M 1041 4444 
L 1041 2350 
Q 1388 2731 1591 2839 
Q 1794 2947 1997 2947 
Q 2241 2947 2416 2812 
Q 2591 2678 2675 2391 
Q 2734 2191 2734 1659 
L 2734 647 
Q 2734 375 2778 275 
Q 2809 200 2884 156 
Q 2959 113 3159 113 
L 3159 0 
L 1753 0 
L 1753 113 
L 1819 113 
Q 2019 113 2097 173 
Q 2175 234 2206 353 
Q 2216 403 2216 647 
L 2216 1659 
Q 2216 2128 2167 2275 
Q 2119 2422 2012 2495 
Q 1906 2569 1756 2569 
Q 1603 2569 1437 2487 
Q 1272 2406 1041 2159 
L 1041 647 
Q 1041 353 1073 281 
Q 1106 209 1195 161 
Q 1284 113 1503 113 
L 1503 0 
L 84 0 
L 84 113 
Q 275 113 384 172 
Q 447 203 484 290 
Q 522 378 522 647 
L 522 3238 
Q 522 3728 498 3840 
Q 475 3953 426 3993 
Q 378 4034 297 4034 
Q 231 4034 84 3984 
L 41 4094 
L 897 4444 
L 1041 4444 
z
" transform="scale(0.015625)"/>
      <path id="TimesNewRomanPSMT-5f" d="M 3256 -1381 
L -53 -1381 
L -53 -1119 
L 3256 -1119 
L 3256 -1381 
z
" transform="scale(0.015625)"/>
      <path id="TimesNewRomanPSMT-43" d="M 3853 4334 
L 3950 2894 
L 3853 2894 
Q 3659 3541 3300 3825 
Q 2941 4109 2438 4109 
Q 2016 4109 1675 3895 
Q 1334 3681 1139 3212 
Q 944 2744 944 2047 
Q 944 1472 1128 1050 
Q 1313 628 1683 403 
Q 2053 178 2528 178 
Q 2941 178 3256 354 
Q 3572 531 3950 1056 
L 4047 994 
Q 3728 428 3303 165 
Q 2878 -97 2294 -97 
Q 1241 -97 663 684 
Q 231 1266 231 2053 
Q 231 2688 515 3219 
Q 800 3750 1298 4042 
Q 1797 4334 2388 4334 
Q 2847 4334 3294 4109 
Q 3425 4041 3481 4041 
Q 3566 4041 3628 4100 
Q 3709 4184 3744 4334 
L 3853 4334 
z
" transform="scale(0.015625)"/>
      <path id="TimesNewRomanPSMT-49" d="M 1975 116 
L 1975 0 
L 159 0 
L 159 116 
L 309 116 
Q 572 116 691 269 
Q 766 369 766 750 
L 766 3488 
Q 766 3809 725 3913 
Q 694 3991 597 4047 
Q 459 4122 309 4122 
L 159 4122 
L 159 4238 
L 1975 4238 
L 1975 4122 
L 1822 4122 
Q 1563 4122 1444 3969 
Q 1366 3869 1366 3488 
L 1366 750 
Q 1366 428 1406 325 
Q 1438 247 1538 191 
Q 1672 116 1822 116 
L 1975 116 
z
" transform="scale(0.015625)"/>
      <path id="TimesNewRomanPSMT-64" d="M 2222 322 
Q 2013 103 1813 7 
Q 1613 -88 1381 -88 
Q 913 -88 563 304 
Q 213 697 213 1313 
Q 213 1928 600 2439 
Q 988 2950 1597 2950 
Q 1975 2950 2222 2709 
L 2222 3238 
Q 2222 3728 2198 3840 
Q 2175 3953 2125 3993 
Q 2075 4034 2000 4034 
Q 1919 4034 1784 3984 
L 1744 4094 
L 2597 4444 
L 2738 4444 
L 2738 1134 
Q 2738 631 2761 520 
Q 2784 409 2836 365 
Q 2888 322 2956 322 
Q 3041 322 3181 375 
L 3216 266 
L 2366 -88 
L 2222 -88 
L 2222 322 
z
M 2222 541 
L 2222 2016 
Q 2203 2228 2109 2403 
Q 2016 2578 1861 2667 
Q 1706 2756 1559 2756 
Q 1284 2756 1069 2509 
Q 784 2184 784 1559 
Q 784 928 1059 592 
Q 1334 256 1672 256 
Q 1956 256 2222 541 
z
" transform="scale(0.015625)"/>
      <path id="TimesNewRomanPSMT-6c" d="M 1184 4444 
L 1184 647 
Q 1184 378 1223 290 
Q 1263 203 1344 158 
Q 1425 113 1647 113 
L 1647 0 
L 244 0 
L 244 113 
Q 441 113 512 153 
Q 584 194 625 287 
Q 666 381 666 647 
L 666 3247 
Q 666 3731 644 3842 
Q 622 3953 573 3993 
Q 525 4034 450 4034 
Q 369 4034 244 3984 
L 191 4094 
L 1044 4444 
L 1184 4444 
z
" transform="scale(0.015625)"/>
      <path id="TimesNewRomanPSMT-28" d="M 1988 -1253 
L 1988 -1369 
Q 1516 -1131 1200 -813 
Q 750 -359 506 256 
Q 263 872 263 1534 
Q 263 2503 741 3301 
Q 1219 4100 1988 4444 
L 1988 4313 
Q 1603 4100 1356 3731 
Q 1109 3363 987 2797 
Q 866 2231 866 1616 
Q 866 947 969 400 
Q 1050 -31 1165 -292 
Q 1281 -553 1476 -793 
Q 1672 -1034 1988 -1253 
z
" transform="scale(0.015625)"/>
      <path id="TimesNewRomanPSMT-2b" d="M 1672 441 
L 1672 2000 
L 116 2000 
L 116 2256 
L 1672 2256 
L 1672 3809 
L 1922 3809 
L 1922 2256 
L 3484 2256 
L 3484 2000 
L 1922 2000 
L 1922 441 
L 1672 441 
z
" transform="scale(0.015625)"/>
      <path id="TimesNewRomanPSMT-29" d="M 144 4313 
L 144 4444 
Q 619 4209 934 3891 
Q 1381 3434 1625 2820 
Q 1869 2206 1869 1541 
Q 1869 572 1392 -226 
Q 916 -1025 144 -1369 
L 144 -1253 
Q 528 -1038 776 -670 
Q 1025 -303 1145 264 
Q 1266 831 1266 1447 
Q 1266 2113 1163 2663 
Q 1084 3094 967 3353 
Q 850 3613 656 3853 
Q 463 4094 144 4313 
z
" transform="scale(0.015625)"/>
      <path id="TimesNewRomanPSMT-76" d="M 53 2863 
L 1400 2863 
L 1400 2747 
L 1313 2747 
Q 1191 2747 1127 2687 
Q 1063 2628 1063 2528 
Q 1063 2419 1128 2269 
L 1794 688 
L 2463 2328 
Q 2534 2503 2534 2594 
Q 2534 2638 2509 2666 
Q 2475 2713 2422 2730 
Q 2369 2747 2206 2747 
L 2206 2863 
L 3141 2863 
L 3141 2747 
Q 2978 2734 2916 2681 
Q 2806 2588 2719 2369 
L 1703 -88 
L 1575 -88 
L 553 2328 
Q 484 2497 421 2570 
Q 359 2644 263 2694 
Q 209 2722 53 2747 
L 53 2863 
z
" transform="scale(0.015625)"/>
     </defs>
     <use xlink:href="#TimesNewRomanPSMT-41"/>
     <use xlink:href="#TimesNewRomanPSMT-63" transform="translate(72.216797 0)"/>
     <use xlink:href="#TimesNewRomanPSMT-63" transform="translate(116.601562 0)"/>
     <use xlink:href="#TimesNewRomanPSMT-75" transform="translate(160.986328 0)"/>
     <use xlink:href="#TimesNewRomanPSMT-72" transform="translate(210.986328 0)"/>
     <use xlink:href="#TimesNewRomanPSMT-61" transform="translate(244.287109 0)"/>
     <use xlink:href="#TimesNewRomanPSMT-63" transform="translate(288.671875 0)"/>
     <use xlink:href="#TimesNewRomanPSMT-79" transform="translate(333.056641 0)"/>
     <use xlink:href="#TimesNewRomanPSMT-20" transform="translate(383.056641 0)"/>
     <use xlink:href="#TimesNewRomanPSMT-6f" transform="translate(408.056641 0)"/>
     <use xlink:href="#TimesNewRomanPSMT-66" transform="translate(458.056641 0)"/>
     <use xlink:href="#TimesNewRomanPSMT-20" transform="translate(491.357422 0)"/>
     <use xlink:href="#TimesNewRomanPSMT-74" transform="translate(516.357422 0)"/>
     <use xlink:href="#TimesNewRomanPSMT-68" transform="translate(544.140625 0)"/>
     <use xlink:href="#TimesNewRomanPSMT-65" transform="translate(594.140625 0)"/>
     <use xlink:href="#TimesNewRomanPSMT-20" transform="translate(638.525391 0)"/>
     <use xlink:href="#TimesNewRomanPSMT-31" transform="translate(663.525391 0)"/>
     <use xlink:href="#TimesNewRomanPSMT-34" transform="translate(713.525391 0)"/>
     <use xlink:href="#TimesNewRomanPSMT-5f" transform="translate(763.525391 0)"/>
     <use xlink:href="#TimesNewRomanPSMT-30" transform="translate(813.525391 0)"/>
     <use xlink:href="#TimesNewRomanPSMT-35" transform="translate(863.525391 0)"/>
     <use xlink:href="#TimesNewRomanPSMT-5f" transform="translate(913.525391 0)"/>
     <use xlink:href="#TimesNewRomanPSMT-32" transform="translate(963.525391 0)"/>
     <use xlink:href="#TimesNewRomanPSMT-35" transform="translate(1013.525391 0)"/>
     <use xlink:href="#TimesNewRomanPSMT-5f" transform="translate(1063.525391 0)"/>
     <use xlink:href="#TimesNewRomanPSMT-43" transform="translate(1113.525391 0)"/>
     <use xlink:href="#TimesNewRomanPSMT-49" transform="translate(1180.224609 0)"/>
     <use xlink:href="#TimesNewRomanPSMT-4e" transform="translate(1213.525391 0)"/>
     <use xlink:href="#TimesNewRomanPSMT-49" transform="translate(1285.742188 0)"/>
     <use xlink:href="#TimesNewRomanPSMT-43" transform="translate(1319.042969 0)"/>
     <use xlink:href="#TimesNewRomanPSMT-31" transform="translate(1385.742188 0)"/>
     <use xlink:href="#TimesNewRomanPSMT-30" transform="translate(1435.742188 0)"/>
     <use xlink:href="#TimesNewRomanPSMT-5f" transform="translate(1485.742188 0)"/>
     <use xlink:href="#TimesNewRomanPSMT-6d" transform="translate(1535.742188 0)"/>
     <use xlink:href="#TimesNewRomanPSMT-6f" transform="translate(1613.525391 0)"/>
     <use xlink:href="#TimesNewRomanPSMT-64" transform="translate(1663.525391 0)"/>
     <use xlink:href="#TimesNewRomanPSMT-65" transform="translate(1713.525391 0)"/>
     <use xlink:href="#TimesNewRomanPSMT-6c" transform="translate(1757.910156 0)"/>
     <use xlink:href="#TimesNewRomanPSMT-5f" transform="translate(1785.693359 0)"/>
     <use xlink:href="#TimesNewRomanPSMT-28" transform="translate(1835.693359 0)"/>
     <use xlink:href="#TimesNewRomanPSMT-31" transform="translate(1868.994141 0)"/>
     <use xlink:href="#TimesNewRomanPSMT-30" transform="translate(1918.994141 0)"/>
     <use xlink:href="#TimesNewRomanPSMT-32" transform="translate(1968.994141 0)"/>
     <use xlink:href="#TimesNewRomanPSMT-34" transform="translate(2018.994141 0)"/>
     <use xlink:href="#TimesNewRomanPSMT-2b" transform="translate(2068.994141 0)"/>
     <use xlink:href="#TimesNewRomanPSMT-35" transform="translate(2125.390625 0)"/>
     <use xlink:href="#TimesNewRomanPSMT-31" transform="translate(2175.390625 0)"/>
     <use xlink:href="#TimesNewRomanPSMT-32" transform="translate(2225.390625 0)"/>
     <use xlink:href="#TimesNewRomanPSMT-2b" transform="translate(2275.390625 0)"/>
     <use xlink:href="#TimesNewRomanPSMT-31" transform="translate(2331.787109 0)"/>
     <use xlink:href="#TimesNewRomanPSMT-29" transform="translate(2381.787109 0)"/>
     <use xlink:href="#TimesNewRomanPSMT-5f" transform="translate(2415.087891 0)"/>
     <use xlink:href="#TimesNewRomanPSMT-31" transform="translate(2465.087891 0)"/>
     <use xlink:href="#TimesNewRomanPSMT-5f" transform="translate(2515.087891 0)"/>
     <use xlink:href="#TimesNewRomanPSMT-63" transform="translate(2565.087891 0)"/>
     <use xlink:href="#TimesNewRomanPSMT-74" transform="translate(2609.472656 0)"/>
     <use xlink:href="#TimesNewRomanPSMT-5f" transform="translate(2637.255859 0)"/>
     <use xlink:href="#TimesNewRomanPSMT-73" transform="translate(2687.255859 0)"/>
     <use xlink:href="#TimesNewRomanPSMT-61" transform="translate(2726.171875 0)"/>
     <use xlink:href="#TimesNewRomanPSMT-76" transform="translate(2770.556641 0)"/>
     <use xlink:href="#TimesNewRomanPSMT-65" transform="translate(2820.556641 0)"/>
     <use xlink:href="#TimesNewRomanPSMT-5f" transform="translate(2864.941406 0)"/>
     <use xlink:href="#TimesNewRomanPSMT-32" transform="translate(2914.941406 0)"/>
     <use xlink:href="#TimesNewRomanPSMT-20" transform="translate(2964.941406 0)"/>
     <use xlink:href="#TimesNewRomanPSMT-6f" transform="translate(2989.941406 0)"/>
     <use xlink:href="#TimesNewRomanPSMT-6e" transform="translate(3039.941406 0)"/>
     <use xlink:href="#TimesNewRomanPSMT-20" transform="translate(3089.941406 0)"/>
     <use xlink:href="#TimesNewRomanPSMT-74" transform="translate(3114.941406 0)"/>
     <use xlink:href="#TimesNewRomanPSMT-68" transform="translate(3142.724609 0)"/>
     <use xlink:href="#TimesNewRomanPSMT-65" transform="translate(3192.724609 0)"/>
     <use xlink:href="#TimesNewRomanPSMT-20" transform="translate(3237.109375 0)"/>
     <use xlink:href="#TimesNewRomanPSMT-76" transform="translate(3262.109375 0)"/>
     <use xlink:href="#TimesNewRomanPSMT-61" transform="translate(3312.109375 0)"/>
     <use xlink:href="#TimesNewRomanPSMT-6c" transform="translate(3356.494141 0)"/>
     <use xlink:href="#TimesNewRomanPSMT-69" transform="translate(3384.277344 0)"/>
     <use xlink:href="#TimesNewRomanPSMT-64" transform="translate(3412.060547 0)"/>
     <use xlink:href="#TimesNewRomanPSMT-61" transform="translate(3462.060547 0)"/>
     <use xlink:href="#TimesNewRomanPSMT-74" transform="translate(3506.445312 0)"/>
     <use xlink:href="#TimesNewRomanPSMT-69" transform="translate(3534.228516 0)"/>
     <use xlink:href="#TimesNewRomanPSMT-6f" transform="translate(3562.011719 0)"/>
     <use xlink:href="#TimesNewRomanPSMT-6e" transform="translate(3612.011719 0)"/>
     <use xlink:href="#TimesNewRomanPSMT-20" transform="translate(3662.011719 0)"/>
     <use xlink:href="#TimesNewRomanPSMT-73" transform="translate(3687.011719 0)"/>
     <use xlink:href="#TimesNewRomanPSMT-65" transform="translate(3725.927734 0)"/>
     <use xlink:href="#TimesNewRomanPSMT-74" transform="translate(3770.3125 0)"/>
    </g>
   </g>
   <g id="legend_1">
    <g id="patch_7">
     <path d="M 434.54425 94.278687 
L 671.714563 94.278687 
Q 676.114563 94.278687 676.114563 89.878687 
L 676.114563 60.9315 
Q 676.114563 56.5315 671.714563 56.5315 
L 434.54425 56.5315 
Q 430.14425 56.5315 430.14425 60.9315 
L 430.14425 89.878687 
Q 430.14425 94.278687 434.54425 94.278687 
z
" style="fill: #ffffff; opacity: 0.8; stroke: #cccccc; stroke-linejoin: miter"/>
    </g>
    <g id="line2d_34">
     <path d="M 438.94425 73.0315 
L 460.94425 73.0315 
L 482.94425 73.0315 
" style="fill: none; stroke: #1f77b4; stroke-width: 1.5; stroke-linecap: square"/>
    </g>
    <g id="text_20">
     <!-- Best accuracy 0.68 -->
     <g transform="translate(500.54425 80.7315) scale(0.22 -0.22)">
      <defs>
       <path id="TimesNewRomanPSMT-42" d="M 2956 2163 
Q 3397 2069 3616 1863 
Q 3919 1575 3919 1159 
Q 3919 844 3719 555 
Q 3519 266 3170 133 
Q 2822 0 2106 0 
L 106 0 
L 106 116 
L 266 116 
Q 531 116 647 284 
Q 719 394 719 750 
L 719 3488 
Q 719 3881 628 3984 
Q 506 4122 266 4122 
L 106 4122 
L 106 4238 
L 1938 4238 
Q 2450 4238 2759 4163 
Q 3228 4050 3475 3764 
Q 3722 3478 3722 3106 
Q 3722 2788 3528 2536 
Q 3334 2284 2956 2163 
z
M 1319 2331 
Q 1434 2309 1582 2298 
Q 1731 2288 1909 2288 
Q 2366 2288 2595 2386 
Q 2825 2484 2947 2687 
Q 3069 2891 3069 3131 
Q 3069 3503 2766 3765 
Q 2463 4028 1881 4028 
Q 1569 4028 1319 3959 
L 1319 2331 
z
M 1319 306 
Q 1681 222 2034 222 
Q 2600 222 2897 476 
Q 3194 731 3194 1106 
Q 3194 1353 3059 1581 
Q 2925 1809 2622 1940 
Q 2319 2072 1872 2072 
Q 1678 2072 1540 2065 
Q 1403 2059 1319 2044 
L 1319 306 
z
" transform="scale(0.015625)"/>
      </defs>
      <use xlink:href="#TimesNewRomanPSMT-42"/>
      <use xlink:href="#TimesNewRomanPSMT-65" transform="translate(66.699219 0)"/>
      <use xlink:href="#TimesNewRomanPSMT-73" transform="translate(111.083984 0)"/>
      <use xlink:href="#TimesNewRomanPSMT-74" transform="translate(150 0)"/>
      <use xlink:href="#TimesNewRomanPSMT-20" transform="translate(177.783203 0)"/>
      <use xlink:href="#TimesNewRomanPSMT-61" transform="translate(202.783203 0)"/>
      <use xlink:href="#TimesNewRomanPSMT-63" transform="translate(247.167969 0)"/>
      <use xlink:href="#TimesNewRomanPSMT-63" transform="translate(291.552734 0)"/>
      <use xlink:href="#TimesNewRomanPSMT-75" transform="translate(335.9375 0)"/>
      <use xlink:href="#TimesNewRomanPSMT-72" transform="translate(385.9375 0)"/>
      <use xlink:href="#TimesNewRomanPSMT-61" transform="translate(419.238281 0)"/>
      <use xlink:href="#TimesNewRomanPSMT-63" transform="translate(463.623047 0)"/>
      <use xlink:href="#TimesNewRomanPSMT-79" transform="translate(508.007812 0)"/>
      <use xlink:href="#TimesNewRomanPSMT-20" transform="translate(558.007812 0)"/>
      <use xlink:href="#TimesNewRomanPSMT-30" transform="translate(583.007812 0)"/>
      <use xlink:href="#TimesNewRomanPSMT-2e" transform="translate(633.007812 0)"/>
      <use xlink:href="#TimesNewRomanPSMT-36" transform="translate(658.007812 0)"/>
      <use xlink:href="#TimesNewRomanPSMT-38" transform="translate(708.007812 0)"/>
     </g>
    </g>
   </g>
  </g>
 </g>
 <defs>
  <clipPath id="pbcd7a75a10">
   <rect x="329.994563" y="45.5315" width="357.12" height="266.112"/>
  </clipPath>
 </defs>
</svg>
