<?xml version="1.0" encoding="utf-8" standalone="no"?>
<!DOCTYPE svg PUBLIC "-//W3C//DTD SVG 1.1//EN"
  "http://www.w3.org/Graphics/SVG/1.1/DTD/svg11.dtd">
<svg xmlns:xlink="http://www.w3.org/1999/xlink" width="845.637pt" height="369.807875pt" viewBox="0 0 845.637 369.807875" xmlns="http://www.w3.org/2000/svg" version="1.1">
 <metadata>
  <rdf:RDF xmlns:dc="http://purl.org/dc/elements/1.1/" xmlns:cc="http://creativecommons.org/ns#" xmlns:rdf="http://www.w3.org/1999/02/22-rdf-syntax-ns#">
   <cc:Work>
    <dc:type rdf:resource="http://purl.org/dc/dcmitype/StillImage"/>
    <dc:date>2025-07-10T11:57:07.081144</dc:date>
    <dc:format>image/svg+xml</dc:format>
    <dc:creator>
     <cc:Agent>
      <dc:title>Matplotlib v3.10.1, https://matplotlib.org/</dc:title>
     </cc:Agent>
    </dc:creator>
   </cc:Work>
  </rdf:RDF>
 </metadata>
 <defs>
  <style type="text/css">*{stroke-linejoin: round; stroke-linecap: butt}</style>
 </defs>
 <g id="figure_1">
  <g id="patch_1">
   <path d="M -0 369.807875 
L 845.637 369.807875 
L 845.637 0 
L -0 0 
z
" style="fill: #ffffff"/>
  </g>
  <g id="axes_1">
   <g id="patch_2">
    <path d="M 244.2585 311.6435 
L 601.3785 311.6435 
L 601.3785 45.5315 
L 244.2585 45.5315 
z
" style="fill: #ffffff"/>
   </g>
   <g id="matplotlib.axis_1">
    <g id="xtick_1">
     <g id="line2d_1">
      <path d="M 244.2585 311.6435 
L 244.2585 45.5315 
" clip-path="url(#pda9d00d8bc)" style="fill: none; stroke: #b0b0b0; stroke-opacity: 0.3; stroke-width: 0.8; stroke-linecap: square"/>
     </g>
     <g id="line2d_2">
      <defs>
       <path id="mcb154df2cc" d="M 0 0 
L 0 3.5 
" style="stroke: #000000; stroke-width: 0.8"/>
      </defs>
      <g>
       <use xlink:href="#mcb154df2cc" x="244.2585" y="311.6435" style="stroke: #000000; stroke-width: 0.8"/>
      </g>
     </g>
     <g id="text_1">
      <!-- 0 -->
      <g transform="translate(238.7585 333.91975) scale(0.22 -0.22)">
       <defs>
        <path id="TimesNewRomanPSMT-30" d="M 231 2094 
Q 231 2819 450 3342 
Q 669 3866 1031 4122 
Q 1313 4325 1613 4325 
Q 2100 4325 2488 3828 
Q 2972 3213 2972 2159 
Q 2972 1422 2759 906 
Q 2547 391 2217 158 
Q 1888 -75 1581 -75 
Q 975 -75 572 641 
Q 231 1244 231 2094 
z
M 844 2016 
Q 844 1141 1059 588 
Q 1238 122 1591 122 
Q 1759 122 1940 273 
Q 2122 425 2216 781 
Q 2359 1319 2359 2297 
Q 2359 3022 2209 3506 
Q 2097 3866 1919 4016 
Q 1791 4119 1609 4119 
Q 1397 4119 1231 3928 
Q 1006 3669 925 3112 
Q 844 2556 844 2016 
z
" transform="scale(0.015625)"/>
       </defs>
       <use xlink:href="#TimesNewRomanPSMT-30"/>
      </g>
     </g>
    </g>
    <g id="xtick_2">
     <g id="line2d_3">
      <path d="M 333.5385 311.6435 
L 333.5385 45.5315 
" clip-path="url(#pda9d00d8bc)" style="fill: none; stroke: #b0b0b0; stroke-opacity: 0.3; stroke-width: 0.8; stroke-linecap: square"/>
     </g>
     <g id="line2d_4">
      <g>
       <use xlink:href="#mcb154df2cc" x="333.5385" y="311.6435" style="stroke: #000000; stroke-width: 0.8"/>
      </g>
     </g>
     <g id="text_2">
      <!-- 50000 -->
      <g transform="translate(306.0385 333.91975) scale(0.22 -0.22)">
       <defs>
        <path id="TimesNewRomanPSMT-35" d="M 2778 4238 
L 2534 3706 
L 1259 3706 
L 981 3138 
Q 1809 3016 2294 2522 
Q 2709 2097 2709 1522 
Q 2709 1188 2573 903 
Q 2438 619 2231 419 
Q 2025 219 1772 97 
Q 1413 -75 1034 -75 
Q 653 -75 479 54 
Q 306 184 306 341 
Q 306 428 378 495 
Q 450 563 559 563 
Q 641 563 702 538 
Q 763 513 909 409 
Q 1144 247 1384 247 
Q 1750 247 2026 523 
Q 2303 800 2303 1197 
Q 2303 1581 2056 1914 
Q 1809 2247 1375 2428 
Q 1034 2569 447 2591 
L 1259 4238 
L 2778 4238 
z
" transform="scale(0.015625)"/>
       </defs>
       <use xlink:href="#TimesNewRomanPSMT-35"/>
       <use xlink:href="#TimesNewRomanPSMT-30" transform="translate(50 0)"/>
       <use xlink:href="#TimesNewRomanPSMT-30" transform="translate(100 0)"/>
       <use xlink:href="#TimesNewRomanPSMT-30" transform="translate(150 0)"/>
       <use xlink:href="#TimesNewRomanPSMT-30" transform="translate(200 0)"/>
      </g>
     </g>
    </g>
    <g id="xtick_3">
     <g id="line2d_5">
      <path d="M 422.8185 311.6435 
L 422.8185 45.5315 
" clip-path="url(#pda9d00d8bc)" style="fill: none; stroke: #b0b0b0; stroke-opacity: 0.3; stroke-width: 0.8; stroke-linecap: square"/>
     </g>
     <g id="line2d_6">
      <g>
       <use xlink:href="#mcb154df2cc" x="422.8185" y="311.6435" style="stroke: #000000; stroke-width: 0.8"/>
      </g>
     </g>
     <g id="text_3">
      <!-- 100000 -->
      <g transform="translate(389.8185 333.91975) scale(0.22 -0.22)">
       <defs>
        <path id="TimesNewRomanPSMT-31" d="M 750 3822 
L 1781 4325 
L 1884 4325 
L 1884 747 
Q 1884 391 1914 303 
Q 1944 216 2037 169 
Q 2131 122 2419 116 
L 2419 0 
L 825 0 
L 825 116 
Q 1125 122 1212 167 
Q 1300 213 1334 289 
Q 1369 366 1369 747 
L 1369 3034 
Q 1369 3497 1338 3628 
Q 1316 3728 1258 3775 
Q 1200 3822 1119 3822 
Q 1003 3822 797 3725 
L 750 3822 
z
" transform="scale(0.015625)"/>
       </defs>
       <use xlink:href="#TimesNewRomanPSMT-31"/>
       <use xlink:href="#TimesNewRomanPSMT-30" transform="translate(50 0)"/>
       <use xlink:href="#TimesNewRomanPSMT-30" transform="translate(100 0)"/>
       <use xlink:href="#TimesNewRomanPSMT-30" transform="translate(150 0)"/>
       <use xlink:href="#TimesNewRomanPSMT-30" transform="translate(200 0)"/>
       <use xlink:href="#TimesNewRomanPSMT-30" transform="translate(250 0)"/>
      </g>
     </g>
    </g>
    <g id="xtick_4">
     <g id="line2d_7">
      <path d="M 512.0985 311.6435 
L 512.0985 45.5315 
" clip-path="url(#pda9d00d8bc)" style="fill: none; stroke: #b0b0b0; stroke-opacity: 0.3; stroke-width: 0.8; stroke-linecap: square"/>
     </g>
     <g id="line2d_8">
      <g>
       <use xlink:href="#mcb154df2cc" x="512.0985" y="311.6435" style="stroke: #000000; stroke-width: 0.8"/>
      </g>
     </g>
     <g id="text_4">
      <!-- 150000 -->
      <g transform="translate(479.0985 333.91975) scale(0.22 -0.22)">
       <use xlink:href="#TimesNewRomanPSMT-31"/>
       <use xlink:href="#TimesNewRomanPSMT-35" transform="translate(50 0)"/>
       <use xlink:href="#TimesNewRomanPSMT-30" transform="translate(100 0)"/>
       <use xlink:href="#TimesNewRomanPSMT-30" transform="translate(150 0)"/>
       <use xlink:href="#TimesNewRomanPSMT-30" transform="translate(200 0)"/>
       <use xlink:href="#TimesNewRomanPSMT-30" transform="translate(250 0)"/>
      </g>
     </g>
    </g>
    <g id="xtick_5">
     <g id="line2d_9">
      <path d="M 601.3785 311.6435 
L 601.3785 45.5315 
" clip-path="url(#pda9d00d8bc)" style="fill: none; stroke: #b0b0b0; stroke-opacity: 0.3; stroke-width: 0.8; stroke-linecap: square"/>
     </g>
     <g id="line2d_10">
      <g>
       <use xlink:href="#mcb154df2cc" x="601.3785" y="311.6435" style="stroke: #000000; stroke-width: 0.8"/>
      </g>
     </g>
     <g id="text_5">
      <!-- 200000 -->
      <g transform="translate(568.3785 333.91975) scale(0.22 -0.22)">
       <defs>
        <path id="TimesNewRomanPSMT-32" d="M 2934 816 
L 2638 0 
L 138 0 
L 138 116 
Q 1241 1122 1691 1759 
Q 2141 2397 2141 2925 
Q 2141 3328 1894 3587 
Q 1647 3847 1303 3847 
Q 991 3847 742 3664 
Q 494 3481 375 3128 
L 259 3128 
Q 338 3706 661 4015 
Q 984 4325 1469 4325 
Q 1984 4325 2329 3994 
Q 2675 3663 2675 3213 
Q 2675 2891 2525 2569 
Q 2294 2063 1775 1497 
Q 997 647 803 472 
L 1909 472 
Q 2247 472 2383 497 
Q 2519 522 2628 598 
Q 2738 675 2819 816 
L 2934 816 
z
" transform="scale(0.015625)"/>
       </defs>
       <use xlink:href="#TimesNewRomanPSMT-32"/>
       <use xlink:href="#TimesNewRomanPSMT-30" transform="translate(50 0)"/>
       <use xlink:href="#TimesNewRomanPSMT-30" transform="translate(100 0)"/>
       <use xlink:href="#TimesNewRomanPSMT-30" transform="translate(150 0)"/>
       <use xlink:href="#TimesNewRomanPSMT-30" transform="translate(200 0)"/>
       <use xlink:href="#TimesNewRomanPSMT-30" transform="translate(250 0)"/>
      </g>
     </g>
    </g>
    <g id="text_6">
     <!-- Number of iterations -->
     <g transform="translate(331.176469 357.901937) scale(0.22 -0.22)">
      <defs>
       <path id="TimesNewRomanPSMT-4e" d="M -84 4238 
L 1066 4238 
L 3656 1059 
L 3656 3503 
Q 3656 3894 3569 3991 
Q 3453 4122 3203 4122 
L 3056 4122 
L 3056 4238 
L 4531 4238 
L 4531 4122 
L 4381 4122 
Q 4113 4122 4000 3959 
Q 3931 3859 3931 3503 
L 3931 -69 
L 3819 -69 
L 1025 3344 
L 1025 734 
Q 1025 344 1109 247 
Q 1228 116 1475 116 
L 1625 116 
L 1625 0 
L 150 0 
L 150 116 
L 297 116 
Q 569 116 681 278 
Q 750 378 750 734 
L 750 3681 
Q 566 3897 470 3965 
Q 375 4034 191 4094 
Q 100 4122 -84 4122 
L -84 4238 
z
" transform="scale(0.015625)"/>
       <path id="TimesNewRomanPSMT-75" d="M 2709 2863 
L 2709 1128 
Q 2709 631 2732 520 
Q 2756 409 2807 365 
Q 2859 322 2928 322 
Q 3025 322 3147 375 
L 3191 266 
L 2334 -88 
L 2194 -88 
L 2194 519 
Q 1825 119 1631 15 
Q 1438 -88 1222 -88 
Q 981 -88 804 51 
Q 628 191 559 409 
Q 491 628 491 1028 
L 491 2306 
Q 491 2509 447 2587 
Q 403 2666 317 2708 
Q 231 2750 6 2747 
L 6 2863 
L 1009 2863 
L 1009 947 
Q 1009 547 1148 422 
Q 1288 297 1484 297 
Q 1619 297 1789 381 
Q 1959 466 2194 703 
L 2194 2325 
Q 2194 2569 2105 2655 
Q 2016 2741 1734 2747 
L 1734 2863 
L 2709 2863 
z
" transform="scale(0.015625)"/>
       <path id="TimesNewRomanPSMT-6d" d="M 1050 2338 
Q 1363 2650 1419 2697 
Q 1559 2816 1721 2881 
Q 1884 2947 2044 2947 
Q 2313 2947 2506 2790 
Q 2700 2634 2766 2338 
Q 3088 2713 3309 2830 
Q 3531 2947 3766 2947 
Q 3994 2947 4170 2830 
Q 4347 2713 4450 2447 
Q 4519 2266 4519 1878 
L 4519 647 
Q 4519 378 4559 278 
Q 4591 209 4675 161 
Q 4759 113 4950 113 
L 4950 0 
L 3538 0 
L 3538 113 
L 3597 113 
Q 3781 113 3884 184 
Q 3956 234 3988 344 
Q 4000 397 4000 647 
L 4000 1878 
Q 4000 2228 3916 2372 
Q 3794 2572 3525 2572 
Q 3359 2572 3192 2489 
Q 3025 2406 2788 2181 
L 2781 2147 
L 2788 2013 
L 2788 647 
Q 2788 353 2820 281 
Q 2853 209 2943 161 
Q 3034 113 3253 113 
L 3253 0 
L 1806 0 
L 1806 113 
Q 2044 113 2133 169 
Q 2222 225 2256 338 
Q 2272 391 2272 647 
L 2272 1878 
Q 2272 2228 2169 2381 
Q 2031 2581 1784 2581 
Q 1616 2581 1450 2491 
Q 1191 2353 1050 2181 
L 1050 647 
Q 1050 366 1089 281 
Q 1128 197 1204 155 
Q 1281 113 1516 113 
L 1516 0 
L 100 0 
L 100 113 
Q 297 113 375 155 
Q 453 197 493 289 
Q 534 381 534 647 
L 534 1741 
Q 534 2213 506 2350 
Q 484 2453 437 2492 
Q 391 2531 309 2531 
Q 222 2531 100 2484 
L 53 2597 
L 916 2947 
L 1050 2947 
L 1050 2338 
z
" transform="scale(0.015625)"/>
       <path id="TimesNewRomanPSMT-62" d="M 984 2369 
Q 1400 2947 1881 2947 
Q 2322 2947 2650 2570 
Q 2978 2194 2978 1541 
Q 2978 778 2472 313 
Q 2038 -88 1503 -88 
Q 1253 -88 995 3 
Q 738 94 469 275 
L 469 3241 
Q 469 3728 445 3840 
Q 422 3953 372 3993 
Q 322 4034 247 4034 
Q 159 4034 28 3984 
L -16 4094 
L 844 4444 
L 984 4444 
L 984 2369 
z
M 984 2169 
L 984 456 
Q 1144 300 1314 220 
Q 1484 141 1663 141 
Q 1947 141 2192 453 
Q 2438 766 2438 1363 
Q 2438 1913 2192 2208 
Q 1947 2503 1634 2503 
Q 1469 2503 1303 2419 
Q 1178 2356 984 2169 
z
" transform="scale(0.015625)"/>
       <path id="TimesNewRomanPSMT-65" d="M 681 1784 
Q 678 1147 991 784 
Q 1303 422 1725 422 
Q 2006 422 2214 576 
Q 2422 731 2563 1106 
L 2659 1044 
Q 2594 616 2278 264 
Q 1963 -88 1488 -88 
Q 972 -88 605 314 
Q 238 716 238 1394 
Q 238 2128 614 2539 
Q 991 2950 1559 2950 
Q 2041 2950 2350 2633 
Q 2659 2316 2659 1784 
L 681 1784 
z
M 681 1966 
L 2006 1966 
Q 1991 2241 1941 2353 
Q 1863 2528 1708 2628 
Q 1553 2728 1384 2728 
Q 1125 2728 920 2526 
Q 716 2325 681 1966 
z
" transform="scale(0.015625)"/>
       <path id="TimesNewRomanPSMT-72" d="M 1038 2947 
L 1038 2303 
Q 1397 2947 1775 2947 
Q 1947 2947 2059 2842 
Q 2172 2738 2172 2600 
Q 2172 2478 2090 2393 
Q 2009 2309 1897 2309 
Q 1788 2309 1652 2417 
Q 1516 2525 1450 2525 
Q 1394 2525 1328 2463 
Q 1188 2334 1038 2041 
L 1038 669 
Q 1038 431 1097 309 
Q 1138 225 1241 169 
Q 1344 113 1538 113 
L 1538 0 
L 72 0 
L 72 113 
Q 291 113 397 181 
Q 475 231 506 341 
Q 522 394 522 644 
L 522 1753 
Q 522 2253 501 2348 
Q 481 2444 426 2487 
Q 372 2531 291 2531 
Q 194 2531 72 2484 
L 41 2597 
L 906 2947 
L 1038 2947 
z
" transform="scale(0.015625)"/>
       <path id="TimesNewRomanPSMT-20" transform="scale(0.015625)"/>
       <path id="TimesNewRomanPSMT-6f" d="M 1600 2947 
Q 2250 2947 2644 2453 
Q 2978 2031 2978 1484 
Q 2978 1100 2793 706 
Q 2609 313 2286 112 
Q 1963 -88 1566 -88 
Q 919 -88 538 428 
Q 216 863 216 1403 
Q 216 1797 411 2186 
Q 606 2575 925 2761 
Q 1244 2947 1600 2947 
z
M 1503 2744 
Q 1338 2744 1170 2645 
Q 1003 2547 900 2300 
Q 797 2053 797 1666 
Q 797 1041 1045 587 
Q 1294 134 1700 134 
Q 2003 134 2200 384 
Q 2397 634 2397 1244 
Q 2397 2006 2069 2444 
Q 1847 2744 1503 2744 
z
" transform="scale(0.015625)"/>
       <path id="TimesNewRomanPSMT-66" d="M 1319 2638 
L 1319 756 
Q 1319 356 1406 250 
Q 1522 113 1716 113 
L 1975 113 
L 1975 0 
L 266 0 
L 266 113 
L 394 113 
Q 519 113 622 175 
Q 725 238 764 344 
Q 803 450 803 756 
L 803 2638 
L 247 2638 
L 247 2863 
L 803 2863 
L 803 3050 
Q 803 3478 940 3775 
Q 1078 4072 1361 4255 
Q 1644 4438 1997 4438 
Q 2325 4438 2600 4225 
Q 2781 4084 2781 3909 
Q 2781 3816 2700 3733 
Q 2619 3650 2525 3650 
Q 2453 3650 2373 3701 
Q 2294 3753 2178 3923 
Q 2063 4094 1966 4153 
Q 1869 4213 1750 4213 
Q 1606 4213 1506 4136 
Q 1406 4059 1362 3898 
Q 1319 3738 1319 3069 
L 1319 2863 
L 2056 2863 
L 2056 2638 
L 1319 2638 
z
" transform="scale(0.015625)"/>
       <path id="TimesNewRomanPSMT-69" d="M 928 4444 
Q 1059 4444 1151 4351 
Q 1244 4259 1244 4128 
Q 1244 3997 1151 3903 
Q 1059 3809 928 3809 
Q 797 3809 703 3903 
Q 609 3997 609 4128 
Q 609 4259 701 4351 
Q 794 4444 928 4444 
z
M 1188 2947 
L 1188 647 
Q 1188 378 1227 289 
Q 1266 200 1342 156 
Q 1419 113 1622 113 
L 1622 0 
L 231 0 
L 231 113 
Q 441 113 512 153 
Q 584 194 626 287 
Q 669 381 669 647 
L 669 1750 
Q 669 2216 641 2353 
Q 619 2453 572 2492 
Q 525 2531 444 2531 
Q 356 2531 231 2484 
L 188 2597 
L 1050 2947 
L 1188 2947 
z
" transform="scale(0.015625)"/>
       <path id="TimesNewRomanPSMT-74" d="M 1031 3803 
L 1031 2863 
L 1700 2863 
L 1700 2644 
L 1031 2644 
L 1031 788 
Q 1031 509 1111 412 
Q 1191 316 1316 316 
Q 1419 316 1516 380 
Q 1613 444 1666 569 
L 1788 569 
Q 1678 263 1478 108 
Q 1278 -47 1066 -47 
Q 922 -47 784 33 
Q 647 113 581 261 
Q 516 409 516 719 
L 516 2644 
L 63 2644 
L 63 2747 
Q 234 2816 414 2980 
Q 594 3144 734 3369 
Q 806 3488 934 3803 
L 1031 3803 
z
" transform="scale(0.015625)"/>
       <path id="TimesNewRomanPSMT-61" d="M 1822 413 
Q 1381 72 1269 19 
Q 1100 -59 909 -59 
Q 613 -59 420 144 
Q 228 347 228 678 
Q 228 888 322 1041 
Q 450 1253 767 1440 
Q 1084 1628 1822 1897 
L 1822 2009 
Q 1822 2438 1686 2597 
Q 1550 2756 1291 2756 
Q 1094 2756 978 2650 
Q 859 2544 859 2406 
L 866 2225 
Q 866 2081 792 2003 
Q 719 1925 600 1925 
Q 484 1925 411 2006 
Q 338 2088 338 2228 
Q 338 2497 613 2722 
Q 888 2947 1384 2947 
Q 1766 2947 2009 2819 
Q 2194 2722 2281 2516 
Q 2338 2381 2338 1966 
L 2338 994 
Q 2338 584 2353 492 
Q 2369 400 2405 369 
Q 2441 338 2488 338 
Q 2538 338 2575 359 
Q 2641 400 2828 588 
L 2828 413 
Q 2478 -56 2159 -56 
Q 2006 -56 1915 50 
Q 1825 156 1822 413 
z
M 1822 616 
L 1822 1706 
Q 1350 1519 1213 1441 
Q 966 1303 859 1153 
Q 753 1003 753 825 
Q 753 600 887 451 
Q 1022 303 1197 303 
Q 1434 303 1822 616 
z
" transform="scale(0.015625)"/>
       <path id="TimesNewRomanPSMT-6e" d="M 1034 2341 
Q 1538 2947 1994 2947 
Q 2228 2947 2397 2830 
Q 2566 2713 2666 2444 
Q 2734 2256 2734 1869 
L 2734 647 
Q 2734 375 2778 278 
Q 2813 200 2889 156 
Q 2966 113 3172 113 
L 3172 0 
L 1756 0 
L 1756 113 
L 1816 113 
Q 2016 113 2095 173 
Q 2175 234 2206 353 
Q 2219 400 2219 647 
L 2219 1819 
Q 2219 2209 2117 2386 
Q 2016 2563 1775 2563 
Q 1403 2563 1034 2156 
L 1034 647 
Q 1034 356 1069 288 
Q 1113 197 1189 155 
Q 1266 113 1500 113 
L 1500 0 
L 84 0 
L 84 113 
L 147 113 
Q 366 113 442 223 
Q 519 334 519 647 
L 519 1709 
Q 519 2225 495 2337 
Q 472 2450 423 2490 
Q 375 2531 294 2531 
Q 206 2531 84 2484 
L 38 2597 
L 900 2947 
L 1034 2947 
L 1034 2341 
z
" transform="scale(0.015625)"/>
       <path id="TimesNewRomanPSMT-73" d="M 2050 2947 
L 2050 1972 
L 1947 1972 
Q 1828 2431 1642 2597 
Q 1456 2763 1169 2763 
Q 950 2763 815 2647 
Q 681 2531 681 2391 
Q 681 2216 781 2091 
Q 878 1963 1175 1819 
L 1631 1597 
Q 2266 1288 2266 781 
Q 2266 391 1970 151 
Q 1675 -88 1309 -88 
Q 1047 -88 709 6 
Q 606 38 541 38 
Q 469 38 428 -44 
L 325 -44 
L 325 978 
L 428 978 
Q 516 541 762 319 
Q 1009 97 1316 97 
Q 1531 97 1667 223 
Q 1803 350 1803 528 
Q 1803 744 1651 891 
Q 1500 1038 1047 1263 
Q 594 1488 453 1669 
Q 313 1847 313 2119 
Q 313 2472 555 2709 
Q 797 2947 1181 2947 
Q 1350 2947 1591 2875 
Q 1750 2828 1803 2828 
Q 1853 2828 1881 2850 
Q 1909 2872 1947 2947 
L 2050 2947 
z
" transform="scale(0.015625)"/>
      </defs>
      <use xlink:href="#TimesNewRomanPSMT-4e"/>
      <use xlink:href="#TimesNewRomanPSMT-75" transform="translate(72.216797 0)"/>
      <use xlink:href="#TimesNewRomanPSMT-6d" transform="translate(122.216797 0)"/>
      <use xlink:href="#TimesNewRomanPSMT-62" transform="translate(200 0)"/>
      <use xlink:href="#TimesNewRomanPSMT-65" transform="translate(250 0)"/>
      <use xlink:href="#TimesNewRomanPSMT-72" transform="translate(294.384766 0)"/>
      <use xlink:href="#TimesNewRomanPSMT-20" transform="translate(327.685547 0)"/>
      <use xlink:href="#TimesNewRomanPSMT-6f" transform="translate(352.685547 0)"/>
      <use xlink:href="#TimesNewRomanPSMT-66" transform="translate(402.685547 0)"/>
      <use xlink:href="#TimesNewRomanPSMT-20" transform="translate(435.986328 0)"/>
      <use xlink:href="#TimesNewRomanPSMT-69" transform="translate(460.986328 0)"/>
      <use xlink:href="#TimesNewRomanPSMT-74" transform="translate(488.769531 0)"/>
      <use xlink:href="#TimesNewRomanPSMT-65" transform="translate(516.552734 0)"/>
      <use xlink:href="#TimesNewRomanPSMT-72" transform="translate(560.9375 0)"/>
      <use xlink:href="#TimesNewRomanPSMT-61" transform="translate(594.238281 0)"/>
      <use xlink:href="#TimesNewRomanPSMT-74" transform="translate(638.623047 0)"/>
      <use xlink:href="#TimesNewRomanPSMT-69" transform="translate(666.40625 0)"/>
      <use xlink:href="#TimesNewRomanPSMT-6f" transform="translate(694.189453 0)"/>
      <use xlink:href="#TimesNewRomanPSMT-6e" transform="translate(744.189453 0)"/>
      <use xlink:href="#TimesNewRomanPSMT-73" transform="translate(794.189453 0)"/>
     </g>
    </g>
   </g>
   <g id="matplotlib.axis_2">
    <g id="ytick_1">
     <g id="line2d_11">
      <path d="M 244.2585 311.6435 
L 601.3785 311.6435 
" clip-path="url(#pda9d00d8bc)" style="fill: none; stroke: #b0b0b0; stroke-opacity: 0.3; stroke-width: 0.8; stroke-linecap: square"/>
     </g>
     <g id="line2d_12">
      <defs>
       <path id="m94770f57b8" d="M 0 0 
L -3.5 0 
" style="stroke: #000000; stroke-width: 0.8"/>
      </defs>
      <g>
       <use xlink:href="#m94770f57b8" x="244.2585" y="311.6435" style="stroke: #000000; stroke-width: 0.8"/>
      </g>
     </g>
     <g id="text_7">
      <!-- 0.0 -->
      <g transform="translate(209.7585 319.281625) scale(0.22 -0.22)">
       <defs>
        <path id="TimesNewRomanPSMT-2e" d="M 800 606 
Q 947 606 1047 504 
Q 1147 403 1147 259 
Q 1147 116 1045 14 
Q 944 -88 800 -88 
Q 656 -88 554 14 
Q 453 116 453 259 
Q 453 406 554 506 
Q 656 606 800 606 
z
" transform="scale(0.015625)"/>
       </defs>
       <use xlink:href="#TimesNewRomanPSMT-30"/>
       <use xlink:href="#TimesNewRomanPSMT-2e" transform="translate(50 0)"/>
       <use xlink:href="#TimesNewRomanPSMT-30" transform="translate(75 0)"/>
      </g>
     </g>
    </g>
    <g id="ytick_2">
     <g id="line2d_13">
      <path d="M 244.2585 261.574733 
L 601.3785 261.574733 
" clip-path="url(#pda9d00d8bc)" style="fill: none; stroke: #b0b0b0; stroke-opacity: 0.3; stroke-width: 0.8; stroke-linecap: square"/>
     </g>
     <g id="line2d_14">
      <g>
       <use xlink:href="#m94770f57b8" x="244.2585" y="261.574733" style="stroke: #000000; stroke-width: 0.8"/>
      </g>
     </g>
     <g id="text_8">
      <!-- 0.1 -->
      <g transform="translate(209.7585 269.212858) scale(0.22 -0.22)">
       <use xlink:href="#TimesNewRomanPSMT-30"/>
       <use xlink:href="#TimesNewRomanPSMT-2e" transform="translate(50 0)"/>
       <use xlink:href="#TimesNewRomanPSMT-31" transform="translate(75 0)"/>
      </g>
     </g>
    </g>
    <g id="ytick_3">
     <g id="line2d_15">
      <path d="M 244.2585 211.505966 
L 601.3785 211.505966 
" clip-path="url(#pda9d00d8bc)" style="fill: none; stroke: #b0b0b0; stroke-opacity: 0.3; stroke-width: 0.8; stroke-linecap: square"/>
     </g>
     <g id="line2d_16">
      <g>
       <use xlink:href="#m94770f57b8" x="244.2585" y="211.505966" style="stroke: #000000; stroke-width: 0.8"/>
      </g>
     </g>
     <g id="text_9">
      <!-- 0.2 -->
      <g transform="translate(209.7585 219.144091) scale(0.22 -0.22)">
       <use xlink:href="#TimesNewRomanPSMT-30"/>
       <use xlink:href="#TimesNewRomanPSMT-2e" transform="translate(50 0)"/>
       <use xlink:href="#TimesNewRomanPSMT-32" transform="translate(75 0)"/>
      </g>
     </g>
    </g>
    <g id="ytick_4">
     <g id="line2d_17">
      <path d="M 244.2585 161.437199 
L 601.3785 161.437199 
" clip-path="url(#pda9d00d8bc)" style="fill: none; stroke: #b0b0b0; stroke-opacity: 0.3; stroke-width: 0.8; stroke-linecap: square"/>
     </g>
     <g id="line2d_18">
      <g>
       <use xlink:href="#m94770f57b8" x="244.2585" y="161.437199" style="stroke: #000000; stroke-width: 0.8"/>
      </g>
     </g>
     <g id="text_10">
      <!-- 0.3 -->
      <g transform="translate(209.7585 169.075324) scale(0.22 -0.22)">
       <defs>
        <path id="TimesNewRomanPSMT-33" d="M 325 3431 
Q 506 3859 782 4092 
Q 1059 4325 1472 4325 
Q 1981 4325 2253 3994 
Q 2459 3747 2459 3466 
Q 2459 3003 1878 2509 
Q 2269 2356 2469 2072 
Q 2669 1788 2669 1403 
Q 2669 853 2319 450 
Q 1863 -75 997 -75 
Q 569 -75 414 31 
Q 259 138 259 259 
Q 259 350 332 419 
Q 406 488 509 488 
Q 588 488 669 463 
Q 722 447 909 348 
Q 1097 250 1169 231 
Q 1284 197 1416 197 
Q 1734 197 1970 444 
Q 2206 691 2206 1028 
Q 2206 1275 2097 1509 
Q 2016 1684 1919 1775 
Q 1784 1900 1550 2001 
Q 1316 2103 1072 2103 
L 972 2103 
L 972 2197 
Q 1219 2228 1467 2375 
Q 1716 2522 1828 2728 
Q 1941 2934 1941 3181 
Q 1941 3503 1739 3701 
Q 1538 3900 1238 3900 
Q 753 3900 428 3381 
L 325 3431 
z
" transform="scale(0.015625)"/>
       </defs>
       <use xlink:href="#TimesNewRomanPSMT-30"/>
       <use xlink:href="#TimesNewRomanPSMT-2e" transform="translate(50 0)"/>
       <use xlink:href="#TimesNewRomanPSMT-33" transform="translate(75 0)"/>
      </g>
     </g>
    </g>
    <g id="ytick_5">
     <g id="line2d_19">
      <path d="M 244.2585 111.368432 
L 601.3785 111.368432 
" clip-path="url(#pda9d00d8bc)" style="fill: none; stroke: #b0b0b0; stroke-opacity: 0.3; stroke-width: 0.8; stroke-linecap: square"/>
     </g>
     <g id="line2d_20">
      <g>
       <use xlink:href="#m94770f57b8" x="244.2585" y="111.368432" style="stroke: #000000; stroke-width: 0.8"/>
      </g>
     </g>
     <g id="text_11">
      <!-- 0.4 -->
      <g transform="translate(209.7585 119.006557) scale(0.22 -0.22)">
       <defs>
        <path id="TimesNewRomanPSMT-34" d="M 2978 1563 
L 2978 1119 
L 2409 1119 
L 2409 0 
L 1894 0 
L 1894 1119 
L 100 1119 
L 100 1519 
L 2066 4325 
L 2409 4325 
L 2409 1563 
L 2978 1563 
z
M 1894 1563 
L 1894 3666 
L 406 1563 
L 1894 1563 
z
" transform="scale(0.015625)"/>
       </defs>
       <use xlink:href="#TimesNewRomanPSMT-30"/>
       <use xlink:href="#TimesNewRomanPSMT-2e" transform="translate(50 0)"/>
       <use xlink:href="#TimesNewRomanPSMT-34" transform="translate(75 0)"/>
      </g>
     </g>
    </g>
    <g id="ytick_6">
     <g id="line2d_21">
      <path d="M 244.2585 61.299666 
L 601.3785 61.299666 
" clip-path="url(#pda9d00d8bc)" style="fill: none; stroke: #b0b0b0; stroke-opacity: 0.3; stroke-width: 0.8; stroke-linecap: square"/>
     </g>
     <g id="line2d_22">
      <g>
       <use xlink:href="#m94770f57b8" x="244.2585" y="61.299666" style="stroke: #000000; stroke-width: 0.8"/>
      </g>
     </g>
     <g id="text_12">
      <!-- 0.5 -->
      <g transform="translate(209.7585 68.937791) scale(0.22 -0.22)">
       <use xlink:href="#TimesNewRomanPSMT-30"/>
       <use xlink:href="#TimesNewRomanPSMT-2e" transform="translate(50 0)"/>
       <use xlink:href="#TimesNewRomanPSMT-35" transform="translate(75 0)"/>
      </g>
     </g>
    </g>
    <g id="text_13">
     <!-- Loss -->
     <g transform="translate(201.052563 199.368906) rotate(-90) scale(0.22 -0.22)">
      <defs>
       <path id="TimesNewRomanPSMT-4c" d="M 3669 1172 
L 3772 1150 
L 3409 0 
L 128 0 
L 128 116 
L 288 116 
Q 556 116 672 291 
Q 738 391 738 753 
L 738 3488 
Q 738 3884 650 3984 
Q 528 4122 288 4122 
L 128 4122 
L 128 4238 
L 2047 4238 
L 2047 4122 
Q 1709 4125 1573 4059 
Q 1438 3994 1388 3894 
Q 1338 3794 1338 3416 
L 1338 753 
Q 1338 494 1388 397 
Q 1425 331 1503 300 
Q 1581 269 1991 269 
L 2300 269 
Q 2788 269 2984 341 
Q 3181 413 3343 595 
Q 3506 778 3669 1172 
z
" transform="scale(0.015625)"/>
      </defs>
      <use xlink:href="#TimesNewRomanPSMT-4c"/>
      <use xlink:href="#TimesNewRomanPSMT-6f" transform="translate(61.083984 0)"/>
      <use xlink:href="#TimesNewRomanPSMT-73" transform="translate(111.083984 0)"/>
      <use xlink:href="#TimesNewRomanPSMT-73" transform="translate(150 0)"/>
     </g>
    </g>
   </g>
   <g id="line2d_23">
    <path d="M 244.2585 51.538963 
L 244.383498 61.299695 
L 247.097746 61.406878 
L 247.115603 62.00073 
L 247.240601 197.695838 
L 247.472741 222.157811 
L 247.776308 235.473575 
L 247.829879 236.790687 
L 248.062018 243.131324 
L 248.079875 242.805778 
L 248.097732 243.863731 
L 248.45487 250.708253 
L 248.490584 250.549972 
L 248.597725 252.465707 
L 248.919149 257.21699 
L 248.97272 257.197983 
L 249.365571 262.091454 
L 249.401285 261.935161 
L 249.615568 264.240945 
L 249.686995 264.031788 
L 249.811994 266.01385 
L 249.829851 265.563686 
L 249.883421 266.513353 
L 250.097704 268.094679 
L 250.115561 267.218688 
L 250.186988 268.790416 
L 250.81198 272.837937 
L 250.829837 272.566565 
L 250.883407 273.315624 
L 250.936978 273.032687 
L 251.151261 274.829601 
L 251.169118 274.234511 
L 251.240545 275.311504 
L 251.61554 277.197153 
L 251.633397 276.740719 
L 251.704824 277.693269 
L 251.776252 277.984524 
L 251.794109 275.821705 
L 251.865536 278.470993 
L 252.079819 279.413191 
L 252.097676 278.94026 
L 252.169104 279.839969 
L 252.276245 280.26399 
L 252.311959 280.123488 
L 252.454814 280.94972 
L 252.65124 281.767895 
L 252.70481 282.014263 
L 252.722667 281.882007 
L 252.740524 281.587095 
L 252.794095 282.358211 
L 252.847665 282.542948 
L 252.865522 282.477435 
L 252.883379 282.262143 
L 252.93695 282.904304 
L 252.990521 282.754446 
L 253.079805 283.384727 
L 253.097662 282.859338 
L 253.16909 283.703879 
L 253.365515 284.350235 
L 253.383372 283.984531 
L 253.4548 284.655428 
L 253.526227 284.833907 
L 253.544084 284.299423 
L 253.615512 285.149819 
L 253.794081 285.684033 
L 253.704796 285.100113 
L 253.811938 285.651748 
L 253.829795 285.133724 
L 253.901222 285.998914 
L 254.008363 286.265933 
L 254.044077 286.213707 
L 254.186932 286.767409 
L 254.204789 286.617737 
L 254.25836 286.929947 
L 254.311931 287.131792 
L 254.329788 286.565843 
L 254.401215 287.381506 
L 254.633355 287.989977 
L 254.651212 287.973442 
L 254.669069 287.555977 
L 254.740496 288.294075 
L 254.77621 288.357994 
L 254.794067 288.04087 
L 254.865494 288.597421 
L 254.901208 288.699836 
L 254.919065 288.528653 
L 254.936922 288.39856 
L 254.972636 288.896089 
L 255.008349 288.983325 
L 255.026206 289.024953 
L 255.044063 288.983153 
L 255.06192 288.483358 
L 255.133348 289.285069 
L 255.169062 289.337181 
L 255.186918 289.309716 
L 255.204775 289.165379 
L 255.258346 289.503492 
L 255.29406 289.645028 
L 255.311917 289.499144 
L 255.329774 289.261386 
L 255.383344 289.880174 
L 255.561913 290.316006 
L 255.454772 289.83091 
L 255.57977 290.266692 
L 255.597627 289.521213 
L 255.669055 290.577917 
L 255.794053 290.858962 
L 255.81191 290.810978 
L 255.829767 290.574794 
L 255.901194 291.093736 
L 255.936908 290.781907 
L 255.954765 291.22622 
L 255.972622 291.170506 
L 256.079763 291.46615 
L 256.09762 291.35191 
L 256.115477 291.332154 
L 256.186904 291.716773 
L 256.204761 291.685476 
L 256.222618 291.178881 
L 256.294046 291.920291 
L 256.436901 292.225389 
L 256.38333 291.852491 
L 256.454758 292.215247 
L 256.472615 292.080656 
L 256.508328 292.342296 
L 256.526185 292.321167 
L 256.561899 292.450187 
L 256.579756 292.369644 
L 256.597613 291.919263 
L 256.669041 292.655209 
L 256.722611 292.705799 
L 256.740468 292.515695 
L 256.811896 292.91498 
L 256.847609 292.714718 
L 256.883323 292.991063 
L 256.936894 293.141789 
L 256.954751 293.119237 
L 256.972608 292.237553 
L 257.044035 293.302316 
L 257.240461 293.650936 
L 257.258318 293.633034 
L 257.276175 293.063157 
L 257.347602 293.824884 
L 257.615456 294.213432 
L 257.633313 294.158737 
L 257.65117 293.840454 
L 257.722597 294.387704 
L 257.758311 294.435815 
L 257.776168 294.259298 
L 257.794025 294.104676 
L 257.847595 294.571166 
L 257.901166 294.636678 
L 257.919023 294.591029 
L 257.93688 294.427168 
L 257.990451 294.757315 
L 258.026164 294.837672 
L 258.044021 294.763443 
L 258.061878 293.773755 
L 258.133306 294.993369 
L 258.347588 295.283561 
L 258.365445 295.239839 
L 258.383302 295.051977 
L 258.45473 295.419074 
L 258.490444 295.26412 
L 258.526157 295.492395 
L 258.544014 295.470429 
L 258.579728 295.558552 
L 258.597585 295.524216 
L 258.615442 295.295581 
L 258.669013 295.704393 
L 258.686869 295.690242 
L 258.829725 295.909161 
L 258.74044 295.620104 
L 258.847581 295.87608 
L 258.865438 295.334978 
L 258.936866 296.04283 
L 259.115435 296.234061 
L 259.133292 295.980212 
L 259.204719 296.353399 
L 259.276147 296.461117 
L 259.294004 296.415088 
L 259.311861 296.214118 
L 259.383288 296.582229 
L 259.419002 296.44234 
L 259.454716 296.66089 
L 259.472573 296.616111 
L 259.508286 296.716988 
L 259.544 296.784527 
L 259.561857 296.596259 
L 259.579714 295.535913 
L 259.651142 296.915062 
L 259.936852 297.20821 
L 259.954709 297.173139 
L 259.972566 296.874085 
L 260.043993 297.355165 
L 260.097564 297.381435 
L 260.133278 297.210271 
L 260.186848 297.50072 
L 260.258276 297.43114 
L 260.365417 297.701033 
L 260.383274 297.664407 
L 260.401131 297.634483 
L 260.418988 297.7025 
L 260.454702 297.811926 
L 260.472559 297.675693 
L 260.490416 297.034302 
L 260.561843 297.949051 
L 260.776126 298.200619 
L 260.793983 298.028958 
L 260.81184 296.561861 
L 260.901124 298.337276 
L 261.151121 298.584497 
L 261.168978 298.565846 
L 261.186834 298.548197 
L 261.222548 298.663194 
L 261.240405 298.682147 
L 261.258262 298.568511 
L 261.276119 297.900982 
L 261.347546 298.798048 
L 261.561829 299.004062 
L 261.597543 296.519466 
L 261.651114 299.076371 
L 261.865396 299.310127 
L 262.258248 299.728951 
L 262.276105 299.681066 
L 262.311819 295.964767 
L 262.383246 299.828988 
L 262.472531 299.900783 
L 263.758227 300.944169 
L 263.793941 301.021107 
L 263.811798 300.9891 
L 263.847511 299.353958 
L 263.918939 300.94927 
L 264.043937 301.165715 
L 265.633201 302.086648 
L 266.293906 302.553365 
L 266.311763 302.370569 
L 266.347476 279.145899 
L 266.418904 302.380007 
L 266.561759 302.637238 
L 269.579574 303.634054 
L 270.8117 304.183839 
L 270.847413 303.385619 
L 270.900984 304.244902 
L 271.09741 304.343169 
L 271.347406 304.422605 
L 271.400977 299.620873 
L 271.454548 304.457786 
L 271.650974 304.538671 
L 274.472363 305.226351 
L 275.883057 305.704419 
L 275.900914 305.394627 
L 275.918771 283.845288 
L 276.008055 305.579408 
L 276.400907 305.782888 
L 281.829403 306.627174 
L 282.007971 306.657204 
L 282.025828 306.533116 
L 282.043685 208.780532 
L 282.13297 306.567511 
L 282.293682 306.699666 
L 288.1686 307.40175 
L 288.186456 307.292405 
L 288.204313 115.966926 
L 288.293598 306.614377 
L 288.418596 307.399711 
L 289.097158 307.456598 
L 293.204243 307.755497 
L 295.097074 307.901091 
L 295.132788 269.101883 
L 295.204215 307.365785 
L 295.329214 308.032692 
L 296.204201 308.079527 
L 302.061262 308.372085 
L 302.846965 308.426755 
L 302.864822 308.115944 
L 302.954107 61.304411 
L 303.061248 61.329225 
L 303.168389 61.583192 
L 303.329102 62.16448 
L 303.346958 64.123037 
L 303.50767 307.585223 
L 303.686239 308.058843 
L 304.02552 308.247378 
L 304.864794 308.38194 
L 310.168291 308.810716 
L 310.186148 308.6626 
L 310.204005 223.045306 
L 310.29329 308.430188 
L 310.436145 308.794777 
L 310.989709 308.84777 
L 317.382476 309.169164 
L 318.989597 309.239746 
L 319.007453 308.908683 
L 319.02531 294.412847 
L 319.078881 309.073971 
L 319.114595 309.052418 
L 319.239593 309.254228 
L 320.186008 309.290001 
L 326.32878 309.486938 
L 328.114469 309.577648 
L 328.810888 309.554672 
L 328.864458 61.590205 
L 328.935886 61.695045 
L 329.346594 62.274661 
L 329.382308 63.007703 
L 329.400165 65.39857 
L 329.614448 309.444135 
L 329.864444 309.556785 
L 330.793003 309.618065 
L 337.400053 309.784442 
L 337.41791 170.824213 
L 337.507194 309.080283 
L 337.65005 309.761977 
L 338.185756 309.811798 
L 348.042761 310.004189 
L 348.060618 309.97866 
L 348.078475 188.266583 
L 348.167759 309.64098 
L 348.292758 309.991306 
L 349.346314 310.016635 
L 358.685469 310.175939 
L 359.399745 310.179193 
L 359.417602 70.600139 
L 359.506886 309.020197 
L 359.631885 310.151386 
L 360.256876 310.195348 
L 370.274593 310.39996 
L 370.310307 62.857233 
L 370.399591 279.422562 
L 370.524589 310.23378 
L 370.756729 310.343946 
L 371.61386 310.401688 
L 381.792289 310.51511 
L 381.810146 310.489499 
L 381.828002 153.245503 
L 381.917287 309.913739 
L 382.042285 310.479571 
L 382.93513 310.516266 
L 395.113531 310.564515 
L 395.131388 310.45281 
L 395.167101 62.922231 
L 395.238529 242.590779 
L 395.363527 310.403828 
L 395.559953 310.499735 
L 396.399227 310.557764 
L 402.64914 310.580594 
L 408.5062 310.647636 
L 408.524057 285.45654 
L 408.613342 310.240649 
L 408.73834 310.639331 
L 411.6133 310.655356 
L 423.595275 310.709646 
L 423.630989 263.153354 
L 423.702416 310.45984 
L 423.827414 310.708591 
L 426.059526 310.73023 
L 438.880775 310.753863 
L 438.898632 252.66017 
L 438.987916 310.710726 
L 439.220056 310.7855 
L 442.93429 310.803182 
L 454.184132 310.820515 
L 454.201989 310.595162 
L 454.219846 232.31619 
L 454.309131 310.717137 
L 454.451986 310.799385 
L 456.487671 310.821795 
L 471.166037 310.805957 
L 471.183894 259.433859 
L 471.273179 310.809718 
L 471.701744 310.829245 
L 481.14804 310.840945 
L 488.73722 310.845741 
L 488.755077 290.618332 
L 488.844361 310.835649 
L 488.862218 310.795996 
L 488.951503 310.840782 
L 494.02286 310.850755 
L 507.308388 310.836406 
L 507.326245 288.5891 
L 507.397673 310.84263 
L 507.41553 310.822832 
L 507.558385 310.854034 
L 517.736814 310.860752 
L 525.718845 310.862595 
L 525.754559 63.93865 
L 525.825986 307.937082 
L 525.843843 307.743767 
L 525.968842 310.841262 
L 527.70096 310.861588 
L 544.736436 310.905058 
L 544.754293 309.847353 
L 544.843577 310.917459 
L 545.682851 310.920071 
L 563.200463 310.959089 
L 563.21832 167.22308 
L 563.307604 310.885471 
L 563.325461 310.842142 
L 563.379032 310.940214 
L 563.396889 310.944815 
L 564.039737 310.964257 
L 581.289496 310.976686 
L 584.575164 310.97811 
L 584.593021 116.822369 
L 584.682305 310.72572 
L 584.807303 310.969243 
L 593.950033 310.978885 
L 601.3785 310.979576 
L 601.3785 310.979576 
" clip-path="url(#pda9d00d8bc)" style="fill: none; stroke: #ffa500; stroke-width: 1.5; stroke-linecap: square"/>
   </g>
   <g id="line2d_24">
    <path d="M 244.2585 50.538377 
L 244.276357 61.320675 
L 244.383498 61.300143 
L 247.097746 61.406057 
L 247.115603 62.80917 
L 247.240601 191.808954 
L 247.472741 203.79549 
L 247.490598 203.600002 
L 247.508454 204.615689 
L 247.812022 209.012698 
L 247.829879 208.775996 
L 247.865592 209.544297 
L 248.044161 210.926624 
L 247.901306 209.50891 
L 248.062018 210.888723 
L 248.079875 210.285314 
L 248.151303 211.480643 
L 248.187016 211.59933 
L 248.204873 211.589847 
L 248.22273 210.104956 
L 248.294158 212.05923 
L 248.312015 211.99638 
L 248.347728 212.224308 
L 248.437013 212.575452 
L 248.401299 211.956778 
L 248.472727 212.378964 
L 248.490584 211.963023 
L 248.50844 212.789906 
L 248.544154 212.67724 
L 248.669153 213.223119 
L 248.615582 212.590262 
L 248.687009 213.214703 
L 248.704866 212.697078 
L 248.776294 213.547628 
L 248.847721 213.139341 
L 248.865578 213.648036 
L 248.919149 213.909157 
L 248.954863 213.633905 
L 248.97272 213.213263 
L 248.990577 214.115441 
L 249.02629 214.03091 
L 249.097718 214.351726 
L 249.133432 214.162564 
L 249.151289 213.523581 
L 249.187002 214.515528 
L 249.222716 214.445837 
L 249.383428 214.970482 
L 249.294144 214.29289 
L 249.401285 214.952546 
L 249.419142 214.472927 
L 249.454856 215.053939 
L 249.508426 214.72858 
L 249.669139 215.53361 
L 249.704852 215.078299 
L 249.722709 215.603235 
L 249.758423 215.459219 
L 249.794137 215.643755 
L 249.811994 215.618821 
L 249.829851 215.05811 
L 249.901278 215.907047 
L 249.972706 215.558559 
L 249.990563 215.870474 
L 250.044133 216.200213 
L 250.097704 216.046998 
L 250.115561 215.25374 
L 250.186988 216.459924 
L 250.258416 216.20992 
L 250.276273 216.457574 
L 250.383414 216.424433 
L 250.419128 216.93271 
L 250.454842 216.996045 
L 250.490556 216.923391 
L 250.508412 216.626152 
L 250.544126 217.163689 
L 250.57984 217.050628 
L 250.740552 217.42361 
L 250.829837 217.02697 
L 250.954835 217.734279 
L 250.972692 217.765241 
L 250.990549 217.641354 
L 251.026262 217.6979 
L 251.061976 217.435219 
L 251.079833 217.911943 
L 251.169118 217.850787 
L 251.347686 218.380483 
L 251.365543 218.153614 
L 251.401257 218.474042 
L 251.454828 218.259028 
L 251.597683 218.711438 
L 251.61554 218.678581 
L 251.633397 218.279352 
L 251.669111 218.881299 
L 251.704824 218.864885 
L 251.758395 218.983348 
L 251.776252 218.90442 
L 251.794109 217.3865 
L 251.883393 219.19872 
L 252.061962 219.434318 
L 252.079819 219.390985 
L 252.097676 218.971403 
L 252.169104 219.557026 
L 252.258388 219.648951 
L 252.276245 219.602134 
L 252.311959 219.396357 
L 252.365529 219.744464 
L 252.401243 219.742838 
L 252.436957 219.386382 
L 252.490528 219.837799 
L 252.579812 219.909102 
L 252.597669 219.884497 
L 252.615526 219.709518 
L 252.686953 220.041644 
L 252.70481 220.054141 
L 252.722667 219.997722 
L 252.758381 219.849819 
L 252.794095 220.106479 
L 252.811952 220.065384 
L 252.847665 220.087252 
L 252.865522 219.976399 
L 252.883379 219.78526 
L 252.901236 220.164002 
L 252.990521 219.832017 
L 253.115519 220.253651 
L 253.133376 220.213385 
L 253.186946 220.296521 
L 253.276231 220.350657 
L 253.294088 220.281472 
L 253.311945 220.257284 
L 253.329802 220.33581 
L 253.347658 220.399958 
L 253.365515 220.393601 
L 253.383372 220.076785 
L 253.4548 220.507356 
L 253.50837 220.531641 
L 253.526227 220.484079 
L 253.544084 220.056372 
L 253.615512 220.618023 
L 253.669083 220.651611 
L 253.686939 220.554218 
L 253.722653 220.534544 
L 253.794081 220.727883 
L 253.811938 220.709567 
L 253.829795 220.435553 
L 253.901222 220.785175 
L 253.919079 220.760845 
L 253.97265 220.619052 
L 253.990507 220.832186 
L 254.061934 220.915553 
L 254.079791 220.88148 
L 254.115505 220.638421 
L 254.169076 220.980552 
L 254.204789 220.791032 
L 254.240503 221.039224 
L 254.25836 221.038194 
L 254.311931 221.092233 
L 254.329788 220.806245 
L 254.347644 221.142899 
L 254.419072 221.125672 
L 254.651212 221.14087 
L 254.669069 220.785011 
L 254.704782 221.296272 
L 254.740496 221.288468 
L 254.794067 221.201728 
L 254.883351 221.400074 
L 254.919065 221.184501 
L 254.936922 221.070902 
L 254.972636 221.456045 
L 254.990493 221.396724 
L 255.115491 221.541427 
L 255.06192 221.236339 
L 255.133348 221.519776 
L 255.204775 221.271054 
L 255.222632 221.53228 
L 255.29406 221.604553 
L 255.311917 221.539211 
L 255.34763 221.40185 
L 255.383344 221.638851 
L 255.419058 221.568338 
L 255.454772 221.387227 
L 255.490486 221.668343 
L 255.57977 221.682728 
L 255.597627 221.305098 
L 255.686911 221.748002 
L 255.740482 221.647132 
L 255.758339 221.543941 
L 255.794053 221.801885 
L 255.829767 221.690741 
L 255.954765 221.869517 
L 255.972622 221.751084 
L 256.008335 221.906784 
L 256.044049 221.880059 
L 256.061906 221.937328 
L 256.09762 221.728806 
L 256.115477 221.700201 
L 256.186904 222.008818 
L 256.240475 221.995724 
L 256.508328 222.121924 
L 256.561899 222.153155 
L 256.597613 221.633598 
L 256.704754 222.248833 
L 256.722611 222.246923 
L 256.776182 222.146515 
L 256.811896 222.280131 
L 256.847609 222.188796 
L 256.936894 222.281623 
L 256.954751 222.206985 
L 256.972608 221.426538 
L 257.061892 222.325724 
L 257.18689 222.322882 
L 257.258318 222.362364 
L 257.276175 222.065684 
L 257.365459 222.395938 
L 257.454744 222.232344 
L 257.472601 222.246281 
L 257.508314 222.45179 
L 257.597599 222.406741 
L 257.615456 222.431153 
L 257.633313 222.34507 
L 257.65117 222.03223 
L 257.686883 222.527174 
L 257.722597 222.49504 
L 257.758311 222.555503 
L 257.794025 222.415538 
L 257.811882 222.361006 
L 257.829739 222.579467 
L 257.865452 222.533098 
L 257.919023 222.452625 
L 257.93688 222.273051 
L 257.990451 222.640653 
L 258.008307 222.633991 
L 258.044021 222.63931 
L 258.061878 222.093909 
L 258.151163 222.692536 
L 258.276161 222.656686 
L 258.311875 222.512625 
L 258.347588 222.751819 
L 258.401159 222.770181 
L 258.419016 222.623187 
L 258.5083 222.789892 
L 258.615442 222.396274 
L 258.651156 222.805373 
L 258.722583 222.714209 
L 258.758297 222.563419 
L 258.776154 222.834015 
L 258.811868 222.828151 
L 258.847581 222.720939 
L 258.865438 222.174314 
L 258.883295 222.849086 
L 258.954723 222.822571 
L 258.990437 222.838037 
L 259.02615 222.781163 
L 259.133292 222.492518 
L 259.097578 222.813282 
L 259.151149 222.510313 
L 259.204719 222.8888 
L 259.276147 222.850183 
L 259.311861 222.521265 
L 259.347574 222.889009 
L 259.419002 222.625224 
L 259.508286 222.91216 
L 259.544 222.90834 
L 259.561857 222.837306 
L 259.579714 222.195951 
L 259.633285 222.926321 
L 259.668999 222.882302 
L 259.811854 222.942876 
L 259.954709 222.952098 
L 259.972566 222.791526 
L 260.026136 222.979143 
L 260.06185 222.917704 
L 260.097564 222.887868 
L 260.133278 222.664058 
L 260.168992 222.988649 
L 260.204705 222.892098 
L 260.258276 222.74885 
L 260.276133 222.938624 
L 260.34756 222.994766 
L 260.365417 222.92559 
L 260.490416 222.552571 
L 260.454702 222.995169 
L 260.508272 222.597291 
L 260.561843 222.99643 
L 260.633271 222.971399 
L 260.722555 222.799076 
L 260.740412 222.901998 
L 260.776126 222.987089 
L 260.793983 222.925425 
L 260.81184 221.970253 
L 260.883267 223.000907 
L 260.901124 222.987253 
L 261.061836 222.949934 
L 261.168978 222.844013 
L 261.222548 222.907042 
L 261.258262 222.729183 
L 261.276119 222.038341 
L 261.32969 222.981732 
L 261.347546 222.929283 
L 261.472545 222.969907 
L 261.561829 222.90834 
L 261.597543 220.537222 
L 261.668971 222.975025 
L 262.168964 222.939638 
L 262.204677 222.882518 
L 262.222534 222.987999 
L 262.258248 223.055341 
L 262.276105 222.927522 
L 262.311819 220.834506 
L 262.383246 223.117393 
L 262.401103 223.0259 
L 262.490388 223.096025 
L 262.686813 223.084013 
L 263.811798 223.082722 
L 263.829655 221.891101 
L 263.901082 223.217808 
L 263.918939 223.039017 
L 263.954653 223.264819 
L 264.043937 223.21028 
L 264.472503 223.163135 
L 266.311763 223.143483 
L 266.32962 206.384778 
L 266.418904 223.170738 
L 266.436761 223.138529 
L 266.454618 223.295759 
L 266.472475 223.279084 
L 266.61533 223.243533 
L 267.13318 223.210668 
L 270.329564 223.20552 
L 270.829557 223.086176 
L 270.86527 222.430892 
L 270.900984 223.149549 
L 270.936698 223.12451 
L 271.079553 223.060205 
L 271.240265 222.935915 
L 271.275979 222.832493 
L 271.32955 222.999191 
L 271.347406 223.010531 
L 271.400977 218.973343 
L 271.454548 223.209825 
L 271.579546 222.989447 
L 272.258108 222.763608 
L 273.633089 222.759564 
L 275.81163 222.642242 
L 275.900914 222.056508 
L 275.918771 207.052716 
L 275.936628 223.217808 
L 276.008055 223.07453 
L 276.025912 222.757512 
L 276.133054 222.795137 
L 276.418764 222.688231 
L 277.472321 222.65465 
L 281.865116 222.757848 
L 281.954401 222.599828 
L 281.972258 222.698042 
L 282.007971 222.815102 
L 282.025828 222.731892 
L 282.043685 158.211699 
L 282.13297 223.05455 
L 282.347252 222.845244 
L 282.811532 222.762362 
L 285.740062 222.665281 
L 287.882889 222.673496 
L 288.115029 222.531516 
L 288.132886 222.602864 
L 288.150743 222.662901 
L 288.1686 222.630007 
L 288.186456 222.325664 
L 288.204313 99.183033 
L 288.257884 222.771091 
L 288.293598 222.621083 
L 288.347168 222.971504 
L 288.418596 222.880638 
L 288.793591 222.742232 
L 289.454296 222.703153 
L 292.722107 222.537485 
L 293.329242 222.443396 
L 293.847091 222.388753 
L 295.007789 222.313272 
L 295.097074 221.842307 
L 295.132788 198.335216 
L 295.204215 221.988696 
L 295.275643 222.599708 
L 295.329214 222.532441 
L 295.614924 222.380054 
L 296.454198 222.284555 
L 302.757681 221.899942 
L 302.793395 221.848112 
L 302.829109 221.952466 
L 302.846965 221.866122 
L 302.864822 220.914531 
L 302.954107 61.306276 
L 303.096962 61.421501 
L 303.329102 62.663236 
L 303.346958 63.11678 
L 303.489814 220.834618 
L 303.596955 221.064934 
L 303.632669 221.051415 
L 303.936236 221.057331 
L 305.186218 221.293884 
L 307.507614 221.52364 
L 309.329018 221.459806 
L 310.06115 221.395448 
L 310.168291 221.473847 
L 310.186148 221.372611 
L 310.204005 174.282068 
L 310.29329 220.554598 
L 310.329004 221.818559 
L 310.418288 221.69703 
L 310.953995 221.501057 
L 311.918267 221.416242 
L 313.293248 221.272531 
L 313.364675 221.228483 
L 313.400389 221.2728 
L 313.668242 221.434737 
L 314.061094 221.372417 
L 314.525373 221.347222 
L 315.614644 221.359644 
L 317.203907 221.301942 
L 318.953883 221.017431 
L 318.989597 220.838632 
L 319.007453 219.680256 
L 319.02531 209.398408 
L 319.043167 222.310661 
L 319.114595 221.189358 
L 319.150309 221.311731 
L 319.239593 221.286513 
L 319.578874 221.215866 
L 320.811 221.028988 
L 323.918099 220.91612 
L 326.560919 220.834446 
L 328.810888 220.820099 
L 328.882315 61.942013 
L 328.935886 62.056671 
L 329.310881 62.58548 
L 329.328738 62.599655 
L 329.346594 62.536283 
L 329.364451 62.379024 
L 329.400165 62.915547 
L 329.578734 221.015483 
L 329.614448 220.766501 
L 329.632305 220.83523 
L 329.721589 220.776961 
L 330.507292 220.740268 
L 331.257282 220.740119 
L 333.45368 220.53996 
L 337.382196 220.433882 
L 337.400053 220.459898 
L 337.41791 140.861977 
L 337.507194 219.151142 
L 337.667906 220.786802 
L 337.864332 220.739269 
L 338.632179 220.543109 
L 340.132158 220.439142 
L 347.007061 220.176633 
L 348.042761 219.957829 
L 348.060618 219.744628 
L 348.078475 140.440679 
L 348.167759 218.439006 
L 348.22133 220.479759 
L 348.292758 220.434986 
L 348.578468 220.338973 
L 349.25703 220.190555 
L 351.221288 220.078978 
L 356.042649 219.888481 
L 356.453358 219.847953 
L 356.89978 219.806553 
L 359.328317 219.569336 
L 359.381888 219.48858 
L 359.399745 219.320503 
L 359.417602 67.798166 
L 359.506886 216.083764 
L 359.649742 219.827227 
L 359.810454 219.89671 
L 360.364017 219.766944 
L 361.542572 219.627792 
L 366.006795 219.334007 
L 366.203221 219.315392 
L 366.828212 219.492542 
L 367.471061 219.406959 
L 367.596059 219.322032 
L 367.613916 219.336924 
L 367.971054 219.476613 
L 369.221036 219.547506 
L 370.185308 219.550639 
L 370.274593 219.60203 
L 370.310307 61.732901 
L 370.381734 189.187115 
L 370.506732 219.00723 
L 370.828156 219.618242 
L 381.810146 219.320421 
L 381.828002 130.942732 
L 381.917287 217.489049 
L 382.024428 219.470137 
L 382.042285 219.441637 
L 382.202997 219.566427 
L 382.774418 219.517394 
L 383.756547 219.407571 
L 387.310069 219.243611 
L 395.113531 219.086136 
L 395.131388 218.614955 
L 395.167101 61.851319 
L 395.238529 193.944325 
L 395.363527 217.961923 
L 395.542096 218.649774 
L 395.845663 218.988623 
L 396.202801 219.035387 
L 397.577782 219.003537 
L 400.220602 219.004701 
L 405.86338 218.801811 
L 405.970522 218.650088 
L 406.006235 218.465641 
L 406.09552 218.482853 
L 407.202647 218.677752 
L 408.488343 218.569168 
L 408.5062 218.476012 
L 408.524057 191.309415 
L 408.613342 217.244408 
L 408.684769 218.9973 
L 408.809768 218.976999 
L 409.863324 218.817285 
L 412.13115 218.686034 
L 422.220294 218.365181 
L 422.345292 218.270809 
L 422.381006 218.30739 
L 422.720287 218.543122 
L 423.166709 218.600451 
L 423.541704 218.555395 
L 423.577418 218.470759 
L 423.595275 218.075955 
L 423.630989 191.065237 
L 423.684559 218.172789 
L 423.702416 216.256945 
L 423.827414 218.827999 
L 424.202409 218.914007 
L 425.702388 218.764999 
L 429.113055 218.619178 
L 438.862918 218.317626 
L 438.880775 217.401354 
L 438.898632 184.137314 
L 438.952203 217.945801 
L 438.987916 217.718245 
L 439.059344 219.013311 
L 439.166485 218.986452 
L 439.487909 218.914052 
L 441.166457 218.6083 
L 444.77355 218.483868 
L 450.80918 218.383773 
L 454.148418 218.135686 
L 454.184132 218.005442 
L 454.201989 214.847214 
L 454.219846 177.47099 
L 454.309131 217.764943 
L 454.326987 217.466136 
L 454.380558 218.30639 
L 454.398415 218.231244 
L 454.434129 218.39257 
L 454.451986 218.394413 
L 454.630555 218.569921 
L 455.023406 218.653154 
L 456.059106 218.592662 
L 460.05905 218.287156 
L 471.130324 217.793159 
L 471.14818 217.720476 
L 471.166037 216.778278 
L 471.183894 186.897365 
L 471.273179 218.107559 
L 471.308893 217.526651 
L 471.362463 218.089466 
L 471.505318 218.283448 
L 471.862456 218.296586 
L 474.648131 218.041075 
L 478.487363 217.892202 
L 488.594365 217.557076 
L 488.73722 217.242938 
L 488.755077 194.901311 
L 488.826504 218.095338 
L 488.844361 217.759914 
L 488.880075 217.258778 
L 488.915789 217.983575 
L 488.933646 217.890188 
L 490.897904 217.840954 
L 494.647851 217.6545 
L 507.219104 217.152603 
L 507.236961 217.12082 
L 507.254818 217.245811 
L 507.290532 217.382165 
L 507.308388 216.465886 
L 507.326245 195.109737 
L 507.379816 217.676405 
L 507.41553 216.149099 
L 507.504814 217.445925 
L 507.540528 217.437882 
L 507.70124 217.541274 
L 508.21909 217.570252 
L 511.504758 217.371302 
L 520.915341 217.199009 
L 523.290308 217.121036 
L 525.629561 217.026351 
L 525.718845 217.101153 
L 525.754559 63.291542 
L 525.825986 212.424117 
L 525.843843 212.151222 
L 525.968842 217.106898 
L 526.111697 217.335505 
L 526.558119 217.466569 
L 527.683103 217.452468 
L 537.111543 216.956547 
L 538.272241 216.821461 
L 538.325811 216.663225 
L 538.361525 215.929348 
L 538.45081 216.359203 
L 540.111501 216.713309 
L 542.897176 216.708116 
L 544.718579 216.732043 
L 544.736436 217.39966 
L 544.754293 208.158232 
L 544.843577 216.92698 
L 544.861434 216.647124 
L 544.897148 217.03975 
L 544.950719 216.959785 
L 545.129288 216.965963 
L 546.629267 216.829385 
L 549.754223 216.65313 
L 555.450572 216.585445 
L 560.754069 216.49705 
L 563.164749 216.332934 
L 563.182606 216.27941 
L 563.200463 215.399159 
L 563.21832 129.017898 
L 563.307604 216.500034 
L 563.325461 214.418172 
L 563.414746 215.99895 
L 563.932596 216.247589 
L 564.82544 216.290444 
L 566.789699 216.236077 
L 570.271793 216.167818 
L 575.646717 216.215739 
L 581.360923 216.1989 
L 584.039457 216.109034 
L 584.325167 216.114511 
L 584.575164 216.167348 
L 584.593021 95.526571 
L 584.682305 213.080692 
L 584.718019 216.416525 
L 584.807303 216.271442 
L 584.82516 216.240031 
L 584.896588 216.304784 
L 585.682291 216.453993 
L 587.539408 216.389106 
L 594.914305 216.127075 
L 601.3785 216.051817 
L 601.3785 216.051817 
" clip-path="url(#pda9d00d8bc)" style="fill: none; stroke: #008000; stroke-width: 1.5; stroke-linecap: square"/>
   </g>
   <g id="patch_3">
    <path d="M 244.2585 311.6435 
L 244.2585 45.5315 
" style="fill: none; stroke: #000000; stroke-width: 0.8; stroke-linejoin: miter; stroke-linecap: square"/>
   </g>
   <g id="patch_4">
    <path d="M 601.3785 311.6435 
L 601.3785 45.5315 
" style="fill: none; stroke: #000000; stroke-width: 0.8; stroke-linejoin: miter; stroke-linecap: square"/>
   </g>
   <g id="patch_5">
    <path d="M 244.2585 311.6435 
L 601.3785 311.6435 
" style="fill: none; stroke: #000000; stroke-width: 0.8; stroke-linejoin: miter; stroke-linecap: square"/>
   </g>
   <g id="patch_6">
    <path d="M 244.2585 45.5315 
L 601.3785 45.5315 
" style="fill: none; stroke: #000000; stroke-width: 0.8; stroke-linejoin: miter; stroke-linecap: square"/>
   </g>
   <g id="text_14">
    <!-- Loss of the 09_07_25_CIFAR10_torch_model_(1024+512-512.0-1)_elk-horse -->
    <g transform="translate(7.2 25.5315) scale(0.264 -0.264)">
     <defs>
      <path id="TimesNewRomanPSMT-68" d="M 1041 4444 
L 1041 2350 
Q 1388 2731 1591 2839 
Q 1794 2947 1997 2947 
Q 2241 2947 2416 2812 
Q 2591 2678 2675 2391 
Q 2734 2191 2734 1659 
L 2734 647 
Q 2734 375 2778 275 
Q 2809 200 2884 156 
Q 2959 113 3159 113 
L 3159 0 
L 1753 0 
L 1753 113 
L 1819 113 
Q 2019 113 2097 173 
Q 2175 234 2206 353 
Q 2216 403 2216 647 
L 2216 1659 
Q 2216 2128 2167 2275 
Q 2119 2422 2012 2495 
Q 1906 2569 1756 2569 
Q 1603 2569 1437 2487 
Q 1272 2406 1041 2159 
L 1041 647 
Q 1041 353 1073 281 
Q 1106 209 1195 161 
Q 1284 113 1503 113 
L 1503 0 
L 84 0 
L 84 113 
Q 275 113 384 172 
Q 447 203 484 290 
Q 522 378 522 647 
L 522 3238 
Q 522 3728 498 3840 
Q 475 3953 426 3993 
Q 378 4034 297 4034 
Q 231 4034 84 3984 
L 41 4094 
L 897 4444 
L 1041 4444 
z
" transform="scale(0.015625)"/>
      <path id="TimesNewRomanPSMT-39" d="M 338 -88 
L 338 28 
Q 744 34 1094 217 
Q 1444 400 1770 856 
Q 2097 1313 2225 1859 
Q 1734 1544 1338 1544 
Q 891 1544 572 1889 
Q 253 2234 253 2806 
Q 253 3363 572 3797 
Q 956 4325 1575 4325 
Q 2097 4325 2469 3894 
Q 2925 3359 2925 2575 
Q 2925 1869 2578 1258 
Q 2231 647 1613 244 
Q 1109 -88 516 -88 
L 338 -88 
z
M 2275 2091 
Q 2331 2497 2331 2741 
Q 2331 3044 2228 3395 
Q 2125 3747 1936 3934 
Q 1747 4122 1506 4122 
Q 1228 4122 1018 3872 
Q 809 3622 809 3128 
Q 809 2469 1088 2097 
Q 1291 1828 1588 1828 
Q 1731 1828 1928 1897 
Q 2125 1966 2275 2091 
z
" transform="scale(0.015625)"/>
      <path id="TimesNewRomanPSMT-5f" d="M 3256 -1381 
L -53 -1381 
L -53 -1119 
L 3256 -1119 
L 3256 -1381 
z
" transform="scale(0.015625)"/>
      <path id="TimesNewRomanPSMT-37" d="M 644 4238 
L 2916 4238 
L 2916 4119 
L 1503 -88 
L 1153 -88 
L 2419 3728 
L 1253 3728 
Q 900 3728 750 3644 
Q 488 3500 328 3200 
L 238 3234 
L 644 4238 
z
" transform="scale(0.015625)"/>
      <path id="TimesNewRomanPSMT-43" d="M 3853 4334 
L 3950 2894 
L 3853 2894 
Q 3659 3541 3300 3825 
Q 2941 4109 2438 4109 
Q 2016 4109 1675 3895 
Q 1334 3681 1139 3212 
Q 944 2744 944 2047 
Q 944 1472 1128 1050 
Q 1313 628 1683 403 
Q 2053 178 2528 178 
Q 2941 178 3256 354 
Q 3572 531 3950 1056 
L 4047 994 
Q 3728 428 3303 165 
Q 2878 -97 2294 -97 
Q 1241 -97 663 684 
Q 231 1266 231 2053 
Q 231 2688 515 3219 
Q 800 3750 1298 4042 
Q 1797 4334 2388 4334 
Q 2847 4334 3294 4109 
Q 3425 4041 3481 4041 
Q 3566 4041 3628 4100 
Q 3709 4184 3744 4334 
L 3853 4334 
z
" transform="scale(0.015625)"/>
      <path id="TimesNewRomanPSMT-49" d="M 1975 116 
L 1975 0 
L 159 0 
L 159 116 
L 309 116 
Q 572 116 691 269 
Q 766 369 766 750 
L 766 3488 
Q 766 3809 725 3913 
Q 694 3991 597 4047 
Q 459 4122 309 4122 
L 159 4122 
L 159 4238 
L 1975 4238 
L 1975 4122 
L 1822 4122 
Q 1563 4122 1444 3969 
Q 1366 3869 1366 3488 
L 1366 750 
Q 1366 428 1406 325 
Q 1438 247 1538 191 
Q 1672 116 1822 116 
L 1975 116 
z
" transform="scale(0.015625)"/>
      <path id="TimesNewRomanPSMT-46" d="M 1309 4006 
L 1309 2341 
L 2081 2341 
Q 2347 2341 2470 2458 
Q 2594 2575 2634 2922 
L 2750 2922 
L 2750 1488 
L 2634 1488 
Q 2631 1734 2570 1850 
Q 2509 1966 2401 2023 
Q 2294 2081 2081 2081 
L 1309 2081 
L 1309 750 
Q 1309 428 1350 325 
Q 1381 247 1481 191 
Q 1619 116 1769 116 
L 1922 116 
L 1922 0 
L 103 0 
L 103 116 
L 253 116 
Q 516 116 634 269 
Q 709 369 709 750 
L 709 3488 
Q 709 3809 669 3913 
Q 638 3991 541 4047 
Q 406 4122 253 4122 
L 103 4122 
L 103 4238 
L 3256 4238 
L 3297 3306 
L 3188 3306 
Q 3106 3603 2998 3742 
Q 2891 3881 2733 3943 
Q 2575 4006 2244 4006 
L 1309 4006 
z
" transform="scale(0.015625)"/>
      <path id="TimesNewRomanPSMT-41" d="M 2928 1419 
L 1288 1419 
L 1000 750 
Q 894 503 894 381 
Q 894 284 986 211 
Q 1078 138 1384 116 
L 1384 0 
L 50 0 
L 50 116 
Q 316 163 394 238 
Q 553 388 747 847 
L 2238 4334 
L 2347 4334 
L 3822 809 
Q 4000 384 4145 257 
Q 4291 131 4550 116 
L 4550 0 
L 2878 0 
L 2878 116 
Q 3131 128 3220 200 
Q 3309 272 3309 375 
Q 3309 513 3184 809 
L 2928 1419 
z
M 2841 1650 
L 2122 3363 
L 1384 1650 
L 2841 1650 
z
" transform="scale(0.015625)"/>
      <path id="TimesNewRomanPSMT-52" d="M 4325 0 
L 3194 0 
L 1759 1981 
Q 1600 1975 1500 1975 
Q 1459 1975 1412 1976 
Q 1366 1978 1316 1981 
L 1316 750 
Q 1316 350 1403 253 
Q 1522 116 1759 116 
L 1925 116 
L 1925 0 
L 109 0 
L 109 116 
L 269 116 
Q 538 116 653 291 
Q 719 388 719 750 
L 719 3488 
Q 719 3888 631 3984 
Q 509 4122 269 4122 
L 109 4122 
L 109 4238 
L 1653 4238 
Q 2328 4238 2648 4139 
Q 2969 4041 3192 3777 
Q 3416 3513 3416 3147 
Q 3416 2756 3161 2468 
Q 2906 2181 2372 2063 
L 3247 847 
Q 3547 428 3762 290 
Q 3978 153 4325 116 
L 4325 0 
z
M 1316 2178 
Q 1375 2178 1419 2176 
Q 1463 2175 1491 2175 
Q 2097 2175 2405 2437 
Q 2713 2700 2713 3106 
Q 2713 3503 2464 3751 
Q 2216 4000 1806 4000 
Q 1625 4000 1316 3941 
L 1316 2178 
z
" transform="scale(0.015625)"/>
      <path id="TimesNewRomanPSMT-63" d="M 2631 1088 
Q 2516 522 2178 217 
Q 1841 -88 1431 -88 
Q 944 -88 581 321 
Q 219 731 219 1428 
Q 219 2103 620 2525 
Q 1022 2947 1584 2947 
Q 2006 2947 2278 2723 
Q 2550 2500 2550 2259 
Q 2550 2141 2473 2067 
Q 2397 1994 2259 1994 
Q 2075 1994 1981 2113 
Q 1928 2178 1911 2362 
Q 1894 2547 1784 2644 
Q 1675 2738 1481 2738 
Q 1169 2738 978 2506 
Q 725 2200 725 1697 
Q 725 1184 976 792 
Q 1228 400 1656 400 
Q 1963 400 2206 609 
Q 2378 753 2541 1131 
L 2631 1088 
z
" transform="scale(0.015625)"/>
      <path id="TimesNewRomanPSMT-64" d="M 2222 322 
Q 2013 103 1813 7 
Q 1613 -88 1381 -88 
Q 913 -88 563 304 
Q 213 697 213 1313 
Q 213 1928 600 2439 
Q 988 2950 1597 2950 
Q 1975 2950 2222 2709 
L 2222 3238 
Q 2222 3728 2198 3840 
Q 2175 3953 2125 3993 
Q 2075 4034 2000 4034 
Q 1919 4034 1784 3984 
L 1744 4094 
L 2597 4444 
L 2738 4444 
L 2738 1134 
Q 2738 631 2761 520 
Q 2784 409 2836 365 
Q 2888 322 2956 322 
Q 3041 322 3181 375 
L 3216 266 
L 2366 -88 
L 2222 -88 
L 2222 322 
z
M 2222 541 
L 2222 2016 
Q 2203 2228 2109 2403 
Q 2016 2578 1861 2667 
Q 1706 2756 1559 2756 
Q 1284 2756 1069 2509 
Q 784 2184 784 1559 
Q 784 928 1059 592 
Q 1334 256 1672 256 
Q 1956 256 2222 541 
z
" transform="scale(0.015625)"/>
      <path id="TimesNewRomanPSMT-6c" d="M 1184 4444 
L 1184 647 
Q 1184 378 1223 290 
Q 1263 203 1344 158 
Q 1425 113 1647 113 
L 1647 0 
L 244 0 
L 244 113 
Q 441 113 512 153 
Q 584 194 625 287 
Q 666 381 666 647 
L 666 3247 
Q 666 3731 644 3842 
Q 622 3953 573 3993 
Q 525 4034 450 4034 
Q 369 4034 244 3984 
L 191 4094 
L 1044 4444 
L 1184 4444 
z
" transform="scale(0.015625)"/>
      <path id="TimesNewRomanPSMT-28" d="M 1988 -1253 
L 1988 -1369 
Q 1516 -1131 1200 -813 
Q 750 -359 506 256 
Q 263 872 263 1534 
Q 263 2503 741 3301 
Q 1219 4100 1988 4444 
L 1988 4313 
Q 1603 4100 1356 3731 
Q 1109 3363 987 2797 
Q 866 2231 866 1616 
Q 866 947 969 400 
Q 1050 -31 1165 -292 
Q 1281 -553 1476 -793 
Q 1672 -1034 1988 -1253 
z
" transform="scale(0.015625)"/>
      <path id="TimesNewRomanPSMT-2b" d="M 1672 441 
L 1672 2000 
L 116 2000 
L 116 2256 
L 1672 2256 
L 1672 3809 
L 1922 3809 
L 1922 2256 
L 3484 2256 
L 3484 2000 
L 1922 2000 
L 1922 441 
L 1672 441 
z
" transform="scale(0.015625)"/>
      <path id="TimesNewRomanPSMT-2d" d="M 259 1672 
L 1875 1672 
L 1875 1200 
L 259 1200 
L 259 1672 
z
" transform="scale(0.015625)"/>
      <path id="TimesNewRomanPSMT-29" d="M 144 4313 
L 144 4444 
Q 619 4209 934 3891 
Q 1381 3434 1625 2820 
Q 1869 2206 1869 1541 
Q 1869 572 1392 -226 
Q 916 -1025 144 -1369 
L 144 -1253 
Q 528 -1038 776 -670 
Q 1025 -303 1145 264 
Q 1266 831 1266 1447 
Q 1266 2113 1163 2663 
Q 1084 3094 967 3353 
Q 850 3613 656 3853 
Q 463 4094 144 4313 
z
" transform="scale(0.015625)"/>
      <path id="TimesNewRomanPSMT-6b" d="M 1047 4444 
L 1047 1594 
L 1775 2259 
Q 2006 2472 2044 2528 
Q 2069 2566 2069 2603 
Q 2069 2666 2017 2711 
Q 1966 2756 1847 2763 
L 1847 2863 
L 3091 2863 
L 3091 2763 
Q 2834 2756 2664 2684 
Q 2494 2613 2291 2428 
L 1556 1750 
L 2291 822 
Q 2597 438 2703 334 
Q 2853 188 2966 144 
Q 3044 113 3238 113 
L 3238 0 
L 1847 0 
L 1847 113 
Q 1966 116 2008 148 
Q 2050 181 2050 241 
Q 2050 313 1925 472 
L 1047 1594 
L 1047 644 
Q 1047 366 1086 278 
Q 1125 191 1197 153 
Q 1269 116 1509 113 
L 1509 0 
L 53 0 
L 53 113 
Q 272 113 381 166 
Q 447 200 481 272 
Q 528 375 528 628 
L 528 3234 
Q 528 3731 506 3842 
Q 484 3953 434 3995 
Q 384 4038 303 4038 
Q 238 4038 106 3984 
L 53 4094 
L 903 4444 
L 1047 4444 
z
" transform="scale(0.015625)"/>
     </defs>
     <use xlink:href="#TimesNewRomanPSMT-4c"/>
     <use xlink:href="#TimesNewRomanPSMT-6f" transform="translate(61.083984 0)"/>
     <use xlink:href="#TimesNewRomanPSMT-73" transform="translate(111.083984 0)"/>
     <use xlink:href="#TimesNewRomanPSMT-73" transform="translate(150 0)"/>
     <use xlink:href="#TimesNewRomanPSMT-20" transform="translate(188.916016 0)"/>
     <use xlink:href="#TimesNewRomanPSMT-6f" transform="translate(213.916016 0)"/>
     <use xlink:href="#TimesNewRomanPSMT-66" transform="translate(263.916016 0)"/>
     <use xlink:href="#TimesNewRomanPSMT-20" transform="translate(297.216797 0)"/>
     <use xlink:href="#TimesNewRomanPSMT-74" transform="translate(322.216797 0)"/>
     <use xlink:href="#TimesNewRomanPSMT-68" transform="translate(350 0)"/>
     <use xlink:href="#TimesNewRomanPSMT-65" transform="translate(400 0)"/>
     <use xlink:href="#TimesNewRomanPSMT-20" transform="translate(444.384766 0)"/>
     <use xlink:href="#TimesNewRomanPSMT-30" transform="translate(469.384766 0)"/>
     <use xlink:href="#TimesNewRomanPSMT-39" transform="translate(519.384766 0)"/>
     <use xlink:href="#TimesNewRomanPSMT-5f" transform="translate(569.384766 0)"/>
     <use xlink:href="#TimesNewRomanPSMT-30" transform="translate(619.384766 0)"/>
     <use xlink:href="#TimesNewRomanPSMT-37" transform="translate(669.384766 0)"/>
     <use xlink:href="#TimesNewRomanPSMT-5f" transform="translate(719.384766 0)"/>
     <use xlink:href="#TimesNewRomanPSMT-32" transform="translate(769.384766 0)"/>
     <use xlink:href="#TimesNewRomanPSMT-35" transform="translate(819.384766 0)"/>
     <use xlink:href="#TimesNewRomanPSMT-5f" transform="translate(869.384766 0)"/>
     <use xlink:href="#TimesNewRomanPSMT-43" transform="translate(919.384766 0)"/>
     <use xlink:href="#TimesNewRomanPSMT-49" transform="translate(986.083984 0)"/>
     <use xlink:href="#TimesNewRomanPSMT-46" transform="translate(1019.384766 0)"/>
     <use xlink:href="#TimesNewRomanPSMT-41" transform="translate(1067.625 0)"/>
     <use xlink:href="#TimesNewRomanPSMT-52" transform="translate(1139.841797 0)"/>
     <use xlink:href="#TimesNewRomanPSMT-31" transform="translate(1206.541016 0)"/>
     <use xlink:href="#TimesNewRomanPSMT-30" transform="translate(1256.541016 0)"/>
     <use xlink:href="#TimesNewRomanPSMT-5f" transform="translate(1306.541016 0)"/>
     <use xlink:href="#TimesNewRomanPSMT-74" transform="translate(1356.541016 0)"/>
     <use xlink:href="#TimesNewRomanPSMT-6f" transform="translate(1384.324219 0)"/>
     <use xlink:href="#TimesNewRomanPSMT-72" transform="translate(1434.324219 0)"/>
     <use xlink:href="#TimesNewRomanPSMT-63" transform="translate(1467.625 0)"/>
     <use xlink:href="#TimesNewRomanPSMT-68" transform="translate(1512.009766 0)"/>
     <use xlink:href="#TimesNewRomanPSMT-5f" transform="translate(1562.009766 0)"/>
     <use xlink:href="#TimesNewRomanPSMT-6d" transform="translate(1612.009766 0)"/>
     <use xlink:href="#TimesNewRomanPSMT-6f" transform="translate(1689.792969 0)"/>
     <use xlink:href="#TimesNewRomanPSMT-64" transform="translate(1739.792969 0)"/>
     <use xlink:href="#TimesNewRomanPSMT-65" transform="translate(1789.792969 0)"/>
     <use xlink:href="#TimesNewRomanPSMT-6c" transform="translate(1834.177734 0)"/>
     <use xlink:href="#TimesNewRomanPSMT-5f" transform="translate(1861.960938 0)"/>
     <use xlink:href="#TimesNewRomanPSMT-28" transform="translate(1911.960938 0)"/>
     <use xlink:href="#TimesNewRomanPSMT-31" transform="translate(1945.261719 0)"/>
     <use xlink:href="#TimesNewRomanPSMT-30" transform="translate(1995.261719 0)"/>
     <use xlink:href="#TimesNewRomanPSMT-32" transform="translate(2045.261719 0)"/>
     <use xlink:href="#TimesNewRomanPSMT-34" transform="translate(2095.261719 0)"/>
     <use xlink:href="#TimesNewRomanPSMT-2b" transform="translate(2145.261719 0)"/>
     <use xlink:href="#TimesNewRomanPSMT-35" transform="translate(2201.658203 0)"/>
     <use xlink:href="#TimesNewRomanPSMT-31" transform="translate(2251.658203 0)"/>
     <use xlink:href="#TimesNewRomanPSMT-32" transform="translate(2301.658203 0)"/>
     <use xlink:href="#TimesNewRomanPSMT-2d" transform="translate(2351.658203 0)"/>
     <use xlink:href="#TimesNewRomanPSMT-35" transform="translate(2384.958984 0)"/>
     <use xlink:href="#TimesNewRomanPSMT-31" transform="translate(2434.958984 0)"/>
     <use xlink:href="#TimesNewRomanPSMT-32" transform="translate(2484.958984 0)"/>
     <use xlink:href="#TimesNewRomanPSMT-2e" transform="translate(2534.958984 0)"/>
     <use xlink:href="#TimesNewRomanPSMT-30" transform="translate(2559.958984 0)"/>
     <use xlink:href="#TimesNewRomanPSMT-2d" transform="translate(2609.958984 0)"/>
     <use xlink:href="#TimesNewRomanPSMT-31" transform="translate(2643.259766 0)"/>
     <use xlink:href="#TimesNewRomanPSMT-29" transform="translate(2693.259766 0)"/>
     <use xlink:href="#TimesNewRomanPSMT-5f" transform="translate(2726.560547 0)"/>
     <use xlink:href="#TimesNewRomanPSMT-65" transform="translate(2776.560547 0)"/>
     <use xlink:href="#TimesNewRomanPSMT-6c" transform="translate(2820.945312 0)"/>
     <use xlink:href="#TimesNewRomanPSMT-6b" transform="translate(2848.728516 0)"/>
     <use xlink:href="#TimesNewRomanPSMT-2d" transform="translate(2898.728516 0)"/>
     <use xlink:href="#TimesNewRomanPSMT-68" transform="translate(2932.029297 0)"/>
     <use xlink:href="#TimesNewRomanPSMT-6f" transform="translate(2982.029297 0)"/>
     <use xlink:href="#TimesNewRomanPSMT-72" transform="translate(3032.029297 0)"/>
     <use xlink:href="#TimesNewRomanPSMT-73" transform="translate(3065.330078 0)"/>
     <use xlink:href="#TimesNewRomanPSMT-65" transform="translate(3104.246094 0)"/>
    </g>
   </g>
   <g id="legend_1">
    <g id="patch_7">
     <path d="M 385.421 125.384625 
L 585.9785 125.384625 
Q 590.3785 125.384625 590.3785 120.984625 
L 590.3785 60.9315 
Q 590.3785 56.5315 585.9785 56.5315 
L 385.421 56.5315 
Q 381.021 56.5315 381.021 60.9315 
L 381.021 120.984625 
Q 381.021 125.384625 385.421 125.384625 
z
" style="fill: #ffffff; opacity: 0.8; stroke: #cccccc; stroke-linejoin: miter"/>
    </g>
    <g id="line2d_25">
     <path d="M 389.821 73.0315 
L 411.821 73.0315 
L 433.821 73.0315 
" style="fill: none; stroke: #ffa500; stroke-width: 1.5; stroke-linecap: square"/>
    </g>
    <g id="text_15">
     <!-- Training loss -->
     <g transform="translate(451.421 80.7315) scale(0.22 -0.22)">
      <defs>
       <path id="TimesNewRomanPSMT-54" d="M 3703 4238 
L 3750 3244 
L 3631 3244 
Q 3597 3506 3538 3619 
Q 3441 3800 3280 3886 
Q 3119 3972 2856 3972 
L 2259 3972 
L 2259 734 
Q 2259 344 2344 247 
Q 2463 116 2709 116 
L 2856 116 
L 2856 0 
L 1059 0 
L 1059 116 
L 1209 116 
Q 1478 116 1591 278 
Q 1659 378 1659 734 
L 1659 3972 
L 1150 3972 
Q 853 3972 728 3928 
Q 566 3869 450 3700 
Q 334 3531 313 3244 
L 194 3244 
L 244 4238 
L 3703 4238 
z
" transform="scale(0.015625)"/>
       <path id="TimesNewRomanPSMT-67" d="M 966 1044 
Q 703 1172 562 1401 
Q 422 1631 422 1909 
Q 422 2334 742 2640 
Q 1063 2947 1563 2947 
Q 1972 2947 2272 2747 
L 2878 2747 
Q 3013 2747 3034 2739 
Q 3056 2731 3066 2713 
Q 3084 2684 3084 2613 
Q 3084 2531 3069 2500 
Q 3059 2484 3036 2475 
Q 3013 2466 2878 2466 
L 2506 2466 
Q 2681 2241 2681 1891 
Q 2681 1491 2375 1206 
Q 2069 922 1553 922 
Q 1341 922 1119 984 
Q 981 866 932 777 
Q 884 688 884 625 
Q 884 572 936 522 
Q 988 472 1138 450 
Q 1225 438 1575 428 
Q 2219 413 2409 384 
Q 2700 344 2873 169 
Q 3047 -6 3047 -263 
Q 3047 -616 2716 -925 
Q 2228 -1381 1444 -1381 
Q 841 -1381 425 -1109 
Q 191 -953 191 -784 
Q 191 -709 225 -634 
Q 278 -519 444 -313 
Q 466 -284 763 25 
Q 600 122 533 198 
Q 466 275 466 372 
Q 466 481 555 628 
Q 644 775 966 1044 
z
M 1509 2797 
Q 1278 2797 1122 2612 
Q 966 2428 966 2047 
Q 966 1553 1178 1281 
Q 1341 1075 1591 1075 
Q 1828 1075 1981 1253 
Q 2134 1431 2134 1813 
Q 2134 2309 1919 2591 
Q 1759 2797 1509 2797 
z
M 934 0 
Q 788 -159 713 -296 
Q 638 -434 638 -550 
Q 638 -700 819 -813 
Q 1131 -1006 1722 -1006 
Q 2284 -1006 2551 -807 
Q 2819 -609 2819 -384 
Q 2819 -222 2659 -153 
Q 2497 -84 2016 -72 
Q 1313 -53 934 0 
z
" transform="scale(0.015625)"/>
      </defs>
      <use xlink:href="#TimesNewRomanPSMT-54"/>
      <use xlink:href="#TimesNewRomanPSMT-72" transform="translate(57.583984 0)"/>
      <use xlink:href="#TimesNewRomanPSMT-61" transform="translate(90.884766 0)"/>
      <use xlink:href="#TimesNewRomanPSMT-69" transform="translate(135.269531 0)"/>
      <use xlink:href="#TimesNewRomanPSMT-6e" transform="translate(163.052734 0)"/>
      <use xlink:href="#TimesNewRomanPSMT-69" transform="translate(213.052734 0)"/>
      <use xlink:href="#TimesNewRomanPSMT-6e" transform="translate(240.835938 0)"/>
      <use xlink:href="#TimesNewRomanPSMT-67" transform="translate(290.835938 0)"/>
      <use xlink:href="#TimesNewRomanPSMT-20" transform="translate(340.835938 0)"/>
      <use xlink:href="#TimesNewRomanPSMT-6c" transform="translate(365.835938 0)"/>
      <use xlink:href="#TimesNewRomanPSMT-6f" transform="translate(393.619141 0)"/>
      <use xlink:href="#TimesNewRomanPSMT-73" transform="translate(443.619141 0)"/>
      <use xlink:href="#TimesNewRomanPSMT-73" transform="translate(482.535156 0)"/>
     </g>
    </g>
    <g id="line2d_26">
     <path d="M 389.821 104.178687 
L 411.821 104.178687 
L 433.821 104.178687 
" style="fill: none; stroke: #008000; stroke-width: 1.5; stroke-linecap: square"/>
    </g>
    <g id="text_16">
     <!-- Validation loss -->
     <g transform="translate(451.421 111.878687) scale(0.22 -0.22)">
      <defs>
       <path id="TimesNewRomanPSMT-56" d="M 4544 4238 
L 4544 4122 
Q 4319 4081 4203 3978 
Q 4038 3825 3909 3509 
L 2431 -97 
L 2316 -97 
L 728 3556 
Q 606 3838 556 3900 
Q 478 3997 364 4051 
Q 250 4106 56 4122 
L 56 4238 
L 1788 4238 
L 1788 4122 
Q 1494 4094 1406 4022 
Q 1319 3950 1319 3838 
Q 1319 3681 1463 3350 
L 2541 866 
L 3541 3319 
Q 3688 3681 3688 3822 
Q 3688 3913 3597 3995 
Q 3506 4078 3291 4113 
Q 3275 4116 3238 4122 
L 3238 4238 
L 4544 4238 
z
" transform="scale(0.015625)"/>
      </defs>
      <use xlink:href="#TimesNewRomanPSMT-56"/>
      <use xlink:href="#TimesNewRomanPSMT-61" transform="translate(61.091797 0)"/>
      <use xlink:href="#TimesNewRomanPSMT-6c" transform="translate(105.476562 0)"/>
      <use xlink:href="#TimesNewRomanPSMT-69" transform="translate(133.259766 0)"/>
      <use xlink:href="#TimesNewRomanPSMT-64" transform="translate(161.042969 0)"/>
      <use xlink:href="#TimesNewRomanPSMT-61" transform="translate(211.042969 0)"/>
      <use xlink:href="#TimesNewRomanPSMT-74" transform="translate(255.427734 0)"/>
      <use xlink:href="#TimesNewRomanPSMT-69" transform="translate(283.210938 0)"/>
      <use xlink:href="#TimesNewRomanPSMT-6f" transform="translate(310.994141 0)"/>
      <use xlink:href="#TimesNewRomanPSMT-6e" transform="translate(360.994141 0)"/>
      <use xlink:href="#TimesNewRomanPSMT-20" transform="translate(410.994141 0)"/>
      <use xlink:href="#TimesNewRomanPSMT-6c" transform="translate(435.994141 0)"/>
      <use xlink:href="#TimesNewRomanPSMT-6f" transform="translate(463.777344 0)"/>
      <use xlink:href="#TimesNewRomanPSMT-73" transform="translate(513.777344 0)"/>
      <use xlink:href="#TimesNewRomanPSMT-73" transform="translate(552.693359 0)"/>
     </g>
    </g>
   </g>
  </g>
 </g>
 <defs>
  <clipPath id="pda9d00d8bc">
   <rect x="244.2585" y="45.5315" width="357.12" height="266.112"/>
  </clipPath>
 </defs>
</svg>
