<?xml version="1.0" encoding="utf-8" standalone="no"?>
<!DOCTYPE svg PUBLIC "-//W3C//DTD SVG 1.1//EN"
  "http://www.w3.org/Graphics/SVG/1.1/DTD/svg11.dtd">
<svg xmlns:xlink="http://www.w3.org/1999/xlink" width="1103.882625pt" height="383.265687pt" viewBox="0 0 1103.882625 383.265687" xmlns="http://www.w3.org/2000/svg" version="1.1">
 <metadata>
  <rdf:RDF xmlns:dc="http://purl.org/dc/elements/1.1/" xmlns:cc="http://creativecommons.org/ns#" xmlns:rdf="http://www.w3.org/1999/02/22-rdf-syntax-ns#">
   <cc:Work>
    <dc:type rdf:resource="http://purl.org/dc/dcmitype/StillImage"/>
    <dc:date>2025-07-21T17:00:18.588728</dc:date>
    <dc:format>image/svg+xml</dc:format>
    <dc:creator>
     <cc:Agent>
      <dc:title>Matplotlib v3.10.3, https://matplotlib.org/</dc:title>
     </cc:Agent>
    </dc:creator>
   </cc:Work>
  </rdf:RDF>
 </metadata>
 <defs>
  <style type="text/css">*{stroke-linejoin: round; stroke-linecap: butt}</style>
 </defs>
 <g id="figure_1">
  <g id="patch_1">
   <path d="M 0 383.265687 
L 1103.882625 383.265687 
L 1103.882625 0 
L 0 0 
z
" style="fill: #ffffff"/>
  </g>
  <g id="axes_1">
   <g id="patch_2">
    <path d="M 373.381313 311.6435 
L 730.501313 311.6435 
L 730.501313 45.5315 
L 373.381313 45.5315 
z
" style="fill: #ffffff"/>
   </g>
   <g id="matplotlib.axis_1">
    <g id="xtick_1">
     <g id="line2d_1">
      <path d="M 373.381313 311.6435 
L 373.381313 45.5315 
" clip-path="url(#p8c49c27610)" style="fill: none; stroke: #b0b0b0; stroke-opacity: 0.3; stroke-width: 0.8; stroke-linecap: square"/>
     </g>
     <g id="line2d_2">
      <defs>
       <path id="mc802c4f7eb" d="M 0 0 
L 0 3.5 
" style="stroke: #000000; stroke-width: 0.8"/>
      </defs>
      <g>
       <use xlink:href="#mc802c4f7eb" x="373.381313" y="311.6435" style="stroke: #000000; stroke-width: 0.8"/>
      </g>
     </g>
     <g id="text_1">
      <!-- 0.0 -->
      <g transform="translate(359.631313 333.91975) scale(0.22 -0.22)">
       <defs>
        <path id="TimesNewRomanPSMT-30" d="M 231 2094 
Q 231 2819 450 3342 
Q 669 3866 1031 4122 
Q 1313 4325 1613 4325 
Q 2100 4325 2488 3828 
Q 2972 3213 2972 2159 
Q 2972 1422 2759 906 
Q 2547 391 2217 158 
Q 1888 -75 1581 -75 
Q 975 -75 572 641 
Q 231 1244 231 2094 
z
M 844 2016 
Q 844 1141 1059 588 
Q 1238 122 1591 122 
Q 1759 122 1940 273 
Q 2122 425 2216 781 
Q 2359 1319 2359 2297 
Q 2359 3022 2209 3506 
Q 2097 3866 1919 4016 
Q 1791 4119 1609 4119 
Q 1397 4119 1231 3928 
Q 1006 3669 925 3112 
Q 844 2556 844 2016 
z
" transform="scale(0.015625)"/>
        <path id="TimesNewRomanPSMT-2e" d="M 800 606 
Q 947 606 1047 504 
Q 1147 403 1147 259 
Q 1147 116 1045 14 
Q 944 -88 800 -88 
Q 656 -88 554 14 
Q 453 116 453 259 
Q 453 406 554 506 
Q 656 606 800 606 
z
" transform="scale(0.015625)"/>
       </defs>
       <use xlink:href="#TimesNewRomanPSMT-30"/>
       <use xlink:href="#TimesNewRomanPSMT-2e" transform="translate(50 0)"/>
       <use xlink:href="#TimesNewRomanPSMT-30" transform="translate(75 0)"/>
      </g>
     </g>
    </g>
    <g id="xtick_2">
     <g id="line2d_3">
      <path d="M 471.520279 311.6435 
L 471.520279 45.5315 
" clip-path="url(#p8c49c27610)" style="fill: none; stroke: #b0b0b0; stroke-opacity: 0.3; stroke-width: 0.8; stroke-linecap: square"/>
     </g>
     <g id="line2d_4">
      <g>
       <use xlink:href="#mc802c4f7eb" x="471.520279" y="311.6435" style="stroke: #000000; stroke-width: 0.8"/>
      </g>
     </g>
     <g id="text_2">
      <!-- 0.5 -->
      <g transform="translate(457.770279 333.91975) scale(0.22 -0.22)">
       <defs>
        <path id="TimesNewRomanPSMT-35" d="M 2778 4238 
L 2534 3706 
L 1259 3706 
L 981 3138 
Q 1809 3016 2294 2522 
Q 2709 2097 2709 1522 
Q 2709 1188 2573 903 
Q 2438 619 2231 419 
Q 2025 219 1772 97 
Q 1413 -75 1034 -75 
Q 653 -75 479 54 
Q 306 184 306 341 
Q 306 428 378 495 
Q 450 563 559 563 
Q 641 563 702 538 
Q 763 513 909 409 
Q 1144 247 1384 247 
Q 1750 247 2026 523 
Q 2303 800 2303 1197 
Q 2303 1581 2056 1914 
Q 1809 2247 1375 2428 
Q 1034 2569 447 2591 
L 1259 4238 
L 2778 4238 
z
" transform="scale(0.015625)"/>
       </defs>
       <use xlink:href="#TimesNewRomanPSMT-30"/>
       <use xlink:href="#TimesNewRomanPSMT-2e" transform="translate(50 0)"/>
       <use xlink:href="#TimesNewRomanPSMT-35" transform="translate(75 0)"/>
      </g>
     </g>
    </g>
    <g id="xtick_3">
     <g id="line2d_5">
      <path d="M 569.659245 311.6435 
L 569.659245 45.5315 
" clip-path="url(#p8c49c27610)" style="fill: none; stroke: #b0b0b0; stroke-opacity: 0.3; stroke-width: 0.8; stroke-linecap: square"/>
     </g>
     <g id="line2d_6">
      <g>
       <use xlink:href="#mc802c4f7eb" x="569.659245" y="311.6435" style="stroke: #000000; stroke-width: 0.8"/>
      </g>
     </g>
     <g id="text_3">
      <!-- 1.0 -->
      <g transform="translate(555.909245 333.91975) scale(0.22 -0.22)">
       <defs>
        <path id="TimesNewRomanPSMT-31" d="M 750 3822 
L 1781 4325 
L 1884 4325 
L 1884 747 
Q 1884 391 1914 303 
Q 1944 216 2037 169 
Q 2131 122 2419 116 
L 2419 0 
L 825 0 
L 825 116 
Q 1125 122 1212 167 
Q 1300 213 1334 289 
Q 1369 366 1369 747 
L 1369 3034 
Q 1369 3497 1338 3628 
Q 1316 3728 1258 3775 
Q 1200 3822 1119 3822 
Q 1003 3822 797 3725 
L 750 3822 
z
" transform="scale(0.015625)"/>
       </defs>
       <use xlink:href="#TimesNewRomanPSMT-31"/>
       <use xlink:href="#TimesNewRomanPSMT-2e" transform="translate(50 0)"/>
       <use xlink:href="#TimesNewRomanPSMT-30" transform="translate(75 0)"/>
      </g>
     </g>
    </g>
    <g id="xtick_4">
     <g id="line2d_7">
      <path d="M 667.798211 311.6435 
L 667.798211 45.5315 
" clip-path="url(#p8c49c27610)" style="fill: none; stroke: #b0b0b0; stroke-opacity: 0.3; stroke-width: 0.8; stroke-linecap: square"/>
     </g>
     <g id="line2d_8">
      <g>
       <use xlink:href="#mc802c4f7eb" x="667.798211" y="311.6435" style="stroke: #000000; stroke-width: 0.8"/>
      </g>
     </g>
     <g id="text_4">
      <!-- 1.5 -->
      <g transform="translate(654.048211 333.91975) scale(0.22 -0.22)">
       <use xlink:href="#TimesNewRomanPSMT-31"/>
       <use xlink:href="#TimesNewRomanPSMT-2e" transform="translate(50 0)"/>
       <use xlink:href="#TimesNewRomanPSMT-35" transform="translate(75 0)"/>
      </g>
     </g>
    </g>
    <g id="text_5">
     <!-- $\kappa  = \frac{ln(n)}{ln(d)}$ -->
     <g transform="translate(519.931313 364.185687) scale(0.22 -0.22)">
      <defs>
       <path id="STIXGeneral-Italic-3ba" d="M 979 1440 
L 998 1446 
Q 1850 2541 2464 2790 
Q 2547 2822 2630 2822 
Q 2797 2822 2886 2736 
Q 2976 2650 2976 2522 
Q 2976 2387 2893 2307 
Q 2810 2227 2682 2227 
Q 2605 2227 2502 2288 
Q 2400 2349 2336 2349 
Q 2170 2349 1990 2205 
Q 1811 2061 1414 1645 
L 2042 544 
Q 2202 262 2310 182 
Q 2419 102 2624 102 
L 2624 0 
Q 2374 -83 2182 -83 
Q 1786 -83 1555 326 
L 960 1350 
L 576 0 
L 90 0 
L 640 1978 
Q 730 2317 730 2406 
Q 730 2560 518 2560 
L 339 2560 
L 339 2650 
Q 678 2694 1306 2822 
L 1325 2803 
L 979 1440 
z
" transform="scale(0.015625)"/>
       <path id="STIXGeneral-Regular-3d" d="M 4077 2048 
L 307 2048 
L 307 2470 
L 4077 2470 
L 4077 2048 
z
M 4077 768 
L 307 768 
L 307 1190 
L 4077 1190 
L 4077 768 
z
" transform="scale(0.015625)"/>
       <path id="STIXGeneral-Italic-6c" d="M 1786 4339 
L 806 595 
Q 755 410 755 320 
Q 755 205 864 205 
Q 1037 205 1293 570 
L 1453 794 
L 1542 730 
Q 1254 275 1046 102 
Q 838 -70 576 -70 
Q 262 -70 262 288 
Q 262 397 288 480 
L 1165 3834 
Q 1184 3898 1184 3955 
Q 1184 4096 870 4096 
L 755 4096 
L 755 4198 
Q 1203 4250 1747 4371 
L 1786 4339 
z
" transform="scale(0.015625)"/>
       <path id="STIXGeneral-Italic-6e" d="M 2944 749 
L 3034 666 
Q 2707 218 2534 80 
Q 2362 -58 2138 -58 
Q 2010 -58 1923 28 
Q 1837 115 1837 288 
Q 1837 390 1939 768 
L 2221 1805 
Q 2310 2150 2310 2310 
Q 2310 2496 2157 2496 
Q 1971 2496 1750 2275 
Q 1530 2054 1210 1587 
Q 998 1274 899 1024 
Q 800 774 570 0 
L 90 0 
L 704 2240 
Q 717 2304 717 2349 
Q 717 2445 630 2480 
Q 544 2515 301 2522 
L 301 2624 
Q 550 2675 857 2729 
Q 1165 2784 1338 2822 
L 1363 2810 
L 934 1414 
Q 1408 2170 1753 2496 
Q 2099 2822 2413 2822 
Q 2611 2822 2720 2716 
Q 2829 2611 2829 2432 
Q 2829 2272 2765 2048 
L 2406 749 
Q 2317 429 2317 358 
Q 2317 243 2419 243 
Q 2541 243 2810 582 
Q 2854 634 2944 749 
z
" transform="scale(0.015625)"/>
       <path id="STIXGeneral-Regular-28" d="M 1946 -1030 
L 1869 -1133 
Q 1126 -710 716 32 
Q 307 774 307 1613 
Q 307 3386 1888 4326 
L 1946 4224 
Q 1293 3667 1075 3126 
Q 858 2586 858 1632 
Q 858 685 1082 96 
Q 1306 -493 1946 -1030 
z
" transform="scale(0.015625)"/>
       <path id="STIXGeneral-Regular-29" d="M 186 4224 
L 262 4326 
Q 992 3891 1408 3148 
Q 1824 2406 1824 1581 
Q 1824 -166 243 -1133 
L 186 -1030 
Q 845 -486 1059 54 
Q 1274 595 1274 1562 
Q 1274 2534 1059 3120 
Q 845 3706 186 4224 
z
" transform="scale(0.015625)"/>
       <path id="STIXGeneral-Italic-64" d="M 3334 4371 
L 3373 4333 
L 3123 3360 
L 2739 1958 
Q 2323 429 2323 384 
Q 2323 256 2438 256 
Q 2522 256 2614 336 
Q 2707 416 2963 710 
L 3040 646 
Q 2547 -83 2099 -83 
Q 1978 -83 1907 -6 
Q 1837 70 1837 205 
Q 1837 397 1920 774 
Q 1645 307 1379 118 
Q 1114 -70 781 -70 
Q 461 -70 278 125 
Q 96 320 96 678 
Q 96 1440 713 2131 
Q 1331 2822 1965 2822 
Q 2163 2822 2256 2732 
Q 2349 2643 2381 2451 
L 2387 2451 
L 2675 3494 
Q 2765 3808 2765 3949 
Q 2765 4051 2694 4076 
Q 2624 4102 2355 4115 
L 2355 4224 
Q 2848 4269 3334 4371 
z
M 2278 2310 
Q 2278 2477 2185 2576 
Q 2093 2675 1978 2675 
Q 1677 2675 1395 2381 
Q 1075 2042 864 1571 
Q 653 1101 653 704 
Q 653 486 752 361 
Q 851 237 1024 237 
Q 1312 237 1606 550 
Q 1901 864 2089 1350 
Q 2278 1837 2278 2310 
z
" transform="scale(0.015625)"/>
      </defs>
      <use xlink:href="#STIXGeneral-Italic-3ba" transform="translate(0 0.003125)"/>
      <use xlink:href="#STIXGeneral-Regular-3d" transform="translate(58.83999 0.003125)"/>
      <use xlink:href="#STIXGeneral-Italic-6c" transform="translate(141.779971 50.192188) scale(0.7)"/>
      <use xlink:href="#STIXGeneral-Italic-6e" transform="translate(161.239963 50.192188) scale(0.7)"/>
      <use xlink:href="#STIXGeneral-Regular-28" transform="translate(196.239952 50.192188) scale(0.7)"/>
      <use xlink:href="#STIXGeneral-Italic-6e" transform="translate(219.549944 50.192188) scale(0.7)"/>
      <use xlink:href="#STIXGeneral-Regular-29" transform="translate(254.549933 50.192188) scale(0.7)"/>
      <use xlink:href="#STIXGeneral-Italic-6c" transform="translate(141.779971 -41.257812) scale(0.7)"/>
      <use xlink:href="#STIXGeneral-Italic-6e" transform="translate(161.239963 -41.257812) scale(0.7)"/>
      <use xlink:href="#STIXGeneral-Regular-28" transform="translate(196.239952 -41.257812) scale(0.7)"/>
      <use xlink:href="#STIXGeneral-Italic-64" transform="translate(219.549944 -41.257812) scale(0.7)"/>
      <use xlink:href="#STIXGeneral-Regular-29" transform="translate(254.549933 -41.257812) scale(0.7)"/>
      <path d="M 141.779971 12.8 
L 141.779971 19.05 
L 277.859924 19.05 
L 277.859924 12.8 
L 141.779971 12.8 
z
"/>
     </g>
    </g>
   </g>
   <g id="matplotlib.axis_2">
    <g id="ytick_1">
     <g id="line2d_9">
      <path d="M 373.381313 311.6435 
L 730.501313 311.6435 
" clip-path="url(#p8c49c27610)" style="fill: none; stroke: #b0b0b0; stroke-opacity: 0.3; stroke-width: 0.8; stroke-linecap: square"/>
     </g>
     <g id="line2d_10">
      <defs>
       <path id="m0b789d8544" d="M 0 0 
L -3.5 0 
" style="stroke: #000000; stroke-width: 0.8"/>
      </defs>
      <g>
       <use xlink:href="#m0b789d8544" x="373.381313" y="311.6435" style="stroke: #000000; stroke-width: 0.8"/>
      </g>
     </g>
     <g id="text_6">
      <!-- 0.0 -->
      <g transform="translate(338.881313 319.281625) scale(0.22 -0.22)">
       <use xlink:href="#TimesNewRomanPSMT-30"/>
       <use xlink:href="#TimesNewRomanPSMT-2e" transform="translate(50 0)"/>
       <use xlink:href="#TimesNewRomanPSMT-30" transform="translate(75 0)"/>
      </g>
     </g>
    </g>
    <g id="ytick_2">
     <g id="line2d_11">
      <path d="M 373.381313 285.0323 
L 730.501313 285.0323 
" clip-path="url(#p8c49c27610)" style="fill: none; stroke: #b0b0b0; stroke-opacity: 0.3; stroke-width: 0.8; stroke-linecap: square"/>
     </g>
     <g id="line2d_12">
      <g>
       <use xlink:href="#m0b789d8544" x="373.381313" y="285.0323" style="stroke: #000000; stroke-width: 0.8"/>
      </g>
     </g>
     <g id="text_7">
      <!-- 0.1 -->
      <g transform="translate(338.881313 292.670425) scale(0.22 -0.22)">
       <use xlink:href="#TimesNewRomanPSMT-30"/>
       <use xlink:href="#TimesNewRomanPSMT-2e" transform="translate(50 0)"/>
       <use xlink:href="#TimesNewRomanPSMT-31" transform="translate(75 0)"/>
      </g>
     </g>
    </g>
    <g id="ytick_3">
     <g id="line2d_13">
      <path d="M 373.381313 258.4211 
L 730.501313 258.4211 
" clip-path="url(#p8c49c27610)" style="fill: none; stroke: #b0b0b0; stroke-opacity: 0.3; stroke-width: 0.8; stroke-linecap: square"/>
     </g>
     <g id="line2d_14">
      <g>
       <use xlink:href="#m0b789d8544" x="373.381313" y="258.4211" style="stroke: #000000; stroke-width: 0.8"/>
      </g>
     </g>
     <g id="text_8">
      <!-- 0.2 -->
      <g transform="translate(338.881313 266.059225) scale(0.22 -0.22)">
       <defs>
        <path id="TimesNewRomanPSMT-32" d="M 2934 816 
L 2638 0 
L 138 0 
L 138 116 
Q 1241 1122 1691 1759 
Q 2141 2397 2141 2925 
Q 2141 3328 1894 3587 
Q 1647 3847 1303 3847 
Q 991 3847 742 3664 
Q 494 3481 375 3128 
L 259 3128 
Q 338 3706 661 4015 
Q 984 4325 1469 4325 
Q 1984 4325 2329 3994 
Q 2675 3663 2675 3213 
Q 2675 2891 2525 2569 
Q 2294 2063 1775 1497 
Q 997 647 803 472 
L 1909 472 
Q 2247 472 2383 497 
Q 2519 522 2628 598 
Q 2738 675 2819 816 
L 2934 816 
z
" transform="scale(0.015625)"/>
       </defs>
       <use xlink:href="#TimesNewRomanPSMT-30"/>
       <use xlink:href="#TimesNewRomanPSMT-2e" transform="translate(50 0)"/>
       <use xlink:href="#TimesNewRomanPSMT-32" transform="translate(75 0)"/>
      </g>
     </g>
    </g>
    <g id="ytick_4">
     <g id="line2d_15">
      <path d="M 373.381313 231.8099 
L 730.501313 231.8099 
" clip-path="url(#p8c49c27610)" style="fill: none; stroke: #b0b0b0; stroke-opacity: 0.3; stroke-width: 0.8; stroke-linecap: square"/>
     </g>
     <g id="line2d_16">
      <g>
       <use xlink:href="#m0b789d8544" x="373.381313" y="231.8099" style="stroke: #000000; stroke-width: 0.8"/>
      </g>
     </g>
     <g id="text_9">
      <!-- 0.3 -->
      <g transform="translate(338.881313 239.448025) scale(0.22 -0.22)">
       <defs>
        <path id="TimesNewRomanPSMT-33" d="M 325 3431 
Q 506 3859 782 4092 
Q 1059 4325 1472 4325 
Q 1981 4325 2253 3994 
Q 2459 3747 2459 3466 
Q 2459 3003 1878 2509 
Q 2269 2356 2469 2072 
Q 2669 1788 2669 1403 
Q 2669 853 2319 450 
Q 1863 -75 997 -75 
Q 569 -75 414 31 
Q 259 138 259 259 
Q 259 350 332 419 
Q 406 488 509 488 
Q 588 488 669 463 
Q 722 447 909 348 
Q 1097 250 1169 231 
Q 1284 197 1416 197 
Q 1734 197 1970 444 
Q 2206 691 2206 1028 
Q 2206 1275 2097 1509 
Q 2016 1684 1919 1775 
Q 1784 1900 1550 2001 
Q 1316 2103 1072 2103 
L 972 2103 
L 972 2197 
Q 1219 2228 1467 2375 
Q 1716 2522 1828 2728 
Q 1941 2934 1941 3181 
Q 1941 3503 1739 3701 
Q 1538 3900 1238 3900 
Q 753 3900 428 3381 
L 325 3431 
z
" transform="scale(0.015625)"/>
       </defs>
       <use xlink:href="#TimesNewRomanPSMT-30"/>
       <use xlink:href="#TimesNewRomanPSMT-2e" transform="translate(50 0)"/>
       <use xlink:href="#TimesNewRomanPSMT-33" transform="translate(75 0)"/>
      </g>
     </g>
    </g>
    <g id="ytick_5">
     <g id="line2d_17">
      <path d="M 373.381313 205.1987 
L 730.501313 205.1987 
" clip-path="url(#p8c49c27610)" style="fill: none; stroke: #b0b0b0; stroke-opacity: 0.3; stroke-width: 0.8; stroke-linecap: square"/>
     </g>
     <g id="line2d_18">
      <g>
       <use xlink:href="#m0b789d8544" x="373.381313" y="205.1987" style="stroke: #000000; stroke-width: 0.8"/>
      </g>
     </g>
     <g id="text_10">
      <!-- 0.4 -->
      <g transform="translate(338.881313 212.836825) scale(0.22 -0.22)">
       <defs>
        <path id="TimesNewRomanPSMT-34" d="M 2978 1563 
L 2978 1119 
L 2409 1119 
L 2409 0 
L 1894 0 
L 1894 1119 
L 100 1119 
L 100 1519 
L 2066 4325 
L 2409 4325 
L 2409 1563 
L 2978 1563 
z
M 1894 1563 
L 1894 3666 
L 406 1563 
L 1894 1563 
z
" transform="scale(0.015625)"/>
       </defs>
       <use xlink:href="#TimesNewRomanPSMT-30"/>
       <use xlink:href="#TimesNewRomanPSMT-2e" transform="translate(50 0)"/>
       <use xlink:href="#TimesNewRomanPSMT-34" transform="translate(75 0)"/>
      </g>
     </g>
    </g>
    <g id="ytick_6">
     <g id="line2d_19">
      <path d="M 373.381313 178.5875 
L 730.501313 178.5875 
" clip-path="url(#p8c49c27610)" style="fill: none; stroke: #b0b0b0; stroke-opacity: 0.3; stroke-width: 0.8; stroke-linecap: square"/>
     </g>
     <g id="line2d_20">
      <g>
       <use xlink:href="#m0b789d8544" x="373.381313" y="178.5875" style="stroke: #000000; stroke-width: 0.8"/>
      </g>
     </g>
     <g id="text_11">
      <!-- 0.5 -->
      <g transform="translate(338.881313 186.225625) scale(0.22 -0.22)">
       <use xlink:href="#TimesNewRomanPSMT-30"/>
       <use xlink:href="#TimesNewRomanPSMT-2e" transform="translate(50 0)"/>
       <use xlink:href="#TimesNewRomanPSMT-35" transform="translate(75 0)"/>
      </g>
     </g>
    </g>
    <g id="ytick_7">
     <g id="line2d_21">
      <path d="M 373.381313 151.9763 
L 730.501313 151.9763 
" clip-path="url(#p8c49c27610)" style="fill: none; stroke: #b0b0b0; stroke-opacity: 0.3; stroke-width: 0.8; stroke-linecap: square"/>
     </g>
     <g id="line2d_22">
      <g>
       <use xlink:href="#m0b789d8544" x="373.381313" y="151.9763" style="stroke: #000000; stroke-width: 0.8"/>
      </g>
     </g>
     <g id="text_12">
      <!-- 0.6 -->
      <g transform="translate(338.881313 159.614425) scale(0.22 -0.22)">
       <defs>
        <path id="TimesNewRomanPSMT-36" d="M 2869 4325 
L 2869 4209 
Q 2456 4169 2195 4045 
Q 1934 3922 1679 3669 
Q 1425 3416 1258 3105 
Q 1091 2794 978 2366 
Q 1428 2675 1881 2675 
Q 2316 2675 2634 2325 
Q 2953 1975 2953 1425 
Q 2953 894 2631 456 
Q 2244 -75 1606 -75 
Q 1172 -75 869 213 
Q 275 772 275 1663 
Q 275 2231 503 2743 
Q 731 3256 1154 3653 
Q 1578 4050 1965 4187 
Q 2353 4325 2688 4325 
L 2869 4325 
z
M 925 2138 
Q 869 1716 869 1456 
Q 869 1156 980 804 
Q 1091 453 1309 247 
Q 1469 100 1697 100 
Q 1969 100 2183 356 
Q 2397 613 2397 1088 
Q 2397 1622 2184 2012 
Q 1972 2403 1581 2403 
Q 1463 2403 1327 2353 
Q 1191 2303 925 2138 
z
" transform="scale(0.015625)"/>
       </defs>
       <use xlink:href="#TimesNewRomanPSMT-30"/>
       <use xlink:href="#TimesNewRomanPSMT-2e" transform="translate(50 0)"/>
       <use xlink:href="#TimesNewRomanPSMT-36" transform="translate(75 0)"/>
      </g>
     </g>
    </g>
    <g id="ytick_8">
     <g id="line2d_23">
      <path d="M 373.381313 125.3651 
L 730.501313 125.3651 
" clip-path="url(#p8c49c27610)" style="fill: none; stroke: #b0b0b0; stroke-opacity: 0.3; stroke-width: 0.8; stroke-linecap: square"/>
     </g>
     <g id="line2d_24">
      <g>
       <use xlink:href="#m0b789d8544" x="373.381313" y="125.3651" style="stroke: #000000; stroke-width: 0.8"/>
      </g>
     </g>
     <g id="text_13">
      <!-- 0.7 -->
      <g transform="translate(338.881313 133.003225) scale(0.22 -0.22)">
       <defs>
        <path id="TimesNewRomanPSMT-37" d="M 644 4238 
L 2916 4238 
L 2916 4119 
L 1503 -88 
L 1153 -88 
L 2419 3728 
L 1253 3728 
Q 900 3728 750 3644 
Q 488 3500 328 3200 
L 238 3234 
L 644 4238 
z
" transform="scale(0.015625)"/>
       </defs>
       <use xlink:href="#TimesNewRomanPSMT-30"/>
       <use xlink:href="#TimesNewRomanPSMT-2e" transform="translate(50 0)"/>
       <use xlink:href="#TimesNewRomanPSMT-37" transform="translate(75 0)"/>
      </g>
     </g>
    </g>
    <g id="ytick_9">
     <g id="line2d_25">
      <path d="M 373.381313 98.7539 
L 730.501313 98.7539 
" clip-path="url(#p8c49c27610)" style="fill: none; stroke: #b0b0b0; stroke-opacity: 0.3; stroke-width: 0.8; stroke-linecap: square"/>
     </g>
     <g id="line2d_26">
      <g>
       <use xlink:href="#m0b789d8544" x="373.381313" y="98.7539" style="stroke: #000000; stroke-width: 0.8"/>
      </g>
     </g>
     <g id="text_14">
      <!-- 0.8 -->
      <g transform="translate(338.881313 106.392025) scale(0.22 -0.22)">
       <defs>
        <path id="TimesNewRomanPSMT-38" d="M 1228 2134 
Q 725 2547 579 2797 
Q 434 3047 434 3316 
Q 434 3728 753 4026 
Q 1072 4325 1600 4325 
Q 2113 4325 2425 4047 
Q 2738 3769 2738 3413 
Q 2738 3175 2569 2928 
Q 2400 2681 1866 2347 
Q 2416 1922 2594 1678 
Q 2831 1359 2831 1006 
Q 2831 559 2490 242 
Q 2150 -75 1597 -75 
Q 994 -75 656 303 
Q 388 606 388 966 
Q 388 1247 577 1523 
Q 766 1800 1228 2134 
z
M 1719 2469 
Q 2094 2806 2194 3001 
Q 2294 3197 2294 3444 
Q 2294 3772 2109 3958 
Q 1925 4144 1606 4144 
Q 1288 4144 1088 3959 
Q 888 3775 888 3528 
Q 888 3366 970 3203 
Q 1053 3041 1206 2894 
L 1719 2469 
z
M 1375 2016 
Q 1116 1797 991 1539 
Q 866 1281 866 981 
Q 866 578 1086 336 
Q 1306 94 1647 94 
Q 1984 94 2187 284 
Q 2391 475 2391 747 
Q 2391 972 2272 1150 
Q 2050 1481 1375 2016 
z
" transform="scale(0.015625)"/>
       </defs>
       <use xlink:href="#TimesNewRomanPSMT-30"/>
       <use xlink:href="#TimesNewRomanPSMT-2e" transform="translate(50 0)"/>
       <use xlink:href="#TimesNewRomanPSMT-38" transform="translate(75 0)"/>
      </g>
     </g>
    </g>
    <g id="ytick_10">
     <g id="line2d_27">
      <path d="M 373.381313 72.1427 
L 730.501313 72.1427 
" clip-path="url(#p8c49c27610)" style="fill: none; stroke: #b0b0b0; stroke-opacity: 0.3; stroke-width: 0.8; stroke-linecap: square"/>
     </g>
     <g id="line2d_28">
      <g>
       <use xlink:href="#m0b789d8544" x="373.381313" y="72.1427" style="stroke: #000000; stroke-width: 0.8"/>
      </g>
     </g>
     <g id="text_15">
      <!-- 0.9 -->
      <g transform="translate(338.881313 79.780825) scale(0.22 -0.22)">
       <defs>
        <path id="TimesNewRomanPSMT-39" d="M 338 -88 
L 338 28 
Q 744 34 1094 217 
Q 1444 400 1770 856 
Q 2097 1313 2225 1859 
Q 1734 1544 1338 1544 
Q 891 1544 572 1889 
Q 253 2234 253 2806 
Q 253 3363 572 3797 
Q 956 4325 1575 4325 
Q 2097 4325 2469 3894 
Q 2925 3359 2925 2575 
Q 2925 1869 2578 1258 
Q 2231 647 1613 244 
Q 1109 -88 516 -88 
L 338 -88 
z
M 2275 2091 
Q 2331 2497 2331 2741 
Q 2331 3044 2228 3395 
Q 2125 3747 1936 3934 
Q 1747 4122 1506 4122 
Q 1228 4122 1018 3872 
Q 809 3622 809 3128 
Q 809 2469 1088 2097 
Q 1291 1828 1588 1828 
Q 1731 1828 1928 1897 
Q 2125 1966 2275 2091 
z
" transform="scale(0.015625)"/>
       </defs>
       <use xlink:href="#TimesNewRomanPSMT-30"/>
       <use xlink:href="#TimesNewRomanPSMT-2e" transform="translate(50 0)"/>
       <use xlink:href="#TimesNewRomanPSMT-39" transform="translate(75 0)"/>
      </g>
     </g>
    </g>
    <g id="ytick_11">
     <g id="line2d_29">
      <path d="M 373.381313 45.5315 
L 730.501313 45.5315 
" clip-path="url(#p8c49c27610)" style="fill: none; stroke: #b0b0b0; stroke-opacity: 0.3; stroke-width: 0.8; stroke-linecap: square"/>
     </g>
     <g id="line2d_30">
      <g>
       <use xlink:href="#m0b789d8544" x="373.381313" y="45.5315" style="stroke: #000000; stroke-width: 0.8"/>
      </g>
     </g>
     <g id="text_16">
      <!-- 1.0 -->
      <g transform="translate(338.881313 53.169625) scale(0.22 -0.22)">
       <use xlink:href="#TimesNewRomanPSMT-31"/>
       <use xlink:href="#TimesNewRomanPSMT-2e" transform="translate(50 0)"/>
       <use xlink:href="#TimesNewRomanPSMT-30" transform="translate(75 0)"/>
      </g>
     </g>
    </g>
    <g id="text_17">
     <!-- Accuracy -->
     <g transform="translate(330.134125 220.726094) rotate(-90) scale(0.22 -0.22)">
      <defs>
       <path id="TimesNewRomanPSMT-41" d="M 2928 1419 
L 1288 1419 
L 1000 750 
Q 894 503 894 381 
Q 894 284 986 211 
Q 1078 138 1384 116 
L 1384 0 
L 50 0 
L 50 116 
Q 316 163 394 238 
Q 553 388 747 847 
L 2238 4334 
L 2347 4334 
L 3822 809 
Q 4000 384 4145 257 
Q 4291 131 4550 116 
L 4550 0 
L 2878 0 
L 2878 116 
Q 3131 128 3220 200 
Q 3309 272 3309 375 
Q 3309 513 3184 809 
L 2928 1419 
z
M 2841 1650 
L 2122 3363 
L 1384 1650 
L 2841 1650 
z
" transform="scale(0.015625)"/>
       <path id="TimesNewRomanPSMT-63" d="M 2631 1088 
Q 2516 522 2178 217 
Q 1841 -88 1431 -88 
Q 944 -88 581 321 
Q 219 731 219 1428 
Q 219 2103 620 2525 
Q 1022 2947 1584 2947 
Q 2006 2947 2278 2723 
Q 2550 2500 2550 2259 
Q 2550 2141 2473 2067 
Q 2397 1994 2259 1994 
Q 2075 1994 1981 2113 
Q 1928 2178 1911 2362 
Q 1894 2547 1784 2644 
Q 1675 2738 1481 2738 
Q 1169 2738 978 2506 
Q 725 2200 725 1697 
Q 725 1184 976 792 
Q 1228 400 1656 400 
Q 1963 400 2206 609 
Q 2378 753 2541 1131 
L 2631 1088 
z
" transform="scale(0.015625)"/>
       <path id="TimesNewRomanPSMT-75" d="M 2709 2863 
L 2709 1128 
Q 2709 631 2732 520 
Q 2756 409 2807 365 
Q 2859 322 2928 322 
Q 3025 322 3147 375 
L 3191 266 
L 2334 -88 
L 2194 -88 
L 2194 519 
Q 1825 119 1631 15 
Q 1438 -88 1222 -88 
Q 981 -88 804 51 
Q 628 191 559 409 
Q 491 628 491 1028 
L 491 2306 
Q 491 2509 447 2587 
Q 403 2666 317 2708 
Q 231 2750 6 2747 
L 6 2863 
L 1009 2863 
L 1009 947 
Q 1009 547 1148 422 
Q 1288 297 1484 297 
Q 1619 297 1789 381 
Q 1959 466 2194 703 
L 2194 2325 
Q 2194 2569 2105 2655 
Q 2016 2741 1734 2747 
L 1734 2863 
L 2709 2863 
z
" transform="scale(0.015625)"/>
       <path id="TimesNewRomanPSMT-72" d="M 1038 2947 
L 1038 2303 
Q 1397 2947 1775 2947 
Q 1947 2947 2059 2842 
Q 2172 2738 2172 2600 
Q 2172 2478 2090 2393 
Q 2009 2309 1897 2309 
Q 1788 2309 1652 2417 
Q 1516 2525 1450 2525 
Q 1394 2525 1328 2463 
Q 1188 2334 1038 2041 
L 1038 669 
Q 1038 431 1097 309 
Q 1138 225 1241 169 
Q 1344 113 1538 113 
L 1538 0 
L 72 0 
L 72 113 
Q 291 113 397 181 
Q 475 231 506 341 
Q 522 394 522 644 
L 522 1753 
Q 522 2253 501 2348 
Q 481 2444 426 2487 
Q 372 2531 291 2531 
Q 194 2531 72 2484 
L 41 2597 
L 906 2947 
L 1038 2947 
z
" transform="scale(0.015625)"/>
       <path id="TimesNewRomanPSMT-61" d="M 1822 413 
Q 1381 72 1269 19 
Q 1100 -59 909 -59 
Q 613 -59 420 144 
Q 228 347 228 678 
Q 228 888 322 1041 
Q 450 1253 767 1440 
Q 1084 1628 1822 1897 
L 1822 2009 
Q 1822 2438 1686 2597 
Q 1550 2756 1291 2756 
Q 1094 2756 978 2650 
Q 859 2544 859 2406 
L 866 2225 
Q 866 2081 792 2003 
Q 719 1925 600 1925 
Q 484 1925 411 2006 
Q 338 2088 338 2228 
Q 338 2497 613 2722 
Q 888 2947 1384 2947 
Q 1766 2947 2009 2819 
Q 2194 2722 2281 2516 
Q 2338 2381 2338 1966 
L 2338 994 
Q 2338 584 2353 492 
Q 2369 400 2405 369 
Q 2441 338 2488 338 
Q 2538 338 2575 359 
Q 2641 400 2828 588 
L 2828 413 
Q 2478 -56 2159 -56 
Q 2006 -56 1915 50 
Q 1825 156 1822 413 
z
M 1822 616 
L 1822 1706 
Q 1350 1519 1213 1441 
Q 966 1303 859 1153 
Q 753 1003 753 825 
Q 753 600 887 451 
Q 1022 303 1197 303 
Q 1434 303 1822 616 
z
" transform="scale(0.015625)"/>
       <path id="TimesNewRomanPSMT-79" d="M 38 2863 
L 1372 2863 
L 1372 2747 
L 1306 2747 
Q 1166 2747 1095 2686 
Q 1025 2625 1025 2534 
Q 1025 2413 1128 2197 
L 1825 753 
L 2466 2334 
Q 2519 2463 2519 2588 
Q 2519 2644 2497 2672 
Q 2472 2706 2419 2726 
Q 2366 2747 2231 2747 
L 2231 2863 
L 3163 2863 
L 3163 2747 
Q 3047 2734 2984 2696 
Q 2922 2659 2847 2556 
Q 2819 2513 2741 2316 
L 1575 -541 
Q 1406 -956 1132 -1168 
Q 859 -1381 606 -1381 
Q 422 -1381 303 -1275 
Q 184 -1169 184 -1031 
Q 184 -900 270 -820 
Q 356 -741 506 -741 
Q 609 -741 788 -809 
Q 913 -856 944 -856 
Q 1038 -856 1148 -759 
Q 1259 -663 1372 -384 
L 1575 113 
L 547 2272 
Q 500 2369 397 2513 
Q 319 2622 269 2659 
Q 197 2709 38 2747 
L 38 2863 
z
" transform="scale(0.015625)"/>
      </defs>
      <use xlink:href="#TimesNewRomanPSMT-41"/>
      <use xlink:href="#TimesNewRomanPSMT-63" transform="translate(72.216797 0)"/>
      <use xlink:href="#TimesNewRomanPSMT-63" transform="translate(116.601562 0)"/>
      <use xlink:href="#TimesNewRomanPSMT-75" transform="translate(160.986328 0)"/>
      <use xlink:href="#TimesNewRomanPSMT-72" transform="translate(210.986328 0)"/>
      <use xlink:href="#TimesNewRomanPSMT-61" transform="translate(244.287109 0)"/>
      <use xlink:href="#TimesNewRomanPSMT-63" transform="translate(288.671875 0)"/>
      <use xlink:href="#TimesNewRomanPSMT-79" transform="translate(333.056641 0)"/>
     </g>
    </g>
   </g>
   <g id="line2d_31">
    <path d="M 373.381313 178.5875 
L 441.283179 178.321376 
L 459.59371 170.338023 
L 470.622167 164.749664 
L 478.539157 164.084384 
L 484.71943 159.294367 
L 489.789527 160.624925 
L 494.088208 160.092708 
L 497.81951 159.427429 
L 501.115894 158.229932 
L 504.068246 159.294367 
L 506.741638 158.629087 
L 511.432822 154.371303 
L 513.515888 153.17379 
L 515.456162 152.508511 
L 517.271971 151.177952 
L 518.978326 151.177952 
L 520.587676 151.044906 
L 522.110458 151.710185 
L 523.555513 150.778781 
L 524.930391 150.778781 
L 526.241593 150.512673 
L 527.494759 151.177952 
L 528.694808 151.177952 
L 529.846061 150.911843 
L 530.952332 149.980456 
L 532.017003 150.645735 
L 533.043091 149.980456 
L 534.033294 150.246564 
L 535.91551 149.182114 
L 536.81169 149.980456 
L 537.680375 149.448223 
L 538.523203 149.315176 
L 539.341668 148.649897 
L 540.910874 148.117664 
L 541.664028 147.452384 
L 542.397668 147.851555 
L 543.810277 147.186276 
L 544.491005 147.053214 
L 545.155752 147.319338 
L 545.805251 147.053214 
L 546.440186 146.520997 
L 547.061196 147.452384 
L 547.668879 146.920167 
L 548.263794 147.186276 
L 548.846467 146.654059 
L 549.417392 147.053214 
L 549.977033 147.585447 
L 551.064189 146.254888 
L 551.592505 146.787105 
L 552.111144 147.718493 
L 552.620455 146.920167 
L 553.120767 146.520997 
L 553.612393 147.319338 
L 554.095628 147.319338 
L 554.570756 145.855717 
L 555.038042 145.589609 
L 555.497743 146.654059 
L 556.833694 145.855717 
L 557.69055 145.855717 
L 558.109447 145.456546 
L 558.522237 146.654059 
L 558.929097 145.855717 
L 559.330193 145.589609 
L 559.725687 145.589609 
L 560.115733 146.121826 
L 560.50048 145.855717 
L 561.254637 145.057376 
L 561.624315 145.3235 
L 561.989229 145.3235 
L 562.3495 145.456546 
L 563.056576 145.456546 
L 563.403601 145.3235 
L 564.419868 144.525158 
L 565.400922 145.190438 
L 565.720529 145.057376 
L 566.036569 145.057376 
L 566.349121 144.525158 
L 566.658261 144.25905 
L 566.964062 145.190438 
L 567.266597 145.3235 
L 567.565933 144.125988 
L 567.862137 144.25905 
L 568.155276 145.3235 
L 568.445411 144.525158 
L 569.016912 144.125988 
L 569.298394 145.855717 
L 569.577107 144.125988 
L 569.853102 143.859879 
L 570.397152 145.3235 
L 570.665307 145.3235 
L 570.930946 144.125988 
L 571.194116 144.658205 
L 571.454863 144.125988 
L 571.713231 144.125988 
L 571.969263 144.392096 
L 572.223 144.25905 
L 572.474484 143.726817 
L 572.723755 144.525158 
L 572.97085 144.924329 
L 573.215807 144.25905 
L 573.458664 145.057376 
L 573.938217 143.992925 
L 574.174982 144.25905 
L 574.409783 145.3235 
L 574.642654 145.190438 
L 574.873625 144.25905 
L 575.102728 144.525158 
L 575.329992 145.456546 
L 575.555446 145.456546 
L 575.77912 144.658205 
L 576.00104 144.791267 
L 576.221235 144.525158 
L 576.439731 145.3235 
L 576.871729 144.658205 
L 577.297235 145.3235 
L 577.507615 145.988779 
L 577.716443 144.924329 
L 577.923742 145.3235 
L 578.129534 146.121826 
L 578.536686 145.3235 
L 578.738087 145.190438 
L 578.938066 145.456546 
L 579.136643 146.254888 
L 579.333837 145.456546 
L 579.529667 145.190438 
L 579.917311 146.254888 
L 580.10916 145.988779 
L 580.299719 145.456546 
L 580.489004 145.589609 
L 580.677032 146.387934 
L 580.86382 146.520997 
L 581.049384 145.589609 
L 581.233739 145.589609 
L 581.416902 146.254888 
L 581.598888 146.387934 
L 581.779712 146.254888 
L 581.959389 145.456546 
L 582.137932 145.3235 
L 582.491677 146.254888 
L 582.666906 145.057376 
L 582.841058 146.121826 
L 583.014144 145.988779 
L 583.18618 145.3235 
L 583.357176 145.589609 
L 583.527146 145.3235 
L 584.031019 145.855717 
L 584.197004 145.456546 
L 584.362022 146.121826 
L 584.526083 145.589609 
L 584.689199 145.722655 
L 584.851381 145.456546 
L 585.01264 145.456546 
L 585.172985 146.121826 
L 585.332428 146.121826 
L 585.648645 145.589609 
L 585.805439 145.589609 
L 585.961369 145.722655 
L 586.116446 145.456546 
L 586.270678 145.456546 
L 586.424074 145.3235 
L 586.576644 145.855717 
L 586.728397 145.3235 
L 586.87934 145.3235 
L 587.178834 145.855717 
L 587.327402 145.456546 
L 587.768484 145.456546 
L 587.913998 145.190438 
L 588.058768 145.456546 
L 588.202802 144.525158 
L 588.346106 145.456546 
L 588.488689 144.924329 
L 588.630558 145.3235 
L 588.91218 144.791267 
L 589.19103 145.456546 
L 589.46716 144.658205 
L 589.604222 145.456546 
L 589.740623 145.190438 
L 589.876371 145.190438 
L 590.011471 144.791267 
L 590.14593 145.190438 
L 590.279753 145.190438 
L 590.412946 145.456546 
L 590.545516 145.057376 
L 590.677469 145.456546 
L 590.808809 145.190438 
L 590.939543 145.456546 
L 591.199214 145.190438 
L 591.328162 145.456546 
L 591.456525 145.3235 
L 591.58431 144.924329 
L 591.838161 145.589609 
L 591.964238 145.3235 
L 592.089757 144.791267 
L 592.463008 145.988779 
L 592.709137 144.924329 
L 592.831403 144.791267 
L 592.953144 145.190438 
L 593.074364 144.791267 
L 593.315258 145.589609 
L 593.55412 144.658205 
L 593.6728 145.057376 
L 593.790984 144.658205 
L 593.908677 144.791267 
L 594.025883 145.722655 
L 594.374618 144.924329 
L 594.489915 145.722655 
L 594.604745 145.722655 
L 594.71911 145.456546 
L 594.833016 144.791267 
L 595.059462 145.3235 
L 595.284112 145.589609 
L 595.395772 145.3235 
L 595.506993 145.589609 
L 595.728134 145.190438 
L 595.947561 145.855717 
L 596.05664 145.722655 
L 596.1653 145.3235 
L 596.273546 146.254888 
L 596.488803 145.988779 
L 596.595821 145.988779 
L 596.702436 145.190438 
L 596.808651 146.520997 
L 596.914469 146.121826 
L 597.019893 146.520997 
L 597.229572 145.190438 
L 597.437709 146.520997 
L 597.541206 146.387934 
L 597.644327 145.589609 
L 597.747073 145.722655 
L 597.951455 146.254888 
L 598.053095 146.254888 
L 598.255287 145.855717 
L 598.355845 146.254888 
L 598.456046 146.121826 
L 598.555895 146.387934 
L 598.754541 145.722655 
L 598.853344 145.988779 
L 598.951803 146.787105 
L 599.147701 145.456546 
L 599.245144 145.3235 
L 599.342253 145.855717 
L 599.43903 147.186276 
L 599.631597 145.456546 
L 599.918015 147.186276 
L 600.107363 145.589609 
L 600.201565 145.722655 
L 600.295454 146.920167 
L 600.389033 146.787105 
L 600.575268 145.722655 
L 600.667928 145.722655 
L 600.760286 146.387934 
L 600.944103 145.855717 
L 601.035566 146.121826 
L 601.126734 145.589609 
L 601.308196 146.121826 
L 601.488501 146.387934 
L 601.578225 145.589609 
L 601.667666 145.988779 
L 601.756825 145.722655 
L 601.934306 146.121826 
L 602.022631 145.722655 
L 602.373201 146.520997 
L 602.546871 145.988779 
L 602.633309 145.988779 
L 602.805396 146.387934 
L 602.89105 146.387934 
L 602.976444 145.988779 
L 603.146465 146.654059 
L 603.231095 146.520997 
L 603.399598 146.254888 
L 603.567105 146.787105 
L 603.650488 146.654059 
L 603.733626 146.254888 
L 603.816521 146.387934 
L 603.899174 146.787105 
L 604.145696 146.254888 
L 604.308859 146.787105 
L 604.39009 146.520997 
L 604.471088 146.920167 
L 604.551855 146.387934 
L 604.632392 147.053214 
L 604.712701 146.387934 
L 604.872639 146.920167 
L 604.952271 146.387934 
L 605.110865 146.920167 
L 605.18983 146.787105 
L 605.268576 146.387934 
L 605.425413 146.920167 
L 605.503507 146.787105 
L 605.659052 147.186276 
L 605.813748 146.654059 
L 606.196829 147.319338 
L 606.348622 146.520997 
L 606.424214 147.186276 
L 606.499606 147.053214 
L 606.574797 146.920167 
L 606.649788 147.053214 
L 606.724582 146.654059 
L 606.799179 147.186276 
L 606.87358 146.920167 
L 606.947786 146.787105 
L 607.021797 147.186276 
L 607.095616 146.387934 
L 607.315925 147.585447 
L 607.461852 146.520997 
L 607.534534 146.654059 
L 607.60703 147.452384 
L 607.679341 147.053214 
L 607.751467 146.920167 
L 607.895172 146.520997 
L 608.038151 147.053214 
L 608.10937 146.920167 
L 608.180411 146.387934 
L 608.321961 147.319338 
L 608.392471 147.186276 
L 608.532967 146.520997 
L 608.67277 146.920167 
L 608.742413 146.387934 
L 608.881188 147.319338 
L 608.950321 147.186276 
L 609.088083 146.254888 
L 609.156713 147.186276 
L 609.293477 146.387934 
L 609.361612 147.186276 
L 609.429584 146.121826 
L 609.497392 146.654059 
L 609.565039 147.851555 
L 609.632525 147.186276 
L 609.767015 146.254888 
L 609.834022 146.654059 
L 609.967561 147.452384 
L 610.100473 145.988779 
L 610.166696 147.186276 
L 610.232765 146.920167 
L 610.364441 147.053214 
L 610.43005 147.718493 
L 610.495508 147.319338 
L 610.560814 146.520997 
L 610.690977 147.186276 
L 610.755835 146.254888 
L 610.885107 147.319338 
L 610.949522 147.452384 
L 611.077914 146.520997 
L 611.141893 147.319338 
L 611.205727 147.186276 
L 611.269418 147.452384 
L 611.396372 146.654059 
L 611.459636 147.452384 
L 611.522759 146.520997 
L 611.585741 147.053214 
L 611.773852 147.452384 
L 611.898569 146.787105 
L 612.022739 147.319338 
L 612.084621 147.319338 
L 612.146367 147.186276 
L 612.207979 147.452384 
L 612.330803 146.920167 
L 612.392015 147.186276 
L 612.453096 147.053214 
L 612.514045 146.520997 
L 612.696109 147.452384 
L 612.816838 146.920167 
L 612.937054 147.186276 
L 612.996971 147.186276 
L 613.056762 147.319338 
L 613.116427 146.387934 
L 613.175967 147.452384 
L 613.235381 146.520997 
L 613.353837 147.585447 
L 613.530598 146.787105 
L 613.589273 146.920167 
L 613.647828 147.452384 
L 613.706261 146.787105 
L 613.764575 147.186276 
L 613.880842 146.920167 
L 613.938797 147.186276 
L 613.996634 146.920167 
L 614.054353 147.186276 
L 614.16944 146.654059 
L 614.226808 147.053214 
L 614.28406 146.787105 
L 614.341197 146.787105 
L 614.455125 146.520997 
L 614.568597 146.787105 
L 614.625163 146.387934 
L 614.681616 146.787105 
L 614.737957 146.654059 
L 614.794186 146.787105 
L 614.962207 146.520997 
L 615.073669 146.520997 
L 615.184694 146.387934 
L 615.240044 146.520997 
L 615.405447 146.254888 
L 615.460367 146.254888 
L 615.515181 146.121826 
L 615.569889 147.053214 
L 615.624492 146.254888 
L 615.678989 146.387934 
L 615.733382 147.053214 
L 615.895937 145.988779 
L 616.057563 146.121826 
L 616.111235 146.121826 
L 616.164804 146.254888 
L 616.218273 145.589609 
L 616.271641 145.722655 
L 616.324908 147.053214 
L 616.378075 146.121826 
L 616.484111 145.589609 
L 616.536981 146.787105 
L 616.589752 145.589609 
L 616.642425 145.589609 
L 616.799858 146.520997 
L 616.852142 145.589609 
L 616.904329 145.722655 
L 617.060317 146.121826 
L 617.163834 145.589609 
L 617.21545 145.988779 
L 617.266973 146.254888 
L 617.318402 145.855717 
L 617.369738 146.121826 
L 617.420982 146.121826 
L 617.472132 146.520997 
L 617.52319 145.3235 
L 617.574157 146.520997 
L 617.625032 145.855717 
L 617.675815 145.988779 
L 617.77711 145.988779 
L 617.827622 146.121826 
L 617.878044 145.855717 
L 617.928376 145.988779 
L 617.978619 146.121826 
L 618.028773 145.988779 
L 618.128815 145.988779 
L 618.178704 145.456546 
L 618.228505 146.121826 
L 618.278219 145.855717 
L 618.327845 145.855717 
L 618.377385 145.988779 
L 618.426838 145.855717 
L 618.525486 145.855717 
L 618.672817 145.988779 
L 618.721758 145.988779 
L 618.965199 145.589609 
L 619.013637 145.988779 
L 619.061993 145.589609 
L 619.110266 145.3235 
L 619.302539 146.387934 
L 619.350404 145.988779 
L 619.398188 146.254888 
L 619.445892 146.387934 
L 619.588522 145.190438 
L 619.730438 146.387934 
L 619.824656 145.190438 
L 619.871647 146.387934 
L 619.965396 145.988779 
L 620.012154 146.920167 
L 620.10544 146.654059 
L 620.151968 145.456546 
L 620.19842 145.855717 
L 620.244796 146.387934 
L 620.291095 145.3235 
L 620.33732 146.654059 
L 620.429542 146.254888 
L 620.475541 146.520997 
L 620.521465 146.387934 
L 620.567315 145.3235 
L 620.613091 146.387934 
L 620.704421 145.456546 
L 620.795458 146.387934 
L 620.840867 145.988779 
L 620.886203 145.589609 
L 620.931467 145.988779 
L 621.021777 146.654059 
L 621.066825 145.988779 
L 621.111801 146.787105 
L 621.156706 146.654059 
L 621.290994 145.190438 
L 621.335616 146.121826 
L 621.380167 145.722655 
L 621.424649 144.924329 
L 621.513403 146.654059 
L 621.557676 146.520997 
L 621.690081 146.387934 
L 621.865663 146.787105 
L 621.953047 145.855717 
L 621.996638 146.520997 
L 622.040163 145.988779 
L 622.08362 145.988779 
L 622.213594 146.654059 
L 622.299913 146.121826 
L 622.342974 146.254888 
L 622.38597 146.654059 
L 622.4289 145.988779 
L 622.514566 146.121826 
L 622.557302 145.988779 
L 622.685125 146.387934 
L 622.854663 145.855717 
L 622.981153 146.520997 
L 623.065167 146.121826 
L 623.148933 145.988779 
L 623.190723 146.387934 
L 623.274118 145.988779 
L 623.315724 146.254888 
L 623.357269 146.387934 
L 623.398753 146.121826 
L 623.440176 146.254888 
L 623.481539 146.387934 
L 623.522841 146.254888 
L 623.564083 146.254888 
L 623.605265 146.121826 
L 623.728454 146.387934 
L 623.769398 146.387934 
L 623.810283 146.254888 
L 623.851109 146.520997 
L 623.932585 145.855717 
L 623.973235 146.387934 
L 624.013827 145.589609 
L 624.054361 145.589609 
L 624.215919 144.924329 
L 624.296353 146.121826 
L 624.416578 145.988779 
L 624.576088 145.057376 
L 624.615825 145.190438 
L 624.655507 145.057376 
L 624.695133 144.924329 
L 624.734704 145.057376 
L 624.77422 145.057376 
L 624.970975 144.525158 
L 625.049296 144.791267 
L 625.127401 144.25905 
L 625.166373 144.525158 
L 625.205291 144.658205 
L 625.282968 144.25905 
L 625.399084 144.791267 
L 625.514726 144.392096 
L 625.553169 144.658205 
L 625.629898 144.791267 
L 625.668185 144.658205 
L 625.70642 144.658205 
L 625.858847 144.924329 
L 625.896825 144.658205 
L 625.97263 144.791267 
L 626.010457 144.791267 
L 626.085959 144.924329 
L 626.123634 144.392096 
L 626.198835 144.924329 
L 626.236361 144.525158 
L 626.273837 144.791267 
L 626.311263 144.658205 
L 626.348641 144.392096 
L 626.385968 144.525158 
L 626.460477 144.392096 
L 626.497658 144.924329 
L 626.608908 144.525158 
L 626.645895 144.658205 
L 626.682833 144.392096 
L 626.719723 144.392096 
L 626.756566 144.791267 
L 626.830107 144.658205 
L 626.903457 144.791267 
L 626.976618 144.392096 
L 627.04959 144.392096 
L 627.086006 144.525158 
L 627.122375 144.392096 
L 627.303523 144.125988 
L 627.339614 144.125988 
L 627.411658 143.992925 
L 627.483519 144.525158 
L 627.626697 143.992925 
L 627.662378 143.859879 
L 627.698015 143.992925 
L 627.840115 144.392096 
L 627.910899 144.525158 
L 628.051937 143.992925 
L 628.087087 144.392096 
L 628.157257 144.125988 
L 628.192276 144.125988 
L 628.262186 144.25905 
L 628.297076 144.125988 
L 628.366728 144.125988 
L 628.50552 144.25905 
L 628.540112 144.25905 
L 628.574661 143.992925 
L 628.643635 144.125988 
L 628.678058 144.125988 
L 628.71244 144.392096 
L 628.74678 143.859879 
L 628.849552 143.726817 
L 628.986003 144.392096 
L 629.121799 143.859879 
L 629.155647 143.859879 
L 629.189454 144.125988 
L 629.256948 143.992925 
L 629.290634 143.859879 
L 629.324281 144.125988 
L 629.458469 144.125988 
L 629.558694 144.25905 
L 629.691778 143.859879 
L 629.824239 144.392096 
L 629.956084 143.859879 
L 629.98895 144.25905 
L 630.054567 144.125988 
L 630.120032 143.859879 
L 630.152708 144.125988 
L 630.25051 144.125988 
L 630.283035 143.992925 
L 630.315524 144.125988 
L 630.380389 143.992925 
L 630.412766 144.392096 
L 630.445106 143.992925 
L 630.541905 144.125988 
L 630.638374 144.125988 
L 630.670458 143.992925 
L 630.702505 144.125988 
L 630.79843 144.525158 
L 630.830333 144.125988 
L 630.925826 144.25905 
L 631.084269 144.525158 
L 631.273238 144.525158 
L 631.304611 144.658205 
L 631.367252 144.525158 
L 631.398521 144.525158 
L 631.49212 144.658205 
L 631.61644 144.525158 
L 631.709323 144.658205 
L 631.740217 144.525158 
L 631.771076 144.791267 
L 631.801903 144.791267 
L 631.832695 144.525158 
L 631.89418 144.791267 
L 632.077838 144.791267 
L 632.199619 144.658205 
L 632.320877 144.924329 
L 632.381313 144.791267 
L 632.471724 145.057376 
L 632.591826 144.791267 
L 632.71142 144.924329 
L 632.800786 144.791267 
L 632.88987 144.924329 
L 632.919503 144.791267 
L 632.949104 145.3235 
L 633.037724 145.057376 
L 633.067203 145.057376 
L 633.214136 144.658205 
L 633.272696 144.658205 
L 633.301931 144.791267 
L 633.331136 143.992925 
L 633.389455 144.924329 
L 633.41857 144.924329 
L 633.53473 144.658205 
L 633.563696 144.791267 
L 633.621539 144.658205 
L 633.679264 144.658205 
L 633.708082 144.791267 
L 633.765631 144.658205 
L 633.794361 144.658205 
L 633.851735 144.791267 
L 633.880379 144.525158 
L 633.908993 144.658205 
L 633.966136 144.525158 
L 634.051634 144.525158 
L 634.193559 144.392096 
L 634.250131 144.392096 
L 634.278374 144.25905 
L 634.30659 144.525158 
L 634.334777 144.392096 
L 634.391068 144.658205 
L 634.419171 144.392096 
L 634.559271 144.392096 
L 634.726481 144.658205 
L 634.754253 144.658205 
L 634.781999 144.791267 
L 634.809717 144.525158 
L 634.865072 144.791267 
L 634.892709 144.25905 
L 634.975459 144.658205 
L 635.002988 144.525158 
L 635.057967 144.658205 
L 635.11284 144.25905 
L 635.140236 144.658205 
L 635.222267 144.392096 
L 635.249557 144.392096 
L 635.43986 143.859879 
L 635.466942 143.992925 
L 635.548033 143.859879 
L 635.575012 143.859879 
L 635.68267 144.125988 
L 635.736347 144.392096 
L 635.816671 143.726817 
L 635.843395 143.992925 
L 635.896768 143.59377 
L 635.923417 143.726817 
L 636.056285 143.726817 
L 636.109259 143.59377 
L 636.188533 143.992925 
L 636.267587 144.25905 
L 636.293889 143.726817 
L 636.425035 144.25905 
L 636.503431 144.25905 
L 636.555576 144.125988 
L 636.581612 144.25905 
L 636.711435 144.392096 
L 636.840665 144.25905 
L 636.866441 144.25905 
L 636.994967 144.525158 
L 637.122913 144.125988 
L 637.199404 143.992925 
L 637.275689 144.658205 
L 637.326431 144.791267 
L 637.351769 144.525158 
L 637.402375 144.525158 
L 637.427645 144.392096 
L 637.478116 144.658205 
L 637.503318 144.525158 
L 637.628992 144.924329 
L 637.70413 144.791267 
L 637.729132 144.924329 
L 637.804005 144.924329 
L 637.828919 144.392096 
L 637.903528 144.791267 
L 638.002703 145.190438 
L 638.076857 144.525158 
L 638.126186 144.924329 
L 638.224585 145.190438 
L 638.249132 144.924329 
L 638.347106 145.057376 
L 638.371547 145.057376 
L 638.469099 145.3235 
L 638.566316 144.924329 
L 638.590568 145.190438 
L 638.663201 144.791267 
L 638.68737 145.057376 
L 638.807909 144.791267 
L 638.831955 144.924329 
L 638.855981 144.658205 
L 638.903972 144.791267 
L 638.927937 144.791267 
L 639.047458 144.924329 
L 639.095125 144.791267 
L 639.118929 145.589609 
L 639.142713 144.658205 
L 639.190221 144.924329 
L 639.261333 144.791267 
L 639.237649 145.190438 
L 639.284997 144.924329 
L 639.308642 144.924329 
L 639.379458 145.190438 
L 639.355872 144.791267 
L 639.403024 144.924329 
L 639.450097 144.924329 
L 639.567439 145.057376 
L 639.684297 144.924329 
L 639.707611 145.057376 
L 639.730905 144.791267 
L 639.754181 144.791267 
L 639.823893 144.791267 
L 639.916576 144.924329 
L 640.032004 144.791267 
L 640.078044 144.791267 
L 640.192818 145.190438 
L 640.238597 145.190438 
L 640.284303 145.057376 
L 640.329935 145.190438 
L 640.352723 145.190438 
L 640.48907 144.791267 
L 640.534374 144.924329 
L 640.579605 144.791267 
L 640.624764 144.791267 
L 640.647316 144.924329 
L 640.714866 144.658205 
L 640.737347 144.791267 
L 640.75981 144.791267 
L 640.782255 145.057376 
L 640.849485 144.791267 
L 640.894216 144.791267 
L 640.938876 144.658205 
L 641.005735 144.791267 
L 641.161128 144.791267 
L 641.205369 144.924329 
L 641.271603 144.658205 
L 641.359673 144.924329 
L 641.403606 144.791267 
L 641.469378 144.525158 
L 641.534997 144.658205 
L 641.622254 144.658205 
L 641.752637 144.791267 
L 641.774309 144.525158 
L 641.839226 144.791267 
L 641.860832 144.924329 
L 641.903995 144.658205 
L 641.925552 144.658205 
L 641.990124 144.658205 
L 642.118827 145.057376 
L 642.140221 144.924329 
L 642.310793 144.525158 
L 642.332042 145.057376 
L 642.416881 144.658205 
L 642.43805 144.791267 
L 642.522572 144.658205 
L 642.564739 144.658205 
L 642.585799 144.791267 
L 642.627871 144.525158 
L 642.648884 144.658205 
L 642.669881 144.392096 
L 642.753715 144.525158 
L 642.858159 144.791267 
L 642.879002 144.525158 
L 642.941438 144.658205 
L 643.003737 144.924329 
L 643.045194 144.658205 
L 643.08659 144.791267 
L 643.169201 144.525158 
L 643.292667 144.924329 
L 643.313192 144.791267 
L 643.395146 144.525158 
L 643.436034 144.658205 
L 643.476863 144.658205 
L 643.558344 144.525158 
L 643.578678 144.658205 
L 643.659868 144.658205 
L 643.740825 144.791267 
L 643.761029 144.525158 
L 643.881947 144.658205 
L 644.082336 144.658205 
L 644.201893 144.392096 
L 644.281318 144.791267 
L 644.301139 144.658205 
L 644.34074 144.392096 
L 644.400039 144.791267 
L 644.419777 144.791267 
L 644.459213 144.392096 
L 644.518264 144.791267 
L 644.577192 144.791267 
L 644.61641 144.525158 
L 644.635998 145.722655 
L 644.655573 154.371303 
L 644.675134 143.460708 
L 644.733737 145.190438 
L 644.753244 143.061537 
L 644.85058 143.859879 
L 644.870007 143.859879 
L 644.908822 144.125988 
L 644.986291 143.992925 
L 645.024946 143.992925 
L 645.159825 143.726817 
L 645.389563 144.658205 
L 645.503737 144.525158 
L 645.522721 144.525158 
L 645.655256 144.791267 
L 645.768365 144.791267 
L 645.805968 144.658205 
L 645.862279 144.791267 
L 646.011897 145.057376 
L 646.197814 145.057376 
L 646.345673 144.791267 
L 646.71198 144.791267 
L 646.839076 144.658205 
L 646.893371 144.658205 
L 647.019657 144.791267 
L 647.091569 144.791267 
L 647.216976 144.658205 
L 647.748233 144.658205 
L 647.870772 144.791267 
L 648.079612 144.791267 
L 648.200728 144.924329 
L 648.730959 144.924329 
L 648.849327 144.791267 
L 648.899905 144.791267 
L 649.01757 144.924329 
L 649.051099 144.924329 
L 649.168139 144.791267 
L 649.66433 144.791267 
L 649.778868 144.658205 
L 651.825893 144.658205 
L 651.947158 144.525158 
L 652.825804 144.525158 
L 652.94287 144.392096 
L 653.175562 144.392096 
L 653.291194 144.25905 
L 653.74906 144.25905 
L 653.862378 144.125988 
L 655.959777 144.125988 
L 656.077677 144.25905 
L 656.647115 144.25905 
L 656.74943 144.392096 
L 656.838653 144.25905 
L 656.851376 144.392096 
L 657.205327 144.392096 
L 657.318163 144.25905 
L 657.641632 144.25905 
L 657.765066 144.125988 
L 658.010331 144.125988 
L 658.132172 144.25905 
L 658.180762 144.25905 
L 658.301873 144.392096 
L 658.935254 144.392096 
L 659.053187 144.25905 
L 659.064953 144.392096 
L 659.158909 144.25905 
L 659.310924 144.25905 
L 659.450525 144.658205 
L 659.462128 144.658205 
L 659.566337 144.791267 
L 659.681676 144.658205 
L 660.013527 144.658205 
L 660.127063 144.392096 
L 660.206268 144.525158 
L 660.228858 144.392096 
L 660.262708 144.392096 
L 660.307779 144.525158 
L 660.330288 144.25905 
L 660.352778 144.25905 
L 660.375251 144.25905 
L 660.386481 144.392096 
L 660.397706 144.125988 
L 660.476159 144.25905 
L 660.498534 144.25905 
L 660.509715 144.125988 
L 660.554395 144.392096 
L 660.587858 144.392096 
L 660.599004 144.392096 
L 660.699119 144.658205 
L 660.721319 144.525158 
L 660.743501 144.525158 
L 660.854153 144.658205 
L 660.909317 144.525158 
L 660.964375 144.658205 
L 660.986367 144.658205 
L 660.997357 144.525158 
L 661.041275 144.791267 
L 661.085124 144.791267 
L 661.194452 144.791267 
L 661.314227 144.658205 
L 661.65981 144.658205 
L 661.777636 144.525158 
L 662.022428 144.525158 
L 662.075365 144.658205 
L 662.128203 144.392096 
L 662.244101 144.525158 
L 662.317608 144.525158 
L 662.432734 144.392096 
L 662.526582 144.392096 
L 662.65123 144.658205 
L 662.734025 144.525158 
L 662.754686 144.658205 
L 662.775332 144.658205 
L 662.847474 144.392096 
L 662.888616 144.525158 
L 663.367608 144.525158 
L 663.488617 144.392096 
L 663.498677 144.392096 
L 663.538885 144.525158 
L 663.60911 144.392096 
L 663.669165 144.392096 
L 663.788894 144.25905 
L 663.987325 144.25905 
L 664.086021 144.392096 
L 664.095872 144.25905 
L 664.350795 144.25905 
L 664.467683 144.125988 
L 664.555033 144.25905 
L 664.574408 144.125988 
L 664.834675 144.125988 
L 664.968693 144.525158 
L 665.016403 144.658205 
L 665.073549 144.392096 
L 665.178019 144.525158 
L 665.300988 144.25905 
L 665.310425 144.525158 
L 665.348142 144.125988 
L 665.404623 144.125988 
L 665.423425 144.125988 
L 665.526615 144.392096 
L 665.601426 143.992925 
L 665.638757 144.25905 
L 665.741166 143.992925 
L 665.750458 144.25905 
L 665.833945 143.859879 
L 665.852464 144.125988 
L 665.954104 143.859879 
L 665.944879 144.25905 
L 665.963326 143.992925 
L 666.046189 144.25905 
L 665.990974 143.859879 
L 666.073756 144.125988 
L 666.202048 143.726817 
L 666.302444 143.992925 
L 666.311553 143.726817 
L 666.393404 143.59377 
L 666.347961 143.992925 
L 666.402484 143.726817 
L 666.438775 143.992925 
L 666.493125 143.327646 
L 666.538336 143.327646 
L 666.54737 143.726817 
L 666.646551 143.460708 
L 666.664546 143.327646 
L 666.763318 143.59377 
L 666.861746 143.460708 
L 666.870677 143.59377 
L 666.888531 143.59377 
L 666.942025 143.859879 
L 666.986526 143.460708 
L 667.101902 143.726817 
L 667.110758 143.726817 
L 667.225631 143.460708 
L 667.278492 143.59377 
L 667.331255 143.460708 
L 667.348821 143.460708 
L 667.392687 143.59377 
L 667.453987 143.460708 
L 667.497691 143.460708 
L 667.550048 143.327646 
L 667.602307 143.726817 
L 667.671837 143.327646 
L 667.706538 143.726817 
L 667.723873 143.726817 
L 667.793105 143.59377 
L 667.775813 143.859879 
L 667.819024 143.859879 
L 667.827658 143.859879 
L 667.905248 143.59377 
L 667.939665 143.726817 
L 667.956857 143.726817 
L 667.96545 143.859879 
L 667.974039 143.59377 
L 668.059794 143.726817 
L 668.170888 143.59377 
L 668.27305 143.859879 
L 668.281547 143.726817 
L 668.298533 143.726817 
L 668.340955 143.992925 
L 668.323994 143.59377 
L 668.408696 143.726817 
L 668.476277 143.726817 
L 668.501578 144.125988 
L 668.585751 143.859879 
L 668.610955 143.859879 
L 668.736637 144.125988 
L 668.744996 143.859879 
L 668.845112 143.992925 
L 668.853439 143.992925 
L 668.953173 144.125988 
L 668.961468 143.992925 
L 668.969761 143.992925 
L 669.085607 144.125988 
L 669.093864 144.125988 
L 669.200981 143.992925 
L 669.315887 144.25905 
L 669.356813 144.25905 
L 669.430329 144.125988 
L 669.44664 144.392096 
L 669.462942 144.25905 
L 669.479234 144.25905 
L 669.568675 144.392096 
L 669.560556 144.125988 
L 669.576792 144.25905 
L 669.617342 144.392096 
L 669.690186 144.125988 
L 669.803128 144.392096 
L 669.899578 144.125988 
L 669.907601 144.25905 
L 670.019681 144.392096 
L 670.051622 144.392096 
L 670.067579 143.726817 
L 670.171083 143.859879 
L 670.274209 144.392096 
L 670.282127 143.992925 
L 670.290042 143.992925 
L 670.361178 144.525158 
L 670.337486 143.859879 
L 670.400621 144.125988 
L 670.408503 143.992925 
L 670.440009 144.525158 
L 670.502916 144.125988 
L 670.597016 143.992925 
L 670.612669 144.525158 
L 670.698606 143.859879 
L 670.721998 144.392096 
L 670.760942 143.992925 
L 670.838669 144.25905 
L 670.84643 144.25905 
L 670.954862 144.125988 
L 671.001206 143.992925 
L 671.07058 144.25905 
L 671.078278 144.25905 
L 671.109048 143.992925 
L 671.185827 144.25905 
L 671.308242 143.992925 
L 671.392097 144.25905 
L 671.414923 143.992925 
L 671.422528 143.859879 
L 671.475704 144.125988 
L 671.521204 143.992925 
L 671.551497 143.992925 
L 671.574195 144.125988 
L 671.664807 143.859879 
L 671.672345 143.859879 
L 671.785173 143.992925 
L 671.792679 143.992925 
L 671.912505 143.726817 
L 672.009491 143.859879 
L 672.002042 143.59377 
L 672.016937 143.726817 
L 672.031825 143.726817 
L 672.061577 143.859879 
L 672.143233 143.59377 
L 672.187674 143.859879 
L 672.261587 143.726817 
L 672.320579 143.59377 
L 672.305843 143.859879 
L 672.372097 143.726817 
L 672.386799 143.726817 
L 672.504141 143.859879 
L 672.533401 143.859879 
L 672.621 143.992925 
L 672.642857 143.859879 
L 672.664698 143.859879 
L 672.773648 143.992925 
L 672.882181 143.859879 
L 672.997493 143.992925 
L 673.517724 143.992925 
L 673.630482 143.859879 
L 673.644545 143.859879 
L 673.672651 143.992925 
L 673.749797 143.859879 
L 673.763801 143.859879 
L 673.819748 143.59377 
L 673.875585 143.726817 
L 673.896495 143.726817 
L 673.986929 143.859879 
L 674.007758 143.726817 
L 674.021635 143.726817 
L 674.125497 143.992925 
L 674.139317 143.859879 
L 674.591618 143.859879 
L 674.70696 143.726817 
L 676.280673 143.726817 
L 676.402106 143.992925 
L 676.662386 143.992925 
L 676.775903 144.125988 
L 676.819926 144.125988 
L 676.932815 144.25905 
L 676.945331 144.25905 
L 676.951587 144.125988 
L 677.05149 144.25905 
L 677.466048 144.25905 
L 677.582513 144.125988 
L 677.874625 144.125988 
L 677.965295 143.992925 
L 677.983394 144.125988 
L 679.418035 144.125988 
L 679.532467 144.25905 
L 680.514506 144.25905 
L 680.630095 144.125988 
L 681.415583 144.125988 
L 681.527558 143.992925 
L 681.623186 143.992925 
L 681.739627 143.859879 
L 682.221442 143.859879 
L 682.335454 143.992925 
L 683.475866 143.992925 
L 683.589895 144.125988 
L 694.293759 144.125988 
L 694.405421 144.25905 
L 706.820233 144.25905 
L 706.933283 144.392096 
L 709.527222 144.392096 
L 709.639845 144.25905 
L 709.881358 144.25905 
L 709.992584 144.392096 
L 715.489304 144.392096 
L 715.601355 144.25905 
L 721.298222 144.25905 
L 721.410352 144.392096 
L 725.011387 144.392096 
L 725.123461 144.25905 
L 729.816299 144.25905 
L 729.928254 144.392096 
L 730.501313 144.392096 
L 730.501313 144.392096 
" clip-path="url(#p8c49c27610)" style="fill: none; stroke: #1f77b4; stroke-width: 1.5; stroke-linecap: square"/>
   </g>
   <g id="patch_3">
    <path d="M 373.381313 311.6435 
L 373.381313 45.5315 
" style="fill: none; stroke: #000000; stroke-width: 0.8; stroke-linejoin: miter; stroke-linecap: square"/>
   </g>
   <g id="patch_4">
    <path d="M 730.501313 311.6435 
L 730.501313 45.5315 
" style="fill: none; stroke: #000000; stroke-width: 0.8; stroke-linejoin: miter; stroke-linecap: square"/>
   </g>
   <g id="patch_5">
    <path d="M 373.381313 311.6435 
L 730.501313 311.6435 
" style="fill: none; stroke: #000000; stroke-width: 0.8; stroke-linejoin: miter; stroke-linecap: square"/>
   </g>
   <g id="patch_6">
    <path d="M 373.381313 45.5315 
L 730.501313 45.5315 
" style="fill: none; stroke: #000000; stroke-width: 0.8; stroke-linejoin: miter; stroke-linecap: square"/>
   </g>
   <g id="text_18">
    <!-- Accuracy of the 18_07_25_CIFAR10_torch_model_(1024+512-512.1+1)_cat-dog on the validation set -->
    <g transform="translate(7.2 25.5315) scale(0.264 -0.264)">
     <defs>
      <path id="TimesNewRomanPSMT-20" transform="scale(0.015625)"/>
      <path id="TimesNewRomanPSMT-6f" d="M 1600 2947 
Q 2250 2947 2644 2453 
Q 2978 2031 2978 1484 
Q 2978 1100 2793 706 
Q 2609 313 2286 112 
Q 1963 -88 1566 -88 
Q 919 -88 538 428 
Q 216 863 216 1403 
Q 216 1797 411 2186 
Q 606 2575 925 2761 
Q 1244 2947 1600 2947 
z
M 1503 2744 
Q 1338 2744 1170 2645 
Q 1003 2547 900 2300 
Q 797 2053 797 1666 
Q 797 1041 1045 587 
Q 1294 134 1700 134 
Q 2003 134 2200 384 
Q 2397 634 2397 1244 
Q 2397 2006 2069 2444 
Q 1847 2744 1503 2744 
z
" transform="scale(0.015625)"/>
      <path id="TimesNewRomanPSMT-66" d="M 1319 2638 
L 1319 756 
Q 1319 356 1406 250 
Q 1522 113 1716 113 
L 1975 113 
L 1975 0 
L 266 0 
L 266 113 
L 394 113 
Q 519 113 622 175 
Q 725 238 764 344 
Q 803 450 803 756 
L 803 2638 
L 247 2638 
L 247 2863 
L 803 2863 
L 803 3050 
Q 803 3478 940 3775 
Q 1078 4072 1361 4255 
Q 1644 4438 1997 4438 
Q 2325 4438 2600 4225 
Q 2781 4084 2781 3909 
Q 2781 3816 2700 3733 
Q 2619 3650 2525 3650 
Q 2453 3650 2373 3701 
Q 2294 3753 2178 3923 
Q 2063 4094 1966 4153 
Q 1869 4213 1750 4213 
Q 1606 4213 1506 4136 
Q 1406 4059 1362 3898 
Q 1319 3738 1319 3069 
L 1319 2863 
L 2056 2863 
L 2056 2638 
L 1319 2638 
z
" transform="scale(0.015625)"/>
      <path id="TimesNewRomanPSMT-74" d="M 1031 3803 
L 1031 2863 
L 1700 2863 
L 1700 2644 
L 1031 2644 
L 1031 788 
Q 1031 509 1111 412 
Q 1191 316 1316 316 
Q 1419 316 1516 380 
Q 1613 444 1666 569 
L 1788 569 
Q 1678 263 1478 108 
Q 1278 -47 1066 -47 
Q 922 -47 784 33 
Q 647 113 581 261 
Q 516 409 516 719 
L 516 2644 
L 63 2644 
L 63 2747 
Q 234 2816 414 2980 
Q 594 3144 734 3369 
Q 806 3488 934 3803 
L 1031 3803 
z
" transform="scale(0.015625)"/>
      <path id="TimesNewRomanPSMT-68" d="M 1041 4444 
L 1041 2350 
Q 1388 2731 1591 2839 
Q 1794 2947 1997 2947 
Q 2241 2947 2416 2812 
Q 2591 2678 2675 2391 
Q 2734 2191 2734 1659 
L 2734 647 
Q 2734 375 2778 275 
Q 2809 200 2884 156 
Q 2959 113 3159 113 
L 3159 0 
L 1753 0 
L 1753 113 
L 1819 113 
Q 2019 113 2097 173 
Q 2175 234 2206 353 
Q 2216 403 2216 647 
L 2216 1659 
Q 2216 2128 2167 2275 
Q 2119 2422 2012 2495 
Q 1906 2569 1756 2569 
Q 1603 2569 1437 2487 
Q 1272 2406 1041 2159 
L 1041 647 
Q 1041 353 1073 281 
Q 1106 209 1195 161 
Q 1284 113 1503 113 
L 1503 0 
L 84 0 
L 84 113 
Q 275 113 384 172 
Q 447 203 484 290 
Q 522 378 522 647 
L 522 3238 
Q 522 3728 498 3840 
Q 475 3953 426 3993 
Q 378 4034 297 4034 
Q 231 4034 84 3984 
L 41 4094 
L 897 4444 
L 1041 4444 
z
" transform="scale(0.015625)"/>
      <path id="TimesNewRomanPSMT-65" d="M 681 1784 
Q 678 1147 991 784 
Q 1303 422 1725 422 
Q 2006 422 2214 576 
Q 2422 731 2563 1106 
L 2659 1044 
Q 2594 616 2278 264 
Q 1963 -88 1488 -88 
Q 972 -88 605 314 
Q 238 716 238 1394 
Q 238 2128 614 2539 
Q 991 2950 1559 2950 
Q 2041 2950 2350 2633 
Q 2659 2316 2659 1784 
L 681 1784 
z
M 681 1966 
L 2006 1966 
Q 1991 2241 1941 2353 
Q 1863 2528 1708 2628 
Q 1553 2728 1384 2728 
Q 1125 2728 920 2526 
Q 716 2325 681 1966 
z
" transform="scale(0.015625)"/>
      <path id="TimesNewRomanPSMT-5f" d="M 3256 -1381 
L -53 -1381 
L -53 -1119 
L 3256 -1119 
L 3256 -1381 
z
" transform="scale(0.015625)"/>
      <path id="TimesNewRomanPSMT-43" d="M 3853 4334 
L 3950 2894 
L 3853 2894 
Q 3659 3541 3300 3825 
Q 2941 4109 2438 4109 
Q 2016 4109 1675 3895 
Q 1334 3681 1139 3212 
Q 944 2744 944 2047 
Q 944 1472 1128 1050 
Q 1313 628 1683 403 
Q 2053 178 2528 178 
Q 2941 178 3256 354 
Q 3572 531 3950 1056 
L 4047 994 
Q 3728 428 3303 165 
Q 2878 -97 2294 -97 
Q 1241 -97 663 684 
Q 231 1266 231 2053 
Q 231 2688 515 3219 
Q 800 3750 1298 4042 
Q 1797 4334 2388 4334 
Q 2847 4334 3294 4109 
Q 3425 4041 3481 4041 
Q 3566 4041 3628 4100 
Q 3709 4184 3744 4334 
L 3853 4334 
z
" transform="scale(0.015625)"/>
      <path id="TimesNewRomanPSMT-49" d="M 1975 116 
L 1975 0 
L 159 0 
L 159 116 
L 309 116 
Q 572 116 691 269 
Q 766 369 766 750 
L 766 3488 
Q 766 3809 725 3913 
Q 694 3991 597 4047 
Q 459 4122 309 4122 
L 159 4122 
L 159 4238 
L 1975 4238 
L 1975 4122 
L 1822 4122 
Q 1563 4122 1444 3969 
Q 1366 3869 1366 3488 
L 1366 750 
Q 1366 428 1406 325 
Q 1438 247 1538 191 
Q 1672 116 1822 116 
L 1975 116 
z
" transform="scale(0.015625)"/>
      <path id="TimesNewRomanPSMT-46" d="M 1309 4006 
L 1309 2341 
L 2081 2341 
Q 2347 2341 2470 2458 
Q 2594 2575 2634 2922 
L 2750 2922 
L 2750 1488 
L 2634 1488 
Q 2631 1734 2570 1850 
Q 2509 1966 2401 2023 
Q 2294 2081 2081 2081 
L 1309 2081 
L 1309 750 
Q 1309 428 1350 325 
Q 1381 247 1481 191 
Q 1619 116 1769 116 
L 1922 116 
L 1922 0 
L 103 0 
L 103 116 
L 253 116 
Q 516 116 634 269 
Q 709 369 709 750 
L 709 3488 
Q 709 3809 669 3913 
Q 638 3991 541 4047 
Q 406 4122 253 4122 
L 103 4122 
L 103 4238 
L 3256 4238 
L 3297 3306 
L 3188 3306 
Q 3106 3603 2998 3742 
Q 2891 3881 2733 3943 
Q 2575 4006 2244 4006 
L 1309 4006 
z
" transform="scale(0.015625)"/>
      <path id="TimesNewRomanPSMT-52" d="M 4325 0 
L 3194 0 
L 1759 1981 
Q 1600 1975 1500 1975 
Q 1459 1975 1412 1976 
Q 1366 1978 1316 1981 
L 1316 750 
Q 1316 350 1403 253 
Q 1522 116 1759 116 
L 1925 116 
L 1925 0 
L 109 0 
L 109 116 
L 269 116 
Q 538 116 653 291 
Q 719 388 719 750 
L 719 3488 
Q 719 3888 631 3984 
Q 509 4122 269 4122 
L 109 4122 
L 109 4238 
L 1653 4238 
Q 2328 4238 2648 4139 
Q 2969 4041 3192 3777 
Q 3416 3513 3416 3147 
Q 3416 2756 3161 2468 
Q 2906 2181 2372 2063 
L 3247 847 
Q 3547 428 3762 290 
Q 3978 153 4325 116 
L 4325 0 
z
M 1316 2178 
Q 1375 2178 1419 2176 
Q 1463 2175 1491 2175 
Q 2097 2175 2405 2437 
Q 2713 2700 2713 3106 
Q 2713 3503 2464 3751 
Q 2216 4000 1806 4000 
Q 1625 4000 1316 3941 
L 1316 2178 
z
" transform="scale(0.015625)"/>
      <path id="TimesNewRomanPSMT-6d" d="M 1050 2338 
Q 1363 2650 1419 2697 
Q 1559 2816 1721 2881 
Q 1884 2947 2044 2947 
Q 2313 2947 2506 2790 
Q 2700 2634 2766 2338 
Q 3088 2713 3309 2830 
Q 3531 2947 3766 2947 
Q 3994 2947 4170 2830 
Q 4347 2713 4450 2447 
Q 4519 2266 4519 1878 
L 4519 647 
Q 4519 378 4559 278 
Q 4591 209 4675 161 
Q 4759 113 4950 113 
L 4950 0 
L 3538 0 
L 3538 113 
L 3597 113 
Q 3781 113 3884 184 
Q 3956 234 3988 344 
Q 4000 397 4000 647 
L 4000 1878 
Q 4000 2228 3916 2372 
Q 3794 2572 3525 2572 
Q 3359 2572 3192 2489 
Q 3025 2406 2788 2181 
L 2781 2147 
L 2788 2013 
L 2788 647 
Q 2788 353 2820 281 
Q 2853 209 2943 161 
Q 3034 113 3253 113 
L 3253 0 
L 1806 0 
L 1806 113 
Q 2044 113 2133 169 
Q 2222 225 2256 338 
Q 2272 391 2272 647 
L 2272 1878 
Q 2272 2228 2169 2381 
Q 2031 2581 1784 2581 
Q 1616 2581 1450 2491 
Q 1191 2353 1050 2181 
L 1050 647 
Q 1050 366 1089 281 
Q 1128 197 1204 155 
Q 1281 113 1516 113 
L 1516 0 
L 100 0 
L 100 113 
Q 297 113 375 155 
Q 453 197 493 289 
Q 534 381 534 647 
L 534 1741 
Q 534 2213 506 2350 
Q 484 2453 437 2492 
Q 391 2531 309 2531 
Q 222 2531 100 2484 
L 53 2597 
L 916 2947 
L 1050 2947 
L 1050 2338 
z
" transform="scale(0.015625)"/>
      <path id="TimesNewRomanPSMT-64" d="M 2222 322 
Q 2013 103 1813 7 
Q 1613 -88 1381 -88 
Q 913 -88 563 304 
Q 213 697 213 1313 
Q 213 1928 600 2439 
Q 988 2950 1597 2950 
Q 1975 2950 2222 2709 
L 2222 3238 
Q 2222 3728 2198 3840 
Q 2175 3953 2125 3993 
Q 2075 4034 2000 4034 
Q 1919 4034 1784 3984 
L 1744 4094 
L 2597 4444 
L 2738 4444 
L 2738 1134 
Q 2738 631 2761 520 
Q 2784 409 2836 365 
Q 2888 322 2956 322 
Q 3041 322 3181 375 
L 3216 266 
L 2366 -88 
L 2222 -88 
L 2222 322 
z
M 2222 541 
L 2222 2016 
Q 2203 2228 2109 2403 
Q 2016 2578 1861 2667 
Q 1706 2756 1559 2756 
Q 1284 2756 1069 2509 
Q 784 2184 784 1559 
Q 784 928 1059 592 
Q 1334 256 1672 256 
Q 1956 256 2222 541 
z
" transform="scale(0.015625)"/>
      <path id="TimesNewRomanPSMT-6c" d="M 1184 4444 
L 1184 647 
Q 1184 378 1223 290 
Q 1263 203 1344 158 
Q 1425 113 1647 113 
L 1647 0 
L 244 0 
L 244 113 
Q 441 113 512 153 
Q 584 194 625 287 
Q 666 381 666 647 
L 666 3247 
Q 666 3731 644 3842 
Q 622 3953 573 3993 
Q 525 4034 450 4034 
Q 369 4034 244 3984 
L 191 4094 
L 1044 4444 
L 1184 4444 
z
" transform="scale(0.015625)"/>
      <path id="TimesNewRomanPSMT-28" d="M 1988 -1253 
L 1988 -1369 
Q 1516 -1131 1200 -813 
Q 750 -359 506 256 
Q 263 872 263 1534 
Q 263 2503 741 3301 
Q 1219 4100 1988 4444 
L 1988 4313 
Q 1603 4100 1356 3731 
Q 1109 3363 987 2797 
Q 866 2231 866 1616 
Q 866 947 969 400 
Q 1050 -31 1165 -292 
Q 1281 -553 1476 -793 
Q 1672 -1034 1988 -1253 
z
" transform="scale(0.015625)"/>
      <path id="TimesNewRomanPSMT-2b" d="M 1672 441 
L 1672 2000 
L 116 2000 
L 116 2256 
L 1672 2256 
L 1672 3809 
L 1922 3809 
L 1922 2256 
L 3484 2256 
L 3484 2000 
L 1922 2000 
L 1922 441 
L 1672 441 
z
" transform="scale(0.015625)"/>
      <path id="TimesNewRomanPSMT-2d" d="M 259 1672 
L 1875 1672 
L 1875 1200 
L 259 1200 
L 259 1672 
z
" transform="scale(0.015625)"/>
      <path id="TimesNewRomanPSMT-29" d="M 144 4313 
L 144 4444 
Q 619 4209 934 3891 
Q 1381 3434 1625 2820 
Q 1869 2206 1869 1541 
Q 1869 572 1392 -226 
Q 916 -1025 144 -1369 
L 144 -1253 
Q 528 -1038 776 -670 
Q 1025 -303 1145 264 
Q 1266 831 1266 1447 
Q 1266 2113 1163 2663 
Q 1084 3094 967 3353 
Q 850 3613 656 3853 
Q 463 4094 144 4313 
z
" transform="scale(0.015625)"/>
      <path id="TimesNewRomanPSMT-67" d="M 966 1044 
Q 703 1172 562 1401 
Q 422 1631 422 1909 
Q 422 2334 742 2640 
Q 1063 2947 1563 2947 
Q 1972 2947 2272 2747 
L 2878 2747 
Q 3013 2747 3034 2739 
Q 3056 2731 3066 2713 
Q 3084 2684 3084 2613 
Q 3084 2531 3069 2500 
Q 3059 2484 3036 2475 
Q 3013 2466 2878 2466 
L 2506 2466 
Q 2681 2241 2681 1891 
Q 2681 1491 2375 1206 
Q 2069 922 1553 922 
Q 1341 922 1119 984 
Q 981 866 932 777 
Q 884 688 884 625 
Q 884 572 936 522 
Q 988 472 1138 450 
Q 1225 438 1575 428 
Q 2219 413 2409 384 
Q 2700 344 2873 169 
Q 3047 -6 3047 -263 
Q 3047 -616 2716 -925 
Q 2228 -1381 1444 -1381 
Q 841 -1381 425 -1109 
Q 191 -953 191 -784 
Q 191 -709 225 -634 
Q 278 -519 444 -313 
Q 466 -284 763 25 
Q 600 122 533 198 
Q 466 275 466 372 
Q 466 481 555 628 
Q 644 775 966 1044 
z
M 1509 2797 
Q 1278 2797 1122 2612 
Q 966 2428 966 2047 
Q 966 1553 1178 1281 
Q 1341 1075 1591 1075 
Q 1828 1075 1981 1253 
Q 2134 1431 2134 1813 
Q 2134 2309 1919 2591 
Q 1759 2797 1509 2797 
z
M 934 0 
Q 788 -159 713 -296 
Q 638 -434 638 -550 
Q 638 -700 819 -813 
Q 1131 -1006 1722 -1006 
Q 2284 -1006 2551 -807 
Q 2819 -609 2819 -384 
Q 2819 -222 2659 -153 
Q 2497 -84 2016 -72 
Q 1313 -53 934 0 
z
" transform="scale(0.015625)"/>
      <path id="TimesNewRomanPSMT-6e" d="M 1034 2341 
Q 1538 2947 1994 2947 
Q 2228 2947 2397 2830 
Q 2566 2713 2666 2444 
Q 2734 2256 2734 1869 
L 2734 647 
Q 2734 375 2778 278 
Q 2813 200 2889 156 
Q 2966 113 3172 113 
L 3172 0 
L 1756 0 
L 1756 113 
L 1816 113 
Q 2016 113 2095 173 
Q 2175 234 2206 353 
Q 2219 400 2219 647 
L 2219 1819 
Q 2219 2209 2117 2386 
Q 2016 2563 1775 2563 
Q 1403 2563 1034 2156 
L 1034 647 
Q 1034 356 1069 288 
Q 1113 197 1189 155 
Q 1266 113 1500 113 
L 1500 0 
L 84 0 
L 84 113 
L 147 113 
Q 366 113 442 223 
Q 519 334 519 647 
L 519 1709 
Q 519 2225 495 2337 
Q 472 2450 423 2490 
Q 375 2531 294 2531 
Q 206 2531 84 2484 
L 38 2597 
L 900 2947 
L 1034 2947 
L 1034 2341 
z
" transform="scale(0.015625)"/>
      <path id="TimesNewRomanPSMT-76" d="M 53 2863 
L 1400 2863 
L 1400 2747 
L 1313 2747 
Q 1191 2747 1127 2687 
Q 1063 2628 1063 2528 
Q 1063 2419 1128 2269 
L 1794 688 
L 2463 2328 
Q 2534 2503 2534 2594 
Q 2534 2638 2509 2666 
Q 2475 2713 2422 2730 
Q 2369 2747 2206 2747 
L 2206 2863 
L 3141 2863 
L 3141 2747 
Q 2978 2734 2916 2681 
Q 2806 2588 2719 2369 
L 1703 -88 
L 1575 -88 
L 553 2328 
Q 484 2497 421 2570 
Q 359 2644 263 2694 
Q 209 2722 53 2747 
L 53 2863 
z
" transform="scale(0.015625)"/>
      <path id="TimesNewRomanPSMT-69" d="M 928 4444 
Q 1059 4444 1151 4351 
Q 1244 4259 1244 4128 
Q 1244 3997 1151 3903 
Q 1059 3809 928 3809 
Q 797 3809 703 3903 
Q 609 3997 609 4128 
Q 609 4259 701 4351 
Q 794 4444 928 4444 
z
M 1188 2947 
L 1188 647 
Q 1188 378 1227 289 
Q 1266 200 1342 156 
Q 1419 113 1622 113 
L 1622 0 
L 231 0 
L 231 113 
Q 441 113 512 153 
Q 584 194 626 287 
Q 669 381 669 647 
L 669 1750 
Q 669 2216 641 2353 
Q 619 2453 572 2492 
Q 525 2531 444 2531 
Q 356 2531 231 2484 
L 188 2597 
L 1050 2947 
L 1188 2947 
z
" transform="scale(0.015625)"/>
      <path id="TimesNewRomanPSMT-73" d="M 2050 2947 
L 2050 1972 
L 1947 1972 
Q 1828 2431 1642 2597 
Q 1456 2763 1169 2763 
Q 950 2763 815 2647 
Q 681 2531 681 2391 
Q 681 2216 781 2091 
Q 878 1963 1175 1819 
L 1631 1597 
Q 2266 1288 2266 781 
Q 2266 391 1970 151 
Q 1675 -88 1309 -88 
Q 1047 -88 709 6 
Q 606 38 541 38 
Q 469 38 428 -44 
L 325 -44 
L 325 978 
L 428 978 
Q 516 541 762 319 
Q 1009 97 1316 97 
Q 1531 97 1667 223 
Q 1803 350 1803 528 
Q 1803 744 1651 891 
Q 1500 1038 1047 1263 
Q 594 1488 453 1669 
Q 313 1847 313 2119 
Q 313 2472 555 2709 
Q 797 2947 1181 2947 
Q 1350 2947 1591 2875 
Q 1750 2828 1803 2828 
Q 1853 2828 1881 2850 
Q 1909 2872 1947 2947 
L 2050 2947 
z
" transform="scale(0.015625)"/>
     </defs>
     <use xlink:href="#TimesNewRomanPSMT-41"/>
     <use xlink:href="#TimesNewRomanPSMT-63" transform="translate(72.216797 0)"/>
     <use xlink:href="#TimesNewRomanPSMT-63" transform="translate(116.601562 0)"/>
     <use xlink:href="#TimesNewRomanPSMT-75" transform="translate(160.986328 0)"/>
     <use xlink:href="#TimesNewRomanPSMT-72" transform="translate(210.986328 0)"/>
     <use xlink:href="#TimesNewRomanPSMT-61" transform="translate(244.287109 0)"/>
     <use xlink:href="#TimesNewRomanPSMT-63" transform="translate(288.671875 0)"/>
     <use xlink:href="#TimesNewRomanPSMT-79" transform="translate(333.056641 0)"/>
     <use xlink:href="#TimesNewRomanPSMT-20" transform="translate(383.056641 0)"/>
     <use xlink:href="#TimesNewRomanPSMT-6f" transform="translate(408.056641 0)"/>
     <use xlink:href="#TimesNewRomanPSMT-66" transform="translate(458.056641 0)"/>
     <use xlink:href="#TimesNewRomanPSMT-20" transform="translate(491.357422 0)"/>
     <use xlink:href="#TimesNewRomanPSMT-74" transform="translate(516.357422 0)"/>
     <use xlink:href="#TimesNewRomanPSMT-68" transform="translate(544.140625 0)"/>
     <use xlink:href="#TimesNewRomanPSMT-65" transform="translate(594.140625 0)"/>
     <use xlink:href="#TimesNewRomanPSMT-20" transform="translate(638.525391 0)"/>
     <use xlink:href="#TimesNewRomanPSMT-31" transform="translate(663.525391 0)"/>
     <use xlink:href="#TimesNewRomanPSMT-38" transform="translate(713.525391 0)"/>
     <use xlink:href="#TimesNewRomanPSMT-5f" transform="translate(763.525391 0)"/>
     <use xlink:href="#TimesNewRomanPSMT-30" transform="translate(813.525391 0)"/>
     <use xlink:href="#TimesNewRomanPSMT-37" transform="translate(863.525391 0)"/>
     <use xlink:href="#TimesNewRomanPSMT-5f" transform="translate(913.525391 0)"/>
     <use xlink:href="#TimesNewRomanPSMT-32" transform="translate(963.525391 0)"/>
     <use xlink:href="#TimesNewRomanPSMT-35" transform="translate(1013.525391 0)"/>
     <use xlink:href="#TimesNewRomanPSMT-5f" transform="translate(1063.525391 0)"/>
     <use xlink:href="#TimesNewRomanPSMT-43" transform="translate(1113.525391 0)"/>
     <use xlink:href="#TimesNewRomanPSMT-49" transform="translate(1180.224609 0)"/>
     <use xlink:href="#TimesNewRomanPSMT-46" transform="translate(1213.525391 0)"/>
     <use xlink:href="#TimesNewRomanPSMT-41" transform="translate(1261.765625 0)"/>
     <use xlink:href="#TimesNewRomanPSMT-52" transform="translate(1333.982422 0)"/>
     <use xlink:href="#TimesNewRomanPSMT-31" transform="translate(1400.681641 0)"/>
     <use xlink:href="#TimesNewRomanPSMT-30" transform="translate(1450.681641 0)"/>
     <use xlink:href="#TimesNewRomanPSMT-5f" transform="translate(1500.681641 0)"/>
     <use xlink:href="#TimesNewRomanPSMT-74" transform="translate(1550.681641 0)"/>
     <use xlink:href="#TimesNewRomanPSMT-6f" transform="translate(1578.464844 0)"/>
     <use xlink:href="#TimesNewRomanPSMT-72" transform="translate(1628.464844 0)"/>
     <use xlink:href="#TimesNewRomanPSMT-63" transform="translate(1661.765625 0)"/>
     <use xlink:href="#TimesNewRomanPSMT-68" transform="translate(1706.150391 0)"/>
     <use xlink:href="#TimesNewRomanPSMT-5f" transform="translate(1756.150391 0)"/>
     <use xlink:href="#TimesNewRomanPSMT-6d" transform="translate(1806.150391 0)"/>
     <use xlink:href="#TimesNewRomanPSMT-6f" transform="translate(1883.933594 0)"/>
     <use xlink:href="#TimesNewRomanPSMT-64" transform="translate(1933.933594 0)"/>
     <use xlink:href="#TimesNewRomanPSMT-65" transform="translate(1983.933594 0)"/>
     <use xlink:href="#TimesNewRomanPSMT-6c" transform="translate(2028.318359 0)"/>
     <use xlink:href="#TimesNewRomanPSMT-5f" transform="translate(2056.101562 0)"/>
     <use xlink:href="#TimesNewRomanPSMT-28" transform="translate(2106.101562 0)"/>
     <use xlink:href="#TimesNewRomanPSMT-31" transform="translate(2139.402344 0)"/>
     <use xlink:href="#TimesNewRomanPSMT-30" transform="translate(2189.402344 0)"/>
     <use xlink:href="#TimesNewRomanPSMT-32" transform="translate(2239.402344 0)"/>
     <use xlink:href="#TimesNewRomanPSMT-34" transform="translate(2289.402344 0)"/>
     <use xlink:href="#TimesNewRomanPSMT-2b" transform="translate(2339.402344 0)"/>
     <use xlink:href="#TimesNewRomanPSMT-35" transform="translate(2395.798828 0)"/>
     <use xlink:href="#TimesNewRomanPSMT-31" transform="translate(2445.798828 0)"/>
     <use xlink:href="#TimesNewRomanPSMT-32" transform="translate(2495.798828 0)"/>
     <use xlink:href="#TimesNewRomanPSMT-2d" transform="translate(2545.798828 0)"/>
     <use xlink:href="#TimesNewRomanPSMT-35" transform="translate(2579.099609 0)"/>
     <use xlink:href="#TimesNewRomanPSMT-31" transform="translate(2629.099609 0)"/>
     <use xlink:href="#TimesNewRomanPSMT-32" transform="translate(2679.099609 0)"/>
     <use xlink:href="#TimesNewRomanPSMT-2e" transform="translate(2729.099609 0)"/>
     <use xlink:href="#TimesNewRomanPSMT-31" transform="translate(2754.099609 0)"/>
     <use xlink:href="#TimesNewRomanPSMT-2b" transform="translate(2804.099609 0)"/>
     <use xlink:href="#TimesNewRomanPSMT-31" transform="translate(2860.496094 0)"/>
     <use xlink:href="#TimesNewRomanPSMT-29" transform="translate(2910.496094 0)"/>
     <use xlink:href="#TimesNewRomanPSMT-5f" transform="translate(2943.796875 0)"/>
     <use xlink:href="#TimesNewRomanPSMT-63" transform="translate(2993.796875 0)"/>
     <use xlink:href="#TimesNewRomanPSMT-61" transform="translate(3038.181641 0)"/>
     <use xlink:href="#TimesNewRomanPSMT-74" transform="translate(3082.566406 0)"/>
     <use xlink:href="#TimesNewRomanPSMT-2d" transform="translate(3110.349609 0)"/>
     <use xlink:href="#TimesNewRomanPSMT-64" transform="translate(3143.650391 0)"/>
     <use xlink:href="#TimesNewRomanPSMT-6f" transform="translate(3193.650391 0)"/>
     <use xlink:href="#TimesNewRomanPSMT-67" transform="translate(3243.650391 0)"/>
     <use xlink:href="#TimesNewRomanPSMT-20" transform="translate(3293.650391 0)"/>
     <use xlink:href="#TimesNewRomanPSMT-6f" transform="translate(3318.650391 0)"/>
     <use xlink:href="#TimesNewRomanPSMT-6e" transform="translate(3368.650391 0)"/>
     <use xlink:href="#TimesNewRomanPSMT-20" transform="translate(3418.650391 0)"/>
     <use xlink:href="#TimesNewRomanPSMT-74" transform="translate(3443.650391 0)"/>
     <use xlink:href="#TimesNewRomanPSMT-68" transform="translate(3471.433594 0)"/>
     <use xlink:href="#TimesNewRomanPSMT-65" transform="translate(3521.433594 0)"/>
     <use xlink:href="#TimesNewRomanPSMT-20" transform="translate(3565.818359 0)"/>
     <use xlink:href="#TimesNewRomanPSMT-76" transform="translate(3590.818359 0)"/>
     <use xlink:href="#TimesNewRomanPSMT-61" transform="translate(3640.818359 0)"/>
     <use xlink:href="#TimesNewRomanPSMT-6c" transform="translate(3685.203125 0)"/>
     <use xlink:href="#TimesNewRomanPSMT-69" transform="translate(3712.986328 0)"/>
     <use xlink:href="#TimesNewRomanPSMT-64" transform="translate(3740.769531 0)"/>
     <use xlink:href="#TimesNewRomanPSMT-61" transform="translate(3790.769531 0)"/>
     <use xlink:href="#TimesNewRomanPSMT-74" transform="translate(3835.154297 0)"/>
     <use xlink:href="#TimesNewRomanPSMT-69" transform="translate(3862.9375 0)"/>
     <use xlink:href="#TimesNewRomanPSMT-6f" transform="translate(3890.720703 0)"/>
     <use xlink:href="#TimesNewRomanPSMT-6e" transform="translate(3940.720703 0)"/>
     <use xlink:href="#TimesNewRomanPSMT-20" transform="translate(3990.720703 0)"/>
     <use xlink:href="#TimesNewRomanPSMT-73" transform="translate(4015.720703 0)"/>
     <use xlink:href="#TimesNewRomanPSMT-65" transform="translate(4054.636719 0)"/>
     <use xlink:href="#TimesNewRomanPSMT-74" transform="translate(4099.021484 0)"/>
    </g>
   </g>
   <g id="legend_1">
    <g id="patch_7">
     <path d="M 477.931 94.278687 
L 715.101313 94.278687 
Q 719.501313 94.278687 719.501313 89.878687 
L 719.501313 60.9315 
Q 719.501313 56.5315 715.101313 56.5315 
L 477.931 56.5315 
Q 473.531 56.5315 473.531 60.9315 
L 473.531 89.878687 
Q 473.531 94.278687 477.931 94.278687 
z
" style="fill: #ffffff; opacity: 0.8; stroke: #cccccc; stroke-linejoin: miter"/>
    </g>
    <g id="line2d_32">
     <path d="M 482.331 73.0315 
L 504.331 73.0315 
L 526.331 73.0315 
" style="fill: none; stroke: #1f77b4; stroke-width: 1.5; stroke-linecap: square"/>
    </g>
    <g id="text_19">
     <!-- Best accuracy 0.63 -->
     <g transform="translate(543.931 80.7315) scale(0.22 -0.22)">
      <defs>
       <path id="TimesNewRomanPSMT-42" d="M 2956 2163 
Q 3397 2069 3616 1863 
Q 3919 1575 3919 1159 
Q 3919 844 3719 555 
Q 3519 266 3170 133 
Q 2822 0 2106 0 
L 106 0 
L 106 116 
L 266 116 
Q 531 116 647 284 
Q 719 394 719 750 
L 719 3488 
Q 719 3881 628 3984 
Q 506 4122 266 4122 
L 106 4122 
L 106 4238 
L 1938 4238 
Q 2450 4238 2759 4163 
Q 3228 4050 3475 3764 
Q 3722 3478 3722 3106 
Q 3722 2788 3528 2536 
Q 3334 2284 2956 2163 
z
M 1319 2331 
Q 1434 2309 1582 2298 
Q 1731 2288 1909 2288 
Q 2366 2288 2595 2386 
Q 2825 2484 2947 2687 
Q 3069 2891 3069 3131 
Q 3069 3503 2766 3765 
Q 2463 4028 1881 4028 
Q 1569 4028 1319 3959 
L 1319 2331 
z
M 1319 306 
Q 1681 222 2034 222 
Q 2600 222 2897 476 
Q 3194 731 3194 1106 
Q 3194 1353 3059 1581 
Q 2925 1809 2622 1940 
Q 2319 2072 1872 2072 
Q 1678 2072 1540 2065 
Q 1403 2059 1319 2044 
L 1319 306 
z
" transform="scale(0.015625)"/>
      </defs>
      <use xlink:href="#TimesNewRomanPSMT-42"/>
      <use xlink:href="#TimesNewRomanPSMT-65" transform="translate(66.699219 0)"/>
      <use xlink:href="#TimesNewRomanPSMT-73" transform="translate(111.083984 0)"/>
      <use xlink:href="#TimesNewRomanPSMT-74" transform="translate(150 0)"/>
      <use xlink:href="#TimesNewRomanPSMT-20" transform="translate(177.783203 0)"/>
      <use xlink:href="#TimesNewRomanPSMT-61" transform="translate(202.783203 0)"/>
      <use xlink:href="#TimesNewRomanPSMT-63" transform="translate(247.167969 0)"/>
      <use xlink:href="#TimesNewRomanPSMT-63" transform="translate(291.552734 0)"/>
      <use xlink:href="#TimesNewRomanPSMT-75" transform="translate(335.9375 0)"/>
      <use xlink:href="#TimesNewRomanPSMT-72" transform="translate(385.9375 0)"/>
      <use xlink:href="#TimesNewRomanPSMT-61" transform="translate(419.238281 0)"/>
      <use xlink:href="#TimesNewRomanPSMT-63" transform="translate(463.623047 0)"/>
      <use xlink:href="#TimesNewRomanPSMT-79" transform="translate(508.007812 0)"/>
      <use xlink:href="#TimesNewRomanPSMT-20" transform="translate(558.007812 0)"/>
      <use xlink:href="#TimesNewRomanPSMT-30" transform="translate(583.007812 0)"/>
      <use xlink:href="#TimesNewRomanPSMT-2e" transform="translate(633.007812 0)"/>
      <use xlink:href="#TimesNewRomanPSMT-36" transform="translate(658.007812 0)"/>
      <use xlink:href="#TimesNewRomanPSMT-33" transform="translate(708.007812 0)"/>
     </g>
    </g>
   </g>
  </g>
 </g>
 <defs>
  <clipPath id="p8c49c27610">
   <rect x="373.381313" y="45.5315" width="357.12" height="266.112"/>
  </clipPath>
 </defs>
</svg>
