<?xml version="1.0" encoding="utf-8" standalone="no"?>
<!DOCTYPE svg PUBLIC "-//W3C//DTD SVG 1.1//EN"
  "http://www.w3.org/Graphics/SVG/1.1/DTD/svg11.dtd">
<svg xmlns:xlink="http://www.w3.org/1999/xlink" width="1126.339125pt" height="383.265687pt" viewBox="0 0 1126.339125 383.265687" xmlns="http://www.w3.org/2000/svg" version="1.1">
 <metadata>
  <rdf:RDF xmlns:dc="http://purl.org/dc/elements/1.1/" xmlns:cc="http://creativecommons.org/ns#" xmlns:rdf="http://www.w3.org/1999/02/22-rdf-syntax-ns#">
   <cc:Work>
    <dc:type rdf:resource="http://purl.org/dc/dcmitype/StillImage"/>
    <dc:date>2025-07-12T17:16:03.719751</dc:date>
    <dc:format>image/svg+xml</dc:format>
    <dc:creator>
     <cc:Agent>
      <dc:title>Matplotlib v3.10.3, https://matplotlib.org/</dc:title>
     </cc:Agent>
    </dc:creator>
   </cc:Work>
  </rdf:RDF>
 </metadata>
 <defs>
  <style type="text/css">*{stroke-linejoin: round; stroke-linecap: butt}</style>
 </defs>
 <g id="figure_1">
  <g id="patch_1">
   <path d="M 0 383.265687 
L 1126.339125 383.265687 
L 1126.339125 0 
L 0 0 
z
" style="fill: #ffffff"/>
  </g>
  <g id="axes_1">
   <g id="patch_2">
    <path d="M 384.609563 311.6435 
L 741.729563 311.6435 
L 741.729563 45.5315 
L 384.609563 45.5315 
z
" style="fill: #ffffff"/>
   </g>
   <g id="matplotlib.axis_1">
    <g id="xtick_1">
     <g id="line2d_1">
      <path d="M 384.609563 311.6435 
L 384.609563 45.5315 
" clip-path="url(#p1567259577)" style="fill: none; stroke: #b0b0b0; stroke-opacity: 0.3; stroke-width: 0.8; stroke-linecap: square"/>
     </g>
     <g id="line2d_2">
      <defs>
       <path id="m3373e54e75" d="M 0 0 
L 0 3.5 
" style="stroke: #000000; stroke-width: 0.8"/>
      </defs>
      <g>
       <use xlink:href="#m3373e54e75" x="384.609563" y="311.6435" style="stroke: #000000; stroke-width: 0.8"/>
      </g>
     </g>
     <g id="text_1">
      <!-- 0.0 -->
      <g transform="translate(370.859563 333.91975) scale(0.22 -0.22)">
       <defs>
        <path id="TimesNewRomanPSMT-30" d="M 231 2094 
Q 231 2819 450 3342 
Q 669 3866 1031 4122 
Q 1313 4325 1613 4325 
Q 2100 4325 2488 3828 
Q 2972 3213 2972 2159 
Q 2972 1422 2759 906 
Q 2547 391 2217 158 
Q 1888 -75 1581 -75 
Q 975 -75 572 641 
Q 231 1244 231 2094 
z
M 844 2016 
Q 844 1141 1059 588 
Q 1238 122 1591 122 
Q 1759 122 1940 273 
Q 2122 425 2216 781 
Q 2359 1319 2359 2297 
Q 2359 3022 2209 3506 
Q 2097 3866 1919 4016 
Q 1791 4119 1609 4119 
Q 1397 4119 1231 3928 
Q 1006 3669 925 3112 
Q 844 2556 844 2016 
z
" transform="scale(0.015625)"/>
        <path id="TimesNewRomanPSMT-2e" d="M 800 606 
Q 947 606 1047 504 
Q 1147 403 1147 259 
Q 1147 116 1045 14 
Q 944 -88 800 -88 
Q 656 -88 554 14 
Q 453 116 453 259 
Q 453 406 554 506 
Q 656 606 800 606 
z
" transform="scale(0.015625)"/>
       </defs>
       <use xlink:href="#TimesNewRomanPSMT-30"/>
       <use xlink:href="#TimesNewRomanPSMT-2e" transform="translate(50 0)"/>
       <use xlink:href="#TimesNewRomanPSMT-30" transform="translate(75 0)"/>
      </g>
     </g>
    </g>
    <g id="xtick_2">
     <g id="line2d_3">
      <path d="M 510.927234 311.6435 
L 510.927234 45.5315 
" clip-path="url(#p1567259577)" style="fill: none; stroke: #b0b0b0; stroke-opacity: 0.3; stroke-width: 0.8; stroke-linecap: square"/>
     </g>
     <g id="line2d_4">
      <g>
       <use xlink:href="#m3373e54e75" x="510.927234" y="311.6435" style="stroke: #000000; stroke-width: 0.8"/>
      </g>
     </g>
     <g id="text_2">
      <!-- 0.5 -->
      <g transform="translate(497.177234 333.91975) scale(0.22 -0.22)">
       <defs>
        <path id="TimesNewRomanPSMT-35" d="M 2778 4238 
L 2534 3706 
L 1259 3706 
L 981 3138 
Q 1809 3016 2294 2522 
Q 2709 2097 2709 1522 
Q 2709 1188 2573 903 
Q 2438 619 2231 419 
Q 2025 219 1772 97 
Q 1413 -75 1034 -75 
Q 653 -75 479 54 
Q 306 184 306 341 
Q 306 428 378 495 
Q 450 563 559 563 
Q 641 563 702 538 
Q 763 513 909 409 
Q 1144 247 1384 247 
Q 1750 247 2026 523 
Q 2303 800 2303 1197 
Q 2303 1581 2056 1914 
Q 1809 2247 1375 2428 
Q 1034 2569 447 2591 
L 1259 4238 
L 2778 4238 
z
" transform="scale(0.015625)"/>
       </defs>
       <use xlink:href="#TimesNewRomanPSMT-30"/>
       <use xlink:href="#TimesNewRomanPSMT-2e" transform="translate(50 0)"/>
       <use xlink:href="#TimesNewRomanPSMT-35" transform="translate(75 0)"/>
      </g>
     </g>
    </g>
    <g id="xtick_3">
     <g id="line2d_5">
      <path d="M 637.244905 311.6435 
L 637.244905 45.5315 
" clip-path="url(#p1567259577)" style="fill: none; stroke: #b0b0b0; stroke-opacity: 0.3; stroke-width: 0.8; stroke-linecap: square"/>
     </g>
     <g id="line2d_6">
      <g>
       <use xlink:href="#m3373e54e75" x="637.244905" y="311.6435" style="stroke: #000000; stroke-width: 0.8"/>
      </g>
     </g>
     <g id="text_3">
      <!-- 1.0 -->
      <g transform="translate(623.494905 333.91975) scale(0.22 -0.22)">
       <defs>
        <path id="TimesNewRomanPSMT-31" d="M 750 3822 
L 1781 4325 
L 1884 4325 
L 1884 747 
Q 1884 391 1914 303 
Q 1944 216 2037 169 
Q 2131 122 2419 116 
L 2419 0 
L 825 0 
L 825 116 
Q 1125 122 1212 167 
Q 1300 213 1334 289 
Q 1369 366 1369 747 
L 1369 3034 
Q 1369 3497 1338 3628 
Q 1316 3728 1258 3775 
Q 1200 3822 1119 3822 
Q 1003 3822 797 3725 
L 750 3822 
z
" transform="scale(0.015625)"/>
       </defs>
       <use xlink:href="#TimesNewRomanPSMT-31"/>
       <use xlink:href="#TimesNewRomanPSMT-2e" transform="translate(50 0)"/>
       <use xlink:href="#TimesNewRomanPSMT-30" transform="translate(75 0)"/>
      </g>
     </g>
    </g>
    <g id="text_4">
     <!-- $\kappa  = \frac{ln(n)}{ln(d)}$ -->
     <g transform="translate(531.159563 364.185687) scale(0.22 -0.22)">
      <defs>
       <path id="STIXGeneral-Italic-3ba" d="M 979 1440 
L 998 1446 
Q 1850 2541 2464 2790 
Q 2547 2822 2630 2822 
Q 2797 2822 2886 2736 
Q 2976 2650 2976 2522 
Q 2976 2387 2893 2307 
Q 2810 2227 2682 2227 
Q 2605 2227 2502 2288 
Q 2400 2349 2336 2349 
Q 2170 2349 1990 2205 
Q 1811 2061 1414 1645 
L 2042 544 
Q 2202 262 2310 182 
Q 2419 102 2624 102 
L 2624 0 
Q 2374 -83 2182 -83 
Q 1786 -83 1555 326 
L 960 1350 
L 576 0 
L 90 0 
L 640 1978 
Q 730 2317 730 2406 
Q 730 2560 518 2560 
L 339 2560 
L 339 2650 
Q 678 2694 1306 2822 
L 1325 2803 
L 979 1440 
z
" transform="scale(0.015625)"/>
       <path id="STIXGeneral-Regular-3d" d="M 4077 2048 
L 307 2048 
L 307 2470 
L 4077 2470 
L 4077 2048 
z
M 4077 768 
L 307 768 
L 307 1190 
L 4077 1190 
L 4077 768 
z
" transform="scale(0.015625)"/>
       <path id="STIXGeneral-Italic-6c" d="M 1786 4339 
L 806 595 
Q 755 410 755 320 
Q 755 205 864 205 
Q 1037 205 1293 570 
L 1453 794 
L 1542 730 
Q 1254 275 1046 102 
Q 838 -70 576 -70 
Q 262 -70 262 288 
Q 262 397 288 480 
L 1165 3834 
Q 1184 3898 1184 3955 
Q 1184 4096 870 4096 
L 755 4096 
L 755 4198 
Q 1203 4250 1747 4371 
L 1786 4339 
z
" transform="scale(0.015625)"/>
       <path id="STIXGeneral-Italic-6e" d="M 2944 749 
L 3034 666 
Q 2707 218 2534 80 
Q 2362 -58 2138 -58 
Q 2010 -58 1923 28 
Q 1837 115 1837 288 
Q 1837 390 1939 768 
L 2221 1805 
Q 2310 2150 2310 2310 
Q 2310 2496 2157 2496 
Q 1971 2496 1750 2275 
Q 1530 2054 1210 1587 
Q 998 1274 899 1024 
Q 800 774 570 0 
L 90 0 
L 704 2240 
Q 717 2304 717 2349 
Q 717 2445 630 2480 
Q 544 2515 301 2522 
L 301 2624 
Q 550 2675 857 2729 
Q 1165 2784 1338 2822 
L 1363 2810 
L 934 1414 
Q 1408 2170 1753 2496 
Q 2099 2822 2413 2822 
Q 2611 2822 2720 2716 
Q 2829 2611 2829 2432 
Q 2829 2272 2765 2048 
L 2406 749 
Q 2317 429 2317 358 
Q 2317 243 2419 243 
Q 2541 243 2810 582 
Q 2854 634 2944 749 
z
" transform="scale(0.015625)"/>
       <path id="STIXGeneral-Regular-28" d="M 1946 -1030 
L 1869 -1133 
Q 1126 -710 716 32 
Q 307 774 307 1613 
Q 307 3386 1888 4326 
L 1946 4224 
Q 1293 3667 1075 3126 
Q 858 2586 858 1632 
Q 858 685 1082 96 
Q 1306 -493 1946 -1030 
z
" transform="scale(0.015625)"/>
       <path id="STIXGeneral-Regular-29" d="M 186 4224 
L 262 4326 
Q 992 3891 1408 3148 
Q 1824 2406 1824 1581 
Q 1824 -166 243 -1133 
L 186 -1030 
Q 845 -486 1059 54 
Q 1274 595 1274 1562 
Q 1274 2534 1059 3120 
Q 845 3706 186 4224 
z
" transform="scale(0.015625)"/>
       <path id="STIXGeneral-Italic-64" d="M 3334 4371 
L 3373 4333 
L 3123 3360 
L 2739 1958 
Q 2323 429 2323 384 
Q 2323 256 2438 256 
Q 2522 256 2614 336 
Q 2707 416 2963 710 
L 3040 646 
Q 2547 -83 2099 -83 
Q 1978 -83 1907 -6 
Q 1837 70 1837 205 
Q 1837 397 1920 774 
Q 1645 307 1379 118 
Q 1114 -70 781 -70 
Q 461 -70 278 125 
Q 96 320 96 678 
Q 96 1440 713 2131 
Q 1331 2822 1965 2822 
Q 2163 2822 2256 2732 
Q 2349 2643 2381 2451 
L 2387 2451 
L 2675 3494 
Q 2765 3808 2765 3949 
Q 2765 4051 2694 4076 
Q 2624 4102 2355 4115 
L 2355 4224 
Q 2848 4269 3334 4371 
z
M 2278 2310 
Q 2278 2477 2185 2576 
Q 2093 2675 1978 2675 
Q 1677 2675 1395 2381 
Q 1075 2042 864 1571 
Q 653 1101 653 704 
Q 653 486 752 361 
Q 851 237 1024 237 
Q 1312 237 1606 550 
Q 1901 864 2089 1350 
Q 2278 1837 2278 2310 
z
" transform="scale(0.015625)"/>
      </defs>
      <use xlink:href="#STIXGeneral-Italic-3ba" transform="translate(0 0.003125)"/>
      <use xlink:href="#STIXGeneral-Regular-3d" transform="translate(58.83999 0.003125)"/>
      <use xlink:href="#STIXGeneral-Italic-6c" transform="translate(141.779971 50.192188) scale(0.7)"/>
      <use xlink:href="#STIXGeneral-Italic-6e" transform="translate(161.239963 50.192188) scale(0.7)"/>
      <use xlink:href="#STIXGeneral-Regular-28" transform="translate(196.239952 50.192188) scale(0.7)"/>
      <use xlink:href="#STIXGeneral-Italic-6e" transform="translate(219.549944 50.192188) scale(0.7)"/>
      <use xlink:href="#STIXGeneral-Regular-29" transform="translate(254.549933 50.192188) scale(0.7)"/>
      <use xlink:href="#STIXGeneral-Italic-6c" transform="translate(141.779971 -41.257812) scale(0.7)"/>
      <use xlink:href="#STIXGeneral-Italic-6e" transform="translate(161.239963 -41.257812) scale(0.7)"/>
      <use xlink:href="#STIXGeneral-Regular-28" transform="translate(196.239952 -41.257812) scale(0.7)"/>
      <use xlink:href="#STIXGeneral-Italic-64" transform="translate(219.549944 -41.257812) scale(0.7)"/>
      <use xlink:href="#STIXGeneral-Regular-29" transform="translate(254.549933 -41.257812) scale(0.7)"/>
      <path d="M 141.779971 12.8 
L 141.779971 19.05 
L 277.859924 19.05 
L 277.859924 12.8 
L 141.779971 12.8 
z
"/>
     </g>
    </g>
   </g>
   <g id="matplotlib.axis_2">
    <g id="ytick_1">
     <g id="line2d_7">
      <path d="M 384.609563 311.6435 
L 741.729563 311.6435 
" clip-path="url(#p1567259577)" style="fill: none; stroke: #b0b0b0; stroke-opacity: 0.3; stroke-width: 0.8; stroke-linecap: square"/>
     </g>
     <g id="line2d_8">
      <defs>
       <path id="ma17e06d30c" d="M 0 0 
L -3.5 0 
" style="stroke: #000000; stroke-width: 0.8"/>
      </defs>
      <g>
       <use xlink:href="#ma17e06d30c" x="384.609563" y="311.6435" style="stroke: #000000; stroke-width: 0.8"/>
      </g>
     </g>
     <g id="text_5">
      <!-- 0.0 -->
      <g transform="translate(350.109563 319.281625) scale(0.22 -0.22)">
       <use xlink:href="#TimesNewRomanPSMT-30"/>
       <use xlink:href="#TimesNewRomanPSMT-2e" transform="translate(50 0)"/>
       <use xlink:href="#TimesNewRomanPSMT-30" transform="translate(75 0)"/>
      </g>
     </g>
    </g>
    <g id="ytick_2">
     <g id="line2d_9">
      <path d="M 384.609563 285.0323 
L 741.729563 285.0323 
" clip-path="url(#p1567259577)" style="fill: none; stroke: #b0b0b0; stroke-opacity: 0.3; stroke-width: 0.8; stroke-linecap: square"/>
     </g>
     <g id="line2d_10">
      <g>
       <use xlink:href="#ma17e06d30c" x="384.609563" y="285.0323" style="stroke: #000000; stroke-width: 0.8"/>
      </g>
     </g>
     <g id="text_6">
      <!-- 0.1 -->
      <g transform="translate(350.109563 292.670425) scale(0.22 -0.22)">
       <use xlink:href="#TimesNewRomanPSMT-30"/>
       <use xlink:href="#TimesNewRomanPSMT-2e" transform="translate(50 0)"/>
       <use xlink:href="#TimesNewRomanPSMT-31" transform="translate(75 0)"/>
      </g>
     </g>
    </g>
    <g id="ytick_3">
     <g id="line2d_11">
      <path d="M 384.609563 258.4211 
L 741.729563 258.4211 
" clip-path="url(#p1567259577)" style="fill: none; stroke: #b0b0b0; stroke-opacity: 0.3; stroke-width: 0.8; stroke-linecap: square"/>
     </g>
     <g id="line2d_12">
      <g>
       <use xlink:href="#ma17e06d30c" x="384.609563" y="258.4211" style="stroke: #000000; stroke-width: 0.8"/>
      </g>
     </g>
     <g id="text_7">
      <!-- 0.2 -->
      <g transform="translate(350.109563 266.059225) scale(0.22 -0.22)">
       <defs>
        <path id="TimesNewRomanPSMT-32" d="M 2934 816 
L 2638 0 
L 138 0 
L 138 116 
Q 1241 1122 1691 1759 
Q 2141 2397 2141 2925 
Q 2141 3328 1894 3587 
Q 1647 3847 1303 3847 
Q 991 3847 742 3664 
Q 494 3481 375 3128 
L 259 3128 
Q 338 3706 661 4015 
Q 984 4325 1469 4325 
Q 1984 4325 2329 3994 
Q 2675 3663 2675 3213 
Q 2675 2891 2525 2569 
Q 2294 2063 1775 1497 
Q 997 647 803 472 
L 1909 472 
Q 2247 472 2383 497 
Q 2519 522 2628 598 
Q 2738 675 2819 816 
L 2934 816 
z
" transform="scale(0.015625)"/>
       </defs>
       <use xlink:href="#TimesNewRomanPSMT-30"/>
       <use xlink:href="#TimesNewRomanPSMT-2e" transform="translate(50 0)"/>
       <use xlink:href="#TimesNewRomanPSMT-32" transform="translate(75 0)"/>
      </g>
     </g>
    </g>
    <g id="ytick_4">
     <g id="line2d_13">
      <path d="M 384.609563 231.8099 
L 741.729563 231.8099 
" clip-path="url(#p1567259577)" style="fill: none; stroke: #b0b0b0; stroke-opacity: 0.3; stroke-width: 0.8; stroke-linecap: square"/>
     </g>
     <g id="line2d_14">
      <g>
       <use xlink:href="#ma17e06d30c" x="384.609563" y="231.8099" style="stroke: #000000; stroke-width: 0.8"/>
      </g>
     </g>
     <g id="text_8">
      <!-- 0.3 -->
      <g transform="translate(350.109563 239.448025) scale(0.22 -0.22)">
       <defs>
        <path id="TimesNewRomanPSMT-33" d="M 325 3431 
Q 506 3859 782 4092 
Q 1059 4325 1472 4325 
Q 1981 4325 2253 3994 
Q 2459 3747 2459 3466 
Q 2459 3003 1878 2509 
Q 2269 2356 2469 2072 
Q 2669 1788 2669 1403 
Q 2669 853 2319 450 
Q 1863 -75 997 -75 
Q 569 -75 414 31 
Q 259 138 259 259 
Q 259 350 332 419 
Q 406 488 509 488 
Q 588 488 669 463 
Q 722 447 909 348 
Q 1097 250 1169 231 
Q 1284 197 1416 197 
Q 1734 197 1970 444 
Q 2206 691 2206 1028 
Q 2206 1275 2097 1509 
Q 2016 1684 1919 1775 
Q 1784 1900 1550 2001 
Q 1316 2103 1072 2103 
L 972 2103 
L 972 2197 
Q 1219 2228 1467 2375 
Q 1716 2522 1828 2728 
Q 1941 2934 1941 3181 
Q 1941 3503 1739 3701 
Q 1538 3900 1238 3900 
Q 753 3900 428 3381 
L 325 3431 
z
" transform="scale(0.015625)"/>
       </defs>
       <use xlink:href="#TimesNewRomanPSMT-30"/>
       <use xlink:href="#TimesNewRomanPSMT-2e" transform="translate(50 0)"/>
       <use xlink:href="#TimesNewRomanPSMT-33" transform="translate(75 0)"/>
      </g>
     </g>
    </g>
    <g id="ytick_5">
     <g id="line2d_15">
      <path d="M 384.609563 205.1987 
L 741.729563 205.1987 
" clip-path="url(#p1567259577)" style="fill: none; stroke: #b0b0b0; stroke-opacity: 0.3; stroke-width: 0.8; stroke-linecap: square"/>
     </g>
     <g id="line2d_16">
      <g>
       <use xlink:href="#ma17e06d30c" x="384.609563" y="205.1987" style="stroke: #000000; stroke-width: 0.8"/>
      </g>
     </g>
     <g id="text_9">
      <!-- 0.4 -->
      <g transform="translate(350.109563 212.836825) scale(0.22 -0.22)">
       <defs>
        <path id="TimesNewRomanPSMT-34" d="M 2978 1563 
L 2978 1119 
L 2409 1119 
L 2409 0 
L 1894 0 
L 1894 1119 
L 100 1119 
L 100 1519 
L 2066 4325 
L 2409 4325 
L 2409 1563 
L 2978 1563 
z
M 1894 1563 
L 1894 3666 
L 406 1563 
L 1894 1563 
z
" transform="scale(0.015625)"/>
       </defs>
       <use xlink:href="#TimesNewRomanPSMT-30"/>
       <use xlink:href="#TimesNewRomanPSMT-2e" transform="translate(50 0)"/>
       <use xlink:href="#TimesNewRomanPSMT-34" transform="translate(75 0)"/>
      </g>
     </g>
    </g>
    <g id="ytick_6">
     <g id="line2d_17">
      <path d="M 384.609563 178.5875 
L 741.729563 178.5875 
" clip-path="url(#p1567259577)" style="fill: none; stroke: #b0b0b0; stroke-opacity: 0.3; stroke-width: 0.8; stroke-linecap: square"/>
     </g>
     <g id="line2d_18">
      <g>
       <use xlink:href="#ma17e06d30c" x="384.609563" y="178.5875" style="stroke: #000000; stroke-width: 0.8"/>
      </g>
     </g>
     <g id="text_10">
      <!-- 0.5 -->
      <g transform="translate(350.109563 186.225625) scale(0.22 -0.22)">
       <use xlink:href="#TimesNewRomanPSMT-30"/>
       <use xlink:href="#TimesNewRomanPSMT-2e" transform="translate(50 0)"/>
       <use xlink:href="#TimesNewRomanPSMT-35" transform="translate(75 0)"/>
      </g>
     </g>
    </g>
    <g id="ytick_7">
     <g id="line2d_19">
      <path d="M 384.609563 151.9763 
L 741.729563 151.9763 
" clip-path="url(#p1567259577)" style="fill: none; stroke: #b0b0b0; stroke-opacity: 0.3; stroke-width: 0.8; stroke-linecap: square"/>
     </g>
     <g id="line2d_20">
      <g>
       <use xlink:href="#ma17e06d30c" x="384.609563" y="151.9763" style="stroke: #000000; stroke-width: 0.8"/>
      </g>
     </g>
     <g id="text_11">
      <!-- 0.6 -->
      <g transform="translate(350.109563 159.614425) scale(0.22 -0.22)">
       <defs>
        <path id="TimesNewRomanPSMT-36" d="M 2869 4325 
L 2869 4209 
Q 2456 4169 2195 4045 
Q 1934 3922 1679 3669 
Q 1425 3416 1258 3105 
Q 1091 2794 978 2366 
Q 1428 2675 1881 2675 
Q 2316 2675 2634 2325 
Q 2953 1975 2953 1425 
Q 2953 894 2631 456 
Q 2244 -75 1606 -75 
Q 1172 -75 869 213 
Q 275 772 275 1663 
Q 275 2231 503 2743 
Q 731 3256 1154 3653 
Q 1578 4050 1965 4187 
Q 2353 4325 2688 4325 
L 2869 4325 
z
M 925 2138 
Q 869 1716 869 1456 
Q 869 1156 980 804 
Q 1091 453 1309 247 
Q 1469 100 1697 100 
Q 1969 100 2183 356 
Q 2397 613 2397 1088 
Q 2397 1622 2184 2012 
Q 1972 2403 1581 2403 
Q 1463 2403 1327 2353 
Q 1191 2303 925 2138 
z
" transform="scale(0.015625)"/>
       </defs>
       <use xlink:href="#TimesNewRomanPSMT-30"/>
       <use xlink:href="#TimesNewRomanPSMT-2e" transform="translate(50 0)"/>
       <use xlink:href="#TimesNewRomanPSMT-36" transform="translate(75 0)"/>
      </g>
     </g>
    </g>
    <g id="ytick_8">
     <g id="line2d_21">
      <path d="M 384.609563 125.3651 
L 741.729563 125.3651 
" clip-path="url(#p1567259577)" style="fill: none; stroke: #b0b0b0; stroke-opacity: 0.3; stroke-width: 0.8; stroke-linecap: square"/>
     </g>
     <g id="line2d_22">
      <g>
       <use xlink:href="#ma17e06d30c" x="384.609563" y="125.3651" style="stroke: #000000; stroke-width: 0.8"/>
      </g>
     </g>
     <g id="text_12">
      <!-- 0.7 -->
      <g transform="translate(350.109563 133.003225) scale(0.22 -0.22)">
       <defs>
        <path id="TimesNewRomanPSMT-37" d="M 644 4238 
L 2916 4238 
L 2916 4119 
L 1503 -88 
L 1153 -88 
L 2419 3728 
L 1253 3728 
Q 900 3728 750 3644 
Q 488 3500 328 3200 
L 238 3234 
L 644 4238 
z
" transform="scale(0.015625)"/>
       </defs>
       <use xlink:href="#TimesNewRomanPSMT-30"/>
       <use xlink:href="#TimesNewRomanPSMT-2e" transform="translate(50 0)"/>
       <use xlink:href="#TimesNewRomanPSMT-37" transform="translate(75 0)"/>
      </g>
     </g>
    </g>
    <g id="ytick_9">
     <g id="line2d_23">
      <path d="M 384.609563 98.7539 
L 741.729563 98.7539 
" clip-path="url(#p1567259577)" style="fill: none; stroke: #b0b0b0; stroke-opacity: 0.3; stroke-width: 0.8; stroke-linecap: square"/>
     </g>
     <g id="line2d_24">
      <g>
       <use xlink:href="#ma17e06d30c" x="384.609563" y="98.7539" style="stroke: #000000; stroke-width: 0.8"/>
      </g>
     </g>
     <g id="text_13">
      <!-- 0.8 -->
      <g transform="translate(350.109563 106.392025) scale(0.22 -0.22)">
       <defs>
        <path id="TimesNewRomanPSMT-38" d="M 1228 2134 
Q 725 2547 579 2797 
Q 434 3047 434 3316 
Q 434 3728 753 4026 
Q 1072 4325 1600 4325 
Q 2113 4325 2425 4047 
Q 2738 3769 2738 3413 
Q 2738 3175 2569 2928 
Q 2400 2681 1866 2347 
Q 2416 1922 2594 1678 
Q 2831 1359 2831 1006 
Q 2831 559 2490 242 
Q 2150 -75 1597 -75 
Q 994 -75 656 303 
Q 388 606 388 966 
Q 388 1247 577 1523 
Q 766 1800 1228 2134 
z
M 1719 2469 
Q 2094 2806 2194 3001 
Q 2294 3197 2294 3444 
Q 2294 3772 2109 3958 
Q 1925 4144 1606 4144 
Q 1288 4144 1088 3959 
Q 888 3775 888 3528 
Q 888 3366 970 3203 
Q 1053 3041 1206 2894 
L 1719 2469 
z
M 1375 2016 
Q 1116 1797 991 1539 
Q 866 1281 866 981 
Q 866 578 1086 336 
Q 1306 94 1647 94 
Q 1984 94 2187 284 
Q 2391 475 2391 747 
Q 2391 972 2272 1150 
Q 2050 1481 1375 2016 
z
" transform="scale(0.015625)"/>
       </defs>
       <use xlink:href="#TimesNewRomanPSMT-30"/>
       <use xlink:href="#TimesNewRomanPSMT-2e" transform="translate(50 0)"/>
       <use xlink:href="#TimesNewRomanPSMT-38" transform="translate(75 0)"/>
      </g>
     </g>
    </g>
    <g id="ytick_10">
     <g id="line2d_25">
      <path d="M 384.609563 72.1427 
L 741.729563 72.1427 
" clip-path="url(#p1567259577)" style="fill: none; stroke: #b0b0b0; stroke-opacity: 0.3; stroke-width: 0.8; stroke-linecap: square"/>
     </g>
     <g id="line2d_26">
      <g>
       <use xlink:href="#ma17e06d30c" x="384.609563" y="72.1427" style="stroke: #000000; stroke-width: 0.8"/>
      </g>
     </g>
     <g id="text_14">
      <!-- 0.9 -->
      <g transform="translate(350.109563 79.780825) scale(0.22 -0.22)">
       <defs>
        <path id="TimesNewRomanPSMT-39" d="M 338 -88 
L 338 28 
Q 744 34 1094 217 
Q 1444 400 1770 856 
Q 2097 1313 2225 1859 
Q 1734 1544 1338 1544 
Q 891 1544 572 1889 
Q 253 2234 253 2806 
Q 253 3363 572 3797 
Q 956 4325 1575 4325 
Q 2097 4325 2469 3894 
Q 2925 3359 2925 2575 
Q 2925 1869 2578 1258 
Q 2231 647 1613 244 
Q 1109 -88 516 -88 
L 338 -88 
z
M 2275 2091 
Q 2331 2497 2331 2741 
Q 2331 3044 2228 3395 
Q 2125 3747 1936 3934 
Q 1747 4122 1506 4122 
Q 1228 4122 1018 3872 
Q 809 3622 809 3128 
Q 809 2469 1088 2097 
Q 1291 1828 1588 1828 
Q 1731 1828 1928 1897 
Q 2125 1966 2275 2091 
z
" transform="scale(0.015625)"/>
       </defs>
       <use xlink:href="#TimesNewRomanPSMT-30"/>
       <use xlink:href="#TimesNewRomanPSMT-2e" transform="translate(50 0)"/>
       <use xlink:href="#TimesNewRomanPSMT-39" transform="translate(75 0)"/>
      </g>
     </g>
    </g>
    <g id="ytick_11">
     <g id="line2d_27">
      <path d="M 384.609563 45.5315 
L 741.729563 45.5315 
" clip-path="url(#p1567259577)" style="fill: none; stroke: #b0b0b0; stroke-opacity: 0.3; stroke-width: 0.8; stroke-linecap: square"/>
     </g>
     <g id="line2d_28">
      <g>
       <use xlink:href="#ma17e06d30c" x="384.609563" y="45.5315" style="stroke: #000000; stroke-width: 0.8"/>
      </g>
     </g>
     <g id="text_15">
      <!-- 1.0 -->
      <g transform="translate(350.109563 53.169625) scale(0.22 -0.22)">
       <use xlink:href="#TimesNewRomanPSMT-31"/>
       <use xlink:href="#TimesNewRomanPSMT-2e" transform="translate(50 0)"/>
       <use xlink:href="#TimesNewRomanPSMT-30" transform="translate(75 0)"/>
      </g>
     </g>
    </g>
    <g id="text_16">
     <!-- Accuracy -->
     <g transform="translate(341.362375 220.726094) rotate(-90) scale(0.22 -0.22)">
      <defs>
       <path id="TimesNewRomanPSMT-41" d="M 2928 1419 
L 1288 1419 
L 1000 750 
Q 894 503 894 381 
Q 894 284 986 211 
Q 1078 138 1384 116 
L 1384 0 
L 50 0 
L 50 116 
Q 316 163 394 238 
Q 553 388 747 847 
L 2238 4334 
L 2347 4334 
L 3822 809 
Q 4000 384 4145 257 
Q 4291 131 4550 116 
L 4550 0 
L 2878 0 
L 2878 116 
Q 3131 128 3220 200 
Q 3309 272 3309 375 
Q 3309 513 3184 809 
L 2928 1419 
z
M 2841 1650 
L 2122 3363 
L 1384 1650 
L 2841 1650 
z
" transform="scale(0.015625)"/>
       <path id="TimesNewRomanPSMT-63" d="M 2631 1088 
Q 2516 522 2178 217 
Q 1841 -88 1431 -88 
Q 944 -88 581 321 
Q 219 731 219 1428 
Q 219 2103 620 2525 
Q 1022 2947 1584 2947 
Q 2006 2947 2278 2723 
Q 2550 2500 2550 2259 
Q 2550 2141 2473 2067 
Q 2397 1994 2259 1994 
Q 2075 1994 1981 2113 
Q 1928 2178 1911 2362 
Q 1894 2547 1784 2644 
Q 1675 2738 1481 2738 
Q 1169 2738 978 2506 
Q 725 2200 725 1697 
Q 725 1184 976 792 
Q 1228 400 1656 400 
Q 1963 400 2206 609 
Q 2378 753 2541 1131 
L 2631 1088 
z
" transform="scale(0.015625)"/>
       <path id="TimesNewRomanPSMT-75" d="M 2709 2863 
L 2709 1128 
Q 2709 631 2732 520 
Q 2756 409 2807 365 
Q 2859 322 2928 322 
Q 3025 322 3147 375 
L 3191 266 
L 2334 -88 
L 2194 -88 
L 2194 519 
Q 1825 119 1631 15 
Q 1438 -88 1222 -88 
Q 981 -88 804 51 
Q 628 191 559 409 
Q 491 628 491 1028 
L 491 2306 
Q 491 2509 447 2587 
Q 403 2666 317 2708 
Q 231 2750 6 2747 
L 6 2863 
L 1009 2863 
L 1009 947 
Q 1009 547 1148 422 
Q 1288 297 1484 297 
Q 1619 297 1789 381 
Q 1959 466 2194 703 
L 2194 2325 
Q 2194 2569 2105 2655 
Q 2016 2741 1734 2747 
L 1734 2863 
L 2709 2863 
z
" transform="scale(0.015625)"/>
       <path id="TimesNewRomanPSMT-72" d="M 1038 2947 
L 1038 2303 
Q 1397 2947 1775 2947 
Q 1947 2947 2059 2842 
Q 2172 2738 2172 2600 
Q 2172 2478 2090 2393 
Q 2009 2309 1897 2309 
Q 1788 2309 1652 2417 
Q 1516 2525 1450 2525 
Q 1394 2525 1328 2463 
Q 1188 2334 1038 2041 
L 1038 669 
Q 1038 431 1097 309 
Q 1138 225 1241 169 
Q 1344 113 1538 113 
L 1538 0 
L 72 0 
L 72 113 
Q 291 113 397 181 
Q 475 231 506 341 
Q 522 394 522 644 
L 522 1753 
Q 522 2253 501 2348 
Q 481 2444 426 2487 
Q 372 2531 291 2531 
Q 194 2531 72 2484 
L 41 2597 
L 906 2947 
L 1038 2947 
z
" transform="scale(0.015625)"/>
       <path id="TimesNewRomanPSMT-61" d="M 1822 413 
Q 1381 72 1269 19 
Q 1100 -59 909 -59 
Q 613 -59 420 144 
Q 228 347 228 678 
Q 228 888 322 1041 
Q 450 1253 767 1440 
Q 1084 1628 1822 1897 
L 1822 2009 
Q 1822 2438 1686 2597 
Q 1550 2756 1291 2756 
Q 1094 2756 978 2650 
Q 859 2544 859 2406 
L 866 2225 
Q 866 2081 792 2003 
Q 719 1925 600 1925 
Q 484 1925 411 2006 
Q 338 2088 338 2228 
Q 338 2497 613 2722 
Q 888 2947 1384 2947 
Q 1766 2947 2009 2819 
Q 2194 2722 2281 2516 
Q 2338 2381 2338 1966 
L 2338 994 
Q 2338 584 2353 492 
Q 2369 400 2405 369 
Q 2441 338 2488 338 
Q 2538 338 2575 359 
Q 2641 400 2828 588 
L 2828 413 
Q 2478 -56 2159 -56 
Q 2006 -56 1915 50 
Q 1825 156 1822 413 
z
M 1822 616 
L 1822 1706 
Q 1350 1519 1213 1441 
Q 966 1303 859 1153 
Q 753 1003 753 825 
Q 753 600 887 451 
Q 1022 303 1197 303 
Q 1434 303 1822 616 
z
" transform="scale(0.015625)"/>
       <path id="TimesNewRomanPSMT-79" d="M 38 2863 
L 1372 2863 
L 1372 2747 
L 1306 2747 
Q 1166 2747 1095 2686 
Q 1025 2625 1025 2534 
Q 1025 2413 1128 2197 
L 1825 753 
L 2466 2334 
Q 2519 2463 2519 2588 
Q 2519 2644 2497 2672 
Q 2472 2706 2419 2726 
Q 2366 2747 2231 2747 
L 2231 2863 
L 3163 2863 
L 3163 2747 
Q 3047 2734 2984 2696 
Q 2922 2659 2847 2556 
Q 2819 2513 2741 2316 
L 1575 -541 
Q 1406 -956 1132 -1168 
Q 859 -1381 606 -1381 
Q 422 -1381 303 -1275 
Q 184 -1169 184 -1031 
Q 184 -900 270 -820 
Q 356 -741 506 -741 
Q 609 -741 788 -809 
Q 913 -856 944 -856 
Q 1038 -856 1148 -759 
Q 1259 -663 1372 -384 
L 1575 113 
L 547 2272 
Q 500 2369 397 2513 
Q 319 2622 269 2659 
Q 197 2709 38 2747 
L 38 2863 
z
" transform="scale(0.015625)"/>
      </defs>
      <use xlink:href="#TimesNewRomanPSMT-41"/>
      <use xlink:href="#TimesNewRomanPSMT-63" transform="translate(72.216797 0)"/>
      <use xlink:href="#TimesNewRomanPSMT-63" transform="translate(116.601562 0)"/>
      <use xlink:href="#TimesNewRomanPSMT-75" transform="translate(160.986328 0)"/>
      <use xlink:href="#TimesNewRomanPSMT-72" transform="translate(210.986328 0)"/>
      <use xlink:href="#TimesNewRomanPSMT-61" transform="translate(244.287109 0)"/>
      <use xlink:href="#TimesNewRomanPSMT-63" transform="translate(288.671875 0)"/>
      <use xlink:href="#TimesNewRomanPSMT-79" transform="translate(333.056641 0)"/>
     </g>
    </g>
   </g>
   <g id="line2d_29">
    <path d="M 384.609563 178.5875 
L 472.025445 161.275438 
L 495.594314 158.954343 
L 519.980021 154.859171 
L 527.934931 154.312171 
L 539.993878 152.464178 
L 549.039487 151.059689 
L 552.83957 151.695402 
L 556.280592 150.852712 
L 559.424588 150.231781 
L 562.318785 149.196913 
L 564.999973 149.625649 
L 567.497368 148.782959 
L 569.83456 148.679463 
L 572.030869 148.753393 
L 574.102318 149.152548 
L 576.062343 149.803045 
L 577.922322 149.300393 
L 579.691974 148.945571 
L 581.379668 149.256044 
L 582.99266 150.305712 
L 584.537283 149.463021 
L 586.019099 148.827308 
L 587.443017 148.738594 
L 588.813391 149.625649 
L 590.134102 148.738594 
L 591.408625 150.616169 
L 592.640082 148.88644 
L 593.831287 147.570664 
L 594.98479 148.590765 
L 596.102903 148.561199 
L 597.187734 148.088114 
L 598.241208 148.295075 
L 599.265085 150.911843 
L 600.260984 149.034285 
L 601.230393 149.389091 
L 602.174685 148.945571 
L 603.095128 148.96037 
L 603.992898 149.122982 
L 604.869085 150.054386 
L 605.724703 149.758696 
L 607.377939 149.492587 
L 608.177261 148.428137 
L 608.959429 150.483107 
L 609.725163 148.575982 
L 610.475141 148.916005 
L 611.209997 148.413354 
L 611.930329 148.132463 
L 612.6367 149.788262 
L 613.329641 148.738594 
L 614.009654 148.635114 
L 614.677211 148.694246 
L 615.332761 149.270827 
L 615.976729 148.96037 
L 616.609516 148.191594 
L 617.843055 148.472486 
L 618.444515 149.256044 
L 619.03621 149.40389 
L 619.618452 148.176811 
L 620.191539 148.339439 
L 620.755755 149.211696 
L 621.31137 149.167331 
L 621.858641 148.324657 
L 622.397817 148.502052 
L 622.929133 149.522153 
L 623.452814 147.940269 
L 623.969078 148.901222 
L 624.478131 149.122982 
L 624.980172 148.531633 
L 625.475391 149.122982 
L 625.963972 148.531633 
L 626.446091 149.344742 
L 626.921915 149.344742 
L 627.855323 148.250726 
L 628.313213 148.96037 
L 628.765423 148.856874 
L 629.21209 148.413354 
L 629.65335 148.753393 
L 630.089331 148.738594 
L 630.520159 149.004719 
L 630.945953 150.305712 
L 631.366831 149.019502 
L 631.782904 149.536936 
L 632.194281 148.605548 
L 633.003361 148.88644 
L 633.401265 148.842091 
L 633.794871 149.50737 
L 634.184272 149.862192 
L 634.569557 149.743913 
L 634.950812 148.88644 
L 635.328119 148.916005 
L 635.701561 149.241262 
L 636.071215 149.743913 
L 636.437158 151.63627 
L 636.799463 149.270827 
L 637.158202 149.078633 
L 637.513445 150.423975 
L 637.865258 149.714347 
L 638.213708 150.010021 
L 638.558859 148.945571 
L 638.900771 149.329959 
L 639.239506 149.300393 
L 639.575121 149.492587 
L 639.907675 150.320495 
L 640.237221 149.167331 
L 640.563815 149.034285 
L 640.887508 149.773479 
L 641.208351 149.921324 
L 641.841688 149.108199 
L 642.154276 149.72913 
L 642.464207 149.876975 
L 642.771524 149.714347 
L 643.076271 150.010021 
L 643.378492 150.083952 
L 643.678227 149.980456 
L 643.975517 149.522153 
L 644.270402 149.876975 
L 644.562921 149.743913 
L 645.141007 149.137765 
L 645.426648 149.167331 
L 645.710068 149.448238 
L 645.991301 149.167331 
L 646.27038 149.536936 
L 646.547339 149.344742 
L 646.822209 149.788262 
L 647.095021 149.226479 
L 647.365807 149.389091 
L 647.634596 149.18213 
L 647.901417 150.039587 
L 648.166299 149.418673 
L 648.42927 149.241262 
L 648.690357 149.788262 
L 648.949587 149.581285 
L 649.46258 149.72913 
L 649.968453 149.241262 
L 650.218781 149.256044 
L 650.467402 149.684781 
L 650.714337 149.817827 
L 650.959611 150.083952 
L 651.203246 150.557037 
L 651.445263 149.034285 
L 651.685683 149.122982 
L 652.161818 150.083952 
L 652.397573 149.359525 
L 652.631812 149.256044 
L 652.864556 149.655215 
L 653.095824 149.40389 
L 653.554002 149.684781 
L 653.780949 149.463021 
L 654.006492 150.157867 
L 654.230647 149.773479 
L 654.674865 149.891758 
L 654.894959 149.610851 
L 655.113733 150.542254 
L 655.331201 149.655215 
L 655.54738 149.862192 
L 655.975928 149.773479 
L 656.188327 150.202215 
L 656.399496 149.463021 
L 656.609448 149.477804 
L 656.818197 149.625649 
L 657.025758 150.216998 
L 657.232144 149.359525 
L 657.641442 149.625649 
L 657.84438 150.35006 
L 658.046194 149.669998 
L 658.246897 150.290929 
L 658.446501 149.640432 
L 658.645018 149.463021 
L 658.842459 149.536936 
L 659.038837 150.054386 
L 659.234162 149.389091 
L 659.428446 149.862192 
L 659.6217 149.936107 
L 659.813934 149.803045 
L 660.00516 149.995238 
L 660.195388 149.389091 
L 660.384628 150.409192 
L 660.760186 149.359525 
L 660.946524 149.551719 
L 661.131914 149.50737 
L 661.316366 150.098735 
L 661.682492 149.876975 
L 661.864186 149.640432 
L 662.044978 150.010021 
L 662.403893 149.803045 
L 662.582034 150.039587 
L 662.759309 149.788262 
L 662.935725 150.143084 
L 663.111292 149.891758 
L 663.459909 149.936107 
L 663.632974 150.290929 
L 663.805222 150.246564 
L 663.97666 149.965673 
L 664.147295 150.409192 
L 664.317135 149.72913 
L 664.654459 149.477804 
L 664.821957 149.72913 
L 664.988689 149.50737 
L 665.154662 149.906541 
L 665.319883 149.773479 
L 665.484358 149.803045 
L 665.811098 149.566502 
L 665.973376 149.581285 
L 666.29578 150.039587 
L 666.455919 149.83261 
L 666.615358 149.876975 
L 666.774102 149.699564 
L 666.932157 149.699564 
L 667.246227 149.921324 
L 667.402253 150.483107 
L 667.557614 149.847409 
L 667.712315 150.690084 
L 668.019762 149.921324 
L 668.172518 149.980456 
L 668.476123 149.699564 
L 668.626983 150.098735 
L 668.77722 150.083952 
L 668.926841 150.57182 
L 669.07585 149.906541 
L 669.372053 150.320495 
L 669.519257 150.187432 
L 669.665869 149.891758 
L 669.811893 150.216998 
L 670.102198 149.876975 
L 670.246487 150.128301 
L 670.533365 150.069169 
L 670.675961 149.965673 
L 670.818002 150.409192 
L 670.959491 149.921324 
L 671.240832 149.965673 
L 671.380693 150.261347 
L 671.797083 149.551719 
L 671.934829 149.921324 
L 672.072056 149.566502 
L 672.615857 150.143084 
L 672.750549 149.581285 
L 672.884745 150.423975 
L 673.018449 150.216998 
L 673.151664 149.669998 
L 673.284394 149.803045 
L 673.416642 150.261347 
L 673.679707 149.684781 
L 673.940888 150.542254 
L 674.20021 149.936107 
L 674.329183 150.586603 
L 674.585766 149.980456 
L 674.713384 150.157867 
L 674.967287 149.965673 
L 675.093578 149.921324 
L 675.344855 150.024804 
L 675.469847 149.817827 
L 675.718552 150.261347 
L 675.842271 149.847409 
L 675.965571 150.098735 
L 676.088456 150.069169 
L 676.210928 149.906541 
L 676.33299 150.024804 
L 676.454644 149.891758 
L 676.696741 150.379626 
L 676.817189 149.876975 
L 677.056898 153.602543 
L 677.176164 153.46948 
L 677.29504 149.669998 
L 677.531637 151.384945 
L 677.766708 149.625649 
L 677.883677 149.418673 
L 678.000272 149.566502 
L 678.116495 150.527471 
L 678.347836 149.803045 
L 678.462958 149.876975 
L 678.577717 150.290929 
L 678.692116 149.773479 
L 678.806158 149.847409 
L 678.919843 150.172649 
L 679.59461 150.083952 
L 679.705866 150.35006 
L 679.816784 149.847409 
L 679.927365 150.172649 
L 680.037612 149.83261 
L 680.147527 150.172649 
L 680.366366 149.758696 
L 680.475295 150.083952 
L 680.583899 149.95089 
L 680.800142 150.083952 
L 680.907784 149.906541 
L 681.122119 150.231781 
L 681.228816 149.921324 
L 681.441277 150.157867 
L 681.547044 150.039587 
L 681.652506 150.113518 
L 681.757664 150.364843 
L 681.862519 150.187432 
L 681.967073 150.231781 
L 682.071328 149.906541 
L 682.175286 150.113518 
L 682.278948 149.803045 
L 682.382316 150.379626 
L 682.690673 149.891758 
L 682.894805 150.157867 
L 683.29967 150.246564 
L 683.400187 149.876975 
L 683.500428 150.246564 
L 683.700087 150.069169 
L 683.799507 150.290929 
L 683.997539 149.965673 
L 684.096152 150.039587 
L 684.1945 150.335278 
L 684.292583 149.965673 
L 684.390402 150.409192 
L 684.585257 149.936107 
L 684.682296 150.379626 
L 684.875601 150.010021 
L 684.97187 150.364843 
L 685.067886 149.862192 
L 685.259162 150.157867 
L 685.354425 149.891758 
L 685.638729 150.143084 
L 685.82704 150.083952 
L 685.920833 150.379626 
L 686.107696 149.995238 
L 686.293606 149.876975 
L 686.478572 150.305712 
L 686.570705 150.039587 
L 686.662605 150.364843 
L 686.754274 150.024804 
L 686.845713 150.335278 
L 686.936923 149.965673 
L 687.027906 150.128301 
L 687.118662 149.965673 
L 687.209192 150.187432 
L 687.299498 150.010021 
L 687.389581 150.113518 
L 687.658502 149.788262 
L 687.747704 150.379626 
L 687.836687 150.335278 
L 687.925454 150.039587 
L 688.014005 150.083952 
L 688.102341 150.024804 
L 688.366073 150.468324 
L 688.54084 150.054386 
L 688.62791 150.246564 
L 688.714773 149.817827 
L 688.974126 150.409192 
L 689.231646 150.054386 
L 689.317084 150.128301 
L 689.402321 150.453541 
L 689.656844 150.010021 
L 689.741292 150.010021 
L 689.825545 150.261347 
L 689.993467 149.936107 
L 690.077139 150.187432 
L 690.16062 150.128301 
L 690.24391 149.862192 
L 690.32701 150.172649 
L 690.40992 150.113518 
L 690.492643 149.965673 
L 690.575178 150.276146 
L 690.657527 150.069169 
L 690.73969 150.113518 
L 690.821669 150.157867 
L 690.903463 150.024804 
L 690.985075 150.098735 
L 691.309704 150.231781 
L 691.390412 150.010021 
L 691.551293 150.335278 
L 691.631468 149.965673 
L 691.711468 150.320495 
L 691.791291 150.157867 
L 691.870941 150.409192 
L 692.02972 150.187432 
L 692.10885 150.128301 
L 692.187809 150.35006 
L 692.266598 149.980456 
L 692.345217 150.083952 
L 692.423666 149.95089 
L 692.501947 150.438758 
L 692.58006 150.187432 
L 692.658006 150.216998 
L 692.735786 150.320495 
L 692.8134 149.95089 
L 693.045256 150.468324 
L 693.199011 150.010021 
L 693.275646 150.216998 
L 693.35212 150.010021 
L 693.428434 150.320495 
L 693.504589 150.202215 
L 693.580584 150.246564 
L 693.732102 150.010021 
L 693.807626 150.290929 
L 693.882993 150.172649 
L 693.958205 149.936107 
L 694.033261 150.394409 
L 694.108164 150.054386 
L 694.182913 150.157867 
L 694.257509 150.024804 
L 694.406244 150.364843 
L 694.554375 149.980456 
L 694.701907 150.216998 
L 694.92209 150.113518 
L 694.99519 150.379626 
L 695.068144 150.305712 
L 695.358506 150.010021 
L 695.430737 150.276146 
L 695.502825 150.202215 
L 695.646574 150.246564 
L 695.718237 150.423975 
L 695.789759 150.394409 
L 695.86114 150.231781 
L 695.932383 150.320495 
L 696.074451 150.261347 
L 696.145278 150.172649 
L 696.215968 150.276146 
L 696.356937 149.743913 
L 696.427218 150.276146 
L 696.497363 150.010021 
L 696.567374 150.231781 
L 696.637251 149.95089 
L 696.776603 150.276146 
L 696.915425 150.054386 
L 696.984638 150.335278 
L 697.05372 150.143084 
L 697.122671 150.231781 
L 697.191492 150.276146 
L 697.328745 150.128301 
L 697.533661 150.320495 
L 697.601711 150.098735 
L 697.669634 150.187432 
L 697.872647 150.394409 
L 697.940068 150.246564 
L 698.007364 150.216998 
L 698.074536 150.394409 
L 698.141585 150.098735 
L 698.20851 150.660518 
L 698.275313 150.305712 
L 698.341994 150.113518 
L 698.408552 150.231781 
L 698.47499 150.320495 
L 698.541306 149.95089 
L 698.607503 150.024804 
L 698.673579 150.054386 
L 698.871091 150.423975 
L 698.936692 150.098735 
L 699.002174 150.246564 
L 699.197919 150.246564 
L 699.327834 149.862192 
L 699.392618 150.394409 
L 699.457287 150.157867 
L 699.521842 150.305712 
L 699.586283 149.891758 
L 699.650609 150.231781 
L 699.714823 150.202215 
L 699.778924 149.965673 
L 699.842912 150.128301 
L 699.906787 150.305712 
L 699.970552 150.024804 
L 700.034204 150.202215 
L 700.097746 150.276146 
L 700.161177 150.157867 
L 700.28771 150.320495 
L 700.350812 150.143084 
L 700.413804 150.364843 
L 700.476688 150.069169 
L 700.539464 150.098735 
L 700.851731 150.423975 
L 701.037815 149.891758 
L 701.161345 150.379626 
L 701.222954 150.320495 
L 701.345859 150.453541 
L 701.407157 150.113518 
L 701.468352 150.216998 
L 701.590434 150.157867 
L 701.651322 150.216998 
L 701.712108 150.483107 
L 701.772794 150.320495 
L 701.954246 149.965673 
L 702.134799 150.320495 
L 702.194785 150.172649 
L 702.254672 150.379626 
L 702.314462 150.231781 
L 702.374153 150.216998 
L 702.433747 151.044906 
L 702.552643 150.128301 
L 702.611946 150.172649 
L 702.671153 150.483107 
L 702.730263 150.290929 
L 702.848198 150.276146 
L 702.907022 150.290929 
L 702.965752 150.423975 
L 703.141375 150.128301 
L 703.316156 150.320495 
L 703.37423 150.35006 
L 703.432212 150.246564 
L 703.490102 150.512689 
L 703.547901 150.276146 
L 703.605607 150.453541 
L 703.663223 149.995238 
L 703.720748 150.468324 
L 703.778182 150.143084 
L 703.835525 150.305712 
L 703.892779 150.261347 
L 703.949942 150.157867 
L 704.007017 150.320495 
L 704.064002 150.231781 
L 704.120898 150.261347 
L 704.177705 150.143084 
L 704.347598 150.35006 
L 704.404053 150.098735 
L 704.460421 150.261347 
L 704.516702 150.453541 
L 704.572896 150.187432 
L 704.629004 150.542254 
L 704.685026 150.527471 
L 704.740961 150.113518 
L 704.796811 150.216998 
L 704.852575 150.335278 
L 704.908254 150.128301 
L 704.963849 150.202215 
L 705.019358 150.453541 
L 705.074783 150.010021 
L 705.130124 150.335278 
L 705.185381 150.394409 
L 705.240555 150.069169 
L 705.295645 150.172649 
L 705.460417 150.512689 
L 705.569853 150.438758 
L 705.624448 150.083952 
L 705.678961 150.512689 
L 705.787744 150.497906 
L 705.896203 150.394409 
L 705.950311 150.616169 
L 706.00434 150.216998 
L 706.058288 150.423975 
L 706.112157 150.305712 
L 706.165946 150.468324 
L 706.219656 150.098735 
L 706.273287 150.290929 
L 706.380313 150.35006 
L 706.433708 150.202215 
L 706.487025 150.335278 
L 706.540265 150.246564 
L 706.64651 150.483107 
L 706.699517 150.083952 
L 706.752447 150.216998 
L 706.8053 150.483107 
L 706.858077 150.290929 
L 706.963402 150.290929 
L 707.01595 150.364843 
L 707.068423 150.054386 
L 707.12082 150.113518 
L 707.173143 150.468324 
L 707.22539 150.143084 
L 707.433632 150.57182 
L 707.537309 150.202215 
L 707.640692 150.601386 
L 707.743782 150.276146 
L 707.795218 150.57182 
L 707.846582 150.438758 
L 707.897873 150.187432 
L 707.949092 150.379626 
L 708.00024 150.586603 
L 708.10232 150.143084 
L 708.153252 150.409192 
L 708.204114 150.379626 
L 708.356275 150.290929 
L 708.406855 150.305712 
L 708.558174 150.483107 
L 708.608474 150.172649 
L 708.658705 150.216998 
L 708.708867 150.483107 
L 708.758959 150.364843 
L 708.808984 150.379626 
L 708.858939 150.675301 
L 709.008396 150.024804 
L 709.05808 150.616169 
L 709.107695 150.364843 
L 709.305485 150.172649 
L 709.453126 150.497906 
L 709.502207 150.305712 
L 709.551222 150.438758 
L 709.600171 150.468324 
L 709.746625 150.364843 
L 709.795313 150.542254 
L 709.843936 150.305712 
L 709.892494 150.453541 
L 709.940987 150.202215 
L 709.989416 150.512689 
L 710.03778 150.305712 
L 710.086081 150.57182 
L 710.134318 150.335278 
L 710.278646 150.261347 
L 710.374548 150.512689 
L 710.422404 150.423975 
L 710.470198 150.320495 
L 710.613205 150.586603 
L 710.708232 150.616169 
L 710.755653 150.246564 
L 710.850309 150.216998 
L 710.897546 150.542254 
L 711.038889 150.542254 
L 711.085881 150.276146 
L 711.132814 150.542254 
L 711.226497 150.320495 
L 711.273249 150.512689 
L 711.319941 150.290929 
L 711.366573 150.143084 
L 711.506112 150.601386 
L 711.598842 150.335278 
L 711.645119 150.57182 
L 711.737496 150.483107 
L 711.783597 150.083952 
L 711.82964 150.690084 
L 711.875625 150.438758 
L 711.921552 150.246564 
L 711.967421 150.35006 
L 712.013233 150.778797 
L 712.058987 150.453541 
L 712.104683 150.542254 
L 712.150323 150.497906 
L 712.195905 150.453541 
L 712.24143 150.616169 
L 712.286899 150.557037 
L 712.422965 150.364843 
L 712.468208 150.364843 
L 712.513394 150.542254 
L 712.558525 150.497906 
L 712.6036 150.409192 
L 712.648619 150.660518 
L 712.693583 150.261347 
L 712.783344 150.453541 
L 712.917573 150.719665 
L 712.962207 150.320495 
L 713.006785 150.379626 
L 713.184557 150.660518 
L 713.361466 150.364843 
L 713.405559 150.645735 
L 713.449599 150.527471 
L 713.62523 150.202215 
L 713.756399 150.675301 
L 713.800017 150.35006 
L 713.887098 150.409192 
L 713.973971 150.379626 
L 714.01733 150.069169 
L 714.060638 150.394409 
L 714.103894 150.616169 
L 714.147099 150.468324 
L 714.190252 150.379626 
L 714.233355 150.57182 
L 714.276407 150.527471 
L 714.319408 150.276146 
L 714.362358 150.497906 
L 714.405257 150.497906 
L 714.448107 150.157867 
L 714.490906 150.601386 
L 714.533654 150.335278 
L 714.576353 150.616169 
L 714.619002 150.379626 
L 714.661601 150.261347 
L 714.70415 150.335278 
L 714.746649 150.497906 
L 714.789099 150.290929 
L 714.8315 150.172649 
L 714.873851 150.379626 
L 714.916154 150.512689 
L 714.958407 150.35006 
L 715.042766 150.157867 
L 715.084873 150.054386 
L 715.210902 150.497906 
L 715.29468 150.231781 
L 715.336497 150.497906 
L 715.378266 150.157867 
L 715.544865 150.35006 
L 715.586396 150.172649 
L 715.627879 150.394409 
L 715.669316 150.246564 
L 715.752048 150.497906 
L 715.793344 150.143084 
L 715.834593 150.290929 
L 715.875795 150.409192 
L 715.95806 150.379626 
L 715.999123 150.305712 
L 716.04014 150.645735 
L 716.081111 150.335278 
L 716.162914 150.409192 
L 716.203747 150.172649 
L 716.366624 150.630952 
L 716.44779 150.320495 
L 716.488305 150.453541 
L 716.528775 150.57182 
L 716.569201 150.409192 
L 716.609581 165.326246 
L 716.690209 154.681776 
L 716.85093 150.143084 
L 716.931026 150.512689 
L 716.971008 150.438758 
L 717.010946 150.157867 
L 717.090692 150.276146 
L 717.130499 150.276146 
L 717.209983 149.83261 
L 717.249661 150.202215 
L 717.328886 150.35006 
L 717.368434 150.290929 
L 717.407939 150.231781 
L 717.447402 149.95089 
L 717.486822 150.172649 
L 717.565534 150.35006 
L 717.644076 150.276146 
L 717.683284 150.010021 
L 717.761573 150.157867 
L 717.800655 149.980456 
L 717.839695 150.039587 
L 717.956564 150.157867 
L 718.381907 150.054386 
L 718.420329 150.039587 
L 718.535354 150.290929 
L 718.688158 149.936107 
L 718.840325 150.202215 
L 718.954034 150.024804 
L 718.991858 150.246564 
L 719.029644 149.83261 
L 719.06739 150.157867 
L 719.105097 150.231781 
L 719.255536 149.862192 
L 719.442715 150.172649 
L 719.480036 150.128301 
L 719.517319 150.379626 
L 719.59177 150.157867 
L 719.628939 150.039587 
L 719.66607 150.246564 
L 719.777236 150.290929 
L 719.851158 149.980456 
L 719.924931 150.083952 
L 719.961762 150.290929 
L 719.998556 149.965673 
L 720.035312 150.187432 
L 720.072031 150.098735 
L 720.108713 150.305712 
L 720.181968 150.098735 
L 720.291573 150.069169 
L 720.473521 150.261347 
L 720.690665 150.069169 
L 720.72673 150.276146 
L 720.798754 150.143084 
L 720.978193 150.187432 
L 721.013975 150.024804 
L 721.085434 150.069169 
L 721.121111 150.157867 
L 721.156753 150.083952 
L 721.19236 150.010021 
L 721.227933 150.187432 
L 721.26347 150.098735 
L 721.334442 150.024804 
L 721.369876 150.069169 
L 721.405276 150.202215 
L 721.440642 149.980456 
L 721.475973 150.113518 
L 721.827413 149.936107 
L 721.862371 150.054386 
L 721.932188 150.172649 
L 721.967046 150.069169 
L 722.00187 149.891758 
L 722.07142 150.024804 
L 722.140838 149.965673 
L 722.244716 150.261347 
L 722.3483 150.024804 
L 722.382762 150.083952 
L 722.45159 150.216998 
L 722.485955 150.157867 
L 722.520288 150.024804 
L 722.554588 150.261347 
L 722.588856 150.157867 
L 722.657296 150.157867 
L 722.725607 150.039587 
L 722.759715 150.113518 
L 722.827835 150.069169 
L 722.861847 150.187432 
L 722.99758 150.069169 
L 723.031434 150.276146 
L 723.099049 150.113518 
L 723.200236 149.921324 
L 723.233903 150.231781 
L 723.334717 150.172649 
L 723.368259 149.980456 
L 723.401771 150.202215 
L 723.435253 150.083952 
L 723.502123 150.187432 
L 723.535512 150.098735 
L 723.602199 150.083952 
L 723.635496 150.187432 
L 723.668763 150.172649 
L 723.702 150.024804 
L 723.80153 150.069169 
L 723.999776 150.202215 
L 724.032713 150.039587 
L 724.098497 150.128301 
L 724.164162 150.157867 
L 724.196951 150.024804 
L 724.229709 150.35006 
L 724.295139 149.995238 
L 724.425647 150.113518 
L 724.555689 150.157867 
L 724.620537 150.054386 
L 724.652918 150.202215 
L 724.685269 150.261347 
L 724.717593 150.069169 
L 724.81439 150.113518 
L 725.007218 150.290929 
L 725.039257 150.202215 
L 725.103251 150.172649 
L 725.135206 150.276146 
L 725.199031 150.172649 
L 725.38984 150.143084 
L 725.421545 150.320495 
L 725.484871 150.172649 
L 725.516493 150.202215 
L 725.548088 150.143084 
L 725.579655 150.024804 
L 725.642708 150.172649 
L 725.705651 150.083952 
L 725.737083 150.113518 
L 725.768487 150.187432 
L 725.799864 149.995238 
L 725.831214 150.113518 
L 726.01875 150.054386 
L 726.205326 150.305712 
L 726.329182 150.113518 
L 726.390952 150.231781 
L 726.421798 150.335278 
L 726.452618 150.216998 
L 726.483412 150.113518 
L 726.51418 150.335278 
L 726.636992 150.276146 
L 726.66763 150.039587 
L 726.72883 150.290929 
L 726.850923 150.113518 
L 726.881382 150.290929 
L 726.911816 150.335278 
L 726.942224 150.143084 
L 727.033298 150.202215 
L 727.184583 150.143084 
L 727.214765 150.364843 
L 727.275053 150.231781 
L 727.30516 150.128301 
L 727.395333 150.187432 
L 727.485282 150.143084 
L 727.515216 150.024804 
L 727.545126 150.202215 
L 727.575011 150.187432 
L 727.634707 150.069169 
L 727.664518 150.157867 
L 727.694306 150.246564 
L 727.753807 150.216998 
L 727.783521 150.069169 
L 727.842877 150.261347 
L 727.902137 150.172649 
L 727.931731 150.024804 
L 727.9613 150.276146 
L 727.990846 150.276146 
L 728.049866 150.157867 
L 728.10879 150.276146 
L 728.138216 150.246564 
L 728.167619 150.379626 
L 728.196998 150.187432 
L 728.226353 150.083952 
L 728.255685 150.246564 
L 728.284993 150.128301 
L 728.372776 150.35006 
L 728.431181 150.246564 
L 728.489493 150.276146 
L 728.518613 150.128301 
L 728.547711 150.305712 
L 728.634865 150.261347 
L 728.692851 150.261347 
L 728.750746 150.069169 
L 728.779659 150.246564 
L 728.808549 150.35006 
L 728.86626 150.305712 
L 729.01014 150.083952 
L 729.124836 150.290929 
L 729.153454 150.143084 
L 729.210622 150.335278 
L 729.239173 150.364843 
L 729.296207 150.172649 
L 729.353152 150.231781 
L 729.664768 150.187432 
L 729.692965 150.083952 
L 729.72114 150.320495 
L 729.749294 150.320495 
L 729.91776 149.965673 
L 730.085451 150.305712 
L 730.113325 150.246564 
L 730.169008 150.276146 
L 730.196818 150.128301 
L 730.33555 150.305712 
L 730.363233 150.202215 
L 730.418536 150.409192 
L 730.446156 150.305712 
L 730.638914 150.172649 
L 730.666367 149.95089 
L 730.748605 150.157867 
L 730.775976 150.054386 
L 730.857967 150.143084 
L 730.967002 150.305712 
L 730.994209 150.143084 
L 731.048564 150.335278 
L 731.075711 150.290929 
L 731.129945 150.320495 
L 731.184097 150.202215 
L 731.265176 150.438758 
L 731.373001 150.335278 
L 731.480508 150.187432 
L 731.426795 150.394409 
L 731.507336 150.246564 
L 731.534143 150.231781 
L 731.560931 150.083952 
L 731.614448 150.35006 
L 731.641177 150.172649 
L 732.013338 150.172649 
L 732.118976 150.320495 
L 732.145337 150.216998 
L 732.224308 150.276146 
L 732.381738 150.409192 
L 732.40791 150.261347 
L 732.512412 150.128301 
L 732.538491 150.364843 
L 732.590592 150.083952 
L 732.616615 150.246564 
L 732.694572 150.083952 
L 732.720521 150.143084 
L 732.849988 150.35006 
L 732.953232 150.172649 
L 733.056184 150.394409 
L 733.210069 150.054386 
L 733.312299 150.453541 
L 733.337812 150.276146 
L 733.388784 150.083952 
L 733.439685 150.423975 
L 733.490515 150.276146 
L 733.61728 149.965673 
L 733.541274 150.364843 
L 733.64258 150.083952 
L 733.768819 150.35006 
L 733.819192 150.010021 
L 733.894622 150.098735 
L 733.944822 150.409192 
L 734.019992 150.202215 
L 734.119979 150.394409 
L 734.144932 150.246564 
L 734.244577 150.113518 
L 734.219692 150.320495 
L 734.269446 150.202215 
L 734.343951 150.157867 
L 734.443053 150.320495 
L 734.517204 150.157867 
L 734.566554 150.305712 
L 734.615838 150.172649 
L 734.689638 150.305712 
L 734.714205 150.320495 
L 734.738756 150.157867 
L 734.787807 150.364843 
L 734.812308 150.216998 
L 734.885712 150.113518 
L 734.958969 150.409192 
L 735.032078 150.246564 
L 735.056416 150.305712 
L 735.105042 150.113518 
L 735.153603 150.438758 
L 735.298899 149.980456 
L 735.371331 150.320495 
L 735.419539 150.261347 
L 735.443619 150.305712 
L 735.467683 150.083952 
L 735.515764 150.379626 
L 735.53978 150.216998 
L 735.587766 150.128301 
L 735.611735 150.35006 
L 735.659627 150.024804 
L 735.707455 150.098735 
L 735.731345 150.305712 
L 735.75522 150.069169 
L 735.826752 150.202215 
L 735.874361 150.290929 
L 735.898143 149.995238 
L 735.94566 150.305712 
L 735.993114 150.172649 
L 736.040507 150.231781 
L 736.064181 150.542254 
L 736.135109 150.438758 
L 736.182318 150.054386 
L 736.205899 150.497906 
L 736.276552 150.098735 
L 736.323578 150.438758 
L 736.394004 150.216998 
L 736.487694 150.261347 
L 736.534448 150.290929 
L 736.581143 150.113518 
L 736.604468 150.409192 
L 736.697619 150.335278 
L 736.8369 150.172649 
L 736.860062 150.453541 
L 736.952563 150.320495 
L 736.975651 150.261347 
L 736.998725 150.364843 
L 737.021785 150.335278 
L 737.090875 150.468324 
L 737.182793 150.039587 
L 737.205736 150.394409 
L 737.228665 150.039587 
L 737.320236 150.231781 
L 737.343093 150.394409 
L 737.388763 150.246564 
L 737.411577 150.069169 
L 737.479934 150.35006 
L 737.570877 150.143084 
L 737.593577 150.187432 
L 737.684237 150.157867 
L 737.729482 150.557037 
L 737.842351 150.157867 
L 737.864883 150.409192 
L 737.909905 150.098735 
L 737.954872 150.364843 
L 738.111819 150.113518 
L 738.223512 150.394409 
L 738.31262 150.054386 
L 738.334863 150.216998 
L 738.401511 150.290929 
L 738.445876 150.231781 
L 738.490186 150.276146 
L 738.556551 150.172649 
L 738.578646 150.394409 
L 738.666891 150.231781 
L 738.688919 150.172649 
L 738.710934 150.512689 
L 738.79886 150.468324 
L 738.930353 150.143084 
L 738.995922 150.098735 
L 739.083164 150.483107 
L 739.278699 150.231781 
L 739.30036 150.276146 
L 739.365268 150.261347 
L 739.408475 150.512689 
L 739.537791 150.216998 
L 739.602277 150.453541 
L 739.580794 150.157867 
L 739.666649 150.290929 
L 739.709501 150.216998 
L 739.752302 150.364843 
L 739.795054 150.261347 
L 739.81641 150.557037 
L 739.837755 149.995238 
L 739.923007 150.453541 
L 739.965559 150.557037 
L 740.008061 150.113518 
L 740.029293 150.527471 
L 740.1141 150.364843 
L 740.177575 150.216998 
L 740.219831 150.320495 
L 740.24094 150.512689 
L 740.262037 150.202215 
L 740.304195 150.305712 
L 740.325256 150.069169 
L 740.346304 150.35006 
L 740.388365 150.202215 
L 740.409377 150.483107 
L 740.451365 150.054386 
L 740.493304 150.335278 
L 740.535196 150.246564 
L 740.556123 150.57182 
L 740.577039 150.187432 
L 740.639714 150.35006 
L 740.681437 150.409192 
L 740.702281 150.202215 
L 740.723113 150.57182 
L 740.743933 150.157867 
L 740.806322 150.157867 
L 740.847856 150.231781 
L 740.889342 150.202215 
L 740.972172 151.591922 
L 740.992851 162.679911 
L 741.075447 150.379626 
L 741.178429 150.734448 
L 741.116675 150.098735 
L 741.198991 150.557037 
L 741.281122 150.054386 
L 741.322118 150.157867 
L 741.52641 149.921324 
L 741.546776 150.083952 
L 741.607807 149.847409 
L 741.628128 149.95089 
L 741.729563 149.83261 
L 741.668735 150.024804 
L 741.729563 149.83261 
" clip-path="url(#p1567259577)" style="fill: none; stroke: #1f77b4; stroke-width: 1.5; stroke-linecap: square"/>
   </g>
   <g id="patch_3">
    <path d="M 384.609563 311.6435 
L 384.609563 45.5315 
" style="fill: none; stroke: #000000; stroke-width: 0.8; stroke-linejoin: miter; stroke-linecap: square"/>
   </g>
   <g id="patch_4">
    <path d="M 741.729563 311.6435 
L 741.729563 45.5315 
" style="fill: none; stroke: #000000; stroke-width: 0.8; stroke-linejoin: miter; stroke-linecap: square"/>
   </g>
   <g id="patch_5">
    <path d="M 384.609563 311.6435 
L 741.729563 311.6435 
" style="fill: none; stroke: #000000; stroke-width: 0.8; stroke-linejoin: miter; stroke-linecap: square"/>
   </g>
   <g id="patch_6">
    <path d="M 384.609563 45.5315 
L 741.729563 45.5315 
" style="fill: none; stroke: #000000; stroke-width: 0.8; stroke-linejoin: miter; stroke-linecap: square"/>
   </g>
   <g id="text_17">
    <!-- Accuracy of the 09_07_25_CINIC10_torch_model_(1024+8192-8192.2+1)_cat-dog on the validation set -->
    <g transform="translate(7.2 25.5315) scale(0.264 -0.264)">
     <defs>
      <path id="TimesNewRomanPSMT-20" transform="scale(0.015625)"/>
      <path id="TimesNewRomanPSMT-6f" d="M 1600 2947 
Q 2250 2947 2644 2453 
Q 2978 2031 2978 1484 
Q 2978 1100 2793 706 
Q 2609 313 2286 112 
Q 1963 -88 1566 -88 
Q 919 -88 538 428 
Q 216 863 216 1403 
Q 216 1797 411 2186 
Q 606 2575 925 2761 
Q 1244 2947 1600 2947 
z
M 1503 2744 
Q 1338 2744 1170 2645 
Q 1003 2547 900 2300 
Q 797 2053 797 1666 
Q 797 1041 1045 587 
Q 1294 134 1700 134 
Q 2003 134 2200 384 
Q 2397 634 2397 1244 
Q 2397 2006 2069 2444 
Q 1847 2744 1503 2744 
z
" transform="scale(0.015625)"/>
      <path id="TimesNewRomanPSMT-66" d="M 1319 2638 
L 1319 756 
Q 1319 356 1406 250 
Q 1522 113 1716 113 
L 1975 113 
L 1975 0 
L 266 0 
L 266 113 
L 394 113 
Q 519 113 622 175 
Q 725 238 764 344 
Q 803 450 803 756 
L 803 2638 
L 247 2638 
L 247 2863 
L 803 2863 
L 803 3050 
Q 803 3478 940 3775 
Q 1078 4072 1361 4255 
Q 1644 4438 1997 4438 
Q 2325 4438 2600 4225 
Q 2781 4084 2781 3909 
Q 2781 3816 2700 3733 
Q 2619 3650 2525 3650 
Q 2453 3650 2373 3701 
Q 2294 3753 2178 3923 
Q 2063 4094 1966 4153 
Q 1869 4213 1750 4213 
Q 1606 4213 1506 4136 
Q 1406 4059 1362 3898 
Q 1319 3738 1319 3069 
L 1319 2863 
L 2056 2863 
L 2056 2638 
L 1319 2638 
z
" transform="scale(0.015625)"/>
      <path id="TimesNewRomanPSMT-74" d="M 1031 3803 
L 1031 2863 
L 1700 2863 
L 1700 2644 
L 1031 2644 
L 1031 788 
Q 1031 509 1111 412 
Q 1191 316 1316 316 
Q 1419 316 1516 380 
Q 1613 444 1666 569 
L 1788 569 
Q 1678 263 1478 108 
Q 1278 -47 1066 -47 
Q 922 -47 784 33 
Q 647 113 581 261 
Q 516 409 516 719 
L 516 2644 
L 63 2644 
L 63 2747 
Q 234 2816 414 2980 
Q 594 3144 734 3369 
Q 806 3488 934 3803 
L 1031 3803 
z
" transform="scale(0.015625)"/>
      <path id="TimesNewRomanPSMT-68" d="M 1041 4444 
L 1041 2350 
Q 1388 2731 1591 2839 
Q 1794 2947 1997 2947 
Q 2241 2947 2416 2812 
Q 2591 2678 2675 2391 
Q 2734 2191 2734 1659 
L 2734 647 
Q 2734 375 2778 275 
Q 2809 200 2884 156 
Q 2959 113 3159 113 
L 3159 0 
L 1753 0 
L 1753 113 
L 1819 113 
Q 2019 113 2097 173 
Q 2175 234 2206 353 
Q 2216 403 2216 647 
L 2216 1659 
Q 2216 2128 2167 2275 
Q 2119 2422 2012 2495 
Q 1906 2569 1756 2569 
Q 1603 2569 1437 2487 
Q 1272 2406 1041 2159 
L 1041 647 
Q 1041 353 1073 281 
Q 1106 209 1195 161 
Q 1284 113 1503 113 
L 1503 0 
L 84 0 
L 84 113 
Q 275 113 384 172 
Q 447 203 484 290 
Q 522 378 522 647 
L 522 3238 
Q 522 3728 498 3840 
Q 475 3953 426 3993 
Q 378 4034 297 4034 
Q 231 4034 84 3984 
L 41 4094 
L 897 4444 
L 1041 4444 
z
" transform="scale(0.015625)"/>
      <path id="TimesNewRomanPSMT-65" d="M 681 1784 
Q 678 1147 991 784 
Q 1303 422 1725 422 
Q 2006 422 2214 576 
Q 2422 731 2563 1106 
L 2659 1044 
Q 2594 616 2278 264 
Q 1963 -88 1488 -88 
Q 972 -88 605 314 
Q 238 716 238 1394 
Q 238 2128 614 2539 
Q 991 2950 1559 2950 
Q 2041 2950 2350 2633 
Q 2659 2316 2659 1784 
L 681 1784 
z
M 681 1966 
L 2006 1966 
Q 1991 2241 1941 2353 
Q 1863 2528 1708 2628 
Q 1553 2728 1384 2728 
Q 1125 2728 920 2526 
Q 716 2325 681 1966 
z
" transform="scale(0.015625)"/>
      <path id="TimesNewRomanPSMT-5f" d="M 3256 -1381 
L -53 -1381 
L -53 -1119 
L 3256 -1119 
L 3256 -1381 
z
" transform="scale(0.015625)"/>
      <path id="TimesNewRomanPSMT-43" d="M 3853 4334 
L 3950 2894 
L 3853 2894 
Q 3659 3541 3300 3825 
Q 2941 4109 2438 4109 
Q 2016 4109 1675 3895 
Q 1334 3681 1139 3212 
Q 944 2744 944 2047 
Q 944 1472 1128 1050 
Q 1313 628 1683 403 
Q 2053 178 2528 178 
Q 2941 178 3256 354 
Q 3572 531 3950 1056 
L 4047 994 
Q 3728 428 3303 165 
Q 2878 -97 2294 -97 
Q 1241 -97 663 684 
Q 231 1266 231 2053 
Q 231 2688 515 3219 
Q 800 3750 1298 4042 
Q 1797 4334 2388 4334 
Q 2847 4334 3294 4109 
Q 3425 4041 3481 4041 
Q 3566 4041 3628 4100 
Q 3709 4184 3744 4334 
L 3853 4334 
z
" transform="scale(0.015625)"/>
      <path id="TimesNewRomanPSMT-49" d="M 1975 116 
L 1975 0 
L 159 0 
L 159 116 
L 309 116 
Q 572 116 691 269 
Q 766 369 766 750 
L 766 3488 
Q 766 3809 725 3913 
Q 694 3991 597 4047 
Q 459 4122 309 4122 
L 159 4122 
L 159 4238 
L 1975 4238 
L 1975 4122 
L 1822 4122 
Q 1563 4122 1444 3969 
Q 1366 3869 1366 3488 
L 1366 750 
Q 1366 428 1406 325 
Q 1438 247 1538 191 
Q 1672 116 1822 116 
L 1975 116 
z
" transform="scale(0.015625)"/>
      <path id="TimesNewRomanPSMT-4e" d="M -84 4238 
L 1066 4238 
L 3656 1059 
L 3656 3503 
Q 3656 3894 3569 3991 
Q 3453 4122 3203 4122 
L 3056 4122 
L 3056 4238 
L 4531 4238 
L 4531 4122 
L 4381 4122 
Q 4113 4122 4000 3959 
Q 3931 3859 3931 3503 
L 3931 -69 
L 3819 -69 
L 1025 3344 
L 1025 734 
Q 1025 344 1109 247 
Q 1228 116 1475 116 
L 1625 116 
L 1625 0 
L 150 0 
L 150 116 
L 297 116 
Q 569 116 681 278 
Q 750 378 750 734 
L 750 3681 
Q 566 3897 470 3965 
Q 375 4034 191 4094 
Q 100 4122 -84 4122 
L -84 4238 
z
" transform="scale(0.015625)"/>
      <path id="TimesNewRomanPSMT-6d" d="M 1050 2338 
Q 1363 2650 1419 2697 
Q 1559 2816 1721 2881 
Q 1884 2947 2044 2947 
Q 2313 2947 2506 2790 
Q 2700 2634 2766 2338 
Q 3088 2713 3309 2830 
Q 3531 2947 3766 2947 
Q 3994 2947 4170 2830 
Q 4347 2713 4450 2447 
Q 4519 2266 4519 1878 
L 4519 647 
Q 4519 378 4559 278 
Q 4591 209 4675 161 
Q 4759 113 4950 113 
L 4950 0 
L 3538 0 
L 3538 113 
L 3597 113 
Q 3781 113 3884 184 
Q 3956 234 3988 344 
Q 4000 397 4000 647 
L 4000 1878 
Q 4000 2228 3916 2372 
Q 3794 2572 3525 2572 
Q 3359 2572 3192 2489 
Q 3025 2406 2788 2181 
L 2781 2147 
L 2788 2013 
L 2788 647 
Q 2788 353 2820 281 
Q 2853 209 2943 161 
Q 3034 113 3253 113 
L 3253 0 
L 1806 0 
L 1806 113 
Q 2044 113 2133 169 
Q 2222 225 2256 338 
Q 2272 391 2272 647 
L 2272 1878 
Q 2272 2228 2169 2381 
Q 2031 2581 1784 2581 
Q 1616 2581 1450 2491 
Q 1191 2353 1050 2181 
L 1050 647 
Q 1050 366 1089 281 
Q 1128 197 1204 155 
Q 1281 113 1516 113 
L 1516 0 
L 100 0 
L 100 113 
Q 297 113 375 155 
Q 453 197 493 289 
Q 534 381 534 647 
L 534 1741 
Q 534 2213 506 2350 
Q 484 2453 437 2492 
Q 391 2531 309 2531 
Q 222 2531 100 2484 
L 53 2597 
L 916 2947 
L 1050 2947 
L 1050 2338 
z
" transform="scale(0.015625)"/>
      <path id="TimesNewRomanPSMT-64" d="M 2222 322 
Q 2013 103 1813 7 
Q 1613 -88 1381 -88 
Q 913 -88 563 304 
Q 213 697 213 1313 
Q 213 1928 600 2439 
Q 988 2950 1597 2950 
Q 1975 2950 2222 2709 
L 2222 3238 
Q 2222 3728 2198 3840 
Q 2175 3953 2125 3993 
Q 2075 4034 2000 4034 
Q 1919 4034 1784 3984 
L 1744 4094 
L 2597 4444 
L 2738 4444 
L 2738 1134 
Q 2738 631 2761 520 
Q 2784 409 2836 365 
Q 2888 322 2956 322 
Q 3041 322 3181 375 
L 3216 266 
L 2366 -88 
L 2222 -88 
L 2222 322 
z
M 2222 541 
L 2222 2016 
Q 2203 2228 2109 2403 
Q 2016 2578 1861 2667 
Q 1706 2756 1559 2756 
Q 1284 2756 1069 2509 
Q 784 2184 784 1559 
Q 784 928 1059 592 
Q 1334 256 1672 256 
Q 1956 256 2222 541 
z
" transform="scale(0.015625)"/>
      <path id="TimesNewRomanPSMT-6c" d="M 1184 4444 
L 1184 647 
Q 1184 378 1223 290 
Q 1263 203 1344 158 
Q 1425 113 1647 113 
L 1647 0 
L 244 0 
L 244 113 
Q 441 113 512 153 
Q 584 194 625 287 
Q 666 381 666 647 
L 666 3247 
Q 666 3731 644 3842 
Q 622 3953 573 3993 
Q 525 4034 450 4034 
Q 369 4034 244 3984 
L 191 4094 
L 1044 4444 
L 1184 4444 
z
" transform="scale(0.015625)"/>
      <path id="TimesNewRomanPSMT-28" d="M 1988 -1253 
L 1988 -1369 
Q 1516 -1131 1200 -813 
Q 750 -359 506 256 
Q 263 872 263 1534 
Q 263 2503 741 3301 
Q 1219 4100 1988 4444 
L 1988 4313 
Q 1603 4100 1356 3731 
Q 1109 3363 987 2797 
Q 866 2231 866 1616 
Q 866 947 969 400 
Q 1050 -31 1165 -292 
Q 1281 -553 1476 -793 
Q 1672 -1034 1988 -1253 
z
" transform="scale(0.015625)"/>
      <path id="TimesNewRomanPSMT-2b" d="M 1672 441 
L 1672 2000 
L 116 2000 
L 116 2256 
L 1672 2256 
L 1672 3809 
L 1922 3809 
L 1922 2256 
L 3484 2256 
L 3484 2000 
L 1922 2000 
L 1922 441 
L 1672 441 
z
" transform="scale(0.015625)"/>
      <path id="TimesNewRomanPSMT-2d" d="M 259 1672 
L 1875 1672 
L 1875 1200 
L 259 1200 
L 259 1672 
z
" transform="scale(0.015625)"/>
      <path id="TimesNewRomanPSMT-29" d="M 144 4313 
L 144 4444 
Q 619 4209 934 3891 
Q 1381 3434 1625 2820 
Q 1869 2206 1869 1541 
Q 1869 572 1392 -226 
Q 916 -1025 144 -1369 
L 144 -1253 
Q 528 -1038 776 -670 
Q 1025 -303 1145 264 
Q 1266 831 1266 1447 
Q 1266 2113 1163 2663 
Q 1084 3094 967 3353 
Q 850 3613 656 3853 
Q 463 4094 144 4313 
z
" transform="scale(0.015625)"/>
      <path id="TimesNewRomanPSMT-67" d="M 966 1044 
Q 703 1172 562 1401 
Q 422 1631 422 1909 
Q 422 2334 742 2640 
Q 1063 2947 1563 2947 
Q 1972 2947 2272 2747 
L 2878 2747 
Q 3013 2747 3034 2739 
Q 3056 2731 3066 2713 
Q 3084 2684 3084 2613 
Q 3084 2531 3069 2500 
Q 3059 2484 3036 2475 
Q 3013 2466 2878 2466 
L 2506 2466 
Q 2681 2241 2681 1891 
Q 2681 1491 2375 1206 
Q 2069 922 1553 922 
Q 1341 922 1119 984 
Q 981 866 932 777 
Q 884 688 884 625 
Q 884 572 936 522 
Q 988 472 1138 450 
Q 1225 438 1575 428 
Q 2219 413 2409 384 
Q 2700 344 2873 169 
Q 3047 -6 3047 -263 
Q 3047 -616 2716 -925 
Q 2228 -1381 1444 -1381 
Q 841 -1381 425 -1109 
Q 191 -953 191 -784 
Q 191 -709 225 -634 
Q 278 -519 444 -313 
Q 466 -284 763 25 
Q 600 122 533 198 
Q 466 275 466 372 
Q 466 481 555 628 
Q 644 775 966 1044 
z
M 1509 2797 
Q 1278 2797 1122 2612 
Q 966 2428 966 2047 
Q 966 1553 1178 1281 
Q 1341 1075 1591 1075 
Q 1828 1075 1981 1253 
Q 2134 1431 2134 1813 
Q 2134 2309 1919 2591 
Q 1759 2797 1509 2797 
z
M 934 0 
Q 788 -159 713 -296 
Q 638 -434 638 -550 
Q 638 -700 819 -813 
Q 1131 -1006 1722 -1006 
Q 2284 -1006 2551 -807 
Q 2819 -609 2819 -384 
Q 2819 -222 2659 -153 
Q 2497 -84 2016 -72 
Q 1313 -53 934 0 
z
" transform="scale(0.015625)"/>
      <path id="TimesNewRomanPSMT-6e" d="M 1034 2341 
Q 1538 2947 1994 2947 
Q 2228 2947 2397 2830 
Q 2566 2713 2666 2444 
Q 2734 2256 2734 1869 
L 2734 647 
Q 2734 375 2778 278 
Q 2813 200 2889 156 
Q 2966 113 3172 113 
L 3172 0 
L 1756 0 
L 1756 113 
L 1816 113 
Q 2016 113 2095 173 
Q 2175 234 2206 353 
Q 2219 400 2219 647 
L 2219 1819 
Q 2219 2209 2117 2386 
Q 2016 2563 1775 2563 
Q 1403 2563 1034 2156 
L 1034 647 
Q 1034 356 1069 288 
Q 1113 197 1189 155 
Q 1266 113 1500 113 
L 1500 0 
L 84 0 
L 84 113 
L 147 113 
Q 366 113 442 223 
Q 519 334 519 647 
L 519 1709 
Q 519 2225 495 2337 
Q 472 2450 423 2490 
Q 375 2531 294 2531 
Q 206 2531 84 2484 
L 38 2597 
L 900 2947 
L 1034 2947 
L 1034 2341 
z
" transform="scale(0.015625)"/>
      <path id="TimesNewRomanPSMT-76" d="M 53 2863 
L 1400 2863 
L 1400 2747 
L 1313 2747 
Q 1191 2747 1127 2687 
Q 1063 2628 1063 2528 
Q 1063 2419 1128 2269 
L 1794 688 
L 2463 2328 
Q 2534 2503 2534 2594 
Q 2534 2638 2509 2666 
Q 2475 2713 2422 2730 
Q 2369 2747 2206 2747 
L 2206 2863 
L 3141 2863 
L 3141 2747 
Q 2978 2734 2916 2681 
Q 2806 2588 2719 2369 
L 1703 -88 
L 1575 -88 
L 553 2328 
Q 484 2497 421 2570 
Q 359 2644 263 2694 
Q 209 2722 53 2747 
L 53 2863 
z
" transform="scale(0.015625)"/>
      <path id="TimesNewRomanPSMT-69" d="M 928 4444 
Q 1059 4444 1151 4351 
Q 1244 4259 1244 4128 
Q 1244 3997 1151 3903 
Q 1059 3809 928 3809 
Q 797 3809 703 3903 
Q 609 3997 609 4128 
Q 609 4259 701 4351 
Q 794 4444 928 4444 
z
M 1188 2947 
L 1188 647 
Q 1188 378 1227 289 
Q 1266 200 1342 156 
Q 1419 113 1622 113 
L 1622 0 
L 231 0 
L 231 113 
Q 441 113 512 153 
Q 584 194 626 287 
Q 669 381 669 647 
L 669 1750 
Q 669 2216 641 2353 
Q 619 2453 572 2492 
Q 525 2531 444 2531 
Q 356 2531 231 2484 
L 188 2597 
L 1050 2947 
L 1188 2947 
z
" transform="scale(0.015625)"/>
      <path id="TimesNewRomanPSMT-73" d="M 2050 2947 
L 2050 1972 
L 1947 1972 
Q 1828 2431 1642 2597 
Q 1456 2763 1169 2763 
Q 950 2763 815 2647 
Q 681 2531 681 2391 
Q 681 2216 781 2091 
Q 878 1963 1175 1819 
L 1631 1597 
Q 2266 1288 2266 781 
Q 2266 391 1970 151 
Q 1675 -88 1309 -88 
Q 1047 -88 709 6 
Q 606 38 541 38 
Q 469 38 428 -44 
L 325 -44 
L 325 978 
L 428 978 
Q 516 541 762 319 
Q 1009 97 1316 97 
Q 1531 97 1667 223 
Q 1803 350 1803 528 
Q 1803 744 1651 891 
Q 1500 1038 1047 1263 
Q 594 1488 453 1669 
Q 313 1847 313 2119 
Q 313 2472 555 2709 
Q 797 2947 1181 2947 
Q 1350 2947 1591 2875 
Q 1750 2828 1803 2828 
Q 1853 2828 1881 2850 
Q 1909 2872 1947 2947 
L 2050 2947 
z
" transform="scale(0.015625)"/>
     </defs>
     <use xlink:href="#TimesNewRomanPSMT-41"/>
     <use xlink:href="#TimesNewRomanPSMT-63" transform="translate(72.216797 0)"/>
     <use xlink:href="#TimesNewRomanPSMT-63" transform="translate(116.601562 0)"/>
     <use xlink:href="#TimesNewRomanPSMT-75" transform="translate(160.986328 0)"/>
     <use xlink:href="#TimesNewRomanPSMT-72" transform="translate(210.986328 0)"/>
     <use xlink:href="#TimesNewRomanPSMT-61" transform="translate(244.287109 0)"/>
     <use xlink:href="#TimesNewRomanPSMT-63" transform="translate(288.671875 0)"/>
     <use xlink:href="#TimesNewRomanPSMT-79" transform="translate(333.056641 0)"/>
     <use xlink:href="#TimesNewRomanPSMT-20" transform="translate(383.056641 0)"/>
     <use xlink:href="#TimesNewRomanPSMT-6f" transform="translate(408.056641 0)"/>
     <use xlink:href="#TimesNewRomanPSMT-66" transform="translate(458.056641 0)"/>
     <use xlink:href="#TimesNewRomanPSMT-20" transform="translate(491.357422 0)"/>
     <use xlink:href="#TimesNewRomanPSMT-74" transform="translate(516.357422 0)"/>
     <use xlink:href="#TimesNewRomanPSMT-68" transform="translate(544.140625 0)"/>
     <use xlink:href="#TimesNewRomanPSMT-65" transform="translate(594.140625 0)"/>
     <use xlink:href="#TimesNewRomanPSMT-20" transform="translate(638.525391 0)"/>
     <use xlink:href="#TimesNewRomanPSMT-30" transform="translate(663.525391 0)"/>
     <use xlink:href="#TimesNewRomanPSMT-39" transform="translate(713.525391 0)"/>
     <use xlink:href="#TimesNewRomanPSMT-5f" transform="translate(763.525391 0)"/>
     <use xlink:href="#TimesNewRomanPSMT-30" transform="translate(813.525391 0)"/>
     <use xlink:href="#TimesNewRomanPSMT-37" transform="translate(863.525391 0)"/>
     <use xlink:href="#TimesNewRomanPSMT-5f" transform="translate(913.525391 0)"/>
     <use xlink:href="#TimesNewRomanPSMT-32" transform="translate(963.525391 0)"/>
     <use xlink:href="#TimesNewRomanPSMT-35" transform="translate(1013.525391 0)"/>
     <use xlink:href="#TimesNewRomanPSMT-5f" transform="translate(1063.525391 0)"/>
     <use xlink:href="#TimesNewRomanPSMT-43" transform="translate(1113.525391 0)"/>
     <use xlink:href="#TimesNewRomanPSMT-49" transform="translate(1180.224609 0)"/>
     <use xlink:href="#TimesNewRomanPSMT-4e" transform="translate(1213.525391 0)"/>
     <use xlink:href="#TimesNewRomanPSMT-49" transform="translate(1285.742188 0)"/>
     <use xlink:href="#TimesNewRomanPSMT-43" transform="translate(1319.042969 0)"/>
     <use xlink:href="#TimesNewRomanPSMT-31" transform="translate(1385.742188 0)"/>
     <use xlink:href="#TimesNewRomanPSMT-30" transform="translate(1435.742188 0)"/>
     <use xlink:href="#TimesNewRomanPSMT-5f" transform="translate(1485.742188 0)"/>
     <use xlink:href="#TimesNewRomanPSMT-74" transform="translate(1535.742188 0)"/>
     <use xlink:href="#TimesNewRomanPSMT-6f" transform="translate(1563.525391 0)"/>
     <use xlink:href="#TimesNewRomanPSMT-72" transform="translate(1613.525391 0)"/>
     <use xlink:href="#TimesNewRomanPSMT-63" transform="translate(1646.826172 0)"/>
     <use xlink:href="#TimesNewRomanPSMT-68" transform="translate(1691.210938 0)"/>
     <use xlink:href="#TimesNewRomanPSMT-5f" transform="translate(1741.210938 0)"/>
     <use xlink:href="#TimesNewRomanPSMT-6d" transform="translate(1791.210938 0)"/>
     <use xlink:href="#TimesNewRomanPSMT-6f" transform="translate(1868.994141 0)"/>
     <use xlink:href="#TimesNewRomanPSMT-64" transform="translate(1918.994141 0)"/>
     <use xlink:href="#TimesNewRomanPSMT-65" transform="translate(1968.994141 0)"/>
     <use xlink:href="#TimesNewRomanPSMT-6c" transform="translate(2013.378906 0)"/>
     <use xlink:href="#TimesNewRomanPSMT-5f" transform="translate(2041.162109 0)"/>
     <use xlink:href="#TimesNewRomanPSMT-28" transform="translate(2091.162109 0)"/>
     <use xlink:href="#TimesNewRomanPSMT-31" transform="translate(2124.462891 0)"/>
     <use xlink:href="#TimesNewRomanPSMT-30" transform="translate(2174.462891 0)"/>
     <use xlink:href="#TimesNewRomanPSMT-32" transform="translate(2224.462891 0)"/>
     <use xlink:href="#TimesNewRomanPSMT-34" transform="translate(2274.462891 0)"/>
     <use xlink:href="#TimesNewRomanPSMT-2b" transform="translate(2324.462891 0)"/>
     <use xlink:href="#TimesNewRomanPSMT-38" transform="translate(2380.859375 0)"/>
     <use xlink:href="#TimesNewRomanPSMT-31" transform="translate(2430.859375 0)"/>
     <use xlink:href="#TimesNewRomanPSMT-39" transform="translate(2480.859375 0)"/>
     <use xlink:href="#TimesNewRomanPSMT-32" transform="translate(2530.859375 0)"/>
     <use xlink:href="#TimesNewRomanPSMT-2d" transform="translate(2580.859375 0)"/>
     <use xlink:href="#TimesNewRomanPSMT-38" transform="translate(2614.160156 0)"/>
     <use xlink:href="#TimesNewRomanPSMT-31" transform="translate(2664.160156 0)"/>
     <use xlink:href="#TimesNewRomanPSMT-39" transform="translate(2714.160156 0)"/>
     <use xlink:href="#TimesNewRomanPSMT-32" transform="translate(2764.160156 0)"/>
     <use xlink:href="#TimesNewRomanPSMT-2e" transform="translate(2814.160156 0)"/>
     <use xlink:href="#TimesNewRomanPSMT-32" transform="translate(2839.160156 0)"/>
     <use xlink:href="#TimesNewRomanPSMT-2b" transform="translate(2889.160156 0)"/>
     <use xlink:href="#TimesNewRomanPSMT-31" transform="translate(2945.556641 0)"/>
     <use xlink:href="#TimesNewRomanPSMT-29" transform="translate(2995.556641 0)"/>
     <use xlink:href="#TimesNewRomanPSMT-5f" transform="translate(3028.857422 0)"/>
     <use xlink:href="#TimesNewRomanPSMT-63" transform="translate(3078.857422 0)"/>
     <use xlink:href="#TimesNewRomanPSMT-61" transform="translate(3123.242188 0)"/>
     <use xlink:href="#TimesNewRomanPSMT-74" transform="translate(3167.626953 0)"/>
     <use xlink:href="#TimesNewRomanPSMT-2d" transform="translate(3195.410156 0)"/>
     <use xlink:href="#TimesNewRomanPSMT-64" transform="translate(3228.710938 0)"/>
     <use xlink:href="#TimesNewRomanPSMT-6f" transform="translate(3278.710938 0)"/>
     <use xlink:href="#TimesNewRomanPSMT-67" transform="translate(3328.710938 0)"/>
     <use xlink:href="#TimesNewRomanPSMT-20" transform="translate(3378.710938 0)"/>
     <use xlink:href="#TimesNewRomanPSMT-6f" transform="translate(3403.710938 0)"/>
     <use xlink:href="#TimesNewRomanPSMT-6e" transform="translate(3453.710938 0)"/>
     <use xlink:href="#TimesNewRomanPSMT-20" transform="translate(3503.710938 0)"/>
     <use xlink:href="#TimesNewRomanPSMT-74" transform="translate(3528.710938 0)"/>
     <use xlink:href="#TimesNewRomanPSMT-68" transform="translate(3556.494141 0)"/>
     <use xlink:href="#TimesNewRomanPSMT-65" transform="translate(3606.494141 0)"/>
     <use xlink:href="#TimesNewRomanPSMT-20" transform="translate(3650.878906 0)"/>
     <use xlink:href="#TimesNewRomanPSMT-76" transform="translate(3675.878906 0)"/>
     <use xlink:href="#TimesNewRomanPSMT-61" transform="translate(3725.878906 0)"/>
     <use xlink:href="#TimesNewRomanPSMT-6c" transform="translate(3770.263672 0)"/>
     <use xlink:href="#TimesNewRomanPSMT-69" transform="translate(3798.046875 0)"/>
     <use xlink:href="#TimesNewRomanPSMT-64" transform="translate(3825.830078 0)"/>
     <use xlink:href="#TimesNewRomanPSMT-61" transform="translate(3875.830078 0)"/>
     <use xlink:href="#TimesNewRomanPSMT-74" transform="translate(3920.214844 0)"/>
     <use xlink:href="#TimesNewRomanPSMT-69" transform="translate(3947.998047 0)"/>
     <use xlink:href="#TimesNewRomanPSMT-6f" transform="translate(3975.78125 0)"/>
     <use xlink:href="#TimesNewRomanPSMT-6e" transform="translate(4025.78125 0)"/>
     <use xlink:href="#TimesNewRomanPSMT-20" transform="translate(4075.78125 0)"/>
     <use xlink:href="#TimesNewRomanPSMT-73" transform="translate(4100.78125 0)"/>
     <use xlink:href="#TimesNewRomanPSMT-65" transform="translate(4139.697266 0)"/>
     <use xlink:href="#TimesNewRomanPSMT-74" transform="translate(4184.082031 0)"/>
    </g>
   </g>
   <g id="legend_1">
    <g id="patch_7">
     <path d="M 489.15925 94.278687 
L 726.329563 94.278687 
Q 730.729563 94.278687 730.729563 89.878687 
L 730.729563 60.9315 
Q 730.729563 56.5315 726.329563 56.5315 
L 489.15925 56.5315 
Q 484.75925 56.5315 484.75925 60.9315 
L 484.75925 89.878687 
Q 484.75925 94.278687 489.15925 94.278687 
z
" style="fill: #ffffff; opacity: 0.8; stroke: #cccccc; stroke-linejoin: miter"/>
    </g>
    <g id="line2d_30">
     <path d="M 493.55925 73.0315 
L 515.55925 73.0315 
L 537.55925 73.0315 
" style="fill: none; stroke: #1f77b4; stroke-width: 1.5; stroke-linecap: square"/>
    </g>
    <g id="text_18">
     <!-- Best accuracy 0.62 -->
     <g transform="translate(555.15925 80.7315) scale(0.22 -0.22)">
      <defs>
       <path id="TimesNewRomanPSMT-42" d="M 2956 2163 
Q 3397 2069 3616 1863 
Q 3919 1575 3919 1159 
Q 3919 844 3719 555 
Q 3519 266 3170 133 
Q 2822 0 2106 0 
L 106 0 
L 106 116 
L 266 116 
Q 531 116 647 284 
Q 719 394 719 750 
L 719 3488 
Q 719 3881 628 3984 
Q 506 4122 266 4122 
L 106 4122 
L 106 4238 
L 1938 4238 
Q 2450 4238 2759 4163 
Q 3228 4050 3475 3764 
Q 3722 3478 3722 3106 
Q 3722 2788 3528 2536 
Q 3334 2284 2956 2163 
z
M 1319 2331 
Q 1434 2309 1582 2298 
Q 1731 2288 1909 2288 
Q 2366 2288 2595 2386 
Q 2825 2484 2947 2687 
Q 3069 2891 3069 3131 
Q 3069 3503 2766 3765 
Q 2463 4028 1881 4028 
Q 1569 4028 1319 3959 
L 1319 2331 
z
M 1319 306 
Q 1681 222 2034 222 
Q 2600 222 2897 476 
Q 3194 731 3194 1106 
Q 3194 1353 3059 1581 
Q 2925 1809 2622 1940 
Q 2319 2072 1872 2072 
Q 1678 2072 1540 2065 
Q 1403 2059 1319 2044 
L 1319 306 
z
" transform="scale(0.015625)"/>
      </defs>
      <use xlink:href="#TimesNewRomanPSMT-42"/>
      <use xlink:href="#TimesNewRomanPSMT-65" transform="translate(66.699219 0)"/>
      <use xlink:href="#TimesNewRomanPSMT-73" transform="translate(111.083984 0)"/>
      <use xlink:href="#TimesNewRomanPSMT-74" transform="translate(150 0)"/>
      <use xlink:href="#TimesNewRomanPSMT-20" transform="translate(177.783203 0)"/>
      <use xlink:href="#TimesNewRomanPSMT-61" transform="translate(202.783203 0)"/>
      <use xlink:href="#TimesNewRomanPSMT-63" transform="translate(247.167969 0)"/>
      <use xlink:href="#TimesNewRomanPSMT-63" transform="translate(291.552734 0)"/>
      <use xlink:href="#TimesNewRomanPSMT-75" transform="translate(335.9375 0)"/>
      <use xlink:href="#TimesNewRomanPSMT-72" transform="translate(385.9375 0)"/>
      <use xlink:href="#TimesNewRomanPSMT-61" transform="translate(419.238281 0)"/>
      <use xlink:href="#TimesNewRomanPSMT-63" transform="translate(463.623047 0)"/>
      <use xlink:href="#TimesNewRomanPSMT-79" transform="translate(508.007812 0)"/>
      <use xlink:href="#TimesNewRomanPSMT-20" transform="translate(558.007812 0)"/>
      <use xlink:href="#TimesNewRomanPSMT-30" transform="translate(583.007812 0)"/>
      <use xlink:href="#TimesNewRomanPSMT-2e" transform="translate(633.007812 0)"/>
      <use xlink:href="#TimesNewRomanPSMT-36" transform="translate(658.007812 0)"/>
      <use xlink:href="#TimesNewRomanPSMT-32" transform="translate(708.007812 0)"/>
     </g>
    </g>
   </g>
  </g>
 </g>
 <defs>
  <clipPath id="p1567259577">
   <rect x="384.609563" y="45.5315" width="357.12" height="266.112"/>
  </clipPath>
 </defs>
</svg>
