<?xml version="1.0" encoding="utf-8" standalone="no"?>
<!DOCTYPE svg PUBLIC "-//W3C//DTD SVG 1.1//EN"
  "http://www.w3.org/Graphics/SVG/1.1/DTD/svg11.dtd">
<svg xmlns:xlink="http://www.w3.org/1999/xlink" width="824.77275pt" height="383.265687pt" viewBox="0 0 824.77275 383.265687" xmlns="http://www.w3.org/2000/svg" version="1.1">
 <metadata>
  <rdf:RDF xmlns:dc="http://purl.org/dc/elements/1.1/" xmlns:cc="http://creativecommons.org/ns#" xmlns:rdf="http://www.w3.org/1999/02/22-rdf-syntax-ns#">
   <cc:Work>
    <dc:type rdf:resource="http://purl.org/dc/dcmitype/StillImage"/>
    <dc:date>2025-05-07T14:01:13.424035</dc:date>
    <dc:format>image/svg+xml</dc:format>
    <dc:creator>
     <cc:Agent>
      <dc:title>Matplotlib v3.10.1, https://matplotlib.org/</dc:title>
     </cc:Agent>
    </dc:creator>
   </cc:Work>
  </rdf:RDF>
 </metadata>
 <defs>
  <style type="text/css">*{stroke-linejoin: round; stroke-linecap: butt}</style>
 </defs>
 <g id="figure_1">
  <g id="patch_1">
   <path d="M 0 383.265687 
L 824.77275 383.265687 
L 824.77275 0 
L 0 0 
z
" style="fill: #ffffff"/>
  </g>
  <g id="axes_1">
   <g id="patch_2">
    <path d="M 233.826375 311.6435 
L 590.946375 311.6435 
L 590.946375 45.5315 
L 233.826375 45.5315 
z
" style="fill: #ffffff"/>
   </g>
   <g id="matplotlib.axis_1">
    <g id="xtick_1">
     <g id="line2d_1">
      <path d="M 233.826375 311.6435 
L 233.826375 45.5315 
" clip-path="url(#p106f278a13)" style="fill: none; stroke: #b0b0b0; stroke-opacity: 0.3; stroke-width: 0.8; stroke-linecap: square"/>
     </g>
     <g id="line2d_2">
      <defs>
       <path id="mb5ff8e7955" d="M 0 0 
L 0 3.5 
" style="stroke: #000000; stroke-width: 0.8"/>
      </defs>
      <g>
       <use xlink:href="#mb5ff8e7955" x="233.826375" y="311.6435" style="stroke: #000000; stroke-width: 0.8"/>
      </g>
     </g>
     <g id="text_1">
      <!-- 0.0 -->
      <g transform="translate(220.076375 333.91975) scale(0.22 -0.22)">
       <defs>
        <path id="TimesNewRomanPSMT-30" d="M 231 2094 
Q 231 2819 450 3342 
Q 669 3866 1031 4122 
Q 1313 4325 1613 4325 
Q 2100 4325 2488 3828 
Q 2972 3213 2972 2159 
Q 2972 1422 2759 906 
Q 2547 391 2217 158 
Q 1888 -75 1581 -75 
Q 975 -75 572 641 
Q 231 1244 231 2094 
z
M 844 2016 
Q 844 1141 1059 588 
Q 1238 122 1591 122 
Q 1759 122 1940 273 
Q 2122 425 2216 781 
Q 2359 1319 2359 2297 
Q 2359 3022 2209 3506 
Q 2097 3866 1919 4016 
Q 1791 4119 1609 4119 
Q 1397 4119 1231 3928 
Q 1006 3669 925 3112 
Q 844 2556 844 2016 
z
" transform="scale(0.015625)"/>
        <path id="TimesNewRomanPSMT-2e" d="M 800 606 
Q 947 606 1047 504 
Q 1147 403 1147 259 
Q 1147 116 1045 14 
Q 944 -88 800 -88 
Q 656 -88 554 14 
Q 453 116 453 259 
Q 453 406 554 506 
Q 656 606 800 606 
z
" transform="scale(0.015625)"/>
       </defs>
       <use xlink:href="#TimesNewRomanPSMT-30"/>
       <use xlink:href="#TimesNewRomanPSMT-2e" transform="translate(50 0)"/>
       <use xlink:href="#TimesNewRomanPSMT-30" transform="translate(75 0)"/>
      </g>
     </g>
    </g>
    <g id="xtick_2">
     <g id="line2d_3">
      <path d="M 350.103494 311.6435 
L 350.103494 45.5315 
" clip-path="url(#p106f278a13)" style="fill: none; stroke: #b0b0b0; stroke-opacity: 0.3; stroke-width: 0.8; stroke-linecap: square"/>
     </g>
     <g id="line2d_4">
      <g>
       <use xlink:href="#mb5ff8e7955" x="350.103494" y="311.6435" style="stroke: #000000; stroke-width: 0.8"/>
      </g>
     </g>
     <g id="text_2">
      <!-- 0.5 -->
      <g transform="translate(336.353494 333.91975) scale(0.22 -0.22)">
       <defs>
        <path id="TimesNewRomanPSMT-35" d="M 2778 4238 
L 2534 3706 
L 1259 3706 
L 981 3138 
Q 1809 3016 2294 2522 
Q 2709 2097 2709 1522 
Q 2709 1188 2573 903 
Q 2438 619 2231 419 
Q 2025 219 1772 97 
Q 1413 -75 1034 -75 
Q 653 -75 479 54 
Q 306 184 306 341 
Q 306 428 378 495 
Q 450 563 559 563 
Q 641 563 702 538 
Q 763 513 909 409 
Q 1144 247 1384 247 
Q 1750 247 2026 523 
Q 2303 800 2303 1197 
Q 2303 1581 2056 1914 
Q 1809 2247 1375 2428 
Q 1034 2569 447 2591 
L 1259 4238 
L 2778 4238 
z
" transform="scale(0.015625)"/>
       </defs>
       <use xlink:href="#TimesNewRomanPSMT-30"/>
       <use xlink:href="#TimesNewRomanPSMT-2e" transform="translate(50 0)"/>
       <use xlink:href="#TimesNewRomanPSMT-35" transform="translate(75 0)"/>
      </g>
     </g>
    </g>
    <g id="xtick_3">
     <g id="line2d_5">
      <path d="M 466.380614 311.6435 
L 466.380614 45.5315 
" clip-path="url(#p106f278a13)" style="fill: none; stroke: #b0b0b0; stroke-opacity: 0.3; stroke-width: 0.8; stroke-linecap: square"/>
     </g>
     <g id="line2d_6">
      <g>
       <use xlink:href="#mb5ff8e7955" x="466.380614" y="311.6435" style="stroke: #000000; stroke-width: 0.8"/>
      </g>
     </g>
     <g id="text_3">
      <!-- 1.0 -->
      <g transform="translate(452.630614 333.91975) scale(0.22 -0.22)">
       <defs>
        <path id="TimesNewRomanPSMT-31" d="M 750 3822 
L 1781 4325 
L 1884 4325 
L 1884 747 
Q 1884 391 1914 303 
Q 1944 216 2037 169 
Q 2131 122 2419 116 
L 2419 0 
L 825 0 
L 825 116 
Q 1125 122 1212 167 
Q 1300 213 1334 289 
Q 1369 366 1369 747 
L 1369 3034 
Q 1369 3497 1338 3628 
Q 1316 3728 1258 3775 
Q 1200 3822 1119 3822 
Q 1003 3822 797 3725 
L 750 3822 
z
" transform="scale(0.015625)"/>
       </defs>
       <use xlink:href="#TimesNewRomanPSMT-31"/>
       <use xlink:href="#TimesNewRomanPSMT-2e" transform="translate(50 0)"/>
       <use xlink:href="#TimesNewRomanPSMT-30" transform="translate(75 0)"/>
      </g>
     </g>
    </g>
    <g id="xtick_4">
     <g id="line2d_7">
      <path d="M 582.657733 311.6435 
L 582.657733 45.5315 
" clip-path="url(#p106f278a13)" style="fill: none; stroke: #b0b0b0; stroke-opacity: 0.3; stroke-width: 0.8; stroke-linecap: square"/>
     </g>
     <g id="line2d_8">
      <g>
       <use xlink:href="#mb5ff8e7955" x="582.657733" y="311.6435" style="stroke: #000000; stroke-width: 0.8"/>
      </g>
     </g>
     <g id="text_4">
      <!-- 1.5 -->
      <g transform="translate(568.907733 333.91975) scale(0.22 -0.22)">
       <use xlink:href="#TimesNewRomanPSMT-31"/>
       <use xlink:href="#TimesNewRomanPSMT-2e" transform="translate(50 0)"/>
       <use xlink:href="#TimesNewRomanPSMT-35" transform="translate(75 0)"/>
      </g>
     </g>
    </g>
    <g id="text_5">
     <!-- $\kappa  = \frac{ln(n)}{ln(d)}$ -->
     <g transform="translate(380.376375 364.185687) scale(0.22 -0.22)">
      <defs>
       <path id="STIXGeneral-Italic-3ba" d="M 979 1440 
L 998 1446 
Q 1850 2541 2464 2790 
Q 2547 2822 2630 2822 
Q 2797 2822 2886 2736 
Q 2976 2650 2976 2522 
Q 2976 2387 2893 2307 
Q 2810 2227 2682 2227 
Q 2605 2227 2502 2288 
Q 2400 2349 2336 2349 
Q 2170 2349 1990 2205 
Q 1811 2061 1414 1645 
L 2042 544 
Q 2202 262 2310 182 
Q 2419 102 2624 102 
L 2624 0 
Q 2374 -83 2182 -83 
Q 1786 -83 1555 326 
L 960 1350 
L 576 0 
L 90 0 
L 640 1978 
Q 730 2317 730 2406 
Q 730 2560 518 2560 
L 339 2560 
L 339 2650 
Q 678 2694 1306 2822 
L 1325 2803 
L 979 1440 
z
" transform="scale(0.015625)"/>
       <path id="STIXGeneral-Regular-3d" d="M 4077 2048 
L 307 2048 
L 307 2470 
L 4077 2470 
L 4077 2048 
z
M 4077 768 
L 307 768 
L 307 1190 
L 4077 1190 
L 4077 768 
z
" transform="scale(0.015625)"/>
       <path id="STIXGeneral-Italic-6c" d="M 1786 4339 
L 806 595 
Q 755 410 755 320 
Q 755 205 864 205 
Q 1037 205 1293 570 
L 1453 794 
L 1542 730 
Q 1254 275 1046 102 
Q 838 -70 576 -70 
Q 262 -70 262 288 
Q 262 397 288 480 
L 1165 3834 
Q 1184 3898 1184 3955 
Q 1184 4096 870 4096 
L 755 4096 
L 755 4198 
Q 1203 4250 1747 4371 
L 1786 4339 
z
" transform="scale(0.015625)"/>
       <path id="STIXGeneral-Italic-6e" d="M 2944 749 
L 3034 666 
Q 2707 218 2534 80 
Q 2362 -58 2138 -58 
Q 2010 -58 1923 28 
Q 1837 115 1837 288 
Q 1837 390 1939 768 
L 2221 1805 
Q 2310 2150 2310 2310 
Q 2310 2496 2157 2496 
Q 1971 2496 1750 2275 
Q 1530 2054 1210 1587 
Q 998 1274 899 1024 
Q 800 774 570 0 
L 90 0 
L 704 2240 
Q 717 2304 717 2349 
Q 717 2445 630 2480 
Q 544 2515 301 2522 
L 301 2624 
Q 550 2675 857 2729 
Q 1165 2784 1338 2822 
L 1363 2810 
L 934 1414 
Q 1408 2170 1753 2496 
Q 2099 2822 2413 2822 
Q 2611 2822 2720 2716 
Q 2829 2611 2829 2432 
Q 2829 2272 2765 2048 
L 2406 749 
Q 2317 429 2317 358 
Q 2317 243 2419 243 
Q 2541 243 2810 582 
Q 2854 634 2944 749 
z
" transform="scale(0.015625)"/>
       <path id="STIXGeneral-Regular-28" d="M 1946 -1030 
L 1869 -1133 
Q 1126 -710 716 32 
Q 307 774 307 1613 
Q 307 3386 1888 4326 
L 1946 4224 
Q 1293 3667 1075 3126 
Q 858 2586 858 1632 
Q 858 685 1082 96 
Q 1306 -493 1946 -1030 
z
" transform="scale(0.015625)"/>
       <path id="STIXGeneral-Regular-29" d="M 186 4224 
L 262 4326 
Q 992 3891 1408 3148 
Q 1824 2406 1824 1581 
Q 1824 -166 243 -1133 
L 186 -1030 
Q 845 -486 1059 54 
Q 1274 595 1274 1562 
Q 1274 2534 1059 3120 
Q 845 3706 186 4224 
z
" transform="scale(0.015625)"/>
       <path id="STIXGeneral-Italic-64" d="M 3334 4371 
L 3373 4333 
L 3123 3360 
L 2739 1958 
Q 2323 429 2323 384 
Q 2323 256 2438 256 
Q 2522 256 2614 336 
Q 2707 416 2963 710 
L 3040 646 
Q 2547 -83 2099 -83 
Q 1978 -83 1907 -6 
Q 1837 70 1837 205 
Q 1837 397 1920 774 
Q 1645 307 1379 118 
Q 1114 -70 781 -70 
Q 461 -70 278 125 
Q 96 320 96 678 
Q 96 1440 713 2131 
Q 1331 2822 1965 2822 
Q 2163 2822 2256 2732 
Q 2349 2643 2381 2451 
L 2387 2451 
L 2675 3494 
Q 2765 3808 2765 3949 
Q 2765 4051 2694 4076 
Q 2624 4102 2355 4115 
L 2355 4224 
Q 2848 4269 3334 4371 
z
M 2278 2310 
Q 2278 2477 2185 2576 
Q 2093 2675 1978 2675 
Q 1677 2675 1395 2381 
Q 1075 2042 864 1571 
Q 653 1101 653 704 
Q 653 486 752 361 
Q 851 237 1024 237 
Q 1312 237 1606 550 
Q 1901 864 2089 1350 
Q 2278 1837 2278 2310 
z
" transform="scale(0.015625)"/>
      </defs>
      <use xlink:href="#STIXGeneral-Italic-3ba" transform="translate(0 0.003125)"/>
      <use xlink:href="#STIXGeneral-Regular-3d" transform="translate(58.83999 0.003125)"/>
      <use xlink:href="#STIXGeneral-Italic-6c" transform="translate(141.779971 50.192188) scale(0.7)"/>
      <use xlink:href="#STIXGeneral-Italic-6e" transform="translate(161.239963 50.192188) scale(0.7)"/>
      <use xlink:href="#STIXGeneral-Regular-28" transform="translate(196.239952 50.192188) scale(0.7)"/>
      <use xlink:href="#STIXGeneral-Italic-6e" transform="translate(219.549944 50.192188) scale(0.7)"/>
      <use xlink:href="#STIXGeneral-Regular-29" transform="translate(254.549933 50.192188) scale(0.7)"/>
      <use xlink:href="#STIXGeneral-Italic-6c" transform="translate(141.779971 -41.257812) scale(0.7)"/>
      <use xlink:href="#STIXGeneral-Italic-6e" transform="translate(161.239963 -41.257812) scale(0.7)"/>
      <use xlink:href="#STIXGeneral-Regular-28" transform="translate(196.239952 -41.257812) scale(0.7)"/>
      <use xlink:href="#STIXGeneral-Italic-64" transform="translate(219.549944 -41.257812) scale(0.7)"/>
      <use xlink:href="#STIXGeneral-Regular-29" transform="translate(254.549933 -41.257812) scale(0.7)"/>
      <path d="M 141.779971 12.8 
L 141.779971 19.05 
L 277.859924 19.05 
L 277.859924 12.8 
L 141.779971 12.8 
z
"/>
     </g>
    </g>
   </g>
   <g id="matplotlib.axis_2">
    <g id="ytick_1">
     <g id="line2d_9">
      <path d="M 233.826375 311.6435 
L 590.946375 311.6435 
" clip-path="url(#p106f278a13)" style="fill: none; stroke: #b0b0b0; stroke-opacity: 0.3; stroke-width: 0.8; stroke-linecap: square"/>
     </g>
     <g id="line2d_10">
      <defs>
       <path id="mcb3c6f6581" d="M 0 0 
L -3.5 0 
" style="stroke: #000000; stroke-width: 0.8"/>
      </defs>
      <g>
       <use xlink:href="#mcb3c6f6581" x="233.826375" y="311.6435" style="stroke: #000000; stroke-width: 0.8"/>
      </g>
     </g>
     <g id="text_6">
      <!-- 0.0 -->
      <g transform="translate(199.326375 319.281625) scale(0.22 -0.22)">
       <use xlink:href="#TimesNewRomanPSMT-30"/>
       <use xlink:href="#TimesNewRomanPSMT-2e" transform="translate(50 0)"/>
       <use xlink:href="#TimesNewRomanPSMT-30" transform="translate(75 0)"/>
      </g>
     </g>
    </g>
    <g id="ytick_2">
     <g id="line2d_11">
      <path d="M 233.826375 285.0323 
L 590.946375 285.0323 
" clip-path="url(#p106f278a13)" style="fill: none; stroke: #b0b0b0; stroke-opacity: 0.3; stroke-width: 0.8; stroke-linecap: square"/>
     </g>
     <g id="line2d_12">
      <g>
       <use xlink:href="#mcb3c6f6581" x="233.826375" y="285.0323" style="stroke: #000000; stroke-width: 0.8"/>
      </g>
     </g>
     <g id="text_7">
      <!-- 0.1 -->
      <g transform="translate(199.326375 292.670425) scale(0.22 -0.22)">
       <use xlink:href="#TimesNewRomanPSMT-30"/>
       <use xlink:href="#TimesNewRomanPSMT-2e" transform="translate(50 0)"/>
       <use xlink:href="#TimesNewRomanPSMT-31" transform="translate(75 0)"/>
      </g>
     </g>
    </g>
    <g id="ytick_3">
     <g id="line2d_13">
      <path d="M 233.826375 258.4211 
L 590.946375 258.4211 
" clip-path="url(#p106f278a13)" style="fill: none; stroke: #b0b0b0; stroke-opacity: 0.3; stroke-width: 0.8; stroke-linecap: square"/>
     </g>
     <g id="line2d_14">
      <g>
       <use xlink:href="#mcb3c6f6581" x="233.826375" y="258.4211" style="stroke: #000000; stroke-width: 0.8"/>
      </g>
     </g>
     <g id="text_8">
      <!-- 0.2 -->
      <g transform="translate(199.326375 266.059225) scale(0.22 -0.22)">
       <defs>
        <path id="TimesNewRomanPSMT-32" d="M 2934 816 
L 2638 0 
L 138 0 
L 138 116 
Q 1241 1122 1691 1759 
Q 2141 2397 2141 2925 
Q 2141 3328 1894 3587 
Q 1647 3847 1303 3847 
Q 991 3847 742 3664 
Q 494 3481 375 3128 
L 259 3128 
Q 338 3706 661 4015 
Q 984 4325 1469 4325 
Q 1984 4325 2329 3994 
Q 2675 3663 2675 3213 
Q 2675 2891 2525 2569 
Q 2294 2063 1775 1497 
Q 997 647 803 472 
L 1909 472 
Q 2247 472 2383 497 
Q 2519 522 2628 598 
Q 2738 675 2819 816 
L 2934 816 
z
" transform="scale(0.015625)"/>
       </defs>
       <use xlink:href="#TimesNewRomanPSMT-30"/>
       <use xlink:href="#TimesNewRomanPSMT-2e" transform="translate(50 0)"/>
       <use xlink:href="#TimesNewRomanPSMT-32" transform="translate(75 0)"/>
      </g>
     </g>
    </g>
    <g id="ytick_4">
     <g id="line2d_15">
      <path d="M 233.826375 231.8099 
L 590.946375 231.8099 
" clip-path="url(#p106f278a13)" style="fill: none; stroke: #b0b0b0; stroke-opacity: 0.3; stroke-width: 0.8; stroke-linecap: square"/>
     </g>
     <g id="line2d_16">
      <g>
       <use xlink:href="#mcb3c6f6581" x="233.826375" y="231.8099" style="stroke: #000000; stroke-width: 0.8"/>
      </g>
     </g>
     <g id="text_9">
      <!-- 0.3 -->
      <g transform="translate(199.326375 239.448025) scale(0.22 -0.22)">
       <defs>
        <path id="TimesNewRomanPSMT-33" d="M 325 3431 
Q 506 3859 782 4092 
Q 1059 4325 1472 4325 
Q 1981 4325 2253 3994 
Q 2459 3747 2459 3466 
Q 2459 3003 1878 2509 
Q 2269 2356 2469 2072 
Q 2669 1788 2669 1403 
Q 2669 853 2319 450 
Q 1863 -75 997 -75 
Q 569 -75 414 31 
Q 259 138 259 259 
Q 259 350 332 419 
Q 406 488 509 488 
Q 588 488 669 463 
Q 722 447 909 348 
Q 1097 250 1169 231 
Q 1284 197 1416 197 
Q 1734 197 1970 444 
Q 2206 691 2206 1028 
Q 2206 1275 2097 1509 
Q 2016 1684 1919 1775 
Q 1784 1900 1550 2001 
Q 1316 2103 1072 2103 
L 972 2103 
L 972 2197 
Q 1219 2228 1467 2375 
Q 1716 2522 1828 2728 
Q 1941 2934 1941 3181 
Q 1941 3503 1739 3701 
Q 1538 3900 1238 3900 
Q 753 3900 428 3381 
L 325 3431 
z
" transform="scale(0.015625)"/>
       </defs>
       <use xlink:href="#TimesNewRomanPSMT-30"/>
       <use xlink:href="#TimesNewRomanPSMT-2e" transform="translate(50 0)"/>
       <use xlink:href="#TimesNewRomanPSMT-33" transform="translate(75 0)"/>
      </g>
     </g>
    </g>
    <g id="ytick_5">
     <g id="line2d_17">
      <path d="M 233.826375 205.1987 
L 590.946375 205.1987 
" clip-path="url(#p106f278a13)" style="fill: none; stroke: #b0b0b0; stroke-opacity: 0.3; stroke-width: 0.8; stroke-linecap: square"/>
     </g>
     <g id="line2d_18">
      <g>
       <use xlink:href="#mcb3c6f6581" x="233.826375" y="205.1987" style="stroke: #000000; stroke-width: 0.8"/>
      </g>
     </g>
     <g id="text_10">
      <!-- 0.4 -->
      <g transform="translate(199.326375 212.836825) scale(0.22 -0.22)">
       <defs>
        <path id="TimesNewRomanPSMT-34" d="M 2978 1563 
L 2978 1119 
L 2409 1119 
L 2409 0 
L 1894 0 
L 1894 1119 
L 100 1119 
L 100 1519 
L 2066 4325 
L 2409 4325 
L 2409 1563 
L 2978 1563 
z
M 1894 1563 
L 1894 3666 
L 406 1563 
L 1894 1563 
z
" transform="scale(0.015625)"/>
       </defs>
       <use xlink:href="#TimesNewRomanPSMT-30"/>
       <use xlink:href="#TimesNewRomanPSMT-2e" transform="translate(50 0)"/>
       <use xlink:href="#TimesNewRomanPSMT-34" transform="translate(75 0)"/>
      </g>
     </g>
    </g>
    <g id="ytick_6">
     <g id="line2d_19">
      <path d="M 233.826375 178.5875 
L 590.946375 178.5875 
" clip-path="url(#p106f278a13)" style="fill: none; stroke: #b0b0b0; stroke-opacity: 0.3; stroke-width: 0.8; stroke-linecap: square"/>
     </g>
     <g id="line2d_20">
      <g>
       <use xlink:href="#mcb3c6f6581" x="233.826375" y="178.5875" style="stroke: #000000; stroke-width: 0.8"/>
      </g>
     </g>
     <g id="text_11">
      <!-- 0.5 -->
      <g transform="translate(199.326375 186.225625) scale(0.22 -0.22)">
       <use xlink:href="#TimesNewRomanPSMT-30"/>
       <use xlink:href="#TimesNewRomanPSMT-2e" transform="translate(50 0)"/>
       <use xlink:href="#TimesNewRomanPSMT-35" transform="translate(75 0)"/>
      </g>
     </g>
    </g>
    <g id="ytick_7">
     <g id="line2d_21">
      <path d="M 233.826375 151.9763 
L 590.946375 151.9763 
" clip-path="url(#p106f278a13)" style="fill: none; stroke: #b0b0b0; stroke-opacity: 0.3; stroke-width: 0.8; stroke-linecap: square"/>
     </g>
     <g id="line2d_22">
      <g>
       <use xlink:href="#mcb3c6f6581" x="233.826375" y="151.9763" style="stroke: #000000; stroke-width: 0.8"/>
      </g>
     </g>
     <g id="text_12">
      <!-- 0.6 -->
      <g transform="translate(199.326375 159.614425) scale(0.22 -0.22)">
       <defs>
        <path id="TimesNewRomanPSMT-36" d="M 2869 4325 
L 2869 4209 
Q 2456 4169 2195 4045 
Q 1934 3922 1679 3669 
Q 1425 3416 1258 3105 
Q 1091 2794 978 2366 
Q 1428 2675 1881 2675 
Q 2316 2675 2634 2325 
Q 2953 1975 2953 1425 
Q 2953 894 2631 456 
Q 2244 -75 1606 -75 
Q 1172 -75 869 213 
Q 275 772 275 1663 
Q 275 2231 503 2743 
Q 731 3256 1154 3653 
Q 1578 4050 1965 4187 
Q 2353 4325 2688 4325 
L 2869 4325 
z
M 925 2138 
Q 869 1716 869 1456 
Q 869 1156 980 804 
Q 1091 453 1309 247 
Q 1469 100 1697 100 
Q 1969 100 2183 356 
Q 2397 613 2397 1088 
Q 2397 1622 2184 2012 
Q 1972 2403 1581 2403 
Q 1463 2403 1327 2353 
Q 1191 2303 925 2138 
z
" transform="scale(0.015625)"/>
       </defs>
       <use xlink:href="#TimesNewRomanPSMT-30"/>
       <use xlink:href="#TimesNewRomanPSMT-2e" transform="translate(50 0)"/>
       <use xlink:href="#TimesNewRomanPSMT-36" transform="translate(75 0)"/>
      </g>
     </g>
    </g>
    <g id="ytick_8">
     <g id="line2d_23">
      <path d="M 233.826375 125.3651 
L 590.946375 125.3651 
" clip-path="url(#p106f278a13)" style="fill: none; stroke: #b0b0b0; stroke-opacity: 0.3; stroke-width: 0.8; stroke-linecap: square"/>
     </g>
     <g id="line2d_24">
      <g>
       <use xlink:href="#mcb3c6f6581" x="233.826375" y="125.3651" style="stroke: #000000; stroke-width: 0.8"/>
      </g>
     </g>
     <g id="text_13">
      <!-- 0.7 -->
      <g transform="translate(199.326375 133.003225) scale(0.22 -0.22)">
       <defs>
        <path id="TimesNewRomanPSMT-37" d="M 644 4238 
L 2916 4238 
L 2916 4119 
L 1503 -88 
L 1153 -88 
L 2419 3728 
L 1253 3728 
Q 900 3728 750 3644 
Q 488 3500 328 3200 
L 238 3234 
L 644 4238 
z
" transform="scale(0.015625)"/>
       </defs>
       <use xlink:href="#TimesNewRomanPSMT-30"/>
       <use xlink:href="#TimesNewRomanPSMT-2e" transform="translate(50 0)"/>
       <use xlink:href="#TimesNewRomanPSMT-37" transform="translate(75 0)"/>
      </g>
     </g>
    </g>
    <g id="ytick_9">
     <g id="line2d_25">
      <path d="M 233.826375 98.7539 
L 590.946375 98.7539 
" clip-path="url(#p106f278a13)" style="fill: none; stroke: #b0b0b0; stroke-opacity: 0.3; stroke-width: 0.8; stroke-linecap: square"/>
     </g>
     <g id="line2d_26">
      <g>
       <use xlink:href="#mcb3c6f6581" x="233.826375" y="98.7539" style="stroke: #000000; stroke-width: 0.8"/>
      </g>
     </g>
     <g id="text_14">
      <!-- 0.8 -->
      <g transform="translate(199.326375 106.392025) scale(0.22 -0.22)">
       <defs>
        <path id="TimesNewRomanPSMT-38" d="M 1228 2134 
Q 725 2547 579 2797 
Q 434 3047 434 3316 
Q 434 3728 753 4026 
Q 1072 4325 1600 4325 
Q 2113 4325 2425 4047 
Q 2738 3769 2738 3413 
Q 2738 3175 2569 2928 
Q 2400 2681 1866 2347 
Q 2416 1922 2594 1678 
Q 2831 1359 2831 1006 
Q 2831 559 2490 242 
Q 2150 -75 1597 -75 
Q 994 -75 656 303 
Q 388 606 388 966 
Q 388 1247 577 1523 
Q 766 1800 1228 2134 
z
M 1719 2469 
Q 2094 2806 2194 3001 
Q 2294 3197 2294 3444 
Q 2294 3772 2109 3958 
Q 1925 4144 1606 4144 
Q 1288 4144 1088 3959 
Q 888 3775 888 3528 
Q 888 3366 970 3203 
Q 1053 3041 1206 2894 
L 1719 2469 
z
M 1375 2016 
Q 1116 1797 991 1539 
Q 866 1281 866 981 
Q 866 578 1086 336 
Q 1306 94 1647 94 
Q 1984 94 2187 284 
Q 2391 475 2391 747 
Q 2391 972 2272 1150 
Q 2050 1481 1375 2016 
z
" transform="scale(0.015625)"/>
       </defs>
       <use xlink:href="#TimesNewRomanPSMT-30"/>
       <use xlink:href="#TimesNewRomanPSMT-2e" transform="translate(50 0)"/>
       <use xlink:href="#TimesNewRomanPSMT-38" transform="translate(75 0)"/>
      </g>
     </g>
    </g>
    <g id="ytick_10">
     <g id="line2d_27">
      <path d="M 233.826375 72.1427 
L 590.946375 72.1427 
" clip-path="url(#p106f278a13)" style="fill: none; stroke: #b0b0b0; stroke-opacity: 0.3; stroke-width: 0.8; stroke-linecap: square"/>
     </g>
     <g id="line2d_28">
      <g>
       <use xlink:href="#mcb3c6f6581" x="233.826375" y="72.1427" style="stroke: #000000; stroke-width: 0.8"/>
      </g>
     </g>
     <g id="text_15">
      <!-- 0.9 -->
      <g transform="translate(199.326375 79.780825) scale(0.22 -0.22)">
       <defs>
        <path id="TimesNewRomanPSMT-39" d="M 338 -88 
L 338 28 
Q 744 34 1094 217 
Q 1444 400 1770 856 
Q 2097 1313 2225 1859 
Q 1734 1544 1338 1544 
Q 891 1544 572 1889 
Q 253 2234 253 2806 
Q 253 3363 572 3797 
Q 956 4325 1575 4325 
Q 2097 4325 2469 3894 
Q 2925 3359 2925 2575 
Q 2925 1869 2578 1258 
Q 2231 647 1613 244 
Q 1109 -88 516 -88 
L 338 -88 
z
M 2275 2091 
Q 2331 2497 2331 2741 
Q 2331 3044 2228 3395 
Q 2125 3747 1936 3934 
Q 1747 4122 1506 4122 
Q 1228 4122 1018 3872 
Q 809 3622 809 3128 
Q 809 2469 1088 2097 
Q 1291 1828 1588 1828 
Q 1731 1828 1928 1897 
Q 2125 1966 2275 2091 
z
" transform="scale(0.015625)"/>
       </defs>
       <use xlink:href="#TimesNewRomanPSMT-30"/>
       <use xlink:href="#TimesNewRomanPSMT-2e" transform="translate(50 0)"/>
       <use xlink:href="#TimesNewRomanPSMT-39" transform="translate(75 0)"/>
      </g>
     </g>
    </g>
    <g id="ytick_11">
     <g id="line2d_29">
      <path d="M 233.826375 45.5315 
L 590.946375 45.5315 
" clip-path="url(#p106f278a13)" style="fill: none; stroke: #b0b0b0; stroke-opacity: 0.3; stroke-width: 0.8; stroke-linecap: square"/>
     </g>
     <g id="line2d_30">
      <g>
       <use xlink:href="#mcb3c6f6581" x="233.826375" y="45.5315" style="stroke: #000000; stroke-width: 0.8"/>
      </g>
     </g>
     <g id="text_16">
      <!-- 1.0 -->
      <g transform="translate(199.326375 53.169625) scale(0.22 -0.22)">
       <use xlink:href="#TimesNewRomanPSMT-31"/>
       <use xlink:href="#TimesNewRomanPSMT-2e" transform="translate(50 0)"/>
       <use xlink:href="#TimesNewRomanPSMT-30" transform="translate(75 0)"/>
      </g>
     </g>
    </g>
    <g id="text_17">
     <!-- Accuracy -->
     <g transform="translate(190.579188 220.726094) rotate(-90) scale(0.22 -0.22)">
      <defs>
       <path id="TimesNewRomanPSMT-41" d="M 2928 1419 
L 1288 1419 
L 1000 750 
Q 894 503 894 381 
Q 894 284 986 211 
Q 1078 138 1384 116 
L 1384 0 
L 50 0 
L 50 116 
Q 316 163 394 238 
Q 553 388 747 847 
L 2238 4334 
L 2347 4334 
L 3822 809 
Q 4000 384 4145 257 
Q 4291 131 4550 116 
L 4550 0 
L 2878 0 
L 2878 116 
Q 3131 128 3220 200 
Q 3309 272 3309 375 
Q 3309 513 3184 809 
L 2928 1419 
z
M 2841 1650 
L 2122 3363 
L 1384 1650 
L 2841 1650 
z
" transform="scale(0.015625)"/>
       <path id="TimesNewRomanPSMT-63" d="M 2631 1088 
Q 2516 522 2178 217 
Q 1841 -88 1431 -88 
Q 944 -88 581 321 
Q 219 731 219 1428 
Q 219 2103 620 2525 
Q 1022 2947 1584 2947 
Q 2006 2947 2278 2723 
Q 2550 2500 2550 2259 
Q 2550 2141 2473 2067 
Q 2397 1994 2259 1994 
Q 2075 1994 1981 2113 
Q 1928 2178 1911 2362 
Q 1894 2547 1784 2644 
Q 1675 2738 1481 2738 
Q 1169 2738 978 2506 
Q 725 2200 725 1697 
Q 725 1184 976 792 
Q 1228 400 1656 400 
Q 1963 400 2206 609 
Q 2378 753 2541 1131 
L 2631 1088 
z
" transform="scale(0.015625)"/>
       <path id="TimesNewRomanPSMT-75" d="M 2709 2863 
L 2709 1128 
Q 2709 631 2732 520 
Q 2756 409 2807 365 
Q 2859 322 2928 322 
Q 3025 322 3147 375 
L 3191 266 
L 2334 -88 
L 2194 -88 
L 2194 519 
Q 1825 119 1631 15 
Q 1438 -88 1222 -88 
Q 981 -88 804 51 
Q 628 191 559 409 
Q 491 628 491 1028 
L 491 2306 
Q 491 2509 447 2587 
Q 403 2666 317 2708 
Q 231 2750 6 2747 
L 6 2863 
L 1009 2863 
L 1009 947 
Q 1009 547 1148 422 
Q 1288 297 1484 297 
Q 1619 297 1789 381 
Q 1959 466 2194 703 
L 2194 2325 
Q 2194 2569 2105 2655 
Q 2016 2741 1734 2747 
L 1734 2863 
L 2709 2863 
z
" transform="scale(0.015625)"/>
       <path id="TimesNewRomanPSMT-72" d="M 1038 2947 
L 1038 2303 
Q 1397 2947 1775 2947 
Q 1947 2947 2059 2842 
Q 2172 2738 2172 2600 
Q 2172 2478 2090 2393 
Q 2009 2309 1897 2309 
Q 1788 2309 1652 2417 
Q 1516 2525 1450 2525 
Q 1394 2525 1328 2463 
Q 1188 2334 1038 2041 
L 1038 669 
Q 1038 431 1097 309 
Q 1138 225 1241 169 
Q 1344 113 1538 113 
L 1538 0 
L 72 0 
L 72 113 
Q 291 113 397 181 
Q 475 231 506 341 
Q 522 394 522 644 
L 522 1753 
Q 522 2253 501 2348 
Q 481 2444 426 2487 
Q 372 2531 291 2531 
Q 194 2531 72 2484 
L 41 2597 
L 906 2947 
L 1038 2947 
z
" transform="scale(0.015625)"/>
       <path id="TimesNewRomanPSMT-61" d="M 1822 413 
Q 1381 72 1269 19 
Q 1100 -59 909 -59 
Q 613 -59 420 144 
Q 228 347 228 678 
Q 228 888 322 1041 
Q 450 1253 767 1440 
Q 1084 1628 1822 1897 
L 1822 2009 
Q 1822 2438 1686 2597 
Q 1550 2756 1291 2756 
Q 1094 2756 978 2650 
Q 859 2544 859 2406 
L 866 2225 
Q 866 2081 792 2003 
Q 719 1925 600 1925 
Q 484 1925 411 2006 
Q 338 2088 338 2228 
Q 338 2497 613 2722 
Q 888 2947 1384 2947 
Q 1766 2947 2009 2819 
Q 2194 2722 2281 2516 
Q 2338 2381 2338 1966 
L 2338 994 
Q 2338 584 2353 492 
Q 2369 400 2405 369 
Q 2441 338 2488 338 
Q 2538 338 2575 359 
Q 2641 400 2828 588 
L 2828 413 
Q 2478 -56 2159 -56 
Q 2006 -56 1915 50 
Q 1825 156 1822 413 
z
M 1822 616 
L 1822 1706 
Q 1350 1519 1213 1441 
Q 966 1303 859 1153 
Q 753 1003 753 825 
Q 753 600 887 451 
Q 1022 303 1197 303 
Q 1434 303 1822 616 
z
" transform="scale(0.015625)"/>
       <path id="TimesNewRomanPSMT-79" d="M 38 2863 
L 1372 2863 
L 1372 2747 
L 1306 2747 
Q 1166 2747 1095 2686 
Q 1025 2625 1025 2534 
Q 1025 2413 1128 2197 
L 1825 753 
L 2466 2334 
Q 2519 2463 2519 2588 
Q 2519 2644 2497 2672 
Q 2472 2706 2419 2726 
Q 2366 2747 2231 2747 
L 2231 2863 
L 3163 2863 
L 3163 2747 
Q 3047 2734 2984 2696 
Q 2922 2659 2847 2556 
Q 2819 2513 2741 2316 
L 1575 -541 
Q 1406 -956 1132 -1168 
Q 859 -1381 606 -1381 
Q 422 -1381 303 -1275 
Q 184 -1169 184 -1031 
Q 184 -900 270 -820 
Q 356 -741 506 -741 
Q 609 -741 788 -809 
Q 913 -856 944 -856 
Q 1038 -856 1148 -759 
Q 1259 -663 1372 -384 
L 1575 113 
L 547 2272 
Q 500 2369 397 2513 
Q 319 2622 269 2659 
Q 197 2709 38 2747 
L 38 2863 
z
" transform="scale(0.015625)"/>
      </defs>
      <use xlink:href="#TimesNewRomanPSMT-41"/>
      <use xlink:href="#TimesNewRomanPSMT-63" transform="translate(72.216797 0)"/>
      <use xlink:href="#TimesNewRomanPSMT-63" transform="translate(116.601562 0)"/>
      <use xlink:href="#TimesNewRomanPSMT-75" transform="translate(160.986328 0)"/>
      <use xlink:href="#TimesNewRomanPSMT-72" transform="translate(210.986328 0)"/>
      <use xlink:href="#TimesNewRomanPSMT-61" transform="translate(244.287109 0)"/>
      <use xlink:href="#TimesNewRomanPSMT-63" transform="translate(288.671875 0)"/>
      <use xlink:href="#TimesNewRomanPSMT-79" transform="translate(333.056641 0)"/>
     </g>
    </g>
   </g>
   <g id="line2d_31">
    <path d="M 233.826375 182.113474 
L 314.284195 178.454438 
L 335.979196 178.454438 
L 349.046051 173.265249 
L 358.426321 171.668582 
L 365.748873 163.485644 
L 371.756053 154.637411 
L 376.849237 150.046979 
L 381.270174 149.049068 
L 385.175809 146.58752 
L 388.673825 146.454473 
L 391.841323 146.520997 
L 394.735405 145.92224 
L 399.86761 146.853628 
L 402.166491 145.656132 
L 404.317903 144.724744 
L 406.339631 145.390023 
L 410.050651 143.726817 
L 411.762784 145.589609 
L 413.39177 143.859879 
L 414.945313 144.791267 
L 416.430091 142.861952 
L 417.851936 142.52932 
L 419.215966 143.061537 
L 420.5267 142.595843 
L 421.788146 144.192511 
L 423.003877 142.13015 
L 424.177092 143.793356 
L 425.310663 142.662367 
L 426.407182 142.13015 
L 427.468996 142.396258 
L 428.498233 141.664456 
L 429.496834 141.132223 
L 430.466569 143.1946 
L 431.409061 141.597917 
L 432.325799 141.065699 
L 433.218152 142.196673 
L 434.087385 144.458635 
L 434.934665 141.46487 
L 435.761074 141.930564 
L 436.567615 143.327646 
L 437.355222 141.930564 
L 438.877047 141.664456 
L 439.612834 140.733068 
L 440.332829 143.1946 
L 441.037697 140.733068 
L 441.728061 140.134311 
L 442.404506 145.390023 
L 443.067581 141.065699 
L 443.717804 141.132223 
L 444.355666 143.660294 
L 444.981626 142.396258 
L 445.596121 143.327646 
L 446.199564 140.466943 
L 446.792344 143.726817 
L 447.374833 140.666529 
L 447.947381 140.866114 
L 448.510322 140.200835 
L 449.063973 139.735141 
L 449.608636 140.333897 
L 450.144598 140.001249 
L 450.672132 140.866114 
L 451.1915 140.533482 
L 451.70295 139.801664 
L 452.206721 143.660294 
L 452.703039 139.602078 
L 453.192122 140.067772 
L 453.674178 138.936799 
L 454.149405 138.537628 
L 454.617995 140.666529 
L 455.080131 142.13015 
L 455.535987 139.668617 
L 455.985732 138.870276 
L 456.429528 139.136384 
L 456.86753 140.466943 
L 457.299888 138.67069 
L 457.726745 138.604167 
L 458.148239 144.85779 
L 458.564504 137.805826 
L 459.381852 138.537628 
L 459.783179 139.535555 
L 460.179761 136.741376 
L 460.571711 137.473194 
L 460.959134 139.269447 
L 461.342135 137.074023 
L 461.720812 136.874438 
L 462.095264 138.67069 
L 462.465582 138.936799 
L 462.831857 140.932637 
L 463.194177 136.076096 
L 463.552626 136.275682 
L 464.258236 142.662367 
L 464.605552 139.801664 
L 464.94931 135.543879 
L 465.289582 134.346367 
L 465.959944 139.136384 
L 466.617173 135.211231 
L 466.941022 134.812061 
L 467.261775 134.146781 
L 467.57949 135.610402 
L 467.894225 138.67069 
L 468.206035 137.074023 
L 468.514974 141.198762 
L 468.821093 134.8786 
L 469.124445 134.013735 
L 469.425079 134.080258 
L 469.723043 139.269447 
L 470.018383 134.745537 
L 470.311147 132.749699 
L 470.601378 135.344294 
L 470.88912 133.281917 
L 471.174415 135.47734 
L 471.737828 133.14887 
L 472.016027 135.078185 
L 472.291937 133.348456 
L 472.565596 134.346367 
L 472.837042 140.799591 
L 473.106309 132.350529 
L 473.373432 134.679014 
L 473.638445 138.537628 
L 473.901382 132.483591 
L 474.162273 131.884835 
L 474.421152 135.211231 
L 474.678048 132.816223 
L 474.932992 134.479429 
L 475.186014 132.949285 
L 475.437141 132.417052 
L 475.686403 132.284005 
L 475.933827 135.809988 
L 476.179439 131.286078 
L 476.665334 132.683176 
L 476.905668 131.818311 
L 477.144293 137.140546 
L 477.381233 133.082347 
L 477.616511 133.082347 
L 477.85015 133.947196 
L 478.082174 138.071934 
L 478.312604 136.940961 
L 478.541462 139.003338 
L 478.76877 130.487753 
L 478.994548 130.554276 
L 479.218817 136.275682 
L 479.441596 130.687338 
L 479.662906 131.153032 
L 479.882766 139.136384 
L 480.101195 131.153032 
L 480.31821 134.21332 
L 480.533831 133.14887 
L 480.748075 136.009573 
L 480.960959 133.348456 
L 481.172502 134.146781 
L 481.382719 130.753861 
L 481.591626 129.223717 
L 481.799241 134.545952 
L 482.00558 134.146781 
L 482.210657 134.279843 
L 482.414488 131.485664 
L 482.617088 137.340132 
L 482.818472 133.614564 
L 483.018654 134.679014 
L 483.21765 133.481502 
L 483.415472 133.14887 
L 483.80765 130.620799 
L 484.002033 131.153032 
L 484.195297 133.614564 
L 484.387454 130.421214 
L 484.578517 129.223717 
L 484.768497 135.809988 
L 485.145261 129.556349 
L 485.332068 133.548041 
L 485.517841 133.681087 
L 485.702591 130.288167 
L 485.886329 130.288167 
L 486.069067 135.743464 
L 486.250814 129.689411 
L 486.790223 128.758023 
L 486.968115 135.610402 
L 487.321096 129.423303 
L 487.496203 129.755934 
L 487.670401 132.550114 
L 487.8437 129.024132 
L 488.016107 134.545952 
L 488.187634 134.346367 
L 488.358288 128.358852 
L 488.528078 128.957609 
L 488.697013 134.8786 
L 488.865102 128.89107 
L 489.032353 133.414979 
L 489.198775 128.824546 
L 489.364375 135.543879 
L 489.529161 128.558438 
L 489.693143 130.155105 
L 489.856326 129.024132 
L 490.01872 132.683176 
L 490.180332 133.348456 
L 490.341168 127.560511 
L 490.501238 133.082347 
L 490.660547 128.22579 
L 490.819104 128.624961 
L 490.976914 135.27777 
L 491.133986 128.026205 
L 491.290326 132.017897 
L 491.445941 139.202923 
L 491.600837 128.758023 
L 491.908501 127.427464 
L 492.061281 126.695646 
L 492.213369 131.352617 
L 492.36477 126.96177 
L 492.515491 138.67069 
L 492.665539 127.893158 
L 492.814918 128.026205 
L 492.963635 133.681087 
L 493.111695 127.693573 
L 493.259105 131.286078 
L 493.405871 128.026205 
L 493.551997 135.94305 
L 493.697489 127.62705 
L 493.842353 129.622888 
L 493.986595 133.614564 
L 494.130219 126.695646 
L 494.27323 127.427464 
L 494.415635 133.81415 
L 494.557438 132.616637 
L 494.698644 126.429537 
L 494.839258 133.880673 
L 494.979285 126.496061 
L 495.11873 134.945123 
L 495.257598 126.296491 
L 495.395894 129.157194 
L 495.670787 126.030367 
L 495.807393 133.015808 
L 495.943446 126.229952 
L 496.078949 131.685249 
L 496.213907 127.360925 
L 496.348324 130.221628 
L 496.482205 128.691484 
L 496.615553 129.755934 
L 496.748374 133.14887 
L 496.880671 126.496061 
L 497.012449 130.421214 
L 497.143711 125.89732 
L 497.274461 129.024132 
L 497.404704 127.893158 
L 497.534443 130.953447 
L 497.663682 128.026205 
L 497.792425 128.89107 
L 497.920677 126.229952 
L 498.04844 126.762185 
L 498.175718 132.616637 
L 498.302515 125.963843 
L 498.428835 127.693573 
L 498.554681 131.818311 
L 498.804965 129.157194 
L 498.929411 129.223717 
L 499.053396 126.96177 
L 499.176926 127.360925 
L 499.300002 127.227879 
L 499.422628 126.296491 
L 499.544807 127.693573 
L 499.666544 143.793356 
L 499.78784 125.89732 
L 499.908699 130.820384 
L 500.029125 127.028294 
L 500.149119 127.427464 
L 500.268686 127.028294 
L 500.387829 125.365087 
L 500.624852 129.95552 
L 500.860212 125.49815 
L 500.977276 127.227879 
L 501.093933 134.21332 
L 501.210186 125.49815 
L 501.326037 127.094817 
L 501.44149 127.094817 
L 501.556546 126.895231 
L 501.785483 124.699808 
L 501.899368 126.096906 
L 502.012867 130.886908 
L 502.238721 125.165502 
L 502.351081 136.940961 
L 502.463065 125.431626 
L 502.574677 128.558438 
L 502.685919 127.16134 
L 502.907302 131.951358 
L 503.017448 129.822473 
L 503.127234 124.034529 
L 503.236661 137.007484 
L 503.345733 125.564673 
L 503.454452 128.292329 
L 503.562819 128.026205 
L 503.670837 125.098979 
L 503.885837 127.294402 
L 503.992822 126.762185 
L 504.099467 133.348456 
L 504.205774 124.699808 
L 504.311745 131.884835 
L 504.417383 126.296491 
L 504.522689 136.342205 
L 504.627665 123.901482 
L 504.732314 131.153032 
L 504.836638 128.491915 
L 504.940639 131.552203 
L 505.044317 125.49815 
L 505.147677 132.483591 
L 505.250719 124.566762 
L 505.353446 124.965917 
L 505.55796 133.14887 
L 505.862413 124.034529 
L 505.963287 138.471105 
L 506.063858 125.431626 
L 506.2641 129.090655 
L 506.363775 125.49815 
L 506.56224 132.150943 
L 506.759538 123.901482 
L 506.955683 131.352617 
L 507.053327 124.367176 
L 507.150688 132.483591 
L 507.247767 124.633285 
L 507.344566 126.496061 
L 507.441087 123.568835 
L 507.53733 134.346367 
L 507.728993 123.169664 
L 507.824415 125.365087 
L 507.919567 134.146781 
L 508.01445 125.298564 
L 508.109065 136.608329 
L 508.203414 126.229952 
L 508.297498 128.758023 
L 508.39132 122.903555 
L 508.578179 126.5626 
L 508.67122 134.013735 
L 508.764003 125.365087 
L 508.856531 126.163429 
L 509.040824 123.502311 
L 509.132592 131.086493 
L 509.22411 122.637447 
L 509.315379 123.635358 
L 509.497176 124.300637 
L 509.587706 128.89107 
L 509.677993 124.367176 
L 509.768037 127.227879 
L 509.85784 123.369249 
L 509.947404 128.624961 
L 510.036729 124.234114 
L 510.125817 128.425376 
L 510.303286 123.302726 
L 510.39167 126.5626 
L 510.479822 124.234114 
L 510.567742 125.764258 
L 510.655433 122.903555 
L 510.742895 123.236203 
L 510.83013 126.229952 
L 510.917139 123.968005 
L 511.003922 128.092744 
L 511.090482 122.903555 
L 511.176819 122.970078 
L 511.262934 123.103141 
L 511.348829 126.96177 
L 511.434504 123.036617 
L 511.519961 123.901482 
L 511.690226 124.965917 
L 511.775035 122.70397 
L 511.944013 130.886908 
L 512.112144 126.895231 
L 512.195894 128.957609 
L 512.362771 122.304799 
L 512.445899 129.29024 
L 512.528822 122.437861 
L 512.61154 126.163429 
L 512.776367 122.171753 
L 512.858478 125.830781 
L 512.940388 125.032456 
L 513.022099 128.159267 
L 513.103612 121.905628 
L 513.184927 131.485664 
L 513.266045 122.238276 
L 513.346967 130.687338 
L 513.427695 121.240349 
L 513.508229 122.238276 
L 513.588571 130.35469 
L 513.828446 123.369249 
L 513.908025 123.968005 
L 513.987416 122.970078 
L 514.066619 136.608329 
L 514.145636 123.103141 
L 514.224467 126.762185 
L 514.303113 127.094817 
L 514.459855 129.622888 
L 514.615868 123.435772 
L 514.693603 124.566762 
L 514.771158 128.624961 
L 514.848535 122.570908 
L 514.925734 122.637447 
L 515.002755 126.96177 
L 515.0796 121.572997 
L 515.156269 125.89732 
L 515.232764 121.63952 
L 515.461207 128.026205 
L 515.53701 122.637447 
L 515.612642 123.169664 
L 515.688104 126.695646 
L 515.763397 126.5626 
L 515.838521 124.566762 
L 515.988267 127.16134 
L 516.137348 122.171753 
L 516.21164 127.427464 
L 516.359733 123.76842 
L 516.433536 123.635358 
L 516.507176 134.8786 
L 516.580655 122.238276 
L 516.653973 122.70397 
L 516.727132 122.504384 
L 516.800131 121.506473 
L 516.945655 125.298564 
L 517.018181 120.641609 
L 517.090551 121.373411 
L 517.162764 134.146781 
L 517.306727 121.306888 
L 517.450075 133.215393 
L 517.52152 121.173826 
L 517.592813 126.429537 
L 517.734946 120.508546 
L 517.805787 122.437861 
L 517.876479 129.489826 
L 517.947023 122.770493 
L 518.017418 124.566762 
L 518.297533 121.173826 
L 518.367197 132.816223 
L 518.436718 123.568835 
L 518.506094 128.957609 
L 518.575328 134.679014 
L 518.713367 120.508546 
L 518.782175 129.423303 
L 518.919368 120.841194 
L 519.056002 124.566762 
L 519.124111 122.837032 
L 519.192082 136.076096 
L 519.259915 131.552203 
L 519.327612 127.094817 
L 519.395173 137.007484 
L 519.462597 124.367176 
L 519.529887 124.699808 
L 519.597041 123.435772 
L 519.664062 123.968005 
L 519.797703 130.288167 
L 519.864324 123.236203 
L 519.930813 126.096906 
L 520.063398 120.907717 
L 520.129494 122.238276 
L 520.195461 121.706059 
L 520.261298 121.63952 
L 520.327006 121.839105 
L 520.392585 130.35469 
L 520.458037 126.762185 
L 520.588558 120.641609 
L 520.653629 124.167591 
L 520.783393 122.238276 
L 520.912657 130.487753 
L 521.041425 120.57507 
L 521.105625 144.25905 
L 521.233656 122.903555 
L 521.297488 124.899393 
L 521.3612 121.905628 
L 521.424791 123.834943 
L 521.614843 120.708132 
L 521.677955 121.107303 
L 521.740949 141.265285 
L 521.803825 126.229952 
L 521.866583 123.502311 
L 521.929224 126.229952 
L 521.991748 125.764258 
L 522.054156 120.907717 
L 522.116448 121.506473 
L 522.240686 125.89732 
L 522.302633 122.570908 
L 522.364466 136.076096 
L 522.487791 121.373411 
L 522.549284 126.163429 
L 522.610664 124.300637 
L 522.733089 119.710205 
L 522.915893 129.423303 
L 523.037211 120.97424 
L 523.097706 123.502311 
L 523.158092 120.641609 
L 523.218369 120.841194 
L 523.278539 122.637447 
L 523.398555 136.209158 
L 523.458402 120.508546 
L 523.518143 121.373411 
L 523.696731 128.159267 
L 523.815263 125.165502 
L 523.874372 130.022059 
L 524.051078 121.306888 
L 524.109774 120.442023 
L 524.285247 128.89107 
L 524.343535 128.624961 
L 524.401722 121.240349 
L 524.459808 121.572997 
L 524.575679 123.103141 
L 524.633465 128.092744 
L 524.691152 120.175915 
L 524.748739 120.97424 
L 524.806228 138.604167 
L 524.863619 131.286078 
L 524.978106 119.510619 
L 525.035203 122.03869 
L 525.092204 120.175915 
L 525.149108 119.90979 
L 525.205915 120.907717 
L 525.262627 118.579231 
L 525.319242 120.042852 
L 525.375763 120.442023 
L 525.544755 124.034529 
L 525.7129 121.439934 
L 525.82453 135.144708 
L 525.880207 130.554276 
L 525.935791 128.824546 
L 525.991283 119.776744 
L 526.046683 120.774655 
L 526.15721 125.165502 
L 526.212338 124.101052 
L 526.322321 127.560511 
L 526.541213 119.244511 
L 526.595713 120.841194 
L 526.704449 137.406655 
L 526.758686 137.074023 
L 526.92087 123.103141 
L 526.974758 124.766347 
L 527.028559 132.150943 
L 527.082274 121.572997 
L 527.135903 126.762185 
L 527.189447 125.49815 
L 527.242906 126.5626 
L 527.296279 125.631196 
L 527.402772 140.999176 
L 527.561879 118.978402 
L 527.825394 127.959682 
L 527.982515 120.109376 
L 528.034725 120.508546 
L 528.086855 122.171753 
L 528.138903 120.57507 
L 528.190871 119.177988 
L 528.242759 119.510619 
L 528.294566 124.83287 
L 528.346294 121.772582 
L 528.44951 120.508546 
L 528.501 118.978402 
L 528.55241 122.504384 
L 528.603742 120.375484 
L 528.654995 118.778817 
L 528.706171 118.978402 
L 528.85923 124.566762 
L 528.910095 119.244511 
L 529.011594 119.577158 
L 529.062228 119.776744 
L 529.112787 119.510619 
L 529.163269 120.841194 
L 529.213675 119.843267 
L 529.264006 118.778817 
L 529.364442 118.978402 
L 529.414547 138.67069 
L 529.464577 123.76842 
L 529.514533 119.044925 
L 529.564415 119.510619 
L 529.713617 123.435772 
L 529.763204 122.504384 
L 529.911527 120.841194 
L 529.960822 122.637447 
L 530.010045 120.508546 
L 530.059196 120.375484 
L 530.108275 125.232041 
L 530.157283 122.637447 
L 530.303877 121.63952 
L 530.3526 121.772582 
L 530.401252 122.570908 
L 530.546786 118.180061 
L 530.691692 129.423303 
L 530.78795 126.096906 
L 530.835975 126.363014 
L 530.97964 118.512708 
L 531.027392 119.244511 
L 531.075076 152.508511 
L 531.122692 122.105214 
L 531.170241 119.90979 
L 531.359765 132.08442 
L 531.40698 130.288167 
L 531.454128 130.487753 
L 531.548225 119.31105 
L 531.595175 124.899393 
L 531.64206 127.893158 
L 531.735633 118.778817 
L 531.782321 119.510619 
L 531.921999 130.953447 
L 532.061097 120.508546 
L 532.107335 120.57507 
L 532.199621 130.620799 
L 532.291654 124.500223 
L 532.337576 124.034529 
L 532.383435 120.907717 
L 532.474965 121.63952 
L 532.566247 119.377573 
L 532.657281 126.429537 
L 532.79337 125.032456 
L 532.928909 119.776744 
L 533.063903 118.2466 
L 533.198356 122.371338 
L 533.243055 120.109376 
L 533.332273 120.907717 
L 533.376793 123.169664 
L 533.421254 119.776744 
L 533.510001 120.375484 
L 533.598513 121.506473 
L 533.730845 139.535555 
L 533.906479 125.098979 
L 533.993953 133.548041 
L 534.081199 118.84534 
L 534.124737 119.31105 
L 534.168219 118.512708 
L 534.211644 142.329735 
L 534.255013 139.469032 
L 534.341584 117.115626 
L 534.384786 127.493988 
L 534.427932 143.660294 
L 534.471023 118.512708 
L 534.599964 121.040764 
L 534.642835 120.242438 
L 534.728412 119.377573 
L 534.771119 125.232041 
L 534.85637 125.032456 
L 535.026224 118.180061 
L 535.195223 122.105214 
L 535.321417 118.379646 
L 535.363376 138.27152 
L 535.405282 117.913952 
L 535.488939 120.175915 
L 535.572388 131.219555 
L 535.655629 129.556349 
L 535.738665 118.84534 
L 535.780105 120.175915 
L 535.862834 129.689411 
L 535.904122 124.965917 
L 535.945359 126.096906 
L 536.068767 118.978402 
L 536.109802 117.913952 
L 536.150787 119.111464 
L 536.191722 118.047014 
L 536.273443 117.913952 
L 536.354966 120.97424 
L 536.476879 117.049087 
L 536.679088 126.629123 
L 536.719384 134.812061 
L 536.759632 123.76842 
L 536.799832 125.298564 
L 536.839983 118.512708 
L 536.880086 119.31105 
L 536.96015 128.026205 
L 537.00011 122.238276 
L 537.079887 119.643682 
L 537.119705 128.558438 
L 537.159476 125.631196 
L 537.199199 121.306888 
L 537.238876 122.238276 
L 537.278505 126.96177 
L 537.318088 120.042852 
L 537.436558 117.514781 
L 537.593869 119.444096 
L 537.71137 136.342205 
L 537.789476 119.044925 
L 537.828461 136.874438 
L 537.906296 122.171753 
L 537.945145 121.107303 
L 537.98395 128.425376 
L 538.02271 120.175915 
L 538.138721 118.84534 
L 538.21584 119.444096 
L 538.254333 124.766347 
L 538.331187 122.105214 
L 538.407865 117.647843 
L 538.446138 120.375484 
L 538.560697 118.579231 
L 538.598797 118.778817 
L 538.636853 119.577158 
L 538.674866 123.103141 
L 538.712837 122.570908 
L 538.788648 118.2466 
L 538.82649 118.978402 
L 538.864289 137.805826 
L 538.93976 128.824546 
L 538.977432 118.84534 
L 539.015061 123.435772 
L 539.090194 135.011646 
L 539.127697 122.304799 
L 539.165159 139.735141 
L 539.202578 123.968005 
L 539.277293 126.030367 
L 539.314588 117.115626 
L 539.389053 117.18215 
L 539.426224 120.442023 
L 539.500443 119.90979 
L 539.611464 118.113537 
L 539.685274 125.89732 
L 539.722119 118.379646 
L 539.758922 117.18215 
L 539.795686 117.913952 
L 539.869093 123.103141 
L 539.942339 121.572997 
L 540.088354 117.448258 
L 540.124758 119.244511 
L 540.161124 117.714367 
L 540.197449 117.248673 
L 540.233736 117.58132 
L 540.269983 144.325573 
L 540.34236 119.510619 
L 540.450635 117.980475 
L 540.486648 118.512708 
L 540.522624 119.177988 
L 540.630318 139.136384 
L 540.66614 132.749699 
L 540.773376 116.716456 
L 540.809045 119.976329 
L 540.88027 140.40042 
L 540.915826 127.427464 
L 541.057673 118.84534 
L 541.093042 118.313123 
L 541.234144 124.633285 
L 541.304473 117.381735 
L 541.374655 118.579231 
L 541.409691 117.913952 
L 541.479653 124.500223 
L 541.51458 120.57507 
L 541.54947 116.982564 
L 541.584324 118.180061 
L 541.653924 130.554276 
L 541.68867 128.092744 
L 541.792692 117.847429 
L 541.827294 123.834943 
L 541.896392 121.572997 
L 541.965348 118.2466 
L 541.999773 119.510619 
L 542.034162 135.676925 
L 542.102836 118.313123 
L 542.13712 117.514781 
L 542.171369 117.647843 
L 542.205584 125.631196 
L 542.273908 118.113537 
L 542.308017 121.63952 
L 542.376133 119.444096 
L 542.410139 117.049087 
L 542.478049 117.514781 
L 542.511952 117.780906 
L 542.545821 116.450331 
L 542.579655 116.782979 
L 542.613456 154.570888 
L 542.647222 116.51687 
L 542.680955 118.911879 
L 542.714654 124.167591 
L 542.78195 117.448258 
L 542.815548 117.381735 
L 542.849111 116.649917 
L 542.882642 116.782979 
L 542.983032 125.697735 
L 543.116421 116.450331 
L 543.249281 126.695646 
L 543.315514 135.27777 
L 543.41462 117.714367 
L 543.44759 118.113537 
L 543.480528 117.315196 
L 543.579148 142.13015 
L 543.644734 117.780906 
L 543.710192 117.847429 
L 543.742873 116.317285 
L 543.775522 122.504384 
L 543.840726 120.841194 
L 543.905803 118.313123 
L 543.970754 119.31105 
L 544.10028 135.94305 
L 544.132584 125.431626 
L 544.229308 116.982564 
L 544.261488 119.044925 
L 544.293637 134.080258 
L 544.357842 118.180061 
L 544.389899 128.358852 
L 544.421925 130.022059 
L 544.485885 118.379646 
L 544.549724 118.512708 
L 544.581598 116.916041 
L 544.613442 126.895231 
L 544.645255 116.051176 
L 544.677039 117.514781 
L 544.708792 117.049087 
L 544.740515 118.047014 
L 544.772208 118.712294 
L 544.803872 125.032456 
L 544.898683 124.101052 
L 544.930227 120.907717 
L 545.024682 132.616637 
L 545.181519 118.047014 
L 545.244049 145.256961 
L 545.275271 122.437861 
L 545.337626 118.778817 
L 545.368761 119.843267 
L 545.430943 146.520997 
L 545.493011 135.94305 
L 545.524001 137.739303 
L 545.585897 116.916041 
L 545.647678 118.84534 
L 545.709346 126.895231 
L 545.770901 122.105214 
L 545.863022 118.113537 
L 545.985458 139.003338 
L 546.076993 116.716456 
L 546.107449 116.782979 
L 546.137878 116.383808 
L 546.228998 136.940961 
L 546.259317 129.356764 
L 546.289608 126.895231 
L 546.319872 132.683176 
L 546.350108 136.940961 
L 546.470783 115.186311 
L 546.500884 116.450331 
L 546.650984 119.044925 
L 546.680924 118.113537 
L 546.710837 124.766347 
L 546.770583 118.911879 
L 546.800417 117.315196 
L 546.830223 121.306888 
L 546.860004 131.552203 
L 546.919485 119.643682 
L 546.949186 118.778817 
L 547.067729 128.558438 
L 547.126844 117.913952 
L 547.185854 118.047014 
L 547.215321 123.236203 
L 547.274176 116.450331 
L 547.332928 116.051176 
L 547.362266 117.514781 
L 547.391578 119.31105 
L 547.450125 116.317285 
L 547.479361 116.117699 
L 547.50857 118.113537 
L 547.537755 116.583393 
L 547.566914 153.240329 
L 547.625156 117.780906 
L 547.683298 115.718529 
L 547.741339 116.051176 
L 547.770321 117.514781 
L 547.799279 115.851591 
L 547.85712 117.115626 
L 547.943694 118.113537 
L 547.914861 116.649917 
L 547.972503 117.448258 
L 548.001287 115.585482 
L 548.058781 117.780906 
L 548.087491 118.379646 
L 548.116176 118.2466 
L 548.259236 146.188349 
L 548.31629 117.248673 
L 548.373247 128.558438 
L 548.486872 116.649917 
L 548.515218 117.514781 
L 548.54354 117.714367 
L 548.628364 140.799591 
L 548.656591 126.695646 
L 548.769261 116.383808 
L 548.79737 116.583393 
L 548.825455 115.918114 
L 548.965529 119.643682 
L 549.077169 115.652005 
L 549.105021 116.317285 
L 549.160655 117.980475 
L 549.188438 117.248673 
L 549.327008 142.662367 
L 549.409876 124.433699 
L 549.437453 130.022059 
L 549.465008 142.13015 
L 549.520049 128.558438 
L 549.575001 117.913952 
L 549.602443 118.446185 
L 549.711986 136.940961 
L 549.875634 116.317285 
L 549.930007 115.851591 
L 550.092597 136.342205 
L 550.173598 116.583393 
L 550.22749 118.113537 
L 550.281295 114.986726 
L 550.361842 137.805826 
L 550.442197 116.916041 
L 550.468939 118.313123 
L 550.522359 136.142635 
L 550.575694 123.76842 
L 550.628944 118.712294 
L 550.655538 119.31105 
L 550.68211 133.414979 
L 550.735192 116.716456 
L 550.761702 117.115626 
L 550.788191 118.313123 
L 550.841105 116.117699 
L 550.867531 116.450331 
L 550.920321 131.086493 
L 550.973028 115.252835 
L 550.99935 123.635358 
L 551.104434 115.718529 
L 551.130653 117.18215 
L 551.209189 117.448258 
L 551.235327 116.383808 
L 551.339675 131.552203 
L 551.391727 115.652005 
L 551.469655 116.716456 
L 551.495591 115.252835 
L 551.521507 116.849502 
L 551.573278 116.250762 
L 551.62497 117.58132 
L 551.650786 116.184223 
L 551.676582 117.315196 
L 551.702358 138.803753 
L 551.779569 117.115626 
L 551.805266 116.117699 
L 551.830944 118.113537 
L 551.856602 116.649917 
L 552.061163 129.29024 
L 552.112109 116.051176 
L 552.162978 123.502311 
L 552.188383 126.695646 
L 552.213769 119.577158 
L 552.239137 118.2466 
L 552.315123 145.988779 
L 552.340413 118.113537 
L 552.365685 114.986726 
L 552.441386 117.315196 
L 552.466581 117.980475 
L 552.491758 117.58132 
L 552.567175 118.911879 
L 552.617359 115.252835 
L 552.742491 126.229952 
L 552.792414 119.244511 
L 552.817347 116.184223 
L 552.867159 138.604167 
L 552.916896 116.317285 
L 553.040919 118.446185 
L 553.065668 117.448258 
L 553.164484 144.724744 
L 553.213783 116.317285 
L 553.26301 119.643682 
L 553.336715 139.735141 
L 553.361248 116.849502 
L 553.385762 119.776744 
L 553.434737 116.117699 
L 553.459198 117.647843 
L 553.483641 117.847429 
L 553.508066 117.248673 
L 553.532474 116.051176 
L 553.581235 118.2466 
L 553.629926 136.741376 
L 553.727097 133.215393 
L 553.775577 146.58752 
L 553.79979 132.017897 
L 553.848165 136.940961 
L 553.872327 138.005411 
L 553.992873 114.188384 
L 554.064994 125.431626 
L 554.13696 118.047014 
L 554.184851 145.123915 
L 554.28043 114.787141 
L 554.328118 117.248673 
L 554.351936 117.315196 
L 554.44704 146.454473 
L 554.470775 128.824546 
L 554.541876 114.853664 
L 554.589194 117.315196 
L 554.612827 115.119772 
L 554.660045 115.319358 
L 554.707196 143.992925 
L 554.777799 117.115626 
L 554.824785 121.240349 
L 554.848254 117.315196 
L 554.871706 113.855753 
L 554.941964 115.718529 
L 554.96535 118.64577 
L 555.012075 146.055303 
L 555.058734 116.383808 
L 555.105329 121.972167 
L 555.128602 139.003338 
L 555.198325 119.843267 
L 555.244726 115.319358 
L 555.314208 119.31105 
L 555.429692 141.597917 
L 555.383546 117.18215 
L 555.452742 132.550114 
L 555.521794 136.54179 
L 555.590706 117.18215 
L 555.613644 130.820384 
L 555.636568 116.51687 
L 555.682367 117.847429 
L 555.705244 118.113537 
L 555.728104 117.248673 
L 555.75095 150.44615 
L 555.819392 122.371338 
L 555.842175 117.381735 
L 555.887695 126.895231 
L 555.910432 140.267358 
L 555.95586 117.647843 
L 555.97855 114.587555 
L 556.06916 115.918114 
L 556.159526 115.252835 
L 556.204617 129.157194 
L 556.272142 115.252835 
L 556.294619 121.040764 
L 556.317082 131.552203 
L 556.361963 116.51687 
L 556.384381 117.115626 
L 556.406784 114.654078 
L 556.496246 114.853664 
L 556.518574 115.319358 
L 556.652232 137.938888 
L 556.696667 127.360925 
L 556.785361 116.849502 
L 556.807497 118.911879 
L 556.962047 143.660294 
L 557.006074 115.252835 
L 557.072006 124.367176 
L 557.093954 125.564673 
L 557.225344 114.787141 
L 557.269027 122.70397 
L 557.312653 113.456582 
L 557.486592 119.044925 
L 557.508271 118.313123 
L 557.529936 114.853664 
L 557.616456 115.984637 
L 557.638051 115.984637 
L 557.659633 126.030367 
L 557.724294 115.518943 
L 557.74582 117.780906 
L 557.767332 115.053249 
L 557.853244 116.649917 
L 557.874687 115.585482 
L 557.896117 118.047014 
L 557.917533 143.061537 
L 557.960324 116.250762 
L 558.003061 120.375484 
L 558.024409 114.454493 
L 558.109665 115.119772 
L 558.152212 116.982564 
L 558.194706 116.583393 
L 558.258345 139.469032 
L 558.300704 129.223717 
L 558.406368 114.787141 
L 558.427461 115.119772 
L 558.469607 123.369249 
L 558.5117 114.986726 
L 558.532727 115.319358 
L 558.595729 116.051176 
L 558.574742 115.053249 
L 558.616703 115.518943 
L 558.637664 114.787141 
L 558.658613 115.053249 
L 558.804884 126.828708 
L 558.825728 126.695646 
L 558.971275 114.587555 
L 559.012744 140.001249 
L 559.074851 118.2466 
L 559.095528 114.188384 
L 559.178109 118.047014 
L 559.198722 128.491915 
L 559.28105 114.587555 
L 559.322138 121.506473 
L 559.342663 114.521032 
L 559.383676 116.250762 
L 559.404164 117.248673 
L 559.445101 115.053249 
L 559.465551 114.521032 
L 559.506414 116.184223 
L 559.649044 145.988779 
L 559.730275 149.248637 
L 559.770817 116.117699 
L 559.79107 132.683176 
L 559.871958 122.304799 
L 559.932497 118.978402 
L 559.952652 124.367176 
L 559.972795 136.608329 
L 560.053247 120.242438 
L 560.093401 114.920187 
L 560.173565 117.514781 
L 560.253537 115.252835 
L 560.293452 127.16134 
L 560.313392 121.772582 
L 560.33332 141.797502 
L 560.37314 126.163429 
L 560.412913 139.003338 
L 560.452639 114.38797 
L 560.551748 128.824546 
L 560.571535 138.404582 
L 560.611073 119.510619 
L 560.630825 120.442023 
L 560.670294 114.055338 
L 560.72941 116.849502 
L 560.788423 138.005411 
L 560.847331 119.31105 
L 560.866945 121.972167 
L 560.906137 114.986726 
L 560.925716 114.720617 
L 560.945283 115.119772 
L 560.96484 116.250762 
L 560.984384 116.117699 
L 561.12088 140.001249 
L 561.237435 115.918114 
L 561.430799 142.928491 
L 561.276197 115.518943 
L 561.450074 132.949285 
L 561.565494 114.920187 
L 561.584692 117.647843 
L 561.623055 113.855753 
L 561.661374 114.121861 
L 561.814215 117.714367 
L 561.833272 114.787141 
L 561.871352 119.244511 
L 561.909389 117.58132 
L 561.947383 114.853664 
L 562.023242 132.284005 
L 562.04218 116.716456 
L 562.117825 122.770493 
L 562.155583 141.597917 
L 562.1933 114.853664 
L 562.212142 115.053249 
L 562.306195 140.333897 
L 562.343742 135.610402 
L 562.493513 114.521032 
L 562.512187 114.38797 
L 562.605404 128.89107 
L 562.642618 117.448258 
L 562.698362 114.321447 
L 562.716923 121.905628 
L 562.735473 142.52932 
L 562.809573 114.920187 
L 562.846562 113.656167 
L 562.938855 117.980475 
L 562.957283 114.654078 
L 562.99411 117.714367 
L 563.049273 139.668617 
L 563.104346 117.647843 
L 563.122684 118.047014 
L 563.141011 114.654078 
L 563.159329 118.379646 
L 563.177637 130.221628 
L 563.250767 115.053249 
L 563.269025 115.45242 
L 563.323739 130.886908 
L 563.378363 122.504384 
L 563.432899 124.101052 
L 563.487347 115.319358 
L 563.523596 121.173826 
L 563.559806 140.40042 
L 563.595977 115.319358 
L 563.614048 117.780906 
L 563.632109 117.913952 
L 563.758266 141.797502 
L 563.812189 114.254908 
L 563.883951 119.776744 
L 563.955559 114.38797 
L 563.973438 116.916041 
L 564.009166 128.758023 
L 564.080508 115.918114 
L 564.133915 113.589628 
L 564.169473 146.520997 
L 564.240476 114.188384 
L 564.258203 115.186311 
L 564.329018 141.331808 
L 564.36437 132.816223 
L 564.470202 113.922276 
L 564.487808 114.720617 
L 564.522993 115.45242 
L 564.68087 136.608329 
L 564.768259 113.922276 
L 564.803151 114.121861 
L 564.838007 117.115626 
L 564.959718 150.44615 
L 565.080989 114.254908 
L 565.115558 115.45242 
L 565.132828 115.186311 
L 565.15009 140.799591 
L 565.236268 116.583393 
L 565.287868 121.439934 
L 565.30505 136.408744 
L 565.373692 116.317285 
L 565.390831 114.055338 
L 565.407961 117.980475 
L 565.425082 140.200835 
L 565.459298 113.789214 
L 565.527625 130.820384 
L 565.57878 114.188384 
L 565.61284 122.371338 
L 565.629856 140.001249 
L 565.697838 113.855753 
L 565.714812 116.117699 
L 565.765682 126.229952 
L 565.799552 113.988799 
L 565.816475 113.390043 
L 565.833389 114.654078 
L 565.850294 114.521032 
L 565.884079 119.843267 
L 565.900959 115.652005 
L 565.917831 140.134311 
L 565.968394 113.855753 
L 566.002061 115.984637 
L 566.018881 117.315196 
L 566.035694 144.591682 
L 566.102858 114.254908 
L 566.119629 115.918114 
L 566.13639 113.855753 
L 566.169889 116.117699 
L 566.236786 139.069861 
L 566.286871 127.826619 
L 566.30355 116.849502 
L 566.336882 137.20707 
L 566.403447 122.105214 
L 566.43668 126.229952 
L 566.46988 115.585482 
L 566.503048 141.597917 
L 566.519619 142.396258 
L 566.569284 112.724764 
L 566.63539 118.047014 
L 566.668395 139.136384 
L 566.684885 116.250762 
L 566.734306 121.173826 
L 566.767213 114.188384 
L 566.832931 119.976329 
L 566.882135 135.94305 
L 566.914897 115.45242 
L 566.931267 114.920187 
L 566.947628 115.652005 
L 566.963981 115.652005 
L 567.029315 113.390043 
L 567.094522 131.618726 
L 567.143344 116.383808 
L 567.192095 131.01997 
L 567.208329 136.076096 
L 567.256986 117.049087 
L 567.273189 113.390043 
L 567.354089 113.988799 
L 567.450911 133.082347 
L 567.467021 121.107303 
L 567.499217 114.853664 
L 567.531383 125.830781 
L 567.579574 116.849502 
L 567.611663 142.795429 
L 567.659739 113.656167 
L 567.675749 115.385897 
L 567.691751 115.45242 
L 567.707746 119.976329 
L 567.787605 116.649917 
L 567.803554 115.518943 
L 567.819495 117.847429 
L 567.835429 117.647843 
L 567.883186 138.404582 
L 567.914986 115.718529 
L 567.930874 119.843267 
L 567.946756 114.254908 
L 567.994354 129.755934 
L 568.010205 136.209158 
L 568.041885 114.055338 
L 568.057714 114.654078 
L 568.089348 119.90979 
L 568.184075 140.200835 
L 568.199837 126.030367 
L 568.26281 113.390043 
L 568.309962 114.587555 
L 568.325665 114.787141 
L 568.497912 141.664456 
L 568.544735 114.055338 
L 568.607065 141.730979 
L 568.622629 119.577158 
L 568.669279 115.718529 
L 568.653736 128.558438 
L 568.715864 116.51687 
L 568.793362 134.545952 
L 568.80884 126.096906 
L 568.824311 114.720617 
L 568.901559 121.107303 
L 568.97863 149.714347 
L 568.947823 115.119772 
L 568.994023 128.026205 
L 569.070882 115.518943 
L 569.086233 119.577158 
L 569.193492 144.458635 
L 569.162881 116.383808 
L 569.208786 132.949285 
L 569.254629 113.855753 
L 569.300409 120.508546 
L 569.315655 135.410817 
L 569.330894 116.117699 
L 569.406986 117.58132 
L 569.422184 118.113537 
L 569.452558 117.115626 
L 569.467735 125.631196 
L 569.543518 114.254908 
L 569.558654 114.720617 
L 569.61913 115.984637 
L 569.634232 115.851591 
L 569.724701 113.123934 
L 569.739756 114.787141 
L 569.799906 136.475267 
L 569.844949 118.047014 
L 569.874943 116.383808 
L 569.934852 137.20707 
L 569.964766 115.319358 
L 569.979714 116.250762 
L 570.024515 142.063626 
L 570.05435 113.855753 
L 570.099052 123.435772 
L 570.188278 113.190473 
L 570.217968 113.789214 
L 570.292076 112.724764 
L 570.336463 129.356764 
L 570.351246 112.724764 
L 570.439804 137.473194 
L 570.513425 116.849502 
L 570.469272 143.793356 
L 570.55752 125.697735 
L 570.586885 135.94305 
L 570.616224 113.523105 
L 570.645537 114.720617 
L 570.674825 114.587555 
L 570.689459 115.652005 
L 570.718708 138.537628 
L 570.762535 115.45242 
L 570.79172 119.444096 
L 570.850016 113.988799 
L 570.90821 115.585482 
L 570.980812 113.589628 
L 570.966304 118.446185 
L 571.024297 114.055338 
L 571.067726 113.922276 
L 571.154416 117.248673 
L 571.183263 147.65197 
L 571.284033 143.59377 
L 571.312769 114.055338 
L 571.398829 123.568835 
L 571.413151 138.936799 
L 571.441776 113.32352 
L 571.498954 122.903555 
L 571.570289 114.920187 
L 571.541773 133.681087 
L 571.584538 120.375484 
L 571.598781 149.315176 
L 571.655692 113.057411 
L 571.698312 126.296491 
L 571.755055 113.123934 
L 571.811702 121.240349 
L 571.839989 138.737214 
L 571.910604 113.589628 
L 572.009216 127.826619 
L 572.051389 116.317285 
L 572.065435 112.458655 
L 572.163594 114.121861 
L 572.247501 113.123934 
L 572.303323 137.340132 
L 572.345129 113.523105 
L 572.428585 116.250762 
L 572.456357 113.057411 
L 572.525688 117.18215 
L 572.539537 116.849502 
L 572.567218 130.155105 
L 572.622511 114.654078 
L 572.63632 115.585482 
L 572.650123 115.585482 
L 572.70528 112.392132 
L 572.719055 115.851591 
L 572.746588 128.026205 
L 572.760346 114.454493 
L 572.815322 121.040764 
L 572.856495 113.855753 
L 572.883916 127.959682 
L 572.925005 114.38797 
L 573.03433 152.441988 
L 573.075235 113.656167 
L 573.156896 119.510619 
L 573.211227 113.190473 
L 573.279017 114.654078 
L 573.292558 114.853664 
L 573.306094 135.610402 
L 573.373693 113.988799 
L 573.400694 124.633285 
L 573.495028 151.444061 
L 573.454632 115.119772 
L 573.535376 132.350529 
L 573.642733 113.656167 
L 573.589097 136.275682 
L 573.656128 114.055338 
L 573.709657 140.067772 
L 573.682904 113.390043 
L 573.763101 122.70397 
L 573.856423 112.857826 
L 573.883038 116.383808 
L 573.896338 138.404582 
L 573.936207 116.184223 
L 573.989291 136.475267 
L 574.108424 114.321447 
L 574.213966 116.250762 
L 574.187611 113.390043 
L 574.227135 116.117699 
L 574.253459 112.924349 
L 574.279761 117.514781 
L 574.332305 113.456582 
L 574.371659 123.502311 
L 574.489444 121.972167 
L 574.58077 113.523105 
L 574.606818 113.855753 
L 574.645851 133.215393 
L 574.710806 112.791303 
L 574.723782 114.055338 
L 574.736753 144.591682 
L 574.814473 113.72269 
L 574.827409 114.321447 
L 574.853266 120.57507 
L 574.90492 113.855753 
L 574.943608 116.716456 
L 574.956494 116.583393 
L 574.969375 113.256997 
L 574.995123 128.292329 
L 575.020851 135.47734 
L 575.059406 113.656167 
L 575.072248 113.190473 
L 575.085084 114.654078 
L 575.110743 114.321447 
L 575.213184 112.857826 
L 575.225967 151.111429 
L 575.340796 113.32352 
L 575.36626 136.475267 
L 575.442538 117.248673 
L 575.467925 113.523105 
L 575.50597 117.514781 
L 575.518642 130.35469 
L 575.58193 113.390043 
L 575.619846 127.294402 
L 575.645099 133.414979 
L 575.682944 115.319358 
L 575.695549 128.558438 
L 575.783655 112.65824 
L 575.808785 114.787141 
L 575.821343 117.248673 
L 575.833897 113.456582 
L 575.92164 116.583393 
L 575.934156 115.785052 
L 575.984174 140.866114 
L 576.046591 132.150943 
L 576.05906 131.618726 
L 576.183501 114.720617 
L 576.19592 113.72269 
L 576.220744 119.31105 
L 576.233149 119.976329 
L 576.245549 137.074023 
L 576.295105 112.791303 
L 576.332224 114.853664 
L 576.443335 137.872349 
L 576.369302 113.855753 
L 576.467976 132.683176 
L 576.566361 114.454493 
L 576.590912 115.45242 
L 576.603181 131.751772 
L 576.639961 113.190473 
L 576.701171 114.38797 
L 576.750059 141.531393 
L 576.811069 117.115626 
L 576.908454 113.190473 
L 576.884134 122.570908 
L 576.932756 113.789214 
L 577.02979 124.633285 
L 577.041899 147.785032 
L 577.102381 114.853664 
L 577.126543 115.718529 
L 577.138618 115.984637 
L 577.162754 145.123915 
L 577.223019 114.188384 
L 577.259125 125.032456 
L 577.367213 113.988799 
L 577.319217 127.560511 
L 577.379202 114.254908 
L 577.427112 129.556349 
L 577.463 112.192546 
L 577.510791 116.649917 
L 577.522728 151.5106 
L 577.558514 114.055338 
L 577.618073 119.90979 
L 577.653757 112.791303 
L 577.665644 115.186311 
L 577.677526 151.710185 
L 577.689404 112.65824 
L 577.772432 127.760096 
L 577.796117 113.988799 
L 577.855255 143.726817 
L 577.878881 115.918114 
L 577.91429 142.329735 
L 577.97322 114.055338 
L 577.984994 116.916041 
L 577.996764 121.040764 
L 578.008529 112.65824 
L 578.079036 115.585482 
L 578.090772 112.924349 
L 578.125958 116.583393 
L 578.184518 116.450331 
L 578.207914 114.121861 
L 578.231293 116.583393 
L 578.266332 141.730979 
L 578.312993 113.922276 
L 578.336299 116.051176 
L 578.371228 111.926438 
L 578.406121 116.383808 
L 578.417744 129.755934 
L 578.498991 113.789214 
L 578.522168 129.356764 
L 578.580042 112.924349 
L 578.672433 113.922276 
L 578.730048 142.396258 
L 578.753066 113.057411 
L 578.776069 114.38797 
L 578.787564 114.38797 
L 578.844982 113.390043 
L 578.856454 115.851591 
L 578.867922 145.92224 
L 578.970957 133.414979 
L 578.982386 137.140546 
L 579.016649 114.986726 
L 579.050877 114.454493 
L 579.062279 116.117699 
L 579.141982 135.410817 
L 579.107847 115.585482 
L 579.16472 117.115626 
L 579.221497 114.521032 
L 579.23284 119.843267 
L 579.24418 141.198762 
L 579.31214 116.317285 
L 579.334762 116.450331 
L 579.368668 113.988799 
L 579.35737 119.244511 
L 579.391252 115.45242 
L 579.458915 143.527231 
L 579.503948 141.398347 
L 579.627477 112.392132 
L 579.661088 145.789194 
L 579.739383 113.855753 
L 579.750553 112.924349 
L 579.772882 117.780906 
L 579.784041 128.358852 
L 579.850917 113.988799 
L 579.873179 115.785052 
L 579.895427 113.922276 
L 579.906545 134.812061 
L 579.995359 112.25907 
L 580.006444 114.055338 
L 580.083938 113.656167 
L 580.106046 120.175915 
L 580.12814 150.313087 
L 580.194334 112.591717 
L 580.205354 116.51687 
L 580.271396 112.857826 
L 580.260398 124.433699 
L 580.326332 113.456582 
L 580.337308 113.589628 
L 580.348281 123.76842 
L 580.370216 113.190473 
L 580.435935 115.652005 
L 580.446875 112.126023 
L 580.52336 118.712294 
L 580.545181 130.753861 
L 580.577885 112.525194 
L 580.599671 113.390043 
L 580.632322 115.785052 
L 580.686671 113.123934 
L 580.69753 112.25907 
L 580.708385 116.184223 
L 580.795104 147.65197 
L 580.762611 113.72269 
L 580.83838 143.660294 
L 580.8816 111.660329 
L 580.957101 118.978402 
L 580.967873 131.951358 
L 581.000168 112.990888 
L 581.064666 114.720617 
L 581.18259 140.267358 
L 581.15047 112.65824 
L 581.19329 123.169664 
L 581.300101 112.392132 
L 581.310764 113.72269 
L 581.406573 113.523105 
L 581.438449 139.469032 
L 581.565651 114.055338 
L 581.586805 112.924349 
L 581.607945 116.184223 
L 581.63963 136.408744 
L 581.702911 112.65824 
L 581.713446 114.254908 
L 581.745032 112.791303 
L 581.755554 115.652005 
L 581.766073 113.72269 
L 581.860593 112.990888 
L 581.892041 140.932637 
L 581.965304 112.525194 
L 581.975758 152.57505 
L 582.027975 114.587555 
L 582.038408 112.392132 
L 582.048839 115.319358 
L 582.06969 135.676925 
L 582.152965 112.857826 
L 582.18414 112.325609 
L 582.287848 142.13015 
L 582.360253 112.924349 
L 582.401557 114.787141 
L 582.42219 112.65824 
L 582.453116 121.306888 
L 582.545723 113.988799 
L 582.555997 145.789194 
L 582.566268 112.392132 
L 582.668803 136.275682 
L 582.689272 113.523105 
L 582.771026 136.209158 
L 582.781231 139.602078 
L 582.811828 115.385897 
L 582.822021 115.585482 
L 582.842397 140.799591 
L 582.954245 135.543879 
L 583.004963 113.256997 
L 583.075838 113.72269 
L 583.106168 115.585482 
L 583.13647 147.785032 
L 583.17683 113.855753 
L 583.207069 129.755934 
L 583.257405 111.793376 
L 583.32775 113.190473 
L 583.337787 113.190473 
L 583.347822 112.192546 
L 583.367881 119.244511 
L 583.377906 116.117699 
L 583.447999 136.674852 
L 583.467999 114.720617 
L 583.477994 115.053249 
L 583.517946 113.988799 
L 583.627569 135.211231 
L 583.637517 129.223717 
L 583.74675 112.392132 
L 583.697143 132.150943 
L 583.756663 113.922276 
L 583.885262 138.604167 
L 583.895134 135.543879 
L 583.94445 112.126023 
L 584.003533 130.022059 
L 584.023204 116.317285 
L 584.042864 120.442023 
L 584.05269 150.978367 
L 584.101775 113.456582 
L 584.150788 135.876511 
L 584.258365 112.924349 
L 584.219286 140.932637 
L 584.277888 115.45242 
L 584.316899 139.934726 
L 584.385059 113.589628 
L 584.511277 134.679014 
L 584.453082 113.456582 
L 584.520966 118.379646 
L 584.579044 113.390043 
L 584.637021 114.587555 
L 584.685259 111.859899 
L 584.704535 113.32352 
L 584.733428 112.924349 
L 584.829558 132.550114 
L 584.867934 117.647843 
L 584.848751 135.94305 
L 584.877521 128.159267 
L 584.887105 112.990888 
L 584.944553 139.069861 
L 584.992351 119.577158 
L 585.03054 112.059484 
L 585.049619 128.491915 
L 585.106789 114.055338 
L 585.116308 113.589628 
L 585.125824 114.853664 
L 585.173365 142.263212 
L 585.163862 113.922276 
L 585.230325 116.117699 
L 585.239809 113.855753 
L 585.249291 116.583393 
L 585.258769 138.204997 
L 585.325045 112.791303 
L 585.353408 114.521032 
L 585.419497 142.795429 
L 585.447781 113.72269 
L 585.457204 112.525194 
L 585.466624 116.184223 
L 585.485456 114.188384 
L 585.504278 128.957609 
L 585.551286 112.857826 
L 585.588845 113.789214 
L 585.682559 123.036617 
L 585.626362 112.724764 
L 585.729318 116.250762 
L 585.738662 114.188384 
L 585.748003 119.90979 
L 585.776011 119.177988 
L 585.785342 152.308925 
L 585.869205 113.523105 
L 585.87851 115.984637 
L 585.897112 127.560511 
L 585.90641 146.720582 
L 585.999242 112.325609 
L 586.073323 129.157194 
L 586.036303 112.192546 
L 586.119541 116.383808 
L 586.13801 112.059484 
L 586.15647 117.913952 
L 586.220997 112.924349 
L 586.230205 132.749699 
L 586.2854 112.325609 
L 586.331327 116.716456 
L 586.432146 112.990888 
L 586.413837 120.109376 
L 586.450444 113.32352 
L 586.560023 140.932637 
L 586.569139 133.747626 
L 586.62378 112.724764 
L 586.669246 140.200835 
L 586.678332 133.082347 
L 586.75093 112.458655 
L 586.778114 124.500223 
L 586.787171 143.327646 
L 586.850498 112.392132 
L 586.877601 114.986726 
L 586.886631 114.254908 
L 586.976794 137.539717 
L 586.95878 112.724764 
L 587.003795 134.679014 
L 587.093644 112.990888 
L 587.075694 144.25905 
L 587.120552 114.055338 
L 587.129516 137.007484 
L 587.174303 111.859899 
L 587.227968 114.121861 
L 587.263697 142.329735 
L 587.317219 112.65824 
L 587.335041 114.654078 
L 587.352854 115.385897 
L 587.370657 113.72269 
L 587.477276 140.001249 
L 587.503878 112.65824 
L 587.5924 119.843267 
L 587.636573 113.789214 
L 587.680688 123.435772 
L 587.689504 132.882762 
L 587.73355 112.857826 
L 587.795117 132.08442 
L 587.803903 136.209158 
L 587.821468 111.926438 
L 587.865341 120.907717 
L 587.979143 112.591717 
L 587.935419 130.620799 
L 587.987881 115.252835 
L 587.996617 113.123934 
L 588.048983 115.518943 
L 588.075136 114.055338 
L 588.170855 131.153032 
L 588.127381 113.656167 
L 588.179544 114.787141 
L 588.18823 114.654078 
L 588.240298 143.859879 
L 588.266303 113.922276 
L 588.292286 123.834943 
L 588.3269 112.25907 
L 588.361479 143.793356 
L 588.404652 113.922276 
L 588.447769 155.435753 
L 588.551025 130.221628 
L 588.628259 112.857826 
L 588.593955 139.402493 
L 588.653965 129.223717 
L 588.722416 152.308925 
L 588.713867 115.785052 
L 588.756589 125.49815 
L 588.765127 112.924349 
L 588.833352 129.755934 
L 588.858901 116.184223 
L 588.93543 137.273609 
L 588.875922 112.990888 
L 588.969387 117.847429 
L 588.986353 113.32352 
L 588.994832 145.589609 
L 589.00331 146.787105 
L 589.020258 134.013735 
L 589.096421 113.390043 
L 589.062592 146.188349 
L 589.130216 119.843267 
L 589.138659 155.103105 
L 589.20613 111.992961 
L 589.239814 127.360925 
L 589.340665 130.022059 
L 589.357444 113.390043 
L 589.399355 119.111464 
L 589.416104 133.348456 
L 589.457942 113.656167 
L 589.499728 117.514781 
L 589.591473 111.660329 
L 589.608127 116.649917 
L 589.616451 116.849502 
L 589.624773 114.188384 
L 589.633093 134.612491 
L 589.649726 131.618726 
L 589.707878 152.308925 
L 589.699577 116.849502 
L 589.757643 141.664456 
L 589.790779 113.589628 
L 589.873474 115.585482 
L 589.939484 120.57507 
L 589.889989 112.25907 
L 589.947727 116.982564 
L 589.964205 113.256997 
L 589.988907 124.699808 
L 589.997137 123.169664 
L 590.005365 143.394185 
L 590.09574 111.859899 
L 590.103944 117.448258 
L 590.185872 133.947196 
L 590.136739 112.525194 
L 590.210412 115.252835 
L 590.251271 112.924349 
L 590.267601 120.042852 
L 590.365414 125.830781 
L 590.300237 113.589628 
L 590.373552 125.365087 
L 590.397955 112.791303 
L 590.454825 142.928491 
L 590.495388 113.789214 
L 590.5116 115.252835 
L 590.608705 145.722655 
L 590.552094 112.724764 
L 590.616784 145.52307 
L 590.632937 112.791303 
L 590.729692 120.175915 
L 590.786003 112.059484 
L 590.802075 144.525158 
L 590.810108 135.743464 
L 590.858265 155.036582 
L 590.882318 114.853664 
L 590.890332 115.585482 
L 590.898344 129.223717 
L 590.946375 112.192546 
L 590.946375 112.192546 
" clip-path="url(#p106f278a13)" style="fill: none; stroke: #1f77b4; stroke-width: 1.5; stroke-linecap: square"/>
   </g>
   <g id="patch_3">
    <path d="M 233.826375 311.6435 
L 233.826375 45.5315 
" style="fill: none; stroke: #000000; stroke-width: 0.8; stroke-linejoin: miter; stroke-linecap: square"/>
   </g>
   <g id="patch_4">
    <path d="M 590.946375 311.6435 
L 590.946375 45.5315 
" style="fill: none; stroke: #000000; stroke-width: 0.8; stroke-linejoin: miter; stroke-linecap: square"/>
   </g>
   <g id="patch_5">
    <path d="M 233.826375 311.6435 
L 590.946375 311.6435 
" style="fill: none; stroke: #000000; stroke-width: 0.8; stroke-linejoin: miter; stroke-linecap: square"/>
   </g>
   <g id="patch_6">
    <path d="M 233.826375 45.5315 
L 590.946375 45.5315 
" style="fill: none; stroke: #000000; stroke-width: 0.8; stroke-linejoin: miter; stroke-linecap: square"/>
   </g>
   <g id="text_18">
    <!-- Accuracy of the CIFAR10_model_(1024+512+512+1)* on the validation set -->
    <g transform="translate(7.2 25.5315) scale(0.264 -0.264)">
     <defs>
      <path id="TimesNewRomanPSMT-20" transform="scale(0.015625)"/>
      <path id="TimesNewRomanPSMT-6f" d="M 1600 2947 
Q 2250 2947 2644 2453 
Q 2978 2031 2978 1484 
Q 2978 1100 2793 706 
Q 2609 313 2286 112 
Q 1963 -88 1566 -88 
Q 919 -88 538 428 
Q 216 863 216 1403 
Q 216 1797 411 2186 
Q 606 2575 925 2761 
Q 1244 2947 1600 2947 
z
M 1503 2744 
Q 1338 2744 1170 2645 
Q 1003 2547 900 2300 
Q 797 2053 797 1666 
Q 797 1041 1045 587 
Q 1294 134 1700 134 
Q 2003 134 2200 384 
Q 2397 634 2397 1244 
Q 2397 2006 2069 2444 
Q 1847 2744 1503 2744 
z
" transform="scale(0.015625)"/>
      <path id="TimesNewRomanPSMT-66" d="M 1319 2638 
L 1319 756 
Q 1319 356 1406 250 
Q 1522 113 1716 113 
L 1975 113 
L 1975 0 
L 266 0 
L 266 113 
L 394 113 
Q 519 113 622 175 
Q 725 238 764 344 
Q 803 450 803 756 
L 803 2638 
L 247 2638 
L 247 2863 
L 803 2863 
L 803 3050 
Q 803 3478 940 3775 
Q 1078 4072 1361 4255 
Q 1644 4438 1997 4438 
Q 2325 4438 2600 4225 
Q 2781 4084 2781 3909 
Q 2781 3816 2700 3733 
Q 2619 3650 2525 3650 
Q 2453 3650 2373 3701 
Q 2294 3753 2178 3923 
Q 2063 4094 1966 4153 
Q 1869 4213 1750 4213 
Q 1606 4213 1506 4136 
Q 1406 4059 1362 3898 
Q 1319 3738 1319 3069 
L 1319 2863 
L 2056 2863 
L 2056 2638 
L 1319 2638 
z
" transform="scale(0.015625)"/>
      <path id="TimesNewRomanPSMT-74" d="M 1031 3803 
L 1031 2863 
L 1700 2863 
L 1700 2644 
L 1031 2644 
L 1031 788 
Q 1031 509 1111 412 
Q 1191 316 1316 316 
Q 1419 316 1516 380 
Q 1613 444 1666 569 
L 1788 569 
Q 1678 263 1478 108 
Q 1278 -47 1066 -47 
Q 922 -47 784 33 
Q 647 113 581 261 
Q 516 409 516 719 
L 516 2644 
L 63 2644 
L 63 2747 
Q 234 2816 414 2980 
Q 594 3144 734 3369 
Q 806 3488 934 3803 
L 1031 3803 
z
" transform="scale(0.015625)"/>
      <path id="TimesNewRomanPSMT-68" d="M 1041 4444 
L 1041 2350 
Q 1388 2731 1591 2839 
Q 1794 2947 1997 2947 
Q 2241 2947 2416 2812 
Q 2591 2678 2675 2391 
Q 2734 2191 2734 1659 
L 2734 647 
Q 2734 375 2778 275 
Q 2809 200 2884 156 
Q 2959 113 3159 113 
L 3159 0 
L 1753 0 
L 1753 113 
L 1819 113 
Q 2019 113 2097 173 
Q 2175 234 2206 353 
Q 2216 403 2216 647 
L 2216 1659 
Q 2216 2128 2167 2275 
Q 2119 2422 2012 2495 
Q 1906 2569 1756 2569 
Q 1603 2569 1437 2487 
Q 1272 2406 1041 2159 
L 1041 647 
Q 1041 353 1073 281 
Q 1106 209 1195 161 
Q 1284 113 1503 113 
L 1503 0 
L 84 0 
L 84 113 
Q 275 113 384 172 
Q 447 203 484 290 
Q 522 378 522 647 
L 522 3238 
Q 522 3728 498 3840 
Q 475 3953 426 3993 
Q 378 4034 297 4034 
Q 231 4034 84 3984 
L 41 4094 
L 897 4444 
L 1041 4444 
z
" transform="scale(0.015625)"/>
      <path id="TimesNewRomanPSMT-65" d="M 681 1784 
Q 678 1147 991 784 
Q 1303 422 1725 422 
Q 2006 422 2214 576 
Q 2422 731 2563 1106 
L 2659 1044 
Q 2594 616 2278 264 
Q 1963 -88 1488 -88 
Q 972 -88 605 314 
Q 238 716 238 1394 
Q 238 2128 614 2539 
Q 991 2950 1559 2950 
Q 2041 2950 2350 2633 
Q 2659 2316 2659 1784 
L 681 1784 
z
M 681 1966 
L 2006 1966 
Q 1991 2241 1941 2353 
Q 1863 2528 1708 2628 
Q 1553 2728 1384 2728 
Q 1125 2728 920 2526 
Q 716 2325 681 1966 
z
" transform="scale(0.015625)"/>
      <path id="TimesNewRomanPSMT-43" d="M 3853 4334 
L 3950 2894 
L 3853 2894 
Q 3659 3541 3300 3825 
Q 2941 4109 2438 4109 
Q 2016 4109 1675 3895 
Q 1334 3681 1139 3212 
Q 944 2744 944 2047 
Q 944 1472 1128 1050 
Q 1313 628 1683 403 
Q 2053 178 2528 178 
Q 2941 178 3256 354 
Q 3572 531 3950 1056 
L 4047 994 
Q 3728 428 3303 165 
Q 2878 -97 2294 -97 
Q 1241 -97 663 684 
Q 231 1266 231 2053 
Q 231 2688 515 3219 
Q 800 3750 1298 4042 
Q 1797 4334 2388 4334 
Q 2847 4334 3294 4109 
Q 3425 4041 3481 4041 
Q 3566 4041 3628 4100 
Q 3709 4184 3744 4334 
L 3853 4334 
z
" transform="scale(0.015625)"/>
      <path id="TimesNewRomanPSMT-49" d="M 1975 116 
L 1975 0 
L 159 0 
L 159 116 
L 309 116 
Q 572 116 691 269 
Q 766 369 766 750 
L 766 3488 
Q 766 3809 725 3913 
Q 694 3991 597 4047 
Q 459 4122 309 4122 
L 159 4122 
L 159 4238 
L 1975 4238 
L 1975 4122 
L 1822 4122 
Q 1563 4122 1444 3969 
Q 1366 3869 1366 3488 
L 1366 750 
Q 1366 428 1406 325 
Q 1438 247 1538 191 
Q 1672 116 1822 116 
L 1975 116 
z
" transform="scale(0.015625)"/>
      <path id="TimesNewRomanPSMT-46" d="M 1309 4006 
L 1309 2341 
L 2081 2341 
Q 2347 2341 2470 2458 
Q 2594 2575 2634 2922 
L 2750 2922 
L 2750 1488 
L 2634 1488 
Q 2631 1734 2570 1850 
Q 2509 1966 2401 2023 
Q 2294 2081 2081 2081 
L 1309 2081 
L 1309 750 
Q 1309 428 1350 325 
Q 1381 247 1481 191 
Q 1619 116 1769 116 
L 1922 116 
L 1922 0 
L 103 0 
L 103 116 
L 253 116 
Q 516 116 634 269 
Q 709 369 709 750 
L 709 3488 
Q 709 3809 669 3913 
Q 638 3991 541 4047 
Q 406 4122 253 4122 
L 103 4122 
L 103 4238 
L 3256 4238 
L 3297 3306 
L 3188 3306 
Q 3106 3603 2998 3742 
Q 2891 3881 2733 3943 
Q 2575 4006 2244 4006 
L 1309 4006 
z
" transform="scale(0.015625)"/>
      <path id="TimesNewRomanPSMT-52" d="M 4325 0 
L 3194 0 
L 1759 1981 
Q 1600 1975 1500 1975 
Q 1459 1975 1412 1976 
Q 1366 1978 1316 1981 
L 1316 750 
Q 1316 350 1403 253 
Q 1522 116 1759 116 
L 1925 116 
L 1925 0 
L 109 0 
L 109 116 
L 269 116 
Q 538 116 653 291 
Q 719 388 719 750 
L 719 3488 
Q 719 3888 631 3984 
Q 509 4122 269 4122 
L 109 4122 
L 109 4238 
L 1653 4238 
Q 2328 4238 2648 4139 
Q 2969 4041 3192 3777 
Q 3416 3513 3416 3147 
Q 3416 2756 3161 2468 
Q 2906 2181 2372 2063 
L 3247 847 
Q 3547 428 3762 290 
Q 3978 153 4325 116 
L 4325 0 
z
M 1316 2178 
Q 1375 2178 1419 2176 
Q 1463 2175 1491 2175 
Q 2097 2175 2405 2437 
Q 2713 2700 2713 3106 
Q 2713 3503 2464 3751 
Q 2216 4000 1806 4000 
Q 1625 4000 1316 3941 
L 1316 2178 
z
" transform="scale(0.015625)"/>
      <path id="TimesNewRomanPSMT-5f" d="M 3256 -1381 
L -53 -1381 
L -53 -1119 
L 3256 -1119 
L 3256 -1381 
z
" transform="scale(0.015625)"/>
      <path id="TimesNewRomanPSMT-6d" d="M 1050 2338 
Q 1363 2650 1419 2697 
Q 1559 2816 1721 2881 
Q 1884 2947 2044 2947 
Q 2313 2947 2506 2790 
Q 2700 2634 2766 2338 
Q 3088 2713 3309 2830 
Q 3531 2947 3766 2947 
Q 3994 2947 4170 2830 
Q 4347 2713 4450 2447 
Q 4519 2266 4519 1878 
L 4519 647 
Q 4519 378 4559 278 
Q 4591 209 4675 161 
Q 4759 113 4950 113 
L 4950 0 
L 3538 0 
L 3538 113 
L 3597 113 
Q 3781 113 3884 184 
Q 3956 234 3988 344 
Q 4000 397 4000 647 
L 4000 1878 
Q 4000 2228 3916 2372 
Q 3794 2572 3525 2572 
Q 3359 2572 3192 2489 
Q 3025 2406 2788 2181 
L 2781 2147 
L 2788 2013 
L 2788 647 
Q 2788 353 2820 281 
Q 2853 209 2943 161 
Q 3034 113 3253 113 
L 3253 0 
L 1806 0 
L 1806 113 
Q 2044 113 2133 169 
Q 2222 225 2256 338 
Q 2272 391 2272 647 
L 2272 1878 
Q 2272 2228 2169 2381 
Q 2031 2581 1784 2581 
Q 1616 2581 1450 2491 
Q 1191 2353 1050 2181 
L 1050 647 
Q 1050 366 1089 281 
Q 1128 197 1204 155 
Q 1281 113 1516 113 
L 1516 0 
L 100 0 
L 100 113 
Q 297 113 375 155 
Q 453 197 493 289 
Q 534 381 534 647 
L 534 1741 
Q 534 2213 506 2350 
Q 484 2453 437 2492 
Q 391 2531 309 2531 
Q 222 2531 100 2484 
L 53 2597 
L 916 2947 
L 1050 2947 
L 1050 2338 
z
" transform="scale(0.015625)"/>
      <path id="TimesNewRomanPSMT-64" d="M 2222 322 
Q 2013 103 1813 7 
Q 1613 -88 1381 -88 
Q 913 -88 563 304 
Q 213 697 213 1313 
Q 213 1928 600 2439 
Q 988 2950 1597 2950 
Q 1975 2950 2222 2709 
L 2222 3238 
Q 2222 3728 2198 3840 
Q 2175 3953 2125 3993 
Q 2075 4034 2000 4034 
Q 1919 4034 1784 3984 
L 1744 4094 
L 2597 4444 
L 2738 4444 
L 2738 1134 
Q 2738 631 2761 520 
Q 2784 409 2836 365 
Q 2888 322 2956 322 
Q 3041 322 3181 375 
L 3216 266 
L 2366 -88 
L 2222 -88 
L 2222 322 
z
M 2222 541 
L 2222 2016 
Q 2203 2228 2109 2403 
Q 2016 2578 1861 2667 
Q 1706 2756 1559 2756 
Q 1284 2756 1069 2509 
Q 784 2184 784 1559 
Q 784 928 1059 592 
Q 1334 256 1672 256 
Q 1956 256 2222 541 
z
" transform="scale(0.015625)"/>
      <path id="TimesNewRomanPSMT-6c" d="M 1184 4444 
L 1184 647 
Q 1184 378 1223 290 
Q 1263 203 1344 158 
Q 1425 113 1647 113 
L 1647 0 
L 244 0 
L 244 113 
Q 441 113 512 153 
Q 584 194 625 287 
Q 666 381 666 647 
L 666 3247 
Q 666 3731 644 3842 
Q 622 3953 573 3993 
Q 525 4034 450 4034 
Q 369 4034 244 3984 
L 191 4094 
L 1044 4444 
L 1184 4444 
z
" transform="scale(0.015625)"/>
      <path id="TimesNewRomanPSMT-28" d="M 1988 -1253 
L 1988 -1369 
Q 1516 -1131 1200 -813 
Q 750 -359 506 256 
Q 263 872 263 1534 
Q 263 2503 741 3301 
Q 1219 4100 1988 4444 
L 1988 4313 
Q 1603 4100 1356 3731 
Q 1109 3363 987 2797 
Q 866 2231 866 1616 
Q 866 947 969 400 
Q 1050 -31 1165 -292 
Q 1281 -553 1476 -793 
Q 1672 -1034 1988 -1253 
z
" transform="scale(0.015625)"/>
      <path id="TimesNewRomanPSMT-2b" d="M 1672 441 
L 1672 2000 
L 116 2000 
L 116 2256 
L 1672 2256 
L 1672 3809 
L 1922 3809 
L 1922 2256 
L 3484 2256 
L 3484 2000 
L 1922 2000 
L 1922 441 
L 1672 441 
z
" transform="scale(0.015625)"/>
      <path id="TimesNewRomanPSMT-29" d="M 144 4313 
L 144 4444 
Q 619 4209 934 3891 
Q 1381 3434 1625 2820 
Q 1869 2206 1869 1541 
Q 1869 572 1392 -226 
Q 916 -1025 144 -1369 
L 144 -1253 
Q 528 -1038 776 -670 
Q 1025 -303 1145 264 
Q 1266 831 1266 1447 
Q 1266 2113 1163 2663 
Q 1084 3094 967 3353 
Q 850 3613 656 3853 
Q 463 4094 144 4313 
z
" transform="scale(0.015625)"/>
      <path id="TimesNewRomanPSMT-2a" d="M 1544 3263 
Q 1531 3478 1456 3691 
Q 1350 3997 1350 4113 
Q 1350 4275 1426 4359 
Q 1503 4444 1616 4444 
Q 1713 4444 1784 4359 
Q 1856 4275 1856 4119 
Q 1856 3978 1773 3726 
Q 1691 3475 1672 3263 
Q 1844 3372 1981 3528 
Q 2194 3775 2297 3834 
Q 2400 3894 2506 3894 
Q 2609 3894 2679 3823 
Q 2750 3753 2750 3656 
Q 2750 3541 2647 3450 
Q 2544 3359 2131 3269 
Q 1891 3216 1731 3147 
Q 1894 3063 2128 3019 
Q 2506 2950 2623 2847 
Q 2741 2744 2741 2622 
Q 2741 2528 2670 2459 
Q 2600 2391 2506 2391 
Q 2413 2391 2298 2456 
Q 2184 2522 1991 2750 
Q 1863 2903 1672 3038 
Q 1678 2859 1744 2650 
Q 1856 2281 1856 2147 
Q 1856 2022 1781 1936 
Q 1706 1850 1622 1850 
Q 1506 1850 1413 1941 
Q 1347 2006 1347 2150 
Q 1347 2300 1419 2511 
Q 1491 2722 1509 2801 
Q 1528 2881 1544 3038 
Q 1359 2916 1222 2766 
Q 994 2509 878 2441 
Q 797 2391 709 2391 
Q 603 2391 528 2462 
Q 453 2534 453 2622 
Q 453 2700 517 2786 
Q 581 2872 709 2928 
Q 794 2966 1094 3028 
Q 1288 3069 1472 3147 
Q 1303 3231 1069 3278 
Q 684 3359 594 3425 
Q 453 3528 453 3675 
Q 453 3759 523 3829 
Q 594 3900 688 3900 
Q 791 3900 906 3834 
Q 1022 3769 1194 3570 
Q 1366 3372 1544 3263 
z
" transform="scale(0.015625)"/>
      <path id="TimesNewRomanPSMT-6e" d="M 1034 2341 
Q 1538 2947 1994 2947 
Q 2228 2947 2397 2830 
Q 2566 2713 2666 2444 
Q 2734 2256 2734 1869 
L 2734 647 
Q 2734 375 2778 278 
Q 2813 200 2889 156 
Q 2966 113 3172 113 
L 3172 0 
L 1756 0 
L 1756 113 
L 1816 113 
Q 2016 113 2095 173 
Q 2175 234 2206 353 
Q 2219 400 2219 647 
L 2219 1819 
Q 2219 2209 2117 2386 
Q 2016 2563 1775 2563 
Q 1403 2563 1034 2156 
L 1034 647 
Q 1034 356 1069 288 
Q 1113 197 1189 155 
Q 1266 113 1500 113 
L 1500 0 
L 84 0 
L 84 113 
L 147 113 
Q 366 113 442 223 
Q 519 334 519 647 
L 519 1709 
Q 519 2225 495 2337 
Q 472 2450 423 2490 
Q 375 2531 294 2531 
Q 206 2531 84 2484 
L 38 2597 
L 900 2947 
L 1034 2947 
L 1034 2341 
z
" transform="scale(0.015625)"/>
      <path id="TimesNewRomanPSMT-76" d="M 53 2863 
L 1400 2863 
L 1400 2747 
L 1313 2747 
Q 1191 2747 1127 2687 
Q 1063 2628 1063 2528 
Q 1063 2419 1128 2269 
L 1794 688 
L 2463 2328 
Q 2534 2503 2534 2594 
Q 2534 2638 2509 2666 
Q 2475 2713 2422 2730 
Q 2369 2747 2206 2747 
L 2206 2863 
L 3141 2863 
L 3141 2747 
Q 2978 2734 2916 2681 
Q 2806 2588 2719 2369 
L 1703 -88 
L 1575 -88 
L 553 2328 
Q 484 2497 421 2570 
Q 359 2644 263 2694 
Q 209 2722 53 2747 
L 53 2863 
z
" transform="scale(0.015625)"/>
      <path id="TimesNewRomanPSMT-69" d="M 928 4444 
Q 1059 4444 1151 4351 
Q 1244 4259 1244 4128 
Q 1244 3997 1151 3903 
Q 1059 3809 928 3809 
Q 797 3809 703 3903 
Q 609 3997 609 4128 
Q 609 4259 701 4351 
Q 794 4444 928 4444 
z
M 1188 2947 
L 1188 647 
Q 1188 378 1227 289 
Q 1266 200 1342 156 
Q 1419 113 1622 113 
L 1622 0 
L 231 0 
L 231 113 
Q 441 113 512 153 
Q 584 194 626 287 
Q 669 381 669 647 
L 669 1750 
Q 669 2216 641 2353 
Q 619 2453 572 2492 
Q 525 2531 444 2531 
Q 356 2531 231 2484 
L 188 2597 
L 1050 2947 
L 1188 2947 
z
" transform="scale(0.015625)"/>
      <path id="TimesNewRomanPSMT-73" d="M 2050 2947 
L 2050 1972 
L 1947 1972 
Q 1828 2431 1642 2597 
Q 1456 2763 1169 2763 
Q 950 2763 815 2647 
Q 681 2531 681 2391 
Q 681 2216 781 2091 
Q 878 1963 1175 1819 
L 1631 1597 
Q 2266 1288 2266 781 
Q 2266 391 1970 151 
Q 1675 -88 1309 -88 
Q 1047 -88 709 6 
Q 606 38 541 38 
Q 469 38 428 -44 
L 325 -44 
L 325 978 
L 428 978 
Q 516 541 762 319 
Q 1009 97 1316 97 
Q 1531 97 1667 223 
Q 1803 350 1803 528 
Q 1803 744 1651 891 
Q 1500 1038 1047 1263 
Q 594 1488 453 1669 
Q 313 1847 313 2119 
Q 313 2472 555 2709 
Q 797 2947 1181 2947 
Q 1350 2947 1591 2875 
Q 1750 2828 1803 2828 
Q 1853 2828 1881 2850 
Q 1909 2872 1947 2947 
L 2050 2947 
z
" transform="scale(0.015625)"/>
     </defs>
     <use xlink:href="#TimesNewRomanPSMT-41"/>
     <use xlink:href="#TimesNewRomanPSMT-63" transform="translate(72.216797 0)"/>
     <use xlink:href="#TimesNewRomanPSMT-63" transform="translate(116.601562 0)"/>
     <use xlink:href="#TimesNewRomanPSMT-75" transform="translate(160.986328 0)"/>
     <use xlink:href="#TimesNewRomanPSMT-72" transform="translate(210.986328 0)"/>
     <use xlink:href="#TimesNewRomanPSMT-61" transform="translate(244.287109 0)"/>
     <use xlink:href="#TimesNewRomanPSMT-63" transform="translate(288.671875 0)"/>
     <use xlink:href="#TimesNewRomanPSMT-79" transform="translate(333.056641 0)"/>
     <use xlink:href="#TimesNewRomanPSMT-20" transform="translate(383.056641 0)"/>
     <use xlink:href="#TimesNewRomanPSMT-6f" transform="translate(408.056641 0)"/>
     <use xlink:href="#TimesNewRomanPSMT-66" transform="translate(458.056641 0)"/>
     <use xlink:href="#TimesNewRomanPSMT-20" transform="translate(491.357422 0)"/>
     <use xlink:href="#TimesNewRomanPSMT-74" transform="translate(516.357422 0)"/>
     <use xlink:href="#TimesNewRomanPSMT-68" transform="translate(544.140625 0)"/>
     <use xlink:href="#TimesNewRomanPSMT-65" transform="translate(594.140625 0)"/>
     <use xlink:href="#TimesNewRomanPSMT-20" transform="translate(638.525391 0)"/>
     <use xlink:href="#TimesNewRomanPSMT-43" transform="translate(663.525391 0)"/>
     <use xlink:href="#TimesNewRomanPSMT-49" transform="translate(730.224609 0)"/>
     <use xlink:href="#TimesNewRomanPSMT-46" transform="translate(763.525391 0)"/>
     <use xlink:href="#TimesNewRomanPSMT-41" transform="translate(811.765625 0)"/>
     <use xlink:href="#TimesNewRomanPSMT-52" transform="translate(883.982422 0)"/>
     <use xlink:href="#TimesNewRomanPSMT-31" transform="translate(950.681641 0)"/>
     <use xlink:href="#TimesNewRomanPSMT-30" transform="translate(1000.681641 0)"/>
     <use xlink:href="#TimesNewRomanPSMT-5f" transform="translate(1050.681641 0)"/>
     <use xlink:href="#TimesNewRomanPSMT-6d" transform="translate(1100.681641 0)"/>
     <use xlink:href="#TimesNewRomanPSMT-6f" transform="translate(1178.464844 0)"/>
     <use xlink:href="#TimesNewRomanPSMT-64" transform="translate(1228.464844 0)"/>
     <use xlink:href="#TimesNewRomanPSMT-65" transform="translate(1278.464844 0)"/>
     <use xlink:href="#TimesNewRomanPSMT-6c" transform="translate(1322.849609 0)"/>
     <use xlink:href="#TimesNewRomanPSMT-5f" transform="translate(1350.632812 0)"/>
     <use xlink:href="#TimesNewRomanPSMT-28" transform="translate(1400.632812 0)"/>
     <use xlink:href="#TimesNewRomanPSMT-31" transform="translate(1433.933594 0)"/>
     <use xlink:href="#TimesNewRomanPSMT-30" transform="translate(1483.933594 0)"/>
     <use xlink:href="#TimesNewRomanPSMT-32" transform="translate(1533.933594 0)"/>
     <use xlink:href="#TimesNewRomanPSMT-34" transform="translate(1583.933594 0)"/>
     <use xlink:href="#TimesNewRomanPSMT-2b" transform="translate(1633.933594 0)"/>
     <use xlink:href="#TimesNewRomanPSMT-35" transform="translate(1690.330078 0)"/>
     <use xlink:href="#TimesNewRomanPSMT-31" transform="translate(1740.330078 0)"/>
     <use xlink:href="#TimesNewRomanPSMT-32" transform="translate(1790.330078 0)"/>
     <use xlink:href="#TimesNewRomanPSMT-2b" transform="translate(1840.330078 0)"/>
     <use xlink:href="#TimesNewRomanPSMT-35" transform="translate(1896.726562 0)"/>
     <use xlink:href="#TimesNewRomanPSMT-31" transform="translate(1946.726562 0)"/>
     <use xlink:href="#TimesNewRomanPSMT-32" transform="translate(1996.726562 0)"/>
     <use xlink:href="#TimesNewRomanPSMT-2b" transform="translate(2046.726562 0)"/>
     <use xlink:href="#TimesNewRomanPSMT-31" transform="translate(2103.123047 0)"/>
     <use xlink:href="#TimesNewRomanPSMT-29" transform="translate(2153.123047 0)"/>
     <use xlink:href="#TimesNewRomanPSMT-2a" transform="translate(2186.423828 0)"/>
     <use xlink:href="#TimesNewRomanPSMT-20" transform="translate(2236.423828 0)"/>
     <use xlink:href="#TimesNewRomanPSMT-6f" transform="translate(2261.423828 0)"/>
     <use xlink:href="#TimesNewRomanPSMT-6e" transform="translate(2311.423828 0)"/>
     <use xlink:href="#TimesNewRomanPSMT-20" transform="translate(2361.423828 0)"/>
     <use xlink:href="#TimesNewRomanPSMT-74" transform="translate(2386.423828 0)"/>
     <use xlink:href="#TimesNewRomanPSMT-68" transform="translate(2414.207031 0)"/>
     <use xlink:href="#TimesNewRomanPSMT-65" transform="translate(2464.207031 0)"/>
     <use xlink:href="#TimesNewRomanPSMT-20" transform="translate(2508.591797 0)"/>
     <use xlink:href="#TimesNewRomanPSMT-76" transform="translate(2533.591797 0)"/>
     <use xlink:href="#TimesNewRomanPSMT-61" transform="translate(2583.591797 0)"/>
     <use xlink:href="#TimesNewRomanPSMT-6c" transform="translate(2627.976562 0)"/>
     <use xlink:href="#TimesNewRomanPSMT-69" transform="translate(2655.759766 0)"/>
     <use xlink:href="#TimesNewRomanPSMT-64" transform="translate(2683.542969 0)"/>
     <use xlink:href="#TimesNewRomanPSMT-61" transform="translate(2733.542969 0)"/>
     <use xlink:href="#TimesNewRomanPSMT-74" transform="translate(2777.927734 0)"/>
     <use xlink:href="#TimesNewRomanPSMT-69" transform="translate(2805.710938 0)"/>
     <use xlink:href="#TimesNewRomanPSMT-6f" transform="translate(2833.494141 0)"/>
     <use xlink:href="#TimesNewRomanPSMT-6e" transform="translate(2883.494141 0)"/>
     <use xlink:href="#TimesNewRomanPSMT-20" transform="translate(2933.494141 0)"/>
     <use xlink:href="#TimesNewRomanPSMT-73" transform="translate(2958.494141 0)"/>
     <use xlink:href="#TimesNewRomanPSMT-65" transform="translate(2997.410156 0)"/>
     <use xlink:href="#TimesNewRomanPSMT-74" transform="translate(3041.794922 0)"/>
    </g>
   </g>
   <g id="legend_1">
    <g id="patch_7">
     <path d="M 338.376062 94.278687 
L 575.546375 94.278687 
Q 579.946375 94.278687 579.946375 89.878687 
L 579.946375 60.9315 
Q 579.946375 56.5315 575.546375 56.5315 
L 338.376062 56.5315 
Q 333.976063 56.5315 333.976063 60.9315 
L 333.976063 89.878687 
Q 333.976063 94.278687 338.376062 94.278687 
z
" style="fill: #ffffff; opacity: 0.8; stroke: #cccccc; stroke-linejoin: miter"/>
    </g>
    <g id="line2d_32">
     <path d="M 342.776063 73.0315 
L 364.776063 73.0315 
L 386.776063 73.0315 
" style="fill: none; stroke: #1f77b4; stroke-width: 1.5; stroke-linecap: square"/>
    </g>
    <g id="text_19">
     <!-- Best accuracy 0.75 -->
     <g transform="translate(404.376063 80.7315) scale(0.22 -0.22)">
      <defs>
       <path id="TimesNewRomanPSMT-42" d="M 2956 2163 
Q 3397 2069 3616 1863 
Q 3919 1575 3919 1159 
Q 3919 844 3719 555 
Q 3519 266 3170 133 
Q 2822 0 2106 0 
L 106 0 
L 106 116 
L 266 116 
Q 531 116 647 284 
Q 719 394 719 750 
L 719 3488 
Q 719 3881 628 3984 
Q 506 4122 266 4122 
L 106 4122 
L 106 4238 
L 1938 4238 
Q 2450 4238 2759 4163 
Q 3228 4050 3475 3764 
Q 3722 3478 3722 3106 
Q 3722 2788 3528 2536 
Q 3334 2284 2956 2163 
z
M 1319 2331 
Q 1434 2309 1582 2298 
Q 1731 2288 1909 2288 
Q 2366 2288 2595 2386 
Q 2825 2484 2947 2687 
Q 3069 2891 3069 3131 
Q 3069 3503 2766 3765 
Q 2463 4028 1881 4028 
Q 1569 4028 1319 3959 
L 1319 2331 
z
M 1319 306 
Q 1681 222 2034 222 
Q 2600 222 2897 476 
Q 3194 731 3194 1106 
Q 3194 1353 3059 1581 
Q 2925 1809 2622 1940 
Q 2319 2072 1872 2072 
Q 1678 2072 1540 2065 
Q 1403 2059 1319 2044 
L 1319 306 
z
" transform="scale(0.015625)"/>
      </defs>
      <use xlink:href="#TimesNewRomanPSMT-42"/>
      <use xlink:href="#TimesNewRomanPSMT-65" transform="translate(66.699219 0)"/>
      <use xlink:href="#TimesNewRomanPSMT-73" transform="translate(111.083984 0)"/>
      <use xlink:href="#TimesNewRomanPSMT-74" transform="translate(150 0)"/>
      <use xlink:href="#TimesNewRomanPSMT-20" transform="translate(177.783203 0)"/>
      <use xlink:href="#TimesNewRomanPSMT-61" transform="translate(202.783203 0)"/>
      <use xlink:href="#TimesNewRomanPSMT-63" transform="translate(247.167969 0)"/>
      <use xlink:href="#TimesNewRomanPSMT-63" transform="translate(291.552734 0)"/>
      <use xlink:href="#TimesNewRomanPSMT-75" transform="translate(335.9375 0)"/>
      <use xlink:href="#TimesNewRomanPSMT-72" transform="translate(385.9375 0)"/>
      <use xlink:href="#TimesNewRomanPSMT-61" transform="translate(419.238281 0)"/>
      <use xlink:href="#TimesNewRomanPSMT-63" transform="translate(463.623047 0)"/>
      <use xlink:href="#TimesNewRomanPSMT-79" transform="translate(508.007812 0)"/>
      <use xlink:href="#TimesNewRomanPSMT-20" transform="translate(558.007812 0)"/>
      <use xlink:href="#TimesNewRomanPSMT-30" transform="translate(583.007812 0)"/>
      <use xlink:href="#TimesNewRomanPSMT-2e" transform="translate(633.007812 0)"/>
      <use xlink:href="#TimesNewRomanPSMT-37" transform="translate(658.007812 0)"/>
      <use xlink:href="#TimesNewRomanPSMT-35" transform="translate(708.007812 0)"/>
     </g>
    </g>
   </g>
  </g>
 </g>
 <defs>
  <clipPath id="p106f278a13">
   <rect x="233.826375" y="45.5315" width="357.12" height="266.112"/>
  </clipPath>
 </defs>
</svg>
