<?xml version="1.0" encoding="utf-8" standalone="no"?>
<!DOCTYPE svg PUBLIC "-//W3C//DTD SVG 1.1//EN"
  "http://www.w3.org/Graphics/SVG/1.1/DTD/svg11.dtd">
<svg xmlns:xlink="http://www.w3.org/1999/xlink" width="1058.42925pt" height="383.265687pt" viewBox="0 0 1058.42925 383.265687" xmlns="http://www.w3.org/2000/svg" version="1.1">
 <metadata>
  <rdf:RDF xmlns:dc="http://purl.org/dc/elements/1.1/" xmlns:cc="http://creativecommons.org/ns#" xmlns:rdf="http://www.w3.org/1999/02/22-rdf-syntax-ns#">
   <cc:Work>
    <dc:type rdf:resource="http://purl.org/dc/dcmitype/StillImage"/>
    <dc:date>2025-07-08T09:37:03.022878</dc:date>
    <dc:format>image/svg+xml</dc:format>
    <dc:creator>
     <cc:Agent>
      <dc:title>Matplotlib v3.10.1, https://matplotlib.org/</dc:title>
     </cc:Agent>
    </dc:creator>
   </cc:Work>
  </rdf:RDF>
 </metadata>
 <defs>
  <style type="text/css">*{stroke-linejoin: round; stroke-linecap: butt}</style>
 </defs>
 <g id="figure_1">
  <g id="patch_1">
   <path d="M 0 383.265687 
L 1058.42925 383.265687 
L 1058.42925 0 
L 0 0 
z
" style="fill: #ffffff"/>
  </g>
  <g id="axes_1">
   <g id="patch_2">
    <path d="M 350.654625 311.6435 
L 707.774625 311.6435 
L 707.774625 45.5315 
L 350.654625 45.5315 
z
" style="fill: #ffffff"/>
   </g>
   <g id="matplotlib.axis_1">
    <g id="xtick_1">
     <g id="line2d_1">
      <path d="M 350.654625 311.6435 
L 350.654625 45.5315 
" clip-path="url(#p15afe9c60e)" style="fill: none; stroke: #b0b0b0; stroke-opacity: 0.3; stroke-width: 0.8; stroke-linecap: square"/>
     </g>
     <g id="line2d_2">
      <defs>
       <path id="m382d67f311" d="M 0 0 
L 0 3.5 
" style="stroke: #000000; stroke-width: 0.8"/>
      </defs>
      <g>
       <use xlink:href="#m382d67f311" x="350.654625" y="311.6435" style="stroke: #000000; stroke-width: 0.8"/>
      </g>
     </g>
     <g id="text_1">
      <!-- 0.0 -->
      <g transform="translate(336.904625 333.91975) scale(0.22 -0.22)">
       <defs>
        <path id="TimesNewRomanPSMT-30" d="M 231 2094 
Q 231 2819 450 3342 
Q 669 3866 1031 4122 
Q 1313 4325 1613 4325 
Q 2100 4325 2488 3828 
Q 2972 3213 2972 2159 
Q 2972 1422 2759 906 
Q 2547 391 2217 158 
Q 1888 -75 1581 -75 
Q 975 -75 572 641 
Q 231 1244 231 2094 
z
M 844 2016 
Q 844 1141 1059 588 
Q 1238 122 1591 122 
Q 1759 122 1940 273 
Q 2122 425 2216 781 
Q 2359 1319 2359 2297 
Q 2359 3022 2209 3506 
Q 2097 3866 1919 4016 
Q 1791 4119 1609 4119 
Q 1397 4119 1231 3928 
Q 1006 3669 925 3112 
Q 844 2556 844 2016 
z
" transform="scale(0.015625)"/>
        <path id="TimesNewRomanPSMT-2e" d="M 800 606 
Q 947 606 1047 504 
Q 1147 403 1147 259 
Q 1147 116 1045 14 
Q 944 -88 800 -88 
Q 656 -88 554 14 
Q 453 116 453 259 
Q 453 406 554 506 
Q 656 606 800 606 
z
" transform="scale(0.015625)"/>
       </defs>
       <use xlink:href="#TimesNewRomanPSMT-30"/>
       <use xlink:href="#TimesNewRomanPSMT-2e" transform="translate(50 0)"/>
       <use xlink:href="#TimesNewRomanPSMT-30" transform="translate(75 0)"/>
      </g>
     </g>
    </g>
    <g id="xtick_2">
     <g id="line2d_3">
      <path d="M 455.763104 311.6435 
L 455.763104 45.5315 
" clip-path="url(#p15afe9c60e)" style="fill: none; stroke: #b0b0b0; stroke-opacity: 0.3; stroke-width: 0.8; stroke-linecap: square"/>
     </g>
     <g id="line2d_4">
      <g>
       <use xlink:href="#m382d67f311" x="455.763104" y="311.6435" style="stroke: #000000; stroke-width: 0.8"/>
      </g>
     </g>
     <g id="text_2">
      <!-- 0.5 -->
      <g transform="translate(442.013104 333.91975) scale(0.22 -0.22)">
       <defs>
        <path id="TimesNewRomanPSMT-35" d="M 2778 4238 
L 2534 3706 
L 1259 3706 
L 981 3138 
Q 1809 3016 2294 2522 
Q 2709 2097 2709 1522 
Q 2709 1188 2573 903 
Q 2438 619 2231 419 
Q 2025 219 1772 97 
Q 1413 -75 1034 -75 
Q 653 -75 479 54 
Q 306 184 306 341 
Q 306 428 378 495 
Q 450 563 559 563 
Q 641 563 702 538 
Q 763 513 909 409 
Q 1144 247 1384 247 
Q 1750 247 2026 523 
Q 2303 800 2303 1197 
Q 2303 1581 2056 1914 
Q 1809 2247 1375 2428 
Q 1034 2569 447 2591 
L 1259 4238 
L 2778 4238 
z
" transform="scale(0.015625)"/>
       </defs>
       <use xlink:href="#TimesNewRomanPSMT-30"/>
       <use xlink:href="#TimesNewRomanPSMT-2e" transform="translate(50 0)"/>
       <use xlink:href="#TimesNewRomanPSMT-35" transform="translate(75 0)"/>
      </g>
     </g>
    </g>
    <g id="xtick_3">
     <g id="line2d_5">
      <path d="M 560.871584 311.6435 
L 560.871584 45.5315 
" clip-path="url(#p15afe9c60e)" style="fill: none; stroke: #b0b0b0; stroke-opacity: 0.3; stroke-width: 0.8; stroke-linecap: square"/>
     </g>
     <g id="line2d_6">
      <g>
       <use xlink:href="#m382d67f311" x="560.871584" y="311.6435" style="stroke: #000000; stroke-width: 0.8"/>
      </g>
     </g>
     <g id="text_3">
      <!-- 1.0 -->
      <g transform="translate(547.121584 333.91975) scale(0.22 -0.22)">
       <defs>
        <path id="TimesNewRomanPSMT-31" d="M 750 3822 
L 1781 4325 
L 1884 4325 
L 1884 747 
Q 1884 391 1914 303 
Q 1944 216 2037 169 
Q 2131 122 2419 116 
L 2419 0 
L 825 0 
L 825 116 
Q 1125 122 1212 167 
Q 1300 213 1334 289 
Q 1369 366 1369 747 
L 1369 3034 
Q 1369 3497 1338 3628 
Q 1316 3728 1258 3775 
Q 1200 3822 1119 3822 
Q 1003 3822 797 3725 
L 750 3822 
z
" transform="scale(0.015625)"/>
       </defs>
       <use xlink:href="#TimesNewRomanPSMT-31"/>
       <use xlink:href="#TimesNewRomanPSMT-2e" transform="translate(50 0)"/>
       <use xlink:href="#TimesNewRomanPSMT-30" transform="translate(75 0)"/>
      </g>
     </g>
    </g>
    <g id="xtick_4">
     <g id="line2d_7">
      <path d="M 665.980063 311.6435 
L 665.980063 45.5315 
" clip-path="url(#p15afe9c60e)" style="fill: none; stroke: #b0b0b0; stroke-opacity: 0.3; stroke-width: 0.8; stroke-linecap: square"/>
     </g>
     <g id="line2d_8">
      <g>
       <use xlink:href="#m382d67f311" x="665.980063" y="311.6435" style="stroke: #000000; stroke-width: 0.8"/>
      </g>
     </g>
     <g id="text_4">
      <!-- 1.5 -->
      <g transform="translate(652.230063 333.91975) scale(0.22 -0.22)">
       <use xlink:href="#TimesNewRomanPSMT-31"/>
       <use xlink:href="#TimesNewRomanPSMT-2e" transform="translate(50 0)"/>
       <use xlink:href="#TimesNewRomanPSMT-35" transform="translate(75 0)"/>
      </g>
     </g>
    </g>
    <g id="text_5">
     <!-- $\kappa  = \frac{ln(n)}{ln(d)}$ -->
     <g transform="translate(497.204625 364.185687) scale(0.22 -0.22)">
      <defs>
       <path id="STIXGeneral-Italic-3ba" d="M 979 1440 
L 998 1446 
Q 1850 2541 2464 2790 
Q 2547 2822 2630 2822 
Q 2797 2822 2886 2736 
Q 2976 2650 2976 2522 
Q 2976 2387 2893 2307 
Q 2810 2227 2682 2227 
Q 2605 2227 2502 2288 
Q 2400 2349 2336 2349 
Q 2170 2349 1990 2205 
Q 1811 2061 1414 1645 
L 2042 544 
Q 2202 262 2310 182 
Q 2419 102 2624 102 
L 2624 0 
Q 2374 -83 2182 -83 
Q 1786 -83 1555 326 
L 960 1350 
L 576 0 
L 90 0 
L 640 1978 
Q 730 2317 730 2406 
Q 730 2560 518 2560 
L 339 2560 
L 339 2650 
Q 678 2694 1306 2822 
L 1325 2803 
L 979 1440 
z
" transform="scale(0.015625)"/>
       <path id="STIXGeneral-Regular-3d" d="M 4077 2048 
L 307 2048 
L 307 2470 
L 4077 2470 
L 4077 2048 
z
M 4077 768 
L 307 768 
L 307 1190 
L 4077 1190 
L 4077 768 
z
" transform="scale(0.015625)"/>
       <path id="STIXGeneral-Italic-6c" d="M 1786 4339 
L 806 595 
Q 755 410 755 320 
Q 755 205 864 205 
Q 1037 205 1293 570 
L 1453 794 
L 1542 730 
Q 1254 275 1046 102 
Q 838 -70 576 -70 
Q 262 -70 262 288 
Q 262 397 288 480 
L 1165 3834 
Q 1184 3898 1184 3955 
Q 1184 4096 870 4096 
L 755 4096 
L 755 4198 
Q 1203 4250 1747 4371 
L 1786 4339 
z
" transform="scale(0.015625)"/>
       <path id="STIXGeneral-Italic-6e" d="M 2944 749 
L 3034 666 
Q 2707 218 2534 80 
Q 2362 -58 2138 -58 
Q 2010 -58 1923 28 
Q 1837 115 1837 288 
Q 1837 390 1939 768 
L 2221 1805 
Q 2310 2150 2310 2310 
Q 2310 2496 2157 2496 
Q 1971 2496 1750 2275 
Q 1530 2054 1210 1587 
Q 998 1274 899 1024 
Q 800 774 570 0 
L 90 0 
L 704 2240 
Q 717 2304 717 2349 
Q 717 2445 630 2480 
Q 544 2515 301 2522 
L 301 2624 
Q 550 2675 857 2729 
Q 1165 2784 1338 2822 
L 1363 2810 
L 934 1414 
Q 1408 2170 1753 2496 
Q 2099 2822 2413 2822 
Q 2611 2822 2720 2716 
Q 2829 2611 2829 2432 
Q 2829 2272 2765 2048 
L 2406 749 
Q 2317 429 2317 358 
Q 2317 243 2419 243 
Q 2541 243 2810 582 
Q 2854 634 2944 749 
z
" transform="scale(0.015625)"/>
       <path id="STIXGeneral-Regular-28" d="M 1946 -1030 
L 1869 -1133 
Q 1126 -710 716 32 
Q 307 774 307 1613 
Q 307 3386 1888 4326 
L 1946 4224 
Q 1293 3667 1075 3126 
Q 858 2586 858 1632 
Q 858 685 1082 96 
Q 1306 -493 1946 -1030 
z
" transform="scale(0.015625)"/>
       <path id="STIXGeneral-Regular-29" d="M 186 4224 
L 262 4326 
Q 992 3891 1408 3148 
Q 1824 2406 1824 1581 
Q 1824 -166 243 -1133 
L 186 -1030 
Q 845 -486 1059 54 
Q 1274 595 1274 1562 
Q 1274 2534 1059 3120 
Q 845 3706 186 4224 
z
" transform="scale(0.015625)"/>
       <path id="STIXGeneral-Italic-64" d="M 3334 4371 
L 3373 4333 
L 3123 3360 
L 2739 1958 
Q 2323 429 2323 384 
Q 2323 256 2438 256 
Q 2522 256 2614 336 
Q 2707 416 2963 710 
L 3040 646 
Q 2547 -83 2099 -83 
Q 1978 -83 1907 -6 
Q 1837 70 1837 205 
Q 1837 397 1920 774 
Q 1645 307 1379 118 
Q 1114 -70 781 -70 
Q 461 -70 278 125 
Q 96 320 96 678 
Q 96 1440 713 2131 
Q 1331 2822 1965 2822 
Q 2163 2822 2256 2732 
Q 2349 2643 2381 2451 
L 2387 2451 
L 2675 3494 
Q 2765 3808 2765 3949 
Q 2765 4051 2694 4076 
Q 2624 4102 2355 4115 
L 2355 4224 
Q 2848 4269 3334 4371 
z
M 2278 2310 
Q 2278 2477 2185 2576 
Q 2093 2675 1978 2675 
Q 1677 2675 1395 2381 
Q 1075 2042 864 1571 
Q 653 1101 653 704 
Q 653 486 752 361 
Q 851 237 1024 237 
Q 1312 237 1606 550 
Q 1901 864 2089 1350 
Q 2278 1837 2278 2310 
z
" transform="scale(0.015625)"/>
      </defs>
      <use xlink:href="#STIXGeneral-Italic-3ba" transform="translate(0 0.003125)"/>
      <use xlink:href="#STIXGeneral-Regular-3d" transform="translate(58.83999 0.003125)"/>
      <use xlink:href="#STIXGeneral-Italic-6c" transform="translate(141.779971 50.192188) scale(0.7)"/>
      <use xlink:href="#STIXGeneral-Italic-6e" transform="translate(161.239963 50.192188) scale(0.7)"/>
      <use xlink:href="#STIXGeneral-Regular-28" transform="translate(196.239952 50.192188) scale(0.7)"/>
      <use xlink:href="#STIXGeneral-Italic-6e" transform="translate(219.549944 50.192188) scale(0.7)"/>
      <use xlink:href="#STIXGeneral-Regular-29" transform="translate(254.549933 50.192188) scale(0.7)"/>
      <use xlink:href="#STIXGeneral-Italic-6c" transform="translate(141.779971 -41.257812) scale(0.7)"/>
      <use xlink:href="#STIXGeneral-Italic-6e" transform="translate(161.239963 -41.257812) scale(0.7)"/>
      <use xlink:href="#STIXGeneral-Regular-28" transform="translate(196.239952 -41.257812) scale(0.7)"/>
      <use xlink:href="#STIXGeneral-Italic-64" transform="translate(219.549944 -41.257812) scale(0.7)"/>
      <use xlink:href="#STIXGeneral-Regular-29" transform="translate(254.549933 -41.257812) scale(0.7)"/>
      <path d="M 141.779971 12.8 
L 141.779971 19.05 
L 277.859924 19.05 
L 277.859924 12.8 
L 141.779971 12.8 
z
"/>
     </g>
    </g>
   </g>
   <g id="matplotlib.axis_2">
    <g id="ytick_1">
     <g id="line2d_9">
      <path d="M 350.654625 311.6435 
L 707.774625 311.6435 
" clip-path="url(#p15afe9c60e)" style="fill: none; stroke: #b0b0b0; stroke-opacity: 0.3; stroke-width: 0.8; stroke-linecap: square"/>
     </g>
     <g id="line2d_10">
      <defs>
       <path id="mc91370d29b" d="M 0 0 
L -3.5 0 
" style="stroke: #000000; stroke-width: 0.8"/>
      </defs>
      <g>
       <use xlink:href="#mc91370d29b" x="350.654625" y="311.6435" style="stroke: #000000; stroke-width: 0.8"/>
      </g>
     </g>
     <g id="text_6">
      <!-- 0.0 -->
      <g transform="translate(316.154625 319.281625) scale(0.22 -0.22)">
       <use xlink:href="#TimesNewRomanPSMT-30"/>
       <use xlink:href="#TimesNewRomanPSMT-2e" transform="translate(50 0)"/>
       <use xlink:href="#TimesNewRomanPSMT-30" transform="translate(75 0)"/>
      </g>
     </g>
    </g>
    <g id="ytick_2">
     <g id="line2d_11">
      <path d="M 350.654625 285.0323 
L 707.774625 285.0323 
" clip-path="url(#p15afe9c60e)" style="fill: none; stroke: #b0b0b0; stroke-opacity: 0.3; stroke-width: 0.8; stroke-linecap: square"/>
     </g>
     <g id="line2d_12">
      <g>
       <use xlink:href="#mc91370d29b" x="350.654625" y="285.0323" style="stroke: #000000; stroke-width: 0.8"/>
      </g>
     </g>
     <g id="text_7">
      <!-- 0.1 -->
      <g transform="translate(316.154625 292.670425) scale(0.22 -0.22)">
       <use xlink:href="#TimesNewRomanPSMT-30"/>
       <use xlink:href="#TimesNewRomanPSMT-2e" transform="translate(50 0)"/>
       <use xlink:href="#TimesNewRomanPSMT-31" transform="translate(75 0)"/>
      </g>
     </g>
    </g>
    <g id="ytick_3">
     <g id="line2d_13">
      <path d="M 350.654625 258.4211 
L 707.774625 258.4211 
" clip-path="url(#p15afe9c60e)" style="fill: none; stroke: #b0b0b0; stroke-opacity: 0.3; stroke-width: 0.8; stroke-linecap: square"/>
     </g>
     <g id="line2d_14">
      <g>
       <use xlink:href="#mc91370d29b" x="350.654625" y="258.4211" style="stroke: #000000; stroke-width: 0.8"/>
      </g>
     </g>
     <g id="text_8">
      <!-- 0.2 -->
      <g transform="translate(316.154625 266.059225) scale(0.22 -0.22)">
       <defs>
        <path id="TimesNewRomanPSMT-32" d="M 2934 816 
L 2638 0 
L 138 0 
L 138 116 
Q 1241 1122 1691 1759 
Q 2141 2397 2141 2925 
Q 2141 3328 1894 3587 
Q 1647 3847 1303 3847 
Q 991 3847 742 3664 
Q 494 3481 375 3128 
L 259 3128 
Q 338 3706 661 4015 
Q 984 4325 1469 4325 
Q 1984 4325 2329 3994 
Q 2675 3663 2675 3213 
Q 2675 2891 2525 2569 
Q 2294 2063 1775 1497 
Q 997 647 803 472 
L 1909 472 
Q 2247 472 2383 497 
Q 2519 522 2628 598 
Q 2738 675 2819 816 
L 2934 816 
z
" transform="scale(0.015625)"/>
       </defs>
       <use xlink:href="#TimesNewRomanPSMT-30"/>
       <use xlink:href="#TimesNewRomanPSMT-2e" transform="translate(50 0)"/>
       <use xlink:href="#TimesNewRomanPSMT-32" transform="translate(75 0)"/>
      </g>
     </g>
    </g>
    <g id="ytick_4">
     <g id="line2d_15">
      <path d="M 350.654625 231.8099 
L 707.774625 231.8099 
" clip-path="url(#p15afe9c60e)" style="fill: none; stroke: #b0b0b0; stroke-opacity: 0.3; stroke-width: 0.8; stroke-linecap: square"/>
     </g>
     <g id="line2d_16">
      <g>
       <use xlink:href="#mc91370d29b" x="350.654625" y="231.8099" style="stroke: #000000; stroke-width: 0.8"/>
      </g>
     </g>
     <g id="text_9">
      <!-- 0.3 -->
      <g transform="translate(316.154625 239.448025) scale(0.22 -0.22)">
       <defs>
        <path id="TimesNewRomanPSMT-33" d="M 325 3431 
Q 506 3859 782 4092 
Q 1059 4325 1472 4325 
Q 1981 4325 2253 3994 
Q 2459 3747 2459 3466 
Q 2459 3003 1878 2509 
Q 2269 2356 2469 2072 
Q 2669 1788 2669 1403 
Q 2669 853 2319 450 
Q 1863 -75 997 -75 
Q 569 -75 414 31 
Q 259 138 259 259 
Q 259 350 332 419 
Q 406 488 509 488 
Q 588 488 669 463 
Q 722 447 909 348 
Q 1097 250 1169 231 
Q 1284 197 1416 197 
Q 1734 197 1970 444 
Q 2206 691 2206 1028 
Q 2206 1275 2097 1509 
Q 2016 1684 1919 1775 
Q 1784 1900 1550 2001 
Q 1316 2103 1072 2103 
L 972 2103 
L 972 2197 
Q 1219 2228 1467 2375 
Q 1716 2522 1828 2728 
Q 1941 2934 1941 3181 
Q 1941 3503 1739 3701 
Q 1538 3900 1238 3900 
Q 753 3900 428 3381 
L 325 3431 
z
" transform="scale(0.015625)"/>
       </defs>
       <use xlink:href="#TimesNewRomanPSMT-30"/>
       <use xlink:href="#TimesNewRomanPSMT-2e" transform="translate(50 0)"/>
       <use xlink:href="#TimesNewRomanPSMT-33" transform="translate(75 0)"/>
      </g>
     </g>
    </g>
    <g id="ytick_5">
     <g id="line2d_17">
      <path d="M 350.654625 205.1987 
L 707.774625 205.1987 
" clip-path="url(#p15afe9c60e)" style="fill: none; stroke: #b0b0b0; stroke-opacity: 0.3; stroke-width: 0.8; stroke-linecap: square"/>
     </g>
     <g id="line2d_18">
      <g>
       <use xlink:href="#mc91370d29b" x="350.654625" y="205.1987" style="stroke: #000000; stroke-width: 0.8"/>
      </g>
     </g>
     <g id="text_10">
      <!-- 0.4 -->
      <g transform="translate(316.154625 212.836825) scale(0.22 -0.22)">
       <defs>
        <path id="TimesNewRomanPSMT-34" d="M 2978 1563 
L 2978 1119 
L 2409 1119 
L 2409 0 
L 1894 0 
L 1894 1119 
L 100 1119 
L 100 1519 
L 2066 4325 
L 2409 4325 
L 2409 1563 
L 2978 1563 
z
M 1894 1563 
L 1894 3666 
L 406 1563 
L 1894 1563 
z
" transform="scale(0.015625)"/>
       </defs>
       <use xlink:href="#TimesNewRomanPSMT-30"/>
       <use xlink:href="#TimesNewRomanPSMT-2e" transform="translate(50 0)"/>
       <use xlink:href="#TimesNewRomanPSMT-34" transform="translate(75 0)"/>
      </g>
     </g>
    </g>
    <g id="ytick_6">
     <g id="line2d_19">
      <path d="M 350.654625 178.5875 
L 707.774625 178.5875 
" clip-path="url(#p15afe9c60e)" style="fill: none; stroke: #b0b0b0; stroke-opacity: 0.3; stroke-width: 0.8; stroke-linecap: square"/>
     </g>
     <g id="line2d_20">
      <g>
       <use xlink:href="#mc91370d29b" x="350.654625" y="178.5875" style="stroke: #000000; stroke-width: 0.8"/>
      </g>
     </g>
     <g id="text_11">
      <!-- 0.5 -->
      <g transform="translate(316.154625 186.225625) scale(0.22 -0.22)">
       <use xlink:href="#TimesNewRomanPSMT-30"/>
       <use xlink:href="#TimesNewRomanPSMT-2e" transform="translate(50 0)"/>
       <use xlink:href="#TimesNewRomanPSMT-35" transform="translate(75 0)"/>
      </g>
     </g>
    </g>
    <g id="ytick_7">
     <g id="line2d_21">
      <path d="M 350.654625 151.9763 
L 707.774625 151.9763 
" clip-path="url(#p15afe9c60e)" style="fill: none; stroke: #b0b0b0; stroke-opacity: 0.3; stroke-width: 0.8; stroke-linecap: square"/>
     </g>
     <g id="line2d_22">
      <g>
       <use xlink:href="#mc91370d29b" x="350.654625" y="151.9763" style="stroke: #000000; stroke-width: 0.8"/>
      </g>
     </g>
     <g id="text_12">
      <!-- 0.6 -->
      <g transform="translate(316.154625 159.614425) scale(0.22 -0.22)">
       <defs>
        <path id="TimesNewRomanPSMT-36" d="M 2869 4325 
L 2869 4209 
Q 2456 4169 2195 4045 
Q 1934 3922 1679 3669 
Q 1425 3416 1258 3105 
Q 1091 2794 978 2366 
Q 1428 2675 1881 2675 
Q 2316 2675 2634 2325 
Q 2953 1975 2953 1425 
Q 2953 894 2631 456 
Q 2244 -75 1606 -75 
Q 1172 -75 869 213 
Q 275 772 275 1663 
Q 275 2231 503 2743 
Q 731 3256 1154 3653 
Q 1578 4050 1965 4187 
Q 2353 4325 2688 4325 
L 2869 4325 
z
M 925 2138 
Q 869 1716 869 1456 
Q 869 1156 980 804 
Q 1091 453 1309 247 
Q 1469 100 1697 100 
Q 1969 100 2183 356 
Q 2397 613 2397 1088 
Q 2397 1622 2184 2012 
Q 1972 2403 1581 2403 
Q 1463 2403 1327 2353 
Q 1191 2303 925 2138 
z
" transform="scale(0.015625)"/>
       </defs>
       <use xlink:href="#TimesNewRomanPSMT-30"/>
       <use xlink:href="#TimesNewRomanPSMT-2e" transform="translate(50 0)"/>
       <use xlink:href="#TimesNewRomanPSMT-36" transform="translate(75 0)"/>
      </g>
     </g>
    </g>
    <g id="ytick_8">
     <g id="line2d_23">
      <path d="M 350.654625 125.3651 
L 707.774625 125.3651 
" clip-path="url(#p15afe9c60e)" style="fill: none; stroke: #b0b0b0; stroke-opacity: 0.3; stroke-width: 0.8; stroke-linecap: square"/>
     </g>
     <g id="line2d_24">
      <g>
       <use xlink:href="#mc91370d29b" x="350.654625" y="125.3651" style="stroke: #000000; stroke-width: 0.8"/>
      </g>
     </g>
     <g id="text_13">
      <!-- 0.7 -->
      <g transform="translate(316.154625 133.003225) scale(0.22 -0.22)">
       <defs>
        <path id="TimesNewRomanPSMT-37" d="M 644 4238 
L 2916 4238 
L 2916 4119 
L 1503 -88 
L 1153 -88 
L 2419 3728 
L 1253 3728 
Q 900 3728 750 3644 
Q 488 3500 328 3200 
L 238 3234 
L 644 4238 
z
" transform="scale(0.015625)"/>
       </defs>
       <use xlink:href="#TimesNewRomanPSMT-30"/>
       <use xlink:href="#TimesNewRomanPSMT-2e" transform="translate(50 0)"/>
       <use xlink:href="#TimesNewRomanPSMT-37" transform="translate(75 0)"/>
      </g>
     </g>
    </g>
    <g id="ytick_9">
     <g id="line2d_25">
      <path d="M 350.654625 98.7539 
L 707.774625 98.7539 
" clip-path="url(#p15afe9c60e)" style="fill: none; stroke: #b0b0b0; stroke-opacity: 0.3; stroke-width: 0.8; stroke-linecap: square"/>
     </g>
     <g id="line2d_26">
      <g>
       <use xlink:href="#mc91370d29b" x="350.654625" y="98.7539" style="stroke: #000000; stroke-width: 0.8"/>
      </g>
     </g>
     <g id="text_14">
      <!-- 0.8 -->
      <g transform="translate(316.154625 106.392025) scale(0.22 -0.22)">
       <defs>
        <path id="TimesNewRomanPSMT-38" d="M 1228 2134 
Q 725 2547 579 2797 
Q 434 3047 434 3316 
Q 434 3728 753 4026 
Q 1072 4325 1600 4325 
Q 2113 4325 2425 4047 
Q 2738 3769 2738 3413 
Q 2738 3175 2569 2928 
Q 2400 2681 1866 2347 
Q 2416 1922 2594 1678 
Q 2831 1359 2831 1006 
Q 2831 559 2490 242 
Q 2150 -75 1597 -75 
Q 994 -75 656 303 
Q 388 606 388 966 
Q 388 1247 577 1523 
Q 766 1800 1228 2134 
z
M 1719 2469 
Q 2094 2806 2194 3001 
Q 2294 3197 2294 3444 
Q 2294 3772 2109 3958 
Q 1925 4144 1606 4144 
Q 1288 4144 1088 3959 
Q 888 3775 888 3528 
Q 888 3366 970 3203 
Q 1053 3041 1206 2894 
L 1719 2469 
z
M 1375 2016 
Q 1116 1797 991 1539 
Q 866 1281 866 981 
Q 866 578 1086 336 
Q 1306 94 1647 94 
Q 1984 94 2187 284 
Q 2391 475 2391 747 
Q 2391 972 2272 1150 
Q 2050 1481 1375 2016 
z
" transform="scale(0.015625)"/>
       </defs>
       <use xlink:href="#TimesNewRomanPSMT-30"/>
       <use xlink:href="#TimesNewRomanPSMT-2e" transform="translate(50 0)"/>
       <use xlink:href="#TimesNewRomanPSMT-38" transform="translate(75 0)"/>
      </g>
     </g>
    </g>
    <g id="ytick_10">
     <g id="line2d_27">
      <path d="M 350.654625 72.1427 
L 707.774625 72.1427 
" clip-path="url(#p15afe9c60e)" style="fill: none; stroke: #b0b0b0; stroke-opacity: 0.3; stroke-width: 0.8; stroke-linecap: square"/>
     </g>
     <g id="line2d_28">
      <g>
       <use xlink:href="#mc91370d29b" x="350.654625" y="72.1427" style="stroke: #000000; stroke-width: 0.8"/>
      </g>
     </g>
     <g id="text_15">
      <!-- 0.9 -->
      <g transform="translate(316.154625 79.780825) scale(0.22 -0.22)">
       <defs>
        <path id="TimesNewRomanPSMT-39" d="M 338 -88 
L 338 28 
Q 744 34 1094 217 
Q 1444 400 1770 856 
Q 2097 1313 2225 1859 
Q 1734 1544 1338 1544 
Q 891 1544 572 1889 
Q 253 2234 253 2806 
Q 253 3363 572 3797 
Q 956 4325 1575 4325 
Q 2097 4325 2469 3894 
Q 2925 3359 2925 2575 
Q 2925 1869 2578 1258 
Q 2231 647 1613 244 
Q 1109 -88 516 -88 
L 338 -88 
z
M 2275 2091 
Q 2331 2497 2331 2741 
Q 2331 3044 2228 3395 
Q 2125 3747 1936 3934 
Q 1747 4122 1506 4122 
Q 1228 4122 1018 3872 
Q 809 3622 809 3128 
Q 809 2469 1088 2097 
Q 1291 1828 1588 1828 
Q 1731 1828 1928 1897 
Q 2125 1966 2275 2091 
z
" transform="scale(0.015625)"/>
       </defs>
       <use xlink:href="#TimesNewRomanPSMT-30"/>
       <use xlink:href="#TimesNewRomanPSMT-2e" transform="translate(50 0)"/>
       <use xlink:href="#TimesNewRomanPSMT-39" transform="translate(75 0)"/>
      </g>
     </g>
    </g>
    <g id="ytick_11">
     <g id="line2d_29">
      <path d="M 350.654625 45.5315 
L 707.774625 45.5315 
" clip-path="url(#p15afe9c60e)" style="fill: none; stroke: #b0b0b0; stroke-opacity: 0.3; stroke-width: 0.8; stroke-linecap: square"/>
     </g>
     <g id="line2d_30">
      <g>
       <use xlink:href="#mc91370d29b" x="350.654625" y="45.5315" style="stroke: #000000; stroke-width: 0.8"/>
      </g>
     </g>
     <g id="text_16">
      <!-- 1.0 -->
      <g transform="translate(316.154625 53.169625) scale(0.22 -0.22)">
       <use xlink:href="#TimesNewRomanPSMT-31"/>
       <use xlink:href="#TimesNewRomanPSMT-2e" transform="translate(50 0)"/>
       <use xlink:href="#TimesNewRomanPSMT-30" transform="translate(75 0)"/>
      </g>
     </g>
    </g>
    <g id="text_17">
     <!-- Accuracy -->
     <g transform="translate(307.407438 220.726094) rotate(-90) scale(0.22 -0.22)">
      <defs>
       <path id="TimesNewRomanPSMT-41" d="M 2928 1419 
L 1288 1419 
L 1000 750 
Q 894 503 894 381 
Q 894 284 986 211 
Q 1078 138 1384 116 
L 1384 0 
L 50 0 
L 50 116 
Q 316 163 394 238 
Q 553 388 747 847 
L 2238 4334 
L 2347 4334 
L 3822 809 
Q 4000 384 4145 257 
Q 4291 131 4550 116 
L 4550 0 
L 2878 0 
L 2878 116 
Q 3131 128 3220 200 
Q 3309 272 3309 375 
Q 3309 513 3184 809 
L 2928 1419 
z
M 2841 1650 
L 2122 3363 
L 1384 1650 
L 2841 1650 
z
" transform="scale(0.015625)"/>
       <path id="TimesNewRomanPSMT-63" d="M 2631 1088 
Q 2516 522 2178 217 
Q 1841 -88 1431 -88 
Q 944 -88 581 321 
Q 219 731 219 1428 
Q 219 2103 620 2525 
Q 1022 2947 1584 2947 
Q 2006 2947 2278 2723 
Q 2550 2500 2550 2259 
Q 2550 2141 2473 2067 
Q 2397 1994 2259 1994 
Q 2075 1994 1981 2113 
Q 1928 2178 1911 2362 
Q 1894 2547 1784 2644 
Q 1675 2738 1481 2738 
Q 1169 2738 978 2506 
Q 725 2200 725 1697 
Q 725 1184 976 792 
Q 1228 400 1656 400 
Q 1963 400 2206 609 
Q 2378 753 2541 1131 
L 2631 1088 
z
" transform="scale(0.015625)"/>
       <path id="TimesNewRomanPSMT-75" d="M 2709 2863 
L 2709 1128 
Q 2709 631 2732 520 
Q 2756 409 2807 365 
Q 2859 322 2928 322 
Q 3025 322 3147 375 
L 3191 266 
L 2334 -88 
L 2194 -88 
L 2194 519 
Q 1825 119 1631 15 
Q 1438 -88 1222 -88 
Q 981 -88 804 51 
Q 628 191 559 409 
Q 491 628 491 1028 
L 491 2306 
Q 491 2509 447 2587 
Q 403 2666 317 2708 
Q 231 2750 6 2747 
L 6 2863 
L 1009 2863 
L 1009 947 
Q 1009 547 1148 422 
Q 1288 297 1484 297 
Q 1619 297 1789 381 
Q 1959 466 2194 703 
L 2194 2325 
Q 2194 2569 2105 2655 
Q 2016 2741 1734 2747 
L 1734 2863 
L 2709 2863 
z
" transform="scale(0.015625)"/>
       <path id="TimesNewRomanPSMT-72" d="M 1038 2947 
L 1038 2303 
Q 1397 2947 1775 2947 
Q 1947 2947 2059 2842 
Q 2172 2738 2172 2600 
Q 2172 2478 2090 2393 
Q 2009 2309 1897 2309 
Q 1788 2309 1652 2417 
Q 1516 2525 1450 2525 
Q 1394 2525 1328 2463 
Q 1188 2334 1038 2041 
L 1038 669 
Q 1038 431 1097 309 
Q 1138 225 1241 169 
Q 1344 113 1538 113 
L 1538 0 
L 72 0 
L 72 113 
Q 291 113 397 181 
Q 475 231 506 341 
Q 522 394 522 644 
L 522 1753 
Q 522 2253 501 2348 
Q 481 2444 426 2487 
Q 372 2531 291 2531 
Q 194 2531 72 2484 
L 41 2597 
L 906 2947 
L 1038 2947 
z
" transform="scale(0.015625)"/>
       <path id="TimesNewRomanPSMT-61" d="M 1822 413 
Q 1381 72 1269 19 
Q 1100 -59 909 -59 
Q 613 -59 420 144 
Q 228 347 228 678 
Q 228 888 322 1041 
Q 450 1253 767 1440 
Q 1084 1628 1822 1897 
L 1822 2009 
Q 1822 2438 1686 2597 
Q 1550 2756 1291 2756 
Q 1094 2756 978 2650 
Q 859 2544 859 2406 
L 866 2225 
Q 866 2081 792 2003 
Q 719 1925 600 1925 
Q 484 1925 411 2006 
Q 338 2088 338 2228 
Q 338 2497 613 2722 
Q 888 2947 1384 2947 
Q 1766 2947 2009 2819 
Q 2194 2722 2281 2516 
Q 2338 2381 2338 1966 
L 2338 994 
Q 2338 584 2353 492 
Q 2369 400 2405 369 
Q 2441 338 2488 338 
Q 2538 338 2575 359 
Q 2641 400 2828 588 
L 2828 413 
Q 2478 -56 2159 -56 
Q 2006 -56 1915 50 
Q 1825 156 1822 413 
z
M 1822 616 
L 1822 1706 
Q 1350 1519 1213 1441 
Q 966 1303 859 1153 
Q 753 1003 753 825 
Q 753 600 887 451 
Q 1022 303 1197 303 
Q 1434 303 1822 616 
z
" transform="scale(0.015625)"/>
       <path id="TimesNewRomanPSMT-79" d="M 38 2863 
L 1372 2863 
L 1372 2747 
L 1306 2747 
Q 1166 2747 1095 2686 
Q 1025 2625 1025 2534 
Q 1025 2413 1128 2197 
L 1825 753 
L 2466 2334 
Q 2519 2463 2519 2588 
Q 2519 2644 2497 2672 
Q 2472 2706 2419 2726 
Q 2366 2747 2231 2747 
L 2231 2863 
L 3163 2863 
L 3163 2747 
Q 3047 2734 2984 2696 
Q 2922 2659 2847 2556 
Q 2819 2513 2741 2316 
L 1575 -541 
Q 1406 -956 1132 -1168 
Q 859 -1381 606 -1381 
Q 422 -1381 303 -1275 
Q 184 -1169 184 -1031 
Q 184 -900 270 -820 
Q 356 -741 506 -741 
Q 609 -741 788 -809 
Q 913 -856 944 -856 
Q 1038 -856 1148 -759 
Q 1259 -663 1372 -384 
L 1575 113 
L 547 2272 
Q 500 2369 397 2513 
Q 319 2622 269 2659 
Q 197 2709 38 2747 
L 38 2863 
z
" transform="scale(0.015625)"/>
      </defs>
      <use xlink:href="#TimesNewRomanPSMT-41"/>
      <use xlink:href="#TimesNewRomanPSMT-63" transform="translate(72.216797 0)"/>
      <use xlink:href="#TimesNewRomanPSMT-63" transform="translate(116.601562 0)"/>
      <use xlink:href="#TimesNewRomanPSMT-75" transform="translate(160.986328 0)"/>
      <use xlink:href="#TimesNewRomanPSMT-72" transform="translate(210.986328 0)"/>
      <use xlink:href="#TimesNewRomanPSMT-61" transform="translate(244.287109 0)"/>
      <use xlink:href="#TimesNewRomanPSMT-63" transform="translate(288.671875 0)"/>
      <use xlink:href="#TimesNewRomanPSMT-79" transform="translate(333.056641 0)"/>
     </g>
    </g>
   </g>
   <g id="line2d_31">
    <path d="M 350.654625 176.85777 
L 423.379865 178.321376 
L 442.990808 145.722655 
L 454.802491 128.691484 
L 463.28173 115.918114 
L 469.900913 110.063646 
L 475.331076 106.471141 
L 479.935039 103.27779 
L 483.931328 101.814185 
L 487.461812 101.281952 
L 490.623832 101.281952 
L 493.487081 100.084456 
L 496.103177 98.487772 
L 498.511419 98.487772 
L 500.742419 97.955555 
L 502.820486 97.955555 
L 504.765249 97.556384 
L 506.592784 97.556384 
L 508.316424 97.290276 
L 509.94735 97.290276 
L 511.495028 97.157214 
L 512.967546 96.225826 
L 514.371866 96.092764 
L 515.714028 96.092764 
L 516.999301 95.161376 
L 518.232313 95.161376 
L 519.417147 94.229988 
L 522.71691 93.032475 
L 523.741599 92.500258 
L 524.732795 92.500258 
L 525.692619 91.56887 
L 526.622996 91.302746 
L 528.402269 91.56887 
L 529.254232 91.302746 
L 530.082915 91.435808 
L 530.889556 91.169699 
L 531.675296 90.50442 
L 533.917295 90.903591 
L 534.62925 90.371358 
L 536.004901 90.903591 
L 537.320852 90.637466 
L 538.582069 89.972187 
L 541.523121 88.641628 
L 542.078593 88.109411 
L 542.624074 88.109411 
L 543.159916 87.976349 
L 544.204009 87.444132 
L 545.21335 87.444132 
L 546.190178 86.113573 
L 547.136524 85.847464 
L 547.598848 85.58134 
L 548.05423 85.182185 
L 548.502876 85.315231 
L 548.944982 85.049123 
L 549.380735 85.049123 
L 550.651643 84.649952 
L 551.063713 84.649952 
L 552.267359 84.250781 
L 552.658188 83.984673 
L 553.044044 83.984673 
L 553.425053 83.585502 
L 554.173005 83.85161 
L 554.540175 83.718564 
L 554.902953 83.718564 
L 555.261443 83.585502 
L 555.615745 83.585502 
L 555.965956 83.452456 
L 556.312168 83.85161 
L 556.654473 83.585502 
L 556.992958 83.585502 
L 557.327706 83.319393 
L 557.986318 83.319393 
L 558.310338 82.920223 
L 558.630931 82.920223 
L 558.948172 82.787176 
L 559.880455 82.787176 
L 560.184955 82.654114 
L 560.486427 82.654114 
L 560.784933 82.388005 
L 561.080529 82.388005 
L 561.373271 82.254943 
L 561.950413 81.855772 
L 562.516777 81.589664 
L 562.796041 81.589664 
L 563.346972 81.057447 
L 563.888073 81.057447 
L 564.419689 80.791322 
L 564.682042 80.791322 
L 564.942146 80.392167 
L 565.200038 80.392167 
L 565.960811 79.992997 
L 566.457593 79.992997 
L 566.702966 80.126043 
L 566.94637 79.859934 
L 567.187835 80.259105 
L 567.427393 79.859934 
L 567.665074 79.992997 
L 568.134919 79.726888 
L 568.597596 79.327717 
L 568.826314 79.194655 
L 569.053321 79.194655 
L 569.27864 79.061609 
L 570.163543 79.061609 
L 570.380793 79.460764 
L 570.596497 78.928546 
L 571.023357 78.928546 
L 571.444292 78.662438 
L 571.652589 78.795484 
L 571.859465 78.795484 
L 572.269031 78.529376 
L 572.67314 78.130205 
L 572.873192 78.130205 
L 573.465553 78.396313 
L 573.854128 78.263267 
L 574.616655 78.263267 
L 574.804328 78.130205 
L 575.176226 78.529376 
L 575.360479 77.864096 
L 575.906614 78.263267 
L 576.086496 77.997158 
L 576.443089 78.130205 
L 577.659147 78.130205 
L 577.828956 77.997158 
L 577.99782 78.130205 
L 578.165749 77.864096 
L 578.332753 77.864096 
L 578.828318 77.597988 
L 578.991723 77.597988 
L 579.315916 77.731034 
L 579.636679 77.464925 
L 579.954085 77.597988 
L 580.886847 77.597988 
L 581.039555 77.731034 
L 581.191499 77.597988 
L 581.342685 77.731034 
L 581.642815 77.597988 
L 581.940005 77.597988 
L 582.23431 77.731034 
L 582.380398 77.731034 
L 582.525786 77.864096 
L 582.670481 77.597988 
L 582.814488 77.597988 
L 582.957815 77.464925 
L 583.100467 77.731034 
L 583.383775 77.597988 
L 583.524443 77.597988 
L 583.664461 77.731034 
L 583.803836 77.597988 
L 583.942573 77.864096 
L 584.080679 77.597988 
L 584.218158 77.864096 
L 584.491261 77.731034 
L 584.761927 77.731034 
L 585.030198 77.864096 
L 585.296118 77.731034 
L 585.428208 77.731034 
L 585.559726 77.997158 
L 585.690675 77.997158 
L 585.821062 77.731034 
L 585.95089 77.731034 
L 586.337074 77.464925 
L 586.591825 77.597988 
L 586.718402 77.597988 
L 586.844454 77.464925 
L 587.094995 77.597988 
L 587.219494 77.597988 
L 587.343484 77.331879 
L 587.466969 77.597988 
L 587.712441 77.198817 
L 587.834436 77.464925 
L 588.076964 77.198817 
L 588.197504 77.331879 
L 588.317567 77.731034 
L 588.437157 77.731034 
L 588.674931 77.464925 
L 589.028132 77.997158 
L 589.261335 77.864096 
L 589.377268 77.864096 
L 589.607811 77.731034 
L 589.72243 77.731034 
L 590.063707 77.331879 
L 590.289111 77.731034 
L 590.401187 77.597988 
L 590.624106 77.731034 
L 590.734953 77.597988 
L 590.845397 77.731034 
L 591.065086 77.597988 
L 591.174337 77.597988 
L 591.283195 77.731034 
L 591.499746 77.464925 
L 591.821702 77.464925 
L 592.034455 77.597988 
L 592.350813 77.597988 
L 592.5599 77.464925 
L 592.767555 77.597988 
L 592.870851 77.597988 
L 593.076395 77.464925 
L 593.280556 77.731034 
L 593.382123 77.597988 
L 593.584242 77.731034 
L 593.684799 77.731034 
L 593.785023 77.464925 
L 593.984484 77.731034 
L 594.182642 77.731034 
L 594.379513 77.864096 
L 594.477471 77.864096 
L 594.575114 77.597988 
L 594.672444 77.864096 
L 594.769462 77.731034 
L 594.866171 77.864096 
L 595.058669 77.731034 
L 596.372989 77.731034 
L 596.556185 77.597988 
L 596.828919 77.597988 
L 596.919289 77.464925 
L 597.009389 77.597988 
L 597.099223 77.464925 
L 597.188792 77.597988 
L 597.278097 77.331879 
L 597.367139 77.597988 
L 597.544444 77.464925 
L 597.808473 77.464925 
L 597.895974 77.331879 
L 598.070223 77.464925 
L 598.243476 77.331879 
L 598.672328 77.331879 
L 598.842185 77.065755 
L 598.926758 76.932708 
L 599.011096 77.065755 
L 599.346122 76.6666 
L 600.490398 76.6666 
L 600.570503 76.533537 
L 600.650398 76.6666 
L 600.809558 76.533537 
L 601.125394 76.533537 
L 601.203842 76.6666 
L 601.282087 76.533537 
L 601.515619 76.799646 
L 601.747367 76.799646 
L 602.053635 76.400475 
L 602.281323 76.400475 
L 602.35684 76.267429 
L 602.432171 76.400475 
L 602.507314 76.134367 
L 602.582272 76.400475 
L 602.657045 76.134367 
L 602.731634 76.400475 
L 602.80604 76.134367 
L 602.954307 76.400475 
L 603.248683 76.400475 
L 603.321833 76.533537 
L 603.467605 76.400475 
L 603.61268 76.400475 
L 603.684959 76.533537 
L 603.972361 76.134367 
L 604.609228 76.134367 
L 604.818579 75.868258 
L 605.164318 75.868258 
L 605.232995 75.735196 
L 605.301517 75.868258 
L 605.369885 75.735196 
L 605.438099 75.868258 
L 605.574068 75.735196 
L 605.641825 75.735196 
L 605.776886 75.60215 
L 606.045217 75.60215 
L 606.11193 75.735196 
L 606.178497 75.60215 
L 606.244918 75.735196 
L 606.57486 75.202979 
L 606.640419 75.202979 
L 606.771115 75.069917 
L 607.352374 75.069917 
L 607.480044 74.93687 
L 607.85986 74.93687 
L 608.047999 74.670746 
L 608.850045 74.670746 
L 608.910871 74.537699 
L 608.971575 74.670746 
L 609.631425 74.670746 
L 609.690705 74.537699 
L 609.74987 74.670746 
L 609.926675 74.803808 
L 609.985382 74.803808 
L 610.160824 74.670746 
L 611.41729 74.670746 
L 611.584663 74.537699 
L 611.751117 74.670746 
L 611.861581 74.670746 
L 612.026526 74.803808 
L 612.135994 74.803808 
L 612.245067 74.93687 
L 612.407946 74.670746 
L 612.569954 75.069917 
L 612.677481 75.069917 
L 612.83806 74.93687 
L 612.997793 74.93687 
L 613.156689 75.069917 
L 613.262159 75.069917 
L 613.472005 74.537699 
L 613.524241 74.670746 
L 613.628442 74.670746 
L 613.784077 74.537699 
L 613.835778 74.670746 
L 613.938917 74.271591 
L 613.990355 74.404637 
L 614.195239 74.138529 
L 614.55049 74.138529 
L 614.701475 74.271591 
L 614.951459 74.271591 
L 615.050879 74.138529 
L 615.248745 74.404637 
L 615.640647 74.404637 
L 615.834716 74.93687 
L 615.931286 74.404637 
L 616.075567 74.93687 
L 616.171375 74.537699 
L 616.266881 74.670746 
L 616.504338 74.670746 
L 616.598803 74.803808 
L 616.833686 74.404637 
L 616.927132 74.404637 
L 617.020291 74.271591 
L 617.113165 74.404637 
L 617.251944 74.271591 
L 617.527612 74.271591 
L 617.618948 74.404637 
L 617.755437 74.271591 
L 617.891315 74.404637 
L 618.071544 74.404637 
L 618.250708 74.138529 
L 618.295334 74.138529 
L 618.42882 74.271591 
L 618.56172 74.271591 
L 618.605891 74.138529 
L 618.649998 74.271591 
L 618.694041 74.271591 
L 618.73802 74.005466 
L 618.825787 74.138529 
L 618.956964 74.005466 
L 619.0441 74.005466 
L 619.174338 74.271591 
L 619.774825 74.271591 
L 619.859646 74.138529 
L 619.986435 74.404637 
L 620.112696 74.271591 
L 621.022891 74.271591 
L 621.144919 74.138529 
L 621.508083 74.138529 
L 621.628178 74.271591 
L 621.86695 74.271591 
L 621.985635 74.404637 
L 622.455784 74.404637 
L 622.572191 74.537699 
L 622.688153 74.537699 
L 622.842082 74.404637 
L 622.995235 74.537699 
L 623.033402 74.404637 
L 623.109593 74.537699 
L 623.147617 74.537699 
L 623.299238 74.670746 
L 623.487704 74.404637 
L 624.156647 74.404637 
L 624.303318 74.537699 
L 624.449284 74.271591 
L 624.9547 74.271591 
L 625.097571 74.138529 
L 625.416591 74.138529 
L 625.557308 74.271591 
L 625.592385 74.271591 
L 625.732291 74.138529 
L 625.871553 74.271591 
L 626.079256 74.271591 
L 626.216938 74.404637 
L 626.490441 74.404637 
L 626.524457 74.271591 
L 626.592373 74.404637 
L 626.626274 74.404637 
L 626.7615 74.138529 
L 626.828888 74.404637 
L 626.862526 74.271591 
L 626.963216 74.138529 
L 627.096952 74.404637 
L 627.230101 74.138529 
L 627.494657 74.138529 
L 627.626075 74.271591 
L 628.689077 74.271591 
L 628.783892 74.005466 
L 628.815431 74.138529 
L 629.408523 74.138529 
L 629.53192 74.005466 
L 630.886607 74.005466 
L 631.004146 73.87242 
L 631.871459 73.87242 
L 632.041985 74.138529 
L 632.070313 73.87242 
L 632.155138 74.005466 
L 632.183361 73.87242 
L 632.267871 74.005466 
L 632.295989 74.005466 
L 632.324081 73.87242 
L 632.4082 74.005466 
L 632.770046 74.005466 
L 632.908076 74.138529 
L 633.372734 74.138529 
L 633.508054 74.005466 
L 633.615877 74.005466 
L 633.776896 73.739358 
L 633.88377 73.87242 
L 634.016834 73.739358 
L 634.043376 73.739358 
L 634.069896 73.87242 
L 634.149316 73.739358 
L 635.645256 73.739358 
L 635.770827 73.87242 
L 635.82091 73.87242 
L 635.845921 73.739358 
L 635.920829 73.87242 
L 637.665267 73.87242 
L 637.782763 73.739358 
L 638.086137 73.739358 
L 638.155718 73.87242 
L 638.178876 73.606311 
L 638.248245 73.473249 
L 638.294402 73.739358 
L 638.386508 73.473249 
L 638.40949 73.606311 
L 638.547022 73.606311 
L 638.569883 73.473249 
L 638.638364 73.606311 
L 638.70669 73.606311 
L 638.729432 73.739358 
L 638.774863 73.606311 
L 638.865523 73.340187 
L 638.93334 73.606311 
L 638.955913 73.473249 
L 638.978468 73.340187 
L 639.001006 73.606311 
L 639.046033 73.606311 
L 639.068522 73.606311 
L 639.203103 73.473249 
L 639.225476 73.606311 
L 639.247832 73.340187 
L 639.3148 73.473249 
L 639.426087 73.340187 
L 639.514824 73.473249 
L 639.536967 73.340187 
L 639.581206 73.340187 
L 639.603301 73.473249 
L 639.691522 73.340187 
L 640.063621 73.340187 
L 640.085368 73.207141 
L 640.172199 73.340187 
L 640.559891 73.340187 
L 640.581285 73.207141 
L 640.666709 73.340187 
L 640.688028 73.340187 
L 640.815626 73.473249 
L 640.94269 73.340187 
L 640.984926 73.473249 
L 641.048171 73.340187 
L 641.216181 73.340187 
L 641.237117 73.473249 
L 641.320717 73.340187 
L 642.7476 73.340187 
L 642.866837 73.473249 
L 643.397677 73.473249 
L 643.41716 73.340187 
L 643.494969 73.473249 
L 643.59195 73.473249 
L 643.669313 73.340187 
L 643.688622 73.473249 
L 643.938537 73.473249 
L 643.995918 73.606311 
L 644.015021 73.473249 
L 644.129387 73.340187 
L 644.148406 73.340187 
L 644.167413 73.473249 
L 644.243323 73.340187 
L 644.281207 73.340187 
L 644.394575 73.473249 
L 644.507521 73.340187 
L 644.545077 73.473249 
L 644.601323 73.340187 
L 644.620049 73.340187 
L 644.676156 73.473249 
L 644.73216 73.340187 
L 644.806671 73.340187 
L 644.82527 73.207141 
L 644.843858 73.473249 
L 644.918096 73.340187 
L 644.973655 73.340187 
L 645.084469 73.207141 
L 645.213242 73.340187 
L 645.231594 73.340187 
L 645.341471 73.074078 
L 645.359745 73.207141 
L 645.487357 73.340187 
L 645.578181 73.340187 
L 645.596313 73.473249 
L 645.668734 76.400475 
L 645.704879 74.005466 
L 645.740982 75.069917 
L 645.813058 74.005466 
L 645.83105 73.87242 
L 645.849032 74.138529 
L 645.884963 74.803808 
L 645.974606 74.537699 
L 646.099662 74.404637 
L 646.117486 74.404637 
L 646.206445 74.138529 
L 646.241955 74.271591 
L 646.295144 74.271591 
L 646.365916 74.138529 
L 646.383584 74.271591 
L 646.542129 74.670746 
L 646.647367 74.670746 
L 646.769686 74.537699 
L 646.821957 74.537699 
L 646.943575 74.404637 
L 647.047432 74.404637 
L 647.16815 74.271591 
L 647.442287 74.271591 
L 647.561447 74.138529 
L 648.100294 74.138529 
L 648.216902 74.005466 
L 648.233524 74.005466 
L 648.349621 73.87242 
L 648.85849 73.87242 
L 648.907285 73.739358 
L 648.956002 73.87242 
L 649.230596 73.87242 
L 649.342946 74.005466 
L 649.677518 74.005466 
L 649.80401 74.138529 
L 649.977079 74.138529 
L 650.10233 74.005466 
L 650.827912 74.005466 
L 650.873642 73.87242 
L 650.934508 74.005466 
L 651.596091 74.005466 
L 651.714844 73.87242 
L 651.921549 73.87242 
L 652.05369 74.138529 
L 652.677206 74.138529 
L 652.791808 74.005466 
L 652.977117 74.005466 
L 653.033908 73.87242 
L 653.076432 74.005466 
L 653.104748 74.005466 
L 653.217748 73.87242 
L 654.202597 73.87242 
L 654.338774 73.606311 
L 654.555393 73.606311 
L 654.609307 73.739358 
L 654.663125 73.606311 
L 655.393601 73.606311 
L 655.511476 73.473249 
L 656.285814 73.473249 
L 656.400279 73.340187 
L 656.615317 73.340187 
L 656.728547 73.207141 
L 656.903846 73.207141 
L 657.016005 73.074078 
L 657.643858 73.074078 
L 657.765457 73.207141 
L 658.03127 73.207141 
L 658.151328 73.074078 
L 658.223136 73.074078 
L 658.342439 72.941032 
L 658.413796 72.941032 
L 658.532352 73.074078 
L 658.697556 73.074078 
L 658.721084 72.941032 
L 658.803286 73.074078 
L 660.134022 73.074078 
L 660.246053 73.207141 
L 661.333388 73.207141 
L 661.451831 73.340187 
L 661.569814 73.207141 
L 662.466343 73.207141 
L 662.580451 73.074078 
L 663.296706 73.074078 
L 663.427882 73.340187 
L 663.708503 73.340187 
L 663.827979 73.207141 
L 664.457354 73.207141 
L 664.573922 73.340187 
L 664.602994 73.340187 
L 664.719004 73.473249 
L 665.405897 73.473249 
L 665.481267 73.606311 
L 665.50008 73.473249 
L 665.518881 73.207141 
L 665.528278 73.340187 
L 665.547062 87.31107 
L 665.631447 73.739358 
L 665.640808 73.739358 
L 665.659523 73.87242 
L 665.715598 73.473249 
L 665.724933 73.473249 
L 665.780887 73.207141 
L 665.836738 73.340187 
L 665.873915 73.340187 
L 665.911046 73.207141 
L 665.966658 73.473249 
L 665.975916 73.473249 
L 666.022168 73.473249 
L 666.142092 73.606311 
L 666.188091 73.606311 
L 666.316517 73.87242 
L 666.33482 73.87242 
L 666.453517 74.005466 
L 666.562672 74.005466 
L 666.680482 73.87242 
L 666.806845 73.87242 
L 666.923712 73.739358 
L 666.977499 73.739358 
L 667.093712 73.606311 
L 667.173907 73.606311 
L 667.298234 73.340187 
L 667.457339 73.340187 
L 667.571731 73.473249 
L 667.589291 73.473249 
L 667.703187 73.340187 
L 667.720672 73.340187 
L 667.842783 73.606311 
L 667.955733 73.606311 
L 667.999063 73.739358 
L 668.059622 73.606311 
L 668.726365 73.606311 
L 668.751719 73.473249 
L 668.836078 73.606311 
L 669.10446 73.606311 
L 669.171187 73.739358 
L 669.212816 73.606311 
L 669.420111 73.606311 
L 669.53558 73.473249 
L 669.59315 73.473249 
L 669.707963 73.340187 
L 669.748863 73.340187 
L 669.863089 73.207141 
L 670.066001 73.207141 
L 670.1871 73.473249 
L 670.619094 73.473249 
L 670.72218 72.80797 
L 670.745919 73.207141 
L 670.753828 73.207141 
L 670.801239 75.069917 
L 670.887967 74.404637 
L 670.911577 74.404637 
L 670.99799 74.271591 
L 671.013675 74.404637 
L 671.021515 74.537699 
L 671.091979 74.005466 
L 671.099799 74.005466 
L 671.123245 74.005466 
L 671.240202 73.87242 
L 671.26354 73.87242 
L 671.302396 74.005466 
L 671.364462 73.739358 
L 671.426402 73.739358 
L 671.565305 74.271591 
L 671.695909 74.271591 
L 671.810684 74.404637 
L 672.12976 74.404637 
L 672.250435 74.138529 
L 672.490354 74.138529 
L 672.602166 74.005466 
L 672.69132 74.005466 
L 672.758014 73.87242 
L 672.795003 74.138529 
L 672.920429 74.138529 
L 673.008653 74.005466 
L 673.030669 74.138529 
L 673.525461 74.138529 
L 673.640719 74.271591 
L 673.726876 74.271591 
L 673.827084 74.404637 
L 673.834229 74.271591 
L 674.139885 74.271591 
L 674.259881 74.005466 
L 674.295083 74.005466 
L 674.414468 73.739358 
L 674.81828 73.739358 
L 674.935627 73.87242 
L 675.025057 73.87242 
L 675.14845 73.606311 
L 675.697589 73.606311 
L 675.811588 73.473249 
L 676.467087 73.473249 
L 676.473637 73.606311 
L 676.578236 73.473249 
L 676.805797 73.473249 
L 676.922167 73.606311 
L 677.044519 73.606311 
L 677.159979 73.739358 
L 677.510072 73.739358 
L 677.623775 73.87242 
L 677.806073 73.87242 
L 677.918674 73.739358 
L 678.81687 73.739358 
L 678.913704 73.606311 
L 678.925787 73.739358 
L 678.980099 73.739358 
L 679.09444 73.606311 
L 679.214334 73.606311 
L 679.327797 73.473249 
L 679.393292 73.473249 
L 679.417074 73.606311 
L 679.500162 73.473249 
L 679.718664 73.473249 
L 679.830259 73.340187 
L 680.634406 73.340187 
L 680.748376 73.473249 
L 680.816553 73.473249 
L 680.918532 73.739358 
L 680.924187 73.606311 
L 680.929842 73.473249 
L 680.935495 75.069917 
L 680.941147 76.799646 
L 680.975039 73.207141 
L 681.037075 73.739358 
L 681.07086 74.005466 
L 681.138316 73.606311 
L 681.239221 73.606311 
L 681.35652 73.87242 
L 681.428907 73.87242 
L 681.556554 73.473249 
L 681.62294 73.473249 
L 681.749775 73.074078 
L 681.782776 73.074078 
L 681.881562 73.207141 
L 681.892518 73.074078 
L 681.990948 73.074078 
L 682.105381 73.207141 
L 682.246464 73.207141 
L 682.359938 73.074078 
L 682.47299 73.207141 
L 682.542764 73.207141 
L 682.585621 73.340187 
L 682.649795 73.207141 
L 682.761773 73.207141 
L 682.878642 73.87242 
L 682.889244 73.739358 
L 682.921028 72.941032 
L 682.952779 74.537699 
L 682.968642 74.271591 
L 683.000343 74.803808 
L 683.084718 74.670746 
L 683.105775 74.670746 
L 683.137333 74.537699 
L 683.216085 74.670746 
L 683.310318 74.670746 
L 683.336442 74.93687 
L 683.425096 74.803808 
L 683.466726 74.803808 
L 683.529063 74.93687 
L 683.565368 74.537699 
L 683.570551 74.537699 
L 683.694674 74.138529 
L 683.854252 74.138529 
L 683.956761 74.005466 
L 683.961877 74.138529 
L 683.972108 74.138529 
L 684.089507 73.87242 
L 684.15058 73.87242 
L 684.211529 73.739358 
L 684.257161 73.87242 
L 684.423892 73.87242 
L 684.489324 74.005466 
L 684.53454 73.87242 
L 684.589712 73.87242 
L 684.70475 74.005466 
L 684.764597 74.005466 
L 684.8889 73.606311 
L 685.022577 73.606311 
L 685.140909 73.340187 
L 685.194991 73.340187 
L 685.253879 73.207141 
L 685.302865 73.340187 
L 685.541761 73.340187 
L 685.658088 73.606311 
L 685.846173 73.606311 
L 685.96134 73.473249 
L 686.722817 73.473249 
L 686.83471 73.340187 
L 686.89979 73.340187 
L 687.015659 73.074078 
L 687.043402 73.074078 
L 687.158724 72.941032 
L 687.227707 72.941032 
L 687.351484 72.541861 
L 687.456526 72.541861 
L 687.561205 72.80797 
L 687.570291 72.674908 
L 688.527044 72.674908 
L 688.614937 72.541861 
L 688.63687 72.674908 
L 688.885797 72.674908 
L 688.998668 72.541861 
L 689.085207 72.541861 
L 689.197339 72.408799 
L 689.356201 72.408799 
L 689.416094 72.541861 
L 689.467338 72.408799 
L 689.514235 72.408799 
L 689.629039 72.541861 
L 689.832069 72.541861 
L 689.924672 72.408799 
L 689.941479 72.541861 
L 689.966671 72.541861 
L 690.079779 72.408799 
L 690.503307 72.408799 
L 690.536276 72.541861 
L 690.614435 72.408799 
L 690.965707 72.408799 
L 691.079202 72.275737 
L 691.180179 72.275737 
L 691.292876 72.408799 
L 691.532968 72.408799 
L 691.644364 72.541861 
L 692.724887 72.541861 
L 692.839634 72.674908 
L 695.150616 72.674908 
L 695.263607 72.80797 
L 697.625699 72.80797 
L 697.739597 72.674908 
L 699.327824 72.674908 
L 699.441659 72.80797 
L 700.438472 72.80797 
L 700.551181 72.674908 
L 700.586687 72.674908 
L 700.698847 72.541861 
L 705.658726 72.541861 
L 705.771093 72.674908 
L 707.774625 72.674908 
L 707.774625 72.674908 
" clip-path="url(#p15afe9c60e)" style="fill: none; stroke: #1f77b4; stroke-width: 1.5; stroke-linecap: square"/>
   </g>
   <g id="patch_3">
    <path d="M 350.654625 311.6435 
L 350.654625 45.5315 
" style="fill: none; stroke: #000000; stroke-width: 0.8; stroke-linejoin: miter; stroke-linecap: square"/>
   </g>
   <g id="patch_4">
    <path d="M 707.774625 311.6435 
L 707.774625 45.5315 
" style="fill: none; stroke: #000000; stroke-width: 0.8; stroke-linejoin: miter; stroke-linecap: square"/>
   </g>
   <g id="patch_5">
    <path d="M 350.654625 311.6435 
L 707.774625 311.6435 
" style="fill: none; stroke: #000000; stroke-width: 0.8; stroke-linejoin: miter; stroke-linecap: square"/>
   </g>
   <g id="patch_6">
    <path d="M 350.654625 45.5315 
L 707.774625 45.5315 
" style="fill: none; stroke: #000000; stroke-width: 0.8; stroke-linejoin: miter; stroke-linecap: square"/>
   </g>
   <g id="text_18">
    <!-- Accuracy of the 07_07_25_CIFAR10_torch_model_(1024+512-512.1+1)_c-p on the validation set -->
    <g transform="translate(7.2 25.5315) scale(0.264 -0.264)">
     <defs>
      <path id="TimesNewRomanPSMT-20" transform="scale(0.015625)"/>
      <path id="TimesNewRomanPSMT-6f" d="M 1600 2947 
Q 2250 2947 2644 2453 
Q 2978 2031 2978 1484 
Q 2978 1100 2793 706 
Q 2609 313 2286 112 
Q 1963 -88 1566 -88 
Q 919 -88 538 428 
Q 216 863 216 1403 
Q 216 1797 411 2186 
Q 606 2575 925 2761 
Q 1244 2947 1600 2947 
z
M 1503 2744 
Q 1338 2744 1170 2645 
Q 1003 2547 900 2300 
Q 797 2053 797 1666 
Q 797 1041 1045 587 
Q 1294 134 1700 134 
Q 2003 134 2200 384 
Q 2397 634 2397 1244 
Q 2397 2006 2069 2444 
Q 1847 2744 1503 2744 
z
" transform="scale(0.015625)"/>
      <path id="TimesNewRomanPSMT-66" d="M 1319 2638 
L 1319 756 
Q 1319 356 1406 250 
Q 1522 113 1716 113 
L 1975 113 
L 1975 0 
L 266 0 
L 266 113 
L 394 113 
Q 519 113 622 175 
Q 725 238 764 344 
Q 803 450 803 756 
L 803 2638 
L 247 2638 
L 247 2863 
L 803 2863 
L 803 3050 
Q 803 3478 940 3775 
Q 1078 4072 1361 4255 
Q 1644 4438 1997 4438 
Q 2325 4438 2600 4225 
Q 2781 4084 2781 3909 
Q 2781 3816 2700 3733 
Q 2619 3650 2525 3650 
Q 2453 3650 2373 3701 
Q 2294 3753 2178 3923 
Q 2063 4094 1966 4153 
Q 1869 4213 1750 4213 
Q 1606 4213 1506 4136 
Q 1406 4059 1362 3898 
Q 1319 3738 1319 3069 
L 1319 2863 
L 2056 2863 
L 2056 2638 
L 1319 2638 
z
" transform="scale(0.015625)"/>
      <path id="TimesNewRomanPSMT-74" d="M 1031 3803 
L 1031 2863 
L 1700 2863 
L 1700 2644 
L 1031 2644 
L 1031 788 
Q 1031 509 1111 412 
Q 1191 316 1316 316 
Q 1419 316 1516 380 
Q 1613 444 1666 569 
L 1788 569 
Q 1678 263 1478 108 
Q 1278 -47 1066 -47 
Q 922 -47 784 33 
Q 647 113 581 261 
Q 516 409 516 719 
L 516 2644 
L 63 2644 
L 63 2747 
Q 234 2816 414 2980 
Q 594 3144 734 3369 
Q 806 3488 934 3803 
L 1031 3803 
z
" transform="scale(0.015625)"/>
      <path id="TimesNewRomanPSMT-68" d="M 1041 4444 
L 1041 2350 
Q 1388 2731 1591 2839 
Q 1794 2947 1997 2947 
Q 2241 2947 2416 2812 
Q 2591 2678 2675 2391 
Q 2734 2191 2734 1659 
L 2734 647 
Q 2734 375 2778 275 
Q 2809 200 2884 156 
Q 2959 113 3159 113 
L 3159 0 
L 1753 0 
L 1753 113 
L 1819 113 
Q 2019 113 2097 173 
Q 2175 234 2206 353 
Q 2216 403 2216 647 
L 2216 1659 
Q 2216 2128 2167 2275 
Q 2119 2422 2012 2495 
Q 1906 2569 1756 2569 
Q 1603 2569 1437 2487 
Q 1272 2406 1041 2159 
L 1041 647 
Q 1041 353 1073 281 
Q 1106 209 1195 161 
Q 1284 113 1503 113 
L 1503 0 
L 84 0 
L 84 113 
Q 275 113 384 172 
Q 447 203 484 290 
Q 522 378 522 647 
L 522 3238 
Q 522 3728 498 3840 
Q 475 3953 426 3993 
Q 378 4034 297 4034 
Q 231 4034 84 3984 
L 41 4094 
L 897 4444 
L 1041 4444 
z
" transform="scale(0.015625)"/>
      <path id="TimesNewRomanPSMT-65" d="M 681 1784 
Q 678 1147 991 784 
Q 1303 422 1725 422 
Q 2006 422 2214 576 
Q 2422 731 2563 1106 
L 2659 1044 
Q 2594 616 2278 264 
Q 1963 -88 1488 -88 
Q 972 -88 605 314 
Q 238 716 238 1394 
Q 238 2128 614 2539 
Q 991 2950 1559 2950 
Q 2041 2950 2350 2633 
Q 2659 2316 2659 1784 
L 681 1784 
z
M 681 1966 
L 2006 1966 
Q 1991 2241 1941 2353 
Q 1863 2528 1708 2628 
Q 1553 2728 1384 2728 
Q 1125 2728 920 2526 
Q 716 2325 681 1966 
z
" transform="scale(0.015625)"/>
      <path id="TimesNewRomanPSMT-5f" d="M 3256 -1381 
L -53 -1381 
L -53 -1119 
L 3256 -1119 
L 3256 -1381 
z
" transform="scale(0.015625)"/>
      <path id="TimesNewRomanPSMT-43" d="M 3853 4334 
L 3950 2894 
L 3853 2894 
Q 3659 3541 3300 3825 
Q 2941 4109 2438 4109 
Q 2016 4109 1675 3895 
Q 1334 3681 1139 3212 
Q 944 2744 944 2047 
Q 944 1472 1128 1050 
Q 1313 628 1683 403 
Q 2053 178 2528 178 
Q 2941 178 3256 354 
Q 3572 531 3950 1056 
L 4047 994 
Q 3728 428 3303 165 
Q 2878 -97 2294 -97 
Q 1241 -97 663 684 
Q 231 1266 231 2053 
Q 231 2688 515 3219 
Q 800 3750 1298 4042 
Q 1797 4334 2388 4334 
Q 2847 4334 3294 4109 
Q 3425 4041 3481 4041 
Q 3566 4041 3628 4100 
Q 3709 4184 3744 4334 
L 3853 4334 
z
" transform="scale(0.015625)"/>
      <path id="TimesNewRomanPSMT-49" d="M 1975 116 
L 1975 0 
L 159 0 
L 159 116 
L 309 116 
Q 572 116 691 269 
Q 766 369 766 750 
L 766 3488 
Q 766 3809 725 3913 
Q 694 3991 597 4047 
Q 459 4122 309 4122 
L 159 4122 
L 159 4238 
L 1975 4238 
L 1975 4122 
L 1822 4122 
Q 1563 4122 1444 3969 
Q 1366 3869 1366 3488 
L 1366 750 
Q 1366 428 1406 325 
Q 1438 247 1538 191 
Q 1672 116 1822 116 
L 1975 116 
z
" transform="scale(0.015625)"/>
      <path id="TimesNewRomanPSMT-46" d="M 1309 4006 
L 1309 2341 
L 2081 2341 
Q 2347 2341 2470 2458 
Q 2594 2575 2634 2922 
L 2750 2922 
L 2750 1488 
L 2634 1488 
Q 2631 1734 2570 1850 
Q 2509 1966 2401 2023 
Q 2294 2081 2081 2081 
L 1309 2081 
L 1309 750 
Q 1309 428 1350 325 
Q 1381 247 1481 191 
Q 1619 116 1769 116 
L 1922 116 
L 1922 0 
L 103 0 
L 103 116 
L 253 116 
Q 516 116 634 269 
Q 709 369 709 750 
L 709 3488 
Q 709 3809 669 3913 
Q 638 3991 541 4047 
Q 406 4122 253 4122 
L 103 4122 
L 103 4238 
L 3256 4238 
L 3297 3306 
L 3188 3306 
Q 3106 3603 2998 3742 
Q 2891 3881 2733 3943 
Q 2575 4006 2244 4006 
L 1309 4006 
z
" transform="scale(0.015625)"/>
      <path id="TimesNewRomanPSMT-52" d="M 4325 0 
L 3194 0 
L 1759 1981 
Q 1600 1975 1500 1975 
Q 1459 1975 1412 1976 
Q 1366 1978 1316 1981 
L 1316 750 
Q 1316 350 1403 253 
Q 1522 116 1759 116 
L 1925 116 
L 1925 0 
L 109 0 
L 109 116 
L 269 116 
Q 538 116 653 291 
Q 719 388 719 750 
L 719 3488 
Q 719 3888 631 3984 
Q 509 4122 269 4122 
L 109 4122 
L 109 4238 
L 1653 4238 
Q 2328 4238 2648 4139 
Q 2969 4041 3192 3777 
Q 3416 3513 3416 3147 
Q 3416 2756 3161 2468 
Q 2906 2181 2372 2063 
L 3247 847 
Q 3547 428 3762 290 
Q 3978 153 4325 116 
L 4325 0 
z
M 1316 2178 
Q 1375 2178 1419 2176 
Q 1463 2175 1491 2175 
Q 2097 2175 2405 2437 
Q 2713 2700 2713 3106 
Q 2713 3503 2464 3751 
Q 2216 4000 1806 4000 
Q 1625 4000 1316 3941 
L 1316 2178 
z
" transform="scale(0.015625)"/>
      <path id="TimesNewRomanPSMT-6d" d="M 1050 2338 
Q 1363 2650 1419 2697 
Q 1559 2816 1721 2881 
Q 1884 2947 2044 2947 
Q 2313 2947 2506 2790 
Q 2700 2634 2766 2338 
Q 3088 2713 3309 2830 
Q 3531 2947 3766 2947 
Q 3994 2947 4170 2830 
Q 4347 2713 4450 2447 
Q 4519 2266 4519 1878 
L 4519 647 
Q 4519 378 4559 278 
Q 4591 209 4675 161 
Q 4759 113 4950 113 
L 4950 0 
L 3538 0 
L 3538 113 
L 3597 113 
Q 3781 113 3884 184 
Q 3956 234 3988 344 
Q 4000 397 4000 647 
L 4000 1878 
Q 4000 2228 3916 2372 
Q 3794 2572 3525 2572 
Q 3359 2572 3192 2489 
Q 3025 2406 2788 2181 
L 2781 2147 
L 2788 2013 
L 2788 647 
Q 2788 353 2820 281 
Q 2853 209 2943 161 
Q 3034 113 3253 113 
L 3253 0 
L 1806 0 
L 1806 113 
Q 2044 113 2133 169 
Q 2222 225 2256 338 
Q 2272 391 2272 647 
L 2272 1878 
Q 2272 2228 2169 2381 
Q 2031 2581 1784 2581 
Q 1616 2581 1450 2491 
Q 1191 2353 1050 2181 
L 1050 647 
Q 1050 366 1089 281 
Q 1128 197 1204 155 
Q 1281 113 1516 113 
L 1516 0 
L 100 0 
L 100 113 
Q 297 113 375 155 
Q 453 197 493 289 
Q 534 381 534 647 
L 534 1741 
Q 534 2213 506 2350 
Q 484 2453 437 2492 
Q 391 2531 309 2531 
Q 222 2531 100 2484 
L 53 2597 
L 916 2947 
L 1050 2947 
L 1050 2338 
z
" transform="scale(0.015625)"/>
      <path id="TimesNewRomanPSMT-64" d="M 2222 322 
Q 2013 103 1813 7 
Q 1613 -88 1381 -88 
Q 913 -88 563 304 
Q 213 697 213 1313 
Q 213 1928 600 2439 
Q 988 2950 1597 2950 
Q 1975 2950 2222 2709 
L 2222 3238 
Q 2222 3728 2198 3840 
Q 2175 3953 2125 3993 
Q 2075 4034 2000 4034 
Q 1919 4034 1784 3984 
L 1744 4094 
L 2597 4444 
L 2738 4444 
L 2738 1134 
Q 2738 631 2761 520 
Q 2784 409 2836 365 
Q 2888 322 2956 322 
Q 3041 322 3181 375 
L 3216 266 
L 2366 -88 
L 2222 -88 
L 2222 322 
z
M 2222 541 
L 2222 2016 
Q 2203 2228 2109 2403 
Q 2016 2578 1861 2667 
Q 1706 2756 1559 2756 
Q 1284 2756 1069 2509 
Q 784 2184 784 1559 
Q 784 928 1059 592 
Q 1334 256 1672 256 
Q 1956 256 2222 541 
z
" transform="scale(0.015625)"/>
      <path id="TimesNewRomanPSMT-6c" d="M 1184 4444 
L 1184 647 
Q 1184 378 1223 290 
Q 1263 203 1344 158 
Q 1425 113 1647 113 
L 1647 0 
L 244 0 
L 244 113 
Q 441 113 512 153 
Q 584 194 625 287 
Q 666 381 666 647 
L 666 3247 
Q 666 3731 644 3842 
Q 622 3953 573 3993 
Q 525 4034 450 4034 
Q 369 4034 244 3984 
L 191 4094 
L 1044 4444 
L 1184 4444 
z
" transform="scale(0.015625)"/>
      <path id="TimesNewRomanPSMT-28" d="M 1988 -1253 
L 1988 -1369 
Q 1516 -1131 1200 -813 
Q 750 -359 506 256 
Q 263 872 263 1534 
Q 263 2503 741 3301 
Q 1219 4100 1988 4444 
L 1988 4313 
Q 1603 4100 1356 3731 
Q 1109 3363 987 2797 
Q 866 2231 866 1616 
Q 866 947 969 400 
Q 1050 -31 1165 -292 
Q 1281 -553 1476 -793 
Q 1672 -1034 1988 -1253 
z
" transform="scale(0.015625)"/>
      <path id="TimesNewRomanPSMT-2b" d="M 1672 441 
L 1672 2000 
L 116 2000 
L 116 2256 
L 1672 2256 
L 1672 3809 
L 1922 3809 
L 1922 2256 
L 3484 2256 
L 3484 2000 
L 1922 2000 
L 1922 441 
L 1672 441 
z
" transform="scale(0.015625)"/>
      <path id="TimesNewRomanPSMT-2d" d="M 259 1672 
L 1875 1672 
L 1875 1200 
L 259 1200 
L 259 1672 
z
" transform="scale(0.015625)"/>
      <path id="TimesNewRomanPSMT-29" d="M 144 4313 
L 144 4444 
Q 619 4209 934 3891 
Q 1381 3434 1625 2820 
Q 1869 2206 1869 1541 
Q 1869 572 1392 -226 
Q 916 -1025 144 -1369 
L 144 -1253 
Q 528 -1038 776 -670 
Q 1025 -303 1145 264 
Q 1266 831 1266 1447 
Q 1266 2113 1163 2663 
Q 1084 3094 967 3353 
Q 850 3613 656 3853 
Q 463 4094 144 4313 
z
" transform="scale(0.015625)"/>
      <path id="TimesNewRomanPSMT-70" d="M -6 2578 
L 875 2934 
L 994 2934 
L 994 2266 
Q 1216 2644 1439 2795 
Q 1663 2947 1909 2947 
Q 2341 2947 2628 2609 
Q 2981 2197 2981 1534 
Q 2981 794 2556 309 
Q 2206 -88 1675 -88 
Q 1444 -88 1275 -22 
Q 1150 25 994 166 
L 994 -706 
Q 994 -1000 1030 -1079 
Q 1066 -1159 1155 -1206 
Q 1244 -1253 1478 -1253 
L 1478 -1369 
L -22 -1369 
L -22 -1253 
L 56 -1253 
Q 228 -1256 350 -1188 
Q 409 -1153 442 -1076 
Q 475 -1000 475 -688 
L 475 2019 
Q 475 2297 450 2372 
Q 425 2447 370 2484 
Q 316 2522 222 2522 
Q 147 2522 31 2478 
L -6 2578 
z
M 994 2081 
L 994 1013 
Q 994 666 1022 556 
Q 1066 375 1236 237 
Q 1406 100 1666 100 
Q 1978 100 2172 344 
Q 2425 663 2425 1241 
Q 2425 1897 2138 2250 
Q 1938 2494 1663 2494 
Q 1513 2494 1366 2419 
Q 1253 2363 994 2081 
z
" transform="scale(0.015625)"/>
      <path id="TimesNewRomanPSMT-6e" d="M 1034 2341 
Q 1538 2947 1994 2947 
Q 2228 2947 2397 2830 
Q 2566 2713 2666 2444 
Q 2734 2256 2734 1869 
L 2734 647 
Q 2734 375 2778 278 
Q 2813 200 2889 156 
Q 2966 113 3172 113 
L 3172 0 
L 1756 0 
L 1756 113 
L 1816 113 
Q 2016 113 2095 173 
Q 2175 234 2206 353 
Q 2219 400 2219 647 
L 2219 1819 
Q 2219 2209 2117 2386 
Q 2016 2563 1775 2563 
Q 1403 2563 1034 2156 
L 1034 647 
Q 1034 356 1069 288 
Q 1113 197 1189 155 
Q 1266 113 1500 113 
L 1500 0 
L 84 0 
L 84 113 
L 147 113 
Q 366 113 442 223 
Q 519 334 519 647 
L 519 1709 
Q 519 2225 495 2337 
Q 472 2450 423 2490 
Q 375 2531 294 2531 
Q 206 2531 84 2484 
L 38 2597 
L 900 2947 
L 1034 2947 
L 1034 2341 
z
" transform="scale(0.015625)"/>
      <path id="TimesNewRomanPSMT-76" d="M 53 2863 
L 1400 2863 
L 1400 2747 
L 1313 2747 
Q 1191 2747 1127 2687 
Q 1063 2628 1063 2528 
Q 1063 2419 1128 2269 
L 1794 688 
L 2463 2328 
Q 2534 2503 2534 2594 
Q 2534 2638 2509 2666 
Q 2475 2713 2422 2730 
Q 2369 2747 2206 2747 
L 2206 2863 
L 3141 2863 
L 3141 2747 
Q 2978 2734 2916 2681 
Q 2806 2588 2719 2369 
L 1703 -88 
L 1575 -88 
L 553 2328 
Q 484 2497 421 2570 
Q 359 2644 263 2694 
Q 209 2722 53 2747 
L 53 2863 
z
" transform="scale(0.015625)"/>
      <path id="TimesNewRomanPSMT-69" d="M 928 4444 
Q 1059 4444 1151 4351 
Q 1244 4259 1244 4128 
Q 1244 3997 1151 3903 
Q 1059 3809 928 3809 
Q 797 3809 703 3903 
Q 609 3997 609 4128 
Q 609 4259 701 4351 
Q 794 4444 928 4444 
z
M 1188 2947 
L 1188 647 
Q 1188 378 1227 289 
Q 1266 200 1342 156 
Q 1419 113 1622 113 
L 1622 0 
L 231 0 
L 231 113 
Q 441 113 512 153 
Q 584 194 626 287 
Q 669 381 669 647 
L 669 1750 
Q 669 2216 641 2353 
Q 619 2453 572 2492 
Q 525 2531 444 2531 
Q 356 2531 231 2484 
L 188 2597 
L 1050 2947 
L 1188 2947 
z
" transform="scale(0.015625)"/>
      <path id="TimesNewRomanPSMT-73" d="M 2050 2947 
L 2050 1972 
L 1947 1972 
Q 1828 2431 1642 2597 
Q 1456 2763 1169 2763 
Q 950 2763 815 2647 
Q 681 2531 681 2391 
Q 681 2216 781 2091 
Q 878 1963 1175 1819 
L 1631 1597 
Q 2266 1288 2266 781 
Q 2266 391 1970 151 
Q 1675 -88 1309 -88 
Q 1047 -88 709 6 
Q 606 38 541 38 
Q 469 38 428 -44 
L 325 -44 
L 325 978 
L 428 978 
Q 516 541 762 319 
Q 1009 97 1316 97 
Q 1531 97 1667 223 
Q 1803 350 1803 528 
Q 1803 744 1651 891 
Q 1500 1038 1047 1263 
Q 594 1488 453 1669 
Q 313 1847 313 2119 
Q 313 2472 555 2709 
Q 797 2947 1181 2947 
Q 1350 2947 1591 2875 
Q 1750 2828 1803 2828 
Q 1853 2828 1881 2850 
Q 1909 2872 1947 2947 
L 2050 2947 
z
" transform="scale(0.015625)"/>
     </defs>
     <use xlink:href="#TimesNewRomanPSMT-41"/>
     <use xlink:href="#TimesNewRomanPSMT-63" transform="translate(72.216797 0)"/>
     <use xlink:href="#TimesNewRomanPSMT-63" transform="translate(116.601562 0)"/>
     <use xlink:href="#TimesNewRomanPSMT-75" transform="translate(160.986328 0)"/>
     <use xlink:href="#TimesNewRomanPSMT-72" transform="translate(210.986328 0)"/>
     <use xlink:href="#TimesNewRomanPSMT-61" transform="translate(244.287109 0)"/>
     <use xlink:href="#TimesNewRomanPSMT-63" transform="translate(288.671875 0)"/>
     <use xlink:href="#TimesNewRomanPSMT-79" transform="translate(333.056641 0)"/>
     <use xlink:href="#TimesNewRomanPSMT-20" transform="translate(383.056641 0)"/>
     <use xlink:href="#TimesNewRomanPSMT-6f" transform="translate(408.056641 0)"/>
     <use xlink:href="#TimesNewRomanPSMT-66" transform="translate(458.056641 0)"/>
     <use xlink:href="#TimesNewRomanPSMT-20" transform="translate(491.357422 0)"/>
     <use xlink:href="#TimesNewRomanPSMT-74" transform="translate(516.357422 0)"/>
     <use xlink:href="#TimesNewRomanPSMT-68" transform="translate(544.140625 0)"/>
     <use xlink:href="#TimesNewRomanPSMT-65" transform="translate(594.140625 0)"/>
     <use xlink:href="#TimesNewRomanPSMT-20" transform="translate(638.525391 0)"/>
     <use xlink:href="#TimesNewRomanPSMT-30" transform="translate(663.525391 0)"/>
     <use xlink:href="#TimesNewRomanPSMT-37" transform="translate(713.525391 0)"/>
     <use xlink:href="#TimesNewRomanPSMT-5f" transform="translate(763.525391 0)"/>
     <use xlink:href="#TimesNewRomanPSMT-30" transform="translate(813.525391 0)"/>
     <use xlink:href="#TimesNewRomanPSMT-37" transform="translate(863.525391 0)"/>
     <use xlink:href="#TimesNewRomanPSMT-5f" transform="translate(913.525391 0)"/>
     <use xlink:href="#TimesNewRomanPSMT-32" transform="translate(963.525391 0)"/>
     <use xlink:href="#TimesNewRomanPSMT-35" transform="translate(1013.525391 0)"/>
     <use xlink:href="#TimesNewRomanPSMT-5f" transform="translate(1063.525391 0)"/>
     <use xlink:href="#TimesNewRomanPSMT-43" transform="translate(1113.525391 0)"/>
     <use xlink:href="#TimesNewRomanPSMT-49" transform="translate(1180.224609 0)"/>
     <use xlink:href="#TimesNewRomanPSMT-46" transform="translate(1213.525391 0)"/>
     <use xlink:href="#TimesNewRomanPSMT-41" transform="translate(1261.765625 0)"/>
     <use xlink:href="#TimesNewRomanPSMT-52" transform="translate(1333.982422 0)"/>
     <use xlink:href="#TimesNewRomanPSMT-31" transform="translate(1400.681641 0)"/>
     <use xlink:href="#TimesNewRomanPSMT-30" transform="translate(1450.681641 0)"/>
     <use xlink:href="#TimesNewRomanPSMT-5f" transform="translate(1500.681641 0)"/>
     <use xlink:href="#TimesNewRomanPSMT-74" transform="translate(1550.681641 0)"/>
     <use xlink:href="#TimesNewRomanPSMT-6f" transform="translate(1578.464844 0)"/>
     <use xlink:href="#TimesNewRomanPSMT-72" transform="translate(1628.464844 0)"/>
     <use xlink:href="#TimesNewRomanPSMT-63" transform="translate(1661.765625 0)"/>
     <use xlink:href="#TimesNewRomanPSMT-68" transform="translate(1706.150391 0)"/>
     <use xlink:href="#TimesNewRomanPSMT-5f" transform="translate(1756.150391 0)"/>
     <use xlink:href="#TimesNewRomanPSMT-6d" transform="translate(1806.150391 0)"/>
     <use xlink:href="#TimesNewRomanPSMT-6f" transform="translate(1883.933594 0)"/>
     <use xlink:href="#TimesNewRomanPSMT-64" transform="translate(1933.933594 0)"/>
     <use xlink:href="#TimesNewRomanPSMT-65" transform="translate(1983.933594 0)"/>
     <use xlink:href="#TimesNewRomanPSMT-6c" transform="translate(2028.318359 0)"/>
     <use xlink:href="#TimesNewRomanPSMT-5f" transform="translate(2056.101562 0)"/>
     <use xlink:href="#TimesNewRomanPSMT-28" transform="translate(2106.101562 0)"/>
     <use xlink:href="#TimesNewRomanPSMT-31" transform="translate(2139.402344 0)"/>
     <use xlink:href="#TimesNewRomanPSMT-30" transform="translate(2189.402344 0)"/>
     <use xlink:href="#TimesNewRomanPSMT-32" transform="translate(2239.402344 0)"/>
     <use xlink:href="#TimesNewRomanPSMT-34" transform="translate(2289.402344 0)"/>
     <use xlink:href="#TimesNewRomanPSMT-2b" transform="translate(2339.402344 0)"/>
     <use xlink:href="#TimesNewRomanPSMT-35" transform="translate(2395.798828 0)"/>
     <use xlink:href="#TimesNewRomanPSMT-31" transform="translate(2445.798828 0)"/>
     <use xlink:href="#TimesNewRomanPSMT-32" transform="translate(2495.798828 0)"/>
     <use xlink:href="#TimesNewRomanPSMT-2d" transform="translate(2545.798828 0)"/>
     <use xlink:href="#TimesNewRomanPSMT-35" transform="translate(2579.099609 0)"/>
     <use xlink:href="#TimesNewRomanPSMT-31" transform="translate(2629.099609 0)"/>
     <use xlink:href="#TimesNewRomanPSMT-32" transform="translate(2679.099609 0)"/>
     <use xlink:href="#TimesNewRomanPSMT-2e" transform="translate(2729.099609 0)"/>
     <use xlink:href="#TimesNewRomanPSMT-31" transform="translate(2754.099609 0)"/>
     <use xlink:href="#TimesNewRomanPSMT-2b" transform="translate(2804.099609 0)"/>
     <use xlink:href="#TimesNewRomanPSMT-31" transform="translate(2860.496094 0)"/>
     <use xlink:href="#TimesNewRomanPSMT-29" transform="translate(2910.496094 0)"/>
     <use xlink:href="#TimesNewRomanPSMT-5f" transform="translate(2943.796875 0)"/>
     <use xlink:href="#TimesNewRomanPSMT-63" transform="translate(2993.796875 0)"/>
     <use xlink:href="#TimesNewRomanPSMT-2d" transform="translate(3038.181641 0)"/>
     <use xlink:href="#TimesNewRomanPSMT-70" transform="translate(3071.482422 0)"/>
     <use xlink:href="#TimesNewRomanPSMT-20" transform="translate(3121.482422 0)"/>
     <use xlink:href="#TimesNewRomanPSMT-6f" transform="translate(3146.482422 0)"/>
     <use xlink:href="#TimesNewRomanPSMT-6e" transform="translate(3196.482422 0)"/>
     <use xlink:href="#TimesNewRomanPSMT-20" transform="translate(3246.482422 0)"/>
     <use xlink:href="#TimesNewRomanPSMT-74" transform="translate(3271.482422 0)"/>
     <use xlink:href="#TimesNewRomanPSMT-68" transform="translate(3299.265625 0)"/>
     <use xlink:href="#TimesNewRomanPSMT-65" transform="translate(3349.265625 0)"/>
     <use xlink:href="#TimesNewRomanPSMT-20" transform="translate(3393.650391 0)"/>
     <use xlink:href="#TimesNewRomanPSMT-76" transform="translate(3418.650391 0)"/>
     <use xlink:href="#TimesNewRomanPSMT-61" transform="translate(3468.650391 0)"/>
     <use xlink:href="#TimesNewRomanPSMT-6c" transform="translate(3513.035156 0)"/>
     <use xlink:href="#TimesNewRomanPSMT-69" transform="translate(3540.818359 0)"/>
     <use xlink:href="#TimesNewRomanPSMT-64" transform="translate(3568.601562 0)"/>
     <use xlink:href="#TimesNewRomanPSMT-61" transform="translate(3618.601562 0)"/>
     <use xlink:href="#TimesNewRomanPSMT-74" transform="translate(3662.986328 0)"/>
     <use xlink:href="#TimesNewRomanPSMT-69" transform="translate(3690.769531 0)"/>
     <use xlink:href="#TimesNewRomanPSMT-6f" transform="translate(3718.552734 0)"/>
     <use xlink:href="#TimesNewRomanPSMT-6e" transform="translate(3768.552734 0)"/>
     <use xlink:href="#TimesNewRomanPSMT-20" transform="translate(3818.552734 0)"/>
     <use xlink:href="#TimesNewRomanPSMT-73" transform="translate(3843.552734 0)"/>
     <use xlink:href="#TimesNewRomanPSMT-65" transform="translate(3882.46875 0)"/>
     <use xlink:href="#TimesNewRomanPSMT-74" transform="translate(3926.853516 0)"/>
    </g>
   </g>
   <g id="legend_1">
    <g id="patch_7">
     <path d="M 366.054625 300.6435 
L 592.224938 300.6435 
Q 596.624937 300.6435 596.624937 296.2435 
L 596.624937 267.296312 
Q 596.624937 262.896312 592.224938 262.896312 
L 366.054625 262.896312 
Q 361.654625 262.896312 361.654625 267.296312 
L 361.654625 296.2435 
Q 361.654625 300.6435 366.054625 300.6435 
z
" style="fill: #ffffff; opacity: 0.8; stroke: #cccccc; stroke-linejoin: miter"/>
    </g>
    <g id="line2d_32">
     <path d="M 370.454625 279.396312 
L 392.454625 279.396312 
L 414.454625 279.396312 
" style="fill: none; stroke: #1f77b4; stroke-width: 1.5; stroke-linecap: square"/>
    </g>
    <g id="text_19">
     <!-- Best accuracy 0.9 -->
     <g transform="translate(432.054625 287.096312) scale(0.22 -0.22)">
      <defs>
       <path id="TimesNewRomanPSMT-42" d="M 2956 2163 
Q 3397 2069 3616 1863 
Q 3919 1575 3919 1159 
Q 3919 844 3719 555 
Q 3519 266 3170 133 
Q 2822 0 2106 0 
L 106 0 
L 106 116 
L 266 116 
Q 531 116 647 284 
Q 719 394 719 750 
L 719 3488 
Q 719 3881 628 3984 
Q 506 4122 266 4122 
L 106 4122 
L 106 4238 
L 1938 4238 
Q 2450 4238 2759 4163 
Q 3228 4050 3475 3764 
Q 3722 3478 3722 3106 
Q 3722 2788 3528 2536 
Q 3334 2284 2956 2163 
z
M 1319 2331 
Q 1434 2309 1582 2298 
Q 1731 2288 1909 2288 
Q 2366 2288 2595 2386 
Q 2825 2484 2947 2687 
Q 3069 2891 3069 3131 
Q 3069 3503 2766 3765 
Q 2463 4028 1881 4028 
Q 1569 4028 1319 3959 
L 1319 2331 
z
M 1319 306 
Q 1681 222 2034 222 
Q 2600 222 2897 476 
Q 3194 731 3194 1106 
Q 3194 1353 3059 1581 
Q 2925 1809 2622 1940 
Q 2319 2072 1872 2072 
Q 1678 2072 1540 2065 
Q 1403 2059 1319 2044 
L 1319 306 
z
" transform="scale(0.015625)"/>
      </defs>
      <use xlink:href="#TimesNewRomanPSMT-42"/>
      <use xlink:href="#TimesNewRomanPSMT-65" transform="translate(66.699219 0)"/>
      <use xlink:href="#TimesNewRomanPSMT-73" transform="translate(111.083984 0)"/>
      <use xlink:href="#TimesNewRomanPSMT-74" transform="translate(150 0)"/>
      <use xlink:href="#TimesNewRomanPSMT-20" transform="translate(177.783203 0)"/>
      <use xlink:href="#TimesNewRomanPSMT-61" transform="translate(202.783203 0)"/>
      <use xlink:href="#TimesNewRomanPSMT-63" transform="translate(247.167969 0)"/>
      <use xlink:href="#TimesNewRomanPSMT-63" transform="translate(291.552734 0)"/>
      <use xlink:href="#TimesNewRomanPSMT-75" transform="translate(335.9375 0)"/>
      <use xlink:href="#TimesNewRomanPSMT-72" transform="translate(385.9375 0)"/>
      <use xlink:href="#TimesNewRomanPSMT-61" transform="translate(419.238281 0)"/>
      <use xlink:href="#TimesNewRomanPSMT-63" transform="translate(463.623047 0)"/>
      <use xlink:href="#TimesNewRomanPSMT-79" transform="translate(508.007812 0)"/>
      <use xlink:href="#TimesNewRomanPSMT-20" transform="translate(558.007812 0)"/>
      <use xlink:href="#TimesNewRomanPSMT-30" transform="translate(583.007812 0)"/>
      <use xlink:href="#TimesNewRomanPSMT-2e" transform="translate(633.007812 0)"/>
      <use xlink:href="#TimesNewRomanPSMT-39" transform="translate(658.007812 0)"/>
     </g>
    </g>
   </g>
  </g>
 </g>
 <defs>
  <clipPath id="p15afe9c60e">
   <rect x="350.654625" y="45.5315" width="357.12" height="266.112"/>
  </clipPath>
 </defs>
</svg>
