<?xml version="1.0" encoding="utf-8" standalone="no"?>
<!DOCTYPE svg PUBLIC "-//W3C//DTD SVG 1.1//EN"
  "http://www.w3.org/Graphics/SVG/1.1/DTD/svg11.dtd">
<svg xmlns:xlink="http://www.w3.org/1999/xlink" width="754.027875pt" height="359.208625pt" viewBox="0 0 754.027875 359.208625" xmlns="http://www.w3.org/2000/svg" version="1.1">
 <metadata>
  <rdf:RDF xmlns:dc="http://purl.org/dc/elements/1.1/" xmlns:cc="http://creativecommons.org/ns#" xmlns:rdf="http://www.w3.org/1999/02/22-rdf-syntax-ns#">
   <cc:Work>
    <dc:type rdf:resource="http://purl.org/dc/dcmitype/StillImage"/>
    <dc:date>2025-05-02T11:05:23.985159</dc:date>
    <dc:format>image/svg+xml</dc:format>
    <dc:creator>
     <cc:Agent>
      <dc:title>Matplotlib v3.10.1, https://matplotlib.org/</dc:title>
     </cc:Agent>
    </dc:creator>
   </cc:Work>
  </rdf:RDF>
 </metadata>
 <defs>
  <style type="text/css">*{stroke-linejoin: round; stroke-linecap: butt}</style>
 </defs>
 <g id="figure_1">
  <g id="patch_1">
   <path d="M 0 359.208625 
L 754.027875 359.208625 
L 754.027875 0 
L 0 0 
z
" style="fill: #ffffff"/>
  </g>
  <g id="axes_1">
   <g id="patch_2">
    <path d="M 198.453937 308.3105 
L 555.573938 308.3105 
L 555.573938 42.1985 
L 198.453937 42.1985 
z
" style="fill: #ffffff"/>
   </g>
   <g id="matplotlib.axis_1">
    <g id="xtick_1">
     <g id="line2d_1">
      <path d="M 198.453937 308.3105 
L 198.453937 42.1985 
" clip-path="url(#pe33698c9cd)" style="fill: none; stroke: #b0b0b0; stroke-opacity: 0.3; stroke-width: 0.8; stroke-linecap: square"/>
     </g>
     <g id="line2d_2">
      <defs>
       <path id="m932e9f365c" d="M 0 0 
L 0 3.5 
" style="stroke: #000000; stroke-width: 0.8"/>
      </defs>
      <g>
       <use xlink:href="#m932e9f365c" x="198.453937" y="308.3105" style="stroke: #000000; stroke-width: 0.8"/>
      </g>
     </g>
     <g id="text_1">
      <!-- 0 -->
      <g transform="translate(193.953937 327.80925) scale(0.18 -0.18)">
       <defs>
        <path id="TimesNewRomanPSMT-30" d="M 231 2094 
Q 231 2819 450 3342 
Q 669 3866 1031 4122 
Q 1313 4325 1613 4325 
Q 2100 4325 2488 3828 
Q 2972 3213 2972 2159 
Q 2972 1422 2759 906 
Q 2547 391 2217 158 
Q 1888 -75 1581 -75 
Q 975 -75 572 641 
Q 231 1244 231 2094 
z
M 844 2016 
Q 844 1141 1059 588 
Q 1238 122 1591 122 
Q 1759 122 1940 273 
Q 2122 425 2216 781 
Q 2359 1319 2359 2297 
Q 2359 3022 2209 3506 
Q 2097 3866 1919 4016 
Q 1791 4119 1609 4119 
Q 1397 4119 1231 3928 
Q 1006 3669 925 3112 
Q 844 2556 844 2016 
z
" transform="scale(0.015625)"/>
       </defs>
       <use xlink:href="#TimesNewRomanPSMT-30"/>
      </g>
     </g>
    </g>
    <g id="xtick_2">
     <g id="line2d_3">
      <path d="M 272.791989 308.3105 
L 272.791989 42.1985 
" clip-path="url(#pe33698c9cd)" style="fill: none; stroke: #b0b0b0; stroke-opacity: 0.3; stroke-width: 0.8; stroke-linecap: square"/>
     </g>
     <g id="line2d_4">
      <g>
       <use xlink:href="#m932e9f365c" x="272.791989" y="308.3105" style="stroke: #000000; stroke-width: 0.8"/>
      </g>
     </g>
     <g id="text_2">
      <!-- 2500 -->
      <g transform="translate(254.791989 327.80925) scale(0.18 -0.18)">
       <defs>
        <path id="TimesNewRomanPSMT-32" d="M 2934 816 
L 2638 0 
L 138 0 
L 138 116 
Q 1241 1122 1691 1759 
Q 2141 2397 2141 2925 
Q 2141 3328 1894 3587 
Q 1647 3847 1303 3847 
Q 991 3847 742 3664 
Q 494 3481 375 3128 
L 259 3128 
Q 338 3706 661 4015 
Q 984 4325 1469 4325 
Q 1984 4325 2329 3994 
Q 2675 3663 2675 3213 
Q 2675 2891 2525 2569 
Q 2294 2063 1775 1497 
Q 997 647 803 472 
L 1909 472 
Q 2247 472 2383 497 
Q 2519 522 2628 598 
Q 2738 675 2819 816 
L 2934 816 
z
" transform="scale(0.015625)"/>
        <path id="TimesNewRomanPSMT-35" d="M 2778 4238 
L 2534 3706 
L 1259 3706 
L 981 3138 
Q 1809 3016 2294 2522 
Q 2709 2097 2709 1522 
Q 2709 1188 2573 903 
Q 2438 619 2231 419 
Q 2025 219 1772 97 
Q 1413 -75 1034 -75 
Q 653 -75 479 54 
Q 306 184 306 341 
Q 306 428 378 495 
Q 450 563 559 563 
Q 641 563 702 538 
Q 763 513 909 409 
Q 1144 247 1384 247 
Q 1750 247 2026 523 
Q 2303 800 2303 1197 
Q 2303 1581 2056 1914 
Q 1809 2247 1375 2428 
Q 1034 2569 447 2591 
L 1259 4238 
L 2778 4238 
z
" transform="scale(0.015625)"/>
       </defs>
       <use xlink:href="#TimesNewRomanPSMT-32"/>
       <use xlink:href="#TimesNewRomanPSMT-35" transform="translate(50 0)"/>
       <use xlink:href="#TimesNewRomanPSMT-30" transform="translate(100 0)"/>
       <use xlink:href="#TimesNewRomanPSMT-30" transform="translate(150 0)"/>
      </g>
     </g>
    </g>
    <g id="xtick_3">
     <g id="line2d_5">
      <path d="M 347.130041 308.3105 
L 347.130041 42.1985 
" clip-path="url(#pe33698c9cd)" style="fill: none; stroke: #b0b0b0; stroke-opacity: 0.3; stroke-width: 0.8; stroke-linecap: square"/>
     </g>
     <g id="line2d_6">
      <g>
       <use xlink:href="#m932e9f365c" x="347.130041" y="308.3105" style="stroke: #000000; stroke-width: 0.8"/>
      </g>
     </g>
     <g id="text_3">
      <!-- 5000 -->
      <g transform="translate(329.130041 327.80925) scale(0.18 -0.18)">
       <use xlink:href="#TimesNewRomanPSMT-35"/>
       <use xlink:href="#TimesNewRomanPSMT-30" transform="translate(50 0)"/>
       <use xlink:href="#TimesNewRomanPSMT-30" transform="translate(100 0)"/>
       <use xlink:href="#TimesNewRomanPSMT-30" transform="translate(150 0)"/>
      </g>
     </g>
    </g>
    <g id="xtick_4">
     <g id="line2d_7">
      <path d="M 421.468092 308.3105 
L 421.468092 42.1985 
" clip-path="url(#pe33698c9cd)" style="fill: none; stroke: #b0b0b0; stroke-opacity: 0.3; stroke-width: 0.8; stroke-linecap: square"/>
     </g>
     <g id="line2d_8">
      <g>
       <use xlink:href="#m932e9f365c" x="421.468092" y="308.3105" style="stroke: #000000; stroke-width: 0.8"/>
      </g>
     </g>
     <g id="text_4">
      <!-- 7500 -->
      <g transform="translate(403.468092 327.80925) scale(0.18 -0.18)">
       <defs>
        <path id="TimesNewRomanPSMT-37" d="M 644 4238 
L 2916 4238 
L 2916 4119 
L 1503 -88 
L 1153 -88 
L 2419 3728 
L 1253 3728 
Q 900 3728 750 3644 
Q 488 3500 328 3200 
L 238 3234 
L 644 4238 
z
" transform="scale(0.015625)"/>
       </defs>
       <use xlink:href="#TimesNewRomanPSMT-37"/>
       <use xlink:href="#TimesNewRomanPSMT-35" transform="translate(50 0)"/>
       <use xlink:href="#TimesNewRomanPSMT-30" transform="translate(100 0)"/>
       <use xlink:href="#TimesNewRomanPSMT-30" transform="translate(150 0)"/>
      </g>
     </g>
    </g>
    <g id="xtick_5">
     <g id="line2d_9">
      <path d="M 495.806144 308.3105 
L 495.806144 42.1985 
" clip-path="url(#pe33698c9cd)" style="fill: none; stroke: #b0b0b0; stroke-opacity: 0.3; stroke-width: 0.8; stroke-linecap: square"/>
     </g>
     <g id="line2d_10">
      <g>
       <use xlink:href="#m932e9f365c" x="495.806144" y="308.3105" style="stroke: #000000; stroke-width: 0.8"/>
      </g>
     </g>
     <g id="text_5">
      <!-- 10000 -->
      <g transform="translate(473.306144 327.80925) scale(0.18 -0.18)">
       <defs>
        <path id="TimesNewRomanPSMT-31" d="M 750 3822 
L 1781 4325 
L 1884 4325 
L 1884 747 
Q 1884 391 1914 303 
Q 1944 216 2037 169 
Q 2131 122 2419 116 
L 2419 0 
L 825 0 
L 825 116 
Q 1125 122 1212 167 
Q 1300 213 1334 289 
Q 1369 366 1369 747 
L 1369 3034 
Q 1369 3497 1338 3628 
Q 1316 3728 1258 3775 
Q 1200 3822 1119 3822 
Q 1003 3822 797 3725 
L 750 3822 
z
" transform="scale(0.015625)"/>
       </defs>
       <use xlink:href="#TimesNewRomanPSMT-31"/>
       <use xlink:href="#TimesNewRomanPSMT-30" transform="translate(50 0)"/>
       <use xlink:href="#TimesNewRomanPSMT-30" transform="translate(100 0)"/>
       <use xlink:href="#TimesNewRomanPSMT-30" transform="translate(150 0)"/>
       <use xlink:href="#TimesNewRomanPSMT-30" transform="translate(200 0)"/>
      </g>
     </g>
    </g>
    <g id="text_6">
     <!-- Number of iterations -->
     <g transform="translate(302.034094 348.158312) scale(0.18 -0.18)">
      <defs>
       <path id="TimesNewRomanPSMT-4e" d="M -84 4238 
L 1066 4238 
L 3656 1059 
L 3656 3503 
Q 3656 3894 3569 3991 
Q 3453 4122 3203 4122 
L 3056 4122 
L 3056 4238 
L 4531 4238 
L 4531 4122 
L 4381 4122 
Q 4113 4122 4000 3959 
Q 3931 3859 3931 3503 
L 3931 -69 
L 3819 -69 
L 1025 3344 
L 1025 734 
Q 1025 344 1109 247 
Q 1228 116 1475 116 
L 1625 116 
L 1625 0 
L 150 0 
L 150 116 
L 297 116 
Q 569 116 681 278 
Q 750 378 750 734 
L 750 3681 
Q 566 3897 470 3965 
Q 375 4034 191 4094 
Q 100 4122 -84 4122 
L -84 4238 
z
" transform="scale(0.015625)"/>
       <path id="TimesNewRomanPSMT-75" d="M 2709 2863 
L 2709 1128 
Q 2709 631 2732 520 
Q 2756 409 2807 365 
Q 2859 322 2928 322 
Q 3025 322 3147 375 
L 3191 266 
L 2334 -88 
L 2194 -88 
L 2194 519 
Q 1825 119 1631 15 
Q 1438 -88 1222 -88 
Q 981 -88 804 51 
Q 628 191 559 409 
Q 491 628 491 1028 
L 491 2306 
Q 491 2509 447 2587 
Q 403 2666 317 2708 
Q 231 2750 6 2747 
L 6 2863 
L 1009 2863 
L 1009 947 
Q 1009 547 1148 422 
Q 1288 297 1484 297 
Q 1619 297 1789 381 
Q 1959 466 2194 703 
L 2194 2325 
Q 2194 2569 2105 2655 
Q 2016 2741 1734 2747 
L 1734 2863 
L 2709 2863 
z
" transform="scale(0.015625)"/>
       <path id="TimesNewRomanPSMT-6d" d="M 1050 2338 
Q 1363 2650 1419 2697 
Q 1559 2816 1721 2881 
Q 1884 2947 2044 2947 
Q 2313 2947 2506 2790 
Q 2700 2634 2766 2338 
Q 3088 2713 3309 2830 
Q 3531 2947 3766 2947 
Q 3994 2947 4170 2830 
Q 4347 2713 4450 2447 
Q 4519 2266 4519 1878 
L 4519 647 
Q 4519 378 4559 278 
Q 4591 209 4675 161 
Q 4759 113 4950 113 
L 4950 0 
L 3538 0 
L 3538 113 
L 3597 113 
Q 3781 113 3884 184 
Q 3956 234 3988 344 
Q 4000 397 4000 647 
L 4000 1878 
Q 4000 2228 3916 2372 
Q 3794 2572 3525 2572 
Q 3359 2572 3192 2489 
Q 3025 2406 2788 2181 
L 2781 2147 
L 2788 2013 
L 2788 647 
Q 2788 353 2820 281 
Q 2853 209 2943 161 
Q 3034 113 3253 113 
L 3253 0 
L 1806 0 
L 1806 113 
Q 2044 113 2133 169 
Q 2222 225 2256 338 
Q 2272 391 2272 647 
L 2272 1878 
Q 2272 2228 2169 2381 
Q 2031 2581 1784 2581 
Q 1616 2581 1450 2491 
Q 1191 2353 1050 2181 
L 1050 647 
Q 1050 366 1089 281 
Q 1128 197 1204 155 
Q 1281 113 1516 113 
L 1516 0 
L 100 0 
L 100 113 
Q 297 113 375 155 
Q 453 197 493 289 
Q 534 381 534 647 
L 534 1741 
Q 534 2213 506 2350 
Q 484 2453 437 2492 
Q 391 2531 309 2531 
Q 222 2531 100 2484 
L 53 2597 
L 916 2947 
L 1050 2947 
L 1050 2338 
z
" transform="scale(0.015625)"/>
       <path id="TimesNewRomanPSMT-62" d="M 984 2369 
Q 1400 2947 1881 2947 
Q 2322 2947 2650 2570 
Q 2978 2194 2978 1541 
Q 2978 778 2472 313 
Q 2038 -88 1503 -88 
Q 1253 -88 995 3 
Q 738 94 469 275 
L 469 3241 
Q 469 3728 445 3840 
Q 422 3953 372 3993 
Q 322 4034 247 4034 
Q 159 4034 28 3984 
L -16 4094 
L 844 4444 
L 984 4444 
L 984 2369 
z
M 984 2169 
L 984 456 
Q 1144 300 1314 220 
Q 1484 141 1663 141 
Q 1947 141 2192 453 
Q 2438 766 2438 1363 
Q 2438 1913 2192 2208 
Q 1947 2503 1634 2503 
Q 1469 2503 1303 2419 
Q 1178 2356 984 2169 
z
" transform="scale(0.015625)"/>
       <path id="TimesNewRomanPSMT-65" d="M 681 1784 
Q 678 1147 991 784 
Q 1303 422 1725 422 
Q 2006 422 2214 576 
Q 2422 731 2563 1106 
L 2659 1044 
Q 2594 616 2278 264 
Q 1963 -88 1488 -88 
Q 972 -88 605 314 
Q 238 716 238 1394 
Q 238 2128 614 2539 
Q 991 2950 1559 2950 
Q 2041 2950 2350 2633 
Q 2659 2316 2659 1784 
L 681 1784 
z
M 681 1966 
L 2006 1966 
Q 1991 2241 1941 2353 
Q 1863 2528 1708 2628 
Q 1553 2728 1384 2728 
Q 1125 2728 920 2526 
Q 716 2325 681 1966 
z
" transform="scale(0.015625)"/>
       <path id="TimesNewRomanPSMT-72" d="M 1038 2947 
L 1038 2303 
Q 1397 2947 1775 2947 
Q 1947 2947 2059 2842 
Q 2172 2738 2172 2600 
Q 2172 2478 2090 2393 
Q 2009 2309 1897 2309 
Q 1788 2309 1652 2417 
Q 1516 2525 1450 2525 
Q 1394 2525 1328 2463 
Q 1188 2334 1038 2041 
L 1038 669 
Q 1038 431 1097 309 
Q 1138 225 1241 169 
Q 1344 113 1538 113 
L 1538 0 
L 72 0 
L 72 113 
Q 291 113 397 181 
Q 475 231 506 341 
Q 522 394 522 644 
L 522 1753 
Q 522 2253 501 2348 
Q 481 2444 426 2487 
Q 372 2531 291 2531 
Q 194 2531 72 2484 
L 41 2597 
L 906 2947 
L 1038 2947 
z
" transform="scale(0.015625)"/>
       <path id="TimesNewRomanPSMT-20" transform="scale(0.015625)"/>
       <path id="TimesNewRomanPSMT-6f" d="M 1600 2947 
Q 2250 2947 2644 2453 
Q 2978 2031 2978 1484 
Q 2978 1100 2793 706 
Q 2609 313 2286 112 
Q 1963 -88 1566 -88 
Q 919 -88 538 428 
Q 216 863 216 1403 
Q 216 1797 411 2186 
Q 606 2575 925 2761 
Q 1244 2947 1600 2947 
z
M 1503 2744 
Q 1338 2744 1170 2645 
Q 1003 2547 900 2300 
Q 797 2053 797 1666 
Q 797 1041 1045 587 
Q 1294 134 1700 134 
Q 2003 134 2200 384 
Q 2397 634 2397 1244 
Q 2397 2006 2069 2444 
Q 1847 2744 1503 2744 
z
" transform="scale(0.015625)"/>
       <path id="TimesNewRomanPSMT-66" d="M 1319 2638 
L 1319 756 
Q 1319 356 1406 250 
Q 1522 113 1716 113 
L 1975 113 
L 1975 0 
L 266 0 
L 266 113 
L 394 113 
Q 519 113 622 175 
Q 725 238 764 344 
Q 803 450 803 756 
L 803 2638 
L 247 2638 
L 247 2863 
L 803 2863 
L 803 3050 
Q 803 3478 940 3775 
Q 1078 4072 1361 4255 
Q 1644 4438 1997 4438 
Q 2325 4438 2600 4225 
Q 2781 4084 2781 3909 
Q 2781 3816 2700 3733 
Q 2619 3650 2525 3650 
Q 2453 3650 2373 3701 
Q 2294 3753 2178 3923 
Q 2063 4094 1966 4153 
Q 1869 4213 1750 4213 
Q 1606 4213 1506 4136 
Q 1406 4059 1362 3898 
Q 1319 3738 1319 3069 
L 1319 2863 
L 2056 2863 
L 2056 2638 
L 1319 2638 
z
" transform="scale(0.015625)"/>
       <path id="TimesNewRomanPSMT-69" d="M 928 4444 
Q 1059 4444 1151 4351 
Q 1244 4259 1244 4128 
Q 1244 3997 1151 3903 
Q 1059 3809 928 3809 
Q 797 3809 703 3903 
Q 609 3997 609 4128 
Q 609 4259 701 4351 
Q 794 4444 928 4444 
z
M 1188 2947 
L 1188 647 
Q 1188 378 1227 289 
Q 1266 200 1342 156 
Q 1419 113 1622 113 
L 1622 0 
L 231 0 
L 231 113 
Q 441 113 512 153 
Q 584 194 626 287 
Q 669 381 669 647 
L 669 1750 
Q 669 2216 641 2353 
Q 619 2453 572 2492 
Q 525 2531 444 2531 
Q 356 2531 231 2484 
L 188 2597 
L 1050 2947 
L 1188 2947 
z
" transform="scale(0.015625)"/>
       <path id="TimesNewRomanPSMT-74" d="M 1031 3803 
L 1031 2863 
L 1700 2863 
L 1700 2644 
L 1031 2644 
L 1031 788 
Q 1031 509 1111 412 
Q 1191 316 1316 316 
Q 1419 316 1516 380 
Q 1613 444 1666 569 
L 1788 569 
Q 1678 263 1478 108 
Q 1278 -47 1066 -47 
Q 922 -47 784 33 
Q 647 113 581 261 
Q 516 409 516 719 
L 516 2644 
L 63 2644 
L 63 2747 
Q 234 2816 414 2980 
Q 594 3144 734 3369 
Q 806 3488 934 3803 
L 1031 3803 
z
" transform="scale(0.015625)"/>
       <path id="TimesNewRomanPSMT-61" d="M 1822 413 
Q 1381 72 1269 19 
Q 1100 -59 909 -59 
Q 613 -59 420 144 
Q 228 347 228 678 
Q 228 888 322 1041 
Q 450 1253 767 1440 
Q 1084 1628 1822 1897 
L 1822 2009 
Q 1822 2438 1686 2597 
Q 1550 2756 1291 2756 
Q 1094 2756 978 2650 
Q 859 2544 859 2406 
L 866 2225 
Q 866 2081 792 2003 
Q 719 1925 600 1925 
Q 484 1925 411 2006 
Q 338 2088 338 2228 
Q 338 2497 613 2722 
Q 888 2947 1384 2947 
Q 1766 2947 2009 2819 
Q 2194 2722 2281 2516 
Q 2338 2381 2338 1966 
L 2338 994 
Q 2338 584 2353 492 
Q 2369 400 2405 369 
Q 2441 338 2488 338 
Q 2538 338 2575 359 
Q 2641 400 2828 588 
L 2828 413 
Q 2478 -56 2159 -56 
Q 2006 -56 1915 50 
Q 1825 156 1822 413 
z
M 1822 616 
L 1822 1706 
Q 1350 1519 1213 1441 
Q 966 1303 859 1153 
Q 753 1003 753 825 
Q 753 600 887 451 
Q 1022 303 1197 303 
Q 1434 303 1822 616 
z
" transform="scale(0.015625)"/>
       <path id="TimesNewRomanPSMT-6e" d="M 1034 2341 
Q 1538 2947 1994 2947 
Q 2228 2947 2397 2830 
Q 2566 2713 2666 2444 
Q 2734 2256 2734 1869 
L 2734 647 
Q 2734 375 2778 278 
Q 2813 200 2889 156 
Q 2966 113 3172 113 
L 3172 0 
L 1756 0 
L 1756 113 
L 1816 113 
Q 2016 113 2095 173 
Q 2175 234 2206 353 
Q 2219 400 2219 647 
L 2219 1819 
Q 2219 2209 2117 2386 
Q 2016 2563 1775 2563 
Q 1403 2563 1034 2156 
L 1034 647 
Q 1034 356 1069 288 
Q 1113 197 1189 155 
Q 1266 113 1500 113 
L 1500 0 
L 84 0 
L 84 113 
L 147 113 
Q 366 113 442 223 
Q 519 334 519 647 
L 519 1709 
Q 519 2225 495 2337 
Q 472 2450 423 2490 
Q 375 2531 294 2531 
Q 206 2531 84 2484 
L 38 2597 
L 900 2947 
L 1034 2947 
L 1034 2341 
z
" transform="scale(0.015625)"/>
       <path id="TimesNewRomanPSMT-73" d="M 2050 2947 
L 2050 1972 
L 1947 1972 
Q 1828 2431 1642 2597 
Q 1456 2763 1169 2763 
Q 950 2763 815 2647 
Q 681 2531 681 2391 
Q 681 2216 781 2091 
Q 878 1963 1175 1819 
L 1631 1597 
Q 2266 1288 2266 781 
Q 2266 391 1970 151 
Q 1675 -88 1309 -88 
Q 1047 -88 709 6 
Q 606 38 541 38 
Q 469 38 428 -44 
L 325 -44 
L 325 978 
L 428 978 
Q 516 541 762 319 
Q 1009 97 1316 97 
Q 1531 97 1667 223 
Q 1803 350 1803 528 
Q 1803 744 1651 891 
Q 1500 1038 1047 1263 
Q 594 1488 453 1669 
Q 313 1847 313 2119 
Q 313 2472 555 2709 
Q 797 2947 1181 2947 
Q 1350 2947 1591 2875 
Q 1750 2828 1803 2828 
Q 1853 2828 1881 2850 
Q 1909 2872 1947 2947 
L 2050 2947 
z
" transform="scale(0.015625)"/>
      </defs>
      <use xlink:href="#TimesNewRomanPSMT-4e"/>
      <use xlink:href="#TimesNewRomanPSMT-75" transform="translate(72.216797 0)"/>
      <use xlink:href="#TimesNewRomanPSMT-6d" transform="translate(122.216797 0)"/>
      <use xlink:href="#TimesNewRomanPSMT-62" transform="translate(200 0)"/>
      <use xlink:href="#TimesNewRomanPSMT-65" transform="translate(250 0)"/>
      <use xlink:href="#TimesNewRomanPSMT-72" transform="translate(294.384766 0)"/>
      <use xlink:href="#TimesNewRomanPSMT-20" transform="translate(327.685547 0)"/>
      <use xlink:href="#TimesNewRomanPSMT-6f" transform="translate(352.685547 0)"/>
      <use xlink:href="#TimesNewRomanPSMT-66" transform="translate(402.685547 0)"/>
      <use xlink:href="#TimesNewRomanPSMT-20" transform="translate(435.986328 0)"/>
      <use xlink:href="#TimesNewRomanPSMT-69" transform="translate(460.986328 0)"/>
      <use xlink:href="#TimesNewRomanPSMT-74" transform="translate(488.769531 0)"/>
      <use xlink:href="#TimesNewRomanPSMT-65" transform="translate(516.552734 0)"/>
      <use xlink:href="#TimesNewRomanPSMT-72" transform="translate(560.9375 0)"/>
      <use xlink:href="#TimesNewRomanPSMT-61" transform="translate(594.238281 0)"/>
      <use xlink:href="#TimesNewRomanPSMT-74" transform="translate(638.623047 0)"/>
      <use xlink:href="#TimesNewRomanPSMT-69" transform="translate(666.40625 0)"/>
      <use xlink:href="#TimesNewRomanPSMT-6f" transform="translate(694.189453 0)"/>
      <use xlink:href="#TimesNewRomanPSMT-6e" transform="translate(744.189453 0)"/>
      <use xlink:href="#TimesNewRomanPSMT-73" transform="translate(794.189453 0)"/>
     </g>
    </g>
   </g>
   <g id="matplotlib.axis_2">
    <g id="ytick_1">
     <g id="line2d_11">
      <path d="M 198.453937 308.3105 
L 555.573938 308.3105 
" clip-path="url(#pe33698c9cd)" style="fill: none; stroke: #b0b0b0; stroke-opacity: 0.3; stroke-width: 0.8; stroke-linecap: square"/>
     </g>
     <g id="line2d_12">
      <defs>
       <path id="md04f945378" d="M 0 0 
L -3.5 0 
" style="stroke: #000000; stroke-width: 0.8"/>
      </defs>
      <g>
       <use xlink:href="#md04f945378" x="198.453937" y="308.3105" style="stroke: #000000; stroke-width: 0.8"/>
      </g>
     </g>
     <g id="text_7">
      <!-- 0.0 -->
      <g transform="translate(168.953937 314.559875) scale(0.18 -0.18)">
       <defs>
        <path id="TimesNewRomanPSMT-2e" d="M 800 606 
Q 947 606 1047 504 
Q 1147 403 1147 259 
Q 1147 116 1045 14 
Q 944 -88 800 -88 
Q 656 -88 554 14 
Q 453 116 453 259 
Q 453 406 554 506 
Q 656 606 800 606 
z
" transform="scale(0.015625)"/>
       </defs>
       <use xlink:href="#TimesNewRomanPSMT-30"/>
       <use xlink:href="#TimesNewRomanPSMT-2e" transform="translate(50 0)"/>
       <use xlink:href="#TimesNewRomanPSMT-30" transform="translate(75 0)"/>
      </g>
     </g>
    </g>
    <g id="ytick_2">
     <g id="line2d_13">
      <path d="M 198.453937 281.6993 
L 555.573938 281.6993 
" clip-path="url(#pe33698c9cd)" style="fill: none; stroke: #b0b0b0; stroke-opacity: 0.3; stroke-width: 0.8; stroke-linecap: square"/>
     </g>
     <g id="line2d_14">
      <g>
       <use xlink:href="#md04f945378" x="198.453937" y="281.6993" style="stroke: #000000; stroke-width: 0.8"/>
      </g>
     </g>
     <g id="text_8">
      <!-- 0.1 -->
      <g transform="translate(168.953937 287.948675) scale(0.18 -0.18)">
       <use xlink:href="#TimesNewRomanPSMT-30"/>
       <use xlink:href="#TimesNewRomanPSMT-2e" transform="translate(50 0)"/>
       <use xlink:href="#TimesNewRomanPSMT-31" transform="translate(75 0)"/>
      </g>
     </g>
    </g>
    <g id="ytick_3">
     <g id="line2d_15">
      <path d="M 198.453937 255.0881 
L 555.573938 255.0881 
" clip-path="url(#pe33698c9cd)" style="fill: none; stroke: #b0b0b0; stroke-opacity: 0.3; stroke-width: 0.8; stroke-linecap: square"/>
     </g>
     <g id="line2d_16">
      <g>
       <use xlink:href="#md04f945378" x="198.453937" y="255.0881" style="stroke: #000000; stroke-width: 0.8"/>
      </g>
     </g>
     <g id="text_9">
      <!-- 0.2 -->
      <g transform="translate(168.953937 261.337475) scale(0.18 -0.18)">
       <use xlink:href="#TimesNewRomanPSMT-30"/>
       <use xlink:href="#TimesNewRomanPSMT-2e" transform="translate(50 0)"/>
       <use xlink:href="#TimesNewRomanPSMT-32" transform="translate(75 0)"/>
      </g>
     </g>
    </g>
    <g id="ytick_4">
     <g id="line2d_17">
      <path d="M 198.453937 228.4769 
L 555.573938 228.4769 
" clip-path="url(#pe33698c9cd)" style="fill: none; stroke: #b0b0b0; stroke-opacity: 0.3; stroke-width: 0.8; stroke-linecap: square"/>
     </g>
     <g id="line2d_18">
      <g>
       <use xlink:href="#md04f945378" x="198.453937" y="228.4769" style="stroke: #000000; stroke-width: 0.8"/>
      </g>
     </g>
     <g id="text_10">
      <!-- 0.3 -->
      <g transform="translate(168.953937 234.726275) scale(0.18 -0.18)">
       <defs>
        <path id="TimesNewRomanPSMT-33" d="M 325 3431 
Q 506 3859 782 4092 
Q 1059 4325 1472 4325 
Q 1981 4325 2253 3994 
Q 2459 3747 2459 3466 
Q 2459 3003 1878 2509 
Q 2269 2356 2469 2072 
Q 2669 1788 2669 1403 
Q 2669 853 2319 450 
Q 1863 -75 997 -75 
Q 569 -75 414 31 
Q 259 138 259 259 
Q 259 350 332 419 
Q 406 488 509 488 
Q 588 488 669 463 
Q 722 447 909 348 
Q 1097 250 1169 231 
Q 1284 197 1416 197 
Q 1734 197 1970 444 
Q 2206 691 2206 1028 
Q 2206 1275 2097 1509 
Q 2016 1684 1919 1775 
Q 1784 1900 1550 2001 
Q 1316 2103 1072 2103 
L 972 2103 
L 972 2197 
Q 1219 2228 1467 2375 
Q 1716 2522 1828 2728 
Q 1941 2934 1941 3181 
Q 1941 3503 1739 3701 
Q 1538 3900 1238 3900 
Q 753 3900 428 3381 
L 325 3431 
z
" transform="scale(0.015625)"/>
       </defs>
       <use xlink:href="#TimesNewRomanPSMT-30"/>
       <use xlink:href="#TimesNewRomanPSMT-2e" transform="translate(50 0)"/>
       <use xlink:href="#TimesNewRomanPSMT-33" transform="translate(75 0)"/>
      </g>
     </g>
    </g>
    <g id="ytick_5">
     <g id="line2d_19">
      <path d="M 198.453937 201.8657 
L 555.573938 201.8657 
" clip-path="url(#pe33698c9cd)" style="fill: none; stroke: #b0b0b0; stroke-opacity: 0.3; stroke-width: 0.8; stroke-linecap: square"/>
     </g>
     <g id="line2d_20">
      <g>
       <use xlink:href="#md04f945378" x="198.453937" y="201.8657" style="stroke: #000000; stroke-width: 0.8"/>
      </g>
     </g>
     <g id="text_11">
      <!-- 0.4 -->
      <g transform="translate(168.953937 208.115075) scale(0.18 -0.18)">
       <defs>
        <path id="TimesNewRomanPSMT-34" d="M 2978 1563 
L 2978 1119 
L 2409 1119 
L 2409 0 
L 1894 0 
L 1894 1119 
L 100 1119 
L 100 1519 
L 2066 4325 
L 2409 4325 
L 2409 1563 
L 2978 1563 
z
M 1894 1563 
L 1894 3666 
L 406 1563 
L 1894 1563 
z
" transform="scale(0.015625)"/>
       </defs>
       <use xlink:href="#TimesNewRomanPSMT-30"/>
       <use xlink:href="#TimesNewRomanPSMT-2e" transform="translate(50 0)"/>
       <use xlink:href="#TimesNewRomanPSMT-34" transform="translate(75 0)"/>
      </g>
     </g>
    </g>
    <g id="ytick_6">
     <g id="line2d_21">
      <path d="M 198.453937 175.2545 
L 555.573938 175.2545 
" clip-path="url(#pe33698c9cd)" style="fill: none; stroke: #b0b0b0; stroke-opacity: 0.3; stroke-width: 0.8; stroke-linecap: square"/>
     </g>
     <g id="line2d_22">
      <g>
       <use xlink:href="#md04f945378" x="198.453937" y="175.2545" style="stroke: #000000; stroke-width: 0.8"/>
      </g>
     </g>
     <g id="text_12">
      <!-- 0.5 -->
      <g transform="translate(168.953937 181.503875) scale(0.18 -0.18)">
       <use xlink:href="#TimesNewRomanPSMT-30"/>
       <use xlink:href="#TimesNewRomanPSMT-2e" transform="translate(50 0)"/>
       <use xlink:href="#TimesNewRomanPSMT-35" transform="translate(75 0)"/>
      </g>
     </g>
    </g>
    <g id="ytick_7">
     <g id="line2d_23">
      <path d="M 198.453937 148.6433 
L 555.573938 148.6433 
" clip-path="url(#pe33698c9cd)" style="fill: none; stroke: #b0b0b0; stroke-opacity: 0.3; stroke-width: 0.8; stroke-linecap: square"/>
     </g>
     <g id="line2d_24">
      <g>
       <use xlink:href="#md04f945378" x="198.453937" y="148.6433" style="stroke: #000000; stroke-width: 0.8"/>
      </g>
     </g>
     <g id="text_13">
      <!-- 0.6 -->
      <g transform="translate(168.953937 154.892675) scale(0.18 -0.18)">
       <defs>
        <path id="TimesNewRomanPSMT-36" d="M 2869 4325 
L 2869 4209 
Q 2456 4169 2195 4045 
Q 1934 3922 1679 3669 
Q 1425 3416 1258 3105 
Q 1091 2794 978 2366 
Q 1428 2675 1881 2675 
Q 2316 2675 2634 2325 
Q 2953 1975 2953 1425 
Q 2953 894 2631 456 
Q 2244 -75 1606 -75 
Q 1172 -75 869 213 
Q 275 772 275 1663 
Q 275 2231 503 2743 
Q 731 3256 1154 3653 
Q 1578 4050 1965 4187 
Q 2353 4325 2688 4325 
L 2869 4325 
z
M 925 2138 
Q 869 1716 869 1456 
Q 869 1156 980 804 
Q 1091 453 1309 247 
Q 1469 100 1697 100 
Q 1969 100 2183 356 
Q 2397 613 2397 1088 
Q 2397 1622 2184 2012 
Q 1972 2403 1581 2403 
Q 1463 2403 1327 2353 
Q 1191 2303 925 2138 
z
" transform="scale(0.015625)"/>
       </defs>
       <use xlink:href="#TimesNewRomanPSMT-30"/>
       <use xlink:href="#TimesNewRomanPSMT-2e" transform="translate(50 0)"/>
       <use xlink:href="#TimesNewRomanPSMT-36" transform="translate(75 0)"/>
      </g>
     </g>
    </g>
    <g id="ytick_8">
     <g id="line2d_25">
      <path d="M 198.453937 122.0321 
L 555.573938 122.0321 
" clip-path="url(#pe33698c9cd)" style="fill: none; stroke: #b0b0b0; stroke-opacity: 0.3; stroke-width: 0.8; stroke-linecap: square"/>
     </g>
     <g id="line2d_26">
      <g>
       <use xlink:href="#md04f945378" x="198.453937" y="122.0321" style="stroke: #000000; stroke-width: 0.8"/>
      </g>
     </g>
     <g id="text_14">
      <!-- 0.7 -->
      <g transform="translate(168.953937 128.281475) scale(0.18 -0.18)">
       <use xlink:href="#TimesNewRomanPSMT-30"/>
       <use xlink:href="#TimesNewRomanPSMT-2e" transform="translate(50 0)"/>
       <use xlink:href="#TimesNewRomanPSMT-37" transform="translate(75 0)"/>
      </g>
     </g>
    </g>
    <g id="ytick_9">
     <g id="line2d_27">
      <path d="M 198.453937 95.4209 
L 555.573938 95.4209 
" clip-path="url(#pe33698c9cd)" style="fill: none; stroke: #b0b0b0; stroke-opacity: 0.3; stroke-width: 0.8; stroke-linecap: square"/>
     </g>
     <g id="line2d_28">
      <g>
       <use xlink:href="#md04f945378" x="198.453937" y="95.4209" style="stroke: #000000; stroke-width: 0.8"/>
      </g>
     </g>
     <g id="text_15">
      <!-- 0.8 -->
      <g transform="translate(168.953937 101.670275) scale(0.18 -0.18)">
       <defs>
        <path id="TimesNewRomanPSMT-38" d="M 1228 2134 
Q 725 2547 579 2797 
Q 434 3047 434 3316 
Q 434 3728 753 4026 
Q 1072 4325 1600 4325 
Q 2113 4325 2425 4047 
Q 2738 3769 2738 3413 
Q 2738 3175 2569 2928 
Q 2400 2681 1866 2347 
Q 2416 1922 2594 1678 
Q 2831 1359 2831 1006 
Q 2831 559 2490 242 
Q 2150 -75 1597 -75 
Q 994 -75 656 303 
Q 388 606 388 966 
Q 388 1247 577 1523 
Q 766 1800 1228 2134 
z
M 1719 2469 
Q 2094 2806 2194 3001 
Q 2294 3197 2294 3444 
Q 2294 3772 2109 3958 
Q 1925 4144 1606 4144 
Q 1288 4144 1088 3959 
Q 888 3775 888 3528 
Q 888 3366 970 3203 
Q 1053 3041 1206 2894 
L 1719 2469 
z
M 1375 2016 
Q 1116 1797 991 1539 
Q 866 1281 866 981 
Q 866 578 1086 336 
Q 1306 94 1647 94 
Q 1984 94 2187 284 
Q 2391 475 2391 747 
Q 2391 972 2272 1150 
Q 2050 1481 1375 2016 
z
" transform="scale(0.015625)"/>
       </defs>
       <use xlink:href="#TimesNewRomanPSMT-30"/>
       <use xlink:href="#TimesNewRomanPSMT-2e" transform="translate(50 0)"/>
       <use xlink:href="#TimesNewRomanPSMT-38" transform="translate(75 0)"/>
      </g>
     </g>
    </g>
    <g id="ytick_10">
     <g id="line2d_29">
      <path d="M 198.453937 68.8097 
L 555.573938 68.8097 
" clip-path="url(#pe33698c9cd)" style="fill: none; stroke: #b0b0b0; stroke-opacity: 0.3; stroke-width: 0.8; stroke-linecap: square"/>
     </g>
     <g id="line2d_30">
      <g>
       <use xlink:href="#md04f945378" x="198.453937" y="68.8097" style="stroke: #000000; stroke-width: 0.8"/>
      </g>
     </g>
     <g id="text_16">
      <!-- 0.9 -->
      <g transform="translate(168.953937 75.059075) scale(0.18 -0.18)">
       <defs>
        <path id="TimesNewRomanPSMT-39" d="M 338 -88 
L 338 28 
Q 744 34 1094 217 
Q 1444 400 1770 856 
Q 2097 1313 2225 1859 
Q 1734 1544 1338 1544 
Q 891 1544 572 1889 
Q 253 2234 253 2806 
Q 253 3363 572 3797 
Q 956 4325 1575 4325 
Q 2097 4325 2469 3894 
Q 2925 3359 2925 2575 
Q 2925 1869 2578 1258 
Q 2231 647 1613 244 
Q 1109 -88 516 -88 
L 338 -88 
z
M 2275 2091 
Q 2331 2497 2331 2741 
Q 2331 3044 2228 3395 
Q 2125 3747 1936 3934 
Q 1747 4122 1506 4122 
Q 1228 4122 1018 3872 
Q 809 3622 809 3128 
Q 809 2469 1088 2097 
Q 1291 1828 1588 1828 
Q 1731 1828 1928 1897 
Q 2125 1966 2275 2091 
z
" transform="scale(0.015625)"/>
       </defs>
       <use xlink:href="#TimesNewRomanPSMT-30"/>
       <use xlink:href="#TimesNewRomanPSMT-2e" transform="translate(50 0)"/>
       <use xlink:href="#TimesNewRomanPSMT-39" transform="translate(75 0)"/>
      </g>
     </g>
    </g>
    <g id="ytick_11">
     <g id="line2d_31">
      <path d="M 198.453937 42.1985 
L 555.573938 42.1985 
" clip-path="url(#pe33698c9cd)" style="fill: none; stroke: #b0b0b0; stroke-opacity: 0.3; stroke-width: 0.8; stroke-linecap: square"/>
     </g>
     <g id="line2d_32">
      <g>
       <use xlink:href="#md04f945378" x="198.453937" y="42.1985" style="stroke: #000000; stroke-width: 0.8"/>
      </g>
     </g>
     <g id="text_17">
      <!-- 1.0 -->
      <g transform="translate(168.953937 48.447875) scale(0.18 -0.18)">
       <use xlink:href="#TimesNewRomanPSMT-31"/>
       <use xlink:href="#TimesNewRomanPSMT-2e" transform="translate(50 0)"/>
       <use xlink:href="#TimesNewRomanPSMT-30" transform="translate(75 0)"/>
      </g>
     </g>
    </g>
    <g id="text_18">
     <!-- Accuracy -->
     <g transform="translate(161.069875 209.731531) rotate(-90) scale(0.18 -0.18)">
      <defs>
       <path id="TimesNewRomanPSMT-41" d="M 2928 1419 
L 1288 1419 
L 1000 750 
Q 894 503 894 381 
Q 894 284 986 211 
Q 1078 138 1384 116 
L 1384 0 
L 50 0 
L 50 116 
Q 316 163 394 238 
Q 553 388 747 847 
L 2238 4334 
L 2347 4334 
L 3822 809 
Q 4000 384 4145 257 
Q 4291 131 4550 116 
L 4550 0 
L 2878 0 
L 2878 116 
Q 3131 128 3220 200 
Q 3309 272 3309 375 
Q 3309 513 3184 809 
L 2928 1419 
z
M 2841 1650 
L 2122 3363 
L 1384 1650 
L 2841 1650 
z
" transform="scale(0.015625)"/>
       <path id="TimesNewRomanPSMT-63" d="M 2631 1088 
Q 2516 522 2178 217 
Q 1841 -88 1431 -88 
Q 944 -88 581 321 
Q 219 731 219 1428 
Q 219 2103 620 2525 
Q 1022 2947 1584 2947 
Q 2006 2947 2278 2723 
Q 2550 2500 2550 2259 
Q 2550 2141 2473 2067 
Q 2397 1994 2259 1994 
Q 2075 1994 1981 2113 
Q 1928 2178 1911 2362 
Q 1894 2547 1784 2644 
Q 1675 2738 1481 2738 
Q 1169 2738 978 2506 
Q 725 2200 725 1697 
Q 725 1184 976 792 
Q 1228 400 1656 400 
Q 1963 400 2206 609 
Q 2378 753 2541 1131 
L 2631 1088 
z
" transform="scale(0.015625)"/>
       <path id="TimesNewRomanPSMT-79" d="M 38 2863 
L 1372 2863 
L 1372 2747 
L 1306 2747 
Q 1166 2747 1095 2686 
Q 1025 2625 1025 2534 
Q 1025 2413 1128 2197 
L 1825 753 
L 2466 2334 
Q 2519 2463 2519 2588 
Q 2519 2644 2497 2672 
Q 2472 2706 2419 2726 
Q 2366 2747 2231 2747 
L 2231 2863 
L 3163 2863 
L 3163 2747 
Q 3047 2734 2984 2696 
Q 2922 2659 2847 2556 
Q 2819 2513 2741 2316 
L 1575 -541 
Q 1406 -956 1132 -1168 
Q 859 -1381 606 -1381 
Q 422 -1381 303 -1275 
Q 184 -1169 184 -1031 
Q 184 -900 270 -820 
Q 356 -741 506 -741 
Q 609 -741 788 -809 
Q 913 -856 944 -856 
Q 1038 -856 1148 -759 
Q 1259 -663 1372 -384 
L 1575 113 
L 547 2272 
Q 500 2369 397 2513 
Q 319 2622 269 2659 
Q 197 2709 38 2747 
L 38 2863 
z
" transform="scale(0.015625)"/>
      </defs>
      <use xlink:href="#TimesNewRomanPSMT-41"/>
      <use xlink:href="#TimesNewRomanPSMT-63" transform="translate(72.216797 0)"/>
      <use xlink:href="#TimesNewRomanPSMT-63" transform="translate(116.601562 0)"/>
      <use xlink:href="#TimesNewRomanPSMT-75" transform="translate(160.986328 0)"/>
      <use xlink:href="#TimesNewRomanPSMT-72" transform="translate(210.986328 0)"/>
      <use xlink:href="#TimesNewRomanPSMT-61" transform="translate(244.287109 0)"/>
      <use xlink:href="#TimesNewRomanPSMT-63" transform="translate(288.671875 0)"/>
      <use xlink:href="#TimesNewRomanPSMT-79" transform="translate(333.056641 0)"/>
     </g>
    </g>
   </g>
   <g id="line2d_33">
    <path d="M 198.453937 175.2545 
L 200.239537 175.154699 
L 200.537137 174.955114 
L 200.834737 174.48942 
L 201.429937 171.296085 
L 201.727537 163.844934 
L 202.025137 152.63497 
L 202.322737 149.807529 
L 202.620337 141.291943 
L 203.513137 134.63915 
L 204.108337 127.287799 
L 204.405937 128.618358 
L 204.703537 128.485311 
L 205.001137 128.518573 
L 205.298737 128.951005 
L 205.596337 123.495708 
L 205.893937 121.632917 
L 206.191537 118.838753 
L 206.489137 118.639167 
L 206.786737 118.805475 
L 207.084337 116.077835 
L 207.381937 117.807564 
L 207.679537 116.27742 
L 207.977137 116.011311 
L 208.274737 111.454141 
L 208.572337 111.753511 
L 208.869937 112.817961 
L 209.167537 112.651637 
L 209.465137 110.256628 
L 210.060337 111.553925 
L 210.953137 109.790934 
L 211.845937 109.591349 
L 212.441137 109.192194 
L 212.738737 108.826285 
L 213.036337 108.992609 
L 213.333937 108.526899 
L 213.631537 109.02587 
L 213.929137 108.826285 
L 214.524337 108.194267 
L 214.821937 108.327329 
L 215.119537 108.26079 
L 215.714737 107.795096 
L 216.012337 107.994682 
L 216.309937 107.695311 
L 216.607537 107.695311 
L 216.905137 107.395925 
L 217.202737 107.562249 
L 217.500337 107.229617 
L 218.095537 107.030032 
L 218.393137 106.697384 
L 218.690737 106.863708 
L 219.285937 106.23169 
L 219.583537 106.664123 
L 219.881137 105.998843 
L 220.178737 106.497799 
L 220.476337 106.032105 
L 220.773937 106.065367 
L 221.071537 105.765997 
L 221.666737 105.965582 
L 221.964337 105.865781 
L 222.261937 105.53315 
L 222.559537 105.433349 
L 222.857137 105.632934 
L 223.154737 105.233764 
L 223.452337 105.300303 
L 223.749937 105.200502 
L 224.047537 105.300303 
L 224.345137 104.901132 
L 224.642737 105.133979 
L 224.940337 105.067456 
L 225.237937 104.635023 
L 225.535537 104.934393 
L 225.833137 104.834609 
L 226.130737 104.435438 
L 226.428337 104.435438 
L 226.725937 104.568484 
L 227.321137 104.003005 
L 229.701937 103.204664 
L 229.999537 103.237925 
L 230.297137 102.838755 
L 230.594737 102.905294 
L 230.892337 102.672447 
L 231.487537 102.605908 
L 231.785137 102.639185 
L 232.082737 102.240014 
L 232.380337 102.339799 
L 232.975537 102.240014 
L 233.273137 101.67452 
L 233.570737 102.106952 
L 233.868337 102.007167 
L 234.165937 101.30861 
L 234.463537 101.641258 
L 234.761137 101.075764 
L 235.058737 101.474934 
L 235.653937 101.042502 
L 235.951537 101.707781 
L 236.249137 100.942717 
L 236.546737 100.942717 
L 236.844337 101.109041 
L 237.141937 101.641258 
L 237.439537 101.408411 
L 237.737137 101.541473 
L 238.034737 100.543546 
L 238.927537 100.543546 
L 239.225137 100.111114 
L 239.522737 100.144376 
L 239.820337 100.377223 
L 240.117937 99.845005 
L 240.415537 99.978052 
L 240.713137 99.64542 
L 241.010737 99.711943 
L 241.605937 99.578897 
L 241.903537 99.845005 
L 242.201137 99.545619 
L 242.498737 99.412573 
L 243.093937 99.512358 
L 243.391537 99.212988 
L 243.689137 99.745205 
L 243.986737 99.079925 
L 245.474737 98.714032 
L 245.772337 98.847078 
L 246.069937 98.813817 
L 246.665137 99.246249 
L 247.260337 98.780555 
L 247.557937 98.547708 
L 247.855537 98.913617 
L 248.748337 98.481185 
L 249.045937 98.614231 
L 250.236337 98.381384 
L 251.129137 98.381384 
L 251.426738 98.314861 
L 252.021937 98.414646 
L 252.617137 98.048753 
L 252.914737 98.2816 
L 253.509937 98.115276 
L 253.807537 98.248322 
L 254.402738 98.048753 
L 254.700337 98.082014 
L 254.997937 97.882429 
L 255.295537 98.248322 
L 255.593137 97.91569 
L 256.485937 98.015475 
L 256.783537 97.849167 
L 257.378737 98.048753 
L 257.676337 97.849167 
L 258.271537 97.948952 
L 258.569138 97.782628 
L 258.866737 97.815906 
L 259.164337 97.982214 
L 259.461937 98.015475 
L 259.759537 97.849167 
L 260.057138 98.048753 
L 260.354737 98.082014 
L 260.652337 97.483258 
L 260.949937 97.782628 
L 261.247537 97.483258 
L 261.545138 97.449997 
L 261.842737 97.849167 
L 262.140337 97.982214 
L 262.437937 97.449997 
L 262.735537 97.749367 
L 263.033138 97.849167 
L 263.628337 97.649582 
L 264.223538 97.583043 
L 264.521138 97.583043 
L 264.818737 97.449997 
L 265.413937 97.51652 
L 265.711537 97.117349 
L 266.009137 97.350196 
L 266.306737 97.416735 
L 266.604337 97.250411 
L 266.901937 96.884502 
L 267.199538 97.350196 
L 267.497138 97.15061 
L 268.092337 97.050826 
L 268.389937 96.951041 
L 268.687537 97.183888 
L 269.282737 96.85124 
L 269.580337 97.21715 
L 269.877937 96.651655 
L 270.175538 96.917764 
L 270.473138 96.684917 
L 270.770737 96.718178 
L 271.068337 96.618393 
L 271.365937 97.084087 
L 271.663537 96.917764 
L 272.258737 96.951041 
L 272.556337 96.55187 
L 272.853937 96.784717 
L 273.151538 96.85124 
L 273.746737 96.585132 
L 274.341937 96.751456 
L 274.639537 96.718178 
L 274.937138 96.185961 
L 275.234737 96.585132 
L 276.127538 96.352285 
L 276.425138 96.618393 
L 276.722737 96.252484 
L 277.020337 96.585132 
L 277.615538 96.285762 
L 277.913138 96.385546 
L 278.210737 96.185961 
L 278.508337 96.252484 
L 278.805938 96.119438 
L 279.103538 96.219223 
L 279.401138 96.185961 
L 279.698737 95.986376 
L 279.996337 96.152699 
L 281.484337 96.052899 
L 281.781937 96.152699 
L 282.079538 95.853329 
L 282.674737 96.119438 
L 282.972337 95.919852 
L 283.567538 96.019637 
L 283.865138 95.820052 
L 284.757938 95.953114 
L 285.353138 95.853329 
L 285.948337 95.720267 
L 286.543538 96.086176 
L 286.841138 95.753529 
L 287.138737 95.919852 
L 287.733938 95.653744 
L 288.031538 95.78679 
L 288.329138 95.553943 
L 288.626737 95.820052 
L 289.221937 95.48742 
L 290.114737 95.587205 
L 290.412337 95.520682 
L 290.709938 95.620466 
L 291.007538 95.454158 
L 291.602737 95.587205 
L 291.900337 95.287835 
L 292.197937 95.553943 
L 292.793138 95.287835 
L 293.090737 95.48742 
L 293.983538 95.48742 
L 294.281137 95.48742 
L 294.578737 95.354358 
L 295.173937 95.354358 
L 295.471538 95.221311 
L 296.066737 95.420897 
L 296.364337 95.354358 
L 296.661938 95.420897 
L 297.257137 95.287835 
L 297.554737 94.855402 
L 297.852337 95.254573 
L 298.149937 95.188034 
L 298.745137 95.420897 
L 299.340338 95.254573 
L 299.637938 95.387619 
L 300.233137 95.054988 
L 300.530737 95.121511 
L 300.828337 95.054988 
L 301.125938 95.154772 
L 301.423538 94.988464 
L 301.721137 95.054988 
L 302.018737 94.788879 
L 302.613938 95.354358 
L 302.911538 94.855402 
L 303.209137 94.755617 
L 304.101937 95.154772 
L 304.399538 94.822141 
L 304.697137 94.888664 
L 304.994737 95.321096 
L 305.292338 94.822141 
L 305.589938 94.888664 
L 305.887538 94.788879 
L 306.482737 94.888664 
L 306.780337 94.655817 
L 307.077938 94.822141 
L 307.375538 94.622555 
L 307.673137 94.888664 
L 307.970738 94.788879 
L 308.268338 94.489493 
L 308.565938 94.855402 
L 308.863538 94.788879 
L 309.161137 94.988464 
L 309.458737 94.689078 
L 309.756337 94.921925 
L 310.053938 94.755617 
L 310.351538 94.755617 
L 310.946737 94.456231 
L 311.244338 94.689078 
L 311.541938 94.456231 
L 311.839538 94.389708 
L 312.434737 94.955187 
L 312.732337 94.589294 
L 313.029938 94.72234 
L 313.327538 94.72234 
L 313.922737 94.456231 
L 314.517938 94.589294 
L 314.815538 94.755617 
L 315.113137 94.556032 
L 315.410737 94.190123 
L 315.708338 94.1236 
L 316.005938 94.223384 
L 316.601137 94.72234 
L 316.898738 94.788879 
L 317.196338 94.689078 
L 317.493938 94.356447 
L 317.791538 94.42297 
L 318.089137 94.256646 
L 318.386737 94.389708 
L 318.684337 94.256646 
L 319.577137 94.356447 
L 319.874737 94.389708 
L 320.172338 94.090322 
L 320.469938 94.323185 
L 320.767538 94.289908 
L 321.065137 94.057061 
L 321.362737 94.356447 
L 321.660338 93.824214 
L 321.957938 94.256646 
L 322.553137 94.190123 
L 322.850738 94.223384 
L 323.148338 94.090322 
L 323.445938 94.090322 
L 323.743538 93.790952 
L 324.041137 93.990537 
L 324.338737 94.356447 
L 324.636337 93.990537 
L 324.933938 94.1236 
L 325.231538 93.75769 
L 325.529138 94.057061 
L 326.124338 93.957276 
L 326.421938 93.857475 
L 326.719538 94.057061 
L 327.017137 93.824214 
L 327.612338 93.657906 
L 327.909938 93.957276 
L 328.207538 94.023799 
L 328.505138 93.924014 
L 328.802738 94.1236 
L 329.100338 93.857475 
L 329.397938 93.857475 
L 329.695538 93.691167 
L 329.993137 94.289908 
L 330.290737 93.624628 
L 330.588338 94.090322 
L 330.885938 93.558105 
L 331.183537 93.558105 
L 331.778738 93.924014 
L 332.076338 93.890753 
L 332.373938 93.657906 
L 332.671537 93.890753 
L 332.969137 93.391781 
L 333.266737 93.524843 
L 333.564337 94.156861 
L 333.861938 93.45832 
L 334.159538 93.425043 
L 334.457138 93.857475 
L 334.754738 93.425043 
L 335.052338 94.190123 
L 335.349938 93.524843 
L 335.647537 93.391781 
L 336.837938 93.35852 
L 337.135538 93.192196 
L 337.433138 93.957276 
L 337.730738 93.924014 
L 338.028338 93.491582 
L 338.325938 93.857475 
L 338.623537 93.957276 
L 338.921137 93.35852 
L 339.516338 93.391781 
L 339.813938 93.092411 
L 340.111537 93.125673 
L 340.409138 93.35852 
L 340.706738 93.092411 
L 341.301938 93.225473 
L 341.599537 93.45832 
L 341.897137 93.158934 
L 342.194737 93.35852 
L 342.789938 93.258735 
L 343.087538 92.926087 
L 343.385138 93.192196 
L 344.277938 92.892826 
L 344.575537 93.291997 
L 344.873137 93.092411 
L 345.170737 93.291997 
L 345.765938 93.158934 
L 346.063538 92.793041 
L 346.361138 93.125673 
L 346.658738 93.025888 
L 346.956338 93.192196 
L 347.253938 93.05915 
L 347.551537 93.092411 
L 347.849137 92.759764 
L 348.146738 92.826303 
L 348.444338 93.225473 
L 348.741938 92.759764 
L 349.039538 92.759764 
L 349.337138 93.025888 
L 349.932338 93.025888 
L 350.229938 92.593456 
L 350.527537 92.659979 
L 350.825137 92.892826 
L 351.122737 92.560178 
L 351.420338 92.526917 
L 351.717938 92.859564 
L 352.015538 92.39387 
L 352.313138 92.892826 
L 353.205938 92.526917 
L 353.503537 93.05915 
L 353.801137 92.99261 
L 354.396338 92.726502 
L 354.693938 92.69324 
L 354.991538 92.39387 
L 355.289138 92.626717 
L 355.586738 93.05915 
L 355.884338 92.659979 
L 356.181938 92.759764 
L 356.479537 92.526917 
L 356.777138 92.793041 
L 357.372338 92.360609 
L 358.265138 92.39387 
L 358.860338 92.127762 
L 359.157938 92.560178 
L 359.455537 92.69324 
L 359.753137 92.526917 
L 360.050738 92.659979 
L 360.348338 92.659979 
L 360.645938 92.460393 
L 360.943538 92.593456 
L 361.241138 93.158934 
L 361.538738 92.29407 
L 362.133938 92.560178 
L 362.729137 92.360609 
L 363.026737 91.961438 
L 363.324338 91.828376 
L 363.621938 92.260808 
L 363.919538 91.894899 
L 364.217138 92.460393 
L 364.514738 92.29407 
L 364.812338 92.560178 
L 365.109938 92.194285 
L 365.407538 92.759764 
L 365.705138 91.994699 
L 366.002738 92.127762 
L 366.300338 91.861637 
L 366.597938 92.094484 
L 367.788338 92.260808 
L 368.383537 91.994699 
L 368.681138 92.227546 
L 368.978738 91.761852 
L 369.276338 92.427132 
L 369.573937 91.994699 
L 370.466738 92.194285 
L 371.061937 91.761852 
L 371.657137 91.961438 
L 372.252338 91.695329 
L 372.549938 92.061223 
L 372.847538 91.728591 
L 373.145138 91.861637 
L 373.442738 91.562267 
L 373.740338 92.027961 
L 374.037937 91.795114 
L 374.335537 91.928176 
L 374.930738 91.728591 
L 375.228338 91.362682 
L 375.525938 92.127762 
L 376.121138 91.429205 
L 376.418738 91.595529 
L 376.716338 92.460393 
L 377.013937 91.595529 
L 377.311538 91.429205 
L 377.906738 91.928176 
L 378.204338 91.395943 
L 378.501938 91.695329 
L 378.799538 91.761852 
L 379.097138 91.32942 
L 379.394738 91.695329 
L 379.692338 91.562267 
L 379.989937 91.861637 
L 380.287537 91.62879 
L 381.180338 91.595529 
L 381.477938 91.662052 
L 381.775538 91.462466 
L 382.073138 91.695329 
L 382.668338 91.262897 
L 382.965937 91.928176 
L 383.263537 91.562267 
L 383.561138 91.529005 
L 383.858738 91.362682 
L 384.156338 91.32942 
L 384.751538 91.429205 
L 385.346738 91.129835 
L 385.644338 91.063311 
L 385.941937 91.529005 
L 386.239538 91.196358 
L 386.537138 91.063311 
L 386.834738 91.362682 
L 387.132338 91.395943 
L 387.429938 91.163096 
L 387.727538 91.395943 
L 388.025138 91.262897 
L 388.620338 91.296158 
L 388.917937 91.096573 
L 389.810738 91.163096 
L 390.108338 91.030034 
L 390.703538 91.229619 
L 391.001138 91.063311 
L 391.298738 91.163096 
L 391.596338 91.395943 
L 392.489138 91.063311 
L 393.679538 91.129835 
L 393.977138 90.896988 
L 394.274738 90.996772 
L 394.572338 90.896988 
L 395.167538 90.996772 
L 396.060338 90.830464 
L 396.357938 90.996772 
L 396.655538 90.863726 
L 398.738738 90.830464 
L 399.036338 90.630879 
L 399.333938 90.763925 
L 399.631538 90.664141 
L 399.929138 90.797187 
L 400.226738 90.797187 
L 400.524338 90.630879 
L 401.119537 90.763925 
L 402.309938 90.664141 
L 402.607538 90.763925 
L 402.905138 90.531078 
L 403.500338 90.697402 
L 403.797938 90.597617 
L 404.393138 90.763925 
L 404.690738 90.531078 
L 405.285938 90.630879 
L 405.583538 90.298231 
L 406.178738 90.464555 
L 406.476337 90.331493 
L 407.071538 90.398032 
L 407.369138 90.26497 
L 408.261938 90.464555 
L 408.559538 90.298231 
L 408.857138 90.331493 
L 409.154738 90.098646 
L 410.047538 90.364755 
L 410.642738 90.198447 
L 411.833138 90.198447 
L 412.130738 90.032123 
L 412.428337 90.231708 
L 412.725938 90.098646 
L 413.321138 90.231708 
L 414.213938 89.699475 
L 414.809138 90.165185 
L 415.106738 89.766014 
L 415.701938 89.932322 
L 416.594738 90.032123 
L 416.892338 89.766014 
L 417.189938 89.998861 
L 417.487538 89.699475 
L 417.785138 89.998861 
L 418.082738 89.865799 
L 418.380337 89.9656 
L 418.677938 89.799276 
L 419.868338 89.998861 
L 420.165938 89.865799 
L 420.463538 89.932322 
L 421.653938 89.632952 
L 421.951538 89.832537 
L 422.249138 89.732753 
L 422.844338 89.832537 
L 423.439538 89.59969 
L 423.737138 89.732753 
L 424.034738 89.533167 
L 424.332338 89.699475 
L 425.225138 89.400105 
L 425.522738 89.59969 
L 426.117938 89.366843 
L 426.415538 89.533167 
L 426.713138 89.366843 
L 427.010738 89.49989 
L 427.903538 89.400105 
L 428.201138 89.566429 
L 429.093938 89.366843 
L 429.391538 89.666214 
L 429.689138 89.632952 
L 429.986738 89.732753 
L 430.581938 89.267043 
L 430.879538 89.366843 
L 431.177138 89.20052 
L 431.474738 89.433367 
L 431.772338 89.466628 
L 432.367538 89.034196 
L 432.665138 89.59969 
L 432.962738 89.000934 
L 433.260338 89.666214 
L 434.153138 88.967673 
L 434.450738 89.666214 
L 434.748338 89.034196 
L 435.045938 89.49989 
L 435.343538 89.333582 
L 435.641138 88.90115 
L 436.236338 89.233781 
L 436.831538 89.20052 
L 437.129138 89.49989 
L 437.724338 88.867888 
L 438.021938 89.167258 
L 438.319538 89.167258 
L 438.617138 88.867888 
L 438.914738 89.067473 
L 439.212338 89.067473 
L 439.509938 88.635041 
L 439.807538 88.668303 
L 440.105138 89.100735 
L 440.402738 89.20052 
L 440.700338 89.034196 
L 440.997938 89.000934 
L 441.295538 89.233781 
L 441.593138 89.267043 
L 442.188337 88.867888 
L 442.485938 89.000934 
L 443.081138 89.034196 
L 443.378738 88.568502 
L 443.676338 88.801349 
L 443.973938 88.53524 
L 444.271538 88.53524 
L 444.569138 89.133997 
L 444.866738 88.83461 
L 445.164338 88.867888 
L 445.461938 88.635041 
L 445.759538 88.967673 
L 446.057138 88.468717 
L 446.354738 88.801349 
L 446.652338 88.701564 
L 446.949938 88.934411 
L 447.842738 88.867888 
L 448.140338 88.468717 
L 448.437938 88.335655 
L 448.735538 88.734826 
L 449.033138 88.635041 
L 449.330738 88.402178 
L 449.628338 88.53524 
L 449.925938 88.402178 
L 450.521138 88.967673 
L 450.818737 88.435456 
L 451.413938 88.335655 
L 452.009138 88.701564 
L 452.604338 88.635041 
L 452.901938 88.102808 
L 453.199538 88.734826 
L 453.497138 88.202609 
L 453.794738 88.501979 
L 454.092338 88.202609 
L 454.389938 88.402178 
L 454.985138 88.202609 
L 455.282738 88.13607 
L 455.580338 88.335655 
L 455.877938 88.13607 
L 456.473138 88.468717 
L 457.068338 88.302393 
L 457.365938 88.102808 
L 458.556338 88.302393 
L 458.853938 88.036285 
L 459.151538 88.501979 
L 460.044337 87.936484 
L 460.341937 88.269132 
L 460.639538 88.036285 
L 460.937138 88.13607 
L 461.234738 88.003023 
L 461.532338 88.23587 
L 461.829938 88.269132 
L 462.127538 88.169331 
L 462.425138 88.368917 
L 463.317938 87.903223 
L 464.508338 87.736899 
L 464.805938 88.036285 
L 465.103538 88.13607 
L 465.996338 87.736899 
L 466.293938 87.869961 
L 466.591538 87.703637 
L 466.889138 87.770176 
L 467.186738 88.036285 
L 467.484338 87.803438 
L 467.781938 88.13607 
L 468.079538 87.969746 
L 468.377138 87.637114 
L 468.674737 87.637114 
L 468.972337 88.13607 
L 469.269938 87.770176 
L 469.865138 88.069546 
L 470.162738 87.670376 
L 470.757938 87.736899 
L 471.055538 87.404267 
L 471.353138 87.869961 
L 471.650738 87.869961 
L 471.948338 88.003023 
L 472.245938 87.736899 
L 472.543538 87.271205 
L 473.733938 87.371005 
L 474.031538 87.703637 
L 474.329138 87.47079 
L 474.626738 87.437529 
L 474.924338 87.271205 
L 475.221938 87.570591 
L 475.519538 87.404267 
L 475.817138 87.903223 
L 476.114738 87.504052 
L 476.412338 87.903223 
L 476.709938 87.371005 
L 477.007538 87.204682 
L 477.305138 87.570591 
L 477.602737 87.537329 
L 477.900338 87.337744 
L 478.495538 87.537329 
L 479.090738 87.504052 
L 479.388338 87.903223 
L 479.685938 87.17142 
L 479.983538 87.17142 
L 480.281138 87.404267 
L 481.471538 87.337744 
L 481.769138 87.437529 
L 482.066738 87.337744 
L 482.364338 87.038358 
L 482.661938 87.337744 
L 482.959538 87.204682 
L 483.257138 87.537329 
L 483.554738 87.038358 
L 483.852338 87.603852 
L 484.149938 87.570591 
L 484.447538 87.237943 
L 484.745138 87.204682 
L 485.042738 86.971835 
L 485.340338 87.337744 
L 485.637938 87.304466 
L 485.935538 86.971835 
L 486.233137 87.204682 
L 486.828338 87.138158 
L 487.125938 87.304466 
L 487.721138 86.905311 
L 488.316338 87.337744 
L 488.613938 87.404267 
L 488.911538 86.838772 
L 489.209138 87.138158 
L 489.804338 87.005096 
L 490.101938 87.204682 
L 490.697138 86.938573 
L 490.994738 87.071619 
L 491.292338 87.537329 
L 491.589938 86.905311 
L 491.887538 86.872034 
L 492.185138 87.005096 
L 493.077938 86.905311 
L 493.375538 86.938573 
L 493.673138 87.237943 
L 493.970738 86.872034 
L 494.565938 86.805511 
L 495.161138 87.071619 
L 495.458738 86.838772 
L 495.756338 86.805511 
L 496.053938 86.639187 
L 496.351538 87.005096 
L 496.649138 87.071619 
L 496.946738 86.905311 
L 497.244338 87.038358 
L 497.541938 86.705726 
L 497.839538 87.038358 
L 498.732338 86.838772 
L 499.029938 87.204682 
L 499.327538 86.572664 
L 499.922738 86.672464 
L 500.220338 86.872034 
L 500.517938 86.838772 
L 500.815538 86.672464 
L 501.410738 86.705726 
L 501.708338 86.705726 
L 502.005938 86.539402 
L 502.303538 86.772249 
L 503.196338 86.506141 
L 503.493938 86.738988 
L 503.791538 86.506141 
L 504.386738 86.672464 
L 504.684338 86.40634 
L 505.279538 86.472879 
L 505.874738 86.772249 
L 506.172338 86.472879 
L 506.469938 86.605925 
L 507.065138 86.306555 
L 507.362738 86.506141 
L 507.660338 86.273294 
L 507.957938 86.639187 
L 508.553138 86.373078 
L 509.148338 86.572664 
L 509.445938 86.439602 
L 510.041138 86.373078 
L 510.338738 86.007185 
L 510.636338 86.306555 
L 511.231538 86.007185 
L 511.826738 86.40634 
L 512.421938 86.206755 
L 512.719538 86.373078 
L 513.017138 86.073708 
L 513.612338 86.506141 
L 513.909938 86.306555 
L 514.207538 86.306555 
L 514.802738 86.040447 
L 515.100338 86.007185 
L 515.397938 86.273294 
L 515.695538 86.306555 
L 515.993138 86.173493 
L 516.290738 86.273294 
L 517.778738 86.140231 
L 518.076338 87.404267 
L 518.373938 86.140231 
L 518.969138 86.140231 
L 519.266738 85.973908 
L 520.754738 86.140231 
L 521.052338 85.973908 
L 522.242738 86.073708 
L 522.540338 86.007185 
L 522.837938 86.206755 
L 523.135538 86.040447 
L 523.433138 86.040447 
L 523.730738 85.8076 
L 524.028338 86.007185 
L 524.325938 85.840861 
L 525.813938 85.907384 
L 526.706738 86.007185 
L 527.004338 85.973908 
L 527.301938 86.073708 
L 527.897138 85.674537 
L 528.194738 85.874123 
L 528.789938 85.840861 
L 529.087538 85.907384 
L 530.277938 85.574753 
L 530.575538 85.907384 
L 530.873138 85.707799 
L 531.170738 85.840861 
L 531.468338 85.707799 
L 532.361138 85.707799 
L 532.658738 85.408429 
L 532.956338 85.674537 
L 533.551538 85.707799 
L 534.146738 85.44169 
L 534.444338 85.741061 
L 534.741938 85.774322 
L 535.337138 85.508214 
L 536.229938 85.541475 
L 536.527538 85.8076 
L 536.825138 85.44169 
L 537.122738 85.44169 
L 537.420338 85.641276 
L 537.717938 85.44169 
L 538.015538 85.674537 
L 538.313138 85.408429 
L 538.610738 85.574753 
L 538.908338 85.608014 
L 539.205938 85.907384 
L 539.503538 85.541475 
L 539.801138 85.707799 
L 540.098738 85.574753 
L 540.396338 85.608014 
L 540.693938 85.375167 
L 540.991538 85.707799 
L 541.289138 85.474952 
L 541.586738 85.641276 
L 541.884338 85.608014 
L 542.181938 85.408429 
L 542.479538 85.8076 
L 543.074738 85.375167 
L 543.372338 85.44169 
L 543.669938 85.242105 
L 543.967538 85.574753 
L 544.265138 85.275367 
L 544.562738 85.474952 
L 544.860338 85.44169 
L 545.157938 85.242105 
L 546.050738 85.34189 
L 546.348338 85.242105 
L 546.645938 85.34189 
L 546.943538 85.275367 
L 547.241138 85.44169 
L 547.538738 84.975997 
L 547.836338 85.14232 
L 549.026738 84.975997 
L 549.324338 85.175582 
L 549.621938 85.04252 
L 549.919538 85.04252 
L 550.217138 85.242105 
L 550.514738 85.14232 
L 550.812338 85.275367 
L 551.407538 85.14232 
L 551.705138 85.375167 
L 552.002738 85.308628 
L 552.300338 85.109043 
L 552.895538 85.208843 
L 553.490738 85.275367 
L 553.788338 84.909457 
L 554.085938 84.876196 
L 554.383538 85.308628 
L 554.681138 85.408429 
L 554.978738 85.14232 
L 555.573938 85.175582 
L 555.573938 85.175582 
" clip-path="url(#pe33698c9cd)" style="fill: none; stroke: #1f77b4; stroke-width: 1.5; stroke-linecap: square"/>
   </g>
   <g id="patch_3">
    <path d="M 198.453937 308.3105 
L 198.453937 42.1985 
" style="fill: none; stroke: #000000; stroke-width: 0.8; stroke-linejoin: miter; stroke-linecap: square"/>
   </g>
   <g id="patch_4">
    <path d="M 555.573938 308.3105 
L 555.573938 42.1985 
" style="fill: none; stroke: #000000; stroke-width: 0.8; stroke-linejoin: miter; stroke-linecap: square"/>
   </g>
   <g id="patch_5">
    <path d="M 198.453937 308.3105 
L 555.573938 308.3105 
" style="fill: none; stroke: #000000; stroke-width: 0.8; stroke-linejoin: miter; stroke-linecap: square"/>
   </g>
   <g id="patch_6">
    <path d="M 198.453937 42.1985 
L 555.573938 42.1985 
" style="fill: none; stroke: #000000; stroke-width: 0.8; stroke-linejoin: miter; stroke-linecap: square"/>
   </g>
   <g id="text_19">
    <!-- Accuracy of the CIFAR10_model_(3072+2048-2048+1)_save_4 on the validation set -->
    <g transform="translate(7.2 22.1985) scale(0.216 -0.216)">
     <defs>
      <path id="TimesNewRomanPSMT-68" d="M 1041 4444 
L 1041 2350 
Q 1388 2731 1591 2839 
Q 1794 2947 1997 2947 
Q 2241 2947 2416 2812 
Q 2591 2678 2675 2391 
Q 2734 2191 2734 1659 
L 2734 647 
Q 2734 375 2778 275 
Q 2809 200 2884 156 
Q 2959 113 3159 113 
L 3159 0 
L 1753 0 
L 1753 113 
L 1819 113 
Q 2019 113 2097 173 
Q 2175 234 2206 353 
Q 2216 403 2216 647 
L 2216 1659 
Q 2216 2128 2167 2275 
Q 2119 2422 2012 2495 
Q 1906 2569 1756 2569 
Q 1603 2569 1437 2487 
Q 1272 2406 1041 2159 
L 1041 647 
Q 1041 353 1073 281 
Q 1106 209 1195 161 
Q 1284 113 1503 113 
L 1503 0 
L 84 0 
L 84 113 
Q 275 113 384 172 
Q 447 203 484 290 
Q 522 378 522 647 
L 522 3238 
Q 522 3728 498 3840 
Q 475 3953 426 3993 
Q 378 4034 297 4034 
Q 231 4034 84 3984 
L 41 4094 
L 897 4444 
L 1041 4444 
z
" transform="scale(0.015625)"/>
      <path id="TimesNewRomanPSMT-43" d="M 3853 4334 
L 3950 2894 
L 3853 2894 
Q 3659 3541 3300 3825 
Q 2941 4109 2438 4109 
Q 2016 4109 1675 3895 
Q 1334 3681 1139 3212 
Q 944 2744 944 2047 
Q 944 1472 1128 1050 
Q 1313 628 1683 403 
Q 2053 178 2528 178 
Q 2941 178 3256 354 
Q 3572 531 3950 1056 
L 4047 994 
Q 3728 428 3303 165 
Q 2878 -97 2294 -97 
Q 1241 -97 663 684 
Q 231 1266 231 2053 
Q 231 2688 515 3219 
Q 800 3750 1298 4042 
Q 1797 4334 2388 4334 
Q 2847 4334 3294 4109 
Q 3425 4041 3481 4041 
Q 3566 4041 3628 4100 
Q 3709 4184 3744 4334 
L 3853 4334 
z
" transform="scale(0.015625)"/>
      <path id="TimesNewRomanPSMT-49" d="M 1975 116 
L 1975 0 
L 159 0 
L 159 116 
L 309 116 
Q 572 116 691 269 
Q 766 369 766 750 
L 766 3488 
Q 766 3809 725 3913 
Q 694 3991 597 4047 
Q 459 4122 309 4122 
L 159 4122 
L 159 4238 
L 1975 4238 
L 1975 4122 
L 1822 4122 
Q 1563 4122 1444 3969 
Q 1366 3869 1366 3488 
L 1366 750 
Q 1366 428 1406 325 
Q 1438 247 1538 191 
Q 1672 116 1822 116 
L 1975 116 
z
" transform="scale(0.015625)"/>
      <path id="TimesNewRomanPSMT-46" d="M 1309 4006 
L 1309 2341 
L 2081 2341 
Q 2347 2341 2470 2458 
Q 2594 2575 2634 2922 
L 2750 2922 
L 2750 1488 
L 2634 1488 
Q 2631 1734 2570 1850 
Q 2509 1966 2401 2023 
Q 2294 2081 2081 2081 
L 1309 2081 
L 1309 750 
Q 1309 428 1350 325 
Q 1381 247 1481 191 
Q 1619 116 1769 116 
L 1922 116 
L 1922 0 
L 103 0 
L 103 116 
L 253 116 
Q 516 116 634 269 
Q 709 369 709 750 
L 709 3488 
Q 709 3809 669 3913 
Q 638 3991 541 4047 
Q 406 4122 253 4122 
L 103 4122 
L 103 4238 
L 3256 4238 
L 3297 3306 
L 3188 3306 
Q 3106 3603 2998 3742 
Q 2891 3881 2733 3943 
Q 2575 4006 2244 4006 
L 1309 4006 
z
" transform="scale(0.015625)"/>
      <path id="TimesNewRomanPSMT-52" d="M 4325 0 
L 3194 0 
L 1759 1981 
Q 1600 1975 1500 1975 
Q 1459 1975 1412 1976 
Q 1366 1978 1316 1981 
L 1316 750 
Q 1316 350 1403 253 
Q 1522 116 1759 116 
L 1925 116 
L 1925 0 
L 109 0 
L 109 116 
L 269 116 
Q 538 116 653 291 
Q 719 388 719 750 
L 719 3488 
Q 719 3888 631 3984 
Q 509 4122 269 4122 
L 109 4122 
L 109 4238 
L 1653 4238 
Q 2328 4238 2648 4139 
Q 2969 4041 3192 3777 
Q 3416 3513 3416 3147 
Q 3416 2756 3161 2468 
Q 2906 2181 2372 2063 
L 3247 847 
Q 3547 428 3762 290 
Q 3978 153 4325 116 
L 4325 0 
z
M 1316 2178 
Q 1375 2178 1419 2176 
Q 1463 2175 1491 2175 
Q 2097 2175 2405 2437 
Q 2713 2700 2713 3106 
Q 2713 3503 2464 3751 
Q 2216 4000 1806 4000 
Q 1625 4000 1316 3941 
L 1316 2178 
z
" transform="scale(0.015625)"/>
      <path id="TimesNewRomanPSMT-5f" d="M 3256 -1381 
L -53 -1381 
L -53 -1119 
L 3256 -1119 
L 3256 -1381 
z
" transform="scale(0.015625)"/>
      <path id="TimesNewRomanPSMT-64" d="M 2222 322 
Q 2013 103 1813 7 
Q 1613 -88 1381 -88 
Q 913 -88 563 304 
Q 213 697 213 1313 
Q 213 1928 600 2439 
Q 988 2950 1597 2950 
Q 1975 2950 2222 2709 
L 2222 3238 
Q 2222 3728 2198 3840 
Q 2175 3953 2125 3993 
Q 2075 4034 2000 4034 
Q 1919 4034 1784 3984 
L 1744 4094 
L 2597 4444 
L 2738 4444 
L 2738 1134 
Q 2738 631 2761 520 
Q 2784 409 2836 365 
Q 2888 322 2956 322 
Q 3041 322 3181 375 
L 3216 266 
L 2366 -88 
L 2222 -88 
L 2222 322 
z
M 2222 541 
L 2222 2016 
Q 2203 2228 2109 2403 
Q 2016 2578 1861 2667 
Q 1706 2756 1559 2756 
Q 1284 2756 1069 2509 
Q 784 2184 784 1559 
Q 784 928 1059 592 
Q 1334 256 1672 256 
Q 1956 256 2222 541 
z
" transform="scale(0.015625)"/>
      <path id="TimesNewRomanPSMT-6c" d="M 1184 4444 
L 1184 647 
Q 1184 378 1223 290 
Q 1263 203 1344 158 
Q 1425 113 1647 113 
L 1647 0 
L 244 0 
L 244 113 
Q 441 113 512 153 
Q 584 194 625 287 
Q 666 381 666 647 
L 666 3247 
Q 666 3731 644 3842 
Q 622 3953 573 3993 
Q 525 4034 450 4034 
Q 369 4034 244 3984 
L 191 4094 
L 1044 4444 
L 1184 4444 
z
" transform="scale(0.015625)"/>
      <path id="TimesNewRomanPSMT-28" d="M 1988 -1253 
L 1988 -1369 
Q 1516 -1131 1200 -813 
Q 750 -359 506 256 
Q 263 872 263 1534 
Q 263 2503 741 3301 
Q 1219 4100 1988 4444 
L 1988 4313 
Q 1603 4100 1356 3731 
Q 1109 3363 987 2797 
Q 866 2231 866 1616 
Q 866 947 969 400 
Q 1050 -31 1165 -292 
Q 1281 -553 1476 -793 
Q 1672 -1034 1988 -1253 
z
" transform="scale(0.015625)"/>
      <path id="TimesNewRomanPSMT-2b" d="M 1672 441 
L 1672 2000 
L 116 2000 
L 116 2256 
L 1672 2256 
L 1672 3809 
L 1922 3809 
L 1922 2256 
L 3484 2256 
L 3484 2000 
L 1922 2000 
L 1922 441 
L 1672 441 
z
" transform="scale(0.015625)"/>
      <path id="TimesNewRomanPSMT-2d" d="M 259 1672 
L 1875 1672 
L 1875 1200 
L 259 1200 
L 259 1672 
z
" transform="scale(0.015625)"/>
      <path id="TimesNewRomanPSMT-29" d="M 144 4313 
L 144 4444 
Q 619 4209 934 3891 
Q 1381 3434 1625 2820 
Q 1869 2206 1869 1541 
Q 1869 572 1392 -226 
Q 916 -1025 144 -1369 
L 144 -1253 
Q 528 -1038 776 -670 
Q 1025 -303 1145 264 
Q 1266 831 1266 1447 
Q 1266 2113 1163 2663 
Q 1084 3094 967 3353 
Q 850 3613 656 3853 
Q 463 4094 144 4313 
z
" transform="scale(0.015625)"/>
      <path id="TimesNewRomanPSMT-76" d="M 53 2863 
L 1400 2863 
L 1400 2747 
L 1313 2747 
Q 1191 2747 1127 2687 
Q 1063 2628 1063 2528 
Q 1063 2419 1128 2269 
L 1794 688 
L 2463 2328 
Q 2534 2503 2534 2594 
Q 2534 2638 2509 2666 
Q 2475 2713 2422 2730 
Q 2369 2747 2206 2747 
L 2206 2863 
L 3141 2863 
L 3141 2747 
Q 2978 2734 2916 2681 
Q 2806 2588 2719 2369 
L 1703 -88 
L 1575 -88 
L 553 2328 
Q 484 2497 421 2570 
Q 359 2644 263 2694 
Q 209 2722 53 2747 
L 53 2863 
z
" transform="scale(0.015625)"/>
     </defs>
     <use xlink:href="#TimesNewRomanPSMT-41"/>
     <use xlink:href="#TimesNewRomanPSMT-63" transform="translate(72.216797 0)"/>
     <use xlink:href="#TimesNewRomanPSMT-63" transform="translate(116.601562 0)"/>
     <use xlink:href="#TimesNewRomanPSMT-75" transform="translate(160.986328 0)"/>
     <use xlink:href="#TimesNewRomanPSMT-72" transform="translate(210.986328 0)"/>
     <use xlink:href="#TimesNewRomanPSMT-61" transform="translate(244.287109 0)"/>
     <use xlink:href="#TimesNewRomanPSMT-63" transform="translate(288.671875 0)"/>
     <use xlink:href="#TimesNewRomanPSMT-79" transform="translate(333.056641 0)"/>
     <use xlink:href="#TimesNewRomanPSMT-20" transform="translate(383.056641 0)"/>
     <use xlink:href="#TimesNewRomanPSMT-6f" transform="translate(408.056641 0)"/>
     <use xlink:href="#TimesNewRomanPSMT-66" transform="translate(458.056641 0)"/>
     <use xlink:href="#TimesNewRomanPSMT-20" transform="translate(491.357422 0)"/>
     <use xlink:href="#TimesNewRomanPSMT-74" transform="translate(516.357422 0)"/>
     <use xlink:href="#TimesNewRomanPSMT-68" transform="translate(544.140625 0)"/>
     <use xlink:href="#TimesNewRomanPSMT-65" transform="translate(594.140625 0)"/>
     <use xlink:href="#TimesNewRomanPSMT-20" transform="translate(638.525391 0)"/>
     <use xlink:href="#TimesNewRomanPSMT-43" transform="translate(663.525391 0)"/>
     <use xlink:href="#TimesNewRomanPSMT-49" transform="translate(730.224609 0)"/>
     <use xlink:href="#TimesNewRomanPSMT-46" transform="translate(763.525391 0)"/>
     <use xlink:href="#TimesNewRomanPSMT-41" transform="translate(811.765625 0)"/>
     <use xlink:href="#TimesNewRomanPSMT-52" transform="translate(883.982422 0)"/>
     <use xlink:href="#TimesNewRomanPSMT-31" transform="translate(950.681641 0)"/>
     <use xlink:href="#TimesNewRomanPSMT-30" transform="translate(1000.681641 0)"/>
     <use xlink:href="#TimesNewRomanPSMT-5f" transform="translate(1050.681641 0)"/>
     <use xlink:href="#TimesNewRomanPSMT-6d" transform="translate(1100.681641 0)"/>
     <use xlink:href="#TimesNewRomanPSMT-6f" transform="translate(1178.464844 0)"/>
     <use xlink:href="#TimesNewRomanPSMT-64" transform="translate(1228.464844 0)"/>
     <use xlink:href="#TimesNewRomanPSMT-65" transform="translate(1278.464844 0)"/>
     <use xlink:href="#TimesNewRomanPSMT-6c" transform="translate(1322.849609 0)"/>
     <use xlink:href="#TimesNewRomanPSMT-5f" transform="translate(1350.632812 0)"/>
     <use xlink:href="#TimesNewRomanPSMT-28" transform="translate(1400.632812 0)"/>
     <use xlink:href="#TimesNewRomanPSMT-33" transform="translate(1433.933594 0)"/>
     <use xlink:href="#TimesNewRomanPSMT-30" transform="translate(1483.933594 0)"/>
     <use xlink:href="#TimesNewRomanPSMT-37" transform="translate(1533.933594 0)"/>
     <use xlink:href="#TimesNewRomanPSMT-32" transform="translate(1583.933594 0)"/>
     <use xlink:href="#TimesNewRomanPSMT-2b" transform="translate(1633.933594 0)"/>
     <use xlink:href="#TimesNewRomanPSMT-32" transform="translate(1690.330078 0)"/>
     <use xlink:href="#TimesNewRomanPSMT-30" transform="translate(1740.330078 0)"/>
     <use xlink:href="#TimesNewRomanPSMT-34" transform="translate(1790.330078 0)"/>
     <use xlink:href="#TimesNewRomanPSMT-38" transform="translate(1840.330078 0)"/>
     <use xlink:href="#TimesNewRomanPSMT-2d" transform="translate(1890.330078 0)"/>
     <use xlink:href="#TimesNewRomanPSMT-32" transform="translate(1923.630859 0)"/>
     <use xlink:href="#TimesNewRomanPSMT-30" transform="translate(1973.630859 0)"/>
     <use xlink:href="#TimesNewRomanPSMT-34" transform="translate(2023.630859 0)"/>
     <use xlink:href="#TimesNewRomanPSMT-38" transform="translate(2073.630859 0)"/>
     <use xlink:href="#TimesNewRomanPSMT-2b" transform="translate(2123.630859 0)"/>
     <use xlink:href="#TimesNewRomanPSMT-31" transform="translate(2180.027344 0)"/>
     <use xlink:href="#TimesNewRomanPSMT-29" transform="translate(2230.027344 0)"/>
     <use xlink:href="#TimesNewRomanPSMT-5f" transform="translate(2263.328125 0)"/>
     <use xlink:href="#TimesNewRomanPSMT-73" transform="translate(2313.328125 0)"/>
     <use xlink:href="#TimesNewRomanPSMT-61" transform="translate(2352.244141 0)"/>
     <use xlink:href="#TimesNewRomanPSMT-76" transform="translate(2396.628906 0)"/>
     <use xlink:href="#TimesNewRomanPSMT-65" transform="translate(2446.628906 0)"/>
     <use xlink:href="#TimesNewRomanPSMT-5f" transform="translate(2491.013672 0)"/>
     <use xlink:href="#TimesNewRomanPSMT-34" transform="translate(2541.013672 0)"/>
     <use xlink:href="#TimesNewRomanPSMT-20" transform="translate(2591.013672 0)"/>
     <use xlink:href="#TimesNewRomanPSMT-6f" transform="translate(2616.013672 0)"/>
     <use xlink:href="#TimesNewRomanPSMT-6e" transform="translate(2666.013672 0)"/>
     <use xlink:href="#TimesNewRomanPSMT-20" transform="translate(2716.013672 0)"/>
     <use xlink:href="#TimesNewRomanPSMT-74" transform="translate(2741.013672 0)"/>
     <use xlink:href="#TimesNewRomanPSMT-68" transform="translate(2768.796875 0)"/>
     <use xlink:href="#TimesNewRomanPSMT-65" transform="translate(2818.796875 0)"/>
     <use xlink:href="#TimesNewRomanPSMT-20" transform="translate(2863.181641 0)"/>
     <use xlink:href="#TimesNewRomanPSMT-76" transform="translate(2888.181641 0)"/>
     <use xlink:href="#TimesNewRomanPSMT-61" transform="translate(2938.181641 0)"/>
     <use xlink:href="#TimesNewRomanPSMT-6c" transform="translate(2982.566406 0)"/>
     <use xlink:href="#TimesNewRomanPSMT-69" transform="translate(3010.349609 0)"/>
     <use xlink:href="#TimesNewRomanPSMT-64" transform="translate(3038.132812 0)"/>
     <use xlink:href="#TimesNewRomanPSMT-61" transform="translate(3088.132812 0)"/>
     <use xlink:href="#TimesNewRomanPSMT-74" transform="translate(3132.517578 0)"/>
     <use xlink:href="#TimesNewRomanPSMT-69" transform="translate(3160.300781 0)"/>
     <use xlink:href="#TimesNewRomanPSMT-6f" transform="translate(3188.083984 0)"/>
     <use xlink:href="#TimesNewRomanPSMT-6e" transform="translate(3238.083984 0)"/>
     <use xlink:href="#TimesNewRomanPSMT-20" transform="translate(3288.083984 0)"/>
     <use xlink:href="#TimesNewRomanPSMT-73" transform="translate(3313.083984 0)"/>
     <use xlink:href="#TimesNewRomanPSMT-65" transform="translate(3352 0)"/>
     <use xlink:href="#TimesNewRomanPSMT-74" transform="translate(3396.384766 0)"/>
    </g>
   </g>
   <g id="legend_1">
    <g id="patch_7">
     <path d="M 348.9255 82.082562 
L 542.973938 82.082562 
Q 546.573938 82.082562 546.573938 78.482562 
L 546.573938 54.7985 
Q 546.573938 51.1985 542.973938 51.1985 
L 348.9255 51.1985 
Q 345.3255 51.1985 345.3255 54.7985 
L 345.3255 78.482562 
Q 345.3255 82.082562 348.9255 82.082562 
z
" style="fill: #ffffff; opacity: 0.8; stroke: #cccccc; stroke-linejoin: miter"/>
    </g>
    <g id="line2d_34">
     <path d="M 352.5255 64.6985 
L 370.5255 64.6985 
L 388.5255 64.6985 
" style="fill: none; stroke: #1f77b4; stroke-width: 1.5; stroke-linecap: square"/>
    </g>
    <g id="text_20">
     <!-- Best accuracy 0.84 -->
     <g transform="translate(402.9255 70.9985) scale(0.18 -0.18)">
      <defs>
       <path id="TimesNewRomanPSMT-42" d="M 2956 2163 
Q 3397 2069 3616 1863 
Q 3919 1575 3919 1159 
Q 3919 844 3719 555 
Q 3519 266 3170 133 
Q 2822 0 2106 0 
L 106 0 
L 106 116 
L 266 116 
Q 531 116 647 284 
Q 719 394 719 750 
L 719 3488 
Q 719 3881 628 3984 
Q 506 4122 266 4122 
L 106 4122 
L 106 4238 
L 1938 4238 
Q 2450 4238 2759 4163 
Q 3228 4050 3475 3764 
Q 3722 3478 3722 3106 
Q 3722 2788 3528 2536 
Q 3334 2284 2956 2163 
z
M 1319 2331 
Q 1434 2309 1582 2298 
Q 1731 2288 1909 2288 
Q 2366 2288 2595 2386 
Q 2825 2484 2947 2687 
Q 3069 2891 3069 3131 
Q 3069 3503 2766 3765 
Q 2463 4028 1881 4028 
Q 1569 4028 1319 3959 
L 1319 2331 
z
M 1319 306 
Q 1681 222 2034 222 
Q 2600 222 2897 476 
Q 3194 731 3194 1106 
Q 3194 1353 3059 1581 
Q 2925 1809 2622 1940 
Q 2319 2072 1872 2072 
Q 1678 2072 1540 2065 
Q 1403 2059 1319 2044 
L 1319 306 
z
" transform="scale(0.015625)"/>
      </defs>
      <use xlink:href="#TimesNewRomanPSMT-42"/>
      <use xlink:href="#TimesNewRomanPSMT-65" transform="translate(66.699219 0)"/>
      <use xlink:href="#TimesNewRomanPSMT-73" transform="translate(111.083984 0)"/>
      <use xlink:href="#TimesNewRomanPSMT-74" transform="translate(150 0)"/>
      <use xlink:href="#TimesNewRomanPSMT-20" transform="translate(177.783203 0)"/>
      <use xlink:href="#TimesNewRomanPSMT-61" transform="translate(202.783203 0)"/>
      <use xlink:href="#TimesNewRomanPSMT-63" transform="translate(247.167969 0)"/>
      <use xlink:href="#TimesNewRomanPSMT-63" transform="translate(291.552734 0)"/>
      <use xlink:href="#TimesNewRomanPSMT-75" transform="translate(335.9375 0)"/>
      <use xlink:href="#TimesNewRomanPSMT-72" transform="translate(385.9375 0)"/>
      <use xlink:href="#TimesNewRomanPSMT-61" transform="translate(419.238281 0)"/>
      <use xlink:href="#TimesNewRomanPSMT-63" transform="translate(463.623047 0)"/>
      <use xlink:href="#TimesNewRomanPSMT-79" transform="translate(508.007812 0)"/>
      <use xlink:href="#TimesNewRomanPSMT-20" transform="translate(558.007812 0)"/>
      <use xlink:href="#TimesNewRomanPSMT-30" transform="translate(583.007812 0)"/>
      <use xlink:href="#TimesNewRomanPSMT-2e" transform="translate(633.007812 0)"/>
      <use xlink:href="#TimesNewRomanPSMT-38" transform="translate(658.007812 0)"/>
      <use xlink:href="#TimesNewRomanPSMT-34" transform="translate(708.007812 0)"/>
     </g>
    </g>
   </g>
  </g>
 </g>
 <defs>
  <clipPath id="pe33698c9cd">
   <rect x="198.453937" y="42.1985" width="357.12" height="266.112"/>
  </clipPath>
 </defs>
</svg>
