<?xml version="1.0" encoding="utf-8" standalone="no"?>
<!DOCTYPE svg PUBLIC "-//W3C//DTD SVG 1.1//EN"
  "http://www.w3.org/Graphics/SVG/1.1/DTD/svg11.dtd">
<svg xmlns:xlink="http://www.w3.org/1999/xlink" width="532.125pt" height="370.219562pt" viewBox="0 0 532.125 370.219562" xmlns="http://www.w3.org/2000/svg" version="1.1">
 <metadata>
  <rdf:RDF xmlns:dc="http://purl.org/dc/elements/1.1/" xmlns:cc="http://creativecommons.org/ns#" xmlns:rdf="http://www.w3.org/1999/02/22-rdf-syntax-ns#">
   <cc:Work>
    <dc:type rdf:resource="http://purl.org/dc/dcmitype/StillImage"/>
    <dc:date>2025-05-02T11:05:24.363531</dc:date>
    <dc:format>image/svg+xml</dc:format>
    <dc:creator>
     <cc:Agent>
      <dc:title>Matplotlib v3.10.1, https://matplotlib.org/</dc:title>
     </cc:Agent>
    </dc:creator>
   </cc:Work>
  </rdf:RDF>
 </metadata>
 <defs>
  <style type="text/css">*{stroke-linejoin: round; stroke-linecap: butt}</style>
 </defs>
 <g id="figure_1">
  <g id="patch_1">
   <path d="M 0 370.219562 
L 532.125 370.219562 
L 532.125 0 
L 0 0 
z
" style="fill: #ffffff"/>
  </g>
  <g id="axes_1">
   <g id="patch_2">
    <path d="M 87.5025 308.3105 
L 444.6225 308.3105 
L 444.6225 42.1985 
L 87.5025 42.1985 
z
" style="fill: #ffffff"/>
   </g>
   <g id="matplotlib.axis_1">
    <g id="xtick_1">
     <g id="line2d_1">
      <path d="M 87.5025 308.3105 
L 87.5025 42.1985 
" clip-path="url(#pf3de98f912)" style="fill: none; stroke: #b0b0b0; stroke-opacity: 0.3; stroke-width: 0.8; stroke-linecap: square"/>
     </g>
     <g id="line2d_2">
      <defs>
       <path id="m16181e0696" d="M 0 0 
L 0 3.5 
" style="stroke: #000000; stroke-width: 0.8"/>
      </defs>
      <g>
       <use xlink:href="#m16181e0696" x="87.5025" y="308.3105" style="stroke: #000000; stroke-width: 0.8"/>
      </g>
     </g>
     <g id="text_1">
      <!-- 0.0 -->
      <g transform="translate(76.2525 327.80925) scale(0.18 -0.18)">
       <defs>
        <path id="TimesNewRomanPSMT-30" d="M 231 2094 
Q 231 2819 450 3342 
Q 669 3866 1031 4122 
Q 1313 4325 1613 4325 
Q 2100 4325 2488 3828 
Q 2972 3213 2972 2159 
Q 2972 1422 2759 906 
Q 2547 391 2217 158 
Q 1888 -75 1581 -75 
Q 975 -75 572 641 
Q 231 1244 231 2094 
z
M 844 2016 
Q 844 1141 1059 588 
Q 1238 122 1591 122 
Q 1759 122 1940 273 
Q 2122 425 2216 781 
Q 2359 1319 2359 2297 
Q 2359 3022 2209 3506 
Q 2097 3866 1919 4016 
Q 1791 4119 1609 4119 
Q 1397 4119 1231 3928 
Q 1006 3669 925 3112 
Q 844 2556 844 2016 
z
" transform="scale(0.015625)"/>
        <path id="TimesNewRomanPSMT-2e" d="M 800 606 
Q 947 606 1047 504 
Q 1147 403 1147 259 
Q 1147 116 1045 14 
Q 944 -88 800 -88 
Q 656 -88 554 14 
Q 453 116 453 259 
Q 453 406 554 506 
Q 656 606 800 606 
z
" transform="scale(0.015625)"/>
       </defs>
       <use xlink:href="#TimesNewRomanPSMT-30"/>
       <use xlink:href="#TimesNewRomanPSMT-2e" transform="translate(50 0)"/>
       <use xlink:href="#TimesNewRomanPSMT-30" transform="translate(75 0)"/>
      </g>
     </g>
    </g>
    <g id="xtick_2">
     <g id="line2d_3">
      <path d="M 148.559724 308.3105 
L 148.559724 42.1985 
" clip-path="url(#pf3de98f912)" style="fill: none; stroke: #b0b0b0; stroke-opacity: 0.3; stroke-width: 0.8; stroke-linecap: square"/>
     </g>
     <g id="line2d_4">
      <g>
       <use xlink:href="#m16181e0696" x="148.559724" y="308.3105" style="stroke: #000000; stroke-width: 0.8"/>
      </g>
     </g>
     <g id="text_2">
      <!-- 0.2 -->
      <g transform="translate(137.309724 327.80925) scale(0.18 -0.18)">
       <defs>
        <path id="TimesNewRomanPSMT-32" d="M 2934 816 
L 2638 0 
L 138 0 
L 138 116 
Q 1241 1122 1691 1759 
Q 2141 2397 2141 2925 
Q 2141 3328 1894 3587 
Q 1647 3847 1303 3847 
Q 991 3847 742 3664 
Q 494 3481 375 3128 
L 259 3128 
Q 338 3706 661 4015 
Q 984 4325 1469 4325 
Q 1984 4325 2329 3994 
Q 2675 3663 2675 3213 
Q 2675 2891 2525 2569 
Q 2294 2063 1775 1497 
Q 997 647 803 472 
L 1909 472 
Q 2247 472 2383 497 
Q 2519 522 2628 598 
Q 2738 675 2819 816 
L 2934 816 
z
" transform="scale(0.015625)"/>
       </defs>
       <use xlink:href="#TimesNewRomanPSMT-30"/>
       <use xlink:href="#TimesNewRomanPSMT-2e" transform="translate(50 0)"/>
       <use xlink:href="#TimesNewRomanPSMT-32" transform="translate(75 0)"/>
      </g>
     </g>
    </g>
    <g id="xtick_3">
     <g id="line2d_5">
      <path d="M 209.616949 308.3105 
L 209.616949 42.1985 
" clip-path="url(#pf3de98f912)" style="fill: none; stroke: #b0b0b0; stroke-opacity: 0.3; stroke-width: 0.8; stroke-linecap: square"/>
     </g>
     <g id="line2d_6">
      <g>
       <use xlink:href="#m16181e0696" x="209.616949" y="308.3105" style="stroke: #000000; stroke-width: 0.8"/>
      </g>
     </g>
     <g id="text_3">
      <!-- 0.4 -->
      <g transform="translate(198.366949 327.80925) scale(0.18 -0.18)">
       <defs>
        <path id="TimesNewRomanPSMT-34" d="M 2978 1563 
L 2978 1119 
L 2409 1119 
L 2409 0 
L 1894 0 
L 1894 1119 
L 100 1119 
L 100 1519 
L 2066 4325 
L 2409 4325 
L 2409 1563 
L 2978 1563 
z
M 1894 1563 
L 1894 3666 
L 406 1563 
L 1894 1563 
z
" transform="scale(0.015625)"/>
       </defs>
       <use xlink:href="#TimesNewRomanPSMT-30"/>
       <use xlink:href="#TimesNewRomanPSMT-2e" transform="translate(50 0)"/>
       <use xlink:href="#TimesNewRomanPSMT-34" transform="translate(75 0)"/>
      </g>
     </g>
    </g>
    <g id="xtick_4">
     <g id="line2d_7">
      <path d="M 270.674173 308.3105 
L 270.674173 42.1985 
" clip-path="url(#pf3de98f912)" style="fill: none; stroke: #b0b0b0; stroke-opacity: 0.3; stroke-width: 0.8; stroke-linecap: square"/>
     </g>
     <g id="line2d_8">
      <g>
       <use xlink:href="#m16181e0696" x="270.674173" y="308.3105" style="stroke: #000000; stroke-width: 0.8"/>
      </g>
     </g>
     <g id="text_4">
      <!-- 0.6 -->
      <g transform="translate(259.424173 327.80925) scale(0.18 -0.18)">
       <defs>
        <path id="TimesNewRomanPSMT-36" d="M 2869 4325 
L 2869 4209 
Q 2456 4169 2195 4045 
Q 1934 3922 1679 3669 
Q 1425 3416 1258 3105 
Q 1091 2794 978 2366 
Q 1428 2675 1881 2675 
Q 2316 2675 2634 2325 
Q 2953 1975 2953 1425 
Q 2953 894 2631 456 
Q 2244 -75 1606 -75 
Q 1172 -75 869 213 
Q 275 772 275 1663 
Q 275 2231 503 2743 
Q 731 3256 1154 3653 
Q 1578 4050 1965 4187 
Q 2353 4325 2688 4325 
L 2869 4325 
z
M 925 2138 
Q 869 1716 869 1456 
Q 869 1156 980 804 
Q 1091 453 1309 247 
Q 1469 100 1697 100 
Q 1969 100 2183 356 
Q 2397 613 2397 1088 
Q 2397 1622 2184 2012 
Q 1972 2403 1581 2403 
Q 1463 2403 1327 2353 
Q 1191 2303 925 2138 
z
" transform="scale(0.015625)"/>
       </defs>
       <use xlink:href="#TimesNewRomanPSMT-30"/>
       <use xlink:href="#TimesNewRomanPSMT-2e" transform="translate(50 0)"/>
       <use xlink:href="#TimesNewRomanPSMT-36" transform="translate(75 0)"/>
      </g>
     </g>
    </g>
    <g id="xtick_5">
     <g id="line2d_9">
      <path d="M 331.731397 308.3105 
L 331.731397 42.1985 
" clip-path="url(#pf3de98f912)" style="fill: none; stroke: #b0b0b0; stroke-opacity: 0.3; stroke-width: 0.8; stroke-linecap: square"/>
     </g>
     <g id="line2d_10">
      <g>
       <use xlink:href="#m16181e0696" x="331.731397" y="308.3105" style="stroke: #000000; stroke-width: 0.8"/>
      </g>
     </g>
     <g id="text_5">
      <!-- 0.8 -->
      <g transform="translate(320.481397 327.80925) scale(0.18 -0.18)">
       <defs>
        <path id="TimesNewRomanPSMT-38" d="M 1228 2134 
Q 725 2547 579 2797 
Q 434 3047 434 3316 
Q 434 3728 753 4026 
Q 1072 4325 1600 4325 
Q 2113 4325 2425 4047 
Q 2738 3769 2738 3413 
Q 2738 3175 2569 2928 
Q 2400 2681 1866 2347 
Q 2416 1922 2594 1678 
Q 2831 1359 2831 1006 
Q 2831 559 2490 242 
Q 2150 -75 1597 -75 
Q 994 -75 656 303 
Q 388 606 388 966 
Q 388 1247 577 1523 
Q 766 1800 1228 2134 
z
M 1719 2469 
Q 2094 2806 2194 3001 
Q 2294 3197 2294 3444 
Q 2294 3772 2109 3958 
Q 1925 4144 1606 4144 
Q 1288 4144 1088 3959 
Q 888 3775 888 3528 
Q 888 3366 970 3203 
Q 1053 3041 1206 2894 
L 1719 2469 
z
M 1375 2016 
Q 1116 1797 991 1539 
Q 866 1281 866 981 
Q 866 578 1086 336 
Q 1306 94 1647 94 
Q 1984 94 2187 284 
Q 2391 475 2391 747 
Q 2391 972 2272 1150 
Q 2050 1481 1375 2016 
z
" transform="scale(0.015625)"/>
       </defs>
       <use xlink:href="#TimesNewRomanPSMT-30"/>
       <use xlink:href="#TimesNewRomanPSMT-2e" transform="translate(50 0)"/>
       <use xlink:href="#TimesNewRomanPSMT-38" transform="translate(75 0)"/>
      </g>
     </g>
    </g>
    <g id="xtick_6">
     <g id="line2d_11">
      <path d="M 392.788622 308.3105 
L 392.788622 42.1985 
" clip-path="url(#pf3de98f912)" style="fill: none; stroke: #b0b0b0; stroke-opacity: 0.3; stroke-width: 0.8; stroke-linecap: square"/>
     </g>
     <g id="line2d_12">
      <g>
       <use xlink:href="#m16181e0696" x="392.788622" y="308.3105" style="stroke: #000000; stroke-width: 0.8"/>
      </g>
     </g>
     <g id="text_6">
      <!-- 1.0 -->
      <g transform="translate(381.538622 327.80925) scale(0.18 -0.18)">
       <defs>
        <path id="TimesNewRomanPSMT-31" d="M 750 3822 
L 1781 4325 
L 1884 4325 
L 1884 747 
Q 1884 391 1914 303 
Q 1944 216 2037 169 
Q 2131 122 2419 116 
L 2419 0 
L 825 0 
L 825 116 
Q 1125 122 1212 167 
Q 1300 213 1334 289 
Q 1369 366 1369 747 
L 1369 3034 
Q 1369 3497 1338 3628 
Q 1316 3728 1258 3775 
Q 1200 3822 1119 3822 
Q 1003 3822 797 3725 
L 750 3822 
z
" transform="scale(0.015625)"/>
       </defs>
       <use xlink:href="#TimesNewRomanPSMT-31"/>
       <use xlink:href="#TimesNewRomanPSMT-2e" transform="translate(50 0)"/>
       <use xlink:href="#TimesNewRomanPSMT-30" transform="translate(75 0)"/>
      </g>
     </g>
    </g>
    <g id="text_7">
     <!-- $\kappa  = \frac{ln(n)}{ln(d)}$ -->
     <g transform="translate(239.8725 353.299562) scale(0.18 -0.18)">
      <defs>
       <path id="STIXGeneral-Italic-3ba" d="M 979 1440 
L 998 1446 
Q 1850 2541 2464 2790 
Q 2547 2822 2630 2822 
Q 2797 2822 2886 2736 
Q 2976 2650 2976 2522 
Q 2976 2387 2893 2307 
Q 2810 2227 2682 2227 
Q 2605 2227 2502 2288 
Q 2400 2349 2336 2349 
Q 2170 2349 1990 2205 
Q 1811 2061 1414 1645 
L 2042 544 
Q 2202 262 2310 182 
Q 2419 102 2624 102 
L 2624 0 
Q 2374 -83 2182 -83 
Q 1786 -83 1555 326 
L 960 1350 
L 576 0 
L 90 0 
L 640 1978 
Q 730 2317 730 2406 
Q 730 2560 518 2560 
L 339 2560 
L 339 2650 
Q 678 2694 1306 2822 
L 1325 2803 
L 979 1440 
z
" transform="scale(0.015625)"/>
       <path id="STIXGeneral-Regular-3d" d="M 4077 2048 
L 307 2048 
L 307 2470 
L 4077 2470 
L 4077 2048 
z
M 4077 768 
L 307 768 
L 307 1190 
L 4077 1190 
L 4077 768 
z
" transform="scale(0.015625)"/>
       <path id="STIXGeneral-Italic-6c" d="M 1786 4339 
L 806 595 
Q 755 410 755 320 
Q 755 205 864 205 
Q 1037 205 1293 570 
L 1453 794 
L 1542 730 
Q 1254 275 1046 102 
Q 838 -70 576 -70 
Q 262 -70 262 288 
Q 262 397 288 480 
L 1165 3834 
Q 1184 3898 1184 3955 
Q 1184 4096 870 4096 
L 755 4096 
L 755 4198 
Q 1203 4250 1747 4371 
L 1786 4339 
z
" transform="scale(0.015625)"/>
       <path id="STIXGeneral-Italic-6e" d="M 2944 749 
L 3034 666 
Q 2707 218 2534 80 
Q 2362 -58 2138 -58 
Q 2010 -58 1923 28 
Q 1837 115 1837 288 
Q 1837 390 1939 768 
L 2221 1805 
Q 2310 2150 2310 2310 
Q 2310 2496 2157 2496 
Q 1971 2496 1750 2275 
Q 1530 2054 1210 1587 
Q 998 1274 899 1024 
Q 800 774 570 0 
L 90 0 
L 704 2240 
Q 717 2304 717 2349 
Q 717 2445 630 2480 
Q 544 2515 301 2522 
L 301 2624 
Q 550 2675 857 2729 
Q 1165 2784 1338 2822 
L 1363 2810 
L 934 1414 
Q 1408 2170 1753 2496 
Q 2099 2822 2413 2822 
Q 2611 2822 2720 2716 
Q 2829 2611 2829 2432 
Q 2829 2272 2765 2048 
L 2406 749 
Q 2317 429 2317 358 
Q 2317 243 2419 243 
Q 2541 243 2810 582 
Q 2854 634 2944 749 
z
" transform="scale(0.015625)"/>
       <path id="STIXGeneral-Regular-28" d="M 1946 -1030 
L 1869 -1133 
Q 1126 -710 716 32 
Q 307 774 307 1613 
Q 307 3386 1888 4326 
L 1946 4224 
Q 1293 3667 1075 3126 
Q 858 2586 858 1632 
Q 858 685 1082 96 
Q 1306 -493 1946 -1030 
z
" transform="scale(0.015625)"/>
       <path id="STIXGeneral-Regular-29" d="M 186 4224 
L 262 4326 
Q 992 3891 1408 3148 
Q 1824 2406 1824 1581 
Q 1824 -166 243 -1133 
L 186 -1030 
Q 845 -486 1059 54 
Q 1274 595 1274 1562 
Q 1274 2534 1059 3120 
Q 845 3706 186 4224 
z
" transform="scale(0.015625)"/>
       <path id="STIXGeneral-Italic-64" d="M 3334 4371 
L 3373 4333 
L 3123 3360 
L 2739 1958 
Q 2323 429 2323 384 
Q 2323 256 2438 256 
Q 2522 256 2614 336 
Q 2707 416 2963 710 
L 3040 646 
Q 2547 -83 2099 -83 
Q 1978 -83 1907 -6 
Q 1837 70 1837 205 
Q 1837 397 1920 774 
Q 1645 307 1379 118 
Q 1114 -70 781 -70 
Q 461 -70 278 125 
Q 96 320 96 678 
Q 96 1440 713 2131 
Q 1331 2822 1965 2822 
Q 2163 2822 2256 2732 
Q 2349 2643 2381 2451 
L 2387 2451 
L 2675 3494 
Q 2765 3808 2765 3949 
Q 2765 4051 2694 4076 
Q 2624 4102 2355 4115 
L 2355 4224 
Q 2848 4269 3334 4371 
z
M 2278 2310 
Q 2278 2477 2185 2576 
Q 2093 2675 1978 2675 
Q 1677 2675 1395 2381 
Q 1075 2042 864 1571 
Q 653 1101 653 704 
Q 653 486 752 361 
Q 851 237 1024 237 
Q 1312 237 1606 550 
Q 1901 864 2089 1350 
Q 2278 1837 2278 2310 
z
" transform="scale(0.015625)"/>
      </defs>
      <use xlink:href="#STIXGeneral-Italic-3ba" transform="translate(0 0.003125)"/>
      <use xlink:href="#STIXGeneral-Regular-3d" transform="translate(58.83999 0.003125)"/>
      <use xlink:href="#STIXGeneral-Italic-6c" transform="translate(141.779971 50.192188) scale(0.7)"/>
      <use xlink:href="#STIXGeneral-Italic-6e" transform="translate(161.239963 50.192188) scale(0.7)"/>
      <use xlink:href="#STIXGeneral-Regular-28" transform="translate(196.239952 50.192188) scale(0.7)"/>
      <use xlink:href="#STIXGeneral-Italic-6e" transform="translate(219.549944 50.192188) scale(0.7)"/>
      <use xlink:href="#STIXGeneral-Regular-29" transform="translate(254.549933 50.192188) scale(0.7)"/>
      <use xlink:href="#STIXGeneral-Italic-6c" transform="translate(141.779971 -41.257812) scale(0.7)"/>
      <use xlink:href="#STIXGeneral-Italic-6e" transform="translate(161.239963 -41.257812) scale(0.7)"/>
      <use xlink:href="#STIXGeneral-Regular-28" transform="translate(196.239952 -41.257812) scale(0.7)"/>
      <use xlink:href="#STIXGeneral-Italic-64" transform="translate(219.549944 -41.257812) scale(0.7)"/>
      <use xlink:href="#STIXGeneral-Regular-29" transform="translate(254.549933 -41.257812) scale(0.7)"/>
      <path d="M 141.779971 12.8 
L 141.779971 19.05 
L 277.859924 19.05 
L 277.859924 12.8 
L 141.779971 12.8 
z
"/>
     </g>
    </g>
   </g>
   <g id="matplotlib.axis_2">
    <g id="ytick_1">
     <g id="line2d_13">
      <path d="M 87.5025 262.703625 
L 444.6225 262.703625 
" clip-path="url(#pf3de98f912)" style="fill: none; stroke: #b0b0b0; stroke-opacity: 0.3; stroke-width: 0.8; stroke-linecap: square"/>
     </g>
     <g id="line2d_14">
      <defs>
       <path id="mcc04c2bdba" d="M 0 0 
L -3.5 0 
" style="stroke: #000000; stroke-width: 0.8"/>
      </defs>
      <g>
       <use xlink:href="#mcc04c2bdba" x="87.5025" y="262.703625" style="stroke: #000000; stroke-width: 0.8"/>
      </g>
     </g>
     <g id="text_8">
      <!-- 0.06 -->
      <g transform="translate(49.0025 268.953) scale(0.18 -0.18)">
       <use xlink:href="#TimesNewRomanPSMT-30"/>
       <use xlink:href="#TimesNewRomanPSMT-2e" transform="translate(50 0)"/>
       <use xlink:href="#TimesNewRomanPSMT-30" transform="translate(75 0)"/>
       <use xlink:href="#TimesNewRomanPSMT-36" transform="translate(125 0)"/>
      </g>
     </g>
    </g>
    <g id="ytick_2">
     <g id="line2d_15">
      <path d="M 87.5025 198.578078 
L 444.6225 198.578078 
" clip-path="url(#pf3de98f912)" style="fill: none; stroke: #b0b0b0; stroke-opacity: 0.3; stroke-width: 0.8; stroke-linecap: square"/>
     </g>
     <g id="line2d_16">
      <g>
       <use xlink:href="#mcc04c2bdba" x="87.5025" y="198.578078" style="stroke: #000000; stroke-width: 0.8"/>
      </g>
     </g>
     <g id="text_9">
      <!-- 0.08 -->
      <g transform="translate(49.0025 204.827453) scale(0.18 -0.18)">
       <use xlink:href="#TimesNewRomanPSMT-30"/>
       <use xlink:href="#TimesNewRomanPSMT-2e" transform="translate(50 0)"/>
       <use xlink:href="#TimesNewRomanPSMT-30" transform="translate(75 0)"/>
       <use xlink:href="#TimesNewRomanPSMT-38" transform="translate(125 0)"/>
      </g>
     </g>
    </g>
    <g id="ytick_3">
     <g id="line2d_17">
      <path d="M 87.5025 134.452532 
L 444.6225 134.452532 
" clip-path="url(#pf3de98f912)" style="fill: none; stroke: #b0b0b0; stroke-opacity: 0.3; stroke-width: 0.8; stroke-linecap: square"/>
     </g>
     <g id="line2d_18">
      <g>
       <use xlink:href="#mcc04c2bdba" x="87.5025" y="134.452532" style="stroke: #000000; stroke-width: 0.8"/>
      </g>
     </g>
     <g id="text_10">
      <!-- 0.10 -->
      <g transform="translate(49.0025 140.701907) scale(0.18 -0.18)">
       <use xlink:href="#TimesNewRomanPSMT-30"/>
       <use xlink:href="#TimesNewRomanPSMT-2e" transform="translate(50 0)"/>
       <use xlink:href="#TimesNewRomanPSMT-31" transform="translate(75 0)"/>
       <use xlink:href="#TimesNewRomanPSMT-30" transform="translate(125 0)"/>
      </g>
     </g>
    </g>
    <g id="ytick_4">
     <g id="line2d_19">
      <path d="M 87.5025 70.326985 
L 444.6225 70.326985 
" clip-path="url(#pf3de98f912)" style="fill: none; stroke: #b0b0b0; stroke-opacity: 0.3; stroke-width: 0.8; stroke-linecap: square"/>
     </g>
     <g id="line2d_20">
      <g>
       <use xlink:href="#mcc04c2bdba" x="87.5025" y="70.326985" style="stroke: #000000; stroke-width: 0.8"/>
      </g>
     </g>
     <g id="text_11">
      <!-- 0.12 -->
      <g transform="translate(49.0025 76.57636) scale(0.18 -0.18)">
       <use xlink:href="#TimesNewRomanPSMT-30"/>
       <use xlink:href="#TimesNewRomanPSMT-2e" transform="translate(50 0)"/>
       <use xlink:href="#TimesNewRomanPSMT-31" transform="translate(75 0)"/>
       <use xlink:href="#TimesNewRomanPSMT-32" transform="translate(125 0)"/>
      </g>
     </g>
    </g>
    <g id="text_12">
     <!-- Loss -->
     <g transform="translate(41.152187 192.257469) rotate(-90) scale(0.18 -0.18)">
      <defs>
       <path id="TimesNewRomanPSMT-4c" d="M 3669 1172 
L 3772 1150 
L 3409 0 
L 128 0 
L 128 116 
L 288 116 
Q 556 116 672 291 
Q 738 391 738 753 
L 738 3488 
Q 738 3884 650 3984 
Q 528 4122 288 4122 
L 128 4122 
L 128 4238 
L 2047 4238 
L 2047 4122 
Q 1709 4125 1573 4059 
Q 1438 3994 1388 3894 
Q 1338 3794 1338 3416 
L 1338 753 
Q 1338 494 1388 397 
Q 1425 331 1503 300 
Q 1581 269 1991 269 
L 2300 269 
Q 2788 269 2984 341 
Q 3181 413 3343 595 
Q 3506 778 3669 1172 
z
" transform="scale(0.015625)"/>
       <path id="TimesNewRomanPSMT-6f" d="M 1600 2947 
Q 2250 2947 2644 2453 
Q 2978 2031 2978 1484 
Q 2978 1100 2793 706 
Q 2609 313 2286 112 
Q 1963 -88 1566 -88 
Q 919 -88 538 428 
Q 216 863 216 1403 
Q 216 1797 411 2186 
Q 606 2575 925 2761 
Q 1244 2947 1600 2947 
z
M 1503 2744 
Q 1338 2744 1170 2645 
Q 1003 2547 900 2300 
Q 797 2053 797 1666 
Q 797 1041 1045 587 
Q 1294 134 1700 134 
Q 2003 134 2200 384 
Q 2397 634 2397 1244 
Q 2397 2006 2069 2444 
Q 1847 2744 1503 2744 
z
" transform="scale(0.015625)"/>
       <path id="TimesNewRomanPSMT-73" d="M 2050 2947 
L 2050 1972 
L 1947 1972 
Q 1828 2431 1642 2597 
Q 1456 2763 1169 2763 
Q 950 2763 815 2647 
Q 681 2531 681 2391 
Q 681 2216 781 2091 
Q 878 1963 1175 1819 
L 1631 1597 
Q 2266 1288 2266 781 
Q 2266 391 1970 151 
Q 1675 -88 1309 -88 
Q 1047 -88 709 6 
Q 606 38 541 38 
Q 469 38 428 -44 
L 325 -44 
L 325 978 
L 428 978 
Q 516 541 762 319 
Q 1009 97 1316 97 
Q 1531 97 1667 223 
Q 1803 350 1803 528 
Q 1803 744 1651 891 
Q 1500 1038 1047 1263 
Q 594 1488 453 1669 
Q 313 1847 313 2119 
Q 313 2472 555 2709 
Q 797 2947 1181 2947 
Q 1350 2947 1591 2875 
Q 1750 2828 1803 2828 
Q 1853 2828 1881 2850 
Q 1909 2872 1947 2947 
L 2050 2947 
z
" transform="scale(0.015625)"/>
      </defs>
      <use xlink:href="#TimesNewRomanPSMT-4c"/>
      <use xlink:href="#TimesNewRomanPSMT-6f" transform="translate(61.083984 0)"/>
      <use xlink:href="#TimesNewRomanPSMT-73" transform="translate(111.083984 0)"/>
      <use xlink:href="#TimesNewRomanPSMT-73" transform="translate(150 0)"/>
     </g>
    </g>
   </g>
   <g id="line2d_21">
    <path d="M 87.5025 54.2945 
L 178.691112 56.486353 
L 203.275687 57.958944 
L 218.082718 56.199761 
L 237.0098 60.73227 
L 243.816911 65.498027 
L 249.588307 60.857518 
L 254.597935 61.167521 
L 259.023639 64.06674 
L 262.987444 66.347889 
L 266.576718 67.303434 
L 269.856167 68.724927 
L 272.875056 66.087623 
L 275.671759 68.24553 
L 278.276749 71.466434 
L 280.714635 73.937951 
L 283.005567 77.95363 
L 285.16626 81.398441 
L 287.210728 75.966143 
L 289.15084 77.777069 
L 290.996734 77.359495 
L 292.757137 78.923006 
L 294.439621 80.170542 
L 296.050791 88.611135 
L 297.596447 88.936975 
L 299.081711 91.724014 
L 300.511124 99.029491 
L 301.888735 87.274733 
L 303.218167 96.175636 
L 304.502678 100.85162 
L 305.745203 95.467553 
L 306.948401 97.128195 
L 308.114686 101.261548 
L 309.246254 102.598834 
L 310.345113 110.989189 
L 311.413101 108.550208 
L 312.451906 107.660834 
L 313.463079 117.412363 
L 314.448053 114.559225 
L 315.408151 115.786479 
L 317.258534 125.169382 
L 318.151014 134.028623 
L 319.023021 135.43435 
L 319.875475 135.349808 
L 320.709234 136.1442 
L 321.525099 124.830737 
L 322.323823 139.6586 
L 323.106111 136.969576 
L 323.872626 127.770997 
L 324.623991 155.23377 
L 325.360795 140.683923 
L 326.083589 154.387969 
L 326.792898 151.448426 
L 327.489215 152.439589 
L 328.173008 130.358375 
L 328.844719 168.608367 
L 329.504768 144.192589 
L 330.153552 157.279998 
L 330.79145 160.874257 
L 331.418822 153.500483 
L 332.036008 154.715649 
L 332.643335 160.756414 
L 333.241112 179.505738 
L 333.829635 165.39248 
L 334.409187 181.389332 
L 334.980036 176.973663 
L 335.54244 164.719275 
L 336.096646 166.034153 
L 336.642889 176.526062 
L 337.181394 165.200248 
L 337.712378 185.319466 
L 338.236048 184.893579 
L 338.752603 166.65067 
L 339.262233 189.401387 
L 339.765122 181.709392 
L 340.261445 161.788714 
L 340.751372 174.641822 
L 341.235066 180.349747 
L 341.712684 189.930855 
L 342.184375 156.598121 
L 342.650286 179.530773 
L 343.110556 181.382668 
L 343.56532 164.675463 
L 344.014708 181.184726 
L 344.458847 171.665849 
L 344.897857 192.797299 
L 345.331855 184.277468 
L 345.760955 185.148399 
L 346.185265 172.641437 
L 346.604892 195.218961 
L 347.430502 184.471372 
L 347.836679 200.42231 
L 348.238563 171.071118 
L 348.636242 187.32396 
L 349.419336 201.213836 
L 349.804915 173.881853 
L 350.186624 194.387804 
L 350.564537 195.563459 
L 350.938732 203.444173 
L 351.309279 188.558095 
L 352.039711 167.590879 
L 352.399731 200.339727 
L 352.756374 183.529945 
L 353.109702 189.279603 
L 353.459776 187.949986 
L 353.806657 177.77613 
L 354.491064 199.700085 
L 355.163369 193.466156 
L 355.495114 177.108562 
L 355.82399 200.862625 
L 356.150046 185.618671 
L 356.793885 208.884235 
L 357.111762 184.199949 
L 357.427003 218.42509 
L 357.739651 180.93306 
L 358.049749 183.86675 
L 358.357339 201.356164 
L 358.662459 193.03296 
L 358.96515 200.536259 
L 359.265451 200.758781 
L 359.563398 211.393019 
L 359.859028 210.589095 
L 360.152376 160.780136 
L 360.443479 217.512975 
L 361.019082 178.290691 
L 361.303647 216.789722 
L 361.586099 175.697963 
L 361.866468 234.895104 
L 362.144784 195.604189 
L 362.421077 190.851045 
L 362.695377 214.328883 
L 362.967713 181.770714 
L 363.238111 206.75196 
L 363.506599 189.830212 
L 363.773205 200.421474 
L 364.037954 229.531463 
L 364.300872 204.673411 
L 364.561985 218.876036 
L 365.07889 185.447509 
L 365.334731 223.356348 
L 365.588862 196.290485 
L 365.841305 206.353378 
L 366.092083 201.246754 
L 366.341218 187.651975 
L 366.588731 186.362156 
L 367.078974 207.311193 
L 367.321745 247.576167 
L 367.562975 215.013603 
L 367.802685 216.853242 
L 368.040893 223.733836 
L 368.277617 217.266874 
L 368.512876 190.026194 
L 368.746689 178.120054 
L 368.979073 192.241387 
L 369.210044 198.186239 
L 369.439621 212.3134 
L 369.66782 204.079038 
L 369.894657 203.52807 
L 370.120149 195.517377 
L 370.344311 196.931942 
L 370.56716 219.254312 
L 370.788709 228.327882 
L 371.008975 201.766618 
L 371.227973 202.536429 
L 371.445716 208.519551 
L 371.662219 227.985821 
L 371.877496 228.214411 
L 372.09156 196.028355 
L 372.726617 227.562777 
L 372.935966 218.619974 
L 373.14417 196.017653 
L 373.351239 209.902727 
L 373.557186 198.256017 
L 373.762024 234.316474 
L 373.965764 206.192608 
L 374.168418 221.725089 
L 374.369998 216.708621 
L 374.570514 225.033544 
L 374.769979 212.460864 
L 374.968402 208.297793 
L 375.165795 221.097511 
L 375.362168 211.790669 
L 375.557533 196.47039 
L 375.751898 238.087198 
L 375.945275 208.208474 
L 376.137673 223.851296 
L 376.329103 229.678951 
L 376.519573 262.802886 
L 376.709094 215.146663 
L 376.897675 215.61574 
L 377.085325 207.996773 
L 377.272053 230.978349 
L 377.457869 219.031455 
L 377.642781 217.111478 
L 378.009928 208.907144 
L 378.192181 218.015376 
L 378.373564 190.764759 
L 378.912578 249.918232 
L 379.090564 238.622471 
L 379.267721 190.76999 
L 379.444056 220.092277 
L 379.619577 227.915349 
L 379.794292 217.384358 
L 379.968207 225.711145 
L 380.313669 207.897706 
L 380.48523 221.158952 
L 380.65602 197.972221 
L 380.826046 198.562461 
L 380.995315 235.590096 
L 381.163834 209.515755 
L 381.33161 244.883274 
L 381.498648 202.630288 
L 381.664955 238.367245 
L 381.830538 233.886479 
L 381.995403 222.460787 
L 382.159556 191.937905 
L 382.323004 245.091081 
L 382.485752 196.019373 
L 382.647806 203.491736 
L 382.809172 225.293835 
L 382.969856 207.133987 
L 383.129864 206.881723 
L 383.289201 196.138864 
L 383.447873 241.453608 
L 383.763245 219.753632 
L 383.919955 242.498974 
L 384.076021 226.556468 
L 384.23145 194.0805 
L 384.386246 212.669412 
L 384.540414 210.725714 
L 384.69396 218.536984 
L 384.846887 209.789017 
L 384.999203 220.275097 
L 385.15091 206.897824 
L 385.302014 242.151108 
L 385.452521 227.277881 
L 385.602433 241.085341 
L 385.900497 206.043591 
L 386.343256 224.494474 
L 386.489704 254.617508 
L 386.780918 208.966507 
L 386.925692 219.284985 
L 387.069918 194.066693 
L 387.213598 235.64805 
L 387.356738 208.156683 
L 387.499341 236.697095 
L 387.782951 227.040261 
L 387.923967 204.554875 
L 388.204439 248.520891 
L 388.343903 209.790068 
L 388.482857 212.461844 
L 388.621305 208.850027 
L 388.759251 215.327332 
L 388.896698 228.488796 
L 389.03365 221.447861 
L 389.17011 240.855866 
L 389.306082 235.672034 
L 389.44157 211.962285 
L 389.576577 207.810417 
L 389.711105 213.577013 
L 389.84516 180.263605 
L 389.978743 209.969257 
L 390.111859 207.119367 
L 390.24451 191.977513 
L 390.508432 237.909515 
L 390.770535 201.41493 
L 390.900911 244.236633 
L 391.030843 193.461642 
L 391.160331 234.565537 
L 391.28938 226.475462 
L 391.417993 227.478139 
L 391.546171 208.527841 
L 391.67392 222.571678 
L 391.80124 220.852867 
L 391.928135 222.212536 
L 392.180662 245.708316 
L 392.3063 236.031654 
L 392.556335 261.804533 
L 392.928333 205.802124 
L 393.051527 236.4326 
L 393.174324 201.397085 
L 393.296725 223.102412 
L 393.418734 208.067889 
L 393.540352 251.975569 
L 393.661582 222.953514 
L 393.782427 237.995108 
L 393.902889 199.270137 
L 394.022971 231.107371 
L 394.142674 206.107158 
L 394.262002 217.54735 
L 394.380957 250.432268 
L 394.49954 192.177914 
L 394.617755 228.273057 
L 394.735603 216.376234 
L 394.853087 223.956143 
L 394.970209 217.326213 
L 395.086971 222.855714 
L 395.203376 211.89081 
L 395.319426 225.543041 
L 395.435122 205.05828 
L 395.780114 242.102303 
L 395.894419 220.521843 
L 396.008381 240.465646 
L 396.122003 215.75685 
L 396.235286 230.552701 
L 396.460845 216.663447 
L 396.573124 233.462766 
L 396.685073 230.972066 
L 396.796693 216.928133 
L 397.018955 242.744931 
L 397.129601 251.680616 
L 397.349931 212.929894 
L 397.459619 228.640871 
L 397.568991 196.508302 
L 397.786796 238.247873 
L 398.003361 212.652355 
L 398.111182 217.9434 
L 398.218699 250.103727 
L 398.325912 227.488865 
L 398.432824 250.148399 
L 398.64575 220.661687 
L 398.85749 241.400694 
L 398.962919 235.798286 
L 399.068057 211.049214 
L 399.172905 215.355234 
L 399.381737 249.355512 
L 399.485724 222.661571 
L 399.589428 242.763875 
L 399.69285 240.18536 
L 399.795991 256.581977 
L 399.898853 210.402357 
L 400.001438 233.622103 
L 400.103746 208.537133 
L 400.20578 209.337617 
L 400.40903 242.053021 
L 400.510249 251.60035 
L 400.611199 215.948317 
L 400.711882 238.963051 
L 400.812299 232.594797 
L 400.912451 235.682235 
L 401.01234 235.630946 
L 401.310443 221.836314 
L 401.409293 223.448797 
L 401.507887 240.287508 
L 401.606226 204.166303 
L 401.802144 259.867989 
L 401.997058 214.100245 
L 402.094141 198.070833 
L 402.287567 258.687628 
L 402.383912 230.29468 
L 402.480014 244.336678 
L 402.575873 213.062045 
L 402.86201 260.417893 
L 403.051578 193.653993 
L 403.240205 244.015424 
L 403.334169 231.978972 
L 403.427901 247.6292 
L 403.70772 202.256049 
L 403.893128 237.875473 
L 403.985494 191.685307 
L 404.169555 249.851344 
L 404.261253 240.874356 
L 404.35273 214.610148 
L 404.625847 245.64697 
L 404.716452 202.204593 
L 404.806842 263.587747 
L 404.897017 241.076072 
L 404.986978 259.40185 
L 405.076728 238.787446 
L 405.166266 241.469302 
L 405.255593 238.569916 
L 405.344711 206.992901 
L 405.433621 224.256447 
L 405.522324 266.17946 
L 405.610819 206.379465 
L 405.69911 245.258206 
L 405.787196 237.43867 
L 405.875078 213.85479 
L 405.962757 241.919794 
L 406.050235 205.683254 
L 406.137512 212.926597 
L 406.398147 241.177073 
L 406.657007 201.125782 
L 406.742904 222.81969 
L 406.828607 213.259413 
L 407.084562 245.255507 
L 407.169499 236.329473 
L 407.254247 246.793146 
L 407.423178 227.408217 
L 407.507363 248.750628 
L 407.591361 236.501949 
L 407.675175 246.853202 
L 407.758804 240.65181 
L 407.84225 219.447237 
L 407.925512 220.560447 
L 408.008593 206.607171 
L 408.091493 235.132581 
L 408.174212 212.252675 
L 408.256752 217.096357 
L 408.339113 243.485025 
L 408.421296 216.295968 
L 408.503302 225.55919 
L 408.585131 216.478143 
L 408.666784 266.556112 
L 408.748263 231.780529 
L 408.829567 243.778831 
L 408.910697 218.568398 
L 408.991655 264.25449 
L 409.072441 212.109821 
L 409.153056 233.468595 
L 409.2335 229.271913 
L 409.393879 249.194885 
L 409.473815 247.406869 
L 409.633186 242.409631 
L 409.712621 223.356921 
L 409.870996 235.260983 
L 410.028714 216.941726 
L 410.107328 226.241903 
L 410.18578 260.718986 
L 410.26407 217.91244 
L 410.3422 244.805087 
L 410.420169 223.323955 
L 410.497979 240.969051 
L 410.57563 230.098435 
L 410.653122 256.79406 
L 410.730457 249.20628 
L 410.807635 231.387012 
L 410.884656 249.655672 
L 410.961522 209.736318 
L 411.038233 276.882067 
L 411.114789 217.234051 
L 411.191191 234.634479 
L 411.267441 249.29118 
L 411.343537 221.646448 
L 411.419482 229.604801 
L 411.495275 235.942931 
L 411.570917 235.289673 
L 411.646409 222.855594 
L 411.796945 248.002699 
L 411.87199 245.662975 
L 411.946887 239.344313 
L 412.021637 245.448861 
L 412.09624 236.294476 
L 412.170698 245.960866 
L 412.245009 222.119323 
L 412.467076 249.497792 
L 412.540812 252.346965 
L 412.687854 218.47571 
L 412.761163 227.487958 
L 412.83433 244.535026 
L 412.907357 210.292852 
L 412.980244 241.926817 
L 413.052991 226.492877 
L 413.1256 238.450616 
L 413.19807 214.189756 
L 413.270402 243.384048 
L 413.342597 232.339977 
L 413.414655 246.335989 
L 413.630013 213.193433 
L 413.844159 251.12683 
L 413.915273 253.174658 
L 413.986255 225.628013 
L 414.057104 254.106171 
L 414.198408 214.569155 
L 414.268864 254.48022 
L 414.409384 210.179572 
L 414.688877 248.429135 
L 414.96633 220.714552 
L 415.035378 236.224411 
L 415.104301 225.920362 
L 415.173099 229.156101 
L 415.241772 231.692117 
L 415.378749 254.926137 
L 415.515234 227.755606 
L 415.583293 244.018721 
L 415.719047 215.581627 
L 415.786742 243.393938 
L 415.854317 222.870692 
L 415.989109 250.26285 
L 416.056325 244.921615 
L 416.190403 238.935484 
L 416.257266 213.784485 
L 416.32401 247.360811 
L 416.390638 233.196647 
L 416.457149 219.354764 
L 416.523544 219.427552 
L 416.589824 219.87673 
L 416.655988 247.03884 
L 416.722037 217.520499 
L 416.787971 257.521254 
L 416.853791 225.766591 
L 416.919498 227.075497 
L 416.985091 246.317189 
L 417.050571 239.307334 
L 417.115939 235.824348 
L 417.181195 201.581147 
L 417.246338 215.226212 
L 417.505802 251.584177 
L 417.570392 244.946866 
L 417.634873 258.287482 
L 417.699244 225.947308 
L 417.763507 244.044927 
L 417.827661 236.093191 
L 417.891708 243.176455 
L 417.955646 240.269305 
L 418.019477 231.258348 
L 418.146819 242.869534 
L 418.21033 242.861699 
L 418.273735 244.753487 
L 418.337035 235.703448 
L 418.40023 251.630259 
L 418.463319 199.949411 
L 418.526304 246.748976 
L 418.589185 244.956564 
L 418.651962 244.702628 
L 418.777206 225.907749 
L 418.839674 273.756789 
L 418.902039 244.882247 
L 418.964302 251.197253 
L 419.026463 248.913285 
L 419.088523 230.378052 
L 419.150482 248.397482 
L 419.21234 239.891506 
L 419.274097 241.366892 
L 419.397312 273.287067 
L 419.520128 227.677801 
L 419.581388 229.531009 
L 419.642549 265.121779 
L 419.703612 245.121491 
L 419.764577 191.363145 
L 419.886215 256.32306 
L 419.946888 243.774412 
L 420.007464 247.746756 
L 420.067944 249.53298 
L 420.188617 258.992196 
L 420.24881 249.91398 
L 420.308907 213.140257 
L 420.36891 240.534803 
L 420.428819 229.083288 
L 420.488633 261.792732 
L 420.548353 228.741728 
L 420.607979 268.386554 
L 420.667512 258.005417 
L 420.726952 260.298761 
L 420.786299 257.379857 
L 420.845554 243.671284 
L 420.904717 255.378408 
L 420.963787 252.670823 
L 421.022766 207.996438 
L 421.081654 268.958615 
L 421.14045 241.264004 
L 421.199156 223.264401 
L 421.257771 267.402832 
L 421.316296 265.467221 
L 421.491332 202.134456 
L 421.549499 254.229628 
L 421.607577 249.191469 
L 421.665566 255.050788 
L 421.78128 233.416279 
L 421.839005 245.675779 
L 421.896643 258.050494 
L 421.954193 226.545002 
L 422.011657 255.104871 
L 422.069034 254.412806 
L 422.183528 207.548096 
L 422.297678 251.168014 
L 422.468264 225.235618 
L 422.694528 254.88586 
L 422.750884 243.090576 
L 422.807156 268.474572 
L 422.863346 215.131828 
L 422.919452 233.780461 
L 423.031418 227.167468 
L 423.254364 260.900599 
L 423.42072 233.333409 
L 423.47601 268.198575 
L 423.531221 233.913401 
L 423.586351 229.291047 
L 423.696372 262.94242 
L 423.806076 207.978068 
L 423.97004 246.774465 
L 424.024538 248.021212 
L 424.1333 224.882807 
L 424.187565 260.265687 
L 424.241752 209.818758 
L 424.295863 227.93962 
L 424.457733 281.978932 
L 424.511536 276.37687 
L 424.725994 226.772207 
L 424.779419 272.236087 
L 424.83277 265.722124 
L 424.886046 225.076257 
L 424.939248 244.088882 
L 424.992375 248.587062 
L 425.045428 241.849394 
L 425.098407 247.483002 
L 425.151313 244.382903 
L 425.256903 278.037452 
L 425.414741 224.431432 
L 425.571926 265.833947 
L 425.624177 236.668405 
L 425.676356 272.793958 
L 425.728464 239.600447 
L 425.7805 224.364066 
L 425.88436 258.91199 
L 425.987937 244.371102 
L 426.039619 281.837524 
L 426.091232 239.09549 
L 426.142775 228.364814 
L 426.348249 275.01019 
L 426.399444 262.938299 
L 426.450571 277.307416 
L 426.60354 224.707799 
L 426.654393 261.469303 
L 426.705178 229.837428 
L 426.806546 258.688082 
L 426.857128 235.538258 
L 426.907644 258.169866 
L 427.008473 265.049038 
L 427.159218 225.481886 
L 427.209334 269.309061 
L 427.259384 256.423571 
L 427.309368 249.985455 
L 427.359286 271.104841 
L 427.409139 232.031455 
L 427.458926 243.605137 
L 427.508649 263.409693 
L 427.558306 244.304572 
L 427.657427 262.779427 
L 427.805626 222.479898 
L 427.854897 274.190177 
L 427.904105 251.180579 
L 427.953249 252.453508 
L 428.002329 251.13316 
L 428.149192 279.004643 
L 428.246786 243.898919 
L 428.392709 280.805212 
L 428.538075 235.340245 
L 428.586406 232.179756 
L 428.634677 261.702433 
L 428.731034 255.275723 
L 428.92302 217.381324 
L 428.970865 261.790856 
L 429.01865 243.27705 
L 429.066375 234.58159 
L 429.11404 261.029418 
L 429.209192 260.104881 
L 429.256678 254.131589 
L 429.304106 230.081164 
L 429.351474 247.319914 
L 429.398784 250.562652 
L 429.493226 231.0025 
L 429.540359 275.366716 
L 429.587434 240.040476 
L 429.728311 257.570405 
L 429.775154 251.892627 
L 429.821939 256.617965 
L 429.868667 263.439542 
L 429.915338 255.450265 
L 429.961951 259.94933 
L 430.008507 231.372941 
L 430.055007 263.205601 
L 430.147835 223.491175 
L 430.194164 259.652275 
L 430.286654 257.399935 
L 430.332814 207.639566 
L 430.378919 244.495609 
L 430.424967 236.772225 
L 430.516898 252.487908 
L 430.56278 243.263745 
L 430.654378 267.820394 
L 430.700094 262.852766 
L 430.791363 236.826572 
L 430.836915 270.317938 
L 430.882412 240.882837 
L 430.927856 221.867226 
L 430.973245 232.234126 
L 431.06386 228.0991 
L 431.109087 296.095857 
L 431.19938 234.172067 
L 431.244446 245.38355 
L 431.289459 270.745735 
L 431.334419 235.459593 
L 431.424179 231.748208 
L 431.468979 270.838387 
L 431.603065 238.335783 
L 431.647656 267.288573 
L 431.692194 248.809442 
L 431.825496 215.648515 
L 431.869827 267.928096 
L 431.914106 252.912767 
L 431.958333 207.38477 
L 432.002509 255.036562 
L 432.046634 278.822194 
L 432.090707 221.720694 
L 432.134729 227.788739 
L 432.222622 264.135513 
L 432.266492 257.515771 
L 432.35408 243.263721 
L 432.397799 246.740591 
L 432.441468 273.744988 
L 432.528655 262.242961 
L 432.572173 240.917117 
L 432.615642 265.976001 
L 432.659061 246.434171 
L 432.702431 235.093547 
L 432.832243 267.492116 
L 432.961614 231.638607 
L 433.047618 259.648441 
L 433.090547 259.522966 
L 433.176259 236.450397 
L 433.261779 263.314867 
L 433.304467 253.336528 
L 433.347107 258.91377 
L 433.432244 229.793306 
L 433.474741 285.184344 
L 433.559592 250.986866 
L 433.601947 276.143514 
L 433.644255 244.85542 
L 433.686516 273.967977 
L 433.855091 234.155608 
L 433.897118 282.446839 
L 433.981033 269.244861 
L 434.064764 239.331844 
L 434.10656 248.859775 
L 434.14831 249.625358 
L 434.190015 265.743552 
L 434.231674 243.376857 
L 434.273287 258.075303 
L 434.314854 258.559621 
L 434.356377 237.392398 
L 434.397854 262.133359 
L 434.439286 238.841601 
L 434.604563 281.055541 
L 434.64577 283.104744 
L 434.769124 226.184499 
L 434.810154 290.770067 
L 434.89208 248.94489 
L 434.932977 236.701276 
L 434.97383 287.6201 
L 435.014639 259.194413 
L 435.096126 225.404774 
L 435.177439 274.955831 
L 435.21803 256.582407 
L 435.258578 254.541159 
L 435.299083 241.025547 
L 435.339545 244.535838 
L 435.500962 270.807201 
L 435.581415 236.545785 
L 435.621577 271.863711 
L 435.701775 260.564068 
L 435.741811 242.717961 
L 435.781804 247.96634 
L 435.821756 267.568739 
L 435.861665 257.125682 
L 435.901533 251.967447 
L 435.941359 254.658118 
L 435.981143 273.938809 
L 436.060587 260.254829 
L 436.139865 270.68587 
L 436.33734 226.471162 
L 436.376712 232.794697 
L 436.416043 260.670599 
L 436.455334 255.268676 
L 436.494585 224.985027 
L 436.533794 231.598928 
L 436.69023 265.483644 
L 436.729239 250.284994 
L 436.768208 264.53259 
L 436.807136 263.939794 
L 436.846025 279.809618 
L 436.884874 227.260418 
L 436.962454 269.356791 
L 437.078527 234.321037 
L 437.117139 288.122108 
L 437.194247 268.095591 
L 437.232742 230.845504 
L 437.271198 279.985964 
L 437.309616 256.764689 
L 437.386334 240.328573 
L 437.424635 279.772555 
L 437.501122 250.577105 
L 437.615565 289.696667 
L 437.767621 246.971427 
L 437.80554 252.122149 
L 437.843422 235.883998 
L 437.881265 272.643806 
L 437.95684 262.444222 
L 438.032265 234.250518 
L 438.069921 238.52749 
L 438.10754 267.520938 
L 438.182667 254.632701 
L 438.220174 230.969868 
L 438.257645 274.950385 
L 438.295079 256.361688 
L 438.369836 264.190553 
L 438.40716 265.571148 
L 438.444447 279.691644 
L 438.518911 268.706375 
L 438.667404 237.198231 
L 438.741433 286.221111 
L 438.778394 263.570069 
L 438.815319 266.70151 
L 438.852208 265.374533 
L 438.889061 259.78623 
L 438.925879 230.471122 
L 438.999407 258.991288 
L 439.109433 240.989332 
L 439.146038 243.586958 
L 439.182608 267.692888 
L 439.219142 264.104291 
L 439.255642 239.68475 
L 439.292106 270.822597 
L 439.328536 265.642157 
L 439.36493 243.981741 
L 439.437615 244.862204 
L 439.510161 260.918396 
L 439.546383 226.661268 
L 439.618722 247.315925 
L 439.65484 286.545506 
L 439.690923 238.766734 
L 439.726973 252.238296 
L 439.762988 264.748866 
L 439.834917 264.576055 
L 439.942555 251.130532 
L 440.049889 284.392986 
L 440.0856 225.240707 
L 440.156922 254.292813 
L 440.192532 247.917942 
L 440.228109 250.418938 
L 440.405498 289.321222 
L 440.440876 239.232443 
L 440.511535 290.293094 
L 440.617277 239.749871 
L 440.722726 286.683595 
L 440.75781 262.91263 
L 440.792863 252.661698 
L 440.827883 262.928552 
L 440.93275 275.613246 
L 440.967642 271.840503 
L 441.002501 256.302564 
L 441.037329 277.394573 
L 441.072124 270.033687 
L 441.106888 267.095923 
L 441.176321 250.623138 
L 441.21099 284.054018 
L 441.34935 236.262131 
L 441.383861 284.63536 
L 441.45279 279.32063 
L 441.55595 281.358927 
L 441.624568 224.698411 
L 441.727263 275.343149 
L 441.761433 248.505578 
L 441.795573 244.816458 
L 441.829682 294.338681 
L 441.897808 241.160303 
L 441.931825 268.668667 
L 441.999769 235.51026 
L 442.033695 261.943767 
L 442.067591 272.356617 
L 442.101457 270.018124 
L 442.270335 225.123055 
L 442.4049 292.422921 
L 442.438467 248.099519 
L 442.505512 250.745639 
L 442.53899 269.491666 
L 442.605858 257.424959 
L 442.639248 251.01527 
L 442.672608 284.99959 
L 442.772515 280.475299 
L 442.838974 251.909636 
L 442.87216 284.38564 
L 442.905317 261.672464 
L 442.938445 235.159886 
L 443.004615 250.811428 
L 443.037656 287.011167 
L 443.103654 272.247709 
L 443.235306 248.54552 
L 443.300962 285.471438 
L 443.333747 267.440612 
L 443.399233 278.022498 
L 443.464606 257.304476 
L 443.49725 273.262964 
L 443.562455 258.777007 
L 443.660054 283.732405 
L 443.692531 274.368004 
L 443.724981 243.996098 
L 443.822163 254.538556 
L 443.919098 289.740718 
L 443.983584 246.5722 
L 444.015786 254.843554 
L 444.047961 281.5508 
L 444.112229 250.822321 
L 444.144322 279.952472 
L 444.176389 288.970166 
L 444.24044 296.2145 
L 444.304384 261.04233 
L 444.336316 286.972551 
L 444.368221 253.532343 
L 444.400099 260.679247 
L 444.43195 252.252725 
L 444.463775 271.150707 
L 444.495573 272.531374 
L 444.527344 279.923961 
L 444.559089 261.379936 
L 444.6225 267.01561 
" clip-path="url(#pf3de98f912)" style="fill: none; stroke: #ffa500; stroke-width: 1.5; stroke-linecap: square"/>
   </g>
   <g id="line2d_22">
    <path d="M 87.5025 54.295814 
L 178.691112 55.942887 
L 203.275687 57.309985 
L 218.082718 58.409101 
L 228.712144 59.347494 
L 237.0098 60.307459 
L 243.816911 61.27662 
L 249.588307 62.216518 
L 254.597935 63.2062 
L 262.987444 65.375335 
L 269.856167 67.55061 
L 272.875056 68.766541 
L 278.276749 71.273294 
L 280.714635 72.615095 
L 285.16626 75.45949 
L 287.210728 76.941636 
L 290.996734 80.024559 
L 294.439621 83.337696 
L 296.050791 85.115942 
L 299.081711 88.931887 
L 301.888735 92.823106 
L 304.502678 96.716283 
L 308.114686 102.901001 
L 311.413101 109.428545 
L 313.463079 113.942731 
L 317.258534 122.799344 
L 321.525099 133.570416 
L 323.872626 139.56154 
L 327.489215 148.385665 
L 329.504768 153.313005 
L 330.153552 154.79097 
L 330.79145 155.909292 
L 331.418822 157.723801 
L 333.241112 161.577156 
L 334.980036 165.183646 
L 336.096646 167.189168 
L 337.712378 170.222498 
L 341.235066 176.380102 
L 341.712684 177.072538 
L 342.184375 178.037662 
L 344.897857 181.870402 
L 345.331855 182.845488 
L 346.185265 183.682497 
L 346.604892 184.562459 
L 347.836679 186.24472 
L 348.238563 186.356853 
L 348.636242 187.273006 
L 350.564537 189.719512 
L 350.938732 190.102805 
L 352.039711 191.631223 
L 353.109702 192.70559 
L 353.806657 193.791543 
L 354.491064 194.57251 
L 354.828703 194.790303 
L 355.163369 195.404217 
L 355.495114 195.773774 
L 355.82399 195.726021 
L 356.150046 196.54036 
L 357.111762 197.538379 
L 357.739651 198.194218 
L 358.049749 198.157238 
L 358.357339 198.847452 
L 358.96515 199.419441 
L 359.859028 200.408454 
L 360.443479 200.743684 
L 361.303647 201.826077 
L 363.773205 203.926222 
L 364.037954 204.08188 
L 364.300872 204.589466 
L 364.821316 205.05011 
L 365.07889 204.987283 
L 365.334731 205.503684 
L 365.841305 205.886141 
L 366.092083 205.963707 
L 366.588731 206.559967 
L 366.834642 206.5281 
L 367.321745 207.136137 
L 368.040893 207.731967 
L 368.277617 207.763046 
L 368.746689 208.231932 
L 368.979073 208.248487 
L 369.210044 208.608059 
L 369.439621 208.630323 
L 369.894657 209.113876 
L 370.120149 208.786531 
L 370.344311 209.291871 
L 372.09156 210.7099 
L 372.516108 210.900005 
L 372.935966 211.235569 
L 373.14417 211.330956 
L 373.351239 210.994915 
L 373.762024 211.641102 
L 374.168418 212.056621 
L 374.570514 212.314833 
L 375.362168 212.810857 
L 375.557533 212.934886 
L 375.751898 212.291685 
L 376.137673 213.276135 
L 376.897675 213.761887 
L 377.085325 213.756798 
L 377.457869 214.087298 
L 378.373564 214.590535 
L 378.554086 214.423148 
L 379.090564 215.038638 
L 379.267721 215.011071 
L 379.619577 215.341737 
L 380.995315 216.066423 
L 381.163834 216.037111 
L 381.33161 216.321935 
L 381.664955 216.49594 
L 381.830538 216.091792 
L 382.159556 216.787405 
L 382.647806 216.955653 
L 382.969856 217.192198 
L 383.129864 217.149509 
L 383.289201 217.408533 
L 383.447873 217.011218 
L 383.605886 217.511159 
L 384.076021 217.655016 
L 384.386246 217.975339 
L 384.69396 218.11891 
L 384.846887 218.041439 
L 385.302014 218.437154 
L 385.751757 218.670116 
L 385.900497 218.757883 
L 386.048657 218.400079 
L 386.196242 218.922069 
L 386.489704 219.059453 
L 386.635589 218.876752 
L 386.780918 219.217548 
L 387.356738 219.395279 
L 387.64141 219.641618 
L 388.064461 219.91242 
L 388.204439 219.81364 
L 388.482857 220.148487 
L 388.621305 220.12436 
L 388.896698 220.351469 
L 389.17011 220.481184 
L 389.306082 220.277868 
L 389.576577 220.689565 
L 389.84516 220.813905 
L 389.978743 220.516062 
L 390.111859 220.961346 
L 390.24451 220.872886 
L 390.508432 221.124266 
L 391.030843 221.463437 
L 391.417993 221.026275 
L 391.546171 221.679486 
L 391.67392 221.57084 
L 391.928135 221.896514 
L 392.431523 222.075296 
L 392.556335 221.899906 
L 392.804737 222.320847 
L 392.928333 222.399226 
L 393.051527 222.156565 
L 393.296725 222.572849 
L 393.418734 222.541387 
L 393.661582 222.694251 
L 393.782427 222.593823 
L 394.022971 222.937317 
L 394.142674 222.852752 
L 395.203376 223.537448 
L 395.319426 223.470942 
L 395.550468 223.598196 
L 395.665464 223.46141 
L 395.894419 223.881515 
L 396.235286 224.022172 
L 396.348233 223.984213 
L 396.573124 224.282749 
L 396.685073 224.170162 
L 396.907987 224.400687 
L 397.129601 224.576173 
L 397.239925 224.455177 
L 397.349931 224.650658 
L 397.459619 224.575313 
L 397.67805 224.885148 
L 397.786796 224.28282 
L 398.003361 225.045584 
L 398.218699 225.166915 
L 398.325912 224.983713 
L 398.539436 225.353939 
L 398.64575 225.00667 
L 398.85749 225.502502 
L 399.795991 225.972224 
L 400.103746 225.74576 
L 400.20578 226.192023 
L 400.307541 225.87968 
L 400.40903 226.123344 
L 400.510249 225.896927 
L 400.711882 226.564543 
L 400.812299 226.541108 
L 401.01234 226.74311 
L 401.211335 226.28378 
L 401.310443 226.434302 
L 401.507887 226.888855 
L 401.606226 226.745619 
L 401.704311 227.105548 
L 401.802144 226.721252 
L 401.997058 227.164936 
L 402.383912 227.52692 
L 402.480014 227.237796 
L 402.671491 227.543857 
L 402.86201 227.772782 
L 402.956912 227.55131 
L 403.146008 227.9594 
L 403.240205 227.996427 
L 403.334169 227.850061 
L 403.614676 228.224778 
L 403.800537 227.891245 
L 403.985494 228.512254 
L 404.077636 228.175616 
L 404.169555 228.631984 
L 404.261253 228.564905 
L 404.35273 228.706851 
L 404.443987 228.629619 
L 404.897017 228.986109 
L 404.986978 228.704725 
L 405.076728 229.177911 
L 405.166266 229.110043 
L 405.344711 229.347974 
L 405.433621 229.251846 
L 405.522324 229.487531 
L 405.610819 229.441617 
L 405.69911 229.276977 
L 405.875078 229.672214 
L 406.224589 229.811437 
L 406.311467 229.542595 
L 406.48463 229.963441 
L 406.570916 230.096763 
L 406.657007 229.628355 
L 406.742904 230.18527 
L 406.828607 230.080829 
L 406.999435 230.355238 
L 407.169499 230.270935 
L 407.591361 230.731173 
L 407.675175 230.337417 
L 407.84225 230.890702 
L 407.925512 230.732583 
L 408.008593 231.005797 
L 408.091493 229.774888 
L 408.256752 231.165373 
L 408.503302 231.250823 
L 408.585131 231.239404 
L 408.666784 231.396089 
L 408.748263 230.959644 
L 408.910697 231.388015 
L 408.991655 231.265012 
L 409.072441 231.232619 
L 409.2335 231.826109 
L 409.553584 232.001164 
L 409.633186 232.019463 
L 409.791891 232.145595 
L 409.870996 231.940009 
L 410.028714 232.38988 
L 410.420169 232.714479 
L 410.497979 232.670763 
L 410.807635 232.979189 
L 410.884656 232.75067 
L 411.038233 233.088503 
L 411.114789 232.915334 
L 411.267441 233.343442 
L 411.570917 233.464964 
L 411.646409 233.214778 
L 411.796945 233.685169 
L 411.87199 233.380565 
L 411.946887 233.586963 
L 412.021637 233.364488 
L 412.170698 233.926062 
L 412.245009 233.81037 
L 412.393198 234.071472 
L 412.467076 233.748785 
L 412.540812 234.146148 
L 412.614404 234.121161 
L 412.83433 234.342919 
L 412.907357 234.196673 
L 412.980244 233.957691 
L 413.342597 234.65101 
L 413.414655 234.207112 
L 413.486577 234.778361 
L 413.558363 234.76613 
L 413.630013 234.909868 
L 413.772911 234.737631 
L 413.915273 235.16366 
L 414.057104 235.250472 
L 414.339189 235.40988 
L 414.409384 235.350326 
L 414.549388 235.51284 
L 414.619196 235.338095 
L 414.688877 235.600249 
L 414.75843 234.568738 
L 414.897156 235.892932 
L 415.035378 235.68147 
L 415.241772 236.124174 
L 415.310322 235.729797 
L 415.378749 236.229738 
L 415.447053 235.885169 
L 415.65123 236.20917 
L 415.719047 235.659421 
L 415.786742 236.570772 
L 415.854317 236.475695 
L 415.989109 236.707105 
L 416.056325 236.717592 
L 416.190403 236.256278 
L 416.390638 236.985192 
L 416.457149 236.958246 
L 416.523544 237.099475 
L 416.589824 236.346554 
L 416.655988 236.986482 
L 416.722037 236.814938 
L 416.787971 236.785435 
L 417.181195 237.636109 
L 417.246338 237.625216 
L 417.31137 237.262252 
L 417.441102 237.797071 
L 417.699244 237.726241 
L 417.827661 238.064122 
L 417.891708 238.06847 
L 417.955646 237.52013 
L 418.083201 238.344144 
L 418.146819 238.373695 
L 418.21033 236.251763 
L 418.273735 238.502813 
L 418.337035 238.494691 
L 418.526304 238.708565 
L 418.589185 238.298923 
L 418.714636 238.854883 
L 418.777206 238.609905 
L 418.839674 238.877912 
L 418.902039 238.351192 
L 418.964302 238.485828 
L 419.150482 239.154805 
L 419.21234 239.017278 
L 419.397312 239.390299 
L 419.458769 239.371403 
L 419.520128 238.464018 
L 419.703612 239.626319 
L 419.764577 239.708591 
L 419.825444 239.448229 
L 419.886215 239.50561 
L 420.067944 240.00094 
L 420.128329 239.270307 
L 420.24881 240.114531 
L 420.36891 239.906389 
L 420.428819 240.19525 
L 420.488633 240.176856 
L 420.548353 239.87347 
L 420.726952 240.463735 
L 420.786299 240.255904 
L 420.845554 240.631457 
L 420.904717 240.388892 
L 420.963787 240.449712 
L 421.081654 240.824596 
L 421.257771 239.845473 
L 421.374731 241.09695 
L 421.433076 240.850635 
L 421.491332 241.198047 
L 421.549499 241.011142 
L 421.607577 241.079536 
L 421.78128 241.460416 
L 421.954193 241.569897 
L 422.011657 241.309177 
L 422.069034 241.340161 
L 422.126324 241.81079 
L 422.183528 241.758857 
L 422.240646 241.582105 
L 422.354625 241.999511 
L 422.411487 241.638076 
L 422.468264 241.780571 
L 422.524956 242.150367 
L 422.581564 241.156361 
L 422.638088 242.255143 
L 422.694528 241.775125 
L 422.975476 242.474655 
L 423.031418 242.376927 
L 423.254364 242.811796 
L 423.365349 242.894546 
L 423.42072 242.715023 
L 423.47601 242.884417 
L 423.696372 243.125262 
L 423.860809 243.309013 
L 423.915464 243.246162 
L 424.187565 243.633421 
L 424.241752 242.996717 
L 424.403852 243.814855 
L 424.565264 243.594674 
L 424.618916 243.205862 
L 424.725994 244.060812 
L 424.779419 243.965855 
L 424.939248 244.263388 
L 424.992375 244.125694 
L 425.045428 244.296474 
L 425.098407 244.292723 
L 425.256903 244.531371 
L 425.362201 244.646036 
L 425.467208 244.287205 
L 425.519603 243.098626 
L 425.571926 244.810461 
L 425.676356 244.653179 
L 425.832466 245.060934 
L 425.88436 245.148892 
L 425.936184 242.774362 
L 425.987937 245.180592 
L 426.091232 245.245497 
L 426.142775 244.603968 
L 426.296984 245.379178 
L 426.399444 245.582016 
L 426.450571 245.476524 
L 426.552619 245.750575 
L 426.654393 245.479606 
L 426.705178 245.919706 
L 426.755896 245.888125 
L 426.806546 245.736647 
L 426.958092 246.118077 
L 427.008473 246.204028 
L 427.058788 245.396235 
L 427.109036 246.270869 
L 427.159218 246.210383 
L 427.309368 246.381664 
L 427.359286 246.295641 
L 427.458926 246.561522 
L 427.558306 245.724249 
L 427.706891 246.834712 
L 427.805626 246.516492 
L 427.904105 247.030049 
L 427.953249 246.93815 
L 428.002329 246.608726 
L 428.149192 247.258329 
L 428.19802 246.988531 
L 428.246786 247.199157 
L 428.441226 247.485582 
L 428.489681 247.451588 
L 428.538075 247.18855 
L 428.634677 247.164112 
L 428.682886 247.632162 
L 428.731034 247.794103 
L 428.779122 247.733952 
L 428.875114 247.394279 
L 429.01865 247.989942 
L 429.066375 247.441197 
L 429.11404 248.004132 
L 429.161646 247.939943 
L 429.209192 248.03041 
L 429.304106 248.308951 
L 429.351474 248.244691 
L 429.398784 248.167721 
L 429.493226 248.490003 
L 429.540359 247.852869 
L 429.587434 248.610163 
L 429.634451 248.668188 
L 429.728311 248.116695 
L 429.868667 248.903897 
L 430.240437 249.154059 
L 430.286654 248.931823 
L 430.332814 249.160389 
L 430.378919 247.789206 
L 430.424967 249.092044 
L 430.56278 249.539048 
L 430.654378 249.492441 
L 430.700094 248.856789 
L 430.745756 249.671415 
L 430.791363 249.642199 
L 430.973245 249.914864 
L 431.01858 248.932229 
L 431.06386 249.651086 
L 431.19938 250.067011 
L 431.244446 250.142642 
L 431.289459 249.657058 
L 431.334419 250.117846 
L 431.468979 250.338385 
L 431.513727 250.011756 
L 431.558422 250.329833 
L 431.603065 250.267795 
L 431.692194 250.577869 
L 431.73668 250.303221 
L 431.781114 250.607109 
L 431.825496 250.440724 
L 431.869827 250.810903 
L 431.914106 250.7771 
L 431.958333 249.906885 
L 432.002509 250.90801 
L 432.046634 250.88049 
L 432.090707 250.56485 
L 432.134729 251.007912 
L 432.178701 250.967707 
L 432.222622 251.165362 
L 432.266492 250.172025 
L 432.310311 251.262613 
L 432.35408 251.306042 
L 432.397799 251.16271 
L 432.441468 251.376776 
L 432.528655 251.410961 
L 432.572173 251.551354 
L 432.615642 251.350547 
L 432.659061 251.378616 
L 432.789022 251.708661 
L 432.875416 251.763748 
L 432.91854 251.898958 
L 433.047618 250.486925 
L 433.090547 252.055882 
L 433.176259 251.951107 
L 433.304467 252.209988 
L 433.432244 251.891743 
L 433.51719 252.442782 
L 433.559592 252.270187 
L 433.601947 252.033929 
L 433.686516 252.561533 
L 433.72873 252.418105 
L 433.855091 252.767429 
L 433.897118 252.706632 
L 434.022922 252.870174 
L 434.064764 252.8809 
L 434.10656 252.160849 
L 434.190015 252.517004 
L 434.314854 253.20956 
L 434.356377 253.11465 
L 434.397854 252.518485 
L 434.439286 252.540105 
L 434.522014 253.42052 
L 434.563311 253.337268 
L 434.604563 253.231179 
L 434.769124 253.688813 
L 434.810154 253.659741 
L 434.851139 253.331607 
L 434.89208 253.692779 
L 434.932977 253.588481 
L 434.97383 253.806584 
L 435.096126 252.454775 
L 435.21803 254.128866 
L 435.339545 254.232495 
L 435.379963 254.261161 
L 435.500962 253.518511 
L 435.661697 254.496058 
L 435.701775 254.494266 
L 435.781804 254.639843 
L 435.821756 254.146137 
L 435.861665 254.706385 
L 435.941359 254.771876 
L 435.981143 254.584517 
L 436.100246 253.382179 
L 436.060587 254.690953 
L 436.139865 253.603316 
L 436.218978 255.094922 
L 436.258473 254.893087 
L 436.416043 255.283833 
L 436.494585 255.349885 
L 436.533794 255.049163 
L 436.572964 255.425815 
L 436.612093 255.382159 
L 436.651182 255.490661 
L 436.69023 254.746279 
L 436.729239 255.41319 
L 436.846025 255.696127 
L 436.923684 255.319845 
L 437.001184 255.862189 
L 437.039875 255.64018 
L 437.078527 255.570544 
L 437.117139 255.727851 
L 437.309616 256.130219 
L 437.347994 256.065015 
L 437.386334 255.349658 
L 437.424635 256.112745 
L 437.501122 256.375603 
L 437.539308 255.815892 
L 437.577455 255.914481 
L 437.615565 256.497853 
L 437.691669 256.465305 
L 437.80554 256.259313 
L 437.95684 256.776347 
L 437.994571 256.759087 
L 438.032265 256.898059 
L 438.069921 255.469197 
L 438.10754 256.593921 
L 438.182667 257.093194 
L 438.220174 257.088308 
L 438.257645 256.725643 
L 438.295079 257.181008 
L 438.332476 257.218979 
L 438.369836 256.885279 
L 438.40716 257.321449 
L 438.444447 257.094806 
L 438.556089 257.414794 
L 438.630335 257.256353 
L 438.704437 257.209328 
L 438.741433 257.618922 
L 438.778394 257.378089 
L 438.852208 257.519868 
L 438.889061 257.696787 
L 438.925879 256.94684 
L 438.962661 257.790944 
L 439.036118 257.86095 
L 439.109433 257.89013 
L 439.182608 257.052392 
L 439.255642 258.061579 
L 439.328536 257.979665 
L 439.40129 258.223114 
L 439.437615 257.750167 
L 439.473906 258.232347 
L 439.510161 258.146085 
L 439.582569 258.350213 
L 439.65484 258.324163 
L 439.690923 258.329872 
L 439.726973 258.127547 
L 439.762988 258.52454 
L 439.834917 258.399854 
L 439.87083 257.93338 
L 439.906709 258.751685 
L 439.942555 258.800526 
L 439.978367 258.002669 
L 440.014145 258.819362 
L 440.049889 258.731619 
L 440.0856 258.865849 
L 440.121278 258.020395 
L 440.156922 259.025353 
L 440.192532 258.505226 
L 440.334642 259.263045 
L 440.370086 259.199979 
L 440.405498 256.549775 
L 440.440876 259.342642 
L 440.476222 259.049851 
L 440.617277 259.467795 
L 440.687609 259.319279 
L 440.827883 259.634645 
L 440.862871 259.626917 
L 440.897826 259.010722 
L 440.93275 259.568473 
L 441.037329 259.828943 
L 441.072124 259.320533 
L 441.14162 259.378153 
L 441.280233 260.046545 
L 441.314807 259.40695 
L 441.383861 260.131958 
L 441.418341 260.015346 
L 441.45279 260.101691 
L 441.624568 260.35159 
L 441.693062 260.301747 
L 441.795573 260.584301 
L 441.829682 260.156683 
L 441.897808 260.604738 
L 441.931825 260.674135 
L 441.965812 260.644895 
L 441.999769 260.305557 
L 442.067591 260.516171 
L 442.135293 260.926351 
L 442.169099 259.514413 
L 442.23662 261.062289 
L 442.505512 261.186701 
L 442.672608 261.413834 
L 442.70594 261.089283 
L 442.772515 261.490708 
L 442.805759 261.41768 
L 442.838974 259.401922 
L 442.87216 261.5618 
L 442.905317 261.117711 
L 442.971544 261.658047 
L 443.004615 261.411553 
L 443.037656 261.286854 
L 443.169537 261.909404 
L 443.202436 260.511584 
L 443.268148 262.038808 
L 443.333747 262.109184 
L 443.366504 261.405234 
L 443.49725 262.247045 
L 443.529867 262.002426 
L 443.595016 262.28221 
L 443.627549 262.314734 
L 443.660054 261.61168 
L 443.724981 261.732676 
L 443.854502 262.58292 
L 443.886814 262.599618 
L 443.951355 262.411901 
L 443.983584 262.608325 
L 444.015786 262.552736 
L 444.047961 262.702805 
L 444.080109 262.650094 
L 444.144322 262.85316 
L 444.176389 262.742543 
L 444.208428 261.812392 
L 444.272426 263.012987 
L 444.400099 262.84671 
L 444.495573 263.187541 
L 444.527344 262.550061 
L 444.590808 263.269371 
L 444.6225 263.323981 
L 444.6225 263.323981 
" clip-path="url(#pf3de98f912)" style="fill: none; stroke: #008000; stroke-width: 1.5; stroke-linecap: square"/>
   </g>
   <g id="patch_3">
    <path d="M 87.5025 308.3105 
L 87.5025 42.1985 
" style="fill: none; stroke: #000000; stroke-width: 0.8; stroke-linejoin: miter; stroke-linecap: square"/>
   </g>
   <g id="patch_4">
    <path d="M 444.6225 308.3105 
L 444.6225 42.1985 
" style="fill: none; stroke: #000000; stroke-width: 0.8; stroke-linejoin: miter; stroke-linecap: square"/>
   </g>
   <g id="patch_5">
    <path d="M 87.5025 308.3105 
L 444.6225 308.3105 
" style="fill: none; stroke: #000000; stroke-width: 0.8; stroke-linejoin: miter; stroke-linecap: square"/>
   </g>
   <g id="patch_6">
    <path d="M 87.5025 42.1985 
L 444.6225 42.1985 
" style="fill: none; stroke: #000000; stroke-width: 0.8; stroke-linejoin: miter; stroke-linecap: square"/>
   </g>
   <g id="text_13">
    <!-- Loss of the CIFAR10_model_(3072+2048-2048+1)_save_4 -->
    <g transform="translate(7.2 22.1985) scale(0.216 -0.216)">
     <defs>
      <path id="TimesNewRomanPSMT-20" transform="scale(0.015625)"/>
      <path id="TimesNewRomanPSMT-66" d="M 1319 2638 
L 1319 756 
Q 1319 356 1406 250 
Q 1522 113 1716 113 
L 1975 113 
L 1975 0 
L 266 0 
L 266 113 
L 394 113 
Q 519 113 622 175 
Q 725 238 764 344 
Q 803 450 803 756 
L 803 2638 
L 247 2638 
L 247 2863 
L 803 2863 
L 803 3050 
Q 803 3478 940 3775 
Q 1078 4072 1361 4255 
Q 1644 4438 1997 4438 
Q 2325 4438 2600 4225 
Q 2781 4084 2781 3909 
Q 2781 3816 2700 3733 
Q 2619 3650 2525 3650 
Q 2453 3650 2373 3701 
Q 2294 3753 2178 3923 
Q 2063 4094 1966 4153 
Q 1869 4213 1750 4213 
Q 1606 4213 1506 4136 
Q 1406 4059 1362 3898 
Q 1319 3738 1319 3069 
L 1319 2863 
L 2056 2863 
L 2056 2638 
L 1319 2638 
z
" transform="scale(0.015625)"/>
      <path id="TimesNewRomanPSMT-74" d="M 1031 3803 
L 1031 2863 
L 1700 2863 
L 1700 2644 
L 1031 2644 
L 1031 788 
Q 1031 509 1111 412 
Q 1191 316 1316 316 
Q 1419 316 1516 380 
Q 1613 444 1666 569 
L 1788 569 
Q 1678 263 1478 108 
Q 1278 -47 1066 -47 
Q 922 -47 784 33 
Q 647 113 581 261 
Q 516 409 516 719 
L 516 2644 
L 63 2644 
L 63 2747 
Q 234 2816 414 2980 
Q 594 3144 734 3369 
Q 806 3488 934 3803 
L 1031 3803 
z
" transform="scale(0.015625)"/>
      <path id="TimesNewRomanPSMT-68" d="M 1041 4444 
L 1041 2350 
Q 1388 2731 1591 2839 
Q 1794 2947 1997 2947 
Q 2241 2947 2416 2812 
Q 2591 2678 2675 2391 
Q 2734 2191 2734 1659 
L 2734 647 
Q 2734 375 2778 275 
Q 2809 200 2884 156 
Q 2959 113 3159 113 
L 3159 0 
L 1753 0 
L 1753 113 
L 1819 113 
Q 2019 113 2097 173 
Q 2175 234 2206 353 
Q 2216 403 2216 647 
L 2216 1659 
Q 2216 2128 2167 2275 
Q 2119 2422 2012 2495 
Q 1906 2569 1756 2569 
Q 1603 2569 1437 2487 
Q 1272 2406 1041 2159 
L 1041 647 
Q 1041 353 1073 281 
Q 1106 209 1195 161 
Q 1284 113 1503 113 
L 1503 0 
L 84 0 
L 84 113 
Q 275 113 384 172 
Q 447 203 484 290 
Q 522 378 522 647 
L 522 3238 
Q 522 3728 498 3840 
Q 475 3953 426 3993 
Q 378 4034 297 4034 
Q 231 4034 84 3984 
L 41 4094 
L 897 4444 
L 1041 4444 
z
" transform="scale(0.015625)"/>
      <path id="TimesNewRomanPSMT-65" d="M 681 1784 
Q 678 1147 991 784 
Q 1303 422 1725 422 
Q 2006 422 2214 576 
Q 2422 731 2563 1106 
L 2659 1044 
Q 2594 616 2278 264 
Q 1963 -88 1488 -88 
Q 972 -88 605 314 
Q 238 716 238 1394 
Q 238 2128 614 2539 
Q 991 2950 1559 2950 
Q 2041 2950 2350 2633 
Q 2659 2316 2659 1784 
L 681 1784 
z
M 681 1966 
L 2006 1966 
Q 1991 2241 1941 2353 
Q 1863 2528 1708 2628 
Q 1553 2728 1384 2728 
Q 1125 2728 920 2526 
Q 716 2325 681 1966 
z
" transform="scale(0.015625)"/>
      <path id="TimesNewRomanPSMT-43" d="M 3853 4334 
L 3950 2894 
L 3853 2894 
Q 3659 3541 3300 3825 
Q 2941 4109 2438 4109 
Q 2016 4109 1675 3895 
Q 1334 3681 1139 3212 
Q 944 2744 944 2047 
Q 944 1472 1128 1050 
Q 1313 628 1683 403 
Q 2053 178 2528 178 
Q 2941 178 3256 354 
Q 3572 531 3950 1056 
L 4047 994 
Q 3728 428 3303 165 
Q 2878 -97 2294 -97 
Q 1241 -97 663 684 
Q 231 1266 231 2053 
Q 231 2688 515 3219 
Q 800 3750 1298 4042 
Q 1797 4334 2388 4334 
Q 2847 4334 3294 4109 
Q 3425 4041 3481 4041 
Q 3566 4041 3628 4100 
Q 3709 4184 3744 4334 
L 3853 4334 
z
" transform="scale(0.015625)"/>
      <path id="TimesNewRomanPSMT-49" d="M 1975 116 
L 1975 0 
L 159 0 
L 159 116 
L 309 116 
Q 572 116 691 269 
Q 766 369 766 750 
L 766 3488 
Q 766 3809 725 3913 
Q 694 3991 597 4047 
Q 459 4122 309 4122 
L 159 4122 
L 159 4238 
L 1975 4238 
L 1975 4122 
L 1822 4122 
Q 1563 4122 1444 3969 
Q 1366 3869 1366 3488 
L 1366 750 
Q 1366 428 1406 325 
Q 1438 247 1538 191 
Q 1672 116 1822 116 
L 1975 116 
z
" transform="scale(0.015625)"/>
      <path id="TimesNewRomanPSMT-46" d="M 1309 4006 
L 1309 2341 
L 2081 2341 
Q 2347 2341 2470 2458 
Q 2594 2575 2634 2922 
L 2750 2922 
L 2750 1488 
L 2634 1488 
Q 2631 1734 2570 1850 
Q 2509 1966 2401 2023 
Q 2294 2081 2081 2081 
L 1309 2081 
L 1309 750 
Q 1309 428 1350 325 
Q 1381 247 1481 191 
Q 1619 116 1769 116 
L 1922 116 
L 1922 0 
L 103 0 
L 103 116 
L 253 116 
Q 516 116 634 269 
Q 709 369 709 750 
L 709 3488 
Q 709 3809 669 3913 
Q 638 3991 541 4047 
Q 406 4122 253 4122 
L 103 4122 
L 103 4238 
L 3256 4238 
L 3297 3306 
L 3188 3306 
Q 3106 3603 2998 3742 
Q 2891 3881 2733 3943 
Q 2575 4006 2244 4006 
L 1309 4006 
z
" transform="scale(0.015625)"/>
      <path id="TimesNewRomanPSMT-41" d="M 2928 1419 
L 1288 1419 
L 1000 750 
Q 894 503 894 381 
Q 894 284 986 211 
Q 1078 138 1384 116 
L 1384 0 
L 50 0 
L 50 116 
Q 316 163 394 238 
Q 553 388 747 847 
L 2238 4334 
L 2347 4334 
L 3822 809 
Q 4000 384 4145 257 
Q 4291 131 4550 116 
L 4550 0 
L 2878 0 
L 2878 116 
Q 3131 128 3220 200 
Q 3309 272 3309 375 
Q 3309 513 3184 809 
L 2928 1419 
z
M 2841 1650 
L 2122 3363 
L 1384 1650 
L 2841 1650 
z
" transform="scale(0.015625)"/>
      <path id="TimesNewRomanPSMT-52" d="M 4325 0 
L 3194 0 
L 1759 1981 
Q 1600 1975 1500 1975 
Q 1459 1975 1412 1976 
Q 1366 1978 1316 1981 
L 1316 750 
Q 1316 350 1403 253 
Q 1522 116 1759 116 
L 1925 116 
L 1925 0 
L 109 0 
L 109 116 
L 269 116 
Q 538 116 653 291 
Q 719 388 719 750 
L 719 3488 
Q 719 3888 631 3984 
Q 509 4122 269 4122 
L 109 4122 
L 109 4238 
L 1653 4238 
Q 2328 4238 2648 4139 
Q 2969 4041 3192 3777 
Q 3416 3513 3416 3147 
Q 3416 2756 3161 2468 
Q 2906 2181 2372 2063 
L 3247 847 
Q 3547 428 3762 290 
Q 3978 153 4325 116 
L 4325 0 
z
M 1316 2178 
Q 1375 2178 1419 2176 
Q 1463 2175 1491 2175 
Q 2097 2175 2405 2437 
Q 2713 2700 2713 3106 
Q 2713 3503 2464 3751 
Q 2216 4000 1806 4000 
Q 1625 4000 1316 3941 
L 1316 2178 
z
" transform="scale(0.015625)"/>
      <path id="TimesNewRomanPSMT-5f" d="M 3256 -1381 
L -53 -1381 
L -53 -1119 
L 3256 -1119 
L 3256 -1381 
z
" transform="scale(0.015625)"/>
      <path id="TimesNewRomanPSMT-6d" d="M 1050 2338 
Q 1363 2650 1419 2697 
Q 1559 2816 1721 2881 
Q 1884 2947 2044 2947 
Q 2313 2947 2506 2790 
Q 2700 2634 2766 2338 
Q 3088 2713 3309 2830 
Q 3531 2947 3766 2947 
Q 3994 2947 4170 2830 
Q 4347 2713 4450 2447 
Q 4519 2266 4519 1878 
L 4519 647 
Q 4519 378 4559 278 
Q 4591 209 4675 161 
Q 4759 113 4950 113 
L 4950 0 
L 3538 0 
L 3538 113 
L 3597 113 
Q 3781 113 3884 184 
Q 3956 234 3988 344 
Q 4000 397 4000 647 
L 4000 1878 
Q 4000 2228 3916 2372 
Q 3794 2572 3525 2572 
Q 3359 2572 3192 2489 
Q 3025 2406 2788 2181 
L 2781 2147 
L 2788 2013 
L 2788 647 
Q 2788 353 2820 281 
Q 2853 209 2943 161 
Q 3034 113 3253 113 
L 3253 0 
L 1806 0 
L 1806 113 
Q 2044 113 2133 169 
Q 2222 225 2256 338 
Q 2272 391 2272 647 
L 2272 1878 
Q 2272 2228 2169 2381 
Q 2031 2581 1784 2581 
Q 1616 2581 1450 2491 
Q 1191 2353 1050 2181 
L 1050 647 
Q 1050 366 1089 281 
Q 1128 197 1204 155 
Q 1281 113 1516 113 
L 1516 0 
L 100 0 
L 100 113 
Q 297 113 375 155 
Q 453 197 493 289 
Q 534 381 534 647 
L 534 1741 
Q 534 2213 506 2350 
Q 484 2453 437 2492 
Q 391 2531 309 2531 
Q 222 2531 100 2484 
L 53 2597 
L 916 2947 
L 1050 2947 
L 1050 2338 
z
" transform="scale(0.015625)"/>
      <path id="TimesNewRomanPSMT-64" d="M 2222 322 
Q 2013 103 1813 7 
Q 1613 -88 1381 -88 
Q 913 -88 563 304 
Q 213 697 213 1313 
Q 213 1928 600 2439 
Q 988 2950 1597 2950 
Q 1975 2950 2222 2709 
L 2222 3238 
Q 2222 3728 2198 3840 
Q 2175 3953 2125 3993 
Q 2075 4034 2000 4034 
Q 1919 4034 1784 3984 
L 1744 4094 
L 2597 4444 
L 2738 4444 
L 2738 1134 
Q 2738 631 2761 520 
Q 2784 409 2836 365 
Q 2888 322 2956 322 
Q 3041 322 3181 375 
L 3216 266 
L 2366 -88 
L 2222 -88 
L 2222 322 
z
M 2222 541 
L 2222 2016 
Q 2203 2228 2109 2403 
Q 2016 2578 1861 2667 
Q 1706 2756 1559 2756 
Q 1284 2756 1069 2509 
Q 784 2184 784 1559 
Q 784 928 1059 592 
Q 1334 256 1672 256 
Q 1956 256 2222 541 
z
" transform="scale(0.015625)"/>
      <path id="TimesNewRomanPSMT-6c" d="M 1184 4444 
L 1184 647 
Q 1184 378 1223 290 
Q 1263 203 1344 158 
Q 1425 113 1647 113 
L 1647 0 
L 244 0 
L 244 113 
Q 441 113 512 153 
Q 584 194 625 287 
Q 666 381 666 647 
L 666 3247 
Q 666 3731 644 3842 
Q 622 3953 573 3993 
Q 525 4034 450 4034 
Q 369 4034 244 3984 
L 191 4094 
L 1044 4444 
L 1184 4444 
z
" transform="scale(0.015625)"/>
      <path id="TimesNewRomanPSMT-28" d="M 1988 -1253 
L 1988 -1369 
Q 1516 -1131 1200 -813 
Q 750 -359 506 256 
Q 263 872 263 1534 
Q 263 2503 741 3301 
Q 1219 4100 1988 4444 
L 1988 4313 
Q 1603 4100 1356 3731 
Q 1109 3363 987 2797 
Q 866 2231 866 1616 
Q 866 947 969 400 
Q 1050 -31 1165 -292 
Q 1281 -553 1476 -793 
Q 1672 -1034 1988 -1253 
z
" transform="scale(0.015625)"/>
      <path id="TimesNewRomanPSMT-33" d="M 325 3431 
Q 506 3859 782 4092 
Q 1059 4325 1472 4325 
Q 1981 4325 2253 3994 
Q 2459 3747 2459 3466 
Q 2459 3003 1878 2509 
Q 2269 2356 2469 2072 
Q 2669 1788 2669 1403 
Q 2669 853 2319 450 
Q 1863 -75 997 -75 
Q 569 -75 414 31 
Q 259 138 259 259 
Q 259 350 332 419 
Q 406 488 509 488 
Q 588 488 669 463 
Q 722 447 909 348 
Q 1097 250 1169 231 
Q 1284 197 1416 197 
Q 1734 197 1970 444 
Q 2206 691 2206 1028 
Q 2206 1275 2097 1509 
Q 2016 1684 1919 1775 
Q 1784 1900 1550 2001 
Q 1316 2103 1072 2103 
L 972 2103 
L 972 2197 
Q 1219 2228 1467 2375 
Q 1716 2522 1828 2728 
Q 1941 2934 1941 3181 
Q 1941 3503 1739 3701 
Q 1538 3900 1238 3900 
Q 753 3900 428 3381 
L 325 3431 
z
" transform="scale(0.015625)"/>
      <path id="TimesNewRomanPSMT-37" d="M 644 4238 
L 2916 4238 
L 2916 4119 
L 1503 -88 
L 1153 -88 
L 2419 3728 
L 1253 3728 
Q 900 3728 750 3644 
Q 488 3500 328 3200 
L 238 3234 
L 644 4238 
z
" transform="scale(0.015625)"/>
      <path id="TimesNewRomanPSMT-2b" d="M 1672 441 
L 1672 2000 
L 116 2000 
L 116 2256 
L 1672 2256 
L 1672 3809 
L 1922 3809 
L 1922 2256 
L 3484 2256 
L 3484 2000 
L 1922 2000 
L 1922 441 
L 1672 441 
z
" transform="scale(0.015625)"/>
      <path id="TimesNewRomanPSMT-2d" d="M 259 1672 
L 1875 1672 
L 1875 1200 
L 259 1200 
L 259 1672 
z
" transform="scale(0.015625)"/>
      <path id="TimesNewRomanPSMT-29" d="M 144 4313 
L 144 4444 
Q 619 4209 934 3891 
Q 1381 3434 1625 2820 
Q 1869 2206 1869 1541 
Q 1869 572 1392 -226 
Q 916 -1025 144 -1369 
L 144 -1253 
Q 528 -1038 776 -670 
Q 1025 -303 1145 264 
Q 1266 831 1266 1447 
Q 1266 2113 1163 2663 
Q 1084 3094 967 3353 
Q 850 3613 656 3853 
Q 463 4094 144 4313 
z
" transform="scale(0.015625)"/>
      <path id="TimesNewRomanPSMT-61" d="M 1822 413 
Q 1381 72 1269 19 
Q 1100 -59 909 -59 
Q 613 -59 420 144 
Q 228 347 228 678 
Q 228 888 322 1041 
Q 450 1253 767 1440 
Q 1084 1628 1822 1897 
L 1822 2009 
Q 1822 2438 1686 2597 
Q 1550 2756 1291 2756 
Q 1094 2756 978 2650 
Q 859 2544 859 2406 
L 866 2225 
Q 866 2081 792 2003 
Q 719 1925 600 1925 
Q 484 1925 411 2006 
Q 338 2088 338 2228 
Q 338 2497 613 2722 
Q 888 2947 1384 2947 
Q 1766 2947 2009 2819 
Q 2194 2722 2281 2516 
Q 2338 2381 2338 1966 
L 2338 994 
Q 2338 584 2353 492 
Q 2369 400 2405 369 
Q 2441 338 2488 338 
Q 2538 338 2575 359 
Q 2641 400 2828 588 
L 2828 413 
Q 2478 -56 2159 -56 
Q 2006 -56 1915 50 
Q 1825 156 1822 413 
z
M 1822 616 
L 1822 1706 
Q 1350 1519 1213 1441 
Q 966 1303 859 1153 
Q 753 1003 753 825 
Q 753 600 887 451 
Q 1022 303 1197 303 
Q 1434 303 1822 616 
z
" transform="scale(0.015625)"/>
      <path id="TimesNewRomanPSMT-76" d="M 53 2863 
L 1400 2863 
L 1400 2747 
L 1313 2747 
Q 1191 2747 1127 2687 
Q 1063 2628 1063 2528 
Q 1063 2419 1128 2269 
L 1794 688 
L 2463 2328 
Q 2534 2503 2534 2594 
Q 2534 2638 2509 2666 
Q 2475 2713 2422 2730 
Q 2369 2747 2206 2747 
L 2206 2863 
L 3141 2863 
L 3141 2747 
Q 2978 2734 2916 2681 
Q 2806 2588 2719 2369 
L 1703 -88 
L 1575 -88 
L 553 2328 
Q 484 2497 421 2570 
Q 359 2644 263 2694 
Q 209 2722 53 2747 
L 53 2863 
z
" transform="scale(0.015625)"/>
     </defs>
     <use xlink:href="#TimesNewRomanPSMT-4c"/>
     <use xlink:href="#TimesNewRomanPSMT-6f" transform="translate(61.083984 0)"/>
     <use xlink:href="#TimesNewRomanPSMT-73" transform="translate(111.083984 0)"/>
     <use xlink:href="#TimesNewRomanPSMT-73" transform="translate(150 0)"/>
     <use xlink:href="#TimesNewRomanPSMT-20" transform="translate(188.916016 0)"/>
     <use xlink:href="#TimesNewRomanPSMT-6f" transform="translate(213.916016 0)"/>
     <use xlink:href="#TimesNewRomanPSMT-66" transform="translate(263.916016 0)"/>
     <use xlink:href="#TimesNewRomanPSMT-20" transform="translate(297.216797 0)"/>
     <use xlink:href="#TimesNewRomanPSMT-74" transform="translate(322.216797 0)"/>
     <use xlink:href="#TimesNewRomanPSMT-68" transform="translate(350 0)"/>
     <use xlink:href="#TimesNewRomanPSMT-65" transform="translate(400 0)"/>
     <use xlink:href="#TimesNewRomanPSMT-20" transform="translate(444.384766 0)"/>
     <use xlink:href="#TimesNewRomanPSMT-43" transform="translate(469.384766 0)"/>
     <use xlink:href="#TimesNewRomanPSMT-49" transform="translate(536.083984 0)"/>
     <use xlink:href="#TimesNewRomanPSMT-46" transform="translate(569.384766 0)"/>
     <use xlink:href="#TimesNewRomanPSMT-41" transform="translate(617.625 0)"/>
     <use xlink:href="#TimesNewRomanPSMT-52" transform="translate(689.841797 0)"/>
     <use xlink:href="#TimesNewRomanPSMT-31" transform="translate(756.541016 0)"/>
     <use xlink:href="#TimesNewRomanPSMT-30" transform="translate(806.541016 0)"/>
     <use xlink:href="#TimesNewRomanPSMT-5f" transform="translate(856.541016 0)"/>
     <use xlink:href="#TimesNewRomanPSMT-6d" transform="translate(906.541016 0)"/>
     <use xlink:href="#TimesNewRomanPSMT-6f" transform="translate(984.324219 0)"/>
     <use xlink:href="#TimesNewRomanPSMT-64" transform="translate(1034.324219 0)"/>
     <use xlink:href="#TimesNewRomanPSMT-65" transform="translate(1084.324219 0)"/>
     <use xlink:href="#TimesNewRomanPSMT-6c" transform="translate(1128.708984 0)"/>
     <use xlink:href="#TimesNewRomanPSMT-5f" transform="translate(1156.492188 0)"/>
     <use xlink:href="#TimesNewRomanPSMT-28" transform="translate(1206.492188 0)"/>
     <use xlink:href="#TimesNewRomanPSMT-33" transform="translate(1239.792969 0)"/>
     <use xlink:href="#TimesNewRomanPSMT-30" transform="translate(1289.792969 0)"/>
     <use xlink:href="#TimesNewRomanPSMT-37" transform="translate(1339.792969 0)"/>
     <use xlink:href="#TimesNewRomanPSMT-32" transform="translate(1389.792969 0)"/>
     <use xlink:href="#TimesNewRomanPSMT-2b" transform="translate(1439.792969 0)"/>
     <use xlink:href="#TimesNewRomanPSMT-32" transform="translate(1496.189453 0)"/>
     <use xlink:href="#TimesNewRomanPSMT-30" transform="translate(1546.189453 0)"/>
     <use xlink:href="#TimesNewRomanPSMT-34" transform="translate(1596.189453 0)"/>
     <use xlink:href="#TimesNewRomanPSMT-38" transform="translate(1646.189453 0)"/>
     <use xlink:href="#TimesNewRomanPSMT-2d" transform="translate(1696.189453 0)"/>
     <use xlink:href="#TimesNewRomanPSMT-32" transform="translate(1729.490234 0)"/>
     <use xlink:href="#TimesNewRomanPSMT-30" transform="translate(1779.490234 0)"/>
     <use xlink:href="#TimesNewRomanPSMT-34" transform="translate(1829.490234 0)"/>
     <use xlink:href="#TimesNewRomanPSMT-38" transform="translate(1879.490234 0)"/>
     <use xlink:href="#TimesNewRomanPSMT-2b" transform="translate(1929.490234 0)"/>
     <use xlink:href="#TimesNewRomanPSMT-31" transform="translate(1985.886719 0)"/>
     <use xlink:href="#TimesNewRomanPSMT-29" transform="translate(2035.886719 0)"/>
     <use xlink:href="#TimesNewRomanPSMT-5f" transform="translate(2069.1875 0)"/>
     <use xlink:href="#TimesNewRomanPSMT-73" transform="translate(2119.1875 0)"/>
     <use xlink:href="#TimesNewRomanPSMT-61" transform="translate(2158.103516 0)"/>
     <use xlink:href="#TimesNewRomanPSMT-76" transform="translate(2202.488281 0)"/>
     <use xlink:href="#TimesNewRomanPSMT-65" transform="translate(2252.488281 0)"/>
     <use xlink:href="#TimesNewRomanPSMT-5f" transform="translate(2296.873047 0)"/>
     <use xlink:href="#TimesNewRomanPSMT-34" transform="translate(2346.873047 0)"/>
    </g>
   </g>
   <g id="legend_1">
    <g id="patch_7">
     <path d="M 100.1025 299.3105 
L 264.195 299.3105 
Q 267.795 299.3105 267.795 295.7105 
L 267.795 246.576125 
Q 267.795 242.976125 264.195 242.976125 
L 100.1025 242.976125 
Q 96.5025 242.976125 96.5025 246.576125 
L 96.5025 295.7105 
Q 96.5025 299.3105 100.1025 299.3105 
z
" style="fill: #ffffff; opacity: 0.8; stroke: #cccccc; stroke-linejoin: miter"/>
    </g>
    <g id="line2d_23">
     <path d="M 103.7025 256.476125 
L 121.7025 256.476125 
L 139.7025 256.476125 
" style="fill: none; stroke: #ffa500; stroke-width: 1.5; stroke-linecap: square"/>
    </g>
    <g id="text_14">
     <!-- Training loss -->
     <g transform="translate(154.1025 262.776125) scale(0.18 -0.18)">
      <defs>
       <path id="TimesNewRomanPSMT-54" d="M 3703 4238 
L 3750 3244 
L 3631 3244 
Q 3597 3506 3538 3619 
Q 3441 3800 3280 3886 
Q 3119 3972 2856 3972 
L 2259 3972 
L 2259 734 
Q 2259 344 2344 247 
Q 2463 116 2709 116 
L 2856 116 
L 2856 0 
L 1059 0 
L 1059 116 
L 1209 116 
Q 1478 116 1591 278 
Q 1659 378 1659 734 
L 1659 3972 
L 1150 3972 
Q 853 3972 728 3928 
Q 566 3869 450 3700 
Q 334 3531 313 3244 
L 194 3244 
L 244 4238 
L 3703 4238 
z
" transform="scale(0.015625)"/>
       <path id="TimesNewRomanPSMT-72" d="M 1038 2947 
L 1038 2303 
Q 1397 2947 1775 2947 
Q 1947 2947 2059 2842 
Q 2172 2738 2172 2600 
Q 2172 2478 2090 2393 
Q 2009 2309 1897 2309 
Q 1788 2309 1652 2417 
Q 1516 2525 1450 2525 
Q 1394 2525 1328 2463 
Q 1188 2334 1038 2041 
L 1038 669 
Q 1038 431 1097 309 
Q 1138 225 1241 169 
Q 1344 113 1538 113 
L 1538 0 
L 72 0 
L 72 113 
Q 291 113 397 181 
Q 475 231 506 341 
Q 522 394 522 644 
L 522 1753 
Q 522 2253 501 2348 
Q 481 2444 426 2487 
Q 372 2531 291 2531 
Q 194 2531 72 2484 
L 41 2597 
L 906 2947 
L 1038 2947 
z
" transform="scale(0.015625)"/>
       <path id="TimesNewRomanPSMT-69" d="M 928 4444 
Q 1059 4444 1151 4351 
Q 1244 4259 1244 4128 
Q 1244 3997 1151 3903 
Q 1059 3809 928 3809 
Q 797 3809 703 3903 
Q 609 3997 609 4128 
Q 609 4259 701 4351 
Q 794 4444 928 4444 
z
M 1188 2947 
L 1188 647 
Q 1188 378 1227 289 
Q 1266 200 1342 156 
Q 1419 113 1622 113 
L 1622 0 
L 231 0 
L 231 113 
Q 441 113 512 153 
Q 584 194 626 287 
Q 669 381 669 647 
L 669 1750 
Q 669 2216 641 2353 
Q 619 2453 572 2492 
Q 525 2531 444 2531 
Q 356 2531 231 2484 
L 188 2597 
L 1050 2947 
L 1188 2947 
z
" transform="scale(0.015625)"/>
       <path id="TimesNewRomanPSMT-6e" d="M 1034 2341 
Q 1538 2947 1994 2947 
Q 2228 2947 2397 2830 
Q 2566 2713 2666 2444 
Q 2734 2256 2734 1869 
L 2734 647 
Q 2734 375 2778 278 
Q 2813 200 2889 156 
Q 2966 113 3172 113 
L 3172 0 
L 1756 0 
L 1756 113 
L 1816 113 
Q 2016 113 2095 173 
Q 2175 234 2206 353 
Q 2219 400 2219 647 
L 2219 1819 
Q 2219 2209 2117 2386 
Q 2016 2563 1775 2563 
Q 1403 2563 1034 2156 
L 1034 647 
Q 1034 356 1069 288 
Q 1113 197 1189 155 
Q 1266 113 1500 113 
L 1500 0 
L 84 0 
L 84 113 
L 147 113 
Q 366 113 442 223 
Q 519 334 519 647 
L 519 1709 
Q 519 2225 495 2337 
Q 472 2450 423 2490 
Q 375 2531 294 2531 
Q 206 2531 84 2484 
L 38 2597 
L 900 2947 
L 1034 2947 
L 1034 2341 
z
" transform="scale(0.015625)"/>
       <path id="TimesNewRomanPSMT-67" d="M 966 1044 
Q 703 1172 562 1401 
Q 422 1631 422 1909 
Q 422 2334 742 2640 
Q 1063 2947 1563 2947 
Q 1972 2947 2272 2747 
L 2878 2747 
Q 3013 2747 3034 2739 
Q 3056 2731 3066 2713 
Q 3084 2684 3084 2613 
Q 3084 2531 3069 2500 
Q 3059 2484 3036 2475 
Q 3013 2466 2878 2466 
L 2506 2466 
Q 2681 2241 2681 1891 
Q 2681 1491 2375 1206 
Q 2069 922 1553 922 
Q 1341 922 1119 984 
Q 981 866 932 777 
Q 884 688 884 625 
Q 884 572 936 522 
Q 988 472 1138 450 
Q 1225 438 1575 428 
Q 2219 413 2409 384 
Q 2700 344 2873 169 
Q 3047 -6 3047 -263 
Q 3047 -616 2716 -925 
Q 2228 -1381 1444 -1381 
Q 841 -1381 425 -1109 
Q 191 -953 191 -784 
Q 191 -709 225 -634 
Q 278 -519 444 -313 
Q 466 -284 763 25 
Q 600 122 533 198 
Q 466 275 466 372 
Q 466 481 555 628 
Q 644 775 966 1044 
z
M 1509 2797 
Q 1278 2797 1122 2612 
Q 966 2428 966 2047 
Q 966 1553 1178 1281 
Q 1341 1075 1591 1075 
Q 1828 1075 1981 1253 
Q 2134 1431 2134 1813 
Q 2134 2309 1919 2591 
Q 1759 2797 1509 2797 
z
M 934 0 
Q 788 -159 713 -296 
Q 638 -434 638 -550 
Q 638 -700 819 -813 
Q 1131 -1006 1722 -1006 
Q 2284 -1006 2551 -807 
Q 2819 -609 2819 -384 
Q 2819 -222 2659 -153 
Q 2497 -84 2016 -72 
Q 1313 -53 934 0 
z
" transform="scale(0.015625)"/>
      </defs>
      <use xlink:href="#TimesNewRomanPSMT-54"/>
      <use xlink:href="#TimesNewRomanPSMT-72" transform="translate(57.583984 0)"/>
      <use xlink:href="#TimesNewRomanPSMT-61" transform="translate(90.884766 0)"/>
      <use xlink:href="#TimesNewRomanPSMT-69" transform="translate(135.269531 0)"/>
      <use xlink:href="#TimesNewRomanPSMT-6e" transform="translate(163.052734 0)"/>
      <use xlink:href="#TimesNewRomanPSMT-69" transform="translate(213.052734 0)"/>
      <use xlink:href="#TimesNewRomanPSMT-6e" transform="translate(240.835938 0)"/>
      <use xlink:href="#TimesNewRomanPSMT-67" transform="translate(290.835938 0)"/>
      <use xlink:href="#TimesNewRomanPSMT-20" transform="translate(340.835938 0)"/>
      <use xlink:href="#TimesNewRomanPSMT-6c" transform="translate(365.835938 0)"/>
      <use xlink:href="#TimesNewRomanPSMT-6f" transform="translate(393.619141 0)"/>
      <use xlink:href="#TimesNewRomanPSMT-73" transform="translate(443.619141 0)"/>
      <use xlink:href="#TimesNewRomanPSMT-73" transform="translate(482.535156 0)"/>
     </g>
    </g>
    <g id="line2d_24">
     <path d="M 103.7025 281.960187 
L 121.7025 281.960187 
L 139.7025 281.960187 
" style="fill: none; stroke: #008000; stroke-width: 1.5; stroke-linecap: square"/>
    </g>
    <g id="text_15">
     <!-- Validation loss -->
     <g transform="translate(154.1025 288.260187) scale(0.18 -0.18)">
      <defs>
       <path id="TimesNewRomanPSMT-56" d="M 4544 4238 
L 4544 4122 
Q 4319 4081 4203 3978 
Q 4038 3825 3909 3509 
L 2431 -97 
L 2316 -97 
L 728 3556 
Q 606 3838 556 3900 
Q 478 3997 364 4051 
Q 250 4106 56 4122 
L 56 4238 
L 1788 4238 
L 1788 4122 
Q 1494 4094 1406 4022 
Q 1319 3950 1319 3838 
Q 1319 3681 1463 3350 
L 2541 866 
L 3541 3319 
Q 3688 3681 3688 3822 
Q 3688 3913 3597 3995 
Q 3506 4078 3291 4113 
Q 3275 4116 3238 4122 
L 3238 4238 
L 4544 4238 
z
" transform="scale(0.015625)"/>
      </defs>
      <use xlink:href="#TimesNewRomanPSMT-56"/>
      <use xlink:href="#TimesNewRomanPSMT-61" transform="translate(61.091797 0)"/>
      <use xlink:href="#TimesNewRomanPSMT-6c" transform="translate(105.476562 0)"/>
      <use xlink:href="#TimesNewRomanPSMT-69" transform="translate(133.259766 0)"/>
      <use xlink:href="#TimesNewRomanPSMT-64" transform="translate(161.042969 0)"/>
      <use xlink:href="#TimesNewRomanPSMT-61" transform="translate(211.042969 0)"/>
      <use xlink:href="#TimesNewRomanPSMT-74" transform="translate(255.427734 0)"/>
      <use xlink:href="#TimesNewRomanPSMT-69" transform="translate(283.210938 0)"/>
      <use xlink:href="#TimesNewRomanPSMT-6f" transform="translate(310.994141 0)"/>
      <use xlink:href="#TimesNewRomanPSMT-6e" transform="translate(360.994141 0)"/>
      <use xlink:href="#TimesNewRomanPSMT-20" transform="translate(410.994141 0)"/>
      <use xlink:href="#TimesNewRomanPSMT-6c" transform="translate(435.994141 0)"/>
      <use xlink:href="#TimesNewRomanPSMT-6f" transform="translate(463.777344 0)"/>
      <use xlink:href="#TimesNewRomanPSMT-73" transform="translate(513.777344 0)"/>
      <use xlink:href="#TimesNewRomanPSMT-73" transform="translate(552.693359 0)"/>
     </g>
    </g>
   </g>
  </g>
 </g>
 <defs>
  <clipPath id="pf3de98f912">
   <rect x="87.5025" y="42.1985" width="357.12" height="266.112"/>
  </clipPath>
 </defs>
</svg>
