<?xml version="1.0" encoding="utf-8" standalone="no"?>
<!DOCTYPE svg PUBLIC "-//W3C//DTD SVG 1.1//EN"
  "http://www.w3.org/Graphics/SVG/1.1/DTD/svg11.dtd">
<svg xmlns:xlink="http://www.w3.org/1999/xlink" width="1052.3325pt" height="383.265687pt" viewBox="0 0 1052.3325 383.265687" xmlns="http://www.w3.org/2000/svg" version="1.1">
 <metadata>
  <rdf:RDF xmlns:dc="http://purl.org/dc/elements/1.1/" xmlns:cc="http://creativecommons.org/ns#" xmlns:rdf="http://www.w3.org/1999/02/22-rdf-syntax-ns#">
   <cc:Work>
    <dc:type rdf:resource="http://purl.org/dc/dcmitype/StillImage"/>
    <dc:date>2025-06-18T15:22:46.317365</dc:date>
    <dc:format>image/svg+xml</dc:format>
    <dc:creator>
     <cc:Agent>
      <dc:title>Matplotlib v3.10.1, https://matplotlib.org/</dc:title>
     </cc:Agent>
    </dc:creator>
   </cc:Work>
  </rdf:RDF>
 </metadata>
 <defs>
  <style type="text/css">*{stroke-linejoin: round; stroke-linecap: butt}</style>
 </defs>
 <g id="figure_1">
  <g id="patch_1">
   <path d="M 0 383.265687 
L 1052.3325 383.265687 
L 1052.3325 0 
L 0 0 
z
" style="fill: #ffffff"/>
  </g>
  <g id="axes_1">
   <g id="patch_2">
    <path d="M 347.60625 311.6435 
L 704.72625 311.6435 
L 704.72625 45.5315 
L 347.60625 45.5315 
z
" style="fill: #ffffff"/>
   </g>
   <g id="matplotlib.axis_1">
    <g id="xtick_1">
     <g id="line2d_1">
      <path d="M 347.60625 311.6435 
L 347.60625 45.5315 
" clip-path="url(#p8b5b010cb9)" style="fill: none; stroke: #b0b0b0; stroke-opacity: 0.3; stroke-width: 0.8; stroke-linecap: square"/>
     </g>
     <g id="line2d_2">
      <defs>
       <path id="m6f998612ff" d="M 0 0 
L 0 3.5 
" style="stroke: #000000; stroke-width: 0.8"/>
      </defs>
      <g>
       <use xlink:href="#m6f998612ff" x="347.60625" y="311.6435" style="stroke: #000000; stroke-width: 0.8"/>
      </g>
     </g>
     <g id="text_1">
      <!-- 0.0 -->
      <g transform="translate(333.85625 333.91975) scale(0.22 -0.22)">
       <defs>
        <path id="TimesNewRomanPSMT-30" d="M 231 2094 
Q 231 2819 450 3342 
Q 669 3866 1031 4122 
Q 1313 4325 1613 4325 
Q 2100 4325 2488 3828 
Q 2972 3213 2972 2159 
Q 2972 1422 2759 906 
Q 2547 391 2217 158 
Q 1888 -75 1581 -75 
Q 975 -75 572 641 
Q 231 1244 231 2094 
z
M 844 2016 
Q 844 1141 1059 588 
Q 1238 122 1591 122 
Q 1759 122 1940 273 
Q 2122 425 2216 781 
Q 2359 1319 2359 2297 
Q 2359 3022 2209 3506 
Q 2097 3866 1919 4016 
Q 1791 4119 1609 4119 
Q 1397 4119 1231 3928 
Q 1006 3669 925 3112 
Q 844 2556 844 2016 
z
" transform="scale(0.015625)"/>
        <path id="TimesNewRomanPSMT-2e" d="M 800 606 
Q 947 606 1047 504 
Q 1147 403 1147 259 
Q 1147 116 1045 14 
Q 944 -88 800 -88 
Q 656 -88 554 14 
Q 453 116 453 259 
Q 453 406 554 506 
Q 656 606 800 606 
z
" transform="scale(0.015625)"/>
       </defs>
       <use xlink:href="#TimesNewRomanPSMT-30"/>
       <use xlink:href="#TimesNewRomanPSMT-2e" transform="translate(50 0)"/>
       <use xlink:href="#TimesNewRomanPSMT-30" transform="translate(75 0)"/>
      </g>
     </g>
    </g>
    <g id="xtick_2">
     <g id="line2d_3">
      <path d="M 443.541826 311.6435 
L 443.541826 45.5315 
" clip-path="url(#p8b5b010cb9)" style="fill: none; stroke: #b0b0b0; stroke-opacity: 0.3; stroke-width: 0.8; stroke-linecap: square"/>
     </g>
     <g id="line2d_4">
      <g>
       <use xlink:href="#m6f998612ff" x="443.541826" y="311.6435" style="stroke: #000000; stroke-width: 0.8"/>
      </g>
     </g>
     <g id="text_2">
      <!-- 0.5 -->
      <g transform="translate(429.791826 333.91975) scale(0.22 -0.22)">
       <defs>
        <path id="TimesNewRomanPSMT-35" d="M 2778 4238 
L 2534 3706 
L 1259 3706 
L 981 3138 
Q 1809 3016 2294 2522 
Q 2709 2097 2709 1522 
Q 2709 1188 2573 903 
Q 2438 619 2231 419 
Q 2025 219 1772 97 
Q 1413 -75 1034 -75 
Q 653 -75 479 54 
Q 306 184 306 341 
Q 306 428 378 495 
Q 450 563 559 563 
Q 641 563 702 538 
Q 763 513 909 409 
Q 1144 247 1384 247 
Q 1750 247 2026 523 
Q 2303 800 2303 1197 
Q 2303 1581 2056 1914 
Q 1809 2247 1375 2428 
Q 1034 2569 447 2591 
L 1259 4238 
L 2778 4238 
z
" transform="scale(0.015625)"/>
       </defs>
       <use xlink:href="#TimesNewRomanPSMT-30"/>
       <use xlink:href="#TimesNewRomanPSMT-2e" transform="translate(50 0)"/>
       <use xlink:href="#TimesNewRomanPSMT-35" transform="translate(75 0)"/>
      </g>
     </g>
    </g>
    <g id="xtick_3">
     <g id="line2d_5">
      <path d="M 539.477401 311.6435 
L 539.477401 45.5315 
" clip-path="url(#p8b5b010cb9)" style="fill: none; stroke: #b0b0b0; stroke-opacity: 0.3; stroke-width: 0.8; stroke-linecap: square"/>
     </g>
     <g id="line2d_6">
      <g>
       <use xlink:href="#m6f998612ff" x="539.477401" y="311.6435" style="stroke: #000000; stroke-width: 0.8"/>
      </g>
     </g>
     <g id="text_3">
      <!-- 1.0 -->
      <g transform="translate(525.727401 333.91975) scale(0.22 -0.22)">
       <defs>
        <path id="TimesNewRomanPSMT-31" d="M 750 3822 
L 1781 4325 
L 1884 4325 
L 1884 747 
Q 1884 391 1914 303 
Q 1944 216 2037 169 
Q 2131 122 2419 116 
L 2419 0 
L 825 0 
L 825 116 
Q 1125 122 1212 167 
Q 1300 213 1334 289 
Q 1369 366 1369 747 
L 1369 3034 
Q 1369 3497 1338 3628 
Q 1316 3728 1258 3775 
Q 1200 3822 1119 3822 
Q 1003 3822 797 3725 
L 750 3822 
z
" transform="scale(0.015625)"/>
       </defs>
       <use xlink:href="#TimesNewRomanPSMT-31"/>
       <use xlink:href="#TimesNewRomanPSMT-2e" transform="translate(50 0)"/>
       <use xlink:href="#TimesNewRomanPSMT-30" transform="translate(75 0)"/>
      </g>
     </g>
    </g>
    <g id="xtick_4">
     <g id="line2d_7">
      <path d="M 635.412977 311.6435 
L 635.412977 45.5315 
" clip-path="url(#p8b5b010cb9)" style="fill: none; stroke: #b0b0b0; stroke-opacity: 0.3; stroke-width: 0.8; stroke-linecap: square"/>
     </g>
     <g id="line2d_8">
      <g>
       <use xlink:href="#m6f998612ff" x="635.412977" y="311.6435" style="stroke: #000000; stroke-width: 0.8"/>
      </g>
     </g>
     <g id="text_4">
      <!-- 1.5 -->
      <g transform="translate(621.662977 333.91975) scale(0.22 -0.22)">
       <use xlink:href="#TimesNewRomanPSMT-31"/>
       <use xlink:href="#TimesNewRomanPSMT-2e" transform="translate(50 0)"/>
       <use xlink:href="#TimesNewRomanPSMT-35" transform="translate(75 0)"/>
      </g>
     </g>
    </g>
    <g id="text_5">
     <!-- $\kappa  = \frac{ln(n)}{ln(d)}$ -->
     <g transform="translate(494.15625 364.185687) scale(0.22 -0.22)">
      <defs>
       <path id="STIXGeneral-Italic-3ba" d="M 979 1440 
L 998 1446 
Q 1850 2541 2464 2790 
Q 2547 2822 2630 2822 
Q 2797 2822 2886 2736 
Q 2976 2650 2976 2522 
Q 2976 2387 2893 2307 
Q 2810 2227 2682 2227 
Q 2605 2227 2502 2288 
Q 2400 2349 2336 2349 
Q 2170 2349 1990 2205 
Q 1811 2061 1414 1645 
L 2042 544 
Q 2202 262 2310 182 
Q 2419 102 2624 102 
L 2624 0 
Q 2374 -83 2182 -83 
Q 1786 -83 1555 326 
L 960 1350 
L 576 0 
L 90 0 
L 640 1978 
Q 730 2317 730 2406 
Q 730 2560 518 2560 
L 339 2560 
L 339 2650 
Q 678 2694 1306 2822 
L 1325 2803 
L 979 1440 
z
" transform="scale(0.015625)"/>
       <path id="STIXGeneral-Regular-3d" d="M 4077 2048 
L 307 2048 
L 307 2470 
L 4077 2470 
L 4077 2048 
z
M 4077 768 
L 307 768 
L 307 1190 
L 4077 1190 
L 4077 768 
z
" transform="scale(0.015625)"/>
       <path id="STIXGeneral-Italic-6c" d="M 1786 4339 
L 806 595 
Q 755 410 755 320 
Q 755 205 864 205 
Q 1037 205 1293 570 
L 1453 794 
L 1542 730 
Q 1254 275 1046 102 
Q 838 -70 576 -70 
Q 262 -70 262 288 
Q 262 397 288 480 
L 1165 3834 
Q 1184 3898 1184 3955 
Q 1184 4096 870 4096 
L 755 4096 
L 755 4198 
Q 1203 4250 1747 4371 
L 1786 4339 
z
" transform="scale(0.015625)"/>
       <path id="STIXGeneral-Italic-6e" d="M 2944 749 
L 3034 666 
Q 2707 218 2534 80 
Q 2362 -58 2138 -58 
Q 2010 -58 1923 28 
Q 1837 115 1837 288 
Q 1837 390 1939 768 
L 2221 1805 
Q 2310 2150 2310 2310 
Q 2310 2496 2157 2496 
Q 1971 2496 1750 2275 
Q 1530 2054 1210 1587 
Q 998 1274 899 1024 
Q 800 774 570 0 
L 90 0 
L 704 2240 
Q 717 2304 717 2349 
Q 717 2445 630 2480 
Q 544 2515 301 2522 
L 301 2624 
Q 550 2675 857 2729 
Q 1165 2784 1338 2822 
L 1363 2810 
L 934 1414 
Q 1408 2170 1753 2496 
Q 2099 2822 2413 2822 
Q 2611 2822 2720 2716 
Q 2829 2611 2829 2432 
Q 2829 2272 2765 2048 
L 2406 749 
Q 2317 429 2317 358 
Q 2317 243 2419 243 
Q 2541 243 2810 582 
Q 2854 634 2944 749 
z
" transform="scale(0.015625)"/>
       <path id="STIXGeneral-Regular-28" d="M 1946 -1030 
L 1869 -1133 
Q 1126 -710 716 32 
Q 307 774 307 1613 
Q 307 3386 1888 4326 
L 1946 4224 
Q 1293 3667 1075 3126 
Q 858 2586 858 1632 
Q 858 685 1082 96 
Q 1306 -493 1946 -1030 
z
" transform="scale(0.015625)"/>
       <path id="STIXGeneral-Regular-29" d="M 186 4224 
L 262 4326 
Q 992 3891 1408 3148 
Q 1824 2406 1824 1581 
Q 1824 -166 243 -1133 
L 186 -1030 
Q 845 -486 1059 54 
Q 1274 595 1274 1562 
Q 1274 2534 1059 3120 
Q 845 3706 186 4224 
z
" transform="scale(0.015625)"/>
       <path id="STIXGeneral-Italic-64" d="M 3334 4371 
L 3373 4333 
L 3123 3360 
L 2739 1958 
Q 2323 429 2323 384 
Q 2323 256 2438 256 
Q 2522 256 2614 336 
Q 2707 416 2963 710 
L 3040 646 
Q 2547 -83 2099 -83 
Q 1978 -83 1907 -6 
Q 1837 70 1837 205 
Q 1837 397 1920 774 
Q 1645 307 1379 118 
Q 1114 -70 781 -70 
Q 461 -70 278 125 
Q 96 320 96 678 
Q 96 1440 713 2131 
Q 1331 2822 1965 2822 
Q 2163 2822 2256 2732 
Q 2349 2643 2381 2451 
L 2387 2451 
L 2675 3494 
Q 2765 3808 2765 3949 
Q 2765 4051 2694 4076 
Q 2624 4102 2355 4115 
L 2355 4224 
Q 2848 4269 3334 4371 
z
M 2278 2310 
Q 2278 2477 2185 2576 
Q 2093 2675 1978 2675 
Q 1677 2675 1395 2381 
Q 1075 2042 864 1571 
Q 653 1101 653 704 
Q 653 486 752 361 
Q 851 237 1024 237 
Q 1312 237 1606 550 
Q 1901 864 2089 1350 
Q 2278 1837 2278 2310 
z
" transform="scale(0.015625)"/>
      </defs>
      <use xlink:href="#STIXGeneral-Italic-3ba" transform="translate(0 0.003125)"/>
      <use xlink:href="#STIXGeneral-Regular-3d" transform="translate(58.83999 0.003125)"/>
      <use xlink:href="#STIXGeneral-Italic-6c" transform="translate(141.779971 50.192188) scale(0.7)"/>
      <use xlink:href="#STIXGeneral-Italic-6e" transform="translate(161.239963 50.192188) scale(0.7)"/>
      <use xlink:href="#STIXGeneral-Regular-28" transform="translate(196.239952 50.192188) scale(0.7)"/>
      <use xlink:href="#STIXGeneral-Italic-6e" transform="translate(219.549944 50.192188) scale(0.7)"/>
      <use xlink:href="#STIXGeneral-Regular-29" transform="translate(254.549933 50.192188) scale(0.7)"/>
      <use xlink:href="#STIXGeneral-Italic-6c" transform="translate(141.779971 -41.257812) scale(0.7)"/>
      <use xlink:href="#STIXGeneral-Italic-6e" transform="translate(161.239963 -41.257812) scale(0.7)"/>
      <use xlink:href="#STIXGeneral-Regular-28" transform="translate(196.239952 -41.257812) scale(0.7)"/>
      <use xlink:href="#STIXGeneral-Italic-64" transform="translate(219.549944 -41.257812) scale(0.7)"/>
      <use xlink:href="#STIXGeneral-Regular-29" transform="translate(254.549933 -41.257812) scale(0.7)"/>
      <path d="M 141.779971 12.8 
L 141.779971 19.05 
L 277.859924 19.05 
L 277.859924 12.8 
L 141.779971 12.8 
z
"/>
     </g>
    </g>
   </g>
   <g id="matplotlib.axis_2">
    <g id="ytick_1">
     <g id="line2d_9">
      <path d="M 347.60625 311.6435 
L 704.72625 311.6435 
" clip-path="url(#p8b5b010cb9)" style="fill: none; stroke: #b0b0b0; stroke-opacity: 0.3; stroke-width: 0.8; stroke-linecap: square"/>
     </g>
     <g id="line2d_10">
      <defs>
       <path id="m74d1d94e5f" d="M 0 0 
L -3.5 0 
" style="stroke: #000000; stroke-width: 0.8"/>
      </defs>
      <g>
       <use xlink:href="#m74d1d94e5f" x="347.60625" y="311.6435" style="stroke: #000000; stroke-width: 0.8"/>
      </g>
     </g>
     <g id="text_6">
      <!-- 0.0 -->
      <g transform="translate(313.10625 319.281625) scale(0.22 -0.22)">
       <use xlink:href="#TimesNewRomanPSMT-30"/>
       <use xlink:href="#TimesNewRomanPSMT-2e" transform="translate(50 0)"/>
       <use xlink:href="#TimesNewRomanPSMT-30" transform="translate(75 0)"/>
      </g>
     </g>
    </g>
    <g id="ytick_2">
     <g id="line2d_11">
      <path d="M 347.60625 285.0323 
L 704.72625 285.0323 
" clip-path="url(#p8b5b010cb9)" style="fill: none; stroke: #b0b0b0; stroke-opacity: 0.3; stroke-width: 0.8; stroke-linecap: square"/>
     </g>
     <g id="line2d_12">
      <g>
       <use xlink:href="#m74d1d94e5f" x="347.60625" y="285.0323" style="stroke: #000000; stroke-width: 0.8"/>
      </g>
     </g>
     <g id="text_7">
      <!-- 0.1 -->
      <g transform="translate(313.10625 292.670425) scale(0.22 -0.22)">
       <use xlink:href="#TimesNewRomanPSMT-30"/>
       <use xlink:href="#TimesNewRomanPSMT-2e" transform="translate(50 0)"/>
       <use xlink:href="#TimesNewRomanPSMT-31" transform="translate(75 0)"/>
      </g>
     </g>
    </g>
    <g id="ytick_3">
     <g id="line2d_13">
      <path d="M 347.60625 258.4211 
L 704.72625 258.4211 
" clip-path="url(#p8b5b010cb9)" style="fill: none; stroke: #b0b0b0; stroke-opacity: 0.3; stroke-width: 0.8; stroke-linecap: square"/>
     </g>
     <g id="line2d_14">
      <g>
       <use xlink:href="#m74d1d94e5f" x="347.60625" y="258.4211" style="stroke: #000000; stroke-width: 0.8"/>
      </g>
     </g>
     <g id="text_8">
      <!-- 0.2 -->
      <g transform="translate(313.10625 266.059225) scale(0.22 -0.22)">
       <defs>
        <path id="TimesNewRomanPSMT-32" d="M 2934 816 
L 2638 0 
L 138 0 
L 138 116 
Q 1241 1122 1691 1759 
Q 2141 2397 2141 2925 
Q 2141 3328 1894 3587 
Q 1647 3847 1303 3847 
Q 991 3847 742 3664 
Q 494 3481 375 3128 
L 259 3128 
Q 338 3706 661 4015 
Q 984 4325 1469 4325 
Q 1984 4325 2329 3994 
Q 2675 3663 2675 3213 
Q 2675 2891 2525 2569 
Q 2294 2063 1775 1497 
Q 997 647 803 472 
L 1909 472 
Q 2247 472 2383 497 
Q 2519 522 2628 598 
Q 2738 675 2819 816 
L 2934 816 
z
" transform="scale(0.015625)"/>
       </defs>
       <use xlink:href="#TimesNewRomanPSMT-30"/>
       <use xlink:href="#TimesNewRomanPSMT-2e" transform="translate(50 0)"/>
       <use xlink:href="#TimesNewRomanPSMT-32" transform="translate(75 0)"/>
      </g>
     </g>
    </g>
    <g id="ytick_4">
     <g id="line2d_15">
      <path d="M 347.60625 231.8099 
L 704.72625 231.8099 
" clip-path="url(#p8b5b010cb9)" style="fill: none; stroke: #b0b0b0; stroke-opacity: 0.3; stroke-width: 0.8; stroke-linecap: square"/>
     </g>
     <g id="line2d_16">
      <g>
       <use xlink:href="#m74d1d94e5f" x="347.60625" y="231.8099" style="stroke: #000000; stroke-width: 0.8"/>
      </g>
     </g>
     <g id="text_9">
      <!-- 0.3 -->
      <g transform="translate(313.10625 239.448025) scale(0.22 -0.22)">
       <defs>
        <path id="TimesNewRomanPSMT-33" d="M 325 3431 
Q 506 3859 782 4092 
Q 1059 4325 1472 4325 
Q 1981 4325 2253 3994 
Q 2459 3747 2459 3466 
Q 2459 3003 1878 2509 
Q 2269 2356 2469 2072 
Q 2669 1788 2669 1403 
Q 2669 853 2319 450 
Q 1863 -75 997 -75 
Q 569 -75 414 31 
Q 259 138 259 259 
Q 259 350 332 419 
Q 406 488 509 488 
Q 588 488 669 463 
Q 722 447 909 348 
Q 1097 250 1169 231 
Q 1284 197 1416 197 
Q 1734 197 1970 444 
Q 2206 691 2206 1028 
Q 2206 1275 2097 1509 
Q 2016 1684 1919 1775 
Q 1784 1900 1550 2001 
Q 1316 2103 1072 2103 
L 972 2103 
L 972 2197 
Q 1219 2228 1467 2375 
Q 1716 2522 1828 2728 
Q 1941 2934 1941 3181 
Q 1941 3503 1739 3701 
Q 1538 3900 1238 3900 
Q 753 3900 428 3381 
L 325 3431 
z
" transform="scale(0.015625)"/>
       </defs>
       <use xlink:href="#TimesNewRomanPSMT-30"/>
       <use xlink:href="#TimesNewRomanPSMT-2e" transform="translate(50 0)"/>
       <use xlink:href="#TimesNewRomanPSMT-33" transform="translate(75 0)"/>
      </g>
     </g>
    </g>
    <g id="ytick_5">
     <g id="line2d_17">
      <path d="M 347.60625 205.1987 
L 704.72625 205.1987 
" clip-path="url(#p8b5b010cb9)" style="fill: none; stroke: #b0b0b0; stroke-opacity: 0.3; stroke-width: 0.8; stroke-linecap: square"/>
     </g>
     <g id="line2d_18">
      <g>
       <use xlink:href="#m74d1d94e5f" x="347.60625" y="205.1987" style="stroke: #000000; stroke-width: 0.8"/>
      </g>
     </g>
     <g id="text_10">
      <!-- 0.4 -->
      <g transform="translate(313.10625 212.836825) scale(0.22 -0.22)">
       <defs>
        <path id="TimesNewRomanPSMT-34" d="M 2978 1563 
L 2978 1119 
L 2409 1119 
L 2409 0 
L 1894 0 
L 1894 1119 
L 100 1119 
L 100 1519 
L 2066 4325 
L 2409 4325 
L 2409 1563 
L 2978 1563 
z
M 1894 1563 
L 1894 3666 
L 406 1563 
L 1894 1563 
z
" transform="scale(0.015625)"/>
       </defs>
       <use xlink:href="#TimesNewRomanPSMT-30"/>
       <use xlink:href="#TimesNewRomanPSMT-2e" transform="translate(50 0)"/>
       <use xlink:href="#TimesNewRomanPSMT-34" transform="translate(75 0)"/>
      </g>
     </g>
    </g>
    <g id="ytick_6">
     <g id="line2d_19">
      <path d="M 347.60625 178.5875 
L 704.72625 178.5875 
" clip-path="url(#p8b5b010cb9)" style="fill: none; stroke: #b0b0b0; stroke-opacity: 0.3; stroke-width: 0.8; stroke-linecap: square"/>
     </g>
     <g id="line2d_20">
      <g>
       <use xlink:href="#m74d1d94e5f" x="347.60625" y="178.5875" style="stroke: #000000; stroke-width: 0.8"/>
      </g>
     </g>
     <g id="text_11">
      <!-- 0.5 -->
      <g transform="translate(313.10625 186.225625) scale(0.22 -0.22)">
       <use xlink:href="#TimesNewRomanPSMT-30"/>
       <use xlink:href="#TimesNewRomanPSMT-2e" transform="translate(50 0)"/>
       <use xlink:href="#TimesNewRomanPSMT-35" transform="translate(75 0)"/>
      </g>
     </g>
    </g>
    <g id="ytick_7">
     <g id="line2d_21">
      <path d="M 347.60625 151.9763 
L 704.72625 151.9763 
" clip-path="url(#p8b5b010cb9)" style="fill: none; stroke: #b0b0b0; stroke-opacity: 0.3; stroke-width: 0.8; stroke-linecap: square"/>
     </g>
     <g id="line2d_22">
      <g>
       <use xlink:href="#m74d1d94e5f" x="347.60625" y="151.9763" style="stroke: #000000; stroke-width: 0.8"/>
      </g>
     </g>
     <g id="text_12">
      <!-- 0.6 -->
      <g transform="translate(313.10625 159.614425) scale(0.22 -0.22)">
       <defs>
        <path id="TimesNewRomanPSMT-36" d="M 2869 4325 
L 2869 4209 
Q 2456 4169 2195 4045 
Q 1934 3922 1679 3669 
Q 1425 3416 1258 3105 
Q 1091 2794 978 2366 
Q 1428 2675 1881 2675 
Q 2316 2675 2634 2325 
Q 2953 1975 2953 1425 
Q 2953 894 2631 456 
Q 2244 -75 1606 -75 
Q 1172 -75 869 213 
Q 275 772 275 1663 
Q 275 2231 503 2743 
Q 731 3256 1154 3653 
Q 1578 4050 1965 4187 
Q 2353 4325 2688 4325 
L 2869 4325 
z
M 925 2138 
Q 869 1716 869 1456 
Q 869 1156 980 804 
Q 1091 453 1309 247 
Q 1469 100 1697 100 
Q 1969 100 2183 356 
Q 2397 613 2397 1088 
Q 2397 1622 2184 2012 
Q 1972 2403 1581 2403 
Q 1463 2403 1327 2353 
Q 1191 2303 925 2138 
z
" transform="scale(0.015625)"/>
       </defs>
       <use xlink:href="#TimesNewRomanPSMT-30"/>
       <use xlink:href="#TimesNewRomanPSMT-2e" transform="translate(50 0)"/>
       <use xlink:href="#TimesNewRomanPSMT-36" transform="translate(75 0)"/>
      </g>
     </g>
    </g>
    <g id="ytick_8">
     <g id="line2d_23">
      <path d="M 347.60625 125.3651 
L 704.72625 125.3651 
" clip-path="url(#p8b5b010cb9)" style="fill: none; stroke: #b0b0b0; stroke-opacity: 0.3; stroke-width: 0.8; stroke-linecap: square"/>
     </g>
     <g id="line2d_24">
      <g>
       <use xlink:href="#m74d1d94e5f" x="347.60625" y="125.3651" style="stroke: #000000; stroke-width: 0.8"/>
      </g>
     </g>
     <g id="text_13">
      <!-- 0.7 -->
      <g transform="translate(313.10625 133.003225) scale(0.22 -0.22)">
       <defs>
        <path id="TimesNewRomanPSMT-37" d="M 644 4238 
L 2916 4238 
L 2916 4119 
L 1503 -88 
L 1153 -88 
L 2419 3728 
L 1253 3728 
Q 900 3728 750 3644 
Q 488 3500 328 3200 
L 238 3234 
L 644 4238 
z
" transform="scale(0.015625)"/>
       </defs>
       <use xlink:href="#TimesNewRomanPSMT-30"/>
       <use xlink:href="#TimesNewRomanPSMT-2e" transform="translate(50 0)"/>
       <use xlink:href="#TimesNewRomanPSMT-37" transform="translate(75 0)"/>
      </g>
     </g>
    </g>
    <g id="ytick_9">
     <g id="line2d_25">
      <path d="M 347.60625 98.7539 
L 704.72625 98.7539 
" clip-path="url(#p8b5b010cb9)" style="fill: none; stroke: #b0b0b0; stroke-opacity: 0.3; stroke-width: 0.8; stroke-linecap: square"/>
     </g>
     <g id="line2d_26">
      <g>
       <use xlink:href="#m74d1d94e5f" x="347.60625" y="98.7539" style="stroke: #000000; stroke-width: 0.8"/>
      </g>
     </g>
     <g id="text_14">
      <!-- 0.8 -->
      <g transform="translate(313.10625 106.392025) scale(0.22 -0.22)">
       <defs>
        <path id="TimesNewRomanPSMT-38" d="M 1228 2134 
Q 725 2547 579 2797 
Q 434 3047 434 3316 
Q 434 3728 753 4026 
Q 1072 4325 1600 4325 
Q 2113 4325 2425 4047 
Q 2738 3769 2738 3413 
Q 2738 3175 2569 2928 
Q 2400 2681 1866 2347 
Q 2416 1922 2594 1678 
Q 2831 1359 2831 1006 
Q 2831 559 2490 242 
Q 2150 -75 1597 -75 
Q 994 -75 656 303 
Q 388 606 388 966 
Q 388 1247 577 1523 
Q 766 1800 1228 2134 
z
M 1719 2469 
Q 2094 2806 2194 3001 
Q 2294 3197 2294 3444 
Q 2294 3772 2109 3958 
Q 1925 4144 1606 4144 
Q 1288 4144 1088 3959 
Q 888 3775 888 3528 
Q 888 3366 970 3203 
Q 1053 3041 1206 2894 
L 1719 2469 
z
M 1375 2016 
Q 1116 1797 991 1539 
Q 866 1281 866 981 
Q 866 578 1086 336 
Q 1306 94 1647 94 
Q 1984 94 2187 284 
Q 2391 475 2391 747 
Q 2391 972 2272 1150 
Q 2050 1481 1375 2016 
z
" transform="scale(0.015625)"/>
       </defs>
       <use xlink:href="#TimesNewRomanPSMT-30"/>
       <use xlink:href="#TimesNewRomanPSMT-2e" transform="translate(50 0)"/>
       <use xlink:href="#TimesNewRomanPSMT-38" transform="translate(75 0)"/>
      </g>
     </g>
    </g>
    <g id="ytick_10">
     <g id="line2d_27">
      <path d="M 347.60625 72.1427 
L 704.72625 72.1427 
" clip-path="url(#p8b5b010cb9)" style="fill: none; stroke: #b0b0b0; stroke-opacity: 0.3; stroke-width: 0.8; stroke-linecap: square"/>
     </g>
     <g id="line2d_28">
      <g>
       <use xlink:href="#m74d1d94e5f" x="347.60625" y="72.1427" style="stroke: #000000; stroke-width: 0.8"/>
      </g>
     </g>
     <g id="text_15">
      <!-- 0.9 -->
      <g transform="translate(313.10625 79.780825) scale(0.22 -0.22)">
       <defs>
        <path id="TimesNewRomanPSMT-39" d="M 338 -88 
L 338 28 
Q 744 34 1094 217 
Q 1444 400 1770 856 
Q 2097 1313 2225 1859 
Q 1734 1544 1338 1544 
Q 891 1544 572 1889 
Q 253 2234 253 2806 
Q 253 3363 572 3797 
Q 956 4325 1575 4325 
Q 2097 4325 2469 3894 
Q 2925 3359 2925 2575 
Q 2925 1869 2578 1258 
Q 2231 647 1613 244 
Q 1109 -88 516 -88 
L 338 -88 
z
M 2275 2091 
Q 2331 2497 2331 2741 
Q 2331 3044 2228 3395 
Q 2125 3747 1936 3934 
Q 1747 4122 1506 4122 
Q 1228 4122 1018 3872 
Q 809 3622 809 3128 
Q 809 2469 1088 2097 
Q 1291 1828 1588 1828 
Q 1731 1828 1928 1897 
Q 2125 1966 2275 2091 
z
" transform="scale(0.015625)"/>
       </defs>
       <use xlink:href="#TimesNewRomanPSMT-30"/>
       <use xlink:href="#TimesNewRomanPSMT-2e" transform="translate(50 0)"/>
       <use xlink:href="#TimesNewRomanPSMT-39" transform="translate(75 0)"/>
      </g>
     </g>
    </g>
    <g id="ytick_11">
     <g id="line2d_29">
      <path d="M 347.60625 45.5315 
L 704.72625 45.5315 
" clip-path="url(#p8b5b010cb9)" style="fill: none; stroke: #b0b0b0; stroke-opacity: 0.3; stroke-width: 0.8; stroke-linecap: square"/>
     </g>
     <g id="line2d_30">
      <g>
       <use xlink:href="#m74d1d94e5f" x="347.60625" y="45.5315" style="stroke: #000000; stroke-width: 0.8"/>
      </g>
     </g>
     <g id="text_16">
      <!-- 1.0 -->
      <g transform="translate(313.10625 53.169625) scale(0.22 -0.22)">
       <use xlink:href="#TimesNewRomanPSMT-31"/>
       <use xlink:href="#TimesNewRomanPSMT-2e" transform="translate(50 0)"/>
       <use xlink:href="#TimesNewRomanPSMT-30" transform="translate(75 0)"/>
      </g>
     </g>
    </g>
    <g id="text_17">
     <!-- Accuracy -->
     <g transform="translate(304.359063 220.726094) rotate(-90) scale(0.22 -0.22)">
      <defs>
       <path id="TimesNewRomanPSMT-41" d="M 2928 1419 
L 1288 1419 
L 1000 750 
Q 894 503 894 381 
Q 894 284 986 211 
Q 1078 138 1384 116 
L 1384 0 
L 50 0 
L 50 116 
Q 316 163 394 238 
Q 553 388 747 847 
L 2238 4334 
L 2347 4334 
L 3822 809 
Q 4000 384 4145 257 
Q 4291 131 4550 116 
L 4550 0 
L 2878 0 
L 2878 116 
Q 3131 128 3220 200 
Q 3309 272 3309 375 
Q 3309 513 3184 809 
L 2928 1419 
z
M 2841 1650 
L 2122 3363 
L 1384 1650 
L 2841 1650 
z
" transform="scale(0.015625)"/>
       <path id="TimesNewRomanPSMT-63" d="M 2631 1088 
Q 2516 522 2178 217 
Q 1841 -88 1431 -88 
Q 944 -88 581 321 
Q 219 731 219 1428 
Q 219 2103 620 2525 
Q 1022 2947 1584 2947 
Q 2006 2947 2278 2723 
Q 2550 2500 2550 2259 
Q 2550 2141 2473 2067 
Q 2397 1994 2259 1994 
Q 2075 1994 1981 2113 
Q 1928 2178 1911 2362 
Q 1894 2547 1784 2644 
Q 1675 2738 1481 2738 
Q 1169 2738 978 2506 
Q 725 2200 725 1697 
Q 725 1184 976 792 
Q 1228 400 1656 400 
Q 1963 400 2206 609 
Q 2378 753 2541 1131 
L 2631 1088 
z
" transform="scale(0.015625)"/>
       <path id="TimesNewRomanPSMT-75" d="M 2709 2863 
L 2709 1128 
Q 2709 631 2732 520 
Q 2756 409 2807 365 
Q 2859 322 2928 322 
Q 3025 322 3147 375 
L 3191 266 
L 2334 -88 
L 2194 -88 
L 2194 519 
Q 1825 119 1631 15 
Q 1438 -88 1222 -88 
Q 981 -88 804 51 
Q 628 191 559 409 
Q 491 628 491 1028 
L 491 2306 
Q 491 2509 447 2587 
Q 403 2666 317 2708 
Q 231 2750 6 2747 
L 6 2863 
L 1009 2863 
L 1009 947 
Q 1009 547 1148 422 
Q 1288 297 1484 297 
Q 1619 297 1789 381 
Q 1959 466 2194 703 
L 2194 2325 
Q 2194 2569 2105 2655 
Q 2016 2741 1734 2747 
L 1734 2863 
L 2709 2863 
z
" transform="scale(0.015625)"/>
       <path id="TimesNewRomanPSMT-72" d="M 1038 2947 
L 1038 2303 
Q 1397 2947 1775 2947 
Q 1947 2947 2059 2842 
Q 2172 2738 2172 2600 
Q 2172 2478 2090 2393 
Q 2009 2309 1897 2309 
Q 1788 2309 1652 2417 
Q 1516 2525 1450 2525 
Q 1394 2525 1328 2463 
Q 1188 2334 1038 2041 
L 1038 669 
Q 1038 431 1097 309 
Q 1138 225 1241 169 
Q 1344 113 1538 113 
L 1538 0 
L 72 0 
L 72 113 
Q 291 113 397 181 
Q 475 231 506 341 
Q 522 394 522 644 
L 522 1753 
Q 522 2253 501 2348 
Q 481 2444 426 2487 
Q 372 2531 291 2531 
Q 194 2531 72 2484 
L 41 2597 
L 906 2947 
L 1038 2947 
z
" transform="scale(0.015625)"/>
       <path id="TimesNewRomanPSMT-61" d="M 1822 413 
Q 1381 72 1269 19 
Q 1100 -59 909 -59 
Q 613 -59 420 144 
Q 228 347 228 678 
Q 228 888 322 1041 
Q 450 1253 767 1440 
Q 1084 1628 1822 1897 
L 1822 2009 
Q 1822 2438 1686 2597 
Q 1550 2756 1291 2756 
Q 1094 2756 978 2650 
Q 859 2544 859 2406 
L 866 2225 
Q 866 2081 792 2003 
Q 719 1925 600 1925 
Q 484 1925 411 2006 
Q 338 2088 338 2228 
Q 338 2497 613 2722 
Q 888 2947 1384 2947 
Q 1766 2947 2009 2819 
Q 2194 2722 2281 2516 
Q 2338 2381 2338 1966 
L 2338 994 
Q 2338 584 2353 492 
Q 2369 400 2405 369 
Q 2441 338 2488 338 
Q 2538 338 2575 359 
Q 2641 400 2828 588 
L 2828 413 
Q 2478 -56 2159 -56 
Q 2006 -56 1915 50 
Q 1825 156 1822 413 
z
M 1822 616 
L 1822 1706 
Q 1350 1519 1213 1441 
Q 966 1303 859 1153 
Q 753 1003 753 825 
Q 753 600 887 451 
Q 1022 303 1197 303 
Q 1434 303 1822 616 
z
" transform="scale(0.015625)"/>
       <path id="TimesNewRomanPSMT-79" d="M 38 2863 
L 1372 2863 
L 1372 2747 
L 1306 2747 
Q 1166 2747 1095 2686 
Q 1025 2625 1025 2534 
Q 1025 2413 1128 2197 
L 1825 753 
L 2466 2334 
Q 2519 2463 2519 2588 
Q 2519 2644 2497 2672 
Q 2472 2706 2419 2726 
Q 2366 2747 2231 2747 
L 2231 2863 
L 3163 2863 
L 3163 2747 
Q 3047 2734 2984 2696 
Q 2922 2659 2847 2556 
Q 2819 2513 2741 2316 
L 1575 -541 
Q 1406 -956 1132 -1168 
Q 859 -1381 606 -1381 
Q 422 -1381 303 -1275 
Q 184 -1169 184 -1031 
Q 184 -900 270 -820 
Q 356 -741 506 -741 
Q 609 -741 788 -809 
Q 913 -856 944 -856 
Q 1038 -856 1148 -759 
Q 1259 -663 1372 -384 
L 1575 113 
L 547 2272 
Q 500 2369 397 2513 
Q 319 2622 269 2659 
Q 197 2709 38 2747 
L 38 2863 
z
" transform="scale(0.015625)"/>
      </defs>
      <use xlink:href="#TimesNewRomanPSMT-41"/>
      <use xlink:href="#TimesNewRomanPSMT-63" transform="translate(72.216797 0)"/>
      <use xlink:href="#TimesNewRomanPSMT-63" transform="translate(116.601562 0)"/>
      <use xlink:href="#TimesNewRomanPSMT-75" transform="translate(160.986328 0)"/>
      <use xlink:href="#TimesNewRomanPSMT-72" transform="translate(210.986328 0)"/>
      <use xlink:href="#TimesNewRomanPSMT-61" transform="translate(244.287109 0)"/>
      <use xlink:href="#TimesNewRomanPSMT-63" transform="translate(288.671875 0)"/>
      <use xlink:href="#TimesNewRomanPSMT-79" transform="translate(333.056641 0)"/>
     </g>
    </g>
   </g>
   <g id="line2d_31">
    <path d="M 347.60625 176.990817 
L 413.983391 174.196653 
L 431.882808 171.93469 
L 442.663653 173.797482 
L 450.402891 167.410781 
L 456.444405 161.423267 
L 461.40067 157.963808 
L 465.602837 153.439915 
L 469.250364 150.645735 
L 472.472738 149.315176 
L 475.358804 147.851555 
L 477.972174 146.654059 
L 480.359961 145.855717 
L 484.59433 142.795429 
L 486.491041 142.396258 
L 488.266083 141.730979 
L 489.934127 140.134311 
L 491.507343 140.40042 
L 492.995936 139.602078 
L 495.752557 140.134311 
L 497.034321 139.868203 
L 499.432457 137.340132 
L 500.557862 136.275682 
L 501.639295 134.812061 
L 503.683113 134.013735 
L 504.651084 133.880673 
L 505.586347 133.215393 
L 506.491041 132.417052 
L 507.3671 132.417052 
L 508.216282 132.150943 
L 509.040186 131.618726 
L 509.840276 130.953447 
L 510.617887 131.086493 
L 511.37425 130.421214 
L 512.110495 130.022059 
L 512.827663 129.223717 
L 513.526719 128.957609 
L 514.208556 128.824546 
L 514.874 128.026205 
L 516.158739 127.760096 
L 516.779419 127.493988 
L 517.386486 127.493988 
L 519.131675 126.429537 
L 519.689782 126.429537 
L 520.236858 126.030367 
L 520.773331 126.030367 
L 521.299605 125.49815 
L 521.816059 125.764258 
L 522.323054 125.631196 
L 522.82093 125.232041 
L 523.31001 125.365087 
L 523.790597 125.89732 
L 524.262983 125.89732 
L 524.727443 125.764258 
L 525.184238 125.89732 
L 526.075818 125.631196 
L 527.361552 124.566762 
L 527.777193 124.699808 
L 528.186685 124.965917 
L 528.590207 124.433699 
L 528.987932 124.167591 
L 529.380023 124.167591 
L 530.147927 124.433699 
L 530.895102 123.76842 
L 531.26126 124.167591 
L 531.622638 124.300637 
L 531.979359 124.566762 
L 532.679299 124.300637 
L 533.361976 123.236203 
L 533.697103 123.103141 
L 534.028221 123.103141 
L 534.355426 122.70397 
L 534.678807 122.70397 
L 534.998455 122.304799 
L 535.314453 122.304799 
L 535.935829 122.570908 
L 536.241364 122.437861 
L 536.543563 122.70397 
L 536.842499 122.570908 
L 537.430856 122.837032 
L 537.72041 122.570908 
L 538.006967 122.837032 
L 538.849258 122.837032 
L 539.396875 122.171753 
L 539.933869 121.506473 
L 540.198509 121.506473 
L 540.460643 121.373411 
L 540.720318 121.373411 
L 541.232473 120.97424 
L 541.48504 121.107303 
L 541.735323 120.97424 
L 541.983364 120.708132 
L 542.229202 120.841194 
L 542.472875 120.708132 
L 543.660071 120.708132 
L 544.12105 120.97424 
L 544.348692 120.57507 
L 544.574478 120.442023 
L 545.020598 120.708132 
L 545.240991 120.308961 
L 545.459642 120.57507 
L 545.67658 120.57507 
L 545.891832 120.708132 
L 546.105422 120.708132 
L 546.317377 120.841194 
L 546.736479 119.643682 
L 546.943674 119.776744 
L 547.14933 120.042852 
L 547.556114 120.042852 
L 547.957006 120.442023 
L 548.155296 120.442023 
L 548.352176 120.175915 
L 548.547665 119.643682 
L 549.125983 119.90979 
L 549.504924 119.244511 
L 549.878746 119.377573 
L 550.247588 118.978402 
L 550.430182 118.712294 
L 550.791796 118.712294 
L 551.325511 118.313123 
L 551.675688 118.579231 
L 552.192786 117.647843 
L 552.363027 117.647843 
L 552.532228 117.913952 
L 552.867558 117.780906 
L 553.198875 118.047014 
L 554.010221 117.514781 
L 554.485854 117.780906 
L 554.642599 117.780906 
L 554.798462 118.047014 
L 555.715647 117.381735 
L 555.865599 117.381735 
L 556.163089 117.514781 
L 556.310643 117.514781 
L 556.748646 117.248673 
L 556.89312 117.248673 
L 557.322072 116.982564 
L 557.463591 116.982564 
L 557.604391 116.849502 
L 558.022543 117.248673 
L 558.297843 117.115626 
L 558.570432 117.248673 
L 558.705726 117.115626 
L 558.840362 117.913952 
L 558.974347 117.913952 
L 559.372453 117.514781 
L 559.764914 117.780906 
L 559.894508 117.514781 
L 560.023498 117.514781 
L 560.151889 117.381735 
L 560.279688 117.647843 
L 560.406899 117.647843 
L 560.659581 117.514781 
L 560.785063 117.514781 
L 561.15813 117.780906 
L 561.281377 117.514781 
L 561.404077 117.514781 
L 561.647858 117.115626 
L 562.009551 117.381735 
L 562.129072 117.248673 
L 562.602064 117.780906 
L 562.71906 117.647843 
L 563.067109 118.047014 
L 563.410836 117.514781 
L 564.085746 116.849502 
L 564.196648 116.849502 
L 564.417128 116.583393 
L 564.635866 116.849502 
L 564.74459 116.849502 
L 564.960766 117.115626 
L 565.175267 117.514781 
L 565.388118 117.647843 
L 565.599345 117.647843 
L 565.704357 117.780906 
L 565.913193 117.514781 
L 566.120466 117.780906 
L 566.326199 117.381735 
L 566.428494 117.514781 
L 566.530413 117.514781 
L 566.833938 117.780906 
L 567.034454 117.780906 
L 567.233528 117.913952 
L 567.431181 117.913952 
L 567.529481 117.514781 
L 567.725039 117.647843 
L 567.822302 117.647843 
L 568.01581 117.514781 
L 568.112059 117.647843 
L 568.303558 117.381735 
L 568.493742 117.647843 
L 568.682628 117.381735 
L 568.963563 117.381735 
L 569.149281 117.248673 
L 569.241675 117.381735 
L 569.425542 117.115626 
L 569.51702 117.115626 
L 569.699073 116.982564 
L 569.879938 116.982564 
L 569.969928 116.583393 
L 570.149037 116.716456 
L 570.326994 116.716456 
L 570.503815 116.849502 
L 570.679513 116.716456 
L 570.766946 116.849502 
L 570.940987 116.716456 
L 571.027599 116.982564 
L 571.285821 116.716456 
L 571.371362 116.716456 
L 571.541656 116.982564 
L 571.626411 116.716456 
L 571.710908 116.849502 
L 571.795148 116.583393 
L 571.962862 116.849502 
L 572.129566 116.583393 
L 572.295273 116.051176 
L 572.541987 116.051176 
L 572.623739 115.785052 
L 572.70525 115.918114 
L 572.786522 115.785052 
L 572.867556 115.918114 
L 572.948353 115.785052 
L 573.109244 116.051176 
L 573.269204 116.051176 
L 573.428246 115.918114 
L 573.507426 115.918114 
L 573.58638 115.652005 
L 573.665109 115.785052 
L 573.743615 115.518943 
L 573.821898 115.652005 
L 573.977805 115.385897 
L 574.132839 115.385897 
L 574.287009 115.518943 
L 574.440325 115.119772 
L 574.516666 115.252835 
L 574.592796 115.385897 
L 574.819941 114.986726 
L 574.895243 114.986726 
L 574.970341 114.853664 
L 575.119929 114.986726 
L 575.4904 114.454493 
L 575.783247 114.853664 
L 575.855978 114.587555 
L 575.928517 114.720617 
L 576.288392 114.720617 
L 576.431042 114.587555 
L 576.502092 114.587555 
L 576.714155 114.853664 
L 576.854633 114.587555 
L 576.924606 114.188384 
L 576.994402 114.321447 
L 577.064023 114.321447 
L 577.202741 114.188384 
L 577.27184 114.188384 
L 577.409523 113.656167 
L 577.546525 113.656167 
L 577.682852 113.523105 
L 577.818511 113.656167 
L 577.886092 113.656167 
L 577.953508 113.523105 
L 578.020761 113.123934 
L 578.087851 113.256997 
L 578.154778 113.390043 
L 578.288149 113.256997 
L 578.354595 113.256997 
L 578.552979 112.990888 
L 578.618793 112.990888 
L 578.68445 113.123934 
L 578.8153 112.990888 
L 578.880493 112.990888 
L 578.945534 112.724764 
L 579.139743 113.123934 
L 579.460427 112.591717 
L 579.587668 112.591717 
L 580.02846 113.390043 
L 580.153122 113.256997 
L 580.215243 113.256997 
L 580.339069 113.123934 
L 580.400774 113.123934 
L 580.523774 112.990888 
L 580.707256 112.990888 
L 580.950022 112.724764 
L 581.010382 112.724764 
L 581.07061 113.123934 
L 581.130709 112.990888 
L 581.310224 112.990888 
L 581.369804 113.123934 
L 581.429257 112.990888 
L 581.488582 112.990888 
L 581.606853 112.724764 
L 581.665799 112.857826 
L 581.841888 112.325609 
L 581.900337 112.325609 
L 582.132904 112.059484 
L 582.248459 112.325609 
L 582.420892 111.660329 
L 582.478132 111.926438 
L 582.535254 111.793376 
L 582.649145 111.527267 
L 582.705915 111.793376 
L 582.762569 111.527267 
L 582.819107 111.261158 
L 582.931839 111.793376 
L 583.211675 111.394205 
L 583.267304 111.394205 
L 583.433524 111.128096 
L 583.543786 111.128096 
L 583.598753 110.99505 
L 583.65361 111.128096 
L 583.87196 111.394205 
L 583.980493 111.394205 
L 584.088601 111.527267 
L 584.249976 111.261158 
L 584.30356 111.394205 
L 584.35704 111.261158 
L 584.46369 111.261158 
L 584.6229 111.394205 
L 584.675767 111.394205 
L 584.938598 110.99505 
L 585.095107 110.99505 
L 585.302419 110.462817 
L 585.354005 110.462817 
L 585.405495 110.728925 
L 585.559394 110.196708 
L 585.610504 110.196708 
L 585.864647 110.595879 
L 585.915197 110.595879 
L 586.066296 110.462817 
L 586.116479 110.728925 
L 586.166572 110.595879 
L 586.216574 110.462817 
L 586.266486 110.861988 
L 586.316308 110.728925 
L 586.366041 110.462817 
L 586.465238 110.99505 
L 586.564082 110.595879 
L 586.613372 110.99505 
L 586.662574 110.861988 
L 586.711689 110.595879 
L 586.760717 110.861988 
L 586.907282 110.861988 
L 586.955965 110.99505 
L 587.004563 110.861988 
L 587.053075 110.861988 
L 587.101502 110.728925 
L 587.149845 110.99505 
L 587.198104 110.728925 
L 587.29437 110.861988 
L 587.438143 110.595879 
L 587.770739 111.261158 
L 587.865037 111.128096 
L 588.005885 111.261158 
L 588.146019 111.261158 
L 588.285448 111.128096 
L 588.331768 111.261158 
L 588.378011 110.99505 
L 588.424177 111.394205 
L 588.470267 110.99505 
L 588.516279 110.99505 
L 588.65386 110.595879 
L 588.699568 110.861988 
L 588.745202 110.595879 
L 588.79076 110.728925 
L 588.836243 110.595879 
L 588.881652 110.595879 
L 588.926986 110.462817 
L 588.972247 110.595879 
L 589.017433 110.595879 
L 589.197444 110.196708 
L 589.242265 110.063646 
L 589.287013 110.196708 
L 589.376293 110.196708 
L 589.509675 110.063646 
L 589.553993 110.196708 
L 589.59824 110.063646 
L 589.642417 110.063646 
L 589.686523 109.9306 
L 589.73056 110.063646 
L 589.818422 110.063646 
L 589.949696 109.797537 
L 589.993316 109.797537 
L 590.036867 109.9306 
L 590.08035 109.664475 
L 590.123764 109.797537 
L 590.167111 109.9306 
L 590.21039 109.797537 
L 590.339822 109.664475 
L 590.382832 109.797537 
L 590.468652 109.398367 
L 590.511462 109.531429 
L 590.554206 109.531429 
L 590.682044 109.26532 
L 590.851582 109.797537 
L 590.893805 109.531429 
L 590.935963 109.797537 
L 590.978057 109.797537 
L 591.103957 109.664475 
L 591.187573 109.664475 
L 591.312526 109.531429 
L 591.519535 109.531429 
L 591.601908 109.398367 
L 591.643002 109.531429 
L 591.684035 109.398367 
L 591.847564 109.398367 
L 591.969579 109.26532 
L 592.010131 109.26532 
L 592.131434 109.398367 
L 592.17175 109.398367 
L 592.292348 109.664475 
L 592.332431 109.26532 
L 592.412422 109.531429 
L 592.730098 109.531429 
L 592.887579 109.26532 
L 592.965985 109.398367 
L 593.161033 108.999196 
L 593.199879 108.999196 
L 593.23867 109.132258 
L 593.277406 108.999196 
L 593.393292 108.999196 
L 593.547055 108.86615 
L 593.585363 108.86615 
L 593.738066 109.132258 
L 593.814102 108.733087 
L 593.852043 108.999196 
L 593.965552 108.733087 
L 594.078598 108.733087 
L 594.116178 108.600041 
L 594.191184 108.733087 
L 594.265988 108.733087 
L 594.303314 108.600041 
L 594.377816 108.733087 
L 594.563198 109.132258 
L 594.857251 108.333917 
L 595.039461 108.733087 
L 595.18437 108.20087 
L 595.292556 108.333917 
L 595.436149 108.067808 
L 595.471931 108.20087 
L 595.543357 108.067808 
L 595.685659 107.934762 
L 595.791907 107.934762 
L 595.93294 107.535591 
L 595.968086 107.801699 
L 596.038245 107.535591 
L 596.073258 107.402529 
L 596.108227 107.668637 
L 596.143151 107.801699 
L 596.178032 107.668637 
L 596.247661 107.535591 
L 596.28241 107.668637 
L 596.420972 107.668637 
L 596.593205 107.934762 
L 596.696032 107.801699 
L 596.832544 107.934762 
L 596.900549 107.934762 
L 597.036058 107.668637 
L 597.170908 108.067808 
L 597.204518 107.934762 
L 597.338551 107.269482 
L 597.371958 107.269482 
L 597.438651 107.668637 
L 597.471938 107.269482 
L 597.604686 107.13642 
L 597.637773 107.13642 
L 597.76973 107.269482 
L 597.901061 107.13642 
L 598.031771 107.269482 
L 598.064353 107.269482 
L 598.129401 107.402529 
L 598.161867 107.269482 
L 598.194296 107.269482 
L 598.291355 107.402529 
L 598.42024 107.269482 
L 598.612448 107.269482 
L 598.73985 107.13642 
L 598.771609 107.13642 
L 598.92986 107.402529 
L 599.087211 107.402529 
L 599.212451 107.269482 
L 599.399255 107.269482 
L 599.523095 107.13642 
L 599.553968 107.13642 
L 599.615612 107.269482 
L 599.677119 107.003358 
L 599.98262 107.003358 
L 600.103882 107.13642 
L 600.194482 107.13642 
L 600.254717 107.269482 
L 600.284786 107.003358 
L 600.344825 107.13642 
L 600.464515 107.269482 
L 600.583689 107.269482 
L 600.702353 107.402529 
L 600.820509 107.13642 
L 600.879399 107.402529 
L 600.938164 107.269482 
L 601.230131 107.269482 
L 601.346061 107.13642 
L 601.403845 107.13642 
L 601.519051 106.870311 
L 601.576475 107.13642 
L 601.63378 107.003358 
L 601.690966 107.003358 
L 601.804986 106.870311 
L 601.833418 106.870311 
L 601.861821 106.604187 
L 601.918539 107.003358 
L 601.946854 106.737249 
L 602.087998 106.471141 
L 602.200398 106.870311 
L 602.256427 106.737249 
L 602.312343 107.13642 
L 602.368146 106.870311 
L 602.479416 107.13642 
L 602.507164 107.003358 
L 602.534884 107.269482 
L 602.590241 107.13642 
L 602.700623 107.402529 
L 602.837985 107.003358 
L 602.865376 107.003358 
L 602.89274 107.13642 
L 602.920077 106.870311 
L 602.974669 107.003358 
L 603.110681 107.003358 
L 603.191969 106.870311 
L 603.246029 107.13642 
L 603.273019 107.003358 
L 603.353832 107.13642 
L 603.541483 107.13642 
L 603.674745 106.737249 
L 603.754396 106.870311 
L 603.886639 106.604187 
L 603.93936 106.737249 
L 603.991981 106.604187 
L 604.044502 106.604187 
L 604.17537 106.737249 
L 604.20147 106.737249 
L 604.227545 106.604187 
L 604.279621 106.870311 
L 604.38348 106.870311 
L 604.409385 106.737249 
L 604.46112 107.003358 
L 604.538543 107.003358 
L 604.667101 106.870311 
L 604.846086 106.870311 
L 604.947846 106.737249 
L 605.074522 106.870311 
L 605.15025 106.870311 
L 605.175446 106.737249 
L 605.250899 106.870311 
L 605.276005 106.870311 
L 605.426161 107.269482 
L 605.500934 107.003358 
L 605.525814 107.269482 
L 605.724051 107.269482 
L 605.748731 106.870311 
L 605.822639 107.13642 
L 605.847231 107.13642 
L 605.945383 107.003358 
L 605.994328 107.13642 
L 606.018769 107.003358 
L 606.091961 106.870311 
L 606.116315 107.003358 
L 606.140648 107.13642 
L 606.16496 106.870311 
L 606.18925 106.870311 
L 606.213519 106.870311 
L 606.334545 107.003358 
L 606.430987 106.737249 
L 606.455045 106.870311 
L 606.503099 106.870311 
L 606.527094 107.003358 
L 606.551069 106.604187 
L 606.622868 106.604187 
L 606.765911 106.870311 
L 606.78968 106.870311 
L 606.837157 106.604187 
L 606.908219 106.737249 
L 606.931866 106.737249 
L 606.955493 107.003358 
L 606.9791 106.604187 
L 607.026253 106.604187 
L 607.049799 106.604187 
L 607.167231 106.737249 
L 607.190658 106.737249 
L 607.237453 106.870311 
L 607.284168 106.604187 
L 607.400612 106.737249 
L 607.539702 106.737249 
L 607.655079 107.13642 
L 607.678097 107.003358 
L 607.724075 106.870311 
L 607.747036 107.13642 
L 607.815803 107.13642 
L 607.838688 107.003358 
L 607.861553 107.13642 
L 607.952827 107.402529 
L 607.975599 107.269482 
L 608.043802 107.402529 
L 608.066499 107.269482 
L 608.089177 107.269482 
L 608.134478 107.402529 
L 608.179705 107.269482 
L 608.314944 107.269482 
L 608.494241 107.934762 
L 608.516572 107.801699 
L 608.538885 107.801699 
L 608.605715 107.934762 
L 608.650179 107.668637 
L 608.783145 108.067808 
L 608.805244 107.934762 
L 608.827325 107.934762 
L 608.893464 108.067808 
L 608.915475 107.934762 
L 608.959444 107.801699 
L 609.003344 107.934762 
L 609.178252 108.466979 
L 609.352061 108.067808 
L 609.481705 108.333917 
L 609.567798 107.801699 
L 609.610745 107.934762 
L 609.67504 107.801699 
L 609.71782 108.067808 
L 609.845767 107.934762 
L 609.930737 108.20087 
L 609.951939 108.067808 
L 610.07881 107.668637 
L 610.120972 107.934762 
L 610.184094 107.668637 
L 610.268033 108.067808 
L 610.288979 107.668637 
L 610.309908 107.668637 
L 610.351719 107.934762 
L 610.435153 107.801699 
L 610.559834 107.668637 
L 610.621964 107.535591 
L 610.663307 107.801699 
L 610.786967 107.402529 
L 610.807523 107.668637 
L 610.8691 107.269482 
L 610.889596 107.402529 
L 610.910076 107.269482 
L 610.971426 107.402529 
L 611.012251 107.269482 
L 611.09372 107.535591 
L 611.215476 107.402529 
L 611.336699 107.535591 
L 611.517543 107.535591 
L 611.657388 107.269482 
L 611.697214 107.668637 
L 611.776694 107.402529 
L 611.796529 107.402529 
L 611.915239 107.535591 
L 611.994097 107.535591 
L 612.033442 107.402529 
L 612.092355 107.535591 
L 612.131561 107.535591 
L 612.248846 107.269482 
L 612.268345 107.269482 
L 612.28783 107.535591 
L 612.346205 107.13642 
L 612.385053 107.402529 
L 612.423846 107.402529 
L 612.462586 107.269482 
L 612.481935 107.535591 
L 612.520593 107.402529 
L 612.539902 107.402529 
L 612.655473 107.668637 
L 612.732253 107.269482 
L 612.770564 107.535591 
L 612.789699 107.535591 
L 612.904234 107.269482 
L 612.923277 107.269482 
L 613.037262 107.402529 
L 613.075153 106.870311 
L 613.169654 107.13642 
L 613.301415 107.13642 
L 613.376427 107.003358 
L 613.395148 107.13642 
L 613.432552 107.003358 
L 613.525843 107.269482 
L 613.655924 106.870311 
L 613.674457 106.870311 
L 613.711486 107.13642 
L 613.785396 107.003358 
L 613.822277 107.003358 
L 613.8407 107.13642 
L 613.895893 106.737249 
L 613.932627 107.003358 
L 613.950976 107.003358 
L 614.097331 106.737249 
L 614.188411 106.737249 
L 614.261061 106.870311 
L 614.297314 106.737249 
L 614.33352 106.737249 
L 614.513842 107.269482 
L 614.56771 107.269482 
L 614.585643 107.402529 
L 614.621474 107.13642 
L 614.657259 107.13642 
L 614.675134 107.13642 
L 614.728689 107.003358 
L 614.817719 107.402529 
L 614.941882 106.737249 
L 615.012583 106.737249 
L 615.135877 106.604187 
L 615.153445 106.604187 
L 615.276114 106.737249 
L 615.328521 106.205032 
L 615.398243 106.338078 
L 615.433038 106.471141 
L 615.450419 106.205032 
L 615.485148 106.338078 
L 615.554477 105.938908 
L 615.623632 106.07197 
L 615.74424 106.07197 
L 615.881437 106.338078 
L 615.949781 106.338078 
L 616.000929 106.471141 
L 616.051982 106.338078 
L 616.170742 106.07197 
L 616.238377 106.07197 
L 616.389953 105.672799 
L 616.423524 105.672799 
L 616.540704 105.938908 
L 616.65739 105.672799 
L 616.674019 105.672799 
L 616.806695 105.938908 
L 616.872796 105.938908 
L 616.988093 105.805861 
L 617.20095 105.805861 
L 617.314891 105.938908 
L 617.34736 105.938908 
L 617.460701 105.805861 
L 617.702024 105.805861 
L 617.829875 105.938908 
L 617.877667 105.938908 
L 617.925376 106.07197 
L 617.988862 105.805861 
L 618.178449 106.870311 
L 618.194189 106.471141 
L 618.225643 107.003358 
L 618.288444 106.870311 
L 618.304122 106.870311 
L 618.398004 107.13642 
L 618.335452 106.737249 
L 618.429228 107.003358 
L 618.444826 107.003358 
L 618.615833 106.471141 
L 618.631326 106.471141 
L 618.677756 106.07197 
L 618.739541 106.604187 
L 618.83196 106.07197 
L 618.847333 106.471141 
L 618.893402 106.471141 
L 619.000599 106.07197 
L 619.061668 106.471141 
L 619.107382 106.205032 
L 619.198583 106.338078 
L 619.228917 105.938908 
L 619.244071 106.338078 
L 619.334824 106.205032 
L 619.365009 105.805861 
L 619.455367 106.07197 
L 619.485421 106.07197 
L 619.560414 105.938908 
L 619.575388 106.205032 
L 619.590354 106.07197 
L 619.635203 106.07197 
L 619.754448 105.938908 
L 619.887988 106.205032 
L 619.902786 106.205032 
L 620.020886 106.07197 
L 620.035613 106.07197 
L 620.109131 106.471141 
L 620.123812 106.07197 
L 620.240975 105.938908 
L 620.343087 106.338078 
L 620.357644 106.205032 
L 620.444824 106.604187 
L 620.459327 106.338078 
L 620.473823 106.205032 
L 620.488311 106.471141 
L 620.560639 106.338078 
L 620.575082 106.338078 
L 620.675971 106.07197 
L 620.805148 106.604187 
L 620.890932 106.338078 
L 620.919468 106.471141 
L 620.933725 106.471141 
L 621.047517 106.205032 
L 621.090068 106.205032 
L 621.118399 106.471141 
L 621.189101 106.205032 
L 621.245533 106.205032 
L 621.358052 106.737249 
L 621.470116 106.338078 
L 621.512024 106.338078 
L 621.637366 106.471141 
L 621.651258 106.471141 
L 621.665143 106.338078 
L 621.692892 106.604187 
L 621.762144 106.471141 
L 621.845017 106.338078 
L 621.886361 106.604187 
L 621.996311 106.338078 
L 622.010024 106.471141 
L 622.078487 106.471141 
L 622.146782 106.604187 
L 622.187678 106.471141 
L 622.201297 106.471141 
L 622.255704 106.604187 
L 622.310005 106.471141 
L 622.418288 106.471141 
L 622.512689 106.338078 
L 622.499223 106.604187 
L 622.526149 106.471141 
L 622.593349 106.471141 
L 622.740618 106.07197 
L 622.753968 106.07197 
L 622.847233 106.737249 
L 622.900387 106.471141 
L 622.913659 106.471141 
L 623.046036 106.870311 
L 623.164636 106.604187 
L 623.269633 106.870311 
L 623.335054 107.003358 
L 623.374233 106.604187 
L 623.452425 106.870311 
L 623.465435 106.471141 
L 623.491438 105.938908 
L 623.556338 106.604187 
L 623.5693 106.604187 
L 623.698585 106.870311 
L 623.71148 106.870311 
L 623.840104 106.604187 
L 623.916993 106.604187 
L 624.031927 106.870311 
L 624.044668 106.870311 
L 624.095573 106.604187 
L 624.159074 106.737249 
L 624.20977 107.003358 
L 624.260373 106.604187 
L 624.310884 106.471141 
L 624.28564 106.870311 
L 624.336104 106.870311 
L 624.348706 106.870311 
L 624.386477 106.471141 
L 624.461865 106.737249 
L 624.486949 106.737249 
L 624.587057 106.471141 
L 624.649442 106.737249 
L 624.699248 106.604187 
L 624.736544 106.604187 
L 624.810986 107.003358 
L 624.835755 106.737249 
L 624.848132 106.604187 
L 624.860503 107.003358 
L 624.934612 106.870311 
L 625.057689 107.003358 
L 625.069967 107.003358 
L 625.192445 106.870311 
L 625.216875 106.870311 
L 625.314383 107.003358 
L 625.326547 106.870311 
L 625.338706 106.870311 
L 625.460003 107.13642 
L 625.520453 106.870311 
L 625.544596 107.269482 
L 625.55666 107.003358 
L 625.677007 107.402529 
L 625.784875 107.003358 
L 625.892324 107.269482 
L 625.904237 107.13642 
L 625.916145 107.13642 
L 626.046795 107.402529 
L 626.105978 107.269482 
L 626.153234 107.402529 
L 626.176831 107.402529 
L 626.282772 107.13642 
L 626.294518 107.269482 
L 626.329727 107.269482 
L 626.400011 107.003358 
L 626.446767 107.13642 
L 626.458444 107.13642 
L 626.574943 106.870311 
L 627.070373 106.870311 
L 627.18433 106.737249 
L 627.388277 106.737249 
L 627.467186 106.604187 
L 627.48969 106.737249 
L 627.56831 106.870311 
L 627.523412 106.604187 
L 627.579524 106.604187 
L 627.590732 106.604187 
L 627.65789 106.870311 
L 627.702571 106.737249 
L 628.057448 106.737249 
L 628.068465 106.870311 
L 628.167421 106.737249 
L 628.602993 106.737249 
L 628.73234 106.471141 
L 628.818236 106.471141 
L 628.93591 106.604187 
L 629.031818 106.604187 
L 629.14859 106.737249 
L 629.159181 106.737249 
L 629.201505 106.338078 
L 629.26487 106.737249 
L 629.28596 106.737249 
L 629.391168 106.07197 
L 629.422652 106.338078 
L 629.694028 106.338078 
L 629.787349 106.471141 
L 629.797699 106.338078 
L 629.808045 106.338078 
L 629.921594 106.471141 
L 630.126861 106.471141 
L 630.208543 106.604187 
L 630.228926 106.471141 
L 630.239112 106.471141 
L 630.300149 106.737249 
L 630.35091 106.604187 
L 630.431935 106.604187 
L 630.55303 106.338078 
L 630.673597 106.604187 
L 630.68362 106.604187 
L 630.703657 106.338078 
L 630.723679 106.737249 
L 630.793641 106.471141 
L 630.923104 106.737249 
L 631.061852 106.338078 
L 631.081617 106.604187 
L 631.180228 106.471141 
L 631.19007 106.471141 
L 631.3079 106.338078 
L 631.609992 106.338078 
L 631.716399 106.471141 
L 631.822398 106.338078 
L 631.860843 106.471141 
L 631.889641 106.205032 
L 631.908824 106.205032 
L 631.91841 106.07197 
L 631.956722 106.471141 
L 632.01409 106.205032 
L 632.07134 106.205032 
L 632.090397 106.07197 
L 632.147489 106.338078 
L 632.175991 106.205032 
L 632.280248 106.205032 
L 632.308614 106.471141 
L 632.393537 106.338078 
L 632.450008 106.338078 
L 632.525124 106.205032 
L 632.55324 106.338078 
L 632.600037 106.338078 
L 632.712027 106.205032 
L 632.83284 106.205032 
L 632.953129 106.338078 
L 632.980814 106.471141 
L 633.072897 106.205032 
L 633.082089 106.205032 
L 633.201302 106.338078 
L 633.247016 106.338078 
L 633.356425 106.205032 
L 633.465402 106.338078 
L 633.537816 106.471141 
L 633.573952 106.205032 
L 633.673084 106.338078 
L 633.682078 106.205032 
L 633.69107 106.205032 
L 633.79874 106.07197 
L 633.888147 106.471141 
L 633.905994 106.07197 
L 633.914913 106.07197 
L 633.923829 106.338078 
L 634.021718 106.07197 
L 634.0306 106.07197 
L 634.101552 106.338078 
L 634.145805 106.205032 
L 634.154647 106.205032 
L 634.260533 106.338078 
L 634.374787 106.205032 
L 634.383556 106.205032 
L 634.497305 106.338078 
L 634.610588 106.07197 
L 634.688745 106.338078 
L 634.714748 106.07197 
L 634.73207 106.07197 
L 634.809884 106.205032 
L 634.835774 106.07197 
L 634.896089 106.07197 
L 634.921898 106.205032 
L 634.93909 105.938908 
L 634.990605 105.938908 
L 635.567829 105.938908 
L 635.668454 105.805861 
L 635.676823 105.938908 
L 635.693554 105.938908 
L 635.802055 105.805861 
L 635.918429 105.938908 
L 635.926723 105.938908 
L 636.034316 105.805861 
L 636.141492 105.938908 
L 636.157944 105.805861 
L 636.248255 105.938908 
L 636.256451 105.938908 
L 636.370934 106.07197 
L 636.411706 106.07197 
L 636.509315 105.938908 
L 636.517434 106.07197 
L 636.663163 106.07197 
L 636.77598 106.205032 
L 636.808129 106.205032 
L 636.81616 106.07197 
L 636.912356 106.205032 
L 636.992265 106.205032 
L 637.103751 106.07197 
L 637.127582 106.07197 
L 637.159326 106.205032 
L 637.238526 106.07197 
L 637.262242 106.07197 
L 637.380517 106.205032 
L 637.466933 106.205032 
L 637.474775 106.07197 
L 637.576527 106.205032 
L 637.677906 106.205032 
L 637.78667 105.938908 
L 637.794423 106.07197 
L 637.802173 106.07197 
L 637.910451 105.805861 
L 637.918169 105.938908 
L 637.933598 105.938908 
L 638.025994 105.805861 
L 637.99523 106.07197 
L 638.03368 106.07197 
L 638.041364 106.07197 
L 638.056725 105.805861 
L 638.148712 106.07197 
L 638.171661 106.07197 
L 638.225135 106.205032 
L 638.293735 105.805861 
L 638.36976 105.938908 
L 638.384939 105.672799 
L 638.392526 105.805861 
L 638.415274 105.938908 
L 638.490966 105.672799 
L 638.543827 105.938908 
L 638.604116 105.805861 
L 638.619168 105.805861 
L 638.731797 105.672799 
L 638.73929 105.672799 
L 638.799155 105.805861 
L 638.851432 105.539753 
L 638.86635 105.539753 
L 638.90361 105.805861 
L 638.970552 105.539753 
L 639.01509 105.539753 
L 639.022506 105.672799 
L 639.126122 105.539753 
L 639.192529 105.539753 
L 639.31753 105.273628 
L 639.37616 105.273628 
L 639.500337 105.539753 
L 639.616702 105.40669 
L 639.71089 105.672799 
L 639.732581 105.539753 
L 639.739807 105.539753 
L 639.804759 105.672799 
L 639.847976 105.539753 
L 639.862367 105.539753 
L 639.869559 105.672799 
L 639.970059 105.539753 
L 640.084471 105.40669 
L 640.091606 105.40669 
L 640.205517 105.273628 
L 640.212621 105.40669 
L 640.304807 105.273628 
L 640.318962 105.140582 
L 640.340181 105.40669 
L 640.410794 105.273628 
L 640.523403 105.40669 
L 640.572525 105.273628 
L 640.544466 105.539753 
L 640.62156 105.539753 
L 640.698441 105.539753 
L 640.733316 105.40669 
L 640.802935 105.539753 
L 640.816838 105.539753 
L 640.913962 105.672799 
L 640.927809 105.539753 
L 640.93473 105.539753 
L 641.003845 105.40669 
L 641.052123 105.672799 
L 641.059013 105.672799 
L 641.079673 105.805861 
L 641.175881 105.539753 
L 641.21016 105.539753 
L 641.217011 105.672799 
L 641.285425 105.40669 
L 641.319569 105.539753 
L 641.326393 105.539753 
L 641.408147 105.40669 
L 641.435345 105.539753 
L 641.448933 105.539753 
L 641.537099 105.40669 
L 641.557405 105.539753 
L 641.56417 105.539753 
L 641.665453 105.40669 
L 641.672192 105.539753 
L 641.678929 105.539753 
L 641.77308 105.40669 
L 641.786504 105.539753 
L 641.799922 105.539753 
L 641.91371 105.40669 
L 642.027032 105.539753 
L 642.073559 105.539753 
L 642.18623 105.672799 
L 642.239093 105.539753 
L 642.291855 105.672799 
L 642.324781 105.672799 
L 642.423323 105.539753 
L 642.42988 105.805861 
L 642.534582 105.672799 
L 642.573743 105.672799 
L 642.664905 105.805861 
L 642.6519 105.539753 
L 642.6844 105.672799 
L 642.703882 105.672799 
L 642.72335 105.805861 
L 642.814021 105.672799 
L 643.04582 105.672799 
L 643.15461 105.273628 
L 643.212032 105.672799 
L 643.205658 105.140582 
L 643.256611 105.273628 
L 643.269335 105.40669 
L 643.370915 105.140582 
L 643.38992 105.140582 
L 643.465809 105.40669 
L 643.497368 105.273628 
L 643.522589 105.40669 
L 643.604401 105.140582 
L 643.685971 105.273628 
L 643.711021 105.140582 
L 643.723538 105.140582 
L 643.804758 105.273628 
L 643.736049 105.00752 
L 643.823468 105.00752 
L 643.835934 105.00752 
L 643.947875 105.140582 
L 643.997481 105.140582 
L 644.034628 105.00752 
L 644.102601 105.140582 
L 644.256468 105.140582 
L 644.354496 105.273628 
L 644.366725 105.140582 
L 644.391167 105.140582 
L 644.50089 105.273628 
L 644.616238 105.140582 
L 644.719039 105.273628 
L 644.725074 105.140582 
L 644.731108 105.140582 
L 644.73714 105.273628 
L 644.809429 105.00752 
L 644.839494 105.140582 
L 644.845503 105.140582 
L 644.96541 104.874473 
L 644.977372 104.874473 
L 645.049037 105.140582 
L 645.090756 105.00752 
L 645.197746 104.874473 
L 645.227392 105.140582 
L 645.304324 104.874473 
L 645.819544 104.874473 
L 645.935314 105.00752 
L 646.021825 105.00752 
L 646.136753 104.874473 
L 646.245496 105.00752 
L 646.359502 104.874473 
L 646.439027 104.874473 
L 646.52398 105.00752 
L 646.546591 104.874473 
L 646.55224 104.874473 
L 646.664992 105.00752 
L 646.709965 105.00752 
L 646.822078 105.140582 
L 646.855623 105.140582 
L 646.967149 105.273628 
L 646.972713 105.273628 
L 647.08931 105.140582 
L 647.09485 105.140582 
L 647.155717 105.273628 
L 647.205418 105.140582 
L 647.249522 105.140582 
L 647.304553 105.273628 
L 647.359474 105.140582 
L 647.425237 105.140582 
L 647.529043 105.00752 
L 647.534496 105.140582 
L 647.539947 105.140582 
L 647.659612 104.874473 
L 647.665039 104.874473 
L 647.778762 105.140582 
L 647.859707 104.741411 
L 647.892019 104.874473 
L 647.91354 104.874473 
L 648.020892 104.608349 
L 648.015534 105.00752 
L 648.026248 104.741411 
L 648.036958 104.608349 
L 648.133165 105.00752 
L 648.1385 104.608349 
L 648.244984 104.741411 
L 648.25561 104.741411 
L 648.345766 105.00752 
L 648.361646 104.874473 
L 648.382804 105.00752 
L 648.472548 104.741411 
L 648.572507 105.00752 
L 648.583008 104.741411 
L 648.588257 104.741411 
L 648.693028 105.140582 
L 648.698257 105.00752 
L 648.713935 105.00752 
L 648.766133 105.273628 
L 648.828641 105.140582 
L 648.870235 105.140582 
L 648.973947 105.00752 
L 648.979122 105.140582 
L 648.994643 105.140582 
L 649.051477 105.00752 
L 649.092737 105.273628 
L 649.103043 104.741411 
L 649.21102 105.938908 
L 649.313465 105.539753 
L 649.323688 105.672799 
L 649.364545 105.805861 
L 649.37475 105.539753 
L 649.43081 105.672799 
L 649.456254 105.672799 
L 649.578061 106.07197 
L 649.638764 106.07197 
L 649.653919 105.938908 
L 649.724533 106.205032 
L 649.744676 106.205032 
L 649.784917 106.205032 
L 649.900284 106.07197 
L 649.905289 106.07197 
L 650.020157 105.938908 
L 650.094815 105.938908 
L 650.213851 105.672799 
L 650.253416 105.672799 
L 650.366851 105.805861 
L 650.445489 105.805861 
L 650.563029 105.539753 
L 650.597218 105.539753 
L 650.714117 105.805861 
L 650.849878 105.805861 
L 650.965717 105.672799 
L 651.004223 105.672799 
L 651.090665 104.874473 
L 651.08587 106.205032 
L 651.109838 105.672799 
L 651.210278 106.07197 
L 651.229368 105.938908 
L 651.234138 105.938908 
L 651.257978 105.805861 
L 651.305597 106.07197 
L 651.338881 106.07197 
L 651.391104 106.471141 
L 651.457428 106.338078 
L 651.490531 106.338078 
L 651.580181 106.471141 
L 651.599018 106.338078 
L 651.613137 106.338078 
L 651.735203 105.938908 
L 651.782008 105.938908 
L 651.880042 105.672799 
L 651.889361 106.338078 
L 651.931255 105.273628 
L 652.000939 105.539753 
L 652.005579 105.672799 
L 652.079703 105.40669 
L 652.107448 105.40669 
L 652.11669 105.40669 
L 652.23656 105.140582 
L 652.264149 105.140582 
L 652.383384 105.40669 
L 652.415398 105.40669 
L 652.538535 105.805861 
L 652.556731 105.805861 
L 652.647532 105.938908 
L 652.665656 105.805861 
L 652.710916 105.805861 
L 652.823742 105.672799 
L 652.88223 105.672799 
L 652.994361 105.539753 
L 653.083741 105.539753 
L 653.19506 105.40669 
L 653.21283 105.40669 
L 653.328056 105.539753 
L 653.464816 105.539753 
L 653.579 105.672799 
L 653.766815 105.672799 
L 653.879762 105.805861 
L 654.24155 105.805861 
L 654.361103 106.07197 
L 654.750324 106.07197 
L 654.86352 105.938908 
L 655.216887 105.938908 
L 655.340536 105.40669 
L 655.38163 105.40669 
L 655.496369 105.00752 
L 655.500458 105.140582 
L 655.512721 105.140582 
L 655.626919 105.00752 
L 656.042997 105.00752 
L 656.155032 105.140582 
L 656.159025 105.140582 
L 656.270593 105.00752 
L 656.274569 105.00752 
L 656.389633 105.140582 
L 656.405467 105.140582 
L 656.519989 105.00752 
L 656.575106 105.140582 
L 656.55937 104.874473 
L 656.630114 105.00752 
L 656.743713 104.874473 
L 656.767158 104.874473 
L 656.880196 104.741411 
L 656.992775 104.874473 
L 657.579262 104.874473 
L 657.696594 104.608349 
L 657.719246 104.608349 
L 657.832229 104.475303 
L 657.914791 104.475303 
L 658.019515 104.608349 
L 657.941009 104.34224 
L 658.023248 104.475303 
L 658.034443 104.475303 
L 658.056821 104.608349 
L 658.060548 104.34224 
L 658.138716 104.34224 
L 658.142433 104.34224 
L 658.246301 104.475303 
L 658.250004 104.34224 
L 658.257407 104.34224 
L 658.261108 104.475303 
L 658.368219 104.34224 
L 658.430816 104.34224 
L 658.548263 104.076132 
L 658.551925 104.076132 
L 658.562909 104.209194 
L 658.661567 104.076132 
L 659.128139 104.076132 
L 659.24267 104.209194 
L 659.562272 104.209194 
L 659.675025 104.34224 
L 659.790823 104.076132 
L 660.37637 104.076132 
L 660.393507 103.94307 
L 660.485862 104.076132 
L 660.65608 104.076132 
L 660.771233 103.810023 
L 660.801635 103.810023 
L 660.902734 103.676961 
L 660.862339 103.94307 
L 660.906098 103.810023 
L 660.946429 103.94307 
L 660.916186 103.676961 
L 661.016868 103.810023 
L 661.133869 103.810023 
L 661.247056 103.94307 
L 661.419276 103.94307 
L 661.534592 104.209194 
L 661.711571 104.209194 
L 661.825679 104.34224 
L 661.936078 104.34224 
L 662.023435 104.475303 
L 662.04281 104.209194 
L 662.046038 105.00752 
L 662.120176 103.676961 
L 662.149133 103.810023 
L 662.267859 103.410852 
L 662.271061 103.410852 
L 662.386078 103.810023 
L 662.449771 103.676961 
L 662.481562 104.076132 
L 662.487916 104.076132 
L 662.526009 104.076132 
L 662.639974 103.94307 
L 662.66208 103.94307 
L 662.690475 103.676961 
L 662.772343 103.94307 
L 663.028968 103.94307 
L 663.038312 103.676961 
L 663.140885 103.810023 
L 663.252352 103.676961 
L 663.277062 103.676961 
L 663.391057 103.543899 
L 663.587137 103.543899 
L 663.705946 103.94307 
L 663.727216 103.94307 
L 663.842402 104.209194 
L 663.884718 104.209194 
L 663.999251 103.94307 
L 664.002259 103.94307 
L 664.116308 104.076132 
L 664.529529 104.076132 
L 664.64437 104.34224 
L 664.910492 104.34224 
L 665.026664 104.076132 
L 665.306373 104.076132 
L 665.418041 103.94307 
L 665.969725 103.94307 
L 666.081544 104.076132 
L 666.639434 104.076132 
L 666.754032 104.34224 
L 667.062714 104.34224 
L 667.175577 104.475303 
L 667.239864 104.475303 
L 667.338681 104.608349 
L 667.349343 104.475303 
L 667.772485 104.475303 
L 667.887724 104.209194 
L 668.007691 104.209194 
L 668.108996 104.475303 
L 668.119365 104.34224 
L 668.134912 104.34224 
L 668.246075 104.475303 
L 668.587106 104.475303 
L 668.69901 104.608349 
L 668.726916 104.608349 
L 668.729451 104.475303 
L 668.835731 104.608349 
L 668.999412 104.608349 
L 669.112166 104.741411 
L 669.25433 104.741411 
L 669.366052 104.608349 
L 669.5291 104.608349 
L 669.642173 104.741411 
L 670.157408 104.741411 
L 670.270347 104.874473 
L 672.161102 104.874473 
L 672.270633 104.741411 
L 672.328575 104.874473 
L 672.379731 104.741411 
L 672.653912 104.741411 
L 672.765896 104.608349 
L 673.157552 104.608349 
L 673.269673 104.475303 
L 674.416186 104.475303 
L 674.527445 104.34224 
L 676.109873 104.34224 
L 676.22228 104.209194 
L 678.284572 104.209194 
L 678.397442 104.076132 
L 679.096565 104.076132 
L 679.207916 103.94307 
L 679.375832 103.94307 
L 679.486067 103.676961 
L 679.487786 103.810023 
L 679.506687 103.810023 
L 679.618114 103.676961 
L 680.405752 103.676961 
L 680.516937 103.810023 
L 683.292789 103.810023 
L 683.404921 103.676961 
L 684.619298 103.676961 
L 684.730461 103.543899 
L 684.767416 103.543899 
L 684.879402 103.676961 
L 686.655989 103.676961 
L 686.767212 103.810023 
L 686.888516 103.810023 
L 687.00012 103.94307 
L 693.555673 103.94307 
L 693.667124 104.076132 
L 693.669184 104.076132 
L 693.706232 103.94307 
L 693.780179 104.076132 
L 695.599156 104.076132 
L 695.710344 103.94307 
L 695.741894 103.94307 
L 695.777225 105.805861 
L 695.790582 103.144744 
L 695.849656 103.543899 
L 695.859173 103.543899 
L 695.973114 103.94307 
L 695.977851 103.94307 
L 696.086588 103.27779 
L 696.091306 103.543899 
L 696.09508 103.543899 
L 696.130906 103.410852 
L 696.186438 103.810023 
L 696.205238 103.676961 
L 696.225902 103.676961 
L 696.314959 103.144744 
L 696.339282 103.27779 
L 696.341152 103.27779 
L 696.453131 103.410852 
L 696.457787 103.410852 
L 696.569295 103.543899 
L 696.573005 103.543899 
L 696.685898 103.810023 
L 696.686822 103.810023 
L 696.782693 103.676961 
L 696.797413 103.810023 
L 696.829586 103.810023 
L 696.94144 103.676961 
L 696.951503 103.676961 
L 697.062866 103.810023 
L 697.176505 103.810023 
L 697.287873 103.676961 
L 697.368177 103.676961 
L 697.479675 103.810023 
L 697.518235 103.810023 
L 697.630023 103.676961 
L 697.789323 103.676961 
L 697.900908 103.543899 
L 698.255686 103.543899 
L 698.368017 103.27779 
L 699.368225 103.27779 
L 699.47948 103.410852 
L 701.105434 103.410852 
L 701.216991 103.543899 
L 704.356348 103.543899 
L 704.468117 103.676961 
L 704.72625 103.676961 
L 704.72625 103.676961 
" clip-path="url(#p8b5b010cb9)" style="fill: none; stroke: #1f77b4; stroke-width: 1.5; stroke-linecap: square"/>
   </g>
   <g id="patch_3">
    <path d="M 347.60625 311.6435 
L 347.60625 45.5315 
" style="fill: none; stroke: #000000; stroke-width: 0.8; stroke-linejoin: miter; stroke-linecap: square"/>
   </g>
   <g id="patch_4">
    <path d="M 704.72625 311.6435 
L 704.72625 45.5315 
" style="fill: none; stroke: #000000; stroke-width: 0.8; stroke-linejoin: miter; stroke-linecap: square"/>
   </g>
   <g id="patch_5">
    <path d="M 347.60625 311.6435 
L 704.72625 311.6435 
" style="fill: none; stroke: #000000; stroke-width: 0.8; stroke-linejoin: miter; stroke-linecap: square"/>
   </g>
   <g id="patch_6">
    <path d="M 347.60625 45.5315 
L 704.72625 45.5315 
" style="fill: none; stroke: #000000; stroke-width: 0.8; stroke-linejoin: miter; stroke-linecap: square"/>
   </g>
   <g id="text_18">
    <!-- Accuracy of the 19_06_25_CIFAR10_torch_model_(1024+512-512.1-1)_e-h on the validation set -->
    <g transform="translate(7.2 25.5315) scale(0.264 -0.264)">
     <defs>
      <path id="TimesNewRomanPSMT-20" transform="scale(0.015625)"/>
      <path id="TimesNewRomanPSMT-6f" d="M 1600 2947 
Q 2250 2947 2644 2453 
Q 2978 2031 2978 1484 
Q 2978 1100 2793 706 
Q 2609 313 2286 112 
Q 1963 -88 1566 -88 
Q 919 -88 538 428 
Q 216 863 216 1403 
Q 216 1797 411 2186 
Q 606 2575 925 2761 
Q 1244 2947 1600 2947 
z
M 1503 2744 
Q 1338 2744 1170 2645 
Q 1003 2547 900 2300 
Q 797 2053 797 1666 
Q 797 1041 1045 587 
Q 1294 134 1700 134 
Q 2003 134 2200 384 
Q 2397 634 2397 1244 
Q 2397 2006 2069 2444 
Q 1847 2744 1503 2744 
z
" transform="scale(0.015625)"/>
      <path id="TimesNewRomanPSMT-66" d="M 1319 2638 
L 1319 756 
Q 1319 356 1406 250 
Q 1522 113 1716 113 
L 1975 113 
L 1975 0 
L 266 0 
L 266 113 
L 394 113 
Q 519 113 622 175 
Q 725 238 764 344 
Q 803 450 803 756 
L 803 2638 
L 247 2638 
L 247 2863 
L 803 2863 
L 803 3050 
Q 803 3478 940 3775 
Q 1078 4072 1361 4255 
Q 1644 4438 1997 4438 
Q 2325 4438 2600 4225 
Q 2781 4084 2781 3909 
Q 2781 3816 2700 3733 
Q 2619 3650 2525 3650 
Q 2453 3650 2373 3701 
Q 2294 3753 2178 3923 
Q 2063 4094 1966 4153 
Q 1869 4213 1750 4213 
Q 1606 4213 1506 4136 
Q 1406 4059 1362 3898 
Q 1319 3738 1319 3069 
L 1319 2863 
L 2056 2863 
L 2056 2638 
L 1319 2638 
z
" transform="scale(0.015625)"/>
      <path id="TimesNewRomanPSMT-74" d="M 1031 3803 
L 1031 2863 
L 1700 2863 
L 1700 2644 
L 1031 2644 
L 1031 788 
Q 1031 509 1111 412 
Q 1191 316 1316 316 
Q 1419 316 1516 380 
Q 1613 444 1666 569 
L 1788 569 
Q 1678 263 1478 108 
Q 1278 -47 1066 -47 
Q 922 -47 784 33 
Q 647 113 581 261 
Q 516 409 516 719 
L 516 2644 
L 63 2644 
L 63 2747 
Q 234 2816 414 2980 
Q 594 3144 734 3369 
Q 806 3488 934 3803 
L 1031 3803 
z
" transform="scale(0.015625)"/>
      <path id="TimesNewRomanPSMT-68" d="M 1041 4444 
L 1041 2350 
Q 1388 2731 1591 2839 
Q 1794 2947 1997 2947 
Q 2241 2947 2416 2812 
Q 2591 2678 2675 2391 
Q 2734 2191 2734 1659 
L 2734 647 
Q 2734 375 2778 275 
Q 2809 200 2884 156 
Q 2959 113 3159 113 
L 3159 0 
L 1753 0 
L 1753 113 
L 1819 113 
Q 2019 113 2097 173 
Q 2175 234 2206 353 
Q 2216 403 2216 647 
L 2216 1659 
Q 2216 2128 2167 2275 
Q 2119 2422 2012 2495 
Q 1906 2569 1756 2569 
Q 1603 2569 1437 2487 
Q 1272 2406 1041 2159 
L 1041 647 
Q 1041 353 1073 281 
Q 1106 209 1195 161 
Q 1284 113 1503 113 
L 1503 0 
L 84 0 
L 84 113 
Q 275 113 384 172 
Q 447 203 484 290 
Q 522 378 522 647 
L 522 3238 
Q 522 3728 498 3840 
Q 475 3953 426 3993 
Q 378 4034 297 4034 
Q 231 4034 84 3984 
L 41 4094 
L 897 4444 
L 1041 4444 
z
" transform="scale(0.015625)"/>
      <path id="TimesNewRomanPSMT-65" d="M 681 1784 
Q 678 1147 991 784 
Q 1303 422 1725 422 
Q 2006 422 2214 576 
Q 2422 731 2563 1106 
L 2659 1044 
Q 2594 616 2278 264 
Q 1963 -88 1488 -88 
Q 972 -88 605 314 
Q 238 716 238 1394 
Q 238 2128 614 2539 
Q 991 2950 1559 2950 
Q 2041 2950 2350 2633 
Q 2659 2316 2659 1784 
L 681 1784 
z
M 681 1966 
L 2006 1966 
Q 1991 2241 1941 2353 
Q 1863 2528 1708 2628 
Q 1553 2728 1384 2728 
Q 1125 2728 920 2526 
Q 716 2325 681 1966 
z
" transform="scale(0.015625)"/>
      <path id="TimesNewRomanPSMT-5f" d="M 3256 -1381 
L -53 -1381 
L -53 -1119 
L 3256 -1119 
L 3256 -1381 
z
" transform="scale(0.015625)"/>
      <path id="TimesNewRomanPSMT-43" d="M 3853 4334 
L 3950 2894 
L 3853 2894 
Q 3659 3541 3300 3825 
Q 2941 4109 2438 4109 
Q 2016 4109 1675 3895 
Q 1334 3681 1139 3212 
Q 944 2744 944 2047 
Q 944 1472 1128 1050 
Q 1313 628 1683 403 
Q 2053 178 2528 178 
Q 2941 178 3256 354 
Q 3572 531 3950 1056 
L 4047 994 
Q 3728 428 3303 165 
Q 2878 -97 2294 -97 
Q 1241 -97 663 684 
Q 231 1266 231 2053 
Q 231 2688 515 3219 
Q 800 3750 1298 4042 
Q 1797 4334 2388 4334 
Q 2847 4334 3294 4109 
Q 3425 4041 3481 4041 
Q 3566 4041 3628 4100 
Q 3709 4184 3744 4334 
L 3853 4334 
z
" transform="scale(0.015625)"/>
      <path id="TimesNewRomanPSMT-49" d="M 1975 116 
L 1975 0 
L 159 0 
L 159 116 
L 309 116 
Q 572 116 691 269 
Q 766 369 766 750 
L 766 3488 
Q 766 3809 725 3913 
Q 694 3991 597 4047 
Q 459 4122 309 4122 
L 159 4122 
L 159 4238 
L 1975 4238 
L 1975 4122 
L 1822 4122 
Q 1563 4122 1444 3969 
Q 1366 3869 1366 3488 
L 1366 750 
Q 1366 428 1406 325 
Q 1438 247 1538 191 
Q 1672 116 1822 116 
L 1975 116 
z
" transform="scale(0.015625)"/>
      <path id="TimesNewRomanPSMT-46" d="M 1309 4006 
L 1309 2341 
L 2081 2341 
Q 2347 2341 2470 2458 
Q 2594 2575 2634 2922 
L 2750 2922 
L 2750 1488 
L 2634 1488 
Q 2631 1734 2570 1850 
Q 2509 1966 2401 2023 
Q 2294 2081 2081 2081 
L 1309 2081 
L 1309 750 
Q 1309 428 1350 325 
Q 1381 247 1481 191 
Q 1619 116 1769 116 
L 1922 116 
L 1922 0 
L 103 0 
L 103 116 
L 253 116 
Q 516 116 634 269 
Q 709 369 709 750 
L 709 3488 
Q 709 3809 669 3913 
Q 638 3991 541 4047 
Q 406 4122 253 4122 
L 103 4122 
L 103 4238 
L 3256 4238 
L 3297 3306 
L 3188 3306 
Q 3106 3603 2998 3742 
Q 2891 3881 2733 3943 
Q 2575 4006 2244 4006 
L 1309 4006 
z
" transform="scale(0.015625)"/>
      <path id="TimesNewRomanPSMT-52" d="M 4325 0 
L 3194 0 
L 1759 1981 
Q 1600 1975 1500 1975 
Q 1459 1975 1412 1976 
Q 1366 1978 1316 1981 
L 1316 750 
Q 1316 350 1403 253 
Q 1522 116 1759 116 
L 1925 116 
L 1925 0 
L 109 0 
L 109 116 
L 269 116 
Q 538 116 653 291 
Q 719 388 719 750 
L 719 3488 
Q 719 3888 631 3984 
Q 509 4122 269 4122 
L 109 4122 
L 109 4238 
L 1653 4238 
Q 2328 4238 2648 4139 
Q 2969 4041 3192 3777 
Q 3416 3513 3416 3147 
Q 3416 2756 3161 2468 
Q 2906 2181 2372 2063 
L 3247 847 
Q 3547 428 3762 290 
Q 3978 153 4325 116 
L 4325 0 
z
M 1316 2178 
Q 1375 2178 1419 2176 
Q 1463 2175 1491 2175 
Q 2097 2175 2405 2437 
Q 2713 2700 2713 3106 
Q 2713 3503 2464 3751 
Q 2216 4000 1806 4000 
Q 1625 4000 1316 3941 
L 1316 2178 
z
" transform="scale(0.015625)"/>
      <path id="TimesNewRomanPSMT-6d" d="M 1050 2338 
Q 1363 2650 1419 2697 
Q 1559 2816 1721 2881 
Q 1884 2947 2044 2947 
Q 2313 2947 2506 2790 
Q 2700 2634 2766 2338 
Q 3088 2713 3309 2830 
Q 3531 2947 3766 2947 
Q 3994 2947 4170 2830 
Q 4347 2713 4450 2447 
Q 4519 2266 4519 1878 
L 4519 647 
Q 4519 378 4559 278 
Q 4591 209 4675 161 
Q 4759 113 4950 113 
L 4950 0 
L 3538 0 
L 3538 113 
L 3597 113 
Q 3781 113 3884 184 
Q 3956 234 3988 344 
Q 4000 397 4000 647 
L 4000 1878 
Q 4000 2228 3916 2372 
Q 3794 2572 3525 2572 
Q 3359 2572 3192 2489 
Q 3025 2406 2788 2181 
L 2781 2147 
L 2788 2013 
L 2788 647 
Q 2788 353 2820 281 
Q 2853 209 2943 161 
Q 3034 113 3253 113 
L 3253 0 
L 1806 0 
L 1806 113 
Q 2044 113 2133 169 
Q 2222 225 2256 338 
Q 2272 391 2272 647 
L 2272 1878 
Q 2272 2228 2169 2381 
Q 2031 2581 1784 2581 
Q 1616 2581 1450 2491 
Q 1191 2353 1050 2181 
L 1050 647 
Q 1050 366 1089 281 
Q 1128 197 1204 155 
Q 1281 113 1516 113 
L 1516 0 
L 100 0 
L 100 113 
Q 297 113 375 155 
Q 453 197 493 289 
Q 534 381 534 647 
L 534 1741 
Q 534 2213 506 2350 
Q 484 2453 437 2492 
Q 391 2531 309 2531 
Q 222 2531 100 2484 
L 53 2597 
L 916 2947 
L 1050 2947 
L 1050 2338 
z
" transform="scale(0.015625)"/>
      <path id="TimesNewRomanPSMT-64" d="M 2222 322 
Q 2013 103 1813 7 
Q 1613 -88 1381 -88 
Q 913 -88 563 304 
Q 213 697 213 1313 
Q 213 1928 600 2439 
Q 988 2950 1597 2950 
Q 1975 2950 2222 2709 
L 2222 3238 
Q 2222 3728 2198 3840 
Q 2175 3953 2125 3993 
Q 2075 4034 2000 4034 
Q 1919 4034 1784 3984 
L 1744 4094 
L 2597 4444 
L 2738 4444 
L 2738 1134 
Q 2738 631 2761 520 
Q 2784 409 2836 365 
Q 2888 322 2956 322 
Q 3041 322 3181 375 
L 3216 266 
L 2366 -88 
L 2222 -88 
L 2222 322 
z
M 2222 541 
L 2222 2016 
Q 2203 2228 2109 2403 
Q 2016 2578 1861 2667 
Q 1706 2756 1559 2756 
Q 1284 2756 1069 2509 
Q 784 2184 784 1559 
Q 784 928 1059 592 
Q 1334 256 1672 256 
Q 1956 256 2222 541 
z
" transform="scale(0.015625)"/>
      <path id="TimesNewRomanPSMT-6c" d="M 1184 4444 
L 1184 647 
Q 1184 378 1223 290 
Q 1263 203 1344 158 
Q 1425 113 1647 113 
L 1647 0 
L 244 0 
L 244 113 
Q 441 113 512 153 
Q 584 194 625 287 
Q 666 381 666 647 
L 666 3247 
Q 666 3731 644 3842 
Q 622 3953 573 3993 
Q 525 4034 450 4034 
Q 369 4034 244 3984 
L 191 4094 
L 1044 4444 
L 1184 4444 
z
" transform="scale(0.015625)"/>
      <path id="TimesNewRomanPSMT-28" d="M 1988 -1253 
L 1988 -1369 
Q 1516 -1131 1200 -813 
Q 750 -359 506 256 
Q 263 872 263 1534 
Q 263 2503 741 3301 
Q 1219 4100 1988 4444 
L 1988 4313 
Q 1603 4100 1356 3731 
Q 1109 3363 987 2797 
Q 866 2231 866 1616 
Q 866 947 969 400 
Q 1050 -31 1165 -292 
Q 1281 -553 1476 -793 
Q 1672 -1034 1988 -1253 
z
" transform="scale(0.015625)"/>
      <path id="TimesNewRomanPSMT-2b" d="M 1672 441 
L 1672 2000 
L 116 2000 
L 116 2256 
L 1672 2256 
L 1672 3809 
L 1922 3809 
L 1922 2256 
L 3484 2256 
L 3484 2000 
L 1922 2000 
L 1922 441 
L 1672 441 
z
" transform="scale(0.015625)"/>
      <path id="TimesNewRomanPSMT-2d" d="M 259 1672 
L 1875 1672 
L 1875 1200 
L 259 1200 
L 259 1672 
z
" transform="scale(0.015625)"/>
      <path id="TimesNewRomanPSMT-29" d="M 144 4313 
L 144 4444 
Q 619 4209 934 3891 
Q 1381 3434 1625 2820 
Q 1869 2206 1869 1541 
Q 1869 572 1392 -226 
Q 916 -1025 144 -1369 
L 144 -1253 
Q 528 -1038 776 -670 
Q 1025 -303 1145 264 
Q 1266 831 1266 1447 
Q 1266 2113 1163 2663 
Q 1084 3094 967 3353 
Q 850 3613 656 3853 
Q 463 4094 144 4313 
z
" transform="scale(0.015625)"/>
      <path id="TimesNewRomanPSMT-6e" d="M 1034 2341 
Q 1538 2947 1994 2947 
Q 2228 2947 2397 2830 
Q 2566 2713 2666 2444 
Q 2734 2256 2734 1869 
L 2734 647 
Q 2734 375 2778 278 
Q 2813 200 2889 156 
Q 2966 113 3172 113 
L 3172 0 
L 1756 0 
L 1756 113 
L 1816 113 
Q 2016 113 2095 173 
Q 2175 234 2206 353 
Q 2219 400 2219 647 
L 2219 1819 
Q 2219 2209 2117 2386 
Q 2016 2563 1775 2563 
Q 1403 2563 1034 2156 
L 1034 647 
Q 1034 356 1069 288 
Q 1113 197 1189 155 
Q 1266 113 1500 113 
L 1500 0 
L 84 0 
L 84 113 
L 147 113 
Q 366 113 442 223 
Q 519 334 519 647 
L 519 1709 
Q 519 2225 495 2337 
Q 472 2450 423 2490 
Q 375 2531 294 2531 
Q 206 2531 84 2484 
L 38 2597 
L 900 2947 
L 1034 2947 
L 1034 2341 
z
" transform="scale(0.015625)"/>
      <path id="TimesNewRomanPSMT-76" d="M 53 2863 
L 1400 2863 
L 1400 2747 
L 1313 2747 
Q 1191 2747 1127 2687 
Q 1063 2628 1063 2528 
Q 1063 2419 1128 2269 
L 1794 688 
L 2463 2328 
Q 2534 2503 2534 2594 
Q 2534 2638 2509 2666 
Q 2475 2713 2422 2730 
Q 2369 2747 2206 2747 
L 2206 2863 
L 3141 2863 
L 3141 2747 
Q 2978 2734 2916 2681 
Q 2806 2588 2719 2369 
L 1703 -88 
L 1575 -88 
L 553 2328 
Q 484 2497 421 2570 
Q 359 2644 263 2694 
Q 209 2722 53 2747 
L 53 2863 
z
" transform="scale(0.015625)"/>
      <path id="TimesNewRomanPSMT-69" d="M 928 4444 
Q 1059 4444 1151 4351 
Q 1244 4259 1244 4128 
Q 1244 3997 1151 3903 
Q 1059 3809 928 3809 
Q 797 3809 703 3903 
Q 609 3997 609 4128 
Q 609 4259 701 4351 
Q 794 4444 928 4444 
z
M 1188 2947 
L 1188 647 
Q 1188 378 1227 289 
Q 1266 200 1342 156 
Q 1419 113 1622 113 
L 1622 0 
L 231 0 
L 231 113 
Q 441 113 512 153 
Q 584 194 626 287 
Q 669 381 669 647 
L 669 1750 
Q 669 2216 641 2353 
Q 619 2453 572 2492 
Q 525 2531 444 2531 
Q 356 2531 231 2484 
L 188 2597 
L 1050 2947 
L 1188 2947 
z
" transform="scale(0.015625)"/>
      <path id="TimesNewRomanPSMT-73" d="M 2050 2947 
L 2050 1972 
L 1947 1972 
Q 1828 2431 1642 2597 
Q 1456 2763 1169 2763 
Q 950 2763 815 2647 
Q 681 2531 681 2391 
Q 681 2216 781 2091 
Q 878 1963 1175 1819 
L 1631 1597 
Q 2266 1288 2266 781 
Q 2266 391 1970 151 
Q 1675 -88 1309 -88 
Q 1047 -88 709 6 
Q 606 38 541 38 
Q 469 38 428 -44 
L 325 -44 
L 325 978 
L 428 978 
Q 516 541 762 319 
Q 1009 97 1316 97 
Q 1531 97 1667 223 
Q 1803 350 1803 528 
Q 1803 744 1651 891 
Q 1500 1038 1047 1263 
Q 594 1488 453 1669 
Q 313 1847 313 2119 
Q 313 2472 555 2709 
Q 797 2947 1181 2947 
Q 1350 2947 1591 2875 
Q 1750 2828 1803 2828 
Q 1853 2828 1881 2850 
Q 1909 2872 1947 2947 
L 2050 2947 
z
" transform="scale(0.015625)"/>
     </defs>
     <use xlink:href="#TimesNewRomanPSMT-41"/>
     <use xlink:href="#TimesNewRomanPSMT-63" transform="translate(72.216797 0)"/>
     <use xlink:href="#TimesNewRomanPSMT-63" transform="translate(116.601562 0)"/>
     <use xlink:href="#TimesNewRomanPSMT-75" transform="translate(160.986328 0)"/>
     <use xlink:href="#TimesNewRomanPSMT-72" transform="translate(210.986328 0)"/>
     <use xlink:href="#TimesNewRomanPSMT-61" transform="translate(244.287109 0)"/>
     <use xlink:href="#TimesNewRomanPSMT-63" transform="translate(288.671875 0)"/>
     <use xlink:href="#TimesNewRomanPSMT-79" transform="translate(333.056641 0)"/>
     <use xlink:href="#TimesNewRomanPSMT-20" transform="translate(383.056641 0)"/>
     <use xlink:href="#TimesNewRomanPSMT-6f" transform="translate(408.056641 0)"/>
     <use xlink:href="#TimesNewRomanPSMT-66" transform="translate(458.056641 0)"/>
     <use xlink:href="#TimesNewRomanPSMT-20" transform="translate(491.357422 0)"/>
     <use xlink:href="#TimesNewRomanPSMT-74" transform="translate(516.357422 0)"/>
     <use xlink:href="#TimesNewRomanPSMT-68" transform="translate(544.140625 0)"/>
     <use xlink:href="#TimesNewRomanPSMT-65" transform="translate(594.140625 0)"/>
     <use xlink:href="#TimesNewRomanPSMT-20" transform="translate(638.525391 0)"/>
     <use xlink:href="#TimesNewRomanPSMT-31" transform="translate(663.525391 0)"/>
     <use xlink:href="#TimesNewRomanPSMT-39" transform="translate(713.525391 0)"/>
     <use xlink:href="#TimesNewRomanPSMT-5f" transform="translate(763.525391 0)"/>
     <use xlink:href="#TimesNewRomanPSMT-30" transform="translate(813.525391 0)"/>
     <use xlink:href="#TimesNewRomanPSMT-36" transform="translate(863.525391 0)"/>
     <use xlink:href="#TimesNewRomanPSMT-5f" transform="translate(913.525391 0)"/>
     <use xlink:href="#TimesNewRomanPSMT-32" transform="translate(963.525391 0)"/>
     <use xlink:href="#TimesNewRomanPSMT-35" transform="translate(1013.525391 0)"/>
     <use xlink:href="#TimesNewRomanPSMT-5f" transform="translate(1063.525391 0)"/>
     <use xlink:href="#TimesNewRomanPSMT-43" transform="translate(1113.525391 0)"/>
     <use xlink:href="#TimesNewRomanPSMT-49" transform="translate(1180.224609 0)"/>
     <use xlink:href="#TimesNewRomanPSMT-46" transform="translate(1213.525391 0)"/>
     <use xlink:href="#TimesNewRomanPSMT-41" transform="translate(1261.765625 0)"/>
     <use xlink:href="#TimesNewRomanPSMT-52" transform="translate(1333.982422 0)"/>
     <use xlink:href="#TimesNewRomanPSMT-31" transform="translate(1400.681641 0)"/>
     <use xlink:href="#TimesNewRomanPSMT-30" transform="translate(1450.681641 0)"/>
     <use xlink:href="#TimesNewRomanPSMT-5f" transform="translate(1500.681641 0)"/>
     <use xlink:href="#TimesNewRomanPSMT-74" transform="translate(1550.681641 0)"/>
     <use xlink:href="#TimesNewRomanPSMT-6f" transform="translate(1578.464844 0)"/>
     <use xlink:href="#TimesNewRomanPSMT-72" transform="translate(1628.464844 0)"/>
     <use xlink:href="#TimesNewRomanPSMT-63" transform="translate(1661.765625 0)"/>
     <use xlink:href="#TimesNewRomanPSMT-68" transform="translate(1706.150391 0)"/>
     <use xlink:href="#TimesNewRomanPSMT-5f" transform="translate(1756.150391 0)"/>
     <use xlink:href="#TimesNewRomanPSMT-6d" transform="translate(1806.150391 0)"/>
     <use xlink:href="#TimesNewRomanPSMT-6f" transform="translate(1883.933594 0)"/>
     <use xlink:href="#TimesNewRomanPSMT-64" transform="translate(1933.933594 0)"/>
     <use xlink:href="#TimesNewRomanPSMT-65" transform="translate(1983.933594 0)"/>
     <use xlink:href="#TimesNewRomanPSMT-6c" transform="translate(2028.318359 0)"/>
     <use xlink:href="#TimesNewRomanPSMT-5f" transform="translate(2056.101562 0)"/>
     <use xlink:href="#TimesNewRomanPSMT-28" transform="translate(2106.101562 0)"/>
     <use xlink:href="#TimesNewRomanPSMT-31" transform="translate(2139.402344 0)"/>
     <use xlink:href="#TimesNewRomanPSMT-30" transform="translate(2189.402344 0)"/>
     <use xlink:href="#TimesNewRomanPSMT-32" transform="translate(2239.402344 0)"/>
     <use xlink:href="#TimesNewRomanPSMT-34" transform="translate(2289.402344 0)"/>
     <use xlink:href="#TimesNewRomanPSMT-2b" transform="translate(2339.402344 0)"/>
     <use xlink:href="#TimesNewRomanPSMT-35" transform="translate(2395.798828 0)"/>
     <use xlink:href="#TimesNewRomanPSMT-31" transform="translate(2445.798828 0)"/>
     <use xlink:href="#TimesNewRomanPSMT-32" transform="translate(2495.798828 0)"/>
     <use xlink:href="#TimesNewRomanPSMT-2d" transform="translate(2545.798828 0)"/>
     <use xlink:href="#TimesNewRomanPSMT-35" transform="translate(2579.099609 0)"/>
     <use xlink:href="#TimesNewRomanPSMT-31" transform="translate(2629.099609 0)"/>
     <use xlink:href="#TimesNewRomanPSMT-32" transform="translate(2679.099609 0)"/>
     <use xlink:href="#TimesNewRomanPSMT-2e" transform="translate(2729.099609 0)"/>
     <use xlink:href="#TimesNewRomanPSMT-31" transform="translate(2754.099609 0)"/>
     <use xlink:href="#TimesNewRomanPSMT-2d" transform="translate(2804.099609 0)"/>
     <use xlink:href="#TimesNewRomanPSMT-31" transform="translate(2837.400391 0)"/>
     <use xlink:href="#TimesNewRomanPSMT-29" transform="translate(2887.400391 0)"/>
     <use xlink:href="#TimesNewRomanPSMT-5f" transform="translate(2920.701172 0)"/>
     <use xlink:href="#TimesNewRomanPSMT-65" transform="translate(2970.701172 0)"/>
     <use xlink:href="#TimesNewRomanPSMT-2d" transform="translate(3015.085938 0)"/>
     <use xlink:href="#TimesNewRomanPSMT-68" transform="translate(3048.386719 0)"/>
     <use xlink:href="#TimesNewRomanPSMT-20" transform="translate(3098.386719 0)"/>
     <use xlink:href="#TimesNewRomanPSMT-6f" transform="translate(3123.386719 0)"/>
     <use xlink:href="#TimesNewRomanPSMT-6e" transform="translate(3173.386719 0)"/>
     <use xlink:href="#TimesNewRomanPSMT-20" transform="translate(3223.386719 0)"/>
     <use xlink:href="#TimesNewRomanPSMT-74" transform="translate(3248.386719 0)"/>
     <use xlink:href="#TimesNewRomanPSMT-68" transform="translate(3276.169922 0)"/>
     <use xlink:href="#TimesNewRomanPSMT-65" transform="translate(3326.169922 0)"/>
     <use xlink:href="#TimesNewRomanPSMT-20" transform="translate(3370.554688 0)"/>
     <use xlink:href="#TimesNewRomanPSMT-76" transform="translate(3395.554688 0)"/>
     <use xlink:href="#TimesNewRomanPSMT-61" transform="translate(3445.554688 0)"/>
     <use xlink:href="#TimesNewRomanPSMT-6c" transform="translate(3489.939453 0)"/>
     <use xlink:href="#TimesNewRomanPSMT-69" transform="translate(3517.722656 0)"/>
     <use xlink:href="#TimesNewRomanPSMT-64" transform="translate(3545.505859 0)"/>
     <use xlink:href="#TimesNewRomanPSMT-61" transform="translate(3595.505859 0)"/>
     <use xlink:href="#TimesNewRomanPSMT-74" transform="translate(3639.890625 0)"/>
     <use xlink:href="#TimesNewRomanPSMT-69" transform="translate(3667.673828 0)"/>
     <use xlink:href="#TimesNewRomanPSMT-6f" transform="translate(3695.457031 0)"/>
     <use xlink:href="#TimesNewRomanPSMT-6e" transform="translate(3745.457031 0)"/>
     <use xlink:href="#TimesNewRomanPSMT-20" transform="translate(3795.457031 0)"/>
     <use xlink:href="#TimesNewRomanPSMT-73" transform="translate(3820.457031 0)"/>
     <use xlink:href="#TimesNewRomanPSMT-65" transform="translate(3859.373047 0)"/>
     <use xlink:href="#TimesNewRomanPSMT-74" transform="translate(3903.757812 0)"/>
    </g>
   </g>
   <g id="legend_1">
    <g id="patch_7">
     <path d="M 452.155938 94.278687 
L 689.32625 94.278687 
Q 693.72625 94.278687 693.72625 89.878687 
L 693.72625 60.9315 
Q 693.72625 56.5315 689.32625 56.5315 
L 452.155938 56.5315 
Q 447.755938 56.5315 447.755938 60.9315 
L 447.755938 89.878687 
Q 447.755938 94.278687 452.155938 94.278687 
z
" style="fill: #ffffff; opacity: 0.8; stroke: #cccccc; stroke-linejoin: miter"/>
    </g>
    <g id="line2d_32">
     <path d="M 456.555938 73.0315 
L 478.555938 73.0315 
L 500.555938 73.0315 
" style="fill: none; stroke: #1f77b4; stroke-width: 1.5; stroke-linecap: square"/>
    </g>
    <g id="text_19">
     <!-- Best accuracy 0.78 -->
     <g transform="translate(518.155938 80.7315) scale(0.22 -0.22)">
      <defs>
       <path id="TimesNewRomanPSMT-42" d="M 2956 2163 
Q 3397 2069 3616 1863 
Q 3919 1575 3919 1159 
Q 3919 844 3719 555 
Q 3519 266 3170 133 
Q 2822 0 2106 0 
L 106 0 
L 106 116 
L 266 116 
Q 531 116 647 284 
Q 719 394 719 750 
L 719 3488 
Q 719 3881 628 3984 
Q 506 4122 266 4122 
L 106 4122 
L 106 4238 
L 1938 4238 
Q 2450 4238 2759 4163 
Q 3228 4050 3475 3764 
Q 3722 3478 3722 3106 
Q 3722 2788 3528 2536 
Q 3334 2284 2956 2163 
z
M 1319 2331 
Q 1434 2309 1582 2298 
Q 1731 2288 1909 2288 
Q 2366 2288 2595 2386 
Q 2825 2484 2947 2687 
Q 3069 2891 3069 3131 
Q 3069 3503 2766 3765 
Q 2463 4028 1881 4028 
Q 1569 4028 1319 3959 
L 1319 2331 
z
M 1319 306 
Q 1681 222 2034 222 
Q 2600 222 2897 476 
Q 3194 731 3194 1106 
Q 3194 1353 3059 1581 
Q 2925 1809 2622 1940 
Q 2319 2072 1872 2072 
Q 1678 2072 1540 2065 
Q 1403 2059 1319 2044 
L 1319 306 
z
" transform="scale(0.015625)"/>
      </defs>
      <use xlink:href="#TimesNewRomanPSMT-42"/>
      <use xlink:href="#TimesNewRomanPSMT-65" transform="translate(66.699219 0)"/>
      <use xlink:href="#TimesNewRomanPSMT-73" transform="translate(111.083984 0)"/>
      <use xlink:href="#TimesNewRomanPSMT-74" transform="translate(150 0)"/>
      <use xlink:href="#TimesNewRomanPSMT-20" transform="translate(177.783203 0)"/>
      <use xlink:href="#TimesNewRomanPSMT-61" transform="translate(202.783203 0)"/>
      <use xlink:href="#TimesNewRomanPSMT-63" transform="translate(247.167969 0)"/>
      <use xlink:href="#TimesNewRomanPSMT-63" transform="translate(291.552734 0)"/>
      <use xlink:href="#TimesNewRomanPSMT-75" transform="translate(335.9375 0)"/>
      <use xlink:href="#TimesNewRomanPSMT-72" transform="translate(385.9375 0)"/>
      <use xlink:href="#TimesNewRomanPSMT-61" transform="translate(419.238281 0)"/>
      <use xlink:href="#TimesNewRomanPSMT-63" transform="translate(463.623047 0)"/>
      <use xlink:href="#TimesNewRomanPSMT-79" transform="translate(508.007812 0)"/>
      <use xlink:href="#TimesNewRomanPSMT-20" transform="translate(558.007812 0)"/>
      <use xlink:href="#TimesNewRomanPSMT-30" transform="translate(583.007812 0)"/>
      <use xlink:href="#TimesNewRomanPSMT-2e" transform="translate(633.007812 0)"/>
      <use xlink:href="#TimesNewRomanPSMT-37" transform="translate(658.007812 0)"/>
      <use xlink:href="#TimesNewRomanPSMT-38" transform="translate(708.007812 0)"/>
     </g>
    </g>
   </g>
  </g>
 </g>
 <defs>
  <clipPath id="p8b5b010cb9">
   <rect x="347.60625" y="45.5315" width="357.12" height="266.112"/>
  </clipPath>
 </defs>
</svg>
