<?xml version="1.0" encoding="utf-8" standalone="no"?>
<!DOCTYPE svg PUBLIC "-//W3C//DTD SVG 1.1//EN"
  "http://www.w3.org/Graphics/SVG/1.1/DTD/svg11.dtd">
<svg xmlns:xlink="http://www.w3.org/1999/xlink" width="814.365375pt" height="383.265687pt" viewBox="0 0 814.365375 383.265687" xmlns="http://www.w3.org/2000/svg" version="1.1">
 <metadata>
  <rdf:RDF xmlns:dc="http://purl.org/dc/elements/1.1/" xmlns:cc="http://creativecommons.org/ns#" xmlns:rdf="http://www.w3.org/1999/02/22-rdf-syntax-ns#">
   <cc:Work>
    <dc:type rdf:resource="http://purl.org/dc/dcmitype/StillImage"/>
    <dc:date>2025-05-12T17:39:14.692199</dc:date>
    <dc:format>image/svg+xml</dc:format>
    <dc:creator>
     <cc:Agent>
      <dc:title>Matplotlib v3.10.1, https://matplotlib.org/</dc:title>
     </cc:Agent>
    </dc:creator>
   </cc:Work>
  </rdf:RDF>
 </metadata>
 <defs>
  <style type="text/css">*{stroke-linejoin: round; stroke-linecap: butt}</style>
 </defs>
 <g id="figure_1">
  <g id="patch_1">
   <path d="M -0 383.265687 
L 814.365375 383.265687 
L 814.365375 0 
L -0 0 
z
" style="fill: #ffffff"/>
  </g>
  <g id="axes_1">
   <g id="patch_2">
    <path d="M 228.622687 311.6435 
L 585.742688 311.6435 
L 585.742688 45.5315 
L 228.622687 45.5315 
z
" style="fill: #ffffff"/>
   </g>
   <g id="matplotlib.axis_1">
    <g id="xtick_1">
     <g id="line2d_1">
      <path d="M 228.622687 311.6435 
L 228.622687 45.5315 
" clip-path="url(#pd26740bf0d)" style="fill: none; stroke: #b0b0b0; stroke-opacity: 0.3; stroke-width: 0.8; stroke-linecap: square"/>
     </g>
     <g id="line2d_2">
      <defs>
       <path id="m7375da5561" d="M 0 0 
L 0 3.5 
" style="stroke: #000000; stroke-width: 0.8"/>
      </defs>
      <g>
       <use xlink:href="#m7375da5561" x="228.622687" y="311.6435" style="stroke: #000000; stroke-width: 0.8"/>
      </g>
     </g>
     <g id="text_1">
      <!-- 0.0 -->
      <g transform="translate(214.872687 333.91975) scale(0.22 -0.22)">
       <defs>
        <path id="TimesNewRomanPSMT-30" d="M 231 2094 
Q 231 2819 450 3342 
Q 669 3866 1031 4122 
Q 1313 4325 1613 4325 
Q 2100 4325 2488 3828 
Q 2972 3213 2972 2159 
Q 2972 1422 2759 906 
Q 2547 391 2217 158 
Q 1888 -75 1581 -75 
Q 975 -75 572 641 
Q 231 1244 231 2094 
z
M 844 2016 
Q 844 1141 1059 588 
Q 1238 122 1591 122 
Q 1759 122 1940 273 
Q 2122 425 2216 781 
Q 2359 1319 2359 2297 
Q 2359 3022 2209 3506 
Q 2097 3866 1919 4016 
Q 1791 4119 1609 4119 
Q 1397 4119 1231 3928 
Q 1006 3669 925 3112 
Q 844 2556 844 2016 
z
" transform="scale(0.015625)"/>
        <path id="TimesNewRomanPSMT-2e" d="M 800 606 
Q 947 606 1047 504 
Q 1147 403 1147 259 
Q 1147 116 1045 14 
Q 944 -88 800 -88 
Q 656 -88 554 14 
Q 453 116 453 259 
Q 453 406 554 506 
Q 656 606 800 606 
z
" transform="scale(0.015625)"/>
       </defs>
       <use xlink:href="#TimesNewRomanPSMT-30"/>
       <use xlink:href="#TimesNewRomanPSMT-2e" transform="translate(50 0)"/>
       <use xlink:href="#TimesNewRomanPSMT-30" transform="translate(75 0)"/>
      </g>
     </g>
    </g>
    <g id="xtick_2">
     <g id="line2d_3">
      <path d="M 358.295472 311.6435 
L 358.295472 45.5315 
" clip-path="url(#pd26740bf0d)" style="fill: none; stroke: #b0b0b0; stroke-opacity: 0.3; stroke-width: 0.8; stroke-linecap: square"/>
     </g>
     <g id="line2d_4">
      <g>
       <use xlink:href="#m7375da5561" x="358.295472" y="311.6435" style="stroke: #000000; stroke-width: 0.8"/>
      </g>
     </g>
     <g id="text_2">
      <!-- 0.5 -->
      <g transform="translate(344.545472 333.91975) scale(0.22 -0.22)">
       <defs>
        <path id="TimesNewRomanPSMT-35" d="M 2778 4238 
L 2534 3706 
L 1259 3706 
L 981 3138 
Q 1809 3016 2294 2522 
Q 2709 2097 2709 1522 
Q 2709 1188 2573 903 
Q 2438 619 2231 419 
Q 2025 219 1772 97 
Q 1413 -75 1034 -75 
Q 653 -75 479 54 
Q 306 184 306 341 
Q 306 428 378 495 
Q 450 563 559 563 
Q 641 563 702 538 
Q 763 513 909 409 
Q 1144 247 1384 247 
Q 1750 247 2026 523 
Q 2303 800 2303 1197 
Q 2303 1581 2056 1914 
Q 1809 2247 1375 2428 
Q 1034 2569 447 2591 
L 1259 4238 
L 2778 4238 
z
" transform="scale(0.015625)"/>
       </defs>
       <use xlink:href="#TimesNewRomanPSMT-30"/>
       <use xlink:href="#TimesNewRomanPSMT-2e" transform="translate(50 0)"/>
       <use xlink:href="#TimesNewRomanPSMT-35" transform="translate(75 0)"/>
      </g>
     </g>
    </g>
    <g id="xtick_3">
     <g id="line2d_5">
      <path d="M 487.968256 311.6435 
L 487.968256 45.5315 
" clip-path="url(#pd26740bf0d)" style="fill: none; stroke: #b0b0b0; stroke-opacity: 0.3; stroke-width: 0.8; stroke-linecap: square"/>
     </g>
     <g id="line2d_6">
      <g>
       <use xlink:href="#m7375da5561" x="487.968256" y="311.6435" style="stroke: #000000; stroke-width: 0.8"/>
      </g>
     </g>
     <g id="text_3">
      <!-- 1.0 -->
      <g transform="translate(474.218256 333.91975) scale(0.22 -0.22)">
       <defs>
        <path id="TimesNewRomanPSMT-31" d="M 750 3822 
L 1781 4325 
L 1884 4325 
L 1884 747 
Q 1884 391 1914 303 
Q 1944 216 2037 169 
Q 2131 122 2419 116 
L 2419 0 
L 825 0 
L 825 116 
Q 1125 122 1212 167 
Q 1300 213 1334 289 
Q 1369 366 1369 747 
L 1369 3034 
Q 1369 3497 1338 3628 
Q 1316 3728 1258 3775 
Q 1200 3822 1119 3822 
Q 1003 3822 797 3725 
L 750 3822 
z
" transform="scale(0.015625)"/>
       </defs>
       <use xlink:href="#TimesNewRomanPSMT-31"/>
       <use xlink:href="#TimesNewRomanPSMT-2e" transform="translate(50 0)"/>
       <use xlink:href="#TimesNewRomanPSMT-30" transform="translate(75 0)"/>
      </g>
     </g>
    </g>
    <g id="text_4">
     <!-- $\kappa  = \frac{ln(n)}{ln(d)}$ -->
     <g transform="translate(375.172688 364.185687) scale(0.22 -0.22)">
      <defs>
       <path id="STIXGeneral-Italic-3ba" d="M 979 1440 
L 998 1446 
Q 1850 2541 2464 2790 
Q 2547 2822 2630 2822 
Q 2797 2822 2886 2736 
Q 2976 2650 2976 2522 
Q 2976 2387 2893 2307 
Q 2810 2227 2682 2227 
Q 2605 2227 2502 2288 
Q 2400 2349 2336 2349 
Q 2170 2349 1990 2205 
Q 1811 2061 1414 1645 
L 2042 544 
Q 2202 262 2310 182 
Q 2419 102 2624 102 
L 2624 0 
Q 2374 -83 2182 -83 
Q 1786 -83 1555 326 
L 960 1350 
L 576 0 
L 90 0 
L 640 1978 
Q 730 2317 730 2406 
Q 730 2560 518 2560 
L 339 2560 
L 339 2650 
Q 678 2694 1306 2822 
L 1325 2803 
L 979 1440 
z
" transform="scale(0.015625)"/>
       <path id="STIXGeneral-Regular-3d" d="M 4077 2048 
L 307 2048 
L 307 2470 
L 4077 2470 
L 4077 2048 
z
M 4077 768 
L 307 768 
L 307 1190 
L 4077 1190 
L 4077 768 
z
" transform="scale(0.015625)"/>
       <path id="STIXGeneral-Italic-6c" d="M 1786 4339 
L 806 595 
Q 755 410 755 320 
Q 755 205 864 205 
Q 1037 205 1293 570 
L 1453 794 
L 1542 730 
Q 1254 275 1046 102 
Q 838 -70 576 -70 
Q 262 -70 262 288 
Q 262 397 288 480 
L 1165 3834 
Q 1184 3898 1184 3955 
Q 1184 4096 870 4096 
L 755 4096 
L 755 4198 
Q 1203 4250 1747 4371 
L 1786 4339 
z
" transform="scale(0.015625)"/>
       <path id="STIXGeneral-Italic-6e" d="M 2944 749 
L 3034 666 
Q 2707 218 2534 80 
Q 2362 -58 2138 -58 
Q 2010 -58 1923 28 
Q 1837 115 1837 288 
Q 1837 390 1939 768 
L 2221 1805 
Q 2310 2150 2310 2310 
Q 2310 2496 2157 2496 
Q 1971 2496 1750 2275 
Q 1530 2054 1210 1587 
Q 998 1274 899 1024 
Q 800 774 570 0 
L 90 0 
L 704 2240 
Q 717 2304 717 2349 
Q 717 2445 630 2480 
Q 544 2515 301 2522 
L 301 2624 
Q 550 2675 857 2729 
Q 1165 2784 1338 2822 
L 1363 2810 
L 934 1414 
Q 1408 2170 1753 2496 
Q 2099 2822 2413 2822 
Q 2611 2822 2720 2716 
Q 2829 2611 2829 2432 
Q 2829 2272 2765 2048 
L 2406 749 
Q 2317 429 2317 358 
Q 2317 243 2419 243 
Q 2541 243 2810 582 
Q 2854 634 2944 749 
z
" transform="scale(0.015625)"/>
       <path id="STIXGeneral-Regular-28" d="M 1946 -1030 
L 1869 -1133 
Q 1126 -710 716 32 
Q 307 774 307 1613 
Q 307 3386 1888 4326 
L 1946 4224 
Q 1293 3667 1075 3126 
Q 858 2586 858 1632 
Q 858 685 1082 96 
Q 1306 -493 1946 -1030 
z
" transform="scale(0.015625)"/>
       <path id="STIXGeneral-Regular-29" d="M 186 4224 
L 262 4326 
Q 992 3891 1408 3148 
Q 1824 2406 1824 1581 
Q 1824 -166 243 -1133 
L 186 -1030 
Q 845 -486 1059 54 
Q 1274 595 1274 1562 
Q 1274 2534 1059 3120 
Q 845 3706 186 4224 
z
" transform="scale(0.015625)"/>
       <path id="STIXGeneral-Italic-64" d="M 3334 4371 
L 3373 4333 
L 3123 3360 
L 2739 1958 
Q 2323 429 2323 384 
Q 2323 256 2438 256 
Q 2522 256 2614 336 
Q 2707 416 2963 710 
L 3040 646 
Q 2547 -83 2099 -83 
Q 1978 -83 1907 -6 
Q 1837 70 1837 205 
Q 1837 397 1920 774 
Q 1645 307 1379 118 
Q 1114 -70 781 -70 
Q 461 -70 278 125 
Q 96 320 96 678 
Q 96 1440 713 2131 
Q 1331 2822 1965 2822 
Q 2163 2822 2256 2732 
Q 2349 2643 2381 2451 
L 2387 2451 
L 2675 3494 
Q 2765 3808 2765 3949 
Q 2765 4051 2694 4076 
Q 2624 4102 2355 4115 
L 2355 4224 
Q 2848 4269 3334 4371 
z
M 2278 2310 
Q 2278 2477 2185 2576 
Q 2093 2675 1978 2675 
Q 1677 2675 1395 2381 
Q 1075 2042 864 1571 
Q 653 1101 653 704 
Q 653 486 752 361 
Q 851 237 1024 237 
Q 1312 237 1606 550 
Q 1901 864 2089 1350 
Q 2278 1837 2278 2310 
z
" transform="scale(0.015625)"/>
      </defs>
      <use xlink:href="#STIXGeneral-Italic-3ba" transform="translate(0 0.003125)"/>
      <use xlink:href="#STIXGeneral-Regular-3d" transform="translate(58.83999 0.003125)"/>
      <use xlink:href="#STIXGeneral-Italic-6c" transform="translate(141.779971 50.192188) scale(0.7)"/>
      <use xlink:href="#STIXGeneral-Italic-6e" transform="translate(161.239963 50.192188) scale(0.7)"/>
      <use xlink:href="#STIXGeneral-Regular-28" transform="translate(196.239952 50.192188) scale(0.7)"/>
      <use xlink:href="#STIXGeneral-Italic-6e" transform="translate(219.549944 50.192188) scale(0.7)"/>
      <use xlink:href="#STIXGeneral-Regular-29" transform="translate(254.549933 50.192188) scale(0.7)"/>
      <use xlink:href="#STIXGeneral-Italic-6c" transform="translate(141.779971 -41.257812) scale(0.7)"/>
      <use xlink:href="#STIXGeneral-Italic-6e" transform="translate(161.239963 -41.257812) scale(0.7)"/>
      <use xlink:href="#STIXGeneral-Regular-28" transform="translate(196.239952 -41.257812) scale(0.7)"/>
      <use xlink:href="#STIXGeneral-Italic-64" transform="translate(219.549944 -41.257812) scale(0.7)"/>
      <use xlink:href="#STIXGeneral-Regular-29" transform="translate(254.549933 -41.257812) scale(0.7)"/>
      <path d="M 141.779971 12.8 
L 141.779971 19.05 
L 277.859924 19.05 
L 277.859924 12.8 
L 141.779971 12.8 
z
"/>
     </g>
    </g>
   </g>
   <g id="matplotlib.axis_2">
    <g id="ytick_1">
     <g id="line2d_7">
      <path d="M 228.622687 311.6435 
L 585.742688 311.6435 
" clip-path="url(#pd26740bf0d)" style="fill: none; stroke: #b0b0b0; stroke-opacity: 0.3; stroke-width: 0.8; stroke-linecap: square"/>
     </g>
     <g id="line2d_8">
      <defs>
       <path id="m122e7f2d47" d="M 0 0 
L -3.5 0 
" style="stroke: #000000; stroke-width: 0.8"/>
      </defs>
      <g>
       <use xlink:href="#m122e7f2d47" x="228.622687" y="311.6435" style="stroke: #000000; stroke-width: 0.8"/>
      </g>
     </g>
     <g id="text_5">
      <!-- 0.00 -->
      <g transform="translate(183.122687 319.281625) scale(0.22 -0.22)">
       <use xlink:href="#TimesNewRomanPSMT-30"/>
       <use xlink:href="#TimesNewRomanPSMT-2e" transform="translate(50 0)"/>
       <use xlink:href="#TimesNewRomanPSMT-30" transform="translate(75 0)"/>
       <use xlink:href="#TimesNewRomanPSMT-30" transform="translate(125 0)"/>
      </g>
     </g>
    </g>
    <g id="ytick_2">
     <g id="line2d_9">
      <path d="M 228.622687 244.301709 
L 585.742688 244.301709 
" clip-path="url(#pd26740bf0d)" style="fill: none; stroke: #b0b0b0; stroke-opacity: 0.3; stroke-width: 0.8; stroke-linecap: square"/>
     </g>
     <g id="line2d_10">
      <g>
       <use xlink:href="#m122e7f2d47" x="228.622687" y="244.301709" style="stroke: #000000; stroke-width: 0.8"/>
      </g>
     </g>
     <g id="text_6">
      <!-- 0.05 -->
      <g transform="translate(183.122687 251.939834) scale(0.22 -0.22)">
       <use xlink:href="#TimesNewRomanPSMT-30"/>
       <use xlink:href="#TimesNewRomanPSMT-2e" transform="translate(50 0)"/>
       <use xlink:href="#TimesNewRomanPSMT-30" transform="translate(75 0)"/>
       <use xlink:href="#TimesNewRomanPSMT-35" transform="translate(125 0)"/>
      </g>
     </g>
    </g>
    <g id="ytick_3">
     <g id="line2d_11">
      <path d="M 228.622687 176.959919 
L 585.742688 176.959919 
" clip-path="url(#pd26740bf0d)" style="fill: none; stroke: #b0b0b0; stroke-opacity: 0.3; stroke-width: 0.8; stroke-linecap: square"/>
     </g>
     <g id="line2d_12">
      <g>
       <use xlink:href="#m122e7f2d47" x="228.622687" y="176.959919" style="stroke: #000000; stroke-width: 0.8"/>
      </g>
     </g>
     <g id="text_7">
      <!-- 0.10 -->
      <g transform="translate(183.122687 184.598044) scale(0.22 -0.22)">
       <use xlink:href="#TimesNewRomanPSMT-30"/>
       <use xlink:href="#TimesNewRomanPSMT-2e" transform="translate(50 0)"/>
       <use xlink:href="#TimesNewRomanPSMT-31" transform="translate(75 0)"/>
       <use xlink:href="#TimesNewRomanPSMT-30" transform="translate(125 0)"/>
      </g>
     </g>
    </g>
    <g id="ytick_4">
     <g id="line2d_13">
      <path d="M 228.622687 109.618128 
L 585.742688 109.618128 
" clip-path="url(#pd26740bf0d)" style="fill: none; stroke: #b0b0b0; stroke-opacity: 0.3; stroke-width: 0.8; stroke-linecap: square"/>
     </g>
     <g id="line2d_14">
      <g>
       <use xlink:href="#m122e7f2d47" x="228.622687" y="109.618128" style="stroke: #000000; stroke-width: 0.8"/>
      </g>
     </g>
     <g id="text_8">
      <!-- 0.15 -->
      <g transform="translate(183.122687 117.256253) scale(0.22 -0.22)">
       <use xlink:href="#TimesNewRomanPSMT-30"/>
       <use xlink:href="#TimesNewRomanPSMT-2e" transform="translate(50 0)"/>
       <use xlink:href="#TimesNewRomanPSMT-31" transform="translate(75 0)"/>
       <use xlink:href="#TimesNewRomanPSMT-35" transform="translate(125 0)"/>
      </g>
     </g>
    </g>
    <g id="text_9">
     <!-- Loss -->
     <g transform="translate(174.41675 199.368906) rotate(-90) scale(0.22 -0.22)">
      <defs>
       <path id="TimesNewRomanPSMT-4c" d="M 3669 1172 
L 3772 1150 
L 3409 0 
L 128 0 
L 128 116 
L 288 116 
Q 556 116 672 291 
Q 738 391 738 753 
L 738 3488 
Q 738 3884 650 3984 
Q 528 4122 288 4122 
L 128 4122 
L 128 4238 
L 2047 4238 
L 2047 4122 
Q 1709 4125 1573 4059 
Q 1438 3994 1388 3894 
Q 1338 3794 1338 3416 
L 1338 753 
Q 1338 494 1388 397 
Q 1425 331 1503 300 
Q 1581 269 1991 269 
L 2300 269 
Q 2788 269 2984 341 
Q 3181 413 3343 595 
Q 3506 778 3669 1172 
z
" transform="scale(0.015625)"/>
       <path id="TimesNewRomanPSMT-6f" d="M 1600 2947 
Q 2250 2947 2644 2453 
Q 2978 2031 2978 1484 
Q 2978 1100 2793 706 
Q 2609 313 2286 112 
Q 1963 -88 1566 -88 
Q 919 -88 538 428 
Q 216 863 216 1403 
Q 216 1797 411 2186 
Q 606 2575 925 2761 
Q 1244 2947 1600 2947 
z
M 1503 2744 
Q 1338 2744 1170 2645 
Q 1003 2547 900 2300 
Q 797 2053 797 1666 
Q 797 1041 1045 587 
Q 1294 134 1700 134 
Q 2003 134 2200 384 
Q 2397 634 2397 1244 
Q 2397 2006 2069 2444 
Q 1847 2744 1503 2744 
z
" transform="scale(0.015625)"/>
       <path id="TimesNewRomanPSMT-73" d="M 2050 2947 
L 2050 1972 
L 1947 1972 
Q 1828 2431 1642 2597 
Q 1456 2763 1169 2763 
Q 950 2763 815 2647 
Q 681 2531 681 2391 
Q 681 2216 781 2091 
Q 878 1963 1175 1819 
L 1631 1597 
Q 2266 1288 2266 781 
Q 2266 391 1970 151 
Q 1675 -88 1309 -88 
Q 1047 -88 709 6 
Q 606 38 541 38 
Q 469 38 428 -44 
L 325 -44 
L 325 978 
L 428 978 
Q 516 541 762 319 
Q 1009 97 1316 97 
Q 1531 97 1667 223 
Q 1803 350 1803 528 
Q 1803 744 1651 891 
Q 1500 1038 1047 1263 
Q 594 1488 453 1669 
Q 313 1847 313 2119 
Q 313 2472 555 2709 
Q 797 2947 1181 2947 
Q 1350 2947 1591 2875 
Q 1750 2828 1803 2828 
Q 1853 2828 1881 2850 
Q 1909 2872 1947 2947 
L 2050 2947 
z
" transform="scale(0.015625)"/>
      </defs>
      <use xlink:href="#TimesNewRomanPSMT-4c"/>
      <use xlink:href="#TimesNewRomanPSMT-6f" transform="translate(61.083984 0)"/>
      <use xlink:href="#TimesNewRomanPSMT-73" transform="translate(111.083984 0)"/>
      <use xlink:href="#TimesNewRomanPSMT-73" transform="translate(150 0)"/>
     </g>
    </g>
   </g>
   <g id="line2d_15">
    <path d="M 228.622687 141.970663 
L 318.363436 155.750105 
L 342.55846 159.638243 
L 357.13091 158.21479 
L 367.591951 159.67493 
L 375.758167 130.129828 
L 382.457451 176.585381 
L 388.137429 149.185358 
L 393.067705 176.09356 
L 397.423307 171.807636 
L 401.324327 181.688282 
L 404.856749 154.735786 
L 408.084255 177.968415 
L 411.055327 177.527129 
L 413.807731 167.572758 
L 416.371461 184.311926 
L 418.770733 181.719239 
L 421.025379 133.874199 
L 423.151848 186.211507 
L 425.163934 182.342073 
L 427.073317 192.888482 
L 428.889974 173.225089 
L 430.622495 185.273783 
L 432.278329 172.143317 
L 433.86398 179.689247 
L 435.385155 175.563025 
L 436.846894 148.915154 
L 438.253667 192.645903 
L 439.609458 177.795959 
L 440.917834 186.821978 
L 442.181999 176.333169 
L 443.404845 189.465181 
L 444.588986 193.11924 
L 445.736798 199.403296 
L 446.850443 197.189418 
L 447.931898 188.014804 
L 448.98297 198.685202 
L 450.005321 187.62898 
L 451.000479 150.100654 
L 451.969852 176.107729 
L 452.914744 190.311729 
L 453.83636 180.21612 
L 454.73582 193.961242 
L 455.614163 198.796617 
L 456.472359 195.011104 
L 457.311312 198.584202 
L 458.131864 155.653942 
L 458.934807 168.087669 
L 459.720881 192.011649 
L 460.490778 202.802473 
L 461.245153 196.797663 
L 461.984618 195.135052 
L 462.709751 186.146612 
L 463.421097 188.408034 
L 464.119172 196.370536 
L 464.80446 199.010517 
L 465.477423 175.430256 
L 466.138494 194.692682 
L 466.788089 199.608937 
L 467.426598 198.458427 
L 468.054392 198.884511 
L 468.671827 202.655143 
L 469.279238 191.343578 
L 469.876946 106.188197 
L 471.044457 190.9248 
L 472.176637 201.74342 
L 472.730133 201.893439 
L 473.275561 157.122672 
L 473.813152 191.16193 
L 474.343128 192.981523 
L 474.865702 199.268228 
L 475.381078 191.562746 
L 475.889451 203.001702 
L 476.39101 196.271031 
L 476.885933 196.865558 
L 477.374396 198.012635 
L 477.856563 207.140357 
L 478.802649 162.100279 
L 479.266869 187.813167 
L 479.725401 194.947102 
L 480.178381 194.026879 
L 480.625942 201.165089 
L 481.068213 203.422949 
L 481.505317 179.909278 
L 481.937374 205.271071 
L 482.364498 199.753266 
L 482.786801 201.15648 
L 483.204391 199.794559 
L 483.617372 201.177934 
L 484.025844 208.849148 
L 484.429905 198.787967 
L 485.225168 212.351682 
L 485.616549 211.859921 
L 486.003878 212.019092 
L 486.387239 186.899486 
L 486.766711 136.756649 
L 487.142374 136.881902 
L 487.514302 143.801867 
L 487.88257 166.352397 
L 488.247248 199.316465 
L 488.608406 199.722048 
L 488.966111 198.226054 
L 489.320429 197.639675 
L 489.671423 195.065371 
L 490.019155 206.681058 
L 490.363685 204.087156 
L 490.705071 206.327736 
L 491.043371 194.118637 
L 491.378639 208.276728 
L 491.710929 202.062042 
L 492.040295 212.600513 
L 492.366786 212.286958 
L 492.690453 218.726873 
L 493.011344 208.114386 
L 493.329507 217.509262 
L 493.644987 204.520395 
L 493.957829 209.422019 
L 494.268076 206.660758 
L 494.575773 213.069485 
L 494.88096 192.449714 
L 495.183677 219.316744 
L 495.483965 209.551969 
L 495.781862 206.970098 
L 496.077406 213.384043 
L 496.370634 213.670293 
L 496.661581 209.40213 
L 496.950284 222.324417 
L 497.236776 204.896014 
L 497.803262 198.691042 
L 498.083321 185.429141 
L 498.361299 189.201609 
L 498.637227 181.547204 
L 499.183052 175.172444 
L 499.72103 207.473329 
L 499.987145 207.395048 
L 500.251381 211.294395 
L 500.513764 208.042608 
L 500.77432 209.616712 
L 501.033074 204.888227 
L 501.290051 209.213779 
L 501.545275 202.849666 
L 501.798769 209.245177 
L 502.050558 207.426075 
L 502.300664 209.254349 
L 502.549109 217.009674 
L 502.795915 211.08476 
L 503.041104 217.364461 
L 503.284696 214.629381 
L 503.526713 214.763304 
L 504.0061 195.951627 
L 504.24351 85.164699 
L 504.479423 200.05224 
L 504.713858 188.070677 
L 504.946833 188.143419 
L 505.408476 141.281921 
L 505.637179 191.860105 
L 505.864492 202.448298 
L 506.090433 205.288592 
L 506.315017 205.171377 
L 506.538262 195.592846 
L 506.760182 199.370733 
L 506.980794 201.027564 
L 507.200113 220.659418 
L 507.418154 213.376738 
L 507.634931 223.817612 
L 507.85046 206.552454 
L 508.064754 222.685084 
L 508.277828 208.955817 
L 508.489695 218.463573 
L 508.700369 199.940514 
L 509.118192 215.488402 
L 509.325367 212.229139 
L 509.531401 221.092576 
L 509.736307 200.330834 
L 510.142782 221.784138 
L 510.344376 194.805312 
L 510.544889 214.070859 
L 510.744333 214.058516 
L 510.94272 215.540924 
L 511.14006 222.650174 
L 511.531646 224.802819 
L 511.725913 203.100474 
L 511.919176 220.594333 
L 512.111446 226.951712 
L 512.493047 207.943003 
L 512.682398 221.836278 
L 513.058249 223.629932 
L 513.244768 226.691733 
L 513.430362 219.982045 
L 513.61504 218.569108 
L 513.798811 228.379295 
L 514.163667 217.507526 
L 514.344769 223.576146 
L 514.524999 218.424056 
L 514.704365 219.917682 
L 514.882875 212.490432 
L 515.060538 225.162172 
L 515.237361 222.010692 
L 515.413352 222.578385 
L 515.588519 220.366173 
L 515.936413 234.90307 
L 516.109154 228.975999 
L 516.281101 232.396023 
L 516.452262 227.823914 
L 516.622643 219.597244 
L 516.792252 225.076947 
L 517.129181 193.569437 
L 517.296514 195.611671 
L 517.463102 195.240798 
L 517.628952 158.895253 
L 517.79407 194.185217 
L 517.958463 189.629379 
L 518.122136 205.265833 
L 518.285097 208.804122 
L 518.44735 215.883769 
L 518.608904 212.19213 
L 518.929932 222.868649 
L 519.08942 224.069402 
L 519.24823 220.072167 
L 519.406369 220.439477 
L 519.563843 224.980674 
L 519.720656 225.040782 
L 519.876815 230.211432 
L 520.032325 229.805643 
L 520.187192 225.353765 
L 520.34142 209.279024 
L 520.495015 215.637879 
L 520.647982 229.103144 
L 520.800326 222.399356 
L 520.952052 206.159655 
L 521.103166 230.294474 
L 521.253671 213.36302 
L 521.403574 209.860335 
L 521.552879 220.221573 
L 521.70159 221.960438 
L 521.849712 225.940203 
L 521.997251 219.601719 
L 522.290593 230.155554 
L 522.436407 221.830458 
L 522.72634 230.006212 
L 522.870468 224.280121 
L 523.014043 231.579027 
L 523.15707 227.77074 
L 523.441493 237.630624 
L 523.582897 232.754001 
L 523.72377 222.392964 
L 523.864114 229.771972 
L 524.143232 199.671443 
L 524.282015 231.784061 
L 524.420284 216.432166 
L 524.695299 226.222771 
L 524.968308 232.267739 
L 525.239339 220.877532 
L 525.374122 230.214402 
L 525.508421 216.624271 
L 525.642239 216.324554 
L 525.775581 231.406972 
L 525.90845 233.846325 
L 526.040848 230.412387 
L 526.172779 216.04019 
L 526.435254 239.641208 
L 526.565804 229.354227 
L 526.6959 243.962731 
L 526.954744 227.521076 
L 527.083497 233.923948 
L 527.211809 231.982844 
L 527.46712 220.499705 
L 527.7207 235.637264 
L 527.846849 235.801658 
L 527.972574 239.142192 
L 528.097878 237.259295 
L 528.222763 237.942437 
L 528.347233 227.251288 
L 528.47129 238.418148 
L 528.594938 229.527948 
L 528.718178 229.49677 
L 528.841014 233.929146 
L 528.963447 229.041275 
L 529.085481 241.441214 
L 529.207119 239.492469 
L 529.328362 233.095397 
L 529.449214 244.127205 
L 529.689753 222.291914 
L 529.809445 228.709502 
L 529.928755 227.803137 
L 530.28442 176.315899 
L 530.402227 145.631355 
L 530.519665 185.313732 
L 530.636735 187.286495 
L 530.753441 202.92877 
L 530.869783 191.816775 
L 531.101388 219.032842 
L 531.216655 199.171996 
L 531.331568 222.472429 
L 531.560341 209.782616 
L 531.674205 215.235547 
L 531.900898 233.919096 
L 532.013732 225.99715 
L 532.238384 238.159022 
L 532.461695 226.692194 
L 532.572853 235.84724 
L 532.683681 234.633277 
L 532.794183 218.077297 
L 532.904358 229.984417 
L 533.014211 220.02104 
L 533.450423 242.603791 
L 533.666636 241.438169 
L 533.774276 234.170797 
L 533.881608 247.172869 
L 533.988632 246.325739 
L 534.095351 233.227479 
L 534.201766 236.680091 
L 534.30788 212.988204 
L 534.413694 239.849388 
L 534.624427 228.44734 
L 534.729351 236.867228 
L 534.833981 201.639751 
L 534.938319 234.385214 
L 535.042367 220.183843 
L 535.249599 243.529688 
L 535.352787 243.779276 
L 535.45569 239.091181 
L 535.558311 222.821496 
L 535.660652 236.193042 
L 535.762713 233.519002 
L 535.864497 219.039806 
L 535.966004 222.434447 
L 536.067237 220.160883 
L 536.168197 184.392656 
L 536.369303 242.590791 
L 536.469452 226.192476 
L 536.569334 233.973665 
L 536.668949 227.790373 
L 536.966215 245.837581 
L 537.064781 244.129954 
L 537.163088 236.122648 
L 537.358931 249.008659 
L 537.553754 236.559499 
L 537.650786 251.598357 
L 537.747568 241.408526 
L 537.940383 249.353472 
L 538.132209 240.088616 
L 538.227755 241.550527 
L 538.323057 252.374898 
L 538.418117 247.932376 
L 538.512937 233.441314 
L 538.607516 250.262436 
L 538.701857 245.969908 
L 538.795961 256.936867 
L 539.076861 244.377205 
L 539.170027 248.161047 
L 539.262962 233.408044 
L 539.355667 237.836933 
L 539.448143 233.912207 
L 539.540391 239.531735 
L 539.724207 210.146886 
L 539.907124 127.338091 
L 540.270298 230.729594 
L 540.360543 212.658734 
L 540.540383 225.92177 
L 540.62998 211.094644 
L 540.808533 225.448462 
L 540.897491 202.473395 
L 540.986237 216.909507 
L 541.074774 211.551936 
L 541.163102 213.232017 
L 541.251222 211.938413 
L 541.339135 213.890214 
L 541.426841 211.965296 
L 541.60164 241.021337 
L 541.688735 229.150608 
L 541.775627 235.821266 
L 541.862317 235.074779 
L 541.948808 233.562257 
L 542.035098 229.578237 
L 542.292783 248.217417 
L 542.378285 228.566527 
L 542.463592 233.383659 
L 542.548705 233.129289 
L 542.633625 211.212602 
L 542.802888 248.121882 
L 542.887234 252.466163 
L 543.055357 246.124087 
L 543.222728 248.111983 
L 543.389353 245.392401 
L 543.472388 247.000027 
L 543.555239 232.355016 
L 543.637908 241.353009 
L 543.720394 234.2281 
L 543.802698 234.649794 
L 543.884822 246.575709 
L 543.966767 241.296183 
L 544.048532 243.466946 
L 544.130118 239.066199 
L 544.211528 245.828454 
L 544.29276 242.672543 
L 544.373816 249.858403 
L 544.535405 242.078438 
L 544.696298 253.44386 
L 544.776486 250.777728 
L 544.856502 244.196555 
L 544.936348 252.814102 
L 545.016023 220.502154 
L 545.09553 228.577536 
L 545.254037 254.283002 
L 545.33304 248.070293 
L 545.411876 252.082245 
L 545.490547 243.921945 
L 545.569052 254.380103 
L 545.647393 245.987248 
L 545.72557 252.007933 
L 545.803585 248.902311 
L 545.881437 249.075676 
L 545.959127 252.127557 
L 546.036657 241.60628 
L 546.114026 254.422726 
L 546.191235 245.323598 
L 546.57491 149.048505 
L 546.651175 211.644396 
L 546.727285 211.41143 
L 546.803241 191.061904 
L 546.879042 221.701663 
L 546.954691 192.093221 
L 547.180722 229.862806 
L 547.255764 210.148933 
L 547.330655 227.227697 
L 547.405397 224.462863 
L 547.479989 233.17006 
L 547.554434 232.832242 
L 547.62873 229.137879 
L 547.702879 212.602671 
L 547.924449 239.956735 
L 547.998015 228.39664 
L 548.071437 232.283579 
L 548.144715 240.761533 
L 548.217849 240.504168 
L 548.290841 231.672852 
L 548.363691 233.021642 
L 548.436399 230.675633 
L 548.581393 243.12829 
L 548.65368 239.685662 
L 548.725828 235.59265 
L 548.797836 243.606148 
L 548.941439 228.094078 
L 549.013034 239.960653 
L 549.084493 221.928909 
L 549.155815 234.616293 
L 549.227002 219.415234 
L 549.298053 240.958038 
L 549.36897 230.954382 
L 549.439752 241.934385 
L 549.510401 236.400349 
L 549.580917 235.200779 
L 549.6513 237.720425 
L 549.721551 209.084722 
L 549.861659 239.6273 
L 549.931516 247.057189 
L 550.140309 215.045741 
L 550.209649 220.729631 
L 550.27886 246.148155 
L 550.347944 238.208202 
L 550.4169 234.790676 
L 550.554433 251.756825 
L 550.691461 244.20111 
L 550.759788 226.692546 
L 550.82799 255.774742 
L 550.896068 244.064061 
L 550.964023 248.662928 
L 551.099562 228.196277 
L 551.167148 251.451739 
L 551.234613 250.010073 
L 551.301955 237.843766 
L 551.369177 250.057708 
L 551.436278 231.422561 
L 551.636863 255.448464 
L 551.769992 246.029088 
L 551.836378 256.244647 
L 551.9688 227.704611 
L 552.034835 247.594889 
L 552.100754 228.052605 
L 552.166558 239.859819 
L 552.232245 244.401619 
L 552.297818 241.104414 
L 552.428619 253.593563 
L 552.493849 253.985819 
L 552.623967 260.582587 
L 552.688858 231.57687 
L 552.753635 244.285382 
L 552.818301 258.524649 
L 552.882856 248.399081 
L 553.011631 262.157469 
L 553.139965 238.75268 
L 553.203967 255.554485 
L 553.26786 246.397422 
L 553.331644 239.377015 
L 553.522346 266.290665 
L 553.648943 251.286086 
L 553.712081 260.082608 
L 553.838038 242.788148 
L 553.900859 261.927975 
L 553.963573 253.567894 
L 554.026183 205.997153 
L 554.15109 252.647882 
L 554.213387 247.460605 
L 554.337671 259.760905 
L 554.523326 236.676403 
L 554.585007 259.898892 
L 554.646586 258.901061 
L 554.708065 257.293159 
L 554.769442 241.993003 
L 554.830719 244.628413 
L 554.891896 261.176476 
L 554.952973 256.730102 
L 555.074828 262.837848 
L 555.135607 261.555612 
L 555.196288 251.772343 
L 555.317355 264.207139 
L 555.438031 246.017272 
L 555.498223 256.055915 
L 555.558319 240.035417 
L 555.618319 265.20213 
L 555.678222 256.837679 
L 555.73803 221.223268 
L 555.797742 260.603835 
L 555.857359 252.75295 
L 555.916881 256.127452 
L 555.976309 266.656742 
L 556.035642 262.641709 
L 556.094882 252.866398 
L 556.154028 263.441807 
L 556.21308 257.905036 
L 556.330906 264.366931 
L 556.389681 253.612599 
L 556.448363 263.1449 
L 556.506953 265.460238 
L 556.565451 259.514788 
L 556.623859 271.585336 
L 556.682175 250.754533 
L 556.7404 258.560468 
L 556.798535 256.079461 
L 556.85658 260.849064 
L 556.914535 241.141483 
L 556.9724 265.945391 
L 557.030176 251.249169 
L 557.087863 267.625247 
L 557.145461 265.574804 
L 557.20297 240.522351 
L 557.260391 267.049686 
L 557.317725 254.672745 
L 557.37497 260.042699 
L 557.432128 245.270248 
L 557.489199 256.922748 
L 557.546183 270.553091 
L 557.60308 261.499799 
L 557.773255 272.880559 
L 557.829808 259.447711 
L 557.886276 262.525296 
L 557.942659 265.891184 
L 558.055171 249.167022 
L 558.223306 272.192707 
L 558.334978 244.689971 
L 558.390689 125.101355 
L 558.446318 200.610511 
L 558.501863 241.647372 
L 558.557327 127.578001 
L 558.612708 150.77325 
L 558.668008 201.805575 
L 558.723226 194.328071 
L 558.778362 162.214163 
L 558.833418 193.054155 
L 558.9981 231.851068 
L 559.107486 196.887042 
L 559.216554 235.421633 
L 559.270969 230.827392 
L 559.379562 241.547296 
L 559.43374 236.75062 
L 559.48784 237.886002 
L 559.541862 254.584962 
L 559.595807 254.355032 
L 559.757174 223.986997 
L 559.810809 247.811794 
L 559.917848 247.214172 
L 560.131013 230.104056 
L 560.184115 232.090617 
L 560.395773 261.760305 
L 560.501154 244.966182 
L 560.553734 256.414134 
L 560.711031 227.647589 
L 560.763317 218.946272 
L 560.919737 245.836728 
L 560.971732 237.375276 
L 561.023655 240.962293 
L 561.075506 248.715054 
L 561.178993 248.537123 
L 561.230629 246.062544 
L 561.282194 213.482042 
L 561.385112 254.338735 
L 561.487747 226.171784 
L 561.538959 238.848692 
L 561.590101 259.840299 
L 561.641174 254.456347 
L 561.793974 243.055207 
L 561.844769 241.178716 
L 561.895496 233.581393 
L 561.996742 256.552813 
L 562.1481 230.829364 
L 562.198417 230.662542 
L 562.298848 258.869848 
L 562.348963 249.038623 
L 562.448992 261.089119 
L 562.498906 255.304235 
L 562.548754 243.545152 
L 562.598535 247.099586 
L 562.64825 262.721636 
L 562.697899 250.548756 
L 562.747483 245.223828 
L 562.797001 261.065934 
L 562.846453 260.342742 
L 562.89584 248.644143 
L 562.945162 260.489916 
L 563.043611 261.418453 
L 563.092739 239.719434 
L 563.141802 267.906555 
L 563.190802 255.937023 
L 563.386158 261.115279 
L 563.483456 242.521496 
L 563.580501 264.607343 
L 563.628929 248.818828 
L 563.725598 252.821648 
L 563.773839 243.121065 
L 563.822018 250.374463 
L 563.870134 259.41399 
L 564.061985 211.374001 
L 564.205231 264.850183 
L 564.34793 237.91848 
L 564.395376 259.469196 
L 564.442761 254.151217 
L 564.490087 242.303803 
L 564.537353 266.333574 
L 564.631706 262.686695 
L 564.678793 262.325059 
L 564.725821 267.737575 
L 564.772791 265.852826 
L 564.819701 227.340748 
L 564.866553 258.034654 
L 564.96008 261.59111 
L 565.006756 251.227965 
L 565.053374 253.671382 
L 565.099934 258.580191 
L 565.146437 238.451293 
L 565.192881 251.749474 
L 565.33187 265.818663 
L 565.378085 255.663201 
L 565.424243 268.126184 
L 565.470344 267.533991 
L 565.654182 250.701876 
L 565.700001 218.860104 
L 565.745764 248.420154 
L 565.882717 267.01186 
L 565.928257 267.213362 
L 566.019171 256.685387 
L 566.109865 271.003855 
L 566.15513 261.920645 
L 566.200339 259.549975 
L 566.290596 235.679591 
L 566.335642 269.649581 
L 566.425573 264.702994 
L 566.515288 272.793789 
L 566.604788 270.198562 
L 566.694075 254.623279 
L 566.827607 160.687001 
L 566.872012 235.913906 
L 566.960665 225.786612 
L 567.004912 248.915251 
L 567.049107 188.635782 
L 567.09325 258.33124 
L 567.181381 252.217378 
L 567.225368 254.502968 
L 567.269304 255.653653 
L 567.313188 245.885376 
L 567.357021 246.831047 
L 567.400802 263.053749 
L 567.488212 256.989524 
L 567.53184 264.05293 
L 567.575418 251.879213 
L 567.618944 261.551869 
L 567.662421 264.689808 
L 567.705847 263.850977 
L 567.749222 245.945017 
L 567.792547 255.398992 
L 567.835822 266.619021 
L 567.879047 262.754253 
L 567.965348 264.683998 
L 568.008424 243.167094 
L 568.05145 255.882691 
L 568.094427 243.152589 
L 568.137355 235.116794 
L 568.265843 263.418747 
L 568.308574 261.976854 
L 568.351257 243.348491 
L 568.393891 258.330261 
L 568.479014 270.055874 
L 568.521502 260.700776 
L 568.606336 255.515039 
L 568.690977 266.996351 
L 568.733226 229.874045 
L 568.775427 262.897499 
L 568.817581 259.87222 
L 568.859687 233.448664 
L 568.901746 268.449608 
L 568.985723 254.7781 
L 569.02764 264.420903 
L 569.194843 72.323583 
L 569.319756 253.645919 
L 569.444253 243.225009 
L 569.650833 263.327882 
L 569.692013 260.933787 
L 569.733147 233.469888 
L 569.774236 265.931879 
L 569.856279 242.044526 
L 569.979007 248.966137 
L 570.019827 245.990941 
L 570.060603 259.328238 
L 570.101334 236.931681 
L 570.142021 249.849392 
L 570.182663 240.423605 
L 570.223262 259.793939 
L 570.304327 246.567054 
L 570.385217 243.710062 
L 570.425597 261.319385 
L 570.465933 253.127124 
L 570.506225 262.496823 
L 570.546475 261.551563 
L 570.586681 226.429044 
L 570.666963 243.88597 
L 570.70704 266.266246 
L 570.747074 244.98449 
L 570.787065 243.217905 
L 570.946603 262.812058 
L 570.986382 261.816169 
L 571.026118 231.818561 
L 571.065812 269.103811 
L 571.105464 253.32955 
L 571.145074 262.477652 
L 571.263653 234.899116 
L 571.342498 243.375389 
L 571.460454 272.786383 
L 571.49969 267.04509 
L 571.538885 273.05347 
L 571.578039 263.002161 
L 571.656225 245.47011 
L 571.695256 250.352753 
L 571.734247 254.540904 
L 571.850977 240.285587 
L 572.006052 268.844644 
L 572.083349 251.71512 
L 572.121938 262.324662 
L 572.160487 266.981801 
L 572.237466 232.740465 
L 572.314287 240.267344 
L 572.352638 262.803368 
L 572.429223 254.435028 
L 572.467457 235.449555 
L 572.505652 258.43094 
L 572.543808 253.500375 
L 572.581925 275.768152 
L 572.620003 271.922902 
L 572.658043 254.561772 
L 572.696044 263.193192 
L 572.734006 270.907397 
L 572.77193 258.186775 
L 572.809815 259.524101 
L 572.847662 226.167379 
L 572.885471 260.825748 
L 572.923242 261.478706 
L 572.960974 245.704009 
L 572.998669 260.503162 
L 573.036326 261.388188 
L 573.073945 233.982014 
L 573.111526 258.092348 
L 573.186575 255.574449 
L 573.224043 270.767846 
L 573.261473 261.287495 
L 573.298867 267.615503 
L 573.336222 273.204203 
L 573.373541 247.688438 
L 573.448067 250.058726 
L 573.485274 249.650554 
L 573.522444 241.159214 
L 573.559578 275.927393 
L 573.633734 256.785032 
L 573.707744 239.073625 
L 573.855326 275.148692 
L 573.892131 262.629592 
L 573.965632 267.188396 
L 574.002328 264.059016 
L 574.075613 206.105427 
L 574.112202 235.847782 
L 574.148755 246.895234 
L 574.185272 219.046218 
L 574.221754 246.506213 
L 574.294611 269.264928 
L 574.367326 266.877616 
L 574.403631 274.152556 
L 574.584628 235.754159 
L 574.656783 266.523425 
L 574.728798 260.176859 
L 574.764754 264.525706 
L 574.800675 258.792676 
L 574.836562 251.374658 
L 574.872415 257.745439 
L 574.944017 268.368713 
L 574.979767 248.742468 
L 575.015482 267.391051 
L 575.051164 275.792064 
L 575.193551 229.084007 
L 575.229063 239.504581 
L 575.264541 227.477129 
L 575.299986 239.994736 
L 575.441431 271.201276 
L 575.582343 256.073842 
L 575.617489 247.285067 
L 575.722727 281.09661 
L 575.862585 220.361818 
L 575.897469 233.829707 
L 575.932319 266.418272 
L 576.001923 266.332139 
L 576.106087 232.475568 
L 576.140744 246.333456 
L 576.175369 270.080414 
L 576.244523 265.821181 
L 576.313549 232.608026 
L 576.348015 254.145597 
L 576.382448 271.371038 
L 576.451221 257.637841 
L 576.48556 239.596654 
L 576.554143 257.605464 
L 576.588388 245.190473 
L 576.622601 252.829309 
L 576.656783 266.384881 
L 576.725054 262.326243 
L 576.759142 231.87482 
L 576.7932 275.779177 
L 576.827226 266.28636 
L 576.861222 268.339357 
L 576.963024 250.327421 
L 576.996897 268.277794 
L 577.030739 207.399995 
L 577.098331 225.291811 
L 577.199491 244.005619 
L 577.23315 239.670585 
L 577.467921 275.327367 
L 577.50134 270.81164 
L 577.601417 273.854749 
L 577.667987 234.194358 
L 577.767621 274.782841 
L 577.800773 273.424385 
L 577.900054 224.747117 
L 577.933089 256.414264 
L 577.966095 238.255054 
L 577.999072 271.715848 
L 578.03202 261.970914 
L 578.064939 260.957273 
L 578.163523 272.210772 
L 578.196326 271.001286 
L 578.294564 249.017299 
L 578.359914 272.265183 
L 578.392545 263.925515 
L 578.425149 251.998225 
L 578.457724 268.268231 
L 578.49027 271.039714 
L 578.652581 194.054455 
L 578.684958 200.740551 
L 578.81419 238.844503 
L 578.846428 234.810821 
L 578.942976 267.209634 
L 579.007203 264.824143 
L 579.071321 243.890009 
L 579.103338 268.578293 
L 579.231135 241.664833 
L 579.263016 264.034672 
L 579.358497 263.758592 
L 579.485426 231.132869 
L 579.517092 246.292389 
L 579.643485 264.658189 
L 579.706522 245.784181 
L 579.769454 255.304551 
L 579.800879 261.509543 
L 579.863652 259.967419 
L 579.894999 258.109593 
L 579.92632 239.575702 
L 579.957614 269.049859 
L 580.020125 248.885518 
L 580.051341 263.574972 
L 580.082531 260.057857 
L 580.175946 221.164194 
L 580.207032 260.011336 
L 580.269128 258.518111 
L 580.300137 234.032142 
L 580.362078 262.391975 
L 580.39301 264.714328 
L 580.423917 253.299375 
L 580.516484 258.658125 
L 580.547289 271.94918 
L 580.578069 262.071627 
L 580.670256 231.959895 
L 580.731588 266.20224 
L 580.79282 255.195749 
L 580.88448 263.791566 
L 580.914984 231.424934 
L 580.975916 269.601984 
L 581.067129 233.884286 
L 581.097484 251.446286 
L 581.127815 266.040335 
L 581.218659 266.001109 
L 581.248891 267.983937 
L 581.2791 239.158408 
L 581.339443 266.258168 
L 581.369578 262.622232 
L 581.399688 273.976063 
L 581.429775 254.13479 
L 581.459837 272.141688 
L 581.54988 252.270446 
L 581.579846 254.871548 
L 581.639706 242.873032 
L 581.6696 266.977667 
L 581.729317 267.690713 
L 581.788939 239.555838 
L 581.818715 277.118743 
L 581.907899 260.989539 
L 581.967237 247.764471 
L 581.996871 249.79661 
L 582.056068 277.682496 
L 582.085631 247.015124 
L 582.115172 237.588885 
L 582.144689 261.61273 
L 582.174182 249.268107 
L 582.203653 256.602816 
L 582.2331 235.380923 
L 582.291925 264.555087 
L 582.321303 269.747091 
L 582.379989 261.11107 
L 582.409298 234.923816 
L 582.438584 273.375579 
L 582.497087 248.202882 
L 582.526305 243.968195 
L 582.584671 274.942857 
L 582.642946 263.469272 
L 582.701131 272.113488 
L 582.730189 215.237564 
L 582.817229 242.954504 
L 582.846198 214.737866 
L 582.904068 263.978939 
L 582.932969 266.977657 
L 582.961848 252.221171 
L 582.990705 274.093876 
L 583.019539 269.929238 
L 583.048352 269.659513 
L 583.077142 242.703656 
L 583.134656 270.56228 
L 583.192081 265.846037 
L 583.220761 276.131802 
L 583.249419 244.337512 
L 583.335261 259.160041 
L 583.363831 240.793198 
L 583.39238 269.681647 
L 583.420906 259.73361 
L 583.449411 276.761272 
L 583.506356 257.944597 
L 583.534796 265.324619 
L 583.563215 270.403707 
L 583.676673 254.719387 
L 583.789788 271.826508 
L 583.874401 273.065351 
L 583.930703 233.954434 
L 583.958822 213.858876 
L 583.986921 272.672429 
L 584.043054 273.132796 
L 584.071089 270.645646 
L 584.18302 233.829105 
L 584.294617 272.446528 
L 584.322464 254.981087 
L 584.405882 256.394195 
L 584.461391 277.295645 
L 584.489114 247.740141 
L 584.516817 257.253492 
L 584.5445 276.140753 
L 584.572162 241.459924 
L 584.599803 274.916047 
L 584.627425 233.832351 
L 584.655025 281.615364 
L 584.710166 252.304088 
L 584.765226 278.296066 
L 584.792725 262.924703 
L 584.820204 211.2957 
L 584.875102 258.3097 
L 584.957298 279.245843 
L 585.066613 228.322604 
L 585.121151 274.620966 
L 585.175609 244.535076 
L 585.202809 240.088435 
L 585.229988 242.572653 
L 585.257148 276.178047 
L 585.33851 273.856495 
L 585.365592 242.048199 
L 585.446719 272.525797 
L 585.473722 264.761777 
L 585.500706 272.807092 
L 585.554615 271.561258 
L 585.635333 279.515453 
L 585.662201 246.255376 
L 585.742688 250.754352 
" clip-path="url(#pd26740bf0d)" style="fill: none; stroke: #ffa500; stroke-width: 1.5; stroke-linecap: square"/>
   </g>
   <g id="line2d_16">
    <path d="M 228.622687 141.831904 
L 318.363436 157.901837 
L 342.55846 161.695931 
L 357.13091 160.012899 
L 367.591951 163.530877 
L 375.758167 128.105365 
L 382.457451 178.16355 
L 388.137429 154.732515 
L 393.067705 181.445261 
L 397.423307 172.033206 
L 401.324327 183.600325 
L 404.856749 151.370426 
L 408.084255 178.804768 
L 411.055327 182.894835 
L 413.807731 169.562169 
L 416.371461 186.803314 
L 418.770733 182.584381 
L 421.025379 132.910646 
L 423.151848 184.905871 
L 425.163934 182.862052 
L 427.073317 194.471738 
L 428.889974 172.919211 
L 430.622495 186.963016 
L 432.278329 173.448572 
L 433.86398 179.59478 
L 435.385155 174.125031 
L 436.846894 153.03093 
L 438.253667 190.757772 
L 439.609458 184.197701 
L 440.917834 187.653595 
L 442.181999 177.3221 
L 443.404845 183.077978 
L 444.588986 195.217106 
L 445.736798 194.012108 
L 446.850443 196.808009 
L 447.931898 187.326463 
L 448.98297 199.671232 
L 450.005321 186.014746 
L 451.000479 151.498118 
L 451.969852 176.85398 
L 452.914744 187.067518 
L 453.83636 178.558857 
L 454.73582 194.45789 
L 455.614163 193.37943 
L 456.472359 194.67752 
L 457.311312 193.531857 
L 458.131864 156.739547 
L 458.934807 164.917062 
L 459.720881 188.893483 
L 460.490778 197.127133 
L 461.245153 193.423693 
L 461.984618 191.01159 
L 462.709751 185.834744 
L 463.421097 187.867344 
L 464.119172 194.193556 
L 464.80446 198.896332 
L 465.477423 175.054647 
L 466.138494 190.887671 
L 466.788089 197.016239 
L 467.426598 197.034723 
L 468.054392 196.432771 
L 468.671827 200.244686 
L 469.279238 184.857122 
L 469.876946 111.424428 
L 471.044457 190.204147 
L 471.614829 194.208387 
L 472.730133 197.106551 
L 473.275561 154.10092 
L 473.813152 189.709295 
L 474.343128 187.073047 
L 474.865702 193.614493 
L 475.381078 183.37035 
L 475.889451 200.490907 
L 476.39101 190.614045 
L 477.374396 192.57566 
L 477.856563 196.000787 
L 478.332596 182.420033 
L 478.802649 155.629377 
L 479.266869 182.380947 
L 479.725401 189.291089 
L 480.178381 190.021676 
L 480.625942 195.659536 
L 481.068213 195.392673 
L 481.505317 174.881688 
L 481.937374 201.613771 
L 482.364498 192.949282 
L 482.786801 190.563992 
L 483.204391 194.378837 
L 483.617372 193.658094 
L 484.025844 201.425199 
L 484.429905 193.61086 
L 484.829649 202.966661 
L 485.225168 202.230053 
L 485.616549 202.489039 
L 486.003878 203.899618 
L 486.387239 176.549206 
L 486.766711 129.629597 
L 487.142374 132.535448 
L 487.514302 133.94982 
L 488.247248 193.929231 
L 488.608406 192.629466 
L 488.966111 188.399314 
L 489.671423 195.775096 
L 490.019155 201.487525 
L 490.363685 202.76111 
L 490.705071 198.521355 
L 491.043371 188.531602 
L 491.378639 198.206486 
L 491.710929 198.680736 
L 492.040295 202.617764 
L 492.690453 205.334059 
L 493.011344 202.63675 
L 493.329507 203.488536 
L 493.644987 192.726361 
L 493.957829 201.703391 
L 494.268076 200.331697 
L 494.575773 202.522996 
L 494.88096 186.850808 
L 495.183677 204.026246 
L 495.483965 199.334688 
L 495.781862 200.833502 
L 496.077406 199.112189 
L 496.370634 202.930446 
L 496.661581 195.464532 
L 496.950284 206.024929 
L 497.236776 191.291408 
L 497.521091 190.040099 
L 497.803262 189.59787 
L 498.083321 180.107986 
L 498.361299 188.861553 
L 498.637227 183.671983 
L 499.183052 170.802328 
L 499.453008 179.709146 
L 499.72103 200.411704 
L 499.987145 198.941388 
L 500.513764 200.089921 
L 500.77432 196.540644 
L 501.033074 196.592263 
L 501.290051 198.113314 
L 501.545275 195.744902 
L 501.798769 197.161823 
L 502.050558 196.406972 
L 502.549109 202.587931 
L 502.795915 198.654606 
L 503.041104 197.0542 
L 503.526713 201.510464 
L 504.0061 185.96674 
L 504.24351 81.792756 
L 504.479423 192.408602 
L 504.713858 179.18709 
L 504.946833 182.200714 
L 505.178366 149.557495 
L 505.408476 138.281082 
L 505.637179 182.814216 
L 506.315017 198.055383 
L 506.538262 188.578755 
L 506.760182 189.374989 
L 506.980794 190.978806 
L 507.200113 202.542895 
L 507.418154 199.311849 
L 507.634931 204.887625 
L 507.85046 190.059788 
L 508.064754 203.564318 
L 508.277828 192.189353 
L 508.489695 201.610651 
L 508.700369 184.137714 
L 509.118192 199.151495 
L 509.325367 196.470271 
L 509.531401 201.713717 
L 509.736307 189.379816 
L 509.940096 193.375386 
L 510.142782 206.518707 
L 510.344376 177.930805 
L 510.544889 200.685882 
L 510.744333 202.912222 
L 510.94272 201.706221 
L 511.14006 205.676012 
L 511.336365 203.725405 
L 511.531646 205.56268 
L 511.725913 188.510469 
L 512.111446 206.764086 
L 512.493047 193.887768 
L 512.682398 204.365138 
L 512.870796 199.399753 
L 513.058249 203.256955 
L 513.244768 203.702165 
L 513.61504 198.885474 
L 513.798811 202.707926 
L 513.981684 200.749522 
L 514.163667 197.162987 
L 514.344769 200.073373 
L 514.524999 199.760732 
L 514.704365 198.539668 
L 514.882875 190.498977 
L 515.060538 200.049561 
L 515.237361 200.042416 
L 515.413352 200.836202 
L 515.588519 199.842334 
L 515.936413 207.7773 
L 516.109154 207.093605 
L 516.281101 208.952525 
L 516.452262 205.126531 
L 516.622643 197.971734 
L 516.792252 205.358183 
L 517.129181 183.56707 
L 517.296514 181.525649 
L 517.463102 186.176706 
L 517.628952 155.674012 
L 517.79407 185.701593 
L 517.958463 175.819091 
L 518.122136 190.303701 
L 518.44735 195.381334 
L 518.608904 194.953996 
L 518.929932 204.171157 
L 519.08942 201.845031 
L 519.24823 202.562603 
L 519.406369 200.237581 
L 519.563843 202.011427 
L 519.720656 205.580933 
L 519.876815 206.383519 
L 520.032325 204.825239 
L 520.495015 193.2234 
L 520.647982 202.980378 
L 520.952052 187.340693 
L 521.103166 199.729303 
L 521.403574 188.542449 
L 521.552879 197.16093 
L 521.70159 193.091915 
L 521.849712 201.695323 
L 521.997251 193.969441 
L 522.290593 201.805535 
L 522.581654 190.756688 
L 522.72634 203.857 
L 522.870468 200.171733 
L 523.014043 201.244444 
L 523.15707 198.066763 
L 523.441493 208.028961 
L 523.72377 197.789965 
L 523.864114 201.957942 
L 524.003933 196.589001 
L 524.143232 179.128126 
L 524.282015 203.126203 
L 524.420284 186.393526 
L 524.558044 195.174097 
L 524.695299 196.046726 
L 524.832053 198.690169 
L 524.968308 204.938923 
L 525.104069 189.038385 
L 525.374122 206.408205 
L 525.508421 196.386431 
L 525.642239 195.650465 
L 525.775581 205.654397 
L 525.90845 205.004218 
L 526.040848 203.23534 
L 526.172779 190.986403 
L 526.304247 193.09036 
L 526.435254 201.588685 
L 526.565804 200.416721 
L 526.6959 205.431827 
L 526.825546 204.931096 
L 526.954744 196.232348 
L 527.083497 201.945679 
L 527.211809 201.869787 
L 527.339682 198.7367 
L 527.46712 185.979625 
L 527.7207 202.477439 
L 527.972574 203.509067 
L 528.097878 203.744702 
L 528.222763 207.212918 
L 528.347233 197.670502 
L 528.47129 203.743889 
L 528.718178 194.225908 
L 528.841014 200.068466 
L 528.963447 198.749253 
L 529.207119 204.443228 
L 529.328362 191.707878 
L 529.449214 206.555655 
L 529.569677 190.998334 
L 529.809445 196.737746 
L 529.928755 202.601969 
L 530.402227 146.06646 
L 530.519665 177.340403 
L 530.636735 172.194514 
L 530.753441 189.196221 
L 530.869783 172.391335 
L 531.101388 196.451425 
L 531.216655 183.368654 
L 531.331568 201.859612 
L 531.560341 195.168357 
L 531.674205 194.254788 
L 531.900898 206.48498 
L 532.126227 202.496093 
L 532.238384 207.573385 
L 532.461695 202.729029 
L 532.572853 205.80261 
L 532.683681 204.459193 
L 532.904358 193.047502 
L 533.014211 188.506294 
L 533.232952 197.45602 
L 533.341846 199.636 
L 533.558686 207.922342 
L 533.666636 207.970569 
L 533.774276 203.157922 
L 533.881608 208.784374 
L 533.988632 207.218337 
L 534.201766 195.183339 
L 534.30788 184.164316 
L 534.413694 204.022844 
L 534.624427 189.999559 
L 534.729351 203.963388 
L 534.833981 177.010873 
L 534.938319 200.302255 
L 535.042367 196.515096 
L 535.249599 207.139243 
L 535.45569 207.671183 
L 535.558311 198.418048 
L 535.762713 204.147866 
L 535.966004 187.236863 
L 536.067237 189.262951 
L 536.168197 158.848702 
L 536.369303 207.080129 
L 536.469452 199.507516 
L 536.569334 199.591025 
L 536.768301 194.568121 
L 536.867389 194.930214 
L 537.064781 205.982522 
L 537.163088 202.414611 
L 537.358931 205.317281 
L 537.456469 207.49109 
L 537.553754 202.455744 
L 537.650786 207.786642 
L 537.747568 202.642349 
L 537.844099 205.562459 
L 537.940383 204.852464 
L 538.132209 199.263352 
L 538.323057 204.032066 
L 538.512937 193.243821 
L 538.795961 209.148092 
L 539.076861 195.893215 
L 539.170027 199.534289 
L 539.262962 186.170656 
L 539.355667 189.337218 
L 539.540391 203.214207 
L 539.724207 182.833874 
L 539.907124 120.037339 
L 540.179834 184.000168 
L 540.270298 201.962989 
L 540.360543 192.393821 
L 540.450571 196.097592 
L 540.62998 191.724355 
L 540.719363 194.290832 
L 540.808533 202.635254 
L 540.897491 187.800955 
L 540.986237 189.710078 
L 541.074774 192.332228 
L 541.251222 185.419297 
L 541.339135 188.349933 
L 541.426841 182.826057 
L 541.60164 202.926903 
L 541.688735 201.151482 
L 541.862317 204.158864 
L 542.035098 198.54894 
L 542.292783 208.669597 
L 542.378285 194.669542 
L 542.548705 201.999255 
L 542.633625 187.497053 
L 542.802888 207.978426 
L 542.887234 208.672617 
L 542.97139 207.753538 
L 543.055357 205.251765 
L 543.139136 208.994701 
L 543.222728 208.592801 
L 543.306133 205.534302 
L 543.389353 209.302937 
L 543.472388 208.914042 
L 543.720394 195.377942 
L 543.802698 194.878164 
L 543.966767 207.880898 
L 544.048532 202.708357 
L 544.130118 203.851923 
L 544.211528 208.528388 
L 544.29276 206.57746 
L 544.373816 208.348245 
L 544.454698 207.71654 
L 544.535405 201.447526 
L 544.615938 209.789952 
L 544.696298 209.283189 
L 544.856502 202.30134 
L 544.936348 206.577942 
L 545.016023 186.540685 
L 545.09553 188.092443 
L 545.254037 204.670815 
L 545.33304 199.174635 
L 545.411876 209.151303 
L 545.490547 198.707017 
L 545.569052 207.978065 
L 545.647393 197.73649 
L 545.72557 203.267812 
L 545.803585 202.455242 
L 545.881437 199.554167 
L 545.959127 207.962461 
L 546.036657 201.415465 
L 546.114026 206.257774 
L 546.191235 203.207233 
L 546.345177 172.349159 
L 546.421912 184.118497 
L 546.57491 139.869175 
L 546.651175 192.786288 
L 546.727285 192.666062 
L 546.803241 164.295603 
L 546.879042 188.266103 
L 546.954691 171.696903 
L 547.180722 199.936119 
L 547.255764 181.157696 
L 547.330655 195.111029 
L 547.405397 186.774033 
L 547.554434 197.828539 
L 547.62873 193.260488 
L 547.702879 179.766294 
L 547.924449 199.29181 
L 548.071437 190.65031 
L 548.217849 201.494689 
L 548.290841 189.72794 
L 548.363691 191.443985 
L 548.436399 195.667373 
L 548.508966 193.268205 
L 548.581393 202.853138 
L 548.65368 202.330761 
L 548.725828 195.535146 
L 548.797836 201.242597 
L 548.869706 190.373513 
L 548.941439 191.237933 
L 549.013034 203.975611 
L 549.084493 187.314502 
L 549.155815 196.58586 
L 549.227002 185.909472 
L 549.298053 203.01572 
L 549.36897 189.484538 
L 549.439752 198.563972 
L 549.510401 196.215399 
L 549.6513 194.988546 
L 549.721551 180.455397 
L 549.861659 197.119075 
L 549.931516 199.414424 
L 550.070841 176.734929 
L 550.140309 180.995686 
L 550.209649 179.446668 
L 550.27886 197.112071 
L 550.347944 192.801712 
L 550.4169 193.896408 
L 550.554433 203.554936 
L 550.691461 196.112272 
L 550.759788 183.981443 
L 550.896068 199.871525 
L 550.964023 196.414116 
L 551.099562 185.054565 
L 551.167148 204.793791 
L 551.234613 201.196428 
L 551.436278 188.701028 
L 551.636863 204.496723 
L 551.769992 196.526575 
L 551.836378 206.153403 
L 551.902648 202.184124 
L 551.9688 179.952056 
L 552.034835 205.52797 
L 552.100754 191.214411 
L 552.232245 202.20621 
L 552.297818 199.737772 
L 552.363276 207.970468 
L 552.428619 207.241326 
L 552.493849 206.720435 
L 552.558965 208.753537 
L 552.623967 208.258605 
L 552.688858 182.833222 
L 552.753635 196.245393 
L 552.947299 205.042932 
L 553.011631 208.378439 
L 553.139965 190.317489 
L 553.203967 203.426291 
L 553.331644 188.11484 
L 553.522346 205.420197 
L 553.585698 206.234484 
L 553.838038 191.884951 
L 553.963573 205.64351 
L 554.026183 178.858815 
L 554.15109 203.005475 
L 554.337671 208.013327 
L 554.523326 199.374205 
L 554.708065 208.44806 
L 554.769442 197.302459 
L 554.830719 200.29211 
L 554.891896 206.599145 
L 554.952973 204.192752 
L 555.074828 208.480322 
L 555.196288 206.106501 
L 555.317355 207.618872 
L 555.377741 198.071509 
L 555.438031 198.289202 
L 555.618319 208.096123 
L 555.678222 206.634397 
L 555.73803 187.645688 
L 555.797742 205.537734 
L 555.857359 200.196991 
L 556.035642 207.758234 
L 556.094882 202.59339 
L 556.154028 207.011622 
L 556.21308 205.888577 
L 556.27204 206.448554 
L 556.330906 208.055041 
L 556.389681 202.221835 
L 556.448363 205.827867 
L 556.623859 209.156752 
L 556.682175 201.181968 
L 556.7404 203.977638 
L 556.85658 208.029292 
L 556.914535 192.529821 
L 556.9724 208.703945 
L 557.030176 197.159946 
L 557.145461 207.622234 
L 557.20297 184.629936 
L 557.260391 208.608375 
L 557.317725 199.694523 
L 557.432128 196.022311 
L 557.489199 197.605899 
L 557.546183 204.853929 
L 557.60308 199.576123 
L 557.716616 197.332041 
L 557.773255 203.853187 
L 557.829808 195.007571 
L 557.886276 196.020655 
L 557.942659 202.320205 
L 557.998957 201.346407 
L 558.055171 184.312789 
L 558.1113 208.877867 
L 558.167345 202.00093 
L 558.223306 207.985972 
L 558.334978 195.588009 
L 558.390689 105.97233 
L 558.446318 177.983889 
L 558.501863 190.555171 
L 558.557327 109.169428 
L 558.612708 131.811384 
L 558.668008 174.885361 
L 558.723226 172.551188 
L 558.778362 133.442144 
L 558.833418 162.185303 
L 558.9981 189.471222 
L 559.107486 155.153501 
L 559.270969 188.034553 
L 559.325305 191.890991 
L 559.43374 186.196595 
L 559.541862 201.163745 
L 559.595807 200.579223 
L 559.757174 180.862415 
L 559.917848 193.916487 
L 559.971254 193.890247 
L 560.024583 194.737688 
L 560.077836 182.111566 
L 560.184115 182.726573 
L 560.395773 202.030222 
L 560.501154 191.833222 
L 560.553734 202.789548 
L 560.60624 194.751596 
L 560.658672 199.446033 
L 560.763317 179.857509 
L 560.919737 197.249014 
L 560.971732 192.1827 
L 561.023655 192.603446 
L 561.178993 199.52034 
L 561.230629 202.074314 
L 561.282194 178.373566 
L 561.333688 203.118697 
L 561.385112 202.807831 
L 561.487747 187.789595 
L 561.538959 193.917069 
L 561.590101 203.489971 
L 561.641174 202.07018 
L 561.793974 188.219211 
L 561.844769 191.895146 
L 561.895496 185.50417 
L 561.996742 197.373123 
L 562.198417 182.572891 
L 562.298848 201.824601 
L 562.348963 196.324396 
L 562.448992 204.988073 
L 562.498906 202.129074 
L 562.548754 194.553621 
L 562.598535 197.344565 
L 562.64825 204.932982 
L 562.697899 200.670248 
L 562.747483 195.327167 
L 562.797001 203.917841 
L 562.846453 203.726078 
L 562.89584 199.741114 
L 562.945162 204.056721 
L 562.994419 201.824641 
L 563.043611 204.730783 
L 563.239736 197.019029 
L 563.288607 196.919665 
L 563.337415 199.06919 
L 563.483456 187.956292 
L 563.580501 199.556435 
L 563.628929 191.727687 
L 563.677295 192.464656 
L 563.725598 194.115084 
L 563.773839 186.94678 
L 563.822018 189.696019 
L 563.870134 197.712467 
L 563.966183 197.186658 
L 564.061985 168.557163 
L 564.205231 198.139314 
L 564.252858 197.226205 
L 564.300424 185.003428 
L 564.34793 186.962193 
L 564.395376 197.295535 
L 564.442761 195.2935 
L 564.490087 188.68149 
L 564.537353 204.647083 
L 564.631706 203.258591 
L 564.678793 201.541893 
L 564.772791 206.582598 
L 564.819701 183.566729 
L 564.866553 198.319457 
L 564.913345 203.567399 
L 564.96008 199.644179 
L 565.053374 193.408671 
L 565.099934 198.718356 
L 565.146437 187.326012 
L 565.192881 194.626654 
L 565.33187 203.30758 
L 565.378085 200.340477 
L 565.424243 201.931701 
L 565.470344 203.914359 
L 565.700001 178.503064 
L 565.882717 198.481156 
L 566.019171 187.790819 
L 566.109865 201.614865 
L 566.15513 196.442535 
L 566.200339 200.273626 
L 566.290596 180.682914 
L 566.335642 204.488515 
L 566.425573 203.193084 
L 566.515288 206.9388 
L 566.738639 175.9634 
L 566.78315 185.386704 
L 566.827607 140.454499 
L 566.872012 189.897195 
L 566.960665 177.611149 
L 567.004912 196.705755 
L 567.049107 147.015162 
L 567.09325 201.926031 
L 567.181381 195.947412 
L 567.225368 197.925344 
L 567.269304 198.908324 
L 567.313188 196.311401 
L 567.357021 196.914076 
L 567.400802 204.245584 
L 567.488212 201.407508 
L 567.618944 206.402655 
L 567.749222 196.217496 
L 567.792547 198.159122 
L 567.835822 205.64938 
L 567.879047 205.599819 
L 568.008424 195.307519 
L 568.05145 200.694452 
L 568.137355 184.273172 
L 568.265843 203.04148 
L 568.308574 202.935563 
L 568.351257 193.678223 
L 568.393891 197.619435 
L 568.436476 203.369845 
L 568.521502 201.884678 
L 568.563943 200.708671 
L 568.606336 196.390926 
L 568.64868 200.955003 
L 568.690977 204.090468 
L 568.859687 182.239137 
L 568.901746 203.990211 
L 568.985723 198.430691 
L 569.02764 199.200183 
L 569.069511 152.205494 
L 569.111335 155.119765 
L 569.153112 184.297848 
L 569.194843 58.999858 
L 569.236527 196.002141 
L 569.278164 191.264224 
L 569.319756 199.789291 
L 569.361301 190.094197 
L 569.568338 202.458734 
L 569.733147 180.563672 
L 569.774236 198.070566 
L 569.81528 196.481821 
L 569.856279 182.161077 
L 569.897233 184.743389 
L 569.938142 196.013731 
L 570.019827 190.434303 
L 570.060603 195.983858 
L 570.101334 179.288953 
L 570.182663 182.066068 
L 570.263817 191.671442 
L 570.304327 185.929522 
L 570.425597 194.747753 
L 570.465933 191.311718 
L 570.506225 193.333029 
L 570.546475 193.105021 
L 570.586681 171.734994 
L 570.666963 186.4148 
L 570.70704 201.29254 
L 570.747074 185.699225 
L 570.787065 181.490799 
L 570.946603 195.905959 
L 570.986382 199.006403 
L 571.026118 177.074553 
L 571.105464 190.536005 
L 571.145074 193.000981 
L 571.263653 178.074833 
L 571.460454 201.54689 
L 571.49969 199.23121 
L 571.538885 200.100788 
L 571.617153 195.163099 
L 571.656225 180.140237 
L 571.734247 188.55426 
L 571.850977 178.772587 
L 572.006052 199.330373 
L 572.083349 189.651074 
L 572.121938 192.226452 
L 572.160487 197.820501 
L 572.314287 179.843551 
L 572.352638 192.144037 
L 572.429223 184.770964 
L 572.467457 173.230909 
L 572.505652 191.600707 
L 572.543808 188.631698 
L 572.581925 202.811022 
L 572.658043 190.097026 
L 572.734006 197.763042 
L 572.77193 192.212353 
L 572.809815 190.131536 
L 572.847662 172.749433 
L 572.885471 192.903243 
L 572.960974 180.138491 
L 572.998669 188.803221 
L 573.073945 183.967034 
L 573.149069 202.094735 
L 573.186575 194.827408 
L 573.261473 197.520824 
L 573.298867 195.560474 
L 573.336222 203.089827 
L 573.485274 185.725145 
L 573.522444 177.823002 
L 573.559578 200.026702 
L 573.633734 189.707278 
L 573.670758 188.701499 
L 573.707744 174.073965 
L 573.781608 188.6409 
L 573.855326 202.367589 
L 573.928899 200.46569 
L 574.038989 173.872979 
L 574.075613 153.191033 
L 574.112202 171.778615 
L 574.185272 171.383509 
L 574.403631 201.541953 
L 574.584628 175.430537 
L 574.656783 197.415279 
L 574.728798 189.217223 
L 574.764754 191.894674 
L 574.800675 190.807143 
L 574.836562 183.971519 
L 574.872415 187.029396 
L 574.944017 195.88597 
L 574.979767 183.411201 
L 575.015482 195.444282 
L 575.051164 200.687237 
L 575.086811 190.238977 
L 575.264541 166.693948 
L 575.441431 197.345939 
L 575.617489 179.325921 
L 575.652601 200.038864 
L 575.722727 199.913671 
L 575.862585 160.685375 
L 576.001923 199.171183 
L 576.106087 176.556461 
L 576.140744 177.037816 
L 576.244523 197.763654 
L 576.279052 172.856835 
L 576.348015 186.772347 
L 576.382448 197.082117 
L 576.451221 186.267601 
L 576.588388 178.454125 
L 576.656783 195.037826 
L 576.725054 188.118393 
L 576.759142 170.885295 
L 576.7932 199.163968 
L 576.861222 202.46046 
L 576.963024 191.997199 
L 576.996897 198.800069 
L 577.030739 168.077203 
L 577.098331 180.475035 
L 577.132081 188.850916 
L 577.23315 187.173213 
L 577.400994 201.767503 
L 577.50134 201.905179 
L 577.534729 198.523041 
L 577.601417 200.360135 
L 577.667987 184.977248 
L 577.767621 201.339111 
L 577.800773 199.09237 
L 577.900054 180.978246 
L 577.999072 199.714301 
L 578.03202 195.780505 
L 578.064939 195.586243 
L 578.163523 200.496868 
L 578.13069 194.586435 
L 578.196326 199.203585 
L 578.294564 192.880635 
L 578.359914 201.09005 
L 578.392545 194.68043 
L 578.425149 188.968724 
L 578.457724 196.877499 
L 578.49027 199.18783 
L 578.652581 162.073948 
L 578.684958 168.495178 
L 578.74963 160.337773 
L 578.81419 179.829111 
L 578.846428 175.84476 
L 578.878638 181.968972 
L 578.910821 180.143027 
L 578.942976 199.157345 
L 579.039276 191.668512 
L 579.071321 192.409214 
L 579.167291 200.828194 
L 579.199227 199.737963 
L 579.29487 177.925216 
L 579.263016 200.955314 
L 579.326697 190.383367 
L 579.358497 196.404162 
L 579.39027 190.508199 
L 579.422015 178.744098 
L 579.453734 197.981829 
L 579.485426 182.006894 
L 579.54873 197.880579 
L 579.611927 197.543212 
L 579.643485 199.388896 
L 579.706522 189.346751 
L 579.769454 194.764079 
L 579.800879 200.95721 
L 579.863652 198.737553 
L 579.92632 188.11199 
L 579.957614 200.676309 
L 580.051341 197.122316 
L 580.082531 196.75628 
L 580.175946 181.307615 
L 580.238093 197.32588 
L 580.269128 196.103683 
L 580.300137 179.269776 
L 580.362078 197.969145 
L 580.39301 197.853033 
L 580.423917 194.66319 
L 580.485654 199.721536 
L 580.516484 195.423179 
L 580.547289 198.631616 
L 580.639552 168.298026 
L 580.670256 168.893225 
L 580.731588 198.030738 
L 580.79282 181.853654 
L 580.88448 197.158682 
L 580.914984 170.584194 
L 580.975916 196.33125 
L 581.067129 173.214632 
L 581.097484 182.828716 
L 581.218659 198.801755 
L 581.248891 199.695155 
L 581.2791 193.401235 
L 581.339443 198.822366 
L 581.369578 198.322708 
L 581.399688 199.457001 
L 581.51989 191.131314 
L 581.459837 200.724495 
L 581.54988 191.96585 
L 581.579846 192.293614 
L 581.609788 195.341476 
L 581.639706 186.624084 
L 581.6696 197.341042 
L 581.699471 193.192152 
L 581.729317 198.905193 
L 581.75914 194.309968 
L 581.848466 180.920305 
L 581.878194 185.368702 
L 581.907899 189.035073 
L 581.937579 188.086261 
L 581.996871 181.383517 
L 582.026481 191.018122 
L 582.056068 198.131035 
L 582.085631 186.431257 
L 582.115172 171.318664 
L 582.144689 188.793678 
L 582.174182 176.997999 
L 582.2331 172.64718 
L 582.321303 192.557065 
L 582.379989 186.499654 
L 582.409298 167.806898 
L 582.438584 195.652331 
L 582.497087 179.527518 
L 582.61382 201.141749 
L 582.701131 200.090864 
L 582.730189 173.608635 
L 582.817229 186.763928 
L 582.846198 180.671605 
L 582.875144 191.392126 
L 582.990705 200.722167 
L 583.077142 183.439489 
L 583.10591 197.551611 
L 583.163379 196.309555 
L 583.220761 200.084181 
L 583.363831 172.346199 
L 583.39238 196.160148 
L 583.477895 193.733745 
L 583.506356 182.213318 
L 583.591612 187.816278 
L 583.648341 192.813512 
L 583.676673 183.1766 
L 583.761541 192.008187 
L 583.789788 196.11171 
L 583.874401 196.402998 
L 583.930703 162.373093 
L 583.958822 158.030081 
L 583.986921 196.592202 
L 584.071089 192.027504 
L 584.18302 167.174601 
L 584.21095 197.469336 
L 584.294617 190.044715 
L 584.322464 180.511903 
L 584.405882 184.959326 
L 584.433647 197.364554 
L 584.489114 189.361733 
L 584.5445 194.871531 
L 584.572162 171.595673 
L 584.655025 202.749851 
L 584.710166 196.169591 
L 584.737706 203.800746 
L 584.765226 197.793357 
L 584.820204 157.837455 
L 584.875102 186.481581 
L 584.957298 199.864451 
L 585.066613 175.376179 
L 585.121151 199.785658 
L 585.175609 187.143059 
L 585.202809 179.943978 
L 585.229988 182.05503 
L 585.33851 199.904529 
L 585.365592 181.072241 
L 585.446719 197.192117 
L 585.473722 193.490976 
L 585.554615 196.925445 
L 585.608446 200.130521 
L 585.635333 199.582164 
L 585.662201 186.620923 
L 585.689049 200.366517 
L 585.742688 189.589551 
" clip-path="url(#pd26740bf0d)" style="fill: none; stroke: #008000; stroke-width: 1.5; stroke-linecap: square"/>
   </g>
   <g id="patch_3">
    <path d="M 228.622687 311.6435 
L 228.622687 45.5315 
" style="fill: none; stroke: #000000; stroke-width: 0.8; stroke-linejoin: miter; stroke-linecap: square"/>
   </g>
   <g id="patch_4">
    <path d="M 585.742688 311.6435 
L 585.742688 45.5315 
" style="fill: none; stroke: #000000; stroke-width: 0.8; stroke-linejoin: miter; stroke-linecap: square"/>
   </g>
   <g id="patch_5">
    <path d="M 228.622687 311.6435 
L 585.742688 311.6435 
" style="fill: none; stroke: #000000; stroke-width: 0.8; stroke-linejoin: miter; stroke-linecap: square"/>
   </g>
   <g id="patch_6">
    <path d="M 228.622687 45.5315 
L 585.742688 45.5315 
" style="fill: none; stroke: #000000; stroke-width: 0.8; stroke-linejoin: miter; stroke-linecap: square"/>
   </g>
   <g id="text_10">
    <!-- Loss of the 12_05_25_CIFAR10_model_(1024+512-512-512+1)_1_save_2 -->
    <g transform="translate(7.2 25.5315) scale(0.264 -0.264)">
     <defs>
      <path id="TimesNewRomanPSMT-20" transform="scale(0.015625)"/>
      <path id="TimesNewRomanPSMT-66" d="M 1319 2638 
L 1319 756 
Q 1319 356 1406 250 
Q 1522 113 1716 113 
L 1975 113 
L 1975 0 
L 266 0 
L 266 113 
L 394 113 
Q 519 113 622 175 
Q 725 238 764 344 
Q 803 450 803 756 
L 803 2638 
L 247 2638 
L 247 2863 
L 803 2863 
L 803 3050 
Q 803 3478 940 3775 
Q 1078 4072 1361 4255 
Q 1644 4438 1997 4438 
Q 2325 4438 2600 4225 
Q 2781 4084 2781 3909 
Q 2781 3816 2700 3733 
Q 2619 3650 2525 3650 
Q 2453 3650 2373 3701 
Q 2294 3753 2178 3923 
Q 2063 4094 1966 4153 
Q 1869 4213 1750 4213 
Q 1606 4213 1506 4136 
Q 1406 4059 1362 3898 
Q 1319 3738 1319 3069 
L 1319 2863 
L 2056 2863 
L 2056 2638 
L 1319 2638 
z
" transform="scale(0.015625)"/>
      <path id="TimesNewRomanPSMT-74" d="M 1031 3803 
L 1031 2863 
L 1700 2863 
L 1700 2644 
L 1031 2644 
L 1031 788 
Q 1031 509 1111 412 
Q 1191 316 1316 316 
Q 1419 316 1516 380 
Q 1613 444 1666 569 
L 1788 569 
Q 1678 263 1478 108 
Q 1278 -47 1066 -47 
Q 922 -47 784 33 
Q 647 113 581 261 
Q 516 409 516 719 
L 516 2644 
L 63 2644 
L 63 2747 
Q 234 2816 414 2980 
Q 594 3144 734 3369 
Q 806 3488 934 3803 
L 1031 3803 
z
" transform="scale(0.015625)"/>
      <path id="TimesNewRomanPSMT-68" d="M 1041 4444 
L 1041 2350 
Q 1388 2731 1591 2839 
Q 1794 2947 1997 2947 
Q 2241 2947 2416 2812 
Q 2591 2678 2675 2391 
Q 2734 2191 2734 1659 
L 2734 647 
Q 2734 375 2778 275 
Q 2809 200 2884 156 
Q 2959 113 3159 113 
L 3159 0 
L 1753 0 
L 1753 113 
L 1819 113 
Q 2019 113 2097 173 
Q 2175 234 2206 353 
Q 2216 403 2216 647 
L 2216 1659 
Q 2216 2128 2167 2275 
Q 2119 2422 2012 2495 
Q 1906 2569 1756 2569 
Q 1603 2569 1437 2487 
Q 1272 2406 1041 2159 
L 1041 647 
Q 1041 353 1073 281 
Q 1106 209 1195 161 
Q 1284 113 1503 113 
L 1503 0 
L 84 0 
L 84 113 
Q 275 113 384 172 
Q 447 203 484 290 
Q 522 378 522 647 
L 522 3238 
Q 522 3728 498 3840 
Q 475 3953 426 3993 
Q 378 4034 297 4034 
Q 231 4034 84 3984 
L 41 4094 
L 897 4444 
L 1041 4444 
z
" transform="scale(0.015625)"/>
      <path id="TimesNewRomanPSMT-65" d="M 681 1784 
Q 678 1147 991 784 
Q 1303 422 1725 422 
Q 2006 422 2214 576 
Q 2422 731 2563 1106 
L 2659 1044 
Q 2594 616 2278 264 
Q 1963 -88 1488 -88 
Q 972 -88 605 314 
Q 238 716 238 1394 
Q 238 2128 614 2539 
Q 991 2950 1559 2950 
Q 2041 2950 2350 2633 
Q 2659 2316 2659 1784 
L 681 1784 
z
M 681 1966 
L 2006 1966 
Q 1991 2241 1941 2353 
Q 1863 2528 1708 2628 
Q 1553 2728 1384 2728 
Q 1125 2728 920 2526 
Q 716 2325 681 1966 
z
" transform="scale(0.015625)"/>
      <path id="TimesNewRomanPSMT-32" d="M 2934 816 
L 2638 0 
L 138 0 
L 138 116 
Q 1241 1122 1691 1759 
Q 2141 2397 2141 2925 
Q 2141 3328 1894 3587 
Q 1647 3847 1303 3847 
Q 991 3847 742 3664 
Q 494 3481 375 3128 
L 259 3128 
Q 338 3706 661 4015 
Q 984 4325 1469 4325 
Q 1984 4325 2329 3994 
Q 2675 3663 2675 3213 
Q 2675 2891 2525 2569 
Q 2294 2063 1775 1497 
Q 997 647 803 472 
L 1909 472 
Q 2247 472 2383 497 
Q 2519 522 2628 598 
Q 2738 675 2819 816 
L 2934 816 
z
" transform="scale(0.015625)"/>
      <path id="TimesNewRomanPSMT-5f" d="M 3256 -1381 
L -53 -1381 
L -53 -1119 
L 3256 -1119 
L 3256 -1381 
z
" transform="scale(0.015625)"/>
      <path id="TimesNewRomanPSMT-43" d="M 3853 4334 
L 3950 2894 
L 3853 2894 
Q 3659 3541 3300 3825 
Q 2941 4109 2438 4109 
Q 2016 4109 1675 3895 
Q 1334 3681 1139 3212 
Q 944 2744 944 2047 
Q 944 1472 1128 1050 
Q 1313 628 1683 403 
Q 2053 178 2528 178 
Q 2941 178 3256 354 
Q 3572 531 3950 1056 
L 4047 994 
Q 3728 428 3303 165 
Q 2878 -97 2294 -97 
Q 1241 -97 663 684 
Q 231 1266 231 2053 
Q 231 2688 515 3219 
Q 800 3750 1298 4042 
Q 1797 4334 2388 4334 
Q 2847 4334 3294 4109 
Q 3425 4041 3481 4041 
Q 3566 4041 3628 4100 
Q 3709 4184 3744 4334 
L 3853 4334 
z
" transform="scale(0.015625)"/>
      <path id="TimesNewRomanPSMT-49" d="M 1975 116 
L 1975 0 
L 159 0 
L 159 116 
L 309 116 
Q 572 116 691 269 
Q 766 369 766 750 
L 766 3488 
Q 766 3809 725 3913 
Q 694 3991 597 4047 
Q 459 4122 309 4122 
L 159 4122 
L 159 4238 
L 1975 4238 
L 1975 4122 
L 1822 4122 
Q 1563 4122 1444 3969 
Q 1366 3869 1366 3488 
L 1366 750 
Q 1366 428 1406 325 
Q 1438 247 1538 191 
Q 1672 116 1822 116 
L 1975 116 
z
" transform="scale(0.015625)"/>
      <path id="TimesNewRomanPSMT-46" d="M 1309 4006 
L 1309 2341 
L 2081 2341 
Q 2347 2341 2470 2458 
Q 2594 2575 2634 2922 
L 2750 2922 
L 2750 1488 
L 2634 1488 
Q 2631 1734 2570 1850 
Q 2509 1966 2401 2023 
Q 2294 2081 2081 2081 
L 1309 2081 
L 1309 750 
Q 1309 428 1350 325 
Q 1381 247 1481 191 
Q 1619 116 1769 116 
L 1922 116 
L 1922 0 
L 103 0 
L 103 116 
L 253 116 
Q 516 116 634 269 
Q 709 369 709 750 
L 709 3488 
Q 709 3809 669 3913 
Q 638 3991 541 4047 
Q 406 4122 253 4122 
L 103 4122 
L 103 4238 
L 3256 4238 
L 3297 3306 
L 3188 3306 
Q 3106 3603 2998 3742 
Q 2891 3881 2733 3943 
Q 2575 4006 2244 4006 
L 1309 4006 
z
" transform="scale(0.015625)"/>
      <path id="TimesNewRomanPSMT-41" d="M 2928 1419 
L 1288 1419 
L 1000 750 
Q 894 503 894 381 
Q 894 284 986 211 
Q 1078 138 1384 116 
L 1384 0 
L 50 0 
L 50 116 
Q 316 163 394 238 
Q 553 388 747 847 
L 2238 4334 
L 2347 4334 
L 3822 809 
Q 4000 384 4145 257 
Q 4291 131 4550 116 
L 4550 0 
L 2878 0 
L 2878 116 
Q 3131 128 3220 200 
Q 3309 272 3309 375 
Q 3309 513 3184 809 
L 2928 1419 
z
M 2841 1650 
L 2122 3363 
L 1384 1650 
L 2841 1650 
z
" transform="scale(0.015625)"/>
      <path id="TimesNewRomanPSMT-52" d="M 4325 0 
L 3194 0 
L 1759 1981 
Q 1600 1975 1500 1975 
Q 1459 1975 1412 1976 
Q 1366 1978 1316 1981 
L 1316 750 
Q 1316 350 1403 253 
Q 1522 116 1759 116 
L 1925 116 
L 1925 0 
L 109 0 
L 109 116 
L 269 116 
Q 538 116 653 291 
Q 719 388 719 750 
L 719 3488 
Q 719 3888 631 3984 
Q 509 4122 269 4122 
L 109 4122 
L 109 4238 
L 1653 4238 
Q 2328 4238 2648 4139 
Q 2969 4041 3192 3777 
Q 3416 3513 3416 3147 
Q 3416 2756 3161 2468 
Q 2906 2181 2372 2063 
L 3247 847 
Q 3547 428 3762 290 
Q 3978 153 4325 116 
L 4325 0 
z
M 1316 2178 
Q 1375 2178 1419 2176 
Q 1463 2175 1491 2175 
Q 2097 2175 2405 2437 
Q 2713 2700 2713 3106 
Q 2713 3503 2464 3751 
Q 2216 4000 1806 4000 
Q 1625 4000 1316 3941 
L 1316 2178 
z
" transform="scale(0.015625)"/>
      <path id="TimesNewRomanPSMT-6d" d="M 1050 2338 
Q 1363 2650 1419 2697 
Q 1559 2816 1721 2881 
Q 1884 2947 2044 2947 
Q 2313 2947 2506 2790 
Q 2700 2634 2766 2338 
Q 3088 2713 3309 2830 
Q 3531 2947 3766 2947 
Q 3994 2947 4170 2830 
Q 4347 2713 4450 2447 
Q 4519 2266 4519 1878 
L 4519 647 
Q 4519 378 4559 278 
Q 4591 209 4675 161 
Q 4759 113 4950 113 
L 4950 0 
L 3538 0 
L 3538 113 
L 3597 113 
Q 3781 113 3884 184 
Q 3956 234 3988 344 
Q 4000 397 4000 647 
L 4000 1878 
Q 4000 2228 3916 2372 
Q 3794 2572 3525 2572 
Q 3359 2572 3192 2489 
Q 3025 2406 2788 2181 
L 2781 2147 
L 2788 2013 
L 2788 647 
Q 2788 353 2820 281 
Q 2853 209 2943 161 
Q 3034 113 3253 113 
L 3253 0 
L 1806 0 
L 1806 113 
Q 2044 113 2133 169 
Q 2222 225 2256 338 
Q 2272 391 2272 647 
L 2272 1878 
Q 2272 2228 2169 2381 
Q 2031 2581 1784 2581 
Q 1616 2581 1450 2491 
Q 1191 2353 1050 2181 
L 1050 647 
Q 1050 366 1089 281 
Q 1128 197 1204 155 
Q 1281 113 1516 113 
L 1516 0 
L 100 0 
L 100 113 
Q 297 113 375 155 
Q 453 197 493 289 
Q 534 381 534 647 
L 534 1741 
Q 534 2213 506 2350 
Q 484 2453 437 2492 
Q 391 2531 309 2531 
Q 222 2531 100 2484 
L 53 2597 
L 916 2947 
L 1050 2947 
L 1050 2338 
z
" transform="scale(0.015625)"/>
      <path id="TimesNewRomanPSMT-64" d="M 2222 322 
Q 2013 103 1813 7 
Q 1613 -88 1381 -88 
Q 913 -88 563 304 
Q 213 697 213 1313 
Q 213 1928 600 2439 
Q 988 2950 1597 2950 
Q 1975 2950 2222 2709 
L 2222 3238 
Q 2222 3728 2198 3840 
Q 2175 3953 2125 3993 
Q 2075 4034 2000 4034 
Q 1919 4034 1784 3984 
L 1744 4094 
L 2597 4444 
L 2738 4444 
L 2738 1134 
Q 2738 631 2761 520 
Q 2784 409 2836 365 
Q 2888 322 2956 322 
Q 3041 322 3181 375 
L 3216 266 
L 2366 -88 
L 2222 -88 
L 2222 322 
z
M 2222 541 
L 2222 2016 
Q 2203 2228 2109 2403 
Q 2016 2578 1861 2667 
Q 1706 2756 1559 2756 
Q 1284 2756 1069 2509 
Q 784 2184 784 1559 
Q 784 928 1059 592 
Q 1334 256 1672 256 
Q 1956 256 2222 541 
z
" transform="scale(0.015625)"/>
      <path id="TimesNewRomanPSMT-6c" d="M 1184 4444 
L 1184 647 
Q 1184 378 1223 290 
Q 1263 203 1344 158 
Q 1425 113 1647 113 
L 1647 0 
L 244 0 
L 244 113 
Q 441 113 512 153 
Q 584 194 625 287 
Q 666 381 666 647 
L 666 3247 
Q 666 3731 644 3842 
Q 622 3953 573 3993 
Q 525 4034 450 4034 
Q 369 4034 244 3984 
L 191 4094 
L 1044 4444 
L 1184 4444 
z
" transform="scale(0.015625)"/>
      <path id="TimesNewRomanPSMT-28" d="M 1988 -1253 
L 1988 -1369 
Q 1516 -1131 1200 -813 
Q 750 -359 506 256 
Q 263 872 263 1534 
Q 263 2503 741 3301 
Q 1219 4100 1988 4444 
L 1988 4313 
Q 1603 4100 1356 3731 
Q 1109 3363 987 2797 
Q 866 2231 866 1616 
Q 866 947 969 400 
Q 1050 -31 1165 -292 
Q 1281 -553 1476 -793 
Q 1672 -1034 1988 -1253 
z
" transform="scale(0.015625)"/>
      <path id="TimesNewRomanPSMT-34" d="M 2978 1563 
L 2978 1119 
L 2409 1119 
L 2409 0 
L 1894 0 
L 1894 1119 
L 100 1119 
L 100 1519 
L 2066 4325 
L 2409 4325 
L 2409 1563 
L 2978 1563 
z
M 1894 1563 
L 1894 3666 
L 406 1563 
L 1894 1563 
z
" transform="scale(0.015625)"/>
      <path id="TimesNewRomanPSMT-2b" d="M 1672 441 
L 1672 2000 
L 116 2000 
L 116 2256 
L 1672 2256 
L 1672 3809 
L 1922 3809 
L 1922 2256 
L 3484 2256 
L 3484 2000 
L 1922 2000 
L 1922 441 
L 1672 441 
z
" transform="scale(0.015625)"/>
      <path id="TimesNewRomanPSMT-2d" d="M 259 1672 
L 1875 1672 
L 1875 1200 
L 259 1200 
L 259 1672 
z
" transform="scale(0.015625)"/>
      <path id="TimesNewRomanPSMT-29" d="M 144 4313 
L 144 4444 
Q 619 4209 934 3891 
Q 1381 3434 1625 2820 
Q 1869 2206 1869 1541 
Q 1869 572 1392 -226 
Q 916 -1025 144 -1369 
L 144 -1253 
Q 528 -1038 776 -670 
Q 1025 -303 1145 264 
Q 1266 831 1266 1447 
Q 1266 2113 1163 2663 
Q 1084 3094 967 3353 
Q 850 3613 656 3853 
Q 463 4094 144 4313 
z
" transform="scale(0.015625)"/>
      <path id="TimesNewRomanPSMT-61" d="M 1822 413 
Q 1381 72 1269 19 
Q 1100 -59 909 -59 
Q 613 -59 420 144 
Q 228 347 228 678 
Q 228 888 322 1041 
Q 450 1253 767 1440 
Q 1084 1628 1822 1897 
L 1822 2009 
Q 1822 2438 1686 2597 
Q 1550 2756 1291 2756 
Q 1094 2756 978 2650 
Q 859 2544 859 2406 
L 866 2225 
Q 866 2081 792 2003 
Q 719 1925 600 1925 
Q 484 1925 411 2006 
Q 338 2088 338 2228 
Q 338 2497 613 2722 
Q 888 2947 1384 2947 
Q 1766 2947 2009 2819 
Q 2194 2722 2281 2516 
Q 2338 2381 2338 1966 
L 2338 994 
Q 2338 584 2353 492 
Q 2369 400 2405 369 
Q 2441 338 2488 338 
Q 2538 338 2575 359 
Q 2641 400 2828 588 
L 2828 413 
Q 2478 -56 2159 -56 
Q 2006 -56 1915 50 
Q 1825 156 1822 413 
z
M 1822 616 
L 1822 1706 
Q 1350 1519 1213 1441 
Q 966 1303 859 1153 
Q 753 1003 753 825 
Q 753 600 887 451 
Q 1022 303 1197 303 
Q 1434 303 1822 616 
z
" transform="scale(0.015625)"/>
      <path id="TimesNewRomanPSMT-76" d="M 53 2863 
L 1400 2863 
L 1400 2747 
L 1313 2747 
Q 1191 2747 1127 2687 
Q 1063 2628 1063 2528 
Q 1063 2419 1128 2269 
L 1794 688 
L 2463 2328 
Q 2534 2503 2534 2594 
Q 2534 2638 2509 2666 
Q 2475 2713 2422 2730 
Q 2369 2747 2206 2747 
L 2206 2863 
L 3141 2863 
L 3141 2747 
Q 2978 2734 2916 2681 
Q 2806 2588 2719 2369 
L 1703 -88 
L 1575 -88 
L 553 2328 
Q 484 2497 421 2570 
Q 359 2644 263 2694 
Q 209 2722 53 2747 
L 53 2863 
z
" transform="scale(0.015625)"/>
     </defs>
     <use xlink:href="#TimesNewRomanPSMT-4c"/>
     <use xlink:href="#TimesNewRomanPSMT-6f" transform="translate(61.083984 0)"/>
     <use xlink:href="#TimesNewRomanPSMT-73" transform="translate(111.083984 0)"/>
     <use xlink:href="#TimesNewRomanPSMT-73" transform="translate(150 0)"/>
     <use xlink:href="#TimesNewRomanPSMT-20" transform="translate(188.916016 0)"/>
     <use xlink:href="#TimesNewRomanPSMT-6f" transform="translate(213.916016 0)"/>
     <use xlink:href="#TimesNewRomanPSMT-66" transform="translate(263.916016 0)"/>
     <use xlink:href="#TimesNewRomanPSMT-20" transform="translate(297.216797 0)"/>
     <use xlink:href="#TimesNewRomanPSMT-74" transform="translate(322.216797 0)"/>
     <use xlink:href="#TimesNewRomanPSMT-68" transform="translate(350 0)"/>
     <use xlink:href="#TimesNewRomanPSMT-65" transform="translate(400 0)"/>
     <use xlink:href="#TimesNewRomanPSMT-20" transform="translate(444.384766 0)"/>
     <use xlink:href="#TimesNewRomanPSMT-31" transform="translate(469.384766 0)"/>
     <use xlink:href="#TimesNewRomanPSMT-32" transform="translate(519.384766 0)"/>
     <use xlink:href="#TimesNewRomanPSMT-5f" transform="translate(569.384766 0)"/>
     <use xlink:href="#TimesNewRomanPSMT-30" transform="translate(619.384766 0)"/>
     <use xlink:href="#TimesNewRomanPSMT-35" transform="translate(669.384766 0)"/>
     <use xlink:href="#TimesNewRomanPSMT-5f" transform="translate(719.384766 0)"/>
     <use xlink:href="#TimesNewRomanPSMT-32" transform="translate(769.384766 0)"/>
     <use xlink:href="#TimesNewRomanPSMT-35" transform="translate(819.384766 0)"/>
     <use xlink:href="#TimesNewRomanPSMT-5f" transform="translate(869.384766 0)"/>
     <use xlink:href="#TimesNewRomanPSMT-43" transform="translate(919.384766 0)"/>
     <use xlink:href="#TimesNewRomanPSMT-49" transform="translate(986.083984 0)"/>
     <use xlink:href="#TimesNewRomanPSMT-46" transform="translate(1019.384766 0)"/>
     <use xlink:href="#TimesNewRomanPSMT-41" transform="translate(1067.625 0)"/>
     <use xlink:href="#TimesNewRomanPSMT-52" transform="translate(1139.841797 0)"/>
     <use xlink:href="#TimesNewRomanPSMT-31" transform="translate(1206.541016 0)"/>
     <use xlink:href="#TimesNewRomanPSMT-30" transform="translate(1256.541016 0)"/>
     <use xlink:href="#TimesNewRomanPSMT-5f" transform="translate(1306.541016 0)"/>
     <use xlink:href="#TimesNewRomanPSMT-6d" transform="translate(1356.541016 0)"/>
     <use xlink:href="#TimesNewRomanPSMT-6f" transform="translate(1434.324219 0)"/>
     <use xlink:href="#TimesNewRomanPSMT-64" transform="translate(1484.324219 0)"/>
     <use xlink:href="#TimesNewRomanPSMT-65" transform="translate(1534.324219 0)"/>
     <use xlink:href="#TimesNewRomanPSMT-6c" transform="translate(1578.708984 0)"/>
     <use xlink:href="#TimesNewRomanPSMT-5f" transform="translate(1606.492188 0)"/>
     <use xlink:href="#TimesNewRomanPSMT-28" transform="translate(1656.492188 0)"/>
     <use xlink:href="#TimesNewRomanPSMT-31" transform="translate(1689.792969 0)"/>
     <use xlink:href="#TimesNewRomanPSMT-30" transform="translate(1739.792969 0)"/>
     <use xlink:href="#TimesNewRomanPSMT-32" transform="translate(1789.792969 0)"/>
     <use xlink:href="#TimesNewRomanPSMT-34" transform="translate(1839.792969 0)"/>
     <use xlink:href="#TimesNewRomanPSMT-2b" transform="translate(1889.792969 0)"/>
     <use xlink:href="#TimesNewRomanPSMT-35" transform="translate(1946.189453 0)"/>
     <use xlink:href="#TimesNewRomanPSMT-31" transform="translate(1996.189453 0)"/>
     <use xlink:href="#TimesNewRomanPSMT-32" transform="translate(2046.189453 0)"/>
     <use xlink:href="#TimesNewRomanPSMT-2d" transform="translate(2096.189453 0)"/>
     <use xlink:href="#TimesNewRomanPSMT-35" transform="translate(2129.490234 0)"/>
     <use xlink:href="#TimesNewRomanPSMT-31" transform="translate(2179.490234 0)"/>
     <use xlink:href="#TimesNewRomanPSMT-32" transform="translate(2229.490234 0)"/>
     <use xlink:href="#TimesNewRomanPSMT-2d" transform="translate(2279.490234 0)"/>
     <use xlink:href="#TimesNewRomanPSMT-35" transform="translate(2312.791016 0)"/>
     <use xlink:href="#TimesNewRomanPSMT-31" transform="translate(2362.791016 0)"/>
     <use xlink:href="#TimesNewRomanPSMT-32" transform="translate(2412.791016 0)"/>
     <use xlink:href="#TimesNewRomanPSMT-2b" transform="translate(2462.791016 0)"/>
     <use xlink:href="#TimesNewRomanPSMT-31" transform="translate(2519.1875 0)"/>
     <use xlink:href="#TimesNewRomanPSMT-29" transform="translate(2569.1875 0)"/>
     <use xlink:href="#TimesNewRomanPSMT-5f" transform="translate(2602.488281 0)"/>
     <use xlink:href="#TimesNewRomanPSMT-31" transform="translate(2652.488281 0)"/>
     <use xlink:href="#TimesNewRomanPSMT-5f" transform="translate(2702.488281 0)"/>
     <use xlink:href="#TimesNewRomanPSMT-73" transform="translate(2752.488281 0)"/>
     <use xlink:href="#TimesNewRomanPSMT-61" transform="translate(2791.404297 0)"/>
     <use xlink:href="#TimesNewRomanPSMT-76" transform="translate(2835.789062 0)"/>
     <use xlink:href="#TimesNewRomanPSMT-65" transform="translate(2885.789062 0)"/>
     <use xlink:href="#TimesNewRomanPSMT-5f" transform="translate(2930.173828 0)"/>
     <use xlink:href="#TimesNewRomanPSMT-32" transform="translate(2980.173828 0)"/>
    </g>
   </g>
   <g id="legend_1">
    <g id="patch_7">
     <path d="M 244.022687 125.384625 
L 444.580188 125.384625 
Q 448.980187 125.384625 448.980187 120.984625 
L 448.980187 60.9315 
Q 448.980187 56.5315 444.580188 56.5315 
L 244.022687 56.5315 
Q 239.622687 56.5315 239.622687 60.9315 
L 239.622687 120.984625 
Q 239.622687 125.384625 244.022687 125.384625 
z
" style="fill: #ffffff; opacity: 0.8; stroke: #cccccc; stroke-linejoin: miter"/>
    </g>
    <g id="line2d_17">
     <path d="M 248.422687 73.0315 
L 270.422687 73.0315 
L 292.422687 73.0315 
" style="fill: none; stroke: #ffa500; stroke-width: 1.5; stroke-linecap: square"/>
    </g>
    <g id="text_11">
     <!-- Training loss -->
     <g transform="translate(310.022688 80.7315) scale(0.22 -0.22)">
      <defs>
       <path id="TimesNewRomanPSMT-54" d="M 3703 4238 
L 3750 3244 
L 3631 3244 
Q 3597 3506 3538 3619 
Q 3441 3800 3280 3886 
Q 3119 3972 2856 3972 
L 2259 3972 
L 2259 734 
Q 2259 344 2344 247 
Q 2463 116 2709 116 
L 2856 116 
L 2856 0 
L 1059 0 
L 1059 116 
L 1209 116 
Q 1478 116 1591 278 
Q 1659 378 1659 734 
L 1659 3972 
L 1150 3972 
Q 853 3972 728 3928 
Q 566 3869 450 3700 
Q 334 3531 313 3244 
L 194 3244 
L 244 4238 
L 3703 4238 
z
" transform="scale(0.015625)"/>
       <path id="TimesNewRomanPSMT-72" d="M 1038 2947 
L 1038 2303 
Q 1397 2947 1775 2947 
Q 1947 2947 2059 2842 
Q 2172 2738 2172 2600 
Q 2172 2478 2090 2393 
Q 2009 2309 1897 2309 
Q 1788 2309 1652 2417 
Q 1516 2525 1450 2525 
Q 1394 2525 1328 2463 
Q 1188 2334 1038 2041 
L 1038 669 
Q 1038 431 1097 309 
Q 1138 225 1241 169 
Q 1344 113 1538 113 
L 1538 0 
L 72 0 
L 72 113 
Q 291 113 397 181 
Q 475 231 506 341 
Q 522 394 522 644 
L 522 1753 
Q 522 2253 501 2348 
Q 481 2444 426 2487 
Q 372 2531 291 2531 
Q 194 2531 72 2484 
L 41 2597 
L 906 2947 
L 1038 2947 
z
" transform="scale(0.015625)"/>
       <path id="TimesNewRomanPSMT-69" d="M 928 4444 
Q 1059 4444 1151 4351 
Q 1244 4259 1244 4128 
Q 1244 3997 1151 3903 
Q 1059 3809 928 3809 
Q 797 3809 703 3903 
Q 609 3997 609 4128 
Q 609 4259 701 4351 
Q 794 4444 928 4444 
z
M 1188 2947 
L 1188 647 
Q 1188 378 1227 289 
Q 1266 200 1342 156 
Q 1419 113 1622 113 
L 1622 0 
L 231 0 
L 231 113 
Q 441 113 512 153 
Q 584 194 626 287 
Q 669 381 669 647 
L 669 1750 
Q 669 2216 641 2353 
Q 619 2453 572 2492 
Q 525 2531 444 2531 
Q 356 2531 231 2484 
L 188 2597 
L 1050 2947 
L 1188 2947 
z
" transform="scale(0.015625)"/>
       <path id="TimesNewRomanPSMT-6e" d="M 1034 2341 
Q 1538 2947 1994 2947 
Q 2228 2947 2397 2830 
Q 2566 2713 2666 2444 
Q 2734 2256 2734 1869 
L 2734 647 
Q 2734 375 2778 278 
Q 2813 200 2889 156 
Q 2966 113 3172 113 
L 3172 0 
L 1756 0 
L 1756 113 
L 1816 113 
Q 2016 113 2095 173 
Q 2175 234 2206 353 
Q 2219 400 2219 647 
L 2219 1819 
Q 2219 2209 2117 2386 
Q 2016 2563 1775 2563 
Q 1403 2563 1034 2156 
L 1034 647 
Q 1034 356 1069 288 
Q 1113 197 1189 155 
Q 1266 113 1500 113 
L 1500 0 
L 84 0 
L 84 113 
L 147 113 
Q 366 113 442 223 
Q 519 334 519 647 
L 519 1709 
Q 519 2225 495 2337 
Q 472 2450 423 2490 
Q 375 2531 294 2531 
Q 206 2531 84 2484 
L 38 2597 
L 900 2947 
L 1034 2947 
L 1034 2341 
z
" transform="scale(0.015625)"/>
       <path id="TimesNewRomanPSMT-67" d="M 966 1044 
Q 703 1172 562 1401 
Q 422 1631 422 1909 
Q 422 2334 742 2640 
Q 1063 2947 1563 2947 
Q 1972 2947 2272 2747 
L 2878 2747 
Q 3013 2747 3034 2739 
Q 3056 2731 3066 2713 
Q 3084 2684 3084 2613 
Q 3084 2531 3069 2500 
Q 3059 2484 3036 2475 
Q 3013 2466 2878 2466 
L 2506 2466 
Q 2681 2241 2681 1891 
Q 2681 1491 2375 1206 
Q 2069 922 1553 922 
Q 1341 922 1119 984 
Q 981 866 932 777 
Q 884 688 884 625 
Q 884 572 936 522 
Q 988 472 1138 450 
Q 1225 438 1575 428 
Q 2219 413 2409 384 
Q 2700 344 2873 169 
Q 3047 -6 3047 -263 
Q 3047 -616 2716 -925 
Q 2228 -1381 1444 -1381 
Q 841 -1381 425 -1109 
Q 191 -953 191 -784 
Q 191 -709 225 -634 
Q 278 -519 444 -313 
Q 466 -284 763 25 
Q 600 122 533 198 
Q 466 275 466 372 
Q 466 481 555 628 
Q 644 775 966 1044 
z
M 1509 2797 
Q 1278 2797 1122 2612 
Q 966 2428 966 2047 
Q 966 1553 1178 1281 
Q 1341 1075 1591 1075 
Q 1828 1075 1981 1253 
Q 2134 1431 2134 1813 
Q 2134 2309 1919 2591 
Q 1759 2797 1509 2797 
z
M 934 0 
Q 788 -159 713 -296 
Q 638 -434 638 -550 
Q 638 -700 819 -813 
Q 1131 -1006 1722 -1006 
Q 2284 -1006 2551 -807 
Q 2819 -609 2819 -384 
Q 2819 -222 2659 -153 
Q 2497 -84 2016 -72 
Q 1313 -53 934 0 
z
" transform="scale(0.015625)"/>
      </defs>
      <use xlink:href="#TimesNewRomanPSMT-54"/>
      <use xlink:href="#TimesNewRomanPSMT-72" transform="translate(57.583984 0)"/>
      <use xlink:href="#TimesNewRomanPSMT-61" transform="translate(90.884766 0)"/>
      <use xlink:href="#TimesNewRomanPSMT-69" transform="translate(135.269531 0)"/>
      <use xlink:href="#TimesNewRomanPSMT-6e" transform="translate(163.052734 0)"/>
      <use xlink:href="#TimesNewRomanPSMT-69" transform="translate(213.052734 0)"/>
      <use xlink:href="#TimesNewRomanPSMT-6e" transform="translate(240.835938 0)"/>
      <use xlink:href="#TimesNewRomanPSMT-67" transform="translate(290.835938 0)"/>
      <use xlink:href="#TimesNewRomanPSMT-20" transform="translate(340.835938 0)"/>
      <use xlink:href="#TimesNewRomanPSMT-6c" transform="translate(365.835938 0)"/>
      <use xlink:href="#TimesNewRomanPSMT-6f" transform="translate(393.619141 0)"/>
      <use xlink:href="#TimesNewRomanPSMT-73" transform="translate(443.619141 0)"/>
      <use xlink:href="#TimesNewRomanPSMT-73" transform="translate(482.535156 0)"/>
     </g>
    </g>
    <g id="line2d_18">
     <path d="M 248.422687 104.178687 
L 270.422687 104.178687 
L 292.422687 104.178687 
" style="fill: none; stroke: #008000; stroke-width: 1.5; stroke-linecap: square"/>
    </g>
    <g id="text_12">
     <!-- Validation loss -->
     <g transform="translate(310.022688 111.878687) scale(0.22 -0.22)">
      <defs>
       <path id="TimesNewRomanPSMT-56" d="M 4544 4238 
L 4544 4122 
Q 4319 4081 4203 3978 
Q 4038 3825 3909 3509 
L 2431 -97 
L 2316 -97 
L 728 3556 
Q 606 3838 556 3900 
Q 478 3997 364 4051 
Q 250 4106 56 4122 
L 56 4238 
L 1788 4238 
L 1788 4122 
Q 1494 4094 1406 4022 
Q 1319 3950 1319 3838 
Q 1319 3681 1463 3350 
L 2541 866 
L 3541 3319 
Q 3688 3681 3688 3822 
Q 3688 3913 3597 3995 
Q 3506 4078 3291 4113 
Q 3275 4116 3238 4122 
L 3238 4238 
L 4544 4238 
z
" transform="scale(0.015625)"/>
      </defs>
      <use xlink:href="#TimesNewRomanPSMT-56"/>
      <use xlink:href="#TimesNewRomanPSMT-61" transform="translate(61.091797 0)"/>
      <use xlink:href="#TimesNewRomanPSMT-6c" transform="translate(105.476562 0)"/>
      <use xlink:href="#TimesNewRomanPSMT-69" transform="translate(133.259766 0)"/>
      <use xlink:href="#TimesNewRomanPSMT-64" transform="translate(161.042969 0)"/>
      <use xlink:href="#TimesNewRomanPSMT-61" transform="translate(211.042969 0)"/>
      <use xlink:href="#TimesNewRomanPSMT-74" transform="translate(255.427734 0)"/>
      <use xlink:href="#TimesNewRomanPSMT-69" transform="translate(283.210938 0)"/>
      <use xlink:href="#TimesNewRomanPSMT-6f" transform="translate(310.994141 0)"/>
      <use xlink:href="#TimesNewRomanPSMT-6e" transform="translate(360.994141 0)"/>
      <use xlink:href="#TimesNewRomanPSMT-20" transform="translate(410.994141 0)"/>
      <use xlink:href="#TimesNewRomanPSMT-6c" transform="translate(435.994141 0)"/>
      <use xlink:href="#TimesNewRomanPSMT-6f" transform="translate(463.777344 0)"/>
      <use xlink:href="#TimesNewRomanPSMT-73" transform="translate(513.777344 0)"/>
      <use xlink:href="#TimesNewRomanPSMT-73" transform="translate(552.693359 0)"/>
     </g>
    </g>
   </g>
  </g>
 </g>
 <defs>
  <clipPath id="pd26740bf0d">
   <rect x="228.622687" y="45.5315" width="357.12" height="266.112"/>
  </clipPath>
 </defs>
</svg>
