<?xml version="1.0" encoding="utf-8" standalone="no"?>
<!DOCTYPE svg PUBLIC "-//W3C//DTD SVG 1.1//EN"
  "http://www.w3.org/Graphics/SVG/1.1/DTD/svg11.dtd">
<svg xmlns:xlink="http://www.w3.org/1999/xlink" width="752.02425pt" height="383.265687pt" viewBox="0 0 752.02425 383.265687" xmlns="http://www.w3.org/2000/svg" version="1.1">
 <metadata>
  <rdf:RDF xmlns:dc="http://purl.org/dc/elements/1.1/" xmlns:cc="http://creativecommons.org/ns#" xmlns:rdf="http://www.w3.org/1999/02/22-rdf-syntax-ns#">
   <cc:Work>
    <dc:type rdf:resource="http://purl.org/dc/dcmitype/StillImage"/>
    <dc:date>2025-05-28T13:25:24.182653</dc:date>
    <dc:format>image/svg+xml</dc:format>
    <dc:creator>
     <cc:Agent>
      <dc:title>Matplotlib v3.10.1, https://matplotlib.org/</dc:title>
     </cc:Agent>
    </dc:creator>
   </cc:Work>
  </rdf:RDF>
 </metadata>
 <defs>
  <style type="text/css">*{stroke-linejoin: round; stroke-linecap: butt}</style>
 </defs>
 <g id="figure_1">
  <g id="patch_1">
   <path d="M -0 383.265687 
L 752.02425 383.265687 
L 752.02425 0 
L -0 0 
z
" style="fill: #ffffff"/>
  </g>
  <g id="axes_1">
   <g id="patch_2">
    <path d="M 197.452125 311.6435 
L 554.572125 311.6435 
L 554.572125 45.5315 
L 197.452125 45.5315 
z
" style="fill: #ffffff"/>
   </g>
   <g id="matplotlib.axis_1">
    <g id="xtick_1">
     <g id="line2d_1">
      <path d="M 197.452125 311.6435 
L 197.452125 45.5315 
" clip-path="url(#p2cbe2b4472)" style="fill: none; stroke: #b0b0b0; stroke-opacity: 0.3; stroke-width: 0.8; stroke-linecap: square"/>
     </g>
     <g id="line2d_2">
      <defs>
       <path id="m23745b2d91" d="M 0 0 
L 0 3.5 
" style="stroke: #000000; stroke-width: 0.8"/>
      </defs>
      <g>
       <use xlink:href="#m23745b2d91" x="197.452125" y="311.6435" style="stroke: #000000; stroke-width: 0.8"/>
      </g>
     </g>
     <g id="text_1">
      <!-- 0.0 -->
      <g transform="translate(183.702125 333.91975) scale(0.22 -0.22)">
       <defs>
        <path id="TimesNewRomanPSMT-30" d="M 231 2094 
Q 231 2819 450 3342 
Q 669 3866 1031 4122 
Q 1313 4325 1613 4325 
Q 2100 4325 2488 3828 
Q 2972 3213 2972 2159 
Q 2972 1422 2759 906 
Q 2547 391 2217 158 
Q 1888 -75 1581 -75 
Q 975 -75 572 641 
Q 231 1244 231 2094 
z
M 844 2016 
Q 844 1141 1059 588 
Q 1238 122 1591 122 
Q 1759 122 1940 273 
Q 2122 425 2216 781 
Q 2359 1319 2359 2297 
Q 2359 3022 2209 3506 
Q 2097 3866 1919 4016 
Q 1791 4119 1609 4119 
Q 1397 4119 1231 3928 
Q 1006 3669 925 3112 
Q 844 2556 844 2016 
z
" transform="scale(0.015625)"/>
        <path id="TimesNewRomanPSMT-2e" d="M 800 606 
Q 947 606 1047 504 
Q 1147 403 1147 259 
Q 1147 116 1045 14 
Q 944 -88 800 -88 
Q 656 -88 554 14 
Q 453 116 453 259 
Q 453 406 554 506 
Q 656 606 800 606 
z
" transform="scale(0.015625)"/>
       </defs>
       <use xlink:href="#TimesNewRomanPSMT-30"/>
       <use xlink:href="#TimesNewRomanPSMT-2e" transform="translate(50 0)"/>
       <use xlink:href="#TimesNewRomanPSMT-30" transform="translate(75 0)"/>
      </g>
     </g>
    </g>
    <g id="xtick_2">
     <g id="line2d_3">
      <path d="M 328.832657 311.6435 
L 328.832657 45.5315 
" clip-path="url(#p2cbe2b4472)" style="fill: none; stroke: #b0b0b0; stroke-opacity: 0.3; stroke-width: 0.8; stroke-linecap: square"/>
     </g>
     <g id="line2d_4">
      <g>
       <use xlink:href="#m23745b2d91" x="328.832657" y="311.6435" style="stroke: #000000; stroke-width: 0.8"/>
      </g>
     </g>
     <g id="text_2">
      <!-- 0.5 -->
      <g transform="translate(315.082657 333.91975) scale(0.22 -0.22)">
       <defs>
        <path id="TimesNewRomanPSMT-35" d="M 2778 4238 
L 2534 3706 
L 1259 3706 
L 981 3138 
Q 1809 3016 2294 2522 
Q 2709 2097 2709 1522 
Q 2709 1188 2573 903 
Q 2438 619 2231 419 
Q 2025 219 1772 97 
Q 1413 -75 1034 -75 
Q 653 -75 479 54 
Q 306 184 306 341 
Q 306 428 378 495 
Q 450 563 559 563 
Q 641 563 702 538 
Q 763 513 909 409 
Q 1144 247 1384 247 
Q 1750 247 2026 523 
Q 2303 800 2303 1197 
Q 2303 1581 2056 1914 
Q 1809 2247 1375 2428 
Q 1034 2569 447 2591 
L 1259 4238 
L 2778 4238 
z
" transform="scale(0.015625)"/>
       </defs>
       <use xlink:href="#TimesNewRomanPSMT-30"/>
       <use xlink:href="#TimesNewRomanPSMT-2e" transform="translate(50 0)"/>
       <use xlink:href="#TimesNewRomanPSMT-35" transform="translate(75 0)"/>
      </g>
     </g>
    </g>
    <g id="xtick_3">
     <g id="line2d_5">
      <path d="M 460.213188 311.6435 
L 460.213188 45.5315 
" clip-path="url(#p2cbe2b4472)" style="fill: none; stroke: #b0b0b0; stroke-opacity: 0.3; stroke-width: 0.8; stroke-linecap: square"/>
     </g>
     <g id="line2d_6">
      <g>
       <use xlink:href="#m23745b2d91" x="460.213188" y="311.6435" style="stroke: #000000; stroke-width: 0.8"/>
      </g>
     </g>
     <g id="text_3">
      <!-- 1.0 -->
      <g transform="translate(446.463188 333.91975) scale(0.22 -0.22)">
       <defs>
        <path id="TimesNewRomanPSMT-31" d="M 750 3822 
L 1781 4325 
L 1884 4325 
L 1884 747 
Q 1884 391 1914 303 
Q 1944 216 2037 169 
Q 2131 122 2419 116 
L 2419 0 
L 825 0 
L 825 116 
Q 1125 122 1212 167 
Q 1300 213 1334 289 
Q 1369 366 1369 747 
L 1369 3034 
Q 1369 3497 1338 3628 
Q 1316 3728 1258 3775 
Q 1200 3822 1119 3822 
Q 1003 3822 797 3725 
L 750 3822 
z
" transform="scale(0.015625)"/>
       </defs>
       <use xlink:href="#TimesNewRomanPSMT-31"/>
       <use xlink:href="#TimesNewRomanPSMT-2e" transform="translate(50 0)"/>
       <use xlink:href="#TimesNewRomanPSMT-30" transform="translate(75 0)"/>
      </g>
     </g>
    </g>
    <g id="text_4">
     <!-- $\kappa  = \frac{ln(n)}{ln(d)}$ -->
     <g transform="translate(344.002125 364.185687) scale(0.22 -0.22)">
      <defs>
       <path id="STIXGeneral-Italic-3ba" d="M 979 1440 
L 998 1446 
Q 1850 2541 2464 2790 
Q 2547 2822 2630 2822 
Q 2797 2822 2886 2736 
Q 2976 2650 2976 2522 
Q 2976 2387 2893 2307 
Q 2810 2227 2682 2227 
Q 2605 2227 2502 2288 
Q 2400 2349 2336 2349 
Q 2170 2349 1990 2205 
Q 1811 2061 1414 1645 
L 2042 544 
Q 2202 262 2310 182 
Q 2419 102 2624 102 
L 2624 0 
Q 2374 -83 2182 -83 
Q 1786 -83 1555 326 
L 960 1350 
L 576 0 
L 90 0 
L 640 1978 
Q 730 2317 730 2406 
Q 730 2560 518 2560 
L 339 2560 
L 339 2650 
Q 678 2694 1306 2822 
L 1325 2803 
L 979 1440 
z
" transform="scale(0.015625)"/>
       <path id="STIXGeneral-Regular-3d" d="M 4077 2048 
L 307 2048 
L 307 2470 
L 4077 2470 
L 4077 2048 
z
M 4077 768 
L 307 768 
L 307 1190 
L 4077 1190 
L 4077 768 
z
" transform="scale(0.015625)"/>
       <path id="STIXGeneral-Italic-6c" d="M 1786 4339 
L 806 595 
Q 755 410 755 320 
Q 755 205 864 205 
Q 1037 205 1293 570 
L 1453 794 
L 1542 730 
Q 1254 275 1046 102 
Q 838 -70 576 -70 
Q 262 -70 262 288 
Q 262 397 288 480 
L 1165 3834 
Q 1184 3898 1184 3955 
Q 1184 4096 870 4096 
L 755 4096 
L 755 4198 
Q 1203 4250 1747 4371 
L 1786 4339 
z
" transform="scale(0.015625)"/>
       <path id="STIXGeneral-Italic-6e" d="M 2944 749 
L 3034 666 
Q 2707 218 2534 80 
Q 2362 -58 2138 -58 
Q 2010 -58 1923 28 
Q 1837 115 1837 288 
Q 1837 390 1939 768 
L 2221 1805 
Q 2310 2150 2310 2310 
Q 2310 2496 2157 2496 
Q 1971 2496 1750 2275 
Q 1530 2054 1210 1587 
Q 998 1274 899 1024 
Q 800 774 570 0 
L 90 0 
L 704 2240 
Q 717 2304 717 2349 
Q 717 2445 630 2480 
Q 544 2515 301 2522 
L 301 2624 
Q 550 2675 857 2729 
Q 1165 2784 1338 2822 
L 1363 2810 
L 934 1414 
Q 1408 2170 1753 2496 
Q 2099 2822 2413 2822 
Q 2611 2822 2720 2716 
Q 2829 2611 2829 2432 
Q 2829 2272 2765 2048 
L 2406 749 
Q 2317 429 2317 358 
Q 2317 243 2419 243 
Q 2541 243 2810 582 
Q 2854 634 2944 749 
z
" transform="scale(0.015625)"/>
       <path id="STIXGeneral-Regular-28" d="M 1946 -1030 
L 1869 -1133 
Q 1126 -710 716 32 
Q 307 774 307 1613 
Q 307 3386 1888 4326 
L 1946 4224 
Q 1293 3667 1075 3126 
Q 858 2586 858 1632 
Q 858 685 1082 96 
Q 1306 -493 1946 -1030 
z
" transform="scale(0.015625)"/>
       <path id="STIXGeneral-Regular-29" d="M 186 4224 
L 262 4326 
Q 992 3891 1408 3148 
Q 1824 2406 1824 1581 
Q 1824 -166 243 -1133 
L 186 -1030 
Q 845 -486 1059 54 
Q 1274 595 1274 1562 
Q 1274 2534 1059 3120 
Q 845 3706 186 4224 
z
" transform="scale(0.015625)"/>
       <path id="STIXGeneral-Italic-64" d="M 3334 4371 
L 3373 4333 
L 3123 3360 
L 2739 1958 
Q 2323 429 2323 384 
Q 2323 256 2438 256 
Q 2522 256 2614 336 
Q 2707 416 2963 710 
L 3040 646 
Q 2547 -83 2099 -83 
Q 1978 -83 1907 -6 
Q 1837 70 1837 205 
Q 1837 397 1920 774 
Q 1645 307 1379 118 
Q 1114 -70 781 -70 
Q 461 -70 278 125 
Q 96 320 96 678 
Q 96 1440 713 2131 
Q 1331 2822 1965 2822 
Q 2163 2822 2256 2732 
Q 2349 2643 2381 2451 
L 2387 2451 
L 2675 3494 
Q 2765 3808 2765 3949 
Q 2765 4051 2694 4076 
Q 2624 4102 2355 4115 
L 2355 4224 
Q 2848 4269 3334 4371 
z
M 2278 2310 
Q 2278 2477 2185 2576 
Q 2093 2675 1978 2675 
Q 1677 2675 1395 2381 
Q 1075 2042 864 1571 
Q 653 1101 653 704 
Q 653 486 752 361 
Q 851 237 1024 237 
Q 1312 237 1606 550 
Q 1901 864 2089 1350 
Q 2278 1837 2278 2310 
z
" transform="scale(0.015625)"/>
      </defs>
      <use xlink:href="#STIXGeneral-Italic-3ba" transform="translate(0 0.003125)"/>
      <use xlink:href="#STIXGeneral-Regular-3d" transform="translate(58.83999 0.003125)"/>
      <use xlink:href="#STIXGeneral-Italic-6c" transform="translate(141.779971 50.192188) scale(0.7)"/>
      <use xlink:href="#STIXGeneral-Italic-6e" transform="translate(161.239963 50.192188) scale(0.7)"/>
      <use xlink:href="#STIXGeneral-Regular-28" transform="translate(196.239952 50.192188) scale(0.7)"/>
      <use xlink:href="#STIXGeneral-Italic-6e" transform="translate(219.549944 50.192188) scale(0.7)"/>
      <use xlink:href="#STIXGeneral-Regular-29" transform="translate(254.549933 50.192188) scale(0.7)"/>
      <use xlink:href="#STIXGeneral-Italic-6c" transform="translate(141.779971 -41.257812) scale(0.7)"/>
      <use xlink:href="#STIXGeneral-Italic-6e" transform="translate(161.239963 -41.257812) scale(0.7)"/>
      <use xlink:href="#STIXGeneral-Regular-28" transform="translate(196.239952 -41.257812) scale(0.7)"/>
      <use xlink:href="#STIXGeneral-Italic-64" transform="translate(219.549944 -41.257812) scale(0.7)"/>
      <use xlink:href="#STIXGeneral-Regular-29" transform="translate(254.549933 -41.257812) scale(0.7)"/>
      <path d="M 141.779971 12.8 
L 141.779971 19.05 
L 277.859924 19.05 
L 277.859924 12.8 
L 141.779971 12.8 
z
"/>
     </g>
    </g>
   </g>
   <g id="matplotlib.axis_2">
    <g id="ytick_1">
     <g id="line2d_7">
      <path d="M 197.452125 311.6435 
L 554.572125 311.6435 
" clip-path="url(#p2cbe2b4472)" style="fill: none; stroke: #b0b0b0; stroke-opacity: 0.3; stroke-width: 0.8; stroke-linecap: square"/>
     </g>
     <g id="line2d_8">
      <defs>
       <path id="me5cb7abb39" d="M 0 0 
L -3.5 0 
" style="stroke: #000000; stroke-width: 0.8"/>
      </defs>
      <g>
       <use xlink:href="#me5cb7abb39" x="197.452125" y="311.6435" style="stroke: #000000; stroke-width: 0.8"/>
      </g>
     </g>
     <g id="text_5">
      <!-- 0.0 -->
      <g transform="translate(162.952125 319.281625) scale(0.22 -0.22)">
       <use xlink:href="#TimesNewRomanPSMT-30"/>
       <use xlink:href="#TimesNewRomanPSMT-2e" transform="translate(50 0)"/>
       <use xlink:href="#TimesNewRomanPSMT-30" transform="translate(75 0)"/>
      </g>
     </g>
    </g>
    <g id="ytick_2">
     <g id="line2d_9">
      <path d="M 197.452125 258.422088 
L 554.572125 258.422088 
" clip-path="url(#p2cbe2b4472)" style="fill: none; stroke: #b0b0b0; stroke-opacity: 0.3; stroke-width: 0.8; stroke-linecap: square"/>
     </g>
     <g id="line2d_10">
      <g>
       <use xlink:href="#me5cb7abb39" x="197.452125" y="258.422088" style="stroke: #000000; stroke-width: 0.8"/>
      </g>
     </g>
     <g id="text_6">
      <!-- 0.1 -->
      <g transform="translate(162.952125 266.060213) scale(0.22 -0.22)">
       <use xlink:href="#TimesNewRomanPSMT-30"/>
       <use xlink:href="#TimesNewRomanPSMT-2e" transform="translate(50 0)"/>
       <use xlink:href="#TimesNewRomanPSMT-31" transform="translate(75 0)"/>
      </g>
     </g>
    </g>
    <g id="ytick_3">
     <g id="line2d_11">
      <path d="M 197.452125 205.200675 
L 554.572125 205.200675 
" clip-path="url(#p2cbe2b4472)" style="fill: none; stroke: #b0b0b0; stroke-opacity: 0.3; stroke-width: 0.8; stroke-linecap: square"/>
     </g>
     <g id="line2d_12">
      <g>
       <use xlink:href="#me5cb7abb39" x="197.452125" y="205.200675" style="stroke: #000000; stroke-width: 0.8"/>
      </g>
     </g>
     <g id="text_7">
      <!-- 0.2 -->
      <g transform="translate(162.952125 212.8388) scale(0.22 -0.22)">
       <defs>
        <path id="TimesNewRomanPSMT-32" d="M 2934 816 
L 2638 0 
L 138 0 
L 138 116 
Q 1241 1122 1691 1759 
Q 2141 2397 2141 2925 
Q 2141 3328 1894 3587 
Q 1647 3847 1303 3847 
Q 991 3847 742 3664 
Q 494 3481 375 3128 
L 259 3128 
Q 338 3706 661 4015 
Q 984 4325 1469 4325 
Q 1984 4325 2329 3994 
Q 2675 3663 2675 3213 
Q 2675 2891 2525 2569 
Q 2294 2063 1775 1497 
Q 997 647 803 472 
L 1909 472 
Q 2247 472 2383 497 
Q 2519 522 2628 598 
Q 2738 675 2819 816 
L 2934 816 
z
" transform="scale(0.015625)"/>
       </defs>
       <use xlink:href="#TimesNewRomanPSMT-30"/>
       <use xlink:href="#TimesNewRomanPSMT-2e" transform="translate(50 0)"/>
       <use xlink:href="#TimesNewRomanPSMT-32" transform="translate(75 0)"/>
      </g>
     </g>
    </g>
    <g id="ytick_4">
     <g id="line2d_13">
      <path d="M 197.452125 151.979263 
L 554.572125 151.979263 
" clip-path="url(#p2cbe2b4472)" style="fill: none; stroke: #b0b0b0; stroke-opacity: 0.3; stroke-width: 0.8; stroke-linecap: square"/>
     </g>
     <g id="line2d_14">
      <g>
       <use xlink:href="#me5cb7abb39" x="197.452125" y="151.979263" style="stroke: #000000; stroke-width: 0.8"/>
      </g>
     </g>
     <g id="text_8">
      <!-- 0.3 -->
      <g transform="translate(162.952125 159.617388) scale(0.22 -0.22)">
       <defs>
        <path id="TimesNewRomanPSMT-33" d="M 325 3431 
Q 506 3859 782 4092 
Q 1059 4325 1472 4325 
Q 1981 4325 2253 3994 
Q 2459 3747 2459 3466 
Q 2459 3003 1878 2509 
Q 2269 2356 2469 2072 
Q 2669 1788 2669 1403 
Q 2669 853 2319 450 
Q 1863 -75 997 -75 
Q 569 -75 414 31 
Q 259 138 259 259 
Q 259 350 332 419 
Q 406 488 509 488 
Q 588 488 669 463 
Q 722 447 909 348 
Q 1097 250 1169 231 
Q 1284 197 1416 197 
Q 1734 197 1970 444 
Q 2206 691 2206 1028 
Q 2206 1275 2097 1509 
Q 2016 1684 1919 1775 
Q 1784 1900 1550 2001 
Q 1316 2103 1072 2103 
L 972 2103 
L 972 2197 
Q 1219 2228 1467 2375 
Q 1716 2522 1828 2728 
Q 1941 2934 1941 3181 
Q 1941 3503 1739 3701 
Q 1538 3900 1238 3900 
Q 753 3900 428 3381 
L 325 3431 
z
" transform="scale(0.015625)"/>
       </defs>
       <use xlink:href="#TimesNewRomanPSMT-30"/>
       <use xlink:href="#TimesNewRomanPSMT-2e" transform="translate(50 0)"/>
       <use xlink:href="#TimesNewRomanPSMT-33" transform="translate(75 0)"/>
      </g>
     </g>
    </g>
    <g id="ytick_5">
     <g id="line2d_15">
      <path d="M 197.452125 98.75785 
L 554.572125 98.75785 
" clip-path="url(#p2cbe2b4472)" style="fill: none; stroke: #b0b0b0; stroke-opacity: 0.3; stroke-width: 0.8; stroke-linecap: square"/>
     </g>
     <g id="line2d_16">
      <g>
       <use xlink:href="#me5cb7abb39" x="197.452125" y="98.75785" style="stroke: #000000; stroke-width: 0.8"/>
      </g>
     </g>
     <g id="text_9">
      <!-- 0.4 -->
      <g transform="translate(162.952125 106.395975) scale(0.22 -0.22)">
       <defs>
        <path id="TimesNewRomanPSMT-34" d="M 2978 1563 
L 2978 1119 
L 2409 1119 
L 2409 0 
L 1894 0 
L 1894 1119 
L 100 1119 
L 100 1519 
L 2066 4325 
L 2409 4325 
L 2409 1563 
L 2978 1563 
z
M 1894 1563 
L 1894 3666 
L 406 1563 
L 1894 1563 
z
" transform="scale(0.015625)"/>
       </defs>
       <use xlink:href="#TimesNewRomanPSMT-30"/>
       <use xlink:href="#TimesNewRomanPSMT-2e" transform="translate(50 0)"/>
       <use xlink:href="#TimesNewRomanPSMT-34" transform="translate(75 0)"/>
      </g>
     </g>
    </g>
    <g id="ytick_6">
     <g id="line2d_17">
      <path d="M 197.452125 45.536438 
L 554.572125 45.536438 
" clip-path="url(#p2cbe2b4472)" style="fill: none; stroke: #b0b0b0; stroke-opacity: 0.3; stroke-width: 0.8; stroke-linecap: square"/>
     </g>
     <g id="line2d_18">
      <g>
       <use xlink:href="#me5cb7abb39" x="197.452125" y="45.536438" style="stroke: #000000; stroke-width: 0.8"/>
      </g>
     </g>
     <g id="text_10">
      <!-- 0.5 -->
      <g transform="translate(162.952125 53.174563) scale(0.22 -0.22)">
       <use xlink:href="#TimesNewRomanPSMT-30"/>
       <use xlink:href="#TimesNewRomanPSMT-2e" transform="translate(50 0)"/>
       <use xlink:href="#TimesNewRomanPSMT-35" transform="translate(75 0)"/>
      </g>
     </g>
    </g>
    <g id="text_11">
     <!-- Loss -->
     <g transform="translate(154.246188 199.368906) rotate(-90) scale(0.22 -0.22)">
      <defs>
       <path id="TimesNewRomanPSMT-4c" d="M 3669 1172 
L 3772 1150 
L 3409 0 
L 128 0 
L 128 116 
L 288 116 
Q 556 116 672 291 
Q 738 391 738 753 
L 738 3488 
Q 738 3884 650 3984 
Q 528 4122 288 4122 
L 128 4122 
L 128 4238 
L 2047 4238 
L 2047 4122 
Q 1709 4125 1573 4059 
Q 1438 3994 1388 3894 
Q 1338 3794 1338 3416 
L 1338 753 
Q 1338 494 1388 397 
Q 1425 331 1503 300 
Q 1581 269 1991 269 
L 2300 269 
Q 2788 269 2984 341 
Q 3181 413 3343 595 
Q 3506 778 3669 1172 
z
" transform="scale(0.015625)"/>
       <path id="TimesNewRomanPSMT-6f" d="M 1600 2947 
Q 2250 2947 2644 2453 
Q 2978 2031 2978 1484 
Q 2978 1100 2793 706 
Q 2609 313 2286 112 
Q 1963 -88 1566 -88 
Q 919 -88 538 428 
Q 216 863 216 1403 
Q 216 1797 411 2186 
Q 606 2575 925 2761 
Q 1244 2947 1600 2947 
z
M 1503 2744 
Q 1338 2744 1170 2645 
Q 1003 2547 900 2300 
Q 797 2053 797 1666 
Q 797 1041 1045 587 
Q 1294 134 1700 134 
Q 2003 134 2200 384 
Q 2397 634 2397 1244 
Q 2397 2006 2069 2444 
Q 1847 2744 1503 2744 
z
" transform="scale(0.015625)"/>
       <path id="TimesNewRomanPSMT-73" d="M 2050 2947 
L 2050 1972 
L 1947 1972 
Q 1828 2431 1642 2597 
Q 1456 2763 1169 2763 
Q 950 2763 815 2647 
Q 681 2531 681 2391 
Q 681 2216 781 2091 
Q 878 1963 1175 1819 
L 1631 1597 
Q 2266 1288 2266 781 
Q 2266 391 1970 151 
Q 1675 -88 1309 -88 
Q 1047 -88 709 6 
Q 606 38 541 38 
Q 469 38 428 -44 
L 325 -44 
L 325 978 
L 428 978 
Q 516 541 762 319 
Q 1009 97 1316 97 
Q 1531 97 1667 223 
Q 1803 350 1803 528 
Q 1803 744 1651 891 
Q 1500 1038 1047 1263 
Q 594 1488 453 1669 
Q 313 1847 313 2119 
Q 313 2472 555 2709 
Q 797 2947 1181 2947 
Q 1350 2947 1591 2875 
Q 1750 2828 1803 2828 
Q 1853 2828 1881 2850 
Q 1909 2872 1947 2947 
L 2050 2947 
z
" transform="scale(0.015625)"/>
      </defs>
      <use xlink:href="#TimesNewRomanPSMT-4c"/>
      <use xlink:href="#TimesNewRomanPSMT-6f" transform="translate(61.083984 0)"/>
      <use xlink:href="#TimesNewRomanPSMT-73" transform="translate(111.083984 0)"/>
      <use xlink:href="#TimesNewRomanPSMT-73" transform="translate(150 0)"/>
     </g>
    </g>
   </g>
   <g id="line2d_19">
    <path d="M 197.452125 61.818516 
L 288.377664 143.539408 
L 312.891468 163.742585 
L 327.655882 173.551431 
L 338.254717 176.385022 
L 346.528494 188.498852 
L 353.316017 186.159005 
L 359.070805 199.591568 
L 364.066017 205.009784 
L 368.478985 203.436319 
L 372.431384 201.199317 
L 376.01033 202.580139 
L 379.280343 203.154085 
L 382.290545 204.310629 
L 385.079199 204.95741 
L 390.107565 213.32689 
L 392.391905 216.182433 
L 394.54638 209.986637 
L 396.584966 218.210393 
L 398.519495 218.095359 
L 400.360077 216.667667 
L 402.115416 219.549991 
L 403.793058 208.186564 
L 405.399592 215.110675 
L 406.940801 220.087893 
L 408.421791 220.207597 
L 409.847091 224.299474 
L 411.220738 226.378523 
L 412.546345 224.140426 
L 413.827159 219.157101 
L 415.066109 227.666826 
L 416.265845 227.775745 
L 417.428774 227.239129 
L 418.557086 228.587887 
L 419.652783 226.140208 
L 420.717698 230.926195 
L 421.753514 231.192362 
L 422.761778 235.648096 
L 423.743918 230.115703 
L 424.701253 233.479225 
L 425.635007 231.937515 
L 426.546312 231.683077 
L 427.436223 227.069675 
L 428.305722 229.187116 
L 429.155723 230.426995 
L 429.987082 236.308874 
L 430.8006 235.794066 
L 431.597026 235.818683 
L 432.377063 239.122543 
L 433.141372 239.54001 
L 433.890576 238.515661 
L 434.625259 235.870248 
L 435.345974 234.110787 
L 436.747555 242.978119 
L 437.42938 239.849549 
L 438.099158 240.155417 
L 438.757308 240.244716 
L 439.404225 241.743109 
L 440.040288 241.509664 
L 441.281265 242.992101 
L 441.886844 243.340683 
L 442.482901 239.773106 
L 443.069731 245.683329 
L 443.647615 247.395155 
L 444.216822 237.805039 
L 444.777608 237.717271 
L 445.330219 241.293245 
L 445.87489 246.339745 
L 446.411846 244.341636 
L 446.941302 242.856987 
L 447.463465 245.160476 
L 447.978533 250.022637 
L 448.486697 238.039237 
L 448.988139 247.87429 
L 449.483034 241.969964 
L 449.971552 245.057881 
L 450.453854 247.025299 
L 450.930097 245.55498 
L 451.400431 247.257816 
L 451.865001 252.490991 
L 452.323947 243.469111 
L 452.777402 243.841802 
L 453.225498 250.542952 
L 453.668359 249.133314 
L 454.106105 249.097781 
L 454.538855 257.552238 
L 454.96672 251.338388 
L 455.389809 251.5245 
L 455.808229 248.31254 
L 456.222081 249.789762 
L 456.631463 255.620722 
L 457.036472 251.427195 
L 457.437199 250.966962 
L 457.833734 255.017988 
L 458.226165 250.005384 
L 458.614574 250.959353 
L 459.379654 255.999008 
L 459.756481 251.087249 
L 460.129598 254.578898 
L 460.499079 252.317541 
L 460.864994 253.373973 
L 461.22741 249.08872 
L 461.586394 253.444726 
L 461.94201 249.599015 
L 462.294322 259.329067 
L 462.643389 260.444638 
L 462.989271 254.565404 
L 463.67171 257.069335 
L 464.008376 257.690908 
L 464.34208 252.33502 
L 464.672871 258.065245 
L 465.0008 256.529134 
L 465.325918 253.018226 
L 465.967905 260.705214 
L 466.284867 258.203813 
L 466.5992 260.82773 
L 466.910949 258.108562 
L 467.220155 259.655158 
L 467.526859 260.370288 
L 468.132922 259.421986 
L 468.432358 257.964879 
L 468.729448 257.547396 
L 469.024227 263.061548 
L 469.316732 257.080894 
L 469.606997 264.680681 
L 469.895056 261.311152 
L 470.180943 262.046704 
L 470.46469 265.531223 
L 471.025891 264.076393 
L 471.303407 264.410795 
L 471.578905 263.179449 
L 471.852416 264.338309 
L 472.123967 263.317425 
L 472.393588 266.742766 
L 472.661304 267.408374 
L 472.927142 263.370917 
L 473.19113 262.804256 
L 473.453291 266.824574 
L 473.713652 263.486201 
L 473.972237 261.668763 
L 474.229071 264.573507 
L 474.484175 265.98464 
L 474.737575 262.06157 
L 474.989292 263.675524 
L 475.239348 266.851075 
L 475.487766 262.314731 
L 475.979771 266.912854 
L 476.223399 262.7822 
L 476.465471 266.24432 
L 476.706008 265.382806 
L 476.945028 269.970782 
L 477.18255 268.162761 
L 477.418593 264.153617 
L 477.653176 266.803047 
L 477.886316 264.033099 
L 478.118031 268.788931 
L 478.348338 268.543181 
L 478.577254 269.539356 
L 478.804796 269.626133 
L 479.030981 268.9076 
L 479.255824 265.896816 
L 479.479341 273.189292 
L 479.701548 267.71877 
L 479.92246 267.138686 
L 480.142093 268.967829 
L 480.36046 267.375062 
L 480.577576 273.472153 
L 480.793456 268.822806 
L 481.221563 273.038194 
L 481.433816 269.47379 
L 481.644888 270.19404 
L 481.854792 265.684113 
L 482.477617 272.396735 
L 482.682971 272.426538 
L 482.88722 270.051174 
L 483.090374 269.371513 
L 483.292445 272.392789 
L 483.493444 272.146124 
L 483.693384 275.302177 
L 483.892274 272.42718 
L 484.090126 274.735245 
L 484.286951 273.564235 
L 484.48276 275.24194 
L 484.677562 268.375722 
L 484.871368 268.370599 
L 485.064189 274.580103 
L 485.256033 274.213328 
L 485.446912 271.874679 
L 485.636834 273.964997 
L 486.013848 269.321729 
L 486.200958 269.39149 
L 486.387149 278.187431 
L 486.57243 275.497452 
L 486.75681 276.68792 
L 486.940298 274.656613 
L 487.122901 274.528403 
L 487.304629 273.81673 
L 487.48549 279.496247 
L 488.022953 272.789312 
L 488.200428 276.241161 
L 488.377075 274.22907 
L 488.552903 280.055914 
L 488.727919 275.559648 
L 488.902131 275.456257 
L 489.248171 274.145787 
L 489.420013 280.68014 
L 489.761379 278.052884 
L 490.099698 276.278811 
L 490.435025 279.8098 
L 490.601582 277.605392 
L 490.767411 279.5014 
L 490.932518 277.469315 
L 491.096909 277.33549 
L 491.260589 281.166261 
L 491.423566 278.854576 
L 491.585846 282.075809 
L 492.068557 278.547877 
L 492.386984 278.172879 
L 492.545199 282.223379 
L 492.702757 278.086114 
L 492.859663 277.76467 
L 493.015922 283.816072 
L 493.17154 281.446289 
L 493.326522 280.855768 
L 493.480872 278.679765 
L 493.634597 280.923824 
L 493.940188 281.577836 
L 494.092065 281.320154 
L 494.243336 282.802611 
L 494.394005 280.970129 
L 494.544078 281.50805 
L 494.69356 284.381815 
L 494.842454 282.014816 
L 495.138499 283.747012 
L 495.28566 285.167231 
L 495.432251 284.455982 
L 495.578277 280.723588 
L 495.723743 280.728906 
L 495.868653 281.932094 
L 496.013012 285.969301 
L 496.156822 284.572376 
L 496.300089 285.631069 
L 496.442817 282.543607 
L 496.585009 283.802641 
L 496.72667 282.537739 
L 496.867804 285.619191 
L 497.008414 283.484622 
L 497.148504 285.152365 
L 497.288079 282.880579 
L 497.427141 285.653136 
L 497.565695 283.413676 
L 497.703745 284.48321 
L 497.841294 283.193094 
L 497.978346 289.017107 
L 498.250971 283.774713 
L 498.386552 283.236612 
L 498.52165 284.780475 
L 498.79041 283.651957 
L 498.924079 288.314392 
L 499.19001 284.312645 
L 499.45409 285.073929 
L 499.585443 284.44206 
L 499.716342 287.203012 
L 499.846791 284.264456 
L 500.10635 288.352701 
L 500.492386 286.773558 
L 500.620196 286.98356 
L 500.747576 286.515337 
L 500.87453 288.255541 
L 501.12717 285.684424 
L 501.378137 291.133194 
L 501.627453 287.475332 
L 501.751499 287.1791 
L 501.87514 287.173586 
L 501.99838 285.14338 
L 502.243663 290.193006 
L 502.365712 288.575364 
L 502.48737 288.794241 
L 502.72952 284.915105 
L 502.850017 289.82479 
L 502.970132 287.88005 
L 503.089868 288.410759 
L 503.209228 289.932688 
L 503.328212 287.958883 
L 503.446824 292.248107 
L 503.565066 291.066936 
L 503.682941 291.239712 
L 504.034381 288.982869 
L 504.266878 292.025479 
L 504.382593 291.584884 
L 504.497957 286.221528 
L 504.727636 292.738595 
L 504.955932 290.283669 
L 505.069566 291.428427 
L 505.182861 290.382427 
L 505.295818 291.731727 
L 505.40844 290.993419 
L 505.520728 291.279426 
L 505.744311 290.531326 
L 505.85561 292.342653 
L 505.966583 292.327853 
L 506.077232 292.585611 
L 506.18756 291.163215 
L 506.297567 294.759348 
L 506.516628 291.793003 
L 506.625686 290.997575 
L 506.73443 291.984584 
L 506.842864 291.024907 
L 506.950989 291.601861 
L 507.058806 291.074763 
L 507.166317 292.584426 
L 507.273524 290.97887 
L 507.380429 293.484007 
L 507.487033 291.076137 
L 507.593338 295.024408 
L 507.699346 291.957668 
L 507.910477 294.642038 
L 508.015603 294.630239 
L 508.120438 293.428744 
L 508.224984 293.627555 
L 508.329243 294.413228 
L 508.433215 294.339719 
L 508.536904 294.554502 
L 508.640309 296.206036 
L 508.948844 292.825836 
L 509.051133 294.621008 
L 509.153147 293.926681 
L 509.254888 294.016351 
L 509.55848 295.624634 
L 509.65914 292.632043 
L 509.759533 294.65665 
L 509.859661 291.403679 
L 509.959525 294.26648 
L 510.059127 293.49872 
L 510.158468 295.022887 
L 510.257549 293.018896 
L 510.356372 294.506288 
L 510.454938 294.363059 
L 510.651304 296.341546 
L 510.846658 293.649431 
L 510.943959 292.534727 
L 511.137815 295.778535 
L 511.234372 293.055335 
L 511.330684 296.738113 
L 511.426752 296.721168 
L 511.618161 296.27613 
L 511.808608 296.791799 
L 511.998103 295.886662 
L 512.092497 298.341064 
L 512.186656 295.902234 
L 512.374275 297.353113 
L 512.467738 296.945447 
L 512.560971 297.721117 
L 512.653975 296.385895 
L 512.746751 297.973477 
L 512.839301 297.395224 
L 512.931625 298.238763 
L 513.023726 298.209809 
L 513.207257 295.807576 
L 513.298691 298.222853 
L 513.389905 296.755512 
L 513.571676 298.219153 
L 513.662237 296.757854 
L 513.752581 298.425753 
L 513.84271 298.217466 
L 513.932626 296.742371 
L 514.022329 298.600146 
L 514.2011 296.402353 
L 514.290171 298.729522 
L 514.379032 298.435824 
L 514.467686 298.96925 
L 514.556134 296.344955 
L 514.644375 297.023234 
L 514.820243 299.725677 
L 514.907873 297.513312 
L 515.082526 301.849873 
L 515.256378 298.187101 
L 515.343006 300.01578 
L 515.429437 299.75435 
L 515.515671 300.427062 
L 515.601709 299.834786 
L 515.687552 297.488077 
L 515.773202 298.018462 
L 515.858658 298.758961 
L 515.943922 297.04681 
L 516.028995 300.314287 
L 516.113877 299.150204 
L 516.283074 299.634567 
L 516.36739 301.314994 
L 516.451518 300.150768 
L 516.535461 301.300937 
L 516.619218 300.179556 
L 516.70279 300.895122 
L 516.869384 300.226792 
L 516.952408 301.084701 
L 517.035249 299.844535 
L 517.200392 303.102635 
L 517.282694 298.744867 
L 517.364818 299.184085 
L 517.446765 300.707984 
L 517.610128 299.645562 
L 517.691546 301.243183 
L 517.77279 299.774102 
L 517.853861 302.941586 
L 518.015483 299.361869 
L 518.176419 299.385855 
L 518.256631 301.869889 
L 518.336674 299.839911 
L 518.416549 302.503076 
L 518.496255 300.792465 
L 518.575795 302.615882 
L 518.655167 302.412306 
L 518.734374 302.747099 
L 518.813416 300.469034 
L 518.892293 301.142111 
L 518.971007 301.560557 
L 519.049557 303.23207 
L 519.127945 302.655665 
L 519.284237 301.185357 
L 519.362141 301.046965 
L 519.439886 302.557493 
L 519.517472 301.882181 
L 519.594899 302.395192 
L 519.672169 300.638004 
L 519.826237 302.616484 
L 519.903037 301.551303 
L 519.979682 302.673666 
L 520.056172 301.887244 
L 520.20869 304.562647 
L 520.28472 301.778321 
L 520.360597 303.818148 
L 520.436323 301.767582 
L 520.511898 301.875625 
L 520.662598 303.225862 
L 520.737724 301.413339 
L 520.812701 303.2098 
L 520.88753 302.1667 
L 520.962211 302.549654 
L 521.111135 301.415826 
L 521.185378 304.918123 
L 521.259476 303.763965 
L 521.333429 301.055781 
L 521.407238 301.686774 
L 521.480904 303.785773 
L 521.554427 301.565309 
L 521.627807 302.373171 
L 521.701046 301.21054 
L 521.774144 303.615189 
L 521.847101 303.013784 
L 521.919918 304.552903 
L 521.992595 303.278142 
L 522.065133 304.611166 
L 522.137533 304.490714 
L 522.209794 304.402313 
L 522.281918 301.480787 
L 522.353905 304.469919 
L 522.425756 303.04077 
L 522.497471 304.587441 
L 522.56905 303.579938 
L 522.640495 303.873807 
L 522.711805 303.802892 
L 522.782981 304.016657 
L 522.854024 303.913221 
L 522.924933 304.884228 
L 523.136871 302.999171 
L 523.207254 305.288758 
L 523.277507 303.157155 
L 523.34763 303.667019 
L 523.417623 304.134527 
L 523.487488 301.405363 
L 523.557223 302.409095 
L 523.626831 302.431851 
L 523.696311 305.075995 
L 523.765665 304.869127 
L 523.834891 304.750657 
L 523.903991 303.439299 
L 524.041815 304.679653 
L 524.11054 302.602727 
L 524.17914 304.055486 
L 524.247616 303.013749 
L 524.315969 305.293255 
L 524.384198 304.771805 
L 524.452306 304.59215 
L 524.520291 306.105784 
L 524.655896 304.133472 
L 524.791018 306.53877 
L 524.92566 303.595991 
L 524.992802 305.89603 
L 525.059825 305.343965 
L 525.193518 304.01066 
L 525.260187 304.395023 
L 525.459496 305.855093 
L 525.591789 302.012934 
L 525.789366 305.798767 
L 525.854997 305.492022 
L 525.920514 303.273085 
L 526.051211 305.688883 
L 526.11639 305.82077 
L 526.181458 306.415427 
L 526.311259 305.544508 
L 526.375993 306.528435 
L 526.440617 306.243553 
L 526.505131 306.295606 
L 526.569536 305.468825 
L 526.633831 307.191506 
L 526.698017 304.804531 
L 526.762095 305.014565 
L 526.826065 305.5721 
L 526.889926 304.565031 
L 527.080869 306.407084 
L 527.144304 303.149194 
L 527.207632 305.596953 
L 527.270855 305.667886 
L 527.333972 306.596077 
L 527.396985 306.42529 
L 527.459893 306.473692 
L 527.522697 304.990413 
L 527.710487 307.257139 
L 527.772877 306.073856 
L 527.835165 306.787151 
L 527.897351 306.688976 
L 528.083298 305.964959 
L 528.145079 306.579824 
L 528.206759 305.822748 
L 528.268338 306.184544 
L 528.329818 306.917996 
L 528.391198 306.133934 
L 528.452479 307.007842 
L 528.513661 304.379336 
L 528.574745 307.003431 
L 528.63573 306.674164 
L 528.696617 304.412517 
L 528.757407 307.341064 
L 528.818099 305.773404 
L 528.878695 307.738577 
L 528.939193 306.737499 
L 528.999595 306.952915 
L 529.059901 306.109566 
L 529.120112 306.627912 
L 529.180227 306.737833 
L 529.300171 305.674371 
L 529.360001 307.567893 
L 529.419737 306.378924 
L 529.538927 308.101338 
L 529.598382 306.400819 
L 529.657744 308.025172 
L 529.717013 306.828121 
L 529.835274 307.175652 
L 529.894266 306.330256 
L 529.953166 307.95838 
L 530.011976 307.755171 
L 530.070694 306.79896 
L 530.129321 307.402067 
L 530.246304 308.359753 
L 530.421105 306.900125 
L 530.479194 308.091573 
L 530.537193 306.902451 
L 530.595104 308.08166 
L 530.652926 307.116246 
L 530.710661 306.774894 
L 530.825866 308.141225 
L 530.883338 306.70202 
L 530.940723 307.112852 
L 530.998021 308.125067 
L 531.055233 307.753988 
L 531.112358 306.481246 
L 531.169398 308.757505 
L 531.226351 306.67063 
L 531.28322 308.417409 
L 531.340003 307.524133 
L 531.396701 307.712561 
L 531.453315 306.706602 
L 531.509844 308.647736 
L 531.566289 307.579362 
L 531.735121 306.262369 
L 531.959067 308.388814 
L 532.014848 306.569885 
L 532.070546 307.605552 
L 532.181698 308.734808 
L 532.237153 308.342712 
L 532.292526 308.635091 
L 532.347818 308.808253 
L 532.40303 305.866427 
L 532.458161 306.559491 
L 532.513213 308.933439 
L 532.568184 308.220629 
L 532.623076 308.813504 
L 532.677889 307.895336 
L 532.732622 308.548404 
L 532.787277 309.208698 
L 532.841853 305.960637 
L 532.89635 307.57086 
L 532.95077 308.83499 
L 533.005111 308.337941 
L 533.059374 308.350879 
L 533.11356 307.443407 
L 533.167669 308.672782 
L 533.2217 308.670248 
L 533.329532 307.917044 
L 533.437059 309.517839 
L 533.490708 308.851716 
L 533.544281 308.766245 
L 533.597779 307.261828 
L 533.651201 308.231686 
L 533.704548 308.140407 
L 533.75782 308.692302 
L 533.811017 308.542157 
L 533.86414 307.433036 
L 533.917188 309.000795 
L 533.970163 308.080815 
L 534.07589 307.709444 
L 534.23393 309.72231 
L 534.286463 307.499196 
L 534.338925 308.96963 
L 534.391313 308.320246 
L 534.44363 308.879776 
L 534.548046 308.229098 
L 534.600147 309.018382 
L 534.652176 307.603936 
L 534.704134 308.060126 
L 534.75602 309.427554 
L 534.807836 308.546381 
L 534.859581 308.436918 
L 534.96286 309.510084 
L 535.014394 308.020657 
L 535.065858 309.35252 
L 535.117252 309.662845 
L 535.219832 308.010921 
L 535.271018 308.892796 
L 535.322135 309.720291 
L 535.373184 309.617382 
L 535.475074 309.178821 
L 535.525917 307.728707 
L 535.576692 308.218269 
L 535.678038 309.381888 
L 535.728609 308.923609 
L 535.779113 309.23771 
L 535.930223 308.253556 
L 536.180743 309.980787 
L 536.230648 308.631657 
L 536.280488 309.976052 
L 536.330263 309.745139 
L 536.379973 308.578067 
L 536.429617 310.062808 
L 536.479196 308.869238 
L 536.528711 308.753812 
L 536.578161 307.276411 
L 536.627547 310.235169 
L 536.726125 309.526677 
L 536.775319 309.460257 
L 536.824448 310.286651 
L 536.873514 309.384754 
L 536.922517 309.985829 
L 536.971456 309.646825 
L 537.020333 309.721316 
L 537.117896 310.030076 
L 537.166584 308.264132 
L 537.21521 309.735262 
L 537.263773 310.131882 
L 537.312274 308.27279 
L 537.360713 308.856899 
L 537.50566 310.223337 
L 537.553853 308.203793 
L 537.601984 308.988309 
L 537.746013 309.599988 
L 537.793902 309.710834 
L 537.84173 309.457628 
L 537.889497 309.54762 
L 537.984853 310.027952 
L 538.127437 308.617181 
L 538.269487 310.192738 
L 538.411007 308.183392 
L 538.363892 310.335214 
L 538.458063 308.744437 
L 538.505061 310.242179 
L 538.598882 310.027268 
L 538.645706 310.106857 
L 538.73918 309.24257 
L 538.785831 310.275218 
L 538.87896 309.911587 
L 538.925439 309.879273 
L 538.971862 309.398241 
L 539.110788 310.49891 
L 539.156984 309.643959 
L 539.203124 310.529527 
L 539.249208 309.970376 
L 539.295235 310.395894 
L 539.341207 309.985249 
L 539.387124 310.13457 
L 539.432984 309.327571 
L 539.524539 309.51973 
L 539.570234 309.340268 
L 539.661459 310.468658 
L 539.706989 309.491493 
L 539.752465 309.888635 
L 539.797886 310.520965 
L 539.843252 310.461419 
L 539.933823 309.419892 
L 540.069275 310.05332 
L 540.114318 310.05178 
L 540.159308 309.377101 
L 540.204245 310.672575 
L 540.293958 310.212993 
L 540.38346 309.736783 
L 540.428132 308.985834 
L 540.472751 309.581591 
L 540.517317 310.663229 
L 540.606294 310.124852 
L 540.650704 310.738106 
L 540.739368 310.618427 
L 540.827826 309.693031 
L 540.871977 310.752878 
L 540.960126 310.292708 
L 541.04807 309.135737 
L 541.091966 310.87533 
L 541.135811 310.352653 
L 541.179606 309.695584 
L 541.223349 310.265072 
L 541.267043 310.738102 
L 541.354279 309.732903 
L 541.397822 310.189191 
L 541.441315 309.826389 
L 541.484758 310.258867 
L 541.528151 310.289766 
L 541.571495 309.640828 
L 541.658034 309.742225 
L 541.744376 310.759155 
L 541.787473 310.280964 
L 541.916472 310.333029 
L 541.959374 309.734039 
L 542.002228 310.332113 
L 542.045033 310.21483 
L 542.08779 310.880198 
L 542.130499 310.410722 
L 542.215773 309.365819 
L 542.300855 310.922959 
L 542.343325 309.23905 
L 542.385747 309.861799 
L 542.470449 310.919873 
L 542.597148 309.389846 
L 542.639288 310.945489 
L 542.723426 310.359273 
L 542.765425 310.42895 
L 542.849284 308.7388 
L 542.932958 310.94241 
L 542.974725 309.96144 
L 543.016447 310.393848 
L 543.058123 308.879225 
L 543.099753 310.416947 
L 543.141338 310.456189 
L 543.22437 309.92716 
L 543.265818 309.952101 
L 543.348579 311.038724 
L 543.389891 309.979507 
L 543.472381 310.482815 
L 543.513559 310.43299 
L 543.554693 308.41398 
L 543.595781 309.981196 
L 543.636826 309.914478 
L 543.677825 309.980106 
L 543.718781 311.012262 
L 543.800559 310.462011 
L 543.841383 310.46361 
L 543.882162 311.06667 
L 543.922897 310.01553 
L 544.004237 310.535137 
L 544.044842 310.580589 
L 544.085403 311.121827 
L 544.125921 310.497552 
L 544.166395 310.545461 
L 544.206826 311.111199 
L 544.247215 310.02448 
L 544.28756 311.106643 
L 544.408339 310.583991 
L 544.448513 311.142812 
L 544.488645 311.125318 
L 544.608785 309.974823 
L 544.648748 310.074202 
L 544.688668 311.127164 
L 544.768383 310.640202 
L 544.808178 311.136323 
L 544.847931 310.522702 
L 544.887642 311.097998 
L 544.927312 311.133819 
L 544.96694 310.089814 
L 545.006527 311.175293 
L 545.046073 310.646302 
L 545.085577 310.563153 
L 545.12504 310.053174 
L 545.203844 310.121753 
L 545.243184 310.115777 
L 545.321743 311.230634 
L 545.360961 311.211142 
L 545.400139 311.190785 
L 545.51743 308.560439 
L 545.595423 310.686725 
L 545.634359 310.657826 
L 545.750929 310.654335 
L 545.789706 309.58979 
L 545.828443 310.181255 
L 545.982998 311.231668 
L 546.021539 310.164035 
L 546.06004 311.251747 
L 546.098502 310.731057 
L 546.17531 310.628923 
L 546.213655 311.283843 
L 546.251962 311.239934 
L 546.29023 311.308022 
L 546.404803 310.202304 
L 546.442918 310.67903 
L 546.480994 310.721467 
L 546.519031 311.274093 
L 546.594993 311.267774 
L 546.74646 309.729734 
L 546.784232 310.719697 
L 546.821967 309.703873 
L 546.859664 309.676674 
L 546.972532 311.312581 
L 547.01008 311.283843 
L 547.047591 311.297288 
L 547.085064 310.235779 
L 547.122501 311.279768 
L 547.159901 311.295708 
L 547.271879 310.190106 
L 547.309132 311.28821 
L 547.383528 310.801572 
L 547.420671 311.18558 
L 547.457778 310.704912 
L 547.494849 310.263291 
L 547.605844 311.321822 
L 547.753333 310.247413 
L 547.790116 311.340765 
L 547.863575 311.332895 
L 547.936891 309.754988 
L 548.010067 310.801367 
L 548.046601 311.354435 
L 548.155995 309.756394 
L 548.228749 311.284009 
L 548.265073 310.832104 
L 548.301363 310.289866 
L 548.337618 311.31718 
L 548.373839 311.384553 
L 548.446176 311.343631 
L 548.554424 310.306947 
L 548.518376 311.349382 
L 548.590438 310.856005 
L 548.662364 310.832454 
L 548.698276 311.398395 
L 548.769997 310.322185 
L 548.841583 310.839786 
L 548.877326 310.811822 
L 548.94871 310.286302 
L 549.091075 311.398074 
L 549.1975 309.85235 
L 549.232909 310.847152 
L 549.303627 310.884555 
L 549.338936 310.320242 
L 549.409457 310.85882 
L 549.514993 311.406486 
L 549.550106 311.40203 
L 549.585187 310.84748 
L 549.690235 310.873591 
L 549.725187 310.864348 
L 549.794993 311.421682 
L 549.829848 310.888151 
L 549.899463 310.807747 
L 549.968949 310.899443 
L 550.003645 309.831392 
L 550.038309 311.414106 
L 550.107542 311.409866 
L 550.211154 309.835017 
L 550.280072 309.871249 
L 550.314485 311.429846 
L 550.383215 310.923946 
L 550.417534 310.915927 
L 550.451822 310.356115 
L 550.486078 311.422213 
L 550.520304 310.88786 
L 550.622796 311.445604 
L 550.656899 309.817863 
L 550.725012 310.916201 
L 550.826953 310.870073 
L 550.92862 311.447847 
L 551.030016 310.927205 
L 551.063754 311.433842 
L 551.097463 309.324986 
L 551.16479 311.444352 
L 551.231997 311.440809 
L 551.366056 310.413106 
L 551.499642 311.470258 
L 551.532965 311.449906 
L 551.566259 310.412613 
L 551.599524 311.486956 
L 551.632759 310.928254 
L 551.732291 311.496457 
L 551.699143 310.404215 
L 551.765411 311.472605 
L 551.831563 311.464212 
L 551.8976 311.483648 
L 551.963522 310.924788 
L 552.06219 311.493362 
L 552.095023 311.467863 
L 552.160602 309.357796 
L 552.19335 310.430691 
L 552.324057 311.506791 
L 552.356664 310.948311 
L 552.421793 311.500411 
L 552.519277 311.500271 
L 552.616512 310.973217 
L 552.648868 310.988028 
L 552.681196 310.977923 
L 552.713497 311.497315 
L 552.745771 310.975073 
L 552.842427 310.449044 
L 552.970919 311.509915 
L 553.067003 310.457425 
L 553.098977 310.983812 
L 553.130924 310.998652 
L 553.258444 311.538443 
L 553.385536 310.476233 
L 553.512204 311.522634 
L 553.543805 310.479236 
L 553.606928 311.546752 
L 553.669946 311.529158 
L 553.701415 311.002701 
L 553.732859 311.54099 
L 553.764276 311.533528 
L 553.795668 311.532881 
L 553.858373 310.469822 
L 553.920975 311.013558 
L 553.983473 311.547937 
L 554.014684 311.017794 
L 554.077028 311.012729 
L 554.108162 310.478982 
L 554.13927 311.55312 
L 554.170353 311.007966 
L 554.232442 311.007001 
L 554.356315 311.558627 
L 554.387221 311.007844 
L 554.479786 311.018752 
L 554.51059 311.546154 
L 554.54137 311.022274 
L 554.572125 310.487583 
L 554.572125 310.487583 
" clip-path="url(#p2cbe2b4472)" style="fill: none; stroke: #ffa500; stroke-width: 1.5; stroke-linecap: square"/>
   </g>
   <g id="line2d_20">
    <path d="M 197.452125 50.853641 
L 288.377664 143.644917 
L 312.891468 160.014422 
L 327.655882 174.418104 
L 338.254717 182.840125 
L 346.528494 188.244668 
L 353.316017 191.721851 
L 359.070805 194.052847 
L 364.066017 196.651367 
L 376.01033 201.765475 
L 379.280343 202.2911 
L 382.290545 203.709505 
L 385.079199 204.736503 
L 390.107565 206.277365 
L 392.391905 206.013712 
L 394.54638 207.919286 
L 396.584966 208.580897 
L 398.519495 208.783025 
L 400.360077 209.440282 
L 402.115416 209.316247 
L 403.793058 210.354253 
L 405.399592 210.510652 
L 406.940801 210.828828 
L 408.421791 211.307187 
L 409.847091 211.403187 
L 411.220738 211.921547 
L 413.827159 212.3749 
L 415.066109 211.932769 
L 416.265845 211.701171 
L 419.652783 213.566998 
L 420.717698 213.763883 
L 421.753514 213.490515 
L 422.761778 213.466453 
L 423.743918 214.397277 
L 424.701253 214.297906 
L 426.546312 214.609278 
L 427.436223 215.173921 
L 428.305722 215.225898 
L 429.155723 214.971889 
L 430.8006 215.599961 
L 431.597026 215.631065 
L 434.625259 216.35781 
L 435.345974 216.590082 
L 436.053242 217.207702 
L 436.747555 217.114311 
L 439.404225 217.495773 
L 440.040288 217.926207 
L 440.665855 217.669763 
L 441.281265 217.753463 
L 441.886844 218.069109 
L 442.482901 217.869916 
L 443.647615 218.080878 
L 444.777608 217.973228 
L 445.330219 218.613815 
L 445.87489 218.670709 
L 446.411846 218.934021 
L 446.941302 218.963872 
L 447.463465 219.248271 
L 448.486697 219.444855 
L 448.988139 219.134642 
L 449.483034 219.619733 
L 449.971552 219.825699 
L 450.930097 219.761747 
L 451.400431 220.146429 
L 451.865001 220.188183 
L 452.323947 219.663129 
L 452.777402 220.304779 
L 453.225498 220.693696 
L 453.668359 220.24411 
L 454.106105 220.517296 
L 454.96672 220.558329 
L 455.389809 220.769901 
L 455.808229 220.596721 
L 456.222081 220.884173 
L 456.631463 220.937729 
L 457.036472 220.326509 
L 457.437199 220.961346 
L 457.833734 220.961568 
L 458.226165 221.541121 
L 458.614574 221.157113 
L 458.999044 221.376617 
L 459.379654 221.230908 
L 459.756481 221.267246 
L 460.129598 221.925899 
L 460.499079 221.685847 
L 461.22741 221.729021 
L 461.586394 221.373286 
L 461.94201 221.825997 
L 462.643389 222.247231 
L 463.67171 222.32281 
L 465.0008 222.607836 
L 465.325918 222.253258 
L 465.64827 222.502565 
L 465.967905 222.058816 
L 466.284867 222.689751 
L 466.910949 222.542154 
L 467.220155 222.944958 
L 467.831102 223.056272 
L 468.132922 222.701845 
L 468.432358 222.122062 
L 468.729448 223.273349 
L 469.895056 223.07161 
L 470.180943 223.208254 
L 470.46469 223.545789 
L 470.746329 223.12756 
L 471.303407 223.586227 
L 471.578905 223.2748 
L 471.852416 223.837921 
L 472.393588 223.738487 
L 472.661304 223.772509 
L 472.927142 223.998634 
L 473.453291 223.418526 
L 473.713652 223.720088 
L 473.972237 223.821251 
L 474.229071 223.799021 
L 474.737575 224.185789 
L 474.989292 224.041166 
L 475.239348 223.649648 
L 475.487766 223.909605 
L 475.734567 223.801987 
L 475.979771 224.300886 
L 476.465471 224.192118 
L 476.706008 223.959648 
L 476.945028 224.289077 
L 477.418593 224.289093 
L 477.653176 224.051254 
L 477.886316 224.538249 
L 478.118031 224.382539 
L 478.348338 224.593835 
L 478.577254 223.574307 
L 478.804796 224.255626 
L 479.255824 224.555609 
L 479.479341 224.775382 
L 479.701548 224.644424 
L 479.92246 224.755302 
L 480.142093 224.369113 
L 480.36046 224.772606 
L 480.577576 224.657018 
L 480.793456 224.247497 
L 481.221563 224.918728 
L 481.433816 224.906253 
L 481.644888 224.775303 
L 481.854792 224.248179 
L 482.063539 224.755064 
L 482.271143 224.858955 
L 482.477617 224.42956 
L 482.682971 224.481609 
L 483.090374 225.128492 
L 483.292445 224.85173 
L 483.493444 224.981721 
L 483.693384 224.931789 
L 483.892274 225.122457 
L 484.090126 224.837574 
L 484.48276 225.184998 
L 484.677562 224.824187 
L 484.871368 225.163593 
L 485.064189 225.18411 
L 485.256033 224.857083 
L 485.446912 225.227443 
L 485.636834 225.191319 
L 485.82581 224.984298 
L 486.013848 225.321301 
L 486.200958 225.245976 
L 486.387149 224.745531 
L 486.57243 225.266176 
L 486.940298 225.352778 
L 487.48549 225.047156 
L 487.665493 225.155084 
L 488.022953 224.983283 
L 488.200428 225.134861 
L 488.377075 224.722493 
L 488.552903 225.308581 
L 488.727919 225.062169 
L 488.902131 225.383509 
L 489.075545 225.143989 
L 489.420013 225.255858 
L 489.59108 224.990984 
L 489.761379 225.389211 
L 489.930916 225.350407 
L 490.099698 224.720011 
L 490.267732 224.635994 
L 490.435025 224.996979 
L 490.767411 225.11555 
L 490.932518 225.062161 
L 491.096909 225.310896 
L 491.423566 224.91803 
L 491.747434 225.176338 
L 491.908336 225.157162 
L 492.068557 224.834005 
L 492.386984 225.313458 
L 492.545199 225.113749 
L 492.702757 225.272258 
L 493.17154 225.102155 
L 493.480872 224.756031 
L 493.634597 224.978001 
L 493.7877 224.63593 
L 493.940188 224.732565 
L 494.092065 225.069663 
L 494.243336 224.935723 
L 494.544078 224.551271 
L 494.842454 225.116152 
L 495.138499 224.714142 
L 495.28566 225.204158 
L 495.432251 225.283948 
L 495.578277 224.713317 
L 495.723743 224.981689 
L 496.013012 224.629411 
L 496.300089 224.932535 
L 497.288079 224.489246 
L 497.427141 224.853102 
L 497.565695 224.660087 
L 497.703745 224.909227 
L 497.978346 224.83391 
L 498.114903 224.45631 
L 498.386552 224.946834 
L 498.52165 224.909734 
L 498.656268 224.745611 
L 498.79041 224.805003 
L 498.924079 225.105843 
L 499.057278 224.937198 
L 499.32228 225.191081 
L 499.976792 224.334599 
L 500.10635 224.718631 
L 500.235466 224.59849 
L 500.364143 225.126018 
L 500.620196 225.079283 
L 500.87453 224.228678 
L 501.00106 224.342474 
L 501.12717 224.639824 
L 501.252861 224.524799 
L 501.503 224.799967 
L 501.751499 224.889488 
L 501.87514 224.992982 
L 501.99838 224.304542 
L 502.243663 224.841317 
L 502.365712 224.975051 
L 502.48737 224.46585 
L 502.608638 224.737355 
L 502.850017 224.660134 
L 502.970132 224.703975 
L 503.089868 224.895856 
L 503.328212 224.561382 
L 503.565066 224.718155 
L 503.682941 224.377511 
L 503.80045 224.562651 
L 503.917596 224.281868 
L 504.034381 224.479951 
L 504.150808 223.233926 
L 504.266878 224.756777 
L 504.497957 224.338255 
L 504.727636 224.525481 
L 504.841956 224.464724 
L 504.955932 224.231525 
L 505.069566 224.592534 
L 505.295818 224.339841 
L 505.520728 224.729726 
L 505.632684 224.035631 
L 505.85561 224.624867 
L 505.966583 223.875575 
L 506.077232 224.721565 
L 506.18756 224.351737 
L 506.297567 224.504639 
L 506.516628 224.252081 
L 506.73443 224.323789 
L 506.950989 224.210572 
L 507.166317 224.203664 
L 507.273524 224.090281 
L 507.380429 224.344552 
L 507.487033 224.245197 
L 507.593338 223.886107 
L 507.805058 224.339103 
L 508.015603 223.663519 
L 508.224984 224.293471 
L 508.329243 223.829681 
L 508.536904 224.223102 
L 508.640309 223.675097 
L 508.743433 224.239273 
L 508.948844 223.839293 
L 509.051133 224.273137 
L 509.356356 223.995883 
L 509.457553 223.613667 
L 509.65914 224.174512 
L 509.859661 224.19797 
L 509.959525 224.062825 
L 510.158468 224.205219 
L 510.356372 224.11776 
L 510.454938 223.75384 
L 510.553248 224.04648 
L 510.749107 223.92572 
L 510.846658 224.176772 
L 510.943959 224.126182 
L 511.234372 224.338152 
L 511.330684 224.138618 
L 511.522578 224.326581 
L 511.713504 223.887804 
L 511.903474 224.068908 
L 511.998103 223.863172 
L 512.186656 224.192823 
L 512.374275 224.052666 
L 512.467738 223.933223 
L 512.653975 223.956904 
L 512.746751 223.758995 
L 512.931625 224.056322 
L 513.023726 223.547629 
L 513.207257 224.06407 
L 513.389905 223.867216 
L 513.4809 223.603317 
L 513.571676 224.345868 
L 513.752581 223.745577 
L 513.84271 223.693592 
L 513.932626 223.442128 
L 514.11182 223.750985 
L 514.2011 223.338506 
L 514.290171 223.713616 
L 514.379032 223.642233 
L 514.467686 223.222212 
L 514.556134 223.531577 
L 514.644375 223.352639 
L 514.820243 223.751096 
L 515.169552 223.998278 
L 515.256378 223.145571 
L 515.343006 223.978832 
L 515.429437 223.806341 
L 515.687552 223.177087 
L 515.773202 223.830347 
L 515.858658 223.76756 
L 516.283074 223.282199 
L 516.36739 223.705099 
L 516.451518 223.384996 
L 516.619218 223.879969 
L 516.70279 223.637784 
L 516.786179 223.700087 
L 516.952408 223.648165 
L 517.117911 223.928234 
L 517.446765 223.136617 
L 517.528534 223.258487 
L 517.691546 223.700816 
L 517.77279 223.658253 
L 518.015483 222.992589 
L 518.096036 223.398327 
L 518.176419 223.216288 
L 518.256631 223.306102 
L 518.575795 223.305206 
L 518.734374 223.167697 
L 518.892293 223.259137 
L 519.049557 222.971835 
L 519.127945 223.523361 
L 519.206172 223.341853 
L 519.284237 223.153224 
L 519.517472 223.424633 
L 519.594899 223.238446 
L 519.672169 223.447156 
L 519.749281 223.224893 
L 519.826237 223.351957 
L 519.903037 223.222632 
L 519.979682 223.289495 
L 520.132508 223.513591 
L 520.28472 223.335199 
L 520.360597 222.864034 
L 520.511898 223.527636 
L 520.587323 222.994691 
L 520.662598 223.10177 
L 520.737724 223.137402 
L 520.88753 222.985008 
L 520.962211 223.207128 
L 521.036746 223.087193 
L 521.111135 223.180671 
L 521.259476 222.879467 
L 521.333429 223.185271 
L 521.407238 223.113531 
L 521.480904 223.131343 
L 521.554427 222.9548 
L 521.627807 223.012955 
L 521.701046 223.343527 
L 521.774144 223.196739 
L 521.847101 223.331821 
L 521.992595 222.989306 
L 522.137533 223.367168 
L 522.209794 223.084093 
L 522.425756 223.409485 
L 522.56905 223.080825 
L 522.640495 223.181671 
L 522.711805 222.710418 
L 522.782981 223.207977 
L 522.854024 223.004604 
L 522.924933 222.957235 
L 522.995711 222.218982 
L 523.066357 223.071356 
L 523.136871 222.904718 
L 523.277507 222.885185 
L 523.34763 222.066548 
L 523.487488 223.026318 
L 523.557223 222.786711 
L 523.626831 223.025945 
L 523.696311 223.000694 
L 523.765665 222.907272 
L 523.834891 222.319867 
L 523.903991 223.191132 
L 523.972966 222.545105 
L 524.041815 222.882481 
L 524.17914 222.465672 
L 524.315969 222.933482 
L 524.384198 222.42651 
L 524.452306 222.905638 
L 524.520291 222.802017 
L 524.655896 222.949201 
L 524.92566 222.498639 
L 524.992802 222.838466 
L 525.12673 222.521931 
L 525.32674 222.855477 
L 525.393176 222.466726 
L 525.459496 222.868475 
L 525.5257 222.531956 
L 525.591789 222.934474 
L 525.657762 222.690504 
L 525.723621 222.565193 
L 525.789366 222.655205 
L 525.920514 222.764552 
L 526.051211 222.553844 
L 526.11639 222.849775 
L 526.246414 222.361424 
L 526.311259 222.68922 
L 526.375993 222.629494 
L 526.440617 222.290461 
L 526.505131 222.363652 
L 526.633831 222.497045 
L 526.762095 221.963688 
L 526.826065 222.301667 
L 526.889926 222.15476 
L 526.953681 222.223027 
L 527.017328 222.508893 
L 527.080869 222.332152 
L 527.144304 222.266217 
L 527.207632 222.479923 
L 527.270855 222.127836 
L 527.333972 222.225081 
L 527.396985 222.117367 
L 527.459893 222.226524 
L 527.585397 222.202709 
L 527.772877 221.759927 
L 527.835165 222.023992 
L 527.897351 221.684681 
L 527.959435 222.083662 
L 528.021417 221.450213 
L 528.083298 222.466481 
L 528.145079 222.124687 
L 528.206759 221.865301 
L 528.268338 222.248563 
L 528.329818 222.067531 
L 528.391198 221.825949 
L 528.452479 221.894406 
L 528.513661 222.016823 
L 528.574745 221.956661 
L 528.696617 221.36852 
L 528.757407 221.705523 
L 528.818099 221.926327 
L 528.878695 221.750323 
L 529.120112 221.855586 
L 529.180227 221.799913 
L 529.240246 221.468802 
L 529.300171 221.930633 
L 529.360001 221.321166 
L 529.479379 221.992079 
L 529.657744 221.212429 
L 529.717013 221.911719 
L 529.776189 221.576619 
L 529.835274 221.412875 
L 529.894266 222.043319 
L 529.953166 221.884612 
L 530.011976 221.487978 
L 530.070694 221.88144 
L 530.129321 221.558846 
L 530.187858 221.039582 
L 530.246304 221.737824 
L 530.304661 221.661976 
L 530.421105 221.115406 
L 530.537193 221.77674 
L 530.652926 221.291989 
L 530.768307 221.395682 
L 530.940723 221.580513 
L 530.998021 221.486019 
L 531.055233 221.637153 
L 531.112358 221.386149 
L 531.169398 221.521755 
L 531.226351 221.527798 
L 531.340003 220.97735 
L 531.453315 221.439554 
L 531.509844 221.230368 
L 531.566289 221.48728 
L 531.62265 221.273416 
L 531.678927 220.996899 
L 531.735121 221.194466 
L 531.903205 221.395872 
L 532.237153 220.874633 
L 532.292526 221.420298 
L 532.347818 221.180176 
L 532.458161 221.432535 
L 532.568184 221.103851 
L 532.677889 221.403668 
L 532.787277 220.504773 
L 532.95077 221.143219 
L 533.005111 221.376656 
L 533.11356 221.023935 
L 533.167669 221.044538 
L 533.275654 221.068195 
L 533.329532 220.61581 
L 533.383334 220.945207 
L 533.437059 220.975867 
L 533.544281 221.003831 
L 533.597779 220.581438 
L 533.651201 221.158525 
L 533.704548 221.049209 
L 533.75782 220.599021 
L 533.811017 220.742017 
L 533.86414 220.76527 
L 533.970163 220.684164 
L 534.07589 220.918235 
L 534.128643 220.612407 
L 534.181323 220.711722 
L 534.23393 220.800101 
L 534.286463 220.530992 
L 534.338925 220.582913 
L 534.391313 220.999199 
L 534.44363 220.4949 
L 534.548046 220.519469 
L 534.600147 220.450655 
L 534.652176 220.719867 
L 534.704134 220.571152 
L 534.75602 220.413476 
L 534.911256 220.791584 
L 534.96286 220.964447 
L 535.117252 219.818902 
L 535.219832 220.951948 
L 535.373184 220.196629 
L 535.424163 220.661387 
L 535.475074 220.415015 
L 535.525917 220.397702 
L 535.576692 220.129211 
L 535.678038 220.876608 
L 535.728609 220.09783 
L 535.779113 220.551136 
L 535.87992 220.088916 
L 535.930223 220.53146 
L 536.03063 220.457665 
L 536.180743 220.557543 
L 536.230648 220.647453 
L 536.280488 220.457776 
L 536.429617 219.688967 
L 536.479196 220.472432 
L 536.578161 220.332838 
L 536.627547 220.61466 
L 536.676868 220.455342 
L 536.726125 219.813993 
L 536.775319 220.313653 
L 536.873514 220.602954 
L 536.922517 219.954167 
L 536.971456 220.434897 
L 537.069146 220.227654 
L 537.166584 220.466928 
L 537.263773 220.077139 
L 537.312274 220.254214 
L 537.50566 219.751595 
L 537.553853 220.099202 
L 537.650055 220.058946 
L 537.698065 219.607829 
L 537.746013 219.900493 
L 537.793902 220.220397 
L 537.889497 220.186232 
L 537.937205 219.933286 
L 537.984853 220.152916 
L 538.127437 220.028905 
L 538.174846 220.080961 
L 538.222196 219.571333 
L 538.269487 219.648156 
L 538.316719 220.129743 
L 538.363892 220.041578 
L 538.411007 219.792145 
L 538.458063 220.213982 
L 538.505061 219.905933 
L 538.552001 219.654081 
L 538.598882 219.728049 
L 538.645706 219.827356 
L 538.692472 219.658141 
L 538.73918 219.880222 
L 538.785831 220.24825 
L 538.832424 220.014804 
L 538.87896 219.815984 
L 538.925439 219.990584 
L 538.971862 220.013686 
L 539.110788 219.480059 
L 539.249208 220.109305 
L 539.295235 219.938885 
L 539.432984 219.662606 
L 539.478789 219.684177 
L 539.524539 219.705566 
L 539.615874 219.903776 
L 539.661459 219.877748 
L 539.797886 219.488696 
L 539.843252 219.836294 
L 539.933823 219.759708 
L 540.069275 219.532259 
L 540.114318 219.650726 
L 540.159308 219.064123 
L 540.204245 219.280414 
L 540.249128 219.721261 
L 540.293958 219.385265 
L 540.338735 219.199887 
L 540.428132 219.550737 
L 540.472751 219.460685 
L 540.517317 219.22371 
L 540.561832 219.551395 
L 540.606294 219.270096 
L 540.650704 219.250508 
L 540.739368 219.770946 
L 540.783623 219.58675 
L 540.827826 219.143064 
L 540.871977 219.158592 
L 540.916077 219.39038 
L 540.960126 219.002438 
L 541.04807 219.193891 
L 541.223349 218.599857 
L 541.354279 219.470741 
L 541.484758 218.888269 
L 541.571495 219.252958 
L 541.658034 218.857935 
L 541.701229 218.920761 
L 541.744376 219.159528 
L 541.787473 219.106591 
L 541.830521 218.503103 
L 541.873521 218.72984 
L 541.916472 218.947107 
L 541.959374 218.37002 
L 542.002228 218.988536 
L 542.045033 219.051529 
L 542.08779 218.686102 
L 542.130499 218.773458 
L 542.17316 219.025683 
L 542.215773 218.801842 
L 542.258338 218.777812 
L 542.300855 218.910602 
L 542.343325 218.633372 
L 542.385747 218.834 
L 542.428122 218.871322 
L 542.470449 218.779453 
L 542.554962 218.658797 
L 542.597148 218.91042 
L 542.639288 218.777035 
L 542.765425 218.371463 
L 542.807377 218.984682 
L 542.891144 218.756693 
L 542.932958 218.803436 
L 543.016447 218.398943 
L 543.058123 218.578524 
L 543.099753 218.705501 
L 543.141338 218.596851 
L 543.265818 218.450627 
L 543.307221 218.6082 
L 543.431159 218.305671 
L 543.472381 218.633641 
L 543.554693 218.44525 
L 543.595781 218.608739 
L 543.636826 218.347394 
L 543.677825 218.270689 
L 543.718781 218.454957 
L 543.759692 218.20182 
L 543.800559 218.364802 
L 543.882162 218.564772 
L 543.922897 218.180494 
L 544.004237 218.220782 
L 544.085403 218.423036 
L 544.125921 218.330058 
L 544.206826 218.175395 
L 544.247215 218.288303 
L 544.488645 217.865958 
L 544.528734 218.211669 
L 544.568781 217.98648 
L 544.608785 217.442583 
L 544.648748 217.855569 
L 544.847931 218.204135 
L 544.927312 217.750719 
L 544.96694 218.148042 
L 545.006527 217.947334 
L 545.046073 217.685069 
L 545.085577 217.978716 
L 545.12504 218.137724 
L 545.164463 217.620823 
L 545.243184 217.88044 
L 545.400139 217.722732 
L 545.439276 217.876577 
L 545.478373 217.641895 
L 545.51743 217.594628 
L 545.556446 217.718917 
L 545.673255 217.918903 
L 545.712112 217.876871 
L 545.750929 217.49226 
L 545.789706 217.793251 
L 545.828443 217.982388 
L 545.867141 217.876308 
L 545.944418 217.643735 
L 545.982998 217.861089 
L 546.136925 217.458396 
L 546.17531 217.737673 
L 546.251962 217.666305 
L 546.366651 217.540526 
L 546.404803 217.762488 
L 546.442918 217.661452 
L 546.480994 217.388171 
L 546.519031 217.846544 
L 546.594993 217.847766 
L 546.70865 217.267745 
L 546.74646 217.762591 
L 546.821967 217.605676 
L 547.01008 217.459285 
L 547.122501 217.792751 
L 547.197264 217.261115 
L 547.23459 217.619491 
L 547.271879 217.791086 
L 547.309132 217.731138 
L 547.383528 216.986549 
L 547.420671 217.345599 
L 547.457778 217.583748 
L 547.494849 217.438197 
L 547.531883 217.104223 
L 547.568881 217.580195 
L 547.605844 217.633806 
L 547.67966 217.374388 
L 547.716514 217.454725 
L 547.753333 217.600711 
L 547.790116 217.313028 
L 547.826863 217.33299 
L 547.863575 217.187733 
L 547.900251 217.428395 
L 547.936891 217.612528 
L 547.973497 217.454233 
L 548.119565 217.344021 
L 548.155995 217.269521 
L 548.192389 217.524681 
L 548.228749 217.361477 
L 548.265073 217.079218 
L 548.301363 217.441504 
L 548.337618 217.32812 
L 548.410025 217.119752 
L 548.446176 217.3592 
L 548.482293 217.04476 
L 548.518376 216.99425 
L 548.626418 217.500524 
L 548.662364 217.337812 
L 548.698276 216.839317 
L 548.734153 217.162743 
L 548.769997 217.496313 
L 548.805807 217.175583 
L 548.841583 217.032348 
L 548.877326 217.345885 
L 548.94871 217.267634 
L 548.984351 216.963495 
L 549.019959 217.133305 
L 549.055534 217.399702 
L 549.126584 217.122979 
L 549.1975 217.40224 
L 549.232909 217.163655 
L 549.268284 216.976184 
L 549.303627 217.170246 
L 549.338936 217.231438 
L 549.409457 216.899939 
L 549.444668 216.918156 
L 549.514993 217.542992 
L 549.550106 217.019723 
L 549.585187 216.755372 
L 549.620236 217.176812 
L 549.655252 217.042063 
L 549.690235 217.249409 
L 549.725187 216.915507 
L 549.760106 217.131846 
L 549.899463 217.293313 
L 549.934222 216.68203 
L 550.003645 216.977714 
L 550.072941 217.239456 
L 550.107542 217.012284 
L 550.176648 216.718193 
L 550.211154 217.097451 
L 550.280072 216.927403 
L 550.348866 216.455159 
L 550.383215 217.301339 
L 550.451822 216.68835 
L 550.520304 217.05204 
L 550.622796 216.882032 
L 550.656899 216.893642 
L 550.793003 216.647801 
L 550.826953 216.797753 
L 550.894762 216.727496 
L 550.962449 216.526859 
L 551.030016 216.562801 
L 551.063754 216.624184 
L 551.097463 216.265189 
L 551.16479 216.50804 
L 551.198408 216.551325 
L 551.231997 216.100787 
L 551.299086 216.615571 
L 551.332586 216.660665 
L 551.366056 216.531404 
L 551.532965 216.075401 
L 551.599524 216.542546 
L 551.665966 216.413856 
L 551.732291 215.877636 
L 551.765411 216.091786 
L 551.798501 216.525789 
L 551.864596 216.075005 
L 551.930575 216.525884 
L 552.095023 216.428829 
L 552.324057 216.047628 
L 552.48681 216.340093 
L 552.551717 215.991908 
L 552.584128 216.045836 
L 552.616512 216.313312 
L 552.648868 215.993407 
L 552.681196 216.088265 
L 552.810235 215.788615 
L 552.745771 216.139592 
L 552.842427 215.846183 
L 552.874591 216.033647 
L 552.938837 215.782651 
L 553.035002 216.18344 
L 553.098977 216.026311 
L 553.194738 215.83734 
L 553.353803 216.188698 
L 553.512204 215.802541 
L 553.606928 215.84378 
L 553.63845 215.618543 
L 553.732859 215.769827 
L 553.764276 215.63944 
L 553.795668 215.902816 
L 553.827034 215.831948 
L 553.983473 215.520981 
L 554.014684 215.091419 
L 554.045869 215.657887 
L 554.077028 215.612214 
L 554.108162 215.579302 
L 554.13927 215.719389 
L 554.20141 215.511995 
L 554.325385 215.612254 
L 554.387221 215.272126 
L 554.448956 215.408731 
L 554.479786 215.526905 
L 554.572125 215.487791 
" clip-path="url(#p2cbe2b4472)" style="fill: none; stroke: #008000; stroke-width: 1.5; stroke-linecap: square"/>
   </g>
   <g id="patch_3">
    <path d="M 197.452125 311.6435 
L 197.452125 45.5315 
" style="fill: none; stroke: #000000; stroke-width: 0.8; stroke-linejoin: miter; stroke-linecap: square"/>
   </g>
   <g id="patch_4">
    <path d="M 554.572125 311.6435 
L 554.572125 45.5315 
" style="fill: none; stroke: #000000; stroke-width: 0.8; stroke-linejoin: miter; stroke-linecap: square"/>
   </g>
   <g id="patch_5">
    <path d="M 197.452125 311.6435 
L 554.572125 311.6435 
" style="fill: none; stroke: #000000; stroke-width: 0.8; stroke-linejoin: miter; stroke-linecap: square"/>
   </g>
   <g id="patch_6">
    <path d="M 197.452125 45.5315 
L 554.572125 45.5315 
" style="fill: none; stroke: #000000; stroke-width: 0.8; stroke-linejoin: miter; stroke-linecap: square"/>
   </g>
   <g id="text_12">
    <!-- Loss of the 27_05_25_CIFAR10_torch_model_(1024+2048.3+1)_e-h -->
    <g transform="translate(7.2 25.5315) scale(0.264 -0.264)">
     <defs>
      <path id="TimesNewRomanPSMT-20" transform="scale(0.015625)"/>
      <path id="TimesNewRomanPSMT-66" d="M 1319 2638 
L 1319 756 
Q 1319 356 1406 250 
Q 1522 113 1716 113 
L 1975 113 
L 1975 0 
L 266 0 
L 266 113 
L 394 113 
Q 519 113 622 175 
Q 725 238 764 344 
Q 803 450 803 756 
L 803 2638 
L 247 2638 
L 247 2863 
L 803 2863 
L 803 3050 
Q 803 3478 940 3775 
Q 1078 4072 1361 4255 
Q 1644 4438 1997 4438 
Q 2325 4438 2600 4225 
Q 2781 4084 2781 3909 
Q 2781 3816 2700 3733 
Q 2619 3650 2525 3650 
Q 2453 3650 2373 3701 
Q 2294 3753 2178 3923 
Q 2063 4094 1966 4153 
Q 1869 4213 1750 4213 
Q 1606 4213 1506 4136 
Q 1406 4059 1362 3898 
Q 1319 3738 1319 3069 
L 1319 2863 
L 2056 2863 
L 2056 2638 
L 1319 2638 
z
" transform="scale(0.015625)"/>
      <path id="TimesNewRomanPSMT-74" d="M 1031 3803 
L 1031 2863 
L 1700 2863 
L 1700 2644 
L 1031 2644 
L 1031 788 
Q 1031 509 1111 412 
Q 1191 316 1316 316 
Q 1419 316 1516 380 
Q 1613 444 1666 569 
L 1788 569 
Q 1678 263 1478 108 
Q 1278 -47 1066 -47 
Q 922 -47 784 33 
Q 647 113 581 261 
Q 516 409 516 719 
L 516 2644 
L 63 2644 
L 63 2747 
Q 234 2816 414 2980 
Q 594 3144 734 3369 
Q 806 3488 934 3803 
L 1031 3803 
z
" transform="scale(0.015625)"/>
      <path id="TimesNewRomanPSMT-68" d="M 1041 4444 
L 1041 2350 
Q 1388 2731 1591 2839 
Q 1794 2947 1997 2947 
Q 2241 2947 2416 2812 
Q 2591 2678 2675 2391 
Q 2734 2191 2734 1659 
L 2734 647 
Q 2734 375 2778 275 
Q 2809 200 2884 156 
Q 2959 113 3159 113 
L 3159 0 
L 1753 0 
L 1753 113 
L 1819 113 
Q 2019 113 2097 173 
Q 2175 234 2206 353 
Q 2216 403 2216 647 
L 2216 1659 
Q 2216 2128 2167 2275 
Q 2119 2422 2012 2495 
Q 1906 2569 1756 2569 
Q 1603 2569 1437 2487 
Q 1272 2406 1041 2159 
L 1041 647 
Q 1041 353 1073 281 
Q 1106 209 1195 161 
Q 1284 113 1503 113 
L 1503 0 
L 84 0 
L 84 113 
Q 275 113 384 172 
Q 447 203 484 290 
Q 522 378 522 647 
L 522 3238 
Q 522 3728 498 3840 
Q 475 3953 426 3993 
Q 378 4034 297 4034 
Q 231 4034 84 3984 
L 41 4094 
L 897 4444 
L 1041 4444 
z
" transform="scale(0.015625)"/>
      <path id="TimesNewRomanPSMT-65" d="M 681 1784 
Q 678 1147 991 784 
Q 1303 422 1725 422 
Q 2006 422 2214 576 
Q 2422 731 2563 1106 
L 2659 1044 
Q 2594 616 2278 264 
Q 1963 -88 1488 -88 
Q 972 -88 605 314 
Q 238 716 238 1394 
Q 238 2128 614 2539 
Q 991 2950 1559 2950 
Q 2041 2950 2350 2633 
Q 2659 2316 2659 1784 
L 681 1784 
z
M 681 1966 
L 2006 1966 
Q 1991 2241 1941 2353 
Q 1863 2528 1708 2628 
Q 1553 2728 1384 2728 
Q 1125 2728 920 2526 
Q 716 2325 681 1966 
z
" transform="scale(0.015625)"/>
      <path id="TimesNewRomanPSMT-37" d="M 644 4238 
L 2916 4238 
L 2916 4119 
L 1503 -88 
L 1153 -88 
L 2419 3728 
L 1253 3728 
Q 900 3728 750 3644 
Q 488 3500 328 3200 
L 238 3234 
L 644 4238 
z
" transform="scale(0.015625)"/>
      <path id="TimesNewRomanPSMT-5f" d="M 3256 -1381 
L -53 -1381 
L -53 -1119 
L 3256 -1119 
L 3256 -1381 
z
" transform="scale(0.015625)"/>
      <path id="TimesNewRomanPSMT-43" d="M 3853 4334 
L 3950 2894 
L 3853 2894 
Q 3659 3541 3300 3825 
Q 2941 4109 2438 4109 
Q 2016 4109 1675 3895 
Q 1334 3681 1139 3212 
Q 944 2744 944 2047 
Q 944 1472 1128 1050 
Q 1313 628 1683 403 
Q 2053 178 2528 178 
Q 2941 178 3256 354 
Q 3572 531 3950 1056 
L 4047 994 
Q 3728 428 3303 165 
Q 2878 -97 2294 -97 
Q 1241 -97 663 684 
Q 231 1266 231 2053 
Q 231 2688 515 3219 
Q 800 3750 1298 4042 
Q 1797 4334 2388 4334 
Q 2847 4334 3294 4109 
Q 3425 4041 3481 4041 
Q 3566 4041 3628 4100 
Q 3709 4184 3744 4334 
L 3853 4334 
z
" transform="scale(0.015625)"/>
      <path id="TimesNewRomanPSMT-49" d="M 1975 116 
L 1975 0 
L 159 0 
L 159 116 
L 309 116 
Q 572 116 691 269 
Q 766 369 766 750 
L 766 3488 
Q 766 3809 725 3913 
Q 694 3991 597 4047 
Q 459 4122 309 4122 
L 159 4122 
L 159 4238 
L 1975 4238 
L 1975 4122 
L 1822 4122 
Q 1563 4122 1444 3969 
Q 1366 3869 1366 3488 
L 1366 750 
Q 1366 428 1406 325 
Q 1438 247 1538 191 
Q 1672 116 1822 116 
L 1975 116 
z
" transform="scale(0.015625)"/>
      <path id="TimesNewRomanPSMT-46" d="M 1309 4006 
L 1309 2341 
L 2081 2341 
Q 2347 2341 2470 2458 
Q 2594 2575 2634 2922 
L 2750 2922 
L 2750 1488 
L 2634 1488 
Q 2631 1734 2570 1850 
Q 2509 1966 2401 2023 
Q 2294 2081 2081 2081 
L 1309 2081 
L 1309 750 
Q 1309 428 1350 325 
Q 1381 247 1481 191 
Q 1619 116 1769 116 
L 1922 116 
L 1922 0 
L 103 0 
L 103 116 
L 253 116 
Q 516 116 634 269 
Q 709 369 709 750 
L 709 3488 
Q 709 3809 669 3913 
Q 638 3991 541 4047 
Q 406 4122 253 4122 
L 103 4122 
L 103 4238 
L 3256 4238 
L 3297 3306 
L 3188 3306 
Q 3106 3603 2998 3742 
Q 2891 3881 2733 3943 
Q 2575 4006 2244 4006 
L 1309 4006 
z
" transform="scale(0.015625)"/>
      <path id="TimesNewRomanPSMT-41" d="M 2928 1419 
L 1288 1419 
L 1000 750 
Q 894 503 894 381 
Q 894 284 986 211 
Q 1078 138 1384 116 
L 1384 0 
L 50 0 
L 50 116 
Q 316 163 394 238 
Q 553 388 747 847 
L 2238 4334 
L 2347 4334 
L 3822 809 
Q 4000 384 4145 257 
Q 4291 131 4550 116 
L 4550 0 
L 2878 0 
L 2878 116 
Q 3131 128 3220 200 
Q 3309 272 3309 375 
Q 3309 513 3184 809 
L 2928 1419 
z
M 2841 1650 
L 2122 3363 
L 1384 1650 
L 2841 1650 
z
" transform="scale(0.015625)"/>
      <path id="TimesNewRomanPSMT-52" d="M 4325 0 
L 3194 0 
L 1759 1981 
Q 1600 1975 1500 1975 
Q 1459 1975 1412 1976 
Q 1366 1978 1316 1981 
L 1316 750 
Q 1316 350 1403 253 
Q 1522 116 1759 116 
L 1925 116 
L 1925 0 
L 109 0 
L 109 116 
L 269 116 
Q 538 116 653 291 
Q 719 388 719 750 
L 719 3488 
Q 719 3888 631 3984 
Q 509 4122 269 4122 
L 109 4122 
L 109 4238 
L 1653 4238 
Q 2328 4238 2648 4139 
Q 2969 4041 3192 3777 
Q 3416 3513 3416 3147 
Q 3416 2756 3161 2468 
Q 2906 2181 2372 2063 
L 3247 847 
Q 3547 428 3762 290 
Q 3978 153 4325 116 
L 4325 0 
z
M 1316 2178 
Q 1375 2178 1419 2176 
Q 1463 2175 1491 2175 
Q 2097 2175 2405 2437 
Q 2713 2700 2713 3106 
Q 2713 3503 2464 3751 
Q 2216 4000 1806 4000 
Q 1625 4000 1316 3941 
L 1316 2178 
z
" transform="scale(0.015625)"/>
      <path id="TimesNewRomanPSMT-72" d="M 1038 2947 
L 1038 2303 
Q 1397 2947 1775 2947 
Q 1947 2947 2059 2842 
Q 2172 2738 2172 2600 
Q 2172 2478 2090 2393 
Q 2009 2309 1897 2309 
Q 1788 2309 1652 2417 
Q 1516 2525 1450 2525 
Q 1394 2525 1328 2463 
Q 1188 2334 1038 2041 
L 1038 669 
Q 1038 431 1097 309 
Q 1138 225 1241 169 
Q 1344 113 1538 113 
L 1538 0 
L 72 0 
L 72 113 
Q 291 113 397 181 
Q 475 231 506 341 
Q 522 394 522 644 
L 522 1753 
Q 522 2253 501 2348 
Q 481 2444 426 2487 
Q 372 2531 291 2531 
Q 194 2531 72 2484 
L 41 2597 
L 906 2947 
L 1038 2947 
z
" transform="scale(0.015625)"/>
      <path id="TimesNewRomanPSMT-63" d="M 2631 1088 
Q 2516 522 2178 217 
Q 1841 -88 1431 -88 
Q 944 -88 581 321 
Q 219 731 219 1428 
Q 219 2103 620 2525 
Q 1022 2947 1584 2947 
Q 2006 2947 2278 2723 
Q 2550 2500 2550 2259 
Q 2550 2141 2473 2067 
Q 2397 1994 2259 1994 
Q 2075 1994 1981 2113 
Q 1928 2178 1911 2362 
Q 1894 2547 1784 2644 
Q 1675 2738 1481 2738 
Q 1169 2738 978 2506 
Q 725 2200 725 1697 
Q 725 1184 976 792 
Q 1228 400 1656 400 
Q 1963 400 2206 609 
Q 2378 753 2541 1131 
L 2631 1088 
z
" transform="scale(0.015625)"/>
      <path id="TimesNewRomanPSMT-6d" d="M 1050 2338 
Q 1363 2650 1419 2697 
Q 1559 2816 1721 2881 
Q 1884 2947 2044 2947 
Q 2313 2947 2506 2790 
Q 2700 2634 2766 2338 
Q 3088 2713 3309 2830 
Q 3531 2947 3766 2947 
Q 3994 2947 4170 2830 
Q 4347 2713 4450 2447 
Q 4519 2266 4519 1878 
L 4519 647 
Q 4519 378 4559 278 
Q 4591 209 4675 161 
Q 4759 113 4950 113 
L 4950 0 
L 3538 0 
L 3538 113 
L 3597 113 
Q 3781 113 3884 184 
Q 3956 234 3988 344 
Q 4000 397 4000 647 
L 4000 1878 
Q 4000 2228 3916 2372 
Q 3794 2572 3525 2572 
Q 3359 2572 3192 2489 
Q 3025 2406 2788 2181 
L 2781 2147 
L 2788 2013 
L 2788 647 
Q 2788 353 2820 281 
Q 2853 209 2943 161 
Q 3034 113 3253 113 
L 3253 0 
L 1806 0 
L 1806 113 
Q 2044 113 2133 169 
Q 2222 225 2256 338 
Q 2272 391 2272 647 
L 2272 1878 
Q 2272 2228 2169 2381 
Q 2031 2581 1784 2581 
Q 1616 2581 1450 2491 
Q 1191 2353 1050 2181 
L 1050 647 
Q 1050 366 1089 281 
Q 1128 197 1204 155 
Q 1281 113 1516 113 
L 1516 0 
L 100 0 
L 100 113 
Q 297 113 375 155 
Q 453 197 493 289 
Q 534 381 534 647 
L 534 1741 
Q 534 2213 506 2350 
Q 484 2453 437 2492 
Q 391 2531 309 2531 
Q 222 2531 100 2484 
L 53 2597 
L 916 2947 
L 1050 2947 
L 1050 2338 
z
" transform="scale(0.015625)"/>
      <path id="TimesNewRomanPSMT-64" d="M 2222 322 
Q 2013 103 1813 7 
Q 1613 -88 1381 -88 
Q 913 -88 563 304 
Q 213 697 213 1313 
Q 213 1928 600 2439 
Q 988 2950 1597 2950 
Q 1975 2950 2222 2709 
L 2222 3238 
Q 2222 3728 2198 3840 
Q 2175 3953 2125 3993 
Q 2075 4034 2000 4034 
Q 1919 4034 1784 3984 
L 1744 4094 
L 2597 4444 
L 2738 4444 
L 2738 1134 
Q 2738 631 2761 520 
Q 2784 409 2836 365 
Q 2888 322 2956 322 
Q 3041 322 3181 375 
L 3216 266 
L 2366 -88 
L 2222 -88 
L 2222 322 
z
M 2222 541 
L 2222 2016 
Q 2203 2228 2109 2403 
Q 2016 2578 1861 2667 
Q 1706 2756 1559 2756 
Q 1284 2756 1069 2509 
Q 784 2184 784 1559 
Q 784 928 1059 592 
Q 1334 256 1672 256 
Q 1956 256 2222 541 
z
" transform="scale(0.015625)"/>
      <path id="TimesNewRomanPSMT-6c" d="M 1184 4444 
L 1184 647 
Q 1184 378 1223 290 
Q 1263 203 1344 158 
Q 1425 113 1647 113 
L 1647 0 
L 244 0 
L 244 113 
Q 441 113 512 153 
Q 584 194 625 287 
Q 666 381 666 647 
L 666 3247 
Q 666 3731 644 3842 
Q 622 3953 573 3993 
Q 525 4034 450 4034 
Q 369 4034 244 3984 
L 191 4094 
L 1044 4444 
L 1184 4444 
z
" transform="scale(0.015625)"/>
      <path id="TimesNewRomanPSMT-28" d="M 1988 -1253 
L 1988 -1369 
Q 1516 -1131 1200 -813 
Q 750 -359 506 256 
Q 263 872 263 1534 
Q 263 2503 741 3301 
Q 1219 4100 1988 4444 
L 1988 4313 
Q 1603 4100 1356 3731 
Q 1109 3363 987 2797 
Q 866 2231 866 1616 
Q 866 947 969 400 
Q 1050 -31 1165 -292 
Q 1281 -553 1476 -793 
Q 1672 -1034 1988 -1253 
z
" transform="scale(0.015625)"/>
      <path id="TimesNewRomanPSMT-2b" d="M 1672 441 
L 1672 2000 
L 116 2000 
L 116 2256 
L 1672 2256 
L 1672 3809 
L 1922 3809 
L 1922 2256 
L 3484 2256 
L 3484 2000 
L 1922 2000 
L 1922 441 
L 1672 441 
z
" transform="scale(0.015625)"/>
      <path id="TimesNewRomanPSMT-38" d="M 1228 2134 
Q 725 2547 579 2797 
Q 434 3047 434 3316 
Q 434 3728 753 4026 
Q 1072 4325 1600 4325 
Q 2113 4325 2425 4047 
Q 2738 3769 2738 3413 
Q 2738 3175 2569 2928 
Q 2400 2681 1866 2347 
Q 2416 1922 2594 1678 
Q 2831 1359 2831 1006 
Q 2831 559 2490 242 
Q 2150 -75 1597 -75 
Q 994 -75 656 303 
Q 388 606 388 966 
Q 388 1247 577 1523 
Q 766 1800 1228 2134 
z
M 1719 2469 
Q 2094 2806 2194 3001 
Q 2294 3197 2294 3444 
Q 2294 3772 2109 3958 
Q 1925 4144 1606 4144 
Q 1288 4144 1088 3959 
Q 888 3775 888 3528 
Q 888 3366 970 3203 
Q 1053 3041 1206 2894 
L 1719 2469 
z
M 1375 2016 
Q 1116 1797 991 1539 
Q 866 1281 866 981 
Q 866 578 1086 336 
Q 1306 94 1647 94 
Q 1984 94 2187 284 
Q 2391 475 2391 747 
Q 2391 972 2272 1150 
Q 2050 1481 1375 2016 
z
" transform="scale(0.015625)"/>
      <path id="TimesNewRomanPSMT-29" d="M 144 4313 
L 144 4444 
Q 619 4209 934 3891 
Q 1381 3434 1625 2820 
Q 1869 2206 1869 1541 
Q 1869 572 1392 -226 
Q 916 -1025 144 -1369 
L 144 -1253 
Q 528 -1038 776 -670 
Q 1025 -303 1145 264 
Q 1266 831 1266 1447 
Q 1266 2113 1163 2663 
Q 1084 3094 967 3353 
Q 850 3613 656 3853 
Q 463 4094 144 4313 
z
" transform="scale(0.015625)"/>
      <path id="TimesNewRomanPSMT-2d" d="M 259 1672 
L 1875 1672 
L 1875 1200 
L 259 1200 
L 259 1672 
z
" transform="scale(0.015625)"/>
     </defs>
     <use xlink:href="#TimesNewRomanPSMT-4c"/>
     <use xlink:href="#TimesNewRomanPSMT-6f" transform="translate(61.083984 0)"/>
     <use xlink:href="#TimesNewRomanPSMT-73" transform="translate(111.083984 0)"/>
     <use xlink:href="#TimesNewRomanPSMT-73" transform="translate(150 0)"/>
     <use xlink:href="#TimesNewRomanPSMT-20" transform="translate(188.916016 0)"/>
     <use xlink:href="#TimesNewRomanPSMT-6f" transform="translate(213.916016 0)"/>
     <use xlink:href="#TimesNewRomanPSMT-66" transform="translate(263.916016 0)"/>
     <use xlink:href="#TimesNewRomanPSMT-20" transform="translate(297.216797 0)"/>
     <use xlink:href="#TimesNewRomanPSMT-74" transform="translate(322.216797 0)"/>
     <use xlink:href="#TimesNewRomanPSMT-68" transform="translate(350 0)"/>
     <use xlink:href="#TimesNewRomanPSMT-65" transform="translate(400 0)"/>
     <use xlink:href="#TimesNewRomanPSMT-20" transform="translate(444.384766 0)"/>
     <use xlink:href="#TimesNewRomanPSMT-32" transform="translate(469.384766 0)"/>
     <use xlink:href="#TimesNewRomanPSMT-37" transform="translate(519.384766 0)"/>
     <use xlink:href="#TimesNewRomanPSMT-5f" transform="translate(569.384766 0)"/>
     <use xlink:href="#TimesNewRomanPSMT-30" transform="translate(619.384766 0)"/>
     <use xlink:href="#TimesNewRomanPSMT-35" transform="translate(669.384766 0)"/>
     <use xlink:href="#TimesNewRomanPSMT-5f" transform="translate(719.384766 0)"/>
     <use xlink:href="#TimesNewRomanPSMT-32" transform="translate(769.384766 0)"/>
     <use xlink:href="#TimesNewRomanPSMT-35" transform="translate(819.384766 0)"/>
     <use xlink:href="#TimesNewRomanPSMT-5f" transform="translate(869.384766 0)"/>
     <use xlink:href="#TimesNewRomanPSMT-43" transform="translate(919.384766 0)"/>
     <use xlink:href="#TimesNewRomanPSMT-49" transform="translate(986.083984 0)"/>
     <use xlink:href="#TimesNewRomanPSMT-46" transform="translate(1019.384766 0)"/>
     <use xlink:href="#TimesNewRomanPSMT-41" transform="translate(1067.625 0)"/>
     <use xlink:href="#TimesNewRomanPSMT-52" transform="translate(1139.841797 0)"/>
     <use xlink:href="#TimesNewRomanPSMT-31" transform="translate(1206.541016 0)"/>
     <use xlink:href="#TimesNewRomanPSMT-30" transform="translate(1256.541016 0)"/>
     <use xlink:href="#TimesNewRomanPSMT-5f" transform="translate(1306.541016 0)"/>
     <use xlink:href="#TimesNewRomanPSMT-74" transform="translate(1356.541016 0)"/>
     <use xlink:href="#TimesNewRomanPSMT-6f" transform="translate(1384.324219 0)"/>
     <use xlink:href="#TimesNewRomanPSMT-72" transform="translate(1434.324219 0)"/>
     <use xlink:href="#TimesNewRomanPSMT-63" transform="translate(1467.625 0)"/>
     <use xlink:href="#TimesNewRomanPSMT-68" transform="translate(1512.009766 0)"/>
     <use xlink:href="#TimesNewRomanPSMT-5f" transform="translate(1562.009766 0)"/>
     <use xlink:href="#TimesNewRomanPSMT-6d" transform="translate(1612.009766 0)"/>
     <use xlink:href="#TimesNewRomanPSMT-6f" transform="translate(1689.792969 0)"/>
     <use xlink:href="#TimesNewRomanPSMT-64" transform="translate(1739.792969 0)"/>
     <use xlink:href="#TimesNewRomanPSMT-65" transform="translate(1789.792969 0)"/>
     <use xlink:href="#TimesNewRomanPSMT-6c" transform="translate(1834.177734 0)"/>
     <use xlink:href="#TimesNewRomanPSMT-5f" transform="translate(1861.960938 0)"/>
     <use xlink:href="#TimesNewRomanPSMT-28" transform="translate(1911.960938 0)"/>
     <use xlink:href="#TimesNewRomanPSMT-31" transform="translate(1945.261719 0)"/>
     <use xlink:href="#TimesNewRomanPSMT-30" transform="translate(1995.261719 0)"/>
     <use xlink:href="#TimesNewRomanPSMT-32" transform="translate(2045.261719 0)"/>
     <use xlink:href="#TimesNewRomanPSMT-34" transform="translate(2095.261719 0)"/>
     <use xlink:href="#TimesNewRomanPSMT-2b" transform="translate(2145.261719 0)"/>
     <use xlink:href="#TimesNewRomanPSMT-32" transform="translate(2201.658203 0)"/>
     <use xlink:href="#TimesNewRomanPSMT-30" transform="translate(2251.658203 0)"/>
     <use xlink:href="#TimesNewRomanPSMT-34" transform="translate(2301.658203 0)"/>
     <use xlink:href="#TimesNewRomanPSMT-38" transform="translate(2351.658203 0)"/>
     <use xlink:href="#TimesNewRomanPSMT-2e" transform="translate(2401.658203 0)"/>
     <use xlink:href="#TimesNewRomanPSMT-33" transform="translate(2426.658203 0)"/>
     <use xlink:href="#TimesNewRomanPSMT-2b" transform="translate(2476.658203 0)"/>
     <use xlink:href="#TimesNewRomanPSMT-31" transform="translate(2533.054688 0)"/>
     <use xlink:href="#TimesNewRomanPSMT-29" transform="translate(2583.054688 0)"/>
     <use xlink:href="#TimesNewRomanPSMT-5f" transform="translate(2616.355469 0)"/>
     <use xlink:href="#TimesNewRomanPSMT-65" transform="translate(2666.355469 0)"/>
     <use xlink:href="#TimesNewRomanPSMT-2d" transform="translate(2710.740234 0)"/>
     <use xlink:href="#TimesNewRomanPSMT-68" transform="translate(2744.041016 0)"/>
    </g>
   </g>
   <g id="legend_1">
    <g id="patch_7">
     <path d="M 338.614625 125.384625 
L 539.172125 125.384625 
Q 543.572125 125.384625 543.572125 120.984625 
L 543.572125 60.9315 
Q 543.572125 56.5315 539.172125 56.5315 
L 338.614625 56.5315 
Q 334.214625 56.5315 334.214625 60.9315 
L 334.214625 120.984625 
Q 334.214625 125.384625 338.614625 125.384625 
z
" style="fill: #ffffff; opacity: 0.8; stroke: #cccccc; stroke-linejoin: miter"/>
    </g>
    <g id="line2d_21">
     <path d="M 343.014625 73.0315 
L 365.014625 73.0315 
L 387.014625 73.0315 
" style="fill: none; stroke: #ffa500; stroke-width: 1.5; stroke-linecap: square"/>
    </g>
    <g id="text_13">
     <!-- Training loss -->
     <g transform="translate(404.614625 80.7315) scale(0.22 -0.22)">
      <defs>
       <path id="TimesNewRomanPSMT-54" d="M 3703 4238 
L 3750 3244 
L 3631 3244 
Q 3597 3506 3538 3619 
Q 3441 3800 3280 3886 
Q 3119 3972 2856 3972 
L 2259 3972 
L 2259 734 
Q 2259 344 2344 247 
Q 2463 116 2709 116 
L 2856 116 
L 2856 0 
L 1059 0 
L 1059 116 
L 1209 116 
Q 1478 116 1591 278 
Q 1659 378 1659 734 
L 1659 3972 
L 1150 3972 
Q 853 3972 728 3928 
Q 566 3869 450 3700 
Q 334 3531 313 3244 
L 194 3244 
L 244 4238 
L 3703 4238 
z
" transform="scale(0.015625)"/>
       <path id="TimesNewRomanPSMT-61" d="M 1822 413 
Q 1381 72 1269 19 
Q 1100 -59 909 -59 
Q 613 -59 420 144 
Q 228 347 228 678 
Q 228 888 322 1041 
Q 450 1253 767 1440 
Q 1084 1628 1822 1897 
L 1822 2009 
Q 1822 2438 1686 2597 
Q 1550 2756 1291 2756 
Q 1094 2756 978 2650 
Q 859 2544 859 2406 
L 866 2225 
Q 866 2081 792 2003 
Q 719 1925 600 1925 
Q 484 1925 411 2006 
Q 338 2088 338 2228 
Q 338 2497 613 2722 
Q 888 2947 1384 2947 
Q 1766 2947 2009 2819 
Q 2194 2722 2281 2516 
Q 2338 2381 2338 1966 
L 2338 994 
Q 2338 584 2353 492 
Q 2369 400 2405 369 
Q 2441 338 2488 338 
Q 2538 338 2575 359 
Q 2641 400 2828 588 
L 2828 413 
Q 2478 -56 2159 -56 
Q 2006 -56 1915 50 
Q 1825 156 1822 413 
z
M 1822 616 
L 1822 1706 
Q 1350 1519 1213 1441 
Q 966 1303 859 1153 
Q 753 1003 753 825 
Q 753 600 887 451 
Q 1022 303 1197 303 
Q 1434 303 1822 616 
z
" transform="scale(0.015625)"/>
       <path id="TimesNewRomanPSMT-69" d="M 928 4444 
Q 1059 4444 1151 4351 
Q 1244 4259 1244 4128 
Q 1244 3997 1151 3903 
Q 1059 3809 928 3809 
Q 797 3809 703 3903 
Q 609 3997 609 4128 
Q 609 4259 701 4351 
Q 794 4444 928 4444 
z
M 1188 2947 
L 1188 647 
Q 1188 378 1227 289 
Q 1266 200 1342 156 
Q 1419 113 1622 113 
L 1622 0 
L 231 0 
L 231 113 
Q 441 113 512 153 
Q 584 194 626 287 
Q 669 381 669 647 
L 669 1750 
Q 669 2216 641 2353 
Q 619 2453 572 2492 
Q 525 2531 444 2531 
Q 356 2531 231 2484 
L 188 2597 
L 1050 2947 
L 1188 2947 
z
" transform="scale(0.015625)"/>
       <path id="TimesNewRomanPSMT-6e" d="M 1034 2341 
Q 1538 2947 1994 2947 
Q 2228 2947 2397 2830 
Q 2566 2713 2666 2444 
Q 2734 2256 2734 1869 
L 2734 647 
Q 2734 375 2778 278 
Q 2813 200 2889 156 
Q 2966 113 3172 113 
L 3172 0 
L 1756 0 
L 1756 113 
L 1816 113 
Q 2016 113 2095 173 
Q 2175 234 2206 353 
Q 2219 400 2219 647 
L 2219 1819 
Q 2219 2209 2117 2386 
Q 2016 2563 1775 2563 
Q 1403 2563 1034 2156 
L 1034 647 
Q 1034 356 1069 288 
Q 1113 197 1189 155 
Q 1266 113 1500 113 
L 1500 0 
L 84 0 
L 84 113 
L 147 113 
Q 366 113 442 223 
Q 519 334 519 647 
L 519 1709 
Q 519 2225 495 2337 
Q 472 2450 423 2490 
Q 375 2531 294 2531 
Q 206 2531 84 2484 
L 38 2597 
L 900 2947 
L 1034 2947 
L 1034 2341 
z
" transform="scale(0.015625)"/>
       <path id="TimesNewRomanPSMT-67" d="M 966 1044 
Q 703 1172 562 1401 
Q 422 1631 422 1909 
Q 422 2334 742 2640 
Q 1063 2947 1563 2947 
Q 1972 2947 2272 2747 
L 2878 2747 
Q 3013 2747 3034 2739 
Q 3056 2731 3066 2713 
Q 3084 2684 3084 2613 
Q 3084 2531 3069 2500 
Q 3059 2484 3036 2475 
Q 3013 2466 2878 2466 
L 2506 2466 
Q 2681 2241 2681 1891 
Q 2681 1491 2375 1206 
Q 2069 922 1553 922 
Q 1341 922 1119 984 
Q 981 866 932 777 
Q 884 688 884 625 
Q 884 572 936 522 
Q 988 472 1138 450 
Q 1225 438 1575 428 
Q 2219 413 2409 384 
Q 2700 344 2873 169 
Q 3047 -6 3047 -263 
Q 3047 -616 2716 -925 
Q 2228 -1381 1444 -1381 
Q 841 -1381 425 -1109 
Q 191 -953 191 -784 
Q 191 -709 225 -634 
Q 278 -519 444 -313 
Q 466 -284 763 25 
Q 600 122 533 198 
Q 466 275 466 372 
Q 466 481 555 628 
Q 644 775 966 1044 
z
M 1509 2797 
Q 1278 2797 1122 2612 
Q 966 2428 966 2047 
Q 966 1553 1178 1281 
Q 1341 1075 1591 1075 
Q 1828 1075 1981 1253 
Q 2134 1431 2134 1813 
Q 2134 2309 1919 2591 
Q 1759 2797 1509 2797 
z
M 934 0 
Q 788 -159 713 -296 
Q 638 -434 638 -550 
Q 638 -700 819 -813 
Q 1131 -1006 1722 -1006 
Q 2284 -1006 2551 -807 
Q 2819 -609 2819 -384 
Q 2819 -222 2659 -153 
Q 2497 -84 2016 -72 
Q 1313 -53 934 0 
z
" transform="scale(0.015625)"/>
      </defs>
      <use xlink:href="#TimesNewRomanPSMT-54"/>
      <use xlink:href="#TimesNewRomanPSMT-72" transform="translate(57.583984 0)"/>
      <use xlink:href="#TimesNewRomanPSMT-61" transform="translate(90.884766 0)"/>
      <use xlink:href="#TimesNewRomanPSMT-69" transform="translate(135.269531 0)"/>
      <use xlink:href="#TimesNewRomanPSMT-6e" transform="translate(163.052734 0)"/>
      <use xlink:href="#TimesNewRomanPSMT-69" transform="translate(213.052734 0)"/>
      <use xlink:href="#TimesNewRomanPSMT-6e" transform="translate(240.835938 0)"/>
      <use xlink:href="#TimesNewRomanPSMT-67" transform="translate(290.835938 0)"/>
      <use xlink:href="#TimesNewRomanPSMT-20" transform="translate(340.835938 0)"/>
      <use xlink:href="#TimesNewRomanPSMT-6c" transform="translate(365.835938 0)"/>
      <use xlink:href="#TimesNewRomanPSMT-6f" transform="translate(393.619141 0)"/>
      <use xlink:href="#TimesNewRomanPSMT-73" transform="translate(443.619141 0)"/>
      <use xlink:href="#TimesNewRomanPSMT-73" transform="translate(482.535156 0)"/>
     </g>
    </g>
    <g id="line2d_22">
     <path d="M 343.014625 104.178687 
L 365.014625 104.178687 
L 387.014625 104.178687 
" style="fill: none; stroke: #008000; stroke-width: 1.5; stroke-linecap: square"/>
    </g>
    <g id="text_14">
     <!-- Validation loss -->
     <g transform="translate(404.614625 111.878687) scale(0.22 -0.22)">
      <defs>
       <path id="TimesNewRomanPSMT-56" d="M 4544 4238 
L 4544 4122 
Q 4319 4081 4203 3978 
Q 4038 3825 3909 3509 
L 2431 -97 
L 2316 -97 
L 728 3556 
Q 606 3838 556 3900 
Q 478 3997 364 4051 
Q 250 4106 56 4122 
L 56 4238 
L 1788 4238 
L 1788 4122 
Q 1494 4094 1406 4022 
Q 1319 3950 1319 3838 
Q 1319 3681 1463 3350 
L 2541 866 
L 3541 3319 
Q 3688 3681 3688 3822 
Q 3688 3913 3597 3995 
Q 3506 4078 3291 4113 
Q 3275 4116 3238 4122 
L 3238 4238 
L 4544 4238 
z
" transform="scale(0.015625)"/>
      </defs>
      <use xlink:href="#TimesNewRomanPSMT-56"/>
      <use xlink:href="#TimesNewRomanPSMT-61" transform="translate(61.091797 0)"/>
      <use xlink:href="#TimesNewRomanPSMT-6c" transform="translate(105.476562 0)"/>
      <use xlink:href="#TimesNewRomanPSMT-69" transform="translate(133.259766 0)"/>
      <use xlink:href="#TimesNewRomanPSMT-64" transform="translate(161.042969 0)"/>
      <use xlink:href="#TimesNewRomanPSMT-61" transform="translate(211.042969 0)"/>
      <use xlink:href="#TimesNewRomanPSMT-74" transform="translate(255.427734 0)"/>
      <use xlink:href="#TimesNewRomanPSMT-69" transform="translate(283.210938 0)"/>
      <use xlink:href="#TimesNewRomanPSMT-6f" transform="translate(310.994141 0)"/>
      <use xlink:href="#TimesNewRomanPSMT-6e" transform="translate(360.994141 0)"/>
      <use xlink:href="#TimesNewRomanPSMT-20" transform="translate(410.994141 0)"/>
      <use xlink:href="#TimesNewRomanPSMT-6c" transform="translate(435.994141 0)"/>
      <use xlink:href="#TimesNewRomanPSMT-6f" transform="translate(463.777344 0)"/>
      <use xlink:href="#TimesNewRomanPSMT-73" transform="translate(513.777344 0)"/>
      <use xlink:href="#TimesNewRomanPSMT-73" transform="translate(552.693359 0)"/>
     </g>
    </g>
   </g>
  </g>
 </g>
 <defs>
  <clipPath id="p2cbe2b4472">
   <rect x="197.452125" y="45.5315" width="357.12" height="266.112"/>
  </clipPath>
 </defs>
</svg>
