<?xml version="1.0" encoding="utf-8" standalone="no"?>
<!DOCTYPE svg PUBLIC "-//W3C//DTD SVG 1.1//EN"
  "http://www.w3.org/Graphics/SVG/1.1/DTD/svg11.dtd">
<svg xmlns:xlink="http://www.w3.org/1999/xlink" width="812.599875pt" height="383.265687pt" viewBox="0 0 812.599875 383.265687" xmlns="http://www.w3.org/2000/svg" version="1.1">
 <metadata>
  <rdf:RDF xmlns:dc="http://purl.org/dc/elements/1.1/" xmlns:cc="http://creativecommons.org/ns#" xmlns:rdf="http://www.w3.org/1999/02/22-rdf-syntax-ns#">
   <cc:Work>
    <dc:type rdf:resource="http://purl.org/dc/dcmitype/StillImage"/>
    <dc:date>2025-07-11T07:18:31.721549</dc:date>
    <dc:format>image/svg+xml</dc:format>
    <dc:creator>
     <cc:Agent>
      <dc:title>Matplotlib v3.10.3, https://matplotlib.org/</dc:title>
     </cc:Agent>
    </dc:creator>
   </cc:Work>
  </rdf:RDF>
 </metadata>
 <defs>
  <style type="text/css">*{stroke-linejoin: round; stroke-linecap: butt}</style>
 </defs>
 <g id="figure_1">
  <g id="patch_1">
   <path d="M -0 383.265687 
L 812.599875 383.265687 
L 812.599875 0 
L -0 0 
z
" style="fill: #ffffff"/>
  </g>
  <g id="axes_1">
   <g id="patch_2">
    <path d="M 227.739937 311.6435 
L 584.859938 311.6435 
L 584.859938 45.5315 
L 227.739937 45.5315 
z
" style="fill: #ffffff"/>
   </g>
   <g id="matplotlib.axis_1">
    <g id="xtick_1">
     <g id="line2d_1">
      <path d="M 227.739937 311.6435 
L 227.739937 45.5315 
" clip-path="url(#pe5c31bfd26)" style="fill: none; stroke: #b0b0b0; stroke-opacity: 0.3; stroke-width: 0.8; stroke-linecap: square"/>
     </g>
     <g id="line2d_2">
      <defs>
       <path id="m63bb6dc69d" d="M 0 0 
L 0 3.5 
" style="stroke: #000000; stroke-width: 0.8"/>
      </defs>
      <g>
       <use xlink:href="#m63bb6dc69d" x="227.739937" y="311.6435" style="stroke: #000000; stroke-width: 0.8"/>
      </g>
     </g>
     <g id="text_1">
      <!-- 0.0 -->
      <g transform="translate(213.989937 333.91975) scale(0.22 -0.22)">
       <defs>
        <path id="TimesNewRomanPSMT-30" d="M 231 2094 
Q 231 2819 450 3342 
Q 669 3866 1031 4122 
Q 1313 4325 1613 4325 
Q 2100 4325 2488 3828 
Q 2972 3213 2972 2159 
Q 2972 1422 2759 906 
Q 2547 391 2217 158 
Q 1888 -75 1581 -75 
Q 975 -75 572 641 
Q 231 1244 231 2094 
z
M 844 2016 
Q 844 1141 1059 588 
Q 1238 122 1591 122 
Q 1759 122 1940 273 
Q 2122 425 2216 781 
Q 2359 1319 2359 2297 
Q 2359 3022 2209 3506 
Q 2097 3866 1919 4016 
Q 1791 4119 1609 4119 
Q 1397 4119 1231 3928 
Q 1006 3669 925 3112 
Q 844 2556 844 2016 
z
" transform="scale(0.015625)"/>
        <path id="TimesNewRomanPSMT-2e" d="M 800 606 
Q 947 606 1047 504 
Q 1147 403 1147 259 
Q 1147 116 1045 14 
Q 944 -88 800 -88 
Q 656 -88 554 14 
Q 453 116 453 259 
Q 453 406 554 506 
Q 656 606 800 606 
z
" transform="scale(0.015625)"/>
       </defs>
       <use xlink:href="#TimesNewRomanPSMT-30"/>
       <use xlink:href="#TimesNewRomanPSMT-2e" transform="translate(50 0)"/>
       <use xlink:href="#TimesNewRomanPSMT-30" transform="translate(75 0)"/>
      </g>
     </g>
    </g>
    <g id="xtick_2">
     <g id="line2d_3">
      <path d="M 354.058325 311.6435 
L 354.058325 45.5315 
" clip-path="url(#pe5c31bfd26)" style="fill: none; stroke: #b0b0b0; stroke-opacity: 0.3; stroke-width: 0.8; stroke-linecap: square"/>
     </g>
     <g id="line2d_4">
      <g>
       <use xlink:href="#m63bb6dc69d" x="354.058325" y="311.6435" style="stroke: #000000; stroke-width: 0.8"/>
      </g>
     </g>
     <g id="text_2">
      <!-- 0.5 -->
      <g transform="translate(340.308325 333.91975) scale(0.22 -0.22)">
       <defs>
        <path id="TimesNewRomanPSMT-35" d="M 2778 4238 
L 2534 3706 
L 1259 3706 
L 981 3138 
Q 1809 3016 2294 2522 
Q 2709 2097 2709 1522 
Q 2709 1188 2573 903 
Q 2438 619 2231 419 
Q 2025 219 1772 97 
Q 1413 -75 1034 -75 
Q 653 -75 479 54 
Q 306 184 306 341 
Q 306 428 378 495 
Q 450 563 559 563 
Q 641 563 702 538 
Q 763 513 909 409 
Q 1144 247 1384 247 
Q 1750 247 2026 523 
Q 2303 800 2303 1197 
Q 2303 1581 2056 1914 
Q 1809 2247 1375 2428 
Q 1034 2569 447 2591 
L 1259 4238 
L 2778 4238 
z
" transform="scale(0.015625)"/>
       </defs>
       <use xlink:href="#TimesNewRomanPSMT-30"/>
       <use xlink:href="#TimesNewRomanPSMT-2e" transform="translate(50 0)"/>
       <use xlink:href="#TimesNewRomanPSMT-35" transform="translate(75 0)"/>
      </g>
     </g>
    </g>
    <g id="xtick_3">
     <g id="line2d_5">
      <path d="M 480.376712 311.6435 
L 480.376712 45.5315 
" clip-path="url(#pe5c31bfd26)" style="fill: none; stroke: #b0b0b0; stroke-opacity: 0.3; stroke-width: 0.8; stroke-linecap: square"/>
     </g>
     <g id="line2d_6">
      <g>
       <use xlink:href="#m63bb6dc69d" x="480.376712" y="311.6435" style="stroke: #000000; stroke-width: 0.8"/>
      </g>
     </g>
     <g id="text_3">
      <!-- 1.0 -->
      <g transform="translate(466.626712 333.91975) scale(0.22 -0.22)">
       <defs>
        <path id="TimesNewRomanPSMT-31" d="M 750 3822 
L 1781 4325 
L 1884 4325 
L 1884 747 
Q 1884 391 1914 303 
Q 1944 216 2037 169 
Q 2131 122 2419 116 
L 2419 0 
L 825 0 
L 825 116 
Q 1125 122 1212 167 
Q 1300 213 1334 289 
Q 1369 366 1369 747 
L 1369 3034 
Q 1369 3497 1338 3628 
Q 1316 3728 1258 3775 
Q 1200 3822 1119 3822 
Q 1003 3822 797 3725 
L 750 3822 
z
" transform="scale(0.015625)"/>
       </defs>
       <use xlink:href="#TimesNewRomanPSMT-31"/>
       <use xlink:href="#TimesNewRomanPSMT-2e" transform="translate(50 0)"/>
       <use xlink:href="#TimesNewRomanPSMT-30" transform="translate(75 0)"/>
      </g>
     </g>
    </g>
    <g id="text_4">
     <!-- $\kappa  = \frac{ln(n)}{ln(d)}$ -->
     <g transform="translate(374.289938 364.185687) scale(0.22 -0.22)">
      <defs>
       <path id="STIXGeneral-Italic-3ba" d="M 979 1440 
L 998 1446 
Q 1850 2541 2464 2790 
Q 2547 2822 2630 2822 
Q 2797 2822 2886 2736 
Q 2976 2650 2976 2522 
Q 2976 2387 2893 2307 
Q 2810 2227 2682 2227 
Q 2605 2227 2502 2288 
Q 2400 2349 2336 2349 
Q 2170 2349 1990 2205 
Q 1811 2061 1414 1645 
L 2042 544 
Q 2202 262 2310 182 
Q 2419 102 2624 102 
L 2624 0 
Q 2374 -83 2182 -83 
Q 1786 -83 1555 326 
L 960 1350 
L 576 0 
L 90 0 
L 640 1978 
Q 730 2317 730 2406 
Q 730 2560 518 2560 
L 339 2560 
L 339 2650 
Q 678 2694 1306 2822 
L 1325 2803 
L 979 1440 
z
" transform="scale(0.015625)"/>
       <path id="STIXGeneral-Regular-3d" d="M 4077 2048 
L 307 2048 
L 307 2470 
L 4077 2470 
L 4077 2048 
z
M 4077 768 
L 307 768 
L 307 1190 
L 4077 1190 
L 4077 768 
z
" transform="scale(0.015625)"/>
       <path id="STIXGeneral-Italic-6c" d="M 1786 4339 
L 806 595 
Q 755 410 755 320 
Q 755 205 864 205 
Q 1037 205 1293 570 
L 1453 794 
L 1542 730 
Q 1254 275 1046 102 
Q 838 -70 576 -70 
Q 262 -70 262 288 
Q 262 397 288 480 
L 1165 3834 
Q 1184 3898 1184 3955 
Q 1184 4096 870 4096 
L 755 4096 
L 755 4198 
Q 1203 4250 1747 4371 
L 1786 4339 
z
" transform="scale(0.015625)"/>
       <path id="STIXGeneral-Italic-6e" d="M 2944 749 
L 3034 666 
Q 2707 218 2534 80 
Q 2362 -58 2138 -58 
Q 2010 -58 1923 28 
Q 1837 115 1837 288 
Q 1837 390 1939 768 
L 2221 1805 
Q 2310 2150 2310 2310 
Q 2310 2496 2157 2496 
Q 1971 2496 1750 2275 
Q 1530 2054 1210 1587 
Q 998 1274 899 1024 
Q 800 774 570 0 
L 90 0 
L 704 2240 
Q 717 2304 717 2349 
Q 717 2445 630 2480 
Q 544 2515 301 2522 
L 301 2624 
Q 550 2675 857 2729 
Q 1165 2784 1338 2822 
L 1363 2810 
L 934 1414 
Q 1408 2170 1753 2496 
Q 2099 2822 2413 2822 
Q 2611 2822 2720 2716 
Q 2829 2611 2829 2432 
Q 2829 2272 2765 2048 
L 2406 749 
Q 2317 429 2317 358 
Q 2317 243 2419 243 
Q 2541 243 2810 582 
Q 2854 634 2944 749 
z
" transform="scale(0.015625)"/>
       <path id="STIXGeneral-Regular-28" d="M 1946 -1030 
L 1869 -1133 
Q 1126 -710 716 32 
Q 307 774 307 1613 
Q 307 3386 1888 4326 
L 1946 4224 
Q 1293 3667 1075 3126 
Q 858 2586 858 1632 
Q 858 685 1082 96 
Q 1306 -493 1946 -1030 
z
" transform="scale(0.015625)"/>
       <path id="STIXGeneral-Regular-29" d="M 186 4224 
L 262 4326 
Q 992 3891 1408 3148 
Q 1824 2406 1824 1581 
Q 1824 -166 243 -1133 
L 186 -1030 
Q 845 -486 1059 54 
Q 1274 595 1274 1562 
Q 1274 2534 1059 3120 
Q 845 3706 186 4224 
z
" transform="scale(0.015625)"/>
       <path id="STIXGeneral-Italic-64" d="M 3334 4371 
L 3373 4333 
L 3123 3360 
L 2739 1958 
Q 2323 429 2323 384 
Q 2323 256 2438 256 
Q 2522 256 2614 336 
Q 2707 416 2963 710 
L 3040 646 
Q 2547 -83 2099 -83 
Q 1978 -83 1907 -6 
Q 1837 70 1837 205 
Q 1837 397 1920 774 
Q 1645 307 1379 118 
Q 1114 -70 781 -70 
Q 461 -70 278 125 
Q 96 320 96 678 
Q 96 1440 713 2131 
Q 1331 2822 1965 2822 
Q 2163 2822 2256 2732 
Q 2349 2643 2381 2451 
L 2387 2451 
L 2675 3494 
Q 2765 3808 2765 3949 
Q 2765 4051 2694 4076 
Q 2624 4102 2355 4115 
L 2355 4224 
Q 2848 4269 3334 4371 
z
M 2278 2310 
Q 2278 2477 2185 2576 
Q 2093 2675 1978 2675 
Q 1677 2675 1395 2381 
Q 1075 2042 864 1571 
Q 653 1101 653 704 
Q 653 486 752 361 
Q 851 237 1024 237 
Q 1312 237 1606 550 
Q 1901 864 2089 1350 
Q 2278 1837 2278 2310 
z
" transform="scale(0.015625)"/>
      </defs>
      <use xlink:href="#STIXGeneral-Italic-3ba" transform="translate(0 0.003125)"/>
      <use xlink:href="#STIXGeneral-Regular-3d" transform="translate(58.83999 0.003125)"/>
      <use xlink:href="#STIXGeneral-Italic-6c" transform="translate(141.779971 50.192188) scale(0.7)"/>
      <use xlink:href="#STIXGeneral-Italic-6e" transform="translate(161.239963 50.192188) scale(0.7)"/>
      <use xlink:href="#STIXGeneral-Regular-28" transform="translate(196.239952 50.192188) scale(0.7)"/>
      <use xlink:href="#STIXGeneral-Italic-6e" transform="translate(219.549944 50.192188) scale(0.7)"/>
      <use xlink:href="#STIXGeneral-Regular-29" transform="translate(254.549933 50.192188) scale(0.7)"/>
      <use xlink:href="#STIXGeneral-Italic-6c" transform="translate(141.779971 -41.257812) scale(0.7)"/>
      <use xlink:href="#STIXGeneral-Italic-6e" transform="translate(161.239963 -41.257812) scale(0.7)"/>
      <use xlink:href="#STIXGeneral-Regular-28" transform="translate(196.239952 -41.257812) scale(0.7)"/>
      <use xlink:href="#STIXGeneral-Italic-64" transform="translate(219.549944 -41.257812) scale(0.7)"/>
      <use xlink:href="#STIXGeneral-Regular-29" transform="translate(254.549933 -41.257812) scale(0.7)"/>
      <path d="M 141.779971 12.8 
L 141.779971 19.05 
L 277.859924 19.05 
L 277.859924 12.8 
L 141.779971 12.8 
z
"/>
     </g>
    </g>
   </g>
   <g id="matplotlib.axis_2">
    <g id="ytick_1">
     <g id="line2d_7">
      <path d="M 227.739937 311.6435 
L 584.859938 311.6435 
" clip-path="url(#pe5c31bfd26)" style="fill: none; stroke: #b0b0b0; stroke-opacity: 0.3; stroke-width: 0.8; stroke-linecap: square"/>
     </g>
     <g id="line2d_8">
      <defs>
       <path id="me6c269a683" d="M 0 0 
L -3.5 0 
" style="stroke: #000000; stroke-width: 0.8"/>
      </defs>
      <g>
       <use xlink:href="#me6c269a683" x="227.739937" y="311.6435" style="stroke: #000000; stroke-width: 0.8"/>
      </g>
     </g>
     <g id="text_5">
      <!-- 0.0 -->
      <g transform="translate(193.239937 319.281625) scale(0.22 -0.22)">
       <use xlink:href="#TimesNewRomanPSMT-30"/>
       <use xlink:href="#TimesNewRomanPSMT-2e" transform="translate(50 0)"/>
       <use xlink:href="#TimesNewRomanPSMT-30" transform="translate(75 0)"/>
      </g>
     </g>
    </g>
    <g id="ytick_2">
     <g id="line2d_9">
      <path d="M 227.739937 254.72342 
L 584.859938 254.72342 
" clip-path="url(#pe5c31bfd26)" style="fill: none; stroke: #b0b0b0; stroke-opacity: 0.3; stroke-width: 0.8; stroke-linecap: square"/>
     </g>
     <g id="line2d_10">
      <g>
       <use xlink:href="#me6c269a683" x="227.739937" y="254.72342" style="stroke: #000000; stroke-width: 0.8"/>
      </g>
     </g>
     <g id="text_6">
      <!-- 0.1 -->
      <g transform="translate(193.239937 262.361545) scale(0.22 -0.22)">
       <use xlink:href="#TimesNewRomanPSMT-30"/>
       <use xlink:href="#TimesNewRomanPSMT-2e" transform="translate(50 0)"/>
       <use xlink:href="#TimesNewRomanPSMT-31" transform="translate(75 0)"/>
      </g>
     </g>
    </g>
    <g id="ytick_3">
     <g id="line2d_11">
      <path d="M 227.739937 197.80334 
L 584.859938 197.80334 
" clip-path="url(#pe5c31bfd26)" style="fill: none; stroke: #b0b0b0; stroke-opacity: 0.3; stroke-width: 0.8; stroke-linecap: square"/>
     </g>
     <g id="line2d_12">
      <g>
       <use xlink:href="#me6c269a683" x="227.739937" y="197.80334" style="stroke: #000000; stroke-width: 0.8"/>
      </g>
     </g>
     <g id="text_7">
      <!-- 0.2 -->
      <g transform="translate(193.239937 205.441465) scale(0.22 -0.22)">
       <defs>
        <path id="TimesNewRomanPSMT-32" d="M 2934 816 
L 2638 0 
L 138 0 
L 138 116 
Q 1241 1122 1691 1759 
Q 2141 2397 2141 2925 
Q 2141 3328 1894 3587 
Q 1647 3847 1303 3847 
Q 991 3847 742 3664 
Q 494 3481 375 3128 
L 259 3128 
Q 338 3706 661 4015 
Q 984 4325 1469 4325 
Q 1984 4325 2329 3994 
Q 2675 3663 2675 3213 
Q 2675 2891 2525 2569 
Q 2294 2063 1775 1497 
Q 997 647 803 472 
L 1909 472 
Q 2247 472 2383 497 
Q 2519 522 2628 598 
Q 2738 675 2819 816 
L 2934 816 
z
" transform="scale(0.015625)"/>
       </defs>
       <use xlink:href="#TimesNewRomanPSMT-30"/>
       <use xlink:href="#TimesNewRomanPSMT-2e" transform="translate(50 0)"/>
       <use xlink:href="#TimesNewRomanPSMT-32" transform="translate(75 0)"/>
      </g>
     </g>
    </g>
    <g id="ytick_4">
     <g id="line2d_13">
      <path d="M 227.739937 140.88326 
L 584.859938 140.88326 
" clip-path="url(#pe5c31bfd26)" style="fill: none; stroke: #b0b0b0; stroke-opacity: 0.3; stroke-width: 0.8; stroke-linecap: square"/>
     </g>
     <g id="line2d_14">
      <g>
       <use xlink:href="#me6c269a683" x="227.739937" y="140.88326" style="stroke: #000000; stroke-width: 0.8"/>
      </g>
     </g>
     <g id="text_8">
      <!-- 0.3 -->
      <g transform="translate(193.239937 148.521385) scale(0.22 -0.22)">
       <defs>
        <path id="TimesNewRomanPSMT-33" d="M 325 3431 
Q 506 3859 782 4092 
Q 1059 4325 1472 4325 
Q 1981 4325 2253 3994 
Q 2459 3747 2459 3466 
Q 2459 3003 1878 2509 
Q 2269 2356 2469 2072 
Q 2669 1788 2669 1403 
Q 2669 853 2319 450 
Q 1863 -75 997 -75 
Q 569 -75 414 31 
Q 259 138 259 259 
Q 259 350 332 419 
Q 406 488 509 488 
Q 588 488 669 463 
Q 722 447 909 348 
Q 1097 250 1169 231 
Q 1284 197 1416 197 
Q 1734 197 1970 444 
Q 2206 691 2206 1028 
Q 2206 1275 2097 1509 
Q 2016 1684 1919 1775 
Q 1784 1900 1550 2001 
Q 1316 2103 1072 2103 
L 972 2103 
L 972 2197 
Q 1219 2228 1467 2375 
Q 1716 2522 1828 2728 
Q 1941 2934 1941 3181 
Q 1941 3503 1739 3701 
Q 1538 3900 1238 3900 
Q 753 3900 428 3381 
L 325 3431 
z
" transform="scale(0.015625)"/>
       </defs>
       <use xlink:href="#TimesNewRomanPSMT-30"/>
       <use xlink:href="#TimesNewRomanPSMT-2e" transform="translate(50 0)"/>
       <use xlink:href="#TimesNewRomanPSMT-33" transform="translate(75 0)"/>
      </g>
     </g>
    </g>
    <g id="ytick_5">
     <g id="line2d_15">
      <path d="M 227.739937 83.963179 
L 584.859938 83.963179 
" clip-path="url(#pe5c31bfd26)" style="fill: none; stroke: #b0b0b0; stroke-opacity: 0.3; stroke-width: 0.8; stroke-linecap: square"/>
     </g>
     <g id="line2d_16">
      <g>
       <use xlink:href="#me6c269a683" x="227.739937" y="83.963179" style="stroke: #000000; stroke-width: 0.8"/>
      </g>
     </g>
     <g id="text_9">
      <!-- 0.4 -->
      <g transform="translate(193.239937 91.601304) scale(0.22 -0.22)">
       <defs>
        <path id="TimesNewRomanPSMT-34" d="M 2978 1563 
L 2978 1119 
L 2409 1119 
L 2409 0 
L 1894 0 
L 1894 1119 
L 100 1119 
L 100 1519 
L 2066 4325 
L 2409 4325 
L 2409 1563 
L 2978 1563 
z
M 1894 1563 
L 1894 3666 
L 406 1563 
L 1894 1563 
z
" transform="scale(0.015625)"/>
       </defs>
       <use xlink:href="#TimesNewRomanPSMT-30"/>
       <use xlink:href="#TimesNewRomanPSMT-2e" transform="translate(50 0)"/>
       <use xlink:href="#TimesNewRomanPSMT-34" transform="translate(75 0)"/>
      </g>
     </g>
    </g>
    <g id="text_10">
     <!-- Loss -->
     <g transform="translate(184.534 199.368906) rotate(-90) scale(0.22 -0.22)">
      <defs>
       <path id="TimesNewRomanPSMT-4c" d="M 3669 1172 
L 3772 1150 
L 3409 0 
L 128 0 
L 128 116 
L 288 116 
Q 556 116 672 291 
Q 738 391 738 753 
L 738 3488 
Q 738 3884 650 3984 
Q 528 4122 288 4122 
L 128 4122 
L 128 4238 
L 2047 4238 
L 2047 4122 
Q 1709 4125 1573 4059 
Q 1438 3994 1388 3894 
Q 1338 3794 1338 3416 
L 1338 753 
Q 1338 494 1388 397 
Q 1425 331 1503 300 
Q 1581 269 1991 269 
L 2300 269 
Q 2788 269 2984 341 
Q 3181 413 3343 595 
Q 3506 778 3669 1172 
z
" transform="scale(0.015625)"/>
       <path id="TimesNewRomanPSMT-6f" d="M 1600 2947 
Q 2250 2947 2644 2453 
Q 2978 2031 2978 1484 
Q 2978 1100 2793 706 
Q 2609 313 2286 112 
Q 1963 -88 1566 -88 
Q 919 -88 538 428 
Q 216 863 216 1403 
Q 216 1797 411 2186 
Q 606 2575 925 2761 
Q 1244 2947 1600 2947 
z
M 1503 2744 
Q 1338 2744 1170 2645 
Q 1003 2547 900 2300 
Q 797 2053 797 1666 
Q 797 1041 1045 587 
Q 1294 134 1700 134 
Q 2003 134 2200 384 
Q 2397 634 2397 1244 
Q 2397 2006 2069 2444 
Q 1847 2744 1503 2744 
z
" transform="scale(0.015625)"/>
       <path id="TimesNewRomanPSMT-73" d="M 2050 2947 
L 2050 1972 
L 1947 1972 
Q 1828 2431 1642 2597 
Q 1456 2763 1169 2763 
Q 950 2763 815 2647 
Q 681 2531 681 2391 
Q 681 2216 781 2091 
Q 878 1963 1175 1819 
L 1631 1597 
Q 2266 1288 2266 781 
Q 2266 391 1970 151 
Q 1675 -88 1309 -88 
Q 1047 -88 709 6 
Q 606 38 541 38 
Q 469 38 428 -44 
L 325 -44 
L 325 978 
L 428 978 
Q 516 541 762 319 
Q 1009 97 1316 97 
Q 1531 97 1667 223 
Q 1803 350 1803 528 
Q 1803 744 1651 891 
Q 1500 1038 1047 1263 
Q 594 1488 453 1669 
Q 313 1847 313 2119 
Q 313 2472 555 2709 
Q 797 2947 1181 2947 
Q 1350 2947 1591 2875 
Q 1750 2828 1803 2828 
Q 1853 2828 1881 2850 
Q 1909 2872 1947 2947 
L 2050 2947 
z
" transform="scale(0.015625)"/>
      </defs>
      <use xlink:href="#TimesNewRomanPSMT-4c"/>
      <use xlink:href="#TimesNewRomanPSMT-6f" transform="translate(61.083984 0)"/>
      <use xlink:href="#TimesNewRomanPSMT-73" transform="translate(111.083984 0)"/>
      <use xlink:href="#TimesNewRomanPSMT-73" transform="translate(150 0)"/>
     </g>
    </g>
   </g>
   <g id="line2d_17">
    <path d="M 227.739937 169.322401 
L 315.154475 181.25805 
L 338.72339 189.114138 
L 352.918797 194.775946 
L 363.109188 195.693443 
L 371.064134 202.829201 
L 377.590103 206.849458 
L 383.123138 209.873746 
L 387.925868 212.175931 
L 392.168791 214.482434 
L 395.968894 221.159982 
L 399.409934 221.899854 
L 402.553946 226.001265 
L 405.448158 230.978027 
L 408.12936 230.815465 
L 410.626769 230.483396 
L 412.963973 234.07569 
L 415.160294 237.71661 
L 417.231754 239.114224 
L 419.191789 244.049455 
L 421.051778 239.897031 
L 422.82144 244.144455 
L 424.509143 247.638276 
L 426.122143 249.172154 
L 427.666775 251.856285 
L 429.1486 253.969069 
L 430.572525 251.290273 
L 431.942906 256.800609 
L 433.263625 250.699841 
L 434.538155 259.812047 
L 435.769618 260.523937 
L 436.96083 262.426097 
L 438.114339 261.939249 
L 439.232459 268.181989 
L 440.317296 269.577233 
L 441.370775 269.292242 
L 442.394658 272.074431 
L 443.390562 273.023496 
L 444.359976 271.606433 
L 445.304273 278.585645 
L 446.224722 280.642222 
L 447.122497 276.135167 
L 447.998689 265.748027 
L 448.854311 280.936143 
L 449.690307 278.471258 
L 450.507557 282.629412 
L 451.306883 283.579568 
L 452.089055 284.275979 
L 452.854794 288.195739 
L 453.604776 285.541705 
L 454.339636 290.236289 
L 455.059972 286.409471 
L 455.766347 288.540789 
L 456.459292 291.155353 
L 457.139308 293.034975 
L 457.806869 289.920113 
L 458.462423 289.187461 
L 459.106394 296.57278 
L 459.739185 293.810663 
L 460.361176 287.029078 
L 460.972731 285.962336 
L 462.165892 295.377757 
L 462.748138 290.796384 
L 463.321228 295.817407 
L 463.885447 294.67468 
L 464.441065 298.703653 
L 464.98834 300.007796 
L 465.527518 299.338432 
L 466.058837 300.738063 
L 466.582521 264.643465 
L 467.098788 283.551398 
L 467.607844 294.364261 
L 468.109887 298.426048 
L 468.60511 293.970061 
L 469.093694 301.779754 
L 469.575814 300.972898 
L 470.051641 302.047735 
L 470.521336 302.186111 
L 470.985055 303.003973 
L 471.442948 303.47274 
L 472.341829 299.943587 
L 473.219075 303.966108 
L 473.649905 304.458256 
L 474.075702 304.2538 
L 474.496582 305.085579 
L 474.912658 304.466326 
L 475.324037 304.99288 
L 475.730824 304.515572 
L 476.133122 303.713551 
L 476.531028 305.81421 
L 476.924636 305.137539 
L 477.31404 307.054401 
L 477.699327 303.14204 
L 478.080583 303.73199 
L 478.457893 289.117345 
L 478.831337 288.90384 
L 479.200993 290.475731 
L 479.566938 303.374536 
L 479.929245 305.064547 
L 480.287986 306.138023 
L 480.643231 305.958357 
L 480.995046 305.906281 
L 481.343498 305.496344 
L 481.68865 307.273896 
L 482.030565 307.353767 
L 482.369301 305.945886 
L 483.037474 306.863187 
L 483.367022 305.477187 
L 483.693618 307.148088 
L 484.017313 306.887275 
L 484.338158 306.377196 
L 484.656204 307.53679 
L 484.971498 306.26232 
L 485.284088 307.912489 
L 485.59402 308.055771 
L 485.901339 307.979458 
L 486.206088 308.206871 
L 486.808048 307.446804 
L 487.10534 308.404775 
L 487.400226 308.037389 
L 487.692746 307.883281 
L 487.982937 306.250288 
L 488.270836 308.178964 
L 488.556479 307.731632 
L 488.8399 308.137341 
L 489.121134 306.645691 
L 489.400215 308.084817 
L 489.677175 306.841406 
L 489.952047 306.73177 
L 490.224861 308.163226 
L 490.495648 308.474266 
L 490.764439 306.84272 
L 491.031261 309.762524 
L 491.296145 307.956909 
L 491.559117 308.165636 
L 491.820205 307.151414 
L 492.079437 308.079956 
L 492.592433 308.099549 
L 492.846249 307.191181 
L 493.098309 308.757678 
L 493.348639 308.588109 
L 493.59726 308.655202 
L 493.844198 307.508708 
L 494.089473 309.125718 
L 494.333109 307.96676 
L 494.575127 308.781168 
L 494.815549 307.495524 
L 495.054395 307.839928 
L 495.291686 308.874724 
L 495.527442 308.121392 
L 495.761683 308.004246 
L 495.994429 308.823928 
L 496.225697 307.273904 
L 496.455508 308.494544 
L 496.683878 308.521099 
L 496.910826 308.995076 
L 497.13637 308.048704 
L 497.360527 308.733055 
L 497.583314 308.733716 
L 497.804747 308.091835 
L 498.024843 309.368843 
L 498.243618 307.96153 
L 498.461088 309.048055 
L 498.677267 309.095326 
L 498.892172 308.292275 
L 499.105818 308.636718 
L 499.318218 308.764952 
L 499.529388 308.28148 
L 499.739341 308.081505 
L 499.948092 308.274377 
L 500.155654 309.718476 
L 500.362041 308.434452 
L 500.567265 309.381493 
L 500.771341 308.301241 
L 500.97428 309.102048 
L 501.176096 308.129 
L 501.3768 309.259344 
L 501.576405 308.317525 
L 501.774923 308.784208 
L 502.168744 308.318038 
L 502.36407 309.425174 
L 502.558355 307.863329 
L 502.75161 309.76167 
L 502.943846 309.749004 
L 503.135073 308.962209 
L 503.325302 309.123752 
L 503.514543 308.483102 
L 503.890103 309.449045 
L 504.076442 308.992678 
L 504.261833 309.601405 
L 504.446286 308.824729 
L 504.62981 308.999716 
L 504.812414 308.345823 
L 504.994109 309.553364 
L 505.174902 308.981216 
L 505.354802 308.96653 
L 505.533819 308.825237 
L 505.889237 310.096473 
L 506.065654 309.127742 
L 506.241222 309.32141 
L 506.589841 307.743456 
L 506.935156 309.316948 
L 507.106595 308.834589 
L 507.277231 309.802602 
L 507.447072 308.376342 
L 507.616125 309.164137 
L 507.784398 309.301695 
L 507.951897 309.797294 
L 508.11863 308.217138 
L 508.449825 309.64669 
L 508.614301 309.017622 
L 508.778038 309.16755 
L 508.941043 309.810912 
L 509.103322 309.963125 
L 509.425728 307.902482 
L 509.585868 309.654949 
L 509.745308 309.816605 
L 509.904052 309.025387 
L 510.062109 309.81766 
L 510.219483 308.551245 
L 510.376181 309.822233 
L 510.532207 308.415376 
L 510.687569 310.139645 
L 510.842271 308.723149 
L 511.14972 309.431938 
L 511.302477 309.346153 
L 511.454596 309.817895 
L 511.606084 309.828208 
L 511.756944 309.518235 
L 512.056804 309.997029 
L 512.354217 309.206718 
L 512.502019 309.052198 
L 512.795836 309.206876 
L 512.941861 308.262566 
L 513.087303 308.742214 
L 513.232167 309.687075 
L 513.376458 309.68358 
L 513.52018 310.162813 
L 513.663337 310.166572 
L 513.947975 309.373745 
L 514.089466 310.001726 
L 514.230408 308.740994 
L 514.370808 309.5322 
L 514.51067 309.217948 
L 514.649996 309.691775 
L 514.788792 308.901638 
L 514.927062 309.850968 
L 515.474953 308.745979 
L 515.610649 308.590513 
L 515.745841 308.751386 
L 516.01473 308.436842 
L 516.28165 310.80696 
L 516.414381 309.860751 
L 516.54663 307.960658 
L 516.678401 309.226432 
L 516.809697 309.231091 
L 516.940522 310.335175 
L 517.070879 309.703983 
L 517.200772 311.12596 
L 517.459176 309.230668 
L 517.587694 308.441014 
L 517.715761 309.544588 
L 517.84338 307.650067 
L 518.097284 309.709834 
L 518.223576 309.078503 
L 518.349431 309.233949 
L 518.474854 309.710366 
L 518.599847 309.237203 
L 518.724412 309.868386 
L 518.972273 307.81521 
L 519.095574 309.237185 
L 519.218459 308.286322 
L 519.340932 309.871229 
L 519.462994 309.55192 
L 519.584649 307.973206 
L 519.7059 309.871194 
L 519.826748 309.398652 
L 519.947197 310.347113 
L 520.306173 308.604765 
L 520.425051 309.397759 
L 520.543541 308.29372 
L 520.779374 310.032841 
L 520.89672 309.400564 
L 521.01369 309.400221 
L 521.130286 309.716941 
L 521.362364 309.400966 
L 521.707735 308.121682 
L 521.822135 309.376631 
L 521.936177 308.917136 
L 522.163196 310.347767 
L 522.388809 309.083604 
L 522.501095 309.088416 
L 522.724633 309.722973 
L 522.946808 308.452992 
L 523.05739 309.877877 
L 523.277553 308.140734 
L 523.605323 309.722472 
L 523.713928 309.879415 
L 523.82221 308.141312 
L 523.930172 308.300874 
L 524.252151 310.039995 
L 524.358848 309.881128 
L 524.465234 308.774396 
L 524.57131 309.65836 
L 524.677079 308.458237 
L 524.887699 59.312403 
L 526.024847 271.3193 
L 526.126486 269.199214 
L 526.227842 287.978975 
L 526.328918 281.846949 
L 526.429714 293.058277 
L 526.530232 286.699496 
L 526.630473 247.184689 
L 526.929554 299.938783 
L 527.028705 300.740872 
L 527.127587 304.916442 
L 527.324549 296.377312 
L 527.520453 306.649732 
L 527.618011 304.773446 
L 528.101924 308.872815 
L 528.19794 308.357531 
L 528.293704 308.891364 
L 528.389217 307.731406 
L 528.579496 309.117294 
L 528.674264 308.858667 
L 528.768787 308.900294 
L 528.863064 309.382843 
L 528.957099 309.144485 
L 529.050892 309.880712 
L 529.144443 308.655871 
L 529.237756 308.822251 
L 529.33083 308.996253 
L 529.423667 308.188823 
L 529.516268 309.482874 
L 529.700767 308.864997 
L 529.792668 309.169808 
L 529.884338 309.979292 
L 530.066988 309.185153 
L 530.157971 309.18208 
L 530.248727 309.832836 
L 530.519649 308.883631 
L 530.60951 307.939851 
L 530.699151 309.839913 
L 530.788571 309.689286 
L 530.966757 309.530331 
L 531.055524 308.742874 
L 531.144075 310.00433 
L 531.232412 309.222686 
L 531.320536 309.536495 
L 531.408446 308.751711 
L 531.496146 309.380133 
L 531.583634 308.904916 
L 531.670914 310.170842 
L 531.757984 309.539225 
L 531.844848 310.177264 
L 531.931504 308.754007 
L 532.104202 310.016708 
L 532.190245 309.857091 
L 532.276085 309.865714 
L 532.447162 308.598954 
L 532.617439 310.340047 
L 532.70228 308.284758 
L 532.786925 308.758331 
L 532.871373 309.077595 
L 532.955626 310.028379 
L 533.039684 308.761865 
L 533.123549 309.081149 
L 533.207222 310.026535 
L 533.373993 308.60859 
L 533.457094 308.607685 
L 533.540005 310.031979 
L 533.622728 309.558135 
L 533.869777 308.766065 
L 534.03355 310.350835 
L 534.115162 308.295194 
L 534.277839 309.87744 
L 534.358907 309.561006 
L 534.439794 309.718581 
L 534.681384 308.929351 
L 534.76156 309.562681 
L 534.841559 308.770442 
L 534.921384 309.723848 
L 535.001034 308.613764 
L 535.08051 309.564492 
L 535.159813 308.775033 
L 535.238944 310.198171 
L 535.317904 309.091007 
L 535.475312 310.199342 
L 535.553762 309.882426 
L 535.710157 308.618588 
L 535.788103 309.724965 
L 535.865884 309.567019 
L 535.943498 309.249294 
L 536.020948 308.143153 
L 536.098233 309.567554 
L 536.175355 309.411336 
L 536.252314 309.410512 
L 536.329111 309.569786 
L 536.405746 308.935413 
L 536.558535 310.201408 
L 536.63469 309.409822 
L 536.710687 310.043274 
L 536.786525 308.462517 
L 536.862205 308.777438 
L 536.937729 309.885967 
L 537.013097 309.097377 
L 537.088309 309.886397 
L 537.238269 308.781955 
L 537.387615 309.571769 
L 537.462059 308.305814 
L 537.536351 309.730929 
L 537.684483 308.78039 
L 537.758324 309.570908 
L 537.832015 308.783041 
L 537.905558 308.940129 
L 537.978953 310.045939 
L 538.0522 309.889123 
L 538.1253 308.940905 
L 538.198254 309.256534 
L 538.271063 309.729645 
L 538.416244 308.46707 
L 538.488619 309.73281 
L 538.56085 308.941671 
L 538.704884 309.574362 
L 538.776688 308.941647 
L 538.848351 309.889365 
L 538.919873 309.415285 
L 538.991256 308.626735 
L 539.062498 310.523728 
L 539.133602 309.258433 
L 539.204568 310.049916 
L 539.416638 307.99434 
L 539.627482 309.734578 
L 539.697493 309.576041 
L 539.76737 309.259639 
L 539.837113 308.310413 
L 539.976201 310.365133 
L 540.114759 309.260354 
L 540.183842 309.893702 
L 540.321615 308.311997 
L 540.390306 310.051131 
L 540.458869 308.942774 
L 540.527302 309.260113 
L 540.595608 308.627545 
L 540.799759 310.051482 
L 540.867557 308.946728 
L 540.935228 309.576199 
L 541.002774 308.945963 
L 541.070195 309.577264 
L 541.137492 308.945223 
L 541.204664 309.261616 
L 541.271713 310.368012 
L 541.338639 309.261607 
L 541.405442 310.369178 
L 541.472123 307.997341 
L 541.538682 309.578471 
L 541.60512 309.420607 
L 541.737633 310.053693 
L 541.80371 309.894342 
L 541.869667 309.104325 
L 541.935505 310.053795 
L 542.001224 309.57946 
L 542.132307 308.947283 
L 542.197673 309.104352 
L 542.262921 309.263368 
L 542.328053 309.105801 
L 542.393069 309.57972 
L 542.457969 308.630281 
L 542.522753 308.947739 
L 542.651978 310.05353 
L 542.716419 309.421685 
L 542.84496 310.370424 
L 542.909061 310.054222 
L 543.10069 308.631147 
L 543.291317 309.896889 
L 543.354638 309.422159 
L 543.41785 309.58023 
L 543.480952 309.739233 
L 543.60683 308.315828 
L 543.669606 309.738514 
L 543.732274 309.264398 
L 543.794834 308.474507 
L 543.857288 308.631977 
L 543.919634 309.423009 
L 543.981874 309.106745 
L 544.044008 309.581518 
L 544.16796 308.948591 
L 544.291491 310.687287 
L 544.476006 309.106682 
L 544.598499 310.056024 
L 544.659591 307.842455 
L 544.720581 310.372896 
L 544.78147 308.632742 
L 544.842257 309.739507 
L 544.902942 307.84216 
L 544.963527 309.423388 
L 545.024011 310.055944 
L 545.084395 308.791592 
L 545.144679 310.214128 
L 545.204864 308.94988 
L 545.384824 310.372795 
L 545.444614 310.214568 
L 545.563899 308.632934 
L 545.623396 310.056188 
L 545.682796 309.424818 
L 545.7421 309.108196 
L 545.860417 309.8986 
L 545.978352 309.108418 
L 546.095907 310.057127 
L 546.271531 308.159205 
L 546.329885 309.582837 
L 546.388146 308.792101 
L 546.446313 309.108699 
L 546.504388 308.476416 
L 546.56237 309.582802 
L 546.620261 308.792704 
L 546.735767 308.792714 
L 546.908342 309.583242 
L 546.965686 309.899302 
L 547.194163 308.160208 
L 547.25106 309.899399 
L 547.307867 308.634452 
L 547.477761 309.899672 
L 547.590585 308.002458 
L 547.703061 310.374088 
L 547.759169 308.476706 
L 547.815191 309.741937 
L 547.871127 309.899627 
L 547.982741 308.476772 
L 548.038421 309.267871 
L 548.094015 309.583953 
L 548.149525 308.951528 
L 548.204951 309.267624 
L 548.260292 310.374484 
L 548.315549 309.900048 
L 548.370723 309.425787 
L 548.425814 309.741758 
L 548.480821 309.900551 
L 548.590587 308.951609 
L 548.754619 310.216725 
L 548.809132 308.951815 
L 548.863564 309.42577 
L 548.917915 310.058527 
L 548.972185 309.584153 
L 549.026375 308.319485 
L 549.080484 310.058807 
L 549.134513 309.742454 
L 549.29612 308.952062 
L 549.34983 310.374976 
L 549.403461 309.584229 
L 549.457014 309.584323 
L 549.510488 309.426528 
L 549.563883 308.793459 
L 549.617201 309.426266 
L 549.723602 310.059006 
L 549.882624 308.636061 
L 549.935478 309.268468 
L 549.988255 308.31992 
L 550.040955 309.110286 
L 550.146129 310.375106 
L 550.198602 308.477791 
L 550.250999 309.426598 
L 550.355569 308.794342 
L 550.407742 309.26871 
L 550.45984 309.268907 
L 550.563813 309.901265 
L 550.615689 309.743161 
L 550.770874 308.794378 
L 550.822456 309.110765 
L 550.873965 307.845582 
L 550.925401 309.743344 
L 550.976765 308.952791 
L 551.028057 308.162181 
L 551.130424 310.375657 
L 551.232504 308.794614 
L 551.385091 309.901463 
L 551.435811 309.743302 
L 551.486461 310.059631 
L 551.537041 309.585115 
L 551.587551 309.90149 
L 551.637991 310.059737 
L 551.738661 309.269013 
L 551.788892 309.743588 
L 551.839055 308.794798 
L 551.889148 309.585346 
L 551.989128 310.217682 
L 552.138586 308.95301 
L 552.336915 309.901708 
L 552.435676 308.795019 
L 552.632399 310.059852 
L 552.779248 308.795199 
L 552.828066 309.58583 
L 552.876819 309.269536 
L 552.925507 308.637085 
L 553.022688 309.74399 
L 553.071182 309.269661 
L 553.119611 310.060131 
L 553.167976 309.111786 
L 553.216277 309.743947 
L 553.264514 309.585656 
L 553.312687 308.953378 
L 553.360796 309.427864 
L 553.456825 310.060129 
L 553.600396 307.846462 
L 553.790948 310.534479 
L 553.885852 308.637345 
L 553.933211 308.953646 
L 553.980509 310.376433 
L 554.027746 309.586192 
L 554.074922 308.479151 
L 554.122036 308.6373 
L 554.216083 310.060543 
L 554.309887 308.479213 
L 554.356699 309.744195 
L 554.450143 309.42818 
L 554.496776 309.11188 
L 554.543348 310.376666 
L 554.589862 309.586005 
L 554.636316 308.637498 
L 554.729046 308.953842 
L 554.775323 309.42812 
L 554.821542 308.953753 
L 554.867701 308.637451 
L 555.051758 309.90274 
L 555.097628 309.428173 
L 555.189194 309.586418 
L 555.23489 309.58634 
L 555.28053 308.637646 
L 555.326112 309.902606 
L 555.371638 309.744473 
L 555.417107 308.795742 
L 555.507875 308.953863 
L 555.553174 308.637731 
L 555.598417 309.902741 
L 555.643604 309.744578 
L 555.688735 309.11223 
L 555.73381 309.744462 
L 555.823794 309.11207 
L 555.868702 310.060664 
L 555.913555 308.954109 
L 555.958354 309.744698 
L 556.092419 308.95399 
L 556.136998 308.954002 
L 556.225992 309.744633 
L 556.270408 308.163621 
L 556.31477 309.428307 
L 556.359078 309.586642 
L 556.447533 308.321606 
L 556.49168 309.744656 
L 556.579814 309.428546 
L 556.623801 310.219099 
L 556.667736 309.428627 
L 556.711617 309.428601 
L 556.799221 310.061009 
L 556.930234 309.112273 
L 557.017315 308.637979 
L 557.060778 308.163769 
L 557.104189 309.744805 
L 557.190856 309.428597 
L 557.234112 309.428784 
L 557.277317 309.902949 
L 557.320471 309.428579 
L 557.406626 308.321916 
L 557.449627 308.638197 
L 557.535478 310.061229 
L 557.578327 308.32184 
L 557.621126 309.903096 
L 557.663875 309.744953 
L 557.749223 309.903085 
L 557.791822 308.796191 
L 557.834372 308.796272 
L 557.961723 309.270653 
L 558.004074 310.219249 
L 558.046377 308.954453 
L 558.130834 310.377373 
L 558.215097 309.903044 
L 558.257155 309.903046 
L 558.38304 308.005825 
L 558.508492 309.586893 
L 558.633513 309.586986 
L 558.840933 308.480272 
L 558.923572 309.270748 
L 558.964821 308.638399 
L 559.006023 309.270781 
L 559.047179 309.27077 
L 559.129352 309.587097 
L 559.170369 308.796423 
L 559.21134 309.270803 
L 559.252265 309.745208 
L 559.333978 308.322206 
L 559.374765 309.428963 
L 559.415507 308.796511 
L 559.456204 309.428944 
L 559.578021 310.061426 
L 559.618537 309.745198 
L 559.659008 308.322284 
L 559.699433 309.587136 
L 559.820442 309.745304 
L 559.900892 308.322297 
L 559.94105 309.112789 
L 560.021235 309.903442 
L 560.181076 308.63856 
L 560.220927 310.693933 
L 560.300499 309.429053 
L 560.340219 308.796681 
L 560.419531 309.270993 
L 560.459123 309.27099 
L 560.538177 309.587252 
L 560.577639 307.689876 
L 560.656437 311.168327 
L 560.695772 309.903548 
L 560.735064 309.745363 
L 560.774315 308.322368 
L 560.852689 308.954732 
L 560.891813 309.271009 
L 560.969934 308.480523 
L 561.008933 308.638644 
L 561.047889 308.796747 
L 561.086804 310.377876 
L 561.16451 309.903526 
L 561.319426 308.954847 
L 561.435182 308.638682 
L 561.473686 309.745411 
L 561.550572 309.42932 
L 561.588954 309.429184 
L 561.665598 309.112975 
L 561.818403 310.219799 
L 562.008513 308.164419 
L 562.122105 310.219852 
L 562.15989 309.745508 
L 562.197636 310.061723 
L 562.235343 309.271164 
L 562.273012 309.429298 
L 562.310641 310.21977 
L 562.348232 309.355325 
L 562.385783 85.17605 
L 562.460771 110.67666 
L 562.498207 105.587558 
L 562.572964 108.028063 
L 562.684813 132.103061 
L 562.72202 128.366408 
L 562.79632 126.282102 
L 563.018315 159.852286 
L 563.202283 237.011369 
L 563.238966 237.766321 
L 563.531105 280.566338 
L 563.603775 275.498336 
L 563.71251 294.360761 
L 563.78482 294.124591 
L 563.820921 264.868914 
L 563.893016 291.605715 
L 564.072633 303.883305 
L 564.10845 303.874192 
L 564.322619 307.65915 
L 564.358192 306.79195 
L 564.39373 306.836653 
L 564.429233 308.846134 
L 564.500136 308.54048 
L 564.535536 307.689253 
L 564.606233 308.387389 
L 564.64153 309.052143 
L 564.712022 308.847538 
L 564.747217 307.850933 
L 564.782378 309.043886 
L 564.887657 309.177832 
L 564.922683 309.059509 
L 564.957675 308.626451 
L 564.992634 309.254181 
L 565.027559 309.337447 
L 565.06245 309.978882 
L 565.097309 308.631519 
L 565.132134 309.296742 
L 565.166925 308.692669 
L 565.201684 309.547238 
L 565.236409 309.536677 
L 565.271102 310.175531 
L 565.305761 308.930844 
L 565.340387 308.938591 
L 565.478565 310.547973 
L 565.513028 310.096836 
L 565.650554 308.997797 
L 565.719123 309.332028 
L 565.753359 308.843331 
L 565.787563 309.483604 
L 565.821735 309.16823 
L 565.855875 310.603414 
L 565.924059 309.344153 
L 565.958103 309.975959 
L 565.992116 309.825237 
L 566.026096 308.874342 
L 566.093963 309.352754 
L 566.127849 309.832627 
L 566.161704 308.887896 
L 566.195527 309.358653 
L 566.263079 309.362673 
L 566.364173 308.264128 
L 566.431414 310.000646 
L 566.464987 308.742594 
L 566.49853 307.954596 
L 566.532043 309.218885 
L 566.565524 308.746663 
L 566.632394 310.008654 
L 566.665784 309.062936 
L 566.765769 308.756437 
L 566.86548 309.374022 
L 566.898657 309.058732 
L 566.931803 310.008875 
L 566.964919 309.700591 
L 566.998005 308.603532 
L 567.031062 310.179 
L 567.064088 310.186629 
L 567.162988 308.442172 
L 567.195895 309.233824 
L 567.228772 309.23455 
L 567.26162 310.657126 
L 567.294438 309.079542 
L 567.327226 309.237022 
L 567.458086 309.7112 
L 567.523341 308.450551 
L 567.621004 308.926223 
L 567.685967 310.822049 
L 567.718406 309.558704 
L 567.750815 308.929279 
L 567.783196 308.93103 
L 567.912432 310.194711 
L 568.041212 309.564678 
L 568.073335 309.881075 
L 568.137498 309.091776 
L 568.201549 309.409175 
L 568.233532 309.408263 
L 568.265487 309.093686 
L 568.297413 309.250686 
L 568.361184 310.200152 
L 568.424842 309.409321 
L 568.520122 308.784355 
L 568.48839 309.570423 
L 568.551827 309.252709 
L 568.583504 309.568316 
L 568.615154 309.314121 
L 568.646776 308.499228 
L 568.678371 309.342804 
L 568.709939 308.925818 
L 568.804477 310.356901 
L 568.835936 310.043144 
L 568.867367 309.726911 
L 568.898771 310.203826 
L 568.930148 310.67814 
L 568.961499 309.095967 
L 569.055388 309.887685 
L 569.086631 310.045812 
L 569.149036 310.362594 
L 569.211335 309.097087 
L 569.273527 309.888507 
L 569.335613 309.571619 
L 569.366617 309.258501 
L 569.397594 310.048885 
L 569.45947 309.417892 
L 569.552086 309.890893 
L 569.644468 310.207373 
L 569.67521 308.473786 
L 569.705927 310.52363 
L 569.767281 308.943244 
L 569.828533 309.734823 
L 569.85912 310.366975 
L 569.889682 309.575265 
L 569.920218 309.893107 
L 570.042107 308.786667 
L 570.133257 309.736359 
L 570.193897 310.209782 
L 570.224179 308.945524 
L 570.284668 308.787207 
L 570.345057 310.369125 
L 570.375214 308.788147 
L 570.435454 310.369621 
L 570.525626 308.947864 
L 570.615577 309.262683 
L 570.645511 311.002883 
L 570.705305 310.05336 
L 570.854364 308.948036 
L 571.002816 310.21242 
L 571.062027 309.106028 
L 571.121143 309.423726 
L 571.180163 310.371599 
L 571.209637 309.739232 
L 571.239088 308.948271 
L 571.297917 309.897559 
L 571.356652 309.26517 
L 571.385984 310.372014 
L 571.473838 308.632626 
L 571.503076 309.581479 
L 571.590648 310.372359 
L 571.707086 308.94987 
L 571.765165 309.740338 
L 571.823152 309.266478 
L 571.90996 309.74075 
L 571.938851 309.582701 
L 571.996562 309.898625 
L 572.025384 308.949896 
L 572.111712 311.005745 
L 572.140443 309.898943 
L 572.169151 309.266735 
L 572.197836 310.373216 
L 572.226499 310.057504 
L 572.25514 310.215077 
L 572.312353 308.792325 
L 572.369477 309.899633 
L 572.511896 308.318457 
L 572.540313 310.057999 
L 572.625431 309.425718 
L 572.65376 310.058319 
L 572.682067 309.108826 
L 572.710352 309.425462 
L 572.738615 309.425857 
L 572.766856 308.476601 
L 572.795075 309.742055 
L 572.823272 309.109661 
L 572.935843 310.216341 
L 572.963932 309.267592 
L 572.991999 310.374452 
L 573.048068 310.058504 
L 573.159949 308.793451 
L 573.104051 310.53292 
L 573.187865 309.426176 
L 573.21576 310.374894 
L 573.299318 310.058274 
L 573.327128 309.268213 
L 573.382684 310.216881 
L 573.410431 309.584622 
L 573.438156 310.53303 
L 573.493544 309.268309 
L 573.548847 309.900859 
L 573.604067 310.533447 
L 573.631645 308.635961 
L 573.659203 310.37536 
L 573.68674 308.477835 
L 573.741751 308.952423 
L 573.769226 308.636237 
L 573.824113 310.217304 
L 573.878918 310.059189 
L 573.98828 309.110773 
L 574.042839 310.375705 
L 574.097316 310.059327 
L 574.151711 310.217509 
L 574.178879 309.743464 
L 574.206026 310.691811 
L 574.260259 310.217615 
L 574.314413 308.794671 
L 574.368485 309.427348 
L 574.395492 310.217702 
L 574.449445 309.901419 
L 574.530224 310.059899 
L 574.583978 309.269314 
L 574.664461 309.111334 
L 574.718017 310.850501 
L 574.771495 308.953025 
L 574.824894 310.044 
L 574.851565 132.652916 
L 574.931459 220.088966 
L 575.117201 300.780477 
L 575.170096 297.602593 
L 575.196516 302.498942 
L 575.328325 308.47796 
L 575.407182 310.16285 
L 575.380915 308.355221 
L 575.43343 309.037527 
L 575.459659 308.381803 
L 575.51206 309.424916 
L 575.538232 309.930684 
L 575.590521 308.856209 
L 575.616637 309.015117 
L 575.642735 308.707884 
L 575.668814 310.125281 
L 575.746938 309.045886 
L 575.798929 309.999131 
L 575.902687 309.688876 
L 575.928581 309.690199 
L 575.954456 309.215961 
L 575.980313 310.488773 
L 576.006151 309.859226 
L 576.031972 309.862568 
L 576.083557 310.177326 
L 576.160799 309.075037 
L 576.18651 310.182122 
L 576.212203 308.758913 
L 576.263534 310.027878 
L 576.391547 308.924416 
L 576.493634 310.34794 
L 576.570013 309.244601 
L 576.620843 309.562188 
L 576.77291 310.671857 
L 576.873936 309.094947 
L 576.899149 309.727636 
L 576.949522 309.252643 
L 576.974683 310.044475 
L 577.050061 309.412618 
L 577.075153 309.412226 
L 577.125284 307.989481 
L 577.150323 309.413536 
L 577.200351 310.99527 
L 577.25031 309.414448 
L 577.275264 309.41392 
L 577.300201 310.047425 
L 577.350024 309.098255 
L 577.399779 308.625233 
L 577.424631 309.88836 
L 577.499085 308.782224 
L 577.598121 309.891963 
L 577.622838 309.574741 
L 577.672222 308.785282 
L 577.721539 309.735077 
L 577.77079 308.943729 
L 577.79539 308.153574 
L 577.819974 309.734631 
L 577.844541 309.420269 
L 577.893625 308.945358 
L 577.967128 310.684787 
L 578.064903 308.630393 
L 578.089305 310.368068 
L 578.162415 309.104204 
L 578.259668 310.053487 
L 578.283941 309.26194 
L 578.308197 309.263597 
L 578.429238 310.054161 
L 578.549878 308.632017 
L 578.622071 310.529306 
L 578.67012 309.580699 
L 578.694121 309.580302 
L 578.718106 309.897141 
L 578.742076 309.264319 
L 578.766029 308.790639 
L 578.813889 309.265733 
L 578.909421 310.688127 
L 579.028485 308.474944 
L 579.17085 310.847004 
L 579.218182 311.005338 
L 579.289064 309.108217 
L 579.336243 309.740999 
L 579.406896 309.266421 
L 579.453923 310.37356 
L 579.524349 309.899677 
L 579.594639 308.793368 
L 579.571224 310.216032 
L 579.618039 309.424784 
L 579.664794 310.373671 
L 579.711489 309.899746 
L 579.734814 308.792994 
L 579.8047 309.741908 
L 579.827965 310.532527 
L 579.897673 309.267765 
L 579.967247 310.374963 
L 580.036689 310.216555 
L 580.129073 309.267857 
L 580.198208 308.793716 
L 580.267212 310.533194 
L 580.290184 308.952153 
L 580.313142 310.849386 
L 580.381929 310.058946 
L 580.404829 310.217242 
L 580.450586 309.110418 
L 580.496285 310.375436 
L 580.519114 310.375345 
L 580.564728 308.636136 
L 580.655785 309.584885 
L 580.678513 309.9012 
L 580.701228 308.636205 
L 580.723928 310.059605 
L 580.769287 309.901402 
L 580.791945 310.375368 
L 580.837219 309.901739 
L 580.905024 310.059715 
L 580.950158 309.268806 
L 580.972704 309.427303 
L 580.995236 310.376259 
L 581.017754 308.478618 
L 581.085225 309.585569 
L 581.130137 309.427035 
L 581.152571 310.692378 
L 581.219794 308.953143 
L 581.242173 310.218143 
L 581.264539 308.953317 
L 581.353867 310.060097 
L 581.376165 310.692191 
L 581.398449 309.427593 
L 581.420719 309.427737 
L 581.465219 308.953399 
L 581.487449 309.743921 
L 581.509665 309.427822 
L 581.531867 309.585735 
L 581.554057 308.479203 
L 581.576232 309.902253 
L 581.642678 309.427783 
L 581.686908 309.744132 
L 581.731085 309.111671 
L 581.819277 311.167288 
L 581.841292 309.744225 
L 581.907257 310.060527 
L 581.929219 308.637567 
L 581.951167 310.535017 
L 582.03883 309.902373 
L 582.126282 308.637833 
L 582.082582 310.218922 
L 582.148112 309.744257 
L 582.191733 310.218743 
L 582.213524 308.321558 
L 582.300559 309.902742 
L 582.322285 309.586433 
L 582.343998 310.376885 
L 582.387386 309.744626 
L 582.40906 310.21878 
L 582.45237 309.270218 
L 582.474006 309.58639 
L 582.517239 309.902697 
L 582.560421 308.796001 
L 582.581993 309.744714 
L 582.668153 309.586701 
L 582.689661 308.954252 
L 582.73264 310.535408 
L 582.75411 310.219121 
L 582.839864 309.428571 
L 582.861272 309.902948 
L 582.882666 310.693474 
L 582.925418 308.638102 
L 582.946775 310.219237 
L 582.968119 309.270511 
L 583.053372 310.06108 
L 583.074654 310.061073 
L 583.202087 308.954358 
L 583.223282 309.428815 
L 583.329075 310.061157 
L 583.434562 309.42887 
L 583.455623 309.745099 
L 583.560745 308.796566 
L 583.518732 309.903185 
L 583.581733 309.42892 
L 583.707407 310.219549 
L 583.749203 309.112783 
L 583.770083 310.377586 
L 583.811807 309.270902 
L 583.853483 310.061332 
L 583.895111 308.954743 
L 583.936692 309.90326 
L 583.978226 308.638547 
L 584.040437 308.954605 
L 584.185186 310.377787 
L 584.288228 308.480505 
L 584.390979 310.377834 
L 584.411494 309.90349 
L 584.431998 310.061664 
L 584.452491 309.587321 
L 584.472971 309.903556 
L 584.534345 310.061659 
L 584.616016 308.638708 
L 584.738181 310.377879 
L 584.758502 308.796821 
L 584.839673 309.745532 
L 584.859938 310.694172 
L 584.859938 310.694172 
" clip-path="url(#pe5c31bfd26)" style="fill: none; stroke: #ffa500; stroke-width: 1.5; stroke-linecap: square"/>
   </g>
   <g id="line2d_18">
    <path d="M 227.739937 169.305471 
L 315.154475 182.963875 
L 338.72339 187.458398 
L 352.918797 190.661015 
L 363.109188 193.205456 
L 371.064134 196.106852 
L 383.123138 198.676382 
L 387.925868 198.92723 
L 392.168791 201.553689 
L 395.968894 201.939779 
L 399.409934 202.936927 
L 402.553946 201.854079 
L 405.448158 203.638818 
L 408.12936 202.521372 
L 410.626769 201.888557 
L 412.963973 202.352857 
L 419.191789 204.827824 
L 421.051778 198.63259 
L 422.82144 202.476266 
L 424.509143 201.977667 
L 426.122143 201.161103 
L 427.666775 203.047216 
L 429.1486 201.338439 
L 430.572525 198.086264 
L 431.942906 201.15106 
L 433.263625 196.140711 
L 434.538155 200.166787 
L 435.769618 200.589789 
L 436.96083 200.773232 
L 438.114339 197.731124 
L 439.232459 200.824411 
L 440.317296 199.941978 
L 441.370775 196.062679 
L 442.394658 200.406625 
L 443.390562 199.876338 
L 444.359976 198.869766 
L 445.304273 199.800112 
L 446.224722 199.981299 
L 447.122497 197.524916 
L 447.998689 188.132418 
L 448.854311 198.258435 
L 449.690307 197.665272 
L 450.507557 198.632726 
L 451.306883 197.243415 
L 452.089055 195.242417 
L 452.854794 198.491844 
L 453.604776 195.123842 
L 454.339636 197.623533 
L 455.059972 195.665359 
L 455.766347 196.691694 
L 456.459292 195.008736 
L 457.139308 197.008403 
L 457.806869 193.238984 
L 458.462423 192.46527 
L 459.106394 196.784069 
L 459.739185 194.260891 
L 460.361176 190.899895 
L 460.972731 190.944441 
L 461.574194 191.150412 
L 462.165892 194.279339 
L 462.748138 191.736221 
L 463.321228 194.41805 
L 463.885447 193.614251 
L 464.441065 194.765607 
L 464.98834 194.639178 
L 465.527518 193.108874 
L 466.058837 192.228341 
L 466.582521 170.401839 
L 467.607844 189.877785 
L 468.109887 191.340921 
L 468.60511 187.240468 
L 469.093694 193.192521 
L 469.575814 193.079502 
L 470.051641 191.455806 
L 470.521336 191.943982 
L 470.985055 191.795322 
L 471.442948 192.097468 
L 471.89516 189.510771 
L 472.341829 191.229445 
L 472.783091 188.891111 
L 473.219075 191.635356 
L 473.649905 191.630776 
L 474.075702 189.353409 
L 474.496582 190.384442 
L 475.324037 191.329369 
L 476.133122 189.179236 
L 476.531028 190.382958 
L 476.924636 190.667495 
L 477.31404 190.317572 
L 477.699327 188.45419 
L 478.080583 188.506302 
L 478.457893 182.215318 
L 478.831337 184.067182 
L 479.200993 183.059677 
L 479.566938 186.049656 
L 479.929245 190.535544 
L 480.287986 190.566859 
L 480.643231 190.421779 
L 480.995046 190.666291 
L 481.68865 189.742399 
L 482.030565 190.170863 
L 482.369301 189.778031 
L 482.704919 189.932186 
L 483.037474 188.430195 
L 483.367022 187.807872 
L 483.693618 188.448702 
L 484.017313 188.363953 
L 484.971498 188.634792 
L 485.284088 189.038625 
L 485.59402 188.655903 
L 486.206088 187.536643 
L 486.508311 188.002452 
L 487.10534 187.572537 
L 487.400226 187.499934 
L 487.692746 187.213827 
L 487.982937 187.159018 
L 488.556479 187.391011 
L 488.8399 187.203216 
L 489.121134 187.297661 
L 489.400215 187.252614 
L 489.677175 186.351631 
L 489.952047 187.369535 
L 490.224861 187.307101 
L 490.495648 186.628875 
L 490.764439 187.07454 
L 491.031261 186.505083 
L 491.296145 186.737339 
L 491.559117 186.463294 
L 492.079437 186.570147 
L 492.592433 186.468001 
L 493.098309 186.239876 
L 493.348639 186.21516 
L 493.59726 185.977934 
L 493.844198 186.285219 
L 494.089473 186.001946 
L 494.333109 185.975584 
L 494.575127 185.655585 
L 494.815549 185.854457 
L 495.054395 185.651573 
L 495.291686 185.934592 
L 495.527442 185.700352 
L 495.761683 185.863829 
L 496.455508 185.641972 
L 496.683878 185.65656 
L 497.13637 185.281972 
L 497.583314 185.418121 
L 497.804747 185.387799 
L 498.024843 185.518206 
L 498.243618 185.423846 
L 498.461088 184.947096 
L 498.677267 185.486671 
L 498.892172 184.947189 
L 499.105818 185.016824 
L 499.318218 184.968724 
L 499.529388 185.174483 
L 499.739341 184.898656 
L 500.362041 184.609454 
L 500.567265 184.897197 
L 500.771341 184.753321 
L 501.3768 184.942541 
L 501.576405 184.738088 
L 501.774923 184.287538 
L 501.972365 184.635883 
L 502.168744 184.490701 
L 502.36407 184.495239 
L 502.75161 184.704246 
L 502.943846 184.498504 
L 503.325302 184.504526 
L 503.702807 184.24378 
L 503.890103 184.731651 
L 504.076442 184.338708 
L 504.62981 184.272236 
L 504.812414 184.44629 
L 504.994109 184.019641 
L 505.174902 184.225417 
L 505.354802 184.091948 
L 505.533819 184.240354 
L 505.889237 184.272974 
L 506.065654 183.859285 
L 506.241222 184.121651 
L 506.415948 183.859786 
L 506.589841 183.981719 
L 506.762907 183.520719 
L 507.106595 184.079692 
L 507.277231 183.736215 
L 507.447072 183.886054 
L 507.784398 183.686266 
L 507.951897 183.608107 
L 508.11863 183.704688 
L 508.284604 183.601389 
L 508.449825 183.811363 
L 508.614301 183.268107 
L 508.778038 183.568904 
L 509.264882 183.234316 
L 509.425728 183.44217 
L 509.585868 183.387055 
L 509.745308 183.118413 
L 510.062109 183.670269 
L 510.219483 183.475333 
L 510.532207 183.448294 
L 510.687569 183.157225 
L 510.99632 183.528124 
L 511.14972 183.122221 
L 511.302477 183.202789 
L 511.454596 182.9877 
L 511.756944 183.104096 
L 511.907182 183.276334 
L 512.056804 183.181288 
L 512.205814 183.223798 
L 512.354217 183.059753 
L 512.502019 183.159312 
L 512.795836 183.035597 
L 512.941861 183.156793 
L 513.376458 183.00323 
L 513.663337 183.110915 
L 513.805934 183.000296 
L 514.089466 182.999312 
L 514.788792 182.865784 
L 514.927062 182.742866 
L 515.064809 182.778176 
L 515.202037 182.606403 
L 515.33875 182.857285 
L 515.474953 182.851874 
L 515.610649 182.66402 
L 515.880534 182.730042 
L 516.01473 182.603121 
L 516.148435 182.745283 
L 516.54663 182.618125 
L 516.940522 182.578871 
L 517.070879 182.462892 
L 517.200772 182.591806 
L 517.587694 182.427811 
L 517.715761 182.276514 
L 517.84338 182.560076 
L 518.097284 182.455742 
L 518.223576 182.629083 
L 518.724412 182.239058 
L 518.848553 182.43933 
L 519.095574 182.286056 
L 519.340932 182.29726 
L 519.462994 182.107218 
L 519.584649 182.371493 
L 519.7059 182.21503 
L 520.186907 182.215013 
L 520.779374 182.148321 
L 521.01369 182.101001 
L 521.362364 182.075539 
L 521.477852 181.668449 
L 521.707735 181.801239 
L 521.822135 182.366437 
L 521.936177 181.802562 
L 522.049863 181.946116 
L 522.163196 181.784174 
L 522.276177 182.029415 
L 522.501095 181.930102 
L 522.83589 181.981552 
L 523.05739 181.90257 
L 523.277553 181.897846 
L 523.387137 181.953664 
L 523.496393 181.842554 
L 523.605323 181.95084 
L 523.713928 181.769178 
L 523.930172 181.765616 
L 524.037814 181.716684 
L 524.14514 181.943826 
L 524.465234 181.866413 
L 524.57131 181.960552 
L 524.677079 175.036507 
L 524.782541 51.223508 
L 524.992555 67.812595 
L 525.201365 105.105387 
L 525.820714 177.221686 
L 526.024847 187.465964 
L 526.126486 179.587646 
L 526.227842 189.679184 
L 526.328918 187.433343 
L 526.429714 188.445573 
L 526.530232 181.677745 
L 526.630473 160.31483 
L 526.929554 188.240594 
L 527.028705 187.468135 
L 527.127587 188.717108 
L 527.324549 176.081806 
L 527.520453 186.96113 
L 527.812348 183.262916 
L 527.909129 183.596283 
L 528.005654 183.339625 
L 528.101924 184.645595 
L 528.19794 183.107675 
L 528.293704 183.387564 
L 528.484481 182.175496 
L 528.674264 183.354222 
L 528.863064 182.28307 
L 529.050892 182.381153 
L 529.144443 182.379126 
L 529.33083 182.080585 
L 529.423667 182.049644 
L 529.516268 181.876676 
L 529.608634 182.004818 
L 529.700767 181.654751 
L 529.884338 181.884615 
L 530.519649 181.358788 
L 530.60951 181.457032 
L 530.966757 181.103818 
L 531.144075 180.980816 
L 531.232412 180.873768 
L 531.408446 180.963556 
L 531.757984 180.716889 
L 531.931504 180.560189 
L 532.017955 180.696312 
L 532.104202 180.570579 
L 532.190245 180.631028 
L 532.70228 180.432801 
L 532.871373 180.415202 
L 533.123549 180.239095 
L 533.207222 180.316059 
L 533.457094 180.197161 
L 534.277839 179.95695 
L 534.358907 179.979511 
L 534.601032 179.842649 
L 534.841559 179.807255 
L 535.159813 179.750266 
L 536.020948 179.450012 
L 536.098233 179.585177 
L 536.329111 179.423541 
L 539.275395 178.846502 
L 539.346085 178.91059 
L 539.416638 178.802634 
L 539.487055 178.906764 
L 539.627482 178.824356 
L 539.906723 178.769173 
L 539.976201 178.690581 
L 540.045546 178.756544 
L 543.480952 178.18439 
L 543.543945 178.297927 
L 543.732274 178.1621 
L 544.476006 178.09434 
L 544.537304 177.95674 
L 544.598499 178.050998 
L 544.902942 177.951855 
L 544.963527 178.060913 
L 545.024011 177.942983 
L 545.324936 177.893203 
L 545.444614 177.881863 
L 545.563899 177.87808 
L 545.682796 177.88758 
L 545.860417 177.816274 
L 546.037177 177.847758 
L 546.271531 177.77071 
L 546.446313 177.787707 
L 546.678059 177.681821 
L 546.793382 177.695994 
L 547.137178 177.605468 
L 547.25106 177.702568 
L 547.421218 177.604383 
L 548.094015 177.554493 
L 548.260292 177.4711 
L 548.315549 177.56557 
L 548.370723 177.492949 
L 548.590587 177.429438 
L 549.24233 177.379277 
L 549.457014 177.326936 
L 549.617201 177.325664 
L 550.198602 177.30714 
L 550.407742 177.170346 
L 550.511863 177.256368 
L 550.563813 177.20708 
L 551.028057 177.190702 
L 551.283437 177.070804 
L 551.486461 177.023713 
L 553.216277 176.817039 
L 553.264514 176.777217 
L 553.360796 176.870262 
L 553.408842 176.837234 
L 553.695797 176.806759 
L 553.933211 176.731144 
L 554.027746 176.815944 
L 554.122036 176.734121 
L 554.16909 176.817429 
L 554.216083 176.757514 
L 555.28053 176.580678 
L 555.417107 176.581636 
L 555.823794 176.548014 
L 556.181522 176.433553 
L 556.31477 176.470983 
L 557.190856 176.325038 
L 557.320471 176.367769 
L 557.535478 176.299567 
L 557.663875 176.306267 
L 558.675091 176.196437 
L 558.716623 176.089152 
L 558.799543 176.173765 
L 559.006023 176.10972 
L 559.170369 176.100738 
L 560.813523 175.887057 
L 560.852689 175.966183 
L 560.930894 175.917922 
L 561.086804 175.856064 
L 561.280759 175.843189 
L 562.273012 175.622265 
L 562.310641 175.508669 
L 562.348232 175.58391 
L 562.385783 78.434006 
L 562.460771 100.336962 
L 562.684813 117.662317 
L 562.72202 116.94722 
L 562.79632 119.169439 
L 563.018315 148.189469 
L 563.202283 201.375852 
L 563.238966 195.772238 
L 563.312221 201.278244 
L 563.348793 199.052548 
L 563.421827 200.62302 
L 563.603775 190.279124 
L 563.640056 195.471305 
L 563.676301 197.265654 
L 563.71251 196.560854 
L 563.78482 191.397223 
L 563.820921 175.085794 
L 563.893016 192.299011 
L 563.92901 195.080305 
L 564.000892 193.478127 
L 564.072633 192.953972 
L 564.287011 188.75145 
L 564.322619 189.050237 
L 564.464702 186.012166 
L 564.500136 187.02359 
L 564.535536 185.31578 
L 564.570902 186.056 
L 564.747217 184.342067 
L 564.852598 182.56849 
L 564.992634 182.70452 
L 565.027559 182.76631 
L 565.06245 181.956938 
L 565.097309 182.65944 
L 565.132134 182.932162 
L 565.166925 182.46536 
L 565.236409 181.490637 
L 565.305761 181.694437 
L 565.340387 181.841519 
L 565.374981 180.941842 
L 565.44407 181.41308 
L 565.547458 181.074539 
L 565.581856 181.217694 
L 565.684854 181.023174 
L 566.026096 180.187153 
L 566.060045 180.291487 
L 566.093963 180.156322 
L 566.161704 180.032055 
L 566.330506 179.58416 
L 566.397809 179.688723 
L 566.464987 179.59611 
L 566.49853 179.466161 
L 566.598975 179.515186 
L 566.632394 179.525652 
L 566.832273 178.693592 
L 566.898657 179.202591 
L 566.964919 179.097561 
L 567.097084 178.806137 
L 567.359985 178.298775 
L 567.425415 178.397859 
L 567.523341 178.438512 
L 567.718406 178.235366 
L 568.073335 177.881575 
L 568.105431 177.925994 
L 568.137498 177.983822 
L 568.169538 177.878411 
L 568.646776 177.485782 
L 568.741479 177.067437 
L 568.772992 177.489302 
L 568.867367 177.358047 
L 568.898771 177.404663 
L 568.930148 177.365223 
L 569.024118 177.243119 
L 569.055388 177.255935 
L 569.086631 177.355299 
L 569.117847 177.254188 
L 569.149036 177.145749 
L 569.242444 177.184875 
L 569.428545 176.973773 
L 569.45947 177.101313 
L 569.490368 176.945724 
L 569.52124 176.976385 
L 569.644468 176.955418 
L 569.767281 176.822628 
L 569.79792 176.999812 
L 569.828533 176.773281 
L 569.85912 176.859422 
L 569.981213 176.738056 
L 572.025384 175.893291 
L 572.054183 175.972298 
L 572.111712 175.884631 
L 572.25514 175.826667 
L 572.312353 175.774936 
L 572.369477 175.818465 
L 572.483456 175.684428 
L 572.597081 175.781128 
L 572.738615 175.629627 
L 572.851447 175.62693 
L 572.907733 175.544258 
L 572.935843 175.750051 
L 573.020044 175.577176 
L 573.438156 175.45816 
L 573.521206 175.331706 
L 573.576467 175.358847 
L 573.714256 175.263487 
L 573.741751 175.309407 
L 574.798204 175.01224 
L 574.824894 173.904498 
L 574.851565 99.957591 
L 574.931459 149.440578 
L 575.090724 179.794083 
L 575.117201 180.648085 
L 575.143658 180.068281 
L 575.170096 174.675803 
L 575.196516 180.737661 
L 575.249296 179.783074 
L 575.302001 179.818578 
L 575.328325 178.621311 
L 575.354629 181.029298 
L 575.43343 179.352871 
L 575.459659 179.221734 
L 575.485869 179.713701 
L 575.51206 179.132616 
L 575.564386 179.205305 
L 575.746938 178.392889 
L 575.772943 178.480913 
L 575.928581 177.807504 
L 575.980313 177.883873 
L 576.006151 177.753975 
L 576.031972 177.769735 
L 576.263534 177.271559 
L 576.289172 177.282738 
L 576.36598 177.094909 
L 576.340396 177.299167 
L 576.417095 177.106394 
L 576.620843 176.767276 
L 577.37491 175.963486 
L 577.449466 175.871569 
L 577.474284 175.969678 
L 577.622838 175.709873 
L 577.918143 175.494971 
L 578.50167 175.011511 
L 578.525782 175.140484 
L 578.598023 174.973733 
L 578.622071 175.036591 
L 578.67012 174.951477 
L 578.813889 174.84962 
L 579.052251 174.767567 
L 579.147161 174.606397 
L 579.194524 174.652317 
L 579.336243 174.518433 
L 579.477413 174.459561 
L 579.618039 174.338492 
L 580.290184 173.941385 
L 580.359014 173.898637 
L 580.381929 174.013497 
L 580.519114 173.864277 
L 581.753153 173.305686 
L 581.885282 173.253617 
L 582.495629 173.048774 
L 582.625099 172.966552 
L 582.646632 173.01176 
L 582.73264 172.950598 
L 582.797012 172.888155 
L 582.818445 172.925814 
L 583.032077 172.817086 
L 583.159659 172.792845 
L 583.244465 172.740157 
L 583.265636 172.769097 
L 583.286795 172.797909 
L 583.329075 172.691726 
L 583.350197 172.709911 
L 583.497708 172.624542 
L 583.581733 172.674601 
L 583.602708 172.649597 
L 583.707407 172.56707 
L 583.728311 172.6326 
L 583.770083 172.539182 
L 583.811807 172.554746 
L 583.978226 172.468834 
L 583.998975 172.503643 
L 584.019712 172.529199 
L 584.081853 172.44958 
L 584.143888 172.409826 
L 584.185186 172.453092 
L 584.247046 172.432303 
L 584.308801 172.306001 
L 584.370452 172.341006 
L 584.55478 172.293075 
L 584.67715 172.238342 
L 584.697505 172.26953 
L 584.859938 172.191158 
L 584.859938 172.191158 
" clip-path="url(#pe5c31bfd26)" style="fill: none; stroke: #008000; stroke-width: 1.5; stroke-linecap: square"/>
   </g>
   <g id="patch_3">
    <path d="M 227.739937 311.6435 
L 227.739937 45.5315 
" style="fill: none; stroke: #000000; stroke-width: 0.8; stroke-linejoin: miter; stroke-linecap: square"/>
   </g>
   <g id="patch_4">
    <path d="M 584.859938 311.6435 
L 584.859938 45.5315 
" style="fill: none; stroke: #000000; stroke-width: 0.8; stroke-linejoin: miter; stroke-linecap: square"/>
   </g>
   <g id="patch_5">
    <path d="M 227.739937 311.6435 
L 584.859938 311.6435 
" style="fill: none; stroke: #000000; stroke-width: 0.8; stroke-linejoin: miter; stroke-linecap: square"/>
   </g>
   <g id="patch_6">
    <path d="M 227.739937 45.5315 
L 584.859938 45.5315 
" style="fill: none; stroke: #000000; stroke-width: 0.8; stroke-linejoin: miter; stroke-linecap: square"/>
   </g>
   <g id="text_11">
    <!-- Loss of the 09_07_25_CINIC10_torch_model_(1024+8192.2+1)_elk-horse -->
    <g transform="translate(7.2 25.5315) scale(0.264 -0.264)">
     <defs>
      <path id="TimesNewRomanPSMT-20" transform="scale(0.015625)"/>
      <path id="TimesNewRomanPSMT-66" d="M 1319 2638 
L 1319 756 
Q 1319 356 1406 250 
Q 1522 113 1716 113 
L 1975 113 
L 1975 0 
L 266 0 
L 266 113 
L 394 113 
Q 519 113 622 175 
Q 725 238 764 344 
Q 803 450 803 756 
L 803 2638 
L 247 2638 
L 247 2863 
L 803 2863 
L 803 3050 
Q 803 3478 940 3775 
Q 1078 4072 1361 4255 
Q 1644 4438 1997 4438 
Q 2325 4438 2600 4225 
Q 2781 4084 2781 3909 
Q 2781 3816 2700 3733 
Q 2619 3650 2525 3650 
Q 2453 3650 2373 3701 
Q 2294 3753 2178 3923 
Q 2063 4094 1966 4153 
Q 1869 4213 1750 4213 
Q 1606 4213 1506 4136 
Q 1406 4059 1362 3898 
Q 1319 3738 1319 3069 
L 1319 2863 
L 2056 2863 
L 2056 2638 
L 1319 2638 
z
" transform="scale(0.015625)"/>
      <path id="TimesNewRomanPSMT-74" d="M 1031 3803 
L 1031 2863 
L 1700 2863 
L 1700 2644 
L 1031 2644 
L 1031 788 
Q 1031 509 1111 412 
Q 1191 316 1316 316 
Q 1419 316 1516 380 
Q 1613 444 1666 569 
L 1788 569 
Q 1678 263 1478 108 
Q 1278 -47 1066 -47 
Q 922 -47 784 33 
Q 647 113 581 261 
Q 516 409 516 719 
L 516 2644 
L 63 2644 
L 63 2747 
Q 234 2816 414 2980 
Q 594 3144 734 3369 
Q 806 3488 934 3803 
L 1031 3803 
z
" transform="scale(0.015625)"/>
      <path id="TimesNewRomanPSMT-68" d="M 1041 4444 
L 1041 2350 
Q 1388 2731 1591 2839 
Q 1794 2947 1997 2947 
Q 2241 2947 2416 2812 
Q 2591 2678 2675 2391 
Q 2734 2191 2734 1659 
L 2734 647 
Q 2734 375 2778 275 
Q 2809 200 2884 156 
Q 2959 113 3159 113 
L 3159 0 
L 1753 0 
L 1753 113 
L 1819 113 
Q 2019 113 2097 173 
Q 2175 234 2206 353 
Q 2216 403 2216 647 
L 2216 1659 
Q 2216 2128 2167 2275 
Q 2119 2422 2012 2495 
Q 1906 2569 1756 2569 
Q 1603 2569 1437 2487 
Q 1272 2406 1041 2159 
L 1041 647 
Q 1041 353 1073 281 
Q 1106 209 1195 161 
Q 1284 113 1503 113 
L 1503 0 
L 84 0 
L 84 113 
Q 275 113 384 172 
Q 447 203 484 290 
Q 522 378 522 647 
L 522 3238 
Q 522 3728 498 3840 
Q 475 3953 426 3993 
Q 378 4034 297 4034 
Q 231 4034 84 3984 
L 41 4094 
L 897 4444 
L 1041 4444 
z
" transform="scale(0.015625)"/>
      <path id="TimesNewRomanPSMT-65" d="M 681 1784 
Q 678 1147 991 784 
Q 1303 422 1725 422 
Q 2006 422 2214 576 
Q 2422 731 2563 1106 
L 2659 1044 
Q 2594 616 2278 264 
Q 1963 -88 1488 -88 
Q 972 -88 605 314 
Q 238 716 238 1394 
Q 238 2128 614 2539 
Q 991 2950 1559 2950 
Q 2041 2950 2350 2633 
Q 2659 2316 2659 1784 
L 681 1784 
z
M 681 1966 
L 2006 1966 
Q 1991 2241 1941 2353 
Q 1863 2528 1708 2628 
Q 1553 2728 1384 2728 
Q 1125 2728 920 2526 
Q 716 2325 681 1966 
z
" transform="scale(0.015625)"/>
      <path id="TimesNewRomanPSMT-39" d="M 338 -88 
L 338 28 
Q 744 34 1094 217 
Q 1444 400 1770 856 
Q 2097 1313 2225 1859 
Q 1734 1544 1338 1544 
Q 891 1544 572 1889 
Q 253 2234 253 2806 
Q 253 3363 572 3797 
Q 956 4325 1575 4325 
Q 2097 4325 2469 3894 
Q 2925 3359 2925 2575 
Q 2925 1869 2578 1258 
Q 2231 647 1613 244 
Q 1109 -88 516 -88 
L 338 -88 
z
M 2275 2091 
Q 2331 2497 2331 2741 
Q 2331 3044 2228 3395 
Q 2125 3747 1936 3934 
Q 1747 4122 1506 4122 
Q 1228 4122 1018 3872 
Q 809 3622 809 3128 
Q 809 2469 1088 2097 
Q 1291 1828 1588 1828 
Q 1731 1828 1928 1897 
Q 2125 1966 2275 2091 
z
" transform="scale(0.015625)"/>
      <path id="TimesNewRomanPSMT-5f" d="M 3256 -1381 
L -53 -1381 
L -53 -1119 
L 3256 -1119 
L 3256 -1381 
z
" transform="scale(0.015625)"/>
      <path id="TimesNewRomanPSMT-37" d="M 644 4238 
L 2916 4238 
L 2916 4119 
L 1503 -88 
L 1153 -88 
L 2419 3728 
L 1253 3728 
Q 900 3728 750 3644 
Q 488 3500 328 3200 
L 238 3234 
L 644 4238 
z
" transform="scale(0.015625)"/>
      <path id="TimesNewRomanPSMT-43" d="M 3853 4334 
L 3950 2894 
L 3853 2894 
Q 3659 3541 3300 3825 
Q 2941 4109 2438 4109 
Q 2016 4109 1675 3895 
Q 1334 3681 1139 3212 
Q 944 2744 944 2047 
Q 944 1472 1128 1050 
Q 1313 628 1683 403 
Q 2053 178 2528 178 
Q 2941 178 3256 354 
Q 3572 531 3950 1056 
L 4047 994 
Q 3728 428 3303 165 
Q 2878 -97 2294 -97 
Q 1241 -97 663 684 
Q 231 1266 231 2053 
Q 231 2688 515 3219 
Q 800 3750 1298 4042 
Q 1797 4334 2388 4334 
Q 2847 4334 3294 4109 
Q 3425 4041 3481 4041 
Q 3566 4041 3628 4100 
Q 3709 4184 3744 4334 
L 3853 4334 
z
" transform="scale(0.015625)"/>
      <path id="TimesNewRomanPSMT-49" d="M 1975 116 
L 1975 0 
L 159 0 
L 159 116 
L 309 116 
Q 572 116 691 269 
Q 766 369 766 750 
L 766 3488 
Q 766 3809 725 3913 
Q 694 3991 597 4047 
Q 459 4122 309 4122 
L 159 4122 
L 159 4238 
L 1975 4238 
L 1975 4122 
L 1822 4122 
Q 1563 4122 1444 3969 
Q 1366 3869 1366 3488 
L 1366 750 
Q 1366 428 1406 325 
Q 1438 247 1538 191 
Q 1672 116 1822 116 
L 1975 116 
z
" transform="scale(0.015625)"/>
      <path id="TimesNewRomanPSMT-4e" d="M -84 4238 
L 1066 4238 
L 3656 1059 
L 3656 3503 
Q 3656 3894 3569 3991 
Q 3453 4122 3203 4122 
L 3056 4122 
L 3056 4238 
L 4531 4238 
L 4531 4122 
L 4381 4122 
Q 4113 4122 4000 3959 
Q 3931 3859 3931 3503 
L 3931 -69 
L 3819 -69 
L 1025 3344 
L 1025 734 
Q 1025 344 1109 247 
Q 1228 116 1475 116 
L 1625 116 
L 1625 0 
L 150 0 
L 150 116 
L 297 116 
Q 569 116 681 278 
Q 750 378 750 734 
L 750 3681 
Q 566 3897 470 3965 
Q 375 4034 191 4094 
Q 100 4122 -84 4122 
L -84 4238 
z
" transform="scale(0.015625)"/>
      <path id="TimesNewRomanPSMT-72" d="M 1038 2947 
L 1038 2303 
Q 1397 2947 1775 2947 
Q 1947 2947 2059 2842 
Q 2172 2738 2172 2600 
Q 2172 2478 2090 2393 
Q 2009 2309 1897 2309 
Q 1788 2309 1652 2417 
Q 1516 2525 1450 2525 
Q 1394 2525 1328 2463 
Q 1188 2334 1038 2041 
L 1038 669 
Q 1038 431 1097 309 
Q 1138 225 1241 169 
Q 1344 113 1538 113 
L 1538 0 
L 72 0 
L 72 113 
Q 291 113 397 181 
Q 475 231 506 341 
Q 522 394 522 644 
L 522 1753 
Q 522 2253 501 2348 
Q 481 2444 426 2487 
Q 372 2531 291 2531 
Q 194 2531 72 2484 
L 41 2597 
L 906 2947 
L 1038 2947 
z
" transform="scale(0.015625)"/>
      <path id="TimesNewRomanPSMT-63" d="M 2631 1088 
Q 2516 522 2178 217 
Q 1841 -88 1431 -88 
Q 944 -88 581 321 
Q 219 731 219 1428 
Q 219 2103 620 2525 
Q 1022 2947 1584 2947 
Q 2006 2947 2278 2723 
Q 2550 2500 2550 2259 
Q 2550 2141 2473 2067 
Q 2397 1994 2259 1994 
Q 2075 1994 1981 2113 
Q 1928 2178 1911 2362 
Q 1894 2547 1784 2644 
Q 1675 2738 1481 2738 
Q 1169 2738 978 2506 
Q 725 2200 725 1697 
Q 725 1184 976 792 
Q 1228 400 1656 400 
Q 1963 400 2206 609 
Q 2378 753 2541 1131 
L 2631 1088 
z
" transform="scale(0.015625)"/>
      <path id="TimesNewRomanPSMT-6d" d="M 1050 2338 
Q 1363 2650 1419 2697 
Q 1559 2816 1721 2881 
Q 1884 2947 2044 2947 
Q 2313 2947 2506 2790 
Q 2700 2634 2766 2338 
Q 3088 2713 3309 2830 
Q 3531 2947 3766 2947 
Q 3994 2947 4170 2830 
Q 4347 2713 4450 2447 
Q 4519 2266 4519 1878 
L 4519 647 
Q 4519 378 4559 278 
Q 4591 209 4675 161 
Q 4759 113 4950 113 
L 4950 0 
L 3538 0 
L 3538 113 
L 3597 113 
Q 3781 113 3884 184 
Q 3956 234 3988 344 
Q 4000 397 4000 647 
L 4000 1878 
Q 4000 2228 3916 2372 
Q 3794 2572 3525 2572 
Q 3359 2572 3192 2489 
Q 3025 2406 2788 2181 
L 2781 2147 
L 2788 2013 
L 2788 647 
Q 2788 353 2820 281 
Q 2853 209 2943 161 
Q 3034 113 3253 113 
L 3253 0 
L 1806 0 
L 1806 113 
Q 2044 113 2133 169 
Q 2222 225 2256 338 
Q 2272 391 2272 647 
L 2272 1878 
Q 2272 2228 2169 2381 
Q 2031 2581 1784 2581 
Q 1616 2581 1450 2491 
Q 1191 2353 1050 2181 
L 1050 647 
Q 1050 366 1089 281 
Q 1128 197 1204 155 
Q 1281 113 1516 113 
L 1516 0 
L 100 0 
L 100 113 
Q 297 113 375 155 
Q 453 197 493 289 
Q 534 381 534 647 
L 534 1741 
Q 534 2213 506 2350 
Q 484 2453 437 2492 
Q 391 2531 309 2531 
Q 222 2531 100 2484 
L 53 2597 
L 916 2947 
L 1050 2947 
L 1050 2338 
z
" transform="scale(0.015625)"/>
      <path id="TimesNewRomanPSMT-64" d="M 2222 322 
Q 2013 103 1813 7 
Q 1613 -88 1381 -88 
Q 913 -88 563 304 
Q 213 697 213 1313 
Q 213 1928 600 2439 
Q 988 2950 1597 2950 
Q 1975 2950 2222 2709 
L 2222 3238 
Q 2222 3728 2198 3840 
Q 2175 3953 2125 3993 
Q 2075 4034 2000 4034 
Q 1919 4034 1784 3984 
L 1744 4094 
L 2597 4444 
L 2738 4444 
L 2738 1134 
Q 2738 631 2761 520 
Q 2784 409 2836 365 
Q 2888 322 2956 322 
Q 3041 322 3181 375 
L 3216 266 
L 2366 -88 
L 2222 -88 
L 2222 322 
z
M 2222 541 
L 2222 2016 
Q 2203 2228 2109 2403 
Q 2016 2578 1861 2667 
Q 1706 2756 1559 2756 
Q 1284 2756 1069 2509 
Q 784 2184 784 1559 
Q 784 928 1059 592 
Q 1334 256 1672 256 
Q 1956 256 2222 541 
z
" transform="scale(0.015625)"/>
      <path id="TimesNewRomanPSMT-6c" d="M 1184 4444 
L 1184 647 
Q 1184 378 1223 290 
Q 1263 203 1344 158 
Q 1425 113 1647 113 
L 1647 0 
L 244 0 
L 244 113 
Q 441 113 512 153 
Q 584 194 625 287 
Q 666 381 666 647 
L 666 3247 
Q 666 3731 644 3842 
Q 622 3953 573 3993 
Q 525 4034 450 4034 
Q 369 4034 244 3984 
L 191 4094 
L 1044 4444 
L 1184 4444 
z
" transform="scale(0.015625)"/>
      <path id="TimesNewRomanPSMT-28" d="M 1988 -1253 
L 1988 -1369 
Q 1516 -1131 1200 -813 
Q 750 -359 506 256 
Q 263 872 263 1534 
Q 263 2503 741 3301 
Q 1219 4100 1988 4444 
L 1988 4313 
Q 1603 4100 1356 3731 
Q 1109 3363 987 2797 
Q 866 2231 866 1616 
Q 866 947 969 400 
Q 1050 -31 1165 -292 
Q 1281 -553 1476 -793 
Q 1672 -1034 1988 -1253 
z
" transform="scale(0.015625)"/>
      <path id="TimesNewRomanPSMT-2b" d="M 1672 441 
L 1672 2000 
L 116 2000 
L 116 2256 
L 1672 2256 
L 1672 3809 
L 1922 3809 
L 1922 2256 
L 3484 2256 
L 3484 2000 
L 1922 2000 
L 1922 441 
L 1672 441 
z
" transform="scale(0.015625)"/>
      <path id="TimesNewRomanPSMT-38" d="M 1228 2134 
Q 725 2547 579 2797 
Q 434 3047 434 3316 
Q 434 3728 753 4026 
Q 1072 4325 1600 4325 
Q 2113 4325 2425 4047 
Q 2738 3769 2738 3413 
Q 2738 3175 2569 2928 
Q 2400 2681 1866 2347 
Q 2416 1922 2594 1678 
Q 2831 1359 2831 1006 
Q 2831 559 2490 242 
Q 2150 -75 1597 -75 
Q 994 -75 656 303 
Q 388 606 388 966 
Q 388 1247 577 1523 
Q 766 1800 1228 2134 
z
M 1719 2469 
Q 2094 2806 2194 3001 
Q 2294 3197 2294 3444 
Q 2294 3772 2109 3958 
Q 1925 4144 1606 4144 
Q 1288 4144 1088 3959 
Q 888 3775 888 3528 
Q 888 3366 970 3203 
Q 1053 3041 1206 2894 
L 1719 2469 
z
M 1375 2016 
Q 1116 1797 991 1539 
Q 866 1281 866 981 
Q 866 578 1086 336 
Q 1306 94 1647 94 
Q 1984 94 2187 284 
Q 2391 475 2391 747 
Q 2391 972 2272 1150 
Q 2050 1481 1375 2016 
z
" transform="scale(0.015625)"/>
      <path id="TimesNewRomanPSMT-29" d="M 144 4313 
L 144 4444 
Q 619 4209 934 3891 
Q 1381 3434 1625 2820 
Q 1869 2206 1869 1541 
Q 1869 572 1392 -226 
Q 916 -1025 144 -1369 
L 144 -1253 
Q 528 -1038 776 -670 
Q 1025 -303 1145 264 
Q 1266 831 1266 1447 
Q 1266 2113 1163 2663 
Q 1084 3094 967 3353 
Q 850 3613 656 3853 
Q 463 4094 144 4313 
z
" transform="scale(0.015625)"/>
      <path id="TimesNewRomanPSMT-6b" d="M 1047 4444 
L 1047 1594 
L 1775 2259 
Q 2006 2472 2044 2528 
Q 2069 2566 2069 2603 
Q 2069 2666 2017 2711 
Q 1966 2756 1847 2763 
L 1847 2863 
L 3091 2863 
L 3091 2763 
Q 2834 2756 2664 2684 
Q 2494 2613 2291 2428 
L 1556 1750 
L 2291 822 
Q 2597 438 2703 334 
Q 2853 188 2966 144 
Q 3044 113 3238 113 
L 3238 0 
L 1847 0 
L 1847 113 
Q 1966 116 2008 148 
Q 2050 181 2050 241 
Q 2050 313 1925 472 
L 1047 1594 
L 1047 644 
Q 1047 366 1086 278 
Q 1125 191 1197 153 
Q 1269 116 1509 113 
L 1509 0 
L 53 0 
L 53 113 
Q 272 113 381 166 
Q 447 200 481 272 
Q 528 375 528 628 
L 528 3234 
Q 528 3731 506 3842 
Q 484 3953 434 3995 
Q 384 4038 303 4038 
Q 238 4038 106 3984 
L 53 4094 
L 903 4444 
L 1047 4444 
z
" transform="scale(0.015625)"/>
      <path id="TimesNewRomanPSMT-2d" d="M 259 1672 
L 1875 1672 
L 1875 1200 
L 259 1200 
L 259 1672 
z
" transform="scale(0.015625)"/>
     </defs>
     <use xlink:href="#TimesNewRomanPSMT-4c"/>
     <use xlink:href="#TimesNewRomanPSMT-6f" transform="translate(61.083984 0)"/>
     <use xlink:href="#TimesNewRomanPSMT-73" transform="translate(111.083984 0)"/>
     <use xlink:href="#TimesNewRomanPSMT-73" transform="translate(150 0)"/>
     <use xlink:href="#TimesNewRomanPSMT-20" transform="translate(188.916016 0)"/>
     <use xlink:href="#TimesNewRomanPSMT-6f" transform="translate(213.916016 0)"/>
     <use xlink:href="#TimesNewRomanPSMT-66" transform="translate(263.916016 0)"/>
     <use xlink:href="#TimesNewRomanPSMT-20" transform="translate(297.216797 0)"/>
     <use xlink:href="#TimesNewRomanPSMT-74" transform="translate(322.216797 0)"/>
     <use xlink:href="#TimesNewRomanPSMT-68" transform="translate(350 0)"/>
     <use xlink:href="#TimesNewRomanPSMT-65" transform="translate(400 0)"/>
     <use xlink:href="#TimesNewRomanPSMT-20" transform="translate(444.384766 0)"/>
     <use xlink:href="#TimesNewRomanPSMT-30" transform="translate(469.384766 0)"/>
     <use xlink:href="#TimesNewRomanPSMT-39" transform="translate(519.384766 0)"/>
     <use xlink:href="#TimesNewRomanPSMT-5f" transform="translate(569.384766 0)"/>
     <use xlink:href="#TimesNewRomanPSMT-30" transform="translate(619.384766 0)"/>
     <use xlink:href="#TimesNewRomanPSMT-37" transform="translate(669.384766 0)"/>
     <use xlink:href="#TimesNewRomanPSMT-5f" transform="translate(719.384766 0)"/>
     <use xlink:href="#TimesNewRomanPSMT-32" transform="translate(769.384766 0)"/>
     <use xlink:href="#TimesNewRomanPSMT-35" transform="translate(819.384766 0)"/>
     <use xlink:href="#TimesNewRomanPSMT-5f" transform="translate(869.384766 0)"/>
     <use xlink:href="#TimesNewRomanPSMT-43" transform="translate(919.384766 0)"/>
     <use xlink:href="#TimesNewRomanPSMT-49" transform="translate(986.083984 0)"/>
     <use xlink:href="#TimesNewRomanPSMT-4e" transform="translate(1019.384766 0)"/>
     <use xlink:href="#TimesNewRomanPSMT-49" transform="translate(1091.601562 0)"/>
     <use xlink:href="#TimesNewRomanPSMT-43" transform="translate(1124.902344 0)"/>
     <use xlink:href="#TimesNewRomanPSMT-31" transform="translate(1191.601562 0)"/>
     <use xlink:href="#TimesNewRomanPSMT-30" transform="translate(1241.601562 0)"/>
     <use xlink:href="#TimesNewRomanPSMT-5f" transform="translate(1291.601562 0)"/>
     <use xlink:href="#TimesNewRomanPSMT-74" transform="translate(1341.601562 0)"/>
     <use xlink:href="#TimesNewRomanPSMT-6f" transform="translate(1369.384766 0)"/>
     <use xlink:href="#TimesNewRomanPSMT-72" transform="translate(1419.384766 0)"/>
     <use xlink:href="#TimesNewRomanPSMT-63" transform="translate(1452.685547 0)"/>
     <use xlink:href="#TimesNewRomanPSMT-68" transform="translate(1497.070312 0)"/>
     <use xlink:href="#TimesNewRomanPSMT-5f" transform="translate(1547.070312 0)"/>
     <use xlink:href="#TimesNewRomanPSMT-6d" transform="translate(1597.070312 0)"/>
     <use xlink:href="#TimesNewRomanPSMT-6f" transform="translate(1674.853516 0)"/>
     <use xlink:href="#TimesNewRomanPSMT-64" transform="translate(1724.853516 0)"/>
     <use xlink:href="#TimesNewRomanPSMT-65" transform="translate(1774.853516 0)"/>
     <use xlink:href="#TimesNewRomanPSMT-6c" transform="translate(1819.238281 0)"/>
     <use xlink:href="#TimesNewRomanPSMT-5f" transform="translate(1847.021484 0)"/>
     <use xlink:href="#TimesNewRomanPSMT-28" transform="translate(1897.021484 0)"/>
     <use xlink:href="#TimesNewRomanPSMT-31" transform="translate(1930.322266 0)"/>
     <use xlink:href="#TimesNewRomanPSMT-30" transform="translate(1980.322266 0)"/>
     <use xlink:href="#TimesNewRomanPSMT-32" transform="translate(2030.322266 0)"/>
     <use xlink:href="#TimesNewRomanPSMT-34" transform="translate(2080.322266 0)"/>
     <use xlink:href="#TimesNewRomanPSMT-2b" transform="translate(2130.322266 0)"/>
     <use xlink:href="#TimesNewRomanPSMT-38" transform="translate(2186.71875 0)"/>
     <use xlink:href="#TimesNewRomanPSMT-31" transform="translate(2236.71875 0)"/>
     <use xlink:href="#TimesNewRomanPSMT-39" transform="translate(2286.71875 0)"/>
     <use xlink:href="#TimesNewRomanPSMT-32" transform="translate(2336.71875 0)"/>
     <use xlink:href="#TimesNewRomanPSMT-2e" transform="translate(2386.71875 0)"/>
     <use xlink:href="#TimesNewRomanPSMT-32" transform="translate(2411.71875 0)"/>
     <use xlink:href="#TimesNewRomanPSMT-2b" transform="translate(2461.71875 0)"/>
     <use xlink:href="#TimesNewRomanPSMT-31" transform="translate(2518.115234 0)"/>
     <use xlink:href="#TimesNewRomanPSMT-29" transform="translate(2568.115234 0)"/>
     <use xlink:href="#TimesNewRomanPSMT-5f" transform="translate(2601.416016 0)"/>
     <use xlink:href="#TimesNewRomanPSMT-65" transform="translate(2651.416016 0)"/>
     <use xlink:href="#TimesNewRomanPSMT-6c" transform="translate(2695.800781 0)"/>
     <use xlink:href="#TimesNewRomanPSMT-6b" transform="translate(2723.583984 0)"/>
     <use xlink:href="#TimesNewRomanPSMT-2d" transform="translate(2773.583984 0)"/>
     <use xlink:href="#TimesNewRomanPSMT-68" transform="translate(2806.884766 0)"/>
     <use xlink:href="#TimesNewRomanPSMT-6f" transform="translate(2856.884766 0)"/>
     <use xlink:href="#TimesNewRomanPSMT-72" transform="translate(2906.884766 0)"/>
     <use xlink:href="#TimesNewRomanPSMT-73" transform="translate(2940.185547 0)"/>
     <use xlink:href="#TimesNewRomanPSMT-65" transform="translate(2979.101562 0)"/>
    </g>
   </g>
   <g id="legend_1">
    <g id="patch_7">
     <path d="M 243.139938 125.384625 
L 443.697438 125.384625 
Q 448.097438 125.384625 448.097438 120.984625 
L 448.097438 60.9315 
Q 448.097438 56.5315 443.697438 56.5315 
L 243.139938 56.5315 
Q 238.739937 56.5315 238.739937 60.9315 
L 238.739937 120.984625 
Q 238.739937 125.384625 243.139938 125.384625 
z
" style="fill: #ffffff; opacity: 0.8; stroke: #cccccc; stroke-linejoin: miter"/>
    </g>
    <g id="line2d_19">
     <path d="M 247.539938 73.0315 
L 269.539938 73.0315 
L 291.539938 73.0315 
" style="fill: none; stroke: #ffa500; stroke-width: 1.5; stroke-linecap: square"/>
    </g>
    <g id="text_12">
     <!-- Training loss -->
     <g transform="translate(309.139938 80.7315) scale(0.22 -0.22)">
      <defs>
       <path id="TimesNewRomanPSMT-54" d="M 3703 4238 
L 3750 3244 
L 3631 3244 
Q 3597 3506 3538 3619 
Q 3441 3800 3280 3886 
Q 3119 3972 2856 3972 
L 2259 3972 
L 2259 734 
Q 2259 344 2344 247 
Q 2463 116 2709 116 
L 2856 116 
L 2856 0 
L 1059 0 
L 1059 116 
L 1209 116 
Q 1478 116 1591 278 
Q 1659 378 1659 734 
L 1659 3972 
L 1150 3972 
Q 853 3972 728 3928 
Q 566 3869 450 3700 
Q 334 3531 313 3244 
L 194 3244 
L 244 4238 
L 3703 4238 
z
" transform="scale(0.015625)"/>
       <path id="TimesNewRomanPSMT-61" d="M 1822 413 
Q 1381 72 1269 19 
Q 1100 -59 909 -59 
Q 613 -59 420 144 
Q 228 347 228 678 
Q 228 888 322 1041 
Q 450 1253 767 1440 
Q 1084 1628 1822 1897 
L 1822 2009 
Q 1822 2438 1686 2597 
Q 1550 2756 1291 2756 
Q 1094 2756 978 2650 
Q 859 2544 859 2406 
L 866 2225 
Q 866 2081 792 2003 
Q 719 1925 600 1925 
Q 484 1925 411 2006 
Q 338 2088 338 2228 
Q 338 2497 613 2722 
Q 888 2947 1384 2947 
Q 1766 2947 2009 2819 
Q 2194 2722 2281 2516 
Q 2338 2381 2338 1966 
L 2338 994 
Q 2338 584 2353 492 
Q 2369 400 2405 369 
Q 2441 338 2488 338 
Q 2538 338 2575 359 
Q 2641 400 2828 588 
L 2828 413 
Q 2478 -56 2159 -56 
Q 2006 -56 1915 50 
Q 1825 156 1822 413 
z
M 1822 616 
L 1822 1706 
Q 1350 1519 1213 1441 
Q 966 1303 859 1153 
Q 753 1003 753 825 
Q 753 600 887 451 
Q 1022 303 1197 303 
Q 1434 303 1822 616 
z
" transform="scale(0.015625)"/>
       <path id="TimesNewRomanPSMT-69" d="M 928 4444 
Q 1059 4444 1151 4351 
Q 1244 4259 1244 4128 
Q 1244 3997 1151 3903 
Q 1059 3809 928 3809 
Q 797 3809 703 3903 
Q 609 3997 609 4128 
Q 609 4259 701 4351 
Q 794 4444 928 4444 
z
M 1188 2947 
L 1188 647 
Q 1188 378 1227 289 
Q 1266 200 1342 156 
Q 1419 113 1622 113 
L 1622 0 
L 231 0 
L 231 113 
Q 441 113 512 153 
Q 584 194 626 287 
Q 669 381 669 647 
L 669 1750 
Q 669 2216 641 2353 
Q 619 2453 572 2492 
Q 525 2531 444 2531 
Q 356 2531 231 2484 
L 188 2597 
L 1050 2947 
L 1188 2947 
z
" transform="scale(0.015625)"/>
       <path id="TimesNewRomanPSMT-6e" d="M 1034 2341 
Q 1538 2947 1994 2947 
Q 2228 2947 2397 2830 
Q 2566 2713 2666 2444 
Q 2734 2256 2734 1869 
L 2734 647 
Q 2734 375 2778 278 
Q 2813 200 2889 156 
Q 2966 113 3172 113 
L 3172 0 
L 1756 0 
L 1756 113 
L 1816 113 
Q 2016 113 2095 173 
Q 2175 234 2206 353 
Q 2219 400 2219 647 
L 2219 1819 
Q 2219 2209 2117 2386 
Q 2016 2563 1775 2563 
Q 1403 2563 1034 2156 
L 1034 647 
Q 1034 356 1069 288 
Q 1113 197 1189 155 
Q 1266 113 1500 113 
L 1500 0 
L 84 0 
L 84 113 
L 147 113 
Q 366 113 442 223 
Q 519 334 519 647 
L 519 1709 
Q 519 2225 495 2337 
Q 472 2450 423 2490 
Q 375 2531 294 2531 
Q 206 2531 84 2484 
L 38 2597 
L 900 2947 
L 1034 2947 
L 1034 2341 
z
" transform="scale(0.015625)"/>
       <path id="TimesNewRomanPSMT-67" d="M 966 1044 
Q 703 1172 562 1401 
Q 422 1631 422 1909 
Q 422 2334 742 2640 
Q 1063 2947 1563 2947 
Q 1972 2947 2272 2747 
L 2878 2747 
Q 3013 2747 3034 2739 
Q 3056 2731 3066 2713 
Q 3084 2684 3084 2613 
Q 3084 2531 3069 2500 
Q 3059 2484 3036 2475 
Q 3013 2466 2878 2466 
L 2506 2466 
Q 2681 2241 2681 1891 
Q 2681 1491 2375 1206 
Q 2069 922 1553 922 
Q 1341 922 1119 984 
Q 981 866 932 777 
Q 884 688 884 625 
Q 884 572 936 522 
Q 988 472 1138 450 
Q 1225 438 1575 428 
Q 2219 413 2409 384 
Q 2700 344 2873 169 
Q 3047 -6 3047 -263 
Q 3047 -616 2716 -925 
Q 2228 -1381 1444 -1381 
Q 841 -1381 425 -1109 
Q 191 -953 191 -784 
Q 191 -709 225 -634 
Q 278 -519 444 -313 
Q 466 -284 763 25 
Q 600 122 533 198 
Q 466 275 466 372 
Q 466 481 555 628 
Q 644 775 966 1044 
z
M 1509 2797 
Q 1278 2797 1122 2612 
Q 966 2428 966 2047 
Q 966 1553 1178 1281 
Q 1341 1075 1591 1075 
Q 1828 1075 1981 1253 
Q 2134 1431 2134 1813 
Q 2134 2309 1919 2591 
Q 1759 2797 1509 2797 
z
M 934 0 
Q 788 -159 713 -296 
Q 638 -434 638 -550 
Q 638 -700 819 -813 
Q 1131 -1006 1722 -1006 
Q 2284 -1006 2551 -807 
Q 2819 -609 2819 -384 
Q 2819 -222 2659 -153 
Q 2497 -84 2016 -72 
Q 1313 -53 934 0 
z
" transform="scale(0.015625)"/>
      </defs>
      <use xlink:href="#TimesNewRomanPSMT-54"/>
      <use xlink:href="#TimesNewRomanPSMT-72" transform="translate(57.583984 0)"/>
      <use xlink:href="#TimesNewRomanPSMT-61" transform="translate(90.884766 0)"/>
      <use xlink:href="#TimesNewRomanPSMT-69" transform="translate(135.269531 0)"/>
      <use xlink:href="#TimesNewRomanPSMT-6e" transform="translate(163.052734 0)"/>
      <use xlink:href="#TimesNewRomanPSMT-69" transform="translate(213.052734 0)"/>
      <use xlink:href="#TimesNewRomanPSMT-6e" transform="translate(240.835938 0)"/>
      <use xlink:href="#TimesNewRomanPSMT-67" transform="translate(290.835938 0)"/>
      <use xlink:href="#TimesNewRomanPSMT-20" transform="translate(340.835938 0)"/>
      <use xlink:href="#TimesNewRomanPSMT-6c" transform="translate(365.835938 0)"/>
      <use xlink:href="#TimesNewRomanPSMT-6f" transform="translate(393.619141 0)"/>
      <use xlink:href="#TimesNewRomanPSMT-73" transform="translate(443.619141 0)"/>
      <use xlink:href="#TimesNewRomanPSMT-73" transform="translate(482.535156 0)"/>
     </g>
    </g>
    <g id="line2d_20">
     <path d="M 247.539938 104.178687 
L 269.539938 104.178687 
L 291.539938 104.178687 
" style="fill: none; stroke: #008000; stroke-width: 1.5; stroke-linecap: square"/>
    </g>
    <g id="text_13">
     <!-- Validation loss -->
     <g transform="translate(309.139938 111.878687) scale(0.22 -0.22)">
      <defs>
       <path id="TimesNewRomanPSMT-56" d="M 4544 4238 
L 4544 4122 
Q 4319 4081 4203 3978 
Q 4038 3825 3909 3509 
L 2431 -97 
L 2316 -97 
L 728 3556 
Q 606 3838 556 3900 
Q 478 3997 364 4051 
Q 250 4106 56 4122 
L 56 4238 
L 1788 4238 
L 1788 4122 
Q 1494 4094 1406 4022 
Q 1319 3950 1319 3838 
Q 1319 3681 1463 3350 
L 2541 866 
L 3541 3319 
Q 3688 3681 3688 3822 
Q 3688 3913 3597 3995 
Q 3506 4078 3291 4113 
Q 3275 4116 3238 4122 
L 3238 4238 
L 4544 4238 
z
" transform="scale(0.015625)"/>
      </defs>
      <use xlink:href="#TimesNewRomanPSMT-56"/>
      <use xlink:href="#TimesNewRomanPSMT-61" transform="translate(61.091797 0)"/>
      <use xlink:href="#TimesNewRomanPSMT-6c" transform="translate(105.476562 0)"/>
      <use xlink:href="#TimesNewRomanPSMT-69" transform="translate(133.259766 0)"/>
      <use xlink:href="#TimesNewRomanPSMT-64" transform="translate(161.042969 0)"/>
      <use xlink:href="#TimesNewRomanPSMT-61" transform="translate(211.042969 0)"/>
      <use xlink:href="#TimesNewRomanPSMT-74" transform="translate(255.427734 0)"/>
      <use xlink:href="#TimesNewRomanPSMT-69" transform="translate(283.210938 0)"/>
      <use xlink:href="#TimesNewRomanPSMT-6f" transform="translate(310.994141 0)"/>
      <use xlink:href="#TimesNewRomanPSMT-6e" transform="translate(360.994141 0)"/>
      <use xlink:href="#TimesNewRomanPSMT-20" transform="translate(410.994141 0)"/>
      <use xlink:href="#TimesNewRomanPSMT-6c" transform="translate(435.994141 0)"/>
      <use xlink:href="#TimesNewRomanPSMT-6f" transform="translate(463.777344 0)"/>
      <use xlink:href="#TimesNewRomanPSMT-73" transform="translate(513.777344 0)"/>
      <use xlink:href="#TimesNewRomanPSMT-73" transform="translate(552.693359 0)"/>
     </g>
    </g>
   </g>
  </g>
 </g>
 <defs>
  <clipPath id="pe5c31bfd26">
   <rect x="227.739937" y="45.5315" width="357.12" height="266.112"/>
  </clipPath>
 </defs>
</svg>
