<?xml version="1.0" encoding="utf-8" standalone="no"?>
<!DOCTYPE svg PUBLIC "-//W3C//DTD SVG 1.1//EN"
  "http://www.w3.org/Graphics/SVG/1.1/DTD/svg11.dtd">
<svg xmlns:xlink="http://www.w3.org/1999/xlink" width="852.97125pt" height="369.807875pt" viewBox="0 0 852.97125 369.807875" xmlns="http://www.w3.org/2000/svg" version="1.1">
 <metadata>
  <rdf:RDF xmlns:dc="http://purl.org/dc/elements/1.1/" xmlns:cc="http://creativecommons.org/ns#" xmlns:rdf="http://www.w3.org/1999/02/22-rdf-syntax-ns#">
   <cc:Work>
    <dc:type rdf:resource="http://purl.org/dc/dcmitype/StillImage"/>
    <dc:date>2025-07-30T21:42:14.827198</dc:date>
    <dc:format>image/svg+xml</dc:format>
    <dc:creator>
     <cc:Agent>
      <dc:title>Matplotlib v3.10.3, https://matplotlib.org/</dc:title>
     </cc:Agent>
    </dc:creator>
   </cc:Work>
  </rdf:RDF>
 </metadata>
 <defs>
  <style type="text/css">*{stroke-linejoin: round; stroke-linecap: butt}</style>
 </defs>
 <g id="figure_1">
  <g id="patch_1">
   <path d="M 0 369.807875 
L 852.97125 369.807875 
L 852.97125 0 
L 0 0 
z
" style="fill: #ffffff"/>
  </g>
  <g id="axes_1">
   <g id="patch_2">
    <path d="M 247.925625 311.6435 
L 605.045625 311.6435 
L 605.045625 45.5315 
L 247.925625 45.5315 
z
" style="fill: #ffffff"/>
   </g>
   <g id="matplotlib.axis_1">
    <g id="xtick_1">
     <g id="line2d_1">
      <path d="M 247.925625 311.6435 
L 247.925625 45.5315 
" clip-path="url(#pc57203b7f8)" style="fill: none; stroke: #b0b0b0; stroke-opacity: 0.3; stroke-width: 0.8; stroke-linecap: square"/>
     </g>
     <g id="line2d_2">
      <defs>
       <path id="m44d879d75e" d="M 0 0 
L 0 3.5 
" style="stroke: #000000; stroke-width: 0.8"/>
      </defs>
      <g>
       <use xlink:href="#m44d879d75e" x="247.925625" y="311.6435" style="stroke: #000000; stroke-width: 0.8"/>
      </g>
     </g>
     <g id="text_1">
      <!-- 0 -->
      <g transform="translate(242.425625 333.91975) scale(0.22 -0.22)">
       <defs>
        <path id="TimesNewRomanPSMT-30" d="M 231 2094 
Q 231 2819 450 3342 
Q 669 3866 1031 4122 
Q 1313 4325 1613 4325 
Q 2100 4325 2488 3828 
Q 2972 3213 2972 2159 
Q 2972 1422 2759 906 
Q 2547 391 2217 158 
Q 1888 -75 1581 -75 
Q 975 -75 572 641 
Q 231 1244 231 2094 
z
M 844 2016 
Q 844 1141 1059 588 
Q 1238 122 1591 122 
Q 1759 122 1940 273 
Q 2122 425 2216 781 
Q 2359 1319 2359 2297 
Q 2359 3022 2209 3506 
Q 2097 3866 1919 4016 
Q 1791 4119 1609 4119 
Q 1397 4119 1231 3928 
Q 1006 3669 925 3112 
Q 844 2556 844 2016 
z
" transform="scale(0.015625)"/>
       </defs>
       <use xlink:href="#TimesNewRomanPSMT-30"/>
      </g>
     </g>
    </g>
    <g id="xtick_2">
     <g id="line2d_3">
      <path d="M 366.965625 311.6435 
L 366.965625 45.5315 
" clip-path="url(#pc57203b7f8)" style="fill: none; stroke: #b0b0b0; stroke-opacity: 0.3; stroke-width: 0.8; stroke-linecap: square"/>
     </g>
     <g id="line2d_4">
      <g>
       <use xlink:href="#m44d879d75e" x="366.965625" y="311.6435" style="stroke: #000000; stroke-width: 0.8"/>
      </g>
     </g>
     <g id="text_2">
      <!-- 20000 -->
      <g transform="translate(339.465625 333.91975) scale(0.22 -0.22)">
       <defs>
        <path id="TimesNewRomanPSMT-32" d="M 2934 816 
L 2638 0 
L 138 0 
L 138 116 
Q 1241 1122 1691 1759 
Q 2141 2397 2141 2925 
Q 2141 3328 1894 3587 
Q 1647 3847 1303 3847 
Q 991 3847 742 3664 
Q 494 3481 375 3128 
L 259 3128 
Q 338 3706 661 4015 
Q 984 4325 1469 4325 
Q 1984 4325 2329 3994 
Q 2675 3663 2675 3213 
Q 2675 2891 2525 2569 
Q 2294 2063 1775 1497 
Q 997 647 803 472 
L 1909 472 
Q 2247 472 2383 497 
Q 2519 522 2628 598 
Q 2738 675 2819 816 
L 2934 816 
z
" transform="scale(0.015625)"/>
       </defs>
       <use xlink:href="#TimesNewRomanPSMT-32"/>
       <use xlink:href="#TimesNewRomanPSMT-30" transform="translate(50 0)"/>
       <use xlink:href="#TimesNewRomanPSMT-30" transform="translate(100 0)"/>
       <use xlink:href="#TimesNewRomanPSMT-30" transform="translate(150 0)"/>
       <use xlink:href="#TimesNewRomanPSMT-30" transform="translate(200 0)"/>
      </g>
     </g>
    </g>
    <g id="xtick_3">
     <g id="line2d_5">
      <path d="M 486.005625 311.6435 
L 486.005625 45.5315 
" clip-path="url(#pc57203b7f8)" style="fill: none; stroke: #b0b0b0; stroke-opacity: 0.3; stroke-width: 0.8; stroke-linecap: square"/>
     </g>
     <g id="line2d_6">
      <g>
       <use xlink:href="#m44d879d75e" x="486.005625" y="311.6435" style="stroke: #000000; stroke-width: 0.8"/>
      </g>
     </g>
     <g id="text_3">
      <!-- 40000 -->
      <g transform="translate(458.505625 333.91975) scale(0.22 -0.22)">
       <defs>
        <path id="TimesNewRomanPSMT-34" d="M 2978 1563 
L 2978 1119 
L 2409 1119 
L 2409 0 
L 1894 0 
L 1894 1119 
L 100 1119 
L 100 1519 
L 2066 4325 
L 2409 4325 
L 2409 1563 
L 2978 1563 
z
M 1894 1563 
L 1894 3666 
L 406 1563 
L 1894 1563 
z
" transform="scale(0.015625)"/>
       </defs>
       <use xlink:href="#TimesNewRomanPSMT-34"/>
       <use xlink:href="#TimesNewRomanPSMT-30" transform="translate(50 0)"/>
       <use xlink:href="#TimesNewRomanPSMT-30" transform="translate(100 0)"/>
       <use xlink:href="#TimesNewRomanPSMT-30" transform="translate(150 0)"/>
       <use xlink:href="#TimesNewRomanPSMT-30" transform="translate(200 0)"/>
      </g>
     </g>
    </g>
    <g id="xtick_4">
     <g id="line2d_7">
      <path d="M 605.045625 311.6435 
L 605.045625 45.5315 
" clip-path="url(#pc57203b7f8)" style="fill: none; stroke: #b0b0b0; stroke-opacity: 0.3; stroke-width: 0.8; stroke-linecap: square"/>
     </g>
     <g id="line2d_8">
      <g>
       <use xlink:href="#m44d879d75e" x="605.045625" y="311.6435" style="stroke: #000000; stroke-width: 0.8"/>
      </g>
     </g>
     <g id="text_4">
      <!-- 60000 -->
      <g transform="translate(577.545625 333.91975) scale(0.22 -0.22)">
       <defs>
        <path id="TimesNewRomanPSMT-36" d="M 2869 4325 
L 2869 4209 
Q 2456 4169 2195 4045 
Q 1934 3922 1679 3669 
Q 1425 3416 1258 3105 
Q 1091 2794 978 2366 
Q 1428 2675 1881 2675 
Q 2316 2675 2634 2325 
Q 2953 1975 2953 1425 
Q 2953 894 2631 456 
Q 2244 -75 1606 -75 
Q 1172 -75 869 213 
Q 275 772 275 1663 
Q 275 2231 503 2743 
Q 731 3256 1154 3653 
Q 1578 4050 1965 4187 
Q 2353 4325 2688 4325 
L 2869 4325 
z
M 925 2138 
Q 869 1716 869 1456 
Q 869 1156 980 804 
Q 1091 453 1309 247 
Q 1469 100 1697 100 
Q 1969 100 2183 356 
Q 2397 613 2397 1088 
Q 2397 1622 2184 2012 
Q 1972 2403 1581 2403 
Q 1463 2403 1327 2353 
Q 1191 2303 925 2138 
z
" transform="scale(0.015625)"/>
       </defs>
       <use xlink:href="#TimesNewRomanPSMT-36"/>
       <use xlink:href="#TimesNewRomanPSMT-30" transform="translate(50 0)"/>
       <use xlink:href="#TimesNewRomanPSMT-30" transform="translate(100 0)"/>
       <use xlink:href="#TimesNewRomanPSMT-30" transform="translate(150 0)"/>
       <use xlink:href="#TimesNewRomanPSMT-30" transform="translate(200 0)"/>
      </g>
     </g>
    </g>
    <g id="text_5">
     <!-- Number of iterations -->
     <g transform="translate(334.843594 357.901937) scale(0.22 -0.22)">
      <defs>
       <path id="TimesNewRomanPSMT-4e" d="M -84 4238 
L 1066 4238 
L 3656 1059 
L 3656 3503 
Q 3656 3894 3569 3991 
Q 3453 4122 3203 4122 
L 3056 4122 
L 3056 4238 
L 4531 4238 
L 4531 4122 
L 4381 4122 
Q 4113 4122 4000 3959 
Q 3931 3859 3931 3503 
L 3931 -69 
L 3819 -69 
L 1025 3344 
L 1025 734 
Q 1025 344 1109 247 
Q 1228 116 1475 116 
L 1625 116 
L 1625 0 
L 150 0 
L 150 116 
L 297 116 
Q 569 116 681 278 
Q 750 378 750 734 
L 750 3681 
Q 566 3897 470 3965 
Q 375 4034 191 4094 
Q 100 4122 -84 4122 
L -84 4238 
z
" transform="scale(0.015625)"/>
       <path id="TimesNewRomanPSMT-75" d="M 2709 2863 
L 2709 1128 
Q 2709 631 2732 520 
Q 2756 409 2807 365 
Q 2859 322 2928 322 
Q 3025 322 3147 375 
L 3191 266 
L 2334 -88 
L 2194 -88 
L 2194 519 
Q 1825 119 1631 15 
Q 1438 -88 1222 -88 
Q 981 -88 804 51 
Q 628 191 559 409 
Q 491 628 491 1028 
L 491 2306 
Q 491 2509 447 2587 
Q 403 2666 317 2708 
Q 231 2750 6 2747 
L 6 2863 
L 1009 2863 
L 1009 947 
Q 1009 547 1148 422 
Q 1288 297 1484 297 
Q 1619 297 1789 381 
Q 1959 466 2194 703 
L 2194 2325 
Q 2194 2569 2105 2655 
Q 2016 2741 1734 2747 
L 1734 2863 
L 2709 2863 
z
" transform="scale(0.015625)"/>
       <path id="TimesNewRomanPSMT-6d" d="M 1050 2338 
Q 1363 2650 1419 2697 
Q 1559 2816 1721 2881 
Q 1884 2947 2044 2947 
Q 2313 2947 2506 2790 
Q 2700 2634 2766 2338 
Q 3088 2713 3309 2830 
Q 3531 2947 3766 2947 
Q 3994 2947 4170 2830 
Q 4347 2713 4450 2447 
Q 4519 2266 4519 1878 
L 4519 647 
Q 4519 378 4559 278 
Q 4591 209 4675 161 
Q 4759 113 4950 113 
L 4950 0 
L 3538 0 
L 3538 113 
L 3597 113 
Q 3781 113 3884 184 
Q 3956 234 3988 344 
Q 4000 397 4000 647 
L 4000 1878 
Q 4000 2228 3916 2372 
Q 3794 2572 3525 2572 
Q 3359 2572 3192 2489 
Q 3025 2406 2788 2181 
L 2781 2147 
L 2788 2013 
L 2788 647 
Q 2788 353 2820 281 
Q 2853 209 2943 161 
Q 3034 113 3253 113 
L 3253 0 
L 1806 0 
L 1806 113 
Q 2044 113 2133 169 
Q 2222 225 2256 338 
Q 2272 391 2272 647 
L 2272 1878 
Q 2272 2228 2169 2381 
Q 2031 2581 1784 2581 
Q 1616 2581 1450 2491 
Q 1191 2353 1050 2181 
L 1050 647 
Q 1050 366 1089 281 
Q 1128 197 1204 155 
Q 1281 113 1516 113 
L 1516 0 
L 100 0 
L 100 113 
Q 297 113 375 155 
Q 453 197 493 289 
Q 534 381 534 647 
L 534 1741 
Q 534 2213 506 2350 
Q 484 2453 437 2492 
Q 391 2531 309 2531 
Q 222 2531 100 2484 
L 53 2597 
L 916 2947 
L 1050 2947 
L 1050 2338 
z
" transform="scale(0.015625)"/>
       <path id="TimesNewRomanPSMT-62" d="M 984 2369 
Q 1400 2947 1881 2947 
Q 2322 2947 2650 2570 
Q 2978 2194 2978 1541 
Q 2978 778 2472 313 
Q 2038 -88 1503 -88 
Q 1253 -88 995 3 
Q 738 94 469 275 
L 469 3241 
Q 469 3728 445 3840 
Q 422 3953 372 3993 
Q 322 4034 247 4034 
Q 159 4034 28 3984 
L -16 4094 
L 844 4444 
L 984 4444 
L 984 2369 
z
M 984 2169 
L 984 456 
Q 1144 300 1314 220 
Q 1484 141 1663 141 
Q 1947 141 2192 453 
Q 2438 766 2438 1363 
Q 2438 1913 2192 2208 
Q 1947 2503 1634 2503 
Q 1469 2503 1303 2419 
Q 1178 2356 984 2169 
z
" transform="scale(0.015625)"/>
       <path id="TimesNewRomanPSMT-65" d="M 681 1784 
Q 678 1147 991 784 
Q 1303 422 1725 422 
Q 2006 422 2214 576 
Q 2422 731 2563 1106 
L 2659 1044 
Q 2594 616 2278 264 
Q 1963 -88 1488 -88 
Q 972 -88 605 314 
Q 238 716 238 1394 
Q 238 2128 614 2539 
Q 991 2950 1559 2950 
Q 2041 2950 2350 2633 
Q 2659 2316 2659 1784 
L 681 1784 
z
M 681 1966 
L 2006 1966 
Q 1991 2241 1941 2353 
Q 1863 2528 1708 2628 
Q 1553 2728 1384 2728 
Q 1125 2728 920 2526 
Q 716 2325 681 1966 
z
" transform="scale(0.015625)"/>
       <path id="TimesNewRomanPSMT-72" d="M 1038 2947 
L 1038 2303 
Q 1397 2947 1775 2947 
Q 1947 2947 2059 2842 
Q 2172 2738 2172 2600 
Q 2172 2478 2090 2393 
Q 2009 2309 1897 2309 
Q 1788 2309 1652 2417 
Q 1516 2525 1450 2525 
Q 1394 2525 1328 2463 
Q 1188 2334 1038 2041 
L 1038 669 
Q 1038 431 1097 309 
Q 1138 225 1241 169 
Q 1344 113 1538 113 
L 1538 0 
L 72 0 
L 72 113 
Q 291 113 397 181 
Q 475 231 506 341 
Q 522 394 522 644 
L 522 1753 
Q 522 2253 501 2348 
Q 481 2444 426 2487 
Q 372 2531 291 2531 
Q 194 2531 72 2484 
L 41 2597 
L 906 2947 
L 1038 2947 
z
" transform="scale(0.015625)"/>
       <path id="TimesNewRomanPSMT-20" transform="scale(0.015625)"/>
       <path id="TimesNewRomanPSMT-6f" d="M 1600 2947 
Q 2250 2947 2644 2453 
Q 2978 2031 2978 1484 
Q 2978 1100 2793 706 
Q 2609 313 2286 112 
Q 1963 -88 1566 -88 
Q 919 -88 538 428 
Q 216 863 216 1403 
Q 216 1797 411 2186 
Q 606 2575 925 2761 
Q 1244 2947 1600 2947 
z
M 1503 2744 
Q 1338 2744 1170 2645 
Q 1003 2547 900 2300 
Q 797 2053 797 1666 
Q 797 1041 1045 587 
Q 1294 134 1700 134 
Q 2003 134 2200 384 
Q 2397 634 2397 1244 
Q 2397 2006 2069 2444 
Q 1847 2744 1503 2744 
z
" transform="scale(0.015625)"/>
       <path id="TimesNewRomanPSMT-66" d="M 1319 2638 
L 1319 756 
Q 1319 356 1406 250 
Q 1522 113 1716 113 
L 1975 113 
L 1975 0 
L 266 0 
L 266 113 
L 394 113 
Q 519 113 622 175 
Q 725 238 764 344 
Q 803 450 803 756 
L 803 2638 
L 247 2638 
L 247 2863 
L 803 2863 
L 803 3050 
Q 803 3478 940 3775 
Q 1078 4072 1361 4255 
Q 1644 4438 1997 4438 
Q 2325 4438 2600 4225 
Q 2781 4084 2781 3909 
Q 2781 3816 2700 3733 
Q 2619 3650 2525 3650 
Q 2453 3650 2373 3701 
Q 2294 3753 2178 3923 
Q 2063 4094 1966 4153 
Q 1869 4213 1750 4213 
Q 1606 4213 1506 4136 
Q 1406 4059 1362 3898 
Q 1319 3738 1319 3069 
L 1319 2863 
L 2056 2863 
L 2056 2638 
L 1319 2638 
z
" transform="scale(0.015625)"/>
       <path id="TimesNewRomanPSMT-69" d="M 928 4444 
Q 1059 4444 1151 4351 
Q 1244 4259 1244 4128 
Q 1244 3997 1151 3903 
Q 1059 3809 928 3809 
Q 797 3809 703 3903 
Q 609 3997 609 4128 
Q 609 4259 701 4351 
Q 794 4444 928 4444 
z
M 1188 2947 
L 1188 647 
Q 1188 378 1227 289 
Q 1266 200 1342 156 
Q 1419 113 1622 113 
L 1622 0 
L 231 0 
L 231 113 
Q 441 113 512 153 
Q 584 194 626 287 
Q 669 381 669 647 
L 669 1750 
Q 669 2216 641 2353 
Q 619 2453 572 2492 
Q 525 2531 444 2531 
Q 356 2531 231 2484 
L 188 2597 
L 1050 2947 
L 1188 2947 
z
" transform="scale(0.015625)"/>
       <path id="TimesNewRomanPSMT-74" d="M 1031 3803 
L 1031 2863 
L 1700 2863 
L 1700 2644 
L 1031 2644 
L 1031 788 
Q 1031 509 1111 412 
Q 1191 316 1316 316 
Q 1419 316 1516 380 
Q 1613 444 1666 569 
L 1788 569 
Q 1678 263 1478 108 
Q 1278 -47 1066 -47 
Q 922 -47 784 33 
Q 647 113 581 261 
Q 516 409 516 719 
L 516 2644 
L 63 2644 
L 63 2747 
Q 234 2816 414 2980 
Q 594 3144 734 3369 
Q 806 3488 934 3803 
L 1031 3803 
z
" transform="scale(0.015625)"/>
       <path id="TimesNewRomanPSMT-61" d="M 1822 413 
Q 1381 72 1269 19 
Q 1100 -59 909 -59 
Q 613 -59 420 144 
Q 228 347 228 678 
Q 228 888 322 1041 
Q 450 1253 767 1440 
Q 1084 1628 1822 1897 
L 1822 2009 
Q 1822 2438 1686 2597 
Q 1550 2756 1291 2756 
Q 1094 2756 978 2650 
Q 859 2544 859 2406 
L 866 2225 
Q 866 2081 792 2003 
Q 719 1925 600 1925 
Q 484 1925 411 2006 
Q 338 2088 338 2228 
Q 338 2497 613 2722 
Q 888 2947 1384 2947 
Q 1766 2947 2009 2819 
Q 2194 2722 2281 2516 
Q 2338 2381 2338 1966 
L 2338 994 
Q 2338 584 2353 492 
Q 2369 400 2405 369 
Q 2441 338 2488 338 
Q 2538 338 2575 359 
Q 2641 400 2828 588 
L 2828 413 
Q 2478 -56 2159 -56 
Q 2006 -56 1915 50 
Q 1825 156 1822 413 
z
M 1822 616 
L 1822 1706 
Q 1350 1519 1213 1441 
Q 966 1303 859 1153 
Q 753 1003 753 825 
Q 753 600 887 451 
Q 1022 303 1197 303 
Q 1434 303 1822 616 
z
" transform="scale(0.015625)"/>
       <path id="TimesNewRomanPSMT-6e" d="M 1034 2341 
Q 1538 2947 1994 2947 
Q 2228 2947 2397 2830 
Q 2566 2713 2666 2444 
Q 2734 2256 2734 1869 
L 2734 647 
Q 2734 375 2778 278 
Q 2813 200 2889 156 
Q 2966 113 3172 113 
L 3172 0 
L 1756 0 
L 1756 113 
L 1816 113 
Q 2016 113 2095 173 
Q 2175 234 2206 353 
Q 2219 400 2219 647 
L 2219 1819 
Q 2219 2209 2117 2386 
Q 2016 2563 1775 2563 
Q 1403 2563 1034 2156 
L 1034 647 
Q 1034 356 1069 288 
Q 1113 197 1189 155 
Q 1266 113 1500 113 
L 1500 0 
L 84 0 
L 84 113 
L 147 113 
Q 366 113 442 223 
Q 519 334 519 647 
L 519 1709 
Q 519 2225 495 2337 
Q 472 2450 423 2490 
Q 375 2531 294 2531 
Q 206 2531 84 2484 
L 38 2597 
L 900 2947 
L 1034 2947 
L 1034 2341 
z
" transform="scale(0.015625)"/>
       <path id="TimesNewRomanPSMT-73" d="M 2050 2947 
L 2050 1972 
L 1947 1972 
Q 1828 2431 1642 2597 
Q 1456 2763 1169 2763 
Q 950 2763 815 2647 
Q 681 2531 681 2391 
Q 681 2216 781 2091 
Q 878 1963 1175 1819 
L 1631 1597 
Q 2266 1288 2266 781 
Q 2266 391 1970 151 
Q 1675 -88 1309 -88 
Q 1047 -88 709 6 
Q 606 38 541 38 
Q 469 38 428 -44 
L 325 -44 
L 325 978 
L 428 978 
Q 516 541 762 319 
Q 1009 97 1316 97 
Q 1531 97 1667 223 
Q 1803 350 1803 528 
Q 1803 744 1651 891 
Q 1500 1038 1047 1263 
Q 594 1488 453 1669 
Q 313 1847 313 2119 
Q 313 2472 555 2709 
Q 797 2947 1181 2947 
Q 1350 2947 1591 2875 
Q 1750 2828 1803 2828 
Q 1853 2828 1881 2850 
Q 1909 2872 1947 2947 
L 2050 2947 
z
" transform="scale(0.015625)"/>
      </defs>
      <use xlink:href="#TimesNewRomanPSMT-4e"/>
      <use xlink:href="#TimesNewRomanPSMT-75" transform="translate(72.216797 0)"/>
      <use xlink:href="#TimesNewRomanPSMT-6d" transform="translate(122.216797 0)"/>
      <use xlink:href="#TimesNewRomanPSMT-62" transform="translate(200 0)"/>
      <use xlink:href="#TimesNewRomanPSMT-65" transform="translate(250 0)"/>
      <use xlink:href="#TimesNewRomanPSMT-72" transform="translate(294.384766 0)"/>
      <use xlink:href="#TimesNewRomanPSMT-20" transform="translate(327.685547 0)"/>
      <use xlink:href="#TimesNewRomanPSMT-6f" transform="translate(352.685547 0)"/>
      <use xlink:href="#TimesNewRomanPSMT-66" transform="translate(402.685547 0)"/>
      <use xlink:href="#TimesNewRomanPSMT-20" transform="translate(435.986328 0)"/>
      <use xlink:href="#TimesNewRomanPSMT-69" transform="translate(460.986328 0)"/>
      <use xlink:href="#TimesNewRomanPSMT-74" transform="translate(488.769531 0)"/>
      <use xlink:href="#TimesNewRomanPSMT-65" transform="translate(516.552734 0)"/>
      <use xlink:href="#TimesNewRomanPSMT-72" transform="translate(560.9375 0)"/>
      <use xlink:href="#TimesNewRomanPSMT-61" transform="translate(594.238281 0)"/>
      <use xlink:href="#TimesNewRomanPSMT-74" transform="translate(638.623047 0)"/>
      <use xlink:href="#TimesNewRomanPSMT-69" transform="translate(666.40625 0)"/>
      <use xlink:href="#TimesNewRomanPSMT-6f" transform="translate(694.189453 0)"/>
      <use xlink:href="#TimesNewRomanPSMT-6e" transform="translate(744.189453 0)"/>
      <use xlink:href="#TimesNewRomanPSMT-73" transform="translate(794.189453 0)"/>
     </g>
    </g>
   </g>
   <g id="matplotlib.axis_2">
    <g id="ytick_1">
     <g id="line2d_9">
      <path d="M 247.925625 311.6435 
L 605.045625 311.6435 
" clip-path="url(#pc57203b7f8)" style="fill: none; stroke: #b0b0b0; stroke-opacity: 0.3; stroke-width: 0.8; stroke-linecap: square"/>
     </g>
     <g id="line2d_10">
      <defs>
       <path id="m7b7691fd7d" d="M 0 0 
L -3.5 0 
" style="stroke: #000000; stroke-width: 0.8"/>
      </defs>
      <g>
       <use xlink:href="#m7b7691fd7d" x="247.925625" y="311.6435" style="stroke: #000000; stroke-width: 0.8"/>
      </g>
     </g>
     <g id="text_6">
      <!-- 0.0 -->
      <g transform="translate(213.425625 319.281625) scale(0.22 -0.22)">
       <defs>
        <path id="TimesNewRomanPSMT-2e" d="M 800 606 
Q 947 606 1047 504 
Q 1147 403 1147 259 
Q 1147 116 1045 14 
Q 944 -88 800 -88 
Q 656 -88 554 14 
Q 453 116 453 259 
Q 453 406 554 506 
Q 656 606 800 606 
z
" transform="scale(0.015625)"/>
       </defs>
       <use xlink:href="#TimesNewRomanPSMT-30"/>
       <use xlink:href="#TimesNewRomanPSMT-2e" transform="translate(50 0)"/>
       <use xlink:href="#TimesNewRomanPSMT-30" transform="translate(75 0)"/>
      </g>
     </g>
    </g>
    <g id="ytick_2">
     <g id="line2d_11">
      <path d="M 247.925625 257.641734 
L 605.045625 257.641734 
" clip-path="url(#pc57203b7f8)" style="fill: none; stroke: #b0b0b0; stroke-opacity: 0.3; stroke-width: 0.8; stroke-linecap: square"/>
     </g>
     <g id="line2d_12">
      <g>
       <use xlink:href="#m7b7691fd7d" x="247.925625" y="257.641734" style="stroke: #000000; stroke-width: 0.8"/>
      </g>
     </g>
     <g id="text_7">
      <!-- 0.1 -->
      <g transform="translate(213.425625 265.279859) scale(0.22 -0.22)">
       <defs>
        <path id="TimesNewRomanPSMT-31" d="M 750 3822 
L 1781 4325 
L 1884 4325 
L 1884 747 
Q 1884 391 1914 303 
Q 1944 216 2037 169 
Q 2131 122 2419 116 
L 2419 0 
L 825 0 
L 825 116 
Q 1125 122 1212 167 
Q 1300 213 1334 289 
Q 1369 366 1369 747 
L 1369 3034 
Q 1369 3497 1338 3628 
Q 1316 3728 1258 3775 
Q 1200 3822 1119 3822 
Q 1003 3822 797 3725 
L 750 3822 
z
" transform="scale(0.015625)"/>
       </defs>
       <use xlink:href="#TimesNewRomanPSMT-30"/>
       <use xlink:href="#TimesNewRomanPSMT-2e" transform="translate(50 0)"/>
       <use xlink:href="#TimesNewRomanPSMT-31" transform="translate(75 0)"/>
      </g>
     </g>
    </g>
    <g id="ytick_3">
     <g id="line2d_13">
      <path d="M 247.925625 203.639968 
L 605.045625 203.639968 
" clip-path="url(#pc57203b7f8)" style="fill: none; stroke: #b0b0b0; stroke-opacity: 0.3; stroke-width: 0.8; stroke-linecap: square"/>
     </g>
     <g id="line2d_14">
      <g>
       <use xlink:href="#m7b7691fd7d" x="247.925625" y="203.639968" style="stroke: #000000; stroke-width: 0.8"/>
      </g>
     </g>
     <g id="text_8">
      <!-- 0.2 -->
      <g transform="translate(213.425625 211.278093) scale(0.22 -0.22)">
       <use xlink:href="#TimesNewRomanPSMT-30"/>
       <use xlink:href="#TimesNewRomanPSMT-2e" transform="translate(50 0)"/>
       <use xlink:href="#TimesNewRomanPSMT-32" transform="translate(75 0)"/>
      </g>
     </g>
    </g>
    <g id="ytick_4">
     <g id="line2d_15">
      <path d="M 247.925625 149.638202 
L 605.045625 149.638202 
" clip-path="url(#pc57203b7f8)" style="fill: none; stroke: #b0b0b0; stroke-opacity: 0.3; stroke-width: 0.8; stroke-linecap: square"/>
     </g>
     <g id="line2d_16">
      <g>
       <use xlink:href="#m7b7691fd7d" x="247.925625" y="149.638202" style="stroke: #000000; stroke-width: 0.8"/>
      </g>
     </g>
     <g id="text_9">
      <!-- 0.3 -->
      <g transform="translate(213.425625 157.276327) scale(0.22 -0.22)">
       <defs>
        <path id="TimesNewRomanPSMT-33" d="M 325 3431 
Q 506 3859 782 4092 
Q 1059 4325 1472 4325 
Q 1981 4325 2253 3994 
Q 2459 3747 2459 3466 
Q 2459 3003 1878 2509 
Q 2269 2356 2469 2072 
Q 2669 1788 2669 1403 
Q 2669 853 2319 450 
Q 1863 -75 997 -75 
Q 569 -75 414 31 
Q 259 138 259 259 
Q 259 350 332 419 
Q 406 488 509 488 
Q 588 488 669 463 
Q 722 447 909 348 
Q 1097 250 1169 231 
Q 1284 197 1416 197 
Q 1734 197 1970 444 
Q 2206 691 2206 1028 
Q 2206 1275 2097 1509 
Q 2016 1684 1919 1775 
Q 1784 1900 1550 2001 
Q 1316 2103 1072 2103 
L 972 2103 
L 972 2197 
Q 1219 2228 1467 2375 
Q 1716 2522 1828 2728 
Q 1941 2934 1941 3181 
Q 1941 3503 1739 3701 
Q 1538 3900 1238 3900 
Q 753 3900 428 3381 
L 325 3431 
z
" transform="scale(0.015625)"/>
       </defs>
       <use xlink:href="#TimesNewRomanPSMT-30"/>
       <use xlink:href="#TimesNewRomanPSMT-2e" transform="translate(50 0)"/>
       <use xlink:href="#TimesNewRomanPSMT-33" transform="translate(75 0)"/>
      </g>
     </g>
    </g>
    <g id="ytick_5">
     <g id="line2d_17">
      <path d="M 247.925625 95.636436 
L 605.045625 95.636436 
" clip-path="url(#pc57203b7f8)" style="fill: none; stroke: #b0b0b0; stroke-opacity: 0.3; stroke-width: 0.8; stroke-linecap: square"/>
     </g>
     <g id="line2d_18">
      <g>
       <use xlink:href="#m7b7691fd7d" x="247.925625" y="95.636436" style="stroke: #000000; stroke-width: 0.8"/>
      </g>
     </g>
     <g id="text_10">
      <!-- 0.4 -->
      <g transform="translate(213.425625 103.274561) scale(0.22 -0.22)">
       <use xlink:href="#TimesNewRomanPSMT-30"/>
       <use xlink:href="#TimesNewRomanPSMT-2e" transform="translate(50 0)"/>
       <use xlink:href="#TimesNewRomanPSMT-34" transform="translate(75 0)"/>
      </g>
     </g>
    </g>
    <g id="text_11">
     <!-- Loss -->
     <g transform="translate(204.719688 199.368906) rotate(-90) scale(0.22 -0.22)">
      <defs>
       <path id="TimesNewRomanPSMT-4c" d="M 3669 1172 
L 3772 1150 
L 3409 0 
L 128 0 
L 128 116 
L 288 116 
Q 556 116 672 291 
Q 738 391 738 753 
L 738 3488 
Q 738 3884 650 3984 
Q 528 4122 288 4122 
L 128 4122 
L 128 4238 
L 2047 4238 
L 2047 4122 
Q 1709 4125 1573 4059 
Q 1438 3994 1388 3894 
Q 1338 3794 1338 3416 
L 1338 753 
Q 1338 494 1388 397 
Q 1425 331 1503 300 
Q 1581 269 1991 269 
L 2300 269 
Q 2788 269 2984 341 
Q 3181 413 3343 595 
Q 3506 778 3669 1172 
z
" transform="scale(0.015625)"/>
      </defs>
      <use xlink:href="#TimesNewRomanPSMT-4c"/>
      <use xlink:href="#TimesNewRomanPSMT-6f" transform="translate(61.083984 0)"/>
      <use xlink:href="#TimesNewRomanPSMT-73" transform="translate(111.083984 0)"/>
      <use xlink:href="#TimesNewRomanPSMT-73" transform="translate(150 0)"/>
     </g>
    </g>
   </g>
   <g id="line2d_19">
    <path d="M 247.925625 50.934477 
L 248.104215 176.349236 
L 248.461394 192.525207 
L 249.056694 206.476278 
L 249.949642 221.508231 
L 250.902121 234.123349 
L 251.97366 245.403705 
L 253.104728 254.956526 
L 254.057207 261.395153 
L 255.009686 266.687641 
L 256.557464 273.541656 
L 258.938661 281.236249 
L 260.069729 284.107104 
L 260.724558 285.548087 
L 261.319857 286.794932 
L 261.974687 288.085821 
L 263.879644 291.302416 
L 264.474943 292.158366 
L 265.010713 292.928264 
L 269.118277 297.616555 
L 269.475457 297.924871 
L 269.892166 298.326832 
L 270.189816 298.588351 
L 275.011739 302.097434 
L 275.368919 302.295947 
L 276.142808 302.751849 
L 276.559517 302.962492 
L 277.095287 303.26284 
L 279.476483 304.397884 
L 280.012253 304.624632 
L 281.083791 305.068017 
L 281.619561 305.267131 
L 282.631569 305.647863 
L 284.655587 306.326046 
L 285.191356 306.478748 
L 285.846185 306.676448 
L 286.977254 306.998722 
L 288.048792 307.279593 
L 291.680117 308.102385 
L 293.466015 308.441569 
L 294.716143 308.662853 
L 298.466528 309.235368 
L 300.133366 309.447454 
L 301.800204 309.646879 
L 303.764692 309.851034 
L 306.026829 310.063893 
L 310.372513 310.400912 
L 312.932299 310.563293 
L 318.230462 310.831714 
L 320.790249 310.938264 
L 334.601191 311.306727 
L 396.33372 311.628959 
L 471.460481 311.642813 
L 605.045625 311.643413 
L 605.045625 311.643413 
" clip-path="url(#pc57203b7f8)" style="fill: none; stroke: #ffa500; stroke-width: 1.5; stroke-linecap: square"/>
   </g>
   <g id="line2d_20">
    <path d="M 247.925625 50.931677 
L 248.104215 173.216501 
L 248.401864 178.240295 
L 248.818574 181.623216 
L 249.235283 183.489193 
L 249.771053 184.950082 
L 250.604471 186.460652 
L 251.55695 187.641606 
L 252.807079 188.485507 
L 253.164258 188.573508 
L 253.283318 188.615585 
L 253.640497 188.674127 
L 253.759557 188.660801 
L 253.878617 188.736329 
L 253.938147 188.679373 
L 253.997677 188.74638 
L 254.116737 188.776805 
L 254.235797 188.731517 
L 254.354857 188.814851 
L 254.712036 188.774069 
L 254.831096 188.873609 
L 254.950156 188.795514 
L 255.069216 188.906521 
L 255.128746 188.838058 
L 255.247805 188.883957 
L 255.366865 188.927958 
L 255.426395 188.815704 
L 255.485925 188.892825 
L 255.604985 188.92939 
L 255.724045 188.867984 
L 255.843105 188.976963 
L 255.902635 188.886677 
L 255.962164 188.833777 
L 256.021694 188.916966 
L 256.140754 188.934283 
L 256.200284 188.812018 
L 256.259814 188.883016 
L 256.378874 188.963976 
L 256.497934 188.793985 
L 256.616994 188.940648 
L 256.676523 188.892101 
L 256.795583 188.776708 
L 256.914643 188.914431 
L 257.033703 188.721169 
L 257.093233 188.827186 
L 257.212293 188.856292 
L 257.331353 188.668333 
L 257.450412 188.849163 
L 257.629002 188.660358 
L 257.688532 188.801372 
L 257.748062 188.772379 
L 257.867122 188.599838 
L 257.986182 188.767607 
L 258.164772 188.579833 
L 258.283831 188.693383 
L 258.402891 188.469486 
L 258.462421 188.552884 
L 258.581481 188.626457 
L 258.700541 188.430789 
L 258.819601 188.583961 
L 258.879131 188.538456 
L 258.99819 188.411943 
L 259.11725 188.535817 
L 259.17678 188.470275 
L 259.29584 188.350907 
L 259.4149 188.476921 
L 259.53396 188.243819 
L 259.59349 188.290869 
L 259.712549 188.410752 
L 259.831609 188.166666 
L 259.891139 188.24839 
L 260.010199 188.349781 
L 260.129259 188.108245 
L 260.188789 188.198386 
L 260.307849 188.290024 
L 260.426909 188.054717 
L 260.605498 188.200857 
L 260.724558 187.979728 
L 260.903148 188.15198 
L 261.022208 187.932348 
L 261.200798 188.108583 
L 261.319857 187.863829 
L 261.498447 188.013155 
L 261.617507 187.782579 
L 261.796097 187.943461 
L 261.915157 187.725479 
L 262.093746 187.926136 
L 262.212806 187.67282 
L 262.331866 187.858816 
L 262.391396 187.817962 
L 262.510456 187.604606 
L 262.689046 187.77302 
L 262.808105 187.524057 
L 262.867635 187.641163 
L 262.986695 187.712056 
L 263.105755 187.447225 
L 263.165285 187.534067 
L 263.284345 187.642378 
L 263.403405 187.379149 
L 263.462935 187.462442 
L 263.581994 187.577005 
L 263.701054 187.318403 
L 263.760584 187.383035 
L 263.998704 187.436571 
L 264.058234 187.186828 
L 264.117764 187.351982 
L 264.177294 187.403016 
L 264.236824 187.325765 
L 264.415413 187.23968 
L 264.474943 187.099262 
L 264.534473 187.19448 
L 264.653533 187.302349 
L 264.713063 187.175087 
L 264.772593 187.019308 
L 264.832123 187.093927 
L 265.010713 187.133211 
L 265.070242 186.950072 
L 265.129772 186.980739 
L 265.248832 187.118172 
L 265.308362 187.028401 
L 265.367892 186.865435 
L 265.427422 186.890912 
L 265.546482 187.027548 
L 265.606012 186.952744 
L 265.725072 186.788491 
L 265.903661 186.900101 
L 266.022721 186.686673 
L 266.082251 186.762877 
L 266.141781 186.706348 
L 266.201311 186.556909 
L 266.320371 186.801406 
L 266.498961 186.452783 
L 266.61802 186.723576 
L 266.79661 186.390709 
L 266.91567 186.628728 
L 266.9752 186.577469 
L 267.15379 186.354852 
L 267.27285 186.509618 
L 267.451439 186.147154 
L 267.570499 186.432368 
L 267.808619 186.07935 
L 267.927679 186.297156 
L 268.046739 186.034859 
L 268.106268 186.122466 
L 268.225328 186.247136 
L 268.344388 185.970814 
L 268.403918 186.014122 
L 268.582508 186.13349 
L 268.701568 185.850787 
L 268.820628 185.931304 
L 268.880157 185.730574 
L 268.939687 185.919724 
L 268.999217 186.011177 
L 269.058747 185.916956 
L 269.177807 185.689052 
L 269.237337 185.778896 
L 269.296867 185.90668 
L 269.356397 185.852549 
L 269.475457 185.591459 
L 269.534987 185.702643 
L 269.654046 185.822309 
L 269.832636 185.536193 
L 269.951696 185.726591 
L 270.130286 185.390319 
L 270.189816 185.529571 
L 270.308876 185.599756 
L 270.427935 185.311902 
L 270.487465 185.39069 
L 270.606525 185.529394 
L 270.725585 185.244985 
L 270.785115 185.277977 
L 270.904175 185.426418 
L 271.082765 185.087137 
L 271.142294 185.197202 
L 271.201824 185.32077 
L 271.261354 185.252074 
L 271.439944 185.072194 
L 271.559004 185.206883 
L 271.678064 185.105717 
L 271.737594 185.184681 
L 271.856654 184.866885 
L 271.916183 184.968035 
L 272.035243 184.807604 
L 272.154303 185.028402 
L 272.213833 184.95322 
L 272.511483 184.690385 
L 272.630542 184.870128 
L 272.690072 184.832018 
L 272.809132 184.592969 
L 272.987722 184.81347 
L 273.106782 184.477874 
L 273.166312 184.579861 
L 273.285372 184.576545 
L 273.344902 184.348062 
L 273.404431 184.535096 
L 273.463961 184.65345 
L 273.583021 184.360398 
L 273.642551 184.403899 
L 273.702081 184.4362 
L 273.761611 184.266909 
L 273.821141 184.373925 
L 273.940201 184.4959 
L 274.118791 184.205318 
L 274.23785 184.404962 
L 274.29738 184.312784 
L 274.41644 184.07108 
L 274.47597 184.149513 
L 274.59503 184.290479 
L 274.65456 184.217059 
L 274.77362 183.972691 
L 274.952209 184.154076 
L 275.071269 183.856936 
L 275.130799 183.97154 
L 275.249859 184.082732 
L 275.368919 183.788666 
L 275.428449 183.852937 
L 275.607039 183.924965 
L 275.726098 183.655386 
L 275.845158 183.774439 
L 275.904688 183.564448 
L 275.964218 183.710298 
L 276.023748 183.831621 
L 276.083278 183.766248 
L 276.321398 183.635357 
L 276.440457 183.732129 
L 276.559517 183.382789 
L 276.619047 183.520641 
L 276.738107 183.615795 
L 276.916697 183.320965 
L 277.035757 183.514106 
L 277.273876 183.221151 
L 277.333406 183.386998 
L 277.392936 183.362648 
L 277.750116 182.97659 
L 277.869176 183.250973 
L 277.928706 183.124927 
L 277.988235 183.161886 
L 278.047765 183.17073 
L 278.107295 183.056061 
L 278.166825 183.099893 
L 278.226355 183.113025 
L 278.345415 182.795093 
L 278.404945 182.903814 
L 278.464475 182.908216 
L 278.524005 182.715758 
L 278.583535 182.863298 
L 278.702594 182.972736 
L 278.762124 182.851115 
L 278.821654 182.910783 
L 279.119304 182.712025 
L 279.178834 182.510836 
L 279.238364 182.660863 
L 279.357424 182.760266 
L 279.476483 182.651198 
L 279.536013 182.709216 
L 279.655073 182.373725 
L 279.714603 182.501421 
L 279.833663 182.293007 
L 279.893193 182.459731 
L 280.012253 182.515809 
L 280.131313 182.211999 
L 280.190843 182.326466 
L 280.369432 182.381281 
L 280.488492 182.090266 
L 280.548022 182.219249 
L 280.845672 181.972282 
L 280.964732 182.214671 
L 281.024261 182.154085 
L 281.143321 181.869427 
L 281.202851 181.989422 
L 281.321911 181.864285 
L 281.381441 181.938879 
L 281.440971 181.784162 
L 281.500501 181.845037 
L 281.560031 181.880934 
L 281.619561 181.729612 
L 281.679091 181.778336 
L 281.79815 181.926495 
L 281.97674 181.806315 
L 282.21486 181.689337 
L 282.27439 181.781812 
L 282.39345 181.597241 
L 282.45298 181.707153 
L 282.750629 181.280708 
L 282.869689 181.372821 
L 282.929219 181.212237 
L 282.988749 181.349622 
L 283.048279 181.331548 
L 283.107809 181.124582 
L 283.167339 181.289045 
L 283.286398 181.401058 
L 283.345928 181.261404 
L 283.405458 181.294074 
L 283.464988 181.339217 
L 283.584048 180.977509 
L 283.643578 181.117091 
L 283.941228 180.97248 
L 284.000758 180.970106 
L 284.060287 180.820378 
L 284.119817 180.93639 
L 284.417467 180.747433 
L 284.476997 180.827025 
L 284.596057 180.68111 
L 284.715117 180.902311 
L 284.893706 180.514395 
L 284.953236 180.647804 
L 285.012766 180.764701 
L 285.072296 180.721176 
L 285.310416 180.567778 
L 285.369946 180.675992 
L 285.429476 180.566032 
L 285.548535 180.284246 
L 285.608065 180.444475 
L 285.727125 180.552078 
L 285.846185 180.222446 
L 285.905715 180.273044 
L 286.262895 180.200115 
L 286.322424 180.055207 
L 286.381954 180.113547 
L 286.441484 180.15498 
L 286.501014 180.002798 
L 286.560544 180.048319 
L 286.679604 180.239722 
L 286.739134 180.097759 
L 286.798664 180.068525 
L 286.858194 180.189003 
L 287.036784 179.812738 
L 287.096313 179.924542 
L 287.155843 179.771498 
L 287.215373 179.844379 
L 287.393963 180.025707 
L 287.513023 179.652138 
L 287.572553 179.724391 
L 287.632083 179.710164 
L 287.810673 179.579354 
L 287.929732 179.623757 
L 287.989262 179.474093 
L 288.048792 179.597629 
L 288.108322 179.58374 
L 288.167852 179.392143 
L 288.227382 179.54629 
L 288.405972 179.549516 
L 288.525032 179.296764 
L 288.584561 179.450427 
L 288.644091 179.448278 
L 288.703621 179.581446 
L 288.822681 179.224108 
L 288.882211 179.300803 
L 289.41798 179.150439 
L 289.47751 178.981285 
L 289.53704 179.10948 
L 289.83469 178.97286 
L 289.89422 179.005241 
L 289.95375 178.844536 
L 290.01328 178.940512 
L 290.07281 178.922615 
L 290.132339 178.777747 
L 290.191869 178.910738 
L 290.489519 178.769057 
L 290.549049 178.796126 
L 290.608579 178.650043 
L 290.668109 178.723109 
L 290.727639 178.731035 
L 290.787169 178.570242 
L 290.846699 178.692949 
L 291.084818 178.517631 
L 291.203878 178.584895 
L 291.263408 178.439681 
L 291.322938 178.521019 
L 291.382468 178.536855 
L 291.441998 178.356082 
L 291.501528 178.474444 
L 291.977767 178.312331 
L 292.037297 178.343263 
L 292.096827 178.185617 
L 292.156357 178.238718 
L 292.275417 178.454343 
L 292.394476 178.284167 
L 292.454006 178.389662 
L 292.632596 178.076799 
L 292.692126 178.136965 
L 292.751656 177.983769 
L 292.811186 178.033289 
L 292.870716 178.068341 
L 292.930246 177.900314 
L 292.989776 178.000482 
L 293.049306 177.98405 
L 293.108836 177.840309 
L 293.168365 177.978248 
L 293.227895 177.946222 
L 293.287425 177.742821 
L 293.346955 177.927432 
L 293.466015 178.02595 
L 293.525545 177.89613 
L 293.585075 177.952072 
L 293.644605 177.961712 
L 293.823195 177.69952 
L 293.942254 177.899518 
L 294.001784 177.789332 
L 294.061314 177.740929 
L 294.120844 177.868014 
L 294.239904 177.686235 
L 294.299434 177.821181 
L 294.478024 177.495757 
L 294.537554 177.523631 
L 294.597084 177.378143 
L 294.656613 177.483252 
L 294.894733 177.310759 
L 295.013793 177.331142 
L 295.251913 177.246255 
L 295.370973 177.189782 
L 296.263921 177.02429 
L 296.323451 176.76382 
L 296.382981 176.994749 
L 296.442511 177.134355 
L 296.502041 177.000849 
L 296.859221 176.873257 
L 296.918751 176.669229 
L 296.97828 176.778859 
L 297.57358 176.456179 
L 297.63311 176.60384 
L 297.69264 176.567323 
L 297.752169 176.39792 
L 297.871229 176.689314 
L 297.930759 176.604081 
L 297.990289 176.558487 
L 298.049819 176.664618 
L 298.168879 176.532448 
L 298.228409 176.596179 
L 298.347469 176.273257 
L 298.406999 176.311158 
L 298.466528 176.317579 
L 298.645118 176.199741 
L 298.764178 176.24107 
L 298.823708 176.102309 
L 298.883238 176.199435 
L 299.180888 176.060626 
L 299.240417 176.120511 
L 299.359477 176.014131 
L 299.419007 176.070878 
L 299.478537 175.894844 
L 299.538067 176.019861 
L 299.597597 176.04178 
L 299.716657 175.888519 
L 299.835717 176.129475 
L 299.895247 175.997474 
L 300.014306 175.783491 
L 300.073836 175.882726 
L 300.133366 175.72491 
L 300.192896 175.800036 
L 300.252426 175.832497 
L 300.311956 175.64259 
L 300.371486 175.768154 
L 300.431016 175.751529 
L 300.490546 175.583993 
L 300.550076 175.742597 
L 300.669136 175.586487 
L 300.788195 175.809837 
L 300.847725 175.749775 
L 301.026315 175.648899 
L 301.145375 175.679155 
L 301.323965 175.584878 
L 301.443025 175.586262 
L 301.681144 175.516093 
L 301.859734 175.506743 
L 301.978794 175.39745 
L 302.038324 175.458703 
L 302.097854 175.319524 
L 302.157384 175.366373 
L 302.216914 175.376447 
L 302.395503 175.061186 
L 302.455033 175.18168 
L 302.514563 175.11304 
L 302.574093 174.977 
L 302.693153 175.274059 
L 302.752683 175.138372 
L 302.812213 175.199158 
L 303.228922 175.019037 
L 303.288452 175.083702 
L 303.347982 175.001414 
L 303.883751 174.79609 
L 303.943281 174.89637 
L 304.002811 174.792436 
L 304.59811 174.686137 
L 304.7767 174.575991 
L 305.13388 174.45128 
L 305.19341 174.523976 
L 305.25294 174.435911 
L 305.669649 174.388177 
L 305.788709 174.295493 
L 305.967299 174.271996 
L 306.384008 174.082717 
L 306.503068 174.108048 
L 306.681658 174.024666 
L 306.860247 173.94814 
L 306.979307 173.964411 
L 307.217427 173.828982 
L 307.276957 173.930791 
L 307.396017 173.817588 
L 307.455547 173.848262 
L 307.634136 173.754532 
L 307.812726 173.660834 
L 308.229436 173.612666 
L 308.288966 173.516763 
L 308.348495 173.57948 
L 308.646145 173.42366 
L 308.705675 173.519595 
L 308.765205 173.388141 
L 308.824735 173.416128 
L 308.884265 173.433848 
L 309.062855 173.332924 
L 309.122384 173.265491 
L 309.181914 173.390861 
L 309.360504 172.987873 
L 309.539094 173.220364 
L 309.717684 173.116768 
L 309.955803 173.144481 
L 310.074863 173.054469 
L 310.134393 173.076823 
L 310.312983 172.993892 
L 310.551103 172.9033 
L 310.610633 172.958872 
L 310.670162 172.837171 
L 310.729692 172.905521 
L 311.027342 172.773439 
L 311.086872 172.813561 
L 311.146402 172.70348 
L 311.205932 172.760436 
L 311.503581 172.616284 
L 311.563111 172.721955 
L 311.682171 172.559151 
L 311.741701 172.670326 
L 311.801231 172.505945 
L 311.860761 172.572525 
L 312.27747 172.414484 
L 312.39653 172.161055 
L 312.45606 172.277139 
L 312.51559 172.138427 
L 312.57512 172.201756 
L 313.110889 172.059873 
L 313.170419 171.948826 
L 313.229949 172.060919 
L 313.289479 172.039112 
L 313.349009 171.848996 
L 313.527599 172.111164 
L 313.646659 171.794358 
L 313.706188 171.925136 
L 313.884778 171.984474 
L 314.003838 171.691342 
L 314.063368 171.840129 
L 314.182428 172.001405 
L 314.241958 171.837538 
L 314.301488 171.861163 
L 314.361018 171.941053 
L 314.539607 171.790608 
L 314.658667 171.815119 
L 314.837257 171.717575 
L 314.956317 171.711121 
L 315.968325 171.405774 
L 316.027855 171.51468 
L 316.146915 171.364316 
L 316.206445 171.478791 
L 316.325505 171.333448 
L 316.385035 171.427018 
L 316.563625 171.09032 
L 316.682685 171.354596 
L 316.742214 171.207595 
L 316.801744 171.24717 
L 316.980334 171.253108 
L 317.099394 171.156867 
L 317.277984 171.157318 
L 317.516103 171.030692 
L 317.575633 171.097707 
L 317.635163 171.001933 
L 318.230462 170.961505 
L 318.349522 170.801098 
L 318.409052 170.926372 
L 318.468582 170.770053 
L 318.528112 170.815792 
L 318.766232 170.786501 
L 318.944822 170.66031 
L 319.063881 170.707352 
L 319.361531 170.308967 
L 319.480591 170.599974 
L 319.540121 170.542004 
L 319.599651 170.482667 
L 319.659181 170.598751 
L 319.83777 170.44747 
L 320.07589 170.464996 
L 320.25448 170.387247 
L 320.611659 170.245911 
L 320.671189 170.338257 
L 320.790249 170.247038 
L 321.266488 170.171687 
L 321.385548 170.092618 
L 321.445078 170.116581 
L 321.623668 170.016221 
L 321.980848 169.904578 
L 322.040377 170.004778 
L 322.159437 169.894133 
L 322.338027 169.913591 
L 322.576147 169.758833 
L 322.635677 169.829098 
L 322.695207 169.771804 
L 323.290506 169.640141 
L 323.469096 169.574913 
L 323.826275 169.471977 
L 323.885805 169.544126 
L 323.945335 169.457831 
L 324.183455 169.468356 
L 324.421574 169.33407 
L 324.540634 169.336902 
L 324.778754 169.266138 
L 324.838284 169.313116 
L 324.897814 169.229058 
L 325.135933 169.23012 
L 325.374053 169.112523 
L 325.493113 169.107405 
L 325.731233 169.053459 
L 325.790763 169.099921 
L 325.969352 169.007736 
L 326.207472 168.941381 
L 326.326532 168.913539 
L 326.802771 168.806129 
L 327.219481 168.737264 
L 327.63619 168.624044 
L 327.87431 168.552443 
L 327.93384 168.62369 
L 327.99337 168.509698 
L 328.0529 168.542642 
L 328.231489 168.550126 
L 328.350549 168.473455 
L 328.410079 168.487489 
L 328.469609 168.375138 
L 328.529139 168.42078 
L 328.588669 168.452227 
L 328.767259 168.318311 
L 328.826789 168.270625 
L 328.886318 168.076083 
L 328.945848 168.234639 
L 329.005378 168.389992 
L 329.064908 168.253517 
L 329.362558 168.216405 
L 329.422088 168.165967 
L 329.481618 168.288714 
L 329.541148 168.143822 
L 329.600678 168.196819 
L 331.386575 167.762898 
L 331.505635 167.742009 
L 331.981874 167.628499 
L 332.041404 167.582873 
L 332.100934 167.685117 
L 332.219994 167.516921 
L 332.279524 167.639169 
L 332.339054 167.514056 
L 332.458114 167.33593 
L 332.517644 167.412601 
L 332.577174 167.254399 
L 332.636704 167.360892 
L 333.172473 167.144736 
L 333.291533 167.15428 
L 333.708242 167.057025 
L 333.827302 167.017386 
L 334.422601 166.956262 
L 334.482131 166.802808 
L 334.541661 166.935115 
L 334.839311 166.826771 
L 334.898841 166.832742 
L 335.07743 166.713519 
L 335.19649 166.762493 
L 335.25602 166.656757 
L 335.31555 166.773839 
L 335.37508 166.773147 
L 335.43461 166.609296 
L 335.49414 166.724254 
L 335.6132 166.844861 
L 335.67273 166.730949 
L 335.732259 166.82624 
L 335.851319 166.702785 
L 335.910849 166.836363 
L 336.029909 166.65732 
L 336.089439 166.817839 
L 336.208499 166.459238 
L 336.268029 166.568692 
L 336.327559 166.475879 
L 337.934867 166.179512 
L 338.053926 166.33266 
L 338.232516 166.210219 
L 338.649226 166.166717 
L 339.006405 166.03779 
L 339.065935 166.11393 
L 339.125465 166.033847 
L 339.184995 165.978001 
L 339.244525 166.09473 
L 339.304055 165.978838 
L 339.363585 165.936077 
L 339.423115 166.079312 
L 339.542174 165.756294 
L 339.601704 165.800519 
L 339.661234 165.820894 
L 339.720764 165.664318 
L 339.780294 165.799039 
L 339.899354 165.722979 
L 340.077944 165.715737 
L 340.256533 165.627543 
L 341.089952 165.539703 
L 341.149482 165.327652 
L 341.268542 165.681393 
L 341.328072 165.535889 
L 341.387602 165.615586 
L 341.506662 165.504603 
L 341.566192 165.617453 
L 341.625722 165.498117 
L 341.685252 165.565486 
L 341.744782 165.496041 
L 341.982901 165.489282 
L 342.221021 165.396179 
L 342.399611 165.390289 
L 344.066448 165.037127 
L 344.304568 164.98001 
L 344.542688 164.90931 
L 344.602218 164.971223 
L 344.661748 164.858663 
L 344.721278 164.919465 
L 345.018927 164.783054 
L 345.078457 164.889434 
L 345.197517 164.720948 
L 345.257047 164.866211 
L 345.316577 164.718808 
L 345.376107 164.698739 
L 345.435637 164.843503 
L 345.554697 164.651343 
L 345.614226 164.819684 
L 345.733286 164.434125 
L 345.792816 164.559576 
L 345.911876 164.497148 
L 346.269056 164.462579 
L 346.328585 164.311136 
L 346.388115 164.428428 
L 346.566705 164.328502 
L 347.459654 164.18826 
L 347.519184 164.109578 
L 347.578714 164.169527 
L 347.935893 164.101531 
L 347.995423 164.009298 
L 348.054953 164.096156 
L 348.293073 163.950539 
L 348.412133 163.988971 
L 348.590723 163.89574 
L 348.709782 163.926559 
L 348.888372 163.826472 
L 349.007432 163.892199 
L 349.186022 163.782906 
L 349.305082 163.80819 
L 349.483671 163.744973 
L 349.959911 163.732839 
L 350.019441 163.554922 
L 350.19803 163.812117 
L 350.25756 163.735784 
L 350.31709 163.843113 
L 350.49568 163.717115 
L 350.7338 163.735237 
L 350.912389 163.664231 
L 351.805338 163.538989 
L 351.924398 163.463316 
L 352.102988 163.459228 
L 352.400638 163.387128 
L 352.757817 163.338203 
L 352.936407 163.22751 
L 353.531706 163.180484 
L 353.710296 163.103781 
L 353.948415 163.140813 
L 354.007945 163.027046 
L 354.067475 163.079656 
L 355.377134 162.762126 
L 355.436664 162.89292 
L 355.615253 162.50852 
L 355.674783 162.666819 
L 355.734313 162.632024 
L 355.912903 162.476397 
L 355.972433 162.615785 
L 356.031963 162.523311 
L 356.151023 162.579253 
L 356.210552 162.424157 
L 356.270082 162.544426 
L 356.389142 162.481933 
L 356.448672 162.512238 
L 356.508202 162.365157 
L 356.567732 162.508714 
L 357.163031 162.46687 
L 357.341621 162.194627 
L 357.460681 162.476606 
L 357.520211 162.363017 
L 357.579741 162.441313 
L 357.81786 162.385998 
L 361.687305 161.638475 
L 361.806365 161.518689 
L 361.865895 161.547319 
L 362.044485 161.423172 
L 362.163545 161.439539 
L 363.592263 161.168842 
L 363.711323 161.172576 
L 364.187562 161.237659 
L 364.247092 161.321379 
L 364.425682 161.191196 
L 364.485212 161.163306 
L 364.544742 161.302742 
L 364.663801 160.962487 
L 364.723331 161.059855 
L 364.961451 160.944672 
L 365.140041 160.973335 
L 365.37816 160.887764 
L 365.49722 160.891771 
L 365.8544 160.822439 
L 365.91393 160.865474 
L 365.97346 160.746525 
L 366.03299 160.835282 
L 366.271109 160.684773 
L 366.390169 160.80641 
L 366.449699 160.633337 
L 366.568759 160.921384 
L 366.628289 160.830068 
L 366.866408 160.849171 
L 367.044998 160.78816 
L 367.461708 160.75005 
L 367.699827 160.672333 
L 367.759357 160.723253 
L 367.818887 160.63506 
L 368.057007 160.677869 
L 368.176067 160.602486 
L 368.354657 160.609889 
L 368.652306 160.51125 
L 368.830896 160.537113 
L 368.949956 160.47071 
L 369.009486 160.519683 
L 369.069016 160.409843 
L 369.128545 160.45629 
L 369.485725 160.400155 
L 369.664315 160.330742 
L 369.783375 160.344309 
L 370.200084 160.291892 
L 370.378674 160.238863 
L 370.616794 160.263889 
L 370.795383 160.175019 
L 375.319657 159.514144 
L 375.379187 159.418885 
L 375.438717 159.466104 
L 375.736367 159.309865 
L 375.795897 159.168256 
L 375.855427 159.310686 
L 375.914957 159.290714 
L 375.974486 159.117384 
L 376.093546 159.425129 
L 376.153076 159.298294 
L 376.212606 159.363957 
L 376.450726 159.27697 
L 376.629316 159.290231 
L 377.343675 159.157683 
L 377.581794 159.16581 
L 377.700854 159.063148 
L 377.760384 159.161127 
L 377.819914 159.049935 
L 378.058034 159.117416 
L 378.236623 158.861815 
L 378.296153 158.90456 
L 378.355683 158.803024 
L 378.415213 158.891813 
L 378.593803 158.832572 
L 378.891453 158.771223 
L 379.129572 158.741401 
L 379.367692 158.717824 
L 379.427222 158.658212 
L 379.605812 158.818941 
L 379.665342 158.750961 
L 379.724872 158.855586 
L 379.784401 158.756497 
L 379.903461 158.605215 
L 379.962991 158.662236 
L 380.022521 158.542514 
L 380.082051 158.637612 
L 380.260641 158.54657 
L 380.498761 158.580785 
L 380.67735 158.503953 
L 381.510769 158.432577 
L 381.748889 158.566188 
L 381.927479 158.47389 
L 382.701368 158.336449 
L 382.760898 158.302137 
L 382.820427 158.429568 
L 382.939487 158.133684 
L 382.999017 158.22463 
L 383.653846 158.049159 
L 383.713376 158.122547 
L 383.772906 158.015748 
L 383.832436 158.101223 
L 384.368205 157.981276 
L 384.427735 158.03968 
L 384.487265 157.918816 
L 384.546795 157.995937 
L 384.784915 157.867927 
L 384.844445 157.959501 
L 384.903975 157.91344 
L 385.261154 157.881414 
L 385.499274 158.02452 
L 385.677864 157.943037 
L 385.915983 157.955574 
L 386.094573 157.871967 
L 386.511283 157.862471 
L 386.689872 157.794057 
L 386.808932 157.767003 
L 386.868462 157.836206 
L 386.987522 157.63431 
L 387.106582 157.797179 
L 387.166112 157.723695 
L 387.225642 157.690654 
L 387.285172 157.81147 
L 387.463761 157.466065 
L 387.582821 157.745341 
L 387.761411 157.528139 
L 387.940001 157.549045 
L 388.11859 157.4487 
L 388.29718 157.450052 
L 389.130599 157.351832 
L 389.309189 157.297306 
L 389.606839 157.296099 
L 389.785428 157.201854 
L 389.904488 157.275773 
L 389.964018 157.167815 
L 390.023548 157.273793 
L 390.142608 157.427537 
L 390.202138 157.266293 
L 390.261668 157.115237 
L 390.321198 157.22461 
L 390.559317 157.118874 
L 390.737907 157.140891 
L 390.916497 157.094347 
L 391.273676 157.027542 
L 391.452266 157.204783 
L 391.571326 156.925572 
L 391.630856 157.058667 
L 391.690386 157.047016 
L 391.749916 156.883792 
L 391.868976 157.166528 
L 392.047565 157.053051 
L 392.404745 157.06533 
L 392.523805 156.98734 
L 392.583335 157.053952 
L 392.642865 156.967239 
L 392.761924 156.980934 
L 393.119104 156.94004 
L 393.476283 156.878562 
L 393.952523 156.810791 
L 394.131113 156.800716 
L 395.143121 156.677132 
L 395.321711 156.626743 
L 395.381241 156.58345 
L 395.440771 156.704298 
L 395.500301 156.566729 
L 395.559831 156.619323 
L 395.97654 156.502772 
L 396.03607 156.602682 
L 396.0956 156.502064 
L 396.631369 156.533222 
L 396.809959 156.243163 
L 396.929019 156.489269 
L 396.988549 156.381023 
L 397.107609 156.407368 
L 397.286198 156.364285 
L 397.405258 156.353438 
L 399.131626 156.130008 
L 399.369746 155.931153 
L 399.429276 156.01637 
L 399.488806 155.963856 
L 400.441284 155.88292 
L 400.619874 155.816598 
L 401.334233 155.739171 
L 401.691413 155.667054 
L 401.810472 155.732041 
L 401.870002 155.609181 
L 401.929532 155.719584 
L 402.108122 155.722015 
L 402.167652 155.819833 
L 402.227182 155.745141 
L 402.286712 155.719279 
L 402.346242 155.826608 
L 402.405772 155.722208 
L 402.584361 155.766627 
L 402.762951 155.701994 
L 403.179661 155.645263 
L 403.53684 155.593618 
L 403.71543 155.637329 
L 403.89402 155.571747 
L 404.072609 155.52736 
L 404.251199 155.561415 
L 404.489319 155.482105 
L 404.667909 155.507839 
L 404.906028 155.445008 
L 405.084618 155.452573 
L 405.322738 155.374469 
L 405.382268 155.443093 
L 405.441798 155.35749 
L 405.679917 155.417392 
L 405.798977 155.339465 
L 406.215687 155.310915 
L 407.108636 155.166763 
L 407.287225 155.22565 
L 407.406285 155.116534 
L 407.465815 155.220838 
L 407.584875 155.124887 
L 407.703935 155.056794 
L 407.763465 154.93152 
L 407.822995 155.01487 
L 408.001584 154.942625 
L 408.239704 154.955436 
L 408.477824 154.90099 
L 410.501841 154.625722 
L 410.620901 154.709877 
L 410.680431 154.619478 
L 410.739961 154.723717 
L 410.97808 154.588465 
L 411.09714 154.817995 
L 411.15667 154.709555 
L 411.2162 154.782798 
L 411.27573 154.702087 
L 411.45432 154.648415 
L 411.51385 154.515721 
L 411.57338 154.629166 
L 411.751969 154.648897 
L 411.811499 154.526408 
L 411.871029 154.582736 
L 411.990089 154.672845 
L 412.228209 154.595563 
L 412.287739 154.683885 
L 412.406799 154.467488 
L 412.466328 154.509397 
L 412.585388 154.630792 
L 412.763978 154.5416 
L 412.942568 154.587661 
L 413.121158 154.529691 
L 413.359277 154.523141 
L 413.716457 154.480589 
L 413.954576 154.478609 
L 414.073636 154.441545 
L 414.549876 154.410774 
L 414.847525 154.365438 
L 415.383295 154.316239 
L 416.157184 154.196195 
L 416.216714 154.267153 
L 416.276243 154.173069 
L 416.454833 154.130646 
L 416.573893 154.052736 
L 416.692953 154.207059 
L 416.752483 154.109096 
L 416.931073 153.970818 
L 417.109662 154.004679 
L 417.526372 153.962353 
L 418.59791 153.877587 
L 418.65744 153.78434 
L 418.71697 153.85916 
L 418.95509 153.777484 
L 419.19321 153.814467 
L 419.371799 153.77317 
L 419.550389 153.72711 
L 419.788509 153.742158 
L 419.907569 153.725275 
L 420.086158 153.709745 
L 420.205218 153.702229 
L 420.562398 153.686843 
L 420.621928 153.570856 
L 420.681458 153.691993 
L 420.860047 153.707653 
L 421.038637 153.764512 
L 421.217227 153.681017 
L 421.336287 153.677477 
L 421.931586 153.629791 
L 422.407825 153.615274 
L 422.526885 153.557433 
L 422.705475 153.591552 
L 422.884065 153.532118 
L 423.181714 153.488713 
L 423.360304 153.378696 
L 423.538894 153.310506 
L 423.717484 153.35021 
L 423.955603 153.286382 
L 424.134193 153.292176 
L 424.491373 153.262998 
L 424.669962 153.237924 
L 425.324792 153.213574 
L 425.443851 153.299273 
L 425.622441 153.23522 
L 425.801031 153.255128 
L 426.872569 153.119441 
L 427.051159 153.172341 
L 427.170219 153.065575 
L 427.289279 153.073284 
L 427.348809 152.933783 
L 427.408339 153.019483 
L 427.586929 152.955526 
L 428.360818 152.908725 
L 428.539407 152.873158 
L 429.015647 152.801782 
L 429.194236 152.959968 
L 429.313296 152.745856 
L 429.372826 152.850385 
L 429.432356 152.95184 
L 429.491886 152.865916 
L 429.849066 152.883587 
L 430.146715 152.831395 
L 430.384835 152.829785 
L 430.861074 152.766295 
L 431.039664 152.778929 
L 431.337314 152.729215 
L 431.575433 152.703031 
L 435.028169 152.218978 
L 435.147229 152.38785 
L 435.266288 152.284914 
L 435.325818 152.313352 
L 435.385348 152.206183 
L 435.444878 152.315492 
L 435.563938 152.355646 
L 435.623468 152.313336 
L 435.682998 152.419136 
L 435.742528 152.30038 
L 435.921118 152.253242 
L 435.980648 152.382008 
L 436.040177 152.281551 
L 436.218767 152.314784 
L 436.575947 152.254948 
L 436.754536 152.291641 
L 436.992656 152.242893 
L 437.290306 152.240254 
L 437.528425 152.181882 
L 437.707015 152.215936 
L 437.885605 152.183926 
L 438.361844 152.108285 
L 438.421374 152.16854 
L 438.480904 152.09092 
L 440.088212 151.980388 
L 440.266802 151.94342 
L 440.326332 152.007361 
L 440.385862 151.934858 
L 440.623981 151.963956 
L 440.921631 151.913421 
L 441.278811 151.92694 
L 441.51693 151.851493 
L 441.69552 151.882264 
L 441.93364 151.825437 
L 442.112229 151.848387 
L 442.231289 151.794601 
L 442.409879 151.831536 
L 442.588469 151.778024 
L 443.183768 151.750472 
L 443.540948 151.684117 
L 443.719537 151.692534 
L 444.552956 151.636254 
L 445.207785 151.523501 
L 445.267315 151.421032 
L 445.326845 151.516163 
L 445.386375 151.599448 
L 445.445905 151.531162 
L 445.564965 151.444368 
L 445.684025 151.552486 
L 445.922144 151.392772 
L 446.100734 151.430994 
L 446.457914 151.368518 
L 446.755563 151.387622 
L 446.934153 151.315956 
L 447.112743 151.326079 
L 447.708042 151.308553 
L 447.886632 151.243051 
L 448.065222 151.260223 
L 448.720051 151.191438 
L 448.95817 151.224592 
L 449.0177 151.140148 
L 449.07723 151.222805 
L 449.19629 151.197232 
L 449.31535 151.268898 
L 449.49394 151.217156 
L 449.613 151.224897 
L 449.672529 151.114719 
L 449.732059 151.165028 
L 450.089239 151.083433 
L 450.267829 151.126838 
L 450.505948 151.065859 
L 450.922658 151.054657 
L 451.279837 151.013168 
L 451.517957 151.005523 
L 452.291846 150.940552 
L 452.470436 150.971823 
L 452.708555 150.896407 
L 452.887145 150.929399 
L 453.065735 150.867326 
L 453.244325 150.89071 
L 454.018214 150.815295 
L 454.256333 150.802194 
L 454.911163 150.779534 
L 455.089752 150.751611 
L 456.75659 150.673895 
L 456.93518 150.586119 
L 457.11377 150.639921 
L 457.411419 150.585797 
L 457.768599 150.581774 
L 458.006719 150.546899 
L 458.244838 150.537307 
L 459.078257 150.507131 
L 459.256847 150.453764 
L 459.494967 150.468554 
L 459.792616 150.422799 
L 460.030736 150.42222 
L 460.923685 150.360356 
L 463.662061 150.275059 
L 465.388429 150.180057 
L 465.626548 150.124662 
L 465.805138 150.167005 
L 465.983728 150.107361 
L 466.281378 150.103032 
L 467.352916 150.050164 
L 467.591036 150.000257 
L 467.769626 150.01891 
L 468.126805 149.970822 
L 468.305395 149.996668 
L 468.483985 149.953392 
L 468.662574 149.966122 
L 469.138814 149.909633 
L 469.317404 149.933581 
L 469.555523 149.901812 
L 470.150823 149.854174 
L 470.448472 149.859823 
L 470.746122 149.817271 
L 470.984241 149.8085 
L 487.831209 148.865903 
L 488.009799 148.903885 
L 488.188389 148.867529 
L 489.081338 148.812971 
L 489.498047 148.806533 
L 489.676637 148.774829 
L 489.855227 148.808996 
L 490.331466 148.758155 
L 490.926765 148.738682 
L 491.343475 148.70783 
L 491.700654 148.700218 
L 514.679204 147.762932 
L 514.917324 147.776869 
L 516.286512 147.727461 
L 516.762751 147.703289 
L 517.89382 147.687291 
L 518.489119 147.64527 
L 518.846298 147.638785 
L 521.108435 147.58199 
L 521.584675 147.551605 
L 522.179974 147.538118 
L 523.489632 147.500507 
L 524.203991 147.485137 
L 524.858821 147.465374 
L 525.989889 147.427087 
L 527.001898 147.400725 
L 528.013906 147.368699 
L 532.240531 147.256316 
L 535.633736 147.165032 
L 538.014933 147.107062 
L 541.646258 147.017339 
L 548.25408 146.86852 
L 551.528225 146.797531 
L 565.339167 146.53422 
L 572.780407 146.401479 
L 585.93652 146.191761 
L 591.591863 146.110616 
L 605.045625 145.92903 
L 605.045625 145.92903 
" clip-path="url(#pc57203b7f8)" style="fill: none; stroke: #008000; stroke-width: 1.5; stroke-linecap: square"/>
   </g>
   <g id="patch_3">
    <path d="M 247.925625 311.6435 
L 247.925625 45.5315 
" style="fill: none; stroke: #000000; stroke-width: 0.8; stroke-linejoin: miter; stroke-linecap: square"/>
   </g>
   <g id="patch_4">
    <path d="M 605.045625 311.6435 
L 605.045625 45.5315 
" style="fill: none; stroke: #000000; stroke-width: 0.8; stroke-linejoin: miter; stroke-linecap: square"/>
   </g>
   <g id="patch_5">
    <path d="M 247.925625 311.6435 
L 605.045625 311.6435 
" style="fill: none; stroke: #000000; stroke-width: 0.8; stroke-linejoin: miter; stroke-linecap: square"/>
   </g>
   <g id="patch_6">
    <path d="M 247.925625 45.5315 
L 605.045625 45.5315 
" style="fill: none; stroke: #000000; stroke-width: 0.8; stroke-linejoin: miter; stroke-linecap: square"/>
   </g>
   <g id="text_12">
    <!-- Loss of the 28_07_25_CIFAR10_torch_model_(1024+2048-2048.1-1)_cat-dog -->
    <g transform="translate(7.2 25.5315) scale(0.264 -0.264)">
     <defs>
      <path id="TimesNewRomanPSMT-68" d="M 1041 4444 
L 1041 2350 
Q 1388 2731 1591 2839 
Q 1794 2947 1997 2947 
Q 2241 2947 2416 2812 
Q 2591 2678 2675 2391 
Q 2734 2191 2734 1659 
L 2734 647 
Q 2734 375 2778 275 
Q 2809 200 2884 156 
Q 2959 113 3159 113 
L 3159 0 
L 1753 0 
L 1753 113 
L 1819 113 
Q 2019 113 2097 173 
Q 2175 234 2206 353 
Q 2216 403 2216 647 
L 2216 1659 
Q 2216 2128 2167 2275 
Q 2119 2422 2012 2495 
Q 1906 2569 1756 2569 
Q 1603 2569 1437 2487 
Q 1272 2406 1041 2159 
L 1041 647 
Q 1041 353 1073 281 
Q 1106 209 1195 161 
Q 1284 113 1503 113 
L 1503 0 
L 84 0 
L 84 113 
Q 275 113 384 172 
Q 447 203 484 290 
Q 522 378 522 647 
L 522 3238 
Q 522 3728 498 3840 
Q 475 3953 426 3993 
Q 378 4034 297 4034 
Q 231 4034 84 3984 
L 41 4094 
L 897 4444 
L 1041 4444 
z
" transform="scale(0.015625)"/>
      <path id="TimesNewRomanPSMT-38" d="M 1228 2134 
Q 725 2547 579 2797 
Q 434 3047 434 3316 
Q 434 3728 753 4026 
Q 1072 4325 1600 4325 
Q 2113 4325 2425 4047 
Q 2738 3769 2738 3413 
Q 2738 3175 2569 2928 
Q 2400 2681 1866 2347 
Q 2416 1922 2594 1678 
Q 2831 1359 2831 1006 
Q 2831 559 2490 242 
Q 2150 -75 1597 -75 
Q 994 -75 656 303 
Q 388 606 388 966 
Q 388 1247 577 1523 
Q 766 1800 1228 2134 
z
M 1719 2469 
Q 2094 2806 2194 3001 
Q 2294 3197 2294 3444 
Q 2294 3772 2109 3958 
Q 1925 4144 1606 4144 
Q 1288 4144 1088 3959 
Q 888 3775 888 3528 
Q 888 3366 970 3203 
Q 1053 3041 1206 2894 
L 1719 2469 
z
M 1375 2016 
Q 1116 1797 991 1539 
Q 866 1281 866 981 
Q 866 578 1086 336 
Q 1306 94 1647 94 
Q 1984 94 2187 284 
Q 2391 475 2391 747 
Q 2391 972 2272 1150 
Q 2050 1481 1375 2016 
z
" transform="scale(0.015625)"/>
      <path id="TimesNewRomanPSMT-5f" d="M 3256 -1381 
L -53 -1381 
L -53 -1119 
L 3256 -1119 
L 3256 -1381 
z
" transform="scale(0.015625)"/>
      <path id="TimesNewRomanPSMT-37" d="M 644 4238 
L 2916 4238 
L 2916 4119 
L 1503 -88 
L 1153 -88 
L 2419 3728 
L 1253 3728 
Q 900 3728 750 3644 
Q 488 3500 328 3200 
L 238 3234 
L 644 4238 
z
" transform="scale(0.015625)"/>
      <path id="TimesNewRomanPSMT-35" d="M 2778 4238 
L 2534 3706 
L 1259 3706 
L 981 3138 
Q 1809 3016 2294 2522 
Q 2709 2097 2709 1522 
Q 2709 1188 2573 903 
Q 2438 619 2231 419 
Q 2025 219 1772 97 
Q 1413 -75 1034 -75 
Q 653 -75 479 54 
Q 306 184 306 341 
Q 306 428 378 495 
Q 450 563 559 563 
Q 641 563 702 538 
Q 763 513 909 409 
Q 1144 247 1384 247 
Q 1750 247 2026 523 
Q 2303 800 2303 1197 
Q 2303 1581 2056 1914 
Q 1809 2247 1375 2428 
Q 1034 2569 447 2591 
L 1259 4238 
L 2778 4238 
z
" transform="scale(0.015625)"/>
      <path id="TimesNewRomanPSMT-43" d="M 3853 4334 
L 3950 2894 
L 3853 2894 
Q 3659 3541 3300 3825 
Q 2941 4109 2438 4109 
Q 2016 4109 1675 3895 
Q 1334 3681 1139 3212 
Q 944 2744 944 2047 
Q 944 1472 1128 1050 
Q 1313 628 1683 403 
Q 2053 178 2528 178 
Q 2941 178 3256 354 
Q 3572 531 3950 1056 
L 4047 994 
Q 3728 428 3303 165 
Q 2878 -97 2294 -97 
Q 1241 -97 663 684 
Q 231 1266 231 2053 
Q 231 2688 515 3219 
Q 800 3750 1298 4042 
Q 1797 4334 2388 4334 
Q 2847 4334 3294 4109 
Q 3425 4041 3481 4041 
Q 3566 4041 3628 4100 
Q 3709 4184 3744 4334 
L 3853 4334 
z
" transform="scale(0.015625)"/>
      <path id="TimesNewRomanPSMT-49" d="M 1975 116 
L 1975 0 
L 159 0 
L 159 116 
L 309 116 
Q 572 116 691 269 
Q 766 369 766 750 
L 766 3488 
Q 766 3809 725 3913 
Q 694 3991 597 4047 
Q 459 4122 309 4122 
L 159 4122 
L 159 4238 
L 1975 4238 
L 1975 4122 
L 1822 4122 
Q 1563 4122 1444 3969 
Q 1366 3869 1366 3488 
L 1366 750 
Q 1366 428 1406 325 
Q 1438 247 1538 191 
Q 1672 116 1822 116 
L 1975 116 
z
" transform="scale(0.015625)"/>
      <path id="TimesNewRomanPSMT-46" d="M 1309 4006 
L 1309 2341 
L 2081 2341 
Q 2347 2341 2470 2458 
Q 2594 2575 2634 2922 
L 2750 2922 
L 2750 1488 
L 2634 1488 
Q 2631 1734 2570 1850 
Q 2509 1966 2401 2023 
Q 2294 2081 2081 2081 
L 1309 2081 
L 1309 750 
Q 1309 428 1350 325 
Q 1381 247 1481 191 
Q 1619 116 1769 116 
L 1922 116 
L 1922 0 
L 103 0 
L 103 116 
L 253 116 
Q 516 116 634 269 
Q 709 369 709 750 
L 709 3488 
Q 709 3809 669 3913 
Q 638 3991 541 4047 
Q 406 4122 253 4122 
L 103 4122 
L 103 4238 
L 3256 4238 
L 3297 3306 
L 3188 3306 
Q 3106 3603 2998 3742 
Q 2891 3881 2733 3943 
Q 2575 4006 2244 4006 
L 1309 4006 
z
" transform="scale(0.015625)"/>
      <path id="TimesNewRomanPSMT-41" d="M 2928 1419 
L 1288 1419 
L 1000 750 
Q 894 503 894 381 
Q 894 284 986 211 
Q 1078 138 1384 116 
L 1384 0 
L 50 0 
L 50 116 
Q 316 163 394 238 
Q 553 388 747 847 
L 2238 4334 
L 2347 4334 
L 3822 809 
Q 4000 384 4145 257 
Q 4291 131 4550 116 
L 4550 0 
L 2878 0 
L 2878 116 
Q 3131 128 3220 200 
Q 3309 272 3309 375 
Q 3309 513 3184 809 
L 2928 1419 
z
M 2841 1650 
L 2122 3363 
L 1384 1650 
L 2841 1650 
z
" transform="scale(0.015625)"/>
      <path id="TimesNewRomanPSMT-52" d="M 4325 0 
L 3194 0 
L 1759 1981 
Q 1600 1975 1500 1975 
Q 1459 1975 1412 1976 
Q 1366 1978 1316 1981 
L 1316 750 
Q 1316 350 1403 253 
Q 1522 116 1759 116 
L 1925 116 
L 1925 0 
L 109 0 
L 109 116 
L 269 116 
Q 538 116 653 291 
Q 719 388 719 750 
L 719 3488 
Q 719 3888 631 3984 
Q 509 4122 269 4122 
L 109 4122 
L 109 4238 
L 1653 4238 
Q 2328 4238 2648 4139 
Q 2969 4041 3192 3777 
Q 3416 3513 3416 3147 
Q 3416 2756 3161 2468 
Q 2906 2181 2372 2063 
L 3247 847 
Q 3547 428 3762 290 
Q 3978 153 4325 116 
L 4325 0 
z
M 1316 2178 
Q 1375 2178 1419 2176 
Q 1463 2175 1491 2175 
Q 2097 2175 2405 2437 
Q 2713 2700 2713 3106 
Q 2713 3503 2464 3751 
Q 2216 4000 1806 4000 
Q 1625 4000 1316 3941 
L 1316 2178 
z
" transform="scale(0.015625)"/>
      <path id="TimesNewRomanPSMT-63" d="M 2631 1088 
Q 2516 522 2178 217 
Q 1841 -88 1431 -88 
Q 944 -88 581 321 
Q 219 731 219 1428 
Q 219 2103 620 2525 
Q 1022 2947 1584 2947 
Q 2006 2947 2278 2723 
Q 2550 2500 2550 2259 
Q 2550 2141 2473 2067 
Q 2397 1994 2259 1994 
Q 2075 1994 1981 2113 
Q 1928 2178 1911 2362 
Q 1894 2547 1784 2644 
Q 1675 2738 1481 2738 
Q 1169 2738 978 2506 
Q 725 2200 725 1697 
Q 725 1184 976 792 
Q 1228 400 1656 400 
Q 1963 400 2206 609 
Q 2378 753 2541 1131 
L 2631 1088 
z
" transform="scale(0.015625)"/>
      <path id="TimesNewRomanPSMT-64" d="M 2222 322 
Q 2013 103 1813 7 
Q 1613 -88 1381 -88 
Q 913 -88 563 304 
Q 213 697 213 1313 
Q 213 1928 600 2439 
Q 988 2950 1597 2950 
Q 1975 2950 2222 2709 
L 2222 3238 
Q 2222 3728 2198 3840 
Q 2175 3953 2125 3993 
Q 2075 4034 2000 4034 
Q 1919 4034 1784 3984 
L 1744 4094 
L 2597 4444 
L 2738 4444 
L 2738 1134 
Q 2738 631 2761 520 
Q 2784 409 2836 365 
Q 2888 322 2956 322 
Q 3041 322 3181 375 
L 3216 266 
L 2366 -88 
L 2222 -88 
L 2222 322 
z
M 2222 541 
L 2222 2016 
Q 2203 2228 2109 2403 
Q 2016 2578 1861 2667 
Q 1706 2756 1559 2756 
Q 1284 2756 1069 2509 
Q 784 2184 784 1559 
Q 784 928 1059 592 
Q 1334 256 1672 256 
Q 1956 256 2222 541 
z
" transform="scale(0.015625)"/>
      <path id="TimesNewRomanPSMT-6c" d="M 1184 4444 
L 1184 647 
Q 1184 378 1223 290 
Q 1263 203 1344 158 
Q 1425 113 1647 113 
L 1647 0 
L 244 0 
L 244 113 
Q 441 113 512 153 
Q 584 194 625 287 
Q 666 381 666 647 
L 666 3247 
Q 666 3731 644 3842 
Q 622 3953 573 3993 
Q 525 4034 450 4034 
Q 369 4034 244 3984 
L 191 4094 
L 1044 4444 
L 1184 4444 
z
" transform="scale(0.015625)"/>
      <path id="TimesNewRomanPSMT-28" d="M 1988 -1253 
L 1988 -1369 
Q 1516 -1131 1200 -813 
Q 750 -359 506 256 
Q 263 872 263 1534 
Q 263 2503 741 3301 
Q 1219 4100 1988 4444 
L 1988 4313 
Q 1603 4100 1356 3731 
Q 1109 3363 987 2797 
Q 866 2231 866 1616 
Q 866 947 969 400 
Q 1050 -31 1165 -292 
Q 1281 -553 1476 -793 
Q 1672 -1034 1988 -1253 
z
" transform="scale(0.015625)"/>
      <path id="TimesNewRomanPSMT-2b" d="M 1672 441 
L 1672 2000 
L 116 2000 
L 116 2256 
L 1672 2256 
L 1672 3809 
L 1922 3809 
L 1922 2256 
L 3484 2256 
L 3484 2000 
L 1922 2000 
L 1922 441 
L 1672 441 
z
" transform="scale(0.015625)"/>
      <path id="TimesNewRomanPSMT-2d" d="M 259 1672 
L 1875 1672 
L 1875 1200 
L 259 1200 
L 259 1672 
z
" transform="scale(0.015625)"/>
      <path id="TimesNewRomanPSMT-29" d="M 144 4313 
L 144 4444 
Q 619 4209 934 3891 
Q 1381 3434 1625 2820 
Q 1869 2206 1869 1541 
Q 1869 572 1392 -226 
Q 916 -1025 144 -1369 
L 144 -1253 
Q 528 -1038 776 -670 
Q 1025 -303 1145 264 
Q 1266 831 1266 1447 
Q 1266 2113 1163 2663 
Q 1084 3094 967 3353 
Q 850 3613 656 3853 
Q 463 4094 144 4313 
z
" transform="scale(0.015625)"/>
      <path id="TimesNewRomanPSMT-67" d="M 966 1044 
Q 703 1172 562 1401 
Q 422 1631 422 1909 
Q 422 2334 742 2640 
Q 1063 2947 1563 2947 
Q 1972 2947 2272 2747 
L 2878 2747 
Q 3013 2747 3034 2739 
Q 3056 2731 3066 2713 
Q 3084 2684 3084 2613 
Q 3084 2531 3069 2500 
Q 3059 2484 3036 2475 
Q 3013 2466 2878 2466 
L 2506 2466 
Q 2681 2241 2681 1891 
Q 2681 1491 2375 1206 
Q 2069 922 1553 922 
Q 1341 922 1119 984 
Q 981 866 932 777 
Q 884 688 884 625 
Q 884 572 936 522 
Q 988 472 1138 450 
Q 1225 438 1575 428 
Q 2219 413 2409 384 
Q 2700 344 2873 169 
Q 3047 -6 3047 -263 
Q 3047 -616 2716 -925 
Q 2228 -1381 1444 -1381 
Q 841 -1381 425 -1109 
Q 191 -953 191 -784 
Q 191 -709 225 -634 
Q 278 -519 444 -313 
Q 466 -284 763 25 
Q 600 122 533 198 
Q 466 275 466 372 
Q 466 481 555 628 
Q 644 775 966 1044 
z
M 1509 2797 
Q 1278 2797 1122 2612 
Q 966 2428 966 2047 
Q 966 1553 1178 1281 
Q 1341 1075 1591 1075 
Q 1828 1075 1981 1253 
Q 2134 1431 2134 1813 
Q 2134 2309 1919 2591 
Q 1759 2797 1509 2797 
z
M 934 0 
Q 788 -159 713 -296 
Q 638 -434 638 -550 
Q 638 -700 819 -813 
Q 1131 -1006 1722 -1006 
Q 2284 -1006 2551 -807 
Q 2819 -609 2819 -384 
Q 2819 -222 2659 -153 
Q 2497 -84 2016 -72 
Q 1313 -53 934 0 
z
" transform="scale(0.015625)"/>
     </defs>
     <use xlink:href="#TimesNewRomanPSMT-4c"/>
     <use xlink:href="#TimesNewRomanPSMT-6f" transform="translate(61.083984 0)"/>
     <use xlink:href="#TimesNewRomanPSMT-73" transform="translate(111.083984 0)"/>
     <use xlink:href="#TimesNewRomanPSMT-73" transform="translate(150 0)"/>
     <use xlink:href="#TimesNewRomanPSMT-20" transform="translate(188.916016 0)"/>
     <use xlink:href="#TimesNewRomanPSMT-6f" transform="translate(213.916016 0)"/>
     <use xlink:href="#TimesNewRomanPSMT-66" transform="translate(263.916016 0)"/>
     <use xlink:href="#TimesNewRomanPSMT-20" transform="translate(297.216797 0)"/>
     <use xlink:href="#TimesNewRomanPSMT-74" transform="translate(322.216797 0)"/>
     <use xlink:href="#TimesNewRomanPSMT-68" transform="translate(350 0)"/>
     <use xlink:href="#TimesNewRomanPSMT-65" transform="translate(400 0)"/>
     <use xlink:href="#TimesNewRomanPSMT-20" transform="translate(444.384766 0)"/>
     <use xlink:href="#TimesNewRomanPSMT-32" transform="translate(469.384766 0)"/>
     <use xlink:href="#TimesNewRomanPSMT-38" transform="translate(519.384766 0)"/>
     <use xlink:href="#TimesNewRomanPSMT-5f" transform="translate(569.384766 0)"/>
     <use xlink:href="#TimesNewRomanPSMT-30" transform="translate(619.384766 0)"/>
     <use xlink:href="#TimesNewRomanPSMT-37" transform="translate(669.384766 0)"/>
     <use xlink:href="#TimesNewRomanPSMT-5f" transform="translate(719.384766 0)"/>
     <use xlink:href="#TimesNewRomanPSMT-32" transform="translate(769.384766 0)"/>
     <use xlink:href="#TimesNewRomanPSMT-35" transform="translate(819.384766 0)"/>
     <use xlink:href="#TimesNewRomanPSMT-5f" transform="translate(869.384766 0)"/>
     <use xlink:href="#TimesNewRomanPSMT-43" transform="translate(919.384766 0)"/>
     <use xlink:href="#TimesNewRomanPSMT-49" transform="translate(986.083984 0)"/>
     <use xlink:href="#TimesNewRomanPSMT-46" transform="translate(1019.384766 0)"/>
     <use xlink:href="#TimesNewRomanPSMT-41" transform="translate(1067.625 0)"/>
     <use xlink:href="#TimesNewRomanPSMT-52" transform="translate(1139.841797 0)"/>
     <use xlink:href="#TimesNewRomanPSMT-31" transform="translate(1206.541016 0)"/>
     <use xlink:href="#TimesNewRomanPSMT-30" transform="translate(1256.541016 0)"/>
     <use xlink:href="#TimesNewRomanPSMT-5f" transform="translate(1306.541016 0)"/>
     <use xlink:href="#TimesNewRomanPSMT-74" transform="translate(1356.541016 0)"/>
     <use xlink:href="#TimesNewRomanPSMT-6f" transform="translate(1384.324219 0)"/>
     <use xlink:href="#TimesNewRomanPSMT-72" transform="translate(1434.324219 0)"/>
     <use xlink:href="#TimesNewRomanPSMT-63" transform="translate(1467.625 0)"/>
     <use xlink:href="#TimesNewRomanPSMT-68" transform="translate(1512.009766 0)"/>
     <use xlink:href="#TimesNewRomanPSMT-5f" transform="translate(1562.009766 0)"/>
     <use xlink:href="#TimesNewRomanPSMT-6d" transform="translate(1612.009766 0)"/>
     <use xlink:href="#TimesNewRomanPSMT-6f" transform="translate(1689.792969 0)"/>
     <use xlink:href="#TimesNewRomanPSMT-64" transform="translate(1739.792969 0)"/>
     <use xlink:href="#TimesNewRomanPSMT-65" transform="translate(1789.792969 0)"/>
     <use xlink:href="#TimesNewRomanPSMT-6c" transform="translate(1834.177734 0)"/>
     <use xlink:href="#TimesNewRomanPSMT-5f" transform="translate(1861.960938 0)"/>
     <use xlink:href="#TimesNewRomanPSMT-28" transform="translate(1911.960938 0)"/>
     <use xlink:href="#TimesNewRomanPSMT-31" transform="translate(1945.261719 0)"/>
     <use xlink:href="#TimesNewRomanPSMT-30" transform="translate(1995.261719 0)"/>
     <use xlink:href="#TimesNewRomanPSMT-32" transform="translate(2045.261719 0)"/>
     <use xlink:href="#TimesNewRomanPSMT-34" transform="translate(2095.261719 0)"/>
     <use xlink:href="#TimesNewRomanPSMT-2b" transform="translate(2145.261719 0)"/>
     <use xlink:href="#TimesNewRomanPSMT-32" transform="translate(2201.658203 0)"/>
     <use xlink:href="#TimesNewRomanPSMT-30" transform="translate(2251.658203 0)"/>
     <use xlink:href="#TimesNewRomanPSMT-34" transform="translate(2301.658203 0)"/>
     <use xlink:href="#TimesNewRomanPSMT-38" transform="translate(2351.658203 0)"/>
     <use xlink:href="#TimesNewRomanPSMT-2d" transform="translate(2401.658203 0)"/>
     <use xlink:href="#TimesNewRomanPSMT-32" transform="translate(2434.958984 0)"/>
     <use xlink:href="#TimesNewRomanPSMT-30" transform="translate(2484.958984 0)"/>
     <use xlink:href="#TimesNewRomanPSMT-34" transform="translate(2534.958984 0)"/>
     <use xlink:href="#TimesNewRomanPSMT-38" transform="translate(2584.958984 0)"/>
     <use xlink:href="#TimesNewRomanPSMT-2e" transform="translate(2634.958984 0)"/>
     <use xlink:href="#TimesNewRomanPSMT-31" transform="translate(2659.958984 0)"/>
     <use xlink:href="#TimesNewRomanPSMT-2d" transform="translate(2709.958984 0)"/>
     <use xlink:href="#TimesNewRomanPSMT-31" transform="translate(2743.259766 0)"/>
     <use xlink:href="#TimesNewRomanPSMT-29" transform="translate(2793.259766 0)"/>
     <use xlink:href="#TimesNewRomanPSMT-5f" transform="translate(2826.560547 0)"/>
     <use xlink:href="#TimesNewRomanPSMT-63" transform="translate(2876.560547 0)"/>
     <use xlink:href="#TimesNewRomanPSMT-61" transform="translate(2920.945312 0)"/>
     <use xlink:href="#TimesNewRomanPSMT-74" transform="translate(2965.330078 0)"/>
     <use xlink:href="#TimesNewRomanPSMT-2d" transform="translate(2993.113281 0)"/>
     <use xlink:href="#TimesNewRomanPSMT-64" transform="translate(3026.414062 0)"/>
     <use xlink:href="#TimesNewRomanPSMT-6f" transform="translate(3076.414062 0)"/>
     <use xlink:href="#TimesNewRomanPSMT-67" transform="translate(3126.414062 0)"/>
    </g>
   </g>
   <g id="legend_1">
    <g id="patch_7">
     <path d="M 389.088125 125.384625 
L 589.645625 125.384625 
Q 594.045625 125.384625 594.045625 120.984625 
L 594.045625 60.9315 
Q 594.045625 56.5315 589.645625 56.5315 
L 389.088125 56.5315 
Q 384.688125 56.5315 384.688125 60.9315 
L 384.688125 120.984625 
Q 384.688125 125.384625 389.088125 125.384625 
z
" style="fill: #ffffff; opacity: 0.8; stroke: #cccccc; stroke-linejoin: miter"/>
    </g>
    <g id="line2d_21">
     <path d="M 393.488125 73.0315 
L 415.488125 73.0315 
L 437.488125 73.0315 
" style="fill: none; stroke: #ffa500; stroke-width: 1.5; stroke-linecap: square"/>
    </g>
    <g id="text_13">
     <!-- Training loss -->
     <g transform="translate(455.088125 80.7315) scale(0.22 -0.22)">
      <defs>
       <path id="TimesNewRomanPSMT-54" d="M 3703 4238 
L 3750 3244 
L 3631 3244 
Q 3597 3506 3538 3619 
Q 3441 3800 3280 3886 
Q 3119 3972 2856 3972 
L 2259 3972 
L 2259 734 
Q 2259 344 2344 247 
Q 2463 116 2709 116 
L 2856 116 
L 2856 0 
L 1059 0 
L 1059 116 
L 1209 116 
Q 1478 116 1591 278 
Q 1659 378 1659 734 
L 1659 3972 
L 1150 3972 
Q 853 3972 728 3928 
Q 566 3869 450 3700 
Q 334 3531 313 3244 
L 194 3244 
L 244 4238 
L 3703 4238 
z
" transform="scale(0.015625)"/>
      </defs>
      <use xlink:href="#TimesNewRomanPSMT-54"/>
      <use xlink:href="#TimesNewRomanPSMT-72" transform="translate(57.583984 0)"/>
      <use xlink:href="#TimesNewRomanPSMT-61" transform="translate(90.884766 0)"/>
      <use xlink:href="#TimesNewRomanPSMT-69" transform="translate(135.269531 0)"/>
      <use xlink:href="#TimesNewRomanPSMT-6e" transform="translate(163.052734 0)"/>
      <use xlink:href="#TimesNewRomanPSMT-69" transform="translate(213.052734 0)"/>
      <use xlink:href="#TimesNewRomanPSMT-6e" transform="translate(240.835938 0)"/>
      <use xlink:href="#TimesNewRomanPSMT-67" transform="translate(290.835938 0)"/>
      <use xlink:href="#TimesNewRomanPSMT-20" transform="translate(340.835938 0)"/>
      <use xlink:href="#TimesNewRomanPSMT-6c" transform="translate(365.835938 0)"/>
      <use xlink:href="#TimesNewRomanPSMT-6f" transform="translate(393.619141 0)"/>
      <use xlink:href="#TimesNewRomanPSMT-73" transform="translate(443.619141 0)"/>
      <use xlink:href="#TimesNewRomanPSMT-73" transform="translate(482.535156 0)"/>
     </g>
    </g>
    <g id="line2d_22">
     <path d="M 393.488125 104.178687 
L 415.488125 104.178687 
L 437.488125 104.178687 
" style="fill: none; stroke: #008000; stroke-width: 1.5; stroke-linecap: square"/>
    </g>
    <g id="text_14">
     <!-- Validation loss -->
     <g transform="translate(455.088125 111.878687) scale(0.22 -0.22)">
      <defs>
       <path id="TimesNewRomanPSMT-56" d="M 4544 4238 
L 4544 4122 
Q 4319 4081 4203 3978 
Q 4038 3825 3909 3509 
L 2431 -97 
L 2316 -97 
L 728 3556 
Q 606 3838 556 3900 
Q 478 3997 364 4051 
Q 250 4106 56 4122 
L 56 4238 
L 1788 4238 
L 1788 4122 
Q 1494 4094 1406 4022 
Q 1319 3950 1319 3838 
Q 1319 3681 1463 3350 
L 2541 866 
L 3541 3319 
Q 3688 3681 3688 3822 
Q 3688 3913 3597 3995 
Q 3506 4078 3291 4113 
Q 3275 4116 3238 4122 
L 3238 4238 
L 4544 4238 
z
" transform="scale(0.015625)"/>
      </defs>
      <use xlink:href="#TimesNewRomanPSMT-56"/>
      <use xlink:href="#TimesNewRomanPSMT-61" transform="translate(61.091797 0)"/>
      <use xlink:href="#TimesNewRomanPSMT-6c" transform="translate(105.476562 0)"/>
      <use xlink:href="#TimesNewRomanPSMT-69" transform="translate(133.259766 0)"/>
      <use xlink:href="#TimesNewRomanPSMT-64" transform="translate(161.042969 0)"/>
      <use xlink:href="#TimesNewRomanPSMT-61" transform="translate(211.042969 0)"/>
      <use xlink:href="#TimesNewRomanPSMT-74" transform="translate(255.427734 0)"/>
      <use xlink:href="#TimesNewRomanPSMT-69" transform="translate(283.210938 0)"/>
      <use xlink:href="#TimesNewRomanPSMT-6f" transform="translate(310.994141 0)"/>
      <use xlink:href="#TimesNewRomanPSMT-6e" transform="translate(360.994141 0)"/>
      <use xlink:href="#TimesNewRomanPSMT-20" transform="translate(410.994141 0)"/>
      <use xlink:href="#TimesNewRomanPSMT-6c" transform="translate(435.994141 0)"/>
      <use xlink:href="#TimesNewRomanPSMT-6f" transform="translate(463.777344 0)"/>
      <use xlink:href="#TimesNewRomanPSMT-73" transform="translate(513.777344 0)"/>
      <use xlink:href="#TimesNewRomanPSMT-73" transform="translate(552.693359 0)"/>
     </g>
    </g>
   </g>
  </g>
 </g>
 <defs>
  <clipPath id="pc57203b7f8">
   <rect x="247.925625" y="45.5315" width="357.12" height="266.112"/>
  </clipPath>
 </defs>
</svg>
