<?xml version="1.0" encoding="utf-8" standalone="no"?>
<!DOCTYPE svg PUBLIC "-//W3C//DTD SVG 1.1//EN"
  "http://www.w3.org/Graphics/SVG/1.1/DTD/svg11.dtd">
<svg xmlns:xlink="http://www.w3.org/1999/xlink" width="814.98825pt" height="383.265687pt" viewBox="0 0 814.98825 383.265687" xmlns="http://www.w3.org/2000/svg" version="1.1">
 <metadata>
  <rdf:RDF xmlns:dc="http://purl.org/dc/elements/1.1/" xmlns:cc="http://creativecommons.org/ns#" xmlns:rdf="http://www.w3.org/1999/02/22-rdf-syntax-ns#">
   <cc:Work>
    <dc:type rdf:resource="http://purl.org/dc/dcmitype/StillImage"/>
    <dc:date>2025-06-16T14:50:34.495871</dc:date>
    <dc:format>image/svg+xml</dc:format>
    <dc:creator>
     <cc:Agent>
      <dc:title>Matplotlib v3.10.1, https://matplotlib.org/</dc:title>
     </cc:Agent>
    </dc:creator>
   </cc:Work>
  </rdf:RDF>
 </metadata>
 <defs>
  <style type="text/css">*{stroke-linejoin: round; stroke-linecap: butt}</style>
 </defs>
 <g id="figure_1">
  <g id="patch_1">
   <path d="M -0 383.265687 
L 814.98825 383.265687 
L 814.98825 0 
L -0 0 
z
" style="fill: #ffffff"/>
  </g>
  <g id="axes_1">
   <g id="patch_2">
    <path d="M 228.934125 311.6435 
L 586.054125 311.6435 
L 586.054125 45.5315 
L 228.934125 45.5315 
z
" style="fill: #ffffff"/>
   </g>
   <g id="matplotlib.axis_1">
    <g id="xtick_1">
     <g id="line2d_1">
      <path d="M 228.934125 311.6435 
L 228.934125 45.5315 
" clip-path="url(#pc39bbe54f4)" style="fill: none; stroke: #b0b0b0; stroke-opacity: 0.3; stroke-width: 0.8; stroke-linecap: square"/>
     </g>
     <g id="line2d_2">
      <defs>
       <path id="mc489788a61" d="M 0 0 
L 0 3.5 
" style="stroke: #000000; stroke-width: 0.8"/>
      </defs>
      <g>
       <use xlink:href="#mc489788a61" x="228.934125" y="311.6435" style="stroke: #000000; stroke-width: 0.8"/>
      </g>
     </g>
     <g id="text_1">
      <!-- 0.0 -->
      <g transform="translate(215.184125 333.91975) scale(0.22 -0.22)">
       <defs>
        <path id="TimesNewRomanPSMT-30" d="M 231 2094 
Q 231 2819 450 3342 
Q 669 3866 1031 4122 
Q 1313 4325 1613 4325 
Q 2100 4325 2488 3828 
Q 2972 3213 2972 2159 
Q 2972 1422 2759 906 
Q 2547 391 2217 158 
Q 1888 -75 1581 -75 
Q 975 -75 572 641 
Q 231 1244 231 2094 
z
M 844 2016 
Q 844 1141 1059 588 
Q 1238 122 1591 122 
Q 1759 122 1940 273 
Q 2122 425 2216 781 
Q 2359 1319 2359 2297 
Q 2359 3022 2209 3506 
Q 2097 3866 1919 4016 
Q 1791 4119 1609 4119 
Q 1397 4119 1231 3928 
Q 1006 3669 925 3112 
Q 844 2556 844 2016 
z
" transform="scale(0.015625)"/>
        <path id="TimesNewRomanPSMT-2e" d="M 800 606 
Q 947 606 1047 504 
Q 1147 403 1147 259 
Q 1147 116 1045 14 
Q 944 -88 800 -88 
Q 656 -88 554 14 
Q 453 116 453 259 
Q 453 406 554 506 
Q 656 606 800 606 
z
" transform="scale(0.015625)"/>
       </defs>
       <use xlink:href="#TimesNewRomanPSMT-30"/>
       <use xlink:href="#TimesNewRomanPSMT-2e" transform="translate(50 0)"/>
       <use xlink:href="#TimesNewRomanPSMT-30" transform="translate(75 0)"/>
      </g>
     </g>
    </g>
    <g id="xtick_2">
     <g id="line2d_3">
      <path d="M 334.954437 311.6435 
L 334.954437 45.5315 
" clip-path="url(#pc39bbe54f4)" style="fill: none; stroke: #b0b0b0; stroke-opacity: 0.3; stroke-width: 0.8; stroke-linecap: square"/>
     </g>
     <g id="line2d_4">
      <g>
       <use xlink:href="#mc489788a61" x="334.954437" y="311.6435" style="stroke: #000000; stroke-width: 0.8"/>
      </g>
     </g>
     <g id="text_2">
      <!-- 0.5 -->
      <g transform="translate(321.204437 333.91975) scale(0.22 -0.22)">
       <defs>
        <path id="TimesNewRomanPSMT-35" d="M 2778 4238 
L 2534 3706 
L 1259 3706 
L 981 3138 
Q 1809 3016 2294 2522 
Q 2709 2097 2709 1522 
Q 2709 1188 2573 903 
Q 2438 619 2231 419 
Q 2025 219 1772 97 
Q 1413 -75 1034 -75 
Q 653 -75 479 54 
Q 306 184 306 341 
Q 306 428 378 495 
Q 450 563 559 563 
Q 641 563 702 538 
Q 763 513 909 409 
Q 1144 247 1384 247 
Q 1750 247 2026 523 
Q 2303 800 2303 1197 
Q 2303 1581 2056 1914 
Q 1809 2247 1375 2428 
Q 1034 2569 447 2591 
L 1259 4238 
L 2778 4238 
z
" transform="scale(0.015625)"/>
       </defs>
       <use xlink:href="#TimesNewRomanPSMT-30"/>
       <use xlink:href="#TimesNewRomanPSMT-2e" transform="translate(50 0)"/>
       <use xlink:href="#TimesNewRomanPSMT-35" transform="translate(75 0)"/>
      </g>
     </g>
    </g>
    <g id="xtick_3">
     <g id="line2d_5">
      <path d="M 440.97475 311.6435 
L 440.97475 45.5315 
" clip-path="url(#pc39bbe54f4)" style="fill: none; stroke: #b0b0b0; stroke-opacity: 0.3; stroke-width: 0.8; stroke-linecap: square"/>
     </g>
     <g id="line2d_6">
      <g>
       <use xlink:href="#mc489788a61" x="440.97475" y="311.6435" style="stroke: #000000; stroke-width: 0.8"/>
      </g>
     </g>
     <g id="text_3">
      <!-- 1.0 -->
      <g transform="translate(427.22475 333.91975) scale(0.22 -0.22)">
       <defs>
        <path id="TimesNewRomanPSMT-31" d="M 750 3822 
L 1781 4325 
L 1884 4325 
L 1884 747 
Q 1884 391 1914 303 
Q 1944 216 2037 169 
Q 2131 122 2419 116 
L 2419 0 
L 825 0 
L 825 116 
Q 1125 122 1212 167 
Q 1300 213 1334 289 
Q 1369 366 1369 747 
L 1369 3034 
Q 1369 3497 1338 3628 
Q 1316 3728 1258 3775 
Q 1200 3822 1119 3822 
Q 1003 3822 797 3725 
L 750 3822 
z
" transform="scale(0.015625)"/>
       </defs>
       <use xlink:href="#TimesNewRomanPSMT-31"/>
       <use xlink:href="#TimesNewRomanPSMT-2e" transform="translate(50 0)"/>
       <use xlink:href="#TimesNewRomanPSMT-30" transform="translate(75 0)"/>
      </g>
     </g>
    </g>
    <g id="xtick_4">
     <g id="line2d_7">
      <path d="M 546.995062 311.6435 
L 546.995062 45.5315 
" clip-path="url(#pc39bbe54f4)" style="fill: none; stroke: #b0b0b0; stroke-opacity: 0.3; stroke-width: 0.8; stroke-linecap: square"/>
     </g>
     <g id="line2d_8">
      <g>
       <use xlink:href="#mc489788a61" x="546.995062" y="311.6435" style="stroke: #000000; stroke-width: 0.8"/>
      </g>
     </g>
     <g id="text_4">
      <!-- 1.5 -->
      <g transform="translate(533.245062 333.91975) scale(0.22 -0.22)">
       <use xlink:href="#TimesNewRomanPSMT-31"/>
       <use xlink:href="#TimesNewRomanPSMT-2e" transform="translate(50 0)"/>
       <use xlink:href="#TimesNewRomanPSMT-35" transform="translate(75 0)"/>
      </g>
     </g>
    </g>
    <g id="text_5">
     <!-- $\kappa  = \frac{ln(n)}{ln(d)}$ -->
     <g transform="translate(375.484125 364.185687) scale(0.22 -0.22)">
      <defs>
       <path id="STIXGeneral-Italic-3ba" d="M 979 1440 
L 998 1446 
Q 1850 2541 2464 2790 
Q 2547 2822 2630 2822 
Q 2797 2822 2886 2736 
Q 2976 2650 2976 2522 
Q 2976 2387 2893 2307 
Q 2810 2227 2682 2227 
Q 2605 2227 2502 2288 
Q 2400 2349 2336 2349 
Q 2170 2349 1990 2205 
Q 1811 2061 1414 1645 
L 2042 544 
Q 2202 262 2310 182 
Q 2419 102 2624 102 
L 2624 0 
Q 2374 -83 2182 -83 
Q 1786 -83 1555 326 
L 960 1350 
L 576 0 
L 90 0 
L 640 1978 
Q 730 2317 730 2406 
Q 730 2560 518 2560 
L 339 2560 
L 339 2650 
Q 678 2694 1306 2822 
L 1325 2803 
L 979 1440 
z
" transform="scale(0.015625)"/>
       <path id="STIXGeneral-Regular-3d" d="M 4077 2048 
L 307 2048 
L 307 2470 
L 4077 2470 
L 4077 2048 
z
M 4077 768 
L 307 768 
L 307 1190 
L 4077 1190 
L 4077 768 
z
" transform="scale(0.015625)"/>
       <path id="STIXGeneral-Italic-6c" d="M 1786 4339 
L 806 595 
Q 755 410 755 320 
Q 755 205 864 205 
Q 1037 205 1293 570 
L 1453 794 
L 1542 730 
Q 1254 275 1046 102 
Q 838 -70 576 -70 
Q 262 -70 262 288 
Q 262 397 288 480 
L 1165 3834 
Q 1184 3898 1184 3955 
Q 1184 4096 870 4096 
L 755 4096 
L 755 4198 
Q 1203 4250 1747 4371 
L 1786 4339 
z
" transform="scale(0.015625)"/>
       <path id="STIXGeneral-Italic-6e" d="M 2944 749 
L 3034 666 
Q 2707 218 2534 80 
Q 2362 -58 2138 -58 
Q 2010 -58 1923 28 
Q 1837 115 1837 288 
Q 1837 390 1939 768 
L 2221 1805 
Q 2310 2150 2310 2310 
Q 2310 2496 2157 2496 
Q 1971 2496 1750 2275 
Q 1530 2054 1210 1587 
Q 998 1274 899 1024 
Q 800 774 570 0 
L 90 0 
L 704 2240 
Q 717 2304 717 2349 
Q 717 2445 630 2480 
Q 544 2515 301 2522 
L 301 2624 
Q 550 2675 857 2729 
Q 1165 2784 1338 2822 
L 1363 2810 
L 934 1414 
Q 1408 2170 1753 2496 
Q 2099 2822 2413 2822 
Q 2611 2822 2720 2716 
Q 2829 2611 2829 2432 
Q 2829 2272 2765 2048 
L 2406 749 
Q 2317 429 2317 358 
Q 2317 243 2419 243 
Q 2541 243 2810 582 
Q 2854 634 2944 749 
z
" transform="scale(0.015625)"/>
       <path id="STIXGeneral-Regular-28" d="M 1946 -1030 
L 1869 -1133 
Q 1126 -710 716 32 
Q 307 774 307 1613 
Q 307 3386 1888 4326 
L 1946 4224 
Q 1293 3667 1075 3126 
Q 858 2586 858 1632 
Q 858 685 1082 96 
Q 1306 -493 1946 -1030 
z
" transform="scale(0.015625)"/>
       <path id="STIXGeneral-Regular-29" d="M 186 4224 
L 262 4326 
Q 992 3891 1408 3148 
Q 1824 2406 1824 1581 
Q 1824 -166 243 -1133 
L 186 -1030 
Q 845 -486 1059 54 
Q 1274 595 1274 1562 
Q 1274 2534 1059 3120 
Q 845 3706 186 4224 
z
" transform="scale(0.015625)"/>
       <path id="STIXGeneral-Italic-64" d="M 3334 4371 
L 3373 4333 
L 3123 3360 
L 2739 1958 
Q 2323 429 2323 384 
Q 2323 256 2438 256 
Q 2522 256 2614 336 
Q 2707 416 2963 710 
L 3040 646 
Q 2547 -83 2099 -83 
Q 1978 -83 1907 -6 
Q 1837 70 1837 205 
Q 1837 397 1920 774 
Q 1645 307 1379 118 
Q 1114 -70 781 -70 
Q 461 -70 278 125 
Q 96 320 96 678 
Q 96 1440 713 2131 
Q 1331 2822 1965 2822 
Q 2163 2822 2256 2732 
Q 2349 2643 2381 2451 
L 2387 2451 
L 2675 3494 
Q 2765 3808 2765 3949 
Q 2765 4051 2694 4076 
Q 2624 4102 2355 4115 
L 2355 4224 
Q 2848 4269 3334 4371 
z
M 2278 2310 
Q 2278 2477 2185 2576 
Q 2093 2675 1978 2675 
Q 1677 2675 1395 2381 
Q 1075 2042 864 1571 
Q 653 1101 653 704 
Q 653 486 752 361 
Q 851 237 1024 237 
Q 1312 237 1606 550 
Q 1901 864 2089 1350 
Q 2278 1837 2278 2310 
z
" transform="scale(0.015625)"/>
      </defs>
      <use xlink:href="#STIXGeneral-Italic-3ba" transform="translate(0 0.003125)"/>
      <use xlink:href="#STIXGeneral-Regular-3d" transform="translate(58.83999 0.003125)"/>
      <use xlink:href="#STIXGeneral-Italic-6c" transform="translate(141.779971 50.192188) scale(0.7)"/>
      <use xlink:href="#STIXGeneral-Italic-6e" transform="translate(161.239963 50.192188) scale(0.7)"/>
      <use xlink:href="#STIXGeneral-Regular-28" transform="translate(196.239952 50.192188) scale(0.7)"/>
      <use xlink:href="#STIXGeneral-Italic-6e" transform="translate(219.549944 50.192188) scale(0.7)"/>
      <use xlink:href="#STIXGeneral-Regular-29" transform="translate(254.549933 50.192188) scale(0.7)"/>
      <use xlink:href="#STIXGeneral-Italic-6c" transform="translate(141.779971 -41.257812) scale(0.7)"/>
      <use xlink:href="#STIXGeneral-Italic-6e" transform="translate(161.239963 -41.257812) scale(0.7)"/>
      <use xlink:href="#STIXGeneral-Regular-28" transform="translate(196.239952 -41.257812) scale(0.7)"/>
      <use xlink:href="#STIXGeneral-Italic-64" transform="translate(219.549944 -41.257812) scale(0.7)"/>
      <use xlink:href="#STIXGeneral-Regular-29" transform="translate(254.549933 -41.257812) scale(0.7)"/>
      <path d="M 141.779971 12.8 
L 141.779971 19.05 
L 277.859924 19.05 
L 277.859924 12.8 
L 141.779971 12.8 
z
"/>
     </g>
    </g>
   </g>
   <g id="matplotlib.axis_2">
    <g id="ytick_1">
     <g id="line2d_9">
      <path d="M 228.934125 311.6435 
L 586.054125 311.6435 
" clip-path="url(#pc39bbe54f4)" style="fill: none; stroke: #b0b0b0; stroke-opacity: 0.3; stroke-width: 0.8; stroke-linecap: square"/>
     </g>
     <g id="line2d_10">
      <defs>
       <path id="m76e4c304a0" d="M 0 0 
L -3.5 0 
" style="stroke: #000000; stroke-width: 0.8"/>
      </defs>
      <g>
       <use xlink:href="#m76e4c304a0" x="228.934125" y="311.6435" style="stroke: #000000; stroke-width: 0.8"/>
      </g>
     </g>
     <g id="text_6">
      <!-- 0.0 -->
      <g transform="translate(194.434125 319.281625) scale(0.22 -0.22)">
       <use xlink:href="#TimesNewRomanPSMT-30"/>
       <use xlink:href="#TimesNewRomanPSMT-2e" transform="translate(50 0)"/>
       <use xlink:href="#TimesNewRomanPSMT-30" transform="translate(75 0)"/>
      </g>
     </g>
    </g>
    <g id="ytick_2">
     <g id="line2d_11">
      <path d="M 228.934125 259.761354 
L 586.054125 259.761354 
" clip-path="url(#pc39bbe54f4)" style="fill: none; stroke: #b0b0b0; stroke-opacity: 0.3; stroke-width: 0.8; stroke-linecap: square"/>
     </g>
     <g id="line2d_12">
      <g>
       <use xlink:href="#m76e4c304a0" x="228.934125" y="259.761354" style="stroke: #000000; stroke-width: 0.8"/>
      </g>
     </g>
     <g id="text_7">
      <!-- 0.1 -->
      <g transform="translate(194.434125 267.399479) scale(0.22 -0.22)">
       <use xlink:href="#TimesNewRomanPSMT-30"/>
       <use xlink:href="#TimesNewRomanPSMT-2e" transform="translate(50 0)"/>
       <use xlink:href="#TimesNewRomanPSMT-31" transform="translate(75 0)"/>
      </g>
     </g>
    </g>
    <g id="ytick_3">
     <g id="line2d_13">
      <path d="M 228.934125 207.879209 
L 586.054125 207.879209 
" clip-path="url(#pc39bbe54f4)" style="fill: none; stroke: #b0b0b0; stroke-opacity: 0.3; stroke-width: 0.8; stroke-linecap: square"/>
     </g>
     <g id="line2d_14">
      <g>
       <use xlink:href="#m76e4c304a0" x="228.934125" y="207.879209" style="stroke: #000000; stroke-width: 0.8"/>
      </g>
     </g>
     <g id="text_8">
      <!-- 0.2 -->
      <g transform="translate(194.434125 215.517334) scale(0.22 -0.22)">
       <defs>
        <path id="TimesNewRomanPSMT-32" d="M 2934 816 
L 2638 0 
L 138 0 
L 138 116 
Q 1241 1122 1691 1759 
Q 2141 2397 2141 2925 
Q 2141 3328 1894 3587 
Q 1647 3847 1303 3847 
Q 991 3847 742 3664 
Q 494 3481 375 3128 
L 259 3128 
Q 338 3706 661 4015 
Q 984 4325 1469 4325 
Q 1984 4325 2329 3994 
Q 2675 3663 2675 3213 
Q 2675 2891 2525 2569 
Q 2294 2063 1775 1497 
Q 997 647 803 472 
L 1909 472 
Q 2247 472 2383 497 
Q 2519 522 2628 598 
Q 2738 675 2819 816 
L 2934 816 
z
" transform="scale(0.015625)"/>
       </defs>
       <use xlink:href="#TimesNewRomanPSMT-30"/>
       <use xlink:href="#TimesNewRomanPSMT-2e" transform="translate(50 0)"/>
       <use xlink:href="#TimesNewRomanPSMT-32" transform="translate(75 0)"/>
      </g>
     </g>
    </g>
    <g id="ytick_4">
     <g id="line2d_15">
      <path d="M 228.934125 155.997063 
L 586.054125 155.997063 
" clip-path="url(#pc39bbe54f4)" style="fill: none; stroke: #b0b0b0; stroke-opacity: 0.3; stroke-width: 0.8; stroke-linecap: square"/>
     </g>
     <g id="line2d_16">
      <g>
       <use xlink:href="#m76e4c304a0" x="228.934125" y="155.997063" style="stroke: #000000; stroke-width: 0.8"/>
      </g>
     </g>
     <g id="text_9">
      <!-- 0.3 -->
      <g transform="translate(194.434125 163.635188) scale(0.22 -0.22)">
       <defs>
        <path id="TimesNewRomanPSMT-33" d="M 325 3431 
Q 506 3859 782 4092 
Q 1059 4325 1472 4325 
Q 1981 4325 2253 3994 
Q 2459 3747 2459 3466 
Q 2459 3003 1878 2509 
Q 2269 2356 2469 2072 
Q 2669 1788 2669 1403 
Q 2669 853 2319 450 
Q 1863 -75 997 -75 
Q 569 -75 414 31 
Q 259 138 259 259 
Q 259 350 332 419 
Q 406 488 509 488 
Q 588 488 669 463 
Q 722 447 909 348 
Q 1097 250 1169 231 
Q 1284 197 1416 197 
Q 1734 197 1970 444 
Q 2206 691 2206 1028 
Q 2206 1275 2097 1509 
Q 2016 1684 1919 1775 
Q 1784 1900 1550 2001 
Q 1316 2103 1072 2103 
L 972 2103 
L 972 2197 
Q 1219 2228 1467 2375 
Q 1716 2522 1828 2728 
Q 1941 2934 1941 3181 
Q 1941 3503 1739 3701 
Q 1538 3900 1238 3900 
Q 753 3900 428 3381 
L 325 3431 
z
" transform="scale(0.015625)"/>
       </defs>
       <use xlink:href="#TimesNewRomanPSMT-30"/>
       <use xlink:href="#TimesNewRomanPSMT-2e" transform="translate(50 0)"/>
       <use xlink:href="#TimesNewRomanPSMT-33" transform="translate(75 0)"/>
      </g>
     </g>
    </g>
    <g id="ytick_5">
     <g id="line2d_17">
      <path d="M 228.934125 104.114918 
L 586.054125 104.114918 
" clip-path="url(#pc39bbe54f4)" style="fill: none; stroke: #b0b0b0; stroke-opacity: 0.3; stroke-width: 0.8; stroke-linecap: square"/>
     </g>
     <g id="line2d_18">
      <g>
       <use xlink:href="#m76e4c304a0" x="228.934125" y="104.114918" style="stroke: #000000; stroke-width: 0.8"/>
      </g>
     </g>
     <g id="text_10">
      <!-- 0.4 -->
      <g transform="translate(194.434125 111.753043) scale(0.22 -0.22)">
       <defs>
        <path id="TimesNewRomanPSMT-34" d="M 2978 1563 
L 2978 1119 
L 2409 1119 
L 2409 0 
L 1894 0 
L 1894 1119 
L 100 1119 
L 100 1519 
L 2066 4325 
L 2409 4325 
L 2409 1563 
L 2978 1563 
z
M 1894 1563 
L 1894 3666 
L 406 1563 
L 1894 1563 
z
" transform="scale(0.015625)"/>
       </defs>
       <use xlink:href="#TimesNewRomanPSMT-30"/>
       <use xlink:href="#TimesNewRomanPSMT-2e" transform="translate(50 0)"/>
       <use xlink:href="#TimesNewRomanPSMT-34" transform="translate(75 0)"/>
      </g>
     </g>
    </g>
    <g id="ytick_6">
     <g id="line2d_19">
      <path d="M 228.934125 52.232772 
L 586.054125 52.232772 
" clip-path="url(#pc39bbe54f4)" style="fill: none; stroke: #b0b0b0; stroke-opacity: 0.3; stroke-width: 0.8; stroke-linecap: square"/>
     </g>
     <g id="line2d_20">
      <g>
       <use xlink:href="#m76e4c304a0" x="228.934125" y="52.232772" style="stroke: #000000; stroke-width: 0.8"/>
      </g>
     </g>
     <g id="text_11">
      <!-- 0.5 -->
      <g transform="translate(194.434125 59.870897) scale(0.22 -0.22)">
       <use xlink:href="#TimesNewRomanPSMT-30"/>
       <use xlink:href="#TimesNewRomanPSMT-2e" transform="translate(50 0)"/>
       <use xlink:href="#TimesNewRomanPSMT-35" transform="translate(75 0)"/>
      </g>
     </g>
    </g>
    <g id="text_12">
     <!-- Loss -->
     <g transform="translate(185.728187 199.368906) rotate(-90) scale(0.22 -0.22)">
      <defs>
       <path id="TimesNewRomanPSMT-4c" d="M 3669 1172 
L 3772 1150 
L 3409 0 
L 128 0 
L 128 116 
L 288 116 
Q 556 116 672 291 
Q 738 391 738 753 
L 738 3488 
Q 738 3884 650 3984 
Q 528 4122 288 4122 
L 128 4122 
L 128 4238 
L 2047 4238 
L 2047 4122 
Q 1709 4125 1573 4059 
Q 1438 3994 1388 3894 
Q 1338 3794 1338 3416 
L 1338 753 
Q 1338 494 1388 397 
Q 1425 331 1503 300 
Q 1581 269 1991 269 
L 2300 269 
Q 2788 269 2984 341 
Q 3181 413 3343 595 
Q 3506 778 3669 1172 
z
" transform="scale(0.015625)"/>
       <path id="TimesNewRomanPSMT-6f" d="M 1600 2947 
Q 2250 2947 2644 2453 
Q 2978 2031 2978 1484 
Q 2978 1100 2793 706 
Q 2609 313 2286 112 
Q 1963 -88 1566 -88 
Q 919 -88 538 428 
Q 216 863 216 1403 
Q 216 1797 411 2186 
Q 606 2575 925 2761 
Q 1244 2947 1600 2947 
z
M 1503 2744 
Q 1338 2744 1170 2645 
Q 1003 2547 900 2300 
Q 797 2053 797 1666 
Q 797 1041 1045 587 
Q 1294 134 1700 134 
Q 2003 134 2200 384 
Q 2397 634 2397 1244 
Q 2397 2006 2069 2444 
Q 1847 2744 1503 2744 
z
" transform="scale(0.015625)"/>
       <path id="TimesNewRomanPSMT-73" d="M 2050 2947 
L 2050 1972 
L 1947 1972 
Q 1828 2431 1642 2597 
Q 1456 2763 1169 2763 
Q 950 2763 815 2647 
Q 681 2531 681 2391 
Q 681 2216 781 2091 
Q 878 1963 1175 1819 
L 1631 1597 
Q 2266 1288 2266 781 
Q 2266 391 1970 151 
Q 1675 -88 1309 -88 
Q 1047 -88 709 6 
Q 606 38 541 38 
Q 469 38 428 -44 
L 325 -44 
L 325 978 
L 428 978 
Q 516 541 762 319 
Q 1009 97 1316 97 
Q 1531 97 1667 223 
Q 1803 350 1803 528 
Q 1803 744 1651 891 
Q 1500 1038 1047 1263 
Q 594 1488 453 1669 
Q 313 1847 313 2119 
Q 313 2472 555 2709 
Q 797 2947 1181 2947 
Q 1350 2947 1591 2875 
Q 1750 2828 1803 2828 
Q 1853 2828 1881 2850 
Q 1909 2872 1947 2947 
L 2050 2947 
z
" transform="scale(0.015625)"/>
      </defs>
      <use xlink:href="#TimesNewRomanPSMT-4c"/>
      <use xlink:href="#TimesNewRomanPSMT-6f" transform="translate(61.083984 0)"/>
      <use xlink:href="#TimesNewRomanPSMT-73" transform="translate(111.083984 0)"/>
      <use xlink:href="#TimesNewRomanPSMT-73" transform="translate(150 0)"/>
     </g>
    </g>
   </g>
   <g id="line2d_21">
    <path d="M 228.934125 50.719715 
L 302.29026 52.425275 
L 333.985481 52.552884 
L 363.367015 52.792732 
L 373.005666 52.932679 
L 382.420039 53.062607 
L 387.963656 53.081208 
L 391.169835 53.391408 
L 392.655127 53.658036 
L 395.425436 53.810029 
L 396.721859 54.172877 
L 397.965567 54.821867 
L 402.489069 58.799411 
L 403.522647 127.589668 
L 404.522442 175.049747 
L 405.490592 195.030803 
L 407.339554 205.775946 
L 409.083103 212.565788 
L 410.732613 217.636324 
L 412.297711 221.312226 
L 413.786619 224.124338 
L 415.892335 227.44278 
L 419.108635 232.208132 
L 422.56893 236.904099 
L 424.162571 238.759015 
L 426.165971 240.973889 
L 429.384206 244.979992 
L 432.295873 248.821245 
L 434.588405 251.93285 
L 437.734085 256.389699 
L 440.887337 260.256152 
L 444.017398 264.040091 
L 446.856711 267.495082 
L 452.675548 273.517178 
L 453.080465 274.119175 
L 453.280931 272.755515 
L 453.677964 274.772046 
L 454.456899 275.477271 
L 456.140202 277.393742 
L 460.539629 282.584971 
L 462.225933 284.635904 
L 463.396463 285.99662 
L 463.539679 285.865869 
L 463.824117 286.388858 
L 464.799322 287.531595 
L 468.779449 291.761679 
L 471.208582 294.004088 
L 471.759587 294.542939 
L 474.872164 297.170256 
L 477.152586 299.049321 
L 478.844603 300.205388 
L 481.656887 301.377527 
L 482.971667 301.718283 
L 484.304819 302.051754 
L 484.736598 302.236951 
L 485.442955 302.485853 
L 486.133371 302.675394 
L 486.607554 302.886492 
L 487.008228 303.119883 
L 488.307128 303.885392 
L 489.307945 304.068721 
L 490.750333 304.31358 
L 493.766666 305.003502 
L 494.136765 305.133455 
L 495.220934 305.281419 
L 496.021922 305.387379 
L 496.512094 305.624954 
L 497.137797 305.834841 
L 497.327774 305.945235 
L 499.387474 306.345383 
L 499.695764 306.433484 
L 502.096785 306.731456 
L 502.29868 306.779742 
L 502.77786 306.898191 
L 503.014664 306.938587 
L 504.845865 307.049196 
L 505.03046 307.099268 
L 505.250514 307.188525 
L 505.323514 294.012969 
L 505.396341 304.059729 
L 505.541477 307.158398 
L 506.115232 307.186989 
L 522.037458 307.471778 
L 522.184874 307.516646 
L 524.354063 307.686967 
L 524.51023 307.726694 
L 526.177417 307.843303 
L 526.324569 307.889181 
L 527.494643 308.000926 
L 527.635607 308.048309 
L 529.806934 308.159403 
L 529.937658 308.210493 
L 531.152444 308.295393 
L 531.168111 307.011837 
L 531.246325 308.310221 
L 531.261943 308.305564 
L 531.58811 308.313661 
L 537.713902 308.421978 
L 537.865274 308.470073 
L 541.990844 308.579303 
L 542.111557 308.628625 
L 544.410574 308.735874 
L 544.420731 308.188641 
L 544.430886 292.078797 
L 544.522123 308.754362 
L 544.693723 308.784246 
L 551.881936 308.933837 
L 552.08024 308.942886 
L 554.86687 309.048117 
L 554.874087 309.064362 
L 554.881302 209.293803 
L 554.982142 309.093195 
L 557.31429 309.098874 
L 560.656344 309.203253 
L 560.775582 309.254309 
L 562.080225 309.286355 
L 562.085926 277.973536 
L 562.188369 309.304193 
L 569.118805 309.360149 
L 569.123334 152.679976 
L 569.22733 309.407107 
L 571.138905 309.411587 
L 578.879024 309.516361 
L 578.882316 303.682919 
L 578.987484 309.520304 
L 579.504742 309.567234 
L 583.346659 309.620013 
L 583.349504 186.022423 
L 583.457418 309.670736 
L 586.054125 309.671707 
L 586.054125 309.671707 
" clip-path="url(#pc39bbe54f4)" style="fill: none; stroke: #ffa500; stroke-width: 1.5; stroke-linecap: square"/>
   </g>
   <g id="line2d_22">
    <path d="M 228.934125 50.988693 
L 302.29026 52.231906 
L 370.117578 52.279329 
L 380.323945 52.840479 
L 386.225063 52.915841 
L 391.169835 53.123759 
L 392.655127 53.088521 
L 394.07163 52.765209 
L 395.425436 52.758004 
L 396.721859 51.976225 
L 401.419344 51.784774 
L 402.489069 52.502122 
L 403.522647 131.260289 
L 404.522442 176.838215 
L 405.490592 192.178319 
L 407.339554 203.285716 
L 408.223749 206.533071 
L 409.083103 207.784556 
L 410.732613 209.570651 
L 411.52517 210.274856 
L 413.051223 211.257595 
L 415.206409 212.247432 
L 418.49186 214.759696 
L 419.71322 215.67226 
L 422.018717 216.822871 
L 425.677287 217.911348 
L 427.120526 218.604598 
L 428.944673 219.705321 
L 432.690092 222.180398 
L 434.21805 223.568963 
L 437.734085 226.104026 
L 439.975013 227.313192 
L 440.887337 227.639357 
L 442.062929 228.377292 
L 442.915893 229.135576 
L 443.745718 229.701288 
L 444.818255 230.63812 
L 445.080615 230.646346 
L 445.854459 231.362387 
L 446.359689 231.579305 
L 447.345786 232.248241 
L 448.998479 233.476819 
L 449.454729 233.63253 
L 449.680328 233.592661 
L 450.126594 234.161473 
L 450.566443 234.391889 
L 451.427612 234.954662 
L 452.471062 235.664526 
L 453.080465 236.368685 
L 453.280931 235.221963 
L 453.480092 236.935185 
L 453.874565 236.8829 
L 454.648572 237.420648 
L 456.140202 238.316135 
L 459.416014 239.951668 
L 460.222786 240.281574 
L 462.076416 241.035853 
L 463.396463 242.35739 
L 463.539679 242.989758 
L 463.682229 242.172015 
L 463.824117 242.909317 
L 463.96535 242.249302 
L 464.105933 242.783092 
L 464.245874 242.676558 
L 465.611161 243.548751 
L 466.271614 243.696066 
L 467.045784 243.777436 
L 468.416131 244.354427 
L 468.779449 244.503605 
L 470.760518 244.8327 
L 471.430176 244.857385 
L 472.085488 245.032393 
L 472.514692 244.900957 
L 473.251607 245.549027 
L 474.173709 246.266452 
L 474.674227 246.127727 
L 474.872164 246.123753 
L 475.166688 246.289398 
L 475.555027 246.162091 
L 476.128446 246.257608 
L 476.784126 246.784386 
L 478.232063 247.276679 
L 478.320323 247.350654 
L 478.496083 247.225152 
L 479.189197 247.614514 
L 479.529952 247.756777 
L 480.034072 248.07024 
L 480.77501 248.275565 
L 481.098642 248.384959 
L 482.282652 248.716895 
L 482.590798 248.687792 
L 482.895872 248.553067 
L 483.047275 248.571451 
L 483.197933 248.716512 
L 484.52147 248.433506 
L 484.736598 248.61953 
L 484.807972 248.499943 
L 484.950223 248.365396 
L 485.512702 248.422064 
L 486.201563 248.477716 
L 486.337493 248.805868 
L 486.405232 248.775551 
L 486.607554 248.822435 
L 487.074499 248.295928 
L 487.272457 248.243883 
L 487.403721 248.405825 
L 487.599567 248.302492 
L 487.794167 247.948464 
L 488.179692 248.156174 
L 488.243476 247.998272 
L 488.307128 248.072861 
L 488.370647 248.246194 
L 488.434035 248.202704 
L 488.936465 248.437754 
L 489.553115 248.593558 
L 490.217375 248.821573 
L 490.514609 248.782145 
L 490.632698 248.587787 
L 490.925942 248.801681 
L 491.331818 249.012372 
L 491.50413 249.078832 
L 491.618467 249.137174 
L 491.958938 248.438798 
L 492.127763 248.757379 
L 492.183832 248.6404 
L 492.407084 249.184855 
L 492.57346 249.166343 
L 492.793897 249.357613 
L 493.392034 249.405619 
L 493.499541 249.172644 
L 493.713427 249.467432 
L 493.819812 249.425051 
L 493.925829 249.282684 
L 494.031479 249.436848 
L 494.136765 249.049914 
L 494.241691 249.589173 
L 494.294019 249.551546 
L 494.398407 249.450992 
L 494.502441 249.093764 
L 494.606122 249.457343 
L 494.657831 249.445909 
L 494.915072 249.553951 
L 495.573949 249.766106 
L 496.021922 249.811406 
L 496.071294 250.124826 
L 496.120587 249.938825 
L 496.365865 249.251199 
L 496.414686 249.518187 
L 496.463429 249.453161 
L 496.512094 249.293411 
L 496.560682 249.549169 
L 496.657627 249.491372 
L 497.137797 249.234566 
L 497.185402 248.915966 
L 497.232933 248.984439 
L 497.422323 249.481627 
L 497.563599 250.038907 
L 497.657422 249.94978 
L 497.704226 249.719955 
L 497.750958 249.856845 
L 497.890728 249.96237 
L 498.260357 250.139217 
L 498.44351 250.154022 
L 498.534676 249.900487 
L 498.580158 249.995938 
L 498.806558 250.521057 
L 498.986479 250.200049 
L 499.031294 250.549852 
L 499.120729 250.422715 
L 499.209902 250.397751 
L 499.254392 250.047581 
L 499.298817 250.317453 
L 499.343177 250.277275 
L 499.475874 250.653282 
L 499.519979 250.498869 
L 499.56402 250.663521 
L 500.17403 250.94531 
L 500.559852 251.026977 
L 500.602422 250.874088 
L 500.644934 251.196252 
L 500.687386 251.095976 
L 500.729779 250.920045 
L 500.772114 251.191517 
L 500.81439 251.016018 
L 500.898767 251.332179 
L 500.982912 251.255259 
L 501.150512 251.227512 
L 501.192269 250.964777 
L 501.233968 251.487697 
L 501.275611 251.390703 
L 501.400202 251.065354 
L 501.441619 251.5443 
L 501.524286 251.445408 
L 501.688954 251.507678 
L 501.770956 251.536209 
L 501.852739 251.340741 
L 501.893549 251.419714 
L 501.934305 251.668688 
L 502.015653 251.620906 
L 502.096785 251.657671 
L 502.137271 251.519093 
L 502.177703 251.763552 
L 502.379066 251.834751 
L 502.459242 251.416417 
L 502.499251 251.185869 
L 502.539208 251.53297 
L 502.658767 251.63231 
L 502.738214 251.465922 
L 502.817455 251.751901 
L 502.856998 251.515644 
L 502.935933 251.615046 
L 503.171521 251.835899 
L 503.867592 252.030462 
L 504.360639 252.017443 
L 504.473299 251.91152 
L 504.548176 251.294193 
L 504.585546 252.124197 
L 504.660149 251.906723 
L 504.697383 251.602924 
L 504.734571 252.080459 
L 504.771714 251.743474 
L 504.808812 251.788747 
L 504.845865 251.723003 
L 504.882873 251.471666 
L 504.956755 251.619704 
L 504.99363 251.666523 
L 505.140685 250.844134 
L 505.177338 251.367556 
L 505.250514 250.824961 
L 505.323514 246.192412 
L 505.35995 250.369162 
L 505.396341 248.913078 
L 505.43269 251.957906 
L 505.541477 251.918772 
L 505.8297 251.497736 
L 506.221624 251.39758 
L 507.436262 251.425725 
L 511.238698 251.493947 
L 514.404337 251.358546 
L 514.941459 251.295433 
L 517.025208 251.330022 
L 517.567485 251.261637 
L 517.640693 251.070905 
L 517.665056 251.195664 
L 517.738031 251.468926 
L 517.786584 251.439123 
L 519.162119 251.348005 
L 519.254741 251.103193 
L 519.324025 250.639095 
L 519.393152 250.736889 
L 519.462123 250.666923 
L 519.508018 250.341767 
L 519.553843 250.589071 
L 519.69091 250.759278 
L 520.255503 250.93216 
L 521.61231 251.062656 
L 521.931723 250.971538 
L 521.974061 250.828405 
L 522.058561 250.335281 
L 522.100723 250.611229 
L 522.142828 250.82287 
L 522.226863 250.799205 
L 522.289739 250.776081 
L 522.310668 250.734937 
L 522.373372 250.401002 
L 522.456777 250.563849 
L 522.95249 250.729111 
L 523.217684 250.670348 
L 523.278558 250.301635 
L 523.298822 250.205117 
L 523.339311 250.391698 
L 523.460455 250.45936 
L 523.701315 250.53088 
L 523.741274 250.423851 
L 523.761234 250.254781 
L 523.840945 250.433488 
L 524.039318 250.676328 
L 524.27568 250.750932 
L 524.334486 250.640773 
L 524.373628 250.43338 
L 524.432246 250.704306 
L 524.529695 250.762189 
L 524.549147 250.745977 
L 524.588015 250.666123 
L 524.626834 250.120068 
L 524.704324 250.513338 
L 524.897193 250.898069 
L 525.411949 251.208645 
L 526.158973 251.566113 
L 526.19585 251.757765 
L 526.214271 251.574887 
L 526.251081 251.190863 
L 526.324569 251.307262 
L 526.834097 251.43455 
L 526.888189 251.433974 
L 526.906199 250.731353 
L 526.996088 251.24953 
L 527.03197 251.22079 
L 527.067809 250.641681 
L 527.085714 251.378538 
L 527.139363 251.206175 
L 527.317519 251.339524 
L 527.476976 251.397475 
L 527.494643 251.325573 
L 527.512299 251.060012 
L 527.529945 251.460093 
L 527.600427 251.347382 
L 527.828379 251.584516 
L 528.141226 251.713385 
L 528.193058 251.353497 
L 528.227563 251.810684 
L 528.244802 251.684773 
L 528.26203 251.668537 
L 528.313658 251.749856 
L 528.655632 251.954706 
L 529.144801 252.009604 
L 529.178251 251.752408 
L 529.194962 252.228083 
L 529.24504 252.060092 
L 529.692091 252.213294 
L 529.806934 252.263944 
L 529.823305 252.700465 
L 529.839668 251.2481 
L 529.90503 252.033864 
L 530.310407 252.310925 
L 530.979577 252.427486 
L 530.995333 251.963886 
L 531.073989 252.469976 
L 531.121086 252.486976 
L 531.152444 252.381231 
L 531.168111 249.06616 
L 531.246325 252.711308 
L 531.261943 252.402998 
L 531.293157 252.679333 
L 531.386608 252.580058 
L 531.788293 252.469806 
L 532.859072 252.45037 
L 535.984034 252.569714 
L 535.997413 252.309565 
L 536.050868 253.016394 
L 536.064217 252.964736 
L 536.07756 252.989521 
L 536.130876 252.928535 
L 536.157499 252.918372 
L 536.841683 252.799697 
L 537.216705 252.650043 
L 537.242399 252.437865 
L 537.255239 251.932719 
L 537.344964 252.652614 
L 537.498168 252.674821 
L 537.675942 252.546923 
L 537.713902 252.321528 
L 537.739183 251.513209 
L 537.827501 252.177035 
L 538.24046 252.246916 
L 538.277727 251.909761 
L 538.339737 252.287144 
L 538.500378 252.334636 
L 540.237201 252.490618 
L 541.323886 252.624937 
L 541.614688 252.742016 
L 541.659183 252.967264 
L 541.681406 252.64917 
L 541.692511 252.59438 
L 541.759059 252.704849 
L 541.78121 252.705823 
L 541.957839 252.79892 
L 542.023813 253.193393 
L 542.001837 252.775058 
L 542.100603 252.894445 
L 542.199051 252.810439 
L 542.231796 252.54293 
L 542.242704 251.749988 
L 542.329824 252.592057 
L 542.340696 252.582246 
L 542.804597 252.633789 
L 543.177066 252.513633 
L 543.187641 252.026933 
L 543.208782 253.065429 
L 543.282658 252.628613 
L 543.701418 252.792635 
L 544.400413 252.947209 
L 544.410574 252.878604 
L 544.430886 242.455466 
L 544.451184 253.034357 
L 544.522123 252.535164 
L 544.542362 252.217128 
L 544.623181 252.641222 
L 544.984247 252.772322 
L 545.781394 252.808016 
L 546.548823 252.714219 
L 546.652855 252.55056 
L 546.700025 251.704479 
L 546.794149 252.364103 
L 547.028198 252.549872 
L 547.546059 252.602791 
L 549.739584 252.753806 
L 550.829511 252.801433 
L 550.85421 252.507962 
L 550.887112 252.844545 
L 550.961011 252.730176 
L 551.433016 252.837575 
L 551.873977 252.886378 
L 551.881936 252.403214 
L 551.905801 253.312416 
L 551.977282 253.104899 
L 552.49644 253.148232 
L 554.291259 253.346425 
L 554.298613 252.64484 
L 554.394058 253.668202 
L 554.408716 253.664948 
L 554.416042 253.608349 
L 554.430689 253.203439 
L 554.452646 253.915634 
L 554.518424 253.752942 
L 554.86687 253.619497 
L 554.874087 252.653229 
L 554.881302 188.527381 
L 554.982142 253.612605 
L 555.495557 253.669764 
L 557.447262 253.718392 
L 558.271956 253.671546 
L 558.297776 252.832535 
L 558.387975 253.369858 
L 558.644231 253.626714 
L 559.125281 253.735961 
L 560.247424 253.951379 
L 560.295817 254.053274 
L 560.26558 253.743986 
L 560.3562 253.988349 
L 560.656344 253.894648 
L 560.662317 253.055146 
L 560.680229 254.415307 
L 560.763679 254.182552 
L 561.148171 254.063908 
L 562.063115 253.806998 
L 562.074523 252.415499 
L 562.080225 252.951044 
L 562.085926 234.046953 
L 562.114417 253.601882 
L 562.188369 253.505077 
L 565.882179 253.797883 
L 565.887214 253.734164 
L 565.892248 253.306436 
L 565.907346 254.422145 
L 565.992759 254.133704 
L 566.441016 254.13353 
L 569.118805 254.168057 
L 569.123334 145.398525 
L 569.22733 253.67976 
L 569.452195 253.791373 
L 570.465804 254.071102 
L 572.086652 254.260277 
L 572.094873 253.130222 
L 572.115416 254.537705 
L 572.181061 254.416196 
L 572.430049 254.286694 
L 573.085601 254.292824 
L 574.164553 254.396111 
L 574.183753 252.411788 
L 574.172235 255.208253 
L 574.275743 254.314815 
L 574.587973 254.449834 
L 575.266086 254.525892 
L 576.745195 254.47811 
L 578.875731 254.391252 
L 578.879024 254.2641 
L 578.882316 241.048617 
L 578.987484 254.131118 
L 579.007163 253.885738 
L 579.01372 253.773437 
L 579.075939 254.058523 
L 579.111903 254.048771 
L 579.630292 253.946137 
L 580.44812 254.086746 
L 582.012056 254.334854 
L 582.986057 254.234157 
L 582.991814 252.8356 
L 582.997571 254.264389 
L 583.098127 254.12733 
L 583.312499 254.247984 
L 583.346659 254.161543 
L 583.349504 173.330641 
L 583.366569 254.411658 
L 583.457418 254.326752 
L 583.697435 254.364476 
L 585.142243 254.427677 
L 586.054125 254.331476 
L 586.054125 254.331476 
" clip-path="url(#pc39bbe54f4)" style="fill: none; stroke: #008000; stroke-width: 1.5; stroke-linecap: square"/>
   </g>
   <g id="patch_3">
    <path d="M 228.934125 311.6435 
L 228.934125 45.5315 
" style="fill: none; stroke: #000000; stroke-width: 0.8; stroke-linejoin: miter; stroke-linecap: square"/>
   </g>
   <g id="patch_4">
    <path d="M 586.054125 311.6435 
L 586.054125 45.5315 
" style="fill: none; stroke: #000000; stroke-width: 0.8; stroke-linejoin: miter; stroke-linecap: square"/>
   </g>
   <g id="patch_5">
    <path d="M 228.934125 311.6435 
L 586.054125 311.6435 
" style="fill: none; stroke: #000000; stroke-width: 0.8; stroke-linejoin: miter; stroke-linecap: square"/>
   </g>
   <g id="patch_6">
    <path d="M 228.934125 45.5315 
L 586.054125 45.5315 
" style="fill: none; stroke: #000000; stroke-width: 0.8; stroke-linejoin: miter; stroke-linecap: square"/>
   </g>
   <g id="text_13">
    <!-- Loss of the 11_06_25_CIFAR10_torch_model_(1024+2048.1+1)_car-plane -->
    <g transform="translate(7.2 25.5315) scale(0.264 -0.264)">
     <defs>
      <path id="TimesNewRomanPSMT-20" transform="scale(0.015625)"/>
      <path id="TimesNewRomanPSMT-66" d="M 1319 2638 
L 1319 756 
Q 1319 356 1406 250 
Q 1522 113 1716 113 
L 1975 113 
L 1975 0 
L 266 0 
L 266 113 
L 394 113 
Q 519 113 622 175 
Q 725 238 764 344 
Q 803 450 803 756 
L 803 2638 
L 247 2638 
L 247 2863 
L 803 2863 
L 803 3050 
Q 803 3478 940 3775 
Q 1078 4072 1361 4255 
Q 1644 4438 1997 4438 
Q 2325 4438 2600 4225 
Q 2781 4084 2781 3909 
Q 2781 3816 2700 3733 
Q 2619 3650 2525 3650 
Q 2453 3650 2373 3701 
Q 2294 3753 2178 3923 
Q 2063 4094 1966 4153 
Q 1869 4213 1750 4213 
Q 1606 4213 1506 4136 
Q 1406 4059 1362 3898 
Q 1319 3738 1319 3069 
L 1319 2863 
L 2056 2863 
L 2056 2638 
L 1319 2638 
z
" transform="scale(0.015625)"/>
      <path id="TimesNewRomanPSMT-74" d="M 1031 3803 
L 1031 2863 
L 1700 2863 
L 1700 2644 
L 1031 2644 
L 1031 788 
Q 1031 509 1111 412 
Q 1191 316 1316 316 
Q 1419 316 1516 380 
Q 1613 444 1666 569 
L 1788 569 
Q 1678 263 1478 108 
Q 1278 -47 1066 -47 
Q 922 -47 784 33 
Q 647 113 581 261 
Q 516 409 516 719 
L 516 2644 
L 63 2644 
L 63 2747 
Q 234 2816 414 2980 
Q 594 3144 734 3369 
Q 806 3488 934 3803 
L 1031 3803 
z
" transform="scale(0.015625)"/>
      <path id="TimesNewRomanPSMT-68" d="M 1041 4444 
L 1041 2350 
Q 1388 2731 1591 2839 
Q 1794 2947 1997 2947 
Q 2241 2947 2416 2812 
Q 2591 2678 2675 2391 
Q 2734 2191 2734 1659 
L 2734 647 
Q 2734 375 2778 275 
Q 2809 200 2884 156 
Q 2959 113 3159 113 
L 3159 0 
L 1753 0 
L 1753 113 
L 1819 113 
Q 2019 113 2097 173 
Q 2175 234 2206 353 
Q 2216 403 2216 647 
L 2216 1659 
Q 2216 2128 2167 2275 
Q 2119 2422 2012 2495 
Q 1906 2569 1756 2569 
Q 1603 2569 1437 2487 
Q 1272 2406 1041 2159 
L 1041 647 
Q 1041 353 1073 281 
Q 1106 209 1195 161 
Q 1284 113 1503 113 
L 1503 0 
L 84 0 
L 84 113 
Q 275 113 384 172 
Q 447 203 484 290 
Q 522 378 522 647 
L 522 3238 
Q 522 3728 498 3840 
Q 475 3953 426 3993 
Q 378 4034 297 4034 
Q 231 4034 84 3984 
L 41 4094 
L 897 4444 
L 1041 4444 
z
" transform="scale(0.015625)"/>
      <path id="TimesNewRomanPSMT-65" d="M 681 1784 
Q 678 1147 991 784 
Q 1303 422 1725 422 
Q 2006 422 2214 576 
Q 2422 731 2563 1106 
L 2659 1044 
Q 2594 616 2278 264 
Q 1963 -88 1488 -88 
Q 972 -88 605 314 
Q 238 716 238 1394 
Q 238 2128 614 2539 
Q 991 2950 1559 2950 
Q 2041 2950 2350 2633 
Q 2659 2316 2659 1784 
L 681 1784 
z
M 681 1966 
L 2006 1966 
Q 1991 2241 1941 2353 
Q 1863 2528 1708 2628 
Q 1553 2728 1384 2728 
Q 1125 2728 920 2526 
Q 716 2325 681 1966 
z
" transform="scale(0.015625)"/>
      <path id="TimesNewRomanPSMT-5f" d="M 3256 -1381 
L -53 -1381 
L -53 -1119 
L 3256 -1119 
L 3256 -1381 
z
" transform="scale(0.015625)"/>
      <path id="TimesNewRomanPSMT-36" d="M 2869 4325 
L 2869 4209 
Q 2456 4169 2195 4045 
Q 1934 3922 1679 3669 
Q 1425 3416 1258 3105 
Q 1091 2794 978 2366 
Q 1428 2675 1881 2675 
Q 2316 2675 2634 2325 
Q 2953 1975 2953 1425 
Q 2953 894 2631 456 
Q 2244 -75 1606 -75 
Q 1172 -75 869 213 
Q 275 772 275 1663 
Q 275 2231 503 2743 
Q 731 3256 1154 3653 
Q 1578 4050 1965 4187 
Q 2353 4325 2688 4325 
L 2869 4325 
z
M 925 2138 
Q 869 1716 869 1456 
Q 869 1156 980 804 
Q 1091 453 1309 247 
Q 1469 100 1697 100 
Q 1969 100 2183 356 
Q 2397 613 2397 1088 
Q 2397 1622 2184 2012 
Q 1972 2403 1581 2403 
Q 1463 2403 1327 2353 
Q 1191 2303 925 2138 
z
" transform="scale(0.015625)"/>
      <path id="TimesNewRomanPSMT-43" d="M 3853 4334 
L 3950 2894 
L 3853 2894 
Q 3659 3541 3300 3825 
Q 2941 4109 2438 4109 
Q 2016 4109 1675 3895 
Q 1334 3681 1139 3212 
Q 944 2744 944 2047 
Q 944 1472 1128 1050 
Q 1313 628 1683 403 
Q 2053 178 2528 178 
Q 2941 178 3256 354 
Q 3572 531 3950 1056 
L 4047 994 
Q 3728 428 3303 165 
Q 2878 -97 2294 -97 
Q 1241 -97 663 684 
Q 231 1266 231 2053 
Q 231 2688 515 3219 
Q 800 3750 1298 4042 
Q 1797 4334 2388 4334 
Q 2847 4334 3294 4109 
Q 3425 4041 3481 4041 
Q 3566 4041 3628 4100 
Q 3709 4184 3744 4334 
L 3853 4334 
z
" transform="scale(0.015625)"/>
      <path id="TimesNewRomanPSMT-49" d="M 1975 116 
L 1975 0 
L 159 0 
L 159 116 
L 309 116 
Q 572 116 691 269 
Q 766 369 766 750 
L 766 3488 
Q 766 3809 725 3913 
Q 694 3991 597 4047 
Q 459 4122 309 4122 
L 159 4122 
L 159 4238 
L 1975 4238 
L 1975 4122 
L 1822 4122 
Q 1563 4122 1444 3969 
Q 1366 3869 1366 3488 
L 1366 750 
Q 1366 428 1406 325 
Q 1438 247 1538 191 
Q 1672 116 1822 116 
L 1975 116 
z
" transform="scale(0.015625)"/>
      <path id="TimesNewRomanPSMT-46" d="M 1309 4006 
L 1309 2341 
L 2081 2341 
Q 2347 2341 2470 2458 
Q 2594 2575 2634 2922 
L 2750 2922 
L 2750 1488 
L 2634 1488 
Q 2631 1734 2570 1850 
Q 2509 1966 2401 2023 
Q 2294 2081 2081 2081 
L 1309 2081 
L 1309 750 
Q 1309 428 1350 325 
Q 1381 247 1481 191 
Q 1619 116 1769 116 
L 1922 116 
L 1922 0 
L 103 0 
L 103 116 
L 253 116 
Q 516 116 634 269 
Q 709 369 709 750 
L 709 3488 
Q 709 3809 669 3913 
Q 638 3991 541 4047 
Q 406 4122 253 4122 
L 103 4122 
L 103 4238 
L 3256 4238 
L 3297 3306 
L 3188 3306 
Q 3106 3603 2998 3742 
Q 2891 3881 2733 3943 
Q 2575 4006 2244 4006 
L 1309 4006 
z
" transform="scale(0.015625)"/>
      <path id="TimesNewRomanPSMT-41" d="M 2928 1419 
L 1288 1419 
L 1000 750 
Q 894 503 894 381 
Q 894 284 986 211 
Q 1078 138 1384 116 
L 1384 0 
L 50 0 
L 50 116 
Q 316 163 394 238 
Q 553 388 747 847 
L 2238 4334 
L 2347 4334 
L 3822 809 
Q 4000 384 4145 257 
Q 4291 131 4550 116 
L 4550 0 
L 2878 0 
L 2878 116 
Q 3131 128 3220 200 
Q 3309 272 3309 375 
Q 3309 513 3184 809 
L 2928 1419 
z
M 2841 1650 
L 2122 3363 
L 1384 1650 
L 2841 1650 
z
" transform="scale(0.015625)"/>
      <path id="TimesNewRomanPSMT-52" d="M 4325 0 
L 3194 0 
L 1759 1981 
Q 1600 1975 1500 1975 
Q 1459 1975 1412 1976 
Q 1366 1978 1316 1981 
L 1316 750 
Q 1316 350 1403 253 
Q 1522 116 1759 116 
L 1925 116 
L 1925 0 
L 109 0 
L 109 116 
L 269 116 
Q 538 116 653 291 
Q 719 388 719 750 
L 719 3488 
Q 719 3888 631 3984 
Q 509 4122 269 4122 
L 109 4122 
L 109 4238 
L 1653 4238 
Q 2328 4238 2648 4139 
Q 2969 4041 3192 3777 
Q 3416 3513 3416 3147 
Q 3416 2756 3161 2468 
Q 2906 2181 2372 2063 
L 3247 847 
Q 3547 428 3762 290 
Q 3978 153 4325 116 
L 4325 0 
z
M 1316 2178 
Q 1375 2178 1419 2176 
Q 1463 2175 1491 2175 
Q 2097 2175 2405 2437 
Q 2713 2700 2713 3106 
Q 2713 3503 2464 3751 
Q 2216 4000 1806 4000 
Q 1625 4000 1316 3941 
L 1316 2178 
z
" transform="scale(0.015625)"/>
      <path id="TimesNewRomanPSMT-72" d="M 1038 2947 
L 1038 2303 
Q 1397 2947 1775 2947 
Q 1947 2947 2059 2842 
Q 2172 2738 2172 2600 
Q 2172 2478 2090 2393 
Q 2009 2309 1897 2309 
Q 1788 2309 1652 2417 
Q 1516 2525 1450 2525 
Q 1394 2525 1328 2463 
Q 1188 2334 1038 2041 
L 1038 669 
Q 1038 431 1097 309 
Q 1138 225 1241 169 
Q 1344 113 1538 113 
L 1538 0 
L 72 0 
L 72 113 
Q 291 113 397 181 
Q 475 231 506 341 
Q 522 394 522 644 
L 522 1753 
Q 522 2253 501 2348 
Q 481 2444 426 2487 
Q 372 2531 291 2531 
Q 194 2531 72 2484 
L 41 2597 
L 906 2947 
L 1038 2947 
z
" transform="scale(0.015625)"/>
      <path id="TimesNewRomanPSMT-63" d="M 2631 1088 
Q 2516 522 2178 217 
Q 1841 -88 1431 -88 
Q 944 -88 581 321 
Q 219 731 219 1428 
Q 219 2103 620 2525 
Q 1022 2947 1584 2947 
Q 2006 2947 2278 2723 
Q 2550 2500 2550 2259 
Q 2550 2141 2473 2067 
Q 2397 1994 2259 1994 
Q 2075 1994 1981 2113 
Q 1928 2178 1911 2362 
Q 1894 2547 1784 2644 
Q 1675 2738 1481 2738 
Q 1169 2738 978 2506 
Q 725 2200 725 1697 
Q 725 1184 976 792 
Q 1228 400 1656 400 
Q 1963 400 2206 609 
Q 2378 753 2541 1131 
L 2631 1088 
z
" transform="scale(0.015625)"/>
      <path id="TimesNewRomanPSMT-6d" d="M 1050 2338 
Q 1363 2650 1419 2697 
Q 1559 2816 1721 2881 
Q 1884 2947 2044 2947 
Q 2313 2947 2506 2790 
Q 2700 2634 2766 2338 
Q 3088 2713 3309 2830 
Q 3531 2947 3766 2947 
Q 3994 2947 4170 2830 
Q 4347 2713 4450 2447 
Q 4519 2266 4519 1878 
L 4519 647 
Q 4519 378 4559 278 
Q 4591 209 4675 161 
Q 4759 113 4950 113 
L 4950 0 
L 3538 0 
L 3538 113 
L 3597 113 
Q 3781 113 3884 184 
Q 3956 234 3988 344 
Q 4000 397 4000 647 
L 4000 1878 
Q 4000 2228 3916 2372 
Q 3794 2572 3525 2572 
Q 3359 2572 3192 2489 
Q 3025 2406 2788 2181 
L 2781 2147 
L 2788 2013 
L 2788 647 
Q 2788 353 2820 281 
Q 2853 209 2943 161 
Q 3034 113 3253 113 
L 3253 0 
L 1806 0 
L 1806 113 
Q 2044 113 2133 169 
Q 2222 225 2256 338 
Q 2272 391 2272 647 
L 2272 1878 
Q 2272 2228 2169 2381 
Q 2031 2581 1784 2581 
Q 1616 2581 1450 2491 
Q 1191 2353 1050 2181 
L 1050 647 
Q 1050 366 1089 281 
Q 1128 197 1204 155 
Q 1281 113 1516 113 
L 1516 0 
L 100 0 
L 100 113 
Q 297 113 375 155 
Q 453 197 493 289 
Q 534 381 534 647 
L 534 1741 
Q 534 2213 506 2350 
Q 484 2453 437 2492 
Q 391 2531 309 2531 
Q 222 2531 100 2484 
L 53 2597 
L 916 2947 
L 1050 2947 
L 1050 2338 
z
" transform="scale(0.015625)"/>
      <path id="TimesNewRomanPSMT-64" d="M 2222 322 
Q 2013 103 1813 7 
Q 1613 -88 1381 -88 
Q 913 -88 563 304 
Q 213 697 213 1313 
Q 213 1928 600 2439 
Q 988 2950 1597 2950 
Q 1975 2950 2222 2709 
L 2222 3238 
Q 2222 3728 2198 3840 
Q 2175 3953 2125 3993 
Q 2075 4034 2000 4034 
Q 1919 4034 1784 3984 
L 1744 4094 
L 2597 4444 
L 2738 4444 
L 2738 1134 
Q 2738 631 2761 520 
Q 2784 409 2836 365 
Q 2888 322 2956 322 
Q 3041 322 3181 375 
L 3216 266 
L 2366 -88 
L 2222 -88 
L 2222 322 
z
M 2222 541 
L 2222 2016 
Q 2203 2228 2109 2403 
Q 2016 2578 1861 2667 
Q 1706 2756 1559 2756 
Q 1284 2756 1069 2509 
Q 784 2184 784 1559 
Q 784 928 1059 592 
Q 1334 256 1672 256 
Q 1956 256 2222 541 
z
" transform="scale(0.015625)"/>
      <path id="TimesNewRomanPSMT-6c" d="M 1184 4444 
L 1184 647 
Q 1184 378 1223 290 
Q 1263 203 1344 158 
Q 1425 113 1647 113 
L 1647 0 
L 244 0 
L 244 113 
Q 441 113 512 153 
Q 584 194 625 287 
Q 666 381 666 647 
L 666 3247 
Q 666 3731 644 3842 
Q 622 3953 573 3993 
Q 525 4034 450 4034 
Q 369 4034 244 3984 
L 191 4094 
L 1044 4444 
L 1184 4444 
z
" transform="scale(0.015625)"/>
      <path id="TimesNewRomanPSMT-28" d="M 1988 -1253 
L 1988 -1369 
Q 1516 -1131 1200 -813 
Q 750 -359 506 256 
Q 263 872 263 1534 
Q 263 2503 741 3301 
Q 1219 4100 1988 4444 
L 1988 4313 
Q 1603 4100 1356 3731 
Q 1109 3363 987 2797 
Q 866 2231 866 1616 
Q 866 947 969 400 
Q 1050 -31 1165 -292 
Q 1281 -553 1476 -793 
Q 1672 -1034 1988 -1253 
z
" transform="scale(0.015625)"/>
      <path id="TimesNewRomanPSMT-2b" d="M 1672 441 
L 1672 2000 
L 116 2000 
L 116 2256 
L 1672 2256 
L 1672 3809 
L 1922 3809 
L 1922 2256 
L 3484 2256 
L 3484 2000 
L 1922 2000 
L 1922 441 
L 1672 441 
z
" transform="scale(0.015625)"/>
      <path id="TimesNewRomanPSMT-38" d="M 1228 2134 
Q 725 2547 579 2797 
Q 434 3047 434 3316 
Q 434 3728 753 4026 
Q 1072 4325 1600 4325 
Q 2113 4325 2425 4047 
Q 2738 3769 2738 3413 
Q 2738 3175 2569 2928 
Q 2400 2681 1866 2347 
Q 2416 1922 2594 1678 
Q 2831 1359 2831 1006 
Q 2831 559 2490 242 
Q 2150 -75 1597 -75 
Q 994 -75 656 303 
Q 388 606 388 966 
Q 388 1247 577 1523 
Q 766 1800 1228 2134 
z
M 1719 2469 
Q 2094 2806 2194 3001 
Q 2294 3197 2294 3444 
Q 2294 3772 2109 3958 
Q 1925 4144 1606 4144 
Q 1288 4144 1088 3959 
Q 888 3775 888 3528 
Q 888 3366 970 3203 
Q 1053 3041 1206 2894 
L 1719 2469 
z
M 1375 2016 
Q 1116 1797 991 1539 
Q 866 1281 866 981 
Q 866 578 1086 336 
Q 1306 94 1647 94 
Q 1984 94 2187 284 
Q 2391 475 2391 747 
Q 2391 972 2272 1150 
Q 2050 1481 1375 2016 
z
" transform="scale(0.015625)"/>
      <path id="TimesNewRomanPSMT-29" d="M 144 4313 
L 144 4444 
Q 619 4209 934 3891 
Q 1381 3434 1625 2820 
Q 1869 2206 1869 1541 
Q 1869 572 1392 -226 
Q 916 -1025 144 -1369 
L 144 -1253 
Q 528 -1038 776 -670 
Q 1025 -303 1145 264 
Q 1266 831 1266 1447 
Q 1266 2113 1163 2663 
Q 1084 3094 967 3353 
Q 850 3613 656 3853 
Q 463 4094 144 4313 
z
" transform="scale(0.015625)"/>
      <path id="TimesNewRomanPSMT-61" d="M 1822 413 
Q 1381 72 1269 19 
Q 1100 -59 909 -59 
Q 613 -59 420 144 
Q 228 347 228 678 
Q 228 888 322 1041 
Q 450 1253 767 1440 
Q 1084 1628 1822 1897 
L 1822 2009 
Q 1822 2438 1686 2597 
Q 1550 2756 1291 2756 
Q 1094 2756 978 2650 
Q 859 2544 859 2406 
L 866 2225 
Q 866 2081 792 2003 
Q 719 1925 600 1925 
Q 484 1925 411 2006 
Q 338 2088 338 2228 
Q 338 2497 613 2722 
Q 888 2947 1384 2947 
Q 1766 2947 2009 2819 
Q 2194 2722 2281 2516 
Q 2338 2381 2338 1966 
L 2338 994 
Q 2338 584 2353 492 
Q 2369 400 2405 369 
Q 2441 338 2488 338 
Q 2538 338 2575 359 
Q 2641 400 2828 588 
L 2828 413 
Q 2478 -56 2159 -56 
Q 2006 -56 1915 50 
Q 1825 156 1822 413 
z
M 1822 616 
L 1822 1706 
Q 1350 1519 1213 1441 
Q 966 1303 859 1153 
Q 753 1003 753 825 
Q 753 600 887 451 
Q 1022 303 1197 303 
Q 1434 303 1822 616 
z
" transform="scale(0.015625)"/>
      <path id="TimesNewRomanPSMT-2d" d="M 259 1672 
L 1875 1672 
L 1875 1200 
L 259 1200 
L 259 1672 
z
" transform="scale(0.015625)"/>
      <path id="TimesNewRomanPSMT-70" d="M -6 2578 
L 875 2934 
L 994 2934 
L 994 2266 
Q 1216 2644 1439 2795 
Q 1663 2947 1909 2947 
Q 2341 2947 2628 2609 
Q 2981 2197 2981 1534 
Q 2981 794 2556 309 
Q 2206 -88 1675 -88 
Q 1444 -88 1275 -22 
Q 1150 25 994 166 
L 994 -706 
Q 994 -1000 1030 -1079 
Q 1066 -1159 1155 -1206 
Q 1244 -1253 1478 -1253 
L 1478 -1369 
L -22 -1369 
L -22 -1253 
L 56 -1253 
Q 228 -1256 350 -1188 
Q 409 -1153 442 -1076 
Q 475 -1000 475 -688 
L 475 2019 
Q 475 2297 450 2372 
Q 425 2447 370 2484 
Q 316 2522 222 2522 
Q 147 2522 31 2478 
L -6 2578 
z
M 994 2081 
L 994 1013 
Q 994 666 1022 556 
Q 1066 375 1236 237 
Q 1406 100 1666 100 
Q 1978 100 2172 344 
Q 2425 663 2425 1241 
Q 2425 1897 2138 2250 
Q 1938 2494 1663 2494 
Q 1513 2494 1366 2419 
Q 1253 2363 994 2081 
z
" transform="scale(0.015625)"/>
      <path id="TimesNewRomanPSMT-6e" d="M 1034 2341 
Q 1538 2947 1994 2947 
Q 2228 2947 2397 2830 
Q 2566 2713 2666 2444 
Q 2734 2256 2734 1869 
L 2734 647 
Q 2734 375 2778 278 
Q 2813 200 2889 156 
Q 2966 113 3172 113 
L 3172 0 
L 1756 0 
L 1756 113 
L 1816 113 
Q 2016 113 2095 173 
Q 2175 234 2206 353 
Q 2219 400 2219 647 
L 2219 1819 
Q 2219 2209 2117 2386 
Q 2016 2563 1775 2563 
Q 1403 2563 1034 2156 
L 1034 647 
Q 1034 356 1069 288 
Q 1113 197 1189 155 
Q 1266 113 1500 113 
L 1500 0 
L 84 0 
L 84 113 
L 147 113 
Q 366 113 442 223 
Q 519 334 519 647 
L 519 1709 
Q 519 2225 495 2337 
Q 472 2450 423 2490 
Q 375 2531 294 2531 
Q 206 2531 84 2484 
L 38 2597 
L 900 2947 
L 1034 2947 
L 1034 2341 
z
" transform="scale(0.015625)"/>
     </defs>
     <use xlink:href="#TimesNewRomanPSMT-4c"/>
     <use xlink:href="#TimesNewRomanPSMT-6f" transform="translate(61.083984 0)"/>
     <use xlink:href="#TimesNewRomanPSMT-73" transform="translate(111.083984 0)"/>
     <use xlink:href="#TimesNewRomanPSMT-73" transform="translate(150 0)"/>
     <use xlink:href="#TimesNewRomanPSMT-20" transform="translate(188.916016 0)"/>
     <use xlink:href="#TimesNewRomanPSMT-6f" transform="translate(213.916016 0)"/>
     <use xlink:href="#TimesNewRomanPSMT-66" transform="translate(263.916016 0)"/>
     <use xlink:href="#TimesNewRomanPSMT-20" transform="translate(297.216797 0)"/>
     <use xlink:href="#TimesNewRomanPSMT-74" transform="translate(322.216797 0)"/>
     <use xlink:href="#TimesNewRomanPSMT-68" transform="translate(350 0)"/>
     <use xlink:href="#TimesNewRomanPSMT-65" transform="translate(400 0)"/>
     <use xlink:href="#TimesNewRomanPSMT-20" transform="translate(444.384766 0)"/>
     <use xlink:href="#TimesNewRomanPSMT-31" transform="translate(469.384766 0)"/>
     <use xlink:href="#TimesNewRomanPSMT-31" transform="translate(515.634766 0)"/>
     <use xlink:href="#TimesNewRomanPSMT-5f" transform="translate(565.634766 0)"/>
     <use xlink:href="#TimesNewRomanPSMT-30" transform="translate(615.634766 0)"/>
     <use xlink:href="#TimesNewRomanPSMT-36" transform="translate(665.634766 0)"/>
     <use xlink:href="#TimesNewRomanPSMT-5f" transform="translate(715.634766 0)"/>
     <use xlink:href="#TimesNewRomanPSMT-32" transform="translate(765.634766 0)"/>
     <use xlink:href="#TimesNewRomanPSMT-35" transform="translate(815.634766 0)"/>
     <use xlink:href="#TimesNewRomanPSMT-5f" transform="translate(865.634766 0)"/>
     <use xlink:href="#TimesNewRomanPSMT-43" transform="translate(915.634766 0)"/>
     <use xlink:href="#TimesNewRomanPSMT-49" transform="translate(982.333984 0)"/>
     <use xlink:href="#TimesNewRomanPSMT-46" transform="translate(1015.634766 0)"/>
     <use xlink:href="#TimesNewRomanPSMT-41" transform="translate(1063.875 0)"/>
     <use xlink:href="#TimesNewRomanPSMT-52" transform="translate(1136.091797 0)"/>
     <use xlink:href="#TimesNewRomanPSMT-31" transform="translate(1202.791016 0)"/>
     <use xlink:href="#TimesNewRomanPSMT-30" transform="translate(1252.791016 0)"/>
     <use xlink:href="#TimesNewRomanPSMT-5f" transform="translate(1302.791016 0)"/>
     <use xlink:href="#TimesNewRomanPSMT-74" transform="translate(1352.791016 0)"/>
     <use xlink:href="#TimesNewRomanPSMT-6f" transform="translate(1380.574219 0)"/>
     <use xlink:href="#TimesNewRomanPSMT-72" transform="translate(1430.574219 0)"/>
     <use xlink:href="#TimesNewRomanPSMT-63" transform="translate(1463.875 0)"/>
     <use xlink:href="#TimesNewRomanPSMT-68" transform="translate(1508.259766 0)"/>
     <use xlink:href="#TimesNewRomanPSMT-5f" transform="translate(1558.259766 0)"/>
     <use xlink:href="#TimesNewRomanPSMT-6d" transform="translate(1608.259766 0)"/>
     <use xlink:href="#TimesNewRomanPSMT-6f" transform="translate(1686.042969 0)"/>
     <use xlink:href="#TimesNewRomanPSMT-64" transform="translate(1736.042969 0)"/>
     <use xlink:href="#TimesNewRomanPSMT-65" transform="translate(1786.042969 0)"/>
     <use xlink:href="#TimesNewRomanPSMT-6c" transform="translate(1830.427734 0)"/>
     <use xlink:href="#TimesNewRomanPSMT-5f" transform="translate(1858.210938 0)"/>
     <use xlink:href="#TimesNewRomanPSMT-28" transform="translate(1908.210938 0)"/>
     <use xlink:href="#TimesNewRomanPSMT-31" transform="translate(1941.511719 0)"/>
     <use xlink:href="#TimesNewRomanPSMT-30" transform="translate(1991.511719 0)"/>
     <use xlink:href="#TimesNewRomanPSMT-32" transform="translate(2041.511719 0)"/>
     <use xlink:href="#TimesNewRomanPSMT-34" transform="translate(2091.511719 0)"/>
     <use xlink:href="#TimesNewRomanPSMT-2b" transform="translate(2141.511719 0)"/>
     <use xlink:href="#TimesNewRomanPSMT-32" transform="translate(2197.908203 0)"/>
     <use xlink:href="#TimesNewRomanPSMT-30" transform="translate(2247.908203 0)"/>
     <use xlink:href="#TimesNewRomanPSMT-34" transform="translate(2297.908203 0)"/>
     <use xlink:href="#TimesNewRomanPSMT-38" transform="translate(2347.908203 0)"/>
     <use xlink:href="#TimesNewRomanPSMT-2e" transform="translate(2397.908203 0)"/>
     <use xlink:href="#TimesNewRomanPSMT-31" transform="translate(2422.908203 0)"/>
     <use xlink:href="#TimesNewRomanPSMT-2b" transform="translate(2472.908203 0)"/>
     <use xlink:href="#TimesNewRomanPSMT-31" transform="translate(2529.304688 0)"/>
     <use xlink:href="#TimesNewRomanPSMT-29" transform="translate(2579.304688 0)"/>
     <use xlink:href="#TimesNewRomanPSMT-5f" transform="translate(2612.605469 0)"/>
     <use xlink:href="#TimesNewRomanPSMT-63" transform="translate(2662.605469 0)"/>
     <use xlink:href="#TimesNewRomanPSMT-61" transform="translate(2706.990234 0)"/>
     <use xlink:href="#TimesNewRomanPSMT-72" transform="translate(2751.375 0)"/>
     <use xlink:href="#TimesNewRomanPSMT-2d" transform="translate(2782.675781 0)"/>
     <use xlink:href="#TimesNewRomanPSMT-70" transform="translate(2815.976562 0)"/>
     <use xlink:href="#TimesNewRomanPSMT-6c" transform="translate(2865.976562 0)"/>
     <use xlink:href="#TimesNewRomanPSMT-61" transform="translate(2893.759766 0)"/>
     <use xlink:href="#TimesNewRomanPSMT-6e" transform="translate(2938.144531 0)"/>
     <use xlink:href="#TimesNewRomanPSMT-65" transform="translate(2988.144531 0)"/>
    </g>
   </g>
   <g id="legend_1">
    <g id="patch_7">
     <path d="M 370.096625 125.384625 
L 570.654125 125.384625 
Q 575.054125 125.384625 575.054125 120.984625 
L 575.054125 60.9315 
Q 575.054125 56.5315 570.654125 56.5315 
L 370.096625 56.5315 
Q 365.696625 56.5315 365.696625 60.9315 
L 365.696625 120.984625 
Q 365.696625 125.384625 370.096625 125.384625 
z
" style="fill: #ffffff; opacity: 0.8; stroke: #cccccc; stroke-linejoin: miter"/>
    </g>
    <g id="line2d_23">
     <path d="M 374.496625 73.0315 
L 396.496625 73.0315 
L 418.496625 73.0315 
" style="fill: none; stroke: #ffa500; stroke-width: 1.5; stroke-linecap: square"/>
    </g>
    <g id="text_14">
     <!-- Training loss -->
     <g transform="translate(436.096625 80.7315) scale(0.22 -0.22)">
      <defs>
       <path id="TimesNewRomanPSMT-54" d="M 3703 4238 
L 3750 3244 
L 3631 3244 
Q 3597 3506 3538 3619 
Q 3441 3800 3280 3886 
Q 3119 3972 2856 3972 
L 2259 3972 
L 2259 734 
Q 2259 344 2344 247 
Q 2463 116 2709 116 
L 2856 116 
L 2856 0 
L 1059 0 
L 1059 116 
L 1209 116 
Q 1478 116 1591 278 
Q 1659 378 1659 734 
L 1659 3972 
L 1150 3972 
Q 853 3972 728 3928 
Q 566 3869 450 3700 
Q 334 3531 313 3244 
L 194 3244 
L 244 4238 
L 3703 4238 
z
" transform="scale(0.015625)"/>
       <path id="TimesNewRomanPSMT-69" d="M 928 4444 
Q 1059 4444 1151 4351 
Q 1244 4259 1244 4128 
Q 1244 3997 1151 3903 
Q 1059 3809 928 3809 
Q 797 3809 703 3903 
Q 609 3997 609 4128 
Q 609 4259 701 4351 
Q 794 4444 928 4444 
z
M 1188 2947 
L 1188 647 
Q 1188 378 1227 289 
Q 1266 200 1342 156 
Q 1419 113 1622 113 
L 1622 0 
L 231 0 
L 231 113 
Q 441 113 512 153 
Q 584 194 626 287 
Q 669 381 669 647 
L 669 1750 
Q 669 2216 641 2353 
Q 619 2453 572 2492 
Q 525 2531 444 2531 
Q 356 2531 231 2484 
L 188 2597 
L 1050 2947 
L 1188 2947 
z
" transform="scale(0.015625)"/>
       <path id="TimesNewRomanPSMT-67" d="M 966 1044 
Q 703 1172 562 1401 
Q 422 1631 422 1909 
Q 422 2334 742 2640 
Q 1063 2947 1563 2947 
Q 1972 2947 2272 2747 
L 2878 2747 
Q 3013 2747 3034 2739 
Q 3056 2731 3066 2713 
Q 3084 2684 3084 2613 
Q 3084 2531 3069 2500 
Q 3059 2484 3036 2475 
Q 3013 2466 2878 2466 
L 2506 2466 
Q 2681 2241 2681 1891 
Q 2681 1491 2375 1206 
Q 2069 922 1553 922 
Q 1341 922 1119 984 
Q 981 866 932 777 
Q 884 688 884 625 
Q 884 572 936 522 
Q 988 472 1138 450 
Q 1225 438 1575 428 
Q 2219 413 2409 384 
Q 2700 344 2873 169 
Q 3047 -6 3047 -263 
Q 3047 -616 2716 -925 
Q 2228 -1381 1444 -1381 
Q 841 -1381 425 -1109 
Q 191 -953 191 -784 
Q 191 -709 225 -634 
Q 278 -519 444 -313 
Q 466 -284 763 25 
Q 600 122 533 198 
Q 466 275 466 372 
Q 466 481 555 628 
Q 644 775 966 1044 
z
M 1509 2797 
Q 1278 2797 1122 2612 
Q 966 2428 966 2047 
Q 966 1553 1178 1281 
Q 1341 1075 1591 1075 
Q 1828 1075 1981 1253 
Q 2134 1431 2134 1813 
Q 2134 2309 1919 2591 
Q 1759 2797 1509 2797 
z
M 934 0 
Q 788 -159 713 -296 
Q 638 -434 638 -550 
Q 638 -700 819 -813 
Q 1131 -1006 1722 -1006 
Q 2284 -1006 2551 -807 
Q 2819 -609 2819 -384 
Q 2819 -222 2659 -153 
Q 2497 -84 2016 -72 
Q 1313 -53 934 0 
z
" transform="scale(0.015625)"/>
      </defs>
      <use xlink:href="#TimesNewRomanPSMT-54"/>
      <use xlink:href="#TimesNewRomanPSMT-72" transform="translate(57.583984 0)"/>
      <use xlink:href="#TimesNewRomanPSMT-61" transform="translate(90.884766 0)"/>
      <use xlink:href="#TimesNewRomanPSMT-69" transform="translate(135.269531 0)"/>
      <use xlink:href="#TimesNewRomanPSMT-6e" transform="translate(163.052734 0)"/>
      <use xlink:href="#TimesNewRomanPSMT-69" transform="translate(213.052734 0)"/>
      <use xlink:href="#TimesNewRomanPSMT-6e" transform="translate(240.835938 0)"/>
      <use xlink:href="#TimesNewRomanPSMT-67" transform="translate(290.835938 0)"/>
      <use xlink:href="#TimesNewRomanPSMT-20" transform="translate(340.835938 0)"/>
      <use xlink:href="#TimesNewRomanPSMT-6c" transform="translate(365.835938 0)"/>
      <use xlink:href="#TimesNewRomanPSMT-6f" transform="translate(393.619141 0)"/>
      <use xlink:href="#TimesNewRomanPSMT-73" transform="translate(443.619141 0)"/>
      <use xlink:href="#TimesNewRomanPSMT-73" transform="translate(482.535156 0)"/>
     </g>
    </g>
    <g id="line2d_24">
     <path d="M 374.496625 104.178687 
L 396.496625 104.178687 
L 418.496625 104.178687 
" style="fill: none; stroke: #008000; stroke-width: 1.5; stroke-linecap: square"/>
    </g>
    <g id="text_15">
     <!-- Validation loss -->
     <g transform="translate(436.096625 111.878687) scale(0.22 -0.22)">
      <defs>
       <path id="TimesNewRomanPSMT-56" d="M 4544 4238 
L 4544 4122 
Q 4319 4081 4203 3978 
Q 4038 3825 3909 3509 
L 2431 -97 
L 2316 -97 
L 728 3556 
Q 606 3838 556 3900 
Q 478 3997 364 4051 
Q 250 4106 56 4122 
L 56 4238 
L 1788 4238 
L 1788 4122 
Q 1494 4094 1406 4022 
Q 1319 3950 1319 3838 
Q 1319 3681 1463 3350 
L 2541 866 
L 3541 3319 
Q 3688 3681 3688 3822 
Q 3688 3913 3597 3995 
Q 3506 4078 3291 4113 
Q 3275 4116 3238 4122 
L 3238 4238 
L 4544 4238 
z
" transform="scale(0.015625)"/>
      </defs>
      <use xlink:href="#TimesNewRomanPSMT-56"/>
      <use xlink:href="#TimesNewRomanPSMT-61" transform="translate(61.091797 0)"/>
      <use xlink:href="#TimesNewRomanPSMT-6c" transform="translate(105.476562 0)"/>
      <use xlink:href="#TimesNewRomanPSMT-69" transform="translate(133.259766 0)"/>
      <use xlink:href="#TimesNewRomanPSMT-64" transform="translate(161.042969 0)"/>
      <use xlink:href="#TimesNewRomanPSMT-61" transform="translate(211.042969 0)"/>
      <use xlink:href="#TimesNewRomanPSMT-74" transform="translate(255.427734 0)"/>
      <use xlink:href="#TimesNewRomanPSMT-69" transform="translate(283.210938 0)"/>
      <use xlink:href="#TimesNewRomanPSMT-6f" transform="translate(310.994141 0)"/>
      <use xlink:href="#TimesNewRomanPSMT-6e" transform="translate(360.994141 0)"/>
      <use xlink:href="#TimesNewRomanPSMT-20" transform="translate(410.994141 0)"/>
      <use xlink:href="#TimesNewRomanPSMT-6c" transform="translate(435.994141 0)"/>
      <use xlink:href="#TimesNewRomanPSMT-6f" transform="translate(463.777344 0)"/>
      <use xlink:href="#TimesNewRomanPSMT-73" transform="translate(513.777344 0)"/>
      <use xlink:href="#TimesNewRomanPSMT-73" transform="translate(552.693359 0)"/>
     </g>
    </g>
   </g>
  </g>
 </g>
 <defs>
  <clipPath id="pc39bbe54f4">
   <rect x="228.934125" y="45.5315" width="357.12" height="266.112"/>
  </clipPath>
 </defs>
</svg>
