<?xml version="1.0" encoding="utf-8" standalone="no"?>
<!DOCTYPE svg PUBLIC "-//W3C//DTD SVG 1.1//EN"
  "http://www.w3.org/Graphics/SVG/1.1/DTD/svg11.dtd">
<svg xmlns:xlink="http://www.w3.org/1999/xlink" width="798.9585pt" height="383.265687pt" viewBox="0 0 798.9585 383.265687" xmlns="http://www.w3.org/2000/svg" version="1.1">
 <metadata>
  <rdf:RDF xmlns:dc="http://purl.org/dc/elements/1.1/" xmlns:cc="http://creativecommons.org/ns#" xmlns:rdf="http://www.w3.org/1999/02/22-rdf-syntax-ns#">
   <cc:Work>
    <dc:type rdf:resource="http://purl.org/dc/dcmitype/StillImage"/>
    <dc:date>2025-05-21T15:37:32.588522</dc:date>
    <dc:format>image/svg+xml</dc:format>
    <dc:creator>
     <cc:Agent>
      <dc:title>Matplotlib v3.10.1, https://matplotlib.org/</dc:title>
     </cc:Agent>
    </dc:creator>
   </cc:Work>
  </rdf:RDF>
 </metadata>
 <defs>
  <style type="text/css">*{stroke-linejoin: round; stroke-linecap: butt}</style>
 </defs>
 <g id="figure_1">
  <g id="patch_1">
   <path d="M 0 383.265687 
L 798.9585 383.265687 
L 798.9585 0 
L 0 0 
z
" style="fill: #ffffff"/>
  </g>
  <g id="axes_1">
   <g id="patch_2">
    <path d="M 220.91925 311.6435 
L 578.03925 311.6435 
L 578.03925 45.5315 
L 220.91925 45.5315 
z
" style="fill: #ffffff"/>
   </g>
   <g id="matplotlib.axis_1">
    <g id="xtick_1">
     <g id="line2d_1">
      <path d="M 220.91925 311.6435 
L 220.91925 45.5315 
" clip-path="url(#p2f704cc27e)" style="fill: none; stroke: #b0b0b0; stroke-opacity: 0.3; stroke-width: 0.8; stroke-linecap: square"/>
     </g>
     <g id="line2d_2">
      <defs>
       <path id="mccaca768ff" d="M 0 0 
L 0 3.5 
" style="stroke: #000000; stroke-width: 0.8"/>
      </defs>
      <g>
       <use xlink:href="#mccaca768ff" x="220.91925" y="311.6435" style="stroke: #000000; stroke-width: 0.8"/>
      </g>
     </g>
     <g id="text_1">
      <!-- 0.00 -->
      <g transform="translate(201.66925 333.91975) scale(0.22 -0.22)">
       <defs>
        <path id="TimesNewRomanPSMT-30" d="M 231 2094 
Q 231 2819 450 3342 
Q 669 3866 1031 4122 
Q 1313 4325 1613 4325 
Q 2100 4325 2488 3828 
Q 2972 3213 2972 2159 
Q 2972 1422 2759 906 
Q 2547 391 2217 158 
Q 1888 -75 1581 -75 
Q 975 -75 572 641 
Q 231 1244 231 2094 
z
M 844 2016 
Q 844 1141 1059 588 
Q 1238 122 1591 122 
Q 1759 122 1940 273 
Q 2122 425 2216 781 
Q 2359 1319 2359 2297 
Q 2359 3022 2209 3506 
Q 2097 3866 1919 4016 
Q 1791 4119 1609 4119 
Q 1397 4119 1231 3928 
Q 1006 3669 925 3112 
Q 844 2556 844 2016 
z
" transform="scale(0.015625)"/>
        <path id="TimesNewRomanPSMT-2e" d="M 800 606 
Q 947 606 1047 504 
Q 1147 403 1147 259 
Q 1147 116 1045 14 
Q 944 -88 800 -88 
Q 656 -88 554 14 
Q 453 116 453 259 
Q 453 406 554 506 
Q 656 606 800 606 
z
" transform="scale(0.015625)"/>
       </defs>
       <use xlink:href="#TimesNewRomanPSMT-30"/>
       <use xlink:href="#TimesNewRomanPSMT-2e" transform="translate(50 0)"/>
       <use xlink:href="#TimesNewRomanPSMT-30" transform="translate(75 0)"/>
       <use xlink:href="#TimesNewRomanPSMT-30" transform="translate(125 0)"/>
      </g>
     </g>
    </g>
    <g id="xtick_2">
     <g id="line2d_3">
      <path d="M 293.227917 311.6435 
L 293.227917 45.5315 
" clip-path="url(#p2f704cc27e)" style="fill: none; stroke: #b0b0b0; stroke-opacity: 0.3; stroke-width: 0.8; stroke-linecap: square"/>
     </g>
     <g id="line2d_4">
      <g>
       <use xlink:href="#mccaca768ff" x="293.227917" y="311.6435" style="stroke: #000000; stroke-width: 0.8"/>
      </g>
     </g>
     <g id="text_2">
      <!-- 0.25 -->
      <g transform="translate(273.977917 333.91975) scale(0.22 -0.22)">
       <defs>
        <path id="TimesNewRomanPSMT-32" d="M 2934 816 
L 2638 0 
L 138 0 
L 138 116 
Q 1241 1122 1691 1759 
Q 2141 2397 2141 2925 
Q 2141 3328 1894 3587 
Q 1647 3847 1303 3847 
Q 991 3847 742 3664 
Q 494 3481 375 3128 
L 259 3128 
Q 338 3706 661 4015 
Q 984 4325 1469 4325 
Q 1984 4325 2329 3994 
Q 2675 3663 2675 3213 
Q 2675 2891 2525 2569 
Q 2294 2063 1775 1497 
Q 997 647 803 472 
L 1909 472 
Q 2247 472 2383 497 
Q 2519 522 2628 598 
Q 2738 675 2819 816 
L 2934 816 
z
" transform="scale(0.015625)"/>
        <path id="TimesNewRomanPSMT-35" d="M 2778 4238 
L 2534 3706 
L 1259 3706 
L 981 3138 
Q 1809 3016 2294 2522 
Q 2709 2097 2709 1522 
Q 2709 1188 2573 903 
Q 2438 619 2231 419 
Q 2025 219 1772 97 
Q 1413 -75 1034 -75 
Q 653 -75 479 54 
Q 306 184 306 341 
Q 306 428 378 495 
Q 450 563 559 563 
Q 641 563 702 538 
Q 763 513 909 409 
Q 1144 247 1384 247 
Q 1750 247 2026 523 
Q 2303 800 2303 1197 
Q 2303 1581 2056 1914 
Q 1809 2247 1375 2428 
Q 1034 2569 447 2591 
L 1259 4238 
L 2778 4238 
z
" transform="scale(0.015625)"/>
       </defs>
       <use xlink:href="#TimesNewRomanPSMT-30"/>
       <use xlink:href="#TimesNewRomanPSMT-2e" transform="translate(50 0)"/>
       <use xlink:href="#TimesNewRomanPSMT-32" transform="translate(75 0)"/>
       <use xlink:href="#TimesNewRomanPSMT-35" transform="translate(125 0)"/>
      </g>
     </g>
    </g>
    <g id="xtick_3">
     <g id="line2d_5">
      <path d="M 365.536583 311.6435 
L 365.536583 45.5315 
" clip-path="url(#p2f704cc27e)" style="fill: none; stroke: #b0b0b0; stroke-opacity: 0.3; stroke-width: 0.8; stroke-linecap: square"/>
     </g>
     <g id="line2d_6">
      <g>
       <use xlink:href="#mccaca768ff" x="365.536583" y="311.6435" style="stroke: #000000; stroke-width: 0.8"/>
      </g>
     </g>
     <g id="text_3">
      <!-- 0.50 -->
      <g transform="translate(346.286583 333.91975) scale(0.22 -0.22)">
       <use xlink:href="#TimesNewRomanPSMT-30"/>
       <use xlink:href="#TimesNewRomanPSMT-2e" transform="translate(50 0)"/>
       <use xlink:href="#TimesNewRomanPSMT-35" transform="translate(75 0)"/>
       <use xlink:href="#TimesNewRomanPSMT-30" transform="translate(125 0)"/>
      </g>
     </g>
    </g>
    <g id="xtick_4">
     <g id="line2d_7">
      <path d="M 437.84525 311.6435 
L 437.84525 45.5315 
" clip-path="url(#p2f704cc27e)" style="fill: none; stroke: #b0b0b0; stroke-opacity: 0.3; stroke-width: 0.8; stroke-linecap: square"/>
     </g>
     <g id="line2d_8">
      <g>
       <use xlink:href="#mccaca768ff" x="437.84525" y="311.6435" style="stroke: #000000; stroke-width: 0.8"/>
      </g>
     </g>
     <g id="text_4">
      <!-- 0.75 -->
      <g transform="translate(418.59525 333.91975) scale(0.22 -0.22)">
       <defs>
        <path id="TimesNewRomanPSMT-37" d="M 644 4238 
L 2916 4238 
L 2916 4119 
L 1503 -88 
L 1153 -88 
L 2419 3728 
L 1253 3728 
Q 900 3728 750 3644 
Q 488 3500 328 3200 
L 238 3234 
L 644 4238 
z
" transform="scale(0.015625)"/>
       </defs>
       <use xlink:href="#TimesNewRomanPSMT-30"/>
       <use xlink:href="#TimesNewRomanPSMT-2e" transform="translate(50 0)"/>
       <use xlink:href="#TimesNewRomanPSMT-37" transform="translate(75 0)"/>
       <use xlink:href="#TimesNewRomanPSMT-35" transform="translate(125 0)"/>
      </g>
     </g>
    </g>
    <g id="xtick_5">
     <g id="line2d_9">
      <path d="M 510.153917 311.6435 
L 510.153917 45.5315 
" clip-path="url(#p2f704cc27e)" style="fill: none; stroke: #b0b0b0; stroke-opacity: 0.3; stroke-width: 0.8; stroke-linecap: square"/>
     </g>
     <g id="line2d_10">
      <g>
       <use xlink:href="#mccaca768ff" x="510.153917" y="311.6435" style="stroke: #000000; stroke-width: 0.8"/>
      </g>
     </g>
     <g id="text_5">
      <!-- 1.00 -->
      <g transform="translate(490.903917 333.91975) scale(0.22 -0.22)">
       <defs>
        <path id="TimesNewRomanPSMT-31" d="M 750 3822 
L 1781 4325 
L 1884 4325 
L 1884 747 
Q 1884 391 1914 303 
Q 1944 216 2037 169 
Q 2131 122 2419 116 
L 2419 0 
L 825 0 
L 825 116 
Q 1125 122 1212 167 
Q 1300 213 1334 289 
Q 1369 366 1369 747 
L 1369 3034 
Q 1369 3497 1338 3628 
Q 1316 3728 1258 3775 
Q 1200 3822 1119 3822 
Q 1003 3822 797 3725 
L 750 3822 
z
" transform="scale(0.015625)"/>
       </defs>
       <use xlink:href="#TimesNewRomanPSMT-31"/>
       <use xlink:href="#TimesNewRomanPSMT-2e" transform="translate(50 0)"/>
       <use xlink:href="#TimesNewRomanPSMT-30" transform="translate(75 0)"/>
       <use xlink:href="#TimesNewRomanPSMT-30" transform="translate(125 0)"/>
      </g>
     </g>
    </g>
    <g id="text_6">
     <!-- $\kappa  = \frac{ln(n)}{ln(d)}$ -->
     <g transform="translate(367.46925 364.185687) scale(0.22 -0.22)">
      <defs>
       <path id="STIXGeneral-Italic-3ba" d="M 979 1440 
L 998 1446 
Q 1850 2541 2464 2790 
Q 2547 2822 2630 2822 
Q 2797 2822 2886 2736 
Q 2976 2650 2976 2522 
Q 2976 2387 2893 2307 
Q 2810 2227 2682 2227 
Q 2605 2227 2502 2288 
Q 2400 2349 2336 2349 
Q 2170 2349 1990 2205 
Q 1811 2061 1414 1645 
L 2042 544 
Q 2202 262 2310 182 
Q 2419 102 2624 102 
L 2624 0 
Q 2374 -83 2182 -83 
Q 1786 -83 1555 326 
L 960 1350 
L 576 0 
L 90 0 
L 640 1978 
Q 730 2317 730 2406 
Q 730 2560 518 2560 
L 339 2560 
L 339 2650 
Q 678 2694 1306 2822 
L 1325 2803 
L 979 1440 
z
" transform="scale(0.015625)"/>
       <path id="STIXGeneral-Regular-3d" d="M 4077 2048 
L 307 2048 
L 307 2470 
L 4077 2470 
L 4077 2048 
z
M 4077 768 
L 307 768 
L 307 1190 
L 4077 1190 
L 4077 768 
z
" transform="scale(0.015625)"/>
       <path id="STIXGeneral-Italic-6c" d="M 1786 4339 
L 806 595 
Q 755 410 755 320 
Q 755 205 864 205 
Q 1037 205 1293 570 
L 1453 794 
L 1542 730 
Q 1254 275 1046 102 
Q 838 -70 576 -70 
Q 262 -70 262 288 
Q 262 397 288 480 
L 1165 3834 
Q 1184 3898 1184 3955 
Q 1184 4096 870 4096 
L 755 4096 
L 755 4198 
Q 1203 4250 1747 4371 
L 1786 4339 
z
" transform="scale(0.015625)"/>
       <path id="STIXGeneral-Italic-6e" d="M 2944 749 
L 3034 666 
Q 2707 218 2534 80 
Q 2362 -58 2138 -58 
Q 2010 -58 1923 28 
Q 1837 115 1837 288 
Q 1837 390 1939 768 
L 2221 1805 
Q 2310 2150 2310 2310 
Q 2310 2496 2157 2496 
Q 1971 2496 1750 2275 
Q 1530 2054 1210 1587 
Q 998 1274 899 1024 
Q 800 774 570 0 
L 90 0 
L 704 2240 
Q 717 2304 717 2349 
Q 717 2445 630 2480 
Q 544 2515 301 2522 
L 301 2624 
Q 550 2675 857 2729 
Q 1165 2784 1338 2822 
L 1363 2810 
L 934 1414 
Q 1408 2170 1753 2496 
Q 2099 2822 2413 2822 
Q 2611 2822 2720 2716 
Q 2829 2611 2829 2432 
Q 2829 2272 2765 2048 
L 2406 749 
Q 2317 429 2317 358 
Q 2317 243 2419 243 
Q 2541 243 2810 582 
Q 2854 634 2944 749 
z
" transform="scale(0.015625)"/>
       <path id="STIXGeneral-Regular-28" d="M 1946 -1030 
L 1869 -1133 
Q 1126 -710 716 32 
Q 307 774 307 1613 
Q 307 3386 1888 4326 
L 1946 4224 
Q 1293 3667 1075 3126 
Q 858 2586 858 1632 
Q 858 685 1082 96 
Q 1306 -493 1946 -1030 
z
" transform="scale(0.015625)"/>
       <path id="STIXGeneral-Regular-29" d="M 186 4224 
L 262 4326 
Q 992 3891 1408 3148 
Q 1824 2406 1824 1581 
Q 1824 -166 243 -1133 
L 186 -1030 
Q 845 -486 1059 54 
Q 1274 595 1274 1562 
Q 1274 2534 1059 3120 
Q 845 3706 186 4224 
z
" transform="scale(0.015625)"/>
       <path id="STIXGeneral-Italic-64" d="M 3334 4371 
L 3373 4333 
L 3123 3360 
L 2739 1958 
Q 2323 429 2323 384 
Q 2323 256 2438 256 
Q 2522 256 2614 336 
Q 2707 416 2963 710 
L 3040 646 
Q 2547 -83 2099 -83 
Q 1978 -83 1907 -6 
Q 1837 70 1837 205 
Q 1837 397 1920 774 
Q 1645 307 1379 118 
Q 1114 -70 781 -70 
Q 461 -70 278 125 
Q 96 320 96 678 
Q 96 1440 713 2131 
Q 1331 2822 1965 2822 
Q 2163 2822 2256 2732 
Q 2349 2643 2381 2451 
L 2387 2451 
L 2675 3494 
Q 2765 3808 2765 3949 
Q 2765 4051 2694 4076 
Q 2624 4102 2355 4115 
L 2355 4224 
Q 2848 4269 3334 4371 
z
M 2278 2310 
Q 2278 2477 2185 2576 
Q 2093 2675 1978 2675 
Q 1677 2675 1395 2381 
Q 1075 2042 864 1571 
Q 653 1101 653 704 
Q 653 486 752 361 
Q 851 237 1024 237 
Q 1312 237 1606 550 
Q 1901 864 2089 1350 
Q 2278 1837 2278 2310 
z
" transform="scale(0.015625)"/>
      </defs>
      <use xlink:href="#STIXGeneral-Italic-3ba" transform="translate(0 0.003125)"/>
      <use xlink:href="#STIXGeneral-Regular-3d" transform="translate(58.83999 0.003125)"/>
      <use xlink:href="#STIXGeneral-Italic-6c" transform="translate(141.779971 50.192188) scale(0.7)"/>
      <use xlink:href="#STIXGeneral-Italic-6e" transform="translate(161.239963 50.192188) scale(0.7)"/>
      <use xlink:href="#STIXGeneral-Regular-28" transform="translate(196.239952 50.192188) scale(0.7)"/>
      <use xlink:href="#STIXGeneral-Italic-6e" transform="translate(219.549944 50.192188) scale(0.7)"/>
      <use xlink:href="#STIXGeneral-Regular-29" transform="translate(254.549933 50.192188) scale(0.7)"/>
      <use xlink:href="#STIXGeneral-Italic-6c" transform="translate(141.779971 -41.257812) scale(0.7)"/>
      <use xlink:href="#STIXGeneral-Italic-6e" transform="translate(161.239963 -41.257812) scale(0.7)"/>
      <use xlink:href="#STIXGeneral-Regular-28" transform="translate(196.239952 -41.257812) scale(0.7)"/>
      <use xlink:href="#STIXGeneral-Italic-64" transform="translate(219.549944 -41.257812) scale(0.7)"/>
      <use xlink:href="#STIXGeneral-Regular-29" transform="translate(254.549933 -41.257812) scale(0.7)"/>
      <path d="M 141.779971 12.8 
L 141.779971 19.05 
L 277.859924 19.05 
L 277.859924 12.8 
L 141.779971 12.8 
z
"/>
     </g>
    </g>
   </g>
   <g id="matplotlib.axis_2">
    <g id="ytick_1">
     <g id="line2d_11">
      <path d="M 220.91925 311.6435 
L 578.03925 311.6435 
" clip-path="url(#p2f704cc27e)" style="fill: none; stroke: #b0b0b0; stroke-opacity: 0.3; stroke-width: 0.8; stroke-linecap: square"/>
     </g>
     <g id="line2d_12">
      <defs>
       <path id="m81403f27b8" d="M 0 0 
L -3.5 0 
" style="stroke: #000000; stroke-width: 0.8"/>
      </defs>
      <g>
       <use xlink:href="#m81403f27b8" x="220.91925" y="311.6435" style="stroke: #000000; stroke-width: 0.8"/>
      </g>
     </g>
     <g id="text_7">
      <!-- 0.0 -->
      <g transform="translate(186.41925 319.281625) scale(0.22 -0.22)">
       <use xlink:href="#TimesNewRomanPSMT-30"/>
       <use xlink:href="#TimesNewRomanPSMT-2e" transform="translate(50 0)"/>
       <use xlink:href="#TimesNewRomanPSMT-30" transform="translate(75 0)"/>
      </g>
     </g>
    </g>
    <g id="ytick_2">
     <g id="line2d_13">
      <path d="M 220.91925 248.720363 
L 578.03925 248.720363 
" clip-path="url(#p2f704cc27e)" style="fill: none; stroke: #b0b0b0; stroke-opacity: 0.3; stroke-width: 0.8; stroke-linecap: square"/>
     </g>
     <g id="line2d_14">
      <g>
       <use xlink:href="#m81403f27b8" x="220.91925" y="248.720363" style="stroke: #000000; stroke-width: 0.8"/>
      </g>
     </g>
     <g id="text_8">
      <!-- 0.1 -->
      <g transform="translate(186.41925 256.358488) scale(0.22 -0.22)">
       <use xlink:href="#TimesNewRomanPSMT-30"/>
       <use xlink:href="#TimesNewRomanPSMT-2e" transform="translate(50 0)"/>
       <use xlink:href="#TimesNewRomanPSMT-31" transform="translate(75 0)"/>
      </g>
     </g>
    </g>
    <g id="ytick_3">
     <g id="line2d_15">
      <path d="M 220.91925 185.797225 
L 578.03925 185.797225 
" clip-path="url(#p2f704cc27e)" style="fill: none; stroke: #b0b0b0; stroke-opacity: 0.3; stroke-width: 0.8; stroke-linecap: square"/>
     </g>
     <g id="line2d_16">
      <g>
       <use xlink:href="#m81403f27b8" x="220.91925" y="185.797225" style="stroke: #000000; stroke-width: 0.8"/>
      </g>
     </g>
     <g id="text_9">
      <!-- 0.2 -->
      <g transform="translate(186.41925 193.43535) scale(0.22 -0.22)">
       <use xlink:href="#TimesNewRomanPSMT-30"/>
       <use xlink:href="#TimesNewRomanPSMT-2e" transform="translate(50 0)"/>
       <use xlink:href="#TimesNewRomanPSMT-32" transform="translate(75 0)"/>
      </g>
     </g>
    </g>
    <g id="ytick_4">
     <g id="line2d_17">
      <path d="M 220.91925 122.874088 
L 578.03925 122.874088 
" clip-path="url(#p2f704cc27e)" style="fill: none; stroke: #b0b0b0; stroke-opacity: 0.3; stroke-width: 0.8; stroke-linecap: square"/>
     </g>
     <g id="line2d_18">
      <g>
       <use xlink:href="#m81403f27b8" x="220.91925" y="122.874088" style="stroke: #000000; stroke-width: 0.8"/>
      </g>
     </g>
     <g id="text_10">
      <!-- 0.3 -->
      <g transform="translate(186.41925 130.512213) scale(0.22 -0.22)">
       <defs>
        <path id="TimesNewRomanPSMT-33" d="M 325 3431 
Q 506 3859 782 4092 
Q 1059 4325 1472 4325 
Q 1981 4325 2253 3994 
Q 2459 3747 2459 3466 
Q 2459 3003 1878 2509 
Q 2269 2356 2469 2072 
Q 2669 1788 2669 1403 
Q 2669 853 2319 450 
Q 1863 -75 997 -75 
Q 569 -75 414 31 
Q 259 138 259 259 
Q 259 350 332 419 
Q 406 488 509 488 
Q 588 488 669 463 
Q 722 447 909 348 
Q 1097 250 1169 231 
Q 1284 197 1416 197 
Q 1734 197 1970 444 
Q 2206 691 2206 1028 
Q 2206 1275 2097 1509 
Q 2016 1684 1919 1775 
Q 1784 1900 1550 2001 
Q 1316 2103 1072 2103 
L 972 2103 
L 972 2197 
Q 1219 2228 1467 2375 
Q 1716 2522 1828 2728 
Q 1941 2934 1941 3181 
Q 1941 3503 1739 3701 
Q 1538 3900 1238 3900 
Q 753 3900 428 3381 
L 325 3431 
z
" transform="scale(0.015625)"/>
       </defs>
       <use xlink:href="#TimesNewRomanPSMT-30"/>
       <use xlink:href="#TimesNewRomanPSMT-2e" transform="translate(50 0)"/>
       <use xlink:href="#TimesNewRomanPSMT-33" transform="translate(75 0)"/>
      </g>
     </g>
    </g>
    <g id="ytick_5">
     <g id="line2d_19">
      <path d="M 220.91925 59.95095 
L 578.03925 59.95095 
" clip-path="url(#p2f704cc27e)" style="fill: none; stroke: #b0b0b0; stroke-opacity: 0.3; stroke-width: 0.8; stroke-linecap: square"/>
     </g>
     <g id="line2d_20">
      <g>
       <use xlink:href="#m81403f27b8" x="220.91925" y="59.95095" style="stroke: #000000; stroke-width: 0.8"/>
      </g>
     </g>
     <g id="text_11">
      <!-- 0.4 -->
      <g transform="translate(186.41925 67.589075) scale(0.22 -0.22)">
       <defs>
        <path id="TimesNewRomanPSMT-34" d="M 2978 1563 
L 2978 1119 
L 2409 1119 
L 2409 0 
L 1894 0 
L 1894 1119 
L 100 1119 
L 100 1519 
L 2066 4325 
L 2409 4325 
L 2409 1563 
L 2978 1563 
z
M 1894 1563 
L 1894 3666 
L 406 1563 
L 1894 1563 
z
" transform="scale(0.015625)"/>
       </defs>
       <use xlink:href="#TimesNewRomanPSMT-30"/>
       <use xlink:href="#TimesNewRomanPSMT-2e" transform="translate(50 0)"/>
       <use xlink:href="#TimesNewRomanPSMT-34" transform="translate(75 0)"/>
      </g>
     </g>
    </g>
    <g id="text_12">
     <!-- Loss -->
     <g transform="translate(177.713312 199.368906) rotate(-90) scale(0.22 -0.22)">
      <defs>
       <path id="TimesNewRomanPSMT-4c" d="M 3669 1172 
L 3772 1150 
L 3409 0 
L 128 0 
L 128 116 
L 288 116 
Q 556 116 672 291 
Q 738 391 738 753 
L 738 3488 
Q 738 3884 650 3984 
Q 528 4122 288 4122 
L 128 4122 
L 128 4238 
L 2047 4238 
L 2047 4122 
Q 1709 4125 1573 4059 
Q 1438 3994 1388 3894 
Q 1338 3794 1338 3416 
L 1338 753 
Q 1338 494 1388 397 
Q 1425 331 1503 300 
Q 1581 269 1991 269 
L 2300 269 
Q 2788 269 2984 341 
Q 3181 413 3343 595 
Q 3506 778 3669 1172 
z
" transform="scale(0.015625)"/>
       <path id="TimesNewRomanPSMT-6f" d="M 1600 2947 
Q 2250 2947 2644 2453 
Q 2978 2031 2978 1484 
Q 2978 1100 2793 706 
Q 2609 313 2286 112 
Q 1963 -88 1566 -88 
Q 919 -88 538 428 
Q 216 863 216 1403 
Q 216 1797 411 2186 
Q 606 2575 925 2761 
Q 1244 2947 1600 2947 
z
M 1503 2744 
Q 1338 2744 1170 2645 
Q 1003 2547 900 2300 
Q 797 2053 797 1666 
Q 797 1041 1045 587 
Q 1294 134 1700 134 
Q 2003 134 2200 384 
Q 2397 634 2397 1244 
Q 2397 2006 2069 2444 
Q 1847 2744 1503 2744 
z
" transform="scale(0.015625)"/>
       <path id="TimesNewRomanPSMT-73" d="M 2050 2947 
L 2050 1972 
L 1947 1972 
Q 1828 2431 1642 2597 
Q 1456 2763 1169 2763 
Q 950 2763 815 2647 
Q 681 2531 681 2391 
Q 681 2216 781 2091 
Q 878 1963 1175 1819 
L 1631 1597 
Q 2266 1288 2266 781 
Q 2266 391 1970 151 
Q 1675 -88 1309 -88 
Q 1047 -88 709 6 
Q 606 38 541 38 
Q 469 38 428 -44 
L 325 -44 
L 325 978 
L 428 978 
Q 516 541 762 319 
Q 1009 97 1316 97 
Q 1531 97 1667 223 
Q 1803 350 1803 528 
Q 1803 744 1651 891 
Q 1500 1038 1047 1263 
Q 594 1488 453 1669 
Q 313 1847 313 2119 
Q 313 2472 555 2709 
Q 797 2947 1181 2947 
Q 1350 2947 1591 2875 
Q 1750 2828 1803 2828 
Q 1853 2828 1881 2850 
Q 1909 2872 1947 2947 
L 2050 2947 
z
" transform="scale(0.015625)"/>
      </defs>
      <use xlink:href="#TimesNewRomanPSMT-4c"/>
      <use xlink:href="#TimesNewRomanPSMT-6f" transform="translate(61.083984 0)"/>
      <use xlink:href="#TimesNewRomanPSMT-73" transform="translate(111.083984 0)"/>
      <use xlink:href="#TimesNewRomanPSMT-73" transform="translate(150 0)"/>
     </g>
    </g>
   </g>
   <g id="line2d_21">
    <path d="M 220.91925 51.823814 
L 321.043609 132.392784 
L 348.029022 159.575261 
L 364.281615 185.445904 
L 375.948627 194.538812 
L 385.0562 202.181547 
L 392.527711 196.83855 
L 398.862399 209.276418 
L 404.360959 205.745827 
L 409.218598 206.045352 
L 413.569253 213.899382 
L 417.50882 214.792191 
L 421.108323 217.728251 
L 424.421834 213.810983 
L 427.491473 218.697458 
L 430.35069 218.963773 
L 433.026491 219.5552 
L 435.540997 215.874167 
L 437.912553 220.569432 
L 440.156541 222.458977 
L 442.285989 222.444866 
L 444.312022 223.893529 
L 446.244223 223.505004 
L 448.090898 220.988842 
L 449.859301 219.59504 
L 451.555796 228.915567 
L 453.186004 228.548917 
L 454.754911 222.034204 
L 456.266961 225.91873 
L 457.72613 221.796852 
L 459.135994 228.721525 
L 460.499774 228.386079 
L 461.82039 229.919991 
L 463.100489 226.564662 
L 464.342484 230.100334 
L 465.548578 231.559105 
L 466.720789 229.263811 
L 467.860967 231.216055 
L 468.970818 230.777677 
L 470.051913 229.00541 
L 471.105705 231.858921 
L 472.133538 235.708619 
L 473.136661 226.11251 
L 474.116234 234.245282 
L 475.073338 235.562241 
L 476.008981 232.210588 
L 476.924103 230.186727 
L 477.819586 230.676769 
L 478.696255 236.187363 
L 479.554883 237.984129 
L 480.3962 233.133771 
L 481.220889 234.702615 
L 482.029594 234.590423 
L 482.822923 231.805345 
L 483.601451 231.374327 
L 484.365719 236.887785 
L 485.116241 238.139471 
L 485.853501 238.216038 
L 486.577962 236.122455 
L 487.290059 232.556572 
L 487.990207 234.216933 
L 488.678801 238.52756 
L 489.356216 238.413713 
L 490.02281 236.559591 
L 490.678922 241.455045 
L 491.324876 236.645478 
L 491.960984 239.942192 
L 492.58754 242.521521 
L 493.204827 235.989457 
L 493.813116 239.888086 
L 494.412664 237.007304 
L 495.00372 241.252911 
L 495.58652 242.193445 
L 496.161293 241.99201 
L 496.728256 241.314555 
L 497.287619 238.819059 
L 497.839583 243.857092 
L 498.38434 243.942328 
L 498.922077 241.75156 
L 499.452973 242.571436 
L 499.977199 238.085056 
L 500.494921 244.737441 
L 501.006297 244.096206 
L 501.511483 243.101993 
L 502.010626 243.252998 
L 502.503868 240.298776 
L 503.473199 248.763211 
L 503.94955 241.337166 
L 504.420523 248.181479 
L 504.88624 247.92816 
L 505.346817 243.041703 
L 506.252994 244.707015 
L 506.698809 246.411767 
L 507.13991 250.07913 
L 507.576397 244.137246 
L 508.008366 245.670127 
L 508.435909 243.789733 
L 508.859116 246.117694 
L 509.278073 244.769123 
L 509.692866 240.74526 
L 510.510283 246.232113 
L 510.913064 246.172982 
L 511.311995 251.855531 
L 511.707148 245.61469 
L 512.098593 246.378017 
L 512.486401 246.11219 
L 512.870638 247.938319 
L 513.251369 247.038525 
L 513.628657 247.182549 
L 514.002564 245.973726 
L 514.373151 247.032102 
L 514.740476 248.579455 
L 515.104595 251.317999 
L 515.465565 246.740922 
L 515.823438 248.144897 
L 516.178269 250.621796 
L 516.530107 250.50831 
L 516.879004 249.510571 
L 517.225008 253.09801 
L 517.568166 248.908553 
L 518.581026 246.621411 
L 518.913256 248.152515 
L 519.242861 244.95234 
L 519.894362 250.072473 
L 520.216337 245.264148 
L 520.535847 251.895821 
L 520.852929 249.709953 
L 521.16762 249.99337 
L 521.479955 250.561417 
L 521.78997 248.373852 
L 522.097698 249.655012 
L 522.403174 249.505006 
L 522.70643 252.769071 
L 523.007497 247.820431 
L 523.306408 251.838016 
L 523.603193 252.308391 
L 523.897882 250.895536 
L 524.190505 254.748516 
L 524.48109 254.406863 
L 524.769665 252.682542 
L 525.056258 255.517005 
L 525.340896 255.477564 
L 525.623606 251.503513 
L 525.904413 253.531944 
L 526.183343 250.810545 
L 526.460421 253.680408 
L 527.009118 249.952508 
L 527.280784 254.753547 
L 527.550693 253.323566 
L 527.818867 254.585894 
L 528.085329 254.536031 
L 528.3501 253.296843 
L 528.613202 253.625149 
L 528.874655 257.157981 
L 529.13448 254.731217 
L 529.392698 254.223838 
L 529.649327 255.023729 
L 529.904388 256.35448 
L 530.157899 250.127357 
L 530.409879 255.18373 
L 530.660346 256.727858 
L 530.90932 255.954624 
L 531.402853 256.177269 
L 531.647448 256.42288 
L 531.890618 253.590518 
L 532.372747 256.278504 
L 532.611738 257.318807 
L 532.849368 251.850904 
L 533.085653 254.697973 
L 533.554246 256.707441 
L 533.786584 255.503353 
L 534.017636 254.998291 
L 534.247415 261.75953 
L 534.475936 254.801783 
L 534.703212 258.501892 
L 534.929256 259.36744 
L 535.154083 257.559463 
L 535.377706 258.164388 
L 535.600136 262.069495 
L 535.821386 259.919379 
L 536.04147 253.334906 
L 536.478185 260.796314 
L 536.910378 259.758543 
L 537.124807 258.062904 
L 537.338139 258.305079 
L 537.550387 258.870511 
L 537.76156 257.902776 
L 537.97167 258.834619 
L 538.180728 262.142082 
L 538.388743 261.31877 
L 538.595726 258.54988 
L 538.801688 258.970584 
L 539.006638 257.634291 
L 539.210587 259.860135 
L 539.413543 258.947307 
L 539.615518 263.993925 
L 539.816519 263.684855 
L 540.016556 262.114806 
L 540.21564 264.12524 
L 540.413778 264.919317 
L 540.610979 261.357681 
L 540.807253 260.570383 
L 541.002608 264.092957 
L 541.390596 259.949796 
L 541.583245 259.771567 
L 541.775009 258.331398 
L 541.965896 257.970909 
L 542.155914 264.231487 
L 542.34507 261.727482 
L 542.720829 264.767576 
L 542.907447 259.647064 
L 543.093235 265.393592 
L 543.278199 263.214606 
L 543.462346 266.404918 
L 543.645685 263.484981 
L 543.828221 264.642646 
L 544.009963 264.912538 
L 544.190916 262.464115 
L 544.371088 262.70509 
L 544.550485 259.643965 
L 544.729115 264.644024 
L 544.906983 265.990406 
L 545.26046 260.770009 
L 545.610969 264.877934 
L 545.785125 265.992043 
L 546.131272 261.399392 
L 546.474571 264.2667 
L 546.645167 264.110336 
L 546.815069 266.34971 
L 546.984281 263.652394 
L 547.15281 264.211928 
L 547.320662 265.426747 
L 547.487841 264.76556 
L 547.654352 261.371886 
L 547.820202 265.061513 
L 547.985395 262.633938 
L 548.149937 263.429501 
L 548.313833 263.292912 
L 548.477087 262.620933 
L 548.639705 265.531874 
L 548.801692 261.342646 
L 548.963053 264.78652 
L 549.123792 264.86049 
L 549.283914 266.483566 
L 549.443424 264.248758 
L 549.602326 263.88155 
L 549.760626 267.209857 
L 549.918328 265.976455 
L 550.075435 268.789788 
L 550.231954 265.115815 
L 550.387887 265.881417 
L 550.54324 264.992072 
L 550.698017 265.521738 
L 550.852222 266.771061 
L 551.005859 262.847047 
L 551.158932 267.055913 
L 551.311446 268.14794 
L 551.463405 265.844183 
L 551.614812 267.263124 
L 551.765672 265.307279 
L 551.915988 268.737525 
L 552.065765 264.089896 
L 552.363715 266.971207 
L 552.511896 269.455884 
L 552.659553 265.270149 
L 552.953309 268.081223 
L 553.099414 270.150783 
L 553.3901 266.010411 
L 553.534687 269.606513 
L 553.678775 269.764874 
L 553.822367 265.637722 
L 554.108077 268.269226 
L 554.250201 268.403387 
L 554.391844 268.842642 
L 554.533007 266.66398 
L 554.813908 268.600509 
L 554.953653 267.940321 
L 555.092931 266.382682 
L 555.231746 270.069673 
L 555.370101 267.102836 
L 555.645442 270.325754 
L 555.918978 268.871657 
L 556.055077 271.26085 
L 556.190733 263.790113 
L 556.325949 269.857371 
L 556.460729 268.775002 
L 556.595075 273.131183 
L 556.728989 268.21415 
L 556.995536 272.098016 
L 557.128174 266.200468 
L 557.260391 267.080155 
L 557.392191 270.39819 
L 557.785111 268.583519 
L 557.915266 271.371607 
L 558.045017 269.439934 
L 558.174365 271.324243 
L 558.303314 270.595214 
L 558.431865 273.258796 
L 558.560022 272.253849 
L 558.687786 266.510176 
L 558.942147 273.603471 
L 559.068748 270.812157 
L 559.194966 271.035214 
L 559.446264 273.372474 
L 559.696056 268.148108 
L 559.820394 275.048437 
L 560.067964 271.530671 
L 560.1912 278.035989 
L 560.314074 273.280967 
L 560.436586 275.028712 
L 560.55874 274.590765 
L 560.801981 270.372049 
L 561.043811 272.92288 
L 561.284248 271.096142 
L 561.403949 273.742905 
L 561.523308 273.252069 
L 561.642326 273.985109 
L 561.761006 270.043326 
L 561.997358 274.296007 
L 562.232378 270.937856 
L 562.349394 274.804621 
L 562.582445 271.604003 
L 562.698485 273.928617 
L 562.814202 273.612533 
L 562.9296 273.899817 
L 563.044679 272.088738 
L 563.27389 274.876781 
L 563.388026 272.208356 
L 563.501849 274.42889 
L 563.615363 273.464132 
L 563.72857 275.277601 
L 563.841469 273.793994 
L 563.954065 273.828316 
L 564.066357 272.219054 
L 564.401432 277.055812 
L 564.623329 271.951357 
L 564.844053 278.260896 
L 564.953979 272.909893 
L 565.063616 273.623911 
L 565.172965 276.766209 
L 565.282029 275.424103 
L 565.390809 270.917153 
L 565.499305 274.7433 
L 565.715456 273.559226 
L 565.823112 275.753128 
L 565.930492 274.207718 
L 566.144426 276.816923 
L 566.357269 274.600075 
L 566.463285 275.23428 
L 566.674512 273.060073 
L 566.884675 276.610614 
L 567.093784 274.76879 
L 567.197948 278.887876 
L 567.508886 277.220844 
L 567.61202 275.552616 
L 567.714899 276.522203 
L 567.817525 280.006876 
L 567.919899 280.002445 
L 568.022023 274.685533 
L 568.123897 275.43993 
L 568.225524 277.624485 
L 568.326903 277.15389 
L 568.428037 275.844057 
L 568.528926 276.688829 
L 568.629572 280.392564 
L 568.830138 276.182861 
L 568.930061 279.551608 
L 569.029745 277.866696 
L 569.129192 279.859952 
L 569.228402 276.752018 
L 569.327377 277.083941 
L 569.426117 276.714625 
L 569.524625 277.071175 
L 569.6229 281.106783 
L 569.720945 276.026596 
L 569.81876 277.634748 
L 569.916346 276.386055 
L 570.013704 280.295086 
L 570.110836 278.983992 
L 570.207742 279.132885 
L 570.400882 277.710834 
L 570.497117 279.765959 
L 570.593132 276.60072 
L 570.688925 276.841646 
L 570.7845 277.822236 
L 570.879856 281.358251 
L 570.974994 277.196606 
L 571.164623 279.833551 
L 571.353394 277.810307 
L 571.44746 277.980875 
L 571.541315 281.066369 
L 571.634959 276.575352 
L 571.728393 279.914611 
L 571.821619 279.792103 
L 571.914637 278.394205 
L 572.007448 280.392979 
L 572.192452 278.494524 
L 572.376641 279.062532 
L 572.468431 278.708678 
L 572.560019 284.983049 
L 572.742596 281.610871 
L 572.924377 280.212315 
L 573.014971 281.311798 
L 573.105369 281.226151 
L 573.195572 280.777835 
L 573.28558 281.530502 
L 573.375394 280.280801 
L 573.465016 282.597888 
L 573.643683 278.55638 
L 573.732731 279.197539 
L 573.821589 282.688651 
L 573.910259 275.833827 
L 573.99874 280.390954 
L 574.087034 278.9036 
L 574.263064 281.366825 
L 574.438354 279.669109 
L 574.525723 280.74958 
L 574.612911 280.27383 
L 574.78674 280.868689 
L 574.873384 281.360156 
L 574.959849 283.551069 
L 575.132242 278.760639 
L 575.303926 283.903798 
L 575.389504 281.244151 
L 575.474907 283.373907 
L 575.560135 283.056972 
L 575.730071 281.081777 
L 575.814781 285.006272 
L 575.899318 280.659882 
L 576.067881 285.667429 
L 576.235766 281.863616 
L 576.402979 283.420966 
L 576.486334 282.824874 
L 576.569523 280.209685 
L 576.652547 283.062415 
L 576.735406 279.216741 
L 576.818101 283.207548 
L 576.900632 282.171765 
L 576.983 282.564103 
L 577.065206 285.539388 
L 577.147251 283.873139 
L 577.310857 285.465128 
L 577.39242 279.019751 
L 577.55507 286.149894 
L 577.797862 279.985856 
L 577.87848 281.065458 
L 578.03925 283.918052 
L 578.03925 283.918052 
" clip-path="url(#p2f704cc27e)" style="fill: none; stroke: #ffa500; stroke-width: 1.5; stroke-linecap: square"/>
   </g>
   <g id="line2d_22">
    <path d="M 220.91925 70.767571 
L 321.043609 136.033293 
L 348.029022 167.63692 
L 364.281615 183.503898 
L 375.948627 192.480775 
L 385.0562 197.422317 
L 392.527711 201.251983 
L 398.862399 204.063132 
L 409.218598 207.594613 
L 421.108323 211.407402 
L 424.421834 212.217203 
L 433.026491 214.711621 
L 435.540997 215.090845 
L 437.912553 215.986214 
L 446.244223 217.595511 
L 448.090898 217.85394 
L 451.555796 218.593456 
L 453.186004 218.786805 
L 456.266961 219.621237 
L 457.72613 219.607988 
L 459.135994 220.176303 
L 460.499774 220.333337 
L 461.82039 220.918098 
L 464.342484 221.341981 
L 465.548578 221.001557 
L 466.720789 221.223643 
L 467.860967 221.689288 
L 470.051913 222.27945 
L 471.105705 222.164112 
L 472.133538 222.776317 
L 473.136661 222.344399 
L 474.116234 222.592833 
L 475.073338 223.216365 
L 476.008981 223.208029 
L 476.924103 222.892939 
L 477.819586 223.549213 
L 478.696255 223.963814 
L 479.554883 223.608846 
L 480.3962 224.068181 
L 481.220889 223.945717 
L 482.029594 223.979734 
L 482.822923 224.495008 
L 483.601451 224.678342 
L 484.365719 224.979471 
L 485.116241 224.714375 
L 485.853501 225.176954 
L 487.290059 225.365548 
L 487.990207 225.236653 
L 490.02281 225.690568 
L 490.678922 224.913284 
L 491.324876 225.878525 
L 491.960984 225.437914 
L 492.58754 226.351595 
L 493.813116 226.415335 
L 495.00372 226.866925 
L 495.58652 226.538671 
L 496.161293 226.811099 
L 496.728256 226.809298 
L 497.287619 227.005066 
L 497.839583 227.034985 
L 498.922077 227.570924 
L 499.452973 227.285669 
L 499.977199 227.604125 
L 501.006297 227.7165 
L 501.511483 228.008899 
L 502.010626 226.130559 
L 502.503868 228.123262 
L 503.473199 227.710987 
L 503.94955 227.800662 
L 504.420523 228.294032 
L 504.88624 228.477554 
L 505.346817 228.807336 
L 505.802365 228.677897 
L 506.252994 228.907353 
L 506.698809 228.843547 
L 507.13991 228.514609 
L 507.576397 229.065521 
L 508.008366 228.529461 
L 508.435909 229.26097 
L 509.278073 228.728538 
L 509.692866 229.41371 
L 510.103576 229.273169 
L 510.510283 229.427727 
L 510.913064 229.014983 
L 511.311995 229.587752 
L 512.098593 229.439532 
L 512.486401 229.593387 
L 512.870638 229.889378 
L 513.251369 229.768011 
L 513.628657 230.070762 
L 514.002564 229.159716 
L 514.740476 230.278296 
L 515.104595 229.925945 
L 515.465565 230.256374 
L 515.823438 229.483985 
L 516.178269 230.587235 
L 516.530107 230.589242 
L 516.879004 228.560609 
L 517.225008 230.553556 
L 517.568166 230.326987 
L 517.908525 230.801605 
L 518.24613 230.542407 
L 518.581026 230.806265 
L 518.913256 230.649334 
L 519.242861 230.646934 
L 519.569883 230.387886 
L 519.894362 230.894383 
L 520.216337 230.974241 
L 520.535847 231.294357 
L 520.852929 229.855464 
L 521.16762 230.695287 
L 521.479955 229.903011 
L 522.097698 231.617294 
L 522.403174 231.086175 
L 522.70643 231.474119 
L 523.007497 231.560568 
L 523.306408 230.924781 
L 523.603193 231.637575 
L 523.897882 231.257658 
L 524.190505 231.658409 
L 524.48109 231.7997 
L 524.769665 231.588959 
L 525.056258 231.780545 
L 525.340896 231.800535 
L 525.623606 231.968773 
L 525.904413 230.3525 
L 526.183343 232.084917 
L 526.460421 231.809761 
L 526.735671 232.031735 
L 527.009118 232.05963 
L 527.280784 232.242355 
L 527.550693 232.158493 
L 527.818867 232.191873 
L 528.085329 231.435385 
L 528.3501 232.308804 
L 528.613202 231.683425 
L 528.874655 232.320393 
L 529.13448 232.235294 
L 529.392698 232.500333 
L 529.649327 232.540389 
L 529.904388 232.154255 
L 530.157899 232.661793 
L 530.660346 232.605132 
L 530.90932 232.197517 
L 531.156816 232.52158 
L 531.402853 231.851242 
L 531.647448 232.855347 
L 531.890618 232.187869 
L 532.132379 232.824387 
L 532.372747 232.499677 
L 532.611738 232.784444 
L 533.085653 232.466298 
L 533.320608 232.854204 
L 533.554246 232.998997 
L 533.786584 232.961074 
L 534.247415 232.361818 
L 534.475936 233.132004 
L 534.703212 232.941712 
L 535.154083 233.081827 
L 535.377706 232.162891 
L 535.600136 233.239686 
L 536.04147 233.3919 
L 536.478185 232.386055 
L 536.694841 233.312891 
L 536.910378 232.697845 
L 537.124807 233.43241 
L 537.338139 233.177582 
L 537.550387 233.248574 
L 537.76156 233.103345 
L 537.97167 233.597897 
L 538.180728 232.855366 
L 538.595726 233.470225 
L 539.006638 233.613171 
L 539.413543 233.137184 
L 539.615518 232.836567 
L 539.816519 233.710895 
L 540.016556 233.717702 
L 540.21564 233.001927 
L 540.413778 233.720506 
L 540.610979 233.403124 
L 540.807253 233.948317 
L 541.002608 233.806036 
L 541.197053 233.424464 
L 541.390596 234.190759 
L 541.583245 233.78839 
L 541.775009 234.112172 
L 542.155914 233.651534 
L 542.34507 234.112373 
L 542.533372 233.906034 
L 542.720829 234.161318 
L 542.907447 233.553421 
L 543.093235 233.663976 
L 543.278199 234.155683 
L 543.462346 234.099111 
L 543.645685 233.822801 
L 543.828221 233.786196 
L 544.009963 234.266313 
L 544.190916 233.000108 
L 544.371088 234.029178 
L 544.550485 234.188171 
L 544.729115 233.175191 
L 544.906983 234.312684 
L 545.26046 234.683145 
L 545.610969 234.324198 
L 545.785125 234.15391 
L 545.958557 234.543242 
L 546.303274 233.84446 
L 546.474571 234.78199 
L 546.645167 233.785362 
L 546.815069 234.590592 
L 546.984281 234.599007 
L 547.15281 234.124961 
L 547.320662 234.755797 
L 547.487841 234.273313 
L 547.654352 234.795506 
L 547.820202 233.672307 
L 547.985395 234.669001 
L 548.149937 234.804694 
L 548.477087 234.857009 
L 548.639705 234.365477 
L 548.801692 234.517987 
L 548.963053 234.222231 
L 549.123792 234.923079 
L 549.283914 233.592876 
L 549.443424 234.986627 
L 549.602326 234.487068 
L 549.760626 234.997138 
L 549.918328 234.693853 
L 550.075435 234.980162 
L 550.231954 234.710299 
L 550.387887 234.940969 
L 550.54324 234.864975 
L 550.698017 235.270447 
L 550.852222 235.087005 
L 551.005859 235.215 
L 551.158932 233.763768 
L 551.311446 235.15818 
L 551.463405 234.504377 
L 551.614812 234.42534 
L 551.765672 235.143717 
L 551.915988 235.243514 
L 552.065765 235.077258 
L 552.215006 235.359025 
L 552.363715 234.541502 
L 552.511896 235.203974 
L 552.953309 234.613845 
L 553.24501 235.224433 
L 553.3901 235.358847 
L 553.822367 235.244559 
L 553.965466 235.259547 
L 554.108077 235.120473 
L 554.391844 235.374505 
L 554.533007 235.370731 
L 554.673694 235.097319 
L 554.813908 235.266214 
L 555.092931 235.072715 
L 555.231746 235.508229 
L 555.370101 234.7523 
L 555.507999 235.408391 
L 555.782434 234.979332 
L 555.918978 235.249547 
L 556.055077 233.94534 
L 556.190733 235.393797 
L 556.325949 235.165714 
L 556.595075 235.593746 
L 556.862476 235.358373 
L 556.995536 235.366127 
L 557.128174 235.549147 
L 557.260391 235.421438 
L 557.392191 235.501328 
L 557.523576 234.837436 
L 557.785111 235.71335 
L 557.915266 235.097037 
L 558.045017 235.725032 
L 558.174365 234.223557 
L 558.303314 235.75152 
L 558.431865 235.370984 
L 558.560022 235.745154 
L 558.81516 235.745248 
L 558.942147 235.409024 
L 559.068748 234.317278 
L 559.194966 235.80888 
L 559.446264 235.788439 
L 559.571347 235.220696 
L 559.820394 235.786635 
L 559.944363 235.502097 
L 560.067964 235.615892 
L 560.1912 235.30678 
L 560.314074 235.797422 
L 560.436586 235.41704 
L 560.680538 235.699313 
L 560.923071 235.271225 
L 561.043811 235.351177 
L 561.164203 235.861556 
L 561.284248 235.69342 
L 561.403949 235.804356 
L 561.523308 235.496645 
L 561.642326 235.973644 
L 561.879349 235.999579 
L 561.997358 235.609465 
L 562.232378 236.154785 
L 562.349394 235.565908 
L 562.466082 235.81827 
L 562.582445 235.527816 
L 562.814202 235.84706 
L 562.9296 235.197504 
L 563.159442 235.977625 
L 563.27389 235.187711 
L 563.388026 235.98295 
L 563.501849 235.849699 
L 563.615363 235.45342 
L 563.72857 235.605105 
L 563.841469 236.104725 
L 563.954065 235.967254 
L 564.066357 235.576409 
L 564.290039 235.95251 
L 564.401432 235.606376 
L 564.512528 236.270338 
L 564.623329 235.971099 
L 564.733837 236.207428 
L 564.953979 235.797445 
L 565.282029 236.244774 
L 565.390809 235.676599 
L 565.499305 236.150715 
L 565.60752 235.642737 
L 565.930492 236.237057 
L 566.037596 235.982707 
L 566.357269 236.040146 
L 566.463285 235.543479 
L 566.674512 236.099619 
L 566.779725 235.903711 
L 566.884675 236.318115 
L 566.98936 236.249851 
L 567.093784 235.670781 
L 567.197948 235.82225 
L 567.301851 236.25911 
L 567.508886 236.076076 
L 567.61202 236.438126 
L 567.714899 235.981155 
L 567.817525 236.116656 
L 567.919899 235.985707 
L 568.022023 236.408249 
L 568.225524 236.123909 
L 568.326903 236.22528 
L 568.428037 236.035031 
L 568.629572 236.501346 
L 568.729976 235.567684 
L 568.830138 236.545443 
L 568.930061 236.441488 
L 569.029745 235.62315 
L 569.228402 236.430532 
L 569.426117 236.182862 
L 569.524625 236.47205 
L 569.6229 236.407091 
L 569.720945 236.614288 
L 569.81876 235.646787 
L 570.013704 236.521697 
L 570.110836 236.421099 
L 570.207742 236.141939 
L 570.400882 236.588311 
L 570.497117 236.055457 
L 570.593132 236.469045 
L 570.7845 235.73589 
L 570.974994 236.309325 
L 571.069916 235.976889 
L 571.259115 236.358437 
L 571.353394 235.626183 
L 571.44746 236.42341 
L 571.541315 235.850731 
L 571.634959 236.436968 
L 571.728393 236.14606 
L 571.821619 236.211671 
L 571.914637 236.527586 
L 572.007448 236.07195 
L 572.100053 236.112188 
L 572.192452 235.741474 
L 572.376641 236.706944 
L 572.651407 235.875808 
L 572.833585 236.439214 
L 572.924377 235.886572 
L 573.105369 236.425759 
L 573.195572 236.252987 
L 573.28558 236.318991 
L 573.375394 236.178413 
L 573.465016 236.610087 
L 573.554445 236.559001 
L 573.643683 234.845322 
L 573.821589 236.674188 
L 573.910259 236.097772 
L 573.99874 236.824734 
L 574.175142 235.454302 
L 574.263064 236.629904 
L 574.350801 236.437175 
L 574.438354 236.040347 
L 574.612911 236.832333 
L 574.78674 235.661297 
L 574.873384 236.568171 
L 574.959849 236.034914 
L 575.132242 236.463653 
L 575.218173 236.488229 
L 575.303926 236.280633 
L 575.474907 236.662946 
L 575.560135 236.602179 
L 575.64519 236.715889 
L 575.730071 236.299447 
L 575.899318 236.751824 
L 575.983685 236.434085 
L 576.067881 236.557079 
L 576.151908 236.361269 
L 576.319456 236.913982 
L 576.486334 236.518589 
L 576.569523 236.857663 
L 576.652547 236.186359 
L 576.818101 236.771331 
L 576.900632 236.088959 
L 576.983 236.643326 
L 577.065206 235.045969 
L 577.229134 236.631733 
L 577.310857 236.446129 
L 577.39242 236.665464 
L 577.473825 235.346315 
L 577.636158 236.935913 
L 577.717089 236.209458 
L 577.797862 236.566755 
L 577.87848 236.452674 
L 578.03925 236.569076 
L 578.03925 236.569076 
" clip-path="url(#p2f704cc27e)" style="fill: none; stroke: #008000; stroke-width: 1.5; stroke-linecap: square"/>
   </g>
   <g id="patch_3">
    <path d="M 220.91925 311.6435 
L 220.91925 45.5315 
" style="fill: none; stroke: #000000; stroke-width: 0.8; stroke-linejoin: miter; stroke-linecap: square"/>
   </g>
   <g id="patch_4">
    <path d="M 578.03925 311.6435 
L 578.03925 45.5315 
" style="fill: none; stroke: #000000; stroke-width: 0.8; stroke-linejoin: miter; stroke-linecap: square"/>
   </g>
   <g id="patch_5">
    <path d="M 220.91925 311.6435 
L 578.03925 311.6435 
" style="fill: none; stroke: #000000; stroke-width: 0.8; stroke-linejoin: miter; stroke-linecap: square"/>
   </g>
   <g id="patch_6">
    <path d="M 220.91925 45.5315 
L 578.03925 45.5315 
" style="fill: none; stroke: #000000; stroke-width: 0.8; stroke-linejoin: miter; stroke-linecap: square"/>
   </g>
   <g id="text_13">
    <!-- Loss of the 21_05_25_CIFAR10_torch_model_(1024+512-512.2+1)_ctpb -->
    <g transform="translate(7.2 25.5315) scale(0.264 -0.264)">
     <defs>
      <path id="TimesNewRomanPSMT-20" transform="scale(0.015625)"/>
      <path id="TimesNewRomanPSMT-66" d="M 1319 2638 
L 1319 756 
Q 1319 356 1406 250 
Q 1522 113 1716 113 
L 1975 113 
L 1975 0 
L 266 0 
L 266 113 
L 394 113 
Q 519 113 622 175 
Q 725 238 764 344 
Q 803 450 803 756 
L 803 2638 
L 247 2638 
L 247 2863 
L 803 2863 
L 803 3050 
Q 803 3478 940 3775 
Q 1078 4072 1361 4255 
Q 1644 4438 1997 4438 
Q 2325 4438 2600 4225 
Q 2781 4084 2781 3909 
Q 2781 3816 2700 3733 
Q 2619 3650 2525 3650 
Q 2453 3650 2373 3701 
Q 2294 3753 2178 3923 
Q 2063 4094 1966 4153 
Q 1869 4213 1750 4213 
Q 1606 4213 1506 4136 
Q 1406 4059 1362 3898 
Q 1319 3738 1319 3069 
L 1319 2863 
L 2056 2863 
L 2056 2638 
L 1319 2638 
z
" transform="scale(0.015625)"/>
      <path id="TimesNewRomanPSMT-74" d="M 1031 3803 
L 1031 2863 
L 1700 2863 
L 1700 2644 
L 1031 2644 
L 1031 788 
Q 1031 509 1111 412 
Q 1191 316 1316 316 
Q 1419 316 1516 380 
Q 1613 444 1666 569 
L 1788 569 
Q 1678 263 1478 108 
Q 1278 -47 1066 -47 
Q 922 -47 784 33 
Q 647 113 581 261 
Q 516 409 516 719 
L 516 2644 
L 63 2644 
L 63 2747 
Q 234 2816 414 2980 
Q 594 3144 734 3369 
Q 806 3488 934 3803 
L 1031 3803 
z
" transform="scale(0.015625)"/>
      <path id="TimesNewRomanPSMT-68" d="M 1041 4444 
L 1041 2350 
Q 1388 2731 1591 2839 
Q 1794 2947 1997 2947 
Q 2241 2947 2416 2812 
Q 2591 2678 2675 2391 
Q 2734 2191 2734 1659 
L 2734 647 
Q 2734 375 2778 275 
Q 2809 200 2884 156 
Q 2959 113 3159 113 
L 3159 0 
L 1753 0 
L 1753 113 
L 1819 113 
Q 2019 113 2097 173 
Q 2175 234 2206 353 
Q 2216 403 2216 647 
L 2216 1659 
Q 2216 2128 2167 2275 
Q 2119 2422 2012 2495 
Q 1906 2569 1756 2569 
Q 1603 2569 1437 2487 
Q 1272 2406 1041 2159 
L 1041 647 
Q 1041 353 1073 281 
Q 1106 209 1195 161 
Q 1284 113 1503 113 
L 1503 0 
L 84 0 
L 84 113 
Q 275 113 384 172 
Q 447 203 484 290 
Q 522 378 522 647 
L 522 3238 
Q 522 3728 498 3840 
Q 475 3953 426 3993 
Q 378 4034 297 4034 
Q 231 4034 84 3984 
L 41 4094 
L 897 4444 
L 1041 4444 
z
" transform="scale(0.015625)"/>
      <path id="TimesNewRomanPSMT-65" d="M 681 1784 
Q 678 1147 991 784 
Q 1303 422 1725 422 
Q 2006 422 2214 576 
Q 2422 731 2563 1106 
L 2659 1044 
Q 2594 616 2278 264 
Q 1963 -88 1488 -88 
Q 972 -88 605 314 
Q 238 716 238 1394 
Q 238 2128 614 2539 
Q 991 2950 1559 2950 
Q 2041 2950 2350 2633 
Q 2659 2316 2659 1784 
L 681 1784 
z
M 681 1966 
L 2006 1966 
Q 1991 2241 1941 2353 
Q 1863 2528 1708 2628 
Q 1553 2728 1384 2728 
Q 1125 2728 920 2526 
Q 716 2325 681 1966 
z
" transform="scale(0.015625)"/>
      <path id="TimesNewRomanPSMT-5f" d="M 3256 -1381 
L -53 -1381 
L -53 -1119 
L 3256 -1119 
L 3256 -1381 
z
" transform="scale(0.015625)"/>
      <path id="TimesNewRomanPSMT-43" d="M 3853 4334 
L 3950 2894 
L 3853 2894 
Q 3659 3541 3300 3825 
Q 2941 4109 2438 4109 
Q 2016 4109 1675 3895 
Q 1334 3681 1139 3212 
Q 944 2744 944 2047 
Q 944 1472 1128 1050 
Q 1313 628 1683 403 
Q 2053 178 2528 178 
Q 2941 178 3256 354 
Q 3572 531 3950 1056 
L 4047 994 
Q 3728 428 3303 165 
Q 2878 -97 2294 -97 
Q 1241 -97 663 684 
Q 231 1266 231 2053 
Q 231 2688 515 3219 
Q 800 3750 1298 4042 
Q 1797 4334 2388 4334 
Q 2847 4334 3294 4109 
Q 3425 4041 3481 4041 
Q 3566 4041 3628 4100 
Q 3709 4184 3744 4334 
L 3853 4334 
z
" transform="scale(0.015625)"/>
      <path id="TimesNewRomanPSMT-49" d="M 1975 116 
L 1975 0 
L 159 0 
L 159 116 
L 309 116 
Q 572 116 691 269 
Q 766 369 766 750 
L 766 3488 
Q 766 3809 725 3913 
Q 694 3991 597 4047 
Q 459 4122 309 4122 
L 159 4122 
L 159 4238 
L 1975 4238 
L 1975 4122 
L 1822 4122 
Q 1563 4122 1444 3969 
Q 1366 3869 1366 3488 
L 1366 750 
Q 1366 428 1406 325 
Q 1438 247 1538 191 
Q 1672 116 1822 116 
L 1975 116 
z
" transform="scale(0.015625)"/>
      <path id="TimesNewRomanPSMT-46" d="M 1309 4006 
L 1309 2341 
L 2081 2341 
Q 2347 2341 2470 2458 
Q 2594 2575 2634 2922 
L 2750 2922 
L 2750 1488 
L 2634 1488 
Q 2631 1734 2570 1850 
Q 2509 1966 2401 2023 
Q 2294 2081 2081 2081 
L 1309 2081 
L 1309 750 
Q 1309 428 1350 325 
Q 1381 247 1481 191 
Q 1619 116 1769 116 
L 1922 116 
L 1922 0 
L 103 0 
L 103 116 
L 253 116 
Q 516 116 634 269 
Q 709 369 709 750 
L 709 3488 
Q 709 3809 669 3913 
Q 638 3991 541 4047 
Q 406 4122 253 4122 
L 103 4122 
L 103 4238 
L 3256 4238 
L 3297 3306 
L 3188 3306 
Q 3106 3603 2998 3742 
Q 2891 3881 2733 3943 
Q 2575 4006 2244 4006 
L 1309 4006 
z
" transform="scale(0.015625)"/>
      <path id="TimesNewRomanPSMT-41" d="M 2928 1419 
L 1288 1419 
L 1000 750 
Q 894 503 894 381 
Q 894 284 986 211 
Q 1078 138 1384 116 
L 1384 0 
L 50 0 
L 50 116 
Q 316 163 394 238 
Q 553 388 747 847 
L 2238 4334 
L 2347 4334 
L 3822 809 
Q 4000 384 4145 257 
Q 4291 131 4550 116 
L 4550 0 
L 2878 0 
L 2878 116 
Q 3131 128 3220 200 
Q 3309 272 3309 375 
Q 3309 513 3184 809 
L 2928 1419 
z
M 2841 1650 
L 2122 3363 
L 1384 1650 
L 2841 1650 
z
" transform="scale(0.015625)"/>
      <path id="TimesNewRomanPSMT-52" d="M 4325 0 
L 3194 0 
L 1759 1981 
Q 1600 1975 1500 1975 
Q 1459 1975 1412 1976 
Q 1366 1978 1316 1981 
L 1316 750 
Q 1316 350 1403 253 
Q 1522 116 1759 116 
L 1925 116 
L 1925 0 
L 109 0 
L 109 116 
L 269 116 
Q 538 116 653 291 
Q 719 388 719 750 
L 719 3488 
Q 719 3888 631 3984 
Q 509 4122 269 4122 
L 109 4122 
L 109 4238 
L 1653 4238 
Q 2328 4238 2648 4139 
Q 2969 4041 3192 3777 
Q 3416 3513 3416 3147 
Q 3416 2756 3161 2468 
Q 2906 2181 2372 2063 
L 3247 847 
Q 3547 428 3762 290 
Q 3978 153 4325 116 
L 4325 0 
z
M 1316 2178 
Q 1375 2178 1419 2176 
Q 1463 2175 1491 2175 
Q 2097 2175 2405 2437 
Q 2713 2700 2713 3106 
Q 2713 3503 2464 3751 
Q 2216 4000 1806 4000 
Q 1625 4000 1316 3941 
L 1316 2178 
z
" transform="scale(0.015625)"/>
      <path id="TimesNewRomanPSMT-72" d="M 1038 2947 
L 1038 2303 
Q 1397 2947 1775 2947 
Q 1947 2947 2059 2842 
Q 2172 2738 2172 2600 
Q 2172 2478 2090 2393 
Q 2009 2309 1897 2309 
Q 1788 2309 1652 2417 
Q 1516 2525 1450 2525 
Q 1394 2525 1328 2463 
Q 1188 2334 1038 2041 
L 1038 669 
Q 1038 431 1097 309 
Q 1138 225 1241 169 
Q 1344 113 1538 113 
L 1538 0 
L 72 0 
L 72 113 
Q 291 113 397 181 
Q 475 231 506 341 
Q 522 394 522 644 
L 522 1753 
Q 522 2253 501 2348 
Q 481 2444 426 2487 
Q 372 2531 291 2531 
Q 194 2531 72 2484 
L 41 2597 
L 906 2947 
L 1038 2947 
z
" transform="scale(0.015625)"/>
      <path id="TimesNewRomanPSMT-63" d="M 2631 1088 
Q 2516 522 2178 217 
Q 1841 -88 1431 -88 
Q 944 -88 581 321 
Q 219 731 219 1428 
Q 219 2103 620 2525 
Q 1022 2947 1584 2947 
Q 2006 2947 2278 2723 
Q 2550 2500 2550 2259 
Q 2550 2141 2473 2067 
Q 2397 1994 2259 1994 
Q 2075 1994 1981 2113 
Q 1928 2178 1911 2362 
Q 1894 2547 1784 2644 
Q 1675 2738 1481 2738 
Q 1169 2738 978 2506 
Q 725 2200 725 1697 
Q 725 1184 976 792 
Q 1228 400 1656 400 
Q 1963 400 2206 609 
Q 2378 753 2541 1131 
L 2631 1088 
z
" transform="scale(0.015625)"/>
      <path id="TimesNewRomanPSMT-6d" d="M 1050 2338 
Q 1363 2650 1419 2697 
Q 1559 2816 1721 2881 
Q 1884 2947 2044 2947 
Q 2313 2947 2506 2790 
Q 2700 2634 2766 2338 
Q 3088 2713 3309 2830 
Q 3531 2947 3766 2947 
Q 3994 2947 4170 2830 
Q 4347 2713 4450 2447 
Q 4519 2266 4519 1878 
L 4519 647 
Q 4519 378 4559 278 
Q 4591 209 4675 161 
Q 4759 113 4950 113 
L 4950 0 
L 3538 0 
L 3538 113 
L 3597 113 
Q 3781 113 3884 184 
Q 3956 234 3988 344 
Q 4000 397 4000 647 
L 4000 1878 
Q 4000 2228 3916 2372 
Q 3794 2572 3525 2572 
Q 3359 2572 3192 2489 
Q 3025 2406 2788 2181 
L 2781 2147 
L 2788 2013 
L 2788 647 
Q 2788 353 2820 281 
Q 2853 209 2943 161 
Q 3034 113 3253 113 
L 3253 0 
L 1806 0 
L 1806 113 
Q 2044 113 2133 169 
Q 2222 225 2256 338 
Q 2272 391 2272 647 
L 2272 1878 
Q 2272 2228 2169 2381 
Q 2031 2581 1784 2581 
Q 1616 2581 1450 2491 
Q 1191 2353 1050 2181 
L 1050 647 
Q 1050 366 1089 281 
Q 1128 197 1204 155 
Q 1281 113 1516 113 
L 1516 0 
L 100 0 
L 100 113 
Q 297 113 375 155 
Q 453 197 493 289 
Q 534 381 534 647 
L 534 1741 
Q 534 2213 506 2350 
Q 484 2453 437 2492 
Q 391 2531 309 2531 
Q 222 2531 100 2484 
L 53 2597 
L 916 2947 
L 1050 2947 
L 1050 2338 
z
" transform="scale(0.015625)"/>
      <path id="TimesNewRomanPSMT-64" d="M 2222 322 
Q 2013 103 1813 7 
Q 1613 -88 1381 -88 
Q 913 -88 563 304 
Q 213 697 213 1313 
Q 213 1928 600 2439 
Q 988 2950 1597 2950 
Q 1975 2950 2222 2709 
L 2222 3238 
Q 2222 3728 2198 3840 
Q 2175 3953 2125 3993 
Q 2075 4034 2000 4034 
Q 1919 4034 1784 3984 
L 1744 4094 
L 2597 4444 
L 2738 4444 
L 2738 1134 
Q 2738 631 2761 520 
Q 2784 409 2836 365 
Q 2888 322 2956 322 
Q 3041 322 3181 375 
L 3216 266 
L 2366 -88 
L 2222 -88 
L 2222 322 
z
M 2222 541 
L 2222 2016 
Q 2203 2228 2109 2403 
Q 2016 2578 1861 2667 
Q 1706 2756 1559 2756 
Q 1284 2756 1069 2509 
Q 784 2184 784 1559 
Q 784 928 1059 592 
Q 1334 256 1672 256 
Q 1956 256 2222 541 
z
" transform="scale(0.015625)"/>
      <path id="TimesNewRomanPSMT-6c" d="M 1184 4444 
L 1184 647 
Q 1184 378 1223 290 
Q 1263 203 1344 158 
Q 1425 113 1647 113 
L 1647 0 
L 244 0 
L 244 113 
Q 441 113 512 153 
Q 584 194 625 287 
Q 666 381 666 647 
L 666 3247 
Q 666 3731 644 3842 
Q 622 3953 573 3993 
Q 525 4034 450 4034 
Q 369 4034 244 3984 
L 191 4094 
L 1044 4444 
L 1184 4444 
z
" transform="scale(0.015625)"/>
      <path id="TimesNewRomanPSMT-28" d="M 1988 -1253 
L 1988 -1369 
Q 1516 -1131 1200 -813 
Q 750 -359 506 256 
Q 263 872 263 1534 
Q 263 2503 741 3301 
Q 1219 4100 1988 4444 
L 1988 4313 
Q 1603 4100 1356 3731 
Q 1109 3363 987 2797 
Q 866 2231 866 1616 
Q 866 947 969 400 
Q 1050 -31 1165 -292 
Q 1281 -553 1476 -793 
Q 1672 -1034 1988 -1253 
z
" transform="scale(0.015625)"/>
      <path id="TimesNewRomanPSMT-2b" d="M 1672 441 
L 1672 2000 
L 116 2000 
L 116 2256 
L 1672 2256 
L 1672 3809 
L 1922 3809 
L 1922 2256 
L 3484 2256 
L 3484 2000 
L 1922 2000 
L 1922 441 
L 1672 441 
z
" transform="scale(0.015625)"/>
      <path id="TimesNewRomanPSMT-2d" d="M 259 1672 
L 1875 1672 
L 1875 1200 
L 259 1200 
L 259 1672 
z
" transform="scale(0.015625)"/>
      <path id="TimesNewRomanPSMT-29" d="M 144 4313 
L 144 4444 
Q 619 4209 934 3891 
Q 1381 3434 1625 2820 
Q 1869 2206 1869 1541 
Q 1869 572 1392 -226 
Q 916 -1025 144 -1369 
L 144 -1253 
Q 528 -1038 776 -670 
Q 1025 -303 1145 264 
Q 1266 831 1266 1447 
Q 1266 2113 1163 2663 
Q 1084 3094 967 3353 
Q 850 3613 656 3853 
Q 463 4094 144 4313 
z
" transform="scale(0.015625)"/>
      <path id="TimesNewRomanPSMT-70" d="M -6 2578 
L 875 2934 
L 994 2934 
L 994 2266 
Q 1216 2644 1439 2795 
Q 1663 2947 1909 2947 
Q 2341 2947 2628 2609 
Q 2981 2197 2981 1534 
Q 2981 794 2556 309 
Q 2206 -88 1675 -88 
Q 1444 -88 1275 -22 
Q 1150 25 994 166 
L 994 -706 
Q 994 -1000 1030 -1079 
Q 1066 -1159 1155 -1206 
Q 1244 -1253 1478 -1253 
L 1478 -1369 
L -22 -1369 
L -22 -1253 
L 56 -1253 
Q 228 -1256 350 -1188 
Q 409 -1153 442 -1076 
Q 475 -1000 475 -688 
L 475 2019 
Q 475 2297 450 2372 
Q 425 2447 370 2484 
Q 316 2522 222 2522 
Q 147 2522 31 2478 
L -6 2578 
z
M 994 2081 
L 994 1013 
Q 994 666 1022 556 
Q 1066 375 1236 237 
Q 1406 100 1666 100 
Q 1978 100 2172 344 
Q 2425 663 2425 1241 
Q 2425 1897 2138 2250 
Q 1938 2494 1663 2494 
Q 1513 2494 1366 2419 
Q 1253 2363 994 2081 
z
" transform="scale(0.015625)"/>
      <path id="TimesNewRomanPSMT-62" d="M 984 2369 
Q 1400 2947 1881 2947 
Q 2322 2947 2650 2570 
Q 2978 2194 2978 1541 
Q 2978 778 2472 313 
Q 2038 -88 1503 -88 
Q 1253 -88 995 3 
Q 738 94 469 275 
L 469 3241 
Q 469 3728 445 3840 
Q 422 3953 372 3993 
Q 322 4034 247 4034 
Q 159 4034 28 3984 
L -16 4094 
L 844 4444 
L 984 4444 
L 984 2369 
z
M 984 2169 
L 984 456 
Q 1144 300 1314 220 
Q 1484 141 1663 141 
Q 1947 141 2192 453 
Q 2438 766 2438 1363 
Q 2438 1913 2192 2208 
Q 1947 2503 1634 2503 
Q 1469 2503 1303 2419 
Q 1178 2356 984 2169 
z
" transform="scale(0.015625)"/>
     </defs>
     <use xlink:href="#TimesNewRomanPSMT-4c"/>
     <use xlink:href="#TimesNewRomanPSMT-6f" transform="translate(61.083984 0)"/>
     <use xlink:href="#TimesNewRomanPSMT-73" transform="translate(111.083984 0)"/>
     <use xlink:href="#TimesNewRomanPSMT-73" transform="translate(150 0)"/>
     <use xlink:href="#TimesNewRomanPSMT-20" transform="translate(188.916016 0)"/>
     <use xlink:href="#TimesNewRomanPSMT-6f" transform="translate(213.916016 0)"/>
     <use xlink:href="#TimesNewRomanPSMT-66" transform="translate(263.916016 0)"/>
     <use xlink:href="#TimesNewRomanPSMT-20" transform="translate(297.216797 0)"/>
     <use xlink:href="#TimesNewRomanPSMT-74" transform="translate(322.216797 0)"/>
     <use xlink:href="#TimesNewRomanPSMT-68" transform="translate(350 0)"/>
     <use xlink:href="#TimesNewRomanPSMT-65" transform="translate(400 0)"/>
     <use xlink:href="#TimesNewRomanPSMT-20" transform="translate(444.384766 0)"/>
     <use xlink:href="#TimesNewRomanPSMT-32" transform="translate(469.384766 0)"/>
     <use xlink:href="#TimesNewRomanPSMT-31" transform="translate(519.384766 0)"/>
     <use xlink:href="#TimesNewRomanPSMT-5f" transform="translate(569.384766 0)"/>
     <use xlink:href="#TimesNewRomanPSMT-30" transform="translate(619.384766 0)"/>
     <use xlink:href="#TimesNewRomanPSMT-35" transform="translate(669.384766 0)"/>
     <use xlink:href="#TimesNewRomanPSMT-5f" transform="translate(719.384766 0)"/>
     <use xlink:href="#TimesNewRomanPSMT-32" transform="translate(769.384766 0)"/>
     <use xlink:href="#TimesNewRomanPSMT-35" transform="translate(819.384766 0)"/>
     <use xlink:href="#TimesNewRomanPSMT-5f" transform="translate(869.384766 0)"/>
     <use xlink:href="#TimesNewRomanPSMT-43" transform="translate(919.384766 0)"/>
     <use xlink:href="#TimesNewRomanPSMT-49" transform="translate(986.083984 0)"/>
     <use xlink:href="#TimesNewRomanPSMT-46" transform="translate(1019.384766 0)"/>
     <use xlink:href="#TimesNewRomanPSMT-41" transform="translate(1067.625 0)"/>
     <use xlink:href="#TimesNewRomanPSMT-52" transform="translate(1139.841797 0)"/>
     <use xlink:href="#TimesNewRomanPSMT-31" transform="translate(1206.541016 0)"/>
     <use xlink:href="#TimesNewRomanPSMT-30" transform="translate(1256.541016 0)"/>
     <use xlink:href="#TimesNewRomanPSMT-5f" transform="translate(1306.541016 0)"/>
     <use xlink:href="#TimesNewRomanPSMT-74" transform="translate(1356.541016 0)"/>
     <use xlink:href="#TimesNewRomanPSMT-6f" transform="translate(1384.324219 0)"/>
     <use xlink:href="#TimesNewRomanPSMT-72" transform="translate(1434.324219 0)"/>
     <use xlink:href="#TimesNewRomanPSMT-63" transform="translate(1467.625 0)"/>
     <use xlink:href="#TimesNewRomanPSMT-68" transform="translate(1512.009766 0)"/>
     <use xlink:href="#TimesNewRomanPSMT-5f" transform="translate(1562.009766 0)"/>
     <use xlink:href="#TimesNewRomanPSMT-6d" transform="translate(1612.009766 0)"/>
     <use xlink:href="#TimesNewRomanPSMT-6f" transform="translate(1689.792969 0)"/>
     <use xlink:href="#TimesNewRomanPSMT-64" transform="translate(1739.792969 0)"/>
     <use xlink:href="#TimesNewRomanPSMT-65" transform="translate(1789.792969 0)"/>
     <use xlink:href="#TimesNewRomanPSMT-6c" transform="translate(1834.177734 0)"/>
     <use xlink:href="#TimesNewRomanPSMT-5f" transform="translate(1861.960938 0)"/>
     <use xlink:href="#TimesNewRomanPSMT-28" transform="translate(1911.960938 0)"/>
     <use xlink:href="#TimesNewRomanPSMT-31" transform="translate(1945.261719 0)"/>
     <use xlink:href="#TimesNewRomanPSMT-30" transform="translate(1995.261719 0)"/>
     <use xlink:href="#TimesNewRomanPSMT-32" transform="translate(2045.261719 0)"/>
     <use xlink:href="#TimesNewRomanPSMT-34" transform="translate(2095.261719 0)"/>
     <use xlink:href="#TimesNewRomanPSMT-2b" transform="translate(2145.261719 0)"/>
     <use xlink:href="#TimesNewRomanPSMT-35" transform="translate(2201.658203 0)"/>
     <use xlink:href="#TimesNewRomanPSMT-31" transform="translate(2251.658203 0)"/>
     <use xlink:href="#TimesNewRomanPSMT-32" transform="translate(2301.658203 0)"/>
     <use xlink:href="#TimesNewRomanPSMT-2d" transform="translate(2351.658203 0)"/>
     <use xlink:href="#TimesNewRomanPSMT-35" transform="translate(2384.958984 0)"/>
     <use xlink:href="#TimesNewRomanPSMT-31" transform="translate(2434.958984 0)"/>
     <use xlink:href="#TimesNewRomanPSMT-32" transform="translate(2484.958984 0)"/>
     <use xlink:href="#TimesNewRomanPSMT-2e" transform="translate(2534.958984 0)"/>
     <use xlink:href="#TimesNewRomanPSMT-32" transform="translate(2559.958984 0)"/>
     <use xlink:href="#TimesNewRomanPSMT-2b" transform="translate(2609.958984 0)"/>
     <use xlink:href="#TimesNewRomanPSMT-31" transform="translate(2666.355469 0)"/>
     <use xlink:href="#TimesNewRomanPSMT-29" transform="translate(2716.355469 0)"/>
     <use xlink:href="#TimesNewRomanPSMT-5f" transform="translate(2749.65625 0)"/>
     <use xlink:href="#TimesNewRomanPSMT-63" transform="translate(2799.65625 0)"/>
     <use xlink:href="#TimesNewRomanPSMT-74" transform="translate(2844.041016 0)"/>
     <use xlink:href="#TimesNewRomanPSMT-70" transform="translate(2871.824219 0)"/>
     <use xlink:href="#TimesNewRomanPSMT-62" transform="translate(2921.824219 0)"/>
    </g>
   </g>
   <g id="legend_1">
    <g id="patch_7">
     <path d="M 362.08175 125.384625 
L 562.63925 125.384625 
Q 567.03925 125.384625 567.03925 120.984625 
L 567.03925 60.9315 
Q 567.03925 56.5315 562.63925 56.5315 
L 362.08175 56.5315 
Q 357.68175 56.5315 357.68175 60.9315 
L 357.68175 120.984625 
Q 357.68175 125.384625 362.08175 125.384625 
z
" style="fill: #ffffff; opacity: 0.8; stroke: #cccccc; stroke-linejoin: miter"/>
    </g>
    <g id="line2d_23">
     <path d="M 366.48175 73.0315 
L 388.48175 73.0315 
L 410.48175 73.0315 
" style="fill: none; stroke: #ffa500; stroke-width: 1.5; stroke-linecap: square"/>
    </g>
    <g id="text_14">
     <!-- Training loss -->
     <g transform="translate(428.08175 80.7315) scale(0.22 -0.22)">
      <defs>
       <path id="TimesNewRomanPSMT-54" d="M 3703 4238 
L 3750 3244 
L 3631 3244 
Q 3597 3506 3538 3619 
Q 3441 3800 3280 3886 
Q 3119 3972 2856 3972 
L 2259 3972 
L 2259 734 
Q 2259 344 2344 247 
Q 2463 116 2709 116 
L 2856 116 
L 2856 0 
L 1059 0 
L 1059 116 
L 1209 116 
Q 1478 116 1591 278 
Q 1659 378 1659 734 
L 1659 3972 
L 1150 3972 
Q 853 3972 728 3928 
Q 566 3869 450 3700 
Q 334 3531 313 3244 
L 194 3244 
L 244 4238 
L 3703 4238 
z
" transform="scale(0.015625)"/>
       <path id="TimesNewRomanPSMT-61" d="M 1822 413 
Q 1381 72 1269 19 
Q 1100 -59 909 -59 
Q 613 -59 420 144 
Q 228 347 228 678 
Q 228 888 322 1041 
Q 450 1253 767 1440 
Q 1084 1628 1822 1897 
L 1822 2009 
Q 1822 2438 1686 2597 
Q 1550 2756 1291 2756 
Q 1094 2756 978 2650 
Q 859 2544 859 2406 
L 866 2225 
Q 866 2081 792 2003 
Q 719 1925 600 1925 
Q 484 1925 411 2006 
Q 338 2088 338 2228 
Q 338 2497 613 2722 
Q 888 2947 1384 2947 
Q 1766 2947 2009 2819 
Q 2194 2722 2281 2516 
Q 2338 2381 2338 1966 
L 2338 994 
Q 2338 584 2353 492 
Q 2369 400 2405 369 
Q 2441 338 2488 338 
Q 2538 338 2575 359 
Q 2641 400 2828 588 
L 2828 413 
Q 2478 -56 2159 -56 
Q 2006 -56 1915 50 
Q 1825 156 1822 413 
z
M 1822 616 
L 1822 1706 
Q 1350 1519 1213 1441 
Q 966 1303 859 1153 
Q 753 1003 753 825 
Q 753 600 887 451 
Q 1022 303 1197 303 
Q 1434 303 1822 616 
z
" transform="scale(0.015625)"/>
       <path id="TimesNewRomanPSMT-69" d="M 928 4444 
Q 1059 4444 1151 4351 
Q 1244 4259 1244 4128 
Q 1244 3997 1151 3903 
Q 1059 3809 928 3809 
Q 797 3809 703 3903 
Q 609 3997 609 4128 
Q 609 4259 701 4351 
Q 794 4444 928 4444 
z
M 1188 2947 
L 1188 647 
Q 1188 378 1227 289 
Q 1266 200 1342 156 
Q 1419 113 1622 113 
L 1622 0 
L 231 0 
L 231 113 
Q 441 113 512 153 
Q 584 194 626 287 
Q 669 381 669 647 
L 669 1750 
Q 669 2216 641 2353 
Q 619 2453 572 2492 
Q 525 2531 444 2531 
Q 356 2531 231 2484 
L 188 2597 
L 1050 2947 
L 1188 2947 
z
" transform="scale(0.015625)"/>
       <path id="TimesNewRomanPSMT-6e" d="M 1034 2341 
Q 1538 2947 1994 2947 
Q 2228 2947 2397 2830 
Q 2566 2713 2666 2444 
Q 2734 2256 2734 1869 
L 2734 647 
Q 2734 375 2778 278 
Q 2813 200 2889 156 
Q 2966 113 3172 113 
L 3172 0 
L 1756 0 
L 1756 113 
L 1816 113 
Q 2016 113 2095 173 
Q 2175 234 2206 353 
Q 2219 400 2219 647 
L 2219 1819 
Q 2219 2209 2117 2386 
Q 2016 2563 1775 2563 
Q 1403 2563 1034 2156 
L 1034 647 
Q 1034 356 1069 288 
Q 1113 197 1189 155 
Q 1266 113 1500 113 
L 1500 0 
L 84 0 
L 84 113 
L 147 113 
Q 366 113 442 223 
Q 519 334 519 647 
L 519 1709 
Q 519 2225 495 2337 
Q 472 2450 423 2490 
Q 375 2531 294 2531 
Q 206 2531 84 2484 
L 38 2597 
L 900 2947 
L 1034 2947 
L 1034 2341 
z
" transform="scale(0.015625)"/>
       <path id="TimesNewRomanPSMT-67" d="M 966 1044 
Q 703 1172 562 1401 
Q 422 1631 422 1909 
Q 422 2334 742 2640 
Q 1063 2947 1563 2947 
Q 1972 2947 2272 2747 
L 2878 2747 
Q 3013 2747 3034 2739 
Q 3056 2731 3066 2713 
Q 3084 2684 3084 2613 
Q 3084 2531 3069 2500 
Q 3059 2484 3036 2475 
Q 3013 2466 2878 2466 
L 2506 2466 
Q 2681 2241 2681 1891 
Q 2681 1491 2375 1206 
Q 2069 922 1553 922 
Q 1341 922 1119 984 
Q 981 866 932 777 
Q 884 688 884 625 
Q 884 572 936 522 
Q 988 472 1138 450 
Q 1225 438 1575 428 
Q 2219 413 2409 384 
Q 2700 344 2873 169 
Q 3047 -6 3047 -263 
Q 3047 -616 2716 -925 
Q 2228 -1381 1444 -1381 
Q 841 -1381 425 -1109 
Q 191 -953 191 -784 
Q 191 -709 225 -634 
Q 278 -519 444 -313 
Q 466 -284 763 25 
Q 600 122 533 198 
Q 466 275 466 372 
Q 466 481 555 628 
Q 644 775 966 1044 
z
M 1509 2797 
Q 1278 2797 1122 2612 
Q 966 2428 966 2047 
Q 966 1553 1178 1281 
Q 1341 1075 1591 1075 
Q 1828 1075 1981 1253 
Q 2134 1431 2134 1813 
Q 2134 2309 1919 2591 
Q 1759 2797 1509 2797 
z
M 934 0 
Q 788 -159 713 -296 
Q 638 -434 638 -550 
Q 638 -700 819 -813 
Q 1131 -1006 1722 -1006 
Q 2284 -1006 2551 -807 
Q 2819 -609 2819 -384 
Q 2819 -222 2659 -153 
Q 2497 -84 2016 -72 
Q 1313 -53 934 0 
z
" transform="scale(0.015625)"/>
      </defs>
      <use xlink:href="#TimesNewRomanPSMT-54"/>
      <use xlink:href="#TimesNewRomanPSMT-72" transform="translate(57.583984 0)"/>
      <use xlink:href="#TimesNewRomanPSMT-61" transform="translate(90.884766 0)"/>
      <use xlink:href="#TimesNewRomanPSMT-69" transform="translate(135.269531 0)"/>
      <use xlink:href="#TimesNewRomanPSMT-6e" transform="translate(163.052734 0)"/>
      <use xlink:href="#TimesNewRomanPSMT-69" transform="translate(213.052734 0)"/>
      <use xlink:href="#TimesNewRomanPSMT-6e" transform="translate(240.835938 0)"/>
      <use xlink:href="#TimesNewRomanPSMT-67" transform="translate(290.835938 0)"/>
      <use xlink:href="#TimesNewRomanPSMT-20" transform="translate(340.835938 0)"/>
      <use xlink:href="#TimesNewRomanPSMT-6c" transform="translate(365.835938 0)"/>
      <use xlink:href="#TimesNewRomanPSMT-6f" transform="translate(393.619141 0)"/>
      <use xlink:href="#TimesNewRomanPSMT-73" transform="translate(443.619141 0)"/>
      <use xlink:href="#TimesNewRomanPSMT-73" transform="translate(482.535156 0)"/>
     </g>
    </g>
    <g id="line2d_24">
     <path d="M 366.48175 104.178687 
L 388.48175 104.178687 
L 410.48175 104.178687 
" style="fill: none; stroke: #008000; stroke-width: 1.5; stroke-linecap: square"/>
    </g>
    <g id="text_15">
     <!-- Validation loss -->
     <g transform="translate(428.08175 111.878687) scale(0.22 -0.22)">
      <defs>
       <path id="TimesNewRomanPSMT-56" d="M 4544 4238 
L 4544 4122 
Q 4319 4081 4203 3978 
Q 4038 3825 3909 3509 
L 2431 -97 
L 2316 -97 
L 728 3556 
Q 606 3838 556 3900 
Q 478 3997 364 4051 
Q 250 4106 56 4122 
L 56 4238 
L 1788 4238 
L 1788 4122 
Q 1494 4094 1406 4022 
Q 1319 3950 1319 3838 
Q 1319 3681 1463 3350 
L 2541 866 
L 3541 3319 
Q 3688 3681 3688 3822 
Q 3688 3913 3597 3995 
Q 3506 4078 3291 4113 
Q 3275 4116 3238 4122 
L 3238 4238 
L 4544 4238 
z
" transform="scale(0.015625)"/>
      </defs>
      <use xlink:href="#TimesNewRomanPSMT-56"/>
      <use xlink:href="#TimesNewRomanPSMT-61" transform="translate(61.091797 0)"/>
      <use xlink:href="#TimesNewRomanPSMT-6c" transform="translate(105.476562 0)"/>
      <use xlink:href="#TimesNewRomanPSMT-69" transform="translate(133.259766 0)"/>
      <use xlink:href="#TimesNewRomanPSMT-64" transform="translate(161.042969 0)"/>
      <use xlink:href="#TimesNewRomanPSMT-61" transform="translate(211.042969 0)"/>
      <use xlink:href="#TimesNewRomanPSMT-74" transform="translate(255.427734 0)"/>
      <use xlink:href="#TimesNewRomanPSMT-69" transform="translate(283.210938 0)"/>
      <use xlink:href="#TimesNewRomanPSMT-6f" transform="translate(310.994141 0)"/>
      <use xlink:href="#TimesNewRomanPSMT-6e" transform="translate(360.994141 0)"/>
      <use xlink:href="#TimesNewRomanPSMT-20" transform="translate(410.994141 0)"/>
      <use xlink:href="#TimesNewRomanPSMT-6c" transform="translate(435.994141 0)"/>
      <use xlink:href="#TimesNewRomanPSMT-6f" transform="translate(463.777344 0)"/>
      <use xlink:href="#TimesNewRomanPSMT-73" transform="translate(513.777344 0)"/>
      <use xlink:href="#TimesNewRomanPSMT-73" transform="translate(552.693359 0)"/>
     </g>
    </g>
   </g>
  </g>
 </g>
 <defs>
  <clipPath id="p2f704cc27e">
   <rect x="220.91925" y="45.5315" width="357.12" height="266.112"/>
  </clipPath>
 </defs>
</svg>
