<?xml version="1.0" encoding="utf-8" standalone="no"?>
<!DOCTYPE svg PUBLIC "-//W3C//DTD SVG 1.1//EN"
  "http://www.w3.org/Graphics/SVG/1.1/DTD/svg11.dtd">
<svg xmlns:xlink="http://www.w3.org/1999/xlink" width="898.086375pt" height="369.807875pt" viewBox="0 0 898.086375 369.807875" xmlns="http://www.w3.org/2000/svg" version="1.1">
 <metadata>
  <rdf:RDF xmlns:dc="http://purl.org/dc/elements/1.1/" xmlns:cc="http://creativecommons.org/ns#" xmlns:rdf="http://www.w3.org/1999/02/22-rdf-syntax-ns#">
   <cc:Work>
    <dc:type rdf:resource="http://purl.org/dc/dcmitype/StillImage"/>
    <dc:date>2025-05-07T11:50:59.051858</dc:date>
    <dc:format>image/svg+xml</dc:format>
    <dc:creator>
     <cc:Agent>
      <dc:title>Matplotlib v3.10.1, https://matplotlib.org/</dc:title>
     </cc:Agent>
    </dc:creator>
   </cc:Work>
  </rdf:RDF>
 </metadata>
 <defs>
  <style type="text/css">*{stroke-linejoin: round; stroke-linecap: butt}</style>
 </defs>
 <g id="figure_1">
  <g id="patch_1">
   <path d="M -0 369.807875 
L 898.086375 369.807875 
L 898.086375 0 
L -0 0 
z
" style="fill: #ffffff"/>
  </g>
  <g id="axes_1">
   <g id="patch_2">
    <path d="M 270.483187 311.6435 
L 627.603188 311.6435 
L 627.603188 45.5315 
L 270.483187 45.5315 
z
" style="fill: #ffffff"/>
   </g>
   <g id="matplotlib.axis_1">
    <g id="xtick_1">
     <g id="line2d_1">
      <path d="M 270.483187 311.6435 
L 270.483187 45.5315 
" clip-path="url(#paa1c85c5f2)" style="fill: none; stroke: #b0b0b0; stroke-opacity: 0.3; stroke-width: 0.8; stroke-linecap: square"/>
     </g>
     <g id="line2d_2">
      <defs>
       <path id="m6c4b906774" d="M 0 0 
L 0 3.5 
" style="stroke: #000000; stroke-width: 0.8"/>
      </defs>
      <g>
       <use xlink:href="#m6c4b906774" x="270.483187" y="311.6435" style="stroke: #000000; stroke-width: 0.8"/>
      </g>
     </g>
     <g id="text_1">
      <!-- 0 -->
      <g transform="translate(264.983187 333.91975) scale(0.22 -0.22)">
       <defs>
        <path id="TimesNewRomanPSMT-30" d="M 231 2094 
Q 231 2819 450 3342 
Q 669 3866 1031 4122 
Q 1313 4325 1613 4325 
Q 2100 4325 2488 3828 
Q 2972 3213 2972 2159 
Q 2972 1422 2759 906 
Q 2547 391 2217 158 
Q 1888 -75 1581 -75 
Q 975 -75 572 641 
Q 231 1244 231 2094 
z
M 844 2016 
Q 844 1141 1059 588 
Q 1238 122 1591 122 
Q 1759 122 1940 273 
Q 2122 425 2216 781 
Q 2359 1319 2359 2297 
Q 2359 3022 2209 3506 
Q 2097 3866 1919 4016 
Q 1791 4119 1609 4119 
Q 1397 4119 1231 3928 
Q 1006 3669 925 3112 
Q 844 2556 844 2016 
z
" transform="scale(0.015625)"/>
       </defs>
       <use xlink:href="#TimesNewRomanPSMT-30"/>
      </g>
     </g>
    </g>
    <g id="xtick_2">
     <g id="line2d_3">
      <path d="M 361.122781 311.6435 
L 361.122781 45.5315 
" clip-path="url(#paa1c85c5f2)" style="fill: none; stroke: #b0b0b0; stroke-opacity: 0.3; stroke-width: 0.8; stroke-linecap: square"/>
     </g>
     <g id="line2d_4">
      <g>
       <use xlink:href="#m6c4b906774" x="361.122781" y="311.6435" style="stroke: #000000; stroke-width: 0.8"/>
      </g>
     </g>
     <g id="text_2">
      <!-- 5000 -->
      <g transform="translate(339.122781 333.91975) scale(0.22 -0.22)">
       <defs>
        <path id="TimesNewRomanPSMT-35" d="M 2778 4238 
L 2534 3706 
L 1259 3706 
L 981 3138 
Q 1809 3016 2294 2522 
Q 2709 2097 2709 1522 
Q 2709 1188 2573 903 
Q 2438 619 2231 419 
Q 2025 219 1772 97 
Q 1413 -75 1034 -75 
Q 653 -75 479 54 
Q 306 184 306 341 
Q 306 428 378 495 
Q 450 563 559 563 
Q 641 563 702 538 
Q 763 513 909 409 
Q 1144 247 1384 247 
Q 1750 247 2026 523 
Q 2303 800 2303 1197 
Q 2303 1581 2056 1914 
Q 1809 2247 1375 2428 
Q 1034 2569 447 2591 
L 1259 4238 
L 2778 4238 
z
" transform="scale(0.015625)"/>
       </defs>
       <use xlink:href="#TimesNewRomanPSMT-35"/>
       <use xlink:href="#TimesNewRomanPSMT-30" transform="translate(50 0)"/>
       <use xlink:href="#TimesNewRomanPSMT-30" transform="translate(100 0)"/>
       <use xlink:href="#TimesNewRomanPSMT-30" transform="translate(150 0)"/>
      </g>
     </g>
    </g>
    <g id="xtick_3">
     <g id="line2d_5">
      <path d="M 451.762375 311.6435 
L 451.762375 45.5315 
" clip-path="url(#paa1c85c5f2)" style="fill: none; stroke: #b0b0b0; stroke-opacity: 0.3; stroke-width: 0.8; stroke-linecap: square"/>
     </g>
     <g id="line2d_6">
      <g>
       <use xlink:href="#m6c4b906774" x="451.762375" y="311.6435" style="stroke: #000000; stroke-width: 0.8"/>
      </g>
     </g>
     <g id="text_3">
      <!-- 10000 -->
      <g transform="translate(424.262375 333.91975) scale(0.22 -0.22)">
       <defs>
        <path id="TimesNewRomanPSMT-31" d="M 750 3822 
L 1781 4325 
L 1884 4325 
L 1884 747 
Q 1884 391 1914 303 
Q 1944 216 2037 169 
Q 2131 122 2419 116 
L 2419 0 
L 825 0 
L 825 116 
Q 1125 122 1212 167 
Q 1300 213 1334 289 
Q 1369 366 1369 747 
L 1369 3034 
Q 1369 3497 1338 3628 
Q 1316 3728 1258 3775 
Q 1200 3822 1119 3822 
Q 1003 3822 797 3725 
L 750 3822 
z
" transform="scale(0.015625)"/>
       </defs>
       <use xlink:href="#TimesNewRomanPSMT-31"/>
       <use xlink:href="#TimesNewRomanPSMT-30" transform="translate(50 0)"/>
       <use xlink:href="#TimesNewRomanPSMT-30" transform="translate(100 0)"/>
       <use xlink:href="#TimesNewRomanPSMT-30" transform="translate(150 0)"/>
       <use xlink:href="#TimesNewRomanPSMT-30" transform="translate(200 0)"/>
      </g>
     </g>
    </g>
    <g id="xtick_4">
     <g id="line2d_7">
      <path d="M 542.401969 311.6435 
L 542.401969 45.5315 
" clip-path="url(#paa1c85c5f2)" style="fill: none; stroke: #b0b0b0; stroke-opacity: 0.3; stroke-width: 0.8; stroke-linecap: square"/>
     </g>
     <g id="line2d_8">
      <g>
       <use xlink:href="#m6c4b906774" x="542.401969" y="311.6435" style="stroke: #000000; stroke-width: 0.8"/>
      </g>
     </g>
     <g id="text_4">
      <!-- 15000 -->
      <g transform="translate(514.901969 333.91975) scale(0.22 -0.22)">
       <use xlink:href="#TimesNewRomanPSMT-31"/>
       <use xlink:href="#TimesNewRomanPSMT-35" transform="translate(50 0)"/>
       <use xlink:href="#TimesNewRomanPSMT-30" transform="translate(100 0)"/>
       <use xlink:href="#TimesNewRomanPSMT-30" transform="translate(150 0)"/>
       <use xlink:href="#TimesNewRomanPSMT-30" transform="translate(200 0)"/>
      </g>
     </g>
    </g>
    <g id="text_5">
     <!-- Number of iterations -->
     <g transform="translate(357.401156 357.901937) scale(0.22 -0.22)">
      <defs>
       <path id="TimesNewRomanPSMT-4e" d="M -84 4238 
L 1066 4238 
L 3656 1059 
L 3656 3503 
Q 3656 3894 3569 3991 
Q 3453 4122 3203 4122 
L 3056 4122 
L 3056 4238 
L 4531 4238 
L 4531 4122 
L 4381 4122 
Q 4113 4122 4000 3959 
Q 3931 3859 3931 3503 
L 3931 -69 
L 3819 -69 
L 1025 3344 
L 1025 734 
Q 1025 344 1109 247 
Q 1228 116 1475 116 
L 1625 116 
L 1625 0 
L 150 0 
L 150 116 
L 297 116 
Q 569 116 681 278 
Q 750 378 750 734 
L 750 3681 
Q 566 3897 470 3965 
Q 375 4034 191 4094 
Q 100 4122 -84 4122 
L -84 4238 
z
" transform="scale(0.015625)"/>
       <path id="TimesNewRomanPSMT-75" d="M 2709 2863 
L 2709 1128 
Q 2709 631 2732 520 
Q 2756 409 2807 365 
Q 2859 322 2928 322 
Q 3025 322 3147 375 
L 3191 266 
L 2334 -88 
L 2194 -88 
L 2194 519 
Q 1825 119 1631 15 
Q 1438 -88 1222 -88 
Q 981 -88 804 51 
Q 628 191 559 409 
Q 491 628 491 1028 
L 491 2306 
Q 491 2509 447 2587 
Q 403 2666 317 2708 
Q 231 2750 6 2747 
L 6 2863 
L 1009 2863 
L 1009 947 
Q 1009 547 1148 422 
Q 1288 297 1484 297 
Q 1619 297 1789 381 
Q 1959 466 2194 703 
L 2194 2325 
Q 2194 2569 2105 2655 
Q 2016 2741 1734 2747 
L 1734 2863 
L 2709 2863 
z
" transform="scale(0.015625)"/>
       <path id="TimesNewRomanPSMT-6d" d="M 1050 2338 
Q 1363 2650 1419 2697 
Q 1559 2816 1721 2881 
Q 1884 2947 2044 2947 
Q 2313 2947 2506 2790 
Q 2700 2634 2766 2338 
Q 3088 2713 3309 2830 
Q 3531 2947 3766 2947 
Q 3994 2947 4170 2830 
Q 4347 2713 4450 2447 
Q 4519 2266 4519 1878 
L 4519 647 
Q 4519 378 4559 278 
Q 4591 209 4675 161 
Q 4759 113 4950 113 
L 4950 0 
L 3538 0 
L 3538 113 
L 3597 113 
Q 3781 113 3884 184 
Q 3956 234 3988 344 
Q 4000 397 4000 647 
L 4000 1878 
Q 4000 2228 3916 2372 
Q 3794 2572 3525 2572 
Q 3359 2572 3192 2489 
Q 3025 2406 2788 2181 
L 2781 2147 
L 2788 2013 
L 2788 647 
Q 2788 353 2820 281 
Q 2853 209 2943 161 
Q 3034 113 3253 113 
L 3253 0 
L 1806 0 
L 1806 113 
Q 2044 113 2133 169 
Q 2222 225 2256 338 
Q 2272 391 2272 647 
L 2272 1878 
Q 2272 2228 2169 2381 
Q 2031 2581 1784 2581 
Q 1616 2581 1450 2491 
Q 1191 2353 1050 2181 
L 1050 647 
Q 1050 366 1089 281 
Q 1128 197 1204 155 
Q 1281 113 1516 113 
L 1516 0 
L 100 0 
L 100 113 
Q 297 113 375 155 
Q 453 197 493 289 
Q 534 381 534 647 
L 534 1741 
Q 534 2213 506 2350 
Q 484 2453 437 2492 
Q 391 2531 309 2531 
Q 222 2531 100 2484 
L 53 2597 
L 916 2947 
L 1050 2947 
L 1050 2338 
z
" transform="scale(0.015625)"/>
       <path id="TimesNewRomanPSMT-62" d="M 984 2369 
Q 1400 2947 1881 2947 
Q 2322 2947 2650 2570 
Q 2978 2194 2978 1541 
Q 2978 778 2472 313 
Q 2038 -88 1503 -88 
Q 1253 -88 995 3 
Q 738 94 469 275 
L 469 3241 
Q 469 3728 445 3840 
Q 422 3953 372 3993 
Q 322 4034 247 4034 
Q 159 4034 28 3984 
L -16 4094 
L 844 4444 
L 984 4444 
L 984 2369 
z
M 984 2169 
L 984 456 
Q 1144 300 1314 220 
Q 1484 141 1663 141 
Q 1947 141 2192 453 
Q 2438 766 2438 1363 
Q 2438 1913 2192 2208 
Q 1947 2503 1634 2503 
Q 1469 2503 1303 2419 
Q 1178 2356 984 2169 
z
" transform="scale(0.015625)"/>
       <path id="TimesNewRomanPSMT-65" d="M 681 1784 
Q 678 1147 991 784 
Q 1303 422 1725 422 
Q 2006 422 2214 576 
Q 2422 731 2563 1106 
L 2659 1044 
Q 2594 616 2278 264 
Q 1963 -88 1488 -88 
Q 972 -88 605 314 
Q 238 716 238 1394 
Q 238 2128 614 2539 
Q 991 2950 1559 2950 
Q 2041 2950 2350 2633 
Q 2659 2316 2659 1784 
L 681 1784 
z
M 681 1966 
L 2006 1966 
Q 1991 2241 1941 2353 
Q 1863 2528 1708 2628 
Q 1553 2728 1384 2728 
Q 1125 2728 920 2526 
Q 716 2325 681 1966 
z
" transform="scale(0.015625)"/>
       <path id="TimesNewRomanPSMT-72" d="M 1038 2947 
L 1038 2303 
Q 1397 2947 1775 2947 
Q 1947 2947 2059 2842 
Q 2172 2738 2172 2600 
Q 2172 2478 2090 2393 
Q 2009 2309 1897 2309 
Q 1788 2309 1652 2417 
Q 1516 2525 1450 2525 
Q 1394 2525 1328 2463 
Q 1188 2334 1038 2041 
L 1038 669 
Q 1038 431 1097 309 
Q 1138 225 1241 169 
Q 1344 113 1538 113 
L 1538 0 
L 72 0 
L 72 113 
Q 291 113 397 181 
Q 475 231 506 341 
Q 522 394 522 644 
L 522 1753 
Q 522 2253 501 2348 
Q 481 2444 426 2487 
Q 372 2531 291 2531 
Q 194 2531 72 2484 
L 41 2597 
L 906 2947 
L 1038 2947 
z
" transform="scale(0.015625)"/>
       <path id="TimesNewRomanPSMT-20" transform="scale(0.015625)"/>
       <path id="TimesNewRomanPSMT-6f" d="M 1600 2947 
Q 2250 2947 2644 2453 
Q 2978 2031 2978 1484 
Q 2978 1100 2793 706 
Q 2609 313 2286 112 
Q 1963 -88 1566 -88 
Q 919 -88 538 428 
Q 216 863 216 1403 
Q 216 1797 411 2186 
Q 606 2575 925 2761 
Q 1244 2947 1600 2947 
z
M 1503 2744 
Q 1338 2744 1170 2645 
Q 1003 2547 900 2300 
Q 797 2053 797 1666 
Q 797 1041 1045 587 
Q 1294 134 1700 134 
Q 2003 134 2200 384 
Q 2397 634 2397 1244 
Q 2397 2006 2069 2444 
Q 1847 2744 1503 2744 
z
" transform="scale(0.015625)"/>
       <path id="TimesNewRomanPSMT-66" d="M 1319 2638 
L 1319 756 
Q 1319 356 1406 250 
Q 1522 113 1716 113 
L 1975 113 
L 1975 0 
L 266 0 
L 266 113 
L 394 113 
Q 519 113 622 175 
Q 725 238 764 344 
Q 803 450 803 756 
L 803 2638 
L 247 2638 
L 247 2863 
L 803 2863 
L 803 3050 
Q 803 3478 940 3775 
Q 1078 4072 1361 4255 
Q 1644 4438 1997 4438 
Q 2325 4438 2600 4225 
Q 2781 4084 2781 3909 
Q 2781 3816 2700 3733 
Q 2619 3650 2525 3650 
Q 2453 3650 2373 3701 
Q 2294 3753 2178 3923 
Q 2063 4094 1966 4153 
Q 1869 4213 1750 4213 
Q 1606 4213 1506 4136 
Q 1406 4059 1362 3898 
Q 1319 3738 1319 3069 
L 1319 2863 
L 2056 2863 
L 2056 2638 
L 1319 2638 
z
" transform="scale(0.015625)"/>
       <path id="TimesNewRomanPSMT-69" d="M 928 4444 
Q 1059 4444 1151 4351 
Q 1244 4259 1244 4128 
Q 1244 3997 1151 3903 
Q 1059 3809 928 3809 
Q 797 3809 703 3903 
Q 609 3997 609 4128 
Q 609 4259 701 4351 
Q 794 4444 928 4444 
z
M 1188 2947 
L 1188 647 
Q 1188 378 1227 289 
Q 1266 200 1342 156 
Q 1419 113 1622 113 
L 1622 0 
L 231 0 
L 231 113 
Q 441 113 512 153 
Q 584 194 626 287 
Q 669 381 669 647 
L 669 1750 
Q 669 2216 641 2353 
Q 619 2453 572 2492 
Q 525 2531 444 2531 
Q 356 2531 231 2484 
L 188 2597 
L 1050 2947 
L 1188 2947 
z
" transform="scale(0.015625)"/>
       <path id="TimesNewRomanPSMT-74" d="M 1031 3803 
L 1031 2863 
L 1700 2863 
L 1700 2644 
L 1031 2644 
L 1031 788 
Q 1031 509 1111 412 
Q 1191 316 1316 316 
Q 1419 316 1516 380 
Q 1613 444 1666 569 
L 1788 569 
Q 1678 263 1478 108 
Q 1278 -47 1066 -47 
Q 922 -47 784 33 
Q 647 113 581 261 
Q 516 409 516 719 
L 516 2644 
L 63 2644 
L 63 2747 
Q 234 2816 414 2980 
Q 594 3144 734 3369 
Q 806 3488 934 3803 
L 1031 3803 
z
" transform="scale(0.015625)"/>
       <path id="TimesNewRomanPSMT-61" d="M 1822 413 
Q 1381 72 1269 19 
Q 1100 -59 909 -59 
Q 613 -59 420 144 
Q 228 347 228 678 
Q 228 888 322 1041 
Q 450 1253 767 1440 
Q 1084 1628 1822 1897 
L 1822 2009 
Q 1822 2438 1686 2597 
Q 1550 2756 1291 2756 
Q 1094 2756 978 2650 
Q 859 2544 859 2406 
L 866 2225 
Q 866 2081 792 2003 
Q 719 1925 600 1925 
Q 484 1925 411 2006 
Q 338 2088 338 2228 
Q 338 2497 613 2722 
Q 888 2947 1384 2947 
Q 1766 2947 2009 2819 
Q 2194 2722 2281 2516 
Q 2338 2381 2338 1966 
L 2338 994 
Q 2338 584 2353 492 
Q 2369 400 2405 369 
Q 2441 338 2488 338 
Q 2538 338 2575 359 
Q 2641 400 2828 588 
L 2828 413 
Q 2478 -56 2159 -56 
Q 2006 -56 1915 50 
Q 1825 156 1822 413 
z
M 1822 616 
L 1822 1706 
Q 1350 1519 1213 1441 
Q 966 1303 859 1153 
Q 753 1003 753 825 
Q 753 600 887 451 
Q 1022 303 1197 303 
Q 1434 303 1822 616 
z
" transform="scale(0.015625)"/>
       <path id="TimesNewRomanPSMT-6e" d="M 1034 2341 
Q 1538 2947 1994 2947 
Q 2228 2947 2397 2830 
Q 2566 2713 2666 2444 
Q 2734 2256 2734 1869 
L 2734 647 
Q 2734 375 2778 278 
Q 2813 200 2889 156 
Q 2966 113 3172 113 
L 3172 0 
L 1756 0 
L 1756 113 
L 1816 113 
Q 2016 113 2095 173 
Q 2175 234 2206 353 
Q 2219 400 2219 647 
L 2219 1819 
Q 2219 2209 2117 2386 
Q 2016 2563 1775 2563 
Q 1403 2563 1034 2156 
L 1034 647 
Q 1034 356 1069 288 
Q 1113 197 1189 155 
Q 1266 113 1500 113 
L 1500 0 
L 84 0 
L 84 113 
L 147 113 
Q 366 113 442 223 
Q 519 334 519 647 
L 519 1709 
Q 519 2225 495 2337 
Q 472 2450 423 2490 
Q 375 2531 294 2531 
Q 206 2531 84 2484 
L 38 2597 
L 900 2947 
L 1034 2947 
L 1034 2341 
z
" transform="scale(0.015625)"/>
       <path id="TimesNewRomanPSMT-73" d="M 2050 2947 
L 2050 1972 
L 1947 1972 
Q 1828 2431 1642 2597 
Q 1456 2763 1169 2763 
Q 950 2763 815 2647 
Q 681 2531 681 2391 
Q 681 2216 781 2091 
Q 878 1963 1175 1819 
L 1631 1597 
Q 2266 1288 2266 781 
Q 2266 391 1970 151 
Q 1675 -88 1309 -88 
Q 1047 -88 709 6 
Q 606 38 541 38 
Q 469 38 428 -44 
L 325 -44 
L 325 978 
L 428 978 
Q 516 541 762 319 
Q 1009 97 1316 97 
Q 1531 97 1667 223 
Q 1803 350 1803 528 
Q 1803 744 1651 891 
Q 1500 1038 1047 1263 
Q 594 1488 453 1669 
Q 313 1847 313 2119 
Q 313 2472 555 2709 
Q 797 2947 1181 2947 
Q 1350 2947 1591 2875 
Q 1750 2828 1803 2828 
Q 1853 2828 1881 2850 
Q 1909 2872 1947 2947 
L 2050 2947 
z
" transform="scale(0.015625)"/>
      </defs>
      <use xlink:href="#TimesNewRomanPSMT-4e"/>
      <use xlink:href="#TimesNewRomanPSMT-75" transform="translate(72.216797 0)"/>
      <use xlink:href="#TimesNewRomanPSMT-6d" transform="translate(122.216797 0)"/>
      <use xlink:href="#TimesNewRomanPSMT-62" transform="translate(200 0)"/>
      <use xlink:href="#TimesNewRomanPSMT-65" transform="translate(250 0)"/>
      <use xlink:href="#TimesNewRomanPSMT-72" transform="translate(294.384766 0)"/>
      <use xlink:href="#TimesNewRomanPSMT-20" transform="translate(327.685547 0)"/>
      <use xlink:href="#TimesNewRomanPSMT-6f" transform="translate(352.685547 0)"/>
      <use xlink:href="#TimesNewRomanPSMT-66" transform="translate(402.685547 0)"/>
      <use xlink:href="#TimesNewRomanPSMT-20" transform="translate(435.986328 0)"/>
      <use xlink:href="#TimesNewRomanPSMT-69" transform="translate(460.986328 0)"/>
      <use xlink:href="#TimesNewRomanPSMT-74" transform="translate(488.769531 0)"/>
      <use xlink:href="#TimesNewRomanPSMT-65" transform="translate(516.552734 0)"/>
      <use xlink:href="#TimesNewRomanPSMT-72" transform="translate(560.9375 0)"/>
      <use xlink:href="#TimesNewRomanPSMT-61" transform="translate(594.238281 0)"/>
      <use xlink:href="#TimesNewRomanPSMT-74" transform="translate(638.623047 0)"/>
      <use xlink:href="#TimesNewRomanPSMT-69" transform="translate(666.40625 0)"/>
      <use xlink:href="#TimesNewRomanPSMT-6f" transform="translate(694.189453 0)"/>
      <use xlink:href="#TimesNewRomanPSMT-6e" transform="translate(744.189453 0)"/>
      <use xlink:href="#TimesNewRomanPSMT-73" transform="translate(794.189453 0)"/>
     </g>
    </g>
   </g>
   <g id="matplotlib.axis_2">
    <g id="ytick_1">
     <g id="line2d_9">
      <path d="M 270.483187 311.6435 
L 627.603188 311.6435 
" clip-path="url(#paa1c85c5f2)" style="fill: none; stroke: #b0b0b0; stroke-opacity: 0.3; stroke-width: 0.8; stroke-linecap: square"/>
     </g>
     <g id="line2d_10">
      <defs>
       <path id="m4c8c199498" d="M 0 0 
L -3.5 0 
" style="stroke: #000000; stroke-width: 0.8"/>
      </defs>
      <g>
       <use xlink:href="#m4c8c199498" x="270.483187" y="311.6435" style="stroke: #000000; stroke-width: 0.8"/>
      </g>
     </g>
     <g id="text_6">
      <!-- 0.0 -->
      <g transform="translate(235.983187 319.281625) scale(0.22 -0.22)">
       <defs>
        <path id="TimesNewRomanPSMT-2e" d="M 800 606 
Q 947 606 1047 504 
Q 1147 403 1147 259 
Q 1147 116 1045 14 
Q 944 -88 800 -88 
Q 656 -88 554 14 
Q 453 116 453 259 
Q 453 406 554 506 
Q 656 606 800 606 
z
" transform="scale(0.015625)"/>
       </defs>
       <use xlink:href="#TimesNewRomanPSMT-30"/>
       <use xlink:href="#TimesNewRomanPSMT-2e" transform="translate(50 0)"/>
       <use xlink:href="#TimesNewRomanPSMT-30" transform="translate(75 0)"/>
      </g>
     </g>
    </g>
    <g id="ytick_2">
     <g id="line2d_11">
      <path d="M 270.483187 285.0323 
L 627.603188 285.0323 
" clip-path="url(#paa1c85c5f2)" style="fill: none; stroke: #b0b0b0; stroke-opacity: 0.3; stroke-width: 0.8; stroke-linecap: square"/>
     </g>
     <g id="line2d_12">
      <g>
       <use xlink:href="#m4c8c199498" x="270.483187" y="285.0323" style="stroke: #000000; stroke-width: 0.8"/>
      </g>
     </g>
     <g id="text_7">
      <!-- 0.1 -->
      <g transform="translate(235.983187 292.670425) scale(0.22 -0.22)">
       <use xlink:href="#TimesNewRomanPSMT-30"/>
       <use xlink:href="#TimesNewRomanPSMT-2e" transform="translate(50 0)"/>
       <use xlink:href="#TimesNewRomanPSMT-31" transform="translate(75 0)"/>
      </g>
     </g>
    </g>
    <g id="ytick_3">
     <g id="line2d_13">
      <path d="M 270.483187 258.4211 
L 627.603188 258.4211 
" clip-path="url(#paa1c85c5f2)" style="fill: none; stroke: #b0b0b0; stroke-opacity: 0.3; stroke-width: 0.8; stroke-linecap: square"/>
     </g>
     <g id="line2d_14">
      <g>
       <use xlink:href="#m4c8c199498" x="270.483187" y="258.4211" style="stroke: #000000; stroke-width: 0.8"/>
      </g>
     </g>
     <g id="text_8">
      <!-- 0.2 -->
      <g transform="translate(235.983187 266.059225) scale(0.22 -0.22)">
       <defs>
        <path id="TimesNewRomanPSMT-32" d="M 2934 816 
L 2638 0 
L 138 0 
L 138 116 
Q 1241 1122 1691 1759 
Q 2141 2397 2141 2925 
Q 2141 3328 1894 3587 
Q 1647 3847 1303 3847 
Q 991 3847 742 3664 
Q 494 3481 375 3128 
L 259 3128 
Q 338 3706 661 4015 
Q 984 4325 1469 4325 
Q 1984 4325 2329 3994 
Q 2675 3663 2675 3213 
Q 2675 2891 2525 2569 
Q 2294 2063 1775 1497 
Q 997 647 803 472 
L 1909 472 
Q 2247 472 2383 497 
Q 2519 522 2628 598 
Q 2738 675 2819 816 
L 2934 816 
z
" transform="scale(0.015625)"/>
       </defs>
       <use xlink:href="#TimesNewRomanPSMT-30"/>
       <use xlink:href="#TimesNewRomanPSMT-2e" transform="translate(50 0)"/>
       <use xlink:href="#TimesNewRomanPSMT-32" transform="translate(75 0)"/>
      </g>
     </g>
    </g>
    <g id="ytick_4">
     <g id="line2d_15">
      <path d="M 270.483187 231.8099 
L 627.603188 231.8099 
" clip-path="url(#paa1c85c5f2)" style="fill: none; stroke: #b0b0b0; stroke-opacity: 0.3; stroke-width: 0.8; stroke-linecap: square"/>
     </g>
     <g id="line2d_16">
      <g>
       <use xlink:href="#m4c8c199498" x="270.483187" y="231.8099" style="stroke: #000000; stroke-width: 0.8"/>
      </g>
     </g>
     <g id="text_9">
      <!-- 0.3 -->
      <g transform="translate(235.983187 239.448025) scale(0.22 -0.22)">
       <defs>
        <path id="TimesNewRomanPSMT-33" d="M 325 3431 
Q 506 3859 782 4092 
Q 1059 4325 1472 4325 
Q 1981 4325 2253 3994 
Q 2459 3747 2459 3466 
Q 2459 3003 1878 2509 
Q 2269 2356 2469 2072 
Q 2669 1788 2669 1403 
Q 2669 853 2319 450 
Q 1863 -75 997 -75 
Q 569 -75 414 31 
Q 259 138 259 259 
Q 259 350 332 419 
Q 406 488 509 488 
Q 588 488 669 463 
Q 722 447 909 348 
Q 1097 250 1169 231 
Q 1284 197 1416 197 
Q 1734 197 1970 444 
Q 2206 691 2206 1028 
Q 2206 1275 2097 1509 
Q 2016 1684 1919 1775 
Q 1784 1900 1550 2001 
Q 1316 2103 1072 2103 
L 972 2103 
L 972 2197 
Q 1219 2228 1467 2375 
Q 1716 2522 1828 2728 
Q 1941 2934 1941 3181 
Q 1941 3503 1739 3701 
Q 1538 3900 1238 3900 
Q 753 3900 428 3381 
L 325 3431 
z
" transform="scale(0.015625)"/>
       </defs>
       <use xlink:href="#TimesNewRomanPSMT-30"/>
       <use xlink:href="#TimesNewRomanPSMT-2e" transform="translate(50 0)"/>
       <use xlink:href="#TimesNewRomanPSMT-33" transform="translate(75 0)"/>
      </g>
     </g>
    </g>
    <g id="ytick_5">
     <g id="line2d_17">
      <path d="M 270.483187 205.1987 
L 627.603188 205.1987 
" clip-path="url(#paa1c85c5f2)" style="fill: none; stroke: #b0b0b0; stroke-opacity: 0.3; stroke-width: 0.8; stroke-linecap: square"/>
     </g>
     <g id="line2d_18">
      <g>
       <use xlink:href="#m4c8c199498" x="270.483187" y="205.1987" style="stroke: #000000; stroke-width: 0.8"/>
      </g>
     </g>
     <g id="text_10">
      <!-- 0.4 -->
      <g transform="translate(235.983187 212.836825) scale(0.22 -0.22)">
       <defs>
        <path id="TimesNewRomanPSMT-34" d="M 2978 1563 
L 2978 1119 
L 2409 1119 
L 2409 0 
L 1894 0 
L 1894 1119 
L 100 1119 
L 100 1519 
L 2066 4325 
L 2409 4325 
L 2409 1563 
L 2978 1563 
z
M 1894 1563 
L 1894 3666 
L 406 1563 
L 1894 1563 
z
" transform="scale(0.015625)"/>
       </defs>
       <use xlink:href="#TimesNewRomanPSMT-30"/>
       <use xlink:href="#TimesNewRomanPSMT-2e" transform="translate(50 0)"/>
       <use xlink:href="#TimesNewRomanPSMT-34" transform="translate(75 0)"/>
      </g>
     </g>
    </g>
    <g id="ytick_6">
     <g id="line2d_19">
      <path d="M 270.483187 178.5875 
L 627.603188 178.5875 
" clip-path="url(#paa1c85c5f2)" style="fill: none; stroke: #b0b0b0; stroke-opacity: 0.3; stroke-width: 0.8; stroke-linecap: square"/>
     </g>
     <g id="line2d_20">
      <g>
       <use xlink:href="#m4c8c199498" x="270.483187" y="178.5875" style="stroke: #000000; stroke-width: 0.8"/>
      </g>
     </g>
     <g id="text_11">
      <!-- 0.5 -->
      <g transform="translate(235.983187 186.225625) scale(0.22 -0.22)">
       <use xlink:href="#TimesNewRomanPSMT-30"/>
       <use xlink:href="#TimesNewRomanPSMT-2e" transform="translate(50 0)"/>
       <use xlink:href="#TimesNewRomanPSMT-35" transform="translate(75 0)"/>
      </g>
     </g>
    </g>
    <g id="ytick_7">
     <g id="line2d_21">
      <path d="M 270.483187 151.9763 
L 627.603188 151.9763 
" clip-path="url(#paa1c85c5f2)" style="fill: none; stroke: #b0b0b0; stroke-opacity: 0.3; stroke-width: 0.8; stroke-linecap: square"/>
     </g>
     <g id="line2d_22">
      <g>
       <use xlink:href="#m4c8c199498" x="270.483187" y="151.9763" style="stroke: #000000; stroke-width: 0.8"/>
      </g>
     </g>
     <g id="text_12">
      <!-- 0.6 -->
      <g transform="translate(235.983187 159.614425) scale(0.22 -0.22)">
       <defs>
        <path id="TimesNewRomanPSMT-36" d="M 2869 4325 
L 2869 4209 
Q 2456 4169 2195 4045 
Q 1934 3922 1679 3669 
Q 1425 3416 1258 3105 
Q 1091 2794 978 2366 
Q 1428 2675 1881 2675 
Q 2316 2675 2634 2325 
Q 2953 1975 2953 1425 
Q 2953 894 2631 456 
Q 2244 -75 1606 -75 
Q 1172 -75 869 213 
Q 275 772 275 1663 
Q 275 2231 503 2743 
Q 731 3256 1154 3653 
Q 1578 4050 1965 4187 
Q 2353 4325 2688 4325 
L 2869 4325 
z
M 925 2138 
Q 869 1716 869 1456 
Q 869 1156 980 804 
Q 1091 453 1309 247 
Q 1469 100 1697 100 
Q 1969 100 2183 356 
Q 2397 613 2397 1088 
Q 2397 1622 2184 2012 
Q 1972 2403 1581 2403 
Q 1463 2403 1327 2353 
Q 1191 2303 925 2138 
z
" transform="scale(0.015625)"/>
       </defs>
       <use xlink:href="#TimesNewRomanPSMT-30"/>
       <use xlink:href="#TimesNewRomanPSMT-2e" transform="translate(50 0)"/>
       <use xlink:href="#TimesNewRomanPSMT-36" transform="translate(75 0)"/>
      </g>
     </g>
    </g>
    <g id="ytick_8">
     <g id="line2d_23">
      <path d="M 270.483187 125.3651 
L 627.603188 125.3651 
" clip-path="url(#paa1c85c5f2)" style="fill: none; stroke: #b0b0b0; stroke-opacity: 0.3; stroke-width: 0.8; stroke-linecap: square"/>
     </g>
     <g id="line2d_24">
      <g>
       <use xlink:href="#m4c8c199498" x="270.483187" y="125.3651" style="stroke: #000000; stroke-width: 0.8"/>
      </g>
     </g>
     <g id="text_13">
      <!-- 0.7 -->
      <g transform="translate(235.983187 133.003225) scale(0.22 -0.22)">
       <defs>
        <path id="TimesNewRomanPSMT-37" d="M 644 4238 
L 2916 4238 
L 2916 4119 
L 1503 -88 
L 1153 -88 
L 2419 3728 
L 1253 3728 
Q 900 3728 750 3644 
Q 488 3500 328 3200 
L 238 3234 
L 644 4238 
z
" transform="scale(0.015625)"/>
       </defs>
       <use xlink:href="#TimesNewRomanPSMT-30"/>
       <use xlink:href="#TimesNewRomanPSMT-2e" transform="translate(50 0)"/>
       <use xlink:href="#TimesNewRomanPSMT-37" transform="translate(75 0)"/>
      </g>
     </g>
    </g>
    <g id="ytick_9">
     <g id="line2d_25">
      <path d="M 270.483187 98.7539 
L 627.603188 98.7539 
" clip-path="url(#paa1c85c5f2)" style="fill: none; stroke: #b0b0b0; stroke-opacity: 0.3; stroke-width: 0.8; stroke-linecap: square"/>
     </g>
     <g id="line2d_26">
      <g>
       <use xlink:href="#m4c8c199498" x="270.483187" y="98.7539" style="stroke: #000000; stroke-width: 0.8"/>
      </g>
     </g>
     <g id="text_14">
      <!-- 0.8 -->
      <g transform="translate(235.983187 106.392025) scale(0.22 -0.22)">
       <defs>
        <path id="TimesNewRomanPSMT-38" d="M 1228 2134 
Q 725 2547 579 2797 
Q 434 3047 434 3316 
Q 434 3728 753 4026 
Q 1072 4325 1600 4325 
Q 2113 4325 2425 4047 
Q 2738 3769 2738 3413 
Q 2738 3175 2569 2928 
Q 2400 2681 1866 2347 
Q 2416 1922 2594 1678 
Q 2831 1359 2831 1006 
Q 2831 559 2490 242 
Q 2150 -75 1597 -75 
Q 994 -75 656 303 
Q 388 606 388 966 
Q 388 1247 577 1523 
Q 766 1800 1228 2134 
z
M 1719 2469 
Q 2094 2806 2194 3001 
Q 2294 3197 2294 3444 
Q 2294 3772 2109 3958 
Q 1925 4144 1606 4144 
Q 1288 4144 1088 3959 
Q 888 3775 888 3528 
Q 888 3366 970 3203 
Q 1053 3041 1206 2894 
L 1719 2469 
z
M 1375 2016 
Q 1116 1797 991 1539 
Q 866 1281 866 981 
Q 866 578 1086 336 
Q 1306 94 1647 94 
Q 1984 94 2187 284 
Q 2391 475 2391 747 
Q 2391 972 2272 1150 
Q 2050 1481 1375 2016 
z
" transform="scale(0.015625)"/>
       </defs>
       <use xlink:href="#TimesNewRomanPSMT-30"/>
       <use xlink:href="#TimesNewRomanPSMT-2e" transform="translate(50 0)"/>
       <use xlink:href="#TimesNewRomanPSMT-38" transform="translate(75 0)"/>
      </g>
     </g>
    </g>
    <g id="ytick_10">
     <g id="line2d_27">
      <path d="M 270.483187 72.1427 
L 627.603188 72.1427 
" clip-path="url(#paa1c85c5f2)" style="fill: none; stroke: #b0b0b0; stroke-opacity: 0.3; stroke-width: 0.8; stroke-linecap: square"/>
     </g>
     <g id="line2d_28">
      <g>
       <use xlink:href="#m4c8c199498" x="270.483187" y="72.1427" style="stroke: #000000; stroke-width: 0.8"/>
      </g>
     </g>
     <g id="text_15">
      <!-- 0.9 -->
      <g transform="translate(235.983187 79.780825) scale(0.22 -0.22)">
       <defs>
        <path id="TimesNewRomanPSMT-39" d="M 338 -88 
L 338 28 
Q 744 34 1094 217 
Q 1444 400 1770 856 
Q 2097 1313 2225 1859 
Q 1734 1544 1338 1544 
Q 891 1544 572 1889 
Q 253 2234 253 2806 
Q 253 3363 572 3797 
Q 956 4325 1575 4325 
Q 2097 4325 2469 3894 
Q 2925 3359 2925 2575 
Q 2925 1869 2578 1258 
Q 2231 647 1613 244 
Q 1109 -88 516 -88 
L 338 -88 
z
M 2275 2091 
Q 2331 2497 2331 2741 
Q 2331 3044 2228 3395 
Q 2125 3747 1936 3934 
Q 1747 4122 1506 4122 
Q 1228 4122 1018 3872 
Q 809 3622 809 3128 
Q 809 2469 1088 2097 
Q 1291 1828 1588 1828 
Q 1731 1828 1928 1897 
Q 2125 1966 2275 2091 
z
" transform="scale(0.015625)"/>
       </defs>
       <use xlink:href="#TimesNewRomanPSMT-30"/>
       <use xlink:href="#TimesNewRomanPSMT-2e" transform="translate(50 0)"/>
       <use xlink:href="#TimesNewRomanPSMT-39" transform="translate(75 0)"/>
      </g>
     </g>
    </g>
    <g id="ytick_11">
     <g id="line2d_29">
      <path d="M 270.483187 45.5315 
L 627.603188 45.5315 
" clip-path="url(#paa1c85c5f2)" style="fill: none; stroke: #b0b0b0; stroke-opacity: 0.3; stroke-width: 0.8; stroke-linecap: square"/>
     </g>
     <g id="line2d_30">
      <g>
       <use xlink:href="#m4c8c199498" x="270.483187" y="45.5315" style="stroke: #000000; stroke-width: 0.8"/>
      </g>
     </g>
     <g id="text_16">
      <!-- 1.0 -->
      <g transform="translate(235.983187 53.169625) scale(0.22 -0.22)">
       <use xlink:href="#TimesNewRomanPSMT-31"/>
       <use xlink:href="#TimesNewRomanPSMT-2e" transform="translate(50 0)"/>
       <use xlink:href="#TimesNewRomanPSMT-30" transform="translate(75 0)"/>
      </g>
     </g>
    </g>
    <g id="text_17">
     <!-- Accuracy -->
     <g transform="translate(227.236 220.726094) rotate(-90) scale(0.22 -0.22)">
      <defs>
       <path id="TimesNewRomanPSMT-41" d="M 2928 1419 
L 1288 1419 
L 1000 750 
Q 894 503 894 381 
Q 894 284 986 211 
Q 1078 138 1384 116 
L 1384 0 
L 50 0 
L 50 116 
Q 316 163 394 238 
Q 553 388 747 847 
L 2238 4334 
L 2347 4334 
L 3822 809 
Q 4000 384 4145 257 
Q 4291 131 4550 116 
L 4550 0 
L 2878 0 
L 2878 116 
Q 3131 128 3220 200 
Q 3309 272 3309 375 
Q 3309 513 3184 809 
L 2928 1419 
z
M 2841 1650 
L 2122 3363 
L 1384 1650 
L 2841 1650 
z
" transform="scale(0.015625)"/>
       <path id="TimesNewRomanPSMT-63" d="M 2631 1088 
Q 2516 522 2178 217 
Q 1841 -88 1431 -88 
Q 944 -88 581 321 
Q 219 731 219 1428 
Q 219 2103 620 2525 
Q 1022 2947 1584 2947 
Q 2006 2947 2278 2723 
Q 2550 2500 2550 2259 
Q 2550 2141 2473 2067 
Q 2397 1994 2259 1994 
Q 2075 1994 1981 2113 
Q 1928 2178 1911 2362 
Q 1894 2547 1784 2644 
Q 1675 2738 1481 2738 
Q 1169 2738 978 2506 
Q 725 2200 725 1697 
Q 725 1184 976 792 
Q 1228 400 1656 400 
Q 1963 400 2206 609 
Q 2378 753 2541 1131 
L 2631 1088 
z
" transform="scale(0.015625)"/>
       <path id="TimesNewRomanPSMT-79" d="M 38 2863 
L 1372 2863 
L 1372 2747 
L 1306 2747 
Q 1166 2747 1095 2686 
Q 1025 2625 1025 2534 
Q 1025 2413 1128 2197 
L 1825 753 
L 2466 2334 
Q 2519 2463 2519 2588 
Q 2519 2644 2497 2672 
Q 2472 2706 2419 2726 
Q 2366 2747 2231 2747 
L 2231 2863 
L 3163 2863 
L 3163 2747 
Q 3047 2734 2984 2696 
Q 2922 2659 2847 2556 
Q 2819 2513 2741 2316 
L 1575 -541 
Q 1406 -956 1132 -1168 
Q 859 -1381 606 -1381 
Q 422 -1381 303 -1275 
Q 184 -1169 184 -1031 
Q 184 -900 270 -820 
Q 356 -741 506 -741 
Q 609 -741 788 -809 
Q 913 -856 944 -856 
Q 1038 -856 1148 -759 
Q 1259 -663 1372 -384 
L 1575 113 
L 547 2272 
Q 500 2369 397 2513 
Q 319 2622 269 2659 
Q 197 2709 38 2747 
L 38 2863 
z
" transform="scale(0.015625)"/>
      </defs>
      <use xlink:href="#TimesNewRomanPSMT-41"/>
      <use xlink:href="#TimesNewRomanPSMT-63" transform="translate(72.216797 0)"/>
      <use xlink:href="#TimesNewRomanPSMT-63" transform="translate(116.601562 0)"/>
      <use xlink:href="#TimesNewRomanPSMT-75" transform="translate(160.986328 0)"/>
      <use xlink:href="#TimesNewRomanPSMT-72" transform="translate(210.986328 0)"/>
      <use xlink:href="#TimesNewRomanPSMT-61" transform="translate(244.287109 0)"/>
      <use xlink:href="#TimesNewRomanPSMT-63" transform="translate(288.671875 0)"/>
      <use xlink:href="#TimesNewRomanPSMT-79" transform="translate(333.056641 0)"/>
     </g>
    </g>
   </g>
   <g id="line2d_31">
    <path d="M 270.483187 178.5875 
L 270.664559 178.5875 
L 271.027301 177.656112 
L 271.208673 174.462762 
L 271.390044 178.5875 
L 271.571415 178.055283 
L 271.752786 178.5875 
L 279.914493 178.5875 
L 280.277235 178.720554 
L 280.458606 178.720554 
L 280.639978 179.785004 
L 280.821349 179.252779 
L 281.00272 178.321391 
L 281.184092 178.853609 
L 281.365463 178.720554 
L 281.728205 176.85777 
L 282.090948 175.261103 
L 282.45369 173.132203 
L 282.635062 172.466923 
L 282.997804 170.338023 
L 283.179175 167.277735 
L 283.360547 166.612456 
L 283.541918 167.144689 
L 284.086032 154.770473 
L 284.267403 155.435753 
L 284.448774 155.036582 
L 284.630145 153.972148 
L 284.811517 150.778797 
L 284.992888 152.907697 
L 285.174259 147.585447 
L 285.35563 146.254888 
L 285.537002 148.51685 
L 285.718373 148.383788 
L 285.899744 145.190438 
L 286.262487 145.855717 
L 286.443858 142.263212 
L 286.8066 141.065715 
L 286.987972 141.198762 
L 287.169343 140.533482 
L 287.350714 140.533482 
L 287.713457 140.400436 
L 287.894828 138.404582 
L 288.076199 138.670706 
L 288.25757 139.202923 
L 288.438942 138.803753 
L 288.620313 138.936815 
L 288.801684 139.469032 
L 288.983055 139.202923 
L 289.164427 139.202923 
L 289.345798 139.735141 
L 289.527169 139.202923 
L 290.252654 139.602094 
L 290.615397 139.202923 
L 290.978139 139.602094 
L 291.522253 138.670706 
L 291.703624 138.271536 
L 291.884996 139.335986 
L 292.066367 138.670706 
L 292.247738 139.335986 
L 292.429109 139.069861 
L 292.610481 139.335986 
L 292.791852 138.670706 
L 292.973223 138.670706 
L 293.154594 137.473194 
L 293.517337 139.469032 
L 293.698708 138.271536 
L 293.880079 138.803753 
L 294.242822 137.074023 
L 294.424193 138.404582 
L 294.605564 136.807915 
L 294.786936 138.138473 
L 294.968307 137.606256 
L 295.149678 137.872365 
L 295.331049 137.207085 
L 295.512421 137.606256 
L 295.693792 137.340148 
L 295.875163 137.872365 
L 296.237906 137.872365 
L 296.419277 137.739303 
L 296.600648 137.074023 
L 296.782019 138.404582 
L 296.963391 136.807915 
L 297.144762 138.138473 
L 297.326133 137.606256 
L 297.507504 136.408744 
L 297.688876 136.674852 
L 297.870247 138.138473 
L 298.051618 137.473194 
L 298.232989 138.005427 
L 298.414361 136.142635 
L 298.595732 137.473194 
L 298.777103 137.207085 
L 298.958474 137.872365 
L 299.139846 137.473194 
L 299.321217 135.610418 
L 299.502588 136.940977 
L 299.683959 137.207085 
L 299.865331 137.207085 
L 300.046702 136.541806 
L 300.228073 136.674852 
L 300.590816 136.142635 
L 300.772187 135.876527 
L 300.953558 136.408744 
L 301.13493 135.610418 
L 301.316301 135.876527 
L 301.497672 135.876527 
L 301.679043 135.344294 
L 301.860415 135.610418 
L 302.041786 134.812077 
L 302.223157 134.945139 
L 302.404528 134.545968 
L 302.5859 134.679014 
L 302.767271 134.412906 
L 302.948642 135.211247 
L 303.130013 133.880689 
L 303.311385 134.679014 
L 303.492756 134.679014 
L 303.855498 131.48568 
L 304.218241 130.155121 
L 304.399612 130.8204 
L 304.762355 127.893158 
L 304.943726 127.893158 
L 305.125097 129.223717 
L 305.306468 129.356779 
L 305.48784 124.699824 
L 305.669211 126.296491 
L 305.850582 123.635374 
L 306.031953 123.502311 
L 306.213325 122.437861 
L 306.394696 125.89732 
L 306.576067 126.030383 
L 306.757438 121.905644 
L 306.93881 124.699824 
L 307.120181 129.489842 
L 307.301552 124.300653 
L 307.482923 128.957609 
L 307.664295 126.695662 
L 307.845666 117.115626 
L 308.027037 116.317285 
L 308.38978 126.828708 
L 308.571151 116.583409 
L 308.933893 123.768436 
L 309.115265 119.776744 
L 309.296636 125.365103 
L 309.478007 118.180077 
L 309.659378 121.107303 
L 309.84075 118.978418 
L 310.022121 119.510635 
L 310.203492 128.026221 
L 310.384863 119.111464 
L 310.566235 120.974256 
L 310.747606 121.240365 
L 310.928977 129.090671 
L 311.110348 114.720617 
L 311.29172 117.647859 
L 311.473091 126.030383 
L 311.654462 123.768436 
L 311.835834 113.922292 
L 312.017205 117.248689 
L 312.198576 118.313139 
L 312.379947 117.381735 
L 312.561319 114.321447 
L 312.74269 122.038706 
L 312.924061 120.708148 
L 313.105432 115.652005 
L 313.286804 117.115626 
L 313.468175 114.321447 
L 313.649546 113.922292 
L 313.830917 115.25285 
L 314.012289 123.768436 
L 314.19366 116.051176 
L 314.556402 112.990888 
L 314.737774 121.240365 
L 314.919145 113.656167 
L 315.100516 122.038706 
L 315.281887 116.849518 
L 315.463259 123.635374 
L 315.64463 120.974256 
L 315.826001 115.119788 
L 316.007372 124.167591 
L 316.188744 112.990888 
L 316.370115 112.591717 
L 316.551486 117.248689 
L 316.732857 118.712294 
L 316.914229 112.591717 
L 317.0956 119.510635 
L 317.458342 112.724779 
L 317.639714 122.570923 
L 318.002456 112.325609 
L 318.365199 122.038706 
L 318.54657 115.91813 
L 318.727941 117.780906 
L 318.909312 116.716456 
L 319.090684 121.240365 
L 319.272055 114.454509 
L 319.453426 113.256997 
L 319.634797 127.094833 
L 319.816169 114.85368 
L 319.99754 112.0595 
L 320.178911 118.712294 
L 320.360282 112.591717 
L 320.541654 118.047014 
L 320.723025 117.381735 
L 320.904396 112.990888 
L 321.085767 113.256997 
L 321.267139 112.990888 
L 321.44851 118.845356 
L 321.811253 112.591717 
L 321.992624 112.724779 
L 322.173995 113.256997 
L 322.355366 119.111464 
L 322.718109 111.926438 
L 322.89948 116.849518 
L 323.080851 111.793391 
L 323.443594 114.321447 
L 323.624965 112.0595 
L 323.806336 121.107303 
L 323.987708 118.180077 
L 324.169079 112.0595 
L 324.35045 116.849518 
L 324.531821 116.184238 
L 324.713193 111.394221 
L 324.894564 111.527283 
L 325.075935 119.643697 
L 325.438678 120.708148 
L 325.620049 120.175915 
L 325.80142 120.575085 
L 325.982791 115.652005 
L 326.164163 118.978418 
L 326.345534 111.394221 
L 326.526905 126.828708 
L 326.889648 112.591717 
L 327.071019 115.385897 
L 327.25239 110.728941 
L 327.433761 111.660329 
L 327.615133 118.446185 
L 327.796504 116.184238 
L 327.977875 110.99505 
L 328.159246 124.965932 
L 328.521989 114.587571 
L 328.70336 111.926438 
L 328.884731 114.1884 
L 329.066103 119.643697 
L 329.247474 115.91813 
L 329.428845 119.111464 
L 329.610216 114.587571 
L 329.791588 114.1884 
L 329.972959 118.446185 
L 330.335701 114.85368 
L 330.517073 118.446185 
L 330.698444 118.313139 
L 330.879815 119.244527 
L 331.061186 115.518959 
L 331.242558 114.720617 
L 331.423929 116.982564 
L 331.6053 117.514797 
L 331.786672 116.982564 
L 331.968043 113.390059 
L 332.149414 115.119788 
L 332.330785 119.510635 
L 332.512157 113.12395 
L 332.693528 118.313139 
L 332.874899 115.119788 
L 333.05627 115.119788 
L 333.237642 114.587571 
L 333.419013 110.728941 
L 333.600384 110.728941 
L 333.781755 115.652005 
L 333.963127 110.728941 
L 334.144498 110.462833 
L 334.325869 110.728941 
L 334.50724 122.970094 
L 334.688612 112.857842 
L 334.869983 113.390059 
L 335.414097 123.635374 
L 335.595468 115.385897 
L 335.776839 115.91813 
L 335.95821 117.248689 
L 336.139582 125.232041 
L 336.320953 115.91813 
L 336.502324 115.91813 
L 336.683695 110.862003 
L 337.046438 115.518959 
L 337.227809 117.248689 
L 337.40918 116.051176 
L 337.771923 111.793391 
L 337.953294 117.381735 
L 338.134665 109.797553 
L 338.497408 120.974256 
L 338.678779 118.047014 
L 338.86015 112.591717 
L 339.041522 116.583409 
L 339.222893 114.986726 
L 339.404264 115.25285 
L 339.585635 116.317285 
L 339.767007 116.184238 
L 339.948378 117.780906 
L 340.129749 122.171753 
L 340.31112 118.180077 
L 340.492492 118.047014 
L 340.673863 111.793391 
L 340.855234 113.390059 
L 341.036605 110.862003 
L 341.217977 112.0595 
L 341.399348 119.377573 
L 341.580719 117.514797 
L 341.76209 124.300653 
L 341.943462 115.785068 
L 342.124833 114.1884 
L 342.306204 118.313139 
L 342.487576 116.317285 
L 342.668947 117.115626 
L 343.031689 116.184238 
L 343.213061 110.862003 
L 343.394432 110.862003 
L 343.575803 113.78923 
L 343.757174 111.793391 
L 343.938546 111.128112 
L 344.119917 116.849518 
L 344.482659 113.256997 
L 344.845402 118.180077 
L 345.026773 115.518959 
L 345.208144 110.728941 
L 345.570887 117.115626 
L 345.752258 118.047014 
L 345.933629 115.385897 
L 346.115001 117.115626 
L 346.296372 116.051176 
L 346.477743 119.111464 
L 346.659114 111.527283 
L 346.840486 119.776744 
L 347.021857 115.652005 
L 347.203228 116.317285 
L 347.384599 120.575085 
L 347.565971 111.261158 
L 347.747342 111.660329 
L 347.928713 111.527283 
L 348.110084 122.437861 
L 348.291456 112.458671 
L 348.472827 114.986726 
L 348.654198 112.0595 
L 348.835569 118.579247 
L 349.016941 119.643697 
L 349.198312 111.660329 
L 349.379683 109.664491 
L 349.561054 109.9306 
L 349.742426 111.128112 
L 350.105168 110.595879 
L 350.286539 110.862003 
L 350.467911 112.0595 
L 350.649282 123.502311 
L 351.012024 113.656167 
L 351.193396 123.635374 
L 351.374767 115.25285 
L 351.556138 116.184238 
L 351.737509 120.308977 
L 351.918881 110.862003 
L 352.100252 112.0595 
L 352.281623 109.797553 
L 352.462995 112.458671 
L 352.644366 111.793391 
L 352.825737 110.462833 
L 353.007108 110.728941 
L 353.18848 114.1884 
L 353.369851 120.175915 
L 353.551222 113.12395 
L 353.732593 119.909806 
L 353.913965 114.85368 
L 354.095336 120.175915 
L 354.276707 110.595879 
L 354.458078 110.99505 
L 354.63945 110.462833 
L 355.002192 111.128112 
L 355.183563 110.728941 
L 355.364935 111.394221 
L 355.546306 117.913968 
L 355.727677 112.857842 
L 355.909048 122.570923 
L 356.09042 113.922292 
L 356.271791 113.256997 
L 356.453162 117.248689 
L 356.634533 117.115626 
L 356.815905 112.325609 
L 356.997276 114.587571 
L 357.178647 111.793391 
L 357.360018 117.381735 
L 357.54139 115.518959 
L 357.722761 111.926438 
L 357.904132 116.849518 
L 358.085503 116.450347 
L 358.266875 122.171753 
L 358.629617 110.462833 
L 358.810988 110.063662 
L 359.173731 110.862003 
L 359.355102 110.462833 
L 359.536473 113.78923 
L 359.717845 110.32977 
L 359.899216 110.99505 
L 360.080587 110.196708 
L 360.261958 110.196708 
L 360.44333 109.797553 
L 360.624701 110.595879 
L 360.806072 110.862003 
L 360.987443 110.063662 
L 361.168815 110.99505 
L 361.350186 110.99505 
L 361.712928 109.797553 
L 361.8943 110.063662 
L 362.075671 110.595879 
L 362.257042 110.063662 
L 362.438414 110.595879 
L 362.801156 110.728941 
L 363.163899 110.595879 
L 363.34527 110.063662 
L 363.526641 110.32977 
L 363.708012 110.862003 
L 363.889384 110.462833 
L 364.070755 110.99505 
L 364.252126 109.531429 
L 364.433497 111.128112 
L 364.614869 118.180077 
L 364.79624 117.115626 
L 364.977611 114.587571 
L 365.158982 121.639536 
L 365.340354 115.119788 
L 365.521725 115.25285 
L 365.703096 114.986726 
L 365.884467 109.797553 
L 366.065839 113.12395 
L 366.24721 110.196708 
L 366.609952 110.196708 
L 366.972695 110.32977 
L 367.154066 110.99505 
L 367.335437 110.462833 
L 367.69818 110.462833 
L 367.879551 109.9306 
L 368.242294 109.9306 
L 368.423665 110.99505 
L 368.786407 109.26532 
L 368.967779 111.793391 
L 369.14915 121.905644 
L 369.330521 114.321447 
L 369.511892 116.184238 
L 369.693264 114.454509 
L 370.056006 119.111464 
L 370.60012 110.462833 
L 370.781491 109.531429 
L 370.962862 109.398383 
L 371.506976 111.128112 
L 371.688347 109.9306 
L 371.869719 110.99505 
L 372.05109 110.196708 
L 372.232461 111.660329 
L 372.413832 109.398383 
L 372.595204 109.664491 
L 372.776575 110.196708 
L 372.957946 110.32977 
L 373.139318 110.862003 
L 373.50206 109.531429 
L 373.683431 109.797553 
L 373.864803 110.595879 
L 374.046174 109.531429 
L 374.227545 110.462833 
L 374.408916 109.797553 
L 374.95303 109.797553 
L 375.134401 109.531429 
L 375.315773 110.462833 
L 375.497144 109.9306 
L 375.678515 110.462833 
L 375.859886 110.196708 
L 376.041258 109.664491 
L 376.404 110.32977 
L 376.766743 119.377573 
L 376.948114 109.664491 
L 377.129485 110.462833 
L 377.310856 110.063662 
L 377.492228 109.26532 
L 377.673599 109.9306 
L 378.036341 119.510635 
L 378.217713 116.849518 
L 378.399084 118.712294 
L 378.580455 118.845356 
L 378.761826 116.583409 
L 378.943198 119.909806 
L 379.124569 112.591717 
L 379.30594 110.32977 
L 379.487311 111.527283 
L 379.668683 131.618726 
L 379.850054 117.248689 
L 380.031425 119.909806 
L 380.212796 116.982564 
L 380.394168 117.514797 
L 380.575539 120.175915 
L 380.75691 110.728941 
L 380.938281 123.236203 
L 381.119653 110.32977 
L 381.301024 111.527283 
L 381.482395 109.9306 
L 381.663766 109.398383 
L 381.845138 109.398383 
L 382.026509 130.022059 
L 382.20788 112.857842 
L 382.389251 115.119788 
L 382.570623 121.240365 
L 382.751994 119.111464 
L 382.933365 114.720617 
L 383.114737 119.776744 
L 383.296108 116.716456 
L 383.477479 116.184238 
L 383.840222 108.86615 
L 384.021593 110.99505 
L 384.202964 109.531429 
L 384.384335 109.9306 
L 384.565707 109.398383 
L 384.747078 109.797553 
L 384.928449 109.664491 
L 385.10982 110.595879 
L 385.472563 115.518959 
L 385.653934 122.304815 
L 386.016677 114.321447 
L 386.198048 109.664491 
L 386.379419 109.26532 
L 386.56079 109.664491 
L 386.742162 109.664491 
L 386.923533 117.647859 
L 387.104904 110.196708 
L 387.286275 115.91813 
L 387.467647 118.047014 
L 387.649018 116.184238 
L 387.830389 110.32977 
L 388.193132 108.999212 
L 388.374503 110.063662 
L 388.555874 109.531429 
L 388.737245 110.728941 
L 388.918617 110.063662 
L 389.099988 110.063662 
L 389.281359 126.5626 
L 389.644102 110.196708 
L 389.825473 113.12395 
L 390.006844 127.760112 
L 390.369587 115.385897 
L 390.550958 115.652005 
L 390.732329 114.321447 
L 390.9137 119.643697 
L 391.095072 111.660329 
L 391.276443 115.25285 
L 391.457814 121.373427 
L 391.639185 109.132274 
L 391.820557 109.132274 
L 392.001928 109.26532 
L 392.183299 122.970094 
L 392.546042 111.660329 
L 392.908784 108.600041 
L 393.090156 108.733103 
L 393.452898 109.664491 
L 393.815641 120.974256 
L 394.178383 129.223717 
L 394.359754 116.982564 
L 394.541126 112.990888 
L 394.722497 111.527283 
L 394.903868 116.450347 
L 395.085239 125.098995 
L 395.266611 117.913968 
L 395.629353 113.390059 
L 395.810724 116.982564 
L 395.992096 124.433715 
L 396.173467 117.514797 
L 396.354838 116.982564 
L 396.536209 123.635374 
L 396.717581 118.446185 
L 396.898952 117.514797 
L 397.080323 118.446185 
L 397.261694 116.849518 
L 397.443066 126.5626 
L 397.624437 109.797553 
L 397.805808 108.999212 
L 397.987179 110.063662 
L 398.168551 108.999212 
L 398.349922 108.999212 
L 398.712664 108.733103 
L 398.894036 127.227879 
L 399.075407 116.849518 
L 399.256778 118.047014 
L 399.438149 114.321447 
L 399.619521 119.776744 
L 399.800892 121.639536 
L 399.982263 119.776744 
L 400.163634 119.909806 
L 400.345006 125.49815 
L 400.526377 111.793391 
L 400.707748 109.531429 
L 400.889119 114.720617 
L 401.070491 114.986726 
L 401.251862 120.442023 
L 401.614604 109.664491 
L 401.795976 108.733103 
L 401.977347 109.398383 
L 402.340089 108.86615 
L 402.702832 109.26532 
L 402.884203 109.132274 
L 403.065574 128.026221 
L 403.428317 110.462833 
L 403.609688 121.373427 
L 403.79106 125.098995 
L 404.153802 115.25285 
L 404.335173 122.171753 
L 404.516545 115.119788 
L 404.697916 118.180077 
L 404.879287 125.365103 
L 405.060658 115.119788 
L 405.24203 113.523121 
L 405.423401 107.934762 
L 405.604772 108.067824 
L 405.786143 109.531429 
L 405.967515 108.600041 
L 406.148886 109.531429 
L 406.330257 108.733103 
L 406.693 109.531429 
L 407.055742 108.067824 
L 407.237113 116.982564 
L 407.418485 113.256997 
L 407.599856 125.631212 
L 407.781227 119.643697 
L 407.962598 118.180077 
L 408.14397 122.437861 
L 408.325341 118.047014 
L 408.506712 119.111464 
L 408.688083 116.716456 
L 408.869455 127.360941 
L 409.050826 115.785068 
L 409.232197 120.175915 
L 409.413568 114.587571 
L 409.59494 119.244527 
L 409.776311 117.780906 
L 409.957682 124.034544 
L 410.320425 108.86615 
L 410.501796 109.664491 
L 410.683167 108.20087 
L 411.04591 109.132274 
L 411.227281 108.20087 
L 411.408652 109.26532 
L 411.590023 108.333932 
L 411.952766 108.466995 
L 412.134137 108.20087 
L 412.315508 108.466995 
L 412.49688 112.591717 
L 412.678251 107.801715 
L 412.859622 109.26532 
L 413.040993 109.398383 
L 413.585107 126.5626 
L 413.766479 118.180077 
L 413.94785 121.772582 
L 414.129221 120.175915 
L 414.310592 119.909806 
L 414.491964 118.047014 
L 414.673335 118.446185 
L 414.854706 114.055338 
L 415.036077 121.905644 
L 415.217449 117.514797 
L 415.39882 117.248689 
L 415.580191 114.85368 
L 415.761562 119.776744 
L 415.942934 112.857842 
L 416.305676 129.223717 
L 416.84979 112.990888 
L 417.031161 107.934762 
L 417.212532 108.333932 
L 417.393904 109.132274 
L 417.575275 108.86615 
L 417.756646 108.999212 
L 417.938017 107.934762 
L 418.119389 109.26532 
L 418.30076 108.86615 
L 418.482131 109.398383 
L 418.663502 108.333932 
L 418.844874 108.600041 
L 419.026245 108.333932 
L 419.207616 111.261158 
L 419.388987 108.333932 
L 419.570359 108.466995 
L 419.933101 108.333932 
L 420.114472 109.26532 
L 420.295844 108.733103 
L 420.477215 108.733103 
L 420.658586 108.600041 
L 420.839957 109.664491 
L 421.021329 108.20087 
L 421.2027 108.067824 
L 421.565442 108.20087 
L 421.746814 108.20087 
L 421.928185 108.466995 
L 422.109556 112.857842 
L 422.290927 128.425391 
L 422.472299 127.893158 
L 422.65367 128.026221 
L 422.835041 121.373427 
L 423.016412 125.764274 
L 423.379155 110.32977 
L 423.560526 108.20087 
L 423.741898 108.999212 
L 424.10464 108.067824 
L 424.286011 108.86615 
L 424.467383 108.333932 
L 424.648754 108.999212 
L 424.830125 128.957609 
L 425.192868 108.333932 
L 425.374239 108.333932 
L 425.736981 115.119788 
L 425.918353 113.523121 
L 426.099724 108.20087 
L 426.281095 108.466995 
L 426.462466 108.20087 
L 426.643838 108.999212 
L 426.825209 107.801715 
L 427.00658 108.20087 
L 427.187951 108.20087 
L 427.369323 108.600041 
L 427.550694 108.20087 
L 427.732065 109.132274 
L 427.913436 108.333932 
L 428.094808 108.067824 
L 428.276179 108.600041 
L 428.45755 108.733103 
L 428.638921 108.333932 
L 428.820293 108.333932 
L 429.001664 120.974256 
L 429.183035 114.720617 
L 429.364406 127.360941 
L 429.545778 119.111464 
L 429.727149 126.296491 
L 429.90852 126.030383 
L 430.089891 115.785068 
L 430.271263 127.227879 
L 430.452634 117.248689 
L 430.634005 117.115626 
L 430.815376 116.716456 
L 430.996748 116.716456 
L 431.178119 125.365103 
L 431.35949 124.699824 
L 431.540861 108.067824 
L 431.722233 113.12395 
L 431.903604 132.284005 
L 432.084975 116.051176 
L 432.266346 127.760112 
L 432.447718 127.62705 
L 432.629089 125.098995 
L 432.81046 110.99505 
L 432.991831 125.098995 
L 433.354574 111.926438 
L 433.717316 127.893158 
L 433.898688 108.333932 
L 434.080059 111.527283 
L 434.26143 108.067824 
L 434.442802 108.600041 
L 434.624173 108.466995 
L 434.805544 110.462833 
L 434.986915 108.067824 
L 435.168287 108.600041 
L 435.349658 108.067824 
L 435.531029 108.733103 
L 435.7124 108.466995 
L 435.893772 117.248689 
L 436.075143 116.051176 
L 436.256514 108.999212 
L 436.619257 107.934762 
L 436.800628 112.857842 
L 436.981999 126.163429 
L 437.344742 122.970094 
L 437.526113 107.136436 
L 437.707484 108.20087 
L 438.070227 107.668653 
L 438.251598 108.466995 
L 438.432969 108.600041 
L 438.61434 111.261158 
L 438.795712 107.801715 
L 438.977083 108.600041 
L 439.158454 108.333932 
L 439.521197 107.402544 
L 439.702568 108.333932 
L 439.883939 108.20087 
L 440.06531 107.136436 
L 440.428053 110.063662 
L 440.609424 126.828708 
L 440.790795 120.841194 
L 440.972167 119.510635 
L 441.153538 114.454509 
L 441.334909 128.425391 
L 441.51628 123.236203 
L 441.697652 125.764274 
L 441.879023 126.030383 
L 442.060394 117.381735 
L 442.241765 118.446185 
L 442.423137 130.288167 
L 442.785879 109.26532 
L 442.96725 123.635374 
L 443.148622 111.261158 
L 443.329993 110.462833 
L 443.511364 108.999212 
L 443.692735 108.600041 
L 443.874107 128.292329 
L 444.418221 107.668653 
L 444.599592 107.668653 
L 444.780963 108.20087 
L 444.962334 110.99505 
L 445.325077 107.801715 
L 445.687819 129.090671 
L 446.050562 112.591717 
L 446.231933 114.587571 
L 446.413304 112.857842 
L 446.594676 124.83287 
L 446.776047 125.631212 
L 446.957418 125.365103 
L 447.138789 128.026221 
L 447.320161 124.300653 
L 447.682903 108.733103 
L 447.864274 108.600041 
L 448.045646 108.20087 
L 448.227017 108.86615 
L 448.408388 107.402544 
L 448.589759 109.26532 
L 448.771131 127.62705 
L 449.133873 121.373427 
L 449.496616 126.5626 
L 449.677987 119.377573 
L 449.859358 116.849518 
L 450.040729 129.223717 
L 450.222101 126.828708 
L 450.403472 116.051176 
L 450.584843 128.159283 
L 450.766214 116.982564 
L 451.128957 131.219571 
L 451.491699 118.712294 
L 451.673071 122.570923 
L 451.854442 108.333932 
L 452.035813 108.333932 
L 452.761298 107.801715 
L 452.942669 107.934762 
L 453.124041 111.926438 
L 453.305412 107.801715 
L 453.486783 108.20087 
L 453.668154 110.595879 
L 453.849526 115.785068 
L 454.030897 115.385897 
L 454.212268 125.098995 
L 454.39364 111.527283 
L 454.575011 118.446185 
L 454.756382 115.385897 
L 454.937753 130.155121 
L 455.119125 129.489842 
L 455.300496 116.583409 
L 455.481867 127.893158 
L 455.663238 114.720617 
L 456.207352 107.535591 
L 456.388723 108.20087 
L 456.570095 112.724779 
L 456.751466 127.094833 
L 456.932837 124.965932 
L 457.114208 130.554292 
L 457.29558 127.227879 
L 457.476951 119.643697 
L 457.658322 119.377573 
L 457.839693 116.716456 
L 458.021065 133.082347 
L 458.202436 112.857842 
L 458.383807 126.163429 
L 458.565178 125.631212 
L 459.109292 116.982564 
L 459.290663 126.163429 
L 459.472035 127.760112 
L 459.653406 117.248689 
L 459.834777 117.514797 
L 460.016148 118.712294 
L 460.19752 127.893158 
L 460.378891 127.227879 
L 460.560262 123.635374 
L 460.741633 115.119788 
L 460.923005 113.523121 
L 461.104376 118.978418 
L 461.285747 128.6915 
L 461.467118 123.103141 
L 461.64849 121.905644 
L 461.829861 122.703986 
L 462.011232 110.063662 
L 462.373975 107.801715 
L 462.555346 107.668653 
L 462.736717 108.067824 
L 462.918088 110.063662 
L 463.09946 107.269482 
L 463.280831 107.402544 
L 463.462202 108.067824 
L 463.643573 107.535591 
L 464.006316 108.067824 
L 464.187687 107.801715 
L 464.369059 107.934762 
L 464.55043 127.760112 
L 464.731801 114.85368 
L 465.094544 127.227879 
L 465.275915 108.466995 
L 465.457286 112.325609 
L 465.638657 108.067824 
L 465.820029 107.934762 
L 466.0014 110.99505 
L 466.182771 129.090671 
L 466.545514 122.570923 
L 466.726885 115.91813 
L 466.908256 125.89732 
L 467.089627 129.090671 
L 467.270999 122.837032 
L 467.45237 129.090671 
L 467.633741 128.425391 
L 467.815112 123.369265 
L 467.996484 124.300653 
L 468.177855 132.683176 
L 468.359226 121.107303 
L 468.540597 127.760112 
L 468.721969 114.454509 
L 468.90334 114.720617 
L 469.084711 128.026221 
L 469.266082 123.901482 
L 469.447454 126.828708 
L 469.628825 123.236203 
L 469.810196 125.098995 
L 469.991567 125.764274 
L 470.172939 128.425391 
L 470.35431 123.103141 
L 470.535681 128.026221 
L 470.717052 118.579247 
L 471.079795 136.142635 
L 471.261166 117.381735 
L 471.623909 107.801715 
L 471.80528 106.471141 
L 471.986651 108.466995 
L 472.168022 112.857842 
L 472.349394 128.159283 
L 472.530765 110.32977 
L 472.712136 126.5626 
L 473.074879 108.067824 
L 473.437621 129.75595 
L 473.618992 121.639536 
L 473.800364 128.425391 
L 473.981735 109.26532 
L 474.163106 107.535591 
L 474.344477 107.535591 
L 474.525849 107.136436 
L 474.888591 112.458671 
L 475.069963 108.067824 
L 475.251334 107.934762 
L 475.432705 107.535591 
L 475.614076 108.86615 
L 475.795448 108.733103 
L 476.15819 107.136436 
L 476.339561 112.192562 
L 476.520933 124.965932 
L 476.702304 124.83287 
L 476.883675 112.591717 
L 477.065046 111.527283 
L 477.246418 131.618726 
L 477.427789 121.373427 
L 477.60916 127.094833 
L 477.790531 112.857842 
L 478.153274 132.150959 
L 478.516016 111.660329 
L 478.878759 106.870311 
L 479.06013 108.86615 
L 479.241501 109.531429 
L 479.422873 129.356779 
L 479.604244 126.163429 
L 479.785615 114.720617 
L 480.329729 129.223717 
L 480.5111 122.703986 
L 480.692471 128.292329 
L 480.873843 116.849518 
L 481.055214 130.288167 
L 481.236585 120.175915 
L 481.599328 130.687338 
L 481.780699 115.119788 
L 481.96207 113.656167 
L 482.143441 107.402544 
L 482.324813 108.20087 
L 482.506184 107.136436 
L 482.687555 114.720617 
L 482.868926 114.454509 
L 483.050298 128.957609 
L 483.231669 120.841194 
L 483.41304 130.022059 
L 483.594411 119.111464 
L 483.775783 123.635374 
L 483.957154 124.300653 
L 484.138525 114.454509 
L 484.501268 131.618726 
L 484.86401 116.051176 
L 485.226753 117.514797 
L 485.408124 122.437861 
L 485.589495 120.175915 
L 485.770867 107.934762 
L 485.952238 107.003374 
L 486.496352 120.708148 
L 486.677723 119.776744 
L 486.859094 133.082347 
L 487.040465 120.175915 
L 487.221837 126.828708 
L 487.403208 127.094833 
L 487.584579 112.0595 
L 487.76595 128.026221 
L 487.947322 127.494003 
L 488.128693 120.442023 
L 488.310064 128.824562 
L 488.491435 108.733103 
L 488.672807 106.870311 
L 488.854178 107.136436 
L 489.21692 106.338094 
L 489.579663 120.974256 
L 489.761034 120.841194 
L 489.942405 120.442023 
L 490.123777 125.89732 
L 490.66789 107.269482 
L 490.849262 110.99505 
L 491.030633 111.527283 
L 491.393375 130.687338 
L 491.574747 121.107303 
L 491.756118 119.244527 
L 491.937489 119.776744 
L 492.11886 116.583409 
L 492.300232 123.901482 
L 492.481603 124.433715 
L 492.662974 123.901482 
L 492.844345 127.893158 
L 493.025717 111.926438 
L 493.207088 108.067824 
L 493.388459 107.003374 
L 493.56983 108.466995 
L 493.751202 107.269482 
L 493.932573 107.003374 
L 494.113944 107.402544 
L 494.295315 107.402544 
L 494.839429 124.300653 
L 495.020801 125.631212 
L 495.202172 124.300653 
L 495.383543 120.042852 
L 495.746286 126.030383 
L 495.927657 120.442023 
L 496.109028 120.708148 
L 496.290399 126.030383 
L 496.471771 121.905644 
L 496.653142 122.570923 
L 496.834513 131.751788 
L 497.015884 109.132274 
L 497.197256 107.136436 
L 497.378627 111.926438 
L 497.741369 107.269482 
L 497.922741 107.934762 
L 498.104112 107.801715 
L 498.466854 106.870311 
L 498.648226 108.999212 
L 498.829597 107.801715 
L 499.010968 107.402544 
L 499.192339 108.333932 
L 499.373711 108.20087 
L 499.736453 105.938923 
L 499.917824 107.801715 
L 500.099196 107.801715 
L 500.280567 107.402544 
L 500.461938 107.668653 
L 500.643309 107.535591 
L 500.824681 106.471141 
L 501.006052 112.192562 
L 501.368794 107.003374 
L 501.550166 114.85368 
L 501.731537 110.862003 
L 501.912908 114.321447 
L 502.275651 127.227879 
L 502.457022 127.494003 
L 502.638393 130.288167 
L 502.819764 117.913968 
L 503.001136 126.695662 
L 503.182507 118.978418 
L 503.363878 119.909806 
L 503.545249 130.554292 
L 503.907992 109.132274 
L 504.270734 129.090671 
L 504.452106 127.893158 
L 504.633477 124.566762 
L 504.814848 112.724779 
L 504.996219 118.978418 
L 505.358962 106.870311 
L 505.540333 110.462833 
L 505.721705 110.32977 
L 505.903076 114.454509 
L 506.084447 129.888997 
L 506.265818 120.575085 
L 506.44719 128.159283 
L 506.628561 128.6915 
L 506.809932 120.575085 
L 506.991303 133.614564 
L 507.172675 130.687338 
L 507.535417 114.587571 
L 507.716788 108.600041 
L 507.89816 107.003374 
L 508.079531 108.20087 
L 508.260902 107.668653 
L 508.623645 123.768436 
L 508.805016 107.801715 
L 508.986387 106.737265 
L 509.167758 108.86615 
L 509.530501 106.604203 
L 509.893243 114.1884 
L 510.074615 115.25285 
L 510.437357 107.535591 
L 510.618728 109.398383 
L 510.981471 132.683176 
L 511.525585 106.870311 
L 511.706956 107.402544 
L 511.888327 107.535591 
L 512.069698 108.733103 
L 512.25107 112.0595 
L 512.613812 127.094833 
L 512.795183 132.417068 
L 512.976555 121.107303 
L 513.339297 116.051176 
L 513.520668 106.870311 
L 513.70204 107.668653 
L 513.883411 107.801715 
L 514.064782 106.870311 
L 514.246153 107.668653 
L 514.608896 131.086509 
L 515.15301 123.103141 
L 515.334381 107.801715 
L 515.515752 111.128112 
L 515.697124 126.828708 
L 515.878495 119.776744 
L 516.059866 120.442023 
L 516.241237 122.837032 
L 516.422609 132.017897 
L 516.60398 129.888997 
L 516.785351 121.905644 
L 516.966722 125.764274 
L 517.148094 126.163429 
L 517.510836 119.111464 
L 517.873579 114.720617 
L 518.05495 125.49815 
L 518.236321 128.957609 
L 518.599064 126.429553 
L 518.961806 115.119788 
L 519.324549 132.683176 
L 519.50592 120.442023 
L 519.687291 123.768436 
L 520.412776 106.604203 
L 520.594147 107.269482 
L 520.775519 107.269482 
L 520.95689 108.20087 
L 521.138261 110.728941 
L 521.319632 115.518959 
L 521.501004 114.1884 
L 521.863746 106.205032 
L 522.226489 107.801715 
L 522.40786 114.321447 
L 522.589231 128.425391 
L 522.770602 128.425391 
L 522.951974 127.094833 
L 523.314716 114.055338 
L 523.677459 121.240365 
L 523.85883 123.502311 
L 524.040201 113.656167 
L 524.402944 132.017897 
L 524.584315 119.643697 
L 524.947057 132.417068 
L 525.3098 107.801715 
L 525.491171 106.870311 
L 525.672543 107.934762 
L 525.853914 107.934762 
L 526.216656 107.269482 
L 526.579399 107.668653 
L 526.76077 111.261158 
L 526.942141 125.631212 
L 527.123513 121.506473 
L 527.304884 126.5626 
L 527.667626 122.304815 
L 527.848998 129.223717 
L 528.030369 110.462833 
L 528.21174 107.668653 
L 528.393111 108.067824 
L 528.574483 107.934762 
L 528.755854 119.643697 
L 528.937225 108.466995 
L 529.118596 112.0595 
L 529.299968 107.668653 
L 529.481339 107.535591 
L 529.66271 107.136436 
L 530.025453 126.695662 
L 530.569566 116.051176 
L 530.750938 127.62705 
L 530.932309 125.764274 
L 531.11368 121.639536 
L 531.295051 120.974256 
L 531.657794 131.352617 
L 532.020536 110.728941 
L 532.201908 105.406706 
L 532.746021 108.999212 
L 532.927393 106.870311 
L 533.108764 106.604203 
L 533.290135 107.801715 
L 533.471506 108.20087 
L 533.652878 109.132274 
L 533.834249 108.999212 
L 534.01562 113.656167 
L 534.378363 106.604203 
L 534.559734 111.394221 
L 534.741105 108.600041 
L 534.922476 112.192562 
L 535.103848 113.12395 
L 535.285219 126.96177 
L 535.46659 122.304815 
L 535.647961 121.772582 
L 535.829333 130.288167 
L 536.010704 121.772582 
L 536.373447 116.583409 
L 536.554818 115.119788 
L 536.736189 108.600041 
L 536.91756 108.466995 
L 537.098932 108.86615 
L 537.280303 106.338094 
L 537.824417 130.554292 
L 538.005788 125.49815 
L 538.187159 127.62705 
L 538.36853 132.150959 
L 538.549902 126.030383 
L 538.731273 110.196708 
L 539.094015 117.115626 
L 539.275387 116.982564 
L 539.456758 114.85368 
L 539.638129 132.949285 
L 539.8195 130.288167 
L 540.000872 132.017897 
L 540.182243 117.913968 
L 540.544985 132.55013 
L 540.726357 114.986726 
L 540.907728 123.103141 
L 541.089099 126.163429 
L 541.27047 133.348456 
L 541.451842 118.313139 
L 541.633213 121.506473 
L 541.814584 110.862003 
L 541.995955 128.824562 
L 542.177327 126.296491 
L 542.358698 132.417068 
L 542.540069 125.631212 
L 542.72144 128.6915 
L 542.902812 120.308977 
L 543.084183 123.369265 
L 543.265554 118.978418 
L 543.446925 107.003374 
L 543.628297 108.067824 
L 543.809668 116.051176 
L 543.991039 110.063662 
L 544.353782 120.974256 
L 544.535153 108.86615 
L 544.716524 105.938923 
L 544.897895 113.390059 
L 545.079267 112.857842 
L 545.260638 107.934762 
L 545.442009 106.604203 
L 545.62338 107.934762 
L 545.804752 106.471141 
L 545.986123 112.0595 
L 546.167494 106.338094 
L 546.348866 108.999212 
L 546.530237 105.805861 
L 546.711608 114.055338 
L 546.892979 129.489842 
L 547.074351 125.764274 
L 547.255722 124.699824 
L 547.437093 126.828708 
L 547.799836 110.063662 
L 547.981207 109.797553 
L 548.162578 106.471141 
L 548.343949 106.870311 
L 548.525321 124.965932 
L 548.706692 106.071986 
L 548.888063 113.922292 
L 549.069434 108.20087 
L 549.250806 108.999212 
L 549.432177 105.406706 
L 549.613548 111.394221 
L 549.794919 107.934762 
L 549.976291 120.841194 
L 550.157662 109.797553 
L 550.339033 107.668653 
L 550.520404 110.728941 
L 550.701776 115.91813 
L 550.883147 109.26532 
L 551.245889 107.535591 
L 551.427261 113.656167 
L 551.608632 112.591717 
L 551.790003 105.672815 
L 551.971374 105.938923 
L 552.334117 121.373427 
L 552.515488 125.764274 
L 552.878231 108.333932 
L 553.059602 108.466995 
L 553.240973 106.471141 
L 553.422344 105.938923 
L 553.603716 106.205032 
L 553.785087 107.934762 
L 553.966458 114.454509 
L 554.147829 129.622888 
L 554.329201 130.8204 
L 554.691943 125.098995 
L 554.873314 123.502311 
L 555.054686 123.369265 
L 555.236057 120.175915 
L 555.417428 131.219571 
L 555.598799 127.760112 
L 555.780171 108.067824 
L 555.961542 106.338094 
L 556.142913 129.75595 
L 556.687027 108.067824 
L 556.868398 108.600041 
L 557.412512 114.720617 
L 557.593883 118.180077 
L 557.775255 129.888997 
L 557.956626 128.824562 
L 558.137997 119.510635 
L 558.50074 126.030383 
L 558.682111 125.365103 
L 558.863482 123.635374 
L 559.044853 119.909806 
L 559.226225 128.558438 
L 559.588967 125.365103 
L 559.770338 117.381735 
L 559.95171 119.377573 
L 560.133081 108.466995 
L 560.314452 109.531429 
L 560.495823 114.720617 
L 560.677195 126.030383 
L 560.858566 115.785068 
L 561.221308 133.082347 
L 561.40268 133.215409 
L 561.584051 130.022059 
L 561.765422 124.300653 
L 561.946793 111.793391 
L 562.128165 107.003374 
L 562.309536 108.466995 
L 562.490907 113.922292 
L 562.672278 106.071986 
L 562.85365 112.591717 
L 563.035021 105.938923 
L 563.216392 107.934762 
L 563.579135 124.300653 
L 563.760506 122.038706 
L 563.941877 122.038706 
L 564.123248 125.631212 
L 564.30462 132.017897 
L 564.485991 130.687338 
L 564.667362 111.926438 
L 564.848733 112.192562 
L 565.030105 122.703986 
L 565.211476 115.25285 
L 565.392847 120.442023 
L 565.574218 119.111464 
L 565.936961 135.211247 
L 566.118332 117.381735 
L 566.299703 124.965932 
L 566.481075 127.094833 
L 566.662446 124.965932 
L 566.843817 124.566762 
L 567.025189 110.32977 
L 567.20656 132.150959 
L 567.387931 120.575085 
L 567.569302 122.437861 
L 567.750674 132.150959 
L 568.113416 108.333932 
L 568.294787 107.668653 
L 568.65753 112.458671 
L 568.838901 108.20087 
L 569.020272 106.737265 
L 569.201644 108.20087 
L 569.383015 107.934762 
L 569.564386 117.248689 
L 569.927129 108.20087 
L 570.1085 107.003374 
L 570.289871 110.862003 
L 570.471242 110.862003 
L 570.652614 106.870311 
L 570.833985 108.067824 
L 571.015356 129.489842 
L 571.196727 120.308977 
L 571.378099 121.373427 
L 571.740841 107.801715 
L 571.922212 108.067824 
L 572.103584 108.067824 
L 572.284955 108.600041 
L 572.466326 112.192562 
L 572.647697 110.196708 
L 572.829069 106.870311 
L 573.01044 106.870311 
L 573.191811 105.406706 
L 573.554554 111.660329 
L 573.735925 124.965932 
L 573.917296 125.89732 
L 574.098667 134.812077 
L 574.46141 108.067824 
L 574.642781 112.591717 
L 574.824152 122.837032 
L 575.186895 105.938923 
L 575.368266 105.539753 
L 575.549637 117.381735 
L 575.731009 107.535591 
L 575.91238 119.377573 
L 576.093751 118.845356 
L 576.275122 130.687338 
L 576.456494 128.824562 
L 576.637865 132.949285 
L 576.819236 128.159283 
L 577.000608 118.047014 
L 577.181979 114.986726 
L 577.36335 107.934762 
L 577.544721 107.269482 
L 577.907464 110.32977 
L 578.088835 107.934762 
L 578.270206 111.793391 
L 578.451578 124.965932 
L 578.632949 126.030383 
L 578.81432 131.219571 
L 578.995691 125.89732 
L 579.177063 141.065715 
L 579.358434 126.030383 
L 579.539805 127.494003 
L 579.721176 119.909806 
L 579.902548 122.437861 
L 580.083919 107.402544 
L 580.26529 109.797553 
L 580.446661 116.317285 
L 580.628033 106.338094 
L 580.809404 108.600041 
L 580.990775 117.248689 
L 581.172146 115.385897 
L 581.353518 107.801715 
L 581.534889 108.86615 
L 581.71626 107.003374 
L 581.897631 107.934762 
L 582.079003 109.664491 
L 582.260374 107.934762 
L 582.623116 108.600041 
L 582.804488 113.390059 
L 582.985859 124.433715 
L 583.16723 105.140582 
L 583.348601 112.458671 
L 583.529973 112.325609 
L 583.711344 108.999212 
L 583.892715 112.458671 
L 584.074086 112.458671 
L 584.255458 117.780906 
L 584.436829 113.12395 
L 584.980943 137.872365 
L 585.343685 108.733103 
L 585.525056 113.523121 
L 585.706428 127.227879 
L 586.06917 130.155121 
L 586.250541 125.098995 
L 586.431913 124.699824 
L 586.794655 127.360941 
L 586.976027 124.699824 
L 587.157398 128.159283 
L 587.338769 122.437861 
L 587.52014 122.304815 
L 587.882883 128.159283 
L 588.245625 106.737265 
L 588.426997 108.20087 
L 588.608368 107.934762 
L 588.789739 121.506473 
L 588.97111 124.699824 
L 589.152482 120.442023 
L 589.333853 134.679014 
L 589.696595 127.760112 
L 589.877967 131.086509 
L 590.059338 129.75595 
L 590.42208 112.724779 
L 590.603452 108.20087 
L 590.784823 111.926438 
L 590.966194 108.600041 
L 591.147565 108.466995 
L 591.328937 107.668653 
L 591.510308 114.720617 
L 591.691679 109.531429 
L 591.87305 108.466995 
L 592.235793 128.6915 
L 592.417164 130.022059 
L 592.598535 124.433715 
L 592.779907 128.957609 
L 592.961278 127.094833 
L 593.142649 121.240365 
L 593.32402 127.094833 
L 593.505392 125.89732 
L 593.686763 126.296491 
L 593.868134 122.837032 
L 594.049505 127.360941 
L 594.230877 123.369265 
L 594.412248 133.082347 
L 594.593619 125.098995 
L 594.77499 122.171753 
L 594.956362 121.772582 
L 595.319104 107.535591 
L 595.500475 107.136436 
L 595.681847 125.365103 
L 595.863218 130.687338 
L 596.22596 107.535591 
L 596.770074 130.288167 
L 596.951445 108.733103 
L 597.132817 107.136436 
L 597.495559 131.086509 
L 597.676931 131.618726 
L 597.858302 121.373427 
L 598.221044 132.017897 
L 598.402416 124.034544 
L 598.583787 128.6915 
L 598.765158 127.62705 
L 599.127901 116.583409 
L 599.309272 136.275697 
L 599.672014 125.89732 
L 599.853386 131.48568 
L 600.034757 116.716456 
L 600.397499 107.668653 
L 600.578871 111.128112 
L 600.760242 118.978418 
L 600.941613 115.785068 
L 601.122984 109.398383 
L 601.304356 125.365103 
L 601.485727 122.837032 
L 601.667098 107.136436 
L 601.848469 107.934762 
L 602.029841 107.269482 
L 602.211212 107.801715 
L 602.392583 115.91813 
L 602.573954 115.25285 
L 602.755326 118.313139 
L 602.936697 134.279859 
L 603.118068 129.75595 
L 603.480811 108.20087 
L 603.662182 108.333932 
L 603.843553 113.656167 
L 604.024924 107.934762 
L 604.206296 114.1884 
L 604.387667 108.067824 
L 604.569038 117.913968 
L 604.750409 111.128112 
L 604.931781 112.990888 
L 605.113152 107.934762 
L 605.294523 112.990888 
L 605.475894 112.857842 
L 605.657266 124.034544 
L 605.838637 125.098995 
L 606.020008 127.227879 
L 606.201379 132.150959 
L 606.382751 115.119788 
L 606.564122 121.506473 
L 606.745493 120.708148 
L 607.108236 125.89732 
L 607.289607 126.828708 
L 607.470978 107.402544 
L 607.65235 108.466995 
L 607.833721 107.136436 
L 608.015092 116.982564 
L 608.377835 108.86615 
L 608.559206 114.587571 
L 608.740577 107.535591 
L 608.921948 108.067824 
L 609.10332 110.196708 
L 609.466062 121.506473 
L 609.828805 106.870311 
L 610.010176 109.797553 
L 610.191547 110.595879 
L 610.372918 107.668653 
L 610.55429 109.531429 
L 610.735661 107.801715 
L 610.917032 108.466995 
L 611.098403 107.402544 
L 611.461146 116.716456 
L 611.642517 116.317285 
L 611.823888 107.934762 
L 612.00526 107.402544 
L 612.186631 120.974256 
L 612.368002 119.111464 
L 612.730745 129.75595 
L 613.274858 111.128112 
L 613.637601 119.776744 
L 613.818972 106.737265 
L 614.181715 111.660329 
L 614.363086 121.373427 
L 614.544457 117.647859 
L 614.725828 106.471141 
L 615.088571 114.454509 
L 615.269942 114.055338 
L 615.451313 120.042852 
L 615.814056 107.003374 
L 615.995427 106.737265 
L 616.176798 110.196708 
L 616.35817 116.716456 
L 616.539541 134.945139 
L 616.720912 124.699824 
L 616.902283 128.159283 
L 617.083655 126.429553 
L 617.265026 131.618726 
L 617.446397 122.038706 
L 617.627769 129.223717 
L 617.80914 126.828708 
L 617.990511 121.772582 
L 618.171882 128.159283 
L 618.353254 128.425391 
L 618.534625 130.288167 
L 618.715996 120.308977 
L 619.078739 116.849518 
L 619.441481 105.805861 
L 619.622852 107.003374 
L 619.804224 111.926438 
L 619.985595 120.841194 
L 620.166966 121.240365 
L 620.348337 117.248689 
L 620.529709 133.215409 
L 620.71108 125.89732 
L 620.892451 124.300653 
L 621.073822 117.115626 
L 621.255194 114.454509 
L 621.617936 105.938923 
L 621.799307 114.986726 
L 621.980679 108.600041 
L 622.343421 124.300653 
L 622.706164 122.970094 
L 622.887535 124.300653 
L 623.250277 107.934762 
L 623.431649 111.926438 
L 623.61302 112.458671 
L 623.794391 109.531429 
L 624.157134 121.240365 
L 624.338505 107.269482 
L 624.519876 109.132274 
L 624.701247 108.86615 
L 624.882619 114.321447 
L 625.06399 129.75595 
L 625.245361 118.180077 
L 625.426732 125.631212 
L 625.608104 112.192562 
L 625.789475 113.922292 
L 625.970846 132.55013 
L 626.333589 108.067824 
L 626.51496 106.471141 
L 626.696331 112.458671 
L 626.877702 109.398383 
L 627.240445 118.047014 
L 627.421816 134.812077 
L 627.603188 130.022059 
L 627.603188 130.022059 
" clip-path="url(#paa1c85c5f2)" style="fill: none; stroke: #1f77b4; stroke-width: 1.5; stroke-linecap: square"/>
   </g>
   <g id="patch_3">
    <path d="M 270.483187 311.6435 
L 270.483187 45.5315 
" style="fill: none; stroke: #000000; stroke-width: 0.8; stroke-linejoin: miter; stroke-linecap: square"/>
   </g>
   <g id="patch_4">
    <path d="M 627.603188 311.6435 
L 627.603188 45.5315 
" style="fill: none; stroke: #000000; stroke-width: 0.8; stroke-linejoin: miter; stroke-linecap: square"/>
   </g>
   <g id="patch_5">
    <path d="M 270.483187 311.6435 
L 627.603188 311.6435 
" style="fill: none; stroke: #000000; stroke-width: 0.8; stroke-linejoin: miter; stroke-linecap: square"/>
   </g>
   <g id="patch_6">
    <path d="M 270.483187 45.5315 
L 627.603188 45.5315 
" style="fill: none; stroke: #000000; stroke-width: 0.8; stroke-linejoin: miter; stroke-linecap: square"/>
   </g>
   <g id="text_18">
    <!-- Accuracy of the CIFAR10_model_(1024+512+512+1)_save_4 on the validation set -->
    <g transform="translate(7.2 25.5315) scale(0.264 -0.264)">
     <defs>
      <path id="TimesNewRomanPSMT-68" d="M 1041 4444 
L 1041 2350 
Q 1388 2731 1591 2839 
Q 1794 2947 1997 2947 
Q 2241 2947 2416 2812 
Q 2591 2678 2675 2391 
Q 2734 2191 2734 1659 
L 2734 647 
Q 2734 375 2778 275 
Q 2809 200 2884 156 
Q 2959 113 3159 113 
L 3159 0 
L 1753 0 
L 1753 113 
L 1819 113 
Q 2019 113 2097 173 
Q 2175 234 2206 353 
Q 2216 403 2216 647 
L 2216 1659 
Q 2216 2128 2167 2275 
Q 2119 2422 2012 2495 
Q 1906 2569 1756 2569 
Q 1603 2569 1437 2487 
Q 1272 2406 1041 2159 
L 1041 647 
Q 1041 353 1073 281 
Q 1106 209 1195 161 
Q 1284 113 1503 113 
L 1503 0 
L 84 0 
L 84 113 
Q 275 113 384 172 
Q 447 203 484 290 
Q 522 378 522 647 
L 522 3238 
Q 522 3728 498 3840 
Q 475 3953 426 3993 
Q 378 4034 297 4034 
Q 231 4034 84 3984 
L 41 4094 
L 897 4444 
L 1041 4444 
z
" transform="scale(0.015625)"/>
      <path id="TimesNewRomanPSMT-43" d="M 3853 4334 
L 3950 2894 
L 3853 2894 
Q 3659 3541 3300 3825 
Q 2941 4109 2438 4109 
Q 2016 4109 1675 3895 
Q 1334 3681 1139 3212 
Q 944 2744 944 2047 
Q 944 1472 1128 1050 
Q 1313 628 1683 403 
Q 2053 178 2528 178 
Q 2941 178 3256 354 
Q 3572 531 3950 1056 
L 4047 994 
Q 3728 428 3303 165 
Q 2878 -97 2294 -97 
Q 1241 -97 663 684 
Q 231 1266 231 2053 
Q 231 2688 515 3219 
Q 800 3750 1298 4042 
Q 1797 4334 2388 4334 
Q 2847 4334 3294 4109 
Q 3425 4041 3481 4041 
Q 3566 4041 3628 4100 
Q 3709 4184 3744 4334 
L 3853 4334 
z
" transform="scale(0.015625)"/>
      <path id="TimesNewRomanPSMT-49" d="M 1975 116 
L 1975 0 
L 159 0 
L 159 116 
L 309 116 
Q 572 116 691 269 
Q 766 369 766 750 
L 766 3488 
Q 766 3809 725 3913 
Q 694 3991 597 4047 
Q 459 4122 309 4122 
L 159 4122 
L 159 4238 
L 1975 4238 
L 1975 4122 
L 1822 4122 
Q 1563 4122 1444 3969 
Q 1366 3869 1366 3488 
L 1366 750 
Q 1366 428 1406 325 
Q 1438 247 1538 191 
Q 1672 116 1822 116 
L 1975 116 
z
" transform="scale(0.015625)"/>
      <path id="TimesNewRomanPSMT-46" d="M 1309 4006 
L 1309 2341 
L 2081 2341 
Q 2347 2341 2470 2458 
Q 2594 2575 2634 2922 
L 2750 2922 
L 2750 1488 
L 2634 1488 
Q 2631 1734 2570 1850 
Q 2509 1966 2401 2023 
Q 2294 2081 2081 2081 
L 1309 2081 
L 1309 750 
Q 1309 428 1350 325 
Q 1381 247 1481 191 
Q 1619 116 1769 116 
L 1922 116 
L 1922 0 
L 103 0 
L 103 116 
L 253 116 
Q 516 116 634 269 
Q 709 369 709 750 
L 709 3488 
Q 709 3809 669 3913 
Q 638 3991 541 4047 
Q 406 4122 253 4122 
L 103 4122 
L 103 4238 
L 3256 4238 
L 3297 3306 
L 3188 3306 
Q 3106 3603 2998 3742 
Q 2891 3881 2733 3943 
Q 2575 4006 2244 4006 
L 1309 4006 
z
" transform="scale(0.015625)"/>
      <path id="TimesNewRomanPSMT-52" d="M 4325 0 
L 3194 0 
L 1759 1981 
Q 1600 1975 1500 1975 
Q 1459 1975 1412 1976 
Q 1366 1978 1316 1981 
L 1316 750 
Q 1316 350 1403 253 
Q 1522 116 1759 116 
L 1925 116 
L 1925 0 
L 109 0 
L 109 116 
L 269 116 
Q 538 116 653 291 
Q 719 388 719 750 
L 719 3488 
Q 719 3888 631 3984 
Q 509 4122 269 4122 
L 109 4122 
L 109 4238 
L 1653 4238 
Q 2328 4238 2648 4139 
Q 2969 4041 3192 3777 
Q 3416 3513 3416 3147 
Q 3416 2756 3161 2468 
Q 2906 2181 2372 2063 
L 3247 847 
Q 3547 428 3762 290 
Q 3978 153 4325 116 
L 4325 0 
z
M 1316 2178 
Q 1375 2178 1419 2176 
Q 1463 2175 1491 2175 
Q 2097 2175 2405 2437 
Q 2713 2700 2713 3106 
Q 2713 3503 2464 3751 
Q 2216 4000 1806 4000 
Q 1625 4000 1316 3941 
L 1316 2178 
z
" transform="scale(0.015625)"/>
      <path id="TimesNewRomanPSMT-5f" d="M 3256 -1381 
L -53 -1381 
L -53 -1119 
L 3256 -1119 
L 3256 -1381 
z
" transform="scale(0.015625)"/>
      <path id="TimesNewRomanPSMT-64" d="M 2222 322 
Q 2013 103 1813 7 
Q 1613 -88 1381 -88 
Q 913 -88 563 304 
Q 213 697 213 1313 
Q 213 1928 600 2439 
Q 988 2950 1597 2950 
Q 1975 2950 2222 2709 
L 2222 3238 
Q 2222 3728 2198 3840 
Q 2175 3953 2125 3993 
Q 2075 4034 2000 4034 
Q 1919 4034 1784 3984 
L 1744 4094 
L 2597 4444 
L 2738 4444 
L 2738 1134 
Q 2738 631 2761 520 
Q 2784 409 2836 365 
Q 2888 322 2956 322 
Q 3041 322 3181 375 
L 3216 266 
L 2366 -88 
L 2222 -88 
L 2222 322 
z
M 2222 541 
L 2222 2016 
Q 2203 2228 2109 2403 
Q 2016 2578 1861 2667 
Q 1706 2756 1559 2756 
Q 1284 2756 1069 2509 
Q 784 2184 784 1559 
Q 784 928 1059 592 
Q 1334 256 1672 256 
Q 1956 256 2222 541 
z
" transform="scale(0.015625)"/>
      <path id="TimesNewRomanPSMT-6c" d="M 1184 4444 
L 1184 647 
Q 1184 378 1223 290 
Q 1263 203 1344 158 
Q 1425 113 1647 113 
L 1647 0 
L 244 0 
L 244 113 
Q 441 113 512 153 
Q 584 194 625 287 
Q 666 381 666 647 
L 666 3247 
Q 666 3731 644 3842 
Q 622 3953 573 3993 
Q 525 4034 450 4034 
Q 369 4034 244 3984 
L 191 4094 
L 1044 4444 
L 1184 4444 
z
" transform="scale(0.015625)"/>
      <path id="TimesNewRomanPSMT-28" d="M 1988 -1253 
L 1988 -1369 
Q 1516 -1131 1200 -813 
Q 750 -359 506 256 
Q 263 872 263 1534 
Q 263 2503 741 3301 
Q 1219 4100 1988 4444 
L 1988 4313 
Q 1603 4100 1356 3731 
Q 1109 3363 987 2797 
Q 866 2231 866 1616 
Q 866 947 969 400 
Q 1050 -31 1165 -292 
Q 1281 -553 1476 -793 
Q 1672 -1034 1988 -1253 
z
" transform="scale(0.015625)"/>
      <path id="TimesNewRomanPSMT-2b" d="M 1672 441 
L 1672 2000 
L 116 2000 
L 116 2256 
L 1672 2256 
L 1672 3809 
L 1922 3809 
L 1922 2256 
L 3484 2256 
L 3484 2000 
L 1922 2000 
L 1922 441 
L 1672 441 
z
" transform="scale(0.015625)"/>
      <path id="TimesNewRomanPSMT-29" d="M 144 4313 
L 144 4444 
Q 619 4209 934 3891 
Q 1381 3434 1625 2820 
Q 1869 2206 1869 1541 
Q 1869 572 1392 -226 
Q 916 -1025 144 -1369 
L 144 -1253 
Q 528 -1038 776 -670 
Q 1025 -303 1145 264 
Q 1266 831 1266 1447 
Q 1266 2113 1163 2663 
Q 1084 3094 967 3353 
Q 850 3613 656 3853 
Q 463 4094 144 4313 
z
" transform="scale(0.015625)"/>
      <path id="TimesNewRomanPSMT-76" d="M 53 2863 
L 1400 2863 
L 1400 2747 
L 1313 2747 
Q 1191 2747 1127 2687 
Q 1063 2628 1063 2528 
Q 1063 2419 1128 2269 
L 1794 688 
L 2463 2328 
Q 2534 2503 2534 2594 
Q 2534 2638 2509 2666 
Q 2475 2713 2422 2730 
Q 2369 2747 2206 2747 
L 2206 2863 
L 3141 2863 
L 3141 2747 
Q 2978 2734 2916 2681 
Q 2806 2588 2719 2369 
L 1703 -88 
L 1575 -88 
L 553 2328 
Q 484 2497 421 2570 
Q 359 2644 263 2694 
Q 209 2722 53 2747 
L 53 2863 
z
" transform="scale(0.015625)"/>
     </defs>
     <use xlink:href="#TimesNewRomanPSMT-41"/>
     <use xlink:href="#TimesNewRomanPSMT-63" transform="translate(72.216797 0)"/>
     <use xlink:href="#TimesNewRomanPSMT-63" transform="translate(116.601562 0)"/>
     <use xlink:href="#TimesNewRomanPSMT-75" transform="translate(160.986328 0)"/>
     <use xlink:href="#TimesNewRomanPSMT-72" transform="translate(210.986328 0)"/>
     <use xlink:href="#TimesNewRomanPSMT-61" transform="translate(244.287109 0)"/>
     <use xlink:href="#TimesNewRomanPSMT-63" transform="translate(288.671875 0)"/>
     <use xlink:href="#TimesNewRomanPSMT-79" transform="translate(333.056641 0)"/>
     <use xlink:href="#TimesNewRomanPSMT-20" transform="translate(383.056641 0)"/>
     <use xlink:href="#TimesNewRomanPSMT-6f" transform="translate(408.056641 0)"/>
     <use xlink:href="#TimesNewRomanPSMT-66" transform="translate(458.056641 0)"/>
     <use xlink:href="#TimesNewRomanPSMT-20" transform="translate(491.357422 0)"/>
     <use xlink:href="#TimesNewRomanPSMT-74" transform="translate(516.357422 0)"/>
     <use xlink:href="#TimesNewRomanPSMT-68" transform="translate(544.140625 0)"/>
     <use xlink:href="#TimesNewRomanPSMT-65" transform="translate(594.140625 0)"/>
     <use xlink:href="#TimesNewRomanPSMT-20" transform="translate(638.525391 0)"/>
     <use xlink:href="#TimesNewRomanPSMT-43" transform="translate(663.525391 0)"/>
     <use xlink:href="#TimesNewRomanPSMT-49" transform="translate(730.224609 0)"/>
     <use xlink:href="#TimesNewRomanPSMT-46" transform="translate(763.525391 0)"/>
     <use xlink:href="#TimesNewRomanPSMT-41" transform="translate(811.765625 0)"/>
     <use xlink:href="#TimesNewRomanPSMT-52" transform="translate(883.982422 0)"/>
     <use xlink:href="#TimesNewRomanPSMT-31" transform="translate(950.681641 0)"/>
     <use xlink:href="#TimesNewRomanPSMT-30" transform="translate(1000.681641 0)"/>
     <use xlink:href="#TimesNewRomanPSMT-5f" transform="translate(1050.681641 0)"/>
     <use xlink:href="#TimesNewRomanPSMT-6d" transform="translate(1100.681641 0)"/>
     <use xlink:href="#TimesNewRomanPSMT-6f" transform="translate(1178.464844 0)"/>
     <use xlink:href="#TimesNewRomanPSMT-64" transform="translate(1228.464844 0)"/>
     <use xlink:href="#TimesNewRomanPSMT-65" transform="translate(1278.464844 0)"/>
     <use xlink:href="#TimesNewRomanPSMT-6c" transform="translate(1322.849609 0)"/>
     <use xlink:href="#TimesNewRomanPSMT-5f" transform="translate(1350.632812 0)"/>
     <use xlink:href="#TimesNewRomanPSMT-28" transform="translate(1400.632812 0)"/>
     <use xlink:href="#TimesNewRomanPSMT-31" transform="translate(1433.933594 0)"/>
     <use xlink:href="#TimesNewRomanPSMT-30" transform="translate(1483.933594 0)"/>
     <use xlink:href="#TimesNewRomanPSMT-32" transform="translate(1533.933594 0)"/>
     <use xlink:href="#TimesNewRomanPSMT-34" transform="translate(1583.933594 0)"/>
     <use xlink:href="#TimesNewRomanPSMT-2b" transform="translate(1633.933594 0)"/>
     <use xlink:href="#TimesNewRomanPSMT-35" transform="translate(1690.330078 0)"/>
     <use xlink:href="#TimesNewRomanPSMT-31" transform="translate(1740.330078 0)"/>
     <use xlink:href="#TimesNewRomanPSMT-32" transform="translate(1790.330078 0)"/>
     <use xlink:href="#TimesNewRomanPSMT-2b" transform="translate(1840.330078 0)"/>
     <use xlink:href="#TimesNewRomanPSMT-35" transform="translate(1896.726562 0)"/>
     <use xlink:href="#TimesNewRomanPSMT-31" transform="translate(1946.726562 0)"/>
     <use xlink:href="#TimesNewRomanPSMT-32" transform="translate(1996.726562 0)"/>
     <use xlink:href="#TimesNewRomanPSMT-2b" transform="translate(2046.726562 0)"/>
     <use xlink:href="#TimesNewRomanPSMT-31" transform="translate(2103.123047 0)"/>
     <use xlink:href="#TimesNewRomanPSMT-29" transform="translate(2153.123047 0)"/>
     <use xlink:href="#TimesNewRomanPSMT-5f" transform="translate(2186.423828 0)"/>
     <use xlink:href="#TimesNewRomanPSMT-73" transform="translate(2236.423828 0)"/>
     <use xlink:href="#TimesNewRomanPSMT-61" transform="translate(2275.339844 0)"/>
     <use xlink:href="#TimesNewRomanPSMT-76" transform="translate(2319.724609 0)"/>
     <use xlink:href="#TimesNewRomanPSMT-65" transform="translate(2369.724609 0)"/>
     <use xlink:href="#TimesNewRomanPSMT-5f" transform="translate(2414.109375 0)"/>
     <use xlink:href="#TimesNewRomanPSMT-34" transform="translate(2464.109375 0)"/>
     <use xlink:href="#TimesNewRomanPSMT-20" transform="translate(2514.109375 0)"/>
     <use xlink:href="#TimesNewRomanPSMT-6f" transform="translate(2539.109375 0)"/>
     <use xlink:href="#TimesNewRomanPSMT-6e" transform="translate(2589.109375 0)"/>
     <use xlink:href="#TimesNewRomanPSMT-20" transform="translate(2639.109375 0)"/>
     <use xlink:href="#TimesNewRomanPSMT-74" transform="translate(2664.109375 0)"/>
     <use xlink:href="#TimesNewRomanPSMT-68" transform="translate(2691.892578 0)"/>
     <use xlink:href="#TimesNewRomanPSMT-65" transform="translate(2741.892578 0)"/>
     <use xlink:href="#TimesNewRomanPSMT-20" transform="translate(2786.277344 0)"/>
     <use xlink:href="#TimesNewRomanPSMT-76" transform="translate(2811.277344 0)"/>
     <use xlink:href="#TimesNewRomanPSMT-61" transform="translate(2861.277344 0)"/>
     <use xlink:href="#TimesNewRomanPSMT-6c" transform="translate(2905.662109 0)"/>
     <use xlink:href="#TimesNewRomanPSMT-69" transform="translate(2933.445312 0)"/>
     <use xlink:href="#TimesNewRomanPSMT-64" transform="translate(2961.228516 0)"/>
     <use xlink:href="#TimesNewRomanPSMT-61" transform="translate(3011.228516 0)"/>
     <use xlink:href="#TimesNewRomanPSMT-74" transform="translate(3055.613281 0)"/>
     <use xlink:href="#TimesNewRomanPSMT-69" transform="translate(3083.396484 0)"/>
     <use xlink:href="#TimesNewRomanPSMT-6f" transform="translate(3111.179688 0)"/>
     <use xlink:href="#TimesNewRomanPSMT-6e" transform="translate(3161.179688 0)"/>
     <use xlink:href="#TimesNewRomanPSMT-20" transform="translate(3211.179688 0)"/>
     <use xlink:href="#TimesNewRomanPSMT-73" transform="translate(3236.179688 0)"/>
     <use xlink:href="#TimesNewRomanPSMT-65" transform="translate(3275.095703 0)"/>
     <use xlink:href="#TimesNewRomanPSMT-74" transform="translate(3319.480469 0)"/>
    </g>
   </g>
   <g id="legend_1">
    <g id="patch_7">
     <path d="M 375.032875 94.278687 
L 612.203188 94.278687 
Q 616.603188 94.278687 616.603188 89.878687 
L 616.603188 60.9315 
Q 616.603188 56.5315 612.203188 56.5315 
L 375.032875 56.5315 
Q 370.632875 56.5315 370.632875 60.9315 
L 370.632875 89.878687 
Q 370.632875 94.278687 375.032875 94.278687 
z
" style="fill: #ffffff; opacity: 0.8; stroke: #cccccc; stroke-linejoin: miter"/>
    </g>
    <g id="line2d_32">
     <path d="M 379.432875 73.0315 
L 401.432875 73.0315 
L 423.432875 73.0315 
" style="fill: none; stroke: #1f77b4; stroke-width: 1.5; stroke-linecap: square"/>
    </g>
    <g id="text_19">
     <!-- Best accuracy 0.78 -->
     <g transform="translate(441.032875 80.7315) scale(0.22 -0.22)">
      <defs>
       <path id="TimesNewRomanPSMT-42" d="M 2956 2163 
Q 3397 2069 3616 1863 
Q 3919 1575 3919 1159 
Q 3919 844 3719 555 
Q 3519 266 3170 133 
Q 2822 0 2106 0 
L 106 0 
L 106 116 
L 266 116 
Q 531 116 647 284 
Q 719 394 719 750 
L 719 3488 
Q 719 3881 628 3984 
Q 506 4122 266 4122 
L 106 4122 
L 106 4238 
L 1938 4238 
Q 2450 4238 2759 4163 
Q 3228 4050 3475 3764 
Q 3722 3478 3722 3106 
Q 3722 2788 3528 2536 
Q 3334 2284 2956 2163 
z
M 1319 2331 
Q 1434 2309 1582 2298 
Q 1731 2288 1909 2288 
Q 2366 2288 2595 2386 
Q 2825 2484 2947 2687 
Q 3069 2891 3069 3131 
Q 3069 3503 2766 3765 
Q 2463 4028 1881 4028 
Q 1569 4028 1319 3959 
L 1319 2331 
z
M 1319 306 
Q 1681 222 2034 222 
Q 2600 222 2897 476 
Q 3194 731 3194 1106 
Q 3194 1353 3059 1581 
Q 2925 1809 2622 1940 
Q 2319 2072 1872 2072 
Q 1678 2072 1540 2065 
Q 1403 2059 1319 2044 
L 1319 306 
z
" transform="scale(0.015625)"/>
      </defs>
      <use xlink:href="#TimesNewRomanPSMT-42"/>
      <use xlink:href="#TimesNewRomanPSMT-65" transform="translate(66.699219 0)"/>
      <use xlink:href="#TimesNewRomanPSMT-73" transform="translate(111.083984 0)"/>
      <use xlink:href="#TimesNewRomanPSMT-74" transform="translate(150 0)"/>
      <use xlink:href="#TimesNewRomanPSMT-20" transform="translate(177.783203 0)"/>
      <use xlink:href="#TimesNewRomanPSMT-61" transform="translate(202.783203 0)"/>
      <use xlink:href="#TimesNewRomanPSMT-63" transform="translate(247.167969 0)"/>
      <use xlink:href="#TimesNewRomanPSMT-63" transform="translate(291.552734 0)"/>
      <use xlink:href="#TimesNewRomanPSMT-75" transform="translate(335.9375 0)"/>
      <use xlink:href="#TimesNewRomanPSMT-72" transform="translate(385.9375 0)"/>
      <use xlink:href="#TimesNewRomanPSMT-61" transform="translate(419.238281 0)"/>
      <use xlink:href="#TimesNewRomanPSMT-63" transform="translate(463.623047 0)"/>
      <use xlink:href="#TimesNewRomanPSMT-79" transform="translate(508.007812 0)"/>
      <use xlink:href="#TimesNewRomanPSMT-20" transform="translate(558.007812 0)"/>
      <use xlink:href="#TimesNewRomanPSMT-30" transform="translate(583.007812 0)"/>
      <use xlink:href="#TimesNewRomanPSMT-2e" transform="translate(633.007812 0)"/>
      <use xlink:href="#TimesNewRomanPSMT-37" transform="translate(658.007812 0)"/>
      <use xlink:href="#TimesNewRomanPSMT-38" transform="translate(708.007812 0)"/>
     </g>
    </g>
   </g>
  </g>
 </g>
 <defs>
  <clipPath id="paa1c85c5f2">
   <rect x="270.483187" y="45.5315" width="357.12" height="266.112"/>
  </clipPath>
 </defs>
</svg>
