<?xml version="1.0" encoding="utf-8" standalone="no"?>
<!DOCTYPE svg PUBLIC "-//W3C//DTD SVG 1.1//EN"
  "http://www.w3.org/Graphics/SVG/1.1/DTD/svg11.dtd">
<svg xmlns:xlink="http://www.w3.org/1999/xlink" width="1070.6145pt" height="383.265687pt" viewBox="0 0 1070.6145 383.265687" xmlns="http://www.w3.org/2000/svg" version="1.1">
 <metadata>
  <rdf:RDF xmlns:dc="http://purl.org/dc/elements/1.1/" xmlns:cc="http://creativecommons.org/ns#" xmlns:rdf="http://www.w3.org/1999/02/22-rdf-syntax-ns#">
   <cc:Work>
    <dc:type rdf:resource="http://purl.org/dc/dcmitype/StillImage"/>
    <dc:date>2025-07-10T21:18:16.119055</dc:date>
    <dc:format>image/svg+xml</dc:format>
    <dc:creator>
     <cc:Agent>
      <dc:title>Matplotlib v3.10.3, https://matplotlib.org/</dc:title>
     </cc:Agent>
    </dc:creator>
   </cc:Work>
  </rdf:RDF>
 </metadata>
 <defs>
  <style type="text/css">*{stroke-linejoin: round; stroke-linecap: butt}</style>
 </defs>
 <g id="figure_1">
  <g id="patch_1">
   <path d="M 0 383.265687 
L 1070.6145 383.265687 
L 1070.6145 0 
L 0 0 
z
" style="fill: #ffffff"/>
  </g>
  <g id="axes_1">
   <g id="patch_2">
    <path d="M 356.74725 311.6435 
L 713.86725 311.6435 
L 713.86725 45.5315 
L 356.74725 45.5315 
z
" style="fill: #ffffff"/>
   </g>
   <g id="matplotlib.axis_1">
    <g id="xtick_1">
     <g id="line2d_1">
      <path d="M 356.74725 311.6435 
L 356.74725 45.5315 
" clip-path="url(#p7d926ab5d8)" style="fill: none; stroke: #b0b0b0; stroke-opacity: 0.3; stroke-width: 0.8; stroke-linecap: square"/>
     </g>
     <g id="line2d_2">
      <defs>
       <path id="m60cb280e43" d="M 0 0 
L 0 3.5 
" style="stroke: #000000; stroke-width: 0.8"/>
      </defs>
      <g>
       <use xlink:href="#m60cb280e43" x="356.74725" y="311.6435" style="stroke: #000000; stroke-width: 0.8"/>
      </g>
     </g>
     <g id="text_1">
      <!-- 0.0 -->
      <g transform="translate(342.99725 333.91975) scale(0.22 -0.22)">
       <defs>
        <path id="TimesNewRomanPSMT-30" d="M 231 2094 
Q 231 2819 450 3342 
Q 669 3866 1031 4122 
Q 1313 4325 1613 4325 
Q 2100 4325 2488 3828 
Q 2972 3213 2972 2159 
Q 2972 1422 2759 906 
Q 2547 391 2217 158 
Q 1888 -75 1581 -75 
Q 975 -75 572 641 
Q 231 1244 231 2094 
z
M 844 2016 
Q 844 1141 1059 588 
Q 1238 122 1591 122 
Q 1759 122 1940 273 
Q 2122 425 2216 781 
Q 2359 1319 2359 2297 
Q 2359 3022 2209 3506 
Q 2097 3866 1919 4016 
Q 1791 4119 1609 4119 
Q 1397 4119 1231 3928 
Q 1006 3669 925 3112 
Q 844 2556 844 2016 
z
" transform="scale(0.015625)"/>
        <path id="TimesNewRomanPSMT-2e" d="M 800 606 
Q 947 606 1047 504 
Q 1147 403 1147 259 
Q 1147 116 1045 14 
Q 944 -88 800 -88 
Q 656 -88 554 14 
Q 453 116 453 259 
Q 453 406 554 506 
Q 656 606 800 606 
z
" transform="scale(0.015625)"/>
       </defs>
       <use xlink:href="#TimesNewRomanPSMT-30"/>
       <use xlink:href="#TimesNewRomanPSMT-2e" transform="translate(50 0)"/>
       <use xlink:href="#TimesNewRomanPSMT-30" transform="translate(75 0)"/>
      </g>
     </g>
    </g>
    <g id="xtick_2">
     <g id="line2d_3">
      <path d="M 462.575089 311.6435 
L 462.575089 45.5315 
" clip-path="url(#p7d926ab5d8)" style="fill: none; stroke: #b0b0b0; stroke-opacity: 0.3; stroke-width: 0.8; stroke-linecap: square"/>
     </g>
     <g id="line2d_4">
      <g>
       <use xlink:href="#m60cb280e43" x="462.575089" y="311.6435" style="stroke: #000000; stroke-width: 0.8"/>
      </g>
     </g>
     <g id="text_2">
      <!-- 0.5 -->
      <g transform="translate(448.825089 333.91975) scale(0.22 -0.22)">
       <defs>
        <path id="TimesNewRomanPSMT-35" d="M 2778 4238 
L 2534 3706 
L 1259 3706 
L 981 3138 
Q 1809 3016 2294 2522 
Q 2709 2097 2709 1522 
Q 2709 1188 2573 903 
Q 2438 619 2231 419 
Q 2025 219 1772 97 
Q 1413 -75 1034 -75 
Q 653 -75 479 54 
Q 306 184 306 341 
Q 306 428 378 495 
Q 450 563 559 563 
Q 641 563 702 538 
Q 763 513 909 409 
Q 1144 247 1384 247 
Q 1750 247 2026 523 
Q 2303 800 2303 1197 
Q 2303 1581 2056 1914 
Q 1809 2247 1375 2428 
Q 1034 2569 447 2591 
L 1259 4238 
L 2778 4238 
z
" transform="scale(0.015625)"/>
       </defs>
       <use xlink:href="#TimesNewRomanPSMT-30"/>
       <use xlink:href="#TimesNewRomanPSMT-2e" transform="translate(50 0)"/>
       <use xlink:href="#TimesNewRomanPSMT-35" transform="translate(75 0)"/>
      </g>
     </g>
    </g>
    <g id="xtick_3">
     <g id="line2d_5">
      <path d="M 568.402929 311.6435 
L 568.402929 45.5315 
" clip-path="url(#p7d926ab5d8)" style="fill: none; stroke: #b0b0b0; stroke-opacity: 0.3; stroke-width: 0.8; stroke-linecap: square"/>
     </g>
     <g id="line2d_6">
      <g>
       <use xlink:href="#m60cb280e43" x="568.402929" y="311.6435" style="stroke: #000000; stroke-width: 0.8"/>
      </g>
     </g>
     <g id="text_3">
      <!-- 1.0 -->
      <g transform="translate(554.652929 333.91975) scale(0.22 -0.22)">
       <defs>
        <path id="TimesNewRomanPSMT-31" d="M 750 3822 
L 1781 4325 
L 1884 4325 
L 1884 747 
Q 1884 391 1914 303 
Q 1944 216 2037 169 
Q 2131 122 2419 116 
L 2419 0 
L 825 0 
L 825 116 
Q 1125 122 1212 167 
Q 1300 213 1334 289 
Q 1369 366 1369 747 
L 1369 3034 
Q 1369 3497 1338 3628 
Q 1316 3728 1258 3775 
Q 1200 3822 1119 3822 
Q 1003 3822 797 3725 
L 750 3822 
z
" transform="scale(0.015625)"/>
       </defs>
       <use xlink:href="#TimesNewRomanPSMT-31"/>
       <use xlink:href="#TimesNewRomanPSMT-2e" transform="translate(50 0)"/>
       <use xlink:href="#TimesNewRomanPSMT-30" transform="translate(75 0)"/>
      </g>
     </g>
    </g>
    <g id="xtick_4">
     <g id="line2d_7">
      <path d="M 674.230768 311.6435 
L 674.230768 45.5315 
" clip-path="url(#p7d926ab5d8)" style="fill: none; stroke: #b0b0b0; stroke-opacity: 0.3; stroke-width: 0.8; stroke-linecap: square"/>
     </g>
     <g id="line2d_8">
      <g>
       <use xlink:href="#m60cb280e43" x="674.230768" y="311.6435" style="stroke: #000000; stroke-width: 0.8"/>
      </g>
     </g>
     <g id="text_4">
      <!-- 1.5 -->
      <g transform="translate(660.480768 333.91975) scale(0.22 -0.22)">
       <use xlink:href="#TimesNewRomanPSMT-31"/>
       <use xlink:href="#TimesNewRomanPSMT-2e" transform="translate(50 0)"/>
       <use xlink:href="#TimesNewRomanPSMT-35" transform="translate(75 0)"/>
      </g>
     </g>
    </g>
    <g id="text_5">
     <!-- $\kappa  = \frac{ln(n)}{ln(d)}$ -->
     <g transform="translate(503.29725 364.185687) scale(0.22 -0.22)">
      <defs>
       <path id="STIXGeneral-Italic-3ba" d="M 979 1440 
L 998 1446 
Q 1850 2541 2464 2790 
Q 2547 2822 2630 2822 
Q 2797 2822 2886 2736 
Q 2976 2650 2976 2522 
Q 2976 2387 2893 2307 
Q 2810 2227 2682 2227 
Q 2605 2227 2502 2288 
Q 2400 2349 2336 2349 
Q 2170 2349 1990 2205 
Q 1811 2061 1414 1645 
L 2042 544 
Q 2202 262 2310 182 
Q 2419 102 2624 102 
L 2624 0 
Q 2374 -83 2182 -83 
Q 1786 -83 1555 326 
L 960 1350 
L 576 0 
L 90 0 
L 640 1978 
Q 730 2317 730 2406 
Q 730 2560 518 2560 
L 339 2560 
L 339 2650 
Q 678 2694 1306 2822 
L 1325 2803 
L 979 1440 
z
" transform="scale(0.015625)"/>
       <path id="STIXGeneral-Regular-3d" d="M 4077 2048 
L 307 2048 
L 307 2470 
L 4077 2470 
L 4077 2048 
z
M 4077 768 
L 307 768 
L 307 1190 
L 4077 1190 
L 4077 768 
z
" transform="scale(0.015625)"/>
       <path id="STIXGeneral-Italic-6c" d="M 1786 4339 
L 806 595 
Q 755 410 755 320 
Q 755 205 864 205 
Q 1037 205 1293 570 
L 1453 794 
L 1542 730 
Q 1254 275 1046 102 
Q 838 -70 576 -70 
Q 262 -70 262 288 
Q 262 397 288 480 
L 1165 3834 
Q 1184 3898 1184 3955 
Q 1184 4096 870 4096 
L 755 4096 
L 755 4198 
Q 1203 4250 1747 4371 
L 1786 4339 
z
" transform="scale(0.015625)"/>
       <path id="STIXGeneral-Italic-6e" d="M 2944 749 
L 3034 666 
Q 2707 218 2534 80 
Q 2362 -58 2138 -58 
Q 2010 -58 1923 28 
Q 1837 115 1837 288 
Q 1837 390 1939 768 
L 2221 1805 
Q 2310 2150 2310 2310 
Q 2310 2496 2157 2496 
Q 1971 2496 1750 2275 
Q 1530 2054 1210 1587 
Q 998 1274 899 1024 
Q 800 774 570 0 
L 90 0 
L 704 2240 
Q 717 2304 717 2349 
Q 717 2445 630 2480 
Q 544 2515 301 2522 
L 301 2624 
Q 550 2675 857 2729 
Q 1165 2784 1338 2822 
L 1363 2810 
L 934 1414 
Q 1408 2170 1753 2496 
Q 2099 2822 2413 2822 
Q 2611 2822 2720 2716 
Q 2829 2611 2829 2432 
Q 2829 2272 2765 2048 
L 2406 749 
Q 2317 429 2317 358 
Q 2317 243 2419 243 
Q 2541 243 2810 582 
Q 2854 634 2944 749 
z
" transform="scale(0.015625)"/>
       <path id="STIXGeneral-Regular-28" d="M 1946 -1030 
L 1869 -1133 
Q 1126 -710 716 32 
Q 307 774 307 1613 
Q 307 3386 1888 4326 
L 1946 4224 
Q 1293 3667 1075 3126 
Q 858 2586 858 1632 
Q 858 685 1082 96 
Q 1306 -493 1946 -1030 
z
" transform="scale(0.015625)"/>
       <path id="STIXGeneral-Regular-29" d="M 186 4224 
L 262 4326 
Q 992 3891 1408 3148 
Q 1824 2406 1824 1581 
Q 1824 -166 243 -1133 
L 186 -1030 
Q 845 -486 1059 54 
Q 1274 595 1274 1562 
Q 1274 2534 1059 3120 
Q 845 3706 186 4224 
z
" transform="scale(0.015625)"/>
       <path id="STIXGeneral-Italic-64" d="M 3334 4371 
L 3373 4333 
L 3123 3360 
L 2739 1958 
Q 2323 429 2323 384 
Q 2323 256 2438 256 
Q 2522 256 2614 336 
Q 2707 416 2963 710 
L 3040 646 
Q 2547 -83 2099 -83 
Q 1978 -83 1907 -6 
Q 1837 70 1837 205 
Q 1837 397 1920 774 
Q 1645 307 1379 118 
Q 1114 -70 781 -70 
Q 461 -70 278 125 
Q 96 320 96 678 
Q 96 1440 713 2131 
Q 1331 2822 1965 2822 
Q 2163 2822 2256 2732 
Q 2349 2643 2381 2451 
L 2387 2451 
L 2675 3494 
Q 2765 3808 2765 3949 
Q 2765 4051 2694 4076 
Q 2624 4102 2355 4115 
L 2355 4224 
Q 2848 4269 3334 4371 
z
M 2278 2310 
Q 2278 2477 2185 2576 
Q 2093 2675 1978 2675 
Q 1677 2675 1395 2381 
Q 1075 2042 864 1571 
Q 653 1101 653 704 
Q 653 486 752 361 
Q 851 237 1024 237 
Q 1312 237 1606 550 
Q 1901 864 2089 1350 
Q 2278 1837 2278 2310 
z
" transform="scale(0.015625)"/>
      </defs>
      <use xlink:href="#STIXGeneral-Italic-3ba" transform="translate(0 0.003125)"/>
      <use xlink:href="#STIXGeneral-Regular-3d" transform="translate(58.83999 0.003125)"/>
      <use xlink:href="#STIXGeneral-Italic-6c" transform="translate(141.779971 50.192188) scale(0.7)"/>
      <use xlink:href="#STIXGeneral-Italic-6e" transform="translate(161.239963 50.192188) scale(0.7)"/>
      <use xlink:href="#STIXGeneral-Regular-28" transform="translate(196.239952 50.192188) scale(0.7)"/>
      <use xlink:href="#STIXGeneral-Italic-6e" transform="translate(219.549944 50.192188) scale(0.7)"/>
      <use xlink:href="#STIXGeneral-Regular-29" transform="translate(254.549933 50.192188) scale(0.7)"/>
      <use xlink:href="#STIXGeneral-Italic-6c" transform="translate(141.779971 -41.257812) scale(0.7)"/>
      <use xlink:href="#STIXGeneral-Italic-6e" transform="translate(161.239963 -41.257812) scale(0.7)"/>
      <use xlink:href="#STIXGeneral-Regular-28" transform="translate(196.239952 -41.257812) scale(0.7)"/>
      <use xlink:href="#STIXGeneral-Italic-64" transform="translate(219.549944 -41.257812) scale(0.7)"/>
      <use xlink:href="#STIXGeneral-Regular-29" transform="translate(254.549933 -41.257812) scale(0.7)"/>
      <path d="M 141.779971 12.8 
L 141.779971 19.05 
L 277.859924 19.05 
L 277.859924 12.8 
L 141.779971 12.8 
z
"/>
     </g>
    </g>
   </g>
   <g id="matplotlib.axis_2">
    <g id="ytick_1">
     <g id="line2d_9">
      <path d="M 356.74725 311.6435 
L 713.86725 311.6435 
" clip-path="url(#p7d926ab5d8)" style="fill: none; stroke: #b0b0b0; stroke-opacity: 0.3; stroke-width: 0.8; stroke-linecap: square"/>
     </g>
     <g id="line2d_10">
      <defs>
       <path id="m20ee0fdd67" d="M 0 0 
L -3.5 0 
" style="stroke: #000000; stroke-width: 0.8"/>
      </defs>
      <g>
       <use xlink:href="#m20ee0fdd67" x="356.74725" y="311.6435" style="stroke: #000000; stroke-width: 0.8"/>
      </g>
     </g>
     <g id="text_6">
      <!-- 0.0 -->
      <g transform="translate(322.24725 319.281625) scale(0.22 -0.22)">
       <use xlink:href="#TimesNewRomanPSMT-30"/>
       <use xlink:href="#TimesNewRomanPSMT-2e" transform="translate(50 0)"/>
       <use xlink:href="#TimesNewRomanPSMT-30" transform="translate(75 0)"/>
      </g>
     </g>
    </g>
    <g id="ytick_2">
     <g id="line2d_11">
      <path d="M 356.74725 285.0323 
L 713.86725 285.0323 
" clip-path="url(#p7d926ab5d8)" style="fill: none; stroke: #b0b0b0; stroke-opacity: 0.3; stroke-width: 0.8; stroke-linecap: square"/>
     </g>
     <g id="line2d_12">
      <g>
       <use xlink:href="#m20ee0fdd67" x="356.74725" y="285.0323" style="stroke: #000000; stroke-width: 0.8"/>
      </g>
     </g>
     <g id="text_7">
      <!-- 0.1 -->
      <g transform="translate(322.24725 292.670425) scale(0.22 -0.22)">
       <use xlink:href="#TimesNewRomanPSMT-30"/>
       <use xlink:href="#TimesNewRomanPSMT-2e" transform="translate(50 0)"/>
       <use xlink:href="#TimesNewRomanPSMT-31" transform="translate(75 0)"/>
      </g>
     </g>
    </g>
    <g id="ytick_3">
     <g id="line2d_13">
      <path d="M 356.74725 258.4211 
L 713.86725 258.4211 
" clip-path="url(#p7d926ab5d8)" style="fill: none; stroke: #b0b0b0; stroke-opacity: 0.3; stroke-width: 0.8; stroke-linecap: square"/>
     </g>
     <g id="line2d_14">
      <g>
       <use xlink:href="#m20ee0fdd67" x="356.74725" y="258.4211" style="stroke: #000000; stroke-width: 0.8"/>
      </g>
     </g>
     <g id="text_8">
      <!-- 0.2 -->
      <g transform="translate(322.24725 266.059225) scale(0.22 -0.22)">
       <defs>
        <path id="TimesNewRomanPSMT-32" d="M 2934 816 
L 2638 0 
L 138 0 
L 138 116 
Q 1241 1122 1691 1759 
Q 2141 2397 2141 2925 
Q 2141 3328 1894 3587 
Q 1647 3847 1303 3847 
Q 991 3847 742 3664 
Q 494 3481 375 3128 
L 259 3128 
Q 338 3706 661 4015 
Q 984 4325 1469 4325 
Q 1984 4325 2329 3994 
Q 2675 3663 2675 3213 
Q 2675 2891 2525 2569 
Q 2294 2063 1775 1497 
Q 997 647 803 472 
L 1909 472 
Q 2247 472 2383 497 
Q 2519 522 2628 598 
Q 2738 675 2819 816 
L 2934 816 
z
" transform="scale(0.015625)"/>
       </defs>
       <use xlink:href="#TimesNewRomanPSMT-30"/>
       <use xlink:href="#TimesNewRomanPSMT-2e" transform="translate(50 0)"/>
       <use xlink:href="#TimesNewRomanPSMT-32" transform="translate(75 0)"/>
      </g>
     </g>
    </g>
    <g id="ytick_4">
     <g id="line2d_15">
      <path d="M 356.74725 231.8099 
L 713.86725 231.8099 
" clip-path="url(#p7d926ab5d8)" style="fill: none; stroke: #b0b0b0; stroke-opacity: 0.3; stroke-width: 0.8; stroke-linecap: square"/>
     </g>
     <g id="line2d_16">
      <g>
       <use xlink:href="#m20ee0fdd67" x="356.74725" y="231.8099" style="stroke: #000000; stroke-width: 0.8"/>
      </g>
     </g>
     <g id="text_9">
      <!-- 0.3 -->
      <g transform="translate(322.24725 239.448025) scale(0.22 -0.22)">
       <defs>
        <path id="TimesNewRomanPSMT-33" d="M 325 3431 
Q 506 3859 782 4092 
Q 1059 4325 1472 4325 
Q 1981 4325 2253 3994 
Q 2459 3747 2459 3466 
Q 2459 3003 1878 2509 
Q 2269 2356 2469 2072 
Q 2669 1788 2669 1403 
Q 2669 853 2319 450 
Q 1863 -75 997 -75 
Q 569 -75 414 31 
Q 259 138 259 259 
Q 259 350 332 419 
Q 406 488 509 488 
Q 588 488 669 463 
Q 722 447 909 348 
Q 1097 250 1169 231 
Q 1284 197 1416 197 
Q 1734 197 1970 444 
Q 2206 691 2206 1028 
Q 2206 1275 2097 1509 
Q 2016 1684 1919 1775 
Q 1784 1900 1550 2001 
Q 1316 2103 1072 2103 
L 972 2103 
L 972 2197 
Q 1219 2228 1467 2375 
Q 1716 2522 1828 2728 
Q 1941 2934 1941 3181 
Q 1941 3503 1739 3701 
Q 1538 3900 1238 3900 
Q 753 3900 428 3381 
L 325 3431 
z
" transform="scale(0.015625)"/>
       </defs>
       <use xlink:href="#TimesNewRomanPSMT-30"/>
       <use xlink:href="#TimesNewRomanPSMT-2e" transform="translate(50 0)"/>
       <use xlink:href="#TimesNewRomanPSMT-33" transform="translate(75 0)"/>
      </g>
     </g>
    </g>
    <g id="ytick_5">
     <g id="line2d_17">
      <path d="M 356.74725 205.1987 
L 713.86725 205.1987 
" clip-path="url(#p7d926ab5d8)" style="fill: none; stroke: #b0b0b0; stroke-opacity: 0.3; stroke-width: 0.8; stroke-linecap: square"/>
     </g>
     <g id="line2d_18">
      <g>
       <use xlink:href="#m20ee0fdd67" x="356.74725" y="205.1987" style="stroke: #000000; stroke-width: 0.8"/>
      </g>
     </g>
     <g id="text_10">
      <!-- 0.4 -->
      <g transform="translate(322.24725 212.836825) scale(0.22 -0.22)">
       <defs>
        <path id="TimesNewRomanPSMT-34" d="M 2978 1563 
L 2978 1119 
L 2409 1119 
L 2409 0 
L 1894 0 
L 1894 1119 
L 100 1119 
L 100 1519 
L 2066 4325 
L 2409 4325 
L 2409 1563 
L 2978 1563 
z
M 1894 1563 
L 1894 3666 
L 406 1563 
L 1894 1563 
z
" transform="scale(0.015625)"/>
       </defs>
       <use xlink:href="#TimesNewRomanPSMT-30"/>
       <use xlink:href="#TimesNewRomanPSMT-2e" transform="translate(50 0)"/>
       <use xlink:href="#TimesNewRomanPSMT-34" transform="translate(75 0)"/>
      </g>
     </g>
    </g>
    <g id="ytick_6">
     <g id="line2d_19">
      <path d="M 356.74725 178.5875 
L 713.86725 178.5875 
" clip-path="url(#p7d926ab5d8)" style="fill: none; stroke: #b0b0b0; stroke-opacity: 0.3; stroke-width: 0.8; stroke-linecap: square"/>
     </g>
     <g id="line2d_20">
      <g>
       <use xlink:href="#m20ee0fdd67" x="356.74725" y="178.5875" style="stroke: #000000; stroke-width: 0.8"/>
      </g>
     </g>
     <g id="text_11">
      <!-- 0.5 -->
      <g transform="translate(322.24725 186.225625) scale(0.22 -0.22)">
       <use xlink:href="#TimesNewRomanPSMT-30"/>
       <use xlink:href="#TimesNewRomanPSMT-2e" transform="translate(50 0)"/>
       <use xlink:href="#TimesNewRomanPSMT-35" transform="translate(75 0)"/>
      </g>
     </g>
    </g>
    <g id="ytick_7">
     <g id="line2d_21">
      <path d="M 356.74725 151.9763 
L 713.86725 151.9763 
" clip-path="url(#p7d926ab5d8)" style="fill: none; stroke: #b0b0b0; stroke-opacity: 0.3; stroke-width: 0.8; stroke-linecap: square"/>
     </g>
     <g id="line2d_22">
      <g>
       <use xlink:href="#m20ee0fdd67" x="356.74725" y="151.9763" style="stroke: #000000; stroke-width: 0.8"/>
      </g>
     </g>
     <g id="text_12">
      <!-- 0.6 -->
      <g transform="translate(322.24725 159.614425) scale(0.22 -0.22)">
       <defs>
        <path id="TimesNewRomanPSMT-36" d="M 2869 4325 
L 2869 4209 
Q 2456 4169 2195 4045 
Q 1934 3922 1679 3669 
Q 1425 3416 1258 3105 
Q 1091 2794 978 2366 
Q 1428 2675 1881 2675 
Q 2316 2675 2634 2325 
Q 2953 1975 2953 1425 
Q 2953 894 2631 456 
Q 2244 -75 1606 -75 
Q 1172 -75 869 213 
Q 275 772 275 1663 
Q 275 2231 503 2743 
Q 731 3256 1154 3653 
Q 1578 4050 1965 4187 
Q 2353 4325 2688 4325 
L 2869 4325 
z
M 925 2138 
Q 869 1716 869 1456 
Q 869 1156 980 804 
Q 1091 453 1309 247 
Q 1469 100 1697 100 
Q 1969 100 2183 356 
Q 2397 613 2397 1088 
Q 2397 1622 2184 2012 
Q 1972 2403 1581 2403 
Q 1463 2403 1327 2353 
Q 1191 2303 925 2138 
z
" transform="scale(0.015625)"/>
       </defs>
       <use xlink:href="#TimesNewRomanPSMT-30"/>
       <use xlink:href="#TimesNewRomanPSMT-2e" transform="translate(50 0)"/>
       <use xlink:href="#TimesNewRomanPSMT-36" transform="translate(75 0)"/>
      </g>
     </g>
    </g>
    <g id="ytick_8">
     <g id="line2d_23">
      <path d="M 356.74725 125.3651 
L 713.86725 125.3651 
" clip-path="url(#p7d926ab5d8)" style="fill: none; stroke: #b0b0b0; stroke-opacity: 0.3; stroke-width: 0.8; stroke-linecap: square"/>
     </g>
     <g id="line2d_24">
      <g>
       <use xlink:href="#m20ee0fdd67" x="356.74725" y="125.3651" style="stroke: #000000; stroke-width: 0.8"/>
      </g>
     </g>
     <g id="text_13">
      <!-- 0.7 -->
      <g transform="translate(322.24725 133.003225) scale(0.22 -0.22)">
       <defs>
        <path id="TimesNewRomanPSMT-37" d="M 644 4238 
L 2916 4238 
L 2916 4119 
L 1503 -88 
L 1153 -88 
L 2419 3728 
L 1253 3728 
Q 900 3728 750 3644 
Q 488 3500 328 3200 
L 238 3234 
L 644 4238 
z
" transform="scale(0.015625)"/>
       </defs>
       <use xlink:href="#TimesNewRomanPSMT-30"/>
       <use xlink:href="#TimesNewRomanPSMT-2e" transform="translate(50 0)"/>
       <use xlink:href="#TimesNewRomanPSMT-37" transform="translate(75 0)"/>
      </g>
     </g>
    </g>
    <g id="ytick_9">
     <g id="line2d_25">
      <path d="M 356.74725 98.7539 
L 713.86725 98.7539 
" clip-path="url(#p7d926ab5d8)" style="fill: none; stroke: #b0b0b0; stroke-opacity: 0.3; stroke-width: 0.8; stroke-linecap: square"/>
     </g>
     <g id="line2d_26">
      <g>
       <use xlink:href="#m20ee0fdd67" x="356.74725" y="98.7539" style="stroke: #000000; stroke-width: 0.8"/>
      </g>
     </g>
     <g id="text_14">
      <!-- 0.8 -->
      <g transform="translate(322.24725 106.392025) scale(0.22 -0.22)">
       <defs>
        <path id="TimesNewRomanPSMT-38" d="M 1228 2134 
Q 725 2547 579 2797 
Q 434 3047 434 3316 
Q 434 3728 753 4026 
Q 1072 4325 1600 4325 
Q 2113 4325 2425 4047 
Q 2738 3769 2738 3413 
Q 2738 3175 2569 2928 
Q 2400 2681 1866 2347 
Q 2416 1922 2594 1678 
Q 2831 1359 2831 1006 
Q 2831 559 2490 242 
Q 2150 -75 1597 -75 
Q 994 -75 656 303 
Q 388 606 388 966 
Q 388 1247 577 1523 
Q 766 1800 1228 2134 
z
M 1719 2469 
Q 2094 2806 2194 3001 
Q 2294 3197 2294 3444 
Q 2294 3772 2109 3958 
Q 1925 4144 1606 4144 
Q 1288 4144 1088 3959 
Q 888 3775 888 3528 
Q 888 3366 970 3203 
Q 1053 3041 1206 2894 
L 1719 2469 
z
M 1375 2016 
Q 1116 1797 991 1539 
Q 866 1281 866 981 
Q 866 578 1086 336 
Q 1306 94 1647 94 
Q 1984 94 2187 284 
Q 2391 475 2391 747 
Q 2391 972 2272 1150 
Q 2050 1481 1375 2016 
z
" transform="scale(0.015625)"/>
       </defs>
       <use xlink:href="#TimesNewRomanPSMT-30"/>
       <use xlink:href="#TimesNewRomanPSMT-2e" transform="translate(50 0)"/>
       <use xlink:href="#TimesNewRomanPSMT-38" transform="translate(75 0)"/>
      </g>
     </g>
    </g>
    <g id="ytick_10">
     <g id="line2d_27">
      <path d="M 356.74725 72.1427 
L 713.86725 72.1427 
" clip-path="url(#p7d926ab5d8)" style="fill: none; stroke: #b0b0b0; stroke-opacity: 0.3; stroke-width: 0.8; stroke-linecap: square"/>
     </g>
     <g id="line2d_28">
      <g>
       <use xlink:href="#m20ee0fdd67" x="356.74725" y="72.1427" style="stroke: #000000; stroke-width: 0.8"/>
      </g>
     </g>
     <g id="text_15">
      <!-- 0.9 -->
      <g transform="translate(322.24725 79.780825) scale(0.22 -0.22)">
       <defs>
        <path id="TimesNewRomanPSMT-39" d="M 338 -88 
L 338 28 
Q 744 34 1094 217 
Q 1444 400 1770 856 
Q 2097 1313 2225 1859 
Q 1734 1544 1338 1544 
Q 891 1544 572 1889 
Q 253 2234 253 2806 
Q 253 3363 572 3797 
Q 956 4325 1575 4325 
Q 2097 4325 2469 3894 
Q 2925 3359 2925 2575 
Q 2925 1869 2578 1258 
Q 2231 647 1613 244 
Q 1109 -88 516 -88 
L 338 -88 
z
M 2275 2091 
Q 2331 2497 2331 2741 
Q 2331 3044 2228 3395 
Q 2125 3747 1936 3934 
Q 1747 4122 1506 4122 
Q 1228 4122 1018 3872 
Q 809 3622 809 3128 
Q 809 2469 1088 2097 
Q 1291 1828 1588 1828 
Q 1731 1828 1928 1897 
Q 2125 1966 2275 2091 
z
" transform="scale(0.015625)"/>
       </defs>
       <use xlink:href="#TimesNewRomanPSMT-30"/>
       <use xlink:href="#TimesNewRomanPSMT-2e" transform="translate(50 0)"/>
       <use xlink:href="#TimesNewRomanPSMT-39" transform="translate(75 0)"/>
      </g>
     </g>
    </g>
    <g id="ytick_11">
     <g id="line2d_29">
      <path d="M 356.74725 45.5315 
L 713.86725 45.5315 
" clip-path="url(#p7d926ab5d8)" style="fill: none; stroke: #b0b0b0; stroke-opacity: 0.3; stroke-width: 0.8; stroke-linecap: square"/>
     </g>
     <g id="line2d_30">
      <g>
       <use xlink:href="#m20ee0fdd67" x="356.74725" y="45.5315" style="stroke: #000000; stroke-width: 0.8"/>
      </g>
     </g>
     <g id="text_16">
      <!-- 1.0 -->
      <g transform="translate(322.24725 53.169625) scale(0.22 -0.22)">
       <use xlink:href="#TimesNewRomanPSMT-31"/>
       <use xlink:href="#TimesNewRomanPSMT-2e" transform="translate(50 0)"/>
       <use xlink:href="#TimesNewRomanPSMT-30" transform="translate(75 0)"/>
      </g>
     </g>
    </g>
    <g id="text_17">
     <!-- Accuracy -->
     <g transform="translate(313.500063 220.726094) rotate(-90) scale(0.22 -0.22)">
      <defs>
       <path id="TimesNewRomanPSMT-41" d="M 2928 1419 
L 1288 1419 
L 1000 750 
Q 894 503 894 381 
Q 894 284 986 211 
Q 1078 138 1384 116 
L 1384 0 
L 50 0 
L 50 116 
Q 316 163 394 238 
Q 553 388 747 847 
L 2238 4334 
L 2347 4334 
L 3822 809 
Q 4000 384 4145 257 
Q 4291 131 4550 116 
L 4550 0 
L 2878 0 
L 2878 116 
Q 3131 128 3220 200 
Q 3309 272 3309 375 
Q 3309 513 3184 809 
L 2928 1419 
z
M 2841 1650 
L 2122 3363 
L 1384 1650 
L 2841 1650 
z
" transform="scale(0.015625)"/>
       <path id="TimesNewRomanPSMT-63" d="M 2631 1088 
Q 2516 522 2178 217 
Q 1841 -88 1431 -88 
Q 944 -88 581 321 
Q 219 731 219 1428 
Q 219 2103 620 2525 
Q 1022 2947 1584 2947 
Q 2006 2947 2278 2723 
Q 2550 2500 2550 2259 
Q 2550 2141 2473 2067 
Q 2397 1994 2259 1994 
Q 2075 1994 1981 2113 
Q 1928 2178 1911 2362 
Q 1894 2547 1784 2644 
Q 1675 2738 1481 2738 
Q 1169 2738 978 2506 
Q 725 2200 725 1697 
Q 725 1184 976 792 
Q 1228 400 1656 400 
Q 1963 400 2206 609 
Q 2378 753 2541 1131 
L 2631 1088 
z
" transform="scale(0.015625)"/>
       <path id="TimesNewRomanPSMT-75" d="M 2709 2863 
L 2709 1128 
Q 2709 631 2732 520 
Q 2756 409 2807 365 
Q 2859 322 2928 322 
Q 3025 322 3147 375 
L 3191 266 
L 2334 -88 
L 2194 -88 
L 2194 519 
Q 1825 119 1631 15 
Q 1438 -88 1222 -88 
Q 981 -88 804 51 
Q 628 191 559 409 
Q 491 628 491 1028 
L 491 2306 
Q 491 2509 447 2587 
Q 403 2666 317 2708 
Q 231 2750 6 2747 
L 6 2863 
L 1009 2863 
L 1009 947 
Q 1009 547 1148 422 
Q 1288 297 1484 297 
Q 1619 297 1789 381 
Q 1959 466 2194 703 
L 2194 2325 
Q 2194 2569 2105 2655 
Q 2016 2741 1734 2747 
L 1734 2863 
L 2709 2863 
z
" transform="scale(0.015625)"/>
       <path id="TimesNewRomanPSMT-72" d="M 1038 2947 
L 1038 2303 
Q 1397 2947 1775 2947 
Q 1947 2947 2059 2842 
Q 2172 2738 2172 2600 
Q 2172 2478 2090 2393 
Q 2009 2309 1897 2309 
Q 1788 2309 1652 2417 
Q 1516 2525 1450 2525 
Q 1394 2525 1328 2463 
Q 1188 2334 1038 2041 
L 1038 669 
Q 1038 431 1097 309 
Q 1138 225 1241 169 
Q 1344 113 1538 113 
L 1538 0 
L 72 0 
L 72 113 
Q 291 113 397 181 
Q 475 231 506 341 
Q 522 394 522 644 
L 522 1753 
Q 522 2253 501 2348 
Q 481 2444 426 2487 
Q 372 2531 291 2531 
Q 194 2531 72 2484 
L 41 2597 
L 906 2947 
L 1038 2947 
z
" transform="scale(0.015625)"/>
       <path id="TimesNewRomanPSMT-61" d="M 1822 413 
Q 1381 72 1269 19 
Q 1100 -59 909 -59 
Q 613 -59 420 144 
Q 228 347 228 678 
Q 228 888 322 1041 
Q 450 1253 767 1440 
Q 1084 1628 1822 1897 
L 1822 2009 
Q 1822 2438 1686 2597 
Q 1550 2756 1291 2756 
Q 1094 2756 978 2650 
Q 859 2544 859 2406 
L 866 2225 
Q 866 2081 792 2003 
Q 719 1925 600 1925 
Q 484 1925 411 2006 
Q 338 2088 338 2228 
Q 338 2497 613 2722 
Q 888 2947 1384 2947 
Q 1766 2947 2009 2819 
Q 2194 2722 2281 2516 
Q 2338 2381 2338 1966 
L 2338 994 
Q 2338 584 2353 492 
Q 2369 400 2405 369 
Q 2441 338 2488 338 
Q 2538 338 2575 359 
Q 2641 400 2828 588 
L 2828 413 
Q 2478 -56 2159 -56 
Q 2006 -56 1915 50 
Q 1825 156 1822 413 
z
M 1822 616 
L 1822 1706 
Q 1350 1519 1213 1441 
Q 966 1303 859 1153 
Q 753 1003 753 825 
Q 753 600 887 451 
Q 1022 303 1197 303 
Q 1434 303 1822 616 
z
" transform="scale(0.015625)"/>
       <path id="TimesNewRomanPSMT-79" d="M 38 2863 
L 1372 2863 
L 1372 2747 
L 1306 2747 
Q 1166 2747 1095 2686 
Q 1025 2625 1025 2534 
Q 1025 2413 1128 2197 
L 1825 753 
L 2466 2334 
Q 2519 2463 2519 2588 
Q 2519 2644 2497 2672 
Q 2472 2706 2419 2726 
Q 2366 2747 2231 2747 
L 2231 2863 
L 3163 2863 
L 3163 2747 
Q 3047 2734 2984 2696 
Q 2922 2659 2847 2556 
Q 2819 2513 2741 2316 
L 1575 -541 
Q 1406 -956 1132 -1168 
Q 859 -1381 606 -1381 
Q 422 -1381 303 -1275 
Q 184 -1169 184 -1031 
Q 184 -900 270 -820 
Q 356 -741 506 -741 
Q 609 -741 788 -809 
Q 913 -856 944 -856 
Q 1038 -856 1148 -759 
Q 1259 -663 1372 -384 
L 1575 113 
L 547 2272 
Q 500 2369 397 2513 
Q 319 2622 269 2659 
Q 197 2709 38 2747 
L 38 2863 
z
" transform="scale(0.015625)"/>
      </defs>
      <use xlink:href="#TimesNewRomanPSMT-41"/>
      <use xlink:href="#TimesNewRomanPSMT-63" transform="translate(72.216797 0)"/>
      <use xlink:href="#TimesNewRomanPSMT-63" transform="translate(116.601562 0)"/>
      <use xlink:href="#TimesNewRomanPSMT-75" transform="translate(160.986328 0)"/>
      <use xlink:href="#TimesNewRomanPSMT-72" transform="translate(210.986328 0)"/>
      <use xlink:href="#TimesNewRomanPSMT-61" transform="translate(244.287109 0)"/>
      <use xlink:href="#TimesNewRomanPSMT-63" transform="translate(288.671875 0)"/>
      <use xlink:href="#TimesNewRomanPSMT-79" transform="translate(333.056641 0)"/>
     </g>
    </g>
   </g>
   <g id="line2d_31">
    <path d="M 356.74725 178.5875 
L 429.970398 142.100584 
L 461.608091 133.171045 
L 470.145363 129.208934 
L 476.809848 128.942826 
L 482.277177 125.49815 
L 486.912649 124.300653 
L 490.936289 123.783203 
L 494.490936 122.541358 
L 497.674597 121.728233 
L 500.557442 125.601646 
L 503.191443 121.669101 
L 505.616167 122.408295 
L 507.862435 121.107303 
L 509.954725 120.530737 
L 511.912798 121.580388 
L 513.752841 121.949993 
L 515.488278 120.220263 
L 517.130366 120.782062 
L 518.688636 119.229744 
L 520.171232 119.392356 
L 521.585163 121.743016 
L 522.936511 125.172909 
L 524.230581 118.579247 
L 525.472031 119.436721 
L 526.664974 120.471589 
L 527.81306 118.801007 
L 528.919538 122.615272 
L 529.987321 119.673263 
L 531.019022 120.175915 
L 532.017002 119.229744 
L 532.983395 118.5201 
L 533.92014 119.096682 
L 534.829 118.37227 
L 535.71159 120.382891 
L 536.569384 119.895023 
L 537.403738 121.284714 
L 538.2159 120.013287 
L 539.007018 120.501155 
L 539.778157 118.579247 
L 540.5303 119.717612 
L 541.264361 117.958317 
L 541.981189 120.708132 
L 542.681574 119.407139 
L 543.366254 121.151651 
L 544.035919 119.65848 
L 544.691211 120.900326 
L 545.332736 118.948836 
L 545.96106 120.486372 
L 546.576715 119.540201 
L 547.180203 120.87076 
L 547.771994 119.968938 
L 548.352534 119.88024 
L 548.922242 119.510635 
L 549.481515 119.688046 
L 550.030729 119.599333 
L 550.570238 122.334381 
L 551.100381 123.694505 
L 551.621477 122.644838 
L 552.133829 124.019762 
L 552.637726 122.437861 
L 553.133442 120.279395 
L 553.62124 120.353326 
L 554.101367 119.067116 
L 554.574062 120.190698 
L 555.03955 119.111464 
L 555.498049 119.599333 
L 555.949766 119.14103 
L 556.394897 119.096682 
L 556.833632 119.614116 
L 557.266153 119.436721 
L 557.692633 119.126247 
L 558.113238 119.850658 
L 558.528129 119.214961 
L 558.937458 120.042852 
L 559.341372 119.88024 
L 559.740013 120.279395 
L 560.133516 120.308977 
L 560.522013 119.03755 
L 560.90563 119.673263 
L 561.284487 119.318441 
L 561.6587 119.88024 
L 562.028384 119.407139 
L 562.393645 119.407139 
L 562.754588 119.673263 
L 563.111315 119.688046 
L 563.463922 119.466286 
L 563.812505 119.909806 
L 564.497953 119.525418 
L 564.834993 119.643697 
L 565.498112 119.599333 
L 565.824349 119.80631 
L 566.147137 119.747178 
L 566.466549 119.983721 
L 566.782654 119.451504 
L 567.09552 119.303658 
L 567.711796 119.525418 
L 568.015332 119.14103 
L 568.31588 119.03755 
L 568.908245 119.421938 
L 569.200174 119.274093 
L 569.489337 119.525418 
L 569.775789 119.451504 
L 570.059577 119.111464 
L 570.619363 119.569767 
L 570.895454 119.377573 
L 571.169071 119.436721 
L 571.440258 119.732395 
L 571.709058 119.421938 
L 571.975513 119.599333 
L 572.239662 119.569767 
L 572.501546 119.895023 
L 572.761202 119.510635 
L 573.273985 119.643697 
L 573.527182 119.466286 
L 573.778298 119.673263 
L 574.027365 120.087217 
L 574.274417 119.451504 
L 574.762604 119.126247 
L 575.003802 119.569767 
L 575.243109 119.495852 
L 575.480555 119.214961 
L 575.71617 119.155813 
L 575.94998 119.80631 
L 576.182013 119.36279 
L 576.412297 119.200162 
L 576.867719 119.761961 
L 577.092908 119.495852 
L 577.316448 119.540201 
L 577.538364 119.36279 
L 577.758678 119.821093 
L 577.977414 119.540201 
L 578.194595 119.510635 
L 578.410242 119.628899 
L 578.624376 119.200162 
L 579.048192 119.510635 
L 579.257915 119.510635 
L 579.673087 119.214961 
L 579.878576 119.36279 
L 580.082691 119.348007 
L 580.28545 119.170596 
L 580.486872 119.36279 
L 581.083287 119.214961 
L 581.279531 119.318441 
L 581.474521 119.14103 
L 582.242267 119.318441 
L 582.61902 119.333224 
L 582.991181 119.80631 
L 583.175575 119.65848 
L 583.902211 119.80631 
L 584.081201 119.436721 
L 584.436062 119.791527 
L 584.611958 119.392356 
L 584.786846 119.525418 
L 584.960739 119.214961 
L 585.133647 119.688046 
L 585.305581 119.614116 
L 585.476553 119.747178 
L 585.646573 119.421938 
L 585.815651 119.510635 
L 585.983798 119.348007 
L 586.151025 119.436721 
L 586.31734 119.36279 
L 586.482755 119.673263 
L 586.647278 119.628899 
L 586.81092 119.88024 
L 587.135595 119.377573 
L 587.456855 119.466286 
L 587.932495 119.599333 
L 588.089409 119.451504 
L 588.245521 119.495852 
L 588.40084 119.421938 
L 588.555372 119.717612 
L 588.709125 119.377573 
L 588.862109 119.80631 
L 589.01433 119.348007 
L 589.316514 119.421938 
L 589.466492 119.392356 
L 589.764256 119.554984 
L 590.059145 119.554984 
L 590.351213 119.688046 
L 590.640513 119.628899 
L 590.784142 119.688046 
L 590.927099 119.540201 
L 591.069389 119.702829 
L 591.351996 119.688046 
L 591.492325 119.702829 
L 591.632011 119.481069 
L 591.771062 119.835876 
L 591.909482 119.65848 
L 592.047278 119.776744 
L 592.184455 119.481069 
L 592.321018 119.466286 
L 592.456973 119.688046 
L 592.592325 119.569767 
L 592.72708 119.65848 
L 592.861243 119.909806 
L 593.127814 119.717612 
L 593.392077 119.850658 
L 593.523356 119.65848 
L 593.784233 119.747178 
L 595.42768 119.924589 
L 595.55051 119.628899 
L 595.794698 120.072418 
L 595.916063 119.939372 
L 596.036948 119.58455 
L 596.277291 120.102 
L 596.396757 119.776744 
L 596.634296 120.515954 
L 596.752376 119.791527 
L 596.870001 167.307301 
L 596.987175 166.080238 
L 597.220182 160.151856 
L 598.021985 136.43831 
L 598.247256 135.536488 
L 598.359272 134.132014 
L 598.582078 125.527715 
L 598.692875 125.27639 
L 599.022872 121.181233 
L 599.132084 121.846512 
L 599.240906 123.738854 
L 599.349341 119.333224 
L 599.457393 119.540201 
L 599.565064 121.669101 
L 599.672357 119.288875 
L 599.779274 123.945831 
L 600.097797 119.540201 
L 600.308315 120.072418 
L 600.413032 121.240365 
L 600.725045 119.895023 
L 600.828345 120.308977 
L 600.931297 125.956452 
L 601.033903 120.264612 
L 601.339668 124.034544 
L 601.440913 121.210799 
L 601.541823 121.728233 
L 601.642401 123.398831 
L 601.842569 120.072418 
L 601.942163 121.373411 
L 602.140381 119.747178 
L 602.23901 120.678566 
L 602.435317 120.264612 
L 602.532999 121.388194 
L 602.727431 120.649 
L 603.016778 120.959473 
L 603.208163 120.752496 
L 603.303408 121.60997 
L 603.398357 120.190698 
L 603.587373 120.663783 
L 603.775226 120.249829 
L 603.868721 120.604651 
L 603.961931 120.397674 
L 604.054857 120.855977 
L 604.147501 120.782062 
L 604.239865 120.634217 
L 604.33195 121.018605 
L 604.423759 120.900326 
L 604.515292 120.515954 
L 604.606552 120.989039 
L 604.697539 120.737713 
L 604.788257 120.87076 
L 604.878705 120.708132 
L 604.968887 120.900326 
L 605.058803 120.855977 
L 605.148455 120.575085 
L 605.237845 121.122085 
L 605.415843 120.54552 
L 605.592809 120.811628 
L 605.768756 120.575085 
L 605.85635 120.575085 
L 606.117636 120.929892 
L 606.204237 120.826411 
L 606.376706 120.900326 
L 606.462576 120.397674 
L 606.548206 120.693349 
L 606.633596 120.649 
L 606.718748 120.634217 
L 606.888342 120.944674 
L 606.972788 120.634217 
L 607.057 120.708132 
L 607.308254 120.560302 
L 607.391547 120.072418 
L 607.557456 120.885543 
L 607.722468 120.54552 
L 607.804641 120.471589 
L 608.049842 120.737713 
L 608.373743 120.501155 
L 608.534414 120.855977 
L 608.853242 120.530737 
L 608.932431 120.649 
L 609.011416 120.589868 
L 609.247151 120.634217 
L 609.325327 120.989039 
L 609.403303 120.501155 
L 609.481081 120.752496 
L 609.558661 120.722915 
L 609.790225 120.693349 
L 609.943631 120.811628 
L 610.020047 120.501155 
L 610.096271 120.575085 
L 610.248151 120.575085 
L 610.39928 120.693349 
L 610.474564 120.900326 
L 610.624579 120.604651 
L 610.699311 120.649 
L 610.773861 120.54552 
L 610.848229 120.619434 
L 610.922416 120.708132 
L 611.070252 120.397674 
L 611.143902 120.530737 
L 611.363794 120.663783 
L 611.43674 120.456806 
L 611.509513 120.515954 
L 611.582113 120.471589 
L 611.654541 120.619434 
L 611.726797 120.42724 
L 611.798882 120.722915 
L 611.870798 120.649 
L 611.942545 120.515954 
L 612.15678 120.841194 
L 612.227859 120.515954 
L 612.369522 121.048171 
L 612.440108 120.678566 
L 612.510531 120.826411 
L 612.720831 120.338543 
L 612.860231 120.708132 
L 612.929693 120.767279 
L 613.068145 120.54552 
L 613.274652 120.87076 
L 613.343179 120.663783 
L 613.411552 120.841194 
L 613.547841 120.560302 
L 613.615758 121.003822 
L 613.683524 120.560302 
L 613.75114 120.855977 
L 613.818607 120.560302 
L 613.885925 120.619434 
L 613.953095 120.486372 
L 614.353041 121.018605 
L 614.485201 120.693349 
L 614.551067 120.885543 
L 614.616791 120.737713 
L 614.747817 120.471589 
L 614.878283 120.915109 
L 614.943307 120.811628 
L 615.008193 145.855717 
L 615.072942 134.752945 
L 615.137554 134.338991 
L 615.330572 122.585706 
L 615.394642 123.857133 
L 615.522379 120.989039 
L 615.586047 123.916265 
L 615.649583 120.944674 
L 615.712988 121.861295 
L 615.77626 120.575085 
L 615.839402 121.890861 
L 615.902414 120.54552 
L 615.965296 121.136868 
L 616.277778 119.821093 
L 616.339892 120.974256 
L 616.401881 120.530737 
L 616.463744 120.663783 
L 616.648583 119.939372 
L 616.709949 120.013287 
L 616.771191 119.776744 
L 616.893309 120.412457 
L 616.954185 120.294178 
L 617.01494 120.161132 
L 617.075574 120.32376 
L 617.136089 120.20548 
L 617.196483 120.32376 
L 617.256758 119.80631 
L 617.316915 120.20548 
L 617.376953 120.249829 
L 617.436874 120.072418 
L 617.496677 120.146349 
L 617.675387 119.983721 
L 617.912051 120.235046 
L 617.970932 119.954155 
L 618.029699 120.131566 
L 618.088353 120.146349 
L 618.205325 119.850658 
L 618.263643 120.308977 
L 618.321851 120.175915 
L 618.437933 120.072418 
L 618.495809 120.146349 
L 618.553576 120.190698 
L 618.611234 120.072418 
L 618.783556 120.382891 
L 618.840781 119.939372 
L 618.8979 120.175915 
L 618.954911 120.353326 
L 619.011817 120.175915 
L 619.068616 120.116783 
L 619.125311 120.264612 
L 619.1819 120.161132 
L 619.463283 120.057635 
L 619.630876 120.146349 
L 619.686537 120.161132 
L 619.742096 119.998504 
L 619.797555 120.057635 
L 620.073347 120.279395 
L 620.128207 119.939372 
L 620.18297 120.382891 
L 620.237634 120.294178 
L 620.292201 120.20548 
L 620.34667 120.32376 
L 620.455318 120.235046 
L 620.509497 120.442023 
L 620.56358 120.146349 
L 620.617568 120.264612 
L 620.671461 120.32376 
L 620.725258 120.20548 
L 620.778961 120.368109 
L 620.83257 120.308977 
L 620.939505 120.249829 
L 621.046068 120.264612 
L 621.09921 120.20548 
L 621.15226 120.264612 
L 621.310858 120.249829 
L 621.416135 120.131566 
L 621.468638 120.32376 
L 621.52105 120.264612 
L 621.625606 120.220263 
L 621.781771 120.249829 
L 621.988757 120.249829 
L 622.040285 120.308977 
L 622.091726 120.20548 
L 622.194349 120.190698 
L 622.34764 120.279395 
L 622.449408 120.190698 
L 622.500165 120.235046 
L 622.550838 120.32376 
L 622.651932 120.072418 
L 622.752692 120.456806 
L 622.802948 120.382891 
L 623.003149 120.338543 
L 623.202045 120.649 
L 623.30101 120.264612 
L 623.350372 120.294178 
L 623.399654 120.42724 
L 623.448858 120.382891 
L 623.497981 120.235046 
L 623.595993 120.279395 
L 623.644881 120.32376 
L 623.791077 120.220263 
L 624.273404 120.382891 
L 624.416629 120.131566 
L 624.653854 120.32376 
L 624.795309 120.353326 
L 625.029622 120.264612 
L 625.169351 120.353326 
L 625.215786 120.294178 
L 625.721961 120.368109 
L 625.767563 120.175915 
L 625.813098 120.32376 
L 626.084888 120.264612 
L 626.129952 120.855977 
L 626.17495 120.220263 
L 626.309547 120.072418 
L 626.354281 120.294178 
L 626.39895 120.146349 
L 626.443553 119.998504 
L 626.488091 120.220263 
L 626.576973 120.249829 
L 626.709814 120.131566 
L 626.842078 120.264612 
L 626.886039 120.072418 
L 626.929937 120.116783 
L 627.061254 120.20548 
L 627.148486 120.161132 
L 627.192009 120.220263 
L 627.408696 120.190698 
L 627.494942 120.294178 
L 627.580946 120.087217 
L 627.623857 120.264612 
L 627.7949 120.131566 
L 627.837512 120.249829 
L 627.922557 120.161132 
L 628.09194 120.087217 
L 628.134139 120.220263 
L 628.218363 120.146349 
L 628.344266 120.175915 
L 628.427913 120.264612 
L 628.552956 120.116783 
L 628.801516 120.249829 
L 628.883922 120.161132 
L 628.925042 120.20548 
L 629.04807 120.190698 
L 629.088969 120.072418 
L 629.129814 120.116783 
L 629.21134 120.294178 
L 629.252021 120.235046 
L 629.373741 119.821093 
L 629.655882 120.456806 
L 629.695975 120.442023 
L 629.736017 119.895023 
L 629.776006 120.190698 
L 629.815942 159.338731 
L 629.895659 134.176363 
L 630.094045 119.80631 
L 630.133568 120.102 
L 630.29115 124.28587 
L 630.369637 120.235046 
L 630.447923 120.32376 
L 630.526009 121.831729 
L 630.564977 120.708132 
L 630.759076 119.436721 
L 630.797748 119.983721 
L 630.874945 119.554984 
L 630.913471 119.392356 
L 630.951948 119.58455 
L 630.990377 119.732395 
L 631.028757 119.717612 
L 631.14361 119.03755 
L 631.258032 119.274093 
L 631.409932 119.03755 
L 631.636373 119.200162 
L 631.67395 119.081899 
L 631.711482 119.14103 
L 631.786406 119.096682 
L 631.861147 119.214961 
L 632.010083 119.170596 
L 632.342555 119.200162 
L 632.45258 119.096682 
L 632.489167 119.126247 
L 632.924825 119.200162 
L 633.176117 119.185379 
L 633.31879 119.200162 
L 633.496198 119.170596 
L 633.566874 119.274093 
L 633.602151 119.214961 
L 633.742851 119.200162 
L 634.161104 119.25931 
L 634.879538 119.25931 
L 634.913331 119.392356 
L 634.980805 119.274093 
L 635.249221 119.244527 
L 635.415791 119.244527 
L 635.746229 119.303658 
L 635.975426 119.244527 
L 636.008028 119.229744 
L 636.040596 119.348007 
L 636.138091 119.288875 
L 636.364376 119.303658 
L 636.396566 119.244527 
L 636.460845 119.288875 
L 636.55701 119.303658 
L 636.748435 119.274093 
L 636.938668 119.288875 
L 637.001817 119.348007 
L 637.033342 119.274093 
L 637.064835 120.368109 
L 637.096295 130.391664 
L 637.159119 123.132706 
L 637.533371 119.673263 
L 637.564352 120.708132 
L 637.595303 118.993201 
L 637.626222 119.407139 
L 637.657109 119.007984 
L 637.687965 119.628899 
L 637.749585 119.170596 
L 637.872452 119.895023 
L 637.903091 118.860139 
L 637.994826 119.126247 
L 638.147108 119.510635 
L 638.05583 119.096682 
L 638.207809 119.392356 
L 638.268389 119.36279 
L 638.298634 119.436721 
L 638.359034 119.540201 
L 638.509515 119.554984 
L 638.5695 119.510635 
L 638.71895 119.436721 
L 638.867671 119.540201 
L 638.986129 119.481069 
L 639.658486 119.525418 
L 639.687386 119.717612 
L 639.716258 119.348007 
L 639.745103 119.333224 
L 639.773921 120.175915 
L 639.802712 118.978402 
L 639.831476 120.057635 
L 639.860212 119.007984 
L 639.917604 120.767279 
L 639.94626 120.072418 
L 639.974889 121.343845 
L 640.003491 120.989039 
L 640.032066 122.541358 
L 640.089136 119.954155 
L 640.117631 121.033388 
L 640.1461 119.761961 
L 640.174542 120.515954 
L 640.202958 119.540201 
L 640.231347 121.462125 
L 640.25971 120.308977 
L 640.344641 121.299496 
L 640.372899 120.855977 
L 640.401131 120.693349 
L 640.429336 121.062954 
L 640.513797 121.757799 
L 640.598025 119.895023 
L 640.62605 120.471589 
L 640.654049 121.639536 
L 640.682022 119.288875 
L 640.737891 120.752496 
L 640.821504 120.929892 
L 640.904889 119.983721 
L 641.181205 120.412457 
L 641.345802 120.279395 
L 641.591046 120.397674 
L 641.861249 120.368109 
L 641.99546 120.32376 
L 642.022231 120.308977 
L 642.048979 120.368109 
L 642.129082 120.471589 
L 642.182368 120.42724 
L 642.315178 120.412457 
L 642.552788 120.308977 
L 643.38296 120.397674 
L 643.408542 120.42724 
L 643.434104 120.368109 
L 643.587023 120.279395 
L 643.663197 120.663783 
L 643.739181 120.471589 
L 644.513474 120.131566 
L 644.636541 120.116783 
L 645.555989 120.175915 
L 645.674934 120.264612 
L 645.817059 120.264612 
L 645.887874 120.264612 
L 645.911442 120.235046 
L 646.075915 120.235046 
L 646.239507 120.220263 
L 646.448559 120.279395 
L 646.587136 120.338543 
L 646.81671 120.308977 
L 646.999134 120.368109 
L 647.180475 120.279395 
L 647.495253 120.353326 
L 647.695911 120.353326 
L 648.005447 120.42724 
L 648.093312 120.412457 
L 648.115239 120.442023 
L 649.086002 120.353326 
L 649.170817 120.308977 
L 649.213136 120.338543 
L 649.444849 120.382891 
L 649.633134 120.368109 
L 649.737237 120.338543 
L 649.820264 120.338543 
L 649.840986 120.368109 
L 650.415556 120.264612 
L 650.597967 120.264612 
L 651.494025 120.338543 
L 651.591983 120.353326 
L 651.611537 120.338543 
L 651.709119 120.368109 
L 651.748065 120.308977 
L 651.922709 120.308977 
L 653.080788 120.220263 
L 653.210916 120.146349 
L 653.358959 120.190698 
L 653.871525 120.087217 
L 653.962157 120.057635 
L 653.980251 120.072418 
L 654.07056 120.087217 
L 654.08859 120.057635 
L 654.28622 120.028069 
L 657.35067 120.116783 
L 657.38305 120.161132 
L 657.399227 119.895023 
L 657.415395 137.266217 
L 657.496108 122.733552 
L 657.592684 120.693349 
L 657.60875 121.09252 
L 657.656898 121.743016 
L 657.688954 120.929892 
L 657.70497 121.210799 
L 657.752967 120.028069 
L 657.768949 121.506473 
L 657.832794 120.382891 
L 657.864666 119.673263 
L 657.912413 120.649 
L 657.928312 120.649 
L 658.023532 120.028069 
L 658.055206 120.116783 
L 658.071031 120.560302 
L 658.134248 119.451504 
L 658.150032 119.673263 
L 658.181575 119.688046 
L 658.307423 119.525418 
L 658.774788 119.821093 
L 659.082437 119.717612 
L 659.158868 119.761961 
L 659.204634 119.65848 
L 659.26555 119.821093 
L 659.295962 119.761961 
L 659.311157 119.554984 
L 659.341524 120.175915 
L 659.402167 119.717612 
L 659.447571 119.924589 
L 659.523094 119.909806 
L 659.793441 119.776744 
L 659.987213 119.821093 
L 660.076233 119.776744 
L 660.105849 119.791527 
L 660.268225 119.732395 
L 660.327058 119.80631 
L 660.385777 119.791527 
L 660.517484 119.717612 
L 660.619531 119.643697 
L 660.648625 119.673263 
L 662.768825 119.761961 
L 662.809492 119.983721 
L 662.823035 132.978851 
L 662.904171 119.968938 
L 662.917673 120.397674 
L 662.944658 120.102 
L 662.958142 120.560302 
L 663.025472 119.436721 
L 663.065799 119.540201 
L 663.119485 120.042852 
L 663.173078 119.717612 
L 663.25329 119.614116 
L 663.199838 119.776744 
L 663.279981 119.643697 
L 663.359913 119.702829 
L 663.319973 119.614116 
L 663.373215 119.643697 
L 663.452904 119.303658 
L 663.505914 119.451504 
L 663.585258 119.288875 
L 663.598462 119.510635 
L 663.61166 119.540201 
L 663.624853 119.36279 
L 663.677566 119.466286 
L 663.808952 119.377573 
L 663.82206 119.392356 
L 664.341803 119.421938 
L 664.354684 119.510635 
L 664.419007 119.318441 
L 664.444698 119.451504 
L 664.585616 119.303658 
L 664.611167 119.407139 
L 664.674953 119.36279 
L 664.75132 119.495852 
L 664.840175 119.407139 
L 664.865514 119.466286 
L 665.690138 119.495852 
L 665.702463 119.58455 
L 665.776306 119.436721 
L 665.800881 119.525418 
L 665.825436 119.421938 
L 665.911224 119.481069 
L 666.033361 119.554984 
L 666.045548 119.407139 
L 666.069907 119.58455 
L 666.142868 119.451504 
L 666.469053 119.436721 
L 666.481067 119.318441 
L 666.505082 119.481069 
L 666.577012 119.421938 
L 666.672655 119.466286 
L 666.68459 119.436721 
L 666.708445 119.407139 
L 666.827441 119.481069 
L 666.969626 119.377573 
L 667.06405 119.451504 
L 667.028675 119.348007 
L 667.075832 119.36279 
L 667.228592 119.421938 
L 667.29884 119.333224 
L 667.345582 119.36279 
L 667.462125 119.407139 
L 667.485381 119.36279 
L 667.63611 119.303658 
L 667.763072 119.36279 
L 679.338472 119.466286 
L 679.472206 119.510635 
L 679.558429 119.36279 
L 679.566256 138.78897 
L 679.667817 122.497009 
L 679.675615 122.497009 
L 679.683411 123.428397 
L 679.730148 120.915109 
L 679.776814 121.654318 
L 679.784584 121.639536 
L 679.792353 121.890861 
L 679.80012 120.279395 
L 679.862182 121.240365 
L 679.900907 120.530737 
L 679.916383 121.402993 
L 679.970488 121.181233 
L 680.024498 122.334381 
L 680.055318 120.530737 
L 680.078412 121.550822 
L 680.093799 120.54552 
L 680.162943 121.802148 
L 680.185956 121.462125 
L 680.193623 121.447342 
L 680.28548 120.294178 
L 680.208952 121.728233 
L 680.316038 120.693349 
L 680.354192 121.816931 
L 680.338936 120.42724 
L 680.430357 121.358628 
L 680.53667 119.776744 
L 680.48356 121.861295 
L 680.54425 120.530737 
L 680.627503 121.743016 
L 680.612383 120.249829 
L 680.650168 121.536039 
L 680.718065 120.175915 
L 680.672817 121.60997 
L 680.763246 120.397674 
L 680.778292 122.112621 
L 680.875907 120.767279 
L 680.905879 121.60997 
L 680.890897 120.294178 
L 680.965737 120.944674 
L 681.055303 120.042852 
L 681.010553 121.388194 
L 681.070205 120.294178 
L 681.114869 122.570923 
L 681.181741 121.122085 
L 681.255873 122.423078 
L 681.211415 120.515954 
L 681.285475 120.900326 
L 681.366733 122.437861 
L 681.329824 120.102 
L 681.388857 121.565605 
L 681.447776 119.747178 
L 681.506582 120.368109 
L 681.572603 121.49169 
L 681.543278 120.161132 
L 681.631168 121.462125 
L 681.711513 120.885543 
L 681.645792 121.550822 
L 681.755249 120.929892 
L 681.784371 120.989039 
L 681.828003 120.87076 
L 681.857056 120.915109 
L 681.987453 120.885543 
L 681.994682 120.900326 
L 682.059657 120.841194 
L 682.08849 120.841194 
L 685.692974 120.737713 
L 685.801628 120.708132 
L 685.814385 120.722915 
L 686.257569 120.634217 
L 686.2827 120.589868 
L 686.345439 120.752496 
L 686.351706 120.722915 
L 686.357971 120.752496 
L 686.364235 120.708132 
L 686.370498 120.722915 
L 686.38302 128.114918 
L 686.426807 119.599333 
L 686.476772 120.530737 
L 686.539113 119.628899 
L 686.514192 120.575085 
L 686.588895 119.954155 
L 686.706802 119.643697 
L 686.824256 120.131566 
L 686.830425 120.116783 
L 686.873575 120.028069 
L 686.916664 120.235046 
L 686.941259 120.116783 
L 687.045568 120.264612 
L 687.088416 120.190698 
L 687.094532 120.146349 
L 687.13731 120.308977 
L 687.186127 120.249829 
L 687.277449 120.353326 
L 687.259206 120.235046 
L 687.29568 120.235046 
L 687.380617 120.353326 
L 687.344245 120.190698 
L 687.416947 120.249829 
L 687.495512 120.20548 
L 687.4774 120.382891 
L 687.519646 120.279395 
L 690.559596 120.175915 
L 690.619591 120.175915 
L 690.586881 120.20548 
L 690.663151 120.20548 
L 691.532111 120.102 
L 691.553257 120.116783 
L 691.653501 120.072418 
L 691.758667 120.087217 
L 691.763916 120.072418 
L 691.800633 120.102 
L 691.868703 120.087217 
L 691.973132 120.102 
L 691.978344 120.087217 
L 692.103168 120.057635 
L 693.299173 119.968938 
L 693.349043 119.909806 
L 693.393855 119.998504 
L 693.413751 119.954155 
L 693.438603 119.968938 
L 693.473361 119.850658 
L 693.498164 119.865457 
L 694.257231 119.968938 
L 694.368276 119.998504 
L 694.373095 119.968938 
L 694.377913 119.954155 
L 694.401992 119.998504 
L 694.478919 119.998504 
L 698.776392 119.939372 
L 698.788904 119.80631 
L 698.793073 137.931496 
L 698.843062 119.392356 
L 698.897125 119.939372 
L 698.980112 119.022767 
L 699.000824 120.42724 
L 699.058741 119.569767 
L 699.133046 119.688046 
L 699.874363 119.58455 
L 699.902519 119.614116 
L 699.99084 119.569767 
L 700.242356 119.65848 
L 700.266202 119.80631 
L 700.278118 125.217258 
L 700.353479 119.569767 
L 700.377239 120.264612 
L 700.479984 119.835876 
L 700.483929 120.412457 
L 700.594178 120.161132 
L 700.49576 120.501155 
L 700.602038 120.190698 
L 700.621678 120.102 
L 700.641306 120.20548 
L 700.711862 120.190698 
L 700.797877 120.249829 
L 700.735345 120.146349 
L 700.81349 120.161132 
L 700.836894 120.353326 
L 700.953648 120.057635 
L 700.969182 120.072418 
L 701.011858 119.998504 
L 701.050604 119.998504 
L 701.162687 119.895023 
L 701.239748 119.80631 
L 701.289733 119.835876 
L 701.308936 119.821093 
L 701.397115 119.835876 
L 701.534627 119.747178 
L 702.675454 119.850658 
L 702.682796 123.295335 
L 702.704811 118.919271 
L 702.774421 119.288875 
L 702.789056 119.25931 
L 702.800027 119.36279 
L 702.880364 119.333224 
L 703.054913 119.229744 
L 703.102015 119.096682 
L 703.130965 119.481069 
L 703.149045 119.36279 
L 703.206829 119.510635 
L 703.264504 119.436721 
L 703.372351 119.333224 
L 703.278905 119.451504 
L 703.393875 119.36279 
L 703.451197 119.333224 
L 703.511985 119.407139 
L 703.565521 119.510635 
L 703.640314 119.244527 
L 703.707826 119.14103 
L 703.72202 119.067116 
L 703.714924 119.200162 
L 703.803509 119.185379 
L 703.867131 119.25931 
L 703.853004 119.067116 
L 703.916524 119.200162 
L 704.172783 119.126247 
L 704.207721 119.170596 
L 704.287925 119.067116 
L 704.378337 119.155813 
L 704.395694 119.052333 
L 704.499626 119.155813 
L 704.513456 119.170596 
L 704.561815 119.03755 
L 704.589414 119.052333 
L 705.010642 119.155813 
L 705.014043 119.170596 
L 705.048032 119.022767 
L 705.112505 119.14103 
L 705.190371 119.096682 
L 705.207272 119.170596 
L 705.227541 119.111464 
L 705.230918 119.14103 
L 705.251171 119.052333 
L 705.33878 119.111464 
L 705.429494 119.155813 
L 705.449616 119.126247 
L 705.56005 119.111464 
L 705.469724 119.155813 
L 705.56339 119.126247 
L 706.250344 119.214961 
L 706.302552 119.614116 
L 706.305812 123.339683 
L 706.413199 120.279395 
L 706.445666 120.456806 
L 706.526682 120.42724 
L 706.617166 120.32376 
L 706.671972 120.368109 
L 706.752392 120.220263 
L 706.909401 120.146349 
L 707.024243 120.028069 
L 707.027427 120.042852 
L 708.470056 120.146349 
L 708.482201 120.102 
L 708.588263 120.220263 
L 708.675864 120.220263 
L 708.612454 120.161132 
L 708.690943 120.175915 
L 708.766223 120.161132 
L 708.757199 120.20548 
L 708.799288 120.190698 
L 708.922214 120.264612 
L 708.925206 120.308977 
L 708.987971 120.235046 
L 709.032724 120.264612 
L 709.065502 120.279395 
L 709.151747 120.175915 
L 709.18143 120.264612 
L 709.252552 120.161132 
L 709.261431 120.175915 
L 709.347125 120.116783 
L 709.288051 120.20548 
L 709.382514 120.131566 
L 709.388409 120.175915 
L 709.476686 120.013287 
L 709.479624 120.013287 
L 709.792389 119.909806 
L 709.859202 119.850658 
L 709.894003 119.998504 
L 709.902697 124.862436 
L 710.009722 120.382891 
L 710.101982 120.264612 
L 710.021269 120.397674 
L 710.125003 120.368109 
L 710.208311 120.264612 
L 710.325705 120.131566 
L 710.337134 120.161132 
L 710.391362 120.131566 
L 710.465415 120.249829 
L 710.894779 120.146349 
L 710.9088 119.776744 
L 710.911604 120.841194 
L 710.91721 120.530737 
L 710.922816 121.787365 
L 710.962024 118.667945 
L 711.023537 118.830573 
L 711.082137 118.904488 
L 711.13506 119.067116 
L 711.087713 118.889705 
L 711.193448 118.948836 
L 711.243405 118.934053 
L 711.268354 119.126247 
L 711.35413 119.022767 
L 711.664777 118.934053 
L 711.782162 118.860139 
L 712.781912 118.756642 
L 712.813538 118.771441 
L 712.897715 118.727077 
L 713.823958 118.667945 
L 713.831602 118.608813 
L 713.864705 118.682728 
L 713.86725 118.667945 
" clip-path="url(#p7d926ab5d8)" style="fill: none; stroke: #1f77b4; stroke-width: 1.5; stroke-linecap: square"/>
   </g>
   <g id="patch_3">
    <path d="M 356.74725 311.6435 
L 356.74725 45.5315 
" style="fill: none; stroke: #000000; stroke-width: 0.8; stroke-linejoin: miter; stroke-linecap: square"/>
   </g>
   <g id="patch_4">
    <path d="M 713.86725 311.6435 
L 713.86725 45.5315 
" style="fill: none; stroke: #000000; stroke-width: 0.8; stroke-linejoin: miter; stroke-linecap: square"/>
   </g>
   <g id="patch_5">
    <path d="M 356.74725 311.6435 
L 713.86725 311.6435 
" style="fill: none; stroke: #000000; stroke-width: 0.8; stroke-linejoin: miter; stroke-linecap: square"/>
   </g>
   <g id="patch_6">
    <path d="M 356.74725 45.5315 
L 713.86725 45.5315 
" style="fill: none; stroke: #000000; stroke-width: 0.8; stroke-linejoin: miter; stroke-linecap: square"/>
   </g>
   <g id="text_18">
    <!-- Accuracy of the 09_07_25_CINIC10_torch_model_(1024+512.3+1)_elk-horse on the validation set -->
    <g transform="translate(7.2 25.5315) scale(0.264 -0.264)">
     <defs>
      <path id="TimesNewRomanPSMT-20" transform="scale(0.015625)"/>
      <path id="TimesNewRomanPSMT-6f" d="M 1600 2947 
Q 2250 2947 2644 2453 
Q 2978 2031 2978 1484 
Q 2978 1100 2793 706 
Q 2609 313 2286 112 
Q 1963 -88 1566 -88 
Q 919 -88 538 428 
Q 216 863 216 1403 
Q 216 1797 411 2186 
Q 606 2575 925 2761 
Q 1244 2947 1600 2947 
z
M 1503 2744 
Q 1338 2744 1170 2645 
Q 1003 2547 900 2300 
Q 797 2053 797 1666 
Q 797 1041 1045 587 
Q 1294 134 1700 134 
Q 2003 134 2200 384 
Q 2397 634 2397 1244 
Q 2397 2006 2069 2444 
Q 1847 2744 1503 2744 
z
" transform="scale(0.015625)"/>
      <path id="TimesNewRomanPSMT-66" d="M 1319 2638 
L 1319 756 
Q 1319 356 1406 250 
Q 1522 113 1716 113 
L 1975 113 
L 1975 0 
L 266 0 
L 266 113 
L 394 113 
Q 519 113 622 175 
Q 725 238 764 344 
Q 803 450 803 756 
L 803 2638 
L 247 2638 
L 247 2863 
L 803 2863 
L 803 3050 
Q 803 3478 940 3775 
Q 1078 4072 1361 4255 
Q 1644 4438 1997 4438 
Q 2325 4438 2600 4225 
Q 2781 4084 2781 3909 
Q 2781 3816 2700 3733 
Q 2619 3650 2525 3650 
Q 2453 3650 2373 3701 
Q 2294 3753 2178 3923 
Q 2063 4094 1966 4153 
Q 1869 4213 1750 4213 
Q 1606 4213 1506 4136 
Q 1406 4059 1362 3898 
Q 1319 3738 1319 3069 
L 1319 2863 
L 2056 2863 
L 2056 2638 
L 1319 2638 
z
" transform="scale(0.015625)"/>
      <path id="TimesNewRomanPSMT-74" d="M 1031 3803 
L 1031 2863 
L 1700 2863 
L 1700 2644 
L 1031 2644 
L 1031 788 
Q 1031 509 1111 412 
Q 1191 316 1316 316 
Q 1419 316 1516 380 
Q 1613 444 1666 569 
L 1788 569 
Q 1678 263 1478 108 
Q 1278 -47 1066 -47 
Q 922 -47 784 33 
Q 647 113 581 261 
Q 516 409 516 719 
L 516 2644 
L 63 2644 
L 63 2747 
Q 234 2816 414 2980 
Q 594 3144 734 3369 
Q 806 3488 934 3803 
L 1031 3803 
z
" transform="scale(0.015625)"/>
      <path id="TimesNewRomanPSMT-68" d="M 1041 4444 
L 1041 2350 
Q 1388 2731 1591 2839 
Q 1794 2947 1997 2947 
Q 2241 2947 2416 2812 
Q 2591 2678 2675 2391 
Q 2734 2191 2734 1659 
L 2734 647 
Q 2734 375 2778 275 
Q 2809 200 2884 156 
Q 2959 113 3159 113 
L 3159 0 
L 1753 0 
L 1753 113 
L 1819 113 
Q 2019 113 2097 173 
Q 2175 234 2206 353 
Q 2216 403 2216 647 
L 2216 1659 
Q 2216 2128 2167 2275 
Q 2119 2422 2012 2495 
Q 1906 2569 1756 2569 
Q 1603 2569 1437 2487 
Q 1272 2406 1041 2159 
L 1041 647 
Q 1041 353 1073 281 
Q 1106 209 1195 161 
Q 1284 113 1503 113 
L 1503 0 
L 84 0 
L 84 113 
Q 275 113 384 172 
Q 447 203 484 290 
Q 522 378 522 647 
L 522 3238 
Q 522 3728 498 3840 
Q 475 3953 426 3993 
Q 378 4034 297 4034 
Q 231 4034 84 3984 
L 41 4094 
L 897 4444 
L 1041 4444 
z
" transform="scale(0.015625)"/>
      <path id="TimesNewRomanPSMT-65" d="M 681 1784 
Q 678 1147 991 784 
Q 1303 422 1725 422 
Q 2006 422 2214 576 
Q 2422 731 2563 1106 
L 2659 1044 
Q 2594 616 2278 264 
Q 1963 -88 1488 -88 
Q 972 -88 605 314 
Q 238 716 238 1394 
Q 238 2128 614 2539 
Q 991 2950 1559 2950 
Q 2041 2950 2350 2633 
Q 2659 2316 2659 1784 
L 681 1784 
z
M 681 1966 
L 2006 1966 
Q 1991 2241 1941 2353 
Q 1863 2528 1708 2628 
Q 1553 2728 1384 2728 
Q 1125 2728 920 2526 
Q 716 2325 681 1966 
z
" transform="scale(0.015625)"/>
      <path id="TimesNewRomanPSMT-5f" d="M 3256 -1381 
L -53 -1381 
L -53 -1119 
L 3256 -1119 
L 3256 -1381 
z
" transform="scale(0.015625)"/>
      <path id="TimesNewRomanPSMT-43" d="M 3853 4334 
L 3950 2894 
L 3853 2894 
Q 3659 3541 3300 3825 
Q 2941 4109 2438 4109 
Q 2016 4109 1675 3895 
Q 1334 3681 1139 3212 
Q 944 2744 944 2047 
Q 944 1472 1128 1050 
Q 1313 628 1683 403 
Q 2053 178 2528 178 
Q 2941 178 3256 354 
Q 3572 531 3950 1056 
L 4047 994 
Q 3728 428 3303 165 
Q 2878 -97 2294 -97 
Q 1241 -97 663 684 
Q 231 1266 231 2053 
Q 231 2688 515 3219 
Q 800 3750 1298 4042 
Q 1797 4334 2388 4334 
Q 2847 4334 3294 4109 
Q 3425 4041 3481 4041 
Q 3566 4041 3628 4100 
Q 3709 4184 3744 4334 
L 3853 4334 
z
" transform="scale(0.015625)"/>
      <path id="TimesNewRomanPSMT-49" d="M 1975 116 
L 1975 0 
L 159 0 
L 159 116 
L 309 116 
Q 572 116 691 269 
Q 766 369 766 750 
L 766 3488 
Q 766 3809 725 3913 
Q 694 3991 597 4047 
Q 459 4122 309 4122 
L 159 4122 
L 159 4238 
L 1975 4238 
L 1975 4122 
L 1822 4122 
Q 1563 4122 1444 3969 
Q 1366 3869 1366 3488 
L 1366 750 
Q 1366 428 1406 325 
Q 1438 247 1538 191 
Q 1672 116 1822 116 
L 1975 116 
z
" transform="scale(0.015625)"/>
      <path id="TimesNewRomanPSMT-4e" d="M -84 4238 
L 1066 4238 
L 3656 1059 
L 3656 3503 
Q 3656 3894 3569 3991 
Q 3453 4122 3203 4122 
L 3056 4122 
L 3056 4238 
L 4531 4238 
L 4531 4122 
L 4381 4122 
Q 4113 4122 4000 3959 
Q 3931 3859 3931 3503 
L 3931 -69 
L 3819 -69 
L 1025 3344 
L 1025 734 
Q 1025 344 1109 247 
Q 1228 116 1475 116 
L 1625 116 
L 1625 0 
L 150 0 
L 150 116 
L 297 116 
Q 569 116 681 278 
Q 750 378 750 734 
L 750 3681 
Q 566 3897 470 3965 
Q 375 4034 191 4094 
Q 100 4122 -84 4122 
L -84 4238 
z
" transform="scale(0.015625)"/>
      <path id="TimesNewRomanPSMT-6d" d="M 1050 2338 
Q 1363 2650 1419 2697 
Q 1559 2816 1721 2881 
Q 1884 2947 2044 2947 
Q 2313 2947 2506 2790 
Q 2700 2634 2766 2338 
Q 3088 2713 3309 2830 
Q 3531 2947 3766 2947 
Q 3994 2947 4170 2830 
Q 4347 2713 4450 2447 
Q 4519 2266 4519 1878 
L 4519 647 
Q 4519 378 4559 278 
Q 4591 209 4675 161 
Q 4759 113 4950 113 
L 4950 0 
L 3538 0 
L 3538 113 
L 3597 113 
Q 3781 113 3884 184 
Q 3956 234 3988 344 
Q 4000 397 4000 647 
L 4000 1878 
Q 4000 2228 3916 2372 
Q 3794 2572 3525 2572 
Q 3359 2572 3192 2489 
Q 3025 2406 2788 2181 
L 2781 2147 
L 2788 2013 
L 2788 647 
Q 2788 353 2820 281 
Q 2853 209 2943 161 
Q 3034 113 3253 113 
L 3253 0 
L 1806 0 
L 1806 113 
Q 2044 113 2133 169 
Q 2222 225 2256 338 
Q 2272 391 2272 647 
L 2272 1878 
Q 2272 2228 2169 2381 
Q 2031 2581 1784 2581 
Q 1616 2581 1450 2491 
Q 1191 2353 1050 2181 
L 1050 647 
Q 1050 366 1089 281 
Q 1128 197 1204 155 
Q 1281 113 1516 113 
L 1516 0 
L 100 0 
L 100 113 
Q 297 113 375 155 
Q 453 197 493 289 
Q 534 381 534 647 
L 534 1741 
Q 534 2213 506 2350 
Q 484 2453 437 2492 
Q 391 2531 309 2531 
Q 222 2531 100 2484 
L 53 2597 
L 916 2947 
L 1050 2947 
L 1050 2338 
z
" transform="scale(0.015625)"/>
      <path id="TimesNewRomanPSMT-64" d="M 2222 322 
Q 2013 103 1813 7 
Q 1613 -88 1381 -88 
Q 913 -88 563 304 
Q 213 697 213 1313 
Q 213 1928 600 2439 
Q 988 2950 1597 2950 
Q 1975 2950 2222 2709 
L 2222 3238 
Q 2222 3728 2198 3840 
Q 2175 3953 2125 3993 
Q 2075 4034 2000 4034 
Q 1919 4034 1784 3984 
L 1744 4094 
L 2597 4444 
L 2738 4444 
L 2738 1134 
Q 2738 631 2761 520 
Q 2784 409 2836 365 
Q 2888 322 2956 322 
Q 3041 322 3181 375 
L 3216 266 
L 2366 -88 
L 2222 -88 
L 2222 322 
z
M 2222 541 
L 2222 2016 
Q 2203 2228 2109 2403 
Q 2016 2578 1861 2667 
Q 1706 2756 1559 2756 
Q 1284 2756 1069 2509 
Q 784 2184 784 1559 
Q 784 928 1059 592 
Q 1334 256 1672 256 
Q 1956 256 2222 541 
z
" transform="scale(0.015625)"/>
      <path id="TimesNewRomanPSMT-6c" d="M 1184 4444 
L 1184 647 
Q 1184 378 1223 290 
Q 1263 203 1344 158 
Q 1425 113 1647 113 
L 1647 0 
L 244 0 
L 244 113 
Q 441 113 512 153 
Q 584 194 625 287 
Q 666 381 666 647 
L 666 3247 
Q 666 3731 644 3842 
Q 622 3953 573 3993 
Q 525 4034 450 4034 
Q 369 4034 244 3984 
L 191 4094 
L 1044 4444 
L 1184 4444 
z
" transform="scale(0.015625)"/>
      <path id="TimesNewRomanPSMT-28" d="M 1988 -1253 
L 1988 -1369 
Q 1516 -1131 1200 -813 
Q 750 -359 506 256 
Q 263 872 263 1534 
Q 263 2503 741 3301 
Q 1219 4100 1988 4444 
L 1988 4313 
Q 1603 4100 1356 3731 
Q 1109 3363 987 2797 
Q 866 2231 866 1616 
Q 866 947 969 400 
Q 1050 -31 1165 -292 
Q 1281 -553 1476 -793 
Q 1672 -1034 1988 -1253 
z
" transform="scale(0.015625)"/>
      <path id="TimesNewRomanPSMT-2b" d="M 1672 441 
L 1672 2000 
L 116 2000 
L 116 2256 
L 1672 2256 
L 1672 3809 
L 1922 3809 
L 1922 2256 
L 3484 2256 
L 3484 2000 
L 1922 2000 
L 1922 441 
L 1672 441 
z
" transform="scale(0.015625)"/>
      <path id="TimesNewRomanPSMT-29" d="M 144 4313 
L 144 4444 
Q 619 4209 934 3891 
Q 1381 3434 1625 2820 
Q 1869 2206 1869 1541 
Q 1869 572 1392 -226 
Q 916 -1025 144 -1369 
L 144 -1253 
Q 528 -1038 776 -670 
Q 1025 -303 1145 264 
Q 1266 831 1266 1447 
Q 1266 2113 1163 2663 
Q 1084 3094 967 3353 
Q 850 3613 656 3853 
Q 463 4094 144 4313 
z
" transform="scale(0.015625)"/>
      <path id="TimesNewRomanPSMT-6b" d="M 1047 4444 
L 1047 1594 
L 1775 2259 
Q 2006 2472 2044 2528 
Q 2069 2566 2069 2603 
Q 2069 2666 2017 2711 
Q 1966 2756 1847 2763 
L 1847 2863 
L 3091 2863 
L 3091 2763 
Q 2834 2756 2664 2684 
Q 2494 2613 2291 2428 
L 1556 1750 
L 2291 822 
Q 2597 438 2703 334 
Q 2853 188 2966 144 
Q 3044 113 3238 113 
L 3238 0 
L 1847 0 
L 1847 113 
Q 1966 116 2008 148 
Q 2050 181 2050 241 
Q 2050 313 1925 472 
L 1047 1594 
L 1047 644 
Q 1047 366 1086 278 
Q 1125 191 1197 153 
Q 1269 116 1509 113 
L 1509 0 
L 53 0 
L 53 113 
Q 272 113 381 166 
Q 447 200 481 272 
Q 528 375 528 628 
L 528 3234 
Q 528 3731 506 3842 
Q 484 3953 434 3995 
Q 384 4038 303 4038 
Q 238 4038 106 3984 
L 53 4094 
L 903 4444 
L 1047 4444 
z
" transform="scale(0.015625)"/>
      <path id="TimesNewRomanPSMT-2d" d="M 259 1672 
L 1875 1672 
L 1875 1200 
L 259 1200 
L 259 1672 
z
" transform="scale(0.015625)"/>
      <path id="TimesNewRomanPSMT-73" d="M 2050 2947 
L 2050 1972 
L 1947 1972 
Q 1828 2431 1642 2597 
Q 1456 2763 1169 2763 
Q 950 2763 815 2647 
Q 681 2531 681 2391 
Q 681 2216 781 2091 
Q 878 1963 1175 1819 
L 1631 1597 
Q 2266 1288 2266 781 
Q 2266 391 1970 151 
Q 1675 -88 1309 -88 
Q 1047 -88 709 6 
Q 606 38 541 38 
Q 469 38 428 -44 
L 325 -44 
L 325 978 
L 428 978 
Q 516 541 762 319 
Q 1009 97 1316 97 
Q 1531 97 1667 223 
Q 1803 350 1803 528 
Q 1803 744 1651 891 
Q 1500 1038 1047 1263 
Q 594 1488 453 1669 
Q 313 1847 313 2119 
Q 313 2472 555 2709 
Q 797 2947 1181 2947 
Q 1350 2947 1591 2875 
Q 1750 2828 1803 2828 
Q 1853 2828 1881 2850 
Q 1909 2872 1947 2947 
L 2050 2947 
z
" transform="scale(0.015625)"/>
      <path id="TimesNewRomanPSMT-6e" d="M 1034 2341 
Q 1538 2947 1994 2947 
Q 2228 2947 2397 2830 
Q 2566 2713 2666 2444 
Q 2734 2256 2734 1869 
L 2734 647 
Q 2734 375 2778 278 
Q 2813 200 2889 156 
Q 2966 113 3172 113 
L 3172 0 
L 1756 0 
L 1756 113 
L 1816 113 
Q 2016 113 2095 173 
Q 2175 234 2206 353 
Q 2219 400 2219 647 
L 2219 1819 
Q 2219 2209 2117 2386 
Q 2016 2563 1775 2563 
Q 1403 2563 1034 2156 
L 1034 647 
Q 1034 356 1069 288 
Q 1113 197 1189 155 
Q 1266 113 1500 113 
L 1500 0 
L 84 0 
L 84 113 
L 147 113 
Q 366 113 442 223 
Q 519 334 519 647 
L 519 1709 
Q 519 2225 495 2337 
Q 472 2450 423 2490 
Q 375 2531 294 2531 
Q 206 2531 84 2484 
L 38 2597 
L 900 2947 
L 1034 2947 
L 1034 2341 
z
" transform="scale(0.015625)"/>
      <path id="TimesNewRomanPSMT-76" d="M 53 2863 
L 1400 2863 
L 1400 2747 
L 1313 2747 
Q 1191 2747 1127 2687 
Q 1063 2628 1063 2528 
Q 1063 2419 1128 2269 
L 1794 688 
L 2463 2328 
Q 2534 2503 2534 2594 
Q 2534 2638 2509 2666 
Q 2475 2713 2422 2730 
Q 2369 2747 2206 2747 
L 2206 2863 
L 3141 2863 
L 3141 2747 
Q 2978 2734 2916 2681 
Q 2806 2588 2719 2369 
L 1703 -88 
L 1575 -88 
L 553 2328 
Q 484 2497 421 2570 
Q 359 2644 263 2694 
Q 209 2722 53 2747 
L 53 2863 
z
" transform="scale(0.015625)"/>
      <path id="TimesNewRomanPSMT-69" d="M 928 4444 
Q 1059 4444 1151 4351 
Q 1244 4259 1244 4128 
Q 1244 3997 1151 3903 
Q 1059 3809 928 3809 
Q 797 3809 703 3903 
Q 609 3997 609 4128 
Q 609 4259 701 4351 
Q 794 4444 928 4444 
z
M 1188 2947 
L 1188 647 
Q 1188 378 1227 289 
Q 1266 200 1342 156 
Q 1419 113 1622 113 
L 1622 0 
L 231 0 
L 231 113 
Q 441 113 512 153 
Q 584 194 626 287 
Q 669 381 669 647 
L 669 1750 
Q 669 2216 641 2353 
Q 619 2453 572 2492 
Q 525 2531 444 2531 
Q 356 2531 231 2484 
L 188 2597 
L 1050 2947 
L 1188 2947 
z
" transform="scale(0.015625)"/>
     </defs>
     <use xlink:href="#TimesNewRomanPSMT-41"/>
     <use xlink:href="#TimesNewRomanPSMT-63" transform="translate(72.216797 0)"/>
     <use xlink:href="#TimesNewRomanPSMT-63" transform="translate(116.601562 0)"/>
     <use xlink:href="#TimesNewRomanPSMT-75" transform="translate(160.986328 0)"/>
     <use xlink:href="#TimesNewRomanPSMT-72" transform="translate(210.986328 0)"/>
     <use xlink:href="#TimesNewRomanPSMT-61" transform="translate(244.287109 0)"/>
     <use xlink:href="#TimesNewRomanPSMT-63" transform="translate(288.671875 0)"/>
     <use xlink:href="#TimesNewRomanPSMT-79" transform="translate(333.056641 0)"/>
     <use xlink:href="#TimesNewRomanPSMT-20" transform="translate(383.056641 0)"/>
     <use xlink:href="#TimesNewRomanPSMT-6f" transform="translate(408.056641 0)"/>
     <use xlink:href="#TimesNewRomanPSMT-66" transform="translate(458.056641 0)"/>
     <use xlink:href="#TimesNewRomanPSMT-20" transform="translate(491.357422 0)"/>
     <use xlink:href="#TimesNewRomanPSMT-74" transform="translate(516.357422 0)"/>
     <use xlink:href="#TimesNewRomanPSMT-68" transform="translate(544.140625 0)"/>
     <use xlink:href="#TimesNewRomanPSMT-65" transform="translate(594.140625 0)"/>
     <use xlink:href="#TimesNewRomanPSMT-20" transform="translate(638.525391 0)"/>
     <use xlink:href="#TimesNewRomanPSMT-30" transform="translate(663.525391 0)"/>
     <use xlink:href="#TimesNewRomanPSMT-39" transform="translate(713.525391 0)"/>
     <use xlink:href="#TimesNewRomanPSMT-5f" transform="translate(763.525391 0)"/>
     <use xlink:href="#TimesNewRomanPSMT-30" transform="translate(813.525391 0)"/>
     <use xlink:href="#TimesNewRomanPSMT-37" transform="translate(863.525391 0)"/>
     <use xlink:href="#TimesNewRomanPSMT-5f" transform="translate(913.525391 0)"/>
     <use xlink:href="#TimesNewRomanPSMT-32" transform="translate(963.525391 0)"/>
     <use xlink:href="#TimesNewRomanPSMT-35" transform="translate(1013.525391 0)"/>
     <use xlink:href="#TimesNewRomanPSMT-5f" transform="translate(1063.525391 0)"/>
     <use xlink:href="#TimesNewRomanPSMT-43" transform="translate(1113.525391 0)"/>
     <use xlink:href="#TimesNewRomanPSMT-49" transform="translate(1180.224609 0)"/>
     <use xlink:href="#TimesNewRomanPSMT-4e" transform="translate(1213.525391 0)"/>
     <use xlink:href="#TimesNewRomanPSMT-49" transform="translate(1285.742188 0)"/>
     <use xlink:href="#TimesNewRomanPSMT-43" transform="translate(1319.042969 0)"/>
     <use xlink:href="#TimesNewRomanPSMT-31" transform="translate(1385.742188 0)"/>
     <use xlink:href="#TimesNewRomanPSMT-30" transform="translate(1435.742188 0)"/>
     <use xlink:href="#TimesNewRomanPSMT-5f" transform="translate(1485.742188 0)"/>
     <use xlink:href="#TimesNewRomanPSMT-74" transform="translate(1535.742188 0)"/>
     <use xlink:href="#TimesNewRomanPSMT-6f" transform="translate(1563.525391 0)"/>
     <use xlink:href="#TimesNewRomanPSMT-72" transform="translate(1613.525391 0)"/>
     <use xlink:href="#TimesNewRomanPSMT-63" transform="translate(1646.826172 0)"/>
     <use xlink:href="#TimesNewRomanPSMT-68" transform="translate(1691.210938 0)"/>
     <use xlink:href="#TimesNewRomanPSMT-5f" transform="translate(1741.210938 0)"/>
     <use xlink:href="#TimesNewRomanPSMT-6d" transform="translate(1791.210938 0)"/>
     <use xlink:href="#TimesNewRomanPSMT-6f" transform="translate(1868.994141 0)"/>
     <use xlink:href="#TimesNewRomanPSMT-64" transform="translate(1918.994141 0)"/>
     <use xlink:href="#TimesNewRomanPSMT-65" transform="translate(1968.994141 0)"/>
     <use xlink:href="#TimesNewRomanPSMT-6c" transform="translate(2013.378906 0)"/>
     <use xlink:href="#TimesNewRomanPSMT-5f" transform="translate(2041.162109 0)"/>
     <use xlink:href="#TimesNewRomanPSMT-28" transform="translate(2091.162109 0)"/>
     <use xlink:href="#TimesNewRomanPSMT-31" transform="translate(2124.462891 0)"/>
     <use xlink:href="#TimesNewRomanPSMT-30" transform="translate(2174.462891 0)"/>
     <use xlink:href="#TimesNewRomanPSMT-32" transform="translate(2224.462891 0)"/>
     <use xlink:href="#TimesNewRomanPSMT-34" transform="translate(2274.462891 0)"/>
     <use xlink:href="#TimesNewRomanPSMT-2b" transform="translate(2324.462891 0)"/>
     <use xlink:href="#TimesNewRomanPSMT-35" transform="translate(2380.859375 0)"/>
     <use xlink:href="#TimesNewRomanPSMT-31" transform="translate(2430.859375 0)"/>
     <use xlink:href="#TimesNewRomanPSMT-32" transform="translate(2480.859375 0)"/>
     <use xlink:href="#TimesNewRomanPSMT-2e" transform="translate(2530.859375 0)"/>
     <use xlink:href="#TimesNewRomanPSMT-33" transform="translate(2555.859375 0)"/>
     <use xlink:href="#TimesNewRomanPSMT-2b" transform="translate(2605.859375 0)"/>
     <use xlink:href="#TimesNewRomanPSMT-31" transform="translate(2662.255859 0)"/>
     <use xlink:href="#TimesNewRomanPSMT-29" transform="translate(2712.255859 0)"/>
     <use xlink:href="#TimesNewRomanPSMT-5f" transform="translate(2745.556641 0)"/>
     <use xlink:href="#TimesNewRomanPSMT-65" transform="translate(2795.556641 0)"/>
     <use xlink:href="#TimesNewRomanPSMT-6c" transform="translate(2839.941406 0)"/>
     <use xlink:href="#TimesNewRomanPSMT-6b" transform="translate(2867.724609 0)"/>
     <use xlink:href="#TimesNewRomanPSMT-2d" transform="translate(2917.724609 0)"/>
     <use xlink:href="#TimesNewRomanPSMT-68" transform="translate(2951.025391 0)"/>
     <use xlink:href="#TimesNewRomanPSMT-6f" transform="translate(3001.025391 0)"/>
     <use xlink:href="#TimesNewRomanPSMT-72" transform="translate(3051.025391 0)"/>
     <use xlink:href="#TimesNewRomanPSMT-73" transform="translate(3084.326172 0)"/>
     <use xlink:href="#TimesNewRomanPSMT-65" transform="translate(3123.242188 0)"/>
     <use xlink:href="#TimesNewRomanPSMT-20" transform="translate(3167.626953 0)"/>
     <use xlink:href="#TimesNewRomanPSMT-6f" transform="translate(3192.626953 0)"/>
     <use xlink:href="#TimesNewRomanPSMT-6e" transform="translate(3242.626953 0)"/>
     <use xlink:href="#TimesNewRomanPSMT-20" transform="translate(3292.626953 0)"/>
     <use xlink:href="#TimesNewRomanPSMT-74" transform="translate(3317.626953 0)"/>
     <use xlink:href="#TimesNewRomanPSMT-68" transform="translate(3345.410156 0)"/>
     <use xlink:href="#TimesNewRomanPSMT-65" transform="translate(3395.410156 0)"/>
     <use xlink:href="#TimesNewRomanPSMT-20" transform="translate(3439.794922 0)"/>
     <use xlink:href="#TimesNewRomanPSMT-76" transform="translate(3464.794922 0)"/>
     <use xlink:href="#TimesNewRomanPSMT-61" transform="translate(3514.794922 0)"/>
     <use xlink:href="#TimesNewRomanPSMT-6c" transform="translate(3559.179688 0)"/>
     <use xlink:href="#TimesNewRomanPSMT-69" transform="translate(3586.962891 0)"/>
     <use xlink:href="#TimesNewRomanPSMT-64" transform="translate(3614.746094 0)"/>
     <use xlink:href="#TimesNewRomanPSMT-61" transform="translate(3664.746094 0)"/>
     <use xlink:href="#TimesNewRomanPSMT-74" transform="translate(3709.130859 0)"/>
     <use xlink:href="#TimesNewRomanPSMT-69" transform="translate(3736.914062 0)"/>
     <use xlink:href="#TimesNewRomanPSMT-6f" transform="translate(3764.697266 0)"/>
     <use xlink:href="#TimesNewRomanPSMT-6e" transform="translate(3814.697266 0)"/>
     <use xlink:href="#TimesNewRomanPSMT-20" transform="translate(3864.697266 0)"/>
     <use xlink:href="#TimesNewRomanPSMT-73" transform="translate(3889.697266 0)"/>
     <use xlink:href="#TimesNewRomanPSMT-65" transform="translate(3928.613281 0)"/>
     <use xlink:href="#TimesNewRomanPSMT-74" transform="translate(3972.998047 0)"/>
    </g>
   </g>
   <g id="legend_1">
    <g id="patch_7">
     <path d="M 461.296938 94.278687 
L 698.46725 94.278687 
Q 702.86725 94.278687 702.86725 89.878687 
L 702.86725 60.9315 
Q 702.86725 56.5315 698.46725 56.5315 
L 461.296938 56.5315 
Q 456.896938 56.5315 456.896938 60.9315 
L 456.896938 89.878687 
Q 456.896938 94.278687 461.296938 94.278687 
z
" style="fill: #ffffff; opacity: 0.8; stroke: #cccccc; stroke-linejoin: miter"/>
    </g>
    <g id="line2d_32">
     <path d="M 465.696938 73.0315 
L 487.696938 73.0315 
L 509.696938 73.0315 
" style="fill: none; stroke: #1f77b4; stroke-width: 1.5; stroke-linecap: square"/>
    </g>
    <g id="text_19">
     <!-- Best accuracy 0.73 -->
     <g transform="translate(527.296938 80.7315) scale(0.22 -0.22)">
      <defs>
       <path id="TimesNewRomanPSMT-42" d="M 2956 2163 
Q 3397 2069 3616 1863 
Q 3919 1575 3919 1159 
Q 3919 844 3719 555 
Q 3519 266 3170 133 
Q 2822 0 2106 0 
L 106 0 
L 106 116 
L 266 116 
Q 531 116 647 284 
Q 719 394 719 750 
L 719 3488 
Q 719 3881 628 3984 
Q 506 4122 266 4122 
L 106 4122 
L 106 4238 
L 1938 4238 
Q 2450 4238 2759 4163 
Q 3228 4050 3475 3764 
Q 3722 3478 3722 3106 
Q 3722 2788 3528 2536 
Q 3334 2284 2956 2163 
z
M 1319 2331 
Q 1434 2309 1582 2298 
Q 1731 2288 1909 2288 
Q 2366 2288 2595 2386 
Q 2825 2484 2947 2687 
Q 3069 2891 3069 3131 
Q 3069 3503 2766 3765 
Q 2463 4028 1881 4028 
Q 1569 4028 1319 3959 
L 1319 2331 
z
M 1319 306 
Q 1681 222 2034 222 
Q 2600 222 2897 476 
Q 3194 731 3194 1106 
Q 3194 1353 3059 1581 
Q 2925 1809 2622 1940 
Q 2319 2072 1872 2072 
Q 1678 2072 1540 2065 
Q 1403 2059 1319 2044 
L 1319 306 
z
" transform="scale(0.015625)"/>
      </defs>
      <use xlink:href="#TimesNewRomanPSMT-42"/>
      <use xlink:href="#TimesNewRomanPSMT-65" transform="translate(66.699219 0)"/>
      <use xlink:href="#TimesNewRomanPSMT-73" transform="translate(111.083984 0)"/>
      <use xlink:href="#TimesNewRomanPSMT-74" transform="translate(150 0)"/>
      <use xlink:href="#TimesNewRomanPSMT-20" transform="translate(177.783203 0)"/>
      <use xlink:href="#TimesNewRomanPSMT-61" transform="translate(202.783203 0)"/>
      <use xlink:href="#TimesNewRomanPSMT-63" transform="translate(247.167969 0)"/>
      <use xlink:href="#TimesNewRomanPSMT-63" transform="translate(291.552734 0)"/>
      <use xlink:href="#TimesNewRomanPSMT-75" transform="translate(335.9375 0)"/>
      <use xlink:href="#TimesNewRomanPSMT-72" transform="translate(385.9375 0)"/>
      <use xlink:href="#TimesNewRomanPSMT-61" transform="translate(419.238281 0)"/>
      <use xlink:href="#TimesNewRomanPSMT-63" transform="translate(463.623047 0)"/>
      <use xlink:href="#TimesNewRomanPSMT-79" transform="translate(508.007812 0)"/>
      <use xlink:href="#TimesNewRomanPSMT-20" transform="translate(558.007812 0)"/>
      <use xlink:href="#TimesNewRomanPSMT-30" transform="translate(583.007812 0)"/>
      <use xlink:href="#TimesNewRomanPSMT-2e" transform="translate(633.007812 0)"/>
      <use xlink:href="#TimesNewRomanPSMT-37" transform="translate(658.007812 0)"/>
      <use xlink:href="#TimesNewRomanPSMT-33" transform="translate(708.007812 0)"/>
     </g>
    </g>
   </g>
  </g>
 </g>
 <defs>
  <clipPath id="p7d926ab5d8">
   <rect x="356.74725" y="45.5315" width="357.12" height="266.112"/>
  </clipPath>
 </defs>
</svg>
