<?xml version="1.0" encoding="utf-8" standalone="no"?>
<!DOCTYPE svg PUBLIC "-//W3C//DTD SVG 1.1//EN"
  "http://www.w3.org/Graphics/SVG/1.1/DTD/svg11.dtd">
<svg xmlns:xlink="http://www.w3.org/1999/xlink" width="776.242125pt" height="369.807875pt" viewBox="0 0 776.242125 369.807875" xmlns="http://www.w3.org/2000/svg" version="1.1">
 <metadata>
  <rdf:RDF xmlns:dc="http://purl.org/dc/elements/1.1/" xmlns:cc="http://creativecommons.org/ns#" xmlns:rdf="http://www.w3.org/1999/02/22-rdf-syntax-ns#">
   <cc:Work>
    <dc:type rdf:resource="http://purl.org/dc/dcmitype/StillImage"/>
    <dc:date>2025-05-12T14:43:13.264889</dc:date>
    <dc:format>image/svg+xml</dc:format>
    <dc:creator>
     <cc:Agent>
      <dc:title>Matplotlib v3.10.1, https://matplotlib.org/</dc:title>
     </cc:Agent>
    </dc:creator>
   </cc:Work>
  </rdf:RDF>
 </metadata>
 <defs>
  <style type="text/css">*{stroke-linejoin: round; stroke-linecap: butt}</style>
 </defs>
 <g id="figure_1">
  <g id="patch_1">
   <path d="M 0 369.807875 
L 776.242125 369.807875 
L 776.242125 0 
L 0 0 
z
" style="fill: #ffffff"/>
  </g>
  <g id="axes_1">
   <g id="patch_2">
    <path d="M 209.561063 311.6435 
L 566.681063 311.6435 
L 566.681063 45.5315 
L 209.561063 45.5315 
z
" style="fill: #ffffff"/>
   </g>
   <g id="matplotlib.axis_1">
    <g id="xtick_1">
     <g id="line2d_1">
      <path d="M 209.561063 311.6435 
L 209.561063 45.5315 
" clip-path="url(#p7761910ddd)" style="fill: none; stroke: #b0b0b0; stroke-opacity: 0.3; stroke-width: 0.8; stroke-linecap: square"/>
     </g>
     <g id="line2d_2">
      <defs>
       <path id="m1cde80f9f3" d="M 0 0 
L 0 3.5 
" style="stroke: #000000; stroke-width: 0.8"/>
      </defs>
      <g>
       <use xlink:href="#m1cde80f9f3" x="209.561063" y="311.6435" style="stroke: #000000; stroke-width: 0.8"/>
      </g>
     </g>
     <g id="text_1">
      <!-- 0 -->
      <g transform="translate(204.061063 333.91975) scale(0.22 -0.22)">
       <defs>
        <path id="TimesNewRomanPSMT-30" d="M 231 2094 
Q 231 2819 450 3342 
Q 669 3866 1031 4122 
Q 1313 4325 1613 4325 
Q 2100 4325 2488 3828 
Q 2972 3213 2972 2159 
Q 2972 1422 2759 906 
Q 2547 391 2217 158 
Q 1888 -75 1581 -75 
Q 975 -75 572 641 
Q 231 1244 231 2094 
z
M 844 2016 
Q 844 1141 1059 588 
Q 1238 122 1591 122 
Q 1759 122 1940 273 
Q 2122 425 2216 781 
Q 2359 1319 2359 2297 
Q 2359 3022 2209 3506 
Q 2097 3866 1919 4016 
Q 1791 4119 1609 4119 
Q 1397 4119 1231 3928 
Q 1006 3669 925 3112 
Q 844 2556 844 2016 
z
" transform="scale(0.015625)"/>
       </defs>
       <use xlink:href="#TimesNewRomanPSMT-30"/>
      </g>
     </g>
    </g>
    <g id="xtick_2">
     <g id="line2d_3">
      <path d="M 351.050761 311.6435 
L 351.050761 45.5315 
" clip-path="url(#p7761910ddd)" style="fill: none; stroke: #b0b0b0; stroke-opacity: 0.3; stroke-width: 0.8; stroke-linecap: square"/>
     </g>
     <g id="line2d_4">
      <g>
       <use xlink:href="#m1cde80f9f3" x="351.050761" y="311.6435" style="stroke: #000000; stroke-width: 0.8"/>
      </g>
     </g>
     <g id="text_2">
      <!-- 5000 -->
      <g transform="translate(329.050761 333.91975) scale(0.22 -0.22)">
       <defs>
        <path id="TimesNewRomanPSMT-35" d="M 2778 4238 
L 2534 3706 
L 1259 3706 
L 981 3138 
Q 1809 3016 2294 2522 
Q 2709 2097 2709 1522 
Q 2709 1188 2573 903 
Q 2438 619 2231 419 
Q 2025 219 1772 97 
Q 1413 -75 1034 -75 
Q 653 -75 479 54 
Q 306 184 306 341 
Q 306 428 378 495 
Q 450 563 559 563 
Q 641 563 702 538 
Q 763 513 909 409 
Q 1144 247 1384 247 
Q 1750 247 2026 523 
Q 2303 800 2303 1197 
Q 2303 1581 2056 1914 
Q 1809 2247 1375 2428 
Q 1034 2569 447 2591 
L 1259 4238 
L 2778 4238 
z
" transform="scale(0.015625)"/>
       </defs>
       <use xlink:href="#TimesNewRomanPSMT-35"/>
       <use xlink:href="#TimesNewRomanPSMT-30" transform="translate(50 0)"/>
       <use xlink:href="#TimesNewRomanPSMT-30" transform="translate(100 0)"/>
       <use xlink:href="#TimesNewRomanPSMT-30" transform="translate(150 0)"/>
      </g>
     </g>
    </g>
    <g id="xtick_3">
     <g id="line2d_5">
      <path d="M 492.54046 311.6435 
L 492.54046 45.5315 
" clip-path="url(#p7761910ddd)" style="fill: none; stroke: #b0b0b0; stroke-opacity: 0.3; stroke-width: 0.8; stroke-linecap: square"/>
     </g>
     <g id="line2d_6">
      <g>
       <use xlink:href="#m1cde80f9f3" x="492.54046" y="311.6435" style="stroke: #000000; stroke-width: 0.8"/>
      </g>
     </g>
     <g id="text_3">
      <!-- 10000 -->
      <g transform="translate(465.04046 333.91975) scale(0.22 -0.22)">
       <defs>
        <path id="TimesNewRomanPSMT-31" d="M 750 3822 
L 1781 4325 
L 1884 4325 
L 1884 747 
Q 1884 391 1914 303 
Q 1944 216 2037 169 
Q 2131 122 2419 116 
L 2419 0 
L 825 0 
L 825 116 
Q 1125 122 1212 167 
Q 1300 213 1334 289 
Q 1369 366 1369 747 
L 1369 3034 
Q 1369 3497 1338 3628 
Q 1316 3728 1258 3775 
Q 1200 3822 1119 3822 
Q 1003 3822 797 3725 
L 750 3822 
z
" transform="scale(0.015625)"/>
       </defs>
       <use xlink:href="#TimesNewRomanPSMT-31"/>
       <use xlink:href="#TimesNewRomanPSMT-30" transform="translate(50 0)"/>
       <use xlink:href="#TimesNewRomanPSMT-30" transform="translate(100 0)"/>
       <use xlink:href="#TimesNewRomanPSMT-30" transform="translate(150 0)"/>
       <use xlink:href="#TimesNewRomanPSMT-30" transform="translate(200 0)"/>
      </g>
     </g>
    </g>
    <g id="text_4">
     <!-- Number of iterations -->
     <g transform="translate(296.479031 357.901937) scale(0.22 -0.22)">
      <defs>
       <path id="TimesNewRomanPSMT-4e" d="M -84 4238 
L 1066 4238 
L 3656 1059 
L 3656 3503 
Q 3656 3894 3569 3991 
Q 3453 4122 3203 4122 
L 3056 4122 
L 3056 4238 
L 4531 4238 
L 4531 4122 
L 4381 4122 
Q 4113 4122 4000 3959 
Q 3931 3859 3931 3503 
L 3931 -69 
L 3819 -69 
L 1025 3344 
L 1025 734 
Q 1025 344 1109 247 
Q 1228 116 1475 116 
L 1625 116 
L 1625 0 
L 150 0 
L 150 116 
L 297 116 
Q 569 116 681 278 
Q 750 378 750 734 
L 750 3681 
Q 566 3897 470 3965 
Q 375 4034 191 4094 
Q 100 4122 -84 4122 
L -84 4238 
z
" transform="scale(0.015625)"/>
       <path id="TimesNewRomanPSMT-75" d="M 2709 2863 
L 2709 1128 
Q 2709 631 2732 520 
Q 2756 409 2807 365 
Q 2859 322 2928 322 
Q 3025 322 3147 375 
L 3191 266 
L 2334 -88 
L 2194 -88 
L 2194 519 
Q 1825 119 1631 15 
Q 1438 -88 1222 -88 
Q 981 -88 804 51 
Q 628 191 559 409 
Q 491 628 491 1028 
L 491 2306 
Q 491 2509 447 2587 
Q 403 2666 317 2708 
Q 231 2750 6 2747 
L 6 2863 
L 1009 2863 
L 1009 947 
Q 1009 547 1148 422 
Q 1288 297 1484 297 
Q 1619 297 1789 381 
Q 1959 466 2194 703 
L 2194 2325 
Q 2194 2569 2105 2655 
Q 2016 2741 1734 2747 
L 1734 2863 
L 2709 2863 
z
" transform="scale(0.015625)"/>
       <path id="TimesNewRomanPSMT-6d" d="M 1050 2338 
Q 1363 2650 1419 2697 
Q 1559 2816 1721 2881 
Q 1884 2947 2044 2947 
Q 2313 2947 2506 2790 
Q 2700 2634 2766 2338 
Q 3088 2713 3309 2830 
Q 3531 2947 3766 2947 
Q 3994 2947 4170 2830 
Q 4347 2713 4450 2447 
Q 4519 2266 4519 1878 
L 4519 647 
Q 4519 378 4559 278 
Q 4591 209 4675 161 
Q 4759 113 4950 113 
L 4950 0 
L 3538 0 
L 3538 113 
L 3597 113 
Q 3781 113 3884 184 
Q 3956 234 3988 344 
Q 4000 397 4000 647 
L 4000 1878 
Q 4000 2228 3916 2372 
Q 3794 2572 3525 2572 
Q 3359 2572 3192 2489 
Q 3025 2406 2788 2181 
L 2781 2147 
L 2788 2013 
L 2788 647 
Q 2788 353 2820 281 
Q 2853 209 2943 161 
Q 3034 113 3253 113 
L 3253 0 
L 1806 0 
L 1806 113 
Q 2044 113 2133 169 
Q 2222 225 2256 338 
Q 2272 391 2272 647 
L 2272 1878 
Q 2272 2228 2169 2381 
Q 2031 2581 1784 2581 
Q 1616 2581 1450 2491 
Q 1191 2353 1050 2181 
L 1050 647 
Q 1050 366 1089 281 
Q 1128 197 1204 155 
Q 1281 113 1516 113 
L 1516 0 
L 100 0 
L 100 113 
Q 297 113 375 155 
Q 453 197 493 289 
Q 534 381 534 647 
L 534 1741 
Q 534 2213 506 2350 
Q 484 2453 437 2492 
Q 391 2531 309 2531 
Q 222 2531 100 2484 
L 53 2597 
L 916 2947 
L 1050 2947 
L 1050 2338 
z
" transform="scale(0.015625)"/>
       <path id="TimesNewRomanPSMT-62" d="M 984 2369 
Q 1400 2947 1881 2947 
Q 2322 2947 2650 2570 
Q 2978 2194 2978 1541 
Q 2978 778 2472 313 
Q 2038 -88 1503 -88 
Q 1253 -88 995 3 
Q 738 94 469 275 
L 469 3241 
Q 469 3728 445 3840 
Q 422 3953 372 3993 
Q 322 4034 247 4034 
Q 159 4034 28 3984 
L -16 4094 
L 844 4444 
L 984 4444 
L 984 2369 
z
M 984 2169 
L 984 456 
Q 1144 300 1314 220 
Q 1484 141 1663 141 
Q 1947 141 2192 453 
Q 2438 766 2438 1363 
Q 2438 1913 2192 2208 
Q 1947 2503 1634 2503 
Q 1469 2503 1303 2419 
Q 1178 2356 984 2169 
z
" transform="scale(0.015625)"/>
       <path id="TimesNewRomanPSMT-65" d="M 681 1784 
Q 678 1147 991 784 
Q 1303 422 1725 422 
Q 2006 422 2214 576 
Q 2422 731 2563 1106 
L 2659 1044 
Q 2594 616 2278 264 
Q 1963 -88 1488 -88 
Q 972 -88 605 314 
Q 238 716 238 1394 
Q 238 2128 614 2539 
Q 991 2950 1559 2950 
Q 2041 2950 2350 2633 
Q 2659 2316 2659 1784 
L 681 1784 
z
M 681 1966 
L 2006 1966 
Q 1991 2241 1941 2353 
Q 1863 2528 1708 2628 
Q 1553 2728 1384 2728 
Q 1125 2728 920 2526 
Q 716 2325 681 1966 
z
" transform="scale(0.015625)"/>
       <path id="TimesNewRomanPSMT-72" d="M 1038 2947 
L 1038 2303 
Q 1397 2947 1775 2947 
Q 1947 2947 2059 2842 
Q 2172 2738 2172 2600 
Q 2172 2478 2090 2393 
Q 2009 2309 1897 2309 
Q 1788 2309 1652 2417 
Q 1516 2525 1450 2525 
Q 1394 2525 1328 2463 
Q 1188 2334 1038 2041 
L 1038 669 
Q 1038 431 1097 309 
Q 1138 225 1241 169 
Q 1344 113 1538 113 
L 1538 0 
L 72 0 
L 72 113 
Q 291 113 397 181 
Q 475 231 506 341 
Q 522 394 522 644 
L 522 1753 
Q 522 2253 501 2348 
Q 481 2444 426 2487 
Q 372 2531 291 2531 
Q 194 2531 72 2484 
L 41 2597 
L 906 2947 
L 1038 2947 
z
" transform="scale(0.015625)"/>
       <path id="TimesNewRomanPSMT-20" transform="scale(0.015625)"/>
       <path id="TimesNewRomanPSMT-6f" d="M 1600 2947 
Q 2250 2947 2644 2453 
Q 2978 2031 2978 1484 
Q 2978 1100 2793 706 
Q 2609 313 2286 112 
Q 1963 -88 1566 -88 
Q 919 -88 538 428 
Q 216 863 216 1403 
Q 216 1797 411 2186 
Q 606 2575 925 2761 
Q 1244 2947 1600 2947 
z
M 1503 2744 
Q 1338 2744 1170 2645 
Q 1003 2547 900 2300 
Q 797 2053 797 1666 
Q 797 1041 1045 587 
Q 1294 134 1700 134 
Q 2003 134 2200 384 
Q 2397 634 2397 1244 
Q 2397 2006 2069 2444 
Q 1847 2744 1503 2744 
z
" transform="scale(0.015625)"/>
       <path id="TimesNewRomanPSMT-66" d="M 1319 2638 
L 1319 756 
Q 1319 356 1406 250 
Q 1522 113 1716 113 
L 1975 113 
L 1975 0 
L 266 0 
L 266 113 
L 394 113 
Q 519 113 622 175 
Q 725 238 764 344 
Q 803 450 803 756 
L 803 2638 
L 247 2638 
L 247 2863 
L 803 2863 
L 803 3050 
Q 803 3478 940 3775 
Q 1078 4072 1361 4255 
Q 1644 4438 1997 4438 
Q 2325 4438 2600 4225 
Q 2781 4084 2781 3909 
Q 2781 3816 2700 3733 
Q 2619 3650 2525 3650 
Q 2453 3650 2373 3701 
Q 2294 3753 2178 3923 
Q 2063 4094 1966 4153 
Q 1869 4213 1750 4213 
Q 1606 4213 1506 4136 
Q 1406 4059 1362 3898 
Q 1319 3738 1319 3069 
L 1319 2863 
L 2056 2863 
L 2056 2638 
L 1319 2638 
z
" transform="scale(0.015625)"/>
       <path id="TimesNewRomanPSMT-69" d="M 928 4444 
Q 1059 4444 1151 4351 
Q 1244 4259 1244 4128 
Q 1244 3997 1151 3903 
Q 1059 3809 928 3809 
Q 797 3809 703 3903 
Q 609 3997 609 4128 
Q 609 4259 701 4351 
Q 794 4444 928 4444 
z
M 1188 2947 
L 1188 647 
Q 1188 378 1227 289 
Q 1266 200 1342 156 
Q 1419 113 1622 113 
L 1622 0 
L 231 0 
L 231 113 
Q 441 113 512 153 
Q 584 194 626 287 
Q 669 381 669 647 
L 669 1750 
Q 669 2216 641 2353 
Q 619 2453 572 2492 
Q 525 2531 444 2531 
Q 356 2531 231 2484 
L 188 2597 
L 1050 2947 
L 1188 2947 
z
" transform="scale(0.015625)"/>
       <path id="TimesNewRomanPSMT-74" d="M 1031 3803 
L 1031 2863 
L 1700 2863 
L 1700 2644 
L 1031 2644 
L 1031 788 
Q 1031 509 1111 412 
Q 1191 316 1316 316 
Q 1419 316 1516 380 
Q 1613 444 1666 569 
L 1788 569 
Q 1678 263 1478 108 
Q 1278 -47 1066 -47 
Q 922 -47 784 33 
Q 647 113 581 261 
Q 516 409 516 719 
L 516 2644 
L 63 2644 
L 63 2747 
Q 234 2816 414 2980 
Q 594 3144 734 3369 
Q 806 3488 934 3803 
L 1031 3803 
z
" transform="scale(0.015625)"/>
       <path id="TimesNewRomanPSMT-61" d="M 1822 413 
Q 1381 72 1269 19 
Q 1100 -59 909 -59 
Q 613 -59 420 144 
Q 228 347 228 678 
Q 228 888 322 1041 
Q 450 1253 767 1440 
Q 1084 1628 1822 1897 
L 1822 2009 
Q 1822 2438 1686 2597 
Q 1550 2756 1291 2756 
Q 1094 2756 978 2650 
Q 859 2544 859 2406 
L 866 2225 
Q 866 2081 792 2003 
Q 719 1925 600 1925 
Q 484 1925 411 2006 
Q 338 2088 338 2228 
Q 338 2497 613 2722 
Q 888 2947 1384 2947 
Q 1766 2947 2009 2819 
Q 2194 2722 2281 2516 
Q 2338 2381 2338 1966 
L 2338 994 
Q 2338 584 2353 492 
Q 2369 400 2405 369 
Q 2441 338 2488 338 
Q 2538 338 2575 359 
Q 2641 400 2828 588 
L 2828 413 
Q 2478 -56 2159 -56 
Q 2006 -56 1915 50 
Q 1825 156 1822 413 
z
M 1822 616 
L 1822 1706 
Q 1350 1519 1213 1441 
Q 966 1303 859 1153 
Q 753 1003 753 825 
Q 753 600 887 451 
Q 1022 303 1197 303 
Q 1434 303 1822 616 
z
" transform="scale(0.015625)"/>
       <path id="TimesNewRomanPSMT-6e" d="M 1034 2341 
Q 1538 2947 1994 2947 
Q 2228 2947 2397 2830 
Q 2566 2713 2666 2444 
Q 2734 2256 2734 1869 
L 2734 647 
Q 2734 375 2778 278 
Q 2813 200 2889 156 
Q 2966 113 3172 113 
L 3172 0 
L 1756 0 
L 1756 113 
L 1816 113 
Q 2016 113 2095 173 
Q 2175 234 2206 353 
Q 2219 400 2219 647 
L 2219 1819 
Q 2219 2209 2117 2386 
Q 2016 2563 1775 2563 
Q 1403 2563 1034 2156 
L 1034 647 
Q 1034 356 1069 288 
Q 1113 197 1189 155 
Q 1266 113 1500 113 
L 1500 0 
L 84 0 
L 84 113 
L 147 113 
Q 366 113 442 223 
Q 519 334 519 647 
L 519 1709 
Q 519 2225 495 2337 
Q 472 2450 423 2490 
Q 375 2531 294 2531 
Q 206 2531 84 2484 
L 38 2597 
L 900 2947 
L 1034 2947 
L 1034 2341 
z
" transform="scale(0.015625)"/>
       <path id="TimesNewRomanPSMT-73" d="M 2050 2947 
L 2050 1972 
L 1947 1972 
Q 1828 2431 1642 2597 
Q 1456 2763 1169 2763 
Q 950 2763 815 2647 
Q 681 2531 681 2391 
Q 681 2216 781 2091 
Q 878 1963 1175 1819 
L 1631 1597 
Q 2266 1288 2266 781 
Q 2266 391 1970 151 
Q 1675 -88 1309 -88 
Q 1047 -88 709 6 
Q 606 38 541 38 
Q 469 38 428 -44 
L 325 -44 
L 325 978 
L 428 978 
Q 516 541 762 319 
Q 1009 97 1316 97 
Q 1531 97 1667 223 
Q 1803 350 1803 528 
Q 1803 744 1651 891 
Q 1500 1038 1047 1263 
Q 594 1488 453 1669 
Q 313 1847 313 2119 
Q 313 2472 555 2709 
Q 797 2947 1181 2947 
Q 1350 2947 1591 2875 
Q 1750 2828 1803 2828 
Q 1853 2828 1881 2850 
Q 1909 2872 1947 2947 
L 2050 2947 
z
" transform="scale(0.015625)"/>
      </defs>
      <use xlink:href="#TimesNewRomanPSMT-4e"/>
      <use xlink:href="#TimesNewRomanPSMT-75" transform="translate(72.216797 0)"/>
      <use xlink:href="#TimesNewRomanPSMT-6d" transform="translate(122.216797 0)"/>
      <use xlink:href="#TimesNewRomanPSMT-62" transform="translate(200 0)"/>
      <use xlink:href="#TimesNewRomanPSMT-65" transform="translate(250 0)"/>
      <use xlink:href="#TimesNewRomanPSMT-72" transform="translate(294.384766 0)"/>
      <use xlink:href="#TimesNewRomanPSMT-20" transform="translate(327.685547 0)"/>
      <use xlink:href="#TimesNewRomanPSMT-6f" transform="translate(352.685547 0)"/>
      <use xlink:href="#TimesNewRomanPSMT-66" transform="translate(402.685547 0)"/>
      <use xlink:href="#TimesNewRomanPSMT-20" transform="translate(435.986328 0)"/>
      <use xlink:href="#TimesNewRomanPSMT-69" transform="translate(460.986328 0)"/>
      <use xlink:href="#TimesNewRomanPSMT-74" transform="translate(488.769531 0)"/>
      <use xlink:href="#TimesNewRomanPSMT-65" transform="translate(516.552734 0)"/>
      <use xlink:href="#TimesNewRomanPSMT-72" transform="translate(560.9375 0)"/>
      <use xlink:href="#TimesNewRomanPSMT-61" transform="translate(594.238281 0)"/>
      <use xlink:href="#TimesNewRomanPSMT-74" transform="translate(638.623047 0)"/>
      <use xlink:href="#TimesNewRomanPSMT-69" transform="translate(666.40625 0)"/>
      <use xlink:href="#TimesNewRomanPSMT-6f" transform="translate(694.189453 0)"/>
      <use xlink:href="#TimesNewRomanPSMT-6e" transform="translate(744.189453 0)"/>
      <use xlink:href="#TimesNewRomanPSMT-73" transform="translate(794.189453 0)"/>
     </g>
    </g>
   </g>
   <g id="matplotlib.axis_2">
    <g id="ytick_1">
     <g id="line2d_7">
      <path d="M 209.561063 311.6435 
L 566.681063 311.6435 
" clip-path="url(#p7761910ddd)" style="fill: none; stroke: #b0b0b0; stroke-opacity: 0.3; stroke-width: 0.8; stroke-linecap: square"/>
     </g>
     <g id="line2d_8">
      <defs>
       <path id="mb0a250660f" d="M 0 0 
L -3.5 0 
" style="stroke: #000000; stroke-width: 0.8"/>
      </defs>
      <g>
       <use xlink:href="#mb0a250660f" x="209.561063" y="311.6435" style="stroke: #000000; stroke-width: 0.8"/>
      </g>
     </g>
     <g id="text_5">
      <!-- 0.00 -->
      <g transform="translate(164.061063 319.281625) scale(0.22 -0.22)">
       <defs>
        <path id="TimesNewRomanPSMT-2e" d="M 800 606 
Q 947 606 1047 504 
Q 1147 403 1147 259 
Q 1147 116 1045 14 
Q 944 -88 800 -88 
Q 656 -88 554 14 
Q 453 116 453 259 
Q 453 406 554 506 
Q 656 606 800 606 
z
" transform="scale(0.015625)"/>
       </defs>
       <use xlink:href="#TimesNewRomanPSMT-30"/>
       <use xlink:href="#TimesNewRomanPSMT-2e" transform="translate(50 0)"/>
       <use xlink:href="#TimesNewRomanPSMT-30" transform="translate(75 0)"/>
       <use xlink:href="#TimesNewRomanPSMT-30" transform="translate(125 0)"/>
      </g>
     </g>
    </g>
    <g id="ytick_2">
     <g id="line2d_9">
      <path d="M 209.561063 245.665848 
L 566.681063 245.665848 
" clip-path="url(#p7761910ddd)" style="fill: none; stroke: #b0b0b0; stroke-opacity: 0.3; stroke-width: 0.8; stroke-linecap: square"/>
     </g>
     <g id="line2d_10">
      <g>
       <use xlink:href="#mb0a250660f" x="209.561063" y="245.665848" style="stroke: #000000; stroke-width: 0.8"/>
      </g>
     </g>
     <g id="text_6">
      <!-- 0.05 -->
      <g transform="translate(164.061063 253.303973) scale(0.22 -0.22)">
       <use xlink:href="#TimesNewRomanPSMT-30"/>
       <use xlink:href="#TimesNewRomanPSMT-2e" transform="translate(50 0)"/>
       <use xlink:href="#TimesNewRomanPSMT-30" transform="translate(75 0)"/>
       <use xlink:href="#TimesNewRomanPSMT-35" transform="translate(125 0)"/>
      </g>
     </g>
    </g>
    <g id="ytick_3">
     <g id="line2d_11">
      <path d="M 209.561063 179.688197 
L 566.681063 179.688197 
" clip-path="url(#p7761910ddd)" style="fill: none; stroke: #b0b0b0; stroke-opacity: 0.3; stroke-width: 0.8; stroke-linecap: square"/>
     </g>
     <g id="line2d_12">
      <g>
       <use xlink:href="#mb0a250660f" x="209.561063" y="179.688197" style="stroke: #000000; stroke-width: 0.8"/>
      </g>
     </g>
     <g id="text_7">
      <!-- 0.10 -->
      <g transform="translate(164.061063 187.326322) scale(0.22 -0.22)">
       <use xlink:href="#TimesNewRomanPSMT-30"/>
       <use xlink:href="#TimesNewRomanPSMT-2e" transform="translate(50 0)"/>
       <use xlink:href="#TimesNewRomanPSMT-31" transform="translate(75 0)"/>
       <use xlink:href="#TimesNewRomanPSMT-30" transform="translate(125 0)"/>
      </g>
     </g>
    </g>
    <g id="ytick_4">
     <g id="line2d_13">
      <path d="M 209.561063 113.710545 
L 566.681063 113.710545 
" clip-path="url(#p7761910ddd)" style="fill: none; stroke: #b0b0b0; stroke-opacity: 0.3; stroke-width: 0.8; stroke-linecap: square"/>
     </g>
     <g id="line2d_14">
      <g>
       <use xlink:href="#mb0a250660f" x="209.561063" y="113.710545" style="stroke: #000000; stroke-width: 0.8"/>
      </g>
     </g>
     <g id="text_8">
      <!-- 0.15 -->
      <g transform="translate(164.061063 121.34867) scale(0.22 -0.22)">
       <use xlink:href="#TimesNewRomanPSMT-30"/>
       <use xlink:href="#TimesNewRomanPSMT-2e" transform="translate(50 0)"/>
       <use xlink:href="#TimesNewRomanPSMT-31" transform="translate(75 0)"/>
       <use xlink:href="#TimesNewRomanPSMT-35" transform="translate(125 0)"/>
      </g>
     </g>
    </g>
    <g id="ytick_5">
     <g id="line2d_15">
      <path d="M 209.561063 47.732893 
L 566.681063 47.732893 
" clip-path="url(#p7761910ddd)" style="fill: none; stroke: #b0b0b0; stroke-opacity: 0.3; stroke-width: 0.8; stroke-linecap: square"/>
     </g>
     <g id="line2d_16">
      <g>
       <use xlink:href="#mb0a250660f" x="209.561063" y="47.732893" style="stroke: #000000; stroke-width: 0.8"/>
      </g>
     </g>
     <g id="text_9">
      <!-- 0.20 -->
      <g transform="translate(164.061063 55.371018) scale(0.22 -0.22)">
       <defs>
        <path id="TimesNewRomanPSMT-32" d="M 2934 816 
L 2638 0 
L 138 0 
L 138 116 
Q 1241 1122 1691 1759 
Q 2141 2397 2141 2925 
Q 2141 3328 1894 3587 
Q 1647 3847 1303 3847 
Q 991 3847 742 3664 
Q 494 3481 375 3128 
L 259 3128 
Q 338 3706 661 4015 
Q 984 4325 1469 4325 
Q 1984 4325 2329 3994 
Q 2675 3663 2675 3213 
Q 2675 2891 2525 2569 
Q 2294 2063 1775 1497 
Q 997 647 803 472 
L 1909 472 
Q 2247 472 2383 497 
Q 2519 522 2628 598 
Q 2738 675 2819 816 
L 2934 816 
z
" transform="scale(0.015625)"/>
       </defs>
       <use xlink:href="#TimesNewRomanPSMT-30"/>
       <use xlink:href="#TimesNewRomanPSMT-2e" transform="translate(50 0)"/>
       <use xlink:href="#TimesNewRomanPSMT-32" transform="translate(75 0)"/>
       <use xlink:href="#TimesNewRomanPSMT-30" transform="translate(125 0)"/>
      </g>
     </g>
    </g>
    <g id="text_10">
     <!-- Loss -->
     <g transform="translate(155.355125 199.368906) rotate(-90) scale(0.22 -0.22)">
      <defs>
       <path id="TimesNewRomanPSMT-4c" d="M 3669 1172 
L 3772 1150 
L 3409 0 
L 128 0 
L 128 116 
L 288 116 
Q 556 116 672 291 
Q 738 391 738 753 
L 738 3488 
Q 738 3884 650 3984 
Q 528 4122 288 4122 
L 128 4122 
L 128 4238 
L 2047 4238 
L 2047 4122 
Q 1709 4125 1573 4059 
Q 1438 3994 1388 3894 
Q 1338 3794 1338 3416 
L 1338 753 
Q 1338 494 1388 397 
Q 1425 331 1503 300 
Q 1581 269 1991 269 
L 2300 269 
Q 2788 269 2984 341 
Q 3181 413 3343 595 
Q 3506 778 3669 1172 
z
" transform="scale(0.015625)"/>
      </defs>
      <use xlink:href="#TimesNewRomanPSMT-4c"/>
      <use xlink:href="#TimesNewRomanPSMT-6f" transform="translate(61.083984 0)"/>
      <use xlink:href="#TimesNewRomanPSMT-73" transform="translate(111.083984 0)"/>
      <use xlink:href="#TimesNewRomanPSMT-73" transform="translate(150 0)"/>
     </g>
    </g>
   </g>
   <g id="line2d_17">
    <path d="M 209.561063 146.728541 
L 209.844266 147.6944 
L 210.12747 154.666472 
L 210.410674 145.088313 
L 210.693878 146.701956 
L 210.977082 138.960969 
L 211.260285 143.59248 
L 211.543489 76.9611 
L 211.826693 125.597825 
L 212.109897 114.157907 
L 212.676304 139.442748 
L 212.959508 145.292079 
L 213.242712 147.740127 
L 213.525916 152.968445 
L 213.80912 116.617044 
L 214.375527 181.342806 
L 214.941935 138.225322 
L 215.225139 160.8799 
L 215.508342 173.423436 
L 215.791546 166.181718 
L 216.07475 169.604818 
L 216.357954 149.312753 
L 216.641158 180.965141 
L 216.924361 58.72703 
L 217.207565 175.176313 
L 217.490769 190.79813 
L 217.773973 161.241343 
L 218.057177 187.44097 
L 218.340381 176.449719 
L 218.623584 176.069764 
L 218.906788 184.277656 
L 219.189992 175.121571 
L 219.473196 182.122871 
L 219.7564 145.70203 
L 220.039603 185.965488 
L 220.322807 155.72925 
L 220.606011 192.479827 
L 220.889215 189.796779 
L 221.455622 160.682219 
L 221.738826 90.973689 
L 222.02203 202.443939 
L 222.305234 190.276081 
L 222.588438 119.092481 
L 222.871641 184.411354 
L 223.154845 153.57184 
L 223.438049 193.777931 
L 223.721253 170.342009 
L 224.28766 196.312396 
L 224.570864 105.870694 
L 224.854068 193.797652 
L 225.137272 196.929162 
L 225.420476 180.040927 
L 225.703679 187.120564 
L 225.986883 182.613529 
L 226.270087 187.854215 
L 226.553291 164.760161 
L 226.836495 197.239756 
L 227.119699 179.829836 
L 227.402902 181.845163 
L 227.686106 189.217825 
L 227.96931 192.680585 
L 228.252514 188.120716 
L 228.535718 199.562168 
L 228.818921 106.393078 
L 229.102125 162.47273 
L 229.385329 166.088782 
L 229.668533 181.405609 
L 229.951737 180.620952 
L 230.23494 197.037081 
L 230.518144 196.191715 
L 230.801348 190.511387 
L 231.084552 200.911375 
L 231.367756 162.900417 
L 231.650959 186.360898 
L 232.217367 202.229092 
L 232.500571 174.005261 
L 232.783775 195.101881 
L 233.066978 182.088353 
L 233.633386 193.931281 
L 233.91659 191.295542 
L 234.199794 177.234347 
L 234.482997 177.859174 
L 234.766201 184.535948 
L 235.049405 187.095307 
L 235.332609 187.886787 
L 235.615813 180.438717 
L 235.899017 184.936107 
L 236.18222 181.01067 
L 236.465424 202.627344 
L 236.748628 185.426253 
L 237.031832 193.539272 
L 237.315036 197.509403 
L 237.598239 189.705445 
L 237.881443 174.532943 
L 238.164647 194.895421 
L 238.447851 198.187507 
L 238.731055 189.693362 
L 239.014258 204.566644 
L 239.297462 188.352226 
L 239.580666 182.958179 
L 239.86387 203.176312 
L 240.147074 155.051903 
L 240.430277 171.750863 
L 240.713481 211.813868 
L 240.996685 198.592414 
L 241.279889 173.921743 
L 241.563093 202.571089 
L 241.846296 197.336006 
L 242.1295 171.005149 
L 242.412704 205.370049 
L 242.979112 198.643538 
L 243.262315 191.587723 
L 243.545519 196.843677 
L 243.828723 196.727853 
L 244.111927 203.711978 
L 244.395131 199.973436 
L 244.678335 203.057184 
L 244.961538 201.851467 
L 245.244742 207.032516 
L 245.527946 190.806232 
L 245.81115 185.876336 
L 246.094354 202.672854 
L 246.377557 201.977368 
L 246.660761 166.956347 
L 246.943965 193.443524 
L 247.227169 198.25963 
L 247.510373 196.985358 
L 247.793576 191.667397 
L 248.07678 203.231348 
L 248.359984 194.102643 
L 248.643188 200.166614 
L 249.492799 204.324014 
L 249.776003 201.585467 
L 250.059207 205.224279 
L 250.342411 202.485437 
L 250.625614 201.245093 
L 250.908818 200.997862 
L 251.192022 206.893303 
L 251.475226 198.493894 
L 251.75843 195.072839 
L 252.041633 203.83604 
L 252.324837 177.33567 
L 252.608041 203.082264 
L 252.891245 194.774514 
L 253.174449 204.000461 
L 253.457653 204.388076 
L 253.740856 197.376453 
L 254.02406 201.354704 
L 254.307264 193.485268 
L 254.590468 192.20027 
L 254.873672 203.068933 
L 255.156875 204.374361 
L 255.440079 192.312476 
L 255.723283 204.742843 
L 256.006487 196.767523 
L 256.572894 210.935458 
L 256.856098 195.206094 
L 257.139302 191.242138 
L 257.422506 206.593572 
L 257.70571 193.230064 
L 257.988913 215.675626 
L 258.555321 201.801936 
L 258.838525 195.306395 
L 259.404932 213.086095 
L 259.688136 184.147754 
L 259.97134 210.869765 
L 260.254544 201.162155 
L 260.537748 203.648378 
L 260.820951 179.495115 
L 261.104155 211.060219 
L 261.387359 203.792222 
L 261.953767 208.176344 
L 262.236971 204.350569 
L 262.520174 192.211144 
L 262.803378 200.944792 
L 263.086582 198.800929 
L 263.369786 215.338221 
L 263.65299 204.837097 
L 263.936193 214.290652 
L 264.219397 202.573684 
L 264.502601 211.065086 
L 264.785805 202.011768 
L 265.069009 202.316435 
L 265.352212 216.603222 
L 265.635416 219.715698 
L 265.91862 203.909167 
L 266.485028 212.427949 
L 266.768231 210.745082 
L 267.051435 216.674353 
L 267.334639 208.331288 
L 267.617843 215.799778 
L 267.901047 198.9123 
L 268.18425 216.692855 
L 268.467454 190.109409 
L 268.750658 199.880687 
L 269.033862 178.93022 
L 269.317066 213.30567 
L 269.600269 202.417059 
L 269.883473 206.298039 
L 270.166677 216.241986 
L 270.449881 200.958536 
L 270.733085 215.659601 
L 271.299492 196.038483 
L 271.582696 213.080904 
L 271.8659 210.589696 
L 272.149104 198.293018 
L 272.432308 210.807482 
L 272.715511 199.996009 
L 272.998715 210.903467 
L 273.281919 213.472598 
L 273.565123 214.92126 
L 273.848327 199.861191 
L 274.13153 214.480143 
L 274.414734 216.772313 
L 274.697938 211.182188 
L 274.981142 216.837427 
L 275.264346 192.365576 
L 275.547549 210.053342 
L 275.830753 216.954991 
L 276.113957 212.992293 
L 276.397161 217.458046 
L 276.680365 220.016982 
L 276.963568 211.266699 
L 277.246772 216.301564 
L 277.529976 210.481442 
L 277.81318 208.392773 
L 278.096384 211.395737 
L 278.379587 203.352324 
L 278.662791 205.324972 
L 279.229199 226.414533 
L 279.512403 213.299103 
L 279.795607 212.000311 
L 280.07881 206.201248 
L 280.362014 197.053215 
L 280.645218 224.933516 
L 280.928422 204.225749 
L 281.211626 213.942128 
L 281.778033 220.090905 
L 282.061237 208.13811 
L 282.627645 216.612424 
L 282.910848 208.229876 
L 283.76046 221.409438 
L 284.043664 218.438515 
L 284.326867 222.890445 
L 284.610071 211.854471 
L 284.893275 207.674223 
L 285.176479 220.066237 
L 285.459683 214.062612 
L 285.742886 200.327928 
L 286.02609 216.191206 
L 286.309294 201.284419 
L 286.592498 218.736899 
L 286.875702 214.363641 
L 287.158905 191.095168 
L 287.442109 214.423229 
L 287.725313 222.164649 
L 288.008517 210.842296 
L 288.291721 217.718422 
L 288.574925 204.262882 
L 288.858128 211.439241 
L 289.141332 223.195328 
L 289.424536 190.96669 
L 289.70774 208.321623 
L 289.990944 206.351885 
L 290.557351 212.57075 
L 290.840555 189.556597 
L 291.123759 222.567856 
L 291.406963 194.21892 
L 291.690166 203.475001 
L 291.97337 205.836394 
L 292.256574 213.16395 
L 292.539778 226.977668 
L 292.822982 213.686589 
L 293.106185 211.921473 
L 293.672593 215.675646 
L 293.955797 204.610296 
L 294.239001 208.272633 
L 294.522204 219.341248 
L 294.805408 219.253305 
L 295.088612 198.116425 
L 295.371816 214.359276 
L 295.65502 204.197513 
L 295.938223 208.005464 
L 296.221427 214.149089 
L 296.504631 199.828836 
L 296.787835 199.071314 
L 297.071039 216.925674 
L 297.354243 214.225076 
L 297.637446 216.80749 
L 297.92065 211.318157 
L 298.203854 224.955293 
L 298.487058 206.988461 
L 298.770262 225.662301 
L 299.053465 216.435763 
L 299.336669 215.725668 
L 299.619873 216.589733 
L 299.903077 215.043032 
L 300.186281 221.589904 
L 300.469484 216.767368 
L 300.752688 214.067665 
L 301.035892 227.873912 
L 301.319096 223.752997 
L 301.6023 217.924164 
L 301.885503 214.570799 
L 302.168707 220.921169 
L 302.451911 204.963706 
L 302.735115 201.299343 
L 303.018319 227.786442 
L 303.301522 201.505803 
L 303.584726 210.140724 
L 303.86793 222.273798 
L 304.151134 184.743716 
L 304.434338 226.314371 
L 304.717541 215.284365 
L 305.000745 218.177068 
L 305.283949 206.328703 
L 305.567153 218.656704 
L 305.850357 210.336606 
L 306.133561 219.964177 
L 306.416764 203.920984 
L 306.699968 220.513352 
L 306.983172 208.027536 
L 307.266376 222.267516 
L 307.54958 202.88479 
L 307.832783 217.575817 
L 308.115987 201.647759 
L 308.399191 218.983364 
L 308.682395 218.355007 
L 308.965599 227.396094 
L 309.532006 214.236451 
L 309.81521 217.102964 
L 310.098414 208.287666 
L 310.381618 223.23779 
L 310.948025 205.696423 
L 311.514433 219.478927 
L 311.797637 214.156905 
L 312.08084 228.928825 
L 312.364044 210.873628 
L 312.647248 208.193893 
L 313.213656 226.798146 
L 313.496859 212.996756 
L 313.780063 219.54119 
L 314.063267 229.053753 
L 314.346471 209.774307 
L 314.629675 218.316606 
L 314.912879 204.8346 
L 315.196082 213.293538 
L 315.479286 200.74601 
L 315.76249 202.643104 
L 316.045694 222.059089 
L 316.328898 214.163954 
L 316.612101 218.239852 
L 316.895305 210.422965 
L 317.178509 219.653661 
L 317.461713 223.952378 
L 317.744917 224.643744 
L 318.02812 223.45066 
L 318.311324 227.18402 
L 318.594528 228.321272 
L 318.877732 186.714575 
L 319.160936 226.566134 
L 319.444139 193.4251 
L 319.727343 221.702336 
L 320.010547 215.908405 
L 320.293751 225.182369 
L 320.576955 200.640637 
L 320.860158 222.148319 
L 321.143362 210.446413 
L 321.426566 224.808785 
L 321.70977 227.703484 
L 322.276177 216.568212 
L 322.559381 229.021486 
L 322.842585 203.512704 
L 323.125789 225.87172 
L 323.692197 203.41788 
L 323.9754 222.746926 
L 324.258604 223.825287 
L 324.541808 207.385798 
L 324.825012 227.089334 
L 325.108216 230.392716 
L 325.391419 191.479459 
L 325.674623 215.680414 
L 325.957827 228.907029 
L 326.241031 234.427626 
L 326.524235 213.31031 
L 326.807438 213.279656 
L 327.090642 218.03465 
L 327.373846 205.7013 
L 327.65705 225.339908 
L 327.940254 220.260782 
L 328.223457 225.394188 
L 328.506661 188.292972 
L 328.789865 218.727638 
L 329.073069 211.723104 
L 329.356273 227.506865 
L 329.92268 194.719792 
L 330.205884 218.700277 
L 330.489088 222.795169 
L 330.772292 191.283646 
L 331.055495 221.290104 
L 331.338699 212.644181 
L 331.621903 223.852864 
L 331.905107 203.779126 
L 332.471515 217.658361 
L 332.754718 217.520751 
L 333.037922 215.791352 
L 333.321126 217.819322 
L 333.60433 214.642234 
L 333.887534 213.000787 
L 334.170737 224.071565 
L 334.453941 204.734113 
L 334.737145 223.68279 
L 335.020349 203.421557 
L 335.303553 199.144017 
L 335.586756 224.754142 
L 335.86996 218.836649 
L 336.153164 220.574808 
L 336.436368 220.683514 
L 336.719572 219.45253 
L 337.002775 217.413785 
L 337.285979 207.015556 
L 337.569183 229.762693 
L 337.852387 217.46425 
L 338.135591 231.574469 
L 338.418794 207.514787 
L 338.701998 228.672942 
L 339.268406 225.668563 
L 339.55161 219.596147 
L 339.834813 220.852752 
L 340.118017 208.868448 
L 340.401221 212.648252 
L 340.684425 221.841441 
L 340.967629 216.60682 
L 341.250833 215.931283 
L 341.534036 222.520891 
L 341.81724 217.103573 
L 342.100444 227.434938 
L 342.383648 219.606018 
L 342.666852 220.971742 
L 342.950055 197.12932 
L 343.233259 230.486567 
L 343.799667 214.828383 
L 344.082871 199.306413 
L 344.366074 216.495401 
L 344.649278 214.15256 
L 344.932482 226.810485 
L 345.215686 214.593667 
L 345.49889 224.870329 
L 345.782093 228.990183 
L 346.065297 199.135975 
L 346.348501 221.239492 
L 346.631705 215.379552 
L 346.914909 228.339401 
L 347.198112 222.029939 
L 347.481316 225.187462 
L 347.76452 223.06281 
L 348.047724 215.222485 
L 348.330928 228.135477 
L 348.614131 222.225889 
L 348.897335 221.628286 
L 349.180539 215.315963 
L 349.463743 215.475507 
L 349.746947 216.961922 
L 350.030151 220.178689 
L 350.313354 207.762559 
L 350.596558 229.566379 
L 351.162966 224.700747 
L 351.44617 200.209401 
L 351.729373 226.343364 
L 352.012577 216.157376 
L 352.295781 221.615229 
L 352.578985 209.767484 
L 352.862189 219.551562 
L 353.145392 196.286481 
L 353.428596 217.697726 
L 353.7118 221.14745 
L 353.995004 217.61823 
L 354.278208 227.849107 
L 354.561411 224.563736 
L 354.844615 218.500857 
L 355.127819 204.400434 
L 355.411023 231.106503 
L 355.694227 187.431021 
L 355.97743 212.773455 
L 356.260634 219.562956 
L 356.543838 195.153712 
L 356.827042 220.973571 
L 357.110246 218.078292 
L 357.393449 206.780615 
L 357.676653 220.574926 
L 357.959857 194.342462 
L 358.243061 202.406648 
L 358.526265 215.353735 
L 358.809469 213.674133 
L 359.092672 222.639282 
L 359.375876 226.577647 
L 359.65908 211.519986 
L 359.942284 220.119485 
L 360.225488 216.890182 
L 360.508691 220.017572 
L 360.791895 220.786312 
L 361.075099 202.227814 
L 361.358303 194.060407 
L 361.641507 223.38012 
L 361.92471 209.957732 
L 362.207914 216.313401 
L 362.491118 213.203846 
L 363.057526 223.194079 
L 363.340729 213.083804 
L 363.623933 207.036625 
L 363.907137 226.551879 
L 364.190341 232.92525 
L 364.756748 206.231853 
L 365.039952 221.224508 
L 365.323156 219.744749 
L 365.889564 212.799705 
L 366.172767 219.997467 
L 366.455971 201.653422 
L 366.739175 228.936484 
L 367.022379 199.196517 
L 367.305583 218.752984 
L 367.588787 217.294244 
L 367.87199 210.768363 
L 368.155194 209.509015 
L 368.438398 222.758527 
L 368.721602 226.947466 
L 369.004806 215.622733 
L 369.288009 216.282147 
L 369.571213 213.3436 
L 369.854417 218.839087 
L 370.137621 204.714715 
L 370.420825 224.767149 
L 370.704028 222.972459 
L 370.987232 223.161803 
L 371.270436 229.17903 
L 371.55364 218.95907 
L 371.836844 221.673038 
L 372.120047 222.576587 
L 372.403251 217.738704 
L 372.686455 201.930364 
L 372.969659 211.857106 
L 373.536066 220.343071 
L 373.81927 218.478028 
L 374.102474 225.958807 
L 374.385678 215.668901 
L 374.668882 233.453827 
L 374.952085 219.345151 
L 375.235289 211.758241 
L 375.518493 209.505309 
L 375.801697 216.905942 
L 376.084901 221.035312 
L 376.368105 211.341546 
L 376.651308 221.960539 
L 376.934512 214.268413 
L 377.217716 227.125356 
L 377.50092 223.13863 
L 377.784124 216.436481 
L 378.067327 229.687507 
L 378.350531 228.518323 
L 378.916939 219.565739 
L 379.200143 203.084948 
L 379.483346 219.653071 
L 379.76655 211.522385 
L 380.049754 220.74966 
L 380.332958 216.841045 
L 380.616162 215.594861 
L 380.899365 208.992049 
L 381.182569 215.434009 
L 381.465773 216.948325 
L 381.748977 214.493504 
L 382.032181 223.690242 
L 382.315384 211.125873 
L 382.881792 227.702157 
L 383.164996 221.874828 
L 383.4482 220.352401 
L 383.731403 227.522232 
L 384.014607 211.986861 
L 384.297811 221.320276 
L 384.581015 210.281481 
L 384.864219 218.543201 
L 385.147423 206.317849 
L 385.430626 215.125705 
L 385.71383 218.093117 
L 385.997034 207.65635 
L 386.280238 219.983408 
L 386.563442 213.238659 
L 386.846645 215.43568 
L 387.129849 213.680287 
L 387.413053 223.440436 
L 387.696257 218.041345 
L 387.979461 204.345712 
L 388.829072 229.160306 
L 389.112276 221.227369 
L 389.39548 206.370821 
L 389.678683 220.269797 
L 389.961887 224.802109 
L 390.245091 224.559499 
L 390.528295 217.44145 
L 390.811499 234.178497 
L 391.094702 197.651497 
L 391.377906 220.785122 
L 391.66111 223.753813 
L 391.944314 212.328425 
L 392.510722 224.229448 
L 392.793925 218.699884 
L 393.077129 210.890401 
L 393.360333 220.651886 
L 393.643537 219.59134 
L 393.926741 188.202769 
L 394.209944 217.330847 
L 394.776352 213.571591 
L 395.059556 214.724022 
L 395.34276 201.786029 
L 395.625963 220.312328 
L 395.909167 200.402254 
L 396.192371 215.061948 
L 396.475575 219.055812 
L 396.758779 219.362189 
L 397.041982 226.276618 
L 397.325186 220.439734 
L 397.60839 210.207912 
L 397.891594 206.964433 
L 398.174798 226.092741 
L 398.741205 213.666238 
L 399.024409 218.660755 
L 399.307613 202.262952 
L 399.590817 222.466386 
L 399.87402 220.905606 
L 400.157224 212.694597 
L 400.440428 223.343075 
L 400.723632 215.14408 
L 401.006836 222.278114 
L 401.29004 200.269903 
L 401.573243 213.969695 
L 401.856447 221.6741 
L 402.139651 221.762101 
L 402.422855 215.768602 
L 402.706059 204.792364 
L 402.989262 226.650753 
L 403.272466 209.668137 
L 403.55567 224.230726 
L 403.838874 226.965664 
L 404.122078 233.674656 
L 404.688485 207.320636 
L 404.971689 226.051183 
L 405.254893 230.170816 
L 405.8213 218.921367 
L 406.104504 223.958936 
L 406.387708 219.444016 
L 406.670912 228.127622 
L 406.954116 203.598965 
L 407.237319 225.912413 
L 407.520523 225.978401 
L 407.803727 223.259075 
L 408.086931 223.951542 
L 408.370135 212.384356 
L 408.653338 227.948562 
L 408.936542 227.649981 
L 409.219746 215.365149 
L 409.50295 213.532845 
L 409.786154 221.79306 
L 410.069358 216.719046 
L 410.352561 219.87129 
L 410.635765 216.768567 
L 410.918969 228.054299 
L 411.202173 192.036498 
L 411.485377 207.335963 
L 411.76858 231.71967 
L 412.334988 199.090868 
L 412.618192 226.36283 
L 412.901396 216.940067 
L 413.184599 211.855858 
L 413.467803 225.110865 
L 413.751007 220.521925 
L 414.034211 219.740119 
L 414.317415 228.844845 
L 414.600618 222.991729 
L 414.883822 222.90244 
L 415.167026 227.934424 
L 415.45023 218.548991 
L 415.733434 230.34405 
L 416.016637 216.98074 
L 416.299841 221.198829 
L 416.583045 206.387357 
L 416.866249 220.875669 
L 417.432656 213.856673 
L 417.71586 210.93476 
L 417.999064 225.138934 
L 418.282268 221.027801 
L 418.565472 220.956238 
L 418.848676 218.326398 
L 419.131879 225.2296 
L 419.415083 226.229447 
L 419.698287 221.914243 
L 419.981491 219.576406 
L 420.264695 222.671942 
L 420.547898 201.678768 
L 420.831102 225.400647 
L 421.114306 212.731278 
L 421.39751 224.030971 
L 421.680714 207.600016 
L 421.963917 215.024077 
L 422.247121 210.349623 
L 422.530325 223.204933 
L 422.813529 219.923888 
L 423.096733 225.07849 
L 423.379936 212.406654 
L 423.66314 212.519381 
L 423.946344 218.266278 
L 424.229548 220.783952 
L 424.512752 219.654202 
L 424.795955 217.188999 
L 425.079159 207.528276 
L 425.645567 222.225545 
L 425.928771 213.237469 
L 426.211974 224.367717 
L 426.495178 228.1715 
L 426.778382 203.15486 
L 427.061586 220.03287 
L 427.34479 215.20528 
L 427.627994 220.580746 
L 427.911197 215.183681 
L 428.194401 218.481115 
L 428.477605 218.485421 
L 428.760809 210.063685 
L 429.044013 222.206236 
L 429.327216 217.119235 
L 429.61042 224.773313 
L 429.893624 228.153066 
L 430.176828 199.964303 
L 430.460032 204.52954 
L 430.743235 216.780699 
L 431.026439 198.362398 
L 431.309643 224.104716 
L 431.592847 221.469016 
L 431.876051 231.612148 
L 432.159254 207.23232 
L 432.442458 212.259802 
L 432.725662 193.161185 
L 433.008866 221.972622 
L 433.29207 205.729418 
L 433.858477 223.312214 
L 434.141681 224.307244 
L 434.424885 226.442524 
L 434.708089 213.094107 
L 434.991292 226.085603 
L 435.274496 214.693092 
L 435.5577 224.126778 
L 435.840904 206.386807 
L 436.124108 214.161546 
L 436.407312 209.114883 
L 436.690515 223.098901 
L 436.973719 221.800994 
L 437.256923 192.401815 
L 437.540127 219.96166 
L 437.823331 219.662264 
L 438.106534 223.060224 
L 438.389738 209.314815 
L 438.672942 223.516747 
L 438.956146 208.195476 
L 439.23935 226.87084 
L 439.805757 220.192247 
L 440.088961 234.088554 
L 440.372165 221.798881 
L 440.655369 232.335015 
L 440.938572 207.51171 
L 441.221776 220.587107 
L 441.50498 204.474523 
L 441.788184 200.242464 
L 442.071388 227.341746 
L 442.354591 209.757269 
L 442.637795 203.126889 
L 442.920999 227.003682 
L 443.204203 225.643778 
L 443.487407 215.619322 
L 443.77061 226.988778 
L 444.053814 217.256374 
L 444.337018 215.894238 
L 444.620222 227.74573 
L 444.903426 206.020763 
L 445.18663 223.999775 
L 445.469833 218.675689 
L 445.753037 221.516836 
L 446.036241 199.822366 
L 446.319445 228.791568 
L 446.885852 203.710051 
L 447.169056 216.794001 
L 447.45226 209.236163 
L 447.735464 220.23699 
L 448.018668 218.254756 
L 448.301871 226.217158 
L 448.585075 206.487785 
L 448.868279 219.02616 
L 449.151483 210.849876 
L 449.71789 216.967192 
L 450.001094 221.979858 
L 450.284298 217.241715 
L 450.567502 215.386434 
L 450.850706 215.365297 
L 451.133909 217.212879 
L 451.417113 221.335574 
L 451.700317 215.779623 
L 451.983521 218.069778 
L 452.266725 222.063651 
L 452.549928 218.630169 
L 452.833132 207.050586 
L 453.116336 215.84805 
L 453.39954 220.169684 
L 453.682744 230.665361 
L 453.965948 219.723327 
L 454.249151 230.512409 
L 454.532355 189.544357 
L 454.815559 225.867335 
L 455.098763 217.367872 
L 455.381967 197.709955 
L 455.66517 217.987911 
L 455.948374 225.264403 
L 456.231578 211.924088 
L 456.514782 227.481205 
L 456.797986 213.367215 
L 457.081189 219.409498 
L 457.364393 211.399974 
L 457.647597 228.05832 
L 457.930801 215.742637 
L 458.214005 220.202147 
L 458.497208 220.279796 
L 458.780412 224.380704 
L 459.063616 213.692154 
L 459.34682 230.709308 
L 459.630024 217.221482 
L 459.913227 219.200747 
L 460.196431 226.907187 
L 460.479635 217.594349 
L 460.762839 216.759031 
L 461.046043 219.231824 
L 461.329246 218.34145 
L 461.61245 208.34983 
L 461.895654 208.500762 
L 462.178858 226.739374 
L 462.462062 198.222035 
L 462.745266 221.581036 
L 463.028469 225.91374 
L 463.311673 215.854411 
L 463.594877 194.078016 
L 463.878081 209.598491 
L 464.161285 211.755429 
L 464.727692 225.383235 
L 465.010896 200.590723 
L 465.2941 219.777577 
L 465.577304 199.315467 
L 466.143711 221.337354 
L 466.426915 213.994519 
L 466.710119 211.536896 
L 466.993323 222.97882 
L 467.276526 220.001743 
L 467.55973 224.925356 
L 467.842934 211.393544 
L 468.126138 212.645872 
L 468.409342 222.017984 
L 468.692545 214.47334 
L 468.975749 226.469226 
L 469.258953 220.568958 
L 469.542157 217.178853 
L 469.825361 219.42046 
L 470.108564 225.432157 
L 470.391768 214.542583 
L 470.674972 225.480242 
L 470.958176 224.516427 
L 471.24138 212.007281 
L 471.524584 219.022837 
L 472.090991 208.674542 
L 472.374195 224.828536 
L 472.657399 223.694971 
L 472.940603 206.077372 
L 473.223806 218.140112 
L 473.50701 220.032073 
L 473.790214 199.606547 
L 474.073418 212.846404 
L 474.356622 217.557766 
L 474.639825 219.13813 
L 474.923029 216.544814 
L 475.206233 215.866002 
L 475.489437 226.99683 
L 475.772641 223.062328 
L 476.055844 208.361205 
L 476.339048 220.13434 
L 476.622252 223.005512 
L 476.905456 214.517876 
L 477.18866 223.676036 
L 477.471863 219.466274 
L 477.755067 219.565749 
L 478.038271 211.05436 
L 478.321475 213.113721 
L 478.604679 220.360895 
L 478.887882 217.651912 
L 479.171086 212.312626 
L 479.45429 212.422492 
L 479.737494 225.071913 
L 480.020698 220.558694 
L 480.303902 212.463509 
L 480.587105 216.266613 
L 480.870309 212.992598 
L 481.153513 222.806731 
L 481.436717 224.547013 
L 481.719921 222.511601 
L 482.003124 228.018916 
L 482.286328 208.511685 
L 482.569532 221.328496 
L 482.852736 220.60674 
L 483.13594 216.691312 
L 483.419143 214.389399 
L 483.702347 225.724612 
L 483.985551 207.152272 
L 484.268755 221.806756 
L 484.551959 222.385345 
L 484.835162 218.995073 
L 485.118366 207.984838 
L 485.40157 225.029137 
L 485.684774 225.868967 
L 485.967978 212.245822 
L 486.251181 210.741887 
L 486.534385 225.861437 
L 486.817589 210.449058 
L 487.383997 226.550178 
L 487.6672 199.130361 
L 487.950404 219.906595 
L 488.233608 226.037537 
L 488.516812 215.063128 
L 488.800016 209.563176 
L 489.08322 209.920284 
L 489.366423 225.423023 
L 489.649627 218.541883 
L 489.932831 196.124655 
L 490.216035 223.979837 
L 490.499239 222.512338 
L 490.782442 199.386893 
L 491.065646 216.668798 
L 491.34885 217.266254 
L 491.632054 218.154603 
L 491.915258 203.619247 
L 492.198461 207.965195 
L 492.481665 217.64853 
L 492.764869 217.722816 
L 493.048073 228.145397 
L 493.897684 207.635124 
L 494.180888 212.201374 
L 494.464092 220.423374 
L 494.747296 221.144451 
L 495.030499 215.138594 
L 495.313703 219.47235 
L 495.596907 220.474134 
L 495.880111 213.43047 
L 496.163315 219.80185 
L 496.446518 217.63277 
L 496.729722 224.289596 
L 497.012926 223.517199 
L 497.29613 219.610452 
L 497.862538 215.646535 
L 498.145741 218.333201 
L 498.428945 225.487999 
L 498.712149 209.586182 
L 498.995353 223.214234 
L 499.278557 213.346392 
L 499.56176 211.784953 
L 499.844964 225.293996 
L 500.128168 215.144178 
L 500.411372 230.95095 
L 500.694576 212.091812 
L 501.260983 221.89107 
L 501.544187 213.122776 
L 501.827391 211.407859 
L 502.110595 208.053491 
L 502.393798 217.812017 
L 502.677002 217.625357 
L 502.960206 205.979647 
L 503.24341 209.610947 
L 503.526614 222.940114 
L 503.809817 220.274497 
L 504.093021 228.893766 
L 504.376225 208.40816 
L 504.942633 214.041995 
L 505.225836 188.983877 
L 505.50904 218.927767 
L 505.792244 204.764128 
L 506.075448 221.446119 
L 506.358652 220.985074 
L 506.641856 224.794903 
L 506.925059 206.732244 
L 507.491467 224.345832 
L 507.774671 208.580347 
L 508.057875 222.724717 
L 508.341078 210.857633 
L 508.624282 220.877292 
L 508.907486 216.983001 
L 509.19069 225.557095 
L 509.473894 222.774661 
L 509.757097 207.851052 
L 510.040301 210.097023 
L 510.323505 215.02624 
L 510.606709 231.765494 
L 510.889913 225.019639 
L 511.173116 196.710353 
L 511.45632 220.340515 
L 511.739524 218.852596 
L 512.022728 204.378923 
L 512.305932 225.38353 
L 512.589135 223.150565 
L 512.872339 203.125031 
L 513.155543 228.500106 
L 513.438747 202.222053 
L 513.721951 221.832514 
L 514.005154 223.43902 
L 514.288358 220.712664 
L 514.854766 208.52943 
L 515.13797 225.542121 
L 515.421174 204.016123 
L 515.704377 218.562981 
L 515.987581 218.937707 
L 516.270785 218.523479 
L 516.553989 226.79908 
L 516.837193 217.156585 
L 517.120396 219.057984 
L 517.4036 213.824013 
L 517.686804 221.193362 
L 517.970008 219.050001 
L 518.253212 225.502923 
L 518.819619 211.502801 
L 519.102823 223.381211 
L 520.235638 208.107072 
L 520.518842 208.556614 
L 520.802046 223.93886 
L 521.08525 231.510398 
L 521.368453 218.029793 
L 521.651657 199.210025 
L 521.934861 222.455473 
L 522.218065 202.501944 
L 522.501269 209.683435 
L 522.784472 211.951685 
L 523.067676 218.899472 
L 523.35088 209.653891 
L 523.634084 214.055799 
L 523.917288 225.909611 
L 524.200492 206.493261 
L 524.766899 224.845957 
L 525.050103 213.593574 
L 525.616511 227.672731 
L 525.899714 203.738945 
L 526.182918 217.249295 
L 526.466122 223.203754 
L 526.749326 220.614655 
L 527.03253 213.43166 
L 527.315733 222.138331 
L 527.598937 223.569955 
L 527.882141 206.384653 
L 528.165345 227.238575 
L 528.448549 218.56542 
L 528.731752 189.375237 
L 529.014956 214.445772 
L 529.29816 228.698209 
L 529.581364 215.456424 
L 529.864568 216.844407 
L 530.147771 226.048116 
L 530.430975 202.38552 
L 530.714179 221.806824 
L 530.997383 211.178422 
L 531.280587 228.855561 
L 531.846994 203.802761 
L 532.130198 222.214554 
L 532.413402 189.691838 
L 532.696606 225.678857 
L 532.97981 217.017834 
L 533.263013 219.241478 
L 533.546217 219.364401 
L 533.829421 223.591879 
L 534.112625 214.907329 
L 534.395829 217.197552 
L 534.679032 228.218769 
L 534.962236 211.625242 
L 535.24544 217.325312 
L 535.24544 217.325312 
" clip-path="url(#p7761910ddd)" style="fill: none; stroke: #ffa500; stroke-width: 1.5; stroke-linecap: square"/>
   </g>
   <g id="line2d_18">
    <path d="M 209.561063 146.722435 
L 209.844266 150.580163 
L 210.12747 167.462872 
L 210.410674 102.128633 
L 210.693878 94.638809 
L 210.977082 141.173042 
L 211.260285 149.484823 
L 211.543489 105.151682 
L 211.826693 127.970052 
L 212.109897 125.342955 
L 212.393101 133.179691 
L 212.676304 132.000843 
L 212.959508 136.950302 
L 213.242712 135.099279 
L 213.525916 143.018599 
L 213.80912 133.4813 
L 214.092323 140.805818 
L 214.375527 159.665157 
L 214.658731 154.04541 
L 214.941935 160.037405 
L 215.225139 152.487059 
L 215.508342 164.664856 
L 215.791546 155.829078 
L 216.07475 161.946208 
L 216.357954 160.687558 
L 216.641158 170.436046 
L 216.924361 103.080375 
L 217.207565 161.762193 
L 217.490769 178.072998 
L 217.773973 160.984811 
L 218.057177 179.497976 
L 218.340381 170.186102 
L 218.623584 181.420828 
L 218.906788 176.034754 
L 219.189992 163.747465 
L 219.473196 174.224492 
L 219.7564 160.901863 
L 220.039603 178.843714 
L 220.322807 162.291734 
L 220.606011 173.832444 
L 220.889215 178.157892 
L 221.172419 167.085168 
L 221.455622 169.688336 
L 221.738826 121.737118 
L 222.02203 178.655294 
L 222.305234 178.617237 
L 222.588438 130.917517 
L 222.871641 167.937475 
L 223.154845 144.239644 
L 223.438049 175.701999 
L 223.721253 161.460594 
L 224.004457 179.429156 
L 224.28766 181.46327 
L 224.570864 130.546636 
L 224.854068 178.773704 
L 225.137272 182.111821 
L 225.420476 183.454519 
L 225.703679 183.854639 
L 225.986883 183.80096 
L 226.553291 185.197004 
L 227.119699 172.468155 
L 227.686106 170.847187 
L 227.96931 176.09214 
L 228.252514 187.749314 
L 228.535718 184.644526 
L 228.818921 119.907665 
L 229.102125 152.558769 
L 229.385329 153.072226 
L 229.951737 177.186222 
L 230.23494 177.741826 
L 230.518144 181.15474 
L 230.801348 189.573478 
L 231.084552 189.151503 
L 231.367756 194.542895 
L 231.650959 189.548053 
L 231.934163 188.113804 
L 232.217367 180.357961 
L 232.500571 162.909187 
L 232.783775 180.881279 
L 233.066978 159.081199 
L 233.350182 163.683177 
L 233.633386 178.949972 
L 233.91659 179.270968 
L 234.199794 164.177708 
L 234.482997 167.151413 
L 234.766201 174.246809 
L 235.049405 170.453084 
L 235.332609 163.881162 
L 235.615813 164.074006 
L 235.899017 168.539867 
L 236.18222 168.619934 
L 236.465424 180.602567 
L 237.031832 168.273327 
L 237.598239 191.175766 
L 237.881443 197.075443 
L 238.164647 188.589459 
L 238.447851 174.519592 
L 238.731055 189.871036 
L 239.014258 170.297531 
L 239.580666 193.507517 
L 239.86387 169.964354 
L 240.147074 135.415949 
L 240.430277 153.218055 
L 240.713481 178.510369 
L 240.996685 180.066715 
L 241.279889 135.900541 
L 241.563093 173.625079 
L 241.846296 162.441958 
L 242.1295 191.462047 
L 242.695908 163.743227 
L 243.262315 180.5505 
L 243.545519 173.020849 
L 243.828723 176.647331 
L 244.111927 176.088109 
L 244.395131 179.219412 
L 244.678335 171.329743 
L 244.961538 149.962139 
L 245.244742 165.100329 
L 245.81115 140.325769 
L 246.094354 148.855798 
L 246.377557 147.977556 
L 246.660761 131.828851 
L 247.227169 172.18031 
L 247.510373 168.83715 
L 247.793576 140.077682 
L 248.07678 154.144373 
L 248.359984 158.004087 
L 248.643188 167.068445 
L 248.926392 160.73995 
L 249.209595 142.777394 
L 249.776003 159.009253 
L 250.059207 166.324323 
L 250.342411 151.980169 
L 250.625614 148.419784 
L 250.908818 137.618761 
L 251.475226 150.865874 
L 251.75843 164.655201 
L 252.041633 150.630234 
L 252.324837 174.682479 
L 252.608041 166.250617 
L 252.891245 165.907057 
L 253.174449 166.387028 
L 253.457653 167.116 
L 253.740856 154.999787 
L 254.590468 177.939025 
L 254.873672 166.555765 
L 255.156875 168.71114 
L 255.440079 146.853085 
L 256.006487 190.197577 
L 256.289691 167.805026 
L 256.572894 169.821729 
L 256.856098 157.319809 
L 257.139302 163.226212 
L 257.422506 172.686079 
L 257.70571 163.911482 
L 257.988913 176.48876 
L 258.272117 173.310296 
L 258.555321 176.767422 
L 258.838525 171.897479 
L 259.121729 181.457214 
L 259.404932 182.216112 
L 259.688136 156.545141 
L 259.97134 177.500769 
L 260.254544 172.925199 
L 260.537748 196.75251 
L 260.820951 155.547221 
L 261.104155 193.414757 
L 261.387359 205.783933 
L 261.670563 178.131229 
L 261.953767 175.737638 
L 262.236971 180.38605 
L 262.520174 173.610696 
L 262.803378 188.715498 
L 263.086582 182.583435 
L 263.369786 184.474875 
L 263.65299 181.941756 
L 263.936193 197.639109 
L 264.219397 187.477238 
L 264.502601 205.189524 
L 265.069009 212.972689 
L 265.352212 204.196815 
L 265.91862 213.988217 
L 266.201824 213.882933 
L 266.768231 186.044926 
L 267.051435 193.940533 
L 267.334639 184.007498 
L 267.617843 199.520001 
L 267.901047 181.729889 
L 268.18425 186.638312 
L 268.467454 172.71339 
L 268.750658 180.505384 
L 269.033862 167.448056 
L 269.317066 191.295414 
L 269.600269 186.39403 
L 269.883473 190.878778 
L 270.166677 203.271883 
L 270.449881 189.270777 
L 270.733085 197.581487 
L 271.299492 174.521195 
L 271.582696 196.961723 
L 271.8659 192.899167 
L 272.149104 176.53365 
L 272.432308 187.483304 
L 272.715511 188.338816 
L 272.998715 198.506586 
L 273.281919 200.180575 
L 273.565123 199.386146 
L 273.848327 187.051891 
L 274.13153 202.091482 
L 274.414734 203.963662 
L 274.697938 200.907698 
L 274.981142 206.998745 
L 275.264346 219.539715 
L 275.547549 216.553062 
L 275.830753 211.52384 
L 276.113957 216.657688 
L 276.397161 214.538355 
L 276.680365 213.924569 
L 276.963568 217.514862 
L 277.246772 211.949001 
L 277.529976 216.23357 
L 277.81318 217.958387 
L 278.096384 215.959735 
L 278.379587 193.643368 
L 278.662791 187.95714 
L 279.512403 218.497809 
L 279.795607 218.554005 
L 280.07881 218.036518 
L 280.362014 219.696084 
L 280.645218 216.893122 
L 280.928422 219.571225 
L 281.211626 216.481765 
L 281.494829 218.156294 
L 282.061237 194.496687 
L 282.627645 199.059555 
L 282.910848 193.978453 
L 283.194052 202.225995 
L 283.477256 203.4068 
L 283.76046 206.145661 
L 284.043664 205.874461 
L 284.326867 208.628335 
L 284.610071 201.812288 
L 284.893275 219.996129 
L 285.176479 217.470424 
L 285.459683 218.218901 
L 285.742886 220.781769 
L 286.02609 219.10897 
L 286.309294 220.592406 
L 286.592498 213.495436 
L 286.875702 214.282 
L 287.158905 182.372737 
L 287.442109 202.518009 
L 287.725313 207.174786 
L 288.008517 203.46339 
L 288.291721 206.821867 
L 288.574925 219.817758 
L 288.858128 219.959134 
L 289.141332 216.272158 
L 289.424536 179.411214 
L 289.70774 195.726226 
L 289.990944 190.095438 
L 290.557351 201.742849 
L 290.840555 182.882812 
L 291.123759 206.008168 
L 291.406963 181.491939 
L 291.690166 196.608971 
L 291.97337 196.241059 
L 292.256574 201.410664 
L 292.539778 209.074161 
L 292.822982 198.463249 
L 293.106185 196.785436 
L 293.389389 203.165753 
L 293.672593 203.903268 
L 293.955797 194.448936 
L 294.239001 193.946579 
L 294.522204 200.202617 
L 294.805408 203.958747 
L 295.088612 194.19031 
L 295.371816 205.134665 
L 295.65502 185.561996 
L 295.938223 193.989719 
L 296.221427 198.979006 
L 296.504631 187.624336 
L 297.071039 205.829698 
L 297.354243 200.027214 
L 297.637446 207.091809 
L 297.92065 205.440639 
L 298.203854 216.291517 
L 298.487058 220.795179 
L 298.770262 215.572229 
L 299.053465 220.506332 
L 299.619873 202.017382 
L 300.186281 203.047343 
L 300.469484 202.164342 
L 300.752688 199.603371 
L 301.035892 209.529189 
L 301.319096 198.856398 
L 301.6023 200.010068 
L 301.885503 198.534773 
L 302.168707 207.499332 
L 302.451911 199.117226 
L 302.735115 194.700788 
L 303.018319 212.835255 
L 303.301522 191.499161 
L 303.584726 195.933699 
L 303.86793 210.919689 
L 304.151134 178.036454 
L 304.434338 207.818333 
L 304.717541 202.941045 
L 305.000745 209.401145 
L 305.283949 200.79677 
L 305.567153 201.947775 
L 305.850357 201.054245 
L 306.133561 205.392278 
L 306.416764 199.581152 
L 306.699968 210.422365 
L 306.983172 193.744337 
L 307.266376 205.124961 
L 307.54958 190.931376 
L 307.832783 220.521895 
L 308.115987 222.926202 
L 308.682395 218.833031 
L 309.532006 222.638662 
L 309.81521 219.76104 
L 310.098414 221.700665 
L 310.381618 220.165279 
L 310.664821 202.138859 
L 310.948025 191.644332 
L 311.231229 203.06324 
L 311.514433 202.149536 
L 311.797637 205.29479 
L 312.08084 218.293836 
L 312.364044 223.529459 
L 312.647248 221.117139 
L 312.930452 221.541857 
L 313.213656 205.741717 
L 313.496859 200.336472 
L 313.780063 209.411114 
L 314.063267 208.08329 
L 314.346471 196.889511 
L 314.629675 203.018743 
L 314.912879 198.766844 
L 315.196082 202.240094 
L 315.479286 194.646096 
L 315.76249 199.434005 
L 316.045694 206.766624 
L 316.328898 205.000554 
L 316.612101 205.281969 
L 316.895305 200.755232 
L 317.178509 220.030097 
L 317.461713 221.924841 
L 317.744917 219.745379 
L 318.02812 219.633743 
L 318.311324 220.992899 
L 318.594528 217.778226 
L 318.877732 176.515718 
L 319.160936 212.666371 
L 319.444139 186.514692 
L 319.727343 208.870227 
L 320.010547 198.244391 
L 320.293751 214.476722 
L 320.576955 191.746019 
L 320.860158 212.71598 
L 321.143362 193.386787 
L 321.426566 216.138903 
L 321.992974 220.532464 
L 322.276177 220.765587 
L 322.842585 203.200428 
L 323.125789 217.620373 
L 323.408993 196.929525 
L 323.692197 196.982831 
L 323.9754 207.643126 
L 324.258604 211.566971 
L 324.541808 193.558355 
L 324.825012 215.75178 
L 325.108216 210.566956 
L 325.391419 186.046794 
L 325.674623 214.488687 
L 325.957827 217.39308 
L 326.241031 217.546283 
L 326.524235 201.252545 
L 326.807438 197.63729 
L 327.090642 202.180446 
L 327.373846 199.760153 
L 327.65705 218.549788 
L 327.940254 218.643442 
L 328.223457 216.730569 
L 328.506661 178.150155 
L 328.789865 211.583959 
L 329.073069 196.627051 
L 329.356273 214.5066 
L 329.639476 224.947801 
L 330.205884 220.806948 
L 330.489088 215.243013 
L 330.772292 190.545305 
L 331.055495 205.771762 
L 331.338699 203.853462 
L 331.621903 214.899995 
L 331.905107 196.269246 
L 332.188311 200.481604 
L 332.471515 208.712551 
L 332.754718 222.701751 
L 333.321126 219.538712 
L 333.60433 223.131581 
L 334.170737 221.071551 
L 334.453941 222.640815 
L 334.737145 218.080179 
L 335.020349 195.790032 
L 335.303553 187.311254 
L 335.586756 215.789199 
L 336.153164 199.368292 
L 336.436368 206.022473 
L 336.719572 207.543229 
L 337.002775 213.905771 
L 337.285979 194.115021 
L 337.569183 211.853203 
L 337.852387 208.296013 
L 338.135591 216.150426 
L 338.418794 198.894328 
L 338.701998 215.210275 
L 338.985202 219.846731 
L 339.268406 222.119258 
L 339.55161 219.5756 
L 339.834813 220.897623 
L 340.118017 223.874051 
L 340.684425 219.31892 
L 340.967629 221.650918 
L 341.250833 222.380754 
L 341.534036 218.671992 
L 341.81724 221.013447 
L 342.100444 220.75139 
L 342.383648 220.71873 
L 342.666852 218.768252 
L 342.950055 188.337587 
L 343.233259 212.098547 
L 343.516463 219.787025 
L 343.799667 223.527513 
L 344.082871 187.476422 
L 344.366074 203.386301 
L 344.649278 202.734143 
L 344.932482 214.650532 
L 345.215686 198.148034 
L 345.782093 212.483762 
L 346.065297 185.336758 
L 346.348501 210.623811 
L 346.631705 196.303155 
L 346.914909 210.421579 
L 347.198112 206.26065 
L 347.76452 217.495592 
L 348.047724 222.209294 
L 348.330928 213.942472 
L 348.614131 221.648066 
L 348.897335 218.732534 
L 349.180539 222.685027 
L 349.463743 222.768978 
L 349.746947 221.602449 
L 350.030151 219.87302 
L 350.313354 224.100322 
L 350.596558 218.518868 
L 350.879762 221.022502 
L 351.162966 221.901481 
L 351.44617 224.55534 
L 351.729373 220.979253 
L 352.012577 222.922339 
L 352.295781 222.351545 
L 352.578985 223.785018 
L 352.862189 221.049037 
L 353.145392 224.666357 
L 353.428596 221.509119 
L 353.995004 222.624043 
L 354.278208 216.661975 
L 354.561411 214.97027 
L 354.844615 208.105715 
L 355.127819 197.564941 
L 355.411023 214.885228 
L 355.694227 185.457163 
L 355.97743 201.855891 
L 356.260634 206.638973 
L 356.543838 193.352967 
L 356.827042 216.039625 
L 357.110246 208.683519 
L 357.393449 196.58512 
L 357.676653 207.859261 
L 357.959857 188.079876 
L 358.526265 209.579821 
L 358.809469 206.348061 
L 359.092672 212.283201 
L 359.375876 222.125727 
L 359.65908 223.871652 
L 359.942284 218.489147 
L 360.225488 223.487843 
L 360.508691 221.619889 
L 360.791895 221.112892 
L 361.075099 224.40076 
L 361.358303 223.39994 
L 361.641507 216.745758 
L 361.92471 204.452747 
L 362.207914 211.46205 
L 362.491118 203.933205 
L 362.774322 210.893193 
L 363.057526 209.94265 
L 363.340729 203.05276 
L 363.623933 202.921963 
L 363.907137 209.9765 
L 364.190341 212.701499 
L 364.473545 208.939942 
L 364.756748 200.711109 
L 365.323156 211.046534 
L 365.60636 209.498053 
L 365.889564 201.312616 
L 366.172767 213.46666 
L 366.455971 193.363742 
L 366.739175 212.410999 
L 367.022379 193.209959 
L 367.305583 208.197511 
L 367.588787 209.641739 
L 367.87199 194.467508 
L 368.155194 207.802887 
L 368.438398 205.653362 
L 368.721602 212.084478 
L 369.004806 201.883802 
L 369.288009 207.386624 
L 369.571213 222.856173 
L 369.854417 219.723632 
L 370.137621 195.606686 
L 370.420825 209.419972 
L 370.987232 212.308762 
L 371.55364 222.213433 
L 371.836844 221.95758 
L 372.120047 219.998705 
L 372.403251 220.779774 
L 372.686455 224.59091 
L 373.252863 221.635993 
L 373.536066 222.147435 
L 373.81927 218.248611 
L 374.102474 221.933591 
L 374.385678 223.614373 
L 374.668882 217.670326 
L 374.952085 202.966194 
L 375.235289 198.180399 
L 375.518493 204.472537 
L 375.801697 216.770337 
L 376.084901 214.566591 
L 376.368105 198.749 
L 376.651308 207.954203 
L 376.934512 209.380685 
L 377.217716 209.283236 
L 377.50092 208.360546 
L 378.067327 218.515427 
L 378.350531 211.690493 
L 378.633735 208.752427 
L 378.916939 216.88389 
L 379.200143 187.650046 
L 379.76655 223.331611 
L 380.049754 221.704096 
L 380.332958 221.016141 
L 380.616162 221.546734 
L 380.899365 223.201551 
L 381.182569 220.719212 
L 381.465773 221.014588 
L 381.748977 221.939264 
L 382.032181 220.198018 
L 382.315384 224.486903 
L 382.598588 221.9424 
L 382.881792 220.847679 
L 383.164996 221.583611 
L 383.4482 221.647054 
L 383.731403 219.606667 
L 384.014607 221.136969 
L 384.297811 220.643048 
L 384.581015 223.466233 
L 384.864219 222.367826 
L 385.147423 223.757421 
L 385.430626 222.141241 
L 385.71383 219.659944 
L 385.997034 223.539232 
L 386.280238 219.384722 
L 386.563442 223.20806 
L 386.846645 222.592494 
L 387.413053 220.136542 
L 387.696257 219.564038 
L 387.979461 191.629103 
L 388.545868 211.488762 
L 388.829072 209.133326 
L 389.112276 205.257411 
L 389.39548 198.359773 
L 389.678683 210.209643 
L 389.961887 211.883563 
L 390.245091 220.028701 
L 390.528295 223.051828 
L 390.811499 215.989102 
L 391.094702 190.835293 
L 391.377906 214.105015 
L 391.944314 196.855927 
L 392.510722 209.249731 
L 392.793925 207.113704 
L 393.077129 197.806686 
L 393.360333 211.62942 
L 393.643537 201.596793 
L 393.926741 180.355425 
L 394.209944 203.541589 
L 394.493148 204.466009 
L 394.776352 198.992741 
L 395.059556 202.437814 
L 395.34276 197.150782 
L 395.625963 218.996941 
L 395.909167 224.337033 
L 396.192371 222.23695 
L 396.758779 205.824891 
L 397.041982 210.778086 
L 397.325186 213.001535 
L 397.60839 196.494956 
L 397.891594 199.988498 
L 398.174798 217.866532 
L 398.458001 223.144126 
L 398.741205 221.148285 
L 399.024409 220.83478 
L 399.307613 224.247282 
L 399.590817 221.997043 
L 399.87402 222.343444 
L 400.157224 221.369404 
L 400.440428 220.834112 
L 400.723632 221.8905 
L 401.006836 218.428281 
L 401.29004 224.794657 
L 402.139651 219.919484 
L 402.422855 222.289096 
L 402.706059 223.52589 
L 402.989262 220.43706 
L 403.272466 223.009701 
L 403.55567 219.729088 
L 403.838874 211.944576 
L 404.122078 215.832634 
L 404.405281 209.877979 
L 404.688485 200.951821 
L 404.971689 221.865931 
L 405.254893 220.014092 
L 405.538097 221.687687 
L 405.8213 224.239407 
L 406.104504 221.468987 
L 406.387708 221.892043 
L 406.670912 220.450588 
L 406.954116 224.049945 
L 407.237319 218.124352 
L 407.520523 221.264542 
L 407.803727 220.398668 
L 408.086931 220.446281 
L 408.370135 223.554293 
L 408.653338 218.298073 
L 408.936542 219.958141 
L 409.219746 224.499478 
L 409.50295 223.433062 
L 409.786154 216.357918 
L 410.069358 205.675168 
L 410.352561 201.285638 
L 410.635765 209.630541 
L 410.918969 213.057947 
L 411.202173 188.914634 
L 411.485377 203.958874 
L 411.76858 211.052305 
L 412.051784 210.925637 
L 412.334988 193.595361 
L 412.618192 216.378426 
L 413.184599 199.917387 
L 413.467803 216.546357 
L 414.034211 207.083531 
L 414.317415 213.375021 
L 414.600618 209.453281 
L 414.883822 214.250953 
L 415.167026 221.578932 
L 415.45023 223.136733 
L 415.733434 218.798592 
L 416.016637 223.171005 
L 416.299841 220.4965 
L 416.583045 223.672241 
L 416.866249 219.865922 
L 417.149453 219.971531 
L 417.432656 222.967278 
L 417.71586 222.781208 
L 417.999064 219.293428 
L 418.282268 221.52887 
L 418.565472 221.929088 
L 418.848676 221.303809 
L 419.131879 218.581219 
L 419.698287 221.748612 
L 419.981491 220.358182 
L 420.264695 221.47869 
L 420.547898 223.290634 
L 420.831102 220.858661 
L 421.114306 223.072111 
L 421.39751 219.547541 
L 421.680714 224.104008 
L 421.963917 222.607654 
L 422.247121 223.473135 
L 422.530325 219.825554 
L 422.813529 220.367463 
L 423.096733 221.186736 
L 423.379936 224.322355 
L 423.66314 221.11129 
L 423.946344 221.135563 
L 425.079159 200.043377 
L 425.362363 213.163881 
L 425.645567 216.524826 
L 425.928771 206.200717 
L 426.495178 218.799948 
L 426.778382 196.973098 
L 427.061586 213.509171 
L 427.34479 204.299357 
L 427.627994 206.344964 
L 427.911197 212.032509 
L 428.194401 207.867234 
L 428.477605 207.972981 
L 428.760809 200.035119 
L 429.044013 206.326038 
L 429.327216 205.869948 
L 429.61042 214.360947 
L 429.893624 217.90983 
L 430.176828 190.840956 
L 430.460032 203.861592 
L 430.743235 207.780865 
L 431.026439 197.045418 
L 431.309643 207.595906 
L 431.592847 213.003579 
L 431.876051 213.522296 
L 432.159254 196.025515 
L 432.442458 204.700165 
L 432.725662 193.695396 
L 433.008866 216.931543 
L 433.29207 203.490751 
L 433.575273 206.778108 
L 434.141681 221.318635 
L 434.424885 219.033553 
L 434.708089 221.027732 
L 434.991292 220.535807 
L 435.274496 222.346364 
L 435.5577 219.580083 
L 435.840904 223.622327 
L 436.124108 221.442757 
L 436.407312 222.532896 
L 436.690515 220.027777 
L 436.973719 213.237754 
L 437.256923 185.438238 
L 437.540127 205.385996 
L 437.823331 206.526728 
L 438.389738 223.97034 
L 438.672942 218.152588 
L 438.956146 203.651544 
L 439.23935 212.314651 
L 439.522553 213.027883 
L 439.805757 213.191144 
L 440.088961 216.124638 
L 440.372165 222.804361 
L 440.655369 219.597445 
L 440.938572 194.195069 
L 441.221776 214.362058 
L 441.50498 223.785136 
L 441.788184 223.980781 
L 442.071388 219.330148 
L 442.354591 222.617761 
L 442.637795 224.27599 
L 442.920999 220.724521 
L 443.204203 221.258142 
L 443.487407 222.70881 
L 443.77061 220.394214 
L 444.337018 224.491101 
L 444.620222 221.33409 
L 444.903426 223.45011 
L 445.18663 219.672115 
L 445.469833 221.787702 
L 445.753037 222.754496 
L 446.036241 224.299064 
L 446.602649 208.403382 
L 446.885852 207.125295 
L 447.169056 213.495997 
L 447.45226 208.46236 
L 447.735464 210.33108 
L 448.585075 225.188711 
L 448.868279 221.191829 
L 449.151483 200.345546 
L 449.434687 208.703516 
L 449.71789 200.721451 
L 450.001094 219.798842 
L 450.284298 220.283679 
L 450.567502 222.026203 
L 450.850706 219.121063 
L 451.133909 220.997215 
L 451.417113 219.969014 
L 451.700317 221.747688 
L 452.266725 219.692387 
L 452.549928 220.33669 
L 452.833132 223.945211 
L 453.39954 216.650679 
L 453.682744 210.952211 
L 453.965948 221.935518 
L 454.249151 218.854867 
L 454.532355 183.619186 
L 454.815559 215.613659 
L 455.381967 224.088563 
L 455.66517 219.870297 
L 455.948374 219.955732 
L 456.231578 224.295633 
L 456.514782 216.838203 
L 456.797986 204.623755 
L 457.081189 207.268952 
L 457.364393 203.829876 
L 457.647597 214.416455 
L 457.930801 206.18833 
L 458.214005 211.731451 
L 458.497208 208.573249 
L 458.780412 210.743539 
L 459.063616 205.804392 
L 459.34682 212.049871 
L 459.630024 210.001187 
L 459.913227 202.264338 
L 460.479635 221.486654 
L 460.762839 221.336243 
L 461.046043 219.364991 
L 461.61245 203.265837 
L 461.895654 201.182565 
L 462.178858 219.897304 
L 462.462062 224.891438 
L 462.745266 223.016996 
L 463.028469 220.128588 
L 463.311673 214.583658 
L 463.594877 193.136842 
L 463.878081 212.664011 
L 464.161285 209.489077 
L 464.444488 212.21327 
L 464.727692 212.360407 
L 465.010896 196.473111 
L 465.2941 208.155688 
L 465.577304 199.536862 
L 465.860507 221.70678 
L 466.143711 217.730219 
L 466.426915 203.03526 
L 466.710119 202.860909 
L 467.276526 212.930257 
L 467.55973 216.602593 
L 467.842934 223.659234 
L 468.409342 214.470921 
L 468.692545 205.337969 
L 468.975749 215.51562 
L 469.258953 211.038246 
L 469.542157 210.875378 
L 469.825361 220.21715 
L 470.108564 219.152789 
L 470.391768 222.579271 
L 470.674972 219.547433 
L 470.958176 219.720004 
L 471.24138 224.133041 
L 471.524584 222.031158 
L 471.807787 222.580067 
L 472.090991 201.727158 
L 472.374195 213.273374 
L 472.657399 211.353461 
L 472.940603 202.196098 
L 473.223806 209.543907 
L 473.50701 202.796484 
L 473.790214 193.112844 
L 474.639825 220.898154 
L 474.923029 220.493109 
L 475.206233 221.383679 
L 475.489437 219.71904 
L 476.055844 199.326311 
L 476.622252 212.244947 
L 476.905456 210.993424 
L 477.18866 212.369196 
L 477.471863 208.240219 
L 477.755067 208.370997 
L 478.038271 212.420516 
L 478.321475 209.160923 
L 478.604679 209.601519 
L 478.887882 211.112906 
L 479.171086 220.774868 
L 479.45429 222.416079 
L 479.737494 215.708974 
L 480.020698 221.822525 
L 480.303902 223.611168 
L 480.587105 219.614758 
L 480.870309 207.959876 
L 481.436717 216.520038 
L 481.719921 217.158679 
L 482.003124 214.214046 
L 482.286328 204.624571 
L 482.569532 212.631292 
L 482.852736 212.578616 
L 483.13594 206.496525 
L 483.419143 196.062216 
L 483.702347 213.519396 
L 483.985551 202.68589 
L 484.268755 215.454065 
L 485.118366 224.76183 
L 485.40157 213.141357 
L 485.684774 219.324328 
L 485.967978 221.092875 
L 486.251181 223.838737 
L 486.534385 218.002678 
L 486.817589 223.323609 
L 487.100793 217.956863 
L 487.383997 218.604077 
L 487.6672 186.244986 
L 487.950404 214.062052 
L 488.233608 220.254824 
L 488.800016 222.116505 
L 489.08322 221.467591 
L 489.366423 219.300437 
L 489.932831 224.546521 
L 490.216035 220.454825 
L 490.499239 220.48078 
L 490.782442 225.278314 
L 491.065646 222.339295 
L 491.34885 221.003105 
L 491.915258 202.843468 
L 492.198461 208.51546 
L 492.481665 217.964129 
L 492.764869 221.598949 
L 493.048073 220.620907 
L 493.331277 220.682875 
L 493.61448 220.942612 
L 493.897684 207.908782 
L 494.180888 223.340096 
L 494.464092 218.961961 
L 494.747296 219.936276 
L 495.030499 219.729049 
L 495.313703 220.16408 
L 495.596907 219.617521 
L 495.880111 222.893886 
L 496.163315 220.253998 
L 496.446518 220.265088 
L 497.012926 220.054676 
L 497.29613 221.398151 
L 497.579334 220.174649 
L 497.862538 221.664318 
L 498.145741 218.716627 
L 498.428945 213.479637 
L 498.712149 200.147866 
L 498.995353 214.016119 
L 499.278557 205.584463 
L 499.56176 206.680275 
L 499.844964 215.288838 
L 500.128168 197.82572 
L 500.411372 214.199977 
L 500.694576 217.332941 
L 500.977779 221.891463 
L 501.260983 220.972037 
L 501.544187 221.189361 
L 501.827391 222.73384 
L 502.110595 221.932539 
L 502.393798 215.402843 
L 502.960206 223.3101 
L 503.24341 223.632149 
L 503.809817 213.449366 
L 504.093021 211.387508 
L 504.376225 223.327089 
L 504.659429 222.85457 
L 504.942633 221.479782 
L 505.225836 189.893393 
L 505.50904 212.842629 
L 505.792244 205.312339 
L 506.075448 211.366105 
L 506.358652 207.42422 
L 506.641856 216.827241 
L 506.925059 205.55842 
L 507.491467 209.642005 
L 507.774671 203.265827 
L 508.341078 224.333671 
L 508.624282 219.485534 
L 508.907486 221.373032 
L 509.19069 220.863823 
L 509.473894 218.447973 
L 509.757097 222.875954 
L 510.040301 223.753685 
L 510.323505 219.013477 
L 510.606709 220.385946 
L 510.889913 220.052886 
L 511.173116 225.523992 
L 511.45632 220.221574 
L 511.739524 218.472198 
L 512.022728 225.07096 
L 512.589135 219.170633 
L 512.872339 197.648764 
L 513.155543 220.279688 
L 513.438747 222.783853 
L 514.005154 216.465818 
L 514.288358 208.792657 
L 514.571562 210.634361 
L 514.854766 204.043533 
L 515.13797 218.010022 
L 515.421174 191.299671 
L 515.704377 211.777177 
L 515.987581 205.451581 
L 516.270785 207.163864 
L 516.553989 214.57772 
L 516.837193 210.252911 
L 517.120396 212.003614 
L 517.4036 205.476032 
L 517.686804 216.393459 
L 517.970008 211.637944 
L 518.253212 214.225204 
L 518.536415 207.815875 
L 518.819619 204.883914 
L 519.102823 218.033912 
L 519.669231 206.252214 
L 519.952434 207.272098 
L 520.235638 200.066216 
L 521.08525 218.918693 
L 521.368453 210.702483 
L 521.651657 194.723253 
L 521.934861 219.298766 
L 522.218065 224.417277 
L 522.784472 219.791704 
L 523.067676 219.340501 
L 523.35088 223.771263 
L 523.634084 221.714222 
L 523.917288 215.369839 
L 524.200492 223.622651 
L 524.483695 220.298279 
L 524.766899 218.481439 
L 525.050103 209.518247 
L 525.333307 213.87727 
L 525.616511 214.678581 
L 525.899714 198.847501 
L 526.182918 212.514416 
L 526.466122 219.050699 
L 526.749326 216.400124 
L 527.03253 206.496968 
L 527.315733 217.676923 
L 527.598937 219.119883 
L 527.882141 224.308738 
L 528.165345 218.9439 
L 528.448549 217.553175 
L 528.731752 185.255275 
L 529.014956 218.851898 
L 529.29816 218.430267 
L 529.581364 222.341959 
L 529.864568 222.696678 
L 530.147771 219.559043 
L 530.430975 224.609551 
L 530.714179 219.26993 
L 530.997383 203.580236 
L 531.280587 214.361271 
L 531.56379 210.467767 
L 531.846994 203.969365 
L 532.130198 211.944291 
L 532.413402 195.066429 
L 532.696606 218.739475 
L 532.97981 218.665887 
L 533.263013 220.620268 
L 533.546217 215.4911 
L 533.829421 215.002163 
L 534.112625 206.508313 
L 534.395829 218.17114 
L 534.679032 217.689655 
L 534.962236 204.442552 
L 535.24544 205.431279 
L 535.24544 205.431279 
" clip-path="url(#p7761910ddd)" style="fill: none; stroke: #008000; stroke-width: 1.5; stroke-linecap: square"/>
   </g>
   <g id="patch_3">
    <path d="M 209.561063 311.6435 
L 209.561063 45.5315 
" style="fill: none; stroke: #000000; stroke-width: 0.8; stroke-linejoin: miter; stroke-linecap: square"/>
   </g>
   <g id="patch_4">
    <path d="M 566.681063 311.6435 
L 566.681063 45.5315 
" style="fill: none; stroke: #000000; stroke-width: 0.8; stroke-linejoin: miter; stroke-linecap: square"/>
   </g>
   <g id="patch_5">
    <path d="M 209.561063 311.6435 
L 566.681063 311.6435 
" style="fill: none; stroke: #000000; stroke-width: 0.8; stroke-linejoin: miter; stroke-linecap: square"/>
   </g>
   <g id="patch_6">
    <path d="M 209.561063 45.5315 
L 566.681063 45.5315 
" style="fill: none; stroke: #000000; stroke-width: 0.8; stroke-linejoin: miter; stroke-linecap: square"/>
   </g>
   <g id="text_11">
    <!-- Loss of the 12_05_25_CIFAR10_model_(1024+512-512-512-512+1)_1 -->
    <g transform="translate(7.2 25.5315) scale(0.264 -0.264)">
     <defs>
      <path id="TimesNewRomanPSMT-68" d="M 1041 4444 
L 1041 2350 
Q 1388 2731 1591 2839 
Q 1794 2947 1997 2947 
Q 2241 2947 2416 2812 
Q 2591 2678 2675 2391 
Q 2734 2191 2734 1659 
L 2734 647 
Q 2734 375 2778 275 
Q 2809 200 2884 156 
Q 2959 113 3159 113 
L 3159 0 
L 1753 0 
L 1753 113 
L 1819 113 
Q 2019 113 2097 173 
Q 2175 234 2206 353 
Q 2216 403 2216 647 
L 2216 1659 
Q 2216 2128 2167 2275 
Q 2119 2422 2012 2495 
Q 1906 2569 1756 2569 
Q 1603 2569 1437 2487 
Q 1272 2406 1041 2159 
L 1041 647 
Q 1041 353 1073 281 
Q 1106 209 1195 161 
Q 1284 113 1503 113 
L 1503 0 
L 84 0 
L 84 113 
Q 275 113 384 172 
Q 447 203 484 290 
Q 522 378 522 647 
L 522 3238 
Q 522 3728 498 3840 
Q 475 3953 426 3993 
Q 378 4034 297 4034 
Q 231 4034 84 3984 
L 41 4094 
L 897 4444 
L 1041 4444 
z
" transform="scale(0.015625)"/>
      <path id="TimesNewRomanPSMT-5f" d="M 3256 -1381 
L -53 -1381 
L -53 -1119 
L 3256 -1119 
L 3256 -1381 
z
" transform="scale(0.015625)"/>
      <path id="TimesNewRomanPSMT-43" d="M 3853 4334 
L 3950 2894 
L 3853 2894 
Q 3659 3541 3300 3825 
Q 2941 4109 2438 4109 
Q 2016 4109 1675 3895 
Q 1334 3681 1139 3212 
Q 944 2744 944 2047 
Q 944 1472 1128 1050 
Q 1313 628 1683 403 
Q 2053 178 2528 178 
Q 2941 178 3256 354 
Q 3572 531 3950 1056 
L 4047 994 
Q 3728 428 3303 165 
Q 2878 -97 2294 -97 
Q 1241 -97 663 684 
Q 231 1266 231 2053 
Q 231 2688 515 3219 
Q 800 3750 1298 4042 
Q 1797 4334 2388 4334 
Q 2847 4334 3294 4109 
Q 3425 4041 3481 4041 
Q 3566 4041 3628 4100 
Q 3709 4184 3744 4334 
L 3853 4334 
z
" transform="scale(0.015625)"/>
      <path id="TimesNewRomanPSMT-49" d="M 1975 116 
L 1975 0 
L 159 0 
L 159 116 
L 309 116 
Q 572 116 691 269 
Q 766 369 766 750 
L 766 3488 
Q 766 3809 725 3913 
Q 694 3991 597 4047 
Q 459 4122 309 4122 
L 159 4122 
L 159 4238 
L 1975 4238 
L 1975 4122 
L 1822 4122 
Q 1563 4122 1444 3969 
Q 1366 3869 1366 3488 
L 1366 750 
Q 1366 428 1406 325 
Q 1438 247 1538 191 
Q 1672 116 1822 116 
L 1975 116 
z
" transform="scale(0.015625)"/>
      <path id="TimesNewRomanPSMT-46" d="M 1309 4006 
L 1309 2341 
L 2081 2341 
Q 2347 2341 2470 2458 
Q 2594 2575 2634 2922 
L 2750 2922 
L 2750 1488 
L 2634 1488 
Q 2631 1734 2570 1850 
Q 2509 1966 2401 2023 
Q 2294 2081 2081 2081 
L 1309 2081 
L 1309 750 
Q 1309 428 1350 325 
Q 1381 247 1481 191 
Q 1619 116 1769 116 
L 1922 116 
L 1922 0 
L 103 0 
L 103 116 
L 253 116 
Q 516 116 634 269 
Q 709 369 709 750 
L 709 3488 
Q 709 3809 669 3913 
Q 638 3991 541 4047 
Q 406 4122 253 4122 
L 103 4122 
L 103 4238 
L 3256 4238 
L 3297 3306 
L 3188 3306 
Q 3106 3603 2998 3742 
Q 2891 3881 2733 3943 
Q 2575 4006 2244 4006 
L 1309 4006 
z
" transform="scale(0.015625)"/>
      <path id="TimesNewRomanPSMT-41" d="M 2928 1419 
L 1288 1419 
L 1000 750 
Q 894 503 894 381 
Q 894 284 986 211 
Q 1078 138 1384 116 
L 1384 0 
L 50 0 
L 50 116 
Q 316 163 394 238 
Q 553 388 747 847 
L 2238 4334 
L 2347 4334 
L 3822 809 
Q 4000 384 4145 257 
Q 4291 131 4550 116 
L 4550 0 
L 2878 0 
L 2878 116 
Q 3131 128 3220 200 
Q 3309 272 3309 375 
Q 3309 513 3184 809 
L 2928 1419 
z
M 2841 1650 
L 2122 3363 
L 1384 1650 
L 2841 1650 
z
" transform="scale(0.015625)"/>
      <path id="TimesNewRomanPSMT-52" d="M 4325 0 
L 3194 0 
L 1759 1981 
Q 1600 1975 1500 1975 
Q 1459 1975 1412 1976 
Q 1366 1978 1316 1981 
L 1316 750 
Q 1316 350 1403 253 
Q 1522 116 1759 116 
L 1925 116 
L 1925 0 
L 109 0 
L 109 116 
L 269 116 
Q 538 116 653 291 
Q 719 388 719 750 
L 719 3488 
Q 719 3888 631 3984 
Q 509 4122 269 4122 
L 109 4122 
L 109 4238 
L 1653 4238 
Q 2328 4238 2648 4139 
Q 2969 4041 3192 3777 
Q 3416 3513 3416 3147 
Q 3416 2756 3161 2468 
Q 2906 2181 2372 2063 
L 3247 847 
Q 3547 428 3762 290 
Q 3978 153 4325 116 
L 4325 0 
z
M 1316 2178 
Q 1375 2178 1419 2176 
Q 1463 2175 1491 2175 
Q 2097 2175 2405 2437 
Q 2713 2700 2713 3106 
Q 2713 3503 2464 3751 
Q 2216 4000 1806 4000 
Q 1625 4000 1316 3941 
L 1316 2178 
z
" transform="scale(0.015625)"/>
      <path id="TimesNewRomanPSMT-64" d="M 2222 322 
Q 2013 103 1813 7 
Q 1613 -88 1381 -88 
Q 913 -88 563 304 
Q 213 697 213 1313 
Q 213 1928 600 2439 
Q 988 2950 1597 2950 
Q 1975 2950 2222 2709 
L 2222 3238 
Q 2222 3728 2198 3840 
Q 2175 3953 2125 3993 
Q 2075 4034 2000 4034 
Q 1919 4034 1784 3984 
L 1744 4094 
L 2597 4444 
L 2738 4444 
L 2738 1134 
Q 2738 631 2761 520 
Q 2784 409 2836 365 
Q 2888 322 2956 322 
Q 3041 322 3181 375 
L 3216 266 
L 2366 -88 
L 2222 -88 
L 2222 322 
z
M 2222 541 
L 2222 2016 
Q 2203 2228 2109 2403 
Q 2016 2578 1861 2667 
Q 1706 2756 1559 2756 
Q 1284 2756 1069 2509 
Q 784 2184 784 1559 
Q 784 928 1059 592 
Q 1334 256 1672 256 
Q 1956 256 2222 541 
z
" transform="scale(0.015625)"/>
      <path id="TimesNewRomanPSMT-6c" d="M 1184 4444 
L 1184 647 
Q 1184 378 1223 290 
Q 1263 203 1344 158 
Q 1425 113 1647 113 
L 1647 0 
L 244 0 
L 244 113 
Q 441 113 512 153 
Q 584 194 625 287 
Q 666 381 666 647 
L 666 3247 
Q 666 3731 644 3842 
Q 622 3953 573 3993 
Q 525 4034 450 4034 
Q 369 4034 244 3984 
L 191 4094 
L 1044 4444 
L 1184 4444 
z
" transform="scale(0.015625)"/>
      <path id="TimesNewRomanPSMT-28" d="M 1988 -1253 
L 1988 -1369 
Q 1516 -1131 1200 -813 
Q 750 -359 506 256 
Q 263 872 263 1534 
Q 263 2503 741 3301 
Q 1219 4100 1988 4444 
L 1988 4313 
Q 1603 4100 1356 3731 
Q 1109 3363 987 2797 
Q 866 2231 866 1616 
Q 866 947 969 400 
Q 1050 -31 1165 -292 
Q 1281 -553 1476 -793 
Q 1672 -1034 1988 -1253 
z
" transform="scale(0.015625)"/>
      <path id="TimesNewRomanPSMT-34" d="M 2978 1563 
L 2978 1119 
L 2409 1119 
L 2409 0 
L 1894 0 
L 1894 1119 
L 100 1119 
L 100 1519 
L 2066 4325 
L 2409 4325 
L 2409 1563 
L 2978 1563 
z
M 1894 1563 
L 1894 3666 
L 406 1563 
L 1894 1563 
z
" transform="scale(0.015625)"/>
      <path id="TimesNewRomanPSMT-2b" d="M 1672 441 
L 1672 2000 
L 116 2000 
L 116 2256 
L 1672 2256 
L 1672 3809 
L 1922 3809 
L 1922 2256 
L 3484 2256 
L 3484 2000 
L 1922 2000 
L 1922 441 
L 1672 441 
z
" transform="scale(0.015625)"/>
      <path id="TimesNewRomanPSMT-2d" d="M 259 1672 
L 1875 1672 
L 1875 1200 
L 259 1200 
L 259 1672 
z
" transform="scale(0.015625)"/>
      <path id="TimesNewRomanPSMT-29" d="M 144 4313 
L 144 4444 
Q 619 4209 934 3891 
Q 1381 3434 1625 2820 
Q 1869 2206 1869 1541 
Q 1869 572 1392 -226 
Q 916 -1025 144 -1369 
L 144 -1253 
Q 528 -1038 776 -670 
Q 1025 -303 1145 264 
Q 1266 831 1266 1447 
Q 1266 2113 1163 2663 
Q 1084 3094 967 3353 
Q 850 3613 656 3853 
Q 463 4094 144 4313 
z
" transform="scale(0.015625)"/>
     </defs>
     <use xlink:href="#TimesNewRomanPSMT-4c"/>
     <use xlink:href="#TimesNewRomanPSMT-6f" transform="translate(61.083984 0)"/>
     <use xlink:href="#TimesNewRomanPSMT-73" transform="translate(111.083984 0)"/>
     <use xlink:href="#TimesNewRomanPSMT-73" transform="translate(150 0)"/>
     <use xlink:href="#TimesNewRomanPSMT-20" transform="translate(188.916016 0)"/>
     <use xlink:href="#TimesNewRomanPSMT-6f" transform="translate(213.916016 0)"/>
     <use xlink:href="#TimesNewRomanPSMT-66" transform="translate(263.916016 0)"/>
     <use xlink:href="#TimesNewRomanPSMT-20" transform="translate(297.216797 0)"/>
     <use xlink:href="#TimesNewRomanPSMT-74" transform="translate(322.216797 0)"/>
     <use xlink:href="#TimesNewRomanPSMT-68" transform="translate(350 0)"/>
     <use xlink:href="#TimesNewRomanPSMT-65" transform="translate(400 0)"/>
     <use xlink:href="#TimesNewRomanPSMT-20" transform="translate(444.384766 0)"/>
     <use xlink:href="#TimesNewRomanPSMT-31" transform="translate(469.384766 0)"/>
     <use xlink:href="#TimesNewRomanPSMT-32" transform="translate(519.384766 0)"/>
     <use xlink:href="#TimesNewRomanPSMT-5f" transform="translate(569.384766 0)"/>
     <use xlink:href="#TimesNewRomanPSMT-30" transform="translate(619.384766 0)"/>
     <use xlink:href="#TimesNewRomanPSMT-35" transform="translate(669.384766 0)"/>
     <use xlink:href="#TimesNewRomanPSMT-5f" transform="translate(719.384766 0)"/>
     <use xlink:href="#TimesNewRomanPSMT-32" transform="translate(769.384766 0)"/>
     <use xlink:href="#TimesNewRomanPSMT-35" transform="translate(819.384766 0)"/>
     <use xlink:href="#TimesNewRomanPSMT-5f" transform="translate(869.384766 0)"/>
     <use xlink:href="#TimesNewRomanPSMT-43" transform="translate(919.384766 0)"/>
     <use xlink:href="#TimesNewRomanPSMT-49" transform="translate(986.083984 0)"/>
     <use xlink:href="#TimesNewRomanPSMT-46" transform="translate(1019.384766 0)"/>
     <use xlink:href="#TimesNewRomanPSMT-41" transform="translate(1067.625 0)"/>
     <use xlink:href="#TimesNewRomanPSMT-52" transform="translate(1139.841797 0)"/>
     <use xlink:href="#TimesNewRomanPSMT-31" transform="translate(1206.541016 0)"/>
     <use xlink:href="#TimesNewRomanPSMT-30" transform="translate(1256.541016 0)"/>
     <use xlink:href="#TimesNewRomanPSMT-5f" transform="translate(1306.541016 0)"/>
     <use xlink:href="#TimesNewRomanPSMT-6d" transform="translate(1356.541016 0)"/>
     <use xlink:href="#TimesNewRomanPSMT-6f" transform="translate(1434.324219 0)"/>
     <use xlink:href="#TimesNewRomanPSMT-64" transform="translate(1484.324219 0)"/>
     <use xlink:href="#TimesNewRomanPSMT-65" transform="translate(1534.324219 0)"/>
     <use xlink:href="#TimesNewRomanPSMT-6c" transform="translate(1578.708984 0)"/>
     <use xlink:href="#TimesNewRomanPSMT-5f" transform="translate(1606.492188 0)"/>
     <use xlink:href="#TimesNewRomanPSMT-28" transform="translate(1656.492188 0)"/>
     <use xlink:href="#TimesNewRomanPSMT-31" transform="translate(1689.792969 0)"/>
     <use xlink:href="#TimesNewRomanPSMT-30" transform="translate(1739.792969 0)"/>
     <use xlink:href="#TimesNewRomanPSMT-32" transform="translate(1789.792969 0)"/>
     <use xlink:href="#TimesNewRomanPSMT-34" transform="translate(1839.792969 0)"/>
     <use xlink:href="#TimesNewRomanPSMT-2b" transform="translate(1889.792969 0)"/>
     <use xlink:href="#TimesNewRomanPSMT-35" transform="translate(1946.189453 0)"/>
     <use xlink:href="#TimesNewRomanPSMT-31" transform="translate(1996.189453 0)"/>
     <use xlink:href="#TimesNewRomanPSMT-32" transform="translate(2046.189453 0)"/>
     <use xlink:href="#TimesNewRomanPSMT-2d" transform="translate(2096.189453 0)"/>
     <use xlink:href="#TimesNewRomanPSMT-35" transform="translate(2129.490234 0)"/>
     <use xlink:href="#TimesNewRomanPSMT-31" transform="translate(2179.490234 0)"/>
     <use xlink:href="#TimesNewRomanPSMT-32" transform="translate(2229.490234 0)"/>
     <use xlink:href="#TimesNewRomanPSMT-2d" transform="translate(2279.490234 0)"/>
     <use xlink:href="#TimesNewRomanPSMT-35" transform="translate(2312.791016 0)"/>
     <use xlink:href="#TimesNewRomanPSMT-31" transform="translate(2362.791016 0)"/>
     <use xlink:href="#TimesNewRomanPSMT-32" transform="translate(2412.791016 0)"/>
     <use xlink:href="#TimesNewRomanPSMT-2d" transform="translate(2462.791016 0)"/>
     <use xlink:href="#TimesNewRomanPSMT-35" transform="translate(2496.091797 0)"/>
     <use xlink:href="#TimesNewRomanPSMT-31" transform="translate(2546.091797 0)"/>
     <use xlink:href="#TimesNewRomanPSMT-32" transform="translate(2596.091797 0)"/>
     <use xlink:href="#TimesNewRomanPSMT-2b" transform="translate(2646.091797 0)"/>
     <use xlink:href="#TimesNewRomanPSMT-31" transform="translate(2702.488281 0)"/>
     <use xlink:href="#TimesNewRomanPSMT-29" transform="translate(2752.488281 0)"/>
     <use xlink:href="#TimesNewRomanPSMT-5f" transform="translate(2785.789062 0)"/>
     <use xlink:href="#TimesNewRomanPSMT-31" transform="translate(2835.789062 0)"/>
    </g>
   </g>
   <g id="legend_1">
    <g id="patch_7">
     <path d="M 350.723562 125.384625 
L 551.281063 125.384625 
Q 555.681063 125.384625 555.681063 120.984625 
L 555.681063 60.9315 
Q 555.681063 56.5315 551.281063 56.5315 
L 350.723562 56.5315 
Q 346.323562 56.5315 346.323562 60.9315 
L 346.323562 120.984625 
Q 346.323562 125.384625 350.723562 125.384625 
z
" style="fill: #ffffff; opacity: 0.8; stroke: #cccccc; stroke-linejoin: miter"/>
    </g>
    <g id="line2d_19">
     <path d="M 355.123562 73.0315 
L 377.123562 73.0315 
L 399.123562 73.0315 
" style="fill: none; stroke: #ffa500; stroke-width: 1.5; stroke-linecap: square"/>
    </g>
    <g id="text_12">
     <!-- Training loss -->
     <g transform="translate(416.723563 80.7315) scale(0.22 -0.22)">
      <defs>
       <path id="TimesNewRomanPSMT-54" d="M 3703 4238 
L 3750 3244 
L 3631 3244 
Q 3597 3506 3538 3619 
Q 3441 3800 3280 3886 
Q 3119 3972 2856 3972 
L 2259 3972 
L 2259 734 
Q 2259 344 2344 247 
Q 2463 116 2709 116 
L 2856 116 
L 2856 0 
L 1059 0 
L 1059 116 
L 1209 116 
Q 1478 116 1591 278 
Q 1659 378 1659 734 
L 1659 3972 
L 1150 3972 
Q 853 3972 728 3928 
Q 566 3869 450 3700 
Q 334 3531 313 3244 
L 194 3244 
L 244 4238 
L 3703 4238 
z
" transform="scale(0.015625)"/>
       <path id="TimesNewRomanPSMT-67" d="M 966 1044 
Q 703 1172 562 1401 
Q 422 1631 422 1909 
Q 422 2334 742 2640 
Q 1063 2947 1563 2947 
Q 1972 2947 2272 2747 
L 2878 2747 
Q 3013 2747 3034 2739 
Q 3056 2731 3066 2713 
Q 3084 2684 3084 2613 
Q 3084 2531 3069 2500 
Q 3059 2484 3036 2475 
Q 3013 2466 2878 2466 
L 2506 2466 
Q 2681 2241 2681 1891 
Q 2681 1491 2375 1206 
Q 2069 922 1553 922 
Q 1341 922 1119 984 
Q 981 866 932 777 
Q 884 688 884 625 
Q 884 572 936 522 
Q 988 472 1138 450 
Q 1225 438 1575 428 
Q 2219 413 2409 384 
Q 2700 344 2873 169 
Q 3047 -6 3047 -263 
Q 3047 -616 2716 -925 
Q 2228 -1381 1444 -1381 
Q 841 -1381 425 -1109 
Q 191 -953 191 -784 
Q 191 -709 225 -634 
Q 278 -519 444 -313 
Q 466 -284 763 25 
Q 600 122 533 198 
Q 466 275 466 372 
Q 466 481 555 628 
Q 644 775 966 1044 
z
M 1509 2797 
Q 1278 2797 1122 2612 
Q 966 2428 966 2047 
Q 966 1553 1178 1281 
Q 1341 1075 1591 1075 
Q 1828 1075 1981 1253 
Q 2134 1431 2134 1813 
Q 2134 2309 1919 2591 
Q 1759 2797 1509 2797 
z
M 934 0 
Q 788 -159 713 -296 
Q 638 -434 638 -550 
Q 638 -700 819 -813 
Q 1131 -1006 1722 -1006 
Q 2284 -1006 2551 -807 
Q 2819 -609 2819 -384 
Q 2819 -222 2659 -153 
Q 2497 -84 2016 -72 
Q 1313 -53 934 0 
z
" transform="scale(0.015625)"/>
      </defs>
      <use xlink:href="#TimesNewRomanPSMT-54"/>
      <use xlink:href="#TimesNewRomanPSMT-72" transform="translate(57.583984 0)"/>
      <use xlink:href="#TimesNewRomanPSMT-61" transform="translate(90.884766 0)"/>
      <use xlink:href="#TimesNewRomanPSMT-69" transform="translate(135.269531 0)"/>
      <use xlink:href="#TimesNewRomanPSMT-6e" transform="translate(163.052734 0)"/>
      <use xlink:href="#TimesNewRomanPSMT-69" transform="translate(213.052734 0)"/>
      <use xlink:href="#TimesNewRomanPSMT-6e" transform="translate(240.835938 0)"/>
      <use xlink:href="#TimesNewRomanPSMT-67" transform="translate(290.835938 0)"/>
      <use xlink:href="#TimesNewRomanPSMT-20" transform="translate(340.835938 0)"/>
      <use xlink:href="#TimesNewRomanPSMT-6c" transform="translate(365.835938 0)"/>
      <use xlink:href="#TimesNewRomanPSMT-6f" transform="translate(393.619141 0)"/>
      <use xlink:href="#TimesNewRomanPSMT-73" transform="translate(443.619141 0)"/>
      <use xlink:href="#TimesNewRomanPSMT-73" transform="translate(482.535156 0)"/>
     </g>
    </g>
    <g id="line2d_20">
     <path d="M 355.123562 104.178687 
L 377.123562 104.178687 
L 399.123562 104.178687 
" style="fill: none; stroke: #008000; stroke-width: 1.5; stroke-linecap: square"/>
    </g>
    <g id="text_13">
     <!-- Validation loss -->
     <g transform="translate(416.723563 111.878687) scale(0.22 -0.22)">
      <defs>
       <path id="TimesNewRomanPSMT-56" d="M 4544 4238 
L 4544 4122 
Q 4319 4081 4203 3978 
Q 4038 3825 3909 3509 
L 2431 -97 
L 2316 -97 
L 728 3556 
Q 606 3838 556 3900 
Q 478 3997 364 4051 
Q 250 4106 56 4122 
L 56 4238 
L 1788 4238 
L 1788 4122 
Q 1494 4094 1406 4022 
Q 1319 3950 1319 3838 
Q 1319 3681 1463 3350 
L 2541 866 
L 3541 3319 
Q 3688 3681 3688 3822 
Q 3688 3913 3597 3995 
Q 3506 4078 3291 4113 
Q 3275 4116 3238 4122 
L 3238 4238 
L 4544 4238 
z
" transform="scale(0.015625)"/>
      </defs>
      <use xlink:href="#TimesNewRomanPSMT-56"/>
      <use xlink:href="#TimesNewRomanPSMT-61" transform="translate(61.091797 0)"/>
      <use xlink:href="#TimesNewRomanPSMT-6c" transform="translate(105.476562 0)"/>
      <use xlink:href="#TimesNewRomanPSMT-69" transform="translate(133.259766 0)"/>
      <use xlink:href="#TimesNewRomanPSMT-64" transform="translate(161.042969 0)"/>
      <use xlink:href="#TimesNewRomanPSMT-61" transform="translate(211.042969 0)"/>
      <use xlink:href="#TimesNewRomanPSMT-74" transform="translate(255.427734 0)"/>
      <use xlink:href="#TimesNewRomanPSMT-69" transform="translate(283.210938 0)"/>
      <use xlink:href="#TimesNewRomanPSMT-6f" transform="translate(310.994141 0)"/>
      <use xlink:href="#TimesNewRomanPSMT-6e" transform="translate(360.994141 0)"/>
      <use xlink:href="#TimesNewRomanPSMT-20" transform="translate(410.994141 0)"/>
      <use xlink:href="#TimesNewRomanPSMT-6c" transform="translate(435.994141 0)"/>
      <use xlink:href="#TimesNewRomanPSMT-6f" transform="translate(463.777344 0)"/>
      <use xlink:href="#TimesNewRomanPSMT-73" transform="translate(513.777344 0)"/>
      <use xlink:href="#TimesNewRomanPSMT-73" transform="translate(552.693359 0)"/>
     </g>
    </g>
   </g>
  </g>
 </g>
 <defs>
  <clipPath id="p7761910ddd">
   <rect x="209.561063" y="45.5315" width="357.12" height="266.112"/>
  </clipPath>
 </defs>
</svg>
