<?xml version="1.0" encoding="utf-8" standalone="no"?>
<!DOCTYPE svg PUBLIC "-//W3C//DTD SVG 1.1//EN"
  "http://www.w3.org/Graphics/SVG/1.1/DTD/svg11.dtd">
<svg xmlns:xlink="http://www.w3.org/1999/xlink" width="960.939pt" height="383.265687pt" viewBox="0 0 960.939 383.265687" xmlns="http://www.w3.org/2000/svg" version="1.1">
 <metadata>
  <rdf:RDF xmlns:dc="http://purl.org/dc/elements/1.1/" xmlns:cc="http://creativecommons.org/ns#" xmlns:rdf="http://www.w3.org/1999/02/22-rdf-syntax-ns#">
   <cc:Work>
    <dc:type rdf:resource="http://purl.org/dc/dcmitype/StillImage"/>
    <dc:date>2025-05-14T11:24:29.372441</dc:date>
    <dc:format>image/svg+xml</dc:format>
    <dc:creator>
     <cc:Agent>
      <dc:title>Matplotlib v3.10.1, https://matplotlib.org/</dc:title>
     </cc:Agent>
    </dc:creator>
   </cc:Work>
  </rdf:RDF>
 </metadata>
 <defs>
  <style type="text/css">*{stroke-linejoin: round; stroke-linecap: butt}</style>
 </defs>
 <g id="figure_1">
  <g id="patch_1">
   <path d="M 0 383.265687 
L 960.939 383.265687 
L 960.939 0 
L 0 0 
z
" style="fill: #ffffff"/>
  </g>
  <g id="axes_1">
   <g id="patch_2">
    <path d="M 301.9095 311.6435 
L 659.0295 311.6435 
L 659.0295 45.5315 
L 301.9095 45.5315 
z
" style="fill: #ffffff"/>
   </g>
   <g id="matplotlib.axis_1">
    <g id="xtick_1">
     <g id="line2d_1">
      <path d="M 301.9095 311.6435 
L 301.9095 45.5315 
" clip-path="url(#pab4d007343)" style="fill: none; stroke: #b0b0b0; stroke-opacity: 0.3; stroke-width: 0.8; stroke-linecap: square"/>
     </g>
     <g id="line2d_2">
      <defs>
       <path id="m9dd7a03d38" d="M 0 0 
L 0 3.5 
" style="stroke: #000000; stroke-width: 0.8"/>
      </defs>
      <g>
       <use xlink:href="#m9dd7a03d38" x="301.9095" y="311.6435" style="stroke: #000000; stroke-width: 0.8"/>
      </g>
     </g>
     <g id="text_1">
      <!-- 0.0 -->
      <g transform="translate(288.1595 333.91975) scale(0.22 -0.22)">
       <defs>
        <path id="TimesNewRomanPSMT-30" d="M 231 2094 
Q 231 2819 450 3342 
Q 669 3866 1031 4122 
Q 1313 4325 1613 4325 
Q 2100 4325 2488 3828 
Q 2972 3213 2972 2159 
Q 2972 1422 2759 906 
Q 2547 391 2217 158 
Q 1888 -75 1581 -75 
Q 975 -75 572 641 
Q 231 1244 231 2094 
z
M 844 2016 
Q 844 1141 1059 588 
Q 1238 122 1591 122 
Q 1759 122 1940 273 
Q 2122 425 2216 781 
Q 2359 1319 2359 2297 
Q 2359 3022 2209 3506 
Q 2097 3866 1919 4016 
Q 1791 4119 1609 4119 
Q 1397 4119 1231 3928 
Q 1006 3669 925 3112 
Q 844 2556 844 2016 
z
" transform="scale(0.015625)"/>
        <path id="TimesNewRomanPSMT-2e" d="M 800 606 
Q 947 606 1047 504 
Q 1147 403 1147 259 
Q 1147 116 1045 14 
Q 944 -88 800 -88 
Q 656 -88 554 14 
Q 453 116 453 259 
Q 453 406 554 506 
Q 656 606 800 606 
z
" transform="scale(0.015625)"/>
       </defs>
       <use xlink:href="#TimesNewRomanPSMT-30"/>
       <use xlink:href="#TimesNewRomanPSMT-2e" transform="translate(50 0)"/>
       <use xlink:href="#TimesNewRomanPSMT-30" transform="translate(75 0)"/>
      </g>
     </g>
    </g>
    <g id="xtick_2">
     <g id="line2d_3">
      <path d="M 421.178264 311.6435 
L 421.178264 45.5315 
" clip-path="url(#pab4d007343)" style="fill: none; stroke: #b0b0b0; stroke-opacity: 0.3; stroke-width: 0.8; stroke-linecap: square"/>
     </g>
     <g id="line2d_4">
      <g>
       <use xlink:href="#m9dd7a03d38" x="421.178264" y="311.6435" style="stroke: #000000; stroke-width: 0.8"/>
      </g>
     </g>
     <g id="text_2">
      <!-- 0.5 -->
      <g transform="translate(407.428264 333.91975) scale(0.22 -0.22)">
       <defs>
        <path id="TimesNewRomanPSMT-35" d="M 2778 4238 
L 2534 3706 
L 1259 3706 
L 981 3138 
Q 1809 3016 2294 2522 
Q 2709 2097 2709 1522 
Q 2709 1188 2573 903 
Q 2438 619 2231 419 
Q 2025 219 1772 97 
Q 1413 -75 1034 -75 
Q 653 -75 479 54 
Q 306 184 306 341 
Q 306 428 378 495 
Q 450 563 559 563 
Q 641 563 702 538 
Q 763 513 909 409 
Q 1144 247 1384 247 
Q 1750 247 2026 523 
Q 2303 800 2303 1197 
Q 2303 1581 2056 1914 
Q 1809 2247 1375 2428 
Q 1034 2569 447 2591 
L 1259 4238 
L 2778 4238 
z
" transform="scale(0.015625)"/>
       </defs>
       <use xlink:href="#TimesNewRomanPSMT-30"/>
       <use xlink:href="#TimesNewRomanPSMT-2e" transform="translate(50 0)"/>
       <use xlink:href="#TimesNewRomanPSMT-35" transform="translate(75 0)"/>
      </g>
     </g>
    </g>
    <g id="xtick_3">
     <g id="line2d_5">
      <path d="M 540.447028 311.6435 
L 540.447028 45.5315 
" clip-path="url(#pab4d007343)" style="fill: none; stroke: #b0b0b0; stroke-opacity: 0.3; stroke-width: 0.8; stroke-linecap: square"/>
     </g>
     <g id="line2d_6">
      <g>
       <use xlink:href="#m9dd7a03d38" x="540.447028" y="311.6435" style="stroke: #000000; stroke-width: 0.8"/>
      </g>
     </g>
     <g id="text_3">
      <!-- 1.0 -->
      <g transform="translate(526.697028 333.91975) scale(0.22 -0.22)">
       <defs>
        <path id="TimesNewRomanPSMT-31" d="M 750 3822 
L 1781 4325 
L 1884 4325 
L 1884 747 
Q 1884 391 1914 303 
Q 1944 216 2037 169 
Q 2131 122 2419 116 
L 2419 0 
L 825 0 
L 825 116 
Q 1125 122 1212 167 
Q 1300 213 1334 289 
Q 1369 366 1369 747 
L 1369 3034 
Q 1369 3497 1338 3628 
Q 1316 3728 1258 3775 
Q 1200 3822 1119 3822 
Q 1003 3822 797 3725 
L 750 3822 
z
" transform="scale(0.015625)"/>
       </defs>
       <use xlink:href="#TimesNewRomanPSMT-31"/>
       <use xlink:href="#TimesNewRomanPSMT-2e" transform="translate(50 0)"/>
       <use xlink:href="#TimesNewRomanPSMT-30" transform="translate(75 0)"/>
      </g>
     </g>
    </g>
    <g id="text_4">
     <!-- $\kappa  = \frac{ln(n)}{ln(d)}$ -->
     <g transform="translate(448.4595 364.185687) scale(0.22 -0.22)">
      <defs>
       <path id="STIXGeneral-Italic-3ba" d="M 979 1440 
L 998 1446 
Q 1850 2541 2464 2790 
Q 2547 2822 2630 2822 
Q 2797 2822 2886 2736 
Q 2976 2650 2976 2522 
Q 2976 2387 2893 2307 
Q 2810 2227 2682 2227 
Q 2605 2227 2502 2288 
Q 2400 2349 2336 2349 
Q 2170 2349 1990 2205 
Q 1811 2061 1414 1645 
L 2042 544 
Q 2202 262 2310 182 
Q 2419 102 2624 102 
L 2624 0 
Q 2374 -83 2182 -83 
Q 1786 -83 1555 326 
L 960 1350 
L 576 0 
L 90 0 
L 640 1978 
Q 730 2317 730 2406 
Q 730 2560 518 2560 
L 339 2560 
L 339 2650 
Q 678 2694 1306 2822 
L 1325 2803 
L 979 1440 
z
" transform="scale(0.015625)"/>
       <path id="STIXGeneral-Regular-3d" d="M 4077 2048 
L 307 2048 
L 307 2470 
L 4077 2470 
L 4077 2048 
z
M 4077 768 
L 307 768 
L 307 1190 
L 4077 1190 
L 4077 768 
z
" transform="scale(0.015625)"/>
       <path id="STIXGeneral-Italic-6c" d="M 1786 4339 
L 806 595 
Q 755 410 755 320 
Q 755 205 864 205 
Q 1037 205 1293 570 
L 1453 794 
L 1542 730 
Q 1254 275 1046 102 
Q 838 -70 576 -70 
Q 262 -70 262 288 
Q 262 397 288 480 
L 1165 3834 
Q 1184 3898 1184 3955 
Q 1184 4096 870 4096 
L 755 4096 
L 755 4198 
Q 1203 4250 1747 4371 
L 1786 4339 
z
" transform="scale(0.015625)"/>
       <path id="STIXGeneral-Italic-6e" d="M 2944 749 
L 3034 666 
Q 2707 218 2534 80 
Q 2362 -58 2138 -58 
Q 2010 -58 1923 28 
Q 1837 115 1837 288 
Q 1837 390 1939 768 
L 2221 1805 
Q 2310 2150 2310 2310 
Q 2310 2496 2157 2496 
Q 1971 2496 1750 2275 
Q 1530 2054 1210 1587 
Q 998 1274 899 1024 
Q 800 774 570 0 
L 90 0 
L 704 2240 
Q 717 2304 717 2349 
Q 717 2445 630 2480 
Q 544 2515 301 2522 
L 301 2624 
Q 550 2675 857 2729 
Q 1165 2784 1338 2822 
L 1363 2810 
L 934 1414 
Q 1408 2170 1753 2496 
Q 2099 2822 2413 2822 
Q 2611 2822 2720 2716 
Q 2829 2611 2829 2432 
Q 2829 2272 2765 2048 
L 2406 749 
Q 2317 429 2317 358 
Q 2317 243 2419 243 
Q 2541 243 2810 582 
Q 2854 634 2944 749 
z
" transform="scale(0.015625)"/>
       <path id="STIXGeneral-Regular-28" d="M 1946 -1030 
L 1869 -1133 
Q 1126 -710 716 32 
Q 307 774 307 1613 
Q 307 3386 1888 4326 
L 1946 4224 
Q 1293 3667 1075 3126 
Q 858 2586 858 1632 
Q 858 685 1082 96 
Q 1306 -493 1946 -1030 
z
" transform="scale(0.015625)"/>
       <path id="STIXGeneral-Regular-29" d="M 186 4224 
L 262 4326 
Q 992 3891 1408 3148 
Q 1824 2406 1824 1581 
Q 1824 -166 243 -1133 
L 186 -1030 
Q 845 -486 1059 54 
Q 1274 595 1274 1562 
Q 1274 2534 1059 3120 
Q 845 3706 186 4224 
z
" transform="scale(0.015625)"/>
       <path id="STIXGeneral-Italic-64" d="M 3334 4371 
L 3373 4333 
L 3123 3360 
L 2739 1958 
Q 2323 429 2323 384 
Q 2323 256 2438 256 
Q 2522 256 2614 336 
Q 2707 416 2963 710 
L 3040 646 
Q 2547 -83 2099 -83 
Q 1978 -83 1907 -6 
Q 1837 70 1837 205 
Q 1837 397 1920 774 
Q 1645 307 1379 118 
Q 1114 -70 781 -70 
Q 461 -70 278 125 
Q 96 320 96 678 
Q 96 1440 713 2131 
Q 1331 2822 1965 2822 
Q 2163 2822 2256 2732 
Q 2349 2643 2381 2451 
L 2387 2451 
L 2675 3494 
Q 2765 3808 2765 3949 
Q 2765 4051 2694 4076 
Q 2624 4102 2355 4115 
L 2355 4224 
Q 2848 4269 3334 4371 
z
M 2278 2310 
Q 2278 2477 2185 2576 
Q 2093 2675 1978 2675 
Q 1677 2675 1395 2381 
Q 1075 2042 864 1571 
Q 653 1101 653 704 
Q 653 486 752 361 
Q 851 237 1024 237 
Q 1312 237 1606 550 
Q 1901 864 2089 1350 
Q 2278 1837 2278 2310 
z
" transform="scale(0.015625)"/>
      </defs>
      <use xlink:href="#STIXGeneral-Italic-3ba" transform="translate(0 0.003125)"/>
      <use xlink:href="#STIXGeneral-Regular-3d" transform="translate(58.83999 0.003125)"/>
      <use xlink:href="#STIXGeneral-Italic-6c" transform="translate(141.779971 50.192188) scale(0.7)"/>
      <use xlink:href="#STIXGeneral-Italic-6e" transform="translate(161.239963 50.192188) scale(0.7)"/>
      <use xlink:href="#STIXGeneral-Regular-28" transform="translate(196.239952 50.192188) scale(0.7)"/>
      <use xlink:href="#STIXGeneral-Italic-6e" transform="translate(219.549944 50.192188) scale(0.7)"/>
      <use xlink:href="#STIXGeneral-Regular-29" transform="translate(254.549933 50.192188) scale(0.7)"/>
      <use xlink:href="#STIXGeneral-Italic-6c" transform="translate(141.779971 -41.257812) scale(0.7)"/>
      <use xlink:href="#STIXGeneral-Italic-6e" transform="translate(161.239963 -41.257812) scale(0.7)"/>
      <use xlink:href="#STIXGeneral-Regular-28" transform="translate(196.239952 -41.257812) scale(0.7)"/>
      <use xlink:href="#STIXGeneral-Italic-64" transform="translate(219.549944 -41.257812) scale(0.7)"/>
      <use xlink:href="#STIXGeneral-Regular-29" transform="translate(254.549933 -41.257812) scale(0.7)"/>
      <path d="M 141.779971 12.8 
L 141.779971 19.05 
L 277.859924 19.05 
L 277.859924 12.8 
L 141.779971 12.8 
z
"/>
     </g>
    </g>
   </g>
   <g id="matplotlib.axis_2">
    <g id="ytick_1">
     <g id="line2d_7">
      <path d="M 301.9095 311.6435 
L 659.0295 311.6435 
" clip-path="url(#pab4d007343)" style="fill: none; stroke: #b0b0b0; stroke-opacity: 0.3; stroke-width: 0.8; stroke-linecap: square"/>
     </g>
     <g id="line2d_8">
      <defs>
       <path id="m9f79601053" d="M 0 0 
L -3.5 0 
" style="stroke: #000000; stroke-width: 0.8"/>
      </defs>
      <g>
       <use xlink:href="#m9f79601053" x="301.9095" y="311.6435" style="stroke: #000000; stroke-width: 0.8"/>
      </g>
     </g>
     <g id="text_5">
      <!-- 0.0 -->
      <g transform="translate(267.4095 319.281625) scale(0.22 -0.22)">
       <use xlink:href="#TimesNewRomanPSMT-30"/>
       <use xlink:href="#TimesNewRomanPSMT-2e" transform="translate(50 0)"/>
       <use xlink:href="#TimesNewRomanPSMT-30" transform="translate(75 0)"/>
      </g>
     </g>
    </g>
    <g id="ytick_2">
     <g id="line2d_9">
      <path d="M 301.9095 285.0323 
L 659.0295 285.0323 
" clip-path="url(#pab4d007343)" style="fill: none; stroke: #b0b0b0; stroke-opacity: 0.3; stroke-width: 0.8; stroke-linecap: square"/>
     </g>
     <g id="line2d_10">
      <g>
       <use xlink:href="#m9f79601053" x="301.9095" y="285.0323" style="stroke: #000000; stroke-width: 0.8"/>
      </g>
     </g>
     <g id="text_6">
      <!-- 0.1 -->
      <g transform="translate(267.4095 292.670425) scale(0.22 -0.22)">
       <use xlink:href="#TimesNewRomanPSMT-30"/>
       <use xlink:href="#TimesNewRomanPSMT-2e" transform="translate(50 0)"/>
       <use xlink:href="#TimesNewRomanPSMT-31" transform="translate(75 0)"/>
      </g>
     </g>
    </g>
    <g id="ytick_3">
     <g id="line2d_11">
      <path d="M 301.9095 258.4211 
L 659.0295 258.4211 
" clip-path="url(#pab4d007343)" style="fill: none; stroke: #b0b0b0; stroke-opacity: 0.3; stroke-width: 0.8; stroke-linecap: square"/>
     </g>
     <g id="line2d_12">
      <g>
       <use xlink:href="#m9f79601053" x="301.9095" y="258.4211" style="stroke: #000000; stroke-width: 0.8"/>
      </g>
     </g>
     <g id="text_7">
      <!-- 0.2 -->
      <g transform="translate(267.4095 266.059225) scale(0.22 -0.22)">
       <defs>
        <path id="TimesNewRomanPSMT-32" d="M 2934 816 
L 2638 0 
L 138 0 
L 138 116 
Q 1241 1122 1691 1759 
Q 2141 2397 2141 2925 
Q 2141 3328 1894 3587 
Q 1647 3847 1303 3847 
Q 991 3847 742 3664 
Q 494 3481 375 3128 
L 259 3128 
Q 338 3706 661 4015 
Q 984 4325 1469 4325 
Q 1984 4325 2329 3994 
Q 2675 3663 2675 3213 
Q 2675 2891 2525 2569 
Q 2294 2063 1775 1497 
Q 997 647 803 472 
L 1909 472 
Q 2247 472 2383 497 
Q 2519 522 2628 598 
Q 2738 675 2819 816 
L 2934 816 
z
" transform="scale(0.015625)"/>
       </defs>
       <use xlink:href="#TimesNewRomanPSMT-30"/>
       <use xlink:href="#TimesNewRomanPSMT-2e" transform="translate(50 0)"/>
       <use xlink:href="#TimesNewRomanPSMT-32" transform="translate(75 0)"/>
      </g>
     </g>
    </g>
    <g id="ytick_4">
     <g id="line2d_13">
      <path d="M 301.9095 231.8099 
L 659.0295 231.8099 
" clip-path="url(#pab4d007343)" style="fill: none; stroke: #b0b0b0; stroke-opacity: 0.3; stroke-width: 0.8; stroke-linecap: square"/>
     </g>
     <g id="line2d_14">
      <g>
       <use xlink:href="#m9f79601053" x="301.9095" y="231.8099" style="stroke: #000000; stroke-width: 0.8"/>
      </g>
     </g>
     <g id="text_8">
      <!-- 0.3 -->
      <g transform="translate(267.4095 239.448025) scale(0.22 -0.22)">
       <defs>
        <path id="TimesNewRomanPSMT-33" d="M 325 3431 
Q 506 3859 782 4092 
Q 1059 4325 1472 4325 
Q 1981 4325 2253 3994 
Q 2459 3747 2459 3466 
Q 2459 3003 1878 2509 
Q 2269 2356 2469 2072 
Q 2669 1788 2669 1403 
Q 2669 853 2319 450 
Q 1863 -75 997 -75 
Q 569 -75 414 31 
Q 259 138 259 259 
Q 259 350 332 419 
Q 406 488 509 488 
Q 588 488 669 463 
Q 722 447 909 348 
Q 1097 250 1169 231 
Q 1284 197 1416 197 
Q 1734 197 1970 444 
Q 2206 691 2206 1028 
Q 2206 1275 2097 1509 
Q 2016 1684 1919 1775 
Q 1784 1900 1550 2001 
Q 1316 2103 1072 2103 
L 972 2103 
L 972 2197 
Q 1219 2228 1467 2375 
Q 1716 2522 1828 2728 
Q 1941 2934 1941 3181 
Q 1941 3503 1739 3701 
Q 1538 3900 1238 3900 
Q 753 3900 428 3381 
L 325 3431 
z
" transform="scale(0.015625)"/>
       </defs>
       <use xlink:href="#TimesNewRomanPSMT-30"/>
       <use xlink:href="#TimesNewRomanPSMT-2e" transform="translate(50 0)"/>
       <use xlink:href="#TimesNewRomanPSMT-33" transform="translate(75 0)"/>
      </g>
     </g>
    </g>
    <g id="ytick_5">
     <g id="line2d_15">
      <path d="M 301.9095 205.1987 
L 659.0295 205.1987 
" clip-path="url(#pab4d007343)" style="fill: none; stroke: #b0b0b0; stroke-opacity: 0.3; stroke-width: 0.8; stroke-linecap: square"/>
     </g>
     <g id="line2d_16">
      <g>
       <use xlink:href="#m9f79601053" x="301.9095" y="205.1987" style="stroke: #000000; stroke-width: 0.8"/>
      </g>
     </g>
     <g id="text_9">
      <!-- 0.4 -->
      <g transform="translate(267.4095 212.836825) scale(0.22 -0.22)">
       <defs>
        <path id="TimesNewRomanPSMT-34" d="M 2978 1563 
L 2978 1119 
L 2409 1119 
L 2409 0 
L 1894 0 
L 1894 1119 
L 100 1119 
L 100 1519 
L 2066 4325 
L 2409 4325 
L 2409 1563 
L 2978 1563 
z
M 1894 1563 
L 1894 3666 
L 406 1563 
L 1894 1563 
z
" transform="scale(0.015625)"/>
       </defs>
       <use xlink:href="#TimesNewRomanPSMT-30"/>
       <use xlink:href="#TimesNewRomanPSMT-2e" transform="translate(50 0)"/>
       <use xlink:href="#TimesNewRomanPSMT-34" transform="translate(75 0)"/>
      </g>
     </g>
    </g>
    <g id="ytick_6">
     <g id="line2d_17">
      <path d="M 301.9095 178.5875 
L 659.0295 178.5875 
" clip-path="url(#pab4d007343)" style="fill: none; stroke: #b0b0b0; stroke-opacity: 0.3; stroke-width: 0.8; stroke-linecap: square"/>
     </g>
     <g id="line2d_18">
      <g>
       <use xlink:href="#m9f79601053" x="301.9095" y="178.5875" style="stroke: #000000; stroke-width: 0.8"/>
      </g>
     </g>
     <g id="text_10">
      <!-- 0.5 -->
      <g transform="translate(267.4095 186.225625) scale(0.22 -0.22)">
       <use xlink:href="#TimesNewRomanPSMT-30"/>
       <use xlink:href="#TimesNewRomanPSMT-2e" transform="translate(50 0)"/>
       <use xlink:href="#TimesNewRomanPSMT-35" transform="translate(75 0)"/>
      </g>
     </g>
    </g>
    <g id="ytick_7">
     <g id="line2d_19">
      <path d="M 301.9095 151.9763 
L 659.0295 151.9763 
" clip-path="url(#pab4d007343)" style="fill: none; stroke: #b0b0b0; stroke-opacity: 0.3; stroke-width: 0.8; stroke-linecap: square"/>
     </g>
     <g id="line2d_20">
      <g>
       <use xlink:href="#m9f79601053" x="301.9095" y="151.9763" style="stroke: #000000; stroke-width: 0.8"/>
      </g>
     </g>
     <g id="text_11">
      <!-- 0.6 -->
      <g transform="translate(267.4095 159.614425) scale(0.22 -0.22)">
       <defs>
        <path id="TimesNewRomanPSMT-36" d="M 2869 4325 
L 2869 4209 
Q 2456 4169 2195 4045 
Q 1934 3922 1679 3669 
Q 1425 3416 1258 3105 
Q 1091 2794 978 2366 
Q 1428 2675 1881 2675 
Q 2316 2675 2634 2325 
Q 2953 1975 2953 1425 
Q 2953 894 2631 456 
Q 2244 -75 1606 -75 
Q 1172 -75 869 213 
Q 275 772 275 1663 
Q 275 2231 503 2743 
Q 731 3256 1154 3653 
Q 1578 4050 1965 4187 
Q 2353 4325 2688 4325 
L 2869 4325 
z
M 925 2138 
Q 869 1716 869 1456 
Q 869 1156 980 804 
Q 1091 453 1309 247 
Q 1469 100 1697 100 
Q 1969 100 2183 356 
Q 2397 613 2397 1088 
Q 2397 1622 2184 2012 
Q 1972 2403 1581 2403 
Q 1463 2403 1327 2353 
Q 1191 2303 925 2138 
z
" transform="scale(0.015625)"/>
       </defs>
       <use xlink:href="#TimesNewRomanPSMT-30"/>
       <use xlink:href="#TimesNewRomanPSMT-2e" transform="translate(50 0)"/>
       <use xlink:href="#TimesNewRomanPSMT-36" transform="translate(75 0)"/>
      </g>
     </g>
    </g>
    <g id="ytick_8">
     <g id="line2d_21">
      <path d="M 301.9095 125.3651 
L 659.0295 125.3651 
" clip-path="url(#pab4d007343)" style="fill: none; stroke: #b0b0b0; stroke-opacity: 0.3; stroke-width: 0.8; stroke-linecap: square"/>
     </g>
     <g id="line2d_22">
      <g>
       <use xlink:href="#m9f79601053" x="301.9095" y="125.3651" style="stroke: #000000; stroke-width: 0.8"/>
      </g>
     </g>
     <g id="text_12">
      <!-- 0.7 -->
      <g transform="translate(267.4095 133.003225) scale(0.22 -0.22)">
       <defs>
        <path id="TimesNewRomanPSMT-37" d="M 644 4238 
L 2916 4238 
L 2916 4119 
L 1503 -88 
L 1153 -88 
L 2419 3728 
L 1253 3728 
Q 900 3728 750 3644 
Q 488 3500 328 3200 
L 238 3234 
L 644 4238 
z
" transform="scale(0.015625)"/>
       </defs>
       <use xlink:href="#TimesNewRomanPSMT-30"/>
       <use xlink:href="#TimesNewRomanPSMT-2e" transform="translate(50 0)"/>
       <use xlink:href="#TimesNewRomanPSMT-37" transform="translate(75 0)"/>
      </g>
     </g>
    </g>
    <g id="ytick_9">
     <g id="line2d_23">
      <path d="M 301.9095 98.7539 
L 659.0295 98.7539 
" clip-path="url(#pab4d007343)" style="fill: none; stroke: #b0b0b0; stroke-opacity: 0.3; stroke-width: 0.8; stroke-linecap: square"/>
     </g>
     <g id="line2d_24">
      <g>
       <use xlink:href="#m9f79601053" x="301.9095" y="98.7539" style="stroke: #000000; stroke-width: 0.8"/>
      </g>
     </g>
     <g id="text_13">
      <!-- 0.8 -->
      <g transform="translate(267.4095 106.392025) scale(0.22 -0.22)">
       <defs>
        <path id="TimesNewRomanPSMT-38" d="M 1228 2134 
Q 725 2547 579 2797 
Q 434 3047 434 3316 
Q 434 3728 753 4026 
Q 1072 4325 1600 4325 
Q 2113 4325 2425 4047 
Q 2738 3769 2738 3413 
Q 2738 3175 2569 2928 
Q 2400 2681 1866 2347 
Q 2416 1922 2594 1678 
Q 2831 1359 2831 1006 
Q 2831 559 2490 242 
Q 2150 -75 1597 -75 
Q 994 -75 656 303 
Q 388 606 388 966 
Q 388 1247 577 1523 
Q 766 1800 1228 2134 
z
M 1719 2469 
Q 2094 2806 2194 3001 
Q 2294 3197 2294 3444 
Q 2294 3772 2109 3958 
Q 1925 4144 1606 4144 
Q 1288 4144 1088 3959 
Q 888 3775 888 3528 
Q 888 3366 970 3203 
Q 1053 3041 1206 2894 
L 1719 2469 
z
M 1375 2016 
Q 1116 1797 991 1539 
Q 866 1281 866 981 
Q 866 578 1086 336 
Q 1306 94 1647 94 
Q 1984 94 2187 284 
Q 2391 475 2391 747 
Q 2391 972 2272 1150 
Q 2050 1481 1375 2016 
z
" transform="scale(0.015625)"/>
       </defs>
       <use xlink:href="#TimesNewRomanPSMT-30"/>
       <use xlink:href="#TimesNewRomanPSMT-2e" transform="translate(50 0)"/>
       <use xlink:href="#TimesNewRomanPSMT-38" transform="translate(75 0)"/>
      </g>
     </g>
    </g>
    <g id="ytick_10">
     <g id="line2d_25">
      <path d="M 301.9095 72.1427 
L 659.0295 72.1427 
" clip-path="url(#pab4d007343)" style="fill: none; stroke: #b0b0b0; stroke-opacity: 0.3; stroke-width: 0.8; stroke-linecap: square"/>
     </g>
     <g id="line2d_26">
      <g>
       <use xlink:href="#m9f79601053" x="301.9095" y="72.1427" style="stroke: #000000; stroke-width: 0.8"/>
      </g>
     </g>
     <g id="text_14">
      <!-- 0.9 -->
      <g transform="translate(267.4095 79.780825) scale(0.22 -0.22)">
       <defs>
        <path id="TimesNewRomanPSMT-39" d="M 338 -88 
L 338 28 
Q 744 34 1094 217 
Q 1444 400 1770 856 
Q 2097 1313 2225 1859 
Q 1734 1544 1338 1544 
Q 891 1544 572 1889 
Q 253 2234 253 2806 
Q 253 3363 572 3797 
Q 956 4325 1575 4325 
Q 2097 4325 2469 3894 
Q 2925 3359 2925 2575 
Q 2925 1869 2578 1258 
Q 2231 647 1613 244 
Q 1109 -88 516 -88 
L 338 -88 
z
M 2275 2091 
Q 2331 2497 2331 2741 
Q 2331 3044 2228 3395 
Q 2125 3747 1936 3934 
Q 1747 4122 1506 4122 
Q 1228 4122 1018 3872 
Q 809 3622 809 3128 
Q 809 2469 1088 2097 
Q 1291 1828 1588 1828 
Q 1731 1828 1928 1897 
Q 2125 1966 2275 2091 
z
" transform="scale(0.015625)"/>
       </defs>
       <use xlink:href="#TimesNewRomanPSMT-30"/>
       <use xlink:href="#TimesNewRomanPSMT-2e" transform="translate(50 0)"/>
       <use xlink:href="#TimesNewRomanPSMT-39" transform="translate(75 0)"/>
      </g>
     </g>
    </g>
    <g id="ytick_11">
     <g id="line2d_27">
      <path d="M 301.9095 45.5315 
L 659.0295 45.5315 
" clip-path="url(#pab4d007343)" style="fill: none; stroke: #b0b0b0; stroke-opacity: 0.3; stroke-width: 0.8; stroke-linecap: square"/>
     </g>
     <g id="line2d_28">
      <g>
       <use xlink:href="#m9f79601053" x="301.9095" y="45.5315" style="stroke: #000000; stroke-width: 0.8"/>
      </g>
     </g>
     <g id="text_15">
      <!-- 1.0 -->
      <g transform="translate(267.4095 53.169625) scale(0.22 -0.22)">
       <use xlink:href="#TimesNewRomanPSMT-31"/>
       <use xlink:href="#TimesNewRomanPSMT-2e" transform="translate(50 0)"/>
       <use xlink:href="#TimesNewRomanPSMT-30" transform="translate(75 0)"/>
      </g>
     </g>
    </g>
    <g id="text_16">
     <!-- Accuracy -->
     <g transform="translate(258.662313 220.726094) rotate(-90) scale(0.22 -0.22)">
      <defs>
       <path id="TimesNewRomanPSMT-41" d="M 2928 1419 
L 1288 1419 
L 1000 750 
Q 894 503 894 381 
Q 894 284 986 211 
Q 1078 138 1384 116 
L 1384 0 
L 50 0 
L 50 116 
Q 316 163 394 238 
Q 553 388 747 847 
L 2238 4334 
L 2347 4334 
L 3822 809 
Q 4000 384 4145 257 
Q 4291 131 4550 116 
L 4550 0 
L 2878 0 
L 2878 116 
Q 3131 128 3220 200 
Q 3309 272 3309 375 
Q 3309 513 3184 809 
L 2928 1419 
z
M 2841 1650 
L 2122 3363 
L 1384 1650 
L 2841 1650 
z
" transform="scale(0.015625)"/>
       <path id="TimesNewRomanPSMT-63" d="M 2631 1088 
Q 2516 522 2178 217 
Q 1841 -88 1431 -88 
Q 944 -88 581 321 
Q 219 731 219 1428 
Q 219 2103 620 2525 
Q 1022 2947 1584 2947 
Q 2006 2947 2278 2723 
Q 2550 2500 2550 2259 
Q 2550 2141 2473 2067 
Q 2397 1994 2259 1994 
Q 2075 1994 1981 2113 
Q 1928 2178 1911 2362 
Q 1894 2547 1784 2644 
Q 1675 2738 1481 2738 
Q 1169 2738 978 2506 
Q 725 2200 725 1697 
Q 725 1184 976 792 
Q 1228 400 1656 400 
Q 1963 400 2206 609 
Q 2378 753 2541 1131 
L 2631 1088 
z
" transform="scale(0.015625)"/>
       <path id="TimesNewRomanPSMT-75" d="M 2709 2863 
L 2709 1128 
Q 2709 631 2732 520 
Q 2756 409 2807 365 
Q 2859 322 2928 322 
Q 3025 322 3147 375 
L 3191 266 
L 2334 -88 
L 2194 -88 
L 2194 519 
Q 1825 119 1631 15 
Q 1438 -88 1222 -88 
Q 981 -88 804 51 
Q 628 191 559 409 
Q 491 628 491 1028 
L 491 2306 
Q 491 2509 447 2587 
Q 403 2666 317 2708 
Q 231 2750 6 2747 
L 6 2863 
L 1009 2863 
L 1009 947 
Q 1009 547 1148 422 
Q 1288 297 1484 297 
Q 1619 297 1789 381 
Q 1959 466 2194 703 
L 2194 2325 
Q 2194 2569 2105 2655 
Q 2016 2741 1734 2747 
L 1734 2863 
L 2709 2863 
z
" transform="scale(0.015625)"/>
       <path id="TimesNewRomanPSMT-72" d="M 1038 2947 
L 1038 2303 
Q 1397 2947 1775 2947 
Q 1947 2947 2059 2842 
Q 2172 2738 2172 2600 
Q 2172 2478 2090 2393 
Q 2009 2309 1897 2309 
Q 1788 2309 1652 2417 
Q 1516 2525 1450 2525 
Q 1394 2525 1328 2463 
Q 1188 2334 1038 2041 
L 1038 669 
Q 1038 431 1097 309 
Q 1138 225 1241 169 
Q 1344 113 1538 113 
L 1538 0 
L 72 0 
L 72 113 
Q 291 113 397 181 
Q 475 231 506 341 
Q 522 394 522 644 
L 522 1753 
Q 522 2253 501 2348 
Q 481 2444 426 2487 
Q 372 2531 291 2531 
Q 194 2531 72 2484 
L 41 2597 
L 906 2947 
L 1038 2947 
z
" transform="scale(0.015625)"/>
       <path id="TimesNewRomanPSMT-61" d="M 1822 413 
Q 1381 72 1269 19 
Q 1100 -59 909 -59 
Q 613 -59 420 144 
Q 228 347 228 678 
Q 228 888 322 1041 
Q 450 1253 767 1440 
Q 1084 1628 1822 1897 
L 1822 2009 
Q 1822 2438 1686 2597 
Q 1550 2756 1291 2756 
Q 1094 2756 978 2650 
Q 859 2544 859 2406 
L 866 2225 
Q 866 2081 792 2003 
Q 719 1925 600 1925 
Q 484 1925 411 2006 
Q 338 2088 338 2228 
Q 338 2497 613 2722 
Q 888 2947 1384 2947 
Q 1766 2947 2009 2819 
Q 2194 2722 2281 2516 
Q 2338 2381 2338 1966 
L 2338 994 
Q 2338 584 2353 492 
Q 2369 400 2405 369 
Q 2441 338 2488 338 
Q 2538 338 2575 359 
Q 2641 400 2828 588 
L 2828 413 
Q 2478 -56 2159 -56 
Q 2006 -56 1915 50 
Q 1825 156 1822 413 
z
M 1822 616 
L 1822 1706 
Q 1350 1519 1213 1441 
Q 966 1303 859 1153 
Q 753 1003 753 825 
Q 753 600 887 451 
Q 1022 303 1197 303 
Q 1434 303 1822 616 
z
" transform="scale(0.015625)"/>
       <path id="TimesNewRomanPSMT-79" d="M 38 2863 
L 1372 2863 
L 1372 2747 
L 1306 2747 
Q 1166 2747 1095 2686 
Q 1025 2625 1025 2534 
Q 1025 2413 1128 2197 
L 1825 753 
L 2466 2334 
Q 2519 2463 2519 2588 
Q 2519 2644 2497 2672 
Q 2472 2706 2419 2726 
Q 2366 2747 2231 2747 
L 2231 2863 
L 3163 2863 
L 3163 2747 
Q 3047 2734 2984 2696 
Q 2922 2659 2847 2556 
Q 2819 2513 2741 2316 
L 1575 -541 
Q 1406 -956 1132 -1168 
Q 859 -1381 606 -1381 
Q 422 -1381 303 -1275 
Q 184 -1169 184 -1031 
Q 184 -900 270 -820 
Q 356 -741 506 -741 
Q 609 -741 788 -809 
Q 913 -856 944 -856 
Q 1038 -856 1148 -759 
Q 1259 -663 1372 -384 
L 1575 113 
L 547 2272 
Q 500 2369 397 2513 
Q 319 2622 269 2659 
Q 197 2709 38 2747 
L 38 2863 
z
" transform="scale(0.015625)"/>
      </defs>
      <use xlink:href="#TimesNewRomanPSMT-41"/>
      <use xlink:href="#TimesNewRomanPSMT-63" transform="translate(72.216797 0)"/>
      <use xlink:href="#TimesNewRomanPSMT-63" transform="translate(116.601562 0)"/>
      <use xlink:href="#TimesNewRomanPSMT-75" transform="translate(160.986328 0)"/>
      <use xlink:href="#TimesNewRomanPSMT-72" transform="translate(210.986328 0)"/>
      <use xlink:href="#TimesNewRomanPSMT-61" transform="translate(244.287109 0)"/>
      <use xlink:href="#TimesNewRomanPSMT-63" transform="translate(288.671875 0)"/>
      <use xlink:href="#TimesNewRomanPSMT-79" transform="translate(333.056641 0)"/>
     </g>
    </g>
   </g>
   <g id="line2d_29">
    <path d="M 301.9095 176.990817 
L 384.439668 172.999141 
L 406.69296 171.335934 
L 420.096044 163.751753 
L 429.717676 164.28397 
L 437.228638 152.375464 
L 443.390382 145.190438 
L 448.614612 136.674852 
L 453.149298 125.764258 
L 457.155423 123.502311 
L 460.74344 124.500223 
L 463.992436 118.84534 
L 466.96098 118.313123 
L 469.693668 117.381735 
L 472.225233 117.448258 
L 474.583262 117.381735 
L 476.790028 116.317285 
L 478.863773 115.984637 
L 482.670274 115.918114 
L 484.426458 115.45242 
L 486.097356 116.583393 
L 487.69087 113.72269 
L 489.21385 114.055338 
L 490.672277 113.523105 
L 492.071402 114.853664 
L 493.41586 112.525194 
L 494.709761 113.390043 
L 495.956772 112.126023 
L 498.322909 112.591717 
L 499.44764 111.59379 
L 500.536773 112.126023 
L 501.592491 111.527267 
L 502.616785 111.460744 
L 503.611471 112.458655 
L 504.578212 110.99505 
L 505.518536 110.928511 
L 506.433848 110.329755 
L 507.325445 112.192546 
L 508.194525 110.396294 
L 509.042196 112.924349 
L 509.869489 111.726852 
L 510.677359 112.525194 
L 511.466699 112.857826 
L 512.23834 112.392132 
L 512.993057 112.126023 
L 513.731577 112.126023 
L 514.45458 111.061573 
L 515.162707 111.061573 
L 515.856555 111.261158 
L 517.203643 109.597952 
L 517.857916 110.263231 
L 518.499981 111.394205 
L 519.749255 110.130185 
L 520.357287 109.9306 
L 520.954762 110.063646 
L 521.542041 110.52934 
L 522.119466 111.460744 
L 522.687362 110.196708 
L 523.246038 110.130185 
L 523.79579 110.52934 
L 524.336897 110.329755 
L 524.869627 110.329755 
L 525.910969 108.333917 
L 526.420057 110.263231 
L 526.921723 110.196708 
L 527.416181 109.132258 
L 527.903636 109.731014 
L 528.384282 109.597952 
L 528.858307 110.063646 
L 529.325892 108.999196 
L 529.787209 107.668637 
L 530.242423 108.932673 
L 530.691694 109.797537 
L 531.135176 107.868223 
L 531.573015 109.065735 
L 532.005354 108.932673 
L 532.432329 109.797537 
L 532.85407 108.267393 
L 533.270706 109.331843 
L 534.089145 109.331843 
L 534.491178 109.531429 
L 534.88857 109.132258 
L 535.281424 109.597952 
L 535.669845 108.533502 
L 536.053931 109.398367 
L 536.433777 107.934762 
L 536.809476 109.198781 
L 537.181118 108.666564 
L 537.548789 108.999196 
L 537.912573 108.600041 
L 538.272553 107.668637 
L 538.628805 108.79961 
L 538.981408 109.132258 
L 539.330434 108.932673 
L 540.018044 108.86615 
L 540.356764 109.065735 
L 540.692183 108.533502 
L 541.024364 108.267393 
L 541.353369 108.932673 
L 541.679259 107.602114 
L 542.002092 107.735176 
L 542.638811 108.86615 
L 542.952807 108.733087 
L 543.572332 107.934762 
L 543.877962 108.20087 
L 544.778896 107.934762 
L 545.074041 108.134331 
L 545.366676 108.001285 
L 545.656844 107.602114 
L 546.51295 107.801699 
L 546.793651 107.535591 
L 547.07208 107.801699 
L 547.622271 107.202943 
L 547.894102 107.269482 
L 548.163804 107.735176 
L 548.696947 106.936835 
L 548.960453 107.602114 
L 549.221956 106.936835 
L 549.739076 107.13642 
L 549.994751 107.13642 
L 550.248541 106.604187 
L 550.500472 107.13642 
L 550.750573 107.202943 
L 550.998869 106.803772 
L 551.490151 106.870311 
L 551.733187 106.670726 
L 551.974518 106.737249 
L 552.214169 106.537664 
L 552.452162 106.604187 
L 552.688521 106.471141 
L 552.923267 106.537664 
L 553.156423 106.404617 
L 553.38801 106.537664 
L 553.618049 106.471141 
L 553.84656 106.005447 
L 554.073565 106.471141 
L 554.523129 106.537664 
L 554.966897 105.938908 
L 555.186653 105.739338 
L 555.405015 106.07197 
L 555.622 105.805861 
L 555.837625 106.005447 
L 556.051908 105.872384 
L 556.264865 106.07197 
L 556.476512 105.872384 
L 556.686865 106.404617 
L 556.89594 106.271555 
L 557.103753 105.739338 
L 557.310319 106.604187 
L 557.515652 105.872384 
L 557.719767 105.606276 
L 557.922678 106.338078 
L 558.1244 105.606276 
L 558.324947 105.40669 
L 558.524332 106.803772 
L 558.722568 106.005447 
L 558.919668 106.271555 
L 559.115647 106.205032 
L 559.310515 105.739338 
L 559.504287 106.338078 
L 559.696973 105.672799 
L 559.888586 105.739338 
L 560.079139 106.07197 
L 560.268642 105.606276 
L 560.644547 105.739338 
L 560.83097 106.138493 
L 561.200815 105.606276 
L 561.384257 105.140582 
L 561.566726 105.473214 
L 561.748234 105.539753 
L 561.928789 105.473214 
L 562.108401 105.872384 
L 562.641682 105.805861 
L 562.817622 105.606276 
L 562.992666 105.805861 
L 563.51252 105.539753 
L 563.684075 105.074043 
L 563.854778 105.739338 
L 564.024638 105.473214 
L 564.193665 105.672799 
L 564.361865 104.874473 
L 564.529247 105.40669 
L 564.695819 105.273628 
L 564.861589 105.672799 
L 565.190751 105.140582 
L 565.35416 105.473214 
L 565.516795 105.207105 
L 565.678666 105.539753 
L 565.839779 105.207105 
L 566.000142 105.207105 
L 566.15976 105.473214 
L 566.318642 105.340167 
L 566.634221 105.473214 
L 566.790932 105.40669 
L 566.946933 105.140582 
L 567.256829 105.40669 
L 567.410737 105.207105 
L 567.563959 105.539753 
L 567.716502 105.539753 
L 567.868372 105.340167 
L 568.019575 105.539753 
L 568.320002 104.874473 
L 568.469238 105.00752 
L 568.617829 105.473214 
L 568.765782 105.340167 
L 568.913101 105.40669 
L 569.059792 104.874473 
L 569.20586 105.473214 
L 569.496151 105.207105 
L 569.640383 105.340167 
L 569.927046 104.807934 
L 570.069487 104.741411 
L 570.21134 104.541826 
L 570.352612 104.807934 
L 570.493306 104.807934 
L 570.77298 104.475303 
L 570.911969 105.40669 
L 571.188275 104.741411 
L 571.3256 105.140582 
L 571.46238 104.874473 
L 571.598618 105.140582 
L 571.734319 104.541826 
L 571.869487 104.674888 
L 572.004126 104.275717 
L 572.13824 104.34224 
L 572.271834 104.674888 
L 572.404911 104.408764 
L 572.537475 104.940997 
L 572.801082 104.608349 
L 572.932132 104.608349 
L 573.062685 104.940997 
L 573.451398 104.541826 
L 573.579999 105.207105 
L 573.708122 104.741411 
L 573.835769 105.00752 
L 574.089652 104.541826 
L 574.215895 104.674888 
L 574.341676 104.608349 
L 574.466999 104.807934 
L 574.591868 104.475303 
L 574.963777 104.741411 
L 575.086859 104.807934 
L 575.453486 104.475303 
L 575.574832 104.608349 
L 575.695752 104.475303 
L 575.816248 104.940997 
L 575.936324 104.34224 
L 576.055982 104.674888 
L 576.412481 104.209194 
L 576.530498 104.475303 
L 576.648111 104.34224 
L 576.882139 104.807934 
L 577.114587 103.876546 
L 577.230224 103.94307 
L 577.345474 103.876546 
L 577.46034 104.674888 
L 577.574823 104.009609 
L 577.688927 104.009609 
L 577.802654 104.142655 
L 577.916006 104.076132 
L 578.028986 105.00752 
L 578.141597 104.674888 
L 578.365718 103.876546 
L 578.477233 103.743484 
L 578.588389 104.874473 
L 578.699186 104.674888 
L 578.809628 103.610438 
L 578.919717 104.009609 
L 579.029455 103.876546 
L 579.138844 104.541826 
L 579.247886 103.94307 
L 579.356584 105.207105 
L 579.464939 105.074043 
L 579.680632 103.477376 
L 579.787974 104.142655 
L 580.001658 103.810023 
L 580.108004 104.940997 
L 580.319716 103.676961 
L 580.425086 104.674888 
L 580.530134 103.676961 
L 580.634862 104.009609 
L 580.739273 103.477376 
L 580.843367 103.676961 
L 580.947148 103.610438 
L 581.050617 103.676961 
L 581.153776 104.741411 
L 581.256626 103.477376 
L 581.35917 103.743484 
L 581.563346 103.543899 
L 581.766317 103.676961 
L 581.968098 104.541826 
L 582.068547 104.076132 
L 582.168703 104.408764 
L 582.268569 103.676961 
L 582.368146 104.275717 
L 582.467435 103.94307 
L 582.566439 104.741411 
L 582.665159 103.810023 
L 582.763596 104.608349 
L 582.861753 103.94307 
L 582.95963 104.541826 
L 583.154554 103.610438 
L 583.251603 103.543899 
L 583.34838 104.541826 
L 583.54112 103.410852 
L 583.732787 103.676961 
L 583.828221 103.610438 
L 583.923392 104.807934 
L 584.0183 103.610438 
L 584.112948 103.743484 
L 584.207335 103.211267 
L 584.301465 103.27779 
L 584.488954 103.676961 
L 584.582318 103.876546 
L 584.675428 103.477376 
L 584.768288 103.810023 
L 584.860898 103.743484 
L 584.953259 103.743484 
L 585.045372 103.477376 
L 585.13724 104.940997 
L 585.320244 103.144744 
L 585.502279 103.676961 
L 585.592937 103.610438 
L 585.683356 103.743484 
L 585.773539 103.676961 
L 585.863486 103.27779 
L 586.042678 103.543899 
L 586.131925 103.211267 
L 586.220941 103.743484 
L 586.398286 103.27779 
L 586.574722 103.211267 
L 586.662601 103.410852 
L 586.750257 104.34224 
L 586.837691 103.27779 
L 586.924902 103.344329 
L 587.011893 103.543899 
L 587.098665 103.27779 
L 587.185219 103.344329 
L 587.529273 103.676961 
L 587.614751 103.543899 
L 587.785074 103.144744 
L 587.869921 104.009609 
L 587.954558 103.743484 
L 588.038989 103.610438 
L 588.123212 103.211267 
L 588.20723 103.676961 
L 588.374653 102.878619 
L 588.45806 102.878619 
L 588.789681 103.477376 
L 588.9543 102.945158 
L 589.036316 103.610438 
L 589.118136 103.543899 
L 589.199763 103.011682 
L 589.281196 103.676961 
L 589.362437 102.878619 
L 589.443487 103.078205 
L 589.524346 103.410852 
L 589.605016 102.545988 
L 589.685497 103.477376 
L 589.76579 102.945158 
L 589.845897 103.610438 
L 590.005552 102.812096 
L 590.085103 102.612511 
L 590.164471 103.078205 
L 590.322658 102.812096 
L 590.40148 102.945158 
L 590.558585 102.67905 
L 590.636869 103.810023 
L 590.870659 102.812096 
L 590.948237 102.67905 
L 591.102871 103.543899 
L 591.179928 102.412925 
L 591.333526 103.676961 
L 591.410069 103.344329 
L 591.486442 102.279879 
L 591.562646 102.945158 
L 591.638682 102.279879 
L 591.71455 103.810023 
L 591.865786 102.67905 
L 592.01636 103.344329 
L 592.166278 102.21334 
L 592.389938 102.745573 
L 592.46417 102.745573 
L 592.538242 103.676961 
L 592.685908 102.479464 
L 592.759505 103.743484 
L 592.832944 102.479464 
L 592.906227 102.67905 
L 592.979355 102.545988 
L 593.052327 103.211267 
L 593.125145 102.878619 
L 593.197809 102.21334 
L 593.27032 103.543899 
L 593.414885 102.745573 
L 593.48694 102.812096 
L 593.558845 101.947231 
L 593.702206 102.67905 
L 593.773663 102.479464 
L 593.844972 103.344329 
L 593.916133 103.078205 
L 593.987148 103.27779 
L 594.058017 102.479464 
L 594.128739 103.810023 
L 594.199317 102.080294 
L 594.26975 103.743484 
L 594.34004 102.412925 
L 594.410186 103.011682 
L 594.480189 102.412925 
L 594.550051 102.545988 
L 594.689349 102.146817 
L 594.758788 103.344329 
L 594.828087 102.279879 
L 594.897246 103.27779 
L 594.966267 102.612511 
L 595.103894 103.27779 
L 595.240973 102.545988 
L 595.377509 102.612511 
L 595.445574 103.344329 
L 595.581301 102.545988 
L 595.648965 103.344329 
L 595.783894 102.013755 
L 595.918297 103.410852 
L 595.985302 102.945158 
L 596.052176 102.878619 
L 596.118921 103.078205 
L 596.185537 102.67905 
L 596.252024 103.27779 
L 596.384614 101.6146 
L 596.450718 103.610438 
L 596.516695 102.945158 
L 596.713871 102.013755 
L 596.844697 103.211267 
L 596.975027 102.479464 
L 597.104866 102.878619 
L 597.169602 102.812096 
L 597.234217 102.67905 
L 597.29871 101.814185 
L 597.363083 103.078205 
L 597.427336 101.947231 
L 597.491468 102.080294 
L 597.619377 103.011682 
L 597.683153 102.013755 
L 597.746811 102.812096 
L 597.810352 102.745573 
L 597.873776 102.745573 
L 597.937083 102.146817 
L 598.063349 102.945158 
L 598.126308 102.21334 
L 598.189153 102.745573 
L 598.314499 102.945158 
L 598.377001 102.013755 
L 598.43939 103.078205 
L 598.501666 102.545988 
L 598.563829 102.745573 
L 598.68782 101.947231 
L 598.749649 103.011682 
L 598.811366 101.880708 
L 598.872973 102.745573 
L 598.93447 102.812096 
L 598.995858 102.612511 
L 599.057136 102.878619 
L 599.301162 101.947231 
L 599.42253 102.745573 
L 599.54347 102.080294 
L 599.603782 102.878619 
L 599.663988 102.612511 
L 599.724089 102.346402 
L 599.784085 102.67905 
L 599.843976 102.612511 
L 599.903764 102.21334 
L 599.963447 102.812096 
L 600.023028 102.67905 
L 600.082506 101.947231 
L 600.14188 102.67905 
L 600.201153 101.880708 
L 600.260324 102.279879 
L 600.319393 102.479464 
L 600.378361 102.013755 
L 600.437228 102.346402 
L 600.495995 102.545988 
L 600.554661 102.346402 
L 600.613228 102.67905 
L 600.671695 101.947231 
L 600.730062 102.745573 
L 600.788332 102.279879 
L 600.846502 102.21334 
L 600.904574 102.67905 
L 600.962549 102.013755 
L 601.020426 102.745573 
L 601.078206 102.279879 
L 601.135889 102.67905 
L 601.193476 102.479464 
L 601.250966 102.412925 
L 601.30836 102.146817 
L 601.365659 102.412925 
L 601.422863 102.080294 
L 601.536986 102.612511 
L 601.593905 102.346402 
L 601.650731 102.545988 
L 601.707463 102.412925 
L 601.820648 103.144744 
L 601.989729 101.947231 
L 602.101991 102.545988 
L 602.157984 101.6146 
L 602.213887 102.346402 
L 602.269699 102.146817 
L 602.325421 102.612511 
L 602.381052 102.279879 
L 602.492046 102.013755 
L 602.657869 102.346402 
L 602.712966 101.880708 
L 602.767976 102.346402 
L 602.822897 102.21334 
L 602.932477 102.812096 
L 603.04171 101.947231 
L 603.096196 102.612511 
L 603.150597 102.080294 
L 603.25914 102.67905 
L 603.313284 102.479464 
L 603.367343 101.814185 
L 603.421316 102.21334 
L 603.582732 102.545988 
L 603.636369 102.412925 
L 603.689923 101.082367 
L 603.743394 101.747646 
L 603.796781 102.745573 
L 603.850086 102.080294 
L 603.903309 101.947231 
L 603.956449 102.013755 
L 604.009508 102.080294 
L 604.062484 102.013755 
L 604.11538 101.747646 
L 604.220927 102.545988 
L 604.378644 101.814185 
L 604.431055 101.481537 
L 604.483388 102.346402 
L 604.535641 101.6146 
L 604.639909 102.279879 
L 604.691925 102.21334 
L 604.743862 102.146817 
L 604.847502 102.612511 
L 604.899205 102.346402 
L 604.950831 102.412925 
L 605.00238 102.080294 
L 605.053851 102.21334 
L 605.105245 102.745573 
L 605.207804 102.67905 
L 605.310059 101.880708 
L 605.361072 102.279879 
L 605.41201 101.681123 
L 605.462873 102.346402 
L 605.513661 102.21334 
L 605.564373 102.545988 
L 605.716065 101.947231 
L 605.76648 102.412925 
L 605.816822 101.281952 
L 605.867091 102.013755 
L 605.917286 102.21334 
L 605.967408 101.880708 
L 606.117337 102.612511 
L 606.266616 102.080294 
L 606.316232 102.279879 
L 606.365776 102.21334 
L 606.464652 102.080294 
L 606.563245 102.013755 
L 606.612435 102.545988 
L 606.661555 101.348475 
L 606.710606 102.346402 
L 606.759586 102.412925 
L 606.954814 101.215429 
L 607.100512 102.146817 
L 607.197302 102.412925 
L 607.341978 101.481537 
L 607.390069 102.479464 
L 607.486049 102.412925 
L 607.581762 101.681123 
L 607.629519 102.146817 
L 607.67721 102.21334 
L 607.724835 101.215429 
L 607.772394 102.21334 
L 607.819888 102.479464 
L 607.867315 102.412925 
L 607.961976 101.481537 
L 608.103479 102.479464 
L 608.150518 101.481537 
L 608.197493 102.545988 
L 608.244404 102.479464 
L 608.291251 101.415014 
L 608.338034 102.412925 
L 608.43141 101.548061 
L 608.478003 102.412925 
L 608.524533 101.947231 
L 608.617405 101.880708 
L 608.756245 102.412925 
L 608.848494 102.21334 
L 608.940497 102.279879 
L 609.078042 101.281952 
L 609.123769 102.545988 
L 609.169435 102.479464 
L 609.260585 101.348475 
L 609.396859 102.412925 
L 609.442164 102.346402 
L 609.487409 101.6146 
L 609.532595 102.21334 
L 609.577722 102.412925 
L 609.62279 102.080294 
L 609.667798 102.412925 
L 609.712748 102.346402 
L 609.75764 102.412925 
L 609.802473 101.082367 
L 609.847247 101.148906 
L 609.981222 102.21334 
L 610.07025 101.880708 
L 610.114678 102.146817 
L 610.159048 102.279879 
L 610.203361 102.080294 
L 610.247618 100.94932 
L 610.291817 102.080294 
L 610.33596 102.013755 
L 610.380046 101.215429 
L 610.424076 102.412925 
L 610.46805 102.146817 
L 610.555828 102.279879 
L 610.643384 102.080294 
L 610.687078 102.346402 
L 610.730717 101.814185 
L 610.774301 102.080294 
L 610.991395 102.479464 
L 611.03465 101.814185 
L 611.120998 102.146817 
L 611.16409 102.479464 
L 611.207129 101.348475 
L 611.250114 102.279879 
L 611.293045 102.21334 
L 611.335923 101.348475 
L 611.421518 101.481537 
L 611.464237 101.947231 
L 611.506902 100.816258 
L 611.549514 102.146817 
L 611.592074 102.279879 
L 611.677035 101.548061 
L 611.719437 101.681123 
L 611.761788 101.947231 
L 611.804086 101.415014 
L 611.846332 102.013755 
L 611.888526 101.880708 
L 611.930669 101.015843 
L 611.97276 101.947231 
L 612.098725 102.279879 
L 612.224231 101.814185 
L 612.349281 101.681123 
L 612.390864 102.013755 
L 612.432396 101.548061 
L 612.515311 101.814185 
L 612.598026 101.348475 
L 612.639309 101.415014 
L 612.680543 101.481537 
L 612.762862 102.21334 
L 612.803949 101.681123 
L 612.844986 101.415014 
L 612.885974 102.412925 
L 612.926913 101.415014 
L 613.008646 101.348475 
L 613.04944 101.548061 
L 613.090186 101.215429 
L 613.130883 101.348475 
L 613.171532 101.281952 
L 613.212134 102.080294 
L 613.252687 101.481537 
L 613.293193 100.749735 
L 613.333651 101.6146 
L 613.454741 102.146817 
L 613.49501 100.284041 
L 613.575406 101.481537 
L 613.615534 101.348475 
L 613.655615 102.21334 
L 613.69565 101.082367 
L 613.735638 101.548061 
L 613.815475 101.880708 
L 613.895127 101.814185 
L 613.974595 101.348475 
L 614.014261 102.146817 
L 614.05388 101.281952 
L 614.093454 101.481537 
L 614.132983 101.015843 
L 614.211905 101.215429 
L 614.290645 102.013755 
L 614.329948 101.548061 
L 614.40842 100.882781 
L 614.447589 101.215429 
L 614.486713 101.814185 
L 614.525793 101.681123 
L 614.564828 100.816258 
L 614.60382 100.94932 
L 614.642767 101.880708 
L 614.720529 101.6146 
L 614.759344 101.481537 
L 614.798116 100.94932 
L 614.836844 101.481537 
L 614.875529 101.481537 
L 614.91417 100.284041 
L 614.952767 100.749735 
L 615.068301 101.747646 
L 615.145109 101.947231 
L 615.221746 100.48361 
L 615.298212 100.350564 
L 615.374509 101.548061 
L 615.412594 101.015843 
L 615.488638 101.348475 
L 615.526597 101.281952 
L 615.564514 100.816258 
L 615.60239 101.548061 
L 615.640224 100.94932 
L 615.753476 101.6146 
L 615.791145 100.55015 
L 615.866358 101.548061 
L 615.903903 101.481537 
L 615.941407 101.681123 
L 615.97887 100.417087 
L 616.053674 100.616673 
L 616.165577 101.6146 
L 616.239977 100.882781 
L 616.277116 101.281952 
L 616.314216 101.681123 
L 616.351276 101.215429 
L 616.388296 101.548061 
L 616.462216 100.150979 
L 616.499117 100.882781 
L 616.535978 101.814185 
L 616.5728 101.348475 
L 616.609583 100.350564 
L 616.646326 101.415014 
L 616.68303 100.816258 
L 616.756321 101.814185 
L 616.792908 100.48361 
L 616.865965 101.681123 
L 616.938868 100.084456 
L 616.975261 101.148906 
L 617.047933 101.947231 
L 617.192818 100.284041 
L 617.301082 101.747646 
L 617.444907 100.217502 
L 617.516595 101.6146 
L 617.552383 101.082367 
L 617.588134 101.015843 
L 617.623848 101.481537 
L 617.659524 100.683196 
L 617.695164 100.417087 
L 617.730767 100.94932 
L 617.766333 101.348475 
L 617.801862 100.55015 
L 617.837355 101.148906 
L 617.90823 101.281952 
L 617.943614 100.749735 
L 617.978961 101.348475 
L 618.049546 101.215429 
L 618.084784 101.215429 
L 618.155152 101.681123 
L 618.225377 100.150979 
L 618.295459 100.683196 
L 618.330447 100.683196 
L 618.400315 101.681123 
L 618.435196 100.749735 
L 618.539628 101.215429 
L 618.609073 100.084456 
L 618.678379 100.55015 
L 618.782076 101.6146 
L 618.816573 101.148906 
L 618.851035 100.150979 
L 618.919855 100.55015 
L 618.954214 100.48361 
L 619.022829 101.348475 
L 619.091307 100.217502 
L 619.125495 100.683196 
L 619.159649 100.816258 
L 619.193769 101.481537 
L 619.227856 100.55015 
L 619.261908 100.084456 
L 619.363865 101.415014 
L 619.431668 101.481537 
L 619.46552 100.683196 
L 619.499339 101.681123 
L 619.566876 101.148906 
L 619.600595 100.616673 
L 619.634281 101.148906 
L 619.667934 101.548061 
L 619.701555 101.415014 
L 619.802219 100.350564 
L 619.835708 101.747646 
L 619.902589 100.350564 
L 620.035963 101.481537 
L 620.102457 100.48361 
L 620.168822 100.616673 
L 620.235059 100.94932 
L 620.367153 100.150979 
L 620.400097 101.348475 
L 620.465892 101.281952 
L 620.564348 100.150979 
L 620.597104 100.55015 
L 620.629829 100.616673 
L 620.662523 100.94932 
L 620.695186 100.150979 
L 620.727818 100.150979 
L 620.890516 101.348475 
L 620.922963 100.217502 
L 621.020122 100.417087 
L 621.084743 101.082367 
L 621.117007 100.616673 
L 621.245765 100.084456 
L 621.27788 101.148906 
L 621.342018 100.017917 
L 621.469939 100.217502 
L 621.501844 100.017917 
L 621.597385 100.749735 
L 621.629173 100.417087 
L 621.660932 100.683196 
L 621.692661 100.150979 
L 621.724361 100.084456 
L 621.756032 100.683196 
L 621.850871 100.616673 
L 621.882426 100.55015 
L 621.945449 100.017917 
L 622.008356 100.150979 
L 622.102503 100.150979 
L 622.133828 100.350564 
L 622.165124 99.951393 
L 622.196393 100.084456 
L 622.258844 99.88487 
L 622.321182 99.751808 
L 622.383407 100.683196 
L 622.414478 99.818331 
L 622.44552 101.348475 
L 622.476535 99.88487 
L 622.569411 100.616673 
L 622.723649 99.818331 
L 622.815862 100.616673 
L 622.846545 100.017917 
L 622.999549 100.284041 
L 623.030068 100.284041 
L 623.091026 100.017917 
L 623.121465 100.150979 
L 623.151876 100.48361 
L 623.182261 100.017917 
L 623.24295 100.150979 
L 623.273254 99.818331 
L 623.303532 100.882781 
L 623.364008 100.749735 
L 623.424377 100.084456 
L 623.454523 100.55015 
L 623.484641 101.082367 
L 623.514734 100.417087 
L 623.634841 99.818331 
L 623.694738 100.417087 
L 623.75453 100.017917 
L 623.784388 100.084456 
L 623.814219 99.88487 
L 623.844025 99.88487 
L 623.962991 100.48361 
L 624.081546 99.88487 
L 624.111121 100.017917 
L 624.140671 99.951393 
L 624.170196 99.685285 
L 624.229169 100.150979 
L 624.258617 100.017917 
L 624.288041 100.217502 
L 624.317439 100.284041 
L 624.434782 99.618762 
L 624.493304 99.552223 
L 624.5809 99.88487 
L 624.610049 99.751808 
L 624.639174 99.751808 
L 624.668274 100.417087 
L 624.755427 100.084456 
L 624.871288 99.685285 
L 624.929073 100.150979 
L 624.986761 99.751808 
L 625.015569 99.751808 
L 625.044352 100.749735 
L 625.101847 99.552223 
L 625.130559 99.951393 
L 625.159247 99.951393 
L 625.18791 100.749735 
L 625.21655 99.88487 
L 625.273759 100.150979 
L 625.473242 99.352637 
L 625.558383 100.217502 
L 625.586716 100.084456 
L 625.615026 99.818331 
L 625.671576 100.084456 
L 625.699817 100.084456 
L 625.728034 100.417087 
L 625.756228 99.419176 
L 625.840672 99.485699 
L 625.868774 99.552223 
L 626.008941 100.150979 
L 626.064848 99.618762 
L 626.092767 100.48361 
L 626.120664 99.751808 
L 626.20422 99.552223 
L 626.232027 100.217502 
L 626.398397 99.685285 
L 626.426048 99.552223 
L 626.453676 100.350564 
L 626.536428 99.951393 
L 626.591485 99.618762 
L 626.618981 99.818331 
L 626.646455 100.150979 
L 626.701337 99.618762 
L 626.728745 99.951393 
L 626.810838 99.485699 
L 626.783496 100.017917 
L 626.83816 99.685285 
L 626.865459 100.150979 
L 626.919993 99.618762 
L 626.974441 99.685285 
L 627.055951 100.084456 
L 627.028803 99.618762 
L 627.110185 99.818331 
L 627.218395 99.419176 
L 627.326267 100.350564 
L 627.460632 99.419176 
L 627.514232 99.286114 
L 627.567749 100.150979 
L 627.647867 100.350564 
L 627.701177 99.485699 
L 627.754403 99.219591 
L 627.834089 99.419176 
L 627.887111 99.352637 
L 627.940051 99.818331 
L 628.019309 99.419176 
L 627.99291 100.284041 
L 628.045687 99.818331 
L 628.098384 99.352637 
L 628.124702 99.419176 
L 628.177279 99.219591 
L 628.203536 100.350564 
L 628.28219 99.219591 
L 628.334527 99.419176 
L 628.360665 99.552223 
L 628.412882 99.485699 
L 628.46502 99.153052 
L 628.49106 99.419176 
L 628.517079 100.217502 
L 628.543079 99.286114 
L 628.595021 99.751808 
L 628.698669 99.286114 
L 628.724532 99.552223 
L 628.750376 99.685285 
L 628.802005 99.485699 
L 628.853558 99.286114 
L 628.879305 99.552223 
L 628.905033 99.485699 
L 628.930741 99.485699 
L 628.956431 99.219591 
L 629.007753 99.552223 
L 629.033385 99.485699 
L 629.110167 99.419176 
L 629.135723 99.485699 
L 629.237757 99.751808 
L 629.364877 99.352637 
L 629.415593 99.286114 
L 629.466235 99.153052 
L 629.542058 99.685285 
L 629.642897 99.352637 
L 629.693206 99.951393 
L 629.718333 99.219591 
L 629.743441 99.419176 
L 629.843692 99.352637 
L 629.868709 99.552223 
L 629.943652 99.485699 
L 630.043323 99.219591 
L 630.09305 99.685285 
L 630.167506 99.485699 
L 630.365272 99.219591 
L 630.488301 99.552223 
L 630.512855 99.485699 
L 630.561908 99.352637 
L 630.586409 99.685285 
L 630.610892 99.086529 
L 630.659807 99.286114 
L 630.708652 99.352637 
L 630.733048 99.485699 
L 630.757427 99.219591 
L 630.781789 99.352637 
L 630.806134 99.153052 
L 630.830462 99.419176 
L 630.879065 99.286114 
L 630.903341 99.618762 
L 630.976067 99.219591 
L 631.072795 99.552223 
L 631.121058 99.419176 
L 631.193325 99.153052 
L 631.313435 99.618762 
L 631.337406 99.153052 
L 631.433126 99.419176 
L 631.457015 99.419176 
L 631.552403 99.086529 
L 631.623771 99.618762 
L 631.647528 99.485699 
L 631.671268 99.219591 
L 631.694992 99.618762 
L 631.766065 99.352637 
L 631.860602 99.086529 
L 631.836992 99.485699 
L 631.884195 99.219591 
L 631.907773 99.552223 
L 631.931334 99.086529 
L 632.001922 99.485699 
L 632.119246 99.219591 
L 632.142663 99.552223 
L 632.212819 99.153052 
L 632.236173 99.485699 
L 632.352703 99.086529 
L 632.375962 99.153052 
L 632.399205 99.685285 
L 632.422432 99.086529 
L 632.49202 99.286114 
L 632.561468 99.153052 
L 632.607689 99.485699 
L 632.653848 99.618762 
L 632.699945 99.286114 
L 632.791954 99.219591 
L 632.837866 99.618762 
L 632.929508 99.286114 
L 632.975237 99.352637 
L 632.998079 99.286114 
L 633.066514 99.352637 
L 633.089296 99.618762 
L 633.112062 99.219591 
L 633.180271 99.485699 
L 633.202978 99.485699 
L 633.225669 99.153052 
L 633.293653 99.219591 
L 633.316285 100.150979 
L 633.384091 99.552223 
L 633.496804 99.153052 
L 633.564256 99.685285 
L 633.631575 99.618762 
L 633.76582 99.020005 
L 633.855027 99.419176 
L 633.877293 99.219591 
L 633.899544 99.086529 
L 633.921781 99.685285 
L 634.010584 99.419176 
L 634.03275 99.286114 
L 634.054901 99.618762 
L 634.077037 99.352637 
L 634.143362 99.618762 
L 634.165442 99.286114 
L 634.187508 99.485699 
L 634.209559 99.485699 
L 634.363526 99.086529 
L 634.494951 99.751808 
L 634.516807 99.086529 
L 634.60409 99.352637 
L 634.647649 99.685285 
L 634.691153 99.286114 
L 634.734602 99.618762 
L 634.821335 99.219591 
L 634.86462 99.352637 
L 634.886242 99.485699 
L 634.951027 99.286114 
L 634.972595 99.419176 
L 635.037218 99.485699 
L 635.058732 99.88487 
L 635.123193 99.419176 
L 635.144653 99.419176 
L 635.230361 99.485699 
L 635.273135 99.020005 
L 635.294502 99.552223 
L 635.379837 99.419176 
L 635.48621 99.219591 
L 635.634582 99.552223 
L 635.676856 99.153052 
L 635.740171 99.286114 
L 635.76125 100.017917 
L 635.845438 99.286114 
L 635.866452 99.219591 
L 635.887454 99.485699 
L 635.908443 99.352637 
L 635.92942 99.818331 
L 636.013197 99.352637 
L 636.03411 99.485699 
L 636.055009 99.219591 
L 636.075897 99.286114 
L 636.096771 99.086529 
L 636.117633 100.150979 
L 636.200954 99.219591 
L 636.284074 99.552223 
L 636.304823 99.020005 
L 636.387692 99.419176 
L 636.408379 99.751808 
L 636.470363 99.219591 
L 636.491 99.618762 
L 636.593998 99.219591 
L 636.676175 99.685285 
L 636.71719 99.485699 
L 636.737679 99.685285 
L 636.758156 99.286114 
L 636.839942 99.618762 
L 636.941903 99.286114 
L 637.084142 99.618762 
L 637.104414 99.618762 
L 637.205595 99.219591 
L 637.225796 99.751808 
L 637.245984 99.086529 
L 637.326621 99.552223 
L 637.366869 99.618762 
L 637.407069 99.286114 
L 637.467282 99.685285 
L 637.48733 99.485699 
L 637.507366 99.618762 
L 637.52739 99.286114 
L 637.567404 99.419176 
L 637.587393 99.352637 
L 637.607371 99.618762 
L 637.647291 99.419176 
L 637.687166 99.153052 
L 637.746891 99.685285 
L 637.846204 99.219591 
L 637.866032 99.552223 
L 637.984761 99.352637 
L 638.00451 99.419176 
L 638.043973 99.685285 
L 638.122763 99.618762 
L 638.220998 99.286114 
L 638.240612 99.352637 
L 638.260214 99.618762 
L 638.338511 99.352637 
L 638.377593 99.552223 
L 638.436133 99.286114 
L 638.514032 99.818331 
L 638.572341 99.552223 
L 638.630551 99.751808 
L 638.611158 99.419176 
L 638.688662 99.618762 
L 638.746676 99.020005 
L 638.765992 99.286114 
L 638.785297 99.751808 
L 638.881662 99.485699 
L 638.900902 99.485699 
L 638.920132 99.618762 
L 638.939351 99.286114 
L 639.016121 99.552223 
L 639.035286 99.419176 
L 639.054441 99.618762 
L 639.111842 99.485699 
L 639.245406 99.818331 
L 639.340492 99.352637 
L 639.435317 99.485699 
L 639.510989 99.419176 
L 639.548763 99.552223 
L 639.661835 99.286114 
L 639.605345 99.618762 
L 639.680645 99.485699 
L 639.699444 99.618762 
L 639.737011 99.485699 
L 639.793286 99.153052 
L 639.830751 99.352637 
L 639.868176 99.618762 
L 639.924236 99.219591 
L 639.942903 99.419176 
L 639.998842 99.552223 
L 640.036084 99.219591 
L 640.073286 99.485699 
L 640.147569 99.419176 
L 640.240199 99.286114 
L 640.351026 99.485699 
L 640.424713 99.552223 
L 640.461498 99.352637 
L 640.553287 99.286114 
L 640.571616 99.485699 
L 640.663112 99.219591 
L 640.681383 99.286114 
L 640.699643 100.017917 
L 640.736135 99.219591 
L 640.7908 99.219591 
L 640.845379 99.485699 
L 640.827196 99.153052 
L 640.899871 99.419176 
L 640.918016 99.219591 
L 640.936152 99.552223 
L 640.972394 99.352637 
L 640.990501 99.951393 
L 641.008598 99.219591 
L 641.080892 99.352637 
L 641.098942 99.086529 
L 641.189049 99.286114 
L 641.207042 99.153052 
L 641.225026 99.618762 
L 641.27892 99.286114 
L 641.296867 99.685285 
L 641.386458 99.352637 
L 641.475816 100.017917 
L 641.440101 99.219591 
L 641.511495 99.485699 
L 641.52932 99.286114 
L 641.547136 99.951393 
L 641.618309 99.352637 
L 641.671592 99.352637 
L 641.742508 99.219591 
L 641.724792 99.419176 
L 641.760214 99.286114 
L 641.830947 99.419176 
L 641.848608 99.352637 
L 641.936776 99.153052 
L 641.901536 99.485699 
L 641.954383 99.286114 
L 641.97198 99.419176 
L 642.059833 99.286114 
L 642.077377 99.286114 
L 642.182451 98.953466 
L 642.129954 99.419176 
L 642.199933 99.153052 
L 642.217405 99.552223 
L 642.269769 99.020005 
L 642.304634 99.086529 
L 642.322054 99.086529 
L 642.374259 100.084456 
L 642.443743 99.618762 
L 642.530401 99.086529 
L 642.565003 99.219591 
L 642.582292 99.419176 
L 642.668602 99.153052 
L 642.737495 99.219591 
L 642.77189 99.086529 
L 642.789074 99.485699 
L 642.874868 99.020005 
L 642.994622 99.552223 
L 643.11396 98.886943 
L 643.198949 99.552223 
L 643.215921 99.219591 
L 643.232886 99.086529 
L 643.283728 99.419176 
L 643.317582 99.485699 
L 643.334496 99.352637 
L 643.3683 99.618762 
L 643.452663 99.020005 
L 643.536821 99.818331 
L 643.486351 98.953466 
L 643.570426 99.286114 
L 643.637539 99.419176 
L 643.654297 98.82042 
L 643.754672 99.618762 
L 643.871408 98.886943 
L 643.971153 99.685285 
L 643.987749 99.086529 
L 644.020918 98.953466 
L 644.054054 99.818331 
L 644.120231 99.685285 
L 644.136755 99.020005 
L 644.186281 99.751808 
L 644.235735 99.153052 
L 644.252204 99.020005 
L 644.285119 98.953466 
L 644.367267 99.88487 
L 644.44922 98.953466 
L 644.400072 100.217502 
L 644.465588 99.951393 
L 644.481947 99.951393 
L 644.596246 98.886943 
L 644.612543 99.552223 
L 644.628833 99.818331 
L 644.693915 99.086529 
L 644.710166 99.020005 
L 644.807513 99.951393 
L 644.920737 98.886943 
L 644.953019 99.88487 
L 645.049682 99.618762 
L 645.130028 99.020005 
L 645.162114 99.352637 
L 645.258192 99.951393 
L 645.226196 98.953466 
L 645.274179 99.818331 
L 645.306131 98.886943 
L 645.322096 99.88487 
L 645.369946 98.953466 
L 645.449548 100.017917 
L 645.465447 98.886943 
L 645.481338 99.153052 
L 645.513098 99.552223 
L 645.560683 98.82042 
L 645.59237 99.485699 
L 645.608203 98.886943 
L 645.687256 99.951393 
L 645.797628 98.82042 
L 645.813366 99.951393 
L 645.907646 99.219591 
L 645.939015 99.818331 
L 645.954689 100.017917 
L 645.970356 99.086529 
L 646.001668 99.286114 
L 646.032952 98.753897 
L 646.048583 98.82042 
L 646.079824 100.150979 
L 646.157803 100.084456 
L 646.235606 98.82042 
L 646.266678 100.150979 
L 646.390686 99.086529 
L 646.406155 99.88487 
L 646.437074 98.753897 
L 646.498827 99.219591 
L 646.529663 98.886943 
L 646.56047 99.086529 
L 646.652728 99.552223 
L 646.59125 98.753897 
L 646.66808 99.419176 
L 646.683426 98.886943 
L 646.744739 100.017917 
L 646.760051 98.953466 
L 646.821228 100.084456 
L 646.867039 98.82042 
L 646.882296 99.951393 
L 646.943257 98.753897 
L 646.91279 100.150979 
L 646.988906 99.086529 
L 647.034496 98.753897 
L 647.095187 100.084456 
L 647.140636 98.953466 
L 647.201141 99.88487 
L 647.21625 99.88487 
L 647.351939 98.554311 
L 647.412074 99.685285 
L 647.472104 99.552223 
L 647.487095 98.886943 
L 647.517058 99.685285 
L 647.576905 99.153052 
L 647.666482 98.886943 
L 647.711183 99.818331 
L 647.830102 98.886943 
L 647.859767 99.88487 
L 647.948611 99.153052 
L 647.963397 98.554311 
L 648.007714 99.618762 
L 648.051974 99.286114 
L 648.110899 99.818331 
L 648.081449 99.086529 
L 648.155026 99.485699 
L 648.213775 99.685285 
L 648.257771 98.487772 
L 648.330973 99.818331 
L 648.37482 99.020005 
L 648.389423 99.020005 
L 648.491472 99.618762 
L 648.476912 98.487772 
L 648.506025 99.219591 
L 648.564179 99.88487 
L 648.535114 98.554311 
L 648.607729 99.419176 
L 648.636733 98.221664 
L 648.694666 99.286114 
L 648.723596 99.818331 
L 648.752501 98.487772 
L 648.81024 99.751808 
L 648.82466 99.685285 
L 648.91105 98.687358 
L 648.896667 99.951393 
L 648.925428 99.153052 
L 648.939799 99.818331 
L 649.025901 99.618762 
L 649.040231 99.020005 
L 649.054554 99.88487 
L 649.126083 99.751808 
L 649.154652 98.82042 
L 649.268695 99.286114 
L 649.282924 99.552223 
L 649.297147 98.82042 
L 649.382361 99.419176 
L 649.396542 99.485699 
L 649.410718 99.286114 
L 649.424889 98.953466 
L 649.453212 99.552223 
L 649.509787 99.153052 
L 649.523917 99.552223 
L 649.538041 98.953466 
L 649.594477 99.020005 
L 649.608572 98.753897 
L 649.650822 99.552223 
L 649.707074 98.953466 
L 649.721122 99.020005 
L 649.735165 99.951393 
L 649.763234 98.753897 
L 649.833306 99.352637 
L 649.847303 98.687358 
L 649.931168 99.618762 
L 649.945125 98.886943 
L 649.959077 100.017917 
L 649.986964 98.753897 
L 650.056582 99.419176 
L 650.112175 98.687358 
L 650.098286 99.485699 
L 650.153812 99.286114 
L 650.195398 99.153052 
L 650.236933 99.552223 
L 650.306048 98.82042 
L 650.264596 100.084456 
L 650.347451 99.352637 
L 650.443863 98.82042 
L 650.402576 99.818331 
L 650.47136 98.953466 
L 650.540006 99.352637 
L 650.581128 99.286114 
L 650.663225 98.687358 
L 650.622201 99.685285 
L 650.690547 98.82042 
L 650.772384 99.419176 
L 650.786005 98.753897 
L 650.79962 99.219591 
L 650.826834 98.82042 
L 650.894775 99.352637 
L 650.908348 99.286114 
L 650.962583 99.020005 
L 650.935476 99.485699 
L 650.989669 99.219591 
L 651.003203 99.419176 
L 651.070798 98.886943 
L 651.084301 99.020005 
L 651.097799 99.020005 
L 651.111291 99.951393 
L 651.165208 98.687358 
L 651.20559 98.82042 
L 651.299631 99.219591 
L 651.272788 98.687358 
L 651.326453 99.020005 
L 651.366646 99.419176 
L 651.380034 98.421249 
L 651.4736 99.153052 
L 651.486946 99.153052 
L 651.553598 98.288187 
L 651.566913 99.286114 
L 651.606827 98.886943 
L 651.63341 99.286114 
L 651.646694 98.753897 
L 651.713038 98.886943 
L 651.739539 98.886943 
L 651.792482 99.552223 
L 651.845342 98.753897 
L 651.898122 98.687358 
L 651.950821 99.286114 
L 652.029718 98.687358 
L 652.055977 99.153052 
L 652.069099 99.153052 
L 652.082216 98.82042 
L 652.147726 99.818331 
L 652.173895 99.086529 
L 652.186972 99.219591 
L 652.213112 98.886943 
L 652.239231 98.953466 
L 652.330493 98.687358 
L 652.278373 99.286114 
L 652.343511 99.086529 
L 652.382535 98.886943 
L 652.434498 98.953466 
L 652.486382 99.552223 
L 652.564063 99.352637 
L 652.576992 98.554311 
L 652.680255 99.020005 
L 652.744638 98.886943 
L 652.821738 99.552223 
L 652.78321 98.620835 
L 652.860224 99.153052 
L 652.898666 99.086529 
L 652.911471 98.82042 
L 652.975422 99.153052 
L 653.013736 98.886943 
L 653.026498 99.618762 
L 653.064756 98.620835 
L 653.115699 98.953466 
L 653.217361 99.153052 
L 653.230047 99.086529 
L 653.306069 98.886943 
L 653.255407 99.219591 
L 653.318723 99.020005 
L 653.369292 99.485699 
L 653.394549 98.687358 
L 653.419787 99.020005 
L 653.4324 99.020005 
L 653.445007 99.485699 
L 653.45761 98.82042 
L 653.533131 99.086529 
L 653.583387 98.886943 
L 653.57083 99.219591 
L 653.646103 99.086529 
L 653.658633 99.286114 
L 653.696194 98.753897 
L 653.721212 99.020005 
L 653.783678 98.620835 
L 653.746212 99.286114 
L 653.821103 99.286114 
L 653.895832 99.352637 
L 653.933135 98.886943 
L 653.970398 99.419176 
L 654.044804 98.953466 
L 654.119048 99.086529 
L 654.143761 98.886943 
L 654.168456 99.020005 
L 654.205465 98.753897 
L 654.193133 99.086529 
L 654.267059 98.82042 
L 654.316255 99.286114 
L 654.365381 99.020005 
L 654.414436 98.620835 
L 654.426689 99.219591 
L 654.475657 99.020005 
L 654.487889 99.086529 
L 654.500115 98.288187 
L 654.512338 99.153052 
L 654.597774 99.020005 
L 654.65867 98.620835 
L 654.622146 99.086529 
L 654.731604 98.886943 
L 654.804383 98.554311 
L 654.840715 99.153052 
L 654.901184 98.354726 
L 654.961546 98.82042 
L 655.057906 99.219591 
L 655.033841 98.753897 
L 655.069932 99.086529 
L 655.117994 98.354726 
L 655.105985 99.153052 
L 655.189961 98.82042 
L 655.273734 98.687358 
L 655.309574 99.086529 
L 655.404966 98.487772 
L 655.345377 99.219591 
L 655.428772 98.620835 
L 655.511966 99.219591 
L 655.523834 98.288187 
L 655.547559 98.953466 
L 655.559415 99.153052 
L 655.571267 98.82042 
L 655.642294 99.020005 
L 655.713175 97.955555 
L 655.665937 99.086529 
L 655.74856 98.886943 
L 655.807456 99.153052 
L 655.772131 98.82042 
L 655.854499 98.886943 
L 655.924945 98.022078 
L 655.901479 99.286114 
L 655.960113 98.620835 
L 655.983539 99.219591 
L 656.042034 98.288187 
L 656.077083 99.020005 
L 656.088758 99.020005 
L 656.10043 98.687358 
L 656.13542 99.419176 
L 656.193657 98.886943 
L 656.240176 99.286114 
L 656.275024 98.753897 
L 656.286632 98.82042 
L 656.333026 98.687358 
L 656.321434 99.419176 
L 656.390931 98.886943 
L 656.425626 98.953466 
L 656.517978 99.219591 
L 656.471833 98.753897 
L 656.541027 99.020005 
L 656.575572 98.354726 
L 656.58708 99.219591 
L 656.656043 98.886943 
L 656.747779 99.153052 
L 656.736325 98.753897 
L 656.759229 99.086529 
L 656.827848 98.687358 
L 656.816421 99.352637 
L 656.873518 98.753897 
L 656.919128 99.153052 
L 656.94191 98.687358 
L 656.953296 98.288187 
L 657.032889 99.219591 
L 657.044244 99.419176 
L 657.055596 98.82042 
L 657.112298 99.153052 
L 657.214127 98.753897 
L 657.225423 98.953466 
L 657.259288 98.221664 
L 657.30439 99.219591 
L 657.371931 98.155141 
L 657.416886 98.953466 
L 657.428115 99.020005 
L 657.439341 98.953466 
L 657.450563 98.022078 
L 657.495415 99.020005 
L 657.540208 98.82042 
L 657.562583 99.086529 
L 657.651938 98.953466 
L 657.663091 98.421249 
L 657.718801 99.153052 
L 657.752185 99.086529 
L 657.829953 97.955555 
L 657.874314 98.886943 
L 657.918617 98.421249 
L 657.973916 99.153052 
L 657.996011 98.620835 
L 658.084248 98.687358 
L 658.17226 99.020005 
L 658.106272 98.620835 
L 658.194228 98.82042 
L 658.260047 98.088617 
L 658.249086 99.086529 
L 658.271005 98.953466 
L 658.281959 99.153052 
L 658.325741 98.687358 
L 658.38039 99.086529 
L 658.413138 98.221664 
L 658.467649 98.82042 
L 658.500314 99.286114 
L 658.522073 98.554311 
L 658.576412 99.219591 
L 658.630665 98.421249 
L 658.684832 98.953466 
L 658.728105 99.086529 
L 658.717292 98.487772 
L 658.738915 99.020005 
L 658.78212 98.022078 
L 658.846825 99.020005 
L 658.879133 99.086529 
L 658.911409 98.82042 
L 658.932911 99.020005 
L 658.943656 98.088617 
L 659.0295 98.886943 
" clip-path="url(#pab4d007343)" style="fill: none; stroke: #1f77b4; stroke-width: 1.5; stroke-linecap: square"/>
   </g>
   <g id="patch_3">
    <path d="M 301.9095 311.6435 
L 301.9095 45.5315 
" style="fill: none; stroke: #000000; stroke-width: 0.8; stroke-linejoin: miter; stroke-linecap: square"/>
   </g>
   <g id="patch_4">
    <path d="M 659.0295 311.6435 
L 659.0295 45.5315 
" style="fill: none; stroke: #000000; stroke-width: 0.8; stroke-linejoin: miter; stroke-linecap: square"/>
   </g>
   <g id="patch_5">
    <path d="M 301.9095 311.6435 
L 659.0295 311.6435 
" style="fill: none; stroke: #000000; stroke-width: 0.8; stroke-linejoin: miter; stroke-linecap: square"/>
   </g>
   <g id="patch_6">
    <path d="M 301.9095 45.5315 
L 659.0295 45.5315 
" style="fill: none; stroke: #000000; stroke-width: 0.8; stroke-linejoin: miter; stroke-linecap: square"/>
   </g>
   <g id="text_17">
    <!-- Accuracy of the 13_05_25_CIFAR10_model_(1024+512+1)_2_ctpb on the validation set -->
    <g transform="translate(7.2 25.5315) scale(0.264 -0.264)">
     <defs>
      <path id="TimesNewRomanPSMT-20" transform="scale(0.015625)"/>
      <path id="TimesNewRomanPSMT-6f" d="M 1600 2947 
Q 2250 2947 2644 2453 
Q 2978 2031 2978 1484 
Q 2978 1100 2793 706 
Q 2609 313 2286 112 
Q 1963 -88 1566 -88 
Q 919 -88 538 428 
Q 216 863 216 1403 
Q 216 1797 411 2186 
Q 606 2575 925 2761 
Q 1244 2947 1600 2947 
z
M 1503 2744 
Q 1338 2744 1170 2645 
Q 1003 2547 900 2300 
Q 797 2053 797 1666 
Q 797 1041 1045 587 
Q 1294 134 1700 134 
Q 2003 134 2200 384 
Q 2397 634 2397 1244 
Q 2397 2006 2069 2444 
Q 1847 2744 1503 2744 
z
" transform="scale(0.015625)"/>
      <path id="TimesNewRomanPSMT-66" d="M 1319 2638 
L 1319 756 
Q 1319 356 1406 250 
Q 1522 113 1716 113 
L 1975 113 
L 1975 0 
L 266 0 
L 266 113 
L 394 113 
Q 519 113 622 175 
Q 725 238 764 344 
Q 803 450 803 756 
L 803 2638 
L 247 2638 
L 247 2863 
L 803 2863 
L 803 3050 
Q 803 3478 940 3775 
Q 1078 4072 1361 4255 
Q 1644 4438 1997 4438 
Q 2325 4438 2600 4225 
Q 2781 4084 2781 3909 
Q 2781 3816 2700 3733 
Q 2619 3650 2525 3650 
Q 2453 3650 2373 3701 
Q 2294 3753 2178 3923 
Q 2063 4094 1966 4153 
Q 1869 4213 1750 4213 
Q 1606 4213 1506 4136 
Q 1406 4059 1362 3898 
Q 1319 3738 1319 3069 
L 1319 2863 
L 2056 2863 
L 2056 2638 
L 1319 2638 
z
" transform="scale(0.015625)"/>
      <path id="TimesNewRomanPSMT-74" d="M 1031 3803 
L 1031 2863 
L 1700 2863 
L 1700 2644 
L 1031 2644 
L 1031 788 
Q 1031 509 1111 412 
Q 1191 316 1316 316 
Q 1419 316 1516 380 
Q 1613 444 1666 569 
L 1788 569 
Q 1678 263 1478 108 
Q 1278 -47 1066 -47 
Q 922 -47 784 33 
Q 647 113 581 261 
Q 516 409 516 719 
L 516 2644 
L 63 2644 
L 63 2747 
Q 234 2816 414 2980 
Q 594 3144 734 3369 
Q 806 3488 934 3803 
L 1031 3803 
z
" transform="scale(0.015625)"/>
      <path id="TimesNewRomanPSMT-68" d="M 1041 4444 
L 1041 2350 
Q 1388 2731 1591 2839 
Q 1794 2947 1997 2947 
Q 2241 2947 2416 2812 
Q 2591 2678 2675 2391 
Q 2734 2191 2734 1659 
L 2734 647 
Q 2734 375 2778 275 
Q 2809 200 2884 156 
Q 2959 113 3159 113 
L 3159 0 
L 1753 0 
L 1753 113 
L 1819 113 
Q 2019 113 2097 173 
Q 2175 234 2206 353 
Q 2216 403 2216 647 
L 2216 1659 
Q 2216 2128 2167 2275 
Q 2119 2422 2012 2495 
Q 1906 2569 1756 2569 
Q 1603 2569 1437 2487 
Q 1272 2406 1041 2159 
L 1041 647 
Q 1041 353 1073 281 
Q 1106 209 1195 161 
Q 1284 113 1503 113 
L 1503 0 
L 84 0 
L 84 113 
Q 275 113 384 172 
Q 447 203 484 290 
Q 522 378 522 647 
L 522 3238 
Q 522 3728 498 3840 
Q 475 3953 426 3993 
Q 378 4034 297 4034 
Q 231 4034 84 3984 
L 41 4094 
L 897 4444 
L 1041 4444 
z
" transform="scale(0.015625)"/>
      <path id="TimesNewRomanPSMT-65" d="M 681 1784 
Q 678 1147 991 784 
Q 1303 422 1725 422 
Q 2006 422 2214 576 
Q 2422 731 2563 1106 
L 2659 1044 
Q 2594 616 2278 264 
Q 1963 -88 1488 -88 
Q 972 -88 605 314 
Q 238 716 238 1394 
Q 238 2128 614 2539 
Q 991 2950 1559 2950 
Q 2041 2950 2350 2633 
Q 2659 2316 2659 1784 
L 681 1784 
z
M 681 1966 
L 2006 1966 
Q 1991 2241 1941 2353 
Q 1863 2528 1708 2628 
Q 1553 2728 1384 2728 
Q 1125 2728 920 2526 
Q 716 2325 681 1966 
z
" transform="scale(0.015625)"/>
      <path id="TimesNewRomanPSMT-5f" d="M 3256 -1381 
L -53 -1381 
L -53 -1119 
L 3256 -1119 
L 3256 -1381 
z
" transform="scale(0.015625)"/>
      <path id="TimesNewRomanPSMT-43" d="M 3853 4334 
L 3950 2894 
L 3853 2894 
Q 3659 3541 3300 3825 
Q 2941 4109 2438 4109 
Q 2016 4109 1675 3895 
Q 1334 3681 1139 3212 
Q 944 2744 944 2047 
Q 944 1472 1128 1050 
Q 1313 628 1683 403 
Q 2053 178 2528 178 
Q 2941 178 3256 354 
Q 3572 531 3950 1056 
L 4047 994 
Q 3728 428 3303 165 
Q 2878 -97 2294 -97 
Q 1241 -97 663 684 
Q 231 1266 231 2053 
Q 231 2688 515 3219 
Q 800 3750 1298 4042 
Q 1797 4334 2388 4334 
Q 2847 4334 3294 4109 
Q 3425 4041 3481 4041 
Q 3566 4041 3628 4100 
Q 3709 4184 3744 4334 
L 3853 4334 
z
" transform="scale(0.015625)"/>
      <path id="TimesNewRomanPSMT-49" d="M 1975 116 
L 1975 0 
L 159 0 
L 159 116 
L 309 116 
Q 572 116 691 269 
Q 766 369 766 750 
L 766 3488 
Q 766 3809 725 3913 
Q 694 3991 597 4047 
Q 459 4122 309 4122 
L 159 4122 
L 159 4238 
L 1975 4238 
L 1975 4122 
L 1822 4122 
Q 1563 4122 1444 3969 
Q 1366 3869 1366 3488 
L 1366 750 
Q 1366 428 1406 325 
Q 1438 247 1538 191 
Q 1672 116 1822 116 
L 1975 116 
z
" transform="scale(0.015625)"/>
      <path id="TimesNewRomanPSMT-46" d="M 1309 4006 
L 1309 2341 
L 2081 2341 
Q 2347 2341 2470 2458 
Q 2594 2575 2634 2922 
L 2750 2922 
L 2750 1488 
L 2634 1488 
Q 2631 1734 2570 1850 
Q 2509 1966 2401 2023 
Q 2294 2081 2081 2081 
L 1309 2081 
L 1309 750 
Q 1309 428 1350 325 
Q 1381 247 1481 191 
Q 1619 116 1769 116 
L 1922 116 
L 1922 0 
L 103 0 
L 103 116 
L 253 116 
Q 516 116 634 269 
Q 709 369 709 750 
L 709 3488 
Q 709 3809 669 3913 
Q 638 3991 541 4047 
Q 406 4122 253 4122 
L 103 4122 
L 103 4238 
L 3256 4238 
L 3297 3306 
L 3188 3306 
Q 3106 3603 2998 3742 
Q 2891 3881 2733 3943 
Q 2575 4006 2244 4006 
L 1309 4006 
z
" transform="scale(0.015625)"/>
      <path id="TimesNewRomanPSMT-52" d="M 4325 0 
L 3194 0 
L 1759 1981 
Q 1600 1975 1500 1975 
Q 1459 1975 1412 1976 
Q 1366 1978 1316 1981 
L 1316 750 
Q 1316 350 1403 253 
Q 1522 116 1759 116 
L 1925 116 
L 1925 0 
L 109 0 
L 109 116 
L 269 116 
Q 538 116 653 291 
Q 719 388 719 750 
L 719 3488 
Q 719 3888 631 3984 
Q 509 4122 269 4122 
L 109 4122 
L 109 4238 
L 1653 4238 
Q 2328 4238 2648 4139 
Q 2969 4041 3192 3777 
Q 3416 3513 3416 3147 
Q 3416 2756 3161 2468 
Q 2906 2181 2372 2063 
L 3247 847 
Q 3547 428 3762 290 
Q 3978 153 4325 116 
L 4325 0 
z
M 1316 2178 
Q 1375 2178 1419 2176 
Q 1463 2175 1491 2175 
Q 2097 2175 2405 2437 
Q 2713 2700 2713 3106 
Q 2713 3503 2464 3751 
Q 2216 4000 1806 4000 
Q 1625 4000 1316 3941 
L 1316 2178 
z
" transform="scale(0.015625)"/>
      <path id="TimesNewRomanPSMT-6d" d="M 1050 2338 
Q 1363 2650 1419 2697 
Q 1559 2816 1721 2881 
Q 1884 2947 2044 2947 
Q 2313 2947 2506 2790 
Q 2700 2634 2766 2338 
Q 3088 2713 3309 2830 
Q 3531 2947 3766 2947 
Q 3994 2947 4170 2830 
Q 4347 2713 4450 2447 
Q 4519 2266 4519 1878 
L 4519 647 
Q 4519 378 4559 278 
Q 4591 209 4675 161 
Q 4759 113 4950 113 
L 4950 0 
L 3538 0 
L 3538 113 
L 3597 113 
Q 3781 113 3884 184 
Q 3956 234 3988 344 
Q 4000 397 4000 647 
L 4000 1878 
Q 4000 2228 3916 2372 
Q 3794 2572 3525 2572 
Q 3359 2572 3192 2489 
Q 3025 2406 2788 2181 
L 2781 2147 
L 2788 2013 
L 2788 647 
Q 2788 353 2820 281 
Q 2853 209 2943 161 
Q 3034 113 3253 113 
L 3253 0 
L 1806 0 
L 1806 113 
Q 2044 113 2133 169 
Q 2222 225 2256 338 
Q 2272 391 2272 647 
L 2272 1878 
Q 2272 2228 2169 2381 
Q 2031 2581 1784 2581 
Q 1616 2581 1450 2491 
Q 1191 2353 1050 2181 
L 1050 647 
Q 1050 366 1089 281 
Q 1128 197 1204 155 
Q 1281 113 1516 113 
L 1516 0 
L 100 0 
L 100 113 
Q 297 113 375 155 
Q 453 197 493 289 
Q 534 381 534 647 
L 534 1741 
Q 534 2213 506 2350 
Q 484 2453 437 2492 
Q 391 2531 309 2531 
Q 222 2531 100 2484 
L 53 2597 
L 916 2947 
L 1050 2947 
L 1050 2338 
z
" transform="scale(0.015625)"/>
      <path id="TimesNewRomanPSMT-64" d="M 2222 322 
Q 2013 103 1813 7 
Q 1613 -88 1381 -88 
Q 913 -88 563 304 
Q 213 697 213 1313 
Q 213 1928 600 2439 
Q 988 2950 1597 2950 
Q 1975 2950 2222 2709 
L 2222 3238 
Q 2222 3728 2198 3840 
Q 2175 3953 2125 3993 
Q 2075 4034 2000 4034 
Q 1919 4034 1784 3984 
L 1744 4094 
L 2597 4444 
L 2738 4444 
L 2738 1134 
Q 2738 631 2761 520 
Q 2784 409 2836 365 
Q 2888 322 2956 322 
Q 3041 322 3181 375 
L 3216 266 
L 2366 -88 
L 2222 -88 
L 2222 322 
z
M 2222 541 
L 2222 2016 
Q 2203 2228 2109 2403 
Q 2016 2578 1861 2667 
Q 1706 2756 1559 2756 
Q 1284 2756 1069 2509 
Q 784 2184 784 1559 
Q 784 928 1059 592 
Q 1334 256 1672 256 
Q 1956 256 2222 541 
z
" transform="scale(0.015625)"/>
      <path id="TimesNewRomanPSMT-6c" d="M 1184 4444 
L 1184 647 
Q 1184 378 1223 290 
Q 1263 203 1344 158 
Q 1425 113 1647 113 
L 1647 0 
L 244 0 
L 244 113 
Q 441 113 512 153 
Q 584 194 625 287 
Q 666 381 666 647 
L 666 3247 
Q 666 3731 644 3842 
Q 622 3953 573 3993 
Q 525 4034 450 4034 
Q 369 4034 244 3984 
L 191 4094 
L 1044 4444 
L 1184 4444 
z
" transform="scale(0.015625)"/>
      <path id="TimesNewRomanPSMT-28" d="M 1988 -1253 
L 1988 -1369 
Q 1516 -1131 1200 -813 
Q 750 -359 506 256 
Q 263 872 263 1534 
Q 263 2503 741 3301 
Q 1219 4100 1988 4444 
L 1988 4313 
Q 1603 4100 1356 3731 
Q 1109 3363 987 2797 
Q 866 2231 866 1616 
Q 866 947 969 400 
Q 1050 -31 1165 -292 
Q 1281 -553 1476 -793 
Q 1672 -1034 1988 -1253 
z
" transform="scale(0.015625)"/>
      <path id="TimesNewRomanPSMT-2b" d="M 1672 441 
L 1672 2000 
L 116 2000 
L 116 2256 
L 1672 2256 
L 1672 3809 
L 1922 3809 
L 1922 2256 
L 3484 2256 
L 3484 2000 
L 1922 2000 
L 1922 441 
L 1672 441 
z
" transform="scale(0.015625)"/>
      <path id="TimesNewRomanPSMT-29" d="M 144 4313 
L 144 4444 
Q 619 4209 934 3891 
Q 1381 3434 1625 2820 
Q 1869 2206 1869 1541 
Q 1869 572 1392 -226 
Q 916 -1025 144 -1369 
L 144 -1253 
Q 528 -1038 776 -670 
Q 1025 -303 1145 264 
Q 1266 831 1266 1447 
Q 1266 2113 1163 2663 
Q 1084 3094 967 3353 
Q 850 3613 656 3853 
Q 463 4094 144 4313 
z
" transform="scale(0.015625)"/>
      <path id="TimesNewRomanPSMT-70" d="M -6 2578 
L 875 2934 
L 994 2934 
L 994 2266 
Q 1216 2644 1439 2795 
Q 1663 2947 1909 2947 
Q 2341 2947 2628 2609 
Q 2981 2197 2981 1534 
Q 2981 794 2556 309 
Q 2206 -88 1675 -88 
Q 1444 -88 1275 -22 
Q 1150 25 994 166 
L 994 -706 
Q 994 -1000 1030 -1079 
Q 1066 -1159 1155 -1206 
Q 1244 -1253 1478 -1253 
L 1478 -1369 
L -22 -1369 
L -22 -1253 
L 56 -1253 
Q 228 -1256 350 -1188 
Q 409 -1153 442 -1076 
Q 475 -1000 475 -688 
L 475 2019 
Q 475 2297 450 2372 
Q 425 2447 370 2484 
Q 316 2522 222 2522 
Q 147 2522 31 2478 
L -6 2578 
z
M 994 2081 
L 994 1013 
Q 994 666 1022 556 
Q 1066 375 1236 237 
Q 1406 100 1666 100 
Q 1978 100 2172 344 
Q 2425 663 2425 1241 
Q 2425 1897 2138 2250 
Q 1938 2494 1663 2494 
Q 1513 2494 1366 2419 
Q 1253 2363 994 2081 
z
" transform="scale(0.015625)"/>
      <path id="TimesNewRomanPSMT-62" d="M 984 2369 
Q 1400 2947 1881 2947 
Q 2322 2947 2650 2570 
Q 2978 2194 2978 1541 
Q 2978 778 2472 313 
Q 2038 -88 1503 -88 
Q 1253 -88 995 3 
Q 738 94 469 275 
L 469 3241 
Q 469 3728 445 3840 
Q 422 3953 372 3993 
Q 322 4034 247 4034 
Q 159 4034 28 3984 
L -16 4094 
L 844 4444 
L 984 4444 
L 984 2369 
z
M 984 2169 
L 984 456 
Q 1144 300 1314 220 
Q 1484 141 1663 141 
Q 1947 141 2192 453 
Q 2438 766 2438 1363 
Q 2438 1913 2192 2208 
Q 1947 2503 1634 2503 
Q 1469 2503 1303 2419 
Q 1178 2356 984 2169 
z
" transform="scale(0.015625)"/>
      <path id="TimesNewRomanPSMT-6e" d="M 1034 2341 
Q 1538 2947 1994 2947 
Q 2228 2947 2397 2830 
Q 2566 2713 2666 2444 
Q 2734 2256 2734 1869 
L 2734 647 
Q 2734 375 2778 278 
Q 2813 200 2889 156 
Q 2966 113 3172 113 
L 3172 0 
L 1756 0 
L 1756 113 
L 1816 113 
Q 2016 113 2095 173 
Q 2175 234 2206 353 
Q 2219 400 2219 647 
L 2219 1819 
Q 2219 2209 2117 2386 
Q 2016 2563 1775 2563 
Q 1403 2563 1034 2156 
L 1034 647 
Q 1034 356 1069 288 
Q 1113 197 1189 155 
Q 1266 113 1500 113 
L 1500 0 
L 84 0 
L 84 113 
L 147 113 
Q 366 113 442 223 
Q 519 334 519 647 
L 519 1709 
Q 519 2225 495 2337 
Q 472 2450 423 2490 
Q 375 2531 294 2531 
Q 206 2531 84 2484 
L 38 2597 
L 900 2947 
L 1034 2947 
L 1034 2341 
z
" transform="scale(0.015625)"/>
      <path id="TimesNewRomanPSMT-76" d="M 53 2863 
L 1400 2863 
L 1400 2747 
L 1313 2747 
Q 1191 2747 1127 2687 
Q 1063 2628 1063 2528 
Q 1063 2419 1128 2269 
L 1794 688 
L 2463 2328 
Q 2534 2503 2534 2594 
Q 2534 2638 2509 2666 
Q 2475 2713 2422 2730 
Q 2369 2747 2206 2747 
L 2206 2863 
L 3141 2863 
L 3141 2747 
Q 2978 2734 2916 2681 
Q 2806 2588 2719 2369 
L 1703 -88 
L 1575 -88 
L 553 2328 
Q 484 2497 421 2570 
Q 359 2644 263 2694 
Q 209 2722 53 2747 
L 53 2863 
z
" transform="scale(0.015625)"/>
      <path id="TimesNewRomanPSMT-69" d="M 928 4444 
Q 1059 4444 1151 4351 
Q 1244 4259 1244 4128 
Q 1244 3997 1151 3903 
Q 1059 3809 928 3809 
Q 797 3809 703 3903 
Q 609 3997 609 4128 
Q 609 4259 701 4351 
Q 794 4444 928 4444 
z
M 1188 2947 
L 1188 647 
Q 1188 378 1227 289 
Q 1266 200 1342 156 
Q 1419 113 1622 113 
L 1622 0 
L 231 0 
L 231 113 
Q 441 113 512 153 
Q 584 194 626 287 
Q 669 381 669 647 
L 669 1750 
Q 669 2216 641 2353 
Q 619 2453 572 2492 
Q 525 2531 444 2531 
Q 356 2531 231 2484 
L 188 2597 
L 1050 2947 
L 1188 2947 
z
" transform="scale(0.015625)"/>
      <path id="TimesNewRomanPSMT-73" d="M 2050 2947 
L 2050 1972 
L 1947 1972 
Q 1828 2431 1642 2597 
Q 1456 2763 1169 2763 
Q 950 2763 815 2647 
Q 681 2531 681 2391 
Q 681 2216 781 2091 
Q 878 1963 1175 1819 
L 1631 1597 
Q 2266 1288 2266 781 
Q 2266 391 1970 151 
Q 1675 -88 1309 -88 
Q 1047 -88 709 6 
Q 606 38 541 38 
Q 469 38 428 -44 
L 325 -44 
L 325 978 
L 428 978 
Q 516 541 762 319 
Q 1009 97 1316 97 
Q 1531 97 1667 223 
Q 1803 350 1803 528 
Q 1803 744 1651 891 
Q 1500 1038 1047 1263 
Q 594 1488 453 1669 
Q 313 1847 313 2119 
Q 313 2472 555 2709 
Q 797 2947 1181 2947 
Q 1350 2947 1591 2875 
Q 1750 2828 1803 2828 
Q 1853 2828 1881 2850 
Q 1909 2872 1947 2947 
L 2050 2947 
z
" transform="scale(0.015625)"/>
     </defs>
     <use xlink:href="#TimesNewRomanPSMT-41"/>
     <use xlink:href="#TimesNewRomanPSMT-63" transform="translate(72.216797 0)"/>
     <use xlink:href="#TimesNewRomanPSMT-63" transform="translate(116.601562 0)"/>
     <use xlink:href="#TimesNewRomanPSMT-75" transform="translate(160.986328 0)"/>
     <use xlink:href="#TimesNewRomanPSMT-72" transform="translate(210.986328 0)"/>
     <use xlink:href="#TimesNewRomanPSMT-61" transform="translate(244.287109 0)"/>
     <use xlink:href="#TimesNewRomanPSMT-63" transform="translate(288.671875 0)"/>
     <use xlink:href="#TimesNewRomanPSMT-79" transform="translate(333.056641 0)"/>
     <use xlink:href="#TimesNewRomanPSMT-20" transform="translate(383.056641 0)"/>
     <use xlink:href="#TimesNewRomanPSMT-6f" transform="translate(408.056641 0)"/>
     <use xlink:href="#TimesNewRomanPSMT-66" transform="translate(458.056641 0)"/>
     <use xlink:href="#TimesNewRomanPSMT-20" transform="translate(491.357422 0)"/>
     <use xlink:href="#TimesNewRomanPSMT-74" transform="translate(516.357422 0)"/>
     <use xlink:href="#TimesNewRomanPSMT-68" transform="translate(544.140625 0)"/>
     <use xlink:href="#TimesNewRomanPSMT-65" transform="translate(594.140625 0)"/>
     <use xlink:href="#TimesNewRomanPSMT-20" transform="translate(638.525391 0)"/>
     <use xlink:href="#TimesNewRomanPSMT-31" transform="translate(663.525391 0)"/>
     <use xlink:href="#TimesNewRomanPSMT-33" transform="translate(713.525391 0)"/>
     <use xlink:href="#TimesNewRomanPSMT-5f" transform="translate(763.525391 0)"/>
     <use xlink:href="#TimesNewRomanPSMT-30" transform="translate(813.525391 0)"/>
     <use xlink:href="#TimesNewRomanPSMT-35" transform="translate(863.525391 0)"/>
     <use xlink:href="#TimesNewRomanPSMT-5f" transform="translate(913.525391 0)"/>
     <use xlink:href="#TimesNewRomanPSMT-32" transform="translate(963.525391 0)"/>
     <use xlink:href="#TimesNewRomanPSMT-35" transform="translate(1013.525391 0)"/>
     <use xlink:href="#TimesNewRomanPSMT-5f" transform="translate(1063.525391 0)"/>
     <use xlink:href="#TimesNewRomanPSMT-43" transform="translate(1113.525391 0)"/>
     <use xlink:href="#TimesNewRomanPSMT-49" transform="translate(1180.224609 0)"/>
     <use xlink:href="#TimesNewRomanPSMT-46" transform="translate(1213.525391 0)"/>
     <use xlink:href="#TimesNewRomanPSMT-41" transform="translate(1261.765625 0)"/>
     <use xlink:href="#TimesNewRomanPSMT-52" transform="translate(1333.982422 0)"/>
     <use xlink:href="#TimesNewRomanPSMT-31" transform="translate(1400.681641 0)"/>
     <use xlink:href="#TimesNewRomanPSMT-30" transform="translate(1450.681641 0)"/>
     <use xlink:href="#TimesNewRomanPSMT-5f" transform="translate(1500.681641 0)"/>
     <use xlink:href="#TimesNewRomanPSMT-6d" transform="translate(1550.681641 0)"/>
     <use xlink:href="#TimesNewRomanPSMT-6f" transform="translate(1628.464844 0)"/>
     <use xlink:href="#TimesNewRomanPSMT-64" transform="translate(1678.464844 0)"/>
     <use xlink:href="#TimesNewRomanPSMT-65" transform="translate(1728.464844 0)"/>
     <use xlink:href="#TimesNewRomanPSMT-6c" transform="translate(1772.849609 0)"/>
     <use xlink:href="#TimesNewRomanPSMT-5f" transform="translate(1800.632812 0)"/>
     <use xlink:href="#TimesNewRomanPSMT-28" transform="translate(1850.632812 0)"/>
     <use xlink:href="#TimesNewRomanPSMT-31" transform="translate(1883.933594 0)"/>
     <use xlink:href="#TimesNewRomanPSMT-30" transform="translate(1933.933594 0)"/>
     <use xlink:href="#TimesNewRomanPSMT-32" transform="translate(1983.933594 0)"/>
     <use xlink:href="#TimesNewRomanPSMT-34" transform="translate(2033.933594 0)"/>
     <use xlink:href="#TimesNewRomanPSMT-2b" transform="translate(2083.933594 0)"/>
     <use xlink:href="#TimesNewRomanPSMT-35" transform="translate(2140.330078 0)"/>
     <use xlink:href="#TimesNewRomanPSMT-31" transform="translate(2190.330078 0)"/>
     <use xlink:href="#TimesNewRomanPSMT-32" transform="translate(2240.330078 0)"/>
     <use xlink:href="#TimesNewRomanPSMT-2b" transform="translate(2290.330078 0)"/>
     <use xlink:href="#TimesNewRomanPSMT-31" transform="translate(2346.726562 0)"/>
     <use xlink:href="#TimesNewRomanPSMT-29" transform="translate(2396.726562 0)"/>
     <use xlink:href="#TimesNewRomanPSMT-5f" transform="translate(2430.027344 0)"/>
     <use xlink:href="#TimesNewRomanPSMT-32" transform="translate(2480.027344 0)"/>
     <use xlink:href="#TimesNewRomanPSMT-5f" transform="translate(2530.027344 0)"/>
     <use xlink:href="#TimesNewRomanPSMT-63" transform="translate(2580.027344 0)"/>
     <use xlink:href="#TimesNewRomanPSMT-74" transform="translate(2624.412109 0)"/>
     <use xlink:href="#TimesNewRomanPSMT-70" transform="translate(2652.195312 0)"/>
     <use xlink:href="#TimesNewRomanPSMT-62" transform="translate(2702.195312 0)"/>
     <use xlink:href="#TimesNewRomanPSMT-20" transform="translate(2752.195312 0)"/>
     <use xlink:href="#TimesNewRomanPSMT-6f" transform="translate(2777.195312 0)"/>
     <use xlink:href="#TimesNewRomanPSMT-6e" transform="translate(2827.195312 0)"/>
     <use xlink:href="#TimesNewRomanPSMT-20" transform="translate(2877.195312 0)"/>
     <use xlink:href="#TimesNewRomanPSMT-74" transform="translate(2902.195312 0)"/>
     <use xlink:href="#TimesNewRomanPSMT-68" transform="translate(2929.978516 0)"/>
     <use xlink:href="#TimesNewRomanPSMT-65" transform="translate(2979.978516 0)"/>
     <use xlink:href="#TimesNewRomanPSMT-20" transform="translate(3024.363281 0)"/>
     <use xlink:href="#TimesNewRomanPSMT-76" transform="translate(3049.363281 0)"/>
     <use xlink:href="#TimesNewRomanPSMT-61" transform="translate(3099.363281 0)"/>
     <use xlink:href="#TimesNewRomanPSMT-6c" transform="translate(3143.748047 0)"/>
     <use xlink:href="#TimesNewRomanPSMT-69" transform="translate(3171.53125 0)"/>
     <use xlink:href="#TimesNewRomanPSMT-64" transform="translate(3199.314453 0)"/>
     <use xlink:href="#TimesNewRomanPSMT-61" transform="translate(3249.314453 0)"/>
     <use xlink:href="#TimesNewRomanPSMT-74" transform="translate(3293.699219 0)"/>
     <use xlink:href="#TimesNewRomanPSMT-69" transform="translate(3321.482422 0)"/>
     <use xlink:href="#TimesNewRomanPSMT-6f" transform="translate(3349.265625 0)"/>
     <use xlink:href="#TimesNewRomanPSMT-6e" transform="translate(3399.265625 0)"/>
     <use xlink:href="#TimesNewRomanPSMT-20" transform="translate(3449.265625 0)"/>
     <use xlink:href="#TimesNewRomanPSMT-73" transform="translate(3474.265625 0)"/>
     <use xlink:href="#TimesNewRomanPSMT-65" transform="translate(3513.181641 0)"/>
     <use xlink:href="#TimesNewRomanPSMT-74" transform="translate(3557.566406 0)"/>
    </g>
   </g>
   <g id="legend_1">
    <g id="patch_7">
     <path d="M 417.459187 94.278687 
L 643.6295 94.278687 
Q 648.0295 94.278687 648.0295 89.878687 
L 648.0295 60.9315 
Q 648.0295 56.5315 643.6295 56.5315 
L 417.459187 56.5315 
Q 413.059188 56.5315 413.059188 60.9315 
L 413.059188 89.878687 
Q 413.059188 94.278687 417.459187 94.278687 
z
" style="fill: #ffffff; opacity: 0.8; stroke: #cccccc; stroke-linejoin: miter"/>
    </g>
    <g id="line2d_30">
     <path d="M 421.859188 73.0315 
L 443.859188 73.0315 
L 465.859188 73.0315 
" style="fill: none; stroke: #1f77b4; stroke-width: 1.5; stroke-linecap: square"/>
    </g>
    <g id="text_18">
     <!-- Best accuracy 0.8 -->
     <g transform="translate(483.459188 80.7315) scale(0.22 -0.22)">
      <defs>
       <path id="TimesNewRomanPSMT-42" d="M 2956 2163 
Q 3397 2069 3616 1863 
Q 3919 1575 3919 1159 
Q 3919 844 3719 555 
Q 3519 266 3170 133 
Q 2822 0 2106 0 
L 106 0 
L 106 116 
L 266 116 
Q 531 116 647 284 
Q 719 394 719 750 
L 719 3488 
Q 719 3881 628 3984 
Q 506 4122 266 4122 
L 106 4122 
L 106 4238 
L 1938 4238 
Q 2450 4238 2759 4163 
Q 3228 4050 3475 3764 
Q 3722 3478 3722 3106 
Q 3722 2788 3528 2536 
Q 3334 2284 2956 2163 
z
M 1319 2331 
Q 1434 2309 1582 2298 
Q 1731 2288 1909 2288 
Q 2366 2288 2595 2386 
Q 2825 2484 2947 2687 
Q 3069 2891 3069 3131 
Q 3069 3503 2766 3765 
Q 2463 4028 1881 4028 
Q 1569 4028 1319 3959 
L 1319 2331 
z
M 1319 306 
Q 1681 222 2034 222 
Q 2600 222 2897 476 
Q 3194 731 3194 1106 
Q 3194 1353 3059 1581 
Q 2925 1809 2622 1940 
Q 2319 2072 1872 2072 
Q 1678 2072 1540 2065 
Q 1403 2059 1319 2044 
L 1319 306 
z
" transform="scale(0.015625)"/>
      </defs>
      <use xlink:href="#TimesNewRomanPSMT-42"/>
      <use xlink:href="#TimesNewRomanPSMT-65" transform="translate(66.699219 0)"/>
      <use xlink:href="#TimesNewRomanPSMT-73" transform="translate(111.083984 0)"/>
      <use xlink:href="#TimesNewRomanPSMT-74" transform="translate(150 0)"/>
      <use xlink:href="#TimesNewRomanPSMT-20" transform="translate(177.783203 0)"/>
      <use xlink:href="#TimesNewRomanPSMT-61" transform="translate(202.783203 0)"/>
      <use xlink:href="#TimesNewRomanPSMT-63" transform="translate(247.167969 0)"/>
      <use xlink:href="#TimesNewRomanPSMT-63" transform="translate(291.552734 0)"/>
      <use xlink:href="#TimesNewRomanPSMT-75" transform="translate(335.9375 0)"/>
      <use xlink:href="#TimesNewRomanPSMT-72" transform="translate(385.9375 0)"/>
      <use xlink:href="#TimesNewRomanPSMT-61" transform="translate(419.238281 0)"/>
      <use xlink:href="#TimesNewRomanPSMT-63" transform="translate(463.623047 0)"/>
      <use xlink:href="#TimesNewRomanPSMT-79" transform="translate(508.007812 0)"/>
      <use xlink:href="#TimesNewRomanPSMT-20" transform="translate(558.007812 0)"/>
      <use xlink:href="#TimesNewRomanPSMT-30" transform="translate(583.007812 0)"/>
      <use xlink:href="#TimesNewRomanPSMT-2e" transform="translate(633.007812 0)"/>
      <use xlink:href="#TimesNewRomanPSMT-38" transform="translate(658.007812 0)"/>
     </g>
    </g>
   </g>
  </g>
 </g>
 <defs>
  <clipPath id="pab4d007343">
   <rect x="301.9095" y="45.5315" width="357.12" height="266.112"/>
  </clipPath>
 </defs>
</svg>
