<?xml version="1.0" encoding="utf-8" standalone="no"?>
<!DOCTYPE svg PUBLIC "-//W3C//DTD SVG 1.1//EN"
  "http://www.w3.org/Graphics/SVG/1.1/DTD/svg11.dtd">
<svg xmlns:xlink="http://www.w3.org/1999/xlink" width="1126.339125pt" height="369.807875pt" viewBox="0 0 1126.339125 369.807875" xmlns="http://www.w3.org/2000/svg" version="1.1">
 <metadata>
  <rdf:RDF xmlns:dc="http://purl.org/dc/elements/1.1/" xmlns:cc="http://creativecommons.org/ns#" xmlns:rdf="http://www.w3.org/1999/02/22-rdf-syntax-ns#">
   <cc:Work>
    <dc:type rdf:resource="http://purl.org/dc/dcmitype/StillImage"/>
    <dc:date>2025-07-13T02:32:41.990493</dc:date>
    <dc:format>image/svg+xml</dc:format>
    <dc:creator>
     <cc:Agent>
      <dc:title>Matplotlib v3.10.3, https://matplotlib.org/</dc:title>
     </cc:Agent>
    </dc:creator>
   </cc:Work>
  </rdf:RDF>
 </metadata>
 <defs>
  <style type="text/css">*{stroke-linejoin: round; stroke-linecap: butt}</style>
 </defs>
 <g id="figure_1">
  <g id="patch_1">
   <path d="M 0 369.807875 
L 1126.339125 369.807875 
L 1126.339125 0 
L 0 0 
z
" style="fill: #ffffff"/>
  </g>
  <g id="axes_1">
   <g id="patch_2">
    <path d="M 384.609563 311.6435 
L 741.729563 311.6435 
L 741.729563 45.5315 
L 384.609563 45.5315 
z
" style="fill: #ffffff"/>
   </g>
   <g id="matplotlib.axis_1">
    <g id="xtick_1">
     <g id="line2d_1">
      <path d="M 384.609563 311.6435 
L 384.609563 45.5315 
" clip-path="url(#p5bbbd39451)" style="fill: none; stroke: #b0b0b0; stroke-opacity: 0.3; stroke-width: 0.8; stroke-linecap: square"/>
     </g>
     <g id="line2d_2">
      <defs>
       <path id="m1b9bcb5217" d="M 0 0 
L 0 3.5 
" style="stroke: #000000; stroke-width: 0.8"/>
      </defs>
      <g>
       <use xlink:href="#m1b9bcb5217" x="384.609563" y="311.6435" style="stroke: #000000; stroke-width: 0.8"/>
      </g>
     </g>
     <g id="text_1">
      <!-- 0 -->
      <g transform="translate(379.109563 333.91975) scale(0.22 -0.22)">
       <defs>
        <path id="TimesNewRomanPSMT-30" d="M 231 2094 
Q 231 2819 450 3342 
Q 669 3866 1031 4122 
Q 1313 4325 1613 4325 
Q 2100 4325 2488 3828 
Q 2972 3213 2972 2159 
Q 2972 1422 2759 906 
Q 2547 391 2217 158 
Q 1888 -75 1581 -75 
Q 975 -75 572 641 
Q 231 1244 231 2094 
z
M 844 2016 
Q 844 1141 1059 588 
Q 1238 122 1591 122 
Q 1759 122 1940 273 
Q 2122 425 2216 781 
Q 2359 1319 2359 2297 
Q 2359 3022 2209 3506 
Q 2097 3866 1919 4016 
Q 1791 4119 1609 4119 
Q 1397 4119 1231 3928 
Q 1006 3669 925 3112 
Q 844 2556 844 2016 
z
" transform="scale(0.015625)"/>
       </defs>
       <use xlink:href="#TimesNewRomanPSMT-30"/>
      </g>
     </g>
    </g>
    <g id="xtick_2">
     <g id="line2d_3">
      <path d="M 483.809563 311.6435 
L 483.809563 45.5315 
" clip-path="url(#p5bbbd39451)" style="fill: none; stroke: #b0b0b0; stroke-opacity: 0.3; stroke-width: 0.8; stroke-linecap: square"/>
     </g>
     <g id="line2d_4">
      <g>
       <use xlink:href="#m1b9bcb5217" x="483.809563" y="311.6435" style="stroke: #000000; stroke-width: 0.8"/>
      </g>
     </g>
     <g id="text_2">
      <!-- 5000 -->
      <g transform="translate(461.809563 333.91975) scale(0.22 -0.22)">
       <defs>
        <path id="TimesNewRomanPSMT-35" d="M 2778 4238 
L 2534 3706 
L 1259 3706 
L 981 3138 
Q 1809 3016 2294 2522 
Q 2709 2097 2709 1522 
Q 2709 1188 2573 903 
Q 2438 619 2231 419 
Q 2025 219 1772 97 
Q 1413 -75 1034 -75 
Q 653 -75 479 54 
Q 306 184 306 341 
Q 306 428 378 495 
Q 450 563 559 563 
Q 641 563 702 538 
Q 763 513 909 409 
Q 1144 247 1384 247 
Q 1750 247 2026 523 
Q 2303 800 2303 1197 
Q 2303 1581 2056 1914 
Q 1809 2247 1375 2428 
Q 1034 2569 447 2591 
L 1259 4238 
L 2778 4238 
z
" transform="scale(0.015625)"/>
       </defs>
       <use xlink:href="#TimesNewRomanPSMT-35"/>
       <use xlink:href="#TimesNewRomanPSMT-30" transform="translate(50 0)"/>
       <use xlink:href="#TimesNewRomanPSMT-30" transform="translate(100 0)"/>
       <use xlink:href="#TimesNewRomanPSMT-30" transform="translate(150 0)"/>
      </g>
     </g>
    </g>
    <g id="xtick_3">
     <g id="line2d_5">
      <path d="M 583.009563 311.6435 
L 583.009563 45.5315 
" clip-path="url(#p5bbbd39451)" style="fill: none; stroke: #b0b0b0; stroke-opacity: 0.3; stroke-width: 0.8; stroke-linecap: square"/>
     </g>
     <g id="line2d_6">
      <g>
       <use xlink:href="#m1b9bcb5217" x="583.009563" y="311.6435" style="stroke: #000000; stroke-width: 0.8"/>
      </g>
     </g>
     <g id="text_3">
      <!-- 10000 -->
      <g transform="translate(555.509563 333.91975) scale(0.22 -0.22)">
       <defs>
        <path id="TimesNewRomanPSMT-31" d="M 750 3822 
L 1781 4325 
L 1884 4325 
L 1884 747 
Q 1884 391 1914 303 
Q 1944 216 2037 169 
Q 2131 122 2419 116 
L 2419 0 
L 825 0 
L 825 116 
Q 1125 122 1212 167 
Q 1300 213 1334 289 
Q 1369 366 1369 747 
L 1369 3034 
Q 1369 3497 1338 3628 
Q 1316 3728 1258 3775 
Q 1200 3822 1119 3822 
Q 1003 3822 797 3725 
L 750 3822 
z
" transform="scale(0.015625)"/>
       </defs>
       <use xlink:href="#TimesNewRomanPSMT-31"/>
       <use xlink:href="#TimesNewRomanPSMT-30" transform="translate(50 0)"/>
       <use xlink:href="#TimesNewRomanPSMT-30" transform="translate(100 0)"/>
       <use xlink:href="#TimesNewRomanPSMT-30" transform="translate(150 0)"/>
       <use xlink:href="#TimesNewRomanPSMT-30" transform="translate(200 0)"/>
      </g>
     </g>
    </g>
    <g id="xtick_4">
     <g id="line2d_7">
      <path d="M 682.209563 311.6435 
L 682.209563 45.5315 
" clip-path="url(#p5bbbd39451)" style="fill: none; stroke: #b0b0b0; stroke-opacity: 0.3; stroke-width: 0.8; stroke-linecap: square"/>
     </g>
     <g id="line2d_8">
      <g>
       <use xlink:href="#m1b9bcb5217" x="682.209563" y="311.6435" style="stroke: #000000; stroke-width: 0.8"/>
      </g>
     </g>
     <g id="text_4">
      <!-- 15000 -->
      <g transform="translate(654.709563 333.91975) scale(0.22 -0.22)">
       <use xlink:href="#TimesNewRomanPSMT-31"/>
       <use xlink:href="#TimesNewRomanPSMT-35" transform="translate(50 0)"/>
       <use xlink:href="#TimesNewRomanPSMT-30" transform="translate(100 0)"/>
       <use xlink:href="#TimesNewRomanPSMT-30" transform="translate(150 0)"/>
       <use xlink:href="#TimesNewRomanPSMT-30" transform="translate(200 0)"/>
      </g>
     </g>
    </g>
    <g id="text_5">
     <!-- Number of iterations -->
     <g transform="translate(471.527531 357.901937) scale(0.22 -0.22)">
      <defs>
       <path id="TimesNewRomanPSMT-4e" d="M -84 4238 
L 1066 4238 
L 3656 1059 
L 3656 3503 
Q 3656 3894 3569 3991 
Q 3453 4122 3203 4122 
L 3056 4122 
L 3056 4238 
L 4531 4238 
L 4531 4122 
L 4381 4122 
Q 4113 4122 4000 3959 
Q 3931 3859 3931 3503 
L 3931 -69 
L 3819 -69 
L 1025 3344 
L 1025 734 
Q 1025 344 1109 247 
Q 1228 116 1475 116 
L 1625 116 
L 1625 0 
L 150 0 
L 150 116 
L 297 116 
Q 569 116 681 278 
Q 750 378 750 734 
L 750 3681 
Q 566 3897 470 3965 
Q 375 4034 191 4094 
Q 100 4122 -84 4122 
L -84 4238 
z
" transform="scale(0.015625)"/>
       <path id="TimesNewRomanPSMT-75" d="M 2709 2863 
L 2709 1128 
Q 2709 631 2732 520 
Q 2756 409 2807 365 
Q 2859 322 2928 322 
Q 3025 322 3147 375 
L 3191 266 
L 2334 -88 
L 2194 -88 
L 2194 519 
Q 1825 119 1631 15 
Q 1438 -88 1222 -88 
Q 981 -88 804 51 
Q 628 191 559 409 
Q 491 628 491 1028 
L 491 2306 
Q 491 2509 447 2587 
Q 403 2666 317 2708 
Q 231 2750 6 2747 
L 6 2863 
L 1009 2863 
L 1009 947 
Q 1009 547 1148 422 
Q 1288 297 1484 297 
Q 1619 297 1789 381 
Q 1959 466 2194 703 
L 2194 2325 
Q 2194 2569 2105 2655 
Q 2016 2741 1734 2747 
L 1734 2863 
L 2709 2863 
z
" transform="scale(0.015625)"/>
       <path id="TimesNewRomanPSMT-6d" d="M 1050 2338 
Q 1363 2650 1419 2697 
Q 1559 2816 1721 2881 
Q 1884 2947 2044 2947 
Q 2313 2947 2506 2790 
Q 2700 2634 2766 2338 
Q 3088 2713 3309 2830 
Q 3531 2947 3766 2947 
Q 3994 2947 4170 2830 
Q 4347 2713 4450 2447 
Q 4519 2266 4519 1878 
L 4519 647 
Q 4519 378 4559 278 
Q 4591 209 4675 161 
Q 4759 113 4950 113 
L 4950 0 
L 3538 0 
L 3538 113 
L 3597 113 
Q 3781 113 3884 184 
Q 3956 234 3988 344 
Q 4000 397 4000 647 
L 4000 1878 
Q 4000 2228 3916 2372 
Q 3794 2572 3525 2572 
Q 3359 2572 3192 2489 
Q 3025 2406 2788 2181 
L 2781 2147 
L 2788 2013 
L 2788 647 
Q 2788 353 2820 281 
Q 2853 209 2943 161 
Q 3034 113 3253 113 
L 3253 0 
L 1806 0 
L 1806 113 
Q 2044 113 2133 169 
Q 2222 225 2256 338 
Q 2272 391 2272 647 
L 2272 1878 
Q 2272 2228 2169 2381 
Q 2031 2581 1784 2581 
Q 1616 2581 1450 2491 
Q 1191 2353 1050 2181 
L 1050 647 
Q 1050 366 1089 281 
Q 1128 197 1204 155 
Q 1281 113 1516 113 
L 1516 0 
L 100 0 
L 100 113 
Q 297 113 375 155 
Q 453 197 493 289 
Q 534 381 534 647 
L 534 1741 
Q 534 2213 506 2350 
Q 484 2453 437 2492 
Q 391 2531 309 2531 
Q 222 2531 100 2484 
L 53 2597 
L 916 2947 
L 1050 2947 
L 1050 2338 
z
" transform="scale(0.015625)"/>
       <path id="TimesNewRomanPSMT-62" d="M 984 2369 
Q 1400 2947 1881 2947 
Q 2322 2947 2650 2570 
Q 2978 2194 2978 1541 
Q 2978 778 2472 313 
Q 2038 -88 1503 -88 
Q 1253 -88 995 3 
Q 738 94 469 275 
L 469 3241 
Q 469 3728 445 3840 
Q 422 3953 372 3993 
Q 322 4034 247 4034 
Q 159 4034 28 3984 
L -16 4094 
L 844 4444 
L 984 4444 
L 984 2369 
z
M 984 2169 
L 984 456 
Q 1144 300 1314 220 
Q 1484 141 1663 141 
Q 1947 141 2192 453 
Q 2438 766 2438 1363 
Q 2438 1913 2192 2208 
Q 1947 2503 1634 2503 
Q 1469 2503 1303 2419 
Q 1178 2356 984 2169 
z
" transform="scale(0.015625)"/>
       <path id="TimesNewRomanPSMT-65" d="M 681 1784 
Q 678 1147 991 784 
Q 1303 422 1725 422 
Q 2006 422 2214 576 
Q 2422 731 2563 1106 
L 2659 1044 
Q 2594 616 2278 264 
Q 1963 -88 1488 -88 
Q 972 -88 605 314 
Q 238 716 238 1394 
Q 238 2128 614 2539 
Q 991 2950 1559 2950 
Q 2041 2950 2350 2633 
Q 2659 2316 2659 1784 
L 681 1784 
z
M 681 1966 
L 2006 1966 
Q 1991 2241 1941 2353 
Q 1863 2528 1708 2628 
Q 1553 2728 1384 2728 
Q 1125 2728 920 2526 
Q 716 2325 681 1966 
z
" transform="scale(0.015625)"/>
       <path id="TimesNewRomanPSMT-72" d="M 1038 2947 
L 1038 2303 
Q 1397 2947 1775 2947 
Q 1947 2947 2059 2842 
Q 2172 2738 2172 2600 
Q 2172 2478 2090 2393 
Q 2009 2309 1897 2309 
Q 1788 2309 1652 2417 
Q 1516 2525 1450 2525 
Q 1394 2525 1328 2463 
Q 1188 2334 1038 2041 
L 1038 669 
Q 1038 431 1097 309 
Q 1138 225 1241 169 
Q 1344 113 1538 113 
L 1538 0 
L 72 0 
L 72 113 
Q 291 113 397 181 
Q 475 231 506 341 
Q 522 394 522 644 
L 522 1753 
Q 522 2253 501 2348 
Q 481 2444 426 2487 
Q 372 2531 291 2531 
Q 194 2531 72 2484 
L 41 2597 
L 906 2947 
L 1038 2947 
z
" transform="scale(0.015625)"/>
       <path id="TimesNewRomanPSMT-20" transform="scale(0.015625)"/>
       <path id="TimesNewRomanPSMT-6f" d="M 1600 2947 
Q 2250 2947 2644 2453 
Q 2978 2031 2978 1484 
Q 2978 1100 2793 706 
Q 2609 313 2286 112 
Q 1963 -88 1566 -88 
Q 919 -88 538 428 
Q 216 863 216 1403 
Q 216 1797 411 2186 
Q 606 2575 925 2761 
Q 1244 2947 1600 2947 
z
M 1503 2744 
Q 1338 2744 1170 2645 
Q 1003 2547 900 2300 
Q 797 2053 797 1666 
Q 797 1041 1045 587 
Q 1294 134 1700 134 
Q 2003 134 2200 384 
Q 2397 634 2397 1244 
Q 2397 2006 2069 2444 
Q 1847 2744 1503 2744 
z
" transform="scale(0.015625)"/>
       <path id="TimesNewRomanPSMT-66" d="M 1319 2638 
L 1319 756 
Q 1319 356 1406 250 
Q 1522 113 1716 113 
L 1975 113 
L 1975 0 
L 266 0 
L 266 113 
L 394 113 
Q 519 113 622 175 
Q 725 238 764 344 
Q 803 450 803 756 
L 803 2638 
L 247 2638 
L 247 2863 
L 803 2863 
L 803 3050 
Q 803 3478 940 3775 
Q 1078 4072 1361 4255 
Q 1644 4438 1997 4438 
Q 2325 4438 2600 4225 
Q 2781 4084 2781 3909 
Q 2781 3816 2700 3733 
Q 2619 3650 2525 3650 
Q 2453 3650 2373 3701 
Q 2294 3753 2178 3923 
Q 2063 4094 1966 4153 
Q 1869 4213 1750 4213 
Q 1606 4213 1506 4136 
Q 1406 4059 1362 3898 
Q 1319 3738 1319 3069 
L 1319 2863 
L 2056 2863 
L 2056 2638 
L 1319 2638 
z
" transform="scale(0.015625)"/>
       <path id="TimesNewRomanPSMT-69" d="M 928 4444 
Q 1059 4444 1151 4351 
Q 1244 4259 1244 4128 
Q 1244 3997 1151 3903 
Q 1059 3809 928 3809 
Q 797 3809 703 3903 
Q 609 3997 609 4128 
Q 609 4259 701 4351 
Q 794 4444 928 4444 
z
M 1188 2947 
L 1188 647 
Q 1188 378 1227 289 
Q 1266 200 1342 156 
Q 1419 113 1622 113 
L 1622 0 
L 231 0 
L 231 113 
Q 441 113 512 153 
Q 584 194 626 287 
Q 669 381 669 647 
L 669 1750 
Q 669 2216 641 2353 
Q 619 2453 572 2492 
Q 525 2531 444 2531 
Q 356 2531 231 2484 
L 188 2597 
L 1050 2947 
L 1188 2947 
z
" transform="scale(0.015625)"/>
       <path id="TimesNewRomanPSMT-74" d="M 1031 3803 
L 1031 2863 
L 1700 2863 
L 1700 2644 
L 1031 2644 
L 1031 788 
Q 1031 509 1111 412 
Q 1191 316 1316 316 
Q 1419 316 1516 380 
Q 1613 444 1666 569 
L 1788 569 
Q 1678 263 1478 108 
Q 1278 -47 1066 -47 
Q 922 -47 784 33 
Q 647 113 581 261 
Q 516 409 516 719 
L 516 2644 
L 63 2644 
L 63 2747 
Q 234 2816 414 2980 
Q 594 3144 734 3369 
Q 806 3488 934 3803 
L 1031 3803 
z
" transform="scale(0.015625)"/>
       <path id="TimesNewRomanPSMT-61" d="M 1822 413 
Q 1381 72 1269 19 
Q 1100 -59 909 -59 
Q 613 -59 420 144 
Q 228 347 228 678 
Q 228 888 322 1041 
Q 450 1253 767 1440 
Q 1084 1628 1822 1897 
L 1822 2009 
Q 1822 2438 1686 2597 
Q 1550 2756 1291 2756 
Q 1094 2756 978 2650 
Q 859 2544 859 2406 
L 866 2225 
Q 866 2081 792 2003 
Q 719 1925 600 1925 
Q 484 1925 411 2006 
Q 338 2088 338 2228 
Q 338 2497 613 2722 
Q 888 2947 1384 2947 
Q 1766 2947 2009 2819 
Q 2194 2722 2281 2516 
Q 2338 2381 2338 1966 
L 2338 994 
Q 2338 584 2353 492 
Q 2369 400 2405 369 
Q 2441 338 2488 338 
Q 2538 338 2575 359 
Q 2641 400 2828 588 
L 2828 413 
Q 2478 -56 2159 -56 
Q 2006 -56 1915 50 
Q 1825 156 1822 413 
z
M 1822 616 
L 1822 1706 
Q 1350 1519 1213 1441 
Q 966 1303 859 1153 
Q 753 1003 753 825 
Q 753 600 887 451 
Q 1022 303 1197 303 
Q 1434 303 1822 616 
z
" transform="scale(0.015625)"/>
       <path id="TimesNewRomanPSMT-6e" d="M 1034 2341 
Q 1538 2947 1994 2947 
Q 2228 2947 2397 2830 
Q 2566 2713 2666 2444 
Q 2734 2256 2734 1869 
L 2734 647 
Q 2734 375 2778 278 
Q 2813 200 2889 156 
Q 2966 113 3172 113 
L 3172 0 
L 1756 0 
L 1756 113 
L 1816 113 
Q 2016 113 2095 173 
Q 2175 234 2206 353 
Q 2219 400 2219 647 
L 2219 1819 
Q 2219 2209 2117 2386 
Q 2016 2563 1775 2563 
Q 1403 2563 1034 2156 
L 1034 647 
Q 1034 356 1069 288 
Q 1113 197 1189 155 
Q 1266 113 1500 113 
L 1500 0 
L 84 0 
L 84 113 
L 147 113 
Q 366 113 442 223 
Q 519 334 519 647 
L 519 1709 
Q 519 2225 495 2337 
Q 472 2450 423 2490 
Q 375 2531 294 2531 
Q 206 2531 84 2484 
L 38 2597 
L 900 2947 
L 1034 2947 
L 1034 2341 
z
" transform="scale(0.015625)"/>
       <path id="TimesNewRomanPSMT-73" d="M 2050 2947 
L 2050 1972 
L 1947 1972 
Q 1828 2431 1642 2597 
Q 1456 2763 1169 2763 
Q 950 2763 815 2647 
Q 681 2531 681 2391 
Q 681 2216 781 2091 
Q 878 1963 1175 1819 
L 1631 1597 
Q 2266 1288 2266 781 
Q 2266 391 1970 151 
Q 1675 -88 1309 -88 
Q 1047 -88 709 6 
Q 606 38 541 38 
Q 469 38 428 -44 
L 325 -44 
L 325 978 
L 428 978 
Q 516 541 762 319 
Q 1009 97 1316 97 
Q 1531 97 1667 223 
Q 1803 350 1803 528 
Q 1803 744 1651 891 
Q 1500 1038 1047 1263 
Q 594 1488 453 1669 
Q 313 1847 313 2119 
Q 313 2472 555 2709 
Q 797 2947 1181 2947 
Q 1350 2947 1591 2875 
Q 1750 2828 1803 2828 
Q 1853 2828 1881 2850 
Q 1909 2872 1947 2947 
L 2050 2947 
z
" transform="scale(0.015625)"/>
      </defs>
      <use xlink:href="#TimesNewRomanPSMT-4e"/>
      <use xlink:href="#TimesNewRomanPSMT-75" transform="translate(72.216797 0)"/>
      <use xlink:href="#TimesNewRomanPSMT-6d" transform="translate(122.216797 0)"/>
      <use xlink:href="#TimesNewRomanPSMT-62" transform="translate(200 0)"/>
      <use xlink:href="#TimesNewRomanPSMT-65" transform="translate(250 0)"/>
      <use xlink:href="#TimesNewRomanPSMT-72" transform="translate(294.384766 0)"/>
      <use xlink:href="#TimesNewRomanPSMT-20" transform="translate(327.685547 0)"/>
      <use xlink:href="#TimesNewRomanPSMT-6f" transform="translate(352.685547 0)"/>
      <use xlink:href="#TimesNewRomanPSMT-66" transform="translate(402.685547 0)"/>
      <use xlink:href="#TimesNewRomanPSMT-20" transform="translate(435.986328 0)"/>
      <use xlink:href="#TimesNewRomanPSMT-69" transform="translate(460.986328 0)"/>
      <use xlink:href="#TimesNewRomanPSMT-74" transform="translate(488.769531 0)"/>
      <use xlink:href="#TimesNewRomanPSMT-65" transform="translate(516.552734 0)"/>
      <use xlink:href="#TimesNewRomanPSMT-72" transform="translate(560.9375 0)"/>
      <use xlink:href="#TimesNewRomanPSMT-61" transform="translate(594.238281 0)"/>
      <use xlink:href="#TimesNewRomanPSMT-74" transform="translate(638.623047 0)"/>
      <use xlink:href="#TimesNewRomanPSMT-69" transform="translate(666.40625 0)"/>
      <use xlink:href="#TimesNewRomanPSMT-6f" transform="translate(694.189453 0)"/>
      <use xlink:href="#TimesNewRomanPSMT-6e" transform="translate(744.189453 0)"/>
      <use xlink:href="#TimesNewRomanPSMT-73" transform="translate(794.189453 0)"/>
     </g>
    </g>
   </g>
   <g id="matplotlib.axis_2">
    <g id="ytick_1">
     <g id="line2d_9">
      <path d="M 384.609563 311.6435 
L 741.729563 311.6435 
" clip-path="url(#p5bbbd39451)" style="fill: none; stroke: #b0b0b0; stroke-opacity: 0.3; stroke-width: 0.8; stroke-linecap: square"/>
     </g>
     <g id="line2d_10">
      <defs>
       <path id="mfb7d476327" d="M 0 0 
L -3.5 0 
" style="stroke: #000000; stroke-width: 0.8"/>
      </defs>
      <g>
       <use xlink:href="#mfb7d476327" x="384.609563" y="311.6435" style="stroke: #000000; stroke-width: 0.8"/>
      </g>
     </g>
     <g id="text_6">
      <!-- 0.0 -->
      <g transform="translate(350.109563 319.281625) scale(0.22 -0.22)">
       <defs>
        <path id="TimesNewRomanPSMT-2e" d="M 800 606 
Q 947 606 1047 504 
Q 1147 403 1147 259 
Q 1147 116 1045 14 
Q 944 -88 800 -88 
Q 656 -88 554 14 
Q 453 116 453 259 
Q 453 406 554 506 
Q 656 606 800 606 
z
" transform="scale(0.015625)"/>
       </defs>
       <use xlink:href="#TimesNewRomanPSMT-30"/>
       <use xlink:href="#TimesNewRomanPSMT-2e" transform="translate(50 0)"/>
       <use xlink:href="#TimesNewRomanPSMT-30" transform="translate(75 0)"/>
      </g>
     </g>
    </g>
    <g id="ytick_2">
     <g id="line2d_11">
      <path d="M 384.609563 285.0323 
L 741.729563 285.0323 
" clip-path="url(#p5bbbd39451)" style="fill: none; stroke: #b0b0b0; stroke-opacity: 0.3; stroke-width: 0.8; stroke-linecap: square"/>
     </g>
     <g id="line2d_12">
      <g>
       <use xlink:href="#mfb7d476327" x="384.609563" y="285.0323" style="stroke: #000000; stroke-width: 0.8"/>
      </g>
     </g>
     <g id="text_7">
      <!-- 0.1 -->
      <g transform="translate(350.109563 292.670425) scale(0.22 -0.22)">
       <use xlink:href="#TimesNewRomanPSMT-30"/>
       <use xlink:href="#TimesNewRomanPSMT-2e" transform="translate(50 0)"/>
       <use xlink:href="#TimesNewRomanPSMT-31" transform="translate(75 0)"/>
      </g>
     </g>
    </g>
    <g id="ytick_3">
     <g id="line2d_13">
      <path d="M 384.609563 258.4211 
L 741.729563 258.4211 
" clip-path="url(#p5bbbd39451)" style="fill: none; stroke: #b0b0b0; stroke-opacity: 0.3; stroke-width: 0.8; stroke-linecap: square"/>
     </g>
     <g id="line2d_14">
      <g>
       <use xlink:href="#mfb7d476327" x="384.609563" y="258.4211" style="stroke: #000000; stroke-width: 0.8"/>
      </g>
     </g>
     <g id="text_8">
      <!-- 0.2 -->
      <g transform="translate(350.109563 266.059225) scale(0.22 -0.22)">
       <defs>
        <path id="TimesNewRomanPSMT-32" d="M 2934 816 
L 2638 0 
L 138 0 
L 138 116 
Q 1241 1122 1691 1759 
Q 2141 2397 2141 2925 
Q 2141 3328 1894 3587 
Q 1647 3847 1303 3847 
Q 991 3847 742 3664 
Q 494 3481 375 3128 
L 259 3128 
Q 338 3706 661 4015 
Q 984 4325 1469 4325 
Q 1984 4325 2329 3994 
Q 2675 3663 2675 3213 
Q 2675 2891 2525 2569 
Q 2294 2063 1775 1497 
Q 997 647 803 472 
L 1909 472 
Q 2247 472 2383 497 
Q 2519 522 2628 598 
Q 2738 675 2819 816 
L 2934 816 
z
" transform="scale(0.015625)"/>
       </defs>
       <use xlink:href="#TimesNewRomanPSMT-30"/>
       <use xlink:href="#TimesNewRomanPSMT-2e" transform="translate(50 0)"/>
       <use xlink:href="#TimesNewRomanPSMT-32" transform="translate(75 0)"/>
      </g>
     </g>
    </g>
    <g id="ytick_4">
     <g id="line2d_15">
      <path d="M 384.609563 231.8099 
L 741.729563 231.8099 
" clip-path="url(#p5bbbd39451)" style="fill: none; stroke: #b0b0b0; stroke-opacity: 0.3; stroke-width: 0.8; stroke-linecap: square"/>
     </g>
     <g id="line2d_16">
      <g>
       <use xlink:href="#mfb7d476327" x="384.609563" y="231.8099" style="stroke: #000000; stroke-width: 0.8"/>
      </g>
     </g>
     <g id="text_9">
      <!-- 0.3 -->
      <g transform="translate(350.109563 239.448025) scale(0.22 -0.22)">
       <defs>
        <path id="TimesNewRomanPSMT-33" d="M 325 3431 
Q 506 3859 782 4092 
Q 1059 4325 1472 4325 
Q 1981 4325 2253 3994 
Q 2459 3747 2459 3466 
Q 2459 3003 1878 2509 
Q 2269 2356 2469 2072 
Q 2669 1788 2669 1403 
Q 2669 853 2319 450 
Q 1863 -75 997 -75 
Q 569 -75 414 31 
Q 259 138 259 259 
Q 259 350 332 419 
Q 406 488 509 488 
Q 588 488 669 463 
Q 722 447 909 348 
Q 1097 250 1169 231 
Q 1284 197 1416 197 
Q 1734 197 1970 444 
Q 2206 691 2206 1028 
Q 2206 1275 2097 1509 
Q 2016 1684 1919 1775 
Q 1784 1900 1550 2001 
Q 1316 2103 1072 2103 
L 972 2103 
L 972 2197 
Q 1219 2228 1467 2375 
Q 1716 2522 1828 2728 
Q 1941 2934 1941 3181 
Q 1941 3503 1739 3701 
Q 1538 3900 1238 3900 
Q 753 3900 428 3381 
L 325 3431 
z
" transform="scale(0.015625)"/>
       </defs>
       <use xlink:href="#TimesNewRomanPSMT-30"/>
       <use xlink:href="#TimesNewRomanPSMT-2e" transform="translate(50 0)"/>
       <use xlink:href="#TimesNewRomanPSMT-33" transform="translate(75 0)"/>
      </g>
     </g>
    </g>
    <g id="ytick_5">
     <g id="line2d_17">
      <path d="M 384.609563 205.1987 
L 741.729563 205.1987 
" clip-path="url(#p5bbbd39451)" style="fill: none; stroke: #b0b0b0; stroke-opacity: 0.3; stroke-width: 0.8; stroke-linecap: square"/>
     </g>
     <g id="line2d_18">
      <g>
       <use xlink:href="#mfb7d476327" x="384.609563" y="205.1987" style="stroke: #000000; stroke-width: 0.8"/>
      </g>
     </g>
     <g id="text_10">
      <!-- 0.4 -->
      <g transform="translate(350.109563 212.836825) scale(0.22 -0.22)">
       <defs>
        <path id="TimesNewRomanPSMT-34" d="M 2978 1563 
L 2978 1119 
L 2409 1119 
L 2409 0 
L 1894 0 
L 1894 1119 
L 100 1119 
L 100 1519 
L 2066 4325 
L 2409 4325 
L 2409 1563 
L 2978 1563 
z
M 1894 1563 
L 1894 3666 
L 406 1563 
L 1894 1563 
z
" transform="scale(0.015625)"/>
       </defs>
       <use xlink:href="#TimesNewRomanPSMT-30"/>
       <use xlink:href="#TimesNewRomanPSMT-2e" transform="translate(50 0)"/>
       <use xlink:href="#TimesNewRomanPSMT-34" transform="translate(75 0)"/>
      </g>
     </g>
    </g>
    <g id="ytick_6">
     <g id="line2d_19">
      <path d="M 384.609563 178.5875 
L 741.729563 178.5875 
" clip-path="url(#p5bbbd39451)" style="fill: none; stroke: #b0b0b0; stroke-opacity: 0.3; stroke-width: 0.8; stroke-linecap: square"/>
     </g>
     <g id="line2d_20">
      <g>
       <use xlink:href="#mfb7d476327" x="384.609563" y="178.5875" style="stroke: #000000; stroke-width: 0.8"/>
      </g>
     </g>
     <g id="text_11">
      <!-- 0.5 -->
      <g transform="translate(350.109563 186.225625) scale(0.22 -0.22)">
       <use xlink:href="#TimesNewRomanPSMT-30"/>
       <use xlink:href="#TimesNewRomanPSMT-2e" transform="translate(50 0)"/>
       <use xlink:href="#TimesNewRomanPSMT-35" transform="translate(75 0)"/>
      </g>
     </g>
    </g>
    <g id="ytick_7">
     <g id="line2d_21">
      <path d="M 384.609563 151.9763 
L 741.729563 151.9763 
" clip-path="url(#p5bbbd39451)" style="fill: none; stroke: #b0b0b0; stroke-opacity: 0.3; stroke-width: 0.8; stroke-linecap: square"/>
     </g>
     <g id="line2d_22">
      <g>
       <use xlink:href="#mfb7d476327" x="384.609563" y="151.9763" style="stroke: #000000; stroke-width: 0.8"/>
      </g>
     </g>
     <g id="text_12">
      <!-- 0.6 -->
      <g transform="translate(350.109563 159.614425) scale(0.22 -0.22)">
       <defs>
        <path id="TimesNewRomanPSMT-36" d="M 2869 4325 
L 2869 4209 
Q 2456 4169 2195 4045 
Q 1934 3922 1679 3669 
Q 1425 3416 1258 3105 
Q 1091 2794 978 2366 
Q 1428 2675 1881 2675 
Q 2316 2675 2634 2325 
Q 2953 1975 2953 1425 
Q 2953 894 2631 456 
Q 2244 -75 1606 -75 
Q 1172 -75 869 213 
Q 275 772 275 1663 
Q 275 2231 503 2743 
Q 731 3256 1154 3653 
Q 1578 4050 1965 4187 
Q 2353 4325 2688 4325 
L 2869 4325 
z
M 925 2138 
Q 869 1716 869 1456 
Q 869 1156 980 804 
Q 1091 453 1309 247 
Q 1469 100 1697 100 
Q 1969 100 2183 356 
Q 2397 613 2397 1088 
Q 2397 1622 2184 2012 
Q 1972 2403 1581 2403 
Q 1463 2403 1327 2353 
Q 1191 2303 925 2138 
z
" transform="scale(0.015625)"/>
       </defs>
       <use xlink:href="#TimesNewRomanPSMT-30"/>
       <use xlink:href="#TimesNewRomanPSMT-2e" transform="translate(50 0)"/>
       <use xlink:href="#TimesNewRomanPSMT-36" transform="translate(75 0)"/>
      </g>
     </g>
    </g>
    <g id="ytick_8">
     <g id="line2d_23">
      <path d="M 384.609563 125.3651 
L 741.729563 125.3651 
" clip-path="url(#p5bbbd39451)" style="fill: none; stroke: #b0b0b0; stroke-opacity: 0.3; stroke-width: 0.8; stroke-linecap: square"/>
     </g>
     <g id="line2d_24">
      <g>
       <use xlink:href="#mfb7d476327" x="384.609563" y="125.3651" style="stroke: #000000; stroke-width: 0.8"/>
      </g>
     </g>
     <g id="text_13">
      <!-- 0.7 -->
      <g transform="translate(350.109563 133.003225) scale(0.22 -0.22)">
       <defs>
        <path id="TimesNewRomanPSMT-37" d="M 644 4238 
L 2916 4238 
L 2916 4119 
L 1503 -88 
L 1153 -88 
L 2419 3728 
L 1253 3728 
Q 900 3728 750 3644 
Q 488 3500 328 3200 
L 238 3234 
L 644 4238 
z
" transform="scale(0.015625)"/>
       </defs>
       <use xlink:href="#TimesNewRomanPSMT-30"/>
       <use xlink:href="#TimesNewRomanPSMT-2e" transform="translate(50 0)"/>
       <use xlink:href="#TimesNewRomanPSMT-37" transform="translate(75 0)"/>
      </g>
     </g>
    </g>
    <g id="ytick_9">
     <g id="line2d_25">
      <path d="M 384.609563 98.7539 
L 741.729563 98.7539 
" clip-path="url(#p5bbbd39451)" style="fill: none; stroke: #b0b0b0; stroke-opacity: 0.3; stroke-width: 0.8; stroke-linecap: square"/>
     </g>
     <g id="line2d_26">
      <g>
       <use xlink:href="#mfb7d476327" x="384.609563" y="98.7539" style="stroke: #000000; stroke-width: 0.8"/>
      </g>
     </g>
     <g id="text_14">
      <!-- 0.8 -->
      <g transform="translate(350.109563 106.392025) scale(0.22 -0.22)">
       <defs>
        <path id="TimesNewRomanPSMT-38" d="M 1228 2134 
Q 725 2547 579 2797 
Q 434 3047 434 3316 
Q 434 3728 753 4026 
Q 1072 4325 1600 4325 
Q 2113 4325 2425 4047 
Q 2738 3769 2738 3413 
Q 2738 3175 2569 2928 
Q 2400 2681 1866 2347 
Q 2416 1922 2594 1678 
Q 2831 1359 2831 1006 
Q 2831 559 2490 242 
Q 2150 -75 1597 -75 
Q 994 -75 656 303 
Q 388 606 388 966 
Q 388 1247 577 1523 
Q 766 1800 1228 2134 
z
M 1719 2469 
Q 2094 2806 2194 3001 
Q 2294 3197 2294 3444 
Q 2294 3772 2109 3958 
Q 1925 4144 1606 4144 
Q 1288 4144 1088 3959 
Q 888 3775 888 3528 
Q 888 3366 970 3203 
Q 1053 3041 1206 2894 
L 1719 2469 
z
M 1375 2016 
Q 1116 1797 991 1539 
Q 866 1281 866 981 
Q 866 578 1086 336 
Q 1306 94 1647 94 
Q 1984 94 2187 284 
Q 2391 475 2391 747 
Q 2391 972 2272 1150 
Q 2050 1481 1375 2016 
z
" transform="scale(0.015625)"/>
       </defs>
       <use xlink:href="#TimesNewRomanPSMT-30"/>
       <use xlink:href="#TimesNewRomanPSMT-2e" transform="translate(50 0)"/>
       <use xlink:href="#TimesNewRomanPSMT-38" transform="translate(75 0)"/>
      </g>
     </g>
    </g>
    <g id="ytick_10">
     <g id="line2d_27">
      <path d="M 384.609563 72.1427 
L 741.729563 72.1427 
" clip-path="url(#p5bbbd39451)" style="fill: none; stroke: #b0b0b0; stroke-opacity: 0.3; stroke-width: 0.8; stroke-linecap: square"/>
     </g>
     <g id="line2d_28">
      <g>
       <use xlink:href="#mfb7d476327" x="384.609563" y="72.1427" style="stroke: #000000; stroke-width: 0.8"/>
      </g>
     </g>
     <g id="text_15">
      <!-- 0.9 -->
      <g transform="translate(350.109563 79.780825) scale(0.22 -0.22)">
       <defs>
        <path id="TimesNewRomanPSMT-39" d="M 338 -88 
L 338 28 
Q 744 34 1094 217 
Q 1444 400 1770 856 
Q 2097 1313 2225 1859 
Q 1734 1544 1338 1544 
Q 891 1544 572 1889 
Q 253 2234 253 2806 
Q 253 3363 572 3797 
Q 956 4325 1575 4325 
Q 2097 4325 2469 3894 
Q 2925 3359 2925 2575 
Q 2925 1869 2578 1258 
Q 2231 647 1613 244 
Q 1109 -88 516 -88 
L 338 -88 
z
M 2275 2091 
Q 2331 2497 2331 2741 
Q 2331 3044 2228 3395 
Q 2125 3747 1936 3934 
Q 1747 4122 1506 4122 
Q 1228 4122 1018 3872 
Q 809 3622 809 3128 
Q 809 2469 1088 2097 
Q 1291 1828 1588 1828 
Q 1731 1828 1928 1897 
Q 2125 1966 2275 2091 
z
" transform="scale(0.015625)"/>
       </defs>
       <use xlink:href="#TimesNewRomanPSMT-30"/>
       <use xlink:href="#TimesNewRomanPSMT-2e" transform="translate(50 0)"/>
       <use xlink:href="#TimesNewRomanPSMT-39" transform="translate(75 0)"/>
      </g>
     </g>
    </g>
    <g id="ytick_11">
     <g id="line2d_29">
      <path d="M 384.609563 45.5315 
L 741.729563 45.5315 
" clip-path="url(#p5bbbd39451)" style="fill: none; stroke: #b0b0b0; stroke-opacity: 0.3; stroke-width: 0.8; stroke-linecap: square"/>
     </g>
     <g id="line2d_30">
      <g>
       <use xlink:href="#mfb7d476327" x="384.609563" y="45.5315" style="stroke: #000000; stroke-width: 0.8"/>
      </g>
     </g>
     <g id="text_16">
      <!-- 1.0 -->
      <g transform="translate(350.109563 53.169625) scale(0.22 -0.22)">
       <use xlink:href="#TimesNewRomanPSMT-31"/>
       <use xlink:href="#TimesNewRomanPSMT-2e" transform="translate(50 0)"/>
       <use xlink:href="#TimesNewRomanPSMT-30" transform="translate(75 0)"/>
      </g>
     </g>
    </g>
    <g id="text_17">
     <!-- Accuracy -->
     <g transform="translate(341.362375 220.726094) rotate(-90) scale(0.22 -0.22)">
      <defs>
       <path id="TimesNewRomanPSMT-41" d="M 2928 1419 
L 1288 1419 
L 1000 750 
Q 894 503 894 381 
Q 894 284 986 211 
Q 1078 138 1384 116 
L 1384 0 
L 50 0 
L 50 116 
Q 316 163 394 238 
Q 553 388 747 847 
L 2238 4334 
L 2347 4334 
L 3822 809 
Q 4000 384 4145 257 
Q 4291 131 4550 116 
L 4550 0 
L 2878 0 
L 2878 116 
Q 3131 128 3220 200 
Q 3309 272 3309 375 
Q 3309 513 3184 809 
L 2928 1419 
z
M 2841 1650 
L 2122 3363 
L 1384 1650 
L 2841 1650 
z
" transform="scale(0.015625)"/>
       <path id="TimesNewRomanPSMT-63" d="M 2631 1088 
Q 2516 522 2178 217 
Q 1841 -88 1431 -88 
Q 944 -88 581 321 
Q 219 731 219 1428 
Q 219 2103 620 2525 
Q 1022 2947 1584 2947 
Q 2006 2947 2278 2723 
Q 2550 2500 2550 2259 
Q 2550 2141 2473 2067 
Q 2397 1994 2259 1994 
Q 2075 1994 1981 2113 
Q 1928 2178 1911 2362 
Q 1894 2547 1784 2644 
Q 1675 2738 1481 2738 
Q 1169 2738 978 2506 
Q 725 2200 725 1697 
Q 725 1184 976 792 
Q 1228 400 1656 400 
Q 1963 400 2206 609 
Q 2378 753 2541 1131 
L 2631 1088 
z
" transform="scale(0.015625)"/>
       <path id="TimesNewRomanPSMT-79" d="M 38 2863 
L 1372 2863 
L 1372 2747 
L 1306 2747 
Q 1166 2747 1095 2686 
Q 1025 2625 1025 2534 
Q 1025 2413 1128 2197 
L 1825 753 
L 2466 2334 
Q 2519 2463 2519 2588 
Q 2519 2644 2497 2672 
Q 2472 2706 2419 2726 
Q 2366 2747 2231 2747 
L 2231 2863 
L 3163 2863 
L 3163 2747 
Q 3047 2734 2984 2696 
Q 2922 2659 2847 2556 
Q 2819 2513 2741 2316 
L 1575 -541 
Q 1406 -956 1132 -1168 
Q 859 -1381 606 -1381 
Q 422 -1381 303 -1275 
Q 184 -1169 184 -1031 
Q 184 -900 270 -820 
Q 356 -741 506 -741 
Q 609 -741 788 -809 
Q 913 -856 944 -856 
Q 1038 -856 1148 -759 
Q 1259 -663 1372 -384 
L 1575 113 
L 547 2272 
Q 500 2369 397 2513 
Q 319 2622 269 2659 
Q 197 2709 38 2747 
L 38 2863 
z
" transform="scale(0.015625)"/>
      </defs>
      <use xlink:href="#TimesNewRomanPSMT-41"/>
      <use xlink:href="#TimesNewRomanPSMT-63" transform="translate(72.216797 0)"/>
      <use xlink:href="#TimesNewRomanPSMT-63" transform="translate(116.601562 0)"/>
      <use xlink:href="#TimesNewRomanPSMT-75" transform="translate(160.986328 0)"/>
      <use xlink:href="#TimesNewRomanPSMT-72" transform="translate(210.986328 0)"/>
      <use xlink:href="#TimesNewRomanPSMT-61" transform="translate(244.287109 0)"/>
      <use xlink:href="#TimesNewRomanPSMT-63" transform="translate(288.671875 0)"/>
      <use xlink:href="#TimesNewRomanPSMT-79" transform="translate(333.056641 0)"/>
     </g>
    </g>
   </g>
   <g id="line2d_31">
    <path d="M 384.609563 178.5875 
L 384.808073 165.148835 
L 385.205093 159.959662 
L 385.403604 159.294383 
L 385.800624 156.367141 
L 386.197645 154.415651 
L 386.396155 153.011178 
L 386.594665 153.351217 
L 386.793176 152.597224 
L 387.190196 152.257201 
L 387.388706 151.473642 
L 387.587217 151.444077 
L 387.785727 150.379626 
L 387.984237 150.512689 
L 388.381258 149.596068 
L 388.579768 150.35006 
L 388.778278 150.202215 
L 388.976789 149.566502 
L 389.175299 150.276146 
L 389.57232 149.034285 
L 389.77083 149.83261 
L 389.96934 149.359525 
L 390.16785 150.083952 
L 390.366361 149.477804 
L 390.564871 150.35006 
L 390.763381 150.261347 
L 390.961892 149.551719 
L 391.160402 149.95089 
L 391.358912 149.699564 
L 391.557422 149.72913 
L 391.755933 149.95089 
L 391.954443 149.876975 
L 392.549974 148.66468 
L 392.748484 149.004719 
L 392.946994 148.989936 
L 393.145505 149.655215 
L 393.344015 149.862192 
L 393.741036 148.457703 
L 394.138056 150.010021 
L 394.336566 149.995238 
L 394.535077 148.975153 
L 394.733587 149.28561 
L 394.932097 150.823146 
L 395.130608 149.640432 
L 395.329118 149.50737 
L 395.527628 149.581285 
L 395.924649 148.975153 
L 396.321669 149.196913 
L 396.52018 149.522153 
L 396.71869 148.842091 
L 396.9172 149.004719 
L 397.11571 149.019502 
L 397.314221 148.901222 
L 397.512731 149.581285 
L 397.711241 148.88644 
L 397.909751 149.640432 
L 398.306772 149.28561 
L 398.505282 149.463021 
L 398.703793 148.635114 
L 398.902303 149.788262 
L 399.100813 148.753393 
L 399.299323 149.788262 
L 399.497834 149.196913 
L 399.894854 149.581285 
L 400.093365 148.916005 
L 400.490385 150.453541 
L 400.688895 150.202215 
L 400.887406 149.50737 
L 401.085916 150.246564 
L 401.284426 149.522153 
L 401.482937 149.477804 
L 401.681447 150.069169 
L 401.879957 149.18213 
L 402.078467 150.069169 
L 402.276978 149.463021 
L 402.475488 150.438758 
L 402.872509 149.063851 
L 403.269529 149.551719 
L 403.468039 150.601386 
L 403.66655 149.684781 
L 403.86506 149.995238 
L 404.06357 150.039587 
L 404.262081 149.773479 
L 404.460591 151.222317 
L 404.659101 149.640432 
L 404.857611 149.389091 
L 405.056122 150.246564 
L 405.254632 149.714347 
L 405.453142 149.536936 
L 405.651653 149.980456 
L 405.850163 149.477804 
L 406.048673 149.936107 
L 406.247183 150.941425 
L 406.445694 150.113518 
L 406.644204 149.83261 
L 406.842714 150.364843 
L 407.041225 149.40389 
L 407.239735 149.788262 
L 407.438245 149.743913 
L 407.636755 149.049068 
L 407.835266 149.315176 
L 408.033776 149.315176 
L 408.232286 149.936107 
L 408.430797 149.921324 
L 408.629307 150.128301 
L 408.827817 150.867495 
L 409.026327 149.921324 
L 409.224838 150.054386 
L 409.423348 149.921324 
L 409.621858 149.596068 
L 409.820369 149.655215 
L 410.018879 150.039587 
L 410.217389 149.684781 
L 410.415899 149.906541 
L 410.61441 149.596068 
L 410.81292 149.684781 
L 411.01143 149.596068 
L 411.20994 150.054386 
L 411.606961 149.374308 
L 411.805471 149.625649 
L 412.003982 151.2371 
L 412.202492 150.039587 
L 412.401002 149.773479 
L 412.599512 150.010021 
L 412.798023 150.024804 
L 412.996533 149.743913 
L 413.195043 149.876975 
L 413.393554 149.522153 
L 413.989084 149.891758 
L 414.386105 149.40389 
L 414.584615 149.448238 
L 414.783126 150.79358 
L 414.981636 149.847409 
L 415.180146 149.625649 
L 415.378656 149.610851 
L 415.577167 150.276146 
L 415.775677 149.714347 
L 415.974187 149.610851 
L 416.172698 150.527471 
L 416.569718 150.069169 
L 416.768228 149.300393 
L 416.966739 149.921324 
L 417.363759 150.172649 
L 417.76078 149.743913 
L 417.95929 150.364843 
L 418.1578 149.50737 
L 418.356311 150.128301 
L 418.554821 149.803045 
L 418.753331 149.83261 
L 418.951842 150.276146 
L 419.150352 150.039587 
L 419.348862 150.630952 
L 419.745883 149.448238 
L 419.944393 149.847409 
L 420.142903 149.773479 
L 420.341414 150.010021 
L 420.539924 149.847409 
L 420.738434 150.010021 
L 421.135455 149.610851 
L 421.333965 150.379626 
L 421.730986 149.344742 
L 421.929496 149.862192 
L 422.128006 149.936107 
L 422.326516 149.847409 
L 422.525027 149.492587 
L 422.723537 149.817827 
L 423.120557 149.640432 
L 423.319068 149.72913 
L 423.716088 150.57182 
L 424.113109 149.596068 
L 424.311619 149.684781 
L 424.510129 150.867495 
L 424.70864 149.72913 
L 424.90715 149.714347 
L 425.10566 150.024804 
L 425.304171 149.684781 
L 425.701191 149.743913 
L 425.899701 150.468324 
L 426.098212 150.734448 
L 426.296722 149.315176 
L 426.495232 150.246564 
L 426.693743 150.601386 
L 426.892253 149.921324 
L 427.090763 150.35006 
L 427.289273 150.069169 
L 427.487784 150.276146 
L 427.686294 149.714347 
L 427.884804 150.246564 
L 428.083315 149.965673 
L 428.281825 149.936107 
L 428.480335 150.35006 
L 428.678845 149.95089 
L 428.877356 150.276146 
L 429.274376 149.876975 
L 429.472887 150.35006 
L 429.671397 149.300393 
L 429.869907 150.394409 
L 430.068417 149.448238 
L 430.266928 150.216998 
L 430.465438 149.891758 
L 430.663948 150.157867 
L 430.862459 149.803045 
L 431.060969 150.216998 
L 431.6565 150.024804 
L 431.85501 150.453541 
L 432.252031 149.817827 
L 432.450541 150.172649 
L 432.649051 150.231781 
L 432.847561 149.669998 
L 433.046072 150.468324 
L 433.244582 149.699564 
L 433.443092 150.187432 
L 433.840113 149.758696 
L 434.038623 149.817827 
L 434.435644 150.335278 
L 434.634154 150.143084 
L 434.832664 150.35006 
L 435.031175 150.335278 
L 435.229685 150.024804 
L 435.428195 150.143084 
L 435.626705 150.098735 
L 435.825216 149.699564 
L 436.023726 149.803045 
L 436.222236 150.113518 
L 436.420746 151.148402 
L 436.619257 150.231781 
L 436.817767 150.305712 
L 437.016277 149.758696 
L 437.214788 150.098735 
L 437.413298 149.788262 
L 437.611808 150.497906 
L 437.810318 149.906541 
L 438.008829 150.468324 
L 438.207339 149.83261 
L 438.405849 150.098735 
L 438.60436 149.581285 
L 439.00138 150.675301 
L 439.596911 149.714347 
L 439.795421 150.113518 
L 439.993932 150.128301 
L 440.192442 149.758696 
L 440.390952 150.113518 
L 440.589462 150.216998 
L 440.787973 150.054386 
L 441.184993 150.187432 
L 441.383504 150.409192 
L 441.582014 149.463021 
L 441.979034 150.35006 
L 442.177545 150.010021 
L 442.376055 150.305712 
L 442.574565 150.276146 
L 442.773076 149.921324 
L 442.971586 150.216998 
L 443.170096 149.891758 
L 443.368606 150.157867 
L 443.567117 149.936107 
L 443.765627 150.083952 
L 443.964137 149.921324 
L 444.162648 150.335278 
L 444.361158 149.72913 
L 444.559668 149.847409 
L 444.758178 150.172649 
L 444.956689 149.788262 
L 445.155199 150.630952 
L 445.353709 150.083952 
L 445.55222 150.379626 
L 445.75073 149.936107 
L 445.94924 150.320495 
L 446.14775 150.172649 
L 446.544771 150.35006 
L 446.743281 150.497906 
L 446.941792 150.054386 
L 447.140302 150.172649 
L 447.338812 149.891758 
L 447.537322 150.394409 
L 447.735833 149.921324 
L 447.934343 150.364843 
L 448.132853 150.083952 
L 448.331364 150.143084 
L 448.529874 150.069169 
L 448.728384 150.852712 
L 448.926894 150.039587 
L 449.125405 150.320495 
L 449.323915 150.172649 
L 449.522425 150.542254 
L 449.720935 150.039587 
L 450.117956 150.453541 
L 450.316466 150.394409 
L 450.514977 150.512689 
L 450.911997 149.95089 
L 451.110507 149.906541 
L 451.309018 150.335278 
L 451.507528 150.438758 
L 451.706038 150.157867 
L 451.904549 150.305712 
L 452.103059 149.699564 
L 452.301569 150.423975 
L 452.500079 149.995238 
L 452.69859 150.216998 
L 452.8971 150.231781 
L 453.09561 150.024804 
L 453.492631 150.557037 
L 453.691141 150.128301 
L 454.088162 150.202215 
L 454.286672 149.758696 
L 454.485182 150.172649 
L 454.683693 150.172649 
L 454.882203 149.921324 
L 455.080713 149.921324 
L 455.279223 150.394409 
L 455.477734 150.246564 
L 455.676244 150.394409 
L 455.874754 149.817827 
L 456.271775 150.483107 
L 456.668795 150.143084 
L 457.065816 150.35006 
L 457.661347 150.202215 
L 458.058367 150.586603 
L 458.256878 150.157867 
L 458.455388 150.069169 
L 458.653898 150.35006 
L 458.852409 149.847409 
L 459.050919 150.202215 
L 459.249429 149.862192 
L 459.447939 150.409192 
L 459.64645 150.010021 
L 460.04347 149.921324 
L 460.241981 150.823146 
L 460.440491 150.202215 
L 460.639001 149.995238 
L 461.036022 150.409192 
L 461.234532 149.817827 
L 461.830063 150.586603 
L 462.028573 150.438758 
L 462.227083 150.453541 
L 462.425594 149.980456 
L 462.624104 150.246564 
L 462.822614 150.867495 
L 463.021124 150.290929 
L 463.418145 149.95089 
L 463.616655 150.453541 
L 464.410696 149.95089 
L 464.609207 150.35006 
L 464.807717 150.305712 
L 465.006227 150.57182 
L 465.403248 150.157867 
L 465.601758 150.379626 
L 465.800268 150.172649 
L 465.998779 150.143084 
L 466.395799 150.335278 
L 466.59431 149.891758 
L 466.79282 150.379626 
L 466.99133 150.35006 
L 467.18984 150.660518 
L 467.586861 150.083952 
L 467.983882 150.35006 
L 468.182392 150.157867 
L 468.380902 150.394409 
L 468.579412 150.320495 
L 468.777923 150.423975 
L 468.976433 150.172649 
L 469.174943 150.305712 
L 469.373454 149.980456 
L 469.770474 150.586603 
L 469.968984 149.921324 
L 470.167495 151.473642 
L 470.366005 149.477804 
L 470.763026 150.143084 
L 471.160046 150.276146 
L 471.358556 149.906541 
L 471.557067 150.468324 
L 471.755577 150.128301 
L 471.954087 150.187432 
L 472.152598 150.497906 
L 472.549618 150.128301 
L 472.748128 150.379626 
L 473.145149 150.098735 
L 473.343659 150.261347 
L 473.74068 150.024804 
L 473.93919 150.557037 
L 474.336211 150.202215 
L 474.534721 150.438758 
L 474.733231 150.069169 
L 475.527272 150.113518 
L 475.725783 149.906541 
L 475.924293 150.187432 
L 476.122803 150.216998 
L 476.321313 150.098735 
L 476.718334 150.246564 
L 476.916844 150.010021 
L 477.313865 149.95089 
L 477.512375 150.453541 
L 477.710885 149.83261 
L 477.909396 151.961511 
L 478.107906 150.143084 
L 478.306416 150.024804 
L 478.504927 150.320495 
L 478.703437 150.216998 
L 478.901947 149.906541 
L 479.100457 149.95089 
L 479.298968 149.847409 
L 479.497478 150.290929 
L 479.695988 150.143084 
L 479.894499 150.305712 
L 480.490029 150.054386 
L 480.68854 150.364843 
L 481.08556 150.246564 
L 481.284071 150.468324 
L 481.482581 150.438758 
L 481.681091 150.276146 
L 482.078112 150.423975 
L 482.276622 150.172649 
L 482.475132 150.497906 
L 482.673643 150.246564 
L 482.872153 150.187432 
L 483.070663 150.630952 
L 483.269173 150.557037 
L 483.467684 150.202215 
L 483.666194 150.586603 
L 483.864704 150.010021 
L 484.063215 150.305712 
L 484.658745 150.113518 
L 484.857256 150.216998 
L 485.055766 150.054386 
L 485.254276 149.743913 
L 485.452787 150.202215 
L 485.651297 150.305712 
L 485.849807 150.039587 
L 486.048317 150.143084 
L 486.246828 150.379626 
L 486.445338 150.054386 
L 486.643848 150.305712 
L 487.040869 150.157867 
L 487.239379 150.453541 
L 487.437889 149.980456 
L 487.6364 149.936107 
L 487.83491 150.113518 
L 488.03342 149.995238 
L 488.23193 150.305712 
L 488.430441 150.231781 
L 488.628951 150.35006 
L 488.827461 149.965673 
L 489.224482 149.847409 
L 489.422992 150.069169 
L 489.621502 149.684781 
L 489.820013 149.921324 
L 490.614054 149.995238 
L 490.812564 150.364843 
L 491.011074 150.335278 
L 491.209585 149.83261 
L 491.606605 149.936107 
L 492.003626 150.069169 
L 492.400646 150.098735 
L 492.599157 150.069169 
L 492.996177 149.655215 
L 493.194688 150.172649 
L 493.393198 149.95089 
L 493.591708 150.320495 
L 493.790218 150.113518 
L 494.187239 150.172649 
L 494.385749 149.906541 
L 494.58426 150.083952 
L 495.378301 150.083952 
L 495.576811 149.936107 
L 495.775321 150.069169 
L 495.973832 149.980456 
L 496.172342 150.143084 
L 496.370852 149.891758 
L 496.569362 150.246564 
L 496.966383 150.010021 
L 497.363404 150.113518 
L 497.561914 150.172649 
L 497.958934 149.891758 
L 498.157445 150.379626 
L 498.554465 150.098735 
L 498.951486 150.172649 
L 499.149996 150.320495 
L 499.348506 149.463021 
L 499.547017 163.226927 
L 500.142547 150.675301 
L 500.341058 150.675301 
L 500.539568 150.290929 
L 500.936589 150.128301 
L 501.135099 150.601386 
L 501.333609 149.83261 
L 501.532119 150.187432 
L 501.92914 149.758696 
L 502.326161 150.246564 
L 502.921691 150.276146 
L 503.120202 149.980456 
L 503.318712 150.069169 
L 503.715733 149.980456 
L 504.112753 150.143084 
L 504.509774 150.010021 
L 504.708284 150.054386 
L 504.906794 150.231781 
L 505.502325 150.113518 
L 505.700835 150.276146 
L 506.097856 150.128301 
L 506.494877 150.290929 
L 506.891897 150.305712 
L 507.090407 150.113518 
L 507.487428 150.231781 
L 508.082959 150.202215 
L 508.479979 150.364843 
L 508.67849 150.305712 
L 509.07551 150.394409 
L 509.274021 150.394409 
L 509.472531 150.231781 
L 509.671041 150.335278 
L 509.869551 150.202215 
L 510.663593 150.290929 
L 510.862103 150.483107 
L 511.060613 150.261347 
L 511.259123 150.246564 
L 511.457634 150.409192 
L 511.656144 150.290929 
L 512.251675 150.335278 
L 512.450185 150.172649 
L 512.648695 150.379626 
L 512.847206 150.202215 
L 513.244226 150.305712 
L 513.442736 150.128301 
L 513.641247 150.35006 
L 513.839757 150.379626 
L 514.038267 150.216998 
L 514.236778 150.364843 
L 514.633798 150.35006 
L 514.832308 150.231781 
L 515.030819 150.379626 
L 515.427839 150.305712 
L 515.82486 150.276146 
L 516.02337 150.172649 
L 516.22188 150.320495 
L 516.420391 150.128301 
L 516.618901 150.616169 
L 517.015922 150.305712 
L 517.214432 150.364843 
L 517.611452 150.231781 
L 518.008473 150.335278 
L 518.405494 150.261347 
L 518.802514 150.364843 
L 519.398045 150.216998 
L 519.596555 150.423975 
L 519.795066 150.394409 
L 519.993576 150.616169 
L 520.192086 150.394409 
L 520.390596 150.438758 
L 520.589107 150.231781 
L 520.986127 150.364843 
L 521.581658 150.231781 
L 522.57421 150.246564 
L 522.77272 150.379626 
L 522.97123 150.320495 
L 523.16974 150.409192 
L 523.368251 150.364843 
L 523.566761 150.128301 
L 523.765271 150.305712 
L 523.963782 150.202215 
L 524.162292 150.497906 
L 524.360802 150.261347 
L 524.757823 150.276146 
L 524.956333 150.024804 
L 525.353353 150.423975 
L 525.750374 150.305712 
L 526.941436 150.394409 
L 527.139946 150.143084 
L 527.338456 150.394409 
L 527.536967 150.172649 
L 527.735477 150.187432 
L 527.933987 150.497906 
L 528.132497 150.497906 
L 528.728028 150.157867 
L 529.125049 150.261347 
L 529.323559 150.394409 
L 530.514621 149.980456 
L 530.713131 150.010021 
L 530.911641 150.246564 
L 531.507172 150.054386 
L 531.705683 150.320495 
L 531.904193 150.35006 
L 532.102703 150.202215 
L 532.301213 150.246564 
L 532.698234 150.143084 
L 533.293765 150.246564 
L 533.492275 150.290929 
L 533.889296 150.113518 
L 534.087806 150.305712 
L 534.286316 150.172649 
L 534.484827 150.216998 
L 534.683337 150.379626 
L 534.881847 150.379626 
L 535.278868 150.098735 
L 535.477378 150.35006 
L 535.675888 150.143084 
L 536.072909 150.409192 
L 536.271419 150.216998 
L 536.66844 150.216998 
L 536.86695 150.335278 
L 537.06546 150.098735 
L 537.263971 150.231781 
L 537.660991 150.246564 
L 537.859501 150.320495 
L 538.058012 150.010021 
L 538.455032 150.453541 
L 538.653542 150.187432 
L 538.852053 150.364843 
L 539.050563 150.128301 
L 539.447584 150.423975 
L 539.844604 150.202215 
L 540.043114 150.438758 
L 540.440135 150.231781 
L 541.234176 149.995238 
L 541.829707 150.409192 
L 542.028217 150.246564 
L 542.623748 150.483107 
L 542.822258 150.069169 
L 543.219279 150.216998 
L 543.417789 150.083952 
L 544.01332 150.453541 
L 544.21183 150.172649 
L 544.608851 150.305712 
L 544.807361 150.187432 
L 545.005872 149.936107 
L 545.204382 149.965673 
L 545.402892 150.335278 
L 545.799913 150.335278 
L 545.998423 150.113518 
L 546.395444 150.409192 
L 546.593954 150.054386 
L 546.792464 150.483107 
L 547.189485 149.965673 
L 547.387995 149.995238 
L 547.586505 150.143084 
L 548.182036 150.054386 
L 548.380546 150.335278 
L 548.579057 150.083952 
L 548.777567 150.202215 
L 548.976077 150.172649 
L 549.174588 150.276146 
L 549.373098 149.906541 
L 549.770118 150.290929 
L 549.968629 150.35006 
L 550.167139 150.187432 
L 550.365649 150.276146 
L 550.564159 150.098735 
L 550.96118 150.335278 
L 551.358201 150.187432 
L 551.556711 150.290929 
L 551.755221 150.202215 
L 551.953731 150.394409 
L 552.350752 150.083952 
L 552.549262 150.246564 
L 552.946283 150.113518 
L 553.144793 150.305712 
L 553.343303 150.157867 
L 553.541814 150.364843 
L 553.938834 150.261347 
L 554.137345 150.335278 
L 554.335855 150.128301 
L 555.526917 150.202215 
L 555.725427 150.453541 
L 555.923937 150.187432 
L 556.122447 150.128301 
L 556.320958 150.276146 
L 556.519468 150.098735 
L 556.916489 150.276146 
L 557.313509 150.113518 
L 557.512019 150.305712 
L 557.71053 150.172649 
L 558.10755 150.335278 
L 558.306061 149.847409 
L 558.504571 150.379626 
L 558.901591 150.054386 
L 559.100102 150.305712 
L 559.497122 150.143084 
L 559.695633 150.246564 
L 559.894143 150.024804 
L 560.092653 150.276146 
L 560.291163 149.965673 
L 560.489674 150.261347 
L 560.688184 150.305712 
L 560.886694 149.980456 
L 561.283715 150.128301 
L 561.879246 150.083952 
L 562.077756 150.231781 
L 562.276266 150.024804 
L 562.871797 150.083952 
L 563.070307 150.320495 
L 563.467328 150.054386 
L 563.665838 150.143084 
L 564.062859 150.054386 
L 564.261369 150.305712 
L 565.05541 150.054386 
L 565.25392 150.172649 
L 565.452431 149.980456 
L 565.650941 150.216998 
L 565.849451 150.202215 
L 566.047962 150.394409 
L 566.246472 150.054386 
L 566.444982 150.216998 
L 566.842003 150.098735 
L 567.040513 150.083952 
L 567.239023 150.261347 
L 567.437534 149.906541 
L 567.636044 150.187432 
L 568.033064 150.320495 
L 568.231575 149.936107 
L 568.430085 150.128301 
L 568.628595 150.024804 
L 568.827106 150.364843 
L 569.025616 150.157867 
L 569.224126 150.35006 
L 569.621147 150.157867 
L 569.819657 150.394409 
L 570.018167 150.187432 
L 570.216678 150.261347 
L 570.415188 150.157867 
L 570.613698 150.187432 
L 570.812208 150.35006 
L 571.010719 150.202215 
L 571.80476 150.157867 
L 572.00327 150.379626 
L 572.20178 150.098735 
L 572.598801 150.261347 
L 572.797311 150.039587 
L 572.995822 150.409192 
L 573.194332 149.965673 
L 573.392842 150.187432 
L 573.789863 150.054386 
L 573.988373 150.157867 
L 574.186883 150.010021 
L 574.385394 150.305712 
L 574.583904 150.054386 
L 574.782414 150.305712 
L 574.980924 150.143084 
L 575.179435 150.216998 
L 575.576455 150.054386 
L 575.774966 150.379626 
L 575.973476 150.039587 
L 576.171986 150.157867 
L 576.370496 150.098735 
L 576.569007 150.246564 
L 576.767517 149.995238 
L 576.966027 150.187432 
L 577.164537 149.847409 
L 577.363048 150.305712 
L 577.561558 149.876975 
L 577.958579 150.143084 
L 578.355599 150.246564 
L 578.554109 150.010021 
L 578.95113 150.320495 
L 579.14964 150.069169 
L 579.745171 150.335278 
L 580.142192 150.083952 
L 580.340702 150.246564 
L 580.539212 150.128301 
L 580.936233 150.335278 
L 581.134743 150.113518 
L 582.325805 150.069169 
L 582.524315 150.290929 
L 582.722825 150.083952 
L 582.921336 150.187432 
L 583.516867 149.980456 
L 583.715377 150.216998 
L 584.310908 150.143084 
L 584.707928 150.246564 
L 584.906439 150.379626 
L 585.104949 150.246564 
L 585.303459 150.261347 
L 585.501969 149.921324 
L 585.89899 150.202215 
L 586.0975 150.143084 
L 586.296011 150.202215 
L 586.693031 150.143084 
L 587.090052 150.113518 
L 587.288562 150.335278 
L 587.884093 150.231781 
L 588.082603 149.965673 
L 588.479624 150.305712 
L 588.678134 150.128301 
L 588.876644 150.202215 
L 589.075154 150.098735 
L 589.273665 150.290929 
L 589.472175 150.290929 
L 589.670685 150.083952 
L 590.067706 150.128301 
L 590.464726 150.010021 
L 590.663237 150.231781 
L 591.060257 150.098735 
L 591.258768 150.069169 
L 591.457278 150.290929 
L 591.655788 150.054386 
L 592.052809 150.172649 
L 592.251319 149.965673 
L 592.449829 150.128301 
L 592.64834 150.024804 
L 592.84685 150.187432 
L 593.24387 149.965673 
L 593.442381 150.157867 
L 593.640891 149.906541 
L 593.839401 149.980456 
L 594.037912 150.276146 
L 594.434932 150.010021 
L 594.831953 150.098735 
L 595.228973 150.054386 
L 595.824504 150.172649 
L 596.023014 149.936107 
L 596.221525 150.216998 
L 596.618545 149.876975 
L 596.817056 150.438758 
L 597.015566 150.010021 
L 597.412586 150.512689 
L 597.611097 150.010021 
L 597.809607 149.83261 
L 598.008117 150.187432 
L 598.206628 150.172649 
L 598.405138 149.965673 
L 598.603648 150.276146 
L 598.802158 150.083952 
L 599.000669 150.261347 
L 599.199179 150.261347 
L 599.397689 150.039587 
L 599.5962 150.290929 
L 599.99322 150.054386 
L 600.19173 150.157867 
L 600.390241 150.010021 
L 600.588751 150.113518 
L 600.787261 150.364843 
L 600.985772 150.069169 
L 601.978323 150.290929 
L 602.176833 150.069169 
L 602.375343 150.290929 
L 602.573854 150.305712 
L 602.772364 150.069169 
L 603.169385 150.039587 
L 603.367895 150.364843 
L 603.566405 150.453541 
L 603.764915 150.143084 
L 603.963426 150.409192 
L 604.161936 150.143084 
L 604.558957 150.231781 
L 604.955977 150.202215 
L 605.154487 149.980456 
L 605.551508 150.157867 
L 605.948529 150.113518 
L 606.147039 150.216998 
L 606.345549 149.876975 
L 606.544059 149.906541 
L 606.74257 150.290929 
L 607.13959 149.965673 
L 607.338101 150.231781 
L 607.735121 149.995238 
L 608.132142 150.276146 
L 608.330652 149.95089 
L 608.529162 150.290929 
L 608.727673 150.305712 
L 608.926183 170.456302 
L 609.521714 150.690084 
L 609.720224 152.094573 
L 610.117245 151.2371 
L 610.315755 150.083952 
L 610.911286 150.024804 
L 611.308306 149.640432 
L 611.705327 149.876975 
L 612.300858 149.921324 
L 612.697878 149.684781 
L 612.896389 149.684781 
L 613.293409 150.039587 
L 613.88894 149.83261 
L 614.08745 149.921324 
L 614.28596 149.640432 
L 614.682981 149.965673 
L 614.881491 149.714347 
L 615.080002 149.847409 
L 615.675532 149.788262 
L 615.874043 149.95089 
L 616.271063 149.72913 
L 616.469574 149.921324 
L 616.668084 149.773479 
L 616.866594 149.862192 
L 617.263615 149.817827 
L 617.462125 149.95089 
L 618.057656 149.95089 
L 619.248718 149.995238 
L 619.844248 149.817827 
L 620.042759 150.054386 
L 620.439779 149.891758 
L 621.23382 149.921324 
L 622.027862 149.965673 
L 622.424882 149.862192 
L 622.821903 149.980456 
L 623.615944 149.936107 
L 623.814454 150.024804 
L 624.807006 149.906541 
L 626.395088 150.039587 
L 626.593598 149.906541 
L 626.990619 150.024804 
L 627.387639 150.069169 
L 627.586149 149.936107 
L 627.78466 150.098735 
L 627.98317 149.995238 
L 628.380191 150.039587 
L 629.174232 150.010021 
L 629.571252 150.172649 
L 629.968273 150.039587 
L 630.166783 150.187432 
L 630.365293 150.098735 
L 630.563804 150.143084 
L 630.762314 150.024804 
L 630.960824 150.157867 
L 631.357845 150.098735 
L 631.953376 150.128301 
L 632.350396 150.054386 
L 632.548907 150.113518 
L 632.945927 149.995238 
L 633.541458 150.216998 
L 633.938479 150.172649 
L 634.335499 150.098735 
L 634.93103 150.172649 
L 635.12954 150.024804 
L 635.725071 150.128301 
L 635.923581 150.039587 
L 636.320602 150.098735 
L 636.916133 150.128301 
L 637.313153 150.276146 
L 637.511664 150.083952 
L 638.702725 150.246564 
L 639.099746 150.083952 
L 639.695277 150.187432 
L 639.893787 150.083952 
L 640.290808 150.364843 
L 641.084849 150.216998 
L 641.481869 150.394409 
L 641.87889 150.276146 
L 642.0774 150.335278 
L 642.27591 150.202215 
L 642.474421 150.364843 
L 643.268462 150.261347 
L 643.665482 150.305712 
L 643.863993 150.187432 
L 644.658034 150.261347 
L 644.856544 150.172649 
L 645.055054 150.423975 
L 645.253565 150.305712 
L 645.650585 150.409192 
L 646.047606 150.335278 
L 646.246116 150.379626 
L 646.444626 150.202215 
L 646.841647 150.453541 
L 647.238668 150.335278 
L 647.437178 150.231781 
L 648.62824 150.305712 
L 648.82675 150.261347 
L 649.620791 150.468324 
L 650.216322 150.35006 
L 650.613342 150.364843 
L 650.811853 150.512689 
L 651.208873 150.423975 
L 651.605894 150.497906 
L 652.201425 150.35006 
L 652.399935 150.483107 
L 652.995466 150.335278 
L 653.392486 150.379626 
L 653.789507 150.453541 
L 653.988017 150.335278 
L 654.980569 150.542254 
L 655.179079 150.483107 
L 655.377589 150.305712 
L 655.576099 150.423975 
L 655.77461 150.379626 
L 655.97312 150.497906 
L 656.17163 150.379626 
L 656.568651 150.453541 
L 656.965671 150.276146 
L 657.164182 150.379626 
L 657.561202 150.35006 
L 658.553754 150.394409 
L 658.950774 150.290929 
L 659.546305 150.276146 
L 659.744815 150.468324 
L 660.141836 150.335278 
L 660.538857 150.335278 
L 660.737367 150.497906 
L 660.935877 150.305712 
L 661.332898 150.423975 
L 661.928429 150.335278 
L 662.523959 150.423975 
L 663.516511 150.364843 
L 664.112042 150.394409 
L 664.509062 150.35006 
L 664.707573 150.483107 
L 666.097144 150.379626 
L 668.082247 150.364843 
L 668.280758 150.172649 
L 668.479268 150.394409 
L 668.677778 150.276146 
L 669.074799 150.35006 
L 669.273309 150.202215 
L 669.471819 150.409192 
L 669.67033 150.276146 
L 669.86884 150.290929 
L 670.06735 150.453541 
L 670.662881 150.35006 
L 671.456922 150.379626 
L 671.655432 150.468324 
L 672.052453 150.394409 
L 672.449474 150.379626 
L 673.045004 150.305712 
L 673.243515 150.379626 
L 673.442025 150.290929 
L 674.037556 150.379626 
L 674.633087 150.35006 
L 674.831597 150.497906 
L 675.030107 150.261347 
L 675.427128 150.394409 
L 675.625638 150.379626 
L 675.824148 150.483107 
L 676.022659 150.394409 
L 676.221169 150.453541 
L 676.419679 150.290929 
L 677.01521 150.468324 
L 677.21372 150.335278 
L 677.412231 150.483107 
L 677.610741 150.335278 
L 678.007761 150.423975 
L 678.404782 150.35006 
L 678.603292 150.438758 
L 679.198823 150.335278 
L 679.595844 150.468324 
L 679.794354 150.364843 
L 679.992864 150.483107 
L 680.191375 150.335278 
L 680.985416 150.394409 
L 681.183926 150.335278 
L 681.382436 150.483107 
L 681.779457 150.409192 
L 682.176477 150.320495 
L 682.970519 150.394409 
L 683.169029 150.35006 
L 683.566049 150.527471 
L 683.76456 150.320495 
L 683.96307 150.453541 
L 684.16158 150.246564 
L 684.360091 150.246564 
L 684.558601 150.394409 
L 685.749663 150.276146 
L 686.146683 150.394409 
L 686.543704 150.379626 
L 687.734765 150.231781 
L 688.131786 150.468324 
L 688.528807 150.246564 
L 688.727317 150.187432 
L 688.925827 150.276146 
L 689.124337 150.187432 
L 689.521358 150.394409 
L 690.116889 150.261347 
L 690.513909 150.394409 
L 691.10944 150.231781 
L 691.506461 150.261347 
L 691.704971 150.216998 
L 691.903481 150.335278 
L 692.101992 150.320495 
L 692.300502 150.512689 
L 692.499012 150.290929 
L 692.697522 150.409192 
L 693.690074 150.216998 
L 693.888584 150.35006 
L 694.087094 150.276146 
L 694.484115 150.379626 
L 694.682625 150.320495 
L 694.881136 150.527471 
L 695.079646 150.453541 
L 695.278156 150.172649 
L 695.476666 150.187432 
L 695.675177 150.335278 
L 696.072197 150.320495 
L 696.667728 150.261347 
L 696.866238 150.35006 
L 697.263259 150.246564 
L 697.85879 150.379626 
L 698.25581 150.276146 
L 698.652831 150.453541 
L 698.851341 150.586603 
L 699.248362 150.379626 
L 699.446872 150.246564 
L 700.042403 150.379626 
L 700.240913 150.261347 
L 701.034954 150.394409 
L 701.828996 150.231781 
L 702.027506 150.379626 
L 702.424526 150.305712 
L 702.821547 150.231781 
L 703.218568 150.483107 
L 703.417078 150.231781 
L 703.615588 150.276146 
L 703.814098 150.453541 
L 704.012609 150.438758 
L 704.211119 150.305712 
L 704.80665 150.379626 
L 705.20367 150.423975 
L 705.402181 150.409192 
L 705.600691 150.231781 
L 705.997711 150.453541 
L 706.394732 150.290929 
L 706.593242 150.409192 
L 707.387283 150.202215 
L 707.982814 150.364843 
L 708.181325 150.512689 
L 708.379835 150.35006 
L 708.776855 150.468324 
L 709.173876 150.157867 
L 709.570897 150.335278 
L 709.967917 150.320495 
L 710.166427 150.35006 
L 710.364938 150.527471 
L 710.563448 150.335278 
L 710.761958 150.483107 
L 711.158979 150.320495 
L 711.357489 150.438758 
L 711.75451 150.246564 
L 711.95302 150.409192 
L 712.15153 150.305712 
L 712.548551 150.483107 
L 712.747061 150.276146 
L 712.945571 150.379626 
L 713.144082 150.35006 
L 713.342592 150.468324 
L 713.938123 150.128301 
L 714.136633 150.320495 
L 714.533654 150.276146 
L 714.732164 150.557037 
L 714.930674 150.305712 
L 716.121736 150.231781 
L 716.320246 150.409192 
L 716.915777 150.394409 
L 717.114287 150.246564 
L 717.312798 150.320495 
L 717.511308 150.216998 
L 717.709818 150.497906 
L 717.908328 150.187432 
L 718.503859 150.453541 
L 718.70237 150.305712 
L 719.09939 150.497906 
L 719.2979 150.305712 
L 719.893431 150.261347 
L 720.091942 150.527471 
L 720.290452 150.335278 
L 721.084493 150.202215 
L 721.481514 150.57182 
L 721.680024 150.542254 
L 721.878534 150.246564 
L 722.275555 150.394409 
L 722.474065 150.453541 
L 722.672575 150.379626 
L 722.871086 150.483107 
L 723.069596 150.157867 
L 723.268106 150.364843 
L 723.466616 150.187432 
L 723.863637 150.246564 
L 724.260658 150.438758 
L 724.856188 150.335278 
L 725.054699 150.364843 
L 725.451719 150.216998 
L 725.65023 150.453541 
L 725.84874 150.394409 
L 726.04725 150.468324 
L 726.444271 150.202215 
L 727.039802 150.409192 
L 727.238312 150.187432 
L 727.635332 150.453541 
L 728.826394 150.290929 
L 729.024904 150.527471 
L 729.223415 150.231781 
L 729.620435 150.246564 
L 729.818945 150.216998 
L 730.215966 150.423975 
L 731.208517 150.231781 
L 731.407028 150.379626 
L 731.605538 150.231781 
L 732.002559 150.438758 
L 732.399579 150.320495 
L 732.598089 150.468324 
L 732.99511 150.305712 
L 733.19362 150.527471 
L 733.789151 150.202215 
L 733.987661 150.394409 
L 734.186172 150.409192 
L 734.384682 150.261347 
L 734.583192 150.335278 
L 734.980213 150.202215 
L 735.178723 150.57182 
L 735.377233 150.216998 
L 735.575744 150.394409 
L 735.774254 150.305712 
L 736.171275 150.57182 
L 736.369785 150.35006 
L 736.568295 150.497906 
L 737.163826 150.335278 
L 737.362336 150.335278 
L 737.560847 150.483107 
L 737.957867 150.394409 
L 738.156377 150.202215 
L 738.553398 150.364843 
L 739.148929 150.394409 
L 739.347439 150.202215 
L 739.545949 150.187432 
L 739.74446 150.453541 
L 740.14148 150.335278 
L 740.538501 150.497906 
L 740.737011 150.305712 
L 740.935521 150.290929 
L 741.134032 150.409192 
L 741.332542 150.231781 
L 741.531052 150.290929 
L 741.729563 150.527471 
L 741.729563 150.527471 
" clip-path="url(#p5bbbd39451)" style="fill: none; stroke: #1f77b4; stroke-width: 1.5; stroke-linecap: square"/>
   </g>
   <g id="patch_3">
    <path d="M 384.609563 311.6435 
L 384.609563 45.5315 
" style="fill: none; stroke: #000000; stroke-width: 0.8; stroke-linejoin: miter; stroke-linecap: square"/>
   </g>
   <g id="patch_4">
    <path d="M 741.729563 311.6435 
L 741.729563 45.5315 
" style="fill: none; stroke: #000000; stroke-width: 0.8; stroke-linejoin: miter; stroke-linecap: square"/>
   </g>
   <g id="patch_5">
    <path d="M 384.609563 311.6435 
L 741.729563 311.6435 
" style="fill: none; stroke: #000000; stroke-width: 0.8; stroke-linejoin: miter; stroke-linecap: square"/>
   </g>
   <g id="patch_6">
    <path d="M 384.609563 45.5315 
L 741.729563 45.5315 
" style="fill: none; stroke: #000000; stroke-width: 0.8; stroke-linejoin: miter; stroke-linecap: square"/>
   </g>
   <g id="text_18">
    <!-- Accuracy of the 09_07_25_CINIC10_torch_model_(1024+8192-8192.3+1)_cat-dog on the validation set -->
    <g transform="translate(7.2 25.5315) scale(0.264 -0.264)">
     <defs>
      <path id="TimesNewRomanPSMT-68" d="M 1041 4444 
L 1041 2350 
Q 1388 2731 1591 2839 
Q 1794 2947 1997 2947 
Q 2241 2947 2416 2812 
Q 2591 2678 2675 2391 
Q 2734 2191 2734 1659 
L 2734 647 
Q 2734 375 2778 275 
Q 2809 200 2884 156 
Q 2959 113 3159 113 
L 3159 0 
L 1753 0 
L 1753 113 
L 1819 113 
Q 2019 113 2097 173 
Q 2175 234 2206 353 
Q 2216 403 2216 647 
L 2216 1659 
Q 2216 2128 2167 2275 
Q 2119 2422 2012 2495 
Q 1906 2569 1756 2569 
Q 1603 2569 1437 2487 
Q 1272 2406 1041 2159 
L 1041 647 
Q 1041 353 1073 281 
Q 1106 209 1195 161 
Q 1284 113 1503 113 
L 1503 0 
L 84 0 
L 84 113 
Q 275 113 384 172 
Q 447 203 484 290 
Q 522 378 522 647 
L 522 3238 
Q 522 3728 498 3840 
Q 475 3953 426 3993 
Q 378 4034 297 4034 
Q 231 4034 84 3984 
L 41 4094 
L 897 4444 
L 1041 4444 
z
" transform="scale(0.015625)"/>
      <path id="TimesNewRomanPSMT-5f" d="M 3256 -1381 
L -53 -1381 
L -53 -1119 
L 3256 -1119 
L 3256 -1381 
z
" transform="scale(0.015625)"/>
      <path id="TimesNewRomanPSMT-43" d="M 3853 4334 
L 3950 2894 
L 3853 2894 
Q 3659 3541 3300 3825 
Q 2941 4109 2438 4109 
Q 2016 4109 1675 3895 
Q 1334 3681 1139 3212 
Q 944 2744 944 2047 
Q 944 1472 1128 1050 
Q 1313 628 1683 403 
Q 2053 178 2528 178 
Q 2941 178 3256 354 
Q 3572 531 3950 1056 
L 4047 994 
Q 3728 428 3303 165 
Q 2878 -97 2294 -97 
Q 1241 -97 663 684 
Q 231 1266 231 2053 
Q 231 2688 515 3219 
Q 800 3750 1298 4042 
Q 1797 4334 2388 4334 
Q 2847 4334 3294 4109 
Q 3425 4041 3481 4041 
Q 3566 4041 3628 4100 
Q 3709 4184 3744 4334 
L 3853 4334 
z
" transform="scale(0.015625)"/>
      <path id="TimesNewRomanPSMT-49" d="M 1975 116 
L 1975 0 
L 159 0 
L 159 116 
L 309 116 
Q 572 116 691 269 
Q 766 369 766 750 
L 766 3488 
Q 766 3809 725 3913 
Q 694 3991 597 4047 
Q 459 4122 309 4122 
L 159 4122 
L 159 4238 
L 1975 4238 
L 1975 4122 
L 1822 4122 
Q 1563 4122 1444 3969 
Q 1366 3869 1366 3488 
L 1366 750 
Q 1366 428 1406 325 
Q 1438 247 1538 191 
Q 1672 116 1822 116 
L 1975 116 
z
" transform="scale(0.015625)"/>
      <path id="TimesNewRomanPSMT-64" d="M 2222 322 
Q 2013 103 1813 7 
Q 1613 -88 1381 -88 
Q 913 -88 563 304 
Q 213 697 213 1313 
Q 213 1928 600 2439 
Q 988 2950 1597 2950 
Q 1975 2950 2222 2709 
L 2222 3238 
Q 2222 3728 2198 3840 
Q 2175 3953 2125 3993 
Q 2075 4034 2000 4034 
Q 1919 4034 1784 3984 
L 1744 4094 
L 2597 4444 
L 2738 4444 
L 2738 1134 
Q 2738 631 2761 520 
Q 2784 409 2836 365 
Q 2888 322 2956 322 
Q 3041 322 3181 375 
L 3216 266 
L 2366 -88 
L 2222 -88 
L 2222 322 
z
M 2222 541 
L 2222 2016 
Q 2203 2228 2109 2403 
Q 2016 2578 1861 2667 
Q 1706 2756 1559 2756 
Q 1284 2756 1069 2509 
Q 784 2184 784 1559 
Q 784 928 1059 592 
Q 1334 256 1672 256 
Q 1956 256 2222 541 
z
" transform="scale(0.015625)"/>
      <path id="TimesNewRomanPSMT-6c" d="M 1184 4444 
L 1184 647 
Q 1184 378 1223 290 
Q 1263 203 1344 158 
Q 1425 113 1647 113 
L 1647 0 
L 244 0 
L 244 113 
Q 441 113 512 153 
Q 584 194 625 287 
Q 666 381 666 647 
L 666 3247 
Q 666 3731 644 3842 
Q 622 3953 573 3993 
Q 525 4034 450 4034 
Q 369 4034 244 3984 
L 191 4094 
L 1044 4444 
L 1184 4444 
z
" transform="scale(0.015625)"/>
      <path id="TimesNewRomanPSMT-28" d="M 1988 -1253 
L 1988 -1369 
Q 1516 -1131 1200 -813 
Q 750 -359 506 256 
Q 263 872 263 1534 
Q 263 2503 741 3301 
Q 1219 4100 1988 4444 
L 1988 4313 
Q 1603 4100 1356 3731 
Q 1109 3363 987 2797 
Q 866 2231 866 1616 
Q 866 947 969 400 
Q 1050 -31 1165 -292 
Q 1281 -553 1476 -793 
Q 1672 -1034 1988 -1253 
z
" transform="scale(0.015625)"/>
      <path id="TimesNewRomanPSMT-2b" d="M 1672 441 
L 1672 2000 
L 116 2000 
L 116 2256 
L 1672 2256 
L 1672 3809 
L 1922 3809 
L 1922 2256 
L 3484 2256 
L 3484 2000 
L 1922 2000 
L 1922 441 
L 1672 441 
z
" transform="scale(0.015625)"/>
      <path id="TimesNewRomanPSMT-2d" d="M 259 1672 
L 1875 1672 
L 1875 1200 
L 259 1200 
L 259 1672 
z
" transform="scale(0.015625)"/>
      <path id="TimesNewRomanPSMT-29" d="M 144 4313 
L 144 4444 
Q 619 4209 934 3891 
Q 1381 3434 1625 2820 
Q 1869 2206 1869 1541 
Q 1869 572 1392 -226 
Q 916 -1025 144 -1369 
L 144 -1253 
Q 528 -1038 776 -670 
Q 1025 -303 1145 264 
Q 1266 831 1266 1447 
Q 1266 2113 1163 2663 
Q 1084 3094 967 3353 
Q 850 3613 656 3853 
Q 463 4094 144 4313 
z
" transform="scale(0.015625)"/>
      <path id="TimesNewRomanPSMT-67" d="M 966 1044 
Q 703 1172 562 1401 
Q 422 1631 422 1909 
Q 422 2334 742 2640 
Q 1063 2947 1563 2947 
Q 1972 2947 2272 2747 
L 2878 2747 
Q 3013 2747 3034 2739 
Q 3056 2731 3066 2713 
Q 3084 2684 3084 2613 
Q 3084 2531 3069 2500 
Q 3059 2484 3036 2475 
Q 3013 2466 2878 2466 
L 2506 2466 
Q 2681 2241 2681 1891 
Q 2681 1491 2375 1206 
Q 2069 922 1553 922 
Q 1341 922 1119 984 
Q 981 866 932 777 
Q 884 688 884 625 
Q 884 572 936 522 
Q 988 472 1138 450 
Q 1225 438 1575 428 
Q 2219 413 2409 384 
Q 2700 344 2873 169 
Q 3047 -6 3047 -263 
Q 3047 -616 2716 -925 
Q 2228 -1381 1444 -1381 
Q 841 -1381 425 -1109 
Q 191 -953 191 -784 
Q 191 -709 225 -634 
Q 278 -519 444 -313 
Q 466 -284 763 25 
Q 600 122 533 198 
Q 466 275 466 372 
Q 466 481 555 628 
Q 644 775 966 1044 
z
M 1509 2797 
Q 1278 2797 1122 2612 
Q 966 2428 966 2047 
Q 966 1553 1178 1281 
Q 1341 1075 1591 1075 
Q 1828 1075 1981 1253 
Q 2134 1431 2134 1813 
Q 2134 2309 1919 2591 
Q 1759 2797 1509 2797 
z
M 934 0 
Q 788 -159 713 -296 
Q 638 -434 638 -550 
Q 638 -700 819 -813 
Q 1131 -1006 1722 -1006 
Q 2284 -1006 2551 -807 
Q 2819 -609 2819 -384 
Q 2819 -222 2659 -153 
Q 2497 -84 2016 -72 
Q 1313 -53 934 0 
z
" transform="scale(0.015625)"/>
      <path id="TimesNewRomanPSMT-76" d="M 53 2863 
L 1400 2863 
L 1400 2747 
L 1313 2747 
Q 1191 2747 1127 2687 
Q 1063 2628 1063 2528 
Q 1063 2419 1128 2269 
L 1794 688 
L 2463 2328 
Q 2534 2503 2534 2594 
Q 2534 2638 2509 2666 
Q 2475 2713 2422 2730 
Q 2369 2747 2206 2747 
L 2206 2863 
L 3141 2863 
L 3141 2747 
Q 2978 2734 2916 2681 
Q 2806 2588 2719 2369 
L 1703 -88 
L 1575 -88 
L 553 2328 
Q 484 2497 421 2570 
Q 359 2644 263 2694 
Q 209 2722 53 2747 
L 53 2863 
z
" transform="scale(0.015625)"/>
     </defs>
     <use xlink:href="#TimesNewRomanPSMT-41"/>
     <use xlink:href="#TimesNewRomanPSMT-63" transform="translate(72.216797 0)"/>
     <use xlink:href="#TimesNewRomanPSMT-63" transform="translate(116.601562 0)"/>
     <use xlink:href="#TimesNewRomanPSMT-75" transform="translate(160.986328 0)"/>
     <use xlink:href="#TimesNewRomanPSMT-72" transform="translate(210.986328 0)"/>
     <use xlink:href="#TimesNewRomanPSMT-61" transform="translate(244.287109 0)"/>
     <use xlink:href="#TimesNewRomanPSMT-63" transform="translate(288.671875 0)"/>
     <use xlink:href="#TimesNewRomanPSMT-79" transform="translate(333.056641 0)"/>
     <use xlink:href="#TimesNewRomanPSMT-20" transform="translate(383.056641 0)"/>
     <use xlink:href="#TimesNewRomanPSMT-6f" transform="translate(408.056641 0)"/>
     <use xlink:href="#TimesNewRomanPSMT-66" transform="translate(458.056641 0)"/>
     <use xlink:href="#TimesNewRomanPSMT-20" transform="translate(491.357422 0)"/>
     <use xlink:href="#TimesNewRomanPSMT-74" transform="translate(516.357422 0)"/>
     <use xlink:href="#TimesNewRomanPSMT-68" transform="translate(544.140625 0)"/>
     <use xlink:href="#TimesNewRomanPSMT-65" transform="translate(594.140625 0)"/>
     <use xlink:href="#TimesNewRomanPSMT-20" transform="translate(638.525391 0)"/>
     <use xlink:href="#TimesNewRomanPSMT-30" transform="translate(663.525391 0)"/>
     <use xlink:href="#TimesNewRomanPSMT-39" transform="translate(713.525391 0)"/>
     <use xlink:href="#TimesNewRomanPSMT-5f" transform="translate(763.525391 0)"/>
     <use xlink:href="#TimesNewRomanPSMT-30" transform="translate(813.525391 0)"/>
     <use xlink:href="#TimesNewRomanPSMT-37" transform="translate(863.525391 0)"/>
     <use xlink:href="#TimesNewRomanPSMT-5f" transform="translate(913.525391 0)"/>
     <use xlink:href="#TimesNewRomanPSMT-32" transform="translate(963.525391 0)"/>
     <use xlink:href="#TimesNewRomanPSMT-35" transform="translate(1013.525391 0)"/>
     <use xlink:href="#TimesNewRomanPSMT-5f" transform="translate(1063.525391 0)"/>
     <use xlink:href="#TimesNewRomanPSMT-43" transform="translate(1113.525391 0)"/>
     <use xlink:href="#TimesNewRomanPSMT-49" transform="translate(1180.224609 0)"/>
     <use xlink:href="#TimesNewRomanPSMT-4e" transform="translate(1213.525391 0)"/>
     <use xlink:href="#TimesNewRomanPSMT-49" transform="translate(1285.742188 0)"/>
     <use xlink:href="#TimesNewRomanPSMT-43" transform="translate(1319.042969 0)"/>
     <use xlink:href="#TimesNewRomanPSMT-31" transform="translate(1385.742188 0)"/>
     <use xlink:href="#TimesNewRomanPSMT-30" transform="translate(1435.742188 0)"/>
     <use xlink:href="#TimesNewRomanPSMT-5f" transform="translate(1485.742188 0)"/>
     <use xlink:href="#TimesNewRomanPSMT-74" transform="translate(1535.742188 0)"/>
     <use xlink:href="#TimesNewRomanPSMT-6f" transform="translate(1563.525391 0)"/>
     <use xlink:href="#TimesNewRomanPSMT-72" transform="translate(1613.525391 0)"/>
     <use xlink:href="#TimesNewRomanPSMT-63" transform="translate(1646.826172 0)"/>
     <use xlink:href="#TimesNewRomanPSMT-68" transform="translate(1691.210938 0)"/>
     <use xlink:href="#TimesNewRomanPSMT-5f" transform="translate(1741.210938 0)"/>
     <use xlink:href="#TimesNewRomanPSMT-6d" transform="translate(1791.210938 0)"/>
     <use xlink:href="#TimesNewRomanPSMT-6f" transform="translate(1868.994141 0)"/>
     <use xlink:href="#TimesNewRomanPSMT-64" transform="translate(1918.994141 0)"/>
     <use xlink:href="#TimesNewRomanPSMT-65" transform="translate(1968.994141 0)"/>
     <use xlink:href="#TimesNewRomanPSMT-6c" transform="translate(2013.378906 0)"/>
     <use xlink:href="#TimesNewRomanPSMT-5f" transform="translate(2041.162109 0)"/>
     <use xlink:href="#TimesNewRomanPSMT-28" transform="translate(2091.162109 0)"/>
     <use xlink:href="#TimesNewRomanPSMT-31" transform="translate(2124.462891 0)"/>
     <use xlink:href="#TimesNewRomanPSMT-30" transform="translate(2174.462891 0)"/>
     <use xlink:href="#TimesNewRomanPSMT-32" transform="translate(2224.462891 0)"/>
     <use xlink:href="#TimesNewRomanPSMT-34" transform="translate(2274.462891 0)"/>
     <use xlink:href="#TimesNewRomanPSMT-2b" transform="translate(2324.462891 0)"/>
     <use xlink:href="#TimesNewRomanPSMT-38" transform="translate(2380.859375 0)"/>
     <use xlink:href="#TimesNewRomanPSMT-31" transform="translate(2430.859375 0)"/>
     <use xlink:href="#TimesNewRomanPSMT-39" transform="translate(2480.859375 0)"/>
     <use xlink:href="#TimesNewRomanPSMT-32" transform="translate(2530.859375 0)"/>
     <use xlink:href="#TimesNewRomanPSMT-2d" transform="translate(2580.859375 0)"/>
     <use xlink:href="#TimesNewRomanPSMT-38" transform="translate(2614.160156 0)"/>
     <use xlink:href="#TimesNewRomanPSMT-31" transform="translate(2664.160156 0)"/>
     <use xlink:href="#TimesNewRomanPSMT-39" transform="translate(2714.160156 0)"/>
     <use xlink:href="#TimesNewRomanPSMT-32" transform="translate(2764.160156 0)"/>
     <use xlink:href="#TimesNewRomanPSMT-2e" transform="translate(2814.160156 0)"/>
     <use xlink:href="#TimesNewRomanPSMT-33" transform="translate(2839.160156 0)"/>
     <use xlink:href="#TimesNewRomanPSMT-2b" transform="translate(2889.160156 0)"/>
     <use xlink:href="#TimesNewRomanPSMT-31" transform="translate(2945.556641 0)"/>
     <use xlink:href="#TimesNewRomanPSMT-29" transform="translate(2995.556641 0)"/>
     <use xlink:href="#TimesNewRomanPSMT-5f" transform="translate(3028.857422 0)"/>
     <use xlink:href="#TimesNewRomanPSMT-63" transform="translate(3078.857422 0)"/>
     <use xlink:href="#TimesNewRomanPSMT-61" transform="translate(3123.242188 0)"/>
     <use xlink:href="#TimesNewRomanPSMT-74" transform="translate(3167.626953 0)"/>
     <use xlink:href="#TimesNewRomanPSMT-2d" transform="translate(3195.410156 0)"/>
     <use xlink:href="#TimesNewRomanPSMT-64" transform="translate(3228.710938 0)"/>
     <use xlink:href="#TimesNewRomanPSMT-6f" transform="translate(3278.710938 0)"/>
     <use xlink:href="#TimesNewRomanPSMT-67" transform="translate(3328.710938 0)"/>
     <use xlink:href="#TimesNewRomanPSMT-20" transform="translate(3378.710938 0)"/>
     <use xlink:href="#TimesNewRomanPSMT-6f" transform="translate(3403.710938 0)"/>
     <use xlink:href="#TimesNewRomanPSMT-6e" transform="translate(3453.710938 0)"/>
     <use xlink:href="#TimesNewRomanPSMT-20" transform="translate(3503.710938 0)"/>
     <use xlink:href="#TimesNewRomanPSMT-74" transform="translate(3528.710938 0)"/>
     <use xlink:href="#TimesNewRomanPSMT-68" transform="translate(3556.494141 0)"/>
     <use xlink:href="#TimesNewRomanPSMT-65" transform="translate(3606.494141 0)"/>
     <use xlink:href="#TimesNewRomanPSMT-20" transform="translate(3650.878906 0)"/>
     <use xlink:href="#TimesNewRomanPSMT-76" transform="translate(3675.878906 0)"/>
     <use xlink:href="#TimesNewRomanPSMT-61" transform="translate(3725.878906 0)"/>
     <use xlink:href="#TimesNewRomanPSMT-6c" transform="translate(3770.263672 0)"/>
     <use xlink:href="#TimesNewRomanPSMT-69" transform="translate(3798.046875 0)"/>
     <use xlink:href="#TimesNewRomanPSMT-64" transform="translate(3825.830078 0)"/>
     <use xlink:href="#TimesNewRomanPSMT-61" transform="translate(3875.830078 0)"/>
     <use xlink:href="#TimesNewRomanPSMT-74" transform="translate(3920.214844 0)"/>
     <use xlink:href="#TimesNewRomanPSMT-69" transform="translate(3947.998047 0)"/>
     <use xlink:href="#TimesNewRomanPSMT-6f" transform="translate(3975.78125 0)"/>
     <use xlink:href="#TimesNewRomanPSMT-6e" transform="translate(4025.78125 0)"/>
     <use xlink:href="#TimesNewRomanPSMT-20" transform="translate(4075.78125 0)"/>
     <use xlink:href="#TimesNewRomanPSMT-73" transform="translate(4100.78125 0)"/>
     <use xlink:href="#TimesNewRomanPSMT-65" transform="translate(4139.697266 0)"/>
     <use xlink:href="#TimesNewRomanPSMT-74" transform="translate(4184.082031 0)"/>
    </g>
   </g>
   <g id="legend_1">
    <g id="patch_7">
     <path d="M 489.15925 94.278687 
L 726.329563 94.278687 
Q 730.729563 94.278687 730.729563 89.878687 
L 730.729563 60.9315 
Q 730.729563 56.5315 726.329563 56.5315 
L 489.15925 56.5315 
Q 484.75925 56.5315 484.75925 60.9315 
L 484.75925 89.878687 
Q 484.75925 94.278687 489.15925 94.278687 
z
" style="fill: #ffffff; opacity: 0.8; stroke: #cccccc; stroke-linejoin: miter"/>
    </g>
    <g id="line2d_32">
     <path d="M 493.55925 73.0315 
L 515.55925 73.0315 
L 537.55925 73.0315 
" style="fill: none; stroke: #1f77b4; stroke-width: 1.5; stroke-linecap: square"/>
    </g>
    <g id="text_19">
     <!-- Best accuracy 0.61 -->
     <g transform="translate(555.15925 80.7315) scale(0.22 -0.22)">
      <defs>
       <path id="TimesNewRomanPSMT-42" d="M 2956 2163 
Q 3397 2069 3616 1863 
Q 3919 1575 3919 1159 
Q 3919 844 3719 555 
Q 3519 266 3170 133 
Q 2822 0 2106 0 
L 106 0 
L 106 116 
L 266 116 
Q 531 116 647 284 
Q 719 394 719 750 
L 719 3488 
Q 719 3881 628 3984 
Q 506 4122 266 4122 
L 106 4122 
L 106 4238 
L 1938 4238 
Q 2450 4238 2759 4163 
Q 3228 4050 3475 3764 
Q 3722 3478 3722 3106 
Q 3722 2788 3528 2536 
Q 3334 2284 2956 2163 
z
M 1319 2331 
Q 1434 2309 1582 2298 
Q 1731 2288 1909 2288 
Q 2366 2288 2595 2386 
Q 2825 2484 2947 2687 
Q 3069 2891 3069 3131 
Q 3069 3503 2766 3765 
Q 2463 4028 1881 4028 
Q 1569 4028 1319 3959 
L 1319 2331 
z
M 1319 306 
Q 1681 222 2034 222 
Q 2600 222 2897 476 
Q 3194 731 3194 1106 
Q 3194 1353 3059 1581 
Q 2925 1809 2622 1940 
Q 2319 2072 1872 2072 
Q 1678 2072 1540 2065 
Q 1403 2059 1319 2044 
L 1319 306 
z
" transform="scale(0.015625)"/>
      </defs>
      <use xlink:href="#TimesNewRomanPSMT-42"/>
      <use xlink:href="#TimesNewRomanPSMT-65" transform="translate(66.699219 0)"/>
      <use xlink:href="#TimesNewRomanPSMT-73" transform="translate(111.083984 0)"/>
      <use xlink:href="#TimesNewRomanPSMT-74" transform="translate(150 0)"/>
      <use xlink:href="#TimesNewRomanPSMT-20" transform="translate(177.783203 0)"/>
      <use xlink:href="#TimesNewRomanPSMT-61" transform="translate(202.783203 0)"/>
      <use xlink:href="#TimesNewRomanPSMT-63" transform="translate(247.167969 0)"/>
      <use xlink:href="#TimesNewRomanPSMT-63" transform="translate(291.552734 0)"/>
      <use xlink:href="#TimesNewRomanPSMT-75" transform="translate(335.9375 0)"/>
      <use xlink:href="#TimesNewRomanPSMT-72" transform="translate(385.9375 0)"/>
      <use xlink:href="#TimesNewRomanPSMT-61" transform="translate(419.238281 0)"/>
      <use xlink:href="#TimesNewRomanPSMT-63" transform="translate(463.623047 0)"/>
      <use xlink:href="#TimesNewRomanPSMT-79" transform="translate(508.007812 0)"/>
      <use xlink:href="#TimesNewRomanPSMT-20" transform="translate(558.007812 0)"/>
      <use xlink:href="#TimesNewRomanPSMT-30" transform="translate(583.007812 0)"/>
      <use xlink:href="#TimesNewRomanPSMT-2e" transform="translate(633.007812 0)"/>
      <use xlink:href="#TimesNewRomanPSMT-36" transform="translate(658.007812 0)"/>
      <use xlink:href="#TimesNewRomanPSMT-31" transform="translate(708.007812 0)"/>
     </g>
    </g>
   </g>
  </g>
 </g>
 <defs>
  <clipPath id="p5bbbd39451">
   <rect x="384.609563" y="45.5315" width="357.12" height="266.112"/>
  </clipPath>
 </defs>
</svg>
