<?xml version="1.0" encoding="utf-8" standalone="no"?>
<!DOCTYPE svg PUBLIC "-//W3C//DTD SVG 1.1//EN"
  "http://www.w3.org/Graphics/SVG/1.1/DTD/svg11.dtd">
<svg xmlns:xlink="http://www.w3.org/1999/xlink" width="814.365375pt" height="383.265687pt" viewBox="0 0 814.365375 383.265687" xmlns="http://www.w3.org/2000/svg" version="1.1">
 <metadata>
  <rdf:RDF xmlns:dc="http://purl.org/dc/elements/1.1/" xmlns:cc="http://creativecommons.org/ns#" xmlns:rdf="http://www.w3.org/1999/02/22-rdf-syntax-ns#">
   <cc:Work>
    <dc:type rdf:resource="http://purl.org/dc/dcmitype/StillImage"/>
    <dc:date>2025-05-09T14:10:12.087515</dc:date>
    <dc:format>image/svg+xml</dc:format>
    <dc:creator>
     <cc:Agent>
      <dc:title>Matplotlib v3.10.1, https://matplotlib.org/</dc:title>
     </cc:Agent>
    </dc:creator>
   </cc:Work>
  </rdf:RDF>
 </metadata>
 <defs>
  <style type="text/css">*{stroke-linejoin: round; stroke-linecap: butt}</style>
 </defs>
 <g id="figure_1">
  <g id="patch_1">
   <path d="M -0 383.265687 
L 814.365375 383.265687 
L 814.365375 0 
L -0 0 
z
" style="fill: #ffffff"/>
  </g>
  <g id="axes_1">
   <g id="patch_2">
    <path d="M 228.622687 311.6435 
L 585.742688 311.6435 
L 585.742688 45.5315 
L 228.622687 45.5315 
z
" style="fill: #ffffff"/>
   </g>
   <g id="matplotlib.axis_1">
    <g id="xtick_1">
     <g id="line2d_1">
      <path d="M 228.622687 311.6435 
L 228.622687 45.5315 
" clip-path="url(#p1d6e8498b9)" style="fill: none; stroke: #b0b0b0; stroke-opacity: 0.3; stroke-width: 0.8; stroke-linecap: square"/>
     </g>
     <g id="line2d_2">
      <defs>
       <path id="m4250155f0a" d="M 0 0 
L 0 3.5 
" style="stroke: #000000; stroke-width: 0.8"/>
      </defs>
      <g>
       <use xlink:href="#m4250155f0a" x="228.622687" y="311.6435" style="stroke: #000000; stroke-width: 0.8"/>
      </g>
     </g>
     <g id="text_1">
      <!-- 0.0 -->
      <g transform="translate(214.872687 333.91975) scale(0.22 -0.22)">
       <defs>
        <path id="TimesNewRomanPSMT-30" d="M 231 2094 
Q 231 2819 450 3342 
Q 669 3866 1031 4122 
Q 1313 4325 1613 4325 
Q 2100 4325 2488 3828 
Q 2972 3213 2972 2159 
Q 2972 1422 2759 906 
Q 2547 391 2217 158 
Q 1888 -75 1581 -75 
Q 975 -75 572 641 
Q 231 1244 231 2094 
z
M 844 2016 
Q 844 1141 1059 588 
Q 1238 122 1591 122 
Q 1759 122 1940 273 
Q 2122 425 2216 781 
Q 2359 1319 2359 2297 
Q 2359 3022 2209 3506 
Q 2097 3866 1919 4016 
Q 1791 4119 1609 4119 
Q 1397 4119 1231 3928 
Q 1006 3669 925 3112 
Q 844 2556 844 2016 
z
" transform="scale(0.015625)"/>
        <path id="TimesNewRomanPSMT-2e" d="M 800 606 
Q 947 606 1047 504 
Q 1147 403 1147 259 
Q 1147 116 1045 14 
Q 944 -88 800 -88 
Q 656 -88 554 14 
Q 453 116 453 259 
Q 453 406 554 506 
Q 656 606 800 606 
z
" transform="scale(0.015625)"/>
       </defs>
       <use xlink:href="#TimesNewRomanPSMT-30"/>
       <use xlink:href="#TimesNewRomanPSMT-2e" transform="translate(50 0)"/>
       <use xlink:href="#TimesNewRomanPSMT-30" transform="translate(75 0)"/>
      </g>
     </g>
    </g>
    <g id="xtick_2">
     <g id="line2d_3">
      <path d="M 364.590709 311.6435 
L 364.590709 45.5315 
" clip-path="url(#p1d6e8498b9)" style="fill: none; stroke: #b0b0b0; stroke-opacity: 0.3; stroke-width: 0.8; stroke-linecap: square"/>
     </g>
     <g id="line2d_4">
      <g>
       <use xlink:href="#m4250155f0a" x="364.590709" y="311.6435" style="stroke: #000000; stroke-width: 0.8"/>
      </g>
     </g>
     <g id="text_2">
      <!-- 0.5 -->
      <g transform="translate(350.840709 333.91975) scale(0.22 -0.22)">
       <defs>
        <path id="TimesNewRomanPSMT-35" d="M 2778 4238 
L 2534 3706 
L 1259 3706 
L 981 3138 
Q 1809 3016 2294 2522 
Q 2709 2097 2709 1522 
Q 2709 1188 2573 903 
Q 2438 619 2231 419 
Q 2025 219 1772 97 
Q 1413 -75 1034 -75 
Q 653 -75 479 54 
Q 306 184 306 341 
Q 306 428 378 495 
Q 450 563 559 563 
Q 641 563 702 538 
Q 763 513 909 409 
Q 1144 247 1384 247 
Q 1750 247 2026 523 
Q 2303 800 2303 1197 
Q 2303 1581 2056 1914 
Q 1809 2247 1375 2428 
Q 1034 2569 447 2591 
L 1259 4238 
L 2778 4238 
z
" transform="scale(0.015625)"/>
       </defs>
       <use xlink:href="#TimesNewRomanPSMT-30"/>
       <use xlink:href="#TimesNewRomanPSMT-2e" transform="translate(50 0)"/>
       <use xlink:href="#TimesNewRomanPSMT-35" transform="translate(75 0)"/>
      </g>
     </g>
    </g>
    <g id="xtick_3">
     <g id="line2d_5">
      <path d="M 500.55873 311.6435 
L 500.55873 45.5315 
" clip-path="url(#p1d6e8498b9)" style="fill: none; stroke: #b0b0b0; stroke-opacity: 0.3; stroke-width: 0.8; stroke-linecap: square"/>
     </g>
     <g id="line2d_6">
      <g>
       <use xlink:href="#m4250155f0a" x="500.55873" y="311.6435" style="stroke: #000000; stroke-width: 0.8"/>
      </g>
     </g>
     <g id="text_3">
      <!-- 1.0 -->
      <g transform="translate(486.80873 333.91975) scale(0.22 -0.22)">
       <defs>
        <path id="TimesNewRomanPSMT-31" d="M 750 3822 
L 1781 4325 
L 1884 4325 
L 1884 747 
Q 1884 391 1914 303 
Q 1944 216 2037 169 
Q 2131 122 2419 116 
L 2419 0 
L 825 0 
L 825 116 
Q 1125 122 1212 167 
Q 1300 213 1334 289 
Q 1369 366 1369 747 
L 1369 3034 
Q 1369 3497 1338 3628 
Q 1316 3728 1258 3775 
Q 1200 3822 1119 3822 
Q 1003 3822 797 3725 
L 750 3822 
z
" transform="scale(0.015625)"/>
       </defs>
       <use xlink:href="#TimesNewRomanPSMT-31"/>
       <use xlink:href="#TimesNewRomanPSMT-2e" transform="translate(50 0)"/>
       <use xlink:href="#TimesNewRomanPSMT-30" transform="translate(75 0)"/>
      </g>
     </g>
    </g>
    <g id="text_4">
     <!-- $\kappa  = \frac{ln(n)}{ln(d)}$ -->
     <g transform="translate(375.172688 364.185687) scale(0.22 -0.22)">
      <defs>
       <path id="STIXGeneral-Italic-3ba" d="M 979 1440 
L 998 1446 
Q 1850 2541 2464 2790 
Q 2547 2822 2630 2822 
Q 2797 2822 2886 2736 
Q 2976 2650 2976 2522 
Q 2976 2387 2893 2307 
Q 2810 2227 2682 2227 
Q 2605 2227 2502 2288 
Q 2400 2349 2336 2349 
Q 2170 2349 1990 2205 
Q 1811 2061 1414 1645 
L 2042 544 
Q 2202 262 2310 182 
Q 2419 102 2624 102 
L 2624 0 
Q 2374 -83 2182 -83 
Q 1786 -83 1555 326 
L 960 1350 
L 576 0 
L 90 0 
L 640 1978 
Q 730 2317 730 2406 
Q 730 2560 518 2560 
L 339 2560 
L 339 2650 
Q 678 2694 1306 2822 
L 1325 2803 
L 979 1440 
z
" transform="scale(0.015625)"/>
       <path id="STIXGeneral-Regular-3d" d="M 4077 2048 
L 307 2048 
L 307 2470 
L 4077 2470 
L 4077 2048 
z
M 4077 768 
L 307 768 
L 307 1190 
L 4077 1190 
L 4077 768 
z
" transform="scale(0.015625)"/>
       <path id="STIXGeneral-Italic-6c" d="M 1786 4339 
L 806 595 
Q 755 410 755 320 
Q 755 205 864 205 
Q 1037 205 1293 570 
L 1453 794 
L 1542 730 
Q 1254 275 1046 102 
Q 838 -70 576 -70 
Q 262 -70 262 288 
Q 262 397 288 480 
L 1165 3834 
Q 1184 3898 1184 3955 
Q 1184 4096 870 4096 
L 755 4096 
L 755 4198 
Q 1203 4250 1747 4371 
L 1786 4339 
z
" transform="scale(0.015625)"/>
       <path id="STIXGeneral-Italic-6e" d="M 2944 749 
L 3034 666 
Q 2707 218 2534 80 
Q 2362 -58 2138 -58 
Q 2010 -58 1923 28 
Q 1837 115 1837 288 
Q 1837 390 1939 768 
L 2221 1805 
Q 2310 2150 2310 2310 
Q 2310 2496 2157 2496 
Q 1971 2496 1750 2275 
Q 1530 2054 1210 1587 
Q 998 1274 899 1024 
Q 800 774 570 0 
L 90 0 
L 704 2240 
Q 717 2304 717 2349 
Q 717 2445 630 2480 
Q 544 2515 301 2522 
L 301 2624 
Q 550 2675 857 2729 
Q 1165 2784 1338 2822 
L 1363 2810 
L 934 1414 
Q 1408 2170 1753 2496 
Q 2099 2822 2413 2822 
Q 2611 2822 2720 2716 
Q 2829 2611 2829 2432 
Q 2829 2272 2765 2048 
L 2406 749 
Q 2317 429 2317 358 
Q 2317 243 2419 243 
Q 2541 243 2810 582 
Q 2854 634 2944 749 
z
" transform="scale(0.015625)"/>
       <path id="STIXGeneral-Regular-28" d="M 1946 -1030 
L 1869 -1133 
Q 1126 -710 716 32 
Q 307 774 307 1613 
Q 307 3386 1888 4326 
L 1946 4224 
Q 1293 3667 1075 3126 
Q 858 2586 858 1632 
Q 858 685 1082 96 
Q 1306 -493 1946 -1030 
z
" transform="scale(0.015625)"/>
       <path id="STIXGeneral-Regular-29" d="M 186 4224 
L 262 4326 
Q 992 3891 1408 3148 
Q 1824 2406 1824 1581 
Q 1824 -166 243 -1133 
L 186 -1030 
Q 845 -486 1059 54 
Q 1274 595 1274 1562 
Q 1274 2534 1059 3120 
Q 845 3706 186 4224 
z
" transform="scale(0.015625)"/>
       <path id="STIXGeneral-Italic-64" d="M 3334 4371 
L 3373 4333 
L 3123 3360 
L 2739 1958 
Q 2323 429 2323 384 
Q 2323 256 2438 256 
Q 2522 256 2614 336 
Q 2707 416 2963 710 
L 3040 646 
Q 2547 -83 2099 -83 
Q 1978 -83 1907 -6 
Q 1837 70 1837 205 
Q 1837 397 1920 774 
Q 1645 307 1379 118 
Q 1114 -70 781 -70 
Q 461 -70 278 125 
Q 96 320 96 678 
Q 96 1440 713 2131 
Q 1331 2822 1965 2822 
Q 2163 2822 2256 2732 
Q 2349 2643 2381 2451 
L 2387 2451 
L 2675 3494 
Q 2765 3808 2765 3949 
Q 2765 4051 2694 4076 
Q 2624 4102 2355 4115 
L 2355 4224 
Q 2848 4269 3334 4371 
z
M 2278 2310 
Q 2278 2477 2185 2576 
Q 2093 2675 1978 2675 
Q 1677 2675 1395 2381 
Q 1075 2042 864 1571 
Q 653 1101 653 704 
Q 653 486 752 361 
Q 851 237 1024 237 
Q 1312 237 1606 550 
Q 1901 864 2089 1350 
Q 2278 1837 2278 2310 
z
" transform="scale(0.015625)"/>
      </defs>
      <use xlink:href="#STIXGeneral-Italic-3ba" transform="translate(0 0.003125)"/>
      <use xlink:href="#STIXGeneral-Regular-3d" transform="translate(58.83999 0.003125)"/>
      <use xlink:href="#STIXGeneral-Italic-6c" transform="translate(141.779971 50.192188) scale(0.7)"/>
      <use xlink:href="#STIXGeneral-Italic-6e" transform="translate(161.239963 50.192188) scale(0.7)"/>
      <use xlink:href="#STIXGeneral-Regular-28" transform="translate(196.239952 50.192188) scale(0.7)"/>
      <use xlink:href="#STIXGeneral-Italic-6e" transform="translate(219.549944 50.192188) scale(0.7)"/>
      <use xlink:href="#STIXGeneral-Regular-29" transform="translate(254.549933 50.192188) scale(0.7)"/>
      <use xlink:href="#STIXGeneral-Italic-6c" transform="translate(141.779971 -41.257812) scale(0.7)"/>
      <use xlink:href="#STIXGeneral-Italic-6e" transform="translate(161.239963 -41.257812) scale(0.7)"/>
      <use xlink:href="#STIXGeneral-Regular-28" transform="translate(196.239952 -41.257812) scale(0.7)"/>
      <use xlink:href="#STIXGeneral-Italic-64" transform="translate(219.549944 -41.257812) scale(0.7)"/>
      <use xlink:href="#STIXGeneral-Regular-29" transform="translate(254.549933 -41.257812) scale(0.7)"/>
      <path d="M 141.779971 12.8 
L 141.779971 19.05 
L 277.859924 19.05 
L 277.859924 12.8 
L 141.779971 12.8 
z
"/>
     </g>
    </g>
   </g>
   <g id="matplotlib.axis_2">
    <g id="ytick_1">
     <g id="line2d_7">
      <path d="M 228.622687 311.6435 
L 585.742688 311.6435 
" clip-path="url(#p1d6e8498b9)" style="fill: none; stroke: #b0b0b0; stroke-opacity: 0.3; stroke-width: 0.8; stroke-linecap: square"/>
     </g>
     <g id="line2d_8">
      <defs>
       <path id="m59d84418bb" d="M 0 0 
L -3.5 0 
" style="stroke: #000000; stroke-width: 0.8"/>
      </defs>
      <g>
       <use xlink:href="#m59d84418bb" x="228.622687" y="311.6435" style="stroke: #000000; stroke-width: 0.8"/>
      </g>
     </g>
     <g id="text_5">
      <!-- 0.00 -->
      <g transform="translate(183.122687 319.281625) scale(0.22 -0.22)">
       <use xlink:href="#TimesNewRomanPSMT-30"/>
       <use xlink:href="#TimesNewRomanPSMT-2e" transform="translate(50 0)"/>
       <use xlink:href="#TimesNewRomanPSMT-30" transform="translate(75 0)"/>
       <use xlink:href="#TimesNewRomanPSMT-30" transform="translate(125 0)"/>
      </g>
     </g>
    </g>
    <g id="ytick_2">
     <g id="line2d_9">
      <path d="M 228.622687 226.880578 
L 585.742688 226.880578 
" clip-path="url(#p1d6e8498b9)" style="fill: none; stroke: #b0b0b0; stroke-opacity: 0.3; stroke-width: 0.8; stroke-linecap: square"/>
     </g>
     <g id="line2d_10">
      <g>
       <use xlink:href="#m59d84418bb" x="228.622687" y="226.880578" style="stroke: #000000; stroke-width: 0.8"/>
      </g>
     </g>
     <g id="text_6">
      <!-- 0.05 -->
      <g transform="translate(183.122687 234.518703) scale(0.22 -0.22)">
       <use xlink:href="#TimesNewRomanPSMT-30"/>
       <use xlink:href="#TimesNewRomanPSMT-2e" transform="translate(50 0)"/>
       <use xlink:href="#TimesNewRomanPSMT-30" transform="translate(75 0)"/>
       <use xlink:href="#TimesNewRomanPSMT-35" transform="translate(125 0)"/>
      </g>
     </g>
    </g>
    <g id="ytick_3">
     <g id="line2d_11">
      <path d="M 228.622687 142.117655 
L 585.742688 142.117655 
" clip-path="url(#p1d6e8498b9)" style="fill: none; stroke: #b0b0b0; stroke-opacity: 0.3; stroke-width: 0.8; stroke-linecap: square"/>
     </g>
     <g id="line2d_12">
      <g>
       <use xlink:href="#m59d84418bb" x="228.622687" y="142.117655" style="stroke: #000000; stroke-width: 0.8"/>
      </g>
     </g>
     <g id="text_7">
      <!-- 0.10 -->
      <g transform="translate(183.122687 149.75578) scale(0.22 -0.22)">
       <use xlink:href="#TimesNewRomanPSMT-30"/>
       <use xlink:href="#TimesNewRomanPSMT-2e" transform="translate(50 0)"/>
       <use xlink:href="#TimesNewRomanPSMT-31" transform="translate(75 0)"/>
       <use xlink:href="#TimesNewRomanPSMT-30" transform="translate(125 0)"/>
      </g>
     </g>
    </g>
    <g id="ytick_4">
     <g id="line2d_13">
      <path d="M 228.622687 57.354733 
L 585.742688 57.354733 
" clip-path="url(#p1d6e8498b9)" style="fill: none; stroke: #b0b0b0; stroke-opacity: 0.3; stroke-width: 0.8; stroke-linecap: square"/>
     </g>
     <g id="line2d_14">
      <g>
       <use xlink:href="#m59d84418bb" x="228.622687" y="57.354733" style="stroke: #000000; stroke-width: 0.8"/>
      </g>
     </g>
     <g id="text_8">
      <!-- 0.15 -->
      <g transform="translate(183.122687 64.992858) scale(0.22 -0.22)">
       <use xlink:href="#TimesNewRomanPSMT-30"/>
       <use xlink:href="#TimesNewRomanPSMT-2e" transform="translate(50 0)"/>
       <use xlink:href="#TimesNewRomanPSMT-31" transform="translate(75 0)"/>
       <use xlink:href="#TimesNewRomanPSMT-35" transform="translate(125 0)"/>
      </g>
     </g>
    </g>
    <g id="text_9">
     <!-- Loss -->
     <g transform="translate(174.41675 199.368906) rotate(-90) scale(0.22 -0.22)">
      <defs>
       <path id="TimesNewRomanPSMT-4c" d="M 3669 1172 
L 3772 1150 
L 3409 0 
L 128 0 
L 128 116 
L 288 116 
Q 556 116 672 291 
Q 738 391 738 753 
L 738 3488 
Q 738 3884 650 3984 
Q 528 4122 288 4122 
L 128 4122 
L 128 4238 
L 2047 4238 
L 2047 4122 
Q 1709 4125 1573 4059 
Q 1438 3994 1388 3894 
Q 1338 3794 1338 3416 
L 1338 753 
Q 1338 494 1388 397 
Q 1425 331 1503 300 
Q 1581 269 1991 269 
L 2300 269 
Q 2788 269 2984 341 
Q 3181 413 3343 595 
Q 3506 778 3669 1172 
z
" transform="scale(0.015625)"/>
       <path id="TimesNewRomanPSMT-6f" d="M 1600 2947 
Q 2250 2947 2644 2453 
Q 2978 2031 2978 1484 
Q 2978 1100 2793 706 
Q 2609 313 2286 112 
Q 1963 -88 1566 -88 
Q 919 -88 538 428 
Q 216 863 216 1403 
Q 216 1797 411 2186 
Q 606 2575 925 2761 
Q 1244 2947 1600 2947 
z
M 1503 2744 
Q 1338 2744 1170 2645 
Q 1003 2547 900 2300 
Q 797 2053 797 1666 
Q 797 1041 1045 587 
Q 1294 134 1700 134 
Q 2003 134 2200 384 
Q 2397 634 2397 1244 
Q 2397 2006 2069 2444 
Q 1847 2744 1503 2744 
z
" transform="scale(0.015625)"/>
       <path id="TimesNewRomanPSMT-73" d="M 2050 2947 
L 2050 1972 
L 1947 1972 
Q 1828 2431 1642 2597 
Q 1456 2763 1169 2763 
Q 950 2763 815 2647 
Q 681 2531 681 2391 
Q 681 2216 781 2091 
Q 878 1963 1175 1819 
L 1631 1597 
Q 2266 1288 2266 781 
Q 2266 391 1970 151 
Q 1675 -88 1309 -88 
Q 1047 -88 709 6 
Q 606 38 541 38 
Q 469 38 428 -44 
L 325 -44 
L 325 978 
L 428 978 
Q 516 541 762 319 
Q 1009 97 1316 97 
Q 1531 97 1667 223 
Q 1803 350 1803 528 
Q 1803 744 1651 891 
Q 1500 1038 1047 1263 
Q 594 1488 453 1669 
Q 313 1847 313 2119 
Q 313 2472 555 2709 
Q 797 2947 1181 2947 
Q 1350 2947 1591 2875 
Q 1750 2828 1803 2828 
Q 1853 2828 1881 2850 
Q 1909 2872 1947 2947 
L 2050 2947 
z
" transform="scale(0.015625)"/>
      </defs>
      <use xlink:href="#TimesNewRomanPSMT-4c"/>
      <use xlink:href="#TimesNewRomanPSMT-6f" transform="translate(61.083984 0)"/>
      <use xlink:href="#TimesNewRomanPSMT-73" transform="translate(111.083984 0)"/>
      <use xlink:href="#TimesNewRomanPSMT-73" transform="translate(150 0)"/>
     </g>
    </g>
   </g>
   <g id="line2d_15">
    <path d="M 228.622687 100.212282 
L 322.73287 130.02967 
L 348.1031 131.237666 
L 363.383216 87.412965 
L 382.91495 151.573142 
L 389.93951 160.090059 
L 395.895266 164.512027 
L 401.064917 168.783451 
L 405.631991 171.873403 
L 409.72241 168.440099 
L 413.426333 173.66822 
L 416.810535 180.360638 
L 419.925852 190.247931 
L 422.811886 175.096381 
L 425.500084 191.212522 
L 428.015839 178.701588 
L 430.379947 175.348944 
L 432.609655 193.241359 
L 434.719426 183.598002 
L 436.721507 194.615689 
L 438.62636 174.259751 
L 440.442993 189.687483 
L 442.179217 191.607293 
L 443.841849 195.814667 
L 445.436875 198.427849 
L 446.969579 190.021223 
L 449.866261 188.492055 
L 451.238157 198.29327 
L 452.563695 200.651262 
L 453.845908 196.995343 
L 455.087537 199.159266 
L 456.291073 193.719733 
L 457.458784 199.195301 
L 458.592741 191.695316 
L 459.694841 201.688467 
L 460.766826 203.497834 
L 461.810296 189.784929 
L 462.826731 197.056122 
L 463.817495 198.105704 
L 464.783853 197.39019 
L 465.72698 189.439253 
L 466.647965 189.574477 
L 467.547825 211.561702 
L 468.427507 203.662892 
L 469.287896 198.983902 
L 470.12982 204.770828 
L 470.954055 203.663182 
L 471.76133 194.628244 
L 472.552328 205.917268 
L 473.327692 210.780875 
L 474.088029 207.438732 
L 474.83391 211.297077 
L 475.565874 192.376652 
L 476.284432 206.007893 
L 477.68323 197.607677 
L 478.364361 215.092015 
L 479.033868 196.505817 
L 479.692141 206.889261 
L 480.339551 213.558931 
L 480.97645 203.723531 
L 481.603175 204.569899 
L 482.220045 205.834424 
L 482.827366 195.517632 
L 483.425428 219.837361 
L 484.014511 199.288995 
L 484.594878 212.425519 
L 485.166785 202.230928 
L 485.730475 217.674196 
L 486.28618 215.764882 
L 486.834124 187.572088 
L 487.37452 210.542477 
L 487.907574 216.573415 
L 488.433481 184.059438 
L 488.952432 219.430148 
L 489.464608 207.633112 
L 489.970184 212.597176 
L 490.469327 214.09504 
L 490.9622 206.80648 
L 491.448957 202.259499 
L 491.929749 220.674458 
L 492.40472 210.731767 
L 492.874009 208.884943 
L 493.337751 211.286303 
L 493.796076 206.305876 
L 494.249108 215.338339 
L 494.696968 196.533124 
L 495.139773 207.344975 
L 495.577636 207.554177 
L 496.010666 212.647099 
L 496.438969 213.280495 
L 496.862646 214.109047 
L 497.281796 213.560725 
L 497.696516 204.484415 
L 498.106897 216.422959 
L 498.513031 202.553402 
L 498.915003 213.482396 
L 499.312898 204.48833 
L 499.706798 186.415334 
L 500.096782 215.135282 
L 500.482928 198.174819 
L 500.865311 208.324047 
L 501.244002 206.202437 
L 501.619073 210.046673 
L 501.990592 206.911554 
L 502.358626 199.188442 
L 502.723239 202.061665 
L 503.084495 215.886017 
L 503.797178 188.004587 
L 504.148722 221.435916 
L 504.497145 206.549698 
L 504.8425 212.806188 
L 505.184842 213.790893 
L 505.524222 213.419508 
L 505.860692 208.109477 
L 506.1943 198.242848 
L 506.525096 207.874017 
L 506.853125 208.272021 
L 507.178435 205.060423 
L 507.501069 206.489545 
L 507.821072 220.039508 
L 508.138485 205.043461 
L 508.453351 214.223626 
L 508.765711 206.311377 
L 509.383066 214.763088 
L 509.990857 216.840219 
L 510.291257 216.240603 
L 510.589375 206.361969 
L 510.885244 211.964658 
L 511.178899 212.391764 
L 511.470372 207.553716 
L 511.759696 209.178543 
L 512.046901 216.744504 
L 512.33202 203.651107 
L 512.615081 196.001853 
L 512.896114 214.647707 
L 513.175149 209.887742 
L 513.452213 208.969158 
L 513.727334 219.513732 
L 514.000539 208.518509 
L 514.271855 209.472673 
L 514.541307 203.746822 
L 514.808922 211.811821 
L 515.074723 214.683249 
L 515.338735 225.256015 
L 515.600983 226.977694 
L 515.861489 216.757027 
L 516.120277 215.615026 
L 516.377369 218.883007 
L 516.632788 216.500523 
L 516.886554 217.725546 
L 517.138689 207.204118 
L 517.389214 220.30616 
L 517.63815 216.727787 
L 517.885515 200.298677 
L 518.131331 204.533245 
L 518.61839 220.403562 
L 518.859671 209.06769 
L 519.099477 220.18231 
L 519.337826 219.115114 
L 519.574735 204.671046 
L 519.810223 215.757796 
L 520.044305 213.088395 
L 520.276999 219.303848 
L 520.508321 208.64066 
L 520.738287 210.727175 
L 520.966913 219.170197 
L 521.194215 219.644623 
L 521.420207 212.652991 
L 521.644904 216.963216 
L 521.868322 216.944011 
L 522.311377 210.218002 
L 522.531042 211.636046 
L 522.749485 214.133399 
L 522.966717 223.219384 
L 523.397607 211.413222 
L 523.61129 208.21459 
L 523.823815 202.851599 
L 524.035195 212.275328 
L 524.245443 197.596247 
L 524.45457 220.494944 
L 524.662588 206.63853 
L 524.869509 205.828134 
L 525.075344 214.867644 
L 525.280105 206.020758 
L 525.483802 208.730495 
L 525.686448 206.638934 
L 525.888052 209.85715 
L 526.088626 222.764927 
L 526.486723 213.076655 
L 526.684266 201.413219 
L 526.88082 216.859499 
L 527.076394 200.211766 
L 527.464642 221.520497 
L 527.657334 209.782433 
L 528.039903 219.807634 
L 528.229797 211.929702 
L 528.418777 212.808196 
L 528.606851 206.745019 
L 528.794027 222.606203 
L 528.980315 206.642571 
L 529.350257 215.837281 
L 529.716744 201.848661 
L 529.898711 215.040236 
L 530.079838 196.712606 
L 530.260133 203.854372 
L 530.439603 228.253289 
L 530.796099 208.996244 
L 531.149385 210.579933 
L 531.324841 227.674483 
L 531.673419 197.114438 
L 531.846553 200.743264 
L 532.018926 219.074197 
L 532.190545 214.840274 
L 532.361417 206.641151 
L 532.531548 216.841861 
L 532.700944 216.771508 
L 532.869612 213.946869 
L 533.037558 206.045192 
L 533.204788 215.392284 
L 533.371308 206.265477 
L 533.537124 204.291242 
L 533.702243 215.72994 
L 534.030409 198.178495 
L 534.193469 229.927407 
L 534.678621 198.789377 
L 534.839014 206.030136 
L 534.998754 219.639602 
L 535.157846 210.326278 
L 535.316296 207.586758 
L 535.631288 218.675454 
L 535.787841 215.38811 
L 535.943771 206.792245 
L 536.099085 222.819744 
L 536.407879 202.267911 
L 536.561369 220.01911 
L 536.86656 196.451682 
L 537.169395 218.879281 
L 537.319941 204.879755 
L 537.469911 221.086078 
L 537.61931 207.73525 
L 537.768142 215.608654 
L 537.916411 212.967728 
L 538.21128 204.653009 
L 538.357887 220.658164 
L 538.503949 206.494887 
L 538.794451 220.432151 
L 539.082817 213.461132 
L 539.22621 214.356134 
L 539.36908 216.124793 
L 539.511431 200.745588 
L 539.653269 228.622427 
L 539.935414 209.357728 
L 540.075729 212.501972 
L 540.215544 207.610705 
L 540.354863 218.481308 
L 540.493688 195.91887 
L 540.632024 222.325733 
L 540.769874 203.823036 
L 541.04413 211.763407 
L 541.180542 214.112937 
L 541.316482 210.576087 
L 541.451952 223.043799 
L 541.586956 220.805235 
L 541.721496 221.049386 
L 541.855578 204.367556 
L 541.989202 213.603568 
L 542.122373 211.658263 
L 542.255093 202.286086 
L 542.387366 211.019581 
L 542.519194 209.347086 
L 542.650581 210.487275 
L 542.78153 210.25285 
L 542.912042 199.942783 
L 543.042122 213.382184 
L 543.171772 208.842788 
L 543.300996 216.613385 
L 543.429794 200.838095 
L 543.558172 210.86065 
L 543.68613 199.793817 
L 543.813673 218.863796 
L 543.940802 196.8667 
L 544.067521 215.898262 
L 544.193832 209.172145 
L 544.44524 217.438697 
L 544.570342 216.055899 
L 544.695047 216.376509 
L 544.943274 210.396909 
L 545.066801 209.561656 
L 545.18994 212.539688 
L 545.557055 197.296989 
L 545.678667 215.88944 
L 545.799904 208.951153 
L 545.920767 217.678819 
L 546.161381 212.977454 
L 546.281138 216.113994 
L 546.400529 209.199813 
L 546.519559 215.930136 
L 546.638228 215.281204 
L 546.75654 191.312456 
L 546.992098 213.292652 
L 547.109349 210.707503 
L 547.22625 216.655754 
L 547.342804 215.019951 
L 547.574879 194.106181 
L 547.805589 216.001025 
L 548.03495 199.861669 
L 548.376496 230.219561 
L 548.602553 210.670047 
L 548.827315 219.494343 
L 549.273013 204.005031 
L 549.493977 212.902794 
L 549.603994 206.121247 
L 549.713704 223.179357 
L 549.823107 218.209477 
L 549.932206 199.347248 
L 550.041003 217.103145 
L 550.257696 207.742986 
L 550.365595 225.439443 
L 550.580507 205.27757 
L 550.687523 215.342197 
L 550.900683 201.618771 
L 551.006831 213.319984 
L 551.112692 207.069109 
L 551.218268 216.826874 
L 551.323561 209.399775 
L 551.428572 216.710818 
L 551.637755 212.286771 
L 551.741929 228.185898 
L 551.845828 190.319736 
L 552.052803 215.909661 
L 552.258692 202.164302 
L 552.361233 215.453076 
L 552.667257 196.334355 
L 552.768737 199.091098 
L 552.970913 223.622024 
L 553.071611 186.784983 
L 553.272236 210.215615 
L 553.372165 215.324325 
L 553.47184 207.577916 
L 553.571262 220.312678 
L 553.769354 207.344849 
L 553.868027 223.516148 
L 554.06463 211.82202 
L 554.162563 212.965562 
L 554.3577 190.104661 
L 554.55187 210.336591 
L 554.648596 204.859659 
L 554.745085 216.811806 
L 554.841336 198.901865 
L 555.033134 214.182362 
L 555.128682 220.991727 
L 555.413938 189.8123 
L 555.508565 223.711841 
L 555.697135 198.84427 
L 555.791082 208.976806 
L 555.884804 207.266153 
L 556.25747 219.010217 
L 556.350086 217.801374 
L 556.534664 209.071782 
L 556.626629 214.362639 
L 556.718379 213.958104 
L 556.809914 207.762848 
L 556.901236 216.651302 
L 556.992347 210.889132 
L 557.083246 211.409136 
L 557.173935 189.763924 
L 557.354687 220.894181 
L 557.534609 203.921706 
L 557.713711 219.97919 
L 557.802956 216.751331 
L 557.980839 201.803431 
L 558.069479 213.607332 
L 558.157919 212.144209 
L 558.246161 216.820294 
L 558.334204 194.498653 
L 558.42205 211.588245 
L 558.5097 205.853484 
L 558.597155 207.838512 
L 558.684415 220.094306 
L 558.771481 213.089734 
L 558.858355 217.146399 
L 558.945036 207.163839 
L 559.031527 213.544463 
L 559.203938 200.392321 
L 559.28986 214.917845 
L 559.461142 200.749807 
L 559.63168 213.107316 
L 559.716671 199.284448 
L 559.801479 207.650561 
L 559.886104 195.475231 
L 560.054808 212.534837 
L 560.138889 203.603426 
L 560.22279 211.924922 
L 560.306512 200.806569 
L 560.390056 218.715884 
L 560.473422 208.453189 
L 560.556611 211.169514 
L 560.639624 212.309266 
L 560.722462 205.419084 
L 560.805126 206.775174 
L 560.887616 212.65181 
L 560.969932 199.044996 
L 561.052077 223.485992 
L 561.134049 210.467274 
L 561.215851 217.757135 
L 561.297482 210.59994 
L 561.541363 223.923379 
L 561.62232 220.725359 
L 561.703111 212.450382 
L 561.783736 215.885271 
L 561.864196 200.772024 
L 561.944491 216.772127 
L 562.024622 205.798237 
L 562.104589 223.526006 
L 562.264037 201.295969 
L 562.42284 202.753231 
L 562.502 198.040379 
L 562.738529 220.701948 
L 562.895426 196.977799 
L 563.051698 221.400638 
L 563.129602 216.728185 
L 563.207351 203.696085 
L 563.284946 221.122284 
L 563.362388 204.084768 
L 563.439677 209.284798 
L 563.516814 215.157783 
L 563.670636 201.06695 
L 563.823856 217.295655 
L 563.900243 216.756661 
L 563.976481 197.000736 
L 564.052571 213.428602 
L 564.128514 199.988772 
L 564.27996 215.109073 
L 564.355465 204.283044 
L 564.430824 210.388566 
L 564.506039 206.909754 
L 564.58111 212.891698 
L 564.805465 199.483646 
L 564.879966 213.159802 
L 564.954325 209.845498 
L 565.028544 217.359838 
L 565.102623 211.862785 
L 565.397547 223.498528 
L 565.544182 206.401995 
L 565.617294 206.288837 
L 565.69027 217.280795 
L 565.763111 214.745891 
L 565.980826 190.967929 
L 566.125301 214.39839 
L 566.197339 205.096433 
L 566.269245 215.620893 
L 566.34102 189.997212 
L 566.484177 218.993178 
L 566.55556 208.559558 
L 566.626813 210.343323 
L 566.768933 215.277086 
L 566.91054 203.878118 
L 566.981152 212.740894 
L 567.051637 201.914114 
L 567.121996 216.498269 
L 567.192229 211.741575 
L 567.262336 206.588241 
L 567.332318 216.502045 
L 567.402176 194.607605 
L 567.47191 199.493814 
L 567.68037 220.996281 
L 567.81873 203.415722 
L 567.887728 210.453286 
L 567.956605 206.552685 
L 568.02536 198.800024 
L 568.093996 201.673083 
L 568.162512 218.365213 
L 568.230908 211.458604 
L 568.299185 217.152524 
L 568.367344 202.183286 
L 568.435384 217.142035 
L 568.503307 206.005494 
L 568.571112 210.045019 
L 568.6388 212.480425 
L 568.773827 202.027549 
L 568.841167 207.321286 
L 568.908391 190.325155 
L 569.109376 221.830485 
L 569.176142 191.726413 
L 569.242796 218.695846 
L 569.309336 187.351923 
L 569.375763 220.182279 
L 569.442079 207.570786 
L 569.508282 192.67908 
L 569.574374 216.609899 
L 569.640354 207.353185 
L 569.706224 208.338459 
L 569.771984 216.358245 
L 569.903173 200.053592 
L 570.099138 218.517431 
L 570.164242 201.642719 
L 570.229239 205.801578 
L 570.294129 197.83196 
L 570.358911 220.600316 
L 570.423586 198.085281 
L 570.488155 217.981228 
L 570.552618 211.798868 
L 570.616975 205.928282 
L 570.681227 219.154276 
L 570.745373 211.226276 
L 570.873353 190.16304 
L 571.000916 211.605751 
L 571.064543 210.422208 
L 571.128066 208.696929 
L 571.191487 214.253529 
L 571.254806 210.345931 
L 571.318022 203.125305 
L 571.44415 216.740714 
L 571.507062 216.377709 
L 571.632585 204.336674 
L 571.695196 219.219614 
L 571.757707 204.920362 
L 571.820119 207.540049 
L 571.944646 196.489233 
L 572.006761 224.8728 
L 572.068778 209.979573 
L 572.130698 211.657562 
L 572.254244 197.38193 
L 572.377402 216.448062 
L 572.438837 215.348279 
L 572.500175 215.107602 
L 572.744575 193.584067 
L 572.805437 216.799289 
L 572.866206 206.259035 
L 572.92688 215.571267 
L 572.987461 212.883513 
L 573.047948 190.898599 
L 573.108343 202.845107 
L 573.228853 220.389598 
L 573.28897 200.842048 
L 573.348994 207.509458 
L 573.408927 205.660733 
L 573.468769 209.03432 
L 573.528519 200.781712 
L 573.588178 219.049814 
L 573.647747 208.590377 
L 573.707226 201.641872 
L 573.766615 226.626814 
L 573.825913 206.002683 
L 573.885123 215.055014 
L 573.944243 209.491518 
L 574.003274 196.744726 
L 574.12107 214.914176 
L 574.179836 211.702831 
L 574.238514 200.953741 
L 574.297105 220.747696 
L 574.355608 196.432066 
L 574.414023 215.857484 
L 574.472352 201.893462 
L 574.530595 202.027613 
L 574.588751 202.164718 
L 574.878245 213.867846 
L 574.935889 207.008299 
L 574.993447 207.930981 
L 575.108312 220.714263 
L 575.279982 194.759754 
L 575.337038 221.62638 
L 575.394012 213.196052 
L 575.450903 187.353527 
L 575.507712 206.387634 
L 575.564438 208.081961 
L 575.621083 187.53796 
L 575.677646 202.193744 
L 575.846847 221.816749 
L 575.903086 218.916851 
L 575.959244 205.766414 
L 576.015322 207.338881 
L 576.07132 205.996374 
L 576.127238 198.887277 
L 576.294515 216.853443 
L 576.350116 193.750325 
L 576.405639 204.540204 
L 576.461082 219.253218 
L 576.516448 210.354103 
L 576.571736 201.318742 
L 576.626945 205.634588 
L 576.682078 210.880202 
L 576.737133 203.692384 
L 576.79211 206.302554 
L 576.847011 207.166927 
L 576.956583 219.145996 
L 577.120368 197.464484 
L 577.174812 215.219629 
L 577.22918 199.766636 
L 577.337691 217.917311 
L 577.391834 213.323382 
L 577.445903 197.291469 
L 577.499897 209.854371 
L 577.661434 203.384095 
L 577.715133 217.547409 
L 577.768758 197.83268 
L 577.82231 210.82337 
L 577.875789 208.847739 
L 578.035789 224.311797 
L 578.19514 186.140466 
L 578.248113 205.765909 
L 578.301015 204.009388 
L 578.353846 202.724004 
L 578.406606 210.85117 
L 578.459294 210.7507 
L 578.511913 209.925286 
L 578.56446 204.098397 
L 578.616938 219.966054 
L 578.669345 197.335461 
L 578.721682 208.304987 
L 578.77395 212.309727 
L 578.878277 199.113189 
L 578.982327 214.286085 
L 579.034249 193.248597 
L 579.086102 207.831919 
L 579.137887 215.614931 
L 579.189603 190.490086 
L 579.241251 212.235143 
L 579.292832 215.299512 
L 579.344344 207.841891 
L 579.39579 211.466063 
L 579.447167 210.022309 
L 579.652008 191.584293 
L 579.703052 212.74558 
L 579.80494 209.137013 
L 579.855785 202.87638 
L 579.906565 214.780613 
L 580.007927 213.561849 
L 580.109027 197.188668 
L 580.15948 207.130418 
L 580.31045 218.082349 
L 580.360645 214.158338 
L 580.410775 204.300045 
L 580.460842 205.219873 
L 580.510844 207.044517 
L 580.560783 214.685112 
L 580.610659 181.08968 
L 580.660471 206.662926 
L 580.71022 219.775527 
L 580.759906 204.778128 
L 580.85909 219.936663 
L 580.908588 216.022605 
L 580.958023 200.074407 
L 581.007397 215.761573 
L 581.105958 199.709445 
L 581.155145 204.036001 
L 581.253336 201.276366 
L 581.351282 200.076807 
L 581.400163 216.917032 
L 581.546442 197.593342 
L 581.64366 213.369749 
L 581.692178 196.821836 
L 581.740637 224.175954 
L 581.789036 195.476595 
L 581.933875 206.319315 
L 581.982036 211.336238 
L 582.030138 200.583234 
L 582.126166 202.206955 
L 582.269768 214.812764 
L 582.317519 199.785203 
L 582.365212 211.116863 
L 582.412847 226.988038 
L 582.460424 187.792329 
L 582.555405 188.57567 
L 582.60281 213.358628 
L 582.697448 209.198524 
L 582.744681 206.150172 
L 582.838978 216.656506 
L 582.886041 209.639915 
L 582.979999 211.138082 
L 583.026894 213.909931 
L 583.073732 203.610083 
L 583.120515 219.145232 
L 583.167242 214.810876 
L 583.353596 202.0771 
L 583.400047 205.600839 
L 583.446442 222.870999 
L 583.492783 206.025286 
L 583.585301 219.003851 
L 583.723669 205.763168 
L 583.769684 218.918404 
L 583.861552 213.802387 
L 583.907405 205.565284 
L 583.998951 205.895222 
L 584.044644 209.039839 
L 584.090284 225.33656 
L 584.135871 215.899752 
L 584.181405 214.853808 
L 584.226886 199.246758 
L 584.272315 222.378858 
L 584.363014 216.188079 
L 584.408286 212.552451 
L 584.453505 213.135135 
L 584.498672 215.721698 
L 584.543787 214.017828 
L 584.58885 197.323488 
L 584.633862 212.85457 
L 584.678822 213.313562 
L 584.768587 213.769087 
L 584.813393 209.300302 
L 584.902852 196.455433 
L 584.947505 201.290298 
L 585.036659 219.716378 
L 585.08116 215.578921 
L 585.170011 182.894475 
L 585.302911 218.798748 
L 585.347111 195.626356 
L 585.435362 207.349983 
L 585.479413 202.988591 
L 585.523415 216.524926 
L 585.567368 202.780577 
L 585.611271 211.114179 
L 585.655126 212.474747 
L 585.698931 196.385901 
L 585.742688 220.926787 
L 585.742688 220.926787 
" clip-path="url(#p1d6e8498b9)" style="fill: none; stroke: #ffa500; stroke-width: 1.5; stroke-linecap: square"/>
   </g>
   <g id="line2d_16">
    <path d="M 228.622687 100.936347 
L 322.73287 149.944847 
L 348.1031 123.868648 
L 363.383216 62.484084 
L 374.352221 115.108351 
L 382.91495 155.224766 
L 389.93951 164.4804 
L 395.895266 177.211903 
L 401.064917 176.45328 
L 405.631991 181.403539 
L 409.72241 179.179671 
L 413.426333 179.287941 
L 416.810535 188.019643 
L 419.925852 191.259634 
L 422.811886 190.837783 
L 425.500084 192.620563 
L 428.015839 193.59959 
L 430.379947 186.545455 
L 432.609655 199.740933 
L 434.719426 197.577819 
L 436.721507 202.534734 
L 438.62636 198.832384 
L 440.442993 198.944949 
L 442.179217 200.51672 
L 443.841849 205.879459 
L 445.436875 206.866425 
L 446.969579 204.079943 
L 448.444648 207.406341 
L 449.866261 207.285567 
L 451.238157 207.477982 
L 452.563695 210.884888 
L 453.845908 210.777231 
L 455.087537 210.318289 
L 456.291073 206.622078 
L 457.458784 206.08064 
L 458.592741 207.020525 
L 459.694841 208.290513 
L 460.766826 213.694528 
L 461.810296 208.55294 
L 462.826731 208.916431 
L 463.817495 214.492905 
L 464.783853 211.087667 
L 465.72698 209.55224 
L 466.647965 203.064009 
L 467.547825 216.207972 
L 468.427507 215.153224 
L 469.287896 213.792801 
L 470.12982 210.265758 
L 470.954055 214.905366 
L 471.76133 209.249085 
L 472.552328 214.041959 
L 473.327692 217.198753 
L 474.088029 214.704412 
L 474.83391 216.624935 
L 475.565874 205.643114 
L 476.284432 214.412814 
L 476.990065 214.252474 
L 477.68323 208.789537 
L 478.364361 218.605265 
L 479.033868 209.270494 
L 479.692141 211.435155 
L 480.339551 218.721991 
L 480.97645 214.580126 
L 481.603175 216.703618 
L 482.220045 214.225413 
L 482.827366 212.715222 
L 483.425428 216.934121 
L 484.014511 216.712971 
L 484.594878 217.312182 
L 485.166785 212.93713 
L 485.730475 219.843922 
L 486.28618 219.518077 
L 486.834124 200.4483 
L 487.37452 218.900204 
L 487.907574 217.364846 
L 488.433481 153.776105 
L 488.952432 203.363406 
L 489.464608 185.911143 
L 489.970184 208.240483 
L 491.448957 180.505764 
L 491.929749 203.688709 
L 492.40472 196.274966 
L 492.874009 197.167537 
L 493.337751 195.598556 
L 493.796076 191.380446 
L 494.249108 194.564472 
L 494.696968 187.17671 
L 495.139773 185.884468 
L 495.577636 197.008593 
L 496.010666 186.585722 
L 496.438969 199.871786 
L 496.862646 191.400188 
L 497.281796 196.143847 
L 497.696516 184.811493 
L 498.106897 201.866458 
L 498.513031 181.047039 
L 498.915003 198.337982 
L 499.312898 184.118676 
L 499.706798 165.097521 
L 500.096782 202.731961 
L 500.482928 174.29364 
L 500.865311 199.161362 
L 501.244002 202.013908 
L 501.619073 194.587788 
L 501.990592 178.934637 
L 502.358626 171.384407 
L 503.084495 204.443365 
L 503.797178 159.618354 
L 504.148722 212.235169 
L 504.497145 186.680452 
L 504.8425 197.678093 
L 505.184842 188.09741 
L 505.860692 192.192724 
L 506.1943 173.675407 
L 506.525096 180.393086 
L 506.853125 190.432465 
L 507.178435 185.815731 
L 507.501069 183.879249 
L 507.821072 201.817388 
L 508.138485 191.059729 
L 508.453351 195.36542 
L 508.765711 192.688364 
L 509.075603 192.628419 
L 509.383066 195.177286 
L 509.990857 205.599134 
L 510.291257 206.841435 
L 510.589375 182.752405 
L 510.885244 185.914061 
L 511.178899 191.106639 
L 511.470372 185.805513 
L 511.759696 185.103489 
L 512.046901 194.663319 
L 512.33202 185.394992 
L 512.615081 185.722126 
L 512.896114 197.386224 
L 513.175149 193.399281 
L 513.452213 193.46669 
L 513.727334 196.747365 
L 514.000539 196.678162 
L 514.271855 186.959918 
L 514.541307 173.14694 
L 514.808922 201.850367 
L 515.074723 197.050931 
L 515.338735 222.404675 
L 515.600983 220.540288 
L 515.861489 221.077571 
L 516.120277 220.434601 
L 516.377369 222.108391 
L 516.632788 223.008521 
L 516.886554 222.080541 
L 517.138689 219.625355 
L 517.389214 221.858557 
L 517.63815 220.524184 
L 517.885515 213.634665 
L 518.375617 221.084727 
L 518.61839 221.188481 
L 518.859671 216.36026 
L 519.099477 222.036504 
L 519.337826 222.587643 
L 519.574735 219.140527 
L 519.810223 221.260545 
L 520.044305 221.256339 
L 520.508321 220.511756 
L 520.738287 218.724732 
L 520.966913 223.009039 
L 521.194215 222.43346 
L 521.420207 219.858309 
L 521.644904 222.397204 
L 521.868322 220.32419 
L 522.090475 220.619571 
L 522.311377 220.036376 
L 522.531042 218.825253 
L 522.749485 221.995145 
L 522.966717 222.030409 
L 523.182753 222.492843 
L 523.397607 221.662649 
L 523.61129 215.964845 
L 523.823815 215.226614 
L 524.035195 220.056408 
L 524.245443 213.785437 
L 524.45457 222.32514 
L 524.662588 218.864194 
L 524.869509 222.65127 
L 525.075344 221.856195 
L 525.280105 214.306344 
L 525.483802 218.376543 
L 525.888052 217.532013 
L 526.288179 207.455721 
L 526.684266 188.037793 
L 526.88082 194.0295 
L 527.076394 182.798216 
L 527.270999 187.407574 
L 527.464642 199.344658 
L 527.849085 195.517581 
L 528.039903 196.99192 
L 528.229797 183.331066 
L 528.606851 188.235564 
L 528.794027 204.418912 
L 528.980315 192.359057 
L 529.165722 200.10198 
L 529.350257 199.969851 
L 529.716744 184.934364 
L 529.898711 202.974041 
L 530.079838 179.528808 
L 530.260133 178.704872 
L 530.439603 210.822095 
L 530.618256 208.017071 
L 530.796099 187.971394 
L 530.973139 187.863654 
L 531.149385 188.300953 
L 531.324841 213.738975 
L 531.499517 222.468441 
L 531.673419 212.702787 
L 531.846553 215.723043 
L 532.018926 222.94432 
L 532.190545 222.319216 
L 532.361417 220.272108 
L 532.531548 223.287009 
L 532.700944 219.569231 
L 532.869612 221.441297 
L 533.037558 217.994137 
L 533.204788 222.367939 
L 533.371308 216.397647 
L 533.537124 215.859757 
L 533.702243 221.586094 
L 533.866669 220.840431 
L 534.030409 216.053682 
L 534.193469 222.9201 
L 534.517569 221.763808 
L 534.678621 216.638532 
L 534.839014 216.994736 
L 534.998754 220.452202 
L 535.157846 220.531314 
L 535.316296 222.728695 
L 535.474108 220.571909 
L 535.787841 223.063553 
L 535.943771 222.332225 
L 536.099085 222.336274 
L 536.407879 217.689902 
L 536.561369 223.515706 
L 536.86656 213.348997 
L 537.169395 223.116482 
L 537.319941 213.429158 
L 537.469911 222.046766 
L 537.61931 217.315517 
L 537.768142 221.418511 
L 537.916411 220.424105 
L 538.064123 221.946624 
L 538.21128 221.208084 
L 538.357887 223.538112 
L 538.503949 216.476759 
L 538.649469 221.897718 
L 538.938899 222.590011 
L 539.082817 216.992532 
L 539.36908 223.07703 
L 539.511431 215.565122 
L 539.653269 223.125576 
L 539.794595 221.99181 
L 539.935414 217.550681 
L 540.075729 220.02336 
L 540.215544 219.33778 
L 540.354863 222.621891 
L 540.493688 215.043533 
L 540.632024 223.78273 
L 540.769874 214.034198 
L 540.907242 221.145423 
L 541.04413 218.815995 
L 541.180542 219.93744 
L 541.316482 219.39681 
L 541.586956 223.873816 
L 541.721496 223.690463 
L 541.855578 219.823113 
L 541.989202 222.915459 
L 542.122373 221.910418 
L 542.255093 219.108193 
L 542.519194 221.666078 
L 542.650581 221.676328 
L 542.78153 218.240353 
L 542.912042 219.178343 
L 543.042122 221.84986 
L 543.171772 221.26501 
L 543.300996 223.417237 
L 543.429794 213.044263 
L 543.558172 220.350191 
L 543.68613 217.612748 
L 543.813673 222.325348 
L 543.940802 217.096028 
L 544.067521 223.549739 
L 544.193832 222.116083 
L 544.319737 222.335989 
L 544.44524 222.149188 
L 544.695047 222.58535 
L 544.943274 218.790412 
L 545.066801 218.680411 
L 545.18994 222.889326 
L 545.435065 220.254318 
L 545.557055 214.967843 
L 545.678667 222.845346 
L 545.799904 219.410552 
L 545.920767 222.616314 
L 546.041258 221.187938 
L 546.161381 221.756059 
L 546.281138 222.964554 
L 546.400529 220.152489 
L 546.519559 222.82916 
L 546.638228 220.009719 
L 546.75654 209.746506 
L 546.992098 223.960955 
L 547.109349 220.623506 
L 547.22625 223.906789 
L 547.459013 215.998373 
L 547.574879 210.943513 
L 547.690403 223.908393 
L 547.805589 222.503339 
L 548.03495 212.884385 
L 548.262978 224.356661 
L 548.376496 223.396952 
L 548.602553 218.749349 
L 548.827315 223.088107 
L 548.939215 224.21043 
L 549.050797 222.880762 
L 549.162062 218.89829 
L 549.273013 219.474804 
L 549.38365 223.34079 
L 549.603994 220.296352 
L 549.713704 224.785283 
L 549.823107 223.970112 
L 549.932206 217.667236 
L 550.041003 221.267518 
L 550.149499 221.2537 
L 550.257696 217.693698 
L 550.473198 222.818948 
L 550.580507 223.063326 
L 550.687523 220.095348 
L 550.794248 221.850271 
L 550.900683 217.268076 
L 551.006831 221.113954 
L 551.112692 218.277026 
L 551.218268 222.055513 
L 551.323561 219.405689 
L 551.533303 223.201107 
L 551.637755 221.523851 
L 551.741929 222.941244 
L 551.845828 167.305159 
L 552.052803 200.407857 
L 552.155883 190.671765 
L 552.361233 205.429277 
L 552.565514 186.012164 
L 552.667257 187.457111 
L 552.768737 176.256255 
L 552.970913 202.104053 
L 553.071611 169.644268 
L 553.272236 193.566915 
L 553.372165 201.755611 
L 553.47184 181.312535 
L 553.571262 205.576272 
L 553.769354 184.920167 
L 553.868027 203.246156 
L 554.06463 193.072854 
L 554.162563 204.174686 
L 554.3577 176.0226 
L 554.454905 200.319695 
L 554.648596 191.095246 
L 554.745085 197.338367 
L 554.841336 183.318764 
L 554.937352 205.345295 
L 555.033134 199.84439 
L 555.128682 204.771851 
L 555.319083 194.008394 
L 555.413938 173.423008 
L 555.508565 211.532936 
L 555.697135 183.532424 
L 555.884804 195.48387 
L 555.978303 191.704019 
L 556.07158 206.266405 
L 556.164635 201.141105 
L 556.350086 204.498713 
L 556.442484 202.465404 
L 556.534664 196.414295 
L 556.626629 205.901404 
L 556.901236 190.643574 
L 556.992347 205.672291 
L 557.173935 185.350772 
L 557.264415 213.28681 
L 557.354687 211.072662 
L 557.444751 191.9644 
L 557.534609 201.714511 
L 557.624262 192.948657 
L 557.713711 209.611591 
L 557.980839 190.242828 
L 558.157919 200.0435 
L 558.246161 203.369822 
L 558.334204 180.582344 
L 558.5097 200.19378 
L 558.597155 195.851776 
L 558.684415 210.641123 
L 558.771481 199.248602 
L 558.858355 201.494068 
L 558.945036 192.196387 
L 559.031527 208.064594 
L 559.203938 185.649323 
L 559.28986 207.949756 
L 559.461142 187.625579 
L 559.546504 203.141321 
L 559.63168 200.263779 
L 559.886104 177.389162 
L 560.054808 196.981146 
L 560.306512 183.870244 
L 560.390056 209.024089 
L 560.473422 191.789061 
L 560.556611 196.667312 
L 560.639624 197.100784 
L 560.722462 193.20103 
L 560.805126 205.421446 
L 560.969932 191.101903 
L 561.052077 210.63775 
L 561.134049 193.928505 
L 561.215851 207.72877 
L 561.378944 197.453482 
L 561.460238 200.651603 
L 561.62232 211.124087 
L 561.703111 205.16378 
L 561.783736 209.915554 
L 561.864196 190.421186 
L 562.104589 210.881345 
L 562.264037 189.986956 
L 562.343519 190.796001 
L 562.42284 185.820683 
L 562.581002 200.778756 
L 562.659844 192.335388 
L 562.738529 215.140909 
L 562.895426 185.532931 
L 563.051698 214.24657 
L 563.207351 190.637107 
L 563.284946 200.745525 
L 563.362388 191.700356 
L 563.516814 204.418357 
L 563.670636 190.85438 
L 563.900243 209.872256 
L 563.976481 186.026449 
L 564.052571 196.303537 
L 564.128514 184.606851 
L 564.20431 186.491421 
L 564.27996 206.273074 
L 564.506039 186.132887 
L 564.58111 196.036436 
L 564.656038 190.756707 
L 564.730822 196.129562 
L 564.805465 183.688728 
L 564.954325 204.126462 
L 565.028544 196.108961 
L 565.250362 205.727796 
L 565.324023 201.542621 
L 565.397547 209.455356 
L 565.544182 188.272332 
L 565.69027 207.799079 
L 565.980826 177.773841 
L 566.125301 202.824355 
L 566.197339 196.226932 
L 566.269245 210.499602 
L 566.34102 180.417009 
L 566.412664 201.25276 
L 566.484177 196.692574 
L 566.55556 195.380033 
L 566.697937 201.408887 
L 566.91054 191.508686 
L 566.981152 208.854232 
L 567.051637 185.918495 
L 567.121996 200.088819 
L 567.192229 198.821913 
L 567.262336 190.128521 
L 567.332318 195.874524 
L 567.402176 176.718474 
L 567.47191 187.48865 
L 567.611006 207.143087 
L 567.68037 204.168699 
L 567.749611 188.35313 
L 567.81873 190.833375 
L 567.956605 194.368962 
L 568.02536 183.390935 
L 568.093996 186.113663 
L 568.162512 201.818714 
L 568.230908 192.597032 
L 568.299185 193.210844 
L 568.367344 190.658933 
L 568.503307 201.773206 
L 568.773827 186.418416 
L 568.841167 206.298733 
L 568.908391 174.394457 
L 568.975501 189.857429 
L 569.042495 191.459527 
L 569.109376 209.538504 
L 569.176142 177.795667 
L 569.242796 205.435744 
L 569.309336 176.60337 
L 569.442079 204.934824 
L 569.508282 184.268438 
L 569.574374 202.686857 
L 569.640354 200.851862 
L 569.706224 199.223859 
L 569.771984 204.967146 
L 569.903173 192.217127 
L 569.968603 194.670001 
L 570.099138 204.369804 
L 570.294129 180.26947 
L 570.358911 206.34894 
L 570.423586 190.809553 
L 570.552618 202.757261 
L 570.616975 191.164589 
L 570.681227 210.85981 
L 570.873353 178.638018 
L 571.000916 205.628702 
L 571.064543 193.857369 
L 571.191487 207.839775 
L 571.318022 187.673095 
L 571.507062 219.393785 
L 571.632585 186.291971 
L 571.695196 199.856907 
L 571.757707 190.839955 
L 571.820119 197.257505 
L 571.882432 196.013095 
L 571.944646 184.517439 
L 572.006761 215.309358 
L 572.068778 193.738414 
L 572.130698 195.317613 
L 572.254244 186.029164 
L 572.315872 202.980962 
L 572.377402 196.480075 
L 572.438837 199.803101 
L 572.500175 193.865478 
L 572.561418 194.382135 
L 572.622565 199.626272 
L 572.744575 183.617529 
L 572.805437 205.840203 
L 572.866206 193.31996 
L 572.987461 206.956235 
L 573.047948 171.221472 
L 573.108343 191.787065 
L 573.228853 212.265798 
L 573.28897 184.721297 
L 573.348994 194.129611 
L 573.408927 187.482966 
L 573.588178 204.361279 
L 573.707226 191.376342 
L 573.766615 212.06749 
L 573.825913 197.473098 
L 573.885123 205.127404 
L 573.944243 201.821859 
L 574.003274 189.168161 
L 574.12107 207.805862 
L 574.179836 199.60946 
L 574.238514 200.968267 
L 574.297105 201.074099 
L 574.355608 188.075735 
L 574.414023 205.988827 
L 574.472352 195.200198 
L 574.530595 195.252274 
L 574.588751 192.216659 
L 574.646821 194.343498 
L 574.704805 196.158789 
L 574.762704 191.715374 
L 574.820517 202.53126 
L 574.878245 199.904462 
L 574.935889 199.129331 
L 574.993447 193.024175 
L 575.108312 212.513864 
L 575.279982 189.884029 
L 575.337038 212.60711 
L 575.394012 193.816396 
L 575.450903 177.494299 
L 575.507712 195.40945 
L 575.564438 192.624958 
L 575.621083 174.719558 
L 575.734127 202.538763 
L 575.790528 196.158259 
L 575.903086 213.234974 
L 576.015322 193.570363 
L 576.07132 195.432008 
L 576.127238 188.213561 
L 576.183076 194.568867 
L 576.238835 195.108727 
L 576.294515 212.023327 
L 576.350116 182.609489 
L 576.405639 199.205304 
L 576.461082 200.269867 
L 576.571736 197.176947 
L 576.626945 197.558165 
L 576.682078 190.836772 
L 576.737133 192.876258 
L 576.847011 196.773827 
L 576.901835 208.663458 
L 576.956583 203.622208 
L 577.120368 186.545013 
L 577.337691 213.009984 
L 577.445903 193.623134 
L 577.499897 196.850621 
L 577.661434 193.189852 
L 577.715133 208.717663 
L 577.768758 190.674026 
L 577.82231 195.657163 
L 577.929195 199.883798 
L 578.035789 215.669407 
L 578.19514 178.81241 
L 578.248113 195.046079 
L 578.301015 184.271911 
L 578.459294 203.954874 
L 578.56446 189.978519 
L 578.616938 203.583887 
L 578.669345 182.307237 
L 578.721682 201.17618 
L 578.77395 205.176196 
L 578.878277 192.522132 
L 578.982327 204.103828 
L 579.034249 188.885386 
L 579.086102 203.963009 
L 579.137887 200.873726 
L 579.189603 181.877744 
L 579.241251 205.305433 
L 579.344344 203.108595 
L 579.498478 184.551655 
L 579.600898 191.558198 
L 579.652008 183.330561 
L 579.703052 201.043331 
L 579.80494 198.327347 
L 579.855785 186.513298 
L 580.007927 204.191485 
L 580.109027 188.011546 
L 580.15948 194.043305 
L 580.209868 195.686706 
L 580.260191 195.382724 
L 580.31045 212.029087 
L 580.360645 200.811141 
L 580.460842 195.560904 
L 580.510844 195.893583 
L 580.560783 203.067091 
L 580.610659 176.235136 
L 580.660471 193.336771 
L 580.71022 205.11202 
L 580.759906 197.609938 
L 580.908588 207.901154 
L 580.958023 188.789709 
L 581.007397 203.841022 
L 581.204271 182.35219 
L 581.400163 209.530269 
L 581.546442 182.757003 
L 581.595081 204.29402 
L 581.64366 193.613951 
L 581.692178 189.036082 
L 581.740637 200.710778 
L 581.789036 180.147622 
L 581.837375 199.960075 
L 581.885655 200.282763 
L 581.982036 200.316322 
L 582.030138 188.279304 
L 582.174092 201.659682 
L 582.269768 206.078044 
L 582.317519 187.764566 
L 582.365212 201.657193 
L 582.412847 220.456977 
L 582.507943 218.563079 
L 582.555405 208.029336 
L 582.60281 221.528454 
L 582.650157 220.944634 
L 582.697448 217.463984 
L 582.744681 218.961191 
L 582.791858 218.927694 
L 582.838978 221.63603 
L 582.886041 218.152424 
L 582.933048 214.575485 
L 582.979999 219.99549 
L 583.026894 219.329406 
L 583.073732 217.553845 
L 583.120515 218.274001 
L 583.167242 218.421647 
L 583.213914 220.429297 
L 583.26053 218.98241 
L 583.307091 216.84313 
L 583.353596 219.729457 
L 583.400047 217.620383 
L 583.446442 220.227768 
L 583.492783 213.980088 
L 583.539069 219.513144 
L 583.585301 222.342172 
L 583.631478 218.859842 
L 583.861552 222.392088 
L 583.953205 213.238694 
L 583.998951 216.200337 
L 584.090284 221.218309 
L 584.135871 218.588201 
L 584.181405 218.329715 
L 584.226886 214.46083 
L 584.272315 220.638056 
L 584.317691 215.235475 
L 584.408286 220.530083 
L 584.498672 220.767716 
L 584.58885 208.201839 
L 584.633862 220.987231 
L 584.72373 219.454911 
L 584.768587 221.152408 
L 584.858148 211.004046 
L 584.902852 212.063739 
L 584.947505 211.514059 
L 585.036659 221.534094 
L 585.08116 220.869014 
L 585.12561 216.654447 
L 585.170011 201.557007 
L 585.214361 220.601465 
L 585.258661 218.512322 
L 585.302911 221.731915 
L 585.347111 210.408188 
L 585.391261 217.904781 
L 585.435362 217.993032 
L 585.479413 213.870574 
L 585.523415 219.024407 
L 585.611271 219.679623 
L 585.655126 215.333867 
L 585.742688 220.558205 
L 585.742688 220.558205 
" clip-path="url(#p1d6e8498b9)" style="fill: none; stroke: #008000; stroke-width: 1.5; stroke-linecap: square"/>
   </g>
   <g id="patch_3">
    <path d="M 228.622687 311.6435 
L 228.622687 45.5315 
" style="fill: none; stroke: #000000; stroke-width: 0.8; stroke-linejoin: miter; stroke-linecap: square"/>
   </g>
   <g id="patch_4">
    <path d="M 585.742688 311.6435 
L 585.742688 45.5315 
" style="fill: none; stroke: #000000; stroke-width: 0.8; stroke-linejoin: miter; stroke-linecap: square"/>
   </g>
   <g id="patch_5">
    <path d="M 228.622687 311.6435 
L 585.742688 311.6435 
" style="fill: none; stroke: #000000; stroke-width: 0.8; stroke-linejoin: miter; stroke-linecap: square"/>
   </g>
   <g id="patch_6">
    <path d="M 228.622687 45.5315 
L 585.742688 45.5315 
" style="fill: none; stroke: #000000; stroke-width: 0.8; stroke-linejoin: miter; stroke-linecap: square"/>
   </g>
   <g id="text_10">
    <!-- Loss of the 09_05_25_CIFAR10_model_(1024+512-512-512+1)_1_save_8 -->
    <g transform="translate(7.2 25.5315) scale(0.264 -0.264)">
     <defs>
      <path id="TimesNewRomanPSMT-20" transform="scale(0.015625)"/>
      <path id="TimesNewRomanPSMT-66" d="M 1319 2638 
L 1319 756 
Q 1319 356 1406 250 
Q 1522 113 1716 113 
L 1975 113 
L 1975 0 
L 266 0 
L 266 113 
L 394 113 
Q 519 113 622 175 
Q 725 238 764 344 
Q 803 450 803 756 
L 803 2638 
L 247 2638 
L 247 2863 
L 803 2863 
L 803 3050 
Q 803 3478 940 3775 
Q 1078 4072 1361 4255 
Q 1644 4438 1997 4438 
Q 2325 4438 2600 4225 
Q 2781 4084 2781 3909 
Q 2781 3816 2700 3733 
Q 2619 3650 2525 3650 
Q 2453 3650 2373 3701 
Q 2294 3753 2178 3923 
Q 2063 4094 1966 4153 
Q 1869 4213 1750 4213 
Q 1606 4213 1506 4136 
Q 1406 4059 1362 3898 
Q 1319 3738 1319 3069 
L 1319 2863 
L 2056 2863 
L 2056 2638 
L 1319 2638 
z
" transform="scale(0.015625)"/>
      <path id="TimesNewRomanPSMT-74" d="M 1031 3803 
L 1031 2863 
L 1700 2863 
L 1700 2644 
L 1031 2644 
L 1031 788 
Q 1031 509 1111 412 
Q 1191 316 1316 316 
Q 1419 316 1516 380 
Q 1613 444 1666 569 
L 1788 569 
Q 1678 263 1478 108 
Q 1278 -47 1066 -47 
Q 922 -47 784 33 
Q 647 113 581 261 
Q 516 409 516 719 
L 516 2644 
L 63 2644 
L 63 2747 
Q 234 2816 414 2980 
Q 594 3144 734 3369 
Q 806 3488 934 3803 
L 1031 3803 
z
" transform="scale(0.015625)"/>
      <path id="TimesNewRomanPSMT-68" d="M 1041 4444 
L 1041 2350 
Q 1388 2731 1591 2839 
Q 1794 2947 1997 2947 
Q 2241 2947 2416 2812 
Q 2591 2678 2675 2391 
Q 2734 2191 2734 1659 
L 2734 647 
Q 2734 375 2778 275 
Q 2809 200 2884 156 
Q 2959 113 3159 113 
L 3159 0 
L 1753 0 
L 1753 113 
L 1819 113 
Q 2019 113 2097 173 
Q 2175 234 2206 353 
Q 2216 403 2216 647 
L 2216 1659 
Q 2216 2128 2167 2275 
Q 2119 2422 2012 2495 
Q 1906 2569 1756 2569 
Q 1603 2569 1437 2487 
Q 1272 2406 1041 2159 
L 1041 647 
Q 1041 353 1073 281 
Q 1106 209 1195 161 
Q 1284 113 1503 113 
L 1503 0 
L 84 0 
L 84 113 
Q 275 113 384 172 
Q 447 203 484 290 
Q 522 378 522 647 
L 522 3238 
Q 522 3728 498 3840 
Q 475 3953 426 3993 
Q 378 4034 297 4034 
Q 231 4034 84 3984 
L 41 4094 
L 897 4444 
L 1041 4444 
z
" transform="scale(0.015625)"/>
      <path id="TimesNewRomanPSMT-65" d="M 681 1784 
Q 678 1147 991 784 
Q 1303 422 1725 422 
Q 2006 422 2214 576 
Q 2422 731 2563 1106 
L 2659 1044 
Q 2594 616 2278 264 
Q 1963 -88 1488 -88 
Q 972 -88 605 314 
Q 238 716 238 1394 
Q 238 2128 614 2539 
Q 991 2950 1559 2950 
Q 2041 2950 2350 2633 
Q 2659 2316 2659 1784 
L 681 1784 
z
M 681 1966 
L 2006 1966 
Q 1991 2241 1941 2353 
Q 1863 2528 1708 2628 
Q 1553 2728 1384 2728 
Q 1125 2728 920 2526 
Q 716 2325 681 1966 
z
" transform="scale(0.015625)"/>
      <path id="TimesNewRomanPSMT-39" d="M 338 -88 
L 338 28 
Q 744 34 1094 217 
Q 1444 400 1770 856 
Q 2097 1313 2225 1859 
Q 1734 1544 1338 1544 
Q 891 1544 572 1889 
Q 253 2234 253 2806 
Q 253 3363 572 3797 
Q 956 4325 1575 4325 
Q 2097 4325 2469 3894 
Q 2925 3359 2925 2575 
Q 2925 1869 2578 1258 
Q 2231 647 1613 244 
Q 1109 -88 516 -88 
L 338 -88 
z
M 2275 2091 
Q 2331 2497 2331 2741 
Q 2331 3044 2228 3395 
Q 2125 3747 1936 3934 
Q 1747 4122 1506 4122 
Q 1228 4122 1018 3872 
Q 809 3622 809 3128 
Q 809 2469 1088 2097 
Q 1291 1828 1588 1828 
Q 1731 1828 1928 1897 
Q 2125 1966 2275 2091 
z
" transform="scale(0.015625)"/>
      <path id="TimesNewRomanPSMT-5f" d="M 3256 -1381 
L -53 -1381 
L -53 -1119 
L 3256 -1119 
L 3256 -1381 
z
" transform="scale(0.015625)"/>
      <path id="TimesNewRomanPSMT-32" d="M 2934 816 
L 2638 0 
L 138 0 
L 138 116 
Q 1241 1122 1691 1759 
Q 2141 2397 2141 2925 
Q 2141 3328 1894 3587 
Q 1647 3847 1303 3847 
Q 991 3847 742 3664 
Q 494 3481 375 3128 
L 259 3128 
Q 338 3706 661 4015 
Q 984 4325 1469 4325 
Q 1984 4325 2329 3994 
Q 2675 3663 2675 3213 
Q 2675 2891 2525 2569 
Q 2294 2063 1775 1497 
Q 997 647 803 472 
L 1909 472 
Q 2247 472 2383 497 
Q 2519 522 2628 598 
Q 2738 675 2819 816 
L 2934 816 
z
" transform="scale(0.015625)"/>
      <path id="TimesNewRomanPSMT-43" d="M 3853 4334 
L 3950 2894 
L 3853 2894 
Q 3659 3541 3300 3825 
Q 2941 4109 2438 4109 
Q 2016 4109 1675 3895 
Q 1334 3681 1139 3212 
Q 944 2744 944 2047 
Q 944 1472 1128 1050 
Q 1313 628 1683 403 
Q 2053 178 2528 178 
Q 2941 178 3256 354 
Q 3572 531 3950 1056 
L 4047 994 
Q 3728 428 3303 165 
Q 2878 -97 2294 -97 
Q 1241 -97 663 684 
Q 231 1266 231 2053 
Q 231 2688 515 3219 
Q 800 3750 1298 4042 
Q 1797 4334 2388 4334 
Q 2847 4334 3294 4109 
Q 3425 4041 3481 4041 
Q 3566 4041 3628 4100 
Q 3709 4184 3744 4334 
L 3853 4334 
z
" transform="scale(0.015625)"/>
      <path id="TimesNewRomanPSMT-49" d="M 1975 116 
L 1975 0 
L 159 0 
L 159 116 
L 309 116 
Q 572 116 691 269 
Q 766 369 766 750 
L 766 3488 
Q 766 3809 725 3913 
Q 694 3991 597 4047 
Q 459 4122 309 4122 
L 159 4122 
L 159 4238 
L 1975 4238 
L 1975 4122 
L 1822 4122 
Q 1563 4122 1444 3969 
Q 1366 3869 1366 3488 
L 1366 750 
Q 1366 428 1406 325 
Q 1438 247 1538 191 
Q 1672 116 1822 116 
L 1975 116 
z
" transform="scale(0.015625)"/>
      <path id="TimesNewRomanPSMT-46" d="M 1309 4006 
L 1309 2341 
L 2081 2341 
Q 2347 2341 2470 2458 
Q 2594 2575 2634 2922 
L 2750 2922 
L 2750 1488 
L 2634 1488 
Q 2631 1734 2570 1850 
Q 2509 1966 2401 2023 
Q 2294 2081 2081 2081 
L 1309 2081 
L 1309 750 
Q 1309 428 1350 325 
Q 1381 247 1481 191 
Q 1619 116 1769 116 
L 1922 116 
L 1922 0 
L 103 0 
L 103 116 
L 253 116 
Q 516 116 634 269 
Q 709 369 709 750 
L 709 3488 
Q 709 3809 669 3913 
Q 638 3991 541 4047 
Q 406 4122 253 4122 
L 103 4122 
L 103 4238 
L 3256 4238 
L 3297 3306 
L 3188 3306 
Q 3106 3603 2998 3742 
Q 2891 3881 2733 3943 
Q 2575 4006 2244 4006 
L 1309 4006 
z
" transform="scale(0.015625)"/>
      <path id="TimesNewRomanPSMT-41" d="M 2928 1419 
L 1288 1419 
L 1000 750 
Q 894 503 894 381 
Q 894 284 986 211 
Q 1078 138 1384 116 
L 1384 0 
L 50 0 
L 50 116 
Q 316 163 394 238 
Q 553 388 747 847 
L 2238 4334 
L 2347 4334 
L 3822 809 
Q 4000 384 4145 257 
Q 4291 131 4550 116 
L 4550 0 
L 2878 0 
L 2878 116 
Q 3131 128 3220 200 
Q 3309 272 3309 375 
Q 3309 513 3184 809 
L 2928 1419 
z
M 2841 1650 
L 2122 3363 
L 1384 1650 
L 2841 1650 
z
" transform="scale(0.015625)"/>
      <path id="TimesNewRomanPSMT-52" d="M 4325 0 
L 3194 0 
L 1759 1981 
Q 1600 1975 1500 1975 
Q 1459 1975 1412 1976 
Q 1366 1978 1316 1981 
L 1316 750 
Q 1316 350 1403 253 
Q 1522 116 1759 116 
L 1925 116 
L 1925 0 
L 109 0 
L 109 116 
L 269 116 
Q 538 116 653 291 
Q 719 388 719 750 
L 719 3488 
Q 719 3888 631 3984 
Q 509 4122 269 4122 
L 109 4122 
L 109 4238 
L 1653 4238 
Q 2328 4238 2648 4139 
Q 2969 4041 3192 3777 
Q 3416 3513 3416 3147 
Q 3416 2756 3161 2468 
Q 2906 2181 2372 2063 
L 3247 847 
Q 3547 428 3762 290 
Q 3978 153 4325 116 
L 4325 0 
z
M 1316 2178 
Q 1375 2178 1419 2176 
Q 1463 2175 1491 2175 
Q 2097 2175 2405 2437 
Q 2713 2700 2713 3106 
Q 2713 3503 2464 3751 
Q 2216 4000 1806 4000 
Q 1625 4000 1316 3941 
L 1316 2178 
z
" transform="scale(0.015625)"/>
      <path id="TimesNewRomanPSMT-6d" d="M 1050 2338 
Q 1363 2650 1419 2697 
Q 1559 2816 1721 2881 
Q 1884 2947 2044 2947 
Q 2313 2947 2506 2790 
Q 2700 2634 2766 2338 
Q 3088 2713 3309 2830 
Q 3531 2947 3766 2947 
Q 3994 2947 4170 2830 
Q 4347 2713 4450 2447 
Q 4519 2266 4519 1878 
L 4519 647 
Q 4519 378 4559 278 
Q 4591 209 4675 161 
Q 4759 113 4950 113 
L 4950 0 
L 3538 0 
L 3538 113 
L 3597 113 
Q 3781 113 3884 184 
Q 3956 234 3988 344 
Q 4000 397 4000 647 
L 4000 1878 
Q 4000 2228 3916 2372 
Q 3794 2572 3525 2572 
Q 3359 2572 3192 2489 
Q 3025 2406 2788 2181 
L 2781 2147 
L 2788 2013 
L 2788 647 
Q 2788 353 2820 281 
Q 2853 209 2943 161 
Q 3034 113 3253 113 
L 3253 0 
L 1806 0 
L 1806 113 
Q 2044 113 2133 169 
Q 2222 225 2256 338 
Q 2272 391 2272 647 
L 2272 1878 
Q 2272 2228 2169 2381 
Q 2031 2581 1784 2581 
Q 1616 2581 1450 2491 
Q 1191 2353 1050 2181 
L 1050 647 
Q 1050 366 1089 281 
Q 1128 197 1204 155 
Q 1281 113 1516 113 
L 1516 0 
L 100 0 
L 100 113 
Q 297 113 375 155 
Q 453 197 493 289 
Q 534 381 534 647 
L 534 1741 
Q 534 2213 506 2350 
Q 484 2453 437 2492 
Q 391 2531 309 2531 
Q 222 2531 100 2484 
L 53 2597 
L 916 2947 
L 1050 2947 
L 1050 2338 
z
" transform="scale(0.015625)"/>
      <path id="TimesNewRomanPSMT-64" d="M 2222 322 
Q 2013 103 1813 7 
Q 1613 -88 1381 -88 
Q 913 -88 563 304 
Q 213 697 213 1313 
Q 213 1928 600 2439 
Q 988 2950 1597 2950 
Q 1975 2950 2222 2709 
L 2222 3238 
Q 2222 3728 2198 3840 
Q 2175 3953 2125 3993 
Q 2075 4034 2000 4034 
Q 1919 4034 1784 3984 
L 1744 4094 
L 2597 4444 
L 2738 4444 
L 2738 1134 
Q 2738 631 2761 520 
Q 2784 409 2836 365 
Q 2888 322 2956 322 
Q 3041 322 3181 375 
L 3216 266 
L 2366 -88 
L 2222 -88 
L 2222 322 
z
M 2222 541 
L 2222 2016 
Q 2203 2228 2109 2403 
Q 2016 2578 1861 2667 
Q 1706 2756 1559 2756 
Q 1284 2756 1069 2509 
Q 784 2184 784 1559 
Q 784 928 1059 592 
Q 1334 256 1672 256 
Q 1956 256 2222 541 
z
" transform="scale(0.015625)"/>
      <path id="TimesNewRomanPSMT-6c" d="M 1184 4444 
L 1184 647 
Q 1184 378 1223 290 
Q 1263 203 1344 158 
Q 1425 113 1647 113 
L 1647 0 
L 244 0 
L 244 113 
Q 441 113 512 153 
Q 584 194 625 287 
Q 666 381 666 647 
L 666 3247 
Q 666 3731 644 3842 
Q 622 3953 573 3993 
Q 525 4034 450 4034 
Q 369 4034 244 3984 
L 191 4094 
L 1044 4444 
L 1184 4444 
z
" transform="scale(0.015625)"/>
      <path id="TimesNewRomanPSMT-28" d="M 1988 -1253 
L 1988 -1369 
Q 1516 -1131 1200 -813 
Q 750 -359 506 256 
Q 263 872 263 1534 
Q 263 2503 741 3301 
Q 1219 4100 1988 4444 
L 1988 4313 
Q 1603 4100 1356 3731 
Q 1109 3363 987 2797 
Q 866 2231 866 1616 
Q 866 947 969 400 
Q 1050 -31 1165 -292 
Q 1281 -553 1476 -793 
Q 1672 -1034 1988 -1253 
z
" transform="scale(0.015625)"/>
      <path id="TimesNewRomanPSMT-34" d="M 2978 1563 
L 2978 1119 
L 2409 1119 
L 2409 0 
L 1894 0 
L 1894 1119 
L 100 1119 
L 100 1519 
L 2066 4325 
L 2409 4325 
L 2409 1563 
L 2978 1563 
z
M 1894 1563 
L 1894 3666 
L 406 1563 
L 1894 1563 
z
" transform="scale(0.015625)"/>
      <path id="TimesNewRomanPSMT-2b" d="M 1672 441 
L 1672 2000 
L 116 2000 
L 116 2256 
L 1672 2256 
L 1672 3809 
L 1922 3809 
L 1922 2256 
L 3484 2256 
L 3484 2000 
L 1922 2000 
L 1922 441 
L 1672 441 
z
" transform="scale(0.015625)"/>
      <path id="TimesNewRomanPSMT-2d" d="M 259 1672 
L 1875 1672 
L 1875 1200 
L 259 1200 
L 259 1672 
z
" transform="scale(0.015625)"/>
      <path id="TimesNewRomanPSMT-29" d="M 144 4313 
L 144 4444 
Q 619 4209 934 3891 
Q 1381 3434 1625 2820 
Q 1869 2206 1869 1541 
Q 1869 572 1392 -226 
Q 916 -1025 144 -1369 
L 144 -1253 
Q 528 -1038 776 -670 
Q 1025 -303 1145 264 
Q 1266 831 1266 1447 
Q 1266 2113 1163 2663 
Q 1084 3094 967 3353 
Q 850 3613 656 3853 
Q 463 4094 144 4313 
z
" transform="scale(0.015625)"/>
      <path id="TimesNewRomanPSMT-61" d="M 1822 413 
Q 1381 72 1269 19 
Q 1100 -59 909 -59 
Q 613 -59 420 144 
Q 228 347 228 678 
Q 228 888 322 1041 
Q 450 1253 767 1440 
Q 1084 1628 1822 1897 
L 1822 2009 
Q 1822 2438 1686 2597 
Q 1550 2756 1291 2756 
Q 1094 2756 978 2650 
Q 859 2544 859 2406 
L 866 2225 
Q 866 2081 792 2003 
Q 719 1925 600 1925 
Q 484 1925 411 2006 
Q 338 2088 338 2228 
Q 338 2497 613 2722 
Q 888 2947 1384 2947 
Q 1766 2947 2009 2819 
Q 2194 2722 2281 2516 
Q 2338 2381 2338 1966 
L 2338 994 
Q 2338 584 2353 492 
Q 2369 400 2405 369 
Q 2441 338 2488 338 
Q 2538 338 2575 359 
Q 2641 400 2828 588 
L 2828 413 
Q 2478 -56 2159 -56 
Q 2006 -56 1915 50 
Q 1825 156 1822 413 
z
M 1822 616 
L 1822 1706 
Q 1350 1519 1213 1441 
Q 966 1303 859 1153 
Q 753 1003 753 825 
Q 753 600 887 451 
Q 1022 303 1197 303 
Q 1434 303 1822 616 
z
" transform="scale(0.015625)"/>
      <path id="TimesNewRomanPSMT-76" d="M 53 2863 
L 1400 2863 
L 1400 2747 
L 1313 2747 
Q 1191 2747 1127 2687 
Q 1063 2628 1063 2528 
Q 1063 2419 1128 2269 
L 1794 688 
L 2463 2328 
Q 2534 2503 2534 2594 
Q 2534 2638 2509 2666 
Q 2475 2713 2422 2730 
Q 2369 2747 2206 2747 
L 2206 2863 
L 3141 2863 
L 3141 2747 
Q 2978 2734 2916 2681 
Q 2806 2588 2719 2369 
L 1703 -88 
L 1575 -88 
L 553 2328 
Q 484 2497 421 2570 
Q 359 2644 263 2694 
Q 209 2722 53 2747 
L 53 2863 
z
" transform="scale(0.015625)"/>
      <path id="TimesNewRomanPSMT-38" d="M 1228 2134 
Q 725 2547 579 2797 
Q 434 3047 434 3316 
Q 434 3728 753 4026 
Q 1072 4325 1600 4325 
Q 2113 4325 2425 4047 
Q 2738 3769 2738 3413 
Q 2738 3175 2569 2928 
Q 2400 2681 1866 2347 
Q 2416 1922 2594 1678 
Q 2831 1359 2831 1006 
Q 2831 559 2490 242 
Q 2150 -75 1597 -75 
Q 994 -75 656 303 
Q 388 606 388 966 
Q 388 1247 577 1523 
Q 766 1800 1228 2134 
z
M 1719 2469 
Q 2094 2806 2194 3001 
Q 2294 3197 2294 3444 
Q 2294 3772 2109 3958 
Q 1925 4144 1606 4144 
Q 1288 4144 1088 3959 
Q 888 3775 888 3528 
Q 888 3366 970 3203 
Q 1053 3041 1206 2894 
L 1719 2469 
z
M 1375 2016 
Q 1116 1797 991 1539 
Q 866 1281 866 981 
Q 866 578 1086 336 
Q 1306 94 1647 94 
Q 1984 94 2187 284 
Q 2391 475 2391 747 
Q 2391 972 2272 1150 
Q 2050 1481 1375 2016 
z
" transform="scale(0.015625)"/>
     </defs>
     <use xlink:href="#TimesNewRomanPSMT-4c"/>
     <use xlink:href="#TimesNewRomanPSMT-6f" transform="translate(61.083984 0)"/>
     <use xlink:href="#TimesNewRomanPSMT-73" transform="translate(111.083984 0)"/>
     <use xlink:href="#TimesNewRomanPSMT-73" transform="translate(150 0)"/>
     <use xlink:href="#TimesNewRomanPSMT-20" transform="translate(188.916016 0)"/>
     <use xlink:href="#TimesNewRomanPSMT-6f" transform="translate(213.916016 0)"/>
     <use xlink:href="#TimesNewRomanPSMT-66" transform="translate(263.916016 0)"/>
     <use xlink:href="#TimesNewRomanPSMT-20" transform="translate(297.216797 0)"/>
     <use xlink:href="#TimesNewRomanPSMT-74" transform="translate(322.216797 0)"/>
     <use xlink:href="#TimesNewRomanPSMT-68" transform="translate(350 0)"/>
     <use xlink:href="#TimesNewRomanPSMT-65" transform="translate(400 0)"/>
     <use xlink:href="#TimesNewRomanPSMT-20" transform="translate(444.384766 0)"/>
     <use xlink:href="#TimesNewRomanPSMT-30" transform="translate(469.384766 0)"/>
     <use xlink:href="#TimesNewRomanPSMT-39" transform="translate(519.384766 0)"/>
     <use xlink:href="#TimesNewRomanPSMT-5f" transform="translate(569.384766 0)"/>
     <use xlink:href="#TimesNewRomanPSMT-30" transform="translate(619.384766 0)"/>
     <use xlink:href="#TimesNewRomanPSMT-35" transform="translate(669.384766 0)"/>
     <use xlink:href="#TimesNewRomanPSMT-5f" transform="translate(719.384766 0)"/>
     <use xlink:href="#TimesNewRomanPSMT-32" transform="translate(769.384766 0)"/>
     <use xlink:href="#TimesNewRomanPSMT-35" transform="translate(819.384766 0)"/>
     <use xlink:href="#TimesNewRomanPSMT-5f" transform="translate(869.384766 0)"/>
     <use xlink:href="#TimesNewRomanPSMT-43" transform="translate(919.384766 0)"/>
     <use xlink:href="#TimesNewRomanPSMT-49" transform="translate(986.083984 0)"/>
     <use xlink:href="#TimesNewRomanPSMT-46" transform="translate(1019.384766 0)"/>
     <use xlink:href="#TimesNewRomanPSMT-41" transform="translate(1067.625 0)"/>
     <use xlink:href="#TimesNewRomanPSMT-52" transform="translate(1139.841797 0)"/>
     <use xlink:href="#TimesNewRomanPSMT-31" transform="translate(1206.541016 0)"/>
     <use xlink:href="#TimesNewRomanPSMT-30" transform="translate(1256.541016 0)"/>
     <use xlink:href="#TimesNewRomanPSMT-5f" transform="translate(1306.541016 0)"/>
     <use xlink:href="#TimesNewRomanPSMT-6d" transform="translate(1356.541016 0)"/>
     <use xlink:href="#TimesNewRomanPSMT-6f" transform="translate(1434.324219 0)"/>
     <use xlink:href="#TimesNewRomanPSMT-64" transform="translate(1484.324219 0)"/>
     <use xlink:href="#TimesNewRomanPSMT-65" transform="translate(1534.324219 0)"/>
     <use xlink:href="#TimesNewRomanPSMT-6c" transform="translate(1578.708984 0)"/>
     <use xlink:href="#TimesNewRomanPSMT-5f" transform="translate(1606.492188 0)"/>
     <use xlink:href="#TimesNewRomanPSMT-28" transform="translate(1656.492188 0)"/>
     <use xlink:href="#TimesNewRomanPSMT-31" transform="translate(1689.792969 0)"/>
     <use xlink:href="#TimesNewRomanPSMT-30" transform="translate(1739.792969 0)"/>
     <use xlink:href="#TimesNewRomanPSMT-32" transform="translate(1789.792969 0)"/>
     <use xlink:href="#TimesNewRomanPSMT-34" transform="translate(1839.792969 0)"/>
     <use xlink:href="#TimesNewRomanPSMT-2b" transform="translate(1889.792969 0)"/>
     <use xlink:href="#TimesNewRomanPSMT-35" transform="translate(1946.189453 0)"/>
     <use xlink:href="#TimesNewRomanPSMT-31" transform="translate(1996.189453 0)"/>
     <use xlink:href="#TimesNewRomanPSMT-32" transform="translate(2046.189453 0)"/>
     <use xlink:href="#TimesNewRomanPSMT-2d" transform="translate(2096.189453 0)"/>
     <use xlink:href="#TimesNewRomanPSMT-35" transform="translate(2129.490234 0)"/>
     <use xlink:href="#TimesNewRomanPSMT-31" transform="translate(2179.490234 0)"/>
     <use xlink:href="#TimesNewRomanPSMT-32" transform="translate(2229.490234 0)"/>
     <use xlink:href="#TimesNewRomanPSMT-2d" transform="translate(2279.490234 0)"/>
     <use xlink:href="#TimesNewRomanPSMT-35" transform="translate(2312.791016 0)"/>
     <use xlink:href="#TimesNewRomanPSMT-31" transform="translate(2362.791016 0)"/>
     <use xlink:href="#TimesNewRomanPSMT-32" transform="translate(2412.791016 0)"/>
     <use xlink:href="#TimesNewRomanPSMT-2b" transform="translate(2462.791016 0)"/>
     <use xlink:href="#TimesNewRomanPSMT-31" transform="translate(2519.1875 0)"/>
     <use xlink:href="#TimesNewRomanPSMT-29" transform="translate(2569.1875 0)"/>
     <use xlink:href="#TimesNewRomanPSMT-5f" transform="translate(2602.488281 0)"/>
     <use xlink:href="#TimesNewRomanPSMT-31" transform="translate(2652.488281 0)"/>
     <use xlink:href="#TimesNewRomanPSMT-5f" transform="translate(2702.488281 0)"/>
     <use xlink:href="#TimesNewRomanPSMT-73" transform="translate(2752.488281 0)"/>
     <use xlink:href="#TimesNewRomanPSMT-61" transform="translate(2791.404297 0)"/>
     <use xlink:href="#TimesNewRomanPSMT-76" transform="translate(2835.789062 0)"/>
     <use xlink:href="#TimesNewRomanPSMT-65" transform="translate(2885.789062 0)"/>
     <use xlink:href="#TimesNewRomanPSMT-5f" transform="translate(2930.173828 0)"/>
     <use xlink:href="#TimesNewRomanPSMT-38" transform="translate(2980.173828 0)"/>
    </g>
   </g>
   <g id="legend_1">
    <g id="patch_7">
     <path d="M 244.022687 300.6435 
L 444.580188 300.6435 
Q 448.980187 300.6435 448.980187 296.2435 
L 448.980187 236.190375 
Q 448.980187 231.790375 444.580188 231.790375 
L 244.022687 231.790375 
Q 239.622687 231.790375 239.622687 236.190375 
L 239.622687 296.2435 
Q 239.622687 300.6435 244.022687 300.6435 
z
" style="fill: #ffffff; opacity: 0.8; stroke: #cccccc; stroke-linejoin: miter"/>
    </g>
    <g id="line2d_17">
     <path d="M 248.422687 248.290375 
L 270.422687 248.290375 
L 292.422687 248.290375 
" style="fill: none; stroke: #ffa500; stroke-width: 1.5; stroke-linecap: square"/>
    </g>
    <g id="text_11">
     <!-- Training loss -->
     <g transform="translate(310.022688 255.990375) scale(0.22 -0.22)">
      <defs>
       <path id="TimesNewRomanPSMT-54" d="M 3703 4238 
L 3750 3244 
L 3631 3244 
Q 3597 3506 3538 3619 
Q 3441 3800 3280 3886 
Q 3119 3972 2856 3972 
L 2259 3972 
L 2259 734 
Q 2259 344 2344 247 
Q 2463 116 2709 116 
L 2856 116 
L 2856 0 
L 1059 0 
L 1059 116 
L 1209 116 
Q 1478 116 1591 278 
Q 1659 378 1659 734 
L 1659 3972 
L 1150 3972 
Q 853 3972 728 3928 
Q 566 3869 450 3700 
Q 334 3531 313 3244 
L 194 3244 
L 244 4238 
L 3703 4238 
z
" transform="scale(0.015625)"/>
       <path id="TimesNewRomanPSMT-72" d="M 1038 2947 
L 1038 2303 
Q 1397 2947 1775 2947 
Q 1947 2947 2059 2842 
Q 2172 2738 2172 2600 
Q 2172 2478 2090 2393 
Q 2009 2309 1897 2309 
Q 1788 2309 1652 2417 
Q 1516 2525 1450 2525 
Q 1394 2525 1328 2463 
Q 1188 2334 1038 2041 
L 1038 669 
Q 1038 431 1097 309 
Q 1138 225 1241 169 
Q 1344 113 1538 113 
L 1538 0 
L 72 0 
L 72 113 
Q 291 113 397 181 
Q 475 231 506 341 
Q 522 394 522 644 
L 522 1753 
Q 522 2253 501 2348 
Q 481 2444 426 2487 
Q 372 2531 291 2531 
Q 194 2531 72 2484 
L 41 2597 
L 906 2947 
L 1038 2947 
z
" transform="scale(0.015625)"/>
       <path id="TimesNewRomanPSMT-69" d="M 928 4444 
Q 1059 4444 1151 4351 
Q 1244 4259 1244 4128 
Q 1244 3997 1151 3903 
Q 1059 3809 928 3809 
Q 797 3809 703 3903 
Q 609 3997 609 4128 
Q 609 4259 701 4351 
Q 794 4444 928 4444 
z
M 1188 2947 
L 1188 647 
Q 1188 378 1227 289 
Q 1266 200 1342 156 
Q 1419 113 1622 113 
L 1622 0 
L 231 0 
L 231 113 
Q 441 113 512 153 
Q 584 194 626 287 
Q 669 381 669 647 
L 669 1750 
Q 669 2216 641 2353 
Q 619 2453 572 2492 
Q 525 2531 444 2531 
Q 356 2531 231 2484 
L 188 2597 
L 1050 2947 
L 1188 2947 
z
" transform="scale(0.015625)"/>
       <path id="TimesNewRomanPSMT-6e" d="M 1034 2341 
Q 1538 2947 1994 2947 
Q 2228 2947 2397 2830 
Q 2566 2713 2666 2444 
Q 2734 2256 2734 1869 
L 2734 647 
Q 2734 375 2778 278 
Q 2813 200 2889 156 
Q 2966 113 3172 113 
L 3172 0 
L 1756 0 
L 1756 113 
L 1816 113 
Q 2016 113 2095 173 
Q 2175 234 2206 353 
Q 2219 400 2219 647 
L 2219 1819 
Q 2219 2209 2117 2386 
Q 2016 2563 1775 2563 
Q 1403 2563 1034 2156 
L 1034 647 
Q 1034 356 1069 288 
Q 1113 197 1189 155 
Q 1266 113 1500 113 
L 1500 0 
L 84 0 
L 84 113 
L 147 113 
Q 366 113 442 223 
Q 519 334 519 647 
L 519 1709 
Q 519 2225 495 2337 
Q 472 2450 423 2490 
Q 375 2531 294 2531 
Q 206 2531 84 2484 
L 38 2597 
L 900 2947 
L 1034 2947 
L 1034 2341 
z
" transform="scale(0.015625)"/>
       <path id="TimesNewRomanPSMT-67" d="M 966 1044 
Q 703 1172 562 1401 
Q 422 1631 422 1909 
Q 422 2334 742 2640 
Q 1063 2947 1563 2947 
Q 1972 2947 2272 2747 
L 2878 2747 
Q 3013 2747 3034 2739 
Q 3056 2731 3066 2713 
Q 3084 2684 3084 2613 
Q 3084 2531 3069 2500 
Q 3059 2484 3036 2475 
Q 3013 2466 2878 2466 
L 2506 2466 
Q 2681 2241 2681 1891 
Q 2681 1491 2375 1206 
Q 2069 922 1553 922 
Q 1341 922 1119 984 
Q 981 866 932 777 
Q 884 688 884 625 
Q 884 572 936 522 
Q 988 472 1138 450 
Q 1225 438 1575 428 
Q 2219 413 2409 384 
Q 2700 344 2873 169 
Q 3047 -6 3047 -263 
Q 3047 -616 2716 -925 
Q 2228 -1381 1444 -1381 
Q 841 -1381 425 -1109 
Q 191 -953 191 -784 
Q 191 -709 225 -634 
Q 278 -519 444 -313 
Q 466 -284 763 25 
Q 600 122 533 198 
Q 466 275 466 372 
Q 466 481 555 628 
Q 644 775 966 1044 
z
M 1509 2797 
Q 1278 2797 1122 2612 
Q 966 2428 966 2047 
Q 966 1553 1178 1281 
Q 1341 1075 1591 1075 
Q 1828 1075 1981 1253 
Q 2134 1431 2134 1813 
Q 2134 2309 1919 2591 
Q 1759 2797 1509 2797 
z
M 934 0 
Q 788 -159 713 -296 
Q 638 -434 638 -550 
Q 638 -700 819 -813 
Q 1131 -1006 1722 -1006 
Q 2284 -1006 2551 -807 
Q 2819 -609 2819 -384 
Q 2819 -222 2659 -153 
Q 2497 -84 2016 -72 
Q 1313 -53 934 0 
z
" transform="scale(0.015625)"/>
      </defs>
      <use xlink:href="#TimesNewRomanPSMT-54"/>
      <use xlink:href="#TimesNewRomanPSMT-72" transform="translate(57.583984 0)"/>
      <use xlink:href="#TimesNewRomanPSMT-61" transform="translate(90.884766 0)"/>
      <use xlink:href="#TimesNewRomanPSMT-69" transform="translate(135.269531 0)"/>
      <use xlink:href="#TimesNewRomanPSMT-6e" transform="translate(163.052734 0)"/>
      <use xlink:href="#TimesNewRomanPSMT-69" transform="translate(213.052734 0)"/>
      <use xlink:href="#TimesNewRomanPSMT-6e" transform="translate(240.835938 0)"/>
      <use xlink:href="#TimesNewRomanPSMT-67" transform="translate(290.835938 0)"/>
      <use xlink:href="#TimesNewRomanPSMT-20" transform="translate(340.835938 0)"/>
      <use xlink:href="#TimesNewRomanPSMT-6c" transform="translate(365.835938 0)"/>
      <use xlink:href="#TimesNewRomanPSMT-6f" transform="translate(393.619141 0)"/>
      <use xlink:href="#TimesNewRomanPSMT-73" transform="translate(443.619141 0)"/>
      <use xlink:href="#TimesNewRomanPSMT-73" transform="translate(482.535156 0)"/>
     </g>
    </g>
    <g id="line2d_18">
     <path d="M 248.422687 279.437562 
L 270.422687 279.437562 
L 292.422687 279.437562 
" style="fill: none; stroke: #008000; stroke-width: 1.5; stroke-linecap: square"/>
    </g>
    <g id="text_12">
     <!-- Validation loss -->
     <g transform="translate(310.022688 287.137562) scale(0.22 -0.22)">
      <defs>
       <path id="TimesNewRomanPSMT-56" d="M 4544 4238 
L 4544 4122 
Q 4319 4081 4203 3978 
Q 4038 3825 3909 3509 
L 2431 -97 
L 2316 -97 
L 728 3556 
Q 606 3838 556 3900 
Q 478 3997 364 4051 
Q 250 4106 56 4122 
L 56 4238 
L 1788 4238 
L 1788 4122 
Q 1494 4094 1406 4022 
Q 1319 3950 1319 3838 
Q 1319 3681 1463 3350 
L 2541 866 
L 3541 3319 
Q 3688 3681 3688 3822 
Q 3688 3913 3597 3995 
Q 3506 4078 3291 4113 
Q 3275 4116 3238 4122 
L 3238 4238 
L 4544 4238 
z
" transform="scale(0.015625)"/>
      </defs>
      <use xlink:href="#TimesNewRomanPSMT-56"/>
      <use xlink:href="#TimesNewRomanPSMT-61" transform="translate(61.091797 0)"/>
      <use xlink:href="#TimesNewRomanPSMT-6c" transform="translate(105.476562 0)"/>
      <use xlink:href="#TimesNewRomanPSMT-69" transform="translate(133.259766 0)"/>
      <use xlink:href="#TimesNewRomanPSMT-64" transform="translate(161.042969 0)"/>
      <use xlink:href="#TimesNewRomanPSMT-61" transform="translate(211.042969 0)"/>
      <use xlink:href="#TimesNewRomanPSMT-74" transform="translate(255.427734 0)"/>
      <use xlink:href="#TimesNewRomanPSMT-69" transform="translate(283.210938 0)"/>
      <use xlink:href="#TimesNewRomanPSMT-6f" transform="translate(310.994141 0)"/>
      <use xlink:href="#TimesNewRomanPSMT-6e" transform="translate(360.994141 0)"/>
      <use xlink:href="#TimesNewRomanPSMT-20" transform="translate(410.994141 0)"/>
      <use xlink:href="#TimesNewRomanPSMT-6c" transform="translate(435.994141 0)"/>
      <use xlink:href="#TimesNewRomanPSMT-6f" transform="translate(463.777344 0)"/>
      <use xlink:href="#TimesNewRomanPSMT-73" transform="translate(513.777344 0)"/>
      <use xlink:href="#TimesNewRomanPSMT-73" transform="translate(552.693359 0)"/>
     </g>
    </g>
   </g>
  </g>
 </g>
 <defs>
  <clipPath id="p1d6e8498b9">
   <rect x="228.622687" y="45.5315" width="357.12" height="266.112"/>
  </clipPath>
 </defs>
</svg>
