<?xml version="1.0" encoding="utf-8" standalone="no"?>
<!DOCTYPE svg PUBLIC "-//W3C//DTD SVG 1.1//EN"
  "http://www.w3.org/Graphics/SVG/1.1/DTD/svg11.dtd">
<svg xmlns:xlink="http://www.w3.org/1999/xlink" width="1145.404875pt" height="383.265687pt" viewBox="0 0 1145.404875 383.265687" xmlns="http://www.w3.org/2000/svg" version="1.1">
 <metadata>
  <rdf:RDF xmlns:dc="http://purl.org/dc/elements/1.1/" xmlns:cc="http://creativecommons.org/ns#" xmlns:rdf="http://www.w3.org/1999/02/22-rdf-syntax-ns#">
   <cc:Work>
    <dc:type rdf:resource="http://purl.org/dc/dcmitype/StillImage"/>
    <dc:date>2025-07-11T18:10:35.082294</dc:date>
    <dc:format>image/svg+xml</dc:format>
    <dc:creator>
     <cc:Agent>
      <dc:title>Matplotlib v3.10.3, https://matplotlib.org/</dc:title>
     </cc:Agent>
    </dc:creator>
   </cc:Work>
  </rdf:RDF>
 </metadata>
 <defs>
  <style type="text/css">*{stroke-linejoin: round; stroke-linecap: butt}</style>
 </defs>
 <g id="figure_1">
  <g id="patch_1">
   <path d="M 0 383.265687 
L 1145.404875 383.265687 
L 1145.404875 0 
L 0 0 
z
" style="fill: #ffffff"/>
  </g>
  <g id="axes_1">
   <g id="patch_2">
    <path d="M 394.142438 311.6435 
L 751.262438 311.6435 
L 751.262438 45.5315 
L 394.142438 45.5315 
z
" style="fill: #ffffff"/>
   </g>
   <g id="matplotlib.axis_1">
    <g id="xtick_1">
     <g id="line2d_1">
      <path d="M 394.142438 311.6435 
L 394.142438 45.5315 
" clip-path="url(#p199b70f524)" style="fill: none; stroke: #b0b0b0; stroke-opacity: 0.3; stroke-width: 0.8; stroke-linecap: square"/>
     </g>
     <g id="line2d_2">
      <defs>
       <path id="m1781850f11" d="M 0 0 
L 0 3.5 
" style="stroke: #000000; stroke-width: 0.8"/>
      </defs>
      <g>
       <use xlink:href="#m1781850f11" x="394.142438" y="311.6435" style="stroke: #000000; stroke-width: 0.8"/>
      </g>
     </g>
     <g id="text_1">
      <!-- 0.0 -->
      <g transform="translate(380.392438 333.91975) scale(0.22 -0.22)">
       <defs>
        <path id="TimesNewRomanPSMT-30" d="M 231 2094 
Q 231 2819 450 3342 
Q 669 3866 1031 4122 
Q 1313 4325 1613 4325 
Q 2100 4325 2488 3828 
Q 2972 3213 2972 2159 
Q 2972 1422 2759 906 
Q 2547 391 2217 158 
Q 1888 -75 1581 -75 
Q 975 -75 572 641 
Q 231 1244 231 2094 
z
M 844 2016 
Q 844 1141 1059 588 
Q 1238 122 1591 122 
Q 1759 122 1940 273 
Q 2122 425 2216 781 
Q 2359 1319 2359 2297 
Q 2359 3022 2209 3506 
Q 2097 3866 1919 4016 
Q 1791 4119 1609 4119 
Q 1397 4119 1231 3928 
Q 1006 3669 925 3112 
Q 844 2556 844 2016 
z
" transform="scale(0.015625)"/>
        <path id="TimesNewRomanPSMT-2e" d="M 800 606 
Q 947 606 1047 504 
Q 1147 403 1147 259 
Q 1147 116 1045 14 
Q 944 -88 800 -88 
Q 656 -88 554 14 
Q 453 116 453 259 
Q 453 406 554 506 
Q 656 606 800 606 
z
" transform="scale(0.015625)"/>
       </defs>
       <use xlink:href="#TimesNewRomanPSMT-30"/>
       <use xlink:href="#TimesNewRomanPSMT-2e" transform="translate(50 0)"/>
       <use xlink:href="#TimesNewRomanPSMT-30" transform="translate(75 0)"/>
      </g>
     </g>
    </g>
    <g id="xtick_2">
     <g id="line2d_3">
      <path d="M 520.460109 311.6435 
L 520.460109 45.5315 
" clip-path="url(#p199b70f524)" style="fill: none; stroke: #b0b0b0; stroke-opacity: 0.3; stroke-width: 0.8; stroke-linecap: square"/>
     </g>
     <g id="line2d_4">
      <g>
       <use xlink:href="#m1781850f11" x="520.460109" y="311.6435" style="stroke: #000000; stroke-width: 0.8"/>
      </g>
     </g>
     <g id="text_2">
      <!-- 0.5 -->
      <g transform="translate(506.710109 333.91975) scale(0.22 -0.22)">
       <defs>
        <path id="TimesNewRomanPSMT-35" d="M 2778 4238 
L 2534 3706 
L 1259 3706 
L 981 3138 
Q 1809 3016 2294 2522 
Q 2709 2097 2709 1522 
Q 2709 1188 2573 903 
Q 2438 619 2231 419 
Q 2025 219 1772 97 
Q 1413 -75 1034 -75 
Q 653 -75 479 54 
Q 306 184 306 341 
Q 306 428 378 495 
Q 450 563 559 563 
Q 641 563 702 538 
Q 763 513 909 409 
Q 1144 247 1384 247 
Q 1750 247 2026 523 
Q 2303 800 2303 1197 
Q 2303 1581 2056 1914 
Q 1809 2247 1375 2428 
Q 1034 2569 447 2591 
L 1259 4238 
L 2778 4238 
z
" transform="scale(0.015625)"/>
       </defs>
       <use xlink:href="#TimesNewRomanPSMT-30"/>
       <use xlink:href="#TimesNewRomanPSMT-2e" transform="translate(50 0)"/>
       <use xlink:href="#TimesNewRomanPSMT-35" transform="translate(75 0)"/>
      </g>
     </g>
    </g>
    <g id="xtick_3">
     <g id="line2d_5">
      <path d="M 646.77778 311.6435 
L 646.77778 45.5315 
" clip-path="url(#p199b70f524)" style="fill: none; stroke: #b0b0b0; stroke-opacity: 0.3; stroke-width: 0.8; stroke-linecap: square"/>
     </g>
     <g id="line2d_6">
      <g>
       <use xlink:href="#m1781850f11" x="646.77778" y="311.6435" style="stroke: #000000; stroke-width: 0.8"/>
      </g>
     </g>
     <g id="text_3">
      <!-- 1.0 -->
      <g transform="translate(633.02778 333.91975) scale(0.22 -0.22)">
       <defs>
        <path id="TimesNewRomanPSMT-31" d="M 750 3822 
L 1781 4325 
L 1884 4325 
L 1884 747 
Q 1884 391 1914 303 
Q 1944 216 2037 169 
Q 2131 122 2419 116 
L 2419 0 
L 825 0 
L 825 116 
Q 1125 122 1212 167 
Q 1300 213 1334 289 
Q 1369 366 1369 747 
L 1369 3034 
Q 1369 3497 1338 3628 
Q 1316 3728 1258 3775 
Q 1200 3822 1119 3822 
Q 1003 3822 797 3725 
L 750 3822 
z
" transform="scale(0.015625)"/>
       </defs>
       <use xlink:href="#TimesNewRomanPSMT-31"/>
       <use xlink:href="#TimesNewRomanPSMT-2e" transform="translate(50 0)"/>
       <use xlink:href="#TimesNewRomanPSMT-30" transform="translate(75 0)"/>
      </g>
     </g>
    </g>
    <g id="text_4">
     <!-- $\kappa  = \frac{ln(n)}{ln(d)}$ -->
     <g transform="translate(540.692438 364.185687) scale(0.22 -0.22)">
      <defs>
       <path id="STIXGeneral-Italic-3ba" d="M 979 1440 
L 998 1446 
Q 1850 2541 2464 2790 
Q 2547 2822 2630 2822 
Q 2797 2822 2886 2736 
Q 2976 2650 2976 2522 
Q 2976 2387 2893 2307 
Q 2810 2227 2682 2227 
Q 2605 2227 2502 2288 
Q 2400 2349 2336 2349 
Q 2170 2349 1990 2205 
Q 1811 2061 1414 1645 
L 2042 544 
Q 2202 262 2310 182 
Q 2419 102 2624 102 
L 2624 0 
Q 2374 -83 2182 -83 
Q 1786 -83 1555 326 
L 960 1350 
L 576 0 
L 90 0 
L 640 1978 
Q 730 2317 730 2406 
Q 730 2560 518 2560 
L 339 2560 
L 339 2650 
Q 678 2694 1306 2822 
L 1325 2803 
L 979 1440 
z
" transform="scale(0.015625)"/>
       <path id="STIXGeneral-Regular-3d" d="M 4077 2048 
L 307 2048 
L 307 2470 
L 4077 2470 
L 4077 2048 
z
M 4077 768 
L 307 768 
L 307 1190 
L 4077 1190 
L 4077 768 
z
" transform="scale(0.015625)"/>
       <path id="STIXGeneral-Italic-6c" d="M 1786 4339 
L 806 595 
Q 755 410 755 320 
Q 755 205 864 205 
Q 1037 205 1293 570 
L 1453 794 
L 1542 730 
Q 1254 275 1046 102 
Q 838 -70 576 -70 
Q 262 -70 262 288 
Q 262 397 288 480 
L 1165 3834 
Q 1184 3898 1184 3955 
Q 1184 4096 870 4096 
L 755 4096 
L 755 4198 
Q 1203 4250 1747 4371 
L 1786 4339 
z
" transform="scale(0.015625)"/>
       <path id="STIXGeneral-Italic-6e" d="M 2944 749 
L 3034 666 
Q 2707 218 2534 80 
Q 2362 -58 2138 -58 
Q 2010 -58 1923 28 
Q 1837 115 1837 288 
Q 1837 390 1939 768 
L 2221 1805 
Q 2310 2150 2310 2310 
Q 2310 2496 2157 2496 
Q 1971 2496 1750 2275 
Q 1530 2054 1210 1587 
Q 998 1274 899 1024 
Q 800 774 570 0 
L 90 0 
L 704 2240 
Q 717 2304 717 2349 
Q 717 2445 630 2480 
Q 544 2515 301 2522 
L 301 2624 
Q 550 2675 857 2729 
Q 1165 2784 1338 2822 
L 1363 2810 
L 934 1414 
Q 1408 2170 1753 2496 
Q 2099 2822 2413 2822 
Q 2611 2822 2720 2716 
Q 2829 2611 2829 2432 
Q 2829 2272 2765 2048 
L 2406 749 
Q 2317 429 2317 358 
Q 2317 243 2419 243 
Q 2541 243 2810 582 
Q 2854 634 2944 749 
z
" transform="scale(0.015625)"/>
       <path id="STIXGeneral-Regular-28" d="M 1946 -1030 
L 1869 -1133 
Q 1126 -710 716 32 
Q 307 774 307 1613 
Q 307 3386 1888 4326 
L 1946 4224 
Q 1293 3667 1075 3126 
Q 858 2586 858 1632 
Q 858 685 1082 96 
Q 1306 -493 1946 -1030 
z
" transform="scale(0.015625)"/>
       <path id="STIXGeneral-Regular-29" d="M 186 4224 
L 262 4326 
Q 992 3891 1408 3148 
Q 1824 2406 1824 1581 
Q 1824 -166 243 -1133 
L 186 -1030 
Q 845 -486 1059 54 
Q 1274 595 1274 1562 
Q 1274 2534 1059 3120 
Q 845 3706 186 4224 
z
" transform="scale(0.015625)"/>
       <path id="STIXGeneral-Italic-64" d="M 3334 4371 
L 3373 4333 
L 3123 3360 
L 2739 1958 
Q 2323 429 2323 384 
Q 2323 256 2438 256 
Q 2522 256 2614 336 
Q 2707 416 2963 710 
L 3040 646 
Q 2547 -83 2099 -83 
Q 1978 -83 1907 -6 
Q 1837 70 1837 205 
Q 1837 397 1920 774 
Q 1645 307 1379 118 
Q 1114 -70 781 -70 
Q 461 -70 278 125 
Q 96 320 96 678 
Q 96 1440 713 2131 
Q 1331 2822 1965 2822 
Q 2163 2822 2256 2732 
Q 2349 2643 2381 2451 
L 2387 2451 
L 2675 3494 
Q 2765 3808 2765 3949 
Q 2765 4051 2694 4076 
Q 2624 4102 2355 4115 
L 2355 4224 
Q 2848 4269 3334 4371 
z
M 2278 2310 
Q 2278 2477 2185 2576 
Q 2093 2675 1978 2675 
Q 1677 2675 1395 2381 
Q 1075 2042 864 1571 
Q 653 1101 653 704 
Q 653 486 752 361 
Q 851 237 1024 237 
Q 1312 237 1606 550 
Q 1901 864 2089 1350 
Q 2278 1837 2278 2310 
z
" transform="scale(0.015625)"/>
      </defs>
      <use xlink:href="#STIXGeneral-Italic-3ba" transform="translate(0 0.003125)"/>
      <use xlink:href="#STIXGeneral-Regular-3d" transform="translate(58.83999 0.003125)"/>
      <use xlink:href="#STIXGeneral-Italic-6c" transform="translate(141.779971 50.192188) scale(0.7)"/>
      <use xlink:href="#STIXGeneral-Italic-6e" transform="translate(161.239963 50.192188) scale(0.7)"/>
      <use xlink:href="#STIXGeneral-Regular-28" transform="translate(196.239952 50.192188) scale(0.7)"/>
      <use xlink:href="#STIXGeneral-Italic-6e" transform="translate(219.549944 50.192188) scale(0.7)"/>
      <use xlink:href="#STIXGeneral-Regular-29" transform="translate(254.549933 50.192188) scale(0.7)"/>
      <use xlink:href="#STIXGeneral-Italic-6c" transform="translate(141.779971 -41.257812) scale(0.7)"/>
      <use xlink:href="#STIXGeneral-Italic-6e" transform="translate(161.239963 -41.257812) scale(0.7)"/>
      <use xlink:href="#STIXGeneral-Regular-28" transform="translate(196.239952 -41.257812) scale(0.7)"/>
      <use xlink:href="#STIXGeneral-Italic-64" transform="translate(219.549944 -41.257812) scale(0.7)"/>
      <use xlink:href="#STIXGeneral-Regular-29" transform="translate(254.549933 -41.257812) scale(0.7)"/>
      <path d="M 141.779971 12.8 
L 141.779971 19.05 
L 277.859924 19.05 
L 277.859924 12.8 
L 141.779971 12.8 
z
"/>
     </g>
    </g>
   </g>
   <g id="matplotlib.axis_2">
    <g id="ytick_1">
     <g id="line2d_7">
      <path d="M 394.142438 311.6435 
L 751.262438 311.6435 
" clip-path="url(#p199b70f524)" style="fill: none; stroke: #b0b0b0; stroke-opacity: 0.3; stroke-width: 0.8; stroke-linecap: square"/>
     </g>
     <g id="line2d_8">
      <defs>
       <path id="mca60157d99" d="M 0 0 
L -3.5 0 
" style="stroke: #000000; stroke-width: 0.8"/>
      </defs>
      <g>
       <use xlink:href="#mca60157d99" x="394.142438" y="311.6435" style="stroke: #000000; stroke-width: 0.8"/>
      </g>
     </g>
     <g id="text_5">
      <!-- 0.0 -->
      <g transform="translate(359.642438 319.281625) scale(0.22 -0.22)">
       <use xlink:href="#TimesNewRomanPSMT-30"/>
       <use xlink:href="#TimesNewRomanPSMT-2e" transform="translate(50 0)"/>
       <use xlink:href="#TimesNewRomanPSMT-30" transform="translate(75 0)"/>
      </g>
     </g>
    </g>
    <g id="ytick_2">
     <g id="line2d_9">
      <path d="M 394.142438 285.0323 
L 751.262438 285.0323 
" clip-path="url(#p199b70f524)" style="fill: none; stroke: #b0b0b0; stroke-opacity: 0.3; stroke-width: 0.8; stroke-linecap: square"/>
     </g>
     <g id="line2d_10">
      <g>
       <use xlink:href="#mca60157d99" x="394.142438" y="285.0323" style="stroke: #000000; stroke-width: 0.8"/>
      </g>
     </g>
     <g id="text_6">
      <!-- 0.1 -->
      <g transform="translate(359.642438 292.670425) scale(0.22 -0.22)">
       <use xlink:href="#TimesNewRomanPSMT-30"/>
       <use xlink:href="#TimesNewRomanPSMT-2e" transform="translate(50 0)"/>
       <use xlink:href="#TimesNewRomanPSMT-31" transform="translate(75 0)"/>
      </g>
     </g>
    </g>
    <g id="ytick_3">
     <g id="line2d_11">
      <path d="M 394.142438 258.4211 
L 751.262438 258.4211 
" clip-path="url(#p199b70f524)" style="fill: none; stroke: #b0b0b0; stroke-opacity: 0.3; stroke-width: 0.8; stroke-linecap: square"/>
     </g>
     <g id="line2d_12">
      <g>
       <use xlink:href="#mca60157d99" x="394.142438" y="258.4211" style="stroke: #000000; stroke-width: 0.8"/>
      </g>
     </g>
     <g id="text_7">
      <!-- 0.2 -->
      <g transform="translate(359.642438 266.059225) scale(0.22 -0.22)">
       <defs>
        <path id="TimesNewRomanPSMT-32" d="M 2934 816 
L 2638 0 
L 138 0 
L 138 116 
Q 1241 1122 1691 1759 
Q 2141 2397 2141 2925 
Q 2141 3328 1894 3587 
Q 1647 3847 1303 3847 
Q 991 3847 742 3664 
Q 494 3481 375 3128 
L 259 3128 
Q 338 3706 661 4015 
Q 984 4325 1469 4325 
Q 1984 4325 2329 3994 
Q 2675 3663 2675 3213 
Q 2675 2891 2525 2569 
Q 2294 2063 1775 1497 
Q 997 647 803 472 
L 1909 472 
Q 2247 472 2383 497 
Q 2519 522 2628 598 
Q 2738 675 2819 816 
L 2934 816 
z
" transform="scale(0.015625)"/>
       </defs>
       <use xlink:href="#TimesNewRomanPSMT-30"/>
       <use xlink:href="#TimesNewRomanPSMT-2e" transform="translate(50 0)"/>
       <use xlink:href="#TimesNewRomanPSMT-32" transform="translate(75 0)"/>
      </g>
     </g>
    </g>
    <g id="ytick_4">
     <g id="line2d_13">
      <path d="M 394.142438 231.8099 
L 751.262438 231.8099 
" clip-path="url(#p199b70f524)" style="fill: none; stroke: #b0b0b0; stroke-opacity: 0.3; stroke-width: 0.8; stroke-linecap: square"/>
     </g>
     <g id="line2d_14">
      <g>
       <use xlink:href="#mca60157d99" x="394.142438" y="231.8099" style="stroke: #000000; stroke-width: 0.8"/>
      </g>
     </g>
     <g id="text_8">
      <!-- 0.3 -->
      <g transform="translate(359.642438 239.448025) scale(0.22 -0.22)">
       <defs>
        <path id="TimesNewRomanPSMT-33" d="M 325 3431 
Q 506 3859 782 4092 
Q 1059 4325 1472 4325 
Q 1981 4325 2253 3994 
Q 2459 3747 2459 3466 
Q 2459 3003 1878 2509 
Q 2269 2356 2469 2072 
Q 2669 1788 2669 1403 
Q 2669 853 2319 450 
Q 1863 -75 997 -75 
Q 569 -75 414 31 
Q 259 138 259 259 
Q 259 350 332 419 
Q 406 488 509 488 
Q 588 488 669 463 
Q 722 447 909 348 
Q 1097 250 1169 231 
Q 1284 197 1416 197 
Q 1734 197 1970 444 
Q 2206 691 2206 1028 
Q 2206 1275 2097 1509 
Q 2016 1684 1919 1775 
Q 1784 1900 1550 2001 
Q 1316 2103 1072 2103 
L 972 2103 
L 972 2197 
Q 1219 2228 1467 2375 
Q 1716 2522 1828 2728 
Q 1941 2934 1941 3181 
Q 1941 3503 1739 3701 
Q 1538 3900 1238 3900 
Q 753 3900 428 3381 
L 325 3431 
z
" transform="scale(0.015625)"/>
       </defs>
       <use xlink:href="#TimesNewRomanPSMT-30"/>
       <use xlink:href="#TimesNewRomanPSMT-2e" transform="translate(50 0)"/>
       <use xlink:href="#TimesNewRomanPSMT-33" transform="translate(75 0)"/>
      </g>
     </g>
    </g>
    <g id="ytick_5">
     <g id="line2d_15">
      <path d="M 394.142438 205.1987 
L 751.262438 205.1987 
" clip-path="url(#p199b70f524)" style="fill: none; stroke: #b0b0b0; stroke-opacity: 0.3; stroke-width: 0.8; stroke-linecap: square"/>
     </g>
     <g id="line2d_16">
      <g>
       <use xlink:href="#mca60157d99" x="394.142438" y="205.1987" style="stroke: #000000; stroke-width: 0.8"/>
      </g>
     </g>
     <g id="text_9">
      <!-- 0.4 -->
      <g transform="translate(359.642438 212.836825) scale(0.22 -0.22)">
       <defs>
        <path id="TimesNewRomanPSMT-34" d="M 2978 1563 
L 2978 1119 
L 2409 1119 
L 2409 0 
L 1894 0 
L 1894 1119 
L 100 1119 
L 100 1519 
L 2066 4325 
L 2409 4325 
L 2409 1563 
L 2978 1563 
z
M 1894 1563 
L 1894 3666 
L 406 1563 
L 1894 1563 
z
" transform="scale(0.015625)"/>
       </defs>
       <use xlink:href="#TimesNewRomanPSMT-30"/>
       <use xlink:href="#TimesNewRomanPSMT-2e" transform="translate(50 0)"/>
       <use xlink:href="#TimesNewRomanPSMT-34" transform="translate(75 0)"/>
      </g>
     </g>
    </g>
    <g id="ytick_6">
     <g id="line2d_17">
      <path d="M 394.142438 178.5875 
L 751.262438 178.5875 
" clip-path="url(#p199b70f524)" style="fill: none; stroke: #b0b0b0; stroke-opacity: 0.3; stroke-width: 0.8; stroke-linecap: square"/>
     </g>
     <g id="line2d_18">
      <g>
       <use xlink:href="#mca60157d99" x="394.142438" y="178.5875" style="stroke: #000000; stroke-width: 0.8"/>
      </g>
     </g>
     <g id="text_10">
      <!-- 0.5 -->
      <g transform="translate(359.642438 186.225625) scale(0.22 -0.22)">
       <use xlink:href="#TimesNewRomanPSMT-30"/>
       <use xlink:href="#TimesNewRomanPSMT-2e" transform="translate(50 0)"/>
       <use xlink:href="#TimesNewRomanPSMT-35" transform="translate(75 0)"/>
      </g>
     </g>
    </g>
    <g id="ytick_7">
     <g id="line2d_19">
      <path d="M 394.142438 151.9763 
L 751.262438 151.9763 
" clip-path="url(#p199b70f524)" style="fill: none; stroke: #b0b0b0; stroke-opacity: 0.3; stroke-width: 0.8; stroke-linecap: square"/>
     </g>
     <g id="line2d_20">
      <g>
       <use xlink:href="#mca60157d99" x="394.142438" y="151.9763" style="stroke: #000000; stroke-width: 0.8"/>
      </g>
     </g>
     <g id="text_11">
      <!-- 0.6 -->
      <g transform="translate(359.642438 159.614425) scale(0.22 -0.22)">
       <defs>
        <path id="TimesNewRomanPSMT-36" d="M 2869 4325 
L 2869 4209 
Q 2456 4169 2195 4045 
Q 1934 3922 1679 3669 
Q 1425 3416 1258 3105 
Q 1091 2794 978 2366 
Q 1428 2675 1881 2675 
Q 2316 2675 2634 2325 
Q 2953 1975 2953 1425 
Q 2953 894 2631 456 
Q 2244 -75 1606 -75 
Q 1172 -75 869 213 
Q 275 772 275 1663 
Q 275 2231 503 2743 
Q 731 3256 1154 3653 
Q 1578 4050 1965 4187 
Q 2353 4325 2688 4325 
L 2869 4325 
z
M 925 2138 
Q 869 1716 869 1456 
Q 869 1156 980 804 
Q 1091 453 1309 247 
Q 1469 100 1697 100 
Q 1969 100 2183 356 
Q 2397 613 2397 1088 
Q 2397 1622 2184 2012 
Q 1972 2403 1581 2403 
Q 1463 2403 1327 2353 
Q 1191 2303 925 2138 
z
" transform="scale(0.015625)"/>
       </defs>
       <use xlink:href="#TimesNewRomanPSMT-30"/>
       <use xlink:href="#TimesNewRomanPSMT-2e" transform="translate(50 0)"/>
       <use xlink:href="#TimesNewRomanPSMT-36" transform="translate(75 0)"/>
      </g>
     </g>
    </g>
    <g id="ytick_8">
     <g id="line2d_21">
      <path d="M 394.142438 125.3651 
L 751.262438 125.3651 
" clip-path="url(#p199b70f524)" style="fill: none; stroke: #b0b0b0; stroke-opacity: 0.3; stroke-width: 0.8; stroke-linecap: square"/>
     </g>
     <g id="line2d_22">
      <g>
       <use xlink:href="#mca60157d99" x="394.142438" y="125.3651" style="stroke: #000000; stroke-width: 0.8"/>
      </g>
     </g>
     <g id="text_12">
      <!-- 0.7 -->
      <g transform="translate(359.642438 133.003225) scale(0.22 -0.22)">
       <defs>
        <path id="TimesNewRomanPSMT-37" d="M 644 4238 
L 2916 4238 
L 2916 4119 
L 1503 -88 
L 1153 -88 
L 2419 3728 
L 1253 3728 
Q 900 3728 750 3644 
Q 488 3500 328 3200 
L 238 3234 
L 644 4238 
z
" transform="scale(0.015625)"/>
       </defs>
       <use xlink:href="#TimesNewRomanPSMT-30"/>
       <use xlink:href="#TimesNewRomanPSMT-2e" transform="translate(50 0)"/>
       <use xlink:href="#TimesNewRomanPSMT-37" transform="translate(75 0)"/>
      </g>
     </g>
    </g>
    <g id="ytick_9">
     <g id="line2d_23">
      <path d="M 394.142438 98.7539 
L 751.262438 98.7539 
" clip-path="url(#p199b70f524)" style="fill: none; stroke: #b0b0b0; stroke-opacity: 0.3; stroke-width: 0.8; stroke-linecap: square"/>
     </g>
     <g id="line2d_24">
      <g>
       <use xlink:href="#mca60157d99" x="394.142438" y="98.7539" style="stroke: #000000; stroke-width: 0.8"/>
      </g>
     </g>
     <g id="text_13">
      <!-- 0.8 -->
      <g transform="translate(359.642438 106.392025) scale(0.22 -0.22)">
       <defs>
        <path id="TimesNewRomanPSMT-38" d="M 1228 2134 
Q 725 2547 579 2797 
Q 434 3047 434 3316 
Q 434 3728 753 4026 
Q 1072 4325 1600 4325 
Q 2113 4325 2425 4047 
Q 2738 3769 2738 3413 
Q 2738 3175 2569 2928 
Q 2400 2681 1866 2347 
Q 2416 1922 2594 1678 
Q 2831 1359 2831 1006 
Q 2831 559 2490 242 
Q 2150 -75 1597 -75 
Q 994 -75 656 303 
Q 388 606 388 966 
Q 388 1247 577 1523 
Q 766 1800 1228 2134 
z
M 1719 2469 
Q 2094 2806 2194 3001 
Q 2294 3197 2294 3444 
Q 2294 3772 2109 3958 
Q 1925 4144 1606 4144 
Q 1288 4144 1088 3959 
Q 888 3775 888 3528 
Q 888 3366 970 3203 
Q 1053 3041 1206 2894 
L 1719 2469 
z
M 1375 2016 
Q 1116 1797 991 1539 
Q 866 1281 866 981 
Q 866 578 1086 336 
Q 1306 94 1647 94 
Q 1984 94 2187 284 
Q 2391 475 2391 747 
Q 2391 972 2272 1150 
Q 2050 1481 1375 2016 
z
" transform="scale(0.015625)"/>
       </defs>
       <use xlink:href="#TimesNewRomanPSMT-30"/>
       <use xlink:href="#TimesNewRomanPSMT-2e" transform="translate(50 0)"/>
       <use xlink:href="#TimesNewRomanPSMT-38" transform="translate(75 0)"/>
      </g>
     </g>
    </g>
    <g id="ytick_10">
     <g id="line2d_25">
      <path d="M 394.142438 72.1427 
L 751.262438 72.1427 
" clip-path="url(#p199b70f524)" style="fill: none; stroke: #b0b0b0; stroke-opacity: 0.3; stroke-width: 0.8; stroke-linecap: square"/>
     </g>
     <g id="line2d_26">
      <g>
       <use xlink:href="#mca60157d99" x="394.142438" y="72.1427" style="stroke: #000000; stroke-width: 0.8"/>
      </g>
     </g>
     <g id="text_14">
      <!-- 0.9 -->
      <g transform="translate(359.642438 79.780825) scale(0.22 -0.22)">
       <defs>
        <path id="TimesNewRomanPSMT-39" d="M 338 -88 
L 338 28 
Q 744 34 1094 217 
Q 1444 400 1770 856 
Q 2097 1313 2225 1859 
Q 1734 1544 1338 1544 
Q 891 1544 572 1889 
Q 253 2234 253 2806 
Q 253 3363 572 3797 
Q 956 4325 1575 4325 
Q 2097 4325 2469 3894 
Q 2925 3359 2925 2575 
Q 2925 1869 2578 1258 
Q 2231 647 1613 244 
Q 1109 -88 516 -88 
L 338 -88 
z
M 2275 2091 
Q 2331 2497 2331 2741 
Q 2331 3044 2228 3395 
Q 2125 3747 1936 3934 
Q 1747 4122 1506 4122 
Q 1228 4122 1018 3872 
Q 809 3622 809 3128 
Q 809 2469 1088 2097 
Q 1291 1828 1588 1828 
Q 1731 1828 1928 1897 
Q 2125 1966 2275 2091 
z
" transform="scale(0.015625)"/>
       </defs>
       <use xlink:href="#TimesNewRomanPSMT-30"/>
       <use xlink:href="#TimesNewRomanPSMT-2e" transform="translate(50 0)"/>
       <use xlink:href="#TimesNewRomanPSMT-39" transform="translate(75 0)"/>
      </g>
     </g>
    </g>
    <g id="ytick_11">
     <g id="line2d_27">
      <path d="M 394.142438 45.5315 
L 751.262438 45.5315 
" clip-path="url(#p199b70f524)" style="fill: none; stroke: #b0b0b0; stroke-opacity: 0.3; stroke-width: 0.8; stroke-linecap: square"/>
     </g>
     <g id="line2d_28">
      <g>
       <use xlink:href="#mca60157d99" x="394.142438" y="45.5315" style="stroke: #000000; stroke-width: 0.8"/>
      </g>
     </g>
     <g id="text_15">
      <!-- 1.0 -->
      <g transform="translate(359.642438 53.169625) scale(0.22 -0.22)">
       <use xlink:href="#TimesNewRomanPSMT-31"/>
       <use xlink:href="#TimesNewRomanPSMT-2e" transform="translate(50 0)"/>
       <use xlink:href="#TimesNewRomanPSMT-30" transform="translate(75 0)"/>
      </g>
     </g>
    </g>
    <g id="text_16">
     <!-- Accuracy -->
     <g transform="translate(350.89525 220.726094) rotate(-90) scale(0.22 -0.22)">
      <defs>
       <path id="TimesNewRomanPSMT-41" d="M 2928 1419 
L 1288 1419 
L 1000 750 
Q 894 503 894 381 
Q 894 284 986 211 
Q 1078 138 1384 116 
L 1384 0 
L 50 0 
L 50 116 
Q 316 163 394 238 
Q 553 388 747 847 
L 2238 4334 
L 2347 4334 
L 3822 809 
Q 4000 384 4145 257 
Q 4291 131 4550 116 
L 4550 0 
L 2878 0 
L 2878 116 
Q 3131 128 3220 200 
Q 3309 272 3309 375 
Q 3309 513 3184 809 
L 2928 1419 
z
M 2841 1650 
L 2122 3363 
L 1384 1650 
L 2841 1650 
z
" transform="scale(0.015625)"/>
       <path id="TimesNewRomanPSMT-63" d="M 2631 1088 
Q 2516 522 2178 217 
Q 1841 -88 1431 -88 
Q 944 -88 581 321 
Q 219 731 219 1428 
Q 219 2103 620 2525 
Q 1022 2947 1584 2947 
Q 2006 2947 2278 2723 
Q 2550 2500 2550 2259 
Q 2550 2141 2473 2067 
Q 2397 1994 2259 1994 
Q 2075 1994 1981 2113 
Q 1928 2178 1911 2362 
Q 1894 2547 1784 2644 
Q 1675 2738 1481 2738 
Q 1169 2738 978 2506 
Q 725 2200 725 1697 
Q 725 1184 976 792 
Q 1228 400 1656 400 
Q 1963 400 2206 609 
Q 2378 753 2541 1131 
L 2631 1088 
z
" transform="scale(0.015625)"/>
       <path id="TimesNewRomanPSMT-75" d="M 2709 2863 
L 2709 1128 
Q 2709 631 2732 520 
Q 2756 409 2807 365 
Q 2859 322 2928 322 
Q 3025 322 3147 375 
L 3191 266 
L 2334 -88 
L 2194 -88 
L 2194 519 
Q 1825 119 1631 15 
Q 1438 -88 1222 -88 
Q 981 -88 804 51 
Q 628 191 559 409 
Q 491 628 491 1028 
L 491 2306 
Q 491 2509 447 2587 
Q 403 2666 317 2708 
Q 231 2750 6 2747 
L 6 2863 
L 1009 2863 
L 1009 947 
Q 1009 547 1148 422 
Q 1288 297 1484 297 
Q 1619 297 1789 381 
Q 1959 466 2194 703 
L 2194 2325 
Q 2194 2569 2105 2655 
Q 2016 2741 1734 2747 
L 1734 2863 
L 2709 2863 
z
" transform="scale(0.015625)"/>
       <path id="TimesNewRomanPSMT-72" d="M 1038 2947 
L 1038 2303 
Q 1397 2947 1775 2947 
Q 1947 2947 2059 2842 
Q 2172 2738 2172 2600 
Q 2172 2478 2090 2393 
Q 2009 2309 1897 2309 
Q 1788 2309 1652 2417 
Q 1516 2525 1450 2525 
Q 1394 2525 1328 2463 
Q 1188 2334 1038 2041 
L 1038 669 
Q 1038 431 1097 309 
Q 1138 225 1241 169 
Q 1344 113 1538 113 
L 1538 0 
L 72 0 
L 72 113 
Q 291 113 397 181 
Q 475 231 506 341 
Q 522 394 522 644 
L 522 1753 
Q 522 2253 501 2348 
Q 481 2444 426 2487 
Q 372 2531 291 2531 
Q 194 2531 72 2484 
L 41 2597 
L 906 2947 
L 1038 2947 
z
" transform="scale(0.015625)"/>
       <path id="TimesNewRomanPSMT-61" d="M 1822 413 
Q 1381 72 1269 19 
Q 1100 -59 909 -59 
Q 613 -59 420 144 
Q 228 347 228 678 
Q 228 888 322 1041 
Q 450 1253 767 1440 
Q 1084 1628 1822 1897 
L 1822 2009 
Q 1822 2438 1686 2597 
Q 1550 2756 1291 2756 
Q 1094 2756 978 2650 
Q 859 2544 859 2406 
L 866 2225 
Q 866 2081 792 2003 
Q 719 1925 600 1925 
Q 484 1925 411 2006 
Q 338 2088 338 2228 
Q 338 2497 613 2722 
Q 888 2947 1384 2947 
Q 1766 2947 2009 2819 
Q 2194 2722 2281 2516 
Q 2338 2381 2338 1966 
L 2338 994 
Q 2338 584 2353 492 
Q 2369 400 2405 369 
Q 2441 338 2488 338 
Q 2538 338 2575 359 
Q 2641 400 2828 588 
L 2828 413 
Q 2478 -56 2159 -56 
Q 2006 -56 1915 50 
Q 1825 156 1822 413 
z
M 1822 616 
L 1822 1706 
Q 1350 1519 1213 1441 
Q 966 1303 859 1153 
Q 753 1003 753 825 
Q 753 600 887 451 
Q 1022 303 1197 303 
Q 1434 303 1822 616 
z
" transform="scale(0.015625)"/>
       <path id="TimesNewRomanPSMT-79" d="M 38 2863 
L 1372 2863 
L 1372 2747 
L 1306 2747 
Q 1166 2747 1095 2686 
Q 1025 2625 1025 2534 
Q 1025 2413 1128 2197 
L 1825 753 
L 2466 2334 
Q 2519 2463 2519 2588 
Q 2519 2644 2497 2672 
Q 2472 2706 2419 2726 
Q 2366 2747 2231 2747 
L 2231 2863 
L 3163 2863 
L 3163 2747 
Q 3047 2734 2984 2696 
Q 2922 2659 2847 2556 
Q 2819 2513 2741 2316 
L 1575 -541 
Q 1406 -956 1132 -1168 
Q 859 -1381 606 -1381 
Q 422 -1381 303 -1275 
Q 184 -1169 184 -1031 
Q 184 -900 270 -820 
Q 356 -741 506 -741 
Q 609 -741 788 -809 
Q 913 -856 944 -856 
Q 1038 -856 1148 -759 
Q 1259 -663 1372 -384 
L 1575 113 
L 547 2272 
Q 500 2369 397 2513 
Q 319 2622 269 2659 
Q 197 2709 38 2747 
L 38 2863 
z
" transform="scale(0.015625)"/>
      </defs>
      <use xlink:href="#TimesNewRomanPSMT-41"/>
      <use xlink:href="#TimesNewRomanPSMT-63" transform="translate(72.216797 0)"/>
      <use xlink:href="#TimesNewRomanPSMT-63" transform="translate(116.601562 0)"/>
      <use xlink:href="#TimesNewRomanPSMT-75" transform="translate(160.986328 0)"/>
      <use xlink:href="#TimesNewRomanPSMT-72" transform="translate(210.986328 0)"/>
      <use xlink:href="#TimesNewRomanPSMT-61" transform="translate(244.287109 0)"/>
      <use xlink:href="#TimesNewRomanPSMT-63" transform="translate(288.671875 0)"/>
      <use xlink:href="#TimesNewRomanPSMT-79" transform="translate(333.056641 0)"/>
     </g>
    </g>
   </g>
   <g id="line2d_29">
    <path d="M 394.142438 178.5875 
L 481.55832 149.83261 
L 505.127189 143.71205 
L 519.322547 140.858723 
L 529.512896 137.842799 
L 537.467806 136.024356 
L 543.993745 134.38334 
L 549.526753 133.407587 
L 554.329459 131.396966 
L 558.572362 130.406447 
L 562.372445 129.859431 
L 568.957463 128.632368 
L 574.532848 126.266925 
L 577.030243 125.89732 
L 581.563744 125.645995 
L 583.635193 124.537196 
L 587.455197 123.3249 
L 589.224849 123.76842 
L 590.912543 123.236203 
L 594.070158 122.541358 
L 595.551974 122.127404 
L 596.975892 121.550822 
L 598.346266 121.432559 
L 599.666977 120.649 
L 600.9415 120.885543 
L 602.172957 120.885543 
L 604.517665 120.013287 
L 605.635778 120.397674 
L 606.720609 121.107303 
L 607.774083 120.175915 
L 608.79796 120.161132 
L 609.793859 120.575085 
L 610.763268 120.042852 
L 611.70756 119.835876 
L 612.628003 120.782062 
L 613.525773 119.274093 
L 614.40196 119.628899 
L 616.910814 119.244527 
L 617.710136 118.801007 
L 618.492304 118.727077 
L 620.008016 118.978402 
L 620.742872 118.978402 
L 621.463204 118.357488 
L 622.169575 118.490534 
L 622.862516 117.899185 
L 623.542529 117.958317 
L 624.210086 118.387053 
L 624.865636 118.29834 
L 625.509604 118.978402 
L 626.142391 117.544363 
L 626.764379 118.416619 
L 627.37593 117.958317 
L 629.724414 118.342705 
L 630.28863 118.106146 
L 630.844245 118.401836 
L 631.391516 117.352169 
L 632.462008 118.37227 
L 632.985689 118.106146 
L 633.501953 118.37227 
L 634.011006 117.573929 
L 634.513047 117.958317 
L 635.008266 117.943534 
L 635.496847 118.59403 
L 635.978966 118.283557 
L 636.924482 117.396518 
L 637.388198 118.37227 
L 637.846088 117.884386 
L 638.298298 118.29834 
L 638.744965 117.588712 
L 639.186225 117.411301 
L 639.622206 118.209642 
L 640.053034 117.633061 
L 640.478828 116.849518 
L 641.315779 117.115626 
L 642.133941 117.514797 
L 642.536236 117.263471 
L 642.93414 117.263471 
L 643.327746 117.633061 
L 643.717147 117.647843 
L 644.102432 117.913968 
L 644.483687 117.071278 
L 645.234436 117.411301 
L 645.970033 117.01213 
L 646.691077 117.219107 
L 647.04632 117.352169 
L 647.398133 118.032231 
L 647.746583 117.559146 
L 648.091734 117.840037 
L 648.433646 117.633061 
L 648.772381 118.017448 
L 649.107996 117.337386 
L 649.44055 117.01213 
L 649.770096 116.849518 
L 650.09669 117.130409 
L 651.374563 117.485231 
L 651.997082 117.189541 
L 652.304399 117.219107 
L 652.609146 116.805169 
L 652.911367 117.145192 
L 653.211102 116.923432 
L 653.508392 117.189541 
L 653.803277 116.997347 
L 654.095796 116.583409 
L 654.385985 117.026929 
L 654.673882 116.642541 
L 654.959523 116.879084 
L 655.242943 116.642541 
L 655.803255 117.145192 
L 656.080214 116.760804 
L 656.355084 116.967781 
L 656.627896 116.938215 
L 656.898682 117.115626 
L 657.434292 117.056495 
L 657.699174 117.411301 
L 657.962145 117.233906 
L 658.223232 117.470448 
L 658.739861 116.938215 
L 659.249269 117.440867 
L 659.501328 117.337386 
L 659.751656 116.805169 
L 660.000277 117.189541 
L 660.247212 116.849518 
L 660.492486 117.293037 
L 660.978138 117.440867 
L 661.218558 116.982564 
L 661.457403 116.79037 
L 661.930448 117.100843 
L 662.164687 116.775587 
L 662.397431 116.731238 
L 662.628699 116.938215 
L 662.858508 117.426084 
L 663.086877 117.396518 
L 663.313824 117.026929 
L 663.539367 116.952998 
L 663.763522 116.760804 
L 663.986308 117.248689 
L 664.20774 116.997347 
L 664.427834 117.174758 
L 664.864076 116.746021 
L 665.080255 117.08606 
L 665.295159 116.938215 
L 665.508803 117.263471 
L 665.721202 117.130409 
L 666.142323 117.810472 
L 666.351072 117.559146 
L 666.558633 117.115626 
L 666.765019 116.967781 
L 666.970242 116.967781 
L 667.377255 117.426084 
L 667.579069 116.775587 
L 667.779772 116.952998 
L 667.979376 117.485231 
L 668.177893 117.500014 
L 668.375334 116.864301 
L 668.571712 117.396518 
L 668.767037 117.130409 
L 668.961321 117.337386 
L 669.154575 117.115626 
L 669.538035 117.352169 
L 669.728263 116.908649 
L 670.105766 117.071278 
L 670.293061 116.908649 
L 670.479399 117.352169 
L 670.664789 117.30782 
L 671.032764 116.849518 
L 671.215367 117.381735 
L 671.577853 116.982564 
L 671.757752 116.893867 
L 671.936768 117.130409 
L 672.114909 116.982564 
L 672.4686 116.952998 
L 672.644167 116.819952 
L 672.818892 117.204324 
L 672.992784 116.760804 
L 673.165849 116.746021 
L 673.338097 117.174758 
L 673.509535 116.716456 
L 673.68017 116.938215 
L 673.85001 116.805169 
L 674.019062 116.893867 
L 674.187334 117.130409 
L 674.354832 117.100843 
L 674.521564 117.485231 
L 674.687537 117.071278 
L 675.017233 117.130409 
L 675.180969 117.322603 
L 675.343973 116.908649 
L 675.506251 117.130409 
L 675.667809 116.598192 
L 675.988794 117.278254 
L 676.148233 117.056495 
L 676.306977 117.293037 
L 676.465032 116.716456 
L 676.622406 116.68689 
L 676.935128 117.293037 
L 677.090489 116.849518 
L 677.24519 116.819952 
L 677.552637 117.352169 
L 677.705393 116.583409 
L 677.857512 117.174758 
L 678.008998 117.145192 
L 678.159858 117.322603 
L 678.310095 116.79037 
L 678.459716 117.174758 
L 678.608725 116.657324 
L 678.757128 117.30782 
L 678.904928 117.337386 
L 679.052132 116.657324 
L 679.198744 117.396518 
L 679.490209 116.967781 
L 679.635073 117.174758 
L 679.779362 117.115626 
L 679.923083 116.834735 
L 680.06624 117.204324 
L 680.208836 117.08606 
L 680.492366 117.30782 
L 680.633308 117.233906 
L 680.773707 116.819952 
L 680.913568 117.248689 
L 681.191689 117.056495 
L 681.329958 117.263471 
L 681.467704 116.879084 
L 681.604931 116.938215 
L 681.741644 117.248689 
L 681.877846 116.997347 
L 682.013541 117.278254 
L 682.148732 116.967781 
L 682.283424 117.248689 
L 682.41762 116.834735 
L 682.684539 117.071278 
L 682.817269 116.849518 
L 683.081287 117.248689 
L 683.343407 117.130409 
L 683.473763 116.79037 
L 683.733085 117.278254 
L 683.862058 116.805169 
L 683.990575 116.923432 
L 684.246259 117.381735 
L 684.500162 116.923432 
L 684.626453 117.440867 
L 684.752308 117.100843 
L 684.87773 117.174758 
L 685.002722 117.411301 
L 685.251427 117.204324 
L 685.498446 117.130409 
L 685.621331 117.485231 
L 685.743803 117.056495 
L 685.865865 117.278254 
L 686.108768 116.908649 
L 686.229616 117.174758 
L 686.470115 116.923432 
L 686.589773 117.278254 
L 686.709039 116.982564 
L 686.946406 117.293037 
L 687.064512 117.233906 
L 687.182237 116.893867 
L 687.299583 117.248689 
L 687.533147 116.893867 
L 687.64937 116.805169 
L 687.765224 117.174758 
L 688.224991 117.071278 
L 688.339033 117.322603 
L 688.452718 116.834735 
L 688.566051 117.056495 
L 688.791663 116.879084 
L 688.903948 117.603495 
L 689.238741 116.952998 
L 689.349659 117.204324 
L 689.570487 116.982564 
L 689.789985 117.455665 
L 689.899241 117.100843 
L 690.116774 117.233906 
L 690.547984 117.100843 
L 690.654994 117.293037 
L 690.761691 116.967781 
L 691.079919 117.248689 
L 691.395394 117.01213 
L 691.604203 117.263471 
L 691.708161 117.174758 
L 691.811823 117.381735 
L 691.915191 117.145192 
L 692.018267 117.278254 
L 692.223548 116.982564 
L 692.42768 117.233906 
L 692.630674 116.716456 
L 692.933062 117.159975 
L 693.232962 117.100843 
L 693.332382 116.982564 
L 693.431532 117.08606 
L 693.530414 117.352169 
L 693.727375 116.982564 
L 693.825458 117.440867 
L 693.923277 116.864301 
L 694.020835 117.08606 
L 694.215171 116.775587 
L 694.408476 116.893867 
L 694.696525 117.130409 
L 694.792037 117.08606 
L 694.8873 116.642541 
L 694.982315 117.08606 
L 695.077082 116.657324 
L 695.171604 117.130409 
L 695.265881 116.938215 
L 695.359915 117.411301 
L 695.547259 116.819952 
L 695.640571 116.760804 
L 695.733644 116.879084 
L 695.826481 116.760804 
L 696.10358 117.366952 
L 696.287149 116.893867 
L 696.378588 117.056495 
L 696.469798 116.967781 
L 696.560781 116.627758 
L 696.742067 117.026929 
L 697.012317 116.79037 
L 697.280579 117.041712 
L 697.458329 116.908649 
L 697.635216 117.01213 
L 697.811249 116.716456 
L 697.898948 117.056495 
L 697.986436 116.952998 
L 698.073715 117.159975 
L 698.247648 116.657324 
L 698.334304 117.071278 
L 698.507001 116.834735 
L 698.593043 116.967781 
L 698.678883 116.908649 
L 698.764521 116.982564 
L 698.849959 116.834735 
L 698.935196 117.071278 
L 699.020235 116.879084 
L 699.105076 117.115626 
L 699.189719 116.68689 
L 699.274167 116.952998 
L 699.35842 116.864301 
L 699.442478 117.041712 
L 699.526342 116.716456 
L 699.693495 117.204324 
L 699.776785 116.834735 
L 699.859885 116.879084 
L 699.942795 116.805169 
L 700.108053 117.08606 
L 700.190402 116.731238 
L 700.272565 117.08606 
L 700.354544 116.997347 
L 700.599378 116.805169 
L 700.761693 117.204324 
L 700.842579 116.819952 
L 700.923287 117.145192 
L 701.003816 116.805169 
L 701.164343 117.056495 
L 701.244343 117.115626 
L 701.324166 116.79037 
L 701.483292 117.08606 
L 701.562595 116.819952 
L 701.641725 116.893867 
L 701.720684 116.849518 
L 701.799473 116.967781 
L 701.878092 116.701673 
L 701.956541 116.938215 
L 702.034822 116.879084 
L 702.112935 116.879084 
L 702.268661 117.071278 
L 702.423724 116.834735 
L 702.501009 116.938215 
L 702.578131 116.849518 
L 702.655089 116.952998 
L 702.731886 116.849518 
L 702.884995 116.952998 
L 702.961309 116.819952 
L 703.113459 117.01213 
L 703.189297 116.760804 
L 703.264977 116.908649 
L 703.415868 116.716456 
L 703.566136 117.056495 
L 703.641039 116.760804 
L 703.715788 116.952998 
L 703.790384 116.893867 
L 703.939119 116.805169 
L 704.01326 117.01213 
L 704.08725 116.893867 
L 704.234782 116.834735 
L 704.308324 116.967781 
L 704.381718 116.849518 
L 704.454965 117.01213 
L 704.528065 116.672107 
L 704.673826 117.026929 
L 704.819007 116.879084 
L 704.891381 117.056495 
L 704.963612 116.716456 
L 705.0357 117.056495 
L 705.107645 117.026929 
L 705.179449 117.056495 
L 705.251112 116.908649 
L 705.322634 117.026929 
L 705.394015 116.908649 
L 705.465258 117.026929 
L 705.536361 116.938215 
L 705.607326 116.997347 
L 705.819396 116.68689 
L 706.030238 117.115626 
L 706.100249 116.982564 
L 706.309478 116.849518 
L 706.517513 117.071278 
L 706.724367 116.731238 
L 707.066536 116.760804 
L 707.337977 116.938215 
L 707.405522 116.68689 
L 707.472943 116.819952 
L 707.540239 116.967781 
L 707.607411 116.819952 
L 707.67446 116.967781 
L 707.741385 116.805169 
L 707.808188 116.864301 
L 707.874869 116.834735 
L 707.941427 117.026929 
L 708.007865 116.79037 
L 708.074181 116.908649 
L 708.140378 116.731238 
L 708.27241 117.174758 
L 708.338248 117.01213 
L 708.535049 116.79037 
L 708.665663 117.026929 
L 708.795809 116.819952 
L 708.925493 116.879084 
L 708.990162 116.746021 
L 709.054717 116.923432 
L 709.119158 116.746021 
L 709.183484 116.893867 
L 709.439662 116.657324 
L 709.503427 116.879084 
L 709.567079 116.834735 
L 709.694052 116.834735 
L 709.757374 116.79037 
L 709.820585 117.01213 
L 709.883687 116.746021 
L 709.946679 116.864301 
L 710.072339 116.967781 
L 710.135007 116.746021 
L 710.197567 116.879084 
L 710.322366 116.819952 
L 710.384606 116.642541 
L 710.44674 116.746021 
L 710.57069 117.08606 
L 710.632507 116.68689 
L 710.69422 116.938215 
L 710.755829 116.775587 
L 710.817333 116.967781 
L 710.878734 116.938215 
L 711.062319 116.716456 
L 711.184197 116.997347 
L 711.305669 116.68689 
L 711.366253 116.731238 
L 711.547404 116.864301 
L 711.667674 116.716456 
L 711.72766 116.760804 
L 712.381073 116.68689 
L 712.439897 116.938215 
L 712.498627 116.598192 
L 712.557262 116.879084 
L 712.732603 116.612975 
L 712.790863 116.834735 
L 712.849031 116.79037 
L 712.907105 116.612975 
L 712.965087 116.864301 
L 713.022977 116.553827 
L 713.080776 116.760804 
L 713.138482 116.56861 
L 713.196098 116.672107 
L 713.253623 116.612975 
L 713.311057 116.68689 
L 713.425654 116.657324 
L 713.596877 116.879084 
L 713.653773 116.923432 
L 713.880473 116.672107 
L 713.936928 116.657324 
L 713.993296 116.879084 
L 714.049577 116.760804 
L 714.217901 116.657324 
L 714.38545 116.79037 
L 714.441129 116.494696 
L 714.496724 116.938215 
L 714.552233 116.760804 
L 714.718256 116.834735 
L 714.883527 116.68689 
L 714.993292 116.819952 
L 715.048051 116.657324 
L 715.102728 116.775587 
L 715.320619 116.612975 
L 715.429078 116.938215 
L 715.591163 116.68689 
L 715.645032 116.494696 
L 715.698821 116.775587 
L 715.752531 116.598192 
L 715.913188 116.731238 
L 716.0199 116.716456 
L 716.07314 116.642541 
L 716.126301 116.849518 
L 716.179385 116.775587 
L 716.285322 116.68689 
L 716.443653 116.834735 
L 716.496277 116.524262 
L 716.548825 116.598192 
L 716.758265 116.627758 
L 716.810437 116.834735 
L 716.862535 116.627758 
L 716.914558 116.539045 
L 717.018383 116.849518 
L 717.070184 116.68689 
L 717.225149 116.598192 
L 717.276657 116.760804 
L 717.328093 116.583409 
L 717.58419 116.524262 
L 717.736989 116.79037 
L 717.838501 116.672107 
L 717.88915 116.834735 
L 717.93973 116.716456 
L 717.990239 116.524262 
L 718.040679 116.760804 
L 718.141349 116.56861 
L 718.241742 116.760804 
L 718.291834 116.716456 
L 718.391814 116.849518 
L 718.441701 116.746021 
L 718.590955 116.56861 
L 718.64057 116.760804 
L 718.739599 116.731238 
L 718.83836 116.760804 
L 718.88764 116.539045 
L 718.936853 116.879084 
L 719.035082 116.79037 
L 719.230748 116.583409 
L 719.2795 116.760804 
L 719.328188 116.598192 
L 719.376811 116.56861 
L 719.425369 116.805169 
L 719.522291 116.760804 
L 719.570655 116.583409 
L 719.618956 116.805169 
L 719.667193 116.642541 
L 719.763475 116.819952 
L 719.907423 116.612975 
L 719.955279 116.864301 
L 720.050804 116.79037 
L 720.098473 116.849518 
L 720.14608 116.760804 
L 720.335887 116.524262 
L 720.430421 116.819952 
L 720.477596 116.79037 
L 720.571764 116.716456 
L 720.665689 116.893867 
L 720.71256 116.775587 
L 720.852816 116.672107 
L 720.899448 116.908649 
L 720.94602 116.494696 
L 721.038987 116.539045 
L 721.085381 116.775587 
L 721.131717 116.657324 
L 721.177994 116.642541 
L 721.224212 116.746021 
L 721.270371 116.642541 
L 721.4085 116.716456 
L 721.454427 116.805169 
L 721.500296 116.524262 
L 721.591862 116.56861 
L 721.637558 116.819952 
L 721.72878 116.775587 
L 721.819774 116.642541 
L 721.865186 116.716456 
L 721.910541 116.731238 
L 721.95584 116.612975 
L 722.001083 116.775587 
L 722.046269 116.805169 
L 722.136475 116.834735 
L 722.181494 116.598192 
L 722.226458 116.68689 
L 722.271366 116.479913 
L 722.316219 116.553827 
L 722.361017 116.849518 
L 722.450448 116.701673 
L 722.76174 116.79037 
L 722.805994 116.509479 
L 722.850194 116.805169 
L 722.894341 116.56861 
L 723.20188 116.879084 
L 723.376459 116.612975 
L 723.419973 116.627758 
L 723.463436 116.46513 
L 723.506846 116.627758 
L 723.550205 116.598192 
L 723.679974 116.805169 
L 723.723127 116.46513 
L 723.809282 116.642541 
L 723.895233 116.746021 
L 723.938132 116.553827 
L 723.980982 116.642541 
L 724.023781 116.68689 
L 724.151877 116.450347 
L 724.279524 116.849518 
L 724.406726 116.509479 
L 724.449029 116.716456 
L 724.617748 116.746021 
L 724.659806 116.834735 
L 724.701816 116.716456 
L 724.827555 116.479913 
L 724.911141 116.56861 
L 725.160754 116.760804 
L 725.326219 116.46513 
L 725.367468 116.672107 
L 725.449826 116.642541 
L 725.490935 116.56861 
L 725.531998 116.672107 
L 725.573015 116.849518 
L 725.613986 116.701673 
L 725.695789 116.583409 
L 725.736622 116.657324 
L 725.77741 116.701673 
L 725.818152 116.642541 
L 725.899499 116.46513 
L 725.940104 116.627758 
L 726.102076 116.805169 
L 726.263331 116.56861 
L 726.303533 116.805169 
L 726.343691 116.731238 
L 726.423875 116.56861 
L 726.583716 116.79037 
L 726.623567 116.79037 
L 726.663374 116.612975 
L 726.742858 116.746021 
L 726.82217 116.524262 
L 726.861761 116.805169 
L 726.940814 116.79037 
L 727.098409 116.612975 
L 727.137701 116.627758 
L 727.176951 116.775587 
L 727.216159 116.612975 
L 727.255325 116.627758 
L 727.294448 116.479913 
L 727.37257 116.598192 
L 727.450524 116.79037 
L 727.489439 116.553827 
L 727.567144 116.716456 
L 727.722059 116.56861 
L 727.760685 116.746021 
L 727.79927 116.716456 
L 727.837815 116.56861 
L 727.876319 116.760804 
L 727.914782 116.805169 
L 727.991586 116.509479 
L 728.068229 116.627758 
L 728.144711 116.805169 
L 728.221033 116.479913 
L 728.259135 116.657324 
L 728.297196 116.598192 
L 728.3732 116.56861 
L 728.411142 116.805169 
L 728.562519 116.583409 
L 728.600265 116.760804 
L 728.67564 116.68689 
L 728.825924 116.56861 
L 728.863398 116.642541 
L 729.050194 116.731238 
L 729.087439 116.864301 
L 729.124645 116.672107 
L 729.198945 116.819952 
L 729.236038 116.612975 
L 729.310111 116.731238 
L 729.494637 116.642541 
L 729.531431 116.775587 
L 729.568187 116.627758 
L 729.604906 116.524262 
L 729.714843 116.775587 
L 729.751415 116.68689 
L 729.824448 116.731238 
L 729.970079 116.819952 
L 730.006396 116.524262 
L 730.078921 116.760804 
L 730.187439 116.627758 
L 730.22354 116.79037 
L 730.259605 116.539045 
L 730.295635 116.701673 
L 730.331629 116.553827 
L 730.367588 116.701673 
L 730.403511 116.746021 
L 730.439398 116.657324 
L 730.475251 116.524262 
L 730.511068 116.731238 
L 730.725235 116.775587 
L 730.796345 116.598192 
L 730.831849 116.672107 
L 730.867317 116.775587 
L 730.902751 116.583409 
L 731.008848 116.68689 
L 731.044145 116.612975 
L 731.079407 116.56861 
L 731.149831 116.553827 
L 731.220118 116.805169 
L 731.29027 116.642541 
L 731.325296 116.672107 
L 731.465063 116.731238 
L 731.499921 116.657324 
L 731.534745 116.849518 
L 731.604295 116.68689 
L 731.742998 116.553827 
L 731.812152 116.79037 
L 731.881175 116.760804 
L 731.915637 116.657324 
L 731.984465 116.79037 
L 732.01883 116.775587 
L 732.053163 116.612975 
L 732.121731 116.657324 
L 732.224343 116.68689 
L 732.326666 116.56861 
L 732.462652 116.760804 
L 732.530455 116.893867 
L 732.598132 116.56861 
L 732.631924 116.56861 
L 732.665684 116.731238 
L 732.733111 116.583409 
L 732.834018 116.657324 
L 732.867592 116.494696 
L 732.901134 116.701673 
L 732.934646 116.672107 
L 733.034998 116.642541 
L 733.068387 116.775587 
L 733.101745 116.716456 
L 733.135074 116.583409 
L 733.201638 116.731238 
L 733.334405 116.864301 
L 733.367521 116.760804 
L 733.433663 116.553827 
L 733.499685 116.68689 
L 733.631372 116.598192 
L 733.664219 116.760804 
L 733.729826 116.716456 
L 733.893327 116.494696 
L 733.925939 116.627758 
L 734.056097 116.731238 
L 734.088564 116.716456 
L 734.121003 116.553827 
L 734.185793 116.657324 
L 734.282762 116.805169 
L 734.315028 116.627758 
L 734.379474 116.760804 
L 734.443807 116.657324 
L 734.475931 116.56861 
L 734.572132 116.627758 
L 734.636126 116.509479 
L 734.668081 116.627758 
L 734.700007 116.68689 
L 734.731906 116.627758 
L 734.763777 116.46513 
L 734.79562 116.612975 
L 734.827435 116.938215 
L 734.890983 116.701673 
L 734.922715 116.731238 
L 734.95442 116.657324 
L 735.11253 116.405998 
L 735.238526 116.701673 
L 735.332739 116.524262 
L 735.364089 116.627758 
L 735.582787 116.716456 
L 735.645032 116.849518 
L 735.707171 116.56861 
L 735.800182 116.79037 
L 735.862057 116.627758 
L 735.923827 116.716456 
L 735.954673 116.612975 
L 735.985493 116.731238 
L 736.016287 116.56861 
L 736.047055 116.598192 
L 736.139203 116.657324 
L 736.169867 116.539045 
L 736.261705 116.598192 
L 736.292267 116.553827 
L 736.383798 116.657324 
L 736.444691 116.553827 
L 736.475099 116.494696 
L 736.505482 116.657324 
L 736.566173 116.627758 
L 736.657019 116.775587 
L 736.777797 116.56861 
L 736.928208 116.731238 
L 736.988199 116.627758 
L 737.107886 116.553827 
L 737.137746 116.79037 
L 737.197393 116.56861 
L 737.227181 116.509479 
L 737.256943 116.716456 
L 737.346086 116.583409 
L 737.375752 116.760804 
L 737.464606 116.627758 
L 737.494175 116.583409 
L 737.553243 116.672107 
L 737.582741 116.68689 
L 737.700494 116.56861 
L 737.759228 116.524262 
L 737.817868 116.612975 
L 737.905651 116.524262 
L 737.876414 116.672107 
L 737.934865 116.553827 
L 737.964056 116.68689 
L 738.022368 116.56861 
L 738.051488 116.539045 
L 738.080586 116.775587 
L 738.16774 116.746021 
L 738.225726 116.583409 
L 738.312534 116.657324 
L 738.341424 116.731238 
L 738.370291 116.56861 
L 738.427957 116.657324 
L 738.514284 116.553827 
L 738.543015 116.612975 
L 738.571723 116.672107 
L 738.600408 116.524262 
L 738.629071 116.524262 
L 738.743497 116.731238 
L 738.772048 116.672107 
L 738.857565 116.627758 
L 738.914466 116.524262 
L 738.971277 116.68689 
L 739.028001 116.539045 
L 739.056329 116.627758 
L 739.084636 116.701673 
L 739.112921 116.56861 
L 739.141183 116.612975 
L 739.169424 116.524262 
L 739.22584 116.701673 
L 739.338411 116.509479 
L 739.366499 116.598192 
L 739.394566 116.612975 
L 739.422611 116.479913 
L 739.478637 116.598192 
L 739.534577 116.553827 
L 739.618326 116.642541 
L 739.701883 116.524262 
L 739.729693 116.642541 
L 739.840721 116.494696 
L 739.868425 116.539045 
L 739.979031 116.672107 
L 740.006631 116.479913 
L 740.089303 116.672107 
L 740.199242 116.46513 
L 740.28148 116.627758 
L 740.308851 116.598192 
L 740.390842 116.46513 
L 740.418131 116.524262 
L 740.527084 116.657324 
L 740.554272 116.583409 
L 740.608586 116.494696 
L 740.66282 116.539045 
L 740.744019 116.672107 
L 740.771045 116.612975 
L 740.798051 116.524262 
L 740.852004 116.68689 
L 740.87895 116.56861 
L 740.95967 116.760804 
L 740.986536 116.598192 
L 741.093806 116.509479 
L 741.147323 116.612975 
L 741.174052 116.657324 
L 741.200761 116.553827 
L 741.254121 116.583409 
L 741.280772 116.509479 
L 741.360608 116.583409 
L 741.387181 116.612975 
L 741.413734 116.450347 
L 741.493279 116.509479 
L 741.572651 116.746021 
L 741.59907 116.56861 
L 741.757183 116.583409 
L 742.819643 116.672107 
L 742.845174 116.746021 
L 742.870687 116.642541 
L 742.896182 116.657324 
L 743.02339 116.583409 
L 743.074149 116.642541 
L 743.099502 116.583409 
L 743.150155 116.509479 
L 743.200738 116.56861 
L 743.326889 116.731238 
L 743.352067 116.68689 
L 743.477697 116.539045 
L 743.527828 116.642541 
L 743.577889 116.524262 
L 743.652854 116.657324 
L 743.677807 116.553827 
L 743.702744 116.494696 
L 743.752567 116.657324 
L 743.802321 116.539045 
L 743.926411 116.657324 
L 743.975928 116.539045 
L 744.025379 116.642541 
L 744.050079 116.657324 
L 744.148713 116.494696 
L 744.17333 116.598192 
L 744.394136 116.509479 
L 744.51623 116.672107 
L 744.5406 116.450347 
L 744.613612 116.553827 
L 744.637917 116.657324 
L 744.710734 116.583409 
L 744.734974 116.539045 
L 744.759198 116.642541 
L 744.783406 116.583409 
L 744.807598 116.672107 
L 744.880078 116.539045 
L 745.000558 116.598192 
L 745.14461 116.716456 
L 745.192502 116.539045 
L 745.26422 116.56861 
L 745.288095 116.612975 
L 745.359627 116.553827 
L 745.383439 116.539045 
L 745.431018 116.701673 
L 745.50227 116.612975 
L 745.525989 116.524262 
L 745.597056 116.612975 
L 745.738774 116.672107 
L 745.785891 116.760804 
L 745.903419 116.479913 
L 745.926879 116.642541 
L 746.020569 116.612975 
L 746.160653 116.524262 
L 746.300201 116.642541 
L 746.392937 116.524262 
L 746.416084 116.68689 
L 746.508526 116.612975 
L 746.62375 116.56861 
L 746.646751 116.598192 
L 746.967252 116.627758 
L 746.990038 116.746021 
L 747.012809 116.583409 
L 747.081037 116.642541 
L 747.103752 116.509479 
L 747.194468 116.583409 
L 747.239742 116.657324 
L 747.284959 116.612975 
L 747.35268 116.494696 
L 747.420276 116.524262 
L 747.44278 116.672107 
L 747.532658 116.612975 
L 747.555093 116.509479 
L 747.622314 116.657324 
L 747.845495 116.583409 
L 747.867738 116.627758 
L 748.41945 116.598192 
L 748.441346 116.46513 
L 748.485098 116.612975 
L 748.528797 116.598192 
L 748.550627 116.657324 
L 748.594248 116.509479 
L 748.616039 116.612975 
L 748.681334 116.657324 
L 748.703073 116.524262 
L 748.746512 116.657324 
L 748.811574 116.524262 
L 748.94135 116.598192 
L 748.984506 116.494696 
L 749.049145 116.612975 
L 749.092174 116.539045 
L 749.199524 116.716456 
L 749.220956 116.509479 
L 749.306559 116.553827 
L 749.37063 116.716456 
L 749.455882 116.642541 
L 749.519691 116.539045 
L 749.562168 116.642541 
L 749.583388 116.701673 
L 749.646975 116.553827 
L 749.668145 116.657324 
L 749.773815 116.524262 
L 749.794912 116.539045 
L 749.92124 116.612975 
L 751.262438 116.612975 
L 751.262438 116.612975 
" clip-path="url(#p199b70f524)" style="fill: none; stroke: #1f77b4; stroke-width: 1.5; stroke-linecap: square"/>
   </g>
   <g id="patch_3">
    <path d="M 394.142438 311.6435 
L 394.142438 45.5315 
" style="fill: none; stroke: #000000; stroke-width: 0.8; stroke-linejoin: miter; stroke-linecap: square"/>
   </g>
   <g id="patch_4">
    <path d="M 751.262438 311.6435 
L 751.262438 45.5315 
" style="fill: none; stroke: #000000; stroke-width: 0.8; stroke-linejoin: miter; stroke-linecap: square"/>
   </g>
   <g id="patch_5">
    <path d="M 394.142438 311.6435 
L 751.262438 311.6435 
" style="fill: none; stroke: #000000; stroke-width: 0.8; stroke-linejoin: miter; stroke-linecap: square"/>
   </g>
   <g id="patch_6">
    <path d="M 394.142438 45.5315 
L 751.262438 45.5315 
" style="fill: none; stroke: #000000; stroke-width: 0.8; stroke-linejoin: miter; stroke-linecap: square"/>
   </g>
   <g id="text_17">
    <!-- Accuracy of the 09_07_25_CINIC10_torch_model_(1024+8192-8192.3+1)_elk-horse on the validation set -->
    <g transform="translate(7.2 25.5315) scale(0.264 -0.264)">
     <defs>
      <path id="TimesNewRomanPSMT-20" transform="scale(0.015625)"/>
      <path id="TimesNewRomanPSMT-6f" d="M 1600 2947 
Q 2250 2947 2644 2453 
Q 2978 2031 2978 1484 
Q 2978 1100 2793 706 
Q 2609 313 2286 112 
Q 1963 -88 1566 -88 
Q 919 -88 538 428 
Q 216 863 216 1403 
Q 216 1797 411 2186 
Q 606 2575 925 2761 
Q 1244 2947 1600 2947 
z
M 1503 2744 
Q 1338 2744 1170 2645 
Q 1003 2547 900 2300 
Q 797 2053 797 1666 
Q 797 1041 1045 587 
Q 1294 134 1700 134 
Q 2003 134 2200 384 
Q 2397 634 2397 1244 
Q 2397 2006 2069 2444 
Q 1847 2744 1503 2744 
z
" transform="scale(0.015625)"/>
      <path id="TimesNewRomanPSMT-66" d="M 1319 2638 
L 1319 756 
Q 1319 356 1406 250 
Q 1522 113 1716 113 
L 1975 113 
L 1975 0 
L 266 0 
L 266 113 
L 394 113 
Q 519 113 622 175 
Q 725 238 764 344 
Q 803 450 803 756 
L 803 2638 
L 247 2638 
L 247 2863 
L 803 2863 
L 803 3050 
Q 803 3478 940 3775 
Q 1078 4072 1361 4255 
Q 1644 4438 1997 4438 
Q 2325 4438 2600 4225 
Q 2781 4084 2781 3909 
Q 2781 3816 2700 3733 
Q 2619 3650 2525 3650 
Q 2453 3650 2373 3701 
Q 2294 3753 2178 3923 
Q 2063 4094 1966 4153 
Q 1869 4213 1750 4213 
Q 1606 4213 1506 4136 
Q 1406 4059 1362 3898 
Q 1319 3738 1319 3069 
L 1319 2863 
L 2056 2863 
L 2056 2638 
L 1319 2638 
z
" transform="scale(0.015625)"/>
      <path id="TimesNewRomanPSMT-74" d="M 1031 3803 
L 1031 2863 
L 1700 2863 
L 1700 2644 
L 1031 2644 
L 1031 788 
Q 1031 509 1111 412 
Q 1191 316 1316 316 
Q 1419 316 1516 380 
Q 1613 444 1666 569 
L 1788 569 
Q 1678 263 1478 108 
Q 1278 -47 1066 -47 
Q 922 -47 784 33 
Q 647 113 581 261 
Q 516 409 516 719 
L 516 2644 
L 63 2644 
L 63 2747 
Q 234 2816 414 2980 
Q 594 3144 734 3369 
Q 806 3488 934 3803 
L 1031 3803 
z
" transform="scale(0.015625)"/>
      <path id="TimesNewRomanPSMT-68" d="M 1041 4444 
L 1041 2350 
Q 1388 2731 1591 2839 
Q 1794 2947 1997 2947 
Q 2241 2947 2416 2812 
Q 2591 2678 2675 2391 
Q 2734 2191 2734 1659 
L 2734 647 
Q 2734 375 2778 275 
Q 2809 200 2884 156 
Q 2959 113 3159 113 
L 3159 0 
L 1753 0 
L 1753 113 
L 1819 113 
Q 2019 113 2097 173 
Q 2175 234 2206 353 
Q 2216 403 2216 647 
L 2216 1659 
Q 2216 2128 2167 2275 
Q 2119 2422 2012 2495 
Q 1906 2569 1756 2569 
Q 1603 2569 1437 2487 
Q 1272 2406 1041 2159 
L 1041 647 
Q 1041 353 1073 281 
Q 1106 209 1195 161 
Q 1284 113 1503 113 
L 1503 0 
L 84 0 
L 84 113 
Q 275 113 384 172 
Q 447 203 484 290 
Q 522 378 522 647 
L 522 3238 
Q 522 3728 498 3840 
Q 475 3953 426 3993 
Q 378 4034 297 4034 
Q 231 4034 84 3984 
L 41 4094 
L 897 4444 
L 1041 4444 
z
" transform="scale(0.015625)"/>
      <path id="TimesNewRomanPSMT-65" d="M 681 1784 
Q 678 1147 991 784 
Q 1303 422 1725 422 
Q 2006 422 2214 576 
Q 2422 731 2563 1106 
L 2659 1044 
Q 2594 616 2278 264 
Q 1963 -88 1488 -88 
Q 972 -88 605 314 
Q 238 716 238 1394 
Q 238 2128 614 2539 
Q 991 2950 1559 2950 
Q 2041 2950 2350 2633 
Q 2659 2316 2659 1784 
L 681 1784 
z
M 681 1966 
L 2006 1966 
Q 1991 2241 1941 2353 
Q 1863 2528 1708 2628 
Q 1553 2728 1384 2728 
Q 1125 2728 920 2526 
Q 716 2325 681 1966 
z
" transform="scale(0.015625)"/>
      <path id="TimesNewRomanPSMT-5f" d="M 3256 -1381 
L -53 -1381 
L -53 -1119 
L 3256 -1119 
L 3256 -1381 
z
" transform="scale(0.015625)"/>
      <path id="TimesNewRomanPSMT-43" d="M 3853 4334 
L 3950 2894 
L 3853 2894 
Q 3659 3541 3300 3825 
Q 2941 4109 2438 4109 
Q 2016 4109 1675 3895 
Q 1334 3681 1139 3212 
Q 944 2744 944 2047 
Q 944 1472 1128 1050 
Q 1313 628 1683 403 
Q 2053 178 2528 178 
Q 2941 178 3256 354 
Q 3572 531 3950 1056 
L 4047 994 
Q 3728 428 3303 165 
Q 2878 -97 2294 -97 
Q 1241 -97 663 684 
Q 231 1266 231 2053 
Q 231 2688 515 3219 
Q 800 3750 1298 4042 
Q 1797 4334 2388 4334 
Q 2847 4334 3294 4109 
Q 3425 4041 3481 4041 
Q 3566 4041 3628 4100 
Q 3709 4184 3744 4334 
L 3853 4334 
z
" transform="scale(0.015625)"/>
      <path id="TimesNewRomanPSMT-49" d="M 1975 116 
L 1975 0 
L 159 0 
L 159 116 
L 309 116 
Q 572 116 691 269 
Q 766 369 766 750 
L 766 3488 
Q 766 3809 725 3913 
Q 694 3991 597 4047 
Q 459 4122 309 4122 
L 159 4122 
L 159 4238 
L 1975 4238 
L 1975 4122 
L 1822 4122 
Q 1563 4122 1444 3969 
Q 1366 3869 1366 3488 
L 1366 750 
Q 1366 428 1406 325 
Q 1438 247 1538 191 
Q 1672 116 1822 116 
L 1975 116 
z
" transform="scale(0.015625)"/>
      <path id="TimesNewRomanPSMT-4e" d="M -84 4238 
L 1066 4238 
L 3656 1059 
L 3656 3503 
Q 3656 3894 3569 3991 
Q 3453 4122 3203 4122 
L 3056 4122 
L 3056 4238 
L 4531 4238 
L 4531 4122 
L 4381 4122 
Q 4113 4122 4000 3959 
Q 3931 3859 3931 3503 
L 3931 -69 
L 3819 -69 
L 1025 3344 
L 1025 734 
Q 1025 344 1109 247 
Q 1228 116 1475 116 
L 1625 116 
L 1625 0 
L 150 0 
L 150 116 
L 297 116 
Q 569 116 681 278 
Q 750 378 750 734 
L 750 3681 
Q 566 3897 470 3965 
Q 375 4034 191 4094 
Q 100 4122 -84 4122 
L -84 4238 
z
" transform="scale(0.015625)"/>
      <path id="TimesNewRomanPSMT-6d" d="M 1050 2338 
Q 1363 2650 1419 2697 
Q 1559 2816 1721 2881 
Q 1884 2947 2044 2947 
Q 2313 2947 2506 2790 
Q 2700 2634 2766 2338 
Q 3088 2713 3309 2830 
Q 3531 2947 3766 2947 
Q 3994 2947 4170 2830 
Q 4347 2713 4450 2447 
Q 4519 2266 4519 1878 
L 4519 647 
Q 4519 378 4559 278 
Q 4591 209 4675 161 
Q 4759 113 4950 113 
L 4950 0 
L 3538 0 
L 3538 113 
L 3597 113 
Q 3781 113 3884 184 
Q 3956 234 3988 344 
Q 4000 397 4000 647 
L 4000 1878 
Q 4000 2228 3916 2372 
Q 3794 2572 3525 2572 
Q 3359 2572 3192 2489 
Q 3025 2406 2788 2181 
L 2781 2147 
L 2788 2013 
L 2788 647 
Q 2788 353 2820 281 
Q 2853 209 2943 161 
Q 3034 113 3253 113 
L 3253 0 
L 1806 0 
L 1806 113 
Q 2044 113 2133 169 
Q 2222 225 2256 338 
Q 2272 391 2272 647 
L 2272 1878 
Q 2272 2228 2169 2381 
Q 2031 2581 1784 2581 
Q 1616 2581 1450 2491 
Q 1191 2353 1050 2181 
L 1050 647 
Q 1050 366 1089 281 
Q 1128 197 1204 155 
Q 1281 113 1516 113 
L 1516 0 
L 100 0 
L 100 113 
Q 297 113 375 155 
Q 453 197 493 289 
Q 534 381 534 647 
L 534 1741 
Q 534 2213 506 2350 
Q 484 2453 437 2492 
Q 391 2531 309 2531 
Q 222 2531 100 2484 
L 53 2597 
L 916 2947 
L 1050 2947 
L 1050 2338 
z
" transform="scale(0.015625)"/>
      <path id="TimesNewRomanPSMT-64" d="M 2222 322 
Q 2013 103 1813 7 
Q 1613 -88 1381 -88 
Q 913 -88 563 304 
Q 213 697 213 1313 
Q 213 1928 600 2439 
Q 988 2950 1597 2950 
Q 1975 2950 2222 2709 
L 2222 3238 
Q 2222 3728 2198 3840 
Q 2175 3953 2125 3993 
Q 2075 4034 2000 4034 
Q 1919 4034 1784 3984 
L 1744 4094 
L 2597 4444 
L 2738 4444 
L 2738 1134 
Q 2738 631 2761 520 
Q 2784 409 2836 365 
Q 2888 322 2956 322 
Q 3041 322 3181 375 
L 3216 266 
L 2366 -88 
L 2222 -88 
L 2222 322 
z
M 2222 541 
L 2222 2016 
Q 2203 2228 2109 2403 
Q 2016 2578 1861 2667 
Q 1706 2756 1559 2756 
Q 1284 2756 1069 2509 
Q 784 2184 784 1559 
Q 784 928 1059 592 
Q 1334 256 1672 256 
Q 1956 256 2222 541 
z
" transform="scale(0.015625)"/>
      <path id="TimesNewRomanPSMT-6c" d="M 1184 4444 
L 1184 647 
Q 1184 378 1223 290 
Q 1263 203 1344 158 
Q 1425 113 1647 113 
L 1647 0 
L 244 0 
L 244 113 
Q 441 113 512 153 
Q 584 194 625 287 
Q 666 381 666 647 
L 666 3247 
Q 666 3731 644 3842 
Q 622 3953 573 3993 
Q 525 4034 450 4034 
Q 369 4034 244 3984 
L 191 4094 
L 1044 4444 
L 1184 4444 
z
" transform="scale(0.015625)"/>
      <path id="TimesNewRomanPSMT-28" d="M 1988 -1253 
L 1988 -1369 
Q 1516 -1131 1200 -813 
Q 750 -359 506 256 
Q 263 872 263 1534 
Q 263 2503 741 3301 
Q 1219 4100 1988 4444 
L 1988 4313 
Q 1603 4100 1356 3731 
Q 1109 3363 987 2797 
Q 866 2231 866 1616 
Q 866 947 969 400 
Q 1050 -31 1165 -292 
Q 1281 -553 1476 -793 
Q 1672 -1034 1988 -1253 
z
" transform="scale(0.015625)"/>
      <path id="TimesNewRomanPSMT-2b" d="M 1672 441 
L 1672 2000 
L 116 2000 
L 116 2256 
L 1672 2256 
L 1672 3809 
L 1922 3809 
L 1922 2256 
L 3484 2256 
L 3484 2000 
L 1922 2000 
L 1922 441 
L 1672 441 
z
" transform="scale(0.015625)"/>
      <path id="TimesNewRomanPSMT-2d" d="M 259 1672 
L 1875 1672 
L 1875 1200 
L 259 1200 
L 259 1672 
z
" transform="scale(0.015625)"/>
      <path id="TimesNewRomanPSMT-29" d="M 144 4313 
L 144 4444 
Q 619 4209 934 3891 
Q 1381 3434 1625 2820 
Q 1869 2206 1869 1541 
Q 1869 572 1392 -226 
Q 916 -1025 144 -1369 
L 144 -1253 
Q 528 -1038 776 -670 
Q 1025 -303 1145 264 
Q 1266 831 1266 1447 
Q 1266 2113 1163 2663 
Q 1084 3094 967 3353 
Q 850 3613 656 3853 
Q 463 4094 144 4313 
z
" transform="scale(0.015625)"/>
      <path id="TimesNewRomanPSMT-6b" d="M 1047 4444 
L 1047 1594 
L 1775 2259 
Q 2006 2472 2044 2528 
Q 2069 2566 2069 2603 
Q 2069 2666 2017 2711 
Q 1966 2756 1847 2763 
L 1847 2863 
L 3091 2863 
L 3091 2763 
Q 2834 2756 2664 2684 
Q 2494 2613 2291 2428 
L 1556 1750 
L 2291 822 
Q 2597 438 2703 334 
Q 2853 188 2966 144 
Q 3044 113 3238 113 
L 3238 0 
L 1847 0 
L 1847 113 
Q 1966 116 2008 148 
Q 2050 181 2050 241 
Q 2050 313 1925 472 
L 1047 1594 
L 1047 644 
Q 1047 366 1086 278 
Q 1125 191 1197 153 
Q 1269 116 1509 113 
L 1509 0 
L 53 0 
L 53 113 
Q 272 113 381 166 
Q 447 200 481 272 
Q 528 375 528 628 
L 528 3234 
Q 528 3731 506 3842 
Q 484 3953 434 3995 
Q 384 4038 303 4038 
Q 238 4038 106 3984 
L 53 4094 
L 903 4444 
L 1047 4444 
z
" transform="scale(0.015625)"/>
      <path id="TimesNewRomanPSMT-73" d="M 2050 2947 
L 2050 1972 
L 1947 1972 
Q 1828 2431 1642 2597 
Q 1456 2763 1169 2763 
Q 950 2763 815 2647 
Q 681 2531 681 2391 
Q 681 2216 781 2091 
Q 878 1963 1175 1819 
L 1631 1597 
Q 2266 1288 2266 781 
Q 2266 391 1970 151 
Q 1675 -88 1309 -88 
Q 1047 -88 709 6 
Q 606 38 541 38 
Q 469 38 428 -44 
L 325 -44 
L 325 978 
L 428 978 
Q 516 541 762 319 
Q 1009 97 1316 97 
Q 1531 97 1667 223 
Q 1803 350 1803 528 
Q 1803 744 1651 891 
Q 1500 1038 1047 1263 
Q 594 1488 453 1669 
Q 313 1847 313 2119 
Q 313 2472 555 2709 
Q 797 2947 1181 2947 
Q 1350 2947 1591 2875 
Q 1750 2828 1803 2828 
Q 1853 2828 1881 2850 
Q 1909 2872 1947 2947 
L 2050 2947 
z
" transform="scale(0.015625)"/>
      <path id="TimesNewRomanPSMT-6e" d="M 1034 2341 
Q 1538 2947 1994 2947 
Q 2228 2947 2397 2830 
Q 2566 2713 2666 2444 
Q 2734 2256 2734 1869 
L 2734 647 
Q 2734 375 2778 278 
Q 2813 200 2889 156 
Q 2966 113 3172 113 
L 3172 0 
L 1756 0 
L 1756 113 
L 1816 113 
Q 2016 113 2095 173 
Q 2175 234 2206 353 
Q 2219 400 2219 647 
L 2219 1819 
Q 2219 2209 2117 2386 
Q 2016 2563 1775 2563 
Q 1403 2563 1034 2156 
L 1034 647 
Q 1034 356 1069 288 
Q 1113 197 1189 155 
Q 1266 113 1500 113 
L 1500 0 
L 84 0 
L 84 113 
L 147 113 
Q 366 113 442 223 
Q 519 334 519 647 
L 519 1709 
Q 519 2225 495 2337 
Q 472 2450 423 2490 
Q 375 2531 294 2531 
Q 206 2531 84 2484 
L 38 2597 
L 900 2947 
L 1034 2947 
L 1034 2341 
z
" transform="scale(0.015625)"/>
      <path id="TimesNewRomanPSMT-76" d="M 53 2863 
L 1400 2863 
L 1400 2747 
L 1313 2747 
Q 1191 2747 1127 2687 
Q 1063 2628 1063 2528 
Q 1063 2419 1128 2269 
L 1794 688 
L 2463 2328 
Q 2534 2503 2534 2594 
Q 2534 2638 2509 2666 
Q 2475 2713 2422 2730 
Q 2369 2747 2206 2747 
L 2206 2863 
L 3141 2863 
L 3141 2747 
Q 2978 2734 2916 2681 
Q 2806 2588 2719 2369 
L 1703 -88 
L 1575 -88 
L 553 2328 
Q 484 2497 421 2570 
Q 359 2644 263 2694 
Q 209 2722 53 2747 
L 53 2863 
z
" transform="scale(0.015625)"/>
      <path id="TimesNewRomanPSMT-69" d="M 928 4444 
Q 1059 4444 1151 4351 
Q 1244 4259 1244 4128 
Q 1244 3997 1151 3903 
Q 1059 3809 928 3809 
Q 797 3809 703 3903 
Q 609 3997 609 4128 
Q 609 4259 701 4351 
Q 794 4444 928 4444 
z
M 1188 2947 
L 1188 647 
Q 1188 378 1227 289 
Q 1266 200 1342 156 
Q 1419 113 1622 113 
L 1622 0 
L 231 0 
L 231 113 
Q 441 113 512 153 
Q 584 194 626 287 
Q 669 381 669 647 
L 669 1750 
Q 669 2216 641 2353 
Q 619 2453 572 2492 
Q 525 2531 444 2531 
Q 356 2531 231 2484 
L 188 2597 
L 1050 2947 
L 1188 2947 
z
" transform="scale(0.015625)"/>
     </defs>
     <use xlink:href="#TimesNewRomanPSMT-41"/>
     <use xlink:href="#TimesNewRomanPSMT-63" transform="translate(72.216797 0)"/>
     <use xlink:href="#TimesNewRomanPSMT-63" transform="translate(116.601562 0)"/>
     <use xlink:href="#TimesNewRomanPSMT-75" transform="translate(160.986328 0)"/>
     <use xlink:href="#TimesNewRomanPSMT-72" transform="translate(210.986328 0)"/>
     <use xlink:href="#TimesNewRomanPSMT-61" transform="translate(244.287109 0)"/>
     <use xlink:href="#TimesNewRomanPSMT-63" transform="translate(288.671875 0)"/>
     <use xlink:href="#TimesNewRomanPSMT-79" transform="translate(333.056641 0)"/>
     <use xlink:href="#TimesNewRomanPSMT-20" transform="translate(383.056641 0)"/>
     <use xlink:href="#TimesNewRomanPSMT-6f" transform="translate(408.056641 0)"/>
     <use xlink:href="#TimesNewRomanPSMT-66" transform="translate(458.056641 0)"/>
     <use xlink:href="#TimesNewRomanPSMT-20" transform="translate(491.357422 0)"/>
     <use xlink:href="#TimesNewRomanPSMT-74" transform="translate(516.357422 0)"/>
     <use xlink:href="#TimesNewRomanPSMT-68" transform="translate(544.140625 0)"/>
     <use xlink:href="#TimesNewRomanPSMT-65" transform="translate(594.140625 0)"/>
     <use xlink:href="#TimesNewRomanPSMT-20" transform="translate(638.525391 0)"/>
     <use xlink:href="#TimesNewRomanPSMT-30" transform="translate(663.525391 0)"/>
     <use xlink:href="#TimesNewRomanPSMT-39" transform="translate(713.525391 0)"/>
     <use xlink:href="#TimesNewRomanPSMT-5f" transform="translate(763.525391 0)"/>
     <use xlink:href="#TimesNewRomanPSMT-30" transform="translate(813.525391 0)"/>
     <use xlink:href="#TimesNewRomanPSMT-37" transform="translate(863.525391 0)"/>
     <use xlink:href="#TimesNewRomanPSMT-5f" transform="translate(913.525391 0)"/>
     <use xlink:href="#TimesNewRomanPSMT-32" transform="translate(963.525391 0)"/>
     <use xlink:href="#TimesNewRomanPSMT-35" transform="translate(1013.525391 0)"/>
     <use xlink:href="#TimesNewRomanPSMT-5f" transform="translate(1063.525391 0)"/>
     <use xlink:href="#TimesNewRomanPSMT-43" transform="translate(1113.525391 0)"/>
     <use xlink:href="#TimesNewRomanPSMT-49" transform="translate(1180.224609 0)"/>
     <use xlink:href="#TimesNewRomanPSMT-4e" transform="translate(1213.525391 0)"/>
     <use xlink:href="#TimesNewRomanPSMT-49" transform="translate(1285.742188 0)"/>
     <use xlink:href="#TimesNewRomanPSMT-43" transform="translate(1319.042969 0)"/>
     <use xlink:href="#TimesNewRomanPSMT-31" transform="translate(1385.742188 0)"/>
     <use xlink:href="#TimesNewRomanPSMT-30" transform="translate(1435.742188 0)"/>
     <use xlink:href="#TimesNewRomanPSMT-5f" transform="translate(1485.742188 0)"/>
     <use xlink:href="#TimesNewRomanPSMT-74" transform="translate(1535.742188 0)"/>
     <use xlink:href="#TimesNewRomanPSMT-6f" transform="translate(1563.525391 0)"/>
     <use xlink:href="#TimesNewRomanPSMT-72" transform="translate(1613.525391 0)"/>
     <use xlink:href="#TimesNewRomanPSMT-63" transform="translate(1646.826172 0)"/>
     <use xlink:href="#TimesNewRomanPSMT-68" transform="translate(1691.210938 0)"/>
     <use xlink:href="#TimesNewRomanPSMT-5f" transform="translate(1741.210938 0)"/>
     <use xlink:href="#TimesNewRomanPSMT-6d" transform="translate(1791.210938 0)"/>
     <use xlink:href="#TimesNewRomanPSMT-6f" transform="translate(1868.994141 0)"/>
     <use xlink:href="#TimesNewRomanPSMT-64" transform="translate(1918.994141 0)"/>
     <use xlink:href="#TimesNewRomanPSMT-65" transform="translate(1968.994141 0)"/>
     <use xlink:href="#TimesNewRomanPSMT-6c" transform="translate(2013.378906 0)"/>
     <use xlink:href="#TimesNewRomanPSMT-5f" transform="translate(2041.162109 0)"/>
     <use xlink:href="#TimesNewRomanPSMT-28" transform="translate(2091.162109 0)"/>
     <use xlink:href="#TimesNewRomanPSMT-31" transform="translate(2124.462891 0)"/>
     <use xlink:href="#TimesNewRomanPSMT-30" transform="translate(2174.462891 0)"/>
     <use xlink:href="#TimesNewRomanPSMT-32" transform="translate(2224.462891 0)"/>
     <use xlink:href="#TimesNewRomanPSMT-34" transform="translate(2274.462891 0)"/>
     <use xlink:href="#TimesNewRomanPSMT-2b" transform="translate(2324.462891 0)"/>
     <use xlink:href="#TimesNewRomanPSMT-38" transform="translate(2380.859375 0)"/>
     <use xlink:href="#TimesNewRomanPSMT-31" transform="translate(2430.859375 0)"/>
     <use xlink:href="#TimesNewRomanPSMT-39" transform="translate(2480.859375 0)"/>
     <use xlink:href="#TimesNewRomanPSMT-32" transform="translate(2530.859375 0)"/>
     <use xlink:href="#TimesNewRomanPSMT-2d" transform="translate(2580.859375 0)"/>
     <use xlink:href="#TimesNewRomanPSMT-38" transform="translate(2614.160156 0)"/>
     <use xlink:href="#TimesNewRomanPSMT-31" transform="translate(2664.160156 0)"/>
     <use xlink:href="#TimesNewRomanPSMT-39" transform="translate(2714.160156 0)"/>
     <use xlink:href="#TimesNewRomanPSMT-32" transform="translate(2764.160156 0)"/>
     <use xlink:href="#TimesNewRomanPSMT-2e" transform="translate(2814.160156 0)"/>
     <use xlink:href="#TimesNewRomanPSMT-33" transform="translate(2839.160156 0)"/>
     <use xlink:href="#TimesNewRomanPSMT-2b" transform="translate(2889.160156 0)"/>
     <use xlink:href="#TimesNewRomanPSMT-31" transform="translate(2945.556641 0)"/>
     <use xlink:href="#TimesNewRomanPSMT-29" transform="translate(2995.556641 0)"/>
     <use xlink:href="#TimesNewRomanPSMT-5f" transform="translate(3028.857422 0)"/>
     <use xlink:href="#TimesNewRomanPSMT-65" transform="translate(3078.857422 0)"/>
     <use xlink:href="#TimesNewRomanPSMT-6c" transform="translate(3123.242188 0)"/>
     <use xlink:href="#TimesNewRomanPSMT-6b" transform="translate(3151.025391 0)"/>
     <use xlink:href="#TimesNewRomanPSMT-2d" transform="translate(3201.025391 0)"/>
     <use xlink:href="#TimesNewRomanPSMT-68" transform="translate(3234.326172 0)"/>
     <use xlink:href="#TimesNewRomanPSMT-6f" transform="translate(3284.326172 0)"/>
     <use xlink:href="#TimesNewRomanPSMT-72" transform="translate(3334.326172 0)"/>
     <use xlink:href="#TimesNewRomanPSMT-73" transform="translate(3367.626953 0)"/>
     <use xlink:href="#TimesNewRomanPSMT-65" transform="translate(3406.542969 0)"/>
     <use xlink:href="#TimesNewRomanPSMT-20" transform="translate(3450.927734 0)"/>
     <use xlink:href="#TimesNewRomanPSMT-6f" transform="translate(3475.927734 0)"/>
     <use xlink:href="#TimesNewRomanPSMT-6e" transform="translate(3525.927734 0)"/>
     <use xlink:href="#TimesNewRomanPSMT-20" transform="translate(3575.927734 0)"/>
     <use xlink:href="#TimesNewRomanPSMT-74" transform="translate(3600.927734 0)"/>
     <use xlink:href="#TimesNewRomanPSMT-68" transform="translate(3628.710938 0)"/>
     <use xlink:href="#TimesNewRomanPSMT-65" transform="translate(3678.710938 0)"/>
     <use xlink:href="#TimesNewRomanPSMT-20" transform="translate(3723.095703 0)"/>
     <use xlink:href="#TimesNewRomanPSMT-76" transform="translate(3748.095703 0)"/>
     <use xlink:href="#TimesNewRomanPSMT-61" transform="translate(3798.095703 0)"/>
     <use xlink:href="#TimesNewRomanPSMT-6c" transform="translate(3842.480469 0)"/>
     <use xlink:href="#TimesNewRomanPSMT-69" transform="translate(3870.263672 0)"/>
     <use xlink:href="#TimesNewRomanPSMT-64" transform="translate(3898.046875 0)"/>
     <use xlink:href="#TimesNewRomanPSMT-61" transform="translate(3948.046875 0)"/>
     <use xlink:href="#TimesNewRomanPSMT-74" transform="translate(3992.431641 0)"/>
     <use xlink:href="#TimesNewRomanPSMT-69" transform="translate(4020.214844 0)"/>
     <use xlink:href="#TimesNewRomanPSMT-6f" transform="translate(4047.998047 0)"/>
     <use xlink:href="#TimesNewRomanPSMT-6e" transform="translate(4097.998047 0)"/>
     <use xlink:href="#TimesNewRomanPSMT-20" transform="translate(4147.998047 0)"/>
     <use xlink:href="#TimesNewRomanPSMT-73" transform="translate(4172.998047 0)"/>
     <use xlink:href="#TimesNewRomanPSMT-65" transform="translate(4211.914062 0)"/>
     <use xlink:href="#TimesNewRomanPSMT-74" transform="translate(4256.298828 0)"/>
    </g>
   </g>
   <g id="legend_1">
    <g id="patch_7">
     <path d="M 498.692125 94.278687 
L 735.862438 94.278687 
Q 740.262438 94.278687 740.262438 89.878687 
L 740.262438 60.9315 
Q 740.262438 56.5315 735.862438 56.5315 
L 498.692125 56.5315 
Q 494.292125 56.5315 494.292125 60.9315 
L 494.292125 89.878687 
Q 494.292125 94.278687 498.692125 94.278687 
z
" style="fill: #ffffff; opacity: 0.8; stroke: #cccccc; stroke-linejoin: miter"/>
    </g>
    <g id="line2d_30">
     <path d="M 503.092125 73.0315 
L 525.092125 73.0315 
L 547.092125 73.0315 
" style="fill: none; stroke: #1f77b4; stroke-width: 1.5; stroke-linecap: square"/>
    </g>
    <g id="text_18">
     <!-- Best accuracy 0.73 -->
     <g transform="translate(564.692125 80.7315) scale(0.22 -0.22)">
      <defs>
       <path id="TimesNewRomanPSMT-42" d="M 2956 2163 
Q 3397 2069 3616 1863 
Q 3919 1575 3919 1159 
Q 3919 844 3719 555 
Q 3519 266 3170 133 
Q 2822 0 2106 0 
L 106 0 
L 106 116 
L 266 116 
Q 531 116 647 284 
Q 719 394 719 750 
L 719 3488 
Q 719 3881 628 3984 
Q 506 4122 266 4122 
L 106 4122 
L 106 4238 
L 1938 4238 
Q 2450 4238 2759 4163 
Q 3228 4050 3475 3764 
Q 3722 3478 3722 3106 
Q 3722 2788 3528 2536 
Q 3334 2284 2956 2163 
z
M 1319 2331 
Q 1434 2309 1582 2298 
Q 1731 2288 1909 2288 
Q 2366 2288 2595 2386 
Q 2825 2484 2947 2687 
Q 3069 2891 3069 3131 
Q 3069 3503 2766 3765 
Q 2463 4028 1881 4028 
Q 1569 4028 1319 3959 
L 1319 2331 
z
M 1319 306 
Q 1681 222 2034 222 
Q 2600 222 2897 476 
Q 3194 731 3194 1106 
Q 3194 1353 3059 1581 
Q 2925 1809 2622 1940 
Q 2319 2072 1872 2072 
Q 1678 2072 1540 2065 
Q 1403 2059 1319 2044 
L 1319 306 
z
" transform="scale(0.015625)"/>
      </defs>
      <use xlink:href="#TimesNewRomanPSMT-42"/>
      <use xlink:href="#TimesNewRomanPSMT-65" transform="translate(66.699219 0)"/>
      <use xlink:href="#TimesNewRomanPSMT-73" transform="translate(111.083984 0)"/>
      <use xlink:href="#TimesNewRomanPSMT-74" transform="translate(150 0)"/>
      <use xlink:href="#TimesNewRomanPSMT-20" transform="translate(177.783203 0)"/>
      <use xlink:href="#TimesNewRomanPSMT-61" transform="translate(202.783203 0)"/>
      <use xlink:href="#TimesNewRomanPSMT-63" transform="translate(247.167969 0)"/>
      <use xlink:href="#TimesNewRomanPSMT-63" transform="translate(291.552734 0)"/>
      <use xlink:href="#TimesNewRomanPSMT-75" transform="translate(335.9375 0)"/>
      <use xlink:href="#TimesNewRomanPSMT-72" transform="translate(385.9375 0)"/>
      <use xlink:href="#TimesNewRomanPSMT-61" transform="translate(419.238281 0)"/>
      <use xlink:href="#TimesNewRomanPSMT-63" transform="translate(463.623047 0)"/>
      <use xlink:href="#TimesNewRomanPSMT-79" transform="translate(508.007812 0)"/>
      <use xlink:href="#TimesNewRomanPSMT-20" transform="translate(558.007812 0)"/>
      <use xlink:href="#TimesNewRomanPSMT-30" transform="translate(583.007812 0)"/>
      <use xlink:href="#TimesNewRomanPSMT-2e" transform="translate(633.007812 0)"/>
      <use xlink:href="#TimesNewRomanPSMT-37" transform="translate(658.007812 0)"/>
      <use xlink:href="#TimesNewRomanPSMT-33" transform="translate(708.007812 0)"/>
     </g>
    </g>
   </g>
  </g>
 </g>
 <defs>
  <clipPath id="p199b70f524">
   <rect x="394.142438" y="45.5315" width="357.12" height="266.112"/>
  </clipPath>
 </defs>
</svg>
