<?xml version="1.0" encoding="utf-8" standalone="no"?>
<!DOCTYPE svg PUBLIC "-//W3C//DTD SVG 1.1//EN"
  "http://www.w3.org/Graphics/SVG/1.1/DTD/svg11.dtd">
<svg xmlns:xlink="http://www.w3.org/1999/xlink" width="1070.049375pt" height="369.807875pt" viewBox="0 0 1070.049375 369.807875" xmlns="http://www.w3.org/2000/svg" version="1.1">
 <metadata>
  <rdf:RDF xmlns:dc="http://purl.org/dc/elements/1.1/" xmlns:cc="http://creativecommons.org/ns#" xmlns:rdf="http://www.w3.org/1999/02/22-rdf-syntax-ns#">
   <cc:Work>
    <dc:type rdf:resource="http://purl.org/dc/dcmitype/StillImage"/>
    <dc:date>2025-07-13T14:22:05.855255</dc:date>
    <dc:format>image/svg+xml</dc:format>
    <dc:creator>
     <cc:Agent>
      <dc:title>Matplotlib v3.10.3, https://matplotlib.org/</dc:title>
     </cc:Agent>
    </dc:creator>
   </cc:Work>
  </rdf:RDF>
 </metadata>
 <defs>
  <style type="text/css">*{stroke-linejoin: round; stroke-linecap: butt}</style>
 </defs>
 <g id="figure_1">
  <g id="patch_1">
   <path d="M 0 369.807875 
L 1070.049375 369.807875 
L 1070.049375 0 
L 0 0 
z
" style="fill: #ffffff"/>
  </g>
  <g id="axes_1">
   <g id="patch_2">
    <path d="M 356.464687 311.6435 
L 713.584687 311.6435 
L 713.584687 45.5315 
L 356.464687 45.5315 
z
" style="fill: #ffffff"/>
   </g>
   <g id="matplotlib.axis_1">
    <g id="xtick_1">
     <g id="line2d_1">
      <path d="M 356.464687 311.6435 
L 356.464687 45.5315 
" clip-path="url(#p03df29e83c)" style="fill: none; stroke: #b0b0b0; stroke-opacity: 0.3; stroke-width: 0.8; stroke-linecap: square"/>
     </g>
     <g id="line2d_2">
      <defs>
       <path id="m0d08ab1788" d="M 0 0 
L 0 3.5 
" style="stroke: #000000; stroke-width: 0.8"/>
      </defs>
      <g>
       <use xlink:href="#m0d08ab1788" x="356.464687" y="311.6435" style="stroke: #000000; stroke-width: 0.8"/>
      </g>
     </g>
     <g id="text_1">
      <!-- 0 -->
      <g transform="translate(350.964687 333.91975) scale(0.22 -0.22)">
       <defs>
        <path id="TimesNewRomanPSMT-30" d="M 231 2094 
Q 231 2819 450 3342 
Q 669 3866 1031 4122 
Q 1313 4325 1613 4325 
Q 2100 4325 2488 3828 
Q 2972 3213 2972 2159 
Q 2972 1422 2759 906 
Q 2547 391 2217 158 
Q 1888 -75 1581 -75 
Q 975 -75 572 641 
Q 231 1244 231 2094 
z
M 844 2016 
Q 844 1141 1059 588 
Q 1238 122 1591 122 
Q 1759 122 1940 273 
Q 2122 425 2216 781 
Q 2359 1319 2359 2297 
Q 2359 3022 2209 3506 
Q 2097 3866 1919 4016 
Q 1791 4119 1609 4119 
Q 1397 4119 1231 3928 
Q 1006 3669 925 3112 
Q 844 2556 844 2016 
z
" transform="scale(0.015625)"/>
       </defs>
       <use xlink:href="#TimesNewRomanPSMT-30"/>
      </g>
     </g>
    </g>
    <g id="xtick_2">
     <g id="line2d_3">
      <path d="M 430.864687 311.6435 
L 430.864687 45.5315 
" clip-path="url(#p03df29e83c)" style="fill: none; stroke: #b0b0b0; stroke-opacity: 0.3; stroke-width: 0.8; stroke-linecap: square"/>
     </g>
     <g id="line2d_4">
      <g>
       <use xlink:href="#m0d08ab1788" x="430.864687" y="311.6435" style="stroke: #000000; stroke-width: 0.8"/>
      </g>
     </g>
     <g id="text_2">
      <!-- 25000 -->
      <g transform="translate(403.364687 333.91975) scale(0.22 -0.22)">
       <defs>
        <path id="TimesNewRomanPSMT-32" d="M 2934 816 
L 2638 0 
L 138 0 
L 138 116 
Q 1241 1122 1691 1759 
Q 2141 2397 2141 2925 
Q 2141 3328 1894 3587 
Q 1647 3847 1303 3847 
Q 991 3847 742 3664 
Q 494 3481 375 3128 
L 259 3128 
Q 338 3706 661 4015 
Q 984 4325 1469 4325 
Q 1984 4325 2329 3994 
Q 2675 3663 2675 3213 
Q 2675 2891 2525 2569 
Q 2294 2063 1775 1497 
Q 997 647 803 472 
L 1909 472 
Q 2247 472 2383 497 
Q 2519 522 2628 598 
Q 2738 675 2819 816 
L 2934 816 
z
" transform="scale(0.015625)"/>
        <path id="TimesNewRomanPSMT-35" d="M 2778 4238 
L 2534 3706 
L 1259 3706 
L 981 3138 
Q 1809 3016 2294 2522 
Q 2709 2097 2709 1522 
Q 2709 1188 2573 903 
Q 2438 619 2231 419 
Q 2025 219 1772 97 
Q 1413 -75 1034 -75 
Q 653 -75 479 54 
Q 306 184 306 341 
Q 306 428 378 495 
Q 450 563 559 563 
Q 641 563 702 538 
Q 763 513 909 409 
Q 1144 247 1384 247 
Q 1750 247 2026 523 
Q 2303 800 2303 1197 
Q 2303 1581 2056 1914 
Q 1809 2247 1375 2428 
Q 1034 2569 447 2591 
L 1259 4238 
L 2778 4238 
z
" transform="scale(0.015625)"/>
       </defs>
       <use xlink:href="#TimesNewRomanPSMT-32"/>
       <use xlink:href="#TimesNewRomanPSMT-35" transform="translate(50 0)"/>
       <use xlink:href="#TimesNewRomanPSMT-30" transform="translate(100 0)"/>
       <use xlink:href="#TimesNewRomanPSMT-30" transform="translate(150 0)"/>
       <use xlink:href="#TimesNewRomanPSMT-30" transform="translate(200 0)"/>
      </g>
     </g>
    </g>
    <g id="xtick_3">
     <g id="line2d_5">
      <path d="M 505.264687 311.6435 
L 505.264687 45.5315 
" clip-path="url(#p03df29e83c)" style="fill: none; stroke: #b0b0b0; stroke-opacity: 0.3; stroke-width: 0.8; stroke-linecap: square"/>
     </g>
     <g id="line2d_6">
      <g>
       <use xlink:href="#m0d08ab1788" x="505.264687" y="311.6435" style="stroke: #000000; stroke-width: 0.8"/>
      </g>
     </g>
     <g id="text_3">
      <!-- 50000 -->
      <g transform="translate(477.764687 333.91975) scale(0.22 -0.22)">
       <use xlink:href="#TimesNewRomanPSMT-35"/>
       <use xlink:href="#TimesNewRomanPSMT-30" transform="translate(50 0)"/>
       <use xlink:href="#TimesNewRomanPSMT-30" transform="translate(100 0)"/>
       <use xlink:href="#TimesNewRomanPSMT-30" transform="translate(150 0)"/>
       <use xlink:href="#TimesNewRomanPSMT-30" transform="translate(200 0)"/>
      </g>
     </g>
    </g>
    <g id="xtick_4">
     <g id="line2d_7">
      <path d="M 579.664688 311.6435 
L 579.664688 45.5315 
" clip-path="url(#p03df29e83c)" style="fill: none; stroke: #b0b0b0; stroke-opacity: 0.3; stroke-width: 0.8; stroke-linecap: square"/>
     </g>
     <g id="line2d_8">
      <g>
       <use xlink:href="#m0d08ab1788" x="579.664688" y="311.6435" style="stroke: #000000; stroke-width: 0.8"/>
      </g>
     </g>
     <g id="text_4">
      <!-- 75000 -->
      <g transform="translate(552.164688 333.91975) scale(0.22 -0.22)">
       <defs>
        <path id="TimesNewRomanPSMT-37" d="M 644 4238 
L 2916 4238 
L 2916 4119 
L 1503 -88 
L 1153 -88 
L 2419 3728 
L 1253 3728 
Q 900 3728 750 3644 
Q 488 3500 328 3200 
L 238 3234 
L 644 4238 
z
" transform="scale(0.015625)"/>
       </defs>
       <use xlink:href="#TimesNewRomanPSMT-37"/>
       <use xlink:href="#TimesNewRomanPSMT-35" transform="translate(50 0)"/>
       <use xlink:href="#TimesNewRomanPSMT-30" transform="translate(100 0)"/>
       <use xlink:href="#TimesNewRomanPSMT-30" transform="translate(150 0)"/>
       <use xlink:href="#TimesNewRomanPSMT-30" transform="translate(200 0)"/>
      </g>
     </g>
    </g>
    <g id="xtick_5">
     <g id="line2d_9">
      <path d="M 654.064687 311.6435 
L 654.064687 45.5315 
" clip-path="url(#p03df29e83c)" style="fill: none; stroke: #b0b0b0; stroke-opacity: 0.3; stroke-width: 0.8; stroke-linecap: square"/>
     </g>
     <g id="line2d_10">
      <g>
       <use xlink:href="#m0d08ab1788" x="654.064687" y="311.6435" style="stroke: #000000; stroke-width: 0.8"/>
      </g>
     </g>
     <g id="text_5">
      <!-- 100000 -->
      <g transform="translate(621.064687 333.91975) scale(0.22 -0.22)">
       <defs>
        <path id="TimesNewRomanPSMT-31" d="M 750 3822 
L 1781 4325 
L 1884 4325 
L 1884 747 
Q 1884 391 1914 303 
Q 1944 216 2037 169 
Q 2131 122 2419 116 
L 2419 0 
L 825 0 
L 825 116 
Q 1125 122 1212 167 
Q 1300 213 1334 289 
Q 1369 366 1369 747 
L 1369 3034 
Q 1369 3497 1338 3628 
Q 1316 3728 1258 3775 
Q 1200 3822 1119 3822 
Q 1003 3822 797 3725 
L 750 3822 
z
" transform="scale(0.015625)"/>
       </defs>
       <use xlink:href="#TimesNewRomanPSMT-31"/>
       <use xlink:href="#TimesNewRomanPSMT-30" transform="translate(50 0)"/>
       <use xlink:href="#TimesNewRomanPSMT-30" transform="translate(100 0)"/>
       <use xlink:href="#TimesNewRomanPSMT-30" transform="translate(150 0)"/>
       <use xlink:href="#TimesNewRomanPSMT-30" transform="translate(200 0)"/>
       <use xlink:href="#TimesNewRomanPSMT-30" transform="translate(250 0)"/>
      </g>
     </g>
    </g>
    <g id="text_6">
     <!-- Number of iterations -->
     <g transform="translate(443.382656 357.901937) scale(0.22 -0.22)">
      <defs>
       <path id="TimesNewRomanPSMT-4e" d="M -84 4238 
L 1066 4238 
L 3656 1059 
L 3656 3503 
Q 3656 3894 3569 3991 
Q 3453 4122 3203 4122 
L 3056 4122 
L 3056 4238 
L 4531 4238 
L 4531 4122 
L 4381 4122 
Q 4113 4122 4000 3959 
Q 3931 3859 3931 3503 
L 3931 -69 
L 3819 -69 
L 1025 3344 
L 1025 734 
Q 1025 344 1109 247 
Q 1228 116 1475 116 
L 1625 116 
L 1625 0 
L 150 0 
L 150 116 
L 297 116 
Q 569 116 681 278 
Q 750 378 750 734 
L 750 3681 
Q 566 3897 470 3965 
Q 375 4034 191 4094 
Q 100 4122 -84 4122 
L -84 4238 
z
" transform="scale(0.015625)"/>
       <path id="TimesNewRomanPSMT-75" d="M 2709 2863 
L 2709 1128 
Q 2709 631 2732 520 
Q 2756 409 2807 365 
Q 2859 322 2928 322 
Q 3025 322 3147 375 
L 3191 266 
L 2334 -88 
L 2194 -88 
L 2194 519 
Q 1825 119 1631 15 
Q 1438 -88 1222 -88 
Q 981 -88 804 51 
Q 628 191 559 409 
Q 491 628 491 1028 
L 491 2306 
Q 491 2509 447 2587 
Q 403 2666 317 2708 
Q 231 2750 6 2747 
L 6 2863 
L 1009 2863 
L 1009 947 
Q 1009 547 1148 422 
Q 1288 297 1484 297 
Q 1619 297 1789 381 
Q 1959 466 2194 703 
L 2194 2325 
Q 2194 2569 2105 2655 
Q 2016 2741 1734 2747 
L 1734 2863 
L 2709 2863 
z
" transform="scale(0.015625)"/>
       <path id="TimesNewRomanPSMT-6d" d="M 1050 2338 
Q 1363 2650 1419 2697 
Q 1559 2816 1721 2881 
Q 1884 2947 2044 2947 
Q 2313 2947 2506 2790 
Q 2700 2634 2766 2338 
Q 3088 2713 3309 2830 
Q 3531 2947 3766 2947 
Q 3994 2947 4170 2830 
Q 4347 2713 4450 2447 
Q 4519 2266 4519 1878 
L 4519 647 
Q 4519 378 4559 278 
Q 4591 209 4675 161 
Q 4759 113 4950 113 
L 4950 0 
L 3538 0 
L 3538 113 
L 3597 113 
Q 3781 113 3884 184 
Q 3956 234 3988 344 
Q 4000 397 4000 647 
L 4000 1878 
Q 4000 2228 3916 2372 
Q 3794 2572 3525 2572 
Q 3359 2572 3192 2489 
Q 3025 2406 2788 2181 
L 2781 2147 
L 2788 2013 
L 2788 647 
Q 2788 353 2820 281 
Q 2853 209 2943 161 
Q 3034 113 3253 113 
L 3253 0 
L 1806 0 
L 1806 113 
Q 2044 113 2133 169 
Q 2222 225 2256 338 
Q 2272 391 2272 647 
L 2272 1878 
Q 2272 2228 2169 2381 
Q 2031 2581 1784 2581 
Q 1616 2581 1450 2491 
Q 1191 2353 1050 2181 
L 1050 647 
Q 1050 366 1089 281 
Q 1128 197 1204 155 
Q 1281 113 1516 113 
L 1516 0 
L 100 0 
L 100 113 
Q 297 113 375 155 
Q 453 197 493 289 
Q 534 381 534 647 
L 534 1741 
Q 534 2213 506 2350 
Q 484 2453 437 2492 
Q 391 2531 309 2531 
Q 222 2531 100 2484 
L 53 2597 
L 916 2947 
L 1050 2947 
L 1050 2338 
z
" transform="scale(0.015625)"/>
       <path id="TimesNewRomanPSMT-62" d="M 984 2369 
Q 1400 2947 1881 2947 
Q 2322 2947 2650 2570 
Q 2978 2194 2978 1541 
Q 2978 778 2472 313 
Q 2038 -88 1503 -88 
Q 1253 -88 995 3 
Q 738 94 469 275 
L 469 3241 
Q 469 3728 445 3840 
Q 422 3953 372 3993 
Q 322 4034 247 4034 
Q 159 4034 28 3984 
L -16 4094 
L 844 4444 
L 984 4444 
L 984 2369 
z
M 984 2169 
L 984 456 
Q 1144 300 1314 220 
Q 1484 141 1663 141 
Q 1947 141 2192 453 
Q 2438 766 2438 1363 
Q 2438 1913 2192 2208 
Q 1947 2503 1634 2503 
Q 1469 2503 1303 2419 
Q 1178 2356 984 2169 
z
" transform="scale(0.015625)"/>
       <path id="TimesNewRomanPSMT-65" d="M 681 1784 
Q 678 1147 991 784 
Q 1303 422 1725 422 
Q 2006 422 2214 576 
Q 2422 731 2563 1106 
L 2659 1044 
Q 2594 616 2278 264 
Q 1963 -88 1488 -88 
Q 972 -88 605 314 
Q 238 716 238 1394 
Q 238 2128 614 2539 
Q 991 2950 1559 2950 
Q 2041 2950 2350 2633 
Q 2659 2316 2659 1784 
L 681 1784 
z
M 681 1966 
L 2006 1966 
Q 1991 2241 1941 2353 
Q 1863 2528 1708 2628 
Q 1553 2728 1384 2728 
Q 1125 2728 920 2526 
Q 716 2325 681 1966 
z
" transform="scale(0.015625)"/>
       <path id="TimesNewRomanPSMT-72" d="M 1038 2947 
L 1038 2303 
Q 1397 2947 1775 2947 
Q 1947 2947 2059 2842 
Q 2172 2738 2172 2600 
Q 2172 2478 2090 2393 
Q 2009 2309 1897 2309 
Q 1788 2309 1652 2417 
Q 1516 2525 1450 2525 
Q 1394 2525 1328 2463 
Q 1188 2334 1038 2041 
L 1038 669 
Q 1038 431 1097 309 
Q 1138 225 1241 169 
Q 1344 113 1538 113 
L 1538 0 
L 72 0 
L 72 113 
Q 291 113 397 181 
Q 475 231 506 341 
Q 522 394 522 644 
L 522 1753 
Q 522 2253 501 2348 
Q 481 2444 426 2487 
Q 372 2531 291 2531 
Q 194 2531 72 2484 
L 41 2597 
L 906 2947 
L 1038 2947 
z
" transform="scale(0.015625)"/>
       <path id="TimesNewRomanPSMT-20" transform="scale(0.015625)"/>
       <path id="TimesNewRomanPSMT-6f" d="M 1600 2947 
Q 2250 2947 2644 2453 
Q 2978 2031 2978 1484 
Q 2978 1100 2793 706 
Q 2609 313 2286 112 
Q 1963 -88 1566 -88 
Q 919 -88 538 428 
Q 216 863 216 1403 
Q 216 1797 411 2186 
Q 606 2575 925 2761 
Q 1244 2947 1600 2947 
z
M 1503 2744 
Q 1338 2744 1170 2645 
Q 1003 2547 900 2300 
Q 797 2053 797 1666 
Q 797 1041 1045 587 
Q 1294 134 1700 134 
Q 2003 134 2200 384 
Q 2397 634 2397 1244 
Q 2397 2006 2069 2444 
Q 1847 2744 1503 2744 
z
" transform="scale(0.015625)"/>
       <path id="TimesNewRomanPSMT-66" d="M 1319 2638 
L 1319 756 
Q 1319 356 1406 250 
Q 1522 113 1716 113 
L 1975 113 
L 1975 0 
L 266 0 
L 266 113 
L 394 113 
Q 519 113 622 175 
Q 725 238 764 344 
Q 803 450 803 756 
L 803 2638 
L 247 2638 
L 247 2863 
L 803 2863 
L 803 3050 
Q 803 3478 940 3775 
Q 1078 4072 1361 4255 
Q 1644 4438 1997 4438 
Q 2325 4438 2600 4225 
Q 2781 4084 2781 3909 
Q 2781 3816 2700 3733 
Q 2619 3650 2525 3650 
Q 2453 3650 2373 3701 
Q 2294 3753 2178 3923 
Q 2063 4094 1966 4153 
Q 1869 4213 1750 4213 
Q 1606 4213 1506 4136 
Q 1406 4059 1362 3898 
Q 1319 3738 1319 3069 
L 1319 2863 
L 2056 2863 
L 2056 2638 
L 1319 2638 
z
" transform="scale(0.015625)"/>
       <path id="TimesNewRomanPSMT-69" d="M 928 4444 
Q 1059 4444 1151 4351 
Q 1244 4259 1244 4128 
Q 1244 3997 1151 3903 
Q 1059 3809 928 3809 
Q 797 3809 703 3903 
Q 609 3997 609 4128 
Q 609 4259 701 4351 
Q 794 4444 928 4444 
z
M 1188 2947 
L 1188 647 
Q 1188 378 1227 289 
Q 1266 200 1342 156 
Q 1419 113 1622 113 
L 1622 0 
L 231 0 
L 231 113 
Q 441 113 512 153 
Q 584 194 626 287 
Q 669 381 669 647 
L 669 1750 
Q 669 2216 641 2353 
Q 619 2453 572 2492 
Q 525 2531 444 2531 
Q 356 2531 231 2484 
L 188 2597 
L 1050 2947 
L 1188 2947 
z
" transform="scale(0.015625)"/>
       <path id="TimesNewRomanPSMT-74" d="M 1031 3803 
L 1031 2863 
L 1700 2863 
L 1700 2644 
L 1031 2644 
L 1031 788 
Q 1031 509 1111 412 
Q 1191 316 1316 316 
Q 1419 316 1516 380 
Q 1613 444 1666 569 
L 1788 569 
Q 1678 263 1478 108 
Q 1278 -47 1066 -47 
Q 922 -47 784 33 
Q 647 113 581 261 
Q 516 409 516 719 
L 516 2644 
L 63 2644 
L 63 2747 
Q 234 2816 414 2980 
Q 594 3144 734 3369 
Q 806 3488 934 3803 
L 1031 3803 
z
" transform="scale(0.015625)"/>
       <path id="TimesNewRomanPSMT-61" d="M 1822 413 
Q 1381 72 1269 19 
Q 1100 -59 909 -59 
Q 613 -59 420 144 
Q 228 347 228 678 
Q 228 888 322 1041 
Q 450 1253 767 1440 
Q 1084 1628 1822 1897 
L 1822 2009 
Q 1822 2438 1686 2597 
Q 1550 2756 1291 2756 
Q 1094 2756 978 2650 
Q 859 2544 859 2406 
L 866 2225 
Q 866 2081 792 2003 
Q 719 1925 600 1925 
Q 484 1925 411 2006 
Q 338 2088 338 2228 
Q 338 2497 613 2722 
Q 888 2947 1384 2947 
Q 1766 2947 2009 2819 
Q 2194 2722 2281 2516 
Q 2338 2381 2338 1966 
L 2338 994 
Q 2338 584 2353 492 
Q 2369 400 2405 369 
Q 2441 338 2488 338 
Q 2538 338 2575 359 
Q 2641 400 2828 588 
L 2828 413 
Q 2478 -56 2159 -56 
Q 2006 -56 1915 50 
Q 1825 156 1822 413 
z
M 1822 616 
L 1822 1706 
Q 1350 1519 1213 1441 
Q 966 1303 859 1153 
Q 753 1003 753 825 
Q 753 600 887 451 
Q 1022 303 1197 303 
Q 1434 303 1822 616 
z
" transform="scale(0.015625)"/>
       <path id="TimesNewRomanPSMT-6e" d="M 1034 2341 
Q 1538 2947 1994 2947 
Q 2228 2947 2397 2830 
Q 2566 2713 2666 2444 
Q 2734 2256 2734 1869 
L 2734 647 
Q 2734 375 2778 278 
Q 2813 200 2889 156 
Q 2966 113 3172 113 
L 3172 0 
L 1756 0 
L 1756 113 
L 1816 113 
Q 2016 113 2095 173 
Q 2175 234 2206 353 
Q 2219 400 2219 647 
L 2219 1819 
Q 2219 2209 2117 2386 
Q 2016 2563 1775 2563 
Q 1403 2563 1034 2156 
L 1034 647 
Q 1034 356 1069 288 
Q 1113 197 1189 155 
Q 1266 113 1500 113 
L 1500 0 
L 84 0 
L 84 113 
L 147 113 
Q 366 113 442 223 
Q 519 334 519 647 
L 519 1709 
Q 519 2225 495 2337 
Q 472 2450 423 2490 
Q 375 2531 294 2531 
Q 206 2531 84 2484 
L 38 2597 
L 900 2947 
L 1034 2947 
L 1034 2341 
z
" transform="scale(0.015625)"/>
       <path id="TimesNewRomanPSMT-73" d="M 2050 2947 
L 2050 1972 
L 1947 1972 
Q 1828 2431 1642 2597 
Q 1456 2763 1169 2763 
Q 950 2763 815 2647 
Q 681 2531 681 2391 
Q 681 2216 781 2091 
Q 878 1963 1175 1819 
L 1631 1597 
Q 2266 1288 2266 781 
Q 2266 391 1970 151 
Q 1675 -88 1309 -88 
Q 1047 -88 709 6 
Q 606 38 541 38 
Q 469 38 428 -44 
L 325 -44 
L 325 978 
L 428 978 
Q 516 541 762 319 
Q 1009 97 1316 97 
Q 1531 97 1667 223 
Q 1803 350 1803 528 
Q 1803 744 1651 891 
Q 1500 1038 1047 1263 
Q 594 1488 453 1669 
Q 313 1847 313 2119 
Q 313 2472 555 2709 
Q 797 2947 1181 2947 
Q 1350 2947 1591 2875 
Q 1750 2828 1803 2828 
Q 1853 2828 1881 2850 
Q 1909 2872 1947 2947 
L 2050 2947 
z
" transform="scale(0.015625)"/>
      </defs>
      <use xlink:href="#TimesNewRomanPSMT-4e"/>
      <use xlink:href="#TimesNewRomanPSMT-75" transform="translate(72.216797 0)"/>
      <use xlink:href="#TimesNewRomanPSMT-6d" transform="translate(122.216797 0)"/>
      <use xlink:href="#TimesNewRomanPSMT-62" transform="translate(200 0)"/>
      <use xlink:href="#TimesNewRomanPSMT-65" transform="translate(250 0)"/>
      <use xlink:href="#TimesNewRomanPSMT-72" transform="translate(294.384766 0)"/>
      <use xlink:href="#TimesNewRomanPSMT-20" transform="translate(327.685547 0)"/>
      <use xlink:href="#TimesNewRomanPSMT-6f" transform="translate(352.685547 0)"/>
      <use xlink:href="#TimesNewRomanPSMT-66" transform="translate(402.685547 0)"/>
      <use xlink:href="#TimesNewRomanPSMT-20" transform="translate(435.986328 0)"/>
      <use xlink:href="#TimesNewRomanPSMT-69" transform="translate(460.986328 0)"/>
      <use xlink:href="#TimesNewRomanPSMT-74" transform="translate(488.769531 0)"/>
      <use xlink:href="#TimesNewRomanPSMT-65" transform="translate(516.552734 0)"/>
      <use xlink:href="#TimesNewRomanPSMT-72" transform="translate(560.9375 0)"/>
      <use xlink:href="#TimesNewRomanPSMT-61" transform="translate(594.238281 0)"/>
      <use xlink:href="#TimesNewRomanPSMT-74" transform="translate(638.623047 0)"/>
      <use xlink:href="#TimesNewRomanPSMT-69" transform="translate(666.40625 0)"/>
      <use xlink:href="#TimesNewRomanPSMT-6f" transform="translate(694.189453 0)"/>
      <use xlink:href="#TimesNewRomanPSMT-6e" transform="translate(744.189453 0)"/>
      <use xlink:href="#TimesNewRomanPSMT-73" transform="translate(794.189453 0)"/>
     </g>
    </g>
   </g>
   <g id="matplotlib.axis_2">
    <g id="ytick_1">
     <g id="line2d_11">
      <path d="M 356.464687 311.6435 
L 713.584687 311.6435 
" clip-path="url(#p03df29e83c)" style="fill: none; stroke: #b0b0b0; stroke-opacity: 0.3; stroke-width: 0.8; stroke-linecap: square"/>
     </g>
     <g id="line2d_12">
      <defs>
       <path id="m3fa57ffe9d" d="M 0 0 
L -3.5 0 
" style="stroke: #000000; stroke-width: 0.8"/>
      </defs>
      <g>
       <use xlink:href="#m3fa57ffe9d" x="356.464687" y="311.6435" style="stroke: #000000; stroke-width: 0.8"/>
      </g>
     </g>
     <g id="text_7">
      <!-- 0.0 -->
      <g transform="translate(321.964687 319.281625) scale(0.22 -0.22)">
       <defs>
        <path id="TimesNewRomanPSMT-2e" d="M 800 606 
Q 947 606 1047 504 
Q 1147 403 1147 259 
Q 1147 116 1045 14 
Q 944 -88 800 -88 
Q 656 -88 554 14 
Q 453 116 453 259 
Q 453 406 554 506 
Q 656 606 800 606 
z
" transform="scale(0.015625)"/>
       </defs>
       <use xlink:href="#TimesNewRomanPSMT-30"/>
       <use xlink:href="#TimesNewRomanPSMT-2e" transform="translate(50 0)"/>
       <use xlink:href="#TimesNewRomanPSMT-30" transform="translate(75 0)"/>
      </g>
     </g>
    </g>
    <g id="ytick_2">
     <g id="line2d_13">
      <path d="M 356.464687 285.0323 
L 713.584687 285.0323 
" clip-path="url(#p03df29e83c)" style="fill: none; stroke: #b0b0b0; stroke-opacity: 0.3; stroke-width: 0.8; stroke-linecap: square"/>
     </g>
     <g id="line2d_14">
      <g>
       <use xlink:href="#m3fa57ffe9d" x="356.464687" y="285.0323" style="stroke: #000000; stroke-width: 0.8"/>
      </g>
     </g>
     <g id="text_8">
      <!-- 0.1 -->
      <g transform="translate(321.964687 292.670425) scale(0.22 -0.22)">
       <use xlink:href="#TimesNewRomanPSMT-30"/>
       <use xlink:href="#TimesNewRomanPSMT-2e" transform="translate(50 0)"/>
       <use xlink:href="#TimesNewRomanPSMT-31" transform="translate(75 0)"/>
      </g>
     </g>
    </g>
    <g id="ytick_3">
     <g id="line2d_15">
      <path d="M 356.464687 258.4211 
L 713.584687 258.4211 
" clip-path="url(#p03df29e83c)" style="fill: none; stroke: #b0b0b0; stroke-opacity: 0.3; stroke-width: 0.8; stroke-linecap: square"/>
     </g>
     <g id="line2d_16">
      <g>
       <use xlink:href="#m3fa57ffe9d" x="356.464687" y="258.4211" style="stroke: #000000; stroke-width: 0.8"/>
      </g>
     </g>
     <g id="text_9">
      <!-- 0.2 -->
      <g transform="translate(321.964687 266.059225) scale(0.22 -0.22)">
       <use xlink:href="#TimesNewRomanPSMT-30"/>
       <use xlink:href="#TimesNewRomanPSMT-2e" transform="translate(50 0)"/>
       <use xlink:href="#TimesNewRomanPSMT-32" transform="translate(75 0)"/>
      </g>
     </g>
    </g>
    <g id="ytick_4">
     <g id="line2d_17">
      <path d="M 356.464687 231.8099 
L 713.584687 231.8099 
" clip-path="url(#p03df29e83c)" style="fill: none; stroke: #b0b0b0; stroke-opacity: 0.3; stroke-width: 0.8; stroke-linecap: square"/>
     </g>
     <g id="line2d_18">
      <g>
       <use xlink:href="#m3fa57ffe9d" x="356.464687" y="231.8099" style="stroke: #000000; stroke-width: 0.8"/>
      </g>
     </g>
     <g id="text_10">
      <!-- 0.3 -->
      <g transform="translate(321.964687 239.448025) scale(0.22 -0.22)">
       <defs>
        <path id="TimesNewRomanPSMT-33" d="M 325 3431 
Q 506 3859 782 4092 
Q 1059 4325 1472 4325 
Q 1981 4325 2253 3994 
Q 2459 3747 2459 3466 
Q 2459 3003 1878 2509 
Q 2269 2356 2469 2072 
Q 2669 1788 2669 1403 
Q 2669 853 2319 450 
Q 1863 -75 997 -75 
Q 569 -75 414 31 
Q 259 138 259 259 
Q 259 350 332 419 
Q 406 488 509 488 
Q 588 488 669 463 
Q 722 447 909 348 
Q 1097 250 1169 231 
Q 1284 197 1416 197 
Q 1734 197 1970 444 
Q 2206 691 2206 1028 
Q 2206 1275 2097 1509 
Q 2016 1684 1919 1775 
Q 1784 1900 1550 2001 
Q 1316 2103 1072 2103 
L 972 2103 
L 972 2197 
Q 1219 2228 1467 2375 
Q 1716 2522 1828 2728 
Q 1941 2934 1941 3181 
Q 1941 3503 1739 3701 
Q 1538 3900 1238 3900 
Q 753 3900 428 3381 
L 325 3431 
z
" transform="scale(0.015625)"/>
       </defs>
       <use xlink:href="#TimesNewRomanPSMT-30"/>
       <use xlink:href="#TimesNewRomanPSMT-2e" transform="translate(50 0)"/>
       <use xlink:href="#TimesNewRomanPSMT-33" transform="translate(75 0)"/>
      </g>
     </g>
    </g>
    <g id="ytick_5">
     <g id="line2d_19">
      <path d="M 356.464687 205.1987 
L 713.584687 205.1987 
" clip-path="url(#p03df29e83c)" style="fill: none; stroke: #b0b0b0; stroke-opacity: 0.3; stroke-width: 0.8; stroke-linecap: square"/>
     </g>
     <g id="line2d_20">
      <g>
       <use xlink:href="#m3fa57ffe9d" x="356.464687" y="205.1987" style="stroke: #000000; stroke-width: 0.8"/>
      </g>
     </g>
     <g id="text_11">
      <!-- 0.4 -->
      <g transform="translate(321.964687 212.836825) scale(0.22 -0.22)">
       <defs>
        <path id="TimesNewRomanPSMT-34" d="M 2978 1563 
L 2978 1119 
L 2409 1119 
L 2409 0 
L 1894 0 
L 1894 1119 
L 100 1119 
L 100 1519 
L 2066 4325 
L 2409 4325 
L 2409 1563 
L 2978 1563 
z
M 1894 1563 
L 1894 3666 
L 406 1563 
L 1894 1563 
z
" transform="scale(0.015625)"/>
       </defs>
       <use xlink:href="#TimesNewRomanPSMT-30"/>
       <use xlink:href="#TimesNewRomanPSMT-2e" transform="translate(50 0)"/>
       <use xlink:href="#TimesNewRomanPSMT-34" transform="translate(75 0)"/>
      </g>
     </g>
    </g>
    <g id="ytick_6">
     <g id="line2d_21">
      <path d="M 356.464687 178.5875 
L 713.584687 178.5875 
" clip-path="url(#p03df29e83c)" style="fill: none; stroke: #b0b0b0; stroke-opacity: 0.3; stroke-width: 0.8; stroke-linecap: square"/>
     </g>
     <g id="line2d_22">
      <g>
       <use xlink:href="#m3fa57ffe9d" x="356.464687" y="178.5875" style="stroke: #000000; stroke-width: 0.8"/>
      </g>
     </g>
     <g id="text_12">
      <!-- 0.5 -->
      <g transform="translate(321.964687 186.225625) scale(0.22 -0.22)">
       <use xlink:href="#TimesNewRomanPSMT-30"/>
       <use xlink:href="#TimesNewRomanPSMT-2e" transform="translate(50 0)"/>
       <use xlink:href="#TimesNewRomanPSMT-35" transform="translate(75 0)"/>
      </g>
     </g>
    </g>
    <g id="ytick_7">
     <g id="line2d_23">
      <path d="M 356.464687 151.9763 
L 713.584687 151.9763 
" clip-path="url(#p03df29e83c)" style="fill: none; stroke: #b0b0b0; stroke-opacity: 0.3; stroke-width: 0.8; stroke-linecap: square"/>
     </g>
     <g id="line2d_24">
      <g>
       <use xlink:href="#m3fa57ffe9d" x="356.464687" y="151.9763" style="stroke: #000000; stroke-width: 0.8"/>
      </g>
     </g>
     <g id="text_13">
      <!-- 0.6 -->
      <g transform="translate(321.964687 159.614425) scale(0.22 -0.22)">
       <defs>
        <path id="TimesNewRomanPSMT-36" d="M 2869 4325 
L 2869 4209 
Q 2456 4169 2195 4045 
Q 1934 3922 1679 3669 
Q 1425 3416 1258 3105 
Q 1091 2794 978 2366 
Q 1428 2675 1881 2675 
Q 2316 2675 2634 2325 
Q 2953 1975 2953 1425 
Q 2953 894 2631 456 
Q 2244 -75 1606 -75 
Q 1172 -75 869 213 
Q 275 772 275 1663 
Q 275 2231 503 2743 
Q 731 3256 1154 3653 
Q 1578 4050 1965 4187 
Q 2353 4325 2688 4325 
L 2869 4325 
z
M 925 2138 
Q 869 1716 869 1456 
Q 869 1156 980 804 
Q 1091 453 1309 247 
Q 1469 100 1697 100 
Q 1969 100 2183 356 
Q 2397 613 2397 1088 
Q 2397 1622 2184 2012 
Q 1972 2403 1581 2403 
Q 1463 2403 1327 2353 
Q 1191 2303 925 2138 
z
" transform="scale(0.015625)"/>
       </defs>
       <use xlink:href="#TimesNewRomanPSMT-30"/>
       <use xlink:href="#TimesNewRomanPSMT-2e" transform="translate(50 0)"/>
       <use xlink:href="#TimesNewRomanPSMT-36" transform="translate(75 0)"/>
      </g>
     </g>
    </g>
    <g id="ytick_8">
     <g id="line2d_25">
      <path d="M 356.464687 125.3651 
L 713.584687 125.3651 
" clip-path="url(#p03df29e83c)" style="fill: none; stroke: #b0b0b0; stroke-opacity: 0.3; stroke-width: 0.8; stroke-linecap: square"/>
     </g>
     <g id="line2d_26">
      <g>
       <use xlink:href="#m3fa57ffe9d" x="356.464687" y="125.3651" style="stroke: #000000; stroke-width: 0.8"/>
      </g>
     </g>
     <g id="text_14">
      <!-- 0.7 -->
      <g transform="translate(321.964687 133.003225) scale(0.22 -0.22)">
       <use xlink:href="#TimesNewRomanPSMT-30"/>
       <use xlink:href="#TimesNewRomanPSMT-2e" transform="translate(50 0)"/>
       <use xlink:href="#TimesNewRomanPSMT-37" transform="translate(75 0)"/>
      </g>
     </g>
    </g>
    <g id="ytick_9">
     <g id="line2d_27">
      <path d="M 356.464687 98.7539 
L 713.584687 98.7539 
" clip-path="url(#p03df29e83c)" style="fill: none; stroke: #b0b0b0; stroke-opacity: 0.3; stroke-width: 0.8; stroke-linecap: square"/>
     </g>
     <g id="line2d_28">
      <g>
       <use xlink:href="#m3fa57ffe9d" x="356.464687" y="98.7539" style="stroke: #000000; stroke-width: 0.8"/>
      </g>
     </g>
     <g id="text_15">
      <!-- 0.8 -->
      <g transform="translate(321.964687 106.392025) scale(0.22 -0.22)">
       <defs>
        <path id="TimesNewRomanPSMT-38" d="M 1228 2134 
Q 725 2547 579 2797 
Q 434 3047 434 3316 
Q 434 3728 753 4026 
Q 1072 4325 1600 4325 
Q 2113 4325 2425 4047 
Q 2738 3769 2738 3413 
Q 2738 3175 2569 2928 
Q 2400 2681 1866 2347 
Q 2416 1922 2594 1678 
Q 2831 1359 2831 1006 
Q 2831 559 2490 242 
Q 2150 -75 1597 -75 
Q 994 -75 656 303 
Q 388 606 388 966 
Q 388 1247 577 1523 
Q 766 1800 1228 2134 
z
M 1719 2469 
Q 2094 2806 2194 3001 
Q 2294 3197 2294 3444 
Q 2294 3772 2109 3958 
Q 1925 4144 1606 4144 
Q 1288 4144 1088 3959 
Q 888 3775 888 3528 
Q 888 3366 970 3203 
Q 1053 3041 1206 2894 
L 1719 2469 
z
M 1375 2016 
Q 1116 1797 991 1539 
Q 866 1281 866 981 
Q 866 578 1086 336 
Q 1306 94 1647 94 
Q 1984 94 2187 284 
Q 2391 475 2391 747 
Q 2391 972 2272 1150 
Q 2050 1481 1375 2016 
z
" transform="scale(0.015625)"/>
       </defs>
       <use xlink:href="#TimesNewRomanPSMT-30"/>
       <use xlink:href="#TimesNewRomanPSMT-2e" transform="translate(50 0)"/>
       <use xlink:href="#TimesNewRomanPSMT-38" transform="translate(75 0)"/>
      </g>
     </g>
    </g>
    <g id="ytick_10">
     <g id="line2d_29">
      <path d="M 356.464687 72.1427 
L 713.584687 72.1427 
" clip-path="url(#p03df29e83c)" style="fill: none; stroke: #b0b0b0; stroke-opacity: 0.3; stroke-width: 0.8; stroke-linecap: square"/>
     </g>
     <g id="line2d_30">
      <g>
       <use xlink:href="#m3fa57ffe9d" x="356.464687" y="72.1427" style="stroke: #000000; stroke-width: 0.8"/>
      </g>
     </g>
     <g id="text_16">
      <!-- 0.9 -->
      <g transform="translate(321.964687 79.780825) scale(0.22 -0.22)">
       <defs>
        <path id="TimesNewRomanPSMT-39" d="M 338 -88 
L 338 28 
Q 744 34 1094 217 
Q 1444 400 1770 856 
Q 2097 1313 2225 1859 
Q 1734 1544 1338 1544 
Q 891 1544 572 1889 
Q 253 2234 253 2806 
Q 253 3363 572 3797 
Q 956 4325 1575 4325 
Q 2097 4325 2469 3894 
Q 2925 3359 2925 2575 
Q 2925 1869 2578 1258 
Q 2231 647 1613 244 
Q 1109 -88 516 -88 
L 338 -88 
z
M 2275 2091 
Q 2331 2497 2331 2741 
Q 2331 3044 2228 3395 
Q 2125 3747 1936 3934 
Q 1747 4122 1506 4122 
Q 1228 4122 1018 3872 
Q 809 3622 809 3128 
Q 809 2469 1088 2097 
Q 1291 1828 1588 1828 
Q 1731 1828 1928 1897 
Q 2125 1966 2275 2091 
z
" transform="scale(0.015625)"/>
       </defs>
       <use xlink:href="#TimesNewRomanPSMT-30"/>
       <use xlink:href="#TimesNewRomanPSMT-2e" transform="translate(50 0)"/>
       <use xlink:href="#TimesNewRomanPSMT-39" transform="translate(75 0)"/>
      </g>
     </g>
    </g>
    <g id="ytick_11">
     <g id="line2d_31">
      <path d="M 356.464687 45.5315 
L 713.584687 45.5315 
" clip-path="url(#p03df29e83c)" style="fill: none; stroke: #b0b0b0; stroke-opacity: 0.3; stroke-width: 0.8; stroke-linecap: square"/>
     </g>
     <g id="line2d_32">
      <g>
       <use xlink:href="#m3fa57ffe9d" x="356.464687" y="45.5315" style="stroke: #000000; stroke-width: 0.8"/>
      </g>
     </g>
     <g id="text_17">
      <!-- 1.0 -->
      <g transform="translate(321.964687 53.169625) scale(0.22 -0.22)">
       <use xlink:href="#TimesNewRomanPSMT-31"/>
       <use xlink:href="#TimesNewRomanPSMT-2e" transform="translate(50 0)"/>
       <use xlink:href="#TimesNewRomanPSMT-30" transform="translate(75 0)"/>
      </g>
     </g>
    </g>
    <g id="text_18">
     <!-- Accuracy -->
     <g transform="translate(313.2175 220.726094) rotate(-90) scale(0.22 -0.22)">
      <defs>
       <path id="TimesNewRomanPSMT-41" d="M 2928 1419 
L 1288 1419 
L 1000 750 
Q 894 503 894 381 
Q 894 284 986 211 
Q 1078 138 1384 116 
L 1384 0 
L 50 0 
L 50 116 
Q 316 163 394 238 
Q 553 388 747 847 
L 2238 4334 
L 2347 4334 
L 3822 809 
Q 4000 384 4145 257 
Q 4291 131 4550 116 
L 4550 0 
L 2878 0 
L 2878 116 
Q 3131 128 3220 200 
Q 3309 272 3309 375 
Q 3309 513 3184 809 
L 2928 1419 
z
M 2841 1650 
L 2122 3363 
L 1384 1650 
L 2841 1650 
z
" transform="scale(0.015625)"/>
       <path id="TimesNewRomanPSMT-63" d="M 2631 1088 
Q 2516 522 2178 217 
Q 1841 -88 1431 -88 
Q 944 -88 581 321 
Q 219 731 219 1428 
Q 219 2103 620 2525 
Q 1022 2947 1584 2947 
Q 2006 2947 2278 2723 
Q 2550 2500 2550 2259 
Q 2550 2141 2473 2067 
Q 2397 1994 2259 1994 
Q 2075 1994 1981 2113 
Q 1928 2178 1911 2362 
Q 1894 2547 1784 2644 
Q 1675 2738 1481 2738 
Q 1169 2738 978 2506 
Q 725 2200 725 1697 
Q 725 1184 976 792 
Q 1228 400 1656 400 
Q 1963 400 2206 609 
Q 2378 753 2541 1131 
L 2631 1088 
z
" transform="scale(0.015625)"/>
       <path id="TimesNewRomanPSMT-79" d="M 38 2863 
L 1372 2863 
L 1372 2747 
L 1306 2747 
Q 1166 2747 1095 2686 
Q 1025 2625 1025 2534 
Q 1025 2413 1128 2197 
L 1825 753 
L 2466 2334 
Q 2519 2463 2519 2588 
Q 2519 2644 2497 2672 
Q 2472 2706 2419 2726 
Q 2366 2747 2231 2747 
L 2231 2863 
L 3163 2863 
L 3163 2747 
Q 3047 2734 2984 2696 
Q 2922 2659 2847 2556 
Q 2819 2513 2741 2316 
L 1575 -541 
Q 1406 -956 1132 -1168 
Q 859 -1381 606 -1381 
Q 422 -1381 303 -1275 
Q 184 -1169 184 -1031 
Q 184 -900 270 -820 
Q 356 -741 506 -741 
Q 609 -741 788 -809 
Q 913 -856 944 -856 
Q 1038 -856 1148 -759 
Q 1259 -663 1372 -384 
L 1575 113 
L 547 2272 
Q 500 2369 397 2513 
Q 319 2622 269 2659 
Q 197 2709 38 2747 
L 38 2863 
z
" transform="scale(0.015625)"/>
      </defs>
      <use xlink:href="#TimesNewRomanPSMT-41"/>
      <use xlink:href="#TimesNewRomanPSMT-63" transform="translate(72.216797 0)"/>
      <use xlink:href="#TimesNewRomanPSMT-63" transform="translate(116.601562 0)"/>
      <use xlink:href="#TimesNewRomanPSMT-75" transform="translate(160.986328 0)"/>
      <use xlink:href="#TimesNewRomanPSMT-72" transform="translate(210.986328 0)"/>
      <use xlink:href="#TimesNewRomanPSMT-61" transform="translate(244.287109 0)"/>
      <use xlink:href="#TimesNewRomanPSMT-63" transform="translate(288.671875 0)"/>
      <use xlink:href="#TimesNewRomanPSMT-79" transform="translate(333.056641 0)"/>
     </g>
    </g>
   </g>
   <g id="line2d_33">
    <path d="M 356.464687 178.5875 
L 356.6135 97.305059 
L 356.792075 87.444132 
L 356.911125 86.838 
L 356.940887 88.567714 
L 357.000412 85.758767 
L 357.030175 85.433511 
L 357.059937 85.55179 
L 357.119462 86.32055 
L 357.178987 85.891813 
L 357.20875 85.950961 
L 357.238512 85.078705 
L 357.298037 86.350116 
L 357.327799 85.743984 
L 357.387324 85.817899 
L 357.476612 89.395621 
L 357.506374 88.804272 
L 357.655187 85.019557 
L 357.684949 87.192806 
L 357.774237 86.54231 
L 357.863524 86.571876 
L 357.893287 85.581356 
L 357.923049 86.128356 
L 357.952812 85.403945 
L 358.012336 85.803116 
L 358.042099 86.010093 
L 358.101624 85.87703 
L 358.131386 85.640488 
L 358.161149 86.764069 
L 358.220674 85.448294 
L 358.250436 86.305767 
L 358.309961 86.453612 
L 358.429011 85.788333 
L 358.458774 85.906596 
L 358.488536 97.334641 
L 358.548061 86.128356 
L 358.577824 86.290984 
L 358.607586 89.11473 
L 358.667111 85.803116 
L 358.786161 87.044977 
L 358.815923 85.55179 
L 358.875448 87.16324 
L 358.905211 85.670053 
L 358.934973 86.010093 
L 359.024261 85.832682 
L 359.054023 85.77355 
L 359.143311 86.187504 
L 359.113548 85.758767 
L 359.173073 86.039658 
L 359.292123 85.729201 
L 359.232598 86.187504 
L 359.321886 85.817899 
L 359.351648 86.039658 
L 359.381411 85.729201 
L 359.411173 85.862247 
L 359.50046 85.47786 
L 359.530223 85.77355 
L 359.559985 85.862247 
L 359.589748 85.655271 
L 359.61951 85.758767 
L 359.679035 85.788333 
L 359.73856 86.172721 
L 359.798085 86.039658 
L 359.85761 85.507441 
L 359.917135 85.921379 
L 359.946898 85.99531 
L 359.97666 85.936162 
L 360.065948 85.743984 
L 360.184998 86.217069 
L 360.244522 86.187504 
L 360.304047 85.729201 
L 360.33381 86.32055 
L 360.363572 86.379682 
L 360.512385 85.803116 
L 360.69096 86.364899 
L 360.750485 86.39448 
L 360.839772 86.483178 
L 360.899297 85.965744 
L 360.988584 86.069224 
L 361.018347 85.99531 
L 361.048109 86.217069 
L 361.107634 86.128356 
L 361.137397 85.936162 
L 361.226684 85.950961 
L 361.286209 86.32055 
L 361.315972 85.87703 
L 361.375497 86.187504 
L 361.405259 86.039658 
L 361.435022 85.788333 
L 361.464784 86.217069 
L 361.494547 86.335333 
L 361.524309 85.492642 
L 361.613597 86.010093 
L 361.702884 85.936162 
L 361.732646 86.187504 
L 361.762409 86.039658 
L 361.792171 86.084007 
L 361.821934 86.32055 
L 361.851696 86.010093 
L 361.881459 86.128356 
L 361.911221 86.069224 
L 361.940984 86.217069 
L 361.970746 86.424046 
L 362.000509 86.054441 
L 362.030271 85.921379 
L 362.119559 85.965744 
L 362.149321 85.965744 
L 362.268371 86.675372 
L 362.387421 85.891813 
L 362.506471 86.217069 
L 362.536233 85.965744 
L 362.595758 86.217069 
L 362.685046 86.128356 
L 362.714808 86.276201 
L 362.744571 86.09879 
L 362.833858 85.788333 
L 362.863621 86.468395 
L 362.952908 86.024875 
L 363.131483 86.379682 
L 363.161246 85.99531 
L 363.250533 86.157922 
L 363.280295 86.409263 
L 363.33982 86.113573 
L 363.399345 86.157922 
L 363.488633 85.936162 
L 363.667208 86.379682 
L 363.69697 86.468395 
L 363.726733 88.434667 
L 363.756495 112.961322 
L 363.845783 100.114021 
L 363.875545 102.494247 
L 363.994595 86.823217 
L 364.024357 87.133674 
L 364.083882 85.625705 
L 364.143407 86.113573 
L 364.17317 86.631023 
L 364.202932 85.729201 
L 364.232695 86.438829 
L 364.29222 85.832682 
L 364.321982 85.906596 
L 364.470795 88.612078 
L 364.560082 85.2561 
L 364.708895 85.566573 
L 364.798182 86.084007 
L 364.768419 85.403945 
L 364.827944 85.847464 
L 364.917232 85.374379 
L 364.976757 85.492642 
L 365.036282 86.32055 
L 365.095807 85.714402 
L 365.185094 86.290984 
L 365.274382 85.47786 
L 365.304144 85.596139 
L 365.423194 85.847464 
L 365.452957 85.625705 
L 365.512481 85.862247 
L 365.542244 85.87703 
L 365.572006 85.566573 
L 365.631531 85.625705 
L 365.691056 85.537007 
L 365.750581 85.965744 
L 365.839869 85.906596 
L 365.869631 85.640488 
L 365.929156 85.77355 
L 366.018444 86.09879 
L 366.048206 85.670053 
L 366.137494 85.77355 
L 366.197019 86.246635 
L 366.226781 86.024875 
L 366.256543 85.817899 
L 366.286306 86.128356 
L 366.316068 86.32055 
L 366.345831 86.157922 
L 366.435118 85.832682 
L 366.464881 85.862247 
L 366.494643 85.906596 
L 366.554168 85.862247 
L 366.673218 85.729201 
L 366.732743 86.483178 
L 366.792268 85.403945 
L 366.851793 85.699619 
L 366.941081 85.492642 
L 366.970843 85.581356 
L 367.149418 85.507441 
L 367.17918 85.610922 
L 367.268468 85.581356 
L 367.327993 85.463077 
L 367.387518 85.537007 
L 367.53633 85.596139 
L 367.595855 85.684836 
L 367.65538 85.537007 
L 367.744667 86.379682 
L 367.833955 86.024875 
L 367.923242 85.847464 
L 367.953005 85.891813 
L 368.01253 86.54231 
L 368.042292 87.665892 
L 368.072055 98.458222 
L 368.13158 89.780009 
L 368.280392 85.55179 
L 368.310155 85.610922 
L 368.339917 85.522224 
L 368.399442 86.024875 
L 368.429205 85.862247 
L 368.578017 85.063906 
L 368.667304 85.625705 
L 368.697067 85.492642 
L 368.756592 85.33003 
L 368.786354 85.537007 
L 368.816117 85.433511 
L 368.845879 85.55179 
L 368.875642 85.374379 
L 368.935167 85.270883 
L 368.964929 85.403945 
L 368.994692 85.389162 
L 369.083979 85.670053 
L 369.113742 85.537007 
L 369.143504 85.566573 
L 369.173267 85.522224 
L 369.322079 85.403945 
L 369.381604 85.714402 
L 369.500654 85.55179 
L 369.768516 85.344813 
L 369.857804 85.684836 
L 369.887566 85.463077 
L 369.976854 85.344813 
L 370.006616 85.418728 
L 370.036378 85.47786 
L 370.066141 85.344813 
L 370.363766 85.300464 
L 370.423291 85.33003 
L 370.453053 85.300464 
L 370.482816 85.211751 
L 370.542341 85.359596 
L 370.691153 85.315247 
L 370.750678 85.403945 
L 370.810203 85.33003 
L 371.37569 85.418728 
L 371.464978 85.403945 
L 371.643552 85.359596 
L 371.73284 85.403945 
L 371.792365 85.285666 
L 371.85189 85.33003 
L 371.881652 85.344813 
L 371.911415 91.494956 
L 372.000702 87.28152 
L 372.030465 90.681831 
L 372.08999 85.965744 
L 372.119752 86.024875 
L 372.149515 85.344813 
L 372.179277 86.024875 
L 372.20904 87.754605 
L 372.238802 85.300464 
L 372.268564 85.433511 
L 372.298327 85.359596 
L 372.328089 85.610922 
L 372.357852 84.871728 
L 372.417377 85.049123 
L 372.447139 85.55179 
L 372.476902 84.886511 
L 372.506664 84.989991 
L 372.715002 85.315247 
L 372.893577 85.226534 
L 372.923339 85.729201 
L 372.982864 85.078705 
L 373.161439 85.389162 
L 373.191201 85.359596 
L 373.220964 84.797797 
L 373.310251 85.03434 
L 373.340014 84.960425 
L 373.369776 85.019557 
L 373.459064 85.285666 
L 373.488826 85.182185 
L 373.578114 85.2561 
L 373.607876 85.418728 
L 373.667401 85.211751 
L 373.697164 85.389162 
L 373.756689 85.241317 
L 373.786451 85.196968 
L 373.816213 85.300464 
L 373.965026 85.433511 
L 373.994788 85.270883 
L 374.054313 85.418728 
L 374.113838 85.270883 
L 374.232888 85.211751 
L 374.411463 85.47786 
L 374.470988 85.152619 
L 374.530513 85.226534 
L 374.679325 85.344813 
L 375.244813 85.285666 
L 375.393625 85.196968 
L 375.512675 85.196968 
L 375.542437 85.300464 
L 375.631725 85.270883 
L 376.375787 85.211751 
L 376.494837 85.167402 
L 376.643649 85.167402 
L 376.822224 85.093488 
L 376.971036 85.137836 
L 377.119849 85.152619 
L 377.179374 85.182185 
L 377.209136 85.137836 
L 377.268661 85.063906 
L 377.298424 85.152619 
L 382.29852 85.152619 
L 382.328283 84.960425 
L 382.387808 85.211751 
L 382.506858 85.344813 
L 382.53662 85.344813 
L 382.566383 85.211751 
L 382.65567 85.315247 
L 382.77472 85.241317 
L 382.804482 85.270883 
L 382.834245 85.285666 
L 382.89377 85.152619 
L 382.953295 85.2561 
L 383.01282 85.492642 
L 383.042582 106.101552 
L 383.102107 90.829676 
L 383.191395 85.832682 
L 383.25092 86.512744 
L 383.280682 85.729201 
L 383.340207 86.010093 
L 383.36997 86.424046 
L 383.429495 86.276201 
L 383.459257 85.418728 
L 383.548544 85.684836 
L 383.578307 85.743984 
L 383.667594 86.793635 
L 383.697357 86.305767 
L 383.756882 85.788333 
L 383.816407 86.054441 
L 383.846169 86.838 
L 383.875932 85.063906 
L 383.905694 85.950961 
L 383.935457 85.684836 
L 383.965219 87.473698 
L 384.024744 86.557093 
L 384.054507 85.729201 
L 384.143794 85.87703 
L 384.173557 86.054441 
L 384.203319 85.285666 
L 384.233082 86.39448 
L 384.292606 85.758767 
L 384.322369 86.202286 
L 384.381894 85.581356 
L 384.411656 85.300464 
L 384.441419 85.87703 
L 384.471181 85.714402 
L 384.560469 86.350116 
L 384.709281 84.901294 
L 384.768806 85.403945 
L 384.828331 85.10827 
L 384.858094 85.10827 
L 384.887856 84.960425 
L 385.006906 85.699619 
L 385.155718 85.522224 
L 385.185481 85.566573 
L 385.364056 85.670053 
L 385.453343 85.270883 
L 385.483106 85.285666 
L 385.631918 85.640488 
L 385.721206 85.684836 
L 385.750968 85.655271 
L 385.780731 85.655271 
L 385.89978 85.950961 
L 385.929543 85.817899 
L 386.01883 85.300464 
L 386.078355 85.596139 
L 386.108118 85.684836 
L 386.13788 85.492642 
L 386.286693 85.463077 
L 386.405743 85.55179 
L 386.85218 85.448294 
L 387.060517 85.507441 
L 387.358142 85.537007 
L 388.161729 85.596139 
L 388.251016 85.389162 
L 388.280779 85.418728 
L 388.429591 85.33003 
L 390.899877 85.241317 
L 390.959402 86.202286 
L 391.018927 93.623856 
L 391.04869 89.528683 
L 391.167739 86.305767 
L 391.197502 86.379682 
L 391.227264 85.803116 
L 391.286789 86.39448 
L 391.316552 85.87703 
L 391.376077 85.788333 
L 391.405839 85.566573 
L 391.465364 85.950961 
L 391.614177 85.566573 
L 391.554652 86.024875 
L 391.643939 85.625705 
L 391.673702 85.699619 
L 391.703464 86.202286 
L 391.762989 85.596139 
L 391.792752 85.906596 
L 391.882039 85.581356 
L 391.852276 86.069224 
L 391.941564 85.699619 
L 392.090376 85.581356 
L 392.298714 85.566573 
L 392.745151 85.640488 
L 392.774913 85.965744 
L 392.834438 85.418728 
L 392.923726 85.655271 
L 392.983251 85.596139 
L 393.161826 85.403945 
L 393.370163 85.463077 
L 393.548738 85.492642 
L 393.638025 85.522224 
L 393.727313 85.99531 
L 393.757075 85.507441 
L 393.786838 86.54231 
L 393.8166 88.77469 
L 393.846363 86.202286 
L 393.876125 88.212907 
L 393.965413 86.143139 
L 394.024938 86.157922 
L 394.114225 85.389162 
L 394.084462 86.261418 
L 394.143987 85.965744 
L 394.203512 85.714402 
L 394.233275 86.32055 
L 394.2928 85.418728 
L 394.322562 85.625705 
L 394.382087 85.004774 
L 394.41185 85.078705 
L 394.471375 85.581356 
L 394.5309 85.344813 
L 394.560662 85.507441 
L 394.620187 85.463077 
L 394.798762 85.226534 
L 395.036862 85.226534 
L 395.096387 85.152619 
L 395.245199 85.078705 
L 395.394012 85.226534 
L 395.751161 85.167402 
L 395.929736 85.167402 
L 396.078549 85.152619 
L 396.405936 85.211751 
L 396.644036 85.123053 
L 396.792848 85.093488 
L 397.060711 85.078705 
L 398.340497 85.123053 
L 398.48931 90.80011 
L 398.608359 85.47786 
L 398.638122 85.625705 
L 398.667884 85.581356 
L 398.697647 86.128356 
L 398.757172 85.965744 
L 398.786934 84.960425 
L 398.876222 85.389162 
L 398.905984 86.32055 
L 398.965509 85.729201 
L 398.995272 85.433511 
L 399.025034 86.483178 
L 399.114322 85.980527 
L 399.144084 86.157922 
L 399.173847 85.862247 
L 399.203609 85.507441 
L 399.233372 86.335333 
L 399.263134 85.758767 
L 399.322659 86.157922 
L 399.382184 85.803116 
L 399.441709 85.758767 
L 399.471471 85.862247 
L 399.530996 85.891813 
L 399.620284 85.714402 
L 399.650046 85.743984 
L 399.828621 85.729201 
L 399.977434 85.714402 
L 400.513158 85.788333 
L 400.572683 85.980527 
L 400.602446 85.817899 
L 400.632208 85.788333 
L 400.661971 85.847464 
L 400.781021 85.847464 
L 400.810783 85.758767 
L 400.840545 85.87703 
L 400.90007 86.187504 
L 400.929833 85.980527 
L 400.989358 85.729201 
L 401.048883 85.832682 
L 401.227458 85.788333 
L 401.37627 85.965744 
L 401.435795 85.936162 
L 401.61437 85.788333 
L 401.882232 85.77355 
L 402.298907 85.862247 
L 402.507244 85.862247 
L 402.656057 85.817899 
L 405.126343 85.862247 
L 405.156105 85.936162 
L 405.185868 85.714402 
L 405.21563 85.743984 
L 405.275155 85.433511 
L 405.394205 88.22769 
L 405.57278 85.507441 
L 405.632305 86.024875 
L 405.69183 85.699619 
L 405.721592 85.743984 
L 405.870405 87.429349 
L 405.959692 84.886511 
L 405.989455 85.803116 
L 406.019217 86.497961 
L 406.078742 85.344813 
L 406.108504 86.453612 
L 406.257317 85.537007 
L 406.316842 85.655271 
L 406.346604 85.684836 
L 406.376367 86.793635 
L 406.465654 86.202286 
L 406.495417 86.128356 
L 406.525179 85.714402 
L 406.614467 85.980527 
L 406.644229 86.172721 
L 406.673992 85.463077 
L 406.763279 85.655271 
L 406.793042 85.670053 
L 406.912091 85.566573 
L 407.060904 85.596139 
L 407.358529 85.448294 
L 407.596628 85.448294 
L 407.804966 85.448294 
L 408.043066 85.433511 
L 408.281166 85.448294 
L 408.57879 85.418728 
L 413.37055 85.33003 
L 413.549125 85.285666 
L 414.144374 85.285666 
L 414.203899 88.863404 
L 414.263424 87.82852 
L 414.352712 85.123053 
L 414.382474 85.99531 
L 414.412236 86.113573 
L 414.501524 85.241317 
L 414.531286 86.557093 
L 414.561049 85.211751 
L 414.620574 86.335333 
L 414.799149 85.019557 
L 414.828911 85.270883 
L 414.918199 85.137836 
L 415.067011 84.975208 
L 415.126536 85.019557 
L 416.346798 84.945642 
L 416.525373 84.694317 
L 416.644422 85.211751 
L 416.674185 85.196968 
L 417.061097 84.945642 
L 417.299197 85.492642 
L 417.448009 85.196968 
L 417.477772 85.241317 
L 417.715872 85.211751 
L 417.834922 85.211751 
L 418.043259 85.196968 
L 418.221834 85.226534 
L 420.662357 85.211751 
L 420.69212 85.063906 
L 420.870695 87.754605 
L 420.900457 86.985829 
L 421.019507 85.063906 
L 421.04927 85.167402 
L 421.079032 86.010093 
L 421.168319 85.55179 
L 421.227844 85.936162 
L 421.317132 84.856945 
L 421.346894 85.610922 
L 421.406419 86.010093 
L 421.436182 85.729201 
L 421.465944 85.389162 
L 421.495707 85.832682 
L 421.525469 86.113573 
L 421.555232 85.566573 
L 421.584994 85.596139 
L 421.674282 86.778852 
L 421.704044 86.261418 
L 421.852857 85.714402 
L 421.882619 85.788333 
L 422.061194 88.419884 
L 422.210006 85.152619 
L 422.239769 84.886511 
L 422.329056 84.502123 
L 422.358819 85.758767 
L 422.448106 85.093488 
L 422.507631 85.433511 
L 422.537394 85.77355 
L 422.596919 85.55179 
L 422.656443 85.241317 
L 422.715968 85.418728 
L 422.805256 85.167402 
L 422.835018 85.610922 
L 422.894543 85.152619 
L 422.924306 85.537007 
L 422.954068 85.137836 
L 423.013593 85.344813 
L 423.043356 85.655271 
L 423.102881 85.640488 
L 423.162406 84.945642 
L 423.192168 85.566573 
L 423.281456 85.537007 
L 423.340981 85.891813 
L 423.370743 85.403945 
L 423.430268 86.084007 
L 423.638605 84.472557 
L 423.757655 87.82852 
L 423.787418 85.847464 
L 423.81718 86.557093 
L 423.876705 86.113573 
L 423.93623 85.566573 
L 423.995755 85.832682 
L 424.025518 86.217069 
L 424.05528 85.670053 
L 424.114805 86.157922 
L 424.144567 85.182185 
L 424.204092 86.438829 
L 424.233855 86.305767 
L 424.263617 85.152619 
L 424.323142 86.778852 
L 424.471955 86.054441 
L 424.501717 86.217069 
L 424.53148 85.936162 
L 424.65053 84.975208 
L 424.710055 85.285666 
L 424.799342 86.276201 
L 424.829105 85.625705 
L 424.918392 84.694317 
L 424.977917 87.340651 
L 425.067204 86.084007 
L 425.126729 84.856945 
L 425.186254 85.315247 
L 425.245779 85.078705 
L 425.305304 86.719721 
L 425.364829 85.2561 
L 425.424354 86.157922 
L 425.483879 86.61624 
L 425.573167 85.049123 
L 425.811266 85.374379 
L 425.632692 85.004774 
L 425.870791 85.315247 
L 426.019604 85.270883 
L 426.317229 85.226534 
L 426.585091 85.241317 
L 429.442289 85.137836 
L 429.739914 85.10827 
L 433.757849 85.196968 
L 433.876899 85.492642 
L 434.025711 85.063906 
L 434.234048 85.137836 
L 434.412623 85.167402 
L 434.769773 85.241317 
L 435.037635 85.226534 
L 448.698614 85.167402 
L 448.728376 95.146608 
L 448.787901 88.212907 
L 448.906951 85.537007 
L 448.936714 85.670053 
L 448.966476 85.714402 
L 449.026001 84.960425 
L 449.085526 85.403945 
L 449.115288 86.379682 
L 449.174813 85.921379 
L 449.234338 84.783014 
L 449.293863 85.359596 
L 449.591488 84.753448 
L 449.918875 84.842146 
L 450.067688 84.916077 
L 450.246263 84.856945 
L 450.424838 84.945642 
L 450.662937 84.930859 
L 450.871275 85.004774 
L 451.793912 85.10827 
L 452.091536 85.137836 
L 452.686786 85.093488 
L 452.746311 85.049123 
L 452.835598 85.359596 
L 452.865361 85.389162 
L 452.895123 84.975208 
L 452.924886 85.10827 
L 453.014173 88.848621 
L 453.043936 86.586658 
L 453.192748 85.315247 
L 453.222511 85.670053 
L 453.252273 85.063906 
L 453.282036 85.049123 
L 453.371323 85.596139 
L 453.401086 85.315247 
L 453.520135 85.315247 
L 453.639185 85.2561 
L 453.877285 85.448294 
L 453.907048 85.522224 
L 454.05586 85.03434 
L 454.115385 85.019557 
L 454.204672 85.817899 
L 454.234435 85.123053 
L 454.29396 85.655271 
L 454.353485 86.024875 
L 454.383247 85.418728 
L 454.442772 86.039658 
L 454.53206 85.625705 
L 454.502297 86.113573 
L 454.561822 85.936162 
L 454.680872 86.261418 
L 454.710635 85.492642 
L 454.77016 85.847464 
L 454.799922 86.409263 
L 454.829685 85.492642 
L 454.859447 85.729201 
L 454.88921 85.684836 
L 454.948735 85.55179 
L 455.008259 86.424046 
L 455.038022 85.004774 
L 455.097547 86.069224 
L 455.157072 85.699619 
L 455.186834 86.823217 
L 455.216597 85.374379 
L 455.305884 85.817899 
L 455.365409 85.03434 
L 455.424934 85.137836 
L 455.454697 85.743984 
L 455.514222 85.433511 
L 455.603509 84.797797 
L 455.752321 86.231852 
L 455.782084 85.167402 
L 455.811846 86.335333 
L 455.871371 85.47786 
L 455.901134 85.47786 
L 455.960659 85.137836 
L 456.049946 86.793635 
L 456.079709 84.901294 
L 456.168996 85.906596 
L 456.198759 86.187504 
L 456.228521 85.433511 
L 456.258284 85.965744 
L 456.347571 85.137836 
L 456.377334 85.655271 
L 456.496383 85.049123 
L 456.555908 85.581356 
L 456.585671 85.47786 
L 456.674958 84.827363 
L 456.704721 85.078705 
L 456.794008 85.655271 
L 456.823771 85.537007 
L 456.853533 85.374379 
L 456.913058 85.965744 
L 456.972583 85.537007 
L 457.002346 85.2561 
L 457.061871 85.655271 
L 457.091633 88.301605 
L 457.121396 85.610922 
L 457.151158 85.906596 
L 457.180921 85.714402 
L 457.210683 85.891813 
L 457.240445 86.483178 
L 457.270208 85.743984 
L 457.41902 84.81258 
L 457.478545 85.788333 
L 457.53807 85.581356 
L 457.567833 85.655271 
L 457.627358 86.409263 
L 457.65712 85.463077 
L 457.716645 84.842146 
L 457.77617 86.823217 
L 457.835695 85.847464 
L 457.865458 85.950961 
L 457.89522 85.418728 
L 457.924983 86.084007 
L 457.984507 85.788333 
L 458.01427 85.655271 
L 458.044032 86.143139 
L 458.073795 85.137836 
L 458.103557 85.537007 
L 458.163082 85.507441 
L 458.25237 84.620386 
L 458.282132 85.403945 
L 458.311895 85.433511 
L 458.430945 84.916077 
L 458.460707 85.10827 
L 458.60952 85.729201 
L 458.639282 85.610922 
L 458.669045 85.758767 
L 458.698807 86.32055 
L 458.728569 85.418728 
L 458.817857 85.019557 
L 458.847619 85.196968 
L 458.936907 85.87703 
L 458.966669 84.413425 
L 459.055957 84.605603 
L 459.234532 85.980527 
L 459.383344 84.945642 
L 459.413107 85.152619 
L 459.472631 84.930859 
L 464.829878 84.827363 
L 465.127503 84.797797 
L 468.520425 84.901294 
L 468.788288 84.916077 
L 488.342237 85.019557 
L 488.580337 85.03434 
L 488.848199 85.019557 
L 491.080385 85.123053 
L 491.110148 85.167402 
L 491.13991 85.093488 
L 491.199435 85.049123 
L 491.229198 91.997607 
L 491.288723 87.104109 
L 491.437535 85.936162 
L 491.49706 85.891813 
L 491.526823 85.936162 
L 491.586348 85.123053 
L 491.61611 85.862247 
L 491.705398 86.926698 
L 491.675635 85.714402 
L 491.73516 86.231852 
L 491.794685 85.906596 
L 491.85421 86.823217 
L 492.003022 85.093488 
L 492.032785 85.522224 
L 492.09231 85.344813 
L 492.151835 85.093488 
L 492.21136 85.241317 
L 492.241122 85.270883 
L 492.270885 84.930859 
L 492.360172 84.989991 
L 492.419697 85.049123 
L 492.508985 84.783014 
L 492.568509 84.842146 
L 492.806609 84.842146 
L 493.074472 84.827363 
L 493.223284 84.916077 
L 516.348731 84.901294 
L 516.408256 84.605603 
L 516.467781 91.169699 
L 516.527306 86.734504 
L 516.557069 86.586658 
L 516.586831 85.448294 
L 516.676118 85.566573 
L 516.795168 84.679534 
L 516.943981 84.886511 
L 517.033268 84.916077 
L 517.182081 85.03434 
L 517.301131 84.960425 
L 517.509468 85.019557 
L 517.688043 84.975208 
L 521.408353 85.078705 
L 521.557165 85.10827 
L 521.825028 85.093488 
L 522.509565 85.167402 
L 522.539327 85.433511 
L 522.628614 85.315247 
L 523.045289 85.211751 
L 523.253627 85.196968 
L 545.664774 85.300464 
L 545.932636 85.315247 
L 558.254303 85.418728 
L 558.492403 85.433511 
L 558.700741 85.433511 
L 558.909078 85.418728 
L 713.584687 85.418728 
L 713.584687 85.418728 
" clip-path="url(#p03df29e83c)" style="fill: none; stroke: #1f77b4; stroke-width: 1.5; stroke-linecap: square"/>
   </g>
   <g id="patch_3">
    <path d="M 356.464687 311.6435 
L 356.464687 45.5315 
" style="fill: none; stroke: #000000; stroke-width: 0.8; stroke-linejoin: miter; stroke-linecap: square"/>
   </g>
   <g id="patch_4">
    <path d="M 713.584687 311.6435 
L 713.584687 45.5315 
" style="fill: none; stroke: #000000; stroke-width: 0.8; stroke-linejoin: miter; stroke-linecap: square"/>
   </g>
   <g id="patch_5">
    <path d="M 356.464687 311.6435 
L 713.584687 311.6435 
" style="fill: none; stroke: #000000; stroke-width: 0.8; stroke-linejoin: miter; stroke-linecap: square"/>
   </g>
   <g id="patch_6">
    <path d="M 356.464687 45.5315 
L 713.584687 45.5315 
" style="fill: none; stroke: #000000; stroke-width: 0.8; stroke-linejoin: miter; stroke-linecap: square"/>
   </g>
   <g id="text_19">
    <!-- Accuracy of the 09_07_25_CINIC10_torch_model_(1024+512.3+1)_car-plane on the validation set -->
    <g transform="translate(7.2 25.5315) scale(0.264 -0.264)">
     <defs>
      <path id="TimesNewRomanPSMT-68" d="M 1041 4444 
L 1041 2350 
Q 1388 2731 1591 2839 
Q 1794 2947 1997 2947 
Q 2241 2947 2416 2812 
Q 2591 2678 2675 2391 
Q 2734 2191 2734 1659 
L 2734 647 
Q 2734 375 2778 275 
Q 2809 200 2884 156 
Q 2959 113 3159 113 
L 3159 0 
L 1753 0 
L 1753 113 
L 1819 113 
Q 2019 113 2097 173 
Q 2175 234 2206 353 
Q 2216 403 2216 647 
L 2216 1659 
Q 2216 2128 2167 2275 
Q 2119 2422 2012 2495 
Q 1906 2569 1756 2569 
Q 1603 2569 1437 2487 
Q 1272 2406 1041 2159 
L 1041 647 
Q 1041 353 1073 281 
Q 1106 209 1195 161 
Q 1284 113 1503 113 
L 1503 0 
L 84 0 
L 84 113 
Q 275 113 384 172 
Q 447 203 484 290 
Q 522 378 522 647 
L 522 3238 
Q 522 3728 498 3840 
Q 475 3953 426 3993 
Q 378 4034 297 4034 
Q 231 4034 84 3984 
L 41 4094 
L 897 4444 
L 1041 4444 
z
" transform="scale(0.015625)"/>
      <path id="TimesNewRomanPSMT-5f" d="M 3256 -1381 
L -53 -1381 
L -53 -1119 
L 3256 -1119 
L 3256 -1381 
z
" transform="scale(0.015625)"/>
      <path id="TimesNewRomanPSMT-43" d="M 3853 4334 
L 3950 2894 
L 3853 2894 
Q 3659 3541 3300 3825 
Q 2941 4109 2438 4109 
Q 2016 4109 1675 3895 
Q 1334 3681 1139 3212 
Q 944 2744 944 2047 
Q 944 1472 1128 1050 
Q 1313 628 1683 403 
Q 2053 178 2528 178 
Q 2941 178 3256 354 
Q 3572 531 3950 1056 
L 4047 994 
Q 3728 428 3303 165 
Q 2878 -97 2294 -97 
Q 1241 -97 663 684 
Q 231 1266 231 2053 
Q 231 2688 515 3219 
Q 800 3750 1298 4042 
Q 1797 4334 2388 4334 
Q 2847 4334 3294 4109 
Q 3425 4041 3481 4041 
Q 3566 4041 3628 4100 
Q 3709 4184 3744 4334 
L 3853 4334 
z
" transform="scale(0.015625)"/>
      <path id="TimesNewRomanPSMT-49" d="M 1975 116 
L 1975 0 
L 159 0 
L 159 116 
L 309 116 
Q 572 116 691 269 
Q 766 369 766 750 
L 766 3488 
Q 766 3809 725 3913 
Q 694 3991 597 4047 
Q 459 4122 309 4122 
L 159 4122 
L 159 4238 
L 1975 4238 
L 1975 4122 
L 1822 4122 
Q 1563 4122 1444 3969 
Q 1366 3869 1366 3488 
L 1366 750 
Q 1366 428 1406 325 
Q 1438 247 1538 191 
Q 1672 116 1822 116 
L 1975 116 
z
" transform="scale(0.015625)"/>
      <path id="TimesNewRomanPSMT-64" d="M 2222 322 
Q 2013 103 1813 7 
Q 1613 -88 1381 -88 
Q 913 -88 563 304 
Q 213 697 213 1313 
Q 213 1928 600 2439 
Q 988 2950 1597 2950 
Q 1975 2950 2222 2709 
L 2222 3238 
Q 2222 3728 2198 3840 
Q 2175 3953 2125 3993 
Q 2075 4034 2000 4034 
Q 1919 4034 1784 3984 
L 1744 4094 
L 2597 4444 
L 2738 4444 
L 2738 1134 
Q 2738 631 2761 520 
Q 2784 409 2836 365 
Q 2888 322 2956 322 
Q 3041 322 3181 375 
L 3216 266 
L 2366 -88 
L 2222 -88 
L 2222 322 
z
M 2222 541 
L 2222 2016 
Q 2203 2228 2109 2403 
Q 2016 2578 1861 2667 
Q 1706 2756 1559 2756 
Q 1284 2756 1069 2509 
Q 784 2184 784 1559 
Q 784 928 1059 592 
Q 1334 256 1672 256 
Q 1956 256 2222 541 
z
" transform="scale(0.015625)"/>
      <path id="TimesNewRomanPSMT-6c" d="M 1184 4444 
L 1184 647 
Q 1184 378 1223 290 
Q 1263 203 1344 158 
Q 1425 113 1647 113 
L 1647 0 
L 244 0 
L 244 113 
Q 441 113 512 153 
Q 584 194 625 287 
Q 666 381 666 647 
L 666 3247 
Q 666 3731 644 3842 
Q 622 3953 573 3993 
Q 525 4034 450 4034 
Q 369 4034 244 3984 
L 191 4094 
L 1044 4444 
L 1184 4444 
z
" transform="scale(0.015625)"/>
      <path id="TimesNewRomanPSMT-28" d="M 1988 -1253 
L 1988 -1369 
Q 1516 -1131 1200 -813 
Q 750 -359 506 256 
Q 263 872 263 1534 
Q 263 2503 741 3301 
Q 1219 4100 1988 4444 
L 1988 4313 
Q 1603 4100 1356 3731 
Q 1109 3363 987 2797 
Q 866 2231 866 1616 
Q 866 947 969 400 
Q 1050 -31 1165 -292 
Q 1281 -553 1476 -793 
Q 1672 -1034 1988 -1253 
z
" transform="scale(0.015625)"/>
      <path id="TimesNewRomanPSMT-2b" d="M 1672 441 
L 1672 2000 
L 116 2000 
L 116 2256 
L 1672 2256 
L 1672 3809 
L 1922 3809 
L 1922 2256 
L 3484 2256 
L 3484 2000 
L 1922 2000 
L 1922 441 
L 1672 441 
z
" transform="scale(0.015625)"/>
      <path id="TimesNewRomanPSMT-29" d="M 144 4313 
L 144 4444 
Q 619 4209 934 3891 
Q 1381 3434 1625 2820 
Q 1869 2206 1869 1541 
Q 1869 572 1392 -226 
Q 916 -1025 144 -1369 
L 144 -1253 
Q 528 -1038 776 -670 
Q 1025 -303 1145 264 
Q 1266 831 1266 1447 
Q 1266 2113 1163 2663 
Q 1084 3094 967 3353 
Q 850 3613 656 3853 
Q 463 4094 144 4313 
z
" transform="scale(0.015625)"/>
      <path id="TimesNewRomanPSMT-2d" d="M 259 1672 
L 1875 1672 
L 1875 1200 
L 259 1200 
L 259 1672 
z
" transform="scale(0.015625)"/>
      <path id="TimesNewRomanPSMT-70" d="M -6 2578 
L 875 2934 
L 994 2934 
L 994 2266 
Q 1216 2644 1439 2795 
Q 1663 2947 1909 2947 
Q 2341 2947 2628 2609 
Q 2981 2197 2981 1534 
Q 2981 794 2556 309 
Q 2206 -88 1675 -88 
Q 1444 -88 1275 -22 
Q 1150 25 994 166 
L 994 -706 
Q 994 -1000 1030 -1079 
Q 1066 -1159 1155 -1206 
Q 1244 -1253 1478 -1253 
L 1478 -1369 
L -22 -1369 
L -22 -1253 
L 56 -1253 
Q 228 -1256 350 -1188 
Q 409 -1153 442 -1076 
Q 475 -1000 475 -688 
L 475 2019 
Q 475 2297 450 2372 
Q 425 2447 370 2484 
Q 316 2522 222 2522 
Q 147 2522 31 2478 
L -6 2578 
z
M 994 2081 
L 994 1013 
Q 994 666 1022 556 
Q 1066 375 1236 237 
Q 1406 100 1666 100 
Q 1978 100 2172 344 
Q 2425 663 2425 1241 
Q 2425 1897 2138 2250 
Q 1938 2494 1663 2494 
Q 1513 2494 1366 2419 
Q 1253 2363 994 2081 
z
" transform="scale(0.015625)"/>
      <path id="TimesNewRomanPSMT-76" d="M 53 2863 
L 1400 2863 
L 1400 2747 
L 1313 2747 
Q 1191 2747 1127 2687 
Q 1063 2628 1063 2528 
Q 1063 2419 1128 2269 
L 1794 688 
L 2463 2328 
Q 2534 2503 2534 2594 
Q 2534 2638 2509 2666 
Q 2475 2713 2422 2730 
Q 2369 2747 2206 2747 
L 2206 2863 
L 3141 2863 
L 3141 2747 
Q 2978 2734 2916 2681 
Q 2806 2588 2719 2369 
L 1703 -88 
L 1575 -88 
L 553 2328 
Q 484 2497 421 2570 
Q 359 2644 263 2694 
Q 209 2722 53 2747 
L 53 2863 
z
" transform="scale(0.015625)"/>
     </defs>
     <use xlink:href="#TimesNewRomanPSMT-41"/>
     <use xlink:href="#TimesNewRomanPSMT-63" transform="translate(72.216797 0)"/>
     <use xlink:href="#TimesNewRomanPSMT-63" transform="translate(116.601562 0)"/>
     <use xlink:href="#TimesNewRomanPSMT-75" transform="translate(160.986328 0)"/>
     <use xlink:href="#TimesNewRomanPSMT-72" transform="translate(210.986328 0)"/>
     <use xlink:href="#TimesNewRomanPSMT-61" transform="translate(244.287109 0)"/>
     <use xlink:href="#TimesNewRomanPSMT-63" transform="translate(288.671875 0)"/>
     <use xlink:href="#TimesNewRomanPSMT-79" transform="translate(333.056641 0)"/>
     <use xlink:href="#TimesNewRomanPSMT-20" transform="translate(383.056641 0)"/>
     <use xlink:href="#TimesNewRomanPSMT-6f" transform="translate(408.056641 0)"/>
     <use xlink:href="#TimesNewRomanPSMT-66" transform="translate(458.056641 0)"/>
     <use xlink:href="#TimesNewRomanPSMT-20" transform="translate(491.357422 0)"/>
     <use xlink:href="#TimesNewRomanPSMT-74" transform="translate(516.357422 0)"/>
     <use xlink:href="#TimesNewRomanPSMT-68" transform="translate(544.140625 0)"/>
     <use xlink:href="#TimesNewRomanPSMT-65" transform="translate(594.140625 0)"/>
     <use xlink:href="#TimesNewRomanPSMT-20" transform="translate(638.525391 0)"/>
     <use xlink:href="#TimesNewRomanPSMT-30" transform="translate(663.525391 0)"/>
     <use xlink:href="#TimesNewRomanPSMT-39" transform="translate(713.525391 0)"/>
     <use xlink:href="#TimesNewRomanPSMT-5f" transform="translate(763.525391 0)"/>
     <use xlink:href="#TimesNewRomanPSMT-30" transform="translate(813.525391 0)"/>
     <use xlink:href="#TimesNewRomanPSMT-37" transform="translate(863.525391 0)"/>
     <use xlink:href="#TimesNewRomanPSMT-5f" transform="translate(913.525391 0)"/>
     <use xlink:href="#TimesNewRomanPSMT-32" transform="translate(963.525391 0)"/>
     <use xlink:href="#TimesNewRomanPSMT-35" transform="translate(1013.525391 0)"/>
     <use xlink:href="#TimesNewRomanPSMT-5f" transform="translate(1063.525391 0)"/>
     <use xlink:href="#TimesNewRomanPSMT-43" transform="translate(1113.525391 0)"/>
     <use xlink:href="#TimesNewRomanPSMT-49" transform="translate(1180.224609 0)"/>
     <use xlink:href="#TimesNewRomanPSMT-4e" transform="translate(1213.525391 0)"/>
     <use xlink:href="#TimesNewRomanPSMT-49" transform="translate(1285.742188 0)"/>
     <use xlink:href="#TimesNewRomanPSMT-43" transform="translate(1319.042969 0)"/>
     <use xlink:href="#TimesNewRomanPSMT-31" transform="translate(1385.742188 0)"/>
     <use xlink:href="#TimesNewRomanPSMT-30" transform="translate(1435.742188 0)"/>
     <use xlink:href="#TimesNewRomanPSMT-5f" transform="translate(1485.742188 0)"/>
     <use xlink:href="#TimesNewRomanPSMT-74" transform="translate(1535.742188 0)"/>
     <use xlink:href="#TimesNewRomanPSMT-6f" transform="translate(1563.525391 0)"/>
     <use xlink:href="#TimesNewRomanPSMT-72" transform="translate(1613.525391 0)"/>
     <use xlink:href="#TimesNewRomanPSMT-63" transform="translate(1646.826172 0)"/>
     <use xlink:href="#TimesNewRomanPSMT-68" transform="translate(1691.210938 0)"/>
     <use xlink:href="#TimesNewRomanPSMT-5f" transform="translate(1741.210938 0)"/>
     <use xlink:href="#TimesNewRomanPSMT-6d" transform="translate(1791.210938 0)"/>
     <use xlink:href="#TimesNewRomanPSMT-6f" transform="translate(1868.994141 0)"/>
     <use xlink:href="#TimesNewRomanPSMT-64" transform="translate(1918.994141 0)"/>
     <use xlink:href="#TimesNewRomanPSMT-65" transform="translate(1968.994141 0)"/>
     <use xlink:href="#TimesNewRomanPSMT-6c" transform="translate(2013.378906 0)"/>
     <use xlink:href="#TimesNewRomanPSMT-5f" transform="translate(2041.162109 0)"/>
     <use xlink:href="#TimesNewRomanPSMT-28" transform="translate(2091.162109 0)"/>
     <use xlink:href="#TimesNewRomanPSMT-31" transform="translate(2124.462891 0)"/>
     <use xlink:href="#TimesNewRomanPSMT-30" transform="translate(2174.462891 0)"/>
     <use xlink:href="#TimesNewRomanPSMT-32" transform="translate(2224.462891 0)"/>
     <use xlink:href="#TimesNewRomanPSMT-34" transform="translate(2274.462891 0)"/>
     <use xlink:href="#TimesNewRomanPSMT-2b" transform="translate(2324.462891 0)"/>
     <use xlink:href="#TimesNewRomanPSMT-35" transform="translate(2380.859375 0)"/>
     <use xlink:href="#TimesNewRomanPSMT-31" transform="translate(2430.859375 0)"/>
     <use xlink:href="#TimesNewRomanPSMT-32" transform="translate(2480.859375 0)"/>
     <use xlink:href="#TimesNewRomanPSMT-2e" transform="translate(2530.859375 0)"/>
     <use xlink:href="#TimesNewRomanPSMT-33" transform="translate(2555.859375 0)"/>
     <use xlink:href="#TimesNewRomanPSMT-2b" transform="translate(2605.859375 0)"/>
     <use xlink:href="#TimesNewRomanPSMT-31" transform="translate(2662.255859 0)"/>
     <use xlink:href="#TimesNewRomanPSMT-29" transform="translate(2712.255859 0)"/>
     <use xlink:href="#TimesNewRomanPSMT-5f" transform="translate(2745.556641 0)"/>
     <use xlink:href="#TimesNewRomanPSMT-63" transform="translate(2795.556641 0)"/>
     <use xlink:href="#TimesNewRomanPSMT-61" transform="translate(2839.941406 0)"/>
     <use xlink:href="#TimesNewRomanPSMT-72" transform="translate(2884.326172 0)"/>
     <use xlink:href="#TimesNewRomanPSMT-2d" transform="translate(2915.626953 0)"/>
     <use xlink:href="#TimesNewRomanPSMT-70" transform="translate(2948.927734 0)"/>
     <use xlink:href="#TimesNewRomanPSMT-6c" transform="translate(2998.927734 0)"/>
     <use xlink:href="#TimesNewRomanPSMT-61" transform="translate(3026.710938 0)"/>
     <use xlink:href="#TimesNewRomanPSMT-6e" transform="translate(3071.095703 0)"/>
     <use xlink:href="#TimesNewRomanPSMT-65" transform="translate(3121.095703 0)"/>
     <use xlink:href="#TimesNewRomanPSMT-20" transform="translate(3165.480469 0)"/>
     <use xlink:href="#TimesNewRomanPSMT-6f" transform="translate(3190.480469 0)"/>
     <use xlink:href="#TimesNewRomanPSMT-6e" transform="translate(3240.480469 0)"/>
     <use xlink:href="#TimesNewRomanPSMT-20" transform="translate(3290.480469 0)"/>
     <use xlink:href="#TimesNewRomanPSMT-74" transform="translate(3315.480469 0)"/>
     <use xlink:href="#TimesNewRomanPSMT-68" transform="translate(3343.263672 0)"/>
     <use xlink:href="#TimesNewRomanPSMT-65" transform="translate(3393.263672 0)"/>
     <use xlink:href="#TimesNewRomanPSMT-20" transform="translate(3437.648438 0)"/>
     <use xlink:href="#TimesNewRomanPSMT-76" transform="translate(3462.648438 0)"/>
     <use xlink:href="#TimesNewRomanPSMT-61" transform="translate(3512.648438 0)"/>
     <use xlink:href="#TimesNewRomanPSMT-6c" transform="translate(3557.033203 0)"/>
     <use xlink:href="#TimesNewRomanPSMT-69" transform="translate(3584.816406 0)"/>
     <use xlink:href="#TimesNewRomanPSMT-64" transform="translate(3612.599609 0)"/>
     <use xlink:href="#TimesNewRomanPSMT-61" transform="translate(3662.599609 0)"/>
     <use xlink:href="#TimesNewRomanPSMT-74" transform="translate(3706.984375 0)"/>
     <use xlink:href="#TimesNewRomanPSMT-69" transform="translate(3734.767578 0)"/>
     <use xlink:href="#TimesNewRomanPSMT-6f" transform="translate(3762.550781 0)"/>
     <use xlink:href="#TimesNewRomanPSMT-6e" transform="translate(3812.550781 0)"/>
     <use xlink:href="#TimesNewRomanPSMT-20" transform="translate(3862.550781 0)"/>
     <use xlink:href="#TimesNewRomanPSMT-73" transform="translate(3887.550781 0)"/>
     <use xlink:href="#TimesNewRomanPSMT-65" transform="translate(3926.466797 0)"/>
     <use xlink:href="#TimesNewRomanPSMT-74" transform="translate(3970.851562 0)"/>
    </g>
   </g>
   <g id="legend_1">
    <g id="patch_7">
     <path d="M 371.864687 300.6435 
L 609.035 300.6435 
Q 613.435 300.6435 613.435 296.2435 
L 613.435 267.296312 
Q 613.435 262.896312 609.035 262.896312 
L 371.864687 262.896312 
Q 367.464687 262.896312 367.464687 267.296312 
L 367.464687 296.2435 
Q 367.464687 300.6435 371.864687 300.6435 
z
" style="fill: #ffffff; opacity: 0.8; stroke: #cccccc; stroke-linejoin: miter"/>
    </g>
    <g id="line2d_34">
     <path d="M 376.264687 279.396312 
L 398.264687 279.396312 
L 420.264687 279.396312 
" style="fill: none; stroke: #1f77b4; stroke-width: 1.5; stroke-linecap: square"/>
    </g>
    <g id="text_20">
     <!-- Best accuracy 0.85 -->
     <g transform="translate(437.864688 287.096312) scale(0.22 -0.22)">
      <defs>
       <path id="TimesNewRomanPSMT-42" d="M 2956 2163 
Q 3397 2069 3616 1863 
Q 3919 1575 3919 1159 
Q 3919 844 3719 555 
Q 3519 266 3170 133 
Q 2822 0 2106 0 
L 106 0 
L 106 116 
L 266 116 
Q 531 116 647 284 
Q 719 394 719 750 
L 719 3488 
Q 719 3881 628 3984 
Q 506 4122 266 4122 
L 106 4122 
L 106 4238 
L 1938 4238 
Q 2450 4238 2759 4163 
Q 3228 4050 3475 3764 
Q 3722 3478 3722 3106 
Q 3722 2788 3528 2536 
Q 3334 2284 2956 2163 
z
M 1319 2331 
Q 1434 2309 1582 2298 
Q 1731 2288 1909 2288 
Q 2366 2288 2595 2386 
Q 2825 2484 2947 2687 
Q 3069 2891 3069 3131 
Q 3069 3503 2766 3765 
Q 2463 4028 1881 4028 
Q 1569 4028 1319 3959 
L 1319 2331 
z
M 1319 306 
Q 1681 222 2034 222 
Q 2600 222 2897 476 
Q 3194 731 3194 1106 
Q 3194 1353 3059 1581 
Q 2925 1809 2622 1940 
Q 2319 2072 1872 2072 
Q 1678 2072 1540 2065 
Q 1403 2059 1319 2044 
L 1319 306 
z
" transform="scale(0.015625)"/>
      </defs>
      <use xlink:href="#TimesNewRomanPSMT-42"/>
      <use xlink:href="#TimesNewRomanPSMT-65" transform="translate(66.699219 0)"/>
      <use xlink:href="#TimesNewRomanPSMT-73" transform="translate(111.083984 0)"/>
      <use xlink:href="#TimesNewRomanPSMT-74" transform="translate(150 0)"/>
      <use xlink:href="#TimesNewRomanPSMT-20" transform="translate(177.783203 0)"/>
      <use xlink:href="#TimesNewRomanPSMT-61" transform="translate(202.783203 0)"/>
      <use xlink:href="#TimesNewRomanPSMT-63" transform="translate(247.167969 0)"/>
      <use xlink:href="#TimesNewRomanPSMT-63" transform="translate(291.552734 0)"/>
      <use xlink:href="#TimesNewRomanPSMT-75" transform="translate(335.9375 0)"/>
      <use xlink:href="#TimesNewRomanPSMT-72" transform="translate(385.9375 0)"/>
      <use xlink:href="#TimesNewRomanPSMT-61" transform="translate(419.238281 0)"/>
      <use xlink:href="#TimesNewRomanPSMT-63" transform="translate(463.623047 0)"/>
      <use xlink:href="#TimesNewRomanPSMT-79" transform="translate(508.007812 0)"/>
      <use xlink:href="#TimesNewRomanPSMT-20" transform="translate(558.007812 0)"/>
      <use xlink:href="#TimesNewRomanPSMT-30" transform="translate(583.007812 0)"/>
      <use xlink:href="#TimesNewRomanPSMT-2e" transform="translate(633.007812 0)"/>
      <use xlink:href="#TimesNewRomanPSMT-38" transform="translate(658.007812 0)"/>
      <use xlink:href="#TimesNewRomanPSMT-35" transform="translate(708.007812 0)"/>
     </g>
    </g>
   </g>
  </g>
 </g>
 <defs>
  <clipPath id="p03df29e83c">
   <rect x="356.464687" y="45.5315" width="357.12" height="266.112"/>
  </clipPath>
 </defs>
</svg>
