<?xml version="1.0" encoding="utf-8" standalone="no"?>
<!DOCTYPE svg PUBLIC "-//W3C//DTD SVG 1.1//EN"
  "http://www.w3.org/Graphics/SVG/1.1/DTD/svg11.dtd">
<svg xmlns:xlink="http://www.w3.org/1999/xlink" width="768.615pt" height="369.807875pt" viewBox="0 0 768.615 369.807875" xmlns="http://www.w3.org/2000/svg" version="1.1">
 <metadata>
  <rdf:RDF xmlns:dc="http://purl.org/dc/elements/1.1/" xmlns:cc="http://creativecommons.org/ns#" xmlns:rdf="http://www.w3.org/1999/02/22-rdf-syntax-ns#">
   <cc:Work>
    <dc:type rdf:resource="http://purl.org/dc/dcmitype/StillImage"/>
    <dc:date>2025-05-21T10:37:50.434498</dc:date>
    <dc:format>image/svg+xml</dc:format>
    <dc:creator>
     <cc:Agent>
      <dc:title>Matplotlib v3.10.1, https://matplotlib.org/</dc:title>
     </cc:Agent>
    </dc:creator>
   </cc:Work>
  </rdf:RDF>
 </metadata>
 <defs>
  <style type="text/css">*{stroke-linejoin: round; stroke-linecap: butt}</style>
 </defs>
 <g id="figure_1">
  <g id="patch_1">
   <path d="M 0 369.807875 
L 768.615 369.807875 
L 768.615 0 
L 0 0 
z
" style="fill: #ffffff"/>
  </g>
  <g id="axes_1">
   <g id="patch_2">
    <path d="M 205.7475 311.6435 
L 562.8675 311.6435 
L 562.8675 45.5315 
L 205.7475 45.5315 
z
" style="fill: #ffffff"/>
   </g>
   <g id="matplotlib.axis_1">
    <g id="xtick_1">
     <g id="line2d_1">
      <path d="M 205.7475 311.6435 
L 205.7475 45.5315 
" clip-path="url(#p17703f4863)" style="fill: none; stroke: #b0b0b0; stroke-opacity: 0.3; stroke-width: 0.8; stroke-linecap: square"/>
     </g>
     <g id="line2d_2">
      <defs>
       <path id="m2705dfd613" d="M 0 0 
L 0 3.5 
" style="stroke: #000000; stroke-width: 0.8"/>
      </defs>
      <g>
       <use xlink:href="#m2705dfd613" x="205.7475" y="311.6435" style="stroke: #000000; stroke-width: 0.8"/>
      </g>
     </g>
     <g id="text_1">
      <!-- 0 -->
      <g transform="translate(200.2475 333.91975) scale(0.22 -0.22)">
       <defs>
        <path id="TimesNewRomanPSMT-30" d="M 231 2094 
Q 231 2819 450 3342 
Q 669 3866 1031 4122 
Q 1313 4325 1613 4325 
Q 2100 4325 2488 3828 
Q 2972 3213 2972 2159 
Q 2972 1422 2759 906 
Q 2547 391 2217 158 
Q 1888 -75 1581 -75 
Q 975 -75 572 641 
Q 231 1244 231 2094 
z
M 844 2016 
Q 844 1141 1059 588 
Q 1238 122 1591 122 
Q 1759 122 1940 273 
Q 2122 425 2216 781 
Q 2359 1319 2359 2297 
Q 2359 3022 2209 3506 
Q 2097 3866 1919 4016 
Q 1791 4119 1609 4119 
Q 1397 4119 1231 3928 
Q 1006 3669 925 3112 
Q 844 2556 844 2016 
z
" transform="scale(0.015625)"/>
       </defs>
       <use xlink:href="#TimesNewRomanPSMT-30"/>
      </g>
     </g>
    </g>
    <g id="xtick_2">
     <g id="line2d_3">
      <path d="M 292.17538 311.6435 
L 292.17538 45.5315 
" clip-path="url(#p17703f4863)" style="fill: none; stroke: #b0b0b0; stroke-opacity: 0.3; stroke-width: 0.8; stroke-linecap: square"/>
     </g>
     <g id="line2d_4">
      <g>
       <use xlink:href="#m2705dfd613" x="292.17538" y="311.6435" style="stroke: #000000; stroke-width: 0.8"/>
      </g>
     </g>
     <g id="text_2">
      <!-- 2500 -->
      <g transform="translate(270.17538 333.91975) scale(0.22 -0.22)">
       <defs>
        <path id="TimesNewRomanPSMT-32" d="M 2934 816 
L 2638 0 
L 138 0 
L 138 116 
Q 1241 1122 1691 1759 
Q 2141 2397 2141 2925 
Q 2141 3328 1894 3587 
Q 1647 3847 1303 3847 
Q 991 3847 742 3664 
Q 494 3481 375 3128 
L 259 3128 
Q 338 3706 661 4015 
Q 984 4325 1469 4325 
Q 1984 4325 2329 3994 
Q 2675 3663 2675 3213 
Q 2675 2891 2525 2569 
Q 2294 2063 1775 1497 
Q 997 647 803 472 
L 1909 472 
Q 2247 472 2383 497 
Q 2519 522 2628 598 
Q 2738 675 2819 816 
L 2934 816 
z
" transform="scale(0.015625)"/>
        <path id="TimesNewRomanPSMT-35" d="M 2778 4238 
L 2534 3706 
L 1259 3706 
L 981 3138 
Q 1809 3016 2294 2522 
Q 2709 2097 2709 1522 
Q 2709 1188 2573 903 
Q 2438 619 2231 419 
Q 2025 219 1772 97 
Q 1413 -75 1034 -75 
Q 653 -75 479 54 
Q 306 184 306 341 
Q 306 428 378 495 
Q 450 563 559 563 
Q 641 563 702 538 
Q 763 513 909 409 
Q 1144 247 1384 247 
Q 1750 247 2026 523 
Q 2303 800 2303 1197 
Q 2303 1581 2056 1914 
Q 1809 2247 1375 2428 
Q 1034 2569 447 2591 
L 1259 4238 
L 2778 4238 
z
" transform="scale(0.015625)"/>
       </defs>
       <use xlink:href="#TimesNewRomanPSMT-32"/>
       <use xlink:href="#TimesNewRomanPSMT-35" transform="translate(50 0)"/>
       <use xlink:href="#TimesNewRomanPSMT-30" transform="translate(100 0)"/>
       <use xlink:href="#TimesNewRomanPSMT-30" transform="translate(150 0)"/>
      </g>
     </g>
    </g>
    <g id="xtick_3">
     <g id="line2d_5">
      <path d="M 378.60326 311.6435 
L 378.60326 45.5315 
" clip-path="url(#p17703f4863)" style="fill: none; stroke: #b0b0b0; stroke-opacity: 0.3; stroke-width: 0.8; stroke-linecap: square"/>
     </g>
     <g id="line2d_6">
      <g>
       <use xlink:href="#m2705dfd613" x="378.60326" y="311.6435" style="stroke: #000000; stroke-width: 0.8"/>
      </g>
     </g>
     <g id="text_3">
      <!-- 5000 -->
      <g transform="translate(356.60326 333.91975) scale(0.22 -0.22)">
       <use xlink:href="#TimesNewRomanPSMT-35"/>
       <use xlink:href="#TimesNewRomanPSMT-30" transform="translate(50 0)"/>
       <use xlink:href="#TimesNewRomanPSMT-30" transform="translate(100 0)"/>
       <use xlink:href="#TimesNewRomanPSMT-30" transform="translate(150 0)"/>
      </g>
     </g>
    </g>
    <g id="xtick_4">
     <g id="line2d_7">
      <path d="M 465.03114 311.6435 
L 465.03114 45.5315 
" clip-path="url(#p17703f4863)" style="fill: none; stroke: #b0b0b0; stroke-opacity: 0.3; stroke-width: 0.8; stroke-linecap: square"/>
     </g>
     <g id="line2d_8">
      <g>
       <use xlink:href="#m2705dfd613" x="465.03114" y="311.6435" style="stroke: #000000; stroke-width: 0.8"/>
      </g>
     </g>
     <g id="text_4">
      <!-- 7500 -->
      <g transform="translate(443.03114 333.91975) scale(0.22 -0.22)">
       <defs>
        <path id="TimesNewRomanPSMT-37" d="M 644 4238 
L 2916 4238 
L 2916 4119 
L 1503 -88 
L 1153 -88 
L 2419 3728 
L 1253 3728 
Q 900 3728 750 3644 
Q 488 3500 328 3200 
L 238 3234 
L 644 4238 
z
" transform="scale(0.015625)"/>
       </defs>
       <use xlink:href="#TimesNewRomanPSMT-37"/>
       <use xlink:href="#TimesNewRomanPSMT-35" transform="translate(50 0)"/>
       <use xlink:href="#TimesNewRomanPSMT-30" transform="translate(100 0)"/>
       <use xlink:href="#TimesNewRomanPSMT-30" transform="translate(150 0)"/>
      </g>
     </g>
    </g>
    <g id="xtick_5">
     <g id="line2d_9">
      <path d="M 551.45902 311.6435 
L 551.45902 45.5315 
" clip-path="url(#p17703f4863)" style="fill: none; stroke: #b0b0b0; stroke-opacity: 0.3; stroke-width: 0.8; stroke-linecap: square"/>
     </g>
     <g id="line2d_10">
      <g>
       <use xlink:href="#m2705dfd613" x="551.45902" y="311.6435" style="stroke: #000000; stroke-width: 0.8"/>
      </g>
     </g>
     <g id="text_5">
      <!-- 10000 -->
      <g transform="translate(523.95902 333.91975) scale(0.22 -0.22)">
       <defs>
        <path id="TimesNewRomanPSMT-31" d="M 750 3822 
L 1781 4325 
L 1884 4325 
L 1884 747 
Q 1884 391 1914 303 
Q 1944 216 2037 169 
Q 2131 122 2419 116 
L 2419 0 
L 825 0 
L 825 116 
Q 1125 122 1212 167 
Q 1300 213 1334 289 
Q 1369 366 1369 747 
L 1369 3034 
Q 1369 3497 1338 3628 
Q 1316 3728 1258 3775 
Q 1200 3822 1119 3822 
Q 1003 3822 797 3725 
L 750 3822 
z
" transform="scale(0.015625)"/>
       </defs>
       <use xlink:href="#TimesNewRomanPSMT-31"/>
       <use xlink:href="#TimesNewRomanPSMT-30" transform="translate(50 0)"/>
       <use xlink:href="#TimesNewRomanPSMT-30" transform="translate(100 0)"/>
       <use xlink:href="#TimesNewRomanPSMT-30" transform="translate(150 0)"/>
       <use xlink:href="#TimesNewRomanPSMT-30" transform="translate(200 0)"/>
      </g>
     </g>
    </g>
    <g id="text_6">
     <!-- Number of iterations -->
     <g transform="translate(292.665469 357.901937) scale(0.22 -0.22)">
      <defs>
       <path id="TimesNewRomanPSMT-4e" d="M -84 4238 
L 1066 4238 
L 3656 1059 
L 3656 3503 
Q 3656 3894 3569 3991 
Q 3453 4122 3203 4122 
L 3056 4122 
L 3056 4238 
L 4531 4238 
L 4531 4122 
L 4381 4122 
Q 4113 4122 4000 3959 
Q 3931 3859 3931 3503 
L 3931 -69 
L 3819 -69 
L 1025 3344 
L 1025 734 
Q 1025 344 1109 247 
Q 1228 116 1475 116 
L 1625 116 
L 1625 0 
L 150 0 
L 150 116 
L 297 116 
Q 569 116 681 278 
Q 750 378 750 734 
L 750 3681 
Q 566 3897 470 3965 
Q 375 4034 191 4094 
Q 100 4122 -84 4122 
L -84 4238 
z
" transform="scale(0.015625)"/>
       <path id="TimesNewRomanPSMT-75" d="M 2709 2863 
L 2709 1128 
Q 2709 631 2732 520 
Q 2756 409 2807 365 
Q 2859 322 2928 322 
Q 3025 322 3147 375 
L 3191 266 
L 2334 -88 
L 2194 -88 
L 2194 519 
Q 1825 119 1631 15 
Q 1438 -88 1222 -88 
Q 981 -88 804 51 
Q 628 191 559 409 
Q 491 628 491 1028 
L 491 2306 
Q 491 2509 447 2587 
Q 403 2666 317 2708 
Q 231 2750 6 2747 
L 6 2863 
L 1009 2863 
L 1009 947 
Q 1009 547 1148 422 
Q 1288 297 1484 297 
Q 1619 297 1789 381 
Q 1959 466 2194 703 
L 2194 2325 
Q 2194 2569 2105 2655 
Q 2016 2741 1734 2747 
L 1734 2863 
L 2709 2863 
z
" transform="scale(0.015625)"/>
       <path id="TimesNewRomanPSMT-6d" d="M 1050 2338 
Q 1363 2650 1419 2697 
Q 1559 2816 1721 2881 
Q 1884 2947 2044 2947 
Q 2313 2947 2506 2790 
Q 2700 2634 2766 2338 
Q 3088 2713 3309 2830 
Q 3531 2947 3766 2947 
Q 3994 2947 4170 2830 
Q 4347 2713 4450 2447 
Q 4519 2266 4519 1878 
L 4519 647 
Q 4519 378 4559 278 
Q 4591 209 4675 161 
Q 4759 113 4950 113 
L 4950 0 
L 3538 0 
L 3538 113 
L 3597 113 
Q 3781 113 3884 184 
Q 3956 234 3988 344 
Q 4000 397 4000 647 
L 4000 1878 
Q 4000 2228 3916 2372 
Q 3794 2572 3525 2572 
Q 3359 2572 3192 2489 
Q 3025 2406 2788 2181 
L 2781 2147 
L 2788 2013 
L 2788 647 
Q 2788 353 2820 281 
Q 2853 209 2943 161 
Q 3034 113 3253 113 
L 3253 0 
L 1806 0 
L 1806 113 
Q 2044 113 2133 169 
Q 2222 225 2256 338 
Q 2272 391 2272 647 
L 2272 1878 
Q 2272 2228 2169 2381 
Q 2031 2581 1784 2581 
Q 1616 2581 1450 2491 
Q 1191 2353 1050 2181 
L 1050 647 
Q 1050 366 1089 281 
Q 1128 197 1204 155 
Q 1281 113 1516 113 
L 1516 0 
L 100 0 
L 100 113 
Q 297 113 375 155 
Q 453 197 493 289 
Q 534 381 534 647 
L 534 1741 
Q 534 2213 506 2350 
Q 484 2453 437 2492 
Q 391 2531 309 2531 
Q 222 2531 100 2484 
L 53 2597 
L 916 2947 
L 1050 2947 
L 1050 2338 
z
" transform="scale(0.015625)"/>
       <path id="TimesNewRomanPSMT-62" d="M 984 2369 
Q 1400 2947 1881 2947 
Q 2322 2947 2650 2570 
Q 2978 2194 2978 1541 
Q 2978 778 2472 313 
Q 2038 -88 1503 -88 
Q 1253 -88 995 3 
Q 738 94 469 275 
L 469 3241 
Q 469 3728 445 3840 
Q 422 3953 372 3993 
Q 322 4034 247 4034 
Q 159 4034 28 3984 
L -16 4094 
L 844 4444 
L 984 4444 
L 984 2369 
z
M 984 2169 
L 984 456 
Q 1144 300 1314 220 
Q 1484 141 1663 141 
Q 1947 141 2192 453 
Q 2438 766 2438 1363 
Q 2438 1913 2192 2208 
Q 1947 2503 1634 2503 
Q 1469 2503 1303 2419 
Q 1178 2356 984 2169 
z
" transform="scale(0.015625)"/>
       <path id="TimesNewRomanPSMT-65" d="M 681 1784 
Q 678 1147 991 784 
Q 1303 422 1725 422 
Q 2006 422 2214 576 
Q 2422 731 2563 1106 
L 2659 1044 
Q 2594 616 2278 264 
Q 1963 -88 1488 -88 
Q 972 -88 605 314 
Q 238 716 238 1394 
Q 238 2128 614 2539 
Q 991 2950 1559 2950 
Q 2041 2950 2350 2633 
Q 2659 2316 2659 1784 
L 681 1784 
z
M 681 1966 
L 2006 1966 
Q 1991 2241 1941 2353 
Q 1863 2528 1708 2628 
Q 1553 2728 1384 2728 
Q 1125 2728 920 2526 
Q 716 2325 681 1966 
z
" transform="scale(0.015625)"/>
       <path id="TimesNewRomanPSMT-72" d="M 1038 2947 
L 1038 2303 
Q 1397 2947 1775 2947 
Q 1947 2947 2059 2842 
Q 2172 2738 2172 2600 
Q 2172 2478 2090 2393 
Q 2009 2309 1897 2309 
Q 1788 2309 1652 2417 
Q 1516 2525 1450 2525 
Q 1394 2525 1328 2463 
Q 1188 2334 1038 2041 
L 1038 669 
Q 1038 431 1097 309 
Q 1138 225 1241 169 
Q 1344 113 1538 113 
L 1538 0 
L 72 0 
L 72 113 
Q 291 113 397 181 
Q 475 231 506 341 
Q 522 394 522 644 
L 522 1753 
Q 522 2253 501 2348 
Q 481 2444 426 2487 
Q 372 2531 291 2531 
Q 194 2531 72 2484 
L 41 2597 
L 906 2947 
L 1038 2947 
z
" transform="scale(0.015625)"/>
       <path id="TimesNewRomanPSMT-20" transform="scale(0.015625)"/>
       <path id="TimesNewRomanPSMT-6f" d="M 1600 2947 
Q 2250 2947 2644 2453 
Q 2978 2031 2978 1484 
Q 2978 1100 2793 706 
Q 2609 313 2286 112 
Q 1963 -88 1566 -88 
Q 919 -88 538 428 
Q 216 863 216 1403 
Q 216 1797 411 2186 
Q 606 2575 925 2761 
Q 1244 2947 1600 2947 
z
M 1503 2744 
Q 1338 2744 1170 2645 
Q 1003 2547 900 2300 
Q 797 2053 797 1666 
Q 797 1041 1045 587 
Q 1294 134 1700 134 
Q 2003 134 2200 384 
Q 2397 634 2397 1244 
Q 2397 2006 2069 2444 
Q 1847 2744 1503 2744 
z
" transform="scale(0.015625)"/>
       <path id="TimesNewRomanPSMT-66" d="M 1319 2638 
L 1319 756 
Q 1319 356 1406 250 
Q 1522 113 1716 113 
L 1975 113 
L 1975 0 
L 266 0 
L 266 113 
L 394 113 
Q 519 113 622 175 
Q 725 238 764 344 
Q 803 450 803 756 
L 803 2638 
L 247 2638 
L 247 2863 
L 803 2863 
L 803 3050 
Q 803 3478 940 3775 
Q 1078 4072 1361 4255 
Q 1644 4438 1997 4438 
Q 2325 4438 2600 4225 
Q 2781 4084 2781 3909 
Q 2781 3816 2700 3733 
Q 2619 3650 2525 3650 
Q 2453 3650 2373 3701 
Q 2294 3753 2178 3923 
Q 2063 4094 1966 4153 
Q 1869 4213 1750 4213 
Q 1606 4213 1506 4136 
Q 1406 4059 1362 3898 
Q 1319 3738 1319 3069 
L 1319 2863 
L 2056 2863 
L 2056 2638 
L 1319 2638 
z
" transform="scale(0.015625)"/>
       <path id="TimesNewRomanPSMT-69" d="M 928 4444 
Q 1059 4444 1151 4351 
Q 1244 4259 1244 4128 
Q 1244 3997 1151 3903 
Q 1059 3809 928 3809 
Q 797 3809 703 3903 
Q 609 3997 609 4128 
Q 609 4259 701 4351 
Q 794 4444 928 4444 
z
M 1188 2947 
L 1188 647 
Q 1188 378 1227 289 
Q 1266 200 1342 156 
Q 1419 113 1622 113 
L 1622 0 
L 231 0 
L 231 113 
Q 441 113 512 153 
Q 584 194 626 287 
Q 669 381 669 647 
L 669 1750 
Q 669 2216 641 2353 
Q 619 2453 572 2492 
Q 525 2531 444 2531 
Q 356 2531 231 2484 
L 188 2597 
L 1050 2947 
L 1188 2947 
z
" transform="scale(0.015625)"/>
       <path id="TimesNewRomanPSMT-74" d="M 1031 3803 
L 1031 2863 
L 1700 2863 
L 1700 2644 
L 1031 2644 
L 1031 788 
Q 1031 509 1111 412 
Q 1191 316 1316 316 
Q 1419 316 1516 380 
Q 1613 444 1666 569 
L 1788 569 
Q 1678 263 1478 108 
Q 1278 -47 1066 -47 
Q 922 -47 784 33 
Q 647 113 581 261 
Q 516 409 516 719 
L 516 2644 
L 63 2644 
L 63 2747 
Q 234 2816 414 2980 
Q 594 3144 734 3369 
Q 806 3488 934 3803 
L 1031 3803 
z
" transform="scale(0.015625)"/>
       <path id="TimesNewRomanPSMT-61" d="M 1822 413 
Q 1381 72 1269 19 
Q 1100 -59 909 -59 
Q 613 -59 420 144 
Q 228 347 228 678 
Q 228 888 322 1041 
Q 450 1253 767 1440 
Q 1084 1628 1822 1897 
L 1822 2009 
Q 1822 2438 1686 2597 
Q 1550 2756 1291 2756 
Q 1094 2756 978 2650 
Q 859 2544 859 2406 
L 866 2225 
Q 866 2081 792 2003 
Q 719 1925 600 1925 
Q 484 1925 411 2006 
Q 338 2088 338 2228 
Q 338 2497 613 2722 
Q 888 2947 1384 2947 
Q 1766 2947 2009 2819 
Q 2194 2722 2281 2516 
Q 2338 2381 2338 1966 
L 2338 994 
Q 2338 584 2353 492 
Q 2369 400 2405 369 
Q 2441 338 2488 338 
Q 2538 338 2575 359 
Q 2641 400 2828 588 
L 2828 413 
Q 2478 -56 2159 -56 
Q 2006 -56 1915 50 
Q 1825 156 1822 413 
z
M 1822 616 
L 1822 1706 
Q 1350 1519 1213 1441 
Q 966 1303 859 1153 
Q 753 1003 753 825 
Q 753 600 887 451 
Q 1022 303 1197 303 
Q 1434 303 1822 616 
z
" transform="scale(0.015625)"/>
       <path id="TimesNewRomanPSMT-6e" d="M 1034 2341 
Q 1538 2947 1994 2947 
Q 2228 2947 2397 2830 
Q 2566 2713 2666 2444 
Q 2734 2256 2734 1869 
L 2734 647 
Q 2734 375 2778 278 
Q 2813 200 2889 156 
Q 2966 113 3172 113 
L 3172 0 
L 1756 0 
L 1756 113 
L 1816 113 
Q 2016 113 2095 173 
Q 2175 234 2206 353 
Q 2219 400 2219 647 
L 2219 1819 
Q 2219 2209 2117 2386 
Q 2016 2563 1775 2563 
Q 1403 2563 1034 2156 
L 1034 647 
Q 1034 356 1069 288 
Q 1113 197 1189 155 
Q 1266 113 1500 113 
L 1500 0 
L 84 0 
L 84 113 
L 147 113 
Q 366 113 442 223 
Q 519 334 519 647 
L 519 1709 
Q 519 2225 495 2337 
Q 472 2450 423 2490 
Q 375 2531 294 2531 
Q 206 2531 84 2484 
L 38 2597 
L 900 2947 
L 1034 2947 
L 1034 2341 
z
" transform="scale(0.015625)"/>
       <path id="TimesNewRomanPSMT-73" d="M 2050 2947 
L 2050 1972 
L 1947 1972 
Q 1828 2431 1642 2597 
Q 1456 2763 1169 2763 
Q 950 2763 815 2647 
Q 681 2531 681 2391 
Q 681 2216 781 2091 
Q 878 1963 1175 1819 
L 1631 1597 
Q 2266 1288 2266 781 
Q 2266 391 1970 151 
Q 1675 -88 1309 -88 
Q 1047 -88 709 6 
Q 606 38 541 38 
Q 469 38 428 -44 
L 325 -44 
L 325 978 
L 428 978 
Q 516 541 762 319 
Q 1009 97 1316 97 
Q 1531 97 1667 223 
Q 1803 350 1803 528 
Q 1803 744 1651 891 
Q 1500 1038 1047 1263 
Q 594 1488 453 1669 
Q 313 1847 313 2119 
Q 313 2472 555 2709 
Q 797 2947 1181 2947 
Q 1350 2947 1591 2875 
Q 1750 2828 1803 2828 
Q 1853 2828 1881 2850 
Q 1909 2872 1947 2947 
L 2050 2947 
z
" transform="scale(0.015625)"/>
      </defs>
      <use xlink:href="#TimesNewRomanPSMT-4e"/>
      <use xlink:href="#TimesNewRomanPSMT-75" transform="translate(72.216797 0)"/>
      <use xlink:href="#TimesNewRomanPSMT-6d" transform="translate(122.216797 0)"/>
      <use xlink:href="#TimesNewRomanPSMT-62" transform="translate(200 0)"/>
      <use xlink:href="#TimesNewRomanPSMT-65" transform="translate(250 0)"/>
      <use xlink:href="#TimesNewRomanPSMT-72" transform="translate(294.384766 0)"/>
      <use xlink:href="#TimesNewRomanPSMT-20" transform="translate(327.685547 0)"/>
      <use xlink:href="#TimesNewRomanPSMT-6f" transform="translate(352.685547 0)"/>
      <use xlink:href="#TimesNewRomanPSMT-66" transform="translate(402.685547 0)"/>
      <use xlink:href="#TimesNewRomanPSMT-20" transform="translate(435.986328 0)"/>
      <use xlink:href="#TimesNewRomanPSMT-69" transform="translate(460.986328 0)"/>
      <use xlink:href="#TimesNewRomanPSMT-74" transform="translate(488.769531 0)"/>
      <use xlink:href="#TimesNewRomanPSMT-65" transform="translate(516.552734 0)"/>
      <use xlink:href="#TimesNewRomanPSMT-72" transform="translate(560.9375 0)"/>
      <use xlink:href="#TimesNewRomanPSMT-61" transform="translate(594.238281 0)"/>
      <use xlink:href="#TimesNewRomanPSMT-74" transform="translate(638.623047 0)"/>
      <use xlink:href="#TimesNewRomanPSMT-69" transform="translate(666.40625 0)"/>
      <use xlink:href="#TimesNewRomanPSMT-6f" transform="translate(694.189453 0)"/>
      <use xlink:href="#TimesNewRomanPSMT-6e" transform="translate(744.189453 0)"/>
      <use xlink:href="#TimesNewRomanPSMT-73" transform="translate(794.189453 0)"/>
     </g>
    </g>
   </g>
   <g id="matplotlib.axis_2">
    <g id="ytick_1">
     <g id="line2d_11">
      <path d="M 205.7475 311.6435 
L 562.8675 311.6435 
" clip-path="url(#p17703f4863)" style="fill: none; stroke: #b0b0b0; stroke-opacity: 0.3; stroke-width: 0.8; stroke-linecap: square"/>
     </g>
     <g id="line2d_12">
      <defs>
       <path id="m7ee5eeef1f" d="M 0 0 
L -3.5 0 
" style="stroke: #000000; stroke-width: 0.8"/>
      </defs>
      <g>
       <use xlink:href="#m7ee5eeef1f" x="205.7475" y="311.6435" style="stroke: #000000; stroke-width: 0.8"/>
      </g>
     </g>
     <g id="text_7">
      <!-- 0.0 -->
      <g transform="translate(171.2475 319.281625) scale(0.22 -0.22)">
       <defs>
        <path id="TimesNewRomanPSMT-2e" d="M 800 606 
Q 947 606 1047 504 
Q 1147 403 1147 259 
Q 1147 116 1045 14 
Q 944 -88 800 -88 
Q 656 -88 554 14 
Q 453 116 453 259 
Q 453 406 554 506 
Q 656 606 800 606 
z
" transform="scale(0.015625)"/>
       </defs>
       <use xlink:href="#TimesNewRomanPSMT-30"/>
       <use xlink:href="#TimesNewRomanPSMT-2e" transform="translate(50 0)"/>
       <use xlink:href="#TimesNewRomanPSMT-30" transform="translate(75 0)"/>
      </g>
     </g>
    </g>
    <g id="ytick_2">
     <g id="line2d_13">
      <path d="M 205.7475 231.765605 
L 562.8675 231.765605 
" clip-path="url(#p17703f4863)" style="fill: none; stroke: #b0b0b0; stroke-opacity: 0.3; stroke-width: 0.8; stroke-linecap: square"/>
     </g>
     <g id="line2d_14">
      <g>
       <use xlink:href="#m7ee5eeef1f" x="205.7475" y="231.765605" style="stroke: #000000; stroke-width: 0.8"/>
      </g>
     </g>
     <g id="text_8">
      <!-- 0.1 -->
      <g transform="translate(171.2475 239.40373) scale(0.22 -0.22)">
       <use xlink:href="#TimesNewRomanPSMT-30"/>
       <use xlink:href="#TimesNewRomanPSMT-2e" transform="translate(50 0)"/>
       <use xlink:href="#TimesNewRomanPSMT-31" transform="translate(75 0)"/>
      </g>
     </g>
    </g>
    <g id="ytick_3">
     <g id="line2d_15">
      <path d="M 205.7475 151.88771 
L 562.8675 151.88771 
" clip-path="url(#p17703f4863)" style="fill: none; stroke: #b0b0b0; stroke-opacity: 0.3; stroke-width: 0.8; stroke-linecap: square"/>
     </g>
     <g id="line2d_16">
      <g>
       <use xlink:href="#m7ee5eeef1f" x="205.7475" y="151.88771" style="stroke: #000000; stroke-width: 0.8"/>
      </g>
     </g>
     <g id="text_9">
      <!-- 0.2 -->
      <g transform="translate(171.2475 159.525835) scale(0.22 -0.22)">
       <use xlink:href="#TimesNewRomanPSMT-30"/>
       <use xlink:href="#TimesNewRomanPSMT-2e" transform="translate(50 0)"/>
       <use xlink:href="#TimesNewRomanPSMT-32" transform="translate(75 0)"/>
      </g>
     </g>
    </g>
    <g id="ytick_4">
     <g id="line2d_17">
      <path d="M 205.7475 72.009815 
L 562.8675 72.009815 
" clip-path="url(#p17703f4863)" style="fill: none; stroke: #b0b0b0; stroke-opacity: 0.3; stroke-width: 0.8; stroke-linecap: square"/>
     </g>
     <g id="line2d_18">
      <g>
       <use xlink:href="#m7ee5eeef1f" x="205.7475" y="72.009815" style="stroke: #000000; stroke-width: 0.8"/>
      </g>
     </g>
     <g id="text_10">
      <!-- 0.3 -->
      <g transform="translate(171.2475 79.64794) scale(0.22 -0.22)">
       <defs>
        <path id="TimesNewRomanPSMT-33" d="M 325 3431 
Q 506 3859 782 4092 
Q 1059 4325 1472 4325 
Q 1981 4325 2253 3994 
Q 2459 3747 2459 3466 
Q 2459 3003 1878 2509 
Q 2269 2356 2469 2072 
Q 2669 1788 2669 1403 
Q 2669 853 2319 450 
Q 1863 -75 997 -75 
Q 569 -75 414 31 
Q 259 138 259 259 
Q 259 350 332 419 
Q 406 488 509 488 
Q 588 488 669 463 
Q 722 447 909 348 
Q 1097 250 1169 231 
Q 1284 197 1416 197 
Q 1734 197 1970 444 
Q 2206 691 2206 1028 
Q 2206 1275 2097 1509 
Q 2016 1684 1919 1775 
Q 1784 1900 1550 2001 
Q 1316 2103 1072 2103 
L 972 2103 
L 972 2197 
Q 1219 2228 1467 2375 
Q 1716 2522 1828 2728 
Q 1941 2934 1941 3181 
Q 1941 3503 1739 3701 
Q 1538 3900 1238 3900 
Q 753 3900 428 3381 
L 325 3431 
z
" transform="scale(0.015625)"/>
       </defs>
       <use xlink:href="#TimesNewRomanPSMT-30"/>
       <use xlink:href="#TimesNewRomanPSMT-2e" transform="translate(50 0)"/>
       <use xlink:href="#TimesNewRomanPSMT-33" transform="translate(75 0)"/>
      </g>
     </g>
    </g>
    <g id="text_11">
     <!-- Loss -->
     <g transform="translate(162.541562 199.368906) rotate(-90) scale(0.22 -0.22)">
      <defs>
       <path id="TimesNewRomanPSMT-4c" d="M 3669 1172 
L 3772 1150 
L 3409 0 
L 128 0 
L 128 116 
L 288 116 
Q 556 116 672 291 
Q 738 391 738 753 
L 738 3488 
Q 738 3884 650 3984 
Q 528 4122 288 4122 
L 128 4122 
L 128 4238 
L 2047 4238 
L 2047 4122 
Q 1709 4125 1573 4059 
Q 1438 3994 1388 3894 
Q 1338 3794 1338 3416 
L 1338 753 
Q 1338 494 1388 397 
Q 1425 331 1503 300 
Q 1581 269 1991 269 
L 2300 269 
Q 2788 269 2984 341 
Q 3181 413 3343 595 
Q 3506 778 3669 1172 
z
" transform="scale(0.015625)"/>
      </defs>
      <use xlink:href="#TimesNewRomanPSMT-4c"/>
      <use xlink:href="#TimesNewRomanPSMT-6f" transform="translate(61.083984 0)"/>
      <use xlink:href="#TimesNewRomanPSMT-73" transform="translate(111.083984 0)"/>
      <use xlink:href="#TimesNewRomanPSMT-73" transform="translate(150 0)"/>
     </g>
    </g>
   </g>
   <g id="line2d_19">
    <path d="M 205.7475 111.775435 
L 206.093547 134.832745 
L 206.78564 145.397385 
L 207.131686 148.193944 
L 207.477733 155.38435 
L 207.823779 154.790166 
L 208.169826 161.8978 
L 208.515872 160.593272 
L 208.861919 167.16451 
L 209.207965 169.766102 
L 209.554012 173.435275 
L 209.900058 172.696746 
L 210.246105 179.671938 
L 210.592151 174.772809 
L 210.938198 183.478135 
L 211.284244 182.756877 
L 211.630291 185.614449 
L 211.976337 192.819162 
L 212.322384 193.857652 
L 212.66843 197.782828 
L 213.014477 197.921721 
L 213.360523 198.962461 
L 213.70657 201.810464 
L 214.052616 201.873477 
L 214.398663 207.143424 
L 214.744709 210.499328 
L 215.090756 215.902015 
L 215.436802 213.759517 
L 215.782849 217.573462 
L 216.128895 216.637741 
L 216.474942 224.893019 
L 216.820988 224.007973 
L 217.167035 227.200614 
L 217.513081 226.624551 
L 217.859128 233.36823 
L 218.205174 233.509015 
L 218.551221 234.605816 
L 218.897267 236.856957 
L 219.243314 237.725487 
L 219.58936 236.840043 
L 219.935407 236.820189 
L 220.973547 249.854272 
L 221.319593 249.291844 
L 221.66564 248.104576 
L 222.011686 252.038066 
L 222.703779 252.721652 
L 223.049826 254.269151 
L 223.395872 254.078064 
L 223.741919 258.74099 
L 224.087965 260.275806 
L 224.434012 259.222545 
L 224.780058 259.626613 
L 225.126105 264.161272 
L 225.472151 263.614838 
L 226.164244 265.448389 
L 226.510291 267.985641 
L 227.202384 269.772542 
L 227.54843 269.965979 
L 227.894477 273.238808 
L 228.240523 272.131003 
L 228.932616 276.227037 
L 229.278663 276.078232 
L 229.624709 276.144789 
L 229.970756 274.238239 
L 230.316802 277.511878 
L 230.662849 275.54535 
L 231.008895 278.584139 
L 231.354942 278.965092 
L 231.700988 280.608562 
L 232.047035 280.613983 
L 232.739128 284.473974 
L 233.085174 283.658524 
L 233.431221 283.854657 
L 233.777267 285.23702 
L 234.123314 285.80043 
L 234.46936 288.337806 
L 234.815407 287.114172 
L 235.161453 287.695798 
L 235.5075 287.016215 
L 235.853547 286.95631 
L 236.199593 287.156208 
L 236.54564 288.502977 
L 236.891686 291.966607 
L 237.583779 289.964645 
L 237.929826 293.884655 
L 238.275872 291.338672 
L 238.621919 293.787327 
L 238.967965 291.773481 
L 239.314012 294.824523 
L 239.660058 291.775785 
L 240.006105 293.573324 
L 240.352151 292.90576 
L 241.044244 294.522676 
L 241.390291 295.061751 
L 241.736337 295.296434 
L 242.082384 296.675278 
L 242.42843 295.747921 
L 242.774477 297.071008 
L 243.120523 296.385507 
L 243.46657 297.346478 
L 243.812616 297.74603 
L 244.158663 295.785758 
L 244.504709 298.248392 
L 244.850756 295.976311 
L 245.196802 297.188455 
L 245.542849 299.51703 
L 245.888895 298.795585 
L 246.234942 298.538263 
L 246.580988 298.674906 
L 246.927035 299.745454 
L 247.273081 298.7747 
L 247.965174 300.389419 
L 248.311221 298.844039 
L 248.657267 300.513858 
L 249.003314 297.754413 
L 249.695407 301.000153 
L 250.041453 300.719762 
L 250.3875 299.115019 
L 250.733547 302.58782 
L 251.079593 301.199549 
L 251.42564 301.502701 
L 251.771686 302.649813 
L 252.117733 303.12107 
L 252.463779 302.68518 
L 252.809826 301.71958 
L 253.155872 301.92536 
L 253.501919 302.868363 
L 253.847965 303.244825 
L 254.194012 302.716029 
L 254.540058 303.524145 
L 254.886105 303.847908 
L 255.578198 303.987412 
L 255.924244 302.826189 
L 256.270291 302.489281 
L 256.616337 303.757081 
L 256.962384 303.196411 
L 257.30843 304.620054 
L 257.654477 304.586817 
L 258.000523 304.281762 
L 258.34657 303.566251 
L 258.692616 305.18284 
L 259.384709 303.545119 
L 259.730756 304.173375 
L 260.076802 303.73334 
L 260.422849 303.60681 
L 260.768895 304.317319 
L 261.114942 304.596852 
L 261.807035 303.430578 
L 262.153081 303.486129 
L 262.499128 304.901686 
L 262.845174 304.60833 
L 263.191221 303.22087 
L 263.537267 304.986815 
L 263.883314 305.127614 
L 264.22936 304.021454 
L 264.575407 306.549438 
L 264.921453 305.173354 
L 265.2675 306.793579 
L 265.613547 305.438222 
L 265.959593 305.891051 
L 266.30564 305.716179 
L 266.651686 304.987676 
L 266.997733 306.477637 
L 267.343779 304.25692 
L 267.689826 305.891655 
L 268.035872 306.364148 
L 268.381919 306.206511 
L 268.727965 306.726931 
L 269.074012 305.524063 
L 269.420058 305.310011 
L 269.766105 306.263183 
L 270.112151 305.122776 
L 270.458198 306.082137 
L 270.804244 306.402224 
L 271.150291 304.183553 
L 271.496337 304.511069 
L 271.842384 306.14348 
L 272.18843 306.992236 
L 272.534477 306.535074 
L 272.880523 306.637976 
L 273.22657 306.284001 
L 273.572616 306.919524 
L 273.918663 305.916395 
L 274.264709 305.840074 
L 274.610756 305.107665 
L 274.956802 306.564479 
L 275.302849 305.835451 
L 275.648895 307.969435 
L 275.994942 306.712408 
L 276.340988 308.206621 
L 276.687035 306.895578 
L 277.033081 306.783418 
L 277.379128 305.648567 
L 277.725174 305.717951 
L 278.071221 307.492976 
L 278.417267 305.821162 
L 278.763314 307.256669 
L 279.10936 306.025454 
L 279.455407 305.358122 
L 279.801453 305.758063 
L 280.493547 307.191287 
L 280.839593 307.160749 
L 281.18564 306.006598 
L 281.531686 307.461709 
L 282.569826 306.493368 
L 282.915872 307.038701 
L 283.261919 305.694633 
L 283.607965 306.167958 
L 283.954012 306.847064 
L 284.300058 308.146677 
L 284.646105 307.018942 
L 284.992151 308.355783 
L 285.338198 306.076122 
L 286.030291 307.135512 
L 286.376337 306.504263 
L 286.722384 308.046452 
L 287.06843 307.059463 
L 287.414477 308.289303 
L 287.760523 307.949972 
L 288.10657 306.603886 
L 288.452616 307.209156 
L 288.798663 306.829237 
L 289.144709 307.351639 
L 289.490756 308.87374 
L 289.836802 307.061298 
L 290.182849 306.203986 
L 290.874942 308.289186 
L 291.220988 307.378599 
L 291.567035 307.451437 
L 291.913081 307.004684 
L 292.259128 308.20032 
L 292.605174 306.273617 
L 292.951221 307.524239 
L 293.297267 306.907277 
L 293.98936 308.688056 
L 294.335407 307.225445 
L 294.681453 306.955903 
L 295.0275 307.542671 
L 295.373547 306.675265 
L 295.719593 307.015714 
L 296.06564 308.076077 
L 296.411686 308.049692 
L 296.757733 307.445007 
L 297.103779 308.885214 
L 297.449826 307.460068 
L 297.795872 307.367406 
L 298.141919 307.559836 
L 298.487965 308.289608 
L 298.834012 307.470328 
L 299.180058 308.906549 
L 299.526105 307.455308 
L 299.872151 308.013554 
L 300.218198 307.113735 
L 300.564244 306.606132 
L 300.910291 306.642176 
L 301.256337 308.279208 
L 301.602384 307.692592 
L 301.94843 307.857057 
L 302.294477 308.340061 
L 302.640523 306.89474 
L 302.98657 307.436269 
L 303.332616 307.697317 
L 303.678663 308.245888 
L 304.024709 308.221792 
L 304.370756 307.706542 
L 304.716802 308.206241 
L 305.062849 308.158523 
L 305.408895 307.371711 
L 306.100988 308.054269 
L 306.447035 308.055677 
L 306.793081 306.905859 
L 307.139128 308.527999 
L 307.485174 308.385483 
L 307.831221 307.316178 
L 308.177267 307.503849 
L 308.86936 306.867124 
L 309.215407 308.161849 
L 309.561453 307.636092 
L 310.599593 308.964932 
L 310.94564 309.987506 
L 311.291686 308.872146 
L 311.637733 308.32382 
L 311.983779 307.27416 
L 312.329826 308.862298 
L 312.675872 307.618093 
L 313.021919 308.6655 
L 313.367965 307.554906 
L 313.714012 308.064247 
L 314.060058 307.588712 
L 314.752151 307.734359 
L 315.098198 308.580188 
L 315.444244 308.877344 
L 316.136337 307.485298 
L 316.482384 309.15777 
L 316.82843 308.519568 
L 317.174477 307.459193 
L 317.520523 307.540276 
L 317.86657 308.008116 
L 318.212616 307.854373 
L 318.558663 308.528029 
L 318.904709 307.005219 
L 319.250756 307.502745 
L 319.596802 308.584135 
L 320.288895 308.371053 
L 320.634942 307.365698 
L 320.980988 309.387195 
L 321.327035 307.028197 
L 321.673081 306.822724 
L 322.019128 308.126458 
L 322.365174 307.303299 
L 322.711221 307.231795 
L 323.057267 308.837407 
L 323.403314 308.08485 
L 323.74936 308.412601 
L 324.095407 310.129028 
L 324.441453 307.641995 
L 324.7875 309.158267 
L 325.133547 308.380931 
L 325.479593 308.82741 
L 325.82564 307.968367 
L 326.171686 309.112241 
L 326.863779 307.723479 
L 327.209826 308.500251 
L 327.555872 308.896481 
L 327.901919 307.319288 
L 328.247965 307.504712 
L 328.594012 306.875661 
L 328.940058 307.86888 
L 329.286105 307.916128 
L 329.632151 306.839963 
L 329.978198 308.70075 
L 330.324244 307.127065 
L 330.670291 309.748718 
L 331.016337 308.205112 
L 331.362384 309.550414 
L 331.70843 308.419198 
L 332.054477 308.200418 
L 332.74657 308.890496 
L 333.438663 308.183712 
L 333.784709 308.620027 
L 334.130756 306.362427 
L 334.476802 308.200727 
L 334.822849 308.636214 
L 335.168895 307.591036 
L 335.860988 309.643448 
L 336.207035 307.586975 
L 336.553081 308.766346 
L 336.899128 256.409679 
L 337.245174 286.328182 
L 337.591221 280.632706 
L 337.937267 290.128987 
L 338.283314 305.75788 
L 338.62936 303.522539 
L 338.975407 306.701595 
L 339.321453 306.769135 
L 339.6675 308.307161 
L 340.013547 307.721192 
L 340.359593 306.80976 
L 340.70564 308.179243 
L 341.051686 308.06865 
L 341.397733 308.699397 
L 341.743779 307.772489 
L 342.089826 308.208817 
L 342.435872 307.72873 
L 342.781919 308.801985 
L 343.127965 308.936646 
L 343.474012 307.165328 
L 343.820058 306.792401 
L 344.166105 310.125604 
L 344.512151 309.08346 
L 344.858198 308.623942 
L 345.204244 309.340563 
L 345.550291 308.843112 
L 345.896337 307.760703 
L 346.242384 309.277815 
L 346.58843 307.562675 
L 346.934477 308.298132 
L 347.280523 308.753652 
L 347.62657 307.691108 
L 347.972616 308.821308 
L 348.318663 307.831323 
L 348.664709 307.875344 
L 349.010756 308.346084 
L 349.356802 307.353143 
L 349.702849 307.997202 
L 350.048895 307.798398 
L 350.394942 308.799632 
L 350.740988 308.506828 
L 351.087035 307.860263 
L 351.433081 308.630424 
L 351.779128 307.817745 
L 352.125174 307.583755 
L 352.471221 308.332201 
L 352.817267 308.562538 
L 353.163314 309.385167 
L 353.50936 308.56451 
L 353.855407 308.261381 
L 354.201453 307.719587 
L 354.893547 308.828078 
L 355.239593 307.678533 
L 355.58564 307.912357 
L 355.931686 307.887722 
L 356.623779 308.952 
L 356.969826 307.99498 
L 357.315872 308.342101 
L 357.661919 307.210172 
L 358.007965 306.630821 
L 358.354012 308.192485 
L 358.700058 307.676295 
L 359.046105 309.690508 
L 359.392151 307.390142 
L 359.738198 307.989215 
L 360.084244 308.128577 
L 360.430291 307.888413 
L 360.776337 308.581064 
L 361.122384 308.06203 
L 361.46843 309.119331 
L 362.160523 307.813577 
L 362.50657 309.795134 
L 362.852616 306.324349 
L 363.198663 307.388093 
L 363.544709 309.146065 
L 363.890756 308.504501 
L 364.236802 308.989041 
L 364.582849 307.536638 
L 364.928895 308.586566 
L 365.274942 309.152183 
L 365.620988 309.231914 
L 366.313081 308.139815 
L 366.659128 307.826085 
L 367.005174 306.894888 
L 367.351221 308.587724 
L 367.697267 307.822072 
L 368.043314 308.219285 
L 368.38936 307.83786 
L 368.735407 308.974922 
L 369.081453 309.316272 
L 369.4275 308.428999 
L 369.773547 308.76715 
L 370.119593 307.690174 
L 370.46564 307.26867 
L 370.811686 308.534095 
L 371.157733 306.98779 
L 371.849826 308.637895 
L 372.195872 309.21882 
L 372.541919 307.931711 
L 372.887965 308.793093 
L 373.234012 308.766348 
L 373.580058 307.038844 
L 373.926105 307.464032 
L 374.272151 306.388813 
L 374.618198 308.542232 
L 374.964244 307.954899 
L 375.310291 308.378512 
L 375.656337 306.648162 
L 376.34843 309.448314 
L 376.694477 309.659854 
L 377.040523 309.559926 
L 377.38657 308.34602 
L 377.732616 309.455618 
L 378.078663 309.906748 
L 378.424709 308.796174 
L 378.770756 309.50663 
L 379.116802 308.257985 
L 379.462849 308.910412 
L 380.154942 307.734518 
L 380.500988 307.734212 
L 380.847035 308.615648 
L 381.193081 308.171028 
L 381.539128 308.469535 
L 381.885174 309.287636 
L 382.231221 307.526241 
L 382.577267 308.510825 
L 382.923314 308.54864 
L 383.26936 309.733002 
L 383.615407 307.555358 
L 383.961453 308.923403 
L 384.3075 307.666826 
L 384.653547 310.395314 
L 384.999593 307.786421 
L 385.691686 308.710292 
L 386.037733 308.623735 
L 386.383779 308.904039 
L 386.729826 309.03895 
L 387.075872 308.805002 
L 387.767965 308.834253 
L 388.114012 307.96526 
L 388.460058 306.455212 
L 388.806105 306.658844 
L 389.152151 305.560719 
L 389.498198 308.48839 
L 389.844244 307.817873 
L 390.190291 308.112927 
L 390.536337 306.906019 
L 390.882384 309.33525 
L 391.22843 308.887299 
L 391.574477 307.838965 
L 391.920523 308.313373 
L 392.26657 308.006806 
L 392.612616 308.962153 
L 392.958663 307.742437 
L 393.304709 309.359219 
L 393.650756 307.899492 
L 393.996802 309.903982 
L 394.342849 308.313384 
L 394.688895 308.151199 
L 395.034942 307.718778 
L 395.380988 308.407977 
L 395.727035 308.28684 
L 396.073081 308.425021 
L 396.419128 309.503366 
L 396.765174 309.045062 
L 397.111221 309.076697 
L 397.457267 308.40332 
L 397.803314 308.723597 
L 398.14936 309.691381 
L 398.495407 306.992175 
L 398.841453 309.164366 
L 399.1875 307.73201 
L 399.533547 310.197258 
L 400.22564 306.771852 
L 400.571686 307.346998 
L 401.263779 309.130448 
L 401.609826 308.444777 
L 401.955872 307.32071 
L 402.301919 308.770103 
L 402.994012 307.765405 
L 403.340058 307.782627 
L 403.686105 309.904181 
L 404.032151 308.5672 
L 404.378198 309.103402 
L 405.070291 307.969314 
L 405.416337 309.329865 
L 405.762384 309.54388 
L 406.10843 308.065913 
L 406.454477 308.656477 
L 406.800523 308.905017 
L 407.14657 309.296047 
L 407.492616 308.78043 
L 407.838663 308.652174 
L 408.184709 309.762379 
L 408.530756 307.910269 
L 408.876802 307.414821 
L 409.222849 309.512624 
L 409.568895 308.212832 
L 409.914942 307.892171 
L 410.260988 308.219845 
L 410.607035 307.772174 
L 410.953081 307.972155 
L 411.299128 309.100123 
L 411.645174 307.10878 
L 411.991221 308.206523 
L 412.683314 307.835596 
L 413.02936 307.305922 
L 413.375407 308.34594 
L 413.721453 306.629933 
L 414.0675 307.106296 
L 414.413547 309.099352 
L 415.10564 307.379929 
L 415.451686 308.423828 
L 415.797733 307.538908 
L 416.143779 308.011037 
L 416.489826 307.561543 
L 416.835872 308.448434 
L 417.181919 308.067822 
L 417.527965 308.219045 
L 417.874012 308.652783 
L 418.220058 308.766964 
L 418.566105 307.551769 
L 419.258198 309.33941 
L 419.604244 307.120317 
L 419.950291 307.557921 
L 420.296337 309.34359 
L 420.642384 307.560834 
L 420.98843 309.130208 
L 421.334477 308.497412 
L 421.680523 309.991093 
L 422.02657 307.973034 
L 422.372616 309.541426 
L 422.718663 308.431378 
L 423.064709 308.879866 
L 423.410756 308.591484 
L 423.756802 307.955656 
L 424.102849 308.218439 
L 424.448895 308.67499 
L 424.794942 308.144075 
L 425.140988 307.324817 
L 425.487035 307.542137 
L 425.833081 308.224032 
L 426.179128 309.317746 
L 426.525174 309.099677 
L 426.871221 308.031077 
L 427.217267 308.244252 
L 427.563314 308.012125 
L 427.90936 308.448086 
L 428.255407 309.793078 
L 428.601453 309.664739 
L 429.293547 308.897354 
L 429.639593 308.898825 
L 430.331686 307.973679 
L 430.677733 309.012591 
L 431.023779 308.680515 
L 431.369826 308.701761 
L 431.715872 306.678307 
L 432.061919 309.122151 
L 432.407965 309.346628 
L 432.754012 308.896649 
L 433.100058 306.917897 
L 433.446105 307.212457 
L 433.792151 309.075146 
L 434.138198 309.316859 
L 434.830291 308.675765 
L 435.176337 308.232709 
L 435.522384 309.031359 
L 435.86843 308.404069 
L 436.560523 309.995245 
L 436.90657 308.788899 
L 437.252616 309.562973 
L 437.944709 308.614605 
L 438.290756 307.275746 
L 438.636802 309.35653 
L 438.982849 309.571378 
L 439.674942 308.154658 
L 440.020988 306.937026 
L 440.367035 308.571427 
L 440.713081 308.667493 
L 441.059128 308.025792 
L 441.405174 310.018223 
L 441.751221 309.128385 
L 442.097267 310.016584 
L 442.443314 306.119314 
L 442.78936 308.241123 
L 443.135407 307.266892 
L 443.481453 307.179336 
L 443.8275 308.447501 
L 444.173547 308.253303 
L 444.519593 308.468448 
L 445.211686 309.359081 
L 445.557733 308.485246 
L 446.249826 308.518707 
L 446.595872 307.785407 
L 447.287965 307.146552 
L 447.634012 307.681507 
L 447.980058 309.200881 
L 448.326105 307.226019 
L 448.672151 308.428674 
L 449.018198 306.677768 
L 449.364244 308.242348 
L 449.710291 308.914587 
L 450.056337 309.143135 
L 450.402384 308.073947 
L 450.74843 308.70442 
L 451.094477 308.470725 
L 451.440523 309.128377 
L 451.78657 306.691013 
L 452.132616 309.13443 
L 452.478663 308.970502 
L 452.824709 308.664983 
L 453.170756 309.124061 
L 453.516802 307.068275 
L 453.862849 308.680519 
L 454.208895 307.86525 
L 454.900988 308.034688 
L 455.247035 309.141734 
L 455.593081 308.035614 
L 455.939128 308.023084 
L 456.285174 308.48213 
L 456.631221 309.357395 
L 456.977267 309.374271 
L 457.323314 309.151513 
L 457.66936 308.404699 
L 458.015407 309.134519 
L 458.361453 308.418119 
L 458.7075 308.918407 
L 459.053547 310.001011 
L 459.399593 308.480784 
L 459.74564 309.150156 
L 460.091686 308.47587 
L 460.437733 308.90449 
L 460.783779 308.247972 
L 461.129826 309.657188 
L 461.475872 308.239606 
L 461.821919 308.244171 
L 462.167965 139.112349 
L 462.514012 217.051706 
L 462.860058 267.801529 
L 463.206105 287.010396 
L 463.552151 299.703736 
L 463.898198 300.439011 
L 464.590291 307.618968 
L 464.936337 307.749431 
L 465.282384 309.22927 
L 465.62843 309.728026 
L 465.974477 309.443404 
L 466.320523 309.384743 
L 466.66657 309.575106 
L 467.012616 308.195399 
L 467.358663 309.985563 
L 467.704709 308.846248 
L 468.050756 309.352557 
L 468.742849 306.654123 
L 469.088895 309.553172 
L 469.434942 307.488342 
L 469.780988 310.421932 
L 470.127035 308.077897 
L 470.473081 308.688082 
L 470.819128 308.967322 
L 471.165174 310.21615 
L 471.511221 308.090792 
L 471.857267 308.885964 
L 472.203314 307.567121 
L 472.54936 308.013432 
L 472.895407 307.954227 
L 473.241453 308.324317 
L 473.5875 308.477492 
L 473.933547 309.121154 
L 474.279593 308.766121 
L 474.62564 308.882756 
L 474.971686 308.528704 
L 475.317733 309.094102 
L 475.663779 308.877799 
L 476.009826 309.352537 
L 476.355872 309.161539 
L 476.701919 309.327392 
L 477.047965 309.639292 
L 477.394012 308.726965 
L 477.740058 308.798089 
L 478.086105 309.043132 
L 478.432151 308.898726 
L 478.778198 307.79766 
L 479.124244 308.184845 
L 479.470291 308.290084 
L 479.816337 307.883868 
L 480.162384 308.455733 
L 480.50843 308.137436 
L 480.854477 308.922196 
L 481.200523 309.062553 
L 481.54657 308.122437 
L 481.892616 308.245824 
L 482.238663 309.144622 
L 482.584709 308.907805 
L 482.930756 309.579465 
L 483.276802 307.092223 
L 483.622849 307.8078 
L 483.968895 307.239136 
L 484.314942 308.533135 
L 484.660988 308.921351 
L 485.007035 308.699399 
L 485.353081 310.253979 
L 485.699128 308.260535 
L 486.045174 309.297413 
L 486.737267 308.45523 
L 487.083314 309.14637 
L 487.42936 307.761882 
L 487.775407 307.826513 
L 488.121453 309.370277 
L 488.4675 308.029442 
L 488.813547 308.244008 
L 489.159593 308.922256 
L 489.50564 308.583814 
L 489.851686 308.496527 
L 490.197733 308.752316 
L 490.543779 306.478783 
L 490.889826 307.591285 
L 491.235872 307.630886 
L 491.927965 308.605237 
L 492.274012 308.382841 
L 492.620058 307.635442 
L 492.966105 308.706399 
L 493.312151 308.70064 
L 493.658198 307.973751 
L 494.004244 310.272242 
L 494.350291 309.036965 
L 495.042384 308.110882 
L 495.38843 309.059172 
L 495.734477 308.25797 
L 496.080523 309.591143 
L 496.42657 308.698272 
L 496.772616 308.553173 
L 497.118663 309.36597 
L 497.464709 308.490016 
L 497.810756 309.169817 
L 498.502849 308.578805 
L 498.848895 309.262757 
L 499.194942 308.054134 
L 499.540988 310.269225 
L 499.887035 308.595013 
L 500.233081 307.81638 
L 500.579128 309.587777 
L 500.925174 308.521186 
L 501.271221 309.152213 
L 501.617267 308.304126 
L 501.963314 308.522391 
L 502.30936 309.150534 
L 502.655407 308.935024 
L 503.001453 308.940191 
L 503.3475 307.690402 
L 503.693547 309.158438 
L 504.039593 309.331541 
L 504.38564 308.451872 
L 504.731686 308.195175 
L 505.077733 309.144733 
L 505.423779 308.705143 
L 505.769826 308.072521 
L 506.115872 306.888666 
L 506.461919 309.819584 
L 506.807965 307.79019 
L 507.154012 309.371864 
L 507.500058 308.473767 
L 507.846105 308.706476 
L 508.192151 307.58751 
L 508.884244 308.046548 
L 509.230291 309.49001 
L 509.576337 308.835409 
L 509.922384 308.490787 
L 510.26843 309.544535 
L 510.614477 308.867456 
L 510.960523 308.493418 
L 511.30657 307.853389 
L 511.652616 308.281374 
L 511.998663 306.756257 
L 512.690756 309.832378 
L 513.382849 307.832737 
L 513.728895 308.822516 
L 514.074942 308.491454 
L 514.420988 307.892383 
L 515.459128 309.084793 
L 515.805174 309.812947 
L 516.497267 307.823884 
L 516.843314 308.979557 
L 517.18936 309.386663 
L 517.535407 310.049766 
L 518.2275 308.719342 
L 518.573547 310.055892 
L 518.919593 306.079803 
L 519.26564 309.162423 
L 519.611686 309.166544 
L 519.957733 307.761182 
L 520.303779 307.381202 
L 520.649826 309.602386 
L 520.995872 306.91213 
L 521.341919 308.289551 
L 521.687965 308.268744 
L 522.034012 309.386085 
L 522.380058 308.709707 
L 522.726105 308.279002 
L 523.072151 308.889036 
L 523.418198 308.941346 
L 523.764244 308.317936 
L 524.110291 308.649212 
L 524.456337 309.159274 
L 524.802384 308.502066 
L 525.14843 308.258885 
L 525.494477 309.168147 
L 525.840523 309.392764 
L 526.18657 308.738329 
L 526.532616 307.567315 
L 526.878663 308.719561 
L 527.224709 309.389666 
L 527.570756 308.951056 
L 527.916802 309.408792 
L 528.262849 307.913586 
L 528.608895 308.720167 
L 528.954942 308.719805 
L 529.300988 308.050157 
L 529.647035 309.966811 
L 529.993081 308.615766 
L 530.685174 310.091306 
L 531.031221 308.710781 
L 531.377267 309.410831 
L 531.723314 307.438578 
L 532.06936 307.394915 
L 532.761453 308.268014 
L 533.1075 307.82806 
L 533.453547 310.27842 
L 533.799593 308.30172 
L 534.14564 309.050609 
L 534.491686 308.937732 
L 534.837733 308.478048 
L 535.183779 309.387476 
L 535.529826 308.502427 
L 535.875872 309.611333 
L 536.221919 310.020915 
L 536.567965 308.472886 
L 536.914012 308.4982 
L 537.260058 307.177434 
L 537.606105 309.389694 
L 537.952151 309.83419 
L 538.298198 308.053955 
L 538.644244 307.615573 
L 538.990291 309.065516 
L 539.336337 308.293538 
L 539.682384 306.732804 
L 540.02843 309.160182 
L 540.374477 308.723902 
L 541.06657 308.948401 
L 541.412616 308.127469 
L 542.104709 308.952436 
L 542.450756 306.689455 
L 542.796802 308.064839 
L 543.142849 308.161022 
L 543.488895 309.158521 
L 543.834942 309.172287 
L 544.180988 307.130131 
L 544.527035 308.931249 
L 544.873081 308.72556 
L 545.219128 309.686495 
L 545.565174 309.825872 
L 545.911221 307.172616 
L 546.257267 308.539399 
L 546.603314 309.394422 
L 546.94936 306.214641 
L 547.295407 267.728354 
L 547.641453 291.113013 
L 547.9875 303.380557 
L 548.333547 306.847653 
L 548.679593 308.225483 
L 549.02564 308.156736 
L 549.371686 307.839789 
L 549.717733 309.049079 
L 550.063779 309.272463 
L 550.409826 308.086514 
L 550.755872 308.352785 
L 551.101919 309.303226 
L 551.447965 308.559625 
L 551.794012 308.396478 
L 552.140058 308.997275 
L 552.486105 307.522438 
L 552.832151 308.924426 
L 553.178198 309.805964 
L 553.524244 307.379256 
L 553.870291 309.597677 
L 554.216337 309.09671 
L 554.562384 308.93958 
L 554.90843 308.990141 
L 555.254477 309.601578 
L 555.600523 309.911501 
L 555.94657 309.089323 
L 556.292616 308.789989 
L 556.638663 309.660579 
L 556.984709 308.971261 
L 557.330756 309.822319 
L 557.676802 308.493219 
L 558.022849 309.821729 
L 558.368895 307.151474 
L 558.714942 308.939466 
L 559.060988 309.429333 
L 559.407035 308.784651 
L 560.099128 309.397088 
L 560.445174 308.961852 
L 560.791221 307.133643 
L 561.137267 308.729921 
L 561.483314 309.365907 
L 561.82936 308.270732 
L 562.175407 309.792354 
L 562.521453 309.818902 
L 562.8675 308.046608 
L 562.8675 308.046608 
" clip-path="url(#p17703f4863)" style="fill: none; stroke: #ffa500; stroke-width: 1.5; stroke-linecap: square"/>
   </g>
   <g id="line2d_20">
    <path d="M 205.7475 120.955002 
L 206.093547 132.213917 
L 206.439593 138.675804 
L 207.131686 144.995608 
L 207.477733 146.208842 
L 207.823779 146.531537 
L 208.515872 149.557033 
L 208.861919 149.06113 
L 209.207965 149.518004 
L 209.554012 149.085352 
L 209.900058 150.28391 
L 210.246105 149.824107 
L 210.592151 151.11847 
L 210.938198 150.356373 
L 211.284244 150.948844 
L 211.976337 151.59721 
L 212.322384 151.104044 
L 212.66843 151.295392 
L 213.014477 151.138681 
L 213.360523 150.485899 
L 213.70657 150.100667 
L 214.052616 150.407746 
L 214.398663 149.322597 
L 214.744709 149.23979 
L 215.090756 146.879478 
L 215.436802 148.553478 
L 215.782849 148.438593 
L 216.128895 147.710312 
L 216.474942 148.172127 
L 216.820988 147.2634 
L 217.167035 147.064875 
L 217.513081 145.180553 
L 217.859128 145.246518 
L 218.205174 146.059986 
L 218.551221 144.450594 
L 218.897267 144.886436 
L 219.243314 144.717679 
L 219.58936 144.201482 
L 219.935407 143.977782 
L 220.281453 142.431378 
L 220.6275 142.640486 
L 220.973547 141.890756 
L 221.319593 141.648333 
L 221.66564 139.221437 
L 222.011686 140.961748 
L 222.357733 140.511039 
L 222.703779 138.452009 
L 223.049826 139.357152 
L 223.741919 138.581939 
L 224.087965 137.594405 
L 224.434012 135.463816 
L 224.780058 137.90903 
L 225.126105 137.433897 
L 225.472151 135.624134 
L 225.818198 134.972268 
L 226.510291 135.422513 
L 226.856337 135.135062 
L 227.202384 132.97224 
L 227.54843 133.912211 
L 228.58657 132.580331 
L 228.932616 131.92968 
L 229.278663 131.524511 
L 229.970756 131.28986 
L 230.316802 129.484561 
L 230.662849 129.744719 
L 231.008895 129.100816 
L 231.354942 129.816242 
L 231.700988 129.681551 
L 232.047035 128.736486 
L 232.393081 128.704134 
L 232.739128 128.345707 
L 233.085174 128.312641 
L 233.431221 127.587527 
L 233.777267 127.418044 
L 234.815407 125.873961 
L 235.161453 126.023103 
L 235.5075 124.994421 
L 235.853547 125.777145 
L 236.199593 124.864157 
L 236.54564 123.47318 
L 236.891686 124.957915 
L 237.929826 122.269135 
L 238.275872 122.543553 
L 238.621919 123.237387 
L 238.967965 122.875544 
L 239.314012 122.002466 
L 239.660058 120.781139 
L 240.006105 121.749688 
L 240.352151 121.98591 
L 240.698198 120.446684 
L 241.044244 121.363194 
L 241.736337 120.660362 
L 242.42843 118.831554 
L 242.774477 120.082472 
L 243.120523 118.799095 
L 243.46657 118.38125 
L 243.812616 118.896365 
L 244.158663 118.499361 
L 244.504709 117.799849 
L 244.850756 117.838938 
L 245.196802 117.702473 
L 245.542849 116.8186 
L 245.888895 117.900903 
L 246.234942 116.294118 
L 246.580988 116.722687 
L 246.927035 116.235151 
L 247.273081 116.251125 
L 247.619128 115.978886 
L 247.965174 116.278358 
L 248.657267 114.985769 
L 249.003314 115.703528 
L 249.34936 115.596915 
L 249.695407 114.10749 
L 250.041453 114.974497 
L 251.42564 113.149165 
L 251.771686 113.893229 
L 252.117733 113.467778 
L 252.463779 114.030825 
L 253.155872 112.554171 
L 253.501919 112.679983 
L 254.194012 112.271624 
L 254.540058 112.346052 
L 254.886105 112.189234 
L 255.232151 112.587713 
L 255.578198 111.301349 
L 255.924244 111.888892 
L 256.270291 111.828117 
L 256.616337 111.447443 
L 256.962384 111.806287 
L 257.30843 110.261407 
L 257.654477 111.167967 
L 258.000523 111.686188 
L 258.34657 110.792698 
L 258.692616 110.665529 
L 259.038663 110.696405 
L 259.384709 110.142213 
L 259.730756 110.725852 
L 260.422849 110.028733 
L 260.768895 109.327971 
L 261.114942 109.944676 
L 261.460988 109.338826 
L 261.807035 108.488233 
L 262.153081 108.756592 
L 262.499128 108.592525 
L 263.191221 109.126839 
L 263.537267 107.78871 
L 263.883314 108.492328 
L 264.22936 108.458215 
L 264.575407 108.69515 
L 264.921453 108.203591 
L 265.613547 106.819232 
L 265.959593 107.751454 
L 266.651686 107.972083 
L 266.997733 107.803802 
L 267.343779 107.106826 
L 267.689826 106.858939 
L 268.035872 106.987894 
L 268.381919 107.645543 
L 268.727965 107.081021 
L 269.074012 106.74284 
L 269.420058 106.621885 
L 269.766105 106.66971 
L 270.112151 106.218977 
L 270.458198 105.331438 
L 270.804244 106.032176 
L 271.496337 106.363119 
L 271.842384 105.737845 
L 272.18843 105.804762 
L 272.534477 106.079429 
L 272.880523 105.417852 
L 273.572616 104.990424 
L 273.918663 105.85611 
L 274.264709 105.670071 
L 274.956802 105.094431 
L 275.302849 105.1927 
L 275.648895 104.973523 
L 275.994942 105.340936 
L 276.340988 104.818073 
L 276.687035 104.60818 
L 277.033081 104.800885 
L 277.379128 104.402525 
L 277.725174 104.334489 
L 278.417267 104.867184 
L 278.763314 104.145925 
L 279.10936 104.017162 
L 279.801453 104.205273 
L 280.1475 103.729306 
L 280.493547 104.051751 
L 280.839593 103.657009 
L 281.18564 104.033254 
L 281.531686 103.939127 
L 281.877733 103.163164 
L 282.223779 103.373795 
L 282.569826 103.431285 
L 282.915872 103.748469 
L 283.261919 102.684341 
L 283.607965 103.593996 
L 283.954012 103.287762 
L 284.300058 102.679461 
L 284.646105 102.737665 
L 284.992151 103.148167 
L 285.338198 102.914921 
L 285.684244 102.519179 
L 286.030291 102.773231 
L 286.376337 102.494374 
L 287.06843 102.883926 
L 287.414477 102.332306 
L 288.10657 102.773683 
L 288.452616 101.898404 
L 288.798663 102.318642 
L 289.144709 101.992911 
L 289.836802 101.96663 
L 290.182849 102.160764 
L 290.528895 101.852411 
L 290.874942 101.787518 
L 291.220988 102.25001 
L 291.567035 101.18193 
L 291.913081 101.815132 
L 292.259128 101.743525 
L 292.605174 101.181764 
L 292.951221 101.368137 
L 293.297267 101.209878 
L 293.643314 101.364804 
L 293.98936 100.711487 
L 294.681453 101.347212 
L 295.0275 100.898217 
L 295.373547 101.249752 
L 295.719593 101.024981 
L 296.06564 100.549514 
L 296.411686 101.209688 
L 296.757733 100.757908 
L 297.103779 100.847035 
L 297.449826 100.641737 
L 298.141919 100.585627 
L 298.487965 100.759669 
L 298.834012 100.010297 
L 299.180058 100.48624 
L 299.526105 100.614218 
L 299.872151 99.832232 
L 300.218198 99.796214 
L 300.564244 100.017605 
L 301.602384 100.233616 
L 301.94843 99.95333 
L 302.294477 100.056646 
L 302.640523 99.699183 
L 303.332616 99.825971 
L 303.678663 99.443441 
L 304.024709 99.643431 
L 304.370756 99.194222 
L 304.716802 99.698707 
L 305.062849 99.341339 
L 305.408895 99.211171 
L 305.754942 99.701564 
L 306.100988 99.628743 
L 306.447035 99.359336 
L 306.793081 99.61584 
L 307.139128 99.210052 
L 307.485174 99.087026 
L 307.831221 99.335697 
L 308.177267 99.105499 
L 308.523314 99.375786 
L 308.86936 99.436514 
L 309.561453 98.445135 
L 309.9075 97.894919 
L 310.253547 99.023036 
L 310.94564 99.189508 
L 311.637733 98.048179 
L 311.983779 98.141996 
L 312.329826 98.532215 
L 312.675872 97.912821 
L 313.021919 98.298327 
L 313.367965 98.112787 
L 313.714012 98.392025 
L 314.060058 97.570022 
L 314.406105 97.924819 
L 314.752151 97.912702 
L 315.098198 98.206271 
L 315.444244 98.310229 
L 315.790291 97.63613 
L 316.136337 98.125999 
L 316.82843 97.697358 
L 317.520523 97.805744 
L 317.86657 97.692549 
L 318.212616 97.845499 
L 318.558663 97.652984 
L 318.904709 98.021921 
L 319.250756 97.592613 
L 319.596802 97.349203 
L 319.942849 97.780581 
L 320.288895 97.770964 
L 320.634942 97.046945 
L 320.980988 97.305781 
L 322.019128 97.22082 
L 322.365174 97.091437 
L 323.057267 97.088247 
L 323.403314 96.890305 
L 324.441453 96.971934 
L 324.7875 96.91042 
L 325.133547 96.539364 
L 325.479593 96.724857 
L 325.82564 96.621803 
L 326.171686 96.64268 
L 326.517733 96.937677 
L 326.863779 96.750852 
L 327.209826 97.113005 
L 327.555872 96.268315 
L 327.901919 97.166162 
L 328.247965 96.051376 
L 328.594012 95.921517 
L 328.940058 96.991573 
L 329.286105 96.440572 
L 329.632151 96.131672 
L 329.978198 96.134481 
L 330.324244 96.547911 
L 330.670291 96.263054 
L 331.016337 96.268053 
L 331.70843 95.87243 
L 332.400523 96.114818 
L 333.092616 95.890903 
L 333.438663 95.298576 
L 333.784709 96.224847 
L 334.130756 95.427839 
L 334.476802 96.324234 
L 334.822849 95.768281 
L 335.168895 96.13141 
L 335.514942 95.17024 
L 335.860988 95.759354 
L 336.207035 96.012097 
L 336.553081 95.29879 
L 336.899128 79.376241 
L 337.245174 80.009157 
L 337.591221 89.179595 
L 337.937267 89.106059 
L 338.283314 92.913316 
L 338.975407 94.311911 
L 339.321453 94.1527 
L 339.6675 90.879805 
L 340.013547 94.754454 
L 340.359593 94.496617 
L 340.70564 93.64362 
L 341.397733 94.344429 
L 341.743779 94.110135 
L 342.089826 94.165197 
L 342.435872 94.335549 
L 342.781919 94.064262 
L 343.127965 94.043861 
L 343.474012 94.208785 
L 344.166105 93.977753 
L 344.512151 93.80114 
L 344.858198 94.123371 
L 345.204244 94.221902 
L 345.550291 94.065381 
L 345.896337 94.160436 
L 346.242384 93.997512 
L 346.934477 94.490904 
L 347.280523 94.113111 
L 347.62657 94.316291 
L 347.972616 93.872343 
L 348.318663 94.068333 
L 349.702849 94.136917 
L 350.048895 94.383232 
L 350.394942 94.365259 
L 350.740988 94.036029 
L 351.087035 94.358117 
L 351.433081 93.888768 
L 351.779128 93.767932 
L 352.125174 94.242018 
L 352.471221 93.830683 
L 352.817267 93.911503 
L 353.163314 94.284391 
L 353.855407 93.862344 
L 354.201453 94.178695 
L 354.893547 93.821875 
L 355.239593 93.957661 
L 355.58564 94.278369 
L 356.277733 93.77017 
L 357.315872 93.810044 
L 357.661919 93.553802 
L 358.007965 93.988894 
L 358.354012 94.041933 
L 358.700058 93.86682 
L 359.046105 93.853893 
L 359.392151 93.655189 
L 359.738198 94.043147 
L 360.084244 94.027626 
L 360.430291 93.64362 
L 360.776337 94.046837 
L 361.122384 94.164317 
L 361.46843 93.615577 
L 361.814477 93.637978 
L 362.50657 93.21724 
L 362.852616 93.75441 
L 363.198663 93.744388 
L 363.544709 93.926714 
L 363.890756 93.667116 
L 364.236802 93.220716 
L 364.582849 93.437726 
L 364.928895 93.521331 
L 365.274942 93.749459 
L 365.967035 93.858797 
L 366.313081 93.594866 
L 367.005174 93.524711 
L 367.697267 93.7616 
L 368.043314 93.113067 
L 368.38936 93.605602 
L 368.735407 93.461175 
L 369.4275 93.468292 
L 370.119593 93.201909 
L 370.46564 93.483956 
L 371.157733 93.610768 
L 371.503779 93.442059 
L 371.849826 93.079525 
L 372.195872 93.025725 
L 372.541919 93.370357 
L 372.887965 93.315818 
L 373.234012 93.692349 
L 373.580058 93.448581 
L 373.926105 93.345171 
L 374.272151 93.039437 
L 375.310291 93.350717 
L 376.002384 92.962807 
L 376.34843 93.126636 
L 376.694477 92.784123 
L 377.732616 93.336839 
L 378.424709 92.923123 
L 379.116802 93.220668 
L 379.462849 93.101212 
L 379.808895 92.672452 
L 380.500988 93.334053 
L 380.847035 93.400994 
L 381.193081 92.671785 
L 381.539128 92.870537 
L 381.885174 92.812476 
L 382.231221 93.042294 
L 382.577267 92.895676 
L 382.923314 92.444395 
L 383.26936 92.928408 
L 383.615407 92.783885 
L 383.961453 93.080954 
L 384.3075 92.82395 
L 384.653547 92.709993 
L 384.999593 93.100522 
L 385.34564 92.654169 
L 385.691686 92.573564 
L 386.037733 93.118043 
L 386.383779 93.232118 
L 387.767965 92.832758 
L 388.114012 92.578349 
L 388.460058 92.772554 
L 388.806105 92.768221 
L 389.844244 92.478223 
L 390.190291 92.368884 
L 390.536337 92.700614 
L 390.882384 92.8374 
L 391.22843 92.638124 
L 391.574477 93.039508 
L 391.920523 92.677689 
L 392.26657 92.91641 
L 392.612616 92.764269 
L 393.304709 92.640767 
L 393.996802 92.490649 
L 394.342849 92.862205 
L 394.688895 91.940124 
L 395.034942 92.38969 
L 395.380988 92.305633 
L 395.727035 92.361124 
L 396.073081 92.158968 
L 396.419128 92.520263 
L 396.765174 93.0601 
L 397.111221 92.508646 
L 397.457267 92.626055 
L 397.803314 92.237597 
L 398.14936 92.169799 
L 398.841453 92.850255 
L 399.533547 91.928983 
L 399.879593 91.95386 
L 400.22564 92.562328 
L 400.917733 92.048249 
L 401.263779 92.652193 
L 401.609826 92.440468 
L 401.955872 92.470153 
L 402.994012 92.175227 
L 403.340058 92.275353 
L 403.686105 92.078053 
L 404.378198 92.464868 
L 405.070291 92.251595 
L 406.10843 92.10831 
L 406.454477 91.534955 
L 406.800523 91.70933 
L 407.492616 91.846188 
L 407.838663 92.381716 
L 408.184709 91.753251 
L 408.530756 91.772319 
L 408.876802 91.381243 
L 409.222849 91.265239 
L 409.914942 91.690072 
L 410.260988 92.016992 
L 410.607035 91.944909 
L 410.953081 91.454921 
L 411.991221 91.753085 
L 412.337267 91.768249 
L 412.683314 92.411258 
L 413.02936 91.645984 
L 413.375407 91.598801 
L 413.721453 91.104457 
L 414.0675 91.840332 
L 414.413547 91.994377 
L 415.10564 91.578448 
L 415.451686 91.401359 
L 415.797733 91.398764 
L 416.143779 91.942314 
L 416.489826 91.597492 
L 416.835872 91.441447 
L 417.181919 91.70076 
L 417.527965 91.53386 
L 417.874012 91.504365 
L 418.220058 91.046372 
L 418.566105 91.258193 
L 418.912151 90.863927 
L 419.604244 91.401621 
L 419.950291 90.887423 
L 420.642384 91.603539 
L 421.334477 90.665556 
L 422.02657 90.837407 
L 422.372616 90.639013 
L 422.718663 91.000737 
L 423.064709 91.119526 
L 423.410756 91.459325 
L 423.756802 91.371007 
L 424.102849 91.461301 
L 424.448895 91.165137 
L 424.794942 91.227055 
L 425.487035 90.808769 
L 425.833081 90.302165 
L 426.525174 91.176707 
L 426.871221 90.963124 
L 427.217267 91.060988 
L 427.563314 91.019353 
L 428.255407 90.469541 
L 428.9475 90.841073 
L 429.293547 90.869664 
L 429.98564 91.501627 
L 430.677733 90.72864 
L 431.023779 90.601828 
L 431.369826 90.129171 
L 431.715872 90.667222 
L 432.061919 90.767419 
L 432.407965 90.597615 
L 432.754012 90.684338 
L 433.446105 90.533721 
L 433.792151 89.386654 
L 434.830291 90.441665 
L 435.176337 90.402958 
L 435.522384 90.578737 
L 435.86843 91.105576 
L 436.214477 90.123029 
L 436.90657 90.257578 
L 437.252616 90.359203 
L 437.944709 90.153524 
L 438.290756 89.531606 
L 438.636802 89.762971 
L 439.674942 89.91535 
L 440.020988 90.546028 
L 440.367035 90.42243 
L 440.713081 89.785515 
L 441.405174 90.173854 
L 441.751221 90.287215 
L 442.097267 89.682675 
L 442.443314 89.520536 
L 442.78936 91.105838 
L 443.135407 88.798564 
L 443.481453 90.189422 
L 443.8275 89.887331 
L 444.173547 88.903689 
L 444.86564 90.018237 
L 445.211686 89.951106 
L 445.557733 89.439812 
L 445.903779 89.830436 
L 446.249826 88.817275 
L 446.595872 89.625804 
L 446.941919 89.50223 
L 447.287965 88.553035 
L 447.634012 89.638731 
L 447.980058 89.739618 
L 448.326105 89.7036 
L 448.672151 90.229749 
L 449.018198 89.863288 
L 449.364244 89.196354 
L 449.710291 89.317143 
L 450.056337 89.908923 
L 450.402384 90.130552 
L 450.74843 89.813034 
L 451.440523 89.468855 
L 451.78657 89.753973 
L 452.132616 89.729049 
L 452.478663 89.529749 
L 452.824709 88.032433 
L 453.170756 89.409865 
L 453.516802 89.610831 
L 453.862849 88.731957 
L 454.208895 89.39501 
L 454.900988 89.123033 
L 455.247035 88.730433 
L 455.593081 89.288052 
L 455.939128 89.555721 
L 456.631221 89.424862 
L 456.977267 89.141958 
L 457.66936 89.407865 
L 458.015407 89.140815 
L 458.361453 89.031025 
L 458.7075 88.789113 
L 459.053547 88.8412 
L 459.399593 88.235398 
L 459.74564 88.606335 
L 460.091686 88.483546 
L 460.783779 89.413817 
L 461.475872 89.950392 
L 461.821919 88.364472 
L 462.167965 53.519289 
L 462.514012 78.753371 
L 462.860058 84.218749 
L 463.206105 82.090374 
L 463.552151 86.936572 
L 463.898198 87.509165 
L 464.244244 86.030036 
L 464.590291 85.53193 
L 464.936337 87.527638 
L 465.282384 86.855371 
L 465.974477 87.786689 
L 466.320523 87.82354 
L 466.66657 88.079115 
L 467.358663 88.078092 
L 467.704709 88.324169 
L 468.050756 87.719081 
L 468.396802 87.676398 
L 468.742849 87.933426 
L 470.473081 87.99194 
L 470.819128 87.398231 
L 471.165174 88.323859 
L 471.511221 87.484693 
L 471.857267 87.237973 
L 472.203314 88.121656 
L 472.54936 87.757242 
L 472.895407 88.003723 
L 473.241453 87.805352 
L 473.933547 88.027815 
L 474.279593 87.706441 
L 474.62564 87.86558 
L 474.971686 87.549396 
L 475.663779 88.154245 
L 476.009826 87.693967 
L 476.355872 87.961159 
L 476.701919 87.468434 
L 477.394012 88.291555 
L 477.740058 87.708036 
L 478.086105 88.289294 
L 478.432151 87.898241 
L 478.778198 88.031528 
L 479.124244 87.812946 
L 479.470291 87.975681 
L 479.816337 88.288223 
L 480.162384 87.807662 
L 480.50843 87.644332 
L 481.200523 87.90824 
L 481.54657 87.857129 
L 482.584709 88.122108 
L 483.276802 87.765812 
L 483.622849 88.150508 
L 483.968895 87.460983 
L 484.314942 88.165505 
L 485.353081 87.788427 
L 485.699128 88.171933 
L 486.045174 88.119799 
L 486.391221 88.195738 
L 486.737267 87.189291 
L 487.083314 87.463601 
L 487.42936 87.895194 
L 487.775407 87.828587 
L 488.121453 87.414705 
L 488.4675 87.956612 
L 488.813547 87.75817 
L 489.159593 88.046811 
L 489.50564 87.999462 
L 489.851686 87.839561 
L 490.197733 88.156959 
L 490.543779 87.635453 
L 490.889826 87.99563 
L 491.235872 87.716653 
L 491.927965 88.115109 
L 492.274012 87.226665 
L 492.620058 88.011056 
L 492.966105 88.195334 
L 493.312151 87.350811 
L 493.658198 88.045716 
L 494.004244 87.65902 
L 494.350291 87.827706 
L 494.696337 87.321054 
L 495.38843 87.450913 
L 495.734477 87.819683 
L 496.080523 87.939068 
L 497.118663 87.095045 
L 497.464709 87.726461 
L 497.810756 87.283037 
L 498.156802 87.82154 
L 498.502849 88.152698 
L 498.848895 87.646618 
L 499.194942 87.614956 
L 499.540988 87.246495 
L 499.887035 87.759003 
L 500.233081 87.743482 
L 500.579128 86.904625 
L 500.925174 87.50907 
L 501.271221 87.630811 
L 501.617267 87.226261 
L 502.655407 87.212049 
L 503.001453 87.901289 
L 503.3475 87.538469 
L 504.039593 88.139796 
L 504.38564 87.988797 
L 504.731686 87.401588 
L 505.077733 87.409658 
L 505.423779 87.305866 
L 505.769826 88.31179 
L 506.115872 87.301319 
L 506.461919 87.400755 
L 506.807965 87.047767 
L 507.154012 87.732365 
L 507.500058 87.355929 
L 507.846105 86.615365 
L 508.192151 86.517762 
L 508.538198 86.556422 
L 508.884244 87.440962 
L 509.230291 87.350287 
L 509.576337 86.999585 
L 509.922384 87.676613 
L 510.614477 86.916099 
L 510.960523 87.371236 
L 511.30657 86.686734 
L 511.652616 87.427036 
L 511.998663 87.192552 
L 512.344709 87.386495 
L 512.690756 87.754742 
L 513.036802 87.335718 
L 513.382849 87.318745 
L 513.728895 87.611695 
L 514.074942 88.18105 
L 514.420988 87.063931 
L 515.113081 86.980326 
L 515.805174 87.40604 
L 516.151221 87.411491 
L 516.497267 87.70894 
L 516.843314 87.374021 
L 517.535407 87.618384 
L 517.881453 87.044006 
L 518.2275 87.650712 
L 518.573547 87.068359 
L 519.26564 87.059003 
L 519.611686 87.33648 
L 519.957733 87.336456 
L 520.303779 87.950899 
L 520.649826 87.381925 
L 520.995872 87.343717 
L 521.341919 86.755103 
L 521.687965 87.065621 
L 522.380058 87.137681 
L 522.726105 86.705516 
L 523.072151 86.866584 
L 523.418198 87.208145 
L 524.110291 86.839493 
L 524.802384 87.351144 
L 525.14843 87.052838 
L 525.494477 86.96521 
L 526.18657 87.051838 
L 526.532616 87.602792 
L 526.878663 86.870298 
L 527.570756 86.966948 
L 527.916802 87.212263 
L 528.262849 86.813355 
L 528.608895 87.190243 
L 528.954942 86.323272 
L 529.300988 86.197698 
L 529.647035 87.135038 
L 529.993081 86.769838 
L 530.339128 86.204435 
L 530.685174 86.438204 
L 531.031221 87.184958 
L 532.415407 86.693518 
L 533.1075 85.964 
L 533.453547 86.794191 
L 533.799593 86.914576 
L 534.14564 86.328652 
L 534.491686 86.923146 
L 534.837733 86.511906 
L 535.529826 86.929668 
L 535.875872 86.250641 
L 536.221919 86.84604 
L 536.567965 85.50384 
L 536.914012 85.605822 
L 537.260058 86.82133 
L 537.606105 86.395997 
L 538.644244 86.232787 
L 538.990291 86.592178 
L 539.336337 86.693018 
L 539.682384 86.630553 
L 540.02843 86.374096 
L 541.06657 87.187101 
L 541.758663 86.420398 
L 542.104709 86.811022 
L 542.450756 86.70992 
L 542.796802 86.189699 
L 543.142849 86.694518 
L 543.488895 86.601891 
L 544.180988 86.055936 
L 544.527035 87.029985 
L 544.873081 86.947999 
L 545.219128 86.987444 
L 545.565174 87.197147 
L 545.911221 87.703775 
L 546.257267 86.904125 
L 546.603314 85.725278 
L 546.94936 85.444302 
L 547.295407 67.805784 
L 547.641453 78.944743 
L 547.9875 84.131931 
L 548.333547 80.827446 
L 548.679593 85.363173 
L 549.02564 84.695882 
L 549.371686 83.097607 
L 550.063779 85.387693 
L 550.409826 85.160827 
L 550.755872 85.202082 
L 551.101919 85.033658 
L 551.447965 85.46437 
L 551.794012 85.051941 
L 552.140058 85.448135 
L 552.832151 85.136902 
L 553.178198 85.066391 
L 553.524244 85.424258 
L 553.870291 85.113668 
L 554.216337 85.416736 
L 554.562384 85.30604 
L 554.90843 84.796175 
L 555.254477 85.906057 
L 555.600523 85.143925 
L 556.292616 85.312372 
L 556.638663 85.33563 
L 556.984709 85.519099 
L 557.330756 85.254787 
L 557.676802 85.308207 
L 558.022849 85.190084 
L 558.368895 85.301684 
L 558.714942 85.58366 
L 559.060988 85.438994 
L 559.407035 85.131356 
L 559.753081 85.229101 
L 560.099128 85.628247 
L 560.445174 85.069914 
L 561.137267 85.15259 
L 561.483314 85.5435 
L 561.82936 85.527979 
L 562.521453 85.347795 
L 562.8675 85.308754 
L 562.8675 85.308754 
" clip-path="url(#p17703f4863)" style="fill: none; stroke: #008000; stroke-width: 1.5; stroke-linecap: square"/>
   </g>
   <g id="patch_3">
    <path d="M 205.7475 311.6435 
L 205.7475 45.5315 
" style="fill: none; stroke: #000000; stroke-width: 0.8; stroke-linejoin: miter; stroke-linecap: square"/>
   </g>
   <g id="patch_4">
    <path d="M 562.8675 311.6435 
L 562.8675 45.5315 
" style="fill: none; stroke: #000000; stroke-width: 0.8; stroke-linejoin: miter; stroke-linecap: square"/>
   </g>
   <g id="patch_5">
    <path d="M 205.7475 311.6435 
L 562.8675 311.6435 
" style="fill: none; stroke: #000000; stroke-width: 0.8; stroke-linejoin: miter; stroke-linecap: square"/>
   </g>
   <g id="patch_6">
    <path d="M 205.7475 45.5315 
L 562.8675 45.5315 
" style="fill: none; stroke: #000000; stroke-width: 0.8; stroke-linejoin: miter; stroke-linecap: square"/>
   </g>
   <g id="text_12">
    <!-- Loss of the 21_05_25_CINIC10_torch_model_(3072+128-128.1+1)_ct -->
    <g transform="translate(7.2 25.5315) scale(0.264 -0.264)">
     <defs>
      <path id="TimesNewRomanPSMT-68" d="M 1041 4444 
L 1041 2350 
Q 1388 2731 1591 2839 
Q 1794 2947 1997 2947 
Q 2241 2947 2416 2812 
Q 2591 2678 2675 2391 
Q 2734 2191 2734 1659 
L 2734 647 
Q 2734 375 2778 275 
Q 2809 200 2884 156 
Q 2959 113 3159 113 
L 3159 0 
L 1753 0 
L 1753 113 
L 1819 113 
Q 2019 113 2097 173 
Q 2175 234 2206 353 
Q 2216 403 2216 647 
L 2216 1659 
Q 2216 2128 2167 2275 
Q 2119 2422 2012 2495 
Q 1906 2569 1756 2569 
Q 1603 2569 1437 2487 
Q 1272 2406 1041 2159 
L 1041 647 
Q 1041 353 1073 281 
Q 1106 209 1195 161 
Q 1284 113 1503 113 
L 1503 0 
L 84 0 
L 84 113 
Q 275 113 384 172 
Q 447 203 484 290 
Q 522 378 522 647 
L 522 3238 
Q 522 3728 498 3840 
Q 475 3953 426 3993 
Q 378 4034 297 4034 
Q 231 4034 84 3984 
L 41 4094 
L 897 4444 
L 1041 4444 
z
" transform="scale(0.015625)"/>
      <path id="TimesNewRomanPSMT-5f" d="M 3256 -1381 
L -53 -1381 
L -53 -1119 
L 3256 -1119 
L 3256 -1381 
z
" transform="scale(0.015625)"/>
      <path id="TimesNewRomanPSMT-43" d="M 3853 4334 
L 3950 2894 
L 3853 2894 
Q 3659 3541 3300 3825 
Q 2941 4109 2438 4109 
Q 2016 4109 1675 3895 
Q 1334 3681 1139 3212 
Q 944 2744 944 2047 
Q 944 1472 1128 1050 
Q 1313 628 1683 403 
Q 2053 178 2528 178 
Q 2941 178 3256 354 
Q 3572 531 3950 1056 
L 4047 994 
Q 3728 428 3303 165 
Q 2878 -97 2294 -97 
Q 1241 -97 663 684 
Q 231 1266 231 2053 
Q 231 2688 515 3219 
Q 800 3750 1298 4042 
Q 1797 4334 2388 4334 
Q 2847 4334 3294 4109 
Q 3425 4041 3481 4041 
Q 3566 4041 3628 4100 
Q 3709 4184 3744 4334 
L 3853 4334 
z
" transform="scale(0.015625)"/>
      <path id="TimesNewRomanPSMT-49" d="M 1975 116 
L 1975 0 
L 159 0 
L 159 116 
L 309 116 
Q 572 116 691 269 
Q 766 369 766 750 
L 766 3488 
Q 766 3809 725 3913 
Q 694 3991 597 4047 
Q 459 4122 309 4122 
L 159 4122 
L 159 4238 
L 1975 4238 
L 1975 4122 
L 1822 4122 
Q 1563 4122 1444 3969 
Q 1366 3869 1366 3488 
L 1366 750 
Q 1366 428 1406 325 
Q 1438 247 1538 191 
Q 1672 116 1822 116 
L 1975 116 
z
" transform="scale(0.015625)"/>
      <path id="TimesNewRomanPSMT-63" d="M 2631 1088 
Q 2516 522 2178 217 
Q 1841 -88 1431 -88 
Q 944 -88 581 321 
Q 219 731 219 1428 
Q 219 2103 620 2525 
Q 1022 2947 1584 2947 
Q 2006 2947 2278 2723 
Q 2550 2500 2550 2259 
Q 2550 2141 2473 2067 
Q 2397 1994 2259 1994 
Q 2075 1994 1981 2113 
Q 1928 2178 1911 2362 
Q 1894 2547 1784 2644 
Q 1675 2738 1481 2738 
Q 1169 2738 978 2506 
Q 725 2200 725 1697 
Q 725 1184 976 792 
Q 1228 400 1656 400 
Q 1963 400 2206 609 
Q 2378 753 2541 1131 
L 2631 1088 
z
" transform="scale(0.015625)"/>
      <path id="TimesNewRomanPSMT-64" d="M 2222 322 
Q 2013 103 1813 7 
Q 1613 -88 1381 -88 
Q 913 -88 563 304 
Q 213 697 213 1313 
Q 213 1928 600 2439 
Q 988 2950 1597 2950 
Q 1975 2950 2222 2709 
L 2222 3238 
Q 2222 3728 2198 3840 
Q 2175 3953 2125 3993 
Q 2075 4034 2000 4034 
Q 1919 4034 1784 3984 
L 1744 4094 
L 2597 4444 
L 2738 4444 
L 2738 1134 
Q 2738 631 2761 520 
Q 2784 409 2836 365 
Q 2888 322 2956 322 
Q 3041 322 3181 375 
L 3216 266 
L 2366 -88 
L 2222 -88 
L 2222 322 
z
M 2222 541 
L 2222 2016 
Q 2203 2228 2109 2403 
Q 2016 2578 1861 2667 
Q 1706 2756 1559 2756 
Q 1284 2756 1069 2509 
Q 784 2184 784 1559 
Q 784 928 1059 592 
Q 1334 256 1672 256 
Q 1956 256 2222 541 
z
" transform="scale(0.015625)"/>
      <path id="TimesNewRomanPSMT-6c" d="M 1184 4444 
L 1184 647 
Q 1184 378 1223 290 
Q 1263 203 1344 158 
Q 1425 113 1647 113 
L 1647 0 
L 244 0 
L 244 113 
Q 441 113 512 153 
Q 584 194 625 287 
Q 666 381 666 647 
L 666 3247 
Q 666 3731 644 3842 
Q 622 3953 573 3993 
Q 525 4034 450 4034 
Q 369 4034 244 3984 
L 191 4094 
L 1044 4444 
L 1184 4444 
z
" transform="scale(0.015625)"/>
      <path id="TimesNewRomanPSMT-28" d="M 1988 -1253 
L 1988 -1369 
Q 1516 -1131 1200 -813 
Q 750 -359 506 256 
Q 263 872 263 1534 
Q 263 2503 741 3301 
Q 1219 4100 1988 4444 
L 1988 4313 
Q 1603 4100 1356 3731 
Q 1109 3363 987 2797 
Q 866 2231 866 1616 
Q 866 947 969 400 
Q 1050 -31 1165 -292 
Q 1281 -553 1476 -793 
Q 1672 -1034 1988 -1253 
z
" transform="scale(0.015625)"/>
      <path id="TimesNewRomanPSMT-2b" d="M 1672 441 
L 1672 2000 
L 116 2000 
L 116 2256 
L 1672 2256 
L 1672 3809 
L 1922 3809 
L 1922 2256 
L 3484 2256 
L 3484 2000 
L 1922 2000 
L 1922 441 
L 1672 441 
z
" transform="scale(0.015625)"/>
      <path id="TimesNewRomanPSMT-38" d="M 1228 2134 
Q 725 2547 579 2797 
Q 434 3047 434 3316 
Q 434 3728 753 4026 
Q 1072 4325 1600 4325 
Q 2113 4325 2425 4047 
Q 2738 3769 2738 3413 
Q 2738 3175 2569 2928 
Q 2400 2681 1866 2347 
Q 2416 1922 2594 1678 
Q 2831 1359 2831 1006 
Q 2831 559 2490 242 
Q 2150 -75 1597 -75 
Q 994 -75 656 303 
Q 388 606 388 966 
Q 388 1247 577 1523 
Q 766 1800 1228 2134 
z
M 1719 2469 
Q 2094 2806 2194 3001 
Q 2294 3197 2294 3444 
Q 2294 3772 2109 3958 
Q 1925 4144 1606 4144 
Q 1288 4144 1088 3959 
Q 888 3775 888 3528 
Q 888 3366 970 3203 
Q 1053 3041 1206 2894 
L 1719 2469 
z
M 1375 2016 
Q 1116 1797 991 1539 
Q 866 1281 866 981 
Q 866 578 1086 336 
Q 1306 94 1647 94 
Q 1984 94 2187 284 
Q 2391 475 2391 747 
Q 2391 972 2272 1150 
Q 2050 1481 1375 2016 
z
" transform="scale(0.015625)"/>
      <path id="TimesNewRomanPSMT-2d" d="M 259 1672 
L 1875 1672 
L 1875 1200 
L 259 1200 
L 259 1672 
z
" transform="scale(0.015625)"/>
      <path id="TimesNewRomanPSMT-29" d="M 144 4313 
L 144 4444 
Q 619 4209 934 3891 
Q 1381 3434 1625 2820 
Q 1869 2206 1869 1541 
Q 1869 572 1392 -226 
Q 916 -1025 144 -1369 
L 144 -1253 
Q 528 -1038 776 -670 
Q 1025 -303 1145 264 
Q 1266 831 1266 1447 
Q 1266 2113 1163 2663 
Q 1084 3094 967 3353 
Q 850 3613 656 3853 
Q 463 4094 144 4313 
z
" transform="scale(0.015625)"/>
     </defs>
     <use xlink:href="#TimesNewRomanPSMT-4c"/>
     <use xlink:href="#TimesNewRomanPSMT-6f" transform="translate(61.083984 0)"/>
     <use xlink:href="#TimesNewRomanPSMT-73" transform="translate(111.083984 0)"/>
     <use xlink:href="#TimesNewRomanPSMT-73" transform="translate(150 0)"/>
     <use xlink:href="#TimesNewRomanPSMT-20" transform="translate(188.916016 0)"/>
     <use xlink:href="#TimesNewRomanPSMT-6f" transform="translate(213.916016 0)"/>
     <use xlink:href="#TimesNewRomanPSMT-66" transform="translate(263.916016 0)"/>
     <use xlink:href="#TimesNewRomanPSMT-20" transform="translate(297.216797 0)"/>
     <use xlink:href="#TimesNewRomanPSMT-74" transform="translate(322.216797 0)"/>
     <use xlink:href="#TimesNewRomanPSMT-68" transform="translate(350 0)"/>
     <use xlink:href="#TimesNewRomanPSMT-65" transform="translate(400 0)"/>
     <use xlink:href="#TimesNewRomanPSMT-20" transform="translate(444.384766 0)"/>
     <use xlink:href="#TimesNewRomanPSMT-32" transform="translate(469.384766 0)"/>
     <use xlink:href="#TimesNewRomanPSMT-31" transform="translate(519.384766 0)"/>
     <use xlink:href="#TimesNewRomanPSMT-5f" transform="translate(569.384766 0)"/>
     <use xlink:href="#TimesNewRomanPSMT-30" transform="translate(619.384766 0)"/>
     <use xlink:href="#TimesNewRomanPSMT-35" transform="translate(669.384766 0)"/>
     <use xlink:href="#TimesNewRomanPSMT-5f" transform="translate(719.384766 0)"/>
     <use xlink:href="#TimesNewRomanPSMT-32" transform="translate(769.384766 0)"/>
     <use xlink:href="#TimesNewRomanPSMT-35" transform="translate(819.384766 0)"/>
     <use xlink:href="#TimesNewRomanPSMT-5f" transform="translate(869.384766 0)"/>
     <use xlink:href="#TimesNewRomanPSMT-43" transform="translate(919.384766 0)"/>
     <use xlink:href="#TimesNewRomanPSMT-49" transform="translate(986.083984 0)"/>
     <use xlink:href="#TimesNewRomanPSMT-4e" transform="translate(1019.384766 0)"/>
     <use xlink:href="#TimesNewRomanPSMT-49" transform="translate(1091.601562 0)"/>
     <use xlink:href="#TimesNewRomanPSMT-43" transform="translate(1124.902344 0)"/>
     <use xlink:href="#TimesNewRomanPSMT-31" transform="translate(1191.601562 0)"/>
     <use xlink:href="#TimesNewRomanPSMT-30" transform="translate(1241.601562 0)"/>
     <use xlink:href="#TimesNewRomanPSMT-5f" transform="translate(1291.601562 0)"/>
     <use xlink:href="#TimesNewRomanPSMT-74" transform="translate(1341.601562 0)"/>
     <use xlink:href="#TimesNewRomanPSMT-6f" transform="translate(1369.384766 0)"/>
     <use xlink:href="#TimesNewRomanPSMT-72" transform="translate(1419.384766 0)"/>
     <use xlink:href="#TimesNewRomanPSMT-63" transform="translate(1452.685547 0)"/>
     <use xlink:href="#TimesNewRomanPSMT-68" transform="translate(1497.070312 0)"/>
     <use xlink:href="#TimesNewRomanPSMT-5f" transform="translate(1547.070312 0)"/>
     <use xlink:href="#TimesNewRomanPSMT-6d" transform="translate(1597.070312 0)"/>
     <use xlink:href="#TimesNewRomanPSMT-6f" transform="translate(1674.853516 0)"/>
     <use xlink:href="#TimesNewRomanPSMT-64" transform="translate(1724.853516 0)"/>
     <use xlink:href="#TimesNewRomanPSMT-65" transform="translate(1774.853516 0)"/>
     <use xlink:href="#TimesNewRomanPSMT-6c" transform="translate(1819.238281 0)"/>
     <use xlink:href="#TimesNewRomanPSMT-5f" transform="translate(1847.021484 0)"/>
     <use xlink:href="#TimesNewRomanPSMT-28" transform="translate(1897.021484 0)"/>
     <use xlink:href="#TimesNewRomanPSMT-33" transform="translate(1930.322266 0)"/>
     <use xlink:href="#TimesNewRomanPSMT-30" transform="translate(1980.322266 0)"/>
     <use xlink:href="#TimesNewRomanPSMT-37" transform="translate(2030.322266 0)"/>
     <use xlink:href="#TimesNewRomanPSMT-32" transform="translate(2080.322266 0)"/>
     <use xlink:href="#TimesNewRomanPSMT-2b" transform="translate(2130.322266 0)"/>
     <use xlink:href="#TimesNewRomanPSMT-31" transform="translate(2186.71875 0)"/>
     <use xlink:href="#TimesNewRomanPSMT-32" transform="translate(2236.71875 0)"/>
     <use xlink:href="#TimesNewRomanPSMT-38" transform="translate(2286.71875 0)"/>
     <use xlink:href="#TimesNewRomanPSMT-2d" transform="translate(2336.71875 0)"/>
     <use xlink:href="#TimesNewRomanPSMT-31" transform="translate(2370.019531 0)"/>
     <use xlink:href="#TimesNewRomanPSMT-32" transform="translate(2420.019531 0)"/>
     <use xlink:href="#TimesNewRomanPSMT-38" transform="translate(2470.019531 0)"/>
     <use xlink:href="#TimesNewRomanPSMT-2e" transform="translate(2520.019531 0)"/>
     <use xlink:href="#TimesNewRomanPSMT-31" transform="translate(2545.019531 0)"/>
     <use xlink:href="#TimesNewRomanPSMT-2b" transform="translate(2595.019531 0)"/>
     <use xlink:href="#TimesNewRomanPSMT-31" transform="translate(2651.416016 0)"/>
     <use xlink:href="#TimesNewRomanPSMT-29" transform="translate(2701.416016 0)"/>
     <use xlink:href="#TimesNewRomanPSMT-5f" transform="translate(2734.716797 0)"/>
     <use xlink:href="#TimesNewRomanPSMT-63" transform="translate(2784.716797 0)"/>
     <use xlink:href="#TimesNewRomanPSMT-74" transform="translate(2829.101562 0)"/>
    </g>
   </g>
   <g id="legend_1">
    <g id="patch_7">
     <path d="M 346.91 213.014062 
L 547.4675 213.014062 
Q 551.8675 213.014062 551.8675 208.614062 
L 551.8675 148.560937 
Q 551.8675 144.160937 547.4675 144.160937 
L 346.91 144.160937 
Q 342.51 144.160937 342.51 148.560937 
L 342.51 208.614062 
Q 342.51 213.014062 346.91 213.014062 
z
" style="fill: #ffffff; opacity: 0.8; stroke: #cccccc; stroke-linejoin: miter"/>
    </g>
    <g id="line2d_21">
     <path d="M 351.31 160.660937 
L 373.31 160.660937 
L 395.31 160.660937 
" style="fill: none; stroke: #ffa500; stroke-width: 1.5; stroke-linecap: square"/>
    </g>
    <g id="text_13">
     <!-- Training loss -->
     <g transform="translate(412.91 168.360937) scale(0.22 -0.22)">
      <defs>
       <path id="TimesNewRomanPSMT-54" d="M 3703 4238 
L 3750 3244 
L 3631 3244 
Q 3597 3506 3538 3619 
Q 3441 3800 3280 3886 
Q 3119 3972 2856 3972 
L 2259 3972 
L 2259 734 
Q 2259 344 2344 247 
Q 2463 116 2709 116 
L 2856 116 
L 2856 0 
L 1059 0 
L 1059 116 
L 1209 116 
Q 1478 116 1591 278 
Q 1659 378 1659 734 
L 1659 3972 
L 1150 3972 
Q 853 3972 728 3928 
Q 566 3869 450 3700 
Q 334 3531 313 3244 
L 194 3244 
L 244 4238 
L 3703 4238 
z
" transform="scale(0.015625)"/>
       <path id="TimesNewRomanPSMT-67" d="M 966 1044 
Q 703 1172 562 1401 
Q 422 1631 422 1909 
Q 422 2334 742 2640 
Q 1063 2947 1563 2947 
Q 1972 2947 2272 2747 
L 2878 2747 
Q 3013 2747 3034 2739 
Q 3056 2731 3066 2713 
Q 3084 2684 3084 2613 
Q 3084 2531 3069 2500 
Q 3059 2484 3036 2475 
Q 3013 2466 2878 2466 
L 2506 2466 
Q 2681 2241 2681 1891 
Q 2681 1491 2375 1206 
Q 2069 922 1553 922 
Q 1341 922 1119 984 
Q 981 866 932 777 
Q 884 688 884 625 
Q 884 572 936 522 
Q 988 472 1138 450 
Q 1225 438 1575 428 
Q 2219 413 2409 384 
Q 2700 344 2873 169 
Q 3047 -6 3047 -263 
Q 3047 -616 2716 -925 
Q 2228 -1381 1444 -1381 
Q 841 -1381 425 -1109 
Q 191 -953 191 -784 
Q 191 -709 225 -634 
Q 278 -519 444 -313 
Q 466 -284 763 25 
Q 600 122 533 198 
Q 466 275 466 372 
Q 466 481 555 628 
Q 644 775 966 1044 
z
M 1509 2797 
Q 1278 2797 1122 2612 
Q 966 2428 966 2047 
Q 966 1553 1178 1281 
Q 1341 1075 1591 1075 
Q 1828 1075 1981 1253 
Q 2134 1431 2134 1813 
Q 2134 2309 1919 2591 
Q 1759 2797 1509 2797 
z
M 934 0 
Q 788 -159 713 -296 
Q 638 -434 638 -550 
Q 638 -700 819 -813 
Q 1131 -1006 1722 -1006 
Q 2284 -1006 2551 -807 
Q 2819 -609 2819 -384 
Q 2819 -222 2659 -153 
Q 2497 -84 2016 -72 
Q 1313 -53 934 0 
z
" transform="scale(0.015625)"/>
      </defs>
      <use xlink:href="#TimesNewRomanPSMT-54"/>
      <use xlink:href="#TimesNewRomanPSMT-72" transform="translate(57.583984 0)"/>
      <use xlink:href="#TimesNewRomanPSMT-61" transform="translate(90.884766 0)"/>
      <use xlink:href="#TimesNewRomanPSMT-69" transform="translate(135.269531 0)"/>
      <use xlink:href="#TimesNewRomanPSMT-6e" transform="translate(163.052734 0)"/>
      <use xlink:href="#TimesNewRomanPSMT-69" transform="translate(213.052734 0)"/>
      <use xlink:href="#TimesNewRomanPSMT-6e" transform="translate(240.835938 0)"/>
      <use xlink:href="#TimesNewRomanPSMT-67" transform="translate(290.835938 0)"/>
      <use xlink:href="#TimesNewRomanPSMT-20" transform="translate(340.835938 0)"/>
      <use xlink:href="#TimesNewRomanPSMT-6c" transform="translate(365.835938 0)"/>
      <use xlink:href="#TimesNewRomanPSMT-6f" transform="translate(393.619141 0)"/>
      <use xlink:href="#TimesNewRomanPSMT-73" transform="translate(443.619141 0)"/>
      <use xlink:href="#TimesNewRomanPSMT-73" transform="translate(482.535156 0)"/>
     </g>
    </g>
    <g id="line2d_22">
     <path d="M 351.31 191.808125 
L 373.31 191.808125 
L 395.31 191.808125 
" style="fill: none; stroke: #008000; stroke-width: 1.5; stroke-linecap: square"/>
    </g>
    <g id="text_14">
     <!-- Validation loss -->
     <g transform="translate(412.91 199.508125) scale(0.22 -0.22)">
      <defs>
       <path id="TimesNewRomanPSMT-56" d="M 4544 4238 
L 4544 4122 
Q 4319 4081 4203 3978 
Q 4038 3825 3909 3509 
L 2431 -97 
L 2316 -97 
L 728 3556 
Q 606 3838 556 3900 
Q 478 3997 364 4051 
Q 250 4106 56 4122 
L 56 4238 
L 1788 4238 
L 1788 4122 
Q 1494 4094 1406 4022 
Q 1319 3950 1319 3838 
Q 1319 3681 1463 3350 
L 2541 866 
L 3541 3319 
Q 3688 3681 3688 3822 
Q 3688 3913 3597 3995 
Q 3506 4078 3291 4113 
Q 3275 4116 3238 4122 
L 3238 4238 
L 4544 4238 
z
" transform="scale(0.015625)"/>
      </defs>
      <use xlink:href="#TimesNewRomanPSMT-56"/>
      <use xlink:href="#TimesNewRomanPSMT-61" transform="translate(61.091797 0)"/>
      <use xlink:href="#TimesNewRomanPSMT-6c" transform="translate(105.476562 0)"/>
      <use xlink:href="#TimesNewRomanPSMT-69" transform="translate(133.259766 0)"/>
      <use xlink:href="#TimesNewRomanPSMT-64" transform="translate(161.042969 0)"/>
      <use xlink:href="#TimesNewRomanPSMT-61" transform="translate(211.042969 0)"/>
      <use xlink:href="#TimesNewRomanPSMT-74" transform="translate(255.427734 0)"/>
      <use xlink:href="#TimesNewRomanPSMT-69" transform="translate(283.210938 0)"/>
      <use xlink:href="#TimesNewRomanPSMT-6f" transform="translate(310.994141 0)"/>
      <use xlink:href="#TimesNewRomanPSMT-6e" transform="translate(360.994141 0)"/>
      <use xlink:href="#TimesNewRomanPSMT-20" transform="translate(410.994141 0)"/>
      <use xlink:href="#TimesNewRomanPSMT-6c" transform="translate(435.994141 0)"/>
      <use xlink:href="#TimesNewRomanPSMT-6f" transform="translate(463.777344 0)"/>
      <use xlink:href="#TimesNewRomanPSMT-73" transform="translate(513.777344 0)"/>
      <use xlink:href="#TimesNewRomanPSMT-73" transform="translate(552.693359 0)"/>
     </g>
    </g>
   </g>
  </g>
 </g>
 <defs>
  <clipPath id="p17703f4863">
   <rect x="205.7475" y="45.5315" width="357.12" height="266.112"/>
  </clipPath>
 </defs>
</svg>
