<?xml version="1.0" encoding="utf-8" standalone="no"?>
<!DOCTYPE svg PUBLIC "-//W3C//DTD SVG 1.1//EN"
  "http://www.w3.org/Graphics/SVG/1.1/DTD/svg11.dtd">
<svg xmlns:xlink="http://www.w3.org/1999/xlink" width="793.534125pt" height="383.265687pt" viewBox="0 0 793.534125 383.265687" xmlns="http://www.w3.org/2000/svg" version="1.1">
 <metadata>
  <rdf:RDF xmlns:dc="http://purl.org/dc/elements/1.1/" xmlns:cc="http://creativecommons.org/ns#" xmlns:rdf="http://www.w3.org/1999/02/22-rdf-syntax-ns#">
   <cc:Work>
    <dc:type rdf:resource="http://purl.org/dc/dcmitype/StillImage"/>
    <dc:date>2025-07-12T15:37:33.368979</dc:date>
    <dc:format>image/svg+xml</dc:format>
    <dc:creator>
     <cc:Agent>
      <dc:title>Matplotlib v3.10.3, https://matplotlib.org/</dc:title>
     </cc:Agent>
    </dc:creator>
   </cc:Work>
  </rdf:RDF>
 </metadata>
 <defs>
  <style type="text/css">*{stroke-linejoin: round; stroke-linecap: butt}</style>
 </defs>
 <g id="figure_1">
  <g id="patch_1">
   <path d="M 0 383.265687 
L 793.534125 383.265687 
L 793.534125 0 
L 0 0 
z
" style="fill: #ffffff"/>
  </g>
  <g id="axes_1">
   <g id="patch_2">
    <path d="M 218.207063 311.6435 
L 575.327063 311.6435 
L 575.327063 45.5315 
L 218.207063 45.5315 
z
" style="fill: #ffffff"/>
   </g>
   <g id="matplotlib.axis_1">
    <g id="xtick_1">
     <g id="line2d_1">
      <path d="M 218.207063 311.6435 
L 218.207063 45.5315 
" clip-path="url(#p3041f82af4)" style="fill: none; stroke: #b0b0b0; stroke-opacity: 0.3; stroke-width: 0.8; stroke-linecap: square"/>
     </g>
     <g id="line2d_2">
      <defs>
       <path id="m2e24cf3457" d="M 0 0 
L 0 3.5 
" style="stroke: #000000; stroke-width: 0.8"/>
      </defs>
      <g>
       <use xlink:href="#m2e24cf3457" x="218.207063" y="311.6435" style="stroke: #000000; stroke-width: 0.8"/>
      </g>
     </g>
     <g id="text_1">
      <!-- 0.0 -->
      <g transform="translate(204.457063 333.91975) scale(0.22 -0.22)">
       <defs>
        <path id="TimesNewRomanPSMT-30" d="M 231 2094 
Q 231 2819 450 3342 
Q 669 3866 1031 4122 
Q 1313 4325 1613 4325 
Q 2100 4325 2488 3828 
Q 2972 3213 2972 2159 
Q 2972 1422 2759 906 
Q 2547 391 2217 158 
Q 1888 -75 1581 -75 
Q 975 -75 572 641 
Q 231 1244 231 2094 
z
M 844 2016 
Q 844 1141 1059 588 
Q 1238 122 1591 122 
Q 1759 122 1940 273 
Q 2122 425 2216 781 
Q 2359 1319 2359 2297 
Q 2359 3022 2209 3506 
Q 2097 3866 1919 4016 
Q 1791 4119 1609 4119 
Q 1397 4119 1231 3928 
Q 1006 3669 925 3112 
Q 844 2556 844 2016 
z
" transform="scale(0.015625)"/>
        <path id="TimesNewRomanPSMT-2e" d="M 800 606 
Q 947 606 1047 504 
Q 1147 403 1147 259 
Q 1147 116 1045 14 
Q 944 -88 800 -88 
Q 656 -88 554 14 
Q 453 116 453 259 
Q 453 406 554 506 
Q 656 606 800 606 
z
" transform="scale(0.015625)"/>
       </defs>
       <use xlink:href="#TimesNewRomanPSMT-30"/>
       <use xlink:href="#TimesNewRomanPSMT-2e" transform="translate(50 0)"/>
       <use xlink:href="#TimesNewRomanPSMT-30" transform="translate(75 0)"/>
      </g>
     </g>
    </g>
    <g id="xtick_2">
     <g id="line2d_3">
      <path d="M 344.52545 311.6435 
L 344.52545 45.5315 
" clip-path="url(#p3041f82af4)" style="fill: none; stroke: #b0b0b0; stroke-opacity: 0.3; stroke-width: 0.8; stroke-linecap: square"/>
     </g>
     <g id="line2d_4">
      <g>
       <use xlink:href="#m2e24cf3457" x="344.52545" y="311.6435" style="stroke: #000000; stroke-width: 0.8"/>
      </g>
     </g>
     <g id="text_2">
      <!-- 0.5 -->
      <g transform="translate(330.77545 333.91975) scale(0.22 -0.22)">
       <defs>
        <path id="TimesNewRomanPSMT-35" d="M 2778 4238 
L 2534 3706 
L 1259 3706 
L 981 3138 
Q 1809 3016 2294 2522 
Q 2709 2097 2709 1522 
Q 2709 1188 2573 903 
Q 2438 619 2231 419 
Q 2025 219 1772 97 
Q 1413 -75 1034 -75 
Q 653 -75 479 54 
Q 306 184 306 341 
Q 306 428 378 495 
Q 450 563 559 563 
Q 641 563 702 538 
Q 763 513 909 409 
Q 1144 247 1384 247 
Q 1750 247 2026 523 
Q 2303 800 2303 1197 
Q 2303 1581 2056 1914 
Q 1809 2247 1375 2428 
Q 1034 2569 447 2591 
L 1259 4238 
L 2778 4238 
z
" transform="scale(0.015625)"/>
       </defs>
       <use xlink:href="#TimesNewRomanPSMT-30"/>
       <use xlink:href="#TimesNewRomanPSMT-2e" transform="translate(50 0)"/>
       <use xlink:href="#TimesNewRomanPSMT-35" transform="translate(75 0)"/>
      </g>
     </g>
    </g>
    <g id="xtick_3">
     <g id="line2d_5">
      <path d="M 470.843837 311.6435 
L 470.843837 45.5315 
" clip-path="url(#p3041f82af4)" style="fill: none; stroke: #b0b0b0; stroke-opacity: 0.3; stroke-width: 0.8; stroke-linecap: square"/>
     </g>
     <g id="line2d_6">
      <g>
       <use xlink:href="#m2e24cf3457" x="470.843837" y="311.6435" style="stroke: #000000; stroke-width: 0.8"/>
      </g>
     </g>
     <g id="text_3">
      <!-- 1.0 -->
      <g transform="translate(457.093837 333.91975) scale(0.22 -0.22)">
       <defs>
        <path id="TimesNewRomanPSMT-31" d="M 750 3822 
L 1781 4325 
L 1884 4325 
L 1884 747 
Q 1884 391 1914 303 
Q 1944 216 2037 169 
Q 2131 122 2419 116 
L 2419 0 
L 825 0 
L 825 116 
Q 1125 122 1212 167 
Q 1300 213 1334 289 
Q 1369 366 1369 747 
L 1369 3034 
Q 1369 3497 1338 3628 
Q 1316 3728 1258 3775 
Q 1200 3822 1119 3822 
Q 1003 3822 797 3725 
L 750 3822 
z
" transform="scale(0.015625)"/>
       </defs>
       <use xlink:href="#TimesNewRomanPSMT-31"/>
       <use xlink:href="#TimesNewRomanPSMT-2e" transform="translate(50 0)"/>
       <use xlink:href="#TimesNewRomanPSMT-30" transform="translate(75 0)"/>
      </g>
     </g>
    </g>
    <g id="text_4">
     <!-- $\kappa  = \frac{ln(n)}{ln(d)}$ -->
     <g transform="translate(364.757063 364.185687) scale(0.22 -0.22)">
      <defs>
       <path id="STIXGeneral-Italic-3ba" d="M 979 1440 
L 998 1446 
Q 1850 2541 2464 2790 
Q 2547 2822 2630 2822 
Q 2797 2822 2886 2736 
Q 2976 2650 2976 2522 
Q 2976 2387 2893 2307 
Q 2810 2227 2682 2227 
Q 2605 2227 2502 2288 
Q 2400 2349 2336 2349 
Q 2170 2349 1990 2205 
Q 1811 2061 1414 1645 
L 2042 544 
Q 2202 262 2310 182 
Q 2419 102 2624 102 
L 2624 0 
Q 2374 -83 2182 -83 
Q 1786 -83 1555 326 
L 960 1350 
L 576 0 
L 90 0 
L 640 1978 
Q 730 2317 730 2406 
Q 730 2560 518 2560 
L 339 2560 
L 339 2650 
Q 678 2694 1306 2822 
L 1325 2803 
L 979 1440 
z
" transform="scale(0.015625)"/>
       <path id="STIXGeneral-Regular-3d" d="M 4077 2048 
L 307 2048 
L 307 2470 
L 4077 2470 
L 4077 2048 
z
M 4077 768 
L 307 768 
L 307 1190 
L 4077 1190 
L 4077 768 
z
" transform="scale(0.015625)"/>
       <path id="STIXGeneral-Italic-6c" d="M 1786 4339 
L 806 595 
Q 755 410 755 320 
Q 755 205 864 205 
Q 1037 205 1293 570 
L 1453 794 
L 1542 730 
Q 1254 275 1046 102 
Q 838 -70 576 -70 
Q 262 -70 262 288 
Q 262 397 288 480 
L 1165 3834 
Q 1184 3898 1184 3955 
Q 1184 4096 870 4096 
L 755 4096 
L 755 4198 
Q 1203 4250 1747 4371 
L 1786 4339 
z
" transform="scale(0.015625)"/>
       <path id="STIXGeneral-Italic-6e" d="M 2944 749 
L 3034 666 
Q 2707 218 2534 80 
Q 2362 -58 2138 -58 
Q 2010 -58 1923 28 
Q 1837 115 1837 288 
Q 1837 390 1939 768 
L 2221 1805 
Q 2310 2150 2310 2310 
Q 2310 2496 2157 2496 
Q 1971 2496 1750 2275 
Q 1530 2054 1210 1587 
Q 998 1274 899 1024 
Q 800 774 570 0 
L 90 0 
L 704 2240 
Q 717 2304 717 2349 
Q 717 2445 630 2480 
Q 544 2515 301 2522 
L 301 2624 
Q 550 2675 857 2729 
Q 1165 2784 1338 2822 
L 1363 2810 
L 934 1414 
Q 1408 2170 1753 2496 
Q 2099 2822 2413 2822 
Q 2611 2822 2720 2716 
Q 2829 2611 2829 2432 
Q 2829 2272 2765 2048 
L 2406 749 
Q 2317 429 2317 358 
Q 2317 243 2419 243 
Q 2541 243 2810 582 
Q 2854 634 2944 749 
z
" transform="scale(0.015625)"/>
       <path id="STIXGeneral-Regular-28" d="M 1946 -1030 
L 1869 -1133 
Q 1126 -710 716 32 
Q 307 774 307 1613 
Q 307 3386 1888 4326 
L 1946 4224 
Q 1293 3667 1075 3126 
Q 858 2586 858 1632 
Q 858 685 1082 96 
Q 1306 -493 1946 -1030 
z
" transform="scale(0.015625)"/>
       <path id="STIXGeneral-Regular-29" d="M 186 4224 
L 262 4326 
Q 992 3891 1408 3148 
Q 1824 2406 1824 1581 
Q 1824 -166 243 -1133 
L 186 -1030 
Q 845 -486 1059 54 
Q 1274 595 1274 1562 
Q 1274 2534 1059 3120 
Q 845 3706 186 4224 
z
" transform="scale(0.015625)"/>
       <path id="STIXGeneral-Italic-64" d="M 3334 4371 
L 3373 4333 
L 3123 3360 
L 2739 1958 
Q 2323 429 2323 384 
Q 2323 256 2438 256 
Q 2522 256 2614 336 
Q 2707 416 2963 710 
L 3040 646 
Q 2547 -83 2099 -83 
Q 1978 -83 1907 -6 
Q 1837 70 1837 205 
Q 1837 397 1920 774 
Q 1645 307 1379 118 
Q 1114 -70 781 -70 
Q 461 -70 278 125 
Q 96 320 96 678 
Q 96 1440 713 2131 
Q 1331 2822 1965 2822 
Q 2163 2822 2256 2732 
Q 2349 2643 2381 2451 
L 2387 2451 
L 2675 3494 
Q 2765 3808 2765 3949 
Q 2765 4051 2694 4076 
Q 2624 4102 2355 4115 
L 2355 4224 
Q 2848 4269 3334 4371 
z
M 2278 2310 
Q 2278 2477 2185 2576 
Q 2093 2675 1978 2675 
Q 1677 2675 1395 2381 
Q 1075 2042 864 1571 
Q 653 1101 653 704 
Q 653 486 752 361 
Q 851 237 1024 237 
Q 1312 237 1606 550 
Q 1901 864 2089 1350 
Q 2278 1837 2278 2310 
z
" transform="scale(0.015625)"/>
      </defs>
      <use xlink:href="#STIXGeneral-Italic-3ba" transform="translate(0 0.003125)"/>
      <use xlink:href="#STIXGeneral-Regular-3d" transform="translate(58.83999 0.003125)"/>
      <use xlink:href="#STIXGeneral-Italic-6c" transform="translate(141.779971 50.192188) scale(0.7)"/>
      <use xlink:href="#STIXGeneral-Italic-6e" transform="translate(161.239963 50.192188) scale(0.7)"/>
      <use xlink:href="#STIXGeneral-Regular-28" transform="translate(196.239952 50.192188) scale(0.7)"/>
      <use xlink:href="#STIXGeneral-Italic-6e" transform="translate(219.549944 50.192188) scale(0.7)"/>
      <use xlink:href="#STIXGeneral-Regular-29" transform="translate(254.549933 50.192188) scale(0.7)"/>
      <use xlink:href="#STIXGeneral-Italic-6c" transform="translate(141.779971 -41.257812) scale(0.7)"/>
      <use xlink:href="#STIXGeneral-Italic-6e" transform="translate(161.239963 -41.257812) scale(0.7)"/>
      <use xlink:href="#STIXGeneral-Regular-28" transform="translate(196.239952 -41.257812) scale(0.7)"/>
      <use xlink:href="#STIXGeneral-Italic-64" transform="translate(219.549944 -41.257812) scale(0.7)"/>
      <use xlink:href="#STIXGeneral-Regular-29" transform="translate(254.549933 -41.257812) scale(0.7)"/>
      <path d="M 141.779971 12.8 
L 141.779971 19.05 
L 277.859924 19.05 
L 277.859924 12.8 
L 141.779971 12.8 
z
"/>
     </g>
    </g>
   </g>
   <g id="matplotlib.axis_2">
    <g id="ytick_1">
     <g id="line2d_7">
      <path d="M 218.207063 311.6435 
L 575.327063 311.6435 
" clip-path="url(#p3041f82af4)" style="fill: none; stroke: #b0b0b0; stroke-opacity: 0.3; stroke-width: 0.8; stroke-linecap: square"/>
     </g>
     <g id="line2d_8">
      <defs>
       <path id="m1c052b7a15" d="M 0 0 
L -3.5 0 
" style="stroke: #000000; stroke-width: 0.8"/>
      </defs>
      <g>
       <use xlink:href="#m1c052b7a15" x="218.207063" y="311.6435" style="stroke: #000000; stroke-width: 0.8"/>
      </g>
     </g>
     <g id="text_5">
      <!-- 0.0 -->
      <g transform="translate(183.707063 319.281625) scale(0.22 -0.22)">
       <use xlink:href="#TimesNewRomanPSMT-30"/>
       <use xlink:href="#TimesNewRomanPSMT-2e" transform="translate(50 0)"/>
       <use xlink:href="#TimesNewRomanPSMT-30" transform="translate(75 0)"/>
      </g>
     </g>
    </g>
    <g id="ytick_2">
     <g id="line2d_9">
      <path d="M 218.207063 257.212513 
L 575.327063 257.212513 
" clip-path="url(#p3041f82af4)" style="fill: none; stroke: #b0b0b0; stroke-opacity: 0.3; stroke-width: 0.8; stroke-linecap: square"/>
     </g>
     <g id="line2d_10">
      <g>
       <use xlink:href="#m1c052b7a15" x="218.207063" y="257.212513" style="stroke: #000000; stroke-width: 0.8"/>
      </g>
     </g>
     <g id="text_6">
      <!-- 0.1 -->
      <g transform="translate(183.707063 264.850638) scale(0.22 -0.22)">
       <use xlink:href="#TimesNewRomanPSMT-30"/>
       <use xlink:href="#TimesNewRomanPSMT-2e" transform="translate(50 0)"/>
       <use xlink:href="#TimesNewRomanPSMT-31" transform="translate(75 0)"/>
      </g>
     </g>
    </g>
    <g id="ytick_3">
     <g id="line2d_11">
      <path d="M 218.207063 202.781526 
L 575.327063 202.781526 
" clip-path="url(#p3041f82af4)" style="fill: none; stroke: #b0b0b0; stroke-opacity: 0.3; stroke-width: 0.8; stroke-linecap: square"/>
     </g>
     <g id="line2d_12">
      <g>
       <use xlink:href="#m1c052b7a15" x="218.207063" y="202.781526" style="stroke: #000000; stroke-width: 0.8"/>
      </g>
     </g>
     <g id="text_7">
      <!-- 0.2 -->
      <g transform="translate(183.707063 210.419651) scale(0.22 -0.22)">
       <defs>
        <path id="TimesNewRomanPSMT-32" d="M 2934 816 
L 2638 0 
L 138 0 
L 138 116 
Q 1241 1122 1691 1759 
Q 2141 2397 2141 2925 
Q 2141 3328 1894 3587 
Q 1647 3847 1303 3847 
Q 991 3847 742 3664 
Q 494 3481 375 3128 
L 259 3128 
Q 338 3706 661 4015 
Q 984 4325 1469 4325 
Q 1984 4325 2329 3994 
Q 2675 3663 2675 3213 
Q 2675 2891 2525 2569 
Q 2294 2063 1775 1497 
Q 997 647 803 472 
L 1909 472 
Q 2247 472 2383 497 
Q 2519 522 2628 598 
Q 2738 675 2819 816 
L 2934 816 
z
" transform="scale(0.015625)"/>
       </defs>
       <use xlink:href="#TimesNewRomanPSMT-30"/>
       <use xlink:href="#TimesNewRomanPSMT-2e" transform="translate(50 0)"/>
       <use xlink:href="#TimesNewRomanPSMT-32" transform="translate(75 0)"/>
      </g>
     </g>
    </g>
    <g id="ytick_4">
     <g id="line2d_13">
      <path d="M 218.207063 148.350539 
L 575.327063 148.350539 
" clip-path="url(#p3041f82af4)" style="fill: none; stroke: #b0b0b0; stroke-opacity: 0.3; stroke-width: 0.8; stroke-linecap: square"/>
     </g>
     <g id="line2d_14">
      <g>
       <use xlink:href="#m1c052b7a15" x="218.207063" y="148.350539" style="stroke: #000000; stroke-width: 0.8"/>
      </g>
     </g>
     <g id="text_8">
      <!-- 0.3 -->
      <g transform="translate(183.707063 155.988664) scale(0.22 -0.22)">
       <defs>
        <path id="TimesNewRomanPSMT-33" d="M 325 3431 
Q 506 3859 782 4092 
Q 1059 4325 1472 4325 
Q 1981 4325 2253 3994 
Q 2459 3747 2459 3466 
Q 2459 3003 1878 2509 
Q 2269 2356 2469 2072 
Q 2669 1788 2669 1403 
Q 2669 853 2319 450 
Q 1863 -75 997 -75 
Q 569 -75 414 31 
Q 259 138 259 259 
Q 259 350 332 419 
Q 406 488 509 488 
Q 588 488 669 463 
Q 722 447 909 348 
Q 1097 250 1169 231 
Q 1284 197 1416 197 
Q 1734 197 1970 444 
Q 2206 691 2206 1028 
Q 2206 1275 2097 1509 
Q 2016 1684 1919 1775 
Q 1784 1900 1550 2001 
Q 1316 2103 1072 2103 
L 972 2103 
L 972 2197 
Q 1219 2228 1467 2375 
Q 1716 2522 1828 2728 
Q 1941 2934 1941 3181 
Q 1941 3503 1739 3701 
Q 1538 3900 1238 3900 
Q 753 3900 428 3381 
L 325 3431 
z
" transform="scale(0.015625)"/>
       </defs>
       <use xlink:href="#TimesNewRomanPSMT-30"/>
       <use xlink:href="#TimesNewRomanPSMT-2e" transform="translate(50 0)"/>
       <use xlink:href="#TimesNewRomanPSMT-33" transform="translate(75 0)"/>
      </g>
     </g>
    </g>
    <g id="ytick_5">
     <g id="line2d_15">
      <path d="M 218.207063 93.919553 
L 575.327063 93.919553 
" clip-path="url(#p3041f82af4)" style="fill: none; stroke: #b0b0b0; stroke-opacity: 0.3; stroke-width: 0.8; stroke-linecap: square"/>
     </g>
     <g id="line2d_16">
      <g>
       <use xlink:href="#m1c052b7a15" x="218.207063" y="93.919553" style="stroke: #000000; stroke-width: 0.8"/>
      </g>
     </g>
     <g id="text_9">
      <!-- 0.4 -->
      <g transform="translate(183.707063 101.557678) scale(0.22 -0.22)">
       <defs>
        <path id="TimesNewRomanPSMT-34" d="M 2978 1563 
L 2978 1119 
L 2409 1119 
L 2409 0 
L 1894 0 
L 1894 1119 
L 100 1119 
L 100 1519 
L 2066 4325 
L 2409 4325 
L 2409 1563 
L 2978 1563 
z
M 1894 1563 
L 1894 3666 
L 406 1563 
L 1894 1563 
z
" transform="scale(0.015625)"/>
       </defs>
       <use xlink:href="#TimesNewRomanPSMT-30"/>
       <use xlink:href="#TimesNewRomanPSMT-2e" transform="translate(50 0)"/>
       <use xlink:href="#TimesNewRomanPSMT-34" transform="translate(75 0)"/>
      </g>
     </g>
    </g>
    <g id="text_10">
     <!-- Loss -->
     <g transform="translate(175.001125 199.368906) rotate(-90) scale(0.22 -0.22)">
      <defs>
       <path id="TimesNewRomanPSMT-4c" d="M 3669 1172 
L 3772 1150 
L 3409 0 
L 128 0 
L 128 116 
L 288 116 
Q 556 116 672 291 
Q 738 391 738 753 
L 738 3488 
Q 738 3884 650 3984 
Q 528 4122 288 4122 
L 128 4122 
L 128 4238 
L 2047 4238 
L 2047 4122 
Q 1709 4125 1573 4059 
Q 1438 3994 1388 3894 
Q 1338 3794 1338 3416 
L 1338 753 
Q 1338 494 1388 397 
Q 1425 331 1503 300 
Q 1581 269 1991 269 
L 2300 269 
Q 2788 269 2984 341 
Q 3181 413 3343 595 
Q 3506 778 3669 1172 
z
" transform="scale(0.015625)"/>
       <path id="TimesNewRomanPSMT-6f" d="M 1600 2947 
Q 2250 2947 2644 2453 
Q 2978 2031 2978 1484 
Q 2978 1100 2793 706 
Q 2609 313 2286 112 
Q 1963 -88 1566 -88 
Q 919 -88 538 428 
Q 216 863 216 1403 
Q 216 1797 411 2186 
Q 606 2575 925 2761 
Q 1244 2947 1600 2947 
z
M 1503 2744 
Q 1338 2744 1170 2645 
Q 1003 2547 900 2300 
Q 797 2053 797 1666 
Q 797 1041 1045 587 
Q 1294 134 1700 134 
Q 2003 134 2200 384 
Q 2397 634 2397 1244 
Q 2397 2006 2069 2444 
Q 1847 2744 1503 2744 
z
" transform="scale(0.015625)"/>
       <path id="TimesNewRomanPSMT-73" d="M 2050 2947 
L 2050 1972 
L 1947 1972 
Q 1828 2431 1642 2597 
Q 1456 2763 1169 2763 
Q 950 2763 815 2647 
Q 681 2531 681 2391 
Q 681 2216 781 2091 
Q 878 1963 1175 1819 
L 1631 1597 
Q 2266 1288 2266 781 
Q 2266 391 1970 151 
Q 1675 -88 1309 -88 
Q 1047 -88 709 6 
Q 606 38 541 38 
Q 469 38 428 -44 
L 325 -44 
L 325 978 
L 428 978 
Q 516 541 762 319 
Q 1009 97 1316 97 
Q 1531 97 1667 223 
Q 1803 350 1803 528 
Q 1803 744 1651 891 
Q 1500 1038 1047 1263 
Q 594 1488 453 1669 
Q 313 1847 313 2119 
Q 313 2472 555 2709 
Q 797 2947 1181 2947 
Q 1350 2947 1591 2875 
Q 1750 2828 1803 2828 
Q 1853 2828 1881 2850 
Q 1909 2872 1947 2947 
L 2050 2947 
z
" transform="scale(0.015625)"/>
      </defs>
      <use xlink:href="#TimesNewRomanPSMT-4c"/>
      <use xlink:href="#TimesNewRomanPSMT-6f" transform="translate(61.083984 0)"/>
      <use xlink:href="#TimesNewRomanPSMT-73" transform="translate(111.083984 0)"/>
      <use xlink:href="#TimesNewRomanPSMT-73" transform="translate(150 0)"/>
     </g>
    </g>
   </g>
   <g id="line2d_17">
    <path d="M 218.207063 175.53247 
L 305.6216 178.404725 
L 329.190515 181.957633 
L 343.385922 184.86646 
L 353.576313 185.731668 
L 361.531259 188.416351 
L 368.057228 188.297884 
L 378.392993 193.141764 
L 382.635916 196.277565 
L 386.436019 199.980483 
L 389.877059 202.229444 
L 395.915283 205.019105 
L 401.093894 209.397715 
L 403.431098 212.685545 
L 405.627419 215.983886 
L 407.698879 215.568797 
L 409.658914 220.35844 
L 411.518903 226.781276 
L 413.288565 227.576001 
L 414.976268 225.206108 
L 416.589268 230.459773 
L 418.1339 230.129004 
L 419.615725 236.201816 
L 421.03965 237.214277 
L 422.410031 239.110715 
L 423.73075 241.208562 
L 425.00528 244.462862 
L 426.236743 245.505897 
L 427.427955 246.368007 
L 428.581464 251.015053 
L 429.699584 230.779786 
L 430.784421 247.871178 
L 431.8379 252.931493 
L 433.857687 251.117315 
L 434.827101 257.836078 
L 435.771398 239.181345 
L 436.691847 247.477421 
L 437.589622 266.164002 
L 438.465814 266.023328 
L 439.321436 265.493049 
L 440.157432 260.549948 
L 440.974682 272.450178 
L 441.774008 270.231739 
L 442.55618 265.633034 
L 443.321919 187.192286 
L 444.071901 252.412058 
L 444.806761 256.522859 
L 445.527097 267.701122 
L 446.233472 272.870381 
L 446.926417 276.214679 
L 447.606433 275.509513 
L 448.273994 280.979245 
L 448.929548 284.644752 
L 449.573519 281.618499 
L 450.20631 277.292817 
L 450.828301 261.128884 
L 451.439856 270.813559 
L 452.041319 282.776295 
L 452.633017 281.949479 
L 453.215263 284.749731 
L 453.788353 283.563209 
L 454.352572 284.947837 
L 454.90819 288.198312 
L 455.455465 287.427623 
L 455.994643 290.39826 
L 456.525962 292.431332 
L 457.565913 293.640751 
L 458.577012 294.114104 
L 459.072235 287.908303 
L 459.560819 294.360552 
L 460.042939 295.192298 
L 460.518766 296.694454 
L 460.988461 290.582531 
L 461.45218 293.719807 
L 461.910073 280.398818 
L 462.362285 231.356224 
L 462.808954 289.608941 
L 463.250216 287.335121 
L 463.6862 296.95607 
L 464.11703 298.049784 
L 464.542827 292.671579 
L 464.963707 297.749772 
L 465.379783 278.391839 
L 465.791162 293.662129 
L 466.197949 293.817677 
L 466.998153 300.07856 
L 467.391761 300.876069 
L 467.781165 301.068025 
L 468.166452 298.6623 
L 468.547708 301.827144 
L 468.925018 303.768833 
L 469.298462 301.004888 
L 469.668118 299.832495 
L 470.034063 302.638154 
L 470.39637 288.840391 
L 470.755111 304.272727 
L 471.110356 304.916661 
L 471.462171 303.205666 
L 471.810623 306.178214 
L 472.155775 303.569659 
L 472.49769 305.479347 
L 472.836426 305.349388 
L 473.172044 304.278348 
L 473.504599 305.620509 
L 473.834147 306.399127 
L 474.160743 306.507291 
L 474.484438 306.444246 
L 474.805283 306.60772 
L 475.123329 215.246894 
L 475.438623 294.014476 
L 475.751213 275.083852 
L 476.061145 297.787769 
L 476.673213 305.100203 
L 477.275173 307.008661 
L 477.572465 307.135416 
L 477.867351 306.949489 
L 478.159871 307.783349 
L 478.737961 307.335381 
L 479.307025 308.020092 
L 479.588259 307.9965 
L 479.86734 308.60068 
L 480.1443 308.497136 
L 480.419172 308.187553 
L 480.691986 308.680864 
L 481.231564 308.17144 
L 481.498386 307.432388 
L 481.76327 308.035929 
L 482.026242 309.117632 
L 482.28733 309.309488 
L 482.546562 308.79614 
L 482.803963 309.421797 
L 483.313374 309.107661 
L 483.565434 309.614686 
L 483.815764 309.34719 
L 484.064385 308.085827 
L 484.800234 309.624805 
L 485.042252 309.46075 
L 485.282674 309.68267 
L 485.52152 308.743689 
L 485.758811 309.743191 
L 485.994567 309.440511 
L 486.228808 309.906873 
L 486.922633 309.588467 
L 487.377951 310.016152 
L 487.603495 309.879813 
L 487.827652 310.195493 
L 488.050439 310.146158 
L 488.271872 309.94855 
L 488.491968 309.932499 
L 488.710743 309.508535 
L 488.928213 303.67416 
L 489.144392 71.696975 
L 489.359297 70.602399 
L 489.572943 73.634251 
L 489.996513 98.136526 
L 490.206466 135.664224 
L 490.622779 256.122382 
L 490.829166 286.44163 
L 491.03439 291.722158 
L 491.441405 306.105268 
L 491.643221 308.120782 
L 491.843925 304.916079 
L 492.04353 304.955956 
L 492.242048 177.641696 
L 492.43949 251.478977 
L 492.831195 302.790198 
L 493.02548 297.82318 
L 493.218735 289.377688 
L 493.410971 294.36101 
L 493.602198 305.543166 
L 493.981668 309.211612 
L 494.169932 309.472602 
L 494.357228 309.247105 
L 494.728958 309.54638 
L 494.913411 310.051976 
L 495.096935 309.736333 
L 495.279539 309.723123 
L 495.461234 310.187868 
L 495.642027 309.908152 
L 495.821927 310.305349 
L 496.000944 310.135917 
L 496.179086 310.524821 
L 496.708347 310.446796 
L 496.883073 310.428255 
L 497.056966 310.248994 
L 497.230032 310.891268 
L 497.402281 310.113681 
L 497.57372 310.620616 
L 497.914197 310.159522 
L 498.08325 310.57407 
L 498.251523 310.107995 
L 498.419022 310.357212 
L 498.751729 310.185194 
L 498.91695 309.468284 
L 499.081426 298.696212 
L 499.245163 218.577395 
L 499.408168 294.91931 
L 499.570447 290.783917 
L 499.732007 305.048495 
L 500.052993 308.574755 
L 500.371177 310.160754 
L 500.686608 310.177422 
L 500.843306 310.42417 
L 500.999332 310.408672 
L 501.154694 310.802665 
L 501.309396 310.198316 
L 501.616845 310.606524 
L 502.224069 310.929859 
L 502.374307 310.322311 
L 502.523929 311.012212 
L 502.821342 310.390006 
L 502.969144 310.869022 
L 503.116348 310.480694 
L 503.262961 311.080331 
L 503.408986 310.591629 
L 503.699292 310.931472 
L 503.843583 310.888115 
L 504.130462 311.221107 
L 504.4151 310.885148 
L 504.697533 310.808686 
L 504.977795 310.722666 
L 505.117121 311.114916 
L 505.394187 310.848439 
L 505.531934 310.520012 
L 505.669162 310.99374 
L 505.805875 310.862044 
L 505.942078 311.153337 
L 506.212966 311.011763 
L 506.347659 310.610002 
L 506.481855 310.909887 
L 506.61556 310.85086 
L 507.145526 311.222322 
L 507.407647 310.494438 
L 507.538004 311.097581 
L 507.667897 311.084219 
L 507.797328 311.419934 
L 507.926301 311.377543 
L 508.054819 310.648364 
L 508.182886 311.403685 
L 508.310505 310.671242 
L 508.437678 310.983829 
L 508.564409 310.660299 
L 508.690701 310.842535 
L 508.816556 311.286838 
L 508.941979 310.362553 
L 509.066972 311.143818 
L 509.191537 310.934148 
L 509.439398 311.152933 
L 509.562699 310.841431 
L 509.685584 311.29384 
L 509.808057 310.987146 
L 509.930119 310.993167 
L 510.173025 311.447534 
L 510.293873 311.292255 
L 510.414322 310.982123 
L 510.534374 310.994055 
L 510.654032 311.304248 
L 510.892176 311.159215 
L 511.010666 311.322155 
L 511.246499 310.860503 
L 511.363845 311.331441 
L 511.480815 311.048921 
L 511.713635 311.167611 
L 511.944977 311.179085 
L 512.060099 311.48051 
L 512.17486 310.868576 
L 512.28926 311.049013 
L 512.403302 310.890904 
L 512.516988 311.048236 
L 512.743302 310.897012 
L 512.855934 310.892375 
L 512.96822 311.206667 
L 513.08016 310.878185 
L 513.191758 311.35277 
L 513.413933 310.91392 
L 513.634763 311.202505 
L 513.744678 311.060488 
L 513.854262 311.205817 
L 514.072448 310.916633 
L 514.289335 311.377617 
L 514.504939 311.061812 
L 514.719276 311.352945 
L 514.825973 311.21788 
L 514.932359 311.371405 
L 515.144204 311.05493 
L 515.249666 311.390205 
L 515.354824 310.922446 
L 515.45968 311.235607 
L 515.564235 310.916415 
L 515.66849 311.240413 
L 515.772449 310.921478 
L 515.876112 311.214417 
L 515.97948 310.777848 
L 516.082557 311.24116 
L 516.185342 311.075982 
L 516.390048 311.222454 
L 516.491972 311.25025 
L 516.593611 310.927081 
L 516.796043 311.397672 
L 517.097598 310.788618 
L 517.49583 311.396775 
L 517.594712 311.252009 
L 517.791674 311.396655 
L 517.987578 311.243399 
L 518.085136 310.498136 
L 518.279473 311.403029 
L 518.376254 311.566587 
L 518.569049 311.10319 
L 518.665065 311.255254 
L 518.856342 311.114165 
L 519.046621 311.266303 
L 519.235912 310.649814 
L 519.330189 311.418711 
L 519.424224 311.403022 
L 519.611568 310.967878 
L 519.797955 311.560794 
L 519.890792 310.80949 
L 519.983393 311.420942 
L 520.075759 311.275257 
L 520.167892 311.422519 
L 520.351463 310.958976 
L 520.442902 311.424781 
L 520.534113 310.669633 
L 520.625096 311.424943 
L 520.715852 311.268941 
L 520.806383 311.430325 
L 521.076635 310.816957 
L 521.255696 311.426221 
L 521.344898 310.822952 
L 521.522649 311.279262 
L 521.6112 310.978587 
L 521.787661 311.275691 
L 521.875571 311.122868 
L 522.050759 311.424396 
L 522.225109 310.675738 
L 522.398629 311.437729 
L 522.48508 311.582247 
L 522.571327 310.522519 
L 522.65737 311.430738 
L 522.828849 311.136571 
L 522.914287 311.588578 
L 523.169405 310.985655 
L 523.25405 311.588382 
L 523.338498 311.136657 
L 523.506809 311.287228 
L 523.590674 310.985705 
L 523.757828 311.436741 
L 523.841118 311.280165 
L 523.924219 310.825046 
L 524.089853 311.443778 
L 524.172389 311.595024 
L 524.254738 311.288895 
L 524.336902 311.444648 
L 524.500675 310.992165 
L 524.582287 311.143617 
L 524.826032 311.603007 
L 525.148509 310.998411 
L 525.228685 310.539033 
L 525.388509 311.298478 
L 525.547635 311.295472 
L 525.706069 310.998903 
L 525.785029 311.601384 
L 525.863818 311.14601 
L 525.942437 311.449158 
L 526.020887 311.298951 
L 526.099168 310.696233 
L 526.333009 311.454839 
L 526.410623 311.300174 
L 526.488073 310.844666 
L 526.64248 311.453832 
L 526.872871 310.998042 
L 526.949346 311.457048 
L 527.02566 311.151575 
L 527.101815 311.303285 
L 527.177812 311.607491 
L 527.25365 311.454955 
L 527.32933 310.544592 
L 527.480222 311.457862 
L 527.705394 311.003504 
L 527.780144 311.004694 
L 527.929184 311.303347 
L 528.003476 311.306911 
L 528.077618 311.460247 
L 528.225449 311.158723 
L 528.29914 311.15562 
L 528.372683 311.307587 
L 528.446078 311.008474 
L 528.519325 311.610526 
L 528.592425 311.459427 
L 528.738188 311.459096 
L 528.810851 310.85692 
L 528.883369 311.305965 
L 528.955744 310.553923 
L 529.172009 311.311348 
L 529.243813 311.465142 
L 529.315476 311.00904 
L 529.386998 311.463993 
L 529.458381 311.161631 
L 529.529623 311.464443 
L 529.74252 310.707129 
L 529.81321 311.463152 
L 529.883763 311.312951 
L 529.95418 311.465296 
L 530.164618 311.010019 
L 530.234495 311.464192 
L 530.304238 310.859725 
L 530.373848 311.31386 
L 530.443326 310.55975 
L 530.512671 311.468908 
L 530.581884 310.862063 
L 530.650967 311.616039 
L 530.719918 311.164632 
L 530.78874 311.618515 
L 530.925994 310.860609 
L 531.13091 311.468335 
L 531.266884 311.016739 
L 531.53732 311.620206 
L 531.604617 311.016403 
L 531.671789 311.318035 
L 531.738838 310.86491 
L 531.805764 311.014156 
L 531.872567 311.467743 
L 531.939248 310.561759 
L 532.005807 311.015141 
L 532.138562 311.469288 
L 532.204758 311.169173 
L 532.270835 311.469396 
L 532.336792 311.317945 
L 532.40263 311.471727 
L 532.533949 311.168044 
L 532.599432 311.166579 
L 532.664798 311.468745 
L 532.730046 311.318398 
L 532.925094 310.716166 
L 533.119103 311.471266 
L 533.183544 311.472882 
L 533.312085 311.171579 
L 533.376186 311.171472 
L 533.504051 311.020283 
L 533.567815 311.322027 
L 533.631468 310.869744 
L 533.69501 311.169419 
L 533.758442 311.321984 
L 533.884975 311.17064 
L 533.948077 311.474135 
L 534.01107 311.322346 
L 534.073955 311.171888 
L 534.136731 311.323045 
L 534.199399 311.172923 
L 534.324413 311.324563 
L 534.386759 311.01956 
L 534.448999 311.212194 
L 534.511133 57.097106 
L 534.573162 61.024087 
L 534.696902 55.267963 
L 534.758616 62.405105 
L 534.820224 58.148645 
L 534.943131 64.595083 
L 535.065624 57.542699 
L 535.248595 63.84032 
L 535.430652 50.974599 
L 535.611804 63.151546 
L 535.792061 55.82805 
L 535.97143 62.316972 
L 536.031024 63.00195 
L 536.149921 61.097311 
L 536.209225 64.590995 
L 536.268431 57.715055 
L 536.327542 61.575689 
L 536.386558 64.889555 
L 536.445477 59.598962 
L 536.563032 71.129475 
L 536.621668 61.089979 
L 536.680209 63.06137 
L 536.738656 76.677539 
L 536.79701 64.631549 
L 536.855271 64.54671 
L 536.913438 62.854543 
L 536.971513 73.551861 
L 537.087386 57.213594 
L 537.145184 61.86562 
L 537.260507 58.148547 
L 537.375467 67.005708 
L 537.432811 64.896547 
L 537.547228 54.600489 
L 537.604303 68.942384 
L 537.661288 62.470527 
L 537.831711 71.239928 
L 537.944886 63.341583 
L 538.001342 71.241486 
L 538.05771 60.10795 
L 538.113991 66.783487 
L 538.170186 66.285449 
L 538.226294 72.794535 
L 538.282316 60.364691 
L 538.338252 61.094229 
L 538.449866 65.632428 
L 538.505546 63.680098 
L 538.56114 59.800257 
L 538.727417 65.632428 
L 538.782674 59.793541 
L 538.837848 65.716878 
L 538.947946 56.872841 
L 539.057712 64.33513 
L 539.112471 61.318624 
L 539.221744 70.027145 
L 539.330689 60.050266 
L 539.38504 72.233832 
L 539.43931 67.460451 
L 539.4935 66.851164 
L 539.547609 62.221232 
L 539.655586 67.771356 
L 539.709455 53.316833 
L 539.763245 58.668875 
L 539.870586 68.931954 
L 539.924139 64.526919 
L 540.031008 58.997315 
L 540.137565 65.645551 
L 540.190727 65.343844 
L 540.349749 61.949129 
L 540.402603 68.669827 
L 540.45538 65.338426 
L 540.50808 63.826888 
L 540.560705 64.888063 
L 540.613254 70.0136 
L 540.665727 67.282645 
L 540.718124 66.252226 
L 540.770447 69.120515 
L 540.874867 58.842057 
L 540.926965 69.57469 
L 541.082814 54.910486 
L 541.134615 67.762304 
L 541.186344 58.237231 
L 541.237999 56.72511 
L 541.289581 57.783283 
L 541.392526 66.248057 
L 541.495182 60.378658 
L 541.546401 62.470478 
L 541.597549 68.367309 
L 541.648625 63.076018 
L 541.699629 55.969 
L 541.750562 68.067451 
L 541.801424 54.895902 
L 542.004166 71.995957 
L 542.054676 61.563345 
L 542.105116 69.42571 
L 542.155486 63.830895 
L 542.205786 66.854733 
L 542.256017 67.308665 
L 542.356273 59.904498 
L 542.406297 69.872699 
L 542.456253 54.306016 
L 542.50614 57.330017 
L 542.655394 66.250929 
L 542.70501 61.712649 
L 542.853454 75.77266 
L 543.001295 60.192644 
L 543.050443 59.143684 
L 543.197489 70.479812 
L 543.343944 57.632227 
L 543.392632 68.972005 
L 543.489813 68.518463 
L 543.538307 61.412077 
L 543.586736 63.528814 
L 543.635101 67.913588 
L 543.683402 53.247567 
L 543.731639 63.982503 
L 543.779812 64.738466 
L 543.827921 61.10977 
L 543.875967 65.796965 
L 543.97187 67.913929 
L 544.067521 62.773013 
L 544.115253 64.436061 
L 544.162922 63.831414 
L 544.258073 72.90309 
L 544.305556 68.216139 
L 544.447634 60.353774 
L 544.494871 61.714693 
L 544.542047 74.415066 
L 544.589161 71.239896 
L 544.73014 58.388288 
L 544.777012 68.972492 
L 544.870576 65.343309 
L 544.917268 57.935427 
L 544.963901 63.380191 
L 545.010473 67.611443 
L 545.056987 65.19123 
L 545.149835 58.516001 
L 545.196171 61.002074 
L 545.288667 57.780055 
L 545.334826 69.123175 
L 545.380928 67.762321 
L 545.518883 51.581972 
L 545.564753 67.508029 
L 545.656319 63.981821 
L 545.702015 63.678849 
L 545.793237 65.766727 
L 545.838763 62.769752 
L 545.884232 64.282474 
L 545.929644 65.474282 
L 545.975 60.200852 
L 546.020299 64.56916 
L 546.065542 68.039355 
L 546.200935 57.477894 
L 546.245955 70.338132 
L 546.290919 63.105006 
L 546.335827 63.311233 
L 546.51491 72.991596 
L 546.604123 62.397059 
L 546.648647 77.364236 
L 546.693117 72.84852 
L 546.781895 74.279128 
L 546.870458 60.43094 
L 546.914658 76.816169 
L 547.002899 68.660273 
L 547.178742 62.187215 
L 547.353741 113.870567 
L 547.527903 198.529688 
L 547.873751 246.195404 
L 547.916752 222.120693 
L 547.959703 238.482197 
L 548.088251 262.38296 
L 548.131 258.345845 
L 548.386447 282.279347 
L 548.428848 239.724139 
L 548.471199 279.913256 
L 548.513502 280.080915 
L 548.72428 294.063151 
L 548.808252 292.458225 
L 548.89203 300.1855 
L 548.975617 300.496737 
L 549.017338 298.601388 
L 549.059012 263.015748 
L 549.100638 289.018956 
L 549.266668 304.736431 
L 549.308058 304.949653 
L 549.473148 306.104216 
L 549.514304 306.91671 
L 549.555414 305.928822 
L 549.596477 304.875688 
L 549.637494 306.591906 
L 549.801103 308.294076 
L 549.84189 307.097914 
L 549.923329 307.487457 
L 549.96398 308.624073 
L 550.045146 284.127726 
L 550.085662 292.956671 
L 550.247275 307.729604 
L 550.368017 308.957106 
L 550.408175 309.620464 
L 550.48836 309.135329 
L 550.648201 310.048966 
L 550.72786 309.709565 
L 550.767624 309.943376 
L 550.847022 309.722291 
L 550.926248 310.142942 
L 550.965796 309.958856 
L 551.005302 309.969623 
L 551.044764 309.695806 
L 551.084184 310.148589 
L 551.280648 310.617314 
L 551.319814 310.38113 
L 551.358938 310.107168 
L 551.398019 310.399541 
L 551.437059 310.651211 
L 551.476058 310.513804 
L 551.515014 310.33251 
L 551.592803 310.481258 
L 551.670426 310.821227 
L 551.747884 310.788097 
L 551.786551 310.643011 
L 551.863763 248.924019 
L 551.902307 290.468535 
L 552.056079 308.172525 
L 552.209205 310.621592 
L 552.247387 310.352112 
L 552.285528 310.390897 
L 552.399713 310.955243 
L 552.551405 309.127669 
L 552.58923 309.681868 
L 552.627015 305.224071 
L 552.664761 274.495811 
L 552.702468 302.809657 
L 552.852908 310.384637 
L 552.890421 310.314082 
L 553.040089 310.610024 
L 553.114693 310.291087 
L 553.263445 310.877217 
L 553.300538 310.825888 
L 553.337593 310.97489 
L 553.374611 310.436778 
L 553.448534 310.84957 
L 553.706091 311.099748 
L 553.742737 310.967765 
L 553.779346 311.245724 
L 553.888952 310.972508 
L 553.925414 311.118249 
L 553.99823 311.069626 
L 554.0709 311.334645 
L 554.143426 310.858854 
L 554.215808 310.90867 
L 554.324111 311.059195 
L 554.360141 310.880871 
L 554.396135 311.262735 
L 554.432094 311.383849 
L 554.575575 310.75125 
L 554.647105 311.213163 
L 554.682817 311.097028 
L 554.754136 310.834229 
L 554.789744 311.001959 
L 554.825317 311.108524 
L 554.860855 311.085366 
L 554.896358 310.94713 
L 554.931827 311.457814 
L 555.002661 311.283785 
L 555.108655 311.149032 
L 555.179147 311.316895 
L 555.28463 310.855923 
L 555.319723 311.426701 
L 555.354782 311.307335 
L 555.389808 310.700327 
L 555.4248 311.345816 
L 555.459759 311.310351 
L 555.494684 311.183852 
L 555.529575 311.323286 
L 555.599259 311.314988 
L 555.63405 311.046217 
L 555.668809 311.198265 
L 555.703534 311.501562 
L 555.738227 311.216208 
L 555.772886 310.887901 
L 555.807512 311.055187 
L 555.842106 311.365688 
L 555.911195 311.197965 
L 555.980153 311.187298 
L 556.048981 311.368312 
L 556.083346 310.90024 
L 556.151979 311.3135 
L 556.220484 311.221118 
L 556.357108 311.372268 
L 556.391184 311.376878 
L 556.459241 310.932348 
L 556.493221 311.224397 
L 556.52717 311.52775 
L 556.594974 311.23023 
L 556.696443 311.400854 
L 556.730204 310.943581 
L 556.797631 311.236579 
L 556.831298 311.10328 
L 556.864934 311.396961 
L 556.898539 311.250654 
L 557.032649 311.399586 
L 557.0661 310.953583 
L 557.132909 311.24289 
L 557.166268 311.241504 
L 557.199596 310.954822 
L 557.266161 311.256478 
L 557.398928 311.416253 
L 557.531213 310.960291 
L 557.597176 311.420454 
L 557.630113 311.274707 
L 557.728745 310.808148 
L 557.85984 311.579114 
L 557.925211 310.811667 
L 557.957853 311.274514 
L 557.990466 311.580491 
L 558.023049 311.270907 
L 558.088129 311.113883 
L 558.120625 311.280906 
L 558.153092 311.431591 
L 558.185531 311.266627 
L 558.21794 310.818989 
L 558.250321 311.434806 
L 558.282673 311.429158 
L 558.314996 311.593477 
L 558.347291 310.978084 
L 558.411795 311.432912 
L 558.508337 311.135831 
L 558.572556 311.588191 
L 558.636663 311.437829 
L 558.668674 311.137484 
L 558.700657 311.423276 
L 558.732612 311.593413 
L 558.796437 311.430231 
L 558.828309 311.446178 
L 558.860152 310.989308 
L 558.923755 310.994572 
L 559.082279 311.447436 
L 559.208604 311.144504 
L 559.240117 311.604303 
L 559.303061 311.148746 
L 559.334492 310.992038 
L 559.459947 311.601867 
L 559.491243 311.606204 
L 559.647324 311.294005 
L 559.709569 311.449836 
L 559.740652 311.294493 
L 559.833742 311.306558 
L 559.89567 311.146862 
L 559.926595 311.156583 
L 560.050031 311.607986 
L 560.142335 311.159924 
L 560.203742 311.313396 
L 560.326245 311.311363 
L 560.356807 311.160055 
L 560.417853 310.856617 
L 560.448338 311.611772 
L 560.53964 310.861527 
L 560.570024 311.313323 
L 560.600382 311.465851 
L 560.751793 310.860838 
L 560.812182 311.616463 
L 560.842339 311.317712 
L 560.872472 310.862096 
L 560.932661 311.469504 
L 560.992751 311.466429 
L 561.082702 311.163673 
L 561.112636 311.621212 
L 561.202291 311.31968 
L 561.232127 311.609374 
L 561.261939 311.014565 
L 561.291726 311.471331 
L 561.351228 310.862607 
L 561.410633 311.319788 
L 561.469941 311.469932 
L 561.499559 311.168858 
L 561.529152 311.473565 
L 561.558722 310.868919 
L 561.588268 310.868417 
L 561.735639 311.625186 
L 561.823777 310.566883 
L 561.853109 311.31926 
L 561.911702 311.323103 
L 561.970201 311.62603 
L 562.028606 311.472865 
L 562.057773 311.474229 
L 562.203262 311.171037 
L 562.23229 311.172272 
L 562.261295 310.870945 
L 562.319236 311.326239 
L 562.377085 311.172631 
L 562.434843 311.628027 
L 562.463687 311.625789 
L 562.550084 311.022561 
L 562.578837 311.477639 
L 562.607568 311.477276 
L 562.664961 310.872222 
L 562.722265 311.173753 
L 562.808051 311.480021 
L 562.836602 311.023009 
L 562.893636 311.176254 
L 562.92212 311.631072 
L 562.950581 311.025719 
L 563.007438 311.327007 
L 563.035833 311.176842 
L 563.092556 311.327192 
L 563.120885 311.329863 
L 563.177477 311.478971 
L 563.20574 311.026131 
L 563.290397 311.328493 
L 563.402968 310.876111 
L 563.431057 311.027231 
L 563.599136 311.633217 
L 563.766443 310.726072 
L 563.822041 311.632583 
L 563.877556 311.330884 
L 563.905281 311.029372 
L 563.932985 311.633895 
L 563.988331 311.332562 
L 564.015972 311.330638 
L 564.071192 311.482781 
L 564.126328 311.332156 
L 564.153865 311.332313 
L 564.263805 311.02977 
L 564.291238 311.181713 
L 564.373414 311.030327 
L 564.428095 311.483508 
L 564.455405 311.635418 
L 564.482695 311.483246 
L 564.509964 311.17974 
L 564.591648 311.483861 
L 564.618836 311.484251 
L 564.646004 311.182892 
L 564.727384 311.33286 
L 564.781538 311.333808 
L 564.808584 311.182508 
L 564.83561 311.334127 
L 564.889603 310.880846 
L 564.943516 311.636493 
L 565.051103 311.031849 
L 565.07795 311.636631 
L 565.158374 311.485417 
L 565.185142 310.880388 
L 565.265329 311.182999 
L 565.34534 311.031826 
L 565.371972 311.635431 
L 565.398584 311.183466 
L 565.478303 311.637086 
L 565.504838 311.637399 
L 565.610783 311.183482 
L 565.637221 311.637175 
L 565.690041 311.48635 
L 565.716421 311.033407 
L 565.742783 311.63815 
L 565.79545 311.486525 
L 565.900555 311.18467 
L 565.952994 311.638024 
L 566.031511 311.48666 
L 566.135939 311.032316 
L 566.161999 311.487069 
L 566.240068 311.184333 
L 566.292021 311.184849 
L 566.369812 311.487576 
L 566.395706 311.336455 
L 566.421581 311.336511 
L 566.473276 311.487878 
L 566.524899 311.185295 
L 566.653635 311.336628 
L 566.781918 311.185561 
L 566.807521 311.638795 
L 566.88422 311.336859 
L 566.960759 311.487436 
L 566.986237 311.1859 
L 567.062562 311.034375 
L 567.113356 311.639134 
L 567.240035 311.035043 
L 567.315831 311.488587 
L 567.341061 311.186222 
L 567.391469 311.337274 
L 567.441808 310.88396 
L 567.517186 311.488834 
L 567.542278 311.337597 
L 567.617448 311.640297 
L 567.642471 310.732979 
L 567.767326 311.186765 
L 567.792246 311.186623 
L 567.842035 311.640128 
L 567.891756 311.035426 
L 567.941409 310.88416 
L 568.015762 311.640249 
L 568.139347 311.036061 
L 568.262515 311.640606 
L 568.336216 311.035752 
L 568.385268 311.338487 
L 568.409769 311.338259 
L 568.507609 311.641136 
L 568.55643 310.733741 
L 568.62954 311.33863 
L 568.653878 311.338675 
L 568.702504 311.187584 
L 568.751066 311.489864 
L 568.799562 311.187424 
L 568.872187 311.338798 
L 568.896363 311.641325 
L 568.920523 311.187602 
L 568.944667 311.338926 
L 568.968795 310.582794 
L 568.992907 311.64123 
L 569.041083 311.338881 
L 569.065148 311.490021 
L 569.089196 311.036592 
L 569.113229 311.036496 
L 569.233154 311.641411 
L 569.257092 311.187698 
L 569.352687 311.33915 
L 569.376546 311.641334 
L 569.471828 311.490294 
L 569.614286 311.036942 
L 569.732577 311.490449 
L 569.756189 311.490573 
L 569.779786 311.641657 
L 569.803368 311.188138 
L 569.826934 310.885896 
L 569.850485 311.641709 
L 569.897542 311.339505 
L 569.921048 311.339459 
L 569.944538 311.188054 
L 569.968013 311.490452 
L 570.014919 311.33951 
L 570.061764 311.339451 
L 570.108549 311.037152 
L 570.131919 311.49052 
L 570.155274 311.037082 
L 570.225249 311.339591 
L 570.271825 311.641895 
L 570.29509 311.037016 
L 570.318341 311.188329 
L 570.341577 311.037427 
L 570.388004 311.188421 
L 570.411196 311.490822 
L 570.457534 311.037171 
L 570.480682 311.037293 
L 570.550036 311.642052 
L 570.619258 311.490872 
L 570.665333 311.037276 
L 570.71135 311.188561 
L 570.826139 311.642111 
L 570.940568 310.886216 
L 570.96341 311.037559 
L 571.009053 311.642233 
L 571.07741 311.491172 
L 571.12291 310.886248 
L 571.168353 311.188809 
L 571.25907 311.642273 
L 571.281714 311.037357 
L 571.372149 311.491204 
L 571.439829 311.642489 
L 571.484879 311.037498 
L 571.574813 311.491246 
L 571.597262 311.339874 
L 571.619696 311.037681 
L 571.686919 311.491245 
L 571.709298 311.491301 
L 571.754017 310.735337 
L 571.865574 311.037843 
L 571.932344 311.642533 
L 571.954574 311.491352 
L 571.97679 310.886476 
L 572.065519 311.188908 
L 572.131925 311.491463 
L 572.176128 311.340263 
L 572.242333 311.037887 
L 572.220278 311.491446 
L 572.264374 311.49145 
L 572.308417 311.49142 
L 572.46215 311.189072 
L 572.571563 311.491415 
L 572.593407 311.037905 
L 572.680649 311.340379 
L 572.811123 311.642737 
L 572.876185 311.189203 
L 572.919495 311.340151 
L 573.005962 311.642837 
L 573.027546 311.340495 
L 573.113757 311.491598 
L 573.156786 311.189225 
L 573.178282 311.18924 
L 573.199765 311.038087 
L 573.242692 311.491638 
L 573.264137 311.491551 
L 573.28557 310.886928 
L 573.371173 311.491706 
L 573.499202 310.58448 
L 573.435244 311.642871 
L 573.520497 311.038171 
L 573.605551 311.491735 
L 573.584306 310.886829 
L 573.626784 311.340483 
L 573.669212 311.642912 
L 573.71159 311.038081 
L 573.838432 311.491734 
L 573.880614 311.642952 
L 573.964833 311.340608 
L 574.048858 311.64296 
L 574.090797 311.491792 
L 574.174532 311.642993 
L 574.216328 310.886953 
L 574.278932 311.491837 
L 574.320608 311.340582 
L 574.362236 310.887034 
L 574.403817 311.491826 
L 574.42459 311.340633 
L 574.445351 311.643025 
L 574.4661 311.038285 
L 574.528276 311.491859 
L 574.548978 311.491828 
L 574.652311 311.189471 
L 574.714171 311.643048 
L 574.755353 311.189507 
L 574.775926 311.03831 
L 574.796488 311.491889 
L 574.817038 311.643122 
L 574.858104 311.340717 
L 574.899123 311.491897 
L 574.981024 311.038303 
L 575.00147 311.340714 
L 575.083141 311.189529 
L 575.103531 311.491932 
L 575.144275 311.189529 
L 575.184974 311.491943 
L 575.205306 311.64309 
L 575.245937 311.189518 
L 575.266235 311.491942 
L 575.327063 311.189529 
L 575.327063 311.189529 
" clip-path="url(#p3041f82af4)" style="fill: none; stroke: #ffa500; stroke-width: 1.5; stroke-linecap: square"/>
   </g>
   <g id="line2d_18">
    <path d="M 218.207063 175.389103 
L 305.6216 178.8343 
L 329.190515 179.490986 
L 343.385922 180.964062 
L 353.576313 181.611568 
L 361.531259 182.580003 
L 368.057228 182.625521 
L 373.590263 183.579276 
L 378.392993 182.395806 
L 382.635916 182.089897 
L 386.436019 182.054988 
L 389.877059 183.041064 
L 393.021071 181.970238 
L 395.915283 181.362435 
L 398.596485 179.979438 
L 401.093894 180.276757 
L 403.431098 180.027057 
L 405.627419 179.176156 
L 407.698879 178.211865 
L 409.658914 177.161915 
L 411.518903 179.333352 
L 413.288565 178.681524 
L 414.976268 173.773551 
L 416.589268 176.081988 
L 418.1339 174.979635 
L 419.615725 176.967028 
L 421.03965 175.881983 
L 422.410031 175.358963 
L 423.73075 174.733032 
L 425.00528 175.004146 
L 426.236743 172.722223 
L 427.427955 173.279033 
L 428.581464 170.914769 
L 429.699584 159.316206 
L 430.784421 170.701811 
L 431.8379 171.248028 
L 433.857687 163.544051 
L 434.827101 170.827269 
L 435.771398 160.82776 
L 436.691847 163.559705 
L 437.589622 171.716348 
L 438.465814 168.454278 
L 439.321436 166.939674 
L 440.157432 162.764128 
L 440.974682 168.234507 
L 441.774008 165.683612 
L 442.55618 161.459693 
L 443.321919 124.727961 
L 444.071901 159.989829 
L 444.806761 163.76525 
L 445.527097 169.205765 
L 446.233472 167.09988 
L 446.926417 165.93766 
L 447.606433 165.081349 
L 448.273994 165.074844 
L 448.929548 165.351489 
L 449.573519 161.998983 
L 450.20631 162.106403 
L 450.828301 152.952304 
L 452.041319 165.215762 
L 452.633017 162.335956 
L 453.215263 161.945208 
L 453.788353 160.899525 
L 454.352572 163.169216 
L 454.90819 163.361638 
L 455.455465 160.487689 
L 455.994643 162.019974 
L 456.525962 161.301191 
L 457.049646 159.41365 
L 457.565913 160.429209 
L 458.577012 158.789731 
L 459.072235 152.25409 
L 459.560819 156.850897 
L 460.042939 158.327186 
L 460.518766 158.708525 
L 460.988461 150.856218 
L 461.45218 151.791285 
L 461.910073 148.679087 
L 462.362285 126.363919 
L 462.808954 156.340238 
L 463.250216 155.858811 
L 463.6862 159.175256 
L 464.11703 158.143231 
L 464.542827 153.254109 
L 464.963707 156.331446 
L 465.379783 140.178707 
L 465.791162 150.070747 
L 466.197949 150.204186 
L 466.600247 151.253909 
L 466.998153 153.808534 
L 467.781165 154.400058 
L 468.166452 148.61472 
L 468.547708 153.307576 
L 468.925018 154.251841 
L 469.298462 151.21814 
L 469.668118 152.459781 
L 470.034063 151.339997 
L 470.39637 144.103611 
L 470.755111 151.760788 
L 471.110356 152.007033 
L 471.462171 151.733065 
L 471.810623 151.247355 
L 472.155775 151.009545 
L 472.49769 149.86053 
L 472.836426 151.448342 
L 473.172044 148.830176 
L 473.504599 151.131938 
L 473.834147 150.034962 
L 474.160743 149.846044 
L 474.484438 148.929712 
L 474.805283 148.833534 
L 475.123329 115.031019 
L 475.438623 146.722832 
L 475.751213 131.78148 
L 476.061145 148.516092 
L 476.673213 151.724565 
L 476.975436 149.758236 
L 477.275173 149.580868 
L 477.572465 149.879104 
L 478.159871 149.319536 
L 478.450062 148.185623 
L 478.737961 147.96483 
L 479.023604 148.400577 
L 479.307025 147.641564 
L 479.588259 147.316237 
L 479.86734 147.39548 
L 480.1443 147.034499 
L 480.419172 147.159276 
L 480.691986 146.798992 
L 480.962773 146.648455 
L 481.498386 143.773305 
L 481.76327 146.064149 
L 482.026242 146.707453 
L 482.28733 145.833526 
L 482.546562 146.1735 
L 483.059558 145.620389 
L 483.313374 145.653741 
L 483.565434 145.258661 
L 483.815764 144.174305 
L 484.064385 142.065988 
L 484.311323 144.815582 
L 484.556598 145.094189 
L 484.800234 144.608414 
L 485.042252 144.708551 
L 485.282674 144.650591 
L 485.52152 144.084697 
L 485.994567 143.780361 
L 486.228808 144.017166 
L 486.692822 142.982124 
L 486.922633 143.478184 
L 487.151003 143.171529 
L 487.377951 143.191854 
L 487.603495 142.680433 
L 487.827652 143.093129 
L 488.710743 142.441325 
L 488.928213 133.191875 
L 489.144392 60.326229 
L 489.359297 59.941029 
L 489.572943 61.737468 
L 489.785343 65.15843 
L 489.996513 72.722137 
L 490.206466 85.448741 
L 490.415217 119.492667 
L 490.622779 125.635889 
L 490.829166 137.000568 
L 491.03439 135.332896 
L 491.441405 145.829584 
L 491.643221 144.856752 
L 491.843925 139.971701 
L 492.04353 138.903146 
L 492.242048 99.823955 
L 492.43949 128.193759 
L 492.831195 147.263193 
L 493.02548 139.828464 
L 493.410971 136.934529 
L 493.602198 145.575601 
L 493.792427 146.80978 
L 494.169932 145.306045 
L 494.357228 144.023346 
L 494.543567 144.389064 
L 494.728958 144.142462 
L 494.913411 142.716932 
L 495.096935 143.529379 
L 495.279539 142.845959 
L 495.821927 142.661535 
L 496.000944 141.69769 
L 496.179086 142.251856 
L 496.883073 140.611745 
L 497.230032 141.162001 
L 497.402281 140.682569 
L 497.57372 140.561133 
L 497.914197 140.76392 
L 498.08325 140.012256 
L 498.251523 140.116853 
L 498.419022 140.557142 
L 498.585755 140.086194 
L 498.91695 135.642941 
L 499.081426 132.380969 
L 499.245163 94.343049 
L 499.408168 138.704787 
L 499.570447 137.979953 
L 499.732007 142.632449 
L 499.892853 139.788607 
L 500.052993 143.238362 
L 500.371177 141.921436 
L 500.529234 142.108423 
L 500.686608 142.473704 
L 500.999332 141.646803 
L 501.616845 140.731818 
L 501.921721 140.696471 
L 502.073209 140.457898 
L 502.224069 139.802639 
L 502.374307 140.07977 
L 502.523929 139.880308 
L 502.821342 139.915315 
L 502.969144 139.699404 
L 503.116348 138.991408 
L 503.408986 139.368741 
L 503.699292 139.17872 
L 504.273059 138.853962 
L 504.4151 138.440065 
L 504.697533 138.431257 
L 504.837933 138.634125 
L 505.117121 138.236742 
L 505.255917 138.312789 
L 505.531934 138.135892 
L 505.669162 137.775867 
L 505.805875 137.800395 
L 505.942078 138.042552 
L 506.077774 138.010936 
L 506.347659 137.555593 
L 506.481855 137.479351 
L 506.61556 137.598727 
L 506.748775 137.539744 
L 507.013755 137.237015 
L 507.276822 137.129043 
L 507.407647 137.256335 
L 507.667897 136.914479 
L 507.797328 137.187815 
L 508.182886 136.778687 
L 508.310505 136.866268 
L 509.066972 136.407892 
L 509.191537 135.991464 
L 509.439398 136.491369 
L 510.051774 135.892188 
L 510.173025 135.978195 
L 510.293873 135.832524 
L 510.414322 136.066311 
L 510.534374 136.049133 
L 510.654032 135.674687 
L 511.010666 135.947828 
L 511.128773 135.891863 
L 511.246499 135.654313 
L 511.363845 135.72525 
L 511.597411 135.531855 
L 511.829489 135.661726 
L 511.944977 135.40857 
L 512.17486 135.556772 
L 512.403302 135.243044 
L 512.630321 135.281733 
L 512.743302 135.204144 
L 512.855934 135.287605 
L 512.96822 135.181904 
L 513.08016 134.915333 
L 513.191758 135.176681 
L 513.303015 134.913954 
L 513.524515 135.07343 
L 513.854262 134.848938 
L 513.963518 134.954557 
L 514.072448 134.8005 
L 514.289335 134.875087 
L 514.397297 134.815748 
L 514.504939 134.466771 
L 514.612265 134.750943 
L 514.719276 134.520108 
L 514.825973 134.644658 
L 514.932359 134.51516 
L 515.038435 134.690646 
L 515.249666 134.335407 
L 515.45968 134.544619 
L 515.66849 134.352781 
L 515.772449 134.434084 
L 515.97948 134.235595 
L 516.185342 134.165177 
L 516.390048 134.278664 
L 516.491972 133.937392 
L 516.694967 134.147609 
L 516.896839 133.985716 
L 516.997357 134.021226 
L 517.197565 133.857192 
L 517.297258 134.051658 
L 517.396679 133.731263 
L 517.594712 133.900309 
L 517.693326 133.534429 
L 517.791674 133.935689 
L 517.889757 133.615862 
L 517.987578 133.82981 
L 518.085136 133.760705 
L 518.279473 133.474149 
L 518.376254 133.599397 
L 518.472779 133.403812 
L 518.665065 133.619609 
L 518.760829 133.561811 
L 518.856342 133.370168 
L 518.951606 133.424429 
L 519.046621 133.324131 
L 519.141389 133.4012 
L 519.235912 133.076669 
L 519.424224 133.406667 
L 519.518017 133.062669 
L 519.704881 133.327553 
L 519.797955 132.955395 
L 519.983393 133.277509 
L 520.167892 133.128237 
L 520.259793 133.078972 
L 520.351463 132.88947 
L 520.442902 133.080708 
L 520.806383 132.89299 
L 520.986774 132.926618 
L 521.255696 132.66759 
L 521.344898 132.889032 
L 521.433882 132.743037 
L 521.522649 132.885107 
L 521.6112 132.700293 
L 521.699537 132.845623 
L 521.787661 132.521319 
L 521.963271 132.704835 
L 522.050759 132.350423 
L 522.138039 132.693901 
L 522.225109 132.517896 
L 522.311973 132.585362 
L 522.398629 132.700715 
L 522.48508 132.080478 
L 522.65737 132.682936 
L 522.74321 132.009865 
L 522.828849 132.567242 
L 522.999525 132.331914 
L 523.084564 132.374318 
L 523.169405 132.249816 
L 523.25405 132.450089 
L 523.422751 132.231177 
L 523.506809 132.269996 
L 523.674347 132.135615 
L 523.757828 132.277474 
L 523.841118 131.656508 
L 523.924219 132.190396 
L 524.00713 132.143353 
L 524.089853 131.758591 
L 524.172389 131.807142 
L 524.254738 132.190688 
L 524.418881 131.796014 
L 524.582287 131.906273 
L 524.663717 131.870342 
L 524.744964 131.591961 
L 524.906919 131.795625 
L 525.308684 131.683338 
L 525.388509 131.806088 
L 525.626938 131.650181 
L 525.706069 131.811457 
L 525.863818 131.557425 
L 526.020887 131.527853 
L 526.099168 131.36442 
L 526.177282 131.546346 
L 526.255228 131.463145 
L 526.333009 131.574361 
L 526.410623 131.428025 
L 526.488073 131.563103 
L 526.565358 131.191594 
L 526.64248 131.407148 
L 526.719439 131.348782 
L 526.796236 131.066086 
L 526.872871 131.375207 
L 526.949346 131.277423 
L 527.02566 131.308422 
L 527.101815 131.107354 
L 527.177812 131.183921 
L 527.25365 131.156782 
L 527.32933 130.979836 
L 527.404854 131.186468 
L 527.480222 131.122862 
L 527.630491 130.976202 
L 527.705394 131.167634 
L 527.780144 130.959526 
L 527.85474 131.109544 
L 527.929184 131.068293 
L 528.592425 130.861044 
L 528.665379 130.65949 
L 528.738188 130.691998 
L 528.810851 130.882295 
L 528.883369 130.810952 
L 528.955744 130.800051 
L 529.027975 130.584821 
L 529.100063 130.704991 
L 529.172009 130.80834 
L 529.243813 130.634573 
L 529.315476 130.811682 
L 529.458381 130.649254 
L 529.74252 130.614555 
L 529.81321 130.446158 
L 529.883763 130.584432 
L 529.95418 130.542466 
L 530.024461 130.483841 
L 530.094607 130.584805 
L 530.164618 130.390112 
L 530.234495 130.561673 
L 530.304238 130.290057 
L 530.373848 130.521492 
L 530.443326 130.352413 
L 530.512671 130.46199 
L 530.719918 130.310853 
L 530.857431 130.287315 
L 530.925994 130.386705 
L 530.994427 130.291387 
L 531.198961 130.120767 
L 531.334682 130.202005 
L 531.469899 130.071826 
L 531.604617 130.239364 
L 531.939248 130.011579 
L 532.005807 130.079775 
L 532.072245 130.013412 
L 532.336792 129.861804 
L 532.40263 130.017175 
L 532.468349 129.945881 
L 532.664798 129.881984 
L 532.730046 129.993475 
L 532.925094 129.728267 
L 532.989878 129.900201 
L 533.054548 129.49521 
L 533.119103 129.957723 
L 533.183544 129.547379 
L 533.247871 129.880945 
L 533.312085 129.689513 
L 533.440174 129.719523 
L 533.758442 129.551531 
L 533.821763 129.671134 
L 534.01107 129.415366 
L 534.386759 129.418708 
L 534.448999 129.157539 
L 534.573162 53.473778 
L 534.635085 53.75237 
L 534.696902 53.533069 
L 534.758616 53.510569 
L 535.065624 54.153484 
L 535.126716 54.09953 
L 535.248595 54.391651 
L 535.309382 54.686367 
L 535.430652 54.263694 
L 535.491136 54.428085 
L 535.55152 54.346992 
L 535.611804 54.356563 
L 535.671989 53.915495 
L 535.732074 54.374845 
L 535.792061 54.31171 
L 535.851949 54.168716 
L 535.911739 54.231478 
L 535.97143 54.357942 
L 536.149921 54.166737 
L 536.268431 54.088305 
L 536.386558 54.488056 
L 536.445477 54.44953 
L 536.621668 54.150321 
L 536.680209 54.191394 
L 536.79701 54.380604 
L 536.913438 54.198272 
L 537.087386 54.384562 
L 537.202892 54.465297 
L 537.432811 54.514108 
L 537.604303 54.612769 
L 537.774992 54.377733 
L 537.831711 54.470667 
L 537.944886 54.809911 
L 538.001342 54.547574 
L 538.05771 54.616045 
L 538.394102 54.401124 
L 538.449866 54.391521 
L 538.61665 54.650598 
L 538.672076 54.652463 
L 538.782674 54.463529 
L 538.947946 54.732306 
L 539.00287 54.665992 
L 539.43931 54.921419 
L 539.4935 55.050268 
L 539.547609 54.944519 
L 539.601638 54.959394 
L 539.709455 54.774531 
L 539.763245 54.831891 
L 539.816955 54.958956 
L 539.870586 54.860717 
L 539.924139 54.838623 
L 539.977613 54.493053 
L 540.031008 54.795425 
L 540.137565 55.00063 
L 540.296819 54.69936 
L 540.349749 54.996023 
L 540.402603 54.862891 
L 540.50808 54.705232 
L 540.560705 54.75127 
L 540.613254 54.987247 
L 540.665727 54.793089 
L 540.718124 54.796366 
L 540.874867 55.039367 
L 541.750562 55.062937 
L 541.801424 55.162636 
L 541.852216 55.023064 
L 542.205786 55.174088 
L 542.30618 54.812928 
L 542.356273 54.925442 
L 542.406297 55.136827 
L 542.456253 54.932888 
L 542.655394 54.696051 
L 542.754559 54.712435 
L 543.050443 54.7945 
L 543.148539 54.714592 
L 543.295191 54.780615 
L 544.589161 54.916228 
L 544.963901 54.820634 
L 545.010473 54.769227 
L 545.149835 55.050836 
L 545.196171 55.075395 
L 545.380928 54.660963 
L 545.472956 54.749729 
L 545.610564 54.662618 
L 545.656319 54.895675 
L 545.702015 54.797453 
L 545.747655 54.551824 
L 545.793237 54.757531 
L 545.838763 54.824332 
L 545.884232 54.781929 
L 546.020299 54.651344 
L 546.15586 55.147809 
L 546.200935 55.015326 
L 546.245955 55.006713 
L 546.290919 55.418484 
L 546.335827 55.241684 
L 546.38068 55.040648 
L 546.425479 55.346541 
L 546.51491 55.982529 
L 546.604123 55.945787 
L 546.648647 55.737062 
L 546.693117 56.382183 
L 546.781895 56.283328 
L 546.914658 57.136346 
L 546.958805 57.115696 
L 547.046939 57.156542 
L 547.090926 56.84833 
L 547.22257 62.914385 
L 547.353741 94.606198 
L 547.48444 180.608337 
L 547.657981 175.020481 
L 547.701237 177.158176 
L 547.744442 174.768282 
L 547.787596 175.066145 
L 547.873751 172.787499 
L 547.916752 154.223566 
L 547.959703 168.831352 
L 548.002603 174.956616 
L 548.045452 168.472609 
L 548.088251 168.141832 
L 548.131 160.394187 
L 548.173699 160.712229 
L 548.216348 165.200725 
L 548.258947 161.252282 
L 548.301497 161.965502 
L 548.343996 161.939855 
L 548.386447 157.601719 
L 548.428848 137.304157 
L 548.471199 164.069845 
L 548.808252 147.960742 
L 548.89203 152.474851 
L 548.933847 149.888172 
L 549.017338 147.961537 
L 549.059012 127.018302 
L 549.100638 147.415985 
L 549.225231 151.052679 
L 549.473148 145.371126 
L 549.514304 145.327701 
L 549.76027 141.418271 
L 549.801103 143.445173 
L 549.84189 141.737255 
L 549.882632 141.089214 
L 549.923329 141.221583 
L 549.96398 141.640979 
L 550.004586 123.521537 
L 550.045146 131.659849 
L 550.126133 145.177374 
L 550.206939 145.049158 
L 550.247275 145.287081 
L 550.48836 141.875723 
L 550.528386 142.224441 
L 550.568368 142.139423 
L 550.72786 139.843891 
L 550.847022 139.998159 
L 550.886656 140.164626 
L 551.044764 138.330828 
L 551.084184 139.035969 
L 551.123562 139.008408 
L 551.162897 139.198802 
L 551.280648 137.840478 
L 551.319814 138.358405 
L 551.398019 138.158602 
L 551.670426 136.364904 
L 551.709175 137.169338 
L 551.786551 136.469372 
L 551.863763 117.245962 
L 551.902307 130.447959 
L 551.940811 135.224941 
L 551.979274 126.003862 
L 552.017697 135.541539 
L 552.132723 139.365707 
L 552.209205 139.092356 
L 552.437695 137.688773 
L 552.475638 137.67685 
L 552.513541 136.988742 
L 552.627015 128.584232 
L 552.664761 111.294075 
L 552.702468 135.048789 
L 552.777766 139.554706 
L 552.852908 138.931031 
L 553.07741 137.222691 
L 553.114693 137.728825 
L 553.151938 136.971271 
L 553.337593 135.984067 
L 553.374611 136.519416 
L 553.448534 136.221342 
L 553.632689 135.55489 
L 553.669408 135.703821 
L 553.706091 135.668928 
L 553.888952 134.85202 
L 553.925414 134.952238 
L 554.143426 133.977038 
L 554.179635 134.92591 
L 554.251945 134.473827 
L 554.324111 134.504535 
L 554.360141 133.938819 
L 554.432094 134.197474 
L 554.575575 133.682598 
L 554.611358 133.950742 
L 554.682817 133.762571 
L 554.789744 133.361278 
L 554.860855 133.382658 
L 555.038027 133.046788 
L 555.073358 133.205777 
L 555.108655 132.687916 
L 555.179147 132.734018 
L 555.214342 133.008505 
L 555.249503 132.615567 
L 555.28463 132.766023 
L 555.4248 132.261999 
L 555.459759 132.578841 
L 555.529575 132.39041 
L 555.599259 132.505065 
L 555.668809 132.181604 
L 555.703534 132.305976 
L 555.738227 132.151805 
L 555.772886 132.17531 
L 555.980153 131.7862 
L 556.014583 132.036355 
L 556.048981 131.751989 
L 556.151979 131.168478 
L 556.186248 131.786233 
L 556.254688 131.449113 
L 556.323 131.387682 
L 556.357108 131.480113 
L 556.628829 130.994273 
L 556.662652 131.219138 
L 556.696443 130.905767 
L 556.730204 131.134055 
L 556.797631 130.73737 
L 556.864934 130.89279 
L 556.898539 130.943337 
L 557.0661 130.484279 
L 557.099519 130.669158 
L 557.132909 130.655856 
L 557.199596 130.385262 
L 557.266161 130.445055 
L 557.299398 130.525012 
L 557.332605 130.368002 
L 557.531213 130.141531 
L 557.630113 130.029942 
L 557.66302 129.494804 
L 557.695897 130.079807 
L 557.728745 129.970716 
L 557.82711 129.594454 
L 557.85984 129.901823 
L 557.89254 129.709871 
L 557.925211 129.411181 
L 558.023049 129.483368 
L 558.055603 129.608972 
L 558.088129 129.273994 
L 558.153092 129.437396 
L 558.185531 129.6092 
L 558.21794 129.578184 
L 558.347291 129.061474 
L 558.379557 129.336351 
L 558.411795 129.048805 
L 558.444004 129.175772 
L 558.476184 128.895542 
L 558.572556 128.925763 
L 558.700657 129.039883 
L 558.796437 128.541909 
L 558.828309 128.709869 
L 558.860152 128.582025 
L 558.891967 128.735742 
L 558.923755 128.718174 
L 558.955515 128.844136 
L 558.987247 128.718401 
L 559.208604 128.364606 
L 559.240117 128.477606 
L 559.303061 128.320694 
L 559.397273 128.13807 
L 559.428624 128.191861 
L 559.459947 128.322186 
L 559.491243 127.994638 
L 559.522513 128.24416 
L 559.833742 127.835454 
L 559.864719 128.00974 
L 559.926595 127.75308 
L 559.957493 127.955478 
L 560.080825 127.494296 
L 560.234406 127.723135 
L 560.295658 127.418686 
L 560.356807 127.540673 
L 560.387343 127.561924 
L 560.509232 127.176253 
L 560.570024 127.274994 
L 560.691304 127.067519 
L 560.782 127.264791 
L 560.751793 127.002827 
L 560.812182 127.133995 
L 560.872472 126.934728 
L 560.932661 126.952556 
L 560.962719 127.026592 
L 561.02276 126.905691 
L 561.232127 126.489653 
L 561.321489 126.359312 
L 561.351228 126.695847 
L 561.676762 126.318012 
L 561.735639 126.430963 
L 561.794421 126.483943 
L 561.853109 126.051116 
L 561.911702 126.242873 
L 561.999415 126.186048 
L 562.116039 126.021511 
L 562.23229 126.128899 
L 562.319236 125.854314 
L 562.348172 126.033775 
L 562.550084 125.705642 
L 562.664961 125.797263 
L 562.808051 125.549947 
L 562.836602 125.63636 
L 562.893636 125.522045 
L 563.064206 125.06714 
L 563.092556 125.23145 
L 563.120885 125.376634 
L 563.177477 125.326833 
L 563.233981 125.362164 
L 563.290397 125.184683 
L 563.431057 125.282354 
L 563.515193 124.944666 
L 563.571176 124.963532 
L 563.599136 125.152693 
L 563.682885 125.082632 
L 563.794253 124.802321 
L 563.822041 124.856112 
L 563.849809 124.92778 
L 563.905281 124.781298 
L 563.960669 124.610191 
L 564.015972 124.686725 
L 564.043592 124.797552 
L 564.126328 124.690456 
L 564.181381 124.618059 
L 564.208876 124.633842 
L 564.236351 124.719931 
L 564.263805 124.477092 
L 564.318651 124.614555 
L 564.373414 124.476508 
L 564.428095 124.590579 
L 564.537212 124.333692 
L 564.564441 124.486906 
L 564.646004 124.376242 
L 564.754471 124.114991 
L 564.808584 124.199442 
L 564.862617 124.162845 
L 564.997349 124.09027 
L 565.185142 123.765365 
L 565.211891 123.875494 
L 565.292019 123.833691 
L 565.34534 123.966125 
L 565.504838 123.825288 
L 565.531353 123.802854 
L 565.557849 123.620797 
L 565.637221 123.681158 
L 565.690041 123.772957 
L 565.769126 123.675805 
L 565.926784 123.472791 
L 565.952994 123.567022 
L 565.979185 123.624772 
L 566.005357 123.451216 
L 566.031511 123.558003 
L 566.421581 123.211021 
L 566.524899 123.215823 
L 566.602195 123.065561 
L 566.653635 123.106748 
L 566.756297 123.040093 
L 566.833105 122.906864 
L 566.858672 122.938513 
L 566.960759 123.068968 
L 567.113356 122.880634 
L 567.214734 122.669314 
L 567.265317 122.774641 
L 567.366274 122.719341 
L 567.542278 122.579916 
L 567.592409 122.709949 
L 567.642471 122.519506 
L 567.842035 122.293327 
L 567.866904 122.367996 
L 567.916591 122.44268 
L 567.941409 122.3095 
L 567.96621 122.16271 
L 568.015762 122.317725 
L 568.040512 122.3903 
L 568.065246 122.209931 
L 568.139347 122.28812 
L 568.237915 122.152685 
L 568.262515 122.260186 
L 568.336216 122.215333 
L 568.434253 121.986234 
L 568.483173 122.0051 
L 568.532028 122.102495 
L 568.55643 121.901833 
L 568.580817 122.05761 
L 568.702504 121.844311 
L 568.726793 121.856298 
L 568.799562 121.974863 
L 568.823787 121.837141 
L 568.872187 121.764922 
L 568.944667 121.814479 
L 568.968795 121.821925 
L 569.041083 121.626518 
L 569.089196 121.74479 
L 569.137245 121.815825 
L 569.185231 121.75939 
L 569.209201 121.601034 
L 569.304921 121.663439 
L 569.826934 121.34014 
L 569.850485 121.402756 
L 569.874021 121.231276 
L 569.897542 121.342736 
L 570.061764 121.155829 
L 570.155274 121.315645 
L 570.201939 121.16952 
L 570.526932 120.943633 
L 570.573124 120.90243 
L 570.596198 120.941979 
L 570.619258 121.033096 
L 570.665333 120.907362 
L 570.688349 120.92892 
L 571.009053 120.601874 
L 571.054638 120.710089 
L 571.12291 120.716448 
L 571.145638 120.577866 
L 571.21374 120.624634 
L 571.25907 120.738883 
L 571.304344 120.601258 
L 571.32696 120.703568 
L 571.417283 120.423452 
L 571.507384 120.492962 
L 571.529874 120.518625 
L 571.55235 120.404132 
L 571.574813 120.31733 
L 571.664525 120.390019 
L 571.754017 120.344241 
L 571.820992 120.158909 
L 571.865574 120.313534 
L 571.97679 120.188205 
L 571.998992 120.344274 
L 572.087668 120.197792 
L 572.242333 120.12288 
L 572.352407 120.064028 
L 572.374382 120.080201 
L 572.396344 120.113277 
L 572.440228 120.027643 
L 572.505955 119.83381 
L 572.549707 120.039355 
L 572.571563 120.059242 
L 572.615237 119.987105 
L 572.745944 119.839438 
L 572.767684 119.903936 
L 572.811123 119.766408 
L 572.832823 119.778299 
L 572.854511 119.748289 
L 572.876185 119.85798 
L 572.897847 119.92165 
L 572.962754 119.798138 
L 573.156786 119.612562 
L 573.178282 119.738296 
L 573.242692 119.583541 
L 573.264137 119.583476 
L 573.392543 119.691302 
L 573.306989 119.557668 
L 573.4139 119.668721 
L 573.541779 119.424455 
L 573.563049 119.450669 
L 573.626784 119.598352 
L 573.605551 119.387859 
L 573.669212 119.510982 
L 573.775066 119.319971 
L 573.817322 119.340199 
L 573.880614 119.236754 
L 573.943796 119.27481 
L 573.964833 119.340702 
L 574.048858 119.283229 
L 574.090797 119.329396 
L 574.216328 119.114767 
L 574.258076 119.264769 
L 574.299776 119.11441 
L 574.320608 119.031776 
L 574.362236 119.19388 
L 574.403817 119.083994 
L 574.4661 119.023747 
L 574.507562 119.162913 
L 574.631668 118.980224 
L 574.652311 118.986356 
L 574.775926 119.00673 
L 575.042329 118.773803 
L 575.083141 118.835916 
L 575.123908 118.779107 
L 575.144275 118.693473 
L 575.205306 118.890502 
L 575.245937 118.745885 
L 575.286522 118.797892 
L 575.306798 118.683756 
L 575.327063 118.563505 
L 575.327063 118.563505 
" clip-path="url(#p3041f82af4)" style="fill: none; stroke: #008000; stroke-width: 1.5; stroke-linecap: square"/>
   </g>
   <g id="patch_3">
    <path d="M 218.207063 311.6435 
L 218.207063 45.5315 
" style="fill: none; stroke: #000000; stroke-width: 0.8; stroke-linejoin: miter; stroke-linecap: square"/>
   </g>
   <g id="patch_4">
    <path d="M 575.327063 311.6435 
L 575.327063 45.5315 
" style="fill: none; stroke: #000000; stroke-width: 0.8; stroke-linejoin: miter; stroke-linecap: square"/>
   </g>
   <g id="patch_5">
    <path d="M 218.207063 311.6435 
L 575.327063 311.6435 
" style="fill: none; stroke: #000000; stroke-width: 0.8; stroke-linejoin: miter; stroke-linecap: square"/>
   </g>
   <g id="patch_6">
    <path d="M 218.207063 45.5315 
L 575.327063 45.5315 
" style="fill: none; stroke: #000000; stroke-width: 0.8; stroke-linejoin: miter; stroke-linecap: square"/>
   </g>
   <g id="text_11">
    <!-- Loss of the 09_07_25_CINIC10_torch_model_(1024+8192.2+1)_cat-dog -->
    <g transform="translate(7.2 25.5315) scale(0.264 -0.264)">
     <defs>
      <path id="TimesNewRomanPSMT-20" transform="scale(0.015625)"/>
      <path id="TimesNewRomanPSMT-66" d="M 1319 2638 
L 1319 756 
Q 1319 356 1406 250 
Q 1522 113 1716 113 
L 1975 113 
L 1975 0 
L 266 0 
L 266 113 
L 394 113 
Q 519 113 622 175 
Q 725 238 764 344 
Q 803 450 803 756 
L 803 2638 
L 247 2638 
L 247 2863 
L 803 2863 
L 803 3050 
Q 803 3478 940 3775 
Q 1078 4072 1361 4255 
Q 1644 4438 1997 4438 
Q 2325 4438 2600 4225 
Q 2781 4084 2781 3909 
Q 2781 3816 2700 3733 
Q 2619 3650 2525 3650 
Q 2453 3650 2373 3701 
Q 2294 3753 2178 3923 
Q 2063 4094 1966 4153 
Q 1869 4213 1750 4213 
Q 1606 4213 1506 4136 
Q 1406 4059 1362 3898 
Q 1319 3738 1319 3069 
L 1319 2863 
L 2056 2863 
L 2056 2638 
L 1319 2638 
z
" transform="scale(0.015625)"/>
      <path id="TimesNewRomanPSMT-74" d="M 1031 3803 
L 1031 2863 
L 1700 2863 
L 1700 2644 
L 1031 2644 
L 1031 788 
Q 1031 509 1111 412 
Q 1191 316 1316 316 
Q 1419 316 1516 380 
Q 1613 444 1666 569 
L 1788 569 
Q 1678 263 1478 108 
Q 1278 -47 1066 -47 
Q 922 -47 784 33 
Q 647 113 581 261 
Q 516 409 516 719 
L 516 2644 
L 63 2644 
L 63 2747 
Q 234 2816 414 2980 
Q 594 3144 734 3369 
Q 806 3488 934 3803 
L 1031 3803 
z
" transform="scale(0.015625)"/>
      <path id="TimesNewRomanPSMT-68" d="M 1041 4444 
L 1041 2350 
Q 1388 2731 1591 2839 
Q 1794 2947 1997 2947 
Q 2241 2947 2416 2812 
Q 2591 2678 2675 2391 
Q 2734 2191 2734 1659 
L 2734 647 
Q 2734 375 2778 275 
Q 2809 200 2884 156 
Q 2959 113 3159 113 
L 3159 0 
L 1753 0 
L 1753 113 
L 1819 113 
Q 2019 113 2097 173 
Q 2175 234 2206 353 
Q 2216 403 2216 647 
L 2216 1659 
Q 2216 2128 2167 2275 
Q 2119 2422 2012 2495 
Q 1906 2569 1756 2569 
Q 1603 2569 1437 2487 
Q 1272 2406 1041 2159 
L 1041 647 
Q 1041 353 1073 281 
Q 1106 209 1195 161 
Q 1284 113 1503 113 
L 1503 0 
L 84 0 
L 84 113 
Q 275 113 384 172 
Q 447 203 484 290 
Q 522 378 522 647 
L 522 3238 
Q 522 3728 498 3840 
Q 475 3953 426 3993 
Q 378 4034 297 4034 
Q 231 4034 84 3984 
L 41 4094 
L 897 4444 
L 1041 4444 
z
" transform="scale(0.015625)"/>
      <path id="TimesNewRomanPSMT-65" d="M 681 1784 
Q 678 1147 991 784 
Q 1303 422 1725 422 
Q 2006 422 2214 576 
Q 2422 731 2563 1106 
L 2659 1044 
Q 2594 616 2278 264 
Q 1963 -88 1488 -88 
Q 972 -88 605 314 
Q 238 716 238 1394 
Q 238 2128 614 2539 
Q 991 2950 1559 2950 
Q 2041 2950 2350 2633 
Q 2659 2316 2659 1784 
L 681 1784 
z
M 681 1966 
L 2006 1966 
Q 1991 2241 1941 2353 
Q 1863 2528 1708 2628 
Q 1553 2728 1384 2728 
Q 1125 2728 920 2526 
Q 716 2325 681 1966 
z
" transform="scale(0.015625)"/>
      <path id="TimesNewRomanPSMT-39" d="M 338 -88 
L 338 28 
Q 744 34 1094 217 
Q 1444 400 1770 856 
Q 2097 1313 2225 1859 
Q 1734 1544 1338 1544 
Q 891 1544 572 1889 
Q 253 2234 253 2806 
Q 253 3363 572 3797 
Q 956 4325 1575 4325 
Q 2097 4325 2469 3894 
Q 2925 3359 2925 2575 
Q 2925 1869 2578 1258 
Q 2231 647 1613 244 
Q 1109 -88 516 -88 
L 338 -88 
z
M 2275 2091 
Q 2331 2497 2331 2741 
Q 2331 3044 2228 3395 
Q 2125 3747 1936 3934 
Q 1747 4122 1506 4122 
Q 1228 4122 1018 3872 
Q 809 3622 809 3128 
Q 809 2469 1088 2097 
Q 1291 1828 1588 1828 
Q 1731 1828 1928 1897 
Q 2125 1966 2275 2091 
z
" transform="scale(0.015625)"/>
      <path id="TimesNewRomanPSMT-5f" d="M 3256 -1381 
L -53 -1381 
L -53 -1119 
L 3256 -1119 
L 3256 -1381 
z
" transform="scale(0.015625)"/>
      <path id="TimesNewRomanPSMT-37" d="M 644 4238 
L 2916 4238 
L 2916 4119 
L 1503 -88 
L 1153 -88 
L 2419 3728 
L 1253 3728 
Q 900 3728 750 3644 
Q 488 3500 328 3200 
L 238 3234 
L 644 4238 
z
" transform="scale(0.015625)"/>
      <path id="TimesNewRomanPSMT-43" d="M 3853 4334 
L 3950 2894 
L 3853 2894 
Q 3659 3541 3300 3825 
Q 2941 4109 2438 4109 
Q 2016 4109 1675 3895 
Q 1334 3681 1139 3212 
Q 944 2744 944 2047 
Q 944 1472 1128 1050 
Q 1313 628 1683 403 
Q 2053 178 2528 178 
Q 2941 178 3256 354 
Q 3572 531 3950 1056 
L 4047 994 
Q 3728 428 3303 165 
Q 2878 -97 2294 -97 
Q 1241 -97 663 684 
Q 231 1266 231 2053 
Q 231 2688 515 3219 
Q 800 3750 1298 4042 
Q 1797 4334 2388 4334 
Q 2847 4334 3294 4109 
Q 3425 4041 3481 4041 
Q 3566 4041 3628 4100 
Q 3709 4184 3744 4334 
L 3853 4334 
z
" transform="scale(0.015625)"/>
      <path id="TimesNewRomanPSMT-49" d="M 1975 116 
L 1975 0 
L 159 0 
L 159 116 
L 309 116 
Q 572 116 691 269 
Q 766 369 766 750 
L 766 3488 
Q 766 3809 725 3913 
Q 694 3991 597 4047 
Q 459 4122 309 4122 
L 159 4122 
L 159 4238 
L 1975 4238 
L 1975 4122 
L 1822 4122 
Q 1563 4122 1444 3969 
Q 1366 3869 1366 3488 
L 1366 750 
Q 1366 428 1406 325 
Q 1438 247 1538 191 
Q 1672 116 1822 116 
L 1975 116 
z
" transform="scale(0.015625)"/>
      <path id="TimesNewRomanPSMT-4e" d="M -84 4238 
L 1066 4238 
L 3656 1059 
L 3656 3503 
Q 3656 3894 3569 3991 
Q 3453 4122 3203 4122 
L 3056 4122 
L 3056 4238 
L 4531 4238 
L 4531 4122 
L 4381 4122 
Q 4113 4122 4000 3959 
Q 3931 3859 3931 3503 
L 3931 -69 
L 3819 -69 
L 1025 3344 
L 1025 734 
Q 1025 344 1109 247 
Q 1228 116 1475 116 
L 1625 116 
L 1625 0 
L 150 0 
L 150 116 
L 297 116 
Q 569 116 681 278 
Q 750 378 750 734 
L 750 3681 
Q 566 3897 470 3965 
Q 375 4034 191 4094 
Q 100 4122 -84 4122 
L -84 4238 
z
" transform="scale(0.015625)"/>
      <path id="TimesNewRomanPSMT-72" d="M 1038 2947 
L 1038 2303 
Q 1397 2947 1775 2947 
Q 1947 2947 2059 2842 
Q 2172 2738 2172 2600 
Q 2172 2478 2090 2393 
Q 2009 2309 1897 2309 
Q 1788 2309 1652 2417 
Q 1516 2525 1450 2525 
Q 1394 2525 1328 2463 
Q 1188 2334 1038 2041 
L 1038 669 
Q 1038 431 1097 309 
Q 1138 225 1241 169 
Q 1344 113 1538 113 
L 1538 0 
L 72 0 
L 72 113 
Q 291 113 397 181 
Q 475 231 506 341 
Q 522 394 522 644 
L 522 1753 
Q 522 2253 501 2348 
Q 481 2444 426 2487 
Q 372 2531 291 2531 
Q 194 2531 72 2484 
L 41 2597 
L 906 2947 
L 1038 2947 
z
" transform="scale(0.015625)"/>
      <path id="TimesNewRomanPSMT-63" d="M 2631 1088 
Q 2516 522 2178 217 
Q 1841 -88 1431 -88 
Q 944 -88 581 321 
Q 219 731 219 1428 
Q 219 2103 620 2525 
Q 1022 2947 1584 2947 
Q 2006 2947 2278 2723 
Q 2550 2500 2550 2259 
Q 2550 2141 2473 2067 
Q 2397 1994 2259 1994 
Q 2075 1994 1981 2113 
Q 1928 2178 1911 2362 
Q 1894 2547 1784 2644 
Q 1675 2738 1481 2738 
Q 1169 2738 978 2506 
Q 725 2200 725 1697 
Q 725 1184 976 792 
Q 1228 400 1656 400 
Q 1963 400 2206 609 
Q 2378 753 2541 1131 
L 2631 1088 
z
" transform="scale(0.015625)"/>
      <path id="TimesNewRomanPSMT-6d" d="M 1050 2338 
Q 1363 2650 1419 2697 
Q 1559 2816 1721 2881 
Q 1884 2947 2044 2947 
Q 2313 2947 2506 2790 
Q 2700 2634 2766 2338 
Q 3088 2713 3309 2830 
Q 3531 2947 3766 2947 
Q 3994 2947 4170 2830 
Q 4347 2713 4450 2447 
Q 4519 2266 4519 1878 
L 4519 647 
Q 4519 378 4559 278 
Q 4591 209 4675 161 
Q 4759 113 4950 113 
L 4950 0 
L 3538 0 
L 3538 113 
L 3597 113 
Q 3781 113 3884 184 
Q 3956 234 3988 344 
Q 4000 397 4000 647 
L 4000 1878 
Q 4000 2228 3916 2372 
Q 3794 2572 3525 2572 
Q 3359 2572 3192 2489 
Q 3025 2406 2788 2181 
L 2781 2147 
L 2788 2013 
L 2788 647 
Q 2788 353 2820 281 
Q 2853 209 2943 161 
Q 3034 113 3253 113 
L 3253 0 
L 1806 0 
L 1806 113 
Q 2044 113 2133 169 
Q 2222 225 2256 338 
Q 2272 391 2272 647 
L 2272 1878 
Q 2272 2228 2169 2381 
Q 2031 2581 1784 2581 
Q 1616 2581 1450 2491 
Q 1191 2353 1050 2181 
L 1050 647 
Q 1050 366 1089 281 
Q 1128 197 1204 155 
Q 1281 113 1516 113 
L 1516 0 
L 100 0 
L 100 113 
Q 297 113 375 155 
Q 453 197 493 289 
Q 534 381 534 647 
L 534 1741 
Q 534 2213 506 2350 
Q 484 2453 437 2492 
Q 391 2531 309 2531 
Q 222 2531 100 2484 
L 53 2597 
L 916 2947 
L 1050 2947 
L 1050 2338 
z
" transform="scale(0.015625)"/>
      <path id="TimesNewRomanPSMT-64" d="M 2222 322 
Q 2013 103 1813 7 
Q 1613 -88 1381 -88 
Q 913 -88 563 304 
Q 213 697 213 1313 
Q 213 1928 600 2439 
Q 988 2950 1597 2950 
Q 1975 2950 2222 2709 
L 2222 3238 
Q 2222 3728 2198 3840 
Q 2175 3953 2125 3993 
Q 2075 4034 2000 4034 
Q 1919 4034 1784 3984 
L 1744 4094 
L 2597 4444 
L 2738 4444 
L 2738 1134 
Q 2738 631 2761 520 
Q 2784 409 2836 365 
Q 2888 322 2956 322 
Q 3041 322 3181 375 
L 3216 266 
L 2366 -88 
L 2222 -88 
L 2222 322 
z
M 2222 541 
L 2222 2016 
Q 2203 2228 2109 2403 
Q 2016 2578 1861 2667 
Q 1706 2756 1559 2756 
Q 1284 2756 1069 2509 
Q 784 2184 784 1559 
Q 784 928 1059 592 
Q 1334 256 1672 256 
Q 1956 256 2222 541 
z
" transform="scale(0.015625)"/>
      <path id="TimesNewRomanPSMT-6c" d="M 1184 4444 
L 1184 647 
Q 1184 378 1223 290 
Q 1263 203 1344 158 
Q 1425 113 1647 113 
L 1647 0 
L 244 0 
L 244 113 
Q 441 113 512 153 
Q 584 194 625 287 
Q 666 381 666 647 
L 666 3247 
Q 666 3731 644 3842 
Q 622 3953 573 3993 
Q 525 4034 450 4034 
Q 369 4034 244 3984 
L 191 4094 
L 1044 4444 
L 1184 4444 
z
" transform="scale(0.015625)"/>
      <path id="TimesNewRomanPSMT-28" d="M 1988 -1253 
L 1988 -1369 
Q 1516 -1131 1200 -813 
Q 750 -359 506 256 
Q 263 872 263 1534 
Q 263 2503 741 3301 
Q 1219 4100 1988 4444 
L 1988 4313 
Q 1603 4100 1356 3731 
Q 1109 3363 987 2797 
Q 866 2231 866 1616 
Q 866 947 969 400 
Q 1050 -31 1165 -292 
Q 1281 -553 1476 -793 
Q 1672 -1034 1988 -1253 
z
" transform="scale(0.015625)"/>
      <path id="TimesNewRomanPSMT-2b" d="M 1672 441 
L 1672 2000 
L 116 2000 
L 116 2256 
L 1672 2256 
L 1672 3809 
L 1922 3809 
L 1922 2256 
L 3484 2256 
L 3484 2000 
L 1922 2000 
L 1922 441 
L 1672 441 
z
" transform="scale(0.015625)"/>
      <path id="TimesNewRomanPSMT-38" d="M 1228 2134 
Q 725 2547 579 2797 
Q 434 3047 434 3316 
Q 434 3728 753 4026 
Q 1072 4325 1600 4325 
Q 2113 4325 2425 4047 
Q 2738 3769 2738 3413 
Q 2738 3175 2569 2928 
Q 2400 2681 1866 2347 
Q 2416 1922 2594 1678 
Q 2831 1359 2831 1006 
Q 2831 559 2490 242 
Q 2150 -75 1597 -75 
Q 994 -75 656 303 
Q 388 606 388 966 
Q 388 1247 577 1523 
Q 766 1800 1228 2134 
z
M 1719 2469 
Q 2094 2806 2194 3001 
Q 2294 3197 2294 3444 
Q 2294 3772 2109 3958 
Q 1925 4144 1606 4144 
Q 1288 4144 1088 3959 
Q 888 3775 888 3528 
Q 888 3366 970 3203 
Q 1053 3041 1206 2894 
L 1719 2469 
z
M 1375 2016 
Q 1116 1797 991 1539 
Q 866 1281 866 981 
Q 866 578 1086 336 
Q 1306 94 1647 94 
Q 1984 94 2187 284 
Q 2391 475 2391 747 
Q 2391 972 2272 1150 
Q 2050 1481 1375 2016 
z
" transform="scale(0.015625)"/>
      <path id="TimesNewRomanPSMT-29" d="M 144 4313 
L 144 4444 
Q 619 4209 934 3891 
Q 1381 3434 1625 2820 
Q 1869 2206 1869 1541 
Q 1869 572 1392 -226 
Q 916 -1025 144 -1369 
L 144 -1253 
Q 528 -1038 776 -670 
Q 1025 -303 1145 264 
Q 1266 831 1266 1447 
Q 1266 2113 1163 2663 
Q 1084 3094 967 3353 
Q 850 3613 656 3853 
Q 463 4094 144 4313 
z
" transform="scale(0.015625)"/>
      <path id="TimesNewRomanPSMT-61" d="M 1822 413 
Q 1381 72 1269 19 
Q 1100 -59 909 -59 
Q 613 -59 420 144 
Q 228 347 228 678 
Q 228 888 322 1041 
Q 450 1253 767 1440 
Q 1084 1628 1822 1897 
L 1822 2009 
Q 1822 2438 1686 2597 
Q 1550 2756 1291 2756 
Q 1094 2756 978 2650 
Q 859 2544 859 2406 
L 866 2225 
Q 866 2081 792 2003 
Q 719 1925 600 1925 
Q 484 1925 411 2006 
Q 338 2088 338 2228 
Q 338 2497 613 2722 
Q 888 2947 1384 2947 
Q 1766 2947 2009 2819 
Q 2194 2722 2281 2516 
Q 2338 2381 2338 1966 
L 2338 994 
Q 2338 584 2353 492 
Q 2369 400 2405 369 
Q 2441 338 2488 338 
Q 2538 338 2575 359 
Q 2641 400 2828 588 
L 2828 413 
Q 2478 -56 2159 -56 
Q 2006 -56 1915 50 
Q 1825 156 1822 413 
z
M 1822 616 
L 1822 1706 
Q 1350 1519 1213 1441 
Q 966 1303 859 1153 
Q 753 1003 753 825 
Q 753 600 887 451 
Q 1022 303 1197 303 
Q 1434 303 1822 616 
z
" transform="scale(0.015625)"/>
      <path id="TimesNewRomanPSMT-2d" d="M 259 1672 
L 1875 1672 
L 1875 1200 
L 259 1200 
L 259 1672 
z
" transform="scale(0.015625)"/>
      <path id="TimesNewRomanPSMT-67" d="M 966 1044 
Q 703 1172 562 1401 
Q 422 1631 422 1909 
Q 422 2334 742 2640 
Q 1063 2947 1563 2947 
Q 1972 2947 2272 2747 
L 2878 2747 
Q 3013 2747 3034 2739 
Q 3056 2731 3066 2713 
Q 3084 2684 3084 2613 
Q 3084 2531 3069 2500 
Q 3059 2484 3036 2475 
Q 3013 2466 2878 2466 
L 2506 2466 
Q 2681 2241 2681 1891 
Q 2681 1491 2375 1206 
Q 2069 922 1553 922 
Q 1341 922 1119 984 
Q 981 866 932 777 
Q 884 688 884 625 
Q 884 572 936 522 
Q 988 472 1138 450 
Q 1225 438 1575 428 
Q 2219 413 2409 384 
Q 2700 344 2873 169 
Q 3047 -6 3047 -263 
Q 3047 -616 2716 -925 
Q 2228 -1381 1444 -1381 
Q 841 -1381 425 -1109 
Q 191 -953 191 -784 
Q 191 -709 225 -634 
Q 278 -519 444 -313 
Q 466 -284 763 25 
Q 600 122 533 198 
Q 466 275 466 372 
Q 466 481 555 628 
Q 644 775 966 1044 
z
M 1509 2797 
Q 1278 2797 1122 2612 
Q 966 2428 966 2047 
Q 966 1553 1178 1281 
Q 1341 1075 1591 1075 
Q 1828 1075 1981 1253 
Q 2134 1431 2134 1813 
Q 2134 2309 1919 2591 
Q 1759 2797 1509 2797 
z
M 934 0 
Q 788 -159 713 -296 
Q 638 -434 638 -550 
Q 638 -700 819 -813 
Q 1131 -1006 1722 -1006 
Q 2284 -1006 2551 -807 
Q 2819 -609 2819 -384 
Q 2819 -222 2659 -153 
Q 2497 -84 2016 -72 
Q 1313 -53 934 0 
z
" transform="scale(0.015625)"/>
     </defs>
     <use xlink:href="#TimesNewRomanPSMT-4c"/>
     <use xlink:href="#TimesNewRomanPSMT-6f" transform="translate(61.083984 0)"/>
     <use xlink:href="#TimesNewRomanPSMT-73" transform="translate(111.083984 0)"/>
     <use xlink:href="#TimesNewRomanPSMT-73" transform="translate(150 0)"/>
     <use xlink:href="#TimesNewRomanPSMT-20" transform="translate(188.916016 0)"/>
     <use xlink:href="#TimesNewRomanPSMT-6f" transform="translate(213.916016 0)"/>
     <use xlink:href="#TimesNewRomanPSMT-66" transform="translate(263.916016 0)"/>
     <use xlink:href="#TimesNewRomanPSMT-20" transform="translate(297.216797 0)"/>
     <use xlink:href="#TimesNewRomanPSMT-74" transform="translate(322.216797 0)"/>
     <use xlink:href="#TimesNewRomanPSMT-68" transform="translate(350 0)"/>
     <use xlink:href="#TimesNewRomanPSMT-65" transform="translate(400 0)"/>
     <use xlink:href="#TimesNewRomanPSMT-20" transform="translate(444.384766 0)"/>
     <use xlink:href="#TimesNewRomanPSMT-30" transform="translate(469.384766 0)"/>
     <use xlink:href="#TimesNewRomanPSMT-39" transform="translate(519.384766 0)"/>
     <use xlink:href="#TimesNewRomanPSMT-5f" transform="translate(569.384766 0)"/>
     <use xlink:href="#TimesNewRomanPSMT-30" transform="translate(619.384766 0)"/>
     <use xlink:href="#TimesNewRomanPSMT-37" transform="translate(669.384766 0)"/>
     <use xlink:href="#TimesNewRomanPSMT-5f" transform="translate(719.384766 0)"/>
     <use xlink:href="#TimesNewRomanPSMT-32" transform="translate(769.384766 0)"/>
     <use xlink:href="#TimesNewRomanPSMT-35" transform="translate(819.384766 0)"/>
     <use xlink:href="#TimesNewRomanPSMT-5f" transform="translate(869.384766 0)"/>
     <use xlink:href="#TimesNewRomanPSMT-43" transform="translate(919.384766 0)"/>
     <use xlink:href="#TimesNewRomanPSMT-49" transform="translate(986.083984 0)"/>
     <use xlink:href="#TimesNewRomanPSMT-4e" transform="translate(1019.384766 0)"/>
     <use xlink:href="#TimesNewRomanPSMT-49" transform="translate(1091.601562 0)"/>
     <use xlink:href="#TimesNewRomanPSMT-43" transform="translate(1124.902344 0)"/>
     <use xlink:href="#TimesNewRomanPSMT-31" transform="translate(1191.601562 0)"/>
     <use xlink:href="#TimesNewRomanPSMT-30" transform="translate(1241.601562 0)"/>
     <use xlink:href="#TimesNewRomanPSMT-5f" transform="translate(1291.601562 0)"/>
     <use xlink:href="#TimesNewRomanPSMT-74" transform="translate(1341.601562 0)"/>
     <use xlink:href="#TimesNewRomanPSMT-6f" transform="translate(1369.384766 0)"/>
     <use xlink:href="#TimesNewRomanPSMT-72" transform="translate(1419.384766 0)"/>
     <use xlink:href="#TimesNewRomanPSMT-63" transform="translate(1452.685547 0)"/>
     <use xlink:href="#TimesNewRomanPSMT-68" transform="translate(1497.070312 0)"/>
     <use xlink:href="#TimesNewRomanPSMT-5f" transform="translate(1547.070312 0)"/>
     <use xlink:href="#TimesNewRomanPSMT-6d" transform="translate(1597.070312 0)"/>
     <use xlink:href="#TimesNewRomanPSMT-6f" transform="translate(1674.853516 0)"/>
     <use xlink:href="#TimesNewRomanPSMT-64" transform="translate(1724.853516 0)"/>
     <use xlink:href="#TimesNewRomanPSMT-65" transform="translate(1774.853516 0)"/>
     <use xlink:href="#TimesNewRomanPSMT-6c" transform="translate(1819.238281 0)"/>
     <use xlink:href="#TimesNewRomanPSMT-5f" transform="translate(1847.021484 0)"/>
     <use xlink:href="#TimesNewRomanPSMT-28" transform="translate(1897.021484 0)"/>
     <use xlink:href="#TimesNewRomanPSMT-31" transform="translate(1930.322266 0)"/>
     <use xlink:href="#TimesNewRomanPSMT-30" transform="translate(1980.322266 0)"/>
     <use xlink:href="#TimesNewRomanPSMT-32" transform="translate(2030.322266 0)"/>
     <use xlink:href="#TimesNewRomanPSMT-34" transform="translate(2080.322266 0)"/>
     <use xlink:href="#TimesNewRomanPSMT-2b" transform="translate(2130.322266 0)"/>
     <use xlink:href="#TimesNewRomanPSMT-38" transform="translate(2186.71875 0)"/>
     <use xlink:href="#TimesNewRomanPSMT-31" transform="translate(2236.71875 0)"/>
     <use xlink:href="#TimesNewRomanPSMT-39" transform="translate(2286.71875 0)"/>
     <use xlink:href="#TimesNewRomanPSMT-32" transform="translate(2336.71875 0)"/>
     <use xlink:href="#TimesNewRomanPSMT-2e" transform="translate(2386.71875 0)"/>
     <use xlink:href="#TimesNewRomanPSMT-32" transform="translate(2411.71875 0)"/>
     <use xlink:href="#TimesNewRomanPSMT-2b" transform="translate(2461.71875 0)"/>
     <use xlink:href="#TimesNewRomanPSMT-31" transform="translate(2518.115234 0)"/>
     <use xlink:href="#TimesNewRomanPSMT-29" transform="translate(2568.115234 0)"/>
     <use xlink:href="#TimesNewRomanPSMT-5f" transform="translate(2601.416016 0)"/>
     <use xlink:href="#TimesNewRomanPSMT-63" transform="translate(2651.416016 0)"/>
     <use xlink:href="#TimesNewRomanPSMT-61" transform="translate(2695.800781 0)"/>
     <use xlink:href="#TimesNewRomanPSMT-74" transform="translate(2740.185547 0)"/>
     <use xlink:href="#TimesNewRomanPSMT-2d" transform="translate(2767.96875 0)"/>
     <use xlink:href="#TimesNewRomanPSMT-64" transform="translate(2801.269531 0)"/>
     <use xlink:href="#TimesNewRomanPSMT-6f" transform="translate(2851.269531 0)"/>
     <use xlink:href="#TimesNewRomanPSMT-67" transform="translate(2901.269531 0)"/>
    </g>
   </g>
   <g id="legend_1">
    <g id="patch_7">
     <path d="M 233.607063 125.384625 
L 434.164563 125.384625 
Q 438.564563 125.384625 438.564563 120.984625 
L 438.564563 60.9315 
Q 438.564563 56.5315 434.164563 56.5315 
L 233.607063 56.5315 
Q 229.207063 56.5315 229.207063 60.9315 
L 229.207063 120.984625 
Q 229.207063 125.384625 233.607063 125.384625 
z
" style="fill: #ffffff; opacity: 0.8; stroke: #cccccc; stroke-linejoin: miter"/>
    </g>
    <g id="line2d_19">
     <path d="M 238.007063 73.0315 
L 260.007063 73.0315 
L 282.007063 73.0315 
" style="fill: none; stroke: #ffa500; stroke-width: 1.5; stroke-linecap: square"/>
    </g>
    <g id="text_12">
     <!-- Training loss -->
     <g transform="translate(299.607063 80.7315) scale(0.22 -0.22)">
      <defs>
       <path id="TimesNewRomanPSMT-54" d="M 3703 4238 
L 3750 3244 
L 3631 3244 
Q 3597 3506 3538 3619 
Q 3441 3800 3280 3886 
Q 3119 3972 2856 3972 
L 2259 3972 
L 2259 734 
Q 2259 344 2344 247 
Q 2463 116 2709 116 
L 2856 116 
L 2856 0 
L 1059 0 
L 1059 116 
L 1209 116 
Q 1478 116 1591 278 
Q 1659 378 1659 734 
L 1659 3972 
L 1150 3972 
Q 853 3972 728 3928 
Q 566 3869 450 3700 
Q 334 3531 313 3244 
L 194 3244 
L 244 4238 
L 3703 4238 
z
" transform="scale(0.015625)"/>
       <path id="TimesNewRomanPSMT-69" d="M 928 4444 
Q 1059 4444 1151 4351 
Q 1244 4259 1244 4128 
Q 1244 3997 1151 3903 
Q 1059 3809 928 3809 
Q 797 3809 703 3903 
Q 609 3997 609 4128 
Q 609 4259 701 4351 
Q 794 4444 928 4444 
z
M 1188 2947 
L 1188 647 
Q 1188 378 1227 289 
Q 1266 200 1342 156 
Q 1419 113 1622 113 
L 1622 0 
L 231 0 
L 231 113 
Q 441 113 512 153 
Q 584 194 626 287 
Q 669 381 669 647 
L 669 1750 
Q 669 2216 641 2353 
Q 619 2453 572 2492 
Q 525 2531 444 2531 
Q 356 2531 231 2484 
L 188 2597 
L 1050 2947 
L 1188 2947 
z
" transform="scale(0.015625)"/>
       <path id="TimesNewRomanPSMT-6e" d="M 1034 2341 
Q 1538 2947 1994 2947 
Q 2228 2947 2397 2830 
Q 2566 2713 2666 2444 
Q 2734 2256 2734 1869 
L 2734 647 
Q 2734 375 2778 278 
Q 2813 200 2889 156 
Q 2966 113 3172 113 
L 3172 0 
L 1756 0 
L 1756 113 
L 1816 113 
Q 2016 113 2095 173 
Q 2175 234 2206 353 
Q 2219 400 2219 647 
L 2219 1819 
Q 2219 2209 2117 2386 
Q 2016 2563 1775 2563 
Q 1403 2563 1034 2156 
L 1034 647 
Q 1034 356 1069 288 
Q 1113 197 1189 155 
Q 1266 113 1500 113 
L 1500 0 
L 84 0 
L 84 113 
L 147 113 
Q 366 113 442 223 
Q 519 334 519 647 
L 519 1709 
Q 519 2225 495 2337 
Q 472 2450 423 2490 
Q 375 2531 294 2531 
Q 206 2531 84 2484 
L 38 2597 
L 900 2947 
L 1034 2947 
L 1034 2341 
z
" transform="scale(0.015625)"/>
      </defs>
      <use xlink:href="#TimesNewRomanPSMT-54"/>
      <use xlink:href="#TimesNewRomanPSMT-72" transform="translate(57.583984 0)"/>
      <use xlink:href="#TimesNewRomanPSMT-61" transform="translate(90.884766 0)"/>
      <use xlink:href="#TimesNewRomanPSMT-69" transform="translate(135.269531 0)"/>
      <use xlink:href="#TimesNewRomanPSMT-6e" transform="translate(163.052734 0)"/>
      <use xlink:href="#TimesNewRomanPSMT-69" transform="translate(213.052734 0)"/>
      <use xlink:href="#TimesNewRomanPSMT-6e" transform="translate(240.835938 0)"/>
      <use xlink:href="#TimesNewRomanPSMT-67" transform="translate(290.835938 0)"/>
      <use xlink:href="#TimesNewRomanPSMT-20" transform="translate(340.835938 0)"/>
      <use xlink:href="#TimesNewRomanPSMT-6c" transform="translate(365.835938 0)"/>
      <use xlink:href="#TimesNewRomanPSMT-6f" transform="translate(393.619141 0)"/>
      <use xlink:href="#TimesNewRomanPSMT-73" transform="translate(443.619141 0)"/>
      <use xlink:href="#TimesNewRomanPSMT-73" transform="translate(482.535156 0)"/>
     </g>
    </g>
    <g id="line2d_20">
     <path d="M 238.007063 104.178687 
L 260.007063 104.178687 
L 282.007063 104.178687 
" style="fill: none; stroke: #008000; stroke-width: 1.5; stroke-linecap: square"/>
    </g>
    <g id="text_13">
     <!-- Validation loss -->
     <g transform="translate(299.607063 111.878687) scale(0.22 -0.22)">
      <defs>
       <path id="TimesNewRomanPSMT-56" d="M 4544 4238 
L 4544 4122 
Q 4319 4081 4203 3978 
Q 4038 3825 3909 3509 
L 2431 -97 
L 2316 -97 
L 728 3556 
Q 606 3838 556 3900 
Q 478 3997 364 4051 
Q 250 4106 56 4122 
L 56 4238 
L 1788 4238 
L 1788 4122 
Q 1494 4094 1406 4022 
Q 1319 3950 1319 3838 
Q 1319 3681 1463 3350 
L 2541 866 
L 3541 3319 
Q 3688 3681 3688 3822 
Q 3688 3913 3597 3995 
Q 3506 4078 3291 4113 
Q 3275 4116 3238 4122 
L 3238 4238 
L 4544 4238 
z
" transform="scale(0.015625)"/>
      </defs>
      <use xlink:href="#TimesNewRomanPSMT-56"/>
      <use xlink:href="#TimesNewRomanPSMT-61" transform="translate(61.091797 0)"/>
      <use xlink:href="#TimesNewRomanPSMT-6c" transform="translate(105.476562 0)"/>
      <use xlink:href="#TimesNewRomanPSMT-69" transform="translate(133.259766 0)"/>
      <use xlink:href="#TimesNewRomanPSMT-64" transform="translate(161.042969 0)"/>
      <use xlink:href="#TimesNewRomanPSMT-61" transform="translate(211.042969 0)"/>
      <use xlink:href="#TimesNewRomanPSMT-74" transform="translate(255.427734 0)"/>
      <use xlink:href="#TimesNewRomanPSMT-69" transform="translate(283.210938 0)"/>
      <use xlink:href="#TimesNewRomanPSMT-6f" transform="translate(310.994141 0)"/>
      <use xlink:href="#TimesNewRomanPSMT-6e" transform="translate(360.994141 0)"/>
      <use xlink:href="#TimesNewRomanPSMT-20" transform="translate(410.994141 0)"/>
      <use xlink:href="#TimesNewRomanPSMT-6c" transform="translate(435.994141 0)"/>
      <use xlink:href="#TimesNewRomanPSMT-6f" transform="translate(463.777344 0)"/>
      <use xlink:href="#TimesNewRomanPSMT-73" transform="translate(513.777344 0)"/>
      <use xlink:href="#TimesNewRomanPSMT-73" transform="translate(552.693359 0)"/>
     </g>
    </g>
   </g>
  </g>
 </g>
 <defs>
  <clipPath id="p3041f82af4">
   <rect x="218.207063" y="45.5315" width="357.12" height="266.112"/>
  </clipPath>
 </defs>
</svg>
