<?xml version="1.0" encoding="utf-8" standalone="no"?>
<!DOCTYPE svg PUBLIC "-//W3C//DTD SVG 1.1//EN"
  "http://www.w3.org/Graphics/SVG/1.1/DTD/svg11.dtd">
<svg xmlns:xlink="http://www.w3.org/1999/xlink" width="793.534125pt" height="383.265687pt" viewBox="0 0 793.534125 383.265687" xmlns="http://www.w3.org/2000/svg" version="1.1">
 <metadata>
  <rdf:RDF xmlns:dc="http://purl.org/dc/elements/1.1/" xmlns:cc="http://creativecommons.org/ns#" xmlns:rdf="http://www.w3.org/1999/02/22-rdf-syntax-ns#">
   <cc:Work>
    <dc:type rdf:resource="http://purl.org/dc/dcmitype/StillImage"/>
    <dc:date>2025-07-12T13:23:44.159183</dc:date>
    <dc:format>image/svg+xml</dc:format>
    <dc:creator>
     <cc:Agent>
      <dc:title>Matplotlib v3.10.3, https://matplotlib.org/</dc:title>
     </cc:Agent>
    </dc:creator>
   </cc:Work>
  </rdf:RDF>
 </metadata>
 <defs>
  <style type="text/css">*{stroke-linejoin: round; stroke-linecap: butt}</style>
 </defs>
 <g id="figure_1">
  <g id="patch_1">
   <path d="M 0 383.265687 
L 793.534125 383.265687 
L 793.534125 0 
L 0 0 
z
" style="fill: #ffffff"/>
  </g>
  <g id="axes_1">
   <g id="patch_2">
    <path d="M 218.207063 311.6435 
L 575.327063 311.6435 
L 575.327063 45.5315 
L 218.207063 45.5315 
z
" style="fill: #ffffff"/>
   </g>
   <g id="matplotlib.axis_1">
    <g id="xtick_1">
     <g id="line2d_1">
      <path d="M 218.207063 311.6435 
L 218.207063 45.5315 
" clip-path="url(#peaa8033c71)" style="fill: none; stroke: #b0b0b0; stroke-opacity: 0.3; stroke-width: 0.8; stroke-linecap: square"/>
     </g>
     <g id="line2d_2">
      <defs>
       <path id="m15aa96717a" d="M 0 0 
L 0 3.5 
" style="stroke: #000000; stroke-width: 0.8"/>
      </defs>
      <g>
       <use xlink:href="#m15aa96717a" x="218.207063" y="311.6435" style="stroke: #000000; stroke-width: 0.8"/>
      </g>
     </g>
     <g id="text_1">
      <!-- 0.0 -->
      <g transform="translate(204.457063 333.91975) scale(0.22 -0.22)">
       <defs>
        <path id="TimesNewRomanPSMT-30" d="M 231 2094 
Q 231 2819 450 3342 
Q 669 3866 1031 4122 
Q 1313 4325 1613 4325 
Q 2100 4325 2488 3828 
Q 2972 3213 2972 2159 
Q 2972 1422 2759 906 
Q 2547 391 2217 158 
Q 1888 -75 1581 -75 
Q 975 -75 572 641 
Q 231 1244 231 2094 
z
M 844 2016 
Q 844 1141 1059 588 
Q 1238 122 1591 122 
Q 1759 122 1940 273 
Q 2122 425 2216 781 
Q 2359 1319 2359 2297 
Q 2359 3022 2209 3506 
Q 2097 3866 1919 4016 
Q 1791 4119 1609 4119 
Q 1397 4119 1231 3928 
Q 1006 3669 925 3112 
Q 844 2556 844 2016 
z
" transform="scale(0.015625)"/>
        <path id="TimesNewRomanPSMT-2e" d="M 800 606 
Q 947 606 1047 504 
Q 1147 403 1147 259 
Q 1147 116 1045 14 
Q 944 -88 800 -88 
Q 656 -88 554 14 
Q 453 116 453 259 
Q 453 406 554 506 
Q 656 606 800 606 
z
" transform="scale(0.015625)"/>
       </defs>
       <use xlink:href="#TimesNewRomanPSMT-30"/>
       <use xlink:href="#TimesNewRomanPSMT-2e" transform="translate(50 0)"/>
       <use xlink:href="#TimesNewRomanPSMT-30" transform="translate(75 0)"/>
      </g>
     </g>
    </g>
    <g id="xtick_2">
     <g id="line2d_3">
      <path d="M 344.52545 311.6435 
L 344.52545 45.5315 
" clip-path="url(#peaa8033c71)" style="fill: none; stroke: #b0b0b0; stroke-opacity: 0.3; stroke-width: 0.8; stroke-linecap: square"/>
     </g>
     <g id="line2d_4">
      <g>
       <use xlink:href="#m15aa96717a" x="344.52545" y="311.6435" style="stroke: #000000; stroke-width: 0.8"/>
      </g>
     </g>
     <g id="text_2">
      <!-- 0.5 -->
      <g transform="translate(330.77545 333.91975) scale(0.22 -0.22)">
       <defs>
        <path id="TimesNewRomanPSMT-35" d="M 2778 4238 
L 2534 3706 
L 1259 3706 
L 981 3138 
Q 1809 3016 2294 2522 
Q 2709 2097 2709 1522 
Q 2709 1188 2573 903 
Q 2438 619 2231 419 
Q 2025 219 1772 97 
Q 1413 -75 1034 -75 
Q 653 -75 479 54 
Q 306 184 306 341 
Q 306 428 378 495 
Q 450 563 559 563 
Q 641 563 702 538 
Q 763 513 909 409 
Q 1144 247 1384 247 
Q 1750 247 2026 523 
Q 2303 800 2303 1197 
Q 2303 1581 2056 1914 
Q 1809 2247 1375 2428 
Q 1034 2569 447 2591 
L 1259 4238 
L 2778 4238 
z
" transform="scale(0.015625)"/>
       </defs>
       <use xlink:href="#TimesNewRomanPSMT-30"/>
       <use xlink:href="#TimesNewRomanPSMT-2e" transform="translate(50 0)"/>
       <use xlink:href="#TimesNewRomanPSMT-35" transform="translate(75 0)"/>
      </g>
     </g>
    </g>
    <g id="xtick_3">
     <g id="line2d_5">
      <path d="M 470.843837 311.6435 
L 470.843837 45.5315 
" clip-path="url(#peaa8033c71)" style="fill: none; stroke: #b0b0b0; stroke-opacity: 0.3; stroke-width: 0.8; stroke-linecap: square"/>
     </g>
     <g id="line2d_6">
      <g>
       <use xlink:href="#m15aa96717a" x="470.843837" y="311.6435" style="stroke: #000000; stroke-width: 0.8"/>
      </g>
     </g>
     <g id="text_3">
      <!-- 1.0 -->
      <g transform="translate(457.093837 333.91975) scale(0.22 -0.22)">
       <defs>
        <path id="TimesNewRomanPSMT-31" d="M 750 3822 
L 1781 4325 
L 1884 4325 
L 1884 747 
Q 1884 391 1914 303 
Q 1944 216 2037 169 
Q 2131 122 2419 116 
L 2419 0 
L 825 0 
L 825 116 
Q 1125 122 1212 167 
Q 1300 213 1334 289 
Q 1369 366 1369 747 
L 1369 3034 
Q 1369 3497 1338 3628 
Q 1316 3728 1258 3775 
Q 1200 3822 1119 3822 
Q 1003 3822 797 3725 
L 750 3822 
z
" transform="scale(0.015625)"/>
       </defs>
       <use xlink:href="#TimesNewRomanPSMT-31"/>
       <use xlink:href="#TimesNewRomanPSMT-2e" transform="translate(50 0)"/>
       <use xlink:href="#TimesNewRomanPSMT-30" transform="translate(75 0)"/>
      </g>
     </g>
    </g>
    <g id="text_4">
     <!-- $\kappa  = \frac{ln(n)}{ln(d)}$ -->
     <g transform="translate(364.757063 364.185687) scale(0.22 -0.22)">
      <defs>
       <path id="STIXGeneral-Italic-3ba" d="M 979 1440 
L 998 1446 
Q 1850 2541 2464 2790 
Q 2547 2822 2630 2822 
Q 2797 2822 2886 2736 
Q 2976 2650 2976 2522 
Q 2976 2387 2893 2307 
Q 2810 2227 2682 2227 
Q 2605 2227 2502 2288 
Q 2400 2349 2336 2349 
Q 2170 2349 1990 2205 
Q 1811 2061 1414 1645 
L 2042 544 
Q 2202 262 2310 182 
Q 2419 102 2624 102 
L 2624 0 
Q 2374 -83 2182 -83 
Q 1786 -83 1555 326 
L 960 1350 
L 576 0 
L 90 0 
L 640 1978 
Q 730 2317 730 2406 
Q 730 2560 518 2560 
L 339 2560 
L 339 2650 
Q 678 2694 1306 2822 
L 1325 2803 
L 979 1440 
z
" transform="scale(0.015625)"/>
       <path id="STIXGeneral-Regular-3d" d="M 4077 2048 
L 307 2048 
L 307 2470 
L 4077 2470 
L 4077 2048 
z
M 4077 768 
L 307 768 
L 307 1190 
L 4077 1190 
L 4077 768 
z
" transform="scale(0.015625)"/>
       <path id="STIXGeneral-Italic-6c" d="M 1786 4339 
L 806 595 
Q 755 410 755 320 
Q 755 205 864 205 
Q 1037 205 1293 570 
L 1453 794 
L 1542 730 
Q 1254 275 1046 102 
Q 838 -70 576 -70 
Q 262 -70 262 288 
Q 262 397 288 480 
L 1165 3834 
Q 1184 3898 1184 3955 
Q 1184 4096 870 4096 
L 755 4096 
L 755 4198 
Q 1203 4250 1747 4371 
L 1786 4339 
z
" transform="scale(0.015625)"/>
       <path id="STIXGeneral-Italic-6e" d="M 2944 749 
L 3034 666 
Q 2707 218 2534 80 
Q 2362 -58 2138 -58 
Q 2010 -58 1923 28 
Q 1837 115 1837 288 
Q 1837 390 1939 768 
L 2221 1805 
Q 2310 2150 2310 2310 
Q 2310 2496 2157 2496 
Q 1971 2496 1750 2275 
Q 1530 2054 1210 1587 
Q 998 1274 899 1024 
Q 800 774 570 0 
L 90 0 
L 704 2240 
Q 717 2304 717 2349 
Q 717 2445 630 2480 
Q 544 2515 301 2522 
L 301 2624 
Q 550 2675 857 2729 
Q 1165 2784 1338 2822 
L 1363 2810 
L 934 1414 
Q 1408 2170 1753 2496 
Q 2099 2822 2413 2822 
Q 2611 2822 2720 2716 
Q 2829 2611 2829 2432 
Q 2829 2272 2765 2048 
L 2406 749 
Q 2317 429 2317 358 
Q 2317 243 2419 243 
Q 2541 243 2810 582 
Q 2854 634 2944 749 
z
" transform="scale(0.015625)"/>
       <path id="STIXGeneral-Regular-28" d="M 1946 -1030 
L 1869 -1133 
Q 1126 -710 716 32 
Q 307 774 307 1613 
Q 307 3386 1888 4326 
L 1946 4224 
Q 1293 3667 1075 3126 
Q 858 2586 858 1632 
Q 858 685 1082 96 
Q 1306 -493 1946 -1030 
z
" transform="scale(0.015625)"/>
       <path id="STIXGeneral-Regular-29" d="M 186 4224 
L 262 4326 
Q 992 3891 1408 3148 
Q 1824 2406 1824 1581 
Q 1824 -166 243 -1133 
L 186 -1030 
Q 845 -486 1059 54 
Q 1274 595 1274 1562 
Q 1274 2534 1059 3120 
Q 845 3706 186 4224 
z
" transform="scale(0.015625)"/>
       <path id="STIXGeneral-Italic-64" d="M 3334 4371 
L 3373 4333 
L 3123 3360 
L 2739 1958 
Q 2323 429 2323 384 
Q 2323 256 2438 256 
Q 2522 256 2614 336 
Q 2707 416 2963 710 
L 3040 646 
Q 2547 -83 2099 -83 
Q 1978 -83 1907 -6 
Q 1837 70 1837 205 
Q 1837 397 1920 774 
Q 1645 307 1379 118 
Q 1114 -70 781 -70 
Q 461 -70 278 125 
Q 96 320 96 678 
Q 96 1440 713 2131 
Q 1331 2822 1965 2822 
Q 2163 2822 2256 2732 
Q 2349 2643 2381 2451 
L 2387 2451 
L 2675 3494 
Q 2765 3808 2765 3949 
Q 2765 4051 2694 4076 
Q 2624 4102 2355 4115 
L 2355 4224 
Q 2848 4269 3334 4371 
z
M 2278 2310 
Q 2278 2477 2185 2576 
Q 2093 2675 1978 2675 
Q 1677 2675 1395 2381 
Q 1075 2042 864 1571 
Q 653 1101 653 704 
Q 653 486 752 361 
Q 851 237 1024 237 
Q 1312 237 1606 550 
Q 1901 864 2089 1350 
Q 2278 1837 2278 2310 
z
" transform="scale(0.015625)"/>
      </defs>
      <use xlink:href="#STIXGeneral-Italic-3ba" transform="translate(0 0.003125)"/>
      <use xlink:href="#STIXGeneral-Regular-3d" transform="translate(58.83999 0.003125)"/>
      <use xlink:href="#STIXGeneral-Italic-6c" transform="translate(141.779971 50.192188) scale(0.7)"/>
      <use xlink:href="#STIXGeneral-Italic-6e" transform="translate(161.239963 50.192188) scale(0.7)"/>
      <use xlink:href="#STIXGeneral-Regular-28" transform="translate(196.239952 50.192188) scale(0.7)"/>
      <use xlink:href="#STIXGeneral-Italic-6e" transform="translate(219.549944 50.192188) scale(0.7)"/>
      <use xlink:href="#STIXGeneral-Regular-29" transform="translate(254.549933 50.192188) scale(0.7)"/>
      <use xlink:href="#STIXGeneral-Italic-6c" transform="translate(141.779971 -41.257812) scale(0.7)"/>
      <use xlink:href="#STIXGeneral-Italic-6e" transform="translate(161.239963 -41.257812) scale(0.7)"/>
      <use xlink:href="#STIXGeneral-Regular-28" transform="translate(196.239952 -41.257812) scale(0.7)"/>
      <use xlink:href="#STIXGeneral-Italic-64" transform="translate(219.549944 -41.257812) scale(0.7)"/>
      <use xlink:href="#STIXGeneral-Regular-29" transform="translate(254.549933 -41.257812) scale(0.7)"/>
      <path d="M 141.779971 12.8 
L 141.779971 19.05 
L 277.859924 19.05 
L 277.859924 12.8 
L 141.779971 12.8 
z
"/>
     </g>
    </g>
   </g>
   <g id="matplotlib.axis_2">
    <g id="ytick_1">
     <g id="line2d_7">
      <path d="M 218.207063 311.6435 
L 575.327063 311.6435 
" clip-path="url(#peaa8033c71)" style="fill: none; stroke: #b0b0b0; stroke-opacity: 0.3; stroke-width: 0.8; stroke-linecap: square"/>
     </g>
     <g id="line2d_8">
      <defs>
       <path id="mb06615c4b5" d="M 0 0 
L -3.5 0 
" style="stroke: #000000; stroke-width: 0.8"/>
      </defs>
      <g>
       <use xlink:href="#mb06615c4b5" x="218.207063" y="311.6435" style="stroke: #000000; stroke-width: 0.8"/>
      </g>
     </g>
     <g id="text_5">
      <!-- 0.0 -->
      <g transform="translate(183.707063 319.281625) scale(0.22 -0.22)">
       <use xlink:href="#TimesNewRomanPSMT-30"/>
       <use xlink:href="#TimesNewRomanPSMT-2e" transform="translate(50 0)"/>
       <use xlink:href="#TimesNewRomanPSMT-30" transform="translate(75 0)"/>
      </g>
     </g>
    </g>
    <g id="ytick_2">
     <g id="line2d_9">
      <path d="M 218.207063 259.884177 
L 575.327063 259.884177 
" clip-path="url(#peaa8033c71)" style="fill: none; stroke: #b0b0b0; stroke-opacity: 0.3; stroke-width: 0.8; stroke-linecap: square"/>
     </g>
     <g id="line2d_10">
      <g>
       <use xlink:href="#mb06615c4b5" x="218.207063" y="259.884177" style="stroke: #000000; stroke-width: 0.8"/>
      </g>
     </g>
     <g id="text_6">
      <!-- 0.1 -->
      <g transform="translate(183.707063 267.522302) scale(0.22 -0.22)">
       <use xlink:href="#TimesNewRomanPSMT-30"/>
       <use xlink:href="#TimesNewRomanPSMT-2e" transform="translate(50 0)"/>
       <use xlink:href="#TimesNewRomanPSMT-31" transform="translate(75 0)"/>
      </g>
     </g>
    </g>
    <g id="ytick_3">
     <g id="line2d_11">
      <path d="M 218.207063 208.124854 
L 575.327063 208.124854 
" clip-path="url(#peaa8033c71)" style="fill: none; stroke: #b0b0b0; stroke-opacity: 0.3; stroke-width: 0.8; stroke-linecap: square"/>
     </g>
     <g id="line2d_12">
      <g>
       <use xlink:href="#mb06615c4b5" x="218.207063" y="208.124854" style="stroke: #000000; stroke-width: 0.8"/>
      </g>
     </g>
     <g id="text_7">
      <!-- 0.2 -->
      <g transform="translate(183.707063 215.762979) scale(0.22 -0.22)">
       <defs>
        <path id="TimesNewRomanPSMT-32" d="M 2934 816 
L 2638 0 
L 138 0 
L 138 116 
Q 1241 1122 1691 1759 
Q 2141 2397 2141 2925 
Q 2141 3328 1894 3587 
Q 1647 3847 1303 3847 
Q 991 3847 742 3664 
Q 494 3481 375 3128 
L 259 3128 
Q 338 3706 661 4015 
Q 984 4325 1469 4325 
Q 1984 4325 2329 3994 
Q 2675 3663 2675 3213 
Q 2675 2891 2525 2569 
Q 2294 2063 1775 1497 
Q 997 647 803 472 
L 1909 472 
Q 2247 472 2383 497 
Q 2519 522 2628 598 
Q 2738 675 2819 816 
L 2934 816 
z
" transform="scale(0.015625)"/>
       </defs>
       <use xlink:href="#TimesNewRomanPSMT-30"/>
       <use xlink:href="#TimesNewRomanPSMT-2e" transform="translate(50 0)"/>
       <use xlink:href="#TimesNewRomanPSMT-32" transform="translate(75 0)"/>
      </g>
     </g>
    </g>
    <g id="ytick_4">
     <g id="line2d_13">
      <path d="M 218.207063 156.365531 
L 575.327063 156.365531 
" clip-path="url(#peaa8033c71)" style="fill: none; stroke: #b0b0b0; stroke-opacity: 0.3; stroke-width: 0.8; stroke-linecap: square"/>
     </g>
     <g id="line2d_14">
      <g>
       <use xlink:href="#mb06615c4b5" x="218.207063" y="156.365531" style="stroke: #000000; stroke-width: 0.8"/>
      </g>
     </g>
     <g id="text_8">
      <!-- 0.3 -->
      <g transform="translate(183.707063 164.003656) scale(0.22 -0.22)">
       <defs>
        <path id="TimesNewRomanPSMT-33" d="M 325 3431 
Q 506 3859 782 4092 
Q 1059 4325 1472 4325 
Q 1981 4325 2253 3994 
Q 2459 3747 2459 3466 
Q 2459 3003 1878 2509 
Q 2269 2356 2469 2072 
Q 2669 1788 2669 1403 
Q 2669 853 2319 450 
Q 1863 -75 997 -75 
Q 569 -75 414 31 
Q 259 138 259 259 
Q 259 350 332 419 
Q 406 488 509 488 
Q 588 488 669 463 
Q 722 447 909 348 
Q 1097 250 1169 231 
Q 1284 197 1416 197 
Q 1734 197 1970 444 
Q 2206 691 2206 1028 
Q 2206 1275 2097 1509 
Q 2016 1684 1919 1775 
Q 1784 1900 1550 2001 
Q 1316 2103 1072 2103 
L 972 2103 
L 972 2197 
Q 1219 2228 1467 2375 
Q 1716 2522 1828 2728 
Q 1941 2934 1941 3181 
Q 1941 3503 1739 3701 
Q 1538 3900 1238 3900 
Q 753 3900 428 3381 
L 325 3431 
z
" transform="scale(0.015625)"/>
       </defs>
       <use xlink:href="#TimesNewRomanPSMT-30"/>
       <use xlink:href="#TimesNewRomanPSMT-2e" transform="translate(50 0)"/>
       <use xlink:href="#TimesNewRomanPSMT-33" transform="translate(75 0)"/>
      </g>
     </g>
    </g>
    <g id="ytick_5">
     <g id="line2d_15">
      <path d="M 218.207063 104.606208 
L 575.327063 104.606208 
" clip-path="url(#peaa8033c71)" style="fill: none; stroke: #b0b0b0; stroke-opacity: 0.3; stroke-width: 0.8; stroke-linecap: square"/>
     </g>
     <g id="line2d_16">
      <g>
       <use xlink:href="#mb06615c4b5" x="218.207063" y="104.606208" style="stroke: #000000; stroke-width: 0.8"/>
      </g>
     </g>
     <g id="text_9">
      <!-- 0.4 -->
      <g transform="translate(183.707063 112.244333) scale(0.22 -0.22)">
       <defs>
        <path id="TimesNewRomanPSMT-34" d="M 2978 1563 
L 2978 1119 
L 2409 1119 
L 2409 0 
L 1894 0 
L 1894 1119 
L 100 1119 
L 100 1519 
L 2066 4325 
L 2409 4325 
L 2409 1563 
L 2978 1563 
z
M 1894 1563 
L 1894 3666 
L 406 1563 
L 1894 1563 
z
" transform="scale(0.015625)"/>
       </defs>
       <use xlink:href="#TimesNewRomanPSMT-30"/>
       <use xlink:href="#TimesNewRomanPSMT-2e" transform="translate(50 0)"/>
       <use xlink:href="#TimesNewRomanPSMT-34" transform="translate(75 0)"/>
      </g>
     </g>
    </g>
    <g id="ytick_6">
     <g id="line2d_17">
      <path d="M 218.207063 52.846885 
L 575.327063 52.846885 
" clip-path="url(#peaa8033c71)" style="fill: none; stroke: #b0b0b0; stroke-opacity: 0.3; stroke-width: 0.8; stroke-linecap: square"/>
     </g>
     <g id="line2d_18">
      <g>
       <use xlink:href="#mb06615c4b5" x="218.207063" y="52.846885" style="stroke: #000000; stroke-width: 0.8"/>
      </g>
     </g>
     <g id="text_10">
      <!-- 0.5 -->
      <g transform="translate(183.707063 60.48501) scale(0.22 -0.22)">
       <use xlink:href="#TimesNewRomanPSMT-30"/>
       <use xlink:href="#TimesNewRomanPSMT-2e" transform="translate(50 0)"/>
       <use xlink:href="#TimesNewRomanPSMT-35" transform="translate(75 0)"/>
      </g>
     </g>
    </g>
    <g id="text_11">
     <!-- Loss -->
     <g transform="translate(175.001125 199.368906) rotate(-90) scale(0.22 -0.22)">
      <defs>
       <path id="TimesNewRomanPSMT-4c" d="M 3669 1172 
L 3772 1150 
L 3409 0 
L 128 0 
L 128 116 
L 288 116 
Q 556 116 672 291 
Q 738 391 738 753 
L 738 3488 
Q 738 3884 650 3984 
Q 528 4122 288 4122 
L 128 4122 
L 128 4238 
L 2047 4238 
L 2047 4122 
Q 1709 4125 1573 4059 
Q 1438 3994 1388 3894 
Q 1338 3794 1338 3416 
L 1338 753 
Q 1338 494 1388 397 
Q 1425 331 1503 300 
Q 1581 269 1991 269 
L 2300 269 
Q 2788 269 2984 341 
Q 3181 413 3343 595 
Q 3506 778 3669 1172 
z
" transform="scale(0.015625)"/>
       <path id="TimesNewRomanPSMT-6f" d="M 1600 2947 
Q 2250 2947 2644 2453 
Q 2978 2031 2978 1484 
Q 2978 1100 2793 706 
Q 2609 313 2286 112 
Q 1963 -88 1566 -88 
Q 919 -88 538 428 
Q 216 863 216 1403 
Q 216 1797 411 2186 
Q 606 2575 925 2761 
Q 1244 2947 1600 2947 
z
M 1503 2744 
Q 1338 2744 1170 2645 
Q 1003 2547 900 2300 
Q 797 2053 797 1666 
Q 797 1041 1045 587 
Q 1294 134 1700 134 
Q 2003 134 2200 384 
Q 2397 634 2397 1244 
Q 2397 2006 2069 2444 
Q 1847 2744 1503 2744 
z
" transform="scale(0.015625)"/>
       <path id="TimesNewRomanPSMT-73" d="M 2050 2947 
L 2050 1972 
L 1947 1972 
Q 1828 2431 1642 2597 
Q 1456 2763 1169 2763 
Q 950 2763 815 2647 
Q 681 2531 681 2391 
Q 681 2216 781 2091 
Q 878 1963 1175 1819 
L 1631 1597 
Q 2266 1288 2266 781 
Q 2266 391 1970 151 
Q 1675 -88 1309 -88 
Q 1047 -88 709 6 
Q 606 38 541 38 
Q 469 38 428 -44 
L 325 -44 
L 325 978 
L 428 978 
Q 516 541 762 319 
Q 1009 97 1316 97 
Q 1531 97 1667 223 
Q 1803 350 1803 528 
Q 1803 744 1651 891 
Q 1500 1038 1047 1263 
Q 594 1488 453 1669 
Q 313 1847 313 2119 
Q 313 2472 555 2709 
Q 797 2947 1181 2947 
Q 1350 2947 1591 2875 
Q 1750 2828 1803 2828 
Q 1853 2828 1881 2850 
Q 1909 2872 1947 2947 
L 2050 2947 
z
" transform="scale(0.015625)"/>
      </defs>
      <use xlink:href="#TimesNewRomanPSMT-4c"/>
      <use xlink:href="#TimesNewRomanPSMT-6f" transform="translate(61.083984 0)"/>
      <use xlink:href="#TimesNewRomanPSMT-73" transform="translate(111.083984 0)"/>
      <use xlink:href="#TimesNewRomanPSMT-73" transform="translate(150 0)"/>
     </g>
    </g>
   </g>
   <g id="line2d_19">
    <path d="M 218.207063 182.14977 
L 305.6216 184.069734 
L 329.190515 188.072715 
L 343.385922 189.942754 
L 353.576313 189.099906 
L 361.531259 190.1694 
L 368.057228 191.239065 
L 373.590263 193.791373 
L 378.392993 196.645279 
L 382.635916 193.850182 
L 386.436019 197.036994 
L 389.877059 198.88118 
L 393.021071 198.815259 
L 395.915283 201.641199 
L 398.596485 201.500102 
L 401.093894 202.722672 
L 403.431098 201.82042 
L 405.627419 206.278222 
L 407.698879 207.092024 
L 409.658914 209.177441 
L 411.518903 210.181732 
L 413.288565 210.293035 
L 414.976268 211.805195 
L 416.589268 212.764197 
L 418.1339 214.48386 
L 419.615725 217.578682 
L 421.03965 214.18692 
L 422.410031 215.699573 
L 423.73075 219.325162 
L 425.00528 217.850911 
L 426.236743 223.049236 
L 427.427955 221.843241 
L 428.581464 222.604913 
L 429.699584 224.203278 
L 430.784421 224.667485 
L 431.8379 226.875164 
L 432.861783 226.790794 
L 433.857687 226.394976 
L 434.827101 225.167926 
L 435.771398 230.502789 
L 436.691847 230.09231 
L 437.589622 230.951733 
L 438.465814 229.63081 
L 439.321436 234.542754 
L 440.157432 235.422631 
L 440.974682 235.775974 
L 441.774008 239.695072 
L 442.55618 238.380359 
L 443.321919 237.860821 
L 444.071901 239.525423 
L 444.806761 241.506648 
L 445.527097 240.954918 
L 446.233472 237.721961 
L 446.926417 243.941082 
L 447.606433 242.889134 
L 448.273994 244.637975 
L 448.929548 247.095146 
L 449.573519 246.579009 
L 450.20631 244.232107 
L 450.828301 247.710167 
L 452.041319 251.443053 
L 452.633017 251.206645 
L 453.215263 251.987877 
L 453.788353 250.488898 
L 454.352572 253.016494 
L 454.90819 252.409494 
L 455.455465 253.365391 
L 455.994643 256.18134 
L 456.525962 256.480262 
L 457.049646 259.166147 
L 457.565913 252.298191 
L 458.074969 256.393405 
L 458.577012 258.398417 
L 459.072235 261.047427 
L 459.560819 251.46867 
L 460.042939 259.998568 
L 460.518766 261.680523 
L 460.988461 259.107769 
L 461.45218 262.957533 
L 461.910073 263.092877 
L 462.362285 265.593389 
L 462.808954 253.358755 
L 463.250216 266.593628 
L 463.6862 266.479973 
L 464.11703 268.309878 
L 464.542827 266.561215 
L 464.963707 266.676146 
L 465.379783 269.140452 
L 465.791162 268.507232 
L 466.197949 269.306754 
L 466.600247 264.664085 
L 466.998153 261.842325 
L 467.391761 263.119459 
L 467.781165 266.046389 
L 468.166452 271.718431 
L 468.547708 271.700275 
L 468.925018 273.51587 
L 469.668118 272.381403 
L 470.034063 272.587001 
L 470.39637 274.669198 
L 470.755111 254.551364 
L 471.110356 264.086015 
L 471.462171 266.983391 
L 471.810623 264.266455 
L 472.155775 276.334491 
L 472.49769 274.83191 
L 473.172044 278.152607 
L 473.504599 278.060814 
L 473.834147 278.925378 
L 474.160743 276.760689 
L 474.484438 279.019269 
L 474.805283 279.741507 
L 475.123329 277.042505 
L 475.438623 277.600838 
L 475.751213 279.257642 
L 476.061145 279.84921 
L 476.368464 282.283915 
L 476.673213 282.684721 
L 476.975436 282.109193 
L 477.275173 282.982545 
L 477.572465 282.304354 
L 477.867351 283.6268 
L 478.450062 284.008237 
L 478.737961 282.741024 
L 479.307025 286.058334 
L 480.1443 284.998954 
L 480.419172 285.8272 
L 480.691986 285.266087 
L 481.231564 287.421478 
L 481.498386 287.307805 
L 482.026242 288.701557 
L 482.28733 287.907124 
L 482.546562 289.066457 
L 483.059558 289.941158 
L 483.313374 289.781117 
L 483.565434 290.047168 
L 484.064385 275.583532 
L 484.311323 284.859064 
L 484.556598 286.546756 
L 484.800234 279.015081 
L 485.042252 287.898034 
L 485.52152 290.089629 
L 485.758811 291.084854 
L 485.994567 292.865182 
L 486.461554 291.424764 
L 486.692822 288.492623 
L 486.922633 282.977439 
L 487.151003 290.00571 
L 487.377951 290.540529 
L 487.603495 287.675957 
L 487.827652 292.004804 
L 488.050439 291.74239 
L 488.271872 294.144158 
L 488.491968 293.762106 
L 488.710743 292.801818 
L 488.928213 294.423521 
L 489.144392 294.711984 
L 489.359297 293.920763 
L 489.572943 295.781337 
L 489.785343 295.785662 
L 489.996513 294.320689 
L 490.206466 295.947821 
L 490.415217 295.326263 
L 490.622779 295.375823 
L 490.829166 292.280118 
L 491.03439 291.041213 
L 491.238466 286.027548 
L 491.441405 294.582838 
L 491.643221 295.013091 
L 491.843925 294.914975 
L 492.04353 295.154892 
L 492.242048 294.31589 
L 492.43949 294.474356 
L 492.831195 297.210302 
L 493.02548 297.330764 
L 493.218735 298.201651 
L 493.602198 297.842673 
L 493.792427 298.341586 
L 493.981668 298.1798 
L 494.169932 298.577449 
L 494.357228 298.087066 
L 494.543567 298.225676 
L 494.728958 297.598353 
L 494.913411 294.318279 
L 495.096935 298.740857 
L 495.279539 299.303837 
L 495.461234 298.391523 
L 495.642027 299.735518 
L 496.179086 298.183479 
L 496.356362 300.187565 
L 496.532779 299.699823 
L 496.708347 300.033503 
L 496.883073 300.680662 
L 497.230032 299.752781 
L 497.402281 300.925494 
L 497.57372 300.046772 
L 497.744356 299.79727 
L 497.914197 300.25094 
L 498.08325 293.875209 
L 498.251523 301.084035 
L 498.419022 301.29823 
L 498.585755 300.809226 
L 498.751729 299.505009 
L 498.91695 300.275674 
L 499.081426 300.46936 
L 499.408168 301.53067 
L 499.570447 300.643541 
L 499.732007 302.291251 
L 499.892853 301.619736 
L 500.052993 298.882495 
L 500.371177 302.000325 
L 500.686608 302.923895 
L 500.843306 302.456265 
L 500.999332 303.16698 
L 501.154694 302.02973 
L 501.309396 303.073468 
L 501.616845 302.034893 
L 501.769602 303.682687 
L 501.921721 303.145375 
L 502.073209 303.680068 
L 502.224069 303.793978 
L 502.374307 303.128538 
L 502.523929 303.374377 
L 502.672939 304.005199 
L 502.821342 303.018543 
L 503.116348 303.477643 
L 503.262961 303.880502 
L 503.408986 303.811046 
L 503.554428 304.391596 
L 503.699292 303.207084 
L 503.843583 304.404367 
L 503.987305 303.347287 
L 504.273059 304.158561 
L 504.4151 304.585294 
L 504.556591 304.094887 
L 504.697533 304.193295 
L 504.837933 304.016256 
L 505.117121 304.22459 
L 505.255917 303.753431 
L 505.394187 304.898048 
L 505.531934 304.561959 
L 505.669162 305.287054 
L 505.942078 304.634306 
L 506.077774 305.448626 
L 506.212966 304.660991 
L 506.347659 305.529211 
L 506.481855 304.876261 
L 506.61556 305.468902 
L 506.748775 305.117499 
L 506.881506 305.937506 
L 507.013755 304.32904 
L 507.145526 305.433301 
L 507.276822 305.27825 
L 507.407647 305.772572 
L 507.538004 305.800195 
L 507.797328 306.057581 
L 507.926301 305.707925 
L 508.310505 303.134318 
L 508.564409 306.627293 
L 508.690701 306.691819 
L 508.941979 306.005645 
L 509.066972 306.177854 
L 509.315678 304.902116 
L 509.439398 302.290261 
L 509.562699 302.242994 
L 509.685584 306.747925 
L 510.051774 307.201463 
L 510.293873 306.564386 
L 510.654032 307.434125 
L 510.892176 306.910698 
L 511.010666 307.474157 
L 511.128773 307.39383 
L 511.246499 306.614014 
L 511.363845 307.573717 
L 511.480815 306.996923 
L 511.597411 307.312407 
L 511.713635 307.273479 
L 511.829489 307.060081 
L 511.944977 307.31958 
L 512.060099 307.239077 
L 512.17486 303.399326 
L 512.403302 307.329744 
L 512.630321 306.941237 
L 512.743302 307.856925 
L 512.855934 307.316002 
L 513.08016 307.469378 
L 513.191758 307.181624 
L 513.303015 307.911488 
L 513.413933 307.430797 
L 513.634763 308.08544 
L 513.854262 306.968917 
L 514.072448 307.836821 
L 514.289335 307.674147 
L 514.504939 308.089395 
L 514.612265 307.657734 
L 514.825973 308.630103 
L 514.932359 308.471245 
L 515.038435 307.972082 
L 515.249666 308.482273 
L 515.354824 307.979383 
L 515.45968 308.11707 
L 515.564235 306.849585 
L 515.66849 308.661414 
L 515.772449 308.548056 
L 515.876112 308.373458 
L 516.082557 308.745345 
L 516.185342 308.367037 
L 516.287839 308.807204 
L 516.390048 308.76543 
L 516.491972 308.168087 
L 516.593611 308.323695 
L 516.796043 308.76291 
L 516.896839 307.829044 
L 516.997357 308.63923 
L 517.097598 308.437942 
L 517.197565 308.983953 
L 517.297258 292.311827 
L 517.396679 295.818897 
L 517.49583 286.331413 
L 517.594712 263.093073 
L 517.693326 297.53765 
L 517.791674 293.5501 
L 517.889757 278.667174 
L 517.987578 306.717694 
L 518.085136 302.438938 
L 518.182434 306.988935 
L 518.279473 306.541183 
L 518.472779 308.450896 
L 518.569049 308.055303 
L 518.665065 308.86811 
L 518.760829 308.802374 
L 519.046621 309.081749 
L 519.141389 308.724877 
L 519.330189 309.203192 
L 519.424224 309.125549 
L 519.518017 309.251325 
L 519.704881 308.645459 
L 519.983393 309.5285 
L 520.167892 308.67235 
L 520.351463 309.25437 
L 520.442902 309.022631 
L 520.534113 309.504805 
L 520.625096 309.470634 
L 520.715852 309.564217 
L 520.89669 308.612914 
L 520.986774 309.422665 
L 521.076635 309.125975 
L 521.166276 309.445042 
L 521.255696 308.651821 
L 521.522649 309.675015 
L 521.699537 309.278594 
L 521.787661 309.68784 
L 521.875571 309.586627 
L 522.138039 309.685333 
L 522.311973 309.449938 
L 522.48508 309.524132 
L 522.571327 309.3796 
L 522.65737 309.746024 
L 522.74321 309.619625 
L 522.828849 309.919871 
L 522.914287 309.63202 
L 522.999525 309.902401 
L 523.084564 309.19306 
L 523.169405 309.75113 
L 523.338498 309.39532 
L 523.506809 309.836357 
L 523.674347 309.835459 
L 524.172389 309.564951 
L 524.254738 309.723105 
L 524.336902 309.489538 
L 524.500675 309.844587 
L 524.582287 309.673174 
L 524.663717 309.844805 
L 524.744964 309.674363 
L 524.826032 309.958369 
L 524.906919 309.920485 
L 525.068157 309.662925 
L 525.228685 309.989813 
L 525.308684 309.945816 
L 525.388509 309.750477 
L 525.468159 309.87504 
L 525.706069 309.389034 
L 525.863818 310.060694 
L 526.099168 309.906236 
L 526.177282 310.099711 
L 526.333009 309.64006 
L 526.410623 310.166798 
L 526.488073 309.645127 
L 526.565358 309.783116 
L 526.64248 310.144355 
L 526.796236 309.847293 
L 526.872871 310.08996 
L 526.949346 310.050097 
L 527.02566 310.014794 
L 527.177812 310.217904 
L 527.25365 309.793055 
L 527.32933 310.403674 
L 527.404854 309.809568 
L 527.555434 310.404298 
L 527.705394 310.077078 
L 527.780144 309.668636 
L 527.85474 310.151514 
L 527.929184 310.006074 
L 528.003476 309.435999 
L 528.151608 310.332812 
L 528.225449 310.195946 
L 528.29914 310.375261 
L 528.372683 310.046194 
L 528.446078 310.348471 
L 528.519325 310.329031 
L 528.592425 310.135159 
L 528.665379 310.203137 
L 528.738188 310.29058 
L 528.810851 309.926221 
L 529.027975 310.547734 
L 529.100063 310.097391 
L 529.172009 310.516288 
L 529.243813 310.306572 
L 529.386998 310.463279 
L 529.458381 310.25642 
L 529.529623 310.407344 
L 529.600727 310.121465 
L 529.74252 310.562431 
L 529.883763 310.240758 
L 530.024461 310.509415 
L 530.094607 310.472921 
L 530.164618 310.49594 
L 530.234495 310.326133 
L 530.304238 310.486053 
L 530.373848 310.384561 
L 530.512671 310.108405 
L 530.581884 310.471644 
L 530.650967 310.400321 
L 530.78874 310.486039 
L 530.994427 310.371098 
L 531.062733 310.68882 
L 531.13091 310.528601 
L 531.198961 310.153946 
L 531.266884 310.531981 
L 531.334682 310.420209 
L 531.402353 310.576375 
L 531.53732 310.174261 
L 531.604617 310.613876 
L 531.671789 310.420118 
L 531.738838 310.436736 
L 531.805764 310.065243 
L 531.872567 310.614166 
L 531.939248 310.563265 
L 532.005807 310.48898 
L 532.138562 310.756305 
L 532.204758 310.239356 
L 532.270835 310.461683 
L 532.336792 151.31621 
L 532.40263 261.314924 
L 532.468349 250.369771 
L 532.533949 290.015841 
L 532.599432 231.575578 
L 532.795178 307.93188 
L 532.860194 305.543998 
L 533.054548 309.9365 
L 533.119103 310.102305 
L 533.247871 309.876349 
L 533.376186 310.280893 
L 533.440174 310.237753 
L 533.567815 310.739663 
L 533.69501 310.236851 
L 533.758442 310.776002 
L 533.821763 310.424279 
L 533.884975 310.639542 
L 533.948077 310.402828 
L 534.01107 310.499433 
L 534.073955 310.671142 
L 534.136731 310.556328 
L 534.199399 310.559753 
L 534.261959 310.403205 
L 534.324413 310.879818 
L 534.386759 310.837394 
L 534.511133 310.850795 
L 534.573162 310.758779 
L 534.635085 310.896462 
L 534.696902 310.600669 
L 534.758616 310.644262 
L 534.881729 310.56802 
L 534.943131 310.887436 
L 535.126716 310.50208 
L 535.187706 310.706826 
L 535.248595 310.594889 
L 535.309382 310.507511 
L 535.430652 310.806329 
L 535.491136 310.377483 
L 535.55152 310.786287 
L 535.611804 310.683445 
L 535.671989 310.549654 
L 535.732074 310.784495 
L 535.792061 310.480015 
L 535.851949 310.977964 
L 535.911739 310.22252 
L 535.97143 310.555274 
L 536.031024 310.837892 
L 536.090521 310.263232 
L 536.149921 310.657844 
L 536.327542 310.858902 
L 536.445477 310.661696 
L 536.563032 310.99949 
L 536.680209 310.541399 
L 536.855271 311.011707 
L 536.971513 310.721669 
L 537.145184 310.856725 
L 537.260507 310.577245 
L 537.375467 310.872983 
L 537.432811 310.745663 
L 537.490064 310.838125 
L 537.604303 310.883738 
L 537.661288 310.75223 
L 537.718185 310.905992 
L 537.774992 310.620205 
L 537.831711 310.741148 
L 537.944886 310.901594 
L 538.001342 310.758291 
L 538.113991 310.911516 
L 538.170186 311.023915 
L 538.226294 310.890666 
L 538.282316 310.89661 
L 538.338252 310.763756 
L 538.449866 311.079801 
L 538.505546 310.591519 
L 538.56114 310.902426 
L 538.61665 310.61814 
L 538.672076 310.939567 
L 538.727417 310.810216 
L 538.837848 310.750082 
L 538.892939 310.462294 
L 538.947946 310.472829 
L 539.00287 310.974252 
L 539.057712 310.465916 
L 539.167148 310.958561 
L 539.221744 310.785686 
L 539.330689 310.422656 
L 539.4935 310.982677 
L 539.655586 310.564975 
L 539.763245 310.974102 
L 539.816955 310.825625 
L 539.870586 310.8526 
L 539.924139 311.085088 
L 539.977613 310.833988 
L 540.137565 310.409824 
L 540.296819 311.014463 
L 540.45538 310.574353 
L 540.665727 311.157129 
L 540.718124 310.416275 
L 540.770447 310.859029 
L 540.874867 311.182462 
L 540.926965 311.023452 
L 540.978988 311.009655 
L 541.030938 310.861924 
L 541.134615 310.901756 
L 541.289581 311.024905 
L 541.44389 310.884722 
L 541.546401 311.04046 
L 541.597549 311.01288 
L 541.648625 311.089872 
L 541.699629 311.008138 
L 541.852216 310.320519 
L 541.953586 311.067457 
L 542.004166 311.032816 
L 542.105116 311.066233 
L 542.155486 311.207607 
L 542.205786 310.618802 
L 542.256017 310.766547 
L 542.356273 310.93517 
L 542.406297 310.758103 
L 542.456253 310.95316 
L 542.50614 310.948712 
L 542.55596 310.829461 
L 542.655394 311.095668 
L 542.70501 310.810569 
L 542.754559 310.955314 
L 542.853454 310.953946 
L 542.902801 311.221226 
L 542.952081 310.78227 
L 543.001295 310.821736 
L 543.099524 311.117012 
L 543.148539 310.83578 
L 543.197489 310.958983 
L 543.246373 311.089344 
L 543.295191 310.818228 
L 543.441255 311.278556 
L 543.635101 310.808155 
L 543.731639 311.250947 
L 543.779812 310.532518 
L 543.827921 310.545938 
L 543.97187 311.257785 
L 544.115253 310.846687 
L 544.352977 311.296221 
L 544.400336 311.260684 
L 544.447634 310.703719 
L 544.494871 311.243925 
L 544.589161 311.285728 
L 544.636215 310.858689 
L 544.73014 311.14311 
L 544.777012 311.009128 
L 544.823824 311.004971 
L 544.870576 310.862254 
L 544.963901 311.262516 
L 545.056987 311.002715 
L 545.103441 311.319479 
L 545.149835 311.015224 
L 545.288667 311.314969 
L 545.334826 310.433075 
L 545.380928 311.113391 
L 545.472956 311.289496 
L 545.518883 311.002763 
L 545.564753 311.028117 
L 545.610564 311.320434 
L 545.656319 311.301342 
L 545.702015 311.019547 
L 545.747655 311.034376 
L 545.793237 311.194983 
L 545.838763 310.736945 
L 545.884232 311.04081 
L 545.929644 311.025895 
L 545.975 310.764411 
L 546.020299 311.186118 
L 546.065542 310.76132 
L 546.200935 311.039896 
L 546.245955 310.758528 
L 546.38068 311.192493 
L 546.425479 310.907743 
L 546.470222 310.921368 
L 546.51491 311.192031 
L 546.604123 311.064051 
L 546.648647 310.376629 
L 546.693117 311.344554 
L 546.870458 310.771408 
L 546.914658 70.102583 
L 547.002899 156.284896 
L 547.31007 291.428686 
L 547.353741 279.868004 
L 547.397359 297.276555 
L 547.48444 279.179397 
L 547.614673 304.453417 
L 547.744442 310.589717 
L 547.830699 310.458162 
L 547.873751 310.769014 
L 547.916752 310.343165 
L 547.959703 310.310972 
L 548.002603 309.168173 
L 548.045452 311.008121 
L 548.088251 301.332489 
L 548.173699 302.219733 
L 548.216348 310.671683 
L 548.258947 295.882277 
L 548.301497 306.673408 
L 548.428848 311.004108 
L 548.471199 311.154217 
L 548.597959 310.78813 
L 548.640115 311.212258 
L 548.72428 311.066718 
L 548.76629 310.955961 
L 548.808252 311.24689 
L 548.850165 310.382886 
L 548.89203 310.675335 
L 548.975617 310.656458 
L 549.017338 310.983276 
L 549.059012 310.841534 
L 549.225231 311.268007 
L 549.349401 310.869668 
L 549.390697 311.000222 
L 549.473148 311.125946 
L 549.514304 310.995977 
L 549.637494 310.991505 
L 549.71939 311.161929 
L 549.84189 311.026795 
L 549.882632 311.288875 
L 549.923329 310.858258 
L 550.045146 311.173863 
L 550.126133 310.881798 
L 550.206939 311.184441 
L 550.247275 311.024217 
L 550.327814 311.028026 
L 550.48836 311.319357 
L 550.568368 311.182841 
L 550.608306 311.216999 
L 550.688052 311.195047 
L 550.767624 310.743441 
L 550.807344 310.775338 
L 550.926248 311.206402 
L 550.965796 311.208875 
L 551.044764 310.941436 
L 551.123562 310.929365 
L 551.162897 311.363771 
L 551.202189 311.081626 
L 551.280648 311.211711 
L 551.437059 311.226832 
L 551.592803 310.930521 
L 551.631635 310.928361 
L 551.670426 311.200306 
L 551.709175 310.786091 
L 551.747884 310.505123 
L 551.786551 310.941111 
L 551.825177 310.780678 
L 551.979274 311.37556 
L 552.170984 310.950862 
L 552.209205 310.936342 
L 552.285528 311.385549 
L 552.323629 311.223858 
L 552.361691 311.24413 
L 552.437695 311.098447 
L 552.475638 311.24611 
L 552.513541 311.243025 
L 552.58923 310.82588 
L 552.664761 310.94773 
L 552.852908 311.401239 
L 552.890421 311.394264 
L 553.07741 311.112935 
L 553.226314 311.397668 
L 553.263445 311.09603 
L 553.300538 311.117337 
L 553.448534 311.411618 
L 553.632689 310.983085 
L 553.669408 311.261149 
L 553.742737 311.118507 
L 553.779346 310.849027 
L 553.852453 311.128785 
L 553.888952 311.425025 
L 553.925414 310.989445 
L 553.96184 311.408537 
L 554.034583 311.421252 
L 554.0709 311.12565 
L 554.107181 311.418624 
L 554.179635 311.283736 
L 554.251945 311.296748 
L 554.324111 310.868729 
L 554.360141 311.274169 
L 554.396135 311.282939 
L 554.432094 310.712495 
L 554.468017 311.12712 
L 554.503905 311.429498 
L 554.575575 311.284926 
L 554.611358 311.296489 
L 554.647105 310.869423 
L 554.718494 311.301814 
L 554.860855 310.738815 
L 554.931827 311.44634 
L 555.002661 311.311937 
L 555.073358 311.14167 
L 555.108655 311.304027 
L 555.143918 311.298045 
L 555.319723 310.872206 
L 555.4248 311.175212 
L 555.459759 311.158529 
L 555.494684 311.167782 
L 555.63405 311.29946 
L 555.668809 311.30882 
L 555.772886 311.025992 
L 555.807512 311.452547 
L 555.876667 311.021179 
L 555.911195 311.026596 
L 555.94569 311.459454 
L 556.014583 311.181276 
L 556.048981 311.308218 
L 556.083346 311.175162 
L 556.151979 311.023226 
L 556.254688 311.328412 
L 556.28886 311.182406 
L 556.323 311.471977 
L 556.391184 311.464182 
L 556.425228 311.029176 
L 556.493221 311.323895 
L 556.561088 311.464857 
L 556.628829 310.892634 
L 556.763933 311.323303 
L 556.797631 311.471406 
L 556.831298 311.187608 
L 556.898539 311.176055 
L 556.999168 311.044238 
L 557.032649 311.342219 
L 557.099519 311.33266 
L 557.166268 311.47786 
L 557.232894 311.050865 
L 557.398928 311.336654 
L 557.531213 311.197322 
L 557.630113 311.203389 
L 557.66302 310.907055 
L 557.695897 311.202101 
L 557.728745 311.483911 
L 557.794351 311.206771 
L 557.82711 311.205453 
L 557.85984 311.481183 
L 557.89254 311.197676 
L 557.925211 311.341386 
L 558.055603 311.063607 
L 558.153092 311.501955 
L 558.21794 311.070096 
L 558.250321 311.488109 
L 558.411795 311.061792 
L 558.54046 311.500569 
L 558.572556 311.062875 
L 558.636663 311.205538 
L 558.732612 311.363536 
L 558.796437 310.78932 
L 558.860152 311.216437 
L 558.955515 311.368053 
L 559.082279 311.082119 
L 559.240117 311.511073 
L 559.397273 311.227904 
L 559.491243 311.514272 
L 559.522513 311.357932 
L 559.647324 311.224974 
L 559.740652 311.382654 
L 559.771708 311.090303 
L 559.864719 311.237487 
L 559.988365 311.377072 
L 560.050031 310.944984 
L 560.142335 310.958831 
L 560.173052 311.534636 
L 560.265045 311.246178 
L 560.326245 311.235457 
L 560.387343 311.534431 
L 560.417853 311.390578 
L 560.509232 311.244599 
L 560.661022 311.53325 
L 560.782 311.105704 
L 560.812182 311.10636 
L 560.962719 311.536047 
L 560.992751 310.962404 
L 561.082702 311.103623 
L 561.17243 311.539619 
L 561.202291 311.252295 
L 561.232127 310.964635 
L 561.291726 311.25623 
L 561.321489 311.258117 
L 561.351228 311.112059 
L 561.380942 311.259594 
L 561.499559 311.545375 
L 561.61779 310.976799 
L 561.647288 311.255465 
L 561.706213 311.542611 
L 561.765042 311.395428 
L 561.823777 310.977356 
L 561.882417 311.124322 
L 561.911702 311.409834 
L 561.940963 310.981131 
L 561.999415 311.259404 
L 562.116039 311.26651 
L 562.145136 311.119461 
L 562.174211 311.4124 
L 562.203262 311.55694 
L 562.23229 310.976641 
L 562.319236 311.12612 
L 562.434843 311.555165 
L 562.463687 311.407937 
L 562.578837 311.128608 
L 562.636276 311.122604 
L 562.693624 311.420406 
L 562.722265 311.278578 
L 562.779478 311.418612 
L 562.808051 311.561511 
L 562.836602 311.132469 
L 562.92212 311.272927 
L 562.950581 311.277039 
L 562.979021 311.128689 
L 563.007438 311.415087 
L 563.035833 311.4192 
L 563.064206 311.564089 
L 563.092556 311.271182 
L 563.120885 311.13113 
L 563.149192 311.42234 
L 563.177477 311.273482 
L 563.20574 311.27942 
L 563.2622 311.133342 
L 563.318572 311.422968 
L 563.487169 310.988059 
L 563.515193 311.136857 
L 563.543195 182.281589 
L 563.627074 275.869038 
L 563.682885 189.477267 
L 563.710759 291.127285 
L 563.960669 311.005545 
L 563.988331 309.528502 
L 564.043592 311.162324 
L 564.09877 311.455704 
L 564.126328 310.908055 
L 564.181381 311.482437 
L 564.208876 311.469583 
L 564.236351 311.034191 
L 564.318651 311.48827 
L 564.400765 311.071631 
L 564.373414 311.504862 
L 564.428095 311.360137 
L 564.455405 311.366931 
L 564.482695 311.506328 
L 564.509964 311.225089 
L 564.537212 311.375229 
L 564.591648 311.514504 
L 564.673151 311.091284 
L 564.700278 311.505616 
L 564.754471 310.939027 
L 564.781538 311.093571 
L 564.889603 311.521478 
L 564.91657 311.379237 
L 565.051103 311.089409 
L 565.158374 311.391253 
L 565.185142 311.092045 
L 565.265329 311.384626 
L 565.292019 311.39626 
L 565.31869 310.959105 
L 565.398584 311.242517 
L 565.45175 311.25324 
L 565.504838 311.529495 
L 565.531353 311.111461 
L 565.584326 311.404541 
L 565.610783 311.40134 
L 565.690041 311.254866 
L 565.716421 311.403499 
L 565.742783 311.541844 
L 565.769126 311.397712 
L 565.874307 310.820041 
L 565.979185 311.548601 
L 566.005357 311.257507 
L 566.083762 311.115897 
L 566.161999 311.542218 
L 566.18804 311.264528 
L 566.266054 311.41278 
L 566.292021 311.549807 
L 566.31797 311.261788 
L 566.3439 311.399978 
L 566.395706 311.55728 
L 566.447438 311.265702 
L 566.499097 311.552738 
L 566.550682 311.262144 
L 566.602195 311.4141 
L 566.679328 310.982528 
L 566.807521 311.560766 
L 566.833105 311.120393 
L 566.909751 311.271631 
L 566.960759 311.128929 
L 567.037138 311.561688 
L 567.138727 310.986902 
L 567.265317 311.565969 
L 567.290583 311.558646 
L 567.341061 311.566076 
L 567.416647 311.130211 
L 567.492078 311.56552 
L 567.517186 311.422365 
L 567.542278 311.13638 
L 567.617448 311.279875 
L 567.667476 311.567377 
L 567.717435 311.428988 
L 567.792246 311.568272 
L 567.817149 311.274401 
L 567.891756 311.430953 
L 567.96621 311.569444 
L 568.015762 311.138957 
L 568.089963 311.572882 
L 568.139347 311.287182 
L 568.164014 311.287839 
L 568.213298 310.855096 
L 568.262515 311.428883 
L 568.385268 311.287668 
L 568.409769 311.574515 
L 568.434253 311.141251 
L 568.458722 311.427955 
L 568.507609 310.997937 
L 568.55643 311.575178 
L 568.653878 311.140798 
L 568.678199 311.287294 
L 568.799562 311.573731 
L 568.944667 311.29149 
L 569.017003 311.576196 
L 569.041083 311.434195 
L 569.113229 311.290038 
L 569.137245 311.433519 
L 569.161246 311.438483 
L 569.185231 311.001926 
L 569.233154 311.582232 
L 569.257092 311.28819 
L 569.328812 311.437393 
L 569.352687 311.295835 
L 569.448031 311.293994 
L 569.471828 311.585427 
L 569.519376 311.43944 
L 569.543127 311.006778 
L 569.566862 311.579885 
L 569.614286 311.290032 
L 569.732577 311.435781 
L 569.826934 311.006795 
L 569.850485 311.296661 
L 569.968013 311.585412 
L 570.061764 310.862064 
L 570.155274 311.01204 
L 570.248544 311.586882 
L 570.271825 311.300344 
L 570.388004 311.586062 
L 570.434372 311.302225 
L 570.503814 311.445923 
L 570.526932 311.445128 
L 570.596198 311.160872 
L 570.619258 311.441732 
L 570.642303 311.440296 
L 570.688349 311.590872 
L 570.71135 311.448114 
L 570.757309 311.013967 
L 570.80321 311.160519 
L 570.917711 311.591058 
L 571.009053 311.155267 
L 571.031853 311.593139 
L 571.12291 311.300661 
L 571.168353 311.593828 
L 571.25907 310.725486 
L 571.281714 311.443964 
L 571.304344 311.448727 
L 571.372149 311.589937 
L 571.417283 310.730883 
L 571.484879 311.308221 
L 571.507384 311.164632 
L 571.574813 311.30546 
L 571.597262 311.594182 
L 571.642118 311.017482 
L 571.664525 311.304287 
L 571.686919 311.163222 
L 571.709298 311.453086 
L 571.754017 311.447577 
L 571.820992 310.875941 
L 571.865574 311.16527 
L 571.998992 311.456762 
L 572.043357 311.451822 
L 572.109803 311.165496 
L 572.131925 311.599611 
L 572.154033 311.594156 
L 572.264374 311.167402 
L 572.330419 311.025372 
L 572.374382 311.598739 
L 572.440228 311.022537 
L 572.505955 311.164113 
L 572.658858 311.59687 
L 572.680649 310.877825 
L 572.724192 311.602457 
L 572.767684 311.60104 
L 572.897847 311.311935 
L 572.941131 311.603619 
L 573.027546 311.455166 
L 573.113757 311.171822 
L 573.070677 311.602593 
L 573.135278 311.457773 
L 573.156786 311.459198 
L 573.178282 311.602039 
L 573.199765 311.169084 
L 573.221235 311.310156 
L 573.264137 311.601232 
L 573.349791 311.028337 
L 573.4139 311.603104 
L 573.456576 311.17252 
L 573.584306 311.603997 
L 573.71159 311.027258 
L 573.817322 311.607188 
L 573.880614 311.0295 
L 573.922748 311.461727 
L 573.943796 311.461305 
L 573.985857 311.175169 
L 574.048858 311.319703 
L 574.111749 311.607781 
L 574.132689 311.176638 
L 574.153617 311.463974 
L 574.174532 311.031334 
L 574.216328 311.606573 
L 574.258076 311.464239 
L 574.278932 311.462813 
L 574.299776 311.031815 
L 574.320608 311.606138 
L 574.383032 311.177952 
L 574.486837 311.607925 
L 574.507562 311.463359 
L 574.528276 311.176147 
L 574.548978 311.608153 
L 574.611013 311.321297 
L 574.672943 311.60927 
L 574.652311 311.17765 
L 574.714171 311.465817 
L 574.734768 311.177597 
L 574.817038 311.319726 
L 574.837577 311.32021 
L 574.899123 311.179295 
L 574.878619 311.611375 
L 574.940096 311.322645 
L 575.021905 311.613751 
L 575.042329 311.610531 
L 575.16463 311.323874 
L 575.205306 311.468443 
L 575.225627 311.324918 
L 575.245937 310.89472 
L 575.306798 311.612758 
L 575.327063 311.469699 
" clip-path="url(#peaa8033c71)" style="fill: none; stroke: #ffa500; stroke-width: 1.5; stroke-linecap: square"/>
   </g>
   <g id="line2d_20">
    <path d="M 218.207063 182.192869 
L 305.6216 184.485512 
L 329.190515 186.053173 
L 353.576313 187.88056 
L 361.531259 187.849323 
L 373.590263 189.148797 
L 378.392993 189.2138 
L 382.635916 188.471225 
L 386.436019 189.456874 
L 389.877059 189.991228 
L 393.021071 189.610504 
L 395.915283 189.963571 
L 398.596485 189.775087 
L 401.093894 190.435421 
L 403.431098 190.289226 
L 405.627419 189.957616 
L 407.698879 190.068957 
L 409.658914 189.399615 
L 411.518903 189.598611 
L 414.976268 189.698453 
L 416.589268 188.592392 
L 419.615725 189.175992 
L 421.03965 187.760557 
L 422.410031 188.785619 
L 423.73075 188.491409 
L 425.00528 187.470782 
L 426.236743 189.162803 
L 427.427955 188.392971 
L 428.581464 188.276116 
L 429.699584 187.428786 
L 430.784421 187.952605 
L 431.8379 187.660207 
L 432.861783 188.061331 
L 433.857687 188.240143 
L 434.827101 184.727121 
L 435.771398 186.694464 
L 436.691847 187.340306 
L 437.589622 187.207045 
L 438.465814 185.080257 
L 439.321436 187.877976 
L 440.157432 186.937114 
L 440.974682 186.708424 
L 442.55618 186.92091 
L 443.321919 184.706821 
L 444.071901 185.968834 
L 444.806761 186.23281 
L 445.527097 186.154703 
L 446.233472 183.503719 
L 446.926417 184.730083 
L 447.606433 185.645886 
L 448.273994 186.039375 
L 449.573519 185.768264 
L 450.20631 183.643597 
L 450.828301 184.959421 
L 451.439856 184.670471 
L 452.041319 185.214698 
L 453.215263 184.931216 
L 453.788353 183.787717 
L 454.352572 184.089902 
L 454.90819 183.985719 
L 456.525962 184.139927 
L 457.049646 183.827978 
L 457.565913 181.150415 
L 458.074969 183.50476 
L 458.577012 184.023604 
L 459.072235 183.720609 
L 459.560819 177.4019 
L 460.042939 182.903089 
L 460.518766 182.703445 
L 460.988461 182.108723 
L 461.45218 182.44415 
L 461.910073 181.995654 
L 462.362285 183.302054 
L 462.808954 176.756097 
L 463.250216 182.616646 
L 463.6862 182.887957 
L 464.11703 182.725827 
L 464.542827 181.091783 
L 464.963707 181.639141 
L 465.379783 181.964017 
L 465.791162 181.229471 
L 466.197949 181.477528 
L 466.600247 178.344366 
L 466.998153 177.067075 
L 467.391761 176.768792 
L 467.781165 178.274612 
L 468.166452 180.698819 
L 468.547708 181.065051 
L 469.298462 181.112376 
L 469.668118 180.708984 
L 470.034063 179.062191 
L 470.39637 180.279924 
L 470.755111 166.121231 
L 471.110356 170.594543 
L 471.462171 171.688564 
L 471.810623 172.105824 
L 472.155775 179.285953 
L 472.49769 178.493762 
L 473.172044 180.217297 
L 473.504599 179.659018 
L 473.834147 179.745632 
L 474.160743 178.905237 
L 474.484438 178.515897 
L 474.805283 179.256074 
L 475.123329 177.877498 
L 475.438623 177.580357 
L 475.751213 178.176691 
L 476.061145 178.424424 
L 476.368464 179.111722 
L 476.673213 178.481653 
L 476.975436 178.325979 
L 477.275173 177.564623 
L 477.572465 178.5807 
L 477.867351 178.713637 
L 478.159871 178.259017 
L 478.450062 178.412377 
L 478.737961 176.679263 
L 479.023604 177.96129 
L 479.307025 178.532418 
L 479.588259 177.922988 
L 479.86734 177.779732 
L 480.1443 177.903984 
L 480.419172 177.389483 
L 480.691986 176.339856 
L 480.962773 177.234009 
L 481.231564 177.092758 
L 482.026242 177.363167 
L 482.546562 176.424603 
L 483.059558 176.51168 
L 483.313374 176.642766 
L 483.565434 176.073535 
L 483.815764 171.210837 
L 484.064385 169.747576 
L 484.311323 174.294298 
L 484.556598 173.050758 
L 484.800234 169.222447 
L 485.042252 173.92421 
L 485.282674 173.897817 
L 485.52152 174.888966 
L 485.758811 174.069564 
L 485.994567 175.87794 
L 486.228808 174.641896 
L 486.461554 175.521195 
L 486.692822 172.199611 
L 486.922633 170.700516 
L 487.151003 174.020203 
L 487.377951 173.17049 
L 487.603495 171.80097 
L 487.827652 174.334728 
L 488.050439 172.719819 
L 488.271872 174.915266 
L 488.491968 174.611261 
L 488.710743 173.002167 
L 488.928213 174.476427 
L 489.144392 174.301888 
L 489.359297 173.500056 
L 489.572943 174.259282 
L 489.785343 174.440917 
L 489.996513 174.341223 
L 490.206466 173.53899 
L 490.622779 173.675536 
L 490.829166 171.691973 
L 491.03439 171.006573 
L 491.238466 166.468057 
L 491.441405 172.412158 
L 491.643221 172.844241 
L 491.843925 172.167741 
L 492.04353 172.634115 
L 492.242048 172.639715 
L 492.43949 170.219534 
L 492.831195 173.137835 
L 493.02548 173.018426 
L 493.218735 172.697005 
L 493.410971 172.837254 
L 493.602198 172.50067 
L 493.792427 172.59984 
L 493.981668 172.928603 
L 494.169932 171.991197 
L 494.357228 172.426303 
L 494.728958 170.794025 
L 494.913411 170.099755 
L 495.096935 172.154769 
L 495.279539 171.817444 
L 495.461234 172.104914 
L 495.642027 171.626215 
L 495.821927 172.211565 
L 496.000944 171.070974 
L 496.179086 171.209002 
L 496.356362 171.967287 
L 496.708347 171.068969 
L 496.883073 171.514966 
L 497.056966 170.429475 
L 497.230032 170.969922 
L 497.402281 170.565204 
L 497.57372 171.49789 
L 497.914197 170.126256 
L 498.08325 168.095137 
L 498.251523 170.413494 
L 498.419022 170.067022 
L 498.585755 170.664498 
L 498.751729 168.890876 
L 498.91695 170.471201 
L 499.081426 169.22331 
L 499.245163 170.293808 
L 499.408168 170.375424 
L 499.570447 169.445684 
L 499.732007 170.597181 
L 499.892853 168.777776 
L 500.212433 167.937797 
L 500.371177 170.112944 
L 500.843306 169.395181 
L 500.999332 169.591609 
L 501.154694 168.558873 
L 501.309396 169.468822 
L 501.616845 169.189066 
L 501.921721 169.550053 
L 502.073209 169.270451 
L 502.224069 169.587892 
L 502.374307 168.619881 
L 502.523929 169.097608 
L 502.672939 168.972739 
L 502.821342 169.026373 
L 502.969144 168.750273 
L 503.116348 169.060001 
L 503.262961 168.449553 
L 503.408986 168.994057 
L 503.554428 169.04945 
L 503.699292 167.762224 
L 503.843583 168.373983 
L 503.987305 167.933031 
L 504.130462 168.579482 
L 504.273059 168.347544 
L 504.4151 168.474882 
L 504.556591 168.192395 
L 504.837933 166.665365 
L 505.117121 167.927416 
L 505.255917 166.87802 
L 505.394187 167.967568 
L 505.531934 167.636892 
L 505.669162 167.675533 
L 505.805875 167.590786 
L 505.942078 166.281887 
L 506.077774 167.767546 
L 506.212966 166.99149 
L 506.481855 167.556464 
L 506.61556 166.949163 
L 506.748775 166.880272 
L 506.881506 167.220867 
L 507.013755 164.63585 
L 507.145526 167.163469 
L 507.276822 166.408746 
L 507.407647 167.148414 
L 507.538004 167.042842 
L 507.667897 166.019608 
L 507.797328 166.728964 
L 507.926301 166.685402 
L 508.054819 164.95019 
L 508.182886 165.452552 
L 508.310505 162.598576 
L 508.564409 166.374779 
L 508.690701 166.397131 
L 508.816556 166.212318 
L 508.941979 166.231369 
L 509.066972 165.443019 
L 509.191537 165.867389 
L 509.562699 160.688037 
L 509.685584 165.881812 
L 510.051774 165.77661 
L 510.173025 165.835767 
L 510.293873 165.579658 
L 510.414322 164.994045 
L 510.534374 165.516675 
L 510.773298 165.413865 
L 510.892176 165.617342 
L 511.128773 165.277673 
L 511.246499 165.127552 
L 511.480815 165.248318 
L 511.597411 164.744214 
L 511.713635 165.147204 
L 511.829489 164.269356 
L 511.944977 164.826771 
L 512.17486 162.851168 
L 512.28926 163.064441 
L 512.403302 164.088538 
L 512.516988 164.094076 
L 512.630321 163.84753 
L 512.855934 164.697151 
L 512.96822 164.279999 
L 513.08016 164.297769 
L 513.191758 162.791163 
L 513.413933 164.411563 
L 513.524515 164.488228 
L 513.744678 162.616994 
L 513.963518 164.19357 
L 514.072448 164.258959 
L 514.181053 163.504931 
L 514.289335 163.540363 
L 514.504939 163.334078 
L 514.719276 163.66969 
L 515.038435 163.719098 
L 515.144204 163.074112 
L 515.249666 163.255902 
L 515.564235 161.443377 
L 515.66849 163.282865 
L 515.772449 163.173576 
L 515.97948 163.408645 
L 516.185342 163.013614 
L 516.287839 162.843609 
L 516.491972 163.231529 
L 516.593611 162.877407 
L 516.694967 162.908474 
L 516.796043 162.883469 
L 516.896839 160.851424 
L 516.997357 162.726237 
L 517.097598 162.545666 
L 517.197565 162.669379 
L 517.297258 151.372081 
L 517.396679 158.601772 
L 517.594712 145.047109 
L 517.791674 155.748058 
L 517.889757 148.005855 
L 517.987578 160.362436 
L 518.085136 154.732784 
L 518.279473 159.984898 
L 518.376254 159.698601 
L 518.472779 161.342016 
L 518.569049 160.75685 
L 518.665065 161.4667 
L 518.760829 161.430728 
L 518.856342 161.41757 
L 518.951606 161.264919 
L 519.046621 160.866634 
L 519.235912 161.37478 
L 519.330189 161.433705 
L 519.518017 161.352228 
L 519.797955 161.332082 
L 519.983393 160.846673 
L 520.167892 161.139233 
L 520.259793 161.290325 
L 520.534113 160.99613 
L 520.625096 161.05066 
L 520.715852 160.930757 
L 520.806383 161.070034 
L 520.89669 160.486102 
L 520.986774 161.005525 
L 521.076635 160.650106 
L 521.166276 160.741147 
L 521.255696 160.887921 
L 521.522649 160.53369 
L 521.6112 160.707304 
L 521.699537 160.569493 
L 521.963271 160.722837 
L 522.050759 160.756264 
L 522.138039 160.570896 
L 522.225109 160.734746 
L 522.311973 160.472374 
L 522.48508 160.630361 
L 522.571327 160.077003 
L 522.65737 160.49255 
L 522.74321 160.407047 
L 522.828849 160.316746 
L 522.914287 160.416719 
L 522.999525 160.21918 
L 523.084564 160.521828 
L 523.25405 160.165823 
L 523.338498 160.345067 
L 523.506809 160.202767 
L 523.757828 160.185676 
L 523.841118 160.003038 
L 523.924219 160.159591 
L 524.00713 160.100496 
L 524.089853 160.223869 
L 524.172389 160.052307 
L 524.254738 160.108194 
L 524.336902 160.026284 
L 524.418881 160.217761 
L 524.500675 160.010473 
L 524.582287 160.046353 
L 524.744964 160.02323 
L 524.826032 159.65143 
L 524.906919 159.919401 
L 525.068157 159.677221 
L 525.308684 159.776206 
L 525.468159 159.752652 
L 525.547635 159.156071 
L 525.626938 159.68714 
L 525.706069 158.837658 
L 525.785029 159.66286 
L 525.863818 159.333094 
L 525.942437 159.377581 
L 526.020887 159.587537 
L 526.099168 159.016178 
L 526.177282 159.608285 
L 526.255228 158.973912 
L 526.333009 159.47615 
L 526.410623 159.430598 
L 526.488073 158.808674 
L 526.565358 159.424444 
L 526.64248 159.286602 
L 526.872871 159.097377 
L 526.949346 159.360752 
L 527.02566 158.60896 
L 527.101815 159.202132 
L 527.177812 159.111384 
L 527.25365 159.173039 
L 527.32933 158.939652 
L 527.404854 159.229373 
L 527.705394 158.722492 
L 527.780144 159.073036 
L 527.85474 158.812777 
L 527.929184 158.864653 
L 528.003476 159.05127 
L 528.077618 158.712882 
L 528.151608 158.751091 
L 528.225449 158.871116 
L 528.29914 158.41443 
L 528.372683 158.845124 
L 528.446078 158.253326 
L 528.519325 158.577353 
L 528.592425 158.531185 
L 528.738188 158.536939 
L 528.810851 158.630031 
L 528.883369 158.326551 
L 529.027975 158.613063 
L 529.243813 158.262072 
L 529.315476 158.232008 
L 529.458381 158.378041 
L 529.529623 158.139501 
L 529.600727 158.353561 
L 529.81321 157.993453 
L 529.883763 158.240739 
L 530.024461 157.810645 
L 530.164618 157.889562 
L 530.234495 158.152335 
L 530.304238 157.76804 
L 530.373848 158.103251 
L 530.443326 157.769984 
L 530.512671 157.849687 
L 530.581884 158.016252 
L 530.719918 157.886122 
L 530.78874 157.873427 
L 530.857431 157.394867 
L 530.925994 157.812574 
L 530.994427 157.619153 
L 531.062733 157.880939 
L 531.13091 157.740336 
L 531.198961 157.703747 
L 531.266884 157.480463 
L 531.334682 157.671153 
L 531.402353 157.274363 
L 531.469899 157.587701 
L 531.53732 157.458281 
L 531.604617 157.482761 
L 531.671789 157.076362 
L 531.738838 157.588642 
L 531.805764 157.382588 
L 531.872567 157.342328 
L 531.939248 157.535563 
L 532.005807 157.093592 
L 532.072245 157.450476 
L 532.138562 157.435421 
L 532.204758 156.984503 
L 532.270835 157.160724 
L 532.336792 79.53477 
L 532.40263 132.715903 
L 532.468349 121.313758 
L 532.533949 147.462878 
L 532.599432 126.370339 
L 532.795178 154.245585 
L 532.989878 152.528051 
L 533.054548 155.208228 
L 533.119103 154.943049 
L 533.183544 154.427668 
L 533.376186 155.763854 
L 533.440174 155.589145 
L 533.504051 155.670175 
L 533.567815 155.745158 
L 533.69501 155.332125 
L 533.758442 155.705345 
L 533.821763 155.674247 
L 533.948077 155.402111 
L 534.073955 155.755277 
L 534.261959 155.616664 
L 534.324413 155.675713 
L 534.448999 155.454156 
L 534.511133 155.662647 
L 534.573162 155.563832 
L 534.820224 155.463767 
L 534.881729 155.607609 
L 534.943131 155.563508 
L 535.004429 155.295151 
L 535.065624 155.603537 
L 535.126716 155.473037 
L 535.187706 155.618453 
L 535.248595 155.556134 
L 535.491136 155.40552 
L 535.611804 155.443791 
L 535.732074 155.373096 
L 535.792061 155.298837 
L 535.851949 155.553975 
L 535.911739 155.462656 
L 536.090521 155.194175 
L 536.268431 155.421578 
L 536.563032 155.253317 
L 536.79701 155.24818 
L 536.855271 155.223175 
L 536.913438 155.339699 
L 536.971513 155.175387 
L 537.029495 155.281453 
L 537.087386 155.409315 
L 537.260507 154.806518 
L 537.375467 155.171423 
L 537.718185 155.086799 
L 537.774992 155.204572 
L 537.831711 154.997747 
L 537.888343 155.015687 
L 537.944886 155.213195 
L 538.001342 155.113685 
L 538.226294 154.681926 
L 538.338252 155.039843 
L 538.394102 154.973128 
L 538.449866 155.044487 
L 538.505546 154.887532 
L 538.56114 155.04262 
L 538.61665 154.953384 
L 538.672076 155.096332 
L 538.727417 155.000925 
L 538.782674 155.015039 
L 538.947946 154.71361 
L 539.112471 154.956361 
L 539.276257 154.641989 
L 539.547609 154.782732 
L 539.709455 154.608686 
L 539.816955 154.711188 
L 539.924139 154.48613 
L 540.031008 154.588509 
L 540.137565 154.667226 
L 540.190727 154.465229 
L 540.243812 154.652371 
L 540.718124 154.34346 
L 540.770447 154.474824 
L 540.822694 154.434424 
L 541.030938 154.445947 
L 541.082814 154.152416 
L 541.134615 154.214627 
L 541.237999 154.43663 
L 541.597549 154.110227 
L 541.648625 153.612956 
L 541.699629 153.885231 
L 541.852216 154.127318 
L 541.953586 154.214025 
L 542.105116 154.008743 
L 542.256017 154.136944 
L 542.406297 153.875883 
L 542.456253 153.81469 
L 542.605711 154.000583 
L 542.655394 153.870762 
L 542.70501 153.983537 
L 542.754559 154.001616 
L 542.902801 153.758757 
L 542.952081 153.721952 
L 543.001295 153.884891 
L 543.050443 153.611752 
L 543.099524 153.728801 
L 543.246373 153.895257 
L 543.392632 153.457837 
L 543.441255 153.539484 
L 543.586736 153.800298 
L 543.683402 153.39669 
L 543.731639 153.669043 
L 543.779812 153.624972 
L 543.875967 153.492544 
L 543.92395 153.604718 
L 543.97187 153.596435 
L 544.019727 153.317419 
L 544.067521 153.336408 
L 544.258073 153.532219 
L 544.305556 153.326967 
L 544.352977 153.452978 
L 544.400336 153.422806 
L 544.494871 153.04755 
L 544.542047 153.396706 
L 544.636215 153.307099 
L 544.777012 152.986188 
L 544.823824 153.037354 
L 544.917268 153.309629 
L 544.963901 153.239489 
L 545.010473 153.262658 
L 545.056987 153.022098 
L 545.103441 153.073048 
L 545.196171 153.152413 
L 545.334826 152.698394 
L 545.472956 153.116903 
L 545.564753 153.186271 
L 545.610564 152.972073 
L 545.702015 152.942842 
L 545.793237 152.826164 
L 545.838763 152.617549 
L 545.929644 152.942364 
L 545.975 152.802686 
L 546.020299 152.652442 
L 546.065542 152.777481 
L 546.15586 152.832226 
L 546.200935 152.786135 
L 546.245955 152.5378 
L 546.290919 152.814826 
L 546.335827 152.811679 
L 546.51491 152.368243 
L 546.559544 152.661944 
L 546.604123 152.627807 
L 546.693117 152.105346 
L 546.737533 152.446543 
L 546.781895 152.605656 
L 546.826203 152.423158 
L 546.870458 152.482345 
L 546.914658 50.707432 
L 547.002899 96.054673 
L 547.046939 100.03218 
L 547.090926 137.483318 
L 547.134861 121.752737 
L 547.178742 108.215968 
L 547.353741 142.605873 
L 547.397359 143.310694 
L 547.440926 136.117638 
L 547.48444 140.191199 
L 547.701237 149.668707 
L 547.787596 149.518 
L 547.830699 149.422331 
L 547.873751 150.115907 
L 547.959703 148.469931 
L 548.002603 149.56932 
L 548.045452 149.083819 
L 548.173699 145.215864 
L 548.216348 149.081844 
L 548.258947 141.692222 
L 548.301497 143.833247 
L 548.428848 149.972866 
L 548.471199 150.043515 
L 548.513502 149.504163 
L 548.555755 149.987335 
L 548.597959 150.167829 
L 548.640115 149.789966 
L 548.682222 149.931387 
L 548.808252 150.067671 
L 549.183748 150.001419 
L 549.225231 150.185383 
L 549.266668 149.918615 
L 549.390697 150.059295 
L 549.431946 149.946859 
L 549.473148 150.042852 
L 549.514304 150.115429 
L 549.596477 149.844048 
L 549.637494 150.063676 
L 549.678465 150.114241 
L 549.71939 149.970121 
L 549.76027 150.022613 
L 549.801103 150.119779 
L 549.84189 150.089282 
L 550.004586 149.919494 
L 550.045146 150.021719 
L 550.085662 149.79697 
L 550.166558 149.95451 
L 550.206939 149.909853 
L 550.247275 150.019775 
L 550.408175 149.973653 
L 550.448289 150.105865 
L 550.48836 149.954124 
L 550.528386 149.921916 
L 550.608306 150.091797 
L 550.648201 149.992827 
L 550.72786 150.063938 
L 550.767624 149.934333 
L 551.202189 149.897914 
L 551.280648 150.00381 
L 551.319814 149.811084 
L 551.476058 149.955621 
L 551.553929 149.816251 
L 551.592803 149.986441 
L 551.670426 149.866446 
L 551.747884 149.925556 
L 551.786551 149.737612 
L 551.863763 149.892268 
L 551.902307 149.566605 
L 551.979274 149.845776 
L 552.170984 149.675941 
L 552.209205 149.843153 
L 552.285528 149.792018 
L 552.323629 149.858733 
L 552.399713 149.94891 
L 552.437695 149.702566 
L 552.513541 149.903452 
L 552.551405 149.733756 
L 552.58923 149.801289 
L 552.664761 149.720459 
L 552.815357 149.834114 
L 552.965332 149.647034 
L 553.114693 149.828854 
L 553.189145 149.876781 
L 553.263445 149.511953 
L 553.300538 149.820817 
L 553.374611 149.689438 
L 553.522308 149.710062 
L 553.559139 149.511089 
L 553.632689 149.630405 
L 553.706091 149.638473 
L 553.779346 149.65922 
L 553.815918 149.507356 
L 553.99823 149.579578 
L 554.034583 149.43643 
L 554.0709 149.626518 
L 554.107181 149.534289 
L 554.215808 149.652448 
L 554.251945 149.566837 
L 554.324111 149.606665 
L 554.396135 149.400704 
L 554.468017 149.546197 
L 554.503905 149.530248 
L 554.539758 149.339002 
L 554.575575 149.609612 
L 554.825317 149.284057 
L 554.860855 149.556332 
L 554.931827 149.473004 
L 555.073358 149.56187 
L 555.179147 149.342828 
L 555.214342 149.427745 
L 555.319723 149.424305 
L 555.459759 149.178253 
L 555.564434 149.388858 
L 555.63405 149.468052 
L 555.703534 149.20821 
L 555.738227 149.379834 
L 555.807512 149.341255 
L 555.876667 149.160113 
L 555.94569 149.222447 
L 556.014583 149.37516 
L 556.083346 149.419261 
L 556.117679 149.058937 
L 556.220484 149.240572 
L 556.391184 149.069535 
L 556.459241 149.013355 
L 556.493221 149.187894 
L 556.52717 148.98835 
L 556.594974 149.192831 
L 556.662652 149.249288 
L 556.696443 149.039116 
L 556.730204 149.120115 
L 556.763933 148.958332 
L 556.797631 149.059693 
L 556.831298 148.990741 
L 556.864934 149.01533 
L 556.898539 149.175863 
L 556.965655 148.974514 
L 556.999168 149.134831 
L 557.166268 148.857172 
L 557.232894 148.953551 
L 557.266161 149.052011 
L 557.299398 148.953072 
L 557.432044 148.752171 
L 557.564209 148.966323 
L 557.597176 148.700619 
L 557.66302 149.025819 
L 557.728745 148.838415 
L 557.761563 148.962837 
L 557.794351 148.922206 
L 557.82711 148.617491 
L 557.85984 148.953088 
L 557.925211 148.733691 
L 557.957853 148.897571 
L 558.055603 148.820105 
L 558.185531 148.68868 
L 558.21794 148.733552 
L 558.282673 148.888008 
L 558.314996 148.605428 
L 558.379557 148.652815 
L 558.411795 148.897973 
L 558.476184 148.70537 
L 558.508337 148.685841 
L 558.636663 148.518953 
L 558.732612 148.743841 
L 558.764538 148.606261 
L 558.860152 148.672329 
L 558.891967 148.461138 
L 558.923755 148.594584 
L 558.987247 148.485002 
L 559.082279 148.480852 
L 559.113901 148.573513 
L 559.208604 148.527159 
L 559.271602 148.410404 
L 559.334492 148.554709 
L 559.397273 148.263276 
L 559.459947 148.414584 
L 559.553756 148.57015 
L 559.584972 148.463267 
L 559.616161 148.375095 
L 559.647324 148.521915 
L 559.709569 148.612015 
L 559.740652 148.500288 
L 559.957493 148.170106 
L 559.988365 148.335004 
L 560.019211 148.445605 
L 560.050031 148.219082 
L 560.080825 148.132175 
L 560.111593 148.234924 
L 560.203742 148.341869 
L 560.173052 148.171124 
L 560.234406 148.267009 
L 560.295658 148.133316 
L 560.326245 147.928867 
L 560.387343 148.198689 
L 560.478798 147.917174 
L 560.53964 148.065583 
L 560.600382 148.092469 
L 560.661022 148.043972 
L 560.721561 147.848515 
L 560.782 147.987422 
L 560.812182 148.013738 
L 560.842339 147.956262 
L 561.02276 147.604854 
L 561.052743 147.715409 
L 561.112636 148.009604 
L 561.17243 147.976038 
L 561.202291 147.844875 
L 561.261939 148.003665 
L 561.291726 147.925782 
L 561.410633 147.749947 
L 561.499559 147.894931 
L 561.469941 147.718509 
L 561.529152 147.786382 
L 561.558722 147.648833 
L 561.647288 147.725096 
L 561.706213 147.97266 
L 561.765042 147.830684 
L 561.794421 147.818945 
L 561.882417 147.627638 
L 561.911702 147.689633 
L 561.940963 147.743236 
L 561.999415 147.507119 
L 562.057773 147.545837 
L 562.116039 147.737822 
L 562.145136 147.448548 
L 562.23229 147.620558 
L 562.377085 147.367688 
L 562.463687 147.670444 
L 562.521308 147.546083 
L 562.578837 147.477934 
L 562.636276 147.600427 
L 562.693624 147.342467 
L 562.86513 147.487436 
L 562.92212 147.302638 
L 562.979021 147.448101 
L 563.092556 146.890824 
L 563.149192 147.155526 
L 563.2622 147.352787 
L 563.431057 146.923125 
L 563.459124 147.011945 
L 563.487169 147.216102 
L 563.515193 146.712799 
L 563.543195 107.863341 
L 563.627074 134.396571 
L 563.65499 111.627467 
L 563.710759 136.86329 
L 563.794253 142.424932 
L 563.822041 141.344254 
L 563.849809 138.466862 
L 563.877556 143.944326 
L 563.905281 144.493659 
L 563.932985 138.594554 
L 564.015972 144.356079 
L 564.126328 144.986657 
L 564.071192 143.805574 
L 564.153865 144.865675 
L 564.208876 144.934642 
L 564.318651 144.741639 
L 564.373414 144.678703 
L 564.455405 144.934226 
L 564.537212 144.82816 
L 564.700278 145.151401 
L 564.83561 144.934303 
L 564.862617 144.980194 
L 564.970443 145.123311 
L 565.158374 144.836397 
L 565.23862 145.067193 
L 565.292019 144.99167 
L 565.31869 144.950515 
L 565.34534 145.050703 
L 565.398584 145.004766 
L 565.425176 145.112452 
L 565.45175 144.991531 
L 565.478303 144.987181 
L 565.557849 145.040661 
L 565.610783 144.835811 
L 565.663641 145.066283 
L 565.742783 144.940828 
L 565.79545 145.081123 
L 565.84804 144.968563 
L 565.874307 144.883707 
L 565.900555 145.002453 
L 565.926784 144.946427 
L 566.057646 145.023092 
L 566.083762 144.892238 
L 566.18804 144.937311 
L 566.240068 144.909468 
L 566.31797 145.073533 
L 566.3439 144.923104 
L 566.421581 145.001527 
L 566.576448 145.04748 
L 566.679328 144.922657 
L 566.705002 145.045459 
L 566.730659 145.111804 
L 566.781918 145.037623 
L 566.858672 144.942 
L 566.909751 144.979854 
L 567.113356 145.010967 
L 567.214734 145.11657 
L 567.341061 144.955374 
L 567.366274 144.971848 
L 567.391469 144.85065 
L 567.466951 144.944345 
L 567.667476 145.024187 
L 567.692464 144.944067 
L 567.767326 144.997779 
L 567.792246 145.026223 
L 567.842035 144.929089 
L 567.916591 144.951749 
L 567.941409 144.993552 
L 567.96621 144.869716 
L 567.990994 144.927377 
L 568.015762 144.851067 
L 568.065246 144.924199 
L 568.164014 145.032285 
L 568.188664 144.967745 
L 568.262515 145.030619 
L 568.287099 144.877167 
L 568.385268 144.9072 
L 568.507609 145.025622 
L 568.653878 144.787514 
L 568.726793 144.993645 
L 568.751066 144.888952 
L 568.775322 144.809542 
L 568.823787 144.974301 
L 568.847995 144.844958 
L 568.872187 144.934812 
L 568.896363 144.760905 
L 568.944667 144.86623 
L 569.017003 144.913987 
L 569.041083 144.984281 
L 569.065148 144.875563 
L 569.113229 144.895245 
L 569.257092 144.87419 
L 569.40039 144.788995 
L 569.519376 144.941136 
L 569.566862 144.857222 
L 569.614286 144.766612 
L 569.661649 144.917612 
L 569.756189 144.798667 
L 569.803368 144.866971 
L 569.921048 144.892639 
L 569.991474 144.705527 
L 570.038349 144.811331 
L 570.271825 144.769744 
L 570.29509 144.881949 
L 570.341577 144.727571 
L 570.388004 144.790198 
L 570.480682 144.755012 
L 570.526932 144.714536 
L 570.596198 144.830489 
L 570.734337 144.657786 
L 570.780267 144.886823 
L 570.871954 144.785216 
L 570.96341 144.6632 
L 570.986239 144.74949 
L 571.009053 144.838572 
L 571.031853 144.728481 
L 571.07741 144.729961 
L 571.100167 144.643455 
L 571.168353 144.666408 
L 571.21374 144.574673 
L 571.25907 144.792203 
L 571.349562 144.544516 
L 571.372149 144.686878 
L 571.417283 144.711065 
L 571.484879 144.56224 
L 571.507384 144.691336 
L 571.574813 144.676173 
L 571.709298 144.559402 
L 571.754017 144.727015 
L 571.820992 144.681495 
L 571.954574 144.442878 
L 571.97679 144.690596 
L 572.065519 144.630806 
L 572.220278 144.429828 
L 572.242333 144.589389 
L 572.330419 144.467343 
L 572.352407 144.566467 
L 572.396344 144.445238 
L 572.440228 144.466942 
L 572.46215 144.486979 
L 572.484059 144.425709 
L 572.527837 144.122475 
L 572.549707 144.610445 
L 572.571563 144.442569 
L 572.724192 144.512215 
L 572.745944 144.434101 
L 572.767684 144.357374 
L 572.78941 144.449927 
L 572.832823 144.433283 
L 572.876185 144.463301 
L 572.897847 144.284659 
L 572.919495 144.529122 
L 572.984364 144.342551 
L 573.049118 144.479498 
L 573.092224 144.452257 
L 573.135278 144.517383 
L 573.199765 144.182912 
L 573.221235 144.58163 
L 573.306989 144.335239 
L 573.328397 144.412721 
L 573.392543 144.286541 
L 573.4139 144.335455 
L 573.435244 144.250692 
L 573.456576 144.447259 
L 573.520497 144.295873 
L 573.563049 144.415621 
L 573.605551 144.303216 
L 573.669212 144.414495 
L 573.732761 144.21981 
L 573.75392 144.335409 
L 573.838432 144.214812 
L 573.859529 144.129879 
L 573.880614 144.398129 
L 573.943796 144.181169 
L 573.985857 144.375746 
L 574.048858 144.21981 
L 574.132689 144.27076 
L 574.174532 144.102206 
L 574.195436 144.27167 
L 574.278932 144.194127 
L 574.341428 144.204616 
L 574.403817 144.016086 
L 574.42459 144.191766 
L 574.507562 144.023505 
L 574.528276 143.999503 
L 574.569668 144.195577 
L 574.631668 143.936475 
L 574.652311 144.15817 
L 574.672943 143.889396 
L 574.714171 144.20966 
L 574.755353 144.193972 
L 574.858104 143.920371 
L 574.837577 144.231641 
L 574.878619 143.953011 
L 574.899123 144.150488 
L 574.940096 143.82265 
L 574.981024 144.002372 
L 575.021905 143.976843 
L 575.042329 144.116953 
L 575.062741 143.831072 
L 575.123908 144.026806 
L 575.225627 144.06156 
L 575.245937 143.846668 
L 575.286522 144.020821 
L 575.306798 143.824532 
L 575.327063 143.919137 
" clip-path="url(#peaa8033c71)" style="fill: none; stroke: #008000; stroke-width: 1.5; stroke-linecap: square"/>
   </g>
   <g id="patch_3">
    <path d="M 218.207063 311.6435 
L 218.207063 45.5315 
" style="fill: none; stroke: #000000; stroke-width: 0.8; stroke-linejoin: miter; stroke-linecap: square"/>
   </g>
   <g id="patch_4">
    <path d="M 575.327063 311.6435 
L 575.327063 45.5315 
" style="fill: none; stroke: #000000; stroke-width: 0.8; stroke-linejoin: miter; stroke-linecap: square"/>
   </g>
   <g id="patch_5">
    <path d="M 218.207063 311.6435 
L 575.327063 311.6435 
" style="fill: none; stroke: #000000; stroke-width: 0.8; stroke-linejoin: miter; stroke-linecap: square"/>
   </g>
   <g id="patch_6">
    <path d="M 218.207063 45.5315 
L 575.327063 45.5315 
" style="fill: none; stroke: #000000; stroke-width: 0.8; stroke-linejoin: miter; stroke-linecap: square"/>
   </g>
   <g id="text_12">
    <!-- Loss of the 09_07_25_CINIC10_torch_model_(1024+8192.1+1)_cat-dog -->
    <g transform="translate(7.2 25.5315) scale(0.264 -0.264)">
     <defs>
      <path id="TimesNewRomanPSMT-20" transform="scale(0.015625)"/>
      <path id="TimesNewRomanPSMT-66" d="M 1319 2638 
L 1319 756 
Q 1319 356 1406 250 
Q 1522 113 1716 113 
L 1975 113 
L 1975 0 
L 266 0 
L 266 113 
L 394 113 
Q 519 113 622 175 
Q 725 238 764 344 
Q 803 450 803 756 
L 803 2638 
L 247 2638 
L 247 2863 
L 803 2863 
L 803 3050 
Q 803 3478 940 3775 
Q 1078 4072 1361 4255 
Q 1644 4438 1997 4438 
Q 2325 4438 2600 4225 
Q 2781 4084 2781 3909 
Q 2781 3816 2700 3733 
Q 2619 3650 2525 3650 
Q 2453 3650 2373 3701 
Q 2294 3753 2178 3923 
Q 2063 4094 1966 4153 
Q 1869 4213 1750 4213 
Q 1606 4213 1506 4136 
Q 1406 4059 1362 3898 
Q 1319 3738 1319 3069 
L 1319 2863 
L 2056 2863 
L 2056 2638 
L 1319 2638 
z
" transform="scale(0.015625)"/>
      <path id="TimesNewRomanPSMT-74" d="M 1031 3803 
L 1031 2863 
L 1700 2863 
L 1700 2644 
L 1031 2644 
L 1031 788 
Q 1031 509 1111 412 
Q 1191 316 1316 316 
Q 1419 316 1516 380 
Q 1613 444 1666 569 
L 1788 569 
Q 1678 263 1478 108 
Q 1278 -47 1066 -47 
Q 922 -47 784 33 
Q 647 113 581 261 
Q 516 409 516 719 
L 516 2644 
L 63 2644 
L 63 2747 
Q 234 2816 414 2980 
Q 594 3144 734 3369 
Q 806 3488 934 3803 
L 1031 3803 
z
" transform="scale(0.015625)"/>
      <path id="TimesNewRomanPSMT-68" d="M 1041 4444 
L 1041 2350 
Q 1388 2731 1591 2839 
Q 1794 2947 1997 2947 
Q 2241 2947 2416 2812 
Q 2591 2678 2675 2391 
Q 2734 2191 2734 1659 
L 2734 647 
Q 2734 375 2778 275 
Q 2809 200 2884 156 
Q 2959 113 3159 113 
L 3159 0 
L 1753 0 
L 1753 113 
L 1819 113 
Q 2019 113 2097 173 
Q 2175 234 2206 353 
Q 2216 403 2216 647 
L 2216 1659 
Q 2216 2128 2167 2275 
Q 2119 2422 2012 2495 
Q 1906 2569 1756 2569 
Q 1603 2569 1437 2487 
Q 1272 2406 1041 2159 
L 1041 647 
Q 1041 353 1073 281 
Q 1106 209 1195 161 
Q 1284 113 1503 113 
L 1503 0 
L 84 0 
L 84 113 
Q 275 113 384 172 
Q 447 203 484 290 
Q 522 378 522 647 
L 522 3238 
Q 522 3728 498 3840 
Q 475 3953 426 3993 
Q 378 4034 297 4034 
Q 231 4034 84 3984 
L 41 4094 
L 897 4444 
L 1041 4444 
z
" transform="scale(0.015625)"/>
      <path id="TimesNewRomanPSMT-65" d="M 681 1784 
Q 678 1147 991 784 
Q 1303 422 1725 422 
Q 2006 422 2214 576 
Q 2422 731 2563 1106 
L 2659 1044 
Q 2594 616 2278 264 
Q 1963 -88 1488 -88 
Q 972 -88 605 314 
Q 238 716 238 1394 
Q 238 2128 614 2539 
Q 991 2950 1559 2950 
Q 2041 2950 2350 2633 
Q 2659 2316 2659 1784 
L 681 1784 
z
M 681 1966 
L 2006 1966 
Q 1991 2241 1941 2353 
Q 1863 2528 1708 2628 
Q 1553 2728 1384 2728 
Q 1125 2728 920 2526 
Q 716 2325 681 1966 
z
" transform="scale(0.015625)"/>
      <path id="TimesNewRomanPSMT-39" d="M 338 -88 
L 338 28 
Q 744 34 1094 217 
Q 1444 400 1770 856 
Q 2097 1313 2225 1859 
Q 1734 1544 1338 1544 
Q 891 1544 572 1889 
Q 253 2234 253 2806 
Q 253 3363 572 3797 
Q 956 4325 1575 4325 
Q 2097 4325 2469 3894 
Q 2925 3359 2925 2575 
Q 2925 1869 2578 1258 
Q 2231 647 1613 244 
Q 1109 -88 516 -88 
L 338 -88 
z
M 2275 2091 
Q 2331 2497 2331 2741 
Q 2331 3044 2228 3395 
Q 2125 3747 1936 3934 
Q 1747 4122 1506 4122 
Q 1228 4122 1018 3872 
Q 809 3622 809 3128 
Q 809 2469 1088 2097 
Q 1291 1828 1588 1828 
Q 1731 1828 1928 1897 
Q 2125 1966 2275 2091 
z
" transform="scale(0.015625)"/>
      <path id="TimesNewRomanPSMT-5f" d="M 3256 -1381 
L -53 -1381 
L -53 -1119 
L 3256 -1119 
L 3256 -1381 
z
" transform="scale(0.015625)"/>
      <path id="TimesNewRomanPSMT-37" d="M 644 4238 
L 2916 4238 
L 2916 4119 
L 1503 -88 
L 1153 -88 
L 2419 3728 
L 1253 3728 
Q 900 3728 750 3644 
Q 488 3500 328 3200 
L 238 3234 
L 644 4238 
z
" transform="scale(0.015625)"/>
      <path id="TimesNewRomanPSMT-43" d="M 3853 4334 
L 3950 2894 
L 3853 2894 
Q 3659 3541 3300 3825 
Q 2941 4109 2438 4109 
Q 2016 4109 1675 3895 
Q 1334 3681 1139 3212 
Q 944 2744 944 2047 
Q 944 1472 1128 1050 
Q 1313 628 1683 403 
Q 2053 178 2528 178 
Q 2941 178 3256 354 
Q 3572 531 3950 1056 
L 4047 994 
Q 3728 428 3303 165 
Q 2878 -97 2294 -97 
Q 1241 -97 663 684 
Q 231 1266 231 2053 
Q 231 2688 515 3219 
Q 800 3750 1298 4042 
Q 1797 4334 2388 4334 
Q 2847 4334 3294 4109 
Q 3425 4041 3481 4041 
Q 3566 4041 3628 4100 
Q 3709 4184 3744 4334 
L 3853 4334 
z
" transform="scale(0.015625)"/>
      <path id="TimesNewRomanPSMT-49" d="M 1975 116 
L 1975 0 
L 159 0 
L 159 116 
L 309 116 
Q 572 116 691 269 
Q 766 369 766 750 
L 766 3488 
Q 766 3809 725 3913 
Q 694 3991 597 4047 
Q 459 4122 309 4122 
L 159 4122 
L 159 4238 
L 1975 4238 
L 1975 4122 
L 1822 4122 
Q 1563 4122 1444 3969 
Q 1366 3869 1366 3488 
L 1366 750 
Q 1366 428 1406 325 
Q 1438 247 1538 191 
Q 1672 116 1822 116 
L 1975 116 
z
" transform="scale(0.015625)"/>
      <path id="TimesNewRomanPSMT-4e" d="M -84 4238 
L 1066 4238 
L 3656 1059 
L 3656 3503 
Q 3656 3894 3569 3991 
Q 3453 4122 3203 4122 
L 3056 4122 
L 3056 4238 
L 4531 4238 
L 4531 4122 
L 4381 4122 
Q 4113 4122 4000 3959 
Q 3931 3859 3931 3503 
L 3931 -69 
L 3819 -69 
L 1025 3344 
L 1025 734 
Q 1025 344 1109 247 
Q 1228 116 1475 116 
L 1625 116 
L 1625 0 
L 150 0 
L 150 116 
L 297 116 
Q 569 116 681 278 
Q 750 378 750 734 
L 750 3681 
Q 566 3897 470 3965 
Q 375 4034 191 4094 
Q 100 4122 -84 4122 
L -84 4238 
z
" transform="scale(0.015625)"/>
      <path id="TimesNewRomanPSMT-72" d="M 1038 2947 
L 1038 2303 
Q 1397 2947 1775 2947 
Q 1947 2947 2059 2842 
Q 2172 2738 2172 2600 
Q 2172 2478 2090 2393 
Q 2009 2309 1897 2309 
Q 1788 2309 1652 2417 
Q 1516 2525 1450 2525 
Q 1394 2525 1328 2463 
Q 1188 2334 1038 2041 
L 1038 669 
Q 1038 431 1097 309 
Q 1138 225 1241 169 
Q 1344 113 1538 113 
L 1538 0 
L 72 0 
L 72 113 
Q 291 113 397 181 
Q 475 231 506 341 
Q 522 394 522 644 
L 522 1753 
Q 522 2253 501 2348 
Q 481 2444 426 2487 
Q 372 2531 291 2531 
Q 194 2531 72 2484 
L 41 2597 
L 906 2947 
L 1038 2947 
z
" transform="scale(0.015625)"/>
      <path id="TimesNewRomanPSMT-63" d="M 2631 1088 
Q 2516 522 2178 217 
Q 1841 -88 1431 -88 
Q 944 -88 581 321 
Q 219 731 219 1428 
Q 219 2103 620 2525 
Q 1022 2947 1584 2947 
Q 2006 2947 2278 2723 
Q 2550 2500 2550 2259 
Q 2550 2141 2473 2067 
Q 2397 1994 2259 1994 
Q 2075 1994 1981 2113 
Q 1928 2178 1911 2362 
Q 1894 2547 1784 2644 
Q 1675 2738 1481 2738 
Q 1169 2738 978 2506 
Q 725 2200 725 1697 
Q 725 1184 976 792 
Q 1228 400 1656 400 
Q 1963 400 2206 609 
Q 2378 753 2541 1131 
L 2631 1088 
z
" transform="scale(0.015625)"/>
      <path id="TimesNewRomanPSMT-6d" d="M 1050 2338 
Q 1363 2650 1419 2697 
Q 1559 2816 1721 2881 
Q 1884 2947 2044 2947 
Q 2313 2947 2506 2790 
Q 2700 2634 2766 2338 
Q 3088 2713 3309 2830 
Q 3531 2947 3766 2947 
Q 3994 2947 4170 2830 
Q 4347 2713 4450 2447 
Q 4519 2266 4519 1878 
L 4519 647 
Q 4519 378 4559 278 
Q 4591 209 4675 161 
Q 4759 113 4950 113 
L 4950 0 
L 3538 0 
L 3538 113 
L 3597 113 
Q 3781 113 3884 184 
Q 3956 234 3988 344 
Q 4000 397 4000 647 
L 4000 1878 
Q 4000 2228 3916 2372 
Q 3794 2572 3525 2572 
Q 3359 2572 3192 2489 
Q 3025 2406 2788 2181 
L 2781 2147 
L 2788 2013 
L 2788 647 
Q 2788 353 2820 281 
Q 2853 209 2943 161 
Q 3034 113 3253 113 
L 3253 0 
L 1806 0 
L 1806 113 
Q 2044 113 2133 169 
Q 2222 225 2256 338 
Q 2272 391 2272 647 
L 2272 1878 
Q 2272 2228 2169 2381 
Q 2031 2581 1784 2581 
Q 1616 2581 1450 2491 
Q 1191 2353 1050 2181 
L 1050 647 
Q 1050 366 1089 281 
Q 1128 197 1204 155 
Q 1281 113 1516 113 
L 1516 0 
L 100 0 
L 100 113 
Q 297 113 375 155 
Q 453 197 493 289 
Q 534 381 534 647 
L 534 1741 
Q 534 2213 506 2350 
Q 484 2453 437 2492 
Q 391 2531 309 2531 
Q 222 2531 100 2484 
L 53 2597 
L 916 2947 
L 1050 2947 
L 1050 2338 
z
" transform="scale(0.015625)"/>
      <path id="TimesNewRomanPSMT-64" d="M 2222 322 
Q 2013 103 1813 7 
Q 1613 -88 1381 -88 
Q 913 -88 563 304 
Q 213 697 213 1313 
Q 213 1928 600 2439 
Q 988 2950 1597 2950 
Q 1975 2950 2222 2709 
L 2222 3238 
Q 2222 3728 2198 3840 
Q 2175 3953 2125 3993 
Q 2075 4034 2000 4034 
Q 1919 4034 1784 3984 
L 1744 4094 
L 2597 4444 
L 2738 4444 
L 2738 1134 
Q 2738 631 2761 520 
Q 2784 409 2836 365 
Q 2888 322 2956 322 
Q 3041 322 3181 375 
L 3216 266 
L 2366 -88 
L 2222 -88 
L 2222 322 
z
M 2222 541 
L 2222 2016 
Q 2203 2228 2109 2403 
Q 2016 2578 1861 2667 
Q 1706 2756 1559 2756 
Q 1284 2756 1069 2509 
Q 784 2184 784 1559 
Q 784 928 1059 592 
Q 1334 256 1672 256 
Q 1956 256 2222 541 
z
" transform="scale(0.015625)"/>
      <path id="TimesNewRomanPSMT-6c" d="M 1184 4444 
L 1184 647 
Q 1184 378 1223 290 
Q 1263 203 1344 158 
Q 1425 113 1647 113 
L 1647 0 
L 244 0 
L 244 113 
Q 441 113 512 153 
Q 584 194 625 287 
Q 666 381 666 647 
L 666 3247 
Q 666 3731 644 3842 
Q 622 3953 573 3993 
Q 525 4034 450 4034 
Q 369 4034 244 3984 
L 191 4094 
L 1044 4444 
L 1184 4444 
z
" transform="scale(0.015625)"/>
      <path id="TimesNewRomanPSMT-28" d="M 1988 -1253 
L 1988 -1369 
Q 1516 -1131 1200 -813 
Q 750 -359 506 256 
Q 263 872 263 1534 
Q 263 2503 741 3301 
Q 1219 4100 1988 4444 
L 1988 4313 
Q 1603 4100 1356 3731 
Q 1109 3363 987 2797 
Q 866 2231 866 1616 
Q 866 947 969 400 
Q 1050 -31 1165 -292 
Q 1281 -553 1476 -793 
Q 1672 -1034 1988 -1253 
z
" transform="scale(0.015625)"/>
      <path id="TimesNewRomanPSMT-2b" d="M 1672 441 
L 1672 2000 
L 116 2000 
L 116 2256 
L 1672 2256 
L 1672 3809 
L 1922 3809 
L 1922 2256 
L 3484 2256 
L 3484 2000 
L 1922 2000 
L 1922 441 
L 1672 441 
z
" transform="scale(0.015625)"/>
      <path id="TimesNewRomanPSMT-38" d="M 1228 2134 
Q 725 2547 579 2797 
Q 434 3047 434 3316 
Q 434 3728 753 4026 
Q 1072 4325 1600 4325 
Q 2113 4325 2425 4047 
Q 2738 3769 2738 3413 
Q 2738 3175 2569 2928 
Q 2400 2681 1866 2347 
Q 2416 1922 2594 1678 
Q 2831 1359 2831 1006 
Q 2831 559 2490 242 
Q 2150 -75 1597 -75 
Q 994 -75 656 303 
Q 388 606 388 966 
Q 388 1247 577 1523 
Q 766 1800 1228 2134 
z
M 1719 2469 
Q 2094 2806 2194 3001 
Q 2294 3197 2294 3444 
Q 2294 3772 2109 3958 
Q 1925 4144 1606 4144 
Q 1288 4144 1088 3959 
Q 888 3775 888 3528 
Q 888 3366 970 3203 
Q 1053 3041 1206 2894 
L 1719 2469 
z
M 1375 2016 
Q 1116 1797 991 1539 
Q 866 1281 866 981 
Q 866 578 1086 336 
Q 1306 94 1647 94 
Q 1984 94 2187 284 
Q 2391 475 2391 747 
Q 2391 972 2272 1150 
Q 2050 1481 1375 2016 
z
" transform="scale(0.015625)"/>
      <path id="TimesNewRomanPSMT-29" d="M 144 4313 
L 144 4444 
Q 619 4209 934 3891 
Q 1381 3434 1625 2820 
Q 1869 2206 1869 1541 
Q 1869 572 1392 -226 
Q 916 -1025 144 -1369 
L 144 -1253 
Q 528 -1038 776 -670 
Q 1025 -303 1145 264 
Q 1266 831 1266 1447 
Q 1266 2113 1163 2663 
Q 1084 3094 967 3353 
Q 850 3613 656 3853 
Q 463 4094 144 4313 
z
" transform="scale(0.015625)"/>
      <path id="TimesNewRomanPSMT-61" d="M 1822 413 
Q 1381 72 1269 19 
Q 1100 -59 909 -59 
Q 613 -59 420 144 
Q 228 347 228 678 
Q 228 888 322 1041 
Q 450 1253 767 1440 
Q 1084 1628 1822 1897 
L 1822 2009 
Q 1822 2438 1686 2597 
Q 1550 2756 1291 2756 
Q 1094 2756 978 2650 
Q 859 2544 859 2406 
L 866 2225 
Q 866 2081 792 2003 
Q 719 1925 600 1925 
Q 484 1925 411 2006 
Q 338 2088 338 2228 
Q 338 2497 613 2722 
Q 888 2947 1384 2947 
Q 1766 2947 2009 2819 
Q 2194 2722 2281 2516 
Q 2338 2381 2338 1966 
L 2338 994 
Q 2338 584 2353 492 
Q 2369 400 2405 369 
Q 2441 338 2488 338 
Q 2538 338 2575 359 
Q 2641 400 2828 588 
L 2828 413 
Q 2478 -56 2159 -56 
Q 2006 -56 1915 50 
Q 1825 156 1822 413 
z
M 1822 616 
L 1822 1706 
Q 1350 1519 1213 1441 
Q 966 1303 859 1153 
Q 753 1003 753 825 
Q 753 600 887 451 
Q 1022 303 1197 303 
Q 1434 303 1822 616 
z
" transform="scale(0.015625)"/>
      <path id="TimesNewRomanPSMT-2d" d="M 259 1672 
L 1875 1672 
L 1875 1200 
L 259 1200 
L 259 1672 
z
" transform="scale(0.015625)"/>
      <path id="TimesNewRomanPSMT-67" d="M 966 1044 
Q 703 1172 562 1401 
Q 422 1631 422 1909 
Q 422 2334 742 2640 
Q 1063 2947 1563 2947 
Q 1972 2947 2272 2747 
L 2878 2747 
Q 3013 2747 3034 2739 
Q 3056 2731 3066 2713 
Q 3084 2684 3084 2613 
Q 3084 2531 3069 2500 
Q 3059 2484 3036 2475 
Q 3013 2466 2878 2466 
L 2506 2466 
Q 2681 2241 2681 1891 
Q 2681 1491 2375 1206 
Q 2069 922 1553 922 
Q 1341 922 1119 984 
Q 981 866 932 777 
Q 884 688 884 625 
Q 884 572 936 522 
Q 988 472 1138 450 
Q 1225 438 1575 428 
Q 2219 413 2409 384 
Q 2700 344 2873 169 
Q 3047 -6 3047 -263 
Q 3047 -616 2716 -925 
Q 2228 -1381 1444 -1381 
Q 841 -1381 425 -1109 
Q 191 -953 191 -784 
Q 191 -709 225 -634 
Q 278 -519 444 -313 
Q 466 -284 763 25 
Q 600 122 533 198 
Q 466 275 466 372 
Q 466 481 555 628 
Q 644 775 966 1044 
z
M 1509 2797 
Q 1278 2797 1122 2612 
Q 966 2428 966 2047 
Q 966 1553 1178 1281 
Q 1341 1075 1591 1075 
Q 1828 1075 1981 1253 
Q 2134 1431 2134 1813 
Q 2134 2309 1919 2591 
Q 1759 2797 1509 2797 
z
M 934 0 
Q 788 -159 713 -296 
Q 638 -434 638 -550 
Q 638 -700 819 -813 
Q 1131 -1006 1722 -1006 
Q 2284 -1006 2551 -807 
Q 2819 -609 2819 -384 
Q 2819 -222 2659 -153 
Q 2497 -84 2016 -72 
Q 1313 -53 934 0 
z
" transform="scale(0.015625)"/>
     </defs>
     <use xlink:href="#TimesNewRomanPSMT-4c"/>
     <use xlink:href="#TimesNewRomanPSMT-6f" transform="translate(61.083984 0)"/>
     <use xlink:href="#TimesNewRomanPSMT-73" transform="translate(111.083984 0)"/>
     <use xlink:href="#TimesNewRomanPSMT-73" transform="translate(150 0)"/>
     <use xlink:href="#TimesNewRomanPSMT-20" transform="translate(188.916016 0)"/>
     <use xlink:href="#TimesNewRomanPSMT-6f" transform="translate(213.916016 0)"/>
     <use xlink:href="#TimesNewRomanPSMT-66" transform="translate(263.916016 0)"/>
     <use xlink:href="#TimesNewRomanPSMT-20" transform="translate(297.216797 0)"/>
     <use xlink:href="#TimesNewRomanPSMT-74" transform="translate(322.216797 0)"/>
     <use xlink:href="#TimesNewRomanPSMT-68" transform="translate(350 0)"/>
     <use xlink:href="#TimesNewRomanPSMT-65" transform="translate(400 0)"/>
     <use xlink:href="#TimesNewRomanPSMT-20" transform="translate(444.384766 0)"/>
     <use xlink:href="#TimesNewRomanPSMT-30" transform="translate(469.384766 0)"/>
     <use xlink:href="#TimesNewRomanPSMT-39" transform="translate(519.384766 0)"/>
     <use xlink:href="#TimesNewRomanPSMT-5f" transform="translate(569.384766 0)"/>
     <use xlink:href="#TimesNewRomanPSMT-30" transform="translate(619.384766 0)"/>
     <use xlink:href="#TimesNewRomanPSMT-37" transform="translate(669.384766 0)"/>
     <use xlink:href="#TimesNewRomanPSMT-5f" transform="translate(719.384766 0)"/>
     <use xlink:href="#TimesNewRomanPSMT-32" transform="translate(769.384766 0)"/>
     <use xlink:href="#TimesNewRomanPSMT-35" transform="translate(819.384766 0)"/>
     <use xlink:href="#TimesNewRomanPSMT-5f" transform="translate(869.384766 0)"/>
     <use xlink:href="#TimesNewRomanPSMT-43" transform="translate(919.384766 0)"/>
     <use xlink:href="#TimesNewRomanPSMT-49" transform="translate(986.083984 0)"/>
     <use xlink:href="#TimesNewRomanPSMT-4e" transform="translate(1019.384766 0)"/>
     <use xlink:href="#TimesNewRomanPSMT-49" transform="translate(1091.601562 0)"/>
     <use xlink:href="#TimesNewRomanPSMT-43" transform="translate(1124.902344 0)"/>
     <use xlink:href="#TimesNewRomanPSMT-31" transform="translate(1191.601562 0)"/>
     <use xlink:href="#TimesNewRomanPSMT-30" transform="translate(1241.601562 0)"/>
     <use xlink:href="#TimesNewRomanPSMT-5f" transform="translate(1291.601562 0)"/>
     <use xlink:href="#TimesNewRomanPSMT-74" transform="translate(1341.601562 0)"/>
     <use xlink:href="#TimesNewRomanPSMT-6f" transform="translate(1369.384766 0)"/>
     <use xlink:href="#TimesNewRomanPSMT-72" transform="translate(1419.384766 0)"/>
     <use xlink:href="#TimesNewRomanPSMT-63" transform="translate(1452.685547 0)"/>
     <use xlink:href="#TimesNewRomanPSMT-68" transform="translate(1497.070312 0)"/>
     <use xlink:href="#TimesNewRomanPSMT-5f" transform="translate(1547.070312 0)"/>
     <use xlink:href="#TimesNewRomanPSMT-6d" transform="translate(1597.070312 0)"/>
     <use xlink:href="#TimesNewRomanPSMT-6f" transform="translate(1674.853516 0)"/>
     <use xlink:href="#TimesNewRomanPSMT-64" transform="translate(1724.853516 0)"/>
     <use xlink:href="#TimesNewRomanPSMT-65" transform="translate(1774.853516 0)"/>
     <use xlink:href="#TimesNewRomanPSMT-6c" transform="translate(1819.238281 0)"/>
     <use xlink:href="#TimesNewRomanPSMT-5f" transform="translate(1847.021484 0)"/>
     <use xlink:href="#TimesNewRomanPSMT-28" transform="translate(1897.021484 0)"/>
     <use xlink:href="#TimesNewRomanPSMT-31" transform="translate(1930.322266 0)"/>
     <use xlink:href="#TimesNewRomanPSMT-30" transform="translate(1980.322266 0)"/>
     <use xlink:href="#TimesNewRomanPSMT-32" transform="translate(2030.322266 0)"/>
     <use xlink:href="#TimesNewRomanPSMT-34" transform="translate(2080.322266 0)"/>
     <use xlink:href="#TimesNewRomanPSMT-2b" transform="translate(2130.322266 0)"/>
     <use xlink:href="#TimesNewRomanPSMT-38" transform="translate(2186.71875 0)"/>
     <use xlink:href="#TimesNewRomanPSMT-31" transform="translate(2236.71875 0)"/>
     <use xlink:href="#TimesNewRomanPSMT-39" transform="translate(2286.71875 0)"/>
     <use xlink:href="#TimesNewRomanPSMT-32" transform="translate(2336.71875 0)"/>
     <use xlink:href="#TimesNewRomanPSMT-2e" transform="translate(2386.71875 0)"/>
     <use xlink:href="#TimesNewRomanPSMT-31" transform="translate(2411.71875 0)"/>
     <use xlink:href="#TimesNewRomanPSMT-2b" transform="translate(2461.71875 0)"/>
     <use xlink:href="#TimesNewRomanPSMT-31" transform="translate(2518.115234 0)"/>
     <use xlink:href="#TimesNewRomanPSMT-29" transform="translate(2568.115234 0)"/>
     <use xlink:href="#TimesNewRomanPSMT-5f" transform="translate(2601.416016 0)"/>
     <use xlink:href="#TimesNewRomanPSMT-63" transform="translate(2651.416016 0)"/>
     <use xlink:href="#TimesNewRomanPSMT-61" transform="translate(2695.800781 0)"/>
     <use xlink:href="#TimesNewRomanPSMT-74" transform="translate(2740.185547 0)"/>
     <use xlink:href="#TimesNewRomanPSMT-2d" transform="translate(2767.96875 0)"/>
     <use xlink:href="#TimesNewRomanPSMT-64" transform="translate(2801.269531 0)"/>
     <use xlink:href="#TimesNewRomanPSMT-6f" transform="translate(2851.269531 0)"/>
     <use xlink:href="#TimesNewRomanPSMT-67" transform="translate(2901.269531 0)"/>
    </g>
   </g>
   <g id="legend_1">
    <g id="patch_7">
     <path d="M 233.607063 125.384625 
L 434.164563 125.384625 
Q 438.564563 125.384625 438.564563 120.984625 
L 438.564563 60.9315 
Q 438.564563 56.5315 434.164563 56.5315 
L 233.607063 56.5315 
Q 229.207063 56.5315 229.207063 60.9315 
L 229.207063 120.984625 
Q 229.207063 125.384625 233.607063 125.384625 
z
" style="fill: #ffffff; opacity: 0.8; stroke: #cccccc; stroke-linejoin: miter"/>
    </g>
    <g id="line2d_21">
     <path d="M 238.007063 73.0315 
L 260.007063 73.0315 
L 282.007063 73.0315 
" style="fill: none; stroke: #ffa500; stroke-width: 1.5; stroke-linecap: square"/>
    </g>
    <g id="text_13">
     <!-- Training loss -->
     <g transform="translate(299.607063 80.7315) scale(0.22 -0.22)">
      <defs>
       <path id="TimesNewRomanPSMT-54" d="M 3703 4238 
L 3750 3244 
L 3631 3244 
Q 3597 3506 3538 3619 
Q 3441 3800 3280 3886 
Q 3119 3972 2856 3972 
L 2259 3972 
L 2259 734 
Q 2259 344 2344 247 
Q 2463 116 2709 116 
L 2856 116 
L 2856 0 
L 1059 0 
L 1059 116 
L 1209 116 
Q 1478 116 1591 278 
Q 1659 378 1659 734 
L 1659 3972 
L 1150 3972 
Q 853 3972 728 3928 
Q 566 3869 450 3700 
Q 334 3531 313 3244 
L 194 3244 
L 244 4238 
L 3703 4238 
z
" transform="scale(0.015625)"/>
       <path id="TimesNewRomanPSMT-69" d="M 928 4444 
Q 1059 4444 1151 4351 
Q 1244 4259 1244 4128 
Q 1244 3997 1151 3903 
Q 1059 3809 928 3809 
Q 797 3809 703 3903 
Q 609 3997 609 4128 
Q 609 4259 701 4351 
Q 794 4444 928 4444 
z
M 1188 2947 
L 1188 647 
Q 1188 378 1227 289 
Q 1266 200 1342 156 
Q 1419 113 1622 113 
L 1622 0 
L 231 0 
L 231 113 
Q 441 113 512 153 
Q 584 194 626 287 
Q 669 381 669 647 
L 669 1750 
Q 669 2216 641 2353 
Q 619 2453 572 2492 
Q 525 2531 444 2531 
Q 356 2531 231 2484 
L 188 2597 
L 1050 2947 
L 1188 2947 
z
" transform="scale(0.015625)"/>
       <path id="TimesNewRomanPSMT-6e" d="M 1034 2341 
Q 1538 2947 1994 2947 
Q 2228 2947 2397 2830 
Q 2566 2713 2666 2444 
Q 2734 2256 2734 1869 
L 2734 647 
Q 2734 375 2778 278 
Q 2813 200 2889 156 
Q 2966 113 3172 113 
L 3172 0 
L 1756 0 
L 1756 113 
L 1816 113 
Q 2016 113 2095 173 
Q 2175 234 2206 353 
Q 2219 400 2219 647 
L 2219 1819 
Q 2219 2209 2117 2386 
Q 2016 2563 1775 2563 
Q 1403 2563 1034 2156 
L 1034 647 
Q 1034 356 1069 288 
Q 1113 197 1189 155 
Q 1266 113 1500 113 
L 1500 0 
L 84 0 
L 84 113 
L 147 113 
Q 366 113 442 223 
Q 519 334 519 647 
L 519 1709 
Q 519 2225 495 2337 
Q 472 2450 423 2490 
Q 375 2531 294 2531 
Q 206 2531 84 2484 
L 38 2597 
L 900 2947 
L 1034 2947 
L 1034 2341 
z
" transform="scale(0.015625)"/>
      </defs>
      <use xlink:href="#TimesNewRomanPSMT-54"/>
      <use xlink:href="#TimesNewRomanPSMT-72" transform="translate(57.583984 0)"/>
      <use xlink:href="#TimesNewRomanPSMT-61" transform="translate(90.884766 0)"/>
      <use xlink:href="#TimesNewRomanPSMT-69" transform="translate(135.269531 0)"/>
      <use xlink:href="#TimesNewRomanPSMT-6e" transform="translate(163.052734 0)"/>
      <use xlink:href="#TimesNewRomanPSMT-69" transform="translate(213.052734 0)"/>
      <use xlink:href="#TimesNewRomanPSMT-6e" transform="translate(240.835938 0)"/>
      <use xlink:href="#TimesNewRomanPSMT-67" transform="translate(290.835938 0)"/>
      <use xlink:href="#TimesNewRomanPSMT-20" transform="translate(340.835938 0)"/>
      <use xlink:href="#TimesNewRomanPSMT-6c" transform="translate(365.835938 0)"/>
      <use xlink:href="#TimesNewRomanPSMT-6f" transform="translate(393.619141 0)"/>
      <use xlink:href="#TimesNewRomanPSMT-73" transform="translate(443.619141 0)"/>
      <use xlink:href="#TimesNewRomanPSMT-73" transform="translate(482.535156 0)"/>
     </g>
    </g>
    <g id="line2d_22">
     <path d="M 238.007063 104.178687 
L 260.007063 104.178687 
L 282.007063 104.178687 
" style="fill: none; stroke: #008000; stroke-width: 1.5; stroke-linecap: square"/>
    </g>
    <g id="text_14">
     <!-- Validation loss -->
     <g transform="translate(299.607063 111.878687) scale(0.22 -0.22)">
      <defs>
       <path id="TimesNewRomanPSMT-56" d="M 4544 4238 
L 4544 4122 
Q 4319 4081 4203 3978 
Q 4038 3825 3909 3509 
L 2431 -97 
L 2316 -97 
L 728 3556 
Q 606 3838 556 3900 
Q 478 3997 364 4051 
Q 250 4106 56 4122 
L 56 4238 
L 1788 4238 
L 1788 4122 
Q 1494 4094 1406 4022 
Q 1319 3950 1319 3838 
Q 1319 3681 1463 3350 
L 2541 866 
L 3541 3319 
Q 3688 3681 3688 3822 
Q 3688 3913 3597 3995 
Q 3506 4078 3291 4113 
Q 3275 4116 3238 4122 
L 3238 4238 
L 4544 4238 
z
" transform="scale(0.015625)"/>
      </defs>
      <use xlink:href="#TimesNewRomanPSMT-56"/>
      <use xlink:href="#TimesNewRomanPSMT-61" transform="translate(61.091797 0)"/>
      <use xlink:href="#TimesNewRomanPSMT-6c" transform="translate(105.476562 0)"/>
      <use xlink:href="#TimesNewRomanPSMT-69" transform="translate(133.259766 0)"/>
      <use xlink:href="#TimesNewRomanPSMT-64" transform="translate(161.042969 0)"/>
      <use xlink:href="#TimesNewRomanPSMT-61" transform="translate(211.042969 0)"/>
      <use xlink:href="#TimesNewRomanPSMT-74" transform="translate(255.427734 0)"/>
      <use xlink:href="#TimesNewRomanPSMT-69" transform="translate(283.210938 0)"/>
      <use xlink:href="#TimesNewRomanPSMT-6f" transform="translate(310.994141 0)"/>
      <use xlink:href="#TimesNewRomanPSMT-6e" transform="translate(360.994141 0)"/>
      <use xlink:href="#TimesNewRomanPSMT-20" transform="translate(410.994141 0)"/>
      <use xlink:href="#TimesNewRomanPSMT-6c" transform="translate(435.994141 0)"/>
      <use xlink:href="#TimesNewRomanPSMT-6f" transform="translate(463.777344 0)"/>
      <use xlink:href="#TimesNewRomanPSMT-73" transform="translate(513.777344 0)"/>
      <use xlink:href="#TimesNewRomanPSMT-73" transform="translate(552.693359 0)"/>
     </g>
    </g>
   </g>
  </g>
 </g>
 <defs>
  <clipPath id="peaa8033c71">
   <rect x="218.207063" y="45.5315" width="357.12" height="266.112"/>
  </clipPath>
 </defs>
</svg>
