<?xml version="1.0" encoding="utf-8" standalone="no"?>
<!DOCTYPE svg PUBLIC "-//W3C//DTD SVG 1.1//EN"
  "http://www.w3.org/Graphics/SVG/1.1/DTD/svg11.dtd">
<svg xmlns:xlink="http://www.w3.org/1999/xlink" width="1126.339125pt" height="383.265687pt" viewBox="0 0 1126.339125 383.265687" xmlns="http://www.w3.org/2000/svg" version="1.1">
 <metadata>
  <rdf:RDF xmlns:dc="http://purl.org/dc/elements/1.1/" xmlns:cc="http://creativecommons.org/ns#" xmlns:rdf="http://www.w3.org/1999/02/22-rdf-syntax-ns#">
   <cc:Work>
    <dc:type rdf:resource="http://purl.org/dc/dcmitype/StillImage"/>
    <dc:date>2025-07-12T16:55:32.598618</dc:date>
    <dc:format>image/svg+xml</dc:format>
    <dc:creator>
     <cc:Agent>
      <dc:title>Matplotlib v3.10.3, https://matplotlib.org/</dc:title>
     </cc:Agent>
    </dc:creator>
   </cc:Work>
  </rdf:RDF>
 </metadata>
 <defs>
  <style type="text/css">*{stroke-linejoin: round; stroke-linecap: butt}</style>
 </defs>
 <g id="figure_1">
  <g id="patch_1">
   <path d="M 0 383.265687 
L 1126.339125 383.265687 
L 1126.339125 0 
L 0 0 
z
" style="fill: #ffffff"/>
  </g>
  <g id="axes_1">
   <g id="patch_2">
    <path d="M 384.609563 311.6435 
L 741.729563 311.6435 
L 741.729563 45.5315 
L 384.609563 45.5315 
z
" style="fill: #ffffff"/>
   </g>
   <g id="matplotlib.axis_1">
    <g id="xtick_1">
     <g id="line2d_1">
      <path d="M 384.609563 311.6435 
L 384.609563 45.5315 
" clip-path="url(#pf519781ca8)" style="fill: none; stroke: #b0b0b0; stroke-opacity: 0.3; stroke-width: 0.8; stroke-linecap: square"/>
     </g>
     <g id="line2d_2">
      <defs>
       <path id="m080ca0bb1f" d="M 0 0 
L 0 3.5 
" style="stroke: #000000; stroke-width: 0.8"/>
      </defs>
      <g>
       <use xlink:href="#m080ca0bb1f" x="384.609563" y="311.6435" style="stroke: #000000; stroke-width: 0.8"/>
      </g>
     </g>
     <g id="text_1">
      <!-- 0.0 -->
      <g transform="translate(370.859563 333.91975) scale(0.22 -0.22)">
       <defs>
        <path id="TimesNewRomanPSMT-30" d="M 231 2094 
Q 231 2819 450 3342 
Q 669 3866 1031 4122 
Q 1313 4325 1613 4325 
Q 2100 4325 2488 3828 
Q 2972 3213 2972 2159 
Q 2972 1422 2759 906 
Q 2547 391 2217 158 
Q 1888 -75 1581 -75 
Q 975 -75 572 641 
Q 231 1244 231 2094 
z
M 844 2016 
Q 844 1141 1059 588 
Q 1238 122 1591 122 
Q 1759 122 1940 273 
Q 2122 425 2216 781 
Q 2359 1319 2359 2297 
Q 2359 3022 2209 3506 
Q 2097 3866 1919 4016 
Q 1791 4119 1609 4119 
Q 1397 4119 1231 3928 
Q 1006 3669 925 3112 
Q 844 2556 844 2016 
z
" transform="scale(0.015625)"/>
        <path id="TimesNewRomanPSMT-2e" d="M 800 606 
Q 947 606 1047 504 
Q 1147 403 1147 259 
Q 1147 116 1045 14 
Q 944 -88 800 -88 
Q 656 -88 554 14 
Q 453 116 453 259 
Q 453 406 554 506 
Q 656 606 800 606 
z
" transform="scale(0.015625)"/>
       </defs>
       <use xlink:href="#TimesNewRomanPSMT-30"/>
       <use xlink:href="#TimesNewRomanPSMT-2e" transform="translate(50 0)"/>
       <use xlink:href="#TimesNewRomanPSMT-30" transform="translate(75 0)"/>
      </g>
     </g>
    </g>
    <g id="xtick_2">
     <g id="line2d_3">
      <path d="M 510.927234 311.6435 
L 510.927234 45.5315 
" clip-path="url(#pf519781ca8)" style="fill: none; stroke: #b0b0b0; stroke-opacity: 0.3; stroke-width: 0.8; stroke-linecap: square"/>
     </g>
     <g id="line2d_4">
      <g>
       <use xlink:href="#m080ca0bb1f" x="510.927234" y="311.6435" style="stroke: #000000; stroke-width: 0.8"/>
      </g>
     </g>
     <g id="text_2">
      <!-- 0.5 -->
      <g transform="translate(497.177234 333.91975) scale(0.22 -0.22)">
       <defs>
        <path id="TimesNewRomanPSMT-35" d="M 2778 4238 
L 2534 3706 
L 1259 3706 
L 981 3138 
Q 1809 3016 2294 2522 
Q 2709 2097 2709 1522 
Q 2709 1188 2573 903 
Q 2438 619 2231 419 
Q 2025 219 1772 97 
Q 1413 -75 1034 -75 
Q 653 -75 479 54 
Q 306 184 306 341 
Q 306 428 378 495 
Q 450 563 559 563 
Q 641 563 702 538 
Q 763 513 909 409 
Q 1144 247 1384 247 
Q 1750 247 2026 523 
Q 2303 800 2303 1197 
Q 2303 1581 2056 1914 
Q 1809 2247 1375 2428 
Q 1034 2569 447 2591 
L 1259 4238 
L 2778 4238 
z
" transform="scale(0.015625)"/>
       </defs>
       <use xlink:href="#TimesNewRomanPSMT-30"/>
       <use xlink:href="#TimesNewRomanPSMT-2e" transform="translate(50 0)"/>
       <use xlink:href="#TimesNewRomanPSMT-35" transform="translate(75 0)"/>
      </g>
     </g>
    </g>
    <g id="xtick_3">
     <g id="line2d_5">
      <path d="M 637.244905 311.6435 
L 637.244905 45.5315 
" clip-path="url(#pf519781ca8)" style="fill: none; stroke: #b0b0b0; stroke-opacity: 0.3; stroke-width: 0.8; stroke-linecap: square"/>
     </g>
     <g id="line2d_6">
      <g>
       <use xlink:href="#m080ca0bb1f" x="637.244905" y="311.6435" style="stroke: #000000; stroke-width: 0.8"/>
      </g>
     </g>
     <g id="text_3">
      <!-- 1.0 -->
      <g transform="translate(623.494905 333.91975) scale(0.22 -0.22)">
       <defs>
        <path id="TimesNewRomanPSMT-31" d="M 750 3822 
L 1781 4325 
L 1884 4325 
L 1884 747 
Q 1884 391 1914 303 
Q 1944 216 2037 169 
Q 2131 122 2419 116 
L 2419 0 
L 825 0 
L 825 116 
Q 1125 122 1212 167 
Q 1300 213 1334 289 
Q 1369 366 1369 747 
L 1369 3034 
Q 1369 3497 1338 3628 
Q 1316 3728 1258 3775 
Q 1200 3822 1119 3822 
Q 1003 3822 797 3725 
L 750 3822 
z
" transform="scale(0.015625)"/>
       </defs>
       <use xlink:href="#TimesNewRomanPSMT-31"/>
       <use xlink:href="#TimesNewRomanPSMT-2e" transform="translate(50 0)"/>
       <use xlink:href="#TimesNewRomanPSMT-30" transform="translate(75 0)"/>
      </g>
     </g>
    </g>
    <g id="text_4">
     <!-- $\kappa  = \frac{ln(n)}{ln(d)}$ -->
     <g transform="translate(531.159563 364.185687) scale(0.22 -0.22)">
      <defs>
       <path id="STIXGeneral-Italic-3ba" d="M 979 1440 
L 998 1446 
Q 1850 2541 2464 2790 
Q 2547 2822 2630 2822 
Q 2797 2822 2886 2736 
Q 2976 2650 2976 2522 
Q 2976 2387 2893 2307 
Q 2810 2227 2682 2227 
Q 2605 2227 2502 2288 
Q 2400 2349 2336 2349 
Q 2170 2349 1990 2205 
Q 1811 2061 1414 1645 
L 2042 544 
Q 2202 262 2310 182 
Q 2419 102 2624 102 
L 2624 0 
Q 2374 -83 2182 -83 
Q 1786 -83 1555 326 
L 960 1350 
L 576 0 
L 90 0 
L 640 1978 
Q 730 2317 730 2406 
Q 730 2560 518 2560 
L 339 2560 
L 339 2650 
Q 678 2694 1306 2822 
L 1325 2803 
L 979 1440 
z
" transform="scale(0.015625)"/>
       <path id="STIXGeneral-Regular-3d" d="M 4077 2048 
L 307 2048 
L 307 2470 
L 4077 2470 
L 4077 2048 
z
M 4077 768 
L 307 768 
L 307 1190 
L 4077 1190 
L 4077 768 
z
" transform="scale(0.015625)"/>
       <path id="STIXGeneral-Italic-6c" d="M 1786 4339 
L 806 595 
Q 755 410 755 320 
Q 755 205 864 205 
Q 1037 205 1293 570 
L 1453 794 
L 1542 730 
Q 1254 275 1046 102 
Q 838 -70 576 -70 
Q 262 -70 262 288 
Q 262 397 288 480 
L 1165 3834 
Q 1184 3898 1184 3955 
Q 1184 4096 870 4096 
L 755 4096 
L 755 4198 
Q 1203 4250 1747 4371 
L 1786 4339 
z
" transform="scale(0.015625)"/>
       <path id="STIXGeneral-Italic-6e" d="M 2944 749 
L 3034 666 
Q 2707 218 2534 80 
Q 2362 -58 2138 -58 
Q 2010 -58 1923 28 
Q 1837 115 1837 288 
Q 1837 390 1939 768 
L 2221 1805 
Q 2310 2150 2310 2310 
Q 2310 2496 2157 2496 
Q 1971 2496 1750 2275 
Q 1530 2054 1210 1587 
Q 998 1274 899 1024 
Q 800 774 570 0 
L 90 0 
L 704 2240 
Q 717 2304 717 2349 
Q 717 2445 630 2480 
Q 544 2515 301 2522 
L 301 2624 
Q 550 2675 857 2729 
Q 1165 2784 1338 2822 
L 1363 2810 
L 934 1414 
Q 1408 2170 1753 2496 
Q 2099 2822 2413 2822 
Q 2611 2822 2720 2716 
Q 2829 2611 2829 2432 
Q 2829 2272 2765 2048 
L 2406 749 
Q 2317 429 2317 358 
Q 2317 243 2419 243 
Q 2541 243 2810 582 
Q 2854 634 2944 749 
z
" transform="scale(0.015625)"/>
       <path id="STIXGeneral-Regular-28" d="M 1946 -1030 
L 1869 -1133 
Q 1126 -710 716 32 
Q 307 774 307 1613 
Q 307 3386 1888 4326 
L 1946 4224 
Q 1293 3667 1075 3126 
Q 858 2586 858 1632 
Q 858 685 1082 96 
Q 1306 -493 1946 -1030 
z
" transform="scale(0.015625)"/>
       <path id="STIXGeneral-Regular-29" d="M 186 4224 
L 262 4326 
Q 992 3891 1408 3148 
Q 1824 2406 1824 1581 
Q 1824 -166 243 -1133 
L 186 -1030 
Q 845 -486 1059 54 
Q 1274 595 1274 1562 
Q 1274 2534 1059 3120 
Q 845 3706 186 4224 
z
" transform="scale(0.015625)"/>
       <path id="STIXGeneral-Italic-64" d="M 3334 4371 
L 3373 4333 
L 3123 3360 
L 2739 1958 
Q 2323 429 2323 384 
Q 2323 256 2438 256 
Q 2522 256 2614 336 
Q 2707 416 2963 710 
L 3040 646 
Q 2547 -83 2099 -83 
Q 1978 -83 1907 -6 
Q 1837 70 1837 205 
Q 1837 397 1920 774 
Q 1645 307 1379 118 
Q 1114 -70 781 -70 
Q 461 -70 278 125 
Q 96 320 96 678 
Q 96 1440 713 2131 
Q 1331 2822 1965 2822 
Q 2163 2822 2256 2732 
Q 2349 2643 2381 2451 
L 2387 2451 
L 2675 3494 
Q 2765 3808 2765 3949 
Q 2765 4051 2694 4076 
Q 2624 4102 2355 4115 
L 2355 4224 
Q 2848 4269 3334 4371 
z
M 2278 2310 
Q 2278 2477 2185 2576 
Q 2093 2675 1978 2675 
Q 1677 2675 1395 2381 
Q 1075 2042 864 1571 
Q 653 1101 653 704 
Q 653 486 752 361 
Q 851 237 1024 237 
Q 1312 237 1606 550 
Q 1901 864 2089 1350 
Q 2278 1837 2278 2310 
z
" transform="scale(0.015625)"/>
      </defs>
      <use xlink:href="#STIXGeneral-Italic-3ba" transform="translate(0 0.003125)"/>
      <use xlink:href="#STIXGeneral-Regular-3d" transform="translate(58.83999 0.003125)"/>
      <use xlink:href="#STIXGeneral-Italic-6c" transform="translate(141.779971 50.192188) scale(0.7)"/>
      <use xlink:href="#STIXGeneral-Italic-6e" transform="translate(161.239963 50.192188) scale(0.7)"/>
      <use xlink:href="#STIXGeneral-Regular-28" transform="translate(196.239952 50.192188) scale(0.7)"/>
      <use xlink:href="#STIXGeneral-Italic-6e" transform="translate(219.549944 50.192188) scale(0.7)"/>
      <use xlink:href="#STIXGeneral-Regular-29" transform="translate(254.549933 50.192188) scale(0.7)"/>
      <use xlink:href="#STIXGeneral-Italic-6c" transform="translate(141.779971 -41.257812) scale(0.7)"/>
      <use xlink:href="#STIXGeneral-Italic-6e" transform="translate(161.239963 -41.257812) scale(0.7)"/>
      <use xlink:href="#STIXGeneral-Regular-28" transform="translate(196.239952 -41.257812) scale(0.7)"/>
      <use xlink:href="#STIXGeneral-Italic-64" transform="translate(219.549944 -41.257812) scale(0.7)"/>
      <use xlink:href="#STIXGeneral-Regular-29" transform="translate(254.549933 -41.257812) scale(0.7)"/>
      <path d="M 141.779971 12.8 
L 141.779971 19.05 
L 277.859924 19.05 
L 277.859924 12.8 
L 141.779971 12.8 
z
"/>
     </g>
    </g>
   </g>
   <g id="matplotlib.axis_2">
    <g id="ytick_1">
     <g id="line2d_7">
      <path d="M 384.609563 311.6435 
L 741.729563 311.6435 
" clip-path="url(#pf519781ca8)" style="fill: none; stroke: #b0b0b0; stroke-opacity: 0.3; stroke-width: 0.8; stroke-linecap: square"/>
     </g>
     <g id="line2d_8">
      <defs>
       <path id="mb7332ba8a2" d="M 0 0 
L -3.5 0 
" style="stroke: #000000; stroke-width: 0.8"/>
      </defs>
      <g>
       <use xlink:href="#mb7332ba8a2" x="384.609563" y="311.6435" style="stroke: #000000; stroke-width: 0.8"/>
      </g>
     </g>
     <g id="text_5">
      <!-- 0.0 -->
      <g transform="translate(350.109563 319.281625) scale(0.22 -0.22)">
       <use xlink:href="#TimesNewRomanPSMT-30"/>
       <use xlink:href="#TimesNewRomanPSMT-2e" transform="translate(50 0)"/>
       <use xlink:href="#TimesNewRomanPSMT-30" transform="translate(75 0)"/>
      </g>
     </g>
    </g>
    <g id="ytick_2">
     <g id="line2d_9">
      <path d="M 384.609563 285.0323 
L 741.729563 285.0323 
" clip-path="url(#pf519781ca8)" style="fill: none; stroke: #b0b0b0; stroke-opacity: 0.3; stroke-width: 0.8; stroke-linecap: square"/>
     </g>
     <g id="line2d_10">
      <g>
       <use xlink:href="#mb7332ba8a2" x="384.609563" y="285.0323" style="stroke: #000000; stroke-width: 0.8"/>
      </g>
     </g>
     <g id="text_6">
      <!-- 0.1 -->
      <g transform="translate(350.109563 292.670425) scale(0.22 -0.22)">
       <use xlink:href="#TimesNewRomanPSMT-30"/>
       <use xlink:href="#TimesNewRomanPSMT-2e" transform="translate(50 0)"/>
       <use xlink:href="#TimesNewRomanPSMT-31" transform="translate(75 0)"/>
      </g>
     </g>
    </g>
    <g id="ytick_3">
     <g id="line2d_11">
      <path d="M 384.609563 258.4211 
L 741.729563 258.4211 
" clip-path="url(#pf519781ca8)" style="fill: none; stroke: #b0b0b0; stroke-opacity: 0.3; stroke-width: 0.8; stroke-linecap: square"/>
     </g>
     <g id="line2d_12">
      <g>
       <use xlink:href="#mb7332ba8a2" x="384.609563" y="258.4211" style="stroke: #000000; stroke-width: 0.8"/>
      </g>
     </g>
     <g id="text_7">
      <!-- 0.2 -->
      <g transform="translate(350.109563 266.059225) scale(0.22 -0.22)">
       <defs>
        <path id="TimesNewRomanPSMT-32" d="M 2934 816 
L 2638 0 
L 138 0 
L 138 116 
Q 1241 1122 1691 1759 
Q 2141 2397 2141 2925 
Q 2141 3328 1894 3587 
Q 1647 3847 1303 3847 
Q 991 3847 742 3664 
Q 494 3481 375 3128 
L 259 3128 
Q 338 3706 661 4015 
Q 984 4325 1469 4325 
Q 1984 4325 2329 3994 
Q 2675 3663 2675 3213 
Q 2675 2891 2525 2569 
Q 2294 2063 1775 1497 
Q 997 647 803 472 
L 1909 472 
Q 2247 472 2383 497 
Q 2519 522 2628 598 
Q 2738 675 2819 816 
L 2934 816 
z
" transform="scale(0.015625)"/>
       </defs>
       <use xlink:href="#TimesNewRomanPSMT-30"/>
       <use xlink:href="#TimesNewRomanPSMT-2e" transform="translate(50 0)"/>
       <use xlink:href="#TimesNewRomanPSMT-32" transform="translate(75 0)"/>
      </g>
     </g>
    </g>
    <g id="ytick_4">
     <g id="line2d_13">
      <path d="M 384.609563 231.8099 
L 741.729563 231.8099 
" clip-path="url(#pf519781ca8)" style="fill: none; stroke: #b0b0b0; stroke-opacity: 0.3; stroke-width: 0.8; stroke-linecap: square"/>
     </g>
     <g id="line2d_14">
      <g>
       <use xlink:href="#mb7332ba8a2" x="384.609563" y="231.8099" style="stroke: #000000; stroke-width: 0.8"/>
      </g>
     </g>
     <g id="text_8">
      <!-- 0.3 -->
      <g transform="translate(350.109563 239.448025) scale(0.22 -0.22)">
       <defs>
        <path id="TimesNewRomanPSMT-33" d="M 325 3431 
Q 506 3859 782 4092 
Q 1059 4325 1472 4325 
Q 1981 4325 2253 3994 
Q 2459 3747 2459 3466 
Q 2459 3003 1878 2509 
Q 2269 2356 2469 2072 
Q 2669 1788 2669 1403 
Q 2669 853 2319 450 
Q 1863 -75 997 -75 
Q 569 -75 414 31 
Q 259 138 259 259 
Q 259 350 332 419 
Q 406 488 509 488 
Q 588 488 669 463 
Q 722 447 909 348 
Q 1097 250 1169 231 
Q 1284 197 1416 197 
Q 1734 197 1970 444 
Q 2206 691 2206 1028 
Q 2206 1275 2097 1509 
Q 2016 1684 1919 1775 
Q 1784 1900 1550 2001 
Q 1316 2103 1072 2103 
L 972 2103 
L 972 2197 
Q 1219 2228 1467 2375 
Q 1716 2522 1828 2728 
Q 1941 2934 1941 3181 
Q 1941 3503 1739 3701 
Q 1538 3900 1238 3900 
Q 753 3900 428 3381 
L 325 3431 
z
" transform="scale(0.015625)"/>
       </defs>
       <use xlink:href="#TimesNewRomanPSMT-30"/>
       <use xlink:href="#TimesNewRomanPSMT-2e" transform="translate(50 0)"/>
       <use xlink:href="#TimesNewRomanPSMT-33" transform="translate(75 0)"/>
      </g>
     </g>
    </g>
    <g id="ytick_5">
     <g id="line2d_15">
      <path d="M 384.609563 205.1987 
L 741.729563 205.1987 
" clip-path="url(#pf519781ca8)" style="fill: none; stroke: #b0b0b0; stroke-opacity: 0.3; stroke-width: 0.8; stroke-linecap: square"/>
     </g>
     <g id="line2d_16">
      <g>
       <use xlink:href="#mb7332ba8a2" x="384.609563" y="205.1987" style="stroke: #000000; stroke-width: 0.8"/>
      </g>
     </g>
     <g id="text_9">
      <!-- 0.4 -->
      <g transform="translate(350.109563 212.836825) scale(0.22 -0.22)">
       <defs>
        <path id="TimesNewRomanPSMT-34" d="M 2978 1563 
L 2978 1119 
L 2409 1119 
L 2409 0 
L 1894 0 
L 1894 1119 
L 100 1119 
L 100 1519 
L 2066 4325 
L 2409 4325 
L 2409 1563 
L 2978 1563 
z
M 1894 1563 
L 1894 3666 
L 406 1563 
L 1894 1563 
z
" transform="scale(0.015625)"/>
       </defs>
       <use xlink:href="#TimesNewRomanPSMT-30"/>
       <use xlink:href="#TimesNewRomanPSMT-2e" transform="translate(50 0)"/>
       <use xlink:href="#TimesNewRomanPSMT-34" transform="translate(75 0)"/>
      </g>
     </g>
    </g>
    <g id="ytick_6">
     <g id="line2d_17">
      <path d="M 384.609563 178.5875 
L 741.729563 178.5875 
" clip-path="url(#pf519781ca8)" style="fill: none; stroke: #b0b0b0; stroke-opacity: 0.3; stroke-width: 0.8; stroke-linecap: square"/>
     </g>
     <g id="line2d_18">
      <g>
       <use xlink:href="#mb7332ba8a2" x="384.609563" y="178.5875" style="stroke: #000000; stroke-width: 0.8"/>
      </g>
     </g>
     <g id="text_10">
      <!-- 0.5 -->
      <g transform="translate(350.109563 186.225625) scale(0.22 -0.22)">
       <use xlink:href="#TimesNewRomanPSMT-30"/>
       <use xlink:href="#TimesNewRomanPSMT-2e" transform="translate(50 0)"/>
       <use xlink:href="#TimesNewRomanPSMT-35" transform="translate(75 0)"/>
      </g>
     </g>
    </g>
    <g id="ytick_7">
     <g id="line2d_19">
      <path d="M 384.609563 151.9763 
L 741.729563 151.9763 
" clip-path="url(#pf519781ca8)" style="fill: none; stroke: #b0b0b0; stroke-opacity: 0.3; stroke-width: 0.8; stroke-linecap: square"/>
     </g>
     <g id="line2d_20">
      <g>
       <use xlink:href="#mb7332ba8a2" x="384.609563" y="151.9763" style="stroke: #000000; stroke-width: 0.8"/>
      </g>
     </g>
     <g id="text_11">
      <!-- 0.6 -->
      <g transform="translate(350.109563 159.614425) scale(0.22 -0.22)">
       <defs>
        <path id="TimesNewRomanPSMT-36" d="M 2869 4325 
L 2869 4209 
Q 2456 4169 2195 4045 
Q 1934 3922 1679 3669 
Q 1425 3416 1258 3105 
Q 1091 2794 978 2366 
Q 1428 2675 1881 2675 
Q 2316 2675 2634 2325 
Q 2953 1975 2953 1425 
Q 2953 894 2631 456 
Q 2244 -75 1606 -75 
Q 1172 -75 869 213 
Q 275 772 275 1663 
Q 275 2231 503 2743 
Q 731 3256 1154 3653 
Q 1578 4050 1965 4187 
Q 2353 4325 2688 4325 
L 2869 4325 
z
M 925 2138 
Q 869 1716 869 1456 
Q 869 1156 980 804 
Q 1091 453 1309 247 
Q 1469 100 1697 100 
Q 1969 100 2183 356 
Q 2397 613 2397 1088 
Q 2397 1622 2184 2012 
Q 1972 2403 1581 2403 
Q 1463 2403 1327 2353 
Q 1191 2303 925 2138 
z
" transform="scale(0.015625)"/>
       </defs>
       <use xlink:href="#TimesNewRomanPSMT-30"/>
       <use xlink:href="#TimesNewRomanPSMT-2e" transform="translate(50 0)"/>
       <use xlink:href="#TimesNewRomanPSMT-36" transform="translate(75 0)"/>
      </g>
     </g>
    </g>
    <g id="ytick_8">
     <g id="line2d_21">
      <path d="M 384.609563 125.3651 
L 741.729563 125.3651 
" clip-path="url(#pf519781ca8)" style="fill: none; stroke: #b0b0b0; stroke-opacity: 0.3; stroke-width: 0.8; stroke-linecap: square"/>
     </g>
     <g id="line2d_22">
      <g>
       <use xlink:href="#mb7332ba8a2" x="384.609563" y="125.3651" style="stroke: #000000; stroke-width: 0.8"/>
      </g>
     </g>
     <g id="text_12">
      <!-- 0.7 -->
      <g transform="translate(350.109563 133.003225) scale(0.22 -0.22)">
       <defs>
        <path id="TimesNewRomanPSMT-37" d="M 644 4238 
L 2916 4238 
L 2916 4119 
L 1503 -88 
L 1153 -88 
L 2419 3728 
L 1253 3728 
Q 900 3728 750 3644 
Q 488 3500 328 3200 
L 238 3234 
L 644 4238 
z
" transform="scale(0.015625)"/>
       </defs>
       <use xlink:href="#TimesNewRomanPSMT-30"/>
       <use xlink:href="#TimesNewRomanPSMT-2e" transform="translate(50 0)"/>
       <use xlink:href="#TimesNewRomanPSMT-37" transform="translate(75 0)"/>
      </g>
     </g>
    </g>
    <g id="ytick_9">
     <g id="line2d_23">
      <path d="M 384.609563 98.7539 
L 741.729563 98.7539 
" clip-path="url(#pf519781ca8)" style="fill: none; stroke: #b0b0b0; stroke-opacity: 0.3; stroke-width: 0.8; stroke-linecap: square"/>
     </g>
     <g id="line2d_24">
      <g>
       <use xlink:href="#mb7332ba8a2" x="384.609563" y="98.7539" style="stroke: #000000; stroke-width: 0.8"/>
      </g>
     </g>
     <g id="text_13">
      <!-- 0.8 -->
      <g transform="translate(350.109563 106.392025) scale(0.22 -0.22)">
       <defs>
        <path id="TimesNewRomanPSMT-38" d="M 1228 2134 
Q 725 2547 579 2797 
Q 434 3047 434 3316 
Q 434 3728 753 4026 
Q 1072 4325 1600 4325 
Q 2113 4325 2425 4047 
Q 2738 3769 2738 3413 
Q 2738 3175 2569 2928 
Q 2400 2681 1866 2347 
Q 2416 1922 2594 1678 
Q 2831 1359 2831 1006 
Q 2831 559 2490 242 
Q 2150 -75 1597 -75 
Q 994 -75 656 303 
Q 388 606 388 966 
Q 388 1247 577 1523 
Q 766 1800 1228 2134 
z
M 1719 2469 
Q 2094 2806 2194 3001 
Q 2294 3197 2294 3444 
Q 2294 3772 2109 3958 
Q 1925 4144 1606 4144 
Q 1288 4144 1088 3959 
Q 888 3775 888 3528 
Q 888 3366 970 3203 
Q 1053 3041 1206 2894 
L 1719 2469 
z
M 1375 2016 
Q 1116 1797 991 1539 
Q 866 1281 866 981 
Q 866 578 1086 336 
Q 1306 94 1647 94 
Q 1984 94 2187 284 
Q 2391 475 2391 747 
Q 2391 972 2272 1150 
Q 2050 1481 1375 2016 
z
" transform="scale(0.015625)"/>
       </defs>
       <use xlink:href="#TimesNewRomanPSMT-30"/>
       <use xlink:href="#TimesNewRomanPSMT-2e" transform="translate(50 0)"/>
       <use xlink:href="#TimesNewRomanPSMT-38" transform="translate(75 0)"/>
      </g>
     </g>
    </g>
    <g id="ytick_10">
     <g id="line2d_25">
      <path d="M 384.609563 72.1427 
L 741.729563 72.1427 
" clip-path="url(#pf519781ca8)" style="fill: none; stroke: #b0b0b0; stroke-opacity: 0.3; stroke-width: 0.8; stroke-linecap: square"/>
     </g>
     <g id="line2d_26">
      <g>
       <use xlink:href="#mb7332ba8a2" x="384.609563" y="72.1427" style="stroke: #000000; stroke-width: 0.8"/>
      </g>
     </g>
     <g id="text_14">
      <!-- 0.9 -->
      <g transform="translate(350.109563 79.780825) scale(0.22 -0.22)">
       <defs>
        <path id="TimesNewRomanPSMT-39" d="M 338 -88 
L 338 28 
Q 744 34 1094 217 
Q 1444 400 1770 856 
Q 2097 1313 2225 1859 
Q 1734 1544 1338 1544 
Q 891 1544 572 1889 
Q 253 2234 253 2806 
Q 253 3363 572 3797 
Q 956 4325 1575 4325 
Q 2097 4325 2469 3894 
Q 2925 3359 2925 2575 
Q 2925 1869 2578 1258 
Q 2231 647 1613 244 
Q 1109 -88 516 -88 
L 338 -88 
z
M 2275 2091 
Q 2331 2497 2331 2741 
Q 2331 3044 2228 3395 
Q 2125 3747 1936 3934 
Q 1747 4122 1506 4122 
Q 1228 4122 1018 3872 
Q 809 3622 809 3128 
Q 809 2469 1088 2097 
Q 1291 1828 1588 1828 
Q 1731 1828 1928 1897 
Q 2125 1966 2275 2091 
z
" transform="scale(0.015625)"/>
       </defs>
       <use xlink:href="#TimesNewRomanPSMT-30"/>
       <use xlink:href="#TimesNewRomanPSMT-2e" transform="translate(50 0)"/>
       <use xlink:href="#TimesNewRomanPSMT-39" transform="translate(75 0)"/>
      </g>
     </g>
    </g>
    <g id="ytick_11">
     <g id="line2d_27">
      <path d="M 384.609563 45.5315 
L 741.729563 45.5315 
" clip-path="url(#pf519781ca8)" style="fill: none; stroke: #b0b0b0; stroke-opacity: 0.3; stroke-width: 0.8; stroke-linecap: square"/>
     </g>
     <g id="line2d_28">
      <g>
       <use xlink:href="#mb7332ba8a2" x="384.609563" y="45.5315" style="stroke: #000000; stroke-width: 0.8"/>
      </g>
     </g>
     <g id="text_15">
      <!-- 1.0 -->
      <g transform="translate(350.109563 53.169625) scale(0.22 -0.22)">
       <use xlink:href="#TimesNewRomanPSMT-31"/>
       <use xlink:href="#TimesNewRomanPSMT-2e" transform="translate(50 0)"/>
       <use xlink:href="#TimesNewRomanPSMT-30" transform="translate(75 0)"/>
      </g>
     </g>
    </g>
    <g id="text_16">
     <!-- Accuracy -->
     <g transform="translate(341.362375 220.726094) rotate(-90) scale(0.22 -0.22)">
      <defs>
       <path id="TimesNewRomanPSMT-41" d="M 2928 1419 
L 1288 1419 
L 1000 750 
Q 894 503 894 381 
Q 894 284 986 211 
Q 1078 138 1384 116 
L 1384 0 
L 50 0 
L 50 116 
Q 316 163 394 238 
Q 553 388 747 847 
L 2238 4334 
L 2347 4334 
L 3822 809 
Q 4000 384 4145 257 
Q 4291 131 4550 116 
L 4550 0 
L 2878 0 
L 2878 116 
Q 3131 128 3220 200 
Q 3309 272 3309 375 
Q 3309 513 3184 809 
L 2928 1419 
z
M 2841 1650 
L 2122 3363 
L 1384 1650 
L 2841 1650 
z
" transform="scale(0.015625)"/>
       <path id="TimesNewRomanPSMT-63" d="M 2631 1088 
Q 2516 522 2178 217 
Q 1841 -88 1431 -88 
Q 944 -88 581 321 
Q 219 731 219 1428 
Q 219 2103 620 2525 
Q 1022 2947 1584 2947 
Q 2006 2947 2278 2723 
Q 2550 2500 2550 2259 
Q 2550 2141 2473 2067 
Q 2397 1994 2259 1994 
Q 2075 1994 1981 2113 
Q 1928 2178 1911 2362 
Q 1894 2547 1784 2644 
Q 1675 2738 1481 2738 
Q 1169 2738 978 2506 
Q 725 2200 725 1697 
Q 725 1184 976 792 
Q 1228 400 1656 400 
Q 1963 400 2206 609 
Q 2378 753 2541 1131 
L 2631 1088 
z
" transform="scale(0.015625)"/>
       <path id="TimesNewRomanPSMT-75" d="M 2709 2863 
L 2709 1128 
Q 2709 631 2732 520 
Q 2756 409 2807 365 
Q 2859 322 2928 322 
Q 3025 322 3147 375 
L 3191 266 
L 2334 -88 
L 2194 -88 
L 2194 519 
Q 1825 119 1631 15 
Q 1438 -88 1222 -88 
Q 981 -88 804 51 
Q 628 191 559 409 
Q 491 628 491 1028 
L 491 2306 
Q 491 2509 447 2587 
Q 403 2666 317 2708 
Q 231 2750 6 2747 
L 6 2863 
L 1009 2863 
L 1009 947 
Q 1009 547 1148 422 
Q 1288 297 1484 297 
Q 1619 297 1789 381 
Q 1959 466 2194 703 
L 2194 2325 
Q 2194 2569 2105 2655 
Q 2016 2741 1734 2747 
L 1734 2863 
L 2709 2863 
z
" transform="scale(0.015625)"/>
       <path id="TimesNewRomanPSMT-72" d="M 1038 2947 
L 1038 2303 
Q 1397 2947 1775 2947 
Q 1947 2947 2059 2842 
Q 2172 2738 2172 2600 
Q 2172 2478 2090 2393 
Q 2009 2309 1897 2309 
Q 1788 2309 1652 2417 
Q 1516 2525 1450 2525 
Q 1394 2525 1328 2463 
Q 1188 2334 1038 2041 
L 1038 669 
Q 1038 431 1097 309 
Q 1138 225 1241 169 
Q 1344 113 1538 113 
L 1538 0 
L 72 0 
L 72 113 
Q 291 113 397 181 
Q 475 231 506 341 
Q 522 394 522 644 
L 522 1753 
Q 522 2253 501 2348 
Q 481 2444 426 2487 
Q 372 2531 291 2531 
Q 194 2531 72 2484 
L 41 2597 
L 906 2947 
L 1038 2947 
z
" transform="scale(0.015625)"/>
       <path id="TimesNewRomanPSMT-61" d="M 1822 413 
Q 1381 72 1269 19 
Q 1100 -59 909 -59 
Q 613 -59 420 144 
Q 228 347 228 678 
Q 228 888 322 1041 
Q 450 1253 767 1440 
Q 1084 1628 1822 1897 
L 1822 2009 
Q 1822 2438 1686 2597 
Q 1550 2756 1291 2756 
Q 1094 2756 978 2650 
Q 859 2544 859 2406 
L 866 2225 
Q 866 2081 792 2003 
Q 719 1925 600 1925 
Q 484 1925 411 2006 
Q 338 2088 338 2228 
Q 338 2497 613 2722 
Q 888 2947 1384 2947 
Q 1766 2947 2009 2819 
Q 2194 2722 2281 2516 
Q 2338 2381 2338 1966 
L 2338 994 
Q 2338 584 2353 492 
Q 2369 400 2405 369 
Q 2441 338 2488 338 
Q 2538 338 2575 359 
Q 2641 400 2828 588 
L 2828 413 
Q 2478 -56 2159 -56 
Q 2006 -56 1915 50 
Q 1825 156 1822 413 
z
M 1822 616 
L 1822 1706 
Q 1350 1519 1213 1441 
Q 966 1303 859 1153 
Q 753 1003 753 825 
Q 753 600 887 451 
Q 1022 303 1197 303 
Q 1434 303 1822 616 
z
" transform="scale(0.015625)"/>
       <path id="TimesNewRomanPSMT-79" d="M 38 2863 
L 1372 2863 
L 1372 2747 
L 1306 2747 
Q 1166 2747 1095 2686 
Q 1025 2625 1025 2534 
Q 1025 2413 1128 2197 
L 1825 753 
L 2466 2334 
Q 2519 2463 2519 2588 
Q 2519 2644 2497 2672 
Q 2472 2706 2419 2726 
Q 2366 2747 2231 2747 
L 2231 2863 
L 3163 2863 
L 3163 2747 
Q 3047 2734 2984 2696 
Q 2922 2659 2847 2556 
Q 2819 2513 2741 2316 
L 1575 -541 
Q 1406 -956 1132 -1168 
Q 859 -1381 606 -1381 
Q 422 -1381 303 -1275 
Q 184 -1169 184 -1031 
Q 184 -900 270 -820 
Q 356 -741 506 -741 
Q 609 -741 788 -809 
Q 913 -856 944 -856 
Q 1038 -856 1148 -759 
Q 1259 -663 1372 -384 
L 1575 113 
L 547 2272 
Q 500 2369 397 2513 
Q 319 2622 269 2659 
Q 197 2709 38 2747 
L 38 2863 
z
" transform="scale(0.015625)"/>
      </defs>
      <use xlink:href="#TimesNewRomanPSMT-41"/>
      <use xlink:href="#TimesNewRomanPSMT-63" transform="translate(72.216797 0)"/>
      <use xlink:href="#TimesNewRomanPSMT-63" transform="translate(116.601562 0)"/>
      <use xlink:href="#TimesNewRomanPSMT-75" transform="translate(160.986328 0)"/>
      <use xlink:href="#TimesNewRomanPSMT-72" transform="translate(210.986328 0)"/>
      <use xlink:href="#TimesNewRomanPSMT-61" transform="translate(244.287109 0)"/>
      <use xlink:href="#TimesNewRomanPSMT-63" transform="translate(288.671875 0)"/>
      <use xlink:href="#TimesNewRomanPSMT-79" transform="translate(333.056641 0)"/>
     </g>
    </g>
   </g>
   <g id="line2d_29">
    <path d="M 384.609563 177.389988 
L 472.025445 163.433904 
L 495.594314 159.471794 
L 519.980021 156.26366 
L 527.934931 155.435753 
L 534.46087 155.450536 
L 539.993878 152.937263 
L 544.796584 152.671139 
L 549.039487 151.473642 
L 556.280592 149.640432 
L 559.424588 149.788262 
L 562.318785 150.335278 
L 564.999973 149.566502 
L 567.497368 149.389091 
L 569.83456 148.88644 
L 572.030869 148.605548 
L 574.102318 149.270827 
L 576.062343 149.004719 
L 577.922322 149.093416 
L 579.691974 148.709029 
L 581.379668 149.847409 
L 582.99266 149.788262 
L 584.537283 149.034285 
L 587.443017 149.566502 
L 588.813391 148.723811 
L 590.134102 148.66468 
L 591.408625 148.428137 
L 592.640082 149.049068 
L 593.831287 150.79358 
L 594.98479 148.457703 
L 596.102903 150.231781 
L 597.187734 148.605548 
L 598.241208 150.083952 
L 599.265085 149.374308 
L 602.174685 149.551719 
L 603.095128 149.256044 
L 603.992898 148.738594 
L 604.869085 149.137765 
L 605.724703 149.270827 
L 606.560694 150.069169 
L 607.377939 149.596068 
L 608.177261 149.862192 
L 608.959429 150.778797 
L 609.725163 149.196913 
L 610.475141 149.803045 
L 611.209997 149.758696 
L 611.930329 148.901222 
L 612.6367 149.315176 
L 613.329641 150.749231 
L 614.009654 149.448238 
L 614.677211 150.187432 
L 615.332761 148.768176 
L 615.976729 149.566502 
L 616.609516 149.448238 
L 617.231504 149.965673 
L 617.843055 149.211696 
L 618.444515 149.492587 
L 619.03621 149.566502 
L 619.618452 150.246564 
L 620.191539 149.610851 
L 620.755755 150.143084 
L 621.31137 149.803045 
L 621.858641 149.906541 
L 622.397817 149.669998 
L 622.929133 149.655215 
L 623.452814 149.773479 
L 623.969078 150.261347 
L 624.478131 151.11882 
L 624.980172 150.423975 
L 625.475391 149.211696 
L 625.963972 148.916005 
L 626.446091 150.305712 
L 626.921915 149.817827 
L 627.391607 149.522153 
L 627.855323 151.281448 
L 628.765423 149.477804 
L 629.21209 149.655215 
L 629.65335 151.710185 
L 630.089331 149.418673 
L 630.520159 150.172649 
L 630.945953 150.394409 
L 631.366831 149.374308 
L 631.782904 152.700721 
L 632.194281 149.463021 
L 632.601066 150.867495 
L 633.003361 149.876975 
L 633.401265 149.433455 
L 633.794871 150.542254 
L 634.184272 151.11882 
L 634.569557 150.438758 
L 634.950812 149.152548 
L 635.328119 150.143084 
L 635.701561 149.936107 
L 636.071215 150.335278 
L 636.437158 150.010021 
L 636.799463 150.468324 
L 637.158202 150.010021 
L 637.513445 150.128301 
L 637.865258 150.512689 
L 638.558859 149.492587 
L 638.900771 149.566502 
L 639.239506 151.089255 
L 639.575121 149.684781 
L 639.907675 149.743913 
L 640.237221 149.581285 
L 640.563815 149.714347 
L 640.887508 150.010021 
L 641.208351 150.660518 
L 641.526395 150.039587 
L 641.841688 150.409192 
L 642.154276 150.586603 
L 642.464207 150.010021 
L 642.771524 149.699564 
L 643.678227 150.941425 
L 643.975517 150.630952 
L 644.270402 150.128301 
L 644.562921 150.128301 
L 644.85311 150.852712 
L 645.141007 150.823146 
L 645.426648 150.616169 
L 645.710068 150.808363 
L 645.991301 150.261347 
L 646.27038 150.276146 
L 646.547339 149.758696 
L 646.822209 151.63627 
L 647.365807 149.773479 
L 647.634596 150.261347 
L 647.901417 150.276146 
L 648.166299 150.897061 
L 648.42927 150.704867 
L 648.690357 150.039587 
L 648.949587 149.72913 
L 649.206986 151.532774 
L 649.46258 151.414511 
L 649.716394 150.157867 
L 649.968453 149.758696 
L 650.218781 151.311014 
L 650.467402 149.581285 
L 650.714337 149.773479 
L 650.959611 150.246564 
L 651.203246 150.098735 
L 651.685683 150.645735 
L 651.924528 150.35006 
L 652.161818 150.852712 
L 652.397573 149.596068 
L 652.864556 150.542254 
L 653.095824 149.936107 
L 653.780949 150.660518 
L 654.006492 150.527471 
L 654.230647 151.695402 
L 654.453433 150.557037 
L 654.674865 150.024804 
L 654.894959 151.370162 
L 655.113733 150.054386 
L 655.331201 150.941425 
L 655.54738 150.187432 
L 656.188327 150.527471 
L 656.399496 151.207534 
L 656.609448 150.616169 
L 656.818197 150.483107 
L 657.025758 151.281448 
L 657.232144 150.069169 
L 657.437367 150.704867 
L 657.641442 150.202215 
L 657.84438 150.749231 
L 658.246897 150.172649 
L 658.446501 150.320495 
L 658.645018 150.911843 
L 658.842459 150.497906 
L 659.038837 150.749231 
L 659.234162 150.261347 
L 659.428446 150.897061 
L 659.6217 150.128301 
L 660.00516 150.852712 
L 660.384628 150.216998 
L 660.572891 151.251883 
L 660.760186 150.557037 
L 660.946524 151.104037 
L 661.131914 150.143084 
L 661.316366 150.453541 
L 661.499889 150.335278 
L 661.682492 150.512689 
L 661.864186 150.497906 
L 662.044978 150.113518 
L 662.224877 151.325797 
L 662.403893 149.936107 
L 662.759309 150.305712 
L 662.935725 149.876975 
L 663.286017 150.335278 
L 663.459909 150.956208 
L 663.632974 150.113518 
L 663.805222 150.128301 
L 663.97666 151.044906 
L 664.317135 150.453541 
L 664.486187 150.364843 
L 664.654459 150.113518 
L 664.821957 150.852712 
L 664.988689 150.202215 
L 665.154662 150.261347 
L 665.319883 149.847409 
L 665.484358 151.11882 
L 665.648094 150.276146 
L 665.811098 150.143084 
L 665.973376 150.808363 
L 666.134934 150.290929 
L 666.29578 150.364843 
L 666.455919 150.616169 
L 666.615358 150.394409 
L 666.774102 150.882278 
L 666.932157 150.305712 
L 667.089531 150.453541 
L 667.246227 149.980456 
L 667.557614 150.394409 
L 667.712315 150.083952 
L 667.866363 150.645735 
L 668.019762 150.054386 
L 668.172518 150.438758 
L 668.476123 150.379626 
L 668.626983 149.980456 
L 668.926841 151.000557 
L 669.07585 149.862192 
L 669.224253 150.069169 
L 669.372053 150.601386 
L 669.519257 150.423975 
L 669.665869 149.906541 
L 669.811893 151.148402 
L 670.102198 149.876975 
L 670.246487 149.995238 
L 670.533365 150.719665 
L 670.818002 150.039587 
L 670.959491 150.468324 
L 671.100433 150.394409 
L 671.240832 150.630952 
L 671.380693 150.010021 
L 671.520019 150.645735 
L 671.797083 150.216998 
L 672.072056 150.305712 
L 672.208769 150.527471 
L 672.480666 150.113518 
L 672.750549 150.57182 
L 672.884745 150.143084 
L 673.151664 150.483107 
L 673.416642 150.113518 
L 673.679707 150.734448 
L 673.810532 150.024804 
L 673.940888 150.010021 
L 674.07078 150.527471 
L 674.20021 150.586603 
L 674.329183 150.823146 
L 674.4577 150.305712 
L 674.713384 150.379626 
L 674.840557 150.749231 
L 675.093578 150.394409 
L 675.219433 150.970991 
L 675.344855 150.897061 
L 675.594411 150.069169 
L 675.718552 149.936107 
L 675.842271 150.764014 
L 676.210928 150.054386 
L 676.454644 150.379626 
L 676.817189 151.044906 
L 677.056898 150.216998 
L 677.29504 150.645735 
L 677.413531 150.246564 
L 677.531637 150.941425 
L 677.766708 150.069169 
L 678.000272 150.143084 
L 678.232349 150.660518 
L 678.577717 149.965673 
L 678.919843 151.133603 
L 679.146156 149.965673 
L 679.258788 149.817827 
L 679.371073 150.379626 
L 679.483013 150.364843 
L 679.59461 150.630952 
L 679.816784 150.276146 
L 679.927365 150.512689 
L 680.037612 150.010021 
L 680.147527 150.290929 
L 680.25711 150.216998 
L 680.366366 150.320495 
L 680.583899 150.069169 
L 680.692181 150.409192 
L 680.800142 149.995238 
L 680.907784 150.143084 
L 681.015109 150.645735 
L 681.122119 150.586603 
L 681.228816 150.704867 
L 681.441277 150.483107 
L 681.547044 150.557037 
L 681.862519 150.039587 
L 682.278948 150.764014 
L 682.382316 150.320495 
L 682.485392 150.438758 
L 682.588177 150.231781 
L 682.690673 150.57182 
L 682.792882 150.305712 
L 682.894805 150.364843 
L 682.996443 150.246564 
L 683.097799 150.557037 
L 683.198874 150.438758 
L 683.400187 150.512689 
L 683.500428 150.468324 
L 683.600394 150.823146 
L 683.799507 150.409192 
L 683.997539 150.483107 
L 684.096152 151.311014 
L 684.1945 150.57182 
L 684.292583 150.601386 
L 684.390402 150.098735 
L 684.682296 150.483107 
L 684.875601 149.936107 
L 684.97187 150.453541 
L 685.16365 150.246564 
L 685.354425 150.453541 
L 685.44944 150.438758 
L 685.544207 150.216998 
L 685.638729 150.423975 
L 685.733006 150.261347 
L 685.82704 150.335278 
L 685.920833 150.778797 
L 686.014384 150.172649 
L 686.107696 150.202215 
L 686.293606 150.261347 
L 686.386206 150.601386 
L 686.478572 150.394409 
L 686.754274 150.749231 
L 686.845713 150.394409 
L 686.936923 150.423975 
L 687.118662 150.039587 
L 687.209192 150.704867 
L 687.299498 150.172649 
L 687.389581 150.823146 
L 687.569082 150.098735 
L 687.658502 150.261347 
L 687.747704 149.862192 
L 687.836687 150.423975 
L 687.925454 150.335278 
L 688.102341 149.995238 
L 688.190464 150.512689 
L 688.278374 150.423975 
L 688.366073 150.808363 
L 688.62791 149.995238 
L 688.714773 150.527471 
L 688.801429 150.483107 
L 688.974126 149.995238 
L 689.060168 149.758696 
L 689.317084 150.690084 
L 689.572201 150.246564 
L 689.825545 150.690084 
L 689.993467 150.364843 
L 690.077139 150.749231 
L 690.32701 150.054386 
L 690.575178 150.630952 
L 690.821669 150.468324 
L 690.903463 150.172649 
L 691.066503 150.630952 
L 691.147751 150.290929 
L 691.228818 150.512689 
L 691.309704 150.453541 
L 691.551293 150.704867 
L 691.631468 150.675301 
L 691.711468 150.335278 
L 691.791291 150.468324 
L 691.870941 150.276146 
L 692.02972 150.453541 
L 692.187809 150.231781 
L 692.266598 150.394409 
L 692.345217 150.157867 
L 692.501947 150.483107 
L 692.58006 150.423975 
L 692.658006 150.867495 
L 692.968134 150.143084 
L 693.045256 150.172649 
L 693.275646 150.704867 
L 693.35212 150.778797 
L 693.428434 150.069169 
L 693.504589 150.276146 
L 693.580584 150.157867 
L 693.656422 150.335278 
L 693.807626 150.882278 
L 693.958205 150.231781 
L 694.033261 150.630952 
L 694.108164 150.557037 
L 694.182913 150.172649 
L 694.257509 150.497906 
L 694.331953 150.453541 
L 694.406244 150.438758 
L 694.480385 150.290929 
L 694.701907 150.897061 
L 694.775449 150.601386 
L 694.92209 150.823146 
L 694.99519 150.231781 
L 695.068144 150.941425 
L 695.286132 149.876975 
L 695.430737 150.897061 
L 695.57477 150.394409 
L 695.789759 150.261347 
L 695.932383 150.660518 
L 696.074451 150.202215 
L 696.145278 150.320495 
L 696.286521 150.601386 
L 696.356937 150.172649 
L 696.567374 150.601386 
L 696.776603 150.290929 
L 696.84608 150.246564 
L 696.984638 150.704867 
L 697.05372 150.379626 
L 697.122671 150.423975 
L 697.191492 150.394409 
L 697.260183 150.823146 
L 697.465483 150.083952 
L 697.601711 150.749231 
L 697.805102 150.231781 
L 697.872647 150.202215 
L 698.007364 150.823146 
L 698.141585 150.483107 
L 698.275313 150.867495 
L 698.341994 150.808363 
L 698.541306 150.083952 
L 698.607503 149.876975 
L 698.739535 151.01534 
L 698.871091 150.364843 
L 699.002174 150.778797 
L 699.067539 150.690084 
L 699.132788 150.216998 
L 699.197919 150.261347 
L 699.262934 150.557037 
L 699.327834 150.512689 
L 699.457287 150.202215 
L 699.521842 150.57182 
L 699.586283 150.172649 
L 699.714823 150.749231 
L 699.778924 150.497906 
L 699.842912 150.734448 
L 699.906787 150.35006 
L 699.970552 150.423975 
L 700.034204 150.276146 
L 700.161177 150.630952 
L 700.350812 150.261347 
L 700.476688 150.911843 
L 700.602132 150.157867 
L 700.664692 150.897061 
L 700.727145 150.675301 
L 700.789491 150.364843 
L 700.851731 150.497906 
L 700.913865 150.497906 
L 700.975893 150.246564 
L 701.037815 150.335278 
L 701.099632 150.601386 
L 701.161345 150.409192 
L 701.222954 150.586603 
L 701.284458 150.468324 
L 701.345859 150.335278 
L 701.529444 150.542254 
L 701.833378 150.246564 
L 701.893862 150.276146 
L 701.954246 150.660518 
L 702.014529 150.438758 
L 702.074714 150.438758 
L 702.134799 150.749231 
L 702.314462 150.305712 
L 702.374153 150.231781 
L 702.493244 150.305712 
L 702.552643 150.113518 
L 702.611946 150.660518 
L 702.671153 150.364843 
L 702.730263 150.128301 
L 702.848198 150.675301 
L 702.907022 150.187432 
L 702.965752 150.557037 
L 703.141375 150.231781 
L 703.316156 150.690084 
L 703.432212 150.143084 
L 703.490102 150.394409 
L 703.547901 150.305712 
L 703.720748 150.660518 
L 703.778182 150.054386 
L 703.835525 150.601386 
L 703.949942 150.157867 
L 704.064002 150.601386 
L 704.177705 150.335278 
L 704.347598 150.557037 
L 704.404053 150.202215 
L 704.460421 150.512689 
L 704.572896 150.069169 
L 704.740961 150.379626 
L 704.852575 150.704867 
L 704.908254 150.246564 
L 704.963849 150.616169 
L 705.130124 149.980456 
L 705.240555 150.601386 
L 705.295645 150.497906 
L 705.350652 150.276146 
L 705.405576 150.704867 
L 705.460417 150.364843 
L 705.515176 150.261347 
L 705.569853 150.645735 
L 705.624448 150.35006 
L 705.678961 150.423975 
L 705.787744 150.172649 
L 705.842014 150.512689 
L 705.896203 150.35006 
L 705.950311 150.187432 
L 706.00434 150.261347 
L 706.219656 150.542254 
L 706.273287 150.231781 
L 706.326839 150.276146 
L 706.380313 150.719665 
L 706.433708 150.468324 
L 706.487025 150.143084 
L 706.540265 150.57182 
L 706.64651 150.527471 
L 706.699517 150.453541 
L 706.858077 149.936107 
L 707.12082 150.527471 
L 707.173143 150.157867 
L 707.22539 150.261347 
L 707.32966 150.438758 
L 707.381683 150.364843 
L 707.433632 150.276146 
L 707.485508 150.512689 
L 707.537309 150.438758 
L 707.589037 150.320495 
L 707.640692 150.379626 
L 707.692274 150.764014 
L 707.743782 150.35006 
L 707.795218 150.468324 
L 707.949092 149.876975 
L 708.00024 150.704867 
L 708.051315 150.276146 
L 708.153252 150.512689 
L 708.204114 150.010021 
L 708.254905 150.601386 
L 708.305626 150.261347 
L 708.356275 150.276146 
L 708.406855 150.586603 
L 708.457364 150.557037 
L 708.558174 150.187432 
L 708.608474 150.542254 
L 708.658705 150.409192 
L 708.758959 150.113518 
L 708.808984 150.690084 
L 708.858939 150.379626 
L 708.908826 150.143084 
L 708.958645 150.749231 
L 709.008396 150.202215 
L 709.157243 150.586603 
L 709.206724 150.261347 
L 709.256138 150.320495 
L 709.403978 150.527471 
L 709.453126 150.320495 
L 709.502207 150.557037 
L 709.600171 149.995238 
L 709.746625 150.630952 
L 709.795313 150.290929 
L 709.892494 150.35006 
L 710.134318 150.305712 
L 710.18249 150.409192 
L 710.2306 150.35006 
L 710.374548 150.276146 
L 710.422404 150.202215 
L 710.565598 150.438758 
L 710.708232 150.216998 
L 710.850309 150.409192 
L 710.897546 150.246564 
L 710.944721 150.216998 
L 710.991835 150.690084 
L 711.038889 150.276146 
L 711.226497 150.364843 
L 711.273249 149.980456 
L 711.319941 150.187432 
L 711.413145 150.083952 
L 711.459658 150.497906 
L 711.506112 150.024804 
L 711.552506 150.157867 
L 711.598842 149.921324 
L 711.645119 150.069169 
L 711.737496 150.143084 
L 711.783597 150.483107 
L 711.82964 150.069169 
L 712.058987 150.719665 
L 712.195905 150.113518 
L 712.24143 150.453541 
L 712.286899 150.261347 
L 712.377666 150.143084 
L 712.422965 150.364843 
L 712.468208 150.187432 
L 712.513394 150.143084 
L 712.558525 150.616169 
L 712.6036 150.276146 
L 712.693583 150.143084 
L 712.872885 150.527471 
L 712.917573 150.024804 
L 713.006785 150.246564 
L 713.05131 150.113518 
L 713.09578 150.527471 
L 713.140195 150.438758 
L 713.184557 150.039587 
L 713.228865 150.202215 
L 713.273119 150.453541 
L 713.317319 150.231781 
L 713.361466 150.231781 
L 713.405559 150.483107 
L 713.449599 150.261347 
L 713.493586 150.069169 
L 713.53752 150.216998 
L 713.581401 150.926626 
L 713.62523 150.128301 
L 713.669005 150.512689 
L 713.712728 150.483107 
L 713.800017 150.542254 
L 713.843584 150.083952 
L 713.973971 150.453541 
L 714.01733 149.95089 
L 714.060638 150.379626 
L 714.103894 150.409192 
L 714.147099 150.054386 
L 714.190252 150.527471 
L 714.319408 150.231781 
L 714.362358 150.276146 
L 714.405257 150.483107 
L 714.448107 150.261347 
L 714.490906 150.276146 
L 714.533654 150.527471 
L 714.576353 150.35006 
L 714.619002 150.246564 
L 714.661601 150.542254 
L 714.70415 150.261347 
L 714.746649 150.024804 
L 714.789099 150.394409 
L 714.8315 150.379626 
L 714.916154 150.246564 
L 714.958407 150.320495 
L 715.000611 150.483107 
L 715.042766 150.098735 
L 715.084873 150.35006 
L 715.126931 150.645735 
L 715.168941 150.305712 
L 715.210902 149.906541 
L 715.252815 150.246564 
L 715.29468 150.438758 
L 715.336497 150.172649 
L 715.378266 150.216998 
L 715.419987 150.453541 
L 715.46166 150.216998 
L 715.503286 150.069169 
L 715.544865 150.379626 
L 715.586396 150.246564 
L 715.627879 149.980456 
L 715.669316 150.320495 
L 715.710705 150.320495 
L 715.793344 150.704867 
L 715.834593 149.995238 
L 715.916951 150.335278 
L 715.95806 150.024804 
L 716.081111 150.645735 
L 716.162914 150.231781 
L 716.244535 150.290929 
L 716.285277 150.423975 
L 716.325973 150.409192 
L 716.366624 150.113518 
L 716.407229 150.453541 
L 716.44779 150.231781 
L 716.528775 150.527471 
L 716.569201 150.423975 
L 716.690209 150.054386 
L 716.730456 150.143084 
L 716.770658 150.675301 
L 716.810816 150.113518 
L 716.85093 150.57182 
L 716.971008 150.024804 
L 717.050841 150.409192 
L 717.090692 150.202215 
L 717.289295 150.468324 
L 717.407939 150.187432 
L 717.486822 150.054386 
L 717.526199 150.483107 
L 717.565534 150.320495 
L 717.644076 150.423975 
L 717.72245 150.305712 
L 717.761573 150.379626 
L 717.800655 150.483107 
L 717.839695 150.054386 
L 717.917649 150.290929 
L 717.956564 150.231781 
L 717.995437 150.527471 
L 718.034269 149.980456 
L 718.189184 150.453541 
L 718.343444 150.157867 
L 718.381907 150.468324 
L 718.458711 150.246564 
L 718.497053 150.290929 
L 718.535354 150.083952 
L 718.611836 150.231781 
L 718.688158 150.187432 
L 718.72626 150.512689 
L 718.764321 150.290929 
L 718.802343 150.202215 
L 718.840325 150.483107 
L 718.91617 150.423975 
L 718.954034 150.143084 
L 719.029644 150.157867 
L 719.06739 150.527471 
L 719.105097 150.113518 
L 719.142765 150.438758 
L 719.180394 150.172649 
L 719.217984 150.645735 
L 719.293049 150.320495 
L 719.330523 150.335278 
L 719.367959 150.557037 
L 719.405356 150.172649 
L 719.442715 150.409192 
L 719.517319 150.512689 
L 719.554564 150.054386 
L 719.703163 150.601386 
L 719.740218 150.246564 
L 719.814216 150.335278 
L 719.851158 150.409192 
L 719.888064 150.157867 
L 719.961762 150.276146 
L 719.998556 150.261347 
L 720.108713 150.601386 
L 720.145359 150.098735 
L 720.21854 150.187432 
L 720.328036 150.675301 
L 720.473521 150.172649 
L 720.546046 150.453541 
L 720.582255 150.276146 
L 720.618427 150.261347 
L 720.654564 150.35006 
L 720.690665 150.645735 
L 720.76276 150.335278 
L 720.798754 150.512689 
L 720.834713 150.172649 
L 720.870636 150.364843 
L 720.906523 150.128301 
L 720.942376 150.483107 
L 720.978193 150.276146 
L 721.049722 150.246564 
L 721.121111 150.497906 
L 721.19236 150.231781 
L 721.26347 150.320495 
L 721.369876 150.216998 
L 721.405276 150.305712 
L 721.440642 150.438758 
L 721.475973 150.157867 
L 721.51127 150.35006 
L 721.581761 150.246564 
L 721.616956 150.468324 
L 721.722336 150.438758 
L 721.792421 150.231781 
L 721.897296 150.305712 
L 721.967046 150.497906 
L 722.00187 150.113518 
L 722.07142 150.187432 
L 722.175497 150.364843 
L 722.279277 150.216998 
L 722.382762 150.409192 
L 722.45159 150.246564 
L 722.485955 150.453541 
L 722.554588 150.261347 
L 722.623092 150.305712 
L 722.691468 150.024804 
L 722.759715 150.143084 
L 722.895828 150.379626 
L 722.963694 150.320495 
L 722.99758 150.128301 
L 723.031434 150.438758 
L 723.065257 150.261347 
L 723.166538 150.527471 
L 723.233903 150.394409 
L 723.267538 150.172649 
L 723.334717 150.246564 
L 723.368259 150.409192 
L 723.435253 150.246564 
L 723.535512 150.483107 
L 723.56887 150.305712 
L 723.635496 150.35006 
L 723.668763 150.010021 
L 723.80153 150.409192 
L 723.867732 150.187432 
L 723.933814 150.276146 
L 723.999776 150.335278 
L 724.032713 150.083952 
L 724.06562 150.527471 
L 724.131344 150.364843 
L 724.164162 150.231781 
L 724.229709 150.335278 
L 724.262439 150.320495 
L 724.295139 150.409192 
L 724.32781 149.847409 
L 724.360452 150.423975 
L 724.393064 150.143084 
L 724.523222 150.453541 
L 724.555689 150.157867 
L 724.652918 150.172649 
L 724.717593 150.423975 
L 724.749887 150.143084 
L 724.910932 150.409192 
L 724.943056 150.246564 
L 724.975151 150.468324 
L 725.039257 150.276146 
L 725.167132 150.157867 
L 725.230902 150.497906 
L 725.29456 150.394409 
L 725.421545 150.113518 
L 725.548088 150.453541 
L 725.579655 150.172649 
L 725.674193 150.290929 
L 725.737083 150.172649 
L 725.799864 150.202215 
L 725.956345 150.216998 
L 725.987561 150.483107 
L 726.049912 150.202215 
L 726.112157 150.290929 
L 726.174296 150.157867 
L 726.205326 150.305712 
L 726.267307 150.290929 
L 726.36008 150.35006 
L 726.390952 150.069169 
L 726.452618 150.335278 
L 726.483412 150.276146 
L 726.51418 150.143084 
L 726.544921 150.187432 
L 726.575637 150.483107 
L 726.636992 150.098735 
L 726.759392 150.320495 
L 726.850923 150.083952 
L 726.972607 150.423975 
L 727.124144 150.069169 
L 727.154376 150.143084 
L 727.184583 150.35006 
L 727.244922 150.305712 
L 727.335243 150.010021 
L 727.3653 150.098735 
L 727.425341 150.320495 
L 727.485282 150.290929 
L 727.515216 149.891758 
L 727.545126 150.364843 
L 727.575011 150.010021 
L 727.604871 150.335278 
L 727.694306 150.276146 
L 727.753807 150.453541 
L 727.783521 150.364843 
L 727.872519 150.128301 
L 727.902137 150.246564 
L 727.990846 150.172649 
L 728.049866 150.069169 
L 728.07934 150.364843 
L 728.10879 149.965673 
L 728.167619 150.010021 
L 728.255685 150.542254 
L 728.284993 150.172649 
L 728.314278 150.483107 
L 728.40199 150.231781 
L 728.460349 150.335278 
L 728.489493 149.980456 
L 728.547711 150.216998 
L 728.576785 150.468324 
L 728.605837 150.098735 
L 728.634865 150.438758 
L 728.750746 150.098735 
L 728.779659 150.290929 
L 728.837416 150.172649 
L 728.86626 150.024804 
L 728.895082 150.364843 
L 729.038848 150.290929 
L 729.067533 150.35006 
L 729.124836 150.143084 
L 729.153454 150.497906 
L 729.182049 150.172649 
L 729.210622 150.483107 
L 729.296207 150.379626 
L 729.438402 150.128301 
L 729.466775 150.054386 
L 729.495126 150.290929 
L 729.523454 150.024804 
L 729.580046 150.246564 
L 729.664768 150.320495 
L 729.692965 150.083952 
L 729.749294 150.35006 
L 729.833624 150.335278 
L 729.861691 150.039587 
L 729.945762 150.246564 
L 730.001702 150.305712 
L 730.02964 150.128301 
L 730.113325 150.320495 
L 730.141177 150.231781 
L 730.196818 150.157867 
L 730.28012 150.305712 
L 730.307846 150.143084 
L 730.363233 150.276146 
L 730.390895 150.394409 
L 730.418536 150.083952 
L 730.446156 150.172649 
L 730.501334 150.202215 
L 730.556428 150.069169 
L 730.611439 150.039587 
L 730.6938 150.335278 
L 730.721213 149.980456 
L 730.803327 150.231781 
L 730.830657 150.305712 
L 730.885256 150.231781 
L 730.939773 150.128301 
L 730.967002 150.379626 
L 731.048564 150.128301 
L 731.129945 150.231781 
L 731.157031 150.069169 
L 731.211144 150.290929 
L 731.23817 150.113518 
L 731.265176 150.187432 
L 731.346075 150.113518 
L 731.453661 150.364843 
L 731.480508 150.246564 
L 731.507336 150.083952 
L 731.560931 150.305712 
L 731.587699 150.231781 
L 731.880859 150.187432 
L 731.933909 150.320495 
L 731.960404 149.995238 
L 732.039776 150.172649 
L 732.198004 150.394409 
L 732.250594 150.187432 
L 732.303108 150.231781 
L 732.329337 150.335278 
L 732.381738 150.113518 
L 732.40791 150.157867 
L 732.434064 150.438758 
L 732.460199 150.054386 
L 732.512412 150.246564 
L 732.590592 150.320495 
L 732.616615 150.364843 
L 732.668605 150.261347 
L 732.694572 150.290929 
L 732.849988 150.039587 
L 732.875827 150.113518 
L 732.953232 150.054386 
L 732.978997 150.35006 
L 733.004744 150.069169 
L 733.081877 150.143084 
L 733.133208 150.379626 
L 733.158846 150.024804 
L 733.210069 150.35006 
L 733.363307 150.113518 
L 733.388784 150.128301 
L 733.414243 150.335278 
L 733.490515 150.098735 
L 733.61728 150.438758 
L 733.693128 150.231781 
L 733.718376 150.261347 
L 733.743606 150.216998 
L 733.768819 150.083952 
L 733.794014 150.261347 
L 733.819192 150.202215 
L 733.894622 150.113518 
L 733.91973 150.305712 
L 734.045014 150.098735 
L 734.095008 150.261347 
L 734.144932 150.216998 
L 734.244577 150.069169 
L 734.294298 150.379626 
L 734.368752 150.290929 
L 734.517204 150.024804 
L 734.689638 150.246564 
L 734.714205 150.098735 
L 734.812308 150.172649 
L 734.836793 150.305712 
L 734.861261 150.128301 
L 734.885712 150.202215 
L 734.910147 150.024804 
L 734.934566 150.216998 
L 734.983355 150.202215 
L 735.12933 150.261347 
L 735.153603 150.069169 
L 735.202099 150.305712 
L 735.250531 150.157867 
L 735.274723 150.320495 
L 735.347203 150.157867 
L 735.395443 150.305712 
L 735.443619 150.157867 
L 735.53978 150.010021 
L 735.491731 150.231781 
L 735.563781 150.113518 
L 735.587766 150.468324 
L 735.635689 150.024804 
L 735.659627 150.290929 
L 735.75522 150.098735 
L 735.77908 150.113518 
L 735.802924 150.35006 
L 735.874361 150.335278 
L 735.898143 150.113518 
L 735.993114 150.157867 
L 736.016818 150.409192 
L 736.040507 150.143084 
L 736.111481 150.305712 
L 736.158721 150.039587 
L 736.229465 150.231781 
L 736.347069 150.054386 
L 736.417449 150.290929 
L 736.464294 150.246564 
L 736.604468 150.113518 
L 736.627778 150.335278 
L 736.720869 150.246564 
L 736.860062 150.054386 
L 736.92946 150.320495 
L 736.975651 150.290929 
L 737.044829 150.069169 
L 737.113876 150.083952 
L 737.182793 150.35006 
L 737.228665 150.261347 
L 737.251579 150.010021 
L 737.320236 150.098735 
L 737.388763 150.290929 
L 737.411577 150.054386 
L 737.434377 150.231781 
L 737.457163 150.083952 
L 737.525433 150.276146 
L 737.661593 150.113518 
L 737.684237 150.157867 
L 737.797246 150.35006 
L 737.752084 150.143084 
L 737.819805 150.320495 
L 737.909905 150.157867 
L 737.954872 150.187432 
L 737.999783 150.261347 
L 738.022218 150.172649 
L 738.067046 150.069169 
L 738.111819 150.246564 
L 738.134185 150.157867 
L 738.245809 150.187432 
L 738.290363 150.098735 
L 738.379309 150.379626 
L 738.445876 150.143084 
L 738.490186 150.305712 
L 738.512321 150.305712 
L 738.534443 150.069169 
L 738.622795 150.172649 
L 738.688919 150.246564 
L 738.666891 150.083952 
L 738.710934 150.157867 
L 738.732936 150.098735 
L 738.776899 150.202215 
L 738.79886 150.128301 
L 738.842744 150.320495 
L 738.864666 150.054386 
L 738.908471 150.216998 
L 738.974079 150.246564 
L 739.017752 150.157867 
L 739.039569 150.364843 
L 739.126707 150.157867 
L 739.148459 150.290929 
L 739.191924 150.098735 
L 739.235337 150.231781 
L 739.257025 150.083952 
L 739.30036 150.276146 
L 739.343645 150.246564 
L 739.365268 150.261347 
L 739.386878 150.172649 
L 739.408475 150.039587 
L 739.451631 150.364843 
L 739.47319 150.305712 
L 739.580794 150.098735 
L 739.623747 150.143084 
L 739.688081 150.202215 
L 739.709501 150.054386 
L 739.795054 150.202215 
L 739.880406 150.246564 
L 739.923007 149.995238 
L 740.050513 150.261347 
L 740.13527 150.187432 
L 740.177575 150.216998 
L 740.219831 150.246564 
L 740.283122 150.187432 
L 740.367341 150.305712 
L 740.346304 150.157867 
L 740.388365 150.290929 
L 740.472341 150.039587 
L 740.514256 150.187432 
L 740.681437 150.113518 
L 740.806322 150.305712 
L 740.910067 150.157867 
L 740.992851 150.069169 
L 741.034172 150.246564 
L 741.054815 150.128301 
L 741.116675 150.290929 
L 741.137271 150.246564 
L 741.178429 150.202215 
L 741.198991 150.113518 
L 741.281122 150.187432 
L 741.383526 150.290929 
L 741.363068 150.113518 
L 741.403972 150.246564 
L 741.506032 150.246564 
L 741.44483 150.172649 
L 741.52641 150.216998 
L 741.689022 150.069169 
L 741.729563 150.128301 
L 741.729563 150.128301 
" clip-path="url(#pf519781ca8)" style="fill: none; stroke: #1f77b4; stroke-width: 1.5; stroke-linecap: square"/>
   </g>
   <g id="patch_3">
    <path d="M 384.609563 311.6435 
L 384.609563 45.5315 
" style="fill: none; stroke: #000000; stroke-width: 0.8; stroke-linejoin: miter; stroke-linecap: square"/>
   </g>
   <g id="patch_4">
    <path d="M 741.729563 311.6435 
L 741.729563 45.5315 
" style="fill: none; stroke: #000000; stroke-width: 0.8; stroke-linejoin: miter; stroke-linecap: square"/>
   </g>
   <g id="patch_5">
    <path d="M 384.609563 311.6435 
L 741.729563 311.6435 
" style="fill: none; stroke: #000000; stroke-width: 0.8; stroke-linejoin: miter; stroke-linecap: square"/>
   </g>
   <g id="patch_6">
    <path d="M 384.609563 45.5315 
L 741.729563 45.5315 
" style="fill: none; stroke: #000000; stroke-width: 0.8; stroke-linejoin: miter; stroke-linecap: square"/>
   </g>
   <g id="text_17">
    <!-- Accuracy of the 09_07_25_CINIC10_torch_model_(1024+8192-8192.2+1)_cat-dog on the validation set -->
    <g transform="translate(7.2 25.5315) scale(0.264 -0.264)">
     <defs>
      <path id="TimesNewRomanPSMT-20" transform="scale(0.015625)"/>
      <path id="TimesNewRomanPSMT-6f" d="M 1600 2947 
Q 2250 2947 2644 2453 
Q 2978 2031 2978 1484 
Q 2978 1100 2793 706 
Q 2609 313 2286 112 
Q 1963 -88 1566 -88 
Q 919 -88 538 428 
Q 216 863 216 1403 
Q 216 1797 411 2186 
Q 606 2575 925 2761 
Q 1244 2947 1600 2947 
z
M 1503 2744 
Q 1338 2744 1170 2645 
Q 1003 2547 900 2300 
Q 797 2053 797 1666 
Q 797 1041 1045 587 
Q 1294 134 1700 134 
Q 2003 134 2200 384 
Q 2397 634 2397 1244 
Q 2397 2006 2069 2444 
Q 1847 2744 1503 2744 
z
" transform="scale(0.015625)"/>
      <path id="TimesNewRomanPSMT-66" d="M 1319 2638 
L 1319 756 
Q 1319 356 1406 250 
Q 1522 113 1716 113 
L 1975 113 
L 1975 0 
L 266 0 
L 266 113 
L 394 113 
Q 519 113 622 175 
Q 725 238 764 344 
Q 803 450 803 756 
L 803 2638 
L 247 2638 
L 247 2863 
L 803 2863 
L 803 3050 
Q 803 3478 940 3775 
Q 1078 4072 1361 4255 
Q 1644 4438 1997 4438 
Q 2325 4438 2600 4225 
Q 2781 4084 2781 3909 
Q 2781 3816 2700 3733 
Q 2619 3650 2525 3650 
Q 2453 3650 2373 3701 
Q 2294 3753 2178 3923 
Q 2063 4094 1966 4153 
Q 1869 4213 1750 4213 
Q 1606 4213 1506 4136 
Q 1406 4059 1362 3898 
Q 1319 3738 1319 3069 
L 1319 2863 
L 2056 2863 
L 2056 2638 
L 1319 2638 
z
" transform="scale(0.015625)"/>
      <path id="TimesNewRomanPSMT-74" d="M 1031 3803 
L 1031 2863 
L 1700 2863 
L 1700 2644 
L 1031 2644 
L 1031 788 
Q 1031 509 1111 412 
Q 1191 316 1316 316 
Q 1419 316 1516 380 
Q 1613 444 1666 569 
L 1788 569 
Q 1678 263 1478 108 
Q 1278 -47 1066 -47 
Q 922 -47 784 33 
Q 647 113 581 261 
Q 516 409 516 719 
L 516 2644 
L 63 2644 
L 63 2747 
Q 234 2816 414 2980 
Q 594 3144 734 3369 
Q 806 3488 934 3803 
L 1031 3803 
z
" transform="scale(0.015625)"/>
      <path id="TimesNewRomanPSMT-68" d="M 1041 4444 
L 1041 2350 
Q 1388 2731 1591 2839 
Q 1794 2947 1997 2947 
Q 2241 2947 2416 2812 
Q 2591 2678 2675 2391 
Q 2734 2191 2734 1659 
L 2734 647 
Q 2734 375 2778 275 
Q 2809 200 2884 156 
Q 2959 113 3159 113 
L 3159 0 
L 1753 0 
L 1753 113 
L 1819 113 
Q 2019 113 2097 173 
Q 2175 234 2206 353 
Q 2216 403 2216 647 
L 2216 1659 
Q 2216 2128 2167 2275 
Q 2119 2422 2012 2495 
Q 1906 2569 1756 2569 
Q 1603 2569 1437 2487 
Q 1272 2406 1041 2159 
L 1041 647 
Q 1041 353 1073 281 
Q 1106 209 1195 161 
Q 1284 113 1503 113 
L 1503 0 
L 84 0 
L 84 113 
Q 275 113 384 172 
Q 447 203 484 290 
Q 522 378 522 647 
L 522 3238 
Q 522 3728 498 3840 
Q 475 3953 426 3993 
Q 378 4034 297 4034 
Q 231 4034 84 3984 
L 41 4094 
L 897 4444 
L 1041 4444 
z
" transform="scale(0.015625)"/>
      <path id="TimesNewRomanPSMT-65" d="M 681 1784 
Q 678 1147 991 784 
Q 1303 422 1725 422 
Q 2006 422 2214 576 
Q 2422 731 2563 1106 
L 2659 1044 
Q 2594 616 2278 264 
Q 1963 -88 1488 -88 
Q 972 -88 605 314 
Q 238 716 238 1394 
Q 238 2128 614 2539 
Q 991 2950 1559 2950 
Q 2041 2950 2350 2633 
Q 2659 2316 2659 1784 
L 681 1784 
z
M 681 1966 
L 2006 1966 
Q 1991 2241 1941 2353 
Q 1863 2528 1708 2628 
Q 1553 2728 1384 2728 
Q 1125 2728 920 2526 
Q 716 2325 681 1966 
z
" transform="scale(0.015625)"/>
      <path id="TimesNewRomanPSMT-5f" d="M 3256 -1381 
L -53 -1381 
L -53 -1119 
L 3256 -1119 
L 3256 -1381 
z
" transform="scale(0.015625)"/>
      <path id="TimesNewRomanPSMT-43" d="M 3853 4334 
L 3950 2894 
L 3853 2894 
Q 3659 3541 3300 3825 
Q 2941 4109 2438 4109 
Q 2016 4109 1675 3895 
Q 1334 3681 1139 3212 
Q 944 2744 944 2047 
Q 944 1472 1128 1050 
Q 1313 628 1683 403 
Q 2053 178 2528 178 
Q 2941 178 3256 354 
Q 3572 531 3950 1056 
L 4047 994 
Q 3728 428 3303 165 
Q 2878 -97 2294 -97 
Q 1241 -97 663 684 
Q 231 1266 231 2053 
Q 231 2688 515 3219 
Q 800 3750 1298 4042 
Q 1797 4334 2388 4334 
Q 2847 4334 3294 4109 
Q 3425 4041 3481 4041 
Q 3566 4041 3628 4100 
Q 3709 4184 3744 4334 
L 3853 4334 
z
" transform="scale(0.015625)"/>
      <path id="TimesNewRomanPSMT-49" d="M 1975 116 
L 1975 0 
L 159 0 
L 159 116 
L 309 116 
Q 572 116 691 269 
Q 766 369 766 750 
L 766 3488 
Q 766 3809 725 3913 
Q 694 3991 597 4047 
Q 459 4122 309 4122 
L 159 4122 
L 159 4238 
L 1975 4238 
L 1975 4122 
L 1822 4122 
Q 1563 4122 1444 3969 
Q 1366 3869 1366 3488 
L 1366 750 
Q 1366 428 1406 325 
Q 1438 247 1538 191 
Q 1672 116 1822 116 
L 1975 116 
z
" transform="scale(0.015625)"/>
      <path id="TimesNewRomanPSMT-4e" d="M -84 4238 
L 1066 4238 
L 3656 1059 
L 3656 3503 
Q 3656 3894 3569 3991 
Q 3453 4122 3203 4122 
L 3056 4122 
L 3056 4238 
L 4531 4238 
L 4531 4122 
L 4381 4122 
Q 4113 4122 4000 3959 
Q 3931 3859 3931 3503 
L 3931 -69 
L 3819 -69 
L 1025 3344 
L 1025 734 
Q 1025 344 1109 247 
Q 1228 116 1475 116 
L 1625 116 
L 1625 0 
L 150 0 
L 150 116 
L 297 116 
Q 569 116 681 278 
Q 750 378 750 734 
L 750 3681 
Q 566 3897 470 3965 
Q 375 4034 191 4094 
Q 100 4122 -84 4122 
L -84 4238 
z
" transform="scale(0.015625)"/>
      <path id="TimesNewRomanPSMT-6d" d="M 1050 2338 
Q 1363 2650 1419 2697 
Q 1559 2816 1721 2881 
Q 1884 2947 2044 2947 
Q 2313 2947 2506 2790 
Q 2700 2634 2766 2338 
Q 3088 2713 3309 2830 
Q 3531 2947 3766 2947 
Q 3994 2947 4170 2830 
Q 4347 2713 4450 2447 
Q 4519 2266 4519 1878 
L 4519 647 
Q 4519 378 4559 278 
Q 4591 209 4675 161 
Q 4759 113 4950 113 
L 4950 0 
L 3538 0 
L 3538 113 
L 3597 113 
Q 3781 113 3884 184 
Q 3956 234 3988 344 
Q 4000 397 4000 647 
L 4000 1878 
Q 4000 2228 3916 2372 
Q 3794 2572 3525 2572 
Q 3359 2572 3192 2489 
Q 3025 2406 2788 2181 
L 2781 2147 
L 2788 2013 
L 2788 647 
Q 2788 353 2820 281 
Q 2853 209 2943 161 
Q 3034 113 3253 113 
L 3253 0 
L 1806 0 
L 1806 113 
Q 2044 113 2133 169 
Q 2222 225 2256 338 
Q 2272 391 2272 647 
L 2272 1878 
Q 2272 2228 2169 2381 
Q 2031 2581 1784 2581 
Q 1616 2581 1450 2491 
Q 1191 2353 1050 2181 
L 1050 647 
Q 1050 366 1089 281 
Q 1128 197 1204 155 
Q 1281 113 1516 113 
L 1516 0 
L 100 0 
L 100 113 
Q 297 113 375 155 
Q 453 197 493 289 
Q 534 381 534 647 
L 534 1741 
Q 534 2213 506 2350 
Q 484 2453 437 2492 
Q 391 2531 309 2531 
Q 222 2531 100 2484 
L 53 2597 
L 916 2947 
L 1050 2947 
L 1050 2338 
z
" transform="scale(0.015625)"/>
      <path id="TimesNewRomanPSMT-64" d="M 2222 322 
Q 2013 103 1813 7 
Q 1613 -88 1381 -88 
Q 913 -88 563 304 
Q 213 697 213 1313 
Q 213 1928 600 2439 
Q 988 2950 1597 2950 
Q 1975 2950 2222 2709 
L 2222 3238 
Q 2222 3728 2198 3840 
Q 2175 3953 2125 3993 
Q 2075 4034 2000 4034 
Q 1919 4034 1784 3984 
L 1744 4094 
L 2597 4444 
L 2738 4444 
L 2738 1134 
Q 2738 631 2761 520 
Q 2784 409 2836 365 
Q 2888 322 2956 322 
Q 3041 322 3181 375 
L 3216 266 
L 2366 -88 
L 2222 -88 
L 2222 322 
z
M 2222 541 
L 2222 2016 
Q 2203 2228 2109 2403 
Q 2016 2578 1861 2667 
Q 1706 2756 1559 2756 
Q 1284 2756 1069 2509 
Q 784 2184 784 1559 
Q 784 928 1059 592 
Q 1334 256 1672 256 
Q 1956 256 2222 541 
z
" transform="scale(0.015625)"/>
      <path id="TimesNewRomanPSMT-6c" d="M 1184 4444 
L 1184 647 
Q 1184 378 1223 290 
Q 1263 203 1344 158 
Q 1425 113 1647 113 
L 1647 0 
L 244 0 
L 244 113 
Q 441 113 512 153 
Q 584 194 625 287 
Q 666 381 666 647 
L 666 3247 
Q 666 3731 644 3842 
Q 622 3953 573 3993 
Q 525 4034 450 4034 
Q 369 4034 244 3984 
L 191 4094 
L 1044 4444 
L 1184 4444 
z
" transform="scale(0.015625)"/>
      <path id="TimesNewRomanPSMT-28" d="M 1988 -1253 
L 1988 -1369 
Q 1516 -1131 1200 -813 
Q 750 -359 506 256 
Q 263 872 263 1534 
Q 263 2503 741 3301 
Q 1219 4100 1988 4444 
L 1988 4313 
Q 1603 4100 1356 3731 
Q 1109 3363 987 2797 
Q 866 2231 866 1616 
Q 866 947 969 400 
Q 1050 -31 1165 -292 
Q 1281 -553 1476 -793 
Q 1672 -1034 1988 -1253 
z
" transform="scale(0.015625)"/>
      <path id="TimesNewRomanPSMT-2b" d="M 1672 441 
L 1672 2000 
L 116 2000 
L 116 2256 
L 1672 2256 
L 1672 3809 
L 1922 3809 
L 1922 2256 
L 3484 2256 
L 3484 2000 
L 1922 2000 
L 1922 441 
L 1672 441 
z
" transform="scale(0.015625)"/>
      <path id="TimesNewRomanPSMT-2d" d="M 259 1672 
L 1875 1672 
L 1875 1200 
L 259 1200 
L 259 1672 
z
" transform="scale(0.015625)"/>
      <path id="TimesNewRomanPSMT-29" d="M 144 4313 
L 144 4444 
Q 619 4209 934 3891 
Q 1381 3434 1625 2820 
Q 1869 2206 1869 1541 
Q 1869 572 1392 -226 
Q 916 -1025 144 -1369 
L 144 -1253 
Q 528 -1038 776 -670 
Q 1025 -303 1145 264 
Q 1266 831 1266 1447 
Q 1266 2113 1163 2663 
Q 1084 3094 967 3353 
Q 850 3613 656 3853 
Q 463 4094 144 4313 
z
" transform="scale(0.015625)"/>
      <path id="TimesNewRomanPSMT-67" d="M 966 1044 
Q 703 1172 562 1401 
Q 422 1631 422 1909 
Q 422 2334 742 2640 
Q 1063 2947 1563 2947 
Q 1972 2947 2272 2747 
L 2878 2747 
Q 3013 2747 3034 2739 
Q 3056 2731 3066 2713 
Q 3084 2684 3084 2613 
Q 3084 2531 3069 2500 
Q 3059 2484 3036 2475 
Q 3013 2466 2878 2466 
L 2506 2466 
Q 2681 2241 2681 1891 
Q 2681 1491 2375 1206 
Q 2069 922 1553 922 
Q 1341 922 1119 984 
Q 981 866 932 777 
Q 884 688 884 625 
Q 884 572 936 522 
Q 988 472 1138 450 
Q 1225 438 1575 428 
Q 2219 413 2409 384 
Q 2700 344 2873 169 
Q 3047 -6 3047 -263 
Q 3047 -616 2716 -925 
Q 2228 -1381 1444 -1381 
Q 841 -1381 425 -1109 
Q 191 -953 191 -784 
Q 191 -709 225 -634 
Q 278 -519 444 -313 
Q 466 -284 763 25 
Q 600 122 533 198 
Q 466 275 466 372 
Q 466 481 555 628 
Q 644 775 966 1044 
z
M 1509 2797 
Q 1278 2797 1122 2612 
Q 966 2428 966 2047 
Q 966 1553 1178 1281 
Q 1341 1075 1591 1075 
Q 1828 1075 1981 1253 
Q 2134 1431 2134 1813 
Q 2134 2309 1919 2591 
Q 1759 2797 1509 2797 
z
M 934 0 
Q 788 -159 713 -296 
Q 638 -434 638 -550 
Q 638 -700 819 -813 
Q 1131 -1006 1722 -1006 
Q 2284 -1006 2551 -807 
Q 2819 -609 2819 -384 
Q 2819 -222 2659 -153 
Q 2497 -84 2016 -72 
Q 1313 -53 934 0 
z
" transform="scale(0.015625)"/>
      <path id="TimesNewRomanPSMT-6e" d="M 1034 2341 
Q 1538 2947 1994 2947 
Q 2228 2947 2397 2830 
Q 2566 2713 2666 2444 
Q 2734 2256 2734 1869 
L 2734 647 
Q 2734 375 2778 278 
Q 2813 200 2889 156 
Q 2966 113 3172 113 
L 3172 0 
L 1756 0 
L 1756 113 
L 1816 113 
Q 2016 113 2095 173 
Q 2175 234 2206 353 
Q 2219 400 2219 647 
L 2219 1819 
Q 2219 2209 2117 2386 
Q 2016 2563 1775 2563 
Q 1403 2563 1034 2156 
L 1034 647 
Q 1034 356 1069 288 
Q 1113 197 1189 155 
Q 1266 113 1500 113 
L 1500 0 
L 84 0 
L 84 113 
L 147 113 
Q 366 113 442 223 
Q 519 334 519 647 
L 519 1709 
Q 519 2225 495 2337 
Q 472 2450 423 2490 
Q 375 2531 294 2531 
Q 206 2531 84 2484 
L 38 2597 
L 900 2947 
L 1034 2947 
L 1034 2341 
z
" transform="scale(0.015625)"/>
      <path id="TimesNewRomanPSMT-76" d="M 53 2863 
L 1400 2863 
L 1400 2747 
L 1313 2747 
Q 1191 2747 1127 2687 
Q 1063 2628 1063 2528 
Q 1063 2419 1128 2269 
L 1794 688 
L 2463 2328 
Q 2534 2503 2534 2594 
Q 2534 2638 2509 2666 
Q 2475 2713 2422 2730 
Q 2369 2747 2206 2747 
L 2206 2863 
L 3141 2863 
L 3141 2747 
Q 2978 2734 2916 2681 
Q 2806 2588 2719 2369 
L 1703 -88 
L 1575 -88 
L 553 2328 
Q 484 2497 421 2570 
Q 359 2644 263 2694 
Q 209 2722 53 2747 
L 53 2863 
z
" transform="scale(0.015625)"/>
      <path id="TimesNewRomanPSMT-69" d="M 928 4444 
Q 1059 4444 1151 4351 
Q 1244 4259 1244 4128 
Q 1244 3997 1151 3903 
Q 1059 3809 928 3809 
Q 797 3809 703 3903 
Q 609 3997 609 4128 
Q 609 4259 701 4351 
Q 794 4444 928 4444 
z
M 1188 2947 
L 1188 647 
Q 1188 378 1227 289 
Q 1266 200 1342 156 
Q 1419 113 1622 113 
L 1622 0 
L 231 0 
L 231 113 
Q 441 113 512 153 
Q 584 194 626 287 
Q 669 381 669 647 
L 669 1750 
Q 669 2216 641 2353 
Q 619 2453 572 2492 
Q 525 2531 444 2531 
Q 356 2531 231 2484 
L 188 2597 
L 1050 2947 
L 1188 2947 
z
" transform="scale(0.015625)"/>
      <path id="TimesNewRomanPSMT-73" d="M 2050 2947 
L 2050 1972 
L 1947 1972 
Q 1828 2431 1642 2597 
Q 1456 2763 1169 2763 
Q 950 2763 815 2647 
Q 681 2531 681 2391 
Q 681 2216 781 2091 
Q 878 1963 1175 1819 
L 1631 1597 
Q 2266 1288 2266 781 
Q 2266 391 1970 151 
Q 1675 -88 1309 -88 
Q 1047 -88 709 6 
Q 606 38 541 38 
Q 469 38 428 -44 
L 325 -44 
L 325 978 
L 428 978 
Q 516 541 762 319 
Q 1009 97 1316 97 
Q 1531 97 1667 223 
Q 1803 350 1803 528 
Q 1803 744 1651 891 
Q 1500 1038 1047 1263 
Q 594 1488 453 1669 
Q 313 1847 313 2119 
Q 313 2472 555 2709 
Q 797 2947 1181 2947 
Q 1350 2947 1591 2875 
Q 1750 2828 1803 2828 
Q 1853 2828 1881 2850 
Q 1909 2872 1947 2947 
L 2050 2947 
z
" transform="scale(0.015625)"/>
     </defs>
     <use xlink:href="#TimesNewRomanPSMT-41"/>
     <use xlink:href="#TimesNewRomanPSMT-63" transform="translate(72.216797 0)"/>
     <use xlink:href="#TimesNewRomanPSMT-63" transform="translate(116.601562 0)"/>
     <use xlink:href="#TimesNewRomanPSMT-75" transform="translate(160.986328 0)"/>
     <use xlink:href="#TimesNewRomanPSMT-72" transform="translate(210.986328 0)"/>
     <use xlink:href="#TimesNewRomanPSMT-61" transform="translate(244.287109 0)"/>
     <use xlink:href="#TimesNewRomanPSMT-63" transform="translate(288.671875 0)"/>
     <use xlink:href="#TimesNewRomanPSMT-79" transform="translate(333.056641 0)"/>
     <use xlink:href="#TimesNewRomanPSMT-20" transform="translate(383.056641 0)"/>
     <use xlink:href="#TimesNewRomanPSMT-6f" transform="translate(408.056641 0)"/>
     <use xlink:href="#TimesNewRomanPSMT-66" transform="translate(458.056641 0)"/>
     <use xlink:href="#TimesNewRomanPSMT-20" transform="translate(491.357422 0)"/>
     <use xlink:href="#TimesNewRomanPSMT-74" transform="translate(516.357422 0)"/>
     <use xlink:href="#TimesNewRomanPSMT-68" transform="translate(544.140625 0)"/>
     <use xlink:href="#TimesNewRomanPSMT-65" transform="translate(594.140625 0)"/>
     <use xlink:href="#TimesNewRomanPSMT-20" transform="translate(638.525391 0)"/>
     <use xlink:href="#TimesNewRomanPSMT-30" transform="translate(663.525391 0)"/>
     <use xlink:href="#TimesNewRomanPSMT-39" transform="translate(713.525391 0)"/>
     <use xlink:href="#TimesNewRomanPSMT-5f" transform="translate(763.525391 0)"/>
     <use xlink:href="#TimesNewRomanPSMT-30" transform="translate(813.525391 0)"/>
     <use xlink:href="#TimesNewRomanPSMT-37" transform="translate(863.525391 0)"/>
     <use xlink:href="#TimesNewRomanPSMT-5f" transform="translate(913.525391 0)"/>
     <use xlink:href="#TimesNewRomanPSMT-32" transform="translate(963.525391 0)"/>
     <use xlink:href="#TimesNewRomanPSMT-35" transform="translate(1013.525391 0)"/>
     <use xlink:href="#TimesNewRomanPSMT-5f" transform="translate(1063.525391 0)"/>
     <use xlink:href="#TimesNewRomanPSMT-43" transform="translate(1113.525391 0)"/>
     <use xlink:href="#TimesNewRomanPSMT-49" transform="translate(1180.224609 0)"/>
     <use xlink:href="#TimesNewRomanPSMT-4e" transform="translate(1213.525391 0)"/>
     <use xlink:href="#TimesNewRomanPSMT-49" transform="translate(1285.742188 0)"/>
     <use xlink:href="#TimesNewRomanPSMT-43" transform="translate(1319.042969 0)"/>
     <use xlink:href="#TimesNewRomanPSMT-31" transform="translate(1385.742188 0)"/>
     <use xlink:href="#TimesNewRomanPSMT-30" transform="translate(1435.742188 0)"/>
     <use xlink:href="#TimesNewRomanPSMT-5f" transform="translate(1485.742188 0)"/>
     <use xlink:href="#TimesNewRomanPSMT-74" transform="translate(1535.742188 0)"/>
     <use xlink:href="#TimesNewRomanPSMT-6f" transform="translate(1563.525391 0)"/>
     <use xlink:href="#TimesNewRomanPSMT-72" transform="translate(1613.525391 0)"/>
     <use xlink:href="#TimesNewRomanPSMT-63" transform="translate(1646.826172 0)"/>
     <use xlink:href="#TimesNewRomanPSMT-68" transform="translate(1691.210938 0)"/>
     <use xlink:href="#TimesNewRomanPSMT-5f" transform="translate(1741.210938 0)"/>
     <use xlink:href="#TimesNewRomanPSMT-6d" transform="translate(1791.210938 0)"/>
     <use xlink:href="#TimesNewRomanPSMT-6f" transform="translate(1868.994141 0)"/>
     <use xlink:href="#TimesNewRomanPSMT-64" transform="translate(1918.994141 0)"/>
     <use xlink:href="#TimesNewRomanPSMT-65" transform="translate(1968.994141 0)"/>
     <use xlink:href="#TimesNewRomanPSMT-6c" transform="translate(2013.378906 0)"/>
     <use xlink:href="#TimesNewRomanPSMT-5f" transform="translate(2041.162109 0)"/>
     <use xlink:href="#TimesNewRomanPSMT-28" transform="translate(2091.162109 0)"/>
     <use xlink:href="#TimesNewRomanPSMT-31" transform="translate(2124.462891 0)"/>
     <use xlink:href="#TimesNewRomanPSMT-30" transform="translate(2174.462891 0)"/>
     <use xlink:href="#TimesNewRomanPSMT-32" transform="translate(2224.462891 0)"/>
     <use xlink:href="#TimesNewRomanPSMT-34" transform="translate(2274.462891 0)"/>
     <use xlink:href="#TimesNewRomanPSMT-2b" transform="translate(2324.462891 0)"/>
     <use xlink:href="#TimesNewRomanPSMT-38" transform="translate(2380.859375 0)"/>
     <use xlink:href="#TimesNewRomanPSMT-31" transform="translate(2430.859375 0)"/>
     <use xlink:href="#TimesNewRomanPSMT-39" transform="translate(2480.859375 0)"/>
     <use xlink:href="#TimesNewRomanPSMT-32" transform="translate(2530.859375 0)"/>
     <use xlink:href="#TimesNewRomanPSMT-2d" transform="translate(2580.859375 0)"/>
     <use xlink:href="#TimesNewRomanPSMT-38" transform="translate(2614.160156 0)"/>
     <use xlink:href="#TimesNewRomanPSMT-31" transform="translate(2664.160156 0)"/>
     <use xlink:href="#TimesNewRomanPSMT-39" transform="translate(2714.160156 0)"/>
     <use xlink:href="#TimesNewRomanPSMT-32" transform="translate(2764.160156 0)"/>
     <use xlink:href="#TimesNewRomanPSMT-2e" transform="translate(2814.160156 0)"/>
     <use xlink:href="#TimesNewRomanPSMT-32" transform="translate(2839.160156 0)"/>
     <use xlink:href="#TimesNewRomanPSMT-2b" transform="translate(2889.160156 0)"/>
     <use xlink:href="#TimesNewRomanPSMT-31" transform="translate(2945.556641 0)"/>
     <use xlink:href="#TimesNewRomanPSMT-29" transform="translate(2995.556641 0)"/>
     <use xlink:href="#TimesNewRomanPSMT-5f" transform="translate(3028.857422 0)"/>
     <use xlink:href="#TimesNewRomanPSMT-63" transform="translate(3078.857422 0)"/>
     <use xlink:href="#TimesNewRomanPSMT-61" transform="translate(3123.242188 0)"/>
     <use xlink:href="#TimesNewRomanPSMT-74" transform="translate(3167.626953 0)"/>
     <use xlink:href="#TimesNewRomanPSMT-2d" transform="translate(3195.410156 0)"/>
     <use xlink:href="#TimesNewRomanPSMT-64" transform="translate(3228.710938 0)"/>
     <use xlink:href="#TimesNewRomanPSMT-6f" transform="translate(3278.710938 0)"/>
     <use xlink:href="#TimesNewRomanPSMT-67" transform="translate(3328.710938 0)"/>
     <use xlink:href="#TimesNewRomanPSMT-20" transform="translate(3378.710938 0)"/>
     <use xlink:href="#TimesNewRomanPSMT-6f" transform="translate(3403.710938 0)"/>
     <use xlink:href="#TimesNewRomanPSMT-6e" transform="translate(3453.710938 0)"/>
     <use xlink:href="#TimesNewRomanPSMT-20" transform="translate(3503.710938 0)"/>
     <use xlink:href="#TimesNewRomanPSMT-74" transform="translate(3528.710938 0)"/>
     <use xlink:href="#TimesNewRomanPSMT-68" transform="translate(3556.494141 0)"/>
     <use xlink:href="#TimesNewRomanPSMT-65" transform="translate(3606.494141 0)"/>
     <use xlink:href="#TimesNewRomanPSMT-20" transform="translate(3650.878906 0)"/>
     <use xlink:href="#TimesNewRomanPSMT-76" transform="translate(3675.878906 0)"/>
     <use xlink:href="#TimesNewRomanPSMT-61" transform="translate(3725.878906 0)"/>
     <use xlink:href="#TimesNewRomanPSMT-6c" transform="translate(3770.263672 0)"/>
     <use xlink:href="#TimesNewRomanPSMT-69" transform="translate(3798.046875 0)"/>
     <use xlink:href="#TimesNewRomanPSMT-64" transform="translate(3825.830078 0)"/>
     <use xlink:href="#TimesNewRomanPSMT-61" transform="translate(3875.830078 0)"/>
     <use xlink:href="#TimesNewRomanPSMT-74" transform="translate(3920.214844 0)"/>
     <use xlink:href="#TimesNewRomanPSMT-69" transform="translate(3947.998047 0)"/>
     <use xlink:href="#TimesNewRomanPSMT-6f" transform="translate(3975.78125 0)"/>
     <use xlink:href="#TimesNewRomanPSMT-6e" transform="translate(4025.78125 0)"/>
     <use xlink:href="#TimesNewRomanPSMT-20" transform="translate(4075.78125 0)"/>
     <use xlink:href="#TimesNewRomanPSMT-73" transform="translate(4100.78125 0)"/>
     <use xlink:href="#TimesNewRomanPSMT-65" transform="translate(4139.697266 0)"/>
     <use xlink:href="#TimesNewRomanPSMT-74" transform="translate(4184.082031 0)"/>
    </g>
   </g>
   <g id="legend_1">
    <g id="patch_7">
     <path d="M 489.15925 94.278687 
L 726.329563 94.278687 
Q 730.729563 94.278687 730.729563 89.878687 
L 730.729563 60.9315 
Q 730.729563 56.5315 726.329563 56.5315 
L 489.15925 56.5315 
Q 484.75925 56.5315 484.75925 60.9315 
L 484.75925 89.878687 
Q 484.75925 94.278687 489.15925 94.278687 
z
" style="fill: #ffffff; opacity: 0.8; stroke: #cccccc; stroke-linejoin: miter"/>
    </g>
    <g id="line2d_30">
     <path d="M 493.55925 73.0315 
L 515.55925 73.0315 
L 537.55925 73.0315 
" style="fill: none; stroke: #1f77b4; stroke-width: 1.5; stroke-linecap: square"/>
    </g>
    <g id="text_18">
     <!-- Best accuracy 0.61 -->
     <g transform="translate(555.15925 80.7315) scale(0.22 -0.22)">
      <defs>
       <path id="TimesNewRomanPSMT-42" d="M 2956 2163 
Q 3397 2069 3616 1863 
Q 3919 1575 3919 1159 
Q 3919 844 3719 555 
Q 3519 266 3170 133 
Q 2822 0 2106 0 
L 106 0 
L 106 116 
L 266 116 
Q 531 116 647 284 
Q 719 394 719 750 
L 719 3488 
Q 719 3881 628 3984 
Q 506 4122 266 4122 
L 106 4122 
L 106 4238 
L 1938 4238 
Q 2450 4238 2759 4163 
Q 3228 4050 3475 3764 
Q 3722 3478 3722 3106 
Q 3722 2788 3528 2536 
Q 3334 2284 2956 2163 
z
M 1319 2331 
Q 1434 2309 1582 2298 
Q 1731 2288 1909 2288 
Q 2366 2288 2595 2386 
Q 2825 2484 2947 2687 
Q 3069 2891 3069 3131 
Q 3069 3503 2766 3765 
Q 2463 4028 1881 4028 
Q 1569 4028 1319 3959 
L 1319 2331 
z
M 1319 306 
Q 1681 222 2034 222 
Q 2600 222 2897 476 
Q 3194 731 3194 1106 
Q 3194 1353 3059 1581 
Q 2925 1809 2622 1940 
Q 2319 2072 1872 2072 
Q 1678 2072 1540 2065 
Q 1403 2059 1319 2044 
L 1319 306 
z
" transform="scale(0.015625)"/>
      </defs>
      <use xlink:href="#TimesNewRomanPSMT-42"/>
      <use xlink:href="#TimesNewRomanPSMT-65" transform="translate(66.699219 0)"/>
      <use xlink:href="#TimesNewRomanPSMT-73" transform="translate(111.083984 0)"/>
      <use xlink:href="#TimesNewRomanPSMT-74" transform="translate(150 0)"/>
      <use xlink:href="#TimesNewRomanPSMT-20" transform="translate(177.783203 0)"/>
      <use xlink:href="#TimesNewRomanPSMT-61" transform="translate(202.783203 0)"/>
      <use xlink:href="#TimesNewRomanPSMT-63" transform="translate(247.167969 0)"/>
      <use xlink:href="#TimesNewRomanPSMT-63" transform="translate(291.552734 0)"/>
      <use xlink:href="#TimesNewRomanPSMT-75" transform="translate(335.9375 0)"/>
      <use xlink:href="#TimesNewRomanPSMT-72" transform="translate(385.9375 0)"/>
      <use xlink:href="#TimesNewRomanPSMT-61" transform="translate(419.238281 0)"/>
      <use xlink:href="#TimesNewRomanPSMT-63" transform="translate(463.623047 0)"/>
      <use xlink:href="#TimesNewRomanPSMT-79" transform="translate(508.007812 0)"/>
      <use xlink:href="#TimesNewRomanPSMT-20" transform="translate(558.007812 0)"/>
      <use xlink:href="#TimesNewRomanPSMT-30" transform="translate(583.007812 0)"/>
      <use xlink:href="#TimesNewRomanPSMT-2e" transform="translate(633.007812 0)"/>
      <use xlink:href="#TimesNewRomanPSMT-36" transform="translate(658.007812 0)"/>
      <use xlink:href="#TimesNewRomanPSMT-31" transform="translate(708.007812 0)"/>
     </g>
    </g>
   </g>
  </g>
 </g>
 <defs>
  <clipPath id="pf519781ca8">
   <rect x="384.609563" y="45.5315" width="357.12" height="266.112"/>
  </clipPath>
 </defs>
</svg>
