<?xml version="1.0" encoding="utf-8" standalone="no"?>
<!DOCTYPE svg PUBLIC "-//W3C//DTD SVG 1.1//EN"
  "http://www.w3.org/Graphics/SVG/1.1/DTD/svg11.dtd">
<svg xmlns:xlink="http://www.w3.org/1999/xlink" width="855.1245pt" height="369.807875pt" viewBox="0 0 855.1245 369.807875" xmlns="http://www.w3.org/2000/svg" version="1.1">
 <metadata>
  <rdf:RDF xmlns:dc="http://purl.org/dc/elements/1.1/" xmlns:cc="http://creativecommons.org/ns#" xmlns:rdf="http://www.w3.org/1999/02/22-rdf-syntax-ns#">
   <cc:Work>
    <dc:type rdf:resource="http://purl.org/dc/dcmitype/StillImage"/>
    <dc:date>2025-06-02T13:56:04.878106</dc:date>
    <dc:format>image/svg+xml</dc:format>
    <dc:creator>
     <cc:Agent>
      <dc:title>Matplotlib v3.10.1, https://matplotlib.org/</dc:title>
     </cc:Agent>
    </dc:creator>
   </cc:Work>
  </rdf:RDF>
 </metadata>
 <defs>
  <style type="text/css">*{stroke-linejoin: round; stroke-linecap: butt}</style>
 </defs>
 <g id="figure_1">
  <g id="patch_1">
   <path d="M -0 369.807875 
L 855.1245 369.807875 
L 855.1245 0 
L -0 0 
z
" style="fill: #ffffff"/>
  </g>
  <g id="axes_1">
   <g id="patch_2">
    <path d="M 249.00225 311.6435 
L 606.12225 311.6435 
L 606.12225 45.5315 
L 249.00225 45.5315 
z
" style="fill: #ffffff"/>
   </g>
   <g id="matplotlib.axis_1">
    <g id="xtick_1">
     <g id="line2d_1">
      <path d="M 249.00225 311.6435 
L 249.00225 45.5315 
" clip-path="url(#p82e386c5d1)" style="fill: none; stroke: #b0b0b0; stroke-opacity: 0.3; stroke-width: 0.8; stroke-linecap: square"/>
     </g>
     <g id="line2d_2">
      <defs>
       <path id="m057253c2ea" d="M 0 0 
L 0 3.5 
" style="stroke: #000000; stroke-width: 0.8"/>
      </defs>
      <g>
       <use xlink:href="#m057253c2ea" x="249.00225" y="311.6435" style="stroke: #000000; stroke-width: 0.8"/>
      </g>
     </g>
     <g id="text_1">
      <!-- 0 -->
      <g transform="translate(243.50225 333.91975) scale(0.22 -0.22)">
       <defs>
        <path id="TimesNewRomanPSMT-30" d="M 231 2094 
Q 231 2819 450 3342 
Q 669 3866 1031 4122 
Q 1313 4325 1613 4325 
Q 2100 4325 2488 3828 
Q 2972 3213 2972 2159 
Q 2972 1422 2759 906 
Q 2547 391 2217 158 
Q 1888 -75 1581 -75 
Q 975 -75 572 641 
Q 231 1244 231 2094 
z
M 844 2016 
Q 844 1141 1059 588 
Q 1238 122 1591 122 
Q 1759 122 1940 273 
Q 2122 425 2216 781 
Q 2359 1319 2359 2297 
Q 2359 3022 2209 3506 
Q 2097 3866 1919 4016 
Q 1791 4119 1609 4119 
Q 1397 4119 1231 3928 
Q 1006 3669 925 3112 
Q 844 2556 844 2016 
z
" transform="scale(0.015625)"/>
       </defs>
       <use xlink:href="#TimesNewRomanPSMT-30"/>
      </g>
     </g>
    </g>
    <g id="xtick_2">
     <g id="line2d_3">
      <path d="M 366.475934 311.6435 
L 366.475934 45.5315 
" clip-path="url(#p82e386c5d1)" style="fill: none; stroke: #b0b0b0; stroke-opacity: 0.3; stroke-width: 0.8; stroke-linecap: square"/>
     </g>
     <g id="line2d_4">
      <g>
       <use xlink:href="#m057253c2ea" x="366.475934" y="311.6435" style="stroke: #000000; stroke-width: 0.8"/>
      </g>
     </g>
     <g id="text_2">
      <!-- 1000 -->
      <g transform="translate(344.475934 333.91975) scale(0.22 -0.22)">
       <defs>
        <path id="TimesNewRomanPSMT-31" d="M 750 3822 
L 1781 4325 
L 1884 4325 
L 1884 747 
Q 1884 391 1914 303 
Q 1944 216 2037 169 
Q 2131 122 2419 116 
L 2419 0 
L 825 0 
L 825 116 
Q 1125 122 1212 167 
Q 1300 213 1334 289 
Q 1369 366 1369 747 
L 1369 3034 
Q 1369 3497 1338 3628 
Q 1316 3728 1258 3775 
Q 1200 3822 1119 3822 
Q 1003 3822 797 3725 
L 750 3822 
z
" transform="scale(0.015625)"/>
       </defs>
       <use xlink:href="#TimesNewRomanPSMT-31"/>
       <use xlink:href="#TimesNewRomanPSMT-30" transform="translate(50 0)"/>
       <use xlink:href="#TimesNewRomanPSMT-30" transform="translate(100 0)"/>
       <use xlink:href="#TimesNewRomanPSMT-30" transform="translate(150 0)"/>
      </g>
     </g>
    </g>
    <g id="xtick_3">
     <g id="line2d_5">
      <path d="M 483.949618 311.6435 
L 483.949618 45.5315 
" clip-path="url(#p82e386c5d1)" style="fill: none; stroke: #b0b0b0; stroke-opacity: 0.3; stroke-width: 0.8; stroke-linecap: square"/>
     </g>
     <g id="line2d_6">
      <g>
       <use xlink:href="#m057253c2ea" x="483.949618" y="311.6435" style="stroke: #000000; stroke-width: 0.8"/>
      </g>
     </g>
     <g id="text_3">
      <!-- 2000 -->
      <g transform="translate(461.949618 333.91975) scale(0.22 -0.22)">
       <defs>
        <path id="TimesNewRomanPSMT-32" d="M 2934 816 
L 2638 0 
L 138 0 
L 138 116 
Q 1241 1122 1691 1759 
Q 2141 2397 2141 2925 
Q 2141 3328 1894 3587 
Q 1647 3847 1303 3847 
Q 991 3847 742 3664 
Q 494 3481 375 3128 
L 259 3128 
Q 338 3706 661 4015 
Q 984 4325 1469 4325 
Q 1984 4325 2329 3994 
Q 2675 3663 2675 3213 
Q 2675 2891 2525 2569 
Q 2294 2063 1775 1497 
Q 997 647 803 472 
L 1909 472 
Q 2247 472 2383 497 
Q 2519 522 2628 598 
Q 2738 675 2819 816 
L 2934 816 
z
" transform="scale(0.015625)"/>
       </defs>
       <use xlink:href="#TimesNewRomanPSMT-32"/>
       <use xlink:href="#TimesNewRomanPSMT-30" transform="translate(50 0)"/>
       <use xlink:href="#TimesNewRomanPSMT-30" transform="translate(100 0)"/>
       <use xlink:href="#TimesNewRomanPSMT-30" transform="translate(150 0)"/>
      </g>
     </g>
    </g>
    <g id="xtick_4">
     <g id="line2d_7">
      <path d="M 601.423303 311.6435 
L 601.423303 45.5315 
" clip-path="url(#p82e386c5d1)" style="fill: none; stroke: #b0b0b0; stroke-opacity: 0.3; stroke-width: 0.8; stroke-linecap: square"/>
     </g>
     <g id="line2d_8">
      <g>
       <use xlink:href="#m057253c2ea" x="601.423303" y="311.6435" style="stroke: #000000; stroke-width: 0.8"/>
      </g>
     </g>
     <g id="text_4">
      <!-- 3000 -->
      <g transform="translate(579.423303 333.91975) scale(0.22 -0.22)">
       <defs>
        <path id="TimesNewRomanPSMT-33" d="M 325 3431 
Q 506 3859 782 4092 
Q 1059 4325 1472 4325 
Q 1981 4325 2253 3994 
Q 2459 3747 2459 3466 
Q 2459 3003 1878 2509 
Q 2269 2356 2469 2072 
Q 2669 1788 2669 1403 
Q 2669 853 2319 450 
Q 1863 -75 997 -75 
Q 569 -75 414 31 
Q 259 138 259 259 
Q 259 350 332 419 
Q 406 488 509 488 
Q 588 488 669 463 
Q 722 447 909 348 
Q 1097 250 1169 231 
Q 1284 197 1416 197 
Q 1734 197 1970 444 
Q 2206 691 2206 1028 
Q 2206 1275 2097 1509 
Q 2016 1684 1919 1775 
Q 1784 1900 1550 2001 
Q 1316 2103 1072 2103 
L 972 2103 
L 972 2197 
Q 1219 2228 1467 2375 
Q 1716 2522 1828 2728 
Q 1941 2934 1941 3181 
Q 1941 3503 1739 3701 
Q 1538 3900 1238 3900 
Q 753 3900 428 3381 
L 325 3431 
z
" transform="scale(0.015625)"/>
       </defs>
       <use xlink:href="#TimesNewRomanPSMT-33"/>
       <use xlink:href="#TimesNewRomanPSMT-30" transform="translate(50 0)"/>
       <use xlink:href="#TimesNewRomanPSMT-30" transform="translate(100 0)"/>
       <use xlink:href="#TimesNewRomanPSMT-30" transform="translate(150 0)"/>
      </g>
     </g>
    </g>
    <g id="text_5">
     <!-- Number of iterations -->
     <g transform="translate(335.920219 357.901937) scale(0.22 -0.22)">
      <defs>
       <path id="TimesNewRomanPSMT-4e" d="M -84 4238 
L 1066 4238 
L 3656 1059 
L 3656 3503 
Q 3656 3894 3569 3991 
Q 3453 4122 3203 4122 
L 3056 4122 
L 3056 4238 
L 4531 4238 
L 4531 4122 
L 4381 4122 
Q 4113 4122 4000 3959 
Q 3931 3859 3931 3503 
L 3931 -69 
L 3819 -69 
L 1025 3344 
L 1025 734 
Q 1025 344 1109 247 
Q 1228 116 1475 116 
L 1625 116 
L 1625 0 
L 150 0 
L 150 116 
L 297 116 
Q 569 116 681 278 
Q 750 378 750 734 
L 750 3681 
Q 566 3897 470 3965 
Q 375 4034 191 4094 
Q 100 4122 -84 4122 
L -84 4238 
z
" transform="scale(0.015625)"/>
       <path id="TimesNewRomanPSMT-75" d="M 2709 2863 
L 2709 1128 
Q 2709 631 2732 520 
Q 2756 409 2807 365 
Q 2859 322 2928 322 
Q 3025 322 3147 375 
L 3191 266 
L 2334 -88 
L 2194 -88 
L 2194 519 
Q 1825 119 1631 15 
Q 1438 -88 1222 -88 
Q 981 -88 804 51 
Q 628 191 559 409 
Q 491 628 491 1028 
L 491 2306 
Q 491 2509 447 2587 
Q 403 2666 317 2708 
Q 231 2750 6 2747 
L 6 2863 
L 1009 2863 
L 1009 947 
Q 1009 547 1148 422 
Q 1288 297 1484 297 
Q 1619 297 1789 381 
Q 1959 466 2194 703 
L 2194 2325 
Q 2194 2569 2105 2655 
Q 2016 2741 1734 2747 
L 1734 2863 
L 2709 2863 
z
" transform="scale(0.015625)"/>
       <path id="TimesNewRomanPSMT-6d" d="M 1050 2338 
Q 1363 2650 1419 2697 
Q 1559 2816 1721 2881 
Q 1884 2947 2044 2947 
Q 2313 2947 2506 2790 
Q 2700 2634 2766 2338 
Q 3088 2713 3309 2830 
Q 3531 2947 3766 2947 
Q 3994 2947 4170 2830 
Q 4347 2713 4450 2447 
Q 4519 2266 4519 1878 
L 4519 647 
Q 4519 378 4559 278 
Q 4591 209 4675 161 
Q 4759 113 4950 113 
L 4950 0 
L 3538 0 
L 3538 113 
L 3597 113 
Q 3781 113 3884 184 
Q 3956 234 3988 344 
Q 4000 397 4000 647 
L 4000 1878 
Q 4000 2228 3916 2372 
Q 3794 2572 3525 2572 
Q 3359 2572 3192 2489 
Q 3025 2406 2788 2181 
L 2781 2147 
L 2788 2013 
L 2788 647 
Q 2788 353 2820 281 
Q 2853 209 2943 161 
Q 3034 113 3253 113 
L 3253 0 
L 1806 0 
L 1806 113 
Q 2044 113 2133 169 
Q 2222 225 2256 338 
Q 2272 391 2272 647 
L 2272 1878 
Q 2272 2228 2169 2381 
Q 2031 2581 1784 2581 
Q 1616 2581 1450 2491 
Q 1191 2353 1050 2181 
L 1050 647 
Q 1050 366 1089 281 
Q 1128 197 1204 155 
Q 1281 113 1516 113 
L 1516 0 
L 100 0 
L 100 113 
Q 297 113 375 155 
Q 453 197 493 289 
Q 534 381 534 647 
L 534 1741 
Q 534 2213 506 2350 
Q 484 2453 437 2492 
Q 391 2531 309 2531 
Q 222 2531 100 2484 
L 53 2597 
L 916 2947 
L 1050 2947 
L 1050 2338 
z
" transform="scale(0.015625)"/>
       <path id="TimesNewRomanPSMT-62" d="M 984 2369 
Q 1400 2947 1881 2947 
Q 2322 2947 2650 2570 
Q 2978 2194 2978 1541 
Q 2978 778 2472 313 
Q 2038 -88 1503 -88 
Q 1253 -88 995 3 
Q 738 94 469 275 
L 469 3241 
Q 469 3728 445 3840 
Q 422 3953 372 3993 
Q 322 4034 247 4034 
Q 159 4034 28 3984 
L -16 4094 
L 844 4444 
L 984 4444 
L 984 2369 
z
M 984 2169 
L 984 456 
Q 1144 300 1314 220 
Q 1484 141 1663 141 
Q 1947 141 2192 453 
Q 2438 766 2438 1363 
Q 2438 1913 2192 2208 
Q 1947 2503 1634 2503 
Q 1469 2503 1303 2419 
Q 1178 2356 984 2169 
z
" transform="scale(0.015625)"/>
       <path id="TimesNewRomanPSMT-65" d="M 681 1784 
Q 678 1147 991 784 
Q 1303 422 1725 422 
Q 2006 422 2214 576 
Q 2422 731 2563 1106 
L 2659 1044 
Q 2594 616 2278 264 
Q 1963 -88 1488 -88 
Q 972 -88 605 314 
Q 238 716 238 1394 
Q 238 2128 614 2539 
Q 991 2950 1559 2950 
Q 2041 2950 2350 2633 
Q 2659 2316 2659 1784 
L 681 1784 
z
M 681 1966 
L 2006 1966 
Q 1991 2241 1941 2353 
Q 1863 2528 1708 2628 
Q 1553 2728 1384 2728 
Q 1125 2728 920 2526 
Q 716 2325 681 1966 
z
" transform="scale(0.015625)"/>
       <path id="TimesNewRomanPSMT-72" d="M 1038 2947 
L 1038 2303 
Q 1397 2947 1775 2947 
Q 1947 2947 2059 2842 
Q 2172 2738 2172 2600 
Q 2172 2478 2090 2393 
Q 2009 2309 1897 2309 
Q 1788 2309 1652 2417 
Q 1516 2525 1450 2525 
Q 1394 2525 1328 2463 
Q 1188 2334 1038 2041 
L 1038 669 
Q 1038 431 1097 309 
Q 1138 225 1241 169 
Q 1344 113 1538 113 
L 1538 0 
L 72 0 
L 72 113 
Q 291 113 397 181 
Q 475 231 506 341 
Q 522 394 522 644 
L 522 1753 
Q 522 2253 501 2348 
Q 481 2444 426 2487 
Q 372 2531 291 2531 
Q 194 2531 72 2484 
L 41 2597 
L 906 2947 
L 1038 2947 
z
" transform="scale(0.015625)"/>
       <path id="TimesNewRomanPSMT-20" transform="scale(0.015625)"/>
       <path id="TimesNewRomanPSMT-6f" d="M 1600 2947 
Q 2250 2947 2644 2453 
Q 2978 2031 2978 1484 
Q 2978 1100 2793 706 
Q 2609 313 2286 112 
Q 1963 -88 1566 -88 
Q 919 -88 538 428 
Q 216 863 216 1403 
Q 216 1797 411 2186 
Q 606 2575 925 2761 
Q 1244 2947 1600 2947 
z
M 1503 2744 
Q 1338 2744 1170 2645 
Q 1003 2547 900 2300 
Q 797 2053 797 1666 
Q 797 1041 1045 587 
Q 1294 134 1700 134 
Q 2003 134 2200 384 
Q 2397 634 2397 1244 
Q 2397 2006 2069 2444 
Q 1847 2744 1503 2744 
z
" transform="scale(0.015625)"/>
       <path id="TimesNewRomanPSMT-66" d="M 1319 2638 
L 1319 756 
Q 1319 356 1406 250 
Q 1522 113 1716 113 
L 1975 113 
L 1975 0 
L 266 0 
L 266 113 
L 394 113 
Q 519 113 622 175 
Q 725 238 764 344 
Q 803 450 803 756 
L 803 2638 
L 247 2638 
L 247 2863 
L 803 2863 
L 803 3050 
Q 803 3478 940 3775 
Q 1078 4072 1361 4255 
Q 1644 4438 1997 4438 
Q 2325 4438 2600 4225 
Q 2781 4084 2781 3909 
Q 2781 3816 2700 3733 
Q 2619 3650 2525 3650 
Q 2453 3650 2373 3701 
Q 2294 3753 2178 3923 
Q 2063 4094 1966 4153 
Q 1869 4213 1750 4213 
Q 1606 4213 1506 4136 
Q 1406 4059 1362 3898 
Q 1319 3738 1319 3069 
L 1319 2863 
L 2056 2863 
L 2056 2638 
L 1319 2638 
z
" transform="scale(0.015625)"/>
       <path id="TimesNewRomanPSMT-69" d="M 928 4444 
Q 1059 4444 1151 4351 
Q 1244 4259 1244 4128 
Q 1244 3997 1151 3903 
Q 1059 3809 928 3809 
Q 797 3809 703 3903 
Q 609 3997 609 4128 
Q 609 4259 701 4351 
Q 794 4444 928 4444 
z
M 1188 2947 
L 1188 647 
Q 1188 378 1227 289 
Q 1266 200 1342 156 
Q 1419 113 1622 113 
L 1622 0 
L 231 0 
L 231 113 
Q 441 113 512 153 
Q 584 194 626 287 
Q 669 381 669 647 
L 669 1750 
Q 669 2216 641 2353 
Q 619 2453 572 2492 
Q 525 2531 444 2531 
Q 356 2531 231 2484 
L 188 2597 
L 1050 2947 
L 1188 2947 
z
" transform="scale(0.015625)"/>
       <path id="TimesNewRomanPSMT-74" d="M 1031 3803 
L 1031 2863 
L 1700 2863 
L 1700 2644 
L 1031 2644 
L 1031 788 
Q 1031 509 1111 412 
Q 1191 316 1316 316 
Q 1419 316 1516 380 
Q 1613 444 1666 569 
L 1788 569 
Q 1678 263 1478 108 
Q 1278 -47 1066 -47 
Q 922 -47 784 33 
Q 647 113 581 261 
Q 516 409 516 719 
L 516 2644 
L 63 2644 
L 63 2747 
Q 234 2816 414 2980 
Q 594 3144 734 3369 
Q 806 3488 934 3803 
L 1031 3803 
z
" transform="scale(0.015625)"/>
       <path id="TimesNewRomanPSMT-61" d="M 1822 413 
Q 1381 72 1269 19 
Q 1100 -59 909 -59 
Q 613 -59 420 144 
Q 228 347 228 678 
Q 228 888 322 1041 
Q 450 1253 767 1440 
Q 1084 1628 1822 1897 
L 1822 2009 
Q 1822 2438 1686 2597 
Q 1550 2756 1291 2756 
Q 1094 2756 978 2650 
Q 859 2544 859 2406 
L 866 2225 
Q 866 2081 792 2003 
Q 719 1925 600 1925 
Q 484 1925 411 2006 
Q 338 2088 338 2228 
Q 338 2497 613 2722 
Q 888 2947 1384 2947 
Q 1766 2947 2009 2819 
Q 2194 2722 2281 2516 
Q 2338 2381 2338 1966 
L 2338 994 
Q 2338 584 2353 492 
Q 2369 400 2405 369 
Q 2441 338 2488 338 
Q 2538 338 2575 359 
Q 2641 400 2828 588 
L 2828 413 
Q 2478 -56 2159 -56 
Q 2006 -56 1915 50 
Q 1825 156 1822 413 
z
M 1822 616 
L 1822 1706 
Q 1350 1519 1213 1441 
Q 966 1303 859 1153 
Q 753 1003 753 825 
Q 753 600 887 451 
Q 1022 303 1197 303 
Q 1434 303 1822 616 
z
" transform="scale(0.015625)"/>
       <path id="TimesNewRomanPSMT-6e" d="M 1034 2341 
Q 1538 2947 1994 2947 
Q 2228 2947 2397 2830 
Q 2566 2713 2666 2444 
Q 2734 2256 2734 1869 
L 2734 647 
Q 2734 375 2778 278 
Q 2813 200 2889 156 
Q 2966 113 3172 113 
L 3172 0 
L 1756 0 
L 1756 113 
L 1816 113 
Q 2016 113 2095 173 
Q 2175 234 2206 353 
Q 2219 400 2219 647 
L 2219 1819 
Q 2219 2209 2117 2386 
Q 2016 2563 1775 2563 
Q 1403 2563 1034 2156 
L 1034 647 
Q 1034 356 1069 288 
Q 1113 197 1189 155 
Q 1266 113 1500 113 
L 1500 0 
L 84 0 
L 84 113 
L 147 113 
Q 366 113 442 223 
Q 519 334 519 647 
L 519 1709 
Q 519 2225 495 2337 
Q 472 2450 423 2490 
Q 375 2531 294 2531 
Q 206 2531 84 2484 
L 38 2597 
L 900 2947 
L 1034 2947 
L 1034 2341 
z
" transform="scale(0.015625)"/>
       <path id="TimesNewRomanPSMT-73" d="M 2050 2947 
L 2050 1972 
L 1947 1972 
Q 1828 2431 1642 2597 
Q 1456 2763 1169 2763 
Q 950 2763 815 2647 
Q 681 2531 681 2391 
Q 681 2216 781 2091 
Q 878 1963 1175 1819 
L 1631 1597 
Q 2266 1288 2266 781 
Q 2266 391 1970 151 
Q 1675 -88 1309 -88 
Q 1047 -88 709 6 
Q 606 38 541 38 
Q 469 38 428 -44 
L 325 -44 
L 325 978 
L 428 978 
Q 516 541 762 319 
Q 1009 97 1316 97 
Q 1531 97 1667 223 
Q 1803 350 1803 528 
Q 1803 744 1651 891 
Q 1500 1038 1047 1263 
Q 594 1488 453 1669 
Q 313 1847 313 2119 
Q 313 2472 555 2709 
Q 797 2947 1181 2947 
Q 1350 2947 1591 2875 
Q 1750 2828 1803 2828 
Q 1853 2828 1881 2850 
Q 1909 2872 1947 2947 
L 2050 2947 
z
" transform="scale(0.015625)"/>
      </defs>
      <use xlink:href="#TimesNewRomanPSMT-4e"/>
      <use xlink:href="#TimesNewRomanPSMT-75" transform="translate(72.216797 0)"/>
      <use xlink:href="#TimesNewRomanPSMT-6d" transform="translate(122.216797 0)"/>
      <use xlink:href="#TimesNewRomanPSMT-62" transform="translate(200 0)"/>
      <use xlink:href="#TimesNewRomanPSMT-65" transform="translate(250 0)"/>
      <use xlink:href="#TimesNewRomanPSMT-72" transform="translate(294.384766 0)"/>
      <use xlink:href="#TimesNewRomanPSMT-20" transform="translate(327.685547 0)"/>
      <use xlink:href="#TimesNewRomanPSMT-6f" transform="translate(352.685547 0)"/>
      <use xlink:href="#TimesNewRomanPSMT-66" transform="translate(402.685547 0)"/>
      <use xlink:href="#TimesNewRomanPSMT-20" transform="translate(435.986328 0)"/>
      <use xlink:href="#TimesNewRomanPSMT-69" transform="translate(460.986328 0)"/>
      <use xlink:href="#TimesNewRomanPSMT-74" transform="translate(488.769531 0)"/>
      <use xlink:href="#TimesNewRomanPSMT-65" transform="translate(516.552734 0)"/>
      <use xlink:href="#TimesNewRomanPSMT-72" transform="translate(560.9375 0)"/>
      <use xlink:href="#TimesNewRomanPSMT-61" transform="translate(594.238281 0)"/>
      <use xlink:href="#TimesNewRomanPSMT-74" transform="translate(638.623047 0)"/>
      <use xlink:href="#TimesNewRomanPSMT-69" transform="translate(666.40625 0)"/>
      <use xlink:href="#TimesNewRomanPSMT-6f" transform="translate(694.189453 0)"/>
      <use xlink:href="#TimesNewRomanPSMT-6e" transform="translate(744.189453 0)"/>
      <use xlink:href="#TimesNewRomanPSMT-73" transform="translate(794.189453 0)"/>
     </g>
    </g>
   </g>
   <g id="matplotlib.axis_2">
    <g id="ytick_1">
     <g id="line2d_9">
      <path d="M 249.00225 311.6435 
L 606.12225 311.6435 
" clip-path="url(#p82e386c5d1)" style="fill: none; stroke: #b0b0b0; stroke-opacity: 0.3; stroke-width: 0.8; stroke-linecap: square"/>
     </g>
     <g id="line2d_10">
      <defs>
       <path id="m1cedfa6333" d="M 0 0 
L -3.5 0 
" style="stroke: #000000; stroke-width: 0.8"/>
      </defs>
      <g>
       <use xlink:href="#m1cedfa6333" x="249.00225" y="311.6435" style="stroke: #000000; stroke-width: 0.8"/>
      </g>
     </g>
     <g id="text_6">
      <!-- 0.00 -->
      <g transform="translate(203.50225 319.281625) scale(0.22 -0.22)">
       <defs>
        <path id="TimesNewRomanPSMT-2e" d="M 800 606 
Q 947 606 1047 504 
Q 1147 403 1147 259 
Q 1147 116 1045 14 
Q 944 -88 800 -88 
Q 656 -88 554 14 
Q 453 116 453 259 
Q 453 406 554 506 
Q 656 606 800 606 
z
" transform="scale(0.015625)"/>
       </defs>
       <use xlink:href="#TimesNewRomanPSMT-30"/>
       <use xlink:href="#TimesNewRomanPSMT-2e" transform="translate(50 0)"/>
       <use xlink:href="#TimesNewRomanPSMT-30" transform="translate(75 0)"/>
       <use xlink:href="#TimesNewRomanPSMT-30" transform="translate(125 0)"/>
      </g>
     </g>
    </g>
    <g id="ytick_2">
     <g id="line2d_11">
      <path d="M 249.00225 263.039206 
L 606.12225 263.039206 
" clip-path="url(#p82e386c5d1)" style="fill: none; stroke: #b0b0b0; stroke-opacity: 0.3; stroke-width: 0.8; stroke-linecap: square"/>
     </g>
     <g id="line2d_12">
      <g>
       <use xlink:href="#m1cedfa6333" x="249.00225" y="263.039206" style="stroke: #000000; stroke-width: 0.8"/>
      </g>
     </g>
     <g id="text_7">
      <!-- 0.05 -->
      <g transform="translate(203.50225 270.677331) scale(0.22 -0.22)">
       <defs>
        <path id="TimesNewRomanPSMT-35" d="M 2778 4238 
L 2534 3706 
L 1259 3706 
L 981 3138 
Q 1809 3016 2294 2522 
Q 2709 2097 2709 1522 
Q 2709 1188 2573 903 
Q 2438 619 2231 419 
Q 2025 219 1772 97 
Q 1413 -75 1034 -75 
Q 653 -75 479 54 
Q 306 184 306 341 
Q 306 428 378 495 
Q 450 563 559 563 
Q 641 563 702 538 
Q 763 513 909 409 
Q 1144 247 1384 247 
Q 1750 247 2026 523 
Q 2303 800 2303 1197 
Q 2303 1581 2056 1914 
Q 1809 2247 1375 2428 
Q 1034 2569 447 2591 
L 1259 4238 
L 2778 4238 
z
" transform="scale(0.015625)"/>
       </defs>
       <use xlink:href="#TimesNewRomanPSMT-30"/>
       <use xlink:href="#TimesNewRomanPSMT-2e" transform="translate(50 0)"/>
       <use xlink:href="#TimesNewRomanPSMT-30" transform="translate(75 0)"/>
       <use xlink:href="#TimesNewRomanPSMT-35" transform="translate(125 0)"/>
      </g>
     </g>
    </g>
    <g id="ytick_3">
     <g id="line2d_13">
      <path d="M 249.00225 214.434913 
L 606.12225 214.434913 
" clip-path="url(#p82e386c5d1)" style="fill: none; stroke: #b0b0b0; stroke-opacity: 0.3; stroke-width: 0.8; stroke-linecap: square"/>
     </g>
     <g id="line2d_14">
      <g>
       <use xlink:href="#m1cedfa6333" x="249.00225" y="214.434913" style="stroke: #000000; stroke-width: 0.8"/>
      </g>
     </g>
     <g id="text_8">
      <!-- 0.10 -->
      <g transform="translate(203.50225 222.073038) scale(0.22 -0.22)">
       <use xlink:href="#TimesNewRomanPSMT-30"/>
       <use xlink:href="#TimesNewRomanPSMT-2e" transform="translate(50 0)"/>
       <use xlink:href="#TimesNewRomanPSMT-31" transform="translate(75 0)"/>
       <use xlink:href="#TimesNewRomanPSMT-30" transform="translate(125 0)"/>
      </g>
     </g>
    </g>
    <g id="ytick_4">
     <g id="line2d_15">
      <path d="M 249.00225 165.830619 
L 606.12225 165.830619 
" clip-path="url(#p82e386c5d1)" style="fill: none; stroke: #b0b0b0; stroke-opacity: 0.3; stroke-width: 0.8; stroke-linecap: square"/>
     </g>
     <g id="line2d_16">
      <g>
       <use xlink:href="#m1cedfa6333" x="249.00225" y="165.830619" style="stroke: #000000; stroke-width: 0.8"/>
      </g>
     </g>
     <g id="text_9">
      <!-- 0.15 -->
      <g transform="translate(203.50225 173.468744) scale(0.22 -0.22)">
       <use xlink:href="#TimesNewRomanPSMT-30"/>
       <use xlink:href="#TimesNewRomanPSMT-2e" transform="translate(50 0)"/>
       <use xlink:href="#TimesNewRomanPSMT-31" transform="translate(75 0)"/>
       <use xlink:href="#TimesNewRomanPSMT-35" transform="translate(125 0)"/>
      </g>
     </g>
    </g>
    <g id="ytick_5">
     <g id="line2d_17">
      <path d="M 249.00225 117.226326 
L 606.12225 117.226326 
" clip-path="url(#p82e386c5d1)" style="fill: none; stroke: #b0b0b0; stroke-opacity: 0.3; stroke-width: 0.8; stroke-linecap: square"/>
     </g>
     <g id="line2d_18">
      <g>
       <use xlink:href="#m1cedfa6333" x="249.00225" y="117.226326" style="stroke: #000000; stroke-width: 0.8"/>
      </g>
     </g>
     <g id="text_10">
      <!-- 0.20 -->
      <g transform="translate(203.50225 124.864451) scale(0.22 -0.22)">
       <use xlink:href="#TimesNewRomanPSMT-30"/>
       <use xlink:href="#TimesNewRomanPSMT-2e" transform="translate(50 0)"/>
       <use xlink:href="#TimesNewRomanPSMT-32" transform="translate(75 0)"/>
       <use xlink:href="#TimesNewRomanPSMT-30" transform="translate(125 0)"/>
      </g>
     </g>
    </g>
    <g id="ytick_6">
     <g id="line2d_19">
      <path d="M 249.00225 68.622032 
L 606.12225 68.622032 
" clip-path="url(#p82e386c5d1)" style="fill: none; stroke: #b0b0b0; stroke-opacity: 0.3; stroke-width: 0.8; stroke-linecap: square"/>
     </g>
     <g id="line2d_20">
      <g>
       <use xlink:href="#m1cedfa6333" x="249.00225" y="68.622032" style="stroke: #000000; stroke-width: 0.8"/>
      </g>
     </g>
     <g id="text_11">
      <!-- 0.25 -->
      <g transform="translate(203.50225 76.260157) scale(0.22 -0.22)">
       <use xlink:href="#TimesNewRomanPSMT-30"/>
       <use xlink:href="#TimesNewRomanPSMT-2e" transform="translate(50 0)"/>
       <use xlink:href="#TimesNewRomanPSMT-32" transform="translate(75 0)"/>
       <use xlink:href="#TimesNewRomanPSMT-35" transform="translate(125 0)"/>
      </g>
     </g>
    </g>
    <g id="text_12">
     <!-- Loss -->
     <g transform="translate(194.796312 199.368906) rotate(-90) scale(0.22 -0.22)">
      <defs>
       <path id="TimesNewRomanPSMT-4c" d="M 3669 1172 
L 3772 1150 
L 3409 0 
L 128 0 
L 128 116 
L 288 116 
Q 556 116 672 291 
Q 738 391 738 753 
L 738 3488 
Q 738 3884 650 3984 
Q 528 4122 288 4122 
L 128 4122 
L 128 4238 
L 2047 4238 
L 2047 4122 
Q 1709 4125 1573 4059 
Q 1438 3994 1388 3894 
Q 1338 3794 1338 3416 
L 1338 753 
Q 1338 494 1388 397 
Q 1425 331 1503 300 
Q 1581 269 1991 269 
L 2300 269 
Q 2788 269 2984 341 
Q 3181 413 3343 595 
Q 3506 778 3669 1172 
z
" transform="scale(0.015625)"/>
      </defs>
      <use xlink:href="#TimesNewRomanPSMT-4c"/>
      <use xlink:href="#TimesNewRomanPSMT-6f" transform="translate(61.083984 0)"/>
      <use xlink:href="#TimesNewRomanPSMT-73" transform="translate(111.083984 0)"/>
      <use xlink:href="#TimesNewRomanPSMT-73" transform="translate(150 0)"/>
     </g>
    </g>
   </g>
   <g id="line2d_21">
    <path d="M 249.00225 68.495866 
L 250.180864 72.553491 
L 251.359478 76.131352 
L 252.538092 76.887451 
L 253.716705 79.088406 
L 254.895319 78.078932 
L 256.073933 80.987156 
L 257.252547 83.470703 
L 259.609775 86.818554 
L 260.788389 88.202644 
L 261.967002 90.114402 
L 263.145616 90.618632 
L 265.502844 96.140973 
L 266.681458 95.604267 
L 267.860072 98.875577 
L 269.038686 103.560297 
L 270.2173 103.871844 
L 271.395913 103.382635 
L 272.574527 106.905786 
L 273.753141 107.287819 
L 274.931755 109.700866 
L 277.288983 115.429882 
L 278.467597 116.645987 
L 279.64621 118.058831 
L 280.824824 121.914243 
L 282.003438 123.66339 
L 283.182052 124.487338 
L 284.360666 124.380495 
L 285.53928 128.715382 
L 286.717894 131.980304 
L 287.896507 128.067053 
L 289.075121 132.880734 
L 290.253735 134.728278 
L 291.432349 137.676453 
L 292.610963 140.955078 
L 293.789577 144.596138 
L 294.968191 144.446101 
L 296.146804 146.366057 
L 297.325418 149.773775 
L 298.504032 151.161849 
L 299.682646 155.891226 
L 300.86126 155.621236 
L 302.039874 159.915332 
L 303.218488 156.057357 
L 304.397101 160.90825 
L 305.575715 160.453197 
L 306.754329 165.774976 
L 307.932943 165.000481 
L 309.111557 170.699353 
L 310.290171 168.352792 
L 311.468785 170.784294 
L 312.647399 172.642485 
L 313.826012 173.705758 
L 315.004626 177.853698 
L 316.18324 178.750594 
L 317.361854 183.163585 
L 318.540468 180.753029 
L 319.719082 186.557484 
L 320.897696 187.231147 
L 322.076309 189.990637 
L 323.254923 189.90897 
L 324.433537 190.261199 
L 325.612151 187.335006 
L 326.790765 194.532083 
L 329.147993 197.66703 
L 330.326606 196.086998 
L 331.50522 200.173753 
L 332.683834 200.268689 
L 333.862448 204.523169 
L 335.041062 204.94174 
L 336.219676 206.706879 
L 337.39829 206.776698 
L 338.576903 208.55065 
L 339.755517 211.670808 
L 340.934131 210.164831 
L 342.112745 212.271075 
L 343.291359 215.399177 
L 344.469973 215.983677 
L 345.648587 217.810045 
L 346.8272 220.402361 
L 348.005814 220.349642 
L 349.184428 221.339344 
L 350.363042 224.287308 
L 351.541656 223.069942 
L 352.72027 224.571378 
L 353.898884 224.702759 
L 355.077498 228.561386 
L 356.256111 226.322082 
L 357.434725 229.744545 
L 358.613339 231.450997 
L 359.791953 234.280429 
L 360.970567 234.108106 
L 362.149181 233.232489 
L 363.327795 234.98223 
L 364.506408 238.463808 
L 365.685022 240.311353 
L 366.863636 240.135828 
L 368.04225 238.765462 
L 369.220864 243.158949 
L 370.399478 241.757208 
L 371.578092 244.7772 
L 372.756705 246.015845 
L 373.935319 242.976964 
L 375.113933 245.054715 
L 376.292547 245.890106 
L 377.471161 248.810324 
L 378.649775 248.695297 
L 379.828389 249.303871 
L 381.007002 251.431633 
L 382.185616 251.163852 
L 383.36423 252.446908 
L 384.542844 254.933844 
L 385.721458 255.581076 
L 386.900072 254.777976 
L 388.078686 256.227066 
L 389.2573 254.875357 
L 391.614527 258.064572 
L 392.793141 260.374014 
L 393.971755 260.290159 
L 395.150369 259.687238 
L 396.328983 261.347395 
L 397.507597 260.45713 
L 398.68621 262.75024 
L 399.864824 261.939083 
L 401.043438 265.204875 
L 402.222052 263.085609 
L 404.57928 264.894913 
L 405.757894 266.396004 
L 406.936507 266.558919 
L 408.115121 268.088405 
L 409.293735 268.103068 
L 410.472349 268.263466 
L 411.650963 269.061112 
L 412.829577 268.909927 
L 414.008191 271.25762 
L 415.186804 271.039274 
L 416.365418 271.062834 
L 417.544032 272.056617 
L 418.722646 272.18245 
L 419.90126 273.221344 
L 421.079874 273.078114 
L 423.437101 275.294485 
L 424.615715 275.923969 
L 426.972943 275.541878 
L 428.151557 275.202033 
L 429.330171 278.683115 
L 430.508785 278.373961 
L 431.687399 277.415047 
L 432.866012 278.82566 
L 434.044626 281.019553 
L 435.22324 279.620485 
L 437.580468 280.233445 
L 438.759082 281.031801 
L 439.937696 278.177976 
L 441.116309 281.029838 
L 443.473537 283.078086 
L 444.652151 282.138523 
L 445.830765 282.307622 
L 447.009379 284.480716 
L 448.187993 282.981709 
L 449.366606 284.32129 
L 451.723834 284.414971 
L 452.902448 284.966298 
L 454.081062 284.948272 
L 455.259676 286.077857 
L 456.43829 286.369361 
L 457.616903 286.181551 
L 458.795517 287.083004 
L 459.974131 286.705353 
L 461.152745 287.416263 
L 462.331359 288.260825 
L 463.509973 287.696963 
L 464.688587 288.203223 
L 465.8672 288.256119 
L 467.045814 288.437251 
L 468.224428 289.856771 
L 469.403042 288.917822 
L 470.581656 290.32725 
L 471.76027 290.522125 
L 472.938884 290.324837 
L 474.117498 290.37463 
L 475.296111 290.652994 
L 476.474725 291.158864 
L 477.653339 291.145458 
L 478.831953 292.408291 
L 480.010567 291.530674 
L 481.189181 293.079536 
L 482.367795 292.045028 
L 483.546408 293.049827 
L 484.725022 292.851582 
L 485.903636 293.538931 
L 487.08225 293.764407 
L 488.260864 292.716495 
L 489.439478 293.545907 
L 490.618092 294.118428 
L 495.332547 294.206317 
L 496.511161 294.726305 
L 497.689775 295.398239 
L 498.868389 295.262975 
L 500.047002 296.370639 
L 501.225616 295.90317 
L 502.40423 296.592592 
L 503.582844 296.121245 
L 504.761458 296.075392 
L 505.940072 296.436141 
L 507.118686 296.502229 
L 508.2973 297.292647 
L 509.475913 296.690334 
L 510.654527 296.813539 
L 511.833141 297.794996 
L 513.011755 297.43682 
L 514.190369 297.74673 
L 515.368983 297.645841 
L 516.547597 297.856834 
L 517.72621 298.277828 
L 518.904824 297.70942 
L 520.083438 298.795201 
L 521.262052 298.193189 
L 522.440666 299.560839 
L 523.61928 298.700424 
L 524.797894 298.609452 
L 525.976507 299.43689 
L 527.155121 299.604482 
L 528.333735 299.886732 
L 529.512349 299.301361 
L 530.690963 299.704347 
L 533.048191 299.679258 
L 534.226804 300.070016 
L 535.405418 300.01308 
L 536.584032 299.826054 
L 537.762646 300.897367 
L 538.94126 300.688373 
L 540.119874 301.228644 
L 541.298488 300.750344 
L 542.477101 301.114455 
L 543.655715 301.765808 
L 544.834329 301.466292 
L 546.012943 301.298458 
L 547.191557 301.491235 
L 548.370171 301.894907 
L 549.548785 301.625887 
L 550.727399 301.797733 
L 551.906012 302.809364 
L 553.084626 301.993469 
L 554.26324 301.732618 
L 556.620468 302.515329 
L 557.799082 302.370066 
L 558.977696 303.205108 
L 560.156309 302.889233 
L 561.334923 302.412201 
L 562.513537 302.434677 
L 563.692151 302.747806 
L 564.870765 302.626346 
L 566.049379 303.353558 
L 567.227993 303.086623 
L 568.406606 302.990542 
L 569.58522 303.361552 
L 570.763834 303.567058 
L 571.942448 303.013963 
L 573.121062 303.790208 
L 574.299676 303.60956 
L 575.47829 303.084031 
L 576.656903 303.2604 
L 579.014131 304.031006 
L 580.192745 304.474233 
L 581.371359 304.200406 
L 582.549973 304.737118 
L 583.728587 304.198817 
L 584.9072 304.366681 
L 586.085814 304.794424 
L 587.264428 304.607155 
L 588.443042 304.538399 
L 589.621656 304.601282 
L 590.80027 304.918907 
L 591.978884 304.643274 
L 593.157498 304.837113 
L 596.693339 304.432816 
L 599.050567 305.437013 
L 600.229181 304.997986 
L 601.407795 305.274011 
L 604.943636 305.34058 
L 606.12225 305.143208 
L 606.12225 305.143208 
" clip-path="url(#p82e386c5d1)" style="fill: none; stroke: #ffa500; stroke-width: 1.5; stroke-linecap: square"/>
   </g>
   <g id="line2d_22">
    <path d="M 249.00225 69.322566 
L 250.180864 72.339603 
L 252.538092 74.97946 
L 253.716705 75.805725 
L 256.073933 77.755115 
L 258.431161 78.966325 
L 259.609775 79.388467 
L 260.788389 79.607991 
L 263.145616 81.446801 
L 264.32423 81.748673 
L 267.860072 83.326677 
L 269.038686 82.53564 
L 270.2173 83.717473 
L 271.395913 84.445529 
L 273.753141 84.474992 
L 274.931755 85.218025 
L 276.110369 84.693545 
L 277.288983 85.46255 
L 278.467597 85.839064 
L 279.64621 85.761003 
L 280.824824 86.029414 
L 282.003438 85.665835 
L 283.182052 85.962 
L 284.360666 86.383143 
L 285.53928 86.4599 
L 286.717894 86.114616 
L 287.896507 86.247677 
L 289.075121 87.001009 
L 290.253735 86.751023 
L 291.432349 87.092672 
L 293.789577 86.951484 
L 294.968191 87.486568 
L 296.146804 87.144818 
L 298.504032 87.036281 
L 299.682646 86.25098 
L 300.86126 86.765045 
L 302.039874 86.786324 
L 303.218488 86.998793 
L 305.575715 86.953672 
L 306.754329 86.96765 
L 307.932943 86.80753 
L 309.111557 86.804184 
L 310.290171 86.296145 
L 311.468785 86.723516 
L 312.647399 85.639066 
L 313.826012 86.232496 
L 315.004626 86.319509 
L 316.18324 86.617441 
L 317.361854 86.280906 
L 318.540468 86.387734 
L 319.719082 86.159665 
L 320.897696 86.095394 
L 322.076309 86.298897 
L 323.254923 86.086804 
L 326.790765 85.755021 
L 327.969379 85.939997 
L 329.147993 84.784193 
L 330.326606 85.638965 
L 331.50522 85.211463 
L 332.683834 85.058948 
L 333.862448 85.377058 
L 336.219676 84.49559 
L 337.39829 84.521113 
L 338.576903 84.692357 
L 339.755517 84.562772 
L 340.934131 84.180203 
L 342.112745 84.312134 
L 343.291359 83.827851 
L 344.469973 84.324708 
L 345.648587 83.757815 
L 346.8272 84.375362 
L 348.005814 83.420005 
L 349.184428 83.619452 
L 350.363042 83.11625 
L 351.541656 83.382257 
L 352.72027 83.140325 
L 353.898884 82.741952 
L 355.077498 82.817218 
L 356.256111 83.246458 
L 357.434725 82.854879 
L 358.613339 82.972847 
L 359.791953 82.856849 
L 360.970567 82.62019 
L 362.149181 82.097853 
L 363.327795 82.045967 
L 364.506408 82.119566 
L 365.685022 82.080558 
L 366.863636 81.644249 
L 368.04225 81.562712 
L 369.220864 80.353226 
L 370.399478 81.133312 
L 371.578092 81.408111 
L 372.756705 80.684111 
L 375.113933 80.696424 
L 376.292547 79.774179 
L 377.471161 80.500497 
L 378.649775 80.407386 
L 381.007002 79.692671 
L 382.185616 80.031698 
L 383.36423 79.07718 
L 384.542844 79.18424 
L 385.721458 79.814304 
L 388.078686 78.556727 
L 389.2573 78.956663 
L 391.614527 78.412034 
L 392.793141 77.788793 
L 393.971755 78.287099 
L 395.150369 78.248119 
L 396.328983 77.634236 
L 398.68621 77.861248 
L 399.864824 77.697131 
L 401.043438 77.824891 
L 403.400666 76.993744 
L 405.757894 77.137538 
L 406.936507 76.095835 
L 408.115121 75.555478 
L 409.293735 76.424243 
L 410.472349 76.407976 
L 411.650963 76.064358 
L 414.008191 76.058289 
L 415.186804 75.397097 
L 416.365418 75.441842 
L 417.544032 75.795962 
L 418.722646 74.870893 
L 419.90126 73.6194 
L 421.079874 74.834376 
L 422.258488 73.955558 
L 423.437101 74.86633 
L 424.615715 74.836186 
L 425.794329 74.291036 
L 426.972943 74.343211 
L 428.151557 73.863896 
L 429.330171 74.070455 
L 430.508785 72.471317 
L 431.687399 72.715639 
L 432.866012 72.333968 
L 434.044626 73.329913 
L 435.22324 72.607014 
L 436.401854 72.955673 
L 437.580468 72.302535 
L 438.759082 72.731804 
L 439.937696 71.913057 
L 441.116309 72.509167 
L 442.294923 72.071163 
L 443.473537 72.196895 
L 444.652151 71.645211 
L 447.009379 71.763222 
L 449.366606 71.057256 
L 451.723834 71.205165 
L 452.902448 70.93264 
L 454.081062 70.804113 
L 455.259676 70.838892 
L 456.43829 70.406726 
L 458.795517 70.370484 
L 459.974131 69.535397 
L 461.152745 70.291308 
L 463.509973 69.844366 
L 464.688587 69.345394 
L 465.8672 69.314599 
L 467.045814 69.063165 
L 468.224428 69.410955 
L 469.403042 68.584255 
L 470.581656 69.053865 
L 471.76027 68.814367 
L 472.938884 68.866745 
L 474.117498 68.238145 
L 475.296111 68.403595 
L 476.474725 68.28079 
L 477.653339 67.867556 
L 478.831953 68.252514 
L 480.010567 68.001978 
L 481.189181 68.170963 
L 482.367795 67.218937 
L 483.546408 67.539321 
L 485.903636 66.817378 
L 488.260864 66.99233 
L 489.439478 66.974687 
L 490.618092 66.694833 
L 491.796705 66.641701 
L 492.975319 66.02046 
L 494.153933 66.203785 
L 497.689775 65.532975 
L 498.868389 65.854517 
L 500.047002 65.610528 
L 501.225616 64.990561 
L 503.582844 64.950437 
L 504.761458 65.232609 
L 505.940072 64.495138 
L 507.118686 64.791274 
L 508.2973 64.251034 
L 509.475913 64.899826 
L 510.654527 64.544649 
L 511.833141 64.697091 
L 513.011755 63.90785 
L 514.190369 63.973555 
L 515.368983 63.237156 
L 516.547597 63.820157 
L 517.72621 63.388092 
L 518.904824 63.631936 
L 520.083438 63.544851 
L 521.262052 63.221541 
L 522.440666 63.207838 
L 523.61928 62.878966 
L 524.797894 62.873143 
L 527.155121 62.546269 
L 528.333735 61.964949 
L 529.512349 62.406603 
L 530.690963 61.937717 
L 533.048191 61.772325 
L 534.226804 61.942323 
L 535.405418 61.679706 
L 536.584032 60.837623 
L 537.762646 61.675593 
L 538.94126 61.175013 
L 540.119874 61.687326 
L 541.298488 61.349675 
L 543.655715 60.931835 
L 544.834329 61.12614 
L 546.012943 60.709777 
L 548.370171 60.209139 
L 549.548785 60.266095 
L 550.727399 60.460718 
L 551.906012 60.006578 
L 553.084626 60.295065 
L 555.441854 59.643897 
L 556.620468 59.960892 
L 557.799082 59.835363 
L 558.977696 59.452113 
L 560.156309 58.935194 
L 561.334923 59.424186 
L 563.692151 59.387625 
L 564.870765 58.887161 
L 566.049379 58.975637 
L 568.406606 58.597776 
L 569.58522 57.114519 
L 570.763834 58.515702 
L 571.942448 58.565966 
L 574.299676 58.275567 
L 575.47829 57.162262 
L 576.656903 57.787705 
L 579.014131 57.601628 
L 580.192745 57.778058 
L 581.371359 57.367518 
L 582.549973 57.522683 
L 583.728587 57.479836 
L 584.9072 57.067268 
L 586.085814 57.177037 
L 587.264428 56.840604 
L 590.80027 56.946694 
L 591.978884 56.422445 
L 593.157498 56.494205 
L 594.336111 55.86236 
L 595.514725 56.246334 
L 596.693339 55.584041 
L 597.871953 55.473519 
L 599.050567 56.024218 
L 600.229181 55.941188 
L 601.407795 55.691811 
L 602.586408 55.913869 
L 603.765022 55.598932 
L 604.943636 55.523116 
L 606.12225 55.252359 
L 606.12225 55.252359 
" clip-path="url(#p82e386c5d1)" style="fill: none; stroke: #008000; stroke-width: 1.5; stroke-linecap: square"/>
   </g>
   <g id="patch_3">
    <path d="M 249.00225 311.6435 
L 249.00225 45.5315 
" style="fill: none; stroke: #000000; stroke-width: 0.8; stroke-linejoin: miter; stroke-linecap: square"/>
   </g>
   <g id="patch_4">
    <path d="M 606.12225 311.6435 
L 606.12225 45.5315 
" style="fill: none; stroke: #000000; stroke-width: 0.8; stroke-linejoin: miter; stroke-linecap: square"/>
   </g>
   <g id="patch_5">
    <path d="M 249.00225 311.6435 
L 606.12225 311.6435 
" style="fill: none; stroke: #000000; stroke-width: 0.8; stroke-linejoin: miter; stroke-linecap: square"/>
   </g>
   <g id="patch_6">
    <path d="M 249.00225 45.5315 
L 606.12225 45.5315 
" style="fill: none; stroke: #000000; stroke-width: 0.8; stroke-linejoin: miter; stroke-linecap: square"/>
   </g>
   <g id="text_13">
    <!-- Loss of the 02_06_25_CINIC10_torch_model_(1024+8192-8192.2+1)_cat-dog -->
    <g transform="translate(7.2 25.5315) scale(0.264 -0.264)">
     <defs>
      <path id="TimesNewRomanPSMT-68" d="M 1041 4444 
L 1041 2350 
Q 1388 2731 1591 2839 
Q 1794 2947 1997 2947 
Q 2241 2947 2416 2812 
Q 2591 2678 2675 2391 
Q 2734 2191 2734 1659 
L 2734 647 
Q 2734 375 2778 275 
Q 2809 200 2884 156 
Q 2959 113 3159 113 
L 3159 0 
L 1753 0 
L 1753 113 
L 1819 113 
Q 2019 113 2097 173 
Q 2175 234 2206 353 
Q 2216 403 2216 647 
L 2216 1659 
Q 2216 2128 2167 2275 
Q 2119 2422 2012 2495 
Q 1906 2569 1756 2569 
Q 1603 2569 1437 2487 
Q 1272 2406 1041 2159 
L 1041 647 
Q 1041 353 1073 281 
Q 1106 209 1195 161 
Q 1284 113 1503 113 
L 1503 0 
L 84 0 
L 84 113 
Q 275 113 384 172 
Q 447 203 484 290 
Q 522 378 522 647 
L 522 3238 
Q 522 3728 498 3840 
Q 475 3953 426 3993 
Q 378 4034 297 4034 
Q 231 4034 84 3984 
L 41 4094 
L 897 4444 
L 1041 4444 
z
" transform="scale(0.015625)"/>
      <path id="TimesNewRomanPSMT-5f" d="M 3256 -1381 
L -53 -1381 
L -53 -1119 
L 3256 -1119 
L 3256 -1381 
z
" transform="scale(0.015625)"/>
      <path id="TimesNewRomanPSMT-36" d="M 2869 4325 
L 2869 4209 
Q 2456 4169 2195 4045 
Q 1934 3922 1679 3669 
Q 1425 3416 1258 3105 
Q 1091 2794 978 2366 
Q 1428 2675 1881 2675 
Q 2316 2675 2634 2325 
Q 2953 1975 2953 1425 
Q 2953 894 2631 456 
Q 2244 -75 1606 -75 
Q 1172 -75 869 213 
Q 275 772 275 1663 
Q 275 2231 503 2743 
Q 731 3256 1154 3653 
Q 1578 4050 1965 4187 
Q 2353 4325 2688 4325 
L 2869 4325 
z
M 925 2138 
Q 869 1716 869 1456 
Q 869 1156 980 804 
Q 1091 453 1309 247 
Q 1469 100 1697 100 
Q 1969 100 2183 356 
Q 2397 613 2397 1088 
Q 2397 1622 2184 2012 
Q 1972 2403 1581 2403 
Q 1463 2403 1327 2353 
Q 1191 2303 925 2138 
z
" transform="scale(0.015625)"/>
      <path id="TimesNewRomanPSMT-43" d="M 3853 4334 
L 3950 2894 
L 3853 2894 
Q 3659 3541 3300 3825 
Q 2941 4109 2438 4109 
Q 2016 4109 1675 3895 
Q 1334 3681 1139 3212 
Q 944 2744 944 2047 
Q 944 1472 1128 1050 
Q 1313 628 1683 403 
Q 2053 178 2528 178 
Q 2941 178 3256 354 
Q 3572 531 3950 1056 
L 4047 994 
Q 3728 428 3303 165 
Q 2878 -97 2294 -97 
Q 1241 -97 663 684 
Q 231 1266 231 2053 
Q 231 2688 515 3219 
Q 800 3750 1298 4042 
Q 1797 4334 2388 4334 
Q 2847 4334 3294 4109 
Q 3425 4041 3481 4041 
Q 3566 4041 3628 4100 
Q 3709 4184 3744 4334 
L 3853 4334 
z
" transform="scale(0.015625)"/>
      <path id="TimesNewRomanPSMT-49" d="M 1975 116 
L 1975 0 
L 159 0 
L 159 116 
L 309 116 
Q 572 116 691 269 
Q 766 369 766 750 
L 766 3488 
Q 766 3809 725 3913 
Q 694 3991 597 4047 
Q 459 4122 309 4122 
L 159 4122 
L 159 4238 
L 1975 4238 
L 1975 4122 
L 1822 4122 
Q 1563 4122 1444 3969 
Q 1366 3869 1366 3488 
L 1366 750 
Q 1366 428 1406 325 
Q 1438 247 1538 191 
Q 1672 116 1822 116 
L 1975 116 
z
" transform="scale(0.015625)"/>
      <path id="TimesNewRomanPSMT-63" d="M 2631 1088 
Q 2516 522 2178 217 
Q 1841 -88 1431 -88 
Q 944 -88 581 321 
Q 219 731 219 1428 
Q 219 2103 620 2525 
Q 1022 2947 1584 2947 
Q 2006 2947 2278 2723 
Q 2550 2500 2550 2259 
Q 2550 2141 2473 2067 
Q 2397 1994 2259 1994 
Q 2075 1994 1981 2113 
Q 1928 2178 1911 2362 
Q 1894 2547 1784 2644 
Q 1675 2738 1481 2738 
Q 1169 2738 978 2506 
Q 725 2200 725 1697 
Q 725 1184 976 792 
Q 1228 400 1656 400 
Q 1963 400 2206 609 
Q 2378 753 2541 1131 
L 2631 1088 
z
" transform="scale(0.015625)"/>
      <path id="TimesNewRomanPSMT-64" d="M 2222 322 
Q 2013 103 1813 7 
Q 1613 -88 1381 -88 
Q 913 -88 563 304 
Q 213 697 213 1313 
Q 213 1928 600 2439 
Q 988 2950 1597 2950 
Q 1975 2950 2222 2709 
L 2222 3238 
Q 2222 3728 2198 3840 
Q 2175 3953 2125 3993 
Q 2075 4034 2000 4034 
Q 1919 4034 1784 3984 
L 1744 4094 
L 2597 4444 
L 2738 4444 
L 2738 1134 
Q 2738 631 2761 520 
Q 2784 409 2836 365 
Q 2888 322 2956 322 
Q 3041 322 3181 375 
L 3216 266 
L 2366 -88 
L 2222 -88 
L 2222 322 
z
M 2222 541 
L 2222 2016 
Q 2203 2228 2109 2403 
Q 2016 2578 1861 2667 
Q 1706 2756 1559 2756 
Q 1284 2756 1069 2509 
Q 784 2184 784 1559 
Q 784 928 1059 592 
Q 1334 256 1672 256 
Q 1956 256 2222 541 
z
" transform="scale(0.015625)"/>
      <path id="TimesNewRomanPSMT-6c" d="M 1184 4444 
L 1184 647 
Q 1184 378 1223 290 
Q 1263 203 1344 158 
Q 1425 113 1647 113 
L 1647 0 
L 244 0 
L 244 113 
Q 441 113 512 153 
Q 584 194 625 287 
Q 666 381 666 647 
L 666 3247 
Q 666 3731 644 3842 
Q 622 3953 573 3993 
Q 525 4034 450 4034 
Q 369 4034 244 3984 
L 191 4094 
L 1044 4444 
L 1184 4444 
z
" transform="scale(0.015625)"/>
      <path id="TimesNewRomanPSMT-28" d="M 1988 -1253 
L 1988 -1369 
Q 1516 -1131 1200 -813 
Q 750 -359 506 256 
Q 263 872 263 1534 
Q 263 2503 741 3301 
Q 1219 4100 1988 4444 
L 1988 4313 
Q 1603 4100 1356 3731 
Q 1109 3363 987 2797 
Q 866 2231 866 1616 
Q 866 947 969 400 
Q 1050 -31 1165 -292 
Q 1281 -553 1476 -793 
Q 1672 -1034 1988 -1253 
z
" transform="scale(0.015625)"/>
      <path id="TimesNewRomanPSMT-34" d="M 2978 1563 
L 2978 1119 
L 2409 1119 
L 2409 0 
L 1894 0 
L 1894 1119 
L 100 1119 
L 100 1519 
L 2066 4325 
L 2409 4325 
L 2409 1563 
L 2978 1563 
z
M 1894 1563 
L 1894 3666 
L 406 1563 
L 1894 1563 
z
" transform="scale(0.015625)"/>
      <path id="TimesNewRomanPSMT-2b" d="M 1672 441 
L 1672 2000 
L 116 2000 
L 116 2256 
L 1672 2256 
L 1672 3809 
L 1922 3809 
L 1922 2256 
L 3484 2256 
L 3484 2000 
L 1922 2000 
L 1922 441 
L 1672 441 
z
" transform="scale(0.015625)"/>
      <path id="TimesNewRomanPSMT-38" d="M 1228 2134 
Q 725 2547 579 2797 
Q 434 3047 434 3316 
Q 434 3728 753 4026 
Q 1072 4325 1600 4325 
Q 2113 4325 2425 4047 
Q 2738 3769 2738 3413 
Q 2738 3175 2569 2928 
Q 2400 2681 1866 2347 
Q 2416 1922 2594 1678 
Q 2831 1359 2831 1006 
Q 2831 559 2490 242 
Q 2150 -75 1597 -75 
Q 994 -75 656 303 
Q 388 606 388 966 
Q 388 1247 577 1523 
Q 766 1800 1228 2134 
z
M 1719 2469 
Q 2094 2806 2194 3001 
Q 2294 3197 2294 3444 
Q 2294 3772 2109 3958 
Q 1925 4144 1606 4144 
Q 1288 4144 1088 3959 
Q 888 3775 888 3528 
Q 888 3366 970 3203 
Q 1053 3041 1206 2894 
L 1719 2469 
z
M 1375 2016 
Q 1116 1797 991 1539 
Q 866 1281 866 981 
Q 866 578 1086 336 
Q 1306 94 1647 94 
Q 1984 94 2187 284 
Q 2391 475 2391 747 
Q 2391 972 2272 1150 
Q 2050 1481 1375 2016 
z
" transform="scale(0.015625)"/>
      <path id="TimesNewRomanPSMT-39" d="M 338 -88 
L 338 28 
Q 744 34 1094 217 
Q 1444 400 1770 856 
Q 2097 1313 2225 1859 
Q 1734 1544 1338 1544 
Q 891 1544 572 1889 
Q 253 2234 253 2806 
Q 253 3363 572 3797 
Q 956 4325 1575 4325 
Q 2097 4325 2469 3894 
Q 2925 3359 2925 2575 
Q 2925 1869 2578 1258 
Q 2231 647 1613 244 
Q 1109 -88 516 -88 
L 338 -88 
z
M 2275 2091 
Q 2331 2497 2331 2741 
Q 2331 3044 2228 3395 
Q 2125 3747 1936 3934 
Q 1747 4122 1506 4122 
Q 1228 4122 1018 3872 
Q 809 3622 809 3128 
Q 809 2469 1088 2097 
Q 1291 1828 1588 1828 
Q 1731 1828 1928 1897 
Q 2125 1966 2275 2091 
z
" transform="scale(0.015625)"/>
      <path id="TimesNewRomanPSMT-2d" d="M 259 1672 
L 1875 1672 
L 1875 1200 
L 259 1200 
L 259 1672 
z
" transform="scale(0.015625)"/>
      <path id="TimesNewRomanPSMT-29" d="M 144 4313 
L 144 4444 
Q 619 4209 934 3891 
Q 1381 3434 1625 2820 
Q 1869 2206 1869 1541 
Q 1869 572 1392 -226 
Q 916 -1025 144 -1369 
L 144 -1253 
Q 528 -1038 776 -670 
Q 1025 -303 1145 264 
Q 1266 831 1266 1447 
Q 1266 2113 1163 2663 
Q 1084 3094 967 3353 
Q 850 3613 656 3853 
Q 463 4094 144 4313 
z
" transform="scale(0.015625)"/>
      <path id="TimesNewRomanPSMT-67" d="M 966 1044 
Q 703 1172 562 1401 
Q 422 1631 422 1909 
Q 422 2334 742 2640 
Q 1063 2947 1563 2947 
Q 1972 2947 2272 2747 
L 2878 2747 
Q 3013 2747 3034 2739 
Q 3056 2731 3066 2713 
Q 3084 2684 3084 2613 
Q 3084 2531 3069 2500 
Q 3059 2484 3036 2475 
Q 3013 2466 2878 2466 
L 2506 2466 
Q 2681 2241 2681 1891 
Q 2681 1491 2375 1206 
Q 2069 922 1553 922 
Q 1341 922 1119 984 
Q 981 866 932 777 
Q 884 688 884 625 
Q 884 572 936 522 
Q 988 472 1138 450 
Q 1225 438 1575 428 
Q 2219 413 2409 384 
Q 2700 344 2873 169 
Q 3047 -6 3047 -263 
Q 3047 -616 2716 -925 
Q 2228 -1381 1444 -1381 
Q 841 -1381 425 -1109 
Q 191 -953 191 -784 
Q 191 -709 225 -634 
Q 278 -519 444 -313 
Q 466 -284 763 25 
Q 600 122 533 198 
Q 466 275 466 372 
Q 466 481 555 628 
Q 644 775 966 1044 
z
M 1509 2797 
Q 1278 2797 1122 2612 
Q 966 2428 966 2047 
Q 966 1553 1178 1281 
Q 1341 1075 1591 1075 
Q 1828 1075 1981 1253 
Q 2134 1431 2134 1813 
Q 2134 2309 1919 2591 
Q 1759 2797 1509 2797 
z
M 934 0 
Q 788 -159 713 -296 
Q 638 -434 638 -550 
Q 638 -700 819 -813 
Q 1131 -1006 1722 -1006 
Q 2284 -1006 2551 -807 
Q 2819 -609 2819 -384 
Q 2819 -222 2659 -153 
Q 2497 -84 2016 -72 
Q 1313 -53 934 0 
z
" transform="scale(0.015625)"/>
     </defs>
     <use xlink:href="#TimesNewRomanPSMT-4c"/>
     <use xlink:href="#TimesNewRomanPSMT-6f" transform="translate(61.083984 0)"/>
     <use xlink:href="#TimesNewRomanPSMT-73" transform="translate(111.083984 0)"/>
     <use xlink:href="#TimesNewRomanPSMT-73" transform="translate(150 0)"/>
     <use xlink:href="#TimesNewRomanPSMT-20" transform="translate(188.916016 0)"/>
     <use xlink:href="#TimesNewRomanPSMT-6f" transform="translate(213.916016 0)"/>
     <use xlink:href="#TimesNewRomanPSMT-66" transform="translate(263.916016 0)"/>
     <use xlink:href="#TimesNewRomanPSMT-20" transform="translate(297.216797 0)"/>
     <use xlink:href="#TimesNewRomanPSMT-74" transform="translate(322.216797 0)"/>
     <use xlink:href="#TimesNewRomanPSMT-68" transform="translate(350 0)"/>
     <use xlink:href="#TimesNewRomanPSMT-65" transform="translate(400 0)"/>
     <use xlink:href="#TimesNewRomanPSMT-20" transform="translate(444.384766 0)"/>
     <use xlink:href="#TimesNewRomanPSMT-30" transform="translate(469.384766 0)"/>
     <use xlink:href="#TimesNewRomanPSMT-32" transform="translate(519.384766 0)"/>
     <use xlink:href="#TimesNewRomanPSMT-5f" transform="translate(569.384766 0)"/>
     <use xlink:href="#TimesNewRomanPSMT-30" transform="translate(619.384766 0)"/>
     <use xlink:href="#TimesNewRomanPSMT-36" transform="translate(669.384766 0)"/>
     <use xlink:href="#TimesNewRomanPSMT-5f" transform="translate(719.384766 0)"/>
     <use xlink:href="#TimesNewRomanPSMT-32" transform="translate(769.384766 0)"/>
     <use xlink:href="#TimesNewRomanPSMT-35" transform="translate(819.384766 0)"/>
     <use xlink:href="#TimesNewRomanPSMT-5f" transform="translate(869.384766 0)"/>
     <use xlink:href="#TimesNewRomanPSMT-43" transform="translate(919.384766 0)"/>
     <use xlink:href="#TimesNewRomanPSMT-49" transform="translate(986.083984 0)"/>
     <use xlink:href="#TimesNewRomanPSMT-4e" transform="translate(1019.384766 0)"/>
     <use xlink:href="#TimesNewRomanPSMT-49" transform="translate(1091.601562 0)"/>
     <use xlink:href="#TimesNewRomanPSMT-43" transform="translate(1124.902344 0)"/>
     <use xlink:href="#TimesNewRomanPSMT-31" transform="translate(1191.601562 0)"/>
     <use xlink:href="#TimesNewRomanPSMT-30" transform="translate(1241.601562 0)"/>
     <use xlink:href="#TimesNewRomanPSMT-5f" transform="translate(1291.601562 0)"/>
     <use xlink:href="#TimesNewRomanPSMT-74" transform="translate(1341.601562 0)"/>
     <use xlink:href="#TimesNewRomanPSMT-6f" transform="translate(1369.384766 0)"/>
     <use xlink:href="#TimesNewRomanPSMT-72" transform="translate(1419.384766 0)"/>
     <use xlink:href="#TimesNewRomanPSMT-63" transform="translate(1452.685547 0)"/>
     <use xlink:href="#TimesNewRomanPSMT-68" transform="translate(1497.070312 0)"/>
     <use xlink:href="#TimesNewRomanPSMT-5f" transform="translate(1547.070312 0)"/>
     <use xlink:href="#TimesNewRomanPSMT-6d" transform="translate(1597.070312 0)"/>
     <use xlink:href="#TimesNewRomanPSMT-6f" transform="translate(1674.853516 0)"/>
     <use xlink:href="#TimesNewRomanPSMT-64" transform="translate(1724.853516 0)"/>
     <use xlink:href="#TimesNewRomanPSMT-65" transform="translate(1774.853516 0)"/>
     <use xlink:href="#TimesNewRomanPSMT-6c" transform="translate(1819.238281 0)"/>
     <use xlink:href="#TimesNewRomanPSMT-5f" transform="translate(1847.021484 0)"/>
     <use xlink:href="#TimesNewRomanPSMT-28" transform="translate(1897.021484 0)"/>
     <use xlink:href="#TimesNewRomanPSMT-31" transform="translate(1930.322266 0)"/>
     <use xlink:href="#TimesNewRomanPSMT-30" transform="translate(1980.322266 0)"/>
     <use xlink:href="#TimesNewRomanPSMT-32" transform="translate(2030.322266 0)"/>
     <use xlink:href="#TimesNewRomanPSMT-34" transform="translate(2080.322266 0)"/>
     <use xlink:href="#TimesNewRomanPSMT-2b" transform="translate(2130.322266 0)"/>
     <use xlink:href="#TimesNewRomanPSMT-38" transform="translate(2186.71875 0)"/>
     <use xlink:href="#TimesNewRomanPSMT-31" transform="translate(2236.71875 0)"/>
     <use xlink:href="#TimesNewRomanPSMT-39" transform="translate(2286.71875 0)"/>
     <use xlink:href="#TimesNewRomanPSMT-32" transform="translate(2336.71875 0)"/>
     <use xlink:href="#TimesNewRomanPSMT-2d" transform="translate(2386.71875 0)"/>
     <use xlink:href="#TimesNewRomanPSMT-38" transform="translate(2420.019531 0)"/>
     <use xlink:href="#TimesNewRomanPSMT-31" transform="translate(2470.019531 0)"/>
     <use xlink:href="#TimesNewRomanPSMT-39" transform="translate(2520.019531 0)"/>
     <use xlink:href="#TimesNewRomanPSMT-32" transform="translate(2570.019531 0)"/>
     <use xlink:href="#TimesNewRomanPSMT-2e" transform="translate(2620.019531 0)"/>
     <use xlink:href="#TimesNewRomanPSMT-32" transform="translate(2645.019531 0)"/>
     <use xlink:href="#TimesNewRomanPSMT-2b" transform="translate(2695.019531 0)"/>
     <use xlink:href="#TimesNewRomanPSMT-31" transform="translate(2751.416016 0)"/>
     <use xlink:href="#TimesNewRomanPSMT-29" transform="translate(2801.416016 0)"/>
     <use xlink:href="#TimesNewRomanPSMT-5f" transform="translate(2834.716797 0)"/>
     <use xlink:href="#TimesNewRomanPSMT-63" transform="translate(2884.716797 0)"/>
     <use xlink:href="#TimesNewRomanPSMT-61" transform="translate(2929.101562 0)"/>
     <use xlink:href="#TimesNewRomanPSMT-74" transform="translate(2973.486328 0)"/>
     <use xlink:href="#TimesNewRomanPSMT-2d" transform="translate(3001.269531 0)"/>
     <use xlink:href="#TimesNewRomanPSMT-64" transform="translate(3034.570312 0)"/>
     <use xlink:href="#TimesNewRomanPSMT-6f" transform="translate(3084.570312 0)"/>
     <use xlink:href="#TimesNewRomanPSMT-67" transform="translate(3134.570312 0)"/>
    </g>
   </g>
   <g id="legend_1">
    <g id="patch_7">
     <path d="M 390.16475 213.014062 
L 590.72225 213.014062 
Q 595.12225 213.014062 595.12225 208.614062 
L 595.12225 148.560937 
Q 595.12225 144.160937 590.72225 144.160937 
L 390.16475 144.160937 
Q 385.76475 144.160937 385.76475 148.560937 
L 385.76475 208.614062 
Q 385.76475 213.014062 390.16475 213.014062 
z
" style="fill: #ffffff; opacity: 0.8; stroke: #cccccc; stroke-linejoin: miter"/>
    </g>
    <g id="line2d_23">
     <path d="M 394.56475 160.660937 
L 416.56475 160.660937 
L 438.56475 160.660937 
" style="fill: none; stroke: #ffa500; stroke-width: 1.5; stroke-linecap: square"/>
    </g>
    <g id="text_14">
     <!-- Training loss -->
     <g transform="translate(456.16475 168.360937) scale(0.22 -0.22)">
      <defs>
       <path id="TimesNewRomanPSMT-54" d="M 3703 4238 
L 3750 3244 
L 3631 3244 
Q 3597 3506 3538 3619 
Q 3441 3800 3280 3886 
Q 3119 3972 2856 3972 
L 2259 3972 
L 2259 734 
Q 2259 344 2344 247 
Q 2463 116 2709 116 
L 2856 116 
L 2856 0 
L 1059 0 
L 1059 116 
L 1209 116 
Q 1478 116 1591 278 
Q 1659 378 1659 734 
L 1659 3972 
L 1150 3972 
Q 853 3972 728 3928 
Q 566 3869 450 3700 
Q 334 3531 313 3244 
L 194 3244 
L 244 4238 
L 3703 4238 
z
" transform="scale(0.015625)"/>
      </defs>
      <use xlink:href="#TimesNewRomanPSMT-54"/>
      <use xlink:href="#TimesNewRomanPSMT-72" transform="translate(57.583984 0)"/>
      <use xlink:href="#TimesNewRomanPSMT-61" transform="translate(90.884766 0)"/>
      <use xlink:href="#TimesNewRomanPSMT-69" transform="translate(135.269531 0)"/>
      <use xlink:href="#TimesNewRomanPSMT-6e" transform="translate(163.052734 0)"/>
      <use xlink:href="#TimesNewRomanPSMT-69" transform="translate(213.052734 0)"/>
      <use xlink:href="#TimesNewRomanPSMT-6e" transform="translate(240.835938 0)"/>
      <use xlink:href="#TimesNewRomanPSMT-67" transform="translate(290.835938 0)"/>
      <use xlink:href="#TimesNewRomanPSMT-20" transform="translate(340.835938 0)"/>
      <use xlink:href="#TimesNewRomanPSMT-6c" transform="translate(365.835938 0)"/>
      <use xlink:href="#TimesNewRomanPSMT-6f" transform="translate(393.619141 0)"/>
      <use xlink:href="#TimesNewRomanPSMT-73" transform="translate(443.619141 0)"/>
      <use xlink:href="#TimesNewRomanPSMT-73" transform="translate(482.535156 0)"/>
     </g>
    </g>
    <g id="line2d_24">
     <path d="M 394.56475 191.808125 
L 416.56475 191.808125 
L 438.56475 191.808125 
" style="fill: none; stroke: #008000; stroke-width: 1.5; stroke-linecap: square"/>
    </g>
    <g id="text_15">
     <!-- Validation loss -->
     <g transform="translate(456.16475 199.508125) scale(0.22 -0.22)">
      <defs>
       <path id="TimesNewRomanPSMT-56" d="M 4544 4238 
L 4544 4122 
Q 4319 4081 4203 3978 
Q 4038 3825 3909 3509 
L 2431 -97 
L 2316 -97 
L 728 3556 
Q 606 3838 556 3900 
Q 478 3997 364 4051 
Q 250 4106 56 4122 
L 56 4238 
L 1788 4238 
L 1788 4122 
Q 1494 4094 1406 4022 
Q 1319 3950 1319 3838 
Q 1319 3681 1463 3350 
L 2541 866 
L 3541 3319 
Q 3688 3681 3688 3822 
Q 3688 3913 3597 3995 
Q 3506 4078 3291 4113 
Q 3275 4116 3238 4122 
L 3238 4238 
L 4544 4238 
z
" transform="scale(0.015625)"/>
      </defs>
      <use xlink:href="#TimesNewRomanPSMT-56"/>
      <use xlink:href="#TimesNewRomanPSMT-61" transform="translate(61.091797 0)"/>
      <use xlink:href="#TimesNewRomanPSMT-6c" transform="translate(105.476562 0)"/>
      <use xlink:href="#TimesNewRomanPSMT-69" transform="translate(133.259766 0)"/>
      <use xlink:href="#TimesNewRomanPSMT-64" transform="translate(161.042969 0)"/>
      <use xlink:href="#TimesNewRomanPSMT-61" transform="translate(211.042969 0)"/>
      <use xlink:href="#TimesNewRomanPSMT-74" transform="translate(255.427734 0)"/>
      <use xlink:href="#TimesNewRomanPSMT-69" transform="translate(283.210938 0)"/>
      <use xlink:href="#TimesNewRomanPSMT-6f" transform="translate(310.994141 0)"/>
      <use xlink:href="#TimesNewRomanPSMT-6e" transform="translate(360.994141 0)"/>
      <use xlink:href="#TimesNewRomanPSMT-20" transform="translate(410.994141 0)"/>
      <use xlink:href="#TimesNewRomanPSMT-6c" transform="translate(435.994141 0)"/>
      <use xlink:href="#TimesNewRomanPSMT-6f" transform="translate(463.777344 0)"/>
      <use xlink:href="#TimesNewRomanPSMT-73" transform="translate(513.777344 0)"/>
      <use xlink:href="#TimesNewRomanPSMT-73" transform="translate(552.693359 0)"/>
     </g>
    </g>
   </g>
  </g>
 </g>
 <defs>
  <clipPath id="p82e386c5d1">
   <rect x="249.00225" y="45.5315" width="357.12" height="266.112"/>
  </clipPath>
 </defs>
</svg>
