<?xml version="1.0" encoding="utf-8" standalone="no"?>
<!DOCTYPE svg PUBLIC "-//W3C//DTD SVG 1.1//EN"
  "http://www.w3.org/Graphics/SVG/1.1/DTD/svg11.dtd">
<svg xmlns:xlink="http://www.w3.org/1999/xlink" width="826.558875pt" height="383.265687pt" viewBox="0 0 826.558875 383.265687" xmlns="http://www.w3.org/2000/svg" version="1.1">
 <metadata>
  <rdf:RDF xmlns:dc="http://purl.org/dc/elements/1.1/" xmlns:cc="http://creativecommons.org/ns#" xmlns:rdf="http://www.w3.org/1999/02/22-rdf-syntax-ns#">
   <cc:Work>
    <dc:type rdf:resource="http://purl.org/dc/dcmitype/StillImage"/>
    <dc:date>2025-05-12T17:23:38.689890</dc:date>
    <dc:format>image/svg+xml</dc:format>
    <dc:creator>
     <cc:Agent>
      <dc:title>Matplotlib v3.10.1, https://matplotlib.org/</dc:title>
     </cc:Agent>
    </dc:creator>
   </cc:Work>
  </rdf:RDF>
 </metadata>
 <defs>
  <style type="text/css">*{stroke-linejoin: round; stroke-linecap: butt}</style>
 </defs>
 <g id="figure_1">
  <g id="patch_1">
   <path d="M -0 383.265687 
L 826.558875 383.265687 
L 826.558875 0 
L -0 0 
z
" style="fill: #ffffff"/>
  </g>
  <g id="axes_1">
   <g id="patch_2">
    <path d="M 234.719438 311.6435 
L 591.839438 311.6435 
L 591.839438 45.5315 
L 234.719438 45.5315 
z
" style="fill: #ffffff"/>
   </g>
   <g id="matplotlib.axis_1">
    <g id="xtick_1">
     <g id="line2d_1">
      <path d="M 234.719438 311.6435 
L 234.719438 45.5315 
" clip-path="url(#p60c6667148)" style="fill: none; stroke: #b0b0b0; stroke-opacity: 0.3; stroke-width: 0.8; stroke-linecap: square"/>
     </g>
     <g id="line2d_2">
      <defs>
       <path id="mc2837444a6" d="M 0 0 
L 0 3.5 
" style="stroke: #000000; stroke-width: 0.8"/>
      </defs>
      <g>
       <use xlink:href="#mc2837444a6" x="234.719438" y="311.6435" style="stroke: #000000; stroke-width: 0.8"/>
      </g>
     </g>
     <g id="text_1">
      <!-- 0.0 -->
      <g transform="translate(220.969438 333.91975) scale(0.22 -0.22)">
       <defs>
        <path id="TimesNewRomanPSMT-30" d="M 231 2094 
Q 231 2819 450 3342 
Q 669 3866 1031 4122 
Q 1313 4325 1613 4325 
Q 2100 4325 2488 3828 
Q 2972 3213 2972 2159 
Q 2972 1422 2759 906 
Q 2547 391 2217 158 
Q 1888 -75 1581 -75 
Q 975 -75 572 641 
Q 231 1244 231 2094 
z
M 844 2016 
Q 844 1141 1059 588 
Q 1238 122 1591 122 
Q 1759 122 1940 273 
Q 2122 425 2216 781 
Q 2359 1319 2359 2297 
Q 2359 3022 2209 3506 
Q 2097 3866 1919 4016 
Q 1791 4119 1609 4119 
Q 1397 4119 1231 3928 
Q 1006 3669 925 3112 
Q 844 2556 844 2016 
z
" transform="scale(0.015625)"/>
        <path id="TimesNewRomanPSMT-2e" d="M 800 606 
Q 947 606 1047 504 
Q 1147 403 1147 259 
Q 1147 116 1045 14 
Q 944 -88 800 -88 
Q 656 -88 554 14 
Q 453 116 453 259 
Q 453 406 554 506 
Q 656 606 800 606 
z
" transform="scale(0.015625)"/>
       </defs>
       <use xlink:href="#TimesNewRomanPSMT-30"/>
       <use xlink:href="#TimesNewRomanPSMT-2e" transform="translate(50 0)"/>
       <use xlink:href="#TimesNewRomanPSMT-30" transform="translate(75 0)"/>
      </g>
     </g>
    </g>
    <g id="xtick_2">
     <g id="line2d_3">
      <path d="M 376.613648 311.6435 
L 376.613648 45.5315 
" clip-path="url(#p60c6667148)" style="fill: none; stroke: #b0b0b0; stroke-opacity: 0.3; stroke-width: 0.8; stroke-linecap: square"/>
     </g>
     <g id="line2d_4">
      <g>
       <use xlink:href="#mc2837444a6" x="376.613648" y="311.6435" style="stroke: #000000; stroke-width: 0.8"/>
      </g>
     </g>
     <g id="text_2">
      <!-- 0.5 -->
      <g transform="translate(362.863648 333.91975) scale(0.22 -0.22)">
       <defs>
        <path id="TimesNewRomanPSMT-35" d="M 2778 4238 
L 2534 3706 
L 1259 3706 
L 981 3138 
Q 1809 3016 2294 2522 
Q 2709 2097 2709 1522 
Q 2709 1188 2573 903 
Q 2438 619 2231 419 
Q 2025 219 1772 97 
Q 1413 -75 1034 -75 
Q 653 -75 479 54 
Q 306 184 306 341 
Q 306 428 378 495 
Q 450 563 559 563 
Q 641 563 702 538 
Q 763 513 909 409 
Q 1144 247 1384 247 
Q 1750 247 2026 523 
Q 2303 800 2303 1197 
Q 2303 1581 2056 1914 
Q 1809 2247 1375 2428 
Q 1034 2569 447 2591 
L 1259 4238 
L 2778 4238 
z
" transform="scale(0.015625)"/>
       </defs>
       <use xlink:href="#TimesNewRomanPSMT-30"/>
       <use xlink:href="#TimesNewRomanPSMT-2e" transform="translate(50 0)"/>
       <use xlink:href="#TimesNewRomanPSMT-35" transform="translate(75 0)"/>
      </g>
     </g>
    </g>
    <g id="xtick_3">
     <g id="line2d_5">
      <path d="M 518.507858 311.6435 
L 518.507858 45.5315 
" clip-path="url(#p60c6667148)" style="fill: none; stroke: #b0b0b0; stroke-opacity: 0.3; stroke-width: 0.8; stroke-linecap: square"/>
     </g>
     <g id="line2d_6">
      <g>
       <use xlink:href="#mc2837444a6" x="518.507858" y="311.6435" style="stroke: #000000; stroke-width: 0.8"/>
      </g>
     </g>
     <g id="text_3">
      <!-- 1.0 -->
      <g transform="translate(504.757858 333.91975) scale(0.22 -0.22)">
       <defs>
        <path id="TimesNewRomanPSMT-31" d="M 750 3822 
L 1781 4325 
L 1884 4325 
L 1884 747 
Q 1884 391 1914 303 
Q 1944 216 2037 169 
Q 2131 122 2419 116 
L 2419 0 
L 825 0 
L 825 116 
Q 1125 122 1212 167 
Q 1300 213 1334 289 
Q 1369 366 1369 747 
L 1369 3034 
Q 1369 3497 1338 3628 
Q 1316 3728 1258 3775 
Q 1200 3822 1119 3822 
Q 1003 3822 797 3725 
L 750 3822 
z
" transform="scale(0.015625)"/>
       </defs>
       <use xlink:href="#TimesNewRomanPSMT-31"/>
       <use xlink:href="#TimesNewRomanPSMT-2e" transform="translate(50 0)"/>
       <use xlink:href="#TimesNewRomanPSMT-30" transform="translate(75 0)"/>
      </g>
     </g>
    </g>
    <g id="text_4">
     <!-- $\kappa  = \frac{ln(n)}{ln(d)}$ -->
     <g transform="translate(381.269438 364.185687) scale(0.22 -0.22)">
      <defs>
       <path id="STIXGeneral-Italic-3ba" d="M 979 1440 
L 998 1446 
Q 1850 2541 2464 2790 
Q 2547 2822 2630 2822 
Q 2797 2822 2886 2736 
Q 2976 2650 2976 2522 
Q 2976 2387 2893 2307 
Q 2810 2227 2682 2227 
Q 2605 2227 2502 2288 
Q 2400 2349 2336 2349 
Q 2170 2349 1990 2205 
Q 1811 2061 1414 1645 
L 2042 544 
Q 2202 262 2310 182 
Q 2419 102 2624 102 
L 2624 0 
Q 2374 -83 2182 -83 
Q 1786 -83 1555 326 
L 960 1350 
L 576 0 
L 90 0 
L 640 1978 
Q 730 2317 730 2406 
Q 730 2560 518 2560 
L 339 2560 
L 339 2650 
Q 678 2694 1306 2822 
L 1325 2803 
L 979 1440 
z
" transform="scale(0.015625)"/>
       <path id="STIXGeneral-Regular-3d" d="M 4077 2048 
L 307 2048 
L 307 2470 
L 4077 2470 
L 4077 2048 
z
M 4077 768 
L 307 768 
L 307 1190 
L 4077 1190 
L 4077 768 
z
" transform="scale(0.015625)"/>
       <path id="STIXGeneral-Italic-6c" d="M 1786 4339 
L 806 595 
Q 755 410 755 320 
Q 755 205 864 205 
Q 1037 205 1293 570 
L 1453 794 
L 1542 730 
Q 1254 275 1046 102 
Q 838 -70 576 -70 
Q 262 -70 262 288 
Q 262 397 288 480 
L 1165 3834 
Q 1184 3898 1184 3955 
Q 1184 4096 870 4096 
L 755 4096 
L 755 4198 
Q 1203 4250 1747 4371 
L 1786 4339 
z
" transform="scale(0.015625)"/>
       <path id="STIXGeneral-Italic-6e" d="M 2944 749 
L 3034 666 
Q 2707 218 2534 80 
Q 2362 -58 2138 -58 
Q 2010 -58 1923 28 
Q 1837 115 1837 288 
Q 1837 390 1939 768 
L 2221 1805 
Q 2310 2150 2310 2310 
Q 2310 2496 2157 2496 
Q 1971 2496 1750 2275 
Q 1530 2054 1210 1587 
Q 998 1274 899 1024 
Q 800 774 570 0 
L 90 0 
L 704 2240 
Q 717 2304 717 2349 
Q 717 2445 630 2480 
Q 544 2515 301 2522 
L 301 2624 
Q 550 2675 857 2729 
Q 1165 2784 1338 2822 
L 1363 2810 
L 934 1414 
Q 1408 2170 1753 2496 
Q 2099 2822 2413 2822 
Q 2611 2822 2720 2716 
Q 2829 2611 2829 2432 
Q 2829 2272 2765 2048 
L 2406 749 
Q 2317 429 2317 358 
Q 2317 243 2419 243 
Q 2541 243 2810 582 
Q 2854 634 2944 749 
z
" transform="scale(0.015625)"/>
       <path id="STIXGeneral-Regular-28" d="M 1946 -1030 
L 1869 -1133 
Q 1126 -710 716 32 
Q 307 774 307 1613 
Q 307 3386 1888 4326 
L 1946 4224 
Q 1293 3667 1075 3126 
Q 858 2586 858 1632 
Q 858 685 1082 96 
Q 1306 -493 1946 -1030 
z
" transform="scale(0.015625)"/>
       <path id="STIXGeneral-Regular-29" d="M 186 4224 
L 262 4326 
Q 992 3891 1408 3148 
Q 1824 2406 1824 1581 
Q 1824 -166 243 -1133 
L 186 -1030 
Q 845 -486 1059 54 
Q 1274 595 1274 1562 
Q 1274 2534 1059 3120 
Q 845 3706 186 4224 
z
" transform="scale(0.015625)"/>
       <path id="STIXGeneral-Italic-64" d="M 3334 4371 
L 3373 4333 
L 3123 3360 
L 2739 1958 
Q 2323 429 2323 384 
Q 2323 256 2438 256 
Q 2522 256 2614 336 
Q 2707 416 2963 710 
L 3040 646 
Q 2547 -83 2099 -83 
Q 1978 -83 1907 -6 
Q 1837 70 1837 205 
Q 1837 397 1920 774 
Q 1645 307 1379 118 
Q 1114 -70 781 -70 
Q 461 -70 278 125 
Q 96 320 96 678 
Q 96 1440 713 2131 
Q 1331 2822 1965 2822 
Q 2163 2822 2256 2732 
Q 2349 2643 2381 2451 
L 2387 2451 
L 2675 3494 
Q 2765 3808 2765 3949 
Q 2765 4051 2694 4076 
Q 2624 4102 2355 4115 
L 2355 4224 
Q 2848 4269 3334 4371 
z
M 2278 2310 
Q 2278 2477 2185 2576 
Q 2093 2675 1978 2675 
Q 1677 2675 1395 2381 
Q 1075 2042 864 1571 
Q 653 1101 653 704 
Q 653 486 752 361 
Q 851 237 1024 237 
Q 1312 237 1606 550 
Q 1901 864 2089 1350 
Q 2278 1837 2278 2310 
z
" transform="scale(0.015625)"/>
      </defs>
      <use xlink:href="#STIXGeneral-Italic-3ba" transform="translate(0 0.003125)"/>
      <use xlink:href="#STIXGeneral-Regular-3d" transform="translate(58.83999 0.003125)"/>
      <use xlink:href="#STIXGeneral-Italic-6c" transform="translate(141.779971 50.192188) scale(0.7)"/>
      <use xlink:href="#STIXGeneral-Italic-6e" transform="translate(161.239963 50.192188) scale(0.7)"/>
      <use xlink:href="#STIXGeneral-Regular-28" transform="translate(196.239952 50.192188) scale(0.7)"/>
      <use xlink:href="#STIXGeneral-Italic-6e" transform="translate(219.549944 50.192188) scale(0.7)"/>
      <use xlink:href="#STIXGeneral-Regular-29" transform="translate(254.549933 50.192188) scale(0.7)"/>
      <use xlink:href="#STIXGeneral-Italic-6c" transform="translate(141.779971 -41.257812) scale(0.7)"/>
      <use xlink:href="#STIXGeneral-Italic-6e" transform="translate(161.239963 -41.257812) scale(0.7)"/>
      <use xlink:href="#STIXGeneral-Regular-28" transform="translate(196.239952 -41.257812) scale(0.7)"/>
      <use xlink:href="#STIXGeneral-Italic-64" transform="translate(219.549944 -41.257812) scale(0.7)"/>
      <use xlink:href="#STIXGeneral-Regular-29" transform="translate(254.549933 -41.257812) scale(0.7)"/>
      <path d="M 141.779971 12.8 
L 141.779971 19.05 
L 277.859924 19.05 
L 277.859924 12.8 
L 141.779971 12.8 
z
"/>
     </g>
    </g>
   </g>
   <g id="matplotlib.axis_2">
    <g id="ytick_1">
     <g id="line2d_7">
      <path d="M 234.719438 311.6435 
L 591.839438 311.6435 
" clip-path="url(#p60c6667148)" style="fill: none; stroke: #b0b0b0; stroke-opacity: 0.3; stroke-width: 0.8; stroke-linecap: square"/>
     </g>
     <g id="line2d_8">
      <defs>
       <path id="m4d6aa706df" d="M 0 0 
L -3.5 0 
" style="stroke: #000000; stroke-width: 0.8"/>
      </defs>
      <g>
       <use xlink:href="#m4d6aa706df" x="234.719438" y="311.6435" style="stroke: #000000; stroke-width: 0.8"/>
      </g>
     </g>
     <g id="text_5">
      <!-- 0.00 -->
      <g transform="translate(189.219438 319.281625) scale(0.22 -0.22)">
       <use xlink:href="#TimesNewRomanPSMT-30"/>
       <use xlink:href="#TimesNewRomanPSMT-2e" transform="translate(50 0)"/>
       <use xlink:href="#TimesNewRomanPSMT-30" transform="translate(75 0)"/>
       <use xlink:href="#TimesNewRomanPSMT-30" transform="translate(125 0)"/>
      </g>
     </g>
    </g>
    <g id="ytick_2">
     <g id="line2d_9">
      <path d="M 234.719438 242.785449 
L 591.839438 242.785449 
" clip-path="url(#p60c6667148)" style="fill: none; stroke: #b0b0b0; stroke-opacity: 0.3; stroke-width: 0.8; stroke-linecap: square"/>
     </g>
     <g id="line2d_10">
      <g>
       <use xlink:href="#m4d6aa706df" x="234.719438" y="242.785449" style="stroke: #000000; stroke-width: 0.8"/>
      </g>
     </g>
     <g id="text_6">
      <!-- 0.05 -->
      <g transform="translate(189.219438 250.423574) scale(0.22 -0.22)">
       <use xlink:href="#TimesNewRomanPSMT-30"/>
       <use xlink:href="#TimesNewRomanPSMT-2e" transform="translate(50 0)"/>
       <use xlink:href="#TimesNewRomanPSMT-30" transform="translate(75 0)"/>
       <use xlink:href="#TimesNewRomanPSMT-35" transform="translate(125 0)"/>
      </g>
     </g>
    </g>
    <g id="ytick_3">
     <g id="line2d_11">
      <path d="M 234.719438 173.927399 
L 591.839438 173.927399 
" clip-path="url(#p60c6667148)" style="fill: none; stroke: #b0b0b0; stroke-opacity: 0.3; stroke-width: 0.8; stroke-linecap: square"/>
     </g>
     <g id="line2d_12">
      <g>
       <use xlink:href="#m4d6aa706df" x="234.719438" y="173.927399" style="stroke: #000000; stroke-width: 0.8"/>
      </g>
     </g>
     <g id="text_7">
      <!-- 0.10 -->
      <g transform="translate(189.219438 181.565524) scale(0.22 -0.22)">
       <use xlink:href="#TimesNewRomanPSMT-30"/>
       <use xlink:href="#TimesNewRomanPSMT-2e" transform="translate(50 0)"/>
       <use xlink:href="#TimesNewRomanPSMT-31" transform="translate(75 0)"/>
       <use xlink:href="#TimesNewRomanPSMT-30" transform="translate(125 0)"/>
      </g>
     </g>
    </g>
    <g id="ytick_4">
     <g id="line2d_13">
      <path d="M 234.719438 105.069348 
L 591.839438 105.069348 
" clip-path="url(#p60c6667148)" style="fill: none; stroke: #b0b0b0; stroke-opacity: 0.3; stroke-width: 0.8; stroke-linecap: square"/>
     </g>
     <g id="line2d_14">
      <g>
       <use xlink:href="#m4d6aa706df" x="234.719438" y="105.069348" style="stroke: #000000; stroke-width: 0.8"/>
      </g>
     </g>
     <g id="text_8">
      <!-- 0.15 -->
      <g transform="translate(189.219438 112.707473) scale(0.22 -0.22)">
       <use xlink:href="#TimesNewRomanPSMT-30"/>
       <use xlink:href="#TimesNewRomanPSMT-2e" transform="translate(50 0)"/>
       <use xlink:href="#TimesNewRomanPSMT-31" transform="translate(75 0)"/>
       <use xlink:href="#TimesNewRomanPSMT-35" transform="translate(125 0)"/>
      </g>
     </g>
    </g>
    <g id="text_9">
     <!-- Loss -->
     <g transform="translate(180.5135 199.368906) rotate(-90) scale(0.22 -0.22)">
      <defs>
       <path id="TimesNewRomanPSMT-4c" d="M 3669 1172 
L 3772 1150 
L 3409 0 
L 128 0 
L 128 116 
L 288 116 
Q 556 116 672 291 
Q 738 391 738 753 
L 738 3488 
Q 738 3884 650 3984 
Q 528 4122 288 4122 
L 128 4122 
L 128 4238 
L 2047 4238 
L 2047 4122 
Q 1709 4125 1573 4059 
Q 1438 3994 1388 3894 
Q 1338 3794 1338 3416 
L 1338 753 
Q 1338 494 1388 397 
Q 1425 331 1503 300 
Q 1581 269 1991 269 
L 2300 269 
Q 2788 269 2984 341 
Q 3181 413 3343 595 
Q 3506 778 3669 1172 
z
" transform="scale(0.015625)"/>
       <path id="TimesNewRomanPSMT-6f" d="M 1600 2947 
Q 2250 2947 2644 2453 
Q 2978 2031 2978 1484 
Q 2978 1100 2793 706 
Q 2609 313 2286 112 
Q 1963 -88 1566 -88 
Q 919 -88 538 428 
Q 216 863 216 1403 
Q 216 1797 411 2186 
Q 606 2575 925 2761 
Q 1244 2947 1600 2947 
z
M 1503 2744 
Q 1338 2744 1170 2645 
Q 1003 2547 900 2300 
Q 797 2053 797 1666 
Q 797 1041 1045 587 
Q 1294 134 1700 134 
Q 2003 134 2200 384 
Q 2397 634 2397 1244 
Q 2397 2006 2069 2444 
Q 1847 2744 1503 2744 
z
" transform="scale(0.015625)"/>
       <path id="TimesNewRomanPSMT-73" d="M 2050 2947 
L 2050 1972 
L 1947 1972 
Q 1828 2431 1642 2597 
Q 1456 2763 1169 2763 
Q 950 2763 815 2647 
Q 681 2531 681 2391 
Q 681 2216 781 2091 
Q 878 1963 1175 1819 
L 1631 1597 
Q 2266 1288 2266 781 
Q 2266 391 1970 151 
Q 1675 -88 1309 -88 
Q 1047 -88 709 6 
Q 606 38 541 38 
Q 469 38 428 -44 
L 325 -44 
L 325 978 
L 428 978 
Q 516 541 762 319 
Q 1009 97 1316 97 
Q 1531 97 1667 223 
Q 1803 350 1803 528 
Q 1803 744 1651 891 
Q 1500 1038 1047 1263 
Q 594 1488 453 1669 
Q 313 1847 313 2119 
Q 313 2472 555 2709 
Q 797 2947 1181 2947 
Q 1350 2947 1591 2875 
Q 1750 2828 1803 2828 
Q 1853 2828 1881 2850 
Q 1909 2872 1947 2947 
L 2050 2947 
z
" transform="scale(0.015625)"/>
      </defs>
      <use xlink:href="#TimesNewRomanPSMT-4c"/>
      <use xlink:href="#TimesNewRomanPSMT-6f" transform="translate(61.083984 0)"/>
      <use xlink:href="#TimesNewRomanPSMT-73" transform="translate(111.083984 0)"/>
      <use xlink:href="#TimesNewRomanPSMT-73" transform="translate(150 0)"/>
     </g>
    </g>
   </g>
   <g id="line2d_15">
    <path d="M 234.719438 139.444751 
L 332.948711 145.370553 
L 359.425528 139.547194 
L 375.371923 148.860149 
L 386.819162 138.949511 
L 395.75519 158.201413 
L 403.085978 159.330207 
L 409.301361 160.623716 
L 414.696365 154.074098 
L 419.462521 168.435559 
L 423.731242 158.608566 
L 427.596618 165.055957 
L 431.128335 162.134802 
L 434.379447 168.228653 
L 437.391279 177.401519 
L 440.196652 166.543895 
L 442.822064 177.588314 
L 445.289218 182.870702 
L 447.616115 184.220962 
L 449.817846 181.866851 
L 451.907193 169.155897 
L 453.895074 180.399332 
L 455.790889 170.997776 
L 457.60279 171.579586 
L 459.337892 186.222999 
L 461.002441 169.506022 
L 462.601951 180.119032 
L 464.141314 180.848246 
L 465.624891 185.02196 
L 467.056583 181.687751 
L 468.439897 190.605671 
L 469.777997 185.22904 
L 471.073745 192.935957 
L 472.329739 181.361073 
L 473.548347 193.261548 
L 474.731729 190.922059 
L 475.881866 183.894304 
L 477.000574 184.704834 
L 478.089526 191.039615 
L 479.150264 190.289726 
L 480.184212 194.29418 
L 481.19269 175.133772 
L 482.176924 193.728685 
L 483.138052 195.188026 
L 484.077133 200.578222 
L 484.995157 174.866944 
L 485.893047 202.920308 
L 486.771668 193.259229 
L 487.631828 202.546861 
L 488.474289 193.687457 
L 489.299763 201.8721 
L 490.108922 195.391782 
L 490.902399 202.204935 
L 491.68079 196.083688 
L 492.444658 199.239854 
L 493.194535 198.977715 
L 493.930924 195.904076 
L 494.654302 203.799348 
L 495.36512 201.318908 
L 496.063808 197.860227 
L 496.750772 199.630159 
L 497.4264 198.684034 
L 498.091059 207.780921 
L 498.745101 204.998438 
L 499.388858 205.892212 
L 500.022649 211.754942 
L 500.646779 202.642357 
L 501.261537 209.167771 
L 502.464034 213.642481 
L 503.052293 208.642251 
L 503.632219 211.328633 
L 504.204046 210.509566 
L 504.767995 207.7923 
L 505.324282 209.936427 
L 505.873112 213.050636 
L 506.414682 217.616912 
L 506.949182 212.553333 
L 507.476793 213.302504 
L 507.997692 217.308426 
L 508.512047 213.946658 
L 509.02002 216.782814 
L 509.521767 210.067968 
L 510.01744 215.768415 
L 510.507184 202.48815 
L 510.991138 222.959078 
L 511.469439 220.325088 
L 511.942217 224.958273 
L 512.409597 221.462245 
L 512.871703 203.502446 
L 513.32865 223.660691 
L 513.780554 221.983711 
L 514.227524 221.91203 
L 514.669668 223.329713 
L 515.107087 230.899107 
L 515.539883 218.913212 
L 515.968151 210.938215 
L 516.391986 193.576858 
L 516.811478 232.086095 
L 517.226716 226.153023 
L 517.637784 231.592137 
L 518.044766 234.252292 
L 518.447743 227.698277 
L 518.846792 237.676558 
L 519.241988 222.913039 
L 519.633407 199.525049 
L 520.021119 234.499743 
L 520.405194 237.137931 
L 520.785699 230.89016 
L 521.1627 239.397156 
L 521.536262 214.580058 
L 521.906446 240.999798 
L 522.273313 235.150864 
L 522.636922 169.811902 
L 522.997329 151.0013 
L 523.354592 239.281426 
L 524.059899 241.55474 
L 524.408048 247.018253 
L 524.753262 234.625057 
L 525.095589 248.596552 
L 525.435077 227.600529 
L 525.771774 235.818673 
L 526.105724 234.544726 
L 526.436972 251.038566 
L 526.765562 233.928805 
L 527.091535 183.257631 
L 527.414934 244.93271 
L 527.735798 246.690872 
L 528.37008 241.779915 
L 528.683573 233.925896 
L 528.994685 135.001993 
L 529.30345 226.819889 
L 529.609904 251.942457 
L 529.914081 252.534994 
L 530.216015 243.194299 
L 530.515739 255.612707 
L 530.813284 254.490479 
L 531.108682 197.407415 
L 531.401965 176.849383 
L 531.693161 248.501215 
L 531.982301 248.571305 
L 532.269414 258.72273 
L 532.554527 250.263989 
L 533.118865 256.890727 
L 533.398143 257.42582 
L 533.675529 255.784798 
L 533.951049 239.941119 
L 534.224727 191.640376 
L 534.496587 237.271401 
L 534.766655 262.580118 
L 535.034952 249.805354 
L 535.301503 269.982097 
L 535.829454 228.502071 
L 536.090899 107.82769 
L 536.608831 253.35857 
L 537.120294 263.282378 
L 537.373649 261.648482 
L 537.625446 263.890952 
L 537.875704 264.848373 
L 538.124441 273.80535 
L 538.371677 252.900894 
L 538.617428 203.284489 
L 538.861713 180.213963 
L 539.104549 213.666716 
L 539.345954 263.889244 
L 539.585943 259.378775 
L 539.824533 270.508583 
L 540.061742 265.928342 
L 540.297584 263.966291 
L 540.532075 273.732956 
L 540.765231 272.475755 
L 540.997066 240.41077 
L 541.227597 170.27872 
L 541.456836 252.620686 
L 541.684799 271.596546 
L 542.136952 272.332052 
L 542.36117 275.805146 
L 542.584166 272.607084 
L 542.805955 273.946286 
L 543.026548 283.362883 
L 543.245959 274.956529 
L 543.464201 274.536409 
L 543.681286 283.50976 
L 543.897225 283.879058 
L 544.112032 240.297462 
L 544.325717 121.150363 
L 544.749771 273.948787 
L 544.960162 286.244471 
L 545.169478 285.754433 
L 545.377729 282.921134 
L 545.584926 271.927385 
L 545.79108 287.198737 
L 545.996201 288.43325 
L 546.403385 289.128355 
L 546.605469 286.920171 
L 546.80656 165.205188 
L 547.006668 208.702625 
L 547.205802 278.63353 
L 547.403973 286.980909 
L 547.60119 288.343528 
L 547.797461 288.649696 
L 547.992795 294.335732 
L 548.187202 292.720126 
L 548.380691 272.874391 
L 548.573269 73.809329 
L 548.955729 259.350204 
L 549.145627 284.89455 
L 549.334649 286.030319 
L 549.522802 293.237047 
L 549.710095 293.50237 
L 549.896534 296.852115 
L 550.082128 296.813811 
L 550.266885 277.320757 
L 550.450812 296.466933 
L 550.633916 299.321797 
L 550.816205 296.814351 
L 550.997686 298.04229 
L 551.178366 300.799659 
L 551.358253 301.325408 
L 551.537352 299.939371 
L 551.715671 296.598405 
L 551.893217 149.713537 
L 552.069997 185.991088 
L 552.246016 171.20615 
L 552.421282 263.022008 
L 552.595801 292.205543 
L 552.942622 297.775121 
L 553.114937 276.885692 
L 553.28653 199.320225 
L 553.797036 297.962875 
L 554.133871 298.058183 
L 554.301255 299.478844 
L 554.467957 302.45208 
L 554.633984 301.119865 
L 554.799339 302.296069 
L 554.96403 301.922685 
L 555.128061 302.069455 
L 555.291437 301.908757 
L 555.454164 301.389175 
L 555.616247 304.762225 
L 555.77769 304.442782 
L 555.9385 301.857638 
L 556.09868 305.414692 
L 556.258236 306.112767 
L 556.417173 302.904923 
L 556.575495 304.459313 
L 556.733207 304.233656 
L 556.890314 306.072696 
L 557.046821 304.510308 
L 557.202731 306.893994 
L 557.35805 306.478144 
L 557.512782 306.547022 
L 557.666932 305.461231 
L 557.820503 306.220254 
L 557.9735 306.122289 
L 558.125928 306.316609 
L 558.27779 306.812669 
L 558.429091 307.930441 
L 558.579835 307.505589 
L 558.730026 305.483642 
L 558.879668 305.368703 
L 559.177322 307.820802 
L 559.325341 305.889815 
L 559.472827 307.2047 
L 559.619783 306.815343 
L 559.912123 307.934799 
L 560.202391 307.143045 
L 560.346756 307.242921 
L 560.776823 308.76583 
L 560.919181 306.307933 
L 561.20242 309.12709 
L 561.343308 308.559826 
L 561.483713 307.38265 
L 561.623638 309.645969 
L 561.763087 308.359194 
L 561.902062 308.127048 
L 562.178605 307.170021 
L 562.453292 309.399078 
L 562.589948 307.083373 
L 562.861899 309.579458 
L 562.9972 308.187207 
L 563.132055 308.002925 
L 563.266468 308.871233 
L 563.400441 307.420579 
L 563.533976 308.245544 
L 563.799748 307.940846 
L 563.93199 308.190037 
L 564.063806 310.01493 
L 564.456727 308.717349 
L 564.586867 307.999102 
L 564.845913 309.200069 
L 564.974824 309.393381 
L 565.231434 308.526368 
L 565.359138 308.830355 
L 565.486446 308.830749 
L 565.613359 307.782084 
L 565.739879 310.236936 
L 565.86601 308.692397 
L 565.991754 309.130286 
L 566.242088 308.230596 
L 566.366683 308.891666 
L 566.490901 307.890272 
L 566.614742 309.584839 
L 566.861308 308.223402 
L 566.984036 308.989648 
L 567.106397 308.983734 
L 567.228393 308.655887 
L 567.350028 310.668619 
L 567.471301 309.009889 
L 567.592217 308.939487 
L 567.832982 310.079189 
L 568.07234 308.047313 
L 568.191496 308.305737 
L 568.310307 309.747657 
L 568.428773 308.023589 
L 568.546898 309.370575 
L 568.664683 308.401081 
L 568.78213 309.444514 
L 568.899242 308.768797 
L 569.132464 310.100785 
L 569.248578 308.425731 
L 569.364365 309.118239 
L 569.479825 308.079827 
L 569.59496 308.389995 
L 569.709772 310.132832 
L 569.824263 308.734153 
L 569.938435 309.852428 
L 570.165828 307.098995 
L 570.279053 309.513286 
L 570.391965 308.767732 
L 570.504567 309.520735 
L 570.728846 308.794707 
L 570.840527 309.137219 
L 570.951904 308.855185 
L 571.062978 307.481489 
L 571.173752 309.519071 
L 571.284227 308.487794 
L 571.394405 308.830577 
L 571.613875 309.897604 
L 571.72317 309.219945 
L 571.832175 307.819077 
L 571.94089 310.250453 
L 572.049317 309.226588 
L 572.372885 309.922575 
L 572.480176 307.870805 
L 572.587186 309.939677 
L 572.800371 308.194073 
L 573.012451 309.943476 
L 573.118081 308.54929 
L 573.223439 309.600583 
L 573.328526 308.557342 
L 573.433344 309.960677 
L 573.642179 307.891103 
L 573.849955 309.601338 
L 573.953448 309.652738 
L 574.159654 307.920026 
L 574.262368 309.981076 
L 574.568975 308.971981 
L 574.670669 308.949462 
L 574.772112 310.005042 
L 574.873303 309.984117 
L 574.974245 309.313429 
L 575.074939 309.647783 
L 575.175385 307.211159 
L 575.275586 308.950948 
L 575.375542 308.287119 
L 575.574725 309.670046 
L 575.673955 309.657202 
L 575.772944 309.313198 
L 575.871695 310.022286 
L 575.970208 308.632075 
L 576.166526 310.003682 
L 576.264333 308.621847 
L 576.361907 308.635672 
L 576.459249 310.362618 
L 576.55636 307.9733 
L 576.653242 310.007974 
L 576.749894 308.639582 
L 576.942518 310.032138 
L 577.038491 310.374237 
L 577.229764 309.34345 
L 577.325067 310.03691 
L 577.420148 309.359836 
L 577.515009 309.731092 
L 577.609651 309.702561 
L 577.798281 309.019664 
L 577.892271 309.695665 
L 578.079606 308.674482 
L 578.266088 310.043916 
L 578.359011 308.005065 
L 578.451724 309.370301 
L 578.544228 309.053284 
L 578.636523 309.356798 
L 578.72861 309.021585 
L 578.820491 310.389689 
L 578.912166 309.372678 
L 579.003636 309.731975 
L 579.094902 308.357263 
L 579.185966 310.062552 
L 579.276827 309.039594 
L 579.367487 310.062611 
L 579.638268 308.683841 
L 579.907271 310.055471 
L 579.996547 309.730589 
L 580.085629 310.081255 
L 580.174517 309.389719 
L 580.263213 310.066543 
L 580.351717 309.375815 
L 580.528154 310.093462 
L 580.703833 309.062231 
L 580.791391 309.401425 
L 580.878762 310.077282 
L 581.139762 308.381344 
L 581.226393 308.742554 
L 581.312842 310.452607 
L 581.399108 309.409868 
L 581.571098 310.776304 
L 581.656822 308.737548 
L 581.742368 309.754499 
L 581.827735 309.739188 
L 581.912924 309.74358 
L 581.997937 307.713324 
L 582.082773 309.08052 
L 582.167434 309.073705 
L 582.251921 309.774795 
L 582.420372 308.772603 
L 582.504338 310.445527 
L 582.588133 308.042649 
L 582.671756 308.723545 
L 582.755209 310.093211 
L 582.838493 309.045629 
L 582.921607 310.440488 
L 583.087331 309.797014 
L 583.169942 310.441038 
L 583.252386 309.409361 
L 583.334665 309.811397 
L 583.416779 309.754801 
L 583.498729 308.384022 
L 583.580515 308.728652 
L 583.662138 309.401201 
L 583.743598 308.710933 
L 583.987012 310.530787 
L 584.148487 309.409495 
L 584.228987 310.427413 
L 584.309328 309.068951 
L 584.389512 310.004449 
L 584.46954 309.415752 
L 584.549411 310.796827 
L 584.629127 307.691722 
L 584.708688 308.264643 
L 584.788094 308.572245 
L 584.867347 309.764004 
L 584.946447 308.05259 
L 585.182834 310.783523 
L 585.261327 309.656137 
L 585.33967 309.770086 
L 585.417863 310.799499 
L 585.495907 310.445535 
L 585.573803 310.398173 
L 585.651551 310.103056 
L 585.729152 310.462524 
L 585.806605 309.420434 
L 585.883913 310.131888 
L 585.961075 309.784535 
L 586.038091 310.39385 
L 586.268276 308.404884 
L 586.344717 310.46949 
L 586.421016 309.381383 
L 586.573189 310.816773 
L 586.649064 309.096512 
L 586.724798 309.10582 
L 586.800393 309.442381 
L 586.951164 310.475108 
L 587.251052 309.102591 
L 587.325682 309.449775 
L 587.474536 308.414455 
L 587.54876 309.762892 
L 587.62285 309.430111 
L 587.696806 309.108255 
L 587.770628 306.726534 
L 587.917875 309.792899 
L 588.064595 309.768991 
L 588.21079 310.145241 
L 588.356466 309.092363 
L 588.501625 310.481171 
L 588.574012 310.098074 
L 588.718403 310.485124 
L 588.790408 309.068717 
L 588.862286 310.115822 
L 588.934039 309.426459 
L 589.005666 309.803551 
L 589.077168 309.468332 
L 589.148545 308.411916 
L 589.290928 310.802678 
L 589.361934 310.157975 
L 589.432817 309.454427 
L 589.574215 310.821091 
L 589.785402 309.123621 
L 589.855557 309.105546 
L 589.995506 308.432191 
L 590.134978 310.498965 
L 590.204536 309.468871 
L 590.273977 310.839334 
L 590.412505 308.792491 
L 590.619423 310.165177 
L 590.688163 309.129803 
L 590.756789 310.504284 
L 590.893696 309.110047 
L 590.961978 309.132018 
L 591.030147 309.468072 
L 591.166145 310.853064 
L 591.233974 309.494616 
L 591.301692 310.158635 
L 591.369298 309.811036 
L 591.436792 308.768877 
L 591.571448 310.564307 
L 591.705662 309.106329 
L 591.772604 309.794846 
L 591.839438 310.790439 
L 591.839438 310.790439 
" clip-path="url(#p60c6667148)" style="fill: none; stroke: #ffa500; stroke-width: 1.5; stroke-linecap: square"/>
   </g>
   <g id="line2d_16">
    <path d="M 234.719438 139.521429 
L 332.948711 145.685565 
L 359.425528 142.062438 
L 375.371923 150.943933 
L 386.819162 135.785332 
L 395.75519 158.198601 
L 403.085978 159.563247 
L 409.301361 161.951413 
L 414.696365 152.216807 
L 419.462521 168.410174 
L 423.731242 160.253707 
L 427.596618 167.853328 
L 431.128335 165.496078 
L 434.379447 174.062242 
L 437.391279 179.071666 
L 440.196652 170.065032 
L 442.822064 176.454451 
L 445.289218 178.240871 
L 447.616115 182.57304 
L 449.817846 183.379876 
L 451.907193 162.801159 
L 453.895074 179.579711 
L 455.790889 171.947153 
L 457.60279 175.000876 
L 459.337892 182.990844 
L 461.002441 167.124309 
L 462.601951 183.388505 
L 464.141314 181.338982 
L 465.624891 184.306166 
L 467.056583 183.77015 
L 468.439897 184.640777 
L 469.777997 181.341434 
L 471.073745 189.856039 
L 472.329739 179.219932 
L 473.548347 190.441552 
L 474.731729 189.13295 
L 475.881866 177.097455 
L 477.000574 185.138633 
L 478.089526 189.557751 
L 479.150264 187.945219 
L 480.184212 191.397978 
L 481.19269 174.603584 
L 482.176924 193.673236 
L 483.138052 188.435 
L 484.077133 194.995926 
L 484.995157 171.302682 
L 485.893047 195.652587 
L 486.771668 188.932909 
L 487.631828 195.127027 
L 488.474289 190.158081 
L 489.299763 195.395055 
L 490.108922 190.742374 
L 490.902399 196.058909 
L 491.68079 191.575036 
L 492.444658 194.437357 
L 493.194535 192.885536 
L 493.930924 189.926611 
L 494.654302 198.353703 
L 495.36512 189.394104 
L 496.063808 188.674504 
L 496.750772 190.824921 
L 497.4264 191.069853 
L 498.091059 199.248801 
L 498.745101 195.382896 
L 499.388858 195.07285 
L 500.022649 196.027994 
L 500.646779 192.208641 
L 501.261537 193.213559 
L 501.8672 194.632658 
L 502.464034 197.783375 
L 503.052293 197.636135 
L 503.632219 197.171799 
L 504.204046 194.712527 
L 504.767995 194.312085 
L 505.324282 195.477766 
L 505.873112 195.965855 
L 506.414682 197.71114 
L 506.949182 196.954869 
L 507.476793 197.30683 
L 507.997692 199.66368 
L 508.512047 195.290786 
L 509.02002 198.85944 
L 509.521767 192.459196 
L 510.01744 196.701051 
L 510.507184 186.44189 
L 510.991138 202.128832 
L 511.469439 199.186488 
L 511.942217 198.231776 
L 512.409597 197.000847 
L 512.871703 187.725169 
L 513.32865 201.196057 
L 513.780554 193.223717 
L 514.227524 197.057455 
L 514.669668 199.165577 
L 515.107087 203.058611 
L 515.968151 187.064804 
L 516.391986 182.759507 
L 516.811478 205.022202 
L 517.226716 196.5782 
L 517.637784 200.954244 
L 518.044766 201.740805 
L 518.447743 195.774196 
L 518.846792 204.63243 
L 519.633407 177.702084 
L 520.021119 205.505786 
L 520.405194 204.193788 
L 520.785699 196.248249 
L 521.1627 201.602799 
L 521.536262 187.394386 
L 521.906446 206.858889 
L 522.273313 195.208527 
L 522.636922 150.406295 
L 522.997329 134.149436 
L 523.354592 206.632026 
L 523.708765 206.770924 
L 524.059899 203.056066 
L 524.408048 205.258751 
L 524.753262 197.758719 
L 525.095589 204.053145 
L 525.435077 191.653704 
L 525.771774 197.97686 
L 526.105724 196.810214 
L 526.436972 205.980156 
L 526.765562 194.284771 
L 527.091535 152.326124 
L 527.414934 205.971702 
L 527.735798 202.791957 
L 528.054167 196.31445 
L 528.37008 195.393865 
L 528.683573 186.544076 
L 528.994685 115.42016 
L 529.30345 196.814852 
L 529.609904 207.574374 
L 529.914081 205.077968 
L 530.216015 199.730262 
L 530.515739 206.744431 
L 530.813284 200.301287 
L 531.108682 166.095731 
L 531.401965 157.586615 
L 531.693161 207.044062 
L 531.982301 200.91314 
L 532.269414 205.979459 
L 532.554527 198.603458 
L 532.837668 200.739119 
L 533.118865 197.933981 
L 533.398143 200.481515 
L 533.675529 199.089063 
L 533.951049 190.623422 
L 534.224727 158.69455 
L 534.496587 197.816322 
L 534.766655 208.644703 
L 535.034952 199.567476 
L 535.301503 208.447883 
L 535.566329 191.529356 
L 535.829454 189.13491 
L 536.090899 88.129829 
L 536.350684 164.629197 
L 536.608831 206.455255 
L 536.865361 204.891932 
L 537.120294 207.451308 
L 537.373649 204.291397 
L 537.625446 204.360297 
L 537.875704 204.080448 
L 538.124441 207.085228 
L 538.861713 153.064039 
L 539.345954 208.992498 
L 539.585943 200.647174 
L 539.824533 207.18686 
L 540.061742 202.039585 
L 540.297584 201.019502 
L 540.532075 204.795369 
L 540.765231 204.43676 
L 540.997066 186.918887 
L 541.227597 143.235487 
L 541.456836 200.420916 
L 541.684799 205.967423 
L 541.9115 203.850004 
L 542.36117 202.902998 
L 542.584166 199.760171 
L 543.026548 205.28391 
L 543.245959 197.631261 
L 543.464201 200.062399 
L 543.681286 205.950082 
L 543.897225 200.574518 
L 544.112032 174.381861 
L 544.325717 99.471643 
L 544.538293 183.709797 
L 544.749771 209.027128 
L 544.960162 209.02879 
L 545.169478 208.219635 
L 545.584926 193.424559 
L 545.79108 205.018857 
L 545.996201 204.646498 
L 546.200299 201.333375 
L 546.403385 200.598179 
L 546.605469 201.214824 
L 546.80656 130.962519 
L 547.205802 201.899517 
L 547.403973 206.492388 
L 547.60119 204.768958 
L 547.797461 204.727249 
L 547.992795 205.34771 
L 548.187202 203.947594 
L 548.380691 195.724709 
L 548.573269 59.30311 
L 548.955729 203.367549 
L 549.145627 207.317088 
L 549.334649 204.883867 
L 549.522802 204.81312 
L 549.710095 206.481738 
L 550.082128 204.772026 
L 550.266885 196.608787 
L 550.450812 205.379826 
L 550.633916 205.123033 
L 550.816205 203.10069 
L 550.997686 204.214504 
L 551.537352 203.488573 
L 551.715671 195.834591 
L 551.893217 119.072397 
L 552.069997 159.877387 
L 552.246016 144.396346 
L 552.421282 194.428902 
L 552.595801 204.614074 
L 552.769579 204.969154 
L 552.942622 202.095505 
L 553.28653 157.69704 
L 553.627574 195.189811 
L 553.797036 205.869998 
L 553.9658 204.813715 
L 554.133871 202.092622 
L 554.301255 203.201542 
L 554.467957 202.847313 
L 554.799339 203.431093 
L 554.96403 201.516856 
L 555.291437 203.116748 
L 555.454164 201.509735 
L 555.616247 201.991278 
L 555.77769 201.898152 
L 555.9385 201.079465 
L 556.09868 202.220747 
L 556.417173 200.906645 
L 556.575495 200.773441 
L 556.733207 199.984315 
L 556.890314 200.233546 
L 557.046821 200.789119 
L 557.512782 200.264205 
L 557.666932 199.246677 
L 557.820503 199.748864 
L 557.9735 199.381379 
L 558.125928 199.329676 
L 558.27779 199.558755 
L 558.579835 198.453385 
L 558.730026 198.90195 
L 559.028766 198.387317 
L 559.177322 198.521434 
L 559.619783 198.000696 
L 559.766214 198.001496 
L 559.912123 198.125722 
L 560.202391 197.761807 
L 560.346756 197.871658 
L 560.633969 197.135425 
L 560.776823 197.246897 
L 560.919181 196.911117 
L 561.061046 197.379814 
L 561.483713 196.696444 
L 561.763087 196.763077 
L 562.040567 196.364974 
L 562.453292 196.504816 
L 562.726149 196.297325 
L 562.861899 196.440708 
L 563.132055 196.037875 
L 563.266468 195.978024 
L 563.400441 196.140799 
L 563.533976 195.929779 
L 563.799748 196.148443 
L 564.063806 195.57316 
L 564.195199 195.873253 
L 564.326172 195.516921 
L 564.456727 195.689064 
L 564.845913 195.182588 
L 565.231434 195.200749 
L 565.359138 195.201488 
L 565.486446 195.040765 
L 565.613359 195.141453 
L 565.86601 194.898604 
L 566.738211 194.743022 
L 566.861308 194.395688 
L 566.984036 194.541297 
L 567.228393 194.405857 
L 567.471301 194.392385 
L 567.712777 194.18712 
L 568.191496 194.373874 
L 568.310307 194.002049 
L 568.428773 194.124366 
L 568.546898 193.835129 
L 568.664683 194.07846 
L 569.016019 193.85446 
L 569.132464 194.009067 
L 569.364365 193.804993 
L 569.59496 193.731055 
L 569.824263 193.45765 
L 570.165828 193.511764 
L 570.391965 193.350487 
L 570.504567 193.385107 
L 570.61686 193.216565 
L 570.840527 193.348671 
L 571.173752 192.917827 
L 571.394405 193.168638 
L 571.72317 193.00456 
L 571.94089 193.002087 
L 572.157457 192.97582 
L 572.265313 192.886532 
L 572.372885 192.999676 
L 572.587186 192.790102 
L 572.800371 192.598269 
L 573.118081 192.777995 
L 573.223439 192.60894 
L 573.328526 192.752168 
L 573.537895 192.52825 
L 573.642179 192.450475 
L 573.746199 192.547941 
L 574.159654 192.407329 
L 574.467028 192.466143 
L 574.772112 192.407011 
L 574.974245 192.259801 
L 575.175385 192.361443 
L 575.375542 192.161494 
L 575.475255 192.289075 
L 575.574725 192.051069 
L 575.970208 192.187186 
L 576.166526 192.001171 
L 576.361907 192.110303 
L 576.459249 191.906434 
L 576.55636 192.0464 
L 576.749894 191.874473 
L 576.942518 191.907943 
L 577.134239 191.762898 
L 577.229764 191.710938 
L 577.325067 191.841187 
L 577.515009 191.715771 
L 577.609651 191.768367 
L 577.798281 191.686518 
L 579.094902 191.49172 
L 579.185966 191.452575 
L 579.276827 191.5748 
L 579.367487 191.440016 
L 579.457946 191.50354 
L 579.638268 191.473055 
L 579.817799 191.345115 
L 579.907271 191.415206 
L 579.996547 191.226554 
L 580.263213 191.355653 
L 580.528154 191.234844 
L 580.878762 191.110516 
L 581.052947 191.154216 
L 581.312842 191.257879 
L 581.571098 191.00321 
L 581.912924 191.110147 
L 582.167434 191.058987 
L 582.336233 190.975537 
L 582.504338 191.174542 
L 583.252386 191.028585 
L 583.416779 191.02054 
L 583.743598 190.917082 
L 583.824897 191.00321 
L 583.987012 190.800295 
L 584.228987 190.989389 
L 584.309328 190.771863 
L 584.389512 190.88275 
L 584.629127 190.745432 
L 584.708688 190.906073 
L 584.867347 190.626439 
L 584.946447 190.717625 
L 585.025394 190.863768 
L 585.182834 190.581785 
L 585.261327 190.682626 
L 585.417863 190.713224 
L 585.573803 190.620262 
L 585.961075 190.612721 
L 586.114963 190.48084 
L 586.268276 190.497186 
L 586.497173 190.397114 
L 586.573189 190.528737 
L 586.724798 190.30762 
L 586.800393 190.470621 
L 586.951164 190.288279 
L 587.026343 190.363069 
L 587.101383 190.197359 
L 587.176286 190.298057 
L 587.54876 190.26785 
L 587.696806 190.113827 
L 587.770628 190.207322 
L 587.917875 190.173842 
L 587.991301 190.167183 
L 588.064595 189.949175 
L 588.137758 190.072703 
L 588.283693 189.560747 
L 588.356466 189.638308 
L 588.574012 189.902109 
L 588.790408 189.627842 
L 588.934039 189.867418 
L 589.005666 189.821481 
L 589.290928 189.788739 
L 589.361934 189.93208 
L 589.503577 189.660932 
L 589.644732 189.85374 
L 589.785402 189.671511 
L 589.855557 189.802519 
L 589.925591 189.716032 
L 589.995506 189.612102 
L 590.065301 189.695634 
L 590.756789 189.604201 
L 590.8253 189.337219 
L 590.893696 189.455781 
L 590.961978 189.425389 
L 591.030147 189.668926 
L 591.098202 189.516391 
L 591.166145 189.522044 
L 591.233974 189.676754 
L 591.301692 189.565868 
L 591.571448 189.665478 
L 591.63861 189.477441 
L 591.705662 189.508531 
L 591.772604 189.474589 
L 591.839438 189.570115 
L 591.839438 189.570115 
" clip-path="url(#p60c6667148)" style="fill: none; stroke: #008000; stroke-width: 1.5; stroke-linecap: square"/>
   </g>
   <g id="patch_3">
    <path d="M 234.719438 311.6435 
L 234.719438 45.5315 
" style="fill: none; stroke: #000000; stroke-width: 0.8; stroke-linejoin: miter; stroke-linecap: square"/>
   </g>
   <g id="patch_4">
    <path d="M 591.839438 311.6435 
L 591.839438 45.5315 
" style="fill: none; stroke: #000000; stroke-width: 0.8; stroke-linejoin: miter; stroke-linecap: square"/>
   </g>
   <g id="patch_5">
    <path d="M 234.719438 311.6435 
L 591.839438 311.6435 
" style="fill: none; stroke: #000000; stroke-width: 0.8; stroke-linejoin: miter; stroke-linecap: square"/>
   </g>
   <g id="patch_6">
    <path d="M 234.719438 45.5315 
L 591.839438 45.5315 
" style="fill: none; stroke: #000000; stroke-width: 0.8; stroke-linejoin: miter; stroke-linecap: square"/>
   </g>
   <g id="text_10">
    <!-- Loss of the 12_05_25_CIFAR10_model_(1024+512+512+512+1)_1_save_2 -->
    <g transform="translate(7.2 25.5315) scale(0.264 -0.264)">
     <defs>
      <path id="TimesNewRomanPSMT-20" transform="scale(0.015625)"/>
      <path id="TimesNewRomanPSMT-66" d="M 1319 2638 
L 1319 756 
Q 1319 356 1406 250 
Q 1522 113 1716 113 
L 1975 113 
L 1975 0 
L 266 0 
L 266 113 
L 394 113 
Q 519 113 622 175 
Q 725 238 764 344 
Q 803 450 803 756 
L 803 2638 
L 247 2638 
L 247 2863 
L 803 2863 
L 803 3050 
Q 803 3478 940 3775 
Q 1078 4072 1361 4255 
Q 1644 4438 1997 4438 
Q 2325 4438 2600 4225 
Q 2781 4084 2781 3909 
Q 2781 3816 2700 3733 
Q 2619 3650 2525 3650 
Q 2453 3650 2373 3701 
Q 2294 3753 2178 3923 
Q 2063 4094 1966 4153 
Q 1869 4213 1750 4213 
Q 1606 4213 1506 4136 
Q 1406 4059 1362 3898 
Q 1319 3738 1319 3069 
L 1319 2863 
L 2056 2863 
L 2056 2638 
L 1319 2638 
z
" transform="scale(0.015625)"/>
      <path id="TimesNewRomanPSMT-74" d="M 1031 3803 
L 1031 2863 
L 1700 2863 
L 1700 2644 
L 1031 2644 
L 1031 788 
Q 1031 509 1111 412 
Q 1191 316 1316 316 
Q 1419 316 1516 380 
Q 1613 444 1666 569 
L 1788 569 
Q 1678 263 1478 108 
Q 1278 -47 1066 -47 
Q 922 -47 784 33 
Q 647 113 581 261 
Q 516 409 516 719 
L 516 2644 
L 63 2644 
L 63 2747 
Q 234 2816 414 2980 
Q 594 3144 734 3369 
Q 806 3488 934 3803 
L 1031 3803 
z
" transform="scale(0.015625)"/>
      <path id="TimesNewRomanPSMT-68" d="M 1041 4444 
L 1041 2350 
Q 1388 2731 1591 2839 
Q 1794 2947 1997 2947 
Q 2241 2947 2416 2812 
Q 2591 2678 2675 2391 
Q 2734 2191 2734 1659 
L 2734 647 
Q 2734 375 2778 275 
Q 2809 200 2884 156 
Q 2959 113 3159 113 
L 3159 0 
L 1753 0 
L 1753 113 
L 1819 113 
Q 2019 113 2097 173 
Q 2175 234 2206 353 
Q 2216 403 2216 647 
L 2216 1659 
Q 2216 2128 2167 2275 
Q 2119 2422 2012 2495 
Q 1906 2569 1756 2569 
Q 1603 2569 1437 2487 
Q 1272 2406 1041 2159 
L 1041 647 
Q 1041 353 1073 281 
Q 1106 209 1195 161 
Q 1284 113 1503 113 
L 1503 0 
L 84 0 
L 84 113 
Q 275 113 384 172 
Q 447 203 484 290 
Q 522 378 522 647 
L 522 3238 
Q 522 3728 498 3840 
Q 475 3953 426 3993 
Q 378 4034 297 4034 
Q 231 4034 84 3984 
L 41 4094 
L 897 4444 
L 1041 4444 
z
" transform="scale(0.015625)"/>
      <path id="TimesNewRomanPSMT-65" d="M 681 1784 
Q 678 1147 991 784 
Q 1303 422 1725 422 
Q 2006 422 2214 576 
Q 2422 731 2563 1106 
L 2659 1044 
Q 2594 616 2278 264 
Q 1963 -88 1488 -88 
Q 972 -88 605 314 
Q 238 716 238 1394 
Q 238 2128 614 2539 
Q 991 2950 1559 2950 
Q 2041 2950 2350 2633 
Q 2659 2316 2659 1784 
L 681 1784 
z
M 681 1966 
L 2006 1966 
Q 1991 2241 1941 2353 
Q 1863 2528 1708 2628 
Q 1553 2728 1384 2728 
Q 1125 2728 920 2526 
Q 716 2325 681 1966 
z
" transform="scale(0.015625)"/>
      <path id="TimesNewRomanPSMT-32" d="M 2934 816 
L 2638 0 
L 138 0 
L 138 116 
Q 1241 1122 1691 1759 
Q 2141 2397 2141 2925 
Q 2141 3328 1894 3587 
Q 1647 3847 1303 3847 
Q 991 3847 742 3664 
Q 494 3481 375 3128 
L 259 3128 
Q 338 3706 661 4015 
Q 984 4325 1469 4325 
Q 1984 4325 2329 3994 
Q 2675 3663 2675 3213 
Q 2675 2891 2525 2569 
Q 2294 2063 1775 1497 
Q 997 647 803 472 
L 1909 472 
Q 2247 472 2383 497 
Q 2519 522 2628 598 
Q 2738 675 2819 816 
L 2934 816 
z
" transform="scale(0.015625)"/>
      <path id="TimesNewRomanPSMT-5f" d="M 3256 -1381 
L -53 -1381 
L -53 -1119 
L 3256 -1119 
L 3256 -1381 
z
" transform="scale(0.015625)"/>
      <path id="TimesNewRomanPSMT-43" d="M 3853 4334 
L 3950 2894 
L 3853 2894 
Q 3659 3541 3300 3825 
Q 2941 4109 2438 4109 
Q 2016 4109 1675 3895 
Q 1334 3681 1139 3212 
Q 944 2744 944 2047 
Q 944 1472 1128 1050 
Q 1313 628 1683 403 
Q 2053 178 2528 178 
Q 2941 178 3256 354 
Q 3572 531 3950 1056 
L 4047 994 
Q 3728 428 3303 165 
Q 2878 -97 2294 -97 
Q 1241 -97 663 684 
Q 231 1266 231 2053 
Q 231 2688 515 3219 
Q 800 3750 1298 4042 
Q 1797 4334 2388 4334 
Q 2847 4334 3294 4109 
Q 3425 4041 3481 4041 
Q 3566 4041 3628 4100 
Q 3709 4184 3744 4334 
L 3853 4334 
z
" transform="scale(0.015625)"/>
      <path id="TimesNewRomanPSMT-49" d="M 1975 116 
L 1975 0 
L 159 0 
L 159 116 
L 309 116 
Q 572 116 691 269 
Q 766 369 766 750 
L 766 3488 
Q 766 3809 725 3913 
Q 694 3991 597 4047 
Q 459 4122 309 4122 
L 159 4122 
L 159 4238 
L 1975 4238 
L 1975 4122 
L 1822 4122 
Q 1563 4122 1444 3969 
Q 1366 3869 1366 3488 
L 1366 750 
Q 1366 428 1406 325 
Q 1438 247 1538 191 
Q 1672 116 1822 116 
L 1975 116 
z
" transform="scale(0.015625)"/>
      <path id="TimesNewRomanPSMT-46" d="M 1309 4006 
L 1309 2341 
L 2081 2341 
Q 2347 2341 2470 2458 
Q 2594 2575 2634 2922 
L 2750 2922 
L 2750 1488 
L 2634 1488 
Q 2631 1734 2570 1850 
Q 2509 1966 2401 2023 
Q 2294 2081 2081 2081 
L 1309 2081 
L 1309 750 
Q 1309 428 1350 325 
Q 1381 247 1481 191 
Q 1619 116 1769 116 
L 1922 116 
L 1922 0 
L 103 0 
L 103 116 
L 253 116 
Q 516 116 634 269 
Q 709 369 709 750 
L 709 3488 
Q 709 3809 669 3913 
Q 638 3991 541 4047 
Q 406 4122 253 4122 
L 103 4122 
L 103 4238 
L 3256 4238 
L 3297 3306 
L 3188 3306 
Q 3106 3603 2998 3742 
Q 2891 3881 2733 3943 
Q 2575 4006 2244 4006 
L 1309 4006 
z
" transform="scale(0.015625)"/>
      <path id="TimesNewRomanPSMT-41" d="M 2928 1419 
L 1288 1419 
L 1000 750 
Q 894 503 894 381 
Q 894 284 986 211 
Q 1078 138 1384 116 
L 1384 0 
L 50 0 
L 50 116 
Q 316 163 394 238 
Q 553 388 747 847 
L 2238 4334 
L 2347 4334 
L 3822 809 
Q 4000 384 4145 257 
Q 4291 131 4550 116 
L 4550 0 
L 2878 0 
L 2878 116 
Q 3131 128 3220 200 
Q 3309 272 3309 375 
Q 3309 513 3184 809 
L 2928 1419 
z
M 2841 1650 
L 2122 3363 
L 1384 1650 
L 2841 1650 
z
" transform="scale(0.015625)"/>
      <path id="TimesNewRomanPSMT-52" d="M 4325 0 
L 3194 0 
L 1759 1981 
Q 1600 1975 1500 1975 
Q 1459 1975 1412 1976 
Q 1366 1978 1316 1981 
L 1316 750 
Q 1316 350 1403 253 
Q 1522 116 1759 116 
L 1925 116 
L 1925 0 
L 109 0 
L 109 116 
L 269 116 
Q 538 116 653 291 
Q 719 388 719 750 
L 719 3488 
Q 719 3888 631 3984 
Q 509 4122 269 4122 
L 109 4122 
L 109 4238 
L 1653 4238 
Q 2328 4238 2648 4139 
Q 2969 4041 3192 3777 
Q 3416 3513 3416 3147 
Q 3416 2756 3161 2468 
Q 2906 2181 2372 2063 
L 3247 847 
Q 3547 428 3762 290 
Q 3978 153 4325 116 
L 4325 0 
z
M 1316 2178 
Q 1375 2178 1419 2176 
Q 1463 2175 1491 2175 
Q 2097 2175 2405 2437 
Q 2713 2700 2713 3106 
Q 2713 3503 2464 3751 
Q 2216 4000 1806 4000 
Q 1625 4000 1316 3941 
L 1316 2178 
z
" transform="scale(0.015625)"/>
      <path id="TimesNewRomanPSMT-6d" d="M 1050 2338 
Q 1363 2650 1419 2697 
Q 1559 2816 1721 2881 
Q 1884 2947 2044 2947 
Q 2313 2947 2506 2790 
Q 2700 2634 2766 2338 
Q 3088 2713 3309 2830 
Q 3531 2947 3766 2947 
Q 3994 2947 4170 2830 
Q 4347 2713 4450 2447 
Q 4519 2266 4519 1878 
L 4519 647 
Q 4519 378 4559 278 
Q 4591 209 4675 161 
Q 4759 113 4950 113 
L 4950 0 
L 3538 0 
L 3538 113 
L 3597 113 
Q 3781 113 3884 184 
Q 3956 234 3988 344 
Q 4000 397 4000 647 
L 4000 1878 
Q 4000 2228 3916 2372 
Q 3794 2572 3525 2572 
Q 3359 2572 3192 2489 
Q 3025 2406 2788 2181 
L 2781 2147 
L 2788 2013 
L 2788 647 
Q 2788 353 2820 281 
Q 2853 209 2943 161 
Q 3034 113 3253 113 
L 3253 0 
L 1806 0 
L 1806 113 
Q 2044 113 2133 169 
Q 2222 225 2256 338 
Q 2272 391 2272 647 
L 2272 1878 
Q 2272 2228 2169 2381 
Q 2031 2581 1784 2581 
Q 1616 2581 1450 2491 
Q 1191 2353 1050 2181 
L 1050 647 
Q 1050 366 1089 281 
Q 1128 197 1204 155 
Q 1281 113 1516 113 
L 1516 0 
L 100 0 
L 100 113 
Q 297 113 375 155 
Q 453 197 493 289 
Q 534 381 534 647 
L 534 1741 
Q 534 2213 506 2350 
Q 484 2453 437 2492 
Q 391 2531 309 2531 
Q 222 2531 100 2484 
L 53 2597 
L 916 2947 
L 1050 2947 
L 1050 2338 
z
" transform="scale(0.015625)"/>
      <path id="TimesNewRomanPSMT-64" d="M 2222 322 
Q 2013 103 1813 7 
Q 1613 -88 1381 -88 
Q 913 -88 563 304 
Q 213 697 213 1313 
Q 213 1928 600 2439 
Q 988 2950 1597 2950 
Q 1975 2950 2222 2709 
L 2222 3238 
Q 2222 3728 2198 3840 
Q 2175 3953 2125 3993 
Q 2075 4034 2000 4034 
Q 1919 4034 1784 3984 
L 1744 4094 
L 2597 4444 
L 2738 4444 
L 2738 1134 
Q 2738 631 2761 520 
Q 2784 409 2836 365 
Q 2888 322 2956 322 
Q 3041 322 3181 375 
L 3216 266 
L 2366 -88 
L 2222 -88 
L 2222 322 
z
M 2222 541 
L 2222 2016 
Q 2203 2228 2109 2403 
Q 2016 2578 1861 2667 
Q 1706 2756 1559 2756 
Q 1284 2756 1069 2509 
Q 784 2184 784 1559 
Q 784 928 1059 592 
Q 1334 256 1672 256 
Q 1956 256 2222 541 
z
" transform="scale(0.015625)"/>
      <path id="TimesNewRomanPSMT-6c" d="M 1184 4444 
L 1184 647 
Q 1184 378 1223 290 
Q 1263 203 1344 158 
Q 1425 113 1647 113 
L 1647 0 
L 244 0 
L 244 113 
Q 441 113 512 153 
Q 584 194 625 287 
Q 666 381 666 647 
L 666 3247 
Q 666 3731 644 3842 
Q 622 3953 573 3993 
Q 525 4034 450 4034 
Q 369 4034 244 3984 
L 191 4094 
L 1044 4444 
L 1184 4444 
z
" transform="scale(0.015625)"/>
      <path id="TimesNewRomanPSMT-28" d="M 1988 -1253 
L 1988 -1369 
Q 1516 -1131 1200 -813 
Q 750 -359 506 256 
Q 263 872 263 1534 
Q 263 2503 741 3301 
Q 1219 4100 1988 4444 
L 1988 4313 
Q 1603 4100 1356 3731 
Q 1109 3363 987 2797 
Q 866 2231 866 1616 
Q 866 947 969 400 
Q 1050 -31 1165 -292 
Q 1281 -553 1476 -793 
Q 1672 -1034 1988 -1253 
z
" transform="scale(0.015625)"/>
      <path id="TimesNewRomanPSMT-34" d="M 2978 1563 
L 2978 1119 
L 2409 1119 
L 2409 0 
L 1894 0 
L 1894 1119 
L 100 1119 
L 100 1519 
L 2066 4325 
L 2409 4325 
L 2409 1563 
L 2978 1563 
z
M 1894 1563 
L 1894 3666 
L 406 1563 
L 1894 1563 
z
" transform="scale(0.015625)"/>
      <path id="TimesNewRomanPSMT-2b" d="M 1672 441 
L 1672 2000 
L 116 2000 
L 116 2256 
L 1672 2256 
L 1672 3809 
L 1922 3809 
L 1922 2256 
L 3484 2256 
L 3484 2000 
L 1922 2000 
L 1922 441 
L 1672 441 
z
" transform="scale(0.015625)"/>
      <path id="TimesNewRomanPSMT-29" d="M 144 4313 
L 144 4444 
Q 619 4209 934 3891 
Q 1381 3434 1625 2820 
Q 1869 2206 1869 1541 
Q 1869 572 1392 -226 
Q 916 -1025 144 -1369 
L 144 -1253 
Q 528 -1038 776 -670 
Q 1025 -303 1145 264 
Q 1266 831 1266 1447 
Q 1266 2113 1163 2663 
Q 1084 3094 967 3353 
Q 850 3613 656 3853 
Q 463 4094 144 4313 
z
" transform="scale(0.015625)"/>
      <path id="TimesNewRomanPSMT-61" d="M 1822 413 
Q 1381 72 1269 19 
Q 1100 -59 909 -59 
Q 613 -59 420 144 
Q 228 347 228 678 
Q 228 888 322 1041 
Q 450 1253 767 1440 
Q 1084 1628 1822 1897 
L 1822 2009 
Q 1822 2438 1686 2597 
Q 1550 2756 1291 2756 
Q 1094 2756 978 2650 
Q 859 2544 859 2406 
L 866 2225 
Q 866 2081 792 2003 
Q 719 1925 600 1925 
Q 484 1925 411 2006 
Q 338 2088 338 2228 
Q 338 2497 613 2722 
Q 888 2947 1384 2947 
Q 1766 2947 2009 2819 
Q 2194 2722 2281 2516 
Q 2338 2381 2338 1966 
L 2338 994 
Q 2338 584 2353 492 
Q 2369 400 2405 369 
Q 2441 338 2488 338 
Q 2538 338 2575 359 
Q 2641 400 2828 588 
L 2828 413 
Q 2478 -56 2159 -56 
Q 2006 -56 1915 50 
Q 1825 156 1822 413 
z
M 1822 616 
L 1822 1706 
Q 1350 1519 1213 1441 
Q 966 1303 859 1153 
Q 753 1003 753 825 
Q 753 600 887 451 
Q 1022 303 1197 303 
Q 1434 303 1822 616 
z
" transform="scale(0.015625)"/>
      <path id="TimesNewRomanPSMT-76" d="M 53 2863 
L 1400 2863 
L 1400 2747 
L 1313 2747 
Q 1191 2747 1127 2687 
Q 1063 2628 1063 2528 
Q 1063 2419 1128 2269 
L 1794 688 
L 2463 2328 
Q 2534 2503 2534 2594 
Q 2534 2638 2509 2666 
Q 2475 2713 2422 2730 
Q 2369 2747 2206 2747 
L 2206 2863 
L 3141 2863 
L 3141 2747 
Q 2978 2734 2916 2681 
Q 2806 2588 2719 2369 
L 1703 -88 
L 1575 -88 
L 553 2328 
Q 484 2497 421 2570 
Q 359 2644 263 2694 
Q 209 2722 53 2747 
L 53 2863 
z
" transform="scale(0.015625)"/>
     </defs>
     <use xlink:href="#TimesNewRomanPSMT-4c"/>
     <use xlink:href="#TimesNewRomanPSMT-6f" transform="translate(61.083984 0)"/>
     <use xlink:href="#TimesNewRomanPSMT-73" transform="translate(111.083984 0)"/>
     <use xlink:href="#TimesNewRomanPSMT-73" transform="translate(150 0)"/>
     <use xlink:href="#TimesNewRomanPSMT-20" transform="translate(188.916016 0)"/>
     <use xlink:href="#TimesNewRomanPSMT-6f" transform="translate(213.916016 0)"/>
     <use xlink:href="#TimesNewRomanPSMT-66" transform="translate(263.916016 0)"/>
     <use xlink:href="#TimesNewRomanPSMT-20" transform="translate(297.216797 0)"/>
     <use xlink:href="#TimesNewRomanPSMT-74" transform="translate(322.216797 0)"/>
     <use xlink:href="#TimesNewRomanPSMT-68" transform="translate(350 0)"/>
     <use xlink:href="#TimesNewRomanPSMT-65" transform="translate(400 0)"/>
     <use xlink:href="#TimesNewRomanPSMT-20" transform="translate(444.384766 0)"/>
     <use xlink:href="#TimesNewRomanPSMT-31" transform="translate(469.384766 0)"/>
     <use xlink:href="#TimesNewRomanPSMT-32" transform="translate(519.384766 0)"/>
     <use xlink:href="#TimesNewRomanPSMT-5f" transform="translate(569.384766 0)"/>
     <use xlink:href="#TimesNewRomanPSMT-30" transform="translate(619.384766 0)"/>
     <use xlink:href="#TimesNewRomanPSMT-35" transform="translate(669.384766 0)"/>
     <use xlink:href="#TimesNewRomanPSMT-5f" transform="translate(719.384766 0)"/>
     <use xlink:href="#TimesNewRomanPSMT-32" transform="translate(769.384766 0)"/>
     <use xlink:href="#TimesNewRomanPSMT-35" transform="translate(819.384766 0)"/>
     <use xlink:href="#TimesNewRomanPSMT-5f" transform="translate(869.384766 0)"/>
     <use xlink:href="#TimesNewRomanPSMT-43" transform="translate(919.384766 0)"/>
     <use xlink:href="#TimesNewRomanPSMT-49" transform="translate(986.083984 0)"/>
     <use xlink:href="#TimesNewRomanPSMT-46" transform="translate(1019.384766 0)"/>
     <use xlink:href="#TimesNewRomanPSMT-41" transform="translate(1067.625 0)"/>
     <use xlink:href="#TimesNewRomanPSMT-52" transform="translate(1139.841797 0)"/>
     <use xlink:href="#TimesNewRomanPSMT-31" transform="translate(1206.541016 0)"/>
     <use xlink:href="#TimesNewRomanPSMT-30" transform="translate(1256.541016 0)"/>
     <use xlink:href="#TimesNewRomanPSMT-5f" transform="translate(1306.541016 0)"/>
     <use xlink:href="#TimesNewRomanPSMT-6d" transform="translate(1356.541016 0)"/>
     <use xlink:href="#TimesNewRomanPSMT-6f" transform="translate(1434.324219 0)"/>
     <use xlink:href="#TimesNewRomanPSMT-64" transform="translate(1484.324219 0)"/>
     <use xlink:href="#TimesNewRomanPSMT-65" transform="translate(1534.324219 0)"/>
     <use xlink:href="#TimesNewRomanPSMT-6c" transform="translate(1578.708984 0)"/>
     <use xlink:href="#TimesNewRomanPSMT-5f" transform="translate(1606.492188 0)"/>
     <use xlink:href="#TimesNewRomanPSMT-28" transform="translate(1656.492188 0)"/>
     <use xlink:href="#TimesNewRomanPSMT-31" transform="translate(1689.792969 0)"/>
     <use xlink:href="#TimesNewRomanPSMT-30" transform="translate(1739.792969 0)"/>
     <use xlink:href="#TimesNewRomanPSMT-32" transform="translate(1789.792969 0)"/>
     <use xlink:href="#TimesNewRomanPSMT-34" transform="translate(1839.792969 0)"/>
     <use xlink:href="#TimesNewRomanPSMT-2b" transform="translate(1889.792969 0)"/>
     <use xlink:href="#TimesNewRomanPSMT-35" transform="translate(1946.189453 0)"/>
     <use xlink:href="#TimesNewRomanPSMT-31" transform="translate(1996.189453 0)"/>
     <use xlink:href="#TimesNewRomanPSMT-32" transform="translate(2046.189453 0)"/>
     <use xlink:href="#TimesNewRomanPSMT-2b" transform="translate(2096.189453 0)"/>
     <use xlink:href="#TimesNewRomanPSMT-35" transform="translate(2152.585938 0)"/>
     <use xlink:href="#TimesNewRomanPSMT-31" transform="translate(2202.585938 0)"/>
     <use xlink:href="#TimesNewRomanPSMT-32" transform="translate(2252.585938 0)"/>
     <use xlink:href="#TimesNewRomanPSMT-2b" transform="translate(2302.585938 0)"/>
     <use xlink:href="#TimesNewRomanPSMT-35" transform="translate(2358.982422 0)"/>
     <use xlink:href="#TimesNewRomanPSMT-31" transform="translate(2408.982422 0)"/>
     <use xlink:href="#TimesNewRomanPSMT-32" transform="translate(2458.982422 0)"/>
     <use xlink:href="#TimesNewRomanPSMT-2b" transform="translate(2508.982422 0)"/>
     <use xlink:href="#TimesNewRomanPSMT-31" transform="translate(2565.378906 0)"/>
     <use xlink:href="#TimesNewRomanPSMT-29" transform="translate(2615.378906 0)"/>
     <use xlink:href="#TimesNewRomanPSMT-5f" transform="translate(2648.679688 0)"/>
     <use xlink:href="#TimesNewRomanPSMT-31" transform="translate(2698.679688 0)"/>
     <use xlink:href="#TimesNewRomanPSMT-5f" transform="translate(2748.679688 0)"/>
     <use xlink:href="#TimesNewRomanPSMT-73" transform="translate(2798.679688 0)"/>
     <use xlink:href="#TimesNewRomanPSMT-61" transform="translate(2837.595703 0)"/>
     <use xlink:href="#TimesNewRomanPSMT-76" transform="translate(2881.980469 0)"/>
     <use xlink:href="#TimesNewRomanPSMT-65" transform="translate(2931.980469 0)"/>
     <use xlink:href="#TimesNewRomanPSMT-5f" transform="translate(2976.365234 0)"/>
     <use xlink:href="#TimesNewRomanPSMT-32" transform="translate(3026.365234 0)"/>
    </g>
   </g>
   <g id="legend_1">
    <g id="patch_7">
     <path d="M 250.119438 125.384625 
L 450.676938 125.384625 
Q 455.076938 125.384625 455.076938 120.984625 
L 455.076938 60.9315 
Q 455.076938 56.5315 450.676938 56.5315 
L 250.119438 56.5315 
Q 245.719438 56.5315 245.719438 60.9315 
L 245.719438 120.984625 
Q 245.719438 125.384625 250.119438 125.384625 
z
" style="fill: #ffffff; opacity: 0.8; stroke: #cccccc; stroke-linejoin: miter"/>
    </g>
    <g id="line2d_17">
     <path d="M 254.519438 73.0315 
L 276.519438 73.0315 
L 298.519438 73.0315 
" style="fill: none; stroke: #ffa500; stroke-width: 1.5; stroke-linecap: square"/>
    </g>
    <g id="text_11">
     <!-- Training loss -->
     <g transform="translate(316.119438 80.7315) scale(0.22 -0.22)">
      <defs>
       <path id="TimesNewRomanPSMT-54" d="M 3703 4238 
L 3750 3244 
L 3631 3244 
Q 3597 3506 3538 3619 
Q 3441 3800 3280 3886 
Q 3119 3972 2856 3972 
L 2259 3972 
L 2259 734 
Q 2259 344 2344 247 
Q 2463 116 2709 116 
L 2856 116 
L 2856 0 
L 1059 0 
L 1059 116 
L 1209 116 
Q 1478 116 1591 278 
Q 1659 378 1659 734 
L 1659 3972 
L 1150 3972 
Q 853 3972 728 3928 
Q 566 3869 450 3700 
Q 334 3531 313 3244 
L 194 3244 
L 244 4238 
L 3703 4238 
z
" transform="scale(0.015625)"/>
       <path id="TimesNewRomanPSMT-72" d="M 1038 2947 
L 1038 2303 
Q 1397 2947 1775 2947 
Q 1947 2947 2059 2842 
Q 2172 2738 2172 2600 
Q 2172 2478 2090 2393 
Q 2009 2309 1897 2309 
Q 1788 2309 1652 2417 
Q 1516 2525 1450 2525 
Q 1394 2525 1328 2463 
Q 1188 2334 1038 2041 
L 1038 669 
Q 1038 431 1097 309 
Q 1138 225 1241 169 
Q 1344 113 1538 113 
L 1538 0 
L 72 0 
L 72 113 
Q 291 113 397 181 
Q 475 231 506 341 
Q 522 394 522 644 
L 522 1753 
Q 522 2253 501 2348 
Q 481 2444 426 2487 
Q 372 2531 291 2531 
Q 194 2531 72 2484 
L 41 2597 
L 906 2947 
L 1038 2947 
z
" transform="scale(0.015625)"/>
       <path id="TimesNewRomanPSMT-69" d="M 928 4444 
Q 1059 4444 1151 4351 
Q 1244 4259 1244 4128 
Q 1244 3997 1151 3903 
Q 1059 3809 928 3809 
Q 797 3809 703 3903 
Q 609 3997 609 4128 
Q 609 4259 701 4351 
Q 794 4444 928 4444 
z
M 1188 2947 
L 1188 647 
Q 1188 378 1227 289 
Q 1266 200 1342 156 
Q 1419 113 1622 113 
L 1622 0 
L 231 0 
L 231 113 
Q 441 113 512 153 
Q 584 194 626 287 
Q 669 381 669 647 
L 669 1750 
Q 669 2216 641 2353 
Q 619 2453 572 2492 
Q 525 2531 444 2531 
Q 356 2531 231 2484 
L 188 2597 
L 1050 2947 
L 1188 2947 
z
" transform="scale(0.015625)"/>
       <path id="TimesNewRomanPSMT-6e" d="M 1034 2341 
Q 1538 2947 1994 2947 
Q 2228 2947 2397 2830 
Q 2566 2713 2666 2444 
Q 2734 2256 2734 1869 
L 2734 647 
Q 2734 375 2778 278 
Q 2813 200 2889 156 
Q 2966 113 3172 113 
L 3172 0 
L 1756 0 
L 1756 113 
L 1816 113 
Q 2016 113 2095 173 
Q 2175 234 2206 353 
Q 2219 400 2219 647 
L 2219 1819 
Q 2219 2209 2117 2386 
Q 2016 2563 1775 2563 
Q 1403 2563 1034 2156 
L 1034 647 
Q 1034 356 1069 288 
Q 1113 197 1189 155 
Q 1266 113 1500 113 
L 1500 0 
L 84 0 
L 84 113 
L 147 113 
Q 366 113 442 223 
Q 519 334 519 647 
L 519 1709 
Q 519 2225 495 2337 
Q 472 2450 423 2490 
Q 375 2531 294 2531 
Q 206 2531 84 2484 
L 38 2597 
L 900 2947 
L 1034 2947 
L 1034 2341 
z
" transform="scale(0.015625)"/>
       <path id="TimesNewRomanPSMT-67" d="M 966 1044 
Q 703 1172 562 1401 
Q 422 1631 422 1909 
Q 422 2334 742 2640 
Q 1063 2947 1563 2947 
Q 1972 2947 2272 2747 
L 2878 2747 
Q 3013 2747 3034 2739 
Q 3056 2731 3066 2713 
Q 3084 2684 3084 2613 
Q 3084 2531 3069 2500 
Q 3059 2484 3036 2475 
Q 3013 2466 2878 2466 
L 2506 2466 
Q 2681 2241 2681 1891 
Q 2681 1491 2375 1206 
Q 2069 922 1553 922 
Q 1341 922 1119 984 
Q 981 866 932 777 
Q 884 688 884 625 
Q 884 572 936 522 
Q 988 472 1138 450 
Q 1225 438 1575 428 
Q 2219 413 2409 384 
Q 2700 344 2873 169 
Q 3047 -6 3047 -263 
Q 3047 -616 2716 -925 
Q 2228 -1381 1444 -1381 
Q 841 -1381 425 -1109 
Q 191 -953 191 -784 
Q 191 -709 225 -634 
Q 278 -519 444 -313 
Q 466 -284 763 25 
Q 600 122 533 198 
Q 466 275 466 372 
Q 466 481 555 628 
Q 644 775 966 1044 
z
M 1509 2797 
Q 1278 2797 1122 2612 
Q 966 2428 966 2047 
Q 966 1553 1178 1281 
Q 1341 1075 1591 1075 
Q 1828 1075 1981 1253 
Q 2134 1431 2134 1813 
Q 2134 2309 1919 2591 
Q 1759 2797 1509 2797 
z
M 934 0 
Q 788 -159 713 -296 
Q 638 -434 638 -550 
Q 638 -700 819 -813 
Q 1131 -1006 1722 -1006 
Q 2284 -1006 2551 -807 
Q 2819 -609 2819 -384 
Q 2819 -222 2659 -153 
Q 2497 -84 2016 -72 
Q 1313 -53 934 0 
z
" transform="scale(0.015625)"/>
      </defs>
      <use xlink:href="#TimesNewRomanPSMT-54"/>
      <use xlink:href="#TimesNewRomanPSMT-72" transform="translate(57.583984 0)"/>
      <use xlink:href="#TimesNewRomanPSMT-61" transform="translate(90.884766 0)"/>
      <use xlink:href="#TimesNewRomanPSMT-69" transform="translate(135.269531 0)"/>
      <use xlink:href="#TimesNewRomanPSMT-6e" transform="translate(163.052734 0)"/>
      <use xlink:href="#TimesNewRomanPSMT-69" transform="translate(213.052734 0)"/>
      <use xlink:href="#TimesNewRomanPSMT-6e" transform="translate(240.835938 0)"/>
      <use xlink:href="#TimesNewRomanPSMT-67" transform="translate(290.835938 0)"/>
      <use xlink:href="#TimesNewRomanPSMT-20" transform="translate(340.835938 0)"/>
      <use xlink:href="#TimesNewRomanPSMT-6c" transform="translate(365.835938 0)"/>
      <use xlink:href="#TimesNewRomanPSMT-6f" transform="translate(393.619141 0)"/>
      <use xlink:href="#TimesNewRomanPSMT-73" transform="translate(443.619141 0)"/>
      <use xlink:href="#TimesNewRomanPSMT-73" transform="translate(482.535156 0)"/>
     </g>
    </g>
    <g id="line2d_18">
     <path d="M 254.519438 104.178687 
L 276.519438 104.178687 
L 298.519438 104.178687 
" style="fill: none; stroke: #008000; stroke-width: 1.5; stroke-linecap: square"/>
    </g>
    <g id="text_12">
     <!-- Validation loss -->
     <g transform="translate(316.119438 111.878687) scale(0.22 -0.22)">
      <defs>
       <path id="TimesNewRomanPSMT-56" d="M 4544 4238 
L 4544 4122 
Q 4319 4081 4203 3978 
Q 4038 3825 3909 3509 
L 2431 -97 
L 2316 -97 
L 728 3556 
Q 606 3838 556 3900 
Q 478 3997 364 4051 
Q 250 4106 56 4122 
L 56 4238 
L 1788 4238 
L 1788 4122 
Q 1494 4094 1406 4022 
Q 1319 3950 1319 3838 
Q 1319 3681 1463 3350 
L 2541 866 
L 3541 3319 
Q 3688 3681 3688 3822 
Q 3688 3913 3597 3995 
Q 3506 4078 3291 4113 
Q 3275 4116 3238 4122 
L 3238 4238 
L 4544 4238 
z
" transform="scale(0.015625)"/>
      </defs>
      <use xlink:href="#TimesNewRomanPSMT-56"/>
      <use xlink:href="#TimesNewRomanPSMT-61" transform="translate(61.091797 0)"/>
      <use xlink:href="#TimesNewRomanPSMT-6c" transform="translate(105.476562 0)"/>
      <use xlink:href="#TimesNewRomanPSMT-69" transform="translate(133.259766 0)"/>
      <use xlink:href="#TimesNewRomanPSMT-64" transform="translate(161.042969 0)"/>
      <use xlink:href="#TimesNewRomanPSMT-61" transform="translate(211.042969 0)"/>
      <use xlink:href="#TimesNewRomanPSMT-74" transform="translate(255.427734 0)"/>
      <use xlink:href="#TimesNewRomanPSMT-69" transform="translate(283.210938 0)"/>
      <use xlink:href="#TimesNewRomanPSMT-6f" transform="translate(310.994141 0)"/>
      <use xlink:href="#TimesNewRomanPSMT-6e" transform="translate(360.994141 0)"/>
      <use xlink:href="#TimesNewRomanPSMT-20" transform="translate(410.994141 0)"/>
      <use xlink:href="#TimesNewRomanPSMT-6c" transform="translate(435.994141 0)"/>
      <use xlink:href="#TimesNewRomanPSMT-6f" transform="translate(463.777344 0)"/>
      <use xlink:href="#TimesNewRomanPSMT-73" transform="translate(513.777344 0)"/>
      <use xlink:href="#TimesNewRomanPSMT-73" transform="translate(552.693359 0)"/>
     </g>
    </g>
   </g>
  </g>
 </g>
 <defs>
  <clipPath id="p60c6667148">
   <rect x="234.719438" y="45.5315" width="357.12" height="266.112"/>
  </clipPath>
 </defs>
</svg>
