<?xml version="1.0" encoding="utf-8" standalone="no"?>
<!DOCTYPE svg PUBLIC "-//W3C//DTD SVG 1.1//EN"
  "http://www.w3.org/Graphics/SVG/1.1/DTD/svg11.dtd">
<svg xmlns:xlink="http://www.w3.org/1999/xlink" width="1098.78pt" height="383.265687pt" viewBox="0 0 1098.78 383.265687" xmlns="http://www.w3.org/2000/svg" version="1.1">
 <metadata>
  <rdf:RDF xmlns:dc="http://purl.org/dc/elements/1.1/" xmlns:cc="http://creativecommons.org/ns#" xmlns:rdf="http://www.w3.org/1999/02/22-rdf-syntax-ns#">
   <cc:Work>
    <dc:type rdf:resource="http://purl.org/dc/dcmitype/StillImage"/>
    <dc:date>2025-05-09T14:46:33.058761</dc:date>
    <dc:format>image/svg+xml</dc:format>
    <dc:creator>
     <cc:Agent>
      <dc:title>Matplotlib v3.10.1, https://matplotlib.org/</dc:title>
     </cc:Agent>
    </dc:creator>
   </cc:Work>
  </rdf:RDF>
 </metadata>
 <defs>
  <style type="text/css">*{stroke-linejoin: round; stroke-linecap: butt}</style>
 </defs>
 <g id="figure_1">
  <g id="patch_1">
   <path d="M 0 383.265687 
L 1098.78 383.265687 
L 1098.78 0 
L 0 0 
z
" style="fill: #ffffff"/>
  </g>
  <g id="axes_1">
   <g id="patch_2">
    <path d="M 370.83 311.6435 
L 727.95 311.6435 
L 727.95 45.5315 
L 370.83 45.5315 
z
" style="fill: #ffffff"/>
   </g>
   <g id="matplotlib.axis_1">
    <g id="xtick_1">
     <g id="line2d_1">
      <path d="M 370.83 311.6435 
L 370.83 45.5315 
" clip-path="url(#p7735f4fb53)" style="fill: none; stroke: #b0b0b0; stroke-opacity: 0.3; stroke-width: 0.8; stroke-linecap: square"/>
     </g>
     <g id="line2d_2">
      <defs>
       <path id="med4ffc95f1" d="M 0 0 
L 0 3.5 
" style="stroke: #000000; stroke-width: 0.8"/>
      </defs>
      <g>
       <use xlink:href="#med4ffc95f1" x="370.83" y="311.6435" style="stroke: #000000; stroke-width: 0.8"/>
      </g>
     </g>
     <g id="text_1">
      <!-- 0.0 -->
      <g transform="translate(357.08 333.91975) scale(0.22 -0.22)">
       <defs>
        <path id="TimesNewRomanPSMT-30" d="M 231 2094 
Q 231 2819 450 3342 
Q 669 3866 1031 4122 
Q 1313 4325 1613 4325 
Q 2100 4325 2488 3828 
Q 2972 3213 2972 2159 
Q 2972 1422 2759 906 
Q 2547 391 2217 158 
Q 1888 -75 1581 -75 
Q 975 -75 572 641 
Q 231 1244 231 2094 
z
M 844 2016 
Q 844 1141 1059 588 
Q 1238 122 1591 122 
Q 1759 122 1940 273 
Q 2122 425 2216 781 
Q 2359 1319 2359 2297 
Q 2359 3022 2209 3506 
Q 2097 3866 1919 4016 
Q 1791 4119 1609 4119 
Q 1397 4119 1231 3928 
Q 1006 3669 925 3112 
Q 844 2556 844 2016 
z
" transform="scale(0.015625)"/>
        <path id="TimesNewRomanPSMT-2e" d="M 800 606 
Q 947 606 1047 504 
Q 1147 403 1147 259 
Q 1147 116 1045 14 
Q 944 -88 800 -88 
Q 656 -88 554 14 
Q 453 116 453 259 
Q 453 406 554 506 
Q 656 606 800 606 
z
" transform="scale(0.015625)"/>
       </defs>
       <use xlink:href="#TimesNewRomanPSMT-30"/>
       <use xlink:href="#TimesNewRomanPSMT-2e" transform="translate(50 0)"/>
       <use xlink:href="#TimesNewRomanPSMT-30" transform="translate(75 0)"/>
      </g>
     </g>
    </g>
    <g id="xtick_2">
     <g id="line2d_3">
      <path d="M 501.508068 311.6435 
L 501.508068 45.5315 
" clip-path="url(#p7735f4fb53)" style="fill: none; stroke: #b0b0b0; stroke-opacity: 0.3; stroke-width: 0.8; stroke-linecap: square"/>
     </g>
     <g id="line2d_4">
      <g>
       <use xlink:href="#med4ffc95f1" x="501.508068" y="311.6435" style="stroke: #000000; stroke-width: 0.8"/>
      </g>
     </g>
     <g id="text_2">
      <!-- 0.5 -->
      <g transform="translate(487.758068 333.91975) scale(0.22 -0.22)">
       <defs>
        <path id="TimesNewRomanPSMT-35" d="M 2778 4238 
L 2534 3706 
L 1259 3706 
L 981 3138 
Q 1809 3016 2294 2522 
Q 2709 2097 2709 1522 
Q 2709 1188 2573 903 
Q 2438 619 2231 419 
Q 2025 219 1772 97 
Q 1413 -75 1034 -75 
Q 653 -75 479 54 
Q 306 184 306 341 
Q 306 428 378 495 
Q 450 563 559 563 
Q 641 563 702 538 
Q 763 513 909 409 
Q 1144 247 1384 247 
Q 1750 247 2026 523 
Q 2303 800 2303 1197 
Q 2303 1581 2056 1914 
Q 1809 2247 1375 2428 
Q 1034 2569 447 2591 
L 1259 4238 
L 2778 4238 
z
" transform="scale(0.015625)"/>
       </defs>
       <use xlink:href="#TimesNewRomanPSMT-30"/>
       <use xlink:href="#TimesNewRomanPSMT-2e" transform="translate(50 0)"/>
       <use xlink:href="#TimesNewRomanPSMT-35" transform="translate(75 0)"/>
      </g>
     </g>
    </g>
    <g id="xtick_3">
     <g id="line2d_5">
      <path d="M 632.186135 311.6435 
L 632.186135 45.5315 
" clip-path="url(#p7735f4fb53)" style="fill: none; stroke: #b0b0b0; stroke-opacity: 0.3; stroke-width: 0.8; stroke-linecap: square"/>
     </g>
     <g id="line2d_6">
      <g>
       <use xlink:href="#med4ffc95f1" x="632.186135" y="311.6435" style="stroke: #000000; stroke-width: 0.8"/>
      </g>
     </g>
     <g id="text_3">
      <!-- 1.0 -->
      <g transform="translate(618.436135 333.91975) scale(0.22 -0.22)">
       <defs>
        <path id="TimesNewRomanPSMT-31" d="M 750 3822 
L 1781 4325 
L 1884 4325 
L 1884 747 
Q 1884 391 1914 303 
Q 1944 216 2037 169 
Q 2131 122 2419 116 
L 2419 0 
L 825 0 
L 825 116 
Q 1125 122 1212 167 
Q 1300 213 1334 289 
Q 1369 366 1369 747 
L 1369 3034 
Q 1369 3497 1338 3628 
Q 1316 3728 1258 3775 
Q 1200 3822 1119 3822 
Q 1003 3822 797 3725 
L 750 3822 
z
" transform="scale(0.015625)"/>
       </defs>
       <use xlink:href="#TimesNewRomanPSMT-31"/>
       <use xlink:href="#TimesNewRomanPSMT-2e" transform="translate(50 0)"/>
       <use xlink:href="#TimesNewRomanPSMT-30" transform="translate(75 0)"/>
      </g>
     </g>
    </g>
    <g id="text_4">
     <!-- $\kappa  = \frac{ln(n)}{ln(d)}$ -->
     <g transform="translate(517.38 364.185687) scale(0.22 -0.22)">
      <defs>
       <path id="STIXGeneral-Italic-3ba" d="M 979 1440 
L 998 1446 
Q 1850 2541 2464 2790 
Q 2547 2822 2630 2822 
Q 2797 2822 2886 2736 
Q 2976 2650 2976 2522 
Q 2976 2387 2893 2307 
Q 2810 2227 2682 2227 
Q 2605 2227 2502 2288 
Q 2400 2349 2336 2349 
Q 2170 2349 1990 2205 
Q 1811 2061 1414 1645 
L 2042 544 
Q 2202 262 2310 182 
Q 2419 102 2624 102 
L 2624 0 
Q 2374 -83 2182 -83 
Q 1786 -83 1555 326 
L 960 1350 
L 576 0 
L 90 0 
L 640 1978 
Q 730 2317 730 2406 
Q 730 2560 518 2560 
L 339 2560 
L 339 2650 
Q 678 2694 1306 2822 
L 1325 2803 
L 979 1440 
z
" transform="scale(0.015625)"/>
       <path id="STIXGeneral-Regular-3d" d="M 4077 2048 
L 307 2048 
L 307 2470 
L 4077 2470 
L 4077 2048 
z
M 4077 768 
L 307 768 
L 307 1190 
L 4077 1190 
L 4077 768 
z
" transform="scale(0.015625)"/>
       <path id="STIXGeneral-Italic-6c" d="M 1786 4339 
L 806 595 
Q 755 410 755 320 
Q 755 205 864 205 
Q 1037 205 1293 570 
L 1453 794 
L 1542 730 
Q 1254 275 1046 102 
Q 838 -70 576 -70 
Q 262 -70 262 288 
Q 262 397 288 480 
L 1165 3834 
Q 1184 3898 1184 3955 
Q 1184 4096 870 4096 
L 755 4096 
L 755 4198 
Q 1203 4250 1747 4371 
L 1786 4339 
z
" transform="scale(0.015625)"/>
       <path id="STIXGeneral-Italic-6e" d="M 2944 749 
L 3034 666 
Q 2707 218 2534 80 
Q 2362 -58 2138 -58 
Q 2010 -58 1923 28 
Q 1837 115 1837 288 
Q 1837 390 1939 768 
L 2221 1805 
Q 2310 2150 2310 2310 
Q 2310 2496 2157 2496 
Q 1971 2496 1750 2275 
Q 1530 2054 1210 1587 
Q 998 1274 899 1024 
Q 800 774 570 0 
L 90 0 
L 704 2240 
Q 717 2304 717 2349 
Q 717 2445 630 2480 
Q 544 2515 301 2522 
L 301 2624 
Q 550 2675 857 2729 
Q 1165 2784 1338 2822 
L 1363 2810 
L 934 1414 
Q 1408 2170 1753 2496 
Q 2099 2822 2413 2822 
Q 2611 2822 2720 2716 
Q 2829 2611 2829 2432 
Q 2829 2272 2765 2048 
L 2406 749 
Q 2317 429 2317 358 
Q 2317 243 2419 243 
Q 2541 243 2810 582 
Q 2854 634 2944 749 
z
" transform="scale(0.015625)"/>
       <path id="STIXGeneral-Regular-28" d="M 1946 -1030 
L 1869 -1133 
Q 1126 -710 716 32 
Q 307 774 307 1613 
Q 307 3386 1888 4326 
L 1946 4224 
Q 1293 3667 1075 3126 
Q 858 2586 858 1632 
Q 858 685 1082 96 
Q 1306 -493 1946 -1030 
z
" transform="scale(0.015625)"/>
       <path id="STIXGeneral-Regular-29" d="M 186 4224 
L 262 4326 
Q 992 3891 1408 3148 
Q 1824 2406 1824 1581 
Q 1824 -166 243 -1133 
L 186 -1030 
Q 845 -486 1059 54 
Q 1274 595 1274 1562 
Q 1274 2534 1059 3120 
Q 845 3706 186 4224 
z
" transform="scale(0.015625)"/>
       <path id="STIXGeneral-Italic-64" d="M 3334 4371 
L 3373 4333 
L 3123 3360 
L 2739 1958 
Q 2323 429 2323 384 
Q 2323 256 2438 256 
Q 2522 256 2614 336 
Q 2707 416 2963 710 
L 3040 646 
Q 2547 -83 2099 -83 
Q 1978 -83 1907 -6 
Q 1837 70 1837 205 
Q 1837 397 1920 774 
Q 1645 307 1379 118 
Q 1114 -70 781 -70 
Q 461 -70 278 125 
Q 96 320 96 678 
Q 96 1440 713 2131 
Q 1331 2822 1965 2822 
Q 2163 2822 2256 2732 
Q 2349 2643 2381 2451 
L 2387 2451 
L 2675 3494 
Q 2765 3808 2765 3949 
Q 2765 4051 2694 4076 
Q 2624 4102 2355 4115 
L 2355 4224 
Q 2848 4269 3334 4371 
z
M 2278 2310 
Q 2278 2477 2185 2576 
Q 2093 2675 1978 2675 
Q 1677 2675 1395 2381 
Q 1075 2042 864 1571 
Q 653 1101 653 704 
Q 653 486 752 361 
Q 851 237 1024 237 
Q 1312 237 1606 550 
Q 1901 864 2089 1350 
Q 2278 1837 2278 2310 
z
" transform="scale(0.015625)"/>
      </defs>
      <use xlink:href="#STIXGeneral-Italic-3ba" transform="translate(0 0.003125)"/>
      <use xlink:href="#STIXGeneral-Regular-3d" transform="translate(58.83999 0.003125)"/>
      <use xlink:href="#STIXGeneral-Italic-6c" transform="translate(141.779971 50.192188) scale(0.7)"/>
      <use xlink:href="#STIXGeneral-Italic-6e" transform="translate(161.239963 50.192188) scale(0.7)"/>
      <use xlink:href="#STIXGeneral-Regular-28" transform="translate(196.239952 50.192188) scale(0.7)"/>
      <use xlink:href="#STIXGeneral-Italic-6e" transform="translate(219.549944 50.192188) scale(0.7)"/>
      <use xlink:href="#STIXGeneral-Regular-29" transform="translate(254.549933 50.192188) scale(0.7)"/>
      <use xlink:href="#STIXGeneral-Italic-6c" transform="translate(141.779971 -41.257812) scale(0.7)"/>
      <use xlink:href="#STIXGeneral-Italic-6e" transform="translate(161.239963 -41.257812) scale(0.7)"/>
      <use xlink:href="#STIXGeneral-Regular-28" transform="translate(196.239952 -41.257812) scale(0.7)"/>
      <use xlink:href="#STIXGeneral-Italic-64" transform="translate(219.549944 -41.257812) scale(0.7)"/>
      <use xlink:href="#STIXGeneral-Regular-29" transform="translate(254.549933 -41.257812) scale(0.7)"/>
      <path d="M 141.779971 12.8 
L 141.779971 19.05 
L 277.859924 19.05 
L 277.859924 12.8 
L 141.779971 12.8 
z
"/>
     </g>
    </g>
   </g>
   <g id="matplotlib.axis_2">
    <g id="ytick_1">
     <g id="line2d_7">
      <path d="M 370.83 311.6435 
L 727.95 311.6435 
" clip-path="url(#p7735f4fb53)" style="fill: none; stroke: #b0b0b0; stroke-opacity: 0.3; stroke-width: 0.8; stroke-linecap: square"/>
     </g>
     <g id="line2d_8">
      <defs>
       <path id="m1eb50b70a2" d="M 0 0 
L -3.5 0 
" style="stroke: #000000; stroke-width: 0.8"/>
      </defs>
      <g>
       <use xlink:href="#m1eb50b70a2" x="370.83" y="311.6435" style="stroke: #000000; stroke-width: 0.8"/>
      </g>
     </g>
     <g id="text_5">
      <!-- 0.0 -->
      <g transform="translate(336.33 319.281625) scale(0.22 -0.22)">
       <use xlink:href="#TimesNewRomanPSMT-30"/>
       <use xlink:href="#TimesNewRomanPSMT-2e" transform="translate(50 0)"/>
       <use xlink:href="#TimesNewRomanPSMT-30" transform="translate(75 0)"/>
      </g>
     </g>
    </g>
    <g id="ytick_2">
     <g id="line2d_9">
      <path d="M 370.83 285.0323 
L 727.95 285.0323 
" clip-path="url(#p7735f4fb53)" style="fill: none; stroke: #b0b0b0; stroke-opacity: 0.3; stroke-width: 0.8; stroke-linecap: square"/>
     </g>
     <g id="line2d_10">
      <g>
       <use xlink:href="#m1eb50b70a2" x="370.83" y="285.0323" style="stroke: #000000; stroke-width: 0.8"/>
      </g>
     </g>
     <g id="text_6">
      <!-- 0.1 -->
      <g transform="translate(336.33 292.670425) scale(0.22 -0.22)">
       <use xlink:href="#TimesNewRomanPSMT-30"/>
       <use xlink:href="#TimesNewRomanPSMT-2e" transform="translate(50 0)"/>
       <use xlink:href="#TimesNewRomanPSMT-31" transform="translate(75 0)"/>
      </g>
     </g>
    </g>
    <g id="ytick_3">
     <g id="line2d_11">
      <path d="M 370.83 258.4211 
L 727.95 258.4211 
" clip-path="url(#p7735f4fb53)" style="fill: none; stroke: #b0b0b0; stroke-opacity: 0.3; stroke-width: 0.8; stroke-linecap: square"/>
     </g>
     <g id="line2d_12">
      <g>
       <use xlink:href="#m1eb50b70a2" x="370.83" y="258.4211" style="stroke: #000000; stroke-width: 0.8"/>
      </g>
     </g>
     <g id="text_7">
      <!-- 0.2 -->
      <g transform="translate(336.33 266.059225) scale(0.22 -0.22)">
       <defs>
        <path id="TimesNewRomanPSMT-32" d="M 2934 816 
L 2638 0 
L 138 0 
L 138 116 
Q 1241 1122 1691 1759 
Q 2141 2397 2141 2925 
Q 2141 3328 1894 3587 
Q 1647 3847 1303 3847 
Q 991 3847 742 3664 
Q 494 3481 375 3128 
L 259 3128 
Q 338 3706 661 4015 
Q 984 4325 1469 4325 
Q 1984 4325 2329 3994 
Q 2675 3663 2675 3213 
Q 2675 2891 2525 2569 
Q 2294 2063 1775 1497 
Q 997 647 803 472 
L 1909 472 
Q 2247 472 2383 497 
Q 2519 522 2628 598 
Q 2738 675 2819 816 
L 2934 816 
z
" transform="scale(0.015625)"/>
       </defs>
       <use xlink:href="#TimesNewRomanPSMT-30"/>
       <use xlink:href="#TimesNewRomanPSMT-2e" transform="translate(50 0)"/>
       <use xlink:href="#TimesNewRomanPSMT-32" transform="translate(75 0)"/>
      </g>
     </g>
    </g>
    <g id="ytick_4">
     <g id="line2d_13">
      <path d="M 370.83 231.8099 
L 727.95 231.8099 
" clip-path="url(#p7735f4fb53)" style="fill: none; stroke: #b0b0b0; stroke-opacity: 0.3; stroke-width: 0.8; stroke-linecap: square"/>
     </g>
     <g id="line2d_14">
      <g>
       <use xlink:href="#m1eb50b70a2" x="370.83" y="231.8099" style="stroke: #000000; stroke-width: 0.8"/>
      </g>
     </g>
     <g id="text_8">
      <!-- 0.3 -->
      <g transform="translate(336.33 239.448025) scale(0.22 -0.22)">
       <defs>
        <path id="TimesNewRomanPSMT-33" d="M 325 3431 
Q 506 3859 782 4092 
Q 1059 4325 1472 4325 
Q 1981 4325 2253 3994 
Q 2459 3747 2459 3466 
Q 2459 3003 1878 2509 
Q 2269 2356 2469 2072 
Q 2669 1788 2669 1403 
Q 2669 853 2319 450 
Q 1863 -75 997 -75 
Q 569 -75 414 31 
Q 259 138 259 259 
Q 259 350 332 419 
Q 406 488 509 488 
Q 588 488 669 463 
Q 722 447 909 348 
Q 1097 250 1169 231 
Q 1284 197 1416 197 
Q 1734 197 1970 444 
Q 2206 691 2206 1028 
Q 2206 1275 2097 1509 
Q 2016 1684 1919 1775 
Q 1784 1900 1550 2001 
Q 1316 2103 1072 2103 
L 972 2103 
L 972 2197 
Q 1219 2228 1467 2375 
Q 1716 2522 1828 2728 
Q 1941 2934 1941 3181 
Q 1941 3503 1739 3701 
Q 1538 3900 1238 3900 
Q 753 3900 428 3381 
L 325 3431 
z
" transform="scale(0.015625)"/>
       </defs>
       <use xlink:href="#TimesNewRomanPSMT-30"/>
       <use xlink:href="#TimesNewRomanPSMT-2e" transform="translate(50 0)"/>
       <use xlink:href="#TimesNewRomanPSMT-33" transform="translate(75 0)"/>
      </g>
     </g>
    </g>
    <g id="ytick_5">
     <g id="line2d_15">
      <path d="M 370.83 205.1987 
L 727.95 205.1987 
" clip-path="url(#p7735f4fb53)" style="fill: none; stroke: #b0b0b0; stroke-opacity: 0.3; stroke-width: 0.8; stroke-linecap: square"/>
     </g>
     <g id="line2d_16">
      <g>
       <use xlink:href="#m1eb50b70a2" x="370.83" y="205.1987" style="stroke: #000000; stroke-width: 0.8"/>
      </g>
     </g>
     <g id="text_9">
      <!-- 0.4 -->
      <g transform="translate(336.33 212.836825) scale(0.22 -0.22)">
       <defs>
        <path id="TimesNewRomanPSMT-34" d="M 2978 1563 
L 2978 1119 
L 2409 1119 
L 2409 0 
L 1894 0 
L 1894 1119 
L 100 1119 
L 100 1519 
L 2066 4325 
L 2409 4325 
L 2409 1563 
L 2978 1563 
z
M 1894 1563 
L 1894 3666 
L 406 1563 
L 1894 1563 
z
" transform="scale(0.015625)"/>
       </defs>
       <use xlink:href="#TimesNewRomanPSMT-30"/>
       <use xlink:href="#TimesNewRomanPSMT-2e" transform="translate(50 0)"/>
       <use xlink:href="#TimesNewRomanPSMT-34" transform="translate(75 0)"/>
      </g>
     </g>
    </g>
    <g id="ytick_6">
     <g id="line2d_17">
      <path d="M 370.83 178.5875 
L 727.95 178.5875 
" clip-path="url(#p7735f4fb53)" style="fill: none; stroke: #b0b0b0; stroke-opacity: 0.3; stroke-width: 0.8; stroke-linecap: square"/>
     </g>
     <g id="line2d_18">
      <g>
       <use xlink:href="#m1eb50b70a2" x="370.83" y="178.5875" style="stroke: #000000; stroke-width: 0.8"/>
      </g>
     </g>
     <g id="text_10">
      <!-- 0.5 -->
      <g transform="translate(336.33 186.225625) scale(0.22 -0.22)">
       <use xlink:href="#TimesNewRomanPSMT-30"/>
       <use xlink:href="#TimesNewRomanPSMT-2e" transform="translate(50 0)"/>
       <use xlink:href="#TimesNewRomanPSMT-35" transform="translate(75 0)"/>
      </g>
     </g>
    </g>
    <g id="ytick_7">
     <g id="line2d_19">
      <path d="M 370.83 151.9763 
L 727.95 151.9763 
" clip-path="url(#p7735f4fb53)" style="fill: none; stroke: #b0b0b0; stroke-opacity: 0.3; stroke-width: 0.8; stroke-linecap: square"/>
     </g>
     <g id="line2d_20">
      <g>
       <use xlink:href="#m1eb50b70a2" x="370.83" y="151.9763" style="stroke: #000000; stroke-width: 0.8"/>
      </g>
     </g>
     <g id="text_11">
      <!-- 0.6 -->
      <g transform="translate(336.33 159.614425) scale(0.22 -0.22)">
       <defs>
        <path id="TimesNewRomanPSMT-36" d="M 2869 4325 
L 2869 4209 
Q 2456 4169 2195 4045 
Q 1934 3922 1679 3669 
Q 1425 3416 1258 3105 
Q 1091 2794 978 2366 
Q 1428 2675 1881 2675 
Q 2316 2675 2634 2325 
Q 2953 1975 2953 1425 
Q 2953 894 2631 456 
Q 2244 -75 1606 -75 
Q 1172 -75 869 213 
Q 275 772 275 1663 
Q 275 2231 503 2743 
Q 731 3256 1154 3653 
Q 1578 4050 1965 4187 
Q 2353 4325 2688 4325 
L 2869 4325 
z
M 925 2138 
Q 869 1716 869 1456 
Q 869 1156 980 804 
Q 1091 453 1309 247 
Q 1469 100 1697 100 
Q 1969 100 2183 356 
Q 2397 613 2397 1088 
Q 2397 1622 2184 2012 
Q 1972 2403 1581 2403 
Q 1463 2403 1327 2353 
Q 1191 2303 925 2138 
z
" transform="scale(0.015625)"/>
       </defs>
       <use xlink:href="#TimesNewRomanPSMT-30"/>
       <use xlink:href="#TimesNewRomanPSMT-2e" transform="translate(50 0)"/>
       <use xlink:href="#TimesNewRomanPSMT-36" transform="translate(75 0)"/>
      </g>
     </g>
    </g>
    <g id="ytick_8">
     <g id="line2d_21">
      <path d="M 370.83 125.3651 
L 727.95 125.3651 
" clip-path="url(#p7735f4fb53)" style="fill: none; stroke: #b0b0b0; stroke-opacity: 0.3; stroke-width: 0.8; stroke-linecap: square"/>
     </g>
     <g id="line2d_22">
      <g>
       <use xlink:href="#m1eb50b70a2" x="370.83" y="125.3651" style="stroke: #000000; stroke-width: 0.8"/>
      </g>
     </g>
     <g id="text_12">
      <!-- 0.7 -->
      <g transform="translate(336.33 133.003225) scale(0.22 -0.22)">
       <defs>
        <path id="TimesNewRomanPSMT-37" d="M 644 4238 
L 2916 4238 
L 2916 4119 
L 1503 -88 
L 1153 -88 
L 2419 3728 
L 1253 3728 
Q 900 3728 750 3644 
Q 488 3500 328 3200 
L 238 3234 
L 644 4238 
z
" transform="scale(0.015625)"/>
       </defs>
       <use xlink:href="#TimesNewRomanPSMT-30"/>
       <use xlink:href="#TimesNewRomanPSMT-2e" transform="translate(50 0)"/>
       <use xlink:href="#TimesNewRomanPSMT-37" transform="translate(75 0)"/>
      </g>
     </g>
    </g>
    <g id="ytick_9">
     <g id="line2d_23">
      <path d="M 370.83 98.7539 
L 727.95 98.7539 
" clip-path="url(#p7735f4fb53)" style="fill: none; stroke: #b0b0b0; stroke-opacity: 0.3; stroke-width: 0.8; stroke-linecap: square"/>
     </g>
     <g id="line2d_24">
      <g>
       <use xlink:href="#m1eb50b70a2" x="370.83" y="98.7539" style="stroke: #000000; stroke-width: 0.8"/>
      </g>
     </g>
     <g id="text_13">
      <!-- 0.8 -->
      <g transform="translate(336.33 106.392025) scale(0.22 -0.22)">
       <defs>
        <path id="TimesNewRomanPSMT-38" d="M 1228 2134 
Q 725 2547 579 2797 
Q 434 3047 434 3316 
Q 434 3728 753 4026 
Q 1072 4325 1600 4325 
Q 2113 4325 2425 4047 
Q 2738 3769 2738 3413 
Q 2738 3175 2569 2928 
Q 2400 2681 1866 2347 
Q 2416 1922 2594 1678 
Q 2831 1359 2831 1006 
Q 2831 559 2490 242 
Q 2150 -75 1597 -75 
Q 994 -75 656 303 
Q 388 606 388 966 
Q 388 1247 577 1523 
Q 766 1800 1228 2134 
z
M 1719 2469 
Q 2094 2806 2194 3001 
Q 2294 3197 2294 3444 
Q 2294 3772 2109 3958 
Q 1925 4144 1606 4144 
Q 1288 4144 1088 3959 
Q 888 3775 888 3528 
Q 888 3366 970 3203 
Q 1053 3041 1206 2894 
L 1719 2469 
z
M 1375 2016 
Q 1116 1797 991 1539 
Q 866 1281 866 981 
Q 866 578 1086 336 
Q 1306 94 1647 94 
Q 1984 94 2187 284 
Q 2391 475 2391 747 
Q 2391 972 2272 1150 
Q 2050 1481 1375 2016 
z
" transform="scale(0.015625)"/>
       </defs>
       <use xlink:href="#TimesNewRomanPSMT-30"/>
       <use xlink:href="#TimesNewRomanPSMT-2e" transform="translate(50 0)"/>
       <use xlink:href="#TimesNewRomanPSMT-38" transform="translate(75 0)"/>
      </g>
     </g>
    </g>
    <g id="ytick_10">
     <g id="line2d_25">
      <path d="M 370.83 72.1427 
L 727.95 72.1427 
" clip-path="url(#p7735f4fb53)" style="fill: none; stroke: #b0b0b0; stroke-opacity: 0.3; stroke-width: 0.8; stroke-linecap: square"/>
     </g>
     <g id="line2d_26">
      <g>
       <use xlink:href="#m1eb50b70a2" x="370.83" y="72.1427" style="stroke: #000000; stroke-width: 0.8"/>
      </g>
     </g>
     <g id="text_14">
      <!-- 0.9 -->
      <g transform="translate(336.33 79.780825) scale(0.22 -0.22)">
       <defs>
        <path id="TimesNewRomanPSMT-39" d="M 338 -88 
L 338 28 
Q 744 34 1094 217 
Q 1444 400 1770 856 
Q 2097 1313 2225 1859 
Q 1734 1544 1338 1544 
Q 891 1544 572 1889 
Q 253 2234 253 2806 
Q 253 3363 572 3797 
Q 956 4325 1575 4325 
Q 2097 4325 2469 3894 
Q 2925 3359 2925 2575 
Q 2925 1869 2578 1258 
Q 2231 647 1613 244 
Q 1109 -88 516 -88 
L 338 -88 
z
M 2275 2091 
Q 2331 2497 2331 2741 
Q 2331 3044 2228 3395 
Q 2125 3747 1936 3934 
Q 1747 4122 1506 4122 
Q 1228 4122 1018 3872 
Q 809 3622 809 3128 
Q 809 2469 1088 2097 
Q 1291 1828 1588 1828 
Q 1731 1828 1928 1897 
Q 2125 1966 2275 2091 
z
" transform="scale(0.015625)"/>
       </defs>
       <use xlink:href="#TimesNewRomanPSMT-30"/>
       <use xlink:href="#TimesNewRomanPSMT-2e" transform="translate(50 0)"/>
       <use xlink:href="#TimesNewRomanPSMT-39" transform="translate(75 0)"/>
      </g>
     </g>
    </g>
    <g id="ytick_11">
     <g id="line2d_27">
      <path d="M 370.83 45.5315 
L 727.95 45.5315 
" clip-path="url(#p7735f4fb53)" style="fill: none; stroke: #b0b0b0; stroke-opacity: 0.3; stroke-width: 0.8; stroke-linecap: square"/>
     </g>
     <g id="line2d_28">
      <g>
       <use xlink:href="#m1eb50b70a2" x="370.83" y="45.5315" style="stroke: #000000; stroke-width: 0.8"/>
      </g>
     </g>
     <g id="text_15">
      <!-- 1.0 -->
      <g transform="translate(336.33 53.169625) scale(0.22 -0.22)">
       <use xlink:href="#TimesNewRomanPSMT-31"/>
       <use xlink:href="#TimesNewRomanPSMT-2e" transform="translate(50 0)"/>
       <use xlink:href="#TimesNewRomanPSMT-30" transform="translate(75 0)"/>
      </g>
     </g>
    </g>
    <g id="text_16">
     <!-- Accuracy -->
     <g transform="translate(327.582813 220.726094) rotate(-90) scale(0.22 -0.22)">
      <defs>
       <path id="TimesNewRomanPSMT-41" d="M 2928 1419 
L 1288 1419 
L 1000 750 
Q 894 503 894 381 
Q 894 284 986 211 
Q 1078 138 1384 116 
L 1384 0 
L 50 0 
L 50 116 
Q 316 163 394 238 
Q 553 388 747 847 
L 2238 4334 
L 2347 4334 
L 3822 809 
Q 4000 384 4145 257 
Q 4291 131 4550 116 
L 4550 0 
L 2878 0 
L 2878 116 
Q 3131 128 3220 200 
Q 3309 272 3309 375 
Q 3309 513 3184 809 
L 2928 1419 
z
M 2841 1650 
L 2122 3363 
L 1384 1650 
L 2841 1650 
z
" transform="scale(0.015625)"/>
       <path id="TimesNewRomanPSMT-63" d="M 2631 1088 
Q 2516 522 2178 217 
Q 1841 -88 1431 -88 
Q 944 -88 581 321 
Q 219 731 219 1428 
Q 219 2103 620 2525 
Q 1022 2947 1584 2947 
Q 2006 2947 2278 2723 
Q 2550 2500 2550 2259 
Q 2550 2141 2473 2067 
Q 2397 1994 2259 1994 
Q 2075 1994 1981 2113 
Q 1928 2178 1911 2362 
Q 1894 2547 1784 2644 
Q 1675 2738 1481 2738 
Q 1169 2738 978 2506 
Q 725 2200 725 1697 
Q 725 1184 976 792 
Q 1228 400 1656 400 
Q 1963 400 2206 609 
Q 2378 753 2541 1131 
L 2631 1088 
z
" transform="scale(0.015625)"/>
       <path id="TimesNewRomanPSMT-75" d="M 2709 2863 
L 2709 1128 
Q 2709 631 2732 520 
Q 2756 409 2807 365 
Q 2859 322 2928 322 
Q 3025 322 3147 375 
L 3191 266 
L 2334 -88 
L 2194 -88 
L 2194 519 
Q 1825 119 1631 15 
Q 1438 -88 1222 -88 
Q 981 -88 804 51 
Q 628 191 559 409 
Q 491 628 491 1028 
L 491 2306 
Q 491 2509 447 2587 
Q 403 2666 317 2708 
Q 231 2750 6 2747 
L 6 2863 
L 1009 2863 
L 1009 947 
Q 1009 547 1148 422 
Q 1288 297 1484 297 
Q 1619 297 1789 381 
Q 1959 466 2194 703 
L 2194 2325 
Q 2194 2569 2105 2655 
Q 2016 2741 1734 2747 
L 1734 2863 
L 2709 2863 
z
" transform="scale(0.015625)"/>
       <path id="TimesNewRomanPSMT-72" d="M 1038 2947 
L 1038 2303 
Q 1397 2947 1775 2947 
Q 1947 2947 2059 2842 
Q 2172 2738 2172 2600 
Q 2172 2478 2090 2393 
Q 2009 2309 1897 2309 
Q 1788 2309 1652 2417 
Q 1516 2525 1450 2525 
Q 1394 2525 1328 2463 
Q 1188 2334 1038 2041 
L 1038 669 
Q 1038 431 1097 309 
Q 1138 225 1241 169 
Q 1344 113 1538 113 
L 1538 0 
L 72 0 
L 72 113 
Q 291 113 397 181 
Q 475 231 506 341 
Q 522 394 522 644 
L 522 1753 
Q 522 2253 501 2348 
Q 481 2444 426 2487 
Q 372 2531 291 2531 
Q 194 2531 72 2484 
L 41 2597 
L 906 2947 
L 1038 2947 
z
" transform="scale(0.015625)"/>
       <path id="TimesNewRomanPSMT-61" d="M 1822 413 
Q 1381 72 1269 19 
Q 1100 -59 909 -59 
Q 613 -59 420 144 
Q 228 347 228 678 
Q 228 888 322 1041 
Q 450 1253 767 1440 
Q 1084 1628 1822 1897 
L 1822 2009 
Q 1822 2438 1686 2597 
Q 1550 2756 1291 2756 
Q 1094 2756 978 2650 
Q 859 2544 859 2406 
L 866 2225 
Q 866 2081 792 2003 
Q 719 1925 600 1925 
Q 484 1925 411 2006 
Q 338 2088 338 2228 
Q 338 2497 613 2722 
Q 888 2947 1384 2947 
Q 1766 2947 2009 2819 
Q 2194 2722 2281 2516 
Q 2338 2381 2338 1966 
L 2338 994 
Q 2338 584 2353 492 
Q 2369 400 2405 369 
Q 2441 338 2488 338 
Q 2538 338 2575 359 
Q 2641 400 2828 588 
L 2828 413 
Q 2478 -56 2159 -56 
Q 2006 -56 1915 50 
Q 1825 156 1822 413 
z
M 1822 616 
L 1822 1706 
Q 1350 1519 1213 1441 
Q 966 1303 859 1153 
Q 753 1003 753 825 
Q 753 600 887 451 
Q 1022 303 1197 303 
Q 1434 303 1822 616 
z
" transform="scale(0.015625)"/>
       <path id="TimesNewRomanPSMT-79" d="M 38 2863 
L 1372 2863 
L 1372 2747 
L 1306 2747 
Q 1166 2747 1095 2686 
Q 1025 2625 1025 2534 
Q 1025 2413 1128 2197 
L 1825 753 
L 2466 2334 
Q 2519 2463 2519 2588 
Q 2519 2644 2497 2672 
Q 2472 2706 2419 2726 
Q 2366 2747 2231 2747 
L 2231 2863 
L 3163 2863 
L 3163 2747 
Q 3047 2734 2984 2696 
Q 2922 2659 2847 2556 
Q 2819 2513 2741 2316 
L 1575 -541 
Q 1406 -956 1132 -1168 
Q 859 -1381 606 -1381 
Q 422 -1381 303 -1275 
Q 184 -1169 184 -1031 
Q 184 -900 270 -820 
Q 356 -741 506 -741 
Q 609 -741 788 -809 
Q 913 -856 944 -856 
Q 1038 -856 1148 -759 
Q 1259 -663 1372 -384 
L 1575 113 
L 547 2272 
Q 500 2369 397 2513 
Q 319 2622 269 2659 
Q 197 2709 38 2747 
L 38 2863 
z
" transform="scale(0.015625)"/>
      </defs>
      <use xlink:href="#TimesNewRomanPSMT-41"/>
      <use xlink:href="#TimesNewRomanPSMT-63" transform="translate(72.216797 0)"/>
      <use xlink:href="#TimesNewRomanPSMT-63" transform="translate(116.601562 0)"/>
      <use xlink:href="#TimesNewRomanPSMT-75" transform="translate(160.986328 0)"/>
      <use xlink:href="#TimesNewRomanPSMT-72" transform="translate(210.986328 0)"/>
      <use xlink:href="#TimesNewRomanPSMT-61" transform="translate(244.287109 0)"/>
      <use xlink:href="#TimesNewRomanPSMT-63" transform="translate(288.671875 0)"/>
      <use xlink:href="#TimesNewRomanPSMT-79" transform="translate(333.056641 0)"/>
     </g>
    </g>
   </g>
   <g id="line2d_29">
    <path d="M 370.83 178.454438 
L 461.270787 118.180077 
L 485.653588 137.606256 
L 500.339083 131.086509 
L 510.88126 115.119788 
L 519.110807 118.446185 
L 525.862043 112.724779 
L 531.586065 113.256997 
L 536.554571 105.007536 
L 540.943947 103.144744 
L 544.875215 98.886959 
L 548.435026 95.294438 
L 551.687556 95.560562 
L 554.681664 94.629158 
L 557.455409 93.564708 
L 560.039017 97.290292 
L 562.45689 94.096941 
L 564.729017 95.693609 
L 566.871973 93.2986 
L 568.899659 91.701932 
L 570.823846 89.306923 
L 572.654587 89.306923 
L 574.40054 93.69777 
L 576.069213 89.040815 
L 577.667157 87.044977 
L 579.200126 86.911915 
L 582.090877 88.508582 
L 583.457179 85.448294 
L 584.775699 87.444148 
L 586.049665 85.980527 
L 587.281991 84.117735 
L 588.475313 85.315247 
L 589.632023 85.581356 
L 590.754303 83.452456 
L 591.844142 85.847464 
L 592.903363 84.649968 
L 593.93364 84.516906 
L 594.936513 84.649968 
L 595.913402 84.916077 
L 596.865619 84.117735 
L 597.79438 83.585518 
L 598.700813 84.383859 
L 599.585966 82.521068 
L 600.450816 83.585518 
L 601.296272 85.315247 
L 602.123187 82.388005 
L 602.932355 82.121897 
L 603.724522 83.186347 
L 604.500388 81.855788 
L 605.260611 83.984689 
L 606.005809 82.121897 
L 606.736564 84.783014 
L 607.453425 81.722726 
L 608.156912 82.920238 
L 608.847513 83.718564 
L 609.525693 80.658292 
L 610.19189 82.787176 
L 610.84652 81.855788 
L 611.489979 82.920238 
L 612.122641 81.190509 
L 612.744862 81.323571 
L 613.356983 81.98885 
L 613.959324 82.121897 
L 614.552194 81.98885 
L 615.135886 92.63332 
L 615.71068 81.190509 
L 616.276844 83.053285 
L 616.834631 81.323571 
L 617.384288 82.65413 
L 617.926047 81.057447 
L 618.460131 81.58968 
L 618.986757 81.190509 
L 619.506128 81.58968 
L 620.018442 82.65413 
L 620.523889 81.456617 
L 621.02265 81.057447 
L 621.514899 81.722726 
L 622.000805 81.855788 
L 622.480528 81.456617 
L 622.954225 80.259121 
L 623.422044 80.392167 
L 623.88413 81.855788 
L 624.340622 80.52523 
L 624.791653 80.259121 
L 625.237353 81.456617 
L 625.677846 80.52523 
L 626.113252 80.392167 
L 626.543687 80.126059 
L 626.969265 80.126059 
L 627.390092 80.9244 
L 627.806275 80.52523 
L 628.217914 80.392167 
L 628.625107 79.992997 
L 629.02795 79.992997 
L 629.426535 80.126059 
L 629.82095 80.126059 
L 630.597615 80.658292 
L 630.98003 79.593842 
L 631.358605 79.593842 
L 631.733416 79.992997 
L 632.104539 79.327717 
L 632.472044 79.460779 
L 632.836002 82.521068 
L 633.19648 79.194671 
L 633.553545 81.057447 
L 633.90726 78.7955 
L 634.257688 79.327717 
L 634.604889 81.057447 
L 634.948922 78.928562 
L 635.289844 78.662438 
L 635.627711 78.928562 
L 635.962578 78.529391 
L 636.294497 78.928562 
L 636.623519 79.85995 
L 636.949696 80.259121 
L 637.273075 78.662438 
L 637.593704 83.319409 
L 637.911629 83.319409 
L 638.226896 85.182185 
L 638.539549 81.190509 
L 638.849631 85.980527 
L 639.157184 83.585518 
L 639.462248 87.710256 
L 639.764864 81.057447 
L 640.065071 79.460779 
L 640.362906 79.85995 
L 640.658407 91.036653 
L 640.95161 83.186347 
L 641.242551 83.984689 
L 641.817783 78.263283 
L 642.102142 78.396329 
L 642.384372 77.464941 
L 642.664505 77.73105 
L 642.942572 79.593842 
L 643.218603 77.198833 
L 643.492629 78.263283 
L 643.764677 80.791338 
L 644.034777 78.662438 
L 644.302955 78.529391 
L 644.56924 81.190509 
L 644.833657 79.992997 
L 645.096233 78.263283 
L 645.356993 80.259121 
L 645.615962 78.928562 
L 646.128624 86.645806 
L 646.382365 80.791338 
L 646.63441 80.658292 
L 646.884781 92.23415 
L 647.1335 81.855788 
L 647.38059 83.984689 
L 647.626071 90.238311 
L 647.869964 81.323571 
L 648.11229 83.319409 
L 648.353068 80.791338 
L 648.592318 80.52523 
L 648.83006 86.911915 
L 649.066312 80.259121 
L 649.301094 80.392167 
L 649.534422 80.259121 
L 649.766315 89.306923 
L 649.996791 80.126059 
L 650.225867 82.254959 
L 650.453559 79.593842 
L 650.679885 79.327717 
L 650.90486 90.105265 
L 651.128501 86.645806 
L 651.350823 85.049139 
L 651.571842 79.85995 
L 651.791573 78.130221 
L 652.010031 77.598003 
L 652.227231 78.529391 
L 652.443186 88.109427 
L 652.657912 79.726888 
L 652.871422 79.726888 
L 653.083729 84.916077 
L 653.504792 79.992997 
L 653.713573 84.916077 
L 653.921204 78.662438 
L 654.127698 89.972203 
L 654.333067 89.040815 
L 654.537324 78.928562 
L 654.740481 78.130221 
L 655.143539 81.057447 
L 655.542334 78.662438 
L 655.740161 78.529391 
L 655.936956 78.662438 
L 656.132728 82.388005 
L 656.52125 76.799662 
L 656.71402 77.331879 
L 656.90581 76.6666 
L 657.286487 78.396329 
L 657.475394 78.529391 
L 657.663359 76.932708 
L 657.850392 76.6666 
L 658.036501 76.6666 
L 658.221697 77.997158 
L 658.405987 89.706094 
L 658.589381 85.847464 
L 658.771888 79.061609 
L 658.953515 78.263283 
L 659.134271 78.928562 
L 659.493205 84.383859 
L 659.671399 80.126059 
L 659.848755 80.126059 
L 660.02528 76.134383 
L 660.375871 77.331879 
L 660.549951 77.198833 
L 660.723231 77.598003 
L 660.895719 89.173861 
L 661.067421 78.396329 
L 661.238345 83.186347 
L 661.408497 79.061609 
L 661.746516 77.598003 
L 662.081531 76.533553 
L 662.247929 76.799662 
L 662.413596 76.400491 
L 662.578539 76.799662 
L 662.742762 77.997158 
L 663.06908 76.533553 
L 663.231186 76.533553 
L 663.392597 76.267429 
L 663.553321 75.735212 
L 663.872728 77.198833 
L 664.031422 77.06577 
L 664.189451 77.598003 
L 664.346821 76.799662 
L 664.503537 78.130221 
L 664.659604 76.533553 
L 664.815027 76.6666 
L 664.969813 85.182185 
L 665.123966 84.783014 
L 665.277491 78.130221 
L 665.430394 85.581356 
L 665.734351 76.6666 
L 665.885416 76.533553 
L 666.035878 76.6666 
L 666.631793 76.00132 
L 666.779312 78.7955 
L 666.926256 77.997158 
L 667.072629 76.00132 
L 667.50837 76.400491 
L 667.652505 75.469103 
L 667.796092 76.6666 
L 667.939133 76.799662 
L 668.081635 75.735212 
L 668.223599 76.932708 
L 668.505935 75.868274 
L 668.646313 75.868274 
L 668.786172 75.60215 
L 668.925513 75.735212 
L 669.064341 76.134383 
L 669.20266 76.134383 
L 669.340474 77.06577 
L 669.477786 75.868274 
L 669.614599 77.06577 
L 669.886745 76.134383 
L 670.156942 77.997158 
L 670.291317 77.198833 
L 670.425216 77.198833 
L 670.55864 76.267429 
L 670.691594 77.198833 
L 670.824081 82.65413 
L 670.956104 77.464941 
L 671.087666 81.58968 
L 671.218771 78.263283 
L 671.349422 78.263283 
L 671.479621 83.585518 
L 671.609373 77.464941 
L 671.738679 79.85995 
L 671.867544 79.460779 
L 671.995969 78.263283 
L 672.123959 81.855788 
L 672.251516 77.464941 
L 672.378642 78.529391 
L 672.505342 80.9244 
L 672.631617 78.130221 
L 672.757471 77.864112 
L 672.882906 86.246635 
L 673.132531 76.533553 
L 673.256726 77.598003 
L 673.380514 81.057447 
L 673.503897 81.057447 
L 673.749458 77.864112 
L 673.871641 77.997158 
L 674.114826 78.662438 
L 674.235833 77.464941 
L 674.356453 84.250797 
L 674.476688 77.331879 
L 674.596541 90.105265 
L 674.716014 77.73105 
L 674.953831 81.722726 
L 675.07218 78.396329 
L 675.190158 78.396329 
L 675.307768 78.529391 
L 675.541893 76.533553 
L 675.658412 76.533553 
L 675.774573 76.134383 
L 675.890377 76.400491 
L 676.005826 75.202995 
L 676.120923 75.735212 
L 676.23567 75.202995 
L 676.350068 75.336041 
L 676.577829 75.868274 
L 676.691196 76.00132 
L 676.916912 80.658292 
L 677.029265 77.73105 
L 677.252972 82.787176 
L 677.36433 81.057447 
L 677.47536 81.722726 
L 677.586064 81.057447 
L 677.806502 76.134383 
L 677.916239 76.134383 
L 678.025658 74.93687 
L 678.243548 75.868274 
L 678.352022 75.735212 
L 678.460186 76.400491 
L 678.675586 81.855788 
L 678.889763 75.469103 
L 679.10273 76.134383 
L 679.208764 75.868274 
L 679.419942 79.194671 
L 679.525089 79.061609 
L 679.629944 80.658292 
L 679.734508 77.864112 
L 679.838783 79.327717 
L 679.94277 76.134383 
L 680.046471 76.799662 
L 680.149888 75.735212 
L 680.253022 76.00132 
L 680.355874 75.735212 
L 680.560741 76.134383 
L 680.662759 81.323571 
L 680.86597 76.134383 
L 681.168748 75.336041 
L 681.269136 76.00132 
L 681.369258 78.529391 
L 681.568706 76.134383 
L 681.668037 86.113573 
L 681.767106 76.400491 
L 681.865916 77.198833 
L 682.062761 75.469103 
L 682.1608 75.336041 
L 682.356117 76.533553 
L 682.647207 81.855788 
L 682.840026 76.400491 
L 682.936067 88.508582 
L 683.031864 76.267429 
L 683.127419 88.641644 
L 683.317804 76.6666 
L 683.412638 76.6666 
L 683.507233 77.73105 
L 683.601592 83.718564 
L 683.695715 78.263283 
L 683.789604 83.186347 
L 683.883259 76.799662 
L 683.976683 76.932708 
L 684.069875 79.061609 
L 684.162838 89.040815 
L 684.348079 77.06577 
L 684.44036 77.464941 
L 684.532415 80.52523 
L 684.715853 75.735212 
L 684.807239 76.134383 
L 684.898404 75.469103 
L 684.989349 76.267429 
L 685.170583 74.138544 
L 685.440812 76.400491 
L 685.530459 75.735212 
L 685.619894 76.134383 
L 685.79813 75.202995 
L 685.886933 75.60215 
L 685.975527 87.311085 
L 686.063914 77.331879 
L 686.152094 77.997158 
L 686.240068 77.997158 
L 686.327837 80.658292 
L 686.415403 77.198833 
L 686.502766 79.061609 
L 686.589926 78.928562 
L 686.763646 75.735212 
L 686.936568 75.202995 
L 687.022733 75.336041 
L 687.108702 75.202995 
L 687.194475 75.868274 
L 687.365437 75.202995 
L 687.535628 75.336041 
L 687.620436 76.400491 
L 687.705054 85.581356 
L 687.789483 77.464941 
L 687.873722 77.73105 
L 688.04164 76.267429 
L 688.125318 77.598003 
L 688.208812 82.121897 
L 688.292121 81.323571 
L 688.375247 76.00132 
L 688.45819 79.194671 
L 688.54095 78.928562 
L 688.62353 77.598003 
L 688.705928 78.662438 
L 688.788148 75.469103 
L 688.870188 75.60215 
L 688.95205 74.93687 
L 689.033735 76.134383 
L 689.196576 74.670762 
L 689.277733 75.202995 
L 689.358716 76.6666 
L 689.520163 74.537715 
L 689.680921 75.336041 
L 689.761043 75.868274 
L 689.840996 77.864112 
L 690.000395 74.537715 
L 690.079842 76.00132 
L 690.159123 79.726888 
L 690.317185 77.331879 
L 690.395969 81.323571 
L 690.474588 80.52523 
L 690.631336 74.670762 
L 690.787435 75.868274 
L 691.020379 74.803824 
L 691.174879 76.400491 
L 691.251893 75.60215 
L 691.328749 76.00132 
L 691.405449 74.803824 
L 691.558383 76.267429 
L 691.710698 74.93687 
L 691.786626 77.864112 
L 691.938025 74.670762 
L 692.013497 75.202995 
L 692.088818 74.537715 
L 692.163989 74.93687 
L 692.23901 74.803824 
L 692.313882 76.533553 
L 692.388606 74.803824 
L 692.537612 76.400491 
L 692.68603 74.93687 
L 692.833867 74.670762 
L 692.907569 75.069932 
L 693.127813 74.271591 
L 693.273931 77.598003 
L 693.346778 86.512744 
L 693.419485 77.198833 
L 693.492052 79.327717 
L 693.636768 76.00132 
L 693.708918 82.787176 
L 693.852806 76.00132 
L 694.067613 75.202995 
L 694.210141 76.267429 
L 694.281204 86.778852 
L 694.352132 76.799662 
L 694.422928 78.662438 
L 694.564122 75.069932 
L 694.634521 75.735212 
L 694.704789 74.803824 
L 694.774926 75.735212 
L 694.844933 75.469103 
L 694.91481 75.735212 
L 695.054177 79.327717 
L 695.262267 75.202995 
L 695.469214 74.537715 
L 695.537945 75.336041 
L 695.606551 75.202995 
L 695.675032 75.069932 
L 695.811622 75.469103 
L 695.879732 75.60215 
L 696.150949 74.93687 
L 696.285829 79.726888 
L 696.353089 75.469103 
L 696.420228 76.00132 
L 696.487249 77.598003 
L 696.620934 75.202995 
L 696.687599 75.60215 
L 696.754146 74.803824 
L 696.820576 75.60215 
L 696.886889 74.537715 
L 696.953086 75.069932 
L 697.019167 75.069932 
L 697.085132 75.336041 
L 697.150982 78.130221 
L 697.282339 75.069932 
L 697.347845 75.069932 
L 697.413239 75.735212 
L 697.478519 75.202995 
L 697.543686 75.60215 
L 697.608741 75.336041 
L 697.673683 75.336041 
L 697.803234 74.803824 
L 698.061008 82.254959 
L 698.125177 75.336041 
L 698.189237 76.400491 
L 698.317031 79.327717 
L 698.571328 74.404653 
L 698.634635 76.00132 
L 698.697836 75.868274 
L 698.760932 75.069932 
L 698.823922 75.60215 
L 698.886806 75.60215 
L 698.949587 78.263283 
L 699.012262 76.267429 
L 699.074834 74.803824 
L 699.137302 75.469103 
L 699.199667 76.134383 
L 699.261929 74.404653 
L 699.324088 75.069932 
L 699.386145 75.868274 
L 699.509953 74.537715 
L 699.633356 76.932708 
L 699.694906 76.267429 
L 699.817706 74.803824 
L 699.878956 75.069932 
L 699.940107 79.85995 
L 700.00116 77.864112 
L 700.062113 77.864112 
L 700.183725 81.456617 
L 700.304946 75.202995 
L 700.425778 75.469103 
L 700.486049 76.00132 
L 700.546224 81.855788 
L 700.606304 76.799662 
L 700.666287 78.130221 
L 700.726176 77.331879 
L 700.785969 88.508582 
L 700.964783 74.271591 
L 701.083522 75.069932 
L 701.142752 74.537715 
L 701.260933 77.73105 
L 701.378745 85.315247 
L 701.437514 76.134383 
L 701.496191 76.400491 
L 701.554776 75.469103 
L 701.613271 75.60215 
L 701.671675 76.134383 
L 701.788213 74.537715 
L 701.846347 76.134383 
L 701.904391 75.469103 
L 701.962347 75.60215 
L 702.020213 75.069932 
L 702.077991 76.267429 
L 702.13568 75.60215 
L 702.193281 75.069932 
L 702.250795 75.336041 
L 702.30822 75.202995 
L 702.42281 81.58968 
L 702.594044 75.735212 
L 702.65095 75.202995 
L 702.70777 75.60215 
L 702.764505 75.60215 
L 702.877718 76.400491 
L 702.990593 87.976365 
L 703.046903 75.469103 
L 703.10313 78.130221 
L 703.159273 77.73105 
L 703.215333 79.992997 
L 703.327203 75.336041 
L 703.383014 75.469103 
L 703.438742 91.56887 
L 703.494388 77.598003 
L 703.549952 80.259121 
L 703.605434 78.662438 
L 703.660835 78.928562 
L 703.82655 75.202995 
L 703.936624 74.803824 
L 703.991541 74.404653 
L 704.101134 76.932708 
L 704.155812 74.670762 
L 704.210411 75.336041 
L 704.26493 74.93687 
L 704.319371 77.331879 
L 704.373733 76.134383 
L 704.428018 76.533553 
L 704.590402 83.053285 
L 704.752091 74.93687 
L 704.805834 74.404653 
L 705.073403 80.126059 
L 705.233038 75.336041 
L 705.2861 80.658292 
L 705.339087 77.864112 
L 705.392 77.331879 
L 705.444839 74.93687 
L 705.497603 75.069932 
L 705.655456 80.259121 
L 705.760326 74.93687 
L 705.812651 75.469103 
L 705.969193 74.670762 
L 706.02123 75.202995 
L 706.073195 81.323571 
L 706.125088 77.73105 
L 706.17691 77.997158 
L 706.280341 80.9244 
L 706.486356 75.069932 
L 706.537684 75.069932 
L 706.588942 76.400491 
L 706.640131 83.452456 
L 706.691251 77.464941 
L 706.742301 79.726888 
L 706.793282 74.670762 
L 706.844195 75.202995 
L 706.996521 75.735212 
L 707.04716 74.93687 
L 707.19867 78.263283 
L 707.249038 88.907753 
L 707.299339 77.997158 
L 707.349573 77.997158 
L 707.39974 76.00132 
L 707.449841 76.400491 
L 707.499875 92.500274 
L 707.549843 77.864112 
L 707.599745 78.130221 
L 707.64958 79.327717 
L 707.69935 78.529391 
L 707.798694 74.93687 
L 707.848267 75.469103 
L 707.897776 77.331879 
L 707.94722 76.400491 
L 708.144348 74.670762 
L 708.19347 76.6666 
L 708.291522 76.400491 
L 708.389319 76.533553 
L 708.438123 75.60215 
L 708.486863 77.864112 
L 708.535541 74.93687 
L 708.632708 75.336041 
L 708.681198 74.803824 
L 708.826295 80.52523 
L 708.970835 77.331879 
L 709.018892 83.452456 
L 709.066888 77.464941 
L 709.114823 77.598003 
L 709.162698 85.581356 
L 709.210511 75.336041 
L 709.258264 75.069932 
L 709.305957 76.799662 
L 709.353589 74.404653 
L 709.401161 75.069932 
L 709.543519 89.439986 
L 709.590852 75.868274 
L 709.685341 78.7955 
L 709.732496 75.735212 
L 709.779593 76.400491 
L 709.826631 80.259121 
L 709.873611 76.400491 
L 709.920532 74.93687 
L 709.967395 75.60215 
L 710.014199 75.735212 
L 710.060946 75.60215 
L 710.154265 74.93687 
L 710.200838 78.130221 
L 710.247354 74.93687 
L 710.386558 77.73105 
L 710.525251 75.069932 
L 710.571368 77.06577 
L 710.617429 84.516906 
L 710.663434 77.06577 
L 710.709383 78.263283 
L 710.755276 77.864112 
L 710.892621 74.93687 
L 710.938292 76.400491 
L 710.983907 75.60215 
L 711.029468 74.670762 
L 711.074973 75.868274 
L 711.120424 84.649968 
L 711.165819 78.263283 
L 711.30168 75.336041 
L 711.346858 75.60215 
L 711.482069 79.726888 
L 711.527031 75.069932 
L 711.571941 78.662438 
L 711.706348 76.267429 
L 711.840278 81.057447 
L 711.929301 76.00132 
L 711.973734 76.533553 
L 712.018115 77.331879 
L 712.062443 92.766383 
L 712.106719 76.932708 
L 712.150944 78.529391 
L 712.195116 76.533553 
L 712.239237 74.803824 
L 712.283306 76.799662 
L 712.327324 78.662438 
L 712.371291 75.336041 
L 712.459071 76.932708 
L 712.546646 87.843303 
L 712.634019 76.932708 
L 712.67763 77.864112 
L 712.72119 76.799662 
L 712.851569 79.992997 
L 713.154047 75.469103 
L 713.240025 76.400491 
L 713.28294 78.396329 
L 713.325807 77.598003 
L 713.368626 74.803824 
L 713.454116 75.469103 
L 713.496789 75.469103 
L 713.539414 74.93687 
L 713.709432 81.190509 
L 713.878687 75.202995 
L 714.005132 76.932708 
L 714.089193 75.469103 
L 714.131154 76.00132 
L 714.173067 87.311085 
L 714.214935 78.7955 
L 714.340259 75.069932 
L 714.381941 75.336041 
L 714.506712 75.069932 
L 714.54821 75.202995 
L 714.589663 77.198833 
L 714.672433 76.6666 
L 714.71375 76.799662 
L 714.755022 77.864112 
L 714.796248 75.469103 
L 714.878566 76.799662 
L 714.960705 75.202995 
L 715.001707 75.735212 
L 715.083578 78.7955 
L 715.124447 77.06577 
L 715.206052 75.202995 
L 715.287481 78.529391 
L 715.32813 75.469103 
L 715.368735 77.198833 
L 715.409296 77.864112 
L 715.449814 76.6666 
L 715.490288 79.327717 
L 715.530719 75.336041 
L 715.611451 77.864112 
L 715.651752 80.259121 
L 715.69201 76.400491 
L 715.812527 76.00132 
L 715.852614 80.126059 
L 715.93266 79.593842 
L 716.052411 76.00132 
L 716.132035 76.267429 
L 716.171784 80.9244 
L 716.251156 80.126059 
L 716.290779 76.267429 
L 716.330361 83.851626 
L 716.369902 76.6666 
L 716.409401 75.336041 
L 716.448858 76.932708 
L 716.566984 80.791338 
L 716.684741 75.60215 
L 716.723912 76.6666 
L 716.763042 75.336041 
L 716.802131 77.06577 
L 716.880189 84.916077 
L 716.919157 76.932708 
L 716.996973 79.85995 
L 717.035821 79.726888 
L 717.152125 75.202995 
L 717.190813 75.336041 
L 717.229462 75.202995 
L 717.345171 79.194671 
L 717.422114 79.460779 
L 717.460526 76.6666 
L 717.537234 79.460779 
L 717.613786 77.598003 
L 717.728324 75.469103 
L 717.766426 76.533553 
L 717.842515 76.267429 
L 717.880501 76.400491 
L 717.91845 79.992997 
L 717.95636 74.93687 
L 718.183026 79.327717 
L 718.220672 77.864112 
L 718.258279 79.85995 
L 718.29585 79.726888 
L 718.370879 76.134383 
L 718.408337 77.598003 
L 718.445759 77.864112 
L 718.483143 77.198833 
L 718.52049 79.194671 
L 718.5578 77.73105 
L 718.595074 76.400491 
L 718.63231 79.726888 
L 718.706673 77.464941 
L 718.7438 77.198833 
L 718.817943 80.658292 
L 718.85496 77.73105 
L 718.891941 75.868274 
L 718.965795 76.134383 
L 719.002667 76.6666 
L 719.039503 76.400491 
L 719.076304 75.735212 
L 719.113068 78.529391 
L 719.18649 76.932708 
L 719.296355 79.726888 
L 719.259769 76.134383 
L 719.332906 78.396329 
L 719.442346 75.60215 
L 719.478756 77.464941 
L 719.624043 178.5875 
L 727.95 178.5875 
L 727.95 178.5875 
" clip-path="url(#p7735f4fb53)" style="fill: none; stroke: #1f77b4; stroke-width: 1.5; stroke-linecap: square"/>
   </g>
   <g id="patch_3">
    <path d="M 370.83 311.6435 
L 370.83 45.5315 
" style="fill: none; stroke: #000000; stroke-width: 0.8; stroke-linejoin: miter; stroke-linecap: square"/>
   </g>
   <g id="patch_4">
    <path d="M 727.95 311.6435 
L 727.95 45.5315 
" style="fill: none; stroke: #000000; stroke-width: 0.8; stroke-linejoin: miter; stroke-linecap: square"/>
   </g>
   <g id="patch_5">
    <path d="M 370.83 311.6435 
L 727.95 311.6435 
" style="fill: none; stroke: #000000; stroke-width: 0.8; stroke-linejoin: miter; stroke-linecap: square"/>
   </g>
   <g id="patch_6">
    <path d="M 370.83 45.5315 
L 727.95 45.5315 
" style="fill: none; stroke: #000000; stroke-width: 0.8; stroke-linejoin: miter; stroke-linecap: square"/>
   </g>
   <g id="text_17">
    <!-- Accuracy of the 09_05_25_CIFAR10_model_(1024+512-512-512+1)_1_save_10 on the validation set -->
    <g transform="translate(7.2 25.5315) scale(0.264 -0.264)">
     <defs>
      <path id="TimesNewRomanPSMT-20" transform="scale(0.015625)"/>
      <path id="TimesNewRomanPSMT-6f" d="M 1600 2947 
Q 2250 2947 2644 2453 
Q 2978 2031 2978 1484 
Q 2978 1100 2793 706 
Q 2609 313 2286 112 
Q 1963 -88 1566 -88 
Q 919 -88 538 428 
Q 216 863 216 1403 
Q 216 1797 411 2186 
Q 606 2575 925 2761 
Q 1244 2947 1600 2947 
z
M 1503 2744 
Q 1338 2744 1170 2645 
Q 1003 2547 900 2300 
Q 797 2053 797 1666 
Q 797 1041 1045 587 
Q 1294 134 1700 134 
Q 2003 134 2200 384 
Q 2397 634 2397 1244 
Q 2397 2006 2069 2444 
Q 1847 2744 1503 2744 
z
" transform="scale(0.015625)"/>
      <path id="TimesNewRomanPSMT-66" d="M 1319 2638 
L 1319 756 
Q 1319 356 1406 250 
Q 1522 113 1716 113 
L 1975 113 
L 1975 0 
L 266 0 
L 266 113 
L 394 113 
Q 519 113 622 175 
Q 725 238 764 344 
Q 803 450 803 756 
L 803 2638 
L 247 2638 
L 247 2863 
L 803 2863 
L 803 3050 
Q 803 3478 940 3775 
Q 1078 4072 1361 4255 
Q 1644 4438 1997 4438 
Q 2325 4438 2600 4225 
Q 2781 4084 2781 3909 
Q 2781 3816 2700 3733 
Q 2619 3650 2525 3650 
Q 2453 3650 2373 3701 
Q 2294 3753 2178 3923 
Q 2063 4094 1966 4153 
Q 1869 4213 1750 4213 
Q 1606 4213 1506 4136 
Q 1406 4059 1362 3898 
Q 1319 3738 1319 3069 
L 1319 2863 
L 2056 2863 
L 2056 2638 
L 1319 2638 
z
" transform="scale(0.015625)"/>
      <path id="TimesNewRomanPSMT-74" d="M 1031 3803 
L 1031 2863 
L 1700 2863 
L 1700 2644 
L 1031 2644 
L 1031 788 
Q 1031 509 1111 412 
Q 1191 316 1316 316 
Q 1419 316 1516 380 
Q 1613 444 1666 569 
L 1788 569 
Q 1678 263 1478 108 
Q 1278 -47 1066 -47 
Q 922 -47 784 33 
Q 647 113 581 261 
Q 516 409 516 719 
L 516 2644 
L 63 2644 
L 63 2747 
Q 234 2816 414 2980 
Q 594 3144 734 3369 
Q 806 3488 934 3803 
L 1031 3803 
z
" transform="scale(0.015625)"/>
      <path id="TimesNewRomanPSMT-68" d="M 1041 4444 
L 1041 2350 
Q 1388 2731 1591 2839 
Q 1794 2947 1997 2947 
Q 2241 2947 2416 2812 
Q 2591 2678 2675 2391 
Q 2734 2191 2734 1659 
L 2734 647 
Q 2734 375 2778 275 
Q 2809 200 2884 156 
Q 2959 113 3159 113 
L 3159 0 
L 1753 0 
L 1753 113 
L 1819 113 
Q 2019 113 2097 173 
Q 2175 234 2206 353 
Q 2216 403 2216 647 
L 2216 1659 
Q 2216 2128 2167 2275 
Q 2119 2422 2012 2495 
Q 1906 2569 1756 2569 
Q 1603 2569 1437 2487 
Q 1272 2406 1041 2159 
L 1041 647 
Q 1041 353 1073 281 
Q 1106 209 1195 161 
Q 1284 113 1503 113 
L 1503 0 
L 84 0 
L 84 113 
Q 275 113 384 172 
Q 447 203 484 290 
Q 522 378 522 647 
L 522 3238 
Q 522 3728 498 3840 
Q 475 3953 426 3993 
Q 378 4034 297 4034 
Q 231 4034 84 3984 
L 41 4094 
L 897 4444 
L 1041 4444 
z
" transform="scale(0.015625)"/>
      <path id="TimesNewRomanPSMT-65" d="M 681 1784 
Q 678 1147 991 784 
Q 1303 422 1725 422 
Q 2006 422 2214 576 
Q 2422 731 2563 1106 
L 2659 1044 
Q 2594 616 2278 264 
Q 1963 -88 1488 -88 
Q 972 -88 605 314 
Q 238 716 238 1394 
Q 238 2128 614 2539 
Q 991 2950 1559 2950 
Q 2041 2950 2350 2633 
Q 2659 2316 2659 1784 
L 681 1784 
z
M 681 1966 
L 2006 1966 
Q 1991 2241 1941 2353 
Q 1863 2528 1708 2628 
Q 1553 2728 1384 2728 
Q 1125 2728 920 2526 
Q 716 2325 681 1966 
z
" transform="scale(0.015625)"/>
      <path id="TimesNewRomanPSMT-5f" d="M 3256 -1381 
L -53 -1381 
L -53 -1119 
L 3256 -1119 
L 3256 -1381 
z
" transform="scale(0.015625)"/>
      <path id="TimesNewRomanPSMT-43" d="M 3853 4334 
L 3950 2894 
L 3853 2894 
Q 3659 3541 3300 3825 
Q 2941 4109 2438 4109 
Q 2016 4109 1675 3895 
Q 1334 3681 1139 3212 
Q 944 2744 944 2047 
Q 944 1472 1128 1050 
Q 1313 628 1683 403 
Q 2053 178 2528 178 
Q 2941 178 3256 354 
Q 3572 531 3950 1056 
L 4047 994 
Q 3728 428 3303 165 
Q 2878 -97 2294 -97 
Q 1241 -97 663 684 
Q 231 1266 231 2053 
Q 231 2688 515 3219 
Q 800 3750 1298 4042 
Q 1797 4334 2388 4334 
Q 2847 4334 3294 4109 
Q 3425 4041 3481 4041 
Q 3566 4041 3628 4100 
Q 3709 4184 3744 4334 
L 3853 4334 
z
" transform="scale(0.015625)"/>
      <path id="TimesNewRomanPSMT-49" d="M 1975 116 
L 1975 0 
L 159 0 
L 159 116 
L 309 116 
Q 572 116 691 269 
Q 766 369 766 750 
L 766 3488 
Q 766 3809 725 3913 
Q 694 3991 597 4047 
Q 459 4122 309 4122 
L 159 4122 
L 159 4238 
L 1975 4238 
L 1975 4122 
L 1822 4122 
Q 1563 4122 1444 3969 
Q 1366 3869 1366 3488 
L 1366 750 
Q 1366 428 1406 325 
Q 1438 247 1538 191 
Q 1672 116 1822 116 
L 1975 116 
z
" transform="scale(0.015625)"/>
      <path id="TimesNewRomanPSMT-46" d="M 1309 4006 
L 1309 2341 
L 2081 2341 
Q 2347 2341 2470 2458 
Q 2594 2575 2634 2922 
L 2750 2922 
L 2750 1488 
L 2634 1488 
Q 2631 1734 2570 1850 
Q 2509 1966 2401 2023 
Q 2294 2081 2081 2081 
L 1309 2081 
L 1309 750 
Q 1309 428 1350 325 
Q 1381 247 1481 191 
Q 1619 116 1769 116 
L 1922 116 
L 1922 0 
L 103 0 
L 103 116 
L 253 116 
Q 516 116 634 269 
Q 709 369 709 750 
L 709 3488 
Q 709 3809 669 3913 
Q 638 3991 541 4047 
Q 406 4122 253 4122 
L 103 4122 
L 103 4238 
L 3256 4238 
L 3297 3306 
L 3188 3306 
Q 3106 3603 2998 3742 
Q 2891 3881 2733 3943 
Q 2575 4006 2244 4006 
L 1309 4006 
z
" transform="scale(0.015625)"/>
      <path id="TimesNewRomanPSMT-52" d="M 4325 0 
L 3194 0 
L 1759 1981 
Q 1600 1975 1500 1975 
Q 1459 1975 1412 1976 
Q 1366 1978 1316 1981 
L 1316 750 
Q 1316 350 1403 253 
Q 1522 116 1759 116 
L 1925 116 
L 1925 0 
L 109 0 
L 109 116 
L 269 116 
Q 538 116 653 291 
Q 719 388 719 750 
L 719 3488 
Q 719 3888 631 3984 
Q 509 4122 269 4122 
L 109 4122 
L 109 4238 
L 1653 4238 
Q 2328 4238 2648 4139 
Q 2969 4041 3192 3777 
Q 3416 3513 3416 3147 
Q 3416 2756 3161 2468 
Q 2906 2181 2372 2063 
L 3247 847 
Q 3547 428 3762 290 
Q 3978 153 4325 116 
L 4325 0 
z
M 1316 2178 
Q 1375 2178 1419 2176 
Q 1463 2175 1491 2175 
Q 2097 2175 2405 2437 
Q 2713 2700 2713 3106 
Q 2713 3503 2464 3751 
Q 2216 4000 1806 4000 
Q 1625 4000 1316 3941 
L 1316 2178 
z
" transform="scale(0.015625)"/>
      <path id="TimesNewRomanPSMT-6d" d="M 1050 2338 
Q 1363 2650 1419 2697 
Q 1559 2816 1721 2881 
Q 1884 2947 2044 2947 
Q 2313 2947 2506 2790 
Q 2700 2634 2766 2338 
Q 3088 2713 3309 2830 
Q 3531 2947 3766 2947 
Q 3994 2947 4170 2830 
Q 4347 2713 4450 2447 
Q 4519 2266 4519 1878 
L 4519 647 
Q 4519 378 4559 278 
Q 4591 209 4675 161 
Q 4759 113 4950 113 
L 4950 0 
L 3538 0 
L 3538 113 
L 3597 113 
Q 3781 113 3884 184 
Q 3956 234 3988 344 
Q 4000 397 4000 647 
L 4000 1878 
Q 4000 2228 3916 2372 
Q 3794 2572 3525 2572 
Q 3359 2572 3192 2489 
Q 3025 2406 2788 2181 
L 2781 2147 
L 2788 2013 
L 2788 647 
Q 2788 353 2820 281 
Q 2853 209 2943 161 
Q 3034 113 3253 113 
L 3253 0 
L 1806 0 
L 1806 113 
Q 2044 113 2133 169 
Q 2222 225 2256 338 
Q 2272 391 2272 647 
L 2272 1878 
Q 2272 2228 2169 2381 
Q 2031 2581 1784 2581 
Q 1616 2581 1450 2491 
Q 1191 2353 1050 2181 
L 1050 647 
Q 1050 366 1089 281 
Q 1128 197 1204 155 
Q 1281 113 1516 113 
L 1516 0 
L 100 0 
L 100 113 
Q 297 113 375 155 
Q 453 197 493 289 
Q 534 381 534 647 
L 534 1741 
Q 534 2213 506 2350 
Q 484 2453 437 2492 
Q 391 2531 309 2531 
Q 222 2531 100 2484 
L 53 2597 
L 916 2947 
L 1050 2947 
L 1050 2338 
z
" transform="scale(0.015625)"/>
      <path id="TimesNewRomanPSMT-64" d="M 2222 322 
Q 2013 103 1813 7 
Q 1613 -88 1381 -88 
Q 913 -88 563 304 
Q 213 697 213 1313 
Q 213 1928 600 2439 
Q 988 2950 1597 2950 
Q 1975 2950 2222 2709 
L 2222 3238 
Q 2222 3728 2198 3840 
Q 2175 3953 2125 3993 
Q 2075 4034 2000 4034 
Q 1919 4034 1784 3984 
L 1744 4094 
L 2597 4444 
L 2738 4444 
L 2738 1134 
Q 2738 631 2761 520 
Q 2784 409 2836 365 
Q 2888 322 2956 322 
Q 3041 322 3181 375 
L 3216 266 
L 2366 -88 
L 2222 -88 
L 2222 322 
z
M 2222 541 
L 2222 2016 
Q 2203 2228 2109 2403 
Q 2016 2578 1861 2667 
Q 1706 2756 1559 2756 
Q 1284 2756 1069 2509 
Q 784 2184 784 1559 
Q 784 928 1059 592 
Q 1334 256 1672 256 
Q 1956 256 2222 541 
z
" transform="scale(0.015625)"/>
      <path id="TimesNewRomanPSMT-6c" d="M 1184 4444 
L 1184 647 
Q 1184 378 1223 290 
Q 1263 203 1344 158 
Q 1425 113 1647 113 
L 1647 0 
L 244 0 
L 244 113 
Q 441 113 512 153 
Q 584 194 625 287 
Q 666 381 666 647 
L 666 3247 
Q 666 3731 644 3842 
Q 622 3953 573 3993 
Q 525 4034 450 4034 
Q 369 4034 244 3984 
L 191 4094 
L 1044 4444 
L 1184 4444 
z
" transform="scale(0.015625)"/>
      <path id="TimesNewRomanPSMT-28" d="M 1988 -1253 
L 1988 -1369 
Q 1516 -1131 1200 -813 
Q 750 -359 506 256 
Q 263 872 263 1534 
Q 263 2503 741 3301 
Q 1219 4100 1988 4444 
L 1988 4313 
Q 1603 4100 1356 3731 
Q 1109 3363 987 2797 
Q 866 2231 866 1616 
Q 866 947 969 400 
Q 1050 -31 1165 -292 
Q 1281 -553 1476 -793 
Q 1672 -1034 1988 -1253 
z
" transform="scale(0.015625)"/>
      <path id="TimesNewRomanPSMT-2b" d="M 1672 441 
L 1672 2000 
L 116 2000 
L 116 2256 
L 1672 2256 
L 1672 3809 
L 1922 3809 
L 1922 2256 
L 3484 2256 
L 3484 2000 
L 1922 2000 
L 1922 441 
L 1672 441 
z
" transform="scale(0.015625)"/>
      <path id="TimesNewRomanPSMT-2d" d="M 259 1672 
L 1875 1672 
L 1875 1200 
L 259 1200 
L 259 1672 
z
" transform="scale(0.015625)"/>
      <path id="TimesNewRomanPSMT-29" d="M 144 4313 
L 144 4444 
Q 619 4209 934 3891 
Q 1381 3434 1625 2820 
Q 1869 2206 1869 1541 
Q 1869 572 1392 -226 
Q 916 -1025 144 -1369 
L 144 -1253 
Q 528 -1038 776 -670 
Q 1025 -303 1145 264 
Q 1266 831 1266 1447 
Q 1266 2113 1163 2663 
Q 1084 3094 967 3353 
Q 850 3613 656 3853 
Q 463 4094 144 4313 
z
" transform="scale(0.015625)"/>
      <path id="TimesNewRomanPSMT-73" d="M 2050 2947 
L 2050 1972 
L 1947 1972 
Q 1828 2431 1642 2597 
Q 1456 2763 1169 2763 
Q 950 2763 815 2647 
Q 681 2531 681 2391 
Q 681 2216 781 2091 
Q 878 1963 1175 1819 
L 1631 1597 
Q 2266 1288 2266 781 
Q 2266 391 1970 151 
Q 1675 -88 1309 -88 
Q 1047 -88 709 6 
Q 606 38 541 38 
Q 469 38 428 -44 
L 325 -44 
L 325 978 
L 428 978 
Q 516 541 762 319 
Q 1009 97 1316 97 
Q 1531 97 1667 223 
Q 1803 350 1803 528 
Q 1803 744 1651 891 
Q 1500 1038 1047 1263 
Q 594 1488 453 1669 
Q 313 1847 313 2119 
Q 313 2472 555 2709 
Q 797 2947 1181 2947 
Q 1350 2947 1591 2875 
Q 1750 2828 1803 2828 
Q 1853 2828 1881 2850 
Q 1909 2872 1947 2947 
L 2050 2947 
z
" transform="scale(0.015625)"/>
      <path id="TimesNewRomanPSMT-76" d="M 53 2863 
L 1400 2863 
L 1400 2747 
L 1313 2747 
Q 1191 2747 1127 2687 
Q 1063 2628 1063 2528 
Q 1063 2419 1128 2269 
L 1794 688 
L 2463 2328 
Q 2534 2503 2534 2594 
Q 2534 2638 2509 2666 
Q 2475 2713 2422 2730 
Q 2369 2747 2206 2747 
L 2206 2863 
L 3141 2863 
L 3141 2747 
Q 2978 2734 2916 2681 
Q 2806 2588 2719 2369 
L 1703 -88 
L 1575 -88 
L 553 2328 
Q 484 2497 421 2570 
Q 359 2644 263 2694 
Q 209 2722 53 2747 
L 53 2863 
z
" transform="scale(0.015625)"/>
      <path id="TimesNewRomanPSMT-6e" d="M 1034 2341 
Q 1538 2947 1994 2947 
Q 2228 2947 2397 2830 
Q 2566 2713 2666 2444 
Q 2734 2256 2734 1869 
L 2734 647 
Q 2734 375 2778 278 
Q 2813 200 2889 156 
Q 2966 113 3172 113 
L 3172 0 
L 1756 0 
L 1756 113 
L 1816 113 
Q 2016 113 2095 173 
Q 2175 234 2206 353 
Q 2219 400 2219 647 
L 2219 1819 
Q 2219 2209 2117 2386 
Q 2016 2563 1775 2563 
Q 1403 2563 1034 2156 
L 1034 647 
Q 1034 356 1069 288 
Q 1113 197 1189 155 
Q 1266 113 1500 113 
L 1500 0 
L 84 0 
L 84 113 
L 147 113 
Q 366 113 442 223 
Q 519 334 519 647 
L 519 1709 
Q 519 2225 495 2337 
Q 472 2450 423 2490 
Q 375 2531 294 2531 
Q 206 2531 84 2484 
L 38 2597 
L 900 2947 
L 1034 2947 
L 1034 2341 
z
" transform="scale(0.015625)"/>
      <path id="TimesNewRomanPSMT-69" d="M 928 4444 
Q 1059 4444 1151 4351 
Q 1244 4259 1244 4128 
Q 1244 3997 1151 3903 
Q 1059 3809 928 3809 
Q 797 3809 703 3903 
Q 609 3997 609 4128 
Q 609 4259 701 4351 
Q 794 4444 928 4444 
z
M 1188 2947 
L 1188 647 
Q 1188 378 1227 289 
Q 1266 200 1342 156 
Q 1419 113 1622 113 
L 1622 0 
L 231 0 
L 231 113 
Q 441 113 512 153 
Q 584 194 626 287 
Q 669 381 669 647 
L 669 1750 
Q 669 2216 641 2353 
Q 619 2453 572 2492 
Q 525 2531 444 2531 
Q 356 2531 231 2484 
L 188 2597 
L 1050 2947 
L 1188 2947 
z
" transform="scale(0.015625)"/>
     </defs>
     <use xlink:href="#TimesNewRomanPSMT-41"/>
     <use xlink:href="#TimesNewRomanPSMT-63" transform="translate(72.216797 0)"/>
     <use xlink:href="#TimesNewRomanPSMT-63" transform="translate(116.601562 0)"/>
     <use xlink:href="#TimesNewRomanPSMT-75" transform="translate(160.986328 0)"/>
     <use xlink:href="#TimesNewRomanPSMT-72" transform="translate(210.986328 0)"/>
     <use xlink:href="#TimesNewRomanPSMT-61" transform="translate(244.287109 0)"/>
     <use xlink:href="#TimesNewRomanPSMT-63" transform="translate(288.671875 0)"/>
     <use xlink:href="#TimesNewRomanPSMT-79" transform="translate(333.056641 0)"/>
     <use xlink:href="#TimesNewRomanPSMT-20" transform="translate(383.056641 0)"/>
     <use xlink:href="#TimesNewRomanPSMT-6f" transform="translate(408.056641 0)"/>
     <use xlink:href="#TimesNewRomanPSMT-66" transform="translate(458.056641 0)"/>
     <use xlink:href="#TimesNewRomanPSMT-20" transform="translate(491.357422 0)"/>
     <use xlink:href="#TimesNewRomanPSMT-74" transform="translate(516.357422 0)"/>
     <use xlink:href="#TimesNewRomanPSMT-68" transform="translate(544.140625 0)"/>
     <use xlink:href="#TimesNewRomanPSMT-65" transform="translate(594.140625 0)"/>
     <use xlink:href="#TimesNewRomanPSMT-20" transform="translate(638.525391 0)"/>
     <use xlink:href="#TimesNewRomanPSMT-30" transform="translate(663.525391 0)"/>
     <use xlink:href="#TimesNewRomanPSMT-39" transform="translate(713.525391 0)"/>
     <use xlink:href="#TimesNewRomanPSMT-5f" transform="translate(763.525391 0)"/>
     <use xlink:href="#TimesNewRomanPSMT-30" transform="translate(813.525391 0)"/>
     <use xlink:href="#TimesNewRomanPSMT-35" transform="translate(863.525391 0)"/>
     <use xlink:href="#TimesNewRomanPSMT-5f" transform="translate(913.525391 0)"/>
     <use xlink:href="#TimesNewRomanPSMT-32" transform="translate(963.525391 0)"/>
     <use xlink:href="#TimesNewRomanPSMT-35" transform="translate(1013.525391 0)"/>
     <use xlink:href="#TimesNewRomanPSMT-5f" transform="translate(1063.525391 0)"/>
     <use xlink:href="#TimesNewRomanPSMT-43" transform="translate(1113.525391 0)"/>
     <use xlink:href="#TimesNewRomanPSMT-49" transform="translate(1180.224609 0)"/>
     <use xlink:href="#TimesNewRomanPSMT-46" transform="translate(1213.525391 0)"/>
     <use xlink:href="#TimesNewRomanPSMT-41" transform="translate(1261.765625 0)"/>
     <use xlink:href="#TimesNewRomanPSMT-52" transform="translate(1333.982422 0)"/>
     <use xlink:href="#TimesNewRomanPSMT-31" transform="translate(1400.681641 0)"/>
     <use xlink:href="#TimesNewRomanPSMT-30" transform="translate(1450.681641 0)"/>
     <use xlink:href="#TimesNewRomanPSMT-5f" transform="translate(1500.681641 0)"/>
     <use xlink:href="#TimesNewRomanPSMT-6d" transform="translate(1550.681641 0)"/>
     <use xlink:href="#TimesNewRomanPSMT-6f" transform="translate(1628.464844 0)"/>
     <use xlink:href="#TimesNewRomanPSMT-64" transform="translate(1678.464844 0)"/>
     <use xlink:href="#TimesNewRomanPSMT-65" transform="translate(1728.464844 0)"/>
     <use xlink:href="#TimesNewRomanPSMT-6c" transform="translate(1772.849609 0)"/>
     <use xlink:href="#TimesNewRomanPSMT-5f" transform="translate(1800.632812 0)"/>
     <use xlink:href="#TimesNewRomanPSMT-28" transform="translate(1850.632812 0)"/>
     <use xlink:href="#TimesNewRomanPSMT-31" transform="translate(1883.933594 0)"/>
     <use xlink:href="#TimesNewRomanPSMT-30" transform="translate(1933.933594 0)"/>
     <use xlink:href="#TimesNewRomanPSMT-32" transform="translate(1983.933594 0)"/>
     <use xlink:href="#TimesNewRomanPSMT-34" transform="translate(2033.933594 0)"/>
     <use xlink:href="#TimesNewRomanPSMT-2b" transform="translate(2083.933594 0)"/>
     <use xlink:href="#TimesNewRomanPSMT-35" transform="translate(2140.330078 0)"/>
     <use xlink:href="#TimesNewRomanPSMT-31" transform="translate(2190.330078 0)"/>
     <use xlink:href="#TimesNewRomanPSMT-32" transform="translate(2240.330078 0)"/>
     <use xlink:href="#TimesNewRomanPSMT-2d" transform="translate(2290.330078 0)"/>
     <use xlink:href="#TimesNewRomanPSMT-35" transform="translate(2323.630859 0)"/>
     <use xlink:href="#TimesNewRomanPSMT-31" transform="translate(2373.630859 0)"/>
     <use xlink:href="#TimesNewRomanPSMT-32" transform="translate(2423.630859 0)"/>
     <use xlink:href="#TimesNewRomanPSMT-2d" transform="translate(2473.630859 0)"/>
     <use xlink:href="#TimesNewRomanPSMT-35" transform="translate(2506.931641 0)"/>
     <use xlink:href="#TimesNewRomanPSMT-31" transform="translate(2556.931641 0)"/>
     <use xlink:href="#TimesNewRomanPSMT-32" transform="translate(2606.931641 0)"/>
     <use xlink:href="#TimesNewRomanPSMT-2b" transform="translate(2656.931641 0)"/>
     <use xlink:href="#TimesNewRomanPSMT-31" transform="translate(2713.328125 0)"/>
     <use xlink:href="#TimesNewRomanPSMT-29" transform="translate(2763.328125 0)"/>
     <use xlink:href="#TimesNewRomanPSMT-5f" transform="translate(2796.628906 0)"/>
     <use xlink:href="#TimesNewRomanPSMT-31" transform="translate(2846.628906 0)"/>
     <use xlink:href="#TimesNewRomanPSMT-5f" transform="translate(2896.628906 0)"/>
     <use xlink:href="#TimesNewRomanPSMT-73" transform="translate(2946.628906 0)"/>
     <use xlink:href="#TimesNewRomanPSMT-61" transform="translate(2985.544922 0)"/>
     <use xlink:href="#TimesNewRomanPSMT-76" transform="translate(3029.929688 0)"/>
     <use xlink:href="#TimesNewRomanPSMT-65" transform="translate(3079.929688 0)"/>
     <use xlink:href="#TimesNewRomanPSMT-5f" transform="translate(3124.314453 0)"/>
     <use xlink:href="#TimesNewRomanPSMT-31" transform="translate(3174.314453 0)"/>
     <use xlink:href="#TimesNewRomanPSMT-30" transform="translate(3224.314453 0)"/>
     <use xlink:href="#TimesNewRomanPSMT-20" transform="translate(3274.314453 0)"/>
     <use xlink:href="#TimesNewRomanPSMT-6f" transform="translate(3299.314453 0)"/>
     <use xlink:href="#TimesNewRomanPSMT-6e" transform="translate(3349.314453 0)"/>
     <use xlink:href="#TimesNewRomanPSMT-20" transform="translate(3399.314453 0)"/>
     <use xlink:href="#TimesNewRomanPSMT-74" transform="translate(3424.314453 0)"/>
     <use xlink:href="#TimesNewRomanPSMT-68" transform="translate(3452.097656 0)"/>
     <use xlink:href="#TimesNewRomanPSMT-65" transform="translate(3502.097656 0)"/>
     <use xlink:href="#TimesNewRomanPSMT-20" transform="translate(3546.482422 0)"/>
     <use xlink:href="#TimesNewRomanPSMT-76" transform="translate(3571.482422 0)"/>
     <use xlink:href="#TimesNewRomanPSMT-61" transform="translate(3621.482422 0)"/>
     <use xlink:href="#TimesNewRomanPSMT-6c" transform="translate(3665.867188 0)"/>
     <use xlink:href="#TimesNewRomanPSMT-69" transform="translate(3693.650391 0)"/>
     <use xlink:href="#TimesNewRomanPSMT-64" transform="translate(3721.433594 0)"/>
     <use xlink:href="#TimesNewRomanPSMT-61" transform="translate(3771.433594 0)"/>
     <use xlink:href="#TimesNewRomanPSMT-74" transform="translate(3815.818359 0)"/>
     <use xlink:href="#TimesNewRomanPSMT-69" transform="translate(3843.601562 0)"/>
     <use xlink:href="#TimesNewRomanPSMT-6f" transform="translate(3871.384766 0)"/>
     <use xlink:href="#TimesNewRomanPSMT-6e" transform="translate(3921.384766 0)"/>
     <use xlink:href="#TimesNewRomanPSMT-20" transform="translate(3971.384766 0)"/>
     <use xlink:href="#TimesNewRomanPSMT-73" transform="translate(3996.384766 0)"/>
     <use xlink:href="#TimesNewRomanPSMT-65" transform="translate(4035.300781 0)"/>
     <use xlink:href="#TimesNewRomanPSMT-74" transform="translate(4079.685547 0)"/>
    </g>
   </g>
   <g id="legend_1">
    <g id="patch_7">
     <path d="M 386.23 300.6435 
L 623.400313 300.6435 
Q 627.800313 300.6435 627.800313 296.2435 
L 627.800313 267.296312 
Q 627.800313 262.896312 623.400313 262.896312 
L 386.23 262.896312 
Q 381.83 262.896312 381.83 267.296312 
L 381.83 296.2435 
Q 381.83 300.6435 386.23 300.6435 
z
" style="fill: #ffffff; opacity: 0.8; stroke: #cccccc; stroke-linejoin: miter"/>
    </g>
    <g id="line2d_30">
     <path d="M 390.63 279.396312 
L 412.63 279.396312 
L 434.63 279.396312 
" style="fill: none; stroke: #1f77b4; stroke-width: 1.5; stroke-linecap: square"/>
    </g>
    <g id="text_18">
     <!-- Best accuracy 0.89 -->
     <g transform="translate(452.23 287.096312) scale(0.22 -0.22)">
      <defs>
       <path id="TimesNewRomanPSMT-42" d="M 2956 2163 
Q 3397 2069 3616 1863 
Q 3919 1575 3919 1159 
Q 3919 844 3719 555 
Q 3519 266 3170 133 
Q 2822 0 2106 0 
L 106 0 
L 106 116 
L 266 116 
Q 531 116 647 284 
Q 719 394 719 750 
L 719 3488 
Q 719 3881 628 3984 
Q 506 4122 266 4122 
L 106 4122 
L 106 4238 
L 1938 4238 
Q 2450 4238 2759 4163 
Q 3228 4050 3475 3764 
Q 3722 3478 3722 3106 
Q 3722 2788 3528 2536 
Q 3334 2284 2956 2163 
z
M 1319 2331 
Q 1434 2309 1582 2298 
Q 1731 2288 1909 2288 
Q 2366 2288 2595 2386 
Q 2825 2484 2947 2687 
Q 3069 2891 3069 3131 
Q 3069 3503 2766 3765 
Q 2463 4028 1881 4028 
Q 1569 4028 1319 3959 
L 1319 2331 
z
M 1319 306 
Q 1681 222 2034 222 
Q 2600 222 2897 476 
Q 3194 731 3194 1106 
Q 3194 1353 3059 1581 
Q 2925 1809 2622 1940 
Q 2319 2072 1872 2072 
Q 1678 2072 1540 2065 
Q 1403 2059 1319 2044 
L 1319 306 
z
" transform="scale(0.015625)"/>
      </defs>
      <use xlink:href="#TimesNewRomanPSMT-42"/>
      <use xlink:href="#TimesNewRomanPSMT-65" transform="translate(66.699219 0)"/>
      <use xlink:href="#TimesNewRomanPSMT-73" transform="translate(111.083984 0)"/>
      <use xlink:href="#TimesNewRomanPSMT-74" transform="translate(150 0)"/>
      <use xlink:href="#TimesNewRomanPSMT-20" transform="translate(177.783203 0)"/>
      <use xlink:href="#TimesNewRomanPSMT-61" transform="translate(202.783203 0)"/>
      <use xlink:href="#TimesNewRomanPSMT-63" transform="translate(247.167969 0)"/>
      <use xlink:href="#TimesNewRomanPSMT-63" transform="translate(291.552734 0)"/>
      <use xlink:href="#TimesNewRomanPSMT-75" transform="translate(335.9375 0)"/>
      <use xlink:href="#TimesNewRomanPSMT-72" transform="translate(385.9375 0)"/>
      <use xlink:href="#TimesNewRomanPSMT-61" transform="translate(419.238281 0)"/>
      <use xlink:href="#TimesNewRomanPSMT-63" transform="translate(463.623047 0)"/>
      <use xlink:href="#TimesNewRomanPSMT-79" transform="translate(508.007812 0)"/>
      <use xlink:href="#TimesNewRomanPSMT-20" transform="translate(558.007812 0)"/>
      <use xlink:href="#TimesNewRomanPSMT-30" transform="translate(583.007812 0)"/>
      <use xlink:href="#TimesNewRomanPSMT-2e" transform="translate(633.007812 0)"/>
      <use xlink:href="#TimesNewRomanPSMT-38" transform="translate(658.007812 0)"/>
      <use xlink:href="#TimesNewRomanPSMT-39" transform="translate(708.007812 0)"/>
     </g>
    </g>
   </g>
  </g>
 </g>
 <defs>
  <clipPath id="p7735f4fb53">
   <rect x="370.83" y="45.5315" width="357.12" height="266.112"/>
  </clipPath>
 </defs>
</svg>
