<?xml version="1.0" encoding="utf-8" standalone="no"?>
<!DOCTYPE svg PUBLIC "-//W3C//DTD SVG 1.1//EN"
  "http://www.w3.org/Graphics/SVG/1.1/DTD/svg11.dtd">
<svg xmlns:xlink="http://www.w3.org/1999/xlink" width="785.7585pt" height="383.265687pt" viewBox="0 0 785.7585 383.265687" xmlns="http://www.w3.org/2000/svg" version="1.1">
 <metadata>
  <rdf:RDF xmlns:dc="http://purl.org/dc/elements/1.1/" xmlns:cc="http://creativecommons.org/ns#" xmlns:rdf="http://www.w3.org/1999/02/22-rdf-syntax-ns#">
   <cc:Work>
    <dc:type rdf:resource="http://purl.org/dc/dcmitype/StillImage"/>
    <dc:date>2025-05-23T17:07:13.415479</dc:date>
    <dc:format>image/svg+xml</dc:format>
    <dc:creator>
     <cc:Agent>
      <dc:title>Matplotlib v3.10.1, https://matplotlib.org/</dc:title>
     </cc:Agent>
    </dc:creator>
   </cc:Work>
  </rdf:RDF>
 </metadata>
 <defs>
  <style type="text/css">*{stroke-linejoin: round; stroke-linecap: butt}</style>
 </defs>
 <g id="figure_1">
  <g id="patch_1">
   <path d="M -0 383.265687 
L 785.7585 383.265687 
L 785.7585 0 
L -0 0 
z
" style="fill: #ffffff"/>
  </g>
  <g id="axes_1">
   <g id="patch_2">
    <path d="M 214.31925 311.6435 
L 571.43925 311.6435 
L 571.43925 45.5315 
L 214.31925 45.5315 
z
" style="fill: #ffffff"/>
   </g>
   <g id="matplotlib.axis_1">
    <g id="xtick_1">
     <g id="line2d_1">
      <path d="M 214.31925 311.6435 
L 214.31925 45.5315 
" clip-path="url(#p8b4a09fd9d)" style="fill: none; stroke: #b0b0b0; stroke-opacity: 0.3; stroke-width: 0.8; stroke-linecap: square"/>
     </g>
     <g id="line2d_2">
      <defs>
       <path id="m34cac62f98" d="M 0 0 
L 0 3.5 
" style="stroke: #000000; stroke-width: 0.8"/>
      </defs>
      <g>
       <use xlink:href="#m34cac62f98" x="214.31925" y="311.6435" style="stroke: #000000; stroke-width: 0.8"/>
      </g>
     </g>
     <g id="text_1">
      <!-- 0.00 -->
      <g transform="translate(195.06925 333.91975) scale(0.22 -0.22)">
       <defs>
        <path id="TimesNewRomanPSMT-30" d="M 231 2094 
Q 231 2819 450 3342 
Q 669 3866 1031 4122 
Q 1313 4325 1613 4325 
Q 2100 4325 2488 3828 
Q 2972 3213 2972 2159 
Q 2972 1422 2759 906 
Q 2547 391 2217 158 
Q 1888 -75 1581 -75 
Q 975 -75 572 641 
Q 231 1244 231 2094 
z
M 844 2016 
Q 844 1141 1059 588 
Q 1238 122 1591 122 
Q 1759 122 1940 273 
Q 2122 425 2216 781 
Q 2359 1319 2359 2297 
Q 2359 3022 2209 3506 
Q 2097 3866 1919 4016 
Q 1791 4119 1609 4119 
Q 1397 4119 1231 3928 
Q 1006 3669 925 3112 
Q 844 2556 844 2016 
z
" transform="scale(0.015625)"/>
        <path id="TimesNewRomanPSMT-2e" d="M 800 606 
Q 947 606 1047 504 
Q 1147 403 1147 259 
Q 1147 116 1045 14 
Q 944 -88 800 -88 
Q 656 -88 554 14 
Q 453 116 453 259 
Q 453 406 554 506 
Q 656 606 800 606 
z
" transform="scale(0.015625)"/>
       </defs>
       <use xlink:href="#TimesNewRomanPSMT-30"/>
       <use xlink:href="#TimesNewRomanPSMT-2e" transform="translate(50 0)"/>
       <use xlink:href="#TimesNewRomanPSMT-30" transform="translate(75 0)"/>
       <use xlink:href="#TimesNewRomanPSMT-30" transform="translate(125 0)"/>
      </g>
     </g>
    </g>
    <g id="xtick_2">
     <g id="line2d_3">
      <path d="M 288.776253 311.6435 
L 288.776253 45.5315 
" clip-path="url(#p8b4a09fd9d)" style="fill: none; stroke: #b0b0b0; stroke-opacity: 0.3; stroke-width: 0.8; stroke-linecap: square"/>
     </g>
     <g id="line2d_4">
      <g>
       <use xlink:href="#m34cac62f98" x="288.776253" y="311.6435" style="stroke: #000000; stroke-width: 0.8"/>
      </g>
     </g>
     <g id="text_2">
      <!-- 0.25 -->
      <g transform="translate(269.526253 333.91975) scale(0.22 -0.22)">
       <defs>
        <path id="TimesNewRomanPSMT-32" d="M 2934 816 
L 2638 0 
L 138 0 
L 138 116 
Q 1241 1122 1691 1759 
Q 2141 2397 2141 2925 
Q 2141 3328 1894 3587 
Q 1647 3847 1303 3847 
Q 991 3847 742 3664 
Q 494 3481 375 3128 
L 259 3128 
Q 338 3706 661 4015 
Q 984 4325 1469 4325 
Q 1984 4325 2329 3994 
Q 2675 3663 2675 3213 
Q 2675 2891 2525 2569 
Q 2294 2063 1775 1497 
Q 997 647 803 472 
L 1909 472 
Q 2247 472 2383 497 
Q 2519 522 2628 598 
Q 2738 675 2819 816 
L 2934 816 
z
" transform="scale(0.015625)"/>
        <path id="TimesNewRomanPSMT-35" d="M 2778 4238 
L 2534 3706 
L 1259 3706 
L 981 3138 
Q 1809 3016 2294 2522 
Q 2709 2097 2709 1522 
Q 2709 1188 2573 903 
Q 2438 619 2231 419 
Q 2025 219 1772 97 
Q 1413 -75 1034 -75 
Q 653 -75 479 54 
Q 306 184 306 341 
Q 306 428 378 495 
Q 450 563 559 563 
Q 641 563 702 538 
Q 763 513 909 409 
Q 1144 247 1384 247 
Q 1750 247 2026 523 
Q 2303 800 2303 1197 
Q 2303 1581 2056 1914 
Q 1809 2247 1375 2428 
Q 1034 2569 447 2591 
L 1259 4238 
L 2778 4238 
z
" transform="scale(0.015625)"/>
       </defs>
       <use xlink:href="#TimesNewRomanPSMT-30"/>
       <use xlink:href="#TimesNewRomanPSMT-2e" transform="translate(50 0)"/>
       <use xlink:href="#TimesNewRomanPSMT-32" transform="translate(75 0)"/>
       <use xlink:href="#TimesNewRomanPSMT-35" transform="translate(125 0)"/>
      </g>
     </g>
    </g>
    <g id="xtick_3">
     <g id="line2d_5">
      <path d="M 363.233255 311.6435 
L 363.233255 45.5315 
" clip-path="url(#p8b4a09fd9d)" style="fill: none; stroke: #b0b0b0; stroke-opacity: 0.3; stroke-width: 0.8; stroke-linecap: square"/>
     </g>
     <g id="line2d_6">
      <g>
       <use xlink:href="#m34cac62f98" x="363.233255" y="311.6435" style="stroke: #000000; stroke-width: 0.8"/>
      </g>
     </g>
     <g id="text_3">
      <!-- 0.50 -->
      <g transform="translate(343.983255 333.91975) scale(0.22 -0.22)">
       <use xlink:href="#TimesNewRomanPSMT-30"/>
       <use xlink:href="#TimesNewRomanPSMT-2e" transform="translate(50 0)"/>
       <use xlink:href="#TimesNewRomanPSMT-35" transform="translate(75 0)"/>
       <use xlink:href="#TimesNewRomanPSMT-30" transform="translate(125 0)"/>
      </g>
     </g>
    </g>
    <g id="xtick_4">
     <g id="line2d_7">
      <path d="M 437.690258 311.6435 
L 437.690258 45.5315 
" clip-path="url(#p8b4a09fd9d)" style="fill: none; stroke: #b0b0b0; stroke-opacity: 0.3; stroke-width: 0.8; stroke-linecap: square"/>
     </g>
     <g id="line2d_8">
      <g>
       <use xlink:href="#m34cac62f98" x="437.690258" y="311.6435" style="stroke: #000000; stroke-width: 0.8"/>
      </g>
     </g>
     <g id="text_4">
      <!-- 0.75 -->
      <g transform="translate(418.440258 333.91975) scale(0.22 -0.22)">
       <defs>
        <path id="TimesNewRomanPSMT-37" d="M 644 4238 
L 2916 4238 
L 2916 4119 
L 1503 -88 
L 1153 -88 
L 2419 3728 
L 1253 3728 
Q 900 3728 750 3644 
Q 488 3500 328 3200 
L 238 3234 
L 644 4238 
z
" transform="scale(0.015625)"/>
       </defs>
       <use xlink:href="#TimesNewRomanPSMT-30"/>
       <use xlink:href="#TimesNewRomanPSMT-2e" transform="translate(50 0)"/>
       <use xlink:href="#TimesNewRomanPSMT-37" transform="translate(75 0)"/>
       <use xlink:href="#TimesNewRomanPSMT-35" transform="translate(125 0)"/>
      </g>
     </g>
    </g>
    <g id="xtick_5">
     <g id="line2d_9">
      <path d="M 512.14726 311.6435 
L 512.14726 45.5315 
" clip-path="url(#p8b4a09fd9d)" style="fill: none; stroke: #b0b0b0; stroke-opacity: 0.3; stroke-width: 0.8; stroke-linecap: square"/>
     </g>
     <g id="line2d_10">
      <g>
       <use xlink:href="#m34cac62f98" x="512.14726" y="311.6435" style="stroke: #000000; stroke-width: 0.8"/>
      </g>
     </g>
     <g id="text_5">
      <!-- 1.00 -->
      <g transform="translate(492.89726 333.91975) scale(0.22 -0.22)">
       <defs>
        <path id="TimesNewRomanPSMT-31" d="M 750 3822 
L 1781 4325 
L 1884 4325 
L 1884 747 
Q 1884 391 1914 303 
Q 1944 216 2037 169 
Q 2131 122 2419 116 
L 2419 0 
L 825 0 
L 825 116 
Q 1125 122 1212 167 
Q 1300 213 1334 289 
Q 1369 366 1369 747 
L 1369 3034 
Q 1369 3497 1338 3628 
Q 1316 3728 1258 3775 
Q 1200 3822 1119 3822 
Q 1003 3822 797 3725 
L 750 3822 
z
" transform="scale(0.015625)"/>
       </defs>
       <use xlink:href="#TimesNewRomanPSMT-31"/>
       <use xlink:href="#TimesNewRomanPSMT-2e" transform="translate(50 0)"/>
       <use xlink:href="#TimesNewRomanPSMT-30" transform="translate(75 0)"/>
       <use xlink:href="#TimesNewRomanPSMT-30" transform="translate(125 0)"/>
      </g>
     </g>
    </g>
    <g id="text_6">
     <!-- $\kappa  = \frac{ln(n)}{ln(d)}$ -->
     <g transform="translate(360.86925 364.185687) scale(0.22 -0.22)">
      <defs>
       <path id="STIXGeneral-Italic-3ba" d="M 979 1440 
L 998 1446 
Q 1850 2541 2464 2790 
Q 2547 2822 2630 2822 
Q 2797 2822 2886 2736 
Q 2976 2650 2976 2522 
Q 2976 2387 2893 2307 
Q 2810 2227 2682 2227 
Q 2605 2227 2502 2288 
Q 2400 2349 2336 2349 
Q 2170 2349 1990 2205 
Q 1811 2061 1414 1645 
L 2042 544 
Q 2202 262 2310 182 
Q 2419 102 2624 102 
L 2624 0 
Q 2374 -83 2182 -83 
Q 1786 -83 1555 326 
L 960 1350 
L 576 0 
L 90 0 
L 640 1978 
Q 730 2317 730 2406 
Q 730 2560 518 2560 
L 339 2560 
L 339 2650 
Q 678 2694 1306 2822 
L 1325 2803 
L 979 1440 
z
" transform="scale(0.015625)"/>
       <path id="STIXGeneral-Regular-3d" d="M 4077 2048 
L 307 2048 
L 307 2470 
L 4077 2470 
L 4077 2048 
z
M 4077 768 
L 307 768 
L 307 1190 
L 4077 1190 
L 4077 768 
z
" transform="scale(0.015625)"/>
       <path id="STIXGeneral-Italic-6c" d="M 1786 4339 
L 806 595 
Q 755 410 755 320 
Q 755 205 864 205 
Q 1037 205 1293 570 
L 1453 794 
L 1542 730 
Q 1254 275 1046 102 
Q 838 -70 576 -70 
Q 262 -70 262 288 
Q 262 397 288 480 
L 1165 3834 
Q 1184 3898 1184 3955 
Q 1184 4096 870 4096 
L 755 4096 
L 755 4198 
Q 1203 4250 1747 4371 
L 1786 4339 
z
" transform="scale(0.015625)"/>
       <path id="STIXGeneral-Italic-6e" d="M 2944 749 
L 3034 666 
Q 2707 218 2534 80 
Q 2362 -58 2138 -58 
Q 2010 -58 1923 28 
Q 1837 115 1837 288 
Q 1837 390 1939 768 
L 2221 1805 
Q 2310 2150 2310 2310 
Q 2310 2496 2157 2496 
Q 1971 2496 1750 2275 
Q 1530 2054 1210 1587 
Q 998 1274 899 1024 
Q 800 774 570 0 
L 90 0 
L 704 2240 
Q 717 2304 717 2349 
Q 717 2445 630 2480 
Q 544 2515 301 2522 
L 301 2624 
Q 550 2675 857 2729 
Q 1165 2784 1338 2822 
L 1363 2810 
L 934 1414 
Q 1408 2170 1753 2496 
Q 2099 2822 2413 2822 
Q 2611 2822 2720 2716 
Q 2829 2611 2829 2432 
Q 2829 2272 2765 2048 
L 2406 749 
Q 2317 429 2317 358 
Q 2317 243 2419 243 
Q 2541 243 2810 582 
Q 2854 634 2944 749 
z
" transform="scale(0.015625)"/>
       <path id="STIXGeneral-Regular-28" d="M 1946 -1030 
L 1869 -1133 
Q 1126 -710 716 32 
Q 307 774 307 1613 
Q 307 3386 1888 4326 
L 1946 4224 
Q 1293 3667 1075 3126 
Q 858 2586 858 1632 
Q 858 685 1082 96 
Q 1306 -493 1946 -1030 
z
" transform="scale(0.015625)"/>
       <path id="STIXGeneral-Regular-29" d="M 186 4224 
L 262 4326 
Q 992 3891 1408 3148 
Q 1824 2406 1824 1581 
Q 1824 -166 243 -1133 
L 186 -1030 
Q 845 -486 1059 54 
Q 1274 595 1274 1562 
Q 1274 2534 1059 3120 
Q 845 3706 186 4224 
z
" transform="scale(0.015625)"/>
       <path id="STIXGeneral-Italic-64" d="M 3334 4371 
L 3373 4333 
L 3123 3360 
L 2739 1958 
Q 2323 429 2323 384 
Q 2323 256 2438 256 
Q 2522 256 2614 336 
Q 2707 416 2963 710 
L 3040 646 
Q 2547 -83 2099 -83 
Q 1978 -83 1907 -6 
Q 1837 70 1837 205 
Q 1837 397 1920 774 
Q 1645 307 1379 118 
Q 1114 -70 781 -70 
Q 461 -70 278 125 
Q 96 320 96 678 
Q 96 1440 713 2131 
Q 1331 2822 1965 2822 
Q 2163 2822 2256 2732 
Q 2349 2643 2381 2451 
L 2387 2451 
L 2675 3494 
Q 2765 3808 2765 3949 
Q 2765 4051 2694 4076 
Q 2624 4102 2355 4115 
L 2355 4224 
Q 2848 4269 3334 4371 
z
M 2278 2310 
Q 2278 2477 2185 2576 
Q 2093 2675 1978 2675 
Q 1677 2675 1395 2381 
Q 1075 2042 864 1571 
Q 653 1101 653 704 
Q 653 486 752 361 
Q 851 237 1024 237 
Q 1312 237 1606 550 
Q 1901 864 2089 1350 
Q 2278 1837 2278 2310 
z
" transform="scale(0.015625)"/>
      </defs>
      <use xlink:href="#STIXGeneral-Italic-3ba" transform="translate(0 0.003125)"/>
      <use xlink:href="#STIXGeneral-Regular-3d" transform="translate(58.83999 0.003125)"/>
      <use xlink:href="#STIXGeneral-Italic-6c" transform="translate(141.779971 50.192188) scale(0.7)"/>
      <use xlink:href="#STIXGeneral-Italic-6e" transform="translate(161.239963 50.192188) scale(0.7)"/>
      <use xlink:href="#STIXGeneral-Regular-28" transform="translate(196.239952 50.192188) scale(0.7)"/>
      <use xlink:href="#STIXGeneral-Italic-6e" transform="translate(219.549944 50.192188) scale(0.7)"/>
      <use xlink:href="#STIXGeneral-Regular-29" transform="translate(254.549933 50.192188) scale(0.7)"/>
      <use xlink:href="#STIXGeneral-Italic-6c" transform="translate(141.779971 -41.257812) scale(0.7)"/>
      <use xlink:href="#STIXGeneral-Italic-6e" transform="translate(161.239963 -41.257812) scale(0.7)"/>
      <use xlink:href="#STIXGeneral-Regular-28" transform="translate(196.239952 -41.257812) scale(0.7)"/>
      <use xlink:href="#STIXGeneral-Italic-64" transform="translate(219.549944 -41.257812) scale(0.7)"/>
      <use xlink:href="#STIXGeneral-Regular-29" transform="translate(254.549933 -41.257812) scale(0.7)"/>
      <path d="M 141.779971 12.8 
L 141.779971 19.05 
L 277.859924 19.05 
L 277.859924 12.8 
L 141.779971 12.8 
z
"/>
     </g>
    </g>
   </g>
   <g id="matplotlib.axis_2">
    <g id="ytick_1">
     <g id="line2d_11">
      <path d="M 214.31925 311.6435 
L 571.43925 311.6435 
" clip-path="url(#p8b4a09fd9d)" style="fill: none; stroke: #b0b0b0; stroke-opacity: 0.3; stroke-width: 0.8; stroke-linecap: square"/>
     </g>
     <g id="line2d_12">
      <defs>
       <path id="maf846fb1ad" d="M 0 0 
L -3.5 0 
" style="stroke: #000000; stroke-width: 0.8"/>
      </defs>
      <g>
       <use xlink:href="#maf846fb1ad" x="214.31925" y="311.6435" style="stroke: #000000; stroke-width: 0.8"/>
      </g>
     </g>
     <g id="text_7">
      <!-- 0.0 -->
      <g transform="translate(179.81925 319.281625) scale(0.22 -0.22)">
       <use xlink:href="#TimesNewRomanPSMT-30"/>
       <use xlink:href="#TimesNewRomanPSMT-2e" transform="translate(50 0)"/>
       <use xlink:href="#TimesNewRomanPSMT-30" transform="translate(75 0)"/>
      </g>
     </g>
    </g>
    <g id="ytick_2">
     <g id="line2d_13">
      <path d="M 214.31925 260.907188 
L 571.43925 260.907188 
" clip-path="url(#p8b4a09fd9d)" style="fill: none; stroke: #b0b0b0; stroke-opacity: 0.3; stroke-width: 0.8; stroke-linecap: square"/>
     </g>
     <g id="line2d_14">
      <g>
       <use xlink:href="#maf846fb1ad" x="214.31925" y="260.907188" style="stroke: #000000; stroke-width: 0.8"/>
      </g>
     </g>
     <g id="text_8">
      <!-- 0.1 -->
      <g transform="translate(179.81925 268.545313) scale(0.22 -0.22)">
       <use xlink:href="#TimesNewRomanPSMT-30"/>
       <use xlink:href="#TimesNewRomanPSMT-2e" transform="translate(50 0)"/>
       <use xlink:href="#TimesNewRomanPSMT-31" transform="translate(75 0)"/>
      </g>
     </g>
    </g>
    <g id="ytick_3">
     <g id="line2d_15">
      <path d="M 214.31925 210.170875 
L 571.43925 210.170875 
" clip-path="url(#p8b4a09fd9d)" style="fill: none; stroke: #b0b0b0; stroke-opacity: 0.3; stroke-width: 0.8; stroke-linecap: square"/>
     </g>
     <g id="line2d_16">
      <g>
       <use xlink:href="#maf846fb1ad" x="214.31925" y="210.170875" style="stroke: #000000; stroke-width: 0.8"/>
      </g>
     </g>
     <g id="text_9">
      <!-- 0.2 -->
      <g transform="translate(179.81925 217.809) scale(0.22 -0.22)">
       <use xlink:href="#TimesNewRomanPSMT-30"/>
       <use xlink:href="#TimesNewRomanPSMT-2e" transform="translate(50 0)"/>
       <use xlink:href="#TimesNewRomanPSMT-32" transform="translate(75 0)"/>
      </g>
     </g>
    </g>
    <g id="ytick_4">
     <g id="line2d_17">
      <path d="M 214.31925 159.434563 
L 571.43925 159.434563 
" clip-path="url(#p8b4a09fd9d)" style="fill: none; stroke: #b0b0b0; stroke-opacity: 0.3; stroke-width: 0.8; stroke-linecap: square"/>
     </g>
     <g id="line2d_18">
      <g>
       <use xlink:href="#maf846fb1ad" x="214.31925" y="159.434563" style="stroke: #000000; stroke-width: 0.8"/>
      </g>
     </g>
     <g id="text_10">
      <!-- 0.3 -->
      <g transform="translate(179.81925 167.072688) scale(0.22 -0.22)">
       <defs>
        <path id="TimesNewRomanPSMT-33" d="M 325 3431 
Q 506 3859 782 4092 
Q 1059 4325 1472 4325 
Q 1981 4325 2253 3994 
Q 2459 3747 2459 3466 
Q 2459 3003 1878 2509 
Q 2269 2356 2469 2072 
Q 2669 1788 2669 1403 
Q 2669 853 2319 450 
Q 1863 -75 997 -75 
Q 569 -75 414 31 
Q 259 138 259 259 
Q 259 350 332 419 
Q 406 488 509 488 
Q 588 488 669 463 
Q 722 447 909 348 
Q 1097 250 1169 231 
Q 1284 197 1416 197 
Q 1734 197 1970 444 
Q 2206 691 2206 1028 
Q 2206 1275 2097 1509 
Q 2016 1684 1919 1775 
Q 1784 1900 1550 2001 
Q 1316 2103 1072 2103 
L 972 2103 
L 972 2197 
Q 1219 2228 1467 2375 
Q 1716 2522 1828 2728 
Q 1941 2934 1941 3181 
Q 1941 3503 1739 3701 
Q 1538 3900 1238 3900 
Q 753 3900 428 3381 
L 325 3431 
z
" transform="scale(0.015625)"/>
       </defs>
       <use xlink:href="#TimesNewRomanPSMT-30"/>
       <use xlink:href="#TimesNewRomanPSMT-2e" transform="translate(50 0)"/>
       <use xlink:href="#TimesNewRomanPSMT-33" transform="translate(75 0)"/>
      </g>
     </g>
    </g>
    <g id="ytick_5">
     <g id="line2d_19">
      <path d="M 214.31925 108.69825 
L 571.43925 108.69825 
" clip-path="url(#p8b4a09fd9d)" style="fill: none; stroke: #b0b0b0; stroke-opacity: 0.3; stroke-width: 0.8; stroke-linecap: square"/>
     </g>
     <g id="line2d_20">
      <g>
       <use xlink:href="#maf846fb1ad" x="214.31925" y="108.69825" style="stroke: #000000; stroke-width: 0.8"/>
      </g>
     </g>
     <g id="text_11">
      <!-- 0.4 -->
      <g transform="translate(179.81925 116.336375) scale(0.22 -0.22)">
       <defs>
        <path id="TimesNewRomanPSMT-34" d="M 2978 1563 
L 2978 1119 
L 2409 1119 
L 2409 0 
L 1894 0 
L 1894 1119 
L 100 1119 
L 100 1519 
L 2066 4325 
L 2409 4325 
L 2409 1563 
L 2978 1563 
z
M 1894 1563 
L 1894 3666 
L 406 1563 
L 1894 1563 
z
" transform="scale(0.015625)"/>
       </defs>
       <use xlink:href="#TimesNewRomanPSMT-30"/>
       <use xlink:href="#TimesNewRomanPSMT-2e" transform="translate(50 0)"/>
       <use xlink:href="#TimesNewRomanPSMT-34" transform="translate(75 0)"/>
      </g>
     </g>
    </g>
    <g id="ytick_6">
     <g id="line2d_21">
      <path d="M 214.31925 57.961938 
L 571.43925 57.961938 
" clip-path="url(#p8b4a09fd9d)" style="fill: none; stroke: #b0b0b0; stroke-opacity: 0.3; stroke-width: 0.8; stroke-linecap: square"/>
     </g>
     <g id="line2d_22">
      <g>
       <use xlink:href="#maf846fb1ad" x="214.31925" y="57.961938" style="stroke: #000000; stroke-width: 0.8"/>
      </g>
     </g>
     <g id="text_12">
      <!-- 0.5 -->
      <g transform="translate(179.81925 65.600063) scale(0.22 -0.22)">
       <use xlink:href="#TimesNewRomanPSMT-30"/>
       <use xlink:href="#TimesNewRomanPSMT-2e" transform="translate(50 0)"/>
       <use xlink:href="#TimesNewRomanPSMT-35" transform="translate(75 0)"/>
      </g>
     </g>
    </g>
    <g id="text_13">
     <!-- Loss -->
     <g transform="translate(171.113313 199.368906) rotate(-90) scale(0.22 -0.22)">
      <defs>
       <path id="TimesNewRomanPSMT-4c" d="M 3669 1172 
L 3772 1150 
L 3409 0 
L 128 0 
L 128 116 
L 288 116 
Q 556 116 672 291 
Q 738 391 738 753 
L 738 3488 
Q 738 3884 650 3984 
Q 528 4122 288 4122 
L 128 4122 
L 128 4238 
L 2047 4238 
L 2047 4122 
Q 1709 4125 1573 4059 
Q 1438 3994 1388 3894 
Q 1338 3794 1338 3416 
L 1338 753 
Q 1338 494 1388 397 
Q 1425 331 1503 300 
Q 1581 269 1991 269 
L 2300 269 
Q 2788 269 2984 341 
Q 3181 413 3343 595 
Q 3506 778 3669 1172 
z
" transform="scale(0.015625)"/>
       <path id="TimesNewRomanPSMT-6f" d="M 1600 2947 
Q 2250 2947 2644 2453 
Q 2978 2031 2978 1484 
Q 2978 1100 2793 706 
Q 2609 313 2286 112 
Q 1963 -88 1566 -88 
Q 919 -88 538 428 
Q 216 863 216 1403 
Q 216 1797 411 2186 
Q 606 2575 925 2761 
Q 1244 2947 1600 2947 
z
M 1503 2744 
Q 1338 2744 1170 2645 
Q 1003 2547 900 2300 
Q 797 2053 797 1666 
Q 797 1041 1045 587 
Q 1294 134 1700 134 
Q 2003 134 2200 384 
Q 2397 634 2397 1244 
Q 2397 2006 2069 2444 
Q 1847 2744 1503 2744 
z
" transform="scale(0.015625)"/>
       <path id="TimesNewRomanPSMT-73" d="M 2050 2947 
L 2050 1972 
L 1947 1972 
Q 1828 2431 1642 2597 
Q 1456 2763 1169 2763 
Q 950 2763 815 2647 
Q 681 2531 681 2391 
Q 681 2216 781 2091 
Q 878 1963 1175 1819 
L 1631 1597 
Q 2266 1288 2266 781 
Q 2266 391 1970 151 
Q 1675 -88 1309 -88 
Q 1047 -88 709 6 
Q 606 38 541 38 
Q 469 38 428 -44 
L 325 -44 
L 325 978 
L 428 978 
Q 516 541 762 319 
Q 1009 97 1316 97 
Q 1531 97 1667 223 
Q 1803 350 1803 528 
Q 1803 744 1651 891 
Q 1500 1038 1047 1263 
Q 594 1488 453 1669 
Q 313 1847 313 2119 
Q 313 2472 555 2709 
Q 797 2947 1181 2947 
Q 1350 2947 1591 2875 
Q 1750 2828 1803 2828 
Q 1853 2828 1881 2850 
Q 1909 2872 1947 2947 
L 2050 2947 
z
" transform="scale(0.015625)"/>
      </defs>
      <use xlink:href="#TimesNewRomanPSMT-4c"/>
      <use xlink:href="#TimesNewRomanPSMT-6f" transform="translate(61.083984 0)"/>
      <use xlink:href="#TimesNewRomanPSMT-73" transform="translate(111.083984 0)"/>
      <use xlink:href="#TimesNewRomanPSMT-73" transform="translate(150 0)"/>
     </g>
    </g>
   </g>
   <g id="line2d_23">
    <path d="M 214.31925 111.018428 
L 317.437316 59.484083 
L 345.225383 62.020836 
L 361.96117 50.605161 
L 373.97498 50.605131 
L 383.353244 54.1582 
L 391.046805 67.097245 
L 397.569749 68.871133 
L 403.231711 64.811191 
L 408.233701 58.970784 
L 412.713639 54.665677 
L 416.770272 58.145154 
L 420.476734 57.208327 
L 423.888705 53.649724 
L 427.049556 59.482753 
L 429.993731 57.176393 
L 432.749041 55.946302 
L 435.338262 61.046676 
L 437.780285 64.294868 
L 440.09095 62.240251 
L 442.28367 160.255499 
L 444.369903 194.117432 
L 446.359515 199.306935 
L 448.261061 205.582618 
L 450.082007 217.036873 
L 451.82891 222.345179 
L 455.123079 235.043897 
L 456.680055 235.986711 
L 458.18258 246.946182 
L 459.634334 233.222598 
L 461.038635 254.695263 
L 462.398489 257.739625 
L 463.716623 257.832908 
L 464.99552 251.343427 
L 466.23745 246.429995 
L 467.444489 270.737149 
L 468.618545 264.353077 
L 469.761371 265.202983 
L 470.874588 265.831233 
L 471.959689 269.811356 
L 473.018061 279.433626 
L 474.050989 274.917095 
L 475.059668 274.073883 
L 476.045209 263.443883 
L 477.008651 279.420883 
L 477.950963 265.667295 
L 478.873052 282.970406 
L 479.775768 285.118965 
L 480.659908 285.66615 
L 481.526222 289.543183 
L 482.375413 287.128232 
L 483.208146 288.147933 
L 484.025047 283.400296 
L 484.826706 292.013883 
L 485.613681 293.343638 
L 486.386502 293.506659 
L 487.145668 295.673758 
L 487.891653 291.513713 
L 488.624907 292.854282 
L 489.345858 295.020758 
L 490.054912 289.365327 
L 490.752454 294.676823 
L 491.438852 295.574446 
L 492.114458 292.68386 
L 492.779605 296.006386 
L 493.434613 297.705395 
L 494.079785 298.754606 
L 494.715412 296.568999 
L 495.341774 298.947855 
L 495.959135 296.830474 
L 496.567752 299.607269 
L 497.167869 293.408739 
L 497.759719 300.648801 
L 498.343527 300.866363 
L 498.919509 297.942594 
L 499.487872 300.964327 
L 500.048815 301.850477 
L 500.602529 303.419968 
L 501.149199 303.325218 
L 501.689 301.79065 
L 502.222104 301.216797 
L 502.748674 302.905791 
L 503.26887 300.204573 
L 503.782842 304.579169 
L 504.792703 301.264173 
L 505.288871 303.091252 
L 505.779374 303.892272 
L 506.264341 302.441404 
L 506.743895 303.965683 
L 507.218156 302.894417 
L 507.687239 303.702808 
L 508.151257 305.036176 
L 508.610317 303.291529 
L 509.064524 305.021805 
L 509.51398 305.796836 
L 509.958783 303.644399 
L 510.399028 304.659027 
L 510.834809 304.2903 
L 511.266214 304.212856 
L 511.693331 305.918909 
L 512.116244 305.187155 
L 512.535035 304.867241 
L 512.949783 305.814563 
L 513.360566 305.668466 
L 513.767459 304.629629 
L 514.170535 304.58463 
L 514.569865 304.241615 
L 514.965518 306.93993 
L 515.35756 307.166033 
L 515.746058 305.916364 
L 516.131075 305.86969 
L 516.512673 306.357895 
L 516.890911 305.593 
L 517.265848 307.235883 
L 517.637543 305.591696 
L 518.006049 306.436248 
L 518.371422 306.37161 
L 518.733714 307.507052 
L 519.092977 306.29662 
L 519.44926 307.466505 
L 519.802614 307.976847 
L 520.500722 305.75017 
L 520.845568 308.008671 
L 521.187668 307.804149 
L 521.527066 305.950938 
L 521.863804 307.858514 
L 522.197924 307.584013 
L 522.529466 308.683881 
L 522.858469 306.953664 
L 523.184971 306.893995 
L 523.509012 307.984724 
L 523.830627 308.234084 
L 524.149853 308.301157 
L 524.466724 308.68494 
L 524.781276 308.73389 
L 525.093541 308.461111 
L 525.403554 307.734308 
L 526.016949 309.321158 
L 526.320393 307.625405 
L 526.62171 308.71683 
L 526.920928 308.033745 
L 527.218077 307.734937 
L 528.097389 309.780559 
L 528.959067 308.468892 
L 529.242495 310.029775 
L 529.524066 308.287348 
L 530.081732 310.108935 
L 530.632253 309.042464 
L 530.904891 308.6665 
L 531.175809 309.007367 
L 531.712575 310.342916 
L 531.978465 309.530904 
L 532.242719 309.984795 
L 532.505357 308.727049 
L 533.025867 309.925977 
L 533.283776 309.016848 
L 533.794997 309.844975 
L 534.048344 309.451573 
L 534.300206 309.965165 
L 534.5506 308.063474 
L 534.799544 309.62975 
L 535.047054 309.544303 
L 535.293146 309.280189 
L 535.537836 309.921151 
L 535.781141 309.386545 
L 536.263657 310.612554 
L 536.502898 309.305067 
L 536.740814 309.468654 
L 536.97742 310.179744 
L 537.21273 309.549808 
L 537.446759 310.223583 
L 537.911026 309.310585 
L 538.141293 309.785918 
L 538.598155 309.359356 
L 538.824778 310.023945 
L 539.050212 310.23829 
L 539.274469 310.028895 
L 539.497561 310.568377 
L 539.719502 310.240925 
L 539.940301 310.147343 
L 540.159972 309.761665 
L 540.378526 310.263917 
L 540.595974 310.376193 
L 540.812326 309.776362 
L 541.027595 310.578156 
L 541.241791 310.776082 
L 541.454924 309.815256 
L 541.878044 310.636378 
L 542.088052 309.643908 
L 542.297039 309.681839 
L 542.505014 310.499094 
L 542.711987 310.441923 
L 542.917968 310.173118 
L 543.122966 310.448038 
L 543.326991 310.111356 
L 543.530051 310.183092 
L 543.732157 310.558251 
L 544.133538 309.40951 
L 544.332831 309.955192 
L 544.531205 311.235378 
L 544.728666 310.248158 
L 544.925224 310.4813 
L 545.120887 310.974838 
L 545.315663 310.98045 
L 545.509561 310.253251 
L 545.702587 310.255089 
L 545.89475 310.47533 
L 546.086057 309.504631 
L 546.466135 311.054948 
L 546.65492 310.269418 
L 546.84288 310.365166 
L 547.030021 311.038764 
L 547.401876 309.286451 
L 547.586604 310.03677 
L 547.77054 310.084539 
L 548.136068 310.557927 
L 548.317673 309.821954 
L 548.678595 311.122436 
L 548.857925 311.108168 
L 549.036511 310.347104 
L 549.214357 311.099414 
L 549.391469 310.342014 
L 549.567855 311.37692 
L 549.74352 311.104578 
L 550.266246 309.610512 
L 550.439084 310.606313 
L 550.61123 310.923271 
L 550.953466 310.88033 
L 551.123568 309.88997 
L 551.292998 310.632334 
L 551.461763 310.605147 
L 551.629868 310.379079 
L 551.797318 309.155014 
L 551.964117 310.382172 
L 552.130272 310.402703 
L 552.295787 310.63546 
L 552.460666 311.221697 
L 552.624915 310.419298 
L 552.788539 310.399253 
L 552.951542 310.644106 
L 553.113929 310.641968 
L 553.275705 310.447451 
L 553.436873 311.138636 
L 553.59744 310.430493 
L 553.757408 310.426584 
L 553.916784 310.91686 
L 554.233772 310.656854 
L 554.704912 311.426086 
L 554.860817 310.430859 
L 555.016159 310.692006 
L 555.170942 310.424542 
L 555.325168 311.180593 
L 555.784555 311.207074 
L 555.936599 310.238769 
L 556.088106 311.241796 
L 556.239082 310.463262 
L 556.389528 311.469807 
L 556.688851 310.48967 
L 556.837733 310.47962 
L 556.986102 311.237679 
L 557.13396 311.237669 
L 557.281311 310.245874 
L 557.574506 311.232844 
L 557.720357 309.937719 
L 558.010581 311.236154 
L 558.154961 310.980083 
L 558.298858 310.995448 
L 558.442274 310.200906 
L 558.727679 311.255133 
L 558.869674 310.500819 
L 559.011201 311.519133 
L 559.152263 311.25456 
L 559.292864 311.522208 
L 559.85071 310.511139 
L 559.989047 311.264635 
L 560.264393 310.170793 
L 560.401407 310.262314 
L 560.537985 310.769541 
L 560.674131 310.012799 
L 560.945135 311.275166 
L 561.079999 311.266008 
L 561.21444 311.028827 
L 561.348463 311.030731 
L 561.482068 310.543519 
L 561.61526 311.291243 
L 561.74804 310.77133 
L 561.88041 311.029211 
L 562.012375 311.041233 
L 562.143935 310.787797 
L 562.275093 310.290376 
L 562.405853 311.291935 
L 562.536216 310.786884 
L 562.666184 311.284353 
L 562.795761 311.294042 
L 562.924947 310.530956 
L 563.053747 311.301421 
L 563.182162 310.543379 
L 563.310194 311.556695 
L 563.437846 310.791961 
L 563.565119 311.309987 
L 563.692017 311.299768 
L 563.818541 309.532843 
L 563.944693 311.295437 
L 564.320944 310.803054 
L 564.445632 311.065095 
L 564.569959 310.29462 
L 564.693928 311.057031 
L 564.940798 310.546055 
L 565.063703 311.317493 
L 565.186257 311.314056 
L 565.308463 310.568649 
L 565.430322 311.060506 
L 565.551837 310.304266 
L 565.673008 311.069309 
L 565.914332 310.554849 
L 566.154308 311.32278 
L 566.39295 310.54953 
L 566.630275 311.311896 
L 566.866296 311.561603 
L 566.983822 311.321558 
L 567.101028 311.580792 
L 567.217914 310.812088 
L 567.334484 311.573237 
L 567.450738 311.57965 
L 567.797625 310.054676 
L 567.912635 311.322541 
L 568.027337 310.823164 
L 568.141735 311.334548 
L 568.255828 311.076702 
L 568.369619 311.584559 
L 568.596301 310.325356 
L 568.821794 311.334924 
L 568.934098 310.825247 
L 569.046109 311.0818 
L 569.157829 310.316945 
L 569.380402 311.333665 
L 569.601827 311.076347 
L 569.712114 311.311668 
L 569.822118 310.565183 
L 570.041284 311.333154 
L 570.15045 311.342503 
L 570.259339 310.320437 
L 570.476292 310.817845 
L 570.584359 310.575102 
L 570.692156 311.338014 
L 570.90694 310.583122 
L 571.120656 311.346577 
L 571.43925 310.834797 
L 571.43925 310.834797 
" clip-path="url(#p8b4a09fd9d)" style="fill: none; stroke: #ffa500; stroke-width: 1.5; stroke-linecap: square"/>
   </g>
   <g id="line2d_24">
    <path d="M 214.31925 58.571298 
L 317.437316 57.962104 
L 412.713639 58.010898 
L 420.476734 58.166474 
L 427.049556 58.170557 
L 432.749041 58.310271 
L 435.338262 58.89686 
L 437.780285 59.688438 
L 440.09095 66.604026 
L 442.28367 156.673883 
L 444.369903 193.749797 
L 446.359515 199.300508 
L 448.261061 207.159153 
L 450.082007 212.530965 
L 451.82891 216.18767 
L 453.507556 217.899201 
L 455.123079 216.242127 
L 456.680055 222.685672 
L 458.18258 229.555437 
L 459.634334 232.160285 
L 461.038635 235.688654 
L 462.398489 237.362452 
L 463.716623 238.238411 
L 464.99552 218.238258 
L 466.23745 240.122097 
L 467.444489 242.977282 
L 468.618545 243.394104 
L 469.761371 246.296057 
L 470.874588 245.201855 
L 471.959689 245.297319 
L 473.018061 249.542476 
L 474.050989 250.224298 
L 475.059668 248.688733 
L 476.045209 245.555095 
L 477.008651 250.901312 
L 477.950963 248.670717 
L 478.873052 252.552859 
L 479.775768 253.106999 
L 480.659908 249.168718 
L 481.526222 252.874652 
L 482.375413 253.120777 
L 483.208146 250.76125 
L 484.025047 251.853762 
L 484.826706 252.216535 
L 485.613681 253.429177 
L 486.386502 253.291705 
L 487.891653 253.879911 
L 488.624907 253.88715 
L 489.345858 253.186824 
L 490.054912 251.255149 
L 490.752454 251.335152 
L 491.438852 253.841289 
L 492.114458 253.472709 
L 492.779605 254.568741 
L 493.434613 253.562688 
L 494.079785 254.41473 
L 494.715412 251.422685 
L 495.341774 254.350506 
L 495.959135 251.887916 
L 496.567752 254.545747 
L 497.167869 245.867071 
L 497.759719 254.62564 
L 498.919509 254.556089 
L 499.487872 254.303579 
L 500.048815 254.645221 
L 500.602529 254.29671 
L 501.149199 254.301874 
L 501.689 254.691237 
L 502.222104 254.333567 
L 502.748674 250.254475 
L 503.26887 254.388632 
L 503.782842 254.566673 
L 504.29074 252.87311 
L 504.792703 254.940916 
L 505.288871 254.504592 
L 505.779374 254.494662 
L 506.264341 252.594879 
L 506.743895 254.399961 
L 507.218156 254.011339 
L 507.687239 254.269323 
L 508.151257 253.821716 
L 508.610317 254.665638 
L 509.064524 254.816076 
L 509.51398 252.989757 
L 509.958783 254.751028 
L 510.399028 255.001156 
L 510.834809 255.047667 
L 511.266214 254.373965 
L 512.535035 255.103474 
L 512.949783 254.63021 
L 513.360566 254.943354 
L 514.170535 252.305244 
L 514.569865 254.152876 
L 514.965518 254.831821 
L 515.35756 255.090829 
L 515.746058 254.596079 
L 516.131075 255.032936 
L 516.512673 255.153466 
L 517.637543 255.067343 
L 518.006049 254.523236 
L 518.371422 254.577496 
L 519.092977 254.985238 
L 519.44926 254.585291 
L 519.802614 254.950253 
L 520.500722 254.899115 
L 520.845568 254.120525 
L 521.187668 254.938599 
L 521.527066 254.759782 
L 522.197924 254.971142 
L 522.529466 254.880755 
L 522.858469 254.573122 
L 523.184971 254.095546 
L 523.509012 254.691641 
L 523.830627 254.53737 
L 524.149853 254.894099 
L 524.781276 253.821326 
L 525.093541 254.631768 
L 525.403554 254.589725 
L 525.711346 253.92962 
L 526.016949 254.466628 
L 526.320393 254.326585 
L 526.62171 254.478267 
L 526.920928 254.270729 
L 527.218077 254.228342 
L 527.513185 254.61949 
L 527.80628 254.052577 
L 528.38654 254.553575 
L 528.673757 253.740076 
L 528.959067 254.314432 
L 529.242495 254.321478 
L 529.524066 254.033491 
L 529.803804 254.305427 
L 530.081732 253.94541 
L 530.632253 254.370805 
L 530.904891 253.9442 
L 531.175809 254.267187 
L 531.445031 253.601975 
L 531.712575 254.440088 
L 531.978465 254.027722 
L 532.505357 254.243335 
L 532.7664 254.17942 
L 533.025867 254.503023 
L 533.540147 253.570071 
L 533.794997 254.289347 
L 534.048344 253.81535 
L 534.799544 254.340741 
L 535.047054 253.976199 
L 535.293146 254.165497 
L 535.537836 253.958073 
L 535.781141 254.129148 
L 536.502898 253.807703 
L 536.740814 254.339468 
L 536.97742 253.797175 
L 537.21273 253.676618 
L 537.446759 253.793281 
L 537.67952 254.226989 
L 537.911026 254.019788 
L 538.370331 254.124865 
L 538.598155 253.92691 
L 538.824778 254.105805 
L 539.050212 253.984425 
L 539.274469 253.618374 
L 539.497561 253.663841 
L 539.719502 254.140242 
L 539.940301 253.638473 
L 540.159972 253.690593 
L 540.595974 254.293788 
L 541.027595 254.076842 
L 541.454924 254.080958 
L 541.878044 253.592926 
L 542.088052 253.419757 
L 542.297039 253.622702 
L 542.505014 253.583116 
L 542.711987 253.362647 
L 543.530051 253.92161 
L 543.732157 253.759744 
L 544.133538 253.92801 
L 544.332831 254.035207 
L 544.925224 253.48732 
L 545.89475 253.046199 
L 546.086057 253.141939 
L 546.276516 253.487535 
L 546.466135 253.146112 
L 546.65492 253.178848 
L 546.84288 253.547371 
L 547.216351 253.316514 
L 547.401876 253.678845 
L 547.953693 253.718858 
L 548.136068 253.579794 
L 548.317673 253.718604 
L 548.498513 253.573224 
L 548.678595 253.652512 
L 548.857925 252.978848 
L 549.036511 253.117969 
L 549.214357 253.669927 
L 549.391469 253.750377 
L 549.567855 253.494487 
L 549.91847 253.610296 
L 550.09271 253.272505 
L 550.266246 253.495681 
L 550.439084 253.518158 
L 550.782689 253.034669 
L 550.953466 253.161815 
L 551.123568 253.546071 
L 551.629868 253.141799 
L 551.797318 253.111471 
L 551.964117 253.228421 
L 552.130272 253.139073 
L 552.460666 253.36764 
L 552.788539 253.453185 
L 553.113929 253.506409 
L 553.275705 253.399771 
L 553.59744 252.818245 
L 553.757408 252.713825 
L 553.916784 253.443462 
L 554.07557 253.215886 
L 554.233772 253.467841 
L 554.391393 253.318037 
L 554.548438 252.58919 
L 554.704912 253.459759 
L 554.860817 253.322448 
L 555.016159 252.838793 
L 555.170942 253.108269 
L 555.325168 253.05743 
L 555.478844 253.318528 
L 555.631971 253.308424 
L 555.784555 252.859792 
L 555.936599 252.930024 
L 556.088106 253.188533 
L 556.239082 253.081853 
L 556.389528 253.172214 
L 556.688851 253.093179 
L 556.986102 252.664967 
L 557.428159 253.125306 
L 557.574506 252.243541 
L 557.720357 253.138344 
L 557.865714 252.694085 
L 558.298858 253.124996 
L 558.442274 252.702232 
L 558.585214 252.832934 
L 558.727679 252.782851 
L 558.869674 252.896282 
L 559.011201 252.816411 
L 559.152263 252.90272 
L 559.292864 252.240713 
L 559.433006 252.535905 
L 559.572692 253.199594 
L 559.711926 252.75447 
L 559.85071 252.764536 
L 559.989047 252.886227 
L 560.126941 252.667488 
L 560.264393 252.969745 
L 560.401407 252.319786 
L 560.537985 252.97796 
L 560.809847 252.61835 
L 560.945135 252.549476 
L 561.079999 252.782458 
L 561.21444 252.29954 
L 561.348463 252.253214 
L 561.482068 252.641262 
L 561.61526 252.328345 
L 561.88041 252.721435 
L 562.012375 252.521174 
L 562.143935 252.772123 
L 562.275093 252.44449 
L 562.405853 252.55625 
L 562.536216 252.352413 
L 562.666184 252.716044 
L 562.795761 252.392494 
L 562.924947 252.652818 
L 563.053747 252.437716 
L 563.310194 252.529868 
L 563.437846 252.410839 
L 563.565119 252.544562 
L 563.692017 252.306541 
L 563.944693 252.493099 
L 564.070477 252.359504 
L 564.195893 252.420229 
L 564.445632 252.062101 
L 564.569959 252.459935 
L 564.693928 252.19114 
L 564.81754 252.691916 
L 564.940798 252.371264 
L 565.063703 252.579059 
L 565.186257 252.266112 
L 565.308463 252.504065 
L 565.430322 252.372285 
L 565.551837 252.067575 
L 565.673008 252.586094 
L 565.79384 252.033712 
L 566.034487 252.531025 
L 566.154308 252.057138 
L 566.273795 252.37828 
L 566.39295 252.346535 
L 566.511777 252.785414 
L 566.630275 251.56421 
L 566.748448 252.696331 
L 566.866296 252.283826 
L 566.983822 252.566241 
L 567.101028 252.256321 
L 567.217914 252.469049 
L 568.255828 252.179981 
L 568.369619 252.081437 
L 568.48311 252.296966 
L 568.596301 252.199521 
L 568.709196 252.405705 
L 568.821794 251.813405 
L 568.934098 252.321854 
L 569.046109 251.833674 
L 569.157829 252.551268 
L 569.26926 251.776106 
L 569.491257 252.51886 
L 569.601827 252.476201 
L 569.712114 252.109073 
L 569.822118 252.319484 
L 569.931841 251.711417 
L 570.041284 252.387375 
L 570.259339 252.195121 
L 570.367952 251.635965 
L 570.476292 252.25741 
L 570.584359 251.991787 
L 570.692156 252.294883 
L 570.90694 252.227645 
L 571.013931 251.91288 
L 571.227117 252.247276 
L 571.333314 252.279297 
L 571.43925 252.152677 
L 571.43925 252.152677 
" clip-path="url(#p8b4a09fd9d)" style="fill: none; stroke: #008000; stroke-width: 1.5; stroke-linecap: square"/>
   </g>
   <g id="patch_3">
    <path d="M 214.31925 311.6435 
L 214.31925 45.5315 
" style="fill: none; stroke: #000000; stroke-width: 0.8; stroke-linejoin: miter; stroke-linecap: square"/>
   </g>
   <g id="patch_4">
    <path d="M 571.43925 311.6435 
L 571.43925 45.5315 
" style="fill: none; stroke: #000000; stroke-width: 0.8; stroke-linejoin: miter; stroke-linecap: square"/>
   </g>
   <g id="patch_5">
    <path d="M 214.31925 311.6435 
L 571.43925 311.6435 
" style="fill: none; stroke: #000000; stroke-width: 0.8; stroke-linejoin: miter; stroke-linecap: square"/>
   </g>
   <g id="patch_6">
    <path d="M 214.31925 45.5315 
L 571.43925 45.5315 
" style="fill: none; stroke: #000000; stroke-width: 0.8; stroke-linejoin: miter; stroke-linecap: square"/>
   </g>
   <g id="text_14">
    <!-- Loss of the 21_05_25_CIFAR10_torch_model_(1024+16384.3+1)_ct-pb -->
    <g transform="translate(7.2 25.5315) scale(0.264 -0.264)">
     <defs>
      <path id="TimesNewRomanPSMT-20" transform="scale(0.015625)"/>
      <path id="TimesNewRomanPSMT-66" d="M 1319 2638 
L 1319 756 
Q 1319 356 1406 250 
Q 1522 113 1716 113 
L 1975 113 
L 1975 0 
L 266 0 
L 266 113 
L 394 113 
Q 519 113 622 175 
Q 725 238 764 344 
Q 803 450 803 756 
L 803 2638 
L 247 2638 
L 247 2863 
L 803 2863 
L 803 3050 
Q 803 3478 940 3775 
Q 1078 4072 1361 4255 
Q 1644 4438 1997 4438 
Q 2325 4438 2600 4225 
Q 2781 4084 2781 3909 
Q 2781 3816 2700 3733 
Q 2619 3650 2525 3650 
Q 2453 3650 2373 3701 
Q 2294 3753 2178 3923 
Q 2063 4094 1966 4153 
Q 1869 4213 1750 4213 
Q 1606 4213 1506 4136 
Q 1406 4059 1362 3898 
Q 1319 3738 1319 3069 
L 1319 2863 
L 2056 2863 
L 2056 2638 
L 1319 2638 
z
" transform="scale(0.015625)"/>
      <path id="TimesNewRomanPSMT-74" d="M 1031 3803 
L 1031 2863 
L 1700 2863 
L 1700 2644 
L 1031 2644 
L 1031 788 
Q 1031 509 1111 412 
Q 1191 316 1316 316 
Q 1419 316 1516 380 
Q 1613 444 1666 569 
L 1788 569 
Q 1678 263 1478 108 
Q 1278 -47 1066 -47 
Q 922 -47 784 33 
Q 647 113 581 261 
Q 516 409 516 719 
L 516 2644 
L 63 2644 
L 63 2747 
Q 234 2816 414 2980 
Q 594 3144 734 3369 
Q 806 3488 934 3803 
L 1031 3803 
z
" transform="scale(0.015625)"/>
      <path id="TimesNewRomanPSMT-68" d="M 1041 4444 
L 1041 2350 
Q 1388 2731 1591 2839 
Q 1794 2947 1997 2947 
Q 2241 2947 2416 2812 
Q 2591 2678 2675 2391 
Q 2734 2191 2734 1659 
L 2734 647 
Q 2734 375 2778 275 
Q 2809 200 2884 156 
Q 2959 113 3159 113 
L 3159 0 
L 1753 0 
L 1753 113 
L 1819 113 
Q 2019 113 2097 173 
Q 2175 234 2206 353 
Q 2216 403 2216 647 
L 2216 1659 
Q 2216 2128 2167 2275 
Q 2119 2422 2012 2495 
Q 1906 2569 1756 2569 
Q 1603 2569 1437 2487 
Q 1272 2406 1041 2159 
L 1041 647 
Q 1041 353 1073 281 
Q 1106 209 1195 161 
Q 1284 113 1503 113 
L 1503 0 
L 84 0 
L 84 113 
Q 275 113 384 172 
Q 447 203 484 290 
Q 522 378 522 647 
L 522 3238 
Q 522 3728 498 3840 
Q 475 3953 426 3993 
Q 378 4034 297 4034 
Q 231 4034 84 3984 
L 41 4094 
L 897 4444 
L 1041 4444 
z
" transform="scale(0.015625)"/>
      <path id="TimesNewRomanPSMT-65" d="M 681 1784 
Q 678 1147 991 784 
Q 1303 422 1725 422 
Q 2006 422 2214 576 
Q 2422 731 2563 1106 
L 2659 1044 
Q 2594 616 2278 264 
Q 1963 -88 1488 -88 
Q 972 -88 605 314 
Q 238 716 238 1394 
Q 238 2128 614 2539 
Q 991 2950 1559 2950 
Q 2041 2950 2350 2633 
Q 2659 2316 2659 1784 
L 681 1784 
z
M 681 1966 
L 2006 1966 
Q 1991 2241 1941 2353 
Q 1863 2528 1708 2628 
Q 1553 2728 1384 2728 
Q 1125 2728 920 2526 
Q 716 2325 681 1966 
z
" transform="scale(0.015625)"/>
      <path id="TimesNewRomanPSMT-5f" d="M 3256 -1381 
L -53 -1381 
L -53 -1119 
L 3256 -1119 
L 3256 -1381 
z
" transform="scale(0.015625)"/>
      <path id="TimesNewRomanPSMT-43" d="M 3853 4334 
L 3950 2894 
L 3853 2894 
Q 3659 3541 3300 3825 
Q 2941 4109 2438 4109 
Q 2016 4109 1675 3895 
Q 1334 3681 1139 3212 
Q 944 2744 944 2047 
Q 944 1472 1128 1050 
Q 1313 628 1683 403 
Q 2053 178 2528 178 
Q 2941 178 3256 354 
Q 3572 531 3950 1056 
L 4047 994 
Q 3728 428 3303 165 
Q 2878 -97 2294 -97 
Q 1241 -97 663 684 
Q 231 1266 231 2053 
Q 231 2688 515 3219 
Q 800 3750 1298 4042 
Q 1797 4334 2388 4334 
Q 2847 4334 3294 4109 
Q 3425 4041 3481 4041 
Q 3566 4041 3628 4100 
Q 3709 4184 3744 4334 
L 3853 4334 
z
" transform="scale(0.015625)"/>
      <path id="TimesNewRomanPSMT-49" d="M 1975 116 
L 1975 0 
L 159 0 
L 159 116 
L 309 116 
Q 572 116 691 269 
Q 766 369 766 750 
L 766 3488 
Q 766 3809 725 3913 
Q 694 3991 597 4047 
Q 459 4122 309 4122 
L 159 4122 
L 159 4238 
L 1975 4238 
L 1975 4122 
L 1822 4122 
Q 1563 4122 1444 3969 
Q 1366 3869 1366 3488 
L 1366 750 
Q 1366 428 1406 325 
Q 1438 247 1538 191 
Q 1672 116 1822 116 
L 1975 116 
z
" transform="scale(0.015625)"/>
      <path id="TimesNewRomanPSMT-46" d="M 1309 4006 
L 1309 2341 
L 2081 2341 
Q 2347 2341 2470 2458 
Q 2594 2575 2634 2922 
L 2750 2922 
L 2750 1488 
L 2634 1488 
Q 2631 1734 2570 1850 
Q 2509 1966 2401 2023 
Q 2294 2081 2081 2081 
L 1309 2081 
L 1309 750 
Q 1309 428 1350 325 
Q 1381 247 1481 191 
Q 1619 116 1769 116 
L 1922 116 
L 1922 0 
L 103 0 
L 103 116 
L 253 116 
Q 516 116 634 269 
Q 709 369 709 750 
L 709 3488 
Q 709 3809 669 3913 
Q 638 3991 541 4047 
Q 406 4122 253 4122 
L 103 4122 
L 103 4238 
L 3256 4238 
L 3297 3306 
L 3188 3306 
Q 3106 3603 2998 3742 
Q 2891 3881 2733 3943 
Q 2575 4006 2244 4006 
L 1309 4006 
z
" transform="scale(0.015625)"/>
      <path id="TimesNewRomanPSMT-41" d="M 2928 1419 
L 1288 1419 
L 1000 750 
Q 894 503 894 381 
Q 894 284 986 211 
Q 1078 138 1384 116 
L 1384 0 
L 50 0 
L 50 116 
Q 316 163 394 238 
Q 553 388 747 847 
L 2238 4334 
L 2347 4334 
L 3822 809 
Q 4000 384 4145 257 
Q 4291 131 4550 116 
L 4550 0 
L 2878 0 
L 2878 116 
Q 3131 128 3220 200 
Q 3309 272 3309 375 
Q 3309 513 3184 809 
L 2928 1419 
z
M 2841 1650 
L 2122 3363 
L 1384 1650 
L 2841 1650 
z
" transform="scale(0.015625)"/>
      <path id="TimesNewRomanPSMT-52" d="M 4325 0 
L 3194 0 
L 1759 1981 
Q 1600 1975 1500 1975 
Q 1459 1975 1412 1976 
Q 1366 1978 1316 1981 
L 1316 750 
Q 1316 350 1403 253 
Q 1522 116 1759 116 
L 1925 116 
L 1925 0 
L 109 0 
L 109 116 
L 269 116 
Q 538 116 653 291 
Q 719 388 719 750 
L 719 3488 
Q 719 3888 631 3984 
Q 509 4122 269 4122 
L 109 4122 
L 109 4238 
L 1653 4238 
Q 2328 4238 2648 4139 
Q 2969 4041 3192 3777 
Q 3416 3513 3416 3147 
Q 3416 2756 3161 2468 
Q 2906 2181 2372 2063 
L 3247 847 
Q 3547 428 3762 290 
Q 3978 153 4325 116 
L 4325 0 
z
M 1316 2178 
Q 1375 2178 1419 2176 
Q 1463 2175 1491 2175 
Q 2097 2175 2405 2437 
Q 2713 2700 2713 3106 
Q 2713 3503 2464 3751 
Q 2216 4000 1806 4000 
Q 1625 4000 1316 3941 
L 1316 2178 
z
" transform="scale(0.015625)"/>
      <path id="TimesNewRomanPSMT-72" d="M 1038 2947 
L 1038 2303 
Q 1397 2947 1775 2947 
Q 1947 2947 2059 2842 
Q 2172 2738 2172 2600 
Q 2172 2478 2090 2393 
Q 2009 2309 1897 2309 
Q 1788 2309 1652 2417 
Q 1516 2525 1450 2525 
Q 1394 2525 1328 2463 
Q 1188 2334 1038 2041 
L 1038 669 
Q 1038 431 1097 309 
Q 1138 225 1241 169 
Q 1344 113 1538 113 
L 1538 0 
L 72 0 
L 72 113 
Q 291 113 397 181 
Q 475 231 506 341 
Q 522 394 522 644 
L 522 1753 
Q 522 2253 501 2348 
Q 481 2444 426 2487 
Q 372 2531 291 2531 
Q 194 2531 72 2484 
L 41 2597 
L 906 2947 
L 1038 2947 
z
" transform="scale(0.015625)"/>
      <path id="TimesNewRomanPSMT-63" d="M 2631 1088 
Q 2516 522 2178 217 
Q 1841 -88 1431 -88 
Q 944 -88 581 321 
Q 219 731 219 1428 
Q 219 2103 620 2525 
Q 1022 2947 1584 2947 
Q 2006 2947 2278 2723 
Q 2550 2500 2550 2259 
Q 2550 2141 2473 2067 
Q 2397 1994 2259 1994 
Q 2075 1994 1981 2113 
Q 1928 2178 1911 2362 
Q 1894 2547 1784 2644 
Q 1675 2738 1481 2738 
Q 1169 2738 978 2506 
Q 725 2200 725 1697 
Q 725 1184 976 792 
Q 1228 400 1656 400 
Q 1963 400 2206 609 
Q 2378 753 2541 1131 
L 2631 1088 
z
" transform="scale(0.015625)"/>
      <path id="TimesNewRomanPSMT-6d" d="M 1050 2338 
Q 1363 2650 1419 2697 
Q 1559 2816 1721 2881 
Q 1884 2947 2044 2947 
Q 2313 2947 2506 2790 
Q 2700 2634 2766 2338 
Q 3088 2713 3309 2830 
Q 3531 2947 3766 2947 
Q 3994 2947 4170 2830 
Q 4347 2713 4450 2447 
Q 4519 2266 4519 1878 
L 4519 647 
Q 4519 378 4559 278 
Q 4591 209 4675 161 
Q 4759 113 4950 113 
L 4950 0 
L 3538 0 
L 3538 113 
L 3597 113 
Q 3781 113 3884 184 
Q 3956 234 3988 344 
Q 4000 397 4000 647 
L 4000 1878 
Q 4000 2228 3916 2372 
Q 3794 2572 3525 2572 
Q 3359 2572 3192 2489 
Q 3025 2406 2788 2181 
L 2781 2147 
L 2788 2013 
L 2788 647 
Q 2788 353 2820 281 
Q 2853 209 2943 161 
Q 3034 113 3253 113 
L 3253 0 
L 1806 0 
L 1806 113 
Q 2044 113 2133 169 
Q 2222 225 2256 338 
Q 2272 391 2272 647 
L 2272 1878 
Q 2272 2228 2169 2381 
Q 2031 2581 1784 2581 
Q 1616 2581 1450 2491 
Q 1191 2353 1050 2181 
L 1050 647 
Q 1050 366 1089 281 
Q 1128 197 1204 155 
Q 1281 113 1516 113 
L 1516 0 
L 100 0 
L 100 113 
Q 297 113 375 155 
Q 453 197 493 289 
Q 534 381 534 647 
L 534 1741 
Q 534 2213 506 2350 
Q 484 2453 437 2492 
Q 391 2531 309 2531 
Q 222 2531 100 2484 
L 53 2597 
L 916 2947 
L 1050 2947 
L 1050 2338 
z
" transform="scale(0.015625)"/>
      <path id="TimesNewRomanPSMT-64" d="M 2222 322 
Q 2013 103 1813 7 
Q 1613 -88 1381 -88 
Q 913 -88 563 304 
Q 213 697 213 1313 
Q 213 1928 600 2439 
Q 988 2950 1597 2950 
Q 1975 2950 2222 2709 
L 2222 3238 
Q 2222 3728 2198 3840 
Q 2175 3953 2125 3993 
Q 2075 4034 2000 4034 
Q 1919 4034 1784 3984 
L 1744 4094 
L 2597 4444 
L 2738 4444 
L 2738 1134 
Q 2738 631 2761 520 
Q 2784 409 2836 365 
Q 2888 322 2956 322 
Q 3041 322 3181 375 
L 3216 266 
L 2366 -88 
L 2222 -88 
L 2222 322 
z
M 2222 541 
L 2222 2016 
Q 2203 2228 2109 2403 
Q 2016 2578 1861 2667 
Q 1706 2756 1559 2756 
Q 1284 2756 1069 2509 
Q 784 2184 784 1559 
Q 784 928 1059 592 
Q 1334 256 1672 256 
Q 1956 256 2222 541 
z
" transform="scale(0.015625)"/>
      <path id="TimesNewRomanPSMT-6c" d="M 1184 4444 
L 1184 647 
Q 1184 378 1223 290 
Q 1263 203 1344 158 
Q 1425 113 1647 113 
L 1647 0 
L 244 0 
L 244 113 
Q 441 113 512 153 
Q 584 194 625 287 
Q 666 381 666 647 
L 666 3247 
Q 666 3731 644 3842 
Q 622 3953 573 3993 
Q 525 4034 450 4034 
Q 369 4034 244 3984 
L 191 4094 
L 1044 4444 
L 1184 4444 
z
" transform="scale(0.015625)"/>
      <path id="TimesNewRomanPSMT-28" d="M 1988 -1253 
L 1988 -1369 
Q 1516 -1131 1200 -813 
Q 750 -359 506 256 
Q 263 872 263 1534 
Q 263 2503 741 3301 
Q 1219 4100 1988 4444 
L 1988 4313 
Q 1603 4100 1356 3731 
Q 1109 3363 987 2797 
Q 866 2231 866 1616 
Q 866 947 969 400 
Q 1050 -31 1165 -292 
Q 1281 -553 1476 -793 
Q 1672 -1034 1988 -1253 
z
" transform="scale(0.015625)"/>
      <path id="TimesNewRomanPSMT-2b" d="M 1672 441 
L 1672 2000 
L 116 2000 
L 116 2256 
L 1672 2256 
L 1672 3809 
L 1922 3809 
L 1922 2256 
L 3484 2256 
L 3484 2000 
L 1922 2000 
L 1922 441 
L 1672 441 
z
" transform="scale(0.015625)"/>
      <path id="TimesNewRomanPSMT-36" d="M 2869 4325 
L 2869 4209 
Q 2456 4169 2195 4045 
Q 1934 3922 1679 3669 
Q 1425 3416 1258 3105 
Q 1091 2794 978 2366 
Q 1428 2675 1881 2675 
Q 2316 2675 2634 2325 
Q 2953 1975 2953 1425 
Q 2953 894 2631 456 
Q 2244 -75 1606 -75 
Q 1172 -75 869 213 
Q 275 772 275 1663 
Q 275 2231 503 2743 
Q 731 3256 1154 3653 
Q 1578 4050 1965 4187 
Q 2353 4325 2688 4325 
L 2869 4325 
z
M 925 2138 
Q 869 1716 869 1456 
Q 869 1156 980 804 
Q 1091 453 1309 247 
Q 1469 100 1697 100 
Q 1969 100 2183 356 
Q 2397 613 2397 1088 
Q 2397 1622 2184 2012 
Q 1972 2403 1581 2403 
Q 1463 2403 1327 2353 
Q 1191 2303 925 2138 
z
" transform="scale(0.015625)"/>
      <path id="TimesNewRomanPSMT-38" d="M 1228 2134 
Q 725 2547 579 2797 
Q 434 3047 434 3316 
Q 434 3728 753 4026 
Q 1072 4325 1600 4325 
Q 2113 4325 2425 4047 
Q 2738 3769 2738 3413 
Q 2738 3175 2569 2928 
Q 2400 2681 1866 2347 
Q 2416 1922 2594 1678 
Q 2831 1359 2831 1006 
Q 2831 559 2490 242 
Q 2150 -75 1597 -75 
Q 994 -75 656 303 
Q 388 606 388 966 
Q 388 1247 577 1523 
Q 766 1800 1228 2134 
z
M 1719 2469 
Q 2094 2806 2194 3001 
Q 2294 3197 2294 3444 
Q 2294 3772 2109 3958 
Q 1925 4144 1606 4144 
Q 1288 4144 1088 3959 
Q 888 3775 888 3528 
Q 888 3366 970 3203 
Q 1053 3041 1206 2894 
L 1719 2469 
z
M 1375 2016 
Q 1116 1797 991 1539 
Q 866 1281 866 981 
Q 866 578 1086 336 
Q 1306 94 1647 94 
Q 1984 94 2187 284 
Q 2391 475 2391 747 
Q 2391 972 2272 1150 
Q 2050 1481 1375 2016 
z
" transform="scale(0.015625)"/>
      <path id="TimesNewRomanPSMT-29" d="M 144 4313 
L 144 4444 
Q 619 4209 934 3891 
Q 1381 3434 1625 2820 
Q 1869 2206 1869 1541 
Q 1869 572 1392 -226 
Q 916 -1025 144 -1369 
L 144 -1253 
Q 528 -1038 776 -670 
Q 1025 -303 1145 264 
Q 1266 831 1266 1447 
Q 1266 2113 1163 2663 
Q 1084 3094 967 3353 
Q 850 3613 656 3853 
Q 463 4094 144 4313 
z
" transform="scale(0.015625)"/>
      <path id="TimesNewRomanPSMT-2d" d="M 259 1672 
L 1875 1672 
L 1875 1200 
L 259 1200 
L 259 1672 
z
" transform="scale(0.015625)"/>
      <path id="TimesNewRomanPSMT-70" d="M -6 2578 
L 875 2934 
L 994 2934 
L 994 2266 
Q 1216 2644 1439 2795 
Q 1663 2947 1909 2947 
Q 2341 2947 2628 2609 
Q 2981 2197 2981 1534 
Q 2981 794 2556 309 
Q 2206 -88 1675 -88 
Q 1444 -88 1275 -22 
Q 1150 25 994 166 
L 994 -706 
Q 994 -1000 1030 -1079 
Q 1066 -1159 1155 -1206 
Q 1244 -1253 1478 -1253 
L 1478 -1369 
L -22 -1369 
L -22 -1253 
L 56 -1253 
Q 228 -1256 350 -1188 
Q 409 -1153 442 -1076 
Q 475 -1000 475 -688 
L 475 2019 
Q 475 2297 450 2372 
Q 425 2447 370 2484 
Q 316 2522 222 2522 
Q 147 2522 31 2478 
L -6 2578 
z
M 994 2081 
L 994 1013 
Q 994 666 1022 556 
Q 1066 375 1236 237 
Q 1406 100 1666 100 
Q 1978 100 2172 344 
Q 2425 663 2425 1241 
Q 2425 1897 2138 2250 
Q 1938 2494 1663 2494 
Q 1513 2494 1366 2419 
Q 1253 2363 994 2081 
z
" transform="scale(0.015625)"/>
      <path id="TimesNewRomanPSMT-62" d="M 984 2369 
Q 1400 2947 1881 2947 
Q 2322 2947 2650 2570 
Q 2978 2194 2978 1541 
Q 2978 778 2472 313 
Q 2038 -88 1503 -88 
Q 1253 -88 995 3 
Q 738 94 469 275 
L 469 3241 
Q 469 3728 445 3840 
Q 422 3953 372 3993 
Q 322 4034 247 4034 
Q 159 4034 28 3984 
L -16 4094 
L 844 4444 
L 984 4444 
L 984 2369 
z
M 984 2169 
L 984 456 
Q 1144 300 1314 220 
Q 1484 141 1663 141 
Q 1947 141 2192 453 
Q 2438 766 2438 1363 
Q 2438 1913 2192 2208 
Q 1947 2503 1634 2503 
Q 1469 2503 1303 2419 
Q 1178 2356 984 2169 
z
" transform="scale(0.015625)"/>
     </defs>
     <use xlink:href="#TimesNewRomanPSMT-4c"/>
     <use xlink:href="#TimesNewRomanPSMT-6f" transform="translate(61.083984 0)"/>
     <use xlink:href="#TimesNewRomanPSMT-73" transform="translate(111.083984 0)"/>
     <use xlink:href="#TimesNewRomanPSMT-73" transform="translate(150 0)"/>
     <use xlink:href="#TimesNewRomanPSMT-20" transform="translate(188.916016 0)"/>
     <use xlink:href="#TimesNewRomanPSMT-6f" transform="translate(213.916016 0)"/>
     <use xlink:href="#TimesNewRomanPSMT-66" transform="translate(263.916016 0)"/>
     <use xlink:href="#TimesNewRomanPSMT-20" transform="translate(297.216797 0)"/>
     <use xlink:href="#TimesNewRomanPSMT-74" transform="translate(322.216797 0)"/>
     <use xlink:href="#TimesNewRomanPSMT-68" transform="translate(350 0)"/>
     <use xlink:href="#TimesNewRomanPSMT-65" transform="translate(400 0)"/>
     <use xlink:href="#TimesNewRomanPSMT-20" transform="translate(444.384766 0)"/>
     <use xlink:href="#TimesNewRomanPSMT-32" transform="translate(469.384766 0)"/>
     <use xlink:href="#TimesNewRomanPSMT-31" transform="translate(519.384766 0)"/>
     <use xlink:href="#TimesNewRomanPSMT-5f" transform="translate(569.384766 0)"/>
     <use xlink:href="#TimesNewRomanPSMT-30" transform="translate(619.384766 0)"/>
     <use xlink:href="#TimesNewRomanPSMT-35" transform="translate(669.384766 0)"/>
     <use xlink:href="#TimesNewRomanPSMT-5f" transform="translate(719.384766 0)"/>
     <use xlink:href="#TimesNewRomanPSMT-32" transform="translate(769.384766 0)"/>
     <use xlink:href="#TimesNewRomanPSMT-35" transform="translate(819.384766 0)"/>
     <use xlink:href="#TimesNewRomanPSMT-5f" transform="translate(869.384766 0)"/>
     <use xlink:href="#TimesNewRomanPSMT-43" transform="translate(919.384766 0)"/>
     <use xlink:href="#TimesNewRomanPSMT-49" transform="translate(986.083984 0)"/>
     <use xlink:href="#TimesNewRomanPSMT-46" transform="translate(1019.384766 0)"/>
     <use xlink:href="#TimesNewRomanPSMT-41" transform="translate(1067.625 0)"/>
     <use xlink:href="#TimesNewRomanPSMT-52" transform="translate(1139.841797 0)"/>
     <use xlink:href="#TimesNewRomanPSMT-31" transform="translate(1206.541016 0)"/>
     <use xlink:href="#TimesNewRomanPSMT-30" transform="translate(1256.541016 0)"/>
     <use xlink:href="#TimesNewRomanPSMT-5f" transform="translate(1306.541016 0)"/>
     <use xlink:href="#TimesNewRomanPSMT-74" transform="translate(1356.541016 0)"/>
     <use xlink:href="#TimesNewRomanPSMT-6f" transform="translate(1384.324219 0)"/>
     <use xlink:href="#TimesNewRomanPSMT-72" transform="translate(1434.324219 0)"/>
     <use xlink:href="#TimesNewRomanPSMT-63" transform="translate(1467.625 0)"/>
     <use xlink:href="#TimesNewRomanPSMT-68" transform="translate(1512.009766 0)"/>
     <use xlink:href="#TimesNewRomanPSMT-5f" transform="translate(1562.009766 0)"/>
     <use xlink:href="#TimesNewRomanPSMT-6d" transform="translate(1612.009766 0)"/>
     <use xlink:href="#TimesNewRomanPSMT-6f" transform="translate(1689.792969 0)"/>
     <use xlink:href="#TimesNewRomanPSMT-64" transform="translate(1739.792969 0)"/>
     <use xlink:href="#TimesNewRomanPSMT-65" transform="translate(1789.792969 0)"/>
     <use xlink:href="#TimesNewRomanPSMT-6c" transform="translate(1834.177734 0)"/>
     <use xlink:href="#TimesNewRomanPSMT-5f" transform="translate(1861.960938 0)"/>
     <use xlink:href="#TimesNewRomanPSMT-28" transform="translate(1911.960938 0)"/>
     <use xlink:href="#TimesNewRomanPSMT-31" transform="translate(1945.261719 0)"/>
     <use xlink:href="#TimesNewRomanPSMT-30" transform="translate(1995.261719 0)"/>
     <use xlink:href="#TimesNewRomanPSMT-32" transform="translate(2045.261719 0)"/>
     <use xlink:href="#TimesNewRomanPSMT-34" transform="translate(2095.261719 0)"/>
     <use xlink:href="#TimesNewRomanPSMT-2b" transform="translate(2145.261719 0)"/>
     <use xlink:href="#TimesNewRomanPSMT-31" transform="translate(2201.658203 0)"/>
     <use xlink:href="#TimesNewRomanPSMT-36" transform="translate(2251.658203 0)"/>
     <use xlink:href="#TimesNewRomanPSMT-33" transform="translate(2301.658203 0)"/>
     <use xlink:href="#TimesNewRomanPSMT-38" transform="translate(2351.658203 0)"/>
     <use xlink:href="#TimesNewRomanPSMT-34" transform="translate(2401.658203 0)"/>
     <use xlink:href="#TimesNewRomanPSMT-2e" transform="translate(2451.658203 0)"/>
     <use xlink:href="#TimesNewRomanPSMT-33" transform="translate(2476.658203 0)"/>
     <use xlink:href="#TimesNewRomanPSMT-2b" transform="translate(2526.658203 0)"/>
     <use xlink:href="#TimesNewRomanPSMT-31" transform="translate(2583.054688 0)"/>
     <use xlink:href="#TimesNewRomanPSMT-29" transform="translate(2633.054688 0)"/>
     <use xlink:href="#TimesNewRomanPSMT-5f" transform="translate(2666.355469 0)"/>
     <use xlink:href="#TimesNewRomanPSMT-63" transform="translate(2716.355469 0)"/>
     <use xlink:href="#TimesNewRomanPSMT-74" transform="translate(2760.740234 0)"/>
     <use xlink:href="#TimesNewRomanPSMT-2d" transform="translate(2788.523438 0)"/>
     <use xlink:href="#TimesNewRomanPSMT-70" transform="translate(2821.824219 0)"/>
     <use xlink:href="#TimesNewRomanPSMT-62" transform="translate(2871.824219 0)"/>
    </g>
   </g>
   <g id="legend_1">
    <g id="patch_7">
     <path d="M 229.71925 300.6435 
L 430.27675 300.6435 
Q 434.67675 300.6435 434.67675 296.2435 
L 434.67675 236.190375 
Q 434.67675 231.790375 430.27675 231.790375 
L 229.71925 231.790375 
Q 225.31925 231.790375 225.31925 236.190375 
L 225.31925 296.2435 
Q 225.31925 300.6435 229.71925 300.6435 
z
" style="fill: #ffffff; opacity: 0.8; stroke: #cccccc; stroke-linejoin: miter"/>
    </g>
    <g id="line2d_25">
     <path d="M 234.11925 248.290375 
L 256.11925 248.290375 
L 278.11925 248.290375 
" style="fill: none; stroke: #ffa500; stroke-width: 1.5; stroke-linecap: square"/>
    </g>
    <g id="text_15">
     <!-- Training loss -->
     <g transform="translate(295.71925 255.990375) scale(0.22 -0.22)">
      <defs>
       <path id="TimesNewRomanPSMT-54" d="M 3703 4238 
L 3750 3244 
L 3631 3244 
Q 3597 3506 3538 3619 
Q 3441 3800 3280 3886 
Q 3119 3972 2856 3972 
L 2259 3972 
L 2259 734 
Q 2259 344 2344 247 
Q 2463 116 2709 116 
L 2856 116 
L 2856 0 
L 1059 0 
L 1059 116 
L 1209 116 
Q 1478 116 1591 278 
Q 1659 378 1659 734 
L 1659 3972 
L 1150 3972 
Q 853 3972 728 3928 
Q 566 3869 450 3700 
Q 334 3531 313 3244 
L 194 3244 
L 244 4238 
L 3703 4238 
z
" transform="scale(0.015625)"/>
       <path id="TimesNewRomanPSMT-61" d="M 1822 413 
Q 1381 72 1269 19 
Q 1100 -59 909 -59 
Q 613 -59 420 144 
Q 228 347 228 678 
Q 228 888 322 1041 
Q 450 1253 767 1440 
Q 1084 1628 1822 1897 
L 1822 2009 
Q 1822 2438 1686 2597 
Q 1550 2756 1291 2756 
Q 1094 2756 978 2650 
Q 859 2544 859 2406 
L 866 2225 
Q 866 2081 792 2003 
Q 719 1925 600 1925 
Q 484 1925 411 2006 
Q 338 2088 338 2228 
Q 338 2497 613 2722 
Q 888 2947 1384 2947 
Q 1766 2947 2009 2819 
Q 2194 2722 2281 2516 
Q 2338 2381 2338 1966 
L 2338 994 
Q 2338 584 2353 492 
Q 2369 400 2405 369 
Q 2441 338 2488 338 
Q 2538 338 2575 359 
Q 2641 400 2828 588 
L 2828 413 
Q 2478 -56 2159 -56 
Q 2006 -56 1915 50 
Q 1825 156 1822 413 
z
M 1822 616 
L 1822 1706 
Q 1350 1519 1213 1441 
Q 966 1303 859 1153 
Q 753 1003 753 825 
Q 753 600 887 451 
Q 1022 303 1197 303 
Q 1434 303 1822 616 
z
" transform="scale(0.015625)"/>
       <path id="TimesNewRomanPSMT-69" d="M 928 4444 
Q 1059 4444 1151 4351 
Q 1244 4259 1244 4128 
Q 1244 3997 1151 3903 
Q 1059 3809 928 3809 
Q 797 3809 703 3903 
Q 609 3997 609 4128 
Q 609 4259 701 4351 
Q 794 4444 928 4444 
z
M 1188 2947 
L 1188 647 
Q 1188 378 1227 289 
Q 1266 200 1342 156 
Q 1419 113 1622 113 
L 1622 0 
L 231 0 
L 231 113 
Q 441 113 512 153 
Q 584 194 626 287 
Q 669 381 669 647 
L 669 1750 
Q 669 2216 641 2353 
Q 619 2453 572 2492 
Q 525 2531 444 2531 
Q 356 2531 231 2484 
L 188 2597 
L 1050 2947 
L 1188 2947 
z
" transform="scale(0.015625)"/>
       <path id="TimesNewRomanPSMT-6e" d="M 1034 2341 
Q 1538 2947 1994 2947 
Q 2228 2947 2397 2830 
Q 2566 2713 2666 2444 
Q 2734 2256 2734 1869 
L 2734 647 
Q 2734 375 2778 278 
Q 2813 200 2889 156 
Q 2966 113 3172 113 
L 3172 0 
L 1756 0 
L 1756 113 
L 1816 113 
Q 2016 113 2095 173 
Q 2175 234 2206 353 
Q 2219 400 2219 647 
L 2219 1819 
Q 2219 2209 2117 2386 
Q 2016 2563 1775 2563 
Q 1403 2563 1034 2156 
L 1034 647 
Q 1034 356 1069 288 
Q 1113 197 1189 155 
Q 1266 113 1500 113 
L 1500 0 
L 84 0 
L 84 113 
L 147 113 
Q 366 113 442 223 
Q 519 334 519 647 
L 519 1709 
Q 519 2225 495 2337 
Q 472 2450 423 2490 
Q 375 2531 294 2531 
Q 206 2531 84 2484 
L 38 2597 
L 900 2947 
L 1034 2947 
L 1034 2341 
z
" transform="scale(0.015625)"/>
       <path id="TimesNewRomanPSMT-67" d="M 966 1044 
Q 703 1172 562 1401 
Q 422 1631 422 1909 
Q 422 2334 742 2640 
Q 1063 2947 1563 2947 
Q 1972 2947 2272 2747 
L 2878 2747 
Q 3013 2747 3034 2739 
Q 3056 2731 3066 2713 
Q 3084 2684 3084 2613 
Q 3084 2531 3069 2500 
Q 3059 2484 3036 2475 
Q 3013 2466 2878 2466 
L 2506 2466 
Q 2681 2241 2681 1891 
Q 2681 1491 2375 1206 
Q 2069 922 1553 922 
Q 1341 922 1119 984 
Q 981 866 932 777 
Q 884 688 884 625 
Q 884 572 936 522 
Q 988 472 1138 450 
Q 1225 438 1575 428 
Q 2219 413 2409 384 
Q 2700 344 2873 169 
Q 3047 -6 3047 -263 
Q 3047 -616 2716 -925 
Q 2228 -1381 1444 -1381 
Q 841 -1381 425 -1109 
Q 191 -953 191 -784 
Q 191 -709 225 -634 
Q 278 -519 444 -313 
Q 466 -284 763 25 
Q 600 122 533 198 
Q 466 275 466 372 
Q 466 481 555 628 
Q 644 775 966 1044 
z
M 1509 2797 
Q 1278 2797 1122 2612 
Q 966 2428 966 2047 
Q 966 1553 1178 1281 
Q 1341 1075 1591 1075 
Q 1828 1075 1981 1253 
Q 2134 1431 2134 1813 
Q 2134 2309 1919 2591 
Q 1759 2797 1509 2797 
z
M 934 0 
Q 788 -159 713 -296 
Q 638 -434 638 -550 
Q 638 -700 819 -813 
Q 1131 -1006 1722 -1006 
Q 2284 -1006 2551 -807 
Q 2819 -609 2819 -384 
Q 2819 -222 2659 -153 
Q 2497 -84 2016 -72 
Q 1313 -53 934 0 
z
" transform="scale(0.015625)"/>
      </defs>
      <use xlink:href="#TimesNewRomanPSMT-54"/>
      <use xlink:href="#TimesNewRomanPSMT-72" transform="translate(57.583984 0)"/>
      <use xlink:href="#TimesNewRomanPSMT-61" transform="translate(90.884766 0)"/>
      <use xlink:href="#TimesNewRomanPSMT-69" transform="translate(135.269531 0)"/>
      <use xlink:href="#TimesNewRomanPSMT-6e" transform="translate(163.052734 0)"/>
      <use xlink:href="#TimesNewRomanPSMT-69" transform="translate(213.052734 0)"/>
      <use xlink:href="#TimesNewRomanPSMT-6e" transform="translate(240.835938 0)"/>
      <use xlink:href="#TimesNewRomanPSMT-67" transform="translate(290.835938 0)"/>
      <use xlink:href="#TimesNewRomanPSMT-20" transform="translate(340.835938 0)"/>
      <use xlink:href="#TimesNewRomanPSMT-6c" transform="translate(365.835938 0)"/>
      <use xlink:href="#TimesNewRomanPSMT-6f" transform="translate(393.619141 0)"/>
      <use xlink:href="#TimesNewRomanPSMT-73" transform="translate(443.619141 0)"/>
      <use xlink:href="#TimesNewRomanPSMT-73" transform="translate(482.535156 0)"/>
     </g>
    </g>
    <g id="line2d_26">
     <path d="M 234.11925 279.437562 
L 256.11925 279.437562 
L 278.11925 279.437562 
" style="fill: none; stroke: #008000; stroke-width: 1.5; stroke-linecap: square"/>
    </g>
    <g id="text_16">
     <!-- Validation loss -->
     <g transform="translate(295.71925 287.137562) scale(0.22 -0.22)">
      <defs>
       <path id="TimesNewRomanPSMT-56" d="M 4544 4238 
L 4544 4122 
Q 4319 4081 4203 3978 
Q 4038 3825 3909 3509 
L 2431 -97 
L 2316 -97 
L 728 3556 
Q 606 3838 556 3900 
Q 478 3997 364 4051 
Q 250 4106 56 4122 
L 56 4238 
L 1788 4238 
L 1788 4122 
Q 1494 4094 1406 4022 
Q 1319 3950 1319 3838 
Q 1319 3681 1463 3350 
L 2541 866 
L 3541 3319 
Q 3688 3681 3688 3822 
Q 3688 3913 3597 3995 
Q 3506 4078 3291 4113 
Q 3275 4116 3238 4122 
L 3238 4238 
L 4544 4238 
z
" transform="scale(0.015625)"/>
      </defs>
      <use xlink:href="#TimesNewRomanPSMT-56"/>
      <use xlink:href="#TimesNewRomanPSMT-61" transform="translate(61.091797 0)"/>
      <use xlink:href="#TimesNewRomanPSMT-6c" transform="translate(105.476562 0)"/>
      <use xlink:href="#TimesNewRomanPSMT-69" transform="translate(133.259766 0)"/>
      <use xlink:href="#TimesNewRomanPSMT-64" transform="translate(161.042969 0)"/>
      <use xlink:href="#TimesNewRomanPSMT-61" transform="translate(211.042969 0)"/>
      <use xlink:href="#TimesNewRomanPSMT-74" transform="translate(255.427734 0)"/>
      <use xlink:href="#TimesNewRomanPSMT-69" transform="translate(283.210938 0)"/>
      <use xlink:href="#TimesNewRomanPSMT-6f" transform="translate(310.994141 0)"/>
      <use xlink:href="#TimesNewRomanPSMT-6e" transform="translate(360.994141 0)"/>
      <use xlink:href="#TimesNewRomanPSMT-20" transform="translate(410.994141 0)"/>
      <use xlink:href="#TimesNewRomanPSMT-6c" transform="translate(435.994141 0)"/>
      <use xlink:href="#TimesNewRomanPSMT-6f" transform="translate(463.777344 0)"/>
      <use xlink:href="#TimesNewRomanPSMT-73" transform="translate(513.777344 0)"/>
      <use xlink:href="#TimesNewRomanPSMT-73" transform="translate(552.693359 0)"/>
     </g>
    </g>
   </g>
  </g>
 </g>
 <defs>
  <clipPath id="p8b4a09fd9d">
   <rect x="214.31925" y="45.5315" width="357.12" height="266.112"/>
  </clipPath>
 </defs>
</svg>
