<?xml version="1.0" encoding="utf-8" standalone="no"?>
<!DOCTYPE svg PUBLIC "-//W3C//DTD SVG 1.1//EN"
  "http://www.w3.org/Graphics/SVG/1.1/DTD/svg11.dtd">
<svg xmlns:xlink="http://www.w3.org/1999/xlink" width="794.7015pt" height="383.265687pt" viewBox="0 0 794.7015 383.265687" xmlns="http://www.w3.org/2000/svg" version="1.1">
 <metadata>
  <rdf:RDF xmlns:dc="http://purl.org/dc/elements/1.1/" xmlns:cc="http://creativecommons.org/ns#" xmlns:rdf="http://www.w3.org/1999/02/22-rdf-syntax-ns#">
   <cc:Work>
    <dc:type rdf:resource="http://purl.org/dc/dcmitype/StillImage"/>
    <dc:date>2025-05-16T14:20:04.313244</dc:date>
    <dc:format>image/svg+xml</dc:format>
    <dc:creator>
     <cc:Agent>
      <dc:title>Matplotlib v3.10.1, https://matplotlib.org/</dc:title>
     </cc:Agent>
    </dc:creator>
   </cc:Work>
  </rdf:RDF>
 </metadata>
 <defs>
  <style type="text/css">*{stroke-linejoin: round; stroke-linecap: butt}</style>
 </defs>
 <g id="figure_1">
  <g id="patch_1">
   <path d="M 0 383.265687 
L 794.7015 383.265687 
L 794.7015 0 
L 0 0 
z
" style="fill: #ffffff"/>
  </g>
  <g id="axes_1">
   <g id="patch_2">
    <path d="M 218.79075 311.6435 
L 575.91075 311.6435 
L 575.91075 45.5315 
L 218.79075 45.5315 
z
" style="fill: #ffffff"/>
   </g>
   <g id="matplotlib.axis_1">
    <g id="xtick_1">
     <g id="line2d_1">
      <path d="M 218.79075 311.6435 
L 218.79075 45.5315 
" clip-path="url(#p102b708c15)" style="fill: none; stroke: #b0b0b0; stroke-opacity: 0.3; stroke-width: 0.8; stroke-linecap: square"/>
     </g>
     <g id="line2d_2">
      <defs>
       <path id="m648b9884db" d="M 0 0 
L 0 3.5 
" style="stroke: #000000; stroke-width: 0.8"/>
      </defs>
      <g>
       <use xlink:href="#m648b9884db" x="218.79075" y="311.6435" style="stroke: #000000; stroke-width: 0.8"/>
      </g>
     </g>
     <g id="text_1">
      <!-- 0.00 -->
      <g transform="translate(199.54075 333.91975) scale(0.22 -0.22)">
       <defs>
        <path id="TimesNewRomanPSMT-30" d="M 231 2094 
Q 231 2819 450 3342 
Q 669 3866 1031 4122 
Q 1313 4325 1613 4325 
Q 2100 4325 2488 3828 
Q 2972 3213 2972 2159 
Q 2972 1422 2759 906 
Q 2547 391 2217 158 
Q 1888 -75 1581 -75 
Q 975 -75 572 641 
Q 231 1244 231 2094 
z
M 844 2016 
Q 844 1141 1059 588 
Q 1238 122 1591 122 
Q 1759 122 1940 273 
Q 2122 425 2216 781 
Q 2359 1319 2359 2297 
Q 2359 3022 2209 3506 
Q 2097 3866 1919 4016 
Q 1791 4119 1609 4119 
Q 1397 4119 1231 3928 
Q 1006 3669 925 3112 
Q 844 2556 844 2016 
z
" transform="scale(0.015625)"/>
        <path id="TimesNewRomanPSMT-2e" d="M 800 606 
Q 947 606 1047 504 
Q 1147 403 1147 259 
Q 1147 116 1045 14 
Q 944 -88 800 -88 
Q 656 -88 554 14 
Q 453 116 453 259 
Q 453 406 554 506 
Q 656 606 800 606 
z
" transform="scale(0.015625)"/>
       </defs>
       <use xlink:href="#TimesNewRomanPSMT-30"/>
       <use xlink:href="#TimesNewRomanPSMT-2e" transform="translate(50 0)"/>
       <use xlink:href="#TimesNewRomanPSMT-30" transform="translate(75 0)"/>
       <use xlink:href="#TimesNewRomanPSMT-30" transform="translate(125 0)"/>
      </g>
     </g>
    </g>
    <g id="xtick_2">
     <g id="line2d_3">
      <path d="M 302.522584 311.6435 
L 302.522584 45.5315 
" clip-path="url(#p102b708c15)" style="fill: none; stroke: #b0b0b0; stroke-opacity: 0.3; stroke-width: 0.8; stroke-linecap: square"/>
     </g>
     <g id="line2d_4">
      <g>
       <use xlink:href="#m648b9884db" x="302.522584" y="311.6435" style="stroke: #000000; stroke-width: 0.8"/>
      </g>
     </g>
     <g id="text_2">
      <!-- 0.25 -->
      <g transform="translate(283.272584 333.91975) scale(0.22 -0.22)">
       <defs>
        <path id="TimesNewRomanPSMT-32" d="M 2934 816 
L 2638 0 
L 138 0 
L 138 116 
Q 1241 1122 1691 1759 
Q 2141 2397 2141 2925 
Q 2141 3328 1894 3587 
Q 1647 3847 1303 3847 
Q 991 3847 742 3664 
Q 494 3481 375 3128 
L 259 3128 
Q 338 3706 661 4015 
Q 984 4325 1469 4325 
Q 1984 4325 2329 3994 
Q 2675 3663 2675 3213 
Q 2675 2891 2525 2569 
Q 2294 2063 1775 1497 
Q 997 647 803 472 
L 1909 472 
Q 2247 472 2383 497 
Q 2519 522 2628 598 
Q 2738 675 2819 816 
L 2934 816 
z
" transform="scale(0.015625)"/>
        <path id="TimesNewRomanPSMT-35" d="M 2778 4238 
L 2534 3706 
L 1259 3706 
L 981 3138 
Q 1809 3016 2294 2522 
Q 2709 2097 2709 1522 
Q 2709 1188 2573 903 
Q 2438 619 2231 419 
Q 2025 219 1772 97 
Q 1413 -75 1034 -75 
Q 653 -75 479 54 
Q 306 184 306 341 
Q 306 428 378 495 
Q 450 563 559 563 
Q 641 563 702 538 
Q 763 513 909 409 
Q 1144 247 1384 247 
Q 1750 247 2026 523 
Q 2303 800 2303 1197 
Q 2303 1581 2056 1914 
Q 1809 2247 1375 2428 
Q 1034 2569 447 2591 
L 1259 4238 
L 2778 4238 
z
" transform="scale(0.015625)"/>
       </defs>
       <use xlink:href="#TimesNewRomanPSMT-30"/>
       <use xlink:href="#TimesNewRomanPSMT-2e" transform="translate(50 0)"/>
       <use xlink:href="#TimesNewRomanPSMT-32" transform="translate(75 0)"/>
       <use xlink:href="#TimesNewRomanPSMT-35" transform="translate(125 0)"/>
      </g>
     </g>
    </g>
    <g id="xtick_3">
     <g id="line2d_5">
      <path d="M 386.254418 311.6435 
L 386.254418 45.5315 
" clip-path="url(#p102b708c15)" style="fill: none; stroke: #b0b0b0; stroke-opacity: 0.3; stroke-width: 0.8; stroke-linecap: square"/>
     </g>
     <g id="line2d_6">
      <g>
       <use xlink:href="#m648b9884db" x="386.254418" y="311.6435" style="stroke: #000000; stroke-width: 0.8"/>
      </g>
     </g>
     <g id="text_3">
      <!-- 0.50 -->
      <g transform="translate(367.004418 333.91975) scale(0.22 -0.22)">
       <use xlink:href="#TimesNewRomanPSMT-30"/>
       <use xlink:href="#TimesNewRomanPSMT-2e" transform="translate(50 0)"/>
       <use xlink:href="#TimesNewRomanPSMT-35" transform="translate(75 0)"/>
       <use xlink:href="#TimesNewRomanPSMT-30" transform="translate(125 0)"/>
      </g>
     </g>
    </g>
    <g id="xtick_4">
     <g id="line2d_7">
      <path d="M 469.986252 311.6435 
L 469.986252 45.5315 
" clip-path="url(#p102b708c15)" style="fill: none; stroke: #b0b0b0; stroke-opacity: 0.3; stroke-width: 0.8; stroke-linecap: square"/>
     </g>
     <g id="line2d_8">
      <g>
       <use xlink:href="#m648b9884db" x="469.986252" y="311.6435" style="stroke: #000000; stroke-width: 0.8"/>
      </g>
     </g>
     <g id="text_4">
      <!-- 0.75 -->
      <g transform="translate(450.736252 333.91975) scale(0.22 -0.22)">
       <defs>
        <path id="TimesNewRomanPSMT-37" d="M 644 4238 
L 2916 4238 
L 2916 4119 
L 1503 -88 
L 1153 -88 
L 2419 3728 
L 1253 3728 
Q 900 3728 750 3644 
Q 488 3500 328 3200 
L 238 3234 
L 644 4238 
z
" transform="scale(0.015625)"/>
       </defs>
       <use xlink:href="#TimesNewRomanPSMT-30"/>
       <use xlink:href="#TimesNewRomanPSMT-2e" transform="translate(50 0)"/>
       <use xlink:href="#TimesNewRomanPSMT-37" transform="translate(75 0)"/>
       <use xlink:href="#TimesNewRomanPSMT-35" transform="translate(125 0)"/>
      </g>
     </g>
    </g>
    <g id="xtick_5">
     <g id="line2d_9">
      <path d="M 553.718086 311.6435 
L 553.718086 45.5315 
" clip-path="url(#p102b708c15)" style="fill: none; stroke: #b0b0b0; stroke-opacity: 0.3; stroke-width: 0.8; stroke-linecap: square"/>
     </g>
     <g id="line2d_10">
      <g>
       <use xlink:href="#m648b9884db" x="553.718086" y="311.6435" style="stroke: #000000; stroke-width: 0.8"/>
      </g>
     </g>
     <g id="text_5">
      <!-- 1.00 -->
      <g transform="translate(534.468086 333.91975) scale(0.22 -0.22)">
       <defs>
        <path id="TimesNewRomanPSMT-31" d="M 750 3822 
L 1781 4325 
L 1884 4325 
L 1884 747 
Q 1884 391 1914 303 
Q 1944 216 2037 169 
Q 2131 122 2419 116 
L 2419 0 
L 825 0 
L 825 116 
Q 1125 122 1212 167 
Q 1300 213 1334 289 
Q 1369 366 1369 747 
L 1369 3034 
Q 1369 3497 1338 3628 
Q 1316 3728 1258 3775 
Q 1200 3822 1119 3822 
Q 1003 3822 797 3725 
L 750 3822 
z
" transform="scale(0.015625)"/>
       </defs>
       <use xlink:href="#TimesNewRomanPSMT-31"/>
       <use xlink:href="#TimesNewRomanPSMT-2e" transform="translate(50 0)"/>
       <use xlink:href="#TimesNewRomanPSMT-30" transform="translate(75 0)"/>
       <use xlink:href="#TimesNewRomanPSMT-30" transform="translate(125 0)"/>
      </g>
     </g>
    </g>
    <g id="text_6">
     <!-- $\kappa  = \frac{ln(n)}{ln(d)}$ -->
     <g transform="translate(365.34075 364.185687) scale(0.22 -0.22)">
      <defs>
       <path id="STIXGeneral-Italic-3ba" d="M 979 1440 
L 998 1446 
Q 1850 2541 2464 2790 
Q 2547 2822 2630 2822 
Q 2797 2822 2886 2736 
Q 2976 2650 2976 2522 
Q 2976 2387 2893 2307 
Q 2810 2227 2682 2227 
Q 2605 2227 2502 2288 
Q 2400 2349 2336 2349 
Q 2170 2349 1990 2205 
Q 1811 2061 1414 1645 
L 2042 544 
Q 2202 262 2310 182 
Q 2419 102 2624 102 
L 2624 0 
Q 2374 -83 2182 -83 
Q 1786 -83 1555 326 
L 960 1350 
L 576 0 
L 90 0 
L 640 1978 
Q 730 2317 730 2406 
Q 730 2560 518 2560 
L 339 2560 
L 339 2650 
Q 678 2694 1306 2822 
L 1325 2803 
L 979 1440 
z
" transform="scale(0.015625)"/>
       <path id="STIXGeneral-Regular-3d" d="M 4077 2048 
L 307 2048 
L 307 2470 
L 4077 2470 
L 4077 2048 
z
M 4077 768 
L 307 768 
L 307 1190 
L 4077 1190 
L 4077 768 
z
" transform="scale(0.015625)"/>
       <path id="STIXGeneral-Italic-6c" d="M 1786 4339 
L 806 595 
Q 755 410 755 320 
Q 755 205 864 205 
Q 1037 205 1293 570 
L 1453 794 
L 1542 730 
Q 1254 275 1046 102 
Q 838 -70 576 -70 
Q 262 -70 262 288 
Q 262 397 288 480 
L 1165 3834 
Q 1184 3898 1184 3955 
Q 1184 4096 870 4096 
L 755 4096 
L 755 4198 
Q 1203 4250 1747 4371 
L 1786 4339 
z
" transform="scale(0.015625)"/>
       <path id="STIXGeneral-Italic-6e" d="M 2944 749 
L 3034 666 
Q 2707 218 2534 80 
Q 2362 -58 2138 -58 
Q 2010 -58 1923 28 
Q 1837 115 1837 288 
Q 1837 390 1939 768 
L 2221 1805 
Q 2310 2150 2310 2310 
Q 2310 2496 2157 2496 
Q 1971 2496 1750 2275 
Q 1530 2054 1210 1587 
Q 998 1274 899 1024 
Q 800 774 570 0 
L 90 0 
L 704 2240 
Q 717 2304 717 2349 
Q 717 2445 630 2480 
Q 544 2515 301 2522 
L 301 2624 
Q 550 2675 857 2729 
Q 1165 2784 1338 2822 
L 1363 2810 
L 934 1414 
Q 1408 2170 1753 2496 
Q 2099 2822 2413 2822 
Q 2611 2822 2720 2716 
Q 2829 2611 2829 2432 
Q 2829 2272 2765 2048 
L 2406 749 
Q 2317 429 2317 358 
Q 2317 243 2419 243 
Q 2541 243 2810 582 
Q 2854 634 2944 749 
z
" transform="scale(0.015625)"/>
       <path id="STIXGeneral-Regular-28" d="M 1946 -1030 
L 1869 -1133 
Q 1126 -710 716 32 
Q 307 774 307 1613 
Q 307 3386 1888 4326 
L 1946 4224 
Q 1293 3667 1075 3126 
Q 858 2586 858 1632 
Q 858 685 1082 96 
Q 1306 -493 1946 -1030 
z
" transform="scale(0.015625)"/>
       <path id="STIXGeneral-Regular-29" d="M 186 4224 
L 262 4326 
Q 992 3891 1408 3148 
Q 1824 2406 1824 1581 
Q 1824 -166 243 -1133 
L 186 -1030 
Q 845 -486 1059 54 
Q 1274 595 1274 1562 
Q 1274 2534 1059 3120 
Q 845 3706 186 4224 
z
" transform="scale(0.015625)"/>
       <path id="STIXGeneral-Italic-64" d="M 3334 4371 
L 3373 4333 
L 3123 3360 
L 2739 1958 
Q 2323 429 2323 384 
Q 2323 256 2438 256 
Q 2522 256 2614 336 
Q 2707 416 2963 710 
L 3040 646 
Q 2547 -83 2099 -83 
Q 1978 -83 1907 -6 
Q 1837 70 1837 205 
Q 1837 397 1920 774 
Q 1645 307 1379 118 
Q 1114 -70 781 -70 
Q 461 -70 278 125 
Q 96 320 96 678 
Q 96 1440 713 2131 
Q 1331 2822 1965 2822 
Q 2163 2822 2256 2732 
Q 2349 2643 2381 2451 
L 2387 2451 
L 2675 3494 
Q 2765 3808 2765 3949 
Q 2765 4051 2694 4076 
Q 2624 4102 2355 4115 
L 2355 4224 
Q 2848 4269 3334 4371 
z
M 2278 2310 
Q 2278 2477 2185 2576 
Q 2093 2675 1978 2675 
Q 1677 2675 1395 2381 
Q 1075 2042 864 1571 
Q 653 1101 653 704 
Q 653 486 752 361 
Q 851 237 1024 237 
Q 1312 237 1606 550 
Q 1901 864 2089 1350 
Q 2278 1837 2278 2310 
z
" transform="scale(0.015625)"/>
      </defs>
      <use xlink:href="#STIXGeneral-Italic-3ba" transform="translate(0 0.003125)"/>
      <use xlink:href="#STIXGeneral-Regular-3d" transform="translate(58.83999 0.003125)"/>
      <use xlink:href="#STIXGeneral-Italic-6c" transform="translate(141.779971 50.192188) scale(0.7)"/>
      <use xlink:href="#STIXGeneral-Italic-6e" transform="translate(161.239963 50.192188) scale(0.7)"/>
      <use xlink:href="#STIXGeneral-Regular-28" transform="translate(196.239952 50.192188) scale(0.7)"/>
      <use xlink:href="#STIXGeneral-Italic-6e" transform="translate(219.549944 50.192188) scale(0.7)"/>
      <use xlink:href="#STIXGeneral-Regular-29" transform="translate(254.549933 50.192188) scale(0.7)"/>
      <use xlink:href="#STIXGeneral-Italic-6c" transform="translate(141.779971 -41.257812) scale(0.7)"/>
      <use xlink:href="#STIXGeneral-Italic-6e" transform="translate(161.239963 -41.257812) scale(0.7)"/>
      <use xlink:href="#STIXGeneral-Regular-28" transform="translate(196.239952 -41.257812) scale(0.7)"/>
      <use xlink:href="#STIXGeneral-Italic-64" transform="translate(219.549944 -41.257812) scale(0.7)"/>
      <use xlink:href="#STIXGeneral-Regular-29" transform="translate(254.549933 -41.257812) scale(0.7)"/>
      <path d="M 141.779971 12.8 
L 141.779971 19.05 
L 277.859924 19.05 
L 277.859924 12.8 
L 141.779971 12.8 
z
"/>
     </g>
    </g>
   </g>
   <g id="matplotlib.axis_2">
    <g id="ytick_1">
     <g id="line2d_11">
      <path d="M 218.79075 311.6435 
L 575.91075 311.6435 
" clip-path="url(#p102b708c15)" style="fill: none; stroke: #b0b0b0; stroke-opacity: 0.3; stroke-width: 0.8; stroke-linecap: square"/>
     </g>
     <g id="line2d_12">
      <defs>
       <path id="md7435fd148" d="M 0 0 
L -3.5 0 
" style="stroke: #000000; stroke-width: 0.8"/>
      </defs>
      <g>
       <use xlink:href="#md7435fd148" x="218.79075" y="311.6435" style="stroke: #000000; stroke-width: 0.8"/>
      </g>
     </g>
     <g id="text_7">
      <!-- 0.00 -->
      <g transform="translate(173.29075 319.281625) scale(0.22 -0.22)">
       <use xlink:href="#TimesNewRomanPSMT-30"/>
       <use xlink:href="#TimesNewRomanPSMT-2e" transform="translate(50 0)"/>
       <use xlink:href="#TimesNewRomanPSMT-30" transform="translate(75 0)"/>
       <use xlink:href="#TimesNewRomanPSMT-30" transform="translate(125 0)"/>
      </g>
     </g>
    </g>
    <g id="ytick_2">
     <g id="line2d_13">
      <path d="M 218.79075 260.702938 
L 575.91075 260.702938 
" clip-path="url(#p102b708c15)" style="fill: none; stroke: #b0b0b0; stroke-opacity: 0.3; stroke-width: 0.8; stroke-linecap: square"/>
     </g>
     <g id="line2d_14">
      <g>
       <use xlink:href="#md7435fd148" x="218.79075" y="260.702938" style="stroke: #000000; stroke-width: 0.8"/>
      </g>
     </g>
     <g id="text_8">
      <!-- 0.05 -->
      <g transform="translate(173.29075 268.341063) scale(0.22 -0.22)">
       <use xlink:href="#TimesNewRomanPSMT-30"/>
       <use xlink:href="#TimesNewRomanPSMT-2e" transform="translate(50 0)"/>
       <use xlink:href="#TimesNewRomanPSMT-30" transform="translate(75 0)"/>
       <use xlink:href="#TimesNewRomanPSMT-35" transform="translate(125 0)"/>
      </g>
     </g>
    </g>
    <g id="ytick_3">
     <g id="line2d_15">
      <path d="M 218.79075 209.762375 
L 575.91075 209.762375 
" clip-path="url(#p102b708c15)" style="fill: none; stroke: #b0b0b0; stroke-opacity: 0.3; stroke-width: 0.8; stroke-linecap: square"/>
     </g>
     <g id="line2d_16">
      <g>
       <use xlink:href="#md7435fd148" x="218.79075" y="209.762375" style="stroke: #000000; stroke-width: 0.8"/>
      </g>
     </g>
     <g id="text_9">
      <!-- 0.10 -->
      <g transform="translate(173.29075 217.4005) scale(0.22 -0.22)">
       <use xlink:href="#TimesNewRomanPSMT-30"/>
       <use xlink:href="#TimesNewRomanPSMT-2e" transform="translate(50 0)"/>
       <use xlink:href="#TimesNewRomanPSMT-31" transform="translate(75 0)"/>
       <use xlink:href="#TimesNewRomanPSMT-30" transform="translate(125 0)"/>
      </g>
     </g>
    </g>
    <g id="ytick_4">
     <g id="line2d_17">
      <path d="M 218.79075 158.821813 
L 575.91075 158.821813 
" clip-path="url(#p102b708c15)" style="fill: none; stroke: #b0b0b0; stroke-opacity: 0.3; stroke-width: 0.8; stroke-linecap: square"/>
     </g>
     <g id="line2d_18">
      <g>
       <use xlink:href="#md7435fd148" x="218.79075" y="158.821813" style="stroke: #000000; stroke-width: 0.8"/>
      </g>
     </g>
     <g id="text_10">
      <!-- 0.15 -->
      <g transform="translate(173.29075 166.459938) scale(0.22 -0.22)">
       <use xlink:href="#TimesNewRomanPSMT-30"/>
       <use xlink:href="#TimesNewRomanPSMT-2e" transform="translate(50 0)"/>
       <use xlink:href="#TimesNewRomanPSMT-31" transform="translate(75 0)"/>
       <use xlink:href="#TimesNewRomanPSMT-35" transform="translate(125 0)"/>
      </g>
     </g>
    </g>
    <g id="ytick_5">
     <g id="line2d_19">
      <path d="M 218.79075 107.881251 
L 575.91075 107.881251 
" clip-path="url(#p102b708c15)" style="fill: none; stroke: #b0b0b0; stroke-opacity: 0.3; stroke-width: 0.8; stroke-linecap: square"/>
     </g>
     <g id="line2d_20">
      <g>
       <use xlink:href="#md7435fd148" x="218.79075" y="107.881251" style="stroke: #000000; stroke-width: 0.8"/>
      </g>
     </g>
     <g id="text_11">
      <!-- 0.20 -->
      <g transform="translate(173.29075 115.519376) scale(0.22 -0.22)">
       <use xlink:href="#TimesNewRomanPSMT-30"/>
       <use xlink:href="#TimesNewRomanPSMT-2e" transform="translate(50 0)"/>
       <use xlink:href="#TimesNewRomanPSMT-32" transform="translate(75 0)"/>
       <use xlink:href="#TimesNewRomanPSMT-30" transform="translate(125 0)"/>
      </g>
     </g>
    </g>
    <g id="ytick_6">
     <g id="line2d_21">
      <path d="M 218.79075 56.940689 
L 575.91075 56.940689 
" clip-path="url(#p102b708c15)" style="fill: none; stroke: #b0b0b0; stroke-opacity: 0.3; stroke-width: 0.8; stroke-linecap: square"/>
     </g>
     <g id="line2d_22">
      <g>
       <use xlink:href="#md7435fd148" x="218.79075" y="56.940689" style="stroke: #000000; stroke-width: 0.8"/>
      </g>
     </g>
     <g id="text_12">
      <!-- 0.25 -->
      <g transform="translate(173.29075 64.578814) scale(0.22 -0.22)">
       <use xlink:href="#TimesNewRomanPSMT-30"/>
       <use xlink:href="#TimesNewRomanPSMT-2e" transform="translate(50 0)"/>
       <use xlink:href="#TimesNewRomanPSMT-32" transform="translate(75 0)"/>
       <use xlink:href="#TimesNewRomanPSMT-35" transform="translate(125 0)"/>
      </g>
     </g>
    </g>
    <g id="text_13">
     <!-- Loss -->
     <g transform="translate(164.584813 199.368906) rotate(-90) scale(0.22 -0.22)">
      <defs>
       <path id="TimesNewRomanPSMT-4c" d="M 3669 1172 
L 3772 1150 
L 3409 0 
L 128 0 
L 128 116 
L 288 116 
Q 556 116 672 291 
Q 738 391 738 753 
L 738 3488 
Q 738 3884 650 3984 
Q 528 4122 288 4122 
L 128 4122 
L 128 4238 
L 2047 4238 
L 2047 4122 
Q 1709 4125 1573 4059 
Q 1438 3994 1388 3894 
Q 1338 3794 1338 3416 
L 1338 753 
Q 1338 494 1388 397 
Q 1425 331 1503 300 
Q 1581 269 1991 269 
L 2300 269 
Q 2788 269 2984 341 
Q 3181 413 3343 595 
Q 3506 778 3669 1172 
z
" transform="scale(0.015625)"/>
       <path id="TimesNewRomanPSMT-6f" d="M 1600 2947 
Q 2250 2947 2644 2453 
Q 2978 2031 2978 1484 
Q 2978 1100 2793 706 
Q 2609 313 2286 112 
Q 1963 -88 1566 -88 
Q 919 -88 538 428 
Q 216 863 216 1403 
Q 216 1797 411 2186 
Q 606 2575 925 2761 
Q 1244 2947 1600 2947 
z
M 1503 2744 
Q 1338 2744 1170 2645 
Q 1003 2547 900 2300 
Q 797 2053 797 1666 
Q 797 1041 1045 587 
Q 1294 134 1700 134 
Q 2003 134 2200 384 
Q 2397 634 2397 1244 
Q 2397 2006 2069 2444 
Q 1847 2744 1503 2744 
z
" transform="scale(0.015625)"/>
       <path id="TimesNewRomanPSMT-73" d="M 2050 2947 
L 2050 1972 
L 1947 1972 
Q 1828 2431 1642 2597 
Q 1456 2763 1169 2763 
Q 950 2763 815 2647 
Q 681 2531 681 2391 
Q 681 2216 781 2091 
Q 878 1963 1175 1819 
L 1631 1597 
Q 2266 1288 2266 781 
Q 2266 391 1970 151 
Q 1675 -88 1309 -88 
Q 1047 -88 709 6 
Q 606 38 541 38 
Q 469 38 428 -44 
L 325 -44 
L 325 978 
L 428 978 
Q 516 541 762 319 
Q 1009 97 1316 97 
Q 1531 97 1667 223 
Q 1803 350 1803 528 
Q 1803 744 1651 891 
Q 1500 1038 1047 1263 
Q 594 1488 453 1669 
Q 313 1847 313 2119 
Q 313 2472 555 2709 
Q 797 2947 1181 2947 
Q 1350 2947 1591 2875 
Q 1750 2828 1803 2828 
Q 1853 2828 1881 2850 
Q 1909 2872 1947 2947 
L 2050 2947 
z
" transform="scale(0.015625)"/>
      </defs>
      <use xlink:href="#TimesNewRomanPSMT-4c"/>
      <use xlink:href="#TimesNewRomanPSMT-6f" transform="translate(61.083984 0)"/>
      <use xlink:href="#TimesNewRomanPSMT-73" transform="translate(111.083984 0)"/>
      <use xlink:href="#TimesNewRomanPSMT-73" transform="translate(150 0)"/>
     </g>
    </g>
   </g>
   <g id="line2d_23">
    <path d="M 218.79075 55.719612 
L 318.870054 103.038662 
L 345.84338 135.811738 
L 362.088695 154.195026 
L 373.750485 179.191955 
L 382.853981 191.366136 
L 390.322147 194.715722 
L 396.654 199.320452 
L 402.150099 210.170125 
L 407.005564 213.411817 
L 415.292076 222.702012 
L 418.889968 223.267097 
L 422.201996 235.229458 
L 425.270261 224.778002 
L 430.802802 241.112483 
L 433.316183 244.983302 
L 435.686678 242.608138 
L 437.929662 238.647649 
L 440.058156 244.305131 
L 442.083283 249.221995 
L 444.014619 251.750803 
L 445.860468 245.607671 
L 447.628079 250.367749 
L 449.323815 249.42863 
L 450.953294 256.913835 
L 452.521499 252.244224 
L 454.032872 258.260861 
L 455.491388 256.558851 
L 456.90062 261.108772 
L 458.263791 262.521438 
L 459.583816 263.663426 
L 460.863342 252.486141 
L 462.104781 260.709822 
L 463.310336 255.421759 
L 464.482021 264.684927 
L 465.62169 262.830764 
L 466.731044 258.727422 
L 467.811655 270.071373 
L 468.864975 267.082904 
L 469.892348 265.873302 
L 470.895023 269.036077 
L 471.874158 271.629277 
L 472.830833 272.328095 
L 473.766057 268.850422 
L 474.68077 275.826149 
L 475.575852 271.87152 
L 476.452128 271.866388 
L 477.310373 267.617843 
L 478.151313 277.205909 
L 478.975632 269.501495 
L 479.783976 272.137788 
L 480.57695 273.444354 
L 482.119056 271.048453 
L 482.869241 273.831216 
L 483.606172 275.736142 
L 484.330308 275.227627 
L 485.042087 282.552388 
L 485.741922 274.744279 
L 486.430208 277.15707 
L 487.10732 278.543465 
L 487.773615 276.33609 
L 488.429433 270.619663 
L 489.075099 276.723184 
L 489.710922 272.916684 
L 490.337198 272.576027 
L 490.954208 280.649046 
L 491.562225 281.662196 
L 492.161505 277.771954 
L 492.752296 278.99415 
L 493.334836 272.509734 
L 493.909351 278.13002 
L 494.476061 281.952523 
L 495.035173 275.765377 
L 495.58689 278.82617 
L 496.131404 270.718256 
L 496.6689 279.594057 
L 497.199558 283.251064 
L 497.72355 280.405396 
L 498.24104 279.559553 
L 498.752188 279.416103 
L 499.257147 286.640168 
L 499.756067 282.852526 
L 500.249088 282.104211 
L 500.73635 280.746435 
L 501.217986 281.605507 
L 501.694123 285.048034 
L 502.164885 285.616277 
L 502.630394 279.275181 
L 503.090765 278.534705 
L 503.546109 286.626421 
L 503.996536 282.285697 
L 504.442151 282.892789 
L 504.883055 279.154462 
L 505.319348 282.680888 
L 505.751123 282.273015 
L 506.178475 289.007113 
L 506.601492 284.583887 
L 507.020262 286.198805 
L 507.434869 282.801554 
L 507.845395 285.302316 
L 508.25192 284.916227 
L 508.654521 285.783717 
L 509.053273 285.765793 
L 509.448249 276.625715 
L 509.83952 281.039172 
L 510.227154 286.750532 
L 510.611219 287.507977 
L 510.991779 285.825016 
L 511.368899 287.056078 
L 511.742639 290.027832 
L 512.11306 284.420687 
L 512.48022 280.985239 
L 512.844176 285.957981 
L 513.204984 286.168987 
L 513.562698 285.575478 
L 513.917369 276.158171 
L 514.269051 279.012178 
L 514.617791 279.995753 
L 514.96364 283.001659 
L 515.306645 280.866478 
L 515.646851 281.27979 
L 515.984306 278.242587 
L 516.319052 277.558301 
L 516.651132 287.563591 
L 516.98059 284.178738 
L 517.307466 284.212917 
L 517.6318 287.620853 
L 517.953631 288.859322 
L 518.272998 285.789285 
L 518.589938 287.769535 
L 518.904488 286.624427 
L 519.216684 283.779021 
L 519.52656 286.525504 
L 519.83415 288.176643 
L 520.139489 286.852145 
L 520.442609 290.787625 
L 520.743542 287.72252 
L 521.04232 290.19205 
L 521.338972 287.299378 
L 521.633529 286.556691 
L 521.92602 288.0508 
L 522.216475 284.616429 
L 522.504921 284.304383 
L 522.791386 289.005821 
L 523.075897 278.411508 
L 523.35848 282.24473 
L 523.639161 283.84863 
L 523.917967 288.291206 
L 524.194921 289.318208 
L 524.470048 287.965807 
L 524.743372 281.606579 
L 525.014917 282.153776 
L 525.284705 288.652558 
L 525.552759 288.259654 
L 525.819102 285.386219 
L 526.083754 287.321623 
L 526.346738 286.560054 
L 526.608075 282.656579 
L 526.867783 283.900326 
L 527.125885 287.853872 
L 527.3824 286.573597 
L 527.637346 281.604619 
L 527.890744 282.698734 
L 528.142611 284.493051 
L 528.392967 284.582635 
L 528.641828 281.221389 
L 528.889214 284.299516 
L 529.135141 283.11864 
L 529.379627 290.478792 
L 529.86434 287.391579 
L 530.104601 290.858636 
L 530.343485 290.919345 
L 530.581009 286.404417 
L 530.817188 289.222309 
L 531.052037 290.254419 
L 531.285572 286.823126 
L 531.517806 287.612781 
L 531.748754 286.353963 
L 531.97843 287.673863 
L 532.206848 290.851392 
L 532.434023 285.898459 
L 532.659966 285.610717 
L 532.884693 288.167669 
L 533.108215 288.032214 
L 533.330545 285.487942 
L 533.551697 284.653986 
L 533.990513 289.475065 
L 534.208202 288.237659 
L 534.640201 281.413752 
L 534.854534 287.660676 
L 535.491003 288.008641 
L 535.701019 287.950788 
L 535.909983 290.716422 
L 536.117905 288.473331 
L 536.324796 287.891076 
L 536.530665 288.381492 
L 536.735524 291.438989 
L 537.142247 286.379527 
L 537.34413 287.418266 
L 537.545042 279.492159 
L 537.74499 279.053365 
L 537.943984 283.18234 
L 538.142033 283.023422 
L 538.339147 287.883724 
L 538.535333 284.352379 
L 538.730601 290.634732 
L 538.924958 289.252575 
L 539.118415 284.805023 
L 539.310978 287.407341 
L 539.693457 288.949494 
L 539.88339 292.218017 
L 540.448052 287.214149 
L 540.634587 282.476992 
L 540.820291 286.119641 
L 541.005172 286.583033 
L 541.189238 285.429915 
L 541.554949 290.946504 
L 541.736609 288.813119 
L 541.917481 289.205755 
L 542.097573 289.901319 
L 542.27689 282.583317 
L 542.455439 280.788347 
L 542.810262 289.321702 
L 542.986547 285.403748 
L 543.336899 290.236332 
L 543.684332 283.828808 
L 544.028895 290.609764 
L 544.200114 283.332076 
L 544.370634 290.462413 
L 544.54046 289.231812 
L 544.709597 292.104868 
L 544.878051 289.8306 
L 545.045827 289.366423 
L 545.212931 289.703571 
L 545.379368 288.829378 
L 545.545144 288.930912 
L 545.710263 290.283974 
L 545.874731 290.124139 
L 546.038553 292.469394 
L 546.36428 287.986226 
L 546.526195 289.765644 
L 546.687483 276.855487 
L 546.84815 286.38215 
L 547.0082 280.67537 
L 547.167639 287.46405 
L 547.32647 287.797123 
L 547.484699 290.134501 
L 547.64233 289.80878 
L 547.799368 287.945583 
L 547.955816 290.438141 
L 548.11168 290.032684 
L 548.266963 287.829454 
L 548.421671 289.122775 
L 548.575807 287.750721 
L 548.729375 288.855716 
L 548.88238 291.880535 
L 549.034826 288.358538 
L 549.186716 289.233129 
L 549.338056 283.555565 
L 549.488848 293.09651 
L 549.937981 289.577181 
L 550.086624 289.502352 
L 550.234738 289.173739 
L 550.382329 287.098656 
L 550.529399 291.172082 
L 550.821993 283.937595 
L 550.967524 280.729375 
L 551.112549 279.992087 
L 551.257071 290.681459 
L 551.544622 286.119895 
L 551.830204 290.150847 
L 551.972265 289.793967 
L 552.113844 291.145454 
L 552.254944 286.392264 
L 552.395568 290.104948 
L 552.675402 288.952063 
L 552.814618 287.282658 
L 552.953371 289.605328 
L 553.2295 285.677342 
L 553.366882 286.663861 
L 553.503813 289.668893 
L 553.640295 286.838493 
L 553.911928 287.375695 
L 554.047084 290.402342 
L 554.316089 288.938368 
L 554.449944 290.358773 
L 554.583371 287.346752 
L 554.716372 295.608554 
L 554.84895 291.53468 
L 554.981108 291.049611 
L 555.112849 291.447273 
L 555.244175 290.040127 
L 555.375089 292.096709 
L 555.63569 287.375695 
L 555.765383 287.377701 
L 555.894673 290.156679 
L 556.023564 287.805164 
L 556.152058 276.122453 
L 556.407864 287.246953 
L 556.535182 287.453939 
L 556.788656 290.727576 
L 556.914818 291.285588 
L 557.040599 293.345737 
L 557.166003 290.665818 
L 557.29103 294.719684 
L 557.663879 286.71632 
L 557.787425 288.783824 
L 557.910606 288.070415 
L 558.033424 283.492583 
L 558.155882 284.862205 
L 558.277981 290.078957 
L 558.399724 272.969964 
L 558.521113 272.978522 
L 558.883173 292.346071 
L 559.003165 290.388451 
L 559.122812 292.282956 
L 559.242118 290.876531 
L 559.361083 292.179528 
L 559.597999 288.535167 
L 559.715955 290.670706 
L 559.95087 283.148673 
L 560.18447 288.35653 
L 560.416768 296.042223 
L 560.64778 290.575496 
L 560.762808 288.33817 
L 560.87752 290.601849 
L 561.106001 288.302966 
L 561.219773 288.476223 
L 561.333237 291.130316 
L 561.446392 290.610387 
L 561.559242 292.243896 
L 561.671786 291.37461 
L 561.784028 289.055584 
L 561.895969 289.23397 
L 562.00761 288.997097 
L 562.118953 286.191728 
L 562.23 287.905726 
L 562.340752 294.134357 
L 562.45121 294.064055 
L 562.561377 291.64189 
L 562.671253 293.05774 
L 562.890142 289.477995 
L 562.999157 291.027907 
L 563.107887 288.927819 
L 563.216335 291.55782 
L 563.324502 290.976771 
L 563.432389 289.07295 
L 563.539998 290.646184 
L 563.64733 287.058325 
L 563.861168 292.293733 
L 563.967677 293.129327 
L 564.073916 292.93115 
L 564.179884 290.814668 
L 564.285584 292.321908 
L 564.391016 287.609877 
L 564.601085 292.980844 
L 564.810101 288.830915 
L 565.121674 293.198732 
L 565.225017 288.968691 
L 565.328104 294.52476 
L 565.430938 291.962661 
L 565.533518 295.28252 
L 565.635846 292.03616 
L 565.737924 292.830741 
L 565.839753 292.113326 
L 565.941334 292.566261 
L 566.042668 287.612056 
L 566.244601 293.437237 
L 566.345202 289.696684 
L 566.645556 292.667789 
L 566.943764 287.341539 
L 567.042694 293.208452 
L 567.239854 289.906112 
L 567.338086 295.995224 
L 567.436086 292.363125 
L 567.533857 292.923479 
L 567.728714 290.67977 
L 567.825803 290.548636 
L 567.922665 292.305806 
L 568.019304 289.476872 
L 568.115719 295.63044 
L 568.211911 295.081916 
L 568.307882 290.118771 
L 568.403633 295.34195 
L 568.689574 287.865968 
L 568.879118 296.188582 
L 568.973568 290.498418 
L 569.067805 292.482298 
L 569.161829 292.264556 
L 569.255642 293.39938 
L 569.349244 289.351867 
L 569.442636 289.740703 
L 569.53582 289.308114 
L 569.628796 290.840346 
L 569.721566 290.048556 
L 569.814129 293.957622 
L 569.906488 284.439248 
L 569.998642 291.984412 
L 570.090593 290.623486 
L 570.182342 292.216821 
L 570.27389 289.260065 
L 570.365237 289.877744 
L 570.547333 294.558455 
L 570.728638 291.170602 
L 570.818996 290.615241 
L 570.909158 288.545037 
L 571.0889 294.868127 
L 571.178482 296.210293 
L 571.267871 290.466398 
L 571.357069 294.713067 
L 571.446077 290.489508 
L 571.534896 292.219894 
L 571.623525 292.145804 
L 571.711967 291.278278 
L 571.800221 293.725338 
L 571.976172 290.556602 
L 572.06387 293.275454 
L 572.151384 287.331172 
L 572.238715 291.970212 
L 572.325863 291.048706 
L 572.412829 291.769129 
L 572.58622 294.964057 
L 572.844962 292.290264 
L 573.016569 294.991554 
L 573.102109 299.613689 
L 573.272663 292.591819 
L 573.442524 294.210226 
L 573.611695 291.740051 
L 573.780182 291.163169 
L 573.864172 289.284765 
L 573.947992 290.612852 
L 574.031645 288.417013 
L 574.198448 298.745959 
L 574.2816 293.260464 
L 574.364587 293.742878 
L 574.447409 293.461565 
L 574.530066 292.4563 
L 574.612561 289.768208 
L 575.022602 297.419394 
L 575.104129 297.281047 
L 575.266706 294.476312 
L 575.347757 296.249775 
L 575.428652 295.593909 
L 575.509389 296.342857 
L 575.589971 289.839046 
L 575.670397 293.861705 
L 575.830786 289.564953 
L 575.91075 291.304104 
L 575.91075 291.304104 
" clip-path="url(#p102b708c15)" style="fill: none; stroke: #ffa500; stroke-width: 1.5; stroke-linecap: square"/>
   </g>
   <g id="line2d_24">
    <path d="M 218.79075 56.728603 
L 318.870054 108.962502 
L 345.84338 133.981824 
L 362.088695 153.092107 
L 373.750485 173.741549 
L 382.853981 181.840894 
L 390.322147 188.69614 
L 396.654 192.748363 
L 402.150099 196.463444 
L 407.005564 199.560509 
L 411.354272 200.891142 
L 418.889968 206.38537 
L 422.201996 208.131717 
L 425.270261 207.626212 
L 428.128198 208.5664 
L 433.316183 207.690839 
L 435.686678 209.85514 
L 437.929662 209.584265 
L 440.058156 209.566472 
L 442.083283 208.546672 
L 444.014619 206.708689 
L 445.860468 209.485304 
L 447.628079 203.872533 
L 449.323815 207.202558 
L 450.953294 207.428359 
L 452.521499 205.063162 
L 454.032872 205.643853 
L 455.491388 203.296183 
L 456.90062 204.886905 
L 458.263791 203.000532 
L 459.583816 199.588155 
L 460.863342 203.898812 
L 462.104781 203.278436 
L 463.310336 201.302644 
L 464.482021 197.498516 
L 465.62169 202.239765 
L 466.731044 201.669656 
L 467.811655 200.754797 
L 468.864975 198.824625 
L 469.892348 200.031598 
L 470.895023 200.292992 
L 471.874158 199.299585 
L 472.830833 196.758048 
L 473.766057 197.037197 
L 474.68077 194.318423 
L 475.575852 193.836692 
L 476.452128 195.908485 
L 477.310373 196.727062 
L 478.151313 196.874611 
L 478.975632 194.171831 
L 479.783976 192.083248 
L 480.57695 193.226617 
L 481.35513 194.693717 
L 482.119056 194.7289 
L 482.869241 193.478637 
L 483.606172 195.043255 
L 484.330308 190.636226 
L 485.042087 192.617818 
L 485.741922 194.185267 
L 486.430208 192.58186 
L 487.10732 194.926297 
L 487.773615 192.655225 
L 488.429433 189.905891 
L 489.075099 193.352753 
L 489.710922 190.531011 
L 490.337198 194.430629 
L 490.954208 193.090979 
L 491.562225 193.606116 
L 492.161505 194.736232 
L 492.752296 191.787004 
L 493.334836 191.884036 
L 493.909351 192.669981 
L 494.476061 191.619059 
L 495.035173 192.983387 
L 495.58689 189.045527 
L 496.6689 192.582232 
L 497.199558 190.613135 
L 497.72355 190.06103 
L 498.24104 190.643968 
L 498.752188 191.776202 
L 499.257147 188.274247 
L 499.756067 189.658213 
L 500.249088 190.484487 
L 500.73635 189.256466 
L 501.217986 190.460538 
L 501.694123 187.493882 
L 502.164885 187.518506 
L 502.630394 188.997713 
L 503.090765 190.046357 
L 503.546109 191.704994 
L 503.996536 187.630925 
L 504.442151 190.424998 
L 504.883055 188.332878 
L 505.319348 191.524729 
L 505.751123 192.204449 
L 506.178475 190.426076 
L 506.601492 189.651161 
L 507.020262 188.451301 
L 507.434869 188.759553 
L 507.845395 188.595593 
L 508.25192 186.943644 
L 508.654521 186.646634 
L 509.053273 190.847142 
L 509.448249 190.804869 
L 509.83952 189.127673 
L 510.227154 189.250643 
L 510.611219 190.964085 
L 510.991779 190.449205 
L 511.368899 186.099752 
L 511.742639 187.770465 
L 512.11306 187.440777 
L 512.48022 187.460444 
L 512.844176 186.489764 
L 513.204984 186.692383 
L 513.562698 186.390895 
L 513.917369 188.84463 
L 514.269051 185.728656 
L 514.96364 190.006172 
L 515.306645 188.072994 
L 515.646851 189.01634 
L 515.984306 186.268183 
L 516.319052 190.195819 
L 516.98059 186.675813 
L 517.307466 187.977632 
L 517.6318 187.941409 
L 517.953631 188.286172 
L 518.272998 187.32772 
L 518.589938 187.740588 
L 518.904488 188.603913 
L 519.216684 188.249243 
L 519.52656 188.244438 
L 519.83415 184.180647 
L 520.139489 185.137702 
L 520.442609 184.173998 
L 520.743542 185.534796 
L 521.04232 185.248542 
L 521.338972 186.027564 
L 521.633529 186.284586 
L 521.92602 185.553394 
L 522.216475 186.144165 
L 522.504921 185.517247 
L 522.791386 183.053195 
L 523.075897 186.869027 
L 523.35848 185.15047 
L 523.639161 185.163959 
L 523.917967 188.605363 
L 524.194921 186.578287 
L 524.470048 187.426256 
L 524.743372 187.075996 
L 525.014917 188.384305 
L 525.552759 184.253382 
L 525.819102 186.662787 
L 526.083754 184.824546 
L 526.346738 186.922368 
L 526.608075 186.371751 
L 526.867783 184.497811 
L 527.125885 186.845648 
L 527.3824 184.112346 
L 527.637346 186.405537 
L 527.890744 184.985698 
L 528.142611 184.706829 
L 528.392967 186.635233 
L 528.641828 186.571182 
L 528.889214 182.93522 
L 529.135141 186.858028 
L 529.379627 187.26893 
L 529.622688 188.215047 
L 529.86434 185.818417 
L 530.104601 186.925282 
L 530.343485 186.637624 
L 530.581009 186.106439 
L 530.817188 186.114227 
L 531.052037 183.603493 
L 531.285572 183.981694 
L 531.517806 185.557235 
L 531.748754 184.505394 
L 531.97843 185.058182 
L 532.206848 184.485278 
L 532.434023 183.59153 
L 532.659966 185.657242 
L 532.884693 183.905134 
L 533.108215 184.193885 
L 533.330545 184.02736 
L 533.551697 184.892726 
L 533.771682 183.330303 
L 533.990513 183.013723 
L 534.424761 184.141858 
L 534.640201 182.13045 
L 535.279924 188.867402 
L 535.491003 187.143379 
L 535.701019 188.429675 
L 535.909983 186.26192 
L 536.324796 184.239521 
L 536.530665 185.169917 
L 536.735524 187.687233 
L 536.939381 183.62877 
L 537.142247 183.40744 
L 537.34413 185.139691 
L 537.545042 183.635906 
L 537.74499 184.463994 
L 537.943984 187.018292 
L 538.142033 184.502229 
L 538.339147 186.822405 
L 538.535333 183.725871 
L 538.924958 182.921314 
L 539.118415 184.566059 
L 539.310978 184.657679 
L 539.502656 182.799832 
L 539.88339 184.773461 
L 540.072461 184.437867 
L 540.26068 183.058008 
L 540.448052 183.752044 
L 540.634587 182.083737 
L 540.820291 182.791512 
L 541.005172 182.350156 
L 541.189238 183.696814 
L 541.372494 182.412476 
L 541.554949 184.118464 
L 541.736609 181.999586 
L 541.917481 184.198242 
L 542.097573 183.329513 
L 542.27689 183.205147 
L 542.455439 185.156497 
L 542.633228 185.17164 
L 542.810262 185.355025 
L 542.986547 187.524412 
L 543.336899 183.686035 
L 543.510977 185.684516 
L 543.684332 183.449826 
L 543.856969 183.822547 
L 544.200114 181.152703 
L 544.370634 186.012238 
L 544.54046 183.003916 
L 544.709597 184.441761 
L 544.878051 184.647189 
L 545.045827 183.606332 
L 545.212931 183.543435 
L 545.379368 181.131661 
L 545.545144 182.246254 
L 545.710263 182.51067 
L 545.874731 183.667331 
L 546.038553 182.935311 
L 546.201735 183.177516 
L 546.526195 180.030276 
L 546.687483 184.280587 
L 546.84815 183.312358 
L 547.32647 187.568339 
L 547.799368 182.32031 
L 547.955816 182.251781 
L 548.11168 181.049059 
L 548.421671 184.340432 
L 548.575807 183.944226 
L 548.88238 182.696977 
L 549.034826 183.009898 
L 549.338056 184.462559 
L 549.488848 182.219839 
L 549.639097 183.352938 
L 549.788807 180.324918 
L 549.937981 184.677909 
L 550.086624 182.80724 
L 550.234738 182.990222 
L 550.382329 180.345595 
L 550.529399 181.95644 
L 550.675953 180.754417 
L 550.821993 181.259838 
L 550.967524 183.824459 
L 551.112549 181.90455 
L 551.257071 184.605584 
L 551.401095 180.722946 
L 551.544622 185.809201 
L 551.687658 184.59016 
L 551.830204 185.589154 
L 551.972265 183.740111 
L 552.113844 184.016353 
L 552.254944 182.887004 
L 552.395568 183.423881 
L 552.53572 183.071231 
L 552.675402 181.719685 
L 552.814618 182.892089 
L 553.091664 181.646101 
L 553.2295 182.395701 
L 553.366882 180.577431 
L 553.503813 180.513229 
L 553.640295 182.968847 
L 553.776333 181.562648 
L 553.911928 184.471835 
L 554.047084 183.50659 
L 554.181804 185.279042 
L 554.316089 183.721074 
L 554.449944 184.058527 
L 554.583371 182.096277 
L 554.716372 183.013405 
L 554.84895 181.74141 
L 554.981108 181.833744 
L 555.112849 182.230572 
L 555.375089 181.018666 
L 555.505593 178.94225 
L 555.63569 180.902087 
L 555.765383 181.155602 
L 555.894673 183.364096 
L 556.023564 181.248817 
L 556.152058 182.082902 
L 556.280157 180.714171 
L 556.407864 181.443959 
L 556.535182 183.906318 
L 556.662111 183.666268 
L 556.788656 185.113905 
L 556.914818 184.653284 
L 557.166003 182.507983 
L 557.29103 182.634232 
L 557.415684 181.820004 
L 557.539966 182.28896 
L 557.663879 180.976917 
L 557.787425 181.59582 
L 557.910606 180.166074 
L 558.155882 182.175038 
L 558.399724 185.104098 
L 558.521113 181.307417 
L 558.642149 188.41479 
L 559.003165 185.302239 
L 559.242118 183.077804 
L 559.361083 183.672098 
L 559.479709 181.696124 
L 559.597999 182.192785 
L 559.715955 178.014784 
L 559.95087 185.115735 
L 560.300781 181.976191 
L 560.416768 179.96454 
L 560.64778 181.511805 
L 560.762808 181.904094 
L 560.87752 179.743285 
L 561.106001 181.960979 
L 561.219773 182.217167 
L 561.333237 180.35399 
L 561.559242 183.484759 
L 561.671786 178.556838 
L 561.784028 179.408337 
L 561.895969 178.600409 
L 562.00761 181.474687 
L 562.118953 180.558576 
L 562.340752 182.259963 
L 562.45121 180.644397 
L 562.890142 181.434805 
L 562.999157 178.7063 
L 563.107887 179.327936 
L 563.216335 180.729838 
L 563.324502 180.273392 
L 563.432389 184.861361 
L 563.64733 182.894534 
L 563.754386 183.978005 
L 564.179884 179.43246 
L 564.285584 181.685982 
L 564.391016 181.417361 
L 564.496183 179.925797 
L 564.601085 180.18326 
L 564.810101 179.65247 
L 564.914218 179.429196 
L 565.018075 181.096137 
L 565.328104 178.197554 
L 565.533518 179.889665 
L 565.635846 180.161444 
L 565.737924 177.698007 
L 565.839753 178.799104 
L 565.941334 176.130976 
L 566.143757 180.809389 
L 566.244601 179.696162 
L 566.44556 181.762072 
L 566.645556 180.87637 
L 566.745196 179.214211 
L 566.844598 180.562311 
L 566.943764 179.498348 
L 567.141391 180.992295 
L 567.338086 178.437315 
L 567.436086 179.433978 
L 567.533857 178.720935 
L 567.728714 175.008473 
L 567.825803 179.637972 
L 567.922665 177.646694 
L 568.019304 179.90342 
L 568.115719 179.188418 
L 568.211911 181.435746 
L 568.307882 178.94178 
L 568.499165 180.757317 
L 568.594478 177.95465 
L 568.689574 178.168177 
L 568.784454 178.720464 
L 568.879118 178.223939 
L 568.973568 179.425492 
L 569.067805 177.399008 
L 569.161829 178.406177 
L 569.255642 176.104287 
L 569.442636 180.687391 
L 569.53582 181.466777 
L 569.628796 180.58865 
L 569.721566 182.531651 
L 570.090593 176.574002 
L 570.182342 177.809333 
L 570.27389 176.77842 
L 570.365237 180.47819 
L 570.547333 178.251083 
L 570.638084 177.428536 
L 570.818996 179.959667 
L 570.909158 177.810198 
L 571.0889 180.305622 
L 571.178482 177.605567 
L 571.267871 178.186532 
L 571.357069 176.229792 
L 571.446077 178.376057 
L 571.534896 178.297402 
L 571.623525 178.67492 
L 571.711967 178.617929 
L 571.88829 174.76809 
L 571.976172 177.669967 
L 572.06387 176.903895 
L 572.412829 180.0055 
L 572.499615 177.68105 
L 572.58622 177.811094 
L 572.758893 178.834629 
L 572.844962 178.025669 
L 573.016569 175.434313 
L 573.187473 178.072094 
L 573.35768 175.314076 
L 573.527195 176.504835 
L 573.611695 173.450293 
L 573.780182 178.614999 
L 573.864172 177.899056 
L 573.947992 178.401319 
L 574.031645 179.634586 
L 574.11513 179.033992 
L 574.198448 177.177025 
L 574.2816 179.455915 
L 574.447409 174.225641 
L 574.694892 178.445953 
L 574.777061 176.471193 
L 575.022602 179.920878 
L 575.185497 177.191842 
L 575.266706 178.465051 
L 575.347757 178.364352 
L 575.428652 177.82371 
L 575.509389 174.982953 
L 575.589971 177.142396 
L 575.670397 175.602888 
L 575.830786 178.749218 
L 575.91075 176.114291 
L 575.91075 176.114291 
" clip-path="url(#p102b708c15)" style="fill: none; stroke: #008000; stroke-width: 1.5; stroke-linecap: square"/>
   </g>
   <g id="patch_3">
    <path d="M 218.79075 311.6435 
L 218.79075 45.5315 
" style="fill: none; stroke: #000000; stroke-width: 0.8; stroke-linejoin: miter; stroke-linecap: square"/>
   </g>
   <g id="patch_4">
    <path d="M 575.91075 311.6435 
L 575.91075 45.5315 
" style="fill: none; stroke: #000000; stroke-width: 0.8; stroke-linejoin: miter; stroke-linecap: square"/>
   </g>
   <g id="patch_5">
    <path d="M 218.79075 311.6435 
L 575.91075 311.6435 
" style="fill: none; stroke: #000000; stroke-width: 0.8; stroke-linejoin: miter; stroke-linecap: square"/>
   </g>
   <g id="patch_6">
    <path d="M 218.79075 45.5315 
L 575.91075 45.5315 
" style="fill: none; stroke: #000000; stroke-width: 0.8; stroke-linejoin: miter; stroke-linecap: square"/>
   </g>
   <g id="text_14">
    <!-- Loss of the 16_05_25_CINIC10_torch_model_(3072+16*7+1)_cf+(D=0) -->
    <g transform="translate(7.2 25.5315) scale(0.264 -0.264)">
     <defs>
      <path id="TimesNewRomanPSMT-20" transform="scale(0.015625)"/>
      <path id="TimesNewRomanPSMT-66" d="M 1319 2638 
L 1319 756 
Q 1319 356 1406 250 
Q 1522 113 1716 113 
L 1975 113 
L 1975 0 
L 266 0 
L 266 113 
L 394 113 
Q 519 113 622 175 
Q 725 238 764 344 
Q 803 450 803 756 
L 803 2638 
L 247 2638 
L 247 2863 
L 803 2863 
L 803 3050 
Q 803 3478 940 3775 
Q 1078 4072 1361 4255 
Q 1644 4438 1997 4438 
Q 2325 4438 2600 4225 
Q 2781 4084 2781 3909 
Q 2781 3816 2700 3733 
Q 2619 3650 2525 3650 
Q 2453 3650 2373 3701 
Q 2294 3753 2178 3923 
Q 2063 4094 1966 4153 
Q 1869 4213 1750 4213 
Q 1606 4213 1506 4136 
Q 1406 4059 1362 3898 
Q 1319 3738 1319 3069 
L 1319 2863 
L 2056 2863 
L 2056 2638 
L 1319 2638 
z
" transform="scale(0.015625)"/>
      <path id="TimesNewRomanPSMT-74" d="M 1031 3803 
L 1031 2863 
L 1700 2863 
L 1700 2644 
L 1031 2644 
L 1031 788 
Q 1031 509 1111 412 
Q 1191 316 1316 316 
Q 1419 316 1516 380 
Q 1613 444 1666 569 
L 1788 569 
Q 1678 263 1478 108 
Q 1278 -47 1066 -47 
Q 922 -47 784 33 
Q 647 113 581 261 
Q 516 409 516 719 
L 516 2644 
L 63 2644 
L 63 2747 
Q 234 2816 414 2980 
Q 594 3144 734 3369 
Q 806 3488 934 3803 
L 1031 3803 
z
" transform="scale(0.015625)"/>
      <path id="TimesNewRomanPSMT-68" d="M 1041 4444 
L 1041 2350 
Q 1388 2731 1591 2839 
Q 1794 2947 1997 2947 
Q 2241 2947 2416 2812 
Q 2591 2678 2675 2391 
Q 2734 2191 2734 1659 
L 2734 647 
Q 2734 375 2778 275 
Q 2809 200 2884 156 
Q 2959 113 3159 113 
L 3159 0 
L 1753 0 
L 1753 113 
L 1819 113 
Q 2019 113 2097 173 
Q 2175 234 2206 353 
Q 2216 403 2216 647 
L 2216 1659 
Q 2216 2128 2167 2275 
Q 2119 2422 2012 2495 
Q 1906 2569 1756 2569 
Q 1603 2569 1437 2487 
Q 1272 2406 1041 2159 
L 1041 647 
Q 1041 353 1073 281 
Q 1106 209 1195 161 
Q 1284 113 1503 113 
L 1503 0 
L 84 0 
L 84 113 
Q 275 113 384 172 
Q 447 203 484 290 
Q 522 378 522 647 
L 522 3238 
Q 522 3728 498 3840 
Q 475 3953 426 3993 
Q 378 4034 297 4034 
Q 231 4034 84 3984 
L 41 4094 
L 897 4444 
L 1041 4444 
z
" transform="scale(0.015625)"/>
      <path id="TimesNewRomanPSMT-65" d="M 681 1784 
Q 678 1147 991 784 
Q 1303 422 1725 422 
Q 2006 422 2214 576 
Q 2422 731 2563 1106 
L 2659 1044 
Q 2594 616 2278 264 
Q 1963 -88 1488 -88 
Q 972 -88 605 314 
Q 238 716 238 1394 
Q 238 2128 614 2539 
Q 991 2950 1559 2950 
Q 2041 2950 2350 2633 
Q 2659 2316 2659 1784 
L 681 1784 
z
M 681 1966 
L 2006 1966 
Q 1991 2241 1941 2353 
Q 1863 2528 1708 2628 
Q 1553 2728 1384 2728 
Q 1125 2728 920 2526 
Q 716 2325 681 1966 
z
" transform="scale(0.015625)"/>
      <path id="TimesNewRomanPSMT-36" d="M 2869 4325 
L 2869 4209 
Q 2456 4169 2195 4045 
Q 1934 3922 1679 3669 
Q 1425 3416 1258 3105 
Q 1091 2794 978 2366 
Q 1428 2675 1881 2675 
Q 2316 2675 2634 2325 
Q 2953 1975 2953 1425 
Q 2953 894 2631 456 
Q 2244 -75 1606 -75 
Q 1172 -75 869 213 
Q 275 772 275 1663 
Q 275 2231 503 2743 
Q 731 3256 1154 3653 
Q 1578 4050 1965 4187 
Q 2353 4325 2688 4325 
L 2869 4325 
z
M 925 2138 
Q 869 1716 869 1456 
Q 869 1156 980 804 
Q 1091 453 1309 247 
Q 1469 100 1697 100 
Q 1969 100 2183 356 
Q 2397 613 2397 1088 
Q 2397 1622 2184 2012 
Q 1972 2403 1581 2403 
Q 1463 2403 1327 2353 
Q 1191 2303 925 2138 
z
" transform="scale(0.015625)"/>
      <path id="TimesNewRomanPSMT-5f" d="M 3256 -1381 
L -53 -1381 
L -53 -1119 
L 3256 -1119 
L 3256 -1381 
z
" transform="scale(0.015625)"/>
      <path id="TimesNewRomanPSMT-43" d="M 3853 4334 
L 3950 2894 
L 3853 2894 
Q 3659 3541 3300 3825 
Q 2941 4109 2438 4109 
Q 2016 4109 1675 3895 
Q 1334 3681 1139 3212 
Q 944 2744 944 2047 
Q 944 1472 1128 1050 
Q 1313 628 1683 403 
Q 2053 178 2528 178 
Q 2941 178 3256 354 
Q 3572 531 3950 1056 
L 4047 994 
Q 3728 428 3303 165 
Q 2878 -97 2294 -97 
Q 1241 -97 663 684 
Q 231 1266 231 2053 
Q 231 2688 515 3219 
Q 800 3750 1298 4042 
Q 1797 4334 2388 4334 
Q 2847 4334 3294 4109 
Q 3425 4041 3481 4041 
Q 3566 4041 3628 4100 
Q 3709 4184 3744 4334 
L 3853 4334 
z
" transform="scale(0.015625)"/>
      <path id="TimesNewRomanPSMT-49" d="M 1975 116 
L 1975 0 
L 159 0 
L 159 116 
L 309 116 
Q 572 116 691 269 
Q 766 369 766 750 
L 766 3488 
Q 766 3809 725 3913 
Q 694 3991 597 4047 
Q 459 4122 309 4122 
L 159 4122 
L 159 4238 
L 1975 4238 
L 1975 4122 
L 1822 4122 
Q 1563 4122 1444 3969 
Q 1366 3869 1366 3488 
L 1366 750 
Q 1366 428 1406 325 
Q 1438 247 1538 191 
Q 1672 116 1822 116 
L 1975 116 
z
" transform="scale(0.015625)"/>
      <path id="TimesNewRomanPSMT-4e" d="M -84 4238 
L 1066 4238 
L 3656 1059 
L 3656 3503 
Q 3656 3894 3569 3991 
Q 3453 4122 3203 4122 
L 3056 4122 
L 3056 4238 
L 4531 4238 
L 4531 4122 
L 4381 4122 
Q 4113 4122 4000 3959 
Q 3931 3859 3931 3503 
L 3931 -69 
L 3819 -69 
L 1025 3344 
L 1025 734 
Q 1025 344 1109 247 
Q 1228 116 1475 116 
L 1625 116 
L 1625 0 
L 150 0 
L 150 116 
L 297 116 
Q 569 116 681 278 
Q 750 378 750 734 
L 750 3681 
Q 566 3897 470 3965 
Q 375 4034 191 4094 
Q 100 4122 -84 4122 
L -84 4238 
z
" transform="scale(0.015625)"/>
      <path id="TimesNewRomanPSMT-72" d="M 1038 2947 
L 1038 2303 
Q 1397 2947 1775 2947 
Q 1947 2947 2059 2842 
Q 2172 2738 2172 2600 
Q 2172 2478 2090 2393 
Q 2009 2309 1897 2309 
Q 1788 2309 1652 2417 
Q 1516 2525 1450 2525 
Q 1394 2525 1328 2463 
Q 1188 2334 1038 2041 
L 1038 669 
Q 1038 431 1097 309 
Q 1138 225 1241 169 
Q 1344 113 1538 113 
L 1538 0 
L 72 0 
L 72 113 
Q 291 113 397 181 
Q 475 231 506 341 
Q 522 394 522 644 
L 522 1753 
Q 522 2253 501 2348 
Q 481 2444 426 2487 
Q 372 2531 291 2531 
Q 194 2531 72 2484 
L 41 2597 
L 906 2947 
L 1038 2947 
z
" transform="scale(0.015625)"/>
      <path id="TimesNewRomanPSMT-63" d="M 2631 1088 
Q 2516 522 2178 217 
Q 1841 -88 1431 -88 
Q 944 -88 581 321 
Q 219 731 219 1428 
Q 219 2103 620 2525 
Q 1022 2947 1584 2947 
Q 2006 2947 2278 2723 
Q 2550 2500 2550 2259 
Q 2550 2141 2473 2067 
Q 2397 1994 2259 1994 
Q 2075 1994 1981 2113 
Q 1928 2178 1911 2362 
Q 1894 2547 1784 2644 
Q 1675 2738 1481 2738 
Q 1169 2738 978 2506 
Q 725 2200 725 1697 
Q 725 1184 976 792 
Q 1228 400 1656 400 
Q 1963 400 2206 609 
Q 2378 753 2541 1131 
L 2631 1088 
z
" transform="scale(0.015625)"/>
      <path id="TimesNewRomanPSMT-6d" d="M 1050 2338 
Q 1363 2650 1419 2697 
Q 1559 2816 1721 2881 
Q 1884 2947 2044 2947 
Q 2313 2947 2506 2790 
Q 2700 2634 2766 2338 
Q 3088 2713 3309 2830 
Q 3531 2947 3766 2947 
Q 3994 2947 4170 2830 
Q 4347 2713 4450 2447 
Q 4519 2266 4519 1878 
L 4519 647 
Q 4519 378 4559 278 
Q 4591 209 4675 161 
Q 4759 113 4950 113 
L 4950 0 
L 3538 0 
L 3538 113 
L 3597 113 
Q 3781 113 3884 184 
Q 3956 234 3988 344 
Q 4000 397 4000 647 
L 4000 1878 
Q 4000 2228 3916 2372 
Q 3794 2572 3525 2572 
Q 3359 2572 3192 2489 
Q 3025 2406 2788 2181 
L 2781 2147 
L 2788 2013 
L 2788 647 
Q 2788 353 2820 281 
Q 2853 209 2943 161 
Q 3034 113 3253 113 
L 3253 0 
L 1806 0 
L 1806 113 
Q 2044 113 2133 169 
Q 2222 225 2256 338 
Q 2272 391 2272 647 
L 2272 1878 
Q 2272 2228 2169 2381 
Q 2031 2581 1784 2581 
Q 1616 2581 1450 2491 
Q 1191 2353 1050 2181 
L 1050 647 
Q 1050 366 1089 281 
Q 1128 197 1204 155 
Q 1281 113 1516 113 
L 1516 0 
L 100 0 
L 100 113 
Q 297 113 375 155 
Q 453 197 493 289 
Q 534 381 534 647 
L 534 1741 
Q 534 2213 506 2350 
Q 484 2453 437 2492 
Q 391 2531 309 2531 
Q 222 2531 100 2484 
L 53 2597 
L 916 2947 
L 1050 2947 
L 1050 2338 
z
" transform="scale(0.015625)"/>
      <path id="TimesNewRomanPSMT-64" d="M 2222 322 
Q 2013 103 1813 7 
Q 1613 -88 1381 -88 
Q 913 -88 563 304 
Q 213 697 213 1313 
Q 213 1928 600 2439 
Q 988 2950 1597 2950 
Q 1975 2950 2222 2709 
L 2222 3238 
Q 2222 3728 2198 3840 
Q 2175 3953 2125 3993 
Q 2075 4034 2000 4034 
Q 1919 4034 1784 3984 
L 1744 4094 
L 2597 4444 
L 2738 4444 
L 2738 1134 
Q 2738 631 2761 520 
Q 2784 409 2836 365 
Q 2888 322 2956 322 
Q 3041 322 3181 375 
L 3216 266 
L 2366 -88 
L 2222 -88 
L 2222 322 
z
M 2222 541 
L 2222 2016 
Q 2203 2228 2109 2403 
Q 2016 2578 1861 2667 
Q 1706 2756 1559 2756 
Q 1284 2756 1069 2509 
Q 784 2184 784 1559 
Q 784 928 1059 592 
Q 1334 256 1672 256 
Q 1956 256 2222 541 
z
" transform="scale(0.015625)"/>
      <path id="TimesNewRomanPSMT-6c" d="M 1184 4444 
L 1184 647 
Q 1184 378 1223 290 
Q 1263 203 1344 158 
Q 1425 113 1647 113 
L 1647 0 
L 244 0 
L 244 113 
Q 441 113 512 153 
Q 584 194 625 287 
Q 666 381 666 647 
L 666 3247 
Q 666 3731 644 3842 
Q 622 3953 573 3993 
Q 525 4034 450 4034 
Q 369 4034 244 3984 
L 191 4094 
L 1044 4444 
L 1184 4444 
z
" transform="scale(0.015625)"/>
      <path id="TimesNewRomanPSMT-28" d="M 1988 -1253 
L 1988 -1369 
Q 1516 -1131 1200 -813 
Q 750 -359 506 256 
Q 263 872 263 1534 
Q 263 2503 741 3301 
Q 1219 4100 1988 4444 
L 1988 4313 
Q 1603 4100 1356 3731 
Q 1109 3363 987 2797 
Q 866 2231 866 1616 
Q 866 947 969 400 
Q 1050 -31 1165 -292 
Q 1281 -553 1476 -793 
Q 1672 -1034 1988 -1253 
z
" transform="scale(0.015625)"/>
      <path id="TimesNewRomanPSMT-33" d="M 325 3431 
Q 506 3859 782 4092 
Q 1059 4325 1472 4325 
Q 1981 4325 2253 3994 
Q 2459 3747 2459 3466 
Q 2459 3003 1878 2509 
Q 2269 2356 2469 2072 
Q 2669 1788 2669 1403 
Q 2669 853 2319 450 
Q 1863 -75 997 -75 
Q 569 -75 414 31 
Q 259 138 259 259 
Q 259 350 332 419 
Q 406 488 509 488 
Q 588 488 669 463 
Q 722 447 909 348 
Q 1097 250 1169 231 
Q 1284 197 1416 197 
Q 1734 197 1970 444 
Q 2206 691 2206 1028 
Q 2206 1275 2097 1509 
Q 2016 1684 1919 1775 
Q 1784 1900 1550 2001 
Q 1316 2103 1072 2103 
L 972 2103 
L 972 2197 
Q 1219 2228 1467 2375 
Q 1716 2522 1828 2728 
Q 1941 2934 1941 3181 
Q 1941 3503 1739 3701 
Q 1538 3900 1238 3900 
Q 753 3900 428 3381 
L 325 3431 
z
" transform="scale(0.015625)"/>
      <path id="TimesNewRomanPSMT-2b" d="M 1672 441 
L 1672 2000 
L 116 2000 
L 116 2256 
L 1672 2256 
L 1672 3809 
L 1922 3809 
L 1922 2256 
L 3484 2256 
L 3484 2000 
L 1922 2000 
L 1922 441 
L 1672 441 
z
" transform="scale(0.015625)"/>
      <path id="TimesNewRomanPSMT-2a" d="M 1544 3263 
Q 1531 3478 1456 3691 
Q 1350 3997 1350 4113 
Q 1350 4275 1426 4359 
Q 1503 4444 1616 4444 
Q 1713 4444 1784 4359 
Q 1856 4275 1856 4119 
Q 1856 3978 1773 3726 
Q 1691 3475 1672 3263 
Q 1844 3372 1981 3528 
Q 2194 3775 2297 3834 
Q 2400 3894 2506 3894 
Q 2609 3894 2679 3823 
Q 2750 3753 2750 3656 
Q 2750 3541 2647 3450 
Q 2544 3359 2131 3269 
Q 1891 3216 1731 3147 
Q 1894 3063 2128 3019 
Q 2506 2950 2623 2847 
Q 2741 2744 2741 2622 
Q 2741 2528 2670 2459 
Q 2600 2391 2506 2391 
Q 2413 2391 2298 2456 
Q 2184 2522 1991 2750 
Q 1863 2903 1672 3038 
Q 1678 2859 1744 2650 
Q 1856 2281 1856 2147 
Q 1856 2022 1781 1936 
Q 1706 1850 1622 1850 
Q 1506 1850 1413 1941 
Q 1347 2006 1347 2150 
Q 1347 2300 1419 2511 
Q 1491 2722 1509 2801 
Q 1528 2881 1544 3038 
Q 1359 2916 1222 2766 
Q 994 2509 878 2441 
Q 797 2391 709 2391 
Q 603 2391 528 2462 
Q 453 2534 453 2622 
Q 453 2700 517 2786 
Q 581 2872 709 2928 
Q 794 2966 1094 3028 
Q 1288 3069 1472 3147 
Q 1303 3231 1069 3278 
Q 684 3359 594 3425 
Q 453 3528 453 3675 
Q 453 3759 523 3829 
Q 594 3900 688 3900 
Q 791 3900 906 3834 
Q 1022 3769 1194 3570 
Q 1366 3372 1544 3263 
z
" transform="scale(0.015625)"/>
      <path id="TimesNewRomanPSMT-29" d="M 144 4313 
L 144 4444 
Q 619 4209 934 3891 
Q 1381 3434 1625 2820 
Q 1869 2206 1869 1541 
Q 1869 572 1392 -226 
Q 916 -1025 144 -1369 
L 144 -1253 
Q 528 -1038 776 -670 
Q 1025 -303 1145 264 
Q 1266 831 1266 1447 
Q 1266 2113 1163 2663 
Q 1084 3094 967 3353 
Q 850 3613 656 3853 
Q 463 4094 144 4313 
z
" transform="scale(0.015625)"/>
      <path id="TimesNewRomanPSMT-44" d="M 109 0 
L 109 116 
L 269 116 
Q 538 116 650 288 
Q 719 391 719 750 
L 719 3488 
Q 719 3884 631 3984 
Q 509 4122 269 4122 
L 109 4122 
L 109 4238 
L 1834 4238 
Q 2784 4238 3279 4022 
Q 3775 3806 4076 3303 
Q 4378 2800 4378 2141 
Q 4378 1256 3841 663 
Q 3238 0 2003 0 
L 109 0 
z
M 1319 306 
Q 1716 219 1984 219 
Q 2709 219 3187 728 
Q 3666 1238 3666 2109 
Q 3666 2988 3187 3494 
Q 2709 4000 1959 4000 
Q 1678 4000 1319 3909 
L 1319 306 
z
" transform="scale(0.015625)"/>
      <path id="TimesNewRomanPSMT-3d" d="M 116 2759 
L 3488 2759 
L 3488 2503 
L 116 2503 
L 116 2759 
z
M 116 1741 
L 3488 1741 
L 3488 1484 
L 116 1484 
L 116 1741 
z
" transform="scale(0.015625)"/>
     </defs>
     <use xlink:href="#TimesNewRomanPSMT-4c"/>
     <use xlink:href="#TimesNewRomanPSMT-6f" transform="translate(61.083984 0)"/>
     <use xlink:href="#TimesNewRomanPSMT-73" transform="translate(111.083984 0)"/>
     <use xlink:href="#TimesNewRomanPSMT-73" transform="translate(150 0)"/>
     <use xlink:href="#TimesNewRomanPSMT-20" transform="translate(188.916016 0)"/>
     <use xlink:href="#TimesNewRomanPSMT-6f" transform="translate(213.916016 0)"/>
     <use xlink:href="#TimesNewRomanPSMT-66" transform="translate(263.916016 0)"/>
     <use xlink:href="#TimesNewRomanPSMT-20" transform="translate(297.216797 0)"/>
     <use xlink:href="#TimesNewRomanPSMT-74" transform="translate(322.216797 0)"/>
     <use xlink:href="#TimesNewRomanPSMT-68" transform="translate(350 0)"/>
     <use xlink:href="#TimesNewRomanPSMT-65" transform="translate(400 0)"/>
     <use xlink:href="#TimesNewRomanPSMT-20" transform="translate(444.384766 0)"/>
     <use xlink:href="#TimesNewRomanPSMT-31" transform="translate(469.384766 0)"/>
     <use xlink:href="#TimesNewRomanPSMT-36" transform="translate(519.384766 0)"/>
     <use xlink:href="#TimesNewRomanPSMT-5f" transform="translate(569.384766 0)"/>
     <use xlink:href="#TimesNewRomanPSMT-30" transform="translate(619.384766 0)"/>
     <use xlink:href="#TimesNewRomanPSMT-35" transform="translate(669.384766 0)"/>
     <use xlink:href="#TimesNewRomanPSMT-5f" transform="translate(719.384766 0)"/>
     <use xlink:href="#TimesNewRomanPSMT-32" transform="translate(769.384766 0)"/>
     <use xlink:href="#TimesNewRomanPSMT-35" transform="translate(819.384766 0)"/>
     <use xlink:href="#TimesNewRomanPSMT-5f" transform="translate(869.384766 0)"/>
     <use xlink:href="#TimesNewRomanPSMT-43" transform="translate(919.384766 0)"/>
     <use xlink:href="#TimesNewRomanPSMT-49" transform="translate(986.083984 0)"/>
     <use xlink:href="#TimesNewRomanPSMT-4e" transform="translate(1019.384766 0)"/>
     <use xlink:href="#TimesNewRomanPSMT-49" transform="translate(1091.601562 0)"/>
     <use xlink:href="#TimesNewRomanPSMT-43" transform="translate(1124.902344 0)"/>
     <use xlink:href="#TimesNewRomanPSMT-31" transform="translate(1191.601562 0)"/>
     <use xlink:href="#TimesNewRomanPSMT-30" transform="translate(1241.601562 0)"/>
     <use xlink:href="#TimesNewRomanPSMT-5f" transform="translate(1291.601562 0)"/>
     <use xlink:href="#TimesNewRomanPSMT-74" transform="translate(1341.601562 0)"/>
     <use xlink:href="#TimesNewRomanPSMT-6f" transform="translate(1369.384766 0)"/>
     <use xlink:href="#TimesNewRomanPSMT-72" transform="translate(1419.384766 0)"/>
     <use xlink:href="#TimesNewRomanPSMT-63" transform="translate(1452.685547 0)"/>
     <use xlink:href="#TimesNewRomanPSMT-68" transform="translate(1497.070312 0)"/>
     <use xlink:href="#TimesNewRomanPSMT-5f" transform="translate(1547.070312 0)"/>
     <use xlink:href="#TimesNewRomanPSMT-6d" transform="translate(1597.070312 0)"/>
     <use xlink:href="#TimesNewRomanPSMT-6f" transform="translate(1674.853516 0)"/>
     <use xlink:href="#TimesNewRomanPSMT-64" transform="translate(1724.853516 0)"/>
     <use xlink:href="#TimesNewRomanPSMT-65" transform="translate(1774.853516 0)"/>
     <use xlink:href="#TimesNewRomanPSMT-6c" transform="translate(1819.238281 0)"/>
     <use xlink:href="#TimesNewRomanPSMT-5f" transform="translate(1847.021484 0)"/>
     <use xlink:href="#TimesNewRomanPSMT-28" transform="translate(1897.021484 0)"/>
     <use xlink:href="#TimesNewRomanPSMT-33" transform="translate(1930.322266 0)"/>
     <use xlink:href="#TimesNewRomanPSMT-30" transform="translate(1980.322266 0)"/>
     <use xlink:href="#TimesNewRomanPSMT-37" transform="translate(2030.322266 0)"/>
     <use xlink:href="#TimesNewRomanPSMT-32" transform="translate(2080.322266 0)"/>
     <use xlink:href="#TimesNewRomanPSMT-2b" transform="translate(2130.322266 0)"/>
     <use xlink:href="#TimesNewRomanPSMT-31" transform="translate(2186.71875 0)"/>
     <use xlink:href="#TimesNewRomanPSMT-36" transform="translate(2236.71875 0)"/>
     <use xlink:href="#TimesNewRomanPSMT-2a" transform="translate(2286.71875 0)"/>
     <use xlink:href="#TimesNewRomanPSMT-37" transform="translate(2336.71875 0)"/>
     <use xlink:href="#TimesNewRomanPSMT-2b" transform="translate(2386.71875 0)"/>
     <use xlink:href="#TimesNewRomanPSMT-31" transform="translate(2443.115234 0)"/>
     <use xlink:href="#TimesNewRomanPSMT-29" transform="translate(2493.115234 0)"/>
     <use xlink:href="#TimesNewRomanPSMT-5f" transform="translate(2526.416016 0)"/>
     <use xlink:href="#TimesNewRomanPSMT-63" transform="translate(2576.416016 0)"/>
     <use xlink:href="#TimesNewRomanPSMT-66" transform="translate(2620.800781 0)"/>
     <use xlink:href="#TimesNewRomanPSMT-2b" transform="translate(2654.101562 0)"/>
     <use xlink:href="#TimesNewRomanPSMT-28" transform="translate(2710.498047 0)"/>
     <use xlink:href="#TimesNewRomanPSMT-44" transform="translate(2743.798828 0)"/>
     <use xlink:href="#TimesNewRomanPSMT-3d" transform="translate(2816.015625 0)"/>
     <use xlink:href="#TimesNewRomanPSMT-30" transform="translate(2872.412109 0)"/>
     <use xlink:href="#TimesNewRomanPSMT-29" transform="translate(2922.412109 0)"/>
    </g>
   </g>
   <g id="legend_1">
    <g id="patch_7">
     <path d="M 359.95325 125.384625 
L 560.51075 125.384625 
Q 564.91075 125.384625 564.91075 120.984625 
L 564.91075 60.9315 
Q 564.91075 56.5315 560.51075 56.5315 
L 359.95325 56.5315 
Q 355.55325 56.5315 355.55325 60.9315 
L 355.55325 120.984625 
Q 355.55325 125.384625 359.95325 125.384625 
z
" style="fill: #ffffff; opacity: 0.8; stroke: #cccccc; stroke-linejoin: miter"/>
    </g>
    <g id="line2d_25">
     <path d="M 364.35325 73.0315 
L 386.35325 73.0315 
L 408.35325 73.0315 
" style="fill: none; stroke: #ffa500; stroke-width: 1.5; stroke-linecap: square"/>
    </g>
    <g id="text_15">
     <!-- Training loss -->
     <g transform="translate(425.95325 80.7315) scale(0.22 -0.22)">
      <defs>
       <path id="TimesNewRomanPSMT-54" d="M 3703 4238 
L 3750 3244 
L 3631 3244 
Q 3597 3506 3538 3619 
Q 3441 3800 3280 3886 
Q 3119 3972 2856 3972 
L 2259 3972 
L 2259 734 
Q 2259 344 2344 247 
Q 2463 116 2709 116 
L 2856 116 
L 2856 0 
L 1059 0 
L 1059 116 
L 1209 116 
Q 1478 116 1591 278 
Q 1659 378 1659 734 
L 1659 3972 
L 1150 3972 
Q 853 3972 728 3928 
Q 566 3869 450 3700 
Q 334 3531 313 3244 
L 194 3244 
L 244 4238 
L 3703 4238 
z
" transform="scale(0.015625)"/>
       <path id="TimesNewRomanPSMT-61" d="M 1822 413 
Q 1381 72 1269 19 
Q 1100 -59 909 -59 
Q 613 -59 420 144 
Q 228 347 228 678 
Q 228 888 322 1041 
Q 450 1253 767 1440 
Q 1084 1628 1822 1897 
L 1822 2009 
Q 1822 2438 1686 2597 
Q 1550 2756 1291 2756 
Q 1094 2756 978 2650 
Q 859 2544 859 2406 
L 866 2225 
Q 866 2081 792 2003 
Q 719 1925 600 1925 
Q 484 1925 411 2006 
Q 338 2088 338 2228 
Q 338 2497 613 2722 
Q 888 2947 1384 2947 
Q 1766 2947 2009 2819 
Q 2194 2722 2281 2516 
Q 2338 2381 2338 1966 
L 2338 994 
Q 2338 584 2353 492 
Q 2369 400 2405 369 
Q 2441 338 2488 338 
Q 2538 338 2575 359 
Q 2641 400 2828 588 
L 2828 413 
Q 2478 -56 2159 -56 
Q 2006 -56 1915 50 
Q 1825 156 1822 413 
z
M 1822 616 
L 1822 1706 
Q 1350 1519 1213 1441 
Q 966 1303 859 1153 
Q 753 1003 753 825 
Q 753 600 887 451 
Q 1022 303 1197 303 
Q 1434 303 1822 616 
z
" transform="scale(0.015625)"/>
       <path id="TimesNewRomanPSMT-69" d="M 928 4444 
Q 1059 4444 1151 4351 
Q 1244 4259 1244 4128 
Q 1244 3997 1151 3903 
Q 1059 3809 928 3809 
Q 797 3809 703 3903 
Q 609 3997 609 4128 
Q 609 4259 701 4351 
Q 794 4444 928 4444 
z
M 1188 2947 
L 1188 647 
Q 1188 378 1227 289 
Q 1266 200 1342 156 
Q 1419 113 1622 113 
L 1622 0 
L 231 0 
L 231 113 
Q 441 113 512 153 
Q 584 194 626 287 
Q 669 381 669 647 
L 669 1750 
Q 669 2216 641 2353 
Q 619 2453 572 2492 
Q 525 2531 444 2531 
Q 356 2531 231 2484 
L 188 2597 
L 1050 2947 
L 1188 2947 
z
" transform="scale(0.015625)"/>
       <path id="TimesNewRomanPSMT-6e" d="M 1034 2341 
Q 1538 2947 1994 2947 
Q 2228 2947 2397 2830 
Q 2566 2713 2666 2444 
Q 2734 2256 2734 1869 
L 2734 647 
Q 2734 375 2778 278 
Q 2813 200 2889 156 
Q 2966 113 3172 113 
L 3172 0 
L 1756 0 
L 1756 113 
L 1816 113 
Q 2016 113 2095 173 
Q 2175 234 2206 353 
Q 2219 400 2219 647 
L 2219 1819 
Q 2219 2209 2117 2386 
Q 2016 2563 1775 2563 
Q 1403 2563 1034 2156 
L 1034 647 
Q 1034 356 1069 288 
Q 1113 197 1189 155 
Q 1266 113 1500 113 
L 1500 0 
L 84 0 
L 84 113 
L 147 113 
Q 366 113 442 223 
Q 519 334 519 647 
L 519 1709 
Q 519 2225 495 2337 
Q 472 2450 423 2490 
Q 375 2531 294 2531 
Q 206 2531 84 2484 
L 38 2597 
L 900 2947 
L 1034 2947 
L 1034 2341 
z
" transform="scale(0.015625)"/>
       <path id="TimesNewRomanPSMT-67" d="M 966 1044 
Q 703 1172 562 1401 
Q 422 1631 422 1909 
Q 422 2334 742 2640 
Q 1063 2947 1563 2947 
Q 1972 2947 2272 2747 
L 2878 2747 
Q 3013 2747 3034 2739 
Q 3056 2731 3066 2713 
Q 3084 2684 3084 2613 
Q 3084 2531 3069 2500 
Q 3059 2484 3036 2475 
Q 3013 2466 2878 2466 
L 2506 2466 
Q 2681 2241 2681 1891 
Q 2681 1491 2375 1206 
Q 2069 922 1553 922 
Q 1341 922 1119 984 
Q 981 866 932 777 
Q 884 688 884 625 
Q 884 572 936 522 
Q 988 472 1138 450 
Q 1225 438 1575 428 
Q 2219 413 2409 384 
Q 2700 344 2873 169 
Q 3047 -6 3047 -263 
Q 3047 -616 2716 -925 
Q 2228 -1381 1444 -1381 
Q 841 -1381 425 -1109 
Q 191 -953 191 -784 
Q 191 -709 225 -634 
Q 278 -519 444 -313 
Q 466 -284 763 25 
Q 600 122 533 198 
Q 466 275 466 372 
Q 466 481 555 628 
Q 644 775 966 1044 
z
M 1509 2797 
Q 1278 2797 1122 2612 
Q 966 2428 966 2047 
Q 966 1553 1178 1281 
Q 1341 1075 1591 1075 
Q 1828 1075 1981 1253 
Q 2134 1431 2134 1813 
Q 2134 2309 1919 2591 
Q 1759 2797 1509 2797 
z
M 934 0 
Q 788 -159 713 -296 
Q 638 -434 638 -550 
Q 638 -700 819 -813 
Q 1131 -1006 1722 -1006 
Q 2284 -1006 2551 -807 
Q 2819 -609 2819 -384 
Q 2819 -222 2659 -153 
Q 2497 -84 2016 -72 
Q 1313 -53 934 0 
z
" transform="scale(0.015625)"/>
      </defs>
      <use xlink:href="#TimesNewRomanPSMT-54"/>
      <use xlink:href="#TimesNewRomanPSMT-72" transform="translate(57.583984 0)"/>
      <use xlink:href="#TimesNewRomanPSMT-61" transform="translate(90.884766 0)"/>
      <use xlink:href="#TimesNewRomanPSMT-69" transform="translate(135.269531 0)"/>
      <use xlink:href="#TimesNewRomanPSMT-6e" transform="translate(163.052734 0)"/>
      <use xlink:href="#TimesNewRomanPSMT-69" transform="translate(213.052734 0)"/>
      <use xlink:href="#TimesNewRomanPSMT-6e" transform="translate(240.835938 0)"/>
      <use xlink:href="#TimesNewRomanPSMT-67" transform="translate(290.835938 0)"/>
      <use xlink:href="#TimesNewRomanPSMT-20" transform="translate(340.835938 0)"/>
      <use xlink:href="#TimesNewRomanPSMT-6c" transform="translate(365.835938 0)"/>
      <use xlink:href="#TimesNewRomanPSMT-6f" transform="translate(393.619141 0)"/>
      <use xlink:href="#TimesNewRomanPSMT-73" transform="translate(443.619141 0)"/>
      <use xlink:href="#TimesNewRomanPSMT-73" transform="translate(482.535156 0)"/>
     </g>
    </g>
    <g id="line2d_26">
     <path d="M 364.35325 104.178687 
L 386.35325 104.178687 
L 408.35325 104.178687 
" style="fill: none; stroke: #008000; stroke-width: 1.5; stroke-linecap: square"/>
    </g>
    <g id="text_16">
     <!-- Validation loss -->
     <g transform="translate(425.95325 111.878687) scale(0.22 -0.22)">
      <defs>
       <path id="TimesNewRomanPSMT-56" d="M 4544 4238 
L 4544 4122 
Q 4319 4081 4203 3978 
Q 4038 3825 3909 3509 
L 2431 -97 
L 2316 -97 
L 728 3556 
Q 606 3838 556 3900 
Q 478 3997 364 4051 
Q 250 4106 56 4122 
L 56 4238 
L 1788 4238 
L 1788 4122 
Q 1494 4094 1406 4022 
Q 1319 3950 1319 3838 
Q 1319 3681 1463 3350 
L 2541 866 
L 3541 3319 
Q 3688 3681 3688 3822 
Q 3688 3913 3597 3995 
Q 3506 4078 3291 4113 
Q 3275 4116 3238 4122 
L 3238 4238 
L 4544 4238 
z
" transform="scale(0.015625)"/>
      </defs>
      <use xlink:href="#TimesNewRomanPSMT-56"/>
      <use xlink:href="#TimesNewRomanPSMT-61" transform="translate(61.091797 0)"/>
      <use xlink:href="#TimesNewRomanPSMT-6c" transform="translate(105.476562 0)"/>
      <use xlink:href="#TimesNewRomanPSMT-69" transform="translate(133.259766 0)"/>
      <use xlink:href="#TimesNewRomanPSMT-64" transform="translate(161.042969 0)"/>
      <use xlink:href="#TimesNewRomanPSMT-61" transform="translate(211.042969 0)"/>
      <use xlink:href="#TimesNewRomanPSMT-74" transform="translate(255.427734 0)"/>
      <use xlink:href="#TimesNewRomanPSMT-69" transform="translate(283.210938 0)"/>
      <use xlink:href="#TimesNewRomanPSMT-6f" transform="translate(310.994141 0)"/>
      <use xlink:href="#TimesNewRomanPSMT-6e" transform="translate(360.994141 0)"/>
      <use xlink:href="#TimesNewRomanPSMT-20" transform="translate(410.994141 0)"/>
      <use xlink:href="#TimesNewRomanPSMT-6c" transform="translate(435.994141 0)"/>
      <use xlink:href="#TimesNewRomanPSMT-6f" transform="translate(463.777344 0)"/>
      <use xlink:href="#TimesNewRomanPSMT-73" transform="translate(513.777344 0)"/>
      <use xlink:href="#TimesNewRomanPSMT-73" transform="translate(552.693359 0)"/>
     </g>
    </g>
   </g>
  </g>
 </g>
 <defs>
  <clipPath id="p102b708c15">
   <rect x="218.79075" y="45.5315" width="357.12" height="266.112"/>
  </clipPath>
 </defs>
</svg>
