<?xml version="1.0" encoding="utf-8" standalone="no"?>
<!DOCTYPE svg PUBLIC "-//W3C//DTD SVG 1.1//EN"
  "http://www.w3.org/Graphics/SVG/1.1/DTD/svg11.dtd">
<svg xmlns:xlink="http://www.w3.org/1999/xlink" width="849.02775pt" height="383.265687pt" viewBox="0 0 849.02775 383.265687" xmlns="http://www.w3.org/2000/svg" version="1.1">
 <metadata>
  <rdf:RDF xmlns:dc="http://purl.org/dc/elements/1.1/" xmlns:cc="http://creativecommons.org/ns#" xmlns:rdf="http://www.w3.org/1999/02/22-rdf-syntax-ns#">
   <cc:Work>
    <dc:type rdf:resource="http://purl.org/dc/dcmitype/StillImage"/>
    <dc:date>2025-07-13T09:35:42.300942</dc:date>
    <dc:format>image/svg+xml</dc:format>
    <dc:creator>
     <cc:Agent>
      <dc:title>Matplotlib v3.10.3, https://matplotlib.org/</dc:title>
     </cc:Agent>
    </dc:creator>
   </cc:Work>
  </rdf:RDF>
 </metadata>
 <defs>
  <style type="text/css">*{stroke-linejoin: round; stroke-linecap: butt}</style>
 </defs>
 <g id="figure_1">
  <g id="patch_1">
   <path d="M 0 383.265687 
L 849.02775 383.265687 
L 849.02775 0 
L 0 0 
z
" style="fill: #ffffff"/>
  </g>
  <g id="axes_1">
   <g id="patch_2">
    <path d="M 245.953875 311.6435 
L 603.073875 311.6435 
L 603.073875 45.5315 
L 245.953875 45.5315 
z
" style="fill: #ffffff"/>
   </g>
   <g id="matplotlib.axis_1">
    <g id="xtick_1">
     <g id="line2d_1">
      <path d="M 245.953875 311.6435 
L 245.953875 45.5315 
" clip-path="url(#pe37c9a7ba4)" style="fill: none; stroke: #b0b0b0; stroke-opacity: 0.3; stroke-width: 0.8; stroke-linecap: square"/>
     </g>
     <g id="line2d_2">
      <defs>
       <path id="m5f8f40bb30" d="M 0 0 
L 0 3.5 
" style="stroke: #000000; stroke-width: 0.8"/>
      </defs>
      <g>
       <use xlink:href="#m5f8f40bb30" x="245.953875" y="311.6435" style="stroke: #000000; stroke-width: 0.8"/>
      </g>
     </g>
     <g id="text_1">
      <!-- 0.0 -->
      <g transform="translate(232.203875 333.91975) scale(0.22 -0.22)">
       <defs>
        <path id="TimesNewRomanPSMT-30" d="M 231 2094 
Q 231 2819 450 3342 
Q 669 3866 1031 4122 
Q 1313 4325 1613 4325 
Q 2100 4325 2488 3828 
Q 2972 3213 2972 2159 
Q 2972 1422 2759 906 
Q 2547 391 2217 158 
Q 1888 -75 1581 -75 
Q 975 -75 572 641 
Q 231 1244 231 2094 
z
M 844 2016 
Q 844 1141 1059 588 
Q 1238 122 1591 122 
Q 1759 122 1940 273 
Q 2122 425 2216 781 
Q 2359 1319 2359 2297 
Q 2359 3022 2209 3506 
Q 2097 3866 1919 4016 
Q 1791 4119 1609 4119 
Q 1397 4119 1231 3928 
Q 1006 3669 925 3112 
Q 844 2556 844 2016 
z
" transform="scale(0.015625)"/>
        <path id="TimesNewRomanPSMT-2e" d="M 800 606 
Q 947 606 1047 504 
Q 1147 403 1147 259 
Q 1147 116 1045 14 
Q 944 -88 800 -88 
Q 656 -88 554 14 
Q 453 116 453 259 
Q 453 406 554 506 
Q 656 606 800 606 
z
" transform="scale(0.015625)"/>
       </defs>
       <use xlink:href="#TimesNewRomanPSMT-30"/>
       <use xlink:href="#TimesNewRomanPSMT-2e" transform="translate(50 0)"/>
       <use xlink:href="#TimesNewRomanPSMT-30" transform="translate(75 0)"/>
      </g>
     </g>
    </g>
    <g id="xtick_2">
     <g id="line2d_3">
      <path d="M 372.272262 311.6435 
L 372.272262 45.5315 
" clip-path="url(#pe37c9a7ba4)" style="fill: none; stroke: #b0b0b0; stroke-opacity: 0.3; stroke-width: 0.8; stroke-linecap: square"/>
     </g>
     <g id="line2d_4">
      <g>
       <use xlink:href="#m5f8f40bb30" x="372.272262" y="311.6435" style="stroke: #000000; stroke-width: 0.8"/>
      </g>
     </g>
     <g id="text_2">
      <!-- 0.5 -->
      <g transform="translate(358.522262 333.91975) scale(0.22 -0.22)">
       <defs>
        <path id="TimesNewRomanPSMT-35" d="M 2778 4238 
L 2534 3706 
L 1259 3706 
L 981 3138 
Q 1809 3016 2294 2522 
Q 2709 2097 2709 1522 
Q 2709 1188 2573 903 
Q 2438 619 2231 419 
Q 2025 219 1772 97 
Q 1413 -75 1034 -75 
Q 653 -75 479 54 
Q 306 184 306 341 
Q 306 428 378 495 
Q 450 563 559 563 
Q 641 563 702 538 
Q 763 513 909 409 
Q 1144 247 1384 247 
Q 1750 247 2026 523 
Q 2303 800 2303 1197 
Q 2303 1581 2056 1914 
Q 1809 2247 1375 2428 
Q 1034 2569 447 2591 
L 1259 4238 
L 2778 4238 
z
" transform="scale(0.015625)"/>
       </defs>
       <use xlink:href="#TimesNewRomanPSMT-30"/>
       <use xlink:href="#TimesNewRomanPSMT-2e" transform="translate(50 0)"/>
       <use xlink:href="#TimesNewRomanPSMT-35" transform="translate(75 0)"/>
      </g>
     </g>
    </g>
    <g id="xtick_3">
     <g id="line2d_5">
      <path d="M 498.59065 311.6435 
L 498.59065 45.5315 
" clip-path="url(#pe37c9a7ba4)" style="fill: none; stroke: #b0b0b0; stroke-opacity: 0.3; stroke-width: 0.8; stroke-linecap: square"/>
     </g>
     <g id="line2d_6">
      <g>
       <use xlink:href="#m5f8f40bb30" x="498.59065" y="311.6435" style="stroke: #000000; stroke-width: 0.8"/>
      </g>
     </g>
     <g id="text_3">
      <!-- 1.0 -->
      <g transform="translate(484.84065 333.91975) scale(0.22 -0.22)">
       <defs>
        <path id="TimesNewRomanPSMT-31" d="M 750 3822 
L 1781 4325 
L 1884 4325 
L 1884 747 
Q 1884 391 1914 303 
Q 1944 216 2037 169 
Q 2131 122 2419 116 
L 2419 0 
L 825 0 
L 825 116 
Q 1125 122 1212 167 
Q 1300 213 1334 289 
Q 1369 366 1369 747 
L 1369 3034 
Q 1369 3497 1338 3628 
Q 1316 3728 1258 3775 
Q 1200 3822 1119 3822 
Q 1003 3822 797 3725 
L 750 3822 
z
" transform="scale(0.015625)"/>
       </defs>
       <use xlink:href="#TimesNewRomanPSMT-31"/>
       <use xlink:href="#TimesNewRomanPSMT-2e" transform="translate(50 0)"/>
       <use xlink:href="#TimesNewRomanPSMT-30" transform="translate(75 0)"/>
      </g>
     </g>
    </g>
    <g id="text_4">
     <!-- $\kappa  = \frac{ln(n)}{ln(d)}$ -->
     <g transform="translate(392.503875 364.185687) scale(0.22 -0.22)">
      <defs>
       <path id="STIXGeneral-Italic-3ba" d="M 979 1440 
L 998 1446 
Q 1850 2541 2464 2790 
Q 2547 2822 2630 2822 
Q 2797 2822 2886 2736 
Q 2976 2650 2976 2522 
Q 2976 2387 2893 2307 
Q 2810 2227 2682 2227 
Q 2605 2227 2502 2288 
Q 2400 2349 2336 2349 
Q 2170 2349 1990 2205 
Q 1811 2061 1414 1645 
L 2042 544 
Q 2202 262 2310 182 
Q 2419 102 2624 102 
L 2624 0 
Q 2374 -83 2182 -83 
Q 1786 -83 1555 326 
L 960 1350 
L 576 0 
L 90 0 
L 640 1978 
Q 730 2317 730 2406 
Q 730 2560 518 2560 
L 339 2560 
L 339 2650 
Q 678 2694 1306 2822 
L 1325 2803 
L 979 1440 
z
" transform="scale(0.015625)"/>
       <path id="STIXGeneral-Regular-3d" d="M 4077 2048 
L 307 2048 
L 307 2470 
L 4077 2470 
L 4077 2048 
z
M 4077 768 
L 307 768 
L 307 1190 
L 4077 1190 
L 4077 768 
z
" transform="scale(0.015625)"/>
       <path id="STIXGeneral-Italic-6c" d="M 1786 4339 
L 806 595 
Q 755 410 755 320 
Q 755 205 864 205 
Q 1037 205 1293 570 
L 1453 794 
L 1542 730 
Q 1254 275 1046 102 
Q 838 -70 576 -70 
Q 262 -70 262 288 
Q 262 397 288 480 
L 1165 3834 
Q 1184 3898 1184 3955 
Q 1184 4096 870 4096 
L 755 4096 
L 755 4198 
Q 1203 4250 1747 4371 
L 1786 4339 
z
" transform="scale(0.015625)"/>
       <path id="STIXGeneral-Italic-6e" d="M 2944 749 
L 3034 666 
Q 2707 218 2534 80 
Q 2362 -58 2138 -58 
Q 2010 -58 1923 28 
Q 1837 115 1837 288 
Q 1837 390 1939 768 
L 2221 1805 
Q 2310 2150 2310 2310 
Q 2310 2496 2157 2496 
Q 1971 2496 1750 2275 
Q 1530 2054 1210 1587 
Q 998 1274 899 1024 
Q 800 774 570 0 
L 90 0 
L 704 2240 
Q 717 2304 717 2349 
Q 717 2445 630 2480 
Q 544 2515 301 2522 
L 301 2624 
Q 550 2675 857 2729 
Q 1165 2784 1338 2822 
L 1363 2810 
L 934 1414 
Q 1408 2170 1753 2496 
Q 2099 2822 2413 2822 
Q 2611 2822 2720 2716 
Q 2829 2611 2829 2432 
Q 2829 2272 2765 2048 
L 2406 749 
Q 2317 429 2317 358 
Q 2317 243 2419 243 
Q 2541 243 2810 582 
Q 2854 634 2944 749 
z
" transform="scale(0.015625)"/>
       <path id="STIXGeneral-Regular-28" d="M 1946 -1030 
L 1869 -1133 
Q 1126 -710 716 32 
Q 307 774 307 1613 
Q 307 3386 1888 4326 
L 1946 4224 
Q 1293 3667 1075 3126 
Q 858 2586 858 1632 
Q 858 685 1082 96 
Q 1306 -493 1946 -1030 
z
" transform="scale(0.015625)"/>
       <path id="STIXGeneral-Regular-29" d="M 186 4224 
L 262 4326 
Q 992 3891 1408 3148 
Q 1824 2406 1824 1581 
Q 1824 -166 243 -1133 
L 186 -1030 
Q 845 -486 1059 54 
Q 1274 595 1274 1562 
Q 1274 2534 1059 3120 
Q 845 3706 186 4224 
z
" transform="scale(0.015625)"/>
       <path id="STIXGeneral-Italic-64" d="M 3334 4371 
L 3373 4333 
L 3123 3360 
L 2739 1958 
Q 2323 429 2323 384 
Q 2323 256 2438 256 
Q 2522 256 2614 336 
Q 2707 416 2963 710 
L 3040 646 
Q 2547 -83 2099 -83 
Q 1978 -83 1907 -6 
Q 1837 70 1837 205 
Q 1837 397 1920 774 
Q 1645 307 1379 118 
Q 1114 -70 781 -70 
Q 461 -70 278 125 
Q 96 320 96 678 
Q 96 1440 713 2131 
Q 1331 2822 1965 2822 
Q 2163 2822 2256 2732 
Q 2349 2643 2381 2451 
L 2387 2451 
L 2675 3494 
Q 2765 3808 2765 3949 
Q 2765 4051 2694 4076 
Q 2624 4102 2355 4115 
L 2355 4224 
Q 2848 4269 3334 4371 
z
M 2278 2310 
Q 2278 2477 2185 2576 
Q 2093 2675 1978 2675 
Q 1677 2675 1395 2381 
Q 1075 2042 864 1571 
Q 653 1101 653 704 
Q 653 486 752 361 
Q 851 237 1024 237 
Q 1312 237 1606 550 
Q 1901 864 2089 1350 
Q 2278 1837 2278 2310 
z
" transform="scale(0.015625)"/>
      </defs>
      <use xlink:href="#STIXGeneral-Italic-3ba" transform="translate(0 0.003125)"/>
      <use xlink:href="#STIXGeneral-Regular-3d" transform="translate(58.83999 0.003125)"/>
      <use xlink:href="#STIXGeneral-Italic-6c" transform="translate(141.779971 50.192188) scale(0.7)"/>
      <use xlink:href="#STIXGeneral-Italic-6e" transform="translate(161.239963 50.192188) scale(0.7)"/>
      <use xlink:href="#STIXGeneral-Regular-28" transform="translate(196.239952 50.192188) scale(0.7)"/>
      <use xlink:href="#STIXGeneral-Italic-6e" transform="translate(219.549944 50.192188) scale(0.7)"/>
      <use xlink:href="#STIXGeneral-Regular-29" transform="translate(254.549933 50.192188) scale(0.7)"/>
      <use xlink:href="#STIXGeneral-Italic-6c" transform="translate(141.779971 -41.257812) scale(0.7)"/>
      <use xlink:href="#STIXGeneral-Italic-6e" transform="translate(161.239963 -41.257812) scale(0.7)"/>
      <use xlink:href="#STIXGeneral-Regular-28" transform="translate(196.239952 -41.257812) scale(0.7)"/>
      <use xlink:href="#STIXGeneral-Italic-64" transform="translate(219.549944 -41.257812) scale(0.7)"/>
      <use xlink:href="#STIXGeneral-Regular-29" transform="translate(254.549933 -41.257812) scale(0.7)"/>
      <path d="M 141.779971 12.8 
L 141.779971 19.05 
L 277.859924 19.05 
L 277.859924 12.8 
L 141.779971 12.8 
z
"/>
     </g>
    </g>
   </g>
   <g id="matplotlib.axis_2">
    <g id="ytick_1">
     <g id="line2d_7">
      <path d="M 245.953875 311.6435 
L 603.073875 311.6435 
" clip-path="url(#pe37c9a7ba4)" style="fill: none; stroke: #b0b0b0; stroke-opacity: 0.3; stroke-width: 0.8; stroke-linecap: square"/>
     </g>
     <g id="line2d_8">
      <defs>
       <path id="m8d11b0778b" d="M 0 0 
L -3.5 0 
" style="stroke: #000000; stroke-width: 0.8"/>
      </defs>
      <g>
       <use xlink:href="#m8d11b0778b" x="245.953875" y="311.6435" style="stroke: #000000; stroke-width: 0.8"/>
      </g>
     </g>
     <g id="text_5">
      <!-- 0.00 -->
      <g transform="translate(200.453875 319.281625) scale(0.22 -0.22)">
       <use xlink:href="#TimesNewRomanPSMT-30"/>
       <use xlink:href="#TimesNewRomanPSMT-2e" transform="translate(50 0)"/>
       <use xlink:href="#TimesNewRomanPSMT-30" transform="translate(75 0)"/>
       <use xlink:href="#TimesNewRomanPSMT-30" transform="translate(125 0)"/>
      </g>
     </g>
    </g>
    <g id="ytick_2">
     <g id="line2d_9">
      <path d="M 245.953875 260.547066 
L 603.073875 260.547066 
" clip-path="url(#pe37c9a7ba4)" style="fill: none; stroke: #b0b0b0; stroke-opacity: 0.3; stroke-width: 0.8; stroke-linecap: square"/>
     </g>
     <g id="line2d_10">
      <g>
       <use xlink:href="#m8d11b0778b" x="245.953875" y="260.547066" style="stroke: #000000; stroke-width: 0.8"/>
      </g>
     </g>
     <g id="text_6">
      <!-- 0.05 -->
      <g transform="translate(200.453875 268.185191) scale(0.22 -0.22)">
       <use xlink:href="#TimesNewRomanPSMT-30"/>
       <use xlink:href="#TimesNewRomanPSMT-2e" transform="translate(50 0)"/>
       <use xlink:href="#TimesNewRomanPSMT-30" transform="translate(75 0)"/>
       <use xlink:href="#TimesNewRomanPSMT-35" transform="translate(125 0)"/>
      </g>
     </g>
    </g>
    <g id="ytick_3">
     <g id="line2d_11">
      <path d="M 245.953875 209.450633 
L 603.073875 209.450633 
" clip-path="url(#pe37c9a7ba4)" style="fill: none; stroke: #b0b0b0; stroke-opacity: 0.3; stroke-width: 0.8; stroke-linecap: square"/>
     </g>
     <g id="line2d_12">
      <g>
       <use xlink:href="#m8d11b0778b" x="245.953875" y="209.450633" style="stroke: #000000; stroke-width: 0.8"/>
      </g>
     </g>
     <g id="text_7">
      <!-- 0.10 -->
      <g transform="translate(200.453875 217.088758) scale(0.22 -0.22)">
       <use xlink:href="#TimesNewRomanPSMT-30"/>
       <use xlink:href="#TimesNewRomanPSMT-2e" transform="translate(50 0)"/>
       <use xlink:href="#TimesNewRomanPSMT-31" transform="translate(75 0)"/>
       <use xlink:href="#TimesNewRomanPSMT-30" transform="translate(125 0)"/>
      </g>
     </g>
    </g>
    <g id="ytick_4">
     <g id="line2d_13">
      <path d="M 245.953875 158.354199 
L 603.073875 158.354199 
" clip-path="url(#pe37c9a7ba4)" style="fill: none; stroke: #b0b0b0; stroke-opacity: 0.3; stroke-width: 0.8; stroke-linecap: square"/>
     </g>
     <g id="line2d_14">
      <g>
       <use xlink:href="#m8d11b0778b" x="245.953875" y="158.354199" style="stroke: #000000; stroke-width: 0.8"/>
      </g>
     </g>
     <g id="text_8">
      <!-- 0.15 -->
      <g transform="translate(200.453875 165.992324) scale(0.22 -0.22)">
       <use xlink:href="#TimesNewRomanPSMT-30"/>
       <use xlink:href="#TimesNewRomanPSMT-2e" transform="translate(50 0)"/>
       <use xlink:href="#TimesNewRomanPSMT-31" transform="translate(75 0)"/>
       <use xlink:href="#TimesNewRomanPSMT-35" transform="translate(125 0)"/>
      </g>
     </g>
    </g>
    <g id="ytick_5">
     <g id="line2d_15">
      <path d="M 245.953875 107.257765 
L 603.073875 107.257765 
" clip-path="url(#pe37c9a7ba4)" style="fill: none; stroke: #b0b0b0; stroke-opacity: 0.3; stroke-width: 0.8; stroke-linecap: square"/>
     </g>
     <g id="line2d_16">
      <g>
       <use xlink:href="#m8d11b0778b" x="245.953875" y="107.257765" style="stroke: #000000; stroke-width: 0.8"/>
      </g>
     </g>
     <g id="text_9">
      <!-- 0.20 -->
      <g transform="translate(200.453875 114.89589) scale(0.22 -0.22)">
       <defs>
        <path id="TimesNewRomanPSMT-32" d="M 2934 816 
L 2638 0 
L 138 0 
L 138 116 
Q 1241 1122 1691 1759 
Q 2141 2397 2141 2925 
Q 2141 3328 1894 3587 
Q 1647 3847 1303 3847 
Q 991 3847 742 3664 
Q 494 3481 375 3128 
L 259 3128 
Q 338 3706 661 4015 
Q 984 4325 1469 4325 
Q 1984 4325 2329 3994 
Q 2675 3663 2675 3213 
Q 2675 2891 2525 2569 
Q 2294 2063 1775 1497 
Q 997 647 803 472 
L 1909 472 
Q 2247 472 2383 497 
Q 2519 522 2628 598 
Q 2738 675 2819 816 
L 2934 816 
z
" transform="scale(0.015625)"/>
       </defs>
       <use xlink:href="#TimesNewRomanPSMT-30"/>
       <use xlink:href="#TimesNewRomanPSMT-2e" transform="translate(50 0)"/>
       <use xlink:href="#TimesNewRomanPSMT-32" transform="translate(75 0)"/>
       <use xlink:href="#TimesNewRomanPSMT-30" transform="translate(125 0)"/>
      </g>
     </g>
    </g>
    <g id="ytick_6">
     <g id="line2d_17">
      <path d="M 245.953875 56.161332 
L 603.073875 56.161332 
" clip-path="url(#pe37c9a7ba4)" style="fill: none; stroke: #b0b0b0; stroke-opacity: 0.3; stroke-width: 0.8; stroke-linecap: square"/>
     </g>
     <g id="line2d_18">
      <g>
       <use xlink:href="#m8d11b0778b" x="245.953875" y="56.161332" style="stroke: #000000; stroke-width: 0.8"/>
      </g>
     </g>
     <g id="text_10">
      <!-- 0.25 -->
      <g transform="translate(200.453875 63.799457) scale(0.22 -0.22)">
       <use xlink:href="#TimesNewRomanPSMT-30"/>
       <use xlink:href="#TimesNewRomanPSMT-2e" transform="translate(50 0)"/>
       <use xlink:href="#TimesNewRomanPSMT-32" transform="translate(75 0)"/>
       <use xlink:href="#TimesNewRomanPSMT-35" transform="translate(125 0)"/>
      </g>
     </g>
    </g>
    <g id="text_11">
     <!-- Loss -->
     <g transform="translate(191.747938 199.368906) rotate(-90) scale(0.22 -0.22)">
      <defs>
       <path id="TimesNewRomanPSMT-4c" d="M 3669 1172 
L 3772 1150 
L 3409 0 
L 128 0 
L 128 116 
L 288 116 
Q 556 116 672 291 
Q 738 391 738 753 
L 738 3488 
Q 738 3884 650 3984 
Q 528 4122 288 4122 
L 128 4122 
L 128 4238 
L 2047 4238 
L 2047 4122 
Q 1709 4125 1573 4059 
Q 1438 3994 1388 3894 
Q 1338 3794 1338 3416 
L 1338 753 
Q 1338 494 1388 397 
Q 1425 331 1503 300 
Q 1581 269 1991 269 
L 2300 269 
Q 2788 269 2984 341 
Q 3181 413 3343 595 
Q 3506 778 3669 1172 
z
" transform="scale(0.015625)"/>
       <path id="TimesNewRomanPSMT-6f" d="M 1600 2947 
Q 2250 2947 2644 2453 
Q 2978 2031 2978 1484 
Q 2978 1100 2793 706 
Q 2609 313 2286 112 
Q 1963 -88 1566 -88 
Q 919 -88 538 428 
Q 216 863 216 1403 
Q 216 1797 411 2186 
Q 606 2575 925 2761 
Q 1244 2947 1600 2947 
z
M 1503 2744 
Q 1338 2744 1170 2645 
Q 1003 2547 900 2300 
Q 797 2053 797 1666 
Q 797 1041 1045 587 
Q 1294 134 1700 134 
Q 2003 134 2200 384 
Q 2397 634 2397 1244 
Q 2397 2006 2069 2444 
Q 1847 2744 1503 2744 
z
" transform="scale(0.015625)"/>
       <path id="TimesNewRomanPSMT-73" d="M 2050 2947 
L 2050 1972 
L 1947 1972 
Q 1828 2431 1642 2597 
Q 1456 2763 1169 2763 
Q 950 2763 815 2647 
Q 681 2531 681 2391 
Q 681 2216 781 2091 
Q 878 1963 1175 1819 
L 1631 1597 
Q 2266 1288 2266 781 
Q 2266 391 1970 151 
Q 1675 -88 1309 -88 
Q 1047 -88 709 6 
Q 606 38 541 38 
Q 469 38 428 -44 
L 325 -44 
L 325 978 
L 428 978 
Q 516 541 762 319 
Q 1009 97 1316 97 
Q 1531 97 1667 223 
Q 1803 350 1803 528 
Q 1803 744 1651 891 
Q 1500 1038 1047 1263 
Q 594 1488 453 1669 
Q 313 1847 313 2119 
Q 313 2472 555 2709 
Q 797 2947 1181 2947 
Q 1350 2947 1591 2875 
Q 1750 2828 1803 2828 
Q 1853 2828 1881 2850 
Q 1909 2872 1947 2947 
L 2050 2947 
z
" transform="scale(0.015625)"/>
      </defs>
      <use xlink:href="#TimesNewRomanPSMT-4c"/>
      <use xlink:href="#TimesNewRomanPSMT-6f" transform="translate(61.083984 0)"/>
      <use xlink:href="#TimesNewRomanPSMT-73" transform="translate(111.083984 0)"/>
      <use xlink:href="#TimesNewRomanPSMT-73" transform="translate(150 0)"/>
     </g>
    </g>
   </g>
   <g id="line2d_19">
    <path d="M 245.953875 56.228898 
L 333.368412 60.597165 
L 356.937327 64.364599 
L 371.132734 67.190825 
L 381.323126 67.125269 
L 389.278071 66.475935 
L 395.804041 68.605302 
L 401.337075 69.658236 
L 406.139805 71.250666 
L 410.382729 73.505998 
L 414.182831 73.800521 
L 417.623871 74.768728 
L 420.767883 74.180915 
L 423.662095 73.800095 
L 426.343298 76.179717 
L 428.840706 78.801447 
L 431.177911 77.953115 
L 433.374231 76.972102 
L 435.445691 76.863542 
L 437.405727 81.895198 
L 439.265716 78.741526 
L 441.035378 79.947577 
L 442.72308 82.388583 
L 444.336081 83.209094 
L 445.880713 80.541984 
L 447.362537 86.203726 
L 448.786462 83.074555 
L 450.156844 83.033805 
L 451.477562 81.519114 
L 452.752093 83.25263 
L 453.983556 86.007666 
L 455.174768 86.747972 
L 456.328277 89.972911 
L 457.446396 86.922758 
L 458.531233 86.68869 
L 459.584712 88.720917 
L 460.608595 91.039247 
L 461.604499 88.430566 
L 462.573914 88.156753 
L 463.518211 91.281812 
L 464.43866 92.425643 
L 465.336435 91.580249 
L 467.068249 90.362731 
L 467.904244 93.00304 
L 468.721494 94.214954 
L 469.520821 92.957508 
L 470.302993 92.281404 
L 471.068732 95.385662 
L 471.818713 96.252587 
L 472.553573 95.520596 
L 473.273909 97.32943 
L 473.980284 95.857286 
L 474.67323 94.974218 
L 475.353246 96.505599 
L 476.676361 98.031407 
L 477.320332 99.191135 
L 477.953122 96.277972 
L 478.575114 95.795643 
L 479.186669 96.506924 
L 479.788131 100.639965 
L 480.37983 100.701715 
L 480.962075 96.719826 
L 481.535166 101.252935 
L 482.099385 103.095057 
L 482.655002 98.792529 
L 483.202277 104.449246 
L 483.741456 101.064779 
L 484.272774 102.085217 
L 484.796459 102.771083 
L 485.312725 103.894888 
L 485.821781 102.877663 
L 486.323825 102.60985 
L 486.819047 103.455076 
L 487.307631 105.799643 
L 487.789752 101.494785 
L 488.265579 104.554455 
L 488.735273 106.834091 
L 489.198992 107.512145 
L 489.656885 102.440378 
L 490.109097 107.453746 
L 490.555767 105.178115 
L 490.997029 107.319999 
L 491.433013 107.357627 
L 491.863843 103.294634 
L 492.28964 106.967366 
L 492.71052 108.80294 
L 493.126595 107.435853 
L 493.537974 109.882737 
L 494.34706 108.245369 
L 494.744965 109.06087 
L 495.138574 107.438822 
L 495.527977 111.129919 
L 496.294521 109.683799 
L 496.671831 111.638486 
L 497.045274 112.684202 
L 497.414931 111.68187 
L 497.780876 111.079971 
L 498.143183 112.494615 
L 498.501924 111.877945 
L 498.857168 113.785044 
L 499.208984 111.599228 
L 499.557436 116.145479 
L 499.902588 117.407783 
L 500.244502 110.327011 
L 500.583239 114.44787 
L 500.918856 111.980718 
L 501.251412 112.111389 
L 501.907555 115.232321 
L 502.23125 111.486206 
L 502.552096 116.493666 
L 502.870141 116.675304 
L 503.185436 118.448581 
L 503.498026 118.517091 
L 503.807958 118.200533 
L 504.115277 115.65616 
L 504.420026 116.412866 
L 504.722248 120.468382 
L 505.021985 121.116254 
L 505.319277 120.64227 
L 505.614164 120.652594 
L 505.906684 120.966366 
L 506.196875 118.4004 
L 506.484774 119.394463 
L 506.770416 119.968358 
L 507.053837 119.656307 
L 507.335072 118.695989 
L 507.614153 118.992233 
L 507.891113 118.236776 
L 508.165985 120.073872 
L 508.438799 117.716209 
L 508.709586 123.927161 
L 508.978376 121.768847 
L 509.245199 122.394897 
L 509.510082 122.381344 
L 509.773054 127.251615 
L 510.034143 123.206546 
L 510.293374 124.138723 
L 510.550775 126.097643 
L 511.060187 124.910474 
L 511.312247 122.024128 
L 511.562576 123.352688 
L 512.058135 126.683004 
L 512.303411 123.698164 
L 512.789065 126.284018 
L 513.029486 128.474646 
L 513.268332 125.670302 
L 513.505624 127.224388 
L 513.74138 125.81914 
L 513.975621 127.681621 
L 514.208366 127.091844 
L 514.669445 131.060758 
L 514.897815 127.023455 
L 515.124764 130.642508 
L 515.350308 126.351355 
L 515.574465 129.231519 
L 515.797251 126.67102 
L 516.018685 127.50312 
L 516.238781 130.157301 
L 516.457556 127.103584 
L 516.675025 126.872699 
L 517.10611 130.778661 
L 517.319755 128.626225 
L 517.532156 132.238029 
L 517.743325 126.76519 
L 517.953279 130.685969 
L 518.16203 130.301738 
L 518.369592 130.824071 
L 518.575978 130.714887 
L 518.781203 129.93272 
L 518.985278 129.930481 
L 519.188218 133.907862 
L 519.390033 131.32245 
L 519.590737 132.739211 
L 519.790342 131.038404 
L 520.186303 134.482915 
L 520.382681 131.505673 
L 520.578008 131.79849 
L 520.965548 134.912449 
L 521.157783 133.832545 
L 521.34901 134.664964 
L 521.539239 134.691796 
L 521.728481 133.339633 
L 521.916744 137.948683 
L 522.29038 132.113465 
L 522.475771 135.460654 
L 522.660223 135.117097 
L 522.843747 137.223408 
L 523.026352 136.921042 
L 523.208046 137.38423 
L 523.56874 140.294317 
L 523.747757 138.858537 
L 523.925899 132.929545 
L 524.279592 139.04916 
L 524.45516 138.10276 
L 524.629886 133.580279 
L 524.976845 137.286101 
L 525.149094 138.303738 
L 525.320532 136.814675 
L 525.491169 140.74453 
L 525.661009 139.70792 
L 525.830063 140.337442 
L 525.998335 142.344894 
L 526.165835 138.575724 
L 526.332568 139.994311 
L 526.498541 142.480651 
L 526.663763 138.208898 
L 526.828239 141.529682 
L 526.991976 138.889373 
L 527.15498 138.5571 
L 527.317259 141.365205 
L 527.478819 140.475514 
L 527.799806 143.348018 
L 527.959245 142.385278 
L 528.11799 144.962315 
L 528.433421 142.248958 
L 528.590118 145.183348 
L 528.746145 141.872691 
L 528.901507 141.899249 
L 529.210257 143.943643 
L 529.363657 143.990256 
L 529.516414 144.974741 
L 529.668534 142.568836 
L 529.820021 142.605383 
L 530.12112 148.215563 
L 530.270742 142.35132 
L 530.568155 145.51116 
L 530.715956 143.620826 
L 530.863161 144.50065 
L 531.009773 148.585206 
L 531.155798 144.566511 
L 531.30124 144.272916 
L 531.446105 147.269924 
L 531.590395 145.156958 
L 531.734117 146.64532 
L 531.877274 144.617494 
L 532.019872 145.809779 
L 532.161913 152.237973 
L 532.303403 147.998169 
L 532.444346 149.5546 
L 532.584746 146.367609 
L 532.724607 148.637574 
L 532.863934 146.33863 
L 533.00273 146.554227 
L 533.140999 152.180808 
L 533.278746 150.942519 
L 533.415974 146.712338 
L 533.552688 149.657693 
L 533.688891 147.211616 
L 533.959778 151.649353 
L 534.228668 149.723523 
L 534.362372 144.871222 
L 534.628319 149.974129 
L 534.760568 148.841613 
L 534.892339 155.542463 
L 535.023635 150.15391 
L 535.15446 149.697362 
L 535.284817 156.47225 
L 535.414709 149.874097 
L 535.54414 152.293738 
L 535.673114 150.422911 
L 535.929699 151.909157 
L 536.057317 149.337008 
L 536.18449 152.847715 
L 536.437513 150.506041 
L 536.563369 150.53007 
L 536.813784 155.50016 
L 537.062491 152.856379 
L 537.18621 155.529931 
L 537.309511 152.550755 
L 537.554869 156.831309 
L 537.676932 151.546747 
L 537.919837 154.991319 
L 538.161134 152.144839 
L 538.400844 157.324328 
L 538.520111 156.701232 
L 538.638988 153.18917 
L 538.875586 160.09144 
L 539.110658 158.302387 
L 539.227628 161.366428 
L 539.460448 155.522956 
L 539.576302 156.892632 
L 539.691789 156.675725 
L 539.806912 157.926532 
L 539.921672 157.691184 
L 540.150114 157.728767 
L 540.2638 156.686217 
L 540.377133 158.13284 
L 540.490115 156.155387 
L 540.715032 160.378151 
L 540.826973 156.159484 
L 540.93857 161.063271 
L 541.049827 156.059543 
L 541.160746 159.113244 
L 541.271328 158.484178 
L 541.381575 163.686585 
L 541.49149 161.943552 
L 541.601075 157.084549 
L 541.710331 162.603469 
L 542.144109 159.725757 
L 542.251752 162.62992 
L 542.359078 162.494239 
L 542.572786 160.385948 
L 542.679171 160.839025 
L 542.785248 160.082242 
L 542.891016 164.358061 
L 542.996479 161.607273 
L 543.101637 164.017245 
L 543.206492 163.949541 
L 543.311047 159.998824 
L 543.519261 163.607903 
L 543.622924 163.193383 
L 543.726293 163.417401 
L 543.829369 161.938846 
L 544.034652 164.933433 
L 544.136861 164.175752 
L 544.238784 160.541608 
L 544.44178 165.821982 
L 544.542855 164.289261 
L 544.643651 159.777653 
L 544.744169 166.188777 
L 544.844411 164.598205 
L 544.944377 168.234694 
L 545.04407 167.272975 
L 545.143492 165.159506 
L 545.242642 167.732325 
L 545.341524 164.51972 
L 545.440138 164.561491 
L 545.538486 164.825451 
L 545.63657 166.774991 
L 545.73439 164.046406 
L 545.831948 167.178227 
L 545.929246 165.683743 
L 546.123067 166.879211 
L 546.219591 165.015313 
L 546.315861 166.576982 
L 546.411878 170.352381 
L 546.507642 166.786001 
L 546.698418 170.290083 
L 546.888202 167.182841 
L 546.982724 167.506815 
L 547.077002 168.296398 
L 547.171036 166.602215 
L 547.264829 171.074123 
L 547.358381 170.524867 
L 547.451693 169.015491 
L 547.544767 169.449867 
L 547.637604 169.007542 
L 547.730205 171.383387 
L 547.822572 171.204231 
L 547.914705 166.258841 
L 548.098275 170.937788 
L 548.189715 170.592083 
L 548.371908 169.264391 
L 548.553196 172.738033 
L 548.643503 170.061999 
L 549.002509 174.234116 
L 549.180694 168.683674 
L 549.269461 175.041531 
L 549.358013 170.367045 
L 549.44635 171.063114 
L 549.534473 175.545118 
L 549.710083 171.846331 
L 549.797572 173.554889 
L 549.971922 172.55609 
L 550.058785 175.570868 
L 550.145442 173.571701 
L 550.231893 176.566912 
L 550.318139 174.562886 
L 550.404182 175.81584 
L 550.490023 170.125454 
L 550.575661 171.445076 
L 550.746337 174.857608 
L 550.831377 173.43002 
L 550.916218 178.570967 
L 551.08531 172.690796 
L 551.169563 177.008156 
L 551.253622 176.568907 
L 551.421159 170.98769 
L 551.50464 175.939323 
L 551.587931 171.99954 
L 551.753942 174.941529 
L 551.836665 174.670045 
L 551.919201 177.468268 
L 552.00155 177.362342 
L 552.083714 174.892343 
L 552.165693 178.427536 
L 552.247488 175.583188 
L 552.3291 176.338965 
L 552.410529 180.208045 
L 552.491777 175.903568 
L 552.572844 177.811596 
L 552.653731 174.345249 
L 552.73444 175.326795 
L 552.814969 175.620709 
L 553.055497 180.861826 
L 553.135321 179.690189 
L 553.214971 178.189234 
L 553.294447 181.909172 
L 553.373751 180.790559 
L 553.452882 177.986337 
L 553.531841 181.733472 
L 553.61063 177.530428 
L 553.689249 178.260851 
L 553.845981 181.922816 
L 553.924094 175.759466 
L 554.002041 177.371327 
L 554.079821 181.819403 
L 554.157436 178.668868 
L 554.234885 184.355294 
L 554.389293 180.370192 
L 554.466252 180.981015 
L 554.543048 180.678801 
L 554.619684 179.476465 
L 554.772473 182.630275 
L 554.848628 180.882277 
L 554.924624 182.845004 
L 555.000462 180.296824 
L 555.227034 185.103899 
L 555.526956 179.881345 
L 555.601553 184.759953 
L 555.675997 183.652891 
L 555.750289 180.087014 
L 555.82443 180.911484 
L 555.898421 183.802825 
L 555.972262 183.662957 
L 556.045953 180.976675 
L 556.266138 184.645927 
L 556.412192 181.218829 
L 556.557663 185.744583 
L 556.630182 185.455047 
L 556.702556 184.409376 
L 556.774787 181.671114 
L 556.846875 184.208794 
L 556.918821 184.175894 
L 556.990626 181.39223 
L 557.062289 185.850494 
L 557.133811 184.100211 
L 557.205193 181.899563 
L 557.276436 187.793318 
L 557.34754 184.576723 
L 557.489332 187.212814 
L 557.630576 189.655579 
L 557.771274 184.980195 
L 557.981308 187.433406 
L 558.051051 185.399899 
L 558.120661 185.489089 
L 558.190138 185.907888 
L 558.259483 185.493422 
L 558.328697 187.116246 
L 558.466731 184.931397 
L 558.604244 187.689387 
L 558.672806 185.521334 
L 558.74124 189.98307 
L 558.809545 186.35954 
L 558.877723 187.079555 
L 558.945773 186.945709 
L 559.013697 189.749794 
L 559.081494 187.278028 
L 559.149166 188.090278 
L 559.216712 188.403478 
L 559.284133 186.363104 
L 559.418602 189.155463 
L 559.48565 188.865288 
L 559.552576 188.92272 
L 559.619379 187.132022 
L 559.68606 187.223565 
L 559.885374 191.889903 
L 559.951571 192.214799 
L 560.083604 187.63781 
L 560.149442 191.102902 
L 560.215161 189.947034 
L 560.41161 185.748261 
L 560.607006 192.755139 
L 560.671906 189.563336 
L 560.736691 190.385933 
L 560.80136 193.464577 
L 560.865915 192.440233 
L 560.930356 192.747555 
L 560.994684 189.714457 
L 561.058897 190.965409 
L 561.122998 195.205639 
L 561.186987 192.265805 
L 561.250863 192.222976 
L 561.314628 196.222804 
L 561.378281 190.267018 
L 561.441823 193.983697 
L 561.568576 189.679251 
L 561.631788 194.257221 
L 561.69489 193.101369 
L 561.757883 193.578383 
L 561.820767 190.882013 
L 561.883543 195.597461 
L 561.946211 193.933468 
L 562.008772 190.091607 
L 562.071225 196.533842 
L 562.133572 195.871815 
L 562.195812 195.106627 
L 562.257946 196.253808 
L 562.381897 192.326777 
L 562.505428 197.285142 
L 562.628542 193.665418 
L 562.689943 195.731802 
L 562.751241 196.588038 
L 562.812436 193.886612 
L 562.873529 197.561056 
L 562.934519 194.051896 
L 562.995407 195.950231 
L 563.056194 194.189084 
L 563.11688 198.361322 
L 563.177465 195.673989 
L 563.237949 195.037188 
L 563.298333 191.982588 
L 563.418802 197.344675 
L 563.538873 193.485402 
L 563.718243 197.984735 
L 563.896734 195.755299 
L 563.956037 197.732089 
L 564.13337 195.425272 
L 564.251115 199.502411 
L 564.309845 196.43751 
L 564.36848 201.568117 
L 564.427021 198.862374 
L 564.485469 199.156212 
L 564.543822 198.994651 
L 564.718325 196.572239 
L 564.776308 197.735934 
L 564.834198 197.770364 
L 565.00732 200.48762 
L 565.064845 199.93608 
L 565.122279 199.753345 
L 565.179623 198.729861 
L 565.236877 199.374786 
L 565.351115 201.55027 
L 565.464997 198.356951 
L 565.521805 201.282837 
L 565.578524 198.018694 
L 565.635155 201.813386 
L 565.691698 197.971434 
L 565.748154 199.097379 
L 565.804522 200.064687 
L 565.860804 197.185658 
L 565.973106 202.67106 
L 566.029128 199.85311 
L 566.085064 203.374126 
L 566.140914 203.219212 
L 566.196679 200.943772 
L 566.252358 202.102229 
L 566.307953 201.895852 
L 566.418888 199.568439 
L 566.47423 204.711366 
L 566.529487 200.90405 
L 566.584661 200.541588 
L 566.749683 202.538654 
L 566.804524 202.598728 
L 566.859284 202.954939 
L 567.02307 198.375629 
L 567.131853 204.163724 
L 567.186123 202.854785 
L 567.294421 205.121766 
L 567.34845 204.083709 
L 567.510057 201.574833 
L 567.563768 206.225692 
L 567.617399 202.376667 
L 567.670951 204.897733 
L 567.724425 203.122728 
L 567.831138 205.153425 
L 567.884378 203.459593 
L 568.043631 206.790831 
L 568.096562 205.994418 
L 568.202192 201.785435 
L 568.254893 207.237823 
L 568.307517 207.081387 
L 568.360066 206.107028 
L 568.412539 202.241945 
L 568.464937 203.890383 
L 568.569507 207.246321 
L 568.673777 204.194165 
L 568.725801 205.057801 
L 568.829626 206.748565 
L 568.881428 206.024797 
L 569.036393 203.571449 
L 569.190703 211.452547 
L 569.241994 205.155275 
L 569.344361 205.770537 
L 569.395437 206.860338 
L 569.446442 205.409605 
L 569.497375 207.54009 
L 569.548237 205.510314 
L 569.700399 208.008364 
L 569.750979 206.930219 
L 569.801488 207.99156 
L 569.851928 208.201858 
L 569.902298 206.962563 
L 569.952599 208.181658 
L 570.00283 209.448324 
L 570.052992 207.982271 
L 570.103085 206.29255 
L 570.15311 212.255752 
L 570.203065 208.047599 
L 570.252953 207.580612 
L 570.302772 211.069192 
L 570.352524 208.202482 
L 570.402207 207.00342 
L 570.550852 210.38622 
L 570.698894 208.248562 
L 570.797255 211.022412 
L 570.846337 207.400442 
L 570.944301 208.291306 
L 570.993185 212.044982 
L 571.090757 211.683646 
L 571.139445 210.670395 
L 571.188068 211.556432 
L 571.285119 212.967513 
L 571.430214 209.92342 
L 571.478451 210.826398 
L 571.526624 208.816913 
L 571.574734 210.106384 
L 571.62278 212.224839 
L 571.670763 210.337521 
L 571.718683 209.635011 
L 571.766539 212.945196 
L 571.814334 210.338769 
L 571.862065 210.221697 
L 571.909734 211.452357 
L 571.957341 210.718896 
L 572.004886 210.432733 
L 572.09979 214.441629 
L 572.147149 210.504244 
L 572.194447 211.901999 
L 572.241684 215.881657 
L 572.288859 214.803079 
L 572.335974 212.580617 
L 572.383027 212.880066 
L 572.43002 213.895837 
L 572.476953 213.613763 
L 572.523825 213.46245 
L 572.617389 214.773377 
L 572.664081 211.77461 
L 572.710713 216.569686 
L 572.757286 213.833913 
L 572.803799 211.095216 
L 572.850253 213.233065 
L 572.942984 211.630737 
L 572.989261 211.794216 
L 573.081639 215.579337 
L 573.12774 214.019815 
L 573.173784 212.723302 
L 573.219769 213.861795 
L 573.265696 213.98521 
L 573.311565 213.431332 
L 573.403131 216.856907 
L 573.448828 215.560858 
L 573.585576 213.835063 
L 573.676457 215.330749 
L 573.721812 214.5005 
L 573.767111 217.239965 
L 573.857541 216.31793 
L 573.947748 215.086745 
L 573.992767 216.801363 
L 574.037731 216.076971 
L 574.127493 213.344746 
L 574.172291 217.996001 
L 574.261723 216.353845 
L 574.306356 218.486089 
L 574.350935 216.700387 
L 574.484346 218.711493 
L 574.61727 215.632346 
L 574.749711 217.315283 
L 574.793752 216.120096 
L 574.837739 220.4654 
L 574.881673 215.621823 
L 574.925554 219.60509 
L 575.013159 215.20556 
L 575.100553 217.507512 
L 575.144172 219.509817 
L 575.187738 218.961733 
L 575.231253 215.121449 
L 575.274716 216.612803 
L 575.404793 220.006582 
L 575.491255 219.168711 
L 575.534409 219.21888 
L 575.620564 218.275419 
L 575.663565 220.246749 
L 575.706515 220.09597 
L 575.835064 218.237539 
L 575.877813 220.825944 
L 575.920512 219.805132 
L 575.963161 219.124269 
L 576.00576 222.447497 
L 576.048309 218.371926 
L 576.090809 220.861493 
L 576.17566 219.556293 
L 576.218012 220.687438 
L 576.302568 223.524728 
L 576.344772 219.00141 
L 576.429035 221.14174 
L 576.471093 219.565368 
L 576.513103 221.097077 
L 576.555064 221.584622 
L 576.596978 218.923146 
L 576.638843 222.221118 
L 576.68066 220.155519 
L 576.805824 222.836349 
L 576.84745 222.643587 
L 576.889029 223.581436 
L 576.93056 222.43166 
L 577.013481 221.956967 
L 577.096213 220.355614 
L 577.219961 224.097572 
L 577.34329 219.505408 
L 577.425278 224.261279 
L 577.466203 222.281025 
L 577.547915 221.972195 
L 577.588703 222.404204 
L 577.629445 221.969066 
L 577.670141 221.082191 
L 577.710793 222.42081 
L 577.751398 226.135403 
L 577.832475 223.610065 
L 577.913371 225.660086 
L 577.994088 226.098856 
L 578.034379 222.365943 
L 578.114829 224.963447 
L 578.154988 224.34469 
L 578.275198 221.24197 
L 578.31518 227.185437 
L 578.355119 222.833113 
L 578.395013 222.236506 
L 578.434865 223.035485 
L 578.554157 225.788138 
L 578.593835 225.488087 
L 578.633469 225.211327 
L 578.712609 227.970101 
L 578.752114 222.802604 
L 578.830997 224.34268 
L 578.870374 227.126071 
L 578.909709 224.294415 
L 578.949002 226.063573 
L 578.988252 224.487825 
L 579.02746 228.258708 
L 579.10575 226.289311 
L 579.144832 226.657294 
L 579.183872 226.075473 
L 579.22287 226.153966 
L 579.261827 226.543298 
L 579.300742 229.111982 
L 579.339615 225.449522 
L 579.378447 226.927993 
L 579.417238 223.769707 
L 579.455988 227.529801 
L 579.494696 226.371481 
L 579.533363 225.966929 
L 579.57199 228.627277 
L 579.610575 226.280723 
L 579.64912 225.608471 
L 579.687624 225.966312 
L 579.802892 229.40761 
L 579.879535 225.680096 
L 579.956018 226.667421 
L 580.108503 230.002968 
L 580.146525 227.028871 
L 580.22245 229.577363 
L 580.260354 228.438147 
L 580.298217 230.858998 
L 580.336042 227.523839 
L 580.373827 228.611463 
L 580.486949 226.595705 
L 580.524578 227.026381 
L 580.712145 231.314108 
L 580.898751 228.776473 
L 580.935957 231.888071 
L 580.973126 229.408082 
L 581.010257 228.182378 
L 581.04735 228.985172 
L 581.121424 232.202017 
L 581.232252 231.325704 
L 581.26912 227.677573 
L 581.305951 228.522152 
L 581.452904 233.384671 
L 581.526158 228.597484 
L 581.56273 232.954772 
L 581.635765 230.18383 
L 581.672227 235.334409 
L 581.708653 229.918354 
L 581.745042 232.53088 
L 581.853994 229.7793 
L 581.96262 234.822096 
L 582.106954 230.762255 
L 582.178907 235.624059 
L 582.21483 234.377303 
L 582.250718 231.881104 
L 582.286571 234.428584 
L 582.322388 234.664989 
L 582.35817 231.310757 
L 582.393917 235.193452 
L 582.465307 231.42984 
L 582.536556 234.103269 
L 582.572129 232.765755 
L 582.607667 232.477133 
L 582.714074 234.50017 
L 582.749474 233.908367 
L 582.784839 231.482825 
L 582.820171 232.987337 
L 582.855468 235.035409 
L 582.925959 233.197703 
L 582.961154 233.003311 
L 582.996315 231.156377 
L 583.031442 233.005336 
L 583.066535 232.589994 
L 583.101595 232.077567 
L 583.206571 234.744365 
L 583.241496 231.905347 
L 583.311246 233.736916 
L 583.346071 235.057824 
L 583.415621 234.988354 
L 583.450347 232.602542 
L 583.519698 234.88514 
L 583.554325 236.110622 
L 583.623479 234.805642 
L 583.692503 234.680568 
L 583.726965 237.307613 
L 583.795793 238.424056 
L 583.830158 233.300644 
L 583.967296 236.855557 
L 584.0015 234.723366 
L 584.069812 237.118216 
L 584.137996 238.277609 
L 584.172041 234.750304 
L 584.3079 237.937752 
L 584.375641 234.258716 
L 584.443256 236.031064 
L 584.477016 235.426911 
L 584.510746 236.731914 
L 584.544444 237.107358 
L 584.57811 235.711155 
L 584.645351 236.171595 
L 584.712468 238.341208 
L 584.779461 235.352644 
L 584.812912 236.786353 
L 584.846332 238.845496 
L 584.91308 238.627303 
L 584.946408 236.500152 
L 585.012974 238.768298 
L 585.079417 237.786112 
L 585.112594 238.346508 
L 585.14574 238.542118 
L 585.211943 236.902314 
L 585.244999 238.121081 
L 585.278025 239.505147 
L 585.311022 236.887474 
L 585.343988 238.408873 
L 585.376925 236.703148 
L 585.442709 238.411066 
L 585.475557 240.336493 
L 585.541164 238.532798 
L 585.606653 239.834717 
L 585.704666 236.042637 
L 585.737278 237.487005 
L 585.802416 240.717571 
L 585.867437 240.079689 
L 585.899905 237.109064 
L 585.932343 240.727561 
L 585.964753 239.577396 
L 585.997133 238.801229 
L 586.029485 239.139997 
L 586.094103 240.661685 
L 586.126369 240.529644 
L 586.158607 237.888307 
L 586.190816 241.975131 
L 586.222997 238.429256 
L 586.255149 242.893977 
L 586.351436 241.106317 
L 586.447469 241.250016 
L 586.479424 239.070215 
L 586.54325 242.721041 
L 586.63878 242.034794 
L 586.73406 240.35083 
L 586.765765 240.966556 
L 586.829092 242.239503 
L 586.955416 238.994494 
L 587.112709 243.406069 
L 587.144086 240.581441 
L 587.175436 244.336777 
L 587.20676 241.968789 
L 587.238056 242.285225 
L 587.269325 241.508959 
L 587.331784 242.269152 
L 587.362973 241.665487 
L 587.394136 242.590568 
L 587.425272 241.933338 
L 587.456381 242.081674 
L 587.487464 240.363362 
L 587.518521 244.131801 
L 587.549551 242.318666 
L 587.611531 244.61908 
L 587.642482 243.584175 
L 587.766024 242.16976 
L 587.796844 243.871526 
L 587.858406 241.70913 
L 587.889148 243.453458 
L 587.919864 244.357677 
L 587.950554 242.241696 
L 587.981219 241.038096 
L 588.011858 246.26898 
L 588.103619 245.441372 
L 588.164666 241.959797 
L 588.22561 244.00576 
L 588.256044 244.428365 
L 588.286453 243.564181 
L 588.316836 242.492828 
L 588.347194 244.202573 
L 588.438117 246.818875 
L 588.468374 245.252295 
L 588.498606 243.782389 
L 588.558995 245.56545 
L 588.619284 246.258701 
L 588.649391 243.405696 
L 588.709531 246.702313 
L 588.739564 243.976857 
L 588.769572 248.212219 
L 588.859448 245.769656 
L 588.919243 243.975784 
L 588.978939 244.175627 
L 589.038539 246.833326 
L 589.127755 245.362355 
L 589.157445 244.764864 
L 589.187111 245.926016 
L 589.216753 246.508005 
L 589.246371 245.006813 
L 589.275965 243.141598 
L 589.335081 243.839973 
L 589.453025 246.879482 
L 589.482452 244.042292 
L 589.541234 247.45439 
L 589.629229 245.763824 
L 589.687775 246.356982 
L 589.746227 247.60708 
L 589.775418 246.673768 
L 589.804586 249.961504 
L 589.83373 246.268629 
L 589.891949 247.802957 
L 589.921023 249.36999 
L 589.950075 247.470364 
L 590.008108 248.31417 
L 590.066049 245.958094 
L 590.094985 251.283299 
L 590.181655 248.22206 
L 590.239321 246.780219 
L 590.296896 247.287073 
L 590.32565 248.986269 
L 590.383088 246.186947 
L 590.411774 247.969094 
L 590.440437 247.610392 
L 590.469077 249.945922 
L 590.526291 249.7069 
L 590.554864 247.584512 
L 590.611943 248.581945 
L 590.668932 250.90774 
L 590.697394 250.457706 
L 590.811018 248.145441 
L 590.924289 251.594855 
L 591.037209 247.910417 
L 591.065385 249.466086 
L 591.093539 249.152254 
L 591.121671 249.225397 
L 591.177869 250.634882 
L 591.205936 247.974206 
L 591.262006 250.290335 
L 591.317989 249.290497 
L 591.345948 246.423954 
L 591.373886 251.742314 
L 591.401803 247.750215 
L 591.429698 252.288612 
L 591.513255 249.843305 
L 591.541065 249.033647 
L 591.568854 250.108727 
L 591.596622 249.199095 
L 591.679798 252.447683 
L 591.652093 249.195699 
L 591.735143 250.701048 
L 591.790405 250.132928 
L 591.873141 251.368701 
L 591.983163 249.01237 
L 591.928193 252.15367 
L 592.010617 249.923754 
L 592.065463 252.133668 
L 592.092855 251.516397 
L 592.120226 249.735567 
L 592.174908 252.000386 
L 592.202218 252.927462 
L 592.229507 251.088492 
L 592.256776 251.404094 
L 592.284025 250.820747 
L 592.311253 251.365153 
L 592.338461 253.02808 
L 592.365649 251.05708 
L 592.419963 251.782992 
L 592.44709 251.338805 
L 592.474197 253.867063 
L 592.555397 252.958077 
L 592.609429 252.273636 
L 592.636416 252.64501 
L 592.663382 254.850554 
L 592.717255 252.328467 
L 592.744162 253.765081 
L 592.85159 252.840194 
L 592.905186 253.893997 
L 592.931954 251.318003 
L 592.985432 254.40521 
L 593.012142 253.205626 
L 593.065502 252.28707 
L 593.171989 256.3177 
L 593.198562 254.703293 
L 593.225116 254.651917 
L 593.25165 250.907592 
L 593.331138 253.232271 
L 593.384034 252.843929 
L 593.436853 256.895379 
L 593.489596 252.325171 
L 593.542262 253.806825 
L 593.647367 255.720434 
L 593.673596 255.106528 
L 593.699806 255.523613 
L 593.725998 254.423453 
L 593.75217 253.904219 
L 593.778324 254.255946 
L 593.856672 253.637707 
L 593.882751 256.119581 
L 593.908811 254.159222 
L 593.98688 254.957534 
L 594.012866 256.324895 
L 594.090713 255.47193 
L 594.116625 255.407717 
L 594.168394 256.292464 
L 594.19425 254.947476 
L 594.220089 255.920807 
L 594.297495 255.932928 
L 594.349007 254.829228 
L 594.400447 257.666422 
L 594.477471 256.532627 
L 594.50311 256.621349 
L 594.554333 254.991329 
L 594.605484 256.485116 
L 594.631033 257.876845 
L 594.707572 256.040681 
L 594.733049 256.405854 
L 594.758509 254.824393 
L 594.809374 258.351412 
L 594.910893 256.334675 
L 594.860169 258.726434 
L 594.936229 256.806159 
L 594.986847 256.2856 
L 595.037395 257.651118 
L 595.113086 259.007355 
L 595.138282 255.403229 
L 595.263999 258.664399 
L 595.28909 257.04408 
L 595.339221 257.565244 
L 595.364261 260.197817 
L 595.439277 257.548573 
L 595.464248 256.063801 
L 595.514139 258.476144 
L 595.539059 257.388531 
L 595.663403 259.203045 
L 595.588847 257.208907 
L 595.688221 259.137257 
L 595.713022 257.923671 
L 595.737807 260.049851 
L 595.787325 258.363956 
L 595.812059 260.152925 
L 595.836776 256.03381 
L 595.910826 259.888347 
L 595.96011 260.181729 
L 596.033911 257.671436 
L 596.181066 261.042209 
L 596.205534 259.524168 
L 596.229986 258.58395 
L 596.254421 261.183958 
L 596.27884 260.353637 
L 596.303243 261.01261 
L 596.327629 259.016256 
L 596.376353 260.100613 
L 596.40069 257.691099 
L 596.449317 260.674775 
L 596.497878 258.457555 
L 596.546375 260.538058 
L 596.594807 258.222698 
L 596.618999 259.623256 
L 596.643175 259.122756 
L 596.691479 262.54589 
L 596.763816 260.481513 
L 596.81196 260.803972 
L 596.836008 260.330456 
L 596.860041 260.172619 
L 596.884058 261.034683 
L 596.908059 259.955366 
L 596.932044 258.350384 
L 596.956013 261.284729 
L 597.003905 260.408857 
L 597.027827 262.648154 
L 597.051733 259.12938 
L 597.099499 261.233563 
L 597.123359 259.323239 
L 597.194844 262.092605 
L 597.218641 260.305459 
L 597.242422 260.02195 
L 597.266189 260.995871 
L 597.313675 262.974964 
L 597.384788 262.778368 
L 597.47939 260.540023 
L 597.455762 263.437326 
L 597.503002 261.320385 
L 597.55018 259.453042 
L 597.573747 260.237501 
L 597.691351 263.656893 
L 597.761731 260.474409 
L 597.785161 262.47395 
L 597.808576 263.614521 
L 597.855361 261.545998 
L 597.878731 259.748182 
L 597.902086 262.59706 
L 597.948751 261.522985 
L 598.018637 263.638837 
L 598.065153 262.340036 
L 598.088389 262.590737 
L 598.11161 264.163176 
L 598.134817 262.519767 
L 598.158008 263.233001 
L 598.181185 261.306962 
L 598.250627 263.372363 
L 598.273745 262.525268 
L 598.343011 265.024543 
L 598.389115 263.614879 
L 598.458163 264.199434 
L 598.504122 261.170063 
L 598.572952 264.069372 
L 598.641652 263.960884 
L 598.710223 262.381905 
L 598.778665 262.936468 
L 598.960552 265.242626 
L 598.983224 263.514775 
L 599.051156 263.668885 
L 599.164096 266.268337 
L 599.254196 261.337429 
L 599.276686 267.148911 
L 599.366509 265.259899 
L 599.433731 266.054164 
L 599.500829 262.87489 
L 599.545493 264.612868 
L 599.590102 266.963667 
L 599.656913 265.635994 
L 599.679157 264.884203 
L 599.701386 266.120162 
L 599.745805 265.757208 
L 599.767994 266.786544 
L 599.79017 264.371955 
L 599.83448 265.11373 
L 599.878737 264.400206 
L 600.011187 266.747731 
L 600.143156 265.090458 
L 600.208962 266.341222 
L 600.230871 268.452509 
L 600.27465 265.060615 
L 600.296519 266.954154 
L 600.318376 265.498513 
L 600.383866 266.984625 
L 600.405671 265.775615 
L 600.471005 265.149732 
L 600.536222 267.180833 
L 600.557935 266.009756 
L 600.579636 267.903687 
L 600.622998 266.920298 
L 600.644659 268.967696 
L 600.687944 266.727212 
L 600.731177 267.625861 
L 600.795931 266.50338 
L 600.839036 266.912402 
L 600.882091 269.265448 
L 600.903599 268.708353 
L 600.925094 265.610796 
L 600.968047 269.926184 
L 601.01095 268.251554 
L 601.075209 266.317813 
L 601.117986 267.925962 
L 601.182057 267.848988 
L 601.26731 269.439735 
L 601.352364 267.669158 
L 601.331119 269.692157 
L 601.373596 268.586903 
L 601.394816 268.853578 
L 601.416024 267.598565 
L 601.43722 269.051857 
L 601.479574 268.953942 
L 601.543013 267.714046 
L 601.585244 269.924608 
L 601.606341 267.02593 
L 601.690609 269.049276 
L 601.711645 269.14908 
L 601.774682 269.220632 
L 601.816646 268.225895 
L 601.83761 269.167696 
L 601.879501 268.39714 
L 601.900429 266.950133 
L 601.921345 269.795197 
L 601.98402 268.751814 
L 602.08824 271.265099 
L 602.15063 269.017119 
L 602.212912 269.488933 
L 602.233649 270.458742 
L 602.316481 269.225558 
L 602.337159 269.17542 
L 602.419756 270.563057 
L 602.399124 268.689787 
L 602.440375 270.010661 
L 602.460984 269.344884 
L 602.48158 270.744772 
L 602.522739 269.881387 
L 602.543301 271.072824 
L 602.625432 269.459471 
L 602.645936 268.986948 
L 602.666428 270.16061 
L 602.768718 271.303797 
L 602.809553 270.387971 
L 602.850343 271.014927 
L 602.952118 272.168869 
L 603.033335 269.847014 
L 603.073875 271.477334 
" clip-path="url(#pe37c9a7ba4)" style="fill: none; stroke: #ffa500; stroke-width: 1.5; stroke-linecap: square"/>
   </g>
   <g id="line2d_20">
    <path d="M 245.953875 55.750787 
L 333.368412 59.911056 
L 356.937327 61.807998 
L 381.323126 63.923537 
L 389.278071 64.468651 
L 414.182831 66.786067 
L 417.623871 66.884044 
L 420.767883 67.270589 
L 426.343298 67.652704 
L 431.177911 68.407095 
L 437.405727 68.898119 
L 439.265716 68.855131 
L 444.336081 69.496577 
L 445.880713 69.497521 
L 452.752093 70.383558 
L 455.174768 70.469626 
L 456.328277 70.685862 
L 458.531233 70.782301 
L 460.608595 71.173232 
L 461.604499 71.119066 
L 462.573914 71.389956 
L 463.518211 71.268407 
L 464.43866 71.32542 
L 465.336435 71.254869 
L 467.904244 71.798049 
L 468.721494 71.328146 
L 469.520821 71.709818 
L 470.302993 71.947587 
L 471.818713 71.855184 
L 472.553573 72.114272 
L 473.980284 72.215644 
L 474.67323 72.13148 
L 475.353246 72.30488 
L 476.020807 72.310286 
L 476.676361 72.453002 
L 477.320332 72.301774 
L 479.186669 72.553826 
L 479.788131 72.391466 
L 480.37983 72.703684 
L 480.962075 72.73784 
L 481.535166 72.459291 
L 482.655002 72.686614 
L 483.202277 72.488894 
L 483.741456 72.715943 
L 485.821781 72.940768 
L 486.323825 72.81663 
L 486.819047 72.908028 
L 487.307631 73.136919 
L 487.789752 72.96399 
L 488.265579 73.144548 
L 488.735273 73.151111 
L 489.198992 72.941681 
L 489.656885 72.919083 
L 490.109097 73.062987 
L 490.997029 73.020379 
L 491.433013 73.229702 
L 491.863843 72.958645 
L 493.126595 73.409316 
L 493.537974 73.204652 
L 493.944762 73.350932 
L 494.744965 73.278995 
L 495.138574 73.446487 
L 496.671831 73.52619 
L 497.414931 73.434152 
L 497.780876 73.614116 
L 498.501924 73.390159 
L 499.208984 73.676155 
L 499.557436 73.444858 
L 500.583239 73.699194 
L 500.918856 73.474704 
L 501.251412 73.680023 
L 502.870141 73.578589 
L 503.498026 73.806597 
L 505.021985 73.802288 
L 505.319277 73.691763 
L 505.906684 73.815886 
L 506.196875 73.727107 
L 506.484774 73.833977 
L 506.770416 73.810587 
L 507.053837 73.661246 
L 507.614153 73.905472 
L 507.891113 73.674769 
L 508.165985 73.656419 
L 508.438799 73.873173 
L 508.978376 73.830398 
L 509.510082 73.947806 
L 509.773054 73.703687 
L 510.293374 73.882904 
L 511.562576 74.011869 
L 511.811198 73.921781 
L 512.058135 73.95679 
L 512.547046 73.821064 
L 512.789065 73.794308 
L 513.029486 73.543017 
L 513.268332 73.804008 
L 514.669445 73.994845 
L 514.897815 73.866823 
L 515.124764 73.93209 
L 515.574465 73.868377 
L 515.797251 73.992134 
L 516.018685 73.795344 
L 516.457556 74.000616 
L 516.675025 73.835667 
L 516.891205 73.981383 
L 517.10611 73.692266 
L 517.532156 74.086364 
L 517.743325 74.01825 
L 517.953279 73.824992 
L 518.16203 74.027509 
L 518.369592 73.773461 
L 518.781203 73.884853 
L 519.590737 74.077075 
L 519.98886 73.902289 
L 520.186303 73.990855 
L 520.578008 73.95108 
L 520.772293 73.971455 
L 520.965548 73.738833 
L 521.34901 73.975505 
L 521.728481 73.815901 
L 522.104041 74.1151 
L 522.843747 73.854413 
L 523.747757 73.752233 
L 523.925899 73.878914 
L 524.103174 73.79714 
L 524.279592 73.943785 
L 524.629886 73.669561 
L 524.803778 73.918446 
L 524.976845 73.699529 
L 525.661009 73.920532 
L 525.830063 73.75001 
L 526.332568 73.789511 
L 526.663763 73.862194 
L 526.828239 73.86189 
L 526.991976 73.555732 
L 527.317259 73.933369 
L 527.478819 73.814333 
L 527.639666 73.892939 
L 527.799806 73.754731 
L 527.959245 73.811835 
L 528.11799 73.62773 
L 528.276047 73.882128 
L 528.746145 73.692875 
L 529.056209 73.973693 
L 529.210257 73.838606 
L 529.363657 73.888173 
L 529.516414 73.534702 
L 529.820021 73.804846 
L 529.970881 73.881031 
L 530.270742 73.690515 
L 530.419752 73.770415 
L 530.568155 73.634582 
L 530.715956 73.689966 
L 530.863161 73.890777 
L 531.155798 73.638648 
L 531.30124 73.76373 
L 531.446105 73.574813 
L 531.590395 73.729391 
L 532.161913 73.665373 
L 532.303403 73.688032 
L 532.444346 73.415361 
L 532.584746 73.458152 
L 532.724607 73.673079 
L 533.140999 73.486293 
L 533.278746 73.715032 
L 533.415974 73.536606 
L 533.959778 73.712093 
L 534.362372 73.447842 
L 534.628319 73.594716 
L 534.760568 73.483856 
L 535.023635 73.589751 
L 535.15446 73.465141 
L 535.284817 73.617953 
L 535.54414 73.423402 
L 535.673114 73.566544 
L 535.801632 73.51582 
L 535.929699 73.612182 
L 536.18449 73.508054 
L 536.437513 73.643369 
L 536.563369 73.522474 
L 536.688792 73.619004 
L 536.93835 73.339892 
L 537.18621 73.570762 
L 537.432397 73.427741 
L 537.554869 73.498079 
L 537.676932 73.430604 
L 537.919837 73.503348 
L 538.161134 73.648836 
L 538.281186 73.422031 
L 538.400844 73.573153 
L 538.638988 73.337105 
L 538.757479 73.574234 
L 538.875586 73.409757 
L 538.993312 73.520693 
L 539.110658 73.415666 
L 539.227628 73.501521 
L 539.344224 73.283548 
L 539.576302 73.328501 
L 539.691789 73.226459 
L 539.806912 73.450842 
L 540.036072 73.362018 
L 540.150114 73.422427 
L 540.377133 73.200678 
L 540.490115 73.262671 
L 540.826973 73.099991 
L 540.93857 73.109478 
L 541.160746 73.276863 
L 541.381575 73.320491 
L 541.601075 73.030308 
L 541.710331 73.318024 
L 541.927865 73.19081 
L 542.144109 73.165943 
L 542.359078 73.196079 
L 542.572786 73.150258 
L 542.679171 73.259031 
L 542.891016 72.964797 
L 542.996479 73.084474 
L 543.101637 73.006415 
L 543.415303 73.162364 
L 543.622924 73.254067 
L 543.829369 73.068454 
L 543.932155 73.173877 
L 544.136861 72.98298 
L 544.44178 73.079601 
L 544.542855 72.969899 
L 544.744169 73.116513 
L 544.844411 72.83504 
L 544.944377 73.104407 
L 545.143492 73.026638 
L 545.538486 72.984122 
L 545.73439 72.911012 
L 545.831948 72.628336 
L 545.929246 72.723648 
L 546.123067 73.07089 
L 546.315861 72.86408 
L 546.411878 72.909017 
L 546.507642 72.789372 
L 546.603155 72.968757 
L 546.793434 72.722871 
L 547.358381 72.793392 
L 547.451693 72.789067 
L 547.637604 72.648102 
L 547.822572 72.778377 
L 548.098275 72.692842 
L 548.189715 72.403938 
L 548.371908 72.666041 
L 548.553196 72.531761 
L 548.733586 72.630027 
L 549.534473 72.530878 
L 549.710083 72.377045 
L 549.971922 72.538933 
L 550.145442 72.493036 
L 550.404182 72.690238 
L 550.575661 72.408902 
L 550.916218 72.431043 
L 551.000862 72.297571 
L 551.169563 72.513959 
L 551.253622 72.349072 
L 551.337487 72.575663 
L 551.421159 72.504488 
L 551.50464 72.567349 
L 551.587931 72.223076 
L 551.753942 72.495381 
L 551.836665 72.290642 
L 551.919201 72.42378 
L 552.00155 72.317001 
L 552.165693 72.441642 
L 552.247488 72.202396 
L 552.3291 72.251247 
L 552.410529 72.253486 
L 552.653731 72.044802 
L 552.895322 72.366873 
L 553.294447 72.007631 
L 553.531841 72.212294 
L 553.689249 72.183437 
L 553.767699 72.233674 
L 553.845981 71.960836 
L 553.924094 72.033656 
L 554.002041 72.152799 
L 554.079821 72.000443 
L 554.157436 72.079735 
L 554.234885 71.979216 
L 554.389293 72.158799 
L 554.924624 72.073187 
L 555.000462 72.0891 
L 555.076143 71.85491 
L 555.227034 72.034661 
L 555.377304 71.811389 
L 555.452207 72.012534 
L 555.601553 71.604411 
L 555.750289 71.937385 
L 555.898421 71.672693 
L 555.972262 72.109475 
L 556.045953 71.786552 
L 556.119496 71.833896 
L 556.339238 72.007235 
L 556.412192 71.589564 
L 556.557663 72.032666 
L 557.062289 71.802237 
L 557.205193 71.767334 
L 557.418505 71.667896 
L 557.700993 71.810947 
L 557.771274 71.636511 
L 557.84142 71.739559 
L 557.911431 71.616197 
L 557.981308 71.896163 
L 558.051051 71.852778 
L 558.259483 71.506617 
L 558.466731 71.713915 
L 558.535552 71.518099 
L 558.604244 71.681921 
L 558.672806 71.575143 
L 558.74124 71.335242 
L 558.809545 71.623903 
L 558.877723 71.590584 
L 559.013697 71.451918 
L 559.081494 71.701382 
L 559.149166 71.68049 
L 559.351429 71.37083 
L 559.418602 71.582955 
L 559.48565 71.437893 
L 559.619379 71.606878 
L 559.68606 71.550108 
L 559.819057 71.546194 
L 559.951571 71.572676 
L 560.083604 71.188475 
L 560.215161 71.59133 
L 560.346245 71.45874 
L 560.476859 71.361465 
L 560.607006 71.498074 
L 560.671906 71.19347 
L 560.736691 71.331526 
L 560.80136 71.308289 
L 560.865915 71.090575 
L 560.930356 71.256316 
L 561.058897 71.356759 
L 561.122998 71.179506 
L 561.186987 71.271528 
L 561.250863 71.254854 
L 561.314628 71.36617 
L 561.378281 71.293518 
L 561.441823 70.9192 
L 561.505255 71.094808 
L 561.757883 71.298147 
L 561.946211 71.132817 
L 562.008772 71.299533 
L 562.071225 71.166608 
L 562.195812 71.257564 
L 562.381897 70.925626 
L 562.567037 71.198191 
L 562.751241 70.938204 
L 562.812436 70.814127 
L 562.873529 70.867958 
L 562.934519 71.047267 
L 562.995407 71.014725 
L 563.056194 71.037399 
L 563.11688 70.887039 
L 563.177465 71.18211 
L 563.237949 70.958808 
L 563.298333 70.923403 
L 563.358617 71.070809 
L 563.478887 70.861364 
L 563.658551 71.075926 
L 563.777837 70.657676 
L 563.837334 70.915591 
L 563.896734 70.840989 
L 564.074355 70.739967 
L 564.19229 71.014968 
L 564.251115 70.855486 
L 564.36848 70.861532 
L 564.485469 70.88984 
L 564.602083 70.723902 
L 564.718325 70.918636 
L 564.834198 70.691954 
L 564.891997 70.730084 
L 564.949704 70.639143 
L 565.00732 70.802493 
L 565.064845 70.775266 
L 565.179623 70.646468 
L 565.236877 70.73479 
L 565.294041 70.649742 
L 565.635155 70.613758 
L 565.804522 70.674502 
L 565.860804 70.597982 
L 565.916998 70.648463 
L 565.973106 70.760601 
L 566.196679 70.36967 
L 566.307953 70.387882 
L 566.47423 70.576861 
L 566.584661 70.450028 
L 566.749683 70.549664 
L 566.913961 70.400278 
L 567.02307 70.18127 
L 567.077502 70.298144 
L 567.131853 70.489864 
L 567.186123 70.393288 
L 567.294421 70.399745 
L 567.617399 70.358142 
L 567.670951 70.143992 
L 567.724425 70.308438 
L 567.93754 70.176397 
L 567.990624 70.253268 
L 568.043631 70.208254 
L 568.096562 69.981008 
L 568.149415 70.088486 
L 568.202192 70.226208 
L 568.254893 70.097608 
L 568.412539 70.149474 
L 568.569507 70.094775 
L 568.725801 70.034183 
L 568.829626 70.132845 
L 568.984811 69.906254 
L 569.087902 70.132784 
L 569.190703 69.893721 
L 569.241994 69.913898 
L 569.293214 69.846256 
L 569.344361 70.033909 
L 569.395437 69.904944 
L 569.446442 69.610131 
L 569.497375 69.964013 
L 569.649749 69.64581 
L 569.750979 69.597812 
L 569.801488 70.011037 
L 570.00283 69.821586 
L 570.15311 69.90001 
L 570.402207 69.850519 
L 570.501371 69.804485 
L 570.550852 69.652983 
L 570.600266 69.719575 
L 570.649613 69.86628 
L 570.698894 69.745234 
L 570.797255 69.738868 
L 570.846337 69.469471 
L 570.895352 69.514074 
L 570.944301 69.723732 
L 570.993185 69.603644 
L 571.236626 69.652602 
L 571.381913 69.499348 
L 571.478451 69.665119 
L 571.526624 69.614152 
L 571.62278 69.47305 
L 571.670763 69.541042 
L 572.004886 69.560945 
L 572.194447 69.36682 
L 572.288859 69.55595 
L 572.476953 69.316994 
L 572.523825 69.347328 
L 572.570637 69.138051 
L 572.617389 69.372804 
L 572.664081 69.49114 
L 572.710713 69.399697 
L 572.896648 69.253935 
L 572.942984 69.394002 
L 573.081639 69.404935 
L 573.219769 69.040775 
L 573.265696 69.097407 
L 573.403131 69.11964 
L 573.494467 69.120889 
L 573.631044 69.21349 
L 573.812354 68.931971 
L 573.902672 69.149441 
L 573.947748 68.970193 
L 574.08264 68.870298 
L 574.127493 68.953671 
L 574.261723 68.880303 
L 574.306356 68.79993 
L 574.350935 69.050322 
L 574.39546 69.017049 
L 574.484346 68.790565 
L 574.528708 68.925712 
L 574.573016 68.998197 
L 574.61727 68.709141 
L 574.661471 68.75586 
L 574.705618 68.890719 
L 574.749711 68.672807 
L 574.793752 68.841182 
L 574.881673 68.906495 
L 574.969383 68.711288 
L 575.013159 68.921768 
L 575.056882 68.877577 
L 575.187738 68.74016 
L 575.404793 68.804894 
L 575.44805 68.652645 
L 575.534409 68.683284 
L 575.663565 68.759652 
L 575.706515 68.524137 
L 575.749415 68.654427 
L 575.877813 68.756774 
L 576.302568 68.402237 
L 576.429035 68.521883 
L 576.513103 68.269678 
L 576.555064 68.304154 
L 576.596978 68.39808 
L 576.638843 68.121252 
L 576.68066 68.447175 
L 576.805824 68.211355 
L 576.889029 68.349183 
L 577.137509 68.480143 
L 577.219961 68.457073 
L 577.261117 68.281145 
L 577.302227 68.426495 
L 577.34329 68.421973 
L 577.384307 68.213228 
L 577.425278 68.251968 
L 577.507082 68.445881 
L 577.547915 68.301505 
L 577.588703 68.328032 
L 577.629445 68.142875 
L 577.710793 68.238994 
L 577.913371 68.101958 
L 577.994088 68.100405 
L 578.195102 67.922877 
L 578.235172 68.109008 
L 578.31518 68.012996 
L 578.395013 68.057888 
L 578.434865 67.982403 
L 578.474672 67.887457 
L 578.514436 68.029717 
L 578.791577 67.655536 
L 578.870374 68.083441 
L 578.909709 67.916786 
L 578.988252 67.820866 
L 579.02746 67.903386 
L 579.066626 67.915888 
L 579.10575 67.690789 
L 579.144832 67.941014 
L 579.183872 67.875975 
L 579.300742 67.895102 
L 579.378447 67.469405 
L 579.417238 67.552824 
L 579.455988 67.874118 
L 579.533363 67.839413 
L 579.57199 67.798572 
L 579.610575 67.480948 
L 579.687624 67.658719 
L 579.726087 67.772654 
L 579.802892 67.685687 
L 579.841234 67.726727 
L 579.879535 67.545804 
L 579.956018 67.680281 
L 579.994199 67.760045 
L 580.03234 67.419793 
L 580.108503 67.557925 
L 580.336042 67.219637 
L 580.449281 67.472375 
L 580.599721 67.279817 
L 580.637234 67.312116 
L 580.712145 67.344612 
L 580.749542 67.238215 
L 580.786902 67.268153 
L 580.861506 67.168745 
L 580.935957 67.381647 
L 580.973126 67.137528 
L 581.04735 67.372053 
L 581.195347 67.09993 
L 581.342745 67.354861 
L 581.526158 67.079981 
L 581.672227 67.237438 
L 581.745042 66.961127 
L 581.817713 67.181597 
L 581.926447 67.179861 
L 581.96262 66.878379 
L 582.034858 67.067662 
L 582.070924 66.962985 
L 582.142948 67.033628 
L 582.250718 66.794306 
L 582.322388 66.964874 
L 582.35817 66.991218 
L 582.500949 66.689187 
L 582.536556 66.779534 
L 582.607667 66.978853 
L 582.64317 66.866714 
L 582.678639 66.826985 
L 582.714074 66.896576 
L 582.749474 66.978518 
L 582.784839 66.860258 
L 582.925959 66.769773 
L 583.066535 66.779641 
L 583.171613 66.513183 
L 583.206571 66.600667 
L 583.241496 66.604383 
L 583.276388 66.770626 
L 583.346071 66.574612 
L 583.380863 66.651559 
L 583.415621 66.479697 
L 583.726965 66.565826 
L 583.830158 66.46724 
L 583.967296 66.592292 
L 584.137996 66.309403 
L 584.206053 66.231025 
L 584.240034 66.372583 
L 584.3079 66.301027 
L 584.341786 66.25376 
L 584.375641 66.35297 
L 584.477016 66.326884 
L 584.611746 66.030321 
L 584.678925 66.079233 
L 584.812912 66.236903 
L 584.979706 66.205944 
L 585.112594 65.935466 
L 585.278025 66.154824 
L 585.442709 65.968389 
L 585.639353 65.668368 
L 585.769862 65.948927 
L 585.802416 65.89834 
L 585.834941 65.626065 
L 585.899905 65.9277 
L 585.932343 65.703179 
L 586.094103 65.841266 
L 586.222997 65.575219 
L 586.158607 65.913279 
L 586.255149 65.638872 
L 586.287273 65.792537 
L 586.351436 65.752609 
L 586.447469 65.602583 
L 586.415486 65.806562 
L 586.479424 65.647719 
L 586.511351 65.826068 
L 586.54325 65.709834 
L 586.606964 65.526352 
L 586.670567 65.612786 
L 586.702328 65.627481 
L 586.765765 65.321598 
L 586.829092 65.389545 
L 586.892309 65.558225 
L 586.923876 65.511871 
L 586.955416 65.356028 
L 587.049873 65.428711 
L 587.144086 65.227337 
L 587.175436 65.289711 
L 587.20676 65.414686 
L 587.269325 65.283284 
L 587.362973 65.369413 
L 587.394136 65.275412 
L 587.642482 65.18377 
L 587.766024 65.251245 
L 587.796844 65.262711 
L 587.889148 65.296594 
L 587.950554 64.900424 
L 588.011858 65.304771 
L 588.073058 65.204114 
L 588.103619 65.187866 
L 588.256044 64.80228 
L 588.377527 65.026831 
L 588.498606 64.869755 
L 588.558995 64.84137 
L 588.649391 65.075149 
L 588.709531 64.984056 
L 588.799555 64.838461 
L 588.829514 64.888089 
L 588.919243 64.959386 
L 589.038539 64.712862 
L 589.09804 64.883978 
L 589.127755 64.721724 
L 589.157445 64.642859 
L 589.187111 64.755545 
L 589.216753 64.729353 
L 589.305535 64.717872 
L 589.335081 64.604667 
L 589.364603 64.675127 
L 589.394101 64.828228 
L 589.453025 64.577166 
L 589.599921 64.66232 
L 589.629229 64.47121 
L 589.717013 64.535304 
L 589.775418 64.580424 
L 589.804586 64.510741 
L 589.891949 64.297231 
L 589.921023 64.514366 
L 589.950075 64.155261 
L 590.008108 64.456789 
L 590.03709 64.317301 
L 590.094985 64.461784 
L 590.123898 64.483316 
L 590.152788 64.300002 
L 590.181655 64.503036 
L 590.239321 64.333321 
L 590.26812 64.342351 
L 590.296896 64.173595 
L 590.35438 64.426028 
L 590.383088 64.255537 
L 590.469077 64.389816 
L 590.497695 64.313631 
L 590.583414 63.988073 
L 590.611943 64.235603 
L 590.725833 63.968475 
L 590.75425 64.171128 
L 590.782645 63.907076 
L 590.811018 64.029493 
L 590.839369 63.970439 
L 590.896004 64.084801 
L 590.924289 64.107369 
L 590.952552 64.045574 
L 591.037209 63.956643 
L 591.065385 64.018316 
L 591.093539 64.057939 
L 591.149781 63.946044 
L 591.290008 63.967622 
L 591.429698 63.700098 
L 591.485424 63.861499 
L 591.541065 63.707651 
L 591.596622 63.842373 
L 591.679798 63.814262 
L 591.762785 63.576721 
L 591.790405 63.687459 
L 591.873141 63.924207 
L 591.900677 63.758604 
L 592.010617 63.383083 
L 592.147577 63.658404 
L 592.284025 63.507221 
L 592.338461 63.55828 
L 592.365649 63.48476 
L 592.474197 63.268265 
L 592.419963 63.566762 
L 592.501284 63.361962 
L 592.582423 63.476308 
L 592.609429 63.455492 
L 592.797916 63.365221 
L 592.824763 63.3919 
L 592.85159 63.268173 
L 592.958703 63.172252 
L 592.985432 63.356632 
L 593.038832 63.143929 
L 593.065502 63.158867 
L 593.118784 63.186095 
L 593.145396 63.129477 
L 593.225116 63.207018 
L 593.25165 63.047064 
L 593.278166 63.190419 
L 593.331138 63.024663 
L 593.357596 62.965092 
L 593.384034 63.097712 
L 593.436853 63.027252 
L 593.489596 63.050749 
L 593.568567 62.713694 
L 593.621119 62.77392 
L 593.647367 63.099509 
L 593.699806 62.767555 
L 593.725998 62.776859 
L 593.778324 62.681731 
L 593.908811 62.821416 
L 594.064782 62.762454 
L 594.142518 62.780971 
L 594.32326 62.614103 
L 594.50311 62.704268 
L 594.631033 62.483935 
L 594.656564 62.646021 
L 594.733049 62.556862 
L 594.78395 62.620347 
L 594.910893 62.373654 
L 595.01213 62.540948 
L 595.087873 62.105811 
L 595.138282 62.169478 
L 595.16346 62.303271 
L 595.188621 62.154799 
L 595.213764 61.867646 
L 595.28909 62.125485 
L 595.364261 62.244446 
L 595.439277 61.947242 
L 595.489202 62.008032 
L 595.514139 61.998941 
L 595.563962 61.927172 
L 595.638568 62.195381 
L 595.737807 61.922436 
L 595.787325 62.101958 
L 595.836776 62.064086 
L 595.935477 61.501277 
L 595.984727 61.910787 
L 596.009327 61.940618 
L 596.033911 61.719889 
L 596.083029 61.991297 
L 596.107563 61.981581 
L 596.205534 61.657409 
L 596.229986 61.818368 
L 596.27884 61.85825 
L 596.303243 61.616111 
L 596.40069 61.636623 
L 596.522135 61.626633 
L 596.546375 61.717316 
L 596.570599 61.502663 
L 596.618999 61.653831 
L 596.643175 61.511784 
L 596.691479 61.791887 
L 596.739719 61.540976 
L 596.763816 61.760731 
L 596.860041 61.660622 
L 596.956013 61.368992 
L 597.003905 61.698722 
L 597.051733 61.352302 
L 597.075624 61.515622 
L 597.099499 61.519642 
L 597.218641 61.266782 
L 597.242422 61.50813 
L 597.337394 61.496907 
L 597.361099 61.183151 
L 597.455762 61.25224 
L 597.597298 61.349363 
L 597.66786 61.112204 
L 597.761731 61.156898 
L 597.831976 61.063276 
L 597.855361 61.303177 
L 597.925426 60.904967 
L 597.972062 61.03046 
L 598.065153 60.978959 
L 598.088389 61.122269 
L 598.134817 60.878714 
L 598.204347 60.976965 
L 598.250627 60.885582 
L 598.296848 61.044988 
L 598.319937 60.78258 
L 598.412146 60.845106 
L 598.481149 61.079723 
L 598.527079 60.891414 
L 598.664523 60.74614 
L 598.68738 60.937753 
L 598.710223 60.735785 
L 598.778665 60.774981 
L 598.824222 60.439632 
L 598.937866 60.512985 
L 599.051156 60.651727 
L 599.141536 60.456185 
L 599.164096 60.555319 
L 599.231692 60.652001 
L 599.276686 60.405065 
L 599.299163 60.65165 
L 599.366509 60.443865 
L 599.456111 60.237436 
L 599.478477 60.383913 
L 599.500829 60.473864 
L 599.523168 60.315403 
L 599.567804 60.369584 
L 599.656913 60.139048 
L 599.679157 60.276876 
L 599.79017 60.16058 
L 599.812332 60.315494 
L 599.878737 60.082461 
L 600.143156 60.170844 
L 600.165105 59.910583 
L 600.252767 59.975104 
L 600.27465 59.965617 
L 600.296519 60.07439 
L 600.318376 60.103613 
L 600.340219 59.95176 
L 600.383866 60.039884 
L 600.44924 59.900061 
L 600.471005 59.930304 
L 600.492757 59.790085 
L 600.514496 59.777278 
L 600.536222 59.937339 
L 600.579636 59.667165 
L 600.644659 59.921121 
L 600.687944 59.753249 
L 600.752774 59.62908 
L 600.795931 59.659901 
L 600.839036 59.897944 
L 600.903599 59.660236 
L 600.946577 59.741569 
L 601.01095 59.533829 
L 600.989505 59.823023 
L 601.053802 59.699707 
L 601.224708 59.575493 
L 601.246015 59.660008 
L 601.288592 59.50616 
L 601.309861 59.413849 
L 601.331119 59.640105 
L 601.416024 59.447365 
L 601.500732 59.517855 
L 601.627427 59.228616 
L 601.6485 59.398956 
L 601.73267 59.243966 
L 601.858562 59.154487 
L 601.942249 59.274102 
L 601.900429 59.073322 
L 601.96314 59.185978 
L 602.06742 59.008177 
L 602.109049 59.055962 
L 602.212912 58.878648 
L 602.233649 58.785286 
L 602.275089 59.075697 
L 602.399124 59.026237 
L 602.563851 58.794042 
L 602.440375 59.057896 
L 602.584389 58.901794 
L 602.666428 58.87877 
L 602.829954 58.468484 
L 602.850343 58.578323 
L 602.931786 58.512538 
L 602.972439 58.720232 
L 603.073875 58.521096 
L 603.073875 58.521096 
" clip-path="url(#pe37c9a7ba4)" style="fill: none; stroke: #008000; stroke-width: 1.5; stroke-linecap: square"/>
   </g>
   <g id="patch_3">
    <path d="M 245.953875 311.6435 
L 245.953875 45.5315 
" style="fill: none; stroke: #000000; stroke-width: 0.8; stroke-linejoin: miter; stroke-linecap: square"/>
   </g>
   <g id="patch_4">
    <path d="M 603.073875 311.6435 
L 603.073875 45.5315 
" style="fill: none; stroke: #000000; stroke-width: 0.8; stroke-linejoin: miter; stroke-linecap: square"/>
   </g>
   <g id="patch_5">
    <path d="M 245.953875 311.6435 
L 603.073875 311.6435 
" style="fill: none; stroke: #000000; stroke-width: 0.8; stroke-linejoin: miter; stroke-linecap: square"/>
   </g>
   <g id="patch_6">
    <path d="M 245.953875 45.5315 
L 603.073875 45.5315 
" style="fill: none; stroke: #000000; stroke-width: 0.8; stroke-linejoin: miter; stroke-linecap: square"/>
   </g>
   <g id="text_12">
    <!-- Loss of the 09_07_25_CINIC10_torch_model_(1024+8192-8192.3-1)_cat-dog -->
    <g transform="translate(7.2 25.5315) scale(0.264 -0.264)">
     <defs>
      <path id="TimesNewRomanPSMT-20" transform="scale(0.015625)"/>
      <path id="TimesNewRomanPSMT-66" d="M 1319 2638 
L 1319 756 
Q 1319 356 1406 250 
Q 1522 113 1716 113 
L 1975 113 
L 1975 0 
L 266 0 
L 266 113 
L 394 113 
Q 519 113 622 175 
Q 725 238 764 344 
Q 803 450 803 756 
L 803 2638 
L 247 2638 
L 247 2863 
L 803 2863 
L 803 3050 
Q 803 3478 940 3775 
Q 1078 4072 1361 4255 
Q 1644 4438 1997 4438 
Q 2325 4438 2600 4225 
Q 2781 4084 2781 3909 
Q 2781 3816 2700 3733 
Q 2619 3650 2525 3650 
Q 2453 3650 2373 3701 
Q 2294 3753 2178 3923 
Q 2063 4094 1966 4153 
Q 1869 4213 1750 4213 
Q 1606 4213 1506 4136 
Q 1406 4059 1362 3898 
Q 1319 3738 1319 3069 
L 1319 2863 
L 2056 2863 
L 2056 2638 
L 1319 2638 
z
" transform="scale(0.015625)"/>
      <path id="TimesNewRomanPSMT-74" d="M 1031 3803 
L 1031 2863 
L 1700 2863 
L 1700 2644 
L 1031 2644 
L 1031 788 
Q 1031 509 1111 412 
Q 1191 316 1316 316 
Q 1419 316 1516 380 
Q 1613 444 1666 569 
L 1788 569 
Q 1678 263 1478 108 
Q 1278 -47 1066 -47 
Q 922 -47 784 33 
Q 647 113 581 261 
Q 516 409 516 719 
L 516 2644 
L 63 2644 
L 63 2747 
Q 234 2816 414 2980 
Q 594 3144 734 3369 
Q 806 3488 934 3803 
L 1031 3803 
z
" transform="scale(0.015625)"/>
      <path id="TimesNewRomanPSMT-68" d="M 1041 4444 
L 1041 2350 
Q 1388 2731 1591 2839 
Q 1794 2947 1997 2947 
Q 2241 2947 2416 2812 
Q 2591 2678 2675 2391 
Q 2734 2191 2734 1659 
L 2734 647 
Q 2734 375 2778 275 
Q 2809 200 2884 156 
Q 2959 113 3159 113 
L 3159 0 
L 1753 0 
L 1753 113 
L 1819 113 
Q 2019 113 2097 173 
Q 2175 234 2206 353 
Q 2216 403 2216 647 
L 2216 1659 
Q 2216 2128 2167 2275 
Q 2119 2422 2012 2495 
Q 1906 2569 1756 2569 
Q 1603 2569 1437 2487 
Q 1272 2406 1041 2159 
L 1041 647 
Q 1041 353 1073 281 
Q 1106 209 1195 161 
Q 1284 113 1503 113 
L 1503 0 
L 84 0 
L 84 113 
Q 275 113 384 172 
Q 447 203 484 290 
Q 522 378 522 647 
L 522 3238 
Q 522 3728 498 3840 
Q 475 3953 426 3993 
Q 378 4034 297 4034 
Q 231 4034 84 3984 
L 41 4094 
L 897 4444 
L 1041 4444 
z
" transform="scale(0.015625)"/>
      <path id="TimesNewRomanPSMT-65" d="M 681 1784 
Q 678 1147 991 784 
Q 1303 422 1725 422 
Q 2006 422 2214 576 
Q 2422 731 2563 1106 
L 2659 1044 
Q 2594 616 2278 264 
Q 1963 -88 1488 -88 
Q 972 -88 605 314 
Q 238 716 238 1394 
Q 238 2128 614 2539 
Q 991 2950 1559 2950 
Q 2041 2950 2350 2633 
Q 2659 2316 2659 1784 
L 681 1784 
z
M 681 1966 
L 2006 1966 
Q 1991 2241 1941 2353 
Q 1863 2528 1708 2628 
Q 1553 2728 1384 2728 
Q 1125 2728 920 2526 
Q 716 2325 681 1966 
z
" transform="scale(0.015625)"/>
      <path id="TimesNewRomanPSMT-39" d="M 338 -88 
L 338 28 
Q 744 34 1094 217 
Q 1444 400 1770 856 
Q 2097 1313 2225 1859 
Q 1734 1544 1338 1544 
Q 891 1544 572 1889 
Q 253 2234 253 2806 
Q 253 3363 572 3797 
Q 956 4325 1575 4325 
Q 2097 4325 2469 3894 
Q 2925 3359 2925 2575 
Q 2925 1869 2578 1258 
Q 2231 647 1613 244 
Q 1109 -88 516 -88 
L 338 -88 
z
M 2275 2091 
Q 2331 2497 2331 2741 
Q 2331 3044 2228 3395 
Q 2125 3747 1936 3934 
Q 1747 4122 1506 4122 
Q 1228 4122 1018 3872 
Q 809 3622 809 3128 
Q 809 2469 1088 2097 
Q 1291 1828 1588 1828 
Q 1731 1828 1928 1897 
Q 2125 1966 2275 2091 
z
" transform="scale(0.015625)"/>
      <path id="TimesNewRomanPSMT-5f" d="M 3256 -1381 
L -53 -1381 
L -53 -1119 
L 3256 -1119 
L 3256 -1381 
z
" transform="scale(0.015625)"/>
      <path id="TimesNewRomanPSMT-37" d="M 644 4238 
L 2916 4238 
L 2916 4119 
L 1503 -88 
L 1153 -88 
L 2419 3728 
L 1253 3728 
Q 900 3728 750 3644 
Q 488 3500 328 3200 
L 238 3234 
L 644 4238 
z
" transform="scale(0.015625)"/>
      <path id="TimesNewRomanPSMT-43" d="M 3853 4334 
L 3950 2894 
L 3853 2894 
Q 3659 3541 3300 3825 
Q 2941 4109 2438 4109 
Q 2016 4109 1675 3895 
Q 1334 3681 1139 3212 
Q 944 2744 944 2047 
Q 944 1472 1128 1050 
Q 1313 628 1683 403 
Q 2053 178 2528 178 
Q 2941 178 3256 354 
Q 3572 531 3950 1056 
L 4047 994 
Q 3728 428 3303 165 
Q 2878 -97 2294 -97 
Q 1241 -97 663 684 
Q 231 1266 231 2053 
Q 231 2688 515 3219 
Q 800 3750 1298 4042 
Q 1797 4334 2388 4334 
Q 2847 4334 3294 4109 
Q 3425 4041 3481 4041 
Q 3566 4041 3628 4100 
Q 3709 4184 3744 4334 
L 3853 4334 
z
" transform="scale(0.015625)"/>
      <path id="TimesNewRomanPSMT-49" d="M 1975 116 
L 1975 0 
L 159 0 
L 159 116 
L 309 116 
Q 572 116 691 269 
Q 766 369 766 750 
L 766 3488 
Q 766 3809 725 3913 
Q 694 3991 597 4047 
Q 459 4122 309 4122 
L 159 4122 
L 159 4238 
L 1975 4238 
L 1975 4122 
L 1822 4122 
Q 1563 4122 1444 3969 
Q 1366 3869 1366 3488 
L 1366 750 
Q 1366 428 1406 325 
Q 1438 247 1538 191 
Q 1672 116 1822 116 
L 1975 116 
z
" transform="scale(0.015625)"/>
      <path id="TimesNewRomanPSMT-4e" d="M -84 4238 
L 1066 4238 
L 3656 1059 
L 3656 3503 
Q 3656 3894 3569 3991 
Q 3453 4122 3203 4122 
L 3056 4122 
L 3056 4238 
L 4531 4238 
L 4531 4122 
L 4381 4122 
Q 4113 4122 4000 3959 
Q 3931 3859 3931 3503 
L 3931 -69 
L 3819 -69 
L 1025 3344 
L 1025 734 
Q 1025 344 1109 247 
Q 1228 116 1475 116 
L 1625 116 
L 1625 0 
L 150 0 
L 150 116 
L 297 116 
Q 569 116 681 278 
Q 750 378 750 734 
L 750 3681 
Q 566 3897 470 3965 
Q 375 4034 191 4094 
Q 100 4122 -84 4122 
L -84 4238 
z
" transform="scale(0.015625)"/>
      <path id="TimesNewRomanPSMT-72" d="M 1038 2947 
L 1038 2303 
Q 1397 2947 1775 2947 
Q 1947 2947 2059 2842 
Q 2172 2738 2172 2600 
Q 2172 2478 2090 2393 
Q 2009 2309 1897 2309 
Q 1788 2309 1652 2417 
Q 1516 2525 1450 2525 
Q 1394 2525 1328 2463 
Q 1188 2334 1038 2041 
L 1038 669 
Q 1038 431 1097 309 
Q 1138 225 1241 169 
Q 1344 113 1538 113 
L 1538 0 
L 72 0 
L 72 113 
Q 291 113 397 181 
Q 475 231 506 341 
Q 522 394 522 644 
L 522 1753 
Q 522 2253 501 2348 
Q 481 2444 426 2487 
Q 372 2531 291 2531 
Q 194 2531 72 2484 
L 41 2597 
L 906 2947 
L 1038 2947 
z
" transform="scale(0.015625)"/>
      <path id="TimesNewRomanPSMT-63" d="M 2631 1088 
Q 2516 522 2178 217 
Q 1841 -88 1431 -88 
Q 944 -88 581 321 
Q 219 731 219 1428 
Q 219 2103 620 2525 
Q 1022 2947 1584 2947 
Q 2006 2947 2278 2723 
Q 2550 2500 2550 2259 
Q 2550 2141 2473 2067 
Q 2397 1994 2259 1994 
Q 2075 1994 1981 2113 
Q 1928 2178 1911 2362 
Q 1894 2547 1784 2644 
Q 1675 2738 1481 2738 
Q 1169 2738 978 2506 
Q 725 2200 725 1697 
Q 725 1184 976 792 
Q 1228 400 1656 400 
Q 1963 400 2206 609 
Q 2378 753 2541 1131 
L 2631 1088 
z
" transform="scale(0.015625)"/>
      <path id="TimesNewRomanPSMT-6d" d="M 1050 2338 
Q 1363 2650 1419 2697 
Q 1559 2816 1721 2881 
Q 1884 2947 2044 2947 
Q 2313 2947 2506 2790 
Q 2700 2634 2766 2338 
Q 3088 2713 3309 2830 
Q 3531 2947 3766 2947 
Q 3994 2947 4170 2830 
Q 4347 2713 4450 2447 
Q 4519 2266 4519 1878 
L 4519 647 
Q 4519 378 4559 278 
Q 4591 209 4675 161 
Q 4759 113 4950 113 
L 4950 0 
L 3538 0 
L 3538 113 
L 3597 113 
Q 3781 113 3884 184 
Q 3956 234 3988 344 
Q 4000 397 4000 647 
L 4000 1878 
Q 4000 2228 3916 2372 
Q 3794 2572 3525 2572 
Q 3359 2572 3192 2489 
Q 3025 2406 2788 2181 
L 2781 2147 
L 2788 2013 
L 2788 647 
Q 2788 353 2820 281 
Q 2853 209 2943 161 
Q 3034 113 3253 113 
L 3253 0 
L 1806 0 
L 1806 113 
Q 2044 113 2133 169 
Q 2222 225 2256 338 
Q 2272 391 2272 647 
L 2272 1878 
Q 2272 2228 2169 2381 
Q 2031 2581 1784 2581 
Q 1616 2581 1450 2491 
Q 1191 2353 1050 2181 
L 1050 647 
Q 1050 366 1089 281 
Q 1128 197 1204 155 
Q 1281 113 1516 113 
L 1516 0 
L 100 0 
L 100 113 
Q 297 113 375 155 
Q 453 197 493 289 
Q 534 381 534 647 
L 534 1741 
Q 534 2213 506 2350 
Q 484 2453 437 2492 
Q 391 2531 309 2531 
Q 222 2531 100 2484 
L 53 2597 
L 916 2947 
L 1050 2947 
L 1050 2338 
z
" transform="scale(0.015625)"/>
      <path id="TimesNewRomanPSMT-64" d="M 2222 322 
Q 2013 103 1813 7 
Q 1613 -88 1381 -88 
Q 913 -88 563 304 
Q 213 697 213 1313 
Q 213 1928 600 2439 
Q 988 2950 1597 2950 
Q 1975 2950 2222 2709 
L 2222 3238 
Q 2222 3728 2198 3840 
Q 2175 3953 2125 3993 
Q 2075 4034 2000 4034 
Q 1919 4034 1784 3984 
L 1744 4094 
L 2597 4444 
L 2738 4444 
L 2738 1134 
Q 2738 631 2761 520 
Q 2784 409 2836 365 
Q 2888 322 2956 322 
Q 3041 322 3181 375 
L 3216 266 
L 2366 -88 
L 2222 -88 
L 2222 322 
z
M 2222 541 
L 2222 2016 
Q 2203 2228 2109 2403 
Q 2016 2578 1861 2667 
Q 1706 2756 1559 2756 
Q 1284 2756 1069 2509 
Q 784 2184 784 1559 
Q 784 928 1059 592 
Q 1334 256 1672 256 
Q 1956 256 2222 541 
z
" transform="scale(0.015625)"/>
      <path id="TimesNewRomanPSMT-6c" d="M 1184 4444 
L 1184 647 
Q 1184 378 1223 290 
Q 1263 203 1344 158 
Q 1425 113 1647 113 
L 1647 0 
L 244 0 
L 244 113 
Q 441 113 512 153 
Q 584 194 625 287 
Q 666 381 666 647 
L 666 3247 
Q 666 3731 644 3842 
Q 622 3953 573 3993 
Q 525 4034 450 4034 
Q 369 4034 244 3984 
L 191 4094 
L 1044 4444 
L 1184 4444 
z
" transform="scale(0.015625)"/>
      <path id="TimesNewRomanPSMT-28" d="M 1988 -1253 
L 1988 -1369 
Q 1516 -1131 1200 -813 
Q 750 -359 506 256 
Q 263 872 263 1534 
Q 263 2503 741 3301 
Q 1219 4100 1988 4444 
L 1988 4313 
Q 1603 4100 1356 3731 
Q 1109 3363 987 2797 
Q 866 2231 866 1616 
Q 866 947 969 400 
Q 1050 -31 1165 -292 
Q 1281 -553 1476 -793 
Q 1672 -1034 1988 -1253 
z
" transform="scale(0.015625)"/>
      <path id="TimesNewRomanPSMT-34" d="M 2978 1563 
L 2978 1119 
L 2409 1119 
L 2409 0 
L 1894 0 
L 1894 1119 
L 100 1119 
L 100 1519 
L 2066 4325 
L 2409 4325 
L 2409 1563 
L 2978 1563 
z
M 1894 1563 
L 1894 3666 
L 406 1563 
L 1894 1563 
z
" transform="scale(0.015625)"/>
      <path id="TimesNewRomanPSMT-2b" d="M 1672 441 
L 1672 2000 
L 116 2000 
L 116 2256 
L 1672 2256 
L 1672 3809 
L 1922 3809 
L 1922 2256 
L 3484 2256 
L 3484 2000 
L 1922 2000 
L 1922 441 
L 1672 441 
z
" transform="scale(0.015625)"/>
      <path id="TimesNewRomanPSMT-38" d="M 1228 2134 
Q 725 2547 579 2797 
Q 434 3047 434 3316 
Q 434 3728 753 4026 
Q 1072 4325 1600 4325 
Q 2113 4325 2425 4047 
Q 2738 3769 2738 3413 
Q 2738 3175 2569 2928 
Q 2400 2681 1866 2347 
Q 2416 1922 2594 1678 
Q 2831 1359 2831 1006 
Q 2831 559 2490 242 
Q 2150 -75 1597 -75 
Q 994 -75 656 303 
Q 388 606 388 966 
Q 388 1247 577 1523 
Q 766 1800 1228 2134 
z
M 1719 2469 
Q 2094 2806 2194 3001 
Q 2294 3197 2294 3444 
Q 2294 3772 2109 3958 
Q 1925 4144 1606 4144 
Q 1288 4144 1088 3959 
Q 888 3775 888 3528 
Q 888 3366 970 3203 
Q 1053 3041 1206 2894 
L 1719 2469 
z
M 1375 2016 
Q 1116 1797 991 1539 
Q 866 1281 866 981 
Q 866 578 1086 336 
Q 1306 94 1647 94 
Q 1984 94 2187 284 
Q 2391 475 2391 747 
Q 2391 972 2272 1150 
Q 2050 1481 1375 2016 
z
" transform="scale(0.015625)"/>
      <path id="TimesNewRomanPSMT-2d" d="M 259 1672 
L 1875 1672 
L 1875 1200 
L 259 1200 
L 259 1672 
z
" transform="scale(0.015625)"/>
      <path id="TimesNewRomanPSMT-33" d="M 325 3431 
Q 506 3859 782 4092 
Q 1059 4325 1472 4325 
Q 1981 4325 2253 3994 
Q 2459 3747 2459 3466 
Q 2459 3003 1878 2509 
Q 2269 2356 2469 2072 
Q 2669 1788 2669 1403 
Q 2669 853 2319 450 
Q 1863 -75 997 -75 
Q 569 -75 414 31 
Q 259 138 259 259 
Q 259 350 332 419 
Q 406 488 509 488 
Q 588 488 669 463 
Q 722 447 909 348 
Q 1097 250 1169 231 
Q 1284 197 1416 197 
Q 1734 197 1970 444 
Q 2206 691 2206 1028 
Q 2206 1275 2097 1509 
Q 2016 1684 1919 1775 
Q 1784 1900 1550 2001 
Q 1316 2103 1072 2103 
L 972 2103 
L 972 2197 
Q 1219 2228 1467 2375 
Q 1716 2522 1828 2728 
Q 1941 2934 1941 3181 
Q 1941 3503 1739 3701 
Q 1538 3900 1238 3900 
Q 753 3900 428 3381 
L 325 3431 
z
" transform="scale(0.015625)"/>
      <path id="TimesNewRomanPSMT-29" d="M 144 4313 
L 144 4444 
Q 619 4209 934 3891 
Q 1381 3434 1625 2820 
Q 1869 2206 1869 1541 
Q 1869 572 1392 -226 
Q 916 -1025 144 -1369 
L 144 -1253 
Q 528 -1038 776 -670 
Q 1025 -303 1145 264 
Q 1266 831 1266 1447 
Q 1266 2113 1163 2663 
Q 1084 3094 967 3353 
Q 850 3613 656 3853 
Q 463 4094 144 4313 
z
" transform="scale(0.015625)"/>
      <path id="TimesNewRomanPSMT-61" d="M 1822 413 
Q 1381 72 1269 19 
Q 1100 -59 909 -59 
Q 613 -59 420 144 
Q 228 347 228 678 
Q 228 888 322 1041 
Q 450 1253 767 1440 
Q 1084 1628 1822 1897 
L 1822 2009 
Q 1822 2438 1686 2597 
Q 1550 2756 1291 2756 
Q 1094 2756 978 2650 
Q 859 2544 859 2406 
L 866 2225 
Q 866 2081 792 2003 
Q 719 1925 600 1925 
Q 484 1925 411 2006 
Q 338 2088 338 2228 
Q 338 2497 613 2722 
Q 888 2947 1384 2947 
Q 1766 2947 2009 2819 
Q 2194 2722 2281 2516 
Q 2338 2381 2338 1966 
L 2338 994 
Q 2338 584 2353 492 
Q 2369 400 2405 369 
Q 2441 338 2488 338 
Q 2538 338 2575 359 
Q 2641 400 2828 588 
L 2828 413 
Q 2478 -56 2159 -56 
Q 2006 -56 1915 50 
Q 1825 156 1822 413 
z
M 1822 616 
L 1822 1706 
Q 1350 1519 1213 1441 
Q 966 1303 859 1153 
Q 753 1003 753 825 
Q 753 600 887 451 
Q 1022 303 1197 303 
Q 1434 303 1822 616 
z
" transform="scale(0.015625)"/>
      <path id="TimesNewRomanPSMT-67" d="M 966 1044 
Q 703 1172 562 1401 
Q 422 1631 422 1909 
Q 422 2334 742 2640 
Q 1063 2947 1563 2947 
Q 1972 2947 2272 2747 
L 2878 2747 
Q 3013 2747 3034 2739 
Q 3056 2731 3066 2713 
Q 3084 2684 3084 2613 
Q 3084 2531 3069 2500 
Q 3059 2484 3036 2475 
Q 3013 2466 2878 2466 
L 2506 2466 
Q 2681 2241 2681 1891 
Q 2681 1491 2375 1206 
Q 2069 922 1553 922 
Q 1341 922 1119 984 
Q 981 866 932 777 
Q 884 688 884 625 
Q 884 572 936 522 
Q 988 472 1138 450 
Q 1225 438 1575 428 
Q 2219 413 2409 384 
Q 2700 344 2873 169 
Q 3047 -6 3047 -263 
Q 3047 -616 2716 -925 
Q 2228 -1381 1444 -1381 
Q 841 -1381 425 -1109 
Q 191 -953 191 -784 
Q 191 -709 225 -634 
Q 278 -519 444 -313 
Q 466 -284 763 25 
Q 600 122 533 198 
Q 466 275 466 372 
Q 466 481 555 628 
Q 644 775 966 1044 
z
M 1509 2797 
Q 1278 2797 1122 2612 
Q 966 2428 966 2047 
Q 966 1553 1178 1281 
Q 1341 1075 1591 1075 
Q 1828 1075 1981 1253 
Q 2134 1431 2134 1813 
Q 2134 2309 1919 2591 
Q 1759 2797 1509 2797 
z
M 934 0 
Q 788 -159 713 -296 
Q 638 -434 638 -550 
Q 638 -700 819 -813 
Q 1131 -1006 1722 -1006 
Q 2284 -1006 2551 -807 
Q 2819 -609 2819 -384 
Q 2819 -222 2659 -153 
Q 2497 -84 2016 -72 
Q 1313 -53 934 0 
z
" transform="scale(0.015625)"/>
     </defs>
     <use xlink:href="#TimesNewRomanPSMT-4c"/>
     <use xlink:href="#TimesNewRomanPSMT-6f" transform="translate(61.083984 0)"/>
     <use xlink:href="#TimesNewRomanPSMT-73" transform="translate(111.083984 0)"/>
     <use xlink:href="#TimesNewRomanPSMT-73" transform="translate(150 0)"/>
     <use xlink:href="#TimesNewRomanPSMT-20" transform="translate(188.916016 0)"/>
     <use xlink:href="#TimesNewRomanPSMT-6f" transform="translate(213.916016 0)"/>
     <use xlink:href="#TimesNewRomanPSMT-66" transform="translate(263.916016 0)"/>
     <use xlink:href="#TimesNewRomanPSMT-20" transform="translate(297.216797 0)"/>
     <use xlink:href="#TimesNewRomanPSMT-74" transform="translate(322.216797 0)"/>
     <use xlink:href="#TimesNewRomanPSMT-68" transform="translate(350 0)"/>
     <use xlink:href="#TimesNewRomanPSMT-65" transform="translate(400 0)"/>
     <use xlink:href="#TimesNewRomanPSMT-20" transform="translate(444.384766 0)"/>
     <use xlink:href="#TimesNewRomanPSMT-30" transform="translate(469.384766 0)"/>
     <use xlink:href="#TimesNewRomanPSMT-39" transform="translate(519.384766 0)"/>
     <use xlink:href="#TimesNewRomanPSMT-5f" transform="translate(569.384766 0)"/>
     <use xlink:href="#TimesNewRomanPSMT-30" transform="translate(619.384766 0)"/>
     <use xlink:href="#TimesNewRomanPSMT-37" transform="translate(669.384766 0)"/>
     <use xlink:href="#TimesNewRomanPSMT-5f" transform="translate(719.384766 0)"/>
     <use xlink:href="#TimesNewRomanPSMT-32" transform="translate(769.384766 0)"/>
     <use xlink:href="#TimesNewRomanPSMT-35" transform="translate(819.384766 0)"/>
     <use xlink:href="#TimesNewRomanPSMT-5f" transform="translate(869.384766 0)"/>
     <use xlink:href="#TimesNewRomanPSMT-43" transform="translate(919.384766 0)"/>
     <use xlink:href="#TimesNewRomanPSMT-49" transform="translate(986.083984 0)"/>
     <use xlink:href="#TimesNewRomanPSMT-4e" transform="translate(1019.384766 0)"/>
     <use xlink:href="#TimesNewRomanPSMT-49" transform="translate(1091.601562 0)"/>
     <use xlink:href="#TimesNewRomanPSMT-43" transform="translate(1124.902344 0)"/>
     <use xlink:href="#TimesNewRomanPSMT-31" transform="translate(1191.601562 0)"/>
     <use xlink:href="#TimesNewRomanPSMT-30" transform="translate(1241.601562 0)"/>
     <use xlink:href="#TimesNewRomanPSMT-5f" transform="translate(1291.601562 0)"/>
     <use xlink:href="#TimesNewRomanPSMT-74" transform="translate(1341.601562 0)"/>
     <use xlink:href="#TimesNewRomanPSMT-6f" transform="translate(1369.384766 0)"/>
     <use xlink:href="#TimesNewRomanPSMT-72" transform="translate(1419.384766 0)"/>
     <use xlink:href="#TimesNewRomanPSMT-63" transform="translate(1452.685547 0)"/>
     <use xlink:href="#TimesNewRomanPSMT-68" transform="translate(1497.070312 0)"/>
     <use xlink:href="#TimesNewRomanPSMT-5f" transform="translate(1547.070312 0)"/>
     <use xlink:href="#TimesNewRomanPSMT-6d" transform="translate(1597.070312 0)"/>
     <use xlink:href="#TimesNewRomanPSMT-6f" transform="translate(1674.853516 0)"/>
     <use xlink:href="#TimesNewRomanPSMT-64" transform="translate(1724.853516 0)"/>
     <use xlink:href="#TimesNewRomanPSMT-65" transform="translate(1774.853516 0)"/>
     <use xlink:href="#TimesNewRomanPSMT-6c" transform="translate(1819.238281 0)"/>
     <use xlink:href="#TimesNewRomanPSMT-5f" transform="translate(1847.021484 0)"/>
     <use xlink:href="#TimesNewRomanPSMT-28" transform="translate(1897.021484 0)"/>
     <use xlink:href="#TimesNewRomanPSMT-31" transform="translate(1930.322266 0)"/>
     <use xlink:href="#TimesNewRomanPSMT-30" transform="translate(1980.322266 0)"/>
     <use xlink:href="#TimesNewRomanPSMT-32" transform="translate(2030.322266 0)"/>
     <use xlink:href="#TimesNewRomanPSMT-34" transform="translate(2080.322266 0)"/>
     <use xlink:href="#TimesNewRomanPSMT-2b" transform="translate(2130.322266 0)"/>
     <use xlink:href="#TimesNewRomanPSMT-38" transform="translate(2186.71875 0)"/>
     <use xlink:href="#TimesNewRomanPSMT-31" transform="translate(2236.71875 0)"/>
     <use xlink:href="#TimesNewRomanPSMT-39" transform="translate(2286.71875 0)"/>
     <use xlink:href="#TimesNewRomanPSMT-32" transform="translate(2336.71875 0)"/>
     <use xlink:href="#TimesNewRomanPSMT-2d" transform="translate(2386.71875 0)"/>
     <use xlink:href="#TimesNewRomanPSMT-38" transform="translate(2420.019531 0)"/>
     <use xlink:href="#TimesNewRomanPSMT-31" transform="translate(2470.019531 0)"/>
     <use xlink:href="#TimesNewRomanPSMT-39" transform="translate(2520.019531 0)"/>
     <use xlink:href="#TimesNewRomanPSMT-32" transform="translate(2570.019531 0)"/>
     <use xlink:href="#TimesNewRomanPSMT-2e" transform="translate(2620.019531 0)"/>
     <use xlink:href="#TimesNewRomanPSMT-33" transform="translate(2645.019531 0)"/>
     <use xlink:href="#TimesNewRomanPSMT-2d" transform="translate(2695.019531 0)"/>
     <use xlink:href="#TimesNewRomanPSMT-31" transform="translate(2728.320312 0)"/>
     <use xlink:href="#TimesNewRomanPSMT-29" transform="translate(2778.320312 0)"/>
     <use xlink:href="#TimesNewRomanPSMT-5f" transform="translate(2811.621094 0)"/>
     <use xlink:href="#TimesNewRomanPSMT-63" transform="translate(2861.621094 0)"/>
     <use xlink:href="#TimesNewRomanPSMT-61" transform="translate(2906.005859 0)"/>
     <use xlink:href="#TimesNewRomanPSMT-74" transform="translate(2950.390625 0)"/>
     <use xlink:href="#TimesNewRomanPSMT-2d" transform="translate(2978.173828 0)"/>
     <use xlink:href="#TimesNewRomanPSMT-64" transform="translate(3011.474609 0)"/>
     <use xlink:href="#TimesNewRomanPSMT-6f" transform="translate(3061.474609 0)"/>
     <use xlink:href="#TimesNewRomanPSMT-67" transform="translate(3111.474609 0)"/>
    </g>
   </g>
   <g id="legend_1">
    <g id="patch_7">
     <path d="M 261.353875 300.6435 
L 461.911375 300.6435 
Q 466.311375 300.6435 466.311375 296.2435 
L 466.311375 236.190375 
Q 466.311375 231.790375 461.911375 231.790375 
L 261.353875 231.790375 
Q 256.953875 231.790375 256.953875 236.190375 
L 256.953875 296.2435 
Q 256.953875 300.6435 261.353875 300.6435 
z
" style="fill: #ffffff; opacity: 0.8; stroke: #cccccc; stroke-linejoin: miter"/>
    </g>
    <g id="line2d_21">
     <path d="M 265.753875 248.290375 
L 287.753875 248.290375 
L 309.753875 248.290375 
" style="fill: none; stroke: #ffa500; stroke-width: 1.5; stroke-linecap: square"/>
    </g>
    <g id="text_13">
     <!-- Training loss -->
     <g transform="translate(327.353875 255.990375) scale(0.22 -0.22)">
      <defs>
       <path id="TimesNewRomanPSMT-54" d="M 3703 4238 
L 3750 3244 
L 3631 3244 
Q 3597 3506 3538 3619 
Q 3441 3800 3280 3886 
Q 3119 3972 2856 3972 
L 2259 3972 
L 2259 734 
Q 2259 344 2344 247 
Q 2463 116 2709 116 
L 2856 116 
L 2856 0 
L 1059 0 
L 1059 116 
L 1209 116 
Q 1478 116 1591 278 
Q 1659 378 1659 734 
L 1659 3972 
L 1150 3972 
Q 853 3972 728 3928 
Q 566 3869 450 3700 
Q 334 3531 313 3244 
L 194 3244 
L 244 4238 
L 3703 4238 
z
" transform="scale(0.015625)"/>
       <path id="TimesNewRomanPSMT-69" d="M 928 4444 
Q 1059 4444 1151 4351 
Q 1244 4259 1244 4128 
Q 1244 3997 1151 3903 
Q 1059 3809 928 3809 
Q 797 3809 703 3903 
Q 609 3997 609 4128 
Q 609 4259 701 4351 
Q 794 4444 928 4444 
z
M 1188 2947 
L 1188 647 
Q 1188 378 1227 289 
Q 1266 200 1342 156 
Q 1419 113 1622 113 
L 1622 0 
L 231 0 
L 231 113 
Q 441 113 512 153 
Q 584 194 626 287 
Q 669 381 669 647 
L 669 1750 
Q 669 2216 641 2353 
Q 619 2453 572 2492 
Q 525 2531 444 2531 
Q 356 2531 231 2484 
L 188 2597 
L 1050 2947 
L 1188 2947 
z
" transform="scale(0.015625)"/>
       <path id="TimesNewRomanPSMT-6e" d="M 1034 2341 
Q 1538 2947 1994 2947 
Q 2228 2947 2397 2830 
Q 2566 2713 2666 2444 
Q 2734 2256 2734 1869 
L 2734 647 
Q 2734 375 2778 278 
Q 2813 200 2889 156 
Q 2966 113 3172 113 
L 3172 0 
L 1756 0 
L 1756 113 
L 1816 113 
Q 2016 113 2095 173 
Q 2175 234 2206 353 
Q 2219 400 2219 647 
L 2219 1819 
Q 2219 2209 2117 2386 
Q 2016 2563 1775 2563 
Q 1403 2563 1034 2156 
L 1034 647 
Q 1034 356 1069 288 
Q 1113 197 1189 155 
Q 1266 113 1500 113 
L 1500 0 
L 84 0 
L 84 113 
L 147 113 
Q 366 113 442 223 
Q 519 334 519 647 
L 519 1709 
Q 519 2225 495 2337 
Q 472 2450 423 2490 
Q 375 2531 294 2531 
Q 206 2531 84 2484 
L 38 2597 
L 900 2947 
L 1034 2947 
L 1034 2341 
z
" transform="scale(0.015625)"/>
      </defs>
      <use xlink:href="#TimesNewRomanPSMT-54"/>
      <use xlink:href="#TimesNewRomanPSMT-72" transform="translate(57.583984 0)"/>
      <use xlink:href="#TimesNewRomanPSMT-61" transform="translate(90.884766 0)"/>
      <use xlink:href="#TimesNewRomanPSMT-69" transform="translate(135.269531 0)"/>
      <use xlink:href="#TimesNewRomanPSMT-6e" transform="translate(163.052734 0)"/>
      <use xlink:href="#TimesNewRomanPSMT-69" transform="translate(213.052734 0)"/>
      <use xlink:href="#TimesNewRomanPSMT-6e" transform="translate(240.835938 0)"/>
      <use xlink:href="#TimesNewRomanPSMT-67" transform="translate(290.835938 0)"/>
      <use xlink:href="#TimesNewRomanPSMT-20" transform="translate(340.835938 0)"/>
      <use xlink:href="#TimesNewRomanPSMT-6c" transform="translate(365.835938 0)"/>
      <use xlink:href="#TimesNewRomanPSMT-6f" transform="translate(393.619141 0)"/>
      <use xlink:href="#TimesNewRomanPSMT-73" transform="translate(443.619141 0)"/>
      <use xlink:href="#TimesNewRomanPSMT-73" transform="translate(482.535156 0)"/>
     </g>
    </g>
    <g id="line2d_22">
     <path d="M 265.753875 279.437562 
L 287.753875 279.437562 
L 309.753875 279.437562 
" style="fill: none; stroke: #008000; stroke-width: 1.5; stroke-linecap: square"/>
    </g>
    <g id="text_14">
     <!-- Validation loss -->
     <g transform="translate(327.353875 287.137562) scale(0.22 -0.22)">
      <defs>
       <path id="TimesNewRomanPSMT-56" d="M 4544 4238 
L 4544 4122 
Q 4319 4081 4203 3978 
Q 4038 3825 3909 3509 
L 2431 -97 
L 2316 -97 
L 728 3556 
Q 606 3838 556 3900 
Q 478 3997 364 4051 
Q 250 4106 56 4122 
L 56 4238 
L 1788 4238 
L 1788 4122 
Q 1494 4094 1406 4022 
Q 1319 3950 1319 3838 
Q 1319 3681 1463 3350 
L 2541 866 
L 3541 3319 
Q 3688 3681 3688 3822 
Q 3688 3913 3597 3995 
Q 3506 4078 3291 4113 
Q 3275 4116 3238 4122 
L 3238 4238 
L 4544 4238 
z
" transform="scale(0.015625)"/>
      </defs>
      <use xlink:href="#TimesNewRomanPSMT-56"/>
      <use xlink:href="#TimesNewRomanPSMT-61" transform="translate(61.091797 0)"/>
      <use xlink:href="#TimesNewRomanPSMT-6c" transform="translate(105.476562 0)"/>
      <use xlink:href="#TimesNewRomanPSMT-69" transform="translate(133.259766 0)"/>
      <use xlink:href="#TimesNewRomanPSMT-64" transform="translate(161.042969 0)"/>
      <use xlink:href="#TimesNewRomanPSMT-61" transform="translate(211.042969 0)"/>
      <use xlink:href="#TimesNewRomanPSMT-74" transform="translate(255.427734 0)"/>
      <use xlink:href="#TimesNewRomanPSMT-69" transform="translate(283.210938 0)"/>
      <use xlink:href="#TimesNewRomanPSMT-6f" transform="translate(310.994141 0)"/>
      <use xlink:href="#TimesNewRomanPSMT-6e" transform="translate(360.994141 0)"/>
      <use xlink:href="#TimesNewRomanPSMT-20" transform="translate(410.994141 0)"/>
      <use xlink:href="#TimesNewRomanPSMT-6c" transform="translate(435.994141 0)"/>
      <use xlink:href="#TimesNewRomanPSMT-6f" transform="translate(463.777344 0)"/>
      <use xlink:href="#TimesNewRomanPSMT-73" transform="translate(513.777344 0)"/>
      <use xlink:href="#TimesNewRomanPSMT-73" transform="translate(552.693359 0)"/>
     </g>
    </g>
   </g>
  </g>
 </g>
 <defs>
  <clipPath id="pe37c9a7ba4">
   <rect x="245.953875" y="45.5315" width="357.12" height="266.112"/>
  </clipPath>
 </defs>
</svg>
