<?xml version="1.0" encoding="utf-8" standalone="no"?>
<!DOCTYPE svg PUBLIC "-//W3C//DTD SVG 1.1//EN"
  "http://www.w3.org/Graphics/SVG/1.1/DTD/svg11.dtd">
<svg xmlns:xlink="http://www.w3.org/1999/xlink" width="1017.109125pt" height="369.807875pt" viewBox="0 0 1017.109125 369.807875" xmlns="http://www.w3.org/2000/svg" version="1.1">
 <metadata>
  <rdf:RDF xmlns:dc="http://purl.org/dc/elements/1.1/" xmlns:cc="http://creativecommons.org/ns#" xmlns:rdf="http://www.w3.org/1999/02/22-rdf-syntax-ns#">
   <cc:Work>
    <dc:type rdf:resource="http://purl.org/dc/dcmitype/StillImage"/>
    <dc:date>2025-05-15T10:16:03.232932</dc:date>
    <dc:format>image/svg+xml</dc:format>
    <dc:creator>
     <cc:Agent>
      <dc:title>Matplotlib v3.10.1, https://matplotlib.org/</dc:title>
     </cc:Agent>
    </dc:creator>
   </cc:Work>
  </rdf:RDF>
 </metadata>
 <defs>
  <style type="text/css">*{stroke-linejoin: round; stroke-linecap: butt}</style>
 </defs>
 <g id="figure_1">
  <g id="patch_1">
   <path d="M 0 369.807875 
L 1017.109125 369.807875 
L 1017.109125 0 
L 0 0 
z
" style="fill: #ffffff"/>
  </g>
  <g id="axes_1">
   <g id="patch_2">
    <path d="M 329.994563 311.6435 
L 687.114563 311.6435 
L 687.114563 45.5315 
L 329.994563 45.5315 
z
" style="fill: #ffffff"/>
   </g>
   <g id="matplotlib.axis_1">
    <g id="xtick_1">
     <g id="line2d_1">
      <path d="M 329.994563 311.6435 
L 329.994563 45.5315 
" clip-path="url(#p20247509b9)" style="fill: none; stroke: #b0b0b0; stroke-opacity: 0.3; stroke-width: 0.8; stroke-linecap: square"/>
     </g>
     <g id="line2d_2">
      <defs>
       <path id="mf415dfc273" d="M 0 0 
L 0 3.5 
" style="stroke: #000000; stroke-width: 0.8"/>
      </defs>
      <g>
       <use xlink:href="#mf415dfc273" x="329.994563" y="311.6435" style="stroke: #000000; stroke-width: 0.8"/>
      </g>
     </g>
     <g id="text_1">
      <!-- 0 -->
      <g transform="translate(324.494563 333.91975) scale(0.22 -0.22)">
       <defs>
        <path id="TimesNewRomanPSMT-30" d="M 231 2094 
Q 231 2819 450 3342 
Q 669 3866 1031 4122 
Q 1313 4325 1613 4325 
Q 2100 4325 2488 3828 
Q 2972 3213 2972 2159 
Q 2972 1422 2759 906 
Q 2547 391 2217 158 
Q 1888 -75 1581 -75 
Q 975 -75 572 641 
Q 231 1244 231 2094 
z
M 844 2016 
Q 844 1141 1059 588 
Q 1238 122 1591 122 
Q 1759 122 1940 273 
Q 2122 425 2216 781 
Q 2359 1319 2359 2297 
Q 2359 3022 2209 3506 
Q 2097 3866 1919 4016 
Q 1791 4119 1609 4119 
Q 1397 4119 1231 3928 
Q 1006 3669 925 3112 
Q 844 2556 844 2016 
z
" transform="scale(0.015625)"/>
       </defs>
       <use xlink:href="#TimesNewRomanPSMT-30"/>
      </g>
     </g>
    </g>
    <g id="xtick_2">
     <g id="line2d_3">
      <path d="M 406.629756 311.6435 
L 406.629756 45.5315 
" clip-path="url(#p20247509b9)" style="fill: none; stroke: #b0b0b0; stroke-opacity: 0.3; stroke-width: 0.8; stroke-linecap: square"/>
     </g>
     <g id="line2d_4">
      <g>
       <use xlink:href="#mf415dfc273" x="406.629756" y="311.6435" style="stroke: #000000; stroke-width: 0.8"/>
      </g>
     </g>
     <g id="text_2">
      <!-- 2500 -->
      <g transform="translate(384.629756 333.91975) scale(0.22 -0.22)">
       <defs>
        <path id="TimesNewRomanPSMT-32" d="M 2934 816 
L 2638 0 
L 138 0 
L 138 116 
Q 1241 1122 1691 1759 
Q 2141 2397 2141 2925 
Q 2141 3328 1894 3587 
Q 1647 3847 1303 3847 
Q 991 3847 742 3664 
Q 494 3481 375 3128 
L 259 3128 
Q 338 3706 661 4015 
Q 984 4325 1469 4325 
Q 1984 4325 2329 3994 
Q 2675 3663 2675 3213 
Q 2675 2891 2525 2569 
Q 2294 2063 1775 1497 
Q 997 647 803 472 
L 1909 472 
Q 2247 472 2383 497 
Q 2519 522 2628 598 
Q 2738 675 2819 816 
L 2934 816 
z
" transform="scale(0.015625)"/>
        <path id="TimesNewRomanPSMT-35" d="M 2778 4238 
L 2534 3706 
L 1259 3706 
L 981 3138 
Q 1809 3016 2294 2522 
Q 2709 2097 2709 1522 
Q 2709 1188 2573 903 
Q 2438 619 2231 419 
Q 2025 219 1772 97 
Q 1413 -75 1034 -75 
Q 653 -75 479 54 
Q 306 184 306 341 
Q 306 428 378 495 
Q 450 563 559 563 
Q 641 563 702 538 
Q 763 513 909 409 
Q 1144 247 1384 247 
Q 1750 247 2026 523 
Q 2303 800 2303 1197 
Q 2303 1581 2056 1914 
Q 1809 2247 1375 2428 
Q 1034 2569 447 2591 
L 1259 4238 
L 2778 4238 
z
" transform="scale(0.015625)"/>
       </defs>
       <use xlink:href="#TimesNewRomanPSMT-32"/>
       <use xlink:href="#TimesNewRomanPSMT-35" transform="translate(50 0)"/>
       <use xlink:href="#TimesNewRomanPSMT-30" transform="translate(100 0)"/>
       <use xlink:href="#TimesNewRomanPSMT-30" transform="translate(150 0)"/>
      </g>
     </g>
    </g>
    <g id="xtick_3">
     <g id="line2d_5">
      <path d="M 483.264949 311.6435 
L 483.264949 45.5315 
" clip-path="url(#p20247509b9)" style="fill: none; stroke: #b0b0b0; stroke-opacity: 0.3; stroke-width: 0.8; stroke-linecap: square"/>
     </g>
     <g id="line2d_6">
      <g>
       <use xlink:href="#mf415dfc273" x="483.264949" y="311.6435" style="stroke: #000000; stroke-width: 0.8"/>
      </g>
     </g>
     <g id="text_3">
      <!-- 5000 -->
      <g transform="translate(461.264949 333.91975) scale(0.22 -0.22)">
       <use xlink:href="#TimesNewRomanPSMT-35"/>
       <use xlink:href="#TimesNewRomanPSMT-30" transform="translate(50 0)"/>
       <use xlink:href="#TimesNewRomanPSMT-30" transform="translate(100 0)"/>
       <use xlink:href="#TimesNewRomanPSMT-30" transform="translate(150 0)"/>
      </g>
     </g>
    </g>
    <g id="xtick_4">
     <g id="line2d_7">
      <path d="M 559.900142 311.6435 
L 559.900142 45.5315 
" clip-path="url(#p20247509b9)" style="fill: none; stroke: #b0b0b0; stroke-opacity: 0.3; stroke-width: 0.8; stroke-linecap: square"/>
     </g>
     <g id="line2d_8">
      <g>
       <use xlink:href="#mf415dfc273" x="559.900142" y="311.6435" style="stroke: #000000; stroke-width: 0.8"/>
      </g>
     </g>
     <g id="text_4">
      <!-- 7500 -->
      <g transform="translate(537.900142 333.91975) scale(0.22 -0.22)">
       <defs>
        <path id="TimesNewRomanPSMT-37" d="M 644 4238 
L 2916 4238 
L 2916 4119 
L 1503 -88 
L 1153 -88 
L 2419 3728 
L 1253 3728 
Q 900 3728 750 3644 
Q 488 3500 328 3200 
L 238 3234 
L 644 4238 
z
" transform="scale(0.015625)"/>
       </defs>
       <use xlink:href="#TimesNewRomanPSMT-37"/>
       <use xlink:href="#TimesNewRomanPSMT-35" transform="translate(50 0)"/>
       <use xlink:href="#TimesNewRomanPSMT-30" transform="translate(100 0)"/>
       <use xlink:href="#TimesNewRomanPSMT-30" transform="translate(150 0)"/>
      </g>
     </g>
    </g>
    <g id="xtick_5">
     <g id="line2d_9">
      <path d="M 636.535335 311.6435 
L 636.535335 45.5315 
" clip-path="url(#p20247509b9)" style="fill: none; stroke: #b0b0b0; stroke-opacity: 0.3; stroke-width: 0.8; stroke-linecap: square"/>
     </g>
     <g id="line2d_10">
      <g>
       <use xlink:href="#mf415dfc273" x="636.535335" y="311.6435" style="stroke: #000000; stroke-width: 0.8"/>
      </g>
     </g>
     <g id="text_5">
      <!-- 10000 -->
      <g transform="translate(609.035335 333.91975) scale(0.22 -0.22)">
       <defs>
        <path id="TimesNewRomanPSMT-31" d="M 750 3822 
L 1781 4325 
L 1884 4325 
L 1884 747 
Q 1884 391 1914 303 
Q 1944 216 2037 169 
Q 2131 122 2419 116 
L 2419 0 
L 825 0 
L 825 116 
Q 1125 122 1212 167 
Q 1300 213 1334 289 
Q 1369 366 1369 747 
L 1369 3034 
Q 1369 3497 1338 3628 
Q 1316 3728 1258 3775 
Q 1200 3822 1119 3822 
Q 1003 3822 797 3725 
L 750 3822 
z
" transform="scale(0.015625)"/>
       </defs>
       <use xlink:href="#TimesNewRomanPSMT-31"/>
       <use xlink:href="#TimesNewRomanPSMT-30" transform="translate(50 0)"/>
       <use xlink:href="#TimesNewRomanPSMT-30" transform="translate(100 0)"/>
       <use xlink:href="#TimesNewRomanPSMT-30" transform="translate(150 0)"/>
       <use xlink:href="#TimesNewRomanPSMT-30" transform="translate(200 0)"/>
      </g>
     </g>
    </g>
    <g id="text_6">
     <!-- Number of iterations -->
     <g transform="translate(416.912531 357.901937) scale(0.22 -0.22)">
      <defs>
       <path id="TimesNewRomanPSMT-4e" d="M -84 4238 
L 1066 4238 
L 3656 1059 
L 3656 3503 
Q 3656 3894 3569 3991 
Q 3453 4122 3203 4122 
L 3056 4122 
L 3056 4238 
L 4531 4238 
L 4531 4122 
L 4381 4122 
Q 4113 4122 4000 3959 
Q 3931 3859 3931 3503 
L 3931 -69 
L 3819 -69 
L 1025 3344 
L 1025 734 
Q 1025 344 1109 247 
Q 1228 116 1475 116 
L 1625 116 
L 1625 0 
L 150 0 
L 150 116 
L 297 116 
Q 569 116 681 278 
Q 750 378 750 734 
L 750 3681 
Q 566 3897 470 3965 
Q 375 4034 191 4094 
Q 100 4122 -84 4122 
L -84 4238 
z
" transform="scale(0.015625)"/>
       <path id="TimesNewRomanPSMT-75" d="M 2709 2863 
L 2709 1128 
Q 2709 631 2732 520 
Q 2756 409 2807 365 
Q 2859 322 2928 322 
Q 3025 322 3147 375 
L 3191 266 
L 2334 -88 
L 2194 -88 
L 2194 519 
Q 1825 119 1631 15 
Q 1438 -88 1222 -88 
Q 981 -88 804 51 
Q 628 191 559 409 
Q 491 628 491 1028 
L 491 2306 
Q 491 2509 447 2587 
Q 403 2666 317 2708 
Q 231 2750 6 2747 
L 6 2863 
L 1009 2863 
L 1009 947 
Q 1009 547 1148 422 
Q 1288 297 1484 297 
Q 1619 297 1789 381 
Q 1959 466 2194 703 
L 2194 2325 
Q 2194 2569 2105 2655 
Q 2016 2741 1734 2747 
L 1734 2863 
L 2709 2863 
z
" transform="scale(0.015625)"/>
       <path id="TimesNewRomanPSMT-6d" d="M 1050 2338 
Q 1363 2650 1419 2697 
Q 1559 2816 1721 2881 
Q 1884 2947 2044 2947 
Q 2313 2947 2506 2790 
Q 2700 2634 2766 2338 
Q 3088 2713 3309 2830 
Q 3531 2947 3766 2947 
Q 3994 2947 4170 2830 
Q 4347 2713 4450 2447 
Q 4519 2266 4519 1878 
L 4519 647 
Q 4519 378 4559 278 
Q 4591 209 4675 161 
Q 4759 113 4950 113 
L 4950 0 
L 3538 0 
L 3538 113 
L 3597 113 
Q 3781 113 3884 184 
Q 3956 234 3988 344 
Q 4000 397 4000 647 
L 4000 1878 
Q 4000 2228 3916 2372 
Q 3794 2572 3525 2572 
Q 3359 2572 3192 2489 
Q 3025 2406 2788 2181 
L 2781 2147 
L 2788 2013 
L 2788 647 
Q 2788 353 2820 281 
Q 2853 209 2943 161 
Q 3034 113 3253 113 
L 3253 0 
L 1806 0 
L 1806 113 
Q 2044 113 2133 169 
Q 2222 225 2256 338 
Q 2272 391 2272 647 
L 2272 1878 
Q 2272 2228 2169 2381 
Q 2031 2581 1784 2581 
Q 1616 2581 1450 2491 
Q 1191 2353 1050 2181 
L 1050 647 
Q 1050 366 1089 281 
Q 1128 197 1204 155 
Q 1281 113 1516 113 
L 1516 0 
L 100 0 
L 100 113 
Q 297 113 375 155 
Q 453 197 493 289 
Q 534 381 534 647 
L 534 1741 
Q 534 2213 506 2350 
Q 484 2453 437 2492 
Q 391 2531 309 2531 
Q 222 2531 100 2484 
L 53 2597 
L 916 2947 
L 1050 2947 
L 1050 2338 
z
" transform="scale(0.015625)"/>
       <path id="TimesNewRomanPSMT-62" d="M 984 2369 
Q 1400 2947 1881 2947 
Q 2322 2947 2650 2570 
Q 2978 2194 2978 1541 
Q 2978 778 2472 313 
Q 2038 -88 1503 -88 
Q 1253 -88 995 3 
Q 738 94 469 275 
L 469 3241 
Q 469 3728 445 3840 
Q 422 3953 372 3993 
Q 322 4034 247 4034 
Q 159 4034 28 3984 
L -16 4094 
L 844 4444 
L 984 4444 
L 984 2369 
z
M 984 2169 
L 984 456 
Q 1144 300 1314 220 
Q 1484 141 1663 141 
Q 1947 141 2192 453 
Q 2438 766 2438 1363 
Q 2438 1913 2192 2208 
Q 1947 2503 1634 2503 
Q 1469 2503 1303 2419 
Q 1178 2356 984 2169 
z
" transform="scale(0.015625)"/>
       <path id="TimesNewRomanPSMT-65" d="M 681 1784 
Q 678 1147 991 784 
Q 1303 422 1725 422 
Q 2006 422 2214 576 
Q 2422 731 2563 1106 
L 2659 1044 
Q 2594 616 2278 264 
Q 1963 -88 1488 -88 
Q 972 -88 605 314 
Q 238 716 238 1394 
Q 238 2128 614 2539 
Q 991 2950 1559 2950 
Q 2041 2950 2350 2633 
Q 2659 2316 2659 1784 
L 681 1784 
z
M 681 1966 
L 2006 1966 
Q 1991 2241 1941 2353 
Q 1863 2528 1708 2628 
Q 1553 2728 1384 2728 
Q 1125 2728 920 2526 
Q 716 2325 681 1966 
z
" transform="scale(0.015625)"/>
       <path id="TimesNewRomanPSMT-72" d="M 1038 2947 
L 1038 2303 
Q 1397 2947 1775 2947 
Q 1947 2947 2059 2842 
Q 2172 2738 2172 2600 
Q 2172 2478 2090 2393 
Q 2009 2309 1897 2309 
Q 1788 2309 1652 2417 
Q 1516 2525 1450 2525 
Q 1394 2525 1328 2463 
Q 1188 2334 1038 2041 
L 1038 669 
Q 1038 431 1097 309 
Q 1138 225 1241 169 
Q 1344 113 1538 113 
L 1538 0 
L 72 0 
L 72 113 
Q 291 113 397 181 
Q 475 231 506 341 
Q 522 394 522 644 
L 522 1753 
Q 522 2253 501 2348 
Q 481 2444 426 2487 
Q 372 2531 291 2531 
Q 194 2531 72 2484 
L 41 2597 
L 906 2947 
L 1038 2947 
z
" transform="scale(0.015625)"/>
       <path id="TimesNewRomanPSMT-20" transform="scale(0.015625)"/>
       <path id="TimesNewRomanPSMT-6f" d="M 1600 2947 
Q 2250 2947 2644 2453 
Q 2978 2031 2978 1484 
Q 2978 1100 2793 706 
Q 2609 313 2286 112 
Q 1963 -88 1566 -88 
Q 919 -88 538 428 
Q 216 863 216 1403 
Q 216 1797 411 2186 
Q 606 2575 925 2761 
Q 1244 2947 1600 2947 
z
M 1503 2744 
Q 1338 2744 1170 2645 
Q 1003 2547 900 2300 
Q 797 2053 797 1666 
Q 797 1041 1045 587 
Q 1294 134 1700 134 
Q 2003 134 2200 384 
Q 2397 634 2397 1244 
Q 2397 2006 2069 2444 
Q 1847 2744 1503 2744 
z
" transform="scale(0.015625)"/>
       <path id="TimesNewRomanPSMT-66" d="M 1319 2638 
L 1319 756 
Q 1319 356 1406 250 
Q 1522 113 1716 113 
L 1975 113 
L 1975 0 
L 266 0 
L 266 113 
L 394 113 
Q 519 113 622 175 
Q 725 238 764 344 
Q 803 450 803 756 
L 803 2638 
L 247 2638 
L 247 2863 
L 803 2863 
L 803 3050 
Q 803 3478 940 3775 
Q 1078 4072 1361 4255 
Q 1644 4438 1997 4438 
Q 2325 4438 2600 4225 
Q 2781 4084 2781 3909 
Q 2781 3816 2700 3733 
Q 2619 3650 2525 3650 
Q 2453 3650 2373 3701 
Q 2294 3753 2178 3923 
Q 2063 4094 1966 4153 
Q 1869 4213 1750 4213 
Q 1606 4213 1506 4136 
Q 1406 4059 1362 3898 
Q 1319 3738 1319 3069 
L 1319 2863 
L 2056 2863 
L 2056 2638 
L 1319 2638 
z
" transform="scale(0.015625)"/>
       <path id="TimesNewRomanPSMT-69" d="M 928 4444 
Q 1059 4444 1151 4351 
Q 1244 4259 1244 4128 
Q 1244 3997 1151 3903 
Q 1059 3809 928 3809 
Q 797 3809 703 3903 
Q 609 3997 609 4128 
Q 609 4259 701 4351 
Q 794 4444 928 4444 
z
M 1188 2947 
L 1188 647 
Q 1188 378 1227 289 
Q 1266 200 1342 156 
Q 1419 113 1622 113 
L 1622 0 
L 231 0 
L 231 113 
Q 441 113 512 153 
Q 584 194 626 287 
Q 669 381 669 647 
L 669 1750 
Q 669 2216 641 2353 
Q 619 2453 572 2492 
Q 525 2531 444 2531 
Q 356 2531 231 2484 
L 188 2597 
L 1050 2947 
L 1188 2947 
z
" transform="scale(0.015625)"/>
       <path id="TimesNewRomanPSMT-74" d="M 1031 3803 
L 1031 2863 
L 1700 2863 
L 1700 2644 
L 1031 2644 
L 1031 788 
Q 1031 509 1111 412 
Q 1191 316 1316 316 
Q 1419 316 1516 380 
Q 1613 444 1666 569 
L 1788 569 
Q 1678 263 1478 108 
Q 1278 -47 1066 -47 
Q 922 -47 784 33 
Q 647 113 581 261 
Q 516 409 516 719 
L 516 2644 
L 63 2644 
L 63 2747 
Q 234 2816 414 2980 
Q 594 3144 734 3369 
Q 806 3488 934 3803 
L 1031 3803 
z
" transform="scale(0.015625)"/>
       <path id="TimesNewRomanPSMT-61" d="M 1822 413 
Q 1381 72 1269 19 
Q 1100 -59 909 -59 
Q 613 -59 420 144 
Q 228 347 228 678 
Q 228 888 322 1041 
Q 450 1253 767 1440 
Q 1084 1628 1822 1897 
L 1822 2009 
Q 1822 2438 1686 2597 
Q 1550 2756 1291 2756 
Q 1094 2756 978 2650 
Q 859 2544 859 2406 
L 866 2225 
Q 866 2081 792 2003 
Q 719 1925 600 1925 
Q 484 1925 411 2006 
Q 338 2088 338 2228 
Q 338 2497 613 2722 
Q 888 2947 1384 2947 
Q 1766 2947 2009 2819 
Q 2194 2722 2281 2516 
Q 2338 2381 2338 1966 
L 2338 994 
Q 2338 584 2353 492 
Q 2369 400 2405 369 
Q 2441 338 2488 338 
Q 2538 338 2575 359 
Q 2641 400 2828 588 
L 2828 413 
Q 2478 -56 2159 -56 
Q 2006 -56 1915 50 
Q 1825 156 1822 413 
z
M 1822 616 
L 1822 1706 
Q 1350 1519 1213 1441 
Q 966 1303 859 1153 
Q 753 1003 753 825 
Q 753 600 887 451 
Q 1022 303 1197 303 
Q 1434 303 1822 616 
z
" transform="scale(0.015625)"/>
       <path id="TimesNewRomanPSMT-6e" d="M 1034 2341 
Q 1538 2947 1994 2947 
Q 2228 2947 2397 2830 
Q 2566 2713 2666 2444 
Q 2734 2256 2734 1869 
L 2734 647 
Q 2734 375 2778 278 
Q 2813 200 2889 156 
Q 2966 113 3172 113 
L 3172 0 
L 1756 0 
L 1756 113 
L 1816 113 
Q 2016 113 2095 173 
Q 2175 234 2206 353 
Q 2219 400 2219 647 
L 2219 1819 
Q 2219 2209 2117 2386 
Q 2016 2563 1775 2563 
Q 1403 2563 1034 2156 
L 1034 647 
Q 1034 356 1069 288 
Q 1113 197 1189 155 
Q 1266 113 1500 113 
L 1500 0 
L 84 0 
L 84 113 
L 147 113 
Q 366 113 442 223 
Q 519 334 519 647 
L 519 1709 
Q 519 2225 495 2337 
Q 472 2450 423 2490 
Q 375 2531 294 2531 
Q 206 2531 84 2484 
L 38 2597 
L 900 2947 
L 1034 2947 
L 1034 2341 
z
" transform="scale(0.015625)"/>
       <path id="TimesNewRomanPSMT-73" d="M 2050 2947 
L 2050 1972 
L 1947 1972 
Q 1828 2431 1642 2597 
Q 1456 2763 1169 2763 
Q 950 2763 815 2647 
Q 681 2531 681 2391 
Q 681 2216 781 2091 
Q 878 1963 1175 1819 
L 1631 1597 
Q 2266 1288 2266 781 
Q 2266 391 1970 151 
Q 1675 -88 1309 -88 
Q 1047 -88 709 6 
Q 606 38 541 38 
Q 469 38 428 -44 
L 325 -44 
L 325 978 
L 428 978 
Q 516 541 762 319 
Q 1009 97 1316 97 
Q 1531 97 1667 223 
Q 1803 350 1803 528 
Q 1803 744 1651 891 
Q 1500 1038 1047 1263 
Q 594 1488 453 1669 
Q 313 1847 313 2119 
Q 313 2472 555 2709 
Q 797 2947 1181 2947 
Q 1350 2947 1591 2875 
Q 1750 2828 1803 2828 
Q 1853 2828 1881 2850 
Q 1909 2872 1947 2947 
L 2050 2947 
z
" transform="scale(0.015625)"/>
      </defs>
      <use xlink:href="#TimesNewRomanPSMT-4e"/>
      <use xlink:href="#TimesNewRomanPSMT-75" transform="translate(72.216797 0)"/>
      <use xlink:href="#TimesNewRomanPSMT-6d" transform="translate(122.216797 0)"/>
      <use xlink:href="#TimesNewRomanPSMT-62" transform="translate(200 0)"/>
      <use xlink:href="#TimesNewRomanPSMT-65" transform="translate(250 0)"/>
      <use xlink:href="#TimesNewRomanPSMT-72" transform="translate(294.384766 0)"/>
      <use xlink:href="#TimesNewRomanPSMT-20" transform="translate(327.685547 0)"/>
      <use xlink:href="#TimesNewRomanPSMT-6f" transform="translate(352.685547 0)"/>
      <use xlink:href="#TimesNewRomanPSMT-66" transform="translate(402.685547 0)"/>
      <use xlink:href="#TimesNewRomanPSMT-20" transform="translate(435.986328 0)"/>
      <use xlink:href="#TimesNewRomanPSMT-69" transform="translate(460.986328 0)"/>
      <use xlink:href="#TimesNewRomanPSMT-74" transform="translate(488.769531 0)"/>
      <use xlink:href="#TimesNewRomanPSMT-65" transform="translate(516.552734 0)"/>
      <use xlink:href="#TimesNewRomanPSMT-72" transform="translate(560.9375 0)"/>
      <use xlink:href="#TimesNewRomanPSMT-61" transform="translate(594.238281 0)"/>
      <use xlink:href="#TimesNewRomanPSMT-74" transform="translate(638.623047 0)"/>
      <use xlink:href="#TimesNewRomanPSMT-69" transform="translate(666.40625 0)"/>
      <use xlink:href="#TimesNewRomanPSMT-6f" transform="translate(694.189453 0)"/>
      <use xlink:href="#TimesNewRomanPSMT-6e" transform="translate(744.189453 0)"/>
      <use xlink:href="#TimesNewRomanPSMT-73" transform="translate(794.189453 0)"/>
     </g>
    </g>
   </g>
   <g id="matplotlib.axis_2">
    <g id="ytick_1">
     <g id="line2d_11">
      <path d="M 329.994563 311.6435 
L 687.114563 311.6435 
" clip-path="url(#p20247509b9)" style="fill: none; stroke: #b0b0b0; stroke-opacity: 0.3; stroke-width: 0.8; stroke-linecap: square"/>
     </g>
     <g id="line2d_12">
      <defs>
       <path id="m9f4843d454" d="M 0 0 
L -3.5 0 
" style="stroke: #000000; stroke-width: 0.8"/>
      </defs>
      <g>
       <use xlink:href="#m9f4843d454" x="329.994563" y="311.6435" style="stroke: #000000; stroke-width: 0.8"/>
      </g>
     </g>
     <g id="text_7">
      <!-- 0.0 -->
      <g transform="translate(295.494563 319.281625) scale(0.22 -0.22)">
       <defs>
        <path id="TimesNewRomanPSMT-2e" d="M 800 606 
Q 947 606 1047 504 
Q 1147 403 1147 259 
Q 1147 116 1045 14 
Q 944 -88 800 -88 
Q 656 -88 554 14 
Q 453 116 453 259 
Q 453 406 554 506 
Q 656 606 800 606 
z
" transform="scale(0.015625)"/>
       </defs>
       <use xlink:href="#TimesNewRomanPSMT-30"/>
       <use xlink:href="#TimesNewRomanPSMT-2e" transform="translate(50 0)"/>
       <use xlink:href="#TimesNewRomanPSMT-30" transform="translate(75 0)"/>
      </g>
     </g>
    </g>
    <g id="ytick_2">
     <g id="line2d_13">
      <path d="M 329.994563 285.0323 
L 687.114563 285.0323 
" clip-path="url(#p20247509b9)" style="fill: none; stroke: #b0b0b0; stroke-opacity: 0.3; stroke-width: 0.8; stroke-linecap: square"/>
     </g>
     <g id="line2d_14">
      <g>
       <use xlink:href="#m9f4843d454" x="329.994563" y="285.0323" style="stroke: #000000; stroke-width: 0.8"/>
      </g>
     </g>
     <g id="text_8">
      <!-- 0.1 -->
      <g transform="translate(295.494563 292.670425) scale(0.22 -0.22)">
       <use xlink:href="#TimesNewRomanPSMT-30"/>
       <use xlink:href="#TimesNewRomanPSMT-2e" transform="translate(50 0)"/>
       <use xlink:href="#TimesNewRomanPSMT-31" transform="translate(75 0)"/>
      </g>
     </g>
    </g>
    <g id="ytick_3">
     <g id="line2d_15">
      <path d="M 329.994563 258.4211 
L 687.114563 258.4211 
" clip-path="url(#p20247509b9)" style="fill: none; stroke: #b0b0b0; stroke-opacity: 0.3; stroke-width: 0.8; stroke-linecap: square"/>
     </g>
     <g id="line2d_16">
      <g>
       <use xlink:href="#m9f4843d454" x="329.994563" y="258.4211" style="stroke: #000000; stroke-width: 0.8"/>
      </g>
     </g>
     <g id="text_9">
      <!-- 0.2 -->
      <g transform="translate(295.494563 266.059225) scale(0.22 -0.22)">
       <use xlink:href="#TimesNewRomanPSMT-30"/>
       <use xlink:href="#TimesNewRomanPSMT-2e" transform="translate(50 0)"/>
       <use xlink:href="#TimesNewRomanPSMT-32" transform="translate(75 0)"/>
      </g>
     </g>
    </g>
    <g id="ytick_4">
     <g id="line2d_17">
      <path d="M 329.994563 231.8099 
L 687.114563 231.8099 
" clip-path="url(#p20247509b9)" style="fill: none; stroke: #b0b0b0; stroke-opacity: 0.3; stroke-width: 0.8; stroke-linecap: square"/>
     </g>
     <g id="line2d_18">
      <g>
       <use xlink:href="#m9f4843d454" x="329.994563" y="231.8099" style="stroke: #000000; stroke-width: 0.8"/>
      </g>
     </g>
     <g id="text_10">
      <!-- 0.3 -->
      <g transform="translate(295.494563 239.448025) scale(0.22 -0.22)">
       <defs>
        <path id="TimesNewRomanPSMT-33" d="M 325 3431 
Q 506 3859 782 4092 
Q 1059 4325 1472 4325 
Q 1981 4325 2253 3994 
Q 2459 3747 2459 3466 
Q 2459 3003 1878 2509 
Q 2269 2356 2469 2072 
Q 2669 1788 2669 1403 
Q 2669 853 2319 450 
Q 1863 -75 997 -75 
Q 569 -75 414 31 
Q 259 138 259 259 
Q 259 350 332 419 
Q 406 488 509 488 
Q 588 488 669 463 
Q 722 447 909 348 
Q 1097 250 1169 231 
Q 1284 197 1416 197 
Q 1734 197 1970 444 
Q 2206 691 2206 1028 
Q 2206 1275 2097 1509 
Q 2016 1684 1919 1775 
Q 1784 1900 1550 2001 
Q 1316 2103 1072 2103 
L 972 2103 
L 972 2197 
Q 1219 2228 1467 2375 
Q 1716 2522 1828 2728 
Q 1941 2934 1941 3181 
Q 1941 3503 1739 3701 
Q 1538 3900 1238 3900 
Q 753 3900 428 3381 
L 325 3431 
z
" transform="scale(0.015625)"/>
       </defs>
       <use xlink:href="#TimesNewRomanPSMT-30"/>
       <use xlink:href="#TimesNewRomanPSMT-2e" transform="translate(50 0)"/>
       <use xlink:href="#TimesNewRomanPSMT-33" transform="translate(75 0)"/>
      </g>
     </g>
    </g>
    <g id="ytick_5">
     <g id="line2d_19">
      <path d="M 329.994563 205.1987 
L 687.114563 205.1987 
" clip-path="url(#p20247509b9)" style="fill: none; stroke: #b0b0b0; stroke-opacity: 0.3; stroke-width: 0.8; stroke-linecap: square"/>
     </g>
     <g id="line2d_20">
      <g>
       <use xlink:href="#m9f4843d454" x="329.994563" y="205.1987" style="stroke: #000000; stroke-width: 0.8"/>
      </g>
     </g>
     <g id="text_11">
      <!-- 0.4 -->
      <g transform="translate(295.494563 212.836825) scale(0.22 -0.22)">
       <defs>
        <path id="TimesNewRomanPSMT-34" d="M 2978 1563 
L 2978 1119 
L 2409 1119 
L 2409 0 
L 1894 0 
L 1894 1119 
L 100 1119 
L 100 1519 
L 2066 4325 
L 2409 4325 
L 2409 1563 
L 2978 1563 
z
M 1894 1563 
L 1894 3666 
L 406 1563 
L 1894 1563 
z
" transform="scale(0.015625)"/>
       </defs>
       <use xlink:href="#TimesNewRomanPSMT-30"/>
       <use xlink:href="#TimesNewRomanPSMT-2e" transform="translate(50 0)"/>
       <use xlink:href="#TimesNewRomanPSMT-34" transform="translate(75 0)"/>
      </g>
     </g>
    </g>
    <g id="ytick_6">
     <g id="line2d_21">
      <path d="M 329.994563 178.5875 
L 687.114563 178.5875 
" clip-path="url(#p20247509b9)" style="fill: none; stroke: #b0b0b0; stroke-opacity: 0.3; stroke-width: 0.8; stroke-linecap: square"/>
     </g>
     <g id="line2d_22">
      <g>
       <use xlink:href="#m9f4843d454" x="329.994563" y="178.5875" style="stroke: #000000; stroke-width: 0.8"/>
      </g>
     </g>
     <g id="text_12">
      <!-- 0.5 -->
      <g transform="translate(295.494563 186.225625) scale(0.22 -0.22)">
       <use xlink:href="#TimesNewRomanPSMT-30"/>
       <use xlink:href="#TimesNewRomanPSMT-2e" transform="translate(50 0)"/>
       <use xlink:href="#TimesNewRomanPSMT-35" transform="translate(75 0)"/>
      </g>
     </g>
    </g>
    <g id="ytick_7">
     <g id="line2d_23">
      <path d="M 329.994563 151.9763 
L 687.114563 151.9763 
" clip-path="url(#p20247509b9)" style="fill: none; stroke: #b0b0b0; stroke-opacity: 0.3; stroke-width: 0.8; stroke-linecap: square"/>
     </g>
     <g id="line2d_24">
      <g>
       <use xlink:href="#m9f4843d454" x="329.994563" y="151.9763" style="stroke: #000000; stroke-width: 0.8"/>
      </g>
     </g>
     <g id="text_13">
      <!-- 0.6 -->
      <g transform="translate(295.494563 159.614425) scale(0.22 -0.22)">
       <defs>
        <path id="TimesNewRomanPSMT-36" d="M 2869 4325 
L 2869 4209 
Q 2456 4169 2195 4045 
Q 1934 3922 1679 3669 
Q 1425 3416 1258 3105 
Q 1091 2794 978 2366 
Q 1428 2675 1881 2675 
Q 2316 2675 2634 2325 
Q 2953 1975 2953 1425 
Q 2953 894 2631 456 
Q 2244 -75 1606 -75 
Q 1172 -75 869 213 
Q 275 772 275 1663 
Q 275 2231 503 2743 
Q 731 3256 1154 3653 
Q 1578 4050 1965 4187 
Q 2353 4325 2688 4325 
L 2869 4325 
z
M 925 2138 
Q 869 1716 869 1456 
Q 869 1156 980 804 
Q 1091 453 1309 247 
Q 1469 100 1697 100 
Q 1969 100 2183 356 
Q 2397 613 2397 1088 
Q 2397 1622 2184 2012 
Q 1972 2403 1581 2403 
Q 1463 2403 1327 2353 
Q 1191 2303 925 2138 
z
" transform="scale(0.015625)"/>
       </defs>
       <use xlink:href="#TimesNewRomanPSMT-30"/>
       <use xlink:href="#TimesNewRomanPSMT-2e" transform="translate(50 0)"/>
       <use xlink:href="#TimesNewRomanPSMT-36" transform="translate(75 0)"/>
      </g>
     </g>
    </g>
    <g id="ytick_8">
     <g id="line2d_25">
      <path d="M 329.994563 125.3651 
L 687.114563 125.3651 
" clip-path="url(#p20247509b9)" style="fill: none; stroke: #b0b0b0; stroke-opacity: 0.3; stroke-width: 0.8; stroke-linecap: square"/>
     </g>
     <g id="line2d_26">
      <g>
       <use xlink:href="#m9f4843d454" x="329.994563" y="125.3651" style="stroke: #000000; stroke-width: 0.8"/>
      </g>
     </g>
     <g id="text_14">
      <!-- 0.7 -->
      <g transform="translate(295.494563 133.003225) scale(0.22 -0.22)">
       <use xlink:href="#TimesNewRomanPSMT-30"/>
       <use xlink:href="#TimesNewRomanPSMT-2e" transform="translate(50 0)"/>
       <use xlink:href="#TimesNewRomanPSMT-37" transform="translate(75 0)"/>
      </g>
     </g>
    </g>
    <g id="ytick_9">
     <g id="line2d_27">
      <path d="M 329.994563 98.7539 
L 687.114563 98.7539 
" clip-path="url(#p20247509b9)" style="fill: none; stroke: #b0b0b0; stroke-opacity: 0.3; stroke-width: 0.8; stroke-linecap: square"/>
     </g>
     <g id="line2d_28">
      <g>
       <use xlink:href="#m9f4843d454" x="329.994563" y="98.7539" style="stroke: #000000; stroke-width: 0.8"/>
      </g>
     </g>
     <g id="text_15">
      <!-- 0.8 -->
      <g transform="translate(295.494563 106.392025) scale(0.22 -0.22)">
       <defs>
        <path id="TimesNewRomanPSMT-38" d="M 1228 2134 
Q 725 2547 579 2797 
Q 434 3047 434 3316 
Q 434 3728 753 4026 
Q 1072 4325 1600 4325 
Q 2113 4325 2425 4047 
Q 2738 3769 2738 3413 
Q 2738 3175 2569 2928 
Q 2400 2681 1866 2347 
Q 2416 1922 2594 1678 
Q 2831 1359 2831 1006 
Q 2831 559 2490 242 
Q 2150 -75 1597 -75 
Q 994 -75 656 303 
Q 388 606 388 966 
Q 388 1247 577 1523 
Q 766 1800 1228 2134 
z
M 1719 2469 
Q 2094 2806 2194 3001 
Q 2294 3197 2294 3444 
Q 2294 3772 2109 3958 
Q 1925 4144 1606 4144 
Q 1288 4144 1088 3959 
Q 888 3775 888 3528 
Q 888 3366 970 3203 
Q 1053 3041 1206 2894 
L 1719 2469 
z
M 1375 2016 
Q 1116 1797 991 1539 
Q 866 1281 866 981 
Q 866 578 1086 336 
Q 1306 94 1647 94 
Q 1984 94 2187 284 
Q 2391 475 2391 747 
Q 2391 972 2272 1150 
Q 2050 1481 1375 2016 
z
" transform="scale(0.015625)"/>
       </defs>
       <use xlink:href="#TimesNewRomanPSMT-30"/>
       <use xlink:href="#TimesNewRomanPSMT-2e" transform="translate(50 0)"/>
       <use xlink:href="#TimesNewRomanPSMT-38" transform="translate(75 0)"/>
      </g>
     </g>
    </g>
    <g id="ytick_10">
     <g id="line2d_29">
      <path d="M 329.994563 72.1427 
L 687.114563 72.1427 
" clip-path="url(#p20247509b9)" style="fill: none; stroke: #b0b0b0; stroke-opacity: 0.3; stroke-width: 0.8; stroke-linecap: square"/>
     </g>
     <g id="line2d_30">
      <g>
       <use xlink:href="#m9f4843d454" x="329.994563" y="72.1427" style="stroke: #000000; stroke-width: 0.8"/>
      </g>
     </g>
     <g id="text_16">
      <!-- 0.9 -->
      <g transform="translate(295.494563 79.780825) scale(0.22 -0.22)">
       <defs>
        <path id="TimesNewRomanPSMT-39" d="M 338 -88 
L 338 28 
Q 744 34 1094 217 
Q 1444 400 1770 856 
Q 2097 1313 2225 1859 
Q 1734 1544 1338 1544 
Q 891 1544 572 1889 
Q 253 2234 253 2806 
Q 253 3363 572 3797 
Q 956 4325 1575 4325 
Q 2097 4325 2469 3894 
Q 2925 3359 2925 2575 
Q 2925 1869 2578 1258 
Q 2231 647 1613 244 
Q 1109 -88 516 -88 
L 338 -88 
z
M 2275 2091 
Q 2331 2497 2331 2741 
Q 2331 3044 2228 3395 
Q 2125 3747 1936 3934 
Q 1747 4122 1506 4122 
Q 1228 4122 1018 3872 
Q 809 3622 809 3128 
Q 809 2469 1088 2097 
Q 1291 1828 1588 1828 
Q 1731 1828 1928 1897 
Q 2125 1966 2275 2091 
z
" transform="scale(0.015625)"/>
       </defs>
       <use xlink:href="#TimesNewRomanPSMT-30"/>
       <use xlink:href="#TimesNewRomanPSMT-2e" transform="translate(50 0)"/>
       <use xlink:href="#TimesNewRomanPSMT-39" transform="translate(75 0)"/>
      </g>
     </g>
    </g>
    <g id="ytick_11">
     <g id="line2d_31">
      <path d="M 329.994563 45.5315 
L 687.114563 45.5315 
" clip-path="url(#p20247509b9)" style="fill: none; stroke: #b0b0b0; stroke-opacity: 0.3; stroke-width: 0.8; stroke-linecap: square"/>
     </g>
     <g id="line2d_32">
      <g>
       <use xlink:href="#m9f4843d454" x="329.994563" y="45.5315" style="stroke: #000000; stroke-width: 0.8"/>
      </g>
     </g>
     <g id="text_17">
      <!-- 1.0 -->
      <g transform="translate(295.494563 53.169625) scale(0.22 -0.22)">
       <use xlink:href="#TimesNewRomanPSMT-31"/>
       <use xlink:href="#TimesNewRomanPSMT-2e" transform="translate(50 0)"/>
       <use xlink:href="#TimesNewRomanPSMT-30" transform="translate(75 0)"/>
      </g>
     </g>
    </g>
    <g id="text_18">
     <!-- Accuracy -->
     <g transform="translate(286.747375 220.726094) rotate(-90) scale(0.22 -0.22)">
      <defs>
       <path id="TimesNewRomanPSMT-41" d="M 2928 1419 
L 1288 1419 
L 1000 750 
Q 894 503 894 381 
Q 894 284 986 211 
Q 1078 138 1384 116 
L 1384 0 
L 50 0 
L 50 116 
Q 316 163 394 238 
Q 553 388 747 847 
L 2238 4334 
L 2347 4334 
L 3822 809 
Q 4000 384 4145 257 
Q 4291 131 4550 116 
L 4550 0 
L 2878 0 
L 2878 116 
Q 3131 128 3220 200 
Q 3309 272 3309 375 
Q 3309 513 3184 809 
L 2928 1419 
z
M 2841 1650 
L 2122 3363 
L 1384 1650 
L 2841 1650 
z
" transform="scale(0.015625)"/>
       <path id="TimesNewRomanPSMT-63" d="M 2631 1088 
Q 2516 522 2178 217 
Q 1841 -88 1431 -88 
Q 944 -88 581 321 
Q 219 731 219 1428 
Q 219 2103 620 2525 
Q 1022 2947 1584 2947 
Q 2006 2947 2278 2723 
Q 2550 2500 2550 2259 
Q 2550 2141 2473 2067 
Q 2397 1994 2259 1994 
Q 2075 1994 1981 2113 
Q 1928 2178 1911 2362 
Q 1894 2547 1784 2644 
Q 1675 2738 1481 2738 
Q 1169 2738 978 2506 
Q 725 2200 725 1697 
Q 725 1184 976 792 
Q 1228 400 1656 400 
Q 1963 400 2206 609 
Q 2378 753 2541 1131 
L 2631 1088 
z
" transform="scale(0.015625)"/>
       <path id="TimesNewRomanPSMT-79" d="M 38 2863 
L 1372 2863 
L 1372 2747 
L 1306 2747 
Q 1166 2747 1095 2686 
Q 1025 2625 1025 2534 
Q 1025 2413 1128 2197 
L 1825 753 
L 2466 2334 
Q 2519 2463 2519 2588 
Q 2519 2644 2497 2672 
Q 2472 2706 2419 2726 
Q 2366 2747 2231 2747 
L 2231 2863 
L 3163 2863 
L 3163 2747 
Q 3047 2734 2984 2696 
Q 2922 2659 2847 2556 
Q 2819 2513 2741 2316 
L 1575 -541 
Q 1406 -956 1132 -1168 
Q 859 -1381 606 -1381 
Q 422 -1381 303 -1275 
Q 184 -1169 184 -1031 
Q 184 -900 270 -820 
Q 356 -741 506 -741 
Q 609 -741 788 -809 
Q 913 -856 944 -856 
Q 1038 -856 1148 -759 
Q 1259 -663 1372 -384 
L 1575 113 
L 547 2272 
Q 500 2369 397 2513 
Q 319 2622 269 2659 
Q 197 2709 38 2747 
L 38 2863 
z
" transform="scale(0.015625)"/>
      </defs>
      <use xlink:href="#TimesNewRomanPSMT-41"/>
      <use xlink:href="#TimesNewRomanPSMT-63" transform="translate(72.216797 0)"/>
      <use xlink:href="#TimesNewRomanPSMT-63" transform="translate(116.601562 0)"/>
      <use xlink:href="#TimesNewRomanPSMT-75" transform="translate(160.986328 0)"/>
      <use xlink:href="#TimesNewRomanPSMT-72" transform="translate(210.986328 0)"/>
      <use xlink:href="#TimesNewRomanPSMT-61" transform="translate(244.287109 0)"/>
      <use xlink:href="#TimesNewRomanPSMT-63" transform="translate(288.671875 0)"/>
      <use xlink:href="#TimesNewRomanPSMT-79" transform="translate(333.056641 0)"/>
     </g>
    </g>
   </g>
   <g id="line2d_33">
    <path d="M 329.994563 178.661415 
L 330.301367 154.474799 
L 330.608171 151.931945 
L 331.528583 149.019502 
L 332.448995 147.127144 
L 333.062604 146.60971 
L 333.369408 146.047911 
L 333.676212 146.402733 
L 334.28982 145.663523 
L 334.596624 145.840934 
L 334.903428 145.279151 
L 335.210233 144.968678 
L 335.517037 145.190438 
L 335.823841 144.746918 
L 336.130645 145.10174 
L 336.437449 144.244267 
L 336.744253 144.36253 
L 337.051057 143.845096 
L 337.357861 144.199918 
L 337.664666 144.25905 
L 337.97147 143.978158 
L 338.278274 144.022507 
L 338.585078 143.697251 
L 338.891882 143.889445 
L 339.198686 143.386794 
L 339.50549 143.357228 
L 339.812294 143.564205 
L 340.425903 143.091119 
L 340.732707 143.327662 
L 341.039511 143.165034 
L 341.346315 142.618034 
L 341.653119 142.484972 
L 342.573532 142.573669 
L 342.880336 142.263212 
L 343.18714 142.263212 
L 344.414356 141.642281 
L 344.72116 141.834475 
L 345.027965 141.627498 
L 345.334769 141.597932 
L 345.641573 141.24311 
L 345.948377 141.68663 
L 346.255181 141.509219 
L 346.561985 141.006568 
L 346.868789 141.110064 
L 347.175593 140.947436 
L 347.482398 140.91787 
L 348.096006 140.548265 
L 348.40281 140.873521 
L 348.709614 140.829157 
L 349.016418 140.91787 
L 349.323222 140.503916 
L 350.243635 140.784808 
L 350.550439 140.311722 
L 350.857243 140.518699 
L 352.084459 140.045614 
L 352.391264 140.223025 
L 353.004872 139.912552 
L 353.311676 140.223025 
L 353.61848 139.661226 
L 353.925284 139.690792 
L 354.232088 139.838637 
L 355.152501 139.676009 
L 355.459305 139.395117 
L 355.766109 139.616877 
L 357.30013 139.439466 
L 357.606934 139.602094 
L 357.913738 139.306404 
L 358.527346 139.395117 
L 358.83415 139.335986 
L 359.140954 139.025512 
L 359.447758 139.217706 
L 359.754563 139.084644 
L 360.061367 139.114226 
L 360.368171 139.262055 
L 360.674975 139.202923 
L 360.981779 138.833319 
L 361.595387 139.099427 
L 362.208995 138.833319 
L 362.5158 138.877667 
L 362.822604 138.803753 
L 363.129408 138.907249 
L 363.436212 138.419365 
L 363.743016 138.596776 
L 364.04982 138.922032 
L 364.356624 138.626342 
L 364.663428 138.56721 
L 364.970233 138.315884 
L 366.504253 138.02021 
L 366.811057 138.168039 
L 367.424666 138.034993 
L 368.345078 138.12369 
L 368.651882 137.783651 
L 369.879099 137.872365 
L 370.492707 137.310566 
L 370.799511 137.547109 
L 371.106315 137.295783 
L 371.413119 137.532326 
L 371.719923 137.310566 
L 372.026727 137.251434 
L 372.333532 137.443628 
L 372.640336 137.295783 
L 372.94714 137.414062 
L 373.253944 137.354915 
L 373.560748 136.793132 
L 373.867552 137.103589 
L 374.174356 136.896612 
L 374.787965 137.207085 
L 375.094769 136.985326 
L 375.401573 137.281 
L 375.708377 137.088806 
L 376.015181 136.660069 
L 376.321985 137.147954 
L 376.628789 136.896612 
L 377.242398 137.103589 
L 377.549202 136.778349 
L 377.856006 136.985326 
L 378.16281 136.95576 
L 378.469614 136.778349 
L 378.776418 136.940977 
L 379.083222 136.630504 
L 379.390026 136.896612 
L 380.003635 136.881829 
L 380.310439 136.571372 
L 380.617243 136.689635 
L 380.924047 136.497457 
L 381.230851 136.630504 
L 381.844459 136.423527 
L 382.151264 136.556589 
L 382.458068 136.231333 
L 382.764872 136.127852 
L 383.071676 136.157418 
L 383.37848 136.334829 
L 383.685284 135.920875 
L 383.992088 136.113069 
L 384.298892 136.142635 
L 384.605697 135.920875 
L 384.912501 136.068721 
L 386.139717 135.861744 
L 386.446521 135.950441 
L 387.06013 135.610402 
L 387.673738 135.89131 
L 387.980542 135.684333 
L 388.287346 135.861744 
L 388.900954 135.743464 
L 389.207758 135.906093 
L 389.514563 135.861744 
L 389.821367 135.536488 
L 390.434975 135.787813 
L 390.741779 135.625201 
L 391.048583 135.89131 
L 391.355387 135.66955 
L 391.662191 135.758247 
L 391.968995 135.713899 
L 392.2758 135.832178 
L 392.582604 135.595619 
L 392.889408 135.832178 
L 393.196212 135.418224 
L 393.503016 135.329511 
L 393.80982 135.625201 
L 394.116624 135.299945 
L 395.037037 135.477356 
L 395.343841 135.506922 
L 395.650645 135.66955 
L 395.957449 135.610402 
L 396.264253 135.758247 
L 396.877861 135.551271 
L 397.184666 135.699116 
L 397.798274 135.536488 
L 398.105078 135.699116 
L 398.411882 135.506922 
L 399.02549 135.699116 
L 399.332294 135.713899 
L 399.639099 135.580836 
L 400.252707 135.610402 
L 401.479923 135.403441 
L 402.093532 135.654767 
L 402.400336 135.506922 
L 402.70714 135.492139 
L 403.013944 135.314728 
L 403.627552 135.270379 
L 404.854769 135.255596 
L 405.161573 135.240813 
L 405.468377 135.388642 
L 406.388789 135.211247 
L 406.695593 135.270379 
L 407.002398 135.048619 
L 407.309202 135.299945 
L 407.616006 135.329511 
L 407.92281 135.1521 
L 408.843222 135.314728 
L 409.150026 135.22603 
L 409.456831 135.019053 
L 409.763635 135.196464 
L 410.377243 135.1521 
L 410.684047 134.826859 
L 410.990851 134.945123 
L 411.297655 134.915557 
L 411.911264 135.122534 
L 412.831676 135.107751 
L 413.13848 134.885991 
L 413.445284 135.078185 
L 414.058892 134.945123 
L 414.672501 134.871208 
L 414.979305 135.1521 
L 415.286109 134.915557 
L 415.592913 135.314728 
L 415.899717 134.826859 
L 416.513325 134.693797 
L 416.82013 134.767728 
L 417.126934 134.575534 
L 417.433738 134.812077 
L 417.740542 134.871208 
L 418.047346 134.590317 
L 418.35415 134.531185 
L 418.660954 134.6051 
L 418.967758 134.797294 
L 419.274563 134.664231 
L 420.194975 134.841642 
L 420.501779 134.472037 
L 420.808583 134.6051 
L 421.115387 134.575534 
L 421.422191 134.398123 
L 421.728995 134.826859 
L 422.342604 134.48682 
L 422.649408 134.900774 
L 423.263016 134.531185 
L 423.56982 134.634666 
L 423.876624 134.915557 
L 425.103841 134.560751 
L 425.717449 134.664231 
L 426.024253 134.427689 
L 426.331057 134.664231 
L 426.637861 134.560751 
L 426.944666 134.693797 
L 427.25147 134.6051 
L 428.78549 134.812077 
L 429.092294 134.48682 
L 430.319511 134.531185 
L 431.853532 134.427689 
L 432.160336 134.265061 
L 432.46714 134.767728 
L 432.773944 134.427689 
L 433.080748 134.619883 
L 433.694356 134.117231 
L 434.00116 134.427689 
L 434.307965 134.279843 
L 434.614769 134.516386 
L 435.228377 134.338991 
L 436.762398 134.412906 
L 437.069202 134.545968 
L 437.376006 134.48682 
L 437.68281 134.250278 
L 437.989614 134.649448 
L 438.910026 134.427689 
L 439.216831 134.560751 
L 439.523635 134.48682 
L 439.830439 134.279843 
L 440.137243 134.324208 
L 440.444047 134.191146 
L 440.750851 134.309425 
L 441.057655 133.998952 
L 441.364459 134.146797 
L 442.591676 134.072867 
L 442.89848 134.205929 
L 443.205284 133.895471 
L 443.818892 133.93982 
L 444.125697 134.013735 
L 444.432501 134.235495 
L 444.739305 134.265061 
L 445.046109 133.984169 
L 445.659717 133.821541 
L 445.966521 134.043301 
L 446.273325 133.969386 
L 446.58013 134.087665 
L 446.886934 134.013735 
L 447.193738 133.762409 
L 447.500542 133.851107 
L 447.807346 134.176363 
L 448.727758 133.644146 
L 449.034563 133.93982 
L 449.341367 133.673712 
L 449.648171 134.102448 
L 449.954975 133.895471 
L 450.568583 133.969386 
L 451.182191 134.058084 
L 451.488995 133.658929 
L 451.7958 133.851107 
L 452.102604 133.703278 
L 452.409408 133.910254 
L 452.716212 133.703278 
L 453.023016 133.747626 
L 453.32982 133.629347 
L 453.636624 134.028518 
L 453.943428 133.673712 
L 454.250233 133.806758 
L 454.557037 133.629347 
L 455.170645 133.644146 
L 455.477449 133.762409 
L 455.784253 133.658929 
L 456.091057 133.954603 
L 456.704666 133.71806 
L 457.01147 133.880689 
L 458.54549 133.466735 
L 459.465903 133.614564 
L 459.772707 133.644146 
L 460.079511 133.466735 
L 460.386315 133.703278 
L 460.693119 133.496301 
L 460.999923 133.969386 
L 461.306727 133.540649 
L 461.613532 133.511084 
L 461.920336 133.644146 
L 462.22714 133.525867 
L 462.533944 133.658929 
L 463.147552 133.466735 
L 463.454356 133.614564 
L 463.76116 133.555432 
L 464.067965 133.644146 
L 464.681573 133.437169 
L 465.295181 133.688495 
L 466.829202 133.673712 
L 467.136006 133.821541 
L 467.44281 133.481518 
L 468.363222 133.851107 
L 468.976831 133.511084 
L 469.897243 133.688495 
L 470.817655 133.806758 
L 471.124459 133.658929 
L 471.431264 133.673712 
L 471.738068 133.540649 
L 472.965284 133.806758 
L 473.272088 133.570215 
L 474.192501 133.496301 
L 474.499305 133.437169 
L 474.806109 133.525867 
L 475.112913 133.392804 
L 475.419717 133.673712 
L 476.34013 133.407587 
L 476.646934 133.673712 
L 476.953738 133.437169 
L 477.567346 133.555432 
L 477.87415 133.584998 
L 478.180954 133.378021 
L 478.794563 133.378021 
L 479.101367 133.762409 
L 479.408171 133.481518 
L 479.714975 133.481518 
L 480.021779 133.31889 
L 480.328583 133.570215 
L 480.942191 133.348456 
L 481.248995 133.540649 
L 481.5558 133.244975 
L 481.862604 133.304107 
L 482.169408 133.540649 
L 482.783016 133.141479 
L 483.08982 133.525867 
L 483.703428 133.525867 
L 484.010233 133.584998 
L 484.317037 133.496301 
L 484.623841 133.821541 
L 484.930645 133.42237 
L 485.237449 133.644146 
L 485.544253 133.511084 
L 486.157861 133.555432 
L 486.464666 133.806758 
L 486.77147 133.584998 
L 487.385078 133.570215 
L 487.691882 133.540649 
L 487.998686 133.658929 
L 488.30549 133.437169 
L 489.225903 133.274541 
L 489.532707 133.451952 
L 490.146315 133.555432 
L 490.453119 133.392804 
L 491.066727 133.629347 
L 491.373532 133.466735 
L 491.680336 133.614564 
L 491.98714 133.274541 
L 492.293944 133.555432 
L 492.907552 133.836324 
L 493.214356 133.570215 
L 493.827965 133.629347 
L 494.441573 133.821541 
L 494.748377 133.496301 
L 495.668789 133.821541 
L 496.589202 133.644146 
L 496.896006 133.984169 
L 497.20281 133.658929 
L 497.509614 133.614564 
L 497.816418 133.910254 
L 498.123222 133.614564 
L 498.430026 133.629347 
L 498.736831 133.762409 
L 499.350439 133.392804 
L 499.657243 133.584998 
L 500.270851 133.31889 
L 501.191264 133.644146 
L 501.498068 133.703278 
L 501.804872 133.511084 
L 502.41848 133.644146 
L 502.725284 133.658929 
L 503.032088 133.451952 
L 503.338892 133.732843 
L 503.645697 133.555432 
L 504.566109 133.407587 
L 504.872913 133.378021 
L 505.793325 133.732843 
L 506.406934 133.614564 
L 506.713738 133.466735 
L 507.020542 133.732843 
L 507.327346 133.599781 
L 507.63415 133.791975 
L 507.940954 133.791975 
L 508.554563 133.378021 
L 508.861367 133.599781 
L 509.168171 133.511084 
L 509.474975 133.555432 
L 509.781779 133.451952 
L 510.395387 133.629347 
L 510.702191 133.348456 
L 511.008995 133.259758 
L 511.3158 133.71806 
L 511.622604 133.525867 
L 511.929408 133.821541 
L 512.236212 133.747626 
L 512.543016 133.836324 
L 513.156624 133.141479 
L 513.463428 133.244975 
L 513.770233 133.673712 
L 514.077037 133.511084 
L 514.383841 133.584998 
L 514.690645 133.185827 
L 514.997449 133.614564 
L 515.304253 133.496301 
L 515.611057 133.555432 
L 515.917861 133.215409 
L 516.53147 133.348456 
L 516.838274 133.703278 
L 517.451882 133.31889 
L 517.758686 133.614564 
L 518.372294 133.20061 
L 518.679099 133.466735 
L 518.985903 133.289324 
L 519.599511 133.304107 
L 519.906315 133.126696 
L 520.213119 133.348456 
L 520.826727 132.993649 
L 521.440336 133.378021 
L 522.667552 133.555432 
L 523.28116 133.289324 
L 523.587965 133.599781 
L 524.201573 133.348456 
L 524.815181 133.511084 
L 525.121985 133.244975 
L 525.428789 133.348456 
L 525.735593 133.20061 
L 526.042398 133.289324 
L 526.349202 133.141479 
L 526.96281 133.392804 
L 527.883222 133.171045 
L 528.190026 133.348456 
L 528.496831 133.141479 
L 528.803635 133.348456 
L 529.110439 133.392804 
L 529.417243 133.185827 
L 530.030851 133.584998 
L 530.337655 133.348456 
L 531.258068 133.42237 
L 531.564872 133.511084 
L 532.17848 133.274541 
L 533.405697 133.466735 
L 533.712501 133.31889 
L 534.019305 133.348456 
L 534.326109 133.599781 
L 534.632913 133.274541 
L 534.939717 133.451952 
L 535.553325 133.067564 
L 535.86013 133.274541 
L 537.087346 133.363238 
L 537.39415 133.141479 
L 537.700954 133.496301 
L 538.007758 133.644146 
L 538.314563 133.156262 
L 538.621367 133.348456 
L 538.928171 133.289324 
L 539.541779 133.42237 
L 539.848583 133.407587 
L 540.155387 133.20061 
L 540.462191 133.525867 
L 540.768995 133.274541 
L 541.0758 133.481518 
L 541.382604 133.230192 
L 541.689408 133.407587 
L 542.303016 133.304107 
L 542.916624 133.363238 
L 543.223428 133.274541 
L 543.530233 133.42237 
L 544.450645 133.451952 
L 544.757449 133.333673 
L 545.677861 133.407587 
L 546.29147 133.171045 
L 546.905078 133.437169 
L 547.211882 133.259758 
L 547.82549 133.42237 
L 548.132294 133.392804 
L 548.745903 133.496301 
L 549.973119 133.215409 
L 550.586727 133.555432 
L 550.893532 133.42237 
L 551.200336 133.496301 
L 551.50714 133.407587 
L 552.120748 133.584998 
L 552.427552 133.42237 
L 552.734356 133.466735 
L 553.04116 133.304107 
L 553.654769 133.481518 
L 553.961573 133.215409 
L 554.575181 133.244975 
L 554.881985 133.215409 
L 555.188789 132.978851 
L 555.495593 133.392804 
L 555.802398 133.185827 
L 556.416006 133.378021 
L 556.72281 133.20061 
L 557.029614 133.31889 
L 557.336418 133.067564 
L 557.643222 133.111913 
L 557.950026 133.023215 
L 558.256831 133.082347 
L 558.563635 133.304107 
L 558.870439 133.244975 
L 559.177243 132.978851 
L 559.484047 133.171045 
L 559.790851 133.111913 
L 560.097655 133.304107 
L 560.404459 133.141479 
L 561.018068 133.599781 
L 561.324872 133.037998 
L 561.631676 133.126696 
L 561.93848 133.023215 
L 562.245284 133.584998 
L 562.858892 132.978851 
L 563.165697 133.215409 
L 563.472501 133.304107 
L 563.779305 133.658929 
L 564.086109 133.437169 
L 564.392913 133.067564 
L 564.699717 133.215409 
L 565.006521 133.171045 
L 565.313325 133.244975 
L 566.233738 133.20061 
L 566.540542 133.304107 
L 567.15415 133.037998 
L 567.460954 133.259758 
L 567.767758 133.185827 
L 568.074563 133.348456 
L 570.528995 133.304107 
L 570.8358 133.171045 
L 571.449408 133.42237 
L 571.756212 133.348456 
L 572.063016 133.466735 
L 572.36982 133.20061 
L 572.676624 133.392804 
L 572.983428 133.171045 
L 573.290233 133.333673 
L 573.597037 133.259758 
L 573.903841 133.481518 
L 574.210645 133.230192 
L 574.517449 133.496301 
L 575.131057 133.244975 
L 575.437861 133.466735 
L 575.744666 133.333673 
L 576.05147 133.511084 
L 576.358274 133.289324 
L 576.971882 133.31889 
L 577.278686 133.42237 
L 577.58549 133.09713 
L 577.892294 133.171045 
L 578.199099 133.451952 
L 578.505903 133.171045 
L 578.812707 133.082347 
L 579.119511 133.111913 
L 579.426315 133.274541 
L 579.733119 133.230192 
L 580.346727 133.614564 
L 580.653532 133.185827 
L 580.960336 133.451952 
L 581.880748 133.511084 
L 582.187552 133.688495 
L 582.80116 133.31889 
L 583.107965 133.584998 
L 583.414769 133.673712 
L 584.335181 133.437169 
L 584.641985 133.451952 
L 584.948789 133.599781 
L 585.255593 133.437169 
L 586.48281 133.348456 
L 587.096418 133.185827 
L 587.403222 133.525867 
L 588.016831 133.289324 
L 588.323635 133.777192 
L 588.630439 133.363238 
L 589.244047 133.407587 
L 589.550851 133.230192 
L 589.857655 133.392804 
L 590.471264 133.156262 
L 590.778068 133.555432 
L 591.084872 133.511084 
L 591.391676 133.259758 
L 591.69848 133.304107 
L 592.312088 133.09713 
L 592.618892 133.378021 
L 592.925697 133.215409 
L 593.232501 133.407587 
L 593.539305 133.215409 
L 593.846109 133.42237 
L 594.152913 133.42237 
L 594.459717 133.629347 
L 594.766521 133.378021 
L 595.073325 133.437169 
L 595.38013 133.259758 
L 595.686934 133.451952 
L 595.993738 133.333673 
L 596.300542 133.437169 
L 596.91415 133.259758 
L 597.220954 133.348456 
L 597.527758 133.289324 
L 597.834563 133.555432 
L 598.141367 133.185827 
L 598.448171 133.481518 
L 599.061779 133.304107 
L 599.368583 133.437169 
L 599.675387 133.067564 
L 599.982191 133.407587 
L 600.288995 133.333673 
L 600.902604 133.437169 
L 601.823016 133.20061 
L 602.12982 133.644146 
L 602.743428 133.658929 
L 603.050233 133.259758 
L 603.357037 133.378021 
L 603.663841 133.31889 
L 603.970645 133.481518 
L 604.584253 133.185827 
L 604.891057 133.540649 
L 605.81147 133.451952 
L 606.425078 133.274541 
L 606.731882 133.555432 
L 607.34549 133.466735 
L 607.652294 133.481518 
L 607.959099 133.614564 
L 608.265903 133.511084 
L 608.572707 133.570215 
L 608.879511 133.333673 
L 609.186315 133.540649 
L 609.493119 133.392804 
L 609.799923 133.658929 
L 610.413532 133.629347 
L 611.02714 133.333673 
L 611.640748 133.333673 
L 612.254356 133.333673 
L 612.56116 133.111913 
L 612.867965 133.09713 
L 613.481573 133.511084 
L 613.788377 133.437169 
L 614.095181 133.555432 
L 614.401985 133.156262 
L 614.708789 133.496301 
L 615.322398 133.304107 
L 615.629202 133.71806 
L 615.936006 133.821541 
L 616.24281 133.570215 
L 616.856418 133.658929 
L 617.163222 133.496301 
L 617.470026 133.836324 
L 617.776831 133.555432 
L 618.083635 133.525867 
L 618.390439 133.688495 
L 618.697243 133.629347 
L 619.004047 133.363238 
L 619.924459 133.363238 
L 620.231264 133.629347 
L 620.538068 133.451952 
L 620.844872 133.71806 
L 622.378892 133.525867 
L 622.685697 133.71806 
L 623.299305 133.437169 
L 623.606109 133.511084 
L 623.912913 133.244975 
L 624.526521 133.644146 
L 624.833325 133.451952 
L 625.446934 133.378021 
L 625.753738 133.614564 
L 626.060542 133.392804 
L 626.367346 133.525867 
L 626.67415 133.93982 
L 626.980954 133.673712 
L 627.287758 133.570215 
L 627.594563 133.348456 
L 627.901367 133.525867 
L 628.208171 133.437169 
L 628.514975 133.599781 
L 628.821779 133.481518 
L 629.128583 133.658929 
L 629.742191 133.703278 
L 630.048995 133.570215 
L 631.276212 133.614564 
L 631.583016 133.821541 
L 633.730645 133.555432 
L 634.037449 133.599781 
L 634.651057 133.333673 
L 634.957861 133.525867 
L 635.264666 133.525867 
L 635.57147 133.644146 
L 635.878274 133.555432 
L 636.491882 133.762409 
L 636.798686 133.732843 
L 637.10549 133.865906 
L 637.412294 133.658929 
L 637.719099 133.703278 
L 638.025903 133.570215 
L 638.946315 133.747626 
L 639.253119 133.570215 
L 639.559923 133.71806 
L 639.866727 133.525867 
L 640.173532 133.732843 
L 640.480336 133.511084 
L 640.78714 133.777192 
L 641.093944 133.466735 
L 642.32116 133.555432 
L 642.627965 133.71806 
L 642.934769 133.673712 
L 643.548377 133.451952 
L 644.161985 133.496301 
L 645.082398 133.451952 
L 645.389202 133.71806 
L 645.696006 133.629347 
L 646.00281 133.703278 
L 646.309614 133.437169 
L 646.616418 133.363238 
L 646.923222 133.599781 
L 647.230026 133.688495 
L 647.536831 133.481518 
L 648.764047 133.540649 
L 649.377655 133.407587 
L 649.684459 133.511084 
L 649.991264 133.851107 
L 650.298068 133.614564 
L 650.911676 133.555432 
L 651.21848 133.851107 
L 651.832088 133.42237 
L 652.138892 133.555432 
L 652.445697 133.525867 
L 652.752501 133.688495 
L 653.059305 133.348456 
L 653.366109 133.747626 
L 653.672913 133.42237 
L 654.286521 133.703278 
L 654.593325 133.806758 
L 654.90013 133.747626 
L 655.206934 133.836324 
L 655.513738 133.629347 
L 656.127346 133.836324 
L 657.661367 133.31889 
L 657.968171 133.378021 
L 658.274975 133.644146 
L 658.581779 133.378021 
L 658.888583 133.392804 
L 659.195387 133.525867 
L 659.502191 133.836324 
L 659.808995 133.555432 
L 660.729408 133.599781 
L 661.036212 133.851107 
L 661.64982 133.378021 
L 661.956624 133.71806 
L 662.263428 133.584998 
L 662.877037 133.570215 
L 663.183841 133.703278 
L 663.490645 133.969386 
L 663.797449 133.673712 
L 664.411057 133.969386 
L 664.717861 133.791975 
L 665.024666 133.865906 
L 665.638274 133.555432 
L 665.945078 133.673712 
L 666.251882 133.629347 
L 666.558686 133.925037 
L 667.172294 133.599781 
L 667.479099 133.93982 
L 667.785903 133.688495 
L 668.092707 133.865906 
L 669.319923 133.629347 
L 670.54714 133.880689 
L 670.853944 133.806758 
L 671.160748 133.93982 
L 671.467552 133.71806 
L 671.774356 133.910254 
L 672.387965 133.821541 
L 673.001573 133.998952 
L 673.308377 133.688495 
L 673.615181 133.806758 
L 674.535593 133.747626 
L 674.842398 133.865906 
L 675.149202 133.540649 
L 675.456006 133.599781 
L 675.76281 133.511084 
L 676.069614 133.806758 
L 676.376418 133.71806 
L 676.683222 133.954603 
L 676.990026 133.984169 
L 677.603635 133.688495 
L 677.910439 133.629347 
L 678.217243 133.821541 
L 679.137655 133.925037 
L 679.751264 134.132014 
L 680.058068 134.058084 
L 680.364872 133.629347 
L 680.97848 133.925037 
L 681.592088 133.925037 
L 681.898892 133.732843 
L 682.205697 133.821541 
L 682.512501 133.688495 
L 682.819305 133.851107 
L 683.126109 133.599781 
L 683.432913 133.895471 
L 683.739717 133.821541 
L 684.353325 133.895471 
L 684.66013 134.132014 
L 684.966934 134.146797 
L 685.273738 133.599781 
L 686.19415 133.910254 
L 686.500954 133.732843 
L 686.807758 133.925037 
L 687.114563 133.910254 
L 687.114563 133.910254 
" clip-path="url(#p20247509b9)" style="fill: none; stroke: #1f77b4; stroke-width: 1.5; stroke-linecap: square"/>
   </g>
   <g id="patch_3">
    <path d="M 329.994563 311.6435 
L 329.994563 45.5315 
" style="fill: none; stroke: #000000; stroke-width: 0.8; stroke-linejoin: miter; stroke-linecap: square"/>
   </g>
   <g id="patch_4">
    <path d="M 687.114563 311.6435 
L 687.114563 45.5315 
" style="fill: none; stroke: #000000; stroke-width: 0.8; stroke-linejoin: miter; stroke-linecap: square"/>
   </g>
   <g id="patch_5">
    <path d="M 329.994563 311.6435 
L 687.114563 311.6435 
" style="fill: none; stroke: #000000; stroke-width: 0.8; stroke-linejoin: miter; stroke-linecap: square"/>
   </g>
   <g id="patch_6">
    <path d="M 329.994563 45.5315 
L 687.114563 45.5315 
" style="fill: none; stroke: #000000; stroke-width: 0.8; stroke-linejoin: miter; stroke-linecap: square"/>
   </g>
   <g id="text_19">
    <!-- Accuracy of the 15_05_25_CINIC10_model_(1024+512+1)_1_ct_save_2 on the validation set -->
    <g transform="translate(7.2 25.5315) scale(0.264 -0.264)">
     <defs>
      <path id="TimesNewRomanPSMT-68" d="M 1041 4444 
L 1041 2350 
Q 1388 2731 1591 2839 
Q 1794 2947 1997 2947 
Q 2241 2947 2416 2812 
Q 2591 2678 2675 2391 
Q 2734 2191 2734 1659 
L 2734 647 
Q 2734 375 2778 275 
Q 2809 200 2884 156 
Q 2959 113 3159 113 
L 3159 0 
L 1753 0 
L 1753 113 
L 1819 113 
Q 2019 113 2097 173 
Q 2175 234 2206 353 
Q 2216 403 2216 647 
L 2216 1659 
Q 2216 2128 2167 2275 
Q 2119 2422 2012 2495 
Q 1906 2569 1756 2569 
Q 1603 2569 1437 2487 
Q 1272 2406 1041 2159 
L 1041 647 
Q 1041 353 1073 281 
Q 1106 209 1195 161 
Q 1284 113 1503 113 
L 1503 0 
L 84 0 
L 84 113 
Q 275 113 384 172 
Q 447 203 484 290 
Q 522 378 522 647 
L 522 3238 
Q 522 3728 498 3840 
Q 475 3953 426 3993 
Q 378 4034 297 4034 
Q 231 4034 84 3984 
L 41 4094 
L 897 4444 
L 1041 4444 
z
" transform="scale(0.015625)"/>
      <path id="TimesNewRomanPSMT-5f" d="M 3256 -1381 
L -53 -1381 
L -53 -1119 
L 3256 -1119 
L 3256 -1381 
z
" transform="scale(0.015625)"/>
      <path id="TimesNewRomanPSMT-43" d="M 3853 4334 
L 3950 2894 
L 3853 2894 
Q 3659 3541 3300 3825 
Q 2941 4109 2438 4109 
Q 2016 4109 1675 3895 
Q 1334 3681 1139 3212 
Q 944 2744 944 2047 
Q 944 1472 1128 1050 
Q 1313 628 1683 403 
Q 2053 178 2528 178 
Q 2941 178 3256 354 
Q 3572 531 3950 1056 
L 4047 994 
Q 3728 428 3303 165 
Q 2878 -97 2294 -97 
Q 1241 -97 663 684 
Q 231 1266 231 2053 
Q 231 2688 515 3219 
Q 800 3750 1298 4042 
Q 1797 4334 2388 4334 
Q 2847 4334 3294 4109 
Q 3425 4041 3481 4041 
Q 3566 4041 3628 4100 
Q 3709 4184 3744 4334 
L 3853 4334 
z
" transform="scale(0.015625)"/>
      <path id="TimesNewRomanPSMT-49" d="M 1975 116 
L 1975 0 
L 159 0 
L 159 116 
L 309 116 
Q 572 116 691 269 
Q 766 369 766 750 
L 766 3488 
Q 766 3809 725 3913 
Q 694 3991 597 4047 
Q 459 4122 309 4122 
L 159 4122 
L 159 4238 
L 1975 4238 
L 1975 4122 
L 1822 4122 
Q 1563 4122 1444 3969 
Q 1366 3869 1366 3488 
L 1366 750 
Q 1366 428 1406 325 
Q 1438 247 1538 191 
Q 1672 116 1822 116 
L 1975 116 
z
" transform="scale(0.015625)"/>
      <path id="TimesNewRomanPSMT-64" d="M 2222 322 
Q 2013 103 1813 7 
Q 1613 -88 1381 -88 
Q 913 -88 563 304 
Q 213 697 213 1313 
Q 213 1928 600 2439 
Q 988 2950 1597 2950 
Q 1975 2950 2222 2709 
L 2222 3238 
Q 2222 3728 2198 3840 
Q 2175 3953 2125 3993 
Q 2075 4034 2000 4034 
Q 1919 4034 1784 3984 
L 1744 4094 
L 2597 4444 
L 2738 4444 
L 2738 1134 
Q 2738 631 2761 520 
Q 2784 409 2836 365 
Q 2888 322 2956 322 
Q 3041 322 3181 375 
L 3216 266 
L 2366 -88 
L 2222 -88 
L 2222 322 
z
M 2222 541 
L 2222 2016 
Q 2203 2228 2109 2403 
Q 2016 2578 1861 2667 
Q 1706 2756 1559 2756 
Q 1284 2756 1069 2509 
Q 784 2184 784 1559 
Q 784 928 1059 592 
Q 1334 256 1672 256 
Q 1956 256 2222 541 
z
" transform="scale(0.015625)"/>
      <path id="TimesNewRomanPSMT-6c" d="M 1184 4444 
L 1184 647 
Q 1184 378 1223 290 
Q 1263 203 1344 158 
Q 1425 113 1647 113 
L 1647 0 
L 244 0 
L 244 113 
Q 441 113 512 153 
Q 584 194 625 287 
Q 666 381 666 647 
L 666 3247 
Q 666 3731 644 3842 
Q 622 3953 573 3993 
Q 525 4034 450 4034 
Q 369 4034 244 3984 
L 191 4094 
L 1044 4444 
L 1184 4444 
z
" transform="scale(0.015625)"/>
      <path id="TimesNewRomanPSMT-28" d="M 1988 -1253 
L 1988 -1369 
Q 1516 -1131 1200 -813 
Q 750 -359 506 256 
Q 263 872 263 1534 
Q 263 2503 741 3301 
Q 1219 4100 1988 4444 
L 1988 4313 
Q 1603 4100 1356 3731 
Q 1109 3363 987 2797 
Q 866 2231 866 1616 
Q 866 947 969 400 
Q 1050 -31 1165 -292 
Q 1281 -553 1476 -793 
Q 1672 -1034 1988 -1253 
z
" transform="scale(0.015625)"/>
      <path id="TimesNewRomanPSMT-2b" d="M 1672 441 
L 1672 2000 
L 116 2000 
L 116 2256 
L 1672 2256 
L 1672 3809 
L 1922 3809 
L 1922 2256 
L 3484 2256 
L 3484 2000 
L 1922 2000 
L 1922 441 
L 1672 441 
z
" transform="scale(0.015625)"/>
      <path id="TimesNewRomanPSMT-29" d="M 144 4313 
L 144 4444 
Q 619 4209 934 3891 
Q 1381 3434 1625 2820 
Q 1869 2206 1869 1541 
Q 1869 572 1392 -226 
Q 916 -1025 144 -1369 
L 144 -1253 
Q 528 -1038 776 -670 
Q 1025 -303 1145 264 
Q 1266 831 1266 1447 
Q 1266 2113 1163 2663 
Q 1084 3094 967 3353 
Q 850 3613 656 3853 
Q 463 4094 144 4313 
z
" transform="scale(0.015625)"/>
      <path id="TimesNewRomanPSMT-76" d="M 53 2863 
L 1400 2863 
L 1400 2747 
L 1313 2747 
Q 1191 2747 1127 2687 
Q 1063 2628 1063 2528 
Q 1063 2419 1128 2269 
L 1794 688 
L 2463 2328 
Q 2534 2503 2534 2594 
Q 2534 2638 2509 2666 
Q 2475 2713 2422 2730 
Q 2369 2747 2206 2747 
L 2206 2863 
L 3141 2863 
L 3141 2747 
Q 2978 2734 2916 2681 
Q 2806 2588 2719 2369 
L 1703 -88 
L 1575 -88 
L 553 2328 
Q 484 2497 421 2570 
Q 359 2644 263 2694 
Q 209 2722 53 2747 
L 53 2863 
z
" transform="scale(0.015625)"/>
     </defs>
     <use xlink:href="#TimesNewRomanPSMT-41"/>
     <use xlink:href="#TimesNewRomanPSMT-63" transform="translate(72.216797 0)"/>
     <use xlink:href="#TimesNewRomanPSMT-63" transform="translate(116.601562 0)"/>
     <use xlink:href="#TimesNewRomanPSMT-75" transform="translate(160.986328 0)"/>
     <use xlink:href="#TimesNewRomanPSMT-72" transform="translate(210.986328 0)"/>
     <use xlink:href="#TimesNewRomanPSMT-61" transform="translate(244.287109 0)"/>
     <use xlink:href="#TimesNewRomanPSMT-63" transform="translate(288.671875 0)"/>
     <use xlink:href="#TimesNewRomanPSMT-79" transform="translate(333.056641 0)"/>
     <use xlink:href="#TimesNewRomanPSMT-20" transform="translate(383.056641 0)"/>
     <use xlink:href="#TimesNewRomanPSMT-6f" transform="translate(408.056641 0)"/>
     <use xlink:href="#TimesNewRomanPSMT-66" transform="translate(458.056641 0)"/>
     <use xlink:href="#TimesNewRomanPSMT-20" transform="translate(491.357422 0)"/>
     <use xlink:href="#TimesNewRomanPSMT-74" transform="translate(516.357422 0)"/>
     <use xlink:href="#TimesNewRomanPSMT-68" transform="translate(544.140625 0)"/>
     <use xlink:href="#TimesNewRomanPSMT-65" transform="translate(594.140625 0)"/>
     <use xlink:href="#TimesNewRomanPSMT-20" transform="translate(638.525391 0)"/>
     <use xlink:href="#TimesNewRomanPSMT-31" transform="translate(663.525391 0)"/>
     <use xlink:href="#TimesNewRomanPSMT-35" transform="translate(713.525391 0)"/>
     <use xlink:href="#TimesNewRomanPSMT-5f" transform="translate(763.525391 0)"/>
     <use xlink:href="#TimesNewRomanPSMT-30" transform="translate(813.525391 0)"/>
     <use xlink:href="#TimesNewRomanPSMT-35" transform="translate(863.525391 0)"/>
     <use xlink:href="#TimesNewRomanPSMT-5f" transform="translate(913.525391 0)"/>
     <use xlink:href="#TimesNewRomanPSMT-32" transform="translate(963.525391 0)"/>
     <use xlink:href="#TimesNewRomanPSMT-35" transform="translate(1013.525391 0)"/>
     <use xlink:href="#TimesNewRomanPSMT-5f" transform="translate(1063.525391 0)"/>
     <use xlink:href="#TimesNewRomanPSMT-43" transform="translate(1113.525391 0)"/>
     <use xlink:href="#TimesNewRomanPSMT-49" transform="translate(1180.224609 0)"/>
     <use xlink:href="#TimesNewRomanPSMT-4e" transform="translate(1213.525391 0)"/>
     <use xlink:href="#TimesNewRomanPSMT-49" transform="translate(1285.742188 0)"/>
     <use xlink:href="#TimesNewRomanPSMT-43" transform="translate(1319.042969 0)"/>
     <use xlink:href="#TimesNewRomanPSMT-31" transform="translate(1385.742188 0)"/>
     <use xlink:href="#TimesNewRomanPSMT-30" transform="translate(1435.742188 0)"/>
     <use xlink:href="#TimesNewRomanPSMT-5f" transform="translate(1485.742188 0)"/>
     <use xlink:href="#TimesNewRomanPSMT-6d" transform="translate(1535.742188 0)"/>
     <use xlink:href="#TimesNewRomanPSMT-6f" transform="translate(1613.525391 0)"/>
     <use xlink:href="#TimesNewRomanPSMT-64" transform="translate(1663.525391 0)"/>
     <use xlink:href="#TimesNewRomanPSMT-65" transform="translate(1713.525391 0)"/>
     <use xlink:href="#TimesNewRomanPSMT-6c" transform="translate(1757.910156 0)"/>
     <use xlink:href="#TimesNewRomanPSMT-5f" transform="translate(1785.693359 0)"/>
     <use xlink:href="#TimesNewRomanPSMT-28" transform="translate(1835.693359 0)"/>
     <use xlink:href="#TimesNewRomanPSMT-31" transform="translate(1868.994141 0)"/>
     <use xlink:href="#TimesNewRomanPSMT-30" transform="translate(1918.994141 0)"/>
     <use xlink:href="#TimesNewRomanPSMT-32" transform="translate(1968.994141 0)"/>
     <use xlink:href="#TimesNewRomanPSMT-34" transform="translate(2018.994141 0)"/>
     <use xlink:href="#TimesNewRomanPSMT-2b" transform="translate(2068.994141 0)"/>
     <use xlink:href="#TimesNewRomanPSMT-35" transform="translate(2125.390625 0)"/>
     <use xlink:href="#TimesNewRomanPSMT-31" transform="translate(2175.390625 0)"/>
     <use xlink:href="#TimesNewRomanPSMT-32" transform="translate(2225.390625 0)"/>
     <use xlink:href="#TimesNewRomanPSMT-2b" transform="translate(2275.390625 0)"/>
     <use xlink:href="#TimesNewRomanPSMT-31" transform="translate(2331.787109 0)"/>
     <use xlink:href="#TimesNewRomanPSMT-29" transform="translate(2381.787109 0)"/>
     <use xlink:href="#TimesNewRomanPSMT-5f" transform="translate(2415.087891 0)"/>
     <use xlink:href="#TimesNewRomanPSMT-31" transform="translate(2465.087891 0)"/>
     <use xlink:href="#TimesNewRomanPSMT-5f" transform="translate(2515.087891 0)"/>
     <use xlink:href="#TimesNewRomanPSMT-63" transform="translate(2565.087891 0)"/>
     <use xlink:href="#TimesNewRomanPSMT-74" transform="translate(2609.472656 0)"/>
     <use xlink:href="#TimesNewRomanPSMT-5f" transform="translate(2637.255859 0)"/>
     <use xlink:href="#TimesNewRomanPSMT-73" transform="translate(2687.255859 0)"/>
     <use xlink:href="#TimesNewRomanPSMT-61" transform="translate(2726.171875 0)"/>
     <use xlink:href="#TimesNewRomanPSMT-76" transform="translate(2770.556641 0)"/>
     <use xlink:href="#TimesNewRomanPSMT-65" transform="translate(2820.556641 0)"/>
     <use xlink:href="#TimesNewRomanPSMT-5f" transform="translate(2864.941406 0)"/>
     <use xlink:href="#TimesNewRomanPSMT-32" transform="translate(2914.941406 0)"/>
     <use xlink:href="#TimesNewRomanPSMT-20" transform="translate(2964.941406 0)"/>
     <use xlink:href="#TimesNewRomanPSMT-6f" transform="translate(2989.941406 0)"/>
     <use xlink:href="#TimesNewRomanPSMT-6e" transform="translate(3039.941406 0)"/>
     <use xlink:href="#TimesNewRomanPSMT-20" transform="translate(3089.941406 0)"/>
     <use xlink:href="#TimesNewRomanPSMT-74" transform="translate(3114.941406 0)"/>
     <use xlink:href="#TimesNewRomanPSMT-68" transform="translate(3142.724609 0)"/>
     <use xlink:href="#TimesNewRomanPSMT-65" transform="translate(3192.724609 0)"/>
     <use xlink:href="#TimesNewRomanPSMT-20" transform="translate(3237.109375 0)"/>
     <use xlink:href="#TimesNewRomanPSMT-76" transform="translate(3262.109375 0)"/>
     <use xlink:href="#TimesNewRomanPSMT-61" transform="translate(3312.109375 0)"/>
     <use xlink:href="#TimesNewRomanPSMT-6c" transform="translate(3356.494141 0)"/>
     <use xlink:href="#TimesNewRomanPSMT-69" transform="translate(3384.277344 0)"/>
     <use xlink:href="#TimesNewRomanPSMT-64" transform="translate(3412.060547 0)"/>
     <use xlink:href="#TimesNewRomanPSMT-61" transform="translate(3462.060547 0)"/>
     <use xlink:href="#TimesNewRomanPSMT-74" transform="translate(3506.445312 0)"/>
     <use xlink:href="#TimesNewRomanPSMT-69" transform="translate(3534.228516 0)"/>
     <use xlink:href="#TimesNewRomanPSMT-6f" transform="translate(3562.011719 0)"/>
     <use xlink:href="#TimesNewRomanPSMT-6e" transform="translate(3612.011719 0)"/>
     <use xlink:href="#TimesNewRomanPSMT-20" transform="translate(3662.011719 0)"/>
     <use xlink:href="#TimesNewRomanPSMT-73" transform="translate(3687.011719 0)"/>
     <use xlink:href="#TimesNewRomanPSMT-65" transform="translate(3725.927734 0)"/>
     <use xlink:href="#TimesNewRomanPSMT-74" transform="translate(3770.3125 0)"/>
    </g>
   </g>
   <g id="legend_1">
    <g id="patch_7">
     <path d="M 434.54425 94.278687 
L 671.714563 94.278687 
Q 676.114563 94.278687 676.114563 89.878687 
L 676.114563 60.9315 
Q 676.114563 56.5315 671.714563 56.5315 
L 434.54425 56.5315 
Q 430.14425 56.5315 430.14425 60.9315 
L 430.14425 89.878687 
Q 430.14425 94.278687 434.54425 94.278687 
z
" style="fill: #ffffff; opacity: 0.8; stroke: #cccccc; stroke-linejoin: miter"/>
    </g>
    <g id="line2d_34">
     <path d="M 438.94425 73.0315 
L 460.94425 73.0315 
L 482.94425 73.0315 
" style="fill: none; stroke: #1f77b4; stroke-width: 1.5; stroke-linecap: square"/>
    </g>
    <g id="text_20">
     <!-- Best accuracy 0.67 -->
     <g transform="translate(500.54425 80.7315) scale(0.22 -0.22)">
      <defs>
       <path id="TimesNewRomanPSMT-42" d="M 2956 2163 
Q 3397 2069 3616 1863 
Q 3919 1575 3919 1159 
Q 3919 844 3719 555 
Q 3519 266 3170 133 
Q 2822 0 2106 0 
L 106 0 
L 106 116 
L 266 116 
Q 531 116 647 284 
Q 719 394 719 750 
L 719 3488 
Q 719 3881 628 3984 
Q 506 4122 266 4122 
L 106 4122 
L 106 4238 
L 1938 4238 
Q 2450 4238 2759 4163 
Q 3228 4050 3475 3764 
Q 3722 3478 3722 3106 
Q 3722 2788 3528 2536 
Q 3334 2284 2956 2163 
z
M 1319 2331 
Q 1434 2309 1582 2298 
Q 1731 2288 1909 2288 
Q 2366 2288 2595 2386 
Q 2825 2484 2947 2687 
Q 3069 2891 3069 3131 
Q 3069 3503 2766 3765 
Q 2463 4028 1881 4028 
Q 1569 4028 1319 3959 
L 1319 2331 
z
M 1319 306 
Q 1681 222 2034 222 
Q 2600 222 2897 476 
Q 3194 731 3194 1106 
Q 3194 1353 3059 1581 
Q 2925 1809 2622 1940 
Q 2319 2072 1872 2072 
Q 1678 2072 1540 2065 
Q 1403 2059 1319 2044 
L 1319 306 
z
" transform="scale(0.015625)"/>
      </defs>
      <use xlink:href="#TimesNewRomanPSMT-42"/>
      <use xlink:href="#TimesNewRomanPSMT-65" transform="translate(66.699219 0)"/>
      <use xlink:href="#TimesNewRomanPSMT-73" transform="translate(111.083984 0)"/>
      <use xlink:href="#TimesNewRomanPSMT-74" transform="translate(150 0)"/>
      <use xlink:href="#TimesNewRomanPSMT-20" transform="translate(177.783203 0)"/>
      <use xlink:href="#TimesNewRomanPSMT-61" transform="translate(202.783203 0)"/>
      <use xlink:href="#TimesNewRomanPSMT-63" transform="translate(247.167969 0)"/>
      <use xlink:href="#TimesNewRomanPSMT-63" transform="translate(291.552734 0)"/>
      <use xlink:href="#TimesNewRomanPSMT-75" transform="translate(335.9375 0)"/>
      <use xlink:href="#TimesNewRomanPSMT-72" transform="translate(385.9375 0)"/>
      <use xlink:href="#TimesNewRomanPSMT-61" transform="translate(419.238281 0)"/>
      <use xlink:href="#TimesNewRomanPSMT-63" transform="translate(463.623047 0)"/>
      <use xlink:href="#TimesNewRomanPSMT-79" transform="translate(508.007812 0)"/>
      <use xlink:href="#TimesNewRomanPSMT-20" transform="translate(558.007812 0)"/>
      <use xlink:href="#TimesNewRomanPSMT-30" transform="translate(583.007812 0)"/>
      <use xlink:href="#TimesNewRomanPSMT-2e" transform="translate(633.007812 0)"/>
      <use xlink:href="#TimesNewRomanPSMT-36" transform="translate(658.007812 0)"/>
      <use xlink:href="#TimesNewRomanPSMT-37" transform="translate(708.007812 0)"/>
     </g>
    </g>
   </g>
  </g>
 </g>
 <defs>
  <clipPath id="p20247509b9">
   <rect x="329.994563" y="45.5315" width="357.12" height="266.112"/>
  </clipPath>
 </defs>
</svg>
