<?xml version="1.0" encoding="utf-8" standalone="no"?>
<!DOCTYPE svg PUBLIC "-//W3C//DTD SVG 1.1//EN"
  "http://www.w3.org/Graphics/SVG/1.1/DTD/svg11.dtd">
<svg xmlns:xlink="http://www.w3.org/1999/xlink" width="1030.573125pt" height="383.265687pt" viewBox="0 0 1030.573125 383.265687" xmlns="http://www.w3.org/2000/svg" version="1.1">
 <metadata>
  <rdf:RDF xmlns:dc="http://purl.org/dc/elements/1.1/" xmlns:cc="http://creativecommons.org/ns#" xmlns:rdf="http://www.w3.org/1999/02/22-rdf-syntax-ns#">
   <cc:Work>
    <dc:type rdf:resource="http://purl.org/dc/dcmitype/StillImage"/>
    <dc:date>2025-05-27T11:53:03.172760</dc:date>
    <dc:format>image/svg+xml</dc:format>
    <dc:creator>
     <cc:Agent>
      <dc:title>Matplotlib v3.10.1, https://matplotlib.org/</dc:title>
     </cc:Agent>
    </dc:creator>
   </cc:Work>
  </rdf:RDF>
 </metadata>
 <defs>
  <style type="text/css">*{stroke-linejoin: round; stroke-linecap: butt}</style>
 </defs>
 <g id="figure_1">
  <g id="patch_1">
   <path d="M 0 383.265687 
L 1030.573125 383.265687 
L 1030.573125 0 
L 0 0 
z
" style="fill: #ffffff"/>
  </g>
  <g id="axes_1">
   <g id="patch_2">
    <path d="M 336.726563 311.6435 
L 693.846563 311.6435 
L 693.846563 45.5315 
L 336.726563 45.5315 
z
" style="fill: #ffffff"/>
   </g>
   <g id="matplotlib.axis_1">
    <g id="xtick_1">
     <g id="line2d_1">
      <path d="M 336.726563 311.6435 
L 336.726563 45.5315 
" clip-path="url(#pf54ff59f63)" style="fill: none; stroke: #b0b0b0; stroke-opacity: 0.3; stroke-width: 0.8; stroke-linecap: square"/>
     </g>
     <g id="line2d_2">
      <defs>
       <path id="m7cb9575b40" d="M 0 0 
L 0 3.5 
" style="stroke: #000000; stroke-width: 0.8"/>
      </defs>
      <g>
       <use xlink:href="#m7cb9575b40" x="336.726563" y="311.6435" style="stroke: #000000; stroke-width: 0.8"/>
      </g>
     </g>
     <g id="text_1">
      <!-- 0.0 -->
      <g transform="translate(322.976563 333.91975) scale(0.22 -0.22)">
       <defs>
        <path id="TimesNewRomanPSMT-30" d="M 231 2094 
Q 231 2819 450 3342 
Q 669 3866 1031 4122 
Q 1313 4325 1613 4325 
Q 2100 4325 2488 3828 
Q 2972 3213 2972 2159 
Q 2972 1422 2759 906 
Q 2547 391 2217 158 
Q 1888 -75 1581 -75 
Q 975 -75 572 641 
Q 231 1244 231 2094 
z
M 844 2016 
Q 844 1141 1059 588 
Q 1238 122 1591 122 
Q 1759 122 1940 273 
Q 2122 425 2216 781 
Q 2359 1319 2359 2297 
Q 2359 3022 2209 3506 
Q 2097 3866 1919 4016 
Q 1791 4119 1609 4119 
Q 1397 4119 1231 3928 
Q 1006 3669 925 3112 
Q 844 2556 844 2016 
z
" transform="scale(0.015625)"/>
        <path id="TimesNewRomanPSMT-2e" d="M 800 606 
Q 947 606 1047 504 
Q 1147 403 1147 259 
Q 1147 116 1045 14 
Q 944 -88 800 -88 
Q 656 -88 554 14 
Q 453 116 453 259 
Q 453 406 554 506 
Q 656 606 800 606 
z
" transform="scale(0.015625)"/>
       </defs>
       <use xlink:href="#TimesNewRomanPSMT-30"/>
       <use xlink:href="#TimesNewRomanPSMT-2e" transform="translate(50 0)"/>
       <use xlink:href="#TimesNewRomanPSMT-30" transform="translate(75 0)"/>
      </g>
     </g>
    </g>
    <g id="xtick_2">
     <g id="line2d_3">
      <path d="M 456.969452 311.6435 
L 456.969452 45.5315 
" clip-path="url(#pf54ff59f63)" style="fill: none; stroke: #b0b0b0; stroke-opacity: 0.3; stroke-width: 0.8; stroke-linecap: square"/>
     </g>
     <g id="line2d_4">
      <g>
       <use xlink:href="#m7cb9575b40" x="456.969452" y="311.6435" style="stroke: #000000; stroke-width: 0.8"/>
      </g>
     </g>
     <g id="text_2">
      <!-- 0.5 -->
      <g transform="translate(443.219452 333.91975) scale(0.22 -0.22)">
       <defs>
        <path id="TimesNewRomanPSMT-35" d="M 2778 4238 
L 2534 3706 
L 1259 3706 
L 981 3138 
Q 1809 3016 2294 2522 
Q 2709 2097 2709 1522 
Q 2709 1188 2573 903 
Q 2438 619 2231 419 
Q 2025 219 1772 97 
Q 1413 -75 1034 -75 
Q 653 -75 479 54 
Q 306 184 306 341 
Q 306 428 378 495 
Q 450 563 559 563 
Q 641 563 702 538 
Q 763 513 909 409 
Q 1144 247 1384 247 
Q 1750 247 2026 523 
Q 2303 800 2303 1197 
Q 2303 1581 2056 1914 
Q 1809 2247 1375 2428 
Q 1034 2569 447 2591 
L 1259 4238 
L 2778 4238 
z
" transform="scale(0.015625)"/>
       </defs>
       <use xlink:href="#TimesNewRomanPSMT-30"/>
       <use xlink:href="#TimesNewRomanPSMT-2e" transform="translate(50 0)"/>
       <use xlink:href="#TimesNewRomanPSMT-35" transform="translate(75 0)"/>
      </g>
     </g>
    </g>
    <g id="xtick_3">
     <g id="line2d_5">
      <path d="M 577.212341 311.6435 
L 577.212341 45.5315 
" clip-path="url(#pf54ff59f63)" style="fill: none; stroke: #b0b0b0; stroke-opacity: 0.3; stroke-width: 0.8; stroke-linecap: square"/>
     </g>
     <g id="line2d_6">
      <g>
       <use xlink:href="#m7cb9575b40" x="577.212341" y="311.6435" style="stroke: #000000; stroke-width: 0.8"/>
      </g>
     </g>
     <g id="text_3">
      <!-- 1.0 -->
      <g transform="translate(563.462341 333.91975) scale(0.22 -0.22)">
       <defs>
        <path id="TimesNewRomanPSMT-31" d="M 750 3822 
L 1781 4325 
L 1884 4325 
L 1884 747 
Q 1884 391 1914 303 
Q 1944 216 2037 169 
Q 2131 122 2419 116 
L 2419 0 
L 825 0 
L 825 116 
Q 1125 122 1212 167 
Q 1300 213 1334 289 
Q 1369 366 1369 747 
L 1369 3034 
Q 1369 3497 1338 3628 
Q 1316 3728 1258 3775 
Q 1200 3822 1119 3822 
Q 1003 3822 797 3725 
L 750 3822 
z
" transform="scale(0.015625)"/>
       </defs>
       <use xlink:href="#TimesNewRomanPSMT-31"/>
       <use xlink:href="#TimesNewRomanPSMT-2e" transform="translate(50 0)"/>
       <use xlink:href="#TimesNewRomanPSMT-30" transform="translate(75 0)"/>
      </g>
     </g>
    </g>
    <g id="text_4">
     <!-- $\kappa  = \frac{ln(n)}{ln(d)}$ -->
     <g transform="translate(483.276563 364.185687) scale(0.22 -0.22)">
      <defs>
       <path id="STIXGeneral-Italic-3ba" d="M 979 1440 
L 998 1446 
Q 1850 2541 2464 2790 
Q 2547 2822 2630 2822 
Q 2797 2822 2886 2736 
Q 2976 2650 2976 2522 
Q 2976 2387 2893 2307 
Q 2810 2227 2682 2227 
Q 2605 2227 2502 2288 
Q 2400 2349 2336 2349 
Q 2170 2349 1990 2205 
Q 1811 2061 1414 1645 
L 2042 544 
Q 2202 262 2310 182 
Q 2419 102 2624 102 
L 2624 0 
Q 2374 -83 2182 -83 
Q 1786 -83 1555 326 
L 960 1350 
L 576 0 
L 90 0 
L 640 1978 
Q 730 2317 730 2406 
Q 730 2560 518 2560 
L 339 2560 
L 339 2650 
Q 678 2694 1306 2822 
L 1325 2803 
L 979 1440 
z
" transform="scale(0.015625)"/>
       <path id="STIXGeneral-Regular-3d" d="M 4077 2048 
L 307 2048 
L 307 2470 
L 4077 2470 
L 4077 2048 
z
M 4077 768 
L 307 768 
L 307 1190 
L 4077 1190 
L 4077 768 
z
" transform="scale(0.015625)"/>
       <path id="STIXGeneral-Italic-6c" d="M 1786 4339 
L 806 595 
Q 755 410 755 320 
Q 755 205 864 205 
Q 1037 205 1293 570 
L 1453 794 
L 1542 730 
Q 1254 275 1046 102 
Q 838 -70 576 -70 
Q 262 -70 262 288 
Q 262 397 288 480 
L 1165 3834 
Q 1184 3898 1184 3955 
Q 1184 4096 870 4096 
L 755 4096 
L 755 4198 
Q 1203 4250 1747 4371 
L 1786 4339 
z
" transform="scale(0.015625)"/>
       <path id="STIXGeneral-Italic-6e" d="M 2944 749 
L 3034 666 
Q 2707 218 2534 80 
Q 2362 -58 2138 -58 
Q 2010 -58 1923 28 
Q 1837 115 1837 288 
Q 1837 390 1939 768 
L 2221 1805 
Q 2310 2150 2310 2310 
Q 2310 2496 2157 2496 
Q 1971 2496 1750 2275 
Q 1530 2054 1210 1587 
Q 998 1274 899 1024 
Q 800 774 570 0 
L 90 0 
L 704 2240 
Q 717 2304 717 2349 
Q 717 2445 630 2480 
Q 544 2515 301 2522 
L 301 2624 
Q 550 2675 857 2729 
Q 1165 2784 1338 2822 
L 1363 2810 
L 934 1414 
Q 1408 2170 1753 2496 
Q 2099 2822 2413 2822 
Q 2611 2822 2720 2716 
Q 2829 2611 2829 2432 
Q 2829 2272 2765 2048 
L 2406 749 
Q 2317 429 2317 358 
Q 2317 243 2419 243 
Q 2541 243 2810 582 
Q 2854 634 2944 749 
z
" transform="scale(0.015625)"/>
       <path id="STIXGeneral-Regular-28" d="M 1946 -1030 
L 1869 -1133 
Q 1126 -710 716 32 
Q 307 774 307 1613 
Q 307 3386 1888 4326 
L 1946 4224 
Q 1293 3667 1075 3126 
Q 858 2586 858 1632 
Q 858 685 1082 96 
Q 1306 -493 1946 -1030 
z
" transform="scale(0.015625)"/>
       <path id="STIXGeneral-Regular-29" d="M 186 4224 
L 262 4326 
Q 992 3891 1408 3148 
Q 1824 2406 1824 1581 
Q 1824 -166 243 -1133 
L 186 -1030 
Q 845 -486 1059 54 
Q 1274 595 1274 1562 
Q 1274 2534 1059 3120 
Q 845 3706 186 4224 
z
" transform="scale(0.015625)"/>
       <path id="STIXGeneral-Italic-64" d="M 3334 4371 
L 3373 4333 
L 3123 3360 
L 2739 1958 
Q 2323 429 2323 384 
Q 2323 256 2438 256 
Q 2522 256 2614 336 
Q 2707 416 2963 710 
L 3040 646 
Q 2547 -83 2099 -83 
Q 1978 -83 1907 -6 
Q 1837 70 1837 205 
Q 1837 397 1920 774 
Q 1645 307 1379 118 
Q 1114 -70 781 -70 
Q 461 -70 278 125 
Q 96 320 96 678 
Q 96 1440 713 2131 
Q 1331 2822 1965 2822 
Q 2163 2822 2256 2732 
Q 2349 2643 2381 2451 
L 2387 2451 
L 2675 3494 
Q 2765 3808 2765 3949 
Q 2765 4051 2694 4076 
Q 2624 4102 2355 4115 
L 2355 4224 
Q 2848 4269 3334 4371 
z
M 2278 2310 
Q 2278 2477 2185 2576 
Q 2093 2675 1978 2675 
Q 1677 2675 1395 2381 
Q 1075 2042 864 1571 
Q 653 1101 653 704 
Q 653 486 752 361 
Q 851 237 1024 237 
Q 1312 237 1606 550 
Q 1901 864 2089 1350 
Q 2278 1837 2278 2310 
z
" transform="scale(0.015625)"/>
      </defs>
      <use xlink:href="#STIXGeneral-Italic-3ba" transform="translate(0 0.003125)"/>
      <use xlink:href="#STIXGeneral-Regular-3d" transform="translate(58.83999 0.003125)"/>
      <use xlink:href="#STIXGeneral-Italic-6c" transform="translate(141.779971 50.192188) scale(0.7)"/>
      <use xlink:href="#STIXGeneral-Italic-6e" transform="translate(161.239963 50.192188) scale(0.7)"/>
      <use xlink:href="#STIXGeneral-Regular-28" transform="translate(196.239952 50.192188) scale(0.7)"/>
      <use xlink:href="#STIXGeneral-Italic-6e" transform="translate(219.549944 50.192188) scale(0.7)"/>
      <use xlink:href="#STIXGeneral-Regular-29" transform="translate(254.549933 50.192188) scale(0.7)"/>
      <use xlink:href="#STIXGeneral-Italic-6c" transform="translate(141.779971 -41.257812) scale(0.7)"/>
      <use xlink:href="#STIXGeneral-Italic-6e" transform="translate(161.239963 -41.257812) scale(0.7)"/>
      <use xlink:href="#STIXGeneral-Regular-28" transform="translate(196.239952 -41.257812) scale(0.7)"/>
      <use xlink:href="#STIXGeneral-Italic-64" transform="translate(219.549944 -41.257812) scale(0.7)"/>
      <use xlink:href="#STIXGeneral-Regular-29" transform="translate(254.549933 -41.257812) scale(0.7)"/>
      <path d="M 141.779971 12.8 
L 141.779971 19.05 
L 277.859924 19.05 
L 277.859924 12.8 
L 141.779971 12.8 
z
"/>
     </g>
    </g>
   </g>
   <g id="matplotlib.axis_2">
    <g id="ytick_1">
     <g id="line2d_7">
      <path d="M 336.726563 311.6435 
L 693.846563 311.6435 
" clip-path="url(#pf54ff59f63)" style="fill: none; stroke: #b0b0b0; stroke-opacity: 0.3; stroke-width: 0.8; stroke-linecap: square"/>
     </g>
     <g id="line2d_8">
      <defs>
       <path id="m2a19b31372" d="M 0 0 
L -3.5 0 
" style="stroke: #000000; stroke-width: 0.8"/>
      </defs>
      <g>
       <use xlink:href="#m2a19b31372" x="336.726563" y="311.6435" style="stroke: #000000; stroke-width: 0.8"/>
      </g>
     </g>
     <g id="text_5">
      <!-- 0.0 -->
      <g transform="translate(302.226563 319.281625) scale(0.22 -0.22)">
       <use xlink:href="#TimesNewRomanPSMT-30"/>
       <use xlink:href="#TimesNewRomanPSMT-2e" transform="translate(50 0)"/>
       <use xlink:href="#TimesNewRomanPSMT-30" transform="translate(75 0)"/>
      </g>
     </g>
    </g>
    <g id="ytick_2">
     <g id="line2d_9">
      <path d="M 336.726563 285.0323 
L 693.846563 285.0323 
" clip-path="url(#pf54ff59f63)" style="fill: none; stroke: #b0b0b0; stroke-opacity: 0.3; stroke-width: 0.8; stroke-linecap: square"/>
     </g>
     <g id="line2d_10">
      <g>
       <use xlink:href="#m2a19b31372" x="336.726563" y="285.0323" style="stroke: #000000; stroke-width: 0.8"/>
      </g>
     </g>
     <g id="text_6">
      <!-- 0.1 -->
      <g transform="translate(302.226563 292.670425) scale(0.22 -0.22)">
       <use xlink:href="#TimesNewRomanPSMT-30"/>
       <use xlink:href="#TimesNewRomanPSMT-2e" transform="translate(50 0)"/>
       <use xlink:href="#TimesNewRomanPSMT-31" transform="translate(75 0)"/>
      </g>
     </g>
    </g>
    <g id="ytick_3">
     <g id="line2d_11">
      <path d="M 336.726563 258.4211 
L 693.846563 258.4211 
" clip-path="url(#pf54ff59f63)" style="fill: none; stroke: #b0b0b0; stroke-opacity: 0.3; stroke-width: 0.8; stroke-linecap: square"/>
     </g>
     <g id="line2d_12">
      <g>
       <use xlink:href="#m2a19b31372" x="336.726563" y="258.4211" style="stroke: #000000; stroke-width: 0.8"/>
      </g>
     </g>
     <g id="text_7">
      <!-- 0.2 -->
      <g transform="translate(302.226563 266.059225) scale(0.22 -0.22)">
       <defs>
        <path id="TimesNewRomanPSMT-32" d="M 2934 816 
L 2638 0 
L 138 0 
L 138 116 
Q 1241 1122 1691 1759 
Q 2141 2397 2141 2925 
Q 2141 3328 1894 3587 
Q 1647 3847 1303 3847 
Q 991 3847 742 3664 
Q 494 3481 375 3128 
L 259 3128 
Q 338 3706 661 4015 
Q 984 4325 1469 4325 
Q 1984 4325 2329 3994 
Q 2675 3663 2675 3213 
Q 2675 2891 2525 2569 
Q 2294 2063 1775 1497 
Q 997 647 803 472 
L 1909 472 
Q 2247 472 2383 497 
Q 2519 522 2628 598 
Q 2738 675 2819 816 
L 2934 816 
z
" transform="scale(0.015625)"/>
       </defs>
       <use xlink:href="#TimesNewRomanPSMT-30"/>
       <use xlink:href="#TimesNewRomanPSMT-2e" transform="translate(50 0)"/>
       <use xlink:href="#TimesNewRomanPSMT-32" transform="translate(75 0)"/>
      </g>
     </g>
    </g>
    <g id="ytick_4">
     <g id="line2d_13">
      <path d="M 336.726563 231.8099 
L 693.846563 231.8099 
" clip-path="url(#pf54ff59f63)" style="fill: none; stroke: #b0b0b0; stroke-opacity: 0.3; stroke-width: 0.8; stroke-linecap: square"/>
     </g>
     <g id="line2d_14">
      <g>
       <use xlink:href="#m2a19b31372" x="336.726563" y="231.8099" style="stroke: #000000; stroke-width: 0.8"/>
      </g>
     </g>
     <g id="text_8">
      <!-- 0.3 -->
      <g transform="translate(302.226563 239.448025) scale(0.22 -0.22)">
       <defs>
        <path id="TimesNewRomanPSMT-33" d="M 325 3431 
Q 506 3859 782 4092 
Q 1059 4325 1472 4325 
Q 1981 4325 2253 3994 
Q 2459 3747 2459 3466 
Q 2459 3003 1878 2509 
Q 2269 2356 2469 2072 
Q 2669 1788 2669 1403 
Q 2669 853 2319 450 
Q 1863 -75 997 -75 
Q 569 -75 414 31 
Q 259 138 259 259 
Q 259 350 332 419 
Q 406 488 509 488 
Q 588 488 669 463 
Q 722 447 909 348 
Q 1097 250 1169 231 
Q 1284 197 1416 197 
Q 1734 197 1970 444 
Q 2206 691 2206 1028 
Q 2206 1275 2097 1509 
Q 2016 1684 1919 1775 
Q 1784 1900 1550 2001 
Q 1316 2103 1072 2103 
L 972 2103 
L 972 2197 
Q 1219 2228 1467 2375 
Q 1716 2522 1828 2728 
Q 1941 2934 1941 3181 
Q 1941 3503 1739 3701 
Q 1538 3900 1238 3900 
Q 753 3900 428 3381 
L 325 3431 
z
" transform="scale(0.015625)"/>
       </defs>
       <use xlink:href="#TimesNewRomanPSMT-30"/>
       <use xlink:href="#TimesNewRomanPSMT-2e" transform="translate(50 0)"/>
       <use xlink:href="#TimesNewRomanPSMT-33" transform="translate(75 0)"/>
      </g>
     </g>
    </g>
    <g id="ytick_5">
     <g id="line2d_15">
      <path d="M 336.726563 205.1987 
L 693.846563 205.1987 
" clip-path="url(#pf54ff59f63)" style="fill: none; stroke: #b0b0b0; stroke-opacity: 0.3; stroke-width: 0.8; stroke-linecap: square"/>
     </g>
     <g id="line2d_16">
      <g>
       <use xlink:href="#m2a19b31372" x="336.726563" y="205.1987" style="stroke: #000000; stroke-width: 0.8"/>
      </g>
     </g>
     <g id="text_9">
      <!-- 0.4 -->
      <g transform="translate(302.226563 212.836825) scale(0.22 -0.22)">
       <defs>
        <path id="TimesNewRomanPSMT-34" d="M 2978 1563 
L 2978 1119 
L 2409 1119 
L 2409 0 
L 1894 0 
L 1894 1119 
L 100 1119 
L 100 1519 
L 2066 4325 
L 2409 4325 
L 2409 1563 
L 2978 1563 
z
M 1894 1563 
L 1894 3666 
L 406 1563 
L 1894 1563 
z
" transform="scale(0.015625)"/>
       </defs>
       <use xlink:href="#TimesNewRomanPSMT-30"/>
       <use xlink:href="#TimesNewRomanPSMT-2e" transform="translate(50 0)"/>
       <use xlink:href="#TimesNewRomanPSMT-34" transform="translate(75 0)"/>
      </g>
     </g>
    </g>
    <g id="ytick_6">
     <g id="line2d_17">
      <path d="M 336.726563 178.5875 
L 693.846563 178.5875 
" clip-path="url(#pf54ff59f63)" style="fill: none; stroke: #b0b0b0; stroke-opacity: 0.3; stroke-width: 0.8; stroke-linecap: square"/>
     </g>
     <g id="line2d_18">
      <g>
       <use xlink:href="#m2a19b31372" x="336.726563" y="178.5875" style="stroke: #000000; stroke-width: 0.8"/>
      </g>
     </g>
     <g id="text_10">
      <!-- 0.5 -->
      <g transform="translate(302.226563 186.225625) scale(0.22 -0.22)">
       <use xlink:href="#TimesNewRomanPSMT-30"/>
       <use xlink:href="#TimesNewRomanPSMT-2e" transform="translate(50 0)"/>
       <use xlink:href="#TimesNewRomanPSMT-35" transform="translate(75 0)"/>
      </g>
     </g>
    </g>
    <g id="ytick_7">
     <g id="line2d_19">
      <path d="M 336.726563 151.9763 
L 693.846563 151.9763 
" clip-path="url(#pf54ff59f63)" style="fill: none; stroke: #b0b0b0; stroke-opacity: 0.3; stroke-width: 0.8; stroke-linecap: square"/>
     </g>
     <g id="line2d_20">
      <g>
       <use xlink:href="#m2a19b31372" x="336.726563" y="151.9763" style="stroke: #000000; stroke-width: 0.8"/>
      </g>
     </g>
     <g id="text_11">
      <!-- 0.6 -->
      <g transform="translate(302.226563 159.614425) scale(0.22 -0.22)">
       <defs>
        <path id="TimesNewRomanPSMT-36" d="M 2869 4325 
L 2869 4209 
Q 2456 4169 2195 4045 
Q 1934 3922 1679 3669 
Q 1425 3416 1258 3105 
Q 1091 2794 978 2366 
Q 1428 2675 1881 2675 
Q 2316 2675 2634 2325 
Q 2953 1975 2953 1425 
Q 2953 894 2631 456 
Q 2244 -75 1606 -75 
Q 1172 -75 869 213 
Q 275 772 275 1663 
Q 275 2231 503 2743 
Q 731 3256 1154 3653 
Q 1578 4050 1965 4187 
Q 2353 4325 2688 4325 
L 2869 4325 
z
M 925 2138 
Q 869 1716 869 1456 
Q 869 1156 980 804 
Q 1091 453 1309 247 
Q 1469 100 1697 100 
Q 1969 100 2183 356 
Q 2397 613 2397 1088 
Q 2397 1622 2184 2012 
Q 1972 2403 1581 2403 
Q 1463 2403 1327 2353 
Q 1191 2303 925 2138 
z
" transform="scale(0.015625)"/>
       </defs>
       <use xlink:href="#TimesNewRomanPSMT-30"/>
       <use xlink:href="#TimesNewRomanPSMT-2e" transform="translate(50 0)"/>
       <use xlink:href="#TimesNewRomanPSMT-36" transform="translate(75 0)"/>
      </g>
     </g>
    </g>
    <g id="ytick_8">
     <g id="line2d_21">
      <path d="M 336.726563 125.3651 
L 693.846563 125.3651 
" clip-path="url(#pf54ff59f63)" style="fill: none; stroke: #b0b0b0; stroke-opacity: 0.3; stroke-width: 0.8; stroke-linecap: square"/>
     </g>
     <g id="line2d_22">
      <g>
       <use xlink:href="#m2a19b31372" x="336.726563" y="125.3651" style="stroke: #000000; stroke-width: 0.8"/>
      </g>
     </g>
     <g id="text_12">
      <!-- 0.7 -->
      <g transform="translate(302.226563 133.003225) scale(0.22 -0.22)">
       <defs>
        <path id="TimesNewRomanPSMT-37" d="M 644 4238 
L 2916 4238 
L 2916 4119 
L 1503 -88 
L 1153 -88 
L 2419 3728 
L 1253 3728 
Q 900 3728 750 3644 
Q 488 3500 328 3200 
L 238 3234 
L 644 4238 
z
" transform="scale(0.015625)"/>
       </defs>
       <use xlink:href="#TimesNewRomanPSMT-30"/>
       <use xlink:href="#TimesNewRomanPSMT-2e" transform="translate(50 0)"/>
       <use xlink:href="#TimesNewRomanPSMT-37" transform="translate(75 0)"/>
      </g>
     </g>
    </g>
    <g id="ytick_9">
     <g id="line2d_23">
      <path d="M 336.726563 98.7539 
L 693.846563 98.7539 
" clip-path="url(#pf54ff59f63)" style="fill: none; stroke: #b0b0b0; stroke-opacity: 0.3; stroke-width: 0.8; stroke-linecap: square"/>
     </g>
     <g id="line2d_24">
      <g>
       <use xlink:href="#m2a19b31372" x="336.726563" y="98.7539" style="stroke: #000000; stroke-width: 0.8"/>
      </g>
     </g>
     <g id="text_13">
      <!-- 0.8 -->
      <g transform="translate(302.226563 106.392025) scale(0.22 -0.22)">
       <defs>
        <path id="TimesNewRomanPSMT-38" d="M 1228 2134 
Q 725 2547 579 2797 
Q 434 3047 434 3316 
Q 434 3728 753 4026 
Q 1072 4325 1600 4325 
Q 2113 4325 2425 4047 
Q 2738 3769 2738 3413 
Q 2738 3175 2569 2928 
Q 2400 2681 1866 2347 
Q 2416 1922 2594 1678 
Q 2831 1359 2831 1006 
Q 2831 559 2490 242 
Q 2150 -75 1597 -75 
Q 994 -75 656 303 
Q 388 606 388 966 
Q 388 1247 577 1523 
Q 766 1800 1228 2134 
z
M 1719 2469 
Q 2094 2806 2194 3001 
Q 2294 3197 2294 3444 
Q 2294 3772 2109 3958 
Q 1925 4144 1606 4144 
Q 1288 4144 1088 3959 
Q 888 3775 888 3528 
Q 888 3366 970 3203 
Q 1053 3041 1206 2894 
L 1719 2469 
z
M 1375 2016 
Q 1116 1797 991 1539 
Q 866 1281 866 981 
Q 866 578 1086 336 
Q 1306 94 1647 94 
Q 1984 94 2187 284 
Q 2391 475 2391 747 
Q 2391 972 2272 1150 
Q 2050 1481 1375 2016 
z
" transform="scale(0.015625)"/>
       </defs>
       <use xlink:href="#TimesNewRomanPSMT-30"/>
       <use xlink:href="#TimesNewRomanPSMT-2e" transform="translate(50 0)"/>
       <use xlink:href="#TimesNewRomanPSMT-38" transform="translate(75 0)"/>
      </g>
     </g>
    </g>
    <g id="ytick_10">
     <g id="line2d_25">
      <path d="M 336.726563 72.1427 
L 693.846563 72.1427 
" clip-path="url(#pf54ff59f63)" style="fill: none; stroke: #b0b0b0; stroke-opacity: 0.3; stroke-width: 0.8; stroke-linecap: square"/>
     </g>
     <g id="line2d_26">
      <g>
       <use xlink:href="#m2a19b31372" x="336.726563" y="72.1427" style="stroke: #000000; stroke-width: 0.8"/>
      </g>
     </g>
     <g id="text_14">
      <!-- 0.9 -->
      <g transform="translate(302.226563 79.780825) scale(0.22 -0.22)">
       <defs>
        <path id="TimesNewRomanPSMT-39" d="M 338 -88 
L 338 28 
Q 744 34 1094 217 
Q 1444 400 1770 856 
Q 2097 1313 2225 1859 
Q 1734 1544 1338 1544 
Q 891 1544 572 1889 
Q 253 2234 253 2806 
Q 253 3363 572 3797 
Q 956 4325 1575 4325 
Q 2097 4325 2469 3894 
Q 2925 3359 2925 2575 
Q 2925 1869 2578 1258 
Q 2231 647 1613 244 
Q 1109 -88 516 -88 
L 338 -88 
z
M 2275 2091 
Q 2331 2497 2331 2741 
Q 2331 3044 2228 3395 
Q 2125 3747 1936 3934 
Q 1747 4122 1506 4122 
Q 1228 4122 1018 3872 
Q 809 3622 809 3128 
Q 809 2469 1088 2097 
Q 1291 1828 1588 1828 
Q 1731 1828 1928 1897 
Q 2125 1966 2275 2091 
z
" transform="scale(0.015625)"/>
       </defs>
       <use xlink:href="#TimesNewRomanPSMT-30"/>
       <use xlink:href="#TimesNewRomanPSMT-2e" transform="translate(50 0)"/>
       <use xlink:href="#TimesNewRomanPSMT-39" transform="translate(75 0)"/>
      </g>
     </g>
    </g>
    <g id="ytick_11">
     <g id="line2d_27">
      <path d="M 336.726563 45.5315 
L 693.846563 45.5315 
" clip-path="url(#pf54ff59f63)" style="fill: none; stroke: #b0b0b0; stroke-opacity: 0.3; stroke-width: 0.8; stroke-linecap: square"/>
     </g>
     <g id="line2d_28">
      <g>
       <use xlink:href="#m2a19b31372" x="336.726563" y="45.5315" style="stroke: #000000; stroke-width: 0.8"/>
      </g>
     </g>
     <g id="text_15">
      <!-- 1.0 -->
      <g transform="translate(302.226563 53.169625) scale(0.22 -0.22)">
       <use xlink:href="#TimesNewRomanPSMT-31"/>
       <use xlink:href="#TimesNewRomanPSMT-2e" transform="translate(50 0)"/>
       <use xlink:href="#TimesNewRomanPSMT-30" transform="translate(75 0)"/>
      </g>
     </g>
    </g>
    <g id="text_16">
     <!-- Accuracy -->
     <g transform="translate(293.479375 220.726094) rotate(-90) scale(0.22 -0.22)">
      <defs>
       <path id="TimesNewRomanPSMT-41" d="M 2928 1419 
L 1288 1419 
L 1000 750 
Q 894 503 894 381 
Q 894 284 986 211 
Q 1078 138 1384 116 
L 1384 0 
L 50 0 
L 50 116 
Q 316 163 394 238 
Q 553 388 747 847 
L 2238 4334 
L 2347 4334 
L 3822 809 
Q 4000 384 4145 257 
Q 4291 131 4550 116 
L 4550 0 
L 2878 0 
L 2878 116 
Q 3131 128 3220 200 
Q 3309 272 3309 375 
Q 3309 513 3184 809 
L 2928 1419 
z
M 2841 1650 
L 2122 3363 
L 1384 1650 
L 2841 1650 
z
" transform="scale(0.015625)"/>
       <path id="TimesNewRomanPSMT-63" d="M 2631 1088 
Q 2516 522 2178 217 
Q 1841 -88 1431 -88 
Q 944 -88 581 321 
Q 219 731 219 1428 
Q 219 2103 620 2525 
Q 1022 2947 1584 2947 
Q 2006 2947 2278 2723 
Q 2550 2500 2550 2259 
Q 2550 2141 2473 2067 
Q 2397 1994 2259 1994 
Q 2075 1994 1981 2113 
Q 1928 2178 1911 2362 
Q 1894 2547 1784 2644 
Q 1675 2738 1481 2738 
Q 1169 2738 978 2506 
Q 725 2200 725 1697 
Q 725 1184 976 792 
Q 1228 400 1656 400 
Q 1963 400 2206 609 
Q 2378 753 2541 1131 
L 2631 1088 
z
" transform="scale(0.015625)"/>
       <path id="TimesNewRomanPSMT-75" d="M 2709 2863 
L 2709 1128 
Q 2709 631 2732 520 
Q 2756 409 2807 365 
Q 2859 322 2928 322 
Q 3025 322 3147 375 
L 3191 266 
L 2334 -88 
L 2194 -88 
L 2194 519 
Q 1825 119 1631 15 
Q 1438 -88 1222 -88 
Q 981 -88 804 51 
Q 628 191 559 409 
Q 491 628 491 1028 
L 491 2306 
Q 491 2509 447 2587 
Q 403 2666 317 2708 
Q 231 2750 6 2747 
L 6 2863 
L 1009 2863 
L 1009 947 
Q 1009 547 1148 422 
Q 1288 297 1484 297 
Q 1619 297 1789 381 
Q 1959 466 2194 703 
L 2194 2325 
Q 2194 2569 2105 2655 
Q 2016 2741 1734 2747 
L 1734 2863 
L 2709 2863 
z
" transform="scale(0.015625)"/>
       <path id="TimesNewRomanPSMT-72" d="M 1038 2947 
L 1038 2303 
Q 1397 2947 1775 2947 
Q 1947 2947 2059 2842 
Q 2172 2738 2172 2600 
Q 2172 2478 2090 2393 
Q 2009 2309 1897 2309 
Q 1788 2309 1652 2417 
Q 1516 2525 1450 2525 
Q 1394 2525 1328 2463 
Q 1188 2334 1038 2041 
L 1038 669 
Q 1038 431 1097 309 
Q 1138 225 1241 169 
Q 1344 113 1538 113 
L 1538 0 
L 72 0 
L 72 113 
Q 291 113 397 181 
Q 475 231 506 341 
Q 522 394 522 644 
L 522 1753 
Q 522 2253 501 2348 
Q 481 2444 426 2487 
Q 372 2531 291 2531 
Q 194 2531 72 2484 
L 41 2597 
L 906 2947 
L 1038 2947 
z
" transform="scale(0.015625)"/>
       <path id="TimesNewRomanPSMT-61" d="M 1822 413 
Q 1381 72 1269 19 
Q 1100 -59 909 -59 
Q 613 -59 420 144 
Q 228 347 228 678 
Q 228 888 322 1041 
Q 450 1253 767 1440 
Q 1084 1628 1822 1897 
L 1822 2009 
Q 1822 2438 1686 2597 
Q 1550 2756 1291 2756 
Q 1094 2756 978 2650 
Q 859 2544 859 2406 
L 866 2225 
Q 866 2081 792 2003 
Q 719 1925 600 1925 
Q 484 1925 411 2006 
Q 338 2088 338 2228 
Q 338 2497 613 2722 
Q 888 2947 1384 2947 
Q 1766 2947 2009 2819 
Q 2194 2722 2281 2516 
Q 2338 2381 2338 1966 
L 2338 994 
Q 2338 584 2353 492 
Q 2369 400 2405 369 
Q 2441 338 2488 338 
Q 2538 338 2575 359 
Q 2641 400 2828 588 
L 2828 413 
Q 2478 -56 2159 -56 
Q 2006 -56 1915 50 
Q 1825 156 1822 413 
z
M 1822 616 
L 1822 1706 
Q 1350 1519 1213 1441 
Q 966 1303 859 1153 
Q 753 1003 753 825 
Q 753 600 887 451 
Q 1022 303 1197 303 
Q 1434 303 1822 616 
z
" transform="scale(0.015625)"/>
       <path id="TimesNewRomanPSMT-79" d="M 38 2863 
L 1372 2863 
L 1372 2747 
L 1306 2747 
Q 1166 2747 1095 2686 
Q 1025 2625 1025 2534 
Q 1025 2413 1128 2197 
L 1825 753 
L 2466 2334 
Q 2519 2463 2519 2588 
Q 2519 2644 2497 2672 
Q 2472 2706 2419 2726 
Q 2366 2747 2231 2747 
L 2231 2863 
L 3163 2863 
L 3163 2747 
Q 3047 2734 2984 2696 
Q 2922 2659 2847 2556 
Q 2819 2513 2741 2316 
L 1575 -541 
Q 1406 -956 1132 -1168 
Q 859 -1381 606 -1381 
Q 422 -1381 303 -1275 
Q 184 -1169 184 -1031 
Q 184 -900 270 -820 
Q 356 -741 506 -741 
Q 609 -741 788 -809 
Q 913 -856 944 -856 
Q 1038 -856 1148 -759 
Q 1259 -663 1372 -384 
L 1575 113 
L 547 2272 
Q 500 2369 397 2513 
Q 319 2622 269 2659 
Q 197 2709 38 2747 
L 38 2863 
z
" transform="scale(0.015625)"/>
      </defs>
      <use xlink:href="#TimesNewRomanPSMT-41"/>
      <use xlink:href="#TimesNewRomanPSMT-63" transform="translate(72.216797 0)"/>
      <use xlink:href="#TimesNewRomanPSMT-63" transform="translate(116.601562 0)"/>
      <use xlink:href="#TimesNewRomanPSMT-75" transform="translate(160.986328 0)"/>
      <use xlink:href="#TimesNewRomanPSMT-72" transform="translate(210.986328 0)"/>
      <use xlink:href="#TimesNewRomanPSMT-61" transform="translate(244.287109 0)"/>
      <use xlink:href="#TimesNewRomanPSMT-63" transform="translate(288.671875 0)"/>
      <use xlink:href="#TimesNewRomanPSMT-79" transform="translate(333.056641 0)"/>
     </g>
    </g>
   </g>
   <g id="line2d_29">
    <path d="M 336.726563 178.654031 
L 419.931656 179.119725 
L 442.366741 179.053194 
L 455.87931 162.820365 
L 465.579533 154.238256 
L 473.151845 148.849482 
L 479.363919 144.791283 
L 484.63082 139.069861 
L 489.202545 134.679014 
L 493.24139 131.818311 
L 496.858714 128.6915 
L 500.134246 126.363014 
L 503.127037 125.298564 
L 505.882044 122.970094 
L 508.434286 121.040779 
L 513.036366 119.178003 
L 515.127048 117.913968 
L 518.964639 116.583409 
L 520.735167 115.452436 
L 522.419712 114.720617 
L 524.026241 115.385897 
L 525.56166 114.254923 
L 527.032 112.857842 
L 528.442552 112.658256 
L 529.797991 111.926438 
L 531.10246 111.859915 
L 533.572885 110.595879 
L 534.745118 111.128112 
L 535.879036 110.862003 
L 536.977064 110.462833 
L 538.041405 108.733103 
L 539.074065 109.331859 
L 540.076875 108.733103 
L 541.051512 108.799626 
L 543.821183 107.136436 
L 544.697361 108.001285 
L 545.551956 107.269482 
L 546.386005 107.003374 
L 547.200475 106.071986 
L 547.996262 107.069897 
L 548.774204 106.670726 
L 549.535085 105.8724 
L 550.279637 106.471141 
L 551.008546 105.672815 
L 551.722456 105.672815 
L 552.421971 105.406706 
L 553.107661 104.741427 
L 553.780062 105.074059 
L 554.439679 105.074059 
L 555.086988 104.741427 
L 555.722442 104.741427 
L 556.346465 104.209194 
L 557.561818 104.142671 
L 558.153894 104.009609 
L 558.736035 103.543915 
L 559.308569 104.009609 
L 559.871808 103.277806 
L 560.42605 104.475303 
L 560.971577 103.676977 
L 561.508658 103.410852 
L 562.037552 103.543915 
L 562.558505 103.144744 
L 563.071751 102.945158 
L 563.577514 103.211283 
L 564.076011 102.812112 
L 564.567447 103.211283 
L 565.052019 103.078221 
L 565.529916 103.211283 
L 566.00132 102.612527 
L 566.466404 102.67905 
L 566.925336 102.546003 
L 567.378277 102.67905 
L 567.825381 102.612527 
L 568.266796 102.745573 
L 568.702666 102.479464 
L 569.133128 102.812112 
L 569.558315 102.213356 
L 569.978353 102.479464 
L 570.393368 101.880708 
L 570.803476 101.880708 
L 571.208793 102.213356 
L 571.60943 101.747662 
L 572.005494 102.01377 
L 572.397087 101.6146 
L 572.784309 100.816274 
L 573.167258 101.548077 
L 573.546026 100.94932 
L 573.920703 101.015859 
L 574.291377 101.481553 
L 574.658133 100.816274 
L 575.021052 100.882797 
L 575.735697 100.217518 
L 576.087574 100.94932 
L 576.780799 100.284041 
L 577.122286 100.483626 
L 577.460445 100.350564 
L 577.795339 101.015859 
L 578.127031 100.150995 
L 578.455583 100.55015 
L 578.781052 100.683212 
L 579.103497 100.417103 
L 579.422972 100.55015 
L 580.05323 100.150995 
L 580.364118 99.951409 
L 580.672244 100.217518 
L 580.977657 99.88487 
L 581.280406 100.017932 
L 581.580536 99.618762 
L 581.878091 99.618762 
L 582.173117 99.485715 
L 582.465654 98.953482 
L 582.755746 99.951409 
L 583.043433 99.28613 
L 583.328753 99.685285 
L 583.611746 99.618762 
L 583.89245 99.28613 
L 584.170901 99.352653 
L 584.447134 99.020005 
L 584.721186 99.552238 
L 585.26288 99.219591 
L 586.059885 99.086544 
L 586.581229 99.552238 
L 586.838992 99.485715 
L 587.094854 99.086544 
L 587.348844 99.153068 
L 587.600987 98.487788 
L 587.851311 99.153068 
L 588.099842 98.886959 
L 588.346605 98.953482 
L 588.591626 98.886959 
L 588.834928 98.487788 
L 589.554763 98.22168 
L 589.791426 98.820436 
L 590.491883 98.354726 
L 590.951119 98.288203 
L 591.178477 97.689447 
L 591.628773 97.622923 
L 591.851748 97.822509 
L 592.073299 97.423338 
L 592.293444 98.155141 
L 592.512201 97.290292 
L 592.729587 98.022094 
L 592.94562 97.755986 
L 593.160316 97.889032 
L 593.373692 97.822509 
L 593.585763 97.423338 
L 593.796546 97.356815 
L 594.006057 97.489861 
L 594.214309 97.290292 
L 594.421319 97.423338 
L 594.627101 96.957644 
L 594.83167 97.290292 
L 595.03504 97.290292 
L 595.237224 97.755986 
L 595.438237 96.558473 
L 595.638093 96.824582 
L 596.034382 97.622923 
L 596.230842 96.558473 
L 596.426196 97.955571 
L 596.620456 97.290292 
L 596.813635 97.15723 
L 597.005744 97.689447 
L 597.196795 96.624997 
L 597.3868 97.423338 
L 597.575769 96.691536 
L 597.763715 97.090706 
L 597.950649 97.090706 
L 598.136581 97.689447 
L 598.321521 97.090706 
L 598.505481 97.15723 
L 598.688471 96.957644 
L 598.870501 97.223753 
L 599.23172 97.15723 
L 599.410928 96.624997 
L 599.589216 96.824582 
L 599.766593 96.425427 
L 600.118648 97.223753 
L 600.293346 96.225842 
L 600.467167 97.15723 
L 600.640123 96.691536 
L 600.81222 97.755986 
L 600.983468 97.290292 
L 601.153875 97.356815 
L 601.492198 96.358888 
L 601.660131 96.624997 
L 601.827254 97.15723 
L 601.993576 96.558473 
L 602.159105 96.49195 
L 602.323848 96.758059 
L 602.487812 95.893194 
L 602.651005 97.024167 
L 602.813434 96.957644 
L 602.975106 96.358888 
L 603.296208 96.49195 
L 603.455651 96.159303 
L 603.614365 96.292365 
L 603.929631 96.957644 
L 604.086196 96.159303 
L 604.242058 96.159303 
L 604.397222 96.358888 
L 604.551696 96.159303 
L 604.858596 97.024167 
L 605.011033 95.893194 
L 605.162804 95.893194 
L 605.313914 96.558473 
L 605.464369 95.959717 
L 605.614174 96.758059 
L 605.763334 96.691536 
L 605.911857 96.026256 
L 606.207008 96.758059 
L 606.353647 96.292365 
L 606.499669 95.294438 
L 606.645079 96.758059 
L 606.789882 95.760148 
L 606.934083 95.760148 
L 607.077687 96.691536 
L 607.2207 95.627085 
L 607.363125 96.624997 
L 607.786927 95.760148 
L 607.927051 95.826671 
L 608.066612 96.292365 
L 608.205613 95.560562 
L 608.34406 96.358888 
L 608.481957 95.161391 
L 608.892389 96.026256 
L 609.028128 95.294438 
L 609.163337 95.560562 
L 609.298022 95.161391 
L 609.565833 95.693609 
L 609.698968 95.627085 
L 609.831593 95.4275 
L 609.963714 95.959717 
L 610.095333 94.961806 
L 610.226455 94.961806 
L 610.487221 94.629158 
L 610.874731 95.161391 
L 611.002946 94.695697 
L 611.130688 94.762221 
L 611.257962 94.429573 
L 611.38477 94.961806 
L 611.511117 94.895283 
L 611.762438 94.36305 
L 611.88742 94.828744 
L 612.13604 93.963879 
L 612.259685 94.562635 
L 612.382891 94.496112 
L 612.505661 94.762221 
L 612.627998 94.695697 
L 612.871385 93.897356 
L 612.992442 94.429573 
L 613.113078 93.963879 
L 613.233295 94.030418 
L 613.353098 94.296527 
L 613.472488 94.163464 
L 613.591469 94.296527 
L 613.710043 94.030418 
L 614.063353 94.296527 
L 614.180328 94.030418 
L 614.29691 94.230003 
L 614.528905 93.830833 
L 614.644324 93.830833 
L 614.75936 94.030418 
L 614.988293 93.69777 
L 615.102196 93.897356 
L 615.215726 93.69777 
L 615.328886 93.897356 
L 615.441678 93.564708 
L 615.666168 93.764294 
L 615.889214 93.365139 
L 616.000202 93.099014 
L 616.110836 93.69777 
L 616.221118 93.631247 
L 616.331051 93.2986 
L 616.440637 93.365139 
L 616.549877 93.165553 
L 616.658775 93.69777 
L 616.767332 93.165553 
L 616.983432 93.431662 
L 617.198195 92.965968 
L 617.305079 93.232077 
L 617.411636 92.832906 
L 617.623772 92.965968 
L 617.729356 92.63332 
L 617.939564 93.631247 
L 618.148506 93.032491 
L 618.252507 93.498185 
L 618.356198 93.032491 
L 618.562653 93.165553 
L 618.665422 92.500274 
L 618.767888 92.63332 
L 618.870052 92.965968 
L 619.073481 92.832906 
L 619.17475 92.766383 
L 619.275724 92.367212 
L 619.376406 92.63332 
L 619.576896 92.63332 
L 619.676708 92.832906 
L 619.776234 92.63332 
L 619.974434 92.832906 
L 620.171508 92.566797 
L 620.269627 93.165553 
L 620.465036 92.566797 
L 620.562329 92.500274 
L 620.65935 92.699859 
L 620.852583 92.23415 
L 621.044745 92.23415 
L 621.140428 92.167626 
L 621.235848 92.699859 
L 621.425905 91.635409 
L 621.614926 91.834995 
L 621.709052 92.766383 
L 621.802923 92.699859 
L 621.896541 92.566797 
L 621.989907 92.23415 
L 622.083022 93.032491 
L 622.175889 92.899429 
L 622.360878 92.766383 
L 622.453005 92.23415 
L 622.544887 92.300689 
L 622.636527 92.367212 
L 622.727925 92.899429 
L 622.819083 92.500274 
L 622.910003 92.699859 
L 623.091129 92.300689 
L 623.271316 92.566797 
L 623.361059 93.032491 
L 623.628905 92.23415 
L 623.717729 92.766383 
L 623.806326 92.23415 
L 623.894698 92.899429 
L 623.982846 92.766383 
L 624.158471 92.367212 
L 624.245952 92.699859 
L 624.420254 92.300689 
L 624.593685 92.500274 
L 624.766253 92.300689 
L 624.852216 92.766383 
L 624.937967 92.699859 
L 625.023506 92.699859 
L 625.108836 92.500274 
L 625.193955 92.566797 
L 625.532361 92.832906 
L 625.616449 92.699859 
L 625.700334 93.165553 
L 625.784016 93.099014 
L 625.867498 92.300689 
L 626.03386 93.764294 
L 626.116743 92.300689 
L 626.199428 92.766383 
L 626.281917 92.566797 
L 626.36421 93.232077 
L 626.528213 92.367212 
L 626.609925 93.232077 
L 626.691444 93.032491 
L 626.772773 92.433735 
L 626.853911 92.63332 
L 626.934861 92.566797 
L 627.015621 93.365139 
L 627.256781 92.367212 
L 627.416628 92.566797 
L 627.496277 92.367212 
L 627.73413 92.965968 
L 627.891798 92.500274 
L 628.048753 93.099014 
L 628.205001 92.433735 
L 628.282861 92.699859 
L 628.360548 92.566797 
L 628.438061 93.232077 
L 628.515401 92.500274 
L 628.592569 93.165553 
L 628.669566 93.032491 
L 628.746392 92.965968 
L 628.899537 92.566797 
L 628.975856 92.832906 
L 629.052008 92.566797 
L 629.127993 92.699859 
L 629.279466 92.367212 
L 629.354955 93.564708 
L 629.43028 92.832906 
L 629.505442 93.365139 
L 629.580441 92.300689 
L 629.655279 92.63332 
L 629.729956 92.63332 
L 629.804472 93.099014 
L 629.878829 91.834995 
L 629.953026 92.367212 
L 630.027065 92.699859 
L 630.100947 92.23415 
L 630.24824 93.032491 
L 630.321652 91.56887 
L 630.39491 92.899429 
L 630.468013 92.699859 
L 630.613759 92.167626 
L 630.758895 92.766383 
L 630.903427 92.300689 
L 631.119102 92.899429 
L 631.190696 92.433735 
L 631.262143 93.165553 
L 631.333444 92.433735 
L 631.404598 92.566797 
L 631.475607 92.766383 
L 631.54647 92.300689 
L 631.617189 92.433735 
L 631.687764 92.832906 
L 631.828486 92.367212 
L 631.898633 92.899429 
L 631.968638 92.167626 
L 632.038503 93.099014 
L 632.108227 92.766383 
L 632.177812 91.635409 
L 632.247257 93.032491 
L 632.316563 92.766383 
L 632.385731 92.899429 
L 632.454762 92.63332 
L 632.523655 92.766383 
L 632.592412 91.635409 
L 632.729519 92.965968 
L 632.79787 92.500274 
L 632.866086 92.699859 
L 632.934168 93.032491 
L 633.069934 91.968041 
L 633.27259 93.032491 
L 633.40704 92.167626 
L 633.47407 92.500274 
L 633.607743 91.768456 
L 633.807292 92.63332 
L 633.873554 92.699859 
L 634.0057 92.23415 
L 634.071584 92.566797 
L 634.137344 92.23415 
L 634.202979 92.63332 
L 634.26849 91.968041 
L 634.333878 92.899429 
L 634.399143 92.500274 
L 634.464285 92.500274 
L 634.529305 92.367212 
L 634.594204 92.500274 
L 634.723638 91.834995 
L 634.916888 92.766383 
L 635.045126 92.034564 
L 635.236599 92.23415 
L 635.300189 92.101103 
L 635.490263 92.766383 
L 635.679302 91.701932 
L 635.742086 91.901518 
L 635.804757 92.832906 
L 635.929761 91.968041 
L 636.054316 92.832906 
L 636.178426 92.167626 
L 636.302093 92.367212 
L 636.363761 92.034564 
L 636.425321 92.566797 
L 636.486771 92.101103 
L 636.548112 92.167626 
L 636.609346 92.034564 
L 636.670471 91.435824 
L 636.731489 92.566797 
L 636.7924 92.500274 
L 636.853204 92.034564 
L 636.913901 92.23415 
L 636.974493 92.832906 
L 637.034979 92.433735 
L 637.09536 92.034564 
L 637.215807 92.699859 
L 637.275874 91.968041 
L 637.335837 92.167626 
L 637.395697 92.566797 
L 637.455454 92.23415 
L 637.57466 92.167626 
L 637.634109 91.701932 
L 637.693457 91.968041 
L 637.870894 92.566797 
L 637.929839 92.63332 
L 638.106074 92.167626 
L 638.164621 92.101103 
L 638.223069 92.500274 
L 638.281418 91.768456 
L 638.33967 92.034564 
L 638.513841 92.300689 
L 638.571704 92.034564 
L 638.629471 92.367212 
L 638.744717 91.768456 
L 638.974067 92.699859 
L 639.088176 91.968041 
L 639.14509 92.367212 
L 639.201911 91.968041 
L 639.258638 92.300689 
L 639.371817 92.101103 
L 639.428268 92.300689 
L 639.653158 91.768456 
L 639.709153 91.901518 
L 639.765058 91.635409 
L 639.876599 92.300689 
L 639.932235 92.167626 
L 640.043241 91.901518 
L 640.098611 92.23415 
L 640.153892 92.034564 
L 640.209086 91.768456 
L 640.264192 91.901518 
L 640.319211 92.034564 
L 640.374143 91.968041 
L 640.428987 91.834995 
L 640.483745 92.101103 
L 640.538417 91.968041 
L 640.593003 91.635409 
L 640.647503 92.034564 
L 640.701918 91.435824 
L 640.756247 92.034564 
L 640.810492 91.768456 
L 640.864652 91.901518 
L 640.972718 91.901518 
L 641.13419 91.369285 
L 641.294913 92.101103 
L 641.454895 91.302762 
L 641.561142 92.167626 
L 641.614143 91.435824 
L 641.667064 92.034564 
L 641.719904 91.901518 
L 641.772664 91.435824 
L 641.825343 92.034564 
L 641.877943 91.435824 
L 641.982904 91.169715 
L 642.035265 91.236238 
L 642.191878 91.635409 
L 642.243925 91.56887 
L 642.295894 91.834995 
L 642.3996 91.103176 
L 642.502997 91.834995 
L 642.55458 91.635409 
L 642.606087 90.97013 
L 642.657517 91.236238 
L 642.708871 91.834995 
L 642.760149 91.435824 
L 642.811351 91.103176 
L 642.862478 91.236238 
L 643.066236 91.635409 
L 643.116989 91.435824 
L 643.167668 91.901518 
L 643.218273 91.369285 
L 643.369647 90.903591 
L 643.520363 91.435824 
L 643.570456 91.635409 
L 643.77011 90.903591 
L 643.819844 91.369285 
L 643.869508 91.236238 
L 644.018072 90.97013 
L 644.067453 91.768456 
L 644.116763 91.036653 
L 644.166004 90.97013 
L 644.215174 91.56887 
L 644.264275 90.97013 
L 644.313307 91.036653 
L 644.362269 91.502347 
L 644.411163 90.903591 
L 644.508743 91.036653 
L 644.557431 91.302762 
L 644.60605 91.169715 
L 644.654602 90.903591 
L 644.703085 91.169715 
L 644.751501 91.302762 
L 644.799849 91.169715 
L 644.944491 90.837068 
L 645.040586 91.635409 
L 645.088533 90.570959 
L 645.136414 90.637482 
L 645.231979 91.103176 
L 645.279663 91.036653 
L 645.374834 90.637482 
L 645.517104 91.236238 
L 645.564398 90.97013 
L 645.611627 91.036653 
L 645.658793 91.236238 
L 645.705894 91.169715 
L 645.799905 90.903591 
L 645.846815 91.901518 
L 645.893662 91.169715 
L 645.940446 91.169715 
L 645.987166 91.502347 
L 646.033824 90.97013 
L 646.126952 91.036653 
L 646.173422 91.036653 
L 646.219831 91.701932 
L 646.266177 90.837068 
L 646.358684 90.770544 
L 646.450945 91.236238 
L 646.496984 90.97013 
L 646.542961 91.302762 
L 646.634734 91.036653 
L 646.68053 90.437897 
L 646.726265 91.103176 
L 646.86311 90.837068 
L 646.908606 91.036653 
L 646.999418 90.97013 
L 647.044735 90.637482 
L 647.089993 90.837068 
L 647.135192 90.97013 
L 647.180332 90.903591 
L 647.225414 90.504436 
L 647.270437 90.637482 
L 647.449947 91.302762 
L 647.673037 90.704005 
L 647.806205 91.103176 
L 647.850481 90.437897 
L 647.894701 91.369285 
L 647.982972 90.97013 
L 648.027023 91.369285 
L 648.114958 91.169715 
L 648.202671 90.570959 
L 648.290162 91.302762 
L 648.333825 90.837068 
L 648.377434 90.704005 
L 648.420987 91.169715 
L 648.464486 90.371374 
L 648.507931 90.97013 
L 648.637939 91.502347 
L 648.681167 90.504436 
L 648.767461 90.97013 
L 648.853542 90.504436 
L 648.93941 91.502347 
L 648.982264 90.30485 
L 649.067814 90.437897 
L 649.153153 90.903591 
L 649.238283 90.105265 
L 649.28077 91.236238 
L 649.365588 90.570959 
L 649.40792 90.704005 
L 649.450199 90.30485 
L 649.492428 90.837068 
L 649.618805 90.637482 
L 649.660829 90.837068 
L 649.702802 90.704005 
L 649.786595 90.30485 
L 649.828416 90.570959 
L 649.911908 91.302762 
L 649.995198 90.371374 
L 650.036769 90.704005 
L 650.119761 90.837068 
L 650.161183 90.770544 
L 650.202555 90.504436 
L 650.243878 90.570959 
L 650.285152 90.97013 
L 650.326376 90.371374 
L 650.367552 90.171788 
L 650.408679 90.97013 
L 650.449758 90.570959 
L 650.531769 90.171788 
L 650.572702 90.371374 
L 650.613586 90.30485 
L 650.654423 90.97013 
L 650.695211 90.837068 
L 650.776645 90.171788 
L 650.898438 90.97013 
L 650.938941 90.770544 
L 650.979397 89.772617 
L 651.060167 90.504436 
L 651.140749 91.236238 
L 651.18097 90.238311 
L 651.261273 90.30485 
L 651.301355 90.238311 
L 651.34139 91.036653 
L 651.421323 90.504436 
L 651.501072 90.171788 
L 651.540878 90.97013 
L 651.580638 90.171788 
L 651.620353 89.772617 
L 651.660022 90.30485 
L 651.699646 90.704005 
L 651.739225 90.637482 
L 651.778759 90.038726 
L 651.818247 91.036653 
L 651.89709 90.038726 
L 651.936444 90.238311 
L 651.975754 91.036653 
L 652.015019 89.972203 
L 652.05424 89.972203 
L 652.093417 90.105265 
L 652.132549 90.038726 
L 652.210682 90.903591 
L 652.249682 89.639571 
L 652.327552 90.637482 
L 652.366421 90.903591 
L 652.521464 89.972203 
L 652.560117 89.972203 
L 652.752738 90.837068 
L 652.791134 90.770544 
L 652.867799 90.171788 
L 652.906068 90.837068 
L 652.944295 89.972203 
L 653.020623 90.105265 
L 653.058724 90.837068 
L 653.134801 90.171788 
L 653.286455 90.903591 
L 653.43745 89.90568 
L 653.550267 90.30485 
L 653.625274 89.90568 
L 653.70012 90.570959 
L 653.737483 90.371374 
L 653.774805 90.371374 
L 653.812087 89.90568 
L 653.849329 90.038726 
L 653.886531 90.504436 
L 653.960816 90.105265 
L 653.997899 90.105265 
L 654.034942 89.90568 
L 654.071946 90.30485 
L 654.182721 90.637482 
L 654.219568 90.504436 
L 654.293144 89.639571 
L 654.366564 89.90568 
L 654.403216 89.839141 
L 654.549438 90.371374 
L 654.585898 90.437897 
L 654.695047 89.573032 
L 654.767622 90.437897 
L 654.840046 90.238311 
L 654.91232 89.439986 
L 654.9484 89.772617 
L 654.984443 90.570959 
L 655.056416 90.437897 
L 655.092347 89.506509 
L 655.164097 89.706094 
L 655.199916 89.706094 
L 655.235699 90.97013 
L 655.307154 89.706094 
L 655.342826 90.371374 
L 655.378461 90.238311 
L 655.449623 90.371374 
L 655.520639 89.439986 
L 655.556092 89.306923 
L 655.591509 90.171788 
L 655.662236 89.573032 
L 655.697545 89.706094 
L 655.732818 90.30485 
L 655.768056 89.439986 
L 655.803257 89.506509 
L 655.838423 90.038726 
L 655.908648 89.772617 
L 656.01372 90.570959 
L 656.083592 90.105265 
L 656.118475 89.439986 
L 656.188137 90.105265 
L 656.222915 90.30485 
L 656.36168 89.373447 
L 656.430855 90.238311 
L 656.499893 89.972203 
L 656.568793 89.839141 
L 656.603192 89.972203 
L 656.637557 90.038726 
L 656.740448 89.772617 
L 656.808872 90.437897 
L 656.945318 89.2404 
L 657.08123 89.839141 
L 657.115125 89.706094 
L 657.148987 89.107338 
L 657.182815 89.90568 
L 657.216611 89.706094 
L 657.250374 90.038726 
L 657.284104 89.439986 
L 657.317801 89.306923 
L 657.351466 90.371374 
L 657.418698 89.173861 
L 657.452264 90.30485 
L 657.519301 88.974292 
L 657.619614 89.2404 
L 657.652987 90.038726 
L 657.719637 89.972203 
L 657.752914 89.173861 
L 657.819373 89.506509 
L 657.852555 90.105265 
L 657.885705 89.439986 
L 657.95191 89.90568 
L 657.984965 89.839141 
L 658.017989 89.173861 
L 658.083942 89.706094 
L 658.182638 89.373447 
L 658.248279 90.30485 
L 658.281053 89.706094 
L 658.313797 89.173861 
L 658.379191 89.772617 
L 658.411841 89.306923 
L 658.444461 89.2404 
L 658.50961 90.105265 
L 658.542138 89.839141 
L 658.607104 89.040815 
L 658.639541 90.105265 
L 658.736671 89.306923 
L 658.768987 89.439986 
L 658.801273 89.506509 
L 658.833529 89.373447 
L 658.897952 89.439986 
L 658.994362 89.772617 
L 659.090505 89.040815 
L 659.122494 89.972203 
L 659.218283 89.706094 
L 659.313808 89.040815 
L 659.345591 89.506509 
L 659.377346 90.038726 
L 659.409071 89.2404 
L 659.440767 89.2404 
L 659.535683 90.238311 
L 659.567264 89.772617 
L 659.598816 89.040815 
L 659.630339 90.105265 
L 659.661834 89.173861 
L 659.724738 89.972203 
L 659.756148 89.573032 
L 659.787529 89.040815 
L 659.818881 89.439986 
L 659.881501 90.371374 
L 659.944009 89.040815 
L 659.97522 89.639571 
L 660.006404 90.171788 
L 660.068687 89.90568 
L 660.223907 88.84123 
L 660.254868 88.974292 
L 660.347585 89.839141 
L 660.378436 89.373447 
L 660.409259 88.974292 
L 660.470824 89.306923 
L 660.53228 89.506509 
L 660.562967 89.107338 
L 660.593627 89.439986 
L 660.62426 89.90568 
L 660.715996 89.706094 
L 660.746521 89.772617 
L 660.777019 89.706094 
L 660.807491 89.306923 
L 660.868354 89.639571 
L 660.92911 89.772617 
L 661.050304 89.2404 
L 661.140922 89.839141 
L 661.201203 89.573032 
L 661.291429 89.040815 
L 661.26138 89.706094 
L 661.321452 89.2404 
L 661.38142 90.30485 
L 661.471179 89.639571 
L 661.501047 89.439986 
L 661.620263 90.371374 
L 661.650003 89.772617 
L 661.739071 90.038726 
L 661.768709 89.706094 
L 661.798323 89.90568 
L 661.82791 90.30485 
L 661.857473 89.839141 
L 661.887011 90.105265 
L 661.94601 89.506509 
L 661.975473 90.437897 
L 662.00491 89.639571 
L 662.06371 90.238311 
L 662.093072 89.373447 
L 662.151723 89.972203 
L 662.181011 90.437897 
L 662.210274 90.171788 
L 662.239513 89.506509 
L 662.327082 89.839141 
L 662.356223 89.573032 
L 662.443498 89.772617 
L 662.472541 89.639571 
L 662.530554 90.371374 
L 662.58847 90.30485 
L 662.732839 89.373447 
L 662.87661 90.437897 
L 662.905293 89.439986 
L 662.9912 90.105265 
L 663.162377 89.173861 
L 663.276028 90.437897 
L 663.304383 90.371374 
L 663.332715 89.439986 
L 663.389308 89.972203 
L 663.41757 90.837068 
L 663.474026 89.573032 
L 663.502219 89.2404 
L 663.53039 90.570959 
L 663.614764 89.639571 
L 663.698934 89.972203 
L 663.754934 89.639571 
L 663.838765 91.169715 
L 663.978034 89.439986 
L 664.033586 90.504436 
L 664.061329 90.105265 
L 664.116747 89.173861 
L 664.172077 89.839141 
L 664.227319 90.171788 
L 664.254907 90.105265 
L 664.33754 89.506509 
L 664.39252 90.30485 
L 664.447412 90.238311 
L 664.529588 89.772617 
L 664.502218 90.30485 
L 664.556937 90.171788 
L 664.584264 90.371374 
L 664.61157 90.30485 
L 664.638855 89.772617 
L 664.693359 90.238311 
L 664.774955 90.105265 
L 664.829247 91.302762 
L 664.937575 89.972203 
L 664.964604 90.504436 
L 665.018599 89.90568 
L 665.045566 90.30485 
L 665.072511 90.437897 
L 665.126339 90.171788 
L 665.206924 89.772617 
L 665.180083 90.238311 
L 665.233745 90.171788 
L 665.314082 90.704005 
L 665.340819 90.371374 
L 665.394233 89.639571 
L 665.420909 90.837068 
L 665.447564 91.435824 
L 665.500814 90.371374 
L 665.607068 89.772617 
L 665.553982 90.437897 
L 665.660074 89.839141 
L 665.818606 91.103176 
L 665.844958 90.903591 
L 665.976418 89.573032 
L 666.028862 90.770544 
L 666.081228 90.30485 
L 666.107381 89.772617 
L 666.185722 90.038726 
L 666.211797 90.837068 
L 666.289903 90.238311 
L 666.341876 90.903591 
L 666.367834 90.105265 
L 666.393772 89.90568 
L 666.44559 90.30485 
L 666.47147 90.97013 
L 666.548995 90.105265 
L 666.600581 90.171788 
L 666.626346 90.238311 
L 666.652092 91.036653 
L 666.729214 90.105265 
L 666.831778 91.502347 
L 666.780534 89.90568 
L 666.857372 90.30485 
L 666.93404 90.770544 
L 666.985057 91.435824 
L 667.010538 90.437897 
L 667.036001 89.706094 
L 667.086869 90.97013 
L 667.112275 91.036653 
L 667.137663 89.772617 
L 667.213715 90.038726 
L 667.239028 91.169715 
L 667.2896 90.30485 
L 667.314858 89.573032 
L 667.340098 91.036653 
L 667.390523 89.972203 
L 667.491153 91.56887 
L 667.516265 91.369285 
L 667.566435 90.171788 
L 667.641553 90.504436 
L 667.666557 90.504436 
L 667.741459 91.236238 
L 667.766391 90.903591 
L 667.89078 90.238311 
L 667.965201 91.103176 
L 667.989972 90.770544 
L 668.039462 89.839141 
L 668.088881 90.837068 
L 668.13823 90.038726 
L 668.187509 91.435824 
L 668.212122 90.437897 
L 668.285857 90.637482 
L 668.310401 91.036653 
L 668.359436 90.238311 
L 668.383927 90.903591 
L 668.481721 90.238311 
L 668.57924 91.369285 
L 668.603577 91.103176 
L 668.627897 90.97013 
L 668.6522 89.90568 
L 668.700754 91.369285 
L 668.725006 91.369285 
L 668.749241 90.770544 
L 668.821845 90.837068 
L 668.918414 91.369285 
L 668.870163 90.504436 
L 668.942514 91.169715 
L 669.038748 90.570959 
L 669.062765 91.435824 
L 669.086765 90.437897 
L 669.134716 91.369285 
L 669.158666 90.171788 
L 669.230419 90.637482 
L 669.325859 90.570959 
L 669.373481 91.56887 
L 669.515955 90.504436 
L 669.586973 91.502347 
L 669.610613 91.103176 
L 669.681438 90.171788 
L 669.705015 90.570959 
L 669.775647 91.701932 
L 669.822656 91.036653 
L 669.869601 90.30485 
L 669.89305 91.302762 
L 669.916483 90.903591 
L 669.9399 91.701932 
L 670.010056 90.637482 
L 670.03341 91.435824 
L 670.12667 90.504436 
L 670.149945 91.036653 
L 670.173205 91.103176 
L 670.26609 91.834995 
L 670.219679 90.437897 
L 670.289273 91.502347 
L 670.358727 91.635409 
L 670.428043 90.570959 
L 670.543262 91.834995 
L 670.56626 91.768456 
L 670.61221 91.169715 
L 670.635162 91.834995 
L 670.681022 91.369285 
L 670.749697 90.837068 
L 670.772559 91.103176 
L 670.818237 91.635409 
L 670.863855 90.704005 
L 670.886641 91.302762 
L 670.954911 91.901518 
L 670.932169 90.97013 
L 670.977638 91.169715 
L 671.00035 91.103176 
L 671.068397 90.437897 
L 671.13631 91.968041 
L 671.158919 92.167626 
L 671.181512 91.635409 
L 671.226655 91.901518 
L 671.384195 90.637482 
L 671.406643 91.036653 
L 671.473898 91.502347 
L 671.496288 91.169715 
L 671.518663 90.570959 
L 671.56337 91.635409 
L 671.585701 90.903591 
L 671.674885 91.834995 
L 671.697146 91.435824 
L 671.741623 90.704005 
L 671.763841 91.768456 
L 671.808233 91.302762 
L 671.830408 91.302762 
L 671.874715 91.768456 
L 671.918966 91.169715 
L 671.94107 91.302762 
L 671.96316 91.236238 
L 671.985236 91.369285 
L 672.007298 91.834995 
L 672.0734 90.97013 
L 672.095406 91.701932 
L 672.183291 91.036653 
L 672.205228 91.302762 
L 672.249059 91.768456 
L 672.270954 90.837068 
L 672.314703 91.369285 
L 672.358396 91.968041 
L 672.380222 91.302762 
L 672.423833 91.502347 
L 672.445618 91.502347 
L 672.510891 90.97013 
L 672.489147 91.56887 
L 672.532622 91.169715 
L 672.554338 91.635409 
L 672.619407 91.56887 
L 672.684355 90.97013 
L 672.727585 91.635409 
L 672.79233 91.768456 
L 672.87847 91.103176 
L 673.156955 92.034564 
L 673.178284 90.97013 
L 673.263472 91.834995 
L 673.305987 91.768456 
L 673.327226 91.968041 
L 673.348451 91.036653 
L 673.433222 91.701932 
L 673.517787 90.97013 
L 673.559992 91.435824 
L 673.602146 92.101103 
L 673.644249 90.770544 
L 673.770251 91.635409 
L 673.791207 91.369285 
L 673.833081 90.704005 
L 673.874905 91.435824 
L 673.916678 91.635409 
L 673.937546 90.97013 
L 674.041697 91.103176 
L 674.124793 91.635409 
L 674.145536 91.169715 
L 674.166267 90.704005 
L 674.228385 91.169715 
L 674.331668 91.901518 
L 674.414073 90.97013 
L 674.434644 91.302762 
L 674.496283 91.768456 
L 674.537316 91.169715 
L 674.557813 91.036653 
L 674.578299 92.433735 
L 674.660122 91.103176 
L 674.680547 91.169715 
L 674.762129 92.23415 
L 674.782495 91.901518 
L 674.82319 91.236238 
L 674.904438 91.369285 
L 674.985496 92.23415 
L 675.046165 92.034564 
L 675.167186 91.302762 
L 675.207433 92.034564 
L 675.287787 91.901518 
L 675.307846 91.968041 
L 675.327894 91.834995 
L 675.467905 91.236238 
L 675.487861 92.167626 
L 675.567569 91.369285 
L 675.686788 92.433735 
L 675.746244 92.101103 
L 675.766041 91.502347 
L 675.864852 91.635409 
L 675.884581 91.635409 
L 675.904298 91.169715 
L 675.9437 91.701932 
L 675.983056 91.701932 
L 676.002718 91.635409 
L 676.022368 92.23415 
L 676.100859 91.502347 
L 676.276816 92.367212 
L 676.374186 91.369285 
L 676.413057 91.502347 
L 676.432477 92.23415 
L 676.49067 91.435824 
L 676.529411 91.834995 
L 676.626075 91.635409 
L 676.587442 91.901518 
L 676.645376 91.701932 
L 676.664666 92.433735 
L 676.741718 91.768456 
L 676.78018 91.968041 
L 676.799396 91.635409 
L 676.8186 92.167626 
L 676.895312 91.701932 
L 676.933604 91.635409 
L 676.952734 92.433735 
L 676.990963 91.435824 
L 677.048228 91.968041 
L 677.067295 91.701932 
L 677.105398 92.500274 
L 677.124434 91.834995 
L 677.14346 92.23415 
L 677.181479 91.369285 
L 677.200473 91.834995 
L 677.219457 91.435824 
L 677.295289 92.034564 
L 677.427596 91.302762 
L 677.352054 92.167626 
L 677.446456 91.834995 
L 677.465306 92.300689 
L 677.484145 91.435824 
L 677.540602 91.901518 
L 677.559401 91.502347 
L 677.615736 92.566797 
L 677.671979 91.169715 
L 677.765517 91.701932 
L 677.840165 92.167626 
L 677.877429 91.901518 
L 677.914653 91.901518 
L 677.988982 91.369285 
L 677.951838 92.433735 
L 678.007539 91.701932 
L 678.063152 92.63332 
L 678.118675 91.701932 
L 678.17411 92.832906 
L 678.192569 91.56887 
L 678.284715 92.433735 
L 678.303115 91.834995 
L 678.376617 92.63332 
L 678.413309 92.832906 
L 678.431641 92.367212 
L 678.486578 91.502347 
L 678.523155 92.500274 
L 678.559693 91.635409 
L 678.669077 92.63332 
L 678.687274 92.101103 
L 678.705462 91.56887 
L 678.759968 92.63332 
L 678.796258 91.968041 
L 678.814388 92.034564 
L 678.868723 92.899429 
L 678.922973 92.433735 
L 679.013202 91.701932 
L 678.995175 92.500274 
L 679.03122 92.300689 
L 679.049228 92.965968 
L 679.085217 92.167626 
L 679.121168 92.300689 
L 679.192959 92.500274 
L 679.246705 91.968041 
L 679.264602 91.968041 
L 679.282489 91.701932 
L 679.336097 92.367212 
L 679.353947 92.367212 
L 679.407445 91.635409 
L 679.46086 92.101103 
L 679.531952 92.965968 
L 679.567443 92.367212 
L 679.602899 92.300689 
L 679.620613 92.23415 
L 679.638318 92.433735 
L 679.691379 92.766383 
L 679.744359 92.433735 
L 679.850076 91.834995 
L 679.779634 92.699859 
L 679.867665 92.101103 
L 679.937929 93.032491 
L 679.990534 92.566797 
L 680.06055 92.433735 
L 680.02556 92.899429 
L 680.095505 92.500274 
L 680.20016 93.165553 
L 680.130425 92.300689 
L 680.287132 92.965968 
L 680.3045 92.500274 
L 680.391211 92.899429 
L 680.408527 92.832906 
L 680.477706 92.23415 
L 680.529499 92.433735 
L 680.563986 92.965968 
L 680.598437 92.034564 
L 680.632855 92.367212 
L 680.650051 92.367212 
L 680.770186 93.099014 
L 680.855742 92.367212 
L 680.889905 92.899429 
L 680.906975 92.965968 
L 680.924035 92.63332 
L 680.958132 92.899429 
L 681.043226 92.367212 
L 681.06022 92.699859 
L 681.094183 92.367212 
L 681.162009 92.965968 
L 681.212792 93.165553 
L 681.314135 92.300689 
L 681.381533 92.500274 
L 681.415183 92.23415 
L 681.4488 92.699859 
L 681.499165 92.566797 
L 681.549457 93.099014 
L 681.666523 92.300689 
L 681.683214 92.367212 
L 681.816457 93.2986 
L 681.899475 92.101103 
L 681.932626 92.899429 
L 681.965746 92.500274 
L 682.015367 92.965968 
L 682.031891 92.63332 
L 682.048408 93.232077 
L 682.081417 92.566797 
L 682.130873 92.766383 
L 682.163804 92.899429 
L 682.245996 92.300689 
L 682.34437 93.232077 
L 682.393452 92.899429 
L 682.409798 92.832906 
L 682.49141 91.901518 
L 682.442466 92.965968 
L 682.524001 92.300689 
L 682.637829 93.032491 
L 682.654059 92.832906 
L 682.670282 93.032491 
L 682.718906 92.63332 
L 682.735099 92.367212 
L 682.767462 92.965968 
L 682.832098 92.566797 
L 682.864371 92.566797 
L 682.912723 92.500274 
L 682.977089 92.965968 
L 683.057379 91.968041 
L 683.073414 93.099014 
L 683.169473 92.367212 
L 683.185457 93.099014 
L 683.201434 91.435824 
L 683.265267 91.834995 
L 683.360796 93.165553 
L 683.313064 91.635409 
L 683.471916 92.766383 
L 683.55107 92.500274 
L 683.535254 93.099014 
L 683.566879 92.699859 
L 683.645817 93.032491 
L 683.598476 92.101103 
L 683.661583 92.766383 
L 683.708838 92.034564 
L 683.756029 93.099014 
L 683.865893 91.901518 
L 683.803156 93.165553 
L 683.897218 92.699859 
L 683.91287 92.699859 
L 683.928516 92.899429 
L 683.959785 92.23415 
L 683.975409 92.766383 
L 684.069006 91.834995 
L 684.037835 92.832906 
L 684.100149 92.167626 
L 684.146811 93.165553 
L 684.208929 92.101103 
L 684.224442 93.099014 
L 684.348291 92.300689 
L 684.255445 93.165553 
L 684.363741 92.433735 
L 684.39462 93.165553 
L 684.440888 92.101103 
L 684.471699 92.566797 
L 684.502483 91.701932 
L 684.548607 92.699859 
L 684.563969 92.699859 
L 684.625345 93.2986 
L 684.640673 92.899429 
L 684.655993 92.101103 
L 684.732494 93.2986 
L 684.869773 92.300689 
L 684.930611 91.56887 
L 684.960991 92.367212 
L 684.97617 92.832906 
L 685.02167 91.701932 
L 685.05197 92.23415 
L 685.067109 91.968041 
L 685.09737 92.899429 
L 685.127603 92.63332 
L 685.14271 92.899429 
L 685.187992 92.500274 
L 685.218147 92.500274 
L 685.248276 91.834995 
L 685.26333 92.766383 
L 685.29342 92.566797 
L 685.338505 93.032491 
L 685.36853 92.034564 
L 685.383532 92.899429 
L 685.503319 92.034564 
L 685.533201 92.699859 
L 685.548133 91.968041 
L 685.622694 92.300689 
L 685.652474 92.23415 
L 685.756502 92.63332 
L 685.860219 91.968041 
L 685.786167 92.899429 
L 685.87501 92.101103 
L 685.919346 93.032491 
L 685.978374 92.433735 
L 686.022578 91.56887 
L 686.066727 92.699859 
L 686.08143 92.832906 
L 686.096128 92.367212 
L 686.125504 92.500274 
L 686.140183 91.768456 
L 686.213484 92.167626 
L 686.228125 92.965968 
L 686.330444 92.766383 
L 686.447011 91.635409 
L 686.359623 93.099014 
L 686.476092 92.101103 
L 686.490623 92.101103 
L 686.505148 92.63332 
L 686.606655 92.367212 
L 686.635602 92.167626 
L 686.650066 92.500274 
L 686.722299 92.832906 
L 686.736728 92.367212 
L 686.75115 92.101103 
L 686.80878 92.63332 
L 686.823173 92.433735 
L 686.85194 92.899429 
L 686.866315 92.167626 
L 686.880683 92.300689 
L 686.895046 91.701932 
L 686.923754 92.699859 
L 686.981098 92.367212 
L 687.024045 92.034564 
L 687.081224 93.032491 
L 687.109778 92.167626 
L 687.1953 92.500274 
L 687.209533 92.500274 
L 687.22376 92.23415 
L 687.294809 92.965968 
L 687.408186 92.23415 
L 687.521194 93.165553 
L 687.535294 92.300689 
L 687.633835 92.699859 
L 687.76012 93.431662 
L 687.661938 92.433735 
L 687.774124 93.365139 
L 687.844056 92.500274 
L 687.885948 93.099014 
L 687.941725 92.899429 
L 687.96958 93.498185 
L 688.01132 92.500274 
L 688.080777 93.099014 
L 688.10852 93.232077 
L 688.122384 92.766383 
L 688.163941 92.965968 
L 688.246906 92.566797 
L 688.191618 93.032491 
L 688.274518 92.766383 
L 688.357219 93.032491 
L 688.370984 92.832906 
L 688.398496 92.433735 
L 688.425987 92.899429 
L 688.453456 92.63332 
L 688.590476 93.498185 
L 688.631477 92.63332 
L 688.713333 92.832906 
L 688.754189 92.899429 
L 688.876469 92.500274 
L 688.944216 92.899429 
L 688.984801 92.832906 
L 689.052337 92.367212 
L 689.025339 93.165553 
L 689.065829 92.899429 
L 689.092796 93.498185 
L 689.133208 92.63332 
L 689.146668 92.766383 
L 689.160123 92.367212 
L 689.21389 92.899429 
L 689.254161 92.766383 
L 689.267574 92.766383 
L 689.280982 93.099014 
L 689.294385 92.63332 
L 689.374694 93.032491 
L 689.42813 92.566797 
L 689.454818 93.2986 
L 689.468154 93.165553 
L 689.481484 93.165553 
L 689.508131 92.500274 
L 689.587947 92.832906 
L 689.614512 93.2986 
L 689.66758 92.566797 
L 689.680834 92.63332 
L 689.707328 92.167626 
L 689.747031 93.032491 
L 689.760255 92.699859 
L 689.773474 93.431662 
L 689.799897 92.433735 
L 689.865867 92.766383 
L 689.984297 92.23415 
L 689.892219 92.832906 
L 689.997431 92.433735 
L 690.07613 93.564708 
L 690.128498 93.165553 
L 690.180787 93.2986 
L 690.259072 92.367212 
L 690.350182 93.2986 
L 690.37617 93.232077 
L 690.402138 93.165553 
L 690.505817 92.167626 
L 690.518755 92.566797 
L 690.531688 92.566797 
L 690.544616 92.699859 
L 690.596282 92.101103 
L 690.802179 93.099014 
L 690.815007 92.899429 
L 690.879076 92.433735 
L 690.840649 93.165553 
L 690.930246 92.699859 
L 690.955803 93.099014 
L 690.994103 92.433735 
L 691.032361 92.965968 
L 691.045104 92.63332 
L 691.070577 93.165553 
L 691.134176 93.032491 
L 691.17228 92.300689 
L 691.248362 92.63332 
L 691.286341 93.099014 
L 691.362174 92.832906 
L 691.425242 92.367212 
L 691.463027 92.500274 
L 691.525912 92.766383 
L 691.488195 92.367212 
L 691.563588 92.433735 
L 691.588683 92.566797 
L 691.688881 92.101103 
L 691.776317 93.032491 
L 691.78879 92.433735 
L 691.875976 92.034564 
L 691.851088 92.899429 
L 691.888413 92.63332 
L 691.925698 93.099014 
L 691.98775 92.500274 
L 692.01254 92.23415 
L 692.024928 92.766383 
L 692.062067 92.367212 
L 692.160909 92.965968 
L 692.123876 92.23415 
L 692.173244 92.899429 
L 692.210224 92.965968 
L 692.308646 91.968041 
L 692.443521 92.63332 
L 692.541284 92.23415 
L 692.467988 92.899429 
L 692.553485 92.367212 
L 692.614426 93.032491 
L 692.650939 92.101103 
L 692.663101 92.63332 
L 692.699563 92.167626 
L 692.735987 92.699859 
L 692.760248 92.699859 
L 692.772372 92.699859 
L 692.796608 91.834995 
L 692.893382 92.300689 
L 692.90546 92.566797 
L 692.95373 92.034564 
L 692.989888 92.034564 
L 693.03804 91.768456 
L 693.086125 92.433735 
L 693.206047 91.701932 
L 693.218017 91.701932 
L 693.337485 92.367212 
L 693.456544 92.101103 
L 693.420869 92.433735 
L 693.468427 92.23415 
L 693.551497 92.566797 
L 693.51592 91.968041 
L 693.563348 92.101103 
L 693.575195 92.101103 
L 693.610711 92.566797 
L 693.693442 92.300689 
L 693.728837 92.500274 
L 693.740628 92.23415 
L 693.752414 92.433735 
L 693.78775 92.034564 
L 693.846563 92.23415 
" clip-path="url(#pf54ff59f63)" style="fill: none; stroke: #1f77b4; stroke-width: 1.5; stroke-linecap: square"/>
   </g>
   <g id="patch_3">
    <path d="M 336.726563 311.6435 
L 336.726563 45.5315 
" style="fill: none; stroke: #000000; stroke-width: 0.8; stroke-linejoin: miter; stroke-linecap: square"/>
   </g>
   <g id="patch_4">
    <path d="M 693.846563 311.6435 
L 693.846563 45.5315 
" style="fill: none; stroke: #000000; stroke-width: 0.8; stroke-linejoin: miter; stroke-linecap: square"/>
   </g>
   <g id="patch_5">
    <path d="M 336.726563 311.6435 
L 693.846563 311.6435 
" style="fill: none; stroke: #000000; stroke-width: 0.8; stroke-linejoin: miter; stroke-linecap: square"/>
   </g>
   <g id="patch_6">
    <path d="M 336.726563 45.5315 
L 693.846563 45.5315 
" style="fill: none; stroke: #000000; stroke-width: 0.8; stroke-linejoin: miter; stroke-linecap: square"/>
   </g>
   <g id="text_17">
    <!-- Accuracy of the 21_05_25_CIFAR10_torch_model_(1024+512.3+1)_ct-pb on the validation set -->
    <g transform="translate(7.2 25.5315) scale(0.264 -0.264)">
     <defs>
      <path id="TimesNewRomanPSMT-20" transform="scale(0.015625)"/>
      <path id="TimesNewRomanPSMT-6f" d="M 1600 2947 
Q 2250 2947 2644 2453 
Q 2978 2031 2978 1484 
Q 2978 1100 2793 706 
Q 2609 313 2286 112 
Q 1963 -88 1566 -88 
Q 919 -88 538 428 
Q 216 863 216 1403 
Q 216 1797 411 2186 
Q 606 2575 925 2761 
Q 1244 2947 1600 2947 
z
M 1503 2744 
Q 1338 2744 1170 2645 
Q 1003 2547 900 2300 
Q 797 2053 797 1666 
Q 797 1041 1045 587 
Q 1294 134 1700 134 
Q 2003 134 2200 384 
Q 2397 634 2397 1244 
Q 2397 2006 2069 2444 
Q 1847 2744 1503 2744 
z
" transform="scale(0.015625)"/>
      <path id="TimesNewRomanPSMT-66" d="M 1319 2638 
L 1319 756 
Q 1319 356 1406 250 
Q 1522 113 1716 113 
L 1975 113 
L 1975 0 
L 266 0 
L 266 113 
L 394 113 
Q 519 113 622 175 
Q 725 238 764 344 
Q 803 450 803 756 
L 803 2638 
L 247 2638 
L 247 2863 
L 803 2863 
L 803 3050 
Q 803 3478 940 3775 
Q 1078 4072 1361 4255 
Q 1644 4438 1997 4438 
Q 2325 4438 2600 4225 
Q 2781 4084 2781 3909 
Q 2781 3816 2700 3733 
Q 2619 3650 2525 3650 
Q 2453 3650 2373 3701 
Q 2294 3753 2178 3923 
Q 2063 4094 1966 4153 
Q 1869 4213 1750 4213 
Q 1606 4213 1506 4136 
Q 1406 4059 1362 3898 
Q 1319 3738 1319 3069 
L 1319 2863 
L 2056 2863 
L 2056 2638 
L 1319 2638 
z
" transform="scale(0.015625)"/>
      <path id="TimesNewRomanPSMT-74" d="M 1031 3803 
L 1031 2863 
L 1700 2863 
L 1700 2644 
L 1031 2644 
L 1031 788 
Q 1031 509 1111 412 
Q 1191 316 1316 316 
Q 1419 316 1516 380 
Q 1613 444 1666 569 
L 1788 569 
Q 1678 263 1478 108 
Q 1278 -47 1066 -47 
Q 922 -47 784 33 
Q 647 113 581 261 
Q 516 409 516 719 
L 516 2644 
L 63 2644 
L 63 2747 
Q 234 2816 414 2980 
Q 594 3144 734 3369 
Q 806 3488 934 3803 
L 1031 3803 
z
" transform="scale(0.015625)"/>
      <path id="TimesNewRomanPSMT-68" d="M 1041 4444 
L 1041 2350 
Q 1388 2731 1591 2839 
Q 1794 2947 1997 2947 
Q 2241 2947 2416 2812 
Q 2591 2678 2675 2391 
Q 2734 2191 2734 1659 
L 2734 647 
Q 2734 375 2778 275 
Q 2809 200 2884 156 
Q 2959 113 3159 113 
L 3159 0 
L 1753 0 
L 1753 113 
L 1819 113 
Q 2019 113 2097 173 
Q 2175 234 2206 353 
Q 2216 403 2216 647 
L 2216 1659 
Q 2216 2128 2167 2275 
Q 2119 2422 2012 2495 
Q 1906 2569 1756 2569 
Q 1603 2569 1437 2487 
Q 1272 2406 1041 2159 
L 1041 647 
Q 1041 353 1073 281 
Q 1106 209 1195 161 
Q 1284 113 1503 113 
L 1503 0 
L 84 0 
L 84 113 
Q 275 113 384 172 
Q 447 203 484 290 
Q 522 378 522 647 
L 522 3238 
Q 522 3728 498 3840 
Q 475 3953 426 3993 
Q 378 4034 297 4034 
Q 231 4034 84 3984 
L 41 4094 
L 897 4444 
L 1041 4444 
z
" transform="scale(0.015625)"/>
      <path id="TimesNewRomanPSMT-65" d="M 681 1784 
Q 678 1147 991 784 
Q 1303 422 1725 422 
Q 2006 422 2214 576 
Q 2422 731 2563 1106 
L 2659 1044 
Q 2594 616 2278 264 
Q 1963 -88 1488 -88 
Q 972 -88 605 314 
Q 238 716 238 1394 
Q 238 2128 614 2539 
Q 991 2950 1559 2950 
Q 2041 2950 2350 2633 
Q 2659 2316 2659 1784 
L 681 1784 
z
M 681 1966 
L 2006 1966 
Q 1991 2241 1941 2353 
Q 1863 2528 1708 2628 
Q 1553 2728 1384 2728 
Q 1125 2728 920 2526 
Q 716 2325 681 1966 
z
" transform="scale(0.015625)"/>
      <path id="TimesNewRomanPSMT-5f" d="M 3256 -1381 
L -53 -1381 
L -53 -1119 
L 3256 -1119 
L 3256 -1381 
z
" transform="scale(0.015625)"/>
      <path id="TimesNewRomanPSMT-43" d="M 3853 4334 
L 3950 2894 
L 3853 2894 
Q 3659 3541 3300 3825 
Q 2941 4109 2438 4109 
Q 2016 4109 1675 3895 
Q 1334 3681 1139 3212 
Q 944 2744 944 2047 
Q 944 1472 1128 1050 
Q 1313 628 1683 403 
Q 2053 178 2528 178 
Q 2941 178 3256 354 
Q 3572 531 3950 1056 
L 4047 994 
Q 3728 428 3303 165 
Q 2878 -97 2294 -97 
Q 1241 -97 663 684 
Q 231 1266 231 2053 
Q 231 2688 515 3219 
Q 800 3750 1298 4042 
Q 1797 4334 2388 4334 
Q 2847 4334 3294 4109 
Q 3425 4041 3481 4041 
Q 3566 4041 3628 4100 
Q 3709 4184 3744 4334 
L 3853 4334 
z
" transform="scale(0.015625)"/>
      <path id="TimesNewRomanPSMT-49" d="M 1975 116 
L 1975 0 
L 159 0 
L 159 116 
L 309 116 
Q 572 116 691 269 
Q 766 369 766 750 
L 766 3488 
Q 766 3809 725 3913 
Q 694 3991 597 4047 
Q 459 4122 309 4122 
L 159 4122 
L 159 4238 
L 1975 4238 
L 1975 4122 
L 1822 4122 
Q 1563 4122 1444 3969 
Q 1366 3869 1366 3488 
L 1366 750 
Q 1366 428 1406 325 
Q 1438 247 1538 191 
Q 1672 116 1822 116 
L 1975 116 
z
" transform="scale(0.015625)"/>
      <path id="TimesNewRomanPSMT-46" d="M 1309 4006 
L 1309 2341 
L 2081 2341 
Q 2347 2341 2470 2458 
Q 2594 2575 2634 2922 
L 2750 2922 
L 2750 1488 
L 2634 1488 
Q 2631 1734 2570 1850 
Q 2509 1966 2401 2023 
Q 2294 2081 2081 2081 
L 1309 2081 
L 1309 750 
Q 1309 428 1350 325 
Q 1381 247 1481 191 
Q 1619 116 1769 116 
L 1922 116 
L 1922 0 
L 103 0 
L 103 116 
L 253 116 
Q 516 116 634 269 
Q 709 369 709 750 
L 709 3488 
Q 709 3809 669 3913 
Q 638 3991 541 4047 
Q 406 4122 253 4122 
L 103 4122 
L 103 4238 
L 3256 4238 
L 3297 3306 
L 3188 3306 
Q 3106 3603 2998 3742 
Q 2891 3881 2733 3943 
Q 2575 4006 2244 4006 
L 1309 4006 
z
" transform="scale(0.015625)"/>
      <path id="TimesNewRomanPSMT-52" d="M 4325 0 
L 3194 0 
L 1759 1981 
Q 1600 1975 1500 1975 
Q 1459 1975 1412 1976 
Q 1366 1978 1316 1981 
L 1316 750 
Q 1316 350 1403 253 
Q 1522 116 1759 116 
L 1925 116 
L 1925 0 
L 109 0 
L 109 116 
L 269 116 
Q 538 116 653 291 
Q 719 388 719 750 
L 719 3488 
Q 719 3888 631 3984 
Q 509 4122 269 4122 
L 109 4122 
L 109 4238 
L 1653 4238 
Q 2328 4238 2648 4139 
Q 2969 4041 3192 3777 
Q 3416 3513 3416 3147 
Q 3416 2756 3161 2468 
Q 2906 2181 2372 2063 
L 3247 847 
Q 3547 428 3762 290 
Q 3978 153 4325 116 
L 4325 0 
z
M 1316 2178 
Q 1375 2178 1419 2176 
Q 1463 2175 1491 2175 
Q 2097 2175 2405 2437 
Q 2713 2700 2713 3106 
Q 2713 3503 2464 3751 
Q 2216 4000 1806 4000 
Q 1625 4000 1316 3941 
L 1316 2178 
z
" transform="scale(0.015625)"/>
      <path id="TimesNewRomanPSMT-6d" d="M 1050 2338 
Q 1363 2650 1419 2697 
Q 1559 2816 1721 2881 
Q 1884 2947 2044 2947 
Q 2313 2947 2506 2790 
Q 2700 2634 2766 2338 
Q 3088 2713 3309 2830 
Q 3531 2947 3766 2947 
Q 3994 2947 4170 2830 
Q 4347 2713 4450 2447 
Q 4519 2266 4519 1878 
L 4519 647 
Q 4519 378 4559 278 
Q 4591 209 4675 161 
Q 4759 113 4950 113 
L 4950 0 
L 3538 0 
L 3538 113 
L 3597 113 
Q 3781 113 3884 184 
Q 3956 234 3988 344 
Q 4000 397 4000 647 
L 4000 1878 
Q 4000 2228 3916 2372 
Q 3794 2572 3525 2572 
Q 3359 2572 3192 2489 
Q 3025 2406 2788 2181 
L 2781 2147 
L 2788 2013 
L 2788 647 
Q 2788 353 2820 281 
Q 2853 209 2943 161 
Q 3034 113 3253 113 
L 3253 0 
L 1806 0 
L 1806 113 
Q 2044 113 2133 169 
Q 2222 225 2256 338 
Q 2272 391 2272 647 
L 2272 1878 
Q 2272 2228 2169 2381 
Q 2031 2581 1784 2581 
Q 1616 2581 1450 2491 
Q 1191 2353 1050 2181 
L 1050 647 
Q 1050 366 1089 281 
Q 1128 197 1204 155 
Q 1281 113 1516 113 
L 1516 0 
L 100 0 
L 100 113 
Q 297 113 375 155 
Q 453 197 493 289 
Q 534 381 534 647 
L 534 1741 
Q 534 2213 506 2350 
Q 484 2453 437 2492 
Q 391 2531 309 2531 
Q 222 2531 100 2484 
L 53 2597 
L 916 2947 
L 1050 2947 
L 1050 2338 
z
" transform="scale(0.015625)"/>
      <path id="TimesNewRomanPSMT-64" d="M 2222 322 
Q 2013 103 1813 7 
Q 1613 -88 1381 -88 
Q 913 -88 563 304 
Q 213 697 213 1313 
Q 213 1928 600 2439 
Q 988 2950 1597 2950 
Q 1975 2950 2222 2709 
L 2222 3238 
Q 2222 3728 2198 3840 
Q 2175 3953 2125 3993 
Q 2075 4034 2000 4034 
Q 1919 4034 1784 3984 
L 1744 4094 
L 2597 4444 
L 2738 4444 
L 2738 1134 
Q 2738 631 2761 520 
Q 2784 409 2836 365 
Q 2888 322 2956 322 
Q 3041 322 3181 375 
L 3216 266 
L 2366 -88 
L 2222 -88 
L 2222 322 
z
M 2222 541 
L 2222 2016 
Q 2203 2228 2109 2403 
Q 2016 2578 1861 2667 
Q 1706 2756 1559 2756 
Q 1284 2756 1069 2509 
Q 784 2184 784 1559 
Q 784 928 1059 592 
Q 1334 256 1672 256 
Q 1956 256 2222 541 
z
" transform="scale(0.015625)"/>
      <path id="TimesNewRomanPSMT-6c" d="M 1184 4444 
L 1184 647 
Q 1184 378 1223 290 
Q 1263 203 1344 158 
Q 1425 113 1647 113 
L 1647 0 
L 244 0 
L 244 113 
Q 441 113 512 153 
Q 584 194 625 287 
Q 666 381 666 647 
L 666 3247 
Q 666 3731 644 3842 
Q 622 3953 573 3993 
Q 525 4034 450 4034 
Q 369 4034 244 3984 
L 191 4094 
L 1044 4444 
L 1184 4444 
z
" transform="scale(0.015625)"/>
      <path id="TimesNewRomanPSMT-28" d="M 1988 -1253 
L 1988 -1369 
Q 1516 -1131 1200 -813 
Q 750 -359 506 256 
Q 263 872 263 1534 
Q 263 2503 741 3301 
Q 1219 4100 1988 4444 
L 1988 4313 
Q 1603 4100 1356 3731 
Q 1109 3363 987 2797 
Q 866 2231 866 1616 
Q 866 947 969 400 
Q 1050 -31 1165 -292 
Q 1281 -553 1476 -793 
Q 1672 -1034 1988 -1253 
z
" transform="scale(0.015625)"/>
      <path id="TimesNewRomanPSMT-2b" d="M 1672 441 
L 1672 2000 
L 116 2000 
L 116 2256 
L 1672 2256 
L 1672 3809 
L 1922 3809 
L 1922 2256 
L 3484 2256 
L 3484 2000 
L 1922 2000 
L 1922 441 
L 1672 441 
z
" transform="scale(0.015625)"/>
      <path id="TimesNewRomanPSMT-29" d="M 144 4313 
L 144 4444 
Q 619 4209 934 3891 
Q 1381 3434 1625 2820 
Q 1869 2206 1869 1541 
Q 1869 572 1392 -226 
Q 916 -1025 144 -1369 
L 144 -1253 
Q 528 -1038 776 -670 
Q 1025 -303 1145 264 
Q 1266 831 1266 1447 
Q 1266 2113 1163 2663 
Q 1084 3094 967 3353 
Q 850 3613 656 3853 
Q 463 4094 144 4313 
z
" transform="scale(0.015625)"/>
      <path id="TimesNewRomanPSMT-2d" d="M 259 1672 
L 1875 1672 
L 1875 1200 
L 259 1200 
L 259 1672 
z
" transform="scale(0.015625)"/>
      <path id="TimesNewRomanPSMT-70" d="M -6 2578 
L 875 2934 
L 994 2934 
L 994 2266 
Q 1216 2644 1439 2795 
Q 1663 2947 1909 2947 
Q 2341 2947 2628 2609 
Q 2981 2197 2981 1534 
Q 2981 794 2556 309 
Q 2206 -88 1675 -88 
Q 1444 -88 1275 -22 
Q 1150 25 994 166 
L 994 -706 
Q 994 -1000 1030 -1079 
Q 1066 -1159 1155 -1206 
Q 1244 -1253 1478 -1253 
L 1478 -1369 
L -22 -1369 
L -22 -1253 
L 56 -1253 
Q 228 -1256 350 -1188 
Q 409 -1153 442 -1076 
Q 475 -1000 475 -688 
L 475 2019 
Q 475 2297 450 2372 
Q 425 2447 370 2484 
Q 316 2522 222 2522 
Q 147 2522 31 2478 
L -6 2578 
z
M 994 2081 
L 994 1013 
Q 994 666 1022 556 
Q 1066 375 1236 237 
Q 1406 100 1666 100 
Q 1978 100 2172 344 
Q 2425 663 2425 1241 
Q 2425 1897 2138 2250 
Q 1938 2494 1663 2494 
Q 1513 2494 1366 2419 
Q 1253 2363 994 2081 
z
" transform="scale(0.015625)"/>
      <path id="TimesNewRomanPSMT-62" d="M 984 2369 
Q 1400 2947 1881 2947 
Q 2322 2947 2650 2570 
Q 2978 2194 2978 1541 
Q 2978 778 2472 313 
Q 2038 -88 1503 -88 
Q 1253 -88 995 3 
Q 738 94 469 275 
L 469 3241 
Q 469 3728 445 3840 
Q 422 3953 372 3993 
Q 322 4034 247 4034 
Q 159 4034 28 3984 
L -16 4094 
L 844 4444 
L 984 4444 
L 984 2369 
z
M 984 2169 
L 984 456 
Q 1144 300 1314 220 
Q 1484 141 1663 141 
Q 1947 141 2192 453 
Q 2438 766 2438 1363 
Q 2438 1913 2192 2208 
Q 1947 2503 1634 2503 
Q 1469 2503 1303 2419 
Q 1178 2356 984 2169 
z
" transform="scale(0.015625)"/>
      <path id="TimesNewRomanPSMT-6e" d="M 1034 2341 
Q 1538 2947 1994 2947 
Q 2228 2947 2397 2830 
Q 2566 2713 2666 2444 
Q 2734 2256 2734 1869 
L 2734 647 
Q 2734 375 2778 278 
Q 2813 200 2889 156 
Q 2966 113 3172 113 
L 3172 0 
L 1756 0 
L 1756 113 
L 1816 113 
Q 2016 113 2095 173 
Q 2175 234 2206 353 
Q 2219 400 2219 647 
L 2219 1819 
Q 2219 2209 2117 2386 
Q 2016 2563 1775 2563 
Q 1403 2563 1034 2156 
L 1034 647 
Q 1034 356 1069 288 
Q 1113 197 1189 155 
Q 1266 113 1500 113 
L 1500 0 
L 84 0 
L 84 113 
L 147 113 
Q 366 113 442 223 
Q 519 334 519 647 
L 519 1709 
Q 519 2225 495 2337 
Q 472 2450 423 2490 
Q 375 2531 294 2531 
Q 206 2531 84 2484 
L 38 2597 
L 900 2947 
L 1034 2947 
L 1034 2341 
z
" transform="scale(0.015625)"/>
      <path id="TimesNewRomanPSMT-76" d="M 53 2863 
L 1400 2863 
L 1400 2747 
L 1313 2747 
Q 1191 2747 1127 2687 
Q 1063 2628 1063 2528 
Q 1063 2419 1128 2269 
L 1794 688 
L 2463 2328 
Q 2534 2503 2534 2594 
Q 2534 2638 2509 2666 
Q 2475 2713 2422 2730 
Q 2369 2747 2206 2747 
L 2206 2863 
L 3141 2863 
L 3141 2747 
Q 2978 2734 2916 2681 
Q 2806 2588 2719 2369 
L 1703 -88 
L 1575 -88 
L 553 2328 
Q 484 2497 421 2570 
Q 359 2644 263 2694 
Q 209 2722 53 2747 
L 53 2863 
z
" transform="scale(0.015625)"/>
      <path id="TimesNewRomanPSMT-69" d="M 928 4444 
Q 1059 4444 1151 4351 
Q 1244 4259 1244 4128 
Q 1244 3997 1151 3903 
Q 1059 3809 928 3809 
Q 797 3809 703 3903 
Q 609 3997 609 4128 
Q 609 4259 701 4351 
Q 794 4444 928 4444 
z
M 1188 2947 
L 1188 647 
Q 1188 378 1227 289 
Q 1266 200 1342 156 
Q 1419 113 1622 113 
L 1622 0 
L 231 0 
L 231 113 
Q 441 113 512 153 
Q 584 194 626 287 
Q 669 381 669 647 
L 669 1750 
Q 669 2216 641 2353 
Q 619 2453 572 2492 
Q 525 2531 444 2531 
Q 356 2531 231 2484 
L 188 2597 
L 1050 2947 
L 1188 2947 
z
" transform="scale(0.015625)"/>
      <path id="TimesNewRomanPSMT-73" d="M 2050 2947 
L 2050 1972 
L 1947 1972 
Q 1828 2431 1642 2597 
Q 1456 2763 1169 2763 
Q 950 2763 815 2647 
Q 681 2531 681 2391 
Q 681 2216 781 2091 
Q 878 1963 1175 1819 
L 1631 1597 
Q 2266 1288 2266 781 
Q 2266 391 1970 151 
Q 1675 -88 1309 -88 
Q 1047 -88 709 6 
Q 606 38 541 38 
Q 469 38 428 -44 
L 325 -44 
L 325 978 
L 428 978 
Q 516 541 762 319 
Q 1009 97 1316 97 
Q 1531 97 1667 223 
Q 1803 350 1803 528 
Q 1803 744 1651 891 
Q 1500 1038 1047 1263 
Q 594 1488 453 1669 
Q 313 1847 313 2119 
Q 313 2472 555 2709 
Q 797 2947 1181 2947 
Q 1350 2947 1591 2875 
Q 1750 2828 1803 2828 
Q 1853 2828 1881 2850 
Q 1909 2872 1947 2947 
L 2050 2947 
z
" transform="scale(0.015625)"/>
     </defs>
     <use xlink:href="#TimesNewRomanPSMT-41"/>
     <use xlink:href="#TimesNewRomanPSMT-63" transform="translate(72.216797 0)"/>
     <use xlink:href="#TimesNewRomanPSMT-63" transform="translate(116.601562 0)"/>
     <use xlink:href="#TimesNewRomanPSMT-75" transform="translate(160.986328 0)"/>
     <use xlink:href="#TimesNewRomanPSMT-72" transform="translate(210.986328 0)"/>
     <use xlink:href="#TimesNewRomanPSMT-61" transform="translate(244.287109 0)"/>
     <use xlink:href="#TimesNewRomanPSMT-63" transform="translate(288.671875 0)"/>
     <use xlink:href="#TimesNewRomanPSMT-79" transform="translate(333.056641 0)"/>
     <use xlink:href="#TimesNewRomanPSMT-20" transform="translate(383.056641 0)"/>
     <use xlink:href="#TimesNewRomanPSMT-6f" transform="translate(408.056641 0)"/>
     <use xlink:href="#TimesNewRomanPSMT-66" transform="translate(458.056641 0)"/>
     <use xlink:href="#TimesNewRomanPSMT-20" transform="translate(491.357422 0)"/>
     <use xlink:href="#TimesNewRomanPSMT-74" transform="translate(516.357422 0)"/>
     <use xlink:href="#TimesNewRomanPSMT-68" transform="translate(544.140625 0)"/>
     <use xlink:href="#TimesNewRomanPSMT-65" transform="translate(594.140625 0)"/>
     <use xlink:href="#TimesNewRomanPSMT-20" transform="translate(638.525391 0)"/>
     <use xlink:href="#TimesNewRomanPSMT-32" transform="translate(663.525391 0)"/>
     <use xlink:href="#TimesNewRomanPSMT-31" transform="translate(713.525391 0)"/>
     <use xlink:href="#TimesNewRomanPSMT-5f" transform="translate(763.525391 0)"/>
     <use xlink:href="#TimesNewRomanPSMT-30" transform="translate(813.525391 0)"/>
     <use xlink:href="#TimesNewRomanPSMT-35" transform="translate(863.525391 0)"/>
     <use xlink:href="#TimesNewRomanPSMT-5f" transform="translate(913.525391 0)"/>
     <use xlink:href="#TimesNewRomanPSMT-32" transform="translate(963.525391 0)"/>
     <use xlink:href="#TimesNewRomanPSMT-35" transform="translate(1013.525391 0)"/>
     <use xlink:href="#TimesNewRomanPSMT-5f" transform="translate(1063.525391 0)"/>
     <use xlink:href="#TimesNewRomanPSMT-43" transform="translate(1113.525391 0)"/>
     <use xlink:href="#TimesNewRomanPSMT-49" transform="translate(1180.224609 0)"/>
     <use xlink:href="#TimesNewRomanPSMT-46" transform="translate(1213.525391 0)"/>
     <use xlink:href="#TimesNewRomanPSMT-41" transform="translate(1261.765625 0)"/>
     <use xlink:href="#TimesNewRomanPSMT-52" transform="translate(1333.982422 0)"/>
     <use xlink:href="#TimesNewRomanPSMT-31" transform="translate(1400.681641 0)"/>
     <use xlink:href="#TimesNewRomanPSMT-30" transform="translate(1450.681641 0)"/>
     <use xlink:href="#TimesNewRomanPSMT-5f" transform="translate(1500.681641 0)"/>
     <use xlink:href="#TimesNewRomanPSMT-74" transform="translate(1550.681641 0)"/>
     <use xlink:href="#TimesNewRomanPSMT-6f" transform="translate(1578.464844 0)"/>
     <use xlink:href="#TimesNewRomanPSMT-72" transform="translate(1628.464844 0)"/>
     <use xlink:href="#TimesNewRomanPSMT-63" transform="translate(1661.765625 0)"/>
     <use xlink:href="#TimesNewRomanPSMT-68" transform="translate(1706.150391 0)"/>
     <use xlink:href="#TimesNewRomanPSMT-5f" transform="translate(1756.150391 0)"/>
     <use xlink:href="#TimesNewRomanPSMT-6d" transform="translate(1806.150391 0)"/>
     <use xlink:href="#TimesNewRomanPSMT-6f" transform="translate(1883.933594 0)"/>
     <use xlink:href="#TimesNewRomanPSMT-64" transform="translate(1933.933594 0)"/>
     <use xlink:href="#TimesNewRomanPSMT-65" transform="translate(1983.933594 0)"/>
     <use xlink:href="#TimesNewRomanPSMT-6c" transform="translate(2028.318359 0)"/>
     <use xlink:href="#TimesNewRomanPSMT-5f" transform="translate(2056.101562 0)"/>
     <use xlink:href="#TimesNewRomanPSMT-28" transform="translate(2106.101562 0)"/>
     <use xlink:href="#TimesNewRomanPSMT-31" transform="translate(2139.402344 0)"/>
     <use xlink:href="#TimesNewRomanPSMT-30" transform="translate(2189.402344 0)"/>
     <use xlink:href="#TimesNewRomanPSMT-32" transform="translate(2239.402344 0)"/>
     <use xlink:href="#TimesNewRomanPSMT-34" transform="translate(2289.402344 0)"/>
     <use xlink:href="#TimesNewRomanPSMT-2b" transform="translate(2339.402344 0)"/>
     <use xlink:href="#TimesNewRomanPSMT-35" transform="translate(2395.798828 0)"/>
     <use xlink:href="#TimesNewRomanPSMT-31" transform="translate(2445.798828 0)"/>
     <use xlink:href="#TimesNewRomanPSMT-32" transform="translate(2495.798828 0)"/>
     <use xlink:href="#TimesNewRomanPSMT-2e" transform="translate(2545.798828 0)"/>
     <use xlink:href="#TimesNewRomanPSMT-33" transform="translate(2570.798828 0)"/>
     <use xlink:href="#TimesNewRomanPSMT-2b" transform="translate(2620.798828 0)"/>
     <use xlink:href="#TimesNewRomanPSMT-31" transform="translate(2677.195312 0)"/>
     <use xlink:href="#TimesNewRomanPSMT-29" transform="translate(2727.195312 0)"/>
     <use xlink:href="#TimesNewRomanPSMT-5f" transform="translate(2760.496094 0)"/>
     <use xlink:href="#TimesNewRomanPSMT-63" transform="translate(2810.496094 0)"/>
     <use xlink:href="#TimesNewRomanPSMT-74" transform="translate(2854.880859 0)"/>
     <use xlink:href="#TimesNewRomanPSMT-2d" transform="translate(2882.664062 0)"/>
     <use xlink:href="#TimesNewRomanPSMT-70" transform="translate(2915.964844 0)"/>
     <use xlink:href="#TimesNewRomanPSMT-62" transform="translate(2965.964844 0)"/>
     <use xlink:href="#TimesNewRomanPSMT-20" transform="translate(3015.964844 0)"/>
     <use xlink:href="#TimesNewRomanPSMT-6f" transform="translate(3040.964844 0)"/>
     <use xlink:href="#TimesNewRomanPSMT-6e" transform="translate(3090.964844 0)"/>
     <use xlink:href="#TimesNewRomanPSMT-20" transform="translate(3140.964844 0)"/>
     <use xlink:href="#TimesNewRomanPSMT-74" transform="translate(3165.964844 0)"/>
     <use xlink:href="#TimesNewRomanPSMT-68" transform="translate(3193.748047 0)"/>
     <use xlink:href="#TimesNewRomanPSMT-65" transform="translate(3243.748047 0)"/>
     <use xlink:href="#TimesNewRomanPSMT-20" transform="translate(3288.132812 0)"/>
     <use xlink:href="#TimesNewRomanPSMT-76" transform="translate(3313.132812 0)"/>
     <use xlink:href="#TimesNewRomanPSMT-61" transform="translate(3363.132812 0)"/>
     <use xlink:href="#TimesNewRomanPSMT-6c" transform="translate(3407.517578 0)"/>
     <use xlink:href="#TimesNewRomanPSMT-69" transform="translate(3435.300781 0)"/>
     <use xlink:href="#TimesNewRomanPSMT-64" transform="translate(3463.083984 0)"/>
     <use xlink:href="#TimesNewRomanPSMT-61" transform="translate(3513.083984 0)"/>
     <use xlink:href="#TimesNewRomanPSMT-74" transform="translate(3557.46875 0)"/>
     <use xlink:href="#TimesNewRomanPSMT-69" transform="translate(3585.251953 0)"/>
     <use xlink:href="#TimesNewRomanPSMT-6f" transform="translate(3613.035156 0)"/>
     <use xlink:href="#TimesNewRomanPSMT-6e" transform="translate(3663.035156 0)"/>
     <use xlink:href="#TimesNewRomanPSMT-20" transform="translate(3713.035156 0)"/>
     <use xlink:href="#TimesNewRomanPSMT-73" transform="translate(3738.035156 0)"/>
     <use xlink:href="#TimesNewRomanPSMT-65" transform="translate(3776.951172 0)"/>
     <use xlink:href="#TimesNewRomanPSMT-74" transform="translate(3821.335938 0)"/>
    </g>
   </g>
   <g id="legend_1">
    <g id="patch_7">
     <path d="M 352.126563 94.278687 
L 589.296875 94.278687 
Q 593.696875 94.278687 593.696875 89.878687 
L 593.696875 60.9315 
Q 593.696875 56.5315 589.296875 56.5315 
L 352.126563 56.5315 
Q 347.726563 56.5315 347.726563 60.9315 
L 347.726563 89.878687 
Q 347.726563 94.278687 352.126563 94.278687 
z
" style="fill: #ffffff; opacity: 0.8; stroke: #cccccc; stroke-linejoin: miter"/>
    </g>
    <g id="line2d_30">
     <path d="M 356.526563 73.0315 
L 378.526563 73.0315 
L 400.526563 73.0315 
" style="fill: none; stroke: #1f77b4; stroke-width: 1.5; stroke-linecap: square"/>
    </g>
    <g id="text_18">
     <!-- Best accuracy 0.84 -->
     <g transform="translate(418.126563 80.7315) scale(0.22 -0.22)">
      <defs>
       <path id="TimesNewRomanPSMT-42" d="M 2956 2163 
Q 3397 2069 3616 1863 
Q 3919 1575 3919 1159 
Q 3919 844 3719 555 
Q 3519 266 3170 133 
Q 2822 0 2106 0 
L 106 0 
L 106 116 
L 266 116 
Q 531 116 647 284 
Q 719 394 719 750 
L 719 3488 
Q 719 3881 628 3984 
Q 506 4122 266 4122 
L 106 4122 
L 106 4238 
L 1938 4238 
Q 2450 4238 2759 4163 
Q 3228 4050 3475 3764 
Q 3722 3478 3722 3106 
Q 3722 2788 3528 2536 
Q 3334 2284 2956 2163 
z
M 1319 2331 
Q 1434 2309 1582 2298 
Q 1731 2288 1909 2288 
Q 2366 2288 2595 2386 
Q 2825 2484 2947 2687 
Q 3069 2891 3069 3131 
Q 3069 3503 2766 3765 
Q 2463 4028 1881 4028 
Q 1569 4028 1319 3959 
L 1319 2331 
z
M 1319 306 
Q 1681 222 2034 222 
Q 2600 222 2897 476 
Q 3194 731 3194 1106 
Q 3194 1353 3059 1581 
Q 2925 1809 2622 1940 
Q 2319 2072 1872 2072 
Q 1678 2072 1540 2065 
Q 1403 2059 1319 2044 
L 1319 306 
z
" transform="scale(0.015625)"/>
      </defs>
      <use xlink:href="#TimesNewRomanPSMT-42"/>
      <use xlink:href="#TimesNewRomanPSMT-65" transform="translate(66.699219 0)"/>
      <use xlink:href="#TimesNewRomanPSMT-73" transform="translate(111.083984 0)"/>
      <use xlink:href="#TimesNewRomanPSMT-74" transform="translate(150 0)"/>
      <use xlink:href="#TimesNewRomanPSMT-20" transform="translate(177.783203 0)"/>
      <use xlink:href="#TimesNewRomanPSMT-61" transform="translate(202.783203 0)"/>
      <use xlink:href="#TimesNewRomanPSMT-63" transform="translate(247.167969 0)"/>
      <use xlink:href="#TimesNewRomanPSMT-63" transform="translate(291.552734 0)"/>
      <use xlink:href="#TimesNewRomanPSMT-75" transform="translate(335.9375 0)"/>
      <use xlink:href="#TimesNewRomanPSMT-72" transform="translate(385.9375 0)"/>
      <use xlink:href="#TimesNewRomanPSMT-61" transform="translate(419.238281 0)"/>
      <use xlink:href="#TimesNewRomanPSMT-63" transform="translate(463.623047 0)"/>
      <use xlink:href="#TimesNewRomanPSMT-79" transform="translate(508.007812 0)"/>
      <use xlink:href="#TimesNewRomanPSMT-20" transform="translate(558.007812 0)"/>
      <use xlink:href="#TimesNewRomanPSMT-30" transform="translate(583.007812 0)"/>
      <use xlink:href="#TimesNewRomanPSMT-2e" transform="translate(633.007812 0)"/>
      <use xlink:href="#TimesNewRomanPSMT-38" transform="translate(658.007812 0)"/>
      <use xlink:href="#TimesNewRomanPSMT-34" transform="translate(708.007812 0)"/>
     </g>
    </g>
   </g>
  </g>
 </g>
 <defs>
  <clipPath id="pf54ff59f63">
   <rect x="336.726563" y="45.5315" width="357.12" height="266.112"/>
  </clipPath>
 </defs>
</svg>
