<?xml version="1.0" encoding="utf-8" standalone="no"?>
<!DOCTYPE svg PUBLIC "-//W3C//DTD SVG 1.1//EN"
  "http://www.w3.org/Graphics/SVG/1.1/DTD/svg11.dtd">
<svg xmlns:xlink="http://www.w3.org/1999/xlink" width="475.279625pt" height="370.219562pt" viewBox="0 0 475.279625 370.219562" xmlns="http://www.w3.org/2000/svg" version="1.1">
 <metadata>
  <rdf:RDF xmlns:dc="http://purl.org/dc/elements/1.1/" xmlns:cc="http://creativecommons.org/ns#" xmlns:rdf="http://www.w3.org/1999/02/22-rdf-syntax-ns#">
   <cc:Work>
    <dc:type rdf:resource="http://purl.org/dc/dcmitype/StillImage"/>
    <dc:date>2025-05-02T10:20:07.746367</dc:date>
    <dc:format>image/svg+xml</dc:format>
    <dc:creator>
     <cc:Agent>
      <dc:title>Matplotlib v3.10.1, https://matplotlib.org/</dc:title>
     </cc:Agent>
    </dc:creator>
   </cc:Work>
  </rdf:RDF>
 </metadata>
 <defs>
  <style type="text/css">*{stroke-linejoin: round; stroke-linecap: butt}</style>
 </defs>
 <g id="figure_1">
  <g id="patch_1">
   <path d="M 0 370.219562 
L 475.279625 370.219562 
L 475.279625 0 
L 0 0 
z
" style="fill: #ffffff"/>
  </g>
  <g id="axes_1">
   <g id="patch_2">
    <path d="M 66.049063 308.3105 
L 423.169063 308.3105 
L 423.169063 42.1985 
L 66.049063 42.1985 
z
" style="fill: #ffffff"/>
   </g>
   <g id="matplotlib.axis_1">
    <g id="xtick_1">
     <g id="line2d_1">
      <path d="M 66.049063 308.3105 
L 66.049063 42.1985 
" clip-path="url(#p968fa9b48d)" style="fill: none; stroke: #b0b0b0; stroke-opacity: 0.3; stroke-width: 0.8; stroke-linecap: square"/>
     </g>
     <g id="line2d_2">
      <defs>
       <path id="m9ed96d59df" d="M 0 0 
L 0 3.5 
" style="stroke: #000000; stroke-width: 0.8"/>
      </defs>
      <g>
       <use xlink:href="#m9ed96d59df" x="66.049063" y="308.3105" style="stroke: #000000; stroke-width: 0.8"/>
      </g>
     </g>
     <g id="text_1">
      <!-- 0.0 -->
      <g transform="translate(54.799063 327.80925) scale(0.18 -0.18)">
       <defs>
        <path id="TimesNewRomanPSMT-30" d="M 231 2094 
Q 231 2819 450 3342 
Q 669 3866 1031 4122 
Q 1313 4325 1613 4325 
Q 2100 4325 2488 3828 
Q 2972 3213 2972 2159 
Q 2972 1422 2759 906 
Q 2547 391 2217 158 
Q 1888 -75 1581 -75 
Q 975 -75 572 641 
Q 231 1244 231 2094 
z
M 844 2016 
Q 844 1141 1059 588 
Q 1238 122 1591 122 
Q 1759 122 1940 273 
Q 2122 425 2216 781 
Q 2359 1319 2359 2297 
Q 2359 3022 2209 3506 
Q 2097 3866 1919 4016 
Q 1791 4119 1609 4119 
Q 1397 4119 1231 3928 
Q 1006 3669 925 3112 
Q 844 2556 844 2016 
z
" transform="scale(0.015625)"/>
        <path id="TimesNewRomanPSMT-2e" d="M 800 606 
Q 947 606 1047 504 
Q 1147 403 1147 259 
Q 1147 116 1045 14 
Q 944 -88 800 -88 
Q 656 -88 554 14 
Q 453 116 453 259 
Q 453 406 554 506 
Q 656 606 800 606 
z
" transform="scale(0.015625)"/>
       </defs>
       <use xlink:href="#TimesNewRomanPSMT-30"/>
       <use xlink:href="#TimesNewRomanPSMT-2e" transform="translate(50 0)"/>
       <use xlink:href="#TimesNewRomanPSMT-30" transform="translate(75 0)"/>
      </g>
     </g>
    </g>
    <g id="xtick_2">
     <g id="line2d_3">
      <path d="M 129.857726 308.3105 
L 129.857726 42.1985 
" clip-path="url(#p968fa9b48d)" style="fill: none; stroke: #b0b0b0; stroke-opacity: 0.3; stroke-width: 0.8; stroke-linecap: square"/>
     </g>
     <g id="line2d_4">
      <g>
       <use xlink:href="#m9ed96d59df" x="129.857726" y="308.3105" style="stroke: #000000; stroke-width: 0.8"/>
      </g>
     </g>
     <g id="text_2">
      <!-- 0.2 -->
      <g transform="translate(118.607726 327.80925) scale(0.18 -0.18)">
       <defs>
        <path id="TimesNewRomanPSMT-32" d="M 2934 816 
L 2638 0 
L 138 0 
L 138 116 
Q 1241 1122 1691 1759 
Q 2141 2397 2141 2925 
Q 2141 3328 1894 3587 
Q 1647 3847 1303 3847 
Q 991 3847 742 3664 
Q 494 3481 375 3128 
L 259 3128 
Q 338 3706 661 4015 
Q 984 4325 1469 4325 
Q 1984 4325 2329 3994 
Q 2675 3663 2675 3213 
Q 2675 2891 2525 2569 
Q 2294 2063 1775 1497 
Q 997 647 803 472 
L 1909 472 
Q 2247 472 2383 497 
Q 2519 522 2628 598 
Q 2738 675 2819 816 
L 2934 816 
z
" transform="scale(0.015625)"/>
       </defs>
       <use xlink:href="#TimesNewRomanPSMT-30"/>
       <use xlink:href="#TimesNewRomanPSMT-2e" transform="translate(50 0)"/>
       <use xlink:href="#TimesNewRomanPSMT-32" transform="translate(75 0)"/>
      </g>
     </g>
    </g>
    <g id="xtick_3">
     <g id="line2d_5">
      <path d="M 193.666389 308.3105 
L 193.666389 42.1985 
" clip-path="url(#p968fa9b48d)" style="fill: none; stroke: #b0b0b0; stroke-opacity: 0.3; stroke-width: 0.8; stroke-linecap: square"/>
     </g>
     <g id="line2d_6">
      <g>
       <use xlink:href="#m9ed96d59df" x="193.666389" y="308.3105" style="stroke: #000000; stroke-width: 0.8"/>
      </g>
     </g>
     <g id="text_3">
      <!-- 0.4 -->
      <g transform="translate(182.416389 327.80925) scale(0.18 -0.18)">
       <defs>
        <path id="TimesNewRomanPSMT-34" d="M 2978 1563 
L 2978 1119 
L 2409 1119 
L 2409 0 
L 1894 0 
L 1894 1119 
L 100 1119 
L 100 1519 
L 2066 4325 
L 2409 4325 
L 2409 1563 
L 2978 1563 
z
M 1894 1563 
L 1894 3666 
L 406 1563 
L 1894 1563 
z
" transform="scale(0.015625)"/>
       </defs>
       <use xlink:href="#TimesNewRomanPSMT-30"/>
       <use xlink:href="#TimesNewRomanPSMT-2e" transform="translate(50 0)"/>
       <use xlink:href="#TimesNewRomanPSMT-34" transform="translate(75 0)"/>
      </g>
     </g>
    </g>
    <g id="xtick_4">
     <g id="line2d_7">
      <path d="M 257.475052 308.3105 
L 257.475052 42.1985 
" clip-path="url(#p968fa9b48d)" style="fill: none; stroke: #b0b0b0; stroke-opacity: 0.3; stroke-width: 0.8; stroke-linecap: square"/>
     </g>
     <g id="line2d_8">
      <g>
       <use xlink:href="#m9ed96d59df" x="257.475052" y="308.3105" style="stroke: #000000; stroke-width: 0.8"/>
      </g>
     </g>
     <g id="text_4">
      <!-- 0.6 -->
      <g transform="translate(246.225052 327.80925) scale(0.18 -0.18)">
       <defs>
        <path id="TimesNewRomanPSMT-36" d="M 2869 4325 
L 2869 4209 
Q 2456 4169 2195 4045 
Q 1934 3922 1679 3669 
Q 1425 3416 1258 3105 
Q 1091 2794 978 2366 
Q 1428 2675 1881 2675 
Q 2316 2675 2634 2325 
Q 2953 1975 2953 1425 
Q 2953 894 2631 456 
Q 2244 -75 1606 -75 
Q 1172 -75 869 213 
Q 275 772 275 1663 
Q 275 2231 503 2743 
Q 731 3256 1154 3653 
Q 1578 4050 1965 4187 
Q 2353 4325 2688 4325 
L 2869 4325 
z
M 925 2138 
Q 869 1716 869 1456 
Q 869 1156 980 804 
Q 1091 453 1309 247 
Q 1469 100 1697 100 
Q 1969 100 2183 356 
Q 2397 613 2397 1088 
Q 2397 1622 2184 2012 
Q 1972 2403 1581 2403 
Q 1463 2403 1327 2353 
Q 1191 2303 925 2138 
z
" transform="scale(0.015625)"/>
       </defs>
       <use xlink:href="#TimesNewRomanPSMT-30"/>
       <use xlink:href="#TimesNewRomanPSMT-2e" transform="translate(50 0)"/>
       <use xlink:href="#TimesNewRomanPSMT-36" transform="translate(75 0)"/>
      </g>
     </g>
    </g>
    <g id="xtick_5">
     <g id="line2d_9">
      <path d="M 321.283715 308.3105 
L 321.283715 42.1985 
" clip-path="url(#p968fa9b48d)" style="fill: none; stroke: #b0b0b0; stroke-opacity: 0.3; stroke-width: 0.8; stroke-linecap: square"/>
     </g>
     <g id="line2d_10">
      <g>
       <use xlink:href="#m9ed96d59df" x="321.283715" y="308.3105" style="stroke: #000000; stroke-width: 0.8"/>
      </g>
     </g>
     <g id="text_5">
      <!-- 0.8 -->
      <g transform="translate(310.033715 327.80925) scale(0.18 -0.18)">
       <defs>
        <path id="TimesNewRomanPSMT-38" d="M 1228 2134 
Q 725 2547 579 2797 
Q 434 3047 434 3316 
Q 434 3728 753 4026 
Q 1072 4325 1600 4325 
Q 2113 4325 2425 4047 
Q 2738 3769 2738 3413 
Q 2738 3175 2569 2928 
Q 2400 2681 1866 2347 
Q 2416 1922 2594 1678 
Q 2831 1359 2831 1006 
Q 2831 559 2490 242 
Q 2150 -75 1597 -75 
Q 994 -75 656 303 
Q 388 606 388 966 
Q 388 1247 577 1523 
Q 766 1800 1228 2134 
z
M 1719 2469 
Q 2094 2806 2194 3001 
Q 2294 3197 2294 3444 
Q 2294 3772 2109 3958 
Q 1925 4144 1606 4144 
Q 1288 4144 1088 3959 
Q 888 3775 888 3528 
Q 888 3366 970 3203 
Q 1053 3041 1206 2894 
L 1719 2469 
z
M 1375 2016 
Q 1116 1797 991 1539 
Q 866 1281 866 981 
Q 866 578 1086 336 
Q 1306 94 1647 94 
Q 1984 94 2187 284 
Q 2391 475 2391 747 
Q 2391 972 2272 1150 
Q 2050 1481 1375 2016 
z
" transform="scale(0.015625)"/>
       </defs>
       <use xlink:href="#TimesNewRomanPSMT-30"/>
       <use xlink:href="#TimesNewRomanPSMT-2e" transform="translate(50 0)"/>
       <use xlink:href="#TimesNewRomanPSMT-38" transform="translate(75 0)"/>
      </g>
     </g>
    </g>
    <g id="xtick_6">
     <g id="line2d_11">
      <path d="M 385.092379 308.3105 
L 385.092379 42.1985 
" clip-path="url(#p968fa9b48d)" style="fill: none; stroke: #b0b0b0; stroke-opacity: 0.3; stroke-width: 0.8; stroke-linecap: square"/>
     </g>
     <g id="line2d_12">
      <g>
       <use xlink:href="#m9ed96d59df" x="385.092379" y="308.3105" style="stroke: #000000; stroke-width: 0.8"/>
      </g>
     </g>
     <g id="text_6">
      <!-- 1.0 -->
      <g transform="translate(373.842379 327.80925) scale(0.18 -0.18)">
       <defs>
        <path id="TimesNewRomanPSMT-31" d="M 750 3822 
L 1781 4325 
L 1884 4325 
L 1884 747 
Q 1884 391 1914 303 
Q 1944 216 2037 169 
Q 2131 122 2419 116 
L 2419 0 
L 825 0 
L 825 116 
Q 1125 122 1212 167 
Q 1300 213 1334 289 
Q 1369 366 1369 747 
L 1369 3034 
Q 1369 3497 1338 3628 
Q 1316 3728 1258 3775 
Q 1200 3822 1119 3822 
Q 1003 3822 797 3725 
L 750 3822 
z
" transform="scale(0.015625)"/>
       </defs>
       <use xlink:href="#TimesNewRomanPSMT-31"/>
       <use xlink:href="#TimesNewRomanPSMT-2e" transform="translate(50 0)"/>
       <use xlink:href="#TimesNewRomanPSMT-30" transform="translate(75 0)"/>
      </g>
     </g>
    </g>
    <g id="text_7">
     <!-- $\kappa  = \frac{ln(n)}{ln(d)}$ -->
     <g transform="translate(218.419063 353.299562) scale(0.18 -0.18)">
      <defs>
       <path id="STIXGeneral-Italic-3ba" d="M 979 1440 
L 998 1446 
Q 1850 2541 2464 2790 
Q 2547 2822 2630 2822 
Q 2797 2822 2886 2736 
Q 2976 2650 2976 2522 
Q 2976 2387 2893 2307 
Q 2810 2227 2682 2227 
Q 2605 2227 2502 2288 
Q 2400 2349 2336 2349 
Q 2170 2349 1990 2205 
Q 1811 2061 1414 1645 
L 2042 544 
Q 2202 262 2310 182 
Q 2419 102 2624 102 
L 2624 0 
Q 2374 -83 2182 -83 
Q 1786 -83 1555 326 
L 960 1350 
L 576 0 
L 90 0 
L 640 1978 
Q 730 2317 730 2406 
Q 730 2560 518 2560 
L 339 2560 
L 339 2650 
Q 678 2694 1306 2822 
L 1325 2803 
L 979 1440 
z
" transform="scale(0.015625)"/>
       <path id="STIXGeneral-Regular-3d" d="M 4077 2048 
L 307 2048 
L 307 2470 
L 4077 2470 
L 4077 2048 
z
M 4077 768 
L 307 768 
L 307 1190 
L 4077 1190 
L 4077 768 
z
" transform="scale(0.015625)"/>
       <path id="STIXGeneral-Italic-6c" d="M 1786 4339 
L 806 595 
Q 755 410 755 320 
Q 755 205 864 205 
Q 1037 205 1293 570 
L 1453 794 
L 1542 730 
Q 1254 275 1046 102 
Q 838 -70 576 -70 
Q 262 -70 262 288 
Q 262 397 288 480 
L 1165 3834 
Q 1184 3898 1184 3955 
Q 1184 4096 870 4096 
L 755 4096 
L 755 4198 
Q 1203 4250 1747 4371 
L 1786 4339 
z
" transform="scale(0.015625)"/>
       <path id="STIXGeneral-Italic-6e" d="M 2944 749 
L 3034 666 
Q 2707 218 2534 80 
Q 2362 -58 2138 -58 
Q 2010 -58 1923 28 
Q 1837 115 1837 288 
Q 1837 390 1939 768 
L 2221 1805 
Q 2310 2150 2310 2310 
Q 2310 2496 2157 2496 
Q 1971 2496 1750 2275 
Q 1530 2054 1210 1587 
Q 998 1274 899 1024 
Q 800 774 570 0 
L 90 0 
L 704 2240 
Q 717 2304 717 2349 
Q 717 2445 630 2480 
Q 544 2515 301 2522 
L 301 2624 
Q 550 2675 857 2729 
Q 1165 2784 1338 2822 
L 1363 2810 
L 934 1414 
Q 1408 2170 1753 2496 
Q 2099 2822 2413 2822 
Q 2611 2822 2720 2716 
Q 2829 2611 2829 2432 
Q 2829 2272 2765 2048 
L 2406 749 
Q 2317 429 2317 358 
Q 2317 243 2419 243 
Q 2541 243 2810 582 
Q 2854 634 2944 749 
z
" transform="scale(0.015625)"/>
       <path id="STIXGeneral-Regular-28" d="M 1946 -1030 
L 1869 -1133 
Q 1126 -710 716 32 
Q 307 774 307 1613 
Q 307 3386 1888 4326 
L 1946 4224 
Q 1293 3667 1075 3126 
Q 858 2586 858 1632 
Q 858 685 1082 96 
Q 1306 -493 1946 -1030 
z
" transform="scale(0.015625)"/>
       <path id="STIXGeneral-Regular-29" d="M 186 4224 
L 262 4326 
Q 992 3891 1408 3148 
Q 1824 2406 1824 1581 
Q 1824 -166 243 -1133 
L 186 -1030 
Q 845 -486 1059 54 
Q 1274 595 1274 1562 
Q 1274 2534 1059 3120 
Q 845 3706 186 4224 
z
" transform="scale(0.015625)"/>
       <path id="STIXGeneral-Italic-64" d="M 3334 4371 
L 3373 4333 
L 3123 3360 
L 2739 1958 
Q 2323 429 2323 384 
Q 2323 256 2438 256 
Q 2522 256 2614 336 
Q 2707 416 2963 710 
L 3040 646 
Q 2547 -83 2099 -83 
Q 1978 -83 1907 -6 
Q 1837 70 1837 205 
Q 1837 397 1920 774 
Q 1645 307 1379 118 
Q 1114 -70 781 -70 
Q 461 -70 278 125 
Q 96 320 96 678 
Q 96 1440 713 2131 
Q 1331 2822 1965 2822 
Q 2163 2822 2256 2732 
Q 2349 2643 2381 2451 
L 2387 2451 
L 2675 3494 
Q 2765 3808 2765 3949 
Q 2765 4051 2694 4076 
Q 2624 4102 2355 4115 
L 2355 4224 
Q 2848 4269 3334 4371 
z
M 2278 2310 
Q 2278 2477 2185 2576 
Q 2093 2675 1978 2675 
Q 1677 2675 1395 2381 
Q 1075 2042 864 1571 
Q 653 1101 653 704 
Q 653 486 752 361 
Q 851 237 1024 237 
Q 1312 237 1606 550 
Q 1901 864 2089 1350 
Q 2278 1837 2278 2310 
z
" transform="scale(0.015625)"/>
      </defs>
      <use xlink:href="#STIXGeneral-Italic-3ba" transform="translate(0 0.003125)"/>
      <use xlink:href="#STIXGeneral-Regular-3d" transform="translate(58.83999 0.003125)"/>
      <use xlink:href="#STIXGeneral-Italic-6c" transform="translate(141.779971 50.192188) scale(0.7)"/>
      <use xlink:href="#STIXGeneral-Italic-6e" transform="translate(161.239963 50.192188) scale(0.7)"/>
      <use xlink:href="#STIXGeneral-Regular-28" transform="translate(196.239952 50.192188) scale(0.7)"/>
      <use xlink:href="#STIXGeneral-Italic-6e" transform="translate(219.549944 50.192188) scale(0.7)"/>
      <use xlink:href="#STIXGeneral-Regular-29" transform="translate(254.549933 50.192188) scale(0.7)"/>
      <use xlink:href="#STIXGeneral-Italic-6c" transform="translate(141.779971 -41.257812) scale(0.7)"/>
      <use xlink:href="#STIXGeneral-Italic-6e" transform="translate(161.239963 -41.257812) scale(0.7)"/>
      <use xlink:href="#STIXGeneral-Regular-28" transform="translate(196.239952 -41.257812) scale(0.7)"/>
      <use xlink:href="#STIXGeneral-Italic-64" transform="translate(219.549944 -41.257812) scale(0.7)"/>
      <use xlink:href="#STIXGeneral-Regular-29" transform="translate(254.549933 -41.257812) scale(0.7)"/>
      <path d="M 141.779971 12.8 
L 141.779971 19.05 
L 277.859924 19.05 
L 277.859924 12.8 
L 141.779971 12.8 
z
"/>
     </g>
    </g>
   </g>
   <g id="matplotlib.axis_2">
    <g id="ytick_1">
     <g id="line2d_13">
      <path d="M 66.049063 288.490542 
L 423.169063 288.490542 
" clip-path="url(#p968fa9b48d)" style="fill: none; stroke: #b0b0b0; stroke-opacity: 0.3; stroke-width: 0.8; stroke-linecap: square"/>
     </g>
     <g id="line2d_14">
      <defs>
       <path id="m1c30defc18" d="M 0 0 
L -3.5 0 
" style="stroke: #000000; stroke-width: 0.8"/>
      </defs>
      <g>
       <use xlink:href="#m1c30defc18" x="66.049063" y="288.490542" style="stroke: #000000; stroke-width: 0.8"/>
      </g>
     </g>
     <g id="text_8">
      <!-- 0.08 -->
      <g transform="translate(27.549063 294.739917) scale(0.18 -0.18)">
       <use xlink:href="#TimesNewRomanPSMT-30"/>
       <use xlink:href="#TimesNewRomanPSMT-2e" transform="translate(50 0)"/>
       <use xlink:href="#TimesNewRomanPSMT-30" transform="translate(75 0)"/>
       <use xlink:href="#TimesNewRomanPSMT-38" transform="translate(125 0)"/>
      </g>
     </g>
    </g>
    <g id="ytick_2">
     <g id="line2d_15">
      <path d="M 66.049063 236.447046 
L 423.169063 236.447046 
" clip-path="url(#p968fa9b48d)" style="fill: none; stroke: #b0b0b0; stroke-opacity: 0.3; stroke-width: 0.8; stroke-linecap: square"/>
     </g>
     <g id="line2d_16">
      <g>
       <use xlink:href="#m1c30defc18" x="66.049063" y="236.447046" style="stroke: #000000; stroke-width: 0.8"/>
      </g>
     </g>
     <g id="text_9">
      <!-- 0.09 -->
      <g transform="translate(27.549063 242.696421) scale(0.18 -0.18)">
       <defs>
        <path id="TimesNewRomanPSMT-39" d="M 338 -88 
L 338 28 
Q 744 34 1094 217 
Q 1444 400 1770 856 
Q 2097 1313 2225 1859 
Q 1734 1544 1338 1544 
Q 891 1544 572 1889 
Q 253 2234 253 2806 
Q 253 3363 572 3797 
Q 956 4325 1575 4325 
Q 2097 4325 2469 3894 
Q 2925 3359 2925 2575 
Q 2925 1869 2578 1258 
Q 2231 647 1613 244 
Q 1109 -88 516 -88 
L 338 -88 
z
M 2275 2091 
Q 2331 2497 2331 2741 
Q 2331 3044 2228 3395 
Q 2125 3747 1936 3934 
Q 1747 4122 1506 4122 
Q 1228 4122 1018 3872 
Q 809 3622 809 3128 
Q 809 2469 1088 2097 
Q 1291 1828 1588 1828 
Q 1731 1828 1928 1897 
Q 2125 1966 2275 2091 
z
" transform="scale(0.015625)"/>
       </defs>
       <use xlink:href="#TimesNewRomanPSMT-30"/>
       <use xlink:href="#TimesNewRomanPSMT-2e" transform="translate(50 0)"/>
       <use xlink:href="#TimesNewRomanPSMT-30" transform="translate(75 0)"/>
       <use xlink:href="#TimesNewRomanPSMT-39" transform="translate(125 0)"/>
      </g>
     </g>
    </g>
    <g id="ytick_3">
     <g id="line2d_17">
      <path d="M 66.049063 184.40355 
L 423.169063 184.40355 
" clip-path="url(#p968fa9b48d)" style="fill: none; stroke: #b0b0b0; stroke-opacity: 0.3; stroke-width: 0.8; stroke-linecap: square"/>
     </g>
     <g id="line2d_18">
      <g>
       <use xlink:href="#m1c30defc18" x="66.049063" y="184.40355" style="stroke: #000000; stroke-width: 0.8"/>
      </g>
     </g>
     <g id="text_10">
      <!-- 0.10 -->
      <g transform="translate(27.549063 190.652925) scale(0.18 -0.18)">
       <use xlink:href="#TimesNewRomanPSMT-30"/>
       <use xlink:href="#TimesNewRomanPSMT-2e" transform="translate(50 0)"/>
       <use xlink:href="#TimesNewRomanPSMT-31" transform="translate(75 0)"/>
       <use xlink:href="#TimesNewRomanPSMT-30" transform="translate(125 0)"/>
      </g>
     </g>
    </g>
    <g id="ytick_4">
     <g id="line2d_19">
      <path d="M 66.049063 132.360054 
L 423.169063 132.360054 
" clip-path="url(#p968fa9b48d)" style="fill: none; stroke: #b0b0b0; stroke-opacity: 0.3; stroke-width: 0.8; stroke-linecap: square"/>
     </g>
     <g id="line2d_20">
      <g>
       <use xlink:href="#m1c30defc18" x="66.049063" y="132.360054" style="stroke: #000000; stroke-width: 0.8"/>
      </g>
     </g>
     <g id="text_11">
      <!-- 0.11 -->
      <g transform="translate(28.224063 138.609429) scale(0.18 -0.18)">
       <use xlink:href="#TimesNewRomanPSMT-30"/>
       <use xlink:href="#TimesNewRomanPSMT-2e" transform="translate(50 0)"/>
       <use xlink:href="#TimesNewRomanPSMT-31" transform="translate(75 0)"/>
       <use xlink:href="#TimesNewRomanPSMT-31" transform="translate(121.25 0)"/>
      </g>
     </g>
    </g>
    <g id="ytick_5">
     <g id="line2d_21">
      <path d="M 66.049063 80.316558 
L 423.169063 80.316558 
" clip-path="url(#p968fa9b48d)" style="fill: none; stroke: #b0b0b0; stroke-opacity: 0.3; stroke-width: 0.8; stroke-linecap: square"/>
     </g>
     <g id="line2d_22">
      <g>
       <use xlink:href="#m1c30defc18" x="66.049063" y="80.316558" style="stroke: #000000; stroke-width: 0.8"/>
      </g>
     </g>
     <g id="text_12">
      <!-- 0.12 -->
      <g transform="translate(27.549063 86.565933) scale(0.18 -0.18)">
       <use xlink:href="#TimesNewRomanPSMT-30"/>
       <use xlink:href="#TimesNewRomanPSMT-2e" transform="translate(50 0)"/>
       <use xlink:href="#TimesNewRomanPSMT-31" transform="translate(75 0)"/>
       <use xlink:href="#TimesNewRomanPSMT-32" transform="translate(125 0)"/>
      </g>
     </g>
    </g>
    <g id="text_13">
     <!-- Loss -->
     <g transform="translate(19.69875 192.257469) rotate(-90) scale(0.18 -0.18)">
      <defs>
       <path id="TimesNewRomanPSMT-4c" d="M 3669 1172 
L 3772 1150 
L 3409 0 
L 128 0 
L 128 116 
L 288 116 
Q 556 116 672 291 
Q 738 391 738 753 
L 738 3488 
Q 738 3884 650 3984 
Q 528 4122 288 4122 
L 128 4122 
L 128 4238 
L 2047 4238 
L 2047 4122 
Q 1709 4125 1573 4059 
Q 1438 3994 1388 3894 
Q 1338 3794 1338 3416 
L 1338 753 
Q 1338 494 1388 397 
Q 1425 331 1503 300 
Q 1581 269 1991 269 
L 2300 269 
Q 2788 269 2984 341 
Q 3181 413 3343 595 
Q 3506 778 3669 1172 
z
" transform="scale(0.015625)"/>
       <path id="TimesNewRomanPSMT-6f" d="M 1600 2947 
Q 2250 2947 2644 2453 
Q 2978 2031 2978 1484 
Q 2978 1100 2793 706 
Q 2609 313 2286 112 
Q 1963 -88 1566 -88 
Q 919 -88 538 428 
Q 216 863 216 1403 
Q 216 1797 411 2186 
Q 606 2575 925 2761 
Q 1244 2947 1600 2947 
z
M 1503 2744 
Q 1338 2744 1170 2645 
Q 1003 2547 900 2300 
Q 797 2053 797 1666 
Q 797 1041 1045 587 
Q 1294 134 1700 134 
Q 2003 134 2200 384 
Q 2397 634 2397 1244 
Q 2397 2006 2069 2444 
Q 1847 2744 1503 2744 
z
" transform="scale(0.015625)"/>
       <path id="TimesNewRomanPSMT-73" d="M 2050 2947 
L 2050 1972 
L 1947 1972 
Q 1828 2431 1642 2597 
Q 1456 2763 1169 2763 
Q 950 2763 815 2647 
Q 681 2531 681 2391 
Q 681 2216 781 2091 
Q 878 1963 1175 1819 
L 1631 1597 
Q 2266 1288 2266 781 
Q 2266 391 1970 151 
Q 1675 -88 1309 -88 
Q 1047 -88 709 6 
Q 606 38 541 38 
Q 469 38 428 -44 
L 325 -44 
L 325 978 
L 428 978 
Q 516 541 762 319 
Q 1009 97 1316 97 
Q 1531 97 1667 223 
Q 1803 350 1803 528 
Q 1803 744 1651 891 
Q 1500 1038 1047 1263 
Q 594 1488 453 1669 
Q 313 1847 313 2119 
Q 313 2472 555 2709 
Q 797 2947 1181 2947 
Q 1350 2947 1591 2875 
Q 1750 2828 1803 2828 
Q 1853 2828 1881 2850 
Q 1909 2872 1947 2947 
L 2050 2947 
z
" transform="scale(0.015625)"/>
      </defs>
      <use xlink:href="#TimesNewRomanPSMT-4c"/>
      <use xlink:href="#TimesNewRomanPSMT-6f" transform="translate(61.083984 0)"/>
      <use xlink:href="#TimesNewRomanPSMT-73" transform="translate(111.083984 0)"/>
      <use xlink:href="#TimesNewRomanPSMT-73" transform="translate(150 0)"/>
     </g>
    </g>
   </g>
   <g id="line2d_23">
    <path d="M 66.049063 54.309429 
L 161.360466 54.64344 
L 187.053547 54.619516 
L 202.528059 54.972721 
L 213.636598 56.019735 
L 222.308246 55.028441 
L 229.422155 55.942223 
L 235.453664 55.206925 
L 240.689068 55.120378 
L 245.314228 56.39764 
L 253.207703 56.86818 
L 256.634947 56.988268 
L 259.789886 56.687952 
L 262.712625 57.061553 
L 265.435012 55.442446 
L 267.982763 57.000482 
L 270.376937 58.738668 
L 272.635003 58.126559 
L 274.771606 58.935725 
L 276.79915 60.195693 
L 278.728229 59.709837 
L 280.567965 58.570072 
L 282.32627 59.212426 
L 284.010047 56.190502 
L 285.625359 60.338891 
L 287.177555 59.16892 
L 288.671384 59.541978 
L 290.111077 60.777247 
L 291.50042 56.394965 
L 294.141336 62.558629 
L 295.398755 62.266495 
L 296.617598 61.627902 
L 297.800159 61.901541 
L 298.948538 61.366285 
L 300.064654 57.513209 
L 301.150272 61.691417 
L 302.207013 60.524354 
L 303.236374 62.723541 
L 304.239738 61.393854 
L 305.218387 63.445268 
L 306.173508 59.617513 
L 307.106206 64.914352 
L 308.01751 59.577109 
L 308.908379 65.340611 
L 309.77971 63.980795 
L 310.632341 61.390597 
L 311.467059 64.7881 
L 312.2846 65.094775 
L 313.085657 64.536021 
L 313.870883 62.261105 
L 314.640889 65.954658 
L 315.396256 62.742386 
L 316.137529 66.980889 
L 316.865225 65.172093 
L 317.579832 61.888784 
L 318.281813 66.944362 
L 318.971606 67.216566 
L 319.649627 63.15546 
L 320.316272 66.484292 
L 320.971915 63.888006 
L 321.616914 69.422733 
L 322.251609 67.3719 
L 322.876325 61.798127 
L 323.491369 62.242571 
L 324.097037 63.040957 
L 324.693611 61.713286 
L 325.28136 71.981794 
L 325.86054 65.955589 
L 326.431399 71.424902 
L 326.994171 70.4953 
L 327.549083 73.396361 
L 328.096352 63.499166 
L 328.636184 68.530975 
L 329.16878 66.899771 
L 329.694331 67.804169 
L 330.213021 68.943972 
L 330.725026 65.357207 
L 331.230517 68.108711 
L 331.729658 66.920438 
L 332.222605 68.840946 
L 332.709512 71.832897 
L 333.190523 64.346409 
L 333.665781 66.073311 
L 334.13542 65.59932 
L 334.599574 74.150039 
L 335.058367 68.834819 
L 335.511923 66.950217 
L 336.403791 73.925374 
L 336.842328 67.359143 
L 337.276077 72.707709 
L 337.705142 71.192637 
L 338.129624 79.541645 
L 338.549617 72.396149 
L 338.965218 71.948176 
L 339.376516 73.711489 
L 339.7836 76.956139 
L 340.186556 73.899317 
L 340.585465 68.750987 
L 340.980409 71.104578 
L 341.371466 68.418449 
L 341.758711 75.829635 
L 342.142218 74.662184 
L 342.522059 77.785196 
L 342.898303 71.629248 
L 343.271017 72.07629 
L 343.640268 73.782603 
L 344.006118 79.535364 
L 344.36863 74.325808 
L 344.727864 72.726476 
L 345.08388 75.222916 
L 345.436733 70.560171 
L 346.133176 73.644872 
L 346.476872 73.801796 
L 346.817621 72.580642 
L 347.155472 79.015889 
L 347.490474 70.393281 
L 348.152122 80.491178 
L 348.47886 72.439771 
L 348.802932 78.339103 
L 349.124382 74.320108 
L 349.443253 80.413239 
L 349.759584 72.610926 
L 350.073417 76.64958 
L 350.38479 77.207093 
L 350.693743 83.132482 
L 351.000311 81.580302 
L 351.606441 72.747454 
L 351.906073 86.011131 
L 352.498642 81.325703 
L 352.791645 82.486949 
L 353.082503 72.218673 
L 353.371248 75.270067 
L 353.942516 84.961985 
L 354.225099 76.960404 
L 354.505687 83.749361 
L 354.784307 75.116128 
L 355.060986 80.346468 
L 355.335753 76.209944 
L 355.608632 78.793861 
L 355.879649 76.452795 
L 356.148831 79.7603 
L 356.416201 77.988651 
L 356.681784 85.110068 
L 357.207682 77.449207 
L 357.468044 82.456239 
L 357.72671 80.366088 
L 357.983703 77.383172 
L 358.239045 79.838355 
L 358.492756 86.276859 
L 358.744858 74.948967 
L 358.995369 90.167237 
L 359.244312 88.53165 
L 359.491704 80.696843 
L 359.737565 78.123046 
L 359.981914 81.02213 
L 360.224769 87.128406 
L 360.466149 79.612294 
L 360.944554 89.926713 
L 361.181613 79.404225 
L 361.417267 83.487006 
L 361.651531 85.269745 
L 361.884421 81.291852 
L 362.115955 93.713094 
L 362.346147 83.293943 
L 362.575013 97.98475 
L 362.802568 86.641154 
L 363.028827 87.386573 
L 363.253805 91.540778 
L 363.477517 92.904278 
L 363.699975 85.719191 
L 363.921196 92.318575 
L 364.141191 81.910863 
L 364.359975 83.470527 
L 364.57756 83.829548 
L 364.793961 83.461027 
L 365.009189 88.973845 
L 365.223257 84.278955 
L 365.436179 91.679827 
L 365.647965 93.751172 
L 365.858629 91.359232 
L 366.068181 91.478466 
L 366.276634 91.970682 
L 366.483999 93.707084 
L 366.690287 99.732126 
L 367.099678 84.648795 
L 367.302802 90.528585 
L 367.504893 89.167063 
L 367.705962 84.692728 
L 368.105071 100.760799 
L 368.500211 89.317628 
L 368.696318 91.542252 
L 368.891461 98.097781 
L 369.08565 90.869731 
L 369.278894 96.25905 
L 369.471204 96.524041 
L 369.662587 98.486039 
L 369.853052 95.88793 
L 370.042609 87.789954 
L 370.231266 84.817507 
L 370.419031 96.457192 
L 370.605913 99.300827 
L 370.79192 97.785134 
L 370.97706 98.573128 
L 371.161342 88.471781 
L 371.52736 98.003866 
L 371.709113 95.423013 
L 371.890037 105.255453 
L 372.070142 103.57132 
L 372.249434 94.000575 
L 372.427921 99.872571 
L 372.605609 96.887987 
L 372.782506 91.290716 
L 373.133955 100.290725 
L 373.30852 98.82703 
L 373.482322 98.539045 
L 373.655367 105.903933 
L 373.827661 105.867756 
L 373.999212 101.156541 
L 374.170024 102.176025 
L 374.509463 94.182858 
L 374.846026 103.742048 
L 375.013244 102.42729 
L 375.179762 99.19055 
L 375.345584 98.572896 
L 375.510718 110.430809 
L 375.675167 97.084462 
L 376.002039 112.456709 
L 376.164472 104.743423 
L 376.326243 105.600981 
L 376.487359 105.255647 
L 376.647824 103.961711 
L 376.807643 101.084225 
L 376.966822 108.229722 
L 377.283279 101.956052 
L 377.440568 115.548428 
L 377.597236 107.410785 
L 377.753289 107.022565 
L 377.908732 113.913346 
L 378.063568 112.725926 
L 378.217804 119.485763 
L 378.371443 113.726836 
L 378.52449 112.450505 
L 378.67695 103.64286 
L 378.828827 107.894314 
L 378.980126 102.787901 
L 379.130851 106.728764 
L 379.281006 103.998237 
L 379.430596 112.582574 
L 379.579625 111.714896 
L 379.728097 120.623511 
L 379.876016 119.799766 
L 380.023386 105.61746 
L 380.170212 107.619048 
L 380.316497 112.440345 
L 380.462246 106.547023 
L 380.607462 112.170779 
L 380.752149 111.575653 
L 380.896311 95.422431 
L 381.039952 114.171668 
L 381.183075 114.060266 
L 381.467784 104.830823 
L 381.609378 120.605093 
L 381.750468 114.03797 
L 381.891059 122.364528 
L 382.170758 113.23815 
L 382.309872 117.873132 
L 382.586648 112.215719 
L 382.724316 110.103195 
L 382.861509 115.847426 
L 382.99823 115.570375 
L 383.134482 107.65189 
L 383.674865 128.729204 
L 383.80882 115.575145 
L 383.942325 133.996186 
L 384.075382 116.76493 
L 384.207996 118.253635 
L 384.471903 115.063503 
L 384.603202 126.566156 
L 384.734068 117.688871 
L 384.864505 120.315092 
L 384.994515 120.019313 
L 385.124101 124.470615 
L 385.253266 123.151785 
L 385.382012 125.333834 
L 385.510342 116.101095 
L 385.638259 133.631736 
L 385.892864 127.637094 
L 386.019558 116.891377 
L 386.145849 132.432373 
L 386.271739 122.680935 
L 386.397232 128.948828 
L 386.52233 129.539688 
L 386.647035 120.479926 
L 386.77135 123.696464 
L 386.895277 132.563745 
L 387.018819 125.841133 
L 387.141978 112.110987 
L 387.264756 132.539355 
L 387.387156 132.01135 
L 387.50918 132.312635 
L 387.630831 139.132147 
L 387.75211 125.70631 
L 387.87302 136.259198 
L 387.993563 135.222188 
L 388.113742 136.352259 
L 388.233558 132.648624 
L 388.353014 138.257218 
L 388.472112 151.643464 
L 388.709242 130.876393 
L 388.827278 140.320342 
L 389.062304 130.459131 
L 389.179298 120.047076 
L 389.412257 143.34056 
L 389.528226 133.162243 
L 389.643857 135.395398 
L 389.874116 144.211572 
L 389.988747 120.407261 
L 390.103048 125.681262 
L 390.217021 153.458348 
L 390.443991 133.569695 
L 390.556992 141.527382 
L 390.669672 133.584702 
L 390.782034 157.192034 
L 390.894078 131.560081 
L 391.005808 135.752248 
L 391.228329 131.413239 
L 391.339124 147.001426 
L 391.449611 146.017693 
L 391.559791 137.423391 
L 391.669667 145.238733 
L 391.779239 142.923918 
L 391.888511 130.833585 
L 391.997482 141.568794 
L 392.214533 134.088472 
L 392.322615 135.795831 
L 392.430404 154.054443 
L 392.752028 142.393548 
L 392.85866 135.579232 
L 393.071069 145.546145 
L 393.176849 131.194778 
L 393.387568 152.073523 
L 393.49251 147.831918 
L 393.597176 149.56072 
L 393.701566 168.185333 
L 393.805683 144.005636 
L 393.909528 161.246509 
L 394.013102 152.377367 
L 394.116407 156.80428 
L 394.219444 144.91461 
L 394.322214 162.470339 
L 394.526961 135.677373 
L 394.62894 155.800113 
L 394.730658 137.205163 
L 394.933316 148.799248 
L 395.034259 173.556078 
L 395.134946 143.502486 
L 395.235378 153.088392 
L 395.335557 152.001439 
L 395.435484 147.050593 
L 395.634588 159.669125 
L 395.733767 162.15238 
L 395.832699 149.467659 
L 396.029826 183.011039 
L 396.225981 148.383847 
L 396.421172 160.043773 
L 396.518409 163.575012 
L 396.615408 155.585878 
L 396.712172 156.035441 
L 396.8087 156.990557 
L 396.904994 173.143042 
L 397.096885 154.113071 
L 397.192485 167.570897 
L 397.287854 162.703728 
L 397.382996 144.073338 
L 397.47791 166.302863 
L 397.572598 151.388206 
L 397.761299 177.5356 
L 397.855315 154.443011 
L 397.949109 171.745576 
L 398.042682 138.118286 
L 398.229169 182.586216 
L 398.414785 160.085805 
L 398.507268 167.644028 
L 398.599537 157.099206 
L 398.691593 158.765657 
L 398.783435 164.018293 
L 398.875066 178.295676 
L 398.966485 175.288952 
L 399.148696 150.918752 
L 399.330075 174.598749 
L 399.420455 181.474098 
L 399.51063 169.126761 
L 399.600601 170.19169 
L 399.690368 178.202072 
L 399.779933 158.844798 
L 399.869297 165.013076 
L 399.95846 184.792925 
L 400.047423 154.203496 
L 400.136188 186.447744 
L 400.313124 162.676818 
L 400.401298 177.135283 
L 400.489276 176.182415 
L 400.57706 185.703915 
L 400.664651 183.014258 
L 400.839254 172.345975 
L 401.013094 190.783573 
L 401.09973 185.700464 
L 401.186177 161.487033 
L 401.272436 181.400696 
L 401.444395 163.708128 
L 401.530096 193.756718 
L 401.700945 172.918882 
L 401.786095 171.208498 
L 401.871063 202.068114 
L 401.95585 167.664191 
L 402.040456 176.963159 
L 402.124883 174.825392 
L 402.20913 196.154823 
L 402.37709 161.662492 
L 402.460805 189.220187 
L 402.627707 169.206677 
L 402.710896 196.397596 
L 402.793911 177.011279 
L 402.876753 178.395251 
L 402.959423 197.891691 
L 403.041921 180.48672 
L 403.124248 184.815609 
L 403.206405 184.964817 
L 403.288392 183.900237 
L 403.370211 197.184582 
L 403.451861 172.995657 
L 403.533344 181.52784 
L 403.61466 159.687659 
L 403.69581 200.101153 
L 403.776794 189.247291 
L 403.857614 211.840414 
L 403.93827 190.41544 
L 404.018762 199.876295 
L 404.099092 177.69613 
L 404.179259 189.439889 
L 404.259266 184.467406 
L 404.339111 209.987142 
L 404.418796 202.994963 
L 404.498322 166.021741 
L 404.577688 199.671909 
L 404.735948 169.474112 
L 404.89358 196.234468 
L 404.972162 170.580917 
L 405.128861 184.801533 
L 405.206979 184.029631 
L 405.284944 210.194978 
L 405.362757 179.363706 
L 405.440417 201.891686 
L 405.517926 194.111281 
L 405.595284 212.83985 
L 405.672491 196.225588 
L 405.749549 207.790902 
L 405.826458 198.871352 
L 405.903218 208.75323 
L 406.208784 164.008056 
L 406.28481 205.81731 
L 406.36069 193.426507 
L 406.512018 189.458733 
L 406.587466 203.128777 
L 406.662771 191.388431 
L 406.737934 205.379458 
L 406.812955 204.398711 
L 406.887834 204.118908 
L 407.037171 185.350904 
L 407.111629 218.294467 
L 407.185949 193.438333 
L 407.260129 205.300085 
L 407.408076 201.222539 
L 407.555473 183.13547 
L 407.628968 184.808862 
L 407.702326 202.56824 
L 407.77555 195.468033 
L 407.848638 203.085504 
L 407.921593 197.895064 
L 407.994414 206.174665 
L 408.067101 188.492993 
L 408.139656 190.631962 
L 408.212079 214.144294 
L 408.28437 191.058491 
L 408.356529 211.577361 
L 408.428558 191.900538 
L 408.572225 207.602259 
L 408.643864 193.52961 
L 408.715374 215.987445 
L 408.786755 209.307292 
L 408.858009 225.31755 
L 408.929135 195.799291 
L 409.000134 198.799617 
L 409.071006 226.824169 
L 409.141752 201.871639 
L 409.212373 227.592426 
L 409.282868 204.302587 
L 409.353238 206.750131 
L 409.423484 218.707193 
L 409.493606 212.943807 
L 409.633479 221.162724 
L 409.703232 187.108128 
L 409.772862 203.849108 
L 409.84237 193.103934 
L 409.911757 228.711369 
L 409.981024 215.483016 
L 410.050169 212.672999 
L 410.119194 234.131941 
L 410.256887 211.391239 
L 410.325554 209.972911 
L 410.394103 205.63429 
L 410.530847 237.805214 
L 410.802932 195.803673 
L 410.938279 228.208839 
L 411.00578 216.073333 
L 411.073166 214.438018 
L 411.207597 225.155119 
L 411.274642 224.25394 
L 411.341575 204.662462 
L 411.408394 206.924659 
L 411.475102 223.242017 
L 411.608182 209.227687 
L 411.674555 212.015523 
L 411.740818 210.792197 
L 411.80697 234.842229 
L 411.873012 220.475585 
L 411.938945 237.998859 
L 412.004768 217.452071 
L 412.070483 230.108874 
L 412.136089 226.699932 
L 412.201587 194.570498 
L 412.33226 225.11646 
L 412.397435 217.338149 
L 412.462504 232.66433 
L 412.527466 210.140421 
L 412.592323 221.79961 
L 412.657074 234.578634 
L 412.721719 209.993424 
L 412.786259 247.167696 
L 412.850695 230.635173 
L 412.915026 196.847468 
L 412.979253 241.863761 
L 413.043377 237.16922 
L 413.107397 237.358444 
L 413.235129 201.297143 
L 413.362452 206.921247 
L 413.489368 249.036982 
L 413.552674 218.243516 
L 413.61588 220.50738 
L 413.74199 229.676916 
L 413.804896 228.546845 
L 413.867702 229.207074 
L 413.930408 223.43667 
L 414.117937 238.137636 
L 414.18025 200.135974 
L 414.366606 249.822494 
L 414.49036 203.02071 
L 414.67527 261.353841 
L 414.859324 209.529243 
L 414.920486 257.164195 
L 414.981555 234.526326 
L 415.042529 224.051416 
L 415.164198 272.566686 
L 415.285496 223.229028 
L 415.346006 228.574608 
L 415.406424 213.80974 
L 415.526986 250.597654 
L 415.58713 226.355568 
L 415.647183 243.146646 
L 415.826799 225.49138 
L 415.886491 237.179301 
L 416.005607 209.076928 
L 416.124366 254.999208 
L 416.183613 240.554508 
L 416.242772 253.022436 
L 416.419721 224.88214 
L 416.47853 241.61238 
L 416.537252 223.78181 
L 416.654435 258.783302 
L 416.712897 215.02186 
L 416.771274 238.254389 
L 416.829565 222.447858 
L 416.88777 233.383148 
L 416.94589 230.982717 
L 417.003926 260.990205 
L 417.177525 207.45976 
L 417.292838 235.002643 
L 417.350369 231.998207 
L 417.407817 217.449899 
L 417.522464 256.822738 
L 417.579664 230.01209 
L 417.636782 253.494644 
L 417.693817 239.489541 
L 417.750771 254.584272 
L 417.807644 207.556039 
L 417.864435 249.95057 
L 417.921145 241.791483 
L 417.977774 251.059973 
L 418.034322 286.103187 
L 418.203487 222.392603 
L 418.259715 251.369518 
L 418.315864 230.365684 
L 418.371934 237.695015 
L 418.427925 266.217055 
L 418.483836 250.842676 
L 418.595425 190.380464 
L 418.651102 245.211902 
L 418.706701 220.822896 
L 418.762222 229.729301 
L 418.817666 262.447075 
L 418.873032 259.534537 
L 418.928322 246.886264 
L 419.09373 268.332293 
L 419.148713 219.429385 
L 419.203621 256.145487 
L 419.367889 215.096813 
L 419.477026 261.429608 
L 419.531481 216.075892 
L 419.585863 239.459413 
L 419.64017 231.903982 
L 419.694403 241.900326 
L 419.748562 209.02683 
L 419.802647 222.448556 
L 419.964462 256.707149 
L 420.071974 219.053031 
L 420.125621 269.91782 
L 420.179196 210.542329 
L 420.232699 278.549851 
L 420.286129 222.626147 
L 420.339488 265.680132 
L 420.392775 255.238646 
L 420.445991 240.564164 
L 420.499136 241.567206 
L 420.55221 277.363129 
L 420.605213 219.55017 
L 420.658145 238.182693 
L 420.763799 225.623294 
L 420.921754 266.430979 
L 420.974267 212.99817 
L 421.02671 233.744652 
L 421.079084 257.508443 
L 421.131389 215.405736 
L 421.183626 250.413316 
L 421.287893 251.150514 
L 421.339924 228.362196 
L 421.391887 252.973502 
L 421.443783 242.311229 
L 421.49561 232.561071 
L 421.650689 296.2145 
L 421.702247 235.508817 
L 421.753739 278.65121 
L 421.907815 238.971424 
L 422.061296 270.911092 
L 422.163288 244.333561 
L 422.214186 274.811822 
L 422.315787 232.24982 
L 422.417128 263.761368 
L 422.467703 252.569152 
L 422.518212 229.623289 
L 422.568658 255.346946 
L 422.61904 265.979517 
L 422.669358 241.698694 
L 422.719612 284.375471 
L 422.769803 226.119813 
L 422.81993 254.205669 
L 422.919996 248.316845 
L 423.01981 249.012437 
L 423.069623 221.796625 
L 423.119374 265.536197 
L 423.169062 264.716407 
" clip-path="url(#p968fa9b48d)" style="fill: none; stroke: #ffa500; stroke-width: 1.5; stroke-linecap: square"/>
   </g>
   <g id="line2d_24">
    <path d="M 66.049063 54.2945 
L 161.360466 54.546657 
L 202.528059 55.041586 
L 229.422155 55.618022 
L 256.634947 56.856199 
L 270.376937 57.795339 
L 285.625359 59.30161 
L 298.948538 61.086404 
L 306.173508 62.21884 
L 314.640889 63.893085 
L 319.649627 65.061156 
L 326.431399 66.840599 
L 333.665781 69.120711 
L 338.549617 71.00919 
L 342.142218 72.599913 
L 347.490474 75.312371 
L 351.304532 77.573288 
L 354.784307 79.928391 
L 356.681784 81.340631 
L 361.884421 85.732181 
L 365.858629 89.801856 
L 368.891461 93.40227 
L 371.709113 97.222425 
L 373.999212 100.672314 
L 376.002039 103.98707 
L 379.579625 110.639033 
L 381.325685 114.304047 
L 384.603202 121.950445 
L 386.647035 127.261399 
L 389.412257 135.098068 
L 392.645109 145.298719 
L 395.335557 154.513583 
L 398.136035 164.879921 
L 407.702326 201.746317 
L 413.298842 222.110124 
L 416.94589 234.160092 
L 421.856522 248.547403 
L 423.169062 252.089926 
L 423.169062 252.089926 
" clip-path="url(#p968fa9b48d)" style="fill: none; stroke: #008000; stroke-width: 1.5; stroke-linecap: square"/>
   </g>
   <g id="patch_3">
    <path d="M 66.049063 308.3105 
L 66.049063 42.1985 
" style="fill: none; stroke: #000000; stroke-width: 0.8; stroke-linejoin: miter; stroke-linecap: square"/>
   </g>
   <g id="patch_4">
    <path d="M 423.169063 308.3105 
L 423.169063 42.1985 
" style="fill: none; stroke: #000000; stroke-width: 0.8; stroke-linejoin: miter; stroke-linecap: square"/>
   </g>
   <g id="patch_5">
    <path d="M 66.049063 308.3105 
L 423.169062 308.3105 
" style="fill: none; stroke: #000000; stroke-width: 0.8; stroke-linejoin: miter; stroke-linecap: square"/>
   </g>
   <g id="patch_6">
    <path d="M 66.049063 42.1985 
L 423.169062 42.1985 
" style="fill: none; stroke: #000000; stroke-width: 0.8; stroke-linejoin: miter; stroke-linecap: square"/>
   </g>
   <g id="text_14">
    <!-- Loss of the CIFAR10_model_(3072+2048-2048+1) -->
    <g transform="translate(21.1385 22.1985) scale(0.216 -0.216)">
     <defs>
      <path id="TimesNewRomanPSMT-20" transform="scale(0.015625)"/>
      <path id="TimesNewRomanPSMT-66" d="M 1319 2638 
L 1319 756 
Q 1319 356 1406 250 
Q 1522 113 1716 113 
L 1975 113 
L 1975 0 
L 266 0 
L 266 113 
L 394 113 
Q 519 113 622 175 
Q 725 238 764 344 
Q 803 450 803 756 
L 803 2638 
L 247 2638 
L 247 2863 
L 803 2863 
L 803 3050 
Q 803 3478 940 3775 
Q 1078 4072 1361 4255 
Q 1644 4438 1997 4438 
Q 2325 4438 2600 4225 
Q 2781 4084 2781 3909 
Q 2781 3816 2700 3733 
Q 2619 3650 2525 3650 
Q 2453 3650 2373 3701 
Q 2294 3753 2178 3923 
Q 2063 4094 1966 4153 
Q 1869 4213 1750 4213 
Q 1606 4213 1506 4136 
Q 1406 4059 1362 3898 
Q 1319 3738 1319 3069 
L 1319 2863 
L 2056 2863 
L 2056 2638 
L 1319 2638 
z
" transform="scale(0.015625)"/>
      <path id="TimesNewRomanPSMT-74" d="M 1031 3803 
L 1031 2863 
L 1700 2863 
L 1700 2644 
L 1031 2644 
L 1031 788 
Q 1031 509 1111 412 
Q 1191 316 1316 316 
Q 1419 316 1516 380 
Q 1613 444 1666 569 
L 1788 569 
Q 1678 263 1478 108 
Q 1278 -47 1066 -47 
Q 922 -47 784 33 
Q 647 113 581 261 
Q 516 409 516 719 
L 516 2644 
L 63 2644 
L 63 2747 
Q 234 2816 414 2980 
Q 594 3144 734 3369 
Q 806 3488 934 3803 
L 1031 3803 
z
" transform="scale(0.015625)"/>
      <path id="TimesNewRomanPSMT-68" d="M 1041 4444 
L 1041 2350 
Q 1388 2731 1591 2839 
Q 1794 2947 1997 2947 
Q 2241 2947 2416 2812 
Q 2591 2678 2675 2391 
Q 2734 2191 2734 1659 
L 2734 647 
Q 2734 375 2778 275 
Q 2809 200 2884 156 
Q 2959 113 3159 113 
L 3159 0 
L 1753 0 
L 1753 113 
L 1819 113 
Q 2019 113 2097 173 
Q 2175 234 2206 353 
Q 2216 403 2216 647 
L 2216 1659 
Q 2216 2128 2167 2275 
Q 2119 2422 2012 2495 
Q 1906 2569 1756 2569 
Q 1603 2569 1437 2487 
Q 1272 2406 1041 2159 
L 1041 647 
Q 1041 353 1073 281 
Q 1106 209 1195 161 
Q 1284 113 1503 113 
L 1503 0 
L 84 0 
L 84 113 
Q 275 113 384 172 
Q 447 203 484 290 
Q 522 378 522 647 
L 522 3238 
Q 522 3728 498 3840 
Q 475 3953 426 3993 
Q 378 4034 297 4034 
Q 231 4034 84 3984 
L 41 4094 
L 897 4444 
L 1041 4444 
z
" transform="scale(0.015625)"/>
      <path id="TimesNewRomanPSMT-65" d="M 681 1784 
Q 678 1147 991 784 
Q 1303 422 1725 422 
Q 2006 422 2214 576 
Q 2422 731 2563 1106 
L 2659 1044 
Q 2594 616 2278 264 
Q 1963 -88 1488 -88 
Q 972 -88 605 314 
Q 238 716 238 1394 
Q 238 2128 614 2539 
Q 991 2950 1559 2950 
Q 2041 2950 2350 2633 
Q 2659 2316 2659 1784 
L 681 1784 
z
M 681 1966 
L 2006 1966 
Q 1991 2241 1941 2353 
Q 1863 2528 1708 2628 
Q 1553 2728 1384 2728 
Q 1125 2728 920 2526 
Q 716 2325 681 1966 
z
" transform="scale(0.015625)"/>
      <path id="TimesNewRomanPSMT-43" d="M 3853 4334 
L 3950 2894 
L 3853 2894 
Q 3659 3541 3300 3825 
Q 2941 4109 2438 4109 
Q 2016 4109 1675 3895 
Q 1334 3681 1139 3212 
Q 944 2744 944 2047 
Q 944 1472 1128 1050 
Q 1313 628 1683 403 
Q 2053 178 2528 178 
Q 2941 178 3256 354 
Q 3572 531 3950 1056 
L 4047 994 
Q 3728 428 3303 165 
Q 2878 -97 2294 -97 
Q 1241 -97 663 684 
Q 231 1266 231 2053 
Q 231 2688 515 3219 
Q 800 3750 1298 4042 
Q 1797 4334 2388 4334 
Q 2847 4334 3294 4109 
Q 3425 4041 3481 4041 
Q 3566 4041 3628 4100 
Q 3709 4184 3744 4334 
L 3853 4334 
z
" transform="scale(0.015625)"/>
      <path id="TimesNewRomanPSMT-49" d="M 1975 116 
L 1975 0 
L 159 0 
L 159 116 
L 309 116 
Q 572 116 691 269 
Q 766 369 766 750 
L 766 3488 
Q 766 3809 725 3913 
Q 694 3991 597 4047 
Q 459 4122 309 4122 
L 159 4122 
L 159 4238 
L 1975 4238 
L 1975 4122 
L 1822 4122 
Q 1563 4122 1444 3969 
Q 1366 3869 1366 3488 
L 1366 750 
Q 1366 428 1406 325 
Q 1438 247 1538 191 
Q 1672 116 1822 116 
L 1975 116 
z
" transform="scale(0.015625)"/>
      <path id="TimesNewRomanPSMT-46" d="M 1309 4006 
L 1309 2341 
L 2081 2341 
Q 2347 2341 2470 2458 
Q 2594 2575 2634 2922 
L 2750 2922 
L 2750 1488 
L 2634 1488 
Q 2631 1734 2570 1850 
Q 2509 1966 2401 2023 
Q 2294 2081 2081 2081 
L 1309 2081 
L 1309 750 
Q 1309 428 1350 325 
Q 1381 247 1481 191 
Q 1619 116 1769 116 
L 1922 116 
L 1922 0 
L 103 0 
L 103 116 
L 253 116 
Q 516 116 634 269 
Q 709 369 709 750 
L 709 3488 
Q 709 3809 669 3913 
Q 638 3991 541 4047 
Q 406 4122 253 4122 
L 103 4122 
L 103 4238 
L 3256 4238 
L 3297 3306 
L 3188 3306 
Q 3106 3603 2998 3742 
Q 2891 3881 2733 3943 
Q 2575 4006 2244 4006 
L 1309 4006 
z
" transform="scale(0.015625)"/>
      <path id="TimesNewRomanPSMT-41" d="M 2928 1419 
L 1288 1419 
L 1000 750 
Q 894 503 894 381 
Q 894 284 986 211 
Q 1078 138 1384 116 
L 1384 0 
L 50 0 
L 50 116 
Q 316 163 394 238 
Q 553 388 747 847 
L 2238 4334 
L 2347 4334 
L 3822 809 
Q 4000 384 4145 257 
Q 4291 131 4550 116 
L 4550 0 
L 2878 0 
L 2878 116 
Q 3131 128 3220 200 
Q 3309 272 3309 375 
Q 3309 513 3184 809 
L 2928 1419 
z
M 2841 1650 
L 2122 3363 
L 1384 1650 
L 2841 1650 
z
" transform="scale(0.015625)"/>
      <path id="TimesNewRomanPSMT-52" d="M 4325 0 
L 3194 0 
L 1759 1981 
Q 1600 1975 1500 1975 
Q 1459 1975 1412 1976 
Q 1366 1978 1316 1981 
L 1316 750 
Q 1316 350 1403 253 
Q 1522 116 1759 116 
L 1925 116 
L 1925 0 
L 109 0 
L 109 116 
L 269 116 
Q 538 116 653 291 
Q 719 388 719 750 
L 719 3488 
Q 719 3888 631 3984 
Q 509 4122 269 4122 
L 109 4122 
L 109 4238 
L 1653 4238 
Q 2328 4238 2648 4139 
Q 2969 4041 3192 3777 
Q 3416 3513 3416 3147 
Q 3416 2756 3161 2468 
Q 2906 2181 2372 2063 
L 3247 847 
Q 3547 428 3762 290 
Q 3978 153 4325 116 
L 4325 0 
z
M 1316 2178 
Q 1375 2178 1419 2176 
Q 1463 2175 1491 2175 
Q 2097 2175 2405 2437 
Q 2713 2700 2713 3106 
Q 2713 3503 2464 3751 
Q 2216 4000 1806 4000 
Q 1625 4000 1316 3941 
L 1316 2178 
z
" transform="scale(0.015625)"/>
      <path id="TimesNewRomanPSMT-5f" d="M 3256 -1381 
L -53 -1381 
L -53 -1119 
L 3256 -1119 
L 3256 -1381 
z
" transform="scale(0.015625)"/>
      <path id="TimesNewRomanPSMT-6d" d="M 1050 2338 
Q 1363 2650 1419 2697 
Q 1559 2816 1721 2881 
Q 1884 2947 2044 2947 
Q 2313 2947 2506 2790 
Q 2700 2634 2766 2338 
Q 3088 2713 3309 2830 
Q 3531 2947 3766 2947 
Q 3994 2947 4170 2830 
Q 4347 2713 4450 2447 
Q 4519 2266 4519 1878 
L 4519 647 
Q 4519 378 4559 278 
Q 4591 209 4675 161 
Q 4759 113 4950 113 
L 4950 0 
L 3538 0 
L 3538 113 
L 3597 113 
Q 3781 113 3884 184 
Q 3956 234 3988 344 
Q 4000 397 4000 647 
L 4000 1878 
Q 4000 2228 3916 2372 
Q 3794 2572 3525 2572 
Q 3359 2572 3192 2489 
Q 3025 2406 2788 2181 
L 2781 2147 
L 2788 2013 
L 2788 647 
Q 2788 353 2820 281 
Q 2853 209 2943 161 
Q 3034 113 3253 113 
L 3253 0 
L 1806 0 
L 1806 113 
Q 2044 113 2133 169 
Q 2222 225 2256 338 
Q 2272 391 2272 647 
L 2272 1878 
Q 2272 2228 2169 2381 
Q 2031 2581 1784 2581 
Q 1616 2581 1450 2491 
Q 1191 2353 1050 2181 
L 1050 647 
Q 1050 366 1089 281 
Q 1128 197 1204 155 
Q 1281 113 1516 113 
L 1516 0 
L 100 0 
L 100 113 
Q 297 113 375 155 
Q 453 197 493 289 
Q 534 381 534 647 
L 534 1741 
Q 534 2213 506 2350 
Q 484 2453 437 2492 
Q 391 2531 309 2531 
Q 222 2531 100 2484 
L 53 2597 
L 916 2947 
L 1050 2947 
L 1050 2338 
z
" transform="scale(0.015625)"/>
      <path id="TimesNewRomanPSMT-64" d="M 2222 322 
Q 2013 103 1813 7 
Q 1613 -88 1381 -88 
Q 913 -88 563 304 
Q 213 697 213 1313 
Q 213 1928 600 2439 
Q 988 2950 1597 2950 
Q 1975 2950 2222 2709 
L 2222 3238 
Q 2222 3728 2198 3840 
Q 2175 3953 2125 3993 
Q 2075 4034 2000 4034 
Q 1919 4034 1784 3984 
L 1744 4094 
L 2597 4444 
L 2738 4444 
L 2738 1134 
Q 2738 631 2761 520 
Q 2784 409 2836 365 
Q 2888 322 2956 322 
Q 3041 322 3181 375 
L 3216 266 
L 2366 -88 
L 2222 -88 
L 2222 322 
z
M 2222 541 
L 2222 2016 
Q 2203 2228 2109 2403 
Q 2016 2578 1861 2667 
Q 1706 2756 1559 2756 
Q 1284 2756 1069 2509 
Q 784 2184 784 1559 
Q 784 928 1059 592 
Q 1334 256 1672 256 
Q 1956 256 2222 541 
z
" transform="scale(0.015625)"/>
      <path id="TimesNewRomanPSMT-6c" d="M 1184 4444 
L 1184 647 
Q 1184 378 1223 290 
Q 1263 203 1344 158 
Q 1425 113 1647 113 
L 1647 0 
L 244 0 
L 244 113 
Q 441 113 512 153 
Q 584 194 625 287 
Q 666 381 666 647 
L 666 3247 
Q 666 3731 644 3842 
Q 622 3953 573 3993 
Q 525 4034 450 4034 
Q 369 4034 244 3984 
L 191 4094 
L 1044 4444 
L 1184 4444 
z
" transform="scale(0.015625)"/>
      <path id="TimesNewRomanPSMT-28" d="M 1988 -1253 
L 1988 -1369 
Q 1516 -1131 1200 -813 
Q 750 -359 506 256 
Q 263 872 263 1534 
Q 263 2503 741 3301 
Q 1219 4100 1988 4444 
L 1988 4313 
Q 1603 4100 1356 3731 
Q 1109 3363 987 2797 
Q 866 2231 866 1616 
Q 866 947 969 400 
Q 1050 -31 1165 -292 
Q 1281 -553 1476 -793 
Q 1672 -1034 1988 -1253 
z
" transform="scale(0.015625)"/>
      <path id="TimesNewRomanPSMT-33" d="M 325 3431 
Q 506 3859 782 4092 
Q 1059 4325 1472 4325 
Q 1981 4325 2253 3994 
Q 2459 3747 2459 3466 
Q 2459 3003 1878 2509 
Q 2269 2356 2469 2072 
Q 2669 1788 2669 1403 
Q 2669 853 2319 450 
Q 1863 -75 997 -75 
Q 569 -75 414 31 
Q 259 138 259 259 
Q 259 350 332 419 
Q 406 488 509 488 
Q 588 488 669 463 
Q 722 447 909 348 
Q 1097 250 1169 231 
Q 1284 197 1416 197 
Q 1734 197 1970 444 
Q 2206 691 2206 1028 
Q 2206 1275 2097 1509 
Q 2016 1684 1919 1775 
Q 1784 1900 1550 2001 
Q 1316 2103 1072 2103 
L 972 2103 
L 972 2197 
Q 1219 2228 1467 2375 
Q 1716 2522 1828 2728 
Q 1941 2934 1941 3181 
Q 1941 3503 1739 3701 
Q 1538 3900 1238 3900 
Q 753 3900 428 3381 
L 325 3431 
z
" transform="scale(0.015625)"/>
      <path id="TimesNewRomanPSMT-37" d="M 644 4238 
L 2916 4238 
L 2916 4119 
L 1503 -88 
L 1153 -88 
L 2419 3728 
L 1253 3728 
Q 900 3728 750 3644 
Q 488 3500 328 3200 
L 238 3234 
L 644 4238 
z
" transform="scale(0.015625)"/>
      <path id="TimesNewRomanPSMT-2b" d="M 1672 441 
L 1672 2000 
L 116 2000 
L 116 2256 
L 1672 2256 
L 1672 3809 
L 1922 3809 
L 1922 2256 
L 3484 2256 
L 3484 2000 
L 1922 2000 
L 1922 441 
L 1672 441 
z
" transform="scale(0.015625)"/>
      <path id="TimesNewRomanPSMT-2d" d="M 259 1672 
L 1875 1672 
L 1875 1200 
L 259 1200 
L 259 1672 
z
" transform="scale(0.015625)"/>
      <path id="TimesNewRomanPSMT-29" d="M 144 4313 
L 144 4444 
Q 619 4209 934 3891 
Q 1381 3434 1625 2820 
Q 1869 2206 1869 1541 
Q 1869 572 1392 -226 
Q 916 -1025 144 -1369 
L 144 -1253 
Q 528 -1038 776 -670 
Q 1025 -303 1145 264 
Q 1266 831 1266 1447 
Q 1266 2113 1163 2663 
Q 1084 3094 967 3353 
Q 850 3613 656 3853 
Q 463 4094 144 4313 
z
" transform="scale(0.015625)"/>
     </defs>
     <use xlink:href="#TimesNewRomanPSMT-4c"/>
     <use xlink:href="#TimesNewRomanPSMT-6f" transform="translate(61.083984 0)"/>
     <use xlink:href="#TimesNewRomanPSMT-73" transform="translate(111.083984 0)"/>
     <use xlink:href="#TimesNewRomanPSMT-73" transform="translate(150 0)"/>
     <use xlink:href="#TimesNewRomanPSMT-20" transform="translate(188.916016 0)"/>
     <use xlink:href="#TimesNewRomanPSMT-6f" transform="translate(213.916016 0)"/>
     <use xlink:href="#TimesNewRomanPSMT-66" transform="translate(263.916016 0)"/>
     <use xlink:href="#TimesNewRomanPSMT-20" transform="translate(297.216797 0)"/>
     <use xlink:href="#TimesNewRomanPSMT-74" transform="translate(322.216797 0)"/>
     <use xlink:href="#TimesNewRomanPSMT-68" transform="translate(350 0)"/>
     <use xlink:href="#TimesNewRomanPSMT-65" transform="translate(400 0)"/>
     <use xlink:href="#TimesNewRomanPSMT-20" transform="translate(444.384766 0)"/>
     <use xlink:href="#TimesNewRomanPSMT-43" transform="translate(469.384766 0)"/>
     <use xlink:href="#TimesNewRomanPSMT-49" transform="translate(536.083984 0)"/>
     <use xlink:href="#TimesNewRomanPSMT-46" transform="translate(569.384766 0)"/>
     <use xlink:href="#TimesNewRomanPSMT-41" transform="translate(617.625 0)"/>
     <use xlink:href="#TimesNewRomanPSMT-52" transform="translate(689.841797 0)"/>
     <use xlink:href="#TimesNewRomanPSMT-31" transform="translate(756.541016 0)"/>
     <use xlink:href="#TimesNewRomanPSMT-30" transform="translate(806.541016 0)"/>
     <use xlink:href="#TimesNewRomanPSMT-5f" transform="translate(856.541016 0)"/>
     <use xlink:href="#TimesNewRomanPSMT-6d" transform="translate(906.541016 0)"/>
     <use xlink:href="#TimesNewRomanPSMT-6f" transform="translate(984.324219 0)"/>
     <use xlink:href="#TimesNewRomanPSMT-64" transform="translate(1034.324219 0)"/>
     <use xlink:href="#TimesNewRomanPSMT-65" transform="translate(1084.324219 0)"/>
     <use xlink:href="#TimesNewRomanPSMT-6c" transform="translate(1128.708984 0)"/>
     <use xlink:href="#TimesNewRomanPSMT-5f" transform="translate(1156.492188 0)"/>
     <use xlink:href="#TimesNewRomanPSMT-28" transform="translate(1206.492188 0)"/>
     <use xlink:href="#TimesNewRomanPSMT-33" transform="translate(1239.792969 0)"/>
     <use xlink:href="#TimesNewRomanPSMT-30" transform="translate(1289.792969 0)"/>
     <use xlink:href="#TimesNewRomanPSMT-37" transform="translate(1339.792969 0)"/>
     <use xlink:href="#TimesNewRomanPSMT-32" transform="translate(1389.792969 0)"/>
     <use xlink:href="#TimesNewRomanPSMT-2b" transform="translate(1439.792969 0)"/>
     <use xlink:href="#TimesNewRomanPSMT-32" transform="translate(1496.189453 0)"/>
     <use xlink:href="#TimesNewRomanPSMT-30" transform="translate(1546.189453 0)"/>
     <use xlink:href="#TimesNewRomanPSMT-34" transform="translate(1596.189453 0)"/>
     <use xlink:href="#TimesNewRomanPSMT-38" transform="translate(1646.189453 0)"/>
     <use xlink:href="#TimesNewRomanPSMT-2d" transform="translate(1696.189453 0)"/>
     <use xlink:href="#TimesNewRomanPSMT-32" transform="translate(1729.490234 0)"/>
     <use xlink:href="#TimesNewRomanPSMT-30" transform="translate(1779.490234 0)"/>
     <use xlink:href="#TimesNewRomanPSMT-34" transform="translate(1829.490234 0)"/>
     <use xlink:href="#TimesNewRomanPSMT-38" transform="translate(1879.490234 0)"/>
     <use xlink:href="#TimesNewRomanPSMT-2b" transform="translate(1929.490234 0)"/>
     <use xlink:href="#TimesNewRomanPSMT-31" transform="translate(1985.886719 0)"/>
     <use xlink:href="#TimesNewRomanPSMT-29" transform="translate(2035.886719 0)"/>
    </g>
   </g>
   <g id="legend_1">
    <g id="patch_7">
     <path d="M 78.649062 299.3105 
L 242.741562 299.3105 
Q 246.341562 299.3105 246.341562 295.7105 
L 246.341562 246.576125 
Q 246.341562 242.976125 242.741562 242.976125 
L 78.649062 242.976125 
Q 75.049063 242.976125 75.049063 246.576125 
L 75.049063 295.7105 
Q 75.049063 299.3105 78.649062 299.3105 
z
" style="fill: #ffffff; opacity: 0.8; stroke: #cccccc; stroke-linejoin: miter"/>
    </g>
    <g id="line2d_25">
     <path d="M 82.249063 256.476125 
L 100.249063 256.476125 
L 118.249063 256.476125 
" style="fill: none; stroke: #ffa500; stroke-width: 1.5; stroke-linecap: square"/>
    </g>
    <g id="text_15">
     <!-- Training loss -->
     <g transform="translate(132.649063 262.776125) scale(0.18 -0.18)">
      <defs>
       <path id="TimesNewRomanPSMT-54" d="M 3703 4238 
L 3750 3244 
L 3631 3244 
Q 3597 3506 3538 3619 
Q 3441 3800 3280 3886 
Q 3119 3972 2856 3972 
L 2259 3972 
L 2259 734 
Q 2259 344 2344 247 
Q 2463 116 2709 116 
L 2856 116 
L 2856 0 
L 1059 0 
L 1059 116 
L 1209 116 
Q 1478 116 1591 278 
Q 1659 378 1659 734 
L 1659 3972 
L 1150 3972 
Q 853 3972 728 3928 
Q 566 3869 450 3700 
Q 334 3531 313 3244 
L 194 3244 
L 244 4238 
L 3703 4238 
z
" transform="scale(0.015625)"/>
       <path id="TimesNewRomanPSMT-72" d="M 1038 2947 
L 1038 2303 
Q 1397 2947 1775 2947 
Q 1947 2947 2059 2842 
Q 2172 2738 2172 2600 
Q 2172 2478 2090 2393 
Q 2009 2309 1897 2309 
Q 1788 2309 1652 2417 
Q 1516 2525 1450 2525 
Q 1394 2525 1328 2463 
Q 1188 2334 1038 2041 
L 1038 669 
Q 1038 431 1097 309 
Q 1138 225 1241 169 
Q 1344 113 1538 113 
L 1538 0 
L 72 0 
L 72 113 
Q 291 113 397 181 
Q 475 231 506 341 
Q 522 394 522 644 
L 522 1753 
Q 522 2253 501 2348 
Q 481 2444 426 2487 
Q 372 2531 291 2531 
Q 194 2531 72 2484 
L 41 2597 
L 906 2947 
L 1038 2947 
z
" transform="scale(0.015625)"/>
       <path id="TimesNewRomanPSMT-61" d="M 1822 413 
Q 1381 72 1269 19 
Q 1100 -59 909 -59 
Q 613 -59 420 144 
Q 228 347 228 678 
Q 228 888 322 1041 
Q 450 1253 767 1440 
Q 1084 1628 1822 1897 
L 1822 2009 
Q 1822 2438 1686 2597 
Q 1550 2756 1291 2756 
Q 1094 2756 978 2650 
Q 859 2544 859 2406 
L 866 2225 
Q 866 2081 792 2003 
Q 719 1925 600 1925 
Q 484 1925 411 2006 
Q 338 2088 338 2228 
Q 338 2497 613 2722 
Q 888 2947 1384 2947 
Q 1766 2947 2009 2819 
Q 2194 2722 2281 2516 
Q 2338 2381 2338 1966 
L 2338 994 
Q 2338 584 2353 492 
Q 2369 400 2405 369 
Q 2441 338 2488 338 
Q 2538 338 2575 359 
Q 2641 400 2828 588 
L 2828 413 
Q 2478 -56 2159 -56 
Q 2006 -56 1915 50 
Q 1825 156 1822 413 
z
M 1822 616 
L 1822 1706 
Q 1350 1519 1213 1441 
Q 966 1303 859 1153 
Q 753 1003 753 825 
Q 753 600 887 451 
Q 1022 303 1197 303 
Q 1434 303 1822 616 
z
" transform="scale(0.015625)"/>
       <path id="TimesNewRomanPSMT-69" d="M 928 4444 
Q 1059 4444 1151 4351 
Q 1244 4259 1244 4128 
Q 1244 3997 1151 3903 
Q 1059 3809 928 3809 
Q 797 3809 703 3903 
Q 609 3997 609 4128 
Q 609 4259 701 4351 
Q 794 4444 928 4444 
z
M 1188 2947 
L 1188 647 
Q 1188 378 1227 289 
Q 1266 200 1342 156 
Q 1419 113 1622 113 
L 1622 0 
L 231 0 
L 231 113 
Q 441 113 512 153 
Q 584 194 626 287 
Q 669 381 669 647 
L 669 1750 
Q 669 2216 641 2353 
Q 619 2453 572 2492 
Q 525 2531 444 2531 
Q 356 2531 231 2484 
L 188 2597 
L 1050 2947 
L 1188 2947 
z
" transform="scale(0.015625)"/>
       <path id="TimesNewRomanPSMT-6e" d="M 1034 2341 
Q 1538 2947 1994 2947 
Q 2228 2947 2397 2830 
Q 2566 2713 2666 2444 
Q 2734 2256 2734 1869 
L 2734 647 
Q 2734 375 2778 278 
Q 2813 200 2889 156 
Q 2966 113 3172 113 
L 3172 0 
L 1756 0 
L 1756 113 
L 1816 113 
Q 2016 113 2095 173 
Q 2175 234 2206 353 
Q 2219 400 2219 647 
L 2219 1819 
Q 2219 2209 2117 2386 
Q 2016 2563 1775 2563 
Q 1403 2563 1034 2156 
L 1034 647 
Q 1034 356 1069 288 
Q 1113 197 1189 155 
Q 1266 113 1500 113 
L 1500 0 
L 84 0 
L 84 113 
L 147 113 
Q 366 113 442 223 
Q 519 334 519 647 
L 519 1709 
Q 519 2225 495 2337 
Q 472 2450 423 2490 
Q 375 2531 294 2531 
Q 206 2531 84 2484 
L 38 2597 
L 900 2947 
L 1034 2947 
L 1034 2341 
z
" transform="scale(0.015625)"/>
       <path id="TimesNewRomanPSMT-67" d="M 966 1044 
Q 703 1172 562 1401 
Q 422 1631 422 1909 
Q 422 2334 742 2640 
Q 1063 2947 1563 2947 
Q 1972 2947 2272 2747 
L 2878 2747 
Q 3013 2747 3034 2739 
Q 3056 2731 3066 2713 
Q 3084 2684 3084 2613 
Q 3084 2531 3069 2500 
Q 3059 2484 3036 2475 
Q 3013 2466 2878 2466 
L 2506 2466 
Q 2681 2241 2681 1891 
Q 2681 1491 2375 1206 
Q 2069 922 1553 922 
Q 1341 922 1119 984 
Q 981 866 932 777 
Q 884 688 884 625 
Q 884 572 936 522 
Q 988 472 1138 450 
Q 1225 438 1575 428 
Q 2219 413 2409 384 
Q 2700 344 2873 169 
Q 3047 -6 3047 -263 
Q 3047 -616 2716 -925 
Q 2228 -1381 1444 -1381 
Q 841 -1381 425 -1109 
Q 191 -953 191 -784 
Q 191 -709 225 -634 
Q 278 -519 444 -313 
Q 466 -284 763 25 
Q 600 122 533 198 
Q 466 275 466 372 
Q 466 481 555 628 
Q 644 775 966 1044 
z
M 1509 2797 
Q 1278 2797 1122 2612 
Q 966 2428 966 2047 
Q 966 1553 1178 1281 
Q 1341 1075 1591 1075 
Q 1828 1075 1981 1253 
Q 2134 1431 2134 1813 
Q 2134 2309 1919 2591 
Q 1759 2797 1509 2797 
z
M 934 0 
Q 788 -159 713 -296 
Q 638 -434 638 -550 
Q 638 -700 819 -813 
Q 1131 -1006 1722 -1006 
Q 2284 -1006 2551 -807 
Q 2819 -609 2819 -384 
Q 2819 -222 2659 -153 
Q 2497 -84 2016 -72 
Q 1313 -53 934 0 
z
" transform="scale(0.015625)"/>
      </defs>
      <use xlink:href="#TimesNewRomanPSMT-54"/>
      <use xlink:href="#TimesNewRomanPSMT-72" transform="translate(57.583984 0)"/>
      <use xlink:href="#TimesNewRomanPSMT-61" transform="translate(90.884766 0)"/>
      <use xlink:href="#TimesNewRomanPSMT-69" transform="translate(135.269531 0)"/>
      <use xlink:href="#TimesNewRomanPSMT-6e" transform="translate(163.052734 0)"/>
      <use xlink:href="#TimesNewRomanPSMT-69" transform="translate(213.052734 0)"/>
      <use xlink:href="#TimesNewRomanPSMT-6e" transform="translate(240.835938 0)"/>
      <use xlink:href="#TimesNewRomanPSMT-67" transform="translate(290.835938 0)"/>
      <use xlink:href="#TimesNewRomanPSMT-20" transform="translate(340.835938 0)"/>
      <use xlink:href="#TimesNewRomanPSMT-6c" transform="translate(365.835938 0)"/>
      <use xlink:href="#TimesNewRomanPSMT-6f" transform="translate(393.619141 0)"/>
      <use xlink:href="#TimesNewRomanPSMT-73" transform="translate(443.619141 0)"/>
      <use xlink:href="#TimesNewRomanPSMT-73" transform="translate(482.535156 0)"/>
     </g>
    </g>
    <g id="line2d_26">
     <path d="M 82.249063 281.960187 
L 100.249063 281.960187 
L 118.249063 281.960187 
" style="fill: none; stroke: #008000; stroke-width: 1.5; stroke-linecap: square"/>
    </g>
    <g id="text_16">
     <!-- Validation loss -->
     <g transform="translate(132.649063 288.260187) scale(0.18 -0.18)">
      <defs>
       <path id="TimesNewRomanPSMT-56" d="M 4544 4238 
L 4544 4122 
Q 4319 4081 4203 3978 
Q 4038 3825 3909 3509 
L 2431 -97 
L 2316 -97 
L 728 3556 
Q 606 3838 556 3900 
Q 478 3997 364 4051 
Q 250 4106 56 4122 
L 56 4238 
L 1788 4238 
L 1788 4122 
Q 1494 4094 1406 4022 
Q 1319 3950 1319 3838 
Q 1319 3681 1463 3350 
L 2541 866 
L 3541 3319 
Q 3688 3681 3688 3822 
Q 3688 3913 3597 3995 
Q 3506 4078 3291 4113 
Q 3275 4116 3238 4122 
L 3238 4238 
L 4544 4238 
z
" transform="scale(0.015625)"/>
      </defs>
      <use xlink:href="#TimesNewRomanPSMT-56"/>
      <use xlink:href="#TimesNewRomanPSMT-61" transform="translate(61.091797 0)"/>
      <use xlink:href="#TimesNewRomanPSMT-6c" transform="translate(105.476562 0)"/>
      <use xlink:href="#TimesNewRomanPSMT-69" transform="translate(133.259766 0)"/>
      <use xlink:href="#TimesNewRomanPSMT-64" transform="translate(161.042969 0)"/>
      <use xlink:href="#TimesNewRomanPSMT-61" transform="translate(211.042969 0)"/>
      <use xlink:href="#TimesNewRomanPSMT-74" transform="translate(255.427734 0)"/>
      <use xlink:href="#TimesNewRomanPSMT-69" transform="translate(283.210938 0)"/>
      <use xlink:href="#TimesNewRomanPSMT-6f" transform="translate(310.994141 0)"/>
      <use xlink:href="#TimesNewRomanPSMT-6e" transform="translate(360.994141 0)"/>
      <use xlink:href="#TimesNewRomanPSMT-20" transform="translate(410.994141 0)"/>
      <use xlink:href="#TimesNewRomanPSMT-6c" transform="translate(435.994141 0)"/>
      <use xlink:href="#TimesNewRomanPSMT-6f" transform="translate(463.777344 0)"/>
      <use xlink:href="#TimesNewRomanPSMT-73" transform="translate(513.777344 0)"/>
      <use xlink:href="#TimesNewRomanPSMT-73" transform="translate(552.693359 0)"/>
     </g>
    </g>
   </g>
  </g>
 </g>
 <defs>
  <clipPath id="p968fa9b48d">
   <rect x="66.049063" y="42.1985" width="357.12" height="266.112"/>
  </clipPath>
 </defs>
</svg>
