<?xml version="1.0" encoding="utf-8" standalone="no"?>
<!DOCTYPE svg PUBLIC "-//W3C//DTD SVG 1.1//EN"
  "http://www.w3.org/Graphics/SVG/1.1/DTD/svg11.dtd">
<svg xmlns:xlink="http://www.w3.org/1999/xlink" width="1142.6865pt" height="383.265687pt" viewBox="0 0 1142.6865 383.265687" xmlns="http://www.w3.org/2000/svg" version="1.1">
 <metadata>
  <rdf:RDF xmlns:dc="http://purl.org/dc/elements/1.1/" xmlns:cc="http://creativecommons.org/ns#" xmlns:rdf="http://www.w3.org/1999/02/22-rdf-syntax-ns#">
   <cc:Work>
    <dc:type rdf:resource="http://purl.org/dc/dcmitype/StillImage"/>
    <dc:date>2025-07-18T16:44:23.400926</dc:date>
    <dc:format>image/svg+xml</dc:format>
    <dc:creator>
     <cc:Agent>
      <dc:title>Matplotlib v3.10.1, https://matplotlib.org/</dc:title>
     </cc:Agent>
    </dc:creator>
   </cc:Work>
  </rdf:RDF>
 </metadata>
 <defs>
  <style type="text/css">*{stroke-linejoin: round; stroke-linecap: butt}</style>
 </defs>
 <g id="figure_1">
  <g id="patch_1">
   <path d="M 0 383.265687 
L 1142.6865 383.265687 
L 1142.6865 0 
L 0 0 
z
" style="fill: #ffffff"/>
  </g>
  <g id="axes_1">
   <g id="patch_2">
    <path d="M 392.78325 311.6435 
L 749.90325 311.6435 
L 749.90325 45.5315 
L 392.78325 45.5315 
z
" style="fill: #ffffff"/>
   </g>
   <g id="matplotlib.axis_1">
    <g id="xtick_1">
     <g id="line2d_1">
      <path d="M 392.78325 311.6435 
L 392.78325 45.5315 
" clip-path="url(#pe8c94a0976)" style="fill: none; stroke: #b0b0b0; stroke-opacity: 0.3; stroke-width: 0.8; stroke-linecap: square"/>
     </g>
     <g id="line2d_2">
      <defs>
       <path id="mf5e93b85db" d="M 0 0 
L 0 3.5 
" style="stroke: #000000; stroke-width: 0.8"/>
      </defs>
      <g>
       <use xlink:href="#mf5e93b85db" x="392.78325" y="311.6435" style="stroke: #000000; stroke-width: 0.8"/>
      </g>
     </g>
     <g id="text_1">
      <!-- 0.0 -->
      <g transform="translate(379.03325 333.91975) scale(0.22 -0.22)">
       <defs>
        <path id="TimesNewRomanPSMT-30" d="M 231 2094 
Q 231 2819 450 3342 
Q 669 3866 1031 4122 
Q 1313 4325 1613 4325 
Q 2100 4325 2488 3828 
Q 2972 3213 2972 2159 
Q 2972 1422 2759 906 
Q 2547 391 2217 158 
Q 1888 -75 1581 -75 
Q 975 -75 572 641 
Q 231 1244 231 2094 
z
M 844 2016 
Q 844 1141 1059 588 
Q 1238 122 1591 122 
Q 1759 122 1940 273 
Q 2122 425 2216 781 
Q 2359 1319 2359 2297 
Q 2359 3022 2209 3506 
Q 2097 3866 1919 4016 
Q 1791 4119 1609 4119 
Q 1397 4119 1231 3928 
Q 1006 3669 925 3112 
Q 844 2556 844 2016 
z
" transform="scale(0.015625)"/>
        <path id="TimesNewRomanPSMT-2e" d="M 800 606 
Q 947 606 1047 504 
Q 1147 403 1147 259 
Q 1147 116 1045 14 
Q 944 -88 800 -88 
Q 656 -88 554 14 
Q 453 116 453 259 
Q 453 406 554 506 
Q 656 606 800 606 
z
" transform="scale(0.015625)"/>
       </defs>
       <use xlink:href="#TimesNewRomanPSMT-30"/>
       <use xlink:href="#TimesNewRomanPSMT-2e" transform="translate(50 0)"/>
       <use xlink:href="#TimesNewRomanPSMT-30" transform="translate(75 0)"/>
      </g>
     </g>
    </g>
    <g id="xtick_2">
     <g id="line2d_3">
      <path d="M 503.042074 311.6435 
L 503.042074 45.5315 
" clip-path="url(#pe8c94a0976)" style="fill: none; stroke: #b0b0b0; stroke-opacity: 0.3; stroke-width: 0.8; stroke-linecap: square"/>
     </g>
     <g id="line2d_4">
      <g>
       <use xlink:href="#mf5e93b85db" x="503.042074" y="311.6435" style="stroke: #000000; stroke-width: 0.8"/>
      </g>
     </g>
     <g id="text_2">
      <!-- 0.5 -->
      <g transform="translate(489.292074 333.91975) scale(0.22 -0.22)">
       <defs>
        <path id="TimesNewRomanPSMT-35" d="M 2778 4238 
L 2534 3706 
L 1259 3706 
L 981 3138 
Q 1809 3016 2294 2522 
Q 2709 2097 2709 1522 
Q 2709 1188 2573 903 
Q 2438 619 2231 419 
Q 2025 219 1772 97 
Q 1413 -75 1034 -75 
Q 653 -75 479 54 
Q 306 184 306 341 
Q 306 428 378 495 
Q 450 563 559 563 
Q 641 563 702 538 
Q 763 513 909 409 
Q 1144 247 1384 247 
Q 1750 247 2026 523 
Q 2303 800 2303 1197 
Q 2303 1581 2056 1914 
Q 1809 2247 1375 2428 
Q 1034 2569 447 2591 
L 1259 4238 
L 2778 4238 
z
" transform="scale(0.015625)"/>
       </defs>
       <use xlink:href="#TimesNewRomanPSMT-30"/>
       <use xlink:href="#TimesNewRomanPSMT-2e" transform="translate(50 0)"/>
       <use xlink:href="#TimesNewRomanPSMT-35" transform="translate(75 0)"/>
      </g>
     </g>
    </g>
    <g id="xtick_3">
     <g id="line2d_5">
      <path d="M 613.300898 311.6435 
L 613.300898 45.5315 
" clip-path="url(#pe8c94a0976)" style="fill: none; stroke: #b0b0b0; stroke-opacity: 0.3; stroke-width: 0.8; stroke-linecap: square"/>
     </g>
     <g id="line2d_6">
      <g>
       <use xlink:href="#mf5e93b85db" x="613.300898" y="311.6435" style="stroke: #000000; stroke-width: 0.8"/>
      </g>
     </g>
     <g id="text_3">
      <!-- 1.0 -->
      <g transform="translate(599.550898 333.91975) scale(0.22 -0.22)">
       <defs>
        <path id="TimesNewRomanPSMT-31" d="M 750 3822 
L 1781 4325 
L 1884 4325 
L 1884 747 
Q 1884 391 1914 303 
Q 1944 216 2037 169 
Q 2131 122 2419 116 
L 2419 0 
L 825 0 
L 825 116 
Q 1125 122 1212 167 
Q 1300 213 1334 289 
Q 1369 366 1369 747 
L 1369 3034 
Q 1369 3497 1338 3628 
Q 1316 3728 1258 3775 
Q 1200 3822 1119 3822 
Q 1003 3822 797 3725 
L 750 3822 
z
" transform="scale(0.015625)"/>
       </defs>
       <use xlink:href="#TimesNewRomanPSMT-31"/>
       <use xlink:href="#TimesNewRomanPSMT-2e" transform="translate(50 0)"/>
       <use xlink:href="#TimesNewRomanPSMT-30" transform="translate(75 0)"/>
      </g>
     </g>
    </g>
    <g id="xtick_4">
     <g id="line2d_7">
      <path d="M 723.559722 311.6435 
L 723.559722 45.5315 
" clip-path="url(#pe8c94a0976)" style="fill: none; stroke: #b0b0b0; stroke-opacity: 0.3; stroke-width: 0.8; stroke-linecap: square"/>
     </g>
     <g id="line2d_8">
      <g>
       <use xlink:href="#mf5e93b85db" x="723.559722" y="311.6435" style="stroke: #000000; stroke-width: 0.8"/>
      </g>
     </g>
     <g id="text_4">
      <!-- 1.5 -->
      <g transform="translate(709.809722 333.91975) scale(0.22 -0.22)">
       <use xlink:href="#TimesNewRomanPSMT-31"/>
       <use xlink:href="#TimesNewRomanPSMT-2e" transform="translate(50 0)"/>
       <use xlink:href="#TimesNewRomanPSMT-35" transform="translate(75 0)"/>
      </g>
     </g>
    </g>
    <g id="text_5">
     <!-- $\kappa  = \frac{ln(n)}{ln(d)}$ -->
     <g transform="translate(539.33325 364.185687) scale(0.22 -0.22)">
      <defs>
       <path id="STIXGeneral-Italic-3ba" d="M 979 1440 
L 998 1446 
Q 1850 2541 2464 2790 
Q 2547 2822 2630 2822 
Q 2797 2822 2886 2736 
Q 2976 2650 2976 2522 
Q 2976 2387 2893 2307 
Q 2810 2227 2682 2227 
Q 2605 2227 2502 2288 
Q 2400 2349 2336 2349 
Q 2170 2349 1990 2205 
Q 1811 2061 1414 1645 
L 2042 544 
Q 2202 262 2310 182 
Q 2419 102 2624 102 
L 2624 0 
Q 2374 -83 2182 -83 
Q 1786 -83 1555 326 
L 960 1350 
L 576 0 
L 90 0 
L 640 1978 
Q 730 2317 730 2406 
Q 730 2560 518 2560 
L 339 2560 
L 339 2650 
Q 678 2694 1306 2822 
L 1325 2803 
L 979 1440 
z
" transform="scale(0.015625)"/>
       <path id="STIXGeneral-Regular-3d" d="M 4077 2048 
L 307 2048 
L 307 2470 
L 4077 2470 
L 4077 2048 
z
M 4077 768 
L 307 768 
L 307 1190 
L 4077 1190 
L 4077 768 
z
" transform="scale(0.015625)"/>
       <path id="STIXGeneral-Italic-6c" d="M 1786 4339 
L 806 595 
Q 755 410 755 320 
Q 755 205 864 205 
Q 1037 205 1293 570 
L 1453 794 
L 1542 730 
Q 1254 275 1046 102 
Q 838 -70 576 -70 
Q 262 -70 262 288 
Q 262 397 288 480 
L 1165 3834 
Q 1184 3898 1184 3955 
Q 1184 4096 870 4096 
L 755 4096 
L 755 4198 
Q 1203 4250 1747 4371 
L 1786 4339 
z
" transform="scale(0.015625)"/>
       <path id="STIXGeneral-Italic-6e" d="M 2944 749 
L 3034 666 
Q 2707 218 2534 80 
Q 2362 -58 2138 -58 
Q 2010 -58 1923 28 
Q 1837 115 1837 288 
Q 1837 390 1939 768 
L 2221 1805 
Q 2310 2150 2310 2310 
Q 2310 2496 2157 2496 
Q 1971 2496 1750 2275 
Q 1530 2054 1210 1587 
Q 998 1274 899 1024 
Q 800 774 570 0 
L 90 0 
L 704 2240 
Q 717 2304 717 2349 
Q 717 2445 630 2480 
Q 544 2515 301 2522 
L 301 2624 
Q 550 2675 857 2729 
Q 1165 2784 1338 2822 
L 1363 2810 
L 934 1414 
Q 1408 2170 1753 2496 
Q 2099 2822 2413 2822 
Q 2611 2822 2720 2716 
Q 2829 2611 2829 2432 
Q 2829 2272 2765 2048 
L 2406 749 
Q 2317 429 2317 358 
Q 2317 243 2419 243 
Q 2541 243 2810 582 
Q 2854 634 2944 749 
z
" transform="scale(0.015625)"/>
       <path id="STIXGeneral-Regular-28" d="M 1946 -1030 
L 1869 -1133 
Q 1126 -710 716 32 
Q 307 774 307 1613 
Q 307 3386 1888 4326 
L 1946 4224 
Q 1293 3667 1075 3126 
Q 858 2586 858 1632 
Q 858 685 1082 96 
Q 1306 -493 1946 -1030 
z
" transform="scale(0.015625)"/>
       <path id="STIXGeneral-Regular-29" d="M 186 4224 
L 262 4326 
Q 992 3891 1408 3148 
Q 1824 2406 1824 1581 
Q 1824 -166 243 -1133 
L 186 -1030 
Q 845 -486 1059 54 
Q 1274 595 1274 1562 
Q 1274 2534 1059 3120 
Q 845 3706 186 4224 
z
" transform="scale(0.015625)"/>
       <path id="STIXGeneral-Italic-64" d="M 3334 4371 
L 3373 4333 
L 3123 3360 
L 2739 1958 
Q 2323 429 2323 384 
Q 2323 256 2438 256 
Q 2522 256 2614 336 
Q 2707 416 2963 710 
L 3040 646 
Q 2547 -83 2099 -83 
Q 1978 -83 1907 -6 
Q 1837 70 1837 205 
Q 1837 397 1920 774 
Q 1645 307 1379 118 
Q 1114 -70 781 -70 
Q 461 -70 278 125 
Q 96 320 96 678 
Q 96 1440 713 2131 
Q 1331 2822 1965 2822 
Q 2163 2822 2256 2732 
Q 2349 2643 2381 2451 
L 2387 2451 
L 2675 3494 
Q 2765 3808 2765 3949 
Q 2765 4051 2694 4076 
Q 2624 4102 2355 4115 
L 2355 4224 
Q 2848 4269 3334 4371 
z
M 2278 2310 
Q 2278 2477 2185 2576 
Q 2093 2675 1978 2675 
Q 1677 2675 1395 2381 
Q 1075 2042 864 1571 
Q 653 1101 653 704 
Q 653 486 752 361 
Q 851 237 1024 237 
Q 1312 237 1606 550 
Q 1901 864 2089 1350 
Q 2278 1837 2278 2310 
z
" transform="scale(0.015625)"/>
      </defs>
      <use xlink:href="#STIXGeneral-Italic-3ba" transform="translate(0 0.003125)"/>
      <use xlink:href="#STIXGeneral-Regular-3d" transform="translate(58.83999 0.003125)"/>
      <use xlink:href="#STIXGeneral-Italic-6c" transform="translate(141.779971 50.192188) scale(0.7)"/>
      <use xlink:href="#STIXGeneral-Italic-6e" transform="translate(161.239963 50.192188) scale(0.7)"/>
      <use xlink:href="#STIXGeneral-Regular-28" transform="translate(196.239952 50.192188) scale(0.7)"/>
      <use xlink:href="#STIXGeneral-Italic-6e" transform="translate(219.549944 50.192188) scale(0.7)"/>
      <use xlink:href="#STIXGeneral-Regular-29" transform="translate(254.549933 50.192188) scale(0.7)"/>
      <use xlink:href="#STIXGeneral-Italic-6c" transform="translate(141.779971 -41.257812) scale(0.7)"/>
      <use xlink:href="#STIXGeneral-Italic-6e" transform="translate(161.239963 -41.257812) scale(0.7)"/>
      <use xlink:href="#STIXGeneral-Regular-28" transform="translate(196.239952 -41.257812) scale(0.7)"/>
      <use xlink:href="#STIXGeneral-Italic-64" transform="translate(219.549944 -41.257812) scale(0.7)"/>
      <use xlink:href="#STIXGeneral-Regular-29" transform="translate(254.549933 -41.257812) scale(0.7)"/>
      <path d="M 141.779971 12.8 
L 141.779971 19.05 
L 277.859924 19.05 
L 277.859924 12.8 
L 141.779971 12.8 
z
"/>
     </g>
    </g>
   </g>
   <g id="matplotlib.axis_2">
    <g id="ytick_1">
     <g id="line2d_9">
      <path d="M 392.78325 311.6435 
L 749.90325 311.6435 
" clip-path="url(#pe8c94a0976)" style="fill: none; stroke: #b0b0b0; stroke-opacity: 0.3; stroke-width: 0.8; stroke-linecap: square"/>
     </g>
     <g id="line2d_10">
      <defs>
       <path id="ma51b42ed58" d="M 0 0 
L -3.5 0 
" style="stroke: #000000; stroke-width: 0.8"/>
      </defs>
      <g>
       <use xlink:href="#ma51b42ed58" x="392.78325" y="311.6435" style="stroke: #000000; stroke-width: 0.8"/>
      </g>
     </g>
     <g id="text_6">
      <!-- 0.0 -->
      <g transform="translate(358.28325 319.281625) scale(0.22 -0.22)">
       <use xlink:href="#TimesNewRomanPSMT-30"/>
       <use xlink:href="#TimesNewRomanPSMT-2e" transform="translate(50 0)"/>
       <use xlink:href="#TimesNewRomanPSMT-30" transform="translate(75 0)"/>
      </g>
     </g>
    </g>
    <g id="ytick_2">
     <g id="line2d_11">
      <path d="M 392.78325 285.0323 
L 749.90325 285.0323 
" clip-path="url(#pe8c94a0976)" style="fill: none; stroke: #b0b0b0; stroke-opacity: 0.3; stroke-width: 0.8; stroke-linecap: square"/>
     </g>
     <g id="line2d_12">
      <g>
       <use xlink:href="#ma51b42ed58" x="392.78325" y="285.0323" style="stroke: #000000; stroke-width: 0.8"/>
      </g>
     </g>
     <g id="text_7">
      <!-- 0.1 -->
      <g transform="translate(358.28325 292.670425) scale(0.22 -0.22)">
       <use xlink:href="#TimesNewRomanPSMT-30"/>
       <use xlink:href="#TimesNewRomanPSMT-2e" transform="translate(50 0)"/>
       <use xlink:href="#TimesNewRomanPSMT-31" transform="translate(75 0)"/>
      </g>
     </g>
    </g>
    <g id="ytick_3">
     <g id="line2d_13">
      <path d="M 392.78325 258.4211 
L 749.90325 258.4211 
" clip-path="url(#pe8c94a0976)" style="fill: none; stroke: #b0b0b0; stroke-opacity: 0.3; stroke-width: 0.8; stroke-linecap: square"/>
     </g>
     <g id="line2d_14">
      <g>
       <use xlink:href="#ma51b42ed58" x="392.78325" y="258.4211" style="stroke: #000000; stroke-width: 0.8"/>
      </g>
     </g>
     <g id="text_8">
      <!-- 0.2 -->
      <g transform="translate(358.28325 266.059225) scale(0.22 -0.22)">
       <defs>
        <path id="TimesNewRomanPSMT-32" d="M 2934 816 
L 2638 0 
L 138 0 
L 138 116 
Q 1241 1122 1691 1759 
Q 2141 2397 2141 2925 
Q 2141 3328 1894 3587 
Q 1647 3847 1303 3847 
Q 991 3847 742 3664 
Q 494 3481 375 3128 
L 259 3128 
Q 338 3706 661 4015 
Q 984 4325 1469 4325 
Q 1984 4325 2329 3994 
Q 2675 3663 2675 3213 
Q 2675 2891 2525 2569 
Q 2294 2063 1775 1497 
Q 997 647 803 472 
L 1909 472 
Q 2247 472 2383 497 
Q 2519 522 2628 598 
Q 2738 675 2819 816 
L 2934 816 
z
" transform="scale(0.015625)"/>
       </defs>
       <use xlink:href="#TimesNewRomanPSMT-30"/>
       <use xlink:href="#TimesNewRomanPSMT-2e" transform="translate(50 0)"/>
       <use xlink:href="#TimesNewRomanPSMT-32" transform="translate(75 0)"/>
      </g>
     </g>
    </g>
    <g id="ytick_4">
     <g id="line2d_15">
      <path d="M 392.78325 231.8099 
L 749.90325 231.8099 
" clip-path="url(#pe8c94a0976)" style="fill: none; stroke: #b0b0b0; stroke-opacity: 0.3; stroke-width: 0.8; stroke-linecap: square"/>
     </g>
     <g id="line2d_16">
      <g>
       <use xlink:href="#ma51b42ed58" x="392.78325" y="231.8099" style="stroke: #000000; stroke-width: 0.8"/>
      </g>
     </g>
     <g id="text_9">
      <!-- 0.3 -->
      <g transform="translate(358.28325 239.448025) scale(0.22 -0.22)">
       <defs>
        <path id="TimesNewRomanPSMT-33" d="M 325 3431 
Q 506 3859 782 4092 
Q 1059 4325 1472 4325 
Q 1981 4325 2253 3994 
Q 2459 3747 2459 3466 
Q 2459 3003 1878 2509 
Q 2269 2356 2469 2072 
Q 2669 1788 2669 1403 
Q 2669 853 2319 450 
Q 1863 -75 997 -75 
Q 569 -75 414 31 
Q 259 138 259 259 
Q 259 350 332 419 
Q 406 488 509 488 
Q 588 488 669 463 
Q 722 447 909 348 
Q 1097 250 1169 231 
Q 1284 197 1416 197 
Q 1734 197 1970 444 
Q 2206 691 2206 1028 
Q 2206 1275 2097 1509 
Q 2016 1684 1919 1775 
Q 1784 1900 1550 2001 
Q 1316 2103 1072 2103 
L 972 2103 
L 972 2197 
Q 1219 2228 1467 2375 
Q 1716 2522 1828 2728 
Q 1941 2934 1941 3181 
Q 1941 3503 1739 3701 
Q 1538 3900 1238 3900 
Q 753 3900 428 3381 
L 325 3431 
z
" transform="scale(0.015625)"/>
       </defs>
       <use xlink:href="#TimesNewRomanPSMT-30"/>
       <use xlink:href="#TimesNewRomanPSMT-2e" transform="translate(50 0)"/>
       <use xlink:href="#TimesNewRomanPSMT-33" transform="translate(75 0)"/>
      </g>
     </g>
    </g>
    <g id="ytick_5">
     <g id="line2d_17">
      <path d="M 392.78325 205.1987 
L 749.90325 205.1987 
" clip-path="url(#pe8c94a0976)" style="fill: none; stroke: #b0b0b0; stroke-opacity: 0.3; stroke-width: 0.8; stroke-linecap: square"/>
     </g>
     <g id="line2d_18">
      <g>
       <use xlink:href="#ma51b42ed58" x="392.78325" y="205.1987" style="stroke: #000000; stroke-width: 0.8"/>
      </g>
     </g>
     <g id="text_10">
      <!-- 0.4 -->
      <g transform="translate(358.28325 212.836825) scale(0.22 -0.22)">
       <defs>
        <path id="TimesNewRomanPSMT-34" d="M 2978 1563 
L 2978 1119 
L 2409 1119 
L 2409 0 
L 1894 0 
L 1894 1119 
L 100 1119 
L 100 1519 
L 2066 4325 
L 2409 4325 
L 2409 1563 
L 2978 1563 
z
M 1894 1563 
L 1894 3666 
L 406 1563 
L 1894 1563 
z
" transform="scale(0.015625)"/>
       </defs>
       <use xlink:href="#TimesNewRomanPSMT-30"/>
       <use xlink:href="#TimesNewRomanPSMT-2e" transform="translate(50 0)"/>
       <use xlink:href="#TimesNewRomanPSMT-34" transform="translate(75 0)"/>
      </g>
     </g>
    </g>
    <g id="ytick_6">
     <g id="line2d_19">
      <path d="M 392.78325 178.5875 
L 749.90325 178.5875 
" clip-path="url(#pe8c94a0976)" style="fill: none; stroke: #b0b0b0; stroke-opacity: 0.3; stroke-width: 0.8; stroke-linecap: square"/>
     </g>
     <g id="line2d_20">
      <g>
       <use xlink:href="#ma51b42ed58" x="392.78325" y="178.5875" style="stroke: #000000; stroke-width: 0.8"/>
      </g>
     </g>
     <g id="text_11">
      <!-- 0.5 -->
      <g transform="translate(358.28325 186.225625) scale(0.22 -0.22)">
       <use xlink:href="#TimesNewRomanPSMT-30"/>
       <use xlink:href="#TimesNewRomanPSMT-2e" transform="translate(50 0)"/>
       <use xlink:href="#TimesNewRomanPSMT-35" transform="translate(75 0)"/>
      </g>
     </g>
    </g>
    <g id="ytick_7">
     <g id="line2d_21">
      <path d="M 392.78325 151.9763 
L 749.90325 151.9763 
" clip-path="url(#pe8c94a0976)" style="fill: none; stroke: #b0b0b0; stroke-opacity: 0.3; stroke-width: 0.8; stroke-linecap: square"/>
     </g>
     <g id="line2d_22">
      <g>
       <use xlink:href="#ma51b42ed58" x="392.78325" y="151.9763" style="stroke: #000000; stroke-width: 0.8"/>
      </g>
     </g>
     <g id="text_12">
      <!-- 0.6 -->
      <g transform="translate(358.28325 159.614425) scale(0.22 -0.22)">
       <defs>
        <path id="TimesNewRomanPSMT-36" d="M 2869 4325 
L 2869 4209 
Q 2456 4169 2195 4045 
Q 1934 3922 1679 3669 
Q 1425 3416 1258 3105 
Q 1091 2794 978 2366 
Q 1428 2675 1881 2675 
Q 2316 2675 2634 2325 
Q 2953 1975 2953 1425 
Q 2953 894 2631 456 
Q 2244 -75 1606 -75 
Q 1172 -75 869 213 
Q 275 772 275 1663 
Q 275 2231 503 2743 
Q 731 3256 1154 3653 
Q 1578 4050 1965 4187 
Q 2353 4325 2688 4325 
L 2869 4325 
z
M 925 2138 
Q 869 1716 869 1456 
Q 869 1156 980 804 
Q 1091 453 1309 247 
Q 1469 100 1697 100 
Q 1969 100 2183 356 
Q 2397 613 2397 1088 
Q 2397 1622 2184 2012 
Q 1972 2403 1581 2403 
Q 1463 2403 1327 2353 
Q 1191 2303 925 2138 
z
" transform="scale(0.015625)"/>
       </defs>
       <use xlink:href="#TimesNewRomanPSMT-30"/>
       <use xlink:href="#TimesNewRomanPSMT-2e" transform="translate(50 0)"/>
       <use xlink:href="#TimesNewRomanPSMT-36" transform="translate(75 0)"/>
      </g>
     </g>
    </g>
    <g id="ytick_8">
     <g id="line2d_23">
      <path d="M 392.78325 125.3651 
L 749.90325 125.3651 
" clip-path="url(#pe8c94a0976)" style="fill: none; stroke: #b0b0b0; stroke-opacity: 0.3; stroke-width: 0.8; stroke-linecap: square"/>
     </g>
     <g id="line2d_24">
      <g>
       <use xlink:href="#ma51b42ed58" x="392.78325" y="125.3651" style="stroke: #000000; stroke-width: 0.8"/>
      </g>
     </g>
     <g id="text_13">
      <!-- 0.7 -->
      <g transform="translate(358.28325 133.003225) scale(0.22 -0.22)">
       <defs>
        <path id="TimesNewRomanPSMT-37" d="M 644 4238 
L 2916 4238 
L 2916 4119 
L 1503 -88 
L 1153 -88 
L 2419 3728 
L 1253 3728 
Q 900 3728 750 3644 
Q 488 3500 328 3200 
L 238 3234 
L 644 4238 
z
" transform="scale(0.015625)"/>
       </defs>
       <use xlink:href="#TimesNewRomanPSMT-30"/>
       <use xlink:href="#TimesNewRomanPSMT-2e" transform="translate(50 0)"/>
       <use xlink:href="#TimesNewRomanPSMT-37" transform="translate(75 0)"/>
      </g>
     </g>
    </g>
    <g id="ytick_9">
     <g id="line2d_25">
      <path d="M 392.78325 98.7539 
L 749.90325 98.7539 
" clip-path="url(#pe8c94a0976)" style="fill: none; stroke: #b0b0b0; stroke-opacity: 0.3; stroke-width: 0.8; stroke-linecap: square"/>
     </g>
     <g id="line2d_26">
      <g>
       <use xlink:href="#ma51b42ed58" x="392.78325" y="98.7539" style="stroke: #000000; stroke-width: 0.8"/>
      </g>
     </g>
     <g id="text_14">
      <!-- 0.8 -->
      <g transform="translate(358.28325 106.392025) scale(0.22 -0.22)">
       <defs>
        <path id="TimesNewRomanPSMT-38" d="M 1228 2134 
Q 725 2547 579 2797 
Q 434 3047 434 3316 
Q 434 3728 753 4026 
Q 1072 4325 1600 4325 
Q 2113 4325 2425 4047 
Q 2738 3769 2738 3413 
Q 2738 3175 2569 2928 
Q 2400 2681 1866 2347 
Q 2416 1922 2594 1678 
Q 2831 1359 2831 1006 
Q 2831 559 2490 242 
Q 2150 -75 1597 -75 
Q 994 -75 656 303 
Q 388 606 388 966 
Q 388 1247 577 1523 
Q 766 1800 1228 2134 
z
M 1719 2469 
Q 2094 2806 2194 3001 
Q 2294 3197 2294 3444 
Q 2294 3772 2109 3958 
Q 1925 4144 1606 4144 
Q 1288 4144 1088 3959 
Q 888 3775 888 3528 
Q 888 3366 970 3203 
Q 1053 3041 1206 2894 
L 1719 2469 
z
M 1375 2016 
Q 1116 1797 991 1539 
Q 866 1281 866 981 
Q 866 578 1086 336 
Q 1306 94 1647 94 
Q 1984 94 2187 284 
Q 2391 475 2391 747 
Q 2391 972 2272 1150 
Q 2050 1481 1375 2016 
z
" transform="scale(0.015625)"/>
       </defs>
       <use xlink:href="#TimesNewRomanPSMT-30"/>
       <use xlink:href="#TimesNewRomanPSMT-2e" transform="translate(50 0)"/>
       <use xlink:href="#TimesNewRomanPSMT-38" transform="translate(75 0)"/>
      </g>
     </g>
    </g>
    <g id="ytick_10">
     <g id="line2d_27">
      <path d="M 392.78325 72.1427 
L 749.90325 72.1427 
" clip-path="url(#pe8c94a0976)" style="fill: none; stroke: #b0b0b0; stroke-opacity: 0.3; stroke-width: 0.8; stroke-linecap: square"/>
     </g>
     <g id="line2d_28">
      <g>
       <use xlink:href="#ma51b42ed58" x="392.78325" y="72.1427" style="stroke: #000000; stroke-width: 0.8"/>
      </g>
     </g>
     <g id="text_15">
      <!-- 0.9 -->
      <g transform="translate(358.28325 79.780825) scale(0.22 -0.22)">
       <defs>
        <path id="TimesNewRomanPSMT-39" d="M 338 -88 
L 338 28 
Q 744 34 1094 217 
Q 1444 400 1770 856 
Q 2097 1313 2225 1859 
Q 1734 1544 1338 1544 
Q 891 1544 572 1889 
Q 253 2234 253 2806 
Q 253 3363 572 3797 
Q 956 4325 1575 4325 
Q 2097 4325 2469 3894 
Q 2925 3359 2925 2575 
Q 2925 1869 2578 1258 
Q 2231 647 1613 244 
Q 1109 -88 516 -88 
L 338 -88 
z
M 2275 2091 
Q 2331 2497 2331 2741 
Q 2331 3044 2228 3395 
Q 2125 3747 1936 3934 
Q 1747 4122 1506 4122 
Q 1228 4122 1018 3872 
Q 809 3622 809 3128 
Q 809 2469 1088 2097 
Q 1291 1828 1588 1828 
Q 1731 1828 1928 1897 
Q 2125 1966 2275 2091 
z
" transform="scale(0.015625)"/>
       </defs>
       <use xlink:href="#TimesNewRomanPSMT-30"/>
       <use xlink:href="#TimesNewRomanPSMT-2e" transform="translate(50 0)"/>
       <use xlink:href="#TimesNewRomanPSMT-39" transform="translate(75 0)"/>
      </g>
     </g>
    </g>
    <g id="ytick_11">
     <g id="line2d_29">
      <path d="M 392.78325 45.5315 
L 749.90325 45.5315 
" clip-path="url(#pe8c94a0976)" style="fill: none; stroke: #b0b0b0; stroke-opacity: 0.3; stroke-width: 0.8; stroke-linecap: square"/>
     </g>
     <g id="line2d_30">
      <g>
       <use xlink:href="#ma51b42ed58" x="392.78325" y="45.5315" style="stroke: #000000; stroke-width: 0.8"/>
      </g>
     </g>
     <g id="text_16">
      <!-- 1.0 -->
      <g transform="translate(358.28325 53.169625) scale(0.22 -0.22)">
       <use xlink:href="#TimesNewRomanPSMT-31"/>
       <use xlink:href="#TimesNewRomanPSMT-2e" transform="translate(50 0)"/>
       <use xlink:href="#TimesNewRomanPSMT-30" transform="translate(75 0)"/>
      </g>
     </g>
    </g>
    <g id="text_17">
     <!-- Accuracy -->
     <g transform="translate(349.536063 220.726094) rotate(-90) scale(0.22 -0.22)">
      <defs>
       <path id="TimesNewRomanPSMT-41" d="M 2928 1419 
L 1288 1419 
L 1000 750 
Q 894 503 894 381 
Q 894 284 986 211 
Q 1078 138 1384 116 
L 1384 0 
L 50 0 
L 50 116 
Q 316 163 394 238 
Q 553 388 747 847 
L 2238 4334 
L 2347 4334 
L 3822 809 
Q 4000 384 4145 257 
Q 4291 131 4550 116 
L 4550 0 
L 2878 0 
L 2878 116 
Q 3131 128 3220 200 
Q 3309 272 3309 375 
Q 3309 513 3184 809 
L 2928 1419 
z
M 2841 1650 
L 2122 3363 
L 1384 1650 
L 2841 1650 
z
" transform="scale(0.015625)"/>
       <path id="TimesNewRomanPSMT-63" d="M 2631 1088 
Q 2516 522 2178 217 
Q 1841 -88 1431 -88 
Q 944 -88 581 321 
Q 219 731 219 1428 
Q 219 2103 620 2525 
Q 1022 2947 1584 2947 
Q 2006 2947 2278 2723 
Q 2550 2500 2550 2259 
Q 2550 2141 2473 2067 
Q 2397 1994 2259 1994 
Q 2075 1994 1981 2113 
Q 1928 2178 1911 2362 
Q 1894 2547 1784 2644 
Q 1675 2738 1481 2738 
Q 1169 2738 978 2506 
Q 725 2200 725 1697 
Q 725 1184 976 792 
Q 1228 400 1656 400 
Q 1963 400 2206 609 
Q 2378 753 2541 1131 
L 2631 1088 
z
" transform="scale(0.015625)"/>
       <path id="TimesNewRomanPSMT-75" d="M 2709 2863 
L 2709 1128 
Q 2709 631 2732 520 
Q 2756 409 2807 365 
Q 2859 322 2928 322 
Q 3025 322 3147 375 
L 3191 266 
L 2334 -88 
L 2194 -88 
L 2194 519 
Q 1825 119 1631 15 
Q 1438 -88 1222 -88 
Q 981 -88 804 51 
Q 628 191 559 409 
Q 491 628 491 1028 
L 491 2306 
Q 491 2509 447 2587 
Q 403 2666 317 2708 
Q 231 2750 6 2747 
L 6 2863 
L 1009 2863 
L 1009 947 
Q 1009 547 1148 422 
Q 1288 297 1484 297 
Q 1619 297 1789 381 
Q 1959 466 2194 703 
L 2194 2325 
Q 2194 2569 2105 2655 
Q 2016 2741 1734 2747 
L 1734 2863 
L 2709 2863 
z
" transform="scale(0.015625)"/>
       <path id="TimesNewRomanPSMT-72" d="M 1038 2947 
L 1038 2303 
Q 1397 2947 1775 2947 
Q 1947 2947 2059 2842 
Q 2172 2738 2172 2600 
Q 2172 2478 2090 2393 
Q 2009 2309 1897 2309 
Q 1788 2309 1652 2417 
Q 1516 2525 1450 2525 
Q 1394 2525 1328 2463 
Q 1188 2334 1038 2041 
L 1038 669 
Q 1038 431 1097 309 
Q 1138 225 1241 169 
Q 1344 113 1538 113 
L 1538 0 
L 72 0 
L 72 113 
Q 291 113 397 181 
Q 475 231 506 341 
Q 522 394 522 644 
L 522 1753 
Q 522 2253 501 2348 
Q 481 2444 426 2487 
Q 372 2531 291 2531 
Q 194 2531 72 2484 
L 41 2597 
L 906 2947 
L 1038 2947 
z
" transform="scale(0.015625)"/>
       <path id="TimesNewRomanPSMT-61" d="M 1822 413 
Q 1381 72 1269 19 
Q 1100 -59 909 -59 
Q 613 -59 420 144 
Q 228 347 228 678 
Q 228 888 322 1041 
Q 450 1253 767 1440 
Q 1084 1628 1822 1897 
L 1822 2009 
Q 1822 2438 1686 2597 
Q 1550 2756 1291 2756 
Q 1094 2756 978 2650 
Q 859 2544 859 2406 
L 866 2225 
Q 866 2081 792 2003 
Q 719 1925 600 1925 
Q 484 1925 411 2006 
Q 338 2088 338 2228 
Q 338 2497 613 2722 
Q 888 2947 1384 2947 
Q 1766 2947 2009 2819 
Q 2194 2722 2281 2516 
Q 2338 2381 2338 1966 
L 2338 994 
Q 2338 584 2353 492 
Q 2369 400 2405 369 
Q 2441 338 2488 338 
Q 2538 338 2575 359 
Q 2641 400 2828 588 
L 2828 413 
Q 2478 -56 2159 -56 
Q 2006 -56 1915 50 
Q 1825 156 1822 413 
z
M 1822 616 
L 1822 1706 
Q 1350 1519 1213 1441 
Q 966 1303 859 1153 
Q 753 1003 753 825 
Q 753 600 887 451 
Q 1022 303 1197 303 
Q 1434 303 1822 616 
z
" transform="scale(0.015625)"/>
       <path id="TimesNewRomanPSMT-79" d="M 38 2863 
L 1372 2863 
L 1372 2747 
L 1306 2747 
Q 1166 2747 1095 2686 
Q 1025 2625 1025 2534 
Q 1025 2413 1128 2197 
L 1825 753 
L 2466 2334 
Q 2519 2463 2519 2588 
Q 2519 2644 2497 2672 
Q 2472 2706 2419 2726 
Q 2366 2747 2231 2747 
L 2231 2863 
L 3163 2863 
L 3163 2747 
Q 3047 2734 2984 2696 
Q 2922 2659 2847 2556 
Q 2819 2513 2741 2316 
L 1575 -541 
Q 1406 -956 1132 -1168 
Q 859 -1381 606 -1381 
Q 422 -1381 303 -1275 
Q 184 -1169 184 -1031 
Q 184 -900 270 -820 
Q 356 -741 506 -741 
Q 609 -741 788 -809 
Q 913 -856 944 -856 
Q 1038 -856 1148 -759 
Q 1259 -663 1372 -384 
L 1575 113 
L 547 2272 
Q 500 2369 397 2513 
Q 319 2622 269 2659 
Q 197 2709 38 2747 
L 38 2863 
z
" transform="scale(0.015625)"/>
      </defs>
      <use xlink:href="#TimesNewRomanPSMT-41"/>
      <use xlink:href="#TimesNewRomanPSMT-63" transform="translate(72.216797 0)"/>
      <use xlink:href="#TimesNewRomanPSMT-63" transform="translate(116.601562 0)"/>
      <use xlink:href="#TimesNewRomanPSMT-75" transform="translate(160.986328 0)"/>
      <use xlink:href="#TimesNewRomanPSMT-72" transform="translate(210.986328 0)"/>
      <use xlink:href="#TimesNewRomanPSMT-61" transform="translate(244.287109 0)"/>
      <use xlink:href="#TimesNewRomanPSMT-63" transform="translate(288.671875 0)"/>
      <use xlink:href="#TimesNewRomanPSMT-79" transform="translate(333.056641 0)"/>
     </g>
    </g>
   </g>
   <g id="line2d_31">
    <path d="M 392.78325 182.579176 
L 469.073679 134.279843 
L 489.645641 109.398367 
L 502.036127 106.338078 
L 517.874398 98.487772 
L 523.570647 96.891105 
L 528.400209 96.358888 
L 532.592321 94.629158 
L 536.295802 93.697755 
L 539.612764 93.697755 
L 542.616315 92.63332 
L 545.360602 91.036637 
L 547.88685 90.371358 
L 550.227169 89.972187 
L 552.407063 89.040799 
L 554.447121 88.77469 
L 556.364206 88.242457 
L 558.172306 88.109411 
L 559.883148 87.178023 
L 561.506663 86.778852 
L 563.051335 86.911899 
L 564.524468 85.980511 
L 565.932397 86.113573 
L 567.280649 85.847464 
L 568.574079 85.980511 
L 569.816971 85.847464 
L 573.278424 85.049123 
L 575.393088 84.250781 
L 576.399944 84.383843 
L 577.375909 83.984673 
L 578.322824 83.85161 
L 579.242367 83.984673 
L 581.005366 83.452456 
L 581.851532 82.920223 
L 584.262836 82.121897 
L 585.027632 82.121897 
L 586.504184 81.855772 
L 587.217532 81.456602 
L 587.915235 81.323555 
L 588.597964 81.323555 
L 589.26635 81.057447 
L 589.920982 81.323555 
L 591.807739 81.323555 
L 592.412586 80.658276 
L 593.006147 80.791322 
L 593.588837 81.057447 
L 594.161046 81.057447 
L 594.723146 80.658276 
L 595.275485 80.658276 
L 595.818399 80.392167 
L 596.352203 80.259105 
L 596.877198 79.593826 
L 597.39367 79.327717 
L 597.901892 79.460764 
L 603.861525 77.864096 
L 604.276857 77.597988 
L 604.686836 77.198817 
L 605.0916 77.065755 
L 605.491278 76.799646 
L 605.885997 76.932708 
L 606.661041 76.6666 
L 607.041596 76.932708 
L 607.417652 76.6666 
L 608.878941 76.6666 
L 609.234011 76.267429 
L 609.585162 76.400475 
L 610.615943 75.735196 
L 610.952246 75.735196 
L 611.285031 75.868258 
L 611.614372 76.134367 
L 611.940337 76.00132 
L 612.262997 76.00132 
L 612.582417 76.267429 
L 612.898662 76.134367 
L 613.211794 76.267429 
L 614.133113 75.868258 
L 614.732828 75.868258 
L 615.321448 75.60215 
L 615.611723 75.336025 
L 615.899374 75.336025 
L 616.184448 75.60215 
L 616.747044 75.60215 
L 617.024654 75.735196 
L 617.299863 75.60215 
L 618.111488 75.60215 
L 618.377493 75.735196 
L 618.641292 75.469087 
L 619.419813 75.469087 
L 619.675143 75.336025 
L 619.928441 75.069917 
L 620.179737 75.069917 
L 620.429064 74.93687 
L 620.921932 74.93687 
L 621.165532 75.069917 
L 621.647206 74.803808 
L 622.121696 75.202979 
L 622.820421 74.537699 
L 623.504128 74.537699 
L 623.728804 74.670746 
L 623.951905 74.670746 
L 624.173451 74.404637 
L 624.393466 74.404637 
L 624.611969 74.271591 
L 624.828982 73.87242 
L 625.044525 74.005466 
L 625.258617 73.87242 
L 625.471278 73.87242 
L 625.682527 74.005466 
L 626.100863 73.606311 
L 626.307986 73.739358 
L 626.921385 73.739358 
L 627.123251 73.473249 
L 627.323844 73.473249 
L 627.52318 73.606311 
L 627.721275 73.340187 
L 628.501547 73.340187 
L 628.884622 73.473249 
L 629.450722 73.207141 
L 629.637205 73.207141 
L 629.822602 73.473249 
L 630.733717 73.473249 
L 630.91285 73.340187 
L 631.09098 73.473249 
L 631.793692 72.941032 
L 631.966971 73.473249 
L 632.139312 72.674908 
L 632.310723 72.541861 
L 632.650801 73.074078 
L 632.819487 72.80797 
L 632.987282 72.80797 
L 633.154197 73.207141 
L 633.320242 73.207141 
L 633.485423 73.074078 
L 633.813236 73.207141 
L 634.298708 72.941032 
L 634.618289 73.074078 
L 635.09172 73.074078 
L 635.558209 72.80797 
L 635.865444 72.941032 
L 636.169741 72.941032 
L 636.471154 72.80797 
L 636.620797 72.80797 
L 636.769739 72.674908 
L 636.917987 72.80797 
L 637.504166 72.408799 
L 637.649039 72.674908 
L 637.793255 72.408799 
L 637.93682 72.541861 
L 638.222021 72.408799 
L 638.363669 72.541861 
L 638.645086 72.14269 
L 638.784866 72.408799 
L 639.062598 72.275737 
L 639.20056 72.275737 
L 639.474702 71.876582 
L 639.610892 72.14269 
L 639.881536 72.009628 
L 640.149896 72.009628 
L 640.283232 71.876582 
L 640.416012 72.009628 
L 640.811058 71.610457 
L 640.941658 71.876582 
L 641.201259 71.876582 
L 641.33027 71.477411 
L 641.458759 71.74352 
L 641.586732 71.74352 
L 641.841143 71.876582 
L 642.218986 71.610457 
L 642.343943 71.74352 
L 642.592394 71.610457 
L 642.715895 71.876582 
L 643.083549 71.610457 
L 643.326313 71.876582 
L 643.687019 71.610457 
L 643.806351 71.610457 
L 643.925238 71.876582 
L 644.161686 71.74352 
L 644.279255 71.876582 
L 644.513096 71.610457 
L 644.745231 71.876582 
L 644.860667 71.876582 
L 645.090288 71.74352 
L 645.318265 72.009628 
L 645.544619 71.74352 
L 645.657195 71.876582 
L 645.769374 71.74352 
L 645.881159 71.876582 
L 646.103558 71.74352 
L 646.214177 71.876582 
L 646.434267 71.610457 
L 646.543744 71.74352 
L 646.761575 71.610457 
L 646.869933 71.610457 
L 646.977923 71.876582 
L 647.192811 71.610457 
L 647.299713 71.74352 
L 647.406257 71.610457 
L 647.61828 71.74352 
L 647.8289 71.610457 
L 648.246001 71.610457 
L 648.452519 71.74352 
L 648.555278 71.74352 
L 648.657705 71.477411 
L 648.759804 71.610457 
L 648.861576 71.477411 
L 649.064149 71.74352 
L 649.164954 71.876582 
L 649.36561 71.74352 
L 649.465466 71.74352 
L 649.664242 71.876582 
L 649.861783 71.74352 
L 649.960096 72.009628 
L 650.155815 71.876582 
L 650.639908 71.876582 
L 650.831501 72.009628 
L 651.021948 72.009628 
L 651.211261 71.876582 
L 651.305496 71.876582 
L 651.399454 71.74352 
L 651.58654 71.876582 
L 651.772533 71.74352 
L 651.865123 71.74352 
L 652.141288 71.477411 
L 652.232813 71.74352 
L 652.324075 71.477411 
L 652.415076 71.610457 
L 652.686528 71.344349 
L 652.866218 71.344349 
L 652.955683 71.610457 
L 653.044898 71.477411 
L 653.222581 71.610457 
L 653.749751 71.610457 
L 653.92355 71.876582 
L 654.010095 71.477411 
L 654.182483 71.74352 
L 655.693322 71.74352 
L 655.856848 71.876582 
L 655.938297 71.876582 
L 656.100572 72.009628 
L 656.342443 72.009628 
L 656.42266 71.74352 
L 656.662104 72.009628 
L 656.820738 72.009628 
L 656.89976 71.876582 
L 657.057216 72.009628 
L 657.135653 72.009628 
L 657.291949 71.876582 
L 657.602256 71.876582 
L 657.679362 71.74352 
L 657.756281 71.876582 
L 657.909565 71.74352 
L 658.213935 71.74352 
L 658.365034 71.610457 
L 658.51542 71.610457 
L 658.665097 71.477411 
L 659.109952 71.477411 
L 659.183493 71.344349 
L 659.256865 71.477411 
L 659.330068 71.344349 
L 659.47597 71.477411 
L 659.621207 71.477411 
L 659.765783 71.344349 
L 660.689846 71.344349 
L 660.829657 71.211303 
L 660.899333 71.211303 
L 661.038229 71.344349 
L 661.655862 71.344349 
L 661.7915 71.211303 
L 662.128088 71.211303 
L 662.328345 70.945178 
L 663.24656 70.945178 
L 663.375597 71.07824 
L 663.504113 71.07824 
L 663.632111 71.211303 
L 663.823148 71.211303 
L 663.886573 71.344349 
L 663.949872 71.211303 
L 664.076093 71.344349 
L 665.911671 71.344349 
L 665.97107 71.477411 
L 666.030358 71.344349 
L 666.148604 71.344349 
L 666.325152 71.477411 
L 666.500726 71.344349 
L 666.675337 71.344349 
L 666.733328 71.477411 
L 666.791214 71.344349 
L 666.848994 71.344349 
L 666.964242 71.477411 
L 667.021709 71.344349 
L 667.079073 71.477411 
L 667.136334 71.477411 
L 667.3075 71.344349 
L 667.703342 71.344349 
L 667.75949 71.477411 
L 667.81554 71.344349 
L 667.871492 71.344349 
L 667.9831 71.477411 
L 668.094319 71.344349 
L 668.260421 71.477411 
L 668.370675 71.477411 
L 668.535344 71.610457 
L 668.644652 71.610457 
L 668.699165 71.477411 
L 668.753585 71.610457 
L 668.916289 71.610457 
L 669.024298 71.477411 
L 669.078165 71.610457 
L 669.131942 71.477411 
L 669.664762 71.477411 
L 669.717557 71.344349 
L 669.770264 71.477411 
L 670.084685 71.477411 
L 670.136788 71.344349 
L 670.188806 71.477411 
L 670.240738 71.477411 
L 670.292587 71.344349 
L 670.34435 71.477411 
L 670.39603 71.477411 
L 670.499138 71.344349 
L 670.550567 71.477411 
L 670.601913 71.344349 
L 670.653176 71.344349 
L 670.704357 71.211303 
L 670.755456 71.344349 
L 670.908261 71.477411 
L 671.009725 71.477411 
L 671.060336 71.344349 
L 671.110866 71.477411 
L 671.161316 71.477411 
L 671.261978 71.211303 
L 671.312189 71.477411 
L 671.362321 71.344349 
L 671.512246 71.211303 
L 671.760561 71.610457 
L 671.859347 71.344349 
L 672.006953 71.610457 
L 672.153878 71.477411 
L 672.202702 71.477411 
L 672.348727 71.610457 
L 672.397254 71.477411 
L 672.445706 71.610457 
L 672.494085 71.610457 
L 672.590623 71.477411 
L 672.734882 71.610457 
L 672.973871 71.610457 
L 673.021454 71.74352 
L 673.068966 71.610457 
L 673.258307 71.610457 
L 673.352557 71.74352 
L 673.49341 71.610457 
L 673.540223 71.74352 
L 673.586967 71.610457 
L 673.633642 71.610457 
L 673.726788 71.74352 
L 673.819662 71.610457 
L 673.912266 71.74352 
L 674.004601 71.610457 
L 674.050668 71.74352 
L 674.096668 71.610457 
L 674.18847 71.610457 
L 674.280008 71.74352 
L 674.416823 71.610457 
L 674.462298 71.610457 
L 674.507707 71.74352 
L 674.553052 71.610457 
L 674.598332 71.610457 
L 674.643548 71.74352 
L 674.6887 71.610457 
L 675.358399 71.610457 
L 675.402548 71.74352 
L 675.446636 71.610457 
L 675.970982 71.610457 
L 676.057539 71.74352 
L 676.143861 71.610457 
L 676.22995 71.74352 
L 676.272907 71.610457 
L 676.315806 71.74352 
L 676.401431 71.74352 
L 676.444157 71.876582 
L 676.486826 71.74352 
L 676.826133 71.74352 
L 676.910397 71.876582 
L 676.952446 71.610457 
L 676.994439 71.876582 
L 677.120087 71.876582 
L 677.203577 71.610457 
L 677.24524 71.74352 
L 677.286849 71.74352 
L 677.328403 71.610457 
L 677.369903 71.74352 
L 677.49408 71.876582 
L 677.617774 71.74352 
L 677.69997 71.876582 
L 677.822867 71.74352 
L 677.904536 71.74352 
L 677.945291 71.876582 
L 677.985995 71.74352 
L 678.067246 71.74352 
L 678.107794 71.876582 
L 678.148291 71.74352 
L 678.188736 71.74352 
L 678.229129 71.876582 
L 678.269472 71.74352 
L 678.309763 71.74352 
L 678.430331 71.876582 
L 678.550445 71.74352 
L 678.670106 72.009628 
L 678.709894 72.009628 
L 678.789319 71.876582 
L 678.868547 72.009628 
L 678.908087 71.876582 
L 678.947578 72.009628 
L 679.026414 72.009628 
L 679.105054 71.876582 
L 679.183501 72.009628 
L 679.222652 71.876582 
L 679.261754 72.009628 
L 680.072001 72.009628 
L 680.337562 72.541861 
L 680.563434 72.14269 
L 680.750443 72.14269 
L 680.899264 72.009628 
L 681.084315 72.009628 
L 681.231585 72.14269 
L 681.45122 72.14269 
L 681.633098 72.408799 
L 681.669349 72.408799 
L 681.777855 72.275737 
L 681.921957 72.408799 
L 682.065409 72.275737 
L 682.562456 72.275737 
L 682.597665 72.408799 
L 682.667964 72.275737 
L 682.703055 72.275737 
L 682.843036 72.408799 
L 683.328173 72.408799 
L 683.465435 72.541861 
L 683.839882 72.541861 
L 683.974959 72.408799 
L 684.008639 72.408799 
L 684.143003 72.541861 
L 684.209972 72.541861 
L 684.243404 72.674908 
L 684.310163 72.541861 
L 685.93517 72.541861 
L 685.966839 72.674908 
L 686.030081 72.541861 
L 686.2818 72.541861 
L 686.313125 72.674908 
L 686.375683 72.541861 
L 686.406917 72.541861 
L 686.500432 72.674908 
L 686.562623 72.541861 
L 686.593674 72.674908 
L 686.655683 72.674908 
L 686.779341 72.541861 
L 686.84099 72.674908 
L 686.93324 72.408799 
L 687.055825 72.674908 
L 687.147456 72.541861 
L 687.208396 72.674908 
L 687.238823 72.541861 
L 687.26922 72.408799 
L 687.299588 72.541861 
L 687.329928 72.674908 
L 687.39052 72.541861 
L 687.420773 72.541861 
L 687.541498 72.408799 
L 687.571608 72.408799 
L 687.661766 72.275737 
L 687.691763 72.408799 
L 687.75167 72.275737 
L 687.93072 72.275737 
L 688.049528 72.14269 
L 688.079161 72.14269 
L 688.197418 72.275737 
L 688.315237 72.14269 
L 691.18102 72.14269 
L 691.207876 72.009628 
L 691.288309 72.14269 
L 691.36854 72.14269 
L 691.501809 72.009628 
L 691.634522 72.14269 
L 691.713885 72.009628 
L 691.687453 72.275737 
L 691.740296 72.14269 
L 691.793051 72.14269 
L 691.819396 72.009628 
L 691.845719 72.275737 
L 691.87202 72.275737 
L 691.898299 72.275737 
L 692.003201 72.408799 
L 692.055522 72.14269 
L 692.107758 72.408799 
L 692.263951 72.408799 
L 692.393529 72.275737 
L 692.522582 72.408799 
L 692.651113 72.275737 
L 692.753565 72.275737 
L 692.855689 72.408799 
L 692.982884 72.275737 
L 693.661085 72.275737 
L 693.685928 72.14269 
L 693.760341 72.275737 
L 693.785106 72.408799 
L 693.809853 72.14269 
L 693.83458 72.14269 
L 693.859288 72.14269 
L 693.883977 72.275737 
L 693.957928 72.14269 
L 694.007134 72.14269 
L 694.056264 72.275737 
L 694.105318 72.14269 
L 694.129817 72.14269 
L 694.252028 72.275737 
L 694.373771 72.14269 
L 694.495051 72.275737 
L 694.567597 72.14269 
L 694.591742 72.275737 
L 695.213175 72.275737 
L 695.331303 72.408799 
L 695.354875 72.408799 
L 695.378431 72.541861 
L 695.42549 72.408799 
L 695.448993 72.14269 
L 695.495947 87.31107 
L 695.519398 71.477411 
L 695.542832 72.80797 
L 695.589649 71.74352 
L 695.636396 73.207141 
L 695.776228 72.275737 
L 695.822702 72.275737 
L 695.845914 72.408799 
L 695.892286 72.14269 
L 695.938592 72.14269 
L 696.123141 71.610457 
L 696.146135 71.876582 
L 696.237944 71.74352 
L 696.42077 72.275737 
L 696.466313 72.14269 
L 696.48906 72.275737 
L 696.579886 72.408799 
L 696.693054 72.275737 
L 697.097161 72.275737 
L 697.23073 72.408799 
L 697.496198 72.408799 
L 697.628106 72.275737 
L 697.671955 72.275737 
L 697.803137 72.408799 
L 699.461044 72.408799 
L 699.585067 72.541861 
L 699.974647 72.541861 
L 700.096688 72.674908 
L 700.278876 72.674908 
L 700.399757 72.80797 
L 702.725668 72.80797 
L 702.856236 72.941032 
L 703.373218 72.941032 
L 703.501161 72.80797 
L 704.151149 72.80797 
L 704.293804 73.074078 
L 704.893055 73.074078 
L 705.015041 72.941032 
L 706.460143 72.941032 
L 706.576277 72.80797 
L 707.16693 72.80797 
L 707.280517 72.674908 
L 708.096058 72.674908 
L 708.22211 72.541861 
L 710.803526 72.541861 
L 710.919314 72.408799 
L 711.788602 72.408799 
L 711.900865 72.275737 
L 712.988699 72.275737 
L 713.110302 72.14269 
L 714.93166 72.14269 
L 715.046071 72.275737 
L 715.411956 72.275737 
L 715.524656 72.14269 
L 716.810813 72.14269 
L 716.930636 72.009628 
L 717.476079 72.009628 
L 717.593426 72.14269 
L 718.265634 72.14269 
L 718.30002 72.275737 
L 718.368681 72.14269 
L 720.693591 72.14269 
L 720.704215 72.275737 
L 720.79967 72.14269 
L 720.810258 72.14269 
L 720.926499 72.275737 
L 721.17865 72.275737 
L 721.293555 72.408799 
L 721.861935 72.408799 
L 721.974403 72.275737 
L 722.086474 72.275737 
L 722.167733 72.408799 
L 722.188016 72.275737 
L 722.670954 72.275737 
L 722.720841 72.14269 
L 722.780603 72.275737 
L 723.176169 72.275737 
L 723.293886 72.408799 
L 724.201236 72.408799 
L 724.315227 72.275737 
L 724.362603 73.340187 
L 724.37207 79.194655 
L 724.438258 72.408799 
L 724.466583 72.674908 
L 724.494882 72.674908 
L 724.626613 72.275737 
L 724.645387 72.275737 
L 724.767151 72.541861 
L 724.785842 72.541861 
L 724.88845 72.275737 
L 724.897762 72.408799 
L 724.907071 72.408799 
L 724.981444 72.541861 
L 725.009289 72.408799 
L 725.037109 72.408799 
L 725.157386 72.541861 
L 725.194303 72.541861 
L 725.313987 72.674908 
L 725.797325 72.674908 
L 725.914767 72.80797 
L 726.24667 72.80797 
L 726.362467 72.674908 
L 726.442388 72.674908 
L 726.557477 72.541861 
L 726.847769 72.541861 
L 726.961402 72.408799 
L 727.351646 72.408799 
L 727.463497 72.541861 
L 727.668965 72.541861 
L 727.788211 72.674908 
L 728.193694 72.674908 
L 728.310993 72.80797 
L 728.718167 72.80797 
L 728.833552 72.941032 
L 729.901371 72.941032 
L 730.020477 72.80797 
L 730.367304 72.80797 
L 730.484681 72.674908 
L 731.019109 72.674908 
L 731.134111 72.80797 
L 731.324861 72.80797 
L 731.438764 72.674908 
L 731.49178 72.674908 
L 731.605089 72.80797 
L 732.716516 72.80797 
L 732.832809 72.674908 
L 732.955905 72.674908 
L 733.071328 72.80797 
L 733.078528 72.80797 
L 733.193507 72.674908 
L 733.386597 72.674908 
L 733.50047 72.541861 
L 733.543067 72.541861 
L 733.656383 72.408799 
L 733.825603 72.408799 
L 733.944925 72.674908 
L 733.993927 72.674908 
L 734.105651 72.541861 
L 734.161366 72.541861 
L 734.279438 72.408799 
L 737.071812 72.408799 
L 737.185906 72.541861 
L 738.849971 72.541861 
L 738.963858 72.408799 
L 739.42127 72.408799 
L 739.533134 72.275737 
L 740.316826 72.275737 
L 740.334024 72.941032 
L 740.339754 83.452456 
L 740.345484 72.14269 
L 740.442729 72.541861 
L 740.516893 72.541861 
L 740.642008 72.14269 
L 740.653358 72.14269 
L 740.721372 72.408799 
L 740.760979 72.14269 
L 740.806185 72.14269 
L 740.851326 72.009628 
L 740.88514 72.275737 
L 740.907663 72.275737 
L 740.952661 72.275737 
L 741.064878 72.14269 
L 741.249174 72.14269 
L 741.315927 72.009628 
L 741.360352 72.14269 
L 741.404714 72.14269 
L 741.51535 72.009628 
L 741.636608 72.275737 
L 741.937744 72.275737 
L 741.959534 72.14269 
L 742.046545 72.275737 
L 742.230657 72.275737 
L 742.349223 72.541861 
L 742.579698 72.541861 
L 742.691652 72.408799 
L 742.87737 72.408799 
L 742.993555 72.541861 
L 743.025168 72.541861 
L 743.140815 72.408799 
L 743.146062 72.408799 
L 743.261271 72.541861 
L 743.417705 72.541861 
L 743.531937 72.674908 
L 743.774612 72.674908 
L 743.887571 72.541861 
L 744.208845 72.541861 
L 744.320275 72.408799 
L 745.301067 72.408799 
L 745.310871 72.275737 
L 745.408744 72.408799 
L 745.428282 72.408799 
L 745.540396 72.541861 
L 746.099896 72.541861 
L 746.214436 72.674908 
L 746.480103 72.674908 
L 746.593285 72.541861 
L 747.231767 72.541861 
L 747.346909 72.408799 
L 748.087584 72.408799 
L 748.199674 72.541861 
L 748.462653 72.541861 
L 748.577855 72.408799 
L 749.826796 72.408799 
L 749.90325 72.541861 
L 749.90325 72.541861 
" clip-path="url(#pe8c94a0976)" style="fill: none; stroke: #1f77b4; stroke-width: 1.5; stroke-linecap: square"/>
   </g>
   <g id="patch_3">
    <path d="M 392.78325 311.6435 
L 392.78325 45.5315 
" style="fill: none; stroke: #000000; stroke-width: 0.8; stroke-linejoin: miter; stroke-linecap: square"/>
   </g>
   <g id="patch_4">
    <path d="M 749.90325 311.6435 
L 749.90325 45.5315 
" style="fill: none; stroke: #000000; stroke-width: 0.8; stroke-linejoin: miter; stroke-linecap: square"/>
   </g>
   <g id="patch_5">
    <path d="M 392.78325 311.6435 
L 749.90325 311.6435 
" style="fill: none; stroke: #000000; stroke-width: 0.8; stroke-linejoin: miter; stroke-linecap: square"/>
   </g>
   <g id="patch_6">
    <path d="M 392.78325 45.5315 
L 749.90325 45.5315 
" style="fill: none; stroke: #000000; stroke-width: 0.8; stroke-linejoin: miter; stroke-linecap: square"/>
   </g>
   <g id="text_18">
    <!-- Accuracy of the 09_07_25_CIFAR10_torch_model_(1024+2048-2048.1-1)_car-plane on the validation set -->
    <g transform="translate(7.2 25.5315) scale(0.264 -0.264)">
     <defs>
      <path id="TimesNewRomanPSMT-20" transform="scale(0.015625)"/>
      <path id="TimesNewRomanPSMT-6f" d="M 1600 2947 
Q 2250 2947 2644 2453 
Q 2978 2031 2978 1484 
Q 2978 1100 2793 706 
Q 2609 313 2286 112 
Q 1963 -88 1566 -88 
Q 919 -88 538 428 
Q 216 863 216 1403 
Q 216 1797 411 2186 
Q 606 2575 925 2761 
Q 1244 2947 1600 2947 
z
M 1503 2744 
Q 1338 2744 1170 2645 
Q 1003 2547 900 2300 
Q 797 2053 797 1666 
Q 797 1041 1045 587 
Q 1294 134 1700 134 
Q 2003 134 2200 384 
Q 2397 634 2397 1244 
Q 2397 2006 2069 2444 
Q 1847 2744 1503 2744 
z
" transform="scale(0.015625)"/>
      <path id="TimesNewRomanPSMT-66" d="M 1319 2638 
L 1319 756 
Q 1319 356 1406 250 
Q 1522 113 1716 113 
L 1975 113 
L 1975 0 
L 266 0 
L 266 113 
L 394 113 
Q 519 113 622 175 
Q 725 238 764 344 
Q 803 450 803 756 
L 803 2638 
L 247 2638 
L 247 2863 
L 803 2863 
L 803 3050 
Q 803 3478 940 3775 
Q 1078 4072 1361 4255 
Q 1644 4438 1997 4438 
Q 2325 4438 2600 4225 
Q 2781 4084 2781 3909 
Q 2781 3816 2700 3733 
Q 2619 3650 2525 3650 
Q 2453 3650 2373 3701 
Q 2294 3753 2178 3923 
Q 2063 4094 1966 4153 
Q 1869 4213 1750 4213 
Q 1606 4213 1506 4136 
Q 1406 4059 1362 3898 
Q 1319 3738 1319 3069 
L 1319 2863 
L 2056 2863 
L 2056 2638 
L 1319 2638 
z
" transform="scale(0.015625)"/>
      <path id="TimesNewRomanPSMT-74" d="M 1031 3803 
L 1031 2863 
L 1700 2863 
L 1700 2644 
L 1031 2644 
L 1031 788 
Q 1031 509 1111 412 
Q 1191 316 1316 316 
Q 1419 316 1516 380 
Q 1613 444 1666 569 
L 1788 569 
Q 1678 263 1478 108 
Q 1278 -47 1066 -47 
Q 922 -47 784 33 
Q 647 113 581 261 
Q 516 409 516 719 
L 516 2644 
L 63 2644 
L 63 2747 
Q 234 2816 414 2980 
Q 594 3144 734 3369 
Q 806 3488 934 3803 
L 1031 3803 
z
" transform="scale(0.015625)"/>
      <path id="TimesNewRomanPSMT-68" d="M 1041 4444 
L 1041 2350 
Q 1388 2731 1591 2839 
Q 1794 2947 1997 2947 
Q 2241 2947 2416 2812 
Q 2591 2678 2675 2391 
Q 2734 2191 2734 1659 
L 2734 647 
Q 2734 375 2778 275 
Q 2809 200 2884 156 
Q 2959 113 3159 113 
L 3159 0 
L 1753 0 
L 1753 113 
L 1819 113 
Q 2019 113 2097 173 
Q 2175 234 2206 353 
Q 2216 403 2216 647 
L 2216 1659 
Q 2216 2128 2167 2275 
Q 2119 2422 2012 2495 
Q 1906 2569 1756 2569 
Q 1603 2569 1437 2487 
Q 1272 2406 1041 2159 
L 1041 647 
Q 1041 353 1073 281 
Q 1106 209 1195 161 
Q 1284 113 1503 113 
L 1503 0 
L 84 0 
L 84 113 
Q 275 113 384 172 
Q 447 203 484 290 
Q 522 378 522 647 
L 522 3238 
Q 522 3728 498 3840 
Q 475 3953 426 3993 
Q 378 4034 297 4034 
Q 231 4034 84 3984 
L 41 4094 
L 897 4444 
L 1041 4444 
z
" transform="scale(0.015625)"/>
      <path id="TimesNewRomanPSMT-65" d="M 681 1784 
Q 678 1147 991 784 
Q 1303 422 1725 422 
Q 2006 422 2214 576 
Q 2422 731 2563 1106 
L 2659 1044 
Q 2594 616 2278 264 
Q 1963 -88 1488 -88 
Q 972 -88 605 314 
Q 238 716 238 1394 
Q 238 2128 614 2539 
Q 991 2950 1559 2950 
Q 2041 2950 2350 2633 
Q 2659 2316 2659 1784 
L 681 1784 
z
M 681 1966 
L 2006 1966 
Q 1991 2241 1941 2353 
Q 1863 2528 1708 2628 
Q 1553 2728 1384 2728 
Q 1125 2728 920 2526 
Q 716 2325 681 1966 
z
" transform="scale(0.015625)"/>
      <path id="TimesNewRomanPSMT-5f" d="M 3256 -1381 
L -53 -1381 
L -53 -1119 
L 3256 -1119 
L 3256 -1381 
z
" transform="scale(0.015625)"/>
      <path id="TimesNewRomanPSMT-43" d="M 3853 4334 
L 3950 2894 
L 3853 2894 
Q 3659 3541 3300 3825 
Q 2941 4109 2438 4109 
Q 2016 4109 1675 3895 
Q 1334 3681 1139 3212 
Q 944 2744 944 2047 
Q 944 1472 1128 1050 
Q 1313 628 1683 403 
Q 2053 178 2528 178 
Q 2941 178 3256 354 
Q 3572 531 3950 1056 
L 4047 994 
Q 3728 428 3303 165 
Q 2878 -97 2294 -97 
Q 1241 -97 663 684 
Q 231 1266 231 2053 
Q 231 2688 515 3219 
Q 800 3750 1298 4042 
Q 1797 4334 2388 4334 
Q 2847 4334 3294 4109 
Q 3425 4041 3481 4041 
Q 3566 4041 3628 4100 
Q 3709 4184 3744 4334 
L 3853 4334 
z
" transform="scale(0.015625)"/>
      <path id="TimesNewRomanPSMT-49" d="M 1975 116 
L 1975 0 
L 159 0 
L 159 116 
L 309 116 
Q 572 116 691 269 
Q 766 369 766 750 
L 766 3488 
Q 766 3809 725 3913 
Q 694 3991 597 4047 
Q 459 4122 309 4122 
L 159 4122 
L 159 4238 
L 1975 4238 
L 1975 4122 
L 1822 4122 
Q 1563 4122 1444 3969 
Q 1366 3869 1366 3488 
L 1366 750 
Q 1366 428 1406 325 
Q 1438 247 1538 191 
Q 1672 116 1822 116 
L 1975 116 
z
" transform="scale(0.015625)"/>
      <path id="TimesNewRomanPSMT-46" d="M 1309 4006 
L 1309 2341 
L 2081 2341 
Q 2347 2341 2470 2458 
Q 2594 2575 2634 2922 
L 2750 2922 
L 2750 1488 
L 2634 1488 
Q 2631 1734 2570 1850 
Q 2509 1966 2401 2023 
Q 2294 2081 2081 2081 
L 1309 2081 
L 1309 750 
Q 1309 428 1350 325 
Q 1381 247 1481 191 
Q 1619 116 1769 116 
L 1922 116 
L 1922 0 
L 103 0 
L 103 116 
L 253 116 
Q 516 116 634 269 
Q 709 369 709 750 
L 709 3488 
Q 709 3809 669 3913 
Q 638 3991 541 4047 
Q 406 4122 253 4122 
L 103 4122 
L 103 4238 
L 3256 4238 
L 3297 3306 
L 3188 3306 
Q 3106 3603 2998 3742 
Q 2891 3881 2733 3943 
Q 2575 4006 2244 4006 
L 1309 4006 
z
" transform="scale(0.015625)"/>
      <path id="TimesNewRomanPSMT-52" d="M 4325 0 
L 3194 0 
L 1759 1981 
Q 1600 1975 1500 1975 
Q 1459 1975 1412 1976 
Q 1366 1978 1316 1981 
L 1316 750 
Q 1316 350 1403 253 
Q 1522 116 1759 116 
L 1925 116 
L 1925 0 
L 109 0 
L 109 116 
L 269 116 
Q 538 116 653 291 
Q 719 388 719 750 
L 719 3488 
Q 719 3888 631 3984 
Q 509 4122 269 4122 
L 109 4122 
L 109 4238 
L 1653 4238 
Q 2328 4238 2648 4139 
Q 2969 4041 3192 3777 
Q 3416 3513 3416 3147 
Q 3416 2756 3161 2468 
Q 2906 2181 2372 2063 
L 3247 847 
Q 3547 428 3762 290 
Q 3978 153 4325 116 
L 4325 0 
z
M 1316 2178 
Q 1375 2178 1419 2176 
Q 1463 2175 1491 2175 
Q 2097 2175 2405 2437 
Q 2713 2700 2713 3106 
Q 2713 3503 2464 3751 
Q 2216 4000 1806 4000 
Q 1625 4000 1316 3941 
L 1316 2178 
z
" transform="scale(0.015625)"/>
      <path id="TimesNewRomanPSMT-6d" d="M 1050 2338 
Q 1363 2650 1419 2697 
Q 1559 2816 1721 2881 
Q 1884 2947 2044 2947 
Q 2313 2947 2506 2790 
Q 2700 2634 2766 2338 
Q 3088 2713 3309 2830 
Q 3531 2947 3766 2947 
Q 3994 2947 4170 2830 
Q 4347 2713 4450 2447 
Q 4519 2266 4519 1878 
L 4519 647 
Q 4519 378 4559 278 
Q 4591 209 4675 161 
Q 4759 113 4950 113 
L 4950 0 
L 3538 0 
L 3538 113 
L 3597 113 
Q 3781 113 3884 184 
Q 3956 234 3988 344 
Q 4000 397 4000 647 
L 4000 1878 
Q 4000 2228 3916 2372 
Q 3794 2572 3525 2572 
Q 3359 2572 3192 2489 
Q 3025 2406 2788 2181 
L 2781 2147 
L 2788 2013 
L 2788 647 
Q 2788 353 2820 281 
Q 2853 209 2943 161 
Q 3034 113 3253 113 
L 3253 0 
L 1806 0 
L 1806 113 
Q 2044 113 2133 169 
Q 2222 225 2256 338 
Q 2272 391 2272 647 
L 2272 1878 
Q 2272 2228 2169 2381 
Q 2031 2581 1784 2581 
Q 1616 2581 1450 2491 
Q 1191 2353 1050 2181 
L 1050 647 
Q 1050 366 1089 281 
Q 1128 197 1204 155 
Q 1281 113 1516 113 
L 1516 0 
L 100 0 
L 100 113 
Q 297 113 375 155 
Q 453 197 493 289 
Q 534 381 534 647 
L 534 1741 
Q 534 2213 506 2350 
Q 484 2453 437 2492 
Q 391 2531 309 2531 
Q 222 2531 100 2484 
L 53 2597 
L 916 2947 
L 1050 2947 
L 1050 2338 
z
" transform="scale(0.015625)"/>
      <path id="TimesNewRomanPSMT-64" d="M 2222 322 
Q 2013 103 1813 7 
Q 1613 -88 1381 -88 
Q 913 -88 563 304 
Q 213 697 213 1313 
Q 213 1928 600 2439 
Q 988 2950 1597 2950 
Q 1975 2950 2222 2709 
L 2222 3238 
Q 2222 3728 2198 3840 
Q 2175 3953 2125 3993 
Q 2075 4034 2000 4034 
Q 1919 4034 1784 3984 
L 1744 4094 
L 2597 4444 
L 2738 4444 
L 2738 1134 
Q 2738 631 2761 520 
Q 2784 409 2836 365 
Q 2888 322 2956 322 
Q 3041 322 3181 375 
L 3216 266 
L 2366 -88 
L 2222 -88 
L 2222 322 
z
M 2222 541 
L 2222 2016 
Q 2203 2228 2109 2403 
Q 2016 2578 1861 2667 
Q 1706 2756 1559 2756 
Q 1284 2756 1069 2509 
Q 784 2184 784 1559 
Q 784 928 1059 592 
Q 1334 256 1672 256 
Q 1956 256 2222 541 
z
" transform="scale(0.015625)"/>
      <path id="TimesNewRomanPSMT-6c" d="M 1184 4444 
L 1184 647 
Q 1184 378 1223 290 
Q 1263 203 1344 158 
Q 1425 113 1647 113 
L 1647 0 
L 244 0 
L 244 113 
Q 441 113 512 153 
Q 584 194 625 287 
Q 666 381 666 647 
L 666 3247 
Q 666 3731 644 3842 
Q 622 3953 573 3993 
Q 525 4034 450 4034 
Q 369 4034 244 3984 
L 191 4094 
L 1044 4444 
L 1184 4444 
z
" transform="scale(0.015625)"/>
      <path id="TimesNewRomanPSMT-28" d="M 1988 -1253 
L 1988 -1369 
Q 1516 -1131 1200 -813 
Q 750 -359 506 256 
Q 263 872 263 1534 
Q 263 2503 741 3301 
Q 1219 4100 1988 4444 
L 1988 4313 
Q 1603 4100 1356 3731 
Q 1109 3363 987 2797 
Q 866 2231 866 1616 
Q 866 947 969 400 
Q 1050 -31 1165 -292 
Q 1281 -553 1476 -793 
Q 1672 -1034 1988 -1253 
z
" transform="scale(0.015625)"/>
      <path id="TimesNewRomanPSMT-2b" d="M 1672 441 
L 1672 2000 
L 116 2000 
L 116 2256 
L 1672 2256 
L 1672 3809 
L 1922 3809 
L 1922 2256 
L 3484 2256 
L 3484 2000 
L 1922 2000 
L 1922 441 
L 1672 441 
z
" transform="scale(0.015625)"/>
      <path id="TimesNewRomanPSMT-2d" d="M 259 1672 
L 1875 1672 
L 1875 1200 
L 259 1200 
L 259 1672 
z
" transform="scale(0.015625)"/>
      <path id="TimesNewRomanPSMT-29" d="M 144 4313 
L 144 4444 
Q 619 4209 934 3891 
Q 1381 3434 1625 2820 
Q 1869 2206 1869 1541 
Q 1869 572 1392 -226 
Q 916 -1025 144 -1369 
L 144 -1253 
Q 528 -1038 776 -670 
Q 1025 -303 1145 264 
Q 1266 831 1266 1447 
Q 1266 2113 1163 2663 
Q 1084 3094 967 3353 
Q 850 3613 656 3853 
Q 463 4094 144 4313 
z
" transform="scale(0.015625)"/>
      <path id="TimesNewRomanPSMT-70" d="M -6 2578 
L 875 2934 
L 994 2934 
L 994 2266 
Q 1216 2644 1439 2795 
Q 1663 2947 1909 2947 
Q 2341 2947 2628 2609 
Q 2981 2197 2981 1534 
Q 2981 794 2556 309 
Q 2206 -88 1675 -88 
Q 1444 -88 1275 -22 
Q 1150 25 994 166 
L 994 -706 
Q 994 -1000 1030 -1079 
Q 1066 -1159 1155 -1206 
Q 1244 -1253 1478 -1253 
L 1478 -1369 
L -22 -1369 
L -22 -1253 
L 56 -1253 
Q 228 -1256 350 -1188 
Q 409 -1153 442 -1076 
Q 475 -1000 475 -688 
L 475 2019 
Q 475 2297 450 2372 
Q 425 2447 370 2484 
Q 316 2522 222 2522 
Q 147 2522 31 2478 
L -6 2578 
z
M 994 2081 
L 994 1013 
Q 994 666 1022 556 
Q 1066 375 1236 237 
Q 1406 100 1666 100 
Q 1978 100 2172 344 
Q 2425 663 2425 1241 
Q 2425 1897 2138 2250 
Q 1938 2494 1663 2494 
Q 1513 2494 1366 2419 
Q 1253 2363 994 2081 
z
" transform="scale(0.015625)"/>
      <path id="TimesNewRomanPSMT-6e" d="M 1034 2341 
Q 1538 2947 1994 2947 
Q 2228 2947 2397 2830 
Q 2566 2713 2666 2444 
Q 2734 2256 2734 1869 
L 2734 647 
Q 2734 375 2778 278 
Q 2813 200 2889 156 
Q 2966 113 3172 113 
L 3172 0 
L 1756 0 
L 1756 113 
L 1816 113 
Q 2016 113 2095 173 
Q 2175 234 2206 353 
Q 2219 400 2219 647 
L 2219 1819 
Q 2219 2209 2117 2386 
Q 2016 2563 1775 2563 
Q 1403 2563 1034 2156 
L 1034 647 
Q 1034 356 1069 288 
Q 1113 197 1189 155 
Q 1266 113 1500 113 
L 1500 0 
L 84 0 
L 84 113 
L 147 113 
Q 366 113 442 223 
Q 519 334 519 647 
L 519 1709 
Q 519 2225 495 2337 
Q 472 2450 423 2490 
Q 375 2531 294 2531 
Q 206 2531 84 2484 
L 38 2597 
L 900 2947 
L 1034 2947 
L 1034 2341 
z
" transform="scale(0.015625)"/>
      <path id="TimesNewRomanPSMT-76" d="M 53 2863 
L 1400 2863 
L 1400 2747 
L 1313 2747 
Q 1191 2747 1127 2687 
Q 1063 2628 1063 2528 
Q 1063 2419 1128 2269 
L 1794 688 
L 2463 2328 
Q 2534 2503 2534 2594 
Q 2534 2638 2509 2666 
Q 2475 2713 2422 2730 
Q 2369 2747 2206 2747 
L 2206 2863 
L 3141 2863 
L 3141 2747 
Q 2978 2734 2916 2681 
Q 2806 2588 2719 2369 
L 1703 -88 
L 1575 -88 
L 553 2328 
Q 484 2497 421 2570 
Q 359 2644 263 2694 
Q 209 2722 53 2747 
L 53 2863 
z
" transform="scale(0.015625)"/>
      <path id="TimesNewRomanPSMT-69" d="M 928 4444 
Q 1059 4444 1151 4351 
Q 1244 4259 1244 4128 
Q 1244 3997 1151 3903 
Q 1059 3809 928 3809 
Q 797 3809 703 3903 
Q 609 3997 609 4128 
Q 609 4259 701 4351 
Q 794 4444 928 4444 
z
M 1188 2947 
L 1188 647 
Q 1188 378 1227 289 
Q 1266 200 1342 156 
Q 1419 113 1622 113 
L 1622 0 
L 231 0 
L 231 113 
Q 441 113 512 153 
Q 584 194 626 287 
Q 669 381 669 647 
L 669 1750 
Q 669 2216 641 2353 
Q 619 2453 572 2492 
Q 525 2531 444 2531 
Q 356 2531 231 2484 
L 188 2597 
L 1050 2947 
L 1188 2947 
z
" transform="scale(0.015625)"/>
      <path id="TimesNewRomanPSMT-73" d="M 2050 2947 
L 2050 1972 
L 1947 1972 
Q 1828 2431 1642 2597 
Q 1456 2763 1169 2763 
Q 950 2763 815 2647 
Q 681 2531 681 2391 
Q 681 2216 781 2091 
Q 878 1963 1175 1819 
L 1631 1597 
Q 2266 1288 2266 781 
Q 2266 391 1970 151 
Q 1675 -88 1309 -88 
Q 1047 -88 709 6 
Q 606 38 541 38 
Q 469 38 428 -44 
L 325 -44 
L 325 978 
L 428 978 
Q 516 541 762 319 
Q 1009 97 1316 97 
Q 1531 97 1667 223 
Q 1803 350 1803 528 
Q 1803 744 1651 891 
Q 1500 1038 1047 1263 
Q 594 1488 453 1669 
Q 313 1847 313 2119 
Q 313 2472 555 2709 
Q 797 2947 1181 2947 
Q 1350 2947 1591 2875 
Q 1750 2828 1803 2828 
Q 1853 2828 1881 2850 
Q 1909 2872 1947 2947 
L 2050 2947 
z
" transform="scale(0.015625)"/>
     </defs>
     <use xlink:href="#TimesNewRomanPSMT-41"/>
     <use xlink:href="#TimesNewRomanPSMT-63" transform="translate(72.216797 0)"/>
     <use xlink:href="#TimesNewRomanPSMT-63" transform="translate(116.601562 0)"/>
     <use xlink:href="#TimesNewRomanPSMT-75" transform="translate(160.986328 0)"/>
     <use xlink:href="#TimesNewRomanPSMT-72" transform="translate(210.986328 0)"/>
     <use xlink:href="#TimesNewRomanPSMT-61" transform="translate(244.287109 0)"/>
     <use xlink:href="#TimesNewRomanPSMT-63" transform="translate(288.671875 0)"/>
     <use xlink:href="#TimesNewRomanPSMT-79" transform="translate(333.056641 0)"/>
     <use xlink:href="#TimesNewRomanPSMT-20" transform="translate(383.056641 0)"/>
     <use xlink:href="#TimesNewRomanPSMT-6f" transform="translate(408.056641 0)"/>
     <use xlink:href="#TimesNewRomanPSMT-66" transform="translate(458.056641 0)"/>
     <use xlink:href="#TimesNewRomanPSMT-20" transform="translate(491.357422 0)"/>
     <use xlink:href="#TimesNewRomanPSMT-74" transform="translate(516.357422 0)"/>
     <use xlink:href="#TimesNewRomanPSMT-68" transform="translate(544.140625 0)"/>
     <use xlink:href="#TimesNewRomanPSMT-65" transform="translate(594.140625 0)"/>
     <use xlink:href="#TimesNewRomanPSMT-20" transform="translate(638.525391 0)"/>
     <use xlink:href="#TimesNewRomanPSMT-30" transform="translate(663.525391 0)"/>
     <use xlink:href="#TimesNewRomanPSMT-39" transform="translate(713.525391 0)"/>
     <use xlink:href="#TimesNewRomanPSMT-5f" transform="translate(763.525391 0)"/>
     <use xlink:href="#TimesNewRomanPSMT-30" transform="translate(813.525391 0)"/>
     <use xlink:href="#TimesNewRomanPSMT-37" transform="translate(863.525391 0)"/>
     <use xlink:href="#TimesNewRomanPSMT-5f" transform="translate(913.525391 0)"/>
     <use xlink:href="#TimesNewRomanPSMT-32" transform="translate(963.525391 0)"/>
     <use xlink:href="#TimesNewRomanPSMT-35" transform="translate(1013.525391 0)"/>
     <use xlink:href="#TimesNewRomanPSMT-5f" transform="translate(1063.525391 0)"/>
     <use xlink:href="#TimesNewRomanPSMT-43" transform="translate(1113.525391 0)"/>
     <use xlink:href="#TimesNewRomanPSMT-49" transform="translate(1180.224609 0)"/>
     <use xlink:href="#TimesNewRomanPSMT-46" transform="translate(1213.525391 0)"/>
     <use xlink:href="#TimesNewRomanPSMT-41" transform="translate(1261.765625 0)"/>
     <use xlink:href="#TimesNewRomanPSMT-52" transform="translate(1333.982422 0)"/>
     <use xlink:href="#TimesNewRomanPSMT-31" transform="translate(1400.681641 0)"/>
     <use xlink:href="#TimesNewRomanPSMT-30" transform="translate(1450.681641 0)"/>
     <use xlink:href="#TimesNewRomanPSMT-5f" transform="translate(1500.681641 0)"/>
     <use xlink:href="#TimesNewRomanPSMT-74" transform="translate(1550.681641 0)"/>
     <use xlink:href="#TimesNewRomanPSMT-6f" transform="translate(1578.464844 0)"/>
     <use xlink:href="#TimesNewRomanPSMT-72" transform="translate(1628.464844 0)"/>
     <use xlink:href="#TimesNewRomanPSMT-63" transform="translate(1661.765625 0)"/>
     <use xlink:href="#TimesNewRomanPSMT-68" transform="translate(1706.150391 0)"/>
     <use xlink:href="#TimesNewRomanPSMT-5f" transform="translate(1756.150391 0)"/>
     <use xlink:href="#TimesNewRomanPSMT-6d" transform="translate(1806.150391 0)"/>
     <use xlink:href="#TimesNewRomanPSMT-6f" transform="translate(1883.933594 0)"/>
     <use xlink:href="#TimesNewRomanPSMT-64" transform="translate(1933.933594 0)"/>
     <use xlink:href="#TimesNewRomanPSMT-65" transform="translate(1983.933594 0)"/>
     <use xlink:href="#TimesNewRomanPSMT-6c" transform="translate(2028.318359 0)"/>
     <use xlink:href="#TimesNewRomanPSMT-5f" transform="translate(2056.101562 0)"/>
     <use xlink:href="#TimesNewRomanPSMT-28" transform="translate(2106.101562 0)"/>
     <use xlink:href="#TimesNewRomanPSMT-31" transform="translate(2139.402344 0)"/>
     <use xlink:href="#TimesNewRomanPSMT-30" transform="translate(2189.402344 0)"/>
     <use xlink:href="#TimesNewRomanPSMT-32" transform="translate(2239.402344 0)"/>
     <use xlink:href="#TimesNewRomanPSMT-34" transform="translate(2289.402344 0)"/>
     <use xlink:href="#TimesNewRomanPSMT-2b" transform="translate(2339.402344 0)"/>
     <use xlink:href="#TimesNewRomanPSMT-32" transform="translate(2395.798828 0)"/>
     <use xlink:href="#TimesNewRomanPSMT-30" transform="translate(2445.798828 0)"/>
     <use xlink:href="#TimesNewRomanPSMT-34" transform="translate(2495.798828 0)"/>
     <use xlink:href="#TimesNewRomanPSMT-38" transform="translate(2545.798828 0)"/>
     <use xlink:href="#TimesNewRomanPSMT-2d" transform="translate(2595.798828 0)"/>
     <use xlink:href="#TimesNewRomanPSMT-32" transform="translate(2629.099609 0)"/>
     <use xlink:href="#TimesNewRomanPSMT-30" transform="translate(2679.099609 0)"/>
     <use xlink:href="#TimesNewRomanPSMT-34" transform="translate(2729.099609 0)"/>
     <use xlink:href="#TimesNewRomanPSMT-38" transform="translate(2779.099609 0)"/>
     <use xlink:href="#TimesNewRomanPSMT-2e" transform="translate(2829.099609 0)"/>
     <use xlink:href="#TimesNewRomanPSMT-31" transform="translate(2854.099609 0)"/>
     <use xlink:href="#TimesNewRomanPSMT-2d" transform="translate(2904.099609 0)"/>
     <use xlink:href="#TimesNewRomanPSMT-31" transform="translate(2937.400391 0)"/>
     <use xlink:href="#TimesNewRomanPSMT-29" transform="translate(2987.400391 0)"/>
     <use xlink:href="#TimesNewRomanPSMT-5f" transform="translate(3020.701172 0)"/>
     <use xlink:href="#TimesNewRomanPSMT-63" transform="translate(3070.701172 0)"/>
     <use xlink:href="#TimesNewRomanPSMT-61" transform="translate(3115.085938 0)"/>
     <use xlink:href="#TimesNewRomanPSMT-72" transform="translate(3159.470703 0)"/>
     <use xlink:href="#TimesNewRomanPSMT-2d" transform="translate(3190.771484 0)"/>
     <use xlink:href="#TimesNewRomanPSMT-70" transform="translate(3224.072266 0)"/>
     <use xlink:href="#TimesNewRomanPSMT-6c" transform="translate(3274.072266 0)"/>
     <use xlink:href="#TimesNewRomanPSMT-61" transform="translate(3301.855469 0)"/>
     <use xlink:href="#TimesNewRomanPSMT-6e" transform="translate(3346.240234 0)"/>
     <use xlink:href="#TimesNewRomanPSMT-65" transform="translate(3396.240234 0)"/>
     <use xlink:href="#TimesNewRomanPSMT-20" transform="translate(3440.625 0)"/>
     <use xlink:href="#TimesNewRomanPSMT-6f" transform="translate(3465.625 0)"/>
     <use xlink:href="#TimesNewRomanPSMT-6e" transform="translate(3515.625 0)"/>
     <use xlink:href="#TimesNewRomanPSMT-20" transform="translate(3565.625 0)"/>
     <use xlink:href="#TimesNewRomanPSMT-74" transform="translate(3590.625 0)"/>
     <use xlink:href="#TimesNewRomanPSMT-68" transform="translate(3618.408203 0)"/>
     <use xlink:href="#TimesNewRomanPSMT-65" transform="translate(3668.408203 0)"/>
     <use xlink:href="#TimesNewRomanPSMT-20" transform="translate(3712.792969 0)"/>
     <use xlink:href="#TimesNewRomanPSMT-76" transform="translate(3737.792969 0)"/>
     <use xlink:href="#TimesNewRomanPSMT-61" transform="translate(3787.792969 0)"/>
     <use xlink:href="#TimesNewRomanPSMT-6c" transform="translate(3832.177734 0)"/>
     <use xlink:href="#TimesNewRomanPSMT-69" transform="translate(3859.960938 0)"/>
     <use xlink:href="#TimesNewRomanPSMT-64" transform="translate(3887.744141 0)"/>
     <use xlink:href="#TimesNewRomanPSMT-61" transform="translate(3937.744141 0)"/>
     <use xlink:href="#TimesNewRomanPSMT-74" transform="translate(3982.128906 0)"/>
     <use xlink:href="#TimesNewRomanPSMT-69" transform="translate(4009.912109 0)"/>
     <use xlink:href="#TimesNewRomanPSMT-6f" transform="translate(4037.695312 0)"/>
     <use xlink:href="#TimesNewRomanPSMT-6e" transform="translate(4087.695312 0)"/>
     <use xlink:href="#TimesNewRomanPSMT-20" transform="translate(4137.695312 0)"/>
     <use xlink:href="#TimesNewRomanPSMT-73" transform="translate(4162.695312 0)"/>
     <use xlink:href="#TimesNewRomanPSMT-65" transform="translate(4201.611328 0)"/>
     <use xlink:href="#TimesNewRomanPSMT-74" transform="translate(4245.996094 0)"/>
    </g>
   </g>
   <g id="legend_1">
    <g id="patch_7">
     <path d="M 408.18325 300.6435 
L 634.353563 300.6435 
Q 638.753563 300.6435 638.753563 296.2435 
L 638.753563 267.296312 
Q 638.753563 262.896312 634.353563 262.896312 
L 408.18325 262.896312 
Q 403.78325 262.896312 403.78325 267.296312 
L 403.78325 296.2435 
Q 403.78325 300.6435 408.18325 300.6435 
z
" style="fill: #ffffff; opacity: 0.8; stroke: #cccccc; stroke-linejoin: miter"/>
    </g>
    <g id="line2d_32">
     <path d="M 412.58325 279.396312 
L 434.58325 279.396312 
L 456.58325 279.396312 
" style="fill: none; stroke: #1f77b4; stroke-width: 1.5; stroke-linecap: square"/>
    </g>
    <g id="text_19">
     <!-- Best accuracy 0.9 -->
     <g transform="translate(474.18325 287.096312) scale(0.22 -0.22)">
      <defs>
       <path id="TimesNewRomanPSMT-42" d="M 2956 2163 
Q 3397 2069 3616 1863 
Q 3919 1575 3919 1159 
Q 3919 844 3719 555 
Q 3519 266 3170 133 
Q 2822 0 2106 0 
L 106 0 
L 106 116 
L 266 116 
Q 531 116 647 284 
Q 719 394 719 750 
L 719 3488 
Q 719 3881 628 3984 
Q 506 4122 266 4122 
L 106 4122 
L 106 4238 
L 1938 4238 
Q 2450 4238 2759 4163 
Q 3228 4050 3475 3764 
Q 3722 3478 3722 3106 
Q 3722 2788 3528 2536 
Q 3334 2284 2956 2163 
z
M 1319 2331 
Q 1434 2309 1582 2298 
Q 1731 2288 1909 2288 
Q 2366 2288 2595 2386 
Q 2825 2484 2947 2687 
Q 3069 2891 3069 3131 
Q 3069 3503 2766 3765 
Q 2463 4028 1881 4028 
Q 1569 4028 1319 3959 
L 1319 2331 
z
M 1319 306 
Q 1681 222 2034 222 
Q 2600 222 2897 476 
Q 3194 731 3194 1106 
Q 3194 1353 3059 1581 
Q 2925 1809 2622 1940 
Q 2319 2072 1872 2072 
Q 1678 2072 1540 2065 
Q 1403 2059 1319 2044 
L 1319 306 
z
" transform="scale(0.015625)"/>
      </defs>
      <use xlink:href="#TimesNewRomanPSMT-42"/>
      <use xlink:href="#TimesNewRomanPSMT-65" transform="translate(66.699219 0)"/>
      <use xlink:href="#TimesNewRomanPSMT-73" transform="translate(111.083984 0)"/>
      <use xlink:href="#TimesNewRomanPSMT-74" transform="translate(150 0)"/>
      <use xlink:href="#TimesNewRomanPSMT-20" transform="translate(177.783203 0)"/>
      <use xlink:href="#TimesNewRomanPSMT-61" transform="translate(202.783203 0)"/>
      <use xlink:href="#TimesNewRomanPSMT-63" transform="translate(247.167969 0)"/>
      <use xlink:href="#TimesNewRomanPSMT-63" transform="translate(291.552734 0)"/>
      <use xlink:href="#TimesNewRomanPSMT-75" transform="translate(335.9375 0)"/>
      <use xlink:href="#TimesNewRomanPSMT-72" transform="translate(385.9375 0)"/>
      <use xlink:href="#TimesNewRomanPSMT-61" transform="translate(419.238281 0)"/>
      <use xlink:href="#TimesNewRomanPSMT-63" transform="translate(463.623047 0)"/>
      <use xlink:href="#TimesNewRomanPSMT-79" transform="translate(508.007812 0)"/>
      <use xlink:href="#TimesNewRomanPSMT-20" transform="translate(558.007812 0)"/>
      <use xlink:href="#TimesNewRomanPSMT-30" transform="translate(583.007812 0)"/>
      <use xlink:href="#TimesNewRomanPSMT-2e" transform="translate(633.007812 0)"/>
      <use xlink:href="#TimesNewRomanPSMT-39" transform="translate(658.007812 0)"/>
     </g>
    </g>
   </g>
  </g>
 </g>
 <defs>
  <clipPath id="pe8c94a0976">
   <rect x="392.78325" y="45.5315" width="357.12" height="266.112"/>
  </clipPath>
 </defs>
</svg>
