<?xml version="1.0" encoding="utf-8" standalone="no"?>
<!DOCTYPE svg PUBLIC "-//W3C//DTD SVG 1.1//EN"
  "http://www.w3.org/Graphics/SVG/1.1/DTD/svg11.dtd">
<svg xmlns:xlink="http://www.w3.org/1999/xlink" width="797.477625pt" height="383.265687pt" viewBox="0 0 797.477625 383.265687" xmlns="http://www.w3.org/2000/svg" version="1.1">
 <metadata>
  <rdf:RDF xmlns:dc="http://purl.org/dc/elements/1.1/" xmlns:cc="http://creativecommons.org/ns#" xmlns:rdf="http://www.w3.org/1999/02/22-rdf-syntax-ns#">
   <cc:Work>
    <dc:type rdf:resource="http://purl.org/dc/dcmitype/StillImage"/>
    <dc:date>2025-06-02T12:43:35.390419</dc:date>
    <dc:format>image/svg+xml</dc:format>
    <dc:creator>
     <cc:Agent>
      <dc:title>Matplotlib v3.10.1, https://matplotlib.org/</dc:title>
     </cc:Agent>
    </dc:creator>
   </cc:Work>
  </rdf:RDF>
 </metadata>
 <defs>
  <style type="text/css">*{stroke-linejoin: round; stroke-linecap: butt}</style>
 </defs>
 <g id="figure_1">
  <g id="patch_1">
   <path d="M 0 383.265687 
L 797.477625 383.265687 
L 797.477625 0 
L 0 0 
z
" style="fill: #ffffff"/>
  </g>
  <g id="axes_1">
   <g id="patch_2">
    <path d="M 220.178812 311.6435 
L 577.298812 311.6435 
L 577.298812 45.5315 
L 220.178812 45.5315 
z
" style="fill: #ffffff"/>
   </g>
   <g id="matplotlib.axis_1">
    <g id="xtick_1">
     <g id="line2d_1">
      <path d="M 220.178812 311.6435 
L 220.178812 45.5315 
" clip-path="url(#p7843f217cc)" style="fill: none; stroke: #b0b0b0; stroke-opacity: 0.3; stroke-width: 0.8; stroke-linecap: square"/>
     </g>
     <g id="line2d_2">
      <defs>
       <path id="m1c7977cc18" d="M 0 0 
L 0 3.5 
" style="stroke: #000000; stroke-width: 0.8"/>
      </defs>
      <g>
       <use xlink:href="#m1c7977cc18" x="220.178812" y="311.6435" style="stroke: #000000; stroke-width: 0.8"/>
      </g>
     </g>
     <g id="text_1">
      <!-- 0.0 -->
      <g transform="translate(206.428812 333.91975) scale(0.22 -0.22)">
       <defs>
        <path id="TimesNewRomanPSMT-30" d="M 231 2094 
Q 231 2819 450 3342 
Q 669 3866 1031 4122 
Q 1313 4325 1613 4325 
Q 2100 4325 2488 3828 
Q 2972 3213 2972 2159 
Q 2972 1422 2759 906 
Q 2547 391 2217 158 
Q 1888 -75 1581 -75 
Q 975 -75 572 641 
Q 231 1244 231 2094 
z
M 844 2016 
Q 844 1141 1059 588 
Q 1238 122 1591 122 
Q 1759 122 1940 273 
Q 2122 425 2216 781 
Q 2359 1319 2359 2297 
Q 2359 3022 2209 3506 
Q 2097 3866 1919 4016 
Q 1791 4119 1609 4119 
Q 1397 4119 1231 3928 
Q 1006 3669 925 3112 
Q 844 2556 844 2016 
z
" transform="scale(0.015625)"/>
        <path id="TimesNewRomanPSMT-2e" d="M 800 606 
Q 947 606 1047 504 
Q 1147 403 1147 259 
Q 1147 116 1045 14 
Q 944 -88 800 -88 
Q 656 -88 554 14 
Q 453 116 453 259 
Q 453 406 554 506 
Q 656 606 800 606 
z
" transform="scale(0.015625)"/>
       </defs>
       <use xlink:href="#TimesNewRomanPSMT-30"/>
       <use xlink:href="#TimesNewRomanPSMT-2e" transform="translate(50 0)"/>
       <use xlink:href="#TimesNewRomanPSMT-30" transform="translate(75 0)"/>
      </g>
     </g>
    </g>
    <g id="xtick_2">
     <g id="line2d_3">
      <path d="M 358.403283 311.6435 
L 358.403283 45.5315 
" clip-path="url(#p7843f217cc)" style="fill: none; stroke: #b0b0b0; stroke-opacity: 0.3; stroke-width: 0.8; stroke-linecap: square"/>
     </g>
     <g id="line2d_4">
      <g>
       <use xlink:href="#m1c7977cc18" x="358.403283" y="311.6435" style="stroke: #000000; stroke-width: 0.8"/>
      </g>
     </g>
     <g id="text_2">
      <!-- 0.5 -->
      <g transform="translate(344.653283 333.91975) scale(0.22 -0.22)">
       <defs>
        <path id="TimesNewRomanPSMT-35" d="M 2778 4238 
L 2534 3706 
L 1259 3706 
L 981 3138 
Q 1809 3016 2294 2522 
Q 2709 2097 2709 1522 
Q 2709 1188 2573 903 
Q 2438 619 2231 419 
Q 2025 219 1772 97 
Q 1413 -75 1034 -75 
Q 653 -75 479 54 
Q 306 184 306 341 
Q 306 428 378 495 
Q 450 563 559 563 
Q 641 563 702 538 
Q 763 513 909 409 
Q 1144 247 1384 247 
Q 1750 247 2026 523 
Q 2303 800 2303 1197 
Q 2303 1581 2056 1914 
Q 1809 2247 1375 2428 
Q 1034 2569 447 2591 
L 1259 4238 
L 2778 4238 
z
" transform="scale(0.015625)"/>
       </defs>
       <use xlink:href="#TimesNewRomanPSMT-30"/>
       <use xlink:href="#TimesNewRomanPSMT-2e" transform="translate(50 0)"/>
       <use xlink:href="#TimesNewRomanPSMT-35" transform="translate(75 0)"/>
      </g>
     </g>
    </g>
    <g id="xtick_3">
     <g id="line2d_5">
      <path d="M 496.627754 311.6435 
L 496.627754 45.5315 
" clip-path="url(#p7843f217cc)" style="fill: none; stroke: #b0b0b0; stroke-opacity: 0.3; stroke-width: 0.8; stroke-linecap: square"/>
     </g>
     <g id="line2d_6">
      <g>
       <use xlink:href="#m1c7977cc18" x="496.627754" y="311.6435" style="stroke: #000000; stroke-width: 0.8"/>
      </g>
     </g>
     <g id="text_3">
      <!-- 1.0 -->
      <g transform="translate(482.877754 333.91975) scale(0.22 -0.22)">
       <defs>
        <path id="TimesNewRomanPSMT-31" d="M 750 3822 
L 1781 4325 
L 1884 4325 
L 1884 747 
Q 1884 391 1914 303 
Q 1944 216 2037 169 
Q 2131 122 2419 116 
L 2419 0 
L 825 0 
L 825 116 
Q 1125 122 1212 167 
Q 1300 213 1334 289 
Q 1369 366 1369 747 
L 1369 3034 
Q 1369 3497 1338 3628 
Q 1316 3728 1258 3775 
Q 1200 3822 1119 3822 
Q 1003 3822 797 3725 
L 750 3822 
z
" transform="scale(0.015625)"/>
       </defs>
       <use xlink:href="#TimesNewRomanPSMT-31"/>
       <use xlink:href="#TimesNewRomanPSMT-2e" transform="translate(50 0)"/>
       <use xlink:href="#TimesNewRomanPSMT-30" transform="translate(75 0)"/>
      </g>
     </g>
    </g>
    <g id="text_4">
     <!-- $\kappa  = \frac{ln(n)}{ln(d)}$ -->
     <g transform="translate(366.728813 364.185687) scale(0.22 -0.22)">
      <defs>
       <path id="STIXGeneral-Italic-3ba" d="M 979 1440 
L 998 1446 
Q 1850 2541 2464 2790 
Q 2547 2822 2630 2822 
Q 2797 2822 2886 2736 
Q 2976 2650 2976 2522 
Q 2976 2387 2893 2307 
Q 2810 2227 2682 2227 
Q 2605 2227 2502 2288 
Q 2400 2349 2336 2349 
Q 2170 2349 1990 2205 
Q 1811 2061 1414 1645 
L 2042 544 
Q 2202 262 2310 182 
Q 2419 102 2624 102 
L 2624 0 
Q 2374 -83 2182 -83 
Q 1786 -83 1555 326 
L 960 1350 
L 576 0 
L 90 0 
L 640 1978 
Q 730 2317 730 2406 
Q 730 2560 518 2560 
L 339 2560 
L 339 2650 
Q 678 2694 1306 2822 
L 1325 2803 
L 979 1440 
z
" transform="scale(0.015625)"/>
       <path id="STIXGeneral-Regular-3d" d="M 4077 2048 
L 307 2048 
L 307 2470 
L 4077 2470 
L 4077 2048 
z
M 4077 768 
L 307 768 
L 307 1190 
L 4077 1190 
L 4077 768 
z
" transform="scale(0.015625)"/>
       <path id="STIXGeneral-Italic-6c" d="M 1786 4339 
L 806 595 
Q 755 410 755 320 
Q 755 205 864 205 
Q 1037 205 1293 570 
L 1453 794 
L 1542 730 
Q 1254 275 1046 102 
Q 838 -70 576 -70 
Q 262 -70 262 288 
Q 262 397 288 480 
L 1165 3834 
Q 1184 3898 1184 3955 
Q 1184 4096 870 4096 
L 755 4096 
L 755 4198 
Q 1203 4250 1747 4371 
L 1786 4339 
z
" transform="scale(0.015625)"/>
       <path id="STIXGeneral-Italic-6e" d="M 2944 749 
L 3034 666 
Q 2707 218 2534 80 
Q 2362 -58 2138 -58 
Q 2010 -58 1923 28 
Q 1837 115 1837 288 
Q 1837 390 1939 768 
L 2221 1805 
Q 2310 2150 2310 2310 
Q 2310 2496 2157 2496 
Q 1971 2496 1750 2275 
Q 1530 2054 1210 1587 
Q 998 1274 899 1024 
Q 800 774 570 0 
L 90 0 
L 704 2240 
Q 717 2304 717 2349 
Q 717 2445 630 2480 
Q 544 2515 301 2522 
L 301 2624 
Q 550 2675 857 2729 
Q 1165 2784 1338 2822 
L 1363 2810 
L 934 1414 
Q 1408 2170 1753 2496 
Q 2099 2822 2413 2822 
Q 2611 2822 2720 2716 
Q 2829 2611 2829 2432 
Q 2829 2272 2765 2048 
L 2406 749 
Q 2317 429 2317 358 
Q 2317 243 2419 243 
Q 2541 243 2810 582 
Q 2854 634 2944 749 
z
" transform="scale(0.015625)"/>
       <path id="STIXGeneral-Regular-28" d="M 1946 -1030 
L 1869 -1133 
Q 1126 -710 716 32 
Q 307 774 307 1613 
Q 307 3386 1888 4326 
L 1946 4224 
Q 1293 3667 1075 3126 
Q 858 2586 858 1632 
Q 858 685 1082 96 
Q 1306 -493 1946 -1030 
z
" transform="scale(0.015625)"/>
       <path id="STIXGeneral-Regular-29" d="M 186 4224 
L 262 4326 
Q 992 3891 1408 3148 
Q 1824 2406 1824 1581 
Q 1824 -166 243 -1133 
L 186 -1030 
Q 845 -486 1059 54 
Q 1274 595 1274 1562 
Q 1274 2534 1059 3120 
Q 845 3706 186 4224 
z
" transform="scale(0.015625)"/>
       <path id="STIXGeneral-Italic-64" d="M 3334 4371 
L 3373 4333 
L 3123 3360 
L 2739 1958 
Q 2323 429 2323 384 
Q 2323 256 2438 256 
Q 2522 256 2614 336 
Q 2707 416 2963 710 
L 3040 646 
Q 2547 -83 2099 -83 
Q 1978 -83 1907 -6 
Q 1837 70 1837 205 
Q 1837 397 1920 774 
Q 1645 307 1379 118 
Q 1114 -70 781 -70 
Q 461 -70 278 125 
Q 96 320 96 678 
Q 96 1440 713 2131 
Q 1331 2822 1965 2822 
Q 2163 2822 2256 2732 
Q 2349 2643 2381 2451 
L 2387 2451 
L 2675 3494 
Q 2765 3808 2765 3949 
Q 2765 4051 2694 4076 
Q 2624 4102 2355 4115 
L 2355 4224 
Q 2848 4269 3334 4371 
z
M 2278 2310 
Q 2278 2477 2185 2576 
Q 2093 2675 1978 2675 
Q 1677 2675 1395 2381 
Q 1075 2042 864 1571 
Q 653 1101 653 704 
Q 653 486 752 361 
Q 851 237 1024 237 
Q 1312 237 1606 550 
Q 1901 864 2089 1350 
Q 2278 1837 2278 2310 
z
" transform="scale(0.015625)"/>
      </defs>
      <use xlink:href="#STIXGeneral-Italic-3ba" transform="translate(0 0.003125)"/>
      <use xlink:href="#STIXGeneral-Regular-3d" transform="translate(58.83999 0.003125)"/>
      <use xlink:href="#STIXGeneral-Italic-6c" transform="translate(141.779971 50.192188) scale(0.7)"/>
      <use xlink:href="#STIXGeneral-Italic-6e" transform="translate(161.239963 50.192188) scale(0.7)"/>
      <use xlink:href="#STIXGeneral-Regular-28" transform="translate(196.239952 50.192188) scale(0.7)"/>
      <use xlink:href="#STIXGeneral-Italic-6e" transform="translate(219.549944 50.192188) scale(0.7)"/>
      <use xlink:href="#STIXGeneral-Regular-29" transform="translate(254.549933 50.192188) scale(0.7)"/>
      <use xlink:href="#STIXGeneral-Italic-6c" transform="translate(141.779971 -41.257812) scale(0.7)"/>
      <use xlink:href="#STIXGeneral-Italic-6e" transform="translate(161.239963 -41.257812) scale(0.7)"/>
      <use xlink:href="#STIXGeneral-Regular-28" transform="translate(196.239952 -41.257812) scale(0.7)"/>
      <use xlink:href="#STIXGeneral-Italic-64" transform="translate(219.549944 -41.257812) scale(0.7)"/>
      <use xlink:href="#STIXGeneral-Regular-29" transform="translate(254.549933 -41.257812) scale(0.7)"/>
      <path d="M 141.779971 12.8 
L 141.779971 19.05 
L 277.859924 19.05 
L 277.859924 12.8 
L 141.779971 12.8 
z
"/>
     </g>
    </g>
   </g>
   <g id="matplotlib.axis_2">
    <g id="ytick_1">
     <g id="line2d_7">
      <path d="M 220.178812 311.6435 
L 577.298812 311.6435 
" clip-path="url(#p7843f217cc)" style="fill: none; stroke: #b0b0b0; stroke-opacity: 0.3; stroke-width: 0.8; stroke-linecap: square"/>
     </g>
     <g id="line2d_8">
      <defs>
       <path id="mb9ec4f720e" d="M 0 0 
L -3.5 0 
" style="stroke: #000000; stroke-width: 0.8"/>
      </defs>
      <g>
       <use xlink:href="#mb9ec4f720e" x="220.178812" y="311.6435" style="stroke: #000000; stroke-width: 0.8"/>
      </g>
     </g>
     <g id="text_5">
      <!-- 0.0 -->
      <g transform="translate(185.678812 319.281625) scale(0.22 -0.22)">
       <use xlink:href="#TimesNewRomanPSMT-30"/>
       <use xlink:href="#TimesNewRomanPSMT-2e" transform="translate(50 0)"/>
       <use xlink:href="#TimesNewRomanPSMT-30" transform="translate(75 0)"/>
      </g>
     </g>
    </g>
    <g id="ytick_2">
     <g id="line2d_9">
      <path d="M 220.178812 231.083469 
L 577.298812 231.083469 
" clip-path="url(#p7843f217cc)" style="fill: none; stroke: #b0b0b0; stroke-opacity: 0.3; stroke-width: 0.8; stroke-linecap: square"/>
     </g>
     <g id="line2d_10">
      <g>
       <use xlink:href="#mb9ec4f720e" x="220.178812" y="231.083469" style="stroke: #000000; stroke-width: 0.8"/>
      </g>
     </g>
     <g id="text_6">
      <!-- 0.1 -->
      <g transform="translate(185.678812 238.721594) scale(0.22 -0.22)">
       <use xlink:href="#TimesNewRomanPSMT-30"/>
       <use xlink:href="#TimesNewRomanPSMT-2e" transform="translate(50 0)"/>
       <use xlink:href="#TimesNewRomanPSMT-31" transform="translate(75 0)"/>
      </g>
     </g>
    </g>
    <g id="ytick_3">
     <g id="line2d_11">
      <path d="M 220.178812 150.523439 
L 577.298812 150.523439 
" clip-path="url(#p7843f217cc)" style="fill: none; stroke: #b0b0b0; stroke-opacity: 0.3; stroke-width: 0.8; stroke-linecap: square"/>
     </g>
     <g id="line2d_12">
      <g>
       <use xlink:href="#mb9ec4f720e" x="220.178812" y="150.523439" style="stroke: #000000; stroke-width: 0.8"/>
      </g>
     </g>
     <g id="text_7">
      <!-- 0.2 -->
      <g transform="translate(185.678812 158.161564) scale(0.22 -0.22)">
       <defs>
        <path id="TimesNewRomanPSMT-32" d="M 2934 816 
L 2638 0 
L 138 0 
L 138 116 
Q 1241 1122 1691 1759 
Q 2141 2397 2141 2925 
Q 2141 3328 1894 3587 
Q 1647 3847 1303 3847 
Q 991 3847 742 3664 
Q 494 3481 375 3128 
L 259 3128 
Q 338 3706 661 4015 
Q 984 4325 1469 4325 
Q 1984 4325 2329 3994 
Q 2675 3663 2675 3213 
Q 2675 2891 2525 2569 
Q 2294 2063 1775 1497 
Q 997 647 803 472 
L 1909 472 
Q 2247 472 2383 497 
Q 2519 522 2628 598 
Q 2738 675 2819 816 
L 2934 816 
z
" transform="scale(0.015625)"/>
       </defs>
       <use xlink:href="#TimesNewRomanPSMT-30"/>
       <use xlink:href="#TimesNewRomanPSMT-2e" transform="translate(50 0)"/>
       <use xlink:href="#TimesNewRomanPSMT-32" transform="translate(75 0)"/>
      </g>
     </g>
    </g>
    <g id="ytick_4">
     <g id="line2d_13">
      <path d="M 220.178812 69.963408 
L 577.298812 69.963408 
" clip-path="url(#p7843f217cc)" style="fill: none; stroke: #b0b0b0; stroke-opacity: 0.3; stroke-width: 0.8; stroke-linecap: square"/>
     </g>
     <g id="line2d_14">
      <g>
       <use xlink:href="#mb9ec4f720e" x="220.178812" y="69.963408" style="stroke: #000000; stroke-width: 0.8"/>
      </g>
     </g>
     <g id="text_8">
      <!-- 0.3 -->
      <g transform="translate(185.678812 77.601533) scale(0.22 -0.22)">
       <defs>
        <path id="TimesNewRomanPSMT-33" d="M 325 3431 
Q 506 3859 782 4092 
Q 1059 4325 1472 4325 
Q 1981 4325 2253 3994 
Q 2459 3747 2459 3466 
Q 2459 3003 1878 2509 
Q 2269 2356 2469 2072 
Q 2669 1788 2669 1403 
Q 2669 853 2319 450 
Q 1863 -75 997 -75 
Q 569 -75 414 31 
Q 259 138 259 259 
Q 259 350 332 419 
Q 406 488 509 488 
Q 588 488 669 463 
Q 722 447 909 348 
Q 1097 250 1169 231 
Q 1284 197 1416 197 
Q 1734 197 1970 444 
Q 2206 691 2206 1028 
Q 2206 1275 2097 1509 
Q 2016 1684 1919 1775 
Q 1784 1900 1550 2001 
Q 1316 2103 1072 2103 
L 972 2103 
L 972 2197 
Q 1219 2228 1467 2375 
Q 1716 2522 1828 2728 
Q 1941 2934 1941 3181 
Q 1941 3503 1739 3701 
Q 1538 3900 1238 3900 
Q 753 3900 428 3381 
L 325 3431 
z
" transform="scale(0.015625)"/>
       </defs>
       <use xlink:href="#TimesNewRomanPSMT-30"/>
       <use xlink:href="#TimesNewRomanPSMT-2e" transform="translate(50 0)"/>
       <use xlink:href="#TimesNewRomanPSMT-33" transform="translate(75 0)"/>
      </g>
     </g>
    </g>
    <g id="text_9">
     <!-- Loss -->
     <g transform="translate(176.972875 199.368906) rotate(-90) scale(0.22 -0.22)">
      <defs>
       <path id="TimesNewRomanPSMT-4c" d="M 3669 1172 
L 3772 1150 
L 3409 0 
L 128 0 
L 128 116 
L 288 116 
Q 556 116 672 291 
Q 738 391 738 753 
L 738 3488 
Q 738 3884 650 3984 
Q 528 4122 288 4122 
L 128 4122 
L 128 4238 
L 2047 4238 
L 2047 4122 
Q 1709 4125 1573 4059 
Q 1438 3994 1388 3894 
Q 1338 3794 1338 3416 
L 1338 753 
Q 1338 494 1388 397 
Q 1425 331 1503 300 
Q 1581 269 1991 269 
L 2300 269 
Q 2788 269 2984 341 
Q 3181 413 3343 595 
Q 3506 778 3669 1172 
z
" transform="scale(0.015625)"/>
       <path id="TimesNewRomanPSMT-6f" d="M 1600 2947 
Q 2250 2947 2644 2453 
Q 2978 2031 2978 1484 
Q 2978 1100 2793 706 
Q 2609 313 2286 112 
Q 1963 -88 1566 -88 
Q 919 -88 538 428 
Q 216 863 216 1403 
Q 216 1797 411 2186 
Q 606 2575 925 2761 
Q 1244 2947 1600 2947 
z
M 1503 2744 
Q 1338 2744 1170 2645 
Q 1003 2547 900 2300 
Q 797 2053 797 1666 
Q 797 1041 1045 587 
Q 1294 134 1700 134 
Q 2003 134 2200 384 
Q 2397 634 2397 1244 
Q 2397 2006 2069 2444 
Q 1847 2744 1503 2744 
z
" transform="scale(0.015625)"/>
       <path id="TimesNewRomanPSMT-73" d="M 2050 2947 
L 2050 1972 
L 1947 1972 
Q 1828 2431 1642 2597 
Q 1456 2763 1169 2763 
Q 950 2763 815 2647 
Q 681 2531 681 2391 
Q 681 2216 781 2091 
Q 878 1963 1175 1819 
L 1631 1597 
Q 2266 1288 2266 781 
Q 2266 391 1970 151 
Q 1675 -88 1309 -88 
Q 1047 -88 709 6 
Q 606 38 541 38 
Q 469 38 428 -44 
L 325 -44 
L 325 978 
L 428 978 
Q 516 541 762 319 
Q 1009 97 1316 97 
Q 1531 97 1667 223 
Q 1803 350 1803 528 
Q 1803 744 1651 891 
Q 1500 1038 1047 1263 
Q 594 1488 453 1669 
Q 313 1847 313 2119 
Q 313 2472 555 2709 
Q 797 2947 1181 2947 
Q 1350 2947 1591 2875 
Q 1750 2828 1803 2828 
Q 1853 2828 1881 2850 
Q 1909 2872 1947 2947 
L 2050 2947 
z
" transform="scale(0.015625)"/>
      </defs>
      <use xlink:href="#TimesNewRomanPSMT-4c"/>
      <use xlink:href="#TimesNewRomanPSMT-6f" transform="translate(61.083984 0)"/>
      <use xlink:href="#TimesNewRomanPSMT-73" transform="translate(111.083984 0)"/>
      <use xlink:href="#TimesNewRomanPSMT-73" transform="translate(150 0)"/>
     </g>
    </g>
   </g>
   <g id="line2d_15">
    <path d="M 220.178812 57.938947 
L 315.856625 60.75551 
L 341.648163 97.391966 
L 357.181957 82.580602 
L 368.333048 107.373536 
L 377.03791 106.155908 
L 384.179067 117.753567 
L 390.233676 113.696915 
L 395.489131 118.273453 
L 400.132005 126.00353 
L 404.290313 129.68735 
L 408.055711 139.673133 
L 411.496079 123.59359 
L 414.663101 134.957104 
L 417.597033 140.803274 
L 420.329847 137.220698 
L 422.887354 140.687383 
L 425.290697 149.334222 
L 427.55741 150.466127 
L 429.702196 140.815398 
L 431.737504 145.782426 
L 433.673971 154.699376 
L 435.520753 155.738007 
L 437.285791 152.765542 
L 438.976017 153.737933 
L 440.597514 159.001758 
L 442.155655 157.28069 
L 443.655204 161.322144 
L 445.10041 162.24228 
L 446.495074 165.782744 
L 447.842611 168.246775 
L 449.146103 162.847913 
L 450.408338 166.07427 
L 451.631848 165.627683 
L 452.818938 170.265119 
L 453.971715 172.099449 
L 455.092105 169.897437 
L 456.18188 168.716926 
L 457.242668 177.647885 
L 458.275971 175.307883 
L 459.283178 168.816299 
L 460.265574 179.274382 
L 461.224353 178.826271 
L 462.160622 186.089605 
L 463.075416 184.486012 
L 463.969697 178.207073 
L 464.844365 177.054136 
L 465.700261 183.345572 
L 466.538176 188.354399 
L 467.358847 189.628004 
L 468.162972 187.820037 
L 468.951204 184.928794 
L 469.72416 190.378794 
L 470.482419 190.349623 
L 471.226531 194.526752 
L 471.957013 191.66618 
L 472.674357 190.179978 
L 473.379026 187.180227 
L 474.071461 194.874434 
L 474.752079 196.099625 
L 475.421276 201.800974 
L 476.07943 195.877244 
L 476.726899 200.618566 
L 477.364025 197.622633 
L 477.991133 200.48539 
L 478.608532 197.466372 
L 479.21652 195.658164 
L 480.405378 206.046299 
L 480.986776 203.67529 
L 481.559821 203.035132 
L 482.124748 199.0437 
L 482.681785 206.79548 
L 483.23115 209.800909 
L 483.77305 203.826797 
L 484.307685 206.454592 
L 484.835249 212.456566 
L 485.355924 206.515526 
L 485.86989 210.411908 
L 486.377317 211.843298 
L 486.878369 213.971566 
L 487.373204 209.407717 
L 487.861975 211.325429 
L 488.344829 211.149079 
L 488.821906 217.904447 
L 489.293345 218.022102 
L 489.759275 214.224229 
L 490.219825 215.01258 
L 490.675118 217.535055 
L 491.125272 215.691146 
L 491.570402 220.233405 
L 492.010618 218.838226 
L 492.446028 224.114799 
L 493.302843 219.413806 
L 493.724446 222.219842 
L 494.141638 219.898843 
L 494.554511 216.780717 
L 494.963154 219.371911 
L 495.367652 220.804454 
L 495.768089 216.424481 
L 496.164546 218.822861 
L 496.5571 230.715912 
L 496.945828 225.504841 
L 497.330804 225.992909 
L 497.7121 232.316516 
L 498.089784 227.648613 
L 498.463926 221.346301 
L 498.83459 226.528454 
L 499.201841 229.707076 
L 499.565742 231.003951 
L 499.926352 223.978202 
L 500.28373 231.079687 
L 500.637935 228.457558 
L 500.989022 230.1962 
L 501.337045 229.154214 
L 501.682057 237.716962 
L 502.024111 234.569432 
L 502.363256 234.681469 
L 502.699541 237.138483 
L 503.033014 234.1922 
L 503.363723 238.448677 
L 503.691711 235.769204 
L 504.017024 239.908098 
L 504.339706 237.941666 
L 504.659797 239.096488 
L 504.97734 241.724595 
L 505.292375 239.967316 
L 505.604941 241.58577 
L 505.915076 241.58077 
L 506.222818 235.657857 
L 506.528204 242.427355 
L 506.831269 238.495699 
L 507.132049 240.569131 
L 507.430577 239.990628 
L 507.726887 245.878056 
L 508.021012 242.646987 
L 508.312984 241.144669 
L 508.602834 240.495676 
L 508.890593 242.286046 
L 509.17629 244.95085 
L 509.459956 246.248967 
L 509.741618 246.64531 
L 510.021305 242.946467 
L 510.299044 248.768459 
L 510.574862 246.23404 
L 510.848786 246.077143 
L 511.120842 244.819594 
L 511.391054 250.692131 
L 511.659448 248.496349 
L 511.926048 249.945044 
L 512.190877 248.813685 
L 512.45396 249.949162 
L 512.715319 246.62845 
L 512.974976 252.847241 
L 513.232953 252.891687 
L 513.489273 248.067529 
L 513.743955 254.112209 
L 513.997022 254.290089 
L 514.248493 250.972853 
L 514.498389 252.218674 
L 514.746728 250.649155 
L 514.993531 254.676949 
L 515.238816 255.044877 
L 515.482601 254.810143 
L 515.724905 256.175641 
L 515.965747 252.74692 
L 516.205142 255.694194 
L 516.443109 254.211335 
L 516.679665 260.083541 
L 516.914826 255.632167 
L 517.148608 258.623821 
L 517.381029 256.810193 
L 517.612102 256.137984 
L 517.841845 259.090875 
L 518.070271 256.206049 
L 518.297397 257.539237 
L 518.523237 257.161867 
L 518.971115 261.432933 
L 519.193183 258.591103 
L 519.41402 261.01861 
L 519.633642 255.352141 
L 519.852061 261.951615 
L 520.06929 262.627546 
L 520.50023 259.3552 
L 520.713967 264.132403 
L 520.926565 263.757611 
L 521.138035 263.786502 
L 521.34839 268.605472 
L 521.557641 261.806422 
L 521.7658 262.804652 
L 521.972878 264.534744 
L 522.178886 264.875945 
L 522.587739 268.157936 
L 522.790604 265.648724 
L 522.992442 265.153312 
L 523.193264 267.458972 
L 523.39308 263.754214 
L 523.789733 271.431309 
L 523.986591 270.286865 
L 524.182481 267.039218 
L 524.377414 267.624288 
L 524.571398 270.531953 
L 524.764444 271.084286 
L 525.147755 269.270541 
L 525.338037 267.54649 
L 525.527417 269.886789 
L 525.715901 268.465318 
L 525.903498 272.063763 
L 526.090218 271.261321 
L 526.276067 276.189632 
L 526.461054 275.014526 
L 526.645187 271.165139 
L 526.828474 271.490016 
L 527.010923 273.444941 
L 527.373335 271.255571 
L 527.553313 271.60678 
L 527.732483 273.326527 
L 527.910852 270.931311 
L 528.088427 274.786947 
L 528.265214 273.212002 
L 528.441221 274.276092 
L 528.616455 278.372163 
L 528.790922 275.605163 
L 529.137584 277.967811 
L 529.309791 276.316623 
L 529.481258 276.712141 
L 529.651991 278.759947 
L 529.99128 275.516303 
L 530.159849 278.840328 
L 530.327707 279.538413 
L 530.494862 279.145545 
L 530.827086 277.671014 
L 530.992165 279.51531 
L 531.156564 277.939219 
L 531.320289 280.056747 
L 531.483344 277.765159 
L 531.968546 283.582013 
L 532.128978 279.157493 
L 532.288766 282.869535 
L 532.447917 282.374925 
L 532.606435 280.26791 
L 532.764326 282.536996 
L 532.921595 277.730283 
L 533.078245 282.027647 
L 533.234283 280.687538 
L 533.389712 284.427677 
L 533.544538 280.099377 
L 533.852399 283.736879 
L 534.005443 282.46358 
L 534.157902 285.197899 
L 534.30978 283.923385 
L 534.461082 283.626829 
L 534.611812 285.188355 
L 534.761975 284.769066 
L 534.911574 285.085403 
L 535.2091 281.672768 
L 535.357035 287.018969 
L 535.504423 284.084988 
L 535.651269 285.583732 
L 535.797575 285.879363 
L 535.943347 288.80689 
L 536.233303 283.930479 
L 536.377494 282.857606 
L 536.521165 287.550033 
L 536.806965 287.847639 
L 536.9491 286.899517 
L 537.090731 287.72826 
L 537.23186 284.979599 
L 537.372492 289.3568 
L 537.652277 284.684537 
L 537.791437 289.720111 
L 537.930113 289.082821 
L 538.068308 287.117768 
L 538.206027 289.677825 
L 538.343271 288.881809 
L 538.480045 289.087578 
L 538.616351 288.343887 
L 538.752193 289.147284 
L 538.887574 290.874446 
L 539.022497 289.721535 
L 539.156965 290.881138 
L 539.290981 289.88837 
L 539.424548 290.655609 
L 539.690348 290.649413 
L 539.822587 291.097403 
L 539.954389 287.620222 
L 540.085756 291.215204 
L 540.216693 289.436321 
L 540.347201 292.018929 
L 540.477283 290.789596 
L 540.606942 292.908935 
L 540.736181 289.117452 
L 540.865003 288.968521 
L 540.99341 292.032387 
L 541.121405 290.831295 
L 541.24899 293.406314 
L 541.376169 291.406036 
L 541.502943 291.562687 
L 541.755289 292.556155 
L 541.880866 291.122321 
L 542.13084 294.906449 
L 542.255241 294.426823 
L 542.379256 295.818175 
L 542.502887 292.965912 
L 542.626135 293.903838 
L 542.749004 293.263199 
L 543.115355 295.20278 
L 543.236728 294.317845 
L 543.357733 294.370066 
L 543.478372 294.193291 
L 543.598647 294.391104 
L 543.71856 296.376853 
L 543.838114 295.590089 
L 543.957311 296.444816 
L 544.194641 294.455239 
L 544.312778 295.280074 
L 544.430567 294.968435 
L 544.665105 296.215916 
L 544.781859 293.874154 
L 544.898273 295.107064 
L 545.014347 295.075913 
L 545.130085 294.927641 
L 545.245488 297.212136 
L 545.360557 295.241726 
L 545.475296 298.155383 
L 545.589706 297.693386 
L 545.817545 294.129704 
L 545.930979 298.290264 
L 546.156882 296.361608 
L 546.381513 298.947542 
L 546.604886 298.093603 
L 546.716106 299.579715 
L 546.937618 297.771524 
L 547.047914 297.27375 
L 547.267596 299.316213 
L 547.376985 297.477775 
L 547.486075 299.306252 
L 547.594867 298.784863 
L 547.703363 298.957595 
L 547.811565 299.535435 
L 547.919474 297.976902 
L 548.027092 298.822441 
L 548.13442 298.31808 
L 548.24146 300.065592 
L 548.348214 298.76858 
L 548.454683 299.675264 
L 548.560868 298.760299 
L 548.666771 298.960791 
L 548.772394 300.18813 
L 548.877738 299.52801 
L 548.982804 301.116981 
L 549.19211 299.022288 
L 549.400324 301.079526 
L 549.607456 298.078336 
L 549.71062 300.060765 
L 549.813517 299.933148 
L 549.91615 300.492586 
L 550.01852 298.851312 
L 550.222474 301.779052 
L 550.324061 300.618172 
L 550.526463 301.226593 
L 550.727843 303.436495 
L 550.828153 301.011384 
L 551.028019 302.174498 
L 551.127577 301.802819 
L 551.226888 299.792132 
L 551.424771 302.71858 
L 551.523345 299.993753 
L 551.719766 303.055895 
L 551.915224 301.757123 
L 552.012595 303.067903 
L 552.109729 300.600787 
L 552.30329 303.691173 
L 552.495916 301.350577 
L 552.783122 302.027286 
L 552.8784 303.92671 
L 552.97345 302.761303 
L 553.068274 303.660095 
L 553.162874 302.347417 
L 553.25725 304.422038 
L 553.351403 302.203265 
L 553.539044 303.484257 
L 553.632535 302.226579 
L 553.818862 304.3047 
L 553.9117 303.502483 
L 554.09673 304.348699 
L 554.188924 304.079359 
L 554.280906 302.745657 
L 554.372675 304.436748 
L 554.464235 303.224096 
L 554.646725 305.318064 
L 554.737658 305.048563 
L 554.828384 304.302888 
L 554.918904 304.843825 
L 555.009219 304.251601 
L 555.09933 304.506834 
L 555.189238 305.57524 
L 555.368448 303.049385 
L 555.457752 304.183046 
L 555.546857 303.943094 
L 555.635763 303.815035 
L 555.724471 305.081475 
L 555.812982 304.131378 
L 555.901297 304.346878 
L 555.989418 305.012702 
L 556.077344 304.617138 
L 556.165076 305.446819 
L 556.252616 304.240903 
L 556.339964 304.691261 
L 556.427121 304.337931 
L 556.514089 304.746341 
L 556.600867 304.320235 
L 556.773858 305.680077 
L 556.860074 305.514068 
L 556.946103 305.218162 
L 557.031947 305.602203 
L 557.203083 304.307885 
L 557.458418 305.916129 
L 557.543167 304.831666 
L 557.712128 306.133651 
L 557.880376 305.587944 
L 557.964235 306.339917 
L 558.047918 306.049618 
L 558.214758 306.499462 
L 558.380904 305.710244 
L 558.463718 306.283551 
L 558.711132 305.534507 
L 558.875227 307.031277 
L 558.957022 306.323954 
L 559.038649 307.20346 
L 559.12011 306.398096 
L 559.201405 306.574816 
L 559.363499 307.15753 
L 559.444299 306.797612 
L 559.524937 306.909904 
L 559.685724 307.102825 
L 559.765875 306.214836 
L 559.845865 306.289801 
L 559.925695 306.501943 
L 560.005366 307.576775 
L 560.084878 307.408197 
L 560.164232 307.623161 
L 560.243428 306.492093 
L 560.322467 307.350842 
L 560.40135 307.140643 
L 560.480077 307.756648 
L 560.558649 307.508556 
L 560.637067 307.685038 
L 560.71533 307.61862 
L 560.949204 307.418318 
L 561.026858 306.371233 
L 561.181714 307.568307 
L 561.258918 306.968713 
L 561.335972 307.881791 
L 561.412877 307.716078 
L 561.489635 307.870107 
L 561.566245 308.37474 
L 561.719025 306.852274 
L 561.947103 308.449124 
L 562.173884 307.920517 
L 562.249192 308.136248 
L 562.324358 307.439445 
L 562.399383 308.072188 
L 562.474267 307.999151 
L 562.549011 308.015499 
L 562.623614 308.302295 
L 562.698079 307.967313 
L 562.772404 308.622056 
L 562.920642 307.942899 
L 562.994554 308.463959 
L 563.06833 308.225941 
L 563.141969 307.699971 
L 563.215473 308.389513 
L 563.288842 308.197113 
L 563.362076 308.17164 
L 563.508141 308.747278 
L 563.580974 308.28109 
L 563.653674 308.387544 
L 563.798677 308.520607 
L 563.870982 308.894163 
L 563.943156 308.827853 
L 564.087112 308.433234 
L 564.302078 308.93603 
L 564.373476 308.445646 
L 564.444747 308.725178 
L 564.515891 308.43014 
L 564.728564 309.193715 
L 564.799203 308.550042 
L 564.869718 309.083772 
L 564.940108 308.81546 
L 565.010375 309.026554 
L 565.080517 308.919227 
L 565.150537 308.726346 
L 565.220434 309.323371 
L 565.290209 308.975114 
L 565.359861 309.347657 
L 565.429393 309.229229 
L 565.498803 309.484664 
L 565.706312 308.865382 
L 565.844054 309.275266 
L 566.118119 309.234367 
L 566.186342 309.344306 
L 566.254449 309.072247 
L 566.322439 309.610218 
L 566.390314 309.507131 
L 566.458073 308.930068 
L 566.525718 309.554795 
L 566.593248 309.067426 
L 566.660663 309.338248 
L 566.86223 309.594569 
L 566.929193 309.438986 
L 566.996043 309.621035 
L 567.062782 309.289451 
L 567.12941 309.649024 
L 567.195926 309.609839 
L 567.526853 309.38632 
L 567.658459 309.916311 
L 567.7241 309.593004 
L 567.789633 309.690469 
L 567.920376 309.543454 
L 568.050692 310.057688 
L 568.245371 309.508752 
L 568.374631 309.809119 
L 568.439104 309.774757 
L 568.503473 310.262886 
L 568.567739 309.495027 
L 568.631901 309.721406 
L 568.759916 309.952585 
L 568.82377 309.85593 
L 568.887522 310.00517 
L 568.951172 309.905121 
L 569.014721 309.848354 
L 569.078169 310.2548 
L 569.141515 309.694059 
L 569.204762 310.078452 
L 569.267908 310.290129 
L 569.330954 310.114321 
L 569.393901 309.933549 
L 569.456749 310.193743 
L 569.519498 310.092413 
L 569.582148 310.002167 
L 569.6447 310.075637 
L 569.769511 310.065387 
L 569.83177 309.910268 
L 569.955997 310.316395 
L 570.017966 310.297012 
L 570.079839 310.184614 
L 570.141616 310.304582 
L 570.264883 310.093877 
L 570.693343 310.489323 
L 570.754178 310.216247 
L 570.81492 310.290798 
L 570.996593 310.459587 
L 571.177442 310.29585 
L 571.237543 310.456519 
L 571.297554 310.37047 
L 571.357474 310.30175 
L 571.417305 310.500348 
L 571.477046 310.266469 
L 571.536698 310.376324 
L 571.71512 310.549104 
L 571.774417 310.390175 
L 571.892747 310.546652 
L 571.951781 310.419314 
L 572.010727 310.470956 
L 572.069587 310.629159 
L 572.128359 310.525233 
L 572.245646 310.364668 
L 572.30416 310.60241 
L 572.362588 310.527062 
L 572.537361 310.239919 
L 572.653452 310.664094 
L 572.769207 310.486271 
L 572.999713 310.618518 
L 573.057132 310.435162 
L 573.171722 310.753693 
L 573.228894 310.690181 
L 573.285984 310.791058 
L 573.342993 310.681642 
L 573.513531 310.43927 
L 573.626819 310.78303 
L 573.683343 310.768678 
L 573.739787 310.713219 
L 573.796151 310.772145 
L 574.020814 310.796993 
L 574.076782 310.890728 
L 574.132672 310.793803 
L 574.299874 310.791301 
L 574.410954 310.887027 
L 574.466378 310.74446 
L 574.521725 310.95165 
L 574.576995 310.814712 
L 574.687307 310.810032 
L 574.742349 310.7475 
L 574.797315 310.822435 
L 575.016423 310.894052 
L 575.666618 310.947378 
L 575.827524 310.871706 
L 575.881015 311.015376 
L 575.934435 310.985815 
L 576.306383 311.005313 
L 576.464734 311.052152 
L 576.517378 310.961375 
L 576.569952 311.012678 
L 576.622458 311.054518 
L 576.779561 310.863855 
L 576.936047 311.033158 
L 577.091922 310.991609 
L 577.24719 311.053887 
L 577.298812 311.083671 
L 577.298812 311.083671 
" clip-path="url(#p7843f217cc)" style="fill: none; stroke: #ffa500; stroke-width: 1.5; stroke-linecap: square"/>
   </g>
   <g id="line2d_16">
    <path d="M 220.178812 53.587503 
L 315.856625 75.456915 
L 341.648163 85.985668 
L 357.181957 90.004591 
L 368.333048 94.378146 
L 377.03791 97.047776 
L 384.179067 100.572767 
L 390.233676 97.876583 
L 395.489131 103.683558 
L 400.132005 103.727854 
L 404.290313 106.690175 
L 408.055711 107.340692 
L 411.496079 109.447437 
L 414.663101 110.233772 
L 417.597033 110.535298 
L 420.329847 112.201458 
L 422.887354 111.955572 
L 425.290697 112.121833 
L 429.702196 113.260808 
L 431.737504 114.370841 
L 433.673971 112.946533 
L 435.520753 115.45198 
L 437.285791 116.028802 
L 438.976017 115.903404 
L 440.597514 116.326211 
L 442.155655 116.503635 
L 443.655204 117.375681 
L 445.10041 117.541762 
L 446.495074 117.181283 
L 447.842611 117.254281 
L 449.146103 117.881978 
L 450.408338 117.118908 
L 451.631848 115.713867 
L 453.971715 118.724398 
L 456.18188 117.808788 
L 457.242668 118.734925 
L 458.275971 117.639874 
L 459.283178 118.931041 
L 460.265574 119.181416 
L 461.224353 119.083953 
L 462.160622 119.162485 
L 463.075416 117.655107 
L 463.969697 119.630308 
L 464.844365 119.156315 
L 465.700261 119.917033 
L 468.162972 120.378709 
L 468.951204 120.177024 
L 470.482419 121.108732 
L 471.226531 121.122224 
L 471.957013 121.29594 
L 472.674357 118.254906 
L 473.379026 121.495081 
L 474.071461 122.460137 
L 474.752079 121.668244 
L 476.726899 122.186113 
L 477.364025 122.091206 
L 477.991133 121.674822 
L 478.608532 122.229533 
L 479.21652 122.249772 
L 479.815379 121.4071 
L 480.405378 121.134937 
L 480.986776 122.682854 
L 481.559821 123.020009 
L 482.681785 122.132609 
L 483.23115 122.352529 
L 483.77305 122.98528 
L 484.307685 122.292976 
L 484.835249 118.496987 
L 485.355924 122.088793 
L 485.86989 120.242519 
L 486.377317 122.888021 
L 486.878369 123.450006 
L 487.373204 123.29569 
L 487.861975 123.598788 
L 488.344829 122.982327 
L 488.821906 123.153113 
L 489.293345 123.056694 
L 489.759275 123.53735 
L 490.219825 123.090991 
L 491.125272 123.154506 
L 491.570402 122.879486 
L 492.010618 123.607887 
L 492.446028 121.637416 
L 492.876737 123.035819 
L 493.302843 123.472118 
L 493.724446 123.629399 
L 494.141638 123.477316 
L 494.963154 122.342986 
L 495.367652 122.054821 
L 495.768089 123.395842 
L 496.164546 123.95581 
L 496.5571 124.098699 
L 497.330804 123.573639 
L 497.7121 123.638042 
L 498.089784 123.939292 
L 498.463926 123.573267 
L 498.83459 123.734522 
L 499.201841 122.758481 
L 499.565742 123.885369 
L 499.926352 123.760127 
L 500.28373 121.397605 
L 500.637935 121.899796 
L 500.989022 124.124988 
L 501.337045 123.608728 
L 501.682057 123.75751 
L 502.024111 123.761916 
L 502.363256 123.101579 
L 502.699541 123.135215 
L 503.033014 123.721521 
L 503.363723 121.592184 
L 503.691711 123.424893 
L 504.017024 123.1819 
L 504.339706 123.873989 
L 504.659797 124.18603 
L 504.97734 123.608584 
L 505.292375 124.026888 
L 505.604941 123.745025 
L 505.915076 122.75338 
L 506.222818 123.704583 
L 506.528204 123.124591 
L 506.831269 123.703766 
L 507.132049 123.150653 
L 507.430577 124.266376 
L 507.726887 123.457677 
L 508.021012 123.636218 
L 508.312984 121.083474 
L 508.602834 123.761399 
L 508.890593 122.543183 
L 509.17629 123.653636 
L 510.021305 123.379816 
L 510.574862 123.601525 
L 510.848786 123.550542 
L 511.120842 122.434447 
L 511.391054 123.888706 
L 511.926048 123.02894 
L 512.45396 123.012806 
L 512.715319 123.611057 
L 512.974976 123.318198 
L 513.489273 123.241994 
L 513.743955 122.927347 
L 513.997022 123.078554 
L 514.248493 122.104735 
L 514.498389 122.787604 
L 514.746728 122.666072 
L 514.993531 123.148864 
L 515.238816 120.294018 
L 515.482601 122.781242 
L 515.724905 121.097856 
L 515.965747 121.0553 
L 516.205142 120.736056 
L 516.443109 122.541634 
L 516.679665 122.106392 
L 516.914826 122.841216 
L 517.148608 121.066164 
L 517.612102 122.495225 
L 517.841845 122.254706 
L 518.070271 121.1434 
L 518.297397 121.655903 
L 518.523237 120.831682 
L 518.747805 120.84245 
L 518.971115 118.930729 
L 519.193183 121.095791 
L 519.41402 121.424795 
L 519.852061 121.028734 
L 520.06929 121.771409 
L 520.285342 121.676011 
L 520.713967 121.040091 
L 521.138035 120.568186 
L 521.34839 120.162054 
L 521.557641 120.548331 
L 521.7658 120.29373 
L 522.178886 120.417567 
L 522.383836 119.914344 
L 522.587739 120.583072 
L 522.790604 120.483952 
L 522.992442 120.553553 
L 523.5919 119.977547 
L 523.789733 120.484084 
L 524.182481 119.625134 
L 524.377414 119.815152 
L 524.571398 119.694988 
L 524.95656 119.106221 
L 525.147755 119.291292 
L 525.338037 119.128681 
L 525.527417 118.699837 
L 525.715901 119.313537 
L 525.903498 119.13041 
L 526.090218 119.208426 
L 526.276067 117.305012 
L 526.461054 119.336741 
L 527.010923 118.205088 
L 527.19254 118.23307 
L 527.373335 119.258917 
L 527.553313 118.919229 
L 527.732483 118.122978 
L 527.910852 116.375909 
L 528.088427 118.458248 
L 528.265214 118.413484 
L 528.441221 118.728287 
L 528.616455 118.065369 
L 528.790922 118.049439 
L 528.96463 117.381071 
L 529.137584 117.866565 
L 529.309791 114.913079 
L 529.481258 117.586238 
L 529.651991 118.25295 
L 529.821997 118.301663 
L 529.99128 118.175965 
L 530.159849 117.758057 
L 530.327707 116.914689 
L 530.494862 115.154583 
L 530.66132 117.340533 
L 531.156564 116.59967 
L 531.320289 117.220897 
L 531.483344 117.270271 
L 531.645735 116.755535 
L 531.807467 115.762161 
L 531.968546 116.87391 
L 532.288766 115.957532 
L 532.447917 116.741502 
L 532.764326 115.932239 
L 532.921595 116.952359 
L 533.078245 114.600593 
L 533.234283 116.501631 
L 533.389712 116.198244 
L 533.544538 116.284639 
L 533.698766 116.148714 
L 533.852399 114.828136 
L 534.005443 114.739232 
L 534.157902 115.200368 
L 534.30978 116.069869 
L 534.461082 116.034552 
L 534.611812 115.796829 
L 534.761975 115.825184 
L 535.060615 114.339978 
L 535.2091 115.715836 
L 535.357035 115.429687 
L 535.504423 114.787297 
L 535.651269 113.623616 
L 535.943347 115.346689 
L 536.088588 114.25842 
L 536.233303 114.731981 
L 536.377494 114.364131 
L 536.521165 115.252947 
L 536.664321 114.413565 
L 536.806965 115.287484 
L 536.9491 114.036579 
L 537.090731 113.873632 
L 537.23186 114.201063 
L 537.372492 113.890846 
L 537.51263 113.978154 
L 537.652277 114.276535 
L 538.068308 112.689027 
L 538.343271 113.04575 
L 538.480045 114.338549 
L 538.616351 113.413576 
L 538.887574 113.3915 
L 539.022497 112.132588 
L 539.156965 112.725761 
L 539.290981 112.106155 
L 539.424548 112.537856 
L 539.55767 112.139539 
L 539.690348 112.333674 
L 539.822587 112.207772 
L 539.954389 111.604384 
L 540.085756 112.179886 
L 540.216693 112.23477 
L 540.347201 112.687215 
L 540.477283 112.364741 
L 540.606942 110.367428 
L 540.736181 112.1432 
L 540.865003 112.044716 
L 540.99341 111.460775 
L 541.121405 112.439228 
L 541.376169 112.042796 
L 541.502943 112.061955 
L 541.755289 110.657022 
L 541.880866 111.431617 
L 542.006049 110.563412 
L 542.255241 111.622714 
L 542.379256 111.389349 
L 542.502887 110.916605 
L 542.626135 111.196715 
L 542.749004 111.034152 
L 542.871495 111.159225 
L 543.115355 110.694656 
L 543.236728 110.849764 
L 543.357733 110.238453 
L 543.478372 110.274454 
L 543.598647 110.545393 
L 543.838114 110.044631 
L 543.957311 110.692483 
L 544.312778 109.987682 
L 544.430567 109.057558 
L 544.548009 110.121363 
L 544.781859 109.306649 
L 545.014347 108.90167 
L 545.130085 108.988197 
L 545.245488 108.750222 
L 545.360557 109.055782 
L 545.475296 107.934477 
L 545.703788 108.993983 
L 545.930979 108.240324 
L 546.04409 109.00618 
L 546.156882 107.951259 
L 546.269356 108.688448 
L 546.493356 108.151732 
L 546.604886 108.611908 
L 546.827015 107.979037 
L 546.937618 108.031472 
L 547.047914 108.308029 
L 547.157906 107.408325 
L 547.267596 107.957069 
L 547.376985 106.324977 
L 547.594867 107.527864 
L 547.703363 107.272267 
L 547.811565 107.672613 
L 547.919474 104.794611 
L 548.027092 106.713703 
L 548.13442 106.108082 
L 548.24146 106.877611 
L 548.348214 106.479066 
L 548.454683 107.263768 
L 548.560868 105.211355 
L 548.666771 107.052251 
L 548.772394 106.973358 
L 548.877738 106.971653 
L 549.19211 106.130266 
L 549.296353 106.685853 
L 549.400324 105.838896 
L 549.607456 106.352611 
L 550.01852 105.156735 
L 550.120627 105.999875 
L 550.222474 104.831921 
L 550.425391 105.456677 
L 550.526463 105.522004 
L 550.62728 104.518822 
L 550.727843 104.672454 
L 550.828153 105.238653 
L 551.028019 105.010546 
L 551.127577 105.057675 
L 551.226888 104.406413 
L 551.424771 104.872784 
L 551.523345 104.340677 
L 551.621676 104.990715 
L 552.012595 103.43137 
L 552.109729 102.711611 
L 552.30329 104.328481 
L 552.495916 103.251976 
L 552.591881 103.373629 
L 552.687616 103.973367 
L 552.8784 102.367373 
L 552.97345 102.594376 
L 553.068274 103.110877 
L 553.162874 102.822051 
L 553.25725 102.928842 
L 553.351403 102.805485 
L 553.539044 102.180681 
L 553.632535 102.405619 
L 553.725807 102.169373 
L 553.818862 102.69915 
L 554.09673 101.844319 
L 554.188924 102.345213 
L 554.280906 101.773013 
L 554.372675 100.291984 
L 554.464235 101.564376 
L 554.555584 100.78558 
L 554.737658 101.88182 
L 554.828384 101.291901 
L 554.918904 101.977471 
L 555.09933 101.833683 
L 555.189238 100.87242 
L 555.278944 100.919669 
L 555.368448 101.206406 
L 555.546857 100.537138 
L 555.635763 101.100791 
L 555.812982 100.784644 
L 555.901297 100.979091 
L 555.989418 100.392773 
L 556.165076 100.863201 
L 556.252616 100.226752 
L 556.339964 100.467248 
L 556.427121 100.435533 
L 556.600867 100.426649 
L 556.687456 100.048391 
L 556.773858 100.388091 
L 556.946103 98.689976 
L 557.031947 100.218998 
L 557.117607 99.787656 
L 557.203083 99.485482 
L 557.373488 99.871975 
L 557.458418 98.31928 
L 557.543167 99.563318 
L 557.627737 99.277158 
L 557.712128 99.847918 
L 557.880376 98.696362 
L 558.131425 98.884567 
L 558.214758 98.411162 
L 558.297917 98.966941 
L 558.628831 97.951082 
L 558.711132 98.416372 
L 558.875227 97.086671 
L 559.038649 98.096119 
L 559.12011 98.123585 
L 559.201405 97.013108 
L 559.282534 98.295704 
L 559.444299 97.421689 
L 559.524937 97.630493 
L 559.605411 97.585429 
L 559.685724 97.35468 
L 559.765875 97.83003 
L 559.845865 96.808073 
L 559.925695 97.461711 
L 560.005366 97.210724 
L 560.243428 96.860868 
L 560.322467 95.972736 
L 560.40135 97.250819 
L 560.480077 96.966075 
L 560.558649 95.650731 
L 560.637067 97.144196 
L 560.71533 96.896209 
L 560.793441 96.187423 
L 560.871398 96.752949 
L 560.949204 95.996673 
L 561.026858 96.307778 
L 561.104361 96.665773 
L 561.181714 95.641703 
L 561.258918 96.210303 
L 561.335972 96.046803 
L 561.489635 95.618151 
L 561.566245 95.715314 
L 561.642708 95.197445 
L 561.795196 95.570181 
L 561.871221 95.574023 
L 562.173884 94.088 
L 562.249192 94.966289 
L 562.324358 94.562606 
L 562.399383 94.386333 
L 562.474267 95.107677 
L 562.698079 93.138598 
L 562.846592 94.312795 
L 562.920642 93.312878 
L 563.06833 94.291499 
L 563.141969 93.91 
L 563.215473 94.610671 
L 563.435175 93.491527 
L 563.508141 94.032876 
L 563.580974 93.663358 
L 563.653674 93.695385 
L 563.726241 93.914513 
L 563.798677 93.157085 
L 563.870982 93.887815 
L 563.943156 93.823112 
L 564.015199 93.00667 
L 564.158896 93.574069 
L 564.230551 93.129283 
L 564.302078 93.255305 
L 564.373476 93.070293 
L 564.444747 93.307212 
L 564.515891 91.806544 
L 564.586908 92.711002 
L 564.657799 92.693164 
L 564.728564 92.994666 
L 564.940108 92.364556 
L 565.010375 92.459342 
L 565.080517 92.322732 
L 565.150537 91.891271 
L 565.220434 92.458814 
L 565.290209 92.05854 
L 565.359861 92.448538 
L 565.498803 91.891631 
L 565.568093 91.891847 
L 565.637262 92.176951 
L 565.844054 91.047291 
L 565.912747 91.151393 
L 566.049779 91.765321 
L 566.118119 91.21965 
L 566.186342 91.386607 
L 566.322439 91.573203 
L 566.458073 90.887201 
L 566.525718 91.509844 
L 566.593248 91.032766 
L 566.660663 91.411072 
L 566.86223 90.637245 
L 566.929193 90.825546 
L 567.062782 90.367387 
L 567.12941 90.592373 
L 567.195926 90.537825 
L 567.328627 90.251929 
L 567.394812 88.932287 
L 567.526853 90.071839 
L 567.592711 90.350413 
L 567.658459 90.245494 
L 567.920376 89.425259 
L 567.985587 89.407109 
L 568.050692 88.409785 
L 568.180583 89.720831 
L 568.245371 89.710099 
L 568.310053 88.486661 
L 568.439104 89.473901 
L 568.503473 88.502218 
L 568.567739 89.579011 
L 568.631901 88.479434 
L 568.69596 89.104886 
L 568.82377 88.679019 
L 568.887522 88.833011 
L 569.078169 88.026485 
L 569.141515 88.550476 
L 569.204762 88.131067 
L 569.267908 88.250703 
L 569.393901 88.514151 
L 569.456749 88.40712 
L 569.582148 88.420156 
L 569.6447 88.582072 
L 569.707154 88.436795 
L 569.893932 87.782292 
L 569.955997 87.974938 
L 570.017966 87.456949 
L 570.079839 87.741645 
L 570.264883 88.209408 
L 570.326374 86.908085 
L 570.387771 87.669427 
L 570.449073 87.787117 
L 570.571395 87.2571 
L 570.632416 87.529864 
L 570.693343 87.361898 
L 570.754178 87.140514 
L 570.81492 87.403674 
L 570.87557 86.691142 
L 570.936127 86.981263 
L 570.996593 86.681538 
L 571.056967 86.798173 
L 571.237543 86.663051 
L 571.297554 86.323976 
L 571.357474 86.605406 
L 571.417305 86.315068 
L 571.477046 86.597099 
L 571.655735 85.983603 
L 571.71512 86.507066 
L 571.774417 86.230389 
L 571.833626 85.982691 
L 571.892747 86.240545 
L 571.951781 86.065185 
L 572.069587 85.456371 
L 572.187046 86.088786 
L 572.479188 84.362076 
L 572.595449 85.681477 
L 572.942211 84.696686 
L 572.999713 84.919583 
L 573.057132 84.787295 
L 573.114468 84.211469 
L 573.171722 85.009304 
L 573.228894 84.613351 
L 573.285984 84.386829 
L 573.39992 84.778988 
L 573.570215 83.380214 
L 573.683343 84.346494 
L 573.739787 84.341332 
L 573.964766 83.44847 
L 574.020814 83.467701 
L 574.076782 83.393466 
L 574.244218 83.910591 
L 574.299874 83.856667 
L 574.355453 83.244708 
L 574.410954 83.859981 
L 574.466378 83.98341 
L 574.576995 82.776249 
L 574.632189 83.295847 
L 574.687307 83.419612 
L 574.742349 83.323577 
L 574.852205 83.087211 
L 575.016423 83.570315 
L 575.071013 83.199524 
L 575.125528 82.048472 
L 575.179968 82.940541 
L 575.342846 81.94617 
L 575.396991 82.332111 
L 575.451062 82.972737 
L 575.50506 82.396166 
L 575.612838 82.009265 
L 575.773961 82.603386 
L 575.934435 81.549882 
L 576.094266 82.151445 
L 576.464734 81.183436 
L 576.674894 81.669781 
L 576.936047 80.695914 
L 576.988073 81.285641 
L 577.040032 80.826426 
L 577.091922 81.110713 
L 577.143746 80.569316 
L 577.195502 81.133138 
L 577.24719 81.152609 
L 577.298812 80.178621 
L 577.298812 80.178621 
" clip-path="url(#p7843f217cc)" style="fill: none; stroke: #008000; stroke-width: 1.5; stroke-linecap: square"/>
   </g>
   <g id="patch_3">
    <path d="M 220.178812 311.6435 
L 220.178812 45.5315 
" style="fill: none; stroke: #000000; stroke-width: 0.8; stroke-linejoin: miter; stroke-linecap: square"/>
   </g>
   <g id="patch_4">
    <path d="M 577.298812 311.6435 
L 577.298812 45.5315 
" style="fill: none; stroke: #000000; stroke-width: 0.8; stroke-linejoin: miter; stroke-linecap: square"/>
   </g>
   <g id="patch_5">
    <path d="M 220.178812 311.6435 
L 577.298812 311.6435 
" style="fill: none; stroke: #000000; stroke-width: 0.8; stroke-linejoin: miter; stroke-linecap: square"/>
   </g>
   <g id="patch_6">
    <path d="M 220.178812 45.5315 
L 577.298812 45.5315 
" style="fill: none; stroke: #000000; stroke-width: 0.8; stroke-linejoin: miter; stroke-linecap: square"/>
   </g>
   <g id="text_10">
    <!-- Loss of the 02_06_25_CIFAR10_torch_model_(1024+2048.3+1)_cat-dog -->
    <g transform="translate(7.2 25.5315) scale(0.264 -0.264)">
     <defs>
      <path id="TimesNewRomanPSMT-20" transform="scale(0.015625)"/>
      <path id="TimesNewRomanPSMT-66" d="M 1319 2638 
L 1319 756 
Q 1319 356 1406 250 
Q 1522 113 1716 113 
L 1975 113 
L 1975 0 
L 266 0 
L 266 113 
L 394 113 
Q 519 113 622 175 
Q 725 238 764 344 
Q 803 450 803 756 
L 803 2638 
L 247 2638 
L 247 2863 
L 803 2863 
L 803 3050 
Q 803 3478 940 3775 
Q 1078 4072 1361 4255 
Q 1644 4438 1997 4438 
Q 2325 4438 2600 4225 
Q 2781 4084 2781 3909 
Q 2781 3816 2700 3733 
Q 2619 3650 2525 3650 
Q 2453 3650 2373 3701 
Q 2294 3753 2178 3923 
Q 2063 4094 1966 4153 
Q 1869 4213 1750 4213 
Q 1606 4213 1506 4136 
Q 1406 4059 1362 3898 
Q 1319 3738 1319 3069 
L 1319 2863 
L 2056 2863 
L 2056 2638 
L 1319 2638 
z
" transform="scale(0.015625)"/>
      <path id="TimesNewRomanPSMT-74" d="M 1031 3803 
L 1031 2863 
L 1700 2863 
L 1700 2644 
L 1031 2644 
L 1031 788 
Q 1031 509 1111 412 
Q 1191 316 1316 316 
Q 1419 316 1516 380 
Q 1613 444 1666 569 
L 1788 569 
Q 1678 263 1478 108 
Q 1278 -47 1066 -47 
Q 922 -47 784 33 
Q 647 113 581 261 
Q 516 409 516 719 
L 516 2644 
L 63 2644 
L 63 2747 
Q 234 2816 414 2980 
Q 594 3144 734 3369 
Q 806 3488 934 3803 
L 1031 3803 
z
" transform="scale(0.015625)"/>
      <path id="TimesNewRomanPSMT-68" d="M 1041 4444 
L 1041 2350 
Q 1388 2731 1591 2839 
Q 1794 2947 1997 2947 
Q 2241 2947 2416 2812 
Q 2591 2678 2675 2391 
Q 2734 2191 2734 1659 
L 2734 647 
Q 2734 375 2778 275 
Q 2809 200 2884 156 
Q 2959 113 3159 113 
L 3159 0 
L 1753 0 
L 1753 113 
L 1819 113 
Q 2019 113 2097 173 
Q 2175 234 2206 353 
Q 2216 403 2216 647 
L 2216 1659 
Q 2216 2128 2167 2275 
Q 2119 2422 2012 2495 
Q 1906 2569 1756 2569 
Q 1603 2569 1437 2487 
Q 1272 2406 1041 2159 
L 1041 647 
Q 1041 353 1073 281 
Q 1106 209 1195 161 
Q 1284 113 1503 113 
L 1503 0 
L 84 0 
L 84 113 
Q 275 113 384 172 
Q 447 203 484 290 
Q 522 378 522 647 
L 522 3238 
Q 522 3728 498 3840 
Q 475 3953 426 3993 
Q 378 4034 297 4034 
Q 231 4034 84 3984 
L 41 4094 
L 897 4444 
L 1041 4444 
z
" transform="scale(0.015625)"/>
      <path id="TimesNewRomanPSMT-65" d="M 681 1784 
Q 678 1147 991 784 
Q 1303 422 1725 422 
Q 2006 422 2214 576 
Q 2422 731 2563 1106 
L 2659 1044 
Q 2594 616 2278 264 
Q 1963 -88 1488 -88 
Q 972 -88 605 314 
Q 238 716 238 1394 
Q 238 2128 614 2539 
Q 991 2950 1559 2950 
Q 2041 2950 2350 2633 
Q 2659 2316 2659 1784 
L 681 1784 
z
M 681 1966 
L 2006 1966 
Q 1991 2241 1941 2353 
Q 1863 2528 1708 2628 
Q 1553 2728 1384 2728 
Q 1125 2728 920 2526 
Q 716 2325 681 1966 
z
" transform="scale(0.015625)"/>
      <path id="TimesNewRomanPSMT-5f" d="M 3256 -1381 
L -53 -1381 
L -53 -1119 
L 3256 -1119 
L 3256 -1381 
z
" transform="scale(0.015625)"/>
      <path id="TimesNewRomanPSMT-36" d="M 2869 4325 
L 2869 4209 
Q 2456 4169 2195 4045 
Q 1934 3922 1679 3669 
Q 1425 3416 1258 3105 
Q 1091 2794 978 2366 
Q 1428 2675 1881 2675 
Q 2316 2675 2634 2325 
Q 2953 1975 2953 1425 
Q 2953 894 2631 456 
Q 2244 -75 1606 -75 
Q 1172 -75 869 213 
Q 275 772 275 1663 
Q 275 2231 503 2743 
Q 731 3256 1154 3653 
Q 1578 4050 1965 4187 
Q 2353 4325 2688 4325 
L 2869 4325 
z
M 925 2138 
Q 869 1716 869 1456 
Q 869 1156 980 804 
Q 1091 453 1309 247 
Q 1469 100 1697 100 
Q 1969 100 2183 356 
Q 2397 613 2397 1088 
Q 2397 1622 2184 2012 
Q 1972 2403 1581 2403 
Q 1463 2403 1327 2353 
Q 1191 2303 925 2138 
z
" transform="scale(0.015625)"/>
      <path id="TimesNewRomanPSMT-43" d="M 3853 4334 
L 3950 2894 
L 3853 2894 
Q 3659 3541 3300 3825 
Q 2941 4109 2438 4109 
Q 2016 4109 1675 3895 
Q 1334 3681 1139 3212 
Q 944 2744 944 2047 
Q 944 1472 1128 1050 
Q 1313 628 1683 403 
Q 2053 178 2528 178 
Q 2941 178 3256 354 
Q 3572 531 3950 1056 
L 4047 994 
Q 3728 428 3303 165 
Q 2878 -97 2294 -97 
Q 1241 -97 663 684 
Q 231 1266 231 2053 
Q 231 2688 515 3219 
Q 800 3750 1298 4042 
Q 1797 4334 2388 4334 
Q 2847 4334 3294 4109 
Q 3425 4041 3481 4041 
Q 3566 4041 3628 4100 
Q 3709 4184 3744 4334 
L 3853 4334 
z
" transform="scale(0.015625)"/>
      <path id="TimesNewRomanPSMT-49" d="M 1975 116 
L 1975 0 
L 159 0 
L 159 116 
L 309 116 
Q 572 116 691 269 
Q 766 369 766 750 
L 766 3488 
Q 766 3809 725 3913 
Q 694 3991 597 4047 
Q 459 4122 309 4122 
L 159 4122 
L 159 4238 
L 1975 4238 
L 1975 4122 
L 1822 4122 
Q 1563 4122 1444 3969 
Q 1366 3869 1366 3488 
L 1366 750 
Q 1366 428 1406 325 
Q 1438 247 1538 191 
Q 1672 116 1822 116 
L 1975 116 
z
" transform="scale(0.015625)"/>
      <path id="TimesNewRomanPSMT-46" d="M 1309 4006 
L 1309 2341 
L 2081 2341 
Q 2347 2341 2470 2458 
Q 2594 2575 2634 2922 
L 2750 2922 
L 2750 1488 
L 2634 1488 
Q 2631 1734 2570 1850 
Q 2509 1966 2401 2023 
Q 2294 2081 2081 2081 
L 1309 2081 
L 1309 750 
Q 1309 428 1350 325 
Q 1381 247 1481 191 
Q 1619 116 1769 116 
L 1922 116 
L 1922 0 
L 103 0 
L 103 116 
L 253 116 
Q 516 116 634 269 
Q 709 369 709 750 
L 709 3488 
Q 709 3809 669 3913 
Q 638 3991 541 4047 
Q 406 4122 253 4122 
L 103 4122 
L 103 4238 
L 3256 4238 
L 3297 3306 
L 3188 3306 
Q 3106 3603 2998 3742 
Q 2891 3881 2733 3943 
Q 2575 4006 2244 4006 
L 1309 4006 
z
" transform="scale(0.015625)"/>
      <path id="TimesNewRomanPSMT-41" d="M 2928 1419 
L 1288 1419 
L 1000 750 
Q 894 503 894 381 
Q 894 284 986 211 
Q 1078 138 1384 116 
L 1384 0 
L 50 0 
L 50 116 
Q 316 163 394 238 
Q 553 388 747 847 
L 2238 4334 
L 2347 4334 
L 3822 809 
Q 4000 384 4145 257 
Q 4291 131 4550 116 
L 4550 0 
L 2878 0 
L 2878 116 
Q 3131 128 3220 200 
Q 3309 272 3309 375 
Q 3309 513 3184 809 
L 2928 1419 
z
M 2841 1650 
L 2122 3363 
L 1384 1650 
L 2841 1650 
z
" transform="scale(0.015625)"/>
      <path id="TimesNewRomanPSMT-52" d="M 4325 0 
L 3194 0 
L 1759 1981 
Q 1600 1975 1500 1975 
Q 1459 1975 1412 1976 
Q 1366 1978 1316 1981 
L 1316 750 
Q 1316 350 1403 253 
Q 1522 116 1759 116 
L 1925 116 
L 1925 0 
L 109 0 
L 109 116 
L 269 116 
Q 538 116 653 291 
Q 719 388 719 750 
L 719 3488 
Q 719 3888 631 3984 
Q 509 4122 269 4122 
L 109 4122 
L 109 4238 
L 1653 4238 
Q 2328 4238 2648 4139 
Q 2969 4041 3192 3777 
Q 3416 3513 3416 3147 
Q 3416 2756 3161 2468 
Q 2906 2181 2372 2063 
L 3247 847 
Q 3547 428 3762 290 
Q 3978 153 4325 116 
L 4325 0 
z
M 1316 2178 
Q 1375 2178 1419 2176 
Q 1463 2175 1491 2175 
Q 2097 2175 2405 2437 
Q 2713 2700 2713 3106 
Q 2713 3503 2464 3751 
Q 2216 4000 1806 4000 
Q 1625 4000 1316 3941 
L 1316 2178 
z
" transform="scale(0.015625)"/>
      <path id="TimesNewRomanPSMT-72" d="M 1038 2947 
L 1038 2303 
Q 1397 2947 1775 2947 
Q 1947 2947 2059 2842 
Q 2172 2738 2172 2600 
Q 2172 2478 2090 2393 
Q 2009 2309 1897 2309 
Q 1788 2309 1652 2417 
Q 1516 2525 1450 2525 
Q 1394 2525 1328 2463 
Q 1188 2334 1038 2041 
L 1038 669 
Q 1038 431 1097 309 
Q 1138 225 1241 169 
Q 1344 113 1538 113 
L 1538 0 
L 72 0 
L 72 113 
Q 291 113 397 181 
Q 475 231 506 341 
Q 522 394 522 644 
L 522 1753 
Q 522 2253 501 2348 
Q 481 2444 426 2487 
Q 372 2531 291 2531 
Q 194 2531 72 2484 
L 41 2597 
L 906 2947 
L 1038 2947 
z
" transform="scale(0.015625)"/>
      <path id="TimesNewRomanPSMT-63" d="M 2631 1088 
Q 2516 522 2178 217 
Q 1841 -88 1431 -88 
Q 944 -88 581 321 
Q 219 731 219 1428 
Q 219 2103 620 2525 
Q 1022 2947 1584 2947 
Q 2006 2947 2278 2723 
Q 2550 2500 2550 2259 
Q 2550 2141 2473 2067 
Q 2397 1994 2259 1994 
Q 2075 1994 1981 2113 
Q 1928 2178 1911 2362 
Q 1894 2547 1784 2644 
Q 1675 2738 1481 2738 
Q 1169 2738 978 2506 
Q 725 2200 725 1697 
Q 725 1184 976 792 
Q 1228 400 1656 400 
Q 1963 400 2206 609 
Q 2378 753 2541 1131 
L 2631 1088 
z
" transform="scale(0.015625)"/>
      <path id="TimesNewRomanPSMT-6d" d="M 1050 2338 
Q 1363 2650 1419 2697 
Q 1559 2816 1721 2881 
Q 1884 2947 2044 2947 
Q 2313 2947 2506 2790 
Q 2700 2634 2766 2338 
Q 3088 2713 3309 2830 
Q 3531 2947 3766 2947 
Q 3994 2947 4170 2830 
Q 4347 2713 4450 2447 
Q 4519 2266 4519 1878 
L 4519 647 
Q 4519 378 4559 278 
Q 4591 209 4675 161 
Q 4759 113 4950 113 
L 4950 0 
L 3538 0 
L 3538 113 
L 3597 113 
Q 3781 113 3884 184 
Q 3956 234 3988 344 
Q 4000 397 4000 647 
L 4000 1878 
Q 4000 2228 3916 2372 
Q 3794 2572 3525 2572 
Q 3359 2572 3192 2489 
Q 3025 2406 2788 2181 
L 2781 2147 
L 2788 2013 
L 2788 647 
Q 2788 353 2820 281 
Q 2853 209 2943 161 
Q 3034 113 3253 113 
L 3253 0 
L 1806 0 
L 1806 113 
Q 2044 113 2133 169 
Q 2222 225 2256 338 
Q 2272 391 2272 647 
L 2272 1878 
Q 2272 2228 2169 2381 
Q 2031 2581 1784 2581 
Q 1616 2581 1450 2491 
Q 1191 2353 1050 2181 
L 1050 647 
Q 1050 366 1089 281 
Q 1128 197 1204 155 
Q 1281 113 1516 113 
L 1516 0 
L 100 0 
L 100 113 
Q 297 113 375 155 
Q 453 197 493 289 
Q 534 381 534 647 
L 534 1741 
Q 534 2213 506 2350 
Q 484 2453 437 2492 
Q 391 2531 309 2531 
Q 222 2531 100 2484 
L 53 2597 
L 916 2947 
L 1050 2947 
L 1050 2338 
z
" transform="scale(0.015625)"/>
      <path id="TimesNewRomanPSMT-64" d="M 2222 322 
Q 2013 103 1813 7 
Q 1613 -88 1381 -88 
Q 913 -88 563 304 
Q 213 697 213 1313 
Q 213 1928 600 2439 
Q 988 2950 1597 2950 
Q 1975 2950 2222 2709 
L 2222 3238 
Q 2222 3728 2198 3840 
Q 2175 3953 2125 3993 
Q 2075 4034 2000 4034 
Q 1919 4034 1784 3984 
L 1744 4094 
L 2597 4444 
L 2738 4444 
L 2738 1134 
Q 2738 631 2761 520 
Q 2784 409 2836 365 
Q 2888 322 2956 322 
Q 3041 322 3181 375 
L 3216 266 
L 2366 -88 
L 2222 -88 
L 2222 322 
z
M 2222 541 
L 2222 2016 
Q 2203 2228 2109 2403 
Q 2016 2578 1861 2667 
Q 1706 2756 1559 2756 
Q 1284 2756 1069 2509 
Q 784 2184 784 1559 
Q 784 928 1059 592 
Q 1334 256 1672 256 
Q 1956 256 2222 541 
z
" transform="scale(0.015625)"/>
      <path id="TimesNewRomanPSMT-6c" d="M 1184 4444 
L 1184 647 
Q 1184 378 1223 290 
Q 1263 203 1344 158 
Q 1425 113 1647 113 
L 1647 0 
L 244 0 
L 244 113 
Q 441 113 512 153 
Q 584 194 625 287 
Q 666 381 666 647 
L 666 3247 
Q 666 3731 644 3842 
Q 622 3953 573 3993 
Q 525 4034 450 4034 
Q 369 4034 244 3984 
L 191 4094 
L 1044 4444 
L 1184 4444 
z
" transform="scale(0.015625)"/>
      <path id="TimesNewRomanPSMT-28" d="M 1988 -1253 
L 1988 -1369 
Q 1516 -1131 1200 -813 
Q 750 -359 506 256 
Q 263 872 263 1534 
Q 263 2503 741 3301 
Q 1219 4100 1988 4444 
L 1988 4313 
Q 1603 4100 1356 3731 
Q 1109 3363 987 2797 
Q 866 2231 866 1616 
Q 866 947 969 400 
Q 1050 -31 1165 -292 
Q 1281 -553 1476 -793 
Q 1672 -1034 1988 -1253 
z
" transform="scale(0.015625)"/>
      <path id="TimesNewRomanPSMT-34" d="M 2978 1563 
L 2978 1119 
L 2409 1119 
L 2409 0 
L 1894 0 
L 1894 1119 
L 100 1119 
L 100 1519 
L 2066 4325 
L 2409 4325 
L 2409 1563 
L 2978 1563 
z
M 1894 1563 
L 1894 3666 
L 406 1563 
L 1894 1563 
z
" transform="scale(0.015625)"/>
      <path id="TimesNewRomanPSMT-2b" d="M 1672 441 
L 1672 2000 
L 116 2000 
L 116 2256 
L 1672 2256 
L 1672 3809 
L 1922 3809 
L 1922 2256 
L 3484 2256 
L 3484 2000 
L 1922 2000 
L 1922 441 
L 1672 441 
z
" transform="scale(0.015625)"/>
      <path id="TimesNewRomanPSMT-38" d="M 1228 2134 
Q 725 2547 579 2797 
Q 434 3047 434 3316 
Q 434 3728 753 4026 
Q 1072 4325 1600 4325 
Q 2113 4325 2425 4047 
Q 2738 3769 2738 3413 
Q 2738 3175 2569 2928 
Q 2400 2681 1866 2347 
Q 2416 1922 2594 1678 
Q 2831 1359 2831 1006 
Q 2831 559 2490 242 
Q 2150 -75 1597 -75 
Q 994 -75 656 303 
Q 388 606 388 966 
Q 388 1247 577 1523 
Q 766 1800 1228 2134 
z
M 1719 2469 
Q 2094 2806 2194 3001 
Q 2294 3197 2294 3444 
Q 2294 3772 2109 3958 
Q 1925 4144 1606 4144 
Q 1288 4144 1088 3959 
Q 888 3775 888 3528 
Q 888 3366 970 3203 
Q 1053 3041 1206 2894 
L 1719 2469 
z
M 1375 2016 
Q 1116 1797 991 1539 
Q 866 1281 866 981 
Q 866 578 1086 336 
Q 1306 94 1647 94 
Q 1984 94 2187 284 
Q 2391 475 2391 747 
Q 2391 972 2272 1150 
Q 2050 1481 1375 2016 
z
" transform="scale(0.015625)"/>
      <path id="TimesNewRomanPSMT-29" d="M 144 4313 
L 144 4444 
Q 619 4209 934 3891 
Q 1381 3434 1625 2820 
Q 1869 2206 1869 1541 
Q 1869 572 1392 -226 
Q 916 -1025 144 -1369 
L 144 -1253 
Q 528 -1038 776 -670 
Q 1025 -303 1145 264 
Q 1266 831 1266 1447 
Q 1266 2113 1163 2663 
Q 1084 3094 967 3353 
Q 850 3613 656 3853 
Q 463 4094 144 4313 
z
" transform="scale(0.015625)"/>
      <path id="TimesNewRomanPSMT-61" d="M 1822 413 
Q 1381 72 1269 19 
Q 1100 -59 909 -59 
Q 613 -59 420 144 
Q 228 347 228 678 
Q 228 888 322 1041 
Q 450 1253 767 1440 
Q 1084 1628 1822 1897 
L 1822 2009 
Q 1822 2438 1686 2597 
Q 1550 2756 1291 2756 
Q 1094 2756 978 2650 
Q 859 2544 859 2406 
L 866 2225 
Q 866 2081 792 2003 
Q 719 1925 600 1925 
Q 484 1925 411 2006 
Q 338 2088 338 2228 
Q 338 2497 613 2722 
Q 888 2947 1384 2947 
Q 1766 2947 2009 2819 
Q 2194 2722 2281 2516 
Q 2338 2381 2338 1966 
L 2338 994 
Q 2338 584 2353 492 
Q 2369 400 2405 369 
Q 2441 338 2488 338 
Q 2538 338 2575 359 
Q 2641 400 2828 588 
L 2828 413 
Q 2478 -56 2159 -56 
Q 2006 -56 1915 50 
Q 1825 156 1822 413 
z
M 1822 616 
L 1822 1706 
Q 1350 1519 1213 1441 
Q 966 1303 859 1153 
Q 753 1003 753 825 
Q 753 600 887 451 
Q 1022 303 1197 303 
Q 1434 303 1822 616 
z
" transform="scale(0.015625)"/>
      <path id="TimesNewRomanPSMT-2d" d="M 259 1672 
L 1875 1672 
L 1875 1200 
L 259 1200 
L 259 1672 
z
" transform="scale(0.015625)"/>
      <path id="TimesNewRomanPSMT-67" d="M 966 1044 
Q 703 1172 562 1401 
Q 422 1631 422 1909 
Q 422 2334 742 2640 
Q 1063 2947 1563 2947 
Q 1972 2947 2272 2747 
L 2878 2747 
Q 3013 2747 3034 2739 
Q 3056 2731 3066 2713 
Q 3084 2684 3084 2613 
Q 3084 2531 3069 2500 
Q 3059 2484 3036 2475 
Q 3013 2466 2878 2466 
L 2506 2466 
Q 2681 2241 2681 1891 
Q 2681 1491 2375 1206 
Q 2069 922 1553 922 
Q 1341 922 1119 984 
Q 981 866 932 777 
Q 884 688 884 625 
Q 884 572 936 522 
Q 988 472 1138 450 
Q 1225 438 1575 428 
Q 2219 413 2409 384 
Q 2700 344 2873 169 
Q 3047 -6 3047 -263 
Q 3047 -616 2716 -925 
Q 2228 -1381 1444 -1381 
Q 841 -1381 425 -1109 
Q 191 -953 191 -784 
Q 191 -709 225 -634 
Q 278 -519 444 -313 
Q 466 -284 763 25 
Q 600 122 533 198 
Q 466 275 466 372 
Q 466 481 555 628 
Q 644 775 966 1044 
z
M 1509 2797 
Q 1278 2797 1122 2612 
Q 966 2428 966 2047 
Q 966 1553 1178 1281 
Q 1341 1075 1591 1075 
Q 1828 1075 1981 1253 
Q 2134 1431 2134 1813 
Q 2134 2309 1919 2591 
Q 1759 2797 1509 2797 
z
M 934 0 
Q 788 -159 713 -296 
Q 638 -434 638 -550 
Q 638 -700 819 -813 
Q 1131 -1006 1722 -1006 
Q 2284 -1006 2551 -807 
Q 2819 -609 2819 -384 
Q 2819 -222 2659 -153 
Q 2497 -84 2016 -72 
Q 1313 -53 934 0 
z
" transform="scale(0.015625)"/>
     </defs>
     <use xlink:href="#TimesNewRomanPSMT-4c"/>
     <use xlink:href="#TimesNewRomanPSMT-6f" transform="translate(61.083984 0)"/>
     <use xlink:href="#TimesNewRomanPSMT-73" transform="translate(111.083984 0)"/>
     <use xlink:href="#TimesNewRomanPSMT-73" transform="translate(150 0)"/>
     <use xlink:href="#TimesNewRomanPSMT-20" transform="translate(188.916016 0)"/>
     <use xlink:href="#TimesNewRomanPSMT-6f" transform="translate(213.916016 0)"/>
     <use xlink:href="#TimesNewRomanPSMT-66" transform="translate(263.916016 0)"/>
     <use xlink:href="#TimesNewRomanPSMT-20" transform="translate(297.216797 0)"/>
     <use xlink:href="#TimesNewRomanPSMT-74" transform="translate(322.216797 0)"/>
     <use xlink:href="#TimesNewRomanPSMT-68" transform="translate(350 0)"/>
     <use xlink:href="#TimesNewRomanPSMT-65" transform="translate(400 0)"/>
     <use xlink:href="#TimesNewRomanPSMT-20" transform="translate(444.384766 0)"/>
     <use xlink:href="#TimesNewRomanPSMT-30" transform="translate(469.384766 0)"/>
     <use xlink:href="#TimesNewRomanPSMT-32" transform="translate(519.384766 0)"/>
     <use xlink:href="#TimesNewRomanPSMT-5f" transform="translate(569.384766 0)"/>
     <use xlink:href="#TimesNewRomanPSMT-30" transform="translate(619.384766 0)"/>
     <use xlink:href="#TimesNewRomanPSMT-36" transform="translate(669.384766 0)"/>
     <use xlink:href="#TimesNewRomanPSMT-5f" transform="translate(719.384766 0)"/>
     <use xlink:href="#TimesNewRomanPSMT-32" transform="translate(769.384766 0)"/>
     <use xlink:href="#TimesNewRomanPSMT-35" transform="translate(819.384766 0)"/>
     <use xlink:href="#TimesNewRomanPSMT-5f" transform="translate(869.384766 0)"/>
     <use xlink:href="#TimesNewRomanPSMT-43" transform="translate(919.384766 0)"/>
     <use xlink:href="#TimesNewRomanPSMT-49" transform="translate(986.083984 0)"/>
     <use xlink:href="#TimesNewRomanPSMT-46" transform="translate(1019.384766 0)"/>
     <use xlink:href="#TimesNewRomanPSMT-41" transform="translate(1067.625 0)"/>
     <use xlink:href="#TimesNewRomanPSMT-52" transform="translate(1139.841797 0)"/>
     <use xlink:href="#TimesNewRomanPSMT-31" transform="translate(1206.541016 0)"/>
     <use xlink:href="#TimesNewRomanPSMT-30" transform="translate(1256.541016 0)"/>
     <use xlink:href="#TimesNewRomanPSMT-5f" transform="translate(1306.541016 0)"/>
     <use xlink:href="#TimesNewRomanPSMT-74" transform="translate(1356.541016 0)"/>
     <use xlink:href="#TimesNewRomanPSMT-6f" transform="translate(1384.324219 0)"/>
     <use xlink:href="#TimesNewRomanPSMT-72" transform="translate(1434.324219 0)"/>
     <use xlink:href="#TimesNewRomanPSMT-63" transform="translate(1467.625 0)"/>
     <use xlink:href="#TimesNewRomanPSMT-68" transform="translate(1512.009766 0)"/>
     <use xlink:href="#TimesNewRomanPSMT-5f" transform="translate(1562.009766 0)"/>
     <use xlink:href="#TimesNewRomanPSMT-6d" transform="translate(1612.009766 0)"/>
     <use xlink:href="#TimesNewRomanPSMT-6f" transform="translate(1689.792969 0)"/>
     <use xlink:href="#TimesNewRomanPSMT-64" transform="translate(1739.792969 0)"/>
     <use xlink:href="#TimesNewRomanPSMT-65" transform="translate(1789.792969 0)"/>
     <use xlink:href="#TimesNewRomanPSMT-6c" transform="translate(1834.177734 0)"/>
     <use xlink:href="#TimesNewRomanPSMT-5f" transform="translate(1861.960938 0)"/>
     <use xlink:href="#TimesNewRomanPSMT-28" transform="translate(1911.960938 0)"/>
     <use xlink:href="#TimesNewRomanPSMT-31" transform="translate(1945.261719 0)"/>
     <use xlink:href="#TimesNewRomanPSMT-30" transform="translate(1995.261719 0)"/>
     <use xlink:href="#TimesNewRomanPSMT-32" transform="translate(2045.261719 0)"/>
     <use xlink:href="#TimesNewRomanPSMT-34" transform="translate(2095.261719 0)"/>
     <use xlink:href="#TimesNewRomanPSMT-2b" transform="translate(2145.261719 0)"/>
     <use xlink:href="#TimesNewRomanPSMT-32" transform="translate(2201.658203 0)"/>
     <use xlink:href="#TimesNewRomanPSMT-30" transform="translate(2251.658203 0)"/>
     <use xlink:href="#TimesNewRomanPSMT-34" transform="translate(2301.658203 0)"/>
     <use xlink:href="#TimesNewRomanPSMT-38" transform="translate(2351.658203 0)"/>
     <use xlink:href="#TimesNewRomanPSMT-2e" transform="translate(2401.658203 0)"/>
     <use xlink:href="#TimesNewRomanPSMT-33" transform="translate(2426.658203 0)"/>
     <use xlink:href="#TimesNewRomanPSMT-2b" transform="translate(2476.658203 0)"/>
     <use xlink:href="#TimesNewRomanPSMT-31" transform="translate(2533.054688 0)"/>
     <use xlink:href="#TimesNewRomanPSMT-29" transform="translate(2583.054688 0)"/>
     <use xlink:href="#TimesNewRomanPSMT-5f" transform="translate(2616.355469 0)"/>
     <use xlink:href="#TimesNewRomanPSMT-63" transform="translate(2666.355469 0)"/>
     <use xlink:href="#TimesNewRomanPSMT-61" transform="translate(2710.740234 0)"/>
     <use xlink:href="#TimesNewRomanPSMT-74" transform="translate(2755.125 0)"/>
     <use xlink:href="#TimesNewRomanPSMT-2d" transform="translate(2782.908203 0)"/>
     <use xlink:href="#TimesNewRomanPSMT-64" transform="translate(2816.208984 0)"/>
     <use xlink:href="#TimesNewRomanPSMT-6f" transform="translate(2866.208984 0)"/>
     <use xlink:href="#TimesNewRomanPSMT-67" transform="translate(2916.208984 0)"/>
    </g>
   </g>
   <g id="legend_1">
    <g id="patch_7">
     <path d="M 235.578812 300.6435 
L 436.136313 300.6435 
Q 440.536313 300.6435 440.536313 296.2435 
L 440.536313 236.190375 
Q 440.536313 231.790375 436.136313 231.790375 
L 235.578812 231.790375 
Q 231.178812 231.790375 231.178812 236.190375 
L 231.178812 296.2435 
Q 231.178812 300.6435 235.578812 300.6435 
z
" style="fill: #ffffff; opacity: 0.8; stroke: #cccccc; stroke-linejoin: miter"/>
    </g>
    <g id="line2d_17">
     <path d="M 239.978813 248.290375 
L 261.978813 248.290375 
L 283.978813 248.290375 
" style="fill: none; stroke: #ffa500; stroke-width: 1.5; stroke-linecap: square"/>
    </g>
    <g id="text_11">
     <!-- Training loss -->
     <g transform="translate(301.578813 255.990375) scale(0.22 -0.22)">
      <defs>
       <path id="TimesNewRomanPSMT-54" d="M 3703 4238 
L 3750 3244 
L 3631 3244 
Q 3597 3506 3538 3619 
Q 3441 3800 3280 3886 
Q 3119 3972 2856 3972 
L 2259 3972 
L 2259 734 
Q 2259 344 2344 247 
Q 2463 116 2709 116 
L 2856 116 
L 2856 0 
L 1059 0 
L 1059 116 
L 1209 116 
Q 1478 116 1591 278 
Q 1659 378 1659 734 
L 1659 3972 
L 1150 3972 
Q 853 3972 728 3928 
Q 566 3869 450 3700 
Q 334 3531 313 3244 
L 194 3244 
L 244 4238 
L 3703 4238 
z
" transform="scale(0.015625)"/>
       <path id="TimesNewRomanPSMT-69" d="M 928 4444 
Q 1059 4444 1151 4351 
Q 1244 4259 1244 4128 
Q 1244 3997 1151 3903 
Q 1059 3809 928 3809 
Q 797 3809 703 3903 
Q 609 3997 609 4128 
Q 609 4259 701 4351 
Q 794 4444 928 4444 
z
M 1188 2947 
L 1188 647 
Q 1188 378 1227 289 
Q 1266 200 1342 156 
Q 1419 113 1622 113 
L 1622 0 
L 231 0 
L 231 113 
Q 441 113 512 153 
Q 584 194 626 287 
Q 669 381 669 647 
L 669 1750 
Q 669 2216 641 2353 
Q 619 2453 572 2492 
Q 525 2531 444 2531 
Q 356 2531 231 2484 
L 188 2597 
L 1050 2947 
L 1188 2947 
z
" transform="scale(0.015625)"/>
       <path id="TimesNewRomanPSMT-6e" d="M 1034 2341 
Q 1538 2947 1994 2947 
Q 2228 2947 2397 2830 
Q 2566 2713 2666 2444 
Q 2734 2256 2734 1869 
L 2734 647 
Q 2734 375 2778 278 
Q 2813 200 2889 156 
Q 2966 113 3172 113 
L 3172 0 
L 1756 0 
L 1756 113 
L 1816 113 
Q 2016 113 2095 173 
Q 2175 234 2206 353 
Q 2219 400 2219 647 
L 2219 1819 
Q 2219 2209 2117 2386 
Q 2016 2563 1775 2563 
Q 1403 2563 1034 2156 
L 1034 647 
Q 1034 356 1069 288 
Q 1113 197 1189 155 
Q 1266 113 1500 113 
L 1500 0 
L 84 0 
L 84 113 
L 147 113 
Q 366 113 442 223 
Q 519 334 519 647 
L 519 1709 
Q 519 2225 495 2337 
Q 472 2450 423 2490 
Q 375 2531 294 2531 
Q 206 2531 84 2484 
L 38 2597 
L 900 2947 
L 1034 2947 
L 1034 2341 
z
" transform="scale(0.015625)"/>
      </defs>
      <use xlink:href="#TimesNewRomanPSMT-54"/>
      <use xlink:href="#TimesNewRomanPSMT-72" transform="translate(57.583984 0)"/>
      <use xlink:href="#TimesNewRomanPSMT-61" transform="translate(90.884766 0)"/>
      <use xlink:href="#TimesNewRomanPSMT-69" transform="translate(135.269531 0)"/>
      <use xlink:href="#TimesNewRomanPSMT-6e" transform="translate(163.052734 0)"/>
      <use xlink:href="#TimesNewRomanPSMT-69" transform="translate(213.052734 0)"/>
      <use xlink:href="#TimesNewRomanPSMT-6e" transform="translate(240.835938 0)"/>
      <use xlink:href="#TimesNewRomanPSMT-67" transform="translate(290.835938 0)"/>
      <use xlink:href="#TimesNewRomanPSMT-20" transform="translate(340.835938 0)"/>
      <use xlink:href="#TimesNewRomanPSMT-6c" transform="translate(365.835938 0)"/>
      <use xlink:href="#TimesNewRomanPSMT-6f" transform="translate(393.619141 0)"/>
      <use xlink:href="#TimesNewRomanPSMT-73" transform="translate(443.619141 0)"/>
      <use xlink:href="#TimesNewRomanPSMT-73" transform="translate(482.535156 0)"/>
     </g>
    </g>
    <g id="line2d_18">
     <path d="M 239.978813 279.437562 
L 261.978813 279.437562 
L 283.978813 279.437562 
" style="fill: none; stroke: #008000; stroke-width: 1.5; stroke-linecap: square"/>
    </g>
    <g id="text_12">
     <!-- Validation loss -->
     <g transform="translate(301.578813 287.137562) scale(0.22 -0.22)">
      <defs>
       <path id="TimesNewRomanPSMT-56" d="M 4544 4238 
L 4544 4122 
Q 4319 4081 4203 3978 
Q 4038 3825 3909 3509 
L 2431 -97 
L 2316 -97 
L 728 3556 
Q 606 3838 556 3900 
Q 478 3997 364 4051 
Q 250 4106 56 4122 
L 56 4238 
L 1788 4238 
L 1788 4122 
Q 1494 4094 1406 4022 
Q 1319 3950 1319 3838 
Q 1319 3681 1463 3350 
L 2541 866 
L 3541 3319 
Q 3688 3681 3688 3822 
Q 3688 3913 3597 3995 
Q 3506 4078 3291 4113 
Q 3275 4116 3238 4122 
L 3238 4238 
L 4544 4238 
z
" transform="scale(0.015625)"/>
      </defs>
      <use xlink:href="#TimesNewRomanPSMT-56"/>
      <use xlink:href="#TimesNewRomanPSMT-61" transform="translate(61.091797 0)"/>
      <use xlink:href="#TimesNewRomanPSMT-6c" transform="translate(105.476562 0)"/>
      <use xlink:href="#TimesNewRomanPSMT-69" transform="translate(133.259766 0)"/>
      <use xlink:href="#TimesNewRomanPSMT-64" transform="translate(161.042969 0)"/>
      <use xlink:href="#TimesNewRomanPSMT-61" transform="translate(211.042969 0)"/>
      <use xlink:href="#TimesNewRomanPSMT-74" transform="translate(255.427734 0)"/>
      <use xlink:href="#TimesNewRomanPSMT-69" transform="translate(283.210938 0)"/>
      <use xlink:href="#TimesNewRomanPSMT-6f" transform="translate(310.994141 0)"/>
      <use xlink:href="#TimesNewRomanPSMT-6e" transform="translate(360.994141 0)"/>
      <use xlink:href="#TimesNewRomanPSMT-20" transform="translate(410.994141 0)"/>
      <use xlink:href="#TimesNewRomanPSMT-6c" transform="translate(435.994141 0)"/>
      <use xlink:href="#TimesNewRomanPSMT-6f" transform="translate(463.777344 0)"/>
      <use xlink:href="#TimesNewRomanPSMT-73" transform="translate(513.777344 0)"/>
      <use xlink:href="#TimesNewRomanPSMT-73" transform="translate(552.693359 0)"/>
     </g>
    </g>
   </g>
  </g>
 </g>
 <defs>
  <clipPath id="p7843f217cc">
   <rect x="220.178812" y="45.5315" width="357.12" height="266.112"/>
  </clipPath>
 </defs>
</svg>
