<?xml version="1.0" encoding="utf-8" standalone="no"?>
<!DOCTYPE svg PUBLIC "-//W3C//DTD SVG 1.1//EN"
  "http://www.w3.org/Graphics/SVG/1.1/DTD/svg11.dtd">
<svg xmlns:xlink="http://www.w3.org/1999/xlink" width="430.369062pt" height="370.219562pt" viewBox="0 0 430.369062 370.219562" xmlns="http://www.w3.org/2000/svg" version="1.1">
 <metadata>
  <rdf:RDF xmlns:dc="http://purl.org/dc/elements/1.1/" xmlns:cc="http://creativecommons.org/ns#" xmlns:rdf="http://www.w3.org/1999/02/22-rdf-syntax-ns#">
   <cc:Work>
    <dc:type rdf:resource="http://purl.org/dc/dcmitype/StillImage"/>
    <dc:date>2025-05-02T15:58:04.248459</dc:date>
    <dc:format>image/svg+xml</dc:format>
    <dc:creator>
     <cc:Agent>
      <dc:title>Matplotlib v3.10.1, https://matplotlib.org/</dc:title>
     </cc:Agent>
    </dc:creator>
   </cc:Work>
  </rdf:RDF>
 </metadata>
 <defs>
  <style type="text/css">*{stroke-linejoin: round; stroke-linecap: butt}</style>
 </defs>
 <g id="figure_1">
  <g id="patch_1">
   <path d="M 0 370.219562 
L 430.369062 370.219562 
L 430.369062 0 
L 0 0 
z
" style="fill: #ffffff"/>
  </g>
  <g id="axes_1">
   <g id="patch_2">
    <path d="M 66.049063 308.3105 
L 423.169063 308.3105 
L 423.169063 42.1985 
L 66.049063 42.1985 
z
" style="fill: #ffffff"/>
   </g>
   <g id="matplotlib.axis_1">
    <g id="xtick_1">
     <g id="line2d_1">
      <path d="M 66.049063 308.3105 
L 66.049063 42.1985 
" clip-path="url(#p41a3dc5d6c)" style="fill: none; stroke: #b0b0b0; stroke-opacity: 0.3; stroke-width: 0.8; stroke-linecap: square"/>
     </g>
     <g id="line2d_2">
      <defs>
       <path id="m7a3c1a87dd" d="M 0 0 
L 0 3.5 
" style="stroke: #000000; stroke-width: 0.8"/>
      </defs>
      <g>
       <use xlink:href="#m7a3c1a87dd" x="66.049063" y="308.3105" style="stroke: #000000; stroke-width: 0.8"/>
      </g>
     </g>
     <g id="text_1">
      <!-- 0.00 -->
      <g transform="translate(50.299063 327.80925) scale(0.18 -0.18)">
       <defs>
        <path id="TimesNewRomanPSMT-30" d="M 231 2094 
Q 231 2819 450 3342 
Q 669 3866 1031 4122 
Q 1313 4325 1613 4325 
Q 2100 4325 2488 3828 
Q 2972 3213 2972 2159 
Q 2972 1422 2759 906 
Q 2547 391 2217 158 
Q 1888 -75 1581 -75 
Q 975 -75 572 641 
Q 231 1244 231 2094 
z
M 844 2016 
Q 844 1141 1059 588 
Q 1238 122 1591 122 
Q 1759 122 1940 273 
Q 2122 425 2216 781 
Q 2359 1319 2359 2297 
Q 2359 3022 2209 3506 
Q 2097 3866 1919 4016 
Q 1791 4119 1609 4119 
Q 1397 4119 1231 3928 
Q 1006 3669 925 3112 
Q 844 2556 844 2016 
z
" transform="scale(0.015625)"/>
        <path id="TimesNewRomanPSMT-2e" d="M 800 606 
Q 947 606 1047 504 
Q 1147 403 1147 259 
Q 1147 116 1045 14 
Q 944 -88 800 -88 
Q 656 -88 554 14 
Q 453 116 453 259 
Q 453 406 554 506 
Q 656 606 800 606 
z
" transform="scale(0.015625)"/>
       </defs>
       <use xlink:href="#TimesNewRomanPSMT-30"/>
       <use xlink:href="#TimesNewRomanPSMT-2e" transform="translate(50 0)"/>
       <use xlink:href="#TimesNewRomanPSMT-30" transform="translate(75 0)"/>
       <use xlink:href="#TimesNewRomanPSMT-30" transform="translate(125 0)"/>
      </g>
     </g>
    </g>
    <g id="xtick_2">
     <g id="line2d_3">
      <path d="M 139.063751 308.3105 
L 139.063751 42.1985 
" clip-path="url(#p41a3dc5d6c)" style="fill: none; stroke: #b0b0b0; stroke-opacity: 0.3; stroke-width: 0.8; stroke-linecap: square"/>
     </g>
     <g id="line2d_4">
      <g>
       <use xlink:href="#m7a3c1a87dd" x="139.063751" y="308.3105" style="stroke: #000000; stroke-width: 0.8"/>
      </g>
     </g>
     <g id="text_2">
      <!-- 0.25 -->
      <g transform="translate(123.313751 327.80925) scale(0.18 -0.18)">
       <defs>
        <path id="TimesNewRomanPSMT-32" d="M 2934 816 
L 2638 0 
L 138 0 
L 138 116 
Q 1241 1122 1691 1759 
Q 2141 2397 2141 2925 
Q 2141 3328 1894 3587 
Q 1647 3847 1303 3847 
Q 991 3847 742 3664 
Q 494 3481 375 3128 
L 259 3128 
Q 338 3706 661 4015 
Q 984 4325 1469 4325 
Q 1984 4325 2329 3994 
Q 2675 3663 2675 3213 
Q 2675 2891 2525 2569 
Q 2294 2063 1775 1497 
Q 997 647 803 472 
L 1909 472 
Q 2247 472 2383 497 
Q 2519 522 2628 598 
Q 2738 675 2819 816 
L 2934 816 
z
" transform="scale(0.015625)"/>
        <path id="TimesNewRomanPSMT-35" d="M 2778 4238 
L 2534 3706 
L 1259 3706 
L 981 3138 
Q 1809 3016 2294 2522 
Q 2709 2097 2709 1522 
Q 2709 1188 2573 903 
Q 2438 619 2231 419 
Q 2025 219 1772 97 
Q 1413 -75 1034 -75 
Q 653 -75 479 54 
Q 306 184 306 341 
Q 306 428 378 495 
Q 450 563 559 563 
Q 641 563 702 538 
Q 763 513 909 409 
Q 1144 247 1384 247 
Q 1750 247 2026 523 
Q 2303 800 2303 1197 
Q 2303 1581 2056 1914 
Q 1809 2247 1375 2428 
Q 1034 2569 447 2591 
L 1259 4238 
L 2778 4238 
z
" transform="scale(0.015625)"/>
       </defs>
       <use xlink:href="#TimesNewRomanPSMT-30"/>
       <use xlink:href="#TimesNewRomanPSMT-2e" transform="translate(50 0)"/>
       <use xlink:href="#TimesNewRomanPSMT-32" transform="translate(75 0)"/>
       <use xlink:href="#TimesNewRomanPSMT-35" transform="translate(125 0)"/>
      </g>
     </g>
    </g>
    <g id="xtick_3">
     <g id="line2d_5">
      <path d="M 212.078439 308.3105 
L 212.078439 42.1985 
" clip-path="url(#p41a3dc5d6c)" style="fill: none; stroke: #b0b0b0; stroke-opacity: 0.3; stroke-width: 0.8; stroke-linecap: square"/>
     </g>
     <g id="line2d_6">
      <g>
       <use xlink:href="#m7a3c1a87dd" x="212.078439" y="308.3105" style="stroke: #000000; stroke-width: 0.8"/>
      </g>
     </g>
     <g id="text_3">
      <!-- 0.50 -->
      <g transform="translate(196.328439 327.80925) scale(0.18 -0.18)">
       <use xlink:href="#TimesNewRomanPSMT-30"/>
       <use xlink:href="#TimesNewRomanPSMT-2e" transform="translate(50 0)"/>
       <use xlink:href="#TimesNewRomanPSMT-35" transform="translate(75 0)"/>
       <use xlink:href="#TimesNewRomanPSMT-30" transform="translate(125 0)"/>
      </g>
     </g>
    </g>
    <g id="xtick_4">
     <g id="line2d_7">
      <path d="M 285.093127 308.3105 
L 285.093127 42.1985 
" clip-path="url(#p41a3dc5d6c)" style="fill: none; stroke: #b0b0b0; stroke-opacity: 0.3; stroke-width: 0.8; stroke-linecap: square"/>
     </g>
     <g id="line2d_8">
      <g>
       <use xlink:href="#m7a3c1a87dd" x="285.093127" y="308.3105" style="stroke: #000000; stroke-width: 0.8"/>
      </g>
     </g>
     <g id="text_4">
      <!-- 0.75 -->
      <g transform="translate(269.343127 327.80925) scale(0.18 -0.18)">
       <defs>
        <path id="TimesNewRomanPSMT-37" d="M 644 4238 
L 2916 4238 
L 2916 4119 
L 1503 -88 
L 1153 -88 
L 2419 3728 
L 1253 3728 
Q 900 3728 750 3644 
Q 488 3500 328 3200 
L 238 3234 
L 644 4238 
z
" transform="scale(0.015625)"/>
       </defs>
       <use xlink:href="#TimesNewRomanPSMT-30"/>
       <use xlink:href="#TimesNewRomanPSMT-2e" transform="translate(50 0)"/>
       <use xlink:href="#TimesNewRomanPSMT-37" transform="translate(75 0)"/>
       <use xlink:href="#TimesNewRomanPSMT-35" transform="translate(125 0)"/>
      </g>
     </g>
    </g>
    <g id="xtick_5">
     <g id="line2d_9">
      <path d="M 358.107816 308.3105 
L 358.107816 42.1985 
" clip-path="url(#p41a3dc5d6c)" style="fill: none; stroke: #b0b0b0; stroke-opacity: 0.3; stroke-width: 0.8; stroke-linecap: square"/>
     </g>
     <g id="line2d_10">
      <g>
       <use xlink:href="#m7a3c1a87dd" x="358.107816" y="308.3105" style="stroke: #000000; stroke-width: 0.8"/>
      </g>
     </g>
     <g id="text_5">
      <!-- 1.00 -->
      <g transform="translate(342.357816 327.80925) scale(0.18 -0.18)">
       <defs>
        <path id="TimesNewRomanPSMT-31" d="M 750 3822 
L 1781 4325 
L 1884 4325 
L 1884 747 
Q 1884 391 1914 303 
Q 1944 216 2037 169 
Q 2131 122 2419 116 
L 2419 0 
L 825 0 
L 825 116 
Q 1125 122 1212 167 
Q 1300 213 1334 289 
Q 1369 366 1369 747 
L 1369 3034 
Q 1369 3497 1338 3628 
Q 1316 3728 1258 3775 
Q 1200 3822 1119 3822 
Q 1003 3822 797 3725 
L 750 3822 
z
" transform="scale(0.015625)"/>
       </defs>
       <use xlink:href="#TimesNewRomanPSMT-31"/>
       <use xlink:href="#TimesNewRomanPSMT-2e" transform="translate(50 0)"/>
       <use xlink:href="#TimesNewRomanPSMT-30" transform="translate(75 0)"/>
       <use xlink:href="#TimesNewRomanPSMT-30" transform="translate(125 0)"/>
      </g>
     </g>
    </g>
    <g id="text_6">
     <!-- $\kappa  = \frac{ln(n)}{ln(d)}$ -->
     <g transform="translate(218.419063 353.299562) scale(0.18 -0.18)">
      <defs>
       <path id="STIXGeneral-Italic-3ba" d="M 979 1440 
L 998 1446 
Q 1850 2541 2464 2790 
Q 2547 2822 2630 2822 
Q 2797 2822 2886 2736 
Q 2976 2650 2976 2522 
Q 2976 2387 2893 2307 
Q 2810 2227 2682 2227 
Q 2605 2227 2502 2288 
Q 2400 2349 2336 2349 
Q 2170 2349 1990 2205 
Q 1811 2061 1414 1645 
L 2042 544 
Q 2202 262 2310 182 
Q 2419 102 2624 102 
L 2624 0 
Q 2374 -83 2182 -83 
Q 1786 -83 1555 326 
L 960 1350 
L 576 0 
L 90 0 
L 640 1978 
Q 730 2317 730 2406 
Q 730 2560 518 2560 
L 339 2560 
L 339 2650 
Q 678 2694 1306 2822 
L 1325 2803 
L 979 1440 
z
" transform="scale(0.015625)"/>
       <path id="STIXGeneral-Regular-3d" d="M 4077 2048 
L 307 2048 
L 307 2470 
L 4077 2470 
L 4077 2048 
z
M 4077 768 
L 307 768 
L 307 1190 
L 4077 1190 
L 4077 768 
z
" transform="scale(0.015625)"/>
       <path id="STIXGeneral-Italic-6c" d="M 1786 4339 
L 806 595 
Q 755 410 755 320 
Q 755 205 864 205 
Q 1037 205 1293 570 
L 1453 794 
L 1542 730 
Q 1254 275 1046 102 
Q 838 -70 576 -70 
Q 262 -70 262 288 
Q 262 397 288 480 
L 1165 3834 
Q 1184 3898 1184 3955 
Q 1184 4096 870 4096 
L 755 4096 
L 755 4198 
Q 1203 4250 1747 4371 
L 1786 4339 
z
" transform="scale(0.015625)"/>
       <path id="STIXGeneral-Italic-6e" d="M 2944 749 
L 3034 666 
Q 2707 218 2534 80 
Q 2362 -58 2138 -58 
Q 2010 -58 1923 28 
Q 1837 115 1837 288 
Q 1837 390 1939 768 
L 2221 1805 
Q 2310 2150 2310 2310 
Q 2310 2496 2157 2496 
Q 1971 2496 1750 2275 
Q 1530 2054 1210 1587 
Q 998 1274 899 1024 
Q 800 774 570 0 
L 90 0 
L 704 2240 
Q 717 2304 717 2349 
Q 717 2445 630 2480 
Q 544 2515 301 2522 
L 301 2624 
Q 550 2675 857 2729 
Q 1165 2784 1338 2822 
L 1363 2810 
L 934 1414 
Q 1408 2170 1753 2496 
Q 2099 2822 2413 2822 
Q 2611 2822 2720 2716 
Q 2829 2611 2829 2432 
Q 2829 2272 2765 2048 
L 2406 749 
Q 2317 429 2317 358 
Q 2317 243 2419 243 
Q 2541 243 2810 582 
Q 2854 634 2944 749 
z
" transform="scale(0.015625)"/>
       <path id="STIXGeneral-Regular-28" d="M 1946 -1030 
L 1869 -1133 
Q 1126 -710 716 32 
Q 307 774 307 1613 
Q 307 3386 1888 4326 
L 1946 4224 
Q 1293 3667 1075 3126 
Q 858 2586 858 1632 
Q 858 685 1082 96 
Q 1306 -493 1946 -1030 
z
" transform="scale(0.015625)"/>
       <path id="STIXGeneral-Regular-29" d="M 186 4224 
L 262 4326 
Q 992 3891 1408 3148 
Q 1824 2406 1824 1581 
Q 1824 -166 243 -1133 
L 186 -1030 
Q 845 -486 1059 54 
Q 1274 595 1274 1562 
Q 1274 2534 1059 3120 
Q 845 3706 186 4224 
z
" transform="scale(0.015625)"/>
       <path id="STIXGeneral-Italic-64" d="M 3334 4371 
L 3373 4333 
L 3123 3360 
L 2739 1958 
Q 2323 429 2323 384 
Q 2323 256 2438 256 
Q 2522 256 2614 336 
Q 2707 416 2963 710 
L 3040 646 
Q 2547 -83 2099 -83 
Q 1978 -83 1907 -6 
Q 1837 70 1837 205 
Q 1837 397 1920 774 
Q 1645 307 1379 118 
Q 1114 -70 781 -70 
Q 461 -70 278 125 
Q 96 320 96 678 
Q 96 1440 713 2131 
Q 1331 2822 1965 2822 
Q 2163 2822 2256 2732 
Q 2349 2643 2381 2451 
L 2387 2451 
L 2675 3494 
Q 2765 3808 2765 3949 
Q 2765 4051 2694 4076 
Q 2624 4102 2355 4115 
L 2355 4224 
Q 2848 4269 3334 4371 
z
M 2278 2310 
Q 2278 2477 2185 2576 
Q 2093 2675 1978 2675 
Q 1677 2675 1395 2381 
Q 1075 2042 864 1571 
Q 653 1101 653 704 
Q 653 486 752 361 
Q 851 237 1024 237 
Q 1312 237 1606 550 
Q 1901 864 2089 1350 
Q 2278 1837 2278 2310 
z
" transform="scale(0.015625)"/>
      </defs>
      <use xlink:href="#STIXGeneral-Italic-3ba" transform="translate(0 0.003125)"/>
      <use xlink:href="#STIXGeneral-Regular-3d" transform="translate(58.83999 0.003125)"/>
      <use xlink:href="#STIXGeneral-Italic-6c" transform="translate(141.779971 50.192188) scale(0.7)"/>
      <use xlink:href="#STIXGeneral-Italic-6e" transform="translate(161.239963 50.192188) scale(0.7)"/>
      <use xlink:href="#STIXGeneral-Regular-28" transform="translate(196.239952 50.192188) scale(0.7)"/>
      <use xlink:href="#STIXGeneral-Italic-6e" transform="translate(219.549944 50.192188) scale(0.7)"/>
      <use xlink:href="#STIXGeneral-Regular-29" transform="translate(254.549933 50.192188) scale(0.7)"/>
      <use xlink:href="#STIXGeneral-Italic-6c" transform="translate(141.779971 -41.257812) scale(0.7)"/>
      <use xlink:href="#STIXGeneral-Italic-6e" transform="translate(161.239963 -41.257812) scale(0.7)"/>
      <use xlink:href="#STIXGeneral-Regular-28" transform="translate(196.239952 -41.257812) scale(0.7)"/>
      <use xlink:href="#STIXGeneral-Italic-64" transform="translate(219.549944 -41.257812) scale(0.7)"/>
      <use xlink:href="#STIXGeneral-Regular-29" transform="translate(254.549933 -41.257812) scale(0.7)"/>
      <path d="M 141.779971 12.8 
L 141.779971 19.05 
L 277.859924 19.05 
L 277.859924 12.8 
L 141.779971 12.8 
z
"/>
     </g>
    </g>
   </g>
   <g id="matplotlib.axis_2">
    <g id="ytick_1">
     <g id="line2d_11">
      <path d="M 66.049063 271.557283 
L 423.169063 271.557283 
" clip-path="url(#p41a3dc5d6c)" style="fill: none; stroke: #b0b0b0; stroke-opacity: 0.3; stroke-width: 0.8; stroke-linecap: square"/>
     </g>
     <g id="line2d_12">
      <defs>
       <path id="m6fafd03442" d="M 0 0 
L -3.5 0 
" style="stroke: #000000; stroke-width: 0.8"/>
      </defs>
      <g>
       <use xlink:href="#m6fafd03442" x="66.049063" y="271.557283" style="stroke: #000000; stroke-width: 0.8"/>
      </g>
     </g>
     <g id="text_7">
      <!-- 0.06 -->
      <g transform="translate(27.549063 277.806658) scale(0.18 -0.18)">
       <defs>
        <path id="TimesNewRomanPSMT-36" d="M 2869 4325 
L 2869 4209 
Q 2456 4169 2195 4045 
Q 1934 3922 1679 3669 
Q 1425 3416 1258 3105 
Q 1091 2794 978 2366 
Q 1428 2675 1881 2675 
Q 2316 2675 2634 2325 
Q 2953 1975 2953 1425 
Q 2953 894 2631 456 
Q 2244 -75 1606 -75 
Q 1172 -75 869 213 
Q 275 772 275 1663 
Q 275 2231 503 2743 
Q 731 3256 1154 3653 
Q 1578 4050 1965 4187 
Q 2353 4325 2688 4325 
L 2869 4325 
z
M 925 2138 
Q 869 1716 869 1456 
Q 869 1156 980 804 
Q 1091 453 1309 247 
Q 1469 100 1697 100 
Q 1969 100 2183 356 
Q 2397 613 2397 1088 
Q 2397 1622 2184 2012 
Q 1972 2403 1581 2403 
Q 1463 2403 1327 2353 
Q 1191 2303 925 2138 
z
" transform="scale(0.015625)"/>
       </defs>
       <use xlink:href="#TimesNewRomanPSMT-30"/>
       <use xlink:href="#TimesNewRomanPSMT-2e" transform="translate(50 0)"/>
       <use xlink:href="#TimesNewRomanPSMT-30" transform="translate(75 0)"/>
       <use xlink:href="#TimesNewRomanPSMT-36" transform="translate(125 0)"/>
      </g>
     </g>
    </g>
    <g id="ytick_2">
     <g id="line2d_13">
      <path d="M 66.049063 224.249479 
L 423.169063 224.249479 
" clip-path="url(#p41a3dc5d6c)" style="fill: none; stroke: #b0b0b0; stroke-opacity: 0.3; stroke-width: 0.8; stroke-linecap: square"/>
     </g>
     <g id="line2d_14">
      <g>
       <use xlink:href="#m6fafd03442" x="66.049063" y="224.249479" style="stroke: #000000; stroke-width: 0.8"/>
      </g>
     </g>
     <g id="text_8">
      <!-- 0.08 -->
      <g transform="translate(27.549063 230.498854) scale(0.18 -0.18)">
       <defs>
        <path id="TimesNewRomanPSMT-38" d="M 1228 2134 
Q 725 2547 579 2797 
Q 434 3047 434 3316 
Q 434 3728 753 4026 
Q 1072 4325 1600 4325 
Q 2113 4325 2425 4047 
Q 2738 3769 2738 3413 
Q 2738 3175 2569 2928 
Q 2400 2681 1866 2347 
Q 2416 1922 2594 1678 
Q 2831 1359 2831 1006 
Q 2831 559 2490 242 
Q 2150 -75 1597 -75 
Q 994 -75 656 303 
Q 388 606 388 966 
Q 388 1247 577 1523 
Q 766 1800 1228 2134 
z
M 1719 2469 
Q 2094 2806 2194 3001 
Q 2294 3197 2294 3444 
Q 2294 3772 2109 3958 
Q 1925 4144 1606 4144 
Q 1288 4144 1088 3959 
Q 888 3775 888 3528 
Q 888 3366 970 3203 
Q 1053 3041 1206 2894 
L 1719 2469 
z
M 1375 2016 
Q 1116 1797 991 1539 
Q 866 1281 866 981 
Q 866 578 1086 336 
Q 1306 94 1647 94 
Q 1984 94 2187 284 
Q 2391 475 2391 747 
Q 2391 972 2272 1150 
Q 2050 1481 1375 2016 
z
" transform="scale(0.015625)"/>
       </defs>
       <use xlink:href="#TimesNewRomanPSMT-30"/>
       <use xlink:href="#TimesNewRomanPSMT-2e" transform="translate(50 0)"/>
       <use xlink:href="#TimesNewRomanPSMT-30" transform="translate(75 0)"/>
       <use xlink:href="#TimesNewRomanPSMT-38" transform="translate(125 0)"/>
      </g>
     </g>
    </g>
    <g id="ytick_3">
     <g id="line2d_15">
      <path d="M 66.049063 176.941675 
L 423.169063 176.941675 
" clip-path="url(#p41a3dc5d6c)" style="fill: none; stroke: #b0b0b0; stroke-opacity: 0.3; stroke-width: 0.8; stroke-linecap: square"/>
     </g>
     <g id="line2d_16">
      <g>
       <use xlink:href="#m6fafd03442" x="66.049063" y="176.941675" style="stroke: #000000; stroke-width: 0.8"/>
      </g>
     </g>
     <g id="text_9">
      <!-- 0.10 -->
      <g transform="translate(27.549063 183.19105) scale(0.18 -0.18)">
       <use xlink:href="#TimesNewRomanPSMT-30"/>
       <use xlink:href="#TimesNewRomanPSMT-2e" transform="translate(50 0)"/>
       <use xlink:href="#TimesNewRomanPSMT-31" transform="translate(75 0)"/>
       <use xlink:href="#TimesNewRomanPSMT-30" transform="translate(125 0)"/>
      </g>
     </g>
    </g>
    <g id="ytick_4">
     <g id="line2d_17">
      <path d="M 66.049063 129.63387 
L 423.169063 129.63387 
" clip-path="url(#p41a3dc5d6c)" style="fill: none; stroke: #b0b0b0; stroke-opacity: 0.3; stroke-width: 0.8; stroke-linecap: square"/>
     </g>
     <g id="line2d_18">
      <g>
       <use xlink:href="#m6fafd03442" x="66.049063" y="129.63387" style="stroke: #000000; stroke-width: 0.8"/>
      </g>
     </g>
     <g id="text_10">
      <!-- 0.12 -->
      <g transform="translate(27.549063 135.883245) scale(0.18 -0.18)">
       <use xlink:href="#TimesNewRomanPSMT-30"/>
       <use xlink:href="#TimesNewRomanPSMT-2e" transform="translate(50 0)"/>
       <use xlink:href="#TimesNewRomanPSMT-31" transform="translate(75 0)"/>
       <use xlink:href="#TimesNewRomanPSMT-32" transform="translate(125 0)"/>
      </g>
     </g>
    </g>
    <g id="ytick_5">
     <g id="line2d_19">
      <path d="M 66.049063 82.326066 
L 423.169063 82.326066 
" clip-path="url(#p41a3dc5d6c)" style="fill: none; stroke: #b0b0b0; stroke-opacity: 0.3; stroke-width: 0.8; stroke-linecap: square"/>
     </g>
     <g id="line2d_20">
      <g>
       <use xlink:href="#m6fafd03442" x="66.049063" y="82.326066" style="stroke: #000000; stroke-width: 0.8"/>
      </g>
     </g>
     <g id="text_11">
      <!-- 0.14 -->
      <g transform="translate(27.549063 88.575441) scale(0.18 -0.18)">
       <defs>
        <path id="TimesNewRomanPSMT-34" d="M 2978 1563 
L 2978 1119 
L 2409 1119 
L 2409 0 
L 1894 0 
L 1894 1119 
L 100 1119 
L 100 1519 
L 2066 4325 
L 2409 4325 
L 2409 1563 
L 2978 1563 
z
M 1894 1563 
L 1894 3666 
L 406 1563 
L 1894 1563 
z
" transform="scale(0.015625)"/>
       </defs>
       <use xlink:href="#TimesNewRomanPSMT-30"/>
       <use xlink:href="#TimesNewRomanPSMT-2e" transform="translate(50 0)"/>
       <use xlink:href="#TimesNewRomanPSMT-31" transform="translate(75 0)"/>
       <use xlink:href="#TimesNewRomanPSMT-34" transform="translate(125 0)"/>
      </g>
     </g>
    </g>
    <g id="text_12">
     <!-- Loss -->
     <g transform="translate(19.69875 192.257469) rotate(-90) scale(0.18 -0.18)">
      <defs>
       <path id="TimesNewRomanPSMT-4c" d="M 3669 1172 
L 3772 1150 
L 3409 0 
L 128 0 
L 128 116 
L 288 116 
Q 556 116 672 291 
Q 738 391 738 753 
L 738 3488 
Q 738 3884 650 3984 
Q 528 4122 288 4122 
L 128 4122 
L 128 4238 
L 2047 4238 
L 2047 4122 
Q 1709 4125 1573 4059 
Q 1438 3994 1388 3894 
Q 1338 3794 1338 3416 
L 1338 753 
Q 1338 494 1388 397 
Q 1425 331 1503 300 
Q 1581 269 1991 269 
L 2300 269 
Q 2788 269 2984 341 
Q 3181 413 3343 595 
Q 3506 778 3669 1172 
z
" transform="scale(0.015625)"/>
       <path id="TimesNewRomanPSMT-6f" d="M 1600 2947 
Q 2250 2947 2644 2453 
Q 2978 2031 2978 1484 
Q 2978 1100 2793 706 
Q 2609 313 2286 112 
Q 1963 -88 1566 -88 
Q 919 -88 538 428 
Q 216 863 216 1403 
Q 216 1797 411 2186 
Q 606 2575 925 2761 
Q 1244 2947 1600 2947 
z
M 1503 2744 
Q 1338 2744 1170 2645 
Q 1003 2547 900 2300 
Q 797 2053 797 1666 
Q 797 1041 1045 587 
Q 1294 134 1700 134 
Q 2003 134 2200 384 
Q 2397 634 2397 1244 
Q 2397 2006 2069 2444 
Q 1847 2744 1503 2744 
z
" transform="scale(0.015625)"/>
       <path id="TimesNewRomanPSMT-73" d="M 2050 2947 
L 2050 1972 
L 1947 1972 
Q 1828 2431 1642 2597 
Q 1456 2763 1169 2763 
Q 950 2763 815 2647 
Q 681 2531 681 2391 
Q 681 2216 781 2091 
Q 878 1963 1175 1819 
L 1631 1597 
Q 2266 1288 2266 781 
Q 2266 391 1970 151 
Q 1675 -88 1309 -88 
Q 1047 -88 709 6 
Q 606 38 541 38 
Q 469 38 428 -44 
L 325 -44 
L 325 978 
L 428 978 
Q 516 541 762 319 
Q 1009 97 1316 97 
Q 1531 97 1667 223 
Q 1803 350 1803 528 
Q 1803 744 1651 891 
Q 1500 1038 1047 1263 
Q 594 1488 453 1669 
Q 313 1847 313 2119 
Q 313 2472 555 2709 
Q 797 2947 1181 2947 
Q 1350 2947 1591 2875 
Q 1750 2828 1803 2828 
Q 1853 2828 1881 2850 
Q 1909 2872 1947 2947 
L 2050 2947 
z
" transform="scale(0.015625)"/>
      </defs>
      <use xlink:href="#TimesNewRomanPSMT-4c"/>
      <use xlink:href="#TimesNewRomanPSMT-6f" transform="translate(61.083984 0)"/>
      <use xlink:href="#TimesNewRomanPSMT-73" transform="translate(111.083984 0)"/>
      <use xlink:href="#TimesNewRomanPSMT-73" transform="translate(150 0)"/>
     </g>
    </g>
   </g>
   <g id="line2d_21">
    <path d="M 66.049063 56.846176 
L 171.237401 90.552588 
L 199.579903 125.940478 
L 216.649424 120.862134 
L 228.902751 102.232794 
L 238.467965 119.318031 
L 246.31488 126.423927 
L 252.967837 113.26812 
L 258.742646 97.076466 
L 263.844328 122.861189 
L 268.413551 118.361214 
L 272.55103 116.69276 
L 276.331358 113.211654 
L 279.811325 102.238222 
L 283.035167 132.905068 
L 286.038015 118.405538 
L 288.848233 119.972974 
L 291.489053 149.235966 
L 293.97974 129.832159 
L 296.336451 128.433855 
L 298.572867 138.215144 
L 300.700673 136.248939 
L 302.729933 145.631936 
L 304.669372 110.341592 
L 306.526605 118.925555 
L 308.308318 130.957263 
L 310.020415 122.484662 
L 311.668131 123.673211 
L 313.256133 124.003035 
L 314.788599 93.916356 
L 316.269281 139.172965 
L 317.701566 114.907919 
L 319.088518 145.179258 
L 320.432918 123.294323 
L 321.7373 138.042821 
L 323.003977 135.788754 
L 324.235069 131.391013 
L 325.432519 124.71136 
L 326.598119 102.947921 
L 327.733518 111.720739 
L 328.840242 135.013547 
L 329.919704 131.493159 
L 330.973214 117.455506 
L 332.001992 143.272974 
L 333.007172 133.710234 
L 333.989812 140.453931 
L 334.950901 171.436767 
L 335.891364 175.779064 
L 336.812068 185.031717 
L 337.713826 177.796166 
L 338.597402 181.385779 
L 339.463514 196.869619 
L 340.312841 180.697615 
L 341.146019 172.548477 
L 341.963653 156.19504 
L 342.76631 157.849078 
L 343.55453 174.21168 
L 344.328823 216.92287 
L 345.089673 191.903766 
L 345.837538 185.833394 
L 346.572855 159.790663 
L 348.007479 201.600603 
L 348.707555 210.346773 
L 349.396623 176.253596 
L 350.075024 165.724241 
L 350.743083 194.040849 
L 351.401111 185.875885 
L 352.049404 198.043893 
L 352.688247 201.88866 
L 353.31791 162.501884 
L 353.938654 189.918352 
L 354.550729 198.308968 
L 355.154372 182.423329 
L 355.749813 181.170384 
L 356.337273 147.655012 
L 356.916961 186.361483 
L 358.053829 203.530327 
L 358.611391 191.040989 
L 359.161949 197.032795 
L 359.705675 189.517893 
L 360.242738 173.256485 
L 360.773299 178.66134 
L 361.297513 227.886433 
L 361.815531 212.418913 
L 362.327497 234.730443 
L 362.833551 237.499805 
L 363.333828 252.091278 
L 363.828458 233.935569 
L 364.317568 224.619137 
L 364.801279 221.103789 
L 365.279709 211.399533 
L 365.752973 234.531474 
L 366.22118 249.168168 
L 366.684438 245.321004 
L 367.14285 255.540449 
L 367.596516 225.0961 
L 368.045534 227.668113 
L 368.489998 231.343923 
L 368.929999 241.719213 
L 369.365627 243.837632 
L 369.796967 232.914427 
L 370.224102 277.553234 
L 370.647115 243.472525 
L 371.066083 260.249615 
L 371.481084 238.79524 
L 371.892192 251.548825 
L 372.299479 259.375788 
L 372.703015 251.312265 
L 373.10287 259.138434 
L 373.499109 249.73376 
L 373.891798 257.702116 
L 374.280999 253.067181 
L 374.666774 244.764348 
L 375.049182 270.347748 
L 375.428283 256.965118 
L 375.804132 228.774219 
L 376.176785 270.695698 
L 376.546296 258.204263 
L 376.912718 249.65634 
L 377.276101 264.426427 
L 377.636496 260.178716 
L 377.993951 242.307328 
L 378.348514 261.261505 
L 378.700231 264.239424 
L 379.049148 255.526879 
L 379.395309 254.398903 
L 379.738757 276.791836 
L 380.079534 246.615999 
L 380.417682 261.747686 
L 380.753241 242.152399 
L 381.086249 251.371709 
L 381.416747 264.895142 
L 381.74477 235.352448 
L 382.070357 260.822468 
L 382.393542 229.76697 
L 382.714361 242.179998 
L 383.032849 263.31655 
L 383.349039 240.525342 
L 383.662964 241.090546 
L 383.974656 257.733275 
L 384.284147 237.467836 
L 384.591468 256.290277 
L 384.896648 284.369619 
L 385.199718 260.946626 
L 385.500707 246.987662 
L 385.799642 239.890455 
L 386.096552 251.052829 
L 386.391464 273.4965 
L 386.684404 257.061377 
L 386.975399 232.017777 
L 387.264475 259.998392 
L 387.551656 253.713277 
L 387.836968 250.835777 
L 388.120434 266.324085 
L 388.402079 271.395855 
L 388.959995 262.182388 
L 389.236312 272.184534 
L 389.510898 242.209605 
L 390.054961 272.179573 
L 390.32448 254.759921 
L 390.592352 291.389116 
L 390.858597 244.276105 
L 391.123234 250.012194 
L 391.386282 260.906515 
L 391.647761 254.866314 
L 391.907689 270.627962 
L 392.166084 275.952833 
L 392.422965 269.915734 
L 392.678349 259.638836 
L 392.932253 276.243515 
L 393.184694 283.495536 
L 393.685256 247.829626 
L 393.933409 266.5047 
L 394.180165 261.565987 
L 394.425539 252.038689 
L 394.669547 271.673602 
L 394.912204 259.335941 
L 395.153525 270.250176 
L 395.393524 251.409952 
L 395.632215 264.38873 
L 395.869614 264.135656 
L 396.105734 266.538819 
L 396.340588 245.542303 
L 396.574191 268.355188 
L 396.806555 277.742872 
L 397.037693 253.292674 
L 397.267618 267.829399 
L 397.496344 262.749566 
L 397.723882 267.575479 
L 398.175444 249.326463 
L 398.399492 277.042434 
L 398.622401 237.737494 
L 398.844181 265.575252 
L 399.064845 234.69458 
L 399.284403 258.725638 
L 399.502866 257.927486 
L 399.720246 261.300577 
L 399.936553 215.687831 
L 400.151798 273.109091 
L 400.365991 266.11069 
L 400.579141 276.822228 
L 400.79126 253.964112 
L 401.002358 276.216913 
L 401.212443 275.10715 
L 401.421526 273.061869 
L 401.629616 273.012047 
L 401.836723 253.977824 
L 402.042855 254.635622 
L 402.248023 269.815324 
L 402.452234 245.468549 
L 402.857825 289.830103 
L 403.259695 271.12781 
L 403.459257 281.444096 
L 403.657914 268.05898 
L 403.855675 273.430051 
L 404.052548 265.738878 
L 404.248539 277.138896 
L 404.443659 221.312011 
L 404.83131 273.419961 
L 405.023857 239.120941 
L 405.215562 277.637211 
L 405.406432 253.249813 
L 405.596475 277.92161 
L 405.785697 257.702539 
L 405.974105 266.337981 
L 406.161707 281.114791 
L 406.348509 259.772758 
L 406.534518 285.82475 
L 406.719741 257.55711 
L 406.904184 275.283077 
L 407.087855 261.300242 
L 407.270759 267.748057 
L 407.452902 267.8308 
L 407.634292 257.437323 
L 408.174 249.164714 
L 408.352435 273.492385 
L 408.530147 246.302459 
L 408.707141 286.888648 
L 408.883424 281.245091 
L 409.059 289.582774 
L 409.233875 270.384211 
L 409.408055 267.122343 
L 409.581546 252.818213 
L 409.754352 259.004654 
L 410.097935 243.915475 
L 410.268721 284.614357 
L 410.438844 249.475487 
L 410.777122 280.497686 
L 410.945287 249.001221 
L 411.112809 279.494757 
L 411.279693 265.227276 
L 411.445944 270.162322 
L 411.611567 251.612587 
L 411.776566 250.805993 
L 411.940946 272.66682 
L 412.267868 243.588752 
L 412.592369 293.686378 
L 412.753723 296.2145 
L 412.914485 249.499226 
L 413.07466 268.069079 
L 413.234251 269.200025 
L 413.393263 273.756192 
L 413.5517 251.681143 
L 413.709567 266.365315 
L 413.866867 292.378598 
L 414.179783 256.724416 
L 414.335407 283.65517 
L 414.49048 278.738505 
L 414.645007 256.309575 
L 414.79899 253.603429 
L 414.952435 270.15463 
L 415.105344 271.045543 
L 415.257721 275.375081 
L 415.409571 286.494797 
L 415.861987 246.339979 
L 416.011761 272.712112 
L 416.309781 248.683239 
L 416.458034 284.366773 
L 416.605788 255.807305 
L 416.753045 276.210921 
L 416.899809 275.602733 
L 417.046083 276.937644 
L 417.191871 247.495431 
L 417.337175 273.698942 
L 417.481999 251.971931 
L 417.626346 247.038347 
L 418.056556 281.858548 
L 418.199026 290.030835 
L 418.341034 290.954863 
L 418.482583 240.501427 
L 418.764318 267.545774 
L 418.904509 264.818868 
L 419.044253 248.627126 
L 419.183553 275.203251 
L 419.322411 261.341534 
L 419.460831 265.699692 
L 419.598815 276.470621 
L 419.873487 257.633314 
L 420.01018 240.096932 
L 420.146447 283.331206 
L 420.282293 251.036597 
L 420.417718 276.848117 
L 420.552727 279.208974 
L 420.687321 260.963086 
L 420.821502 274.437394 
L 420.955274 245.174394 
L 421.2216 276.847245 
L 421.354158 253.013552 
L 421.486316 265.935195 
L 421.618077 246.6286 
L 421.749443 281.923976 
L 422.011 256.849543 
L 422.141195 278.349069 
L 422.271005 238.833571 
L 422.400431 275.16759 
L 422.529476 268.358448 
L 422.658142 274.90255 
L 422.786432 220.158674 
L 422.914347 261.880779 
L 423.04189 266.304311 
L 423.169062 274.779802 
L 423.169062 274.779802 
" clip-path="url(#p41a3dc5d6c)" style="fill: none; stroke: #ffa500; stroke-width: 1.5; stroke-linecap: square"/>
   </g>
   <g id="line2d_22">
    <path d="M 66.049063 54.2945 
L 171.237401 112.155335 
L 199.579903 116.870334 
L 216.649424 112.398751 
L 228.902751 119.929215 
L 238.467965 118.60567 
L 246.31488 116.004984 
L 252.967837 120.29441 
L 258.742646 122.208537 
L 263.844328 121.379649 
L 268.413551 110.966205 
L 272.55103 120.222136 
L 276.331358 122.784033 
L 283.035167 123.085167 
L 286.038015 123.468425 
L 288.848233 120.932981 
L 291.489053 123.490155 
L 293.97974 120.563063 
L 296.336451 122.968869 
L 298.572867 122.668035 
L 300.700673 123.479969 
L 302.729933 121.346711 
L 304.669372 121.597547 
L 306.526605 118.793484 
L 308.308318 123.413722 
L 310.020415 123.629364 
L 311.668131 122.655804 
L 313.256133 123.954782 
L 314.788599 123.834325 
L 317.701566 124.68237 
L 319.088518 123.832492 
L 320.432918 123.668206 
L 321.7373 121.325281 
L 323.003977 124.160748 
L 325.432519 124.6019 
L 326.598119 124.219999 
L 327.733518 120.421 
L 328.840242 124.825896 
L 329.919704 125.025094 
L 330.973214 125.47319 
L 332.001992 122.823862 
L 333.007172 126.075245 
L 333.989812 139.656378 
L 334.950901 175.719567 
L 335.891364 180.29171 
L 336.812068 181.096119 
L 337.713826 183.454958 
L 338.597402 184.582458 
L 339.463514 185.433058 
L 340.312841 185.721132 
L 341.146019 184.01588 
L 341.963653 187.70711 
L 342.76631 183.867437 
L 343.55453 186.463153 
L 344.328823 184.257146 
L 345.089673 186.467454 
L 345.837538 185.511412 
L 346.572855 187.605387 
L 347.296037 187.442511 
L 348.007479 188.347426 
L 348.707555 186.201603 
L 349.396623 189.775055 
L 350.075024 184.495187 
L 350.743083 189.731367 
L 351.401111 187.542454 
L 352.049404 190.679019 
L 352.688247 190.414931 
L 353.31791 191.33821 
L 353.938654 191.627429 
L 354.550729 191.702999 
L 355.154372 191.945358 
L 355.749813 186.869781 
L 356.337273 183.738468 
L 356.916961 189.199436 
L 357.489082 187.49094 
L 358.053829 186.178428 
L 358.611391 193.113375 
L 359.161949 193.647491 
L 359.705675 193.17148 
L 360.242738 197.64694 
L 360.773299 199.724702 
L 361.297513 215.679231 
L 361.815531 205.281859 
L 362.327497 220.939291 
L 362.833551 225.642271 
L 363.333828 228.13741 
L 363.828458 225.438243 
L 364.317568 222.064165 
L 364.801279 226.400876 
L 365.279709 216.422468 
L 365.752973 230.373008 
L 366.22118 235.735249 
L 366.684438 235.856252 
L 367.14285 231.216047 
L 367.596516 235.75252 
L 368.045534 236.444156 
L 368.489998 235.276879 
L 368.929999 238.908471 
L 369.365627 237.309224 
L 369.796967 236.715611 
L 370.647115 243.468331 
L 371.066083 242.220074 
L 371.481084 238.546096 
L 371.892192 242.268486 
L 372.299479 242.645664 
L 372.703015 241.485807 
L 373.10287 242.680559 
L 373.499109 244.689747 
L 373.891798 235.77358 
L 374.280999 238.667505 
L 374.666774 243.636653 
L 375.049182 245.022832 
L 375.428283 248.015396 
L 375.804132 218.486236 
L 376.176785 240.856594 
L 376.546296 247.889863 
L 376.912718 244.80853 
L 377.276101 248.104764 
L 377.636496 247.628436 
L 377.993951 243.953471 
L 378.348514 249.820151 
L 378.700231 250.85904 
L 379.049148 248.530426 
L 379.738757 248.566272 
L 380.079534 248.882949 
L 380.417682 249.550493 
L 380.753241 249.65167 
L 381.086249 251.855898 
L 381.416747 242.861271 
L 381.74477 246.213689 
L 382.070357 250.921093 
L 382.393542 241.737612 
L 382.714361 244.793779 
L 383.032849 250.18235 
L 383.349039 241.216995 
L 383.662964 249.590146 
L 383.974656 247.945377 
L 384.284147 254.330841 
L 384.591468 253.449593 
L 384.896648 254.260893 
L 385.199718 253.659366 
L 385.500707 253.625794 
L 385.799642 254.35865 
L 386.096552 253.901831 
L 386.391464 253.889389 
L 386.684404 249.707413 
L 386.975399 249.620423 
L 387.551656 255.866537 
L 387.836968 254.346578 
L 388.120434 254.490968 
L 388.402079 255.010686 
L 388.681925 256.327393 
L 388.959995 248.512132 
L 389.236312 253.802099 
L 389.510898 248.100112 
L 389.783774 255.138227 
L 390.054961 255.472546 
L 390.32448 251.418993 
L 390.592352 255.266579 
L 390.858597 255.673101 
L 391.123234 251.772115 
L 391.386282 252.666474 
L 391.647761 250.099396 
L 391.907689 256.396265 
L 392.166084 256.310421 
L 392.422965 249.619983 
L 392.678349 249.232723 
L 392.932253 253.771364 
L 393.685256 246.252197 
L 393.933409 253.449294 
L 394.180165 253.491414 
L 394.425539 255.739895 
L 394.669547 242.237715 
L 394.912204 252.023215 
L 395.153525 253.994971 
L 395.393524 247.815368 
L 395.632215 255.216 
L 395.869614 254.420897 
L 396.105734 258.043819 
L 396.340588 256.558173 
L 396.806555 257.837377 
L 397.037693 254.062399 
L 397.496344 257.806976 
L 397.723882 256.210055 
L 397.950245 251.036139 
L 398.175444 257.831878 
L 398.399492 257.793212 
L 398.844181 255.819729 
L 399.064845 256.915684 
L 399.284403 256.339394 
L 399.502866 257.630212 
L 399.720246 257.443914 
L 399.936553 231.563812 
L 400.365991 258.776887 
L 400.579141 258.531532 
L 400.79126 256.795245 
L 401.002358 258.714359 
L 401.212443 257.70201 
L 401.421526 253.81544 
L 401.629616 258.617553 
L 401.836723 259.534593 
L 402.452234 251.452284 
L 402.655499 258.580156 
L 402.857825 259.011774 
L 403.059221 260.385898 
L 403.259695 260.619392 
L 403.459257 260.433517 
L 403.657914 257.040828 
L 404.052548 259.406206 
L 404.248539 258.190411 
L 404.443659 251.18319 
L 404.83131 258.267391 
L 405.023857 258.019992 
L 405.215562 258.059327 
L 405.406432 255.221305 
L 405.596475 259.041328 
L 405.785697 256.389798 
L 405.974105 256.831813 
L 406.161707 260.642109 
L 406.348509 250.545306 
L 406.534518 259.56228 
L 406.719741 259.525764 
L 406.904184 259.960501 
L 407.087855 256.221352 
L 407.452902 259.350004 
L 407.634292 259.010293 
L 407.814934 259.437717 
L 407.994835 256.284885 
L 408.174 258.893555 
L 408.530147 260.714964 
L 408.707141 257.61629 
L 408.883424 261.006528 
L 409.059 260.895658 
L 409.233875 262.339519 
L 409.408055 255.557932 
L 409.92648 262.675529 
L 410.097935 251.432475 
L 410.268721 260.119694 
L 410.438844 261.542847 
L 410.60831 261.850572 
L 410.945287 254.146305 
L 411.112809 253.971056 
L 411.279693 254.666428 
L 411.445944 254.601044 
L 411.611567 259.013624 
L 411.776566 249.113465 
L 411.940946 261.745588 
L 412.104712 260.132119 
L 412.267868 261.850202 
L 412.430419 261.67735 
L 412.592369 261.79289 
L 412.753723 262.434175 
L 412.914485 257.807734 
L 413.07466 257.710575 
L 413.393263 261.630683 
L 413.5517 261.291976 
L 413.866867 260.482651 
L 414.023604 261.100585 
L 414.179783 261.197127 
L 414.335407 258.340987 
L 414.645007 263.962488 
L 414.79899 260.274112 
L 414.952435 262.167637 
L 415.105344 261.542372 
L 415.257721 261.411429 
L 415.409571 261.481306 
L 415.560896 261.81173 
L 415.7117 248.70518 
L 415.861987 261.377979 
L 416.011761 261.018618 
L 416.161024 261.064228 
L 416.309781 258.393152 
L 416.458034 261.628727 
L 416.605788 262.425487 
L 416.753045 258.161597 
L 417.046083 259.76985 
L 417.191871 253.878074 
L 417.337175 260.443721 
L 417.481999 259.41389 
L 417.626346 257.492008 
L 417.770219 257.47086 
L 418.056556 261.416998 
L 418.199026 257.725291 
L 418.482583 262.451887 
L 418.904509 257.266639 
L 419.044253 260.000753 
L 419.183553 259.491045 
L 419.322411 261.872425 
L 419.460831 260.119994 
L 419.736366 263.419701 
L 419.873487 262.254433 
L 420.01018 246.083945 
L 420.146447 262.743151 
L 420.282293 263.418731 
L 420.417718 262.382115 
L 420.552727 263.432566 
L 420.821502 262.116863 
L 420.955274 263.251343 
L 421.2216 261.146847 
L 421.354158 256.074019 
L 421.486316 238.545374 
L 421.618077 262.721668 
L 421.749443 263.754565 
L 422.011 261.172788 
L 422.141195 261.478451 
L 422.271005 260.543382 
L 422.400431 262.113621 
L 422.529476 258.516376 
L 422.658142 264.990891 
L 422.786432 244.329117 
L 422.914347 264.016874 
L 423.04189 260.96721 
L 423.169062 264.560366 
L 423.169062 264.560366 
" clip-path="url(#p41a3dc5d6c)" style="fill: none; stroke: #008000; stroke-width: 1.5; stroke-linecap: square"/>
   </g>
   <g id="patch_3">
    <path d="M 66.049063 308.3105 
L 66.049063 42.1985 
" style="fill: none; stroke: #000000; stroke-width: 0.8; stroke-linejoin: miter; stroke-linecap: square"/>
   </g>
   <g id="patch_4">
    <path d="M 423.169063 308.3105 
L 423.169063 42.1985 
" style="fill: none; stroke: #000000; stroke-width: 0.8; stroke-linejoin: miter; stroke-linecap: square"/>
   </g>
   <g id="patch_5">
    <path d="M 66.049063 308.3105 
L 423.169062 308.3105 
" style="fill: none; stroke: #000000; stroke-width: 0.8; stroke-linejoin: miter; stroke-linecap: square"/>
   </g>
   <g id="patch_6">
    <path d="M 66.049063 42.1985 
L 423.169062 42.1985 
" style="fill: none; stroke: #000000; stroke-width: 0.8; stroke-linejoin: miter; stroke-linecap: square"/>
   </g>
   <g id="text_13">
    <!-- Loss of the model_(784+512+5) -->
    <g transform="translate(104.347438 22.1985) scale(0.216 -0.216)">
     <defs>
      <path id="TimesNewRomanPSMT-20" transform="scale(0.015625)"/>
      <path id="TimesNewRomanPSMT-66" d="M 1319 2638 
L 1319 756 
Q 1319 356 1406 250 
Q 1522 113 1716 113 
L 1975 113 
L 1975 0 
L 266 0 
L 266 113 
L 394 113 
Q 519 113 622 175 
Q 725 238 764 344 
Q 803 450 803 756 
L 803 2638 
L 247 2638 
L 247 2863 
L 803 2863 
L 803 3050 
Q 803 3478 940 3775 
Q 1078 4072 1361 4255 
Q 1644 4438 1997 4438 
Q 2325 4438 2600 4225 
Q 2781 4084 2781 3909 
Q 2781 3816 2700 3733 
Q 2619 3650 2525 3650 
Q 2453 3650 2373 3701 
Q 2294 3753 2178 3923 
Q 2063 4094 1966 4153 
Q 1869 4213 1750 4213 
Q 1606 4213 1506 4136 
Q 1406 4059 1362 3898 
Q 1319 3738 1319 3069 
L 1319 2863 
L 2056 2863 
L 2056 2638 
L 1319 2638 
z
" transform="scale(0.015625)"/>
      <path id="TimesNewRomanPSMT-74" d="M 1031 3803 
L 1031 2863 
L 1700 2863 
L 1700 2644 
L 1031 2644 
L 1031 788 
Q 1031 509 1111 412 
Q 1191 316 1316 316 
Q 1419 316 1516 380 
Q 1613 444 1666 569 
L 1788 569 
Q 1678 263 1478 108 
Q 1278 -47 1066 -47 
Q 922 -47 784 33 
Q 647 113 581 261 
Q 516 409 516 719 
L 516 2644 
L 63 2644 
L 63 2747 
Q 234 2816 414 2980 
Q 594 3144 734 3369 
Q 806 3488 934 3803 
L 1031 3803 
z
" transform="scale(0.015625)"/>
      <path id="TimesNewRomanPSMT-68" d="M 1041 4444 
L 1041 2350 
Q 1388 2731 1591 2839 
Q 1794 2947 1997 2947 
Q 2241 2947 2416 2812 
Q 2591 2678 2675 2391 
Q 2734 2191 2734 1659 
L 2734 647 
Q 2734 375 2778 275 
Q 2809 200 2884 156 
Q 2959 113 3159 113 
L 3159 0 
L 1753 0 
L 1753 113 
L 1819 113 
Q 2019 113 2097 173 
Q 2175 234 2206 353 
Q 2216 403 2216 647 
L 2216 1659 
Q 2216 2128 2167 2275 
Q 2119 2422 2012 2495 
Q 1906 2569 1756 2569 
Q 1603 2569 1437 2487 
Q 1272 2406 1041 2159 
L 1041 647 
Q 1041 353 1073 281 
Q 1106 209 1195 161 
Q 1284 113 1503 113 
L 1503 0 
L 84 0 
L 84 113 
Q 275 113 384 172 
Q 447 203 484 290 
Q 522 378 522 647 
L 522 3238 
Q 522 3728 498 3840 
Q 475 3953 426 3993 
Q 378 4034 297 4034 
Q 231 4034 84 3984 
L 41 4094 
L 897 4444 
L 1041 4444 
z
" transform="scale(0.015625)"/>
      <path id="TimesNewRomanPSMT-65" d="M 681 1784 
Q 678 1147 991 784 
Q 1303 422 1725 422 
Q 2006 422 2214 576 
Q 2422 731 2563 1106 
L 2659 1044 
Q 2594 616 2278 264 
Q 1963 -88 1488 -88 
Q 972 -88 605 314 
Q 238 716 238 1394 
Q 238 2128 614 2539 
Q 991 2950 1559 2950 
Q 2041 2950 2350 2633 
Q 2659 2316 2659 1784 
L 681 1784 
z
M 681 1966 
L 2006 1966 
Q 1991 2241 1941 2353 
Q 1863 2528 1708 2628 
Q 1553 2728 1384 2728 
Q 1125 2728 920 2526 
Q 716 2325 681 1966 
z
" transform="scale(0.015625)"/>
      <path id="TimesNewRomanPSMT-6d" d="M 1050 2338 
Q 1363 2650 1419 2697 
Q 1559 2816 1721 2881 
Q 1884 2947 2044 2947 
Q 2313 2947 2506 2790 
Q 2700 2634 2766 2338 
Q 3088 2713 3309 2830 
Q 3531 2947 3766 2947 
Q 3994 2947 4170 2830 
Q 4347 2713 4450 2447 
Q 4519 2266 4519 1878 
L 4519 647 
Q 4519 378 4559 278 
Q 4591 209 4675 161 
Q 4759 113 4950 113 
L 4950 0 
L 3538 0 
L 3538 113 
L 3597 113 
Q 3781 113 3884 184 
Q 3956 234 3988 344 
Q 4000 397 4000 647 
L 4000 1878 
Q 4000 2228 3916 2372 
Q 3794 2572 3525 2572 
Q 3359 2572 3192 2489 
Q 3025 2406 2788 2181 
L 2781 2147 
L 2788 2013 
L 2788 647 
Q 2788 353 2820 281 
Q 2853 209 2943 161 
Q 3034 113 3253 113 
L 3253 0 
L 1806 0 
L 1806 113 
Q 2044 113 2133 169 
Q 2222 225 2256 338 
Q 2272 391 2272 647 
L 2272 1878 
Q 2272 2228 2169 2381 
Q 2031 2581 1784 2581 
Q 1616 2581 1450 2491 
Q 1191 2353 1050 2181 
L 1050 647 
Q 1050 366 1089 281 
Q 1128 197 1204 155 
Q 1281 113 1516 113 
L 1516 0 
L 100 0 
L 100 113 
Q 297 113 375 155 
Q 453 197 493 289 
Q 534 381 534 647 
L 534 1741 
Q 534 2213 506 2350 
Q 484 2453 437 2492 
Q 391 2531 309 2531 
Q 222 2531 100 2484 
L 53 2597 
L 916 2947 
L 1050 2947 
L 1050 2338 
z
" transform="scale(0.015625)"/>
      <path id="TimesNewRomanPSMT-64" d="M 2222 322 
Q 2013 103 1813 7 
Q 1613 -88 1381 -88 
Q 913 -88 563 304 
Q 213 697 213 1313 
Q 213 1928 600 2439 
Q 988 2950 1597 2950 
Q 1975 2950 2222 2709 
L 2222 3238 
Q 2222 3728 2198 3840 
Q 2175 3953 2125 3993 
Q 2075 4034 2000 4034 
Q 1919 4034 1784 3984 
L 1744 4094 
L 2597 4444 
L 2738 4444 
L 2738 1134 
Q 2738 631 2761 520 
Q 2784 409 2836 365 
Q 2888 322 2956 322 
Q 3041 322 3181 375 
L 3216 266 
L 2366 -88 
L 2222 -88 
L 2222 322 
z
M 2222 541 
L 2222 2016 
Q 2203 2228 2109 2403 
Q 2016 2578 1861 2667 
Q 1706 2756 1559 2756 
Q 1284 2756 1069 2509 
Q 784 2184 784 1559 
Q 784 928 1059 592 
Q 1334 256 1672 256 
Q 1956 256 2222 541 
z
" transform="scale(0.015625)"/>
      <path id="TimesNewRomanPSMT-6c" d="M 1184 4444 
L 1184 647 
Q 1184 378 1223 290 
Q 1263 203 1344 158 
Q 1425 113 1647 113 
L 1647 0 
L 244 0 
L 244 113 
Q 441 113 512 153 
Q 584 194 625 287 
Q 666 381 666 647 
L 666 3247 
Q 666 3731 644 3842 
Q 622 3953 573 3993 
Q 525 4034 450 4034 
Q 369 4034 244 3984 
L 191 4094 
L 1044 4444 
L 1184 4444 
z
" transform="scale(0.015625)"/>
      <path id="TimesNewRomanPSMT-5f" d="M 3256 -1381 
L -53 -1381 
L -53 -1119 
L 3256 -1119 
L 3256 -1381 
z
" transform="scale(0.015625)"/>
      <path id="TimesNewRomanPSMT-28" d="M 1988 -1253 
L 1988 -1369 
Q 1516 -1131 1200 -813 
Q 750 -359 506 256 
Q 263 872 263 1534 
Q 263 2503 741 3301 
Q 1219 4100 1988 4444 
L 1988 4313 
Q 1603 4100 1356 3731 
Q 1109 3363 987 2797 
Q 866 2231 866 1616 
Q 866 947 969 400 
Q 1050 -31 1165 -292 
Q 1281 -553 1476 -793 
Q 1672 -1034 1988 -1253 
z
" transform="scale(0.015625)"/>
      <path id="TimesNewRomanPSMT-2b" d="M 1672 441 
L 1672 2000 
L 116 2000 
L 116 2256 
L 1672 2256 
L 1672 3809 
L 1922 3809 
L 1922 2256 
L 3484 2256 
L 3484 2000 
L 1922 2000 
L 1922 441 
L 1672 441 
z
" transform="scale(0.015625)"/>
      <path id="TimesNewRomanPSMT-29" d="M 144 4313 
L 144 4444 
Q 619 4209 934 3891 
Q 1381 3434 1625 2820 
Q 1869 2206 1869 1541 
Q 1869 572 1392 -226 
Q 916 -1025 144 -1369 
L 144 -1253 
Q 528 -1038 776 -670 
Q 1025 -303 1145 264 
Q 1266 831 1266 1447 
Q 1266 2113 1163 2663 
Q 1084 3094 967 3353 
Q 850 3613 656 3853 
Q 463 4094 144 4313 
z
" transform="scale(0.015625)"/>
     </defs>
     <use xlink:href="#TimesNewRomanPSMT-4c"/>
     <use xlink:href="#TimesNewRomanPSMT-6f" transform="translate(61.083984 0)"/>
     <use xlink:href="#TimesNewRomanPSMT-73" transform="translate(111.083984 0)"/>
     <use xlink:href="#TimesNewRomanPSMT-73" transform="translate(150 0)"/>
     <use xlink:href="#TimesNewRomanPSMT-20" transform="translate(188.916016 0)"/>
     <use xlink:href="#TimesNewRomanPSMT-6f" transform="translate(213.916016 0)"/>
     <use xlink:href="#TimesNewRomanPSMT-66" transform="translate(263.916016 0)"/>
     <use xlink:href="#TimesNewRomanPSMT-20" transform="translate(297.216797 0)"/>
     <use xlink:href="#TimesNewRomanPSMT-74" transform="translate(322.216797 0)"/>
     <use xlink:href="#TimesNewRomanPSMT-68" transform="translate(350 0)"/>
     <use xlink:href="#TimesNewRomanPSMT-65" transform="translate(400 0)"/>
     <use xlink:href="#TimesNewRomanPSMT-20" transform="translate(444.384766 0)"/>
     <use xlink:href="#TimesNewRomanPSMT-6d" transform="translate(469.384766 0)"/>
     <use xlink:href="#TimesNewRomanPSMT-6f" transform="translate(547.167969 0)"/>
     <use xlink:href="#TimesNewRomanPSMT-64" transform="translate(597.167969 0)"/>
     <use xlink:href="#TimesNewRomanPSMT-65" transform="translate(647.167969 0)"/>
     <use xlink:href="#TimesNewRomanPSMT-6c" transform="translate(691.552734 0)"/>
     <use xlink:href="#TimesNewRomanPSMT-5f" transform="translate(719.335938 0)"/>
     <use xlink:href="#TimesNewRomanPSMT-28" transform="translate(769.335938 0)"/>
     <use xlink:href="#TimesNewRomanPSMT-37" transform="translate(802.636719 0)"/>
     <use xlink:href="#TimesNewRomanPSMT-38" transform="translate(852.636719 0)"/>
     <use xlink:href="#TimesNewRomanPSMT-34" transform="translate(902.636719 0)"/>
     <use xlink:href="#TimesNewRomanPSMT-2b" transform="translate(952.636719 0)"/>
     <use xlink:href="#TimesNewRomanPSMT-35" transform="translate(1009.033203 0)"/>
     <use xlink:href="#TimesNewRomanPSMT-31" transform="translate(1059.033203 0)"/>
     <use xlink:href="#TimesNewRomanPSMT-32" transform="translate(1109.033203 0)"/>
     <use xlink:href="#TimesNewRomanPSMT-2b" transform="translate(1159.033203 0)"/>
     <use xlink:href="#TimesNewRomanPSMT-35" transform="translate(1215.429688 0)"/>
     <use xlink:href="#TimesNewRomanPSMT-29" transform="translate(1265.429688 0)"/>
    </g>
   </g>
   <g id="legend_1">
    <g id="patch_7">
     <path d="M 78.649062 299.3105 
L 242.741562 299.3105 
Q 246.341562 299.3105 246.341562 295.7105 
L 246.341562 246.576125 
Q 246.341562 242.976125 242.741562 242.976125 
L 78.649062 242.976125 
Q 75.049063 242.976125 75.049063 246.576125 
L 75.049063 295.7105 
Q 75.049063 299.3105 78.649062 299.3105 
z
" style="fill: #ffffff; opacity: 0.8; stroke: #cccccc; stroke-linejoin: miter"/>
    </g>
    <g id="line2d_23">
     <path d="M 82.249063 256.476125 
L 100.249063 256.476125 
L 118.249063 256.476125 
" style="fill: none; stroke: #ffa500; stroke-width: 1.5; stroke-linecap: square"/>
    </g>
    <g id="text_14">
     <!-- Training loss -->
     <g transform="translate(132.649063 262.776125) scale(0.18 -0.18)">
      <defs>
       <path id="TimesNewRomanPSMT-54" d="M 3703 4238 
L 3750 3244 
L 3631 3244 
Q 3597 3506 3538 3619 
Q 3441 3800 3280 3886 
Q 3119 3972 2856 3972 
L 2259 3972 
L 2259 734 
Q 2259 344 2344 247 
Q 2463 116 2709 116 
L 2856 116 
L 2856 0 
L 1059 0 
L 1059 116 
L 1209 116 
Q 1478 116 1591 278 
Q 1659 378 1659 734 
L 1659 3972 
L 1150 3972 
Q 853 3972 728 3928 
Q 566 3869 450 3700 
Q 334 3531 313 3244 
L 194 3244 
L 244 4238 
L 3703 4238 
z
" transform="scale(0.015625)"/>
       <path id="TimesNewRomanPSMT-72" d="M 1038 2947 
L 1038 2303 
Q 1397 2947 1775 2947 
Q 1947 2947 2059 2842 
Q 2172 2738 2172 2600 
Q 2172 2478 2090 2393 
Q 2009 2309 1897 2309 
Q 1788 2309 1652 2417 
Q 1516 2525 1450 2525 
Q 1394 2525 1328 2463 
Q 1188 2334 1038 2041 
L 1038 669 
Q 1038 431 1097 309 
Q 1138 225 1241 169 
Q 1344 113 1538 113 
L 1538 0 
L 72 0 
L 72 113 
Q 291 113 397 181 
Q 475 231 506 341 
Q 522 394 522 644 
L 522 1753 
Q 522 2253 501 2348 
Q 481 2444 426 2487 
Q 372 2531 291 2531 
Q 194 2531 72 2484 
L 41 2597 
L 906 2947 
L 1038 2947 
z
" transform="scale(0.015625)"/>
       <path id="TimesNewRomanPSMT-61" d="M 1822 413 
Q 1381 72 1269 19 
Q 1100 -59 909 -59 
Q 613 -59 420 144 
Q 228 347 228 678 
Q 228 888 322 1041 
Q 450 1253 767 1440 
Q 1084 1628 1822 1897 
L 1822 2009 
Q 1822 2438 1686 2597 
Q 1550 2756 1291 2756 
Q 1094 2756 978 2650 
Q 859 2544 859 2406 
L 866 2225 
Q 866 2081 792 2003 
Q 719 1925 600 1925 
Q 484 1925 411 2006 
Q 338 2088 338 2228 
Q 338 2497 613 2722 
Q 888 2947 1384 2947 
Q 1766 2947 2009 2819 
Q 2194 2722 2281 2516 
Q 2338 2381 2338 1966 
L 2338 994 
Q 2338 584 2353 492 
Q 2369 400 2405 369 
Q 2441 338 2488 338 
Q 2538 338 2575 359 
Q 2641 400 2828 588 
L 2828 413 
Q 2478 -56 2159 -56 
Q 2006 -56 1915 50 
Q 1825 156 1822 413 
z
M 1822 616 
L 1822 1706 
Q 1350 1519 1213 1441 
Q 966 1303 859 1153 
Q 753 1003 753 825 
Q 753 600 887 451 
Q 1022 303 1197 303 
Q 1434 303 1822 616 
z
" transform="scale(0.015625)"/>
       <path id="TimesNewRomanPSMT-69" d="M 928 4444 
Q 1059 4444 1151 4351 
Q 1244 4259 1244 4128 
Q 1244 3997 1151 3903 
Q 1059 3809 928 3809 
Q 797 3809 703 3903 
Q 609 3997 609 4128 
Q 609 4259 701 4351 
Q 794 4444 928 4444 
z
M 1188 2947 
L 1188 647 
Q 1188 378 1227 289 
Q 1266 200 1342 156 
Q 1419 113 1622 113 
L 1622 0 
L 231 0 
L 231 113 
Q 441 113 512 153 
Q 584 194 626 287 
Q 669 381 669 647 
L 669 1750 
Q 669 2216 641 2353 
Q 619 2453 572 2492 
Q 525 2531 444 2531 
Q 356 2531 231 2484 
L 188 2597 
L 1050 2947 
L 1188 2947 
z
" transform="scale(0.015625)"/>
       <path id="TimesNewRomanPSMT-6e" d="M 1034 2341 
Q 1538 2947 1994 2947 
Q 2228 2947 2397 2830 
Q 2566 2713 2666 2444 
Q 2734 2256 2734 1869 
L 2734 647 
Q 2734 375 2778 278 
Q 2813 200 2889 156 
Q 2966 113 3172 113 
L 3172 0 
L 1756 0 
L 1756 113 
L 1816 113 
Q 2016 113 2095 173 
Q 2175 234 2206 353 
Q 2219 400 2219 647 
L 2219 1819 
Q 2219 2209 2117 2386 
Q 2016 2563 1775 2563 
Q 1403 2563 1034 2156 
L 1034 647 
Q 1034 356 1069 288 
Q 1113 197 1189 155 
Q 1266 113 1500 113 
L 1500 0 
L 84 0 
L 84 113 
L 147 113 
Q 366 113 442 223 
Q 519 334 519 647 
L 519 1709 
Q 519 2225 495 2337 
Q 472 2450 423 2490 
Q 375 2531 294 2531 
Q 206 2531 84 2484 
L 38 2597 
L 900 2947 
L 1034 2947 
L 1034 2341 
z
" transform="scale(0.015625)"/>
       <path id="TimesNewRomanPSMT-67" d="M 966 1044 
Q 703 1172 562 1401 
Q 422 1631 422 1909 
Q 422 2334 742 2640 
Q 1063 2947 1563 2947 
Q 1972 2947 2272 2747 
L 2878 2747 
Q 3013 2747 3034 2739 
Q 3056 2731 3066 2713 
Q 3084 2684 3084 2613 
Q 3084 2531 3069 2500 
Q 3059 2484 3036 2475 
Q 3013 2466 2878 2466 
L 2506 2466 
Q 2681 2241 2681 1891 
Q 2681 1491 2375 1206 
Q 2069 922 1553 922 
Q 1341 922 1119 984 
Q 981 866 932 777 
Q 884 688 884 625 
Q 884 572 936 522 
Q 988 472 1138 450 
Q 1225 438 1575 428 
Q 2219 413 2409 384 
Q 2700 344 2873 169 
Q 3047 -6 3047 -263 
Q 3047 -616 2716 -925 
Q 2228 -1381 1444 -1381 
Q 841 -1381 425 -1109 
Q 191 -953 191 -784 
Q 191 -709 225 -634 
Q 278 -519 444 -313 
Q 466 -284 763 25 
Q 600 122 533 198 
Q 466 275 466 372 
Q 466 481 555 628 
Q 644 775 966 1044 
z
M 1509 2797 
Q 1278 2797 1122 2612 
Q 966 2428 966 2047 
Q 966 1553 1178 1281 
Q 1341 1075 1591 1075 
Q 1828 1075 1981 1253 
Q 2134 1431 2134 1813 
Q 2134 2309 1919 2591 
Q 1759 2797 1509 2797 
z
M 934 0 
Q 788 -159 713 -296 
Q 638 -434 638 -550 
Q 638 -700 819 -813 
Q 1131 -1006 1722 -1006 
Q 2284 -1006 2551 -807 
Q 2819 -609 2819 -384 
Q 2819 -222 2659 -153 
Q 2497 -84 2016 -72 
Q 1313 -53 934 0 
z
" transform="scale(0.015625)"/>
      </defs>
      <use xlink:href="#TimesNewRomanPSMT-54"/>
      <use xlink:href="#TimesNewRomanPSMT-72" transform="translate(57.583984 0)"/>
      <use xlink:href="#TimesNewRomanPSMT-61" transform="translate(90.884766 0)"/>
      <use xlink:href="#TimesNewRomanPSMT-69" transform="translate(135.269531 0)"/>
      <use xlink:href="#TimesNewRomanPSMT-6e" transform="translate(163.052734 0)"/>
      <use xlink:href="#TimesNewRomanPSMT-69" transform="translate(213.052734 0)"/>
      <use xlink:href="#TimesNewRomanPSMT-6e" transform="translate(240.835938 0)"/>
      <use xlink:href="#TimesNewRomanPSMT-67" transform="translate(290.835938 0)"/>
      <use xlink:href="#TimesNewRomanPSMT-20" transform="translate(340.835938 0)"/>
      <use xlink:href="#TimesNewRomanPSMT-6c" transform="translate(365.835938 0)"/>
      <use xlink:href="#TimesNewRomanPSMT-6f" transform="translate(393.619141 0)"/>
      <use xlink:href="#TimesNewRomanPSMT-73" transform="translate(443.619141 0)"/>
      <use xlink:href="#TimesNewRomanPSMT-73" transform="translate(482.535156 0)"/>
     </g>
    </g>
    <g id="line2d_24">
     <path d="M 82.249063 281.960187 
L 100.249063 281.960187 
L 118.249063 281.960187 
" style="fill: none; stroke: #008000; stroke-width: 1.5; stroke-linecap: square"/>
    </g>
    <g id="text_15">
     <!-- Validation loss -->
     <g transform="translate(132.649063 288.260187) scale(0.18 -0.18)">
      <defs>
       <path id="TimesNewRomanPSMT-56" d="M 4544 4238 
L 4544 4122 
Q 4319 4081 4203 3978 
Q 4038 3825 3909 3509 
L 2431 -97 
L 2316 -97 
L 728 3556 
Q 606 3838 556 3900 
Q 478 3997 364 4051 
Q 250 4106 56 4122 
L 56 4238 
L 1788 4238 
L 1788 4122 
Q 1494 4094 1406 4022 
Q 1319 3950 1319 3838 
Q 1319 3681 1463 3350 
L 2541 866 
L 3541 3319 
Q 3688 3681 3688 3822 
Q 3688 3913 3597 3995 
Q 3506 4078 3291 4113 
Q 3275 4116 3238 4122 
L 3238 4238 
L 4544 4238 
z
" transform="scale(0.015625)"/>
      </defs>
      <use xlink:href="#TimesNewRomanPSMT-56"/>
      <use xlink:href="#TimesNewRomanPSMT-61" transform="translate(61.091797 0)"/>
      <use xlink:href="#TimesNewRomanPSMT-6c" transform="translate(105.476562 0)"/>
      <use xlink:href="#TimesNewRomanPSMT-69" transform="translate(133.259766 0)"/>
      <use xlink:href="#TimesNewRomanPSMT-64" transform="translate(161.042969 0)"/>
      <use xlink:href="#TimesNewRomanPSMT-61" transform="translate(211.042969 0)"/>
      <use xlink:href="#TimesNewRomanPSMT-74" transform="translate(255.427734 0)"/>
      <use xlink:href="#TimesNewRomanPSMT-69" transform="translate(283.210938 0)"/>
      <use xlink:href="#TimesNewRomanPSMT-6f" transform="translate(310.994141 0)"/>
      <use xlink:href="#TimesNewRomanPSMT-6e" transform="translate(360.994141 0)"/>
      <use xlink:href="#TimesNewRomanPSMT-20" transform="translate(410.994141 0)"/>
      <use xlink:href="#TimesNewRomanPSMT-6c" transform="translate(435.994141 0)"/>
      <use xlink:href="#TimesNewRomanPSMT-6f" transform="translate(463.777344 0)"/>
      <use xlink:href="#TimesNewRomanPSMT-73" transform="translate(513.777344 0)"/>
      <use xlink:href="#TimesNewRomanPSMT-73" transform="translate(552.693359 0)"/>
     </g>
    </g>
   </g>
  </g>
 </g>
 <defs>
  <clipPath id="p41a3dc5d6c">
   <rect x="66.049063" y="42.1985" width="357.12" height="266.112"/>
  </clipPath>
 </defs>
</svg>
