<?xml version="1.0" encoding="utf-8" standalone="no"?>
<!DOCTYPE svg PUBLIC "-//W3C//DTD SVG 1.1//EN"
  "http://www.w3.org/Graphics/SVG/1.1/DTD/svg11.dtd">
<svg xmlns:xlink="http://www.w3.org/1999/xlink" width="1143.251625pt" height="369.807875pt" viewBox="0 0 1143.251625 369.807875" xmlns="http://www.w3.org/2000/svg" version="1.1">
 <metadata>
  <rdf:RDF xmlns:dc="http://purl.org/dc/elements/1.1/" xmlns:cc="http://creativecommons.org/ns#" xmlns:rdf="http://www.w3.org/1999/02/22-rdf-syntax-ns#">
   <cc:Work>
    <dc:type rdf:resource="http://purl.org/dc/dcmitype/StillImage"/>
    <dc:date>2025-07-13T01:15:50.136848</dc:date>
    <dc:format>image/svg+xml</dc:format>
    <dc:creator>
     <cc:Agent>
      <dc:title>Matplotlib v3.10.1, https://matplotlib.org/</dc:title>
     </cc:Agent>
    </dc:creator>
   </cc:Work>
  </rdf:RDF>
 </metadata>
 <defs>
  <style type="text/css">*{stroke-linejoin: round; stroke-linecap: butt}</style>
 </defs>
 <g id="figure_1">
  <g id="patch_1">
   <path d="M -0 369.807875 
L 1143.251625 369.807875 
L 1143.251625 0 
L -0 0 
z
" style="fill: #ffffff"/>
  </g>
  <g id="axes_1">
   <g id="patch_2">
    <path d="M 393.065812 311.6435 
L 750.185813 311.6435 
L 750.185813 45.5315 
L 393.065812 45.5315 
z
" style="fill: #ffffff"/>
   </g>
   <g id="matplotlib.axis_1">
    <g id="xtick_1">
     <g id="line2d_1">
      <path d="M 393.065812 311.6435 
L 393.065812 45.5315 
" clip-path="url(#pd70de44947)" style="fill: none; stroke: #b0b0b0; stroke-opacity: 0.3; stroke-width: 0.8; stroke-linecap: square"/>
     </g>
     <g id="line2d_2">
      <defs>
       <path id="m73265c0a8e" d="M 0 0 
L 0 3.5 
" style="stroke: #000000; stroke-width: 0.8"/>
      </defs>
      <g>
       <use xlink:href="#m73265c0a8e" x="393.065812" y="311.6435" style="stroke: #000000; stroke-width: 0.8"/>
      </g>
     </g>
     <g id="text_1">
      <!-- 0 -->
      <g transform="translate(387.565812 333.91975) scale(0.22 -0.22)">
       <defs>
        <path id="TimesNewRomanPSMT-30" d="M 231 2094 
Q 231 2819 450 3342 
Q 669 3866 1031 4122 
Q 1313 4325 1613 4325 
Q 2100 4325 2488 3828 
Q 2972 3213 2972 2159 
Q 2972 1422 2759 906 
Q 2547 391 2217 158 
Q 1888 -75 1581 -75 
Q 975 -75 572 641 
Q 231 1244 231 2094 
z
M 844 2016 
Q 844 1141 1059 588 
Q 1238 122 1591 122 
Q 1759 122 1940 273 
Q 2122 425 2216 781 
Q 2359 1319 2359 2297 
Q 2359 3022 2209 3506 
Q 2097 3866 1919 4016 
Q 1791 4119 1609 4119 
Q 1397 4119 1231 3928 
Q 1006 3669 925 3112 
Q 844 2556 844 2016 
z
" transform="scale(0.015625)"/>
       </defs>
       <use xlink:href="#TimesNewRomanPSMT-30"/>
      </g>
     </g>
    </g>
    <g id="xtick_2">
     <g id="line2d_3">
      <path d="M 512.105813 311.6435 
L 512.105813 45.5315 
" clip-path="url(#pd70de44947)" style="fill: none; stroke: #b0b0b0; stroke-opacity: 0.3; stroke-width: 0.8; stroke-linecap: square"/>
     </g>
     <g id="line2d_4">
      <g>
       <use xlink:href="#m73265c0a8e" x="512.105813" y="311.6435" style="stroke: #000000; stroke-width: 0.8"/>
      </g>
     </g>
     <g id="text_2">
      <!-- 10000 -->
      <g transform="translate(484.605813 333.91975) scale(0.22 -0.22)">
       <defs>
        <path id="TimesNewRomanPSMT-31" d="M 750 3822 
L 1781 4325 
L 1884 4325 
L 1884 747 
Q 1884 391 1914 303 
Q 1944 216 2037 169 
Q 2131 122 2419 116 
L 2419 0 
L 825 0 
L 825 116 
Q 1125 122 1212 167 
Q 1300 213 1334 289 
Q 1369 366 1369 747 
L 1369 3034 
Q 1369 3497 1338 3628 
Q 1316 3728 1258 3775 
Q 1200 3822 1119 3822 
Q 1003 3822 797 3725 
L 750 3822 
z
" transform="scale(0.015625)"/>
       </defs>
       <use xlink:href="#TimesNewRomanPSMT-31"/>
       <use xlink:href="#TimesNewRomanPSMT-30" transform="translate(50 0)"/>
       <use xlink:href="#TimesNewRomanPSMT-30" transform="translate(100 0)"/>
       <use xlink:href="#TimesNewRomanPSMT-30" transform="translate(150 0)"/>
       <use xlink:href="#TimesNewRomanPSMT-30" transform="translate(200 0)"/>
      </g>
     </g>
    </g>
    <g id="xtick_3">
     <g id="line2d_5">
      <path d="M 631.145813 311.6435 
L 631.145813 45.5315 
" clip-path="url(#pd70de44947)" style="fill: none; stroke: #b0b0b0; stroke-opacity: 0.3; stroke-width: 0.8; stroke-linecap: square"/>
     </g>
     <g id="line2d_6">
      <g>
       <use xlink:href="#m73265c0a8e" x="631.145813" y="311.6435" style="stroke: #000000; stroke-width: 0.8"/>
      </g>
     </g>
     <g id="text_3">
      <!-- 20000 -->
      <g transform="translate(603.645813 333.91975) scale(0.22 -0.22)">
       <defs>
        <path id="TimesNewRomanPSMT-32" d="M 2934 816 
L 2638 0 
L 138 0 
L 138 116 
Q 1241 1122 1691 1759 
Q 2141 2397 2141 2925 
Q 2141 3328 1894 3587 
Q 1647 3847 1303 3847 
Q 991 3847 742 3664 
Q 494 3481 375 3128 
L 259 3128 
Q 338 3706 661 4015 
Q 984 4325 1469 4325 
Q 1984 4325 2329 3994 
Q 2675 3663 2675 3213 
Q 2675 2891 2525 2569 
Q 2294 2063 1775 1497 
Q 997 647 803 472 
L 1909 472 
Q 2247 472 2383 497 
Q 2519 522 2628 598 
Q 2738 675 2819 816 
L 2934 816 
z
" transform="scale(0.015625)"/>
       </defs>
       <use xlink:href="#TimesNewRomanPSMT-32"/>
       <use xlink:href="#TimesNewRomanPSMT-30" transform="translate(50 0)"/>
       <use xlink:href="#TimesNewRomanPSMT-30" transform="translate(100 0)"/>
       <use xlink:href="#TimesNewRomanPSMT-30" transform="translate(150 0)"/>
       <use xlink:href="#TimesNewRomanPSMT-30" transform="translate(200 0)"/>
      </g>
     </g>
    </g>
    <g id="xtick_4">
     <g id="line2d_7">
      <path d="M 750.185813 311.6435 
L 750.185813 45.5315 
" clip-path="url(#pd70de44947)" style="fill: none; stroke: #b0b0b0; stroke-opacity: 0.3; stroke-width: 0.8; stroke-linecap: square"/>
     </g>
     <g id="line2d_8">
      <g>
       <use xlink:href="#m73265c0a8e" x="750.185813" y="311.6435" style="stroke: #000000; stroke-width: 0.8"/>
      </g>
     </g>
     <g id="text_4">
      <!-- 30000 -->
      <g transform="translate(722.685813 333.91975) scale(0.22 -0.22)">
       <defs>
        <path id="TimesNewRomanPSMT-33" d="M 325 3431 
Q 506 3859 782 4092 
Q 1059 4325 1472 4325 
Q 1981 4325 2253 3994 
Q 2459 3747 2459 3466 
Q 2459 3003 1878 2509 
Q 2269 2356 2469 2072 
Q 2669 1788 2669 1403 
Q 2669 853 2319 450 
Q 1863 -75 997 -75 
Q 569 -75 414 31 
Q 259 138 259 259 
Q 259 350 332 419 
Q 406 488 509 488 
Q 588 488 669 463 
Q 722 447 909 348 
Q 1097 250 1169 231 
Q 1284 197 1416 197 
Q 1734 197 1970 444 
Q 2206 691 2206 1028 
Q 2206 1275 2097 1509 
Q 2016 1684 1919 1775 
Q 1784 1900 1550 2001 
Q 1316 2103 1072 2103 
L 972 2103 
L 972 2197 
Q 1219 2228 1467 2375 
Q 1716 2522 1828 2728 
Q 1941 2934 1941 3181 
Q 1941 3503 1739 3701 
Q 1538 3900 1238 3900 
Q 753 3900 428 3381 
L 325 3431 
z
" transform="scale(0.015625)"/>
       </defs>
       <use xlink:href="#TimesNewRomanPSMT-33"/>
       <use xlink:href="#TimesNewRomanPSMT-30" transform="translate(50 0)"/>
       <use xlink:href="#TimesNewRomanPSMT-30" transform="translate(100 0)"/>
       <use xlink:href="#TimesNewRomanPSMT-30" transform="translate(150 0)"/>
       <use xlink:href="#TimesNewRomanPSMT-30" transform="translate(200 0)"/>
      </g>
     </g>
    </g>
    <g id="text_5">
     <!-- Number of iterations -->
     <g transform="translate(479.983781 357.901937) scale(0.22 -0.22)">
      <defs>
       <path id="TimesNewRomanPSMT-4e" d="M -84 4238 
L 1066 4238 
L 3656 1059 
L 3656 3503 
Q 3656 3894 3569 3991 
Q 3453 4122 3203 4122 
L 3056 4122 
L 3056 4238 
L 4531 4238 
L 4531 4122 
L 4381 4122 
Q 4113 4122 4000 3959 
Q 3931 3859 3931 3503 
L 3931 -69 
L 3819 -69 
L 1025 3344 
L 1025 734 
Q 1025 344 1109 247 
Q 1228 116 1475 116 
L 1625 116 
L 1625 0 
L 150 0 
L 150 116 
L 297 116 
Q 569 116 681 278 
Q 750 378 750 734 
L 750 3681 
Q 566 3897 470 3965 
Q 375 4034 191 4094 
Q 100 4122 -84 4122 
L -84 4238 
z
" transform="scale(0.015625)"/>
       <path id="TimesNewRomanPSMT-75" d="M 2709 2863 
L 2709 1128 
Q 2709 631 2732 520 
Q 2756 409 2807 365 
Q 2859 322 2928 322 
Q 3025 322 3147 375 
L 3191 266 
L 2334 -88 
L 2194 -88 
L 2194 519 
Q 1825 119 1631 15 
Q 1438 -88 1222 -88 
Q 981 -88 804 51 
Q 628 191 559 409 
Q 491 628 491 1028 
L 491 2306 
Q 491 2509 447 2587 
Q 403 2666 317 2708 
Q 231 2750 6 2747 
L 6 2863 
L 1009 2863 
L 1009 947 
Q 1009 547 1148 422 
Q 1288 297 1484 297 
Q 1619 297 1789 381 
Q 1959 466 2194 703 
L 2194 2325 
Q 2194 2569 2105 2655 
Q 2016 2741 1734 2747 
L 1734 2863 
L 2709 2863 
z
" transform="scale(0.015625)"/>
       <path id="TimesNewRomanPSMT-6d" d="M 1050 2338 
Q 1363 2650 1419 2697 
Q 1559 2816 1721 2881 
Q 1884 2947 2044 2947 
Q 2313 2947 2506 2790 
Q 2700 2634 2766 2338 
Q 3088 2713 3309 2830 
Q 3531 2947 3766 2947 
Q 3994 2947 4170 2830 
Q 4347 2713 4450 2447 
Q 4519 2266 4519 1878 
L 4519 647 
Q 4519 378 4559 278 
Q 4591 209 4675 161 
Q 4759 113 4950 113 
L 4950 0 
L 3538 0 
L 3538 113 
L 3597 113 
Q 3781 113 3884 184 
Q 3956 234 3988 344 
Q 4000 397 4000 647 
L 4000 1878 
Q 4000 2228 3916 2372 
Q 3794 2572 3525 2572 
Q 3359 2572 3192 2489 
Q 3025 2406 2788 2181 
L 2781 2147 
L 2788 2013 
L 2788 647 
Q 2788 353 2820 281 
Q 2853 209 2943 161 
Q 3034 113 3253 113 
L 3253 0 
L 1806 0 
L 1806 113 
Q 2044 113 2133 169 
Q 2222 225 2256 338 
Q 2272 391 2272 647 
L 2272 1878 
Q 2272 2228 2169 2381 
Q 2031 2581 1784 2581 
Q 1616 2581 1450 2491 
Q 1191 2353 1050 2181 
L 1050 647 
Q 1050 366 1089 281 
Q 1128 197 1204 155 
Q 1281 113 1516 113 
L 1516 0 
L 100 0 
L 100 113 
Q 297 113 375 155 
Q 453 197 493 289 
Q 534 381 534 647 
L 534 1741 
Q 534 2213 506 2350 
Q 484 2453 437 2492 
Q 391 2531 309 2531 
Q 222 2531 100 2484 
L 53 2597 
L 916 2947 
L 1050 2947 
L 1050 2338 
z
" transform="scale(0.015625)"/>
       <path id="TimesNewRomanPSMT-62" d="M 984 2369 
Q 1400 2947 1881 2947 
Q 2322 2947 2650 2570 
Q 2978 2194 2978 1541 
Q 2978 778 2472 313 
Q 2038 -88 1503 -88 
Q 1253 -88 995 3 
Q 738 94 469 275 
L 469 3241 
Q 469 3728 445 3840 
Q 422 3953 372 3993 
Q 322 4034 247 4034 
Q 159 4034 28 3984 
L -16 4094 
L 844 4444 
L 984 4444 
L 984 2369 
z
M 984 2169 
L 984 456 
Q 1144 300 1314 220 
Q 1484 141 1663 141 
Q 1947 141 2192 453 
Q 2438 766 2438 1363 
Q 2438 1913 2192 2208 
Q 1947 2503 1634 2503 
Q 1469 2503 1303 2419 
Q 1178 2356 984 2169 
z
" transform="scale(0.015625)"/>
       <path id="TimesNewRomanPSMT-65" d="M 681 1784 
Q 678 1147 991 784 
Q 1303 422 1725 422 
Q 2006 422 2214 576 
Q 2422 731 2563 1106 
L 2659 1044 
Q 2594 616 2278 264 
Q 1963 -88 1488 -88 
Q 972 -88 605 314 
Q 238 716 238 1394 
Q 238 2128 614 2539 
Q 991 2950 1559 2950 
Q 2041 2950 2350 2633 
Q 2659 2316 2659 1784 
L 681 1784 
z
M 681 1966 
L 2006 1966 
Q 1991 2241 1941 2353 
Q 1863 2528 1708 2628 
Q 1553 2728 1384 2728 
Q 1125 2728 920 2526 
Q 716 2325 681 1966 
z
" transform="scale(0.015625)"/>
       <path id="TimesNewRomanPSMT-72" d="M 1038 2947 
L 1038 2303 
Q 1397 2947 1775 2947 
Q 1947 2947 2059 2842 
Q 2172 2738 2172 2600 
Q 2172 2478 2090 2393 
Q 2009 2309 1897 2309 
Q 1788 2309 1652 2417 
Q 1516 2525 1450 2525 
Q 1394 2525 1328 2463 
Q 1188 2334 1038 2041 
L 1038 669 
Q 1038 431 1097 309 
Q 1138 225 1241 169 
Q 1344 113 1538 113 
L 1538 0 
L 72 0 
L 72 113 
Q 291 113 397 181 
Q 475 231 506 341 
Q 522 394 522 644 
L 522 1753 
Q 522 2253 501 2348 
Q 481 2444 426 2487 
Q 372 2531 291 2531 
Q 194 2531 72 2484 
L 41 2597 
L 906 2947 
L 1038 2947 
z
" transform="scale(0.015625)"/>
       <path id="TimesNewRomanPSMT-20" transform="scale(0.015625)"/>
       <path id="TimesNewRomanPSMT-6f" d="M 1600 2947 
Q 2250 2947 2644 2453 
Q 2978 2031 2978 1484 
Q 2978 1100 2793 706 
Q 2609 313 2286 112 
Q 1963 -88 1566 -88 
Q 919 -88 538 428 
Q 216 863 216 1403 
Q 216 1797 411 2186 
Q 606 2575 925 2761 
Q 1244 2947 1600 2947 
z
M 1503 2744 
Q 1338 2744 1170 2645 
Q 1003 2547 900 2300 
Q 797 2053 797 1666 
Q 797 1041 1045 587 
Q 1294 134 1700 134 
Q 2003 134 2200 384 
Q 2397 634 2397 1244 
Q 2397 2006 2069 2444 
Q 1847 2744 1503 2744 
z
" transform="scale(0.015625)"/>
       <path id="TimesNewRomanPSMT-66" d="M 1319 2638 
L 1319 756 
Q 1319 356 1406 250 
Q 1522 113 1716 113 
L 1975 113 
L 1975 0 
L 266 0 
L 266 113 
L 394 113 
Q 519 113 622 175 
Q 725 238 764 344 
Q 803 450 803 756 
L 803 2638 
L 247 2638 
L 247 2863 
L 803 2863 
L 803 3050 
Q 803 3478 940 3775 
Q 1078 4072 1361 4255 
Q 1644 4438 1997 4438 
Q 2325 4438 2600 4225 
Q 2781 4084 2781 3909 
Q 2781 3816 2700 3733 
Q 2619 3650 2525 3650 
Q 2453 3650 2373 3701 
Q 2294 3753 2178 3923 
Q 2063 4094 1966 4153 
Q 1869 4213 1750 4213 
Q 1606 4213 1506 4136 
Q 1406 4059 1362 3898 
Q 1319 3738 1319 3069 
L 1319 2863 
L 2056 2863 
L 2056 2638 
L 1319 2638 
z
" transform="scale(0.015625)"/>
       <path id="TimesNewRomanPSMT-69" d="M 928 4444 
Q 1059 4444 1151 4351 
Q 1244 4259 1244 4128 
Q 1244 3997 1151 3903 
Q 1059 3809 928 3809 
Q 797 3809 703 3903 
Q 609 3997 609 4128 
Q 609 4259 701 4351 
Q 794 4444 928 4444 
z
M 1188 2947 
L 1188 647 
Q 1188 378 1227 289 
Q 1266 200 1342 156 
Q 1419 113 1622 113 
L 1622 0 
L 231 0 
L 231 113 
Q 441 113 512 153 
Q 584 194 626 287 
Q 669 381 669 647 
L 669 1750 
Q 669 2216 641 2353 
Q 619 2453 572 2492 
Q 525 2531 444 2531 
Q 356 2531 231 2484 
L 188 2597 
L 1050 2947 
L 1188 2947 
z
" transform="scale(0.015625)"/>
       <path id="TimesNewRomanPSMT-74" d="M 1031 3803 
L 1031 2863 
L 1700 2863 
L 1700 2644 
L 1031 2644 
L 1031 788 
Q 1031 509 1111 412 
Q 1191 316 1316 316 
Q 1419 316 1516 380 
Q 1613 444 1666 569 
L 1788 569 
Q 1678 263 1478 108 
Q 1278 -47 1066 -47 
Q 922 -47 784 33 
Q 647 113 581 261 
Q 516 409 516 719 
L 516 2644 
L 63 2644 
L 63 2747 
Q 234 2816 414 2980 
Q 594 3144 734 3369 
Q 806 3488 934 3803 
L 1031 3803 
z
" transform="scale(0.015625)"/>
       <path id="TimesNewRomanPSMT-61" d="M 1822 413 
Q 1381 72 1269 19 
Q 1100 -59 909 -59 
Q 613 -59 420 144 
Q 228 347 228 678 
Q 228 888 322 1041 
Q 450 1253 767 1440 
Q 1084 1628 1822 1897 
L 1822 2009 
Q 1822 2438 1686 2597 
Q 1550 2756 1291 2756 
Q 1094 2756 978 2650 
Q 859 2544 859 2406 
L 866 2225 
Q 866 2081 792 2003 
Q 719 1925 600 1925 
Q 484 1925 411 2006 
Q 338 2088 338 2228 
Q 338 2497 613 2722 
Q 888 2947 1384 2947 
Q 1766 2947 2009 2819 
Q 2194 2722 2281 2516 
Q 2338 2381 2338 1966 
L 2338 994 
Q 2338 584 2353 492 
Q 2369 400 2405 369 
Q 2441 338 2488 338 
Q 2538 338 2575 359 
Q 2641 400 2828 588 
L 2828 413 
Q 2478 -56 2159 -56 
Q 2006 -56 1915 50 
Q 1825 156 1822 413 
z
M 1822 616 
L 1822 1706 
Q 1350 1519 1213 1441 
Q 966 1303 859 1153 
Q 753 1003 753 825 
Q 753 600 887 451 
Q 1022 303 1197 303 
Q 1434 303 1822 616 
z
" transform="scale(0.015625)"/>
       <path id="TimesNewRomanPSMT-6e" d="M 1034 2341 
Q 1538 2947 1994 2947 
Q 2228 2947 2397 2830 
Q 2566 2713 2666 2444 
Q 2734 2256 2734 1869 
L 2734 647 
Q 2734 375 2778 278 
Q 2813 200 2889 156 
Q 2966 113 3172 113 
L 3172 0 
L 1756 0 
L 1756 113 
L 1816 113 
Q 2016 113 2095 173 
Q 2175 234 2206 353 
Q 2219 400 2219 647 
L 2219 1819 
Q 2219 2209 2117 2386 
Q 2016 2563 1775 2563 
Q 1403 2563 1034 2156 
L 1034 647 
Q 1034 356 1069 288 
Q 1113 197 1189 155 
Q 1266 113 1500 113 
L 1500 0 
L 84 0 
L 84 113 
L 147 113 
Q 366 113 442 223 
Q 519 334 519 647 
L 519 1709 
Q 519 2225 495 2337 
Q 472 2450 423 2490 
Q 375 2531 294 2531 
Q 206 2531 84 2484 
L 38 2597 
L 900 2947 
L 1034 2947 
L 1034 2341 
z
" transform="scale(0.015625)"/>
       <path id="TimesNewRomanPSMT-73" d="M 2050 2947 
L 2050 1972 
L 1947 1972 
Q 1828 2431 1642 2597 
Q 1456 2763 1169 2763 
Q 950 2763 815 2647 
Q 681 2531 681 2391 
Q 681 2216 781 2091 
Q 878 1963 1175 1819 
L 1631 1597 
Q 2266 1288 2266 781 
Q 2266 391 1970 151 
Q 1675 -88 1309 -88 
Q 1047 -88 709 6 
Q 606 38 541 38 
Q 469 38 428 -44 
L 325 -44 
L 325 978 
L 428 978 
Q 516 541 762 319 
Q 1009 97 1316 97 
Q 1531 97 1667 223 
Q 1803 350 1803 528 
Q 1803 744 1651 891 
Q 1500 1038 1047 1263 
Q 594 1488 453 1669 
Q 313 1847 313 2119 
Q 313 2472 555 2709 
Q 797 2947 1181 2947 
Q 1350 2947 1591 2875 
Q 1750 2828 1803 2828 
Q 1853 2828 1881 2850 
Q 1909 2872 1947 2947 
L 2050 2947 
z
" transform="scale(0.015625)"/>
      </defs>
      <use xlink:href="#TimesNewRomanPSMT-4e"/>
      <use xlink:href="#TimesNewRomanPSMT-75" transform="translate(72.216797 0)"/>
      <use xlink:href="#TimesNewRomanPSMT-6d" transform="translate(122.216797 0)"/>
      <use xlink:href="#TimesNewRomanPSMT-62" transform="translate(200 0)"/>
      <use xlink:href="#TimesNewRomanPSMT-65" transform="translate(250 0)"/>
      <use xlink:href="#TimesNewRomanPSMT-72" transform="translate(294.384766 0)"/>
      <use xlink:href="#TimesNewRomanPSMT-20" transform="translate(327.685547 0)"/>
      <use xlink:href="#TimesNewRomanPSMT-6f" transform="translate(352.685547 0)"/>
      <use xlink:href="#TimesNewRomanPSMT-66" transform="translate(402.685547 0)"/>
      <use xlink:href="#TimesNewRomanPSMT-20" transform="translate(435.986328 0)"/>
      <use xlink:href="#TimesNewRomanPSMT-69" transform="translate(460.986328 0)"/>
      <use xlink:href="#TimesNewRomanPSMT-74" transform="translate(488.769531 0)"/>
      <use xlink:href="#TimesNewRomanPSMT-65" transform="translate(516.552734 0)"/>
      <use xlink:href="#TimesNewRomanPSMT-72" transform="translate(560.9375 0)"/>
      <use xlink:href="#TimesNewRomanPSMT-61" transform="translate(594.238281 0)"/>
      <use xlink:href="#TimesNewRomanPSMT-74" transform="translate(638.623047 0)"/>
      <use xlink:href="#TimesNewRomanPSMT-69" transform="translate(666.40625 0)"/>
      <use xlink:href="#TimesNewRomanPSMT-6f" transform="translate(694.189453 0)"/>
      <use xlink:href="#TimesNewRomanPSMT-6e" transform="translate(744.189453 0)"/>
      <use xlink:href="#TimesNewRomanPSMT-73" transform="translate(794.189453 0)"/>
     </g>
    </g>
   </g>
   <g id="matplotlib.axis_2">
    <g id="ytick_1">
     <g id="line2d_9">
      <path d="M 393.065812 311.6435 
L 750.185813 311.6435 
" clip-path="url(#pd70de44947)" style="fill: none; stroke: #b0b0b0; stroke-opacity: 0.3; stroke-width: 0.8; stroke-linecap: square"/>
     </g>
     <g id="line2d_10">
      <defs>
       <path id="m7618e94e13" d="M 0 0 
L -3.5 0 
" style="stroke: #000000; stroke-width: 0.8"/>
      </defs>
      <g>
       <use xlink:href="#m7618e94e13" x="393.065812" y="311.6435" style="stroke: #000000; stroke-width: 0.8"/>
      </g>
     </g>
     <g id="text_6">
      <!-- 0.0 -->
      <g transform="translate(358.565812 319.281625) scale(0.22 -0.22)">
       <defs>
        <path id="TimesNewRomanPSMT-2e" d="M 800 606 
Q 947 606 1047 504 
Q 1147 403 1147 259 
Q 1147 116 1045 14 
Q 944 -88 800 -88 
Q 656 -88 554 14 
Q 453 116 453 259 
Q 453 406 554 506 
Q 656 606 800 606 
z
" transform="scale(0.015625)"/>
       </defs>
       <use xlink:href="#TimesNewRomanPSMT-30"/>
       <use xlink:href="#TimesNewRomanPSMT-2e" transform="translate(50 0)"/>
       <use xlink:href="#TimesNewRomanPSMT-30" transform="translate(75 0)"/>
      </g>
     </g>
    </g>
    <g id="ytick_2">
     <g id="line2d_11">
      <path d="M 393.065812 285.0323 
L 750.185813 285.0323 
" clip-path="url(#pd70de44947)" style="fill: none; stroke: #b0b0b0; stroke-opacity: 0.3; stroke-width: 0.8; stroke-linecap: square"/>
     </g>
     <g id="line2d_12">
      <g>
       <use xlink:href="#m7618e94e13" x="393.065812" y="285.0323" style="stroke: #000000; stroke-width: 0.8"/>
      </g>
     </g>
     <g id="text_7">
      <!-- 0.1 -->
      <g transform="translate(358.565812 292.670425) scale(0.22 -0.22)">
       <use xlink:href="#TimesNewRomanPSMT-30"/>
       <use xlink:href="#TimesNewRomanPSMT-2e" transform="translate(50 0)"/>
       <use xlink:href="#TimesNewRomanPSMT-31" transform="translate(75 0)"/>
      </g>
     </g>
    </g>
    <g id="ytick_3">
     <g id="line2d_13">
      <path d="M 393.065812 258.4211 
L 750.185813 258.4211 
" clip-path="url(#pd70de44947)" style="fill: none; stroke: #b0b0b0; stroke-opacity: 0.3; stroke-width: 0.8; stroke-linecap: square"/>
     </g>
     <g id="line2d_14">
      <g>
       <use xlink:href="#m7618e94e13" x="393.065812" y="258.4211" style="stroke: #000000; stroke-width: 0.8"/>
      </g>
     </g>
     <g id="text_8">
      <!-- 0.2 -->
      <g transform="translate(358.565812 266.059225) scale(0.22 -0.22)">
       <use xlink:href="#TimesNewRomanPSMT-30"/>
       <use xlink:href="#TimesNewRomanPSMT-2e" transform="translate(50 0)"/>
       <use xlink:href="#TimesNewRomanPSMT-32" transform="translate(75 0)"/>
      </g>
     </g>
    </g>
    <g id="ytick_4">
     <g id="line2d_15">
      <path d="M 393.065812 231.8099 
L 750.185813 231.8099 
" clip-path="url(#pd70de44947)" style="fill: none; stroke: #b0b0b0; stroke-opacity: 0.3; stroke-width: 0.8; stroke-linecap: square"/>
     </g>
     <g id="line2d_16">
      <g>
       <use xlink:href="#m7618e94e13" x="393.065812" y="231.8099" style="stroke: #000000; stroke-width: 0.8"/>
      </g>
     </g>
     <g id="text_9">
      <!-- 0.3 -->
      <g transform="translate(358.565812 239.448025) scale(0.22 -0.22)">
       <use xlink:href="#TimesNewRomanPSMT-30"/>
       <use xlink:href="#TimesNewRomanPSMT-2e" transform="translate(50 0)"/>
       <use xlink:href="#TimesNewRomanPSMT-33" transform="translate(75 0)"/>
      </g>
     </g>
    </g>
    <g id="ytick_5">
     <g id="line2d_17">
      <path d="M 393.065812 205.1987 
L 750.185813 205.1987 
" clip-path="url(#pd70de44947)" style="fill: none; stroke: #b0b0b0; stroke-opacity: 0.3; stroke-width: 0.8; stroke-linecap: square"/>
     </g>
     <g id="line2d_18">
      <g>
       <use xlink:href="#m7618e94e13" x="393.065812" y="205.1987" style="stroke: #000000; stroke-width: 0.8"/>
      </g>
     </g>
     <g id="text_10">
      <!-- 0.4 -->
      <g transform="translate(358.565812 212.836825) scale(0.22 -0.22)">
       <defs>
        <path id="TimesNewRomanPSMT-34" d="M 2978 1563 
L 2978 1119 
L 2409 1119 
L 2409 0 
L 1894 0 
L 1894 1119 
L 100 1119 
L 100 1519 
L 2066 4325 
L 2409 4325 
L 2409 1563 
L 2978 1563 
z
M 1894 1563 
L 1894 3666 
L 406 1563 
L 1894 1563 
z
" transform="scale(0.015625)"/>
       </defs>
       <use xlink:href="#TimesNewRomanPSMT-30"/>
       <use xlink:href="#TimesNewRomanPSMT-2e" transform="translate(50 0)"/>
       <use xlink:href="#TimesNewRomanPSMT-34" transform="translate(75 0)"/>
      </g>
     </g>
    </g>
    <g id="ytick_6">
     <g id="line2d_19">
      <path d="M 393.065812 178.5875 
L 750.185813 178.5875 
" clip-path="url(#pd70de44947)" style="fill: none; stroke: #b0b0b0; stroke-opacity: 0.3; stroke-width: 0.8; stroke-linecap: square"/>
     </g>
     <g id="line2d_20">
      <g>
       <use xlink:href="#m7618e94e13" x="393.065812" y="178.5875" style="stroke: #000000; stroke-width: 0.8"/>
      </g>
     </g>
     <g id="text_11">
      <!-- 0.5 -->
      <g transform="translate(358.565812 186.225625) scale(0.22 -0.22)">
       <defs>
        <path id="TimesNewRomanPSMT-35" d="M 2778 4238 
L 2534 3706 
L 1259 3706 
L 981 3138 
Q 1809 3016 2294 2522 
Q 2709 2097 2709 1522 
Q 2709 1188 2573 903 
Q 2438 619 2231 419 
Q 2025 219 1772 97 
Q 1413 -75 1034 -75 
Q 653 -75 479 54 
Q 306 184 306 341 
Q 306 428 378 495 
Q 450 563 559 563 
Q 641 563 702 538 
Q 763 513 909 409 
Q 1144 247 1384 247 
Q 1750 247 2026 523 
Q 2303 800 2303 1197 
Q 2303 1581 2056 1914 
Q 1809 2247 1375 2428 
Q 1034 2569 447 2591 
L 1259 4238 
L 2778 4238 
z
" transform="scale(0.015625)"/>
       </defs>
       <use xlink:href="#TimesNewRomanPSMT-30"/>
       <use xlink:href="#TimesNewRomanPSMT-2e" transform="translate(50 0)"/>
       <use xlink:href="#TimesNewRomanPSMT-35" transform="translate(75 0)"/>
      </g>
     </g>
    </g>
    <g id="ytick_7">
     <g id="line2d_21">
      <path d="M 393.065812 151.9763 
L 750.185813 151.9763 
" clip-path="url(#pd70de44947)" style="fill: none; stroke: #b0b0b0; stroke-opacity: 0.3; stroke-width: 0.8; stroke-linecap: square"/>
     </g>
     <g id="line2d_22">
      <g>
       <use xlink:href="#m7618e94e13" x="393.065812" y="151.9763" style="stroke: #000000; stroke-width: 0.8"/>
      </g>
     </g>
     <g id="text_12">
      <!-- 0.6 -->
      <g transform="translate(358.565812 159.614425) scale(0.22 -0.22)">
       <defs>
        <path id="TimesNewRomanPSMT-36" d="M 2869 4325 
L 2869 4209 
Q 2456 4169 2195 4045 
Q 1934 3922 1679 3669 
Q 1425 3416 1258 3105 
Q 1091 2794 978 2366 
Q 1428 2675 1881 2675 
Q 2316 2675 2634 2325 
Q 2953 1975 2953 1425 
Q 2953 894 2631 456 
Q 2244 -75 1606 -75 
Q 1172 -75 869 213 
Q 275 772 275 1663 
Q 275 2231 503 2743 
Q 731 3256 1154 3653 
Q 1578 4050 1965 4187 
Q 2353 4325 2688 4325 
L 2869 4325 
z
M 925 2138 
Q 869 1716 869 1456 
Q 869 1156 980 804 
Q 1091 453 1309 247 
Q 1469 100 1697 100 
Q 1969 100 2183 356 
Q 2397 613 2397 1088 
Q 2397 1622 2184 2012 
Q 1972 2403 1581 2403 
Q 1463 2403 1327 2353 
Q 1191 2303 925 2138 
z
" transform="scale(0.015625)"/>
       </defs>
       <use xlink:href="#TimesNewRomanPSMT-30"/>
       <use xlink:href="#TimesNewRomanPSMT-2e" transform="translate(50 0)"/>
       <use xlink:href="#TimesNewRomanPSMT-36" transform="translate(75 0)"/>
      </g>
     </g>
    </g>
    <g id="ytick_8">
     <g id="line2d_23">
      <path d="M 393.065812 125.3651 
L 750.185813 125.3651 
" clip-path="url(#pd70de44947)" style="fill: none; stroke: #b0b0b0; stroke-opacity: 0.3; stroke-width: 0.8; stroke-linecap: square"/>
     </g>
     <g id="line2d_24">
      <g>
       <use xlink:href="#m7618e94e13" x="393.065812" y="125.3651" style="stroke: #000000; stroke-width: 0.8"/>
      </g>
     </g>
     <g id="text_13">
      <!-- 0.7 -->
      <g transform="translate(358.565812 133.003225) scale(0.22 -0.22)">
       <defs>
        <path id="TimesNewRomanPSMT-37" d="M 644 4238 
L 2916 4238 
L 2916 4119 
L 1503 -88 
L 1153 -88 
L 2419 3728 
L 1253 3728 
Q 900 3728 750 3644 
Q 488 3500 328 3200 
L 238 3234 
L 644 4238 
z
" transform="scale(0.015625)"/>
       </defs>
       <use xlink:href="#TimesNewRomanPSMT-30"/>
       <use xlink:href="#TimesNewRomanPSMT-2e" transform="translate(50 0)"/>
       <use xlink:href="#TimesNewRomanPSMT-37" transform="translate(75 0)"/>
      </g>
     </g>
    </g>
    <g id="ytick_9">
     <g id="line2d_25">
      <path d="M 393.065812 98.7539 
L 750.185813 98.7539 
" clip-path="url(#pd70de44947)" style="fill: none; stroke: #b0b0b0; stroke-opacity: 0.3; stroke-width: 0.8; stroke-linecap: square"/>
     </g>
     <g id="line2d_26">
      <g>
       <use xlink:href="#m7618e94e13" x="393.065812" y="98.7539" style="stroke: #000000; stroke-width: 0.8"/>
      </g>
     </g>
     <g id="text_14">
      <!-- 0.8 -->
      <g transform="translate(358.565812 106.392025) scale(0.22 -0.22)">
       <defs>
        <path id="TimesNewRomanPSMT-38" d="M 1228 2134 
Q 725 2547 579 2797 
Q 434 3047 434 3316 
Q 434 3728 753 4026 
Q 1072 4325 1600 4325 
Q 2113 4325 2425 4047 
Q 2738 3769 2738 3413 
Q 2738 3175 2569 2928 
Q 2400 2681 1866 2347 
Q 2416 1922 2594 1678 
Q 2831 1359 2831 1006 
Q 2831 559 2490 242 
Q 2150 -75 1597 -75 
Q 994 -75 656 303 
Q 388 606 388 966 
Q 388 1247 577 1523 
Q 766 1800 1228 2134 
z
M 1719 2469 
Q 2094 2806 2194 3001 
Q 2294 3197 2294 3444 
Q 2294 3772 2109 3958 
Q 1925 4144 1606 4144 
Q 1288 4144 1088 3959 
Q 888 3775 888 3528 
Q 888 3366 970 3203 
Q 1053 3041 1206 2894 
L 1719 2469 
z
M 1375 2016 
Q 1116 1797 991 1539 
Q 866 1281 866 981 
Q 866 578 1086 336 
Q 1306 94 1647 94 
Q 1984 94 2187 284 
Q 2391 475 2391 747 
Q 2391 972 2272 1150 
Q 2050 1481 1375 2016 
z
" transform="scale(0.015625)"/>
       </defs>
       <use xlink:href="#TimesNewRomanPSMT-30"/>
       <use xlink:href="#TimesNewRomanPSMT-2e" transform="translate(50 0)"/>
       <use xlink:href="#TimesNewRomanPSMT-38" transform="translate(75 0)"/>
      </g>
     </g>
    </g>
    <g id="ytick_10">
     <g id="line2d_27">
      <path d="M 393.065812 72.1427 
L 750.185813 72.1427 
" clip-path="url(#pd70de44947)" style="fill: none; stroke: #b0b0b0; stroke-opacity: 0.3; stroke-width: 0.8; stroke-linecap: square"/>
     </g>
     <g id="line2d_28">
      <g>
       <use xlink:href="#m7618e94e13" x="393.065812" y="72.1427" style="stroke: #000000; stroke-width: 0.8"/>
      </g>
     </g>
     <g id="text_15">
      <!-- 0.9 -->
      <g transform="translate(358.565812 79.780825) scale(0.22 -0.22)">
       <defs>
        <path id="TimesNewRomanPSMT-39" d="M 338 -88 
L 338 28 
Q 744 34 1094 217 
Q 1444 400 1770 856 
Q 2097 1313 2225 1859 
Q 1734 1544 1338 1544 
Q 891 1544 572 1889 
Q 253 2234 253 2806 
Q 253 3363 572 3797 
Q 956 4325 1575 4325 
Q 2097 4325 2469 3894 
Q 2925 3359 2925 2575 
Q 2925 1869 2578 1258 
Q 2231 647 1613 244 
Q 1109 -88 516 -88 
L 338 -88 
z
M 2275 2091 
Q 2331 2497 2331 2741 
Q 2331 3044 2228 3395 
Q 2125 3747 1936 3934 
Q 1747 4122 1506 4122 
Q 1228 4122 1018 3872 
Q 809 3622 809 3128 
Q 809 2469 1088 2097 
Q 1291 1828 1588 1828 
Q 1731 1828 1928 1897 
Q 2125 1966 2275 2091 
z
" transform="scale(0.015625)"/>
       </defs>
       <use xlink:href="#TimesNewRomanPSMT-30"/>
       <use xlink:href="#TimesNewRomanPSMT-2e" transform="translate(50 0)"/>
       <use xlink:href="#TimesNewRomanPSMT-39" transform="translate(75 0)"/>
      </g>
     </g>
    </g>
    <g id="ytick_11">
     <g id="line2d_29">
      <path d="M 393.065812 45.5315 
L 750.185813 45.5315 
" clip-path="url(#pd70de44947)" style="fill: none; stroke: #b0b0b0; stroke-opacity: 0.3; stroke-width: 0.8; stroke-linecap: square"/>
     </g>
     <g id="line2d_30">
      <g>
       <use xlink:href="#m7618e94e13" x="393.065812" y="45.5315" style="stroke: #000000; stroke-width: 0.8"/>
      </g>
     </g>
     <g id="text_16">
      <!-- 1.0 -->
      <g transform="translate(358.565812 53.169625) scale(0.22 -0.22)">
       <use xlink:href="#TimesNewRomanPSMT-31"/>
       <use xlink:href="#TimesNewRomanPSMT-2e" transform="translate(50 0)"/>
       <use xlink:href="#TimesNewRomanPSMT-30" transform="translate(75 0)"/>
      </g>
     </g>
    </g>
    <g id="text_17">
     <!-- Accuracy -->
     <g transform="translate(349.818625 220.726094) rotate(-90) scale(0.22 -0.22)">
      <defs>
       <path id="TimesNewRomanPSMT-41" d="M 2928 1419 
L 1288 1419 
L 1000 750 
Q 894 503 894 381 
Q 894 284 986 211 
Q 1078 138 1384 116 
L 1384 0 
L 50 0 
L 50 116 
Q 316 163 394 238 
Q 553 388 747 847 
L 2238 4334 
L 2347 4334 
L 3822 809 
Q 4000 384 4145 257 
Q 4291 131 4550 116 
L 4550 0 
L 2878 0 
L 2878 116 
Q 3131 128 3220 200 
Q 3309 272 3309 375 
Q 3309 513 3184 809 
L 2928 1419 
z
M 2841 1650 
L 2122 3363 
L 1384 1650 
L 2841 1650 
z
" transform="scale(0.015625)"/>
       <path id="TimesNewRomanPSMT-63" d="M 2631 1088 
Q 2516 522 2178 217 
Q 1841 -88 1431 -88 
Q 944 -88 581 321 
Q 219 731 219 1428 
Q 219 2103 620 2525 
Q 1022 2947 1584 2947 
Q 2006 2947 2278 2723 
Q 2550 2500 2550 2259 
Q 2550 2141 2473 2067 
Q 2397 1994 2259 1994 
Q 2075 1994 1981 2113 
Q 1928 2178 1911 2362 
Q 1894 2547 1784 2644 
Q 1675 2738 1481 2738 
Q 1169 2738 978 2506 
Q 725 2200 725 1697 
Q 725 1184 976 792 
Q 1228 400 1656 400 
Q 1963 400 2206 609 
Q 2378 753 2541 1131 
L 2631 1088 
z
" transform="scale(0.015625)"/>
       <path id="TimesNewRomanPSMT-79" d="M 38 2863 
L 1372 2863 
L 1372 2747 
L 1306 2747 
Q 1166 2747 1095 2686 
Q 1025 2625 1025 2534 
Q 1025 2413 1128 2197 
L 1825 753 
L 2466 2334 
Q 2519 2463 2519 2588 
Q 2519 2644 2497 2672 
Q 2472 2706 2419 2726 
Q 2366 2747 2231 2747 
L 2231 2863 
L 3163 2863 
L 3163 2747 
Q 3047 2734 2984 2696 
Q 2922 2659 2847 2556 
Q 2819 2513 2741 2316 
L 1575 -541 
Q 1406 -956 1132 -1168 
Q 859 -1381 606 -1381 
Q 422 -1381 303 -1275 
Q 184 -1169 184 -1031 
Q 184 -900 270 -820 
Q 356 -741 506 -741 
Q 609 -741 788 -809 
Q 913 -856 944 -856 
Q 1038 -856 1148 -759 
Q 1259 -663 1372 -384 
L 1575 113 
L 547 2272 
Q 500 2369 397 2513 
Q 319 2622 269 2659 
Q 197 2709 38 2747 
L 38 2863 
z
" transform="scale(0.015625)"/>
      </defs>
      <use xlink:href="#TimesNewRomanPSMT-41"/>
      <use xlink:href="#TimesNewRomanPSMT-63" transform="translate(72.216797 0)"/>
      <use xlink:href="#TimesNewRomanPSMT-63" transform="translate(116.601562 0)"/>
      <use xlink:href="#TimesNewRomanPSMT-75" transform="translate(160.986328 0)"/>
      <use xlink:href="#TimesNewRomanPSMT-72" transform="translate(210.986328 0)"/>
      <use xlink:href="#TimesNewRomanPSMT-61" transform="translate(244.287109 0)"/>
      <use xlink:href="#TimesNewRomanPSMT-63" transform="translate(288.671875 0)"/>
      <use xlink:href="#TimesNewRomanPSMT-79" transform="translate(333.056641 0)"/>
     </g>
    </g>
   </g>
   <g id="line2d_31">
    <path d="M 393.065812 178.5875 
L 393.542131 122.837032 
L 393.661211 120.308961 
L 393.780291 120.57507 
L 394.01845 118.047014 
L 394.13753 118.180061 
L 394.375689 115.652005 
L 394.494769 114.986726 
L 394.613849 115.119772 
L 394.852008 113.123934 
L 395.209247 113.390043 
L 395.328327 112.325609 
L 395.447406 112.458655 
L 395.685566 110.861988 
L 395.804645 110.728925 
L 395.923725 110.861988 
L 396.042805 110.063646 
L 396.161885 110.196708 
L 396.400044 109.531429 
L 396.519124 109.398367 
L 396.638203 108.733087 
L 396.757283 108.86615 
L 396.876363 108.733087 
L 396.995442 108.86615 
L 397.114522 109.26532 
L 397.233602 109.26532 
L 397.471761 108.733087 
L 397.590841 108.999196 
L 397.709921 108.600041 
L 397.94808 108.86615 
L 398.06716 108.86615 
L 398.305319 108.067808 
L 398.424399 108.067808 
L 398.662558 107.801699 
L 398.781638 107.668637 
L 398.900717 107.13642 
L 399.019797 107.13642 
L 399.138877 106.604187 
L 399.257957 106.604187 
L 399.377036 106.205032 
L 399.496116 106.205032 
L 399.615196 105.805861 
L 399.734275 105.805861 
L 399.853355 105.539753 
L 399.972435 105.672799 
L 400.091514 105.539753 
L 400.210594 105.672799 
L 400.448753 105.273628 
L 400.567833 105.273628 
L 400.805993 105.140582 
L 401.044152 105.140582 
L 401.163232 104.874473 
L 401.282311 105.273628 
L 401.401391 105.273628 
L 401.520471 105.539753 
L 401.75863 105.140582 
L 401.87771 104.874473 
L 402.115869 105.273628 
L 402.234949 105.140582 
L 402.354029 105.140582 
L 402.473108 103.810023 
L 402.592188 104.608349 
L 402.711268 104.475303 
L 402.949427 103.94307 
L 403.187586 104.34224 
L 403.306666 104.076132 
L 403.663905 104.608349 
L 403.782985 104.475303 
L 404.021144 104.209194 
L 404.140224 104.475303 
L 404.378383 103.94307 
L 404.497463 104.076132 
L 404.616543 104.475303 
L 404.854702 103.810023 
L 404.973782 104.209194 
L 405.092862 104.209194 
L 405.331021 103.410852 
L 405.56918 103.676961 
L 405.80734 103.011682 
L 406.045499 103.543899 
L 406.283658 103.011682 
L 406.402738 103.27779 
L 406.521818 102.878619 
L 406.640898 103.27779 
L 406.998137 102.745573 
L 407.117216 103.011682 
L 407.236296 102.745573 
L 407.355376 103.011682 
L 407.474455 102.479464 
L 407.712615 102.878619 
L 407.831694 102.479464 
L 408.069854 102.479464 
L 408.188934 102.745573 
L 408.546173 102.21334 
L 408.665252 102.612511 
L 409.141571 102.21334 
L 409.260651 102.21334 
L 409.37973 101.947231 
L 409.49881 102.080294 
L 409.73697 101.681123 
L 409.975129 102.080294 
L 410.213288 101.415014 
L 410.570527 101.947231 
L 410.689607 101.281952 
L 410.927766 102.346402 
L 411.165926 101.415014 
L 411.404085 101.947231 
L 411.642245 101.548061 
L 411.761324 101.548061 
L 411.880404 101.947231 
L 411.999484 101.947231 
L 412.118563 101.681123 
L 412.237643 101.947231 
L 412.475802 101.548061 
L 412.594882 101.947231 
L 412.833042 101.548061 
L 412.952121 101.548061 
L 413.190281 101.814185 
L 413.42844 101.548061 
L 413.54752 101.681123 
L 413.666599 101.415014 
L 413.785679 101.681123 
L 414.023839 101.281952 
L 414.142918 101.415014 
L 414.500157 101.015843 
L 414.738317 101.148906 
L 415.095556 100.882781 
L 415.333715 100.882781 
L 415.452795 101.015843 
L 415.690954 100.616673 
L 415.810034 100.749735 
L 416.048193 101.015843 
L 416.286353 100.48361 
L 416.524512 100.749735 
L 416.643592 100.749735 
L 416.762671 100.48361 
L 417.000831 100.616673 
L 417.119911 100.616673 
L 417.35807 100.48361 
L 417.47715 100.749735 
L 417.596229 100.616673 
L 417.715309 100.749735 
L 417.834389 100.48361 
L 418.072548 100.749735 
L 418.429787 100.217502 
L 418.548867 100.749735 
L 418.667947 100.749735 
L 419.025186 100.350564 
L 419.263345 100.749735 
L 419.382425 100.749735 
L 419.501504 100.350564 
L 419.620584 100.882781 
L 419.858743 100.749735 
L 419.977823 100.749735 
L 420.096903 100.48361 
L 420.215983 101.148906 
L 420.335062 100.749735 
L 420.454142 101.148906 
L 420.573222 100.350564 
L 420.930461 101.281952 
L 421.16862 100.350564 
L 421.525859 101.281952 
L 421.644939 100.48361 
L 421.883098 101.281952 
L 422.002178 101.015843 
L 422.121258 100.616673 
L 422.240337 100.749735 
L 422.359417 100.616673 
L 422.597576 101.015843 
L 422.716656 100.749735 
L 422.835736 100.882781 
L 422.954816 100.749735 
L 423.073895 100.882781 
L 423.192975 100.616673 
L 423.431134 100.882781 
L 423.550214 100.48361 
L 423.669294 100.882781 
L 423.907453 100.749735 
L 424.026533 100.882781 
L 424.145612 100.616673 
L 424.383772 100.882781 
L 424.621931 100.749735 
L 424.860091 100.749735 
L 425.09825 101.015843 
L 425.336409 100.350564 
L 425.693648 100.882781 
L 425.931808 100.48361 
L 426.169967 100.882781 
L 426.527206 100.616673 
L 426.765366 100.882781 
L 426.884445 100.48361 
L 427.122605 100.48361 
L 427.360764 100.616673 
L 427.598924 100.48361 
L 427.718003 100.48361 
L 427.956163 100.616673 
L 428.075242 100.350564 
L 428.194322 100.616673 
L 428.313402 100.350564 
L 428.432481 100.616673 
L 428.670641 100.350564 
L 428.78972 100.48361 
L 428.9088 100.217502 
L 429.02788 100.48361 
L 429.385119 100.217502 
L 429.623278 100.48361 
L 429.742358 100.217502 
L 429.861438 100.48361 
L 430.099597 100.217502 
L 430.218677 100.48361 
L 430.337756 100.217502 
L 430.575916 100.48361 
L 430.694996 100.350564 
L 430.814075 100.48361 
L 430.933155 100.217502 
L 431.171314 100.616673 
L 431.409474 100.217502 
L 431.528553 100.48361 
L 432.004872 99.951393 
L 432.123952 100.350564 
L 432.243032 100.350564 
L 432.362111 100.882781 
L 432.481191 100.217502 
L 432.83843 100.217502 
L 432.95751 99.818331 
L 433.195669 100.616673 
L 433.314749 100.084456 
L 433.552908 100.217502 
L 433.671988 100.084456 
L 433.791068 100.616673 
L 433.910147 100.084456 
L 434.148307 100.217502 
L 434.267386 100.217502 
L 434.386466 100.616673 
L 434.624625 99.951393 
L 434.743705 99.951393 
L 434.862785 100.48361 
L 434.981865 100.48361 
L 435.220024 100.084456 
L 435.339104 100.217502 
L 435.577263 100.48361 
L 435.696343 100.350564 
L 435.815422 99.951393 
L 435.934502 99.951393 
L 436.053582 100.350564 
L 436.291741 100.350564 
L 436.529901 99.951393 
L 436.76806 100.48361 
L 436.88714 100.48361 
L 437.125299 99.818331 
L 437.363458 100.616673 
L 437.482538 100.48361 
L 437.720697 99.818331 
L 438.077937 100.48361 
L 438.316096 99.818331 
L 438.554255 100.616673 
L 438.673335 100.48361 
L 438.911494 99.685285 
L 439.149654 100.48361 
L 439.268733 100.084456 
L 439.387813 100.350564 
L 439.506893 99.951393 
L 439.745052 100.48361 
L 439.864132 100.084456 
L 439.983212 100.48361 
L 440.102291 99.818331 
L 440.340451 100.350564 
L 440.45953 99.951393 
L 440.57861 100.084456 
L 440.816769 99.951393 
L 440.935849 100.48361 
L 441.054929 100.084456 
L 441.174009 100.217502 
L 441.293088 99.951393 
L 441.531248 100.217502 
L 441.888487 99.951393 
L 442.126646 99.951393 
L 442.364805 100.217502 
L 442.483885 99.818331 
L 442.602965 100.084456 
L 442.841124 99.951393 
L 442.960204 100.084456 
L 443.079284 99.552223 
L 443.198363 99.818331 
L 443.436523 99.552223 
L 443.674682 99.951393 
L 443.793762 99.552223 
L 443.912842 100.084456 
L 444.151001 99.419176 
L 444.270081 100.084456 
L 444.38916 99.685285 
L 444.50824 99.951393 
L 444.746399 99.419176 
L 444.865479 99.818331 
L 444.984559 99.419176 
L 445.103638 99.818331 
L 445.341798 99.419176 
L 445.460878 99.818331 
L 445.579957 99.419176 
L 445.818117 99.552223 
L 445.937196 99.419176 
L 446.056276 99.818331 
L 446.175356 99.419176 
L 446.413515 99.419176 
L 446.532595 99.286114 
L 446.651674 99.685285 
L 446.889834 99.286114 
L 447.008914 99.020005 
L 447.366153 100.084456 
L 447.485232 99.286114 
L 447.604312 99.286114 
L 447.723392 100.084456 
L 447.961551 99.153052 
L 448.080631 99.419176 
L 448.19971 99.286114 
L 448.31879 99.685285 
L 448.55695 99.020005 
L 448.676029 99.020005 
L 449.033268 99.552223 
L 449.152348 99.552223 
L 449.271428 99.153052 
L 449.390507 99.552223 
L 449.628667 99.286114 
L 449.985906 99.685285 
L 450.224065 99.286114 
L 450.462225 99.419176 
L 450.700384 99.419176 
L 450.819464 99.818331 
L 451.057623 99.153052 
L 451.176703 99.818331 
L 451.295782 99.419176 
L 451.533942 99.685285 
L 451.653022 99.286114 
L 451.772101 99.685285 
L 452.010261 98.886943 
L 452.24842 99.419176 
L 452.3675 99.153052 
L 452.486579 99.552223 
L 452.962898 99.020005 
L 453.081978 99.552223 
L 453.201058 99.020005 
L 453.558297 99.552223 
L 453.677376 99.153052 
L 453.915536 99.419176 
L 454.034615 99.020005 
L 454.272775 99.286114 
L 454.391855 99.153052 
L 454.510934 99.419176 
L 454.749094 99.153052 
L 454.868173 99.286114 
L 455.106333 99.153052 
L 455.225412 99.286114 
L 455.344492 99.153052 
L 455.582651 99.286114 
L 455.701731 99.153052 
L 455.939891 99.286114 
L 456.05897 99.153052 
L 456.17805 99.419176 
L 456.29713 99.020005 
L 456.535289 99.286114 
L 456.654369 99.020005 
L 456.892528 99.286114 
L 457.011608 99.153052 
L 457.249767 99.286114 
L 457.487927 99.020005 
L 457.726086 99.153052 
L 457.845166 99.020005 
L 457.964245 99.286114 
L 458.202405 98.886943 
L 458.440564 99.552223 
L 458.559644 99.552223 
L 458.678723 99.419176 
L 458.797803 99.020005 
L 459.035963 99.286114 
L 459.155042 98.886943 
L 459.393202 99.685285 
L 459.512281 99.419176 
L 459.86952 99.685285 
L 459.9886 99.419176 
L 460.226759 99.685285 
L 460.464919 99.153052 
L 460.583999 98.886943 
L 460.703078 99.685285 
L 461.179397 99.685285 
L 461.298477 99.286114 
L 461.536636 99.286114 
L 461.655716 99.419176 
L 461.774795 99.951393 
L 461.893875 99.951393 
L 462.012955 99.685285 
L 462.132035 99.951393 
L 462.489274 99.286114 
L 462.608353 99.552223 
L 462.727433 99.419176 
L 462.846513 99.951393 
L 463.084672 99.685285 
L 463.203752 99.951393 
L 463.441911 99.286114 
L 463.560991 99.419176 
L 463.79915 100.084456 
L 464.03731 99.020005 
L 464.275469 100.084456 
L 464.394549 99.685285 
L 464.632708 99.951393 
L 464.751788 99.685285 
L 464.989947 99.951393 
L 465.109027 99.552223 
L 465.228107 99.951393 
L 465.347186 99.951393 
L 465.466266 99.286114 
L 465.585346 99.419176 
L 465.823505 99.020005 
L 465.942585 99.419176 
L 466.061664 99.419176 
L 466.180744 99.153052 
L 466.418904 99.419176 
L 466.537983 99.552223 
L 466.657063 100.350564 
L 466.895222 99.419176 
L 467.014302 99.286114 
L 467.133382 99.419176 
L 467.371541 99.286114 
L 467.6097 100.217502 
L 467.72878 99.685285 
L 467.84786 99.685285 
L 467.96694 100.217502 
L 468.086019 99.685285 
L 468.205099 99.818331 
L 468.324179 100.217502 
L 468.443258 99.552223 
L 468.562338 99.951393 
L 468.681418 99.951393 
L 468.800497 99.552223 
L 468.919577 99.951393 
L 469.038657 99.951393 
L 469.157736 99.552223 
L 469.276816 100.350564 
L 469.514976 99.552223 
L 469.753135 100.084456 
L 469.872215 99.286114 
L 469.991294 99.419176 
L 470.229454 99.286114 
L 470.467613 99.286114 
L 470.586693 99.552223 
L 470.705772 100.350564 
L 470.824852 99.419176 
L 471.063012 99.685285 
L 471.182091 99.286114 
L 471.420251 100.084456 
L 471.53933 99.286114 
L 471.65841 99.685285 
L 471.896569 99.419176 
L 472.015649 100.217502 
L 472.134729 99.419176 
L 472.253808 99.419176 
L 472.372888 100.217502 
L 472.491968 99.419176 
L 472.730127 100.217502 
L 472.849207 99.419176 
L 473.087366 100.084456 
L 473.206446 99.419176 
L 473.325526 99.951393 
L 473.444605 99.818331 
L 473.563685 99.419176 
L 473.682765 100.084456 
L 473.920924 99.419176 
L 474.040004 100.217502 
L 474.159084 99.419176 
L 474.278163 99.419176 
L 474.397243 100.217502 
L 474.516323 99.419176 
L 474.635402 99.419176 
L 474.754482 100.217502 
L 474.992641 99.552223 
L 475.111721 99.685285 
L 475.230801 99.419176 
L 475.46896 99.685285 
L 475.58804 99.419176 
L 475.826199 99.685285 
L 476.064359 99.419176 
L 476.302518 100.217502 
L 476.421598 99.552223 
L 476.540677 99.685285 
L 476.659757 99.419176 
L 476.897917 99.818331 
L 477.016996 99.419176 
L 477.493315 100.084456 
L 477.731474 99.685285 
L 477.850554 99.685285 
L 477.969634 100.350564 
L 478.088713 99.552223 
L 478.207793 99.552223 
L 478.445953 99.685285 
L 478.565032 99.552223 
L 478.803192 99.685285 
L 478.922271 99.552223 
L 479.160431 99.685285 
L 479.27951 99.552223 
L 479.39859 99.818331 
L 479.51767 99.685285 
L 479.755829 99.951393 
L 479.874909 99.951393 
L 479.993989 99.552223 
L 480.232148 99.818331 
L 480.351228 99.552223 
L 480.589387 99.685285 
L 481.065706 99.685285 
L 481.303865 99.818331 
L 481.422945 99.818331 
L 481.542025 99.685285 
L 481.661104 100.217502 
L 481.780184 99.818331 
L 481.899264 99.818331 
L 482.018343 100.217502 
L 482.137423 99.685285 
L 482.375582 100.217502 
L 482.494662 99.685285 
L 482.613742 100.084456 
L 482.851901 99.685285 
L 482.970981 100.217502 
L 483.20914 99.685285 
L 483.32822 100.217502 
L 483.566379 99.685285 
L 483.685459 100.217502 
L 483.923618 99.685285 
L 484.042698 100.084456 
L 484.280858 99.818331 
L 484.399937 100.084456 
L 484.638097 99.818331 
L 484.757176 99.818331 
L 484.876256 100.084456 
L 484.995336 99.685285 
L 485.114415 100.084456 
L 485.233495 100.084456 
L 485.471654 99.818331 
L 485.590734 99.818331 
L 485.709814 99.685285 
L 485.828894 100.084456 
L 485.947973 100.084456 
L 486.067053 99.685285 
L 486.186133 99.685285 
L 486.305212 100.350564 
L 486.424292 99.685285 
L 486.662451 99.685285 
L 486.781531 99.818331 
L 487.01969 99.685285 
L 487.13877 99.818331 
L 487.37693 99.685285 
L 487.734169 99.685285 
L 487.853248 99.818331 
L 488.091408 99.685285 
L 488.210487 99.818331 
L 488.448647 99.685285 
L 488.686806 99.818331 
L 489.044045 99.818331 
L 489.163125 99.685285 
L 489.282205 99.818331 
L 489.520364 99.552223 
L 489.639444 99.818331 
L 489.877603 99.552223 
L 490.115762 99.951393 
L 490.234842 100.48361 
L 490.353922 99.818331 
L 490.473002 99.951393 
L 490.592081 100.350564 
L 490.94932 99.951393 
L 491.0684 100.616673 
L 491.18748 99.951393 
L 491.306559 99.951393 
L 491.425639 99.419176 
L 491.544719 99.818331 
L 491.663798 99.818331 
L 491.782878 100.48361 
L 492.021038 99.818331 
L 492.140117 99.419176 
L 492.259197 99.818331 
L 492.378277 99.685285 
L 492.497356 99.286114 
L 492.616436 99.818331 
L 492.735516 99.818331 
L 492.854595 99.286114 
L 493.211835 100.217502 
L 493.449994 99.951393 
L 493.569074 100.217502 
L 493.807233 99.951393 
L 493.926313 100.217502 
L 494.283552 99.153052 
L 494.402631 99.286114 
L 494.640791 100.084456 
L 494.87895 99.818331 
L 494.99803 100.084456 
L 495.236189 99.951393 
L 495.355269 100.084456 
L 495.593428 99.951393 
L 495.712508 100.084456 
L 495.831588 99.818331 
L 496.069747 100.084456 
L 496.188827 99.818331 
L 496.426986 100.084456 
L 496.546066 99.818331 
L 496.784225 100.084456 
L 497.022385 99.818331 
L 497.141464 99.951393 
L 497.617783 99.419176 
L 497.975022 99.951393 
L 498.094102 99.685285 
L 498.332261 99.951393 
L 498.451341 99.685285 
L 498.6895 99.951393 
L 498.80858 99.552223 
L 498.92766 99.552223 
L 499.046739 99.419176 
L 499.284899 99.818331 
L 499.403979 100.084456 
L 499.642138 99.818331 
L 499.761218 100.084456 
L 499.880297 99.685285 
L 500.118457 100.084456 
L 500.237536 99.552223 
L 500.475696 100.084456 
L 500.594775 99.552223 
L 500.713855 99.552223 
L 500.832935 100.084456 
L 501.190174 99.552223 
L 501.309254 99.552223 
L 501.547413 99.685285 
L 501.785572 99.685285 
L 501.904652 99.552223 
L 502.023732 99.685285 
L 502.261891 99.552223 
L 502.380971 99.685285 
L 502.61913 99.552223 
L 508.096796 99.552223 
L 508.215876 99.685285 
L 508.454035 99.552223 
L 508.573115 99.685285 
L 508.811274 99.552223 
L 508.930354 99.685285 
L 509.049434 99.552223 
L 509.168513 99.685285 
L 509.406673 99.552223 
L 509.525752 99.685285 
L 509.763912 99.552223 
L 509.882992 99.685285 
L 510.121151 99.552223 
L 510.240231 99.685285 
L 510.47839 99.552223 
L 510.59747 99.685285 
L 510.716549 99.552223 
L 510.954709 99.685285 
L 511.073788 99.552223 
L 511.311948 99.685285 
L 511.431028 99.552223 
L 511.550107 99.685285 
L 511.788267 99.552223 
L 511.907346 99.685285 
L 512.145506 99.552223 
L 512.264585 99.685285 
L 512.383665 99.552223 
L 512.621825 99.685285 
L 512.740904 99.552223 
L 512.859984 99.685285 
L 513.098143 99.552223 
L 513.217223 99.685285 
L 513.455382 99.552223 
L 513.574462 99.685285 
L 513.693542 99.552223 
L 513.931701 99.685285 
L 514.050781 99.552223 
L 514.28894 99.685285 
L 514.40802 99.552223 
L 514.5271 99.685285 
L 514.765259 99.552223 
L 514.884339 99.685285 
L 515.122498 99.552223 
L 515.241578 99.685285 
L 515.360657 99.552223 
L 515.598817 99.685285 
L 515.717897 99.552223 
L 515.836976 99.685285 
L 516.075136 99.552223 
L 516.194215 99.685285 
L 516.432375 99.552223 
L 516.551454 99.685285 
L 516.789614 99.552223 
L 516.908693 99.685285 
L 517.146853 99.552223 
L 517.265933 99.685285 
L 517.504092 99.552223 
L 517.623172 99.685285 
L 517.742251 99.552223 
L 517.980411 99.685285 
L 518.09949 99.552223 
L 518.33765 99.685285 
L 518.456729 99.552223 
L 518.694889 99.818331 
L 518.813969 99.818331 
L 519.052128 99.685285 
L 519.171208 99.818331 
L 519.528447 99.552223 
L 519.647526 99.818331 
L 519.885686 99.552223 
L 520.004765 99.818331 
L 520.123845 99.552223 
L 520.362005 99.818331 
L 520.481084 99.552223 
L 520.600164 99.818331 
L 520.838323 99.552223 
L 520.957403 99.818331 
L 521.076483 99.552223 
L 521.195562 99.818331 
L 521.433722 99.552223 
L 521.552801 99.818331 
L 521.671881 99.552223 
L 521.910041 99.818331 
L 522.02912 99.552223 
L 522.26728 99.685285 
L 522.386359 99.552223 
L 522.505439 99.818331 
L 522.743598 99.552223 
L 522.862678 99.818331 
L 522.981758 99.552223 
L 523.219917 99.951393 
L 523.338997 99.552223 
L 523.577156 99.951393 
L 523.696236 99.552223 
L 523.934395 99.818331 
L 524.053475 99.552223 
L 524.172555 99.951393 
L 524.410714 99.685285 
L 524.529794 99.951393 
L 524.648874 99.552223 
L 524.767953 99.818331 
L 525.006113 99.552223 
L 525.125192 99.951393 
L 525.363352 99.685285 
L 525.601511 99.685285 
L 525.720591 99.951393 
L 525.95875 99.685285 
L 526.07783 99.818331 
L 526.315989 99.685285 
L 526.435069 99.818331 
L 526.554149 99.685285 
L 526.792308 99.818331 
L 527.030467 99.685285 
L 530.245619 99.685285 
L 530.364699 99.818331 
L 530.602858 99.685285 
L 533.103532 99.685285 
L 533.222611 99.552223 
L 533.460771 99.685285 
L 533.579851 99.419176 
L 533.81801 99.685285 
L 533.93709 99.552223 
L 534.175249 99.685285 
L 534.294329 99.419176 
L 534.413408 99.685285 
L 534.651568 99.419176 
L 534.770647 99.685285 
L 535.008807 99.419176 
L 535.127887 99.685285 
L 535.366046 99.552223 
L 535.485126 99.685285 
L 535.604205 99.419176 
L 535.842365 99.552223 
L 535.961444 99.419176 
L 536.080524 99.685285 
L 536.318683 99.419176 
L 536.437763 99.685285 
L 536.675923 99.419176 
L 536.795002 99.685285 
L 537.033162 99.419176 
L 537.271321 99.552223 
L 537.390401 99.419176 
L 537.50948 99.685285 
L 537.62856 99.419176 
L 537.74764 99.552223 
L 537.866719 99.419176 
L 538.104879 99.685285 
L 538.223959 99.419176 
L 538.343038 99.685285 
L 538.462118 99.419176 
L 538.700277 99.685285 
L 538.819357 99.419176 
L 538.938437 99.685285 
L 539.176596 99.419176 
L 539.295676 99.685285 
L 539.533835 99.419176 
L 539.652915 99.685285 
L 539.891074 99.419176 
L 540.129234 99.552223 
L 540.248313 99.419176 
L 540.367393 99.552223 
L 540.486473 99.286114 
L 540.724632 99.685285 
L 540.843712 99.286114 
L 541.081871 99.685285 
L 541.200951 99.286114 
L 541.43911 99.552223 
L 541.55819 99.419176 
L 541.67727 99.685285 
L 541.796349 99.419176 
L 541.915429 99.552223 
L 542.153588 99.286114 
L 542.391748 99.552223 
L 542.510828 99.552223 
L 542.629907 99.685285 
L 542.987146 99.419176 
L 543.225306 99.419176 
L 543.463465 99.552223 
L 543.820704 99.552223 
L 543.939784 99.685285 
L 544.177943 99.552223 
L 544.297023 99.685285 
L 544.535182 99.419176 
L 544.654262 99.685285 
L 544.892421 99.419176 
L 545.011501 99.685285 
L 545.130581 99.419176 
L 545.36874 99.685285 
L 545.48782 99.419176 
L 545.725979 99.552223 
L 545.845059 99.419176 
L 545.964139 99.685285 
L 546.083218 99.552223 
L 546.202298 99.685285 
L 546.440457 99.419176 
L 546.678617 99.552223 
L 546.797696 99.419176 
L 547.154936 99.685285 
L 547.393095 99.552223 
L 547.869414 99.552223 
L 547.988493 99.685285 
L 548.107573 99.419176 
L 548.345732 99.685285 
L 548.464812 99.419176 
L 548.583892 99.685285 
L 548.702972 99.419176 
L 548.822051 99.685285 
L 549.060211 99.419176 
L 549.29837 99.685285 
L 549.655609 99.419176 
L 549.774689 99.685285 
L 550.012848 99.552223 
L 550.489167 99.552223 
L 550.727326 99.685285 
L 550.846406 99.419176 
L 550.965486 99.685285 
L 551.203645 99.552223 
L 551.322725 99.685285 
L 551.560884 99.552223 
L 551.679964 99.818331 
L 551.799044 99.419176 
L 551.918123 99.818331 
L 552.156283 99.419176 
L 552.275362 99.685285 
L 552.513522 99.552223 
L 552.632601 99.685285 
L 552.751681 99.419176 
L 552.989841 99.685285 
L 553.10892 99.419176 
L 553.34708 99.685285 
L 553.466159 99.552223 
L 553.585239 99.685285 
L 553.823398 99.419176 
L 553.942478 99.685285 
L 554.061558 99.419176 
L 554.299717 99.685285 
L 554.418797 99.552223 
L 554.537877 99.685285 
L 554.776036 99.419176 
L 554.895116 99.818331 
L 555.133275 99.552223 
L 556.324072 99.552223 
L 556.443152 99.685285 
L 556.681311 99.552223 
L 556.800391 99.552223 
L 556.91947 99.685285 
L 557.15763 99.552223 
L 557.395789 99.685285 
L 557.514869 99.419176 
L 557.872108 99.685285 
L 558.110267 99.552223 
L 558.348427 99.685285 
L 558.467506 99.685285 
L 558.586586 99.552223 
L 558.824745 99.685285 
L 559.420144 99.685285 
L 559.539224 99.552223 
L 559.777383 99.685285 
L 561.206339 99.685285 
L 561.325419 99.419176 
L 561.563578 99.685285 
L 562.992535 99.685285 
L 563.111614 99.818331 
L 563.230694 99.552223 
L 563.468854 99.685285 
L 563.587933 99.552223 
L 563.826093 99.685285 
L 563.945172 99.552223 
L 564.064252 99.685285 
L 564.183332 99.552223 
L 564.421491 99.951393 
L 564.540571 99.419176 
L 564.77873 99.685285 
L 564.89781 99.552223 
L 565.01689 99.818331 
L 565.135969 99.552223 
L 565.374129 99.685285 
L 565.493208 99.552223 
L 565.612288 99.818331 
L 565.850447 99.552223 
L 565.969527 99.818331 
L 566.207686 99.685285 
L 566.326766 99.818331 
L 566.445846 99.552223 
L 566.684005 99.818331 
L 566.803085 99.552223 
L 567.041244 99.818331 
L 567.160324 99.552223 
L 567.279404 99.951393 
L 567.398483 99.552223 
L 567.517563 99.552223 
L 567.636643 99.951393 
L 567.755722 99.552223 
L 567.993882 99.818331 
L 568.112962 99.419176 
L 568.232041 99.818331 
L 568.351121 99.818331 
L 568.470201 99.419176 
L 568.58928 99.818331 
L 568.70836 99.818331 
L 568.82744 99.552223 
L 568.946519 99.951393 
L 569.065599 99.552223 
L 569.303758 99.818331 
L 569.422838 99.685285 
L 569.660998 99.818331 
L 569.899157 99.818331 
L 570.018237 99.685285 
L 570.256396 99.818331 
L 570.375476 99.685285 
L 570.613635 99.818331 
L 570.732715 99.685285 
L 570.851794 99.951393 
L 571.089954 99.685285 
L 571.209034 99.951393 
L 571.328113 99.685285 
L 571.566273 99.818331 
L 571.685352 99.685285 
L 571.804432 99.951393 
L 572.042591 99.685285 
L 572.161671 99.951393 
L 572.399831 99.552223 
L 572.51891 99.951393 
L 572.75707 99.685285 
L 572.876149 99.951393 
L 573.114309 99.685285 
L 573.233388 99.951393 
L 573.352468 99.552223 
L 573.590627 99.818331 
L 573.709707 99.685285 
L 573.828787 99.951393 
L 573.947867 99.685285 
L 574.186026 99.818331 
L 574.305106 99.685285 
L 574.424185 99.951393 
L 574.662345 99.685285 
L 574.781424 99.951393 
L 574.900504 99.685285 
L 575.138663 99.818331 
L 575.257743 99.685285 
L 575.376823 99.951393 
L 575.614982 99.685285 
L 575.734062 99.951393 
L 575.853142 99.685285 
L 576.091301 99.818331 
L 576.210381 99.685285 
L 576.32946 99.951393 
L 576.56762 99.685285 
L 576.686699 99.951393 
L 576.805779 99.685285 
L 576.924859 99.951393 
L 577.163018 99.685285 
L 577.282098 99.951393 
L 577.520257 99.685285 
L 577.639337 99.951393 
L 577.758417 99.685285 
L 577.877496 99.951393 
L 578.115656 99.685285 
L 578.234735 99.951393 
L 578.472895 99.685285 
L 578.591975 99.951393 
L 578.830134 99.685285 
L 578.949214 99.951393 
L 579.068293 99.685285 
L 579.187373 99.951393 
L 579.425532 99.685285 
L 579.544612 99.951393 
L 579.782771 99.685285 
L 579.901851 99.951393 
L 580.140011 99.685285 
L 580.25909 99.951393 
L 580.37817 99.685285 
L 580.49725 99.951393 
L 580.735409 99.685285 
L 580.854489 99.951393 
L 581.092648 99.685285 
L 581.211728 99.951393 
L 581.330807 99.685285 
L 581.449887 99.951393 
L 581.688047 99.685285 
L 581.807126 99.951393 
L 582.045286 99.685285 
L 582.164365 99.951393 
L 582.402525 99.685285 
L 582.521604 99.951393 
L 582.640684 99.685285 
L 582.759764 99.818331 
L 582.997923 99.685285 
L 583.117003 99.951393 
L 583.355162 99.685285 
L 583.474242 99.951393 
L 583.712401 99.685285 
L 583.831481 99.951393 
L 584.06964 99.685285 
L 584.18872 99.951393 
L 584.42688 99.685285 
L 584.545959 99.951393 
L 584.665039 99.685285 
L 584.784119 99.951393 
L 585.022278 99.685285 
L 585.141358 99.951393 
L 585.260437 99.685285 
L 585.379517 99.818331 
L 585.617676 99.685285 
L 585.736756 99.951393 
L 585.974916 99.685285 
L 586.093995 100.084456 
L 586.213075 99.685285 
L 586.332155 99.818331 
L 586.570314 99.685285 
L 586.689394 99.951393 
L 586.927553 99.685285 
L 587.046633 99.951393 
L 587.284792 99.685285 
L 588.23743 99.685285 
L 588.356509 99.818331 
L 588.594669 99.685285 
L 588.713748 99.951393 
L 588.951908 99.685285 
L 589.070988 99.951393 
L 589.309147 99.685285 
L 589.428227 99.951393 
L 589.547306 99.685285 
L 589.666386 99.818331 
L 589.904545 99.685285 
L 590.023625 99.951393 
L 590.261784 99.552223 
L 590.619024 99.951393 
L 590.857183 99.552223 
L 591.214422 99.818331 
L 591.452581 99.685285 
L 591.571661 99.818331 
L 591.809821 99.685285 
L 592.04798 99.685285 
L 592.16706 99.818331 
L 592.405219 99.685285 
L 592.643378 99.685285 
L 592.881538 99.552223 
L 593.119697 99.685285 
L 593.596016 99.685285 
L 593.834175 99.552223 
L 593.953255 99.685285 
L 594.191414 99.552223 
L 594.429574 99.685285 
L 594.548653 99.685285 
L 594.786813 99.419176 
L 595.024972 99.685285 
L 595.144052 99.552223 
L 595.382211 99.685285 
L 595.73945 99.419176 
L 595.85853 99.552223 
L 595.97761 99.419176 
L 596.215769 99.685285 
L 596.453929 99.419176 
L 596.692088 99.552223 
L 596.930247 99.552223 
L 597.049327 99.685285 
L 597.287486 99.552223 
L 597.406566 99.685285 
L 597.763805 99.419176 
L 597.882885 99.552223 
L 598.001965 99.419176 
L 598.359204 99.685285 
L 598.597363 99.552223 
L 598.716443 99.685285 
L 599.073682 99.419176 
L 599.311841 99.685285 
L 599.66908 99.419176 
L 599.78816 99.552223 
L 600.026319 99.419176 
L 600.264479 99.685285 
L 600.502638 99.552223 
L 600.740797 99.552223 
L 600.978957 99.419176 
L 601.098037 99.552223 
L 601.217116 99.419176 
L 601.336196 99.552223 
L 601.574355 99.419176 
L 601.693435 99.552223 
L 601.931594 99.419176 
L 602.169754 99.552223 
L 602.646073 99.552223 
L 602.884232 99.419176 
L 603.122391 99.552223 
L 603.59871 99.552223 
L 603.83687 99.419176 
L 604.075029 99.552223 
L 604.551348 99.552223 
L 604.789507 99.419176 
L 605.027666 99.419176 
L 605.146746 99.552223 
L 605.384906 99.419176 
L 606.813862 99.419176 
L 607.052021 99.552223 
L 607.171101 99.552223 
L 607.290181 99.685285 
L 607.64742 99.419176 
L 607.766499 99.419176 
L 607.885579 99.552223 
L 608.123738 99.419176 
L 609.076376 99.419176 
L 609.195456 99.552223 
L 609.433615 99.419176 
L 610.029014 99.419176 
L 610.148093 99.552223 
L 610.386253 99.419176 
L 610.505332 99.552223 
L 610.743492 99.419176 
L 610.981651 99.419176 
L 611.100731 99.552223 
L 611.33889 99.419176 
L 611.57705 99.419176 
L 611.696129 99.552223 
L 611.934289 99.419176 
L 613.601404 99.419176 
L 613.720484 99.552223 
L 613.958643 99.419176 
L 614.554042 99.419176 
L 614.673122 99.552223 
L 614.911281 99.419176 
L 615.030361 99.419176 
L 615.14944 99.552223 
L 615.3876 99.419176 
L 615.506679 99.419176 
L 615.744839 99.552223 
L 615.982998 99.419176 
L 616.221158 99.552223 
L 616.459317 99.419176 
L 616.697476 99.552223 
L 616.935636 99.419176 
L 617.173795 99.552223 
L 617.769194 99.552223 
L 617.888273 99.419176 
L 618.126433 99.552223 
L 618.364592 99.552223 
L 618.483672 99.419176 
L 618.602751 99.552223 
L 618.721831 99.419176 
L 618.959991 99.552223 
L 619.31723 99.552223 
L 619.436309 99.419176 
L 619.555389 99.552223 
L 619.674469 99.419176 
L 619.912628 99.552223 
L 623.365939 99.552223 
L 623.485019 99.685285 
L 623.723178 99.552223 
L 624.318577 99.552223 
L 624.437656 99.685285 
L 624.675816 99.552223 
L 625.271214 99.552223 
L 625.390294 99.685285 
L 625.628453 99.552223 
L 625.866613 99.552223 
L 625.985692 99.818331 
L 626.223852 99.552223 
L 629.081764 99.552223 
L 629.200844 99.685285 
L 629.439004 99.552223 
L 629.558083 99.685285 
L 629.677163 99.552223 
L 629.796243 99.685285 
L 630.034402 99.552223 
L 630.153482 99.685285 
L 630.391641 99.552223 
L 630.510721 99.685285 
L 630.6298 99.552223 
L 630.74888 99.685285 
L 630.98704 99.552223 
L 631.106119 99.685285 
L 631.344279 99.552223 
L 631.463358 99.685285 
L 631.701518 99.552223 
L 631.939677 99.552223 
L 632.177837 99.685285 
L 632.415996 99.552223 
L 632.654155 99.552223 
L 632.773235 99.818331 
L 632.892315 99.552223 
L 633.130474 99.685285 
L 633.249554 99.552223 
L 633.368633 99.685285 
L 633.487713 99.552223 
L 633.725873 99.685285 
L 633.844952 99.552223 
L 633.964032 99.685285 
L 634.083112 99.552223 
L 634.202191 99.685285 
L 634.440351 99.552223 
L 634.55943 99.552223 
L 634.67851 99.685285 
L 634.79759 99.552223 
L 634.916669 99.685285 
L 635.035749 99.552223 
L 635.273909 99.685285 
L 635.392988 99.685285 
L 635.512068 99.552223 
L 635.750227 99.685285 
L 636.941024 99.685285 
L 637.060104 99.552223 
L 637.298263 99.685285 
L 637.417343 99.552223 
L 637.536423 99.818331 
L 637.655502 99.552223 
L 637.893662 99.818331 
L 638.131821 99.552223 
L 638.250901 99.419176 
L 638.48906 99.818331 
L 638.60814 99.552223 
L 638.72722 99.685285 
L 638.965379 99.552223 
L 639.084459 99.685285 
L 639.203538 99.552223 
L 639.322618 99.685285 
L 639.441698 99.552223 
L 639.560777 99.685285 
L 639.798937 99.552223 
L 639.918017 99.685285 
L 640.037096 99.552223 
L 640.275256 99.685285 
L 640.394335 99.552223 
L 640.513415 99.685285 
L 640.751574 99.552223 
L 640.870654 99.685285 
L 640.989734 99.552223 
L 641.108814 99.685285 
L 641.346973 99.552223 
L 641.466053 99.685285 
L 641.704212 99.552223 
L 641.823292 99.685285 
L 641.942371 99.552223 
L 642.180531 99.685285 
L 642.29961 99.552223 
L 642.41869 99.685285 
L 642.65685 99.552223 
L 642.775929 99.685285 
L 643.014089 99.552223 
L 643.133168 99.685285 
L 643.252248 99.552223 
L 643.371328 99.685285 
L 643.609487 99.552223 
L 643.728567 99.685285 
L 643.847646 99.552223 
L 643.966726 99.685285 
L 644.204886 99.552223 
L 644.323965 99.685285 
L 644.443045 99.552223 
L 644.681204 99.685285 
L 644.800284 99.552223 
L 644.919364 99.685285 
L 645.038443 99.552223 
L 645.157523 99.685285 
L 645.395682 99.552223 
L 645.514762 99.685285 
L 645.752922 99.552223 
L 645.872001 99.685285 
L 646.110161 99.552223 
L 646.22924 99.685285 
L 646.34832 99.552223 
L 646.4674 99.685285 
L 646.705559 99.552223 
L 646.824639 99.685285 
L 647.062798 99.552223 
L 647.181878 99.685285 
L 647.300958 99.552223 
L 647.539117 99.685285 
L 647.658197 99.552223 
L 647.777276 99.685285 
L 648.015436 99.552223 
L 648.134515 99.685285 
L 648.372675 99.552223 
L 648.491754 99.685285 
L 648.610834 99.552223 
L 648.729914 99.685285 
L 648.968073 99.552223 
L 649.087153 99.685285 
L 649.206233 99.552223 
L 649.444392 99.685285 
L 649.563472 99.552223 
L 649.682551 99.685285 
L 649.801631 99.552223 
L 650.03979 99.685285 
L 650.15887 99.552223 
L 650.27795 99.685285 
L 650.516109 99.552223 
L 650.635189 99.685285 
L 650.754269 99.552223 
L 650.873348 99.685285 
L 651.111508 99.552223 
L 651.230587 99.685285 
L 651.349667 99.552223 
L 651.587827 99.685285 
L 651.706906 99.552223 
L 651.825986 99.685285 
L 651.945066 99.552223 
L 652.183225 99.685285 
L 652.778623 99.685285 
L 652.897703 99.552223 
L 653.135863 99.685285 
L 653.374022 99.685285 
L 653.493102 99.419176 
L 653.731261 99.685285 
L 653.850341 99.419176 
L 654.0885 99.685285 
L 654.326659 99.685285 
L 654.445739 99.552223 
L 654.683899 99.685285 
L 654.922058 99.685285 
L 655.041138 99.552223 
L 655.160217 99.818331 
L 655.279297 99.552223 
L 655.517456 99.685285 
L 655.636536 99.552223 
L 655.755616 99.685285 
L 655.874695 99.552223 
L 656.112855 99.685285 
L 656.231935 99.552223 
L 656.351014 99.685285 
L 656.470094 99.552223 
L 656.708253 99.685285 
L 656.827333 99.552223 
L 656.946413 99.685285 
L 657.065492 99.552223 
L 657.303652 99.685285 
L 657.422731 99.552223 
L 657.541811 99.685285 
L 657.660891 99.552223 
L 657.89905 99.685285 
L 658.01813 99.552223 
L 658.13721 99.685285 
L 658.256289 99.552223 
L 658.494449 99.685285 
L 658.613528 99.552223 
L 658.732608 99.685285 
L 658.970767 99.552223 
L 659.089847 99.685285 
L 659.208927 99.552223 
L 659.328007 99.685285 
L 659.447086 99.552223 
L 659.685246 99.951393 
L 659.923405 99.552223 
L 660.042485 99.685285 
L 660.161564 99.552223 
L 660.399724 99.685285 
L 660.518803 99.685285 
L 660.756963 99.552223 
L 660.876043 99.685285 
L 660.995122 99.552223 
L 661.114202 99.685285 
L 661.233282 99.552223 
L 661.352361 99.685285 
L 661.590521 99.552223 
L 661.7096 99.685285 
L 661.94776 99.552223 
L 662.06684 99.685285 
L 662.185919 99.552223 
L 662.304999 99.685285 
L 662.543158 99.552223 
L 662.662238 99.685285 
L 662.900397 99.552223 
L 663.019477 99.685285 
L 663.257636 99.552223 
L 663.376716 99.685285 
L 663.614876 99.552223 
L 663.733955 99.685285 
L 663.853035 99.552223 
L 663.972115 99.685285 
L 664.210274 99.552223 
L 664.329354 99.685285 
L 664.448433 99.552223 
L 664.567513 99.685285 
L 664.805672 99.552223 
L 665.043832 99.552223 
L 665.162912 99.685285 
L 665.401071 99.552223 
L 665.996469 99.552223 
L 666.115549 99.818331 
L 666.353708 99.552223 
L 666.591868 99.552223 
L 666.710948 99.818331 
L 666.949107 99.552223 
L 669.68794 99.552223 
L 669.80702 99.685285 
L 670.045179 99.552223 
L 671.950454 99.552223 
L 672.069534 99.685285 
L 672.307693 99.552223 
L 672.545853 99.552223 
L 672.664932 99.685285 
L 672.903092 99.552223 
L 673.141251 99.552223 
L 673.260331 99.685285 
L 673.49849 99.552223 
L 673.736649 99.552223 
L 673.855729 99.685285 
L 674.093889 99.552223 
L 674.212968 99.685285 
L 674.451128 99.552223 
L 674.689287 99.552223 
L 674.808367 99.685285 
L 675.046526 99.552223 
L 675.641925 99.552223 
L 675.761004 99.685285 
L 675.999164 99.552223 
L 676.237323 99.552223 
L 676.356403 99.685285 
L 676.475482 99.552223 
L 676.594562 99.685285 
L 676.832721 99.552223 
L 676.951801 99.685285 
L 677.070881 99.552223 
L 677.189961 99.685285 
L 677.42812 99.552223 
L 677.5472 99.685285 
L 677.785359 99.552223 
L 678.380757 99.552223 
L 678.499837 99.685285 
L 678.737997 99.552223 
L 678.857076 99.685285 
L 679.095236 99.552223 
L 679.333395 99.552223 
L 679.452475 99.685285 
L 679.571554 99.552223 
L 679.690634 99.685285 
L 679.928793 99.552223 
L 680.047873 99.685285 
L 680.166953 99.552223 
L 680.286033 99.685285 
L 680.524192 99.552223 
L 680.762351 99.552223 
L 680.881431 99.685285 
L 681.11959 99.552223 
L 681.23867 99.685285 
L 681.35775 99.552223 
L 681.47683 99.685285 
L 681.714989 99.552223 
L 681.834069 99.685285 
L 681.953148 99.552223 
L 682.072228 99.685285 
L 682.310387 99.552223 
L 682.429467 99.685285 
L 682.548547 99.552223 
L 682.667626 99.685285 
L 682.905786 99.552223 
L 683.024866 99.685285 
L 683.143945 99.552223 
L 683.263025 99.685285 
L 683.382105 99.552223 
L 683.501184 99.685285 
L 683.739344 99.552223 
L 683.858423 99.685285 
L 683.977503 99.552223 
L 684.096583 99.685285 
L 684.334742 99.552223 
L 684.453822 99.685285 
L 684.691981 99.552223 
L 684.811061 99.685285 
L 684.930141 99.552223 
L 685.04922 99.685285 
L 685.28738 99.552223 
L 685.406459 99.685285 
L 685.525539 99.552223 
L 685.644619 99.685285 
L 685.882778 99.552223 
L 686.001858 99.685285 
L 686.120938 99.552223 
L 686.240017 99.685285 
L 686.478177 99.552223 
L 686.597256 99.685285 
L 686.716336 99.552223 
L 686.835416 99.685285 
L 687.073575 99.552223 
L 687.192655 99.685285 
L 687.430814 99.552223 
L 687.549894 99.685285 
L 687.668974 99.552223 
L 687.788053 99.685285 
L 688.026213 99.552223 
L 688.145292 99.685285 
L 688.264372 99.552223 
L 688.383452 99.685285 
L 688.502531 99.552223 
L 688.621611 99.685285 
L 688.85977 99.552223 
L 688.97885 99.818331 
L 689.09793 99.552223 
L 689.21701 99.685285 
L 689.455169 99.552223 
L 689.574249 99.685285 
L 689.693328 99.552223 
L 689.812408 99.685285 
L 690.050567 99.552223 
L 690.169647 99.685285 
L 690.288727 99.552223 
L 690.407806 99.685285 
L 690.645966 99.552223 
L 690.765046 99.818331 
L 691.003205 99.552223 
L 691.122285 99.685285 
L 691.241364 99.552223 
L 691.360444 99.685285 
L 691.598603 99.552223 
L 691.717683 99.685285 
L 691.836763 99.552223 
L 691.955843 99.685285 
L 692.194002 99.552223 
L 692.313082 99.685285 
L 692.432161 99.552223 
L 692.551241 99.818331 
L 692.7894 99.552223 
L 692.90848 99.685285 
L 693.02756 99.552223 
L 693.146639 99.685285 
L 693.265719 99.552223 
L 693.384799 99.818331 
L 693.622958 99.552223 
L 693.742038 99.685285 
L 693.861118 99.552223 
L 693.980197 99.685285 
L 694.099277 99.552223 
L 694.218357 99.685285 
L 694.456516 99.552223 
L 694.575596 99.685285 
L 694.694675 99.552223 
L 694.932835 99.685285 
L 695.051915 99.552223 
L 695.170994 99.685285 
L 695.409154 99.552223 
L 695.528233 99.685285 
L 695.647313 99.552223 
L 695.766393 99.685285 
L 696.004552 99.552223 
L 696.123632 99.685285 
L 696.242711 99.552223 
L 696.361791 99.685285 
L 696.599951 99.552223 
L 696.71903 99.685285 
L 696.83811 99.552223 
L 696.95719 99.685285 
L 697.195349 99.552223 
L 697.314429 99.818331 
L 697.433508 99.552223 
L 697.552588 99.818331 
L 697.790747 99.685285 
L 697.909827 99.818331 
L 698.028907 99.685285 
L 698.147987 99.818331 
L 698.267066 99.685285 
L 698.386146 99.818331 
L 698.505226 99.685285 
L 698.624305 99.818331 
L 698.743385 99.685285 
L 698.862465 99.818331 
L 699.100624 99.685285 
L 699.219704 99.818331 
L 699.338783 99.685285 
L 699.457863 99.818331 
L 699.576943 99.685285 
L 699.696023 99.818331 
L 699.934182 99.685285 
L 700.053262 99.818331 
L 700.172341 99.685285 
L 700.291421 99.818331 
L 700.52958 99.685285 
L 700.64866 99.818331 
L 700.88682 99.685285 
L 701.005899 99.818331 
L 701.124979 99.685285 
L 701.244059 99.818331 
L 701.482218 99.685285 
L 701.601298 99.818331 
L 701.839457 99.685285 
L 701.958537 99.951393 
L 702.196696 99.685285 
L 702.315776 99.951393 
L 702.553935 99.685285 
L 702.673015 99.951393 
L 702.911174 99.685285 
L 703.030254 99.951393 
L 703.149334 99.552223 
L 703.268413 99.818331 
L 703.387493 99.552223 
L 703.506573 99.685285 
L 703.625652 99.552223 
L 703.863812 99.951393 
L 703.982892 99.685285 
L 704.101971 99.951393 
L 704.221051 99.685285 
L 704.340131 99.951393 
L 704.45921 99.685285 
L 704.57829 99.951393 
L 704.69737 99.685285 
L 704.816449 99.951393 
L 705.054609 99.818331 
L 705.530928 99.818331 
L 705.650007 99.951393 
L 705.888167 99.818331 
L 707.078964 99.818331 
L 707.198043 99.951393 
L 707.436203 99.818331 
L 707.674362 99.818331 
L 707.793442 99.951393 
L 707.912521 99.818331 
L 708.031601 99.951393 
L 708.26976 99.818331 
L 708.50792 99.818331 
L 708.627 99.951393 
L 708.865159 99.818331 
L 709.341478 99.818331 
L 709.460557 99.951393 
L 709.579637 99.818331 
L 709.698717 99.951393 
L 709.936876 99.818331 
L 712.794789 99.818331 
L 712.913869 99.951393 
L 713.152028 99.818331 
L 717.677056 99.818331 
L 717.796136 99.951393 
L 718.034295 99.818331 
L 722.202085 99.818331 
L 722.321164 99.951393 
L 722.440244 99.685285 
L 722.559324 99.951393 
L 722.797483 99.818331 
L 723.035642 99.818331 
L 723.154722 99.951393 
L 723.273802 99.818331 
L 723.392882 99.951393 
L 723.511961 99.685285 
L 723.631041 99.951393 
L 723.750121 99.818331 
L 723.8692 99.951393 
L 723.98828 99.818331 
L 724.10736 99.951393 
L 724.345519 99.818331 
L 726.012635 99.818331 
L 726.131714 99.951393 
L 726.250794 99.818331 
L 726.369874 99.951393 
L 726.608033 99.818331 
L 726.727113 99.951393 
L 726.846193 99.685285 
L 727.084352 99.951393 
L 727.560671 99.951393 
L 727.67975 99.685285 
L 727.91791 99.951393 
L 728.03699 99.951393 
L 728.156069 99.818331 
L 728.275149 100.084456 
L 728.394229 99.818331 
L 728.513308 99.951393 
L 728.632388 99.818331 
L 728.751468 99.951393 
L 728.870547 99.818331 
L 728.989627 100.084456 
L 729.108707 99.818331 
L 729.346866 99.951393 
L 729.465946 99.818331 
L 729.704105 99.951393 
L 729.823185 99.685285 
L 729.942265 99.951393 
L 730.061344 99.685285 
L 730.299504 99.951393 
L 730.537663 99.951393 
L 730.656743 99.818331 
L 730.775823 99.951393 
L 730.894902 99.685285 
L 731.013982 99.951393 
L 731.133062 99.685285 
L 731.252141 99.951393 
L 731.371221 99.685285 
L 731.490301 99.951393 
L 731.60938 99.685285 
L 731.72846 99.951393 
L 731.84754 99.685285 
L 731.966619 99.951393 
L 732.085699 99.685285 
L 732.204779 99.951393 
L 732.323859 99.685285 
L 732.442938 99.951393 
L 732.562018 99.685285 
L 732.800177 99.951393 
L 735.062691 99.951393 
L 735.181771 99.818331 
L 735.419931 99.951393 
L 735.65809 99.951393 
L 735.77717 99.685285 
L 735.896249 99.951393 
L 736.015329 99.818331 
L 736.253488 99.951393 
L 736.491648 99.951393 
L 736.729807 99.818331 
L 736.848887 99.818331 
L 737.087046 99.951393 
L 737.206126 99.951393 
L 737.325206 99.818331 
L 737.444285 100.084456 
L 737.563365 99.818331 
L 737.682445 99.951393 
L 737.920604 99.818331 
L 738.039684 100.084456 
L 738.516003 99.685285 
L 738.754162 99.951393 
L 738.873242 99.818331 
L 738.992321 100.084456 
L 739.230481 99.818331 
L 739.46864 99.818331 
L 739.58772 100.084456 
L 739.825879 99.818331 
L 740.302198 99.818331 
L 740.421278 99.951393 
L 740.540357 99.818331 
L 740.659437 99.951393 
L 740.778517 99.818331 
L 740.897596 99.951393 
L 741.016676 99.818331 
L 741.135756 99.951393 
L 741.254836 99.818331 
L 741.373915 99.951393 
L 741.492995 99.818331 
L 741.731154 99.951393 
L 741.850234 99.951393 
L 741.969314 99.818331 
L 742.088393 99.951393 
L 742.207473 99.818331 
L 742.326553 99.951393 
L 742.445632 99.818331 
L 742.564712 99.951393 
L 742.802872 99.818331 
L 742.921951 99.951393 
L 743.041031 99.818331 
L 743.27919 99.951393 
L 743.39827 99.818331 
L 743.51735 99.951393 
L 743.636429 99.818331 
L 743.874589 99.951393 
L 743.993668 99.818331 
L 744.112748 99.951393 
L 744.231828 99.818331 
L 744.469987 99.951393 
L 744.708147 99.818331 
L 744.946306 99.818331 
L 745.065386 99.951393 
L 745.303545 99.818331 
L 745.422625 100.084456 
L 745.779864 99.818331 
L 746.018023 99.818331 
L 746.137103 99.951393 
L 746.256183 99.818331 
L 746.375262 100.084456 
L 746.494342 99.951393 
L 746.732501 100.084456 
L 746.970661 99.818331 
L 747.08974 99.818331 
L 747.20882 99.951393 
L 747.3279 99.818331 
L 747.44698 99.951393 
L 747.566059 99.818331 
L 747.804219 100.084456 
L 748.042378 99.818331 
L 748.399617 99.818331 
L 748.518697 99.951393 
L 748.637776 99.818331 
L 748.756856 99.951393 
L 748.875936 99.818331 
L 749.114095 99.951393 
L 749.471334 99.951393 
L 749.590414 100.084456 
L 749.709494 99.951393 
L 749.828573 100.084456 
L 750.066733 99.951393 
L 750.185813 99.951393 
L 750.185813 99.951393 
" clip-path="url(#pd70de44947)" style="fill: none; stroke: #1f77b4; stroke-width: 1.5; stroke-linecap: square"/>
   </g>
   <g id="patch_3">
    <path d="M 393.065812 311.6435 
L 393.065812 45.5315 
" style="fill: none; stroke: #000000; stroke-width: 0.8; stroke-linejoin: miter; stroke-linecap: square"/>
   </g>
   <g id="patch_4">
    <path d="M 750.185813 311.6435 
L 750.185813 45.5315 
" style="fill: none; stroke: #000000; stroke-width: 0.8; stroke-linejoin: miter; stroke-linecap: square"/>
   </g>
   <g id="patch_5">
    <path d="M 393.065812 311.6435 
L 750.185813 311.6435 
" style="fill: none; stroke: #000000; stroke-width: 0.8; stroke-linejoin: miter; stroke-linecap: square"/>
   </g>
   <g id="patch_6">
    <path d="M 393.065812 45.5315 
L 750.185813 45.5315 
" style="fill: none; stroke: #000000; stroke-width: 0.8; stroke-linejoin: miter; stroke-linecap: square"/>
   </g>
   <g id="text_18">
    <!-- Accuracy of the 09_07_25_CIFAR10_torch_model_(1024+8192-8192.1-1)_elk-horse on the validation set -->
    <g transform="translate(7.2 25.5315) scale(0.264 -0.264)">
     <defs>
      <path id="TimesNewRomanPSMT-68" d="M 1041 4444 
L 1041 2350 
Q 1388 2731 1591 2839 
Q 1794 2947 1997 2947 
Q 2241 2947 2416 2812 
Q 2591 2678 2675 2391 
Q 2734 2191 2734 1659 
L 2734 647 
Q 2734 375 2778 275 
Q 2809 200 2884 156 
Q 2959 113 3159 113 
L 3159 0 
L 1753 0 
L 1753 113 
L 1819 113 
Q 2019 113 2097 173 
Q 2175 234 2206 353 
Q 2216 403 2216 647 
L 2216 1659 
Q 2216 2128 2167 2275 
Q 2119 2422 2012 2495 
Q 1906 2569 1756 2569 
Q 1603 2569 1437 2487 
Q 1272 2406 1041 2159 
L 1041 647 
Q 1041 353 1073 281 
Q 1106 209 1195 161 
Q 1284 113 1503 113 
L 1503 0 
L 84 0 
L 84 113 
Q 275 113 384 172 
Q 447 203 484 290 
Q 522 378 522 647 
L 522 3238 
Q 522 3728 498 3840 
Q 475 3953 426 3993 
Q 378 4034 297 4034 
Q 231 4034 84 3984 
L 41 4094 
L 897 4444 
L 1041 4444 
z
" transform="scale(0.015625)"/>
      <path id="TimesNewRomanPSMT-5f" d="M 3256 -1381 
L -53 -1381 
L -53 -1119 
L 3256 -1119 
L 3256 -1381 
z
" transform="scale(0.015625)"/>
      <path id="TimesNewRomanPSMT-43" d="M 3853 4334 
L 3950 2894 
L 3853 2894 
Q 3659 3541 3300 3825 
Q 2941 4109 2438 4109 
Q 2016 4109 1675 3895 
Q 1334 3681 1139 3212 
Q 944 2744 944 2047 
Q 944 1472 1128 1050 
Q 1313 628 1683 403 
Q 2053 178 2528 178 
Q 2941 178 3256 354 
Q 3572 531 3950 1056 
L 4047 994 
Q 3728 428 3303 165 
Q 2878 -97 2294 -97 
Q 1241 -97 663 684 
Q 231 1266 231 2053 
Q 231 2688 515 3219 
Q 800 3750 1298 4042 
Q 1797 4334 2388 4334 
Q 2847 4334 3294 4109 
Q 3425 4041 3481 4041 
Q 3566 4041 3628 4100 
Q 3709 4184 3744 4334 
L 3853 4334 
z
" transform="scale(0.015625)"/>
      <path id="TimesNewRomanPSMT-49" d="M 1975 116 
L 1975 0 
L 159 0 
L 159 116 
L 309 116 
Q 572 116 691 269 
Q 766 369 766 750 
L 766 3488 
Q 766 3809 725 3913 
Q 694 3991 597 4047 
Q 459 4122 309 4122 
L 159 4122 
L 159 4238 
L 1975 4238 
L 1975 4122 
L 1822 4122 
Q 1563 4122 1444 3969 
Q 1366 3869 1366 3488 
L 1366 750 
Q 1366 428 1406 325 
Q 1438 247 1538 191 
Q 1672 116 1822 116 
L 1975 116 
z
" transform="scale(0.015625)"/>
      <path id="TimesNewRomanPSMT-46" d="M 1309 4006 
L 1309 2341 
L 2081 2341 
Q 2347 2341 2470 2458 
Q 2594 2575 2634 2922 
L 2750 2922 
L 2750 1488 
L 2634 1488 
Q 2631 1734 2570 1850 
Q 2509 1966 2401 2023 
Q 2294 2081 2081 2081 
L 1309 2081 
L 1309 750 
Q 1309 428 1350 325 
Q 1381 247 1481 191 
Q 1619 116 1769 116 
L 1922 116 
L 1922 0 
L 103 0 
L 103 116 
L 253 116 
Q 516 116 634 269 
Q 709 369 709 750 
L 709 3488 
Q 709 3809 669 3913 
Q 638 3991 541 4047 
Q 406 4122 253 4122 
L 103 4122 
L 103 4238 
L 3256 4238 
L 3297 3306 
L 3188 3306 
Q 3106 3603 2998 3742 
Q 2891 3881 2733 3943 
Q 2575 4006 2244 4006 
L 1309 4006 
z
" transform="scale(0.015625)"/>
      <path id="TimesNewRomanPSMT-52" d="M 4325 0 
L 3194 0 
L 1759 1981 
Q 1600 1975 1500 1975 
Q 1459 1975 1412 1976 
Q 1366 1978 1316 1981 
L 1316 750 
Q 1316 350 1403 253 
Q 1522 116 1759 116 
L 1925 116 
L 1925 0 
L 109 0 
L 109 116 
L 269 116 
Q 538 116 653 291 
Q 719 388 719 750 
L 719 3488 
Q 719 3888 631 3984 
Q 509 4122 269 4122 
L 109 4122 
L 109 4238 
L 1653 4238 
Q 2328 4238 2648 4139 
Q 2969 4041 3192 3777 
Q 3416 3513 3416 3147 
Q 3416 2756 3161 2468 
Q 2906 2181 2372 2063 
L 3247 847 
Q 3547 428 3762 290 
Q 3978 153 4325 116 
L 4325 0 
z
M 1316 2178 
Q 1375 2178 1419 2176 
Q 1463 2175 1491 2175 
Q 2097 2175 2405 2437 
Q 2713 2700 2713 3106 
Q 2713 3503 2464 3751 
Q 2216 4000 1806 4000 
Q 1625 4000 1316 3941 
L 1316 2178 
z
" transform="scale(0.015625)"/>
      <path id="TimesNewRomanPSMT-64" d="M 2222 322 
Q 2013 103 1813 7 
Q 1613 -88 1381 -88 
Q 913 -88 563 304 
Q 213 697 213 1313 
Q 213 1928 600 2439 
Q 988 2950 1597 2950 
Q 1975 2950 2222 2709 
L 2222 3238 
Q 2222 3728 2198 3840 
Q 2175 3953 2125 3993 
Q 2075 4034 2000 4034 
Q 1919 4034 1784 3984 
L 1744 4094 
L 2597 4444 
L 2738 4444 
L 2738 1134 
Q 2738 631 2761 520 
Q 2784 409 2836 365 
Q 2888 322 2956 322 
Q 3041 322 3181 375 
L 3216 266 
L 2366 -88 
L 2222 -88 
L 2222 322 
z
M 2222 541 
L 2222 2016 
Q 2203 2228 2109 2403 
Q 2016 2578 1861 2667 
Q 1706 2756 1559 2756 
Q 1284 2756 1069 2509 
Q 784 2184 784 1559 
Q 784 928 1059 592 
Q 1334 256 1672 256 
Q 1956 256 2222 541 
z
" transform="scale(0.015625)"/>
      <path id="TimesNewRomanPSMT-6c" d="M 1184 4444 
L 1184 647 
Q 1184 378 1223 290 
Q 1263 203 1344 158 
Q 1425 113 1647 113 
L 1647 0 
L 244 0 
L 244 113 
Q 441 113 512 153 
Q 584 194 625 287 
Q 666 381 666 647 
L 666 3247 
Q 666 3731 644 3842 
Q 622 3953 573 3993 
Q 525 4034 450 4034 
Q 369 4034 244 3984 
L 191 4094 
L 1044 4444 
L 1184 4444 
z
" transform="scale(0.015625)"/>
      <path id="TimesNewRomanPSMT-28" d="M 1988 -1253 
L 1988 -1369 
Q 1516 -1131 1200 -813 
Q 750 -359 506 256 
Q 263 872 263 1534 
Q 263 2503 741 3301 
Q 1219 4100 1988 4444 
L 1988 4313 
Q 1603 4100 1356 3731 
Q 1109 3363 987 2797 
Q 866 2231 866 1616 
Q 866 947 969 400 
Q 1050 -31 1165 -292 
Q 1281 -553 1476 -793 
Q 1672 -1034 1988 -1253 
z
" transform="scale(0.015625)"/>
      <path id="TimesNewRomanPSMT-2b" d="M 1672 441 
L 1672 2000 
L 116 2000 
L 116 2256 
L 1672 2256 
L 1672 3809 
L 1922 3809 
L 1922 2256 
L 3484 2256 
L 3484 2000 
L 1922 2000 
L 1922 441 
L 1672 441 
z
" transform="scale(0.015625)"/>
      <path id="TimesNewRomanPSMT-2d" d="M 259 1672 
L 1875 1672 
L 1875 1200 
L 259 1200 
L 259 1672 
z
" transform="scale(0.015625)"/>
      <path id="TimesNewRomanPSMT-29" d="M 144 4313 
L 144 4444 
Q 619 4209 934 3891 
Q 1381 3434 1625 2820 
Q 1869 2206 1869 1541 
Q 1869 572 1392 -226 
Q 916 -1025 144 -1369 
L 144 -1253 
Q 528 -1038 776 -670 
Q 1025 -303 1145 264 
Q 1266 831 1266 1447 
Q 1266 2113 1163 2663 
Q 1084 3094 967 3353 
Q 850 3613 656 3853 
Q 463 4094 144 4313 
z
" transform="scale(0.015625)"/>
      <path id="TimesNewRomanPSMT-6b" d="M 1047 4444 
L 1047 1594 
L 1775 2259 
Q 2006 2472 2044 2528 
Q 2069 2566 2069 2603 
Q 2069 2666 2017 2711 
Q 1966 2756 1847 2763 
L 1847 2863 
L 3091 2863 
L 3091 2763 
Q 2834 2756 2664 2684 
Q 2494 2613 2291 2428 
L 1556 1750 
L 2291 822 
Q 2597 438 2703 334 
Q 2853 188 2966 144 
Q 3044 113 3238 113 
L 3238 0 
L 1847 0 
L 1847 113 
Q 1966 116 2008 148 
Q 2050 181 2050 241 
Q 2050 313 1925 472 
L 1047 1594 
L 1047 644 
Q 1047 366 1086 278 
Q 1125 191 1197 153 
Q 1269 116 1509 113 
L 1509 0 
L 53 0 
L 53 113 
Q 272 113 381 166 
Q 447 200 481 272 
Q 528 375 528 628 
L 528 3234 
Q 528 3731 506 3842 
Q 484 3953 434 3995 
Q 384 4038 303 4038 
Q 238 4038 106 3984 
L 53 4094 
L 903 4444 
L 1047 4444 
z
" transform="scale(0.015625)"/>
      <path id="TimesNewRomanPSMT-76" d="M 53 2863 
L 1400 2863 
L 1400 2747 
L 1313 2747 
Q 1191 2747 1127 2687 
Q 1063 2628 1063 2528 
Q 1063 2419 1128 2269 
L 1794 688 
L 2463 2328 
Q 2534 2503 2534 2594 
Q 2534 2638 2509 2666 
Q 2475 2713 2422 2730 
Q 2369 2747 2206 2747 
L 2206 2863 
L 3141 2863 
L 3141 2747 
Q 2978 2734 2916 2681 
Q 2806 2588 2719 2369 
L 1703 -88 
L 1575 -88 
L 553 2328 
Q 484 2497 421 2570 
Q 359 2644 263 2694 
Q 209 2722 53 2747 
L 53 2863 
z
" transform="scale(0.015625)"/>
     </defs>
     <use xlink:href="#TimesNewRomanPSMT-41"/>
     <use xlink:href="#TimesNewRomanPSMT-63" transform="translate(72.216797 0)"/>
     <use xlink:href="#TimesNewRomanPSMT-63" transform="translate(116.601562 0)"/>
     <use xlink:href="#TimesNewRomanPSMT-75" transform="translate(160.986328 0)"/>
     <use xlink:href="#TimesNewRomanPSMT-72" transform="translate(210.986328 0)"/>
     <use xlink:href="#TimesNewRomanPSMT-61" transform="translate(244.287109 0)"/>
     <use xlink:href="#TimesNewRomanPSMT-63" transform="translate(288.671875 0)"/>
     <use xlink:href="#TimesNewRomanPSMT-79" transform="translate(333.056641 0)"/>
     <use xlink:href="#TimesNewRomanPSMT-20" transform="translate(383.056641 0)"/>
     <use xlink:href="#TimesNewRomanPSMT-6f" transform="translate(408.056641 0)"/>
     <use xlink:href="#TimesNewRomanPSMT-66" transform="translate(458.056641 0)"/>
     <use xlink:href="#TimesNewRomanPSMT-20" transform="translate(491.357422 0)"/>
     <use xlink:href="#TimesNewRomanPSMT-74" transform="translate(516.357422 0)"/>
     <use xlink:href="#TimesNewRomanPSMT-68" transform="translate(544.140625 0)"/>
     <use xlink:href="#TimesNewRomanPSMT-65" transform="translate(594.140625 0)"/>
     <use xlink:href="#TimesNewRomanPSMT-20" transform="translate(638.525391 0)"/>
     <use xlink:href="#TimesNewRomanPSMT-30" transform="translate(663.525391 0)"/>
     <use xlink:href="#TimesNewRomanPSMT-39" transform="translate(713.525391 0)"/>
     <use xlink:href="#TimesNewRomanPSMT-5f" transform="translate(763.525391 0)"/>
     <use xlink:href="#TimesNewRomanPSMT-30" transform="translate(813.525391 0)"/>
     <use xlink:href="#TimesNewRomanPSMT-37" transform="translate(863.525391 0)"/>
     <use xlink:href="#TimesNewRomanPSMT-5f" transform="translate(913.525391 0)"/>
     <use xlink:href="#TimesNewRomanPSMT-32" transform="translate(963.525391 0)"/>
     <use xlink:href="#TimesNewRomanPSMT-35" transform="translate(1013.525391 0)"/>
     <use xlink:href="#TimesNewRomanPSMT-5f" transform="translate(1063.525391 0)"/>
     <use xlink:href="#TimesNewRomanPSMT-43" transform="translate(1113.525391 0)"/>
     <use xlink:href="#TimesNewRomanPSMT-49" transform="translate(1180.224609 0)"/>
     <use xlink:href="#TimesNewRomanPSMT-46" transform="translate(1213.525391 0)"/>
     <use xlink:href="#TimesNewRomanPSMT-41" transform="translate(1261.765625 0)"/>
     <use xlink:href="#TimesNewRomanPSMT-52" transform="translate(1333.982422 0)"/>
     <use xlink:href="#TimesNewRomanPSMT-31" transform="translate(1400.681641 0)"/>
     <use xlink:href="#TimesNewRomanPSMT-30" transform="translate(1450.681641 0)"/>
     <use xlink:href="#TimesNewRomanPSMT-5f" transform="translate(1500.681641 0)"/>
     <use xlink:href="#TimesNewRomanPSMT-74" transform="translate(1550.681641 0)"/>
     <use xlink:href="#TimesNewRomanPSMT-6f" transform="translate(1578.464844 0)"/>
     <use xlink:href="#TimesNewRomanPSMT-72" transform="translate(1628.464844 0)"/>
     <use xlink:href="#TimesNewRomanPSMT-63" transform="translate(1661.765625 0)"/>
     <use xlink:href="#TimesNewRomanPSMT-68" transform="translate(1706.150391 0)"/>
     <use xlink:href="#TimesNewRomanPSMT-5f" transform="translate(1756.150391 0)"/>
     <use xlink:href="#TimesNewRomanPSMT-6d" transform="translate(1806.150391 0)"/>
     <use xlink:href="#TimesNewRomanPSMT-6f" transform="translate(1883.933594 0)"/>
     <use xlink:href="#TimesNewRomanPSMT-64" transform="translate(1933.933594 0)"/>
     <use xlink:href="#TimesNewRomanPSMT-65" transform="translate(1983.933594 0)"/>
     <use xlink:href="#TimesNewRomanPSMT-6c" transform="translate(2028.318359 0)"/>
     <use xlink:href="#TimesNewRomanPSMT-5f" transform="translate(2056.101562 0)"/>
     <use xlink:href="#TimesNewRomanPSMT-28" transform="translate(2106.101562 0)"/>
     <use xlink:href="#TimesNewRomanPSMT-31" transform="translate(2139.402344 0)"/>
     <use xlink:href="#TimesNewRomanPSMT-30" transform="translate(2189.402344 0)"/>
     <use xlink:href="#TimesNewRomanPSMT-32" transform="translate(2239.402344 0)"/>
     <use xlink:href="#TimesNewRomanPSMT-34" transform="translate(2289.402344 0)"/>
     <use xlink:href="#TimesNewRomanPSMT-2b" transform="translate(2339.402344 0)"/>
     <use xlink:href="#TimesNewRomanPSMT-38" transform="translate(2395.798828 0)"/>
     <use xlink:href="#TimesNewRomanPSMT-31" transform="translate(2445.798828 0)"/>
     <use xlink:href="#TimesNewRomanPSMT-39" transform="translate(2495.798828 0)"/>
     <use xlink:href="#TimesNewRomanPSMT-32" transform="translate(2545.798828 0)"/>
     <use xlink:href="#TimesNewRomanPSMT-2d" transform="translate(2595.798828 0)"/>
     <use xlink:href="#TimesNewRomanPSMT-38" transform="translate(2629.099609 0)"/>
     <use xlink:href="#TimesNewRomanPSMT-31" transform="translate(2679.099609 0)"/>
     <use xlink:href="#TimesNewRomanPSMT-39" transform="translate(2729.099609 0)"/>
     <use xlink:href="#TimesNewRomanPSMT-32" transform="translate(2779.099609 0)"/>
     <use xlink:href="#TimesNewRomanPSMT-2e" transform="translate(2829.099609 0)"/>
     <use xlink:href="#TimesNewRomanPSMT-31" transform="translate(2854.099609 0)"/>
     <use xlink:href="#TimesNewRomanPSMT-2d" transform="translate(2904.099609 0)"/>
     <use xlink:href="#TimesNewRomanPSMT-31" transform="translate(2937.400391 0)"/>
     <use xlink:href="#TimesNewRomanPSMT-29" transform="translate(2987.400391 0)"/>
     <use xlink:href="#TimesNewRomanPSMT-5f" transform="translate(3020.701172 0)"/>
     <use xlink:href="#TimesNewRomanPSMT-65" transform="translate(3070.701172 0)"/>
     <use xlink:href="#TimesNewRomanPSMT-6c" transform="translate(3115.085938 0)"/>
     <use xlink:href="#TimesNewRomanPSMT-6b" transform="translate(3142.869141 0)"/>
     <use xlink:href="#TimesNewRomanPSMT-2d" transform="translate(3192.869141 0)"/>
     <use xlink:href="#TimesNewRomanPSMT-68" transform="translate(3226.169922 0)"/>
     <use xlink:href="#TimesNewRomanPSMT-6f" transform="translate(3276.169922 0)"/>
     <use xlink:href="#TimesNewRomanPSMT-72" transform="translate(3326.169922 0)"/>
     <use xlink:href="#TimesNewRomanPSMT-73" transform="translate(3359.470703 0)"/>
     <use xlink:href="#TimesNewRomanPSMT-65" transform="translate(3398.386719 0)"/>
     <use xlink:href="#TimesNewRomanPSMT-20" transform="translate(3442.771484 0)"/>
     <use xlink:href="#TimesNewRomanPSMT-6f" transform="translate(3467.771484 0)"/>
     <use xlink:href="#TimesNewRomanPSMT-6e" transform="translate(3517.771484 0)"/>
     <use xlink:href="#TimesNewRomanPSMT-20" transform="translate(3567.771484 0)"/>
     <use xlink:href="#TimesNewRomanPSMT-74" transform="translate(3592.771484 0)"/>
     <use xlink:href="#TimesNewRomanPSMT-68" transform="translate(3620.554688 0)"/>
     <use xlink:href="#TimesNewRomanPSMT-65" transform="translate(3670.554688 0)"/>
     <use xlink:href="#TimesNewRomanPSMT-20" transform="translate(3714.939453 0)"/>
     <use xlink:href="#TimesNewRomanPSMT-76" transform="translate(3739.939453 0)"/>
     <use xlink:href="#TimesNewRomanPSMT-61" transform="translate(3789.939453 0)"/>
     <use xlink:href="#TimesNewRomanPSMT-6c" transform="translate(3834.324219 0)"/>
     <use xlink:href="#TimesNewRomanPSMT-69" transform="translate(3862.107422 0)"/>
     <use xlink:href="#TimesNewRomanPSMT-64" transform="translate(3889.890625 0)"/>
     <use xlink:href="#TimesNewRomanPSMT-61" transform="translate(3939.890625 0)"/>
     <use xlink:href="#TimesNewRomanPSMT-74" transform="translate(3984.275391 0)"/>
     <use xlink:href="#TimesNewRomanPSMT-69" transform="translate(4012.058594 0)"/>
     <use xlink:href="#TimesNewRomanPSMT-6f" transform="translate(4039.841797 0)"/>
     <use xlink:href="#TimesNewRomanPSMT-6e" transform="translate(4089.841797 0)"/>
     <use xlink:href="#TimesNewRomanPSMT-20" transform="translate(4139.841797 0)"/>
     <use xlink:href="#TimesNewRomanPSMT-73" transform="translate(4164.841797 0)"/>
     <use xlink:href="#TimesNewRomanPSMT-65" transform="translate(4203.757812 0)"/>
     <use xlink:href="#TimesNewRomanPSMT-74" transform="translate(4248.142578 0)"/>
    </g>
   </g>
   <g id="legend_1">
    <g id="patch_7">
     <path d="M 508.6155 94.278687 
L 734.785813 94.278687 
Q 739.185813 94.278687 739.185813 89.878687 
L 739.185813 60.9315 
Q 739.185813 56.5315 734.785813 56.5315 
L 508.6155 56.5315 
Q 504.2155 56.5315 504.2155 60.9315 
L 504.2155 89.878687 
Q 504.2155 94.278687 508.6155 94.278687 
z
" style="fill: #ffffff; opacity: 0.8; stroke: #cccccc; stroke-linejoin: miter"/>
    </g>
    <g id="line2d_32">
     <path d="M 513.0155 73.0315 
L 535.0155 73.0315 
L 557.0155 73.0315 
" style="fill: none; stroke: #1f77b4; stroke-width: 1.5; stroke-linecap: square"/>
    </g>
    <g id="text_19">
     <!-- Best accuracy 0.8 -->
     <g transform="translate(574.6155 80.7315) scale(0.22 -0.22)">
      <defs>
       <path id="TimesNewRomanPSMT-42" d="M 2956 2163 
Q 3397 2069 3616 1863 
Q 3919 1575 3919 1159 
Q 3919 844 3719 555 
Q 3519 266 3170 133 
Q 2822 0 2106 0 
L 106 0 
L 106 116 
L 266 116 
Q 531 116 647 284 
Q 719 394 719 750 
L 719 3488 
Q 719 3881 628 3984 
Q 506 4122 266 4122 
L 106 4122 
L 106 4238 
L 1938 4238 
Q 2450 4238 2759 4163 
Q 3228 4050 3475 3764 
Q 3722 3478 3722 3106 
Q 3722 2788 3528 2536 
Q 3334 2284 2956 2163 
z
M 1319 2331 
Q 1434 2309 1582 2298 
Q 1731 2288 1909 2288 
Q 2366 2288 2595 2386 
Q 2825 2484 2947 2687 
Q 3069 2891 3069 3131 
Q 3069 3503 2766 3765 
Q 2463 4028 1881 4028 
Q 1569 4028 1319 3959 
L 1319 2331 
z
M 1319 306 
Q 1681 222 2034 222 
Q 2600 222 2897 476 
Q 3194 731 3194 1106 
Q 3194 1353 3059 1581 
Q 2925 1809 2622 1940 
Q 2319 2072 1872 2072 
Q 1678 2072 1540 2065 
Q 1403 2059 1319 2044 
L 1319 306 
z
" transform="scale(0.015625)"/>
      </defs>
      <use xlink:href="#TimesNewRomanPSMT-42"/>
      <use xlink:href="#TimesNewRomanPSMT-65" transform="translate(66.699219 0)"/>
      <use xlink:href="#TimesNewRomanPSMT-73" transform="translate(111.083984 0)"/>
      <use xlink:href="#TimesNewRomanPSMT-74" transform="translate(150 0)"/>
      <use xlink:href="#TimesNewRomanPSMT-20" transform="translate(177.783203 0)"/>
      <use xlink:href="#TimesNewRomanPSMT-61" transform="translate(202.783203 0)"/>
      <use xlink:href="#TimesNewRomanPSMT-63" transform="translate(247.167969 0)"/>
      <use xlink:href="#TimesNewRomanPSMT-63" transform="translate(291.552734 0)"/>
      <use xlink:href="#TimesNewRomanPSMT-75" transform="translate(335.9375 0)"/>
      <use xlink:href="#TimesNewRomanPSMT-72" transform="translate(385.9375 0)"/>
      <use xlink:href="#TimesNewRomanPSMT-61" transform="translate(419.238281 0)"/>
      <use xlink:href="#TimesNewRomanPSMT-63" transform="translate(463.623047 0)"/>
      <use xlink:href="#TimesNewRomanPSMT-79" transform="translate(508.007812 0)"/>
      <use xlink:href="#TimesNewRomanPSMT-20" transform="translate(558.007812 0)"/>
      <use xlink:href="#TimesNewRomanPSMT-30" transform="translate(583.007812 0)"/>
      <use xlink:href="#TimesNewRomanPSMT-2e" transform="translate(633.007812 0)"/>
      <use xlink:href="#TimesNewRomanPSMT-38" transform="translate(658.007812 0)"/>
     </g>
    </g>
   </g>
  </g>
 </g>
 <defs>
  <clipPath id="pd70de44947">
   <rect x="393.065812" y="45.5315" width="357.12" height="266.112"/>
  </clipPath>
 </defs>
</svg>
