<?xml version="1.0" encoding="utf-8" standalone="no"?>
<!DOCTYPE svg PUBLIC "-//W3C//DTD SVG 1.1//EN"
  "http://www.w3.org/Graphics/SVG/1.1/DTD/svg11.dtd">
<svg xmlns:xlink="http://www.w3.org/1999/xlink" width="1087.758pt" height="369.807875pt" viewBox="0 0 1087.758 369.807875" xmlns="http://www.w3.org/2000/svg" version="1.1">
 <metadata>
  <rdf:RDF xmlns:dc="http://purl.org/dc/elements/1.1/" xmlns:cc="http://creativecommons.org/ns#" xmlns:rdf="http://www.w3.org/1999/02/22-rdf-syntax-ns#">
   <cc:Work>
    <dc:type rdf:resource="http://purl.org/dc/dcmitype/StillImage"/>
    <dc:date>2025-07-10T23:01:19.350065</dc:date>
    <dc:format>image/svg+xml</dc:format>
    <dc:creator>
     <cc:Agent>
      <dc:title>Matplotlib v3.10.1, https://matplotlib.org/</dc:title>
     </cc:Agent>
    </dc:creator>
   </cc:Work>
  </rdf:RDF>
 </metadata>
 <defs>
  <style type="text/css">*{stroke-linejoin: round; stroke-linecap: butt}</style>
 </defs>
 <g id="figure_1">
  <g id="patch_1">
   <path d="M -0 369.807875 
L 1087.758 369.807875 
L 1087.758 0 
L -0 0 
z
" style="fill: #ffffff"/>
  </g>
  <g id="axes_1">
   <g id="patch_2">
    <path d="M 365.319 311.6435 
L 722.439 311.6435 
L 722.439 45.5315 
L 365.319 45.5315 
z
" style="fill: #ffffff"/>
   </g>
   <g id="matplotlib.axis_1">
    <g id="xtick_1">
     <g id="line2d_1">
      <path d="M 365.319 311.6435 
L 365.319 45.5315 
" clip-path="url(#p3afc3bf7f3)" style="fill: none; stroke: #b0b0b0; stroke-opacity: 0.3; stroke-width: 0.8; stroke-linecap: square"/>
     </g>
     <g id="line2d_2">
      <defs>
       <path id="m17be818254" d="M 0 0 
L 0 3.5 
" style="stroke: #000000; stroke-width: 0.8"/>
      </defs>
      <g>
       <use xlink:href="#m17be818254" x="365.319" y="311.6435" style="stroke: #000000; stroke-width: 0.8"/>
      </g>
     </g>
     <g id="text_1">
      <!-- 0 -->
      <g transform="translate(359.819 333.91975) scale(0.22 -0.22)">
       <defs>
        <path id="TimesNewRomanPSMT-30" d="M 231 2094 
Q 231 2819 450 3342 
Q 669 3866 1031 4122 
Q 1313 4325 1613 4325 
Q 2100 4325 2488 3828 
Q 2972 3213 2972 2159 
Q 2972 1422 2759 906 
Q 2547 391 2217 158 
Q 1888 -75 1581 -75 
Q 975 -75 572 641 
Q 231 1244 231 2094 
z
M 844 2016 
Q 844 1141 1059 588 
Q 1238 122 1591 122 
Q 1759 122 1940 273 
Q 2122 425 2216 781 
Q 2359 1319 2359 2297 
Q 2359 3022 2209 3506 
Q 2097 3866 1919 4016 
Q 1791 4119 1609 4119 
Q 1397 4119 1231 3928 
Q 1006 3669 925 3112 
Q 844 2556 844 2016 
z
" transform="scale(0.015625)"/>
       </defs>
       <use xlink:href="#TimesNewRomanPSMT-30"/>
      </g>
     </g>
    </g>
    <g id="xtick_2">
     <g id="line2d_3">
      <path d="M 460.551 311.6435 
L 460.551 45.5315 
" clip-path="url(#p3afc3bf7f3)" style="fill: none; stroke: #b0b0b0; stroke-opacity: 0.3; stroke-width: 0.8; stroke-linecap: square"/>
     </g>
     <g id="line2d_4">
      <g>
       <use xlink:href="#m17be818254" x="460.551" y="311.6435" style="stroke: #000000; stroke-width: 0.8"/>
      </g>
     </g>
     <g id="text_2">
      <!-- 20000 -->
      <g transform="translate(433.051 333.91975) scale(0.22 -0.22)">
       <defs>
        <path id="TimesNewRomanPSMT-32" d="M 2934 816 
L 2638 0 
L 138 0 
L 138 116 
Q 1241 1122 1691 1759 
Q 2141 2397 2141 2925 
Q 2141 3328 1894 3587 
Q 1647 3847 1303 3847 
Q 991 3847 742 3664 
Q 494 3481 375 3128 
L 259 3128 
Q 338 3706 661 4015 
Q 984 4325 1469 4325 
Q 1984 4325 2329 3994 
Q 2675 3663 2675 3213 
Q 2675 2891 2525 2569 
Q 2294 2063 1775 1497 
Q 997 647 803 472 
L 1909 472 
Q 2247 472 2383 497 
Q 2519 522 2628 598 
Q 2738 675 2819 816 
L 2934 816 
z
" transform="scale(0.015625)"/>
       </defs>
       <use xlink:href="#TimesNewRomanPSMT-32"/>
       <use xlink:href="#TimesNewRomanPSMT-30" transform="translate(50 0)"/>
       <use xlink:href="#TimesNewRomanPSMT-30" transform="translate(100 0)"/>
       <use xlink:href="#TimesNewRomanPSMT-30" transform="translate(150 0)"/>
       <use xlink:href="#TimesNewRomanPSMT-30" transform="translate(200 0)"/>
      </g>
     </g>
    </g>
    <g id="xtick_3">
     <g id="line2d_5">
      <path d="M 555.783 311.6435 
L 555.783 45.5315 
" clip-path="url(#p3afc3bf7f3)" style="fill: none; stroke: #b0b0b0; stroke-opacity: 0.3; stroke-width: 0.8; stroke-linecap: square"/>
     </g>
     <g id="line2d_6">
      <g>
       <use xlink:href="#m17be818254" x="555.783" y="311.6435" style="stroke: #000000; stroke-width: 0.8"/>
      </g>
     </g>
     <g id="text_3">
      <!-- 40000 -->
      <g transform="translate(528.283 333.91975) scale(0.22 -0.22)">
       <defs>
        <path id="TimesNewRomanPSMT-34" d="M 2978 1563 
L 2978 1119 
L 2409 1119 
L 2409 0 
L 1894 0 
L 1894 1119 
L 100 1119 
L 100 1519 
L 2066 4325 
L 2409 4325 
L 2409 1563 
L 2978 1563 
z
M 1894 1563 
L 1894 3666 
L 406 1563 
L 1894 1563 
z
" transform="scale(0.015625)"/>
       </defs>
       <use xlink:href="#TimesNewRomanPSMT-34"/>
       <use xlink:href="#TimesNewRomanPSMT-30" transform="translate(50 0)"/>
       <use xlink:href="#TimesNewRomanPSMT-30" transform="translate(100 0)"/>
       <use xlink:href="#TimesNewRomanPSMT-30" transform="translate(150 0)"/>
       <use xlink:href="#TimesNewRomanPSMT-30" transform="translate(200 0)"/>
      </g>
     </g>
    </g>
    <g id="xtick_4">
     <g id="line2d_7">
      <path d="M 651.015 311.6435 
L 651.015 45.5315 
" clip-path="url(#p3afc3bf7f3)" style="fill: none; stroke: #b0b0b0; stroke-opacity: 0.3; stroke-width: 0.8; stroke-linecap: square"/>
     </g>
     <g id="line2d_8">
      <g>
       <use xlink:href="#m17be818254" x="651.015" y="311.6435" style="stroke: #000000; stroke-width: 0.8"/>
      </g>
     </g>
     <g id="text_4">
      <!-- 60000 -->
      <g transform="translate(623.515 333.91975) scale(0.22 -0.22)">
       <defs>
        <path id="TimesNewRomanPSMT-36" d="M 2869 4325 
L 2869 4209 
Q 2456 4169 2195 4045 
Q 1934 3922 1679 3669 
Q 1425 3416 1258 3105 
Q 1091 2794 978 2366 
Q 1428 2675 1881 2675 
Q 2316 2675 2634 2325 
Q 2953 1975 2953 1425 
Q 2953 894 2631 456 
Q 2244 -75 1606 -75 
Q 1172 -75 869 213 
Q 275 772 275 1663 
Q 275 2231 503 2743 
Q 731 3256 1154 3653 
Q 1578 4050 1965 4187 
Q 2353 4325 2688 4325 
L 2869 4325 
z
M 925 2138 
Q 869 1716 869 1456 
Q 869 1156 980 804 
Q 1091 453 1309 247 
Q 1469 100 1697 100 
Q 1969 100 2183 356 
Q 2397 613 2397 1088 
Q 2397 1622 2184 2012 
Q 1972 2403 1581 2403 
Q 1463 2403 1327 2353 
Q 1191 2303 925 2138 
z
" transform="scale(0.015625)"/>
       </defs>
       <use xlink:href="#TimesNewRomanPSMT-36"/>
       <use xlink:href="#TimesNewRomanPSMT-30" transform="translate(50 0)"/>
       <use xlink:href="#TimesNewRomanPSMT-30" transform="translate(100 0)"/>
       <use xlink:href="#TimesNewRomanPSMT-30" transform="translate(150 0)"/>
       <use xlink:href="#TimesNewRomanPSMT-30" transform="translate(200 0)"/>
      </g>
     </g>
    </g>
    <g id="text_5">
     <!-- Number of iterations -->
     <g transform="translate(452.236969 357.901937) scale(0.22 -0.22)">
      <defs>
       <path id="TimesNewRomanPSMT-4e" d="M -84 4238 
L 1066 4238 
L 3656 1059 
L 3656 3503 
Q 3656 3894 3569 3991 
Q 3453 4122 3203 4122 
L 3056 4122 
L 3056 4238 
L 4531 4238 
L 4531 4122 
L 4381 4122 
Q 4113 4122 4000 3959 
Q 3931 3859 3931 3503 
L 3931 -69 
L 3819 -69 
L 1025 3344 
L 1025 734 
Q 1025 344 1109 247 
Q 1228 116 1475 116 
L 1625 116 
L 1625 0 
L 150 0 
L 150 116 
L 297 116 
Q 569 116 681 278 
Q 750 378 750 734 
L 750 3681 
Q 566 3897 470 3965 
Q 375 4034 191 4094 
Q 100 4122 -84 4122 
L -84 4238 
z
" transform="scale(0.015625)"/>
       <path id="TimesNewRomanPSMT-75" d="M 2709 2863 
L 2709 1128 
Q 2709 631 2732 520 
Q 2756 409 2807 365 
Q 2859 322 2928 322 
Q 3025 322 3147 375 
L 3191 266 
L 2334 -88 
L 2194 -88 
L 2194 519 
Q 1825 119 1631 15 
Q 1438 -88 1222 -88 
Q 981 -88 804 51 
Q 628 191 559 409 
Q 491 628 491 1028 
L 491 2306 
Q 491 2509 447 2587 
Q 403 2666 317 2708 
Q 231 2750 6 2747 
L 6 2863 
L 1009 2863 
L 1009 947 
Q 1009 547 1148 422 
Q 1288 297 1484 297 
Q 1619 297 1789 381 
Q 1959 466 2194 703 
L 2194 2325 
Q 2194 2569 2105 2655 
Q 2016 2741 1734 2747 
L 1734 2863 
L 2709 2863 
z
" transform="scale(0.015625)"/>
       <path id="TimesNewRomanPSMT-6d" d="M 1050 2338 
Q 1363 2650 1419 2697 
Q 1559 2816 1721 2881 
Q 1884 2947 2044 2947 
Q 2313 2947 2506 2790 
Q 2700 2634 2766 2338 
Q 3088 2713 3309 2830 
Q 3531 2947 3766 2947 
Q 3994 2947 4170 2830 
Q 4347 2713 4450 2447 
Q 4519 2266 4519 1878 
L 4519 647 
Q 4519 378 4559 278 
Q 4591 209 4675 161 
Q 4759 113 4950 113 
L 4950 0 
L 3538 0 
L 3538 113 
L 3597 113 
Q 3781 113 3884 184 
Q 3956 234 3988 344 
Q 4000 397 4000 647 
L 4000 1878 
Q 4000 2228 3916 2372 
Q 3794 2572 3525 2572 
Q 3359 2572 3192 2489 
Q 3025 2406 2788 2181 
L 2781 2147 
L 2788 2013 
L 2788 647 
Q 2788 353 2820 281 
Q 2853 209 2943 161 
Q 3034 113 3253 113 
L 3253 0 
L 1806 0 
L 1806 113 
Q 2044 113 2133 169 
Q 2222 225 2256 338 
Q 2272 391 2272 647 
L 2272 1878 
Q 2272 2228 2169 2381 
Q 2031 2581 1784 2581 
Q 1616 2581 1450 2491 
Q 1191 2353 1050 2181 
L 1050 647 
Q 1050 366 1089 281 
Q 1128 197 1204 155 
Q 1281 113 1516 113 
L 1516 0 
L 100 0 
L 100 113 
Q 297 113 375 155 
Q 453 197 493 289 
Q 534 381 534 647 
L 534 1741 
Q 534 2213 506 2350 
Q 484 2453 437 2492 
Q 391 2531 309 2531 
Q 222 2531 100 2484 
L 53 2597 
L 916 2947 
L 1050 2947 
L 1050 2338 
z
" transform="scale(0.015625)"/>
       <path id="TimesNewRomanPSMT-62" d="M 984 2369 
Q 1400 2947 1881 2947 
Q 2322 2947 2650 2570 
Q 2978 2194 2978 1541 
Q 2978 778 2472 313 
Q 2038 -88 1503 -88 
Q 1253 -88 995 3 
Q 738 94 469 275 
L 469 3241 
Q 469 3728 445 3840 
Q 422 3953 372 3993 
Q 322 4034 247 4034 
Q 159 4034 28 3984 
L -16 4094 
L 844 4444 
L 984 4444 
L 984 2369 
z
M 984 2169 
L 984 456 
Q 1144 300 1314 220 
Q 1484 141 1663 141 
Q 1947 141 2192 453 
Q 2438 766 2438 1363 
Q 2438 1913 2192 2208 
Q 1947 2503 1634 2503 
Q 1469 2503 1303 2419 
Q 1178 2356 984 2169 
z
" transform="scale(0.015625)"/>
       <path id="TimesNewRomanPSMT-65" d="M 681 1784 
Q 678 1147 991 784 
Q 1303 422 1725 422 
Q 2006 422 2214 576 
Q 2422 731 2563 1106 
L 2659 1044 
Q 2594 616 2278 264 
Q 1963 -88 1488 -88 
Q 972 -88 605 314 
Q 238 716 238 1394 
Q 238 2128 614 2539 
Q 991 2950 1559 2950 
Q 2041 2950 2350 2633 
Q 2659 2316 2659 1784 
L 681 1784 
z
M 681 1966 
L 2006 1966 
Q 1991 2241 1941 2353 
Q 1863 2528 1708 2628 
Q 1553 2728 1384 2728 
Q 1125 2728 920 2526 
Q 716 2325 681 1966 
z
" transform="scale(0.015625)"/>
       <path id="TimesNewRomanPSMT-72" d="M 1038 2947 
L 1038 2303 
Q 1397 2947 1775 2947 
Q 1947 2947 2059 2842 
Q 2172 2738 2172 2600 
Q 2172 2478 2090 2393 
Q 2009 2309 1897 2309 
Q 1788 2309 1652 2417 
Q 1516 2525 1450 2525 
Q 1394 2525 1328 2463 
Q 1188 2334 1038 2041 
L 1038 669 
Q 1038 431 1097 309 
Q 1138 225 1241 169 
Q 1344 113 1538 113 
L 1538 0 
L 72 0 
L 72 113 
Q 291 113 397 181 
Q 475 231 506 341 
Q 522 394 522 644 
L 522 1753 
Q 522 2253 501 2348 
Q 481 2444 426 2487 
Q 372 2531 291 2531 
Q 194 2531 72 2484 
L 41 2597 
L 906 2947 
L 1038 2947 
z
" transform="scale(0.015625)"/>
       <path id="TimesNewRomanPSMT-20" transform="scale(0.015625)"/>
       <path id="TimesNewRomanPSMT-6f" d="M 1600 2947 
Q 2250 2947 2644 2453 
Q 2978 2031 2978 1484 
Q 2978 1100 2793 706 
Q 2609 313 2286 112 
Q 1963 -88 1566 -88 
Q 919 -88 538 428 
Q 216 863 216 1403 
Q 216 1797 411 2186 
Q 606 2575 925 2761 
Q 1244 2947 1600 2947 
z
M 1503 2744 
Q 1338 2744 1170 2645 
Q 1003 2547 900 2300 
Q 797 2053 797 1666 
Q 797 1041 1045 587 
Q 1294 134 1700 134 
Q 2003 134 2200 384 
Q 2397 634 2397 1244 
Q 2397 2006 2069 2444 
Q 1847 2744 1503 2744 
z
" transform="scale(0.015625)"/>
       <path id="TimesNewRomanPSMT-66" d="M 1319 2638 
L 1319 756 
Q 1319 356 1406 250 
Q 1522 113 1716 113 
L 1975 113 
L 1975 0 
L 266 0 
L 266 113 
L 394 113 
Q 519 113 622 175 
Q 725 238 764 344 
Q 803 450 803 756 
L 803 2638 
L 247 2638 
L 247 2863 
L 803 2863 
L 803 3050 
Q 803 3478 940 3775 
Q 1078 4072 1361 4255 
Q 1644 4438 1997 4438 
Q 2325 4438 2600 4225 
Q 2781 4084 2781 3909 
Q 2781 3816 2700 3733 
Q 2619 3650 2525 3650 
Q 2453 3650 2373 3701 
Q 2294 3753 2178 3923 
Q 2063 4094 1966 4153 
Q 1869 4213 1750 4213 
Q 1606 4213 1506 4136 
Q 1406 4059 1362 3898 
Q 1319 3738 1319 3069 
L 1319 2863 
L 2056 2863 
L 2056 2638 
L 1319 2638 
z
" transform="scale(0.015625)"/>
       <path id="TimesNewRomanPSMT-69" d="M 928 4444 
Q 1059 4444 1151 4351 
Q 1244 4259 1244 4128 
Q 1244 3997 1151 3903 
Q 1059 3809 928 3809 
Q 797 3809 703 3903 
Q 609 3997 609 4128 
Q 609 4259 701 4351 
Q 794 4444 928 4444 
z
M 1188 2947 
L 1188 647 
Q 1188 378 1227 289 
Q 1266 200 1342 156 
Q 1419 113 1622 113 
L 1622 0 
L 231 0 
L 231 113 
Q 441 113 512 153 
Q 584 194 626 287 
Q 669 381 669 647 
L 669 1750 
Q 669 2216 641 2353 
Q 619 2453 572 2492 
Q 525 2531 444 2531 
Q 356 2531 231 2484 
L 188 2597 
L 1050 2947 
L 1188 2947 
z
" transform="scale(0.015625)"/>
       <path id="TimesNewRomanPSMT-74" d="M 1031 3803 
L 1031 2863 
L 1700 2863 
L 1700 2644 
L 1031 2644 
L 1031 788 
Q 1031 509 1111 412 
Q 1191 316 1316 316 
Q 1419 316 1516 380 
Q 1613 444 1666 569 
L 1788 569 
Q 1678 263 1478 108 
Q 1278 -47 1066 -47 
Q 922 -47 784 33 
Q 647 113 581 261 
Q 516 409 516 719 
L 516 2644 
L 63 2644 
L 63 2747 
Q 234 2816 414 2980 
Q 594 3144 734 3369 
Q 806 3488 934 3803 
L 1031 3803 
z
" transform="scale(0.015625)"/>
       <path id="TimesNewRomanPSMT-61" d="M 1822 413 
Q 1381 72 1269 19 
Q 1100 -59 909 -59 
Q 613 -59 420 144 
Q 228 347 228 678 
Q 228 888 322 1041 
Q 450 1253 767 1440 
Q 1084 1628 1822 1897 
L 1822 2009 
Q 1822 2438 1686 2597 
Q 1550 2756 1291 2756 
Q 1094 2756 978 2650 
Q 859 2544 859 2406 
L 866 2225 
Q 866 2081 792 2003 
Q 719 1925 600 1925 
Q 484 1925 411 2006 
Q 338 2088 338 2228 
Q 338 2497 613 2722 
Q 888 2947 1384 2947 
Q 1766 2947 2009 2819 
Q 2194 2722 2281 2516 
Q 2338 2381 2338 1966 
L 2338 994 
Q 2338 584 2353 492 
Q 2369 400 2405 369 
Q 2441 338 2488 338 
Q 2538 338 2575 359 
Q 2641 400 2828 588 
L 2828 413 
Q 2478 -56 2159 -56 
Q 2006 -56 1915 50 
Q 1825 156 1822 413 
z
M 1822 616 
L 1822 1706 
Q 1350 1519 1213 1441 
Q 966 1303 859 1153 
Q 753 1003 753 825 
Q 753 600 887 451 
Q 1022 303 1197 303 
Q 1434 303 1822 616 
z
" transform="scale(0.015625)"/>
       <path id="TimesNewRomanPSMT-6e" d="M 1034 2341 
Q 1538 2947 1994 2947 
Q 2228 2947 2397 2830 
Q 2566 2713 2666 2444 
Q 2734 2256 2734 1869 
L 2734 647 
Q 2734 375 2778 278 
Q 2813 200 2889 156 
Q 2966 113 3172 113 
L 3172 0 
L 1756 0 
L 1756 113 
L 1816 113 
Q 2016 113 2095 173 
Q 2175 234 2206 353 
Q 2219 400 2219 647 
L 2219 1819 
Q 2219 2209 2117 2386 
Q 2016 2563 1775 2563 
Q 1403 2563 1034 2156 
L 1034 647 
Q 1034 356 1069 288 
Q 1113 197 1189 155 
Q 1266 113 1500 113 
L 1500 0 
L 84 0 
L 84 113 
L 147 113 
Q 366 113 442 223 
Q 519 334 519 647 
L 519 1709 
Q 519 2225 495 2337 
Q 472 2450 423 2490 
Q 375 2531 294 2531 
Q 206 2531 84 2484 
L 38 2597 
L 900 2947 
L 1034 2947 
L 1034 2341 
z
" transform="scale(0.015625)"/>
       <path id="TimesNewRomanPSMT-73" d="M 2050 2947 
L 2050 1972 
L 1947 1972 
Q 1828 2431 1642 2597 
Q 1456 2763 1169 2763 
Q 950 2763 815 2647 
Q 681 2531 681 2391 
Q 681 2216 781 2091 
Q 878 1963 1175 1819 
L 1631 1597 
Q 2266 1288 2266 781 
Q 2266 391 1970 151 
Q 1675 -88 1309 -88 
Q 1047 -88 709 6 
Q 606 38 541 38 
Q 469 38 428 -44 
L 325 -44 
L 325 978 
L 428 978 
Q 516 541 762 319 
Q 1009 97 1316 97 
Q 1531 97 1667 223 
Q 1803 350 1803 528 
Q 1803 744 1651 891 
Q 1500 1038 1047 1263 
Q 594 1488 453 1669 
Q 313 1847 313 2119 
Q 313 2472 555 2709 
Q 797 2947 1181 2947 
Q 1350 2947 1591 2875 
Q 1750 2828 1803 2828 
Q 1853 2828 1881 2850 
Q 1909 2872 1947 2947 
L 2050 2947 
z
" transform="scale(0.015625)"/>
      </defs>
      <use xlink:href="#TimesNewRomanPSMT-4e"/>
      <use xlink:href="#TimesNewRomanPSMT-75" transform="translate(72.216797 0)"/>
      <use xlink:href="#TimesNewRomanPSMT-6d" transform="translate(122.216797 0)"/>
      <use xlink:href="#TimesNewRomanPSMT-62" transform="translate(200 0)"/>
      <use xlink:href="#TimesNewRomanPSMT-65" transform="translate(250 0)"/>
      <use xlink:href="#TimesNewRomanPSMT-72" transform="translate(294.384766 0)"/>
      <use xlink:href="#TimesNewRomanPSMT-20" transform="translate(327.685547 0)"/>
      <use xlink:href="#TimesNewRomanPSMT-6f" transform="translate(352.685547 0)"/>
      <use xlink:href="#TimesNewRomanPSMT-66" transform="translate(402.685547 0)"/>
      <use xlink:href="#TimesNewRomanPSMT-20" transform="translate(435.986328 0)"/>
      <use xlink:href="#TimesNewRomanPSMT-69" transform="translate(460.986328 0)"/>
      <use xlink:href="#TimesNewRomanPSMT-74" transform="translate(488.769531 0)"/>
      <use xlink:href="#TimesNewRomanPSMT-65" transform="translate(516.552734 0)"/>
      <use xlink:href="#TimesNewRomanPSMT-72" transform="translate(560.9375 0)"/>
      <use xlink:href="#TimesNewRomanPSMT-61" transform="translate(594.238281 0)"/>
      <use xlink:href="#TimesNewRomanPSMT-74" transform="translate(638.623047 0)"/>
      <use xlink:href="#TimesNewRomanPSMT-69" transform="translate(666.40625 0)"/>
      <use xlink:href="#TimesNewRomanPSMT-6f" transform="translate(694.189453 0)"/>
      <use xlink:href="#TimesNewRomanPSMT-6e" transform="translate(744.189453 0)"/>
      <use xlink:href="#TimesNewRomanPSMT-73" transform="translate(794.189453 0)"/>
     </g>
    </g>
   </g>
   <g id="matplotlib.axis_2">
    <g id="ytick_1">
     <g id="line2d_9">
      <path d="M 365.319 311.6435 
L 722.439 311.6435 
" clip-path="url(#p3afc3bf7f3)" style="fill: none; stroke: #b0b0b0; stroke-opacity: 0.3; stroke-width: 0.8; stroke-linecap: square"/>
     </g>
     <g id="line2d_10">
      <defs>
       <path id="m463cf7771b" d="M 0 0 
L -3.5 0 
" style="stroke: #000000; stroke-width: 0.8"/>
      </defs>
      <g>
       <use xlink:href="#m463cf7771b" x="365.319" y="311.6435" style="stroke: #000000; stroke-width: 0.8"/>
      </g>
     </g>
     <g id="text_6">
      <!-- 0.0 -->
      <g transform="translate(330.819 319.281625) scale(0.22 -0.22)">
       <defs>
        <path id="TimesNewRomanPSMT-2e" d="M 800 606 
Q 947 606 1047 504 
Q 1147 403 1147 259 
Q 1147 116 1045 14 
Q 944 -88 800 -88 
Q 656 -88 554 14 
Q 453 116 453 259 
Q 453 406 554 506 
Q 656 606 800 606 
z
" transform="scale(0.015625)"/>
       </defs>
       <use xlink:href="#TimesNewRomanPSMT-30"/>
       <use xlink:href="#TimesNewRomanPSMT-2e" transform="translate(50 0)"/>
       <use xlink:href="#TimesNewRomanPSMT-30" transform="translate(75 0)"/>
      </g>
     </g>
    </g>
    <g id="ytick_2">
     <g id="line2d_11">
      <path d="M 365.319 285.0323 
L 722.439 285.0323 
" clip-path="url(#p3afc3bf7f3)" style="fill: none; stroke: #b0b0b0; stroke-opacity: 0.3; stroke-width: 0.8; stroke-linecap: square"/>
     </g>
     <g id="line2d_12">
      <g>
       <use xlink:href="#m463cf7771b" x="365.319" y="285.0323" style="stroke: #000000; stroke-width: 0.8"/>
      </g>
     </g>
     <g id="text_7">
      <!-- 0.1 -->
      <g transform="translate(330.819 292.670425) scale(0.22 -0.22)">
       <defs>
        <path id="TimesNewRomanPSMT-31" d="M 750 3822 
L 1781 4325 
L 1884 4325 
L 1884 747 
Q 1884 391 1914 303 
Q 1944 216 2037 169 
Q 2131 122 2419 116 
L 2419 0 
L 825 0 
L 825 116 
Q 1125 122 1212 167 
Q 1300 213 1334 289 
Q 1369 366 1369 747 
L 1369 3034 
Q 1369 3497 1338 3628 
Q 1316 3728 1258 3775 
Q 1200 3822 1119 3822 
Q 1003 3822 797 3725 
L 750 3822 
z
" transform="scale(0.015625)"/>
       </defs>
       <use xlink:href="#TimesNewRomanPSMT-30"/>
       <use xlink:href="#TimesNewRomanPSMT-2e" transform="translate(50 0)"/>
       <use xlink:href="#TimesNewRomanPSMT-31" transform="translate(75 0)"/>
      </g>
     </g>
    </g>
    <g id="ytick_3">
     <g id="line2d_13">
      <path d="M 365.319 258.4211 
L 722.439 258.4211 
" clip-path="url(#p3afc3bf7f3)" style="fill: none; stroke: #b0b0b0; stroke-opacity: 0.3; stroke-width: 0.8; stroke-linecap: square"/>
     </g>
     <g id="line2d_14">
      <g>
       <use xlink:href="#m463cf7771b" x="365.319" y="258.4211" style="stroke: #000000; stroke-width: 0.8"/>
      </g>
     </g>
     <g id="text_8">
      <!-- 0.2 -->
      <g transform="translate(330.819 266.059225) scale(0.22 -0.22)">
       <use xlink:href="#TimesNewRomanPSMT-30"/>
       <use xlink:href="#TimesNewRomanPSMT-2e" transform="translate(50 0)"/>
       <use xlink:href="#TimesNewRomanPSMT-32" transform="translate(75 0)"/>
      </g>
     </g>
    </g>
    <g id="ytick_4">
     <g id="line2d_15">
      <path d="M 365.319 231.8099 
L 722.439 231.8099 
" clip-path="url(#p3afc3bf7f3)" style="fill: none; stroke: #b0b0b0; stroke-opacity: 0.3; stroke-width: 0.8; stroke-linecap: square"/>
     </g>
     <g id="line2d_16">
      <g>
       <use xlink:href="#m463cf7771b" x="365.319" y="231.8099" style="stroke: #000000; stroke-width: 0.8"/>
      </g>
     </g>
     <g id="text_9">
      <!-- 0.3 -->
      <g transform="translate(330.819 239.448025) scale(0.22 -0.22)">
       <defs>
        <path id="TimesNewRomanPSMT-33" d="M 325 3431 
Q 506 3859 782 4092 
Q 1059 4325 1472 4325 
Q 1981 4325 2253 3994 
Q 2459 3747 2459 3466 
Q 2459 3003 1878 2509 
Q 2269 2356 2469 2072 
Q 2669 1788 2669 1403 
Q 2669 853 2319 450 
Q 1863 -75 997 -75 
Q 569 -75 414 31 
Q 259 138 259 259 
Q 259 350 332 419 
Q 406 488 509 488 
Q 588 488 669 463 
Q 722 447 909 348 
Q 1097 250 1169 231 
Q 1284 197 1416 197 
Q 1734 197 1970 444 
Q 2206 691 2206 1028 
Q 2206 1275 2097 1509 
Q 2016 1684 1919 1775 
Q 1784 1900 1550 2001 
Q 1316 2103 1072 2103 
L 972 2103 
L 972 2197 
Q 1219 2228 1467 2375 
Q 1716 2522 1828 2728 
Q 1941 2934 1941 3181 
Q 1941 3503 1739 3701 
Q 1538 3900 1238 3900 
Q 753 3900 428 3381 
L 325 3431 
z
" transform="scale(0.015625)"/>
       </defs>
       <use xlink:href="#TimesNewRomanPSMT-30"/>
       <use xlink:href="#TimesNewRomanPSMT-2e" transform="translate(50 0)"/>
       <use xlink:href="#TimesNewRomanPSMT-33" transform="translate(75 0)"/>
      </g>
     </g>
    </g>
    <g id="ytick_5">
     <g id="line2d_17">
      <path d="M 365.319 205.1987 
L 722.439 205.1987 
" clip-path="url(#p3afc3bf7f3)" style="fill: none; stroke: #b0b0b0; stroke-opacity: 0.3; stroke-width: 0.8; stroke-linecap: square"/>
     </g>
     <g id="line2d_18">
      <g>
       <use xlink:href="#m463cf7771b" x="365.319" y="205.1987" style="stroke: #000000; stroke-width: 0.8"/>
      </g>
     </g>
     <g id="text_10">
      <!-- 0.4 -->
      <g transform="translate(330.819 212.836825) scale(0.22 -0.22)">
       <use xlink:href="#TimesNewRomanPSMT-30"/>
       <use xlink:href="#TimesNewRomanPSMT-2e" transform="translate(50 0)"/>
       <use xlink:href="#TimesNewRomanPSMT-34" transform="translate(75 0)"/>
      </g>
     </g>
    </g>
    <g id="ytick_6">
     <g id="line2d_19">
      <path d="M 365.319 178.5875 
L 722.439 178.5875 
" clip-path="url(#p3afc3bf7f3)" style="fill: none; stroke: #b0b0b0; stroke-opacity: 0.3; stroke-width: 0.8; stroke-linecap: square"/>
     </g>
     <g id="line2d_20">
      <g>
       <use xlink:href="#m463cf7771b" x="365.319" y="178.5875" style="stroke: #000000; stroke-width: 0.8"/>
      </g>
     </g>
     <g id="text_11">
      <!-- 0.5 -->
      <g transform="translate(330.819 186.225625) scale(0.22 -0.22)">
       <defs>
        <path id="TimesNewRomanPSMT-35" d="M 2778 4238 
L 2534 3706 
L 1259 3706 
L 981 3138 
Q 1809 3016 2294 2522 
Q 2709 2097 2709 1522 
Q 2709 1188 2573 903 
Q 2438 619 2231 419 
Q 2025 219 1772 97 
Q 1413 -75 1034 -75 
Q 653 -75 479 54 
Q 306 184 306 341 
Q 306 428 378 495 
Q 450 563 559 563 
Q 641 563 702 538 
Q 763 513 909 409 
Q 1144 247 1384 247 
Q 1750 247 2026 523 
Q 2303 800 2303 1197 
Q 2303 1581 2056 1914 
Q 1809 2247 1375 2428 
Q 1034 2569 447 2591 
L 1259 4238 
L 2778 4238 
z
" transform="scale(0.015625)"/>
       </defs>
       <use xlink:href="#TimesNewRomanPSMT-30"/>
       <use xlink:href="#TimesNewRomanPSMT-2e" transform="translate(50 0)"/>
       <use xlink:href="#TimesNewRomanPSMT-35" transform="translate(75 0)"/>
      </g>
     </g>
    </g>
    <g id="ytick_7">
     <g id="line2d_21">
      <path d="M 365.319 151.9763 
L 722.439 151.9763 
" clip-path="url(#p3afc3bf7f3)" style="fill: none; stroke: #b0b0b0; stroke-opacity: 0.3; stroke-width: 0.8; stroke-linecap: square"/>
     </g>
     <g id="line2d_22">
      <g>
       <use xlink:href="#m463cf7771b" x="365.319" y="151.9763" style="stroke: #000000; stroke-width: 0.8"/>
      </g>
     </g>
     <g id="text_12">
      <!-- 0.6 -->
      <g transform="translate(330.819 159.614425) scale(0.22 -0.22)">
       <use xlink:href="#TimesNewRomanPSMT-30"/>
       <use xlink:href="#TimesNewRomanPSMT-2e" transform="translate(50 0)"/>
       <use xlink:href="#TimesNewRomanPSMT-36" transform="translate(75 0)"/>
      </g>
     </g>
    </g>
    <g id="ytick_8">
     <g id="line2d_23">
      <path d="M 365.319 125.3651 
L 722.439 125.3651 
" clip-path="url(#p3afc3bf7f3)" style="fill: none; stroke: #b0b0b0; stroke-opacity: 0.3; stroke-width: 0.8; stroke-linecap: square"/>
     </g>
     <g id="line2d_24">
      <g>
       <use xlink:href="#m463cf7771b" x="365.319" y="125.3651" style="stroke: #000000; stroke-width: 0.8"/>
      </g>
     </g>
     <g id="text_13">
      <!-- 0.7 -->
      <g transform="translate(330.819 133.003225) scale(0.22 -0.22)">
       <defs>
        <path id="TimesNewRomanPSMT-37" d="M 644 4238 
L 2916 4238 
L 2916 4119 
L 1503 -88 
L 1153 -88 
L 2419 3728 
L 1253 3728 
Q 900 3728 750 3644 
Q 488 3500 328 3200 
L 238 3234 
L 644 4238 
z
" transform="scale(0.015625)"/>
       </defs>
       <use xlink:href="#TimesNewRomanPSMT-30"/>
       <use xlink:href="#TimesNewRomanPSMT-2e" transform="translate(50 0)"/>
       <use xlink:href="#TimesNewRomanPSMT-37" transform="translate(75 0)"/>
      </g>
     </g>
    </g>
    <g id="ytick_9">
     <g id="line2d_25">
      <path d="M 365.319 98.7539 
L 722.439 98.7539 
" clip-path="url(#p3afc3bf7f3)" style="fill: none; stroke: #b0b0b0; stroke-opacity: 0.3; stroke-width: 0.8; stroke-linecap: square"/>
     </g>
     <g id="line2d_26">
      <g>
       <use xlink:href="#m463cf7771b" x="365.319" y="98.7539" style="stroke: #000000; stroke-width: 0.8"/>
      </g>
     </g>
     <g id="text_14">
      <!-- 0.8 -->
      <g transform="translate(330.819 106.392025) scale(0.22 -0.22)">
       <defs>
        <path id="TimesNewRomanPSMT-38" d="M 1228 2134 
Q 725 2547 579 2797 
Q 434 3047 434 3316 
Q 434 3728 753 4026 
Q 1072 4325 1600 4325 
Q 2113 4325 2425 4047 
Q 2738 3769 2738 3413 
Q 2738 3175 2569 2928 
Q 2400 2681 1866 2347 
Q 2416 1922 2594 1678 
Q 2831 1359 2831 1006 
Q 2831 559 2490 242 
Q 2150 -75 1597 -75 
Q 994 -75 656 303 
Q 388 606 388 966 
Q 388 1247 577 1523 
Q 766 1800 1228 2134 
z
M 1719 2469 
Q 2094 2806 2194 3001 
Q 2294 3197 2294 3444 
Q 2294 3772 2109 3958 
Q 1925 4144 1606 4144 
Q 1288 4144 1088 3959 
Q 888 3775 888 3528 
Q 888 3366 970 3203 
Q 1053 3041 1206 2894 
L 1719 2469 
z
M 1375 2016 
Q 1116 1797 991 1539 
Q 866 1281 866 981 
Q 866 578 1086 336 
Q 1306 94 1647 94 
Q 1984 94 2187 284 
Q 2391 475 2391 747 
Q 2391 972 2272 1150 
Q 2050 1481 1375 2016 
z
" transform="scale(0.015625)"/>
       </defs>
       <use xlink:href="#TimesNewRomanPSMT-30"/>
       <use xlink:href="#TimesNewRomanPSMT-2e" transform="translate(50 0)"/>
       <use xlink:href="#TimesNewRomanPSMT-38" transform="translate(75 0)"/>
      </g>
     </g>
    </g>
    <g id="ytick_10">
     <g id="line2d_27">
      <path d="M 365.319 72.1427 
L 722.439 72.1427 
" clip-path="url(#p3afc3bf7f3)" style="fill: none; stroke: #b0b0b0; stroke-opacity: 0.3; stroke-width: 0.8; stroke-linecap: square"/>
     </g>
     <g id="line2d_28">
      <g>
       <use xlink:href="#m463cf7771b" x="365.319" y="72.1427" style="stroke: #000000; stroke-width: 0.8"/>
      </g>
     </g>
     <g id="text_15">
      <!-- 0.9 -->
      <g transform="translate(330.819 79.780825) scale(0.22 -0.22)">
       <defs>
        <path id="TimesNewRomanPSMT-39" d="M 338 -88 
L 338 28 
Q 744 34 1094 217 
Q 1444 400 1770 856 
Q 2097 1313 2225 1859 
Q 1734 1544 1338 1544 
Q 891 1544 572 1889 
Q 253 2234 253 2806 
Q 253 3363 572 3797 
Q 956 4325 1575 4325 
Q 2097 4325 2469 3894 
Q 2925 3359 2925 2575 
Q 2925 1869 2578 1258 
Q 2231 647 1613 244 
Q 1109 -88 516 -88 
L 338 -88 
z
M 2275 2091 
Q 2331 2497 2331 2741 
Q 2331 3044 2228 3395 
Q 2125 3747 1936 3934 
Q 1747 4122 1506 4122 
Q 1228 4122 1018 3872 
Q 809 3622 809 3128 
Q 809 2469 1088 2097 
Q 1291 1828 1588 1828 
Q 1731 1828 1928 1897 
Q 2125 1966 2275 2091 
z
" transform="scale(0.015625)"/>
       </defs>
       <use xlink:href="#TimesNewRomanPSMT-30"/>
       <use xlink:href="#TimesNewRomanPSMT-2e" transform="translate(50 0)"/>
       <use xlink:href="#TimesNewRomanPSMT-39" transform="translate(75 0)"/>
      </g>
     </g>
    </g>
    <g id="ytick_11">
     <g id="line2d_29">
      <path d="M 365.319 45.5315 
L 722.439 45.5315 
" clip-path="url(#p3afc3bf7f3)" style="fill: none; stroke: #b0b0b0; stroke-opacity: 0.3; stroke-width: 0.8; stroke-linecap: square"/>
     </g>
     <g id="line2d_30">
      <g>
       <use xlink:href="#m463cf7771b" x="365.319" y="45.5315" style="stroke: #000000; stroke-width: 0.8"/>
      </g>
     </g>
     <g id="text_16">
      <!-- 1.0 -->
      <g transform="translate(330.819 53.169625) scale(0.22 -0.22)">
       <use xlink:href="#TimesNewRomanPSMT-31"/>
       <use xlink:href="#TimesNewRomanPSMT-2e" transform="translate(50 0)"/>
       <use xlink:href="#TimesNewRomanPSMT-30" transform="translate(75 0)"/>
      </g>
     </g>
    </g>
    <g id="text_17">
     <!-- Accuracy -->
     <g transform="translate(322.071812 220.726094) rotate(-90) scale(0.22 -0.22)">
      <defs>
       <path id="TimesNewRomanPSMT-41" d="M 2928 1419 
L 1288 1419 
L 1000 750 
Q 894 503 894 381 
Q 894 284 986 211 
Q 1078 138 1384 116 
L 1384 0 
L 50 0 
L 50 116 
Q 316 163 394 238 
Q 553 388 747 847 
L 2238 4334 
L 2347 4334 
L 3822 809 
Q 4000 384 4145 257 
Q 4291 131 4550 116 
L 4550 0 
L 2878 0 
L 2878 116 
Q 3131 128 3220 200 
Q 3309 272 3309 375 
Q 3309 513 3184 809 
L 2928 1419 
z
M 2841 1650 
L 2122 3363 
L 1384 1650 
L 2841 1650 
z
" transform="scale(0.015625)"/>
       <path id="TimesNewRomanPSMT-63" d="M 2631 1088 
Q 2516 522 2178 217 
Q 1841 -88 1431 -88 
Q 944 -88 581 321 
Q 219 731 219 1428 
Q 219 2103 620 2525 
Q 1022 2947 1584 2947 
Q 2006 2947 2278 2723 
Q 2550 2500 2550 2259 
Q 2550 2141 2473 2067 
Q 2397 1994 2259 1994 
Q 2075 1994 1981 2113 
Q 1928 2178 1911 2362 
Q 1894 2547 1784 2644 
Q 1675 2738 1481 2738 
Q 1169 2738 978 2506 
Q 725 2200 725 1697 
Q 725 1184 976 792 
Q 1228 400 1656 400 
Q 1963 400 2206 609 
Q 2378 753 2541 1131 
L 2631 1088 
z
" transform="scale(0.015625)"/>
       <path id="TimesNewRomanPSMT-79" d="M 38 2863 
L 1372 2863 
L 1372 2747 
L 1306 2747 
Q 1166 2747 1095 2686 
Q 1025 2625 1025 2534 
Q 1025 2413 1128 2197 
L 1825 753 
L 2466 2334 
Q 2519 2463 2519 2588 
Q 2519 2644 2497 2672 
Q 2472 2706 2419 2726 
Q 2366 2747 2231 2747 
L 2231 2863 
L 3163 2863 
L 3163 2747 
Q 3047 2734 2984 2696 
Q 2922 2659 2847 2556 
Q 2819 2513 2741 2316 
L 1575 -541 
Q 1406 -956 1132 -1168 
Q 859 -1381 606 -1381 
Q 422 -1381 303 -1275 
Q 184 -1169 184 -1031 
Q 184 -900 270 -820 
Q 356 -741 506 -741 
Q 609 -741 788 -809 
Q 913 -856 944 -856 
Q 1038 -856 1148 -759 
Q 1259 -663 1372 -384 
L 1575 113 
L 547 2272 
Q 500 2369 397 2513 
Q 319 2622 269 2659 
Q 197 2709 38 2747 
L 38 2863 
z
" transform="scale(0.015625)"/>
      </defs>
      <use xlink:href="#TimesNewRomanPSMT-41"/>
      <use xlink:href="#TimesNewRomanPSMT-63" transform="translate(72.216797 0)"/>
      <use xlink:href="#TimesNewRomanPSMT-63" transform="translate(116.601562 0)"/>
      <use xlink:href="#TimesNewRomanPSMT-75" transform="translate(160.986328 0)"/>
      <use xlink:href="#TimesNewRomanPSMT-72" transform="translate(210.986328 0)"/>
      <use xlink:href="#TimesNewRomanPSMT-61" transform="translate(244.287109 0)"/>
      <use xlink:href="#TimesNewRomanPSMT-63" transform="translate(288.671875 0)"/>
      <use xlink:href="#TimesNewRomanPSMT-79" transform="translate(333.056641 0)"/>
     </g>
    </g>
   </g>
   <g id="line2d_31">
    <path d="M 365.319 178.055267 
L 365.509489 131.751772 
L 365.652356 127.360925 
L 365.699979 127.360925 
L 365.890468 123.369249 
L 366.223825 118.047014 
L 366.319069 117.381735 
L 366.414314 116.184223 
L 366.461936 116.450331 
L 366.509559 116.317285 
L 366.652426 115.385897 
L 366.700048 116.716456 
L 366.74767 115.119772 
L 366.842915 114.055338 
L 366.890538 114.587555 
L 367.033405 114.986726 
L 367.081027 114.986726 
L 367.176272 114.720617 
L 367.271516 115.252835 
L 367.319139 114.454493 
L 367.414383 114.720617 
L 367.509628 113.922276 
L 367.652495 114.587555 
L 367.700117 113.656167 
L 367.74774 113.922276 
L 367.795362 114.587555 
L 367.842985 113.523105 
L 367.938229 113.789214 
L 367.985852 114.188384 
L 368.033474 113.656167 
L 368.081096 113.523105 
L 368.128719 112.990888 
L 368.176341 113.922276 
L 368.223963 113.256997 
L 368.319208 113.123934 
L 368.36683 113.256997 
L 368.509697 112.857826 
L 368.55732 113.256997 
L 368.604942 113.123934 
L 368.747809 112.192546 
L 368.795432 113.123934 
L 368.843054 111.394205 
L 368.890676 112.325609 
L 369.033543 111.793376 
L 369.081166 112.458655 
L 369.128788 112.192546 
L 369.319277 111.261158 
L 369.462144 112.325609 
L 369.605011 111.261158 
L 369.652634 111.926438 
L 369.700256 111.660329 
L 369.747879 111.128096 
L 369.795501 111.261158 
L 370.033613 111.660329 
L 370.081235 111.660329 
L 370.224102 111.261158 
L 370.271724 111.527267 
L 370.319347 111.261158 
L 370.366969 110.861988 
L 370.462214 110.99505 
L 370.509836 110.99505 
L 370.557458 111.926438 
L 370.605081 111.527267 
L 370.747948 109.797537 
L 370.79557 110.462817 
L 370.843193 110.196708 
L 370.890815 109.797537 
L 371.033682 111.793376 
L 371.081304 110.196708 
L 371.176549 110.462817 
L 371.271794 111.394205 
L 371.367038 109.531429 
L 371.414661 110.861988 
L 371.557528 110.99505 
L 371.60515 110.99505 
L 371.700395 109.797537 
L 371.748017 110.99505 
L 371.79564 110.595879 
L 371.843262 109.398367 
L 371.890884 110.462817 
L 371.938507 110.329755 
L 371.986129 111.128096 
L 372.033751 110.728925 
L 372.176618 109.132258 
L 372.224241 109.398367 
L 372.319485 110.99505 
L 372.462352 109.132258 
L 372.509975 110.462817 
L 372.557597 110.329755 
L 372.605219 109.9306 
L 372.652842 110.196708 
L 372.700464 110.196708 
L 372.795709 108.600041 
L 372.843331 109.26532 
L 372.890954 108.999196 
L 372.938576 109.26532 
L 372.986198 107.668637 
L 373.033821 108.999196 
L 373.176688 109.664475 
L 373.319555 108.86615 
L 373.462422 108.333917 
L 373.557666 109.797537 
L 373.605289 109.531429 
L 373.700534 108.067808 
L 373.748156 108.466979 
L 373.843401 109.531429 
L 373.938645 107.934762 
L 373.986268 108.067808 
L 374.129135 107.535591 
L 374.224379 109.26532 
L 374.272002 108.067808 
L 374.319624 107.535591 
L 374.414869 107.668637 
L 374.462491 107.269482 
L 374.605358 109.26532 
L 374.748225 107.269482 
L 374.891092 108.86615 
L 375.033959 107.003358 
L 375.081582 107.801699 
L 375.129204 107.402529 
L 375.224449 106.870311 
L 375.272071 108.999196 
L 375.319693 106.870311 
L 375.605428 108.600041 
L 375.748295 106.870311 
L 375.843539 107.668637 
L 375.938784 106.737249 
L 375.986406 108.067808 
L 376.034029 107.668637 
L 376.081651 106.338078 
L 376.129273 107.668637 
L 376.224518 108.333917 
L 376.27214 107.801699 
L 376.319763 108.20087 
L 376.367385 108.067808 
L 376.415007 108.20087 
L 376.510252 108.600041 
L 376.557875 106.338078 
L 376.605497 107.934762 
L 376.653119 108.333917 
L 376.843609 106.07197 
L 376.938853 106.737249 
L 377.034098 105.938908 
L 377.129343 107.934762 
L 377.27221 106.471141 
L 377.319832 106.471141 
L 377.415077 105.938908 
L 377.462699 106.338078 
L 377.557944 107.269482 
L 377.653189 105.938908 
L 377.700811 107.801699 
L 377.748433 107.402529 
L 377.796056 106.205032 
L 377.843678 107.003358 
L 377.8913 107.003358 
L 377.938923 107.13642 
L 377.986545 107.801699 
L 378.034167 107.668637 
L 378.129412 106.205032 
L 378.177034 107.13642 
L 378.272279 106.870311 
L 378.415146 107.402529 
L 378.462769 107.269482 
L 378.558013 106.205032 
L 378.605636 106.471141 
L 378.70088 106.870311 
L 378.748503 106.604187 
L 378.796125 105.539753 
L 378.843747 106.604187 
L 378.938992 107.003358 
L 379.034237 106.604187 
L 379.081859 106.737249 
L 379.129481 106.737249 
L 379.224726 106.07197 
L 379.367593 106.870311 
L 379.415215 105.273628 
L 379.462838 105.539753 
L 379.558083 107.13642 
L 379.605705 106.870311 
L 379.653327 106.870311 
L 379.70095 107.13642 
L 379.796194 105.140582 
L 379.843817 105.805861 
L 380.034306 107.801699 
L 380.081928 107.801699 
L 380.129551 107.535591 
L 380.272418 106.205032 
L 380.32004 106.07197 
L 380.415285 106.870311 
L 380.51053 105.00752 
L 380.558152 106.07197 
L 380.653397 107.535591 
L 380.843886 105.938908 
L 380.939131 106.205032 
L 381.034375 105.40669 
L 381.177242 106.737249 
L 381.224865 107.13642 
L 381.320109 106.07197 
L 381.367732 106.471141 
L 381.462977 106.205032 
L 381.510599 106.870311 
L 381.558221 106.604187 
L 381.605844 106.471141 
L 381.748711 105.672799 
L 381.843955 106.205032 
L 381.986822 106.07197 
L 382.034445 106.07197 
L 382.129689 106.604187 
L 382.177312 106.205032 
L 382.224934 106.338078 
L 382.272556 106.471141 
L 382.320179 106.338078 
L 382.367801 106.338078 
L 382.510668 105.805861 
L 382.558291 105.805861 
L 382.605913 105.539753 
L 382.74878 106.471141 
L 382.796402 106.338078 
L 382.844025 106.338078 
L 382.939269 105.938908 
L 383.082136 106.205032 
L 383.129759 105.539753 
L 383.177381 106.205032 
L 383.272626 106.205032 
L 383.367871 104.874473 
L 383.415493 105.672799 
L 383.510738 106.471141 
L 383.55836 105.805861 
L 383.653605 105.938908 
L 383.701227 105.938908 
L 383.748849 106.07197 
L 383.796472 105.539753 
L 383.844094 105.805861 
L 383.891716 105.938908 
L 383.939339 105.805861 
L 384.034583 105.140582 
L 384.082206 106.205032 
L 384.17745 105.938908 
L 384.272695 106.205032 
L 384.36794 105.40669 
L 384.415562 106.205032 
L 384.463185 106.07197 
L 384.510807 105.140582 
L 384.558429 105.273628 
L 384.653674 106.07197 
L 384.748919 104.741411 
L 384.844163 106.07197 
L 384.891786 105.938908 
L 384.939408 105.938908 
L 385.034653 106.338078 
L 385.129897 105.40669 
L 385.17752 105.805861 
L 385.272765 105.273628 
L 385.368009 105.805861 
L 385.415632 104.608349 
L 385.463254 104.741411 
L 385.558499 106.07197 
L 385.606121 105.805861 
L 385.653743 105.672799 
L 385.701366 105.938908 
L 385.748988 105.805861 
L 385.9871 104.874473 
L 386.034722 105.140582 
L 386.082344 105.273628 
L 386.177589 104.34224 
L 386.225211 104.608349 
L 386.320456 105.672799 
L 386.368079 105.40669 
L 386.415701 105.273628 
L 386.463323 105.805861 
L 386.558568 105.672799 
L 386.749057 104.741411 
L 386.79668 105.140582 
L 386.844302 105.00752 
L 386.939547 104.209194 
L 386.987169 104.608349 
L 387.034791 104.741411 
L 387.177658 105.672799 
L 387.320526 104.34224 
L 387.41577 104.34224 
L 387.511015 105.273628 
L 387.558637 104.608349 
L 387.653882 104.209194 
L 387.701504 104.475303 
L 387.749127 104.34224 
L 387.796749 104.209194 
L 387.844371 104.34224 
L 388.034861 104.874473 
L 388.082483 104.741411 
L 388.22535 104.076132 
L 388.272973 104.209194 
L 388.320595 104.475303 
L 388.368217 103.810023 
L 388.41584 104.608349 
L 388.511084 104.209194 
L 388.606329 104.608349 
L 388.653951 103.810023 
L 388.701574 104.076132 
L 388.749196 104.34224 
L 388.796818 103.676961 
L 388.892063 104.874473 
L 388.987308 103.676961 
L 389.082552 104.608349 
L 389.130175 104.475303 
L 389.273042 103.410852 
L 389.320664 103.94307 
L 389.368287 103.94307 
L 389.415909 103.27779 
L 389.463531 103.543899 
L 389.654021 104.608349 
L 389.701643 104.34224 
L 389.892132 103.410852 
L 389.939755 103.27779 
L 390.034999 104.34224 
L 390.082622 104.209194 
L 390.177867 104.209194 
L 390.225489 104.475303 
L 390.273111 104.209194 
L 390.368356 103.676961 
L 390.463601 104.475303 
L 390.701712 102.745573 
L 390.749335 102.745573 
L 390.844579 103.27779 
L 390.892202 103.011682 
L 390.939824 103.27779 
L 390.987446 102.745573 
L 391.082691 102.878619 
L 391.225558 103.810023 
L 391.320803 103.543899 
L 391.368425 103.676961 
L 391.416048 103.810023 
L 391.46367 103.676961 
L 391.606537 103.011682 
L 391.654159 103.011682 
L 391.701782 102.878619 
L 391.749404 103.810023 
L 391.797026 103.410852 
L 391.844649 103.27779 
L 391.892271 103.410852 
L 391.987516 103.810023 
L 392.035138 103.410852 
L 392.082761 103.543899 
L 392.130383 103.810023 
L 392.178005 103.676961 
L 392.27325 103.144744 
L 392.320872 103.410852 
L 392.416117 103.676961 
L 392.606606 102.745573 
L 392.701851 103.543899 
L 392.749473 102.612511 
L 392.797096 102.745573 
L 392.89234 103.676961 
L 392.939963 103.543899 
L 393.035207 102.745573 
L 393.08283 103.676961 
L 393.130452 103.543899 
L 393.178075 102.745573 
L 393.225697 102.878619 
L 393.273319 103.144744 
L 393.320942 104.076132 
L 393.368564 103.676961 
L 393.416186 103.410852 
L 393.511431 103.94307 
L 393.606676 103.543899 
L 393.654298 103.94307 
L 393.70192 103.810023 
L 393.749543 103.543899 
L 393.797165 103.676961 
L 393.844787 103.94307 
L 393.89241 103.27779 
L 393.940032 103.410852 
L 393.987654 103.94307 
L 394.035277 103.410852 
L 394.130522 103.410852 
L 394.178144 103.810023 
L 394.225766 103.410852 
L 394.273389 103.27779 
L 394.321011 103.410852 
L 394.368633 103.676961 
L 394.416256 103.543899 
L 394.463878 103.144744 
L 394.5115 103.410852 
L 394.559123 103.676961 
L 394.606745 103.543899 
L 394.654367 103.144744 
L 394.70199 103.410852 
L 394.749612 103.94307 
L 394.797234 103.543899 
L 394.892479 103.144744 
L 394.987724 103.676961 
L 395.082969 103.011682 
L 395.178213 103.676961 
L 395.225836 102.878619 
L 395.273458 103.011682 
L 395.368703 103.810023 
L 395.463947 102.878619 
L 395.559192 103.543899 
L 395.654437 103.011682 
L 395.702059 103.410852 
L 395.749681 103.011682 
L 395.797304 103.144744 
L 395.892548 102.745573 
L 395.940171 103.144744 
L 395.987793 102.878619 
L 396.035416 102.745573 
L 396.083038 102.878619 
L 396.13066 102.878619 
L 396.178283 102.745573 
L 396.225905 103.011682 
L 396.32115 102.612511 
L 396.416394 103.27779 
L 396.464017 103.011682 
L 396.511639 103.011682 
L 396.654506 103.144744 
L 396.797373 103.144744 
L 396.844995 103.011682 
L 396.892618 103.27779 
L 396.94024 103.011682 
L 397.083107 103.27779 
L 397.13073 102.878619 
L 397.178352 103.144744 
L 397.273597 103.144744 
L 397.321219 102.878619 
L 397.368841 103.144744 
L 397.511708 103.144744 
L 397.606953 103.011682 
L 397.74982 103.144744 
L 397.892687 103.011682 
L 397.94031 103.144744 
L 397.987932 102.878619 
L 398.035554 103.144744 
L 398.083177 103.27779 
L 398.178421 103.011682 
L 398.273666 103.410852 
L 398.321288 103.27779 
L 398.464155 103.27779 
L 398.607022 103.410852 
L 398.654645 102.878619 
L 398.702267 103.410852 
L 398.749889 103.410852 
L 398.845134 102.878619 
L 398.892757 103.27779 
L 398.988001 103.144744 
L 399.035624 102.878619 
L 399.083246 103.27779 
L 399.178491 103.144744 
L 399.226113 102.878619 
L 399.273735 103.27779 
L 399.321358 102.878619 
L 399.36898 102.612511 
L 399.464225 103.410852 
L 399.511847 103.27779 
L 399.607092 102.21334 
L 399.654714 102.346402 
L 399.797581 102.080294 
L 399.845203 102.346402 
L 399.892826 102.21334 
L 399.988071 102.21334 
L 400.035693 102.346402 
L 400.17856 102.080294 
L 400.226182 102.346402 
L 400.273805 102.080294 
L 400.369049 102.080294 
L 400.416672 101.947231 
L 400.464294 102.21334 
L 400.511916 102.080294 
L 400.559539 102.080294 
L 400.607161 101.814185 
L 400.750028 102.346402 
L 400.79765 101.814185 
L 400.845273 102.21334 
L 400.892895 102.479464 
L 400.98814 101.947231 
L 401.035762 102.21334 
L 401.083385 102.346402 
L 401.131007 102.21334 
L 401.178629 102.080294 
L 401.226252 102.21334 
L 401.321496 102.21334 
L 401.369119 102.346402 
L 401.416741 102.21334 
L 401.464363 102.080294 
L 401.511986 102.21334 
L 401.559608 102.346402 
L 401.654853 101.947231 
L 401.702475 102.080294 
L 401.750097 102.346402 
L 401.79772 102.080294 
L 401.845342 101.947231 
L 401.892965 102.080294 
L 401.940587 102.346402 
L 401.988209 102.080294 
L 402.035832 101.814185 
L 402.083454 102.080294 
L 402.131076 102.21334 
L 402.226321 101.681123 
L 402.321566 102.21334 
L 402.369188 101.681123 
L 402.41681 101.814185 
L 402.464433 102.21334 
L 402.512055 102.080294 
L 402.654922 101.947231 
L 402.750167 101.947231 
L 402.893034 102.080294 
L 403.035901 101.947231 
L 403.178768 102.080294 
L 403.321635 101.548061 
L 403.369257 101.814185 
L 403.41688 101.681123 
L 403.464502 101.681123 
L 403.607369 102.346402 
L 403.654991 102.080294 
L 403.797859 101.681123 
L 403.940726 101.814185 
L 403.988348 101.814185 
L 404.131215 101.681123 
L 404.178837 101.681123 
L 404.321704 101.814185 
L 404.416949 101.814185 
L 404.464571 101.681123 
L 404.512194 101.814185 
L 404.607438 101.814185 
L 404.750306 101.947231 
L 404.893173 101.947231 
L 404.940795 101.814185 
L 404.988417 101.947231 
L 405.03604 101.947231 
L 405.131284 101.814185 
L 405.274151 101.947231 
L 405.417018 101.814185 
L 405.559885 101.947231 
L 405.797997 101.947231 
L 405.940864 102.346402 
L 405.988487 102.21334 
L 406.083731 101.947231 
L 406.178976 102.21334 
L 406.226598 102.080294 
L 406.321843 102.346402 
L 406.369465 102.080294 
L 406.417088 102.479464 
L 406.46471 102.346402 
L 406.512332 102.21334 
L 406.559955 102.346402 
L 406.655199 102.346402 
L 406.702822 102.21334 
L 406.750444 102.346402 
L 407.083801 102.346402 
L 407.226668 102.612511 
L 407.27429 102.479464 
L 407.321912 102.612511 
L 407.369535 102.745573 
L 407.417157 102.612511 
L 407.464779 102.612511 
L 407.560024 103.27779 
L 407.607646 102.878619 
L 407.655269 102.080294 
L 407.702891 102.346402 
L 407.750514 103.011682 
L 407.845758 102.878619 
L 407.988625 102.878619 
L 408.08387 102.612511 
L 408.131492 102.745573 
L 408.226737 103.144744 
L 408.321982 102.745573 
L 408.464849 103.011682 
L 408.512471 102.21334 
L 408.560093 102.612511 
L 408.607716 102.612511 
L 408.702961 102.346402 
L 408.750583 102.612511 
L 408.798205 102.346402 
L 408.89345 102.080294 
L 408.941072 102.21334 
L 409.083939 102.21334 
L 409.226806 102.346402 
L 409.274429 102.346402 
L 409.417296 102.21334 
L 409.51254 102.21334 
L 409.560163 102.346402 
L 409.607785 102.080294 
L 409.655408 102.21334 
L 409.750652 102.346402 
L 409.798275 102.21334 
L 409.941142 102.479464 
L 410.084009 102.346402 
L 410.131631 102.346402 
L 410.179253 102.479464 
L 410.226876 102.346402 
L 410.607855 102.346402 
L 410.845966 103.011682 
L 410.893589 102.612511 
L 410.941211 102.745573 
L 410.988833 102.878619 
L 411.036456 103.543899 
L 411.084078 178.454438 
L 411.179323 177.922221 
L 411.32219 171.402473 
L 411.465057 108.20087 
L 411.512679 108.86615 
L 411.560302 109.132258 
L 411.703169 105.273628 
L 411.750791 105.40669 
L 411.798413 105.140582 
L 411.846036 105.273628 
L 411.893658 106.07197 
L 411.988903 105.805861 
L 412.036525 105.672799 
L 412.084147 105.805861 
L 412.13177 105.805861 
L 412.179392 106.07197 
L 412.369881 105.140582 
L 412.465126 105.140582 
L 412.607993 105.273628 
L 412.655616 105.273628 
L 412.75086 104.874473 
L 412.798483 105.00752 
L 412.846105 105.00752 
L 412.988972 104.874473 
L 413.084217 104.874473 
L 413.274706 104.608349 
L 413.322328 104.608349 
L 413.369951 104.741411 
L 413.512818 104.475303 
L 413.56044 104.475303 
L 413.608063 104.34224 
L 413.75093 104.608349 
L 413.798552 104.608349 
L 413.941419 104.475303 
L 413.989041 104.475303 
L 414.036664 104.608349 
L 414.084286 104.475303 
L 414.274775 104.209194 
L 414.417642 104.608349 
L 414.512887 104.209194 
L 414.56051 104.34224 
L 414.893866 104.34224 
L 414.941488 104.475303 
L 414.989111 104.34224 
L 415.036733 104.34224 
L 415.1796 104.209194 
L 415.227222 104.209194 
L 415.465334 103.810023 
L 415.655824 103.810023 
L 415.846313 103.543899 
L 415.941558 103.543899 
L 415.98918 103.676961 
L 416.036802 103.543899 
L 416.084425 103.543899 
L 416.417781 104.209194 
L 416.608271 104.209194 
L 416.751138 103.94307 
L 416.846382 104.076132 
L 416.894005 103.94307 
L 416.941627 104.076132 
L 417.465473 104.076132 
L 417.60834 103.94307 
L 417.751207 103.94307 
L 417.941696 103.676961 
L 417.989319 103.676961 
L 418.132186 103.810023 
L 418.322675 103.810023 
L 418.513165 104.076132 
L 418.751276 104.076132 
L 418.894143 103.94307 
L 419.465612 103.94307 
L 419.608479 104.076132 
L 419.941835 104.076132 
L 420.084702 103.94307 
L 420.227569 103.94307 
L 420.418059 104.209194 
L 420.751415 104.209194 
L 420.894282 104.34224 
L 421.227638 104.34224 
L 421.418128 104.076132 
L 421.560995 104.076132 
L 421.608617 103.94307 
L 421.65624 104.076132 
L 421.846729 104.34224 
L 421.894351 104.34224 
L 422.037218 104.209194 
L 422.227708 104.209194 
L 422.322953 104.076132 
L 422.46582 104.209194 
L 422.513442 104.209194 
L 422.656309 104.076132 
L 422.751554 104.076132 
L 422.894421 103.94307 
L 422.989665 103.94307 
L 423.037288 103.810023 
L 423.08491 103.94307 
L 423.132532 103.94307 
L 423.323022 104.209194 
L 423.751623 104.209194 
L 423.799245 104.076132 
L 423.846868 104.209194 
L 424.70407 104.209194 
L 424.846937 104.076132 
L 424.989804 104.076132 
L 425.085049 104.209194 
L 425.275538 103.94307 
L 425.370783 103.94307 
L 425.51365 103.810023 
L 425.608895 103.810023 
L 425.751762 103.676961 
L 425.942251 103.676961 
L 426.085118 103.94307 
L 426.13274 103.94307 
L 426.32323 103.676961 
L 426.94232 103.676961 
L 427.13281 103.410852 
L 427.275677 103.410852 
L 427.418544 103.27779 
L 427.609033 103.27779 
L 427.7519 103.144744 
L 427.894767 103.543899 
L 428.132879 103.543899 
L 428.180502 103.676961 
L 428.228124 103.543899 
L 428.466236 103.543899 
L 428.609103 103.410852 
L 430.609241 103.410852 
L 430.752108 103.543899 
L 430.99022 103.543899 
L 431.133087 103.410852 
L 431.752178 103.410852 
L 431.895045 103.27779 
L 432.466513 103.27779 
L 432.60938 103.144744 
L 432.752247 103.27779 
L 432.990359 103.27779 
L 433.133226 103.144744 
L 434.561896 103.144744 
L 434.704763 103.011682 
L 434.84763 103.011682 
L 435.085742 103.410852 
L 435.180987 103.27779 
L 435.323854 103.676961 
L 435.371476 103.676961 
L 435.419099 103.810023 
L 435.561966 103.410852 
L 435.704833 103.543899 
L 435.752455 103.543899 
L 435.990567 103.144744 
L 436.085812 103.27779 
L 436.133434 103.144744 
L 436.181056 103.27779 
L 436.276301 103.27779 
L 436.323923 103.410852 
L 436.371546 103.27779 
L 436.895392 103.27779 
L 436.943014 103.410852 
L 436.990636 103.27779 
L 437.133503 103.27779 
L 437.27637 103.410852 
L 437.514482 103.410852 
L 437.609727 103.27779 
L 437.657349 103.410852 
L 437.704971 103.27779 
L 437.800216 103.27779 
L 437.943083 103.410852 
L 438.562174 103.410852 
L 438.705041 103.27779 
L 438.990775 103.27779 
L 439.133642 103.144744 
L 439.847977 103.144744 
L 439.990844 103.011682 
L 440.371823 103.011682 
L 440.51469 103.144744 
L 440.562312 103.011682 
L 440.609935 103.144744 
L 441.752871 103.144744 
L 441.895738 102.878619 
L 442.610073 102.878619 
L 442.752941 103.011682 
L 443.133919 103.011682 
L 443.276786 103.144744 
L 443.75301 103.144744 
L 443.895877 103.27779 
L 444.086366 103.27779 
L 444.229233 103.144744 
L 444.848324 103.144744 
L 444.991191 103.27779 
L 446.134127 103.27779 
L 446.18175 103.144744 
L 446.324617 103.543899 
L 446.419861 103.543899 
L 446.467484 103.410852 
L 446.515106 103.543899 
L 446.562728 103.543899 
L 446.610351 103.410852 
L 446.657973 103.543899 
L 448.134266 103.543899 
L 448.277133 103.676961 
L 449.22958 103.676961 
L 449.324825 103.543899 
L 449.420069 103.676961 
L 449.562937 103.543899 
L 449.705804 103.676961 
L 450.134405 103.676961 
L 450.277272 103.543899 
L 451.277341 103.543899 
L 451.372586 103.410852 
L 451.515453 103.543899 
L 451.563075 103.410852 
L 451.610698 103.543899 
L 452.325033 103.543899 
L 452.372655 103.410852 
L 452.420278 103.543899 
L 453.039368 103.543899 
L 453.08699 103.676961 
L 453.134613 103.543899 
L 453.372724 103.543899 
L 453.467969 103.94307 
L 453.515592 103.543899 
L 453.610836 103.676961 
L 453.658459 103.676961 
L 453.706081 103.94307 
L 453.753703 103.676961 
L 453.801326 103.810023 
L 453.848948 103.676961 
L 453.991815 103.543899 
L 454.039437 103.543899 
L 454.182304 103.676961 
L 454.229927 103.676961 
L 454.277549 103.543899 
L 454.325171 103.676961 
L 454.372794 103.676961 
L 454.563283 103.410852 
L 454.658528 103.676961 
L 454.801395 103.543899 
L 454.849017 103.676961 
L 454.89664 103.410852 
L 454.944262 103.676961 
L 455.039507 103.676961 
L 455.182374 103.543899 
L 455.658597 103.543899 
L 455.753842 103.410852 
L 455.801464 104.475303 
L 455.849087 134.146781 
L 455.896709 108.999196 
L 455.944331 111.793376 
L 456.087198 104.209194 
L 456.134821 105.539753 
L 456.182443 104.741411 
L 456.230065 104.209194 
L 456.277688 104.874473 
L 456.32531 104.34224 
L 456.372933 104.209194 
L 456.5158 104.741411 
L 456.563422 104.34224 
L 456.658667 104.475303 
L 456.706289 104.608349 
L 456.753911 104.475303 
L 456.801534 104.475303 
L 457.039645 104.874473 
L 457.13489 104.874473 
L 457.230135 105.00752 
L 457.32538 104.874473 
L 457.468247 105.00752 
L 457.658736 105.00752 
L 457.706358 104.874473 
L 457.753981 105.00752 
L 458.134959 105.00752 
L 458.277827 105.140582 
L 459.230274 105.140582 
L 459.420763 104.874473 
L 459.754119 104.874473 
L 459.896986 105.00752 
L 460.039853 105.00752 
L 460.230343 104.741411 
L 460.563699 104.741411 
L 460.611322 104.608349 
L 460.658944 104.741411 
L 461.563769 104.741411 
L 461.706636 104.608349 
L 461.754258 104.608349 
L 461.897125 104.741411 
L 462.278104 104.741411 
L 462.420971 104.608349 
L 464.087753 104.608349 
L 464.23062 104.475303 
L 465.706913 104.475303 
L 465.84978 104.34224 
L 465.897402 104.34224 
L 466.04027 104.475303 
L 467.040339 104.475303 
L 467.183206 104.34224 
L 470.992994 104.34224 
L 471.135861 104.475303 
L 471.421595 104.475303 
L 471.564462 104.34224 
L 473.231244 104.34224 
L 473.374111 104.209194 
L 474.183691 104.209194 
L 474.326558 104.076132 
L 476.707676 104.076132 
L 476.898165 103.810023 
L 477.041032 103.810023 
L 477.183899 103.94307 
L 483.517672 103.94307 
L 483.660539 103.810023 
L 486.470258 103.810023 
L 486.613125 103.94307 
L 487.041726 103.94307 
L 487.184593 104.076132 
L 488.75613 104.076132 
L 488.898997 104.209194 
L 490.994381 104.209194 
L 491.137248 104.076132 
L 494.089833 104.076132 
L 494.185078 103.94307 
L 494.2327 104.076132 
L 494.280323 103.94307 
L 494.566057 103.94307 
L 494.708924 103.810023 
L 495.137525 103.810023 
L 495.280392 103.676961 
L 496.947174 103.676961 
L 497.090041 103.543899 
L 499.709271 103.543899 
L 499.852138 103.676961 
L 500.280739 103.676961 
L 500.423606 103.810023 
L 500.471228 103.810023 
L 500.518851 103.676961 
L 500.566473 104.475303 
L 500.661718 104.209194 
L 500.70934 104.209194 
L 500.756962 103.810023 
L 500.804585 104.076132 
L 500.852207 104.076132 
L 500.995074 104.209194 
L 501.423675 104.209194 
L 501.51892 104.34224 
L 501.566542 104.209194 
L 501.614165 104.34224 
L 501.757032 104.34224 
L 501.899899 104.209194 
L 503.042835 104.209194 
L 503.185702 104.076132 
L 504.042905 104.076132 
L 504.090527 104.209194 
L 504.138149 104.076132 
L 504.281016 104.076132 
L 504.423883 103.94307 
L 504.56675 104.076132 
L 504.75724 104.076132 
L 504.900107 104.209194 
L 505.471575 104.209194 
L 505.614442 104.34224 
L 509.328985 104.34224 
L 509.471852 104.475303 
L 510.614789 104.475303 
L 510.757656 104.608349 
L 514.519821 104.608349 
L 514.662688 104.741411 
L 516.091359 104.741411 
L 516.234226 104.608349 
L 517.567652 104.608349 
L 517.710519 104.741411 
L 518.424854 104.741411 
L 518.567721 104.874473 
L 520.56786 104.874473 
L 520.710727 104.741411 
L 523.139467 104.741411 
L 523.187089 104.608349 
L 523.234711 104.741411 
L 523.329956 104.741411 
L 523.472823 104.608349 
L 523.61569 104.741411 
L 523.710935 104.741411 
L 523.80618 104.608349 
L 523.949047 104.741411 
L 524.044291 104.741411 
L 524.139536 104.608349 
L 524.187158 104.741411 
L 524.234781 104.608349 
L 524.377648 104.475303 
L 524.472893 104.608349 
L 524.568137 104.475303 
L 524.711004 104.608349 
L 524.853871 104.475303 
L 526.663521 104.475303 
L 526.806388 104.34224 
L 528.806526 104.34224 
L 528.949393 104.475303 
L 529.28275 104.475303 
L 529.377995 104.741411 
L 529.425617 104.209194 
L 529.568484 178.5875 
L 633.147094 178.5875 
L 633.337584 107.003358 
L 633.385206 104.076132 
L 633.432829 105.140582 
L 633.480451 105.539753 
L 633.528073 105.00752 
L 633.813807 104.475303 
L 633.909052 104.475303 
L 634.099541 104.741411 
L 634.194786 104.741411 
L 634.290031 104.608349 
L 634.432898 105.00752 
L 634.67101 105.00752 
L 634.718632 104.874473 
L 634.766254 105.00752 
L 635.099611 105.00752 
L 635.242478 104.874473 
L 635.337722 104.874473 
L 635.48059 104.741411 
L 635.575834 104.741411 
L 635.766324 105.00752 
L 636.004435 105.00752 
L 636.147302 104.874473 
L 636.433037 104.874473 
L 636.575904 104.608349 
L 636.861638 104.608349 
L 637.052127 104.34224 
L 637.480728 104.34224 
L 637.623595 104.475303 
L 638.671287 104.475303 
L 638.814154 104.34224 
L 639.433245 104.34224 
L 639.576112 104.475303 
L 639.718979 104.34224 
L 640.099957 104.34224 
L 640.195202 104.475303 
L 640.338069 104.34224 
L 640.671426 104.34224 
L 640.814293 104.475303 
L 641.290516 104.475303 
L 641.433383 104.34224 
L 642.433453 104.34224 
L 642.57632 104.475303 
L 643.3859 104.475303 
L 643.528767 104.34224 
L 645.243171 104.34224 
L 645.290794 104.209194 
L 645.338416 104.34224 
L 645.528905 104.608349 
L 646.909953 104.608349 
L 647.052821 104.34224 
L 647.24331 104.608349 
L 647.386177 104.076132 
L 647.433799 103.410852 
L 647.529044 104.874473 
L 647.576666 104.608349 
L 647.719533 104.209194 
L 647.767156 104.209194 
L 647.8624 104.475303 
L 647.910023 104.34224 
L 648.05289 104.741411 
L 648.100512 104.741411 
L 648.243379 104.874473 
L 648.291002 104.874473 
L 648.386246 104.608349 
L 648.433869 104.741411 
L 648.481491 104.741411 
L 648.624358 104.874473 
L 648.719603 104.874473 
L 648.86247 105.00752 
L 649.052959 104.608349 
L 649.195826 104.741411 
L 650.195896 104.741411 
L 650.338763 104.608349 
L 650.48163 104.608349 
L 650.624497 104.475303 
L 652.005545 104.475303 
L 652.243657 104.076132 
L 653.243726 104.076132 
L 653.386593 104.209194 
L 653.958061 104.209194 
L 654.100928 104.34224 
L 654.577152 104.34224 
L 654.720019 104.209194 
L 656.053445 104.209194 
L 656.148689 104.34224 
L 656.291556 104.209194 
L 656.386801 104.209194 
L 656.529668 104.076132 
L 657.148759 104.076132 
L 657.291626 104.209194 
L 657.958339 104.209194 
L 658.101206 104.076132 
L 658.815541 104.076132 
L 658.958408 104.209194 
L 659.053653 104.209194 
L 659.19652 104.34224 
L 660.482323 104.34224 
L 660.62519 104.475303 
L 662.053861 104.475303 
L 662.196728 104.34224 
L 665.720782 104.34224 
L 665.863649 104.475303 
L 666.006516 104.475303 
L 666.149383 104.608349 
L 667.959032 104.608349 
L 668.054277 104.475303 
L 668.197144 104.608349 
L 668.625745 104.608349 
L 668.768612 104.741411 
L 668.959101 104.741411 
L 669.101968 104.608349 
L 669.721059 104.608349 
L 669.863926 104.741411 
L 672.054554 104.741411 
L 672.197421 104.874473 
L 673.149868 104.874473 
L 673.292735 105.00752 
L 673.340358 105.00752 
L 673.483225 104.874473 
L 679.578885 104.874473 
L 679.721752 104.608349 
L 681.864758 104.608349 
L 682.007625 104.475303 
L 682.483849 104.475303 
L 682.626716 104.34224 
L 683.293429 104.34224 
L 683.436296 104.475303 
L 684.103009 104.475303 
L 684.245876 104.34224 
L 684.53161 104.34224 
L 684.674477 104.209194 
L 685.34119 104.209194 
L 685.484057 104.076132 
L 685.817413 104.076132 
L 685.96028 103.94307 
L 686.912727 103.94307 
L 687.055594 104.076132 
L 688.722376 104.076132 
L 688.865243 103.94307 
L 690.341536 103.94307 
L 690.484403 104.076132 
L 692.008319 104.076132 
L 692.151186 103.94307 
L 696.532442 103.94307 
L 696.675309 104.076132 
L 697.10391 104.076132 
L 697.294399 104.34224 
L 698.389713 104.34224 
L 698.53258 104.209194 
L 698.627825 104.209194 
L 698.770692 104.34224 
L 702.151879 104.34224 
L 702.294746 104.475303 
L 703.104326 104.475303 
L 703.247193 104.34224 
L 716.15285 104.34224 
L 716.295717 104.475303 
L 718.343478 104.475303 
L 718.3911 104.34224 
L 718.438723 104.475303 
L 718.533967 104.475303 
L 718.629212 104.34224 
L 718.724457 104.475303 
L 718.819701 104.34224 
L 718.962568 104.475303 
L 719.010191 104.475303 
L 719.153058 104.34224 
L 719.39117 104.34224 
L 719.438792 104.209194 
L 719.486414 104.34224 
L 719.581659 104.34224 
L 719.772148 104.076132 
L 720.057883 104.076132 
L 720.105505 103.94307 
L 720.153127 104.076132 
L 720.343617 104.076132 
L 720.391239 104.209194 
L 720.438861 104.076132 
L 720.581728 103.94307 
L 720.629351 104.076132 
L 720.676973 103.94307 
L 720.772218 103.94307 
L 720.81984 104.209194 
L 720.867462 103.94307 
L 720.915085 103.94307 
L 721.057952 103.810023 
L 721.105574 103.94307 
L 721.153197 103.810023 
L 721.200819 103.810023 
L 721.391308 104.076132 
L 721.534175 103.94307 
L 721.677042 104.076132 
L 722.439 104.076132 
L 722.439 104.076132 
" clip-path="url(#p3afc3bf7f3)" style="fill: none; stroke: #1f77b4; stroke-width: 1.5; stroke-linecap: square"/>
   </g>
   <g id="patch_3">
    <path d="M 365.319 311.6435 
L 365.319 45.5315 
" style="fill: none; stroke: #000000; stroke-width: 0.8; stroke-linejoin: miter; stroke-linecap: square"/>
   </g>
   <g id="patch_4">
    <path d="M 722.439 311.6435 
L 722.439 45.5315 
" style="fill: none; stroke: #000000; stroke-width: 0.8; stroke-linejoin: miter; stroke-linecap: square"/>
   </g>
   <g id="patch_5">
    <path d="M 365.319 311.6435 
L 722.439 311.6435 
" style="fill: none; stroke: #000000; stroke-width: 0.8; stroke-linejoin: miter; stroke-linecap: square"/>
   </g>
   <g id="patch_6">
    <path d="M 365.319 45.5315 
L 722.439 45.5315 
" style="fill: none; stroke: #000000; stroke-width: 0.8; stroke-linejoin: miter; stroke-linecap: square"/>
   </g>
   <g id="text_18">
    <!-- Accuracy of the 09_07_25_CIFAR10_torch_model_(1024+2048.1+1)_elk-horse on the validation set -->
    <g transform="translate(7.2 25.5315) scale(0.264 -0.264)">
     <defs>
      <path id="TimesNewRomanPSMT-68" d="M 1041 4444 
L 1041 2350 
Q 1388 2731 1591 2839 
Q 1794 2947 1997 2947 
Q 2241 2947 2416 2812 
Q 2591 2678 2675 2391 
Q 2734 2191 2734 1659 
L 2734 647 
Q 2734 375 2778 275 
Q 2809 200 2884 156 
Q 2959 113 3159 113 
L 3159 0 
L 1753 0 
L 1753 113 
L 1819 113 
Q 2019 113 2097 173 
Q 2175 234 2206 353 
Q 2216 403 2216 647 
L 2216 1659 
Q 2216 2128 2167 2275 
Q 2119 2422 2012 2495 
Q 1906 2569 1756 2569 
Q 1603 2569 1437 2487 
Q 1272 2406 1041 2159 
L 1041 647 
Q 1041 353 1073 281 
Q 1106 209 1195 161 
Q 1284 113 1503 113 
L 1503 0 
L 84 0 
L 84 113 
Q 275 113 384 172 
Q 447 203 484 290 
Q 522 378 522 647 
L 522 3238 
Q 522 3728 498 3840 
Q 475 3953 426 3993 
Q 378 4034 297 4034 
Q 231 4034 84 3984 
L 41 4094 
L 897 4444 
L 1041 4444 
z
" transform="scale(0.015625)"/>
      <path id="TimesNewRomanPSMT-5f" d="M 3256 -1381 
L -53 -1381 
L -53 -1119 
L 3256 -1119 
L 3256 -1381 
z
" transform="scale(0.015625)"/>
      <path id="TimesNewRomanPSMT-43" d="M 3853 4334 
L 3950 2894 
L 3853 2894 
Q 3659 3541 3300 3825 
Q 2941 4109 2438 4109 
Q 2016 4109 1675 3895 
Q 1334 3681 1139 3212 
Q 944 2744 944 2047 
Q 944 1472 1128 1050 
Q 1313 628 1683 403 
Q 2053 178 2528 178 
Q 2941 178 3256 354 
Q 3572 531 3950 1056 
L 4047 994 
Q 3728 428 3303 165 
Q 2878 -97 2294 -97 
Q 1241 -97 663 684 
Q 231 1266 231 2053 
Q 231 2688 515 3219 
Q 800 3750 1298 4042 
Q 1797 4334 2388 4334 
Q 2847 4334 3294 4109 
Q 3425 4041 3481 4041 
Q 3566 4041 3628 4100 
Q 3709 4184 3744 4334 
L 3853 4334 
z
" transform="scale(0.015625)"/>
      <path id="TimesNewRomanPSMT-49" d="M 1975 116 
L 1975 0 
L 159 0 
L 159 116 
L 309 116 
Q 572 116 691 269 
Q 766 369 766 750 
L 766 3488 
Q 766 3809 725 3913 
Q 694 3991 597 4047 
Q 459 4122 309 4122 
L 159 4122 
L 159 4238 
L 1975 4238 
L 1975 4122 
L 1822 4122 
Q 1563 4122 1444 3969 
Q 1366 3869 1366 3488 
L 1366 750 
Q 1366 428 1406 325 
Q 1438 247 1538 191 
Q 1672 116 1822 116 
L 1975 116 
z
" transform="scale(0.015625)"/>
      <path id="TimesNewRomanPSMT-46" d="M 1309 4006 
L 1309 2341 
L 2081 2341 
Q 2347 2341 2470 2458 
Q 2594 2575 2634 2922 
L 2750 2922 
L 2750 1488 
L 2634 1488 
Q 2631 1734 2570 1850 
Q 2509 1966 2401 2023 
Q 2294 2081 2081 2081 
L 1309 2081 
L 1309 750 
Q 1309 428 1350 325 
Q 1381 247 1481 191 
Q 1619 116 1769 116 
L 1922 116 
L 1922 0 
L 103 0 
L 103 116 
L 253 116 
Q 516 116 634 269 
Q 709 369 709 750 
L 709 3488 
Q 709 3809 669 3913 
Q 638 3991 541 4047 
Q 406 4122 253 4122 
L 103 4122 
L 103 4238 
L 3256 4238 
L 3297 3306 
L 3188 3306 
Q 3106 3603 2998 3742 
Q 2891 3881 2733 3943 
Q 2575 4006 2244 4006 
L 1309 4006 
z
" transform="scale(0.015625)"/>
      <path id="TimesNewRomanPSMT-52" d="M 4325 0 
L 3194 0 
L 1759 1981 
Q 1600 1975 1500 1975 
Q 1459 1975 1412 1976 
Q 1366 1978 1316 1981 
L 1316 750 
Q 1316 350 1403 253 
Q 1522 116 1759 116 
L 1925 116 
L 1925 0 
L 109 0 
L 109 116 
L 269 116 
Q 538 116 653 291 
Q 719 388 719 750 
L 719 3488 
Q 719 3888 631 3984 
Q 509 4122 269 4122 
L 109 4122 
L 109 4238 
L 1653 4238 
Q 2328 4238 2648 4139 
Q 2969 4041 3192 3777 
Q 3416 3513 3416 3147 
Q 3416 2756 3161 2468 
Q 2906 2181 2372 2063 
L 3247 847 
Q 3547 428 3762 290 
Q 3978 153 4325 116 
L 4325 0 
z
M 1316 2178 
Q 1375 2178 1419 2176 
Q 1463 2175 1491 2175 
Q 2097 2175 2405 2437 
Q 2713 2700 2713 3106 
Q 2713 3503 2464 3751 
Q 2216 4000 1806 4000 
Q 1625 4000 1316 3941 
L 1316 2178 
z
" transform="scale(0.015625)"/>
      <path id="TimesNewRomanPSMT-64" d="M 2222 322 
Q 2013 103 1813 7 
Q 1613 -88 1381 -88 
Q 913 -88 563 304 
Q 213 697 213 1313 
Q 213 1928 600 2439 
Q 988 2950 1597 2950 
Q 1975 2950 2222 2709 
L 2222 3238 
Q 2222 3728 2198 3840 
Q 2175 3953 2125 3993 
Q 2075 4034 2000 4034 
Q 1919 4034 1784 3984 
L 1744 4094 
L 2597 4444 
L 2738 4444 
L 2738 1134 
Q 2738 631 2761 520 
Q 2784 409 2836 365 
Q 2888 322 2956 322 
Q 3041 322 3181 375 
L 3216 266 
L 2366 -88 
L 2222 -88 
L 2222 322 
z
M 2222 541 
L 2222 2016 
Q 2203 2228 2109 2403 
Q 2016 2578 1861 2667 
Q 1706 2756 1559 2756 
Q 1284 2756 1069 2509 
Q 784 2184 784 1559 
Q 784 928 1059 592 
Q 1334 256 1672 256 
Q 1956 256 2222 541 
z
" transform="scale(0.015625)"/>
      <path id="TimesNewRomanPSMT-6c" d="M 1184 4444 
L 1184 647 
Q 1184 378 1223 290 
Q 1263 203 1344 158 
Q 1425 113 1647 113 
L 1647 0 
L 244 0 
L 244 113 
Q 441 113 512 153 
Q 584 194 625 287 
Q 666 381 666 647 
L 666 3247 
Q 666 3731 644 3842 
Q 622 3953 573 3993 
Q 525 4034 450 4034 
Q 369 4034 244 3984 
L 191 4094 
L 1044 4444 
L 1184 4444 
z
" transform="scale(0.015625)"/>
      <path id="TimesNewRomanPSMT-28" d="M 1988 -1253 
L 1988 -1369 
Q 1516 -1131 1200 -813 
Q 750 -359 506 256 
Q 263 872 263 1534 
Q 263 2503 741 3301 
Q 1219 4100 1988 4444 
L 1988 4313 
Q 1603 4100 1356 3731 
Q 1109 3363 987 2797 
Q 866 2231 866 1616 
Q 866 947 969 400 
Q 1050 -31 1165 -292 
Q 1281 -553 1476 -793 
Q 1672 -1034 1988 -1253 
z
" transform="scale(0.015625)"/>
      <path id="TimesNewRomanPSMT-2b" d="M 1672 441 
L 1672 2000 
L 116 2000 
L 116 2256 
L 1672 2256 
L 1672 3809 
L 1922 3809 
L 1922 2256 
L 3484 2256 
L 3484 2000 
L 1922 2000 
L 1922 441 
L 1672 441 
z
" transform="scale(0.015625)"/>
      <path id="TimesNewRomanPSMT-29" d="M 144 4313 
L 144 4444 
Q 619 4209 934 3891 
Q 1381 3434 1625 2820 
Q 1869 2206 1869 1541 
Q 1869 572 1392 -226 
Q 916 -1025 144 -1369 
L 144 -1253 
Q 528 -1038 776 -670 
Q 1025 -303 1145 264 
Q 1266 831 1266 1447 
Q 1266 2113 1163 2663 
Q 1084 3094 967 3353 
Q 850 3613 656 3853 
Q 463 4094 144 4313 
z
" transform="scale(0.015625)"/>
      <path id="TimesNewRomanPSMT-6b" d="M 1047 4444 
L 1047 1594 
L 1775 2259 
Q 2006 2472 2044 2528 
Q 2069 2566 2069 2603 
Q 2069 2666 2017 2711 
Q 1966 2756 1847 2763 
L 1847 2863 
L 3091 2863 
L 3091 2763 
Q 2834 2756 2664 2684 
Q 2494 2613 2291 2428 
L 1556 1750 
L 2291 822 
Q 2597 438 2703 334 
Q 2853 188 2966 144 
Q 3044 113 3238 113 
L 3238 0 
L 1847 0 
L 1847 113 
Q 1966 116 2008 148 
Q 2050 181 2050 241 
Q 2050 313 1925 472 
L 1047 1594 
L 1047 644 
Q 1047 366 1086 278 
Q 1125 191 1197 153 
Q 1269 116 1509 113 
L 1509 0 
L 53 0 
L 53 113 
Q 272 113 381 166 
Q 447 200 481 272 
Q 528 375 528 628 
L 528 3234 
Q 528 3731 506 3842 
Q 484 3953 434 3995 
Q 384 4038 303 4038 
Q 238 4038 106 3984 
L 53 4094 
L 903 4444 
L 1047 4444 
z
" transform="scale(0.015625)"/>
      <path id="TimesNewRomanPSMT-2d" d="M 259 1672 
L 1875 1672 
L 1875 1200 
L 259 1200 
L 259 1672 
z
" transform="scale(0.015625)"/>
      <path id="TimesNewRomanPSMT-76" d="M 53 2863 
L 1400 2863 
L 1400 2747 
L 1313 2747 
Q 1191 2747 1127 2687 
Q 1063 2628 1063 2528 
Q 1063 2419 1128 2269 
L 1794 688 
L 2463 2328 
Q 2534 2503 2534 2594 
Q 2534 2638 2509 2666 
Q 2475 2713 2422 2730 
Q 2369 2747 2206 2747 
L 2206 2863 
L 3141 2863 
L 3141 2747 
Q 2978 2734 2916 2681 
Q 2806 2588 2719 2369 
L 1703 -88 
L 1575 -88 
L 553 2328 
Q 484 2497 421 2570 
Q 359 2644 263 2694 
Q 209 2722 53 2747 
L 53 2863 
z
" transform="scale(0.015625)"/>
     </defs>
     <use xlink:href="#TimesNewRomanPSMT-41"/>
     <use xlink:href="#TimesNewRomanPSMT-63" transform="translate(72.216797 0)"/>
     <use xlink:href="#TimesNewRomanPSMT-63" transform="translate(116.601562 0)"/>
     <use xlink:href="#TimesNewRomanPSMT-75" transform="translate(160.986328 0)"/>
     <use xlink:href="#TimesNewRomanPSMT-72" transform="translate(210.986328 0)"/>
     <use xlink:href="#TimesNewRomanPSMT-61" transform="translate(244.287109 0)"/>
     <use xlink:href="#TimesNewRomanPSMT-63" transform="translate(288.671875 0)"/>
     <use xlink:href="#TimesNewRomanPSMT-79" transform="translate(333.056641 0)"/>
     <use xlink:href="#TimesNewRomanPSMT-20" transform="translate(383.056641 0)"/>
     <use xlink:href="#TimesNewRomanPSMT-6f" transform="translate(408.056641 0)"/>
     <use xlink:href="#TimesNewRomanPSMT-66" transform="translate(458.056641 0)"/>
     <use xlink:href="#TimesNewRomanPSMT-20" transform="translate(491.357422 0)"/>
     <use xlink:href="#TimesNewRomanPSMT-74" transform="translate(516.357422 0)"/>
     <use xlink:href="#TimesNewRomanPSMT-68" transform="translate(544.140625 0)"/>
     <use xlink:href="#TimesNewRomanPSMT-65" transform="translate(594.140625 0)"/>
     <use xlink:href="#TimesNewRomanPSMT-20" transform="translate(638.525391 0)"/>
     <use xlink:href="#TimesNewRomanPSMT-30" transform="translate(663.525391 0)"/>
     <use xlink:href="#TimesNewRomanPSMT-39" transform="translate(713.525391 0)"/>
     <use xlink:href="#TimesNewRomanPSMT-5f" transform="translate(763.525391 0)"/>
     <use xlink:href="#TimesNewRomanPSMT-30" transform="translate(813.525391 0)"/>
     <use xlink:href="#TimesNewRomanPSMT-37" transform="translate(863.525391 0)"/>
     <use xlink:href="#TimesNewRomanPSMT-5f" transform="translate(913.525391 0)"/>
     <use xlink:href="#TimesNewRomanPSMT-32" transform="translate(963.525391 0)"/>
     <use xlink:href="#TimesNewRomanPSMT-35" transform="translate(1013.525391 0)"/>
     <use xlink:href="#TimesNewRomanPSMT-5f" transform="translate(1063.525391 0)"/>
     <use xlink:href="#TimesNewRomanPSMT-43" transform="translate(1113.525391 0)"/>
     <use xlink:href="#TimesNewRomanPSMT-49" transform="translate(1180.224609 0)"/>
     <use xlink:href="#TimesNewRomanPSMT-46" transform="translate(1213.525391 0)"/>
     <use xlink:href="#TimesNewRomanPSMT-41" transform="translate(1261.765625 0)"/>
     <use xlink:href="#TimesNewRomanPSMT-52" transform="translate(1333.982422 0)"/>
     <use xlink:href="#TimesNewRomanPSMT-31" transform="translate(1400.681641 0)"/>
     <use xlink:href="#TimesNewRomanPSMT-30" transform="translate(1450.681641 0)"/>
     <use xlink:href="#TimesNewRomanPSMT-5f" transform="translate(1500.681641 0)"/>
     <use xlink:href="#TimesNewRomanPSMT-74" transform="translate(1550.681641 0)"/>
     <use xlink:href="#TimesNewRomanPSMT-6f" transform="translate(1578.464844 0)"/>
     <use xlink:href="#TimesNewRomanPSMT-72" transform="translate(1628.464844 0)"/>
     <use xlink:href="#TimesNewRomanPSMT-63" transform="translate(1661.765625 0)"/>
     <use xlink:href="#TimesNewRomanPSMT-68" transform="translate(1706.150391 0)"/>
     <use xlink:href="#TimesNewRomanPSMT-5f" transform="translate(1756.150391 0)"/>
     <use xlink:href="#TimesNewRomanPSMT-6d" transform="translate(1806.150391 0)"/>
     <use xlink:href="#TimesNewRomanPSMT-6f" transform="translate(1883.933594 0)"/>
     <use xlink:href="#TimesNewRomanPSMT-64" transform="translate(1933.933594 0)"/>
     <use xlink:href="#TimesNewRomanPSMT-65" transform="translate(1983.933594 0)"/>
     <use xlink:href="#TimesNewRomanPSMT-6c" transform="translate(2028.318359 0)"/>
     <use xlink:href="#TimesNewRomanPSMT-5f" transform="translate(2056.101562 0)"/>
     <use xlink:href="#TimesNewRomanPSMT-28" transform="translate(2106.101562 0)"/>
     <use xlink:href="#TimesNewRomanPSMT-31" transform="translate(2139.402344 0)"/>
     <use xlink:href="#TimesNewRomanPSMT-30" transform="translate(2189.402344 0)"/>
     <use xlink:href="#TimesNewRomanPSMT-32" transform="translate(2239.402344 0)"/>
     <use xlink:href="#TimesNewRomanPSMT-34" transform="translate(2289.402344 0)"/>
     <use xlink:href="#TimesNewRomanPSMT-2b" transform="translate(2339.402344 0)"/>
     <use xlink:href="#TimesNewRomanPSMT-32" transform="translate(2395.798828 0)"/>
     <use xlink:href="#TimesNewRomanPSMT-30" transform="translate(2445.798828 0)"/>
     <use xlink:href="#TimesNewRomanPSMT-34" transform="translate(2495.798828 0)"/>
     <use xlink:href="#TimesNewRomanPSMT-38" transform="translate(2545.798828 0)"/>
     <use xlink:href="#TimesNewRomanPSMT-2e" transform="translate(2595.798828 0)"/>
     <use xlink:href="#TimesNewRomanPSMT-31" transform="translate(2620.798828 0)"/>
     <use xlink:href="#TimesNewRomanPSMT-2b" transform="translate(2670.798828 0)"/>
     <use xlink:href="#TimesNewRomanPSMT-31" transform="translate(2727.195312 0)"/>
     <use xlink:href="#TimesNewRomanPSMT-29" transform="translate(2777.195312 0)"/>
     <use xlink:href="#TimesNewRomanPSMT-5f" transform="translate(2810.496094 0)"/>
     <use xlink:href="#TimesNewRomanPSMT-65" transform="translate(2860.496094 0)"/>
     <use xlink:href="#TimesNewRomanPSMT-6c" transform="translate(2904.880859 0)"/>
     <use xlink:href="#TimesNewRomanPSMT-6b" transform="translate(2932.664062 0)"/>
     <use xlink:href="#TimesNewRomanPSMT-2d" transform="translate(2982.664062 0)"/>
     <use xlink:href="#TimesNewRomanPSMT-68" transform="translate(3015.964844 0)"/>
     <use xlink:href="#TimesNewRomanPSMT-6f" transform="translate(3065.964844 0)"/>
     <use xlink:href="#TimesNewRomanPSMT-72" transform="translate(3115.964844 0)"/>
     <use xlink:href="#TimesNewRomanPSMT-73" transform="translate(3149.265625 0)"/>
     <use xlink:href="#TimesNewRomanPSMT-65" transform="translate(3188.181641 0)"/>
     <use xlink:href="#TimesNewRomanPSMT-20" transform="translate(3232.566406 0)"/>
     <use xlink:href="#TimesNewRomanPSMT-6f" transform="translate(3257.566406 0)"/>
     <use xlink:href="#TimesNewRomanPSMT-6e" transform="translate(3307.566406 0)"/>
     <use xlink:href="#TimesNewRomanPSMT-20" transform="translate(3357.566406 0)"/>
     <use xlink:href="#TimesNewRomanPSMT-74" transform="translate(3382.566406 0)"/>
     <use xlink:href="#TimesNewRomanPSMT-68" transform="translate(3410.349609 0)"/>
     <use xlink:href="#TimesNewRomanPSMT-65" transform="translate(3460.349609 0)"/>
     <use xlink:href="#TimesNewRomanPSMT-20" transform="translate(3504.734375 0)"/>
     <use xlink:href="#TimesNewRomanPSMT-76" transform="translate(3529.734375 0)"/>
     <use xlink:href="#TimesNewRomanPSMT-61" transform="translate(3579.734375 0)"/>
     <use xlink:href="#TimesNewRomanPSMT-6c" transform="translate(3624.119141 0)"/>
     <use xlink:href="#TimesNewRomanPSMT-69" transform="translate(3651.902344 0)"/>
     <use xlink:href="#TimesNewRomanPSMT-64" transform="translate(3679.685547 0)"/>
     <use xlink:href="#TimesNewRomanPSMT-61" transform="translate(3729.685547 0)"/>
     <use xlink:href="#TimesNewRomanPSMT-74" transform="translate(3774.070312 0)"/>
     <use xlink:href="#TimesNewRomanPSMT-69" transform="translate(3801.853516 0)"/>
     <use xlink:href="#TimesNewRomanPSMT-6f" transform="translate(3829.636719 0)"/>
     <use xlink:href="#TimesNewRomanPSMT-6e" transform="translate(3879.636719 0)"/>
     <use xlink:href="#TimesNewRomanPSMT-20" transform="translate(3929.636719 0)"/>
     <use xlink:href="#TimesNewRomanPSMT-73" transform="translate(3954.636719 0)"/>
     <use xlink:href="#TimesNewRomanPSMT-65" transform="translate(3993.552734 0)"/>
     <use xlink:href="#TimesNewRomanPSMT-74" transform="translate(4037.9375 0)"/>
    </g>
   </g>
   <g id="legend_1">
    <g id="patch_7">
     <path d="M 469.868688 94.278687 
L 707.039 94.278687 
Q 711.439 94.278687 711.439 89.878687 
L 711.439 60.9315 
Q 711.439 56.5315 707.039 56.5315 
L 469.868688 56.5315 
Q 465.468688 56.5315 465.468688 60.9315 
L 465.468688 89.878687 
Q 465.468688 94.278687 469.868688 94.278687 
z
" style="fill: #ffffff; opacity: 0.8; stroke: #cccccc; stroke-linejoin: miter"/>
    </g>
    <g id="line2d_32">
     <path d="M 474.268688 73.0315 
L 496.268688 73.0315 
L 518.268688 73.0315 
" style="fill: none; stroke: #1f77b4; stroke-width: 1.5; stroke-linecap: square"/>
    </g>
    <g id="text_19">
     <!-- Best accuracy 0.79 -->
     <g transform="translate(535.868688 80.7315) scale(0.22 -0.22)">
      <defs>
       <path id="TimesNewRomanPSMT-42" d="M 2956 2163 
Q 3397 2069 3616 1863 
Q 3919 1575 3919 1159 
Q 3919 844 3719 555 
Q 3519 266 3170 133 
Q 2822 0 2106 0 
L 106 0 
L 106 116 
L 266 116 
Q 531 116 647 284 
Q 719 394 719 750 
L 719 3488 
Q 719 3881 628 3984 
Q 506 4122 266 4122 
L 106 4122 
L 106 4238 
L 1938 4238 
Q 2450 4238 2759 4163 
Q 3228 4050 3475 3764 
Q 3722 3478 3722 3106 
Q 3722 2788 3528 2536 
Q 3334 2284 2956 2163 
z
M 1319 2331 
Q 1434 2309 1582 2298 
Q 1731 2288 1909 2288 
Q 2366 2288 2595 2386 
Q 2825 2484 2947 2687 
Q 3069 2891 3069 3131 
Q 3069 3503 2766 3765 
Q 2463 4028 1881 4028 
Q 1569 4028 1319 3959 
L 1319 2331 
z
M 1319 306 
Q 1681 222 2034 222 
Q 2600 222 2897 476 
Q 3194 731 3194 1106 
Q 3194 1353 3059 1581 
Q 2925 1809 2622 1940 
Q 2319 2072 1872 2072 
Q 1678 2072 1540 2065 
Q 1403 2059 1319 2044 
L 1319 306 
z
" transform="scale(0.015625)"/>
      </defs>
      <use xlink:href="#TimesNewRomanPSMT-42"/>
      <use xlink:href="#TimesNewRomanPSMT-65" transform="translate(66.699219 0)"/>
      <use xlink:href="#TimesNewRomanPSMT-73" transform="translate(111.083984 0)"/>
      <use xlink:href="#TimesNewRomanPSMT-74" transform="translate(150 0)"/>
      <use xlink:href="#TimesNewRomanPSMT-20" transform="translate(177.783203 0)"/>
      <use xlink:href="#TimesNewRomanPSMT-61" transform="translate(202.783203 0)"/>
      <use xlink:href="#TimesNewRomanPSMT-63" transform="translate(247.167969 0)"/>
      <use xlink:href="#TimesNewRomanPSMT-63" transform="translate(291.552734 0)"/>
      <use xlink:href="#TimesNewRomanPSMT-75" transform="translate(335.9375 0)"/>
      <use xlink:href="#TimesNewRomanPSMT-72" transform="translate(385.9375 0)"/>
      <use xlink:href="#TimesNewRomanPSMT-61" transform="translate(419.238281 0)"/>
      <use xlink:href="#TimesNewRomanPSMT-63" transform="translate(463.623047 0)"/>
      <use xlink:href="#TimesNewRomanPSMT-79" transform="translate(508.007812 0)"/>
      <use xlink:href="#TimesNewRomanPSMT-20" transform="translate(558.007812 0)"/>
      <use xlink:href="#TimesNewRomanPSMT-30" transform="translate(583.007812 0)"/>
      <use xlink:href="#TimesNewRomanPSMT-2e" transform="translate(633.007812 0)"/>
      <use xlink:href="#TimesNewRomanPSMT-37" transform="translate(658.007812 0)"/>
      <use xlink:href="#TimesNewRomanPSMT-39" transform="translate(708.007812 0)"/>
     </g>
    </g>
   </g>
  </g>
 </g>
 <defs>
  <clipPath id="p3afc3bf7f3">
   <rect x="365.319" y="45.5315" width="357.12" height="266.112"/>
  </clipPath>
 </defs>
</svg>
