<?xml version="1.0" encoding="utf-8" standalone="no"?>
<!DOCTYPE svg PUBLIC "-//W3C//DTD SVG 1.1//EN"
  "http://www.w3.org/Graphics/SVG/1.1/DTD/svg11.dtd">
<svg xmlns:xlink="http://www.w3.org/1999/xlink" width="1039.829625pt" height="369.807875pt" viewBox="0 0 1039.829625 369.807875" xmlns="http://www.w3.org/2000/svg" version="1.1">
 <metadata>
  <rdf:RDF xmlns:dc="http://purl.org/dc/elements/1.1/" xmlns:cc="http://creativecommons.org/ns#" xmlns:rdf="http://www.w3.org/1999/02/22-rdf-syntax-ns#">
   <cc:Work>
    <dc:type rdf:resource="http://purl.org/dc/dcmitype/StillImage"/>
    <dc:date>2025-05-26T12:24:34.214041</dc:date>
    <dc:format>image/svg+xml</dc:format>
    <dc:creator>
     <cc:Agent>
      <dc:title>Matplotlib v3.10.1, https://matplotlib.org/</dc:title>
     </cc:Agent>
    </dc:creator>
   </cc:Work>
  </rdf:RDF>
 </metadata>
 <defs>
  <style type="text/css">*{stroke-linejoin: round; stroke-linecap: butt}</style>
 </defs>
 <g id="figure_1">
  <g id="patch_1">
   <path d="M 0 369.807875 
L 1039.829625 369.807875 
L 1039.829625 0 
L 0 0 
z
" style="fill: #ffffff"/>
  </g>
  <g id="axes_1">
   <g id="patch_2">
    <path d="M 341.354813 311.6435 
L 698.474813 311.6435 
L 698.474813 45.5315 
L 341.354813 45.5315 
z
" style="fill: #ffffff"/>
   </g>
   <g id="matplotlib.axis_1">
    <g id="xtick_1">
     <g id="line2d_1">
      <path d="M 341.354813 311.6435 
L 341.354813 45.5315 
" clip-path="url(#pcff7c0cc46)" style="fill: none; stroke: #b0b0b0; stroke-opacity: 0.3; stroke-width: 0.8; stroke-linecap: square"/>
     </g>
     <g id="line2d_2">
      <defs>
       <path id="m94fba2edb6" d="M 0 0 
L 0 3.5 
" style="stroke: #000000; stroke-width: 0.8"/>
      </defs>
      <g>
       <use xlink:href="#m94fba2edb6" x="341.354813" y="311.6435" style="stroke: #000000; stroke-width: 0.8"/>
      </g>
     </g>
     <g id="text_1">
      <!-- 0 -->
      <g transform="translate(335.854813 333.91975) scale(0.22 -0.22)">
       <defs>
        <path id="TimesNewRomanPSMT-30" d="M 231 2094 
Q 231 2819 450 3342 
Q 669 3866 1031 4122 
Q 1313 4325 1613 4325 
Q 2100 4325 2488 3828 
Q 2972 3213 2972 2159 
Q 2972 1422 2759 906 
Q 2547 391 2217 158 
Q 1888 -75 1581 -75 
Q 975 -75 572 641 
Q 231 1244 231 2094 
z
M 844 2016 
Q 844 1141 1059 588 
Q 1238 122 1591 122 
Q 1759 122 1940 273 
Q 2122 425 2216 781 
Q 2359 1319 2359 2297 
Q 2359 3022 2209 3506 
Q 2097 3866 1919 4016 
Q 1791 4119 1609 4119 
Q 1397 4119 1231 3928 
Q 1006 3669 925 3112 
Q 844 2556 844 2016 
z
" transform="scale(0.015625)"/>
       </defs>
       <use xlink:href="#TimesNewRomanPSMT-30"/>
      </g>
     </g>
    </g>
    <g id="xtick_2">
     <g id="line2d_3">
      <path d="M 473.425818 311.6435 
L 473.425818 45.5315 
" clip-path="url(#pcff7c0cc46)" style="fill: none; stroke: #b0b0b0; stroke-opacity: 0.3; stroke-width: 0.8; stroke-linecap: square"/>
     </g>
     <g id="line2d_4">
      <g>
       <use xlink:href="#m94fba2edb6" x="473.425818" y="311.6435" style="stroke: #000000; stroke-width: 0.8"/>
      </g>
     </g>
     <g id="text_2">
      <!-- 10000 -->
      <g transform="translate(445.925818 333.91975) scale(0.22 -0.22)">
       <defs>
        <path id="TimesNewRomanPSMT-31" d="M 750 3822 
L 1781 4325 
L 1884 4325 
L 1884 747 
Q 1884 391 1914 303 
Q 1944 216 2037 169 
Q 2131 122 2419 116 
L 2419 0 
L 825 0 
L 825 116 
Q 1125 122 1212 167 
Q 1300 213 1334 289 
Q 1369 366 1369 747 
L 1369 3034 
Q 1369 3497 1338 3628 
Q 1316 3728 1258 3775 
Q 1200 3822 1119 3822 
Q 1003 3822 797 3725 
L 750 3822 
z
" transform="scale(0.015625)"/>
       </defs>
       <use xlink:href="#TimesNewRomanPSMT-31"/>
       <use xlink:href="#TimesNewRomanPSMT-30" transform="translate(50 0)"/>
       <use xlink:href="#TimesNewRomanPSMT-30" transform="translate(100 0)"/>
       <use xlink:href="#TimesNewRomanPSMT-30" transform="translate(150 0)"/>
       <use xlink:href="#TimesNewRomanPSMT-30" transform="translate(200 0)"/>
      </g>
     </g>
    </g>
    <g id="xtick_3">
     <g id="line2d_5">
      <path d="M 605.496824 311.6435 
L 605.496824 45.5315 
" clip-path="url(#pcff7c0cc46)" style="fill: none; stroke: #b0b0b0; stroke-opacity: 0.3; stroke-width: 0.8; stroke-linecap: square"/>
     </g>
     <g id="line2d_6">
      <g>
       <use xlink:href="#m94fba2edb6" x="605.496824" y="311.6435" style="stroke: #000000; stroke-width: 0.8"/>
      </g>
     </g>
     <g id="text_3">
      <!-- 20000 -->
      <g transform="translate(577.996824 333.91975) scale(0.22 -0.22)">
       <defs>
        <path id="TimesNewRomanPSMT-32" d="M 2934 816 
L 2638 0 
L 138 0 
L 138 116 
Q 1241 1122 1691 1759 
Q 2141 2397 2141 2925 
Q 2141 3328 1894 3587 
Q 1647 3847 1303 3847 
Q 991 3847 742 3664 
Q 494 3481 375 3128 
L 259 3128 
Q 338 3706 661 4015 
Q 984 4325 1469 4325 
Q 1984 4325 2329 3994 
Q 2675 3663 2675 3213 
Q 2675 2891 2525 2569 
Q 2294 2063 1775 1497 
Q 997 647 803 472 
L 1909 472 
Q 2247 472 2383 497 
Q 2519 522 2628 598 
Q 2738 675 2819 816 
L 2934 816 
z
" transform="scale(0.015625)"/>
       </defs>
       <use xlink:href="#TimesNewRomanPSMT-32"/>
       <use xlink:href="#TimesNewRomanPSMT-30" transform="translate(50 0)"/>
       <use xlink:href="#TimesNewRomanPSMT-30" transform="translate(100 0)"/>
       <use xlink:href="#TimesNewRomanPSMT-30" transform="translate(150 0)"/>
       <use xlink:href="#TimesNewRomanPSMT-30" transform="translate(200 0)"/>
      </g>
     </g>
    </g>
    <g id="text_4">
     <!-- Number of iterations -->
     <g transform="translate(428.272781 357.901937) scale(0.22 -0.22)">
      <defs>
       <path id="TimesNewRomanPSMT-4e" d="M -84 4238 
L 1066 4238 
L 3656 1059 
L 3656 3503 
Q 3656 3894 3569 3991 
Q 3453 4122 3203 4122 
L 3056 4122 
L 3056 4238 
L 4531 4238 
L 4531 4122 
L 4381 4122 
Q 4113 4122 4000 3959 
Q 3931 3859 3931 3503 
L 3931 -69 
L 3819 -69 
L 1025 3344 
L 1025 734 
Q 1025 344 1109 247 
Q 1228 116 1475 116 
L 1625 116 
L 1625 0 
L 150 0 
L 150 116 
L 297 116 
Q 569 116 681 278 
Q 750 378 750 734 
L 750 3681 
Q 566 3897 470 3965 
Q 375 4034 191 4094 
Q 100 4122 -84 4122 
L -84 4238 
z
" transform="scale(0.015625)"/>
       <path id="TimesNewRomanPSMT-75" d="M 2709 2863 
L 2709 1128 
Q 2709 631 2732 520 
Q 2756 409 2807 365 
Q 2859 322 2928 322 
Q 3025 322 3147 375 
L 3191 266 
L 2334 -88 
L 2194 -88 
L 2194 519 
Q 1825 119 1631 15 
Q 1438 -88 1222 -88 
Q 981 -88 804 51 
Q 628 191 559 409 
Q 491 628 491 1028 
L 491 2306 
Q 491 2509 447 2587 
Q 403 2666 317 2708 
Q 231 2750 6 2747 
L 6 2863 
L 1009 2863 
L 1009 947 
Q 1009 547 1148 422 
Q 1288 297 1484 297 
Q 1619 297 1789 381 
Q 1959 466 2194 703 
L 2194 2325 
Q 2194 2569 2105 2655 
Q 2016 2741 1734 2747 
L 1734 2863 
L 2709 2863 
z
" transform="scale(0.015625)"/>
       <path id="TimesNewRomanPSMT-6d" d="M 1050 2338 
Q 1363 2650 1419 2697 
Q 1559 2816 1721 2881 
Q 1884 2947 2044 2947 
Q 2313 2947 2506 2790 
Q 2700 2634 2766 2338 
Q 3088 2713 3309 2830 
Q 3531 2947 3766 2947 
Q 3994 2947 4170 2830 
Q 4347 2713 4450 2447 
Q 4519 2266 4519 1878 
L 4519 647 
Q 4519 378 4559 278 
Q 4591 209 4675 161 
Q 4759 113 4950 113 
L 4950 0 
L 3538 0 
L 3538 113 
L 3597 113 
Q 3781 113 3884 184 
Q 3956 234 3988 344 
Q 4000 397 4000 647 
L 4000 1878 
Q 4000 2228 3916 2372 
Q 3794 2572 3525 2572 
Q 3359 2572 3192 2489 
Q 3025 2406 2788 2181 
L 2781 2147 
L 2788 2013 
L 2788 647 
Q 2788 353 2820 281 
Q 2853 209 2943 161 
Q 3034 113 3253 113 
L 3253 0 
L 1806 0 
L 1806 113 
Q 2044 113 2133 169 
Q 2222 225 2256 338 
Q 2272 391 2272 647 
L 2272 1878 
Q 2272 2228 2169 2381 
Q 2031 2581 1784 2581 
Q 1616 2581 1450 2491 
Q 1191 2353 1050 2181 
L 1050 647 
Q 1050 366 1089 281 
Q 1128 197 1204 155 
Q 1281 113 1516 113 
L 1516 0 
L 100 0 
L 100 113 
Q 297 113 375 155 
Q 453 197 493 289 
Q 534 381 534 647 
L 534 1741 
Q 534 2213 506 2350 
Q 484 2453 437 2492 
Q 391 2531 309 2531 
Q 222 2531 100 2484 
L 53 2597 
L 916 2947 
L 1050 2947 
L 1050 2338 
z
" transform="scale(0.015625)"/>
       <path id="TimesNewRomanPSMT-62" d="M 984 2369 
Q 1400 2947 1881 2947 
Q 2322 2947 2650 2570 
Q 2978 2194 2978 1541 
Q 2978 778 2472 313 
Q 2038 -88 1503 -88 
Q 1253 -88 995 3 
Q 738 94 469 275 
L 469 3241 
Q 469 3728 445 3840 
Q 422 3953 372 3993 
Q 322 4034 247 4034 
Q 159 4034 28 3984 
L -16 4094 
L 844 4444 
L 984 4444 
L 984 2369 
z
M 984 2169 
L 984 456 
Q 1144 300 1314 220 
Q 1484 141 1663 141 
Q 1947 141 2192 453 
Q 2438 766 2438 1363 
Q 2438 1913 2192 2208 
Q 1947 2503 1634 2503 
Q 1469 2503 1303 2419 
Q 1178 2356 984 2169 
z
" transform="scale(0.015625)"/>
       <path id="TimesNewRomanPSMT-65" d="M 681 1784 
Q 678 1147 991 784 
Q 1303 422 1725 422 
Q 2006 422 2214 576 
Q 2422 731 2563 1106 
L 2659 1044 
Q 2594 616 2278 264 
Q 1963 -88 1488 -88 
Q 972 -88 605 314 
Q 238 716 238 1394 
Q 238 2128 614 2539 
Q 991 2950 1559 2950 
Q 2041 2950 2350 2633 
Q 2659 2316 2659 1784 
L 681 1784 
z
M 681 1966 
L 2006 1966 
Q 1991 2241 1941 2353 
Q 1863 2528 1708 2628 
Q 1553 2728 1384 2728 
Q 1125 2728 920 2526 
Q 716 2325 681 1966 
z
" transform="scale(0.015625)"/>
       <path id="TimesNewRomanPSMT-72" d="M 1038 2947 
L 1038 2303 
Q 1397 2947 1775 2947 
Q 1947 2947 2059 2842 
Q 2172 2738 2172 2600 
Q 2172 2478 2090 2393 
Q 2009 2309 1897 2309 
Q 1788 2309 1652 2417 
Q 1516 2525 1450 2525 
Q 1394 2525 1328 2463 
Q 1188 2334 1038 2041 
L 1038 669 
Q 1038 431 1097 309 
Q 1138 225 1241 169 
Q 1344 113 1538 113 
L 1538 0 
L 72 0 
L 72 113 
Q 291 113 397 181 
Q 475 231 506 341 
Q 522 394 522 644 
L 522 1753 
Q 522 2253 501 2348 
Q 481 2444 426 2487 
Q 372 2531 291 2531 
Q 194 2531 72 2484 
L 41 2597 
L 906 2947 
L 1038 2947 
z
" transform="scale(0.015625)"/>
       <path id="TimesNewRomanPSMT-20" transform="scale(0.015625)"/>
       <path id="TimesNewRomanPSMT-6f" d="M 1600 2947 
Q 2250 2947 2644 2453 
Q 2978 2031 2978 1484 
Q 2978 1100 2793 706 
Q 2609 313 2286 112 
Q 1963 -88 1566 -88 
Q 919 -88 538 428 
Q 216 863 216 1403 
Q 216 1797 411 2186 
Q 606 2575 925 2761 
Q 1244 2947 1600 2947 
z
M 1503 2744 
Q 1338 2744 1170 2645 
Q 1003 2547 900 2300 
Q 797 2053 797 1666 
Q 797 1041 1045 587 
Q 1294 134 1700 134 
Q 2003 134 2200 384 
Q 2397 634 2397 1244 
Q 2397 2006 2069 2444 
Q 1847 2744 1503 2744 
z
" transform="scale(0.015625)"/>
       <path id="TimesNewRomanPSMT-66" d="M 1319 2638 
L 1319 756 
Q 1319 356 1406 250 
Q 1522 113 1716 113 
L 1975 113 
L 1975 0 
L 266 0 
L 266 113 
L 394 113 
Q 519 113 622 175 
Q 725 238 764 344 
Q 803 450 803 756 
L 803 2638 
L 247 2638 
L 247 2863 
L 803 2863 
L 803 3050 
Q 803 3478 940 3775 
Q 1078 4072 1361 4255 
Q 1644 4438 1997 4438 
Q 2325 4438 2600 4225 
Q 2781 4084 2781 3909 
Q 2781 3816 2700 3733 
Q 2619 3650 2525 3650 
Q 2453 3650 2373 3701 
Q 2294 3753 2178 3923 
Q 2063 4094 1966 4153 
Q 1869 4213 1750 4213 
Q 1606 4213 1506 4136 
Q 1406 4059 1362 3898 
Q 1319 3738 1319 3069 
L 1319 2863 
L 2056 2863 
L 2056 2638 
L 1319 2638 
z
" transform="scale(0.015625)"/>
       <path id="TimesNewRomanPSMT-69" d="M 928 4444 
Q 1059 4444 1151 4351 
Q 1244 4259 1244 4128 
Q 1244 3997 1151 3903 
Q 1059 3809 928 3809 
Q 797 3809 703 3903 
Q 609 3997 609 4128 
Q 609 4259 701 4351 
Q 794 4444 928 4444 
z
M 1188 2947 
L 1188 647 
Q 1188 378 1227 289 
Q 1266 200 1342 156 
Q 1419 113 1622 113 
L 1622 0 
L 231 0 
L 231 113 
Q 441 113 512 153 
Q 584 194 626 287 
Q 669 381 669 647 
L 669 1750 
Q 669 2216 641 2353 
Q 619 2453 572 2492 
Q 525 2531 444 2531 
Q 356 2531 231 2484 
L 188 2597 
L 1050 2947 
L 1188 2947 
z
" transform="scale(0.015625)"/>
       <path id="TimesNewRomanPSMT-74" d="M 1031 3803 
L 1031 2863 
L 1700 2863 
L 1700 2644 
L 1031 2644 
L 1031 788 
Q 1031 509 1111 412 
Q 1191 316 1316 316 
Q 1419 316 1516 380 
Q 1613 444 1666 569 
L 1788 569 
Q 1678 263 1478 108 
Q 1278 -47 1066 -47 
Q 922 -47 784 33 
Q 647 113 581 261 
Q 516 409 516 719 
L 516 2644 
L 63 2644 
L 63 2747 
Q 234 2816 414 2980 
Q 594 3144 734 3369 
Q 806 3488 934 3803 
L 1031 3803 
z
" transform="scale(0.015625)"/>
       <path id="TimesNewRomanPSMT-61" d="M 1822 413 
Q 1381 72 1269 19 
Q 1100 -59 909 -59 
Q 613 -59 420 144 
Q 228 347 228 678 
Q 228 888 322 1041 
Q 450 1253 767 1440 
Q 1084 1628 1822 1897 
L 1822 2009 
Q 1822 2438 1686 2597 
Q 1550 2756 1291 2756 
Q 1094 2756 978 2650 
Q 859 2544 859 2406 
L 866 2225 
Q 866 2081 792 2003 
Q 719 1925 600 1925 
Q 484 1925 411 2006 
Q 338 2088 338 2228 
Q 338 2497 613 2722 
Q 888 2947 1384 2947 
Q 1766 2947 2009 2819 
Q 2194 2722 2281 2516 
Q 2338 2381 2338 1966 
L 2338 994 
Q 2338 584 2353 492 
Q 2369 400 2405 369 
Q 2441 338 2488 338 
Q 2538 338 2575 359 
Q 2641 400 2828 588 
L 2828 413 
Q 2478 -56 2159 -56 
Q 2006 -56 1915 50 
Q 1825 156 1822 413 
z
M 1822 616 
L 1822 1706 
Q 1350 1519 1213 1441 
Q 966 1303 859 1153 
Q 753 1003 753 825 
Q 753 600 887 451 
Q 1022 303 1197 303 
Q 1434 303 1822 616 
z
" transform="scale(0.015625)"/>
       <path id="TimesNewRomanPSMT-6e" d="M 1034 2341 
Q 1538 2947 1994 2947 
Q 2228 2947 2397 2830 
Q 2566 2713 2666 2444 
Q 2734 2256 2734 1869 
L 2734 647 
Q 2734 375 2778 278 
Q 2813 200 2889 156 
Q 2966 113 3172 113 
L 3172 0 
L 1756 0 
L 1756 113 
L 1816 113 
Q 2016 113 2095 173 
Q 2175 234 2206 353 
Q 2219 400 2219 647 
L 2219 1819 
Q 2219 2209 2117 2386 
Q 2016 2563 1775 2563 
Q 1403 2563 1034 2156 
L 1034 647 
Q 1034 356 1069 288 
Q 1113 197 1189 155 
Q 1266 113 1500 113 
L 1500 0 
L 84 0 
L 84 113 
L 147 113 
Q 366 113 442 223 
Q 519 334 519 647 
L 519 1709 
Q 519 2225 495 2337 
Q 472 2450 423 2490 
Q 375 2531 294 2531 
Q 206 2531 84 2484 
L 38 2597 
L 900 2947 
L 1034 2947 
L 1034 2341 
z
" transform="scale(0.015625)"/>
       <path id="TimesNewRomanPSMT-73" d="M 2050 2947 
L 2050 1972 
L 1947 1972 
Q 1828 2431 1642 2597 
Q 1456 2763 1169 2763 
Q 950 2763 815 2647 
Q 681 2531 681 2391 
Q 681 2216 781 2091 
Q 878 1963 1175 1819 
L 1631 1597 
Q 2266 1288 2266 781 
Q 2266 391 1970 151 
Q 1675 -88 1309 -88 
Q 1047 -88 709 6 
Q 606 38 541 38 
Q 469 38 428 -44 
L 325 -44 
L 325 978 
L 428 978 
Q 516 541 762 319 
Q 1009 97 1316 97 
Q 1531 97 1667 223 
Q 1803 350 1803 528 
Q 1803 744 1651 891 
Q 1500 1038 1047 1263 
Q 594 1488 453 1669 
Q 313 1847 313 2119 
Q 313 2472 555 2709 
Q 797 2947 1181 2947 
Q 1350 2947 1591 2875 
Q 1750 2828 1803 2828 
Q 1853 2828 1881 2850 
Q 1909 2872 1947 2947 
L 2050 2947 
z
" transform="scale(0.015625)"/>
      </defs>
      <use xlink:href="#TimesNewRomanPSMT-4e"/>
      <use xlink:href="#TimesNewRomanPSMT-75" transform="translate(72.216797 0)"/>
      <use xlink:href="#TimesNewRomanPSMT-6d" transform="translate(122.216797 0)"/>
      <use xlink:href="#TimesNewRomanPSMT-62" transform="translate(200 0)"/>
      <use xlink:href="#TimesNewRomanPSMT-65" transform="translate(250 0)"/>
      <use xlink:href="#TimesNewRomanPSMT-72" transform="translate(294.384766 0)"/>
      <use xlink:href="#TimesNewRomanPSMT-20" transform="translate(327.685547 0)"/>
      <use xlink:href="#TimesNewRomanPSMT-6f" transform="translate(352.685547 0)"/>
      <use xlink:href="#TimesNewRomanPSMT-66" transform="translate(402.685547 0)"/>
      <use xlink:href="#TimesNewRomanPSMT-20" transform="translate(435.986328 0)"/>
      <use xlink:href="#TimesNewRomanPSMT-69" transform="translate(460.986328 0)"/>
      <use xlink:href="#TimesNewRomanPSMT-74" transform="translate(488.769531 0)"/>
      <use xlink:href="#TimesNewRomanPSMT-65" transform="translate(516.552734 0)"/>
      <use xlink:href="#TimesNewRomanPSMT-72" transform="translate(560.9375 0)"/>
      <use xlink:href="#TimesNewRomanPSMT-61" transform="translate(594.238281 0)"/>
      <use xlink:href="#TimesNewRomanPSMT-74" transform="translate(638.623047 0)"/>
      <use xlink:href="#TimesNewRomanPSMT-69" transform="translate(666.40625 0)"/>
      <use xlink:href="#TimesNewRomanPSMT-6f" transform="translate(694.189453 0)"/>
      <use xlink:href="#TimesNewRomanPSMT-6e" transform="translate(744.189453 0)"/>
      <use xlink:href="#TimesNewRomanPSMT-73" transform="translate(794.189453 0)"/>
     </g>
    </g>
   </g>
   <g id="matplotlib.axis_2">
    <g id="ytick_1">
     <g id="line2d_7">
      <path d="M 341.354813 311.6435 
L 698.474813 311.6435 
" clip-path="url(#pcff7c0cc46)" style="fill: none; stroke: #b0b0b0; stroke-opacity: 0.3; stroke-width: 0.8; stroke-linecap: square"/>
     </g>
     <g id="line2d_8">
      <defs>
       <path id="m05afef8aa1" d="M 0 0 
L -3.5 0 
" style="stroke: #000000; stroke-width: 0.8"/>
      </defs>
      <g>
       <use xlink:href="#m05afef8aa1" x="341.354813" y="311.6435" style="stroke: #000000; stroke-width: 0.8"/>
      </g>
     </g>
     <g id="text_5">
      <!-- 0.0 -->
      <g transform="translate(306.854813 319.281625) scale(0.22 -0.22)">
       <defs>
        <path id="TimesNewRomanPSMT-2e" d="M 800 606 
Q 947 606 1047 504 
Q 1147 403 1147 259 
Q 1147 116 1045 14 
Q 944 -88 800 -88 
Q 656 -88 554 14 
Q 453 116 453 259 
Q 453 406 554 506 
Q 656 606 800 606 
z
" transform="scale(0.015625)"/>
       </defs>
       <use xlink:href="#TimesNewRomanPSMT-30"/>
       <use xlink:href="#TimesNewRomanPSMT-2e" transform="translate(50 0)"/>
       <use xlink:href="#TimesNewRomanPSMT-30" transform="translate(75 0)"/>
      </g>
     </g>
    </g>
    <g id="ytick_2">
     <g id="line2d_9">
      <path d="M 341.354813 285.0323 
L 698.474813 285.0323 
" clip-path="url(#pcff7c0cc46)" style="fill: none; stroke: #b0b0b0; stroke-opacity: 0.3; stroke-width: 0.8; stroke-linecap: square"/>
     </g>
     <g id="line2d_10">
      <g>
       <use xlink:href="#m05afef8aa1" x="341.354813" y="285.0323" style="stroke: #000000; stroke-width: 0.8"/>
      </g>
     </g>
     <g id="text_6">
      <!-- 0.1 -->
      <g transform="translate(306.854813 292.670425) scale(0.22 -0.22)">
       <use xlink:href="#TimesNewRomanPSMT-30"/>
       <use xlink:href="#TimesNewRomanPSMT-2e" transform="translate(50 0)"/>
       <use xlink:href="#TimesNewRomanPSMT-31" transform="translate(75 0)"/>
      </g>
     </g>
    </g>
    <g id="ytick_3">
     <g id="line2d_11">
      <path d="M 341.354813 258.4211 
L 698.474813 258.4211 
" clip-path="url(#pcff7c0cc46)" style="fill: none; stroke: #b0b0b0; stroke-opacity: 0.3; stroke-width: 0.8; stroke-linecap: square"/>
     </g>
     <g id="line2d_12">
      <g>
       <use xlink:href="#m05afef8aa1" x="341.354813" y="258.4211" style="stroke: #000000; stroke-width: 0.8"/>
      </g>
     </g>
     <g id="text_7">
      <!-- 0.2 -->
      <g transform="translate(306.854813 266.059225) scale(0.22 -0.22)">
       <use xlink:href="#TimesNewRomanPSMT-30"/>
       <use xlink:href="#TimesNewRomanPSMT-2e" transform="translate(50 0)"/>
       <use xlink:href="#TimesNewRomanPSMT-32" transform="translate(75 0)"/>
      </g>
     </g>
    </g>
    <g id="ytick_4">
     <g id="line2d_13">
      <path d="M 341.354813 231.8099 
L 698.474813 231.8099 
" clip-path="url(#pcff7c0cc46)" style="fill: none; stroke: #b0b0b0; stroke-opacity: 0.3; stroke-width: 0.8; stroke-linecap: square"/>
     </g>
     <g id="line2d_14">
      <g>
       <use xlink:href="#m05afef8aa1" x="341.354813" y="231.8099" style="stroke: #000000; stroke-width: 0.8"/>
      </g>
     </g>
     <g id="text_8">
      <!-- 0.3 -->
      <g transform="translate(306.854813 239.448025) scale(0.22 -0.22)">
       <defs>
        <path id="TimesNewRomanPSMT-33" d="M 325 3431 
Q 506 3859 782 4092 
Q 1059 4325 1472 4325 
Q 1981 4325 2253 3994 
Q 2459 3747 2459 3466 
Q 2459 3003 1878 2509 
Q 2269 2356 2469 2072 
Q 2669 1788 2669 1403 
Q 2669 853 2319 450 
Q 1863 -75 997 -75 
Q 569 -75 414 31 
Q 259 138 259 259 
Q 259 350 332 419 
Q 406 488 509 488 
Q 588 488 669 463 
Q 722 447 909 348 
Q 1097 250 1169 231 
Q 1284 197 1416 197 
Q 1734 197 1970 444 
Q 2206 691 2206 1028 
Q 2206 1275 2097 1509 
Q 2016 1684 1919 1775 
Q 1784 1900 1550 2001 
Q 1316 2103 1072 2103 
L 972 2103 
L 972 2197 
Q 1219 2228 1467 2375 
Q 1716 2522 1828 2728 
Q 1941 2934 1941 3181 
Q 1941 3503 1739 3701 
Q 1538 3900 1238 3900 
Q 753 3900 428 3381 
L 325 3431 
z
" transform="scale(0.015625)"/>
       </defs>
       <use xlink:href="#TimesNewRomanPSMT-30"/>
       <use xlink:href="#TimesNewRomanPSMT-2e" transform="translate(50 0)"/>
       <use xlink:href="#TimesNewRomanPSMT-33" transform="translate(75 0)"/>
      </g>
     </g>
    </g>
    <g id="ytick_5">
     <g id="line2d_15">
      <path d="M 341.354813 205.1987 
L 698.474813 205.1987 
" clip-path="url(#pcff7c0cc46)" style="fill: none; stroke: #b0b0b0; stroke-opacity: 0.3; stroke-width: 0.8; stroke-linecap: square"/>
     </g>
     <g id="line2d_16">
      <g>
       <use xlink:href="#m05afef8aa1" x="341.354813" y="205.1987" style="stroke: #000000; stroke-width: 0.8"/>
      </g>
     </g>
     <g id="text_9">
      <!-- 0.4 -->
      <g transform="translate(306.854813 212.836825) scale(0.22 -0.22)">
       <defs>
        <path id="TimesNewRomanPSMT-34" d="M 2978 1563 
L 2978 1119 
L 2409 1119 
L 2409 0 
L 1894 0 
L 1894 1119 
L 100 1119 
L 100 1519 
L 2066 4325 
L 2409 4325 
L 2409 1563 
L 2978 1563 
z
M 1894 1563 
L 1894 3666 
L 406 1563 
L 1894 1563 
z
" transform="scale(0.015625)"/>
       </defs>
       <use xlink:href="#TimesNewRomanPSMT-30"/>
       <use xlink:href="#TimesNewRomanPSMT-2e" transform="translate(50 0)"/>
       <use xlink:href="#TimesNewRomanPSMT-34" transform="translate(75 0)"/>
      </g>
     </g>
    </g>
    <g id="ytick_6">
     <g id="line2d_17">
      <path d="M 341.354813 178.5875 
L 698.474813 178.5875 
" clip-path="url(#pcff7c0cc46)" style="fill: none; stroke: #b0b0b0; stroke-opacity: 0.3; stroke-width: 0.8; stroke-linecap: square"/>
     </g>
     <g id="line2d_18">
      <g>
       <use xlink:href="#m05afef8aa1" x="341.354813" y="178.5875" style="stroke: #000000; stroke-width: 0.8"/>
      </g>
     </g>
     <g id="text_10">
      <!-- 0.5 -->
      <g transform="translate(306.854813 186.225625) scale(0.22 -0.22)">
       <defs>
        <path id="TimesNewRomanPSMT-35" d="M 2778 4238 
L 2534 3706 
L 1259 3706 
L 981 3138 
Q 1809 3016 2294 2522 
Q 2709 2097 2709 1522 
Q 2709 1188 2573 903 
Q 2438 619 2231 419 
Q 2025 219 1772 97 
Q 1413 -75 1034 -75 
Q 653 -75 479 54 
Q 306 184 306 341 
Q 306 428 378 495 
Q 450 563 559 563 
Q 641 563 702 538 
Q 763 513 909 409 
Q 1144 247 1384 247 
Q 1750 247 2026 523 
Q 2303 800 2303 1197 
Q 2303 1581 2056 1914 
Q 1809 2247 1375 2428 
Q 1034 2569 447 2591 
L 1259 4238 
L 2778 4238 
z
" transform="scale(0.015625)"/>
       </defs>
       <use xlink:href="#TimesNewRomanPSMT-30"/>
       <use xlink:href="#TimesNewRomanPSMT-2e" transform="translate(50 0)"/>
       <use xlink:href="#TimesNewRomanPSMT-35" transform="translate(75 0)"/>
      </g>
     </g>
    </g>
    <g id="ytick_7">
     <g id="line2d_19">
      <path d="M 341.354813 151.9763 
L 698.474813 151.9763 
" clip-path="url(#pcff7c0cc46)" style="fill: none; stroke: #b0b0b0; stroke-opacity: 0.3; stroke-width: 0.8; stroke-linecap: square"/>
     </g>
     <g id="line2d_20">
      <g>
       <use xlink:href="#m05afef8aa1" x="341.354813" y="151.9763" style="stroke: #000000; stroke-width: 0.8"/>
      </g>
     </g>
     <g id="text_11">
      <!-- 0.6 -->
      <g transform="translate(306.854813 159.614425) scale(0.22 -0.22)">
       <defs>
        <path id="TimesNewRomanPSMT-36" d="M 2869 4325 
L 2869 4209 
Q 2456 4169 2195 4045 
Q 1934 3922 1679 3669 
Q 1425 3416 1258 3105 
Q 1091 2794 978 2366 
Q 1428 2675 1881 2675 
Q 2316 2675 2634 2325 
Q 2953 1975 2953 1425 
Q 2953 894 2631 456 
Q 2244 -75 1606 -75 
Q 1172 -75 869 213 
Q 275 772 275 1663 
Q 275 2231 503 2743 
Q 731 3256 1154 3653 
Q 1578 4050 1965 4187 
Q 2353 4325 2688 4325 
L 2869 4325 
z
M 925 2138 
Q 869 1716 869 1456 
Q 869 1156 980 804 
Q 1091 453 1309 247 
Q 1469 100 1697 100 
Q 1969 100 2183 356 
Q 2397 613 2397 1088 
Q 2397 1622 2184 2012 
Q 1972 2403 1581 2403 
Q 1463 2403 1327 2353 
Q 1191 2303 925 2138 
z
" transform="scale(0.015625)"/>
       </defs>
       <use xlink:href="#TimesNewRomanPSMT-30"/>
       <use xlink:href="#TimesNewRomanPSMT-2e" transform="translate(50 0)"/>
       <use xlink:href="#TimesNewRomanPSMT-36" transform="translate(75 0)"/>
      </g>
     </g>
    </g>
    <g id="ytick_8">
     <g id="line2d_21">
      <path d="M 341.354813 125.3651 
L 698.474813 125.3651 
" clip-path="url(#pcff7c0cc46)" style="fill: none; stroke: #b0b0b0; stroke-opacity: 0.3; stroke-width: 0.8; stroke-linecap: square"/>
     </g>
     <g id="line2d_22">
      <g>
       <use xlink:href="#m05afef8aa1" x="341.354813" y="125.3651" style="stroke: #000000; stroke-width: 0.8"/>
      </g>
     </g>
     <g id="text_12">
      <!-- 0.7 -->
      <g transform="translate(306.854813 133.003225) scale(0.22 -0.22)">
       <defs>
        <path id="TimesNewRomanPSMT-37" d="M 644 4238 
L 2916 4238 
L 2916 4119 
L 1503 -88 
L 1153 -88 
L 2419 3728 
L 1253 3728 
Q 900 3728 750 3644 
Q 488 3500 328 3200 
L 238 3234 
L 644 4238 
z
" transform="scale(0.015625)"/>
       </defs>
       <use xlink:href="#TimesNewRomanPSMT-30"/>
       <use xlink:href="#TimesNewRomanPSMT-2e" transform="translate(50 0)"/>
       <use xlink:href="#TimesNewRomanPSMT-37" transform="translate(75 0)"/>
      </g>
     </g>
    </g>
    <g id="ytick_9">
     <g id="line2d_23">
      <path d="M 341.354813 98.7539 
L 698.474813 98.7539 
" clip-path="url(#pcff7c0cc46)" style="fill: none; stroke: #b0b0b0; stroke-opacity: 0.3; stroke-width: 0.8; stroke-linecap: square"/>
     </g>
     <g id="line2d_24">
      <g>
       <use xlink:href="#m05afef8aa1" x="341.354813" y="98.7539" style="stroke: #000000; stroke-width: 0.8"/>
      </g>
     </g>
     <g id="text_13">
      <!-- 0.8 -->
      <g transform="translate(306.854813 106.392025) scale(0.22 -0.22)">
       <defs>
        <path id="TimesNewRomanPSMT-38" d="M 1228 2134 
Q 725 2547 579 2797 
Q 434 3047 434 3316 
Q 434 3728 753 4026 
Q 1072 4325 1600 4325 
Q 2113 4325 2425 4047 
Q 2738 3769 2738 3413 
Q 2738 3175 2569 2928 
Q 2400 2681 1866 2347 
Q 2416 1922 2594 1678 
Q 2831 1359 2831 1006 
Q 2831 559 2490 242 
Q 2150 -75 1597 -75 
Q 994 -75 656 303 
Q 388 606 388 966 
Q 388 1247 577 1523 
Q 766 1800 1228 2134 
z
M 1719 2469 
Q 2094 2806 2194 3001 
Q 2294 3197 2294 3444 
Q 2294 3772 2109 3958 
Q 1925 4144 1606 4144 
Q 1288 4144 1088 3959 
Q 888 3775 888 3528 
Q 888 3366 970 3203 
Q 1053 3041 1206 2894 
L 1719 2469 
z
M 1375 2016 
Q 1116 1797 991 1539 
Q 866 1281 866 981 
Q 866 578 1086 336 
Q 1306 94 1647 94 
Q 1984 94 2187 284 
Q 2391 475 2391 747 
Q 2391 972 2272 1150 
Q 2050 1481 1375 2016 
z
" transform="scale(0.015625)"/>
       </defs>
       <use xlink:href="#TimesNewRomanPSMT-30"/>
       <use xlink:href="#TimesNewRomanPSMT-2e" transform="translate(50 0)"/>
       <use xlink:href="#TimesNewRomanPSMT-38" transform="translate(75 0)"/>
      </g>
     </g>
    </g>
    <g id="ytick_10">
     <g id="line2d_25">
      <path d="M 341.354813 72.1427 
L 698.474813 72.1427 
" clip-path="url(#pcff7c0cc46)" style="fill: none; stroke: #b0b0b0; stroke-opacity: 0.3; stroke-width: 0.8; stroke-linecap: square"/>
     </g>
     <g id="line2d_26">
      <g>
       <use xlink:href="#m05afef8aa1" x="341.354813" y="72.1427" style="stroke: #000000; stroke-width: 0.8"/>
      </g>
     </g>
     <g id="text_14">
      <!-- 0.9 -->
      <g transform="translate(306.854813 79.780825) scale(0.22 -0.22)">
       <defs>
        <path id="TimesNewRomanPSMT-39" d="M 338 -88 
L 338 28 
Q 744 34 1094 217 
Q 1444 400 1770 856 
Q 2097 1313 2225 1859 
Q 1734 1544 1338 1544 
Q 891 1544 572 1889 
Q 253 2234 253 2806 
Q 253 3363 572 3797 
Q 956 4325 1575 4325 
Q 2097 4325 2469 3894 
Q 2925 3359 2925 2575 
Q 2925 1869 2578 1258 
Q 2231 647 1613 244 
Q 1109 -88 516 -88 
L 338 -88 
z
M 2275 2091 
Q 2331 2497 2331 2741 
Q 2331 3044 2228 3395 
Q 2125 3747 1936 3934 
Q 1747 4122 1506 4122 
Q 1228 4122 1018 3872 
Q 809 3622 809 3128 
Q 809 2469 1088 2097 
Q 1291 1828 1588 1828 
Q 1731 1828 1928 1897 
Q 2125 1966 2275 2091 
z
" transform="scale(0.015625)"/>
       </defs>
       <use xlink:href="#TimesNewRomanPSMT-30"/>
       <use xlink:href="#TimesNewRomanPSMT-2e" transform="translate(50 0)"/>
       <use xlink:href="#TimesNewRomanPSMT-39" transform="translate(75 0)"/>
      </g>
     </g>
    </g>
    <g id="ytick_11">
     <g id="line2d_27">
      <path d="M 341.354813 45.5315 
L 698.474813 45.5315 
" clip-path="url(#pcff7c0cc46)" style="fill: none; stroke: #b0b0b0; stroke-opacity: 0.3; stroke-width: 0.8; stroke-linecap: square"/>
     </g>
     <g id="line2d_28">
      <g>
       <use xlink:href="#m05afef8aa1" x="341.354813" y="45.5315" style="stroke: #000000; stroke-width: 0.8"/>
      </g>
     </g>
     <g id="text_15">
      <!-- 1.0 -->
      <g transform="translate(306.854813 53.169625) scale(0.22 -0.22)">
       <use xlink:href="#TimesNewRomanPSMT-31"/>
       <use xlink:href="#TimesNewRomanPSMT-2e" transform="translate(50 0)"/>
       <use xlink:href="#TimesNewRomanPSMT-30" transform="translate(75 0)"/>
      </g>
     </g>
    </g>
    <g id="text_16">
     <!-- Accuracy -->
     <g transform="translate(298.107625 220.726094) rotate(-90) scale(0.22 -0.22)">
      <defs>
       <path id="TimesNewRomanPSMT-41" d="M 2928 1419 
L 1288 1419 
L 1000 750 
Q 894 503 894 381 
Q 894 284 986 211 
Q 1078 138 1384 116 
L 1384 0 
L 50 0 
L 50 116 
Q 316 163 394 238 
Q 553 388 747 847 
L 2238 4334 
L 2347 4334 
L 3822 809 
Q 4000 384 4145 257 
Q 4291 131 4550 116 
L 4550 0 
L 2878 0 
L 2878 116 
Q 3131 128 3220 200 
Q 3309 272 3309 375 
Q 3309 513 3184 809 
L 2928 1419 
z
M 2841 1650 
L 2122 3363 
L 1384 1650 
L 2841 1650 
z
" transform="scale(0.015625)"/>
       <path id="TimesNewRomanPSMT-63" d="M 2631 1088 
Q 2516 522 2178 217 
Q 1841 -88 1431 -88 
Q 944 -88 581 321 
Q 219 731 219 1428 
Q 219 2103 620 2525 
Q 1022 2947 1584 2947 
Q 2006 2947 2278 2723 
Q 2550 2500 2550 2259 
Q 2550 2141 2473 2067 
Q 2397 1994 2259 1994 
Q 2075 1994 1981 2113 
Q 1928 2178 1911 2362 
Q 1894 2547 1784 2644 
Q 1675 2738 1481 2738 
Q 1169 2738 978 2506 
Q 725 2200 725 1697 
Q 725 1184 976 792 
Q 1228 400 1656 400 
Q 1963 400 2206 609 
Q 2378 753 2541 1131 
L 2631 1088 
z
" transform="scale(0.015625)"/>
       <path id="TimesNewRomanPSMT-79" d="M 38 2863 
L 1372 2863 
L 1372 2747 
L 1306 2747 
Q 1166 2747 1095 2686 
Q 1025 2625 1025 2534 
Q 1025 2413 1128 2197 
L 1825 753 
L 2466 2334 
Q 2519 2463 2519 2588 
Q 2519 2644 2497 2672 
Q 2472 2706 2419 2726 
Q 2366 2747 2231 2747 
L 2231 2863 
L 3163 2863 
L 3163 2747 
Q 3047 2734 2984 2696 
Q 2922 2659 2847 2556 
Q 2819 2513 2741 2316 
L 1575 -541 
Q 1406 -956 1132 -1168 
Q 859 -1381 606 -1381 
Q 422 -1381 303 -1275 
Q 184 -1169 184 -1031 
Q 184 -900 270 -820 
Q 356 -741 506 -741 
Q 609 -741 788 -809 
Q 913 -856 944 -856 
Q 1038 -856 1148 -759 
Q 1259 -663 1372 -384 
L 1575 113 
L 547 2272 
Q 500 2369 397 2513 
Q 319 2622 269 2659 
Q 197 2709 38 2747 
L 38 2863 
z
" transform="scale(0.015625)"/>
      </defs>
      <use xlink:href="#TimesNewRomanPSMT-41"/>
      <use xlink:href="#TimesNewRomanPSMT-63" transform="translate(72.216797 0)"/>
      <use xlink:href="#TimesNewRomanPSMT-63" transform="translate(116.601562 0)"/>
      <use xlink:href="#TimesNewRomanPSMT-75" transform="translate(160.986328 0)"/>
      <use xlink:href="#TimesNewRomanPSMT-72" transform="translate(210.986328 0)"/>
      <use xlink:href="#TimesNewRomanPSMT-61" transform="translate(244.287109 0)"/>
      <use xlink:href="#TimesNewRomanPSMT-63" transform="translate(288.671875 0)"/>
      <use xlink:href="#TimesNewRomanPSMT-79" transform="translate(333.056641 0)"/>
     </g>
    </g>
   </g>
   <g id="line2d_29">
    <path d="M 341.354813 141.383564 
L 341.619052 124.108459 
L 342.015412 111.859915 
L 342.411771 105.901966 
L 342.676011 102.102484 
L 342.808131 102.494247 
L 343.072371 99.995758 
L 343.204491 99.448742 
L 343.336611 99.463525 
L 343.60085 97.70423 
L 343.73297 98.960874 
L 344.12933 97.585966 
L 344.26145 97.645098 
L 344.393569 96.854164 
L 344.525689 98.746505 
L 344.657809 97.755986 
L 344.789929 97.755986 
L 344.922049 96.905904 
L 345.054169 97.061125 
L 345.450528 96.44021 
L 345.714768 97.112881 
L 345.846888 96.846756 
L 345.979008 97.423338 
L 346.111128 96.521516 
L 346.243248 97.770769 
L 346.375367 96.122345 
L 346.507487 97.046342 
L 346.639607 96.654578 
L 346.771727 96.721101 
L 346.903847 96.558473 
L 347.035967 97.467687 
L 347.300207 96.366279 
L 347.432326 96.780233 
L 347.564446 98.088617 
L 347.696566 97.223753 
L 347.828686 99.042196 
L 347.960806 99.278738 
L 348.092926 97.253319 
L 348.225046 97.674664 
L 348.357165 97.70423 
L 348.489285 99.552238 
L 348.753525 96.728493 
L 348.885645 96.994601 
L 349.017765 96.950253 
L 349.149885 99.28613 
L 349.282005 96.905904 
L 349.414124 96.588039 
L 349.678364 98.517354 
L 349.942604 96.942861 
L 350.074724 99.308304 
L 350.206844 97.172012 
L 350.338963 97.268101 
L 350.471083 99.330479 
L 350.603203 97.70423 
L 350.735323 98.22168 
L 350.999563 97.312466 
L 351.131683 98.088617 
L 351.263803 97.534226 
L 351.528042 97.593358 
L 351.660162 98.731722 
L 351.792282 97.918598 
L 351.924402 98.591269 
L 352.056522 97.401164 
L 352.188642 98.916525 
L 352.320761 97.874249 
L 352.452881 99.101327 
L 352.717121 98.450831 
L 352.849241 98.643025 
L 352.981361 97.859466 
L 353.113481 98.192114 
L 353.37772 100.306215 
L 353.50984 98.820436 
L 353.77408 99.61137 
L 353.9062 98.391699 
L 354.03832 98.428657 
L 354.17044 99.38961 
L 354.302559 98.096009 
L 354.434679 99.234374 
L 354.566799 98.317769 
L 354.698919 98.909133 
L 354.831039 98.391699 
L 354.963159 100.084456 
L 355.095279 99.086544 
L 355.227399 99.056979 
L 355.491638 100.010541 
L 355.623758 99.153068 
L 355.755878 100.224909 
L 356.020118 98.583877 
L 356.152238 98.606068 
L 356.416477 99.404393 
L 356.548597 98.857393 
L 356.680717 99.603979 
L 356.812837 99.478324 
L 356.944957 98.953482 
L 357.209197 99.278738 
L 357.473436 98.946091 
L 357.605556 99.101327 
L 357.737676 98.776071 
L 357.869796 99.101327 
L 358.001916 100.919754 
L 358.266155 99.618762 
L 358.530395 98.835219 
L 358.794635 98.953482 
L 358.926755 99.226982 
L 359.190995 98.473005 
L 359.323114 100.091847 
L 359.455234 98.909133 
L 359.851594 103.57348 
L 360.115834 99.374827 
L 360.247953 98.369509 
L 360.380073 98.827827 
L 360.776433 98.894351 
L 360.908553 98.761288 
L 361.040673 98.790854 
L 361.304912 98.975657 
L 361.437032 98.62085 
L 361.569152 98.850002 
L 361.833392 98.628242 
L 361.965512 99.278738 
L 362.097632 98.820436 
L 362.229751 98.99044 
L 362.361871 98.746505 
L 362.493991 98.960874 
L 362.626111 98.894351 
L 363.022471 99.256548 
L 363.154591 98.850002 
L 363.28671 99.522673 
L 363.55095 99.219591 
L 363.68307 99.28613 
L 363.81519 99.145676 
L 363.94731 99.382219 
L 364.07943 99.323087 
L 364.211549 99.707475 
L 364.475789 99.293521 
L 364.607909 99.677893 
L 364.740029 99.470916 
L 364.872149 98.975657 
L 365.004269 99.086544 
L 365.136389 99.500498 
L 365.268508 99.419176 
L 365.400628 99.61137 
L 365.532748 99.315696 
L 365.664868 99.448742 
L 365.796988 98.953482 
L 366.061228 99.530064 
L 366.193347 99.160459 
L 366.325467 99.241765 
L 366.589707 99.847913 
L 366.721827 98.84261 
L 366.853947 98.76868 
L 366.986067 99.308304 
L 367.250306 99.300913 
L 367.382426 99.796173 
L 367.646666 99.108719 
L 367.910906 99.522673 
L 368.043026 99.626153 
L 368.307265 98.975657 
L 368.439385 99.788781 
L 368.571505 99.271347 
L 368.703625 99.640936 
L 368.835745 99.167851 
L 368.967865 99.448742 
L 369.099985 98.864785 
L 369.496344 99.596587 
L 369.760584 99.012614 
L 369.892704 99.485715 
L 370.156943 98.946091 
L 370.421183 99.500498 
L 370.553303 99.493107 
L 370.949663 99.071762 
L 371.081783 99.330479 
L 371.213902 99.06437 
L 371.346022 99.818347 
L 371.610262 99.056979 
L 371.742382 99.271347 
L 371.874502 99.714866 
L 372.138741 98.938699 
L 372.270861 99.145676 
L 372.402981 99.626153 
L 372.799341 99.500498 
L 372.931461 99.544847 
L 373.063581 99.271347 
L 373.1957 99.382219 
L 373.32782 99.034788 
L 373.45994 99.360044 
L 373.72418 99.397002 
L 373.8563 99.101327 
L 373.98842 99.55963 
L 374.120539 99.567021 
L 374.516899 99.182633 
L 374.781139 99.28613 
L 374.913259 99.50789 
L 375.177498 99.204808 
L 375.441738 99.500498 
L 375.573858 99.360044 
L 375.705978 99.397002 
L 375.838098 99.692676 
L 375.970218 99.145676 
L 376.102337 99.11611 
L 376.366577 99.367436 
L 376.630817 99.397002 
L 376.762937 99.700084 
L 376.895057 99.670502 
L 377.027177 99.278738 
L 377.291416 99.589196 
L 377.423536 99.005222 
L 377.555656 99.323087 
L 377.687776 99.086544 
L 377.819896 99.197416 
L 378.084135 99.818347 
L 378.348375 99.426568 
L 378.612615 99.397002 
L 378.744735 99.323087 
L 378.876855 99.426568 
L 379.008975 99.182633 
L 379.141094 99.308304 
L 379.273214 99.079153 
L 379.405334 99.204808 
L 379.537454 99.700084 
L 379.669574 99.042196 
L 379.801694 99.397002 
L 380.065933 99.226982 
L 380.462293 99.123502 
L 380.594413 99.603979 
L 380.726533 99.160459 
L 380.858653 132.727525 
L 381.255012 104.556625 
L 381.387132 104.113105 
L 381.519252 104.985361 
L 381.651372 122.460052 
L 381.915612 103.64002 
L 382.179851 99.537455 
L 382.311971 100.040107 
L 382.444091 98.583877 
L 382.708331 101.296751 
L 382.840451 98.3769 
L 382.972571 99.700084 
L 383.36893 98.746505 
L 383.50105 98.864785 
L 383.63317 98.672591 
L 383.89741 99.049587 
L 384.161649 98.946091 
L 384.293769 99.108719 
L 384.425889 98.724331 
L 384.558009 99.086544 
L 384.822249 98.850002 
L 384.954369 98.850002 
L 385.218608 99.005222 
L 385.482848 98.864785 
L 385.614968 99.212199 
L 385.747088 98.953482 
L 385.879208 99.11611 
L 386.011327 98.613459 
L 386.275567 99.182633 
L 386.407687 98.827827 
L 386.671927 99.130893 
L 386.804047 98.931308 
L 387.068286 99.123502 
L 387.200406 98.850002 
L 387.332526 99.130893 
L 387.728886 98.946091 
L 387.861006 98.997831 
L 387.993125 98.850002 
L 388.257365 99.027397 
L 389.050084 99.108719 
L 389.182204 99.204808 
L 389.314324 98.946091 
L 389.578564 99.130893 
L 389.710684 99.093936 
L 389.842804 98.827827 
L 389.974923 99.130893 
L 390.107043 98.909133 
L 390.239163 99.108719 
L 390.503403 98.99044 
L 391.031882 99.138285 
L 391.296122 98.953482 
L 391.560362 99.153068 
L 392.088841 98.872176 
L 392.485201 99.130893 
L 392.617321 98.827827 
L 392.881561 99.101327 
L 393.1458 98.975657 
L 393.27792 99.108719 
L 393.54216 99.049587 
L 393.67428 99.145676 
L 393.8064 98.968265 
L 393.938519 99.071762 
L 394.070639 98.968265 
L 394.202759 99.086544 
L 394.599119 99.06437 
L 394.731239 99.145676 
L 394.995478 99.005222 
L 395.127598 98.931308 
L 395.391838 99.182633 
L 395.656078 99.042196 
L 395.788198 99.145676 
L 395.920317 98.997831 
L 396.052437 99.06437 
L 396.184557 99.263955 
L 396.580917 99.034788 
L 396.977276 99.138285 
L 397.373636 98.997831 
L 397.505756 99.204808 
L 397.902115 98.931308 
L 398.034235 98.931308 
L 398.298475 99.020005 
L 398.694835 99.027397 
L 398.826955 99.167851 
L 398.959074 99.06437 
L 399.223314 99.153068 
L 399.619674 98.997831 
L 399.751794 99.020005 
L 399.883913 99.219591 
L 400.016033 99.027397 
L 400.148153 99.28613 
L 400.280273 99.020005 
L 400.676633 98.975657 
L 400.940872 99.086544 
L 401.205112 99.11611 
L 401.337232 99.293521 
L 401.469352 99.056979 
L 401.601472 99.234374 
L 401.865712 99.175242 
L 401.997831 99.271347 
L 402.394191 99.108719 
L 402.526311 99.056979 
L 402.790551 99.145676 
L 402.92267 99.020005 
L 403.05479 99.130893 
L 403.45115 98.983048 
L 403.71539 98.99044 
L 403.84751 99.278738 
L 403.979629 98.879568 
L 404.111749 99.219591 
L 404.243869 98.99044 
L 404.375989 99.226982 
L 404.508109 98.916525 
L 404.772349 99.182633 
L 404.904468 99.049587 
L 405.036588 99.153068 
L 405.168708 98.99044 
L 405.697188 99.101327 
L 405.829308 98.886959 
L 405.961427 99.11611 
L 406.093547 98.872176 
L 406.225667 99.175242 
L 406.489907 99.042196 
L 407.018386 98.968265 
L 407.282626 99.263955 
L 407.546866 98.99044 
L 407.678986 98.916525 
L 407.811106 99.071762 
L 407.943225 98.923916 
L 408.339585 99.056979 
L 408.471705 98.923916 
L 408.868064 99.123502 
L 409.000184 98.983048 
L 409.132304 99.204808 
L 409.264424 98.946091 
L 409.396544 99.005222 
L 409.528664 99.271347 
L 409.792904 99.093936 
L 409.925023 98.983048 
L 410.057143 99.093936 
L 410.321383 98.968265 
L 410.585623 99.012614 
L 410.717743 99.071762 
L 410.849862 98.894351 
L 411.114102 99.108719 
L 411.246222 98.953482 
L 411.510462 99.256548 
L 411.642582 99.034788 
L 412.038941 99.145676 
L 412.171061 99.027397 
L 412.303181 99.160459 
L 412.435301 98.909133 
L 412.699541 99.263955 
L 412.83166 98.99044 
L 413.36014 98.960874 
L 413.49226 98.946091 
L 413.62438 99.160459 
L 413.7565 98.938699 
L 414.284979 99.027397 
L 414.417099 99.130893 
L 414.945578 99.020005 
L 415.606178 99.197416 
L 415.738298 98.953482 
L 415.870417 98.968265 
L 416.134657 99.153068 
L 416.266777 99.138285 
L 416.398897 99.241765 
L 416.663137 99.101327 
L 416.927376 99.056979 
L 417.191616 98.923916 
L 417.455856 99.079153 
L 417.587976 98.975657 
L 417.720096 99.160459 
L 417.984335 98.909133 
L 418.248575 99.079153 
L 418.512815 99.049587 
L 418.644935 99.034788 
L 418.777054 99.190025 
L 418.909174 99.071762 
L 419.041294 99.145676 
L 419.173414 99.049587 
L 419.305534 99.101327 
L 419.569774 98.99044 
L 419.966133 99.056979 
L 420.098253 99.352653 
L 420.362493 99.049587 
L 420.494613 99.226982 
L 421.023092 99.11611 
L 421.155212 98.975657 
L 421.419452 99.190025 
L 421.683692 99.190025 
L 421.947931 99.138285 
L 422.080051 99.11611 
L 422.212171 98.923916 
L 422.476411 99.160459 
L 422.608531 99.020005 
L 422.87277 99.11611 
L 423.00489 99.042196 
L 423.13701 99.204808 
L 423.40125 99.086544 
L 424.326089 99.241765 
L 424.458209 99.079153 
L 424.986688 99.241765 
L 425.118808 99.382219 
L 425.250928 99.330479 
L 425.383048 99.55963 
L 425.515168 99.249157 
L 425.647288 99.374827 
L 425.911527 99.263955 
L 426.043647 99.33787 
L 426.175767 99.190025 
L 426.307887 99.300913 
L 426.440007 99.167851 
L 426.572127 99.293521 
L 426.704246 99.071762 
L 426.968486 99.426568 
L 427.364846 99.226982 
L 427.496966 99.382219 
L 427.629086 99.249157 
L 427.761205 99.308304 
L 427.893325 99.212199 
L 428.025445 99.485715 
L 428.157565 99.145676 
L 428.421805 99.419176 
L 428.553925 99.28613 
L 428.686044 99.589196 
L 428.950284 99.219591 
L 429.082404 99.249157 
L 429.214524 99.079153 
L 430.007243 99.330479 
L 430.271483 99.138285 
L 430.932082 99.212199 
L 431.064202 99.493107 
L 431.196322 99.263955 
L 431.592682 99.212199 
L 431.724801 124.485455 
L 431.856921 121.173842 
L 432.121161 106.981199 
L 432.253281 106.485939 
L 432.385401 104.770993 
L 432.517521 99.581804 
L 432.64964 99.160459 
L 432.78176 102.449899 
L 432.91388 99.626153 
L 433.046 100.409712 
L 433.17812 104.689671 
L 433.44236 100.136212 
L 433.57448 107.291657 
L 433.838719 99.175242 
L 433.970839 99.411785 
L 434.102959 99.093936 
L 434.367199 99.234374 
L 434.499319 99.28613 
L 434.631438 99.685285 
L 434.895678 98.894351 
L 435.027798 99.367436 
L 435.159918 100.254475 
L 435.292038 99.441351 
L 435.424158 99.448742 
L 435.556278 98.753897 
L 435.688397 99.079153 
L 435.820517 102.213356 
L 436.084757 100.823665 
L 436.216877 102.287271 
L 436.348997 99.677893 
L 436.481117 99.862696 
L 436.613236 99.700084 
L 436.745356 99.33787 
L 437.141716 99.241765 
L 437.273836 99.101327 
L 437.405956 99.308304 
L 437.670195 99.382219 
L 437.802315 99.101327 
L 437.934435 99.360044 
L 438.066555 99.263955 
L 438.198675 98.909133 
L 438.330795 99.167851 
L 438.462915 99.005222 
L 438.727154 99.271347 
L 439.123514 99.071762 
L 439.255634 99.175242 
L 439.387754 99.06437 
L 439.519874 99.345262 
L 439.651993 99.160459 
L 439.784113 99.249157 
L 440.312593 99.079153 
L 440.444713 99.234374 
L 440.576832 99.093936 
L 440.708952 99.219591 
L 441.105312 99.108719 
L 441.237432 99.138285 
L 441.369552 99.374827 
L 441.501672 99.175242 
L 441.633791 99.263955 
L 441.765911 99.190025 
L 441.898031 98.983048 
L 442.030151 99.190025 
L 442.82287 99.042196 
L 442.95499 99.086544 
L 443.08711 99.012614 
L 443.21923 99.101327 
L 443.747709 98.872176 
L 443.879829 99.086544 
L 444.804668 99.101327 
L 444.936788 99.175242 
L 445.333148 99.056979 
L 445.465268 99.034788 
L 445.597387 99.160459 
L 445.729507 99.034788 
L 445.861627 99.175242 
L 445.993747 99.500498 
L 446.257987 99.034788 
L 446.786466 99.167851 
L 447.579185 99.093936 
L 447.843425 99.204808 
L 448.107665 99.071762 
L 448.636144 99.212199 
L 448.768264 98.946091 
L 449.428864 99.175242 
L 449.560983 99.056979 
L 449.693103 99.138285 
L 449.825223 98.997831 
L 449.957343 99.093936 
L 450.089463 99.027397 
L 450.221583 99.153068 
L 450.353703 99.012614 
L 450.750062 99.086544 
L 451.014302 98.953482 
L 451.542781 99.182633 
L 451.807021 98.968265 
L 451.939141 99.130893 
L 452.335501 99.049587 
L 452.59974 99.153068 
L 453.26034 99.160459 
L 453.524579 99.182633 
L 453.656699 99.071762 
L 454.053059 99.145676 
L 454.317299 99.034788 
L 454.449418 99.263955 
L 454.713658 99.027397 
L 454.977898 99.226982 
L 455.242138 98.975657 
L 455.506377 99.101327 
L 455.770617 99.079153 
L 456.299097 99.130893 
L 456.827576 99.123502 
L 456.959696 99.197416 
L 457.223936 99.11611 
L 457.620295 99.175242 
L 457.884535 99.182633 
L 459.205734 99.175242 
L 459.602093 99.071762 
L 459.866333 99.108719 
L 459.998453 99.153068 
L 460.130573 99.079153 
L 460.394813 99.153068 
L 460.659052 99.167851 
L 462.50873 99.167851 
L 462.64085 99.219591 
L 462.90509 99.167851 
L 472.021361 99.06437 
L 472.153481 99.049587 
L 472.41772 99.167851 
L 472.54984 99.079153 
L 472.81408 99.190025 
L 473.07832 99.130893 
L 473.21044 99.108719 
L 473.342559 99.219591 
L 473.738919 99.093936 
L 474.663758 99.145676 
L 475.720717 99.049587 
L 475.852837 99.190025 
L 476.513436 99.101327 
L 476.777676 99.093936 
L 477.966755 99.071762 
L 478.098875 99.175242 
L 478.363114 99.071762 
L 478.495234 99.138285 
L 478.759474 99.06437 
L 480.873392 99.108719 
L 481.005512 98.968265 
L 481.401871 99.226982 
L 481.666111 99.071762 
L 481.930351 99.123502 
L 482.45883 99.123502 
L 482.59095 99.027397 
L 482.72307 99.138285 
L 482.98731 99.130893 
L 483.11943 99.197416 
L 483.383669 99.123502 
L 484.044269 99.167851 
L 484.308508 99.123502 
L 484.440628 99.056979 
L 484.704868 99.153068 
L 484.969108 99.071762 
L 485.233347 99.138285 
L 485.365467 99.06437 
L 485.629707 99.153068 
L 485.893947 99.086544 
L 486.290306 99.153068 
L 486.422426 99.005222 
L 486.950906 99.226982 
L 487.083026 98.975657 
L 487.215145 99.042196 
L 487.347265 100.720169 
L 487.479385 162.583822 
L 487.611505 126.39258 
L 487.743625 125.305971 
L 489.064824 99.862696 
L 489.329063 103.041263 
L 489.461183 99.603979 
L 489.593303 99.352653 
L 489.725423 99.522673 
L 489.857543 109.767987 
L 489.989663 98.243854 
L 490.121783 98.007311 
L 490.253902 98.835219 
L 490.386022 101.429797 
L 490.518142 98.650416 
L 490.650262 102.412941 
L 490.782382 99.315696 
L 491.046622 99.603979 
L 491.178741 98.790854 
L 491.310861 99.544847 
L 491.442981 98.886959 
L 491.707221 99.204808 
L 491.971461 99.167851 
L 492.2357 99.005222 
L 492.49994 99.33787 
L 492.63206 98.783463 
L 492.76418 99.293521 
L 493.02842 99.263955 
L 493.160539 99.367436 
L 493.424779 98.975657 
L 493.556899 99.411785 
L 493.689019 99.234374 
L 493.821139 99.374827 
L 493.953259 99.101327 
L 494.085379 99.182633 
L 494.217498 99.079153 
L 494.349618 99.293521 
L 494.481738 99.226982 
L 494.745978 99.249157 
L 495.010218 99.138285 
L 495.274457 99.448742 
L 495.406577 99.426568 
L 495.538697 99.655719 
L 495.802937 99.182633 
L 496.067177 99.33787 
L 496.199296 99.28613 
L 496.463536 99.411785 
L 496.595656 99.360044 
L 496.727776 99.530064 
L 496.859896 99.256548 
L 496.992016 99.433959 
L 497.916855 99.323087 
L 498.181094 99.50789 
L 498.445334 99.382219 
L 498.709574 99.589196 
L 498.841694 99.441351 
L 499.370173 99.648327 
L 499.634413 99.55963 
L 499.766533 99.352653 
L 499.898653 99.485715 
L 500.030773 99.433959 
L 500.162892 99.11611 
L 500.295012 99.234374 
L 500.427132 99.596587 
L 500.559252 99.433959 
L 500.691372 99.012614 
L 500.823492 99.870087 
L 501.219851 99.448742 
L 501.484091 99.537455 
L 502.012571 99.397002 
L 502.14469 99.581804 
L 502.40893 99.293521 
L 502.80529 99.485715 
L 503.069529 99.360044 
L 503.465889 99.470916 
L 503.598009 99.722258 
L 503.730129 99.722258 
L 503.994369 99.404393 
L 504.126488 99.55963 
L 504.258608 99.404393 
L 504.522848 99.456134 
L 504.654968 99.374827 
L 504.787088 99.574413 
L 505.051327 99.493107 
L 505.315567 99.581804 
L 505.447687 99.374827 
L 505.711927 99.530064 
L 506.108286 99.411785 
L 506.372526 99.463525 
L 506.504646 99.397002 
L 506.768886 99.485715 
L 506.901006 99.419176 
L 507.165245 99.530064 
L 507.825845 99.485715 
L 507.957965 99.574413 
L 508.090084 99.441351 
L 508.222204 99.515281 
L 508.618564 99.411785 
L 508.750684 99.382219 
L 508.882804 99.522673 
L 509.147043 99.419176 
L 509.807643 99.463525 
L 510.204002 99.441351 
L 510.468242 99.456134 
L 510.996721 99.544847 
L 511.128841 99.411785 
L 511.260961 99.515281 
L 511.789441 99.441351 
L 511.921561 99.493107 
L 512.1858 99.330479 
L 512.71428 99.522673 
L 512.8464 99.33787 
L 513.110639 99.419176 
L 513.242759 99.618762 
L 513.374879 99.382219 
L 514.299718 99.485715 
L 514.563958 99.300913 
L 514.696078 99.463525 
L 514.828198 99.374827 
L 514.960317 99.426568 
L 515.092437 99.78139 
L 515.488797 99.197416 
L 515.753037 99.470916 
L 516.017276 99.323087 
L 516.809996 99.478324 
L 517.074235 99.38961 
L 517.470595 99.456134 
L 517.866955 99.419176 
L 518.131194 99.411785 
L 518.395434 99.426568 
L 521.037831 99.397002 
L 521.169951 99.293521 
L 521.302071 99.448742 
L 521.566311 99.323087 
L 521.698431 99.426568 
L 522.09479 99.382219 
L 522.35903 99.515281 
L 522.49115 99.345262 
L 522.75539 99.441351 
L 522.88751 99.249157 
L 523.151749 99.382219 
L 523.283869 99.315696 
L 523.415989 99.374827 
L 523.548109 99.249157 
L 524.076588 99.352653 
L 524.340828 99.271347 
L 525.265667 99.38961 
L 525.397787 99.249157 
L 525.662027 99.360044 
L 525.926266 99.315696 
L 526.058386 99.271347 
L 526.322626 99.330479 
L 526.454746 99.219591 
L 526.851106 99.33787 
L 527.643825 99.308304 
L 528.040184 99.33787 
L 528.172304 99.278738 
L 528.304424 99.397002 
L 528.700784 99.271347 
L 528.832904 99.367436 
L 528.965023 99.241765 
L 529.361383 99.330479 
L 530.021982 99.300913 
L 530.550462 99.226982 
L 530.814702 99.352653 
L 530.946821 99.293521 
L 531.078941 99.404393 
L 531.343181 99.234374 
L 532.1359 99.323087 
L 532.7965 99.226982 
L 533.060739 99.234374 
L 533.192859 99.345262 
L 533.721339 99.256548 
L 535.042537 99.263955 
L 535.174657 99.293521 
L 535.306777 99.190025 
L 535.571017 99.271347 
L 535.835256 99.271347 
L 535.967376 99.397002 
L 536.231616 99.271347 
L 536.363736 99.426568 
L 536.495856 99.212199 
L 536.892215 99.28613 
L 537.684935 99.263955 
L 538.081294 99.204808 
L 538.874013 99.271347 
L 539.270373 99.204808 
L 540.591572 99.241765 
L 541.120051 99.197416 
L 541.252171 99.153068 
L 541.384291 99.315696 
L 542.17701 99.197416 
L 542.30913 99.263955 
L 542.44125 99.123502 
L 542.70549 99.28613 
L 543.101849 99.153068 
L 543.498209 99.241765 
L 543.762448 99.093936 
L 543.894568 99.263955 
L 544.158808 99.241765 
L 544.555168 99.219591 
L 545.480007 99.212199 
L 546.008486 99.145676 
L 546.140606 99.249157 
L 546.536966 99.101327 
L 546.669086 99.308304 
L 546.801205 99.138285 
L 546.933325 99.271347 
L 547.065445 99.204808 
L 547.197565 99.271347 
L 547.329685 99.175242 
L 547.593925 99.226982 
L 547.858164 99.190025 
L 548.386644 99.197416 
L 548.783003 99.11611 
L 549.179363 99.182633 
L 549.575723 99.160459 
L 549.707842 99.079153 
L 549.839962 99.204808 
L 549.972082 99.130893 
L 550.104202 99.271347 
L 550.236322 99.086544 
L 550.368442 99.212199 
L 550.500562 99.581804 
L 550.632682 99.544847 
L 550.896921 99.11611 
L 551.029041 99.308304 
L 551.293281 99.190025 
L 551.95388 99.241765 
L 552.086 99.138285 
L 552.21812 99.226982 
L 552.48236 99.153068 
L 553.407199 99.130893 
L 553.935678 99.249157 
L 554.067798 99.101327 
L 554.332038 99.123502 
L 554.464158 99.182633 
L 554.728397 99.027397 
L 554.992637 99.175242 
L 555.124757 99.086544 
L 555.256877 99.182633 
L 555.388997 99.056979 
L 555.653236 99.108719 
L 555.917476 99.020005 
L 556.181716 99.153068 
L 556.578076 99.071762 
L 557.238675 99.130893 
L 557.502915 99.071762 
L 557.767154 99.108719 
L 558.824113 99.101327 
L 559.088353 99.11611 
L 559.616832 99.190025 
L 559.748952 99.034788 
L 560.409552 99.123502 
L 569.393703 99.130893 
L 569.525822 98.968265 
L 569.657942 99.06437 
L 569.790062 98.983048 
L 569.922182 99.130893 
L 570.582781 99.034788 
L 570.847021 99.241765 
L 571.111261 99.056979 
L 571.50762 99.056979 
L 571.90398 99.079153 
L 572.16822 99.086544 
L 572.960939 99.093936 
L 573.753658 99.160459 
L 573.885778 99.020005 
L 574.150018 99.153068 
L 574.282138 99.06437 
L 574.546377 99.108719 
L 574.678497 99.034788 
L 574.942737 99.101327 
L 575.603336 99.101327 
L 575.735456 99.175242 
L 575.999696 99.020005 
L 576.131816 99.108719 
L 576.396056 99.049587 
L 576.792415 99.108719 
L 577.056655 99.11611 
L 577.717254 99.153068 
L 577.981494 99.049587 
L 578.245734 99.138285 
L 578.774213 99.071762 
L 578.906333 99.182633 
L 579.170573 99.086544 
L 579.434813 99.071762 
L 579.566932 99.50789 
L 579.699052 99.537455 
L 579.831172 99.397002 
L 579.963292 99.020005 
L 580.095412 99.005222 
L 580.491771 99.212199 
L 580.756011 99.130893 
L 580.888131 128.935434 
L 581.152371 117.337386 
L 581.54873 108.71832 
L 581.81297 103.920911 
L 582.34145 97.72642 
L 582.473569 100.077064 
L 582.605689 106.633769 
L 582.869929 97.866858 
L 583.002049 99.330479 
L 583.134169 99.315696 
L 583.266289 97.652489 
L 583.398409 98.746505 
L 583.530528 97.741203 
L 583.662648 98.339943 
L 583.794768 100.099238 
L 584.059008 99.11611 
L 584.191128 99.108719 
L 584.323248 98.258637 
L 584.587487 99.759215 
L 584.719607 100.276649 
L 584.851727 100.003149 
L 584.983847 98.517354 
L 585.115967 100.114021 
L 585.248087 98.835219 
L 585.512326 100.003149 
L 585.644446 98.54692 
L 585.776566 100.232301 
L 585.908686 100.136212 
L 586.040806 98.650416 
L 586.172926 99.870087 
L 586.305046 99.744432 
L 586.437165 99.226982 
L 587.097765 98.946091 
L 587.229885 99.234374 
L 587.362005 98.968265 
L 587.494124 99.323087 
L 587.626244 99.093936 
L 587.758364 99.360044 
L 588.022604 99.012614 
L 588.154724 99.175242 
L 588.286844 98.923916 
L 588.551083 99.234374 
L 588.683203 98.983048 
L 588.947443 99.219591 
L 589.079563 99.034788 
L 589.475922 99.219591 
L 589.608042 98.997831 
L 589.872282 99.108719 
L 590.004402 99.027397 
L 590.268642 99.160459 
L 590.532881 98.99044 
L 591.325601 99.056979 
L 591.58984 98.909133 
L 591.85408 98.99044 
L 592.25044 98.923916 
L 593.043159 98.909133 
L 593.175279 99.160459 
L 593.307399 98.997831 
L 593.703758 98.99044 
L 593.835878 98.923916 
L 594.100118 99.005222 
L 594.760717 99.160459 
L 594.892837 99.020005 
L 595.553436 99.056979 
L 595.685556 99.027397 
L 595.817676 99.153068 
L 596.214036 99.06437 
L 596.346155 99.219591 
L 596.610395 99.101327 
L 596.874635 99.175242 
L 597.006755 99.11611 
L 597.270995 99.182633 
L 597.535234 99.012614 
L 597.931594 99.145676 
L 598.063714 99.034788 
L 598.327953 99.101327 
L 598.724313 98.946091 
L 598.856433 99.079153 
L 599.120673 99.020005 
L 599.252793 99.049587 
L 599.384912 98.901742 
L 599.649152 99.293521 
L 599.781272 99.226982 
L 599.913392 99.005222 
L 600.177632 99.138285 
L 600.309751 99.005222 
L 600.441871 99.123502 
L 600.706111 98.960874 
L 600.838231 107.565157 
L 601.102471 100.128804 
L 601.234591 101.451987 
L 601.49883 98.776071 
L 601.63095 101.873317 
L 601.76307 99.966192 
L 601.89519 99.744432 
L 602.02731 99.108719 
L 602.291549 99.766607 
L 602.423669 98.968265 
L 602.687909 99.522673 
L 602.820029 99.11611 
L 602.952149 99.441351 
L 603.084269 99.300913 
L 603.216389 98.975657 
L 603.744868 99.06437 
L 603.876988 98.916525 
L 604.405467 99.197416 
L 604.801827 99.034788 
L 604.933947 99.130893 
L 605.066067 99.027397 
L 605.330306 99.263955 
L 605.462426 98.886959 
L 605.594546 99.079153 
L 605.726666 99.034788 
L 605.990906 99.219591 
L 606.255145 98.901742 
L 606.519385 99.263955 
L 606.651505 98.997831 
L 607.179985 99.086544 
L 607.708464 98.983048 
L 607.972704 99.071762 
L 608.104824 99.027397 
L 608.369063 99.108719 
L 608.765423 98.975657 
L 609.558142 99.049587 
L 610.218741 99.049587 
L 610.350861 99.153068 
L 610.615101 99.086544 
L 612.200539 98.975657 
L 612.332659 99.108719 
L 612.464779 98.99044 
L 612.596899 99.130893 
L 612.729019 99.049587 
L 612.861139 99.138285 
L 613.125379 99.079153 
L 613.389618 99.042196 
L 613.653858 99.079153 
L 613.785978 99.079153 
L 613.918098 99.204808 
L 614.050218 98.820436 
L 614.182337 99.278738 
L 614.446577 99.027397 
L 614.578697 99.33787 
L 614.710817 99.219591 
L 614.842937 98.820436 
L 614.975057 99.234374 
L 615.107177 98.946091 
L 615.371416 99.145676 
L 615.635656 99.056979 
L 615.767776 98.997831 
L 616.032016 99.153068 
L 616.164135 99.034788 
L 616.296255 99.108719 
L 616.692615 98.923916 
L 616.824735 99.101327 
L 617.617454 99.027397 
L 617.749574 99.093936 
L 618.013814 99.06437 
L 618.542293 99.042196 
L 618.806533 99.056979 
L 619.467132 99.056979 
L 619.995612 98.953482 
L 620.524091 99.071762 
L 620.656211 98.946091 
L 620.920451 98.983048 
L 621.44893 99.027397 
L 621.71317 99.049587 
L 621.84529 98.99044 
L 622.109529 99.020005 
L 622.505889 99.005222 
L 622.902249 98.953482 
L 623.166488 99.049587 
L 623.430728 98.99044 
L 624.091327 99.049587 
L 624.223447 98.946091 
L 624.355567 99.130893 
L 624.487687 98.909133 
L 624.619807 99.071762 
L 624.884047 98.983048 
L 625.016167 99.079153 
L 625.280406 99.042196 
L 625.676766 99.06437 
L 628.583403 99.079153 
L 628.715523 98.931308 
L 628.979763 99.012614 
L 629.111882 99.108719 
L 629.640362 98.983048 
L 629.904602 99.056979 
L 630.036721 98.968265 
L 630.300961 98.99044 
L 630.433081 99.034788 
L 630.565201 98.931308 
L 630.697321 99.049587 
L 630.829441 98.975657 
L 630.961561 99.071762 
L 631.2258 98.938699 
L 631.35792 99.06437 
L 631.49004 98.975657 
L 631.75428 99.005222 
L 632.282759 98.99044 
L 632.546999 99.012614 
L 634.793037 99.06437 
L 634.925157 98.997831 
L 635.057276 99.145676 
L 635.189396 98.997831 
L 635.321516 99.11611 
L 635.849996 99.06437 
L 635.982115 99.138285 
L 636.246355 99.056979 
L 636.774835 98.968265 
L 636.906955 99.160459 
L 637.039074 98.997831 
L 637.303314 99.06437 
L 637.963913 99.005222 
L 638.360273 99.06437 
L 638.888753 98.997831 
L 639.152992 99.020005 
L 639.417232 99.027397 
L 639.945712 99.049587 
L 641.39903 99.027397 
L 643.380828 98.99044 
L 643.512948 99.056979 
L 643.777188 99.020005 
L 650.647421 99.027397 
L 650.779541 99.596587 
L 650.91166 111.423786 
L 651.04378 137.473194 
L 651.57226 123.206637 
L 652.100739 108.481778 
L 652.364979 104.697062 
L 652.497099 102.841678 
L 652.629219 106.175466 
L 652.893458 99.204808 
L 653.157698 98.672591 
L 653.289818 101.969422 
L 653.421938 98.27342 
L 653.554058 99.034788 
L 653.686178 98.864785 
L 653.818298 99.441351 
L 654.082537 98.214288 
L 654.214657 98.347335 
L 654.346777 98.827827 
L 654.478897 103.91352 
L 654.611017 98.968265 
L 654.743137 99.034788 
L 654.875256 99.515281 
L 655.139496 99.485715 
L 655.271616 99.071762 
L 655.403736 99.167851 
L 655.535856 99.034788 
L 655.667976 99.226982 
L 655.800096 98.923916 
L 655.932215 99.374827 
L 656.064335 98.864785 
L 656.328575 99.293521 
L 656.592815 99.108719 
L 656.857054 99.034788 
L 656.989174 99.323087 
L 657.121294 99.071762 
L 657.253414 99.404393 
L 657.649774 99.360044 
L 658.046133 99.404393 
L 658.310373 99.219591 
L 658.442493 99.190025 
L 658.706733 99.300913 
L 659.235212 99.352653 
L 659.499452 99.263955 
L 659.631572 99.175242 
L 659.895811 99.212199 
L 660.292171 99.278738 
L 660.556411 99.204808 
L 660.688531 99.271347 
L 661.08489 99.182633 
L 661.34913 99.190025 
L 661.48125 99.271347 
L 661.74549 99.160459 
L 662.009729 99.249157 
L 662.406089 99.204808 
L 662.670329 99.300913 
L 662.934568 99.241765 
L 663.330928 99.278738 
L 663.463048 99.145676 
L 663.727288 99.308304 
L 664.123647 99.226982 
L 664.520007 99.219591 
L 664.916366 99.138285 
L 665.180606 99.226982 
L 665.444846 99.167851 
L 665.576966 99.263955 
L 665.841205 99.167851 
L 666.237565 99.278738 
L 666.766044 99.167851 
L 666.898164 99.271347 
L 667.162404 99.241765 
L 667.294524 99.278738 
L 667.558764 99.204808 
L 674.032637 99.234374 
L 674.164757 99.33787 
L 674.428997 99.241765 
L 674.825356 99.256548 
L 678.788952 99.249157 
L 678.921072 99.38961 
L 679.053192 99.249157 
L 679.317432 99.293521 
L 680.110151 99.28613 
L 680.90287 99.315696 
L 682.488309 99.352653 
L 682.620428 99.271347 
L 682.884668 99.330479 
L 683.941627 99.367436 
L 684.205867 99.397002 
L 684.337987 99.315696 
L 684.470107 99.404393 
L 684.734346 99.345262 
L 687.508864 99.485715 
L 687.640983 99.315696 
L 687.773103 99.448742 
L 688.037343 99.397002 
L 688.301583 99.456134 
L 688.565822 99.374827 
L 688.830062 99.426568 
L 689.490662 99.448742 
L 689.887021 99.433959 
L 690.415501 99.456134 
L 690.54762 99.367436 
L 690.94398 99.463525 
L 691.34034 99.426568 
L 691.736699 99.404393 
L 692.133059 99.433959 
L 692.529418 99.397002 
L 692.793658 99.374827 
L 692.925778 99.470916 
L 693.190018 99.426568 
L 693.454258 99.426568 
L 693.850617 99.397002 
L 694.114857 99.397002 
L 694.379097 99.419176 
L 695.436056 99.404393 
L 697.021494 99.382219 
L 697.417854 99.360044 
L 698.078453 99.397002 
L 698.474813 99.382219 
L 698.474813 99.382219 
" clip-path="url(#pcff7c0cc46)" style="fill: none; stroke: #1f77b4; stroke-width: 1.5; stroke-linecap: square"/>
   </g>
   <g id="patch_3">
    <path d="M 341.354813 311.6435 
L 341.354813 45.5315 
" style="fill: none; stroke: #000000; stroke-width: 0.8; stroke-linejoin: miter; stroke-linecap: square"/>
   </g>
   <g id="patch_4">
    <path d="M 698.474813 311.6435 
L 698.474813 45.5315 
" style="fill: none; stroke: #000000; stroke-width: 0.8; stroke-linejoin: miter; stroke-linecap: square"/>
   </g>
   <g id="patch_5">
    <path d="M 341.354813 311.6435 
L 698.474813 311.6435 
" style="fill: none; stroke: #000000; stroke-width: 0.8; stroke-linejoin: miter; stroke-linecap: square"/>
   </g>
   <g id="patch_6">
    <path d="M 341.354813 45.5315 
L 698.474813 45.5315 
" style="fill: none; stroke: #000000; stroke-width: 0.8; stroke-linejoin: miter; stroke-linecap: square"/>
   </g>
   <g id="text_17">
    <!-- Accuracy of the 26_05_25_CINIC10_torch_model_(1024+2048.2+1)_ct-pb on the validation set -->
    <g transform="translate(7.2 25.5315) scale(0.264 -0.264)">
     <defs>
      <path id="TimesNewRomanPSMT-68" d="M 1041 4444 
L 1041 2350 
Q 1388 2731 1591 2839 
Q 1794 2947 1997 2947 
Q 2241 2947 2416 2812 
Q 2591 2678 2675 2391 
Q 2734 2191 2734 1659 
L 2734 647 
Q 2734 375 2778 275 
Q 2809 200 2884 156 
Q 2959 113 3159 113 
L 3159 0 
L 1753 0 
L 1753 113 
L 1819 113 
Q 2019 113 2097 173 
Q 2175 234 2206 353 
Q 2216 403 2216 647 
L 2216 1659 
Q 2216 2128 2167 2275 
Q 2119 2422 2012 2495 
Q 1906 2569 1756 2569 
Q 1603 2569 1437 2487 
Q 1272 2406 1041 2159 
L 1041 647 
Q 1041 353 1073 281 
Q 1106 209 1195 161 
Q 1284 113 1503 113 
L 1503 0 
L 84 0 
L 84 113 
Q 275 113 384 172 
Q 447 203 484 290 
Q 522 378 522 647 
L 522 3238 
Q 522 3728 498 3840 
Q 475 3953 426 3993 
Q 378 4034 297 4034 
Q 231 4034 84 3984 
L 41 4094 
L 897 4444 
L 1041 4444 
z
" transform="scale(0.015625)"/>
      <path id="TimesNewRomanPSMT-5f" d="M 3256 -1381 
L -53 -1381 
L -53 -1119 
L 3256 -1119 
L 3256 -1381 
z
" transform="scale(0.015625)"/>
      <path id="TimesNewRomanPSMT-43" d="M 3853 4334 
L 3950 2894 
L 3853 2894 
Q 3659 3541 3300 3825 
Q 2941 4109 2438 4109 
Q 2016 4109 1675 3895 
Q 1334 3681 1139 3212 
Q 944 2744 944 2047 
Q 944 1472 1128 1050 
Q 1313 628 1683 403 
Q 2053 178 2528 178 
Q 2941 178 3256 354 
Q 3572 531 3950 1056 
L 4047 994 
Q 3728 428 3303 165 
Q 2878 -97 2294 -97 
Q 1241 -97 663 684 
Q 231 1266 231 2053 
Q 231 2688 515 3219 
Q 800 3750 1298 4042 
Q 1797 4334 2388 4334 
Q 2847 4334 3294 4109 
Q 3425 4041 3481 4041 
Q 3566 4041 3628 4100 
Q 3709 4184 3744 4334 
L 3853 4334 
z
" transform="scale(0.015625)"/>
      <path id="TimesNewRomanPSMT-49" d="M 1975 116 
L 1975 0 
L 159 0 
L 159 116 
L 309 116 
Q 572 116 691 269 
Q 766 369 766 750 
L 766 3488 
Q 766 3809 725 3913 
Q 694 3991 597 4047 
Q 459 4122 309 4122 
L 159 4122 
L 159 4238 
L 1975 4238 
L 1975 4122 
L 1822 4122 
Q 1563 4122 1444 3969 
Q 1366 3869 1366 3488 
L 1366 750 
Q 1366 428 1406 325 
Q 1438 247 1538 191 
Q 1672 116 1822 116 
L 1975 116 
z
" transform="scale(0.015625)"/>
      <path id="TimesNewRomanPSMT-64" d="M 2222 322 
Q 2013 103 1813 7 
Q 1613 -88 1381 -88 
Q 913 -88 563 304 
Q 213 697 213 1313 
Q 213 1928 600 2439 
Q 988 2950 1597 2950 
Q 1975 2950 2222 2709 
L 2222 3238 
Q 2222 3728 2198 3840 
Q 2175 3953 2125 3993 
Q 2075 4034 2000 4034 
Q 1919 4034 1784 3984 
L 1744 4094 
L 2597 4444 
L 2738 4444 
L 2738 1134 
Q 2738 631 2761 520 
Q 2784 409 2836 365 
Q 2888 322 2956 322 
Q 3041 322 3181 375 
L 3216 266 
L 2366 -88 
L 2222 -88 
L 2222 322 
z
M 2222 541 
L 2222 2016 
Q 2203 2228 2109 2403 
Q 2016 2578 1861 2667 
Q 1706 2756 1559 2756 
Q 1284 2756 1069 2509 
Q 784 2184 784 1559 
Q 784 928 1059 592 
Q 1334 256 1672 256 
Q 1956 256 2222 541 
z
" transform="scale(0.015625)"/>
      <path id="TimesNewRomanPSMT-6c" d="M 1184 4444 
L 1184 647 
Q 1184 378 1223 290 
Q 1263 203 1344 158 
Q 1425 113 1647 113 
L 1647 0 
L 244 0 
L 244 113 
Q 441 113 512 153 
Q 584 194 625 287 
Q 666 381 666 647 
L 666 3247 
Q 666 3731 644 3842 
Q 622 3953 573 3993 
Q 525 4034 450 4034 
Q 369 4034 244 3984 
L 191 4094 
L 1044 4444 
L 1184 4444 
z
" transform="scale(0.015625)"/>
      <path id="TimesNewRomanPSMT-28" d="M 1988 -1253 
L 1988 -1369 
Q 1516 -1131 1200 -813 
Q 750 -359 506 256 
Q 263 872 263 1534 
Q 263 2503 741 3301 
Q 1219 4100 1988 4444 
L 1988 4313 
Q 1603 4100 1356 3731 
Q 1109 3363 987 2797 
Q 866 2231 866 1616 
Q 866 947 969 400 
Q 1050 -31 1165 -292 
Q 1281 -553 1476 -793 
Q 1672 -1034 1988 -1253 
z
" transform="scale(0.015625)"/>
      <path id="TimesNewRomanPSMT-2b" d="M 1672 441 
L 1672 2000 
L 116 2000 
L 116 2256 
L 1672 2256 
L 1672 3809 
L 1922 3809 
L 1922 2256 
L 3484 2256 
L 3484 2000 
L 1922 2000 
L 1922 441 
L 1672 441 
z
" transform="scale(0.015625)"/>
      <path id="TimesNewRomanPSMT-29" d="M 144 4313 
L 144 4444 
Q 619 4209 934 3891 
Q 1381 3434 1625 2820 
Q 1869 2206 1869 1541 
Q 1869 572 1392 -226 
Q 916 -1025 144 -1369 
L 144 -1253 
Q 528 -1038 776 -670 
Q 1025 -303 1145 264 
Q 1266 831 1266 1447 
Q 1266 2113 1163 2663 
Q 1084 3094 967 3353 
Q 850 3613 656 3853 
Q 463 4094 144 4313 
z
" transform="scale(0.015625)"/>
      <path id="TimesNewRomanPSMT-2d" d="M 259 1672 
L 1875 1672 
L 1875 1200 
L 259 1200 
L 259 1672 
z
" transform="scale(0.015625)"/>
      <path id="TimesNewRomanPSMT-70" d="M -6 2578 
L 875 2934 
L 994 2934 
L 994 2266 
Q 1216 2644 1439 2795 
Q 1663 2947 1909 2947 
Q 2341 2947 2628 2609 
Q 2981 2197 2981 1534 
Q 2981 794 2556 309 
Q 2206 -88 1675 -88 
Q 1444 -88 1275 -22 
Q 1150 25 994 166 
L 994 -706 
Q 994 -1000 1030 -1079 
Q 1066 -1159 1155 -1206 
Q 1244 -1253 1478 -1253 
L 1478 -1369 
L -22 -1369 
L -22 -1253 
L 56 -1253 
Q 228 -1256 350 -1188 
Q 409 -1153 442 -1076 
Q 475 -1000 475 -688 
L 475 2019 
Q 475 2297 450 2372 
Q 425 2447 370 2484 
Q 316 2522 222 2522 
Q 147 2522 31 2478 
L -6 2578 
z
M 994 2081 
L 994 1013 
Q 994 666 1022 556 
Q 1066 375 1236 237 
Q 1406 100 1666 100 
Q 1978 100 2172 344 
Q 2425 663 2425 1241 
Q 2425 1897 2138 2250 
Q 1938 2494 1663 2494 
Q 1513 2494 1366 2419 
Q 1253 2363 994 2081 
z
" transform="scale(0.015625)"/>
      <path id="TimesNewRomanPSMT-76" d="M 53 2863 
L 1400 2863 
L 1400 2747 
L 1313 2747 
Q 1191 2747 1127 2687 
Q 1063 2628 1063 2528 
Q 1063 2419 1128 2269 
L 1794 688 
L 2463 2328 
Q 2534 2503 2534 2594 
Q 2534 2638 2509 2666 
Q 2475 2713 2422 2730 
Q 2369 2747 2206 2747 
L 2206 2863 
L 3141 2863 
L 3141 2747 
Q 2978 2734 2916 2681 
Q 2806 2588 2719 2369 
L 1703 -88 
L 1575 -88 
L 553 2328 
Q 484 2497 421 2570 
Q 359 2644 263 2694 
Q 209 2722 53 2747 
L 53 2863 
z
" transform="scale(0.015625)"/>
     </defs>
     <use xlink:href="#TimesNewRomanPSMT-41"/>
     <use xlink:href="#TimesNewRomanPSMT-63" transform="translate(72.216797 0)"/>
     <use xlink:href="#TimesNewRomanPSMT-63" transform="translate(116.601562 0)"/>
     <use xlink:href="#TimesNewRomanPSMT-75" transform="translate(160.986328 0)"/>
     <use xlink:href="#TimesNewRomanPSMT-72" transform="translate(210.986328 0)"/>
     <use xlink:href="#TimesNewRomanPSMT-61" transform="translate(244.287109 0)"/>
     <use xlink:href="#TimesNewRomanPSMT-63" transform="translate(288.671875 0)"/>
     <use xlink:href="#TimesNewRomanPSMT-79" transform="translate(333.056641 0)"/>
     <use xlink:href="#TimesNewRomanPSMT-20" transform="translate(383.056641 0)"/>
     <use xlink:href="#TimesNewRomanPSMT-6f" transform="translate(408.056641 0)"/>
     <use xlink:href="#TimesNewRomanPSMT-66" transform="translate(458.056641 0)"/>
     <use xlink:href="#TimesNewRomanPSMT-20" transform="translate(491.357422 0)"/>
     <use xlink:href="#TimesNewRomanPSMT-74" transform="translate(516.357422 0)"/>
     <use xlink:href="#TimesNewRomanPSMT-68" transform="translate(544.140625 0)"/>
     <use xlink:href="#TimesNewRomanPSMT-65" transform="translate(594.140625 0)"/>
     <use xlink:href="#TimesNewRomanPSMT-20" transform="translate(638.525391 0)"/>
     <use xlink:href="#TimesNewRomanPSMT-32" transform="translate(663.525391 0)"/>
     <use xlink:href="#TimesNewRomanPSMT-36" transform="translate(713.525391 0)"/>
     <use xlink:href="#TimesNewRomanPSMT-5f" transform="translate(763.525391 0)"/>
     <use xlink:href="#TimesNewRomanPSMT-30" transform="translate(813.525391 0)"/>
     <use xlink:href="#TimesNewRomanPSMT-35" transform="translate(863.525391 0)"/>
     <use xlink:href="#TimesNewRomanPSMT-5f" transform="translate(913.525391 0)"/>
     <use xlink:href="#TimesNewRomanPSMT-32" transform="translate(963.525391 0)"/>
     <use xlink:href="#TimesNewRomanPSMT-35" transform="translate(1013.525391 0)"/>
     <use xlink:href="#TimesNewRomanPSMT-5f" transform="translate(1063.525391 0)"/>
     <use xlink:href="#TimesNewRomanPSMT-43" transform="translate(1113.525391 0)"/>
     <use xlink:href="#TimesNewRomanPSMT-49" transform="translate(1180.224609 0)"/>
     <use xlink:href="#TimesNewRomanPSMT-4e" transform="translate(1213.525391 0)"/>
     <use xlink:href="#TimesNewRomanPSMT-49" transform="translate(1285.742188 0)"/>
     <use xlink:href="#TimesNewRomanPSMT-43" transform="translate(1319.042969 0)"/>
     <use xlink:href="#TimesNewRomanPSMT-31" transform="translate(1385.742188 0)"/>
     <use xlink:href="#TimesNewRomanPSMT-30" transform="translate(1435.742188 0)"/>
     <use xlink:href="#TimesNewRomanPSMT-5f" transform="translate(1485.742188 0)"/>
     <use xlink:href="#TimesNewRomanPSMT-74" transform="translate(1535.742188 0)"/>
     <use xlink:href="#TimesNewRomanPSMT-6f" transform="translate(1563.525391 0)"/>
     <use xlink:href="#TimesNewRomanPSMT-72" transform="translate(1613.525391 0)"/>
     <use xlink:href="#TimesNewRomanPSMT-63" transform="translate(1646.826172 0)"/>
     <use xlink:href="#TimesNewRomanPSMT-68" transform="translate(1691.210938 0)"/>
     <use xlink:href="#TimesNewRomanPSMT-5f" transform="translate(1741.210938 0)"/>
     <use xlink:href="#TimesNewRomanPSMT-6d" transform="translate(1791.210938 0)"/>
     <use xlink:href="#TimesNewRomanPSMT-6f" transform="translate(1868.994141 0)"/>
     <use xlink:href="#TimesNewRomanPSMT-64" transform="translate(1918.994141 0)"/>
     <use xlink:href="#TimesNewRomanPSMT-65" transform="translate(1968.994141 0)"/>
     <use xlink:href="#TimesNewRomanPSMT-6c" transform="translate(2013.378906 0)"/>
     <use xlink:href="#TimesNewRomanPSMT-5f" transform="translate(2041.162109 0)"/>
     <use xlink:href="#TimesNewRomanPSMT-28" transform="translate(2091.162109 0)"/>
     <use xlink:href="#TimesNewRomanPSMT-31" transform="translate(2124.462891 0)"/>
     <use xlink:href="#TimesNewRomanPSMT-30" transform="translate(2174.462891 0)"/>
     <use xlink:href="#TimesNewRomanPSMT-32" transform="translate(2224.462891 0)"/>
     <use xlink:href="#TimesNewRomanPSMT-34" transform="translate(2274.462891 0)"/>
     <use xlink:href="#TimesNewRomanPSMT-2b" transform="translate(2324.462891 0)"/>
     <use xlink:href="#TimesNewRomanPSMT-32" transform="translate(2380.859375 0)"/>
     <use xlink:href="#TimesNewRomanPSMT-30" transform="translate(2430.859375 0)"/>
     <use xlink:href="#TimesNewRomanPSMT-34" transform="translate(2480.859375 0)"/>
     <use xlink:href="#TimesNewRomanPSMT-38" transform="translate(2530.859375 0)"/>
     <use xlink:href="#TimesNewRomanPSMT-2e" transform="translate(2580.859375 0)"/>
     <use xlink:href="#TimesNewRomanPSMT-32" transform="translate(2605.859375 0)"/>
     <use xlink:href="#TimesNewRomanPSMT-2b" transform="translate(2655.859375 0)"/>
     <use xlink:href="#TimesNewRomanPSMT-31" transform="translate(2712.255859 0)"/>
     <use xlink:href="#TimesNewRomanPSMT-29" transform="translate(2762.255859 0)"/>
     <use xlink:href="#TimesNewRomanPSMT-5f" transform="translate(2795.556641 0)"/>
     <use xlink:href="#TimesNewRomanPSMT-63" transform="translate(2845.556641 0)"/>
     <use xlink:href="#TimesNewRomanPSMT-74" transform="translate(2889.941406 0)"/>
     <use xlink:href="#TimesNewRomanPSMT-2d" transform="translate(2917.724609 0)"/>
     <use xlink:href="#TimesNewRomanPSMT-70" transform="translate(2951.025391 0)"/>
     <use xlink:href="#TimesNewRomanPSMT-62" transform="translate(3001.025391 0)"/>
     <use xlink:href="#TimesNewRomanPSMT-20" transform="translate(3051.025391 0)"/>
     <use xlink:href="#TimesNewRomanPSMT-6f" transform="translate(3076.025391 0)"/>
     <use xlink:href="#TimesNewRomanPSMT-6e" transform="translate(3126.025391 0)"/>
     <use xlink:href="#TimesNewRomanPSMT-20" transform="translate(3176.025391 0)"/>
     <use xlink:href="#TimesNewRomanPSMT-74" transform="translate(3201.025391 0)"/>
     <use xlink:href="#TimesNewRomanPSMT-68" transform="translate(3228.808594 0)"/>
     <use xlink:href="#TimesNewRomanPSMT-65" transform="translate(3278.808594 0)"/>
     <use xlink:href="#TimesNewRomanPSMT-20" transform="translate(3323.193359 0)"/>
     <use xlink:href="#TimesNewRomanPSMT-76" transform="translate(3348.193359 0)"/>
     <use xlink:href="#TimesNewRomanPSMT-61" transform="translate(3398.193359 0)"/>
     <use xlink:href="#TimesNewRomanPSMT-6c" transform="translate(3442.578125 0)"/>
     <use xlink:href="#TimesNewRomanPSMT-69" transform="translate(3470.361328 0)"/>
     <use xlink:href="#TimesNewRomanPSMT-64" transform="translate(3498.144531 0)"/>
     <use xlink:href="#TimesNewRomanPSMT-61" transform="translate(3548.144531 0)"/>
     <use xlink:href="#TimesNewRomanPSMT-74" transform="translate(3592.529297 0)"/>
     <use xlink:href="#TimesNewRomanPSMT-69" transform="translate(3620.3125 0)"/>
     <use xlink:href="#TimesNewRomanPSMT-6f" transform="translate(3648.095703 0)"/>
     <use xlink:href="#TimesNewRomanPSMT-6e" transform="translate(3698.095703 0)"/>
     <use xlink:href="#TimesNewRomanPSMT-20" transform="translate(3748.095703 0)"/>
     <use xlink:href="#TimesNewRomanPSMT-73" transform="translate(3773.095703 0)"/>
     <use xlink:href="#TimesNewRomanPSMT-65" transform="translate(3812.011719 0)"/>
     <use xlink:href="#TimesNewRomanPSMT-74" transform="translate(3856.396484 0)"/>
    </g>
   </g>
   <g id="legend_1">
    <g id="patch_7">
     <path d="M 445.9045 94.278687 
L 683.074813 94.278687 
Q 687.474813 94.278687 687.474813 89.878687 
L 687.474813 60.9315 
Q 687.474813 56.5315 683.074813 56.5315 
L 445.9045 56.5315 
Q 441.5045 56.5315 441.5045 60.9315 
L 441.5045 89.878687 
Q 441.5045 94.278687 445.9045 94.278687 
z
" style="fill: #ffffff; opacity: 0.8; stroke: #cccccc; stroke-linejoin: miter"/>
    </g>
    <g id="line2d_30">
     <path d="M 450.3045 73.0315 
L 472.3045 73.0315 
L 494.3045 73.0315 
" style="fill: none; stroke: #1f77b4; stroke-width: 1.5; stroke-linecap: square"/>
    </g>
    <g id="text_18">
     <!-- Best accuracy 0.81 -->
     <g transform="translate(511.9045 80.7315) scale(0.22 -0.22)">
      <defs>
       <path id="TimesNewRomanPSMT-42" d="M 2956 2163 
Q 3397 2069 3616 1863 
Q 3919 1575 3919 1159 
Q 3919 844 3719 555 
Q 3519 266 3170 133 
Q 2822 0 2106 0 
L 106 0 
L 106 116 
L 266 116 
Q 531 116 647 284 
Q 719 394 719 750 
L 719 3488 
Q 719 3881 628 3984 
Q 506 4122 266 4122 
L 106 4122 
L 106 4238 
L 1938 4238 
Q 2450 4238 2759 4163 
Q 3228 4050 3475 3764 
Q 3722 3478 3722 3106 
Q 3722 2788 3528 2536 
Q 3334 2284 2956 2163 
z
M 1319 2331 
Q 1434 2309 1582 2298 
Q 1731 2288 1909 2288 
Q 2366 2288 2595 2386 
Q 2825 2484 2947 2687 
Q 3069 2891 3069 3131 
Q 3069 3503 2766 3765 
Q 2463 4028 1881 4028 
Q 1569 4028 1319 3959 
L 1319 2331 
z
M 1319 306 
Q 1681 222 2034 222 
Q 2600 222 2897 476 
Q 3194 731 3194 1106 
Q 3194 1353 3059 1581 
Q 2925 1809 2622 1940 
Q 2319 2072 1872 2072 
Q 1678 2072 1540 2065 
Q 1403 2059 1319 2044 
L 1319 306 
z
" transform="scale(0.015625)"/>
      </defs>
      <use xlink:href="#TimesNewRomanPSMT-42"/>
      <use xlink:href="#TimesNewRomanPSMT-65" transform="translate(66.699219 0)"/>
      <use xlink:href="#TimesNewRomanPSMT-73" transform="translate(111.083984 0)"/>
      <use xlink:href="#TimesNewRomanPSMT-74" transform="translate(150 0)"/>
      <use xlink:href="#TimesNewRomanPSMT-20" transform="translate(177.783203 0)"/>
      <use xlink:href="#TimesNewRomanPSMT-61" transform="translate(202.783203 0)"/>
      <use xlink:href="#TimesNewRomanPSMT-63" transform="translate(247.167969 0)"/>
      <use xlink:href="#TimesNewRomanPSMT-63" transform="translate(291.552734 0)"/>
      <use xlink:href="#TimesNewRomanPSMT-75" transform="translate(335.9375 0)"/>
      <use xlink:href="#TimesNewRomanPSMT-72" transform="translate(385.9375 0)"/>
      <use xlink:href="#TimesNewRomanPSMT-61" transform="translate(419.238281 0)"/>
      <use xlink:href="#TimesNewRomanPSMT-63" transform="translate(463.623047 0)"/>
      <use xlink:href="#TimesNewRomanPSMT-79" transform="translate(508.007812 0)"/>
      <use xlink:href="#TimesNewRomanPSMT-20" transform="translate(558.007812 0)"/>
      <use xlink:href="#TimesNewRomanPSMT-30" transform="translate(583.007812 0)"/>
      <use xlink:href="#TimesNewRomanPSMT-2e" transform="translate(633.007812 0)"/>
      <use xlink:href="#TimesNewRomanPSMT-38" transform="translate(658.007812 0)"/>
      <use xlink:href="#TimesNewRomanPSMT-31" transform="translate(708.007812 0)"/>
     </g>
    </g>
   </g>
  </g>
 </g>
 <defs>
  <clipPath id="pcff7c0cc46">
   <rect x="341.354813" y="45.5315" width="357.12" height="266.112"/>
  </clipPath>
 </defs>
</svg>
