<?xml version="1.0" encoding="utf-8" standalone="no"?>
<!DOCTYPE svg PUBLIC "-//W3C//DTD SVG 1.1//EN"
  "http://www.w3.org/Graphics/SVG/1.1/DTD/svg11.dtd">
<svg xmlns:xlink="http://www.w3.org/1999/xlink" width="971.63925pt" height="369.807875pt" viewBox="0 0 971.63925 369.807875" xmlns="http://www.w3.org/2000/svg" version="1.1">
 <metadata>
  <rdf:RDF xmlns:dc="http://purl.org/dc/elements/1.1/" xmlns:cc="http://creativecommons.org/ns#" xmlns:rdf="http://www.w3.org/1999/02/22-rdf-syntax-ns#">
   <cc:Work>
    <dc:type rdf:resource="http://purl.org/dc/dcmitype/StillImage"/>
    <dc:date>2025-05-21T10:40:07.644269</dc:date>
    <dc:format>image/svg+xml</dc:format>
    <dc:creator>
     <cc:Agent>
      <dc:title>Matplotlib v3.10.1, https://matplotlib.org/</dc:title>
     </cc:Agent>
    </dc:creator>
   </cc:Work>
  </rdf:RDF>
 </metadata>
 <defs>
  <style type="text/css">*{stroke-linejoin: round; stroke-linecap: butt}</style>
 </defs>
 <g id="figure_1">
  <g id="patch_1">
   <path d="M 0 369.807875 
L 971.63925 369.807875 
L 971.63925 0 
L 0 0 
z
" style="fill: #ffffff"/>
  </g>
  <g id="axes_1">
   <g id="patch_2">
    <path d="M 307.259625 311.6435 
L 664.379625 311.6435 
L 664.379625 45.5315 
L 307.259625 45.5315 
z
" style="fill: #ffffff"/>
   </g>
   <g id="matplotlib.axis_1">
    <g id="xtick_1">
     <g id="line2d_1">
      <path d="M 307.259625 311.6435 
L 307.259625 45.5315 
" clip-path="url(#pbaeda1485b)" style="fill: none; stroke: #b0b0b0; stroke-opacity: 0.3; stroke-width: 0.8; stroke-linecap: square"/>
     </g>
     <g id="line2d_2">
      <defs>
       <path id="m695822eec8" d="M 0 0 
L 0 3.5 
" style="stroke: #000000; stroke-width: 0.8"/>
      </defs>
      <g>
       <use xlink:href="#m695822eec8" x="307.259625" y="311.6435" style="stroke: #000000; stroke-width: 0.8"/>
      </g>
     </g>
     <g id="text_1">
      <!-- 0 -->
      <g transform="translate(301.759625 333.91975) scale(0.22 -0.22)">
       <defs>
        <path id="TimesNewRomanPSMT-30" d="M 231 2094 
Q 231 2819 450 3342 
Q 669 3866 1031 4122 
Q 1313 4325 1613 4325 
Q 2100 4325 2488 3828 
Q 2972 3213 2972 2159 
Q 2972 1422 2759 906 
Q 2547 391 2217 158 
Q 1888 -75 1581 -75 
Q 975 -75 572 641 
Q 231 1244 231 2094 
z
M 844 2016 
Q 844 1141 1059 588 
Q 1238 122 1591 122 
Q 1759 122 1940 273 
Q 2122 425 2216 781 
Q 2359 1319 2359 2297 
Q 2359 3022 2209 3506 
Q 2097 3866 1919 4016 
Q 1791 4119 1609 4119 
Q 1397 4119 1231 3928 
Q 1006 3669 925 3112 
Q 844 2556 844 2016 
z
" transform="scale(0.015625)"/>
       </defs>
       <use xlink:href="#TimesNewRomanPSMT-30"/>
      </g>
     </g>
    </g>
    <g id="xtick_2">
     <g id="line2d_3">
      <path d="M 389.39394 311.6435 
L 389.39394 45.5315 
" clip-path="url(#pbaeda1485b)" style="fill: none; stroke: #b0b0b0; stroke-opacity: 0.3; stroke-width: 0.8; stroke-linecap: square"/>
     </g>
     <g id="line2d_4">
      <g>
       <use xlink:href="#m695822eec8" x="389.39394" y="311.6435" style="stroke: #000000; stroke-width: 0.8"/>
      </g>
     </g>
     <g id="text_2">
      <!-- 2500 -->
      <g transform="translate(367.39394 333.91975) scale(0.22 -0.22)">
       <defs>
        <path id="TimesNewRomanPSMT-32" d="M 2934 816 
L 2638 0 
L 138 0 
L 138 116 
Q 1241 1122 1691 1759 
Q 2141 2397 2141 2925 
Q 2141 3328 1894 3587 
Q 1647 3847 1303 3847 
Q 991 3847 742 3664 
Q 494 3481 375 3128 
L 259 3128 
Q 338 3706 661 4015 
Q 984 4325 1469 4325 
Q 1984 4325 2329 3994 
Q 2675 3663 2675 3213 
Q 2675 2891 2525 2569 
Q 2294 2063 1775 1497 
Q 997 647 803 472 
L 1909 472 
Q 2247 472 2383 497 
Q 2519 522 2628 598 
Q 2738 675 2819 816 
L 2934 816 
z
" transform="scale(0.015625)"/>
        <path id="TimesNewRomanPSMT-35" d="M 2778 4238 
L 2534 3706 
L 1259 3706 
L 981 3138 
Q 1809 3016 2294 2522 
Q 2709 2097 2709 1522 
Q 2709 1188 2573 903 
Q 2438 619 2231 419 
Q 2025 219 1772 97 
Q 1413 -75 1034 -75 
Q 653 -75 479 54 
Q 306 184 306 341 
Q 306 428 378 495 
Q 450 563 559 563 
Q 641 563 702 538 
Q 763 513 909 409 
Q 1144 247 1384 247 
Q 1750 247 2026 523 
Q 2303 800 2303 1197 
Q 2303 1581 2056 1914 
Q 1809 2247 1375 2428 
Q 1034 2569 447 2591 
L 1259 4238 
L 2778 4238 
z
" transform="scale(0.015625)"/>
       </defs>
       <use xlink:href="#TimesNewRomanPSMT-32"/>
       <use xlink:href="#TimesNewRomanPSMT-35" transform="translate(50 0)"/>
       <use xlink:href="#TimesNewRomanPSMT-30" transform="translate(100 0)"/>
       <use xlink:href="#TimesNewRomanPSMT-30" transform="translate(150 0)"/>
      </g>
     </g>
    </g>
    <g id="xtick_3">
     <g id="line2d_5">
      <path d="M 471.528254 311.6435 
L 471.528254 45.5315 
" clip-path="url(#pbaeda1485b)" style="fill: none; stroke: #b0b0b0; stroke-opacity: 0.3; stroke-width: 0.8; stroke-linecap: square"/>
     </g>
     <g id="line2d_6">
      <g>
       <use xlink:href="#m695822eec8" x="471.528254" y="311.6435" style="stroke: #000000; stroke-width: 0.8"/>
      </g>
     </g>
     <g id="text_3">
      <!-- 5000 -->
      <g transform="translate(449.528254 333.91975) scale(0.22 -0.22)">
       <use xlink:href="#TimesNewRomanPSMT-35"/>
       <use xlink:href="#TimesNewRomanPSMT-30" transform="translate(50 0)"/>
       <use xlink:href="#TimesNewRomanPSMT-30" transform="translate(100 0)"/>
       <use xlink:href="#TimesNewRomanPSMT-30" transform="translate(150 0)"/>
      </g>
     </g>
    </g>
    <g id="xtick_4">
     <g id="line2d_7">
      <path d="M 553.662569 311.6435 
L 553.662569 45.5315 
" clip-path="url(#pbaeda1485b)" style="fill: none; stroke: #b0b0b0; stroke-opacity: 0.3; stroke-width: 0.8; stroke-linecap: square"/>
     </g>
     <g id="line2d_8">
      <g>
       <use xlink:href="#m695822eec8" x="553.662569" y="311.6435" style="stroke: #000000; stroke-width: 0.8"/>
      </g>
     </g>
     <g id="text_4">
      <!-- 7500 -->
      <g transform="translate(531.662569 333.91975) scale(0.22 -0.22)">
       <defs>
        <path id="TimesNewRomanPSMT-37" d="M 644 4238 
L 2916 4238 
L 2916 4119 
L 1503 -88 
L 1153 -88 
L 2419 3728 
L 1253 3728 
Q 900 3728 750 3644 
Q 488 3500 328 3200 
L 238 3234 
L 644 4238 
z
" transform="scale(0.015625)"/>
       </defs>
       <use xlink:href="#TimesNewRomanPSMT-37"/>
       <use xlink:href="#TimesNewRomanPSMT-35" transform="translate(50 0)"/>
       <use xlink:href="#TimesNewRomanPSMT-30" transform="translate(100 0)"/>
       <use xlink:href="#TimesNewRomanPSMT-30" transform="translate(150 0)"/>
      </g>
     </g>
    </g>
    <g id="xtick_5">
     <g id="line2d_9">
      <path d="M 635.796884 311.6435 
L 635.796884 45.5315 
" clip-path="url(#pbaeda1485b)" style="fill: none; stroke: #b0b0b0; stroke-opacity: 0.3; stroke-width: 0.8; stroke-linecap: square"/>
     </g>
     <g id="line2d_10">
      <g>
       <use xlink:href="#m695822eec8" x="635.796884" y="311.6435" style="stroke: #000000; stroke-width: 0.8"/>
      </g>
     </g>
     <g id="text_5">
      <!-- 10000 -->
      <g transform="translate(608.296884 333.91975) scale(0.22 -0.22)">
       <defs>
        <path id="TimesNewRomanPSMT-31" d="M 750 3822 
L 1781 4325 
L 1884 4325 
L 1884 747 
Q 1884 391 1914 303 
Q 1944 216 2037 169 
Q 2131 122 2419 116 
L 2419 0 
L 825 0 
L 825 116 
Q 1125 122 1212 167 
Q 1300 213 1334 289 
Q 1369 366 1369 747 
L 1369 3034 
Q 1369 3497 1338 3628 
Q 1316 3728 1258 3775 
Q 1200 3822 1119 3822 
Q 1003 3822 797 3725 
L 750 3822 
z
" transform="scale(0.015625)"/>
       </defs>
       <use xlink:href="#TimesNewRomanPSMT-31"/>
       <use xlink:href="#TimesNewRomanPSMT-30" transform="translate(50 0)"/>
       <use xlink:href="#TimesNewRomanPSMT-30" transform="translate(100 0)"/>
       <use xlink:href="#TimesNewRomanPSMT-30" transform="translate(150 0)"/>
       <use xlink:href="#TimesNewRomanPSMT-30" transform="translate(200 0)"/>
      </g>
     </g>
    </g>
    <g id="text_6">
     <!-- Number of iterations -->
     <g transform="translate(394.177594 357.901937) scale(0.22 -0.22)">
      <defs>
       <path id="TimesNewRomanPSMT-4e" d="M -84 4238 
L 1066 4238 
L 3656 1059 
L 3656 3503 
Q 3656 3894 3569 3991 
Q 3453 4122 3203 4122 
L 3056 4122 
L 3056 4238 
L 4531 4238 
L 4531 4122 
L 4381 4122 
Q 4113 4122 4000 3959 
Q 3931 3859 3931 3503 
L 3931 -69 
L 3819 -69 
L 1025 3344 
L 1025 734 
Q 1025 344 1109 247 
Q 1228 116 1475 116 
L 1625 116 
L 1625 0 
L 150 0 
L 150 116 
L 297 116 
Q 569 116 681 278 
Q 750 378 750 734 
L 750 3681 
Q 566 3897 470 3965 
Q 375 4034 191 4094 
Q 100 4122 -84 4122 
L -84 4238 
z
" transform="scale(0.015625)"/>
       <path id="TimesNewRomanPSMT-75" d="M 2709 2863 
L 2709 1128 
Q 2709 631 2732 520 
Q 2756 409 2807 365 
Q 2859 322 2928 322 
Q 3025 322 3147 375 
L 3191 266 
L 2334 -88 
L 2194 -88 
L 2194 519 
Q 1825 119 1631 15 
Q 1438 -88 1222 -88 
Q 981 -88 804 51 
Q 628 191 559 409 
Q 491 628 491 1028 
L 491 2306 
Q 491 2509 447 2587 
Q 403 2666 317 2708 
Q 231 2750 6 2747 
L 6 2863 
L 1009 2863 
L 1009 947 
Q 1009 547 1148 422 
Q 1288 297 1484 297 
Q 1619 297 1789 381 
Q 1959 466 2194 703 
L 2194 2325 
Q 2194 2569 2105 2655 
Q 2016 2741 1734 2747 
L 1734 2863 
L 2709 2863 
z
" transform="scale(0.015625)"/>
       <path id="TimesNewRomanPSMT-6d" d="M 1050 2338 
Q 1363 2650 1419 2697 
Q 1559 2816 1721 2881 
Q 1884 2947 2044 2947 
Q 2313 2947 2506 2790 
Q 2700 2634 2766 2338 
Q 3088 2713 3309 2830 
Q 3531 2947 3766 2947 
Q 3994 2947 4170 2830 
Q 4347 2713 4450 2447 
Q 4519 2266 4519 1878 
L 4519 647 
Q 4519 378 4559 278 
Q 4591 209 4675 161 
Q 4759 113 4950 113 
L 4950 0 
L 3538 0 
L 3538 113 
L 3597 113 
Q 3781 113 3884 184 
Q 3956 234 3988 344 
Q 4000 397 4000 647 
L 4000 1878 
Q 4000 2228 3916 2372 
Q 3794 2572 3525 2572 
Q 3359 2572 3192 2489 
Q 3025 2406 2788 2181 
L 2781 2147 
L 2788 2013 
L 2788 647 
Q 2788 353 2820 281 
Q 2853 209 2943 161 
Q 3034 113 3253 113 
L 3253 0 
L 1806 0 
L 1806 113 
Q 2044 113 2133 169 
Q 2222 225 2256 338 
Q 2272 391 2272 647 
L 2272 1878 
Q 2272 2228 2169 2381 
Q 2031 2581 1784 2581 
Q 1616 2581 1450 2491 
Q 1191 2353 1050 2181 
L 1050 647 
Q 1050 366 1089 281 
Q 1128 197 1204 155 
Q 1281 113 1516 113 
L 1516 0 
L 100 0 
L 100 113 
Q 297 113 375 155 
Q 453 197 493 289 
Q 534 381 534 647 
L 534 1741 
Q 534 2213 506 2350 
Q 484 2453 437 2492 
Q 391 2531 309 2531 
Q 222 2531 100 2484 
L 53 2597 
L 916 2947 
L 1050 2947 
L 1050 2338 
z
" transform="scale(0.015625)"/>
       <path id="TimesNewRomanPSMT-62" d="M 984 2369 
Q 1400 2947 1881 2947 
Q 2322 2947 2650 2570 
Q 2978 2194 2978 1541 
Q 2978 778 2472 313 
Q 2038 -88 1503 -88 
Q 1253 -88 995 3 
Q 738 94 469 275 
L 469 3241 
Q 469 3728 445 3840 
Q 422 3953 372 3993 
Q 322 4034 247 4034 
Q 159 4034 28 3984 
L -16 4094 
L 844 4444 
L 984 4444 
L 984 2369 
z
M 984 2169 
L 984 456 
Q 1144 300 1314 220 
Q 1484 141 1663 141 
Q 1947 141 2192 453 
Q 2438 766 2438 1363 
Q 2438 1913 2192 2208 
Q 1947 2503 1634 2503 
Q 1469 2503 1303 2419 
Q 1178 2356 984 2169 
z
" transform="scale(0.015625)"/>
       <path id="TimesNewRomanPSMT-65" d="M 681 1784 
Q 678 1147 991 784 
Q 1303 422 1725 422 
Q 2006 422 2214 576 
Q 2422 731 2563 1106 
L 2659 1044 
Q 2594 616 2278 264 
Q 1963 -88 1488 -88 
Q 972 -88 605 314 
Q 238 716 238 1394 
Q 238 2128 614 2539 
Q 991 2950 1559 2950 
Q 2041 2950 2350 2633 
Q 2659 2316 2659 1784 
L 681 1784 
z
M 681 1966 
L 2006 1966 
Q 1991 2241 1941 2353 
Q 1863 2528 1708 2628 
Q 1553 2728 1384 2728 
Q 1125 2728 920 2526 
Q 716 2325 681 1966 
z
" transform="scale(0.015625)"/>
       <path id="TimesNewRomanPSMT-72" d="M 1038 2947 
L 1038 2303 
Q 1397 2947 1775 2947 
Q 1947 2947 2059 2842 
Q 2172 2738 2172 2600 
Q 2172 2478 2090 2393 
Q 2009 2309 1897 2309 
Q 1788 2309 1652 2417 
Q 1516 2525 1450 2525 
Q 1394 2525 1328 2463 
Q 1188 2334 1038 2041 
L 1038 669 
Q 1038 431 1097 309 
Q 1138 225 1241 169 
Q 1344 113 1538 113 
L 1538 0 
L 72 0 
L 72 113 
Q 291 113 397 181 
Q 475 231 506 341 
Q 522 394 522 644 
L 522 1753 
Q 522 2253 501 2348 
Q 481 2444 426 2487 
Q 372 2531 291 2531 
Q 194 2531 72 2484 
L 41 2597 
L 906 2947 
L 1038 2947 
z
" transform="scale(0.015625)"/>
       <path id="TimesNewRomanPSMT-20" transform="scale(0.015625)"/>
       <path id="TimesNewRomanPSMT-6f" d="M 1600 2947 
Q 2250 2947 2644 2453 
Q 2978 2031 2978 1484 
Q 2978 1100 2793 706 
Q 2609 313 2286 112 
Q 1963 -88 1566 -88 
Q 919 -88 538 428 
Q 216 863 216 1403 
Q 216 1797 411 2186 
Q 606 2575 925 2761 
Q 1244 2947 1600 2947 
z
M 1503 2744 
Q 1338 2744 1170 2645 
Q 1003 2547 900 2300 
Q 797 2053 797 1666 
Q 797 1041 1045 587 
Q 1294 134 1700 134 
Q 2003 134 2200 384 
Q 2397 634 2397 1244 
Q 2397 2006 2069 2444 
Q 1847 2744 1503 2744 
z
" transform="scale(0.015625)"/>
       <path id="TimesNewRomanPSMT-66" d="M 1319 2638 
L 1319 756 
Q 1319 356 1406 250 
Q 1522 113 1716 113 
L 1975 113 
L 1975 0 
L 266 0 
L 266 113 
L 394 113 
Q 519 113 622 175 
Q 725 238 764 344 
Q 803 450 803 756 
L 803 2638 
L 247 2638 
L 247 2863 
L 803 2863 
L 803 3050 
Q 803 3478 940 3775 
Q 1078 4072 1361 4255 
Q 1644 4438 1997 4438 
Q 2325 4438 2600 4225 
Q 2781 4084 2781 3909 
Q 2781 3816 2700 3733 
Q 2619 3650 2525 3650 
Q 2453 3650 2373 3701 
Q 2294 3753 2178 3923 
Q 2063 4094 1966 4153 
Q 1869 4213 1750 4213 
Q 1606 4213 1506 4136 
Q 1406 4059 1362 3898 
Q 1319 3738 1319 3069 
L 1319 2863 
L 2056 2863 
L 2056 2638 
L 1319 2638 
z
" transform="scale(0.015625)"/>
       <path id="TimesNewRomanPSMT-69" d="M 928 4444 
Q 1059 4444 1151 4351 
Q 1244 4259 1244 4128 
Q 1244 3997 1151 3903 
Q 1059 3809 928 3809 
Q 797 3809 703 3903 
Q 609 3997 609 4128 
Q 609 4259 701 4351 
Q 794 4444 928 4444 
z
M 1188 2947 
L 1188 647 
Q 1188 378 1227 289 
Q 1266 200 1342 156 
Q 1419 113 1622 113 
L 1622 0 
L 231 0 
L 231 113 
Q 441 113 512 153 
Q 584 194 626 287 
Q 669 381 669 647 
L 669 1750 
Q 669 2216 641 2353 
Q 619 2453 572 2492 
Q 525 2531 444 2531 
Q 356 2531 231 2484 
L 188 2597 
L 1050 2947 
L 1188 2947 
z
" transform="scale(0.015625)"/>
       <path id="TimesNewRomanPSMT-74" d="M 1031 3803 
L 1031 2863 
L 1700 2863 
L 1700 2644 
L 1031 2644 
L 1031 788 
Q 1031 509 1111 412 
Q 1191 316 1316 316 
Q 1419 316 1516 380 
Q 1613 444 1666 569 
L 1788 569 
Q 1678 263 1478 108 
Q 1278 -47 1066 -47 
Q 922 -47 784 33 
Q 647 113 581 261 
Q 516 409 516 719 
L 516 2644 
L 63 2644 
L 63 2747 
Q 234 2816 414 2980 
Q 594 3144 734 3369 
Q 806 3488 934 3803 
L 1031 3803 
z
" transform="scale(0.015625)"/>
       <path id="TimesNewRomanPSMT-61" d="M 1822 413 
Q 1381 72 1269 19 
Q 1100 -59 909 -59 
Q 613 -59 420 144 
Q 228 347 228 678 
Q 228 888 322 1041 
Q 450 1253 767 1440 
Q 1084 1628 1822 1897 
L 1822 2009 
Q 1822 2438 1686 2597 
Q 1550 2756 1291 2756 
Q 1094 2756 978 2650 
Q 859 2544 859 2406 
L 866 2225 
Q 866 2081 792 2003 
Q 719 1925 600 1925 
Q 484 1925 411 2006 
Q 338 2088 338 2228 
Q 338 2497 613 2722 
Q 888 2947 1384 2947 
Q 1766 2947 2009 2819 
Q 2194 2722 2281 2516 
Q 2338 2381 2338 1966 
L 2338 994 
Q 2338 584 2353 492 
Q 2369 400 2405 369 
Q 2441 338 2488 338 
Q 2538 338 2575 359 
Q 2641 400 2828 588 
L 2828 413 
Q 2478 -56 2159 -56 
Q 2006 -56 1915 50 
Q 1825 156 1822 413 
z
M 1822 616 
L 1822 1706 
Q 1350 1519 1213 1441 
Q 966 1303 859 1153 
Q 753 1003 753 825 
Q 753 600 887 451 
Q 1022 303 1197 303 
Q 1434 303 1822 616 
z
" transform="scale(0.015625)"/>
       <path id="TimesNewRomanPSMT-6e" d="M 1034 2341 
Q 1538 2947 1994 2947 
Q 2228 2947 2397 2830 
Q 2566 2713 2666 2444 
Q 2734 2256 2734 1869 
L 2734 647 
Q 2734 375 2778 278 
Q 2813 200 2889 156 
Q 2966 113 3172 113 
L 3172 0 
L 1756 0 
L 1756 113 
L 1816 113 
Q 2016 113 2095 173 
Q 2175 234 2206 353 
Q 2219 400 2219 647 
L 2219 1819 
Q 2219 2209 2117 2386 
Q 2016 2563 1775 2563 
Q 1403 2563 1034 2156 
L 1034 647 
Q 1034 356 1069 288 
Q 1113 197 1189 155 
Q 1266 113 1500 113 
L 1500 0 
L 84 0 
L 84 113 
L 147 113 
Q 366 113 442 223 
Q 519 334 519 647 
L 519 1709 
Q 519 2225 495 2337 
Q 472 2450 423 2490 
Q 375 2531 294 2531 
Q 206 2531 84 2484 
L 38 2597 
L 900 2947 
L 1034 2947 
L 1034 2341 
z
" transform="scale(0.015625)"/>
       <path id="TimesNewRomanPSMT-73" d="M 2050 2947 
L 2050 1972 
L 1947 1972 
Q 1828 2431 1642 2597 
Q 1456 2763 1169 2763 
Q 950 2763 815 2647 
Q 681 2531 681 2391 
Q 681 2216 781 2091 
Q 878 1963 1175 1819 
L 1631 1597 
Q 2266 1288 2266 781 
Q 2266 391 1970 151 
Q 1675 -88 1309 -88 
Q 1047 -88 709 6 
Q 606 38 541 38 
Q 469 38 428 -44 
L 325 -44 
L 325 978 
L 428 978 
Q 516 541 762 319 
Q 1009 97 1316 97 
Q 1531 97 1667 223 
Q 1803 350 1803 528 
Q 1803 744 1651 891 
Q 1500 1038 1047 1263 
Q 594 1488 453 1669 
Q 313 1847 313 2119 
Q 313 2472 555 2709 
Q 797 2947 1181 2947 
Q 1350 2947 1591 2875 
Q 1750 2828 1803 2828 
Q 1853 2828 1881 2850 
Q 1909 2872 1947 2947 
L 2050 2947 
z
" transform="scale(0.015625)"/>
      </defs>
      <use xlink:href="#TimesNewRomanPSMT-4e"/>
      <use xlink:href="#TimesNewRomanPSMT-75" transform="translate(72.216797 0)"/>
      <use xlink:href="#TimesNewRomanPSMT-6d" transform="translate(122.216797 0)"/>
      <use xlink:href="#TimesNewRomanPSMT-62" transform="translate(200 0)"/>
      <use xlink:href="#TimesNewRomanPSMT-65" transform="translate(250 0)"/>
      <use xlink:href="#TimesNewRomanPSMT-72" transform="translate(294.384766 0)"/>
      <use xlink:href="#TimesNewRomanPSMT-20" transform="translate(327.685547 0)"/>
      <use xlink:href="#TimesNewRomanPSMT-6f" transform="translate(352.685547 0)"/>
      <use xlink:href="#TimesNewRomanPSMT-66" transform="translate(402.685547 0)"/>
      <use xlink:href="#TimesNewRomanPSMT-20" transform="translate(435.986328 0)"/>
      <use xlink:href="#TimesNewRomanPSMT-69" transform="translate(460.986328 0)"/>
      <use xlink:href="#TimesNewRomanPSMT-74" transform="translate(488.769531 0)"/>
      <use xlink:href="#TimesNewRomanPSMT-65" transform="translate(516.552734 0)"/>
      <use xlink:href="#TimesNewRomanPSMT-72" transform="translate(560.9375 0)"/>
      <use xlink:href="#TimesNewRomanPSMT-61" transform="translate(594.238281 0)"/>
      <use xlink:href="#TimesNewRomanPSMT-74" transform="translate(638.623047 0)"/>
      <use xlink:href="#TimesNewRomanPSMT-69" transform="translate(666.40625 0)"/>
      <use xlink:href="#TimesNewRomanPSMT-6f" transform="translate(694.189453 0)"/>
      <use xlink:href="#TimesNewRomanPSMT-6e" transform="translate(744.189453 0)"/>
      <use xlink:href="#TimesNewRomanPSMT-73" transform="translate(794.189453 0)"/>
     </g>
    </g>
   </g>
   <g id="matplotlib.axis_2">
    <g id="ytick_1">
     <g id="line2d_11">
      <path d="M 307.259625 311.6435 
L 664.379625 311.6435 
" clip-path="url(#pbaeda1485b)" style="fill: none; stroke: #b0b0b0; stroke-opacity: 0.3; stroke-width: 0.8; stroke-linecap: square"/>
     </g>
     <g id="line2d_12">
      <defs>
       <path id="mb7c4e47462" d="M 0 0 
L -3.5 0 
" style="stroke: #000000; stroke-width: 0.8"/>
      </defs>
      <g>
       <use xlink:href="#mb7c4e47462" x="307.259625" y="311.6435" style="stroke: #000000; stroke-width: 0.8"/>
      </g>
     </g>
     <g id="text_7">
      <!-- 0.0 -->
      <g transform="translate(272.759625 319.281625) scale(0.22 -0.22)">
       <defs>
        <path id="TimesNewRomanPSMT-2e" d="M 800 606 
Q 947 606 1047 504 
Q 1147 403 1147 259 
Q 1147 116 1045 14 
Q 944 -88 800 -88 
Q 656 -88 554 14 
Q 453 116 453 259 
Q 453 406 554 506 
Q 656 606 800 606 
z
" transform="scale(0.015625)"/>
       </defs>
       <use xlink:href="#TimesNewRomanPSMT-30"/>
       <use xlink:href="#TimesNewRomanPSMT-2e" transform="translate(50 0)"/>
       <use xlink:href="#TimesNewRomanPSMT-30" transform="translate(75 0)"/>
      </g>
     </g>
    </g>
    <g id="ytick_2">
     <g id="line2d_13">
      <path d="M 307.259625 285.0323 
L 664.379625 285.0323 
" clip-path="url(#pbaeda1485b)" style="fill: none; stroke: #b0b0b0; stroke-opacity: 0.3; stroke-width: 0.8; stroke-linecap: square"/>
     </g>
     <g id="line2d_14">
      <g>
       <use xlink:href="#mb7c4e47462" x="307.259625" y="285.0323" style="stroke: #000000; stroke-width: 0.8"/>
      </g>
     </g>
     <g id="text_8">
      <!-- 0.1 -->
      <g transform="translate(272.759625 292.670425) scale(0.22 -0.22)">
       <use xlink:href="#TimesNewRomanPSMT-30"/>
       <use xlink:href="#TimesNewRomanPSMT-2e" transform="translate(50 0)"/>
       <use xlink:href="#TimesNewRomanPSMT-31" transform="translate(75 0)"/>
      </g>
     </g>
    </g>
    <g id="ytick_3">
     <g id="line2d_15">
      <path d="M 307.259625 258.4211 
L 664.379625 258.4211 
" clip-path="url(#pbaeda1485b)" style="fill: none; stroke: #b0b0b0; stroke-opacity: 0.3; stroke-width: 0.8; stroke-linecap: square"/>
     </g>
     <g id="line2d_16">
      <g>
       <use xlink:href="#mb7c4e47462" x="307.259625" y="258.4211" style="stroke: #000000; stroke-width: 0.8"/>
      </g>
     </g>
     <g id="text_9">
      <!-- 0.2 -->
      <g transform="translate(272.759625 266.059225) scale(0.22 -0.22)">
       <use xlink:href="#TimesNewRomanPSMT-30"/>
       <use xlink:href="#TimesNewRomanPSMT-2e" transform="translate(50 0)"/>
       <use xlink:href="#TimesNewRomanPSMT-32" transform="translate(75 0)"/>
      </g>
     </g>
    </g>
    <g id="ytick_4">
     <g id="line2d_17">
      <path d="M 307.259625 231.8099 
L 664.379625 231.8099 
" clip-path="url(#pbaeda1485b)" style="fill: none; stroke: #b0b0b0; stroke-opacity: 0.3; stroke-width: 0.8; stroke-linecap: square"/>
     </g>
     <g id="line2d_18">
      <g>
       <use xlink:href="#mb7c4e47462" x="307.259625" y="231.8099" style="stroke: #000000; stroke-width: 0.8"/>
      </g>
     </g>
     <g id="text_10">
      <!-- 0.3 -->
      <g transform="translate(272.759625 239.448025) scale(0.22 -0.22)">
       <defs>
        <path id="TimesNewRomanPSMT-33" d="M 325 3431 
Q 506 3859 782 4092 
Q 1059 4325 1472 4325 
Q 1981 4325 2253 3994 
Q 2459 3747 2459 3466 
Q 2459 3003 1878 2509 
Q 2269 2356 2469 2072 
Q 2669 1788 2669 1403 
Q 2669 853 2319 450 
Q 1863 -75 997 -75 
Q 569 -75 414 31 
Q 259 138 259 259 
Q 259 350 332 419 
Q 406 488 509 488 
Q 588 488 669 463 
Q 722 447 909 348 
Q 1097 250 1169 231 
Q 1284 197 1416 197 
Q 1734 197 1970 444 
Q 2206 691 2206 1028 
Q 2206 1275 2097 1509 
Q 2016 1684 1919 1775 
Q 1784 1900 1550 2001 
Q 1316 2103 1072 2103 
L 972 2103 
L 972 2197 
Q 1219 2228 1467 2375 
Q 1716 2522 1828 2728 
Q 1941 2934 1941 3181 
Q 1941 3503 1739 3701 
Q 1538 3900 1238 3900 
Q 753 3900 428 3381 
L 325 3431 
z
" transform="scale(0.015625)"/>
       </defs>
       <use xlink:href="#TimesNewRomanPSMT-30"/>
       <use xlink:href="#TimesNewRomanPSMT-2e" transform="translate(50 0)"/>
       <use xlink:href="#TimesNewRomanPSMT-33" transform="translate(75 0)"/>
      </g>
     </g>
    </g>
    <g id="ytick_5">
     <g id="line2d_19">
      <path d="M 307.259625 205.1987 
L 664.379625 205.1987 
" clip-path="url(#pbaeda1485b)" style="fill: none; stroke: #b0b0b0; stroke-opacity: 0.3; stroke-width: 0.8; stroke-linecap: square"/>
     </g>
     <g id="line2d_20">
      <g>
       <use xlink:href="#mb7c4e47462" x="307.259625" y="205.1987" style="stroke: #000000; stroke-width: 0.8"/>
      </g>
     </g>
     <g id="text_11">
      <!-- 0.4 -->
      <g transform="translate(272.759625 212.836825) scale(0.22 -0.22)">
       <defs>
        <path id="TimesNewRomanPSMT-34" d="M 2978 1563 
L 2978 1119 
L 2409 1119 
L 2409 0 
L 1894 0 
L 1894 1119 
L 100 1119 
L 100 1519 
L 2066 4325 
L 2409 4325 
L 2409 1563 
L 2978 1563 
z
M 1894 1563 
L 1894 3666 
L 406 1563 
L 1894 1563 
z
" transform="scale(0.015625)"/>
       </defs>
       <use xlink:href="#TimesNewRomanPSMT-30"/>
       <use xlink:href="#TimesNewRomanPSMT-2e" transform="translate(50 0)"/>
       <use xlink:href="#TimesNewRomanPSMT-34" transform="translate(75 0)"/>
      </g>
     </g>
    </g>
    <g id="ytick_6">
     <g id="line2d_21">
      <path d="M 307.259625 178.5875 
L 664.379625 178.5875 
" clip-path="url(#pbaeda1485b)" style="fill: none; stroke: #b0b0b0; stroke-opacity: 0.3; stroke-width: 0.8; stroke-linecap: square"/>
     </g>
     <g id="line2d_22">
      <g>
       <use xlink:href="#mb7c4e47462" x="307.259625" y="178.5875" style="stroke: #000000; stroke-width: 0.8"/>
      </g>
     </g>
     <g id="text_12">
      <!-- 0.5 -->
      <g transform="translate(272.759625 186.225625) scale(0.22 -0.22)">
       <use xlink:href="#TimesNewRomanPSMT-30"/>
       <use xlink:href="#TimesNewRomanPSMT-2e" transform="translate(50 0)"/>
       <use xlink:href="#TimesNewRomanPSMT-35" transform="translate(75 0)"/>
      </g>
     </g>
    </g>
    <g id="ytick_7">
     <g id="line2d_23">
      <path d="M 307.259625 151.9763 
L 664.379625 151.9763 
" clip-path="url(#pbaeda1485b)" style="fill: none; stroke: #b0b0b0; stroke-opacity: 0.3; stroke-width: 0.8; stroke-linecap: square"/>
     </g>
     <g id="line2d_24">
      <g>
       <use xlink:href="#mb7c4e47462" x="307.259625" y="151.9763" style="stroke: #000000; stroke-width: 0.8"/>
      </g>
     </g>
     <g id="text_13">
      <!-- 0.6 -->
      <g transform="translate(272.759625 159.614425) scale(0.22 -0.22)">
       <defs>
        <path id="TimesNewRomanPSMT-36" d="M 2869 4325 
L 2869 4209 
Q 2456 4169 2195 4045 
Q 1934 3922 1679 3669 
Q 1425 3416 1258 3105 
Q 1091 2794 978 2366 
Q 1428 2675 1881 2675 
Q 2316 2675 2634 2325 
Q 2953 1975 2953 1425 
Q 2953 894 2631 456 
Q 2244 -75 1606 -75 
Q 1172 -75 869 213 
Q 275 772 275 1663 
Q 275 2231 503 2743 
Q 731 3256 1154 3653 
Q 1578 4050 1965 4187 
Q 2353 4325 2688 4325 
L 2869 4325 
z
M 925 2138 
Q 869 1716 869 1456 
Q 869 1156 980 804 
Q 1091 453 1309 247 
Q 1469 100 1697 100 
Q 1969 100 2183 356 
Q 2397 613 2397 1088 
Q 2397 1622 2184 2012 
Q 1972 2403 1581 2403 
Q 1463 2403 1327 2353 
Q 1191 2303 925 2138 
z
" transform="scale(0.015625)"/>
       </defs>
       <use xlink:href="#TimesNewRomanPSMT-30"/>
       <use xlink:href="#TimesNewRomanPSMT-2e" transform="translate(50 0)"/>
       <use xlink:href="#TimesNewRomanPSMT-36" transform="translate(75 0)"/>
      </g>
     </g>
    </g>
    <g id="ytick_8">
     <g id="line2d_25">
      <path d="M 307.259625 125.3651 
L 664.379625 125.3651 
" clip-path="url(#pbaeda1485b)" style="fill: none; stroke: #b0b0b0; stroke-opacity: 0.3; stroke-width: 0.8; stroke-linecap: square"/>
     </g>
     <g id="line2d_26">
      <g>
       <use xlink:href="#mb7c4e47462" x="307.259625" y="125.3651" style="stroke: #000000; stroke-width: 0.8"/>
      </g>
     </g>
     <g id="text_14">
      <!-- 0.7 -->
      <g transform="translate(272.759625 133.003225) scale(0.22 -0.22)">
       <use xlink:href="#TimesNewRomanPSMT-30"/>
       <use xlink:href="#TimesNewRomanPSMT-2e" transform="translate(50 0)"/>
       <use xlink:href="#TimesNewRomanPSMT-37" transform="translate(75 0)"/>
      </g>
     </g>
    </g>
    <g id="ytick_9">
     <g id="line2d_27">
      <path d="M 307.259625 98.7539 
L 664.379625 98.7539 
" clip-path="url(#pbaeda1485b)" style="fill: none; stroke: #b0b0b0; stroke-opacity: 0.3; stroke-width: 0.8; stroke-linecap: square"/>
     </g>
     <g id="line2d_28">
      <g>
       <use xlink:href="#mb7c4e47462" x="307.259625" y="98.7539" style="stroke: #000000; stroke-width: 0.8"/>
      </g>
     </g>
     <g id="text_15">
      <!-- 0.8 -->
      <g transform="translate(272.759625 106.392025) scale(0.22 -0.22)">
       <defs>
        <path id="TimesNewRomanPSMT-38" d="M 1228 2134 
Q 725 2547 579 2797 
Q 434 3047 434 3316 
Q 434 3728 753 4026 
Q 1072 4325 1600 4325 
Q 2113 4325 2425 4047 
Q 2738 3769 2738 3413 
Q 2738 3175 2569 2928 
Q 2400 2681 1866 2347 
Q 2416 1922 2594 1678 
Q 2831 1359 2831 1006 
Q 2831 559 2490 242 
Q 2150 -75 1597 -75 
Q 994 -75 656 303 
Q 388 606 388 966 
Q 388 1247 577 1523 
Q 766 1800 1228 2134 
z
M 1719 2469 
Q 2094 2806 2194 3001 
Q 2294 3197 2294 3444 
Q 2294 3772 2109 3958 
Q 1925 4144 1606 4144 
Q 1288 4144 1088 3959 
Q 888 3775 888 3528 
Q 888 3366 970 3203 
Q 1053 3041 1206 2894 
L 1719 2469 
z
M 1375 2016 
Q 1116 1797 991 1539 
Q 866 1281 866 981 
Q 866 578 1086 336 
Q 1306 94 1647 94 
Q 1984 94 2187 284 
Q 2391 475 2391 747 
Q 2391 972 2272 1150 
Q 2050 1481 1375 2016 
z
" transform="scale(0.015625)"/>
       </defs>
       <use xlink:href="#TimesNewRomanPSMT-30"/>
       <use xlink:href="#TimesNewRomanPSMT-2e" transform="translate(50 0)"/>
       <use xlink:href="#TimesNewRomanPSMT-38" transform="translate(75 0)"/>
      </g>
     </g>
    </g>
    <g id="ytick_10">
     <g id="line2d_29">
      <path d="M 307.259625 72.1427 
L 664.379625 72.1427 
" clip-path="url(#pbaeda1485b)" style="fill: none; stroke: #b0b0b0; stroke-opacity: 0.3; stroke-width: 0.8; stroke-linecap: square"/>
     </g>
     <g id="line2d_30">
      <g>
       <use xlink:href="#mb7c4e47462" x="307.259625" y="72.1427" style="stroke: #000000; stroke-width: 0.8"/>
      </g>
     </g>
     <g id="text_16">
      <!-- 0.9 -->
      <g transform="translate(272.759625 79.780825) scale(0.22 -0.22)">
       <defs>
        <path id="TimesNewRomanPSMT-39" d="M 338 -88 
L 338 28 
Q 744 34 1094 217 
Q 1444 400 1770 856 
Q 2097 1313 2225 1859 
Q 1734 1544 1338 1544 
Q 891 1544 572 1889 
Q 253 2234 253 2806 
Q 253 3363 572 3797 
Q 956 4325 1575 4325 
Q 2097 4325 2469 3894 
Q 2925 3359 2925 2575 
Q 2925 1869 2578 1258 
Q 2231 647 1613 244 
Q 1109 -88 516 -88 
L 338 -88 
z
M 2275 2091 
Q 2331 2497 2331 2741 
Q 2331 3044 2228 3395 
Q 2125 3747 1936 3934 
Q 1747 4122 1506 4122 
Q 1228 4122 1018 3872 
Q 809 3622 809 3128 
Q 809 2469 1088 2097 
Q 1291 1828 1588 1828 
Q 1731 1828 1928 1897 
Q 2125 1966 2275 2091 
z
" transform="scale(0.015625)"/>
       </defs>
       <use xlink:href="#TimesNewRomanPSMT-30"/>
       <use xlink:href="#TimesNewRomanPSMT-2e" transform="translate(50 0)"/>
       <use xlink:href="#TimesNewRomanPSMT-39" transform="translate(75 0)"/>
      </g>
     </g>
    </g>
    <g id="ytick_11">
     <g id="line2d_31">
      <path d="M 307.259625 45.5315 
L 664.379625 45.5315 
" clip-path="url(#pbaeda1485b)" style="fill: none; stroke: #b0b0b0; stroke-opacity: 0.3; stroke-width: 0.8; stroke-linecap: square"/>
     </g>
     <g id="line2d_32">
      <g>
       <use xlink:href="#mb7c4e47462" x="307.259625" y="45.5315" style="stroke: #000000; stroke-width: 0.8"/>
      </g>
     </g>
     <g id="text_17">
      <!-- 1.0 -->
      <g transform="translate(272.759625 53.169625) scale(0.22 -0.22)">
       <use xlink:href="#TimesNewRomanPSMT-31"/>
       <use xlink:href="#TimesNewRomanPSMT-2e" transform="translate(50 0)"/>
       <use xlink:href="#TimesNewRomanPSMT-30" transform="translate(75 0)"/>
      </g>
     </g>
    </g>
    <g id="text_18">
     <!-- Accuracy -->
     <g transform="translate(264.012438 220.726094) rotate(-90) scale(0.22 -0.22)">
      <defs>
       <path id="TimesNewRomanPSMT-41" d="M 2928 1419 
L 1288 1419 
L 1000 750 
Q 894 503 894 381 
Q 894 284 986 211 
Q 1078 138 1384 116 
L 1384 0 
L 50 0 
L 50 116 
Q 316 163 394 238 
Q 553 388 747 847 
L 2238 4334 
L 2347 4334 
L 3822 809 
Q 4000 384 4145 257 
Q 4291 131 4550 116 
L 4550 0 
L 2878 0 
L 2878 116 
Q 3131 128 3220 200 
Q 3309 272 3309 375 
Q 3309 513 3184 809 
L 2928 1419 
z
M 2841 1650 
L 2122 3363 
L 1384 1650 
L 2841 1650 
z
" transform="scale(0.015625)"/>
       <path id="TimesNewRomanPSMT-63" d="M 2631 1088 
Q 2516 522 2178 217 
Q 1841 -88 1431 -88 
Q 944 -88 581 321 
Q 219 731 219 1428 
Q 219 2103 620 2525 
Q 1022 2947 1584 2947 
Q 2006 2947 2278 2723 
Q 2550 2500 2550 2259 
Q 2550 2141 2473 2067 
Q 2397 1994 2259 1994 
Q 2075 1994 1981 2113 
Q 1928 2178 1911 2362 
Q 1894 2547 1784 2644 
Q 1675 2738 1481 2738 
Q 1169 2738 978 2506 
Q 725 2200 725 1697 
Q 725 1184 976 792 
Q 1228 400 1656 400 
Q 1963 400 2206 609 
Q 2378 753 2541 1131 
L 2631 1088 
z
" transform="scale(0.015625)"/>
       <path id="TimesNewRomanPSMT-79" d="M 38 2863 
L 1372 2863 
L 1372 2747 
L 1306 2747 
Q 1166 2747 1095 2686 
Q 1025 2625 1025 2534 
Q 1025 2413 1128 2197 
L 1825 753 
L 2466 2334 
Q 2519 2463 2519 2588 
Q 2519 2644 2497 2672 
Q 2472 2706 2419 2726 
Q 2366 2747 2231 2747 
L 2231 2863 
L 3163 2863 
L 3163 2747 
Q 3047 2734 2984 2696 
Q 2922 2659 2847 2556 
Q 2819 2513 2741 2316 
L 1575 -541 
Q 1406 -956 1132 -1168 
Q 859 -1381 606 -1381 
Q 422 -1381 303 -1275 
Q 184 -1169 184 -1031 
Q 184 -900 270 -820 
Q 356 -741 506 -741 
Q 609 -741 788 -809 
Q 913 -856 944 -856 
Q 1038 -856 1148 -759 
Q 1259 -663 1372 -384 
L 1575 113 
L 547 2272 
Q 500 2369 397 2513 
Q 319 2622 269 2659 
Q 197 2709 38 2747 
L 38 2863 
z
" transform="scale(0.015625)"/>
      </defs>
      <use xlink:href="#TimesNewRomanPSMT-41"/>
      <use xlink:href="#TimesNewRomanPSMT-63" transform="translate(72.216797 0)"/>
      <use xlink:href="#TimesNewRomanPSMT-63" transform="translate(116.601562 0)"/>
      <use xlink:href="#TimesNewRomanPSMT-75" transform="translate(160.986328 0)"/>
      <use xlink:href="#TimesNewRomanPSMT-72" transform="translate(210.986328 0)"/>
      <use xlink:href="#TimesNewRomanPSMT-61" transform="translate(244.287109 0)"/>
      <use xlink:href="#TimesNewRomanPSMT-63" transform="translate(288.671875 0)"/>
      <use xlink:href="#TimesNewRomanPSMT-79" transform="translate(333.056641 0)"/>
     </g>
    </g>
   </g>
   <g id="line2d_33">
    <path d="M 307.259625 152.168488 
L 307.588465 142.588468 
L 307.917305 138.108907 
L 308.574984 134.117231 
L 308.903824 133.584998 
L 309.561503 131.48568 
L 309.890343 131.633509 
L 310.219183 131.04216 
L 310.548023 130.894315 
L 310.876863 130.184687 
L 311.205702 129.01674 
L 311.534542 128.558438 
L 311.863382 129.327214 
L 312.192222 128.765415 
L 312.521061 130.406447 
L 312.849901 128.425391 
L 313.178741 127.715763 
L 313.507581 129.75595 
L 313.836421 128.617585 
L 314.16526 128.632368 
L 314.82294 127.656616 
L 315.480619 127.760112 
L 315.809459 128.440174 
L 316.138299 127.671399 
L 316.467139 128.011438 
L 316.795979 127.553135 
L 317.124818 128.129701 
L 317.453658 128.174066 
L 317.782498 129.13502 
L 318.111338 129.341996 
L 318.440177 127.464422 
L 318.769017 127.774895 
L 319.097857 129.327214 
L 319.426697 129.120237 
L 319.755537 128.351461 
L 320.084376 128.440174 
L 320.413216 128.868911 
L 320.742056 127.242662 
L 321.070896 128.174066 
L 321.399735 127.84881 
L 321.728575 127.878375 
L 322.057415 128.706283 
L 322.386255 127.508786 
L 322.715095 128.055786 
L 323.043934 127.686182 
L 323.372774 127.62705 
L 323.701614 128.632368 
L 324.030454 129.223717 
L 324.359294 127.641833 
L 324.688133 127.774895 
L 325.016973 129.682036 
L 325.345813 128.262763 
L 325.674653 128.262763 
L 326.003492 129.504625 
L 326.332332 128.558438 
L 326.661172 127.952306 
L 326.990012 129.001957 
L 327.318852 128.114918 
L 327.976531 128.203632 
L 328.305371 128.602802 
L 328.634211 129.800299 
L 328.96305 129.97771 
L 329.29189 130.569075 
L 329.62073 128.499306 
L 329.94957 127.967089 
L 330.27841 128.91326 
L 331.264929 130.258601 
L 331.593769 129.061105 
L 331.922608 128.661934 
L 332.251448 128.780198 
L 332.580288 129.770733 
L 332.909128 128.36626 
L 333.237968 128.868911 
L 333.566807 130.288167 
L 333.895647 129.282865 
L 334.224487 130.332516 
L 334.553327 129.682036 
L 334.882166 130.74647 
L 335.211006 129.312431 
L 335.539846 129.341996 
L 335.868686 129.800299 
L 336.197526 132.10661 
L 336.526365 128.706283 
L 336.855205 129.149803 
L 337.184045 131.278703 
L 337.512885 129.593322 
L 337.841724 129.726384 
L 338.170564 129.386345 
L 338.499404 130.509927 
L 338.828244 128.854128 
L 339.157084 130.317733 
L 339.814763 128.573221 
L 340.143603 129.53419 
L 340.472443 128.809779 
L 340.801282 129.01674 
L 341.130122 129.859431 
L 341.458962 129.415911 
L 341.787802 130.243819 
L 342.116642 130.391664 
L 342.445481 130.776052 
L 342.774321 129.918578 
L 343.103161 130.110756 
L 343.432001 129.829865 
L 343.76084 130.051625 
L 344.08968 130.036842 
L 344.41852 129.800299 
L 345.0762 129.962927 
L 345.405039 129.548973 
L 345.733879 129.593322 
L 346.391559 130.805617 
L 346.720398 129.815082 
L 347.049238 130.184687 
L 347.378078 130.347315 
L 347.706918 130.140338 
L 348.035758 129.652454 
L 348.364597 130.229036 
L 348.693437 129.548973 
L 349.022277 129.578539 
L 349.351117 129.829865 
L 349.679956 129.652454 
L 350.008796 129.770733 
L 350.337636 130.642989 
L 350.666476 129.888997 
L 350.995316 130.347315 
L 351.324155 130.480361 
L 351.652995 129.637671 
L 351.981835 130.214253 
L 352.310675 129.815082 
L 352.639515 130.362098 
L 352.968354 129.933361 
L 353.297194 130.214253 
L 353.626034 129.622888 
L 353.954874 130.628206 
L 354.283713 129.770733 
L 354.612553 130.095973 
L 354.941393 132.150959 
L 355.270233 130.465578 
L 355.599073 130.140338 
L 355.927912 130.465578 
L 356.256752 129.948144 
L 356.585592 130.007276 
L 356.914432 129.75595 
L 357.243271 130.997811 
L 357.900951 130.110756 
L 358.229791 129.859431 
L 358.88747 130.894315 
L 359.21631 130.184687 
L 359.54515 130.495144 
L 359.87399 130.96823 
L 360.202829 130.022059 
L 360.531669 130.229036 
L 360.860509 130.184687 
L 361.189349 130.509927 
L 361.518189 129.859431 
L 361.847028 130.716904 
L 362.175868 129.962927 
L 362.504708 130.273384 
L 362.833548 130.19947 
L 363.162387 129.918578 
L 363.491227 130.613423 
L 363.820067 130.509927 
L 364.148907 129.327214 
L 364.477747 130.657772 
L 364.806586 129.844648 
L 365.464266 130.125555 
L 365.793106 129.874214 
L 366.779625 130.465578 
L 367.108465 130.317733 
L 367.437305 129.888997 
L 367.766144 130.376881 
L 368.094984 130.598641 
L 368.752664 130.406447 
L 369.081503 130.938664 
L 369.410343 129.933361 
L 369.739183 130.406447 
L 370.068023 131.278703 
L 370.396863 130.436012 
L 370.725702 130.391664 
L 371.054542 130.022059 
L 371.383382 130.450795 
L 372.041061 129.903795 
L 372.369901 130.317733 
L 372.698741 130.480361 
L 373.356421 129.874214 
L 373.68526 130.273384 
L 374.0141 130.406447 
L 374.67178 130.273384 
L 375.000619 129.948144 
L 375.329459 130.184687 
L 375.658299 130.687338 
L 375.987139 129.948144 
L 376.315979 130.347315 
L 376.644818 129.815082 
L 376.973658 130.465578 
L 377.302498 129.829865 
L 377.631338 130.317733 
L 377.960177 129.918578 
L 378.289017 131.781354 
L 378.617857 129.829865 
L 378.946697 130.125555 
L 379.275537 130.19947 
L 379.604376 130.110756 
L 379.933216 130.273384 
L 380.590896 130.317733 
L 380.919735 129.844648 
L 381.248575 129.992493 
L 381.577415 130.495144 
L 381.906255 130.066408 
L 382.563934 130.288167 
L 382.892774 129.504625 
L 383.221614 130.362098 
L 383.550454 129.992493 
L 383.879294 129.903795 
L 384.208133 130.051625 
L 384.536973 129.652454 
L 384.865813 130.30295 
L 385.523492 129.844648 
L 385.852332 130.214253 
L 386.181172 129.785516 
L 386.510012 130.894315 
L 386.838852 130.406447 
L 387.167691 130.480361 
L 387.825371 129.593322 
L 388.81189 130.376881 
L 389.14073 130.450795 
L 389.46957 130.406447 
L 389.79841 130.007276 
L 390.456089 130.480361 
L 390.784929 130.08119 
L 391.113769 129.992493 
L 391.442608 130.583858 
L 391.771448 130.273384 
L 392.100288 130.376881 
L 392.429128 130.169904 
L 394.073327 130.243819 
L 394.402166 130.554292 
L 394.731006 130.273384 
L 395.059846 129.622888 
L 395.388686 130.184687 
L 395.717526 130.317733 
L 396.046365 130.628206 
L 396.704045 130.066408 
L 397.032885 130.628206 
L 397.690564 130.317733 
L 398.019404 130.480361 
L 398.677084 130.317733 
L 399.005923 130.583858 
L 399.663603 130.52471 
L 399.992443 130.229036 
L 400.321282 130.362098 
L 400.650122 130.628206 
L 400.978962 130.436012 
L 401.307802 130.406447 
L 401.636642 130.140338 
L 402.294321 130.539493 
L 403.28084 130.273384 
L 403.93852 130.687338 
L 404.5962 130.613423 
L 404.925039 131.559594 
L 405.253879 142.943274 
L 405.582719 130.30295 
L 405.911559 129.460276 
L 406.240398 132.638827 
L 406.569238 134.043301 
L 406.898078 130.805617 
L 407.226918 130.74647 
L 407.555758 129.785516 
L 407.884597 130.362098 
L 408.213437 130.288167 
L 408.542277 129.933361 
L 409.199956 130.332516 
L 409.528796 130.155121 
L 409.857636 130.30295 
L 410.186476 129.962927 
L 410.515316 130.051625 
L 410.844155 129.888997 
L 411.172995 129.918578 
L 411.501835 130.362098 
L 411.830675 129.844648 
L 412.159515 129.622888 
L 412.488354 129.800299 
L 412.817194 130.317733 
L 413.146034 129.859431 
L 413.474874 130.598641 
L 413.803713 130.140338 
L 414.790233 130.051625 
L 415.447912 129.962927 
L 415.776752 130.155121 
L 416.105592 129.948144 
L 416.434432 130.184687 
L 416.763271 129.948144 
L 417.420951 130.391664 
L 417.749791 130.095973 
L 418.40747 130.007276 
L 418.73631 130.317733 
L 419.06515 130.095973 
L 419.39399 130.095973 
L 419.722829 130.214253 
L 420.380509 130.007276 
L 420.709349 130.214253 
L 421.367028 129.992493 
L 422.024708 130.362098 
L 422.682387 130.376881 
L 423.011227 130.022059 
L 423.668907 130.243819 
L 424.326586 130.317733 
L 424.655426 130.642989 
L 424.984266 130.406447 
L 425.313106 130.450795 
L 425.641945 130.761253 
L 425.970785 130.450795 
L 426.628465 130.30295 
L 427.614984 130.42123 
L 427.943824 130.229036 
L 428.272664 130.465578 
L 428.601503 130.406447 
L 428.930343 130.480361 
L 429.259183 130.140338 
L 429.588023 130.554292 
L 429.916863 130.583858 
L 430.245702 130.761253 
L 430.574542 130.347315 
L 430.903382 130.391664 
L 431.561061 130.125555 
L 431.889901 130.465578 
L 432.547581 130.406447 
L 432.876421 130.687338 
L 433.20526 129.903795 
L 433.5341 130.362098 
L 434.19178 130.095973 
L 434.520619 130.642989 
L 434.849459 130.288167 
L 435.178299 130.731687 
L 435.835979 130.52471 
L 436.164818 130.539493 
L 436.493658 130.110756 
L 436.822498 130.184687 
L 437.151338 130.125555 
L 437.809017 130.347315 
L 438.137857 130.022059 
L 438.466697 130.288167 
L 438.795537 130.110756 
L 440.110896 130.362098 
L 440.439735 129.962927 
L 440.768575 130.539493 
L 441.097415 130.436012 
L 441.755095 129.97771 
L 442.083934 130.273384 
L 442.412774 130.19947 
L 443.070454 130.613423 
L 443.399294 130.095973 
L 443.728133 130.42123 
L 444.056973 130.066408 
L 444.385813 130.066408 
L 444.714653 130.509927 
L 445.043492 130.42123 
L 445.372332 130.125555 
L 445.701172 130.007276 
L 446.030012 130.776052 
L 446.358852 130.19947 
L 446.687691 130.776052 
L 447.016531 130.169904 
L 448.00305 130.495144 
L 448.66073 130.110756 
L 449.31841 130.495144 
L 449.647249 130.007276 
L 449.976089 130.628206 
L 450.304929 130.376881 
L 451.291448 130.258601 
L 451.620288 130.391664 
L 451.949128 130.19947 
L 452.606807 130.214253 
L 452.935647 130.391664 
L 453.264487 130.022059 
L 453.593327 130.598641 
L 454.251006 130.169904 
L 454.579846 130.450795 
L 455.566365 130.155121 
L 455.895205 130.539493 
L 456.224045 129.726384 
L 456.552885 129.682036 
L 456.881724 130.74647 
L 457.210564 130.155121 
L 457.539404 130.095973 
L 457.868244 130.776052 
L 458.197084 130.214253 
L 458.525923 130.169904 
L 458.854763 130.761253 
L 459.183603 130.258601 
L 459.512443 130.125555 
L 459.841282 130.19947 
L 460.170122 130.495144 
L 460.827802 130.42123 
L 461.156642 130.19947 
L 461.485481 130.347315 
L 461.814321 130.243819 
L 462.143161 130.805617 
L 462.472001 130.214253 
L 462.80084 130.155121 
L 463.12968 130.288167 
L 463.45852 130.007276 
L 464.1162 130.554292 
L 464.445039 130.480361 
L 465.102719 130.657772 
L 465.760398 129.844648 
L 466.089238 130.702121 
L 466.418078 130.436012 
L 467.075758 130.184687 
L 467.404597 130.436012 
L 467.733437 130.332516 
L 468.062277 130.642989 
L 468.391117 130.731687 
L 468.719956 130.258601 
L 469.048796 130.30295 
L 469.377636 130.465578 
L 469.706476 130.332516 
L 470.035316 129.903795 
L 470.364155 130.273384 
L 470.692995 130.110756 
L 471.021835 130.702121 
L 471.350675 129.933361 
L 471.679515 130.805617 
L 472.008354 130.509927 
L 472.337194 130.495144 
L 472.994874 130.19947 
L 473.652553 130.258601 
L 473.981393 130.52471 
L 474.310233 130.19947 
L 474.967912 130.332516 
L 475.296752 143.165034 
L 475.625592 133.363238 
L 475.954432 136.586155 
L 476.283271 132.210091 
L 476.612111 134.412906 
L 476.940951 130.539493 
L 477.269791 133.629363 
L 477.92747 131.175206 
L 478.58515 130.022059 
L 478.91399 131.027377 
L 479.242829 131.071726 
L 479.571669 130.332516 
L 479.900509 130.169904 
L 480.229349 130.569075 
L 480.558189 130.569075 
L 480.887028 130.436012 
L 481.215868 130.480361 
L 481.544708 130.007276 
L 481.873548 130.19947 
L 482.531227 130.229036 
L 483.846586 130.347315 
L 484.175426 130.155121 
L 484.504266 130.731687 
L 484.833106 130.436012 
L 485.161945 129.903795 
L 485.490785 130.184687 
L 485.819625 130.08119 
L 486.148465 130.805617 
L 486.477305 130.657772 
L 486.806144 130.642989 
L 487.134984 130.983013 
L 487.463824 130.42123 
L 488.121503 130.42123 
L 488.450343 130.687338 
L 488.779183 130.140338 
L 489.108023 130.376881 
L 489.765702 130.19947 
L 490.094542 130.480361 
L 490.423382 130.613423 
L 490.752222 130.332516 
L 491.081061 130.465578 
L 491.409901 130.095973 
L 491.738741 130.258601 
L 492.067581 130.273384 
L 492.396421 130.036842 
L 493.0541 130.30295 
L 493.38294 130.036842 
L 493.71178 130.583858 
L 494.040619 130.288167 
L 494.698299 130.243819 
L 495.027139 130.376881 
L 495.355979 130.790834 
L 495.684818 130.332516 
L 496.013658 130.184687 
L 496.342498 130.243819 
L 496.671338 130.036842 
L 497.000177 130.509927 
L 497.329017 130.140338 
L 497.657857 130.110756 
L 497.986697 130.613423 
L 498.315537 130.288167 
L 498.973216 130.776052 
L 499.302056 130.184687 
L 499.630896 130.214253 
L 499.959735 130.583858 
L 500.617415 130.554292 
L 500.946255 130.923881 
L 501.275095 130.258601 
L 501.603934 130.036842 
L 501.932774 130.450795 
L 502.261614 130.30295 
L 502.590454 130.436012 
L 502.919294 130.42123 
L 503.248133 130.155121 
L 503.905813 129.992493 
L 504.563492 130.539493 
L 504.892332 130.258601 
L 505.221172 130.716904 
L 505.878852 130.391664 
L 506.207691 130.761253 
L 506.536531 130.317733 
L 506.865371 130.095973 
L 507.52305 130.450795 
L 508.18073 130.140338 
L 508.50957 130.214253 
L 508.83841 130.583858 
L 509.167249 130.672555 
L 509.496089 130.554292 
L 509.824929 130.243819 
L 510.153769 130.450795 
L 510.482608 130.347315 
L 510.811448 130.066408 
L 511.140288 129.992493 
L 511.469128 130.095973 
L 511.797968 130.450795 
L 512.126807 130.509927 
L 512.455647 130.716904 
L 513.113327 130.007276 
L 513.442166 130.243819 
L 513.771006 130.273384 
L 514.099846 130.628206 
L 514.757526 130.258601 
L 515.086365 130.273384 
L 515.415205 130.539493 
L 515.744045 130.332516 
L 516.072885 129.962927 
L 516.401724 130.19947 
L 516.730564 130.066408 
L 517.059404 130.465578 
L 517.388244 130.406447 
L 517.717084 129.874214 
L 518.045923 130.376881 
L 518.374763 130.243819 
L 518.703603 130.406447 
L 519.032443 130.110756 
L 519.361282 130.495144 
L 520.018962 130.613423 
L 520.347802 130.391664 
L 520.676642 131.189989 
L 521.005481 130.495144 
L 521.334321 130.465578 
L 521.663161 130.628206 
L 521.992001 130.332516 
L 522.64968 130.569075 
L 522.97852 130.184687 
L 523.30736 130.613423 
L 523.965039 130.790834 
L 524.293879 130.583858 
L 525.280398 130.30295 
L 525.609238 130.42123 
L 525.938078 130.42123 
L 526.266918 130.169904 
L 526.595758 130.095973 
L 526.924597 130.391664 
L 527.253437 130.184687 
L 527.582277 130.229036 
L 527.911117 130.036842 
L 528.568796 130.613423 
L 528.897636 130.406447 
L 529.226476 130.42123 
L 529.555316 130.672555 
L 529.884155 130.509927 
L 530.212995 130.598641 
L 530.541835 130.317733 
L 530.870675 130.554292 
L 531.199515 130.628206 
L 531.528354 130.125555 
L 532.843713 130.258601 
L 533.172553 130.184687 
L 533.501393 130.362098 
L 533.830233 130.288167 
L 534.159073 130.406447 
L 534.487912 130.642989 
L 534.816752 130.480361 
L 535.145592 130.583858 
L 535.474432 130.96823 
L 535.803271 130.495144 
L 536.132111 130.362098 
L 536.789791 131.04216 
L 537.118631 130.288167 
L 537.44747 130.42123 
L 537.77631 130.879532 
L 538.43399 130.42123 
L 538.762829 130.96823 
L 539.091669 138.685489 
L 539.420509 130.273384 
L 539.749349 131.116075 
L 540.078189 133.466735 
L 540.407028 131.204772 
L 540.735868 130.96823 
L 541.064708 130.480361 
L 541.393548 130.613423 
L 541.722387 129.948144 
L 542.051227 133.31889 
L 542.380067 131.234354 
L 542.708907 140.740459 
L 543.037747 129.992493 
L 543.366586 132.624044 
L 543.695426 133.082347 
L 544.024266 133.037998 
L 544.353106 131.633509 
L 545.010785 130.776052 
L 545.339625 130.628206 
L 545.668465 131.027377 
L 545.997305 130.702121 
L 546.654984 130.879532 
L 546.983824 130.391664 
L 547.641503 130.805617 
L 548.956863 130.628206 
L 549.285702 130.214253 
L 549.614542 130.613423 
L 549.943382 130.687338 
L 550.272222 130.628206 
L 550.601061 130.184687 
L 550.929901 130.613423 
L 551.587581 130.509927 
L 552.24526 130.391664 
L 552.5741 130.702121 
L 552.90294 130.465578 
L 553.560619 130.509927 
L 553.889459 130.761253 
L 554.218299 130.761253 
L 554.875979 130.229036 
L 555.204818 130.554292 
L 555.862498 130.391664 
L 556.191338 130.495144 
L 556.849017 130.332516 
L 557.177857 129.948144 
L 557.835537 130.436012 
L 558.164376 130.022059 
L 558.493216 130.42123 
L 558.822056 130.095973 
L 559.150896 130.42123 
L 559.479735 130.214253 
L 559.808575 130.598641 
L 560.795095 130.687338 
L 561.123934 130.19947 
L 561.452774 130.066408 
L 562.439294 130.598641 
L 563.425813 130.465578 
L 563.754653 130.391664 
L 564.083492 130.776052 
L 564.741172 130.243819 
L 565.070012 130.642989 
L 565.398852 130.288167 
L 565.727691 130.465578 
L 566.385371 130.495144 
L 566.714211 129.918578 
L 567.04305 130.52471 
L 567.37189 130.716904 
L 567.70073 130.554292 
L 568.02957 130.672555 
L 568.35841 130.642989 
L 568.687249 130.140338 
L 569.016089 130.376881 
L 569.344929 130.347315 
L 569.673769 130.495144 
L 570.002608 130.436012 
L 570.331448 130.243819 
L 570.660288 130.288167 
L 570.989128 130.125555 
L 571.317968 130.436012 
L 571.646807 130.480361 
L 571.975647 130.362098 
L 573.291006 130.613423 
L 573.619846 130.317733 
L 573.948686 130.583858 
L 574.277526 129.992493 
L 574.606365 130.74647 
L 574.935205 130.169904 
L 575.264045 130.761253 
L 575.592885 130.790834 
L 575.921724 130.273384 
L 576.250564 130.509927 
L 576.579404 130.391664 
L 576.908244 130.879532 
L 577.237084 130.288167 
L 577.565923 130.465578 
L 578.223603 130.495144 
L 578.552443 130.036842 
L 578.881282 130.155121 
L 579.210122 130.554292 
L 579.538962 130.332516 
L 579.867802 130.761253 
L 580.196642 130.52471 
L 580.525481 130.495144 
L 580.854321 130.805617 
L 581.183161 130.229036 
L 582.16968 130.554292 
L 582.49852 130.066408 
L 583.1562 130.140338 
L 583.485039 130.42123 
L 583.813879 130.140338 
L 584.142719 130.332516 
L 584.800398 130.155121 
L 585.129238 130.095973 
L 585.458078 130.702121 
L 586.115758 130.184687 
L 586.444597 130.288167 
L 586.773437 130.598641 
L 587.759956 130.376881 
L 588.088796 130.569075 
L 588.417636 130.140338 
L 588.746476 129.992493 
L 589.075316 131.204772 
L 589.404155 130.19947 
L 589.732995 158.673452 
L 590.061835 129.815082 
L 590.719515 132.239657 
L 591.048354 131.707439 
L 591.377194 130.436012 
L 591.706034 130.406447 
L 592.034874 130.96823 
L 592.363713 130.391664 
L 592.692553 131.352617 
L 593.350233 130.52471 
L 594.007912 130.436012 
L 594.336752 130.776052 
L 594.665592 130.864749 
L 594.994432 130.480361 
L 595.323271 130.362098 
L 595.652111 130.539493 
L 595.980951 130.554292 
L 596.309791 130.317733 
L 596.638631 130.465578 
L 596.96747 130.909098 
L 597.29631 130.731687 
L 597.62515 130.42123 
L 597.95399 130.450795 
L 598.282829 130.687338 
L 598.611669 130.554292 
L 598.940509 130.702121 
L 599.598189 130.495144 
L 599.927028 130.628206 
L 600.584708 130.376881 
L 600.913548 130.391664 
L 601.242387 130.938664 
L 601.900067 130.243819 
L 602.228907 130.391664 
L 602.557747 130.391664 
L 602.886586 129.874214 
L 603.215426 130.539493 
L 603.544266 130.258601 
L 604.530785 130.672555 
L 604.859625 130.273384 
L 605.188465 130.509927 
L 605.517305 130.539493 
L 605.846144 130.317733 
L 606.174984 130.480361 
L 607.161503 130.125555 
L 607.490343 130.258601 
L 607.819183 130.598641 
L 608.148023 129.992493 
L 608.476863 129.933361 
L 608.805702 130.273384 
L 609.134542 130.184687 
L 609.463382 129.948144 
L 609.792222 130.169904 
L 610.121061 130.169904 
L 610.449901 129.962927 
L 611.107581 130.790834 
L 611.436421 130.140338 
L 611.76526 130.42123 
L 612.0941 130.52471 
L 612.42294 130.140338 
L 612.75178 130.465578 
L 613.080619 130.229036 
L 613.409459 129.770733 
L 613.738299 130.155121 
L 614.395979 130.095973 
L 614.724818 130.642989 
L 615.053658 129.815082 
L 615.382498 130.42123 
L 616.040177 130.258601 
L 616.369017 130.465578 
L 616.697857 130.08119 
L 617.026697 130.243819 
L 617.355537 130.169904 
L 617.684376 130.273384 
L 618.013216 130.066408 
L 618.342056 130.554292 
L 618.670896 130.140338 
L 618.999735 130.480361 
L 619.328575 130.110756 
L 619.986255 129.992493 
L 620.315095 130.066408 
L 620.643934 129.829865 
L 621.301614 130.125555 
L 621.630454 130.214253 
L 621.959294 130.051625 
L 622.288133 130.125555 
L 622.616973 129.815082 
L 622.945813 130.140338 
L 623.274653 129.696818 
L 623.603492 129.918578 
L 624.261172 129.652454 
L 624.918852 130.436012 
L 625.247691 129.948144 
L 625.576531 130.480361 
L 625.905371 129.97771 
L 626.89189 130.450795 
L 627.22073 130.288167 
L 627.54957 130.288167 
L 627.87841 130.8204 
L 628.207249 130.687338 
L 628.536089 130.258601 
L 629.193769 130.214253 
L 629.522608 130.184687 
L 629.851448 129.785516 
L 630.509128 130.539493 
L 630.837968 130.140338 
L 631.166807 130.19947 
L 631.495647 129.992493 
L 631.824487 131.737005 
L 632.153327 129.327214 
L 632.811006 136.51224 
L 633.139846 129.356779 
L 633.468686 129.608105 
L 633.797526 133.83634 
L 634.126365 132.520548 
L 634.455205 132.03268 
L 634.784045 132.904936 
L 635.441724 129.785516 
L 635.770564 131.81092 
L 636.099404 129.874214 
L 636.428244 129.519407 
L 636.757084 130.243819 
L 637.085923 130.184687 
L 637.414763 129.962927 
L 637.743603 130.125555 
L 638.072443 129.667237 
L 638.401282 130.022059 
L 638.730122 129.903795 
L 639.058962 129.992493 
L 639.387802 130.347315 
L 639.716642 129.903795 
L 640.045481 129.903795 
L 640.374321 129.696818 
L 640.703161 129.918578 
L 641.36084 130.095973 
L 641.68968 129.667237 
L 642.34736 130.657772 
L 642.6762 129.97771 
L 643.005039 130.42123 
L 643.333879 130.007276 
L 643.662719 129.962927 
L 643.991559 130.155121 
L 644.320398 130.184687 
L 644.649238 129.711601 
L 644.978078 130.436012 
L 645.306918 130.243819 
L 645.635758 129.800299 
L 646.293437 129.888997 
L 646.622277 130.169904 
L 647.937636 129.726384 
L 648.595316 130.243819 
L 649.581835 129.800299 
L 650.239515 129.770733 
L 650.568354 130.436012 
L 650.897194 130.480361 
L 651.226034 130.155121 
L 651.554874 130.036842 
L 651.883713 130.450795 
L 652.870233 130.125555 
L 653.527912 130.095973 
L 653.856752 129.726384 
L 654.185592 130.095973 
L 654.514432 130.036842 
L 654.843271 130.52471 
L 655.172111 130.347315 
L 655.500951 130.317733 
L 655.829791 130.110756 
L 656.158631 130.214253 
L 656.48747 130.095973 
L 656.81631 130.554292 
L 657.14515 129.770733 
L 657.47399 130.169904 
L 657.802829 129.918578 
L 658.131669 130.022059 
L 658.460509 129.859431 
L 658.789349 129.948144 
L 659.118189 129.696818 
L 659.447028 130.036842 
L 659.775868 129.859431 
L 660.104708 130.110756 
L 660.433548 130.095973 
L 660.762387 129.741167 
L 661.091227 130.258601 
L 661.748907 130.347315 
L 662.077747 129.992493 
L 662.406586 129.888997 
L 662.735426 130.273384 
L 663.064266 129.829865 
L 663.721945 129.888997 
L 664.050785 129.888997 
L 664.379625 129.445477 
L 664.379625 129.445477 
" clip-path="url(#pbaeda1485b)" style="fill: none; stroke: #1f77b4; stroke-width: 1.5; stroke-linecap: square"/>
   </g>
   <g id="patch_3">
    <path d="M 307.259625 311.6435 
L 307.259625 45.5315 
" style="fill: none; stroke: #000000; stroke-width: 0.8; stroke-linejoin: miter; stroke-linecap: square"/>
   </g>
   <g id="patch_4">
    <path d="M 664.379625 311.6435 
L 664.379625 45.5315 
" style="fill: none; stroke: #000000; stroke-width: 0.8; stroke-linejoin: miter; stroke-linecap: square"/>
   </g>
   <g id="patch_5">
    <path d="M 307.259625 311.6435 
L 664.379625 311.6435 
" style="fill: none; stroke: #000000; stroke-width: 0.8; stroke-linejoin: miter; stroke-linecap: square"/>
   </g>
   <g id="patch_6">
    <path d="M 307.259625 45.5315 
L 664.379625 45.5315 
" style="fill: none; stroke: #000000; stroke-width: 0.8; stroke-linejoin: miter; stroke-linecap: square"/>
   </g>
   <g id="text_19">
    <!-- Accuracy of the 21_05_25_CINIC10_torch_model_(3072+128+1)_ct on the validation set -->
    <g transform="translate(7.2 25.5315) scale(0.264 -0.264)">
     <defs>
      <path id="TimesNewRomanPSMT-68" d="M 1041 4444 
L 1041 2350 
Q 1388 2731 1591 2839 
Q 1794 2947 1997 2947 
Q 2241 2947 2416 2812 
Q 2591 2678 2675 2391 
Q 2734 2191 2734 1659 
L 2734 647 
Q 2734 375 2778 275 
Q 2809 200 2884 156 
Q 2959 113 3159 113 
L 3159 0 
L 1753 0 
L 1753 113 
L 1819 113 
Q 2019 113 2097 173 
Q 2175 234 2206 353 
Q 2216 403 2216 647 
L 2216 1659 
Q 2216 2128 2167 2275 
Q 2119 2422 2012 2495 
Q 1906 2569 1756 2569 
Q 1603 2569 1437 2487 
Q 1272 2406 1041 2159 
L 1041 647 
Q 1041 353 1073 281 
Q 1106 209 1195 161 
Q 1284 113 1503 113 
L 1503 0 
L 84 0 
L 84 113 
Q 275 113 384 172 
Q 447 203 484 290 
Q 522 378 522 647 
L 522 3238 
Q 522 3728 498 3840 
Q 475 3953 426 3993 
Q 378 4034 297 4034 
Q 231 4034 84 3984 
L 41 4094 
L 897 4444 
L 1041 4444 
z
" transform="scale(0.015625)"/>
      <path id="TimesNewRomanPSMT-5f" d="M 3256 -1381 
L -53 -1381 
L -53 -1119 
L 3256 -1119 
L 3256 -1381 
z
" transform="scale(0.015625)"/>
      <path id="TimesNewRomanPSMT-43" d="M 3853 4334 
L 3950 2894 
L 3853 2894 
Q 3659 3541 3300 3825 
Q 2941 4109 2438 4109 
Q 2016 4109 1675 3895 
Q 1334 3681 1139 3212 
Q 944 2744 944 2047 
Q 944 1472 1128 1050 
Q 1313 628 1683 403 
Q 2053 178 2528 178 
Q 2941 178 3256 354 
Q 3572 531 3950 1056 
L 4047 994 
Q 3728 428 3303 165 
Q 2878 -97 2294 -97 
Q 1241 -97 663 684 
Q 231 1266 231 2053 
Q 231 2688 515 3219 
Q 800 3750 1298 4042 
Q 1797 4334 2388 4334 
Q 2847 4334 3294 4109 
Q 3425 4041 3481 4041 
Q 3566 4041 3628 4100 
Q 3709 4184 3744 4334 
L 3853 4334 
z
" transform="scale(0.015625)"/>
      <path id="TimesNewRomanPSMT-49" d="M 1975 116 
L 1975 0 
L 159 0 
L 159 116 
L 309 116 
Q 572 116 691 269 
Q 766 369 766 750 
L 766 3488 
Q 766 3809 725 3913 
Q 694 3991 597 4047 
Q 459 4122 309 4122 
L 159 4122 
L 159 4238 
L 1975 4238 
L 1975 4122 
L 1822 4122 
Q 1563 4122 1444 3969 
Q 1366 3869 1366 3488 
L 1366 750 
Q 1366 428 1406 325 
Q 1438 247 1538 191 
Q 1672 116 1822 116 
L 1975 116 
z
" transform="scale(0.015625)"/>
      <path id="TimesNewRomanPSMT-64" d="M 2222 322 
Q 2013 103 1813 7 
Q 1613 -88 1381 -88 
Q 913 -88 563 304 
Q 213 697 213 1313 
Q 213 1928 600 2439 
Q 988 2950 1597 2950 
Q 1975 2950 2222 2709 
L 2222 3238 
Q 2222 3728 2198 3840 
Q 2175 3953 2125 3993 
Q 2075 4034 2000 4034 
Q 1919 4034 1784 3984 
L 1744 4094 
L 2597 4444 
L 2738 4444 
L 2738 1134 
Q 2738 631 2761 520 
Q 2784 409 2836 365 
Q 2888 322 2956 322 
Q 3041 322 3181 375 
L 3216 266 
L 2366 -88 
L 2222 -88 
L 2222 322 
z
M 2222 541 
L 2222 2016 
Q 2203 2228 2109 2403 
Q 2016 2578 1861 2667 
Q 1706 2756 1559 2756 
Q 1284 2756 1069 2509 
Q 784 2184 784 1559 
Q 784 928 1059 592 
Q 1334 256 1672 256 
Q 1956 256 2222 541 
z
" transform="scale(0.015625)"/>
      <path id="TimesNewRomanPSMT-6c" d="M 1184 4444 
L 1184 647 
Q 1184 378 1223 290 
Q 1263 203 1344 158 
Q 1425 113 1647 113 
L 1647 0 
L 244 0 
L 244 113 
Q 441 113 512 153 
Q 584 194 625 287 
Q 666 381 666 647 
L 666 3247 
Q 666 3731 644 3842 
Q 622 3953 573 3993 
Q 525 4034 450 4034 
Q 369 4034 244 3984 
L 191 4094 
L 1044 4444 
L 1184 4444 
z
" transform="scale(0.015625)"/>
      <path id="TimesNewRomanPSMT-28" d="M 1988 -1253 
L 1988 -1369 
Q 1516 -1131 1200 -813 
Q 750 -359 506 256 
Q 263 872 263 1534 
Q 263 2503 741 3301 
Q 1219 4100 1988 4444 
L 1988 4313 
Q 1603 4100 1356 3731 
Q 1109 3363 987 2797 
Q 866 2231 866 1616 
Q 866 947 969 400 
Q 1050 -31 1165 -292 
Q 1281 -553 1476 -793 
Q 1672 -1034 1988 -1253 
z
" transform="scale(0.015625)"/>
      <path id="TimesNewRomanPSMT-2b" d="M 1672 441 
L 1672 2000 
L 116 2000 
L 116 2256 
L 1672 2256 
L 1672 3809 
L 1922 3809 
L 1922 2256 
L 3484 2256 
L 3484 2000 
L 1922 2000 
L 1922 441 
L 1672 441 
z
" transform="scale(0.015625)"/>
      <path id="TimesNewRomanPSMT-29" d="M 144 4313 
L 144 4444 
Q 619 4209 934 3891 
Q 1381 3434 1625 2820 
Q 1869 2206 1869 1541 
Q 1869 572 1392 -226 
Q 916 -1025 144 -1369 
L 144 -1253 
Q 528 -1038 776 -670 
Q 1025 -303 1145 264 
Q 1266 831 1266 1447 
Q 1266 2113 1163 2663 
Q 1084 3094 967 3353 
Q 850 3613 656 3853 
Q 463 4094 144 4313 
z
" transform="scale(0.015625)"/>
      <path id="TimesNewRomanPSMT-76" d="M 53 2863 
L 1400 2863 
L 1400 2747 
L 1313 2747 
Q 1191 2747 1127 2687 
Q 1063 2628 1063 2528 
Q 1063 2419 1128 2269 
L 1794 688 
L 2463 2328 
Q 2534 2503 2534 2594 
Q 2534 2638 2509 2666 
Q 2475 2713 2422 2730 
Q 2369 2747 2206 2747 
L 2206 2863 
L 3141 2863 
L 3141 2747 
Q 2978 2734 2916 2681 
Q 2806 2588 2719 2369 
L 1703 -88 
L 1575 -88 
L 553 2328 
Q 484 2497 421 2570 
Q 359 2644 263 2694 
Q 209 2722 53 2747 
L 53 2863 
z
" transform="scale(0.015625)"/>
     </defs>
     <use xlink:href="#TimesNewRomanPSMT-41"/>
     <use xlink:href="#TimesNewRomanPSMT-63" transform="translate(72.216797 0)"/>
     <use xlink:href="#TimesNewRomanPSMT-63" transform="translate(116.601562 0)"/>
     <use xlink:href="#TimesNewRomanPSMT-75" transform="translate(160.986328 0)"/>
     <use xlink:href="#TimesNewRomanPSMT-72" transform="translate(210.986328 0)"/>
     <use xlink:href="#TimesNewRomanPSMT-61" transform="translate(244.287109 0)"/>
     <use xlink:href="#TimesNewRomanPSMT-63" transform="translate(288.671875 0)"/>
     <use xlink:href="#TimesNewRomanPSMT-79" transform="translate(333.056641 0)"/>
     <use xlink:href="#TimesNewRomanPSMT-20" transform="translate(383.056641 0)"/>
     <use xlink:href="#TimesNewRomanPSMT-6f" transform="translate(408.056641 0)"/>
     <use xlink:href="#TimesNewRomanPSMT-66" transform="translate(458.056641 0)"/>
     <use xlink:href="#TimesNewRomanPSMT-20" transform="translate(491.357422 0)"/>
     <use xlink:href="#TimesNewRomanPSMT-74" transform="translate(516.357422 0)"/>
     <use xlink:href="#TimesNewRomanPSMT-68" transform="translate(544.140625 0)"/>
     <use xlink:href="#TimesNewRomanPSMT-65" transform="translate(594.140625 0)"/>
     <use xlink:href="#TimesNewRomanPSMT-20" transform="translate(638.525391 0)"/>
     <use xlink:href="#TimesNewRomanPSMT-32" transform="translate(663.525391 0)"/>
     <use xlink:href="#TimesNewRomanPSMT-31" transform="translate(713.525391 0)"/>
     <use xlink:href="#TimesNewRomanPSMT-5f" transform="translate(763.525391 0)"/>
     <use xlink:href="#TimesNewRomanPSMT-30" transform="translate(813.525391 0)"/>
     <use xlink:href="#TimesNewRomanPSMT-35" transform="translate(863.525391 0)"/>
     <use xlink:href="#TimesNewRomanPSMT-5f" transform="translate(913.525391 0)"/>
     <use xlink:href="#TimesNewRomanPSMT-32" transform="translate(963.525391 0)"/>
     <use xlink:href="#TimesNewRomanPSMT-35" transform="translate(1013.525391 0)"/>
     <use xlink:href="#TimesNewRomanPSMT-5f" transform="translate(1063.525391 0)"/>
     <use xlink:href="#TimesNewRomanPSMT-43" transform="translate(1113.525391 0)"/>
     <use xlink:href="#TimesNewRomanPSMT-49" transform="translate(1180.224609 0)"/>
     <use xlink:href="#TimesNewRomanPSMT-4e" transform="translate(1213.525391 0)"/>
     <use xlink:href="#TimesNewRomanPSMT-49" transform="translate(1285.742188 0)"/>
     <use xlink:href="#TimesNewRomanPSMT-43" transform="translate(1319.042969 0)"/>
     <use xlink:href="#TimesNewRomanPSMT-31" transform="translate(1385.742188 0)"/>
     <use xlink:href="#TimesNewRomanPSMT-30" transform="translate(1435.742188 0)"/>
     <use xlink:href="#TimesNewRomanPSMT-5f" transform="translate(1485.742188 0)"/>
     <use xlink:href="#TimesNewRomanPSMT-74" transform="translate(1535.742188 0)"/>
     <use xlink:href="#TimesNewRomanPSMT-6f" transform="translate(1563.525391 0)"/>
     <use xlink:href="#TimesNewRomanPSMT-72" transform="translate(1613.525391 0)"/>
     <use xlink:href="#TimesNewRomanPSMT-63" transform="translate(1646.826172 0)"/>
     <use xlink:href="#TimesNewRomanPSMT-68" transform="translate(1691.210938 0)"/>
     <use xlink:href="#TimesNewRomanPSMT-5f" transform="translate(1741.210938 0)"/>
     <use xlink:href="#TimesNewRomanPSMT-6d" transform="translate(1791.210938 0)"/>
     <use xlink:href="#TimesNewRomanPSMT-6f" transform="translate(1868.994141 0)"/>
     <use xlink:href="#TimesNewRomanPSMT-64" transform="translate(1918.994141 0)"/>
     <use xlink:href="#TimesNewRomanPSMT-65" transform="translate(1968.994141 0)"/>
     <use xlink:href="#TimesNewRomanPSMT-6c" transform="translate(2013.378906 0)"/>
     <use xlink:href="#TimesNewRomanPSMT-5f" transform="translate(2041.162109 0)"/>
     <use xlink:href="#TimesNewRomanPSMT-28" transform="translate(2091.162109 0)"/>
     <use xlink:href="#TimesNewRomanPSMT-33" transform="translate(2124.462891 0)"/>
     <use xlink:href="#TimesNewRomanPSMT-30" transform="translate(2174.462891 0)"/>
     <use xlink:href="#TimesNewRomanPSMT-37" transform="translate(2224.462891 0)"/>
     <use xlink:href="#TimesNewRomanPSMT-32" transform="translate(2274.462891 0)"/>
     <use xlink:href="#TimesNewRomanPSMT-2b" transform="translate(2324.462891 0)"/>
     <use xlink:href="#TimesNewRomanPSMT-31" transform="translate(2380.859375 0)"/>
     <use xlink:href="#TimesNewRomanPSMT-32" transform="translate(2430.859375 0)"/>
     <use xlink:href="#TimesNewRomanPSMT-38" transform="translate(2480.859375 0)"/>
     <use xlink:href="#TimesNewRomanPSMT-2b" transform="translate(2530.859375 0)"/>
     <use xlink:href="#TimesNewRomanPSMT-31" transform="translate(2587.255859 0)"/>
     <use xlink:href="#TimesNewRomanPSMT-29" transform="translate(2637.255859 0)"/>
     <use xlink:href="#TimesNewRomanPSMT-5f" transform="translate(2670.556641 0)"/>
     <use xlink:href="#TimesNewRomanPSMT-63" transform="translate(2720.556641 0)"/>
     <use xlink:href="#TimesNewRomanPSMT-74" transform="translate(2764.941406 0)"/>
     <use xlink:href="#TimesNewRomanPSMT-20" transform="translate(2792.724609 0)"/>
     <use xlink:href="#TimesNewRomanPSMT-6f" transform="translate(2817.724609 0)"/>
     <use xlink:href="#TimesNewRomanPSMT-6e" transform="translate(2867.724609 0)"/>
     <use xlink:href="#TimesNewRomanPSMT-20" transform="translate(2917.724609 0)"/>
     <use xlink:href="#TimesNewRomanPSMT-74" transform="translate(2942.724609 0)"/>
     <use xlink:href="#TimesNewRomanPSMT-68" transform="translate(2970.507812 0)"/>
     <use xlink:href="#TimesNewRomanPSMT-65" transform="translate(3020.507812 0)"/>
     <use xlink:href="#TimesNewRomanPSMT-20" transform="translate(3064.892578 0)"/>
     <use xlink:href="#TimesNewRomanPSMT-76" transform="translate(3089.892578 0)"/>
     <use xlink:href="#TimesNewRomanPSMT-61" transform="translate(3139.892578 0)"/>
     <use xlink:href="#TimesNewRomanPSMT-6c" transform="translate(3184.277344 0)"/>
     <use xlink:href="#TimesNewRomanPSMT-69" transform="translate(3212.060547 0)"/>
     <use xlink:href="#TimesNewRomanPSMT-64" transform="translate(3239.84375 0)"/>
     <use xlink:href="#TimesNewRomanPSMT-61" transform="translate(3289.84375 0)"/>
     <use xlink:href="#TimesNewRomanPSMT-74" transform="translate(3334.228516 0)"/>
     <use xlink:href="#TimesNewRomanPSMT-69" transform="translate(3362.011719 0)"/>
     <use xlink:href="#TimesNewRomanPSMT-6f" transform="translate(3389.794922 0)"/>
     <use xlink:href="#TimesNewRomanPSMT-6e" transform="translate(3439.794922 0)"/>
     <use xlink:href="#TimesNewRomanPSMT-20" transform="translate(3489.794922 0)"/>
     <use xlink:href="#TimesNewRomanPSMT-73" transform="translate(3514.794922 0)"/>
     <use xlink:href="#TimesNewRomanPSMT-65" transform="translate(3553.710938 0)"/>
     <use xlink:href="#TimesNewRomanPSMT-74" transform="translate(3598.095703 0)"/>
    </g>
   </g>
   <g id="legend_1">
    <g id="patch_7">
     <path d="M 411.809313 94.278687 
L 648.979625 94.278687 
Q 653.379625 94.278687 653.379625 89.878687 
L 653.379625 60.9315 
Q 653.379625 56.5315 648.979625 56.5315 
L 411.809313 56.5315 
Q 407.409313 56.5315 407.409313 60.9315 
L 407.409313 89.878687 
Q 407.409313 94.278687 411.809313 94.278687 
z
" style="fill: #ffffff; opacity: 0.8; stroke: #cccccc; stroke-linejoin: miter"/>
    </g>
    <g id="line2d_34">
     <path d="M 416.209313 73.0315 
L 438.209313 73.0315 
L 460.209313 73.0315 
" style="fill: none; stroke: #1f77b4; stroke-width: 1.5; stroke-linecap: square"/>
    </g>
    <g id="text_20">
     <!-- Best accuracy 0.69 -->
     <g transform="translate(477.809313 80.7315) scale(0.22 -0.22)">
      <defs>
       <path id="TimesNewRomanPSMT-42" d="M 2956 2163 
Q 3397 2069 3616 1863 
Q 3919 1575 3919 1159 
Q 3919 844 3719 555 
Q 3519 266 3170 133 
Q 2822 0 2106 0 
L 106 0 
L 106 116 
L 266 116 
Q 531 116 647 284 
Q 719 394 719 750 
L 719 3488 
Q 719 3881 628 3984 
Q 506 4122 266 4122 
L 106 4122 
L 106 4238 
L 1938 4238 
Q 2450 4238 2759 4163 
Q 3228 4050 3475 3764 
Q 3722 3478 3722 3106 
Q 3722 2788 3528 2536 
Q 3334 2284 2956 2163 
z
M 1319 2331 
Q 1434 2309 1582 2298 
Q 1731 2288 1909 2288 
Q 2366 2288 2595 2386 
Q 2825 2484 2947 2687 
Q 3069 2891 3069 3131 
Q 3069 3503 2766 3765 
Q 2463 4028 1881 4028 
Q 1569 4028 1319 3959 
L 1319 2331 
z
M 1319 306 
Q 1681 222 2034 222 
Q 2600 222 2897 476 
Q 3194 731 3194 1106 
Q 3194 1353 3059 1581 
Q 2925 1809 2622 1940 
Q 2319 2072 1872 2072 
Q 1678 2072 1540 2065 
Q 1403 2059 1319 2044 
L 1319 306 
z
" transform="scale(0.015625)"/>
      </defs>
      <use xlink:href="#TimesNewRomanPSMT-42"/>
      <use xlink:href="#TimesNewRomanPSMT-65" transform="translate(66.699219 0)"/>
      <use xlink:href="#TimesNewRomanPSMT-73" transform="translate(111.083984 0)"/>
      <use xlink:href="#TimesNewRomanPSMT-74" transform="translate(150 0)"/>
      <use xlink:href="#TimesNewRomanPSMT-20" transform="translate(177.783203 0)"/>
      <use xlink:href="#TimesNewRomanPSMT-61" transform="translate(202.783203 0)"/>
      <use xlink:href="#TimesNewRomanPSMT-63" transform="translate(247.167969 0)"/>
      <use xlink:href="#TimesNewRomanPSMT-63" transform="translate(291.552734 0)"/>
      <use xlink:href="#TimesNewRomanPSMT-75" transform="translate(335.9375 0)"/>
      <use xlink:href="#TimesNewRomanPSMT-72" transform="translate(385.9375 0)"/>
      <use xlink:href="#TimesNewRomanPSMT-61" transform="translate(419.238281 0)"/>
      <use xlink:href="#TimesNewRomanPSMT-63" transform="translate(463.623047 0)"/>
      <use xlink:href="#TimesNewRomanPSMT-79" transform="translate(508.007812 0)"/>
      <use xlink:href="#TimesNewRomanPSMT-20" transform="translate(558.007812 0)"/>
      <use xlink:href="#TimesNewRomanPSMT-30" transform="translate(583.007812 0)"/>
      <use xlink:href="#TimesNewRomanPSMT-2e" transform="translate(633.007812 0)"/>
      <use xlink:href="#TimesNewRomanPSMT-36" transform="translate(658.007812 0)"/>
      <use xlink:href="#TimesNewRomanPSMT-39" transform="translate(708.007812 0)"/>
     </g>
    </g>
   </g>
  </g>
 </g>
 <defs>
  <clipPath id="pbaeda1485b">
   <rect x="307.259625" y="45.5315" width="357.12" height="266.112"/>
  </clipPath>
 </defs>
</svg>
